<?xml version="1.0" encoding="utf-8"?>
<!-- Generator: Adobe Illustrator 18.0.0, SVG Export Plug-In . SVG Version: 6.00 Build 0)  -->
<!DOCTYPE svg PUBLIC "-//W3C//DTD SVG 1.1//EN" "http://www.w3.org/Graphics/SVG/1.1/DTD/svg11.dtd">
<svg version="1.1" id="Layer_1" xmlns="http://www.w3.org/2000/svg" xmlns:xlink="http://www.w3.org/1999/xlink" x="0px" y="0px"
	 viewBox="0 0 512 512" style="enable-background:new 0 0 512 512;" xml:space="preserve">
<style type="text/css">
	.st0{fill:#FFD452;}
	.st1{fill:#F58E6F;}
	.st2{fill:#4A555F;}
	.st3{fill:none;}
	.st4{fill:#DFDFDF;}
	.st5{fill:#71CCE0;}
	.st6{fill:#FFFFFF;}
</style>
<g>
	<g>
		<g>
			<g>
				<path class="st4" d="M489.463,21.651c-3.638-3.663-8.695-5.93-14.276-5.93H39.751c-12.781,0-23.146,10.364-23.146,23.146
					v342.578c0,12.782,10.365,23.146,23.146,23.146h432.496c12.781,0,23.146-10.364,23.146-23.146V35.927
					C495.393,30.346,493.126,25.289,489.463,21.651z M482.064,350.725H32.327V35.927h449.737V350.725z"/>
			</g>
		</g>
	</g>
	<g>
		<g>
			<g>
				<path class="st2" d="M472.446,0H39.751C18.306,0,0.861,17.436,0.861,38.867v342.578c0,21.445,17.445,38.892,38.89,38.892
					h432.496c21.445,0,38.893-17.447,38.893-38.892V38.668C511.139,17.347,493.781,0,472.446,0z M503.665,381.446
					c0,17.324-14.095,31.417-31.418,31.417H39.751c-17.323,0-31.416-14.094-31.416-31.417V38.867
					c0-17.31,14.092-31.393,31.416-31.393h432.695c17.214,0,31.219,13.993,31.219,31.194V381.446z"/>
			</g>
		</g>
	</g>
	<g>
		<g>
			<g>
				<path class="st2" d="M40.598,44.198v298.28h433.194V44.198H40.598z M466.317,335.004H48.072V51.673h418.245V335.004z"/>
			</g>
		</g>
	</g>
	<g>
		<g>
			<g>
				<path class="st2" d="M307.979,412.849H204.021l-28.243,67.758h160.445L307.979,412.849z M209.004,420.324h93.992l22.014,52.809
					H186.989L209.004,420.324z"/>
			</g>
		</g>
	</g>
	<g>
		<g>
			<polygon class="st4" points="297.483,428.593 214.514,428.593 199.394,464.865 312.605,464.865 			"/>
		</g>
	</g>
	<g>
		<g>
			<g>
				<path class="st2" d="M110.839,473.133V512h290.321v-38.867H110.839z M393.685,504.526H118.313v-23.918h275.372V504.526z"/>
			</g>
		</g>
	</g>
	<g>
		<g>
			<rect x="126.581" y="488.877" class="st4" width="258.836" height="7.381"/>
		</g>
	</g>
	<g>
		<g>
			<rect x="15.413" y="504.526" class="st2" width="481.171" height="7.474"/>
		</g>
	</g>
	<g>
		<g>
			<circle class="st6" cx="256" cy="378.141" r="18.944"/>
		</g>
	</g>
	<g>
		<g>
			<g>
				<path class="st2" d="M255.999,355.459c-12.506,0-22.681,10.175-22.681,22.681c0,12.507,10.175,22.682,22.681,22.682
					c12.506,0,22.681-10.175,22.681-22.682C278.68,365.634,268.505,355.459,255.999,355.459z M255.999,393.348
					c-8.385,0-15.207-6.823-15.207-15.208s6.822-15.207,15.207-15.207c8.384,0,15.207,6.821,15.207,15.207
					S264.383,393.348,255.999,393.348z"/>
			</g>
		</g>
	</g>
	<g>
		<g>
			<g>
				<path class="st2" d="M180.111,84.195c-19.28,0-34.963,15.685-34.963,34.963c0,19.28,15.684,34.965,34.963,34.965
					s34.963-15.685,34.963-34.965C215.074,99.879,199.391,84.195,180.111,84.195z M180.111,146.648
					c-15.158,0-27.489-12.332-27.489-27.49c0-15.157,12.331-27.489,27.489-27.489c15.158,0,27.489,12.332,27.489,27.489
					C207.6,134.316,195.269,146.648,180.111,146.648z"/>
			</g>
		</g>
	</g>
	<g>
		<g>
			<path class="st0" d="M180.111,100.389c-10.35,0-18.769,8.42-18.769,18.769s8.418,18.769,18.769,18.769
				c10.351,0,18.769-8.42,18.769-18.769S190.461,100.389,180.111,100.389z"/>
		</g>
	</g>
	<g>
		<g>
			<g>
				<path class="st2" d="M332.222,84.195c-19.28,0-34.966,15.685-34.966,34.963c0,19.28,15.686,34.965,34.966,34.965
					s34.963-15.685,34.963-34.965C367.186,99.879,351.502,84.195,332.222,84.195z M332.222,146.648
					c-15.158,0-27.491-12.332-27.491-27.49c0-15.157,12.333-27.489,27.491-27.489s27.489,12.332,27.489,27.489
					C359.711,134.316,347.381,146.648,332.222,146.648z"/>
			</g>
		</g>
	</g>
	<g>
		<g>
			<path class="st0" d="M332.223,100.389c-10.35,0-18.771,8.42-18.771,18.769s8.421,18.769,18.771,18.769s18.769-8.42,18.769-18.769
				S342.573,100.389,332.223,100.389z"/>
		</g>
	</g>
	<g>
		<g>
			<g>
				<path class="st2" d="M255.972,155.34c-19.28,0-34.966,15.685-34.966,34.965c0,19.278,15.686,34.963,34.966,34.963
					s34.963-15.685,34.963-34.963C290.935,171.025,275.252,155.34,255.972,155.34z M255.972,217.794
					c-15.158,0-27.491-12.332-27.491-27.489c0-15.158,12.333-27.49,27.491-27.49c15.158,0,27.489,12.332,27.489,27.49
					C283.461,205.462,271.13,217.794,255.972,217.794z"/>
			</g>
		</g>
	</g>
	<g>
		<g>
			<path class="st0" d="M255.972,171.535c-10.35,0-18.771,8.42-18.771,18.769c0,10.35,8.421,18.77,18.771,18.77
				s18.769-8.42,18.769-18.77C274.741,179.955,266.323,171.535,255.972,171.535z"/>
		</g>
	</g>
	<g>
		<g>
			<g>
				<path class="st2" d="M180.111,229.71c-19.28,0-34.963,15.685-34.963,34.963c0,19.279,15.684,34.963,34.963,34.963
					s34.963-15.685,34.963-34.963C215.074,245.395,199.391,229.71,180.111,229.71z M180.111,292.162
					c-15.158,0-27.489-12.332-27.489-27.489c0-15.157,12.331-27.489,27.489-27.489c15.158,0,27.489,12.332,27.489,27.489
					C207.6,279.83,195.269,292.162,180.111,292.162z"/>
			</g>
		</g>
	</g>
	<g>
		<g>
			<path class="st0" d="M180.111,245.904c-10.35,0-18.769,8.42-18.769,18.77c0,10.349,8.418,18.769,18.769,18.769
				c10.351,0,18.769-8.42,18.769-18.769C198.88,254.323,190.461,245.904,180.111,245.904z"/>
		</g>
	</g>
	<g>
		<g>
			<g>
				<path class="st2" d="M332.222,229.71c-19.28,0-34.966,15.685-34.966,34.963c0,19.279,15.686,34.963,34.966,34.963
					s34.963-15.685,34.963-34.963C367.186,245.395,351.502,229.71,332.222,229.71z M332.222,292.162
					c-15.158,0-27.491-12.332-27.491-27.489c0-15.157,12.333-27.489,27.491-27.489s27.489,12.332,27.489,27.489
					C359.711,279.83,347.381,292.162,332.222,292.162z"/>
			</g>
		</g>
	</g>
	<g>
		<g>
			<path class="st0" d="M332.223,245.904c-10.35,0-18.771,8.42-18.771,18.77c0,10.349,8.421,18.769,18.771,18.769
				s18.769-8.42,18.769-18.769C350.991,254.323,342.573,245.904,332.223,245.904z"/>
		</g>
	</g>
	<g>
		<g>
			<rect x="211.337" y="115.421" class="st2" width="89.656" height="7.474"/>
		</g>
	</g>
	<g>
		<g>
			<rect x="176.374" y="150.385" class="st2" width="7.474" height="83.062"/>
		</g>
	</g>
	<g>
		<g>
			<rect x="328.485" y="150.385" class="st2" width="7.475" height="83.062"/>
		</g>
	</g>
	<g>
		<g>
			<rect x="211.337" y="263.49" class="st2" width="89.656" height="7.474"/>
		</g>
	</g>
	<g>
		<g>
			<g>
				<path class="st2" d="M144.276,194.042h7.475v-7.474h-7.475V194.042z M159.225,186.568v7.474h7.474v-7.474H159.225z"/>
			</g>
		</g>
	</g>
	<g>
		<g>
			
				<rect x="197.491" y="225.49" transform="matrix(0.7071 -0.7071 0.7071 0.7071 -97.7799 222.4007)" class="st2" width="44.141" height="7.473"/>
		</g>
	</g>
	<g>
		<g>
			
				<rect x="273.096" y="151.093" transform="matrix(0.7071 -0.7071 0.7071 0.7071 -23.3831 253.21)" class="st2" width="41.695" height="7.474"/>
		</g>
	</g>
	<g>
		<g>
			
				<rect x="214.959" y="133.982" transform="matrix(0.7071 -0.7071 0.7071 0.7071 -45.4252 199.996)" class="st2" width="7.473" height="41.695"/>
		</g>
	</g>
	<g>
		<g>
			
				<rect x="289.169" y="206.738" transform="matrix(0.7071 -0.7071 0.7071 0.7071 -76.1748 274.2041)" class="st2" width="7.474" height="44.63"/>
		</g>
	</g>
	<g>
		<g>
			<g>
				<path class="st2" d="M206.087,186.568v7.474h7.474v-7.474H206.087z M191.138,194.042h7.475v-7.474h-7.475V194.042z"/>
			</g>
		</g>
	</g>
	<g>
		<g>
			<g>
				<path class="st2" d="M296.721,194.042h7.475v-7.474h-7.475V194.042z M311.67,186.568v7.474h7.474v-7.474H311.67z"/>
			</g>
		</g>
	</g>
	<g>
		<g>
			<g>
				<path class="st2" d="M343.583,194.042h7.475v-7.474h-7.475V194.042z M358.531,186.568v7.474h7.474v-7.474H358.531z"/>
			</g>
		</g>
	</g>
	<g>
		<g>
			<g>
				<path class="st2" d="M252.262,101.005h7.474V93.53h-7.474V101.005z M252.262,78.582v7.474h7.474v-7.474H252.262z"/>
			</g>
		</g>
	</g>
	<g>
		<g>
			<g>
				<path class="st2" d="M252.262,147.866h7.474v-7.474h-7.474V147.866z M252.262,125.443v7.474h7.474v-7.474H252.262z"/>
			</g>
		</g>
	</g>
	<g>
		<g>
			<g>
				<path class="st2" d="M252.262,253.448h7.474v-7.474h-7.474V253.448z M252.262,231.025v7.475h7.474v-7.475H252.262z"/>
			</g>
		</g>
	</g>
	<g>
		<g>
			<g>
				<path class="st2" d="M252.262,300.31h7.474v-7.474h-7.474V300.31z M252.262,277.886v7.474h7.474v-7.474H252.262z"/>
			</g>
		</g>
	</g>
</g>
</svg>
