<?xml version="1.0" encoding="utf-8"?>
<!-- Generator: Adobe Illustrator 18.0.0, SVG Export Plug-In . SVG Version: 6.00 Build 0)  -->
<!DOCTYPE svg PUBLIC "-//W3C//DTD SVG 1.1//EN" "http://www.w3.org/Graphics/SVG/1.1/DTD/svg11.dtd">
<svg version="1.1" id="Layer_1" xmlns="http://www.w3.org/2000/svg" xmlns:xlink="http://www.w3.org/1999/xlink" x="0px" y="0px"
	 viewBox="0 0 512 512" style="enable-background:new 0 0 512 512;" xml:space="preserve">
<style type="text/css">
	.st0{fill:#FFD452;}
	.st1{fill:#F58E6F;}
	.st2{fill:#4A555F;}
	.st3{fill:none;}
	.st4{fill:#DFDFDF;}
	.st5{fill:#71CCE0;}
	.st6{fill:#FFFFFF;}
</style>
<g>
	<g>
		<g>
			<path class="st2" d="M209.249,50.701c-80.505,0-146,65.496-146,146v57.142L6.175,361.112h57.073V467.29H169.7V512h6.779v-51.489
				H70.027V354.333H17.459l52.568-98.799v-58.834c0-76.768,62.455-139.222,139.222-139.222c13.379,0,26.626,1.901,39.373,5.649
				l1.913-6.503C237.166,52.695,223.276,50.701,209.249,50.701z"/>
		</g>
	</g>
	<g>
		<g>
			<rect x="348.493" y="283.694" class="st2" width="6.779" height="228.306"/>
		</g>
	</g>
	<g>
		<g>
			<path class="st4" d="M295.74,267.38l-54.319,22.968l19.937-48.966c-25.497-25.405-39.578-58.808-39.578-97.656
				c0-27.114,7.679-52.428,21.008-73.892c-10.709-2.848-21.942-4.351-33.539-4.351c-72.342,0-131.219,58.854-131.219,131.218v60.836
				l-1.344,2.505L30.774,346.33H78.03v106.178h106.451V512H340.49V282.396C324.518,279.934,309.434,274.762,295.74,267.38z"/>
		</g>
	</g>
	<g>
		<g>
			<g>
				<path class="st2" d="M362.103,0c-79.249,0-143.722,64.473-143.722,143.722c0,38.226,13.472,72.218,38.989,98.459l-22.168,54.482
					l60.366-25.529c20.414,10.675,43.383,16.311,66.536,16.311c79.249,0,143.722-64.474,143.722-143.723
					C505.825,64.473,441.352,0,362.103,0z M362.103,280.666c-22.583,0-44.979-5.625-64.766-16.267l-1.43-0.769l-48.249,20.405
					l17.682-43.456l-1.596-1.591c-25.242-25.153-38.584-58.096-38.584-95.266c0-75.511,61.432-136.943,136.944-136.943
					s136.944,61.432,136.944,136.943C499.047,219.233,437.614,280.666,362.103,280.666z"/>
			</g>
		</g>
	</g>
	<g>
		<g>
			<path class="st0" d="M351.883,67.123c-11.962,0-21.691,9.729-21.691,21.691v15.448h43.383V88.814
				C373.574,76.852,363.845,67.123,351.883,67.123z"/>
		</g>
	</g>
	<g>
		<g>
			<g>
				<path class="st0" d="M362.113,14.786c-71.112,0-128.94,57.828-128.94,128.94c0,34.997,12.509,65.963,36.228,89.59l5.354,5.355
					l-12.395,30.464l33.949-14.377l4.808,2.598c18.638,10.002,39.714,15.311,60.995,15.311c71.089,0,128.94-57.85,128.94-128.94
					C491.053,72.615,433.202,14.786,362.113,14.786z M463.871,191.848c-0.228,0.387-0.456,0.774-0.706,1.162l-0.159,0.274
					c-0.251,0.433-0.524,0.866-0.798,1.276c-6.175,9.136-16.428,14.582-27.433,14.582h-2.142c-3.6,0-7.063-0.592-10.322-1.663
					v28.595H281.432V104.262h10.823V88.814c0-32.879,26.75-59.628,59.628-59.628c32.878,0,59.628,26.749,59.628,59.628v15.448h10.8
					v22.443c3.258-1.07,6.722-1.663,10.322-1.663h2.142c12.145,0,23.286,6.631,29.096,17.295c2.598,4.807,3.987,10.275,3.987,15.789
					v17.932C467.858,181.572,466.468,187.018,463.871,191.848z"/>
			</g>
		</g>
	</g>
	<g>
		<g>
			<g>
				<path class="st2" d="M289.441,112.274v115.791h124.866V112.274H289.441z M407.529,221.286H296.22V119.052h111.309V221.286z"/>
			</g>
		</g>
	</g>
	<g>
		<g>
			<g>
				<path class="st2" d="M349.867,37.227c-27.359,1.045-49.618,24.721-49.618,52.776v29.041h21.931v-30.23
					c0-16.838,14.113-30.438,31.093-29.663c15.603,0.718,28.296,14.497,28.296,30.713v29.18h21.93v-30.23
					C403.499,59.68,379.281,36.136,349.867,37.227z M396.72,112.266h-8.373V89.864c0-20.122-15.269-36.587-34.763-37.484
					c-20.874-0.977-38.183,15.755-38.183,36.434v23.452h-8.374V90.003c0-24.458,19.334-45.095,43.097-46.002
					c25.587-0.976,46.597,19.503,46.596,44.813V112.266z"/>
			</g>
		</g>
	</g>
	<g>
		<g>
			<path class="st1" d="M351.883,139.534c-7.451,0-13.466,6.015-13.466,13.443c0,2.37,0.615,4.579,1.709,6.494h23.514
				c1.071-1.915,1.686-4.124,1.686-6.494C365.326,145.549,359.311,139.534,351.883,139.534z"/>
		</g>
	</g>
	<g>
		<g>
			<polygon class="st1" points="363.526,174.828 340.239,174.828 333.769,194.651 369.997,194.651 			"/>
		</g>
	</g>
	<g>
		<g>
			<g>
				<path class="st2" d="M351.883,136.145c-9.294,0-16.856,7.551-16.856,16.832c0,2.882,0.746,5.709,2.156,8.176l0.976,1.707h27.467
					l0.971-1.734c1.385-2.475,2.117-5.294,2.117-8.149C368.715,143.696,361.164,136.145,351.883,136.145z M361.446,156.082h-19.145
					c-0.329-0.985-0.495-2.023-0.495-3.105c0-5.544,4.52-10.054,10.077-10.054c5.543,0,10.053,4.51,10.053,10.054
					C361.936,154.053,361.772,155.092,361.446,156.082z"/>
			</g>
		</g>
	</g>
	<g>
		<g>
			<g>
				<path class="st2" d="M365.985,171.439H337.78l-8.683,26.602h45.571L365.985,171.439z M338.44,191.262l4.258-13.045h18.368
					l4.259,13.045H338.44z"/>
			</g>
		</g>
	</g>
	<g>
		<g>
			<g>
				<path class="st2" d="M410.918,156.082h-70.792l-2.981,5.001c0.736,1.362,1.68,2.63,2.781,3.745l-2.909,8.952l3.222,4.437h70.679
					l3.389-3.389v-15.357L410.918,156.082z M407.529,171.439h-62.624l2.157-6.636l-0.617-1.942h61.084V171.439z"/>
			</g>
		</g>
	</g>
	<g>
		<g>
			<g>
				<path class="st2" d="M434.954,133.036h-2.51c-13.733,0-24.905,11.172-24.905,24.905v18.298
					c0,13.733,11.173,24.905,24.905,24.905h2.51c13.732,0,24.905-11.172,24.905-24.905v-18.298
					C459.859,144.208,448.686,133.036,434.954,133.036z M453.081,176.239c0,9.995-8.131,18.126-18.127,18.126h-2.51
					c-9.996,0-18.127-8.131-18.127-18.126v-18.298c0-9.995,8.131-18.127,18.127-18.127h2.51c9.996,0,18.127,8.132,18.127,18.127
					V176.239z"/>
			</g>
		</g>
	</g>
	<g>
		<g>
			<g>
				<path class="st2" d="M433.796,146.958c-5.085,0-9.222,4.137-9.222,9.222v21.819c0,5.085,4.137,9.223,9.222,9.223h0.098
					c5.085,0,9.222-4.137,9.222-9.223V156.18C443.116,151.095,438.979,146.958,433.796,146.958z M436.338,177.999
					c0,1.348-1.097,2.444-2.444,2.444h-0.098c-1.347,0-2.444-1.097-2.444-2.444V156.18c0-1.348,1.096-2.444,2.542-2.444
					c1.347,0,2.444,1.096,2.444,2.444V177.999z"/>
			</g>
		</g>
	</g>
</g>
</svg>
