<svg id="Layer_1" data-name="Layer 1" xmlns="http://www.w3.org/2000/svg" viewBox="0 0 128 128"><title>AUTUMN LEAF-14</title><path d="M95.171,62.432c-2.582,5.809-7.829,12.68-18.5,17.358,0,0,10.534-11.434,14.595-24.479a75.715,75.715,0,0,0-6.454-9.227c-1.661,3.242-4.286,7.035-8.141,9.228a84.809,84.809,0,0,0,4.49-13.984c-2.639-3.394-4.342-5.469-6.519-8.472-.708,2.93-2.495,4.8-3.519,6.364,0,0,.582-8.241-2.553-12A36.364,36.364,0,0,1,64,20.5a36.357,36.357,0,0,1-4.568,6.718c-3.135,3.762-2.553,12-2.553,12-1.024-1.567-2.811-3.434-3.519-6.364-2.177,3-3.88,5.078-6.519,8.472a84.819,84.819,0,0,0,4.49,13.984c-3.855-2.192-6.48-5.985-8.141-9.227a75.714,75.714,0,0,0-6.454,9.228C40.8,68.357,51.331,79.791,51.331,79.791c-10.674-4.678-15.92-11.549-18.5-17.358a24.221,24.221,0,0,0-2.486,9.752c0,21.769,23.855,29.3,33.658,22.642,9.8,6.658,33.658-.873,33.658-22.642A24.221,24.221,0,0,0,95.171,62.432Z" style="fill:#dc2a13"/><path d="M97.657,72.185a24.221,24.221,0,0,0-2.486-9.752c-2.582,5.809-7.829,12.68-18.5,17.358,0,0,10.534-11.434,14.595-24.479a75.723,75.723,0,0,0-6.454-9.228c-1.661,3.242-4.286,7.035-8.141,9.228a84.819,84.819,0,0,0,4.49-13.984c-2.639-3.394-4.342-5.469-6.519-8.472-.708,2.93-2.494,4.8-3.519,6.364,0,0,.582-8.241-2.553-12A36.353,36.353,0,0,1,64,20.5V94.827C73.8,101.485,97.657,93.954,97.657,72.185Z" style="fill:#b12704"/><path d="M90.6,78.361a1.249,1.249,0,0,0-1.7.5c-.053.1-5.337,9.41-23.653,14.352V75.265C77.736,69.2,82.852,61,83.067,60.65a1.25,1.25,0,1,0-2.135-1.3c-.047.078-4.634,7.432-15.683,13.125v-14.7c8.959-6.88,10.879-13.661,10.958-13.951a1.25,1.25,0,0,0-2.415-.648c-.016.059-1.553,5.477-8.543,11.392V31.417a1.25,1.25,0,1,0-2.5,0v23.15c-6.937-5.88-8.527-11.336-8.544-11.395a1.25,1.25,0,0,0-2.414.652c.078.29,2,7.071,10.957,13.951v14.7c-11-5.673-15.636-13.049-15.684-13.126a1.25,1.25,0,0,0-2.134,1.3c.215.352,5.331,8.547,17.817,14.615V93.21C44.561,88.3,39.16,78.972,39.094,78.855a1.25,1.25,0,0,0-2.191,1.2c.238.436,5.994,10.573,25.847,15.735V107.5a1.25,1.25,0,1,0,2.5,0V95.793C85.1,90.631,90.858,80.494,91.1,80.058A1.25,1.25,0,0,0,90.6,78.361Z" style="fill:#913509"/></svg>