<svg id="Layer_1" data-name="Layer 1" xmlns="http://www.w3.org/2000/svg" viewBox="0 0 128 128"><title>AUTUMN LEAF-16</title><path d="M85.744,75.931C97.849,65.72,107.5,46.748,107.5,46.748S88.66,49.172,75.039,56.161C72.955,39.43,64,20.792,64,20.792S55.045,39.43,52.96,56.161C39.339,49.172,20.5,46.748,20.5,46.748S30.15,65.72,42.256,75.931A100.541,100.541,0,0,0,28.088,92.614s19.419-.33,30.737-6.561a20.621,20.621,0,0,0,4.995-3.819c.06,0,.119.016.18.016s.119-.014.18-.016a20.621,20.621,0,0,0,4.995,3.819c11.318,6.231,30.737,6.561,30.737,6.561A100.544,100.544,0,0,0,85.744,75.931Z" style="fill:#dc2a13"/><path d="M64.18,82.234a20.621,20.621,0,0,0,4.995,3.819c11.318,6.231,30.737,6.561,30.737,6.561A100.541,100.541,0,0,0,85.744,75.931C97.849,65.72,107.5,46.748,107.5,46.748s-18.84,2.424-32.461,9.412C72.955,39.43,64,20.792,64,20.792V82.25C64.06,82.25,64.119,82.236,64.18,82.234Z" style="fill:#b12704"/><path d="M93.068,58.019a1.251,1.251,0,0,0-1.717-.42L65.25,73.446V48.667a1.25,1.25,0,0,0-2.5,0V73.446L36.648,57.6a1.25,1.25,0,0,0-1.3,2.137L62.75,76.37V107.5a1.25,1.25,0,0,0,2.5,0V76.37l27.4-16.635A1.249,1.249,0,0,0,93.068,58.019Z" style="fill:#913509"/></svg>