<svg id="Layer_1" data-name="Layer 1" xmlns="http://www.w3.org/2000/svg" viewBox="0 0 128 128"><title>AUTUMN LEAF-15</title><path d="M107.385,62.672c-.908-8.171-6.955-14.2-13.5-13.476-3.964.441-12.52,3.851-18.459,8.285,4.179-7.71,6.858-17.7,6.858-22.327C82.28,27.061,74.1,20.5,64,20.5S45.72,27.061,45.72,35.153c0,4.628,2.679,14.618,6.859,22.327-5.939-4.434-14.495-7.844-18.459-8.285-6.55-.728-12.6,5.305-13.5,13.476S24.28,78.058,30.83,78.786c2.481.276,6.973-.188,11.646-1.313a10.933,10.933,0,0,0,4.142,7.363c4.262,3.466,9.968,3.506,12.747.09,1.514-1.861,3.672-6.613,4.636-11.114.964,4.5,3.122,9.253,4.636,11.114,2.778,3.416,8.485,3.376,12.747-.09a10.934,10.934,0,0,0,4.142-7.363C90.2,78.6,94.689,79.062,97.17,78.786,103.72,78.058,108.293,70.843,107.385,62.672Z" style="fill:#f8ce2a"/><path d="M93.88,49.2c-3.964.441-12.52,3.851-18.459,8.285,4.179-7.71,6.859-17.7,6.859-22.327,0-7.041-6.2-12.918-14.458-14.327A57.377,57.377,0,0,0,64,35.75c-2.814,13.337-1.732,27.511.1,38.517,1.007,4.362,3.068,8.86,4.531,10.658,2.778,3.416,8.485,3.376,12.747-.09a10.933,10.933,0,0,0,4.142-7.363C90.2,78.6,94.689,79.062,97.17,78.786c6.55-.728,11.123-7.942,10.215-16.113S100.43,48.468,93.88,49.2Z" style="fill:#f2ac16"/><path d="M98.039,69.472l-6.291-1.918c1.489-.762,2.97-1.589,4.421-2.494a1.25,1.25,0,1,0-1.322-2.121,64.233,64.233,0,0,1-11.626,5.6l3.94-9.394a1.25,1.25,0,1,0-2.3-.967L80.048,69.645a89.169,89.169,0,0,1-15.09,3.472,161.866,161.866,0,0,1-.262-30.6l7.075-3.207a1.25,1.25,0,0,0-1.031-2.277l-5.782,2.621c.155-1.525.271-2.414.28-2.481a1.25,1.25,0,1,0-2.477-.336c-.089.657-.724,5.513-1.051,12.47l-6.3-4.641a1.25,1.25,0,0,0-1.482,2.014L61.6,52.322a146.956,146.956,0,0,0,.76,20.722,89.629,89.629,0,0,1-14.562-3.4L42.985,58.184a1.25,1.25,0,1,0-2.3.967l3.941,9.4A64.283,64.283,0,0,1,32.994,62.94a1.25,1.25,0,0,0-1.322,2.121c1.451.9,2.932,1.732,4.421,2.494L29.8,69.472a1.25,1.25,0,1,0,.728,2.391l8.9-2.714a87.583,87.583,0,0,0,23.243,6.467c1.863,13.465,6.382,26.737,16.36,32.946a1.25,1.25,0,1,0,1.32-2.123c-9.082-5.651-13.292-18.06-15.084-30.837a87.581,87.581,0,0,0,23.132-6.453l8.9,2.714a1.25,1.25,0,0,0,.729-2.391Z" style="fill:#913509"/></svg>