<?xml version="1.0" encoding="utf-8"?>
<!-- Generator: Adobe Illustrator 23.0.6, SVG Export Plug-In . SVG Version: 6.00 Build 0)  -->
<svg version="1.1" xmlns="http://www.w3.org/2000/svg" xmlns:xlink="http://www.w3.org/1999/xlink" x="0px" y="0px"
	 viewBox="0 0 512 512" style="enable-background:new 0 0 512 512;" xml:space="preserve">
<style type="text/css">
	.st0{fill:#80D6FB;}
	.st1{fill:#46BEE8;}
	.st2{fill:#FFD3B3;}
	.st3{fill:#FCB98B;}
	.st4{fill:#6E83B7;}
	.st5{fill:#EDEFF1;}
	.st6{fill:#466089;}
	.st7{fill:#D3D3D3;}
	.st8{fill:#FFB0AA;}
	.st9{fill:#FF7B7B;}
	.st10{fill:#FFE352;}
	.st11{fill:#FFB236;}
	.st12{fill:#98CA69;}
</style>
<g id="Layer_1">
</g>
<g id="Layer_2">
	<g>
		<g>
			<path class="st5" d="M106,136v226h60V162h180v200h60V136c0-18.778-15.222-34-34-34H140C121.222,102,106,117.222,106,136z"/>
		</g>
		<g>
			<rect x="226" y="5" class="st4" width="60" height="97"/>
		</g>
		<g>
			<polygon class="st5" points="256,262 196,262 196,282 256,330 316,282 316,262 			"/>
		</g>
		<g>
			<rect x="226" y="162" class="st6" width="60" height="100"/>
		</g>
		<g>
			<rect x="196" y="262" class="st7" width="120" height="20"/>
		</g>
		<g>
			<rect x="286" y="39" class="st5" width="161" height="30"/>
		</g>
		<g>
			<rect x="286" y="39" class="st7" width="10" height="30"/>
		</g>
		<g>
			<rect x="447" y="34" class="st4" width="60" height="40"/>
		</g>
		<g>
			<rect x="65" y="39" class="st5" width="161" height="30"/>
		</g>
		<g>
			<rect x="5" y="34" class="st4" width="60" height="40"/>
		</g>
		<g>
			<rect x="5" y="407" class="st5" width="502" height="80"/>
		</g>
		<g>
			<rect x="5" y="387" class="st4" width="502" height="20"/>
		</g>
		<g>
			<rect x="5" y="487" class="st4" width="502" height="20"/>
		</g>
		<g>
			<rect x="216" y="39" class="st7" width="10" height="30"/>
		</g>
	</g>
</g>
</svg>
