<?xml version="1.0" encoding="utf-8"?>
<!-- Generator: Adobe Illustrator 23.0.6, SVG Export Plug-In . SVG Version: 6.00 Build 0)  -->
<svg version="1.1" xmlns="http://www.w3.org/2000/svg" xmlns:xlink="http://www.w3.org/1999/xlink" x="0px" y="0px"
	 viewBox="0 0 512 512" style="enable-background:new 0 0 512 512;" xml:space="preserve">
<style type="text/css">
	.st0{fill:#80D6FB;}
	.st1{fill:#46BEE8;}
	.st2{fill:#FFD3B3;}
	.st3{fill:#FCB98B;}
	.st4{fill:#6E83B7;}
	.st5{fill:#EDEFF1;}
	.st6{fill:#466089;}
	.st7{fill:#D3D3D3;}
	.st8{fill:#FFB0AA;}
	.st9{fill:#FF7B7B;}
	.st10{fill:#FFE352;}
	.st11{fill:#FFB236;}
	.st12{fill:#98CA69;}
</style>
<g id="Layer_1">
</g>
<g id="Layer_2">
	<g>
		<g>
			<rect x="146" y="477" class="st6" width="220" height="30"/>
		</g>
		<g>
			<path class="st4" d="M216,407h80c33.137,0,60,26.863,60,60v10H156v-10C156,433.863,182.863,407,216,407z"/>
		</g>
		<g>
			<polygon class="st6" points="256,364 310,364 278,407 256,407 234,407 202,364 			"/>
		</g>
		<g>
			<rect x="202" y="121" class="st5" width="108" height="243"/>
		</g>
		<g>
			<rect x="202" y="91" class="st6" width="108" height="30"/>
		</g>
		<path class="st4" d="M346,5H166v55.714l80,21V91h20v-9.286l80-21V5z M326,45.286l-70,18.375l-70-18.375V25h140V45.286z"/>
	</g>
</g>
</svg>
