<?xml version="1.0" encoding="utf-8"?>
<!-- Generator: Adobe Illustrator 22.0.0, SVG Export Plug-In . SVG Version: 6.00 Build 0)  -->
<svg version="1.1" id="Layer_1" xmlns="http://www.w3.org/2000/svg" xmlns:xlink="http://www.w3.org/1999/xlink" x="0px" y="0px"
	 viewBox="0 0 512 512" style="enable-background:new 0 0 512 512;" xml:space="preserve">
<style type="text/css">
	.st0{fill:#FF7B7B;}
	.st1{fill:#FFB236;}
	.st2{fill:#FFD3B3;}
	.st3{fill:#FCB98B;}
	.st4{fill:#6E83B7;}
	.st5{fill:#FFB0AA;}
	.st6{fill:#EDEFF1;}
	.st7{fill:#FFE352;}
	.st8{fill:#46BEE8;}
	.st9{fill:#9CE5FF;}
	.st10{fill:#80D6FB;}
	.st11{fill:#FFE67B;}
	.st12{fill:#F76161;}
	.st13{fill:#98CA69;}
	.st14{fill:#75AA40;}
	.st15{fill:#BFEA8C;}
	.st16{fill:#D3D3D3;}
	.st17{fill:#466089;}
	.st18{fill:#7C93BF;}
	.st19{fill:#FFC69F;}
	.st20{fill:#859CC1;}
	.st21{fill:#EFA470;}
	.st22{fill:#C1C1C1;}
	.st23{fill:#E2935D;}
	.st24{fill:#99E5FF;}
</style>
<g>
	<g>
		<path class="st4" d="M307.5,211.983c-0.771-4.011-2.093-7.662-3.771-10.974C314.424,189.714,321,174.473,321,157.667v-6.677H191
			v6.677c0,34.064,26.976,61.745,60.64,63.036l-4.14,8.28c20.333-7,36,10,36,10c26.333,30.333,65,14,65,14
			C322.167,252.649,311.229,231.371,307.5,211.983z"/>
	</g>
	<g>
		<circle class="st4" cx="256" cy="33.99" r="29"/>
	</g>
	<g>
		<path class="st4" d="M352.869,251.907L324,243.99H188l-28.869,7.917C133.068,259.055,115,282.745,115,309.771V507h55V365.99
			c0,0,14,30.51,14,65.99c0,28.353-14,75.029-14,75.029l86-0.01l86,0.01c0,0-14-46.677-14-75.029c0-35.48,14-65.99,14-65.99V507h55
			V309.771C397,282.745,378.932,259.055,352.869,251.907z"/>
	</g>
	<g>
		<path class="st17" d="M334,248.99v-2.258l-10-2.742L256,244l-68-0.01l-10,2.742v2.258c0,43.009,34.99,78,78,78S334,292,334,248.99
			z"/>
	</g>
	<g>
		<path class="st2" d="M283,231.99v-36h-54v36l-41,12v5c0,37.555,30.445,68,68,68h0c37.555,0,68-30.445,68-68v-5L283,231.99z"/>
	</g>
	<g>
		<path class="st2" d="M314,112.99h6.598c6.041,0,10.703,5.315,9.915,11.305l-2.597,19.739c-0.524,3.981-3.917,6.956-7.932,6.956
			H314V112.99z"/>
	</g>
	<g>
		<path class="st2" d="M198,112.99h-6.598c-6.041,0-10.703,5.315-9.915,11.305l2.597,19.739c0.524,3.981,3.917,6.956,7.932,6.956
			H198V112.99z"/>
	</g>
	<g>
		<path class="st3" d="M229,215.386c8.282,3.598,17.41,5.604,27,5.604s18.718-2.006,27-5.604V201.99h-54V215.386z"/>
	</g>
	<g>
		<path class="st2" d="M314,152.99c0,32.033-25.967,58-58,58s-58-25.967-58-58v-76h116V152.99z"/>
	</g>
	<g>
		<path class="st4" d="M256,25.99L256,25.99c-35.898,0-65,29.101-65,65v22h7v39l10-39h9.29l5.71-15l5.71,15h21.58l5.71-15l5.71,15
			h21.58l5.71-15l5.71,15H304l10,39v-39h7v-22C321,55.091,291.898,25.99,256,25.99z"/>
	</g>
	<g>
		<polygon class="st3" points="259,169.99 249.157,169.99 253.09,154.263 258.91,155.718 256.843,163.99 259,163.99 		"/>
	</g>
	<g>
		<path class="st4" d="M264.298,125.71c0,0,17.062-7.057,32.944,3.563c0,0-13.69-3.609-30.047,2.487L264.298,125.71z"/>
	</g>
	<g>
		<path class="st4" d="M247.702,125.71c0,0-17.062-7.057-32.944,3.563c0,0,13.69-3.609,30.047,2.487L247.702,125.71z"/>
	</g>
	<g>
		<path class="st3" d="M256,192.167c-6.974,0-11.298-6.222-11.479-6.486l4.957-3.381c0.018,0.025,2.747,3.867,6.521,3.867
			c3.778,0,6.495-3.829,6.521-3.867l4.957,3.381C267.298,185.945,262.974,192.167,256,192.167z"/>
	</g>
	<g>
		<path class="st19" d="M284,162.99h-10c-2.209,0-4-1.791-4-4l0,0c0-2.209,1.791-4,4-4h10c2.209,0,4,1.791,4,4l0,0
			C288,161.199,286.209,162.99,284,162.99z"/>
	</g>
	<g>
		<path class="st19" d="M228,162.99h10c2.209,0,4-1.791,4-4l0,0c0-2.209-1.791-4-4-4h-10c-2.209,0-4,1.791-4,4l0,0
			C224,161.199,225.791,162.99,228,162.99z"/>
	</g>
	<g>
		<path class="st4" d="M236,138.99c-0.022,0-0.044,0.003-0.067,0.003c-0.62,0.028-5.516,0.18-7.933-2.003
			c0,0,0.619,2.919,2.817,4.987c-0.516,0.886-0.817,1.913-0.817,3.013c0,3.314,2.686,6,6,6s6-2.686,6-6S239.314,138.99,236,138.99z"
			/>
	</g>
	<g>
		<path class="st4" d="M276,138.99c0.022,0,0.044,0.003,0.067,0.003c0.62,0.028,5.516,0.18,7.933-2.003c0,0-0.619,2.919-2.817,4.987
			c0.516,0.886,0.817,1.913,0.817,3.013c0,3.314-2.686,6-6,6s-6-2.686-6-6S272.686,138.99,276,138.99z"/>
	</g>
	<g>
		<path class="st3" d="M259,316.99h-6c-0.004-0.352-0.191-9.037-8.395-13.344l2.789-5.312c4.212,2.212,6.896,5.244,8.605,8.224
			c1.71-2.979,4.394-6.012,8.605-8.224l2.789,5.312C259.096,308.003,259,316.9,259,316.99z"/>
	</g>
	<g>
		<path class="st5" d="M322.789,156.578l8.764,17.528c0.665,1.33-0.302,2.894-1.789,2.894H321h-8.764
			c-1.487,0-2.454-1.565-1.789-2.894l8.764-17.528C319.948,155.104,322.052,155.104,322.789,156.578z"/>
	</g>
	<g>
		<rect x="319" y="147.188" class="st16" width="4" height="12.812"/>
	</g>
	<g>
		<path class="st5" d="M189.211,156.578l-8.764,17.528c-0.665,1.33,0.302,2.894,1.789,2.894H191h8.764
			c1.487,0,2.454-1.565,1.789-2.894l-8.764-17.528C192.052,155.104,189.948,155.104,189.211,156.578z"/>
	</g>
	<g>
		<rect x="189" y="147.188" class="st16" width="4" height="12.812"/>
	</g>
</g>
</svg>
