<?xml version="1.0" encoding="utf-8"?>
<!-- Generator: Adobe Illustrator 22.0.0, SVG Export Plug-In . SVG Version: 6.00 Build 0)  -->
<svg version="1.1" id="Layer_1" xmlns="http://www.w3.org/2000/svg" xmlns:xlink="http://www.w3.org/1999/xlink" x="0px" y="0px"
	 viewBox="0 0 512 512" style="enable-background:new 0 0 512 512;" xml:space="preserve">
<style type="text/css">
	.st0{fill:#FF7B7B;}
	.st1{fill:#FFB236;}
	.st2{fill:#FFD3B3;}
	.st3{fill:#FCB98B;}
	.st4{fill:#6E83B7;}
	.st5{fill:#FFB0AA;}
	.st6{fill:#EDEFF1;}
	.st7{fill:#FFE352;}
	.st8{fill:#46BEE8;}
	.st9{fill:#9CE5FF;}
	.st10{fill:#80D6FB;}
	.st11{fill:#FFE67B;}
	.st12{fill:#F76161;}
	.st13{fill:#98CA69;}
	.st14{fill:#75AA40;}
	.st15{fill:#BFEA8C;}
	.st16{fill:#D3D3D3;}
	.st17{fill:#466089;}
	.st18{fill:#7C93BF;}
	.st19{fill:#FFC69F;}
	.st20{fill:#859CC1;}
	.st21{fill:#EFA470;}
	.st22{fill:#C1C1C1;}
	.st23{fill:#E2935D;}
	.st24{fill:#99E5FF;}
</style>
<g>
	<g>
		<g>
			<g>
				<path class="st4" d="M256.2,110.999H191V165c0,12.702,10.297,23,23,23c0,12.702,10.297,23,23,23h19.2h19.2
					c12.703,0,23-10.298,23-23c12.703,0,23-10.298,23-23v-54.001H256.2z"/>
			</g>
		</g>
		<g>
			<g>
				<polygon class="st2" points="283,202.999 283,174.999 229,174.999 229,202.999 256,255.999 				"/>
			</g>
		</g>
		<g>
			<g>
				<polygon class="st6" points="236,370 276,370 276,337 282.415,280.414 256,255.999 229.585,280.414 236,337 				"/>
			</g>
		</g>
		<g>
			<g>
				<path class="st2" d="M314,91.999h6.598c6.041,0,10.703,5.315,9.915,11.305l-2.597,19.739c-0.524,3.981-3.917,6.956-7.932,6.956
					H314V91.999z"/>
			</g>
		</g>
		<g>
			<g>
				<path class="st2" d="M198,91.999h-6.598c-6.041,0-10.703,5.315-9.915,11.305l2.597,19.739c0.524,3.981,3.917,6.956,7.932,6.956
					H198V91.999z"/>
			</g>
		</g>
		<g>
			<g>
				<path class="st3" d="M229,194.395c8.282,3.598,17.41,5.604,27,5.604s18.718-2.006,27-5.604v-13.396h-54V194.395z"/>
			</g>
		</g>
		<g>
			<g>
				<path class="st2" d="M314,131.999c0,32.033-25.967,58-58,58s-58-25.967-58-58v-76h116V131.999z"/>
			</g>
		</g>
		<g>
			<g>
				<path class="st4" d="M236,337v33h-64.42L165,332v38h-50v-86.07c0-24.199,16.1-45.449,39.41-51.989l67.53-18.96L236,337z"/>
			</g>
		</g>
		<g>
			<g>
				<g>
					<polygon class="st20" points="236,337 236,370 230.65,370 207,319 216,295 188,255 197.84,219.75 221.94,212.98 					"/>
				</g>
			</g>
		</g>
		<g>
			<g>
				<path class="st4" d="M397,283.93V370h-50v-38l-6.58,38H276v-33l14.06-124.02l67.53,18.96C380.9,238.48,397,259.73,397,283.93z"
					/>
			</g>
		</g>
		<g>
			<g>
				<g>
					<polygon class="st20" points="296,295 305,319 281.35,370 276,370 276,337 290.06,212.98 314.16,219.75 324,255 					"/>
				</g>
			</g>
		</g>
		<g>
			<g>
				<path class="st4" d="M287,15.999h-3c-7.043-7.043-16.596-11-26.556-11H251c-33.137,0-60,26.863-60,60v27h7v27l11.693-27.284
					C261.479,89.156,276,69.999,276,69.999s12.404,14.615,27.462,20.02L314,118.999v-27h7v-42C321,31.222,305.778,15.999,287,15.999
					z"/>
			</g>
		</g>
		<g>
			<g>
				<polygon class="st3" points="259,148.999 249.158,148.999 253.089,133.271 258.911,134.727 256.842,142.999 259,142.999 				"/>
			</g>
		</g>
		<g>
			<g>
				<path class="st4" d="M266,103.999c0,0,16.939-7.347,33,3c0,0-13.75-3.375-30,3L266,103.999z"/>
			</g>
		</g>
		<g>
			<g>
				<path class="st4" d="M246,103.999c0,0-16.939-7.347-33,3c0,0,13.75-3.375,30,3L246,103.999z"/>
			</g>
		</g>
		<g>
			<g>
				<path class="st19" d="M284,141.999h-10c-2.209,0-4-1.791-4-4l0,0c0-2.209,1.791-4,4-4h10c2.209,0,4,1.791,4,4l0,0
					C288,140.208,286.209,141.999,284,141.999z"/>
			</g>
		</g>
		<g>
			<g>
				<path class="st19" d="M228,141.999h10c2.209,0,4-1.791,4-4l0,0c0-2.209-1.791-4-4-4h-10c-2.209,0-4,1.791-4,4l0,0
					C224,140.208,225.791,141.999,228,141.999z"/>
			</g>
		</g>
		<g>
			<g>
				<path class="st4" d="M236,117.999c-0.022,0-0.044,0.003-0.067,0.003c-0.62,0.028-5.516,0.18-7.933-2.003
					c0,0,0.619,2.919,2.817,4.987c-0.516,0.886-0.817,1.913-0.817,3.013c0,3.314,2.686,6,6,6s6-2.686,6-6
					S239.314,117.999,236,117.999z"/>
			</g>
		</g>
		<g>
			<g>
				<path class="st4" d="M276,117.999c0.022,0,0.044,0.003,0.067,0.003c0.62,0.028,5.516,0.18,7.933-2.003
					c0,0-0.619,2.919-2.817,4.987c0.516,0.886,0.817,1.913,0.817,3.013c0,3.314-2.686,6-6,6s-6-2.686-6-6
					S272.686,117.999,276,117.999z"/>
			</g>
		</g>
		<g>
			<g>
				<polygon class="st16" points="229,202.999 256,255.999 229.585,280.414 221.942,212.98 				"/>
			</g>
		</g>
		<g>
			<g>
				<polygon class="st16" points="283,202.999 256,255.999 282.415,280.414 290.058,212.98 				"/>
			</g>
		</g>
		<g>
			<g>
				<path class="st6" d="M246,162.25h20l-0.106,0.425c-1.113,4.452-5.113,7.575-9.701,7.575h-0.384
					c-4.589,0-8.589-3.123-9.701-7.575L246,162.25z"/>
			</g>
		</g>
	</g>
	<g>
		<g>
			<rect x="98" y="370" class="st21" width="316" height="48"/>
		</g>
	</g>
	<g>
		<g>
			<rect x="116" y="418" class="st21" width="280" height="89"/>
		</g>
	</g>
	<g>
		<g>
			<rect x="116" y="418" class="st23" width="280" height="10"/>
		</g>
	</g>
	<g>
		<g>
			<path class="st17" d="M304,370H204l7.236-14.472c1.694-3.388,5.157-5.528,8.944-5.528h67.639c3.788,0,7.25,2.14,8.944,5.528
				L304,370z"/>
		</g>
	</g>
	<g>
		<g>
			<circle class="st0" cx="277" cy="360" r="7"/>
		</g>
	</g>
	<g>
		<g>
			<rect x="253" y="203" class="st17" width="6" height="147"/>
		</g>
	</g>
	<g>
		<g>
			<path class="st4" d="M256,218L256,218c-5.523,0-10-4.477-10-10v-10c0-5.523,4.477-10,10-10h0c5.523,0,10,4.477,10,10v10
				C266,213.523,261.523,218,256,218z"/>
		</g>
	</g>
</g>
</svg>
