<?xml version="1.0" encoding="utf-8"?>
<!-- Generator: Adobe Illustrator 22.0.0, SVG Export Plug-In . SVG Version: 6.00 Build 0)  -->
<svg version="1.1" id="Layer_1" xmlns="http://www.w3.org/2000/svg" xmlns:xlink="http://www.w3.org/1999/xlink" x="0px" y="0px"
	 viewBox="0 0 512 512" style="enable-background:new 0 0 512 512;" xml:space="preserve">
<style type="text/css">
	.st0{fill:#FF7B7B;}
	.st1{fill:#FFB236;}
	.st2{fill:#FFD3B3;}
	.st3{fill:#FCB98B;}
	.st4{fill:#6E83B7;}
	.st5{fill:#FFB0AA;}
	.st6{fill:#EDEFF1;}
	.st7{fill:#FFE352;}
	.st8{fill:#46BEE8;}
	.st9{fill:#9CE5FF;}
	.st10{fill:#80D6FB;}
	.st11{fill:#FFE67B;}
	.st12{fill:#F76161;}
	.st13{fill:#98CA69;}
	.st14{fill:#75AA40;}
	.st15{fill:#BFEA8C;}
	.st16{fill:#D3D3D3;}
	.st17{fill:#466089;}
	.st18{fill:#7C93BF;}
	.st19{fill:#FFC69F;}
	.st20{fill:#859CC1;}
	.st21{fill:#EFA470;}
	.st22{fill:#C1C1C1;}
	.st23{fill:#E2935D;}
	.st24{fill:#99E5FF;}
</style>
<g>
	<g>
		<g>
			<path class="st2" d="M256.2,248.144L256.2,248.144c-15.054,0-27.258-12.204-27.258-27.258v-37.48h54.516v37.48
				C283.458,235.94,271.255,248.144,256.2,248.144z"/>
		</g>
	</g>
	<g>
		<g>
			<path class="st10" d="M352.91,235.648l-49.008-14.762l0,0h-33.786L256.2,237.094l-13.915-16.208h-33.786l-49.008,14.762
				c-26.869,8.093-45.259,32.838-45.259,60.899v42.606h35.208v167.941h213.52V339.153h35.208v-42.606
				C398.169,268.486,379.779,243.741,352.91,235.648z"/>
		</g>
	</g>
	<g>
		<g>
			<rect x="253.2" y="237.094" class="st8" width="6" height="109.583"/>
		</g>
	</g>
	<g>
		<g>
			<g>
				<path class="st8" d="M256.2,407.619l96.809,25.877c3.269,0.869,6.611,1.333,9.952,1.427V422.5l-102.751-26.181L256.2,407.619z"
					/>
			</g>
		</g>
	</g>
	<g>
		<g>
			<g>
				<circle class="st4" cx="433.259" cy="71.533" r="66"/>
			</g>
		</g>
		<g>
			<g>
				<circle class="st6" cx="433.259" cy="71.533" r="55"/>
			</g>
		</g>
		<g>
			<g>
				<rect x="430.26" y="19.866" class="st4" width="6" height="12.061"/>
			</g>
		</g>
		<g>
			<g>
				<rect x="472.865" y="68.533" class="st4" width="12.061" height="6"/>
			</g>
		</g>
		<g>
			<g>
				<rect x="430.26" y="111.139" class="st4" width="6" height="12.061"/>
			</g>
		</g>
		<g>
			<g>
				<rect x="381.593" y="68.533" class="st4" width="12.062" height="6"/>
			</g>
		</g>
		<g>
			<g>
				<polygon class="st4" points="446.854,89.37 430.26,72.776 430.26,40.761 436.26,40.761 436.26,70.291 451.096,85.127 				"/>
			</g>
		</g>
		<g>
			<g>
				<circle class="st4" cx="433.259" cy="71.533" r="6.34"/>
			</g>
		</g>
	</g>
	<g>
		<g>
			<path class="st3" d="M228.942,198.041c7.95,3.721,17.554,5.809,27.258,5.809c9.704,0,19.308-2.087,27.258-5.809v-14.635h-54.516
				V198.041z"/>
		</g>
	</g>
	<g>
		<g>
			<path class="st2" d="M314.123,136.944c0,31.933-25.99,57.82-57.923,57.82s-57.923-25.887-57.923-57.82V65.678h115.846V136.944z"
				/>
		</g>
	</g>
	<g>
		<g>
			<path class="st3" d="M247.974,173.371l-4.736-3.682c2.964-3.813,8.173-6.375,12.963-6.375c4.791,0,10.001,2.562,12.964,6.375
				l-4.738,3.681c-1.826-2.351-5.286-4.057-8.226-4.057S249.802,171.02,247.974,173.371z"/>
		</g>
	</g>
	<g>
		<g>
			<path class="st2" d="M314.123,98.225h4.264c6.799,0,12.074,5.933,11.28,12.684l-1.591,13.523
				c-0.832,7.075-6.829,12.408-13.953,12.408l0,0V98.225z"/>
		</g>
	</g>
	<g>
		<g>
			<path class="st2" d="M198.277,98.225h-4.264c-6.798,0-12.074,5.933-11.28,12.684l1.591,13.523
				c0.832,7.075,6.829,12.408,13.953,12.408h0V98.225z"/>
		</g>
	</g>
	<g>
		<g>
			<path class="st8" d="M171.748,390.112h-6v-94.267c0-19.397-8.05-27.258-8.132-27.335l4.073-4.406
				c0.41,0.376,10.059,9.477,10.059,31.741V390.112z"/>
		</g>
	</g>
	<g>
		<g>
			<polygon class="st3" points="261.879,152.334 248.396,152.334 249.804,135.456 255.782,135.954 254.918,146.334 261.879,146.334 
							"/>
		</g>
	</g>
	<g>
		<g>
			<circle class="st4" cx="233.485" cy="125.483" r="5.679"/>
		</g>
	</g>
	<g>
		<g>
			<circle class="st4" cx="278.915" cy="125.483" r="5.679"/>
		</g>
	</g>
	<g>
		<g>
			<polygon class="st4" points="247.114,116.397 250.522,111.854 232.35,99.361 213.042,102.768 228.942,103.904 			"/>
		</g>
	</g>
	<g>
		<g>
			<polygon class="st4" points="265.286,116.397 261.879,111.854 280.051,99.361 299.359,102.768 283.458,103.904 			"/>
		</g>
	</g>
	<g>
		<g>
			<path class="st8" d="M346.653,390.112h-6v-94.267c0-22.264,9.648-31.364,10.059-31.741l4.055,4.423l-2.027-2.211l2.046,2.194
				c-0.082,0.077-8.132,7.938-8.132,27.335V390.112z"/>
		</g>
	</g>
	<g>
		<g>
			<path class="st10" d="M228.942,337.31l118.118,32.548v-30.705h51.109v52.634c0,22.376-21.201,38.677-42.826,32.929
				l-136.622-36.317L228.942,337.31z"/>
		</g>
	</g>
	<g>
		<g>
			<g>
				<path class="st8" d="M295.575,397.094l-136.183,36.403c-3.269,0.869-6.611,1.333-9.952,1.427v-11.049l143.783-37.758
					L295.575,397.094z"/>
			</g>
		</g>
	</g>
	<g>
		<g>
			<path class="st2" d="M284.483,342.438l32.225-3.175c6.536-0.644,13.03,1.572,17.809,6.077l6.133,5.805v16.948l-49.889,5.719
				L284.483,342.438z"/>
		</g>
	</g>
	<g>
		<g>
			<path class="st2" d="M227.917,342.438l-32.225-3.175c-6.536-0.644-13.03,1.572-17.809,6.077l-6.133,5.805v16.948l49.889,5.719
				L227.917,342.438z"/>
		</g>
	</g>
	<g>
		<g>
			<path class="st8" d="M367.563,389.963h-4c0-16.728-20.117-21.141-20.32-21.183l0.82-3.915
				C344.299,364.914,367.563,370.023,367.563,389.963z"/>
		</g>
	</g>
	<g>
		<g>
			<path class="st10" d="M283.458,337.31l-118.118,29.509v-27.666h-51.109v52.634c0,22.376,21.201,38.677,42.826,32.929
				l136.622-36.317L283.458,337.31z"/>
		</g>
	</g>
	<g>
		<g>
			<path class="st8" d="M344.817,368.448l-2.328-3.253c11.185-8.004,23.794-1.628,24.325-1.353l-1.836,3.554
				C364.534,367.168,353.98,361.892,344.817,368.448z"/>
		</g>
	</g>
	<g>
		<g>
			<path class="st8" d="M148.838,387.06h-4c0-19.94,23.265-25.049,23.5-25.098l0.82,3.915c-0.05,0.01-5.278,1.146-10.391,4.408
				C152.179,374.49,148.838,380.134,148.838,387.06z"/>
		</g>
	</g>
	<g>
		<g>
			<path class="st8" d="M167.584,365.546c-9.214-6.593-20.05-1.11-20.158-1.054l-1.84-3.552c0.53-0.275,13.14-6.651,24.326,1.353
				L167.584,365.546z"/>
		</g>
	</g>
	<g>
		<g>
			<polygon class="st8" points="256.2,237.094 283.458,205.344 303.902,220.886 282.373,272.594 			"/>
		</g>
	</g>
	<g>
		<g>
			<polygon class="st8" points="256.2,237.094 228.942,205.344 208.499,220.886 230.027,272.594 			"/>
		</g>
	</g>
	<g>
		<g>
			<polygon class="st8" points="254.865,344.454 228.943,337.31 226.074,351.646 			"/>
		</g>
	</g>
	<g>
		<g>
			<path class="st4" d="M289.2,30.094v1.25c0-8.422-6.828-15.25-15.25-15.25h-25.983c-29.952,0-54.233,24.281-54.233,54.233v27.898
				h4.543v17.036l2.728-2.273c2.59-2.158,4.087-5.354,4.087-8.725V81.411h71.45c6.991,0,12.658-5.667,12.658-12.658
				c0,6.991,5.667,12.658,12.658,12.658h5.45v22.852c0,3.371,1.497,6.567,4.086,8.725l2.728,2.273V98.225h4.543V59.56
				C318.667,43.287,305.474,30.094,289.2,30.094z"/>
		</g>
	</g>
</g>
</svg>
