<?xml version="1.0" encoding="utf-8"?>
<!-- Generator: Adobe Illustrator 22.0.0, SVG Export Plug-In . SVG Version: 6.00 Build 0)  -->
<svg version="1.1" id="Layer_1" xmlns="http://www.w3.org/2000/svg" xmlns:xlink="http://www.w3.org/1999/xlink" x="0px" y="0px"
	 viewBox="0 0 512 512" style="enable-background:new 0 0 512 512;" xml:space="preserve">
<style type="text/css">
	.st0{fill:#FF7B7B;}
	.st1{fill:#FFB236;}
	.st2{fill:#FFD3B3;}
	.st3{fill:#FCB98B;}
	.st4{fill:#6E83B7;}
	.st5{fill:#FFB0AA;}
	.st6{fill:#EDEFF1;}
	.st7{fill:#FFE352;}
	.st8{fill:#46BEE8;}
	.st9{fill:#9CE5FF;}
	.st10{fill:#80D6FB;}
	.st11{fill:#FFE67B;}
	.st12{fill:#F76161;}
	.st13{fill:#98CA69;}
	.st14{fill:#75AA40;}
	.st15{fill:#BFEA8C;}
	.st16{fill:#D3D3D3;}
	.st17{fill:#466089;}
	.st18{fill:#7C93BF;}
	.st19{fill:#FFC69F;}
	.st20{fill:#859CC1;}
	.st21{fill:#EFA470;}
	.st22{fill:#C1C1C1;}
	.st23{fill:#E2935D;}
	.st24{fill:#99E5FF;}
</style>
<g>
	<g>
		<g>
			<path class="st6" d="M459.667,261.67l-47.772-14.651l-14.706,47.95l-8.215-22.317c-6.528-17.735-21.029-31.357-39.137-36.765
				l-66.475-19.792h-27.258h-27.258l-73.634,21.367c-25.608,7.431-43.239,30.87-43.279,57.534L111.822,380
				c-0.03,17.695,14.305,32.055,32,32.055H164l0.104,95.039h92h92V391.194v-58.766l19.784,48.372
				c11.222,27.437,51.2,23.709,57.156-5.329l0.636-3.1l-0.023-0.062l0.073,0.022L459.667,261.67z"/>
		</g>
	</g>
	<g>
		<g>
			<path class="st3" d="M421.801,235.051l17.64-12.049c2.927-1.999,6.623-2.506,9.979-1.369l5.539,1.877l11.28-8.653
				c2.078-1.594,5.013-1.411,6.876,0.429v0c2.244,2.216,2.038,5.898-0.439,7.85l-9.054,7.133l-4.927,3.223L421.801,235.051z"/>
		</g>
	</g>
	<g>
		<g>
			<path class="st2" d="M426.988,244.938l2.731-13.062l8.983-0.27l24.92-1.337l20.899-1.608l9.409-8.192
				c2.249-1.958,5.603-1.943,7.834,0.035v0c2.654,2.353,2.666,6.493,0.025,8.861l-8.826,7.914c-2.275,2.04-5.056,3.433-8.052,4.033
				l-19.183,3.843c-1.915,0.384-3.881,0.436-5.813,0.156l-10.637-1.545l-1.169,5.589L426.988,244.938z"/>
		</g>
	</g>
	<g>
		<g>
			<path class="st3" d="M502.965,221.971c-0.582-0.29-1.201-0.508-1.84-0.642c-2.331-0.487-4.793,0.154-6.588,1.717l-8.936,7.78
				l-16.911,0.212l-4.051-0.847l-1.017,0.078l-24.92,1.337l-5.396,0.162l-3.417,3.078l-2.143,10.25l20.363,4.258l1.169-5.589
				l10.637,1.545c1.932,0.281,3.899,0.228,5.813-0.156l19.183-3.843c2.996-0.6,5.777-1.993,8.052-4.033l8.826-7.914
				C503.942,227.435,504.332,224.328,502.965,221.971z"/>
		</g>
	</g>
	<g>
		<g>
			<path class="st2" d="M428.717,248.804l2.731-13.062l9.681-8.722l27.395,5.728l17.726-0.222l9.409-8.192
				c2.249-1.958,5.603-1.943,7.834,0.035v0c2.654,2.353,2.666,6.493,0.025,8.861l-8.826,7.914c-2.275,2.04-5.056,3.433-8.052,4.033
				l-19.183,3.843c-1.915,0.384-3.881,0.436-5.813,0.156l-10.637-1.545l-1.169,5.589L428.717,248.804z"/>
		</g>
	</g>
	<g>
		<g>
			<path class="st3" d="M505.11,226.734c-0.847-0.595-1.805-1.02-2.82-1.232c-2.331-0.487-4.794,0.154-6.588,1.717l-8.936,7.78
				l-16.74,0.21l-9.991-4.234l-18.905-3.953l-9.681,8.722l-2.731,13.062l21.121,4.417l1.169-5.589l10.637,1.544
				c1.932,0.281,3.899,0.228,5.813-0.156l19.183-3.843c2.996-0.6,5.777-1.993,8.052-4.033l8.826-7.914
				C505.408,231.537,505.932,228.939,505.11,226.734z"/>
		</g>
	</g>
	<g>
		<g>
			<path class="st2" d="M416.117,248.314l1.592-7.611c0.498-2.38,1.986-4.436,4.092-5.652l11.028-6.367
				c4.644-2.681,10.277-3.027,15.215-0.935l21.646,9.173l17.726-0.222l9.409-8.192c2.249-1.958,5.603-1.943,7.834,0.035h0
				c2.654,2.353,2.666,6.493,0.025,8.861l-8.826,7.914c-2.275,2.04-5.056,3.433-8.052,4.033l-19.183,3.843
				c-1.915,0.384-3.881,0.436-5.813,0.156l-6.211-0.902c-2.487-0.361-4.827,1.275-5.341,3.735l-0.572,2.733L416.117,248.314z"/>
		</g>
	</g>
	<g>
		<g>
			<polygon class="st16" points="256,255.639 211,292.639 211,220.912 228.742,208.639 			"/>
		</g>
	</g>
	<g>
		<g>
			<polygon class="st16" points="256,255.639 301,292.639 301,220.912 283.258,208.639 			"/>
		</g>
	</g>
	<g>
		<g>
			<path class="st16" d="M397.249,295.132l-19.292,62.493l-0.004-11.92c-0.002-6.042,0.908-12.049,2.7-17.819l13.113-42.217
				L397.249,295.132z"/>
		</g>
	</g>
	<g>
		<g>
			<polygon class="st17" points="164.104,491.194 164.104,507.094 256.104,507.094 348.104,507.094 348.104,491.194 
				256.104,491.194 			"/>
		</g>
	</g>
	<g>
		<g>
			<rect x="245.234" y="491.194" class="st7" width="21.532" height="15.9"/>
		</g>
	</g>
	<g>
		<g>
			<path class="st2" d="M256,249.058L256,249.058c-15.054,0-27.258-12.204-27.258-27.258v-42.751h54.516V221.8
				C283.258,236.854,271.054,249.058,256,249.058z"/>
		</g>
	</g>
	<g>
		<g>
			<path class="st3" d="M228.742,193.684c8.334,3.721,17.554,5.809,27.258,5.809c9.704,0,18.924-2.087,27.258-5.809v-14.635h-54.516
				V193.684z"/>
		</g>
	</g>
	<g>
		<g>
			<path class="st2" d="M314.027,132.587c0,31.933-25.99,57.82-57.923,57.82s-57.923-25.887-57.923-57.82V85.696h115.846V132.587z"
				/>
		</g>
	</g>
	<g>
		<g>
			<circle class="st4" cx="234.222" cy="119.643" r="6.249"/>
		</g>
	</g>
	<g>
		<g>
			<circle class="st4" cx="280.045" cy="119.643" r="6.249"/>
		</g>
	</g>
	<g>
		<g>
			<path class="st6" d="M246.104,163.094h20l-0.106,0.425c-1.113,4.452-5.113,7.575-9.701,7.575h-0.384
				c-4.589,0-8.589-3.123-9.701-7.575L246.104,163.094z"/>
		</g>
	</g>
	<g>
		<g>
			<polygon class="st3" points="261.783,147.977 247.546,147.977 253.227,128.745 258.98,130.444 255.575,141.977 261.783,141.977 
							"/>
		</g>
	</g>
	<g>
		<g>
			<path class="st4" d="M245.882,98.507c0,0-17.793-7.382-32.937,5.679c0,0,17.604-4.543,29.529,1.136L245.882,98.507z"/>
		</g>
	</g>
	<g>
		<g>
			<path class="st4" d="M266.325,98.507c0,0,17.793-7.382,32.937,5.679c0,0-17.604-4.543-29.529,1.136L266.325,98.507z"/>
		</g>
	</g>
	<g>
		<g>
			<path class="st2" d="M314.027,94.087h4.264c6.799,0,12.074,5.933,11.28,12.684l-1.591,13.523
				c-0.832,7.075-6.829,12.408-13.953,12.408l0,0V94.087z"/>
		</g>
	</g>
	<g>
		<g>
			<path class="st2" d="M198.181,94.087h-4.264c-6.798,0-12.074,5.933-11.28,12.684l1.591,13.523
				c0.832,7.075,6.829,12.408,13.953,12.408h0V94.087z"/>
		</g>
	</g>
	<g>
		<g>
			<rect x="164" y="287" class="st16" width="6" height="70"/>
		</g>
	</g>
	<g>
		<g>
			<rect x="248.5" y="280" class="st4" width="14" height="228"/>
		</g>
	</g>
	<g>
		<g>
			<path class="st2" d="M272.445,383.987c3.62,0,6.555-2.935,6.555-6.556c0-3.62-2.935-6.555-6.555-6.555h-0.051
				c2.852-0.711,4.968-3.282,4.968-6.354c0-3.621-2.935-6.556-6.555-6.556H248.5v-9.191h-0.008c-3.472,0-6.85,1.135-9.618,3.231
				l-7.959,6.027c-4.701,0.43-8.742,3.119-11.048,6.966h-10.052v38h9.95c2.497,4.306,7.145,7.209,12.48,7.209h37.74
				c3.62,0,6.555-2.935,6.555-6.556c0-3.62-2.935-6.555-6.555-6.555h2.458c3.62,0,6.555-2.935,6.555-6.555v0
				C279,386.922,276.065,383.987,272.445,383.987z"/>
		</g>
	</g>
	<g>
		<g>
			<polygon class="st6" points="164,412.055 164,357 215.816,357 215.816,412 			"/>
		</g>
	</g>
	<g>
		<g>
			<rect x="164" y="351" class="st16" width="51.816" height="6"/>
		</g>
	</g>
	<g>
		<g>
			<polygon class="st16" points="164,418.055 164,412.055 215.816,412.055 215.816,418.014 			"/>
		</g>
	</g>
	<g>
		<g>
			<path class="st4" d="M272,275.443h-32c-5.523,0-10-4.477-10-10v-48c0-5.523,4.477-10,10-10h32c5.523,0,10,4.477,10,10v48
				C282,270.966,277.523,275.443,272,275.443z"/>
		</g>
	</g>
	<g>
		<g>
			<path class="st17" d="M282,240.833h-15c-3.866,0-7-3.134-7-7v0c0-3.866,3.134-7,7-7h15V240.833z"/>
		</g>
	</g>
	<g>
		<g>
			<path class="st17" d="M253.583,207.443v5c0,3.866-3.134,7-7,7h0c-3.866,0-7-3.134-7-7v-5H253.583z"/>
		</g>
	</g>
	<g>
		<g>
			<path class="st17" d="M258.417,207.443v5c0,3.866,3.134,7,7,7h0c3.866,0,7-3.134,7-7v-5H258.417z"/>
		</g>
	</g>
	<g>
		<g>
			<path class="st17" d="M282,264.333h-15c-3.866,0-7-3.134-7-7v0c0-3.866,3.134-7,7-7h15V264.333z"/>
		</g>
	</g>
	<g>
		<g>
			<path class="st17" d="M230,240.833h15c3.866,0,7-3.134,7-7v0c0-3.866-3.134-7-7-7h-15V240.833z"/>
		</g>
	</g>
	<g>
		<g>
			<path class="st17" d="M230,264.333h15c3.866,0,7-3.134,7-7v0c0-3.866-3.134-7-7-7h-15V264.333z"/>
		</g>
	</g>
	<g>
		<g>
			<path class="st17" d="M264.25,287H247.5c-2.209,0-4-1.791-4-4v-7.557h24.75V283C268.25,285.209,266.459,287,264.25,287z"/>
		</g>
	</g>
	<g>
		<g>
			<path class="st6" d="M256.207,85.696h75.177c4.393,0,5.575-6.054,1.504-7.706l-18.862-7.656h-57.923h-57.923l-18.862,7.656
				c-4.07,1.652-2.888,7.706,1.504,7.706H256H256.207z"/>
		</g>
	</g>
	<g>
		<g>
			<polygon class="st4" points="193.916,94.087 193.916,85.696 210.333,85.696 198.181,109.199 198.181,94.087 			"/>
		</g>
	</g>
	<g>
		<g>
			<polygon class="st4" points="318.499,94.087 318.499,85.696 302.082,85.696 314.234,109.199 314.234,94.087 			"/>
		</g>
	</g>
	<g>
		<g>
			<path class="st6" d="M313.819,70.333l-12.44-48.301C298.798,12.007,289.757,5,279.405,5h0c-3.982,0-7.894,1.048-11.343,3.038
				l-0.719,0.415c-7.019,4.051-15.667,4.051-22.686,0l-0.719-0.415C240.489,6.048,236.577,5,232.595,5h0
				c-10.353,0-19.393,7.007-21.975,17.032l-12.44,48.301H313.819z"/>
		</g>
	</g>
	<g>
		<g>
			<polygon class="st4" points="202.816,52.333 198.181,70.333 313.819,70.333 309.184,52.333 			"/>
		</g>
	</g>
	<g>
		<g>
			<path class="st7" d="M336.423,176.288L341,174c0,0-2.033-1.016-4.574-2.287c-2.527-1.264-4.505-3.412-5.555-6.035L327.4,157
				c0,0-1.776,4.439-3.471,8.678c-1.049,2.623-3.025,4.769-5.552,6.033L313.8,174c0,0,2.033,1.016,4.574,2.287
				c2.527,1.264,4.505,3.411,5.554,6.034c1.696,4.24,3.471,8.679,3.471,8.679s1.776-4.439,3.471-8.679
				C331.921,179.698,333.896,177.552,336.423,176.288z"/>
		</g>
	</g>
	<g>
		<g>
			<path class="st7" d="M349.577,149.212L352,148c0,0-1.076-0.538-2.422-1.211c-1.338-0.669-2.385-1.806-2.941-3.195L344.8,139
				c0,0-0.94,2.35-1.838,4.594c-0.556,1.389-1.601,2.525-2.939,3.194L337.6,148c0,0,1.076,0.538,2.422,1.211
				c1.338,0.669,2.385,1.806,2.941,3.195C343.86,154.65,344.8,157,344.8,157s0.94-2.35,1.838-4.595
				C347.193,151.017,348.239,149.88,349.577,149.212z"/>
		</g>
	</g>
	<g>
		<g>
			<path class="st7" d="M182.962,151.019L187,149c0,0-1.794-0.897-4.036-2.018c-2.23-1.115-3.975-3.01-4.901-5.325L175,134
				c0,0-1.567,3.917-3.063,7.657c-0.926,2.315-2.669,4.208-4.898,5.323L163,149c0,0,1.794,0.897,4.036,2.018
				c2.23,1.115,3.975,3.01,4.901,5.324C173.433,160.083,175,164,175,164s1.567-3.917,3.063-7.658
				C178.989,154.028,180.732,152.134,182.962,151.019z"/>
		</g>
	</g>
</g>
</svg>
