<?xml version="1.0" encoding="utf-8"?>
<!-- Generator: Adobe Illustrator 24.0.0, SVG Export Plug-In . SVG Version: 6.00 Build 0)  -->
<svg version="1.1" id="Layer_1" xmlns="http://www.w3.org/2000/svg" xmlns:xlink="http://www.w3.org/1999/xlink" x="0px" y="0px"
	 viewBox="0 0 512 512" enable-background="new 0 0 512 512" xml:space="preserve">
<g>
	<g>
		<path fill="#463C4B" d="M432,400H208c-8.837,0-16-7.163-16-16v-16c0-8.837,7.163-16,16-16h224c8.837,0,16,7.163,16,16v16
			C448,392.837,440.837,400,432,400z"/>
	</g>
	<g>
		<path fill="#322837" d="M320,400h-80c-8.837,0-16-7.163-16-16v-16c0-8.837,7.163-16,16-16h80c8.837,0,16,7.163,16,16v16
			C336,392.837,328.837,400,320,400z"/>
	</g>
	<g>
		<path fill="#555A6E" d="M368,304c0,26.51,21.49,48,48,48h0H48h0c26.51,0,48-21.49,48-48V176c0-8.837,7.163-16,16-16h256V304z"/>
	</g>
	<g>
		<path fill="#463C4B" d="M368,304c0,26.51,21.49,48,48,48h0H176h0c26.51,0,48-21.49,48-48V176c0-8.837,7.163-16,16-16h128V304z"/>
	</g>
	<g>
		<path fill="#463C4B" d="M176,288H96c-44.183,0-80-35.817-80-80v0c0-8.837,7.163-16,16-16h144c26.51,0,48,21.49,48,48v0
			C224,266.51,202.51,288,176,288z"/>
	</g>
	<g>
		<path fill="#73788C" d="M224,240H80c-26.51,0-48-21.49-48-48v0h144C202.51,192,224,213.49,224,240L224,240z"/>
	</g>
	<g>
		<path fill="#322837" d="M482.432,200.48l-87.296,54.56C378.255,265.591,368,284.093,368,304v0V160h112c8.837,0,16,7.163,16,16v0
			C496,185.953,490.872,195.205,482.432,200.48z"/>
	</g>
	<g>
		<path fill="#555A6E" d="M272,400H32c-8.837,0-16-7.163-16-16v-16c0-8.837,7.163-16,16-16h240c8.837,0,16,7.163,16,16v16
			C288,392.837,280.837,400,272,400z"/>
	</g>
	<g>
		<path fill="#73788C" d="M160,400H32c-8.837,0-16-7.163-16-16v-16c0-8.837,7.163-16,16-16h128c8.837,0,16,7.163,16,16v16
			C176,392.837,168.837,400,160,400z"/>
	</g>
</g>
</svg>
