<?xml version="1.0" encoding="utf-8"?>
<!-- Generator: Adobe Illustrator 24.0.0, SVG Export Plug-In . SVG Version: 6.00 Build 0)  -->
<svg version="1.1" id="Layer_1" xmlns="http://www.w3.org/2000/svg" xmlns:xlink="http://www.w3.org/1999/xlink" x="0px" y="0px"
	 viewBox="0 0 512 512" enable-background="new 0 0 512 512" xml:space="preserve">
<g>
	<g>
		<path fill="#A5C3DC" d="M274.667,64H256V16l0,0c1.707,0,3.345,0.678,4.552,1.886l0.056,0.056
			c9.002,9.002,14.059,21.211,14.059,33.941V64z"/>
	</g>
	<g>
		<path fill="#D7E6F0" d="M237.333,64H256V16l0,0c-1.707,0-3.345,0.678-4.552,1.886l-0.055,0.056
			c-9.002,9.002-14.059,21.211-14.059,33.941V64z"/>
	</g>
	<g>
		<path fill="#A5C3DC" d="M202.667,80H184V32l0,0c1.707,0,3.345,0.678,4.552,1.886l0.055,0.056
			c9.002,9.002,14.059,21.211,14.059,33.941V80z"/>
	</g>
	<g>
		<path fill="#D7E6F0" d="M165.333,80H184V32l0,0c-1.707,0-3.345,0.678-4.552,1.886l-0.055,0.056
			c-9.002,9.002-14.059,21.211-14.059,33.941V80z"/>
	</g>
	<g>
		<path fill="#A5C3DC" d="M346.667,80H328V32l0,0c1.707,0,3.345,0.678,4.552,1.886l0.056,0.056
			c9.002,9.002,14.059,21.211,14.059,33.941V80z"/>
	</g>
	<g>
		<path fill="#D7E6F0" d="M309.333,80H328V32l0,0c-1.707,0-3.345,0.678-4.552,1.886l-0.056,0.056
			c-9.002,9.002-14.059,21.211-14.059,33.941V80z"/>
	</g>
	<g>
		<path fill="#A5C3DC" d="M146.667,136H128V88l0,0c1.707,0,3.345,0.678,4.552,1.886l0.055,0.056
			c9.002,9.002,14.059,21.211,14.059,33.941V136z"/>
	</g>
	<g>
		<path fill="#D7E6F0" d="M109.333,136H128V88l0,0c-1.707,0-3.345,0.678-4.552,1.886l-0.056,0.056
			c-9.002,9.002-14.059,21.211-14.059,33.941V136z"/>
	</g>
	<g>
		<path fill="#A5C3DC" d="M402.667,136H384V88l0,0c1.707,0,3.345,0.678,4.552,1.886l0.056,0.056
			c9.002,9.002,14.059,21.211,14.059,33.941V136z"/>
	</g>
	<g>
		<path fill="#D7E6F0" d="M365.333,136H384V88l0,0c-1.707,0-3.345,0.678-4.552,1.886l-0.056,0.056
			c-9.002,9.002-14.059,21.211-14.059,33.941V136z"/>
	</g>
	<g>
		<path fill="#D26E28" d="M384,120c-2.733,0-5.408,0.282-8.017,0.796C375.986,120.53,376,120.267,376,120c0-30.879-21.532-56-48-56
			c-11.437,0-21.948,4.698-30.202,12.517C289.55,59.511,273.91,48,256,48c-17.91,0-33.55,11.511-41.798,28.517
			C205.948,68.698,195.437,64,184,64c-26.467,0-48,25.121-48,56c0,0.267,0.014,0.53,0.017,0.796
			C133.408,120.282,130.733,120,128,120c-26.467,0-48,25.121-48,56v320h352V176C432,145.121,410.468,120,384,120z"/>
	</g>
	<g>
		<path fill="#A55023" d="M355.582,235.361c-8.751-2.555-16.075-8.643-19.967-16.887C321.531,188.643,291.178,168,256,168
			s-65.531,20.643-79.615,50.474c-3.892,8.244-11.216,14.332-19.967,16.887C121.506,245.552,96,277.795,96,316
			c0,46.486,38.357,84.452,84.841,83.996c17.563-0.172,33.834-5.737,47.239-15.116c16.822-11.77,39.019-11.77,55.84,0
			c13.405,9.38,29.676,14.944,47.239,15.116C377.643,400.452,416,362.485,416,316C416,277.795,390.494,245.552,355.582,235.361z"/>
	</g>
	<g>
		<ellipse fill="#A55023" cx="256" cy="120" rx="32" ry="40"/>
	</g>
	<g>
		<ellipse fill="#A55023" cx="328" cy="136" rx="32" ry="40"/>
	</g>
	<g>
		<ellipse fill="#A55023" cx="384" cy="192" rx="32" ry="40"/>
	</g>
	<g>
		<ellipse fill="#A55023" cx="184" cy="136" rx="32" ry="40"/>
	</g>
	<g>
		<ellipse fill="#A55023" cx="128" cy="192" rx="32" ry="40"/>
	</g>
	<g>
		<path fill="#463C4B" d="M355.582,219.361c-8.751-2.555-16.075-8.643-19.967-16.887C321.531,172.643,291.178,152,256,152
			s-65.531,20.643-79.615,50.474c-3.892,8.244-11.216,14.332-19.967,16.887C121.506,229.552,96,261.795,96,300
			c0,46.486,38.357,84.452,84.841,83.996c17.563-0.172,33.834-5.737,47.239-15.116c16.822-11.77,39.019-11.77,55.84,0
			c13.405,9.38,29.676,14.944,47.239,15.116C377.643,384.452,416,346.485,416,300C416,261.795,390.494,229.552,355.582,219.361z"/>
	</g>
	<g>
		<path fill="#555A6E" d="M112,316c-8.836,0-16-7.163-16-16c0-37.094,24.845-70.254,60.417-80.64
			c8.842-2.581,16.119-8.735,19.967-16.887C190.861,171.813,222.112,152,256,152c8.837,0,16,7.163,16,16s-7.163,16-16,16
			c-21.569,0-41.461,12.614-50.678,32.136c-7.755,16.428-22.312,28.799-39.938,33.942C143.374,256.504,128,277.033,128,300
			C128,308.837,120.836,316,112,316z"/>
	</g>
	<g>
		<ellipse fill="#463C4B" cx="256" cy="104" rx="32" ry="40"/>
	</g>
	<g>
		<path fill="#555A6E" d="M240,120c-8.836,0-16-7.163-16-16c0-22.056,14.355-40,32-40c8.837,0,16,7.163,16,16
			c0,8.062-5.962,14.73-13.717,15.839C257.387,97.094,256,100.019,256,104C256,112.837,248.836,120,240,120z M256.01,96
			c-0.003,0-0.006,0-0.01,0C256.003,96,256.006,96,256.01,96z"/>
	</g>
	<g>
		<ellipse fill="#463C4B" cx="328" cy="120" rx="32" ry="40"/>
	</g>
	<g>
		<path fill="#555A6E" d="M312,136c-8.837,0-16-7.163-16-16c0-22.056,14.355-40,32-40c8.837,0,16,7.163,16,16
			c0,8.062-5.962,14.73-13.717,15.839c-0.896,1.255-2.283,4.18-2.283,8.161C328,128.837,320.837,136,312,136z M328.01,112
			c-0.004,0-0.007,0-0.01,0C328.003,112,328.007,112,328.01,112z"/>
	</g>
	<g>
		<ellipse fill="#463C4B" cx="384" cy="176" rx="32" ry="40"/>
	</g>
	<g>
		<path fill="#555A6E" d="M368,192c-8.837,0-16-7.163-16-16c0-22.056,14.355-40,32-40c8.837,0,16,7.163,16,16
			c0,8.062-5.962,14.73-13.717,15.839c-0.896,1.255-2.283,4.18-2.283,8.161C384,184.837,376.837,192,368,192z M384.01,168
			c-0.004,0-0.007,0-0.01,0C384.003,168,384.007,168,384.01,168z"/>
	</g>
	<g>
		<ellipse fill="#463C4B" cx="184" cy="120" rx="32" ry="40"/>
	</g>
	<g>
		<path fill="#555A6E" d="M168,136c-8.836,0-16-7.163-16-16c0-22.056,14.355-40,32-40c8.836,0,16,7.163,16,16
			c0,8.062-5.962,14.73-13.717,15.839c-0.896,1.255-2.283,4.18-2.283,8.161C184,128.837,176.836,136,168,136z M184.01,112
			c-0.003,0-0.006,0-0.01,0C184.003,112,184.006,112,184.01,112z"/>
	</g>
	<g>
		<ellipse fill="#463C4B" cx="128" cy="176" rx="32" ry="40"/>
	</g>
	<g>
		<path fill="#555A6E" d="M112,192c-8.836,0-16-7.163-16-16c0-22.056,14.355-40,32-40c8.836,0,16,7.163,16,16
			c0,8.062-5.962,14.73-13.717,15.839c-0.896,1.255-2.283,4.18-2.283,8.161C128,184.837,120.836,192,112,192z M128.01,168
			c-0.003,0-0.006,0-0.01,0C128.003,168,128.006,168,128.01,168z"/>
	</g>
</g>
</svg>
