<?xml version="1.0" encoding="utf-8"?>
<!-- Generator: Adobe Illustrator 24.0.0, SVG Export Plug-In . SVG Version: 6.00 Build 0)  -->
<svg version="1.1" id="Layer_1" xmlns="http://www.w3.org/2000/svg" xmlns:xlink="http://www.w3.org/1999/xlink" x="0px" y="0px"
	 viewBox="0 0 512 512" enable-background="new 0 0 512 512" xml:space="preserve">
<g>
	<g>
		<path fill="#F5871E" d="M80.006,261.335c-2.935,0-5.76-1.621-7.162-4.424l-16-32c-1.24-2.48-1.107-5.426,0.35-7.784
			s4.033-3.794,6.805-3.794h3.056l-10.211-20.422c-1.976-3.952-0.374-8.758,3.578-10.733c3.952-1.976,8.758-0.373,10.733,3.577
			l16,32c1.24,2.48,1.107,5.426-0.35,7.784s-4.033,3.794-6.805,3.794h-3.056l10.211,20.422c1.976,3.952,0.374,8.758-3.578,10.733
			C82.429,261.063,81.208,261.335,80.006,261.335z"/>
	</g>
	<g>
		<path fill="#463C4B" d="M472,96h-48c-4.418,0-8-3.582-8-8V24c0-4.418,3.582-8,8-8h48c4.418,0,8,3.582,8,8v64
			C480,92.418,476.418,96,472,96z"/>
	</g>
	<g>
		<path fill="#555A6E" d="M440,96h-16c-4.418,0-8-3.582-8-8V24c0-4.418,3.582-8,8-8h16c4.418,0,8,3.582,8,8v64
			C448,92.418,444.418,96,440,96z"/>
	</g>
	<g>
		<path fill="#463C4B" d="M432,64h-96c-4.418,0-8-3.582-8-8v0c0-4.418,3.582-8,8-8h96c4.418,0,8,3.582,8,8v0
			C440,60.418,436.418,64,432,64z"/>
	</g>
	<g>
		<path fill="#F0915A" d="M184,304h40v-64h-40c-4.418,0-8,3.582-8,8v48C176,300.418,179.582,304,184,304z"/>
	</g>
	<g>
		<rect x="168" y="256" fill="#F0915A" width="8" height="32"/>
	</g>
	<g>
		<path fill="#F0915A" d="M152,240L152,240c8.837,0,16,7.163,16,16v32h-16V240z"/>
	</g>
	<g>
		<path fill="#FAB991" d="M136,240h16c4.418,0,8,3.582,8,8v32c0,4.418-3.582,8-8,8h-16c-4.418,0-8-3.582-8-8v-32
			C128,243.582,131.582,240,136,240z"/>
	</g>
	<g>
		<path fill="#463C4B" d="M208,480c-17.673,0-32-14.327-32-32v-64c0-8.487,3.371-16.626,9.373-22.627l64-64
			c12.496-12.497,32.758-12.497,45.254,0c12.497,12.497,12.497,32.758,0,45.255L240,397.255V448C240,465.673,225.673,480,208,480z"
			/>
	</g>
	<g>
		<path fill="#D26E28" d="M224,272v128h4.153c2.091,0,3.806-1.562,4.119-3.63C234.022,384.838,243.979,376,256,376
			s21.978,8.838,23.727,20.37c0.314,2.068,2.028,3.63,4.119,3.63h8.307c2.091,0,3.806-1.562,4.119-3.63
			C298.022,384.838,307.979,376,320,376s21.978,8.838,23.727,20.37c0.314,2.068,2.028,3.63,4.119,3.63l0,0
			c2.294,0,4.153-1.859,4.153-4.153V272H224z"/>
	</g>
	<g>
		<path fill="#F0915A" d="M160,496h64c8.837,0,16-7.163,16-16v-32h-64c-17.673,0-32,14.327-32,32v0C144,488.837,151.163,496,160,496
			z"/>
	</g>
	<g>
		<path fill="#F0915A" d="M352,304H224V192c0-17.673,14.327-32,32-32h112v63.778c0,15.794-4.675,31.235-13.436,44.376L352,272V304z"
			/>
	</g>
	<g>
		<path fill="#FAB991" d="M208,200v40c0,8.837,7.163,16,16,16h8c8.837,0,16-7.163,16-16v-40c0-4.418-3.582-8-8-8h-24
			C211.582,192,208,195.582,208,200z"/>
	</g>
	<g>
		<path fill="#FAB991" d="M264,200v40c0,8.837,7.163,16,16,16h8c8.837,0,16-7.163,16-16v-40c0-4.418-3.582-8-8-8h-24
			C267.582,192,264,195.582,264,200z"/>
	</g>
	<g>
		<path fill="#D26E28" d="M288,224v-32c0-17.673,14.327-32,32-32h0h-16c-17.673,0-32,14.327-32,32v32H288z"/>
	</g>
	<g>
		<path fill="#D26E28" d="M240,224v-32c0-17.673,14.327-32,32-32h0h-16c-17.673,0-32,14.327-32,32v32H240z"/>
	</g>
	<g>
		<path fill="#FAB991" d="M216,176h56c8.837,0,16-7.163,16-16V88c0-13.255-10.745-24-24-24h-40c-13.255,0-24,10.745-24,24v72
			C200,168.837,207.163,176,216,176z"/>
	</g>
	<path fill="#463C4B" d="M288,96h-24.038c-8.851,0-16.021,7.187-16,16.037L248,128h-48c-4.418,0-8,3.582-8,8v60c0,2.209-1.791,4-4,4
		s-4-1.791-4-4v-2.667c0-2.209-1.791-4-4-4s-4,1.791-4,4V208c0,8.837,7.163,16,16,16h24c26.51,0,48-21.49,48-48l0,0h24
		c8.837,0,16-7.163,16-16v-48C304,103.163,296.837,96,288,96z"/>
	<g>
		<path fill="#F0915A" d="M264,144L264,144c-4.418,0-8-3.582-8-8v-16c0-4.418,3.582-8,8-8h0c8.837,0,16,7.163,16,16v0
			C280,136.837,272.837,144,264,144z"/>
	</g>
	<g>
		<path fill="#F0915A" d="M228,152h-16c-2.209,0-4-1.791-4-4l0,0c0-2.209,1.791-4,4-4h16c2.209,0,4,1.791,4,4l0,0
			C232,150.209,230.209,152,228,152z"/>
	</g>
	<g>
		<path fill="#F0915A" d="M400,48h-48v16c0,8.837,7.163,16,16,16h32V48z"/>
	</g>
	<g>
		<path fill="#F0915A" d="M384,32h-32c-4.418,0-8,3.582-8,8s3.582,8,8,8h32v16c0,8.837,7.164,16,16,16V48
			C400,39.163,392.836,32,384,32z"/>
	</g>
	<g>
		<path fill="#FAB991" d="M408,80h-48c-4.418,0-8,3.582-8,8v72c-17.673,0-32,14.327-32,32c0,17.673,14.327,32,32,32h32
			c17.673,0,32-14.327,32-32V88C416,83.582,412.418,80,408,80z"/>
	</g>
	<g>
		<rect x="224" y="272" fill="#A55023" width="128" height="32"/>
	</g>
	<g>
		<rect x="224" y="224" fill="#D26E28" width="64" height="80"/>
	</g>
	<g>
		<path fill="#E1322D" d="M240,352H32c-8.837,0-16,7.163-16,16v112c0,8.837,7.163,16,16,16h208c8.837,0,16-7.163,16-16V368
			C256,359.163,248.837,352,240,352z"/>
	</g>
	<g>
		<path fill="#F04B37" d="M128,352H32c-8.837,0-16,7.163-16,16v112c0,8.837,7.163,16,16,16h96c8.837,0,16-7.163,16-16V368
			C144,359.163,136.837,352,128,352z"/>
	</g>
	<g>
		<path fill="#555A6E" d="M192,320H96c-8.837,0-16-7.163-16-16v-8c0-4.418,3.582-8,8-8h112c4.418,0,8,3.582,8,8v8
			C208,312.837,200.837,320,192,320z"/>
	</g>
	<g>
		<path fill="#555A6E" d="M184,352h-80v0c0-8.837,7.163-16,16-16h48C176.837,336,184,343.163,184,352L184,352z"/>
	</g>
	<g>
		<path fill="#463C4B" d="M160,328c0,4.418,3.582,8,8,8h0h-48h0c4.418,0,8-3.582,8-8l0,0c0-4.418-3.582-8-8-8h0h48h0
			C163.582,320,160,323.582,160,328L160,328z"/>
	</g>
	<g>
		<path fill="#E1322D" d="M184,288h-80c-4.418,0-8-3.582-8-8l0,0c0-4.418,3.582-8,8-8h80c4.418,0,8,3.582,8,8l0,0
			C192,284.418,188.418,288,184,288z"/>
	</g>
	<g>
		<path fill="#FAA019" d="M168,288h-48c-4.418,0-8-3.582-8-8l0,0c0-4.418,3.582-8,8-8h48c4.418,0,8,3.582,8,8l0,0
			C176,284.418,172.418,288,168,288z"/>
	</g>
	<g>
		<path fill="#FFFF50" d="M152,288h-16c-4.418,0-8-3.582-8-8l0,0c0-4.418,3.582-8,8-8h16c4.418,0,8,3.582,8,8l0,0
			C160,284.418,156.418,288,152,288z"/>
	</g>
	<g>
		<path fill="#555A6E" d="M384,480c-8.189,0-16.379-3.124-22.627-9.373l-64-64C291.371,400.626,288,392.487,288,384v-32
			c0-17.673,14.327-32,32-32s32,14.327,32,32v18.745l54.627,54.627c12.497,12.497,12.497,32.758,0,45.255
			C400.379,476.876,392.189,480,384,480z"/>
	</g>
	<g>
		<g>
			<path fill="#A55023" d="M320,320c17.673,0,32,14.327,32,32v-48c0-17.673-14.327-32-32-32s-32,14.327-32,32v48
				C288,334.327,302.327,320,320,320z"/>
		</g>
	</g>
	<g>
		<path fill="#FAB991" d="M416,448v32c0,8.837-7.163,16-16,16h-80c-8.837,0-16-7.163-16-16v0c0-17.673,14.327-32,32-32H416z"/>
	</g>
</g>
</svg>
