<?xml version="1.0" encoding="utf-8"?>
<!-- Generator: Adobe Illustrator 24.0.0, SVG Export Plug-In . SVG Version: 6.00 Build 0)  -->
<svg version="1.1" id="Layer_1" xmlns="http://www.w3.org/2000/svg" xmlns:xlink="http://www.w3.org/1999/xlink" x="0px" y="0px"
	 viewBox="0 0 512 512" enable-background="new 0 0 512 512" xml:space="preserve">
<g>
	<g>
		<path fill="#F06423" d="M192,304c-22.056,0-40-17.944-40-40c0-4.418,3.582-8,8-8s8,3.582,8,8c0,13.233,10.767,24,24,24
			c17.645,0,32-14.355,32-32s-14.355-32-32-32c-18.111,0-28.948,5.418-40.422,11.155C138.948,241.47,125.889,248,104,248
			c-30.879,0-56-25.122-56-56c0-4.418,3.582-8,8-8s8,3.582,8,8c0,22.056,17.944,40,40,40c18.111,0,28.948-5.418,40.422-11.155
			C157.052,214.53,170.111,208,192,208c26.468,0,48,21.533,48,48S218.468,304,192,304z"/>
	</g>
	<g>
		<path fill="#F06423" d="M320,304c-26.468,0-48-21.533-48-48s21.532-48,48-48c21.889,0,34.948,6.53,47.578,12.845
			C379.052,226.582,389.889,232,408,232c22.056,0,40-17.944,40-40c0-4.418,3.582-8,8-8s8,3.582,8,8c0,30.878-25.121,56-56,56
			c-21.889,0-34.948-6.53-47.578-12.845C348.948,229.418,338.111,224,320,224c-17.645,0-32,14.355-32,32s14.355,32,32,32
			c13.233,0,24-10.767,24-24c0-4.418,3.582-8,8-8s8,3.582,8,8C360,286.056,342.056,304,320,304z"/>
	</g>
	<g>
		<path fill="#F06423" d="M272,384V192h-32v192c0,26.51-21.49,48-48,48h0c-17.673,0-32,14.327-32,32v0h192v0
			c0-17.673-14.327-32-32-32h0C293.49,432,272,410.51,272,384z"/>
	</g>
	<g>
		<path fill="#FAA019" d="M368,496H144c-8.837,0-16-7.163-16-16v0c0-8.837,7.163-16,16-16h224c8.837,0,16,7.163,16,16v0
			C384,488.837,376.837,496,368,496z"/>
	</g>
	<g>
		<path fill="#FFD205" d="M256,496H144c-8.837,0-16-7.163-16-16v0c0-8.837,7.163-16,16-16h112c8.837,0,16,7.163,16,16v0
			C272,488.837,264.837,496,256,496z"/>
	</g>
	<g>
		<path fill="#FAA019" d="M272,192h-32c-4.418,0-8-3.582-8-8v0c0-4.418,3.582-8,8-8h32c4.418,0,8,3.582,8,8v0
			C280,188.418,276.418,192,272,192z"/>
	</g>
	<g>
		<path fill="#FAA019" d="M288,128h-64c-4.418,0-8-3.582-8-8v0c0-4.418,3.582-8,8-8h64c4.418,0,8,3.582,8,8v0
			C296,124.418,292.418,128,288,128z"/>
	</g>
	<g>
		<path fill="#FFD205" d="M256,128h-32c-4.418,0-8-3.582-8-8v0c0-4.418,3.582-8,8-8h32c4.418,0,8,3.582,8,8v0
			C264,124.418,260.418,128,256,128z"/>
	</g>
	<g>
		<path fill="#FFD205" d="M256,192h-16c-4.418,0-8-3.582-8-8v0c0-4.418,3.582-8,8-8h16c4.418,0,8,3.582,8,8v0
			C264,188.418,260.418,192,256,192z"/>
	</g>
	<g>
		<path fill="#FAA019" d="M240,200v184c0,26.51-21.49,48-48,48l0,0c-17.673,0-32,14.327-32,32l0,0h96V208c0-4.418-3.582-8-8-8H240z"
			/>
	</g>
	<g>
		<path fill="#F06423" d="M272,176h-32c-8.837,0-16-7.163-16-16v-32h64v32C288,168.837,280.837,176,272,176z"/>
	</g>
	<g>
		<path fill="#FAA019" d="M240,157.333h-16V128h32v13.333C256,150.17,248.837,157.333,240,157.333z"/>
	</g>
	<g>
		<path fill="#D7E6F0" d="M280,112h-48V72c0-4.418,3.582-8,8-8h32c4.418,0,8,3.582,8,8V112z"/>
	</g>
	<g>
		<path fill="#A5C3DC" d="M280,112h-24V88c0-4.418,3.582-8,8-8h16V112z"/>
	</g>
	<g>
		<path fill="#F04B37" d="M276,44c0,11.046-8.954,20-20,20c-11.046,0-20-8.954-20-20s12-28,20-28S276,32.954,276,44z"/>
	</g>
	<g>
		<circle fill="#FAA019" cx="256" cy="52" r="12"/>
	</g>
	<g>
		<path fill="#FAA019" d="M72,192H40c-4.418,0-8-3.582-8-8v0c0-4.418,3.582-8,8-8h32c4.418,0,8,3.582,8,8v0
			C80,188.418,76.418,192,72,192z"/>
	</g>
	<g>
		<path fill="#FAA019" d="M88,128H24c-4.418,0-8-3.582-8-8v0c0-4.418,3.582-8,8-8h64c4.418,0,8,3.582,8,8v0
			C96,124.418,92.418,128,88,128z"/>
	</g>
	<g>
		<path fill="#FFD205" d="M56,128H24c-4.418,0-8-3.582-8-8v0c0-4.418,3.582-8,8-8h32c4.418,0,8,3.582,8,8v0
			C64,124.418,60.418,128,56,128z"/>
	</g>
	<g>
		<path fill="#FFD205" d="M56,192H40c-4.418,0-8-3.582-8-8v0c0-4.418,3.582-8,8-8h16c4.418,0,8,3.582,8,8v0
			C64,188.418,60.418,192,56,192z"/>
	</g>
	<g>
		<path fill="#F06423" d="M72,176H40c-8.837,0-16-7.163-16-16v-32h64v32C88,168.837,80.837,176,72,176z"/>
	</g>
	<g>
		<path fill="#FAA019" d="M40,157.333H24V128h32v13.333C56,150.17,48.837,157.333,40,157.333z"/>
	</g>
	<g>
		<path fill="#D7E6F0" d="M80,112H32V72c0-4.418,3.582-8,8-8h32c4.418,0,8,3.582,8,8V112z"/>
	</g>
	<g>
		<path fill="#A5C3DC" d="M80,112H56V88c0-4.418,3.582-8,8-8h16V112z"/>
	</g>
	<g>
		<path fill="#F04B37" d="M76,44c0,11.046-8.954,20-20,20s-20-8.954-20-20s12-28,20-28S76,32.954,76,44z"/>
	</g>
	<g>
		<circle fill="#FAA019" cx="56" cy="52" r="12"/>
	</g>
	<g>
		<path fill="#FAA019" d="M472,192h-32c-4.418,0-8-3.582-8-8v0c0-4.418,3.582-8,8-8h32c4.418,0,8,3.582,8,8v0
			C480,188.418,476.418,192,472,192z"/>
	</g>
	<g>
		<path fill="#FAA019" d="M488,128h-64c-4.418,0-8-3.582-8-8v0c0-4.418,3.582-8,8-8h64c4.418,0,8,3.582,8,8v0
			C496,124.418,492.418,128,488,128z"/>
	</g>
	<g>
		<path fill="#FFD205" d="M456,128h-32c-4.418,0-8-3.582-8-8v0c0-4.418,3.582-8,8-8h32c4.418,0,8,3.582,8,8v0
			C464,124.418,460.418,128,456,128z"/>
	</g>
	<g>
		<path fill="#FFD205" d="M456,192h-16c-4.418,0-8-3.582-8-8v0c0-4.418,3.582-8,8-8h16c4.418,0,8,3.582,8,8v0
			C464,188.418,460.418,192,456,192z"/>
	</g>
	<g>
		<path fill="#F06423" d="M472,176h-32c-8.837,0-16-7.163-16-16v-32h64v32C488,168.837,480.837,176,472,176z"/>
	</g>
	<g>
		<path fill="#FAA019" d="M440,157.333h-16V128h32v13.333C456,150.17,448.837,157.333,440,157.333z"/>
	</g>
	<g>
		<path fill="#D7E6F0" d="M480,112h-48V72c0-4.418,3.582-8,8-8h32c4.418,0,8,3.582,8,8V112z"/>
	</g>
	<g>
		<path fill="#A5C3DC" d="M480,112h-24V88c0-4.418,3.582-8,8-8h16V112z"/>
	</g>
	<g>
		<path fill="#F04B37" d="M476,44c0,11.046-8.954,20-20,20s-20-8.954-20-20s12-28,20-28S476,32.954,476,44z"/>
	</g>
	<g>
		<circle fill="#FAA019" cx="456" cy="52" r="12"/>
	</g>
</g>
</svg>
