<?xml version="1.0" encoding="utf-8"?>
<!-- Generator: Adobe Illustrator 24.0.0, SVG Export Plug-In . SVG Version: 6.00 Build 0)  -->
<svg version="1.1" id="Layer_1" xmlns="http://www.w3.org/2000/svg" xmlns:xlink="http://www.w3.org/1999/xlink" x="0px" y="0px"
	 viewBox="0 0 512 512" enable-background="new 0 0 512 512" xml:space="preserve">
<g>
	<g>
		<g>
			<path fill="#F06423" d="M412.686,35.314L227.314,220.686C220.07,227.93,216,237.755,216,248v0c0,10.245-4.07,20.07-11.314,27.314
				L24,456c-4.418,4.418-4.418,11.582,0,16l16,16c4.418,4.418,11.582,4.418,16,0l180.686-180.686C243.93,300.07,253.755,296,264,296
				h0c10.245,0,20.07-4.07,27.314-11.314L476.686,99.314c6.248-6.248,6.248-16.379,0-22.627l-41.373-41.373
				C429.065,29.065,418.935,29.065,412.686,35.314z"/>
		</g>
		<g>
			<path fill="#FAA019" d="M444.686,67.314L416,96l-32-32l28.686-28.686c6.248-6.248,16.379-6.248,22.627,0l9.373,9.373
				C450.935,50.935,450.935,61.065,444.686,67.314z"/>
		</g>
		<g>
			<path fill="#463C4B" d="M292.686,276.686l-57.373-57.373c-6.248-6.248-6.248-16.379,0-22.627L388.686,43.314
				c6.248-6.248,16.379-6.248,22.627,0l57.373,57.373c6.248,6.248,6.248,16.379,0,22.627L315.314,276.686
				C309.065,282.935,298.935,282.935,292.686,276.686z"/>
		</g>
		<g>
			<path fill="#555A6E" d="M252.686,236.686l-17.373-17.373c-6.248-6.248-6.248-16.379,0-22.627L388.686,43.314
				c6.248-6.248,16.379-6.248,22.627,0l17.373,17.373c6.248,6.248,6.248,16.379,0,22.627L275.314,236.686
				C269.065,242.935,258.935,242.935,252.686,236.686z"/>
		</g>
		<g>
			<path fill="#FAA019" d="M224,288L40,472c-4.418,4.418-11.582,4.418-16,0h0c-4.418-4.418-4.418-11.582,0-16l184-184
				c4.418-4.418,11.582-4.418,16,0h0C228.418,276.418,228.418,283.582,224,288z"/>
		</g>
	</g>
	<g>
		<g>
			<circle fill="#555A6E" cx="405.333" cy="106.667" r="21.333"/>
		</g>
		<g>
			<path fill="#73788C" d="M384,106.667h13.333c4.418,0,8-3.582,8-8V85.333h0C393.551,85.333,384,94.885,384,106.667L384,106.667z"
				/>
		</g>
	</g>
	<g>
		<g>
			<circle fill="#555A6E" cx="352" cy="160" r="21.333"/>
		</g>
		<g>
			<path fill="#73788C" d="M330.667,160H344c4.418,0,8-3.582,8-8v-13.333h0C340.218,138.667,330.667,148.218,330.667,160
				L330.667,160z"/>
		</g>
	</g>
	<g>
		<g>
			<circle fill="#555A6E" cx="298.667" cy="213.333" r="21.333"/>
		</g>
		<g>
			<path fill="#73788C" d="M277.333,213.333h13.333c4.418,0,8-3.582,8-8V192l0,0C286.885,192,277.333,201.551,277.333,213.333
				L277.333,213.333z"/>
		</g>
	</g>
	<g>
		<path fill="#463C4B" d="M378.667,53.333l-31.147-11.98c-2.14-0.823-4.565-0.309-6.187,1.313v0
			c-1.622,1.622-2.136,4.046-1.313,6.187L352,80L378.667,53.333z"/>
	</g>
	<g>
		<path fill="#463C4B" d="M325.333,106.667l-31.147-11.98c-2.14-0.823-4.565-0.309-6.187,1.313l0,0
			c-1.622,1.622-2.136,4.046-1.313,6.187l11.98,31.147L325.333,106.667z"/>
	</g>
	<g>
		<path fill="#463C4B" d="M272,160l-31.147-11.98c-2.14-0.823-4.565-0.309-6.187,1.313l0,0c-1.622,1.622-2.136,4.046-1.313,6.187
			l11.98,31.147L272,160z"/>
	</g>
	<g>
		<path fill="#463C4B" d="M325.333,266.667l31.147,11.98c2.14,0.823,4.565,0.309,6.187-1.313l0,0
			c1.622-1.622,2.136-4.046,1.313-6.187L352,240L325.333,266.667z"/>
	</g>
	<g>
		<path fill="#463C4B" d="M378.667,213.333l31.147,11.98c2.14,0.823,4.565,0.309,6.187-1.313l0,0
			c1.622-1.622,2.136-4.046,1.313-6.187l-11.98-31.147L378.667,213.333z"/>
	</g>
	<g>
		<path fill="#463C4B" d="M432,160l31.147,11.98c2.14,0.823,4.565,0.309,6.187-1.313v0c1.622-1.622,2.136-4.046,1.313-6.187
			l-11.98-31.147L432,160z"/>
	</g>
</g>
</svg>
