<?xml version="1.0" encoding="utf-8"?>
<!-- Generator: Adobe Illustrator 24.0.0, SVG Export Plug-In . SVG Version: 6.00 Build 0)  -->
<svg version="1.1" id="Layer_1" xmlns="http://www.w3.org/2000/svg" xmlns:xlink="http://www.w3.org/1999/xlink" x="0px" y="0px"
	 viewBox="0 0 512 512" enable-background="new 0 0 512 512" xml:space="preserve">
<g>
	<path fill="#F06423" d="M452.808,392l14.521-21.781c0.818-1.228,0.895-2.806,0.198-4.106C466.831,364.812,465.476,364,464,364h-80
		c-2.209,0-4,1.791-4,4v48c0,2.209,1.791,4,4,4h80c1.476,0,2.831-0.812,3.526-2.113c0.696-1.3,0.62-2.878-0.198-4.106L452.808,392z"
		/>
	<path fill="#F06423" d="M128,364H48c-1.476,0-2.831,0.812-3.526,2.113c-0.696,1.3-0.62,2.878,0.198,4.106L59.192,392
		l-14.521,21.781c-0.818,1.228-0.895,2.806-0.198,4.106C45.169,419.188,46.524,420,48,420h80c2.209,0,4-1.791,4-4v-48
		C132,365.791,130.209,364,128,364z"/>
	<g>
		<g>
			<path fill="#F06423" d="M301.265,360.177l-21.442-21.442l157.021-157.021c2.093-2.093,5.487-2.093,7.581,0l13.861,13.861
				c2.093,2.093,2.093,5.487,0,7.581L301.265,360.177z"/>
		</g>
		<g>
			<path fill="#FAA019" d="M290.544,349.456l-10.721-10.721l101.847-101.847l6.93,6.93c2.093,2.093,2.093,5.487,0,7.581
				L290.544,349.456z"/>
		</g>
		<g>
			<path fill="#A55023" d="M301.265,360.177l-21.442-21.442l-48.92,48.92c-2.093,2.093-2.093,5.487,0,7.581l13.861,13.861
				c2.093,2.093,5.487,2.093,7.581,0L301.265,360.177z"/>
		</g>
		<g>
			<path fill="#D26E28" d="M290.544,349.456l-10.721-10.721l-48.92,48.92c-2.093,2.093-2.093,5.487,0,7.581l3.14,3.14
				c2.093,2.093,5.487,2.093,7.581,0L290.544,349.456z"/>
		</g>
		<g>
			<g>
				<path fill="#555A6E" d="M410.693,298.992c-2.928,2.928-3.801,7.126-2.634,10.818c2.873,1.382,6.045,2.123,9.295,2.123h3.298
					c12.795,0,25.066-5.083,34.113-14.13l24.312-24.312c8.374-8.373,8.374-21.949,0-30.323l-63.024-63.024
					c-4.187-4.187-10.975-4.187-15.161,0l-22.361,22.361c-4.187,4.187-4.187,10.975,0,15.161l34.002,34.002
					c12.56,12.56,12.56,32.924,0,45.484L410.693,298.992z"/>
			</g>
		</g>
		<g>
			<g>
				<path fill="#463C4B" d="M410.693,298.992c-2.928,2.928-3.801,7.126-2.634,10.818c2.873,1.382,6.045,2.123,9.295,2.123h3.298
					c12.795,0,25.066-5.083,34.113-14.13l24.312-24.312c8.374-8.373,8.374-21.949,0-30.323l-46.943-46.943
					c-4.187-4.187-10.975-4.187-15.161,0l-22.361,22.361c-4.187,4.187-4.187,10.975,0,15.161l17.921,17.921
					c12.56,12.56,12.56,32.924,0,45.484L410.693,298.992z"/>
			</g>
		</g>
		<g>
			<path fill="#555A6E" d="M487.092,270.837L487.092,270.837c-1.974,1.974-5.174,1.974-7.147,0l-57.177-57.178
				c-1.974-1.974-1.974-5.174,0-7.147v0c1.974-1.974,5.174-1.974,7.147,0l57.177,57.178
				C489.066,265.663,489.066,268.863,487.092,270.837z"/>
		</g>
		<g>
			<g>
				<path fill="#A5C3DC" d="M489.798,253.888l-10.721-10.721c8.374,8.373,8.374,21.949,0,30.323l-24.312,24.312
					c-9.047,9.047-21.318,14.13-34.113,14.13h-3.298c-3.249,0-6.421-0.74-9.295-2.123c0.502,1.588,1.375,3.084,2.634,4.343
					l2.22,2.22c4.021,4.021,9.475,6.28,15.161,6.28h3.298c12.795,0,25.066-5.083,34.113-14.13l24.312-24.312
					C498.172,275.838,498.172,262.262,489.798,253.888z"/>
			</g>
			<g>
				<path fill="#D7E6F0" d="M485.09,261.687c-0.553,3.508-1.981,6.903-4.28,9.84c1.955,1.244,4.576,1.016,6.283-0.69v0
					c1.974-1.973,1.974-5.173,0-7.147L485.09,261.687z"/>
			</g>
		</g>
	</g>
	<g>
		<g>
			<path fill="#F06423" d="M210.735,360.177l21.442-21.442L75.155,181.714c-2.093-2.093-5.487-2.093-7.581,0l-13.861,13.861
				c-2.093,2.093-2.093,5.487,0,7.581L210.735,360.177z"/>
		</g>
		<g>
			<path fill="#FAA019" d="M221.456,349.456l10.721-10.721L130.329,236.888l-6.93,6.93c-2.093,2.093-2.093,5.487,0,7.581
				L221.456,349.456z"/>
		</g>
		<g>
			<path fill="#A55023" d="M210.735,360.177l21.442-21.442l48.92,48.92c2.093,2.093,2.093,5.487,0,7.581l-13.861,13.861
				c-2.093,2.093-5.487,2.093-7.581,0L210.735,360.177z"/>
		</g>
		<g>
			<path fill="#D26E28" d="M221.456,349.456l10.721-10.721l48.92,48.92c2.093,2.093,2.093,5.487,0,7.581l-3.14,3.14
				c-2.093,2.093-5.487,2.093-7.581,0L221.456,349.456z"/>
		</g>
		<g>
			<g>
				<path fill="#555A6E" d="M101.307,298.992c2.928,2.928,3.801,7.126,2.634,10.818c-2.873,1.382-6.045,2.123-9.295,2.123h-3.298
					c-12.795,0-25.066-5.083-34.113-14.13l-24.312-24.312c-8.373-8.373-8.373-21.949,0-30.323l63.024-63.024
					c4.187-4.187,10.975-4.187,15.161,0l22.361,22.361c4.187,4.187,4.187,10.975,0,15.161l-34.002,34.002
					c-12.56,12.56-12.56,32.924,0,45.484L101.307,298.992z"/>
			</g>
		</g>
		<g>
			<g>
				<path fill="#463C4B" d="M101.307,298.992c2.928,2.928,3.801,7.126,2.634,10.818c-2.873,1.382-6.045,2.123-9.295,2.123h-3.298
					c-12.795,0-25.066-5.083-34.113-14.13l-24.312-24.312c-8.373-8.373-8.373-21.949,0-30.323l46.943-46.943
					c4.187-4.187,10.975-4.187,15.161,0l22.361,22.361c4.187,4.187,4.187,10.975,0,15.161l-17.921,17.921
					c-12.56,12.56-12.56,32.924,0,45.484L101.307,298.992z"/>
			</g>
		</g>
		<g>
			<path fill="#555A6E" d="M24.908,270.837L24.908,270.837c1.974,1.974,5.174,1.974,7.147,0l57.178-57.178
				c1.974-1.974,1.974-5.174,0-7.147l0,0c-1.974-1.974-5.174-1.974-7.147,0l-57.178,57.178
				C22.934,265.663,22.934,268.863,24.908,270.837z"/>
		</g>
		<g>
			<g>
				<path fill="#A5C3DC" d="M22.202,253.888l10.721-10.721c-8.373,8.373-8.373,21.949,0,30.323l24.312,24.312
					c9.047,9.047,21.318,14.13,34.113,14.13h3.298c3.249,0,6.421-0.74,9.295-2.123c-0.502,1.588-1.375,3.084-2.634,4.343l-2.22,2.22
					c-4.021,4.021-9.475,6.28-15.161,6.28h-3.298c-12.795,0-25.066-5.083-34.113-14.13l-24.312-24.312
					C13.828,275.838,13.828,262.262,22.202,253.888z"/>
			</g>
			<g>
				<path fill="#D7E6F0" d="M26.91,261.687c0.553,3.508,1.981,6.903,4.28,9.84c-1.955,1.244-4.576,1.016-6.283-0.69v0
					c-1.974-1.973-1.974-5.173,0-7.147L26.91,261.687z"/>
			</g>
		</g>
	</g>
	<g>
		<g>
			<circle fill="#D7E6F0" cx="256" cy="336" r="144"/>
		</g>
		<g>
			<circle fill="#A55023" cx="256" cy="336" r="112"/>
		</g>
		<g>
			<circle fill="#D26E28" cx="256" cy="336" r="104"/>
		</g>
		<g>
			<rect x="240" y="208" fill="#D7E6F0" width="32" height="256"/>
		</g>
		<g>
			<rect x="128" y="320" fill="#D7E6F0" width="256" height="32"/>
		</g>
		<g>
			<g>
				<circle fill="#87A5BE" cx="256" cy="240" r="8"/>
			</g>
			<g>
				<circle fill="#87A5BE" cx="256" cy="288" r="8"/>
			</g>
			<g>
				<circle fill="#87A5BE" cx="256" cy="336" r="8"/>
			</g>
			<g>
				<circle fill="#87A5BE" cx="208" cy="336" r="8"/>
			</g>
			<g>
				<circle fill="#87A5BE" cx="160" cy="336" r="8"/>
			</g>
			<g>
				<circle fill="#87A5BE" cx="352" cy="336" r="8"/>
			</g>
			<g>
				<circle fill="#87A5BE" cx="304" cy="336" r="8"/>
			</g>
			<g>
				<circle fill="#87A5BE" cx="256" cy="432" r="8"/>
			</g>
			<g>
				<circle fill="#87A5BE" cx="256" cy="384" r="8"/>
			</g>
		</g>
	</g>
	<g>
		<g>
			<g>
				<path fill="#E1322D" d="M128,101.333v-64c0-2.946-2.388-5.333-5.333-5.333h0C107.939,32,96,43.939,96,58.667v48
					C96,136.122,119.878,160,149.333,160h53.333v-53.333h-69.333C130.388,106.667,128,104.279,128,101.333z"/>
			</g>
			<g>
				<rect x="149.333" y="106.667" fill="#FAA019" width="53.333" height="53.333"/>
			</g>
			<g>
				<path fill="#E1322D" d="M384,101.333v-64c0-2.946,2.388-5.333,5.333-5.333h0C404.061,32,416,43.939,416,58.667v48
					C416,136.122,392.122,160,362.667,160h-53.333v-53.333h69.333C381.612,106.667,384,104.279,384,101.333z"/>
			</g>
			<g>
				<rect x="309.333" y="106.667" fill="#F57823" width="53.333" height="53.333"/>
			</g>
			<g>
				<rect x="309.333" y="106.667" fill="#FAA019" width="53.333" height="26.667"/>
			</g>
			<g>
				<path fill="#F04B37" d="M384,37.333v64c0,2.946-2.388,5.333-5.333,5.333h-16v26.667H368c14.728,0,26.667-11.939,26.667-26.667
					V37.333c0-2.946-2.388-5.333-5.333-5.333h0C386.388,32,384,34.388,384,37.333z"/>
			</g>
			<g>
				<path fill="#F04B37" d="M109.333,117.333L109.333,117.333c7.364,0,13.333-5.97,13.333-13.333V32h0
					C107.939,32,96,43.939,96,58.667V104C96,111.364,101.97,117.333,109.333,117.333z"/>
			</g>
		</g>
		<g>
			<path fill="#555A6E" d="M240,85.333l11.32-33.96C251.992,49.359,253.877,48,256,48l0,0c2.123,0,4.008,1.359,4.68,3.373
				L272,85.333H240z"/>
		</g>
		<g>
			<path fill="#463C4B" d="M256,48v37.333h16l-11.32-33.96C260.008,49.359,258.123,48,256,48L256,48z"/>
		</g>
		<g>
			<path fill="#F06423" d="M362.667,184.889H149.333c-2.946,0-5.333,2.388-5.333,5.333v23.111c0,2.946,2.388,5.333,5.333,5.333
				h213.333c2.946,0,5.333-2.388,5.333-5.333v-23.111C368,187.277,365.612,184.889,362.667,184.889z"/>
		</g>
		<g>
			<path fill="#FAA019" d="M256,184.889H149.333c-2.946,0-5.333,2.388-5.333,5.333v23.111c0,2.946,2.388,5.333,5.333,5.333H256
				c2.946,0,5.333-2.388,5.333-5.333v-23.111C261.333,187.277,258.946,184.889,256,184.889z"/>
		</g>
		<g>
			<path fill="#555A6E" d="M362.667,184.889H149.333V176c0-50.074,40.593-90.667,90.667-90.667h32
				c50.074,0,90.667,40.593,90.667,90.667V184.889z"/>
		</g>
		<g>
			<path fill="#73788C" d="M165.679,176.889c-0.254,0-0.509-0.012-0.766-0.036c-4.398-0.417-7.626-4.322-7.208-8.72
				c1.933-20.364,11.356-39.229,26.535-53.118c15.281-13.981,35.083-21.682,55.76-21.682h32c4.418,0,8,3.582,8,8s-3.582,8-8,8h-32
				c-34.572,0-63.104,25.928-66.367,60.311C173.24,173.786,169.756,176.889,165.679,176.889z"/>
		</g>
		<g>
			<path fill="#463C4B" d="M307.556,133.333h3.556c28.473,0,51.555,23.082,51.555,51.556v0H256v0
				C256,156.416,279.082,133.333,307.556,133.333z"/>
		</g>
		<g>
			<path fill="#FAA019" d="M277.333,184.889h-42.667V85.333c0-2.946,2.388-5.333,5.333-5.333h32c2.946,0,5.333,2.388,5.333,5.333
				V184.889z"/>
		</g>
		<g>
			<path fill="#F06423" d="M277.333,184.889h-42.667v-30.222c0-2.946,2.388-5.333,5.333-5.333h32c2.946,0,5.333,2.388,5.333,5.333
				V184.889z"/>
		</g>
		<g>
			<g>
				<circle fill="#FFD205" cx="256" cy="117.333" r="5.333"/>
			</g>
			<g>
				<circle fill="#FFD205" cx="256" cy="90.667" r="5.333"/>
			</g>
			<g>
				<circle fill="#FFD205" cx="256" cy="144" r="5.333"/>
			</g>
			<g>
				<circle fill="#FAA019" cx="256" cy="170.667" r="5.333"/>
			</g>
		</g>
		<g>
			<circle fill="#FFD205" cx="240" cy="202.667" r="5.333"/>
		</g>
		<g>
			<circle fill="#FFD205" cx="208" cy="202.667" r="5.333"/>
		</g>
		<g>
			<circle fill="#FFD205" cx="176" cy="202.667" r="5.333"/>
		</g>
		<g>
			<circle fill="#FAA019" cx="336" cy="202.667" r="5.333"/>
		</g>
		<g>
			<circle fill="#FAA019" cx="304" cy="202.667" r="5.333"/>
		</g>
		<g>
			<circle fill="#FAA019" cx="272" cy="202.667" r="5.333"/>
		</g>
	</g>
	<g>
		<path fill="#FAA019" d="M409.094,391.827c-95.957,49.852-210.23,49.852-306.187,0c-3.862-2.006-8.615-0.584-10.712,3.23
			c-7.71,14.024-15.42,28.049-23.13,42.073c-2.157,3.924-0.679,8.868,3.289,10.944c115.014,60.189,252.278,60.189,367.292,0
			c3.968-2.076,5.446-7.02,3.289-10.944c-7.71-14.024-15.42-28.048-23.13-42.073C417.709,391.244,412.955,389.821,409.094,391.827z"
			/>
	</g>
</g>
</svg>
