<?xml version="1.0" encoding="utf-8"?>
<!-- Generator: Adobe Illustrator 24.0.0, SVG Export Plug-In . SVG Version: 6.00 Build 0)  -->
<svg version="1.1" id="Layer_1" xmlns="http://www.w3.org/2000/svg" xmlns:xlink="http://www.w3.org/1999/xlink" x="0px" y="0px"
	 viewBox="0 0 512 512" enable-background="new 0 0 512 512" xml:space="preserve">
<g>
	<g>
		<path fill="#463C4B" d="M278.627,297.373c-12.496-12.497-32.758-12.497-45.254,0l-64,64C163.371,367.374,160,375.513,160,384v64
			c-17.673,0-32,14.327-32,32l0,0c0,8.837,7.164,16,16,16h64c8.836,0,16-7.163,16-16v-82.745l54.627-54.628
			C291.124,330.131,291.124,309.869,278.627,297.373z"/>
	</g>
	<g>
		<path fill="#555A6E" d="M400,448c0-8.189-3.124-16.379-9.373-22.627L336,370.745V304c0-17.673-14.327-32-32-32s-32,14.327-32,32
			v80c0,8.487,3.371,16.626,9.373,22.627L322.746,448H320c-17.673,0-32,14.327-32,32l0,0c0,8.837,7.164,16,16,16h80
			c8.836,0,16-7.163,16-16L400,448L400,448z"/>
	</g>
	<g>
		<rect x="352" y="58.667" fill="#A5C3DC" width="40" height="37.333"/>
	</g>
	<g>
		<g>
			<g>
				<g>
					<path fill="#5FAA46" d="M404,74.667h-60v-24h60c6.627,0,12,5.373,12,12v0C416,69.294,410.627,74.667,404,74.667z"/>
				</g>
			</g>
		</g>
	</g>
	<g>
		<g>
			<g>
				<g>
					<path fill="#555A6E" d="M328,72H145.019c-0.67,0-1.33-0.156-1.93-0.456l-12.704-6.352c-1.462-0.731-2.385-2.225-2.385-3.859v0
						c0-1.634,0.923-3.128,2.385-3.859l12.704-6.352c0.599-0.3,1.26-0.456,1.93-0.456H328V72z"/>
				</g>
			</g>
		</g>
	</g>
	<g>
		<g>
			<g>
				<g>
					<path fill="#5FAA46" d="M112,220v60H88v-60c0-6.627,5.373-12,12-12h0C106.627,208,112,213.373,112,220z"/>
				</g>
			</g>
		</g>
	</g>
	<g>
		<g>
			<g>
				<g>
					<path fill="#463C4B" d="M120,288L120,288c0-4.418-3.582-8-8-8H85.333c-4.418,0-8,3.582-8,8l0,0c0,4.418,3.582,8,8,8H112
						C116.418,296,120,292.418,120,288z"/>
				</g>
			</g>
		</g>
	</g>
	<g>
		<g>
			<g>
				<g>
					<path fill="#555A6E" d="M109.333,296v166.981c0,0.67-0.156,1.331-0.456,1.93l-6.352,12.704
						c-0.731,1.462-2.225,2.385-3.859,2.385l0,0c-1.634,0-3.128-0.923-3.859-2.385l-6.352-12.704c-0.3-0.599-0.456-1.26-0.456-1.93
						V296H109.333z"/>
				</g>
			</g>
		</g>
	</g>
	<g>
		<path fill="#D7E6F0" d="M344,88V68c0-2.209,1.791-4,4-4h0c6.627,0,12,5.373,12,12v4c8.837,0,16,7.164,16,16h-24
			C347.582,96,344,92.418,344,88z"/>
	</g>
	<g>
		<path fill="#D7E6F0" d="M352,42.667h32c4.418,0,8,3.582,8,8v0c0,4.418-3.582,8-8,8h-32c-4.418,0-8-3.582-8-8v0
			C344,46.248,347.582,42.667,352,42.667z"/>
	</g>
	<g>
		<path fill="#D7E6F0" d="M216,208h-16c-4.418,0-8-3.582-8-8v-56h24V208z"/>
	</g>
	<g>
		<path fill="#4B8C41" d="M336,152v208h4.153c2.091,0,3.806-1.562,4.119-3.63C346.022,344.838,355.979,336,368,336
			s21.978,8.838,23.727,20.37c0.314,2.068,2.028,3.63,4.119,3.63h0c2.294,0,4.153-1.859,4.153-4.153V152H336z"/>
	</g>
	<g>
		<path fill="#463C4B" d="M152,296h72v-64h-72c-4.418,0-8,3.582-8,8v48C144,292.418,147.582,296,152,296z"/>
	</g>
	<g>
		<rect x="128" y="248" fill="#D7E6F0" width="16" height="32"/>
	</g>
	<g>
		<path fill="#A5C3DC" d="M112,232L112,232c8.837,0,16,7.163,16,16v32h-16V232z"/>
	</g>
	<g>
		<rect x="208" y="304" fill="#323232" width="128" height="32"/>
	</g>
	<g>
		<path fill="#A55023" d="M336,320H208V192c0-17.673,14.327-32,32-32h96V320z"/>
	</g>
	<g>
		<path fill="#4B8C41" d="M336,160h-16c-17.673,0-32,14.327-32,32v0c0,4.418-3.582,8-8,8h-72c-4.418,0-8-3.582-8-8v0
			c0-22.091,17.909-40,40-40h96V160z"/>
	</g>
	<g>
		<path fill="#555A6E" d="M392,96h-48c-4.418,0-8,3.582-8,8v56c-17.673,0-32,14.327-32,32c0,17.673,14.327,32,32,32h32
			c17.673,0,32-14.327,32-32v-88C400,99.582,396.418,96,392,96z"/>
	</g>
	<g>
		<path fill="#A5C3DC" d="M248,176h-48c-8.837,0-16-7.163-16-16V88c0-13.255,10.745-24,24-24h16c13.255,0,24,10.745,24,24V176z"/>
	</g>
	<g>
		<path fill="#D7E6F0" d="M288,96c0-26.51-21.49-48-48-48h-24c-17.673,0-32,14.327-32,32v7.95c0-4.394,3.557-7.958,7.95-7.967
			L231.884,80c4.456,0.006,8.068,3.615,8.077,8.071l0.022,15.823c0.01,4.474-3.615,8.105-8.088,8.105l0.105,8c0,4.418,3.582,8,8,8
			v72c0,4.418,3.582,8,8,8h16c4.418,0,8-3.582,8-8v-48h16V96z"/>
	</g>
	<g>
		<path fill="#8CAAC8" d="M248,144h-8v-16c0-8.837,7.163-16,16-16h8v16C264,136.837,256.837,144,248,144z"/>
	</g>
	<g>
		<path fill="#A55023" d="M208,320l-30.343,30.343c-1.061,1.061-1.657,2.5-1.657,4l0,0c0,3.124,2.533,5.657,5.657,5.657H336v-40H208
			z"/>
	</g>
	<g>
		<rect x="208" y="296" fill="#D76E28" width="128" height="24"/>
	</g>
	<g>
		<path fill="#D7E6F0" d="M88,232L88,232c13.255,0,24,10.745,24,24v0c0,13.255-10.745,24-24,24h0c-4.418,0-8-3.582-8-8v-32
			C80,235.582,83.582,232,88,232z"/>
	</g>
	<g>
		<g>
			<g>
				<g>
					<path fill="#463C4B" d="M336,82.667L336,82.667c4.418,0,8-3.582,8-8V48c0-4.418-3.582-8-8-8l0,0c-4.418,0-8,3.582-8,8v26.667
						C328,79.085,331.582,82.667,336,82.667z"/>
				</g>
			</g>
		</g>
	</g>
</g>
</svg>
