<?xml version="1.0" encoding="utf-8"?>
<!-- Generator: Adobe Illustrator 24.0.0, SVG Export Plug-In . SVG Version: 6.00 Build 0)  -->
<svg version="1.1" id="Layer_1" xmlns="http://www.w3.org/2000/svg" xmlns:xlink="http://www.w3.org/1999/xlink" x="0px" y="0px"
	 viewBox="0 0 512 512" enable-background="new 0 0 512 512" xml:space="preserve">
<g>
	<g>
		<g>
			<path fill="#FFD205" d="M258.626,185.75l-19.501-13.001c-4.451-2.967-7.125-7.963-7.125-13.313V136h-80v23.437
				c0,5.35-2.674,10.345-7.125,13.313l-19.501,13.001C112.021,194.653,104,209.64,104,225.689V488c0,8.837,7.163,16,16,16h144
				c8.837,0,16-7.163,16-16V225.689C280,209.64,271.979,194.653,258.626,185.75z"/>
		</g>
		<g>
			<path fill="#FFFF50" d="M136,488h-16V225.689c0-10.724,5.327-20.677,14.25-26.625l19.5-13
				c8.759-5.841,14.083-15.604,14.246-26.124V136h16l-0.001,24.112c-0.221,15.811-8.209,30.489-21.369,39.264l-19.501,13
				c-4.461,2.975-7.125,7.951-7.125,13.313V488z"/>
		</g>
		<g>
			<path fill="#555A6E" d="M232,40h-80c-4.418,0-8-3.582-8-8V16c0-4.418,3.582-8,8-8h80c4.418,0,8,3.582,8,8v16
				C240,36.418,236.418,40,232,40z"/>
		</g>
		<g>
			<path fill="#463C4B" d="M232,8h-48c4.418,0,8,3.582,8,8v16c0,4.418-3.582,8-8,8h48c4.418,0,8-3.582,8-8V16
				C240,11.582,236.418,8,232,8z"/>
		</g>
		<g>
			<path fill="#FAA019" d="M258.626,185.75l-19.501-13c-4.451-2.967-7.125-7.963-7.125-13.313V136h-40v352h-88
				c0,8.837,7.163,16,16,16h72h16h56c8.837,0,16-7.163,16-16V225.689C280,209.64,271.979,194.653,258.626,185.75z"/>
		</g>
		<g>
			<rect x="152" y="40" fill="#555A6E" width="40" height="96"/>
		</g>
		<g>
			<rect x="192" y="40" fill="#463C4B" width="40" height="96"/>
		</g>
		<g>
			<rect x="152" y="40" fill="#463C4B" width="40" height="8"/>
		</g>
		<g>
			<g>
				<path fill="#555A6E" d="M192,416h-48c-4.418,0-8-3.582-8-8V264c0-4.418,3.582-8,8-8h48V416z"/>
			</g>
			<g>
				<path fill="#463C4B" d="M240,416h-48V256h48c4.418,0,8,3.582,8,8v144C248,412.418,244.418,416,240,416z"/>
			</g>
		</g>
	</g>
	<g>
		<g>
			<g>
				<path fill="#FFFFFF" d="M320,453.572c-1.39,0-2.762-0.365-3.969-1.054l-96-54.857c-2.486-1.421-4.031-4.083-4.031-6.946v-109.43
					c0-2.863,1.545-5.525,4.032-6.946l95.999-54.857c1.207-0.689,2.579-1.054,3.969-1.054c1.39,0,2.762,0.365,3.969,1.054l96,54.857
					c2.486,1.421,4.031,4.083,4.031,6.946v109.43c0,2.863-1.545,5.525-4.032,6.946l-96,54.857
					C322.762,453.208,321.39,453.572,320,453.572z"/>
			</g>
			<g>
				<path fill="#FFD205" d="M320,226.428L320,226.428l96,54.857v109.43l-96,54.857l-96-54.857v-109.43l95.998-54.857
					C319.998,226.428,319.999,226.428,320,226.428 M320,210.428c-2.739,0-5.479,0.703-7.938,2.108l-96,54.857
					c-4.985,2.849-8.062,8.15-8.062,13.892v109.43c0,5.742,3.077,11.043,8.062,13.892l96,54.857
					c2.459,1.406,5.199,2.108,7.938,2.108s5.479-0.703,7.938-2.108l96-54.857c4.985-2.849,8.062-8.15,8.062-13.892v-109.43
					c0-5.742-3.077-11.043-8.062-13.892l-96-54.857C325.479,211.13,322.739,210.428,320,210.428L320,210.428z"/>
			</g>
		</g>
		<g>
			<g>
				<path fill="#463C4B" d="M320,315.314l-37.657-37.657c-3.125-3.124-3.125-8.189,0-11.313c3.124-3.124,8.189-3.124,11.313,0
					L320,292.686l26.343-26.343c3.124-3.124,8.189-3.124,11.313,0c3.125,3.124,3.125,8.189,0,11.313L320,315.314z"/>
			</g>
			<g>
				<rect x="296" y="304" fill="#463C4B" width="48" height="40"/>
			</g>
			<g>
				<rect x="296" y="368" fill="#463C4B" width="48" height="24"/>
			</g>
			<g>
				<rect x="296" y="344" fill="#FCCE0B" width="48" height="24"/>
			</g>
			<g>
				<path fill="#FCCE0B" d="M344,392h-48l0,0c0,10.309,8.357,18.667,18.667,18.667h10.667C335.643,410.667,344,402.309,344,392
					L344,392z"/>
			</g>
			<g>
				<path fill="#D7E6F0" d="M288,352h-24c-13.255,0-24-10.745-24-24v0c0-13.255,10.745-24,24-24h56v16
					C320,337.673,305.673,352,288,352z"/>
			</g>
			<g>
				<path fill="#A5C3DC" d="M352,352h24c13.255,0,24-10.745,24-24v0c0-13.255-10.745-24-24-24h-56v16
					C320,337.673,334.327,352,352,352z"/>
			</g>
			<path fill="#555A6E" d="M320,280L320,280c-13.255,0-24,10.745-24,24h48C344,290.745,333.255,280,320,280z"/>
			<g>
				<path fill="#463C4B" d="M320,421.333L320,421.333c-2.946,0-5.333-2.388-5.333-5.333v-5.333h10.667V416
					C325.333,418.946,322.946,421.333,320,421.333z"/>
			</g>
		</g>
	</g>
</g>
</svg>
