<?xml version="1.0" encoding="utf-8"?>
<!-- Generator: Adobe Illustrator 24.0.0, SVG Export Plug-In . SVG Version: 6.00 Build 0)  -->
<svg version="1.1" id="Layer_1" xmlns="http://www.w3.org/2000/svg" xmlns:xlink="http://www.w3.org/1999/xlink" x="0px" y="0px"
	 viewBox="0 0 512 512" enable-background="new 0 0 512 512" xml:space="preserve">
<g>
	<g>
		<path fill="#A55023" d="M66.667,360.002c-3.254,0-6.313-2-7.506-5.23c-1.53-4.146,0.589-8.746,4.734-10.276l143.314-52.916
			C222.038,286.104,232,271.806,232,256c0-4.418,3.582-8,8-8s8,3.582,8,8c0,22.474-14.165,42.804-35.248,50.589L69.438,359.505
			C68.524,359.842,67.588,360.002,66.667,360.002z"/>
	</g>
	<g>
		<path fill="#463C4B" d="M192,384c-4.418,0-8-3.582-8-8s3.582-8,8-8c8.822,0,16-7.178,16-16c0-17.645,14.355-32,32-32
			c4.418,0,8,3.582,8,8s-3.582,8-8,8c-8.822,0-16,7.178-16,16C224,369.645,209.645,384,192,384z"/>
	</g>
	<g>
		<path fill="#463C4B" d="M184,424h-56c0,17.673,14.327,32,32,32h16v8c0,8.837,7.163,16,16,16v-48C192,427.582,188.418,424,184,424z
			"/>
	</g>
	<g>
		<circle fill="#F06423" cx="336" cy="448" r="48"/>
	</g>
	<g>
		<path fill="#E1322D" d="M314.667,208H288c-8.837,0-16-7.163-16-16V72h42.667V208z"/>
	</g>
	<g>
		<rect x="272" y="224" fill="#DC7846" width="32" height="32"/>
	</g>
	<g>
		<rect x="264" y="224" fill="#DC7846" width="8" height="32"/>
	</g>
	<g>
		<path fill="#DC7846" d="M248,208L248,208c8.837,0,16,7.163,16,16v32h-16V208z"/>
	</g>
	<g>
		<path fill="#FAB991" d="M232,208h16c4.418,0,8,3.582,8,8v32c0,4.418-3.582,8-8,8h-16c-4.418,0-8-3.582-8-8v-32
			C224,211.582,227.582,208,232,208z"/>
	</g>
	<g>
		<path fill="#F0915A" d="M360,336h-2.745l9.372-9.372c12.497-12.497,12.497-32.759,0-45.255c-12.497-12.497-32.758-12.497-45.255,0
			l-64,64c-9.152,9.151-11.89,22.915-6.937,34.873C255.389,392.204,267.057,400,280,400h48c0,17.673,14.327,32,32,32h0
			c8.837,0,16-7.163,16-16v-64C376,343.163,368.837,336,360,336z"/>
	</g>
	<g>
		<path fill="#FAB991" d="M496,432c0-8.189-3.124-16.379-9.373-22.627L432,354.745V288c0-17.673-14.327-32-32-32s-32,14.327-32,32
			v80c0,8.487,3.371,16.626,9.373,22.627L418.746,432H416c-17.673,0-32,14.327-32,32l0,0c0,8.837,7.163,16,16,16h80
			c8.837,0,16-7.163,16-16L496,432L496,432z"/>
	</g>
	<g>
		<path fill="#F5826E" d="M416,288H304V176c0-17.673,14.327-32,32-32h80v80.26c0,10.078-4.004,19.744-11.13,26.87L400,256h0l0,0
			c8.837,0,16,7.163,16,16V288z"/>
	</g>
	<g>
		<path fill="#F0915A" d="M352,192L352,192c8.837,0,16-7.163,16-16v0c0-17.673,14.327-32,32-32h0h-32c-17.673,0-32,14.327-32,32v0
			C336,184.837,343.163,192,352,192z"/>
	</g>
	<g>
		<rect x="456" y="32" fill="#F0915A" width="40" height="37.333"/>
	</g>
	<g>
		<path fill="#FAB991" d="M464,69.333V128c0,8.837-7.163,16-16,16h-32c-8.837,0-16,7.163-16,16v0c0,8.837,7.163,16,16,16h32
			c26.51,0,48-21.49,48-48V69.333H464z"/>
	</g>
	<g>
		<path fill="#FAB991" d="M448,61.333v-20c0-2.209,1.791-4,4-4h0c6.627,0,12,5.373,12,12v4c8.837,0,16,7.164,16,16h-24
			C451.582,69.333,448,65.752,448,61.333z"/>
	</g>
	<g>
		<path fill="#FAB991" d="M456,16h32c4.418,0,8,3.582,8,8v8h-40c-4.418,0-8-3.582-8-8v0C448,19.582,451.582,16,456,16z"/>
	</g>
	<g>
		<path fill="#F0915A" d="M320,160h40c8.837,0,16-7.163,16-16V72c0-13.255-10.745-24-24-24h-40c-13.255,0-24,10.745-24,24v56
			C288,145.673,302.327,160,320,160z"/>
	</g>
	<g>
		<path fill="#FAB991" d="M336,160h-16c-17.673,0-32-14.327-32-32V72c0-13.255,10.745-24,24-24h16c13.255,0,24,10.745,24,24v72
			C352,152.837,344.837,160,336,160z"/>
	</g>
	<g>
		<path fill="#F04B37" d="M400,256h-96v42.746l-46.627,46.627c-6.12,6.119-9.354,14.302-9.355,22.627H416c8.836,0,16-7.164,16-16
			v-64C432,270.327,417.673,256,400,256z"/>
	</g>
	<g>
		<path fill="#FAA51E" d="M400,256h-96v32h128v0C432,270.327,417.673,256,400,256z"/>
	</g>
	<g>
		<path fill="#F06423" d="M280,88h64v8c0,4.418,3.582,8,8,8l0,0v88c0,8.837,7.163,16,16,16h16c8.837,0,16-7.163,16-16V80
			c0-26.51-21.49-48-48-48h-48c-17.673,0-32,14.327-32,32v16C272,84.418,275.582,88,280,88z"/>
	</g>
	<g>
		<path fill="#FAA019" d="M256,448v-16c0-8.837-7.163-16-16-16h0c-8.837,0-16,7.163-16,16v16c0,17.673,14.327,32,32,32h225
			c8.284,0,15-6.716,15-15v-17H256z"/>
	</g>
	<g>
		<circle fill="#FFD205" cx="384" cy="448" r="48"/>
	</g>
	<g>
		<circle fill="#FAA019" cx="384" cy="448" r="21.333"/>
	</g>
	<g>
		<path fill="#555A6E" d="M216,424h-8v-31c0-18.226-14.775-33-33-33H96c-8.837,0-16-7.163-16-16v-16
			c0-6.905-2.35-13.604-6.663-18.996l-3.17-3.963C69.64,304.383,68.843,304,68,304s-1.64,0.383-2.166,1.041l-3.17,3.963
			C58.35,314.396,56,321.095,56,328h-8c-17.673,0-32,14.327-32,32v16c0,8.837,7.163,16,16,16h16v32H24c-4.418,0-8,3.582-8,8v24
			c0,4.418,3.582,8,8,8s8-3.582,8-8v-8h32c13.255,0,24-10.745,24-24h72c0,17.673,14.327,32,32,32h16v8c0,8.837,7.163,16,16,16v-48
			C224,427.582,220.418,424,216,424z"/>
	</g>
	<g>
		<rect x="96" y="360" fill="#F5871E" width="16" height="64"/>
	</g>
	<g>
		<rect x="48" y="392" fill="#F5871E" width="48" height="13.333"/>
	</g>
</g>
</svg>
