<?xml version="1.0" encoding="utf-8"?>
<!-- Generator: Adobe Illustrator 24.0.0, SVG Export Plug-In . SVG Version: 6.00 Build 0)  -->
<svg version="1.1" id="Layer_1" xmlns="http://www.w3.org/2000/svg" xmlns:xlink="http://www.w3.org/1999/xlink" x="0px" y="0px"
	 viewBox="0 0 512 512" enable-background="new 0 0 512 512" xml:space="preserve">
<g>
	<g>
		<path fill="#4B8C41" d="M480,160L480,160c0-8.836-7.164-16-16-16h-24c8.836,0,16-7.164,16-16l0,0c0-8.836-7.164-16-16-16h-8l0,0
			c0-8.836-7.164-16-16-16l0,0c0-8.836-7.164-16-16-16l0,0c0-8.836-7.164-16-16-16l0,0c0-8.837-7.164-16-16-16h-16l0,0
			c0-8.837-7.164-16-16-16h-16l0,0c0-8.837-7.164-16-16-16h-96c-8.836,0-16,7.163-16,16l0,0h-16c-8.836,0-16,7.163-16,16l0,0h-16
			c-8.836,0-16,7.163-16,16l0,0c-8.836,0-16,7.164-16,16l0,0c-8.836,0-16,7.164-16,16l0,0c-8.836,0-16,7.164-16,16l0,0h-8
			c-8.836,0-16,7.164-16,16l0,0c0,8.836,7.164,16,16,16H48c-8.836,0-16,7.164-16,16l0,0c-8.836,0-16,7.164-16,16v32
			c0,8.836,7.164,16,16,16c0,8.836,7.164,16,16,16h16c0,8.836,7.164,16,16,16h352c8.836,0,16-7.164,16-16h16c8.836,0,16-7.164,16-16
			c8.836,0,16-7.164,16-16v-32C496,167.164,488.836,160,480,160z"/>
	</g>
	<path fill="#5FAA46" d="M272,32h-96c-8.836,0-16,7.163-16,16l0,0h-16c-8.836,0-16,7.163-16,16l0,0c0,8.836,7.164,16,16,16h16
		c0,8.836,7.164,16,16,16h32c8.836,0,16-7.164,16-16h16c8.836,0,16-7.164,16-16h16c8.836,0,16-7.164,16-16l0,0
		C288,39.163,280.836,32,272,32z"/>
	<path fill="#5FAA46" d="M440,112h-96c-8.836,0-16,7.164-16,16l0,0h-16c-8.836,0-16,7.164-16,16l0,0c0,8.836,7.164,16,16,16h16
		c0,8.836,7.164,16,16,16h32c8.836,0,16-7.164,16-16h16c8.836,0,16-7.164,16-16h16c8.836,0,16-7.164,16-16l0,0
		C456,119.164,448.836,112,440,112z"/>
	<g>
		<path fill="#A55023" d="M344,400h-32c-8.822,0-16-7.178-16-16V280c0-8.822,7.178-16,16-16h32c17.645,0,32-14.355,32-32
			c0-4.418-3.582-8-8-8s-8,3.582-8,8c0,8.822-7.178,16-16,16h-32c-5.828,0-11.289,1.58-16,4.313v-1l22.628-22.627
			c6.044-6.044,9.372-14.08,9.372-22.627V200c0-4.418-3.582-8-8-8s-8,3.582-8,8v6.059c0,4.273-1.664,8.292-4.687,11.313
			l-24.971,24.971c-1.5,1.5-2.343,3.535-2.343,5.657v-30.059c0-4.273,1.664-8.292,4.687-11.313l1.941-1.941
			c6.044-6.044,9.372-14.08,9.372-22.627V176c0-4.418-3.582-8-8-8s-8,3.582-8,8v6.059c0,4.273-1.664,8.292-4.687,11.313
			l-1.941,1.941c-6.044,6.044-9.372,14.08-9.372,22.627V248h-16v-30.059c0-8.547-3.328-16.583-9.372-22.627l-1.941-1.941
			c-3.022-3.022-4.687-7.04-4.687-11.313V176c0-4.418-3.582-8-8-8s-8,3.582-8,8v6.059c0,8.547,3.328,16.583,9.372,22.627
			l1.941,1.941c3.022,3.022,4.687,7.04,4.687,11.313V248c0-2.122-0.843-4.157-2.343-5.657l-24.971-24.971
			c-3.022-3.022-4.687-7.04-4.687-11.313V200c0-4.418-3.582-8-8-8s-8,3.582-8,8v6.059c0,8.547,3.328,16.583,9.372,22.627
			L216,251.313v1c-4.711-2.734-10.172-4.313-16-4.313h-32c-8.822,0-16-7.178-16-16c0-4.418-3.582-8-8-8s-8,3.582-8,8
			c0,17.645,14.355,32,32,32h32c8.822,0,16,7.178,16,16v120c0,4.418,3.582,8,8,8h32c4.411,0,8,3.589,8,8v30.059
			c0,8.547,3.328,16.583,9.372,22.627l1.941,1.941c3.022,3.022,4.687,7.04,4.687,11.313V488c0,4.418,3.582,8,8,8s8-3.582,8-8v-6.059
			c0-8.547-3.328-16.583-9.372-22.627l-1.941-1.941c-3.022-3.022-4.687-7.04-4.687-11.313V416c0,2.122,0.843,4.157,2.343,5.657
			l24.971,24.971c3.022,3.022,4.687,7.04,4.687,11.313V464c0,4.418,3.582,8,8,8s8-3.582,8-8v-6.059
			c0-8.547-3.328-16.583-9.372-22.627L296,412.687v-0.992c4.711,2.732,10.174,4.305,16,4.305h32c8.822,0,16,7.178,16,16
			c0,4.418,3.582,8,8,8s8-3.582,8-8C376,414.355,361.645,400,344,400z"/>
		<path fill="#D26E28" d="M248,288h-32v96c0,8.822-7.178,16-16,16h-32c-17.645,0-32,14.355-32,32c0,4.418,3.582,8,8,8s8-3.582,8-8
			c0-8.822,7.178-16,16-16h32c5.826,0,11.289-1.573,16-4.305v0.992l-22.628,22.627c-6.044,6.044-9.372,14.08-9.372,22.627V464
			c0,4.418,3.582,8,8,8s8-3.582,8-8v-6.059c0-4.273,1.664-8.292,4.687-11.313l24.971-24.971c1.5-1.5,2.343-3.535,2.343-5.657v30.059
			c0,4.273-1.664,8.292-4.687,11.313l-1.941,1.941c-6.044,6.044-9.372,14.08-9.372,22.627V488c0,4.418,3.582,8,8,8s8-3.582,8-8
			v-6.059c0-4.273,1.664-8.292,4.687-11.313l1.941-1.941c6.044-6.044,9.372-14.08,9.372-22.627V416c0-4.411,3.589-8,8-8
			c4.418,0,8-3.582,8-8v-96C264,295.164,256.836,288,248,288z"/>
	</g>
	<path fill="#5FAA46" d="M256,160h-88c8.836,0,16-7.164,16-16l0,0c0-8.836-7.164-16-16-16H80c-8.836,0-16,7.164-16,16l0,0H48
		c-8.836,0-16,7.164-16,16l0,0c0,8.836,7.164,16,16,16h16c0,8.836,7.164,16,16,16h176c8.836,0,16-7.164,16-16l0,0
		C272,167.164,264.836,160,256,160z"/>
	<g>
		<path fill="#91C83C" d="M176,64h-48c-8.837,0-16,7.163-16,16v0c0,8.837,7.163,16,16,16h48c8.837,0,16-7.163,16-16v0
			C192,71.163,184.837,64,176,64z"/>
	</g>
	<g>
		<path fill="#91C83C" d="M256,16h-48c-8.837,0-16,7.163-16,16v0c0,8.837,7.163,16,16,16h48c8.837,0,16-7.163,16-16v0
			C272,23.163,264.837,16,256,16z"/>
	</g>
	<g>
		<path fill="#91C83C" d="M368,48h-16c-8.837,0-16,7.163-16,16v0c0,8.837,7.163,16,16,16h16c8.837,0,16-7.163,16-16v0
			C384,55.163,376.837,48,368,48z"/>
	</g>
	<g>
		<path fill="#91C83C" d="M88,112H72c-8.837,0-16,7.163-16,16v0c0,8.837,7.163,16,16,16h16c8.837,0,16-7.163,16-16v0
			C104,119.163,96.837,112,88,112z"/>
	</g>
</g>
</svg>
