<?xml version="1.0" encoding="utf-8"?>
<!-- Generator: Adobe Illustrator 24.0.0, SVG Export Plug-In . SVG Version: 6.00 Build 0)  -->
<svg version="1.1" id="Layer_1" xmlns="http://www.w3.org/2000/svg" xmlns:xlink="http://www.w3.org/1999/xlink" x="0px" y="0px"
	 viewBox="0 0 512 512" enable-background="new 0 0 512 512" xml:space="preserve">
<g>
	<g>
		<g>
			<path fill="#D26E28" d="M384,456c-2.048,0-4.095-0.781-5.657-2.343l-56-56c-3.124-3.124-3.124-8.189,0-11.313
				c3.125-3.124,8.189-3.124,11.314,0l56,56c3.124,3.124,3.124,8.189,0,11.313C388.095,455.219,386.048,456,384,456z"/>
		</g>
		<g>
			<path fill="#D26E28" d="M136,456c-2.048,0-4.095-0.781-5.657-2.343c-3.124-3.124-3.124-8.189,0-11.313l56-56
				c3.125-3.124,8.189-3.124,11.314,0c3.124,3.124,3.124,8.189,0,11.313l-56,56C140.095,455.219,138.048,456,136,456z"/>
		</g>
		<g>
			<path fill="#463C4B" d="M184.001,388.001c-1.587,0-3.089-0.951-3.715-2.516l-16-40c-0.82-2.051,0.177-4.379,2.229-5.199
				c2.049-0.819,4.378,0.176,5.199,2.229l16,40c0.82,2.051-0.177,4.379-2.229,5.199
				C184.998,387.909,184.496,388.001,184.001,388.001z"/>
		</g>
		<g>
			<path fill="#463C4B" d="M327.999,388.001c-0.495,0-0.997-0.092-1.484-0.287c-2.052-0.82-3.049-3.148-2.229-5.199l16-40
				c0.821-2.052,3.149-3.048,5.199-2.229c2.052,0.82,3.049,3.148,2.229,5.199l-16,40
				C331.088,387.049,329.586,388.001,327.999,388.001z"/>
		</g>
		<g>
			<path fill="#A55023" d="M272,320v16c0,26.51,21.49,48,48,48h8c4.418,0,8,3.582,8,8v8c0,35.346-28.654,64-64,64h-16V320H272z"/>
		</g>
		<g>
			<path fill="#A55023" d="M240,320v16c0,26.51-21.49,48-48,48h-8c-4.418,0-8,3.582-8,8v8c0,35.346,28.654,64,64,64h16V320H240z"/>
		</g>
		<g>
			<path fill="#F04B37" d="M328,72h-64V16h64c4.418,0,8,3.582,8,8v40C336,68.418,332.418,72,328,72z"/>
		</g>
		<g>
			<path fill="#555A6E" d="M400,104H112c-4.418,0-8-3.582-8-8v0c0-4.418,3.582-8,8-8h288c4.418,0,8,3.582,8,8v0
				C408,100.418,404.418,104,400,104z"/>
		</g>
		<g>
			<path fill="#555A6E" d="M264,88h-16V16c0-4.418,3.582-8,8-8h0c4.418,0,8,3.582,8,8V88z"/>
		</g>
		<g>
			<path fill="#F04B37" d="M112,104v112.804c0,50.708,20.144,99.34,56,135.196l0,0l43.648-27.28
				C224.948,316.408,240.316,312,256,312h0c15.684,0,31.052,4.408,44.352,12.72L344,352l0,0c35.856-35.856,56-84.488,56-135.196V104
				H112z"/>
		</g>
		<g>
			<path fill="#D7E6F0" d="M330.574,343.609C354.612,308.739,368,263.663,368,216.804V104H144v112.804
				c0,46.859,13.388,91.935,37.426,126.805l30.222-18.889C224.948,316.407,240.316,312,256,312s31.052,4.407,44.352,12.72
				L330.574,343.609z"/>
		</g>
		<g>
			<path fill="#F04B37" d="M314.012,333.258C328.189,300.04,336,259.151,336,216.804V104H176v112.804
				c0,42.347,7.811,83.236,21.988,116.453l13.66-8.538C224.948,316.407,240.316,312,256,312s31.052,4.407,44.352,12.72
				L314.012,333.258z"/>
		</g>
		<g>
			<path fill="#D7E6F0" d="M304,216.804V104h-96v112.804c0,37.27,3.634,73.405,10.303,104.181C229.963,315.101,242.869,312,256,312
				s26.037,3.101,37.697,8.985C300.366,290.209,304,254.074,304,216.804z"/>
		</g>
		<g>
			<path fill="#F04B37" d="M272,216.804V104h-32v112.804c0,34.115,1.018,67.266,2.895,96.24C247.212,312.357,251.593,312,256,312
				s8.788,0.357,13.105,1.044C270.982,284.071,272,250.92,272,216.804z"/>
		</g>
		<g>
			<rect x="112" y="104" fill="#E1322D" width="32" height="16"/>
		</g>
		<g>
			<rect x="144" y="104" fill="#A5C3DC" width="32" height="16"/>
		</g>
		<g>
			<rect x="176" y="104" fill="#E1322D" width="32" height="16"/>
		</g>
		<g>
			<rect x="208" y="104" fill="#A5C3DC" width="32" height="16"/>
		</g>
		<g>
			<rect x="240" y="104" fill="#E1322D" width="32" height="16"/>
		</g>
		<g>
			<rect x="272" y="104" fill="#A5C3DC" width="32" height="16"/>
		</g>
		<g>
			<rect x="304" y="104" fill="#E1322D" width="32" height="16"/>
		</g>
		<g>
			<rect x="336" y="104" fill="#A5C3DC" width="32" height="16"/>
		</g>
		<g>
			<rect x="368" y="104" fill="#E1322D" width="32" height="16"/>
		</g>
		<g>
			<rect x="264" y="16" fill="#E1322D" width="8" height="56"/>
		</g>
		<g>
			<path fill="#D26E28" d="M264,464h-16c-4.418,0-8-3.582-8-8V248c0-4.418,3.582-8,8-8h16c4.418,0,8,3.582,8,8v208
				C272,460.418,268.418,464,264,464z"/>
		</g>
		<g>
			<path fill="#F5871E" d="M264,288h-16c-4.418,0-8-3.582-8-8v-32c0-4.418,3.582-8,8-8h16c4.418,0,8,3.582,8,8v32
				C272,284.418,268.418,288,264,288z"/>
		</g>
	</g>
	<g>
		<g>
			<path fill="#5AD7FF" d="M496,448c-15.003,0-15.003,16-30.006,16c-15.003,0-15.003-16-30.006-16c-15.001,0-15.001,16-30.002,16
				c-15.002,0-15.002-16-30.003-16c-15.001,0-15.001,16-30.002,16c-15.001,0-15.001-16-30.001-16c-14.999,0-14.999,16-29.998,16
				c-14.999,0-14.999-16-29.997-16c-14.997,0-14.997,16-29.994,16c-15,0-15-16-30-16c-14.999,0-14.999,16-29.999,16
				c-14.999,0-14.999-16-29.998-16c-14.999,0-14.999,16-29.997,16c-14.999,0-14.999-16-29.999-16C60.998,448,60.998,464,46,464
				c-15,0-15-16-30-16v32c0,8.837,7.163,16,16,16h448c8.837,0,16-7.163,16-16V448z"/>
		</g>
		<g>
			<path fill="#23AAE6" d="M465.993,472c-10.967,0-16.673-6.085-20.839-10.528c-3.558-3.794-5.294-5.472-9.167-5.472
				c-3.871,0-5.607,1.677-9.165,5.472c-4.166,4.443-9.871,10.528-20.838,10.528c-10.966,0-16.671-6.085-20.837-10.528
				c-3.558-3.794-5.294-5.472-9.166-5.472s-5.607,1.678-9.165,5.472C362.65,465.915,356.945,472,345.979,472
				c-10.967,0-16.672-6.085-20.837-10.529c-3.558-3.794-5.293-5.471-9.164-5.471c-3.87,0-5.605,1.677-9.162,5.471
				C302.65,465.915,296.946,472,285.98,472s-16.67-6.085-20.836-10.529c-3.556-3.794-5.291-5.471-9.161-5.471
				c-3.869,0-5.604,1.677-9.16,5.471c-4.165,4.443-9.869,10.529-20.834,10.529c-10.966,0-16.671-6.085-20.836-10.528
				c-3.558-3.794-5.293-5.472-9.164-5.472c-3.87,0-5.605,1.677-9.162,5.471C182.661,465.915,176.956,472,165.99,472
				s-16.67-6.085-20.836-10.529c-3.557-3.794-5.292-5.471-9.162-5.471s-5.605,1.677-9.161,5.471
				c-4.166,4.443-9.87,10.529-20.836,10.529s-16.67-6.085-20.836-10.529c-3.557-3.794-5.292-5.471-9.162-5.471
				s-5.605,1.677-9.162,5.471C62.669,465.915,56.965,472,46,472c-10.966,0-16.671-6.085-20.836-10.528
				C21.606,457.677,19.871,456,16,456v-16c10.966,0,16.671,6.085,20.836,10.528C40.394,454.323,42.129,456,46,456
				c3.87,0,5.605-1.677,9.161-5.471C59.327,446.085,65.031,440,75.997,440s16.67,6.085,20.836,10.529
				c3.557,3.794,5.292,5.471,9.162,5.471s5.606-1.677,9.162-5.471c4.166-4.443,9.87-10.529,20.835-10.529
				c10.966,0,16.67,6.085,20.836,10.529c3.557,3.794,5.292,5.471,9.162,5.471c3.871,0,5.606-1.677,9.164-5.472
				c4.165-4.443,9.869-10.528,20.835-10.528s16.671,6.085,20.836,10.528c3.558,3.794,5.293,5.472,9.164,5.472
				c3.869,0,5.604-1.677,9.16-5.471c4.165-4.443,9.869-10.529,20.834-10.529s16.669,6.085,20.835,10.529
				c3.556,3.794,5.292,5.471,9.162,5.471s5.605-1.677,9.162-5.471c4.166-4.443,9.87-10.529,20.836-10.529
				s16.671,6.085,20.836,10.528c3.558,3.794,5.293,5.472,9.165,5.472s5.607-1.678,9.165-5.472
				c4.166-4.443,9.871-10.528,20.837-10.528c10.967,0,16.672,6.085,20.838,10.528c3.558,3.794,5.293,5.472,9.165,5.472
				s5.608-1.678,9.166-5.472c4.166-4.443,9.871-10.528,20.837-10.528c10.967,0,16.673,6.085,20.839,10.528
				c3.558,3.794,5.294,5.472,9.167,5.472s5.61-1.678,9.168-5.473C479.327,446.085,485.033,440,496,440v16
				c-3.873,0-5.609,1.678-9.167,5.472C482.666,465.915,476.961,472,465.993,472z"/>
		</g>
	</g>
</g>
</svg>
