<?xml version="1.0" encoding="utf-8"?>
<!-- Generator: Adobe Illustrator 24.0.0, SVG Export Plug-In . SVG Version: 6.00 Build 0)  -->
<svg version="1.1" id="Layer_1" xmlns="http://www.w3.org/2000/svg" xmlns:xlink="http://www.w3.org/1999/xlink" x="0px" y="0px"
	 viewBox="0 0 512 512" enable-background="new 0 0 512 512" xml:space="preserve">
<g>
	<g>
		<path fill="#F5826E" d="M368,312L368,312c0-13.255,10.745-24,24-24h8v32h-24C371.582,320,368,316.418,368,312z"/>
	</g>
	<g>
		<path fill="#F5826E" d="M360,288L360,288c-13.255,0-24-10.745-24-24v-8h32v24C368,284.418,364.418,288,360,288z"/>
	</g>
	<g>
		<path fill="#F5826E" d="M289.775,265.539L289.775,265.539c-9.373-9.373-9.373-24.569,0-33.941l5.657-5.657l22.627,22.627
			l-16.971,16.971C297.964,268.663,292.899,268.663,289.775,265.539z"/>
	</g>
	<g>
		<path fill="#F5826E" d="M256,200L256,200c0-13.255,10.745-24,24-24h8v32h-24C259.582,208,256,204.418,256,200z"/>
	</g>
	<g>
		<path fill="#E1322D" d="M368,192h-16v-40h-32v-32h64c4.418,0,8-3.582,8-8V96c0-4.418-3.582-8-8-8h-40c-4.418,0-8-3.582-8-8
			s-3.582-8-8-8h-56v120c0,44.183,35.817,80,80,80h16c8.837,0,16,7.164,16,16v168h80V288C464,234.98,421.019,192,368,192z"/>
	</g>
	<g>
		<path fill="#F5826E" d="M368,192L368,192c-8.837,0-16-7.164-16-16v-24h-32v24c0,8.836,7.163,16,16,16h0c53.019,0,96,42.98,96,96
			v168h32V288C464,234.98,421.019,192,368,192z"/>
	</g>
	<g>
		<path fill="#F5826E" d="M280,328L280,328c0,13.255-10.745,24-24,24h-8v-32h24C276.418,320,280,323.582,280,328z"/>
	</g>
	<g>
		<path fill="#F5826E" d="M257.779,261.072L257.779,261.072c6.627,11.479,2.694,26.157-8.785,32.785l-6.928,4l-16-27.713l20.785-12
			C250.678,255.934,255.57,257.245,257.779,261.072z"/>
	</g>
	<g>
		<path fill="#F5826E" d="M205.072,214.221L205.072,214.221c11.479,6.627,15.412,21.306,8.785,32.785l-4,6.928l-27.713-16l12-20.785
			C196.353,213.322,201.245,212.011,205.072,214.221z"/>
	</g>
	<g>
		<path fill="#F5826E" d="M136,200L136,200c13.255,0,24,10.745,24,24v8h-32v-24C128,203.582,131.582,200,136,200z"/>
	</g>
	<g>
		<path fill="#F5826E" d="M69.072,222.221L69.072,222.221c11.479-6.627,26.157-2.694,32.785,8.785l4,6.928l-27.713,16l-12-20.785
			C63.934,229.322,65.245,224.43,69.072,222.221z"/>
	</g>
	<g>
		<path fill="#F5826E" d="M22.221,274.928L22.221,274.928c6.627-11.479,21.306-15.412,32.785-8.785l6.928,4l-16,27.713l-20.785-12
			C21.322,283.647,20.011,278.755,22.221,274.928z"/>
	</g>
	<g>
		<path fill="#F5826E" d="M8,344L8,344c0-13.255,10.745-24,24-24h8v32H16C11.582,352,8,348.418,8,344z"/>
	</g>
	<g>
		<path fill="#F5826E" d="M368,376L368,376c0-13.255,10.745-24,24-24h8v32h-24C371.582,384,368,380.418,368,376z"/>
	</g>
	<g>
		<path fill="#E1322D" d="M264,400h-80v-64c0-22.056-17.944-40-40-40s-40,17.944-40,40v64H24v-64c0-66.168,53.832-120,120-120
			s120,53.832,120,120V400z"/>
	</g>
	<g>
		<path fill="#F04B37" d="M144,216L144,216c-66.274,0-120,53.726-120,120v64h40v-64c0-44.183,35.817-80,80-80l0,0
			c11.046,0,20-8.954,20-20S155.046,216,144,216z"/>
	</g>
	<g>
		<path fill="#8C1E14" d="M272,152h-32l0,0c0-2.946,2.388-5.333,5.333-5.333h0c5.891,0,10.667-4.776,10.667-10.667v0
			c0-5.891-4.776-10.667-10.667-10.667h0c-2.946,0-5.333-2.388-5.333-5.333v0c0-2.946,2.388-5.333,5.333-5.333h0
			c5.891,0,10.667-4.776,10.667-10.667v0c0-5.891-4.776-10.667-10.667-10.667h0c-2.946,0-5.333-2.388-5.333-5.333v0
			c0-2.946,2.388-5.333,5.333-5.333h0C251.224,82.667,256,77.891,256,72v0c0-5.891-4.776-10.667-10.667-10.667h0
			c-2.946,0-5.333-2.388-5.333-5.333v0h16c8.837,0,16,7.163,16,16V152z"/>
	</g>
	<g>
		<path fill="#F06423" d="M320,40h-44c-2.209,0-4-1.791-4-4v0c0-2.209-1.791-4-4-4l0,0c-2.209,0-4,1.791-4,4v4
			c0,8.837,7.163,16,16,16h32v19.602c0,6.607,5.169,12.275,11.775,12.396C330.506,88.121,336,82.702,336,76V56
			C336,47.163,328.837,40,320,40z"/>
	</g>
	<g>
		<path fill="#F04B37" d="M336,136v-16c0-8.836-7.163-16-16-16s-16,7.164-16,16v16c0,8.836,7.163,16,16,16h56
			c8.837,0,16-7.164,16-16H336z"/>
	</g>
	<g>
		<path fill="#8C1E14" d="M368,120c-4.418,0-8,3.582-8,8s3.582,8,8,8h-32v-16H368z"/>
	</g>
	<g>
		<path fill="#F04B37" d="M400,416h-16V288h0c8.837,0,16,7.163,16,16V416z"/>
	</g>
	<g>
		<path fill="#5AD7FF" d="M496,384c-15.003,0-15.003,16-30.006,16c-15.003,0-15.003-16-30.006-16c-15.001,0-15.001,16-30.002,16
			c-15.002,0-15.002-16-30.003-16c-15.001,0-15.001,16-30.002,16c-15.001,0-15.001-16-30.001-16c-14.999,0-14.999,16-29.998,16
			c-14.999,0-14.999-16-29.997-16c-14.997,0-14.997,16-29.994,16c-15,0-15-16-30-16c-14.999,0-14.999,16-29.999,16
			c-14.999,0-14.999-16-29.998-16c-14.999,0-14.999,16-29.997,16c-14.999,0-14.999-16-29.999-16C60.998,384,60.998,400,46,400
			c-15,0-15-16-30-16v80c0,8.837,7.163,16,16,16h448c8.837,0,16-7.163,16-16V384z"/>
	</g>
	<g>
		<path fill="#23AAE6" d="M465.993,408c-10.967,0-16.673-6.085-20.839-10.528c-3.558-3.794-5.294-5.472-9.167-5.472
			c-3.871,0-5.607,1.677-9.165,5.472c-4.166,4.443-9.871,10.528-20.838,10.528c-10.966,0-16.671-6.085-20.837-10.528
			c-3.558-3.794-5.294-5.472-9.166-5.472s-5.607,1.678-9.165,5.472C362.65,401.915,356.945,408,345.979,408
			c-10.967,0-16.672-6.085-20.837-10.529c-3.558-3.794-5.293-5.471-9.164-5.471c-3.87,0-5.605,1.677-9.162,5.471
			C302.65,401.915,296.946,408,285.98,408s-16.67-6.085-20.836-10.529c-3.556-3.794-5.291-5.471-9.161-5.471
			c-3.869,0-5.604,1.677-9.16,5.471c-4.165,4.443-9.869,10.529-20.834,10.529c-10.966,0-16.671-6.085-20.836-10.528
			c-3.557-3.794-5.292-5.472-9.164-5.472c-3.871,0-5.606,1.677-9.163,5.472c-4.166,4.443-9.87,10.528-20.835,10.528
			s-16.67-6.085-20.835-10.529c-3.557-3.794-5.292-5.471-9.163-5.471s-5.606,1.677-9.163,5.471
			c-4.165,4.443-9.87,10.529-20.835,10.529s-16.67-6.085-20.835-10.528c-3.557-3.794-5.292-5.472-9.163-5.472
			c-3.87,0-5.605,1.677-9.162,5.471C62.669,401.915,56.965,408,46,408c-10.966,0-16.67-6.085-20.836-10.528
			C21.607,393.677,19.871,392,16,392v-16c10.966,0,16.671,6.085,20.836,10.529C40.393,390.323,42.129,392,46,392
			c3.87,0,5.605-1.677,9.162-5.471C59.327,382.085,65.031,376,75.997,376c10.966,0,16.67,6.085,20.836,10.529
			c3.557,3.794,5.292,5.471,9.163,5.471c3.87,0,5.605-1.677,9.162-5.471c4.165-4.443,9.87-10.529,20.835-10.529
			c10.965,0,16.67,6.085,20.835,10.529c3.557,3.794,5.292,5.471,9.163,5.471c3.87,0,5.606-1.677,9.163-5.471
			c4.166-4.443,9.87-10.529,20.836-10.529s16.671,6.085,20.836,10.528c3.557,3.794,5.292,5.472,9.164,5.472
			c3.869,0,5.604-1.677,9.16-5.471c4.165-4.443,9.869-10.529,20.834-10.529s16.669,6.085,20.835,10.529
			c3.556,3.794,5.292,5.471,9.162,5.471s5.605-1.677,9.162-5.471c4.166-4.443,9.87-10.529,20.836-10.529s16.671,6.085,20.836,10.528
			c3.558,3.794,5.293,5.472,9.165,5.472s5.607-1.678,9.165-5.472c4.166-4.443,9.871-10.528,20.837-10.528
			c10.967,0,16.672,6.085,20.838,10.528c3.558,3.794,5.293,5.472,9.165,5.472s5.608-1.678,9.166-5.472
			c4.166-4.443,9.871-10.528,20.837-10.528c10.967,0,16.673,6.085,20.839,10.528c3.558,3.794,5.294,5.472,9.167,5.472
			s5.61-1.678,9.168-5.473C479.327,382.085,485.033,376,496,376v16c-3.873,0-5.609,1.678-9.167,5.472
			C482.666,401.915,476.961,408,465.993,408z"/>
	</g>
	<g>
		<path fill="#23AAE6" d="M465.993,448c-10.967,0-16.673-6.085-20.839-10.528c-3.558-3.794-5.294-5.472-9.167-5.472
			c-3.871,0-5.607,1.677-9.165,5.472c-4.166,4.443-9.871,10.528-20.838,10.528c-10.966,0-16.671-6.085-20.837-10.528
			c-3.558-3.794-5.294-5.472-9.166-5.472s-5.607,1.678-9.165,5.472C362.65,441.915,356.945,448,345.979,448
			c-10.967,0-16.672-6.085-20.837-10.529c-3.558-3.794-5.293-5.471-9.164-5.471c-3.87,0-5.605,1.677-9.162,5.471
			C302.65,441.915,296.946,448,285.98,448s-16.67-6.085-20.836-10.529c-3.556-3.794-5.291-5.471-9.161-5.471
			c-3.869,0-5.604,1.677-9.16,5.471c-4.165,4.443-9.869,10.529-20.834,10.529c-10.966,0-16.671-6.085-20.836-10.528
			c-3.557-3.794-5.292-5.472-9.164-5.472c-3.871,0-5.606,1.677-9.163,5.472c-4.166,4.443-9.87,10.528-20.835,10.528
			s-16.67-6.085-20.835-10.529c-3.557-3.794-5.292-5.471-9.163-5.471s-5.606,1.677-9.163,5.471
			c-4.165,4.443-9.87,10.529-20.835,10.529s-16.67-6.085-20.835-10.528c-3.557-3.794-5.292-5.472-9.163-5.472
			c-3.87,0-5.605,1.677-9.162,5.471C62.669,441.915,56.965,448,46,448c-10.966,0-16.67-6.085-20.836-10.528
			C21.607,433.677,19.871,432,16,432v-16c10.966,0,16.671,6.085,20.836,10.529C40.393,430.323,42.129,432,46,432
			c3.87,0,5.605-1.677,9.162-5.471C59.327,422.085,65.031,416,75.997,416c10.966,0,16.67,6.085,20.836,10.529
			c3.557,3.794,5.292,5.471,9.163,5.471c3.87,0,5.605-1.677,9.162-5.471c4.165-4.443,9.87-10.529,20.835-10.529
			c10.965,0,16.67,6.085,20.835,10.529c3.557,3.794,5.292,5.471,9.163,5.471c3.87,0,5.606-1.677,9.163-5.471
			c4.166-4.443,9.87-10.529,20.836-10.529s16.671,6.085,20.836,10.528c3.557,3.794,5.292,5.472,9.164,5.472
			c3.869,0,5.604-1.677,9.16-5.471c4.165-4.443,9.869-10.529,20.834-10.529s16.669,6.085,20.835,10.529
			c3.556,3.794,5.292,5.471,9.162,5.471s5.605-1.677,9.162-5.471c4.166-4.443,9.87-10.529,20.836-10.529s16.671,6.085,20.836,10.528
			c3.558,3.794,5.293,5.472,9.165,5.472s5.607-1.678,9.165-5.472c4.166-4.443,9.871-10.528,20.837-10.528
			c10.967,0,16.672,6.085,20.838,10.528c3.558,3.794,5.293,5.472,9.165,5.472s5.608-1.678,9.166-5.472
			c4.166-4.443,9.871-10.528,20.837-10.528c10.967,0,16.673,6.085,20.839,10.528c3.558,3.794,5.294,5.472,9.167,5.472
			s5.61-1.678,9.168-5.473C479.327,422.085,485.033,416,496,416v16c-3.873,0-5.609,1.678-9.167,5.472
			C482.666,441.915,476.961,448,465.993,448z"/>
	</g>
	<g>
		<path fill="#F04B37" d="M280,200L280,200c-4.418,0-8-3.582-8-8V72h16v120C288,196.418,284.418,200,280,200z"/>
	</g>
	<g>
		<path fill="#FAA019" d="M280,40h-44c-2.209,0-4-1.791-4-4v0c0-2.209-1.791-4-4-4l0,0c-2.209,0-4,1.791-4,4v4
			c0,8.837,7.163,16,16,16h32v19.602c0,6.607,5.169,12.275,11.775,12.396C290.506,88.121,296,82.702,296,76V56
			C296,47.163,288.837,40,280,40z"/>
	</g>
</g>
</svg>
