<?xml version="1.0" encoding="utf-8"?>
<!-- Generator: Adobe Illustrator 24.0.0, SVG Export Plug-In . SVG Version: 6.00 Build 0)  -->
<svg version="1.1" id="Layer_1" xmlns="http://www.w3.org/2000/svg" xmlns:xlink="http://www.w3.org/1999/xlink" x="0px" y="0px"
	 viewBox="0 0 512 512" enable-background="new 0 0 512 512" xml:space="preserve">
<g>
	<g>
		<rect x="80" y="384" fill="#A55023" width="16" height="112"/>
	</g>
	<g>
		<path fill="#FAB991" d="M392,128H168v192h112v-32h64c26.51,0,48-21.49,48-48V128z"/>
	</g>
	<g>
		<path fill="#F0915A" d="M200,288h80v32H168v0C168,302.327,182.327,288,200,288z"/>
	</g>
	<g>
		<path fill="#463C4B" d="M216,272h-48c-8.837,0-16-7.163-16-16V128h96v112C248,257.673,233.673,272,216,272z"/>
	</g>
	<g>
		<path fill="#F0915A" d="M368,320H144c-26.51,0-48,21.49-48,48v128h320V368C416,341.49,394.51,320,368,320z"/>
	</g>
	<g>
		<path fill="#A55023" d="M368,272h-64c-2.711,0-5.377,0.188-8,0.516c31.567,3.94,56,30.85,56,63.484v64h64c8.836,0,16-7.163,16-16
			v-48C432,300.654,403.346,272,368,272z"/>
	</g>
	<g>
		<path fill="#D26E28" d="M304,272L304,272c-2.711,0-5.377,0.188-8,0.516c31.567,3.94,56,30.85,56,63.484v64c8.836,0,16-7.163,16-16
			v-48C368,300.654,339.346,272,304,272z"/>
	</g>
	<g>
		<path fill="#FAB991" d="M144,320L144,320c-26.51,0-48,21.49-48,48v128h96V368C192,341.49,170.51,320,144,320z"/>
	</g>
	<g>
		<path fill="#F0915A" d="M248,160v80c-22.091,0-40-17.909-40-40C208,177.909,225.909,160,248,160z"/>
	</g>
	<g>
		<path fill="#463C4B" d="M248,128v192c0,8.837,7.163,16,16,16h112c8.837,0,16-7.163,16-16v-96c0-8.837-7.163-16-16-16h-56
			c-8.837,0-16,7.163-16,16v0h-8c-8.837,0-16-7.163-16-16v-80H248z"/>
	</g>
	<g>
		<path fill="#555A6E" d="M376,208h-56c-8.837,0-16,7.163-16,16v96c0,8.837,7.163,16,16,16h0c4.418,0,8-3.582,8-8v-80
			c0-4.418,3.582-8,8-8h24c4.418,0,8,3.582,8,8v80c0,4.418,3.582,8,8,8h0c8.837,0,16-7.163,16-16v-96
			C392,215.163,384.837,208,376,208z"/>
	</g>
	<g>
		<path fill="#F0915A" d="M352,224L352,224c-8.837,0-16-7.163-16-16v-32h0c17.673,0,32,14.327,32,32v0
			C368,216.837,360.837,224,352,224z"/>
	</g>
	<g>
		<path fill="#F0915A" d="M360,240h-24c-4.418,0-8,3.582-8,8v0c0,4.418,3.582,8,8,8h24c4.418,0,8-3.582,8-8v0
			C368,243.582,364.418,240,360,240z"/>
	</g>
	<g>
		<path fill="#D7E6F0" d="M144,80v48c0,17.673,14.327,32,32,32h40c17.673,0,32-14.327,32-32v0h144c8.837,0,16-7.163,16-16V64
			c0-8.837-7.163-16-16-16h-56v0c0-17.673-14.327-32-32-32h-96C172.654,16,144,44.654,144,80z"/>
	</g>
	<g>
		<rect x="280" y="128" fill="#F0915A" width="112" height="32"/>
	</g>
	<g>
		<path fill="#463C4B" d="M256,48h-32c-8.837,0-16-7.163-16-16v0c0-8.837,7.163-16,16-16h32c8.837,0,16,7.163,16,16v0
			C272,40.837,264.837,48,256,48z"/>
	</g>
	<g>
		<path fill="#463C4B" d="M320,48h16v0c0-14.387-9.495-26.555-22.56-30.583C307.878,19.923,304,25.504,304,32v0
			C304,40.837,311.164,48,320,48z"/>
	</g>
	<g>
		<path fill="#A5C3DC" d="M400,72L400,72c4.418,0,8-3.582,8-8v0c0-8.837-7.163-16-16-16h0c-4.418,0-8,3.582-8,8v0
			C384,64.837,391.163,72,400,72z"/>
	</g>
	<g>
		<path fill="#A5C3DC" d="M356,72h-8c-6.627,0-12-5.373-12-12v0c0-6.627,5.373-12,12-12h8c6.627,0,12,5.373,12,12v0
			C368,66.627,362.627,72,356,72z"/>
	</g>
	<g>
		<g>
			<path fill="#463C4B" d="M120,48V24c0-4.418-3.582-8-8-8h0c-13.255,0-24,10.745-24,24v40c0,8.837,7.163,16,16,16h64
				c13.255,0,24-10.745,24-24v0c0-13.255-10.745-24-24-24H120z"/>
		</g>
		<g>
			<path fill="#555A6E" d="M192,72h-72V48h48C181.255,48,192,58.745,192,72L192,72z"/>
		</g>
	</g>
	<g>
		<path fill="#A55023" d="M208,272h-64c-35.346,0-64,28.654-64,64v48c0,8.837,7.163,16,16,16h160c8.837,0,16-7.163,16-16v-48
			C272,300.654,243.346,272,208,272z"/>
	</g>
	<g>
		<path fill="#D26E28" d="M144,272L144,272c-35.346,0-64,28.654-64,64v48c0,8.837,7.163,16,16,16h96c8.837,0,16-7.163,16-16v-48
			C208,300.654,179.346,272,144,272z"/>
	</g>
	<g>
		<rect x="96" y="400" fill="#F0915A" width="96" height="16"/>
	</g>
	<g>
		<g>
			<path fill="#A5C3DC" d="M309.124,376.101c-20.048,1.402-36.124,17.876-37.077,37.95c-0.959,20.209,13.086,37.317,31.954,41.148
				V456c0,4.418,3.582,8,8,8h36c2.209,0,4-1.791,4-4v-44C352,392.957,332.516,374.465,309.124,376.101z"/>
		</g>
		<g>
			<circle fill="#463C4B" cx="316" cy="420" r="12"/>
		</g>
		<g>
			<path fill="#463C4B" d="M338.667,420c0,6.627,5.373,12,12,12c0.451,0,0.895-0.03,1.333-0.078V416c0-2.73-0.276-5.396-0.797-7.973
				c-0.179-0.008-0.355-0.027-0.536-0.027C344.039,408,338.667,413.373,338.667,420z"/>
		</g>
		<g>
			<path fill="#D7E6F0" d="M272,416h24c8.837,0,16-7.163,16-16v-24h0C289.909,376,272,393.909,272,416L272,416z"/>
		</g>
		<g>
			<path fill="#555A6E" d="M344,456L344,456c1.473,0,2.667,1.194,2.667,2.667V464h-5.333v-5.333
				C341.333,457.194,342.527,456,344,456z"/>
		</g>
		<g>
			<path fill="#555A6E" d="M317.333,456L317.333,456c1.473,0,2.667,1.194,2.667,2.667V464h-5.333v-5.333
				C314.667,457.194,315.861,456,317.333,456z"/>
		</g>
		<g>
			<path fill="#555A6E" d="M330.667,456L330.667,456c1.473,0,2.667,1.194,2.667,2.667V464H328v-5.333
				C328,457.194,329.194,456,330.667,456z"/>
		</g>
	</g>
	<g>
		<path fill="#A5C3DC" d="M408,112H264c-8.837,0-16,7.163-16,16v0h144C400.837,128,408,120.837,408,112L408,112z"/>
	</g>
</g>
</svg>
