<?xml version="1.0" encoding="utf-8"?>
<!-- Generator: Adobe Illustrator 24.0.0, SVG Export Plug-In . SVG Version: 6.00 Build 0)  -->
<svg version="1.1" id="Layer_1" xmlns="http://www.w3.org/2000/svg" xmlns:xlink="http://www.w3.org/1999/xlink" x="0px" y="0px"
	 viewBox="0 0 512 512" enable-background="new 0 0 512 512" xml:space="preserve">
<g>
	<g>
		<g>
			<path fill="#A5C3DC" d="M352,16h-16c-79.529,0-144,64.471-144,144v0c0,79.529,64.471,144,144,144h16c79.529,0,144-64.471,144-144
				v0C496,80.471,431.529,16,352,16z"/>
		</g>
		<g>
			<circle fill="#D7E6F0" cx="336" cy="160" r="144"/>
		</g>
		<g>
			<circle fill="#E1322D" cx="336" cy="160" r="112"/>
		</g>
		<g>
			<rect x="320" y="32" fill="#D7E6F0" width="32" height="256"/>
		</g>
		<g>
			<rect x="208" y="144" fill="#D7E6F0" width="256" height="32"/>
		</g>
		<g>
			<g>
				<circle fill="#555A6E" cx="336" cy="64" r="8"/>
			</g>
			<g>
				<circle fill="#555A6E" cx="336" cy="112" r="8"/>
			</g>
			<g>
				<circle fill="#555A6E" cx="336" cy="160" r="8"/>
			</g>
			<g>
				<circle fill="#555A6E" cx="288" cy="160" r="8"/>
			</g>
			<g>
				<circle fill="#555A6E" cx="240" cy="160" r="8"/>
			</g>
			<g>
				<circle fill="#555A6E" cx="432" cy="160" r="8"/>
			</g>
			<g>
				<circle fill="#555A6E" cx="384" cy="160" r="8"/>
			</g>
			<g>
				<circle fill="#555A6E" cx="336" cy="256" r="8"/>
			</g>
			<g>
				<circle fill="#555A6E" cx="336" cy="208" r="8"/>
			</g>
		</g>
	</g>
	<g>
		<g>
			<path fill="#A5C3DC" d="M352,208h-16c-79.529,0-144,64.471-144,144v0c0,79.529,64.471,144,144,144h16
				c79.529,0,144-64.471,144-144v0C496,272.471,431.529,208,352,208z"/>
		</g>
		<g>
			<circle fill="#D7E6F0" cx="336" cy="352" r="144"/>
		</g>
		<g>
			<circle fill="#D26E28" cx="336" cy="352" r="112"/>
		</g>
		<g>
			<rect x="320" y="224" fill="#D7E6F0" width="32" height="256"/>
		</g>
		<g>
			<rect x="208" y="336" fill="#D7E6F0" width="256" height="32"/>
		</g>
		<g>
			<g>
				<circle fill="#555A6E" cx="336" cy="256" r="8"/>
			</g>
			<g>
				<circle fill="#555A6E" cx="336" cy="304" r="8"/>
			</g>
			<g>
				<circle fill="#555A6E" cx="336" cy="352" r="8"/>
			</g>
			<g>
				<circle fill="#555A6E" cx="288" cy="352" r="8"/>
			</g>
			<g>
				<circle fill="#555A6E" cx="240" cy="352" r="8"/>
			</g>
			<g>
				<circle fill="#555A6E" cx="432" cy="352" r="8"/>
			</g>
			<g>
				<circle fill="#555A6E" cx="384" cy="352" r="8"/>
			</g>
			<g>
				<circle fill="#555A6E" cx="336" cy="448" r="8"/>
			</g>
			<g>
				<circle fill="#555A6E" cx="336" cy="400" r="8"/>
			</g>
		</g>
	</g>
	<g>
		<g>
			<path fill="#A5C3DC" d="M176,208h-16c-79.529,0-144,64.471-144,144v0c0,79.529,64.471,144,144,144h16
				c79.529,0,144-64.471,144-144v0C320,272.471,255.529,208,176,208z"/>
		</g>
		<g>
			<circle fill="#D7E6F0" cx="160" cy="352" r="144"/>
		</g>
		<g>
			<circle fill="#FAA019" cx="160" cy="352" r="112"/>
		</g>
		<g>
			<rect x="144" y="224" fill="#D7E6F0" width="32" height="256"/>
		</g>
		<g>
			<rect x="32" y="336" fill="#D7E6F0" width="256" height="32"/>
		</g>
		<g>
			<g>
				<circle fill="#555A6E" cx="160" cy="256" r="8"/>
			</g>
			<g>
				<circle fill="#555A6E" cx="160" cy="304" r="8"/>
			</g>
			<g>
				<circle fill="#555A6E" cx="160" cy="352" r="8"/>
			</g>
			<g>
				<circle fill="#555A6E" cx="112" cy="352" r="8"/>
			</g>
			<g>
				<circle fill="#555A6E" cx="64" cy="352" r="8"/>
			</g>
			<g>
				<circle fill="#555A6E" cx="256" cy="352" r="8"/>
			</g>
			<g>
				<circle fill="#555A6E" cx="208" cy="352" r="8"/>
			</g>
			<g>
				<circle fill="#555A6E" cx="160" cy="448" r="8"/>
			</g>
			<g>
				<circle fill="#555A6E" cx="160" cy="400" r="8"/>
			</g>
		</g>
	</g>
	<g>
		<g>
			<path fill="#A5C3DC" d="M176,16h-16C80.471,16,16,80.471,16,160v0c0,79.529,64.471,144,144,144h16c79.529,0,144-64.471,144-144v0
				C320,80.471,255.529,16,176,16z"/>
		</g>
		<g>
			<circle fill="#D7E6F0" cx="160" cy="160" r="144"/>
		</g>
		<g>
			<circle fill="#D26E28" cx="160" cy="160" r="112"/>
		</g>
		<g>
			<rect x="144" y="32" fill="#D7E6F0" width="32" height="256"/>
		</g>
		<g>
			<rect x="32" y="144" fill="#D7E6F0" width="256" height="32"/>
		</g>
		<g>
			<g>
				<circle fill="#555A6E" cx="160" cy="64" r="8"/>
			</g>
			<g>
				<circle fill="#555A6E" cx="160" cy="112" r="8"/>
			</g>
			<g>
				<circle fill="#555A6E" cx="160" cy="160" r="8"/>
			</g>
			<g>
				<circle fill="#555A6E" cx="112" cy="160" r="8"/>
			</g>
			<g>
				<circle fill="#555A6E" cx="64" cy="160" r="8"/>
			</g>
			<g>
				<circle fill="#555A6E" cx="256" cy="160" r="8"/>
			</g>
			<g>
				<circle fill="#555A6E" cx="208" cy="160" r="8"/>
			</g>
			<g>
				<circle fill="#555A6E" cx="160" cy="256" r="8"/>
			</g>
			<g>
				<circle fill="#555A6E" cx="160" cy="208" r="8"/>
			</g>
		</g>
	</g>
</g>
</svg>
