<?xml version="1.0" encoding="utf-8"?>
<!-- Generator: Adobe Illustrator 24.0.0, SVG Export Plug-In . SVG Version: 6.00 Build 0)  -->
<svg version="1.1" id="Layer_1" xmlns="http://www.w3.org/2000/svg" xmlns:xlink="http://www.w3.org/1999/xlink" x="0px" y="0px"
	 viewBox="0 0 512 512" enable-background="new 0 0 512 512" xml:space="preserve">
<g>
	<g>
		<path fill="#A55023" d="M256,320H80c-26.51,0-48,21.49-48,48v128h272V368C304,341.49,282.51,320,256,320z"/>
	</g>
	<g>
		<path fill="#F5871E" d="M256,320h-32c26.51,0,48,21.49,48,48v16h32v-16C304,341.49,282.51,320,256,320z"/>
	</g>
	<g>
		<path fill="#463C4B" d="M192,320c26.51,0,48,21.49,48,48v0c0,8.837,7.163,16,16,16c8.836,0,16-7.163,16-16V256h-80V320z"/>
	</g>
	<g>
		<path fill="#D26E28" d="M80,320L80,320c-26.51,0-48,21.49-48,48v128h96V368C128,341.49,106.51,320,80,320z"/>
	</g>
	<g>
		<path fill="#FAB991" d="M304,112H80v208h112v-32h64c26.51,0,48-21.49,48-48V112z"/>
	</g>
	<g>
		<path fill="#F0915A" d="M192,288h-80c-17.673,0-32,14.327-32,32v0h112V288z"/>
	</g>
	<g>
		<path fill="#463C4B" d="M272,240h-32v0c0,8.837,7.163,16,16,16h0C264.837,256,272,248.837,272,240L272,240z"/>
	</g>
	<g>
		<path fill="#F0915A" d="M264,224L264,224c-8.837,0-16-7.163-16-16v-32h0c17.673,0,32,14.327,32,32v0
			C280,216.837,272.837,224,264,224z"/>
	</g>
	<g>
		<circle fill="#463C4B" cx="228" cy="160" r="12"/>
	</g>
	<g>
		<circle fill="#463C4B" cx="268" cy="160" r="12"/>
	</g>
	<g>
		<path fill="#463C4B" d="M256,16h-96c-22.449,0-43.097,7.707-59.446,20.618C94.323,33.66,87.356,32,80,32c-26.51,0-48,21.49-48,48
			c0,20.898,13.359,38.667,32,45.258V304c0,8.837,7.163,16,16,16h0c26.51,0,48,21.49,48,48l0,0c0,8.837,7.163,16,16,16
			s16-7.163,16-16V144c0-17.673,14.327-32,32-32h112c13.255,0,24-10.745,24-24v0C328,48.235,295.765,16,256,16z"/>
	</g>
	<g>
		<path fill="#F5871E" d="M80,320L80,320c26.51,0,48,21.49,48,48v16H32v-16C32,341.49,53.49,320,80,320z"/>
	</g>
	<g>
		<rect x="32" y="384" fill="#A55023" width="96" height="16"/>
	</g>
	<g>
		<g>
			<path fill="#D7E6F0" d="M336,352h16c79.529,0,144,64.471,144,144v0H192v0C192,416.471,256.471,352,336,352z"/>
		</g>
		<g>
			<path fill="#A5C3DC" d="M352,352c-79.529,0-144,64.471-144,144h288C496,416.471,431.529,352,352,352z"/>
		</g>
		<g>
			<path fill="#F06423" d="M352,384c-61.856,0-112,50.144-112,112h224C464,434.144,413.856,384,352,384z"/>
		</g>
		<g>
			<rect x="224" y="480" fill="#A5C3DC" width="256" height="16"/>
		</g>
		<g>
			<rect x="336" y="368" fill="#A5C3DC" width="32" height="128"/>
		</g>
		<g>
			<circle fill="#555A6E" cx="352" cy="400" r="8"/>
		</g>
		<g>
			<circle fill="#555A6E" cx="352" cy="448" r="8"/>
		</g>
		<g>
			<path fill="#555A6E" d="M352,488c-4.418,0-8,3.582-8,8h16C360,491.582,356.418,488,352,488z"/>
		</g>
		<g>
			<path fill="#555A6E" d="M400,488c-4.418,0-8,3.582-8,8h16C408,491.582,404.418,488,400,488z"/>
		</g>
		<g>
			<path fill="#555A6E" d="M448,488c-4.418,0-8,3.582-8,8h16C456,491.582,452.418,488,448,488z"/>
		</g>
		<g>
			<path fill="#555A6E" d="M256,488c-4.418,0-8,3.582-8,8h16C264,491.582,260.418,488,256,488z"/>
		</g>
		<g>
			<path fill="#555A6E" d="M304,488c-4.418,0-8,3.582-8,8h16C312,491.582,308.418,488,304,488z"/>
		</g>
	</g>
	<g>
		<path fill="#F0915A" d="M160,160v80c-22.091,0-40-17.909-40-40C120,177.909,137.909,160,160,160z"/>
	</g>
</g>
</svg>
