<?xml version="1.0" encoding="utf-8"?>
<!-- Generator: Adobe Illustrator 24.0.0, SVG Export Plug-In . SVG Version: 6.00 Build 0)  -->
<svg version="1.1" id="Layer_1" xmlns="http://www.w3.org/2000/svg" xmlns:xlink="http://www.w3.org/1999/xlink" x="0px" y="0px"
	 viewBox="0 0 512 512" enable-background="new 0 0 512 512" xml:space="preserve">
<g>
	<path fill="#A55023" d="M335.667,71.222l-20.515-47.869C313.24,18.892,308.853,16,304,16h-48c-4.853,0-9.24,2.892-11.151,7.353
		L227.21,64.509C144.825,71.026,80,139.94,80,224v272h240v-34.745c0-28.976-11.511-56.766-32-77.255
		c-17.613-17.613-28.583-40.622-31.318-65.14c2.308,0.738,4.766,1.14,7.318,1.14h48c3.2,0,5.954-1.884,7.233-4.599
		c1.926,2.777,5.132,4.599,8.767,4.599h48c22.091,0,40-17.909,40-40v-24c17.673,0,32-14.327,32-32
		C448,152.235,400.752,91.507,335.667,71.222z"/>
	<path fill="#F5871E" d="M287.667,71.222l-20.515-47.869C265.24,18.892,260.853,16,256,16s-9.24,2.892-11.151,7.353L227.21,64.509
		C144.825,71.026,80,139.94,80,224v272h192v-34.745c0-28.976-11.511-56.766-32-77.255s-32-48.279-32-77.255V272
		c0-8.837,7.163-16,16-16s16,7.163,16,16v24c0,13.255,10.745,24,24,24c4.418,0,8-3.582,8-8v-49.333
		C272,250.148,282.148,240,294.667,240h0c12.518,0,22.667,10.148,22.667,22.667v46.667c0,5.891,4.776,10.667,10.667,10.667
		c22.091,0,40-17.909,40-40v-24c17.673,0,32-14.327,32-32C400,152.235,352.752,91.507,287.667,71.222z"/>
	<g>
		<path fill="#D26E28" d="M104,424c-4.418,0-8-3.582-8-8V224c0-79.402,64.598-144,144-144c4.418,0,8,3.582,8,8s-3.582,8-8,8
			c-70.58,0-128,57.42-128,128v192C112,420.418,108.418,424,104,424z"/>
	</g>
	<g>
		<path fill="#D26E28" d="M224,256h-48c-26.51,0-48,21.49-48,48v64c0,26.51-21.49,48-48,48h0v80h192v-34.745
			c0-28.976-11.511-56.766-32-77.255l0,0c-20.489-20.489-32-48.279-32-77.255V272C208,263.163,215.163,256,224,256L224,256z"/>
	</g>
	<g>
		<path fill="#A55023" d="M96,416c26.51,0,48-21.49,48-48v-64c0-26.51,21.49-48,48-48h-16c-26.51,0-48,21.49-48,48v64
			c0,26.51-21.49,48-48,48l0,0H96L96,416z"/>
	</g>
	<path fill="#A55023" d="M320,128h-48c-4.411,0-8-3.589-8-8c0-4.418-3.582-8-8-8c-4.418,0-8,3.582-8,8c0,13.233,10.767,24,24,24h16
		c-5.022,6.686-8,14.995-8,24c0,22.091,17.909,40,40,40s40-17.909,40-40S342.091,128,320,128z"/>
	<g>
		<circle fill="#F5871E" cx="320" cy="168" r="24"/>
	</g>
	<g>
		<path fill="#FAA019" d="M296,168h16c4.418,0,8-3.582,8-8v-16h0C306.745,144,296,154.745,296,168L296,168z"/>
	</g>
	<g>
		<path fill="#D26E28" d="M272,264l12.422,6.211c2.193,1.096,3.578,3.337,3.578,5.789l0,0c0,2.451-1.385,4.693-3.578,5.789L272,288
			V264z"/>
	</g>
	<g>
		<path fill="#D26E28" d="M317.333,264l-12.422,6.211c-2.193,1.096-3.578,3.337-3.578,5.789l0,0c0,2.451,1.385,4.693,3.578,5.789
			L317.333,288V264z"/>
	</g>
	<g>
		<path fill="#D26E28" d="M272,288l12.422,6.211c2.193,1.096,3.578,3.337,3.578,5.789l0,0c0,2.451-1.385,4.693-3.578,5.789L272,312
			V288z"/>
	</g>
	<g>
		<path fill="#D26E28" d="M317.333,288l-12.422,6.211c-2.193,1.096-3.578,3.337-3.578,5.789l0,0c0,2.451,1.385,4.693,3.578,5.789
			L317.333,312V288z"/>
	</g>
</g>
</svg>
