<?xml version="1.0" encoding="utf-8"?>
<!-- Generator: Adobe Illustrator 24.0.0, SVG Export Plug-In . SVG Version: 6.00 Build 0)  -->
<svg version="1.1" id="Layer_1" xmlns="http://www.w3.org/2000/svg" xmlns:xlink="http://www.w3.org/1999/xlink" x="0px" y="0px"
	 viewBox="0 0 512 512" enable-background="new 0 0 512 512" xml:space="preserve">
<g>
	<g>
		<g>
			<path fill="#F06423" d="M168,344l-32-32L402.343,45.657c3.124-3.124,8.19-3.124,11.314,0l20.686,20.686
				c3.124,3.124,3.124,8.19,0,11.314L168,344z"/>
		</g>
		<g>
			<path fill="#FAA019" d="M152,328l-16-16l184-184l10.343,10.343c3.124,3.124,3.124,8.19,0,11.314L152,328z"/>
		</g>
		<g>
			<path fill="#A55023" d="M168,344l-32-32l-73.01,73.01c-3.124,3.124-3.124,8.19,0,11.314l20.686,20.686
				c3.124,3.124,8.19,3.124,11.314,0L168,344z"/>
		</g>
		<g>
			<path fill="#D26E28" d="M152,328l-16-16l-73.01,73.01c-3.124,3.124-3.124,8.19,0,11.314l4.686,4.686
				c3.124,3.124,8.19,3.124,11.314,0L152,328z"/>
		</g>
		<g>
			<g>
				<path fill="#555A6E" d="M363.314,220.686c-4.37,4.369-5.672,10.635-3.931,16.146c4.288,2.063,9.022,3.168,13.872,3.168h4.922
					c19.096,0,37.409-7.586,50.912-21.088l36.284-36.284c12.497-12.497,12.497-32.758,0-45.255l-94.059-94.059
					c-6.248-6.248-16.379-6.248-22.627,0l-33.373,33.373c-6.248,6.248-6.248,16.379,0,22.627l50.745,50.745
					c18.745,18.745,18.745,49.137,0,67.882L363.314,220.686z"/>
			</g>
		</g>
		<g>
			<g>
				<path fill="#463C4B" d="M363.314,220.686c-4.37,4.369-5.672,10.635-3.931,16.146c4.288,2.063,9.022,3.168,13.872,3.168h4.922
					c19.096,0,37.409-7.586,50.912-21.088l36.284-36.284c12.497-12.497,12.497-32.758,0-45.255l-70.059-70.059
					c-6.248-6.248-16.379-6.248-22.627,0l-33.373,33.373c-6.248,6.248-6.248,16.379,0,22.627l26.745,26.745
					c18.745,18.745,18.745,49.137,0,67.882L363.314,220.686z"/>
			</g>
		</g>
		<g>
			<path fill="#555A6E" d="M477.333,178.667L477.333,178.667c-2.946,2.946-7.721,2.946-10.667,0l-85.333-85.333
				c-2.945-2.946-2.945-7.721,0-10.667l0,0c2.946-2.946,7.721-2.946,10.667,0L477.333,168
				C480.279,170.946,480.279,175.721,477.333,178.667z"/>
		</g>
		<g>
			<g>
				<path fill="#A5C3DC" d="M481.373,153.373l-16-16c12.497,12.497,12.497,32.758,0,45.255l-36.284,36.284
					C415.586,232.414,397.272,240,378.177,240h-4.922c-4.849,0-9.583-1.105-13.872-3.168c0.749,2.37,2.052,4.603,3.931,6.482
					l3.314,3.314c6.001,6.001,14.14,9.373,22.627,9.373h4.922c19.096,0,37.409-7.586,50.912-21.088l36.284-36.284
					C493.869,186.131,493.869,165.869,481.373,153.373z"/>
			</g>
			<g>
				<path fill="#D7E6F0" d="M474.345,165.012c-0.826,5.236-2.956,10.303-6.388,14.685c2.917,1.857,6.83,1.517,9.376-1.03v0
					c2.946-2.945,2.946-7.721,0-10.667L474.345,165.012z"/>
			</g>
		</g>
	</g>
	<g>
		<g>
			<path fill="#F06423" d="M344,344l32-32L109.657,45.657c-3.124-3.124-8.19-3.124-11.314,0L77.657,66.343
				c-3.124,3.124-3.124,8.19,0,11.314L344,344z"/>
		</g>
		<g>
			<path fill="#FAA019" d="M360,328l16-16L192,128l-10.343,10.343c-3.124,3.124-3.124,8.19,0,11.314L360,328z"/>
		</g>
		<g>
			<path fill="#A55023" d="M344,344l32-32l73.01,73.01c3.124,3.124,3.124,8.19,0,11.314l-20.686,20.686
				c-3.124,3.124-8.19,3.124-11.314,0L344,344z"/>
		</g>
		<g>
			<path fill="#D26E28" d="M360,328l16-16l73.01,73.01c3.124,3.124,3.124,8.19,0,11.314l-4.686,4.686
				c-3.124,3.124-8.19,3.124-11.314,0L360,328z"/>
		</g>
		<g>
			<g>
				<path fill="#555A6E" d="M148.686,220.686c4.37,4.369,5.672,10.635,3.931,16.146c-4.288,2.063-9.022,3.168-13.872,3.168h-4.922
					c-19.096,0-37.409-7.586-50.912-21.088l-36.284-36.284c-12.497-12.497-12.497-32.758,0-45.255l94.059-94.059
					c6.248-6.248,16.379-6.248,22.627,0l33.373,33.373c6.248,6.248,6.248,16.379,0,22.627l-50.745,50.745
					c-18.745,18.745-18.745,49.137,0,67.882L148.686,220.686z"/>
			</g>
		</g>
		<g>
			<g>
				<path fill="#463C4B" d="M148.686,220.686c4.37,4.369,5.672,10.635,3.931,16.146c-4.288,2.063-9.022,3.168-13.872,3.168h-4.922
					c-19.096,0-37.409-7.586-50.912-21.088l-36.284-36.284c-12.497-12.497-12.497-32.758,0-45.255l70.059-70.059
					c6.248-6.248,16.379-6.248,22.627,0l33.373,33.373c6.248,6.248,6.248,16.379,0,22.627l-26.745,26.745
					c-18.745,18.745-18.745,49.137,0,67.882L148.686,220.686z"/>
			</g>
		</g>
		<g>
			<path fill="#555A6E" d="M34.667,178.667L34.667,178.667c2.946,2.946,7.721,2.946,10.667,0l85.333-85.333
				c2.946-2.946,2.946-7.721,0-10.667l0,0c-2.946-2.946-7.721-2.946-10.667,0L34.667,168
				C31.721,170.946,31.721,175.721,34.667,178.667z"/>
		</g>
		<g>
			<g>
				<path fill="#A5C3DC" d="M30.627,153.373l16-16c-12.497,12.497-12.497,32.758,0,45.255l36.284,36.284
					C96.414,232.414,114.728,240,133.823,240h4.922c4.849,0,9.583-1.105,13.872-3.168c-0.749,2.37-2.052,4.603-3.931,6.482
					l-3.314,3.314c-6.001,6.001-14.14,9.373-22.627,9.373h-4.922c-19.096,0-37.409-7.586-50.912-21.088l-36.284-36.284
					C18.131,186.131,18.131,165.869,30.627,153.373z"/>
			</g>
			<g>
				<path fill="#D7E6F0" d="M37.655,165.012c0.826,5.236,2.956,10.303,6.388,14.685c-2.917,1.857-6.83,1.517-9.376-1.03v0
					c-2.946-2.945-2.946-7.721,0-10.667L37.655,165.012z"/>
			</g>
		</g>
	</g>
	<g>
		<g>
			<circle fill="#87A5BE" cx="256" cy="320" r="160"/>
		</g>
		<g>
			<circle fill="#E1322D" cx="256" cy="320" r="128"/>
		</g>
		<g>
			<circle fill="#F04B37" cx="256" cy="320" r="120"/>
		</g>
		<g>
			<rect x="240" y="192" fill="#87A5BE" width="32" height="256"/>
		</g>
		<g>
			<rect x="128" y="304" fill="#87A5BE" width="256" height="32"/>
		</g>
		<g>
			<g>
				<circle fill="#D7E6F0" cx="256" cy="216" r="8"/>
			</g>
			<g>
				<circle fill="#D7E6F0" cx="256" cy="264" r="8"/>
			</g>
			<g>
				<circle fill="#A5C3DC" cx="256" cy="320" r="32"/>
			</g>
			<g>
				<circle fill="#D7E6F0" cx="200" cy="320" r="8"/>
			</g>
			<g>
				<circle fill="#D7E6F0" cx="152" cy="320" r="8"/>
			</g>
			<g>
				<circle fill="#D7E6F0" cx="360" cy="320" r="8"/>
			</g>
			<g>
				<circle fill="#D7E6F0" cx="312" cy="320" r="8"/>
			</g>
			<g>
				<circle fill="#D7E6F0" cx="256" cy="424" r="8"/>
			</g>
			<g>
				<circle fill="#D7E6F0" cx="256" cy="376" r="8"/>
			</g>
			<g>
				<path fill="#D7E6F0" d="M224,320h16c8.837,0,16-7.163,16-16v-16h0C238.327,288,224,302.327,224,320L224,320z"/>
			</g>
		</g>
		<g>
			<path fill="#D7E6F0" d="M112,336c-8.837,0-16-7.164-16-16c0-88.224,71.775-160,160-160c8.837,0,16,7.164,16,16s-7.163,16-16,16
				c-70.579,0-128,57.42-128,128C128,328.836,120.837,336,112,336z"/>
		</g>
	</g>
</g>
</svg>
