<?xml version="1.0" encoding="utf-8"?>
<!-- Generator: Adobe Illustrator 24.0.0, SVG Export Plug-In . SVG Version: 6.00 Build 0)  -->
<svg version="1.1" id="Layer_1" xmlns="http://www.w3.org/2000/svg" xmlns:xlink="http://www.w3.org/1999/xlink" x="0px" y="0px"
	 viewBox="0 0 512 512" enable-background="new 0 0 512 512" xml:space="preserve">
<g>
	<g>
		<g>
			<path fill="#F06423" d="M168,376l-32-32L402.343,77.657c3.124-3.124,8.19-3.124,11.314,0l20.686,20.686
				c3.124,3.124,3.124,8.19,0,11.314L168,376z"/>
		</g>
		<g>
			<path fill="#FAA019" d="M152,360l-16-16l184-184l10.343,10.343c3.124,3.124,3.124,8.19,0,11.314L152,360z"/>
		</g>
		<g>
			<path fill="#A55023" d="M168,376l-32-32l-73.01,73.01c-3.124,3.124-3.124,8.19,0,11.314l20.686,20.686
				c3.124,3.124,8.19,3.124,11.314,0L168,376z"/>
		</g>
		<g>
			<path fill="#D26E28" d="M152,360l-16-16l-73.01,73.01c-3.124,3.124-3.124,8.19,0,11.314l4.686,4.686
				c3.124,3.124,8.19,3.124,11.314,0L152,360z"/>
		</g>
		<g>
			<g>
				<path fill="#555A6E" d="M363.314,252.686c-4.37,4.369-5.672,10.635-3.931,16.146c4.288,2.063,9.022,3.168,13.872,3.168h4.922
					c19.096,0,37.409-7.586,50.912-21.088l36.284-36.284c12.497-12.497,12.497-32.758,0-45.255l-94.059-94.059
					c-6.248-6.248-16.379-6.248-22.627,0l-33.373,33.373c-6.248,6.248-6.248,16.379,0,22.627l50.745,50.745
					c18.745,18.745,18.745,49.137,0,67.882L363.314,252.686z"/>
			</g>
		</g>
		<g>
			<g>
				<path fill="#463C4B" d="M363.314,252.686c-4.37,4.369-5.672,10.635-3.931,16.146c4.288,2.063,9.022,3.168,13.872,3.168h4.922
					c19.096,0,37.409-7.586,50.912-21.088l36.284-36.284c12.497-12.497,12.497-32.758,0-45.255l-70.059-70.059
					c-6.248-6.248-16.379-6.248-22.627,0l-33.373,33.373c-6.248,6.248-6.248,16.379,0,22.627l26.745,26.745
					c18.745,18.745,18.745,49.137,0,67.882L363.314,252.686z"/>
			</g>
		</g>
		<g>
			<path fill="#555A6E" d="M477.333,210.667L477.333,210.667c-2.946,2.946-7.721,2.946-10.667,0l-85.333-85.333
				c-2.945-2.946-2.945-7.721,0-10.667l0,0c2.946-2.946,7.721-2.946,10.667,0L477.333,200
				C480.279,202.946,480.279,207.721,477.333,210.667z"/>
		</g>
		<g>
			<g>
				<path fill="#A5C3DC" d="M481.373,185.373l-16-16c12.497,12.497,12.497,32.758,0,45.255l-36.284,36.284
					C415.586,264.414,397.272,272,378.177,272h-4.922c-4.849,0-9.583-1.105-13.872-3.168c0.749,2.37,2.052,4.603,3.931,6.482
					l3.314,3.314c6.001,6.001,14.14,9.373,22.627,9.373h4.922c19.096,0,37.409-7.586,50.912-21.088l36.284-36.284
					C493.869,218.131,493.869,197.869,481.373,185.373z"/>
			</g>
			<g>
				<path fill="#D7E6F0" d="M474.345,197.012c-0.826,5.236-2.956,10.303-6.388,14.685c2.917,1.857,6.83,1.517,9.376-1.03v0
					c2.946-2.945,2.946-7.721,0-10.667L474.345,197.012z"/>
			</g>
		</g>
	</g>
	<g>
		<g>
			<path fill="#F06423" d="M344,376l32-32L109.657,77.657c-3.124-3.124-8.19-3.124-11.314,0L77.657,98.343
				c-3.124,3.124-3.124,8.19,0,11.314L344,376z"/>
		</g>
		<g>
			<path fill="#FAA019" d="M360,360l16-16L192,160l-10.343,10.343c-3.124,3.124-3.124,8.19,0,11.314L360,360z"/>
		</g>
		<g>
			<path fill="#A55023" d="M344,376l32-32l73.01,73.01c3.124,3.124,3.124,8.19,0,11.314l-20.686,20.686
				c-3.124,3.124-8.19,3.124-11.314,0L344,376z"/>
		</g>
		<g>
			<path fill="#D26E28" d="M360,360l16-16l73.01,73.01c3.124,3.124,3.124,8.19,0,11.314l-4.686,4.686
				c-3.124,3.124-8.19,3.124-11.314,0L360,360z"/>
		</g>
		<g>
			<g>
				<path fill="#555A6E" d="M148.686,252.686c4.37,4.369,5.672,10.635,3.931,16.146c-4.288,2.063-9.022,3.168-13.872,3.168h-4.922
					c-19.096,0-37.409-7.586-50.912-21.088l-36.284-36.284c-12.497-12.497-12.497-32.758,0-45.255l94.059-94.059
					c6.248-6.248,16.379-6.248,22.627,0l33.373,33.373c6.248,6.248,6.248,16.379,0,22.627l-50.745,50.745
					c-18.745,18.745-18.745,49.137,0,67.882L148.686,252.686z"/>
			</g>
		</g>
		<g>
			<g>
				<path fill="#463C4B" d="M148.686,252.686c4.37,4.369,5.672,10.635,3.931,16.146c-4.288,2.063-9.022,3.168-13.872,3.168h-4.922
					c-19.096,0-37.409-7.586-50.912-21.088l-36.284-36.284c-12.497-12.497-12.497-32.758,0-45.255l70.059-70.059
					c6.248-6.248,16.379-6.248,22.627,0l33.373,33.373c6.248,6.248,6.248,16.379,0,22.627l-26.745,26.745
					c-18.745,18.745-18.745,49.137,0,67.882L148.686,252.686z"/>
			</g>
		</g>
		<g>
			<path fill="#555A6E" d="M34.667,210.667L34.667,210.667c2.946,2.946,7.721,2.946,10.667,0l85.333-85.333
				c2.946-2.946,2.946-7.721,0-10.667l0,0c-2.946-2.946-7.721-2.946-10.667,0L34.667,200
				C31.721,202.946,31.721,207.721,34.667,210.667z"/>
		</g>
		<g>
			<g>
				<path fill="#A5C3DC" d="M30.627,185.373l16-16c-12.497,12.497-12.497,32.758,0,45.255l36.284,36.284
					C96.414,264.414,114.728,272,133.823,272h4.922c4.849,0,9.583-1.105,13.872-3.168c-0.749,2.37-2.052,4.603-3.931,6.482
					l-3.314,3.314c-6.001,6.001-14.14,9.373-22.627,9.373h-4.922c-19.096,0-37.409-7.586-50.912-21.088l-36.284-36.284
					C18.131,218.131,18.131,197.869,30.627,185.373z"/>
			</g>
			<g>
				<path fill="#D7E6F0" d="M37.655,197.012c0.826,5.236,2.956,10.303,6.388,14.685c-2.917,1.857-6.83,1.517-9.376-1.03v0
					c-2.946-2.945-2.946-7.721,0-10.667L37.655,197.012z"/>
			</g>
		</g>
	</g>
</g>
</svg>
