<?xml version="1.0" encoding="utf-8"?>
<!-- Generator: Adobe Illustrator 24.0.0, SVG Export Plug-In . SVG Version: 6.00 Build 0)  -->
<svg version="1.1" id="Layer_1" xmlns="http://www.w3.org/2000/svg" xmlns:xlink="http://www.w3.org/1999/xlink" x="0px" y="0px"
	 viewBox="0 0 512 512" enable-background="new 0 0 512 512" xml:space="preserve">
<g>
	<g>
		<g>
			<path fill="#D26E28" d="M256,320H80c-26.51,0-48,21.49-48,48v128h272V368C304,341.49,282.51,320,256,320z"/>
		</g>
		<g>
			<polygon fill="#463C4B" points="261.333,496 128,400 128,368 304,496 			"/>
		</g>
		<g>
			<path fill="#E1322D" d="M192,320c26.51,0,48,21.49,48,48v0c0,8.837,7.163,16,16,16c8.836,0,16-7.163,16-16V256h-80V320z"/>
		</g>
		<g>
			<path fill="#FAB991" d="M80,320L80,320c-26.51,0-48,21.49-48,48v128h96V368C128,341.49,106.51,320,80,320z"/>
		</g>
		<g>
			<path fill="#FAB991" d="M304,112H80v208h112v-32h64c26.51,0,48-21.49,48-48V112z"/>
		</g>
		<g>
			<path fill="#F0915A" d="M192,288h-80c-17.673,0-32,14.327-32,32v0h112V288z"/>
		</g>
		<g>
			<path fill="#463C4B" d="M272,240h-32v0c0,8.837,7.163,16,16,16h0C264.837,256,272,248.837,272,240L272,240z"/>
		</g>
		<g>
			<path fill="#F0915A" d="M264,224L264,224c-8.837,0-16-7.163-16-16v-32h0c17.673,0,32,14.327,32,32v0
				C280,216.837,272.837,224,264,224z"/>
		</g>
		<g>
			<circle fill="#463C4B" cx="228" cy="160" r="12"/>
		</g>
		<g>
			<circle fill="#463C4B" cx="268" cy="160" r="12"/>
		</g>
		<g>
			<path fill="#F5826E" d="M80,112h112v16c0,17.673-14.327,32-32,32H80V112z"/>
		</g>
		<g>
			<path fill="#E1322D" d="M256,16h-96c-53.019,0-96,42.981-96,96v192c0,8.837,7.163,16,16,16l0,0c26.51,0,48,21.49,48,48v0
				c0,8.837,7.163,16,16,16s16-7.163,16-16V160H80v0c0-26.51,21.49-48,48-48h176c13.255,0,24-10.745,24-24v0
				C328,48.235,295.765,16,256,16z"/>
		</g>
		<g>
			<path fill="#FAA019" d="M80,320L80,320c26.51,0,48,21.49,48,48v16H32v-16C32,341.49,53.49,320,80,320z"/>
		</g>
		<g>
			<rect x="32" y="384" fill="#F0915A" width="96" height="16"/>
		</g>
		<g>
			<polygon fill="#555A6E" points="170.667,496 304,400 304,368 128,496 			"/>
		</g>
		<g>
			<path fill="#F06423" d="M364.706,208h22.588c7.017,0,12.706,5.689,12.706,12.706V496h-48V220.706
				C352,213.689,357.689,208,364.706,208z"/>
		</g>
		<g>
			<path fill="#FAA019" d="M364.706,208L364.706,208c7.017,0,12.706,5.689,12.706,12.706V496H352V220.706
				C352,213.689,357.689,208,364.706,208z"/>
		</g>
		<g>
			<path fill="#463C4B" d="M336,240h62.874c10.699,0,20.691-5.347,26.626-14.25l17.087-25.631c2.8-4.201,8.743-4.789,12.313-1.219
				l1.668,1.668C471.571,215.571,480,235.92,480,257.137v45.726c0,21.217-8.429,41.566-23.431,56.569L454.9,361.1
				c-3.57,3.57-9.513,2.981-12.313-1.219L425.5,334.25c-5.935-8.902-15.926-14.25-26.626-14.25H336c-8.837,0-16-7.163-16-16v-48
				C320,247.163,327.163,240,336,240z"/>
			<g>
				<path fill="#D7E6F0" d="M456.569,200.569L454.9,198.9c-3.57-3.57-9.513-2.981-12.313,1.219l-0.995,1.492
					C455.954,216.507,464,236.407,464,257.137v45.726c0,20.73-8.046,40.63-22.408,55.526l0.995,1.492
					c2.8,4.201,8.744,4.789,12.313,1.219l1.668-1.668C471.571,344.429,480,324.08,480,302.863v-45.726
					C480,235.92,471.571,215.571,456.569,200.569z"/>
			</g>
		</g>
		<g>
			<path fill="#555A6E" d="M336,320h16v-80h-16c-8.837,0-16,7.163-16,16v48C320,312.837,327.163,320,336,320z"/>
		</g>
		<g>
			<path fill="#F0915A" d="M160,160v80c-22.091,0-40-17.909-40-40C120,177.909,137.909,160,160,160z"/>
		</g>
	</g>
	<g>
		<path fill="#FAB991" d="M400,448h-48c-8.837,0-16,7.163-16,16v32h80v-32C416,455.163,408.837,448,400,448z"/>
	</g>
</g>
</svg>
