<?xml version="1.0" encoding="utf-8"?>
<!-- Generator: Adobe Illustrator 24.0.0, SVG Export Plug-In . SVG Version: 6.00 Build 0)  -->
<svg version="1.1" id="Layer_1" xmlns="http://www.w3.org/2000/svg" xmlns:xlink="http://www.w3.org/1999/xlink" x="0px" y="0px"
	 viewBox="0 0 512 512" enable-background="new 0 0 512 512" xml:space="preserve">
<g>
	<g>
		<path fill="#FAB991" d="M448,208v-88c0-4.418,3.582-8,8-8h0c22.091,0,40,17.909,40,40v104c0,35.346-28.654,64-64,64h-96v-96h96
			C440.837,224,448,216.837,448,208z"/>
	</g>
	<g>
		<path fill="#F0915A" d="M352,320h80c35.346,0,64-28.654,64-64v0v0c0,8.837-7.163,16-16,16H352V320z"/>
	</g>
	<g>
		<path fill="#FAB991" d="M64,208v-88c0-4.418-3.582-8-8-8h0c-22.091,0-40,17.909-40,40v104c0,35.346,28.654,64,64,64h96v-96H80
			C71.163,224,64,216.837,64,208z"/>
	</g>
	<g>
		<path fill="#F0915A" d="M160,320H80c-35.346,0-64-28.654-64-64v0v0c0,8.837,7.163,16,16,16h128V320z"/>
	</g>
	<g>
		<rect x="80" y="272" fill="#463C4B" width="48" height="48"/>
	</g>
	<g>
		<rect x="80" y="224" fill="#555A6E" width="48" height="48"/>
	</g>
	<g>
		<rect x="384" y="272" fill="#463C4B" width="48" height="48"/>
	</g>
	<g>
		<rect x="384" y="224" fill="#555A6E" width="48" height="48"/>
	</g>
	<g>
		<path fill="#FAA019" d="M416,352H96v-32c0-88.365,71.634-160,160-160h0c88.365,0,160,71.634,160,160V352z"/>
	</g>
	<g>
		<path fill="#FFD205" d="M120,360c-4.418,0-8-3.582-8-8v-32c0-79.402,64.598-144,144-144c4.418,0,8,3.582,8,8s-3.582,8-8,8
			c-70.58,0-128,57.42-128,128v32C128,356.418,124.418,360,120,360z"/>
	</g>
	<g>
		<path fill="#F06423" d="M336,240L336,240c44.183,0,80,35.817,80,80v32H256v-32C256,275.817,291.817,240,336,240z"/>
	</g>
	<g>
		<path fill="#A5C3DC" d="M416,384H96c-4.418,0-8-3.582-8-8v-16c0-4.418,3.582-8,8-8h320c4.418,0,8,3.582,8,8v16
			C424,380.418,420.418,384,416,384z"/>
	</g>
	<g>
		<path fill="#D7E6F0" d="M256,384H96c-4.418,0-8-3.582-8-8v-16c0-4.418,3.582-8,8-8h160V384z"/>
	</g>
	<g>
		<path fill="#D7E6F0" d="M237.657,437.657l4.686,4.686C245.965,445.965,250.878,448,256,448h0v-64h-24v40
			C232,429.122,234.035,434.035,237.657,437.657z"/>
	</g>
	<g>
		<path fill="#A5C3DC" d="M274.343,437.657l-4.686,4.686C266.035,445.965,261.122,448,256,448l0,0v-64h24v40
			C280,429.122,277.965,434.035,274.343,437.657z"/>
	</g>
	<g>
		<path fill="#D7E6F0" d="M240,152h32c4.418,0,8,3.582,8,8v192h-48V160C232,155.582,235.582,152,240,152z"/>
	</g>
	<g>
		<path fill="#A5C3DC" d="M256,320v32h24v-89.131C265.189,277.388,256,297.621,256,320z"/>
	</g>
	<g>
		<rect x="104" y="352" fill="#FFFFFF" width="16" height="16"/>
	</g>
	<g>
		<rect x="232" y="170.667" fill="#FFFFFF" width="48" height="16"/>
	</g>
	<g>
		<path fill="#A5C3DC" d="M232,384H96c-4.418,0-8-3.582-8-8v-8h144V384z"/>
	</g>
</g>
</svg>
