<?xml version="1.0" encoding="utf-8"?>
<!-- Generator: Adobe Illustrator 24.0.0, SVG Export Plug-In . SVG Version: 6.00 Build 0)  -->
<svg version="1.1" id="Layer_1" xmlns="http://www.w3.org/2000/svg" xmlns:xlink="http://www.w3.org/1999/xlink" x="0px" y="0px"
	 viewBox="0 0 512 512" enable-background="new 0 0 512 512" xml:space="preserve">
<g>
	<g>
		<g>
			<path fill="#E1322D" d="M64,120V24c0-4.418-3.582-8-8-8h0c-22.091,0-40,17.909-40,40v72c0,44.183,35.817,80,80,80h80v-80H72
				C67.582,128,64,124.418,64,120z"/>
		</g>
		<g>
			<rect x="96" y="128" fill="#FAA019" width="80" height="80"/>
		</g>
		<g>
			<path fill="#E1322D" d="M448,120V24c0-4.418,3.582-8,8-8h0c22.091,0,40,17.909,40,40v72c0,44.183-35.817,80-80,80h-80v-80h104
				C444.418,128,448,124.418,448,120z"/>
		</g>
		<g>
			<rect x="336" y="128" fill="#F57823" width="80" height="80"/>
		</g>
		<g>
			<rect x="336" y="128" fill="#FAA019" width="80" height="40"/>
		</g>
		<g>
			<path fill="#F04B37" d="M448,24v96c0,4.418-3.582,8-8,8h-24v40h8c22.091,0,40-17.909,40-40V24c0-4.418-3.582-8-8-8l0,0
				C451.582,16,448,19.582,448,24z"/>
		</g>
		<g>
			<path fill="#F04B37" d="M36,144L36,144c11.046,0,20-8.954,20-20V16h0c-22.091,0-40,17.909-40,40v68C16,135.046,24.954,144,36,144
				z"/>
		</g>
	</g>
	<g>
		<path fill="#555A6E" d="M232,96l16.98-50.94c1.007-3.022,3.835-5.06,7.02-5.06l0,0c3.185,0,6.013,2.038,7.02,5.06L280,96H232z"/>
	</g>
	<g>
		<path fill="#463C4B" d="M256,40v56h24l-16.98-50.94C262.013,42.038,259.185,40,256,40L256,40z"/>
	</g>
	<g>
		<path fill="#D7E6F0" d="M416,392v-64c0-88.365-71.634-160-160-160h0c-88.365,0-160,71.634-160,160v64c-8.837,0-16,7.164-16,16v0
			c0,22.091,17.906,39.999,39.997,39.998c18.743-0.001,38.204-0.001,43.918-0.001c11.1,0.001,20.094,9.005,20.085,20.107
			c-0.004,4.543-0.005,16.722-0.004,20.077c0.001,4.417,3.581,7.994,7.998,7.994l128.01,0c4.418,0,7.999-3.579,8-7.997
			c0.001-3.355,0-15.533-0.004-20.075c-0.009-11.102,8.985-20.105,20.085-20.107c5.714-0.001,25.175,0,43.918,0.001
			C414.094,447.999,432,430.091,432,408v0C432,399.164,424.837,392,416,392z"/>
	</g>
	<g>
		<g>
			<path fill="#A5C3DC" d="M320.004,488.175h-128.01c-4.416,0-7.996-3.576-7.998-7.992c0,3.43,0,6.543,0,7.998
				c0.001,4.417,3.581,7.994,7.998,7.994h128.01c4.418,0,7.999-3.579,8-7.997c0-1.454,0-4.568,0-7.998
				C328.002,484.598,324.421,488.175,320.004,488.175z"/>
		</g>
	</g>
	<g>
		<g>
			<g>
				<path fill="#A5C3DC" d="M197.333,458.667L197.333,458.667c-2.946,0-5.333,2.388-5.333,5.333v32h10.667v-32
					C202.667,461.054,200.279,458.667,197.333,458.667z"/>
			</g>
		</g>
		<g>
			<g>
				<path fill="#A5C3DC" d="M256,458.667L256,458.667c-2.946,0-5.333,2.388-5.333,5.333v32h10.667v-32
					C261.333,461.054,258.946,458.667,256,458.667z"/>
			</g>
		</g>
		<g>
			<g>
				<path fill="#A5C3DC" d="M226.667,458.667L226.667,458.667c-2.946,0-5.333,2.388-5.333,5.333v32H232v-32
					C232,461.054,229.612,458.667,226.667,458.667z"/>
			</g>
		</g>
		<g>
			<g>
				<path fill="#A5C3DC" d="M285.333,458.667L285.333,458.667c-2.946,0-5.333,2.388-5.333,5.333v32h10.667v-32
					C290.667,461.054,288.279,458.667,285.333,458.667z"/>
			</g>
		</g>
		<g>
			<g>
				<path fill="#A5C3DC" d="M314.667,458.667L314.667,458.667c-2.946,0-5.333,2.388-5.333,5.333v32H320v-32
					C320,461.054,317.612,458.667,314.667,458.667z"/>
			</g>
		</g>
	</g>
	<g>
		<circle fill="#555A6E" cx="192" cy="336" r="40"/>
	</g>
	<g>
		<path fill="#463C4B" d="M192,336c14.803,0,27.718,8.047,34.635,20c3.406-5.885,5.365-12.712,5.365-20c0-22.091-17.909-40-40-40
			s-40,17.909-40,40c0,7.288,1.959,14.115,5.365,20C164.282,344.047,177.197,336,192,336z"/>
	</g>
	<g>
		<circle fill="#555A6E" cx="320" cy="336" r="40"/>
	</g>
	<g>
		<path fill="#463C4B" d="M320,336c14.803,0,27.718,8.047,34.635,20c3.406-5.885,5.365-12.712,5.365-20c0-22.091-17.909-40-40-40
			s-40,17.909-40,40c0,7.288,1.959,14.115,5.365,20C292.282,344.047,305.197,336,320,336z"/>
	</g>
	<g>
		<path fill="#555A6E" d="M256,368L256,368c-4.903,0-9.385,2.77-11.578,7.155l-19.056,38.111c-0.899,1.797-1.367,3.779-1.367,5.789
			v0c0,7.149,5.795,12.944,12.944,12.944h38.111c7.149,0,12.944-5.795,12.944-12.944v0c0-2.01-0.468-3.991-1.367-5.789
			l-19.056-38.111C265.385,370.77,260.903,368,256,368z"/>
	</g>
	<g>
		<path fill="#463C4B" d="M229.269,429.462l15.153-30.306C246.615,394.77,251.097,392,256,392s9.385,2.77,11.578,7.155
			l15.153,30.306c3.191-2.358,5.269-6.134,5.269-10.406c0-2.01-0.468-3.991-1.367-5.789l-19.056-38.111
			C265.385,370.77,260.903,368,256,368s-9.385,2.77-11.578,7.155l-19.056,38.111c-0.899,1.797-1.367,3.779-1.367,5.789
			C224,423.327,226.078,427.104,229.269,429.462z"/>
	</g>
	<g>
		<path fill="#A5C3DC" d="M128,296H96v96h0c17.673,0,32-14.327,32-32V296z"/>
	</g>
	<g>
		<path fill="#A5C3DC" d="M384,296h32v96h0c-17.673,0-32-14.327-32-32V296z"/>
	</g>
	<g>
		<path fill="#F06423" d="M416,245.333H96c-4.418,0-8,3.582-8,8V288c0,4.418,3.582,8,8,8h320c4.418,0,8-3.582,8-8v-34.667
			C424,248.915,420.418,245.333,416,245.333z"/>
	</g>
	<g>
		<path fill="#FAA019" d="M256,245.333H96c-4.418,0-8,3.582-8,8V288c0,4.418,3.582,8,8,8h160c4.418,0,8-3.582,8-8v-34.667
			C264,248.915,260.418,245.333,256,245.333z"/>
	</g>
	<g>
		<path fill="#555A6E" d="M416,245.333H96V232c0-75.111,60.889-136,136-136h48c75.111,0,136,60.889,136,136V245.333z"/>
	</g>
	<g>
		<path fill="#73788C" d="M120.514,229.334c-0.253,0-0.509-0.012-0.766-0.036c-4.398-0.417-7.626-4.322-7.208-8.72
			c2.804-29.558,16.484-56.94,38.521-77.104C173.243,123.178,201.987,112,232,112h48c4.418,0,8,3.582,8,8s-3.582,8-8,8h-48
			c-53.934,0-98.442,40.449-103.532,94.089C128.075,226.23,124.591,229.334,120.514,229.334z"/>
	</g>
	<g>
		<path fill="#463C4B" d="M333.333,168h5.333c42.71,0,77.333,34.623,77.333,77.333v0H256v0C256,202.623,290.623,168,333.333,168z"/>
	</g>
	<g>
		<path fill="#FAA019" d="M288,245.333h-64V96c0-4.418,3.582-8,8-8h48c4.418,0,8,3.582,8,8V245.333z"/>
	</g>
	<g>
		<path fill="#F06423" d="M288,245.333h-64V200c0-4.418,3.582-8,8-8h48c4.418,0,8,3.582,8,8V245.333z"/>
	</g>
	<g>
		<g>
			<circle fill="#FFD205" cx="256" cy="144" r="8"/>
		</g>
		<g>
			<circle fill="#FFD205" cx="256" cy="104" r="8"/>
		</g>
		<g>
			<circle fill="#FFD205" cx="256" cy="184" r="8"/>
		</g>
		<g>
			<circle fill="#FAA019" cx="256" cy="224" r="8"/>
		</g>
	</g>
	<g>
		<circle fill="#FFD205" cx="232" cy="272" r="8"/>
	</g>
	<g>
		<circle fill="#FFD205" cx="184" cy="272" r="8"/>
	</g>
	<g>
		<circle fill="#FFD205" cx="136" cy="272" r="8"/>
	</g>
	<g>
		<circle fill="#FAA019" cx="376" cy="272" r="8"/>
	</g>
	<g>
		<circle fill="#FAA019" cx="328" cy="272" r="8"/>
	</g>
	<g>
		<circle fill="#FAA019" cx="280" cy="272" r="8"/>
	</g>
</g>
</svg>
