<?xml version="1.0" encoding="utf-8"?>
<!-- Generator: Adobe Illustrator 24.0.0, SVG Export Plug-In . SVG Version: 6.00 Build 0)  -->
<svg version="1.1" id="Layer_1" xmlns="http://www.w3.org/2000/svg" xmlns:xlink="http://www.w3.org/1999/xlink" x="0px" y="0px"
	 viewBox="0 0 512 512" enable-background="new 0 0 512 512" xml:space="preserve">
<g>
	<g>
		<path fill="#A5C3DC" d="M445.361,172.833l-20.613-24.736C422.584,145.501,419.379,144,416,144l0,0
			c-3.379,0-6.584,1.501-8.748,4.097l-20.613,24.736c-1.705,2.046-2.639,4.626-2.639,7.29V408h64V180.123
			C448,177.459,447.066,174.879,445.361,172.833z"/>
	</g>
	<g>
		<path fill="#FAB991" d="M312,128H88v192h112v-32h64c26.51,0,48-21.49,48-48V128z"/>
	</g>
	<g>
		<rect x="200" y="144" fill="#F0915A" width="112" height="32"/>
	</g>
	<g>
		<path fill="#F0915A" d="M120,288h80v32H88v0C88,302.327,102.327,288,120,288z"/>
	</g>
	<g>
		<path fill="#463C4B" d="M136,272H88c-8.837,0-16-7.163-16-16V128h96v112C168,257.673,153.673,272,136,272z"/>
	</g>
	<g>
		<g>
			<path fill="#F06423" d="M288,320H64c-26.51,0-48,21.49-48,48v128h320V368C336,341.49,314.51,320,288,320z"/>
		</g>
		<g>
			<path fill="#FAA019" d="M192,320h-32c26.51,0,48,21.49,48,48v128h32V368C240,341.49,218.51,320,192,320z"/>
		</g>
		<g>
			<path fill="#A55023" d="M288,320h-80c26.51,0,48,21.49,48,48v0c0,8.837,7.163,16,16,16h48c8.837,0,16-7.163,16-16v0
				C336,341.49,314.51,320,288,320z"/>
		</g>
		<g>
			<path fill="#FAB991" d="M64,320L64,320c-26.51,0-48,21.49-48,48v128h96V368C112,341.49,90.51,320,64,320z"/>
		</g>
		<g>
			<path fill="#A55023" d="M144,320H64c26.51,0,48,21.49,48,48v16h64c8.837,0,16-7.163,16-16v0C192,341.49,170.51,320,144,320z"/>
		</g>
		<g>
			<path fill="#D26E28" d="M64,320L64,320c26.51,0,48,21.49,48,48v16H16v-16C16,341.49,37.49,320,64,320z"/>
		</g>
	</g>
	<g>
		<path fill="#F0915A" d="M168,160v80c-22.091,0-40-17.909-40-40C128,177.909,145.909,160,168,160z"/>
	</g>
	<g>
		<path fill="#463C4B" d="M296,208h-56c-8.837,0-16,7.163-16,16v0h-8c-8.837,0-16-7.163-16-16v-80h-32v160c0,26.51,21.49,48,48,48h8
			c0,9.561,4.198,18.136,10.845,24C228.198,365.864,224,374.439,224,384c0,12.058,6.672,22.553,16.522,28.009
			C240.193,413.287,240,414.619,240,416c0,8.837,7.163,16,16,16s16-7.163,16-16c0-1.381-0.193-2.713-0.522-3.991
			C281.328,406.553,288,396.058,288,384c0-9.561-4.198-18.136-10.845-24c6.647-5.864,10.845-14.439,10.845-24
			c0-2.087-0.206-4.124-0.588-6.1C302.08,321.687,312,306.006,312,288v-64C312,215.163,304.837,208,296,208z"/>
	</g>
	<g>
		<path fill="#F0915A" d="M272,224L272,224c-8.837,0-16-7.163-16-16v-32h0c17.673,0,32,14.327,32,32v0
			C288,216.837,280.837,224,272,224z"/>
	</g>
	<g>
		<circle fill="#463C4B" cx="236" cy="160" r="12"/>
	</g>
	<g>
		<circle fill="#463C4B" cx="276" cy="160" r="12"/>
	</g>
	<g>
		<path fill="#F0915A" d="M280,240h-24c-4.418,0-8,3.582-8,8v0c0,4.418,3.582,8,8,8h24c4.418,0,8-3.582,8-8v0
			C288,243.582,284.418,240,280,240z"/>
	</g>
	<g>
		<path fill="#A5C3DC" d="M312,112H72c-4.418,0-8,3.582-8,8v16c0,4.418,3.582,8,8,8h240c4.418,0,8-3.582,8-8v-16
			C320,115.582,316.418,112,312,112z"/>
	</g>
	<g>
		<path fill="#D7E6F0" d="M200,112H72c-4.418,0-8,3.582-8,8v16c0,4.418,3.582,8,8,8h128V112z"/>
	</g>
	<g>
		<path fill="#F06423" d="M216,16h-48c-53.019,0-96,42.981-96,96v0h240v0C312,58.981,269.019,16,216,16z"/>
	</g>
	<g>
		<path fill="#FAA019" d="M168,16L168,16c-53.019,0-96,42.981-96,96v0h192v0C264,58.981,221.019,16,168,16z"/>
	</g>
	<g>
		<path fill="#FFD205" d="M89.612,100.001c-0.265,0-0.534-0.026-0.803-0.081c-2.165-0.441-3.562-2.554-3.121-4.718
			C93.625,56.262,128.242,28,168,28c2.209,0,4,1.791,4,4s-1.791,4-4,4c-35.972,0-67.292,25.57-74.473,60.799
			C93.141,98.694,91.473,100.001,89.612,100.001z"/>
	</g>
	<g>
		<path fill="#A5C3DC" d="M288,208h-32v-48c0-8.837-7.163-16-16-16h0h64h0c-8.837,0-16,7.163-16,16V208z"/>
	</g>
	<g>
		<path fill="#D7E6F0" d="M200,160v-16h-32v16c0,26.51,21.49,48,48,48h40v-32h-40C207.163,176,200,168.837,200,160z"/>
	</g>
	<g>
		<path fill="#D7E6F0" d="M312,176h-24v32h24c4.418,0,8-3.582,8-8v-16C320,179.582,316.418,176,312,176z"/>
	</g>
	<g>
		<path fill="#555A6E" d="M296,208h-56c-8.837,0-16,7.163-16,16v64h0c13.255,0,24-10.745,24-24v-16c0-4.418,3.582-8,8-8h24
			c4.418,0,8,3.582,8,8v16c0,13.255,10.745,24,24,24h0v-64C312,215.163,304.837,208,296,208z"/>
	</g>
	<g>
		<rect x="16" y="384" fill="#F0915A" width="96" height="16"/>
	</g>
	<g>
		<path fill="#E1322D" d="M472,408H360c-4.418,0-8,3.582-8,8v8c0,13.255,10.745,24,24,24h80c13.255,0,24-10.745,24-24v-8
			C480,411.582,476.418,408,472,408z"/>
	</g>
	<g>
		<path fill="#F04B37" d="M472,408H360c-4.418,0-8,3.582-8,8l0,0c0,4.418,3.582,8,8,8h112c4.418,0,8-3.582,8-8l0,0
			C480,411.582,476.418,408,472,408z"/>
	</g>
	<g>
		<rect x="392" y="448" fill="#A55023" width="48" height="16"/>
	</g>
	<g>
		<rect x="392" y="456" fill="#D26E28" width="24" height="8"/>
	</g>
	<g>
		<path fill="#D7E6F0" d="M445.361,172.833l-20.613-24.736C422.584,145.501,419.379,144,416,144s-6.584,1.501-8.748,4.097
			l-20.613,24.736c-0.927,1.112-1.625,2.382-2.07,3.736L416,208l31.431-31.431C446.986,175.214,446.287,173.945,445.361,172.833z"/>
	</g>
	<g>
		<path fill="#87A5BE" d="M447.431,176.569L416,208v200h32V180.123C448,178.906,447.805,177.708,447.431,176.569z"/>
	</g>
	<g>
		<path fill="#FAB991" d="M440,464h-48c-8.837,0-16,7.163-16,16v16h80v-16C456,471.163,448.837,464,440,464z"/>
	</g>
</g>
</svg>
