<?xml version="1.0" encoding="utf-8"?>
<!-- Generator: Adobe Illustrator 24.0.0, SVG Export Plug-In . SVG Version: 6.00 Build 0)  -->
<svg version="1.1" id="Layer_1" xmlns="http://www.w3.org/2000/svg" xmlns:xlink="http://www.w3.org/1999/xlink" x="0px" y="0px"
	 viewBox="0 0 512 512" enable-background="new 0 0 512 512" xml:space="preserve">
<g>
	<g>
		<g>
			<path fill="#D7E6F0" d="M328,440H184v-24c0-4.418,3.582-8,8-8h128c4.418,0,8,3.582,8,8V440z"/>
		</g>
		<g>
			<path fill="#D7E6F0" d="M416,312v-64c0-88.365-71.634-160-160-160h0c-88.365,0-160,71.634-160,160v64c-8.837,0-16,7.164-16,16v0
				c0,22.091,17.906,39.999,39.997,39.998c18.743-0.001,38.204-0.001,43.918-0.001c11.1,0.001,20.094,9.005,20.085,20.107
				c-0.004,4.543-0.005,8.722-0.004,12.077c0.001,4.417,3.581,7.994,7.998,7.994l128.01,0c4.418,0,7.999-3.579,8-7.997
				c0.001-3.355,0-7.533-0.004-12.075c-0.009-11.102,8.985-20.105,20.085-20.107c5.714-0.001,25.175,0,43.918,0.001
				C414.094,367.999,432,350.091,432,328v0C432,319.164,424.837,312,416,312z"/>
		</g>
		<g>
			<g>
				<path fill="#A5C3DC" d="M320.004,400h-128.01c-4.407,0-7.981-3.563-7.996-7.968c-0.001,3.015-0.002,5.788-0.001,8.148
					c0.001,4.417,3.581,7.994,7.998,7.994h128.01c4.418,0,7.999-3.579,8-7.997c0-2.36,0-5.133-0.001-8.149
					C327.987,396.435,324.413,400,320.004,400z"/>
			</g>
		</g>
		<g>
			<path fill="#D7E6F0" d="M344,368v56c0,8.837-7.163,16-16,16H184c-8.837,0-16-7.163-16-16v-56h-32v56c0,39.764,32.236,72,72,72h96
				c39.764,0,72-32.236,72-72v-56H344z"/>
		</g>
		<g>
			<g>
				<g>
					<path fill="#A5C3DC" d="M197.333,378.667L197.333,378.667c-2.946,0-5.333,2.388-5.333,5.333v24h10.667v-24
						C202.667,381.054,200.279,378.667,197.333,378.667z"/>
				</g>
			</g>
			<g>
				<g>
					<path fill="#A5C3DC" d="M256,378.667L256,378.667c-2.946,0-5.333,2.388-5.333,5.333v24h10.667v-24
						C261.333,381.054,258.946,378.667,256,378.667z"/>
				</g>
			</g>
			<g>
				<g>
					<path fill="#A5C3DC" d="M226.667,378.667L226.667,378.667c-2.946,0-5.333,2.388-5.333,5.333v24H232v-24
						C232,381.054,229.612,378.667,226.667,378.667z"/>
				</g>
			</g>
			<g>
				<g>
					<path fill="#A5C3DC" d="M285.333,378.667L285.333,378.667c-2.946,0-5.333,2.388-5.333,5.333v24h10.667v-24
						C290.667,381.054,288.279,378.667,285.333,378.667z"/>
				</g>
			</g>
			<g>
				<g>
					<path fill="#A5C3DC" d="M314.667,378.667L314.667,378.667c-2.946,0-5.333,2.388-5.333,5.333v24H320v-24
						C320,381.054,317.612,378.667,314.667,378.667z"/>
				</g>
			</g>
		</g>
		<g>
			<g>
				<g>
					<path fill="#A5C3DC" d="M197.333,437.333L197.333,437.333c-2.946,0-5.333-2.388-5.333-5.333v-24h10.667v24
						C202.667,434.946,200.279,437.333,197.333,437.333z"/>
				</g>
			</g>
			<g>
				<g>
					<path fill="#A5C3DC" d="M256,437.333L256,437.333c-2.946,0-5.333-2.388-5.333-5.333v-24h10.667v24
						C261.333,434.946,258.946,437.333,256,437.333z"/>
				</g>
			</g>
			<g>
				<g>
					<path fill="#A5C3DC" d="M226.667,437.333L226.667,437.333c-2.946,0-5.333-2.388-5.333-5.333v-24H232v24
						C232,434.946,229.612,437.333,226.667,437.333z"/>
				</g>
			</g>
			<g>
				<g>
					<path fill="#A5C3DC" d="M285.333,437.333L285.333,437.333c-2.946,0-5.333-2.388-5.333-5.333v-24h10.667v24
						C290.667,434.946,288.279,437.333,285.333,437.333z"/>
				</g>
			</g>
			<g>
				<g>
					<path fill="#A5C3DC" d="M314.667,437.333L314.667,437.333c-2.946,0-5.333-2.388-5.333-5.333v-24H320v24
						C320,434.946,317.612,437.333,314.667,437.333z"/>
				</g>
			</g>
		</g>
		<g>
			<rect x="136" y="368" fill="#A5C3DC" width="32" height="16"/>
		</g>
		<g>
			<rect x="344" y="368" fill="#A5C3DC" width="32" height="16"/>
		</g>
		<g>
			<circle fill="#555A6E" cx="192" cy="256" r="40"/>
		</g>
		<g>
			<path fill="#463C4B" d="M192,256c14.803,0,27.718,8.047,34.635,20c3.406-5.885,5.365-12.712,5.365-20c0-22.091-17.909-40-40-40
				s-40,17.909-40,40c0,7.288,1.959,14.115,5.365,20C164.282,264.047,177.197,256,192,256z"/>
		</g>
		<g>
			<circle fill="#555A6E" cx="320" cy="256" r="40"/>
		</g>
		<g>
			<path fill="#463C4B" d="M320,256c14.803,0,27.718,8.047,34.635,20c3.406-5.885,5.365-12.712,5.365-20c0-22.091-17.909-40-40-40
				s-40,17.909-40,40c0,7.288,1.959,14.115,5.365,20C292.282,264.047,305.197,256,320,256z"/>
		</g>
		<g>
			<path fill="#555A6E" d="M256,288L256,288c-4.903,0-9.385,2.77-11.578,7.155l-19.056,38.111c-0.899,1.797-1.367,3.779-1.367,5.789
				v0c0,7.149,5.795,12.944,12.944,12.944h38.111c7.149,0,12.944-5.795,12.944-12.944v0c0-2.01-0.468-3.991-1.367-5.789
				l-19.056-38.111C265.385,290.77,260.903,288,256,288z"/>
		</g>
		<g>
			<path fill="#463C4B" d="M229.269,349.462l15.153-30.306C246.615,314.77,251.097,312,256,312s9.385,2.77,11.578,7.155
				l15.153,30.306c3.191-2.358,5.269-6.134,5.269-10.406c0-2.01-0.468-3.991-1.367-5.789l-19.056-38.111
				C265.385,290.77,260.903,288,256,288s-9.385,2.77-11.578,7.155l-19.056,38.111c-0.899,1.797-1.367,3.779-1.367,5.789
				C224,343.327,226.078,347.104,229.269,349.462z"/>
		</g>
		<g>
			<path fill="#A5C3DC" d="M128,224H96v88h0c17.673,0,32-14.327,32-32V224z"/>
		</g>
		<g>
			<path fill="#A5C3DC" d="M384,224h32v88h0c-17.673,0-32-14.327-32-32V224z"/>
		</g>
	</g>
	<g>
		<g>
			<path fill="#FAB991" d="M448,72V24c0-4.418,3.582-8,8-8h0c22.091,0,40,17.909,40,40v64c0,35.346-28.654,64-64,64h-96V88h96
				C440.837,88,448,80.837,448,72z"/>
		</g>
		<g>
			<path fill="#F0915A" d="M352,184h80c35.346,0,64-28.654,64-64v0v0c0,8.837-7.163,16-16,16H352V184z"/>
		</g>
		<g>
			<path fill="#FAB991" d="M64,72V24c0-4.418-3.582-8-8-8h0c-22.091,0-40,17.909-40,40v64c0,35.346,28.654,64,64,64h96V88H80
				C71.163,88,64,80.837,64,72z"/>
		</g>
		<g>
			<path fill="#F0915A" d="M160,184H80c-35.346,0-64-28.654-64-64v0v0c0,8.837,7.163,16,16,16h128V184z"/>
		</g>
		<g>
			<rect x="80" y="136" fill="#463C4B" width="48" height="48"/>
		</g>
		<g>
			<rect x="80" y="88" fill="#555A6E" width="48" height="48"/>
		</g>
		<g>
			<rect x="384" y="136" fill="#463C4B" width="48" height="48"/>
		</g>
		<g>
			<rect x="384" y="88" fill="#555A6E" width="48" height="48"/>
		</g>
		<g>
			<path fill="#FAA019" d="M416,216H96v-32c0-88.365,71.634-160,160-160h0c88.365,0,160,71.634,160,160V216z"/>
		</g>
		<g>
			<path fill="#FFD205" d="M120,224c-4.418,0-8-3.582-8-8v-32c0-79.402,64.598-144,144-144c4.418,0,8,3.582,8,8s-3.582,8-8,8
				c-70.58,0-128,57.42-128,128v32C128,220.418,124.418,224,120,224z"/>
		</g>
		<g>
			<path fill="#F06423" d="M336,104L336,104c44.183,0,80,35.817,80,80v32H256v-32C256,139.817,291.817,104,336,104z"/>
		</g>
		<g>
			<path fill="#A5C3DC" d="M416,248H96c-4.418,0-8-3.582-8-8v-16c0-4.418,3.582-8,8-8h320c4.418,0,8,3.582,8,8v16
				C424,244.418,420.418,248,416,248z"/>
		</g>
		<g>
			<path fill="#D7E6F0" d="M256,248H96c-4.418,0-8-3.582-8-8v-16c0-4.418,3.582-8,8-8h160V248z"/>
		</g>
		<g>
			<path fill="#D7E6F0" d="M237.657,301.657l4.686,4.686C245.965,309.965,250.878,312,256,312h0v-64h-24v40
				C232,293.122,234.035,298.035,237.657,301.657z"/>
		</g>
		<g>
			<path fill="#A5C3DC" d="M274.343,301.657l-4.686,4.686C266.035,309.965,261.122,312,256,312l0,0v-64h24v40
				C280,293.122,277.965,298.035,274.343,301.657z"/>
		</g>
		<g>
			<path fill="#D7E6F0" d="M240,16h32c4.418,0,8,3.582,8,8v192h-48V24C232,19.582,235.582,16,240,16z"/>
		</g>
		<g>
			<path fill="#A5C3DC" d="M256,184v32h24v-89.131C265.189,141.388,256,161.621,256,184z"/>
		</g>
		<g>
			<rect x="104" y="216" fill="#FFFFFF" width="16" height="16"/>
		</g>
		<g>
			<rect x="232" y="34.667" fill="#FFFFFF" width="48" height="16"/>
		</g>
		<g>
			<path fill="#A5C3DC" d="M232,248H96c-4.418,0-8-3.582-8-8v-8h144V248z"/>
		</g>
	</g>
</g>
</svg>
