<?xml version="1.0" encoding="utf-8"?>
<!-- Generator: Adobe Illustrator 24.0.0, SVG Export Plug-In . SVG Version: 6.00 Build 0)  -->
<svg version="1.1" id="Layer_1" xmlns="http://www.w3.org/2000/svg" xmlns:xlink="http://www.w3.org/1999/xlink" x="0px" y="0px"
	 viewBox="0 0 512 512" enable-background="new 0 0 512 512" xml:space="preserve">
<g>
	<path fill="#A55023" d="M288,288h-80c-4.418,0-8,3.582-8,8v16c0,4.418,3.582,8,8,8h80c8.822,0,16-7.178,16-16S296.822,288,288,288z
		"/>
	<g>
		<path fill="#D26E28" d="M272,320H96c-26.51,0-48,21.49-48,48v128h272V368C320,341.49,298.51,320,272,320z"/>
	</g>
	<g>
		<path fill="#463C4B" d="M288,320c0-9.561-4.198-18.136-10.845-24c6.647-5.864,10.845-14.439,10.845-24c0-17.673-14.327-32-32-32
			s-32,14.327-32,32c0,9.561,4.198,18.136,10.845,24C228.198,301.864,224,310.439,224,320s4.198,18.136,10.845,24
			C228.198,349.864,224,358.439,224,368c0,12.058,6.672,22.553,16.522,28.009C240.193,397.287,240,398.619,240,400
			c0,8.837,7.164,16,16,16s16-7.163,16-16c0-1.381-0.193-2.713-0.522-3.991C281.328,390.553,288,380.058,288,368
			c0-9.561-4.198-18.136-10.845-24C283.802,338.136,288,329.561,288,320z"/>
	</g>
	<g>
		<path fill="#FAB991" d="M96,320L96,320c-26.51,0-48,21.49-48,48v128h96V368C144,341.49,122.51,320,96,320z"/>
	</g>
	<g>
		<path fill="#FAB991" d="M320,128H96v192h112v-32h64c26.51,0,48-21.49,48-48V128z"/>
	</g>
	<g>
		<rect x="208" y="128" fill="#F0915A" width="112" height="16"/>
	</g>
	<g>
		<path fill="#F0915A" d="M208,288h-80c-17.673,0-32,14.327-32,32v0h112V288z"/>
	</g>
	<path fill="#A55023" d="M160,288H96c-35.29,0-64,28.71-64,64v128c0,4.418,3.582,8,8,8s8-3.582,8-8V368c0-26.467,21.532-48,48-48h64
		c4.418,0,8-3.582,8-8v-16C168,291.582,164.418,288,160,288z"/>
	<g>
		<path fill="#463C4B" d="M288,240h-32v0c0,8.837,7.163,16,16,16h0C280.837,256,288,248.837,288,240L288,240z"/>
	</g>
	<g>
		<path fill="#F0915A" d="M280,224L280,224c-8.837,0-16-7.163-16-16v-32h0c17.673,0,32,14.327,32,32v0
			C296,216.837,288.837,224,280,224z"/>
	</g>
	<g>
		<circle fill="#463C4B" cx="244" cy="160" r="12"/>
	</g>
	<g>
		<circle fill="#463C4B" cx="284" cy="160" r="12"/>
	</g>
	<g>
		<g>
			<path fill="#463C4B" d="M312,48V24c0-4.418,3.582-8,8-8h0c13.255,0,24,10.745,24,24v40c0,8.837-7.163,16-16,16h-40
				c-13.255,0-24-10.745-24-24v0c0-13.255,10.745-24,24-24H312z"/>
		</g>
	</g>
	<g>
		<path fill="#A5C3DC" d="M320,96H80c-4.418,0-8,3.582-8,8v16c0,4.418,3.582,8,8,8h240c4.418,0,8-3.582,8-8v-16
			C328,99.582,324.418,96,320,96z"/>
	</g>
	<g>
		<path fill="#D7E6F0" d="M200,96H80c-4.418,0-8,3.582-8,8v16c0,4.418,3.582,8,8,8h120c4.418,0,8-3.582,8-8v-16
			C208,99.582,204.418,96,200,96z"/>
	</g>
	<g>
		<path fill="#F06423" d="M256,32H144c-35.346,0-64,28.654-64,64v0h240v0C320,60.654,291.346,32,256,32z"/>
	</g>
	<g>
		<path fill="#FAA019" d="M168,32h-24c-35.346,0-64,28.654-64,64v0h152v0C232,60.654,203.346,32,168,32z"/>
	</g>
	<g>
		<g>
			<path fill="#463C4B" d="M88,48V24c0-4.418-3.582-8-8-8h0c-13.255,0-24,10.745-24,24v40c0,8.837,7.163,16,16,16h40
				c13.255,0,24-10.745,24-24v0c0-13.255-10.745-24-24-24H88z"/>
		</g>
		<g>
			<g>
				<path fill="#A5C3DC" d="M112,96h24c13.255,0,24-10.745,24-24h-24C136,85.255,125.255,96,112,96z"/>
			</g>
			<g>
				<path fill="#D7E6F0" d="M136,48h-24c13.255,0,24,10.745,24,24v0h24v0C160,58.745,149.255,48,136,48z"/>
			</g>
		</g>
		<g>
			<path fill="#555A6E" d="M136,72H88V48h24C125.255,48,136,58.745,136,72L136,72z"/>
		</g>
	</g>
	<g>
		<path fill="#463C4B" d="M208,272V128H80v96c0,26.51,21.49,48,48,48h16c0,9.561,4.198,18.136,10.845,24
			C148.198,301.864,144,310.439,144,320s4.198,18.136,10.845,24C148.198,349.864,144,358.439,144,368
			c0,12.058,6.672,22.553,16.522,28.009C160.193,397.287,160,398.619,160,400c0,8.837,7.164,16,16,16s16-7.163,16-16
			c0-1.381-0.193-2.713-0.522-3.991C201.328,390.553,208,380.058,208,368c0-9.561-4.198-18.136-10.845-24
			c6.647-5.864,10.845-14.439,10.845-24s-4.198-18.136-10.845-24C203.802,290.136,208,281.561,208,272z"/>
	</g>
	<g>
		<g>
			<path fill="#A5C3DC" d="M429.361,172.833l-20.613-24.736C406.584,145.501,403.379,144,400,144l0,0
				c-3.379,0-6.584,1.501-8.748,4.097l-20.613,24.736c-1.705,2.046-2.639,4.626-2.639,7.29V408h64V180.123
				C432,177.459,431.066,174.879,429.361,172.833z"/>
		</g>
		<g>
			<path fill="#E1322D" d="M456,408H344c-4.418,0-8,3.582-8,8v8c0,13.255,10.745,24,24,24h80c13.255,0,24-10.745,24-24v-8
				C464,411.582,460.418,408,456,408z"/>
		</g>
		<g>
			<path fill="#F04B37" d="M456,408H344c-4.418,0-8,3.582-8,8l0,0c0,4.418,3.582,8,8,8h112c4.418,0,8-3.582,8-8l0,0
				C464,411.582,460.418,408,456,408z"/>
		</g>
		<g>
			<rect x="376" y="448" fill="#A55023" width="48" height="16"/>
		</g>
		<g>
			<rect x="376" y="456" fill="#D26E28" width="24" height="8"/>
		</g>
		<g>
			<path fill="#D7E6F0" d="M429.361,172.833l-20.613-24.736C406.584,145.501,403.379,144,400,144s-6.584,1.501-8.748,4.097
				l-20.613,24.736c-0.927,1.112-1.625,2.382-2.07,3.736L400,208l31.431-31.431C430.986,175.214,430.287,173.945,429.361,172.833z"
				/>
		</g>
		<g>
			<path fill="#87A5BE" d="M431.431,176.569L400,208v200h32V180.123C432,178.906,431.805,177.708,431.431,176.569z"/>
		</g>
	</g>
	<g>
		<path fill="#FAB991" d="M424,464h-48c-8.837,0-16,7.163-16,16v16h80v-16C440,471.163,432.837,464,424,464z"/>
	</g>
</g>
</svg>
