<?xml version="1.0" encoding="utf-8"?>
<!-- Generator: Adobe Illustrator 24.0.0, SVG Export Plug-In . SVG Version: 6.00 Build 0)  -->
<svg version="1.1" id="Layer_1" xmlns="http://www.w3.org/2000/svg" xmlns:xlink="http://www.w3.org/1999/xlink" x="0px" y="0px"
	 viewBox="0 0 512 512" enable-background="new 0 0 512 512" xml:space="preserve">
<g>
	<g>
		<path fill="#A55023" d="M227.973,54.997C220.239,48.811,216,39.239,216,29.336V24c0-4.418-3.582-8-8-8s-11.582,0-16,0
			s-8,3.582-8,8v5.336c0,9.903-4.239,19.475-11.973,25.661C164.696,60.861,160,69.882,160,80v400c0,8.837,7.164,16,16,16h48
			c8.836,0,16-7.163,16-16V80C240,69.882,235.304,60.861,227.973,54.997z"/>
	</g>
	<g>
		<path fill="#F5871E" d="M200,29.336V24c0-4.418-3.582-8-8-8h0c-4.418,0-8,3.582-8,8v5.336c0,9.903-4.239,19.475-11.973,25.661
			C164.696,60.861,160,69.882,160,80v400c0,8.837,7.163,16,16,16h32c8.837,0,16-7.163,16-16V80c0-10.118-4.696-19.139-12.027-25.003
			C204.239,48.811,200,39.239,200,29.336z"/>
	</g>
	<g>
		<path fill="#463C4B" d="M216,400h-64c-4.418,0-8-3.582-8-8V264c0-4.418,3.582-8,8-8h64c4.418,0,8,3.582,8,8v128
			C224,396.418,220.418,400,216,400z"/>
	</g>
	<g>
		<path fill="#555A6E" d="M200,400h-48c-4.418,0-8-3.582-8-8V264c0-4.418,3.582-8,8-8h48c4.418,0,8,3.582,8,8v128
			C208,396.418,204.418,400,200,400z"/>
	</g>
	<g>
		<path fill="#A5C3DC" d="M216,320h-80c-4.418,0-8-3.582-8-8v-16c0-4.418,3.582-8,8-8h80c4.418,0,8,3.582,8,8v16
			C224,316.418,220.418,320,216,320z"/>
	</g>
	<g>
		<path fill="#D7E6F0" d="M168,320h-32c-4.418,0-8-3.582-8-8v-16c0-4.418,3.582-8,8-8h32c4.418,0,8,3.582,8,8v16
			C176,316.418,172.418,320,168,320z"/>
	</g>
	<g>
		<path fill="#A55023" d="M355.973,54.997C348.239,48.811,344,39.239,344,29.336V24c0-4.418-3.582-8-8-8s-11.582,0-16,0
			s-8,3.582-8,8v5.336c0,9.903-4.239,19.475-11.973,25.661C292.696,60.861,288,69.882,288,80v400c0,8.837,7.164,16,16,16h48
			c8.836,0,16-7.163,16-16V80C368,69.882,363.304,60.861,355.973,54.997z"/>
	</g>
	<g>
		<path fill="#F5871E" d="M328,29.336V24c0-4.418-3.582-8-8-8l0,0c-4.418,0-8,3.582-8,8v5.336c0,9.903-4.239,19.475-11.973,25.661
			C292.696,60.861,288,69.882,288,80v400c0,8.837,7.163,16,16,16h32c8.837,0,16-7.163,16-16V80c0-10.118-4.696-19.139-12.027-25.003
			C332.239,48.811,328,39.239,328,29.336z"/>
	</g>
	<g>
		<path fill="#463C4B" d="M344,400h-64c-4.418,0-8-3.582-8-8V264c0-4.418,3.582-8,8-8h64c4.418,0,8,3.582,8,8v128
			C352,396.418,348.418,400,344,400z"/>
	</g>
	<g>
		<path fill="#555A6E" d="M328,400h-48c-4.418,0-8-3.582-8-8V264c0-4.418,3.582-8,8-8h48c4.418,0,8,3.582,8,8v128
			C336,396.418,332.418,400,328,400z"/>
	</g>
	<g>
		<path fill="#A5C3DC" d="M344,320h-80c-4.418,0-8-3.582-8-8v-16c0-4.418,3.582-8,8-8h80c4.418,0,8,3.582,8,8v16
			C352,316.418,348.418,320,344,320z"/>
	</g>
	<g>
		<path fill="#D7E6F0" d="M296,320h-32c-4.418,0-8-3.582-8-8v-16c0-4.418,3.582-8,8-8h32c4.418,0,8,3.582,8,8v16
			C304,316.418,300.418,320,296,320z"/>
	</g>
	<g>
		<g>
			<path fill="#D26E28" d="M408,464L408,464c-4.418,0-8-3.582-8-8V96h16v360C416,460.418,412.418,464,408,464z"/>
		</g>
		<g>
			<path fill="#A55023" d="M416,80h-8c-4.418,0-8,3.582-8,8v8h16V80z"/>
		</g>
		<g>
			<path fill="#A55023" d="M436,152c-11.028,0-20-8.972-20-20V80h8c17.645,0,32,14.355,32,32v20C456,143.028,447.028,152,436,152z
				 M432,98.147V132c0,2.206,1.794,4,4,4s4-1.794,4-4v-20C440,106.09,436.779,100.918,432,98.147z"/>
		</g>
		<g>
			<path fill="#F04B37" d="M424,432h-32c-4.418,0-8-3.582-8-8l0,0c0-4.418,3.582-8,8-8h32c4.418,0,8,3.582,8,8l0,0
				C432,428.418,428.418,432,424,432z"/>
		</g>
		<g>
			<path fill="#F5826E" d="M408,432h-16c-4.418,0-8-3.582-8-8l0,0c0-4.418,3.582-8,8-8h16c4.418,0,8,3.582,8,8l0,0
				C416,428.418,412.418,432,408,432z"/>
		</g>
	</g>
	<g>
		<g>
			<path fill="#D26E28" d="M104,464L104,464c-4.418,0-8-3.582-8-8V96h16v360C112,460.418,108.418,464,104,464z"/>
		</g>
		<g>
			<path fill="#A55023" d="M112,80h-8c-4.418,0-8,3.582-8,8v8h16V80z"/>
		</g>
		<g>
			<path fill="#A55023" d="M132,152c-11.028,0-20-8.972-20-20V80h8c17.645,0,32,14.355,32,32v20C152,143.028,143.028,152,132,152z
				 M128,98.147V132c0,2.206,1.794,4,4,4s4-1.794,4-4v-20C136,106.09,132.779,100.918,128,98.147z"/>
		</g>
		<g>
			<path fill="#F04B37" d="M120,432H88c-4.418,0-8-3.582-8-8l0,0c0-4.418,3.582-8,8-8h32c4.418,0,8,3.582,8,8l0,0
				C128,428.418,124.418,432,120,432z"/>
		</g>
		<g>
			<path fill="#F5826E" d="M104,432H88c-4.418,0-8-3.582-8-8l0,0c0-4.418,3.582-8,8-8h16c4.418,0,8,3.582,8,8l0,0
				C112,428.418,108.418,432,104,432z"/>
		</g>
	</g>
</g>
</svg>
