<?xml version="1.0" encoding="utf-8"?>
<!-- Generator: Adobe Illustrator 24.0.0, SVG Export Plug-In . SVG Version: 6.00 Build 0)  -->
<svg version="1.1" id="Layer_1" xmlns="http://www.w3.org/2000/svg" xmlns:xlink="http://www.w3.org/1999/xlink" x="0px" y="0px"
	 viewBox="0 0 512 512" enable-background="new 0 0 512 512" xml:space="preserve">
<g>
	<path fill="#F0915A" d="M144,120h-16c-35.346,0-64,28.654-64,64s28.654,64,64,64v-64h16c17.673,0,32-14.327,32-32l0,0
		C176,134.327,161.673,120,144,120z"/>
	<path fill="#463C4B" d="M128,152c-22.091,0-40,17.909-40,40s17.909,40,40,40v-48c8.837,0,16-7.164,16-16S136.837,152,128,152z"/>
	<g>
		<path fill="#463C4B" d="M408,40L408,40c4.418,0,8,3.582,8,8v56h-32V64C384,50.745,394.745,40,408,40z"/>
	</g>
	<g>
		<path fill="#F0915A" d="M416,376v32c0,8.837-7.163,16-16,16h0c-8.837,0-16-7.163-16-16v0h-48v-48h64
			C408.837,360,416,367.163,416,376z"/>
	</g>
	<g>
		<path fill="#F0915A" d="M128,344v-32h96v16c0,35.346-28.654,64-64,64h-16v48h0c8.837,0,16,7.163,16,16v0c0,8.837-7.163,16-16,16
			h-32c-8.837,0-16-7.163-16-16v-80C96,358.327,110.327,344,128,344L128,344z"/>
	</g>
	<path fill="#FAB991" d="M484.456,120h-29.829c-4.243,0-8.313-1.686-11.314-4.687l-17.941-17.941
		C419.371,91.372,411.232,88,402.745,88h-45.901c-8.025,0-15.518,4.01-19.969,10.687l-45.001,67.501
		C284.456,177.316,271.967,184,258.593,184H128c-35.346,0-64,44.654-64,80v80h0c-17.673,0-32,14.327-32,32v80
		c0,8.836,7.163,16,16,16h32c8.837,0,16-7.164,16-16l0,0c0-8.836-7.163-16-16-16v-48h16c35.346,0,64-28.654,64-64h64l10.912,10.912
		C248.414,352.414,266.728,360,285.824,360H288v96c0,8.836,7.163,16,16,16h32c8.837,0,16-7.164,16-16l0,0c0-8.836-7.163-16-16-16
		v-80c44.183,0,80-35.817,80-80v-96h39.368c10.004,0,18.959-6.206,22.472-15.573l14.107-37.618
		C493.908,125.579,490.042,120,484.456,120z"/>
	<g>
		<path fill="#555A6E" d="M256,184H128c-35.346,0-64,44.653-64,80v80c0,8.837,7.163,16,16,16h16c26.51,0,48-21.49,48-48h80
			c17.673,0,32-14.327,32-32V184z"/>
	</g>
	<g>
		<path fill="#555A6E" d="M477.84,168.427l14.107-37.618c1.961-5.23-1.905-10.809-7.491-10.809h-29.829
			c-4.243,0-8.313-1.686-11.314-4.687l-17.941-17.941c-2.735-2.735-5.918-4.917-9.373-6.49V144c0,4.418-3.582,8-8,8
			c-8.837,0-16,7.164-16,16l0,0c0,8.836,7.163,16,16,16h47.368C465.372,184,474.327,177.794,477.84,168.427z"/>
	</g>
	<g>
		<path fill="#F5826E" d="M481,160h-45c-2.209,0-4,1.791-4,4s1.791,4,4,4h42L481,160z"/>
	</g>
	<g>
		<circle fill="#463C4B" cx="408" cy="112" r="8"/>
	</g>
	<g>
		<path fill="#555A6E" d="M384,40L384,40c4.418,0,8,3.582,8,8v40h-32V64C360,50.745,370.745,40,384,40z"/>
	</g>
	<g>
		<path fill="#F0915A" d="M392,64L392,64l0,24h-16v-8C376,71.163,383.163,64,392,64z"/>
	</g>
	<g>
		<path fill="#463C4B" d="M490,136l1.947-5.191c1.961-5.23-1.905-10.809-7.491-10.809H480v12c0,2.209,1.791,4,4,4H490z"/>
	</g>
	<g>
		<path fill="#F04B37" d="M302.225,162.911l-4.9-4.899l-5.451,8.176c-1.197,1.796-2.539,3.462-3.983,5.018l3.02,3.02
			C307.533,190.847,329.631,200,353.137,200H416v-16h-62.863C333.905,184,315.824,176.511,302.225,162.911z"/>
	</g>
</g>
</svg>
