<?xml version="1.0" encoding="utf-8"?>
<!-- Generator: Adobe Illustrator 24.0.0, SVG Export Plug-In . SVG Version: 6.00 Build 0)  -->
<svg version="1.1" id="Layer_1" xmlns="http://www.w3.org/2000/svg" xmlns:xlink="http://www.w3.org/1999/xlink" x="0px" y="0px"
	 viewBox="0 0 512 512" enable-background="new 0 0 512 512" xml:space="preserve">
<g>
	<g>
		<path fill="#A5C3DC" d="M104,288c-0.455,0-0.903,0.031-1.348,0.068C99.376,278.712,90.474,272,80,272
			c-11.376,0-20.897,7.918-23.369,18.541C54.139,288.94,51.182,288,48,288c-8.837,0-16,7.163-16,16c0,2.573,0.622,4.996,1.701,7.149
			L16,320h88c8.837,0,16-7.163,16-16S112.837,288,104,288z"/>
	</g>
	<g>
		<path fill="#A5C3DC" d="M312,32c-0.455,0-0.903,0.031-1.348,0.068C307.376,22.712,298.474,16,288,16
			c-11.376,0-20.897,7.918-23.369,18.541C262.139,32.94,259.182,32,256,32c-8.837,0-16,7.163-16,16c0,2.573,0.622,4.996,1.701,7.149
			L224,64h88c8.837,0,16-7.163,16-16S320.837,32,312,32z"/>
	</g>
	<g>
		<path fill="#A5C3DC" d="M448,192c-0.455,0-0.903,0.031-1.348,0.068C443.376,182.712,434.474,176,424,176
			c-11.376,0-20.897,7.918-23.369,18.541C398.139,192.94,395.182,192,392,192c-8.837,0-16,7.163-16,16
			c0,2.573,0.622,4.996,1.701,7.149L360,224h88c8.837,0,16-7.163,16-16S456.837,192,448,192z"/>
	</g>
	<g>
		<path fill="#A55023" d="M494.311,400.845l-144-288c-2.71-5.421-8.25-8.845-14.311-8.845H176c-5.545,0-10.695,2.871-13.61,7.588
			c-2.915,4.717-3.181,10.607-0.7,15.567l144,288c2.71,5.421,8.25,8.845,14.311,8.845h160c5.545,0,10.695-2.871,13.61-7.588
			C496.525,411.695,496.791,405.804,494.311,400.845z"/>
		<g>
			<polygon fill="#D26E28" points="32,408 176,120 320,408 			"/>
		</g>
		<g>
			<rect x="176" y="304" fill="#463C4B" width="64" height="96"/>
		</g>
		<g>
			<path fill="#FAA019" d="M248,272h-80c-4.418,0-8,3.582-8,8v16c0,4.418,3.582,8,8,8h80c4.418,0,8-3.582,8-8v-16
				C256,275.582,252.418,272,248,272z"/>
		</g>
		<g>
			<path fill="#FFD205" d="M248,272h-80c-4.418,0-8,3.582-8,8l0,0c0,4.418,3.582,8,8,8h80c4.418,0,8-3.582,8-8l0,0
				C256,275.582,252.418,272,248,272z"/>
		</g>
		<g>
			<polygon fill="#A55023" points="176,120 32,408 80,408 200,168 			"/>
		</g>
		<path fill="#F5871E" d="M334.311,400.845L193.888,120l13.755-27.511c3.952-7.904,0.748-17.514-7.155-21.466
			s-17.515-0.748-21.466,7.156L176,84.223l-3.022-6.044c-3.951-7.903-13.56-11.105-21.466-7.156
			c-7.903,3.952-11.107,13.563-7.155,21.466L158.112,120L17.689,400.845c-3.952,7.903-0.748,17.514,7.155,21.466
			c7.904,3.952,17.516,0.748,21.466-7.156L176,155.777l129.689,259.378c2.803,5.607,8.453,8.849,14.323,8.848
			c2.404,0,4.846-0.544,7.143-1.692C335.059,418.359,338.263,408.748,334.311,400.845z"/>
	</g>
	<g>
		<path fill="#5FAA46" d="M488,448H24c-4.418,0-8-3.582-8-8v-32c0-4.418,3.582-8,8-8h464c4.418,0,8,3.582,8,8v32
			C496,444.418,492.418,448,488,448z"/>
	</g>
	<g>
		<path fill="#91C83C" d="M488,416H24c-4.418,0-8-3.582-8-8l0,0c0-4.418,3.582-8,8-8h464c4.418,0,8,3.582,8,8l0,0
			C496,412.418,492.418,416,488,416z"/>
	</g>
</g>
</svg>
