<?xml version="1.0" encoding="utf-8"?>
<!-- Generator: Adobe Illustrator 24.0.0, SVG Export Plug-In . SVG Version: 6.00 Build 0)  -->
<svg version="1.1" id="Layer_1" xmlns="http://www.w3.org/2000/svg" xmlns:xlink="http://www.w3.org/1999/xlink" x="0px" y="0px"
	 viewBox="0 0 512 512" enable-background="new 0 0 512 512" xml:space="preserve">
<g>
	<g>
		<path fill="#463C4B" d="M346.343,234.343L344,232c-8.837-8.837-23.163-8.837-32,0l0,0l-32-32l0,0c8.837-8.837,8.837-23.163,0-32
			l-2.343-2.343c-3.124-3.124-3.124-8.19,0-11.314L394.912,37.088C408.414,23.586,426.728,16,445.823,16l41.072,0
			c2.415,0,4.73,0.959,6.438,2.667v0c1.707,1.707,2.667,4.023,2.667,6.438l0,41.072c0,19.096-7.586,37.409-21.088,50.912
			L357.657,234.343C354.533,237.467,349.467,237.467,346.343,234.343z"/>
	</g>
	<g>
		<path fill="#555A6E" d="M283.313,168c-2.047,0-4.095-0.781-5.657-2.343c-3.125-3.124-3.125-8.19,0-11.314L394.912,37.088
			C408.51,23.49,426.591,16,445.823,16H480c4.418,0,8,3.582,8,8s-3.582,8-8,8h-34.177c-14.958,0-29.021,5.825-39.598,16.402
			L288.97,165.657C287.408,167.219,285.361,168,283.313,168z"/>
	</g>
	<g>
		<path fill="#555A6E" d="M208,336l-32-32L414.627,65.373c6.001-6.001,14.14-9.373,22.627-9.373l9.641,0
			c2.415,0,4.73,0.959,6.438,2.667v0c1.707,1.707,2.667,4.023,2.667,6.438v9.641c0,8.487-3.371,16.626-9.373,22.627L208,336z"/>
	</g>
	<g>
		<path fill="#463C4B" d="M298.343,298.343l-11.676-11.676c-8.1-8.1-21.233-8.1-29.333,0l0,0L296,248l26.343,26.343
			c3.124,3.124,3.124,8.19,0,11.314l-12.686,12.686C306.533,301.467,301.467,301.467,298.343,298.343z"/>
	</g>
	<g>
		<path fill="#463C4B" d="M225.333,225.333l-11.676-11.676c-3.124-3.124-3.124-8.19,0-11.314l12.686-12.686
			c3.124-3.124,8.19-3.124,11.314,0L264,216l-40,40l1.333-1.333C233.434,246.566,233.434,233.434,225.333,225.333z"/>
	</g>
	<g>
		
			<rect x="89.373" y="286.863" transform="matrix(0.7071 0.7071 -0.7071 0.7071 315.6468 37.9613)" fill="#F06423" width="45.255" height="226.274"/>
	</g>
	<g>
		
			<rect x="92.686" y="278.863" transform="matrix(0.7071 0.7071 -0.7071 0.7071 307.6468 41.275)" fill="#FAA019" width="22.627" height="226.274"/>
	</g>
	<g>
		<path fill="#73788C" d="M453.333,58.667C451.626,56.959,449.31,56,446.895,56h-9.641c-8.487,0-16.626,3.371-22.627,9.373L176,304
			l16,16L453.333,58.667L453.333,58.667z"/>
	</g>
	<g>
		<circle fill="#463C4B" cx="272" cy="240" r="8"/>
	</g>
	<g>
		<circle fill="#463C4B" cx="240" cy="272" r="8"/>
	</g>
	<g>
		<circle fill="#463C4B" cx="208" cy="304" r="8"/>
	</g>
</g>
</svg>
