<?xml version="1.0" encoding="utf-8"?>
<!-- Generator: Adobe Illustrator 24.0.0, SVG Export Plug-In . SVG Version: 6.00 Build 0)  -->
<svg version="1.1" id="Layer_1" xmlns="http://www.w3.org/2000/svg" xmlns:xlink="http://www.w3.org/1999/xlink" x="0px" y="0px"
	 viewBox="0 0 512 512" enable-background="new 0 0 512 512" xml:space="preserve">
<g>
	<g>
		<g>
			<path fill="#F06423" d="M468.686,132.686l-25.373-25.373c-6.248-6.248-16.379-6.248-22.627,0L192,336l48,48l228.686-228.686
				C474.935,149.065,474.935,138.935,468.686,132.686z"/>
		</g>
		<g>
			<path fill="#A55023" d="M91.314,436.686c-6.248,6.248-6.248,16.379,0,22.627l25.373,25.373c6.248,6.248,16.379,6.248,22.627,0
				L240,384l-48-48L91.314,436.686z"/>
		</g>
	</g>
	<g>
		<g>
			<path fill="#D26E28" d="M91.314,436.686c-6.248,6.248-6.248,16.379,0,22.627l1.373,1.373c6.248,6.248,16.379,6.248,22.627,0
				L216,360l-24-24L91.314,436.686z"/>
		</g>
		<g>
			<path fill="#FAA019" d="M324.686,228.686L312,216L192,336l24,24l108.686-108.686
				C330.935,245.065,330.935,234.935,324.686,228.686z"/>
		</g>
	</g>
	<g>
		<path fill="#463C4B" d="M484.672,196.703l-24-24c6.248,6.249,6.247,16.378-0.001,22.626l-57.357,57.357
			c-6.248,6.248-16.379,6.248-22.627,0l24,24c6.248,6.248,16.379,6.248,22.627,0l57.357-57.357
			C490.919,213.081,490.919,202.951,484.672,196.703z"/>
	</g>
	<g>
		<path fill="#555A6E" d="M265.371,22.629l-70.224,70.224C172.643,115.357,160,145.88,160,177.706v1.04
			c0,8.487,3.371,16.626,9.373,22.627l10.51,10.51c6.692,6.692,17.543,6.692,24.235,0l0,0c37.49-37.49,98.274-37.49,135.765,0
			l40.804,40.804c6.248,6.248,16.379,6.248,22.627,0l57.357-57.357c6.248-6.248,6.248-16.378,0.001-22.626L310.627,22.631
			C298.131,10.133,277.868,10.132,265.371,22.629z"/>
	</g>
	<g>
		<path fill="#73788C" d="M442.667,186.667L442.667,186.667c-2.946,2.946-7.721,2.946-10.667,0L282.667,37.333
			c-2.946-2.946-2.946-7.721,0-10.667l0,0c2.945-2.946,7.721-2.946,10.667,0L442.667,176
			C445.612,178.946,445.612,183.721,442.667,186.667z"/>
	</g>
	<g>
		<path fill="#A5C3DC" d="M184,202.745v-1.04c0-31.826,12.643-62.348,35.147-84.853l70.224-70.224
			c12.469-12.469,32.665-12.494,45.168-0.082l-23.911-23.916c-12.497-12.498-32.759-12.499-45.257-0.002l-70.224,70.224
			C172.643,115.357,160,145.88,160,177.706v1.04c0,8.487,3.371,16.626,9.373,22.627l10.51,10.51c2.044,2.044,4.477,3.455,7.06,4.251
			C185.025,211.973,184,207.413,184,202.745z"/>
	</g>
	<g>
		<path fill="#D7E6F0" d="M304.757,38.09l-11.424-11.424c-2.946-2.945-7.721-2.945-10.667,0v0c-2.946,2.945-2.946,7.721,0,10.667
			l8.04,8.04C294.83,41.69,299.677,39.265,304.757,38.09z"/>
	</g>
</g>
</svg>
