<?xml version="1.0" encoding="utf-8"?>
<!-- Generator: Adobe Illustrator 24.0.0, SVG Export Plug-In . SVG Version: 6.00 Build 0)  -->
<svg version="1.1" id="Layer_1" xmlns="http://www.w3.org/2000/svg" xmlns:xlink="http://www.w3.org/1999/xlink" x="0px" y="0px"
	 viewBox="0 0 512 512" enable-background="new 0 0 512 512" xml:space="preserve">
<g>
	<g>
		<path fill="#A55023" d="M432,64c-70.69,0-128,57.31-128,128H128c-35.35,0-64,28.65-64,64v96h56v16c0,8.84-7.16,16-16,16v96
			c0,8.84,7.16,16,16,16h40c4.42,0,8-3.58,8-8v-16c0-13.25-10.75-24-24-24v-32c11.04,0,21.04-4.48,28.28-11.72
			C179.52,397.04,184,387.04,184,376v-24h168v16h40v32h-8c-4.418,0-8,3.582-8,8v32c0,4.418,3.582,8,8,8h16c17.673,0,32-14.327,32-32
			v-72c0-8.836-7.164-16-16-16h-22.438c4.087-7.062,6.438-15.254,6.438-24V192c0-17.67,14.33-32,32-32h32V64H432z"/>
	</g>
	<g>
		<path fill="#463C4B" d="M112,256v-32c0-26.51-21.49-48-48-48h0c-26.51,0-48,21.49-48,48v112h0c26.51,0,48-21.49,48-48v-64
			c0-8.837,7.163-16,16-16h0c8.837,0,16,7.163,16,16v32H112z"/>
	</g>
	<g>
		<path fill="#555A6E" d="M448.022,16H432c-97.202,0-176,78.798-176,176v0h48l0,0c0-70.692,57.308-128,128-128h64v-0.022
			C496,37.48,474.52,16,448.022,16z"/>
	</g>
	<g>
		<path fill="#A55023" d="M464,64L464,64c17.673,0,32,14.327,32,32v0V32h0C478.327,32,464,46.327,464,64L464,64z"/>
	</g>
	<g>
		<path fill="#D26E28" d="M128,192v184c0,22.09-17.91,40-40,40v32c13.25,0,24,10.75,24,24v16c0,4.42-3.58,8-8,8H64
			c-8.84,0-16-7.16-16-16v-96c4.42,0,8.42-1.79,11.32-4.68c2.89-2.9,4.68-6.9,4.68-11.32V256C64,220.65,92.65,192,128,192z"/>
	</g>
	<g>
		<path fill="#463C4B" d="M304,192h-48v0c0-48.601,19.699-92.601,51.549-124.451l33.941,33.941C318.327,124.654,304,156.654,304,192
			z"/>
	</g>
	<g>
		<g>
			<path fill="#D26E28" d="M376,472v16c0,4.42-3.58,8-8,8h-40c-8.84,0-16-7.16-16-16V368c-22.09,0-40-17.91-40-40s17.91-40,40-40
				s40,17.91,40,40v120C365.25,448,376,458.75,376,472z"/>
		</g>
	</g>
	<g>
		<path fill="#FAA019" d="M272,288H144c-8.837,0-16-7.163-16-16v-80h160v80C288,280.837,280.837,288,272,288z"/>
	</g>
	<g>
		<path fill="#F5871E" d="M272,276H144c-2.209,0-4-1.791-4-4v-80h8v76h120v-76h8v80C276,274.209,274.209,276,272,276z"/>
	</g>
	<g>
		<path fill="#E1322D" d="M208,248L208,248c26.51,0,48-21.49,48-48v-8h-96v8C160,226.51,181.49,248,208,248z"/>
	</g>
	<g>
		<path fill="#F04B37" d="M208,237.692c0-4.328-2.921-8.196-7.141-9.158c-14.236-3.245-24.859-15.982-24.859-31.2V192h-16v8
			c0,22.65,15.688,41.636,36.792,46.684C202.522,248.055,208,243.584,208,237.692L208,237.692z"/>
	</g>
	<g>
		<path fill="#F04B37" d="M168,176L168,176c-4.418,0-8,3.582-8,8v8h16v-8C176,179.582,172.418,176,168,176z"/>
	</g>
	<g>
		<path fill="#E1322D" d="M248,176L248,176c-4.418,0-8,3.582-8,8v8h16v-8C256,179.582,252.418,176,248,176z"/>
	</g>
	<g>
		<path fill="#D26E28" d="M464,64h-32c-26.51,0-48,21.49-48,48l0,0c0,26.51,21.49,48,48,48l0,0v16c0,17.673,14.327,32,32,32l0,0
			c17.673,0,32-14.327,32-32V96C496,78.327,481.673,64,464,64z"/>
	</g>
	<g>
		<circle fill="#463C4B" cx="456" cy="104" r="8"/>
	</g>
	<g>
		<circle fill="#A55023" cx="456" cy="184" r="8"/>
	</g>
</g>
</svg>
