<?xml version="1.0" encoding="utf-8"?>
<!-- Generator: Adobe Illustrator 24.0.0, SVG Export Plug-In . SVG Version: 6.00 Build 0)  -->
<svg version="1.1" id="Layer_1" xmlns="http://www.w3.org/2000/svg" xmlns:xlink="http://www.w3.org/1999/xlink" x="0px" y="0px"
	 viewBox="0 0 512 512" enable-background="new 0 0 512 512" xml:space="preserve">
<g>
	<g>
		<path fill="#87A5BE" d="M400,336v128h0c8.837,0,16,7.163,16,16v0c0,8.837-7.163,16-16,16h-32c-8.837,0-16-7.163-16-16V336H400z"/>
	</g>
	<g>
		<path fill="#87A5BE" d="M160,352v-32h96v16c0,35.346-28.654,64-64,64h-16v64h0c8.837,0,16,7.163,16,16v0c0,8.837-7.163,16-16,16
			h-32c-8.837,0-16-7.163-16-16v-96C128,366.327,142.327,352,160,352L160,352z"/>
	</g>
	<g>
		<path fill="#D7E6F0" d="M160,192c-35.346,0-64,44.654-64,80v80l0,0c-17.673,0-32,14.327-32,32v96c0,8.836,7.164,16,16,16h32
			c8.836,0,16-7.164,16-16l0,0c0-8.836-7.164-16-16-16v-64h16c35.346,0,64-28.654,64-64h64l10.912,10.912
			C280.414,360.414,298.728,368,317.823,368H320v112c0,8.836,7.164,16,16,16h32c8.836,0,16-7.164,16-16l0,0c0-8.836-7.164-16-16-16
			v-96c44.183,0,80-35.817,80-80v-96H160z"/>
	</g>
	<g>
		<path fill="#87A5BE" d="M128,192c-35.346,0-64,28.654-64,64v80H48c0,8.837,7.163,16,16,16c35.346,0,64-28.653,64-64v-16
			c0-17.673,14.327-32,32-32h0v-48H128z"/>
	</g>
	<g>
		<path fill="#A5C3DC" d="M424,32L424,32c-4.418,0-8,3.582-8,8v16c0,4.418-3.582,8-8,8l0,0c-4.418,0-8-3.582-8-8V40
			c0-13.255-10.745-24-24-24h-8c-8.837,0-16,7.163-16,16v32l-22.627,22.627c-6.001,6.001-9.373,14.14-9.373,22.627V160
			c0,17.673-14.327,32-32,32H160c-35.346,0-64,44.653-64,80v80c0,8.837,7.163,16,16,16h16c26.51,0,48-21.49,48-48h240
			c17.673,0,32-14.327,32-32V56C448,42.745,437.255,32,424,32L424,32z"/>
	</g>
	<g>
		<path fill="#D7E6F0" d="M296,160h24c17.673,0,32-14.327,32-32v0h-24C310.327,128,296,142.327,296,160L296,160z"/>
	</g>
	<g>
		<path fill="#D7E6F0" d="M352,64v16c0,26.51,21.49,48,48,48h0c26.51,0,48,21.49,48,48v0V56c0-13.255-10.745-24-24-24h0
			c-4.418,0-8,3.582-8,8v16c0,4.418-3.582,8-8,8l0,0c-4.418,0-8-3.582-8-8V40c0-13.255-10.745-24-24-24h-8c-8.837,0-16,7.163-16,16
			V64z"/>
	</g>
	<g>
		<path fill="#555A6E" d="M352,80L352,80V64l0,0c4.418,0,8,3.582,8,8v0C360,76.418,356.418,80,352,80z"/>
	</g>
	<g>
		<path fill="#555A6E" d="M352,32h8c4.418,0,8-3.582,8-8v-8h0C359.163,16,352,23.163,352,32L352,32z"/>
	</g>
</g>
</svg>
