<?xml version="1.0" encoding="utf-8"?>
<!-- Generator: Adobe Illustrator 24.0.0, SVG Export Plug-In . SVG Version: 6.00 Build 0)  -->
<svg version="1.1" id="Layer_1" xmlns="http://www.w3.org/2000/svg" xmlns:xlink="http://www.w3.org/1999/xlink" x="0px" y="0px"
	 viewBox="0 0 512 512" enable-background="new 0 0 512 512" xml:space="preserve">
<g>
	<g>
		<g>
			<path fill="#D26E28" d="M256,16h98.745c8.487,0,16.626,3.371,22.627,9.373l35.48,35.48C435.357,83.357,448,113.88,448,145.706
				v220.589c0,31.826-12.643,62.348-35.147,84.853l-35.48,35.48c-6.001,6.001-14.141,9.373-22.627,9.373H256V16z"/>
		</g>
		<g>
			<path fill="#F5871E" d="M256,16h-98.745c-8.487,0-16.626,3.371-22.627,9.373l-35.48,35.48C76.643,83.357,64,113.88,64,145.706
				v220.589c0,31.826,12.643,62.348,35.147,84.853l35.48,35.48c6.001,6.001,14.141,9.373,22.627,9.373H256V16z"/>
		</g>
		<g>
			<path fill="#D26E28" d="M192,16l-20.556,51.391C163.884,86.29,160,106.458,160,126.813v258.374
				c0,20.355,3.884,40.523,11.444,59.422L192,496h-34.745c-8.487,0-16.626-3.371-22.627-9.373l-35.48-35.48
				C76.643,428.643,64,398.12,64,366.294V145.706c0-31.826,12.643-62.348,35.147-84.853l35.48-35.48
				C140.629,19.371,148.768,16,157.255,16H192z"/>
		</g>
		<g>
			<path fill="#A55023" d="M412.853,60.853l-35.48-35.48C371.371,19.371,363.232,16,354.745,16H320l16,40H104l-4.853,4.853
				c-1.031,1.031-2.033,2.084-3.022,3.147H339.2l1.356,3.391C348.116,86.29,352,106.458,352,126.813V200H64v16h288v136H64v14.294
				c0,0.569,0.013,1.137,0.021,1.706H352v17.187c0,20.355-3.884,40.523-11.444,59.422L320,496h34.745
				c8.487,0,16.626-3.371,22.627-9.373l35.48-35.48c22.102-22.102,34.683-51.938,35.126-83.147l0,0
				c0.008-0.568,0.021-1.136,0.021-1.706V352V216v-16v-54.294C448,113.88,435.357,83.357,412.853,60.853z"/>
		</g>
		<g>
			<path fill="#87A5BE" d="M149.255,16h213.49c8.487,0,16.626,3.371,22.627,9.373l23.799,23.799c2.52,2.52,0.735,6.828-2.828,6.828
				H105.657c-3.564,0-5.348-4.309-2.828-6.828l23.799-23.799C132.629,19.371,140.768,16,149.255,16z"/>
		</g>
		<g>
			<path fill="#87A5BE" d="M448,200H64c-4.418,0-8-3.582-8-8v-24c0-4.418,3.582-8,8-8h384c4.418,0,8,3.582,8,8v24
				C456,196.418,452.418,200,448,200z"/>
		</g>
		<g>
			<path fill="#87A5BE" d="M448,352H64c-4.418,0-8-3.582-8-8v-24c0-4.418,3.582-8,8-8h384c4.418,0,8,3.582,8,8v24
				C456,348.418,452.418,352,448,352z"/>
		</g>
		<g>
			<path fill="#A5C3DC" d="M256,16H149.255c-8.487,0-16.626,3.371-22.627,9.373l-23.799,23.799c-2.52,2.52-0.735,6.828,2.828,6.828
				H256V16z"/>
		</g>
		<g>
			<path fill="#A5C3DC" d="M256,160H64c-4.418,0-8,3.582-8,8v24c0,4.418,3.582,8,8,8h192V160z"/>
		</g>
		<g>
			<path fill="#A5C3DC" d="M256,312H64c-4.418,0-8,3.582-8,8v24c0,4.418,3.582,8,8,8h192V312z"/>
		</g>
		<g>
			<polygon fill="#D7E6F0" points="168,16 144,56 160,56 184,16 			"/>
		</g>
		<g>
			<path fill="#87A5BE" d="M149.255,496h213.49c8.487,0,16.626-3.371,22.627-9.373l23.799-23.799c2.52-2.52,0.735-6.828-2.828-6.828
				H105.657c-3.564,0-5.348,4.309-2.828,6.828l23.799,23.799C132.629,492.629,140.768,496,149.255,496z"/>
		</g>
		<g>
			<path fill="#A5C3DC" d="M256,496H149.255c-8.487,0-16.626-3.371-22.627-9.373l-23.799-23.799c-2.52-2.52-0.735-6.828,2.828-6.828
				H256V496z"/>
		</g>
		<g>
			<polygon fill="#D7E6F0" points="168,496 144,456 160,456 184,496 			"/>
		</g>
		<g>
			<rect x="120" y="312" fill="#D7E6F0" width="16" height="40"/>
		</g>
		<g>
			<rect x="120" y="160" fill="#D7E6F0" width="16" height="40"/>
		</g>
	</g>
	<g>
		<circle fill="#A55023" cx="256" cy="272" r="32"/>
	</g>
	<g>
		<circle fill="#FAA019" cx="256" cy="256" r="32"/>
	</g>
	<g>
		<path fill="#FFD205" d="M280,264c-4.418,0-8-3.582-8-8c0-8.822-7.178-16-16-16s-16,7.178-16,16c0,4.418-3.582,8-8,8s-8-3.582-8-8
			c0-17.645,14.355-32,32-32c17.645,0,32,14.355,32,32C288,260.418,284.418,264,280,264z"/>
	</g>
</g>
</svg>
