<?xml version="1.0" encoding="utf-8"?>
<!-- Generator: Adobe Illustrator 23.0.0, SVG Export Plug-In . SVG Version: 6.00 Build 0)  -->
<svg version="1.1" id="Layer_1" xmlns="http://www.w3.org/2000/svg" xmlns:xlink="http://www.w3.org/1999/xlink" x="0px" y="0px"
	 viewBox="0 0 512 512" style="enable-background:new 0 0 512 512;" xml:space="preserve">
<style type="text/css">
	.st0{fill:#32283C;}
	.st1{fill:#463C4B;}
	.st2{fill:#E6E6EB;}
	.st3{fill:#A5C3DC;}
	.st4{fill:#FF4646;}
	.st5{fill:#CD3232;}
	.st6{fill:#F0915A;}
	.st7{fill:#FAB991;}
	.st8{fill:#F5732D;}
	.st9{fill:#FAA037;}
	.st10{fill:#78AF41;}
	.st11{fill:#788CB4;}
	.st12{fill:#466932;}
	.st13{fill:#FBB993;}
	.st14{fill:#F1905B;}
	.st15{fill:#23192D;}
	.st16{fill:#32293C;}
	.st17{fill:#B92323;}
</style>
<g>
	<g>
		<path class="st1" d="M256,168h-96c-70.692,0-128,57.308-128,128v144c0,17.673,14.327,32,32,32h288c17.673,0,32-14.327,32-32V296
			C384,225.308,326.692,168,256,168z"/>
	</g>
	<g>
		<path class="st0" d="M256,168h-48h0c17.673,0,32,14.327,32,32v240c0,17.673-14.327,32-32,32h0h144c17.673,0,32-14.327,32-32V296
			C384,225.308,326.692,168,256,168z"/>
	</g>
	<g>
		<path class="st4" d="M256,168h-96c-8.837,0-16-7.163-16-16v0c0-8.837,7.163-16,16-16h96c8.837,0,16,7.163,16,16v0
			C272,160.837,264.837,168,256,168z"/>
	</g>
	<g>
		<path class="st1" d="M256,136h-96c-26.51,0-48-21.49-48-48V56c0-8.837,7.163-16,16-16h9.373c4.243,0,8.313,1.686,11.314,4.686
			l16,16c6.248,6.248,16.379,6.248,22.627,0l9.373-9.373c6.248-6.248,16.379-6.248,22.627,0l9.373,9.373
			c6.248,6.248,16.379,6.248,22.627,0l16-16c3.001-3.001,7.07-4.686,11.314-4.686H288c8.837,0,16,7.163,16,16v32
			C304,114.51,282.51,136,256,136z"/>
	</g>
	<g>
		<path class="st0" d="M288,40h-9.373c-4.243,0-8.313,1.686-11.313,4.686l-16,16c-6.249,6.249-16.379,6.248-22.628,0l-9.372-9.373
			c-3.124-3.124-7.219-4.686-11.314-4.686V104c0,17.673-14.327,32-32,32h0h80c26.51,0,48-21.49,48-48V56
			C304,47.163,296.837,40,288,40z"/>
	</g>
	<g>
		<circle class="st0" cx="208" cy="328" r="96"/>
	</g>
	<path class="st2" d="M240,312c4.418,0,8-3.582,8-8v-1.538C248,285.665,234.335,272,217.538,272H216v-16c0-4.418-3.582-8-8-8
		s-8,3.582-8,8v16h-1.538C181.665,272,168,285.665,168,302.462c0,14.004,9.488,26.157,23.074,29.553l29.972,7.493
		c6.45,1.612,10.954,7.382,10.954,14.03c0,7.974-6.488,14.462-14.462,14.462h-19.076c-7.974,0-14.462-6.488-14.462-14.462V352
		c0-4.418-3.582-8-8-8s-8,3.582-8,8v1.538C168,370.335,181.665,384,198.462,384H200v16c0,4.418,3.582,8,8,8s8-3.582,8-8v-16h1.538
		C234.335,384,248,370.335,248,353.538c0-14.004-9.488-26.157-23.074-29.553l-29.972-7.493c-6.45-1.612-10.954-7.382-10.954-14.03
		c0-7.974,6.488-14.462,14.462-14.462h19.076c7.974,0,14.462,6.488,14.462,14.462V304C232,308.418,235.582,312,240,312z"/>
	<g>
		<path class="st8" d="M456,440H296c-4.418,0-8,3.582-8,8v16c0,4.418,3.582,8,8,8h160c4.418,0,8-3.582,8-8v-16
			C464,443.582,460.418,440,456,440z"/>
	</g>
	<g>
		<path class="st8" d="M456,312H296c-4.418,0-8,3.582-8,8v16c0,4.418,3.582,8,8,8h160c4.418,0,8-3.582,8-8v-16
			C464,315.582,460.418,312,456,312z"/>
	</g>
	<g>
		<path class="st8" d="M440,376H280c-4.418,0-8,3.582-8,8v16c0,4.418,3.582,8,8,8h160c4.418,0,8-3.582,8-8v-16
			C448,379.582,444.418,376,440,376z"/>
	</g>
	<g>
		<path class="st9" d="M472,408H312c-4.418,0-8,3.582-8,8v16c0,4.418,3.582,8,8,8h160c4.418,0,8-3.582,8-8v-16
			C480,411.582,476.418,408,472,408z"/>
	</g>
	<g>
		<path class="st9" d="M472,344H312c-4.418,0-8,3.582-8,8v16c0,4.418,3.582,8,8,8h160c4.418,0,8-3.582,8-8v-16
			C480,347.582,476.418,344,472,344z"/>
	</g>
	<g>
		<g>
			<path class="st9" d="M432,248h16v-24c0-4.418-3.582-8-8-8l0,0c-4.418,0-8,3.582-8,8V248z"/>
		</g>
		<g>
			<path class="st9" d="M440,296L440,296c4.418,0,8-3.582,8-8v-24h-16v24C432,292.418,435.582,296,440,296z"/>
		</g>
		<g>
			<path class="st9" d="M432,264v-16h-24c-4.418,0-8,3.582-8,8v0c0,4.418,3.582,8,8,8H432z"/>
		</g>
		<g>
			<path class="st9" d="M480,256L480,256c0-4.418-3.582-8-8-8h-24v16h24C476.418,264,480,260.418,480,256z"/>
		</g>
	</g>
	<g>
		<g>
			<path class="st9" d="M392,136h16v-24c0-4.418-3.582-8-8-8l0,0c-4.418,0-8,3.582-8,8V136z"/>
		</g>
		<g>
			<path class="st9" d="M400,184L400,184c4.418,0,8-3.582,8-8v-24h-16v24C392,180.418,395.582,184,400,184z"/>
		</g>
		<g>
			<path class="st9" d="M392,152v-16h-24c-4.418,0-8,3.582-8,8v0c0,4.418,3.582,8,8,8H392z"/>
		</g>
		<g>
			<path class="st9" d="M440,144L440,144c0-4.418-3.582-8-8-8h-24v16h24C436.418,152,440,148.418,440,144z"/>
		</g>
	</g>
	<g>
		<g>
			<path class="st9" d="M320,232h16v-24c0-4.418-3.582-8-8-8l0,0c-4.418,0-8,3.582-8,8V232z"/>
		</g>
		<g>
			<path class="st9" d="M328,280L328,280c4.418,0,8-3.582,8-8v-24h-16v24C320,276.418,323.582,280,328,280z"/>
		</g>
		<g>
			<path class="st9" d="M320,248v-16h-24c-4.418,0-8,3.582-8,8v0c0,4.418,3.582,8,8,8H320z"/>
		</g>
		<g>
			<path class="st9" d="M368,240L368,240c0-4.418-3.582-8-8-8h-24v16h24C364.418,248,368,244.418,368,240z"/>
		</g>
	</g>
</g>
</svg>
