<?xml version="1.0" encoding="utf-8"?>
<!-- Generator: Adobe Illustrator 22.0.1, SVG Export Plug-In . SVG Version: 6.00 Build 0)  -->
<svg version="1.1" id="Layer_1" xmlns="http://www.w3.org/2000/svg" xmlns:xlink="http://www.w3.org/1999/xlink" x="0px" y="0px"
	 viewBox="0 0 512 512" style="enable-background:new 0 0 512 512;" xml:space="preserve">
<style type="text/css">
	.st0{fill:#330D84;}
	.st1{fill:#EDF3FC;}
	.st2{fill:#5932AE;}
	.st3{fill:#FFFFFF;}
	.st4{fill:#FFE37B;}
	.st5{fill:#5D8EF9;}
	.st6{fill:#8C7BFD;}
	.st7{fill:#8AC9F9;}
	.st8{fill:#FFBE1B;}
	.st9{fill:#6857E5;}
</style>
<g>
	<g>
		<g>
			<path class="st1" d="M255.999,40.958c-118.778,0-215.071,96.294-215.071,215.074c0,118.776,96.293,215.068,215.071,215.068
				S471.07,374.808,471.07,256.032C471.07,137.252,374.777,40.958,255.999,40.958z"/>
		</g>
	</g>
	<g>
		<g>
			<path class="st1" d="M255.999,1.03C115.391,1.03,1,115.422,1,256.032C1,396.639,115.391,511.03,255.999,511.03
				S511,396.639,511,256.032C511,115.422,396.607,1.03,255.999,1.03z M255.999,502.861c-136.103,0-246.83-110.728-246.83-246.83
				c0-136.104,110.727-246.833,246.83-246.833c136.102,0,246.832,110.729,246.832,246.833
				C502.831,392.134,392.101,502.861,255.999,502.861z"/>
		</g>
	</g>
	<g>
		<g>
			<g>
				<path class="st0" d="M259.921,290.418c-3.072,2.404-6.093,4.395-9.08,6.141c0.195-0.114,0.389-0.222,0.584-0.338
					c0.212,3.158,0.735,6.45,1.76,9.645c0.705,2.199,2.889,3.97,5.988,5.543c6.816-6.293,16.465-18.625,19.767-39.692
					C274.377,278.412,267.306,284.642,259.921,290.418z"/>
			</g>
		</g>
		<g>
			<g>
				<path class="st0" d="M189.705,288.319c-6.718-5.125-12.329-10.072-16.281-15.566c-0.012,0.368-0.029,0.736-0.037,1.103
					c-0.523,22.582,9.615,33.427,17.879,38.505c4.433-2.003,7.753-4.112,8.517-6.495c1.035-3.227,1.559-6.555,1.768-9.744
					C197.375,293.672,193.187,290.976,189.705,288.319z"/>
			</g>
		</g>
	</g>
	<g>
		<g>
			<path class="st8" d="M253.185,305.866c-1.025-3.195-1.548-6.487-1.76-9.645c-4.642,2.76-9.198,4.892-13.726,6.988
				c-3.865,1.787-17.98,2.218-22.781-0.013c-3.691-1.719-8.519-4.237-13.365-7.083c-0.208,3.191-0.732,6.523-1.769,9.753
				c-1.198,3.734-8.659,6.797-16.875,9.835c1.586,2.189,16.814,22.186,43.869,22.186c28.185,0,42.741-20.654,43.781-22.186
				C261.759,312.938,254.586,310.238,253.185,305.866z"/>
		</g>
	</g>
	<g>
		<g>
			<path class="st2" d="M308.24,254.514c-2.301-53.452-8.852-119.364-81.783-119.364c-66.145,0-77.359,48.684-85.201,99.575
				c-12.443,80.777,60.327,81.868,60.327,81.868s-29.073-4.894-28.196-42.738c0.556-23.903,9.517-49.767,9.517-49.767
				s26.474-6.196,43.509-17.238c1.827-1.184-4.136,10.258-2.321,9.707c23.418-7.132,45.948-20.804,45.948-20.804
				s10.901,18.061,10.052,62.643c-0.84,44.224-28.117,58.427-28.117,58.427S311.371,327.276,308.24,254.514z"/>
		</g>
	</g>
	<g>
		<g>
			<path class="st5" d="M299.336,324.259l-28.712-8.655c0,0-14.579,22.283-43.847,22.283c-28.623,0-44.015-22.393-44.015-22.393
				l-29.917,8.853C136.924,329.061,126,343.684,126,360.291v40.827h200v-40.974C326,343.61,315.168,329.026,299.336,324.259z"/>
		</g>
	</g>
	<g>
		<g>
			<path class="st4" d="M270.038,195.753c0,0-22.529,13.671-45.948,20.804c-1.815,0.551,4.148-10.891,2.321-9.707
				c-17.035,11.042-43.509,17.238-43.509,17.238s-8.69,25.099-9.48,48.697c3.956,5.483,9.574,10.417,16.282,15.534
				c7.523,5.74,18.342,11.678,25.212,14.877c4.801,2.231,18.917,1.799,22.781,0.013c7.258-3.358,14.584-6.814,22.223-12.79
				c7.38-5.772,14.452-11.995,19.015-18.683c0.645-4.113,1.063-8.539,1.154-13.339C280.939,213.814,270.038,195.753,270.038,195.753
				z"/>
		</g>
	</g>
	<g>
		<g>
			<path class="st6" d="M225.943,152.503c-38.921,0-62.957,29.111-60.651,55.705c7.078-19.771,27.094-38.959,60.651-39.015
				c35.267-0.061,53.098,19.244,60.664,39.021C289.709,179.619,264.026,152.503,225.943,152.503z"/>
		</g>
	</g>
	<g>
		<g>
			<path class="st8" d="M383.243,130.933h-82.486c-10.359,0-18.757,8.402-18.757,18.76v44.717c0,10.358,8.399,18.758,18.757,18.758
				h13.561v25.311l25.749-25.311h43.177c10.355,0,18.757-8.4,18.757-18.758v-44.717C402,139.335,393.599,130.933,383.243,130.933z"
				/>
		</g>
	</g>
	<g>
		<g>
			<path class="st3" d="M382.827,150.289h-81.654c-1.94,0-3.514,1.573-3.514,3.514s1.573,3.514,3.514,3.514h81.654
				c1.94,0,3.514-1.573,3.514-3.514S384.768,150.289,382.827,150.289z"/>
		</g>
	</g>
	<g>
		<g>
			<path class="st3" d="M382.827,169.478h-81.654c-1.94,0-3.514,1.573-3.514,3.514s1.573,3.514,3.514,3.514h81.654
				c1.94,0,3.514-1.573,3.514-3.514S384.768,169.478,382.827,169.478z"/>
		</g>
	</g>
	<g>
		<g>
			<path class="st3" d="M362.827,188.668h-61.654c-1.94,0-3.514,1.573-3.514,3.514s1.573,3.514,3.514,3.514h61.654
				c1.94,0,3.514-1.573,3.514-3.514S364.768,188.668,362.827,188.668z"/>
		</g>
	</g>
	<g>
		<g>
			<path class="st0" d="M131.63,263.185c-14.766-3.545-26.292-14.594-30.001-28.732l-0.633-2.417l-0.626,2.417
				c-3.706,14.137-15.238,25.187-30.009,28.732l-2.515,0.602l2.515,0.604c14.772,3.544,26.303,14.59,30.009,28.731l0.626,2.415
				l0.633-2.415c3.709-14.142,15.235-25.187,30.001-28.731l2.526-0.604L131.63,263.185z"/>
		</g>
	</g>
	<g>
		<g>
			<path class="st0" d="M140.315,317.711c-7.383-1.772-13.146-7.297-15.001-14.366l-0.316-1.208l-0.313,1.208
				c-1.853,7.069-7.619,12.594-15.005,14.366l-1.257,0.301l1.257,0.302c7.386,1.772,13.152,7.295,15.005,14.366l0.313,1.208
				l0.316-1.208c1.855-7.071,7.617-12.594,15.001-14.366l1.263-0.302L140.315,317.711z"/>
		</g>
	</g>
	<g>
		<g>
			<path class="st8" d="M310.097,94.11c-14.292-3.431-23.372-10.542-27.521-26.356l-0.58-2.217l-0.575,2.217
				c-3.4,12.969-13.978,23.104-27.528,26.356l-2.307,0.552l2.307,0.554c13.55,3.251,24.129,13.383,27.528,26.356l0.575,2.215
				l0.58-2.215c3.403-12.972,13.975-23.105,27.521-26.356l2.317-0.554L310.097,94.11z"/>
		</g>
	</g>
	<g>
		<g>
			<path class="st5" d="M376.936,305.776c-13.95-3.349-24.838-13.787-28.343-27.143l-0.598-2.283l-0.592,2.283
				c-3.501,13.356-14.395,23.794-28.35,27.143l-2.376,0.568l2.376,0.57c13.955,3.348,24.849,13.783,28.35,27.142l0.592,2.282
				l0.598-2.282c3.504-13.359,14.393-23.794,28.343-27.142l2.386-0.57L376.936,305.776z"/>
		</g>
	</g>
	<g>
		<g>
			<path class="st5" d="M415.342,346.335c-8.339-2.002-14.847-8.241-16.942-16.225l-0.357-1.365l-0.354,1.365
				c-2.093,7.984-8.605,14.223-16.947,16.225l-1.42,0.34l1.42,0.341c8.342,2.001,14.854,8.239,16.947,16.225l0.354,1.364
				l0.357-1.364c2.095-7.986,8.603-14.224,16.942-16.225l1.426-0.341L415.342,346.335z"/>
		</g>
	</g>
</g>
</svg>
