<?xml version="1.0" encoding="utf-8"?>
<!-- Generator: Adobe Illustrator 22.0.1, SVG Export Plug-In . SVG Version: 6.00 Build 0)  -->
<svg version="1.1" id="Layer_1" xmlns="http://www.w3.org/2000/svg" xmlns:xlink="http://www.w3.org/1999/xlink" x="0px" y="0px"
	 viewBox="0 0 512 512" style="enable-background:new 0 0 512 512;" xml:space="preserve">
<style type="text/css">
	.st0{fill:#330D84;}
	.st1{fill:#EDF3FC;}
	.st2{fill:#5932AE;}
	.st3{fill:#FFFFFF;}
	.st4{fill:#FFE37B;}
	.st5{fill:#5D8EF9;}
	.st6{fill:#8C7BFD;}
	.st7{fill:#8AC9F9;}
	.st8{fill:#FFBE1B;}
	.st9{fill:#6857E5;}
</style>
<g>
	<g>
		<g>
			<g>
				<path class="st1" d="M255.999,40.928c-118.778,0-215.071,96.294-215.071,215.074c0,118.776,96.292,215.068,215.071,215.068
					S471.07,374.778,471.07,256.002C471.07,137.222,374.777,40.928,255.999,40.928z"/>
			</g>
		</g>
		<g>
			<g>
				<path class="st1" d="M255.999,1C115.391,1,1,115.392,1,256.002C1,396.609,115.391,511,255.999,511S511,396.609,511,256.002
					C511,115.392,396.607,1,255.999,1z M255.999,502.831c-136.103,0-246.83-110.727-246.83-246.829
					c0-136.104,110.727-246.833,246.83-246.833c136.102,0,246.832,110.729,246.832,246.833
					C502.831,392.104,392.101,502.831,255.999,502.831z"/>
			</g>
		</g>
	</g>
	<g>
		<g>
			<path class="st2" d="M256,141c-63.513,0-115,51.487-115,115c0,21.858,6.099,42.291,16.686,59.691L141,380.582l60.301-23.4
				C217.568,365.994,236.199,371,256,371c63.513,0,115-51.487,115-115S319.513,141,256,141z"/>
		</g>
	</g>
	<g>
		<g>
			<path class="st8" d="M382.311,329.125c-7.81-12.567-23.849-14.354-34.141-10.162c-7.953,3.24-13.838,13.297-14.386,14.259
				c-0.549-0.961-6.434-11.019-14.386-14.259c-10.292-4.193-26.331-2.406-34.141,10.162c-7.815,12.576-0.59,31.744,12.546,46.475
				c14.403,16.152,34.442,27.098,35.935,27.902l0.046,0.025l0.046-0.025c1.494-0.804,21.532-11.751,35.935-27.902
				C382.901,360.868,390.126,341.7,382.311,329.125z"/>
		</g>
	</g>
	<g>
		<g>
			<path class="st3" d="M239.034,223.028c-6.83-9.401-17.413-14.794-29.034-14.794s-22.204,5.392-29.034,14.794
				c-1.623,2.234-1.128,5.361,1.106,6.984c2.231,1.623,5.36,1.128,6.983-1.106c4.928-6.782,12.562-10.671,20.944-10.671
				s16.017,3.89,20.944,10.671c0.979,1.347,2.503,2.062,4.049,2.062c1.02,0,2.048-0.311,2.935-0.955
				C240.162,228.389,240.657,225.262,239.034,223.028z"/>
		</g>
	</g>
	<g>
		<g>
			<path class="st3" d="M331.034,223.028c-6.83-9.401-17.413-14.794-29.034-14.794s-22.204,5.392-29.034,14.794
				c-1.623,2.234-1.128,5.361,1.106,6.984c2.231,1.623,5.359,1.128,6.983-1.106c4.928-6.782,12.562-10.671,20.944-10.671
				s16.017,3.89,20.944,10.671c0.979,1.347,2.503,2.062,4.049,2.062c1.02,0,2.048-0.311,2.935-0.955
				C332.162,228.389,332.657,225.262,331.034,223.028z"/>
		</g>
	</g>
	<g>
		<g>
			<path class="st3" d="M218.833,272.167c0,20.527,16.64,37.167,37.167,37.167c20.526,0,37.167-16.64,37.167-37.167H218.833z"/>
		</g>
	</g>
	<g>
		<g>
			<path class="st8" d="M299.722,410.071c-13.135-3.288-23.385-13.544-26.681-26.677l-0.557-2.242l-0.564,2.242
				c-3.289,13.133-13.545,23.389-26.677,26.677L243,410.635l2.242,0.564c13.132,3.289,23.388,13.542,26.677,26.674l0.564,2.24
				l0.557-2.24c3.296-13.132,13.546-23.385,26.681-26.674l2.243-0.564L299.722,410.071z"/>
		</g>
	</g>
	<g>
		<g>
			<path class="st8" d="M226.411,397.187c-9.099-2.278-16.2-9.383-18.484-18.481l-0.386-1.553l-0.391,1.553
				c-2.279,9.098-9.384,16.203-18.481,18.481l-1.553,0.391l1.553,0.391c9.097,2.279,16.203,9.382,18.481,18.479l0.391,1.552
				l0.386-1.552c2.283-9.097,9.385-16.201,18.484-18.479l1.554-0.391L226.411,397.187z"/>
		</g>
	</g>
	<g>
		<g>
			<path class="st5" d="M136.315,169.203c-12.81-3.207-22.806-13.209-26.02-26.016L109.751,141l-0.55,2.186
				c-3.208,12.807-13.21,22.81-26.017,26.016l-2.187,0.55l2.187,0.55c12.807,3.208,22.809,13.207,26.017,26.013l0.55,2.185
				l0.544-2.185c3.214-12.806,13.211-22.806,26.02-26.013l2.187-0.55L136.315,169.203z"/>
		</g>
	</g>
	<g>
		<g>
			<path class="st0" d="M407.916,154.43c-16.87-4.224-30.035-17.396-34.269-34.264l-0.716-2.879l-0.725,2.879
				c-4.225,16.867-17.397,30.04-34.264,34.264l-2.88,0.725l2.88,0.725c16.866,4.224,30.039,17.394,34.264,34.26l0.725,2.878
				l0.716-2.878c4.233-16.866,17.399-30.035,34.269-34.26l2.881-0.725L407.916,154.43z"/>
		</g>
	</g>
</g>
</svg>
