<?xml version="1.0" encoding="utf-8"?>
<!-- Generator: Adobe Illustrator 22.0.1, SVG Export Plug-In . SVG Version: 6.00 Build 0)  -->
<svg version="1.1" id="Layer_1" xmlns="http://www.w3.org/2000/svg" xmlns:xlink="http://www.w3.org/1999/xlink" x="0px" y="0px"
	 viewBox="0 0 512 512" style="enable-background:new 0 0 512 512;" xml:space="preserve">
<style type="text/css">
	.st0{fill:#330D84;}
	.st1{fill:#EDF3FC;}
	.st2{fill:#5932AE;}
	.st3{fill:#FFFFFF;}
	.st4{fill:#FFE37B;}
	.st5{fill:#5D8EF9;}
	.st6{fill:#8C7BFD;}
	.st7{fill:#8AC9F9;}
	.st8{fill:#FFBE1B;}
	.st9{fill:#6857E5;}
</style>
<g>
	<g>
		<g>
			<path class="st1" d="M255.999,40.928c-118.778,0-215.071,96.294-215.071,215.074c0,118.776,96.292,215.068,215.071,215.068
				S471.07,374.778,471.07,256.002C471.07,137.222,374.777,40.928,255.999,40.928z"/>
		</g>
	</g>
	<g>
		<g>
			<path class="st1" d="M255.999,1C115.391,1,1,115.392,1,256.002C1,396.609,115.391,511,255.999,511S511,396.609,511,256.002
				C511,115.392,396.607,1,255.999,1z M255.999,502.832c-136.103,0-246.83-110.728-246.83-246.83
				c0-136.104,110.727-246.833,246.83-246.833c136.102,0,246.832,110.729,246.832,246.833
				C502.831,392.104,392.101,502.832,255.999,502.832z"/>
		</g>
	</g>
	<g>
		<g>
			<path class="st7" d="M325.457,133.08l-93.692,0l-66.103,66.101V358.04c0,11.533,9.348,20.88,20.876,20.88h138.919
				c11.53,0,20.881-9.347,20.881-20.88V153.957C346.338,142.427,336.987,133.08,325.457,133.08z"/>
		</g>
	</g>
	<g>
		<g>
			<path class="st5" d="M165.662,199.181h45.227c11.528,0,20.876-9.347,20.876-20.876V133.08L165.662,199.181z"/>
		</g>
	</g>
	<g>
		<g>
			<path class="st0" d="M277.148,209.307c-2.005-2.051-4.657-3.135-7.669-3.135c-3.63,0-6.912,1.481-9.484,4.278
				c-2.529,2.747-3.813,6.104-3.813,9.982c0,3.2,1.007,5.878,2.988,7.955c2.003,2.109,4.636,3.224,7.611,3.224
				c3.56,0,6.738-1.51,9.452-4.488c2.614-2.875,3.941-6.259,3.941-10.06C280.175,214.019,279.13,211.338,277.148,209.307z"/>
		</g>
	</g>
	<g>
		<g>
			<path class="st0" d="M276.608,305.284l-3.755-3.659c-1.479-1.442-3.829-1.463-5.337-0.049c-5.883,5.527-9.313,8.266-11.256,9.622
				c0.571-4.457,2.909-14.793,9.864-38.157c5.63-18.84,6.406-23.051,6.406-24.795c0-2.7-1.051-4.994-3.041-6.639
				c-1.795-1.478-4.207-2.228-7.167-2.228c-4.435,0-9.475,1.628-15.411,4.977c-5.623,3.172-11.851,8.501-18.513,15.837
				c-0.725,0.797-1.083,1.86-0.989,2.933c0.096,1.072,0.633,2.057,1.486,2.715l4.238,3.274c1.524,1.179,3.683,1.049,5.057-0.295
				c6.165-6.026,8.777-8.232,9.877-9.034c-9.761,31.661-14.509,51.167-14.509,59.624c0,3.501,1.012,6.363,3.012,8.507
				c2.041,2.188,4.865,3.346,8.166,3.346c3.285,0,7.156-1.301,11.833-3.976c4.346-2.483,10.885-7.857,19.99-16.429
				c0.767-0.723,1.206-1.725,1.215-2.777S277.362,306.019,276.608,305.284z"/>
		</g>
	</g>
	<g>
		<g>
			<path class="st8" d="M391.312,123.312c-13.855-3.326-24.669-13.693-28.15-26.958l-0.594-2.268l-0.588,2.268
				c-3.477,13.265-14.297,23.632-28.157,26.958l-2.36,0.564l2.36,0.566c13.86,3.325,24.68,13.689,28.157,26.958l0.588,2.266
				l0.594-2.266c3.48-13.269,14.295-23.633,28.15-26.958l2.37-0.566L391.312,123.312z"/>
		</g>
	</g>
	<g>
		<g>
			<path class="st0" d="M147.764,269.275c-18.24-4.379-32.476-18.027-37.058-35.49l-0.782-2.985l-0.774,2.985
				c-4.578,17.463-18.822,31.111-37.068,35.49l-3.106,0.743l3.106,0.746c18.246,4.377,32.49,18.021,37.068,35.489l0.774,2.983
				l0.782-2.983c4.582-17.468,18.818-31.111,37.058-35.489l3.12-0.746L147.764,269.275z"/>
		</g>
	</g>
	<g>
		<g>
			<path class="st0" d="M153.548,347.514c-12.309-2.955-21.917-12.166-25.009-23.951l-0.527-2.015l-0.522,2.015
				c-3.089,11.785-12.702,20.996-25.016,23.951l-2.096,0.501l2.096,0.503c12.313,2.954,21.926,12.162,25.016,23.95l0.522,2.013
				l0.527-2.013c3.092-11.789,12.7-20.996,25.009-23.95l2.105-0.503L153.548,347.514z"/>
		</g>
	</g>
	<g>
		<g>
			<path class="st8" d="M420.508,197.233c-9.885-2.374-17.601-9.77-20.084-19.234l-0.424-1.618l-0.419,1.618
				c-2.481,9.464-10.201,16.861-20.089,19.234l-1.684,0.402l1.684,0.404c9.889,2.373,17.608,9.767,20.089,19.234l0.419,1.617
				l0.424-1.617c2.483-9.467,10.199-16.861,20.084-19.234l1.691-0.404L420.508,197.233z"/>
		</g>
	</g>
	<g>
		<g>
			<path class="st5" d="M391.312,392.769c-13.855-3.326-24.669-13.693-28.15-26.958l-0.594-2.268l-0.588,2.268
				c-3.477,13.265-14.297,23.632-28.157,26.958l-2.36,0.564l2.36,0.566c13.86,3.325,24.68,13.689,28.157,26.958l0.588,2.266
				l0.594-2.266c3.48-13.269,14.295-23.632,28.15-26.958l2.37-0.566L391.312,392.769z"/>
		</g>
	</g>
</g>
</svg>
