<?xml version="1.0" encoding="utf-8"?>
<!-- Generator: Adobe Illustrator 22.0.1, SVG Export Plug-In . SVG Version: 6.00 Build 0)  -->
<svg version="1.1" id="Layer_1" xmlns="http://www.w3.org/2000/svg" xmlns:xlink="http://www.w3.org/1999/xlink" x="0px" y="0px"
	 viewBox="0 0 512 512" style="enable-background:new 0 0 512 512;" xml:space="preserve">
<style type="text/css">
	.st0{fill:#330D84;}
	.st1{fill:#EDF3FC;}
	.st2{fill:#5932AE;}
	.st3{fill:#FFFFFF;}
	.st4{fill:#FFE37B;}
	.st5{fill:#5D8EF9;}
	.st6{fill:#8C7BFD;}
	.st7{fill:#8AC9F9;}
	.st8{fill:#FFBE1B;}
	.st9{fill:#6857E5;}
</style>
<g>
	<g>
		<g>
			<path class="st1" d="M255.999,40.928c-118.778,0-215.071,96.294-215.071,215.074c0,118.776,96.293,215.068,215.071,215.068
				c118.778,0,215.071-96.292,215.071-215.068C471.07,137.222,374.777,40.928,255.999,40.928z"/>
		</g>
	</g>
	<g>
		<g>
			<path class="st1" d="M255.999,1C115.391,1,1,115.392,1,256.002C1,396.609,115.391,511,255.999,511S511,396.609,511,256.002
				C511,115.392,396.607,1,255.999,1z M255.999,502.832c-136.103,0-246.83-110.728-246.83-246.83
				c0-136.104,110.727-246.834,246.83-246.834c136.102,0,246.832,110.729,246.832,246.834
				C502.831,392.104,392.101,502.832,255.999,502.832z"/>
		</g>
	</g>
	<g>
		<g>
			<path class="st0" d="M433.044,208.631c-13.252-3.182-23.596-13.098-26.925-25.786l-0.568-2.169l-0.562,2.169
				c-3.326,12.688-13.675,22.604-26.933,25.786l-2.257,0.54l2.257,0.542c13.257,3.181,23.607,13.094,26.933,25.786l0.562,2.167
				l0.568-2.167c3.329-12.692,13.673-22.605,26.925-25.786l2.267-0.542L433.044,208.631z"/>
		</g>
	</g>
	<g>
		<g>
			<path class="st8" d="M346.765,390.508c-18.178-4.364-32.366-17.966-36.933-35.37l-0.779-2.975l-0.771,2.975
				c-4.562,17.404-18.758,31.006-36.942,35.37l-3.096,0.74l3.096,0.743c18.184,4.363,32.38,17.96,36.942,35.369l0.771,2.973
				l0.779-2.973c4.567-17.409,18.755-31.006,36.933-35.369l3.109-0.743L346.765,390.508z"/>
		</g>
	</g>
	<g>
		<g>
			<path class="st8" d="M254.376,411.189c-7.349-1.764-13.084-7.263-14.93-14.299l-0.315-1.203l-0.312,1.203
				c-1.844,7.036-7.583,12.534-14.934,14.299l-1.251,0.299l1.251,0.3c7.351,1.764,13.09,7.261,14.934,14.298l0.312,1.202
				l0.315-1.202c1.846-7.038,7.582-12.535,14.93-14.298l1.257-0.3L254.376,411.189z"/>
		</g>
	</g>
	<g>
		<g>
			<path class="st5" d="M239.723,104.217c-14.794-3.552-26.341-14.621-30.057-28.785l-0.634-2.421l-0.628,2.421
				c-3.713,14.164-15.266,25.233-30.065,28.785l-2.52,0.603l2.52,0.605c14.799,3.551,26.352,14.617,30.065,28.784l0.628,2.419
				l0.634-2.419c3.716-14.168,15.263-25.234,30.057-28.784l2.53-0.605L239.723,104.217z"/>
		</g>
	</g>
	<g>
		<g>
			<path class="st5" d="M161.419,140.471c-10.283-2.469-18.309-10.163-20.892-20.008l-0.441-1.683l-0.436,1.683
				c-2.581,9.845-10.611,17.54-20.898,20.008L117,140.89l1.751,0.42c10.287,2.468,18.317,10.16,20.898,20.008l0.436,1.682
				l0.441-1.682c2.583-9.848,10.609-17.54,20.892-20.008l1.759-0.42L161.419,140.471z"/>
		</g>
	</g>
	<g>
		<g>
			<path class="st5" d="M326.621,150.314H185.378c-17.731,0-32.117,14.387-32.117,32.123v76.569
				c0,17.736,14.386,32.119,32.117,32.119h73.933l44.09,43.341v-43.341h23.22c17.737,0,32.118-14.383,32.118-32.119v-76.569
				C358.739,164.701,344.358,150.314,326.621,150.314z"/>
		</g>
	</g>
	<g>
		<g>
			<path class="st3" d="M325.909,184.475H186.091c-2.761,0-5,2.239-5,5s2.239,5,5,5h139.818c2.762,0,5-2.239,5-5
				S328.671,184.475,325.909,184.475z"/>
		</g>
	</g>
	<g>
		<g>
			<path class="st3" d="M325.909,217.333H186.091c-2.761,0-5,2.239-5,5s2.239,5,5,5h139.818c2.762,0,5-2.239,5-5
				S328.671,217.333,325.909,217.333z"/>
		</g>
	</g>
	<g>
		<g>
			<path class="st3" d="M325.909,250.192H220.091c-2.761,0-5,2.239-5,5s2.239,5,5,5h105.818c2.762,0,5-2.239,5-5
				S328.671,250.192,325.909,250.192z"/>
		</g>
	</g>
	<g>
		<g>
			<path class="st8" d="M254.948,289.685c0,0-36.182,0-46.891,0c-5.392,0-6.4-4.27-4.474-9.956c1.899-5.607,3.9-8.412,3.9-17.141
				c0-10.935-6.388-24.923-17.148-24.923c-6.672,0-4.314,14.931-13.646,35.401c-4.168,9.142-13.693,23.365-20.208,31.27v67.256
				c3.953,4.267,10.11,8.762,18.522,8.762c11.449,0,63.307-0.039,63.307-0.039c16.481,0,16.667-20.735,5.77-22.518l2.956,0.104
				c10.431-1.124,14.808-19.655,1.468-23.028l2.487-0.045c9.966-1.047,14.542-18.785,0.659-22.74l3.296-0.333
				C269.751,311.548,268.947,289.724,254.948,289.685z"/>
		</g>
	</g>
	<g>
		<g>
			<path class="st2" d="M149.293,295.89h-21.458c-3.971,0-7.187,3.224-7.187,7.187v70.092c0,3.971,3.215,7.186,7.187,7.186h21.458
				c3.963,0,7.187-3.215,7.187-7.186v-70.092C156.48,299.115,153.256,295.89,149.293,295.89z"/>
		</g>
	</g>
	<g>
		<g>
			<path class="st3" d="M143.089,304.224c-3.042,0-5.501,2.459-5.501,5.501s2.459,5.5,5.501,5.5s5.501-2.459,5.501-5.5
				S146.13,304.224,143.089,304.224z"/>
		</g>
	</g>
</g>
</svg>
