<?xml version="1.0" encoding="utf-8"?>
<!-- Generator: Adobe Illustrator 22.0.1, SVG Export Plug-In . SVG Version: 6.00 Build 0)  -->
<svg version="1.1" id="Layer_1" xmlns="http://www.w3.org/2000/svg" xmlns:xlink="http://www.w3.org/1999/xlink" x="0px" y="0px"
	 viewBox="0 0 512 512" style="enable-background:new 0 0 512 512;" xml:space="preserve">
<style type="text/css">
	.st0{fill:#330D84;}
	.st1{fill:#EDF3FC;}
	.st2{fill:#5932AE;}
	.st3{fill:#FFFFFF;}
	.st4{fill:#FFE37B;}
	.st5{fill:#5D8EF9;}
	.st6{fill:#8C7BFD;}
	.st7{fill:#8AC9F9;}
	.st8{fill:#FFBE1B;}
	.st9{fill:#6857E5;}
</style>
<g>
	<g>
		<g>
			<path class="st1" d="M255.999,40.928c-118.778,0-215.071,96.294-215.071,215.074c0,118.776,96.292,215.068,215.071,215.068
				S471.07,374.778,471.07,256.002C471.07,137.222,374.777,40.928,255.999,40.928z"/>
		</g>
	</g>
	<g>
		<g>
			<path class="st1" d="M255.999,1C115.391,1,1,115.392,1,256.002C1,396.609,115.391,511,255.999,511S511,396.609,511,256.002
				C511,115.392,396.607,1,255.999,1z M255.999,502.832c-136.103,0-246.83-110.728-246.83-246.83
				c0-136.104,110.727-246.833,246.83-246.833c136.102,0,246.832,110.729,246.832,246.833
				C502.831,392.104,392.101,502.832,255.999,502.832z"/>
		</g>
	</g>
	<g>
		<g>
			<path class="st8" d="M344.299,303.997c-2.539,0.718-5.26,1.044-8.108,0.89c-11.67-0.634-22.186,7.006-25.195,18.303
				c-4.602,17.307-25.527,24.107-39.427,12.809c-3.231-2.623-6.963-4.294-10.834-5.048l45.651,85.676l24.768-45.41l51.503,4.768
				L344.299,303.997z"/>
		</g>
	</g>
	<g>
		<g>
			<path class="st8" d="M240.43,335.999c-13.896,11.298-34.821,4.499-39.43-12.809c-3.007-11.297-13.522-18.937-25.19-18.303
				c-2.849,0.154-5.57-0.172-8.109-0.89l-38.358,71.987l51.503-4.768l24.768,45.41l45.651-85.676
				C247.393,331.705,243.662,333.375,240.43,335.999z"/>
		</g>
	</g>
	<g>
		<g>
			<path class="st5" d="M370.188,200.268c-9.82-6.349-13.832-18.706-9.625-29.616c6.441-16.705-6.486-34.503-24.371-33.538
				c-11.67,0.628-22.186-7.011-25.195-18.303c-4.602-17.309-25.527-24.105-39.427-12.813c-9.074,7.37-22.065,7.37-31.14,0
				c-13.896-11.292-34.821-4.495-39.43,12.813c-3.007,11.292-13.522,18.931-25.19,18.303c-17.887-0.965-30.813,16.833-24.371,33.538
				c4.203,10.91,0.188,23.267-9.62,29.616c-15.038,9.73-15.038,31.731,0,41.46c9.808,6.349,13.823,18.711,9.62,29.614
				c-6.442,16.713,6.484,34.511,24.371,33.544c11.668-0.634,22.184,7.006,25.19,18.303c4.608,17.307,25.534,24.107,39.43,12.809
				c9.074-7.365,22.065-7.365,31.14,0c13.899,11.298,34.825,4.499,39.427-12.809c3.01-11.297,13.525-18.937,25.195-18.303
				c17.885,0.966,30.813-16.832,24.371-33.544c-4.207-10.903-0.195-23.266,9.625-29.614
				C385.219,231.999,385.219,209.998,370.188,200.268z"/>
		</g>
	</g>
	<g>
		<g>
			<g>
				<path class="st2" d="M255.996,136.001c-46.94,0-84.996,38.052-84.996,85c0,46.943,38.056,84.997,84.996,84.997
					c46.946,0,85.004-38.054,85.004-84.997C341,174.054,302.942,136.001,255.996,136.001z"/>
			</g>
		</g>
		<g>
			<g>
				<path class="st0" d="M255.996,156.002c-35.897,0-65,29.099-65,64.999c0,35.896,29.103,64.999,65,64.999
					c35.899,0,65-29.102,65-64.999C320.997,185.101,291.895,156.002,255.996,156.002z"/>
			</g>
		</g>
	</g>
	<g>
		<g>
			<path class="st5" d="M282.835,419.728c-9.271-2.322-16.506-9.562-18.829-18.828l-0.399-1.581l-0.396,1.581
				c-2.322,9.267-9.561,16.506-18.832,18.828l-1.578,0.396l1.578,0.397c9.271,2.322,16.51,9.56,18.832,18.831l0.396,1.581
				l0.399-1.581c2.323-9.271,9.559-16.508,18.829-18.831l1.583-0.397L282.835,419.728z"/>
		</g>
	</g>
	<g>
		<g>
			<path class="st8" d="M418.375,173.832c-10.555-2.645-18.793-10.886-21.443-21.441l-0.449-1.8l-0.451,1.8
				c-2.639,10.556-10.887,18.797-21.445,21.441l-1.793,0.453l1.793,0.455c10.559,2.643,18.807,10.881,21.445,21.437l0.451,1.801
				l0.449-1.801c2.65-10.556,10.889-18.794,21.443-21.437l1.803-0.455L418.375,173.832z"/>
		</g>
	</g>
	<g>
		<g>
			<path class="st0" d="M142.889,289.429c-10.626-2.664-18.921-10.967-21.59-21.591l-0.455-1.815l-0.451,1.815
				c-2.667,10.625-10.967,18.927-21.596,21.591l-1.811,0.453l1.811,0.453c10.629,2.663,18.929,10.963,21.596,21.591l0.451,1.814
				l0.455-1.814c2.669-10.628,10.964-18.928,21.59-21.591l1.818-0.453L142.889,289.429z"/>
		</g>
	</g>
	<g>
		<g>
			<path class="st0" d="M106.251,243.153c-8.462-2.121-15.068-8.733-17.194-17.195l-0.362-1.446l-0.359,1.446
				c-2.124,8.462-8.733,15.074-17.199,17.195l-1.441,0.361l1.441,0.361c8.466,2.121,15.075,8.731,17.199,17.195l0.359,1.445
				l0.362-1.445c2.126-8.464,8.732-15.074,17.194-17.195l1.448-0.361L106.251,243.153z"/>
		</g>
	</g>
	<g>
		<g>
			<path class="st8" d="M303.333,202.075h-31.139l-9.623-29.615c-1.499-4.613-8.025-4.613-9.524,0l-9.622,29.615h-31.139
				c-4.851,0-6.867,6.207-2.943,9.058l25.192,18.303l-9.622,29.615c-1.499,4.613,3.781,8.449,7.705,5.598l25.192-18.303
				l25.192,18.303c3.924,2.851,9.204-0.985,7.705-5.598l-9.622-29.615l25.192-18.303C310.2,208.282,308.183,202.075,303.333,202.075
				z"/>
		</g>
	</g>
</g>
</svg>
