<?xml version="1.0" encoding="utf-8"?>
<!-- Generator: Adobe Illustrator 22.0.1, SVG Export Plug-In . SVG Version: 6.00 Build 0)  -->
<svg version="1.1" id="Layer_1" xmlns="http://www.w3.org/2000/svg" xmlns:xlink="http://www.w3.org/1999/xlink" x="0px" y="0px"
	 viewBox="0 0 512 512" style="enable-background:new 0 0 512 512;" xml:space="preserve">
<style type="text/css">
	.st0{fill:#330D84;}
	.st1{fill:#EDF3FC;}
	.st2{fill:#5932AE;}
	.st3{fill:#FFFFFF;}
	.st4{fill:#FFE37B;}
	.st5{fill:#5D8EF9;}
	.st6{fill:#8C7BFD;}
	.st7{fill:#8AC9F9;}
	.st8{fill:#FFBE1B;}
	.st9{fill:#6857E5;}
</style>
<g>
	<g>
		<g>
			<path class="st1" d="M255.999,40.928c-118.778,0-215.071,96.294-215.071,215.074c0,118.776,96.292,215.068,215.071,215.068
				S471.07,374.778,471.07,256.002C471.07,137.222,374.777,40.928,255.999,40.928z"/>
		</g>
	</g>
	<g>
		<g>
			<path class="st1" d="M255.999,1C115.391,1,1,115.392,1,256.002C1,396.609,115.391,511,255.999,511S511,396.609,511,256.002
				C511,115.392,396.607,1,255.999,1z M255.999,502.832c-136.103,0-246.83-110.728-246.83-246.83
				c0-136.104,110.727-246.833,246.83-246.833c136.102,0,246.832,110.729,246.832,246.833
				C502.831,392.104,392.101,502.832,255.999,502.832z"/>
		</g>
	</g>
	<g>
		<g>
			<path class="st0" d="M357.676,153.702H154.328c-12.872,0-23.307,10.435-23.307,23.301v146.195h249.958V177.003
				C380.979,164.137,370.546,153.702,357.676,153.702z"/>
		</g>
	</g>
	<g>
		<g>
			<path class="st9" d="M104.669,322.793v10.371c0,8.655,7.02,15.675,15.679,15.675h271.308c8.658,0,15.675-7.02,15.675-15.675
				v-10.371H104.669z"/>
		</g>
	</g>
	<g>
		<g>
			<rect x="149.552" y="177.003" class="st7" width="212.896" height="146.195"/>
		</g>
	</g>
	<g>
		<g>
			<path class="st0" d="M250.879,397.964c-15.851-3.806-28.223-15.667-32.205-30.842l-0.679-2.594l-0.673,2.594
				c-3.978,15.176-16.357,27.037-32.214,30.842l-2.7,0.646l2.7,0.648c15.857,3.804,28.236,15.662,32.214,30.842l0.673,2.592
				l0.679-2.592c3.982-15.18,16.354-27.038,32.205-30.842l2.711-0.648L250.879,397.964z"/>
		</g>
	</g>
	<g>
		<g>
			<path class="st0" d="M333.474,383.544c-11.063-2.656-19.697-10.934-22.476-21.525l-0.474-1.81l-0.469,1.81
				c-2.776,10.592-11.416,18.87-22.482,21.525l-1.884,0.451l1.884,0.452c11.067,2.655,19.706,10.93,22.482,21.525l0.469,1.809
				l0.474-1.809c2.779-10.595,11.414-18.87,22.476-21.525l1.892-0.452L333.474,383.544z"/>
		</g>
	</g>
	<g>
		<g>
			<path class="st8" d="M455.108,244.26c-11.061-2.656-19.694-10.932-22.472-21.521l-0.474-1.81l-0.469,1.81
				c-2.776,10.59-11.414,18.866-22.478,21.521l-1.884,0.45l1.884,0.453c11.064,2.654,19.702,10.928,22.478,21.521l0.469,1.809
				l0.474-1.809c2.779-10.593,11.412-18.866,22.472-21.521L457,244.71L455.108,244.26z"/>
		</g>
	</g>
	<g>
		<g>
			<path class="st5" d="M205.052,111.385c-13.042-3.131-23.221-12.89-26.498-25.376l-0.559-2.134l-0.553,2.134
				c-3.273,12.487-13.458,22.246-26.504,25.376l-2.221,0.531l2.221,0.533c13.046,3.13,23.231,12.886,26.504,25.376l0.553,2.133
				l0.559-2.133c3.276-12.49,13.456-22.246,26.498-25.376l2.231-0.533L205.052,111.385z"/>
		</g>
	</g>
	<g>
		<g>
			<path class="st5" d="M137.265,143.891c-7.049-1.692-12.552-6.967-14.323-13.716l-0.302-1.154l-0.299,1.154
				c-1.769,6.749-7.275,12.024-14.326,13.716l-1.201,0.287l1.201,0.289c7.052,1.692,12.557,6.965,14.326,13.716l0.299,1.153
				l0.302-1.153c1.771-6.751,7.273-12.024,14.323-13.716l1.206-0.289L137.265,143.891z"/>
		</g>
	</g>
	<g>
		<g>
			<path class="st3" d="M210.06,193.45h-24.118c-7.136,0-12.941,5.805-12.941,12.941v24.118c0,7.136,5.806,12.941,12.941,12.941
				h24.118c7.136,0,12.94-5.805,12.94-12.941v-24.118C223,199.255,217.195,193.45,210.06,193.45z M213,230.509
				c0,1.622-1.319,2.941-2.94,2.941h-24.118c-1.622,0-2.941-1.319-2.941-2.941v-24.118c0-1.622,1.319-2.941,2.941-2.941h24.118
				c1.621,0,2.94,1.319,2.94,2.941V230.509z"/>
		</g>
	</g>
	<g>
		<g>
			<path class="st3" d="M310.527,202.897h-65.333c-2.762,0-5,2.239-5,5s2.238,5,5,5h65.333c2.762,0,5-2.239,5-5
				S313.289,202.897,310.527,202.897z"/>
		</g>
	</g>
	<g>
		<g>
			<path class="st3" d="M330.527,222.897h-85.333c-2.762,0-5,2.239-5,5s2.238,5,5,5h85.333c2.762,0,5-2.239,5-5
				S333.289,222.897,330.527,222.897z"/>
		</g>
	</g>
	<g>
		<g>
			<path class="st3" d="M210.06,260.553h-24.118c-7.136,0-12.941,5.805-12.941,12.941v24.118c0,7.136,5.806,12.941,12.941,12.941
				h24.118c7.136,0,12.94-5.805,12.94-12.941v-24.118C223,266.358,217.195,260.553,210.06,260.553z M213,297.612
				c0,1.622-1.319,2.941-2.94,2.941h-24.118c-1.622,0-2.941-1.319-2.941-2.941v-24.118c0-1.622,1.319-2.941,2.941-2.941h24.118
				c1.621,0,2.94,1.319,2.94,2.941V297.612z"/>
		</g>
	</g>
	<g>
		<g>
			<path class="st3" d="M310.527,270h-65.333c-2.762,0-5,2.239-5,5s2.238,5,5,5h65.333c2.762,0,5-2.239,5-5S313.289,270,310.527,270
				z"/>
		</g>
	</g>
	<g>
		<g>
			<path class="st3" d="M330.527,290h-85.333c-2.762,0-5,2.239-5,5s2.238,5,5,5h85.333c2.762,0,5-2.239,5-5S333.289,290,330.527,290
				z"/>
		</g>
	</g>
	<g>
		<g>
			<path class="st8" d="M416.943,138.82h-37.275l-11.519-35.451c-1.794-5.522-9.607-5.522-11.401,0l-11.519,35.451h-37.275
				c-5.807,0-8.221,7.43-3.523,10.843l30.156,21.91l-11.519,35.451c-1.794,5.522,4.526,10.114,9.224,6.702l30.156-21.91
				l30.156,21.91c4.698,3.413,11.018-1.179,9.224-6.702l-11.519-35.451l30.156-21.91C425.164,146.25,422.749,138.82,416.943,138.82z
				"/>
		</g>
	</g>
</g>
</svg>
