<svg id="Layer_1" data-name="Layer 1" xmlns="http://www.w3.org/2000/svg" viewBox="0 0 128 128"><title>Artboard 9</title><path d="M35.55,32.468a2.415,2.415,0,1,1,0-4.829H67.62a2.415,2.415,0,0,1,0,4.829Z" style="fill:#3e425b"/><path d="M35.55,40.955a2.415,2.415,0,1,1,0-4.829H67.62a2.415,2.415,0,0,1,0,4.829Z" style="fill:#3e425b"/><path d="M35.55,49.441a2.415,2.415,0,0,1,0-4.829H67.62a2.415,2.415,0,0,1,0,4.829Z" style="fill:#3e425b"/><path d="M35.55,57.928a2.415,2.415,0,0,1,0-4.829H67.62a2.415,2.415,0,0,1,0,4.829Z" style="fill:#3e425b"/><path d="M35.55,66.415a2.415,2.415,0,1,1,0-4.829H67.62a2.415,2.415,0,0,1,0,4.829Z" style="fill:#3e425b"/><path d="M35.55,74.9a2.414,2.414,0,1,1,0-4.829H67.62a2.414,2.414,0,0,1,0,4.829Z" style="fill:#3e425b"/><path d="M35.55,83.388a2.414,2.414,0,1,1,0-4.829H67.62a2.414,2.414,0,0,1,0,4.829Z" style="fill:#3e425b"/><path d="M35.55,91.875a2.414,2.414,0,1,1,0-4.829H67.62a2.414,2.414,0,0,1,0,4.829Z" style="fill:#3e425b"/><path d="M35.55,100.361a2.414,2.414,0,1,1,0-4.829H67.62a2.414,2.414,0,0,1,0,4.829Z" style="fill:#3e425b"/><path d="M35.542,11.1,85.106,6.592c.323-.029.573-.044.754-.044a8.642,8.642,0,0,1,6.17,2.674,9.951,9.951,0,0,1,2.786,6.024c.033.354.049.645.049.869v95.77c0,.224-.016.514-.049.868a9.952,9.952,0,0,1-2.786,6.024,8.641,8.641,0,0,1-6.17,2.674c-.181,0-.432-.014-.754-.043l-49.773-4.527a2.406,2.406,0,0,1-2.189-2.4h-.009v-7.423a2.415,2.415,0,0,1,2.415-2.415H64.056a1.158,1.158,0,0,0,1.149-1.149v-79a1.159,1.159,0,0,0-1.149-1.15H35.55a2.415,2.415,0,0,1-2.415-2.414V13.514A2.414,2.414,0,0,1,35.542,11.1" style="fill:#3e425b;fill-rule:evenodd"/></svg>