<svg id="Layer_1" data-name="Layer 1" xmlns="http://www.w3.org/2000/svg" viewBox="0 0 128 128"><title>Artboard 2</title><path d="M32.674,26.737h9.781a2.187,2.187,0,0,0,2.181-2.181V16.213h5.6a1.187,1.187,0,0,0,1.183-1.183V9.722a1.187,1.187,0,0,0-1.183-1.183H31.677a1.187,1.187,0,0,0-1.184,1.183V24.556a2.188,2.188,0,0,0,2.181,2.181" style="fill:#3e425b;fill-rule:evenodd"/><path d="M20.642,39.238H53.26a7.293,7.293,0,0,1,7.272,7.272v64.358a7.293,7.293,0,0,1-7.272,7.272H20.642a7.293,7.293,0,0,1-7.272-7.272V46.51a7.293,7.293,0,0,1,7.272-7.272" style="fill:#3e425b;fill-rule:evenodd"/><path d="M26.042,39.238H49.087V26.255a2.373,2.373,0,0,0-2.367-2.367H28.409a2.373,2.373,0,0,0-2.367,2.367Z" style="fill:#d29b88;fill-rule:evenodd"/><path d="M86.983,80.244c.9-1.151.4-2.626-2.975-5.277a1.315,1.315,0,0,1,.9-2.379c.32.033.688.077,1.1.129,10.086,1.283,17.5,5.377,22.251,10.628a23.2,23.2,0,0,1,6.264,17.866c-.01.1-.028.245-.052.438A19.22,19.22,0,0,1,101.4,118.036a25.719,25.719,0,0,1-9.977,1.386,26.692,26.692,0,0,1-9.732-2.379c-6.288-2.918-10.98-8.371-11.121-15.909a16.039,16.039,0,0,1,3-9.4,29.43,29.43,0,0,1,8.706-8.023l.5-.317a18.306,18.306,0,0,0,4.2-3.154" style="fill:#d29b88;fill-rule:evenodd"/></svg>