<svg id="Layer_1" data-name="Layer 1" xmlns="http://www.w3.org/2000/svg" viewBox="0 0 128 128"><title>Artboard 3</title><path d="M81.242,81.106a39.5,39.5,0,0,1-5.763-2.142C69.867,76.356,66.161,72.939,64,69.286c-2.161,3.652-5.867,7.07-11.479,9.678a39.5,39.5,0,0,1-5.763,2.142,37.827,37.827,0,0,1-21.306.081A27.039,27.039,0,0,1,8.513,66.34a34.008,34.008,0,0,1-1.846-4.98,2.412,2.412,0,0,1,4.291-2.051c3.454,4.227,6.322,5.666,8.86,5.442,2.668-.236,5.329-2.255,8.025-4.834.639-.611,1.637-1.606,2.664-2.629,2.033-2.026,4.2-4.189,6.49-6.121,7.407-6.26,14.713-6.958,20.2-4.6A15.133,15.133,0,0,1,64,52.391a15.134,15.134,0,0,1,6.8-5.824c5.486-2.359,12.792-1.66,20.2,4.6,2.286,1.931,4.455,4.093,6.487,6.118,1.028,1.025,2.025,2.018,2.667,2.632,2.7,2.579,5.356,4.6,8.025,4.834,2.538.224,5.406-1.215,8.86-5.442a2.412,2.412,0,0,1,4.291,2.051,34,34,0,0,1-1.846,4.98,27.039,27.039,0,0,1-16.938,14.847,37.829,37.829,0,0,1-21.307-.081" style="fill:#3e425b;fill-rule:evenodd"/></svg>