<svg id="Layer_1" data-name="Layer 1" xmlns="http://www.w3.org/2000/svg" viewBox="0 0 128 128"><title>Artboard 8</title><path d="M60.886,79.757a31.729,31.729,0,0,0-5.212,5.32,45.044,45.044,0,0,0-4.151,6.4,17.128,17.128,0,0,1,4.335,13.76,1.177,1.177,0,0,1-.028.2,17.166,17.166,0,0,1-19.195,14.628,1.184,1.184,0,0,1-.207-.027A17.167,17.167,0,0,1,21.8,100.85a1.2,1.2,0,0,1,.028-.205A17.189,17.189,0,0,1,43.014,86.389q.453.113.907.255L56.5,67.165a1.2,1.2,0,0,1,2.136.214l2.83,6.662,2.039.782c1.168.448,1.441,1.143,1.095,2.048l0,0c-.274.714-1.1,1.212-2.068,1.8a16.41,16.41,0,0,0-1.646,1.085M47.836,96.18a11.326,11.326,0,0,0-20.211,5.214l-.037.28a11.328,11.328,0,0,0,9.59,12.576l.28.037A11.324,11.324,0,0,0,47.836,96.18ZM96.579,9.492,71.6,68.287a1.2,1.2,0,0,1-2.121.179h0L62.986,58.412A1.2,1.2,0,0,1,63,57.084L94.471,8.338a1.2,1.2,0,0,1,2.108,1.155Z" style="fill:#3e425b;fill-rule:evenodd"/><path d="M98.146,96.18a11.326,11.326,0,0,0-20.211,5.214l-.037.28a11.327,11.327,0,0,0,9.59,12.576l.28.037A11.324,11.324,0,0,0,98.146,96.18m-38.7-20.724L31.421,9.492a1.2,1.2,0,0,1,2.109-1.155l50.55,78.306q.454-.141.907-.255a17.446,17.446,0,0,1,1.89-.361,17.17,17.17,0,0,1,4.694,34.018,1.168,1.168,0,0,1-.206.027,17.167,17.167,0,0,1-19.2-14.628,1.194,1.194,0,0,1-.028-.2,17.12,17.12,0,0,1,4.334-13.759c-7.2-13.332-15.431-15.178-16.094-15.307A1.2,1.2,0,0,1,59.447,75.456Z" style="fill:#d29b88;fill-rule:evenodd"/><path d="M64.75,66.469a3.424,3.424,0,0,1,2.422,5.85l0,0a3.421,3.421,0,0,1-4.843,0l0,0,0,0,0,0a3.421,3.421,0,0,1,0-4.84c.026-.026.054-.051.082-.075a3.417,3.417,0,0,1,2.341-.929" style="fill:#fff;fill-rule:evenodd"/></svg>