<svg id="Layer_1" data-name="Layer 1" xmlns="http://www.w3.org/2000/svg" viewBox="0 0 128 128"><title>Artboard 12</title><path d="M51.155,99.793h25.69v14.785a2.247,2.247,0,0,1-2.241,2.241H53.4a2.246,2.246,0,0,1-2.24-2.241Z" style="fill:#d29b88;fill-rule:evenodd"/><path d="M71.31,116.819H56.69a7.311,7.311,0,0,1,14.62,0" style="fill:#3e425b;fill-rule:evenodd"/><path d="M51.155,99.793h25.69L88.228,14.562c.246-1.843-1.522-3.381-3.381-3.381H43.153c-1.859,0-3.627,1.538-3.38,3.381Z" style="fill:#3e425b;fill-rule:evenodd"/><path d="M87.527,19.8l.64-4.79a2.417,2.417,0,0,0-.319-.021l-9.208.025-.01-3.837h-4.81l.01,3.85-7.424.021-.01-3.871h-4.81l.01,3.884-7.424.02-.011-3.9h-4.81l.011,3.917-9.194.025a2.428,2.428,0,0,0-.318.021l.639,4.788,11-.03a2.426,2.426,0,0,0,.289.017,2.483,2.483,0,0,0,.3-.018l11.442-.031a2.385,2.385,0,0,0,.49.05,2.432,2.432,0,0,0,.5-.053l11.1-.03a2.418,2.418,0,0,0,1.268,0Z" style="fill:#d29b88;fill-rule:evenodd"/><path d="M54.366,28.75H73.635a2.426,2.426,0,0,1,2.418,2.419V50.44a2.426,2.426,0,0,1-2.418,2.419H54.366a2.425,2.425,0,0,1-2.419-2.419V31.168a2.426,2.426,0,0,1,2.419-2.419" style="fill:#d29b88;fill-rule:evenodd"/></svg>