<?xml version="1.0" encoding="utf-8"?>
<!-- Generator: Adobe Illustrator 22.0.1, SVG Export Plug-In . SVG Version: 6.00 Build 0)  -->
<svg version="1.1" id="Layer_1" xmlns="http://www.w3.org/2000/svg" xmlns:xlink="http://www.w3.org/1999/xlink" x="0px" y="0px"
	 viewBox="0 0 512 512" style="enable-background:new 0 0 512 512;" xml:space="preserve">
<style type="text/css">
	.st0{fill:#330D84;}
	.st1{fill:#EDF3FC;}
	.st2{fill:#5932AE;}
	.st3{fill:#FFFFFF;}
	.st4{fill:#FFE37B;}
	.st5{fill:#5D8EF9;}
	.st6{fill:#8C7BFD;}
	.st7{fill:#8AC9F9;}
	.st8{fill:#FFBE1B;}
	.st9{fill:#6857E5;}
</style>
<g>
	<g>
		<g>
			<path class="st1" d="M255.999,40.928c-118.778,0-215.071,96.294-215.071,215.074c0,118.776,96.293,215.068,215.071,215.068
				c118.778,0,215.071-96.292,215.071-215.068C471.07,137.222,374.777,40.928,255.999,40.928z"/>
		</g>
	</g>
	<g>
		<g>
			<path class="st1" d="M255.999,1C115.391,1,1,115.392,1,256.002C1,396.609,115.391,511,255.999,511S511,396.609,511,256.002
				C511,115.392,396.607,1,255.999,1z M255.999,502.832c-136.103,0-246.83-110.728-246.83-246.83
				c0-136.104,110.727-246.833,246.83-246.833c136.102,0,246.832,110.729,246.832,246.833
				C502.831,392.104,392.101,502.832,255.999,502.832z"/>
		</g>
	</g>
	<g>
		<g>
			<path class="st2" d="M411.19,157.882c-10.701-17.218-32.676-19.667-46.776-13.922c-10.896,4.439-18.959,18.218-19.711,19.536
				c-0.752-1.317-8.814-15.097-19.711-19.536c-14.1-5.745-36.075-3.296-46.776,13.922c-10.708,17.229-0.809,43.492,17.189,63.675
				c19.733,22.129,47.188,37.127,49.234,38.229l0.063,0.034l0.063-0.034c2.046-1.102,29.501-16.099,49.234-38.229
				C411.999,201.374,421.898,175.112,411.19,157.882z"/>
		</g>
	</g>
	<g>
		<g>
			<path class="st0" d="M132.911,287.873c-4.386-7.057-13.392-8.06-19.171-5.706c-4.466,1.82-7.77,7.467-8.078,8.007
				c-0.308-0.54-3.613-6.187-8.078-8.007c-5.779-2.354-14.785-1.351-19.171,5.706c-4.389,7.062-0.332,17.825,7.045,26.097
				c8.088,9.069,19.34,15.216,20.178,15.668l0.026,0.014l0.026-0.014c0.839-0.451,12.091-6.598,20.179-15.668
				C133.242,305.698,137.299,294.935,132.911,287.873z"/>
		</g>
	</g>
	<g>
		<g>
			<path class="st5" d="M393.022,322.237c-7.777-12.513-23.747-14.292-33.994-10.118c-7.919,3.226-13.778,13.24-14.324,14.198
				c-0.546-0.957-6.406-10.971-14.325-14.198c-10.247-4.175-26.217-2.395-33.994,10.118c-7.782,12.521-0.588,31.607,12.492,46.275
				c14.341,16.082,34.293,26.982,35.781,27.782l0.046,0.025l0.046-0.025c1.487-0.801,21.44-11.7,35.781-27.782
				C393.61,353.844,400.804,334.758,393.022,322.237z"/>
		</g>
	</g>
	<g>
		<g>
			<path class="st8" d="M323.055,193.791c-15.621-25.134-47.699-28.709-68.282-20.323c-15.906,6.48-27.676,26.595-28.773,28.518
				c-1.097-1.923-12.867-22.037-28.773-28.518c-20.583-8.385-52.661-4.811-68.282,20.323c-15.631,25.151-1.181,63.488,25.092,92.95
				c28.806,32.303,68.883,54.197,71.87,55.805l0.092,0.05l0.092-0.05c2.987-1.608,43.065-23.501,71.87-55.805
				C324.236,257.279,338.686,218.942,323.055,193.791z"/>
		</g>
	</g>
	<g>
		<g>
			<path class="st0" d="M197.068,376.999c-11.13-2.672-19.817-11-22.613-21.656l-0.477-1.822l-0.472,1.822
				c-2.793,10.656-11.485,18.983-22.619,21.656l-1.896,0.453l1.896,0.455c11.134,2.671,19.825,10.996,22.619,21.655l0.472,1.82
				l0.477-1.82c2.796-10.659,11.483-18.984,22.613-21.655l1.904-0.455L197.068,376.999z"/>
		</g>
	</g>
	<g>
		<g>
			<path class="st5" d="M285.742,342.362c-5.76-1.383-10.256-5.693-11.703-11.208l-0.247-0.943l-0.244,0.943
				c-1.446,5.515-5.944,9.825-11.707,11.208l-0.981,0.235l0.981,0.235c5.762,1.383,10.261,5.691,11.707,11.208l0.244,0.942
				l0.247-0.942c1.447-5.517,5.943-9.825,11.703-11.208l0.985-0.235L285.742,342.362z"/>
		</g>
	</g>
	<g>
		<g>
			<path class="st5" d="M442.677,297.028c-13.584-3.261-24.186-13.426-27.599-26.431l-0.582-2.223l-0.576,2.223
				c-3.409,13.005-14.017,23.17-27.606,26.431L384,297.581l2.313,0.556c13.589,3.26,24.197,13.421,27.606,26.43l0.576,2.221
				l0.582-2.221c3.412-13.009,14.015-23.17,27.599-26.43l2.323-0.556L442.677,297.028z"/>
		</g>
	</g>
	<g>
		<g>
			<path class="st8" d="M219.181,115.623c-15.65-3.757-27.866-15.468-31.797-30.452l-0.671-2.561l-0.664,2.561
				c-3.928,14.984-16.15,26.695-31.806,30.452l-2.666,0.637l2.666,0.64c15.656,3.756,27.878,15.463,31.806,30.451l0.664,2.559
				l0.671-2.559c3.931-14.988,16.147-26.695,31.797-30.451l2.677-0.64L219.181,115.623z"/>
		</g>
	</g>
	<g>
		<g>
			<path class="st8" d="M141.542,156.679c-7.35-1.765-13.086-7.264-14.933-14.301l-0.315-1.203l-0.312,1.203
				c-1.845,7.037-7.584,12.536-14.937,14.301l-1.252,0.299l1.252,0.301c7.352,1.764,13.092,7.262,14.937,14.301l0.312,1.202
				l0.315-1.202c1.846-7.039,7.583-12.537,14.933-14.301l1.257-0.301L141.542,156.679z"/>
		</g>
	</g>
</g>
</svg>
