<?xml version="1.0" encoding="utf-8"?>
<!-- Generator: Adobe Illustrator 22.0.1, SVG Export Plug-In . SVG Version: 6.00 Build 0)  -->
<svg version="1.1" id="Layer_1" xmlns="http://www.w3.org/2000/svg" xmlns:xlink="http://www.w3.org/1999/xlink" x="0px" y="0px"
	 viewBox="0 0 512 512" style="enable-background:new 0 0 512 512;" xml:space="preserve">
<style type="text/css">
	.st0{fill:#330D84;}
	.st1{fill:#EDF3FC;}
	.st2{fill:#5932AE;}
	.st3{fill:#FFFFFF;}
	.st4{fill:#FFE37B;}
	.st5{fill:#5D8EF9;}
	.st6{fill:#8C7BFD;}
	.st7{fill:#8AC9F9;}
	.st8{fill:#FFBE1B;}
	.st9{fill:#6857E5;}
</style>
<g>
	<g>
		<g>
			<path class="st1" d="M255.999,40.928c-118.778,0-215.071,96.294-215.071,215.074c0,118.776,96.293,215.068,215.071,215.068
				c118.778,0,215.071-96.292,215.071-215.068C471.07,137.222,374.777,40.928,255.999,40.928z"/>
		</g>
	</g>
	<g>
		<g>
			<path class="st1" d="M255.999,1C115.391,1,1,115.392,1,256.002C1,396.609,115.391,511,255.999,511S511,396.609,511,256.002
				C511,115.392,396.607,1,255.999,1z M255.999,502.832c-136.103,0-246.83-110.728-246.83-246.83
				c0-136.104,110.727-246.833,246.83-246.833c136.102,0,246.832,110.729,246.832,246.833
				C502.831,392.104,392.101,502.832,255.999,502.832z"/>
		</g>
	</g>
	<g>
		<g>
			<path class="st6" d="M377.777,199.202L268.41,105.018c-6.534-5.628-16.202-5.628-22.736,0l-109.367,94.185
				c-5.304,3.368-8.826,9.29-8.826,16.035v133.32c0,10.492,8.501,18.994,18.991,18.994h221.144c10.488,0,18.99-8.502,18.99-18.994
				v-133.32C386.604,208.493,383.081,202.571,377.777,199.202z"/>
		</g>
	</g>
	<g>
		<g>
			<path class="st2" d="M134.205,200.749l0.005,0.005c0.19-0.161,0.38-0.323,0.576-0.477
				C134.589,200.431,134.395,200.587,134.205,200.749z M134.21,200.754c-4.112,3.483-6.73,8.676-6.73,14.485v133.32
				c0,5.813,2.617,11.008,6.73,14.491l97.351-78.458L134.21,200.754z"/>
		</g>
	</g>
	<g>
		<g>
			<path class="st2" d="M379.288,200.268c0.2,0.156,0.393,0.321,0.587,0.485l0.005-0.004
				C379.686,200.585,379.489,200.425,379.288,200.268z M379.875,200.753l-97.352,83.837l97.352,78.458
				c4.112-3.483,6.729-8.678,6.729-14.491v-133.32C386.604,209.429,383.987,204.237,379.875,200.753z"/>
		</g>
	</g>
	<g>
		<g>
			<path class="st9" d="M268.41,273.216c-6.534-5.628-16.202-5.628-22.736,0l-111.469,89.837c3.309,2.804,7.589,4.499,12.266,4.499
				h221.144c4.677,0,8.956-1.694,12.265-4.499L268.41,273.216z"/>
		</g>
	</g>
	<g>
		<g>
			<path class="st8" d="M311.578,125H200.421c-13.954,0-25.276,11.322-25.276,25.281v60.26c0,13.958,11.322,25.278,25.276,25.278
				h58.185l34.699,34.109v-34.109h18.274c13.959,0,25.277-11.319,25.277-25.278v-60.26C336.855,136.322,325.537,125,311.578,125z"/>
		</g>
	</g>
	<g>
		<g>
			<path class="st3" d="M311.018,150.819H200.982c-2.761,0-5,2.239-5,5s2.239,5,5,5h110.036c2.761,0,5-2.239,5-5
				S313.779,150.819,311.018,150.819z"/>
		</g>
	</g>
	<g>
		<g>
			<path class="st3" d="M311.018,176.679H200.982c-2.761,0-5,2.239-5,5s2.239,5,5,5h110.036c2.761,0,5-2.239,5-5
				S313.779,176.679,311.018,176.679z"/>
		</g>
	</g>
	<g>
		<g>
			<path class="st3" d="M284.26,202.539h-83.278c-2.761,0-5,2.239-5,5s2.239,5,5,5h83.278c2.761,0,5-2.239,5-5
				S287.021,202.539,284.26,202.539z"/>
		</g>
	</g>
	<g>
		<g>
			<path class="st0" d="M420.912,180.856c-8.346-2.089-14.856-8.605-16.953-16.949l-0.353-1.424l-0.356,1.424
				c-2.091,8.344-8.607,14.86-16.952,16.949l-1.419,0.358l1.419,0.36c8.345,2.088,14.861,8.603,16.952,16.945l0.356,1.423
				l0.353-1.423c2.097-8.343,8.607-14.857,16.953-16.945l1.424-0.36L420.912,180.856z"/>
		</g>
	</g>
	<g>
		<g>
			<path class="st8" d="M133.36,176.871c-13.405-3.359-23.869-13.828-27.236-27.236l-0.57-2.286l-0.573,2.286
				c-3.354,13.407-13.828,23.876-27.24,27.236l-2.277,0.574l2.277,0.579c13.412,3.355,23.885,13.82,27.24,27.227l0.573,2.288
				l0.57-2.288c3.367-13.407,13.831-23.872,27.236-27.227l2.29-0.579L133.36,176.871z"/>
		</g>
	</g>
	<g>
		<g>
			<path class="st8" d="M99.497,242.739c-8.289-2.076-14.757-8.548-16.833-16.833l-0.357-1.413l-0.354,1.413
				c-2.076,8.285-8.547,14.757-16.838,16.833l-1.411,0.355l1.411,0.354c8.291,2.076,14.762,8.547,16.838,16.835l0.354,1.413
				l0.357-1.413c2.076-8.288,8.544-14.759,16.833-16.835l1.416-0.354L99.497,242.739z"/>
		</g>
	</g>
	<g>
		<g>
			<path class="st5" d="M313.437,408.252c-8.898-2.231-15.844-9.183-18.078-18.079l-0.381-1.521l-0.378,1.521
				c-2.233,8.896-9.182,15.848-18.083,18.079l-1.516,0.38l1.516,0.38c8.901,2.229,15.85,9.18,18.083,18.079l0.378,1.519l0.381-1.519
				c2.235-8.899,9.18-15.85,18.078-18.079l1.522-0.38L313.437,408.252z"/>
		</g>
	</g>
	<g>
		<g>
			<path class="st5" d="M240.863,404.776c-13.972-3.503-24.879-14.419-28.387-28.389L211.877,374l-0.594,2.388
				c-3.506,13.969-14.418,24.886-28.395,28.389l-2.38,0.596l2.38,0.596c13.977,3.5,24.889,14.414,28.395,28.389l0.594,2.385
				l0.599-2.385c3.509-13.975,14.415-24.888,28.387-28.389l2.39-0.596L240.863,404.776z"/>
		</g>
	</g>
</g>
</svg>
