<?xml version="1.0" encoding="utf-8"?>
<!-- Generator: Adobe Illustrator 22.0.1, SVG Export Plug-In . SVG Version: 6.00 Build 0)  -->
<svg version="1.1" id="Layer_1" xmlns="http://www.w3.org/2000/svg" xmlns:xlink="http://www.w3.org/1999/xlink" x="0px" y="0px"
	 viewBox="0 0 512 512" style="enable-background:new 0 0 512 512;" xml:space="preserve">
<style type="text/css">
	.st0{fill:#330D84;}
	.st1{fill:#EDF3FC;}
	.st2{fill:#5932AE;}
	.st3{fill:#FFFFFF;}
	.st4{fill:#FFE37B;}
	.st5{fill:#5D8EF9;}
	.st6{fill:#8C7BFD;}
	.st7{fill:#8AC9F9;}
	.st8{fill:#FFBE1B;}
	.st9{fill:#6857E5;}
</style>
<g>
	<g>
		<g>
			<path class="st1" d="M255.999,40.928c-118.778,0-215.071,96.294-215.071,215.074c0,118.776,96.292,215.068,215.071,215.068
				S471.07,374.778,471.07,256.002C471.07,137.222,374.777,40.928,255.999,40.928z"/>
		</g>
	</g>
	<g>
		<g>
			<path class="st1" d="M255.999,1C115.391,1,1,115.392,1,256.002C1,396.609,115.391,511,255.999,511S511,396.609,511,256.002
				C511,115.392,396.607,1,255.999,1z M255.999,502.832c-136.103,0-246.83-110.728-246.83-246.83
				c0-136.104,110.727-246.833,246.83-246.833c136.102,0,246.832,110.729,246.832,246.833
				C502.831,392.104,392.101,502.832,255.999,502.832z"/>
		</g>
	</g>
	<g>
		<g>
			<path class="st8" d="M316.92,281.341h-65.81v-30.433h-16.128c-2.468,5.214-5.488,11.215-9.455,17.887
				c-6.477,10.893-21.649,23.981-30.829,31.874v82.339c4.906,5.296,12.549,10.876,22.99,10.876c14.21,0,78.579-0.048,78.579-0.048
				c20.457,0,20.687-25.736,7.161-27.951l3.669,0.129c12.948-1.396,18.381-24.396,1.822-28.583l3.087-0.056
				c12.37-1.299,18.051-23.316,0.818-28.226l4.091-0.414C335.294,308.478,334.296,281.389,316.92,281.341z"/>
		</g>
	</g>
	<g>
		<g>
			<path class="st2" d="M185.778,289.043h-26.635c-4.929,0-8.92,4.002-8.92,8.92v87.001c0,4.929,3.99,8.92,8.92,8.92h26.635
				c4.919,0,8.921-3.991,8.921-8.92v-87.001C194.698,293.045,190.697,289.043,185.778,289.043z"/>
		</g>
	</g>
	<g>
		<g>
			<circle class="st3" cx="178.076" cy="306.215" r="6.828"/>
		</g>
	</g>
	<g>
		<g>
			<path class="st0" d="M338.331,128.116H195.223c-12.948,0-23.447,10.502-23.447,23.45v75.896
				c0,12.947,10.498,23.447,23.447,23.447h143.108c12.944,0,23.446-10.5,23.446-23.447v-75.896
				C361.777,138.618,351.275,128.116,338.331,128.116z"/>
		</g>
	</g>
	<g>
		<g>
			<rect x="251.11" y="250.909" class="st9" width="31.333" height="30.433"/>
		</g>
	</g>
	<g>
		<g>
			<path class="st7" d="M280.707,190.511l15.228-15.227c4.086-4.085,4.086-10.709,0-14.794c-4.083-4.085-10.707-4.085-14.794,0
				l-15.229,15.227l-15.23-15.227c-4.085-4.085-10.709-4.085-14.794,0c-4.086,4.085-4.086,10.709,0,14.794l15.228,15.227
				l-15.228,15.228c-4.086,4.088-4.086,10.709,0,14.794c2.042,2.044,4.72,3.066,7.397,3.066c2.677,0,5.354-1.022,7.396-3.063
				l15.23-15.23l15.229,15.23c2.042,2.041,4.72,3.063,7.396,3.063c2.677,0,5.355-1.022,7.397-3.066
				c4.086-4.085,4.086-10.707,0-14.794L280.707,190.511z"/>
		</g>
	</g>
	<g>
		<g>
			<path class="st0" d="M155.25,172.238c-14.138-3.395-25.172-13.973-28.724-27.509l-0.606-2.313l-0.6,2.313
				c-3.548,13.536-14.589,24.114-28.731,27.509l-2.408,0.576l2.408,0.578c14.143,3.393,25.183,13.968,28.731,27.508l0.6,2.312
				l0.606-2.312c3.552-13.54,14.586-24.115,28.724-27.508l2.418-0.578L155.25,172.238z"/>
		</g>
	</g>
	<g>
		<g>
			<path class="st0" d="M174.122,117.344c-7.931-1.904-14.122-7.839-16.114-15.433l-0.34-1.298l-0.336,1.298
				c-1.991,7.594-8.185,13.528-16.119,15.433l-1.351,0.323l1.351,0.324c7.934,1.904,14.128,7.836,16.119,15.432l0.336,1.297
				l0.34-1.297c1.992-7.596,8.183-13.528,16.114-15.432l1.357-0.324L174.122,117.344z"/>
		</g>
	</g>
	<g>
		<g>
			<path class="st8" d="M257.221,433.642c-11.762-2.824-20.943-11.625-23.897-22.886l-0.504-1.925l-0.499,1.925
				c-2.952,11.261-12.137,20.063-23.904,22.886l-2.003,0.479l2.003,0.481c11.766,2.823,20.952,11.621,23.904,22.886l0.499,1.923
				l0.504-1.923c2.955-11.265,12.135-20.063,23.897-22.886l2.012-0.481L257.221,433.642z"/>
		</g>
	</g>
	<g>
		<g>
			<path class="st8" d="M308.823,413.577c-6.882-1.652-12.253-6.802-13.982-13.391l-0.295-1.126l-0.292,1.126
				c-1.727,6.589-7.102,11.739-13.986,13.391l-1.172,0.28l1.172,0.282c6.885,1.651,12.259,6.799,13.986,13.39l0.292,1.125
				l0.295-1.125c1.729-6.591,7.1-11.739,13.982-13.39l1.177-0.282L308.823,413.577z"/>
		</g>
	</g>
	<g>
		<g>
			<path class="st5" d="M413.849,271.182c-15.99-3.839-28.471-15.804-32.488-31.113l-0.685-2.617l-0.678,2.617
				c-4.013,15.309-16.501,27.274-32.497,31.113l-2.723,0.651l2.723,0.654c15.996,3.837,28.484,15.799,32.497,31.113l0.678,2.615
				l0.685-2.615c4.017-15.314,16.498-27.275,32.488-31.113l2.735-0.654L413.849,271.182z"/>
		</g>
	</g>
	<g>
		<g>
			<path class="st5" d="M426.147,202.844c-9.044-2.171-16.102-8.938-18.374-17.597l-0.387-1.48l-0.384,1.48
				c-2.27,8.658-9.332,15.425-18.379,17.597l-1.54,0.368l1.54,0.37c9.047,2.17,16.109,8.936,18.379,17.596l0.384,1.479l0.387-1.479
				c2.272-8.661,9.331-15.426,18.374-17.596l1.547-0.37L426.147,202.844z"/>
		</g>
	</g>
</g>
</svg>
