<?xml version="1.0" encoding="utf-8"?>
<!-- Generator: Adobe Illustrator 22.0.1, SVG Export Plug-In . SVG Version: 6.00 Build 0)  -->
<svg version="1.1" id="Layer_1" xmlns="http://www.w3.org/2000/svg" xmlns:xlink="http://www.w3.org/1999/xlink" x="0px" y="0px"
	 viewBox="0 0 512 512" style="enable-background:new 0 0 512 512;" xml:space="preserve">
<style type="text/css">
	.st0{fill:#330D84;}
	.st1{fill:#EDF3FC;}
	.st2{fill:#5932AE;}
	.st3{fill:#FFFFFF;}
	.st4{fill:#FFE37B;}
	.st5{fill:#5D8EF9;}
	.st6{fill:#8C7BFD;}
	.st7{fill:#8AC9F9;}
	.st8{fill:#FFBE1B;}
	.st9{fill:#6857E5;}
</style>
<g>
	<g>
		<g>
			<path class="st1" d="M255.999,40.928c-118.778,0-215.071,96.294-215.071,215.074c0,118.776,96.293,215.068,215.071,215.068
				c118.778,0,215.071-96.292,215.071-215.068C471.07,137.222,374.777,40.928,255.999,40.928z"/>
		</g>
	</g>
	<g>
		<g>
			<path class="st1" d="M255.999,1C115.391,1,1,115.392,1,256.002C1,396.609,115.391,511,255.999,511
				C396.607,511,511,396.609,511,256.002C511,115.392,396.607,1,255.999,1z M255.999,502.831
				c-136.103,0-246.83-110.727-246.83-246.829c0-136.104,110.727-246.833,246.83-246.833c136.102,0,246.832,110.729,246.832,246.833
				C502.831,392.104,392.101,502.831,255.999,502.831z"/>
		</g>
	</g>
	<g>
		<g>
			<path class="st0" d="M357.676,153.702H154.328c-12.872,0-23.307,10.435-23.307,23.301v146.195h249.958V177.003
				C380.979,164.137,370.546,153.702,357.676,153.702z"/>
		</g>
	</g>
	<g>
		<g>
			<path class="st9" d="M104.669,322.793v10.371c0,8.655,7.02,15.675,15.679,15.675h271.308c8.658,0,15.675-7.02,15.675-15.675
				v-10.371H104.669z"/>
		</g>
	</g>
	<g>
		<g>
			<rect x="149.552" y="177.003" class="st7" width="212.896" height="146.195"/>
		</g>
	</g>
	<g>
		<g>
			<path class="st2" d="M289.999,213.139c-27.061,0-48.999,21.937-48.999,48.999c0,27.062,21.938,48.999,48.999,48.999
				c27.062,0,49.001-21.937,49.001-48.999C339,235.076,317.061,213.139,289.999,213.139z"/>
		</g>
	</g>
	<g>
		<g>
			<path class="st3" d="M313.469,288.994l-7.503-2.262c0,0-2.464-0.717-2.825-0.838c-2.288-0.769-4.054-1.578-4.442-2.787
				c-0.328-1.022-0.495-2.076-0.564-3.086c-0.041,0.025-0.083,0.046-0.124,0.07c0.935-0.551,1.881-1.176,2.843-1.927
				c4.005-3.132,7.73-6.681,7.73-10.665c0-0.5-0.017-1.299-0.045-2.315c0.283,0.054,0.582,0.054,0.86-0.083
				c0.933-0.456,1.786-4.123,2.1-5.308c0.311-1.185,0.407-2.855-0.934-3.947c-0.333-0.271-0.701-0.358-1.067-0.338
				c0.04-0.281,0.079-0.57,0.119-0.873c0.387-2.899,4.215-12.737-1.225-19.361c-2.051-2.499-4.614-3.771-7.448-3.423
				c-2.158-2.808-7.617-3.77-12.836-3.072c-5.756,0.769-9.092,1.729-13.23,4.533c-2.367,1.604-6.524,5.415-7.132,10.085
				c-0.556,4.268,0.523,9.126,1.345,12.111c-0.36-0.017-0.721,0.071-1.048,0.338c-1.341,1.092-1.245,2.762-0.934,3.947
				s1.166,4.852,2.1,5.308c0.739,0.361,1.617-0.169,1.952-0.406c-0.004,0.6-0.006,1.182-0.006,1.725
				c0,4.725,2.911,7.778,7.227,11.072c1.114,0.85,2.454,1.711,3.791,2.495c-0.068,1.021-0.235,2.087-0.567,3.12
				c-0.236,0.738-1.238,1.395-2.588,2.017c-0.837,0.387-5.986,1.989-5.986,1.989l-6.448,1.908c-4.696,1.391-8.025,5.476-8.52,10.267
				c8.578,7.379,19.73,11.85,31.932,11.85c12.205,0,23.359-4.472,31.937-11.854C321.458,294.497,318.149,290.404,313.469,288.994z"
				/>
		</g>
	</g>
	<g>
		<g>
			<path class="st8" d="M233.576,124.604h-98.614c-12.38,0-22.424,10.045-22.424,22.428v53.46c0,12.383,10.044,22.425,22.424,22.425
				h51.619l30.783,30.26v-30.26h16.212c12.384,0,22.424-10.042,22.424-22.425v-53.46C256,134.649,245.96,124.604,233.576,124.604z"
				/>
		</g>
	</g>
	<g>
		<g>
			<path class="st3" d="M233.079,146.946h-97.62c-2.761,0-5,2.239-5,5s2.239,5,5,5h97.62c2.761,0,5-2.239,5-5
				S235.84,146.946,233.079,146.946z"/>
		</g>
	</g>
	<g>
		<g>
			<path class="st3" d="M233.079,169.887h-97.62c-2.761,0-5,2.239-5,5s2.239,5,5,5h97.62c2.761,0,5-2.239,5-5
				S235.84,169.887,233.079,169.887z"/>
		</g>
	</g>
	<g>
		<g>
			<path class="st3" d="M209.34,192.829h-73.881c-2.761,0-5,2.239-5,5s2.239,5,5,5h73.881c2.761,0,5-2.239,5-5
				S212.102,192.829,209.34,192.829z"/>
		</g>
	</g>
	<g>
		<g>
			<path class="st0" d="M106.004,240.794c-10.021-2.406-17.843-9.904-20.36-19.499l-0.429-1.64l-0.425,1.64
				c-2.515,9.594-10.341,17.093-20.366,19.499l-1.707,0.408l1.707,0.41c10.025,2.405,17.851,9.901,20.366,19.498l0.425,1.639
				l0.429-1.639c2.517-9.597,10.339-17.093,20.36-19.498l1.714-0.41L106.004,240.794z"/>
		</g>
	</g>
	<g>
		<g>
			<path class="st8" d="M308.067,103.211c-14.254-3.422-25.379-14.088-28.96-27.735l-0.611-2.333l-0.605,2.333
				c-3.577,13.647-14.709,24.313-28.968,27.735l-2.428,0.581l2.428,0.583c14.259,3.421,25.391,14.083,28.968,27.734l0.605,2.331
				l0.611-2.331c3.581-13.651,14.706-24.313,28.96-27.734l2.438-0.583L308.067,103.211z"/>
		</g>
	</g>
	<g>
		<g>
			<path class="st8" d="M228.389,86.478c-9.419-2.261-16.771-9.309-19.137-18.327l-0.404-1.542l-0.4,1.542
				c-2.364,9.018-9.72,16.066-19.142,18.327l-1.604,0.384l1.604,0.385c9.422,2.261,16.778,9.306,19.142,18.327l0.4,1.54l0.404-1.54
				c2.366-9.021,9.718-16.066,19.137-18.327L230,86.861L228.389,86.478z"/>
		</g>
	</g>
	<g>
		<g>
			<path class="st5" d="M262.509,400.295c-18.377-4.412-32.72-18.163-37.337-35.757l-0.787-3.008l-0.78,3.008
				c-4.612,17.594-18.964,31.345-37.347,35.757l-3.13,0.748l3.13,0.752c18.383,4.41,32.735,18.157,37.347,35.756l0.78,3.005
				l0.787-3.005c4.617-17.599,18.96-31.346,37.337-35.756l3.143-0.752L262.509,400.295z"/>
		</g>
	</g>
	<g>
		<g>
			<path class="st5" d="M333.972,384.88c-11.314-2.716-20.144-11.182-22.986-22.014l-0.485-1.852l-0.48,1.852
				c-2.839,10.832-11.675,19.297-22.992,22.014l-1.927,0.461l1.927,0.463c11.318,2.715,20.153,11.178,22.992,22.013l0.48,1.85
				l0.485-1.85c2.842-10.835,11.673-19.298,22.986-22.013l1.935-0.463L333.972,384.88z"/>
		</g>
	</g>
</g>
</svg>
