<?xml version="1.0" encoding="utf-8"?>
<!-- Generator: Adobe Illustrator 22.0.1, SVG Export Plug-In . SVG Version: 6.00 Build 0)  -->
<svg version="1.1" id="Layer_1" xmlns="http://www.w3.org/2000/svg" xmlns:xlink="http://www.w3.org/1999/xlink" x="0px" y="0px"
	 viewBox="0 0 512 512" style="enable-background:new 0 0 512 512;" xml:space="preserve">
<style type="text/css">
	.st0{fill:#330D84;}
	.st1{fill:#EDF3FC;}
	.st2{fill:#5932AE;}
	.st3{fill:#FFFFFF;}
	.st4{fill:#FFE37B;}
	.st5{fill:#5D8EF9;}
	.st6{fill:#8C7BFD;}
	.st7{fill:#8AC9F9;}
	.st8{fill:#FFBE1B;}
	.st9{fill:#6857E5;}
</style>
<g>
	<g>
		<g>
			<path class="st1" d="M255.999,40.928c-118.778,0-215.071,96.294-215.071,215.074c0,118.776,96.293,215.068,215.071,215.068
				S471.07,374.778,471.07,256.002C471.07,137.222,374.777,40.928,255.999,40.928z"/>
		</g>
	</g>
	<g>
		<g>
			<path class="st1" d="M255.999,1C115.391,1,1,115.392,1,256.002C1,396.609,115.391,511,255.999,511S511,396.609,511,256.002
				C511,115.392,396.607,1,255.999,1z M255.999,502.831c-136.103,0-246.83-110.727-246.83-246.829
				c0-136.104,110.727-246.833,246.83-246.833c136.102,0,246.832,110.729,246.832,246.833
				C502.831,392.104,392.101,502.831,255.999,502.831z"/>
		</g>
	</g>
	<g>
		<g>
			
				<ellipse transform="matrix(0.7071 -0.7071 0.7071 0.7071 -80.9048 188.9645)" class="st2" cx="187.648" cy="192.143" rx="86.777" ry="86.776"/>
		</g>
	</g>
	<g>
		<g>
			<circle class="st3" cx="155.398" cy="180.58" r="11.563"/>
		</g>
	</g>
	<g>
		<g>
			<circle class="st3" cx="219.898" cy="180.58" r="11.563"/>
		</g>
	</g>
	<g>
		<g>
			<path class="st3" d="M222.075,213.219c-2.23-1.622-5.359-1.128-6.983,1.106c-6.456,8.886-16.459,13.983-27.443,13.983
				c-10.985,0-20.988-5.097-27.444-13.983c-1.623-2.235-4.752-2.728-6.983-1.106c-2.234,1.623-2.729,4.75-1.106,6.984
				c8.359,11.506,21.311,18.105,35.534,18.105c14.223,0,27.174-6.599,35.533-18.105C224.805,217.969,224.31,214.842,222.075,213.219
				z"/>
		</g>
	</g>
	<g>
		<g>
			
				<ellipse transform="matrix(0.7071 -0.7071 0.7071 0.7071 -131.1725 323.0355)" class="st8" cx="324.352" cy="319.857" rx="86.776" ry="86.776"/>
		</g>
	</g>
	<g>
		<g>
			<circle class="st3" cx="292.102" cy="308.294" r="11.563"/>
		</g>
	</g>
	<g>
		<g>
			<circle class="st3" cx="356.602" cy="308.294" r="11.563"/>
		</g>
	</g>
	<g>
		<g>
			<path class="st3" d="M359.886,352.028c-8.359-11.506-21.311-18.105-35.534-18.105c-14.223,0-27.174,6.599-35.533,18.105
				c-1.623,2.234-1.128,5.361,1.106,6.984c2.232,1.623,5.359,1.128,6.983-1.106c6.456-8.886,16.459-13.983,27.443-13.983
				c10.985,0,20.988,5.097,27.444,13.983c0.979,1.347,2.503,2.062,4.049,2.062c1.02,0,2.048-0.311,2.935-0.955
				C361.014,357.389,361.509,354.262,359.886,352.028z"/>
		</g>
	</g>
	<g>
		<g>
			<path class="st8" d="M141.287,285.738c-14.917-3.735-26.557-15.382-30.301-30.297l-0.633-2.546l-0.641,2.546
				c-3.735,14.914-15.383,26.562-30.296,30.297l-2.547,0.641l2.547,0.641c14.914,3.735,26.561,15.38,30.296,30.293l0.641,2.544
				l0.633-2.544c3.743-14.913,15.384-26.558,30.301-30.293l2.547-0.641L141.287,285.738z"/>
		</g>
	</g>
	<g>
		<g>
			<path class="st5" d="M264.141,401.432c-12.809-3.207-22.806-13.209-26.02-26.017l-0.543-2.186l-0.551,2.186
				c-3.208,12.807-13.21,22.81-26.017,26.017l-2.187,0.55l2.187,0.55c12.807,3.208,22.809,13.207,26.017,26.013l0.551,2.185
				l0.543-2.185c3.215-12.806,13.211-22.806,26.02-26.013l2.188-0.55L264.141,401.432z"/>
		</g>
	</g>
	<g>
		<g>
			<path class="st5" d="M220.608,346.771c-7.632-1.911-13.589-7.87-15.504-15.502l-0.324-1.303l-0.328,1.303
				c-1.911,7.631-7.871,13.591-15.502,15.502l-1.303,0.328l1.303,0.328c7.631,1.911,13.59,7.869,15.502,15.5l0.328,1.302
				l0.324-1.302c1.915-7.63,7.872-13.589,15.504-15.5l1.303-0.328L220.608,346.771z"/>
		</g>
	</g>
	<g>
		<g>
			<path class="st0" d="M376.518,168.295c-16.87-4.224-30.035-17.396-34.269-34.264l-0.716-2.879l-0.725,2.879
				c-4.224,16.867-17.397,30.04-34.263,34.264l-2.88,0.725l2.88,0.725c16.866,4.224,30.039,17.394,34.263,34.26l0.725,2.878
				l0.716-2.878c4.234-16.866,17.399-30.035,34.269-34.26l2.881-0.725L376.518,168.295z"/>
		</g>
	</g>
	<g>
		<g>
			<path class="st0" d="M426.319,230.542c-10.747-2.69-19.133-11.082-21.83-21.827l-0.456-1.834l-0.462,1.834
				c-2.691,10.745-11.083,19.136-21.827,21.827l-1.835,0.462l1.835,0.462c10.744,2.691,19.136,11.08,21.827,21.824l0.462,1.833
				l0.456-1.833c2.697-10.744,11.083-19.133,21.83-21.824l1.835-0.462L426.319,230.542z"/>
		</g>
	</g>
</g>
</svg>
