<?xml version="1.0" encoding="utf-8"?>
<!-- Generator: Adobe Illustrator 22.0.1, SVG Export Plug-In . SVG Version: 6.00 Build 0)  -->
<svg version="1.1" id="Layer_1" xmlns="http://www.w3.org/2000/svg" xmlns:xlink="http://www.w3.org/1999/xlink" x="0px" y="0px"
	 viewBox="0 0 512 512" style="enable-background:new 0 0 512 512;" xml:space="preserve">
<style type="text/css">
	.st0{fill:#330D84;}
	.st1{fill:#EDF3FC;}
	.st2{fill:#5932AE;}
	.st3{fill:#FFFFFF;}
	.st4{fill:#FFE37B;}
	.st5{fill:#5D8EF9;}
	.st6{fill:#8C7BFD;}
	.st7{fill:#8AC9F9;}
	.st8{fill:#FFBE1B;}
	.st9{fill:#6857E5;}
</style>
<g>
	<g>
		<g>
			<path class="st1" d="M255.999,40.928c-118.778,0-215.071,96.294-215.071,215.074c0,118.776,96.293,215.068,215.071,215.068
				S471.07,374.778,471.07,256.002C471.07,137.222,374.777,40.928,255.999,40.928z"/>
		</g>
	</g>
	<g>
		<g>
			<path class="st1" d="M255.999,1C115.391,1,1,115.392,1,256.002C1,396.609,115.391,511,255.999,511S511,396.609,511,256.002
				C511,115.392,396.607,1,255.999,1z M255.999,502.832c-136.103,0-246.83-110.728-246.83-246.83
				c0-136.104,110.727-246.833,246.83-246.833c136.102,0,246.832,110.729,246.832,246.833
				C502.831,392.104,392.101,502.832,255.999,502.832z"/>
		</g>
	</g>
	<g>
		<g>
			<path class="st8" d="M251.988,92.451c-7.671-1.922-13.658-7.911-15.584-15.583l-0.326-1.308l-0.328,1.308
				c-1.918,7.671-7.912,13.661-15.586,15.583l-1.303,0.329l1.303,0.331c7.674,1.921,13.668,7.908,15.586,15.58l0.328,1.309
				l0.326-1.309c1.926-7.671,7.913-13.659,15.584-15.58l1.31-0.331L251.988,92.451z"/>
		</g>
	</g>
	<g>
		<g>
			<path class="st5" d="M348.733,173.832H163.269c-23.29,0-42.174,18.891-42.174,42.181v100.542
				c0,23.289,18.884,42.176,42.174,42.176h65.49l27.24,41.604l30.654-41.604h62.08c23.283,0,42.173-18.886,42.173-42.176V216.012
				C390.906,192.723,372.015,173.832,348.733,173.832z"/>
		</g>
	</g>
	<g>
		<g>
			<path class="st8" d="M332.644,192.796c0,0-44.91,0-58.203,0c-6.693,0-7.944-5.3-5.553-12.357c2.357-6.96,4.84-10.441,4.84-21.275
				c0-13.573-7.929-30.935-21.285-30.935c-8.282,0-5.354,18.533-16.938,43.941c-5.173,11.347-16.996,29.001-25.083,38.814v83.48
				c4.906,5.296,12.549,10.876,22.99,10.876c14.21,0,78.579-0.048,78.579-0.048c20.457,0,20.687-25.737,7.161-27.951l3.669,0.129
				c12.948-1.396,18.381-24.396,1.822-28.583l3.087-0.056c12.37-1.3,18.051-23.317,0.819-28.226l4.091-0.414
				C351.018,219.933,350.021,192.844,332.644,192.796z"/>
		</g>
	</g>
	<g>
		<g>
			<path class="st2" d="M201.502,200.498h-26.635c-4.929,0-8.92,4.002-8.92,8.92v87.001c0,4.929,3.991,8.92,8.92,8.92h26.635
				c4.919,0,8.921-3.991,8.921-8.92v-87.001C210.422,204.5,206.421,200.498,201.502,200.498z"/>
		</g>
	</g>
	<g>
		<g>
			<path class="st3" d="M193.801,210.842c-3.775,0-6.827,3.052-6.827,6.827c0,3.775,3.052,6.828,6.827,6.828
				s6.828-3.052,6.828-6.828C200.628,213.895,197.576,210.842,193.801,210.842z"/>
		</g>
	</g>
	<g>
		<g>
			<path class="st8" d="M337.552,123.757c-14.332-3.591-25.519-14.781-29.117-29.115l-0.61-2.444l-0.612,2.444
				c-3.583,14.333-14.783,25.524-29.12,29.115l-2.435,0.615l2.435,0.618c14.337,3.588,25.537,14.776,29.12,29.109l0.612,2.446
				l0.61-2.446c3.599-14.333,14.785-25.521,29.117-29.109l2.448-0.618L337.552,123.757z"/>
		</g>
	</g>
	<g>
		<g>
			<path class="st0" d="M119.719,353.043c-8.037-2.015-14.311-8.295-16.33-16.331l-0.344-1.373l-0.341,1.373
				c-2.017,8.036-8.295,14.316-16.334,16.331L85,353.385l1.37,0.343c8.039,2.014,14.317,8.292,16.334,16.331l0.341,1.373
				l0.344-1.373c2.019-8.039,8.293-14.317,16.33-16.331l1.375-0.343L119.719,353.043z"/>
		</g>
	</g>
	<g>
		<g>
			<path class="st0" d="M207.616,405.621c-16.4-4.112-29.202-16.926-33.321-33.323l-0.702-2.801l-0.696,2.801
				c-4.116,16.397-16.926,29.211-33.33,33.323l-2.794,0.699l2.794,0.699c16.404,4.11,29.214,16.92,33.33,33.323l0.696,2.8l0.702-2.8
				c4.119-16.404,16.921-29.213,33.321-33.323l2.806-0.699L207.616,405.621z"/>
		</g>
	</g>
	<g>
		<g>
			<path class="st5" d="M422.609,365.043c-10.626-2.664-18.921-10.967-21.59-21.591l-0.455-1.815l-0.451,1.815
				c-2.667,10.625-10.967,18.927-21.596,21.591l-1.811,0.453l1.811,0.453c10.629,2.663,18.929,10.963,21.596,21.591l0.451,1.814
				l0.455-1.814c2.669-10.628,10.964-18.928,21.59-21.591l1.818-0.453L422.609,365.043z"/>
		</g>
	</g>
	<g>
		<g>
			<path class="st5" d="M431.507,312.334c-7.14-1.79-12.713-7.368-14.506-14.507l-0.306-1.219l-0.303,1.219
				c-1.792,7.139-7.369,12.717-14.51,14.507l-1.217,0.304l1.217,0.304c7.141,1.79,12.718,7.366,14.51,14.507l0.303,1.219
				l0.306-1.219c1.793-7.141,7.367-12.718,14.506-14.507l1.222-0.304L431.507,312.334z"/>
		</g>
	</g>
</g>
</svg>
