<svg id="Layer_1" data-name="Layer 1" xmlns="http://www.w3.org/2000/svg" viewBox="0 0 128 128"><title>CALCULATOR</title><rect x="21.784" y="8.68" width="84.431" height="110.721" style="fill:#2c5168"/><rect x="31.055" y="56.692" width="13.526" height="8.115" style="fill:#214456"/><rect x="49.687" y="56.692" width="13.526" height="8.115" style="fill:#214456"/><rect x="68.319" y="56.692" width="13.526" height="8.115" style="fill:#214456"/><rect x="86.951" y="56.692" width="13.526" height="23.141" style="fill:#214456"/><rect x="31.055" y="71.719" width="13.526" height="8.115" style="fill:#214456"/><rect x="49.687" y="71.719" width="13.526" height="8.115" style="fill:#214456"/><rect x="68.319" y="71.719" width="13.526" height="8.115" style="fill:#214456"/><rect x="31.055" y="86.746" width="13.526" height="8.115" style="fill:#214456"/><rect x="49.687" y="86.746" width="13.526" height="8.115" style="fill:#214456"/><rect x="68.319" y="86.746" width="13.526" height="8.115" style="fill:#214456"/><rect x="31.055" y="101.773" width="13.526" height="8.115" style="fill:#214456"/><rect x="49.687" y="101.773" width="13.526" height="8.115" style="fill:#214456"/><rect x="68.319" y="101.773" width="13.526" height="8.115" style="fill:#214456"/><rect x="86.951" y="86.746" width="13.526" height="8.115" style="fill:#214456"/><rect x="86.951" y="101.773" width="13.526" height="8.115" style="fill:#214456"/><rect x="103.083" y="8.68" width="3.133" height="110.721" style="fill:#214456"/><rect x="21.784" y="8.599" width="84.431" height="40.204" style="fill:#4e7693"/><rect x="103.083" y="8.599" width="3.133" height="40.204" style="fill:#2c5168"/><rect x="29.289" y="16.696" width="69.422" height="24.009" style="fill:#43a3f9"/><path d="M49.569,34.866H37.7a1.75,1.75,0,0,1,0-3.5H49.569a1.75,1.75,0,0,1,0,3.5Z" style="fill:#288aea"/><path d="M59.939,34.866H56.332a1.75,1.75,0,0,1,0-3.5h3.607a1.75,1.75,0,0,1,0,3.5Z" style="fill:#288aea"/><rect x="95.965" y="16.696" width="2.746" height="24.009" style="fill:#288aea"/><polygon points="53.179 16.696 37.889 16.696 87.333 40.705 98.711 40.705 98.711 38.806 53.179 16.696" style="fill:#e3f4ff"/><polygon points="44.769 40.705 54.907 40.705 29.289 28.276 29.289 33.195 44.769 40.705" style="fill:#e3f4ff"/><polygon points="74.549 16.696 64.412 16.696 98.711 33.341 98.711 28.422 74.549 16.696" style="fill:#e3f4ff"/><rect x="29.289" y="56.692" width="13.526" height="8.115" style="fill:#ffdf46"/><rect x="47.921" y="56.692" width="13.526" height="8.115" style="fill:#ffdf46"/><rect x="66.553" y="56.692" width="13.526" height="8.115" style="fill:#ffdf46"/><rect x="85.185" y="56.692" width="13.526" height="23.141" style="fill:#e3f4ff"/><rect x="29.289" y="71.719" width="13.526" height="8.115" style="fill:#ffdf46"/><rect x="47.921" y="71.719" width="13.526" height="8.115" style="fill:#ffdf46"/><rect x="66.553" y="71.719" width="13.526" height="8.115" style="fill:#ffdf46"/><rect x="29.289" y="86.746" width="13.526" height="8.115" style="fill:#ffdf46"/><rect x="47.921" y="86.746" width="13.526" height="8.115" style="fill:#ffdf46"/><rect x="66.553" y="86.746" width="13.526" height="8.115" style="fill:#ffdf46"/><rect x="29.289" y="101.773" width="13.526" height="8.115" style="fill:#ffdf46"/><rect x="47.921" y="101.773" width="13.526" height="8.115" style="fill:#ffdf46"/><rect x="66.553" y="101.773" width="13.526" height="8.115" style="fill:#ffdf46"/><rect x="85.185" y="86.746" width="13.526" height="8.115" style="fill:#9be058"/><rect x="85.185" y="101.773" width="13.526" height="8.115" style="fill:#fc3e81"/><rect x="96.622" y="101.773" width="2.089" height="8.115" style="fill:#e02057"/><rect x="77.99" y="101.773" width="2.089" height="8.115" style="fill:#ffc32c"/><rect x="77.99" y="86.746" width="2.089" height="8.115" style="fill:#ffc32c"/><rect x="77.99" y="71.719" width="2.089" height="8.115" style="fill:#ffc32c"/><rect x="77.99" y="56.692" width="2.089" height="8.115" style="fill:#ffc32c"/><rect x="59.358" y="101.773" width="2.089" height="8.115" style="fill:#ffc32c"/><rect x="59.358" y="86.746" width="2.089" height="8.115" style="fill:#ffc32c"/><rect x="59.358" y="71.719" width="2.089" height="8.115" style="fill:#ffc32c"/><rect x="59.358" y="56.692" width="2.089" height="8.115" style="fill:#ffc32c"/><rect x="40.726" y="101.773" width="2.089" height="8.115" style="fill:#ffc32c"/><rect x="40.726" y="86.746" width="2.089" height="8.115" style="fill:#ffc32c"/><rect x="40.726" y="71.719" width="2.089" height="8.115" style="fill:#ffc32c"/><rect x="40.726" y="56.692" width="2.089" height="8.115" style="fill:#ffc32c"/><rect x="96.622" y="86.746" width="2.089" height="8.115" style="fill:#77b734"/><rect x="96.622" y="56.692" width="2.089" height="23.141" style="fill:#bbd8ef"/><path d="M47.921,34.866H36.052a1.75,1.75,0,0,1,0-3.5H47.921a1.75,1.75,0,0,1,0,3.5Z" style="fill:#ffc32c"/><path d="M58.291,34.866H54.684a1.75,1.75,0,0,1,0-3.5h3.607a1.75,1.75,0,0,1,0,3.5Z" style="fill:#ffc32c"/><path d="M95.965,37.473l2.746,1.333v1.9H95.965Zm0-5.464,2.746,1.333V28.422l-2.746-1.333Z" style="fill:#bbd8ef"/></svg>