<svg id="Layer_1" data-name="Layer 1" xmlns="http://www.w3.org/2000/svg" viewBox="0 0 128 128"><title>CLOSE SIGN</title><path d="M115.047,32.664,64.807,6.56a1.75,1.75,0,0,0-1.613,0l-50.24,26.1a3.549,3.549,0,0,0-1.913,3.149v1.559a1.729,1.729,0,0,0,.807-.19L64,10.085l52.153,27.1a1.737,1.737,0,0,0,.805.2h0V35.813A3.549,3.549,0,0,0,115.047,32.664Z" style="fill:#2c5168"/><rect x="11.041" y="35.63" width="105.919" height="56.74" style="fill:#e3f4ff"/><polygon points="16.394 92.37 27.976 92.37 55.196 35.63 43.574 35.63 16.394 92.37" style="fill:#fff"/><polygon points="70.618 35.63 64.797 35.63 37.395 92.37 43.217 92.37 70.618 35.63" style="fill:#fff"/><polygon points="98.018 35.63 89.232 35.63 61.831 92.37 70.617 92.37 98.018 35.63" style="fill:#fff"/><polygon points="110.43 35.63 104.596 35.63 77.131 92.37 82.958 92.37 110.43 35.63" style="fill:#fff"/><path d="M25.5,44.545a3.421,3.421,0,1,1-3.421-3.421A3.421,3.421,0,0,1,25.5,44.545Zm84.132-3.421a3.421,3.421,0,1,0,3.421,3.421A3.421,3.421,0,0,0,109.63,41.125ZM22.077,80.034A3.421,3.421,0,1,0,25.5,83.455,3.421,3.421,0,0,0,22.077,80.034Zm87.553,0a3.421,3.421,0,1,0,3.421,3.421A3.421,3.421,0,0,0,109.63,80.034Z" style="fill:#bbd8ef"/><rect x="38.525" y="80.868" width="54.657" height="5.174" rx="2.587" ry="2.587" style="fill:#bbd8ef"/><rect x="38.525" y="41.958" width="54.657" height="5.174" rx="2.587" ry="2.587" style="fill:#bbd8ef"/><path d="M20.916,62.467a8,8,0,0,1,8.052-7.746A8.219,8.219,0,0,1,34.924,57.3L32.2,59.718A4.181,4.181,0,0,0,28.967,58.1a4.377,4.377,0,0,0,0,8.75,4.224,4.224,0,0,0,3.251-1.615l2.706,2.4a8.154,8.154,0,0,1-5.957,2.6A8.019,8.019,0,0,1,20.916,62.467Z" style="fill:#bbd8ef"/><path d="M52.031,66.635v3.338H41.1V54.983h3.709V66.635Z" style="fill:#bbd8ef"/><path d="M57.791,62.467a8.068,8.068,0,1,1,8.052,7.768A8,8,0,0,1,57.791,62.467Zm12.285,0a4.236,4.236,0,1,0-4.233,4.386A4.366,4.366,0,0,0,70.076,62.467Z" style="fill:#bbd8ef"/><path d="M79.415,67.726l2.095-2.509a7.66,7.66,0,0,0,4.931,1.9c1.4,0,2.117-.567,2.117-1.375,0-.9-.7-1.091-2.88-1.615-3.208-.72-5.586-1.593-5.586-4.6,0-2.88,2.313-4.8,5.739-4.8A9.062,9.062,0,0,1,91.9,56.772L90,59.434a7.182,7.182,0,0,0-4.276-1.593c-1.2,0-1.876.567-1.876,1.309,0,.917.72,1.222,2.945,1.7,3.36.72,5.521,1.68,5.521,4.495,0,3.011-2.291,4.888-6,4.888A10.149,10.149,0,0,1,79.415,67.726Z" style="fill:#bbd8ef"/><path d="M102.5,58.321v2.334h7.332v3.339H102.5v2.64h8.073v3.338h-11.8V54.983h11.8v3.338Z" style="fill:#bbd8ef"/><rect x="112.982" y="35.63" width="3.978" height="56.74" style="fill:#bbd8ef"/><path d="M19.171,62.467a8,8,0,0,1,8.052-7.746A8.219,8.219,0,0,1,33.18,57.3l-2.728,2.422A4.181,4.181,0,0,0,27.223,58.1a4.377,4.377,0,0,0,0,8.75,4.224,4.224,0,0,0,3.251-1.615l2.706,2.4a8.154,8.154,0,0,1-5.957,2.6A8.019,8.019,0,0,1,19.171,62.467Z" style="fill:#fc3e81"/><path d="M50.286,66.635v3.338H39.354V54.983h3.709V66.635Z" style="fill:#fc3e81"/><path d="M56.046,62.467A8.068,8.068,0,1,1,64.1,70.235,8,8,0,0,1,56.046,62.467Zm12.285,0A4.236,4.236,0,1,0,64.1,66.853,4.366,4.366,0,0,0,68.331,62.467Z" style="fill:#fc3e81"/><path d="M77.67,67.726l2.095-2.509a7.66,7.66,0,0,0,4.931,1.9c1.4,0,2.117-.567,2.117-1.375,0-.9-.7-1.091-2.88-1.615-3.208-.72-5.586-1.593-5.586-4.6,0-2.88,2.313-4.8,5.739-4.8a9.062,9.062,0,0,1,6.066,2.051l-1.9,2.662a7.182,7.182,0,0,0-4.276-1.593c-1.2,0-1.876.567-1.876,1.309,0,.917.72,1.222,2.945,1.7,3.36.72,5.521,1.68,5.521,4.495,0,3.011-2.291,4.888-6,4.888A10.149,10.149,0,0,1,77.67,67.726Z" style="fill:#fc3e81"/><path d="M100.756,58.321v2.334h7.332v3.339h-7.332v2.64h8.073v3.338h-11.8V54.983h11.8v3.338Z" style="fill:#fc3e81"/><path d="M23.644,44.545a3.421,3.421,0,1,1-3.421-3.421A3.421,3.421,0,0,1,23.644,44.545Zm84.132-3.421a3.421,3.421,0,1,0,3.421,3.421A3.421,3.421,0,0,0,107.776,41.125ZM20.224,80.034a3.421,3.421,0,1,0,3.421,3.421A3.421,3.421,0,0,0,20.224,80.034Zm87.553,0a3.421,3.421,0,1,0,3.421,3.421A3.421,3.421,0,0,0,107.776,80.034Z" style="fill:#4e7693"/><path d="M20.224,80.034a3.385,3.385,0,0,0-1.085.192,3.4,3.4,0,0,1,0,6.457,3.385,3.385,0,0,0,1.085.192,3.421,3.421,0,1,0,0-6.841Z" style="fill:#2c5168"/><path d="M109.028,44.545a3.409,3.409,0,0,1-2.336,3.229,3.385,3.385,0,0,0,1.085.192,3.421,3.421,0,0,0,0-6.841,3.385,3.385,0,0,0-1.085.192A3.41,3.41,0,0,1,109.028,44.545Z" style="fill:#2c5168"/><path d="M107.776,80.034a3.385,3.385,0,0,0-1.085.192,3.4,3.4,0,0,1,0,6.457,3.385,3.385,0,0,0,1.085.192,3.421,3.421,0,0,0,0-6.841Z" style="fill:#2c5168"/><path d="M20.224,41.125a3.385,3.385,0,0,0-1.085.192,3.4,3.4,0,0,1,0,6.457,3.385,3.385,0,0,0,1.085.192,3.421,3.421,0,1,0,0-6.841Z" style="fill:#2c5168"/><circle cx="64" cy="11.971" r="3.421" style="fill:#4e7693"/><rect x="36.672" y="80.868" width="54.657" height="5.174" rx="2.587" ry="2.587" style="fill:#4e7693"/><rect x="36.672" y="41.958" width="54.657" height="5.174" rx="2.587" ry="2.587" style="fill:#4e7693"/><path d="M88.741,80.868H85.249a2.587,2.587,0,0,1,0,5.174h3.492a2.587,2.587,0,0,0,0-5.174Z" style="fill:#2c5168"/><path d="M88.741,41.958H85.249a2.587,2.587,0,0,1,0,5.174h3.492a2.587,2.587,0,0,0,0-5.174Z" style="fill:#2c5168"/></svg>