<svg id="Layer_1" data-name="Layer 1" xmlns="http://www.w3.org/2000/svg" viewBox="0 0 128 128"><title>PAYMENT METHOD</title><rect x="16.34" y="18.572" width="85.833" height="47.26" style="fill:#9be058"/><circle cx="59.256" cy="42.202" r="15.96" style="fill:#77b734"/><path d="M65.864,45.979c0-2.842-2.022-3.967-5.137-4.736V37.405a8.384,8.384,0,0,1,1.742.769,1.432,1.432,0,0,0,1.89-.38l.2-.282a1.427,1.427,0,0,0-.371-2.047A9.184,9.184,0,0,0,60.727,34.2V32.18a1.433,1.433,0,0,0-1.433-1.433h0A1.433,1.433,0,0,0,57.86,32.18v1.927c-3.071.387-5.1,2.37-5.1,5.126,0,2.926,2.079,4.014,5.1,4.787v4.014A8.115,8.115,0,0,1,55.1,46.823a1.424,1.424,0,0,0-1.885.263l-.228.27a1.432,1.432,0,0,0,.273,2.106,10.692,10.692,0,0,0,4.6,1.691v1.071a1.433,1.433,0,0,0,1.433,1.433h0a1.433,1.433,0,0,0,1.433-1.433V51.169C63.984,50.752,65.864,48.781,65.864,45.979Zm-9.5-7.109a1.777,1.777,0,0,1,1.5-1.668V40.49C56.8,40.128,56.361,39.668,56.361,38.87Zm4.366,9.2V44.76c1.092.37,1.534.8,1.534,1.605A1.815,1.815,0,0,1,60.727,48.074Z" style="fill:#9be058"/><path d="M102.173,29.561V18.572H91.184A10.989,10.989,0,0,0,102.173,29.561Z" style="fill:#77b734"/><path d="M27.329,18.572H16.34V29.561A10.989,10.989,0,0,0,27.329,18.572Z" style="fill:#77b734"/><path d="M16.34,54.843V65.832H27.329A10.989,10.989,0,0,0,16.34,54.843Z" style="fill:#77b734"/><path d="M102.173,54.843A10.989,10.989,0,0,0,91.184,65.832h10.989Z" style="fill:#77b734"/><path d="M102.173,61.11l-1.355,1.355-4.5-4.5a3.606,3.606,0,0,0-5.1,5.1l2.772,2.772h8.186Z" style="fill:#77b734"/><path d="M84.693,59.912H33.82a1.75,1.75,0,0,1,0-3.5H84.693a1.75,1.75,0,0,1,0,3.5Zm0-31.921H33.82a1.75,1.75,0,0,1,0-3.5H84.693a1.75,1.75,0,0,1,0,3.5Z" style="fill:#77b734"/><circle cx="100.468" cy="90.299" r="19.129" style="fill:#ffdf46"/><path d="M100.468,71.17q-.505,0-1,.026a19.129,19.129,0,0,1,0,38.2q.5.026,1,.026a19.129,19.129,0,0,0,0-38.258Z" style="fill:#ffc32c"/><circle cx="100.468" cy="90.299" r="14.079" style="fill:#ffc32c"/><path d="M106.128,103.186l7.946-16.455a13.991,13.991,0,0,0-1.252-3.187l-9.956,20.616A13.969,13.969,0,0,0,106.128,103.186Z" style="fill:#ffdf46"/><path d="M97.125,76.636,87.688,96.178a14.051,14.051,0,0,0,1.546,2.58l10.876-22.521A14.071,14.071,0,0,0,97.125,76.636Z" style="fill:#ffdf46"/><path d="M91.277,100.949a14.073,14.073,0,0,0,3.208,2.081L106.719,77.7a13.954,13.954,0,0,0-3.622-1.223Z" style="fill:#ffdf46"/><path d="M106.452,93.719c0-2.574-1.831-3.593-4.652-4.289V85.955a7.592,7.592,0,0,1,1.578.7,1.3,1.3,0,0,0,1.711-.344l.185-.255a1.292,1.292,0,0,0-.336-1.854,8.316,8.316,0,0,0-3.138-1.142V81.223a1.3,1.3,0,0,0-1.3-1.3h0a1.3,1.3,0,0,0-1.3,1.3v1.745c-2.781.35-4.62,2.146-4.62,4.642,0,2.649,1.883,3.635,4.62,4.335V95.58a7.349,7.349,0,0,1-2.5-1.1A1.29,1.29,0,0,0,95,94.721l-.206.245a1.3,1.3,0,0,0,.247,1.907A9.682,9.682,0,0,0,99.2,98.4v.97a1.3,1.3,0,0,0,1.3,1.3h0a1.3,1.3,0,0,0,1.3-1.3v-.955C104.749,98.041,106.452,96.257,106.452,93.719Zm-8.605-6.437A1.609,1.609,0,0,1,99.2,85.771v2.978C98.241,88.42,97.847,88,97.847,87.282Zm3.953,8.335v-3c.989.335,1.389.728,1.389,1.454A1.643,1.643,0,0,1,101.8,95.617Z" style="fill:#2c5168"/><path d="M98.113,71.17h0a3.608,3.608,0,0,1-2.55-1.056L88.511,63.06a3.606,3.606,0,0,1,5.1-5.1l4.5,4.5,15.293-15.292a3.606,3.606,0,0,1,5.1,5.1L100.663,70.114A3.608,3.608,0,0,1,98.113,71.17Z" style="fill:#fc3e81"/><rect x="8.375" y="62.295" width="72.965" height="46.895" style="fill:#43a3f9"/><rect x="77.435" y="62.295" width="3.905" height="46.895" style="fill:#288aea"/><polygon points="8.375 89.452 49.058 109.189 59.231 109.189 8.375 84.515 8.375 89.452" style="fill:#e3f4ff"/><polygon points="81.339 86.262 31.951 62.295 21.778 62.295 81.339 91.199 81.339 86.262" style="fill:#e3f4ff"/><polygon points="81.339 104.134 81.339 96.683 10.52 62.295 8.375 62.295 8.375 68.703 81.339 104.134" style="fill:#e3f4ff"/><rect x="8.375" y="69.488" width="72.965" height="10.893" style="fill:#2c5168"/><rect x="77.435" y="69.488" width="3.905" height="10.893" style="fill:#214456"/><rect x="15.764" y="88.263" width="21.731" height="5.26" style="fill:#2c5168"/><rect x="43.712" y="88.263" width="12.01" height="5.26" style="fill:#2c5168"/><rect x="61.94" y="88.263" width="12.01" height="5.26" style="fill:#2c5168"/><path d="M73.954,103.557H49.729a1.75,1.75,0,0,1,0-3.5H73.954a1.75,1.75,0,0,1,0,3.5Z" style="fill:#ffdf46"/></svg>