<svg id="Layer_1" data-name="Layer 1" xmlns="http://www.w3.org/2000/svg" viewBox="0 0 128 128"><title>QR BARCODE</title><rect x="12.773" y="12.773" width="102.454" height="102.454" style="fill:#e3f4ff"/><rect x="112.124" y="12.773" width="3.103" height="102.454" style="fill:#bbd8ef"/><path d="M22.14,18.977V44H47.167V18.977ZM40.451,37.288H28.856V25.694H40.451ZM87.1,18.977V44h25.027V18.977Zm18.311,18.311H93.813V25.694h11.594ZM78.654,18.977V41.489H67.4V52.744H56.143V30.233H67.4V18.977ZM33.631,75.256H22.376V64H33.631ZM56.143,52.744V75.256H44.887V64H33.631V52.744H56.143ZM67.4,86.511H56.143V75.256H67.4ZM78.654,64H67.4V52.744H78.654Zm33.767,22.511H101.165V75.256h11.256ZM67.4,109.023H56.143V97.767H67.4Zm33.767-22.511v22.511H89.91V86.511Zm0-33.767V75.256H89.91V86.511H78.654V64H89.91V52.744ZM78.654,97.767H67.4V86.511H78.654ZM22.079,84v25.027H47.106V84ZM40.39,102.306H28.8V90.712H40.39Z" style="fill:#bbd8ef"/><path d="M19.038,18.977V44H44.066V18.977ZM37.349,37.288H25.755V25.694H37.349ZM84,18.977V44h25.027V18.977Zm18.311,18.311H90.712V25.694h11.594ZM75.553,18.977V41.489H64.3V52.744H53.041V30.233H64.3V18.977ZM30.53,75.256H19.275V64H30.53ZM53.041,52.744V75.256H41.786V64H30.53V52.744H53.041ZM64.3,86.511H53.042V75.256H64.3ZM75.553,64H64.3V52.744H75.553ZM109.32,86.511H98.064V75.256H109.32ZM64.3,109.023H53.042V97.767H64.3ZM98.064,86.511v22.511H86.808V86.511Zm0-33.767V75.256H86.808V86.511H75.553V64H86.808V52.744ZM75.553,97.767H64.3V86.511H75.553ZM18.977,84v25.027H44V84Zm18.311,18.311H25.694V90.712H37.288Z" style="fill:#4e7693"/><rect x="61.154" y="41.489" width="3.143" height="11.256" style="fill:#2c5168"/><rect x="72.409" y="52.744" width="3.143" height="11.256" style="fill:#2c5168"/><rect x="87.568" y="25.694" width="3.143" height="11.595" style="fill:#2c5168"/><rect x="61.154" y="75.256" width="3.143" height="11.256" style="fill:#2c5168"/><rect x="83.665" y="75.256" width="3.143" height="11.256" style="fill:#2c5168"/><rect x="22.611" y="25.694" width="3.143" height="11.595" style="fill:#2c5168"/><rect x="105.879" y="18.977" width="3.143" height="25.027" style="fill:#2c5168"/><rect x="22.55" y="90.712" width="3.143" height="11.594" style="fill:#2c5168"/><rect x="27.387" y="64" width="3.143" height="11.256" style="fill:#2c5168"/><rect x="72.409" y="86.511" width="3.143" height="11.256" style="fill:#2c5168"/><rect x="94.921" y="86.511" width="3.143" height="22.511" style="fill:#2c5168"/><rect x="61.154" y="97.767" width="3.143" height="11.256" style="fill:#2c5168"/><rect x="106.176" y="75.256" width="3.143" height="11.256" style="fill:#2c5168"/><rect x="40.922" y="18.977" width="3.143" height="25.027" style="fill:#2c5168"/><polygon points="72.409 41.489 75.553 41.489 75.553 30.233 75.553 18.977 72.409 18.977 72.409 30.233 72.409 41.489" style="fill:#2c5168"/><polygon points="49.898 75.256 53.042 75.256 53.042 64 53.042 52.744 49.898 52.744 49.898 64 49.898 75.256" style="fill:#2c5168"/><polygon points="98.064 52.744 94.921 52.744 94.921 64 94.921 75.256 98.064 75.256 98.064 64 98.064 52.744" style="fill:#2c5168"/><rect x="40.861" y="83.995" width="3.143" height="25.027" style="fill:#2c5168"/></svg>