<svg id="Layer_1" data-name="Layer 1" xmlns="http://www.w3.org/2000/svg" viewBox="0 0 128 128"><title>SHOPPING BAG</title><polygon points="118.567 117.608 44.476 117.608 49.682 35.234 113.361 35.234 118.567 117.608" style="fill:#9be058"/><path d="M66.018,48.2a3.12,3.12,0,0,0,3.119-3.119V35.234H62.9v9.848A3.119,3.119,0,0,0,66.018,48.2Z" style="fill:#77b734"/><path d="M101.747,48.2a3.119,3.119,0,0,0,3.119-3.119V35.234H98.627v9.848A3.119,3.119,0,0,0,101.747,48.2Z" style="fill:#77b734"/><polygon points="47.459 70.411 44.476 117.608 64 117.608 64 70.411 47.459 70.411" style="fill:#77b734"/><polygon points="113.361 35.234 106.363 35.234 111.569 117.608 118.567 117.608 113.361 35.234" style="fill:#77b734"/><path d="M99.386,48.2a3.119,3.119,0,0,1-3.119-3.119V31.376a14.745,14.745,0,0,0-29.49,0V45.081a3.119,3.119,0,0,1-6.239,0V31.376a20.984,20.984,0,0,1,41.968,0V45.081A3.119,3.119,0,0,1,99.386,48.2Z" style="fill:#4e7693"/><path d="M79.068,16.631A14.762,14.762,0,0,0,64.322,31.376V45.081a3.119,3.119,0,0,1-1.892,2.867,3.118,3.118,0,0,0,4.346-2.867V31.376A14.757,14.757,0,0,1,80.295,16.693C79.889,16.659,79.482,16.631,79.068,16.631Z" style="fill:#2c5168"/><path d="M81.522,10.392c-.414,0-.819.038-1.227.062a20.992,20.992,0,0,1,19.757,20.921V45.081a3.119,3.119,0,0,1-1.892,2.867,3.118,3.118,0,0,0,4.346-2.867V31.376A21.007,21.007,0,0,0,81.522,10.392Z" style="fill:#2c5168"/><polygon points="90.236 61.697 94.329 63.017 93.426 67.222 96.311 70.411 93.426 73.601 94.329 77.806 90.236 79.126 88.916 83.219 84.711 82.316 81.522 85.2 78.332 82.316 74.127 83.219 72.807 79.126 68.714 77.806 69.618 73.601 66.733 70.411 69.618 67.222 68.714 63.017 72.807 61.697 74.127 57.604 78.332 58.507 81.522 55.623 84.711 58.507 88.916 57.604 90.236 61.697" style="fill:#fc3e81"/><polygon points="44.476 117.608 118.567 117.608 118.033 109.148 45.011 109.148 44.476 117.608" style="fill:#ffdf46"/><polygon points="44.476 117.608 64 117.608 64 109.148 45.011 109.148 44.476 117.608" style="fill:#ffc32c"/><polygon points="118.033 109.148 111.034 109.148 111.569 117.608 118.567 117.608 118.033 109.148" style="fill:#ffc32c"/><rect x="9.433" y="70.411" width="49.824" height="47.196" style="fill:#ffdf46"/><path d="M22.542,78.851a2.3,2.3,0,0,0,2.3-2.3V70.411H20.239v6.136A2.3,2.3,0,0,0,22.542,78.851Z" style="fill:#ffc32c"/><path d="M46.623,70.411v6.136a2.3,2.3,0,0,0,4.607,0V70.411Z" style="fill:#ffc32c"/><rect x="53.425" y="70.411" width="5.832" height="47.196" style="fill:#ffc32c"/><rect x="9.433" y="109.148" width="49.824" height="8.46" style="fill:#fc3e81"/><rect x="53.425" y="109.148" width="5.832" height="8.46" style="fill:#e02057"/><path d="M47.537,78.851a2.3,2.3,0,0,1-2.3-2.3V66.426a10.889,10.889,0,0,0-21.777,0V76.547a2.3,2.3,0,1,1-4.607,0V66.426a15.5,15.5,0,0,1,30.991,0V76.547A2.3,2.3,0,0,1,47.537,78.851Z" style="fill:#4e7693"/><path d="M32.517,55.538A10.9,10.9,0,0,0,21.628,66.426V76.547a2.3,2.3,0,0,1-1.39,2.113,2.3,2.3,0,0,0,3.217-2.113V66.426a10.9,10.9,0,0,1,9.975-10.842C33.129,55.559,32.826,55.538,32.517,55.538Z" style="fill:#2c5168"/><path d="M34.345,50.931c-.308,0-.61.028-.914.046A15.5,15.5,0,0,1,48.013,66.426V76.547a2.3,2.3,0,0,1-1.39,2.113,2.3,2.3,0,0,0,3.217-2.113V66.426A15.513,15.513,0,0,0,34.345,50.931Z" style="fill:#2c5168"/></svg>