<svg id="Layer_1" data-name="Layer 1" xmlns="http://www.w3.org/2000/svg" viewBox="0 0 128 128"><title>SHOPING LIST</title><path d="M92.3,106.729v-85.4A10.931,10.931,0,0,0,81.367,10.392H24.823A10.879,10.879,0,0,1,35.7,21.271v85.4a10.931,10.931,0,0,0,10.931,10.931h56.544A10.879,10.879,0,0,1,92.3,106.729Z" style="fill:#e3f4ff"/><path d="M92.3,106.729V95.849H53.718v10.879a10.874,10.874,0,0,1-8.984,10.7,10.96,10.96,0,0,0,1.9.176h52.8a10.905,10.905,0,0,0,1.871-.172A10.874,10.874,0,0,1,92.3,106.729Z" style="fill:#bbd8ef"/><path d="M92.3,106.729v-85.4A10.931,10.931,0,0,0,81.367,10.392h-4.79A10.931,10.931,0,0,1,87.508,21.324v85.4a10.879,10.879,0,0,0,10.879,10.879h4.79A10.879,10.879,0,0,1,92.3,106.729Z" style="fill:#bbd8ef"/><path d="M82.993,50.253H45.007a1.75,1.75,0,0,1,0-3.5H82.993a1.75,1.75,0,0,1,0,3.5Zm1.75,8.409a1.75,1.75,0,0,0-1.75-1.75H45.007a1.75,1.75,0,0,0,0,3.5H82.993A1.75,1.75,0,0,0,84.743,58.662Zm0,10.159a1.75,1.75,0,0,0-1.75-1.75H45.007a1.75,1.75,0,0,0,0,3.5H82.993A1.75,1.75,0,0,0,84.743,68.821Zm0,10.159a1.75,1.75,0,0,0-1.75-1.75H45.007a1.75,1.75,0,0,0,0,3.5H82.993A1.75,1.75,0,0,0,84.743,78.979Zm0,10.159a1.75,1.75,0,0,0-1.75-1.75H45.007a1.75,1.75,0,0,0,0,3.5H82.993A1.75,1.75,0,0,0,84.743,89.138ZM59.21,99.3a1.75,1.75,0,0,0-1.75-1.75H45.007a1.75,1.75,0,0,0,0,3.5H57.46A1.75,1.75,0,0,0,59.21,99.3Zm-.349,10.159a1.75,1.75,0,0,0-1.75-1.75h-12.1a1.75,1.75,0,0,0,0,3.5h12.1A1.75,1.75,0,0,0,58.861,109.456Z" style="fill:#4e7693"/><path d="M58.861,109.456a1.75,1.75,0,0,0-1.75-1.75H53.674a10.776,10.776,0,0,1-.927,3.5h4.364A1.75,1.75,0,0,0,58.861,109.456Z" style="fill:#2c5168"/><path d="M57.46,97.547H53.718v3.5H57.46a1.75,1.75,0,0,0,0-3.5Z" style="fill:#2c5168"/><path d="M53.262,33.138v2.376H45.48V24.843h2.641v8.295Z" style="fill:#4e7693"/><path d="M56.258,24.843h2.656V35.514H56.258Z" style="fill:#4e7693"/><path d="M61.739,33.914l1.492-1.786a5.45,5.45,0,0,0,3.51,1.352c.994,0,1.507-.4,1.507-.979,0-.637-.5-.776-2.05-1.149-2.284-.513-3.977-1.134-3.977-3.277,0-2.05,1.646-3.417,4.085-3.417a6.453,6.453,0,0,1,4.318,1.46l-1.352,1.9a5.115,5.115,0,0,0-3.045-1.134c-.854,0-1.336.4-1.336.932,0,.652.513.87,2.1,1.211,2.392.513,3.93,1.2,3.93,3.2,0,2.144-1.631,3.479-4.271,3.479A7.228,7.228,0,0,1,61.739,33.914Z" style="fill:#4e7693"/><path d="M76.633,27.219H73.386V24.843H82.52v2.376H79.29v8.295H76.633Z" style="fill:#4e7693"/><path d="M24.823,10.392h0A10.879,10.879,0,0,1,35.7,21.271V32.151a0,0,0,0,1,0,0H13.944a0,0,0,0,1,0,0V21.271A10.879,10.879,0,0,1,24.823,10.392Z" style="fill:#bbd8ef"/><path d="M92.3,95.849H57.46v10.879a10.879,10.879,0,0,1-10.879,10.879h56.6a10.879,10.879,0,0,0,10.879-10.879V95.849Z" style="fill:#e3f4ff"/><path d="M109.42,95.849v10.879a10.879,10.879,0,0,1-10.879,10.879h4.636a10.879,10.879,0,0,0,10.879-10.879V95.849Z" style="fill:#bbd8ef"/></svg>