<?xml version="1.0" encoding="utf-8"?>
<!-- Generator: Adobe Illustrator 22.1.0, SVG Export Plug-In . SVG Version: 6.00 Build 0)  -->
<svg version="1.1" id="Layer_1" xmlns="http://www.w3.org/2000/svg" xmlns:xlink="http://www.w3.org/1999/xlink" x="0px" y="0px"
	 viewBox="0 0 256 256" style="enable-background:new 0 0 256 256;" xml:space="preserve">
<style type="text/css">
	.st0{fill:#4671C6;}
	.st1{fill:#F9CFCF;}
	.st2{fill:#F9A7A7;}
	.st3{fill:#A4C9FF;}
	.st4{fill:#3762CC;}
	.st5{fill:#E0EBFC;}
	.st6{fill:#6BDDDD;}
	.st7{fill:#B9BEFC;}
	.st8{fill:#FFEA92;}
	.st9{fill:#EAA97D;}
	.st10{fill:#FFEA94;}
	.st11{fill:#FFE164;}
	.st12{fill:#FFDC85;}
	.st13{fill:#FFFFFF;}
	.st14{fill:#383838;}
</style>
<g>
	<g>
		<path class="st3" d="M237.521,162.195H20.479c-4.281,0-7.752-3.47-7.752-7.752V18.146c0-4.281,3.47-7.752,7.752-7.752h217.042
			c4.281,0,7.751,3.47,7.751,7.752v136.297C245.273,158.725,241.802,162.195,237.521,162.195z"/>
	</g>
	<g>
		<path class="st6" d="M22.417,148.63V23.96c0-2.141,1.735-3.876,3.876-3.876h205.415c2.141,0,3.876,1.735,3.876,3.876v124.67
			c0,2.141-1.735,3.876-3.876,3.876H26.293C24.152,152.506,22.417,150.77,22.417,148.63z"/>
	</g>
	<g>
		<path class="st4" d="M237.521,164.195H20.479c-5.377,0-9.751-4.375-9.751-9.752V18.146c0-5.377,4.375-9.752,9.751-9.752h217.042
			c5.377,0,9.751,4.375,9.751,9.752v136.297C247.272,159.82,242.898,164.195,237.521,164.195z M20.479,12.395
			c-3.171,0-5.751,2.58-5.751,5.752v136.297c0,3.172,2.58,5.752,5.751,5.752h217.042c3.171,0,5.751-2.58,5.751-5.752V18.146
			c0-3.172-2.58-5.752-5.751-5.752H20.479z"/>
	</g>
	<g>
		<path class="st4" d="M231.707,154.506H26.292c-3.24,0-5.875-2.636-5.875-5.876V23.96c0-3.24,2.636-5.876,5.875-5.876h205.415
			c3.24,0,5.876,2.636,5.876,5.876v124.67C237.583,151.87,234.947,154.506,231.707,154.506z M26.292,22.084
			c-1.034,0-1.875,0.842-1.875,1.876v124.67c0,1.034,0.841,1.876,1.875,1.876h205.415c1.034,0,1.876-0.842,1.876-1.876V23.96
			c0-1.034-0.842-1.876-1.876-1.876H26.292z"/>
	</g>
	<g>
		<path class="st0" d="M218.147,227.24L218.147,227.24c0.063-6.22-4.753-24.296-4.753-24.296l0,0.001
			c-4.469-19.688-11.568-40.562-14.32-48.37c-0.555-1.881-0.777-2.196-1.143-3.196l0,0.01c-4.416-10.34-14.53-17.283-25.961-17.283
			h-32.21c-11.519,0-42.635,0-53.728,0c-11.431,0-21.545,6.944-25.961,17.283l0-0.01c-5.2,14.192-11.765,35.276-15.463,51.566
			l0-0.001c0,0-4.816,18.076-4.753,24.296h0c-0.375,5.694,0.217,11.553,3.364,14.913c1.642,1.93,3.975,3.075,6.452,3.389
			c8.926,0.919,19.563-8.196,25.984-14.182h0c1.967-1.833,1.326-1.237,23.966-22.706c1.797-1.704,4.166-2.653,6.627-2.653
			c49.421,0,48.367-0.92,52.135,2.653c24.441,23.177,22.135,21,23.966,22.706h0C207.345,254.664,219.405,246.337,218.147,227.24z"/>
	</g>
	<g>
		<circle class="st6" cx="88.854" cy="188.986" r="17.611"/>
	</g>
	<g>
		<path class="st5" d="M104.338,134.106l1.891,7.702c0.444,1.808,2.065,3.079,3.926,3.079c0.769,0,38.455,0,37.689,0
			c1.862,0,3.482-1.271,3.926-3.079l1.891-7.702C138.354,134.106,119.341,134.106,104.338,134.106z"/>
	</g>
	<g>
		<path class="st5" d="M92.528,185.209v-5.35c0-0.765-0.621-1.386-1.386-1.386h-4.577c-0.765,0-1.386,0.621-1.386,1.386v5.35h-5.35
			c-0.765,0-1.386,0.621-1.386,1.386v4.577c0,0.765,0.621,1.386,1.386,1.386h5.35v5.35c0,0.765,0.621,1.386,1.386,1.386h4.577
			c0.765,0,1.386-0.621,1.386-1.386v-5.35h5.35c0.765,0,1.386-0.621,1.386-1.386C99.264,184.134,100.285,185.209,92.528,185.209z"/>
	</g>
	<g>
		<circle class="st6" cx="172.38" cy="188.986" r="17.611"/>
	</g>
	<g>
		<circle class="st5" cx="172.38" cy="188.883" r="10.288"/>
	</g>
	<g>
		<circle class="st3" cx="176.545" cy="144.508" r="5.011"/>
	</g>
	<g>
		<circle class="st3" cx="176.545" cy="164.133" r="5.011"/>
	</g>
	<g>
		<circle class="st3" cx="186.357" cy="154.321" r="5.011"/>
	</g>
	<g>
		<circle class="st3" cx="166.732" cy="154.321" r="5.011"/>
	</g>
	<g>
		<path class="st2" d="M139.916,172.976h-21.832c-2.977,0-5.391-2.413-5.391-5.391v0c0-2.977,2.413-5.391,5.391-5.391h21.832
			c2.977,0,5.391,2.413,5.391,5.391v0C145.306,170.563,142.893,172.976,139.916,172.976z"/>
	</g>
	<g>
		<circle class="st5" cx="78.489" cy="155.46" r="13.685"/>
	</g>
	<g>
		<circle class="st3" cx="78.489" cy="155.38" r="8.089"/>
	</g>
	<g>
		<path class="st4" d="M78.489,171.145c-8.648,0-15.685-7.036-15.685-15.685s7.036-15.685,15.685-15.685s15.685,7.036,15.685,15.685
			S87.138,171.145,78.489,171.145z M78.489,143.775c-6.443,0-11.685,5.241-11.685,11.685s5.242,11.685,11.685,11.685
			s11.685-5.241,11.685-11.685S84.932,143.775,78.489,143.775z"/>
	</g>
	<g>
		<path class="st4" d="M78.489,165.47c-5.563,0-10.089-4.525-10.089-10.089s4.526-10.09,10.089-10.09s10.089,4.526,10.089,10.09
			S84.053,165.47,78.489,165.47z M78.489,149.291c-3.358,0-6.089,2.731-6.089,6.09c0,3.357,2.731,6.089,6.089,6.089
			s6.089-2.731,6.089-6.089C84.579,152.022,81.847,149.291,78.489,149.291z"/>
	</g>
	<g>
		<path class="st4" d="M139.916,174.977h-21.832c-4.075,0-7.39-3.315-7.39-7.391s3.315-7.391,7.39-7.391h21.832
			c4.075,0,7.391,3.315,7.391,7.391S143.991,174.977,139.916,174.977z M118.084,164.195c-1.869,0-3.39,1.521-3.39,3.391
			s1.521,3.391,3.39,3.391h21.832c1.869,0,3.391-1.521,3.391-3.391s-1.521-3.391-3.391-3.391H118.084z"/>
	</g>
	<g>
		<path class="st4" d="M50.931,247.604c-0.492,0-0.98-0.024-1.466-0.074c-3.122-0.395-5.865-1.842-7.771-4.082
			c-3.015-3.217-4.329-8.714-3.841-16.268c-0.026-6.449,4.576-23.83,4.817-24.739c3.882-17.078,10.59-38.291,15.522-51.751
			c0.026-0.071,0.057-0.142,0.09-0.209c4.826-11.167,15.704-18.375,27.749-18.375h85.938c12.043,0,22.918,7.205,27.745,18.369
			c0.035,0.069,0.066,0.142,0.094,0.216c0.103,0.28,0.193,0.502,0.284,0.725c0.236,0.579,0.48,1.179,0.885,2.543
			c2.842,8.069,9.884,28.821,14.35,48.469v0.001c0.198,0.745,4.847,18.271,4.82,24.752c0.63,9.79-2.059,16.621-7.575,19.239
			c-5.141,2.438-14.793,2.06-31.589-13.599l-0.329-0.307c-0.997-0.928-0.997-0.928-10.776-10.203l-12.872-12.207
			c-2.414-2.29-2.412-2.293-26.261-2.174c-6.364,0.03-14.372,0.069-24.498,0.069c-1.956,0-3.82,0.747-5.25,2.104l-13.393,12.701
			c-9.101,8.632-9.128,8.658-10.585,10.016C70.114,239.258,60.062,247.604,50.931,247.604z M46.523,203.52
			c-0.305,1.154-4.727,17.996-4.67,23.7c0,0.05-0.001,0.101-0.004,0.151c-0.418,6.353,0.56,10.991,2.829,13.414
			c1.321,1.549,3.161,2.508,5.243,2.771c8.744,0.904,20.506-10.059,24.37-13.661c1.454-1.355,1.481-1.381,10.561-9.992
			l13.393-12.701c2.176-2.064,5.019-3.202,8.003-3.202c10.118,0,18.119-0.038,24.479-0.069c25.446-0.122,25.452-0.123,29.013,3.254
			l12.891,12.225c9.767,9.263,9.767,9.263,10.749,10.177l0.332,0.31c11.652,10.862,21.547,15.565,27.146,12.911
			c3.89-1.847,5.819-7.473,5.294-15.436c-0.003-0.051-0.004-0.102-0.004-0.152c0.058-5.685-4.336-22.438-4.666-23.688
			c-0.015-0.046-0.027-0.094-0.038-0.143c-4.428-19.506-11.444-40.169-14.256-48.147c-0.011-0.033-0.021-0.066-0.031-0.1
			c-0.356-1.207-0.556-1.696-0.768-2.214c-0.094-0.23-0.187-0.46-0.29-0.735c-0.002-0.006-0.005-0.012-0.007-0.018
			c-4.17-9.761-13.638-16.067-24.122-16.067H86.031c-10.484,0-19.953,6.307-24.122,16.068c0,0-0.001,0.001-0.001,0.002
			c-4.89,13.361-11.521,34.342-15.351,51.211C46.547,203.433,46.536,203.477,46.523,203.52z"/>
	</g>
	<g>
		<path class="st4" d="M147.856,146.888h-37.701c-2.79,0-5.203-1.893-5.869-4.603l-1.891-7.702
			c-0.146-0.597-0.011-1.228,0.369-1.711c0.379-0.483,0.959-0.766,1.574-0.766h49.324c0.614,0,1.194,0.282,1.574,0.766
			c0.379,0.483,0.515,1.114,0.368,1.711l-1.892,7.702c-0.662,2.701-3.062,4.59-5.841,4.603
			C147.867,146.888,147.861,146.888,147.856,146.888z M106.889,136.106l1.283,5.226c0.225,0.916,1.041,1.556,1.984,1.556h37.689
			c0.943,0,1.759-0.64,1.983-1.556l1.283-5.226H106.889z"/>
	</g>
	<g>
		<path class="st4" d="M176.545,151.52c-3.866,0-7.012-3.146-7.012-7.012s3.146-7.011,7.012-7.011s7.011,3.145,7.011,7.011
			S180.411,151.52,176.545,151.52z M176.545,141.497c-1.661,0-3.012,1.351-3.012,3.011c0,1.661,1.351,3.012,3.012,3.012
			c1.66,0,3.011-1.351,3.011-3.012C179.556,142.848,178.205,141.497,176.545,141.497z"/>
	</g>
	<g>
		<path class="st4" d="M176.545,171.145c-3.866,0-7.012-3.146-7.012-7.012s3.146-7.011,7.012-7.011s7.011,3.145,7.011,7.011
			S180.411,171.145,176.545,171.145z M176.545,161.122c-1.661,0-3.012,1.351-3.012,3.011c0,1.661,1.351,3.012,3.012,3.012
			c1.66,0,3.011-1.351,3.011-3.012C179.556,162.473,178.205,161.122,176.545,161.122z"/>
	</g>
	<g>
		<path class="st4" d="M186.357,161.332c-3.866,0-7.012-3.146-7.012-7.012s3.146-7.011,7.012-7.011s7.011,3.145,7.011,7.011
			S190.224,161.332,186.357,161.332z M186.357,151.31c-1.661,0-3.012,1.351-3.012,3.011c0,1.661,1.351,3.012,3.012,3.012
			c1.66,0,3.011-1.351,3.011-3.012C189.368,152.66,188.018,151.31,186.357,151.31z"/>
	</g>
	<g>
		<path class="st4" d="M166.732,161.332c-3.866,0-7.012-3.146-7.012-7.012s3.146-7.011,7.012-7.011s7.011,3.145,7.011,7.011
			S170.599,161.332,166.732,161.332z M166.732,151.31c-1.661,0-3.012,1.351-3.012,3.011c0,1.661,1.351,3.012,3.012,3.012
			c1.66,0,3.011-1.351,3.011-3.012C169.743,152.66,168.393,151.31,166.732,151.31z"/>
	</g>
	<g>
		<path class="st4" d="M172.38,208.597c-10.813,0-19.61-8.797-19.61-19.61s8.797-19.611,19.61-19.611s19.611,8.798,19.611,19.611
			S183.193,208.597,172.38,208.597z M172.38,173.375c-8.607,0-15.61,7.003-15.61,15.611c0,8.607,7.003,15.61,15.61,15.61
			c8.608,0,15.611-7.003,15.611-15.61C187.991,180.378,180.988,173.375,172.38,173.375z"/>
	</g>
	<g>
		<path class="st4" d="M172.38,201.172c-6.775,0-12.287-5.513-12.287-12.288s5.512-12.288,12.287-12.288s12.288,5.513,12.288,12.288
			S179.155,201.172,172.38,201.172z M172.38,180.596c-4.569,0-8.287,3.718-8.287,8.288s3.718,8.288,8.287,8.288
			c4.57,0,8.288-3.718,8.288-8.288S176.95,180.596,172.38,180.596z"/>
	</g>
	<g>
		<path class="st4" d="M88.854,208.597c-10.813,0-19.611-8.797-19.611-19.61s8.797-19.611,19.611-19.611s19.611,8.798,19.611,19.611
			S99.667,208.597,88.854,208.597z M88.854,173.375c-8.608,0-15.611,7.003-15.611,15.611c0,8.607,7.003,15.61,15.611,15.61
			s15.611-7.003,15.611-15.61C104.465,180.378,97.462,173.375,88.854,173.375z"/>
	</g>
	<g>
		<path class="st4" d="M91.142,201.294h-4.576c-1.867,0-3.386-1.519-3.386-3.386v-3.351h-3.35c-1.867,0-3.386-1.519-3.386-3.386
			v-4.577c0-1.867,1.519-3.386,3.386-3.386h3.35v-3.35c0-1.867,1.519-3.387,3.386-3.387h4.576c1.867,0,3.386,1.52,3.386,3.387v3.327
			c0.224-0.004,0.437-0.009,0.64-0.014c2.581-0.052,4.001-0.089,5.106,1.016c1.091,1.088,1.063,2.504,1.016,4.849
			c-0.012,0.61-0.026,1.316-0.026,2.135c0,1.867-1.519,3.386-3.386,3.386h-3.35v3.351C94.528,199.775,93.009,201.294,91.142,201.294
			z M87.18,197.294h3.349v-4.736c0-1.104,0.896-2,2-2h4.739c0.005-0.594,0.015-1.125,0.024-1.6c0.013-0.638,0.027-1.335,0.007-1.796
			c-0.497-0.023-1.278-0.008-2.042,0.01s-1.665,0.037-2.729,0.037c-1.104,0-2-0.896-2-2v-4.736H87.18v4.736c0,1.104-0.896,2-2,2
			h-4.736v3.349h4.736c1.104,0,2,0.896,2,2V197.294z"/>
	</g>
	<g>
		<path class="st10" d="M210.56,113.237V72.639c0-2.056-1.663-3.722-3.714-3.722c-2.051,0-3.714,1.666-3.714,3.722v40.598
			c-2.307,1.296-3.869,3.764-3.869,6.599v12.412c0,0.785,0.636,1.421,1.421,1.421h12.323c0.785,0,1.421-0.636,1.421-1.421v-12.412
			C214.429,117.027,212.888,114.541,210.56,113.237z"/>
	</g>
	<g>
		<path class="st0" d="M124.062,37.88L46.654,68.932c-3.704,1.486-3.635,6.86,0.106,8.247l77.518,28.725
			c1.944,0.72,4.074,0.72,6.018,0l77.541-28.734c3.733-1.383,3.802-6.746,0.106-8.229l-77.43-31.061
			C128.439,37.048,126.135,37.048,124.062,37.88z"/>
	</g>
	<g>
		<path class="st4" d="M127.287,108.442c-1.255,0-2.51-0.221-3.705-0.664L46.065,79.054c-2.485-0.921-4.114-3.249-4.15-5.933
			c-0.036-2.685,1.532-5.058,3.994-6.046l77.407-31.052h0c2.561-1.027,5.38-1.027,7.94,0l77.43,31.061
			c2.459,0.987,4.024,3.356,3.988,6.037c-0.035,2.679-1.662,5.004-4.144,5.924l-77.54,28.733
			C129.797,108.222,128.542,108.442,127.287,108.442z M127.287,39.255c-0.84,0-1.681,0.16-2.48,0.481c0,0,0,0,0,0L47.399,70.788
			c-1.397,0.561-1.489,1.887-1.484,2.28c0.005,0.393,0.132,1.713,1.541,2.235l77.517,28.725c1.491,0.552,3.135,0.552,4.628,0
			l77.54-28.733c1.403-0.521,1.529-1.836,1.535-2.228c0.005-0.392-0.086-1.712-1.479-2.271l-77.43-31.061
			C128.967,39.415,128.127,39.255,127.287,39.255z M124.062,37.88h0.01H124.062z"/>
	</g>
	<g>
		<path class="st0" d="M174.804,79.796c-11.464-2.074-54.4-8.664-97.234-0.018c-1.7,0.343-2.803,1.201-2.803,2.138v0.044v21.373
			v0.002c0,0.973,1.175,1.838,2.963,2.162c11.464,2.074,54.4,8.664,97.234,0.018c1.7-0.343,2.803-1.201,2.803-2.138v-0.044V81.96
			v-0.002C177.768,80.985,176.593,80.12,174.804,79.796z"/>
	</g>
	<g>
		<path class="st4" d="M128.4,111.861c-23.996,0-43.474-3.029-51.025-4.396c-2.799-0.507-4.607-2.128-4.607-4.13V81.96
			c0-1.992,1.729-3.602,4.406-4.143c42.952-8.67,85.859-2.184,97.987,0.011l0,0c2.799,0.507,4.606,2.128,4.606,4.13v21.376
			c0,1.993-1.729,3.603-4.407,4.143C159.151,110.748,142.944,111.861,128.4,111.861z M76.768,103.053
			c0.185,0.133,0.602,0.347,1.32,0.478c11.951,2.162,54.227,8.557,96.481,0.024c0.646-0.13,1.026-0.332,1.198-0.457V82.241
			c-0.185-0.133-0.602-0.348-1.319-0.478c-11.951-2.161-54.228-8.555-96.482-0.025c-0.646,0.13-1.026,0.332-1.198,0.457V103.053z"/>
	</g>
</g>
</svg>
