<?xml version="1.0" encoding="utf-8"?>
<!-- Generator: Adobe Illustrator 22.1.0, SVG Export Plug-In . SVG Version: 6.00 Build 0)  -->
<svg version="1.1" id="Layer_1" xmlns="http://www.w3.org/2000/svg" xmlns:xlink="http://www.w3.org/1999/xlink" x="0px" y="0px"
	 viewBox="0 0 256 256" style="enable-background:new 0 0 256 256;" xml:space="preserve">
<style type="text/css">
	.st0{fill:#4671C6;}
	.st1{fill:#F9CFCF;}
	.st2{fill:#F9A7A7;}
	.st3{fill:#A4C9FF;}
	.st4{fill:#3762CC;}
	.st5{fill:#E0EBFC;}
	.st6{fill:#6BDDDD;}
	.st7{fill:#B9BEFC;}
	.st8{fill:#FFEA92;}
	.st9{fill:#EAA97D;}
	.st10{fill:#FFEA94;}
	.st11{fill:#FFE164;}
	.st12{fill:#FFDC85;}
	.st13{fill:#FFFFFF;}
	.st14{fill:#383838;}
</style>
<g>
	<g>
		<path class="st5" d="M165.777,171.656c-10.001,0-9.667-0.004-9.667-0.004l-0.003,0.004H92.924
			c-16.692,0-30.223,13.531-30.223,30.223c0,10.223,0,17.195,0,27.439h133.298c0-10.232,0-17.213,0-27.439
			C195.999,185.187,182.468,171.656,165.777,171.656z"/>
	</g>
	<g>
		<polygon class="st3" points="129.358,171.656 129.343,171.656 129.343,171.667 		"/>
	</g>
	<g>
		<path class="st0" d="M161.52,171.66l-24.545,39.243c-3.526,5.637-11.737,5.637-15.262-0.002L97.18,171.66
			c-4.962,0-12.894-0.606-21.543,5.437c4.384,28.732,3.568,16.815,3.568,52.22H182.62c0-35.395-0.738-23.997,3.233-50.019
			C176.55,171.023,166.904,171.662,161.52,171.66z"/>
	</g>
	<g>
		<path class="st2" d="M135.67,198.734h-12.639l-3.219,9.125l1.901,3.041c3.525,5.638,11.736,5.639,15.262,0.002l1.91-3.053
			L135.67,198.734z"/>
	</g>
	<g>
		<path class="st2" d="M129.35,174.335l-9.964,17.11l3.644,7.289c4.572,0,8.065,0,12.653,0l3.638-7.275L129.35,174.335z"/>
	</g>
	<g>
		<path class="st5" d="M99.014,165.839l-1.837,5.816l17.422,27.867l14.751-25.187l-26.431-10.362
			C101.323,163.348,99.531,164.204,99.014,165.839z"/>
	</g>
	<g>
		<path class="st5" d="M159.679,165.839l1.837,5.816l-17.422,27.867l-14.751-25.187l26.431-10.362
			C157.37,163.348,159.162,164.204,159.679,165.839z"/>
	</g>
	<g>
		<path class="st4" d="M114.6,201.522c-0.688,0-1.33-0.354-1.696-0.94l-17.422-27.867c-0.31-0.497-0.388-1.104-0.211-1.663
			l1.837-5.815c0.412-1.306,1.356-2.393,2.592-2.983c1.234-0.59,2.674-0.643,3.95-0.142l26.431,10.361
			c0.545,0.213,0.969,0.654,1.16,1.207c0.191,0.553,0.132,1.162-0.164,1.666l-14.751,25.187c-0.354,0.604-0.997,0.979-1.696,0.989
			C114.619,201.522,114.609,201.522,114.6,201.522z M99.363,171.378l15.181,24.282l11.898-20.316l-24.253-9.508
			c-0.341-0.132-0.624-0.04-0.766,0.028c-0.141,0.067-0.393,0.231-0.502,0.577c0,0,0,0,0,0.001L99.363,171.378z M99.015,165.839
			h0.01H99.015z"/>
	</g>
	<g>
		<path class="st4" d="M144.094,201.522c-0.01,0-0.02,0-0.029,0c-0.699-0.01-1.343-0.385-1.696-0.989l-14.751-25.187
			c-0.296-0.504-0.355-1.113-0.164-1.666c0.191-0.552,0.615-0.993,1.16-1.207l26.431-10.361c1.272-0.501,2.712-0.448,3.949,0.142
			c1.235,0.59,2.18,1.677,2.593,2.983l0,0l1.837,5.816c0.177,0.559,0.099,1.166-0.211,1.663l-17.422,27.867
			C145.424,201.168,144.782,201.522,144.094,201.522z M132.251,175.344l11.898,20.316l15.181-24.282l-1.559-4.936
			c-0.109-0.347-0.362-0.511-0.503-0.578c-0.14-0.067-0.427-0.159-0.765-0.028L132.251,175.344z"/>
	</g>
	<g>
		<path class="st5" d="M155.936,201.005c-1.231,0-0.904,0.6-0.904,10.928l0,0c0,6.374-0.308,7.183,1.048,7.811
			c8.82,4.085,5.979,4.11,14.852,0c1.387-0.642,1.048-0.357,1.048-17.835l0,0C171.98,200.664,171.867,201.005,155.936,201.005z"/>
	</g>
	<g>
		<path class="st6" d="M170.932,219.745c1.414-0.655,1.048-0.447,1.048-17.835c0-1.208-0.847-0.904-8.474-0.904v21.853
			C164.506,222.858,164.518,222.716,170.932,219.745z"/>
	</g>
	<g>
		<path class="st4" d="M195.999,231.317H62.701c-1.104,0-2-0.896-2-2v-27.439c0-17.768,14.455-32.223,32.223-32.223h4.254
			c0.689,0,1.33,0.355,1.696,0.94l24.535,39.246c1.287,2.059,3.507,3.289,5.936,3.289c2.428,0,4.646-1.229,5.935-3.288
			l24.548-39.248c0.365-0.584,1.006-0.939,1.695-0.939h4.254c17.768,0,32.223,14.455,32.223,32.223v27.439
			C197.999,230.422,197.104,231.317,195.999,231.317z M64.701,227.317h129.298v-25.439c0-15.562-12.66-28.223-28.223-28.223h-3.146
			l-23.961,38.308c-2.022,3.235-5.51,5.167-9.325,5.167l0,0c-3.817,0-7.304-1.933-9.327-5.168l-23.948-38.307h-3.146
			c-15.563,0-28.223,12.661-28.223,28.223V227.317z"/>
	</g>
	<g>
		<path class="st1" d="M102.919,163.974l26.427,10.36c0.454-0.178,26.403-10.38,26.88-10.485v-4.793
			c-8.03,4.179-17.167,6.554-26.869,6.554c-9.714,0-18.861-2.38-26.898-6.569v4.807
			C102.613,163.881,102.768,163.914,102.919,163.974z"/>
	</g>
	<g>
		<path class="st4" d="M129.347,176.334c-0.248,0-0.495-0.046-0.729-0.138L102.2,165.84c-0.054-0.017-0.109-0.026-0.163-0.038
			c-0.921-0.199-1.577-1.013-1.577-1.955v-4.808c0-0.699,0.365-1.348,0.963-1.71s1.339-0.387,1.962-0.063
			c7.96,4.149,16.941,6.343,25.973,6.343c9.021,0,17.992-2.188,25.945-6.328c0.62-0.323,1.364-0.298,1.962,0.064
			c0.597,0.363,0.962,1.011,0.962,1.71v4.793c0,0.892-0.59,1.67-1.435,1.918c-0.887,0.305-10.992,4.25-26.458,10.327l-0.257,0.101
			C129.843,176.288,129.595,176.334,129.347,176.334z M104.46,162.43l24.886,9.756c16.356-6.427,22.508-8.819,24.881-9.723v-0.212
			c-7.767,3.514-16.298,5.359-24.869,5.359c-8.582,0-17.123-1.85-24.897-5.373V162.43z M102.205,165.842h0.011H102.205z
			 M102.191,165.837"/>
	</g>
	<g>
		<path class="st1" d="M187.272,86.402c-9.866-7.103-19.219-12.127-22.65-26.267c-8.36,7.04-20.255,11.51-31.5,13.936l0.001,0.001
			c-1.18,0.225-8.802,2-17.738,2.067l0.005-0.011c-13.895,0.565-30.067-1.917-42.36-8.466c-0.001,0-0.002-0.001-0.002-0.001
			c-1.806,7.527-1.585,12.46-1.585,18.741c-10.081-0.203-18.035,7.832-18.035,17.491c0,10.341,9.027,18.52,19.565,17.406
			c5.976,25.391,28.943,44.31,56.385,44.31c27.442,0,50.409-18.92,56.385-44.31c0.623,0.066,1.255,0.104,1.896,0.104
			c9.758,0,17.669-7.839,17.669-17.51C205.307,94.029,197.094,86.16,187.272,86.402z"/>
	</g>
	<g>
		<path class="st4" d="M129.369,140.554C129.368,140.554,129.369,140.554,129.369,140.554c-3.977,0-7.675-1.429-10.146-3.92
			c-1.864-1.88-2.892-4.248-2.892-6.667c0-1.104,0.896-2,2-2s2,0.896,2,2c0,1.376,0.599,2.708,1.731,3.85
			c1.726,1.74,4.389,2.738,7.306,2.738c2.894,0,5.544-0.998,7.27-2.738c1.133-1.142,1.731-2.473,1.731-3.85c0-1.104,0.896-2,2-2
			s2,0.896,2,2c0,2.419-1.027,4.787-2.892,6.667C137.006,139.125,133.321,140.554,129.369,140.554z"/>
	</g>
	<g>
		<path class="st4" d="M100.708,119.911c-3.855,0-6.992-3.136-6.992-6.991v-11.652c0-3.855,3.136-6.991,6.992-6.991
			c3.854,0,6.991,3.136,6.991,6.991v11.652C107.699,116.775,104.563,119.911,100.708,119.911z"/>
	</g>
	<g>
		<path class="st4" d="M157.993,119.911c-3.855,0-6.992-3.136-6.992-6.991v-11.652c0-3.855,3.136-6.991,6.992-6.991
			c3.854,0,6.991,3.136,6.991,6.991v11.652C164.984,116.775,161.848,119.911,157.993,119.911z"/>
	</g>
	<g>
		<path class="st0" d="M186.184,37.566c-4.448-5.798-10.814-3.094-13.035-2.421c2.098,6.171,1.373,13.719-3.323,19.556
			c-1.445,1.939-3.21,3.744-5.207,5.426c3.38,13.945,12.482,18.952,22.652,26.275c3.225-0.077,6.202,0.698,8.815,2.11
			C197.396,78.907,202.065,58.268,186.184,37.566z"/>
	</g>
	<g>
		<path class="st4" d="M196.087,90.512c-0.327,0-0.654-0.08-0.951-0.24c-2.418-1.307-5.043-1.94-7.815-1.871
			c-0.46,0.013-0.863-0.122-1.217-0.376c-1.088-0.783-2.163-1.54-3.221-2.284c-8.749-6.154-17.013-11.967-20.206-25.143
			c-0.179-0.737,0.074-1.512,0.654-2.001c1.955-1.646,3.601-3.359,4.892-5.091c3.944-4.905,5.089-11.671,3.033-17.717
			c-0.175-0.513-0.133-1.075,0.114-1.558c0.248-0.482,0.681-0.843,1.199-1c0.163-0.049,0.351-0.111,0.56-0.179
			c2.649-0.867,9.686-3.167,14.643,3.296c15.182,19.79,12.229,39.484,10.643,50.064c-0.128,0.851-0.246,1.642-0.346,2.37
			c-0.089,0.65-0.49,1.216-1.076,1.513C196.708,90.44,196.397,90.512,196.087,90.512z M187.909,84.397
			c2.28,0.021,4.483,0.424,6.582,1.201c1.505-10.044,4.15-28.508-9.894-46.815l0,0c-2.624-3.42-5.924-3.174-8.982-2.311
			c1.645,6.8,0.097,14.104-4.23,19.483c-1.216,1.632-2.741,3.279-4.518,4.869c3.011,10.878,9.799,15.653,18.316,21.645
			C186.081,83.1,186.99,83.74,187.909,84.397z"/>
	</g>
	<g>
		<path class="st4" d="M129.357,167.609c-27.421,0-51-18.094-57.922-44.214c-5.005,0.092-9.857-1.708-13.571-5.049
			c-4.103-3.692-6.456-8.96-6.456-14.453c0-5.257,2.078-10.188,5.852-13.886c3.312-3.246,7.577-5.175,12.178-5.544
			c-0.02-5.517-0.026-10.303,1.645-17.27c0.143-0.593,0.548-1.089,1.101-1.346c0.554-0.258,1.193-0.249,1.739,0.024
			c10.877,5.794,26.33,8.875,41.387,8.258c0.091-0.003,0.181-0.001,0.271,0.007c7.787-0.082,14.427-1.462,16.622-1.918l0.547-0.112
			c12.602-2.72,23.48-7.518,30.586-13.501c0.529-0.447,1.255-0.585,1.91-0.371c0.658,0.216,1.158,0.756,1.321,1.429
			c2.859,11.783,10.1,16.851,18.484,22.719c0.944,0.661,1.898,1.329,2.859,2.015c5.082,0.047,9.861,2.018,13.522,5.59
			c3.789,3.696,5.875,8.635,5.875,13.906c0,10.758-8.823,19.51-19.668,19.51c-0.12,0-0.24-0.001-0.36-0.003
			C180.355,149.517,156.778,167.609,129.357,167.609z M72.975,119.299c0.917,0,1.73,0.63,1.945,1.542
			c5.927,25.181,28.313,42.769,54.438,42.769c26.126,0,48.512-17.587,54.438-42.769c0.231-0.981,1.155-1.646,2.157-1.531
			c0.592,0.063,1.144,0.093,1.687,0.093c8.64,0,15.668-6.958,15.668-15.51c0-4.184-1.658-8.105-4.668-11.043
			c-3.049-2.974-7.051-4.559-11.317-4.449c-0.411,0.008-0.864-0.121-1.218-0.376c-1.125-0.81-2.243-1.593-3.348-2.365
			c-8-5.599-15.591-10.912-19.243-22.106c-9.43,6.958-21.327,10.608-29.969,12.473l-0.522,0.107
			c-6.197,1.29-12.126,1.964-17.621,2.005c-0.044,0.004-0.095-0.001-0.142-0.004c-14.623,0.559-29.64-2.23-40.825-7.531
			c-1.026,5.278-1.012,9.34-0.995,13.947l0.004,1.851c0,0.538-0.216,1.052-0.601,1.428c-0.385,0.376-0.9,0.589-1.439,0.571
			c-4.293-0.062-8.319,1.499-11.343,4.462c-3,2.939-4.651,6.856-4.651,11.029c0,4.36,1.87,8.544,5.132,11.479
			c3.307,2.975,7.757,4.41,12.223,3.938C72.833,119.302,72.904,119.299,72.975,119.299z"/>
	</g>
	<g>
		<path class="st0" d="M142.112,71.687c17.895-5.656,34.194-16.636,31.934-32.559c-0.674-4.748-3.025-9.106-6.423-12.49
			C157.564,16.621,146.649,11.371,135.66,9.34l0.001-0.001c-33.307-5.81-59.709,8.74-69.679,20.667l0,0
			c0,0-36.846,34.213,21.103,57.746c0.765,0.311,1.561-0.371,1.353-1.17c-4.64-17.749,1.93,5.106,57.928-2.24
			c1.716-0.225,2.352-2.383,1.033-3.504c-1.719-1.462-3.891-3.45-6.146-5.875C140.251,73.885,140.71,72.131,142.112,71.687z"/>
	</g>
	<g>
		<path class="st4" d="M87.474,89.829c-0.384,0-0.771-0.074-1.142-0.224c-19.965-8.107-31.23-18.452-33.484-30.744
			c-2.908-15.867,10.298-28.918,11.677-30.23c9.987-11.858,37.18-27.249,71.48-21.262c12.313,2.277,23.42,8.283,33.029,17.853
			c3.799,3.783,6.282,8.622,6.993,13.626c2.09,14.731-10.053,27.396-33.313,34.748l-0.008,0.003c1.868,2.003,3.88,3.926,5.986,5.718
			c1.222,1.038,1.698,2.639,1.244,4.178c-0.454,1.538-1.723,2.623-3.313,2.832c-31.849,4.179-48.217-1.365-55.206-3.731
			c-0.699-0.237-1.448-0.491-2.058-0.674c0.215,1.111,0.644,2.75,1.011,4.157c0.289,1.102-0.063,2.252-0.919,3.003
			C88.893,89.572,88.189,89.829,87.474,89.829z M120.627,10.024c-25.619,0-45.229,11.835-53.111,21.265
			c-0.054,0.064-0.111,0.125-0.173,0.183c-0.131,0.122-13.177,12.48-10.557,26.69c1.935,10.488,11.758,19.556,29.211,26.973
			c-0.945-3.735-1.173-5.48,0.161-6.722c1.436-1.34,3.252-0.722,6.543,0.392c6.727,2.278,22.476,7.612,53.404,3.555
			c-2.229-1.89-4.354-3.921-6.318-6.034c-0.94-1.013-1.292-2.415-0.939-3.751c0.353-1.333,1.347-2.378,2.662-2.793v0
			c7.828-2.474,33.166-11.976,30.557-30.371c-0.589-4.148-2.668-8.181-5.854-11.354c-9.028-8.991-19.43-14.626-30.915-16.749
			C130.229,10.422,125.326,10.024,120.627,10.024z"/>
	</g>
	<g>
		<path class="st4" d="M129.345,217.13c-0.001,0-0.002,0-0.002,0c-3.816-0.001-7.303-1.933-9.326-5.169l-1.901-3.041
			c-0.322-0.516-0.393-1.151-0.189-1.726l3.22-9.125c0.282-0.8,1.038-1.334,1.886-1.334h12.639c0.848,0,1.604,0.535,1.886,1.335
			l3.215,9.114c0.203,0.574,0.133,1.209-0.19,1.726l-1.909,3.053C136.647,215.198,133.16,217.13,129.345,217.13z M122.019,207.616
			l1.391,2.224c1.287,2.06,3.505,3.289,5.934,3.29c0.001,0,0.001,0,0.002,0c2.429,0,4.647-1.229,5.936-3.289l1.397-2.236
			l-2.423-6.871h-9.809L122.019,207.616z"/>
	</g>
	<g>
		<path class="st4" d="M135.685,200.734h-12.653c-0.758,0-1.45-0.428-1.789-1.105l-3.645-7.289
			c-0.302-0.604-0.278-1.318,0.061-1.901l9.964-17.11c0.358-0.615,1.017-0.994,1.729-0.994l0,0c0.712,0,1.37,0.378,1.729,0.994
			l9.971,17.124c0.339,0.583,0.362,1.297,0.061,1.9l-3.637,7.275C137.135,200.306,136.442,200.734,135.685,200.734z
			 M124.268,196.734h10.181l2.601-5.203l-7.698-13.222l-7.691,13.208L124.268,196.734z"/>
	</g>
	<g>
		<path class="st5" d="M128,233.188v4.872H31.755v-13.25l0,0c18.361-7.325,38.523-8.86,57.781-4.4l34.693,8.034
			C126.437,228.955,128,230.922,128,233.188z"/>
	</g>
	<g>
		<path class="st5" d="M128,233.188v4.872h96.245v-13.25l0,0c-18.361-7.325-38.523-8.86-57.781-4.4l-34.693,8.034
			C129.563,228.955,128,230.922,128,233.188z"/>
	</g>
	<g>
		<path class="st0" d="M71.466,79.811c-5.759-3.737-9.757-7.601-12.427-11.449c-0.423,7.108,0.7,13.316,1.787,21.287
			c3.015-2.135,6.667-3.341,10.617-3.247C71.443,84.081,71.415,81.949,71.466,79.811z"/>
	</g>
	<g>
		<path class="st4" d="M60.826,91.649c-0.27,0-0.541-0.055-0.797-0.166c-0.641-0.278-1.09-0.872-1.185-1.564
			c-0.158-1.157-0.316-2.277-0.471-3.368c-0.914-6.458-1.704-12.035-1.331-18.308c0.05-0.851,0.635-1.576,1.455-1.807
			c0.823-0.231,1.697,0.084,2.184,0.785c2.689,3.873,6.684,7.544,11.874,10.912c0.583,0.378,0.928,1.032,0.91,1.726
			c-0.037,1.553-0.032,3.103-0.026,4.725l0.004,1.818c0,0.539-0.217,1.055-0.603,1.431c-0.386,0.376-0.856,0.583-1.445,0.569
			c-3.375-0.076-6.64,0.916-9.413,2.88C61.639,91.525,61.233,91.649,60.826,91.649z M61.004,73.884
			c0.172,3.922,0.723,7.813,1.33,12.107c0.02,0.135,0.038,0.27,0.058,0.406c2.208-1.086,4.587-1.741,7.047-1.938
			c-0.004-1.224-0.007-2.409,0.009-3.586C66.173,78.669,63.351,76.331,61.004,73.884z"/>
	</g>
	<g>
		<path class="st6" d="M128,248.061H29.755c-2.761,0-5-2.239-5-5v0c0-2.761,2.239-5,5-5H128V248.061z"/>
	</g>
	<g>
		<path class="st6" d="M128,248.061h98.245c2.761,0,5-2.239,5-5v0c0-2.761-2.239-5-5-5H128V248.061z"/>
	</g>
	<g>
		<path class="st4" d="M128,240.061H31.755c-1.104,0-2-0.896-2-2v-13.25c0-0.818,0.499-1.554,1.259-1.857
			c18.831-7.511,39.225-9.064,58.974-4.491l34.692,8.034c3.133,0.725,5.32,3.478,5.32,6.693v4.872
			C130,239.165,129.104,240.061,128,240.061z M33.755,236.061H126v-2.872c0-1.343-0.914-2.493-2.223-2.796l-34.692-8.034
			c-18.513-4.287-37.613-2.964-55.33,3.818V236.061z"/>
	</g>
	<g>
		<path class="st4" d="M224.245,240.061H128c-1.104,0-2-0.896-2-2v-4.872c0-3.215,2.188-5.968,5.32-6.693l34.692-8.034
			c19.75-4.573,40.144-3.021,58.974,4.491c0.76,0.303,1.259,1.039,1.259,1.857v13.25
			C226.245,239.165,225.35,240.061,224.245,240.061z M130,236.061h92.245v-9.884c-17.716-6.781-36.817-8.103-55.33-3.818
			l-34.692,8.034c-1.309,0.303-2.223,1.453-2.223,2.796V236.061z"/>
	</g>
	<g>
		<path class="st4" d="M128,250.061H29.755c-3.859,0-7-3.14-7-7s3.141-7,7-7H128c1.104,0,2,0.896,2,2v10
			C130,249.165,129.104,250.061,128,250.061z M29.755,240.061c-1.654,0-3,1.346-3,3s1.346,3,3,3H126v-6H29.755z"/>
	</g>
	<g>
		<path class="st4" d="M226.245,250.061H128c-1.104,0-2-0.896-2-2v-10c0-1.104,0.896-2,2-2h98.245c3.859,0,7,3.14,7,7
			S230.104,250.061,226.245,250.061z M130,246.061h96.245c1.654,0,3-1.346,3-3s-1.346-3-3-3H130V246.061z"/>
	</g>
</g>
</svg>
