<?xml version="1.0" encoding="utf-8"?>
<!-- Generator: Adobe Illustrator 22.1.0, SVG Export Plug-In . SVG Version: 6.00 Build 0)  -->
<svg version="1.1" id="Layer_1" xmlns="http://www.w3.org/2000/svg" xmlns:xlink="http://www.w3.org/1999/xlink" x="0px" y="0px"
	 viewBox="0 0 256 256" style="enable-background:new 0 0 256 256;" xml:space="preserve">
<style type="text/css">
	.st0{fill:#4671C6;}
	.st1{fill:#F9CFCF;}
	.st2{fill:#F9A7A7;}
	.st3{fill:#A4C9FF;}
	.st4{fill:#3762CC;}
	.st5{fill:#E0EBFC;}
	.st6{fill:#6BDDDD;}
	.st7{fill:#B9BEFC;}
	.st8{fill:#FFEA92;}
	.st9{fill:#EAA97D;}
	.st10{fill:#FFEA94;}
	.st11{fill:#FFE164;}
	.st12{fill:#FFDC85;}
	.st13{fill:#FFFFFF;}
	.st14{fill:#383838;}
</style>
<g>
	<g>
		<path class="st3" d="M239.952,190.458h-224c-4.418,0-8-3.582-8-8v-69c0-4.418,3.582-8,8-8h224c4.418,0,8,3.582,8,8v69
			C247.952,186.877,244.37,190.458,239.952,190.458z"/>
	</g>
	<g>
		<path class="st5" d="M20.202,190.458l2.306,10.608c0.6,2.758,3.041,4.725,5.863,4.725h20.995c2.823,0,5.263-1.967,5.863-4.725
			l2.306-10.608H20.202z"/>
	</g>
	<g>
		<path class="st5" d="M198.868,190.458l2.306,10.608c0.6,2.758,3.041,4.725,5.863,4.725h20.995c2.823,0,5.263-1.967,5.863-4.725
			l2.306-10.608H198.868z"/>
	</g>
	<g>
		<path class="st0" d="M247.952,152.958h-75.43c-2.761,0-5-2.239-5-5l0,0c0-2.761,2.239-5,5-5h75.43V152.958z"/>
	</g>
	<g>
		<path class="st0" d="M247.952,130.958h-75.43c-2.761,0-5-2.239-5-5v0c0-2.761,2.239-5,5-5h75.43V130.958z"/>
	</g>
	<g>
		<path class="st0" d="M247.952,174.958h-75.43c-2.761,0-5-2.239-5-5l0,0c0-2.761,2.239-5,5-5h75.43V174.958z"/>
	</g>
	<g>
		<path class="st4" d="M239.951,192.458h-224c-5.514,0-10-4.486-10-10v-69c0-5.514,4.486-10,10-10h224c5.514,0,10,4.486,10,10v69
			C249.951,187.973,245.465,192.458,239.951,192.458z M15.952,107.458c-3.309,0-6,2.691-6,6v69c0,3.309,2.691,6,6,6h224
			c3.309,0,6-2.691,6-6v-69c0-3.309-2.691-6-6-6H15.952z"/>
	</g>
	<g>
		<path class="st4" d="M49.366,207.792H28.371c-3.736,0-7.024-2.65-7.817-6.3l-2.306-10.608c-0.128-0.591,0.018-1.209,0.397-1.68
			c0.379-0.471,0.952-0.745,1.557-0.745h37.333c0.605,0,1.178,0.274,1.557,0.745c0.38,0.471,0.526,1.088,0.397,1.68l-2.306,10.608
			C56.39,205.142,53.102,207.792,49.366,207.792z M22.683,192.458l1.779,8.183c0.396,1.825,2.04,3.15,3.908,3.15h20.995
			c1.868,0,3.512-1.325,3.909-3.15l1.778-8.183H22.683z"/>
	</g>
	<g>
		<path class="st4" d="M228.032,207.792h-20.995c-3.736,0-7.023-2.649-7.817-6.3l-2.306-10.608c-0.129-0.591,0.018-1.209,0.396-1.68
			c0.38-0.471,0.952-0.745,1.558-0.745h37.333c0.605,0,1.178,0.274,1.558,0.745c0.379,0.471,0.525,1.088,0.396,1.68l-2.306,10.608
			C235.056,205.142,231.769,207.792,228.032,207.792z M201.35,192.458l1.778,8.183c0.397,1.825,2.041,3.15,3.909,3.15h20.995
			c1.868,0,3.512-1.325,3.909-3.15l1.778-8.183H201.35z"/>
	</g>
	<g>
		<path class="st4" d="M247.951,154.958h-75.43c-3.859,0-7-3.14-7-7s3.141-7,7-7h75.43c1.104,0,2,0.896,2,2v10
			C249.951,154.063,249.056,154.958,247.951,154.958z M172.521,144.958c-1.654,0-3,1.346-3,3s1.346,3,3,3h73.43v-6H172.521z"/>
	</g>
	<g>
		<path class="st4" d="M247.951,132.958h-75.43c-3.859,0-7-3.14-7-7s3.141-7,7-7h75.43c1.104,0,2,0.896,2,2v10
			C249.951,132.063,249.056,132.958,247.951,132.958z M172.521,122.958c-1.654,0-3,1.346-3,3s1.346,3,3,3h73.43v-6H172.521z"/>
	</g>
	<g>
		<path class="st4" d="M247.951,176.958h-75.43c-3.859,0-7-3.14-7-7s3.141-7,7-7h75.43c1.104,0,2,0.896,2,2v10
			C249.951,176.063,249.056,176.958,247.951,176.958z M172.521,166.958c-1.654,0-3,1.346-3,3s1.346,3,3,3h73.43v-6H172.521z"/>
	</g>
	<g>
		<circle class="st6" cx="85.952" cy="147.958" r="47.5"/>
	</g>
	<g>
		<circle class="st0" cx="85.952" cy="147.958" r="37.406"/>
	</g>
	<g>
		<circle class="st3" cx="85.952" cy="147.958" r="20.625"/>
	</g>
	<g>
		<circle class="st5" cx="97.952" cy="132.313" r="9.881"/>
	</g>
	<g>
		<circle class="st2" cx="23.472" cy="147.958" r="6.25"/>
	</g>
	<g>
		<path class="st1" d="M85.952,80.208L85.952,80.208c-2.656,0-4.809-2.153-4.809-4.809V55.018c0-2.656,2.153-4.809,4.809-4.809h0
			c2.656,0,4.809,2.153,4.809,4.809v20.381C90.761,78.055,88.608,80.208,85.952,80.208z"/>
	</g>
	<g>
		<path class="st1" d="M54.972,90.199L54.972,90.199c-2.3,1.328-5.242,0.54-6.57-1.76L38.212,70.788
			c-1.328-2.3-0.54-5.242,1.76-6.57l0,0c2.3-1.328,5.242-0.54,6.57,1.76l10.191,17.651C58.06,85.929,57.272,88.871,54.972,90.199z"
			/>
	</g>
	<g>
		<path class="st1" d="M36.462,110.708L36.462,110.708c-1.328,2.3-4.269,3.088-6.57,1.76l-17.651-10.191
			c-2.3-1.328-3.088-4.269-1.76-6.57l0,0c1.328-2.3,4.269-3.088,6.57-1.76l17.651,10.191
			C37.002,105.467,37.79,108.408,36.462,110.708z"/>
	</g>
	<g>
		<path class="st1" d="M116.931,90.199L116.931,90.199c2.3,1.328,5.242,0.54,6.57-1.76l10.191-17.651
			c1.328-2.3,0.54-5.242-1.76-6.57v0c-2.3-1.328-5.242-0.54-6.57,1.76l-10.191,17.651C113.843,85.929,114.631,88.871,116.931,90.199
			z"/>
	</g>
	<g>
		<path class="st1" d="M135.441,110.708L135.441,110.708c1.328,2.3,4.269,3.088,6.57,1.76l17.651-10.191
			c2.3-1.328,3.088-4.269,1.76-6.57l0,0c-1.328-2.3-4.269-3.088-6.57-1.76l-17.651,10.191
			C134.901,105.467,134.113,108.408,135.441,110.708z"/>
	</g>
	<g>
		<path class="st4" d="M85.952,197.458c-27.294,0-49.5-22.206-49.5-49.5s22.206-49.5,49.5-49.5c27.294,0,49.5,22.206,49.5,49.5
			S113.246,197.458,85.952,197.458z M85.952,102.458c-25.089,0-45.5,20.411-45.5,45.5s20.411,45.5,45.5,45.5
			c25.088,0,45.5-20.411,45.5-45.5S111.04,102.458,85.952,102.458z"/>
	</g>
	<g>
		<path class="st4" d="M85.952,187.365c-21.729,0-39.406-17.678-39.406-39.406s17.678-39.406,39.406-39.406
			s39.406,17.678,39.406,39.406S107.68,187.365,85.952,187.365z M85.952,112.552c-19.523,0-35.406,15.883-35.406,35.406
			s15.883,35.406,35.406,35.406s35.406-15.883,35.406-35.406S105.475,112.552,85.952,112.552z"/>
	</g>
</g>
</svg>
