<?xml version="1.0" encoding="utf-8"?>
<!-- Generator: Adobe Illustrator 22.1.0, SVG Export Plug-In . SVG Version: 6.00 Build 0)  -->
<svg version="1.1" id="Layer_1" xmlns="http://www.w3.org/2000/svg" xmlns:xlink="http://www.w3.org/1999/xlink" x="0px" y="0px"
	 viewBox="0 0 256 256" style="enable-background:new 0 0 256 256;" xml:space="preserve">
<style type="text/css">
	.st0{fill:#4671C6;}
	.st1{fill:#F9CFCF;}
	.st2{fill:#F9A7A7;}
	.st3{fill:#A4C9FF;}
	.st4{fill:#3762CC;}
	.st5{fill:#E0EBFC;}
	.st6{fill:#6BDDDD;}
	.st7{fill:#B9BEFC;}
	.st8{fill:#FFEA92;}
	.st9{fill:#EAA97D;}
	.st10{fill:#FFEA94;}
	.st11{fill:#FFE164;}
	.st12{fill:#FFDC85;}
	.st13{fill:#FFFFFF;}
	.st14{fill:#383838;}
</style>
<g>
	<g>
		<path class="st5" d="M242.688,228.258H13.313c-2.761,0-5-2.239-5-5V75.227c0-2.761,2.239-5,5-5h229.375c2.761,0,5,2.239,5,5
			v148.031C247.688,226.019,245.449,228.258,242.688,228.258z"/>
	</g>
	<g>
		<path class="st6" d="M20.313,214.258V84.227c0-1.105,0.895-2,2-2h211.375c1.105,0,2,0.895,2,2v130.031c0,1.105-0.895,2-2,2H22.313
			C21.208,216.258,20.313,215.362,20.313,214.258z"/>
	</g>
	<g>
		<path class="st4" d="M128,218c-1.104,0-2-0.896-2-2V82c0-1.104,0.896-2,2-2s2,0.896,2,2v134C130,217.104,129.104,218,128,218z"/>
	</g>
	<g>
		<path class="st4" d="M128,176.018c-16.097,0-29.193-13.096-29.193-29.193s13.096-29.193,29.193-29.193
			s29.193,13.096,29.193,29.193S144.097,176.018,128,176.018z M128,121.632c-13.892,0-25.193,11.301-25.193,25.193
			s11.301,25.193,25.193,25.193s25.193-11.301,25.193-25.193S141.892,121.632,128,121.632z"/>
	</g>
	<g>
		<path class="st4" d="M48.333,187.06H20.312c-1.104,0-2-0.896-2-2v-76.469c0-1.104,0.896-2,2-2h28.021c3.309,0,6,2.691,6,6v68.469
			C54.333,184.368,51.642,187.06,48.333,187.06z M22.312,183.06h26.021c1.103,0,2-0.897,2-2v-68.469c0-1.103-0.897-2-2-2H22.312
			V183.06z"/>
	</g>
	<g>
		<path class="st4" d="M235.687,187.06h-28.021c-3.309,0-6-2.691-6-6v-68.469c0-3.309,2.691-6,6-6h28.021c1.105,0,2,0.896,2,2
			v76.469C237.687,186.164,236.792,187.06,235.687,187.06z M207.667,110.591c-1.103,0-2,0.897-2,2v68.469c0,1.103,0.897,2,2,2
			h26.021v-72.469H207.667z"/>
	</g>
	<g>
		<path class="st4" d="M230.687,170.658h-7.021c-1.104,0-2-0.896-2-2v-46.442c0-1.104,0.896-2,2-2h7.021c3.86,0,7,3.14,7,7v36.442
			C237.687,167.518,234.547,170.658,230.687,170.658z M225.667,166.658h5.021c1.654,0,3-1.346,3-3v-36.442c0-1.654-1.346-3-3-3
			h-5.021V166.658z"/>
	</g>
	<g>
		<path class="st4" d="M32.333,170.658h-7.021c-3.86,0-7-3.14-7-7v-36.442c0-3.86,3.14-7,7-7h7.021c1.104,0,2,0.896,2,2v46.442
			C34.333,169.763,33.438,170.658,32.333,170.658z M25.312,124.216c-1.654,0-3,1.346-3,3v36.442c0,1.654,1.346,3,3,3h5.021v-42.442
			H25.312z"/>
	</g>
	<g>
		<circle class="st8" cx="72.521" cy="104.825" r="6.073"/>
	</g>
	<g>
		<circle class="st8" cx="86.945" cy="138.96" r="6.073"/>
	</g>
	<g>
		<circle class="st2" cx="118" cy="149.242" r="6.073"/>
	</g>
	<g>
		<circle class="st2" cx="165.833" cy="171.77" r="6.073"/>
	</g>
	<g>
		<circle class="st2" cx="203.667" cy="146.825" r="6.073"/>
	</g>
	<g>
		<circle class="st8" cx="52.333" cy="146.825" r="6.073"/>
	</g>
	<g>
		<circle class="st8" cx="102.807" cy="181.684" r="6.073"/>
	</g>
	<g>
		<circle class="st2" cx="179.43" cy="118.532" r="6.073"/>
	</g>
	<g>
		<path class="st4" d="M242.687,230.258H13.312c-3.86,0-7-3.14-7-7V75.227c0-3.86,3.14-7,7-7h229.375c3.86,0,7,3.14,7,7v148.031
			C249.687,227.118,246.547,230.258,242.687,230.258z M13.312,72.227c-1.654,0-3,1.346-3,3v148.031c0,1.654,1.346,3,3,3h229.375
			c1.654,0,3-1.346,3-3V75.227c0-1.654-1.346-3-3-3H13.312z"/>
	</g>
	<g>
		<path class="st4" d="M233.687,218.257H22.312c-2.206,0-4-1.794-4-4V84.227c0-2.206,1.794-4,4-4h211.375c2.206,0,4,1.794,4,4
			v130.031C237.687,216.463,235.893,218.257,233.687,218.257z M22.312,84.227V214.26l211.375-0.002V84.227H22.312z"/>
	</g>
	<g>
		<circle class="st5" cx="128" cy="69.159" r="41.417"/>
	</g>
	<g>
		<path class="st0" d="M111.958,98.713c-0.392-0.955-1.432-1.471-2.43-1.206l-9.212,2.451c0.418,0.376,0.841,0.745,1.274,1.103
			c0.039,0.033,0.079,0.065,0.118,0.098c4.19,3.447,9.072,6.08,14.402,7.675L111.958,98.713z"/>
	</g>
	<g>
		<path class="st0" d="M146.554,97.508c-0.998-0.265-2.038,0.251-2.43,1.206l-4.141,10.094c5.904-1.782,11.252-4.843,15.719-8.866
			L146.554,97.508z"/>
	</g>
	<g>
		<path class="st0" d="M163.432,47.703c-0.008-0.012-0.015-0.025-0.023-0.037c-0.6-0.987-1.248-1.941-1.926-2.872l-4.322,14.403
			c-0.297,0.989,0.186,2.045,1.129,2.466l11.04,4.941C168.911,59.714,166.815,53.277,163.432,47.703z"/>
	</g>
	<g>
		<path class="st0" d="M126.685,53.66l-14.812,13.011c-0.661,0.581-0.879,1.518-0.542,2.33l6.488,15.661
			c0.318,0.768,1.067,1.269,1.899,1.269h8.324h8.324c0.831,0,1.581-0.501,1.899-1.269l6.488-15.661
			c0.337-0.813,0.119-1.75-0.542-2.33L129.398,53.66C128.622,52.979,127.461,52.979,126.685,53.66z"/>
	</g>
	<g>
		<path class="st4" d="M110.884,99.616c-0.367,0-0.738-0.101-1.071-0.313c-0.932-0.593-1.207-1.829-0.614-2.761l7.663-12.05
			c0.592-0.932,1.829-1.208,2.761-0.614c0.932,0.593,1.207,1.829,0.614,2.761l-7.663,12.05
			C112.193,99.288,111.545,99.616,110.884,99.616z"/>
	</g>
	<g>
		<path class="st4" d="M145.171,99.608c-0.657,0-1.3-0.323-1.682-0.916l-7.732-11.979c-0.599-0.928-0.333-2.166,0.596-2.765
			c0.927-0.6,2.166-0.333,2.765,0.596l7.732,11.979c0.599,0.928,0.333,2.166-0.596,2.765
			C145.918,99.505,145.542,99.608,145.171,99.608z"/>
	</g>
	<g>
		<path class="st4" d="M144.888,69.927c-0.682,0-1.346-0.349-1.72-0.978c-0.565-0.949-0.254-2.176,0.695-2.741l12.316-7.333
			c0.948-0.564,2.176-0.254,2.741,0.695c0.565,0.949,0.254,2.176-0.695,2.741l-12.316,7.333
			C145.589,69.836,145.236,69.927,144.888,69.927z"/>
	</g>
	<g>
		<path class="st4" d="M111.195,69.932c-0.348,0-0.701-0.091-1.022-0.282l-12.349-7.357c-0.949-0.565-1.26-1.793-0.694-2.742
			c0.566-0.949,1.792-1.259,2.742-0.694l12.349,7.357c0.949,0.565,1.26,1.793,0.694,2.742
			C112.541,69.583,111.876,69.932,111.195,69.932z"/>
	</g>
	<g>
		<path class="st4" d="M128.042,55.154c-1.104,0-2-0.896-2-2V38.615c0-1.104,0.896-2,2-2s2,0.896,2,2v14.539
			C130.042,54.258,129.146,55.154,128.042,55.154z"/>
	</g>
	<g>
		<path class="st0" d="M86.713,66.621l11.078-4.958c0.942-0.422,1.426-1.477,1.129-2.466l-4.325-14.414
			C90.062,50.981,87.213,58.482,86.713,66.621z"/>
	</g>
	<g>
		<path class="st0" d="M116.728,29.361l9.957,8.746c0.776,0.681,1.937,0.681,2.713,0l9.957-8.746
			c-3.597-1.02-7.389-1.577-11.313-1.577S120.326,28.341,116.728,29.361z"/>
	</g>
	<g>
		<path class="st4" d="M136.366,87.932h-16.649c-1.646,0-3.117-0.982-3.746-2.503l-6.488-15.661
			c-0.665-1.604-0.234-3.452,1.07-4.599l14.813-13.011c1.525-1.341,3.827-1.341,5.353,0l14.812,13.01
			c1.305,1.147,1.735,2.995,1.07,4.599l-6.487,15.661C139.481,86.949,138.011,87.932,136.366,87.932z M128.013,55.163
			c-0.005,0-0.008,0-0.008,0l-14.812,13.011l6.473,15.724l16.7,0.034l6.539-15.695l-14.827-13.073
			C128.079,55.162,128.032,55.163,128.013,55.163z M126.685,53.661h0.01H126.685z"/>
	</g>
	<g>
		<path class="st4" d="M86.712,68.621c-0.4,0-0.799-0.12-1.139-0.356c-0.575-0.398-0.9-1.068-0.857-1.767
			c0.51-8.282,3.367-16.2,8.264-22.896c0.448-0.612,1.206-0.917,1.953-0.791c0.748,0.128,1.359,0.669,1.577,1.396l4.325,14.414
			c0.584,1.945-0.374,4.037-2.227,4.867l-11.079,4.958C87.268,68.563,86.99,68.621,86.712,68.621z M93.915,49.479
			c-2.481,4.285-4.127,8.995-4.854,13.9l7.914-3.541l0.03-0.066L93.915,49.479z"/>
	</g>
	<g>
		<path class="st4" d="M116.11,110.834c-0.191,0-0.384-0.027-0.573-0.084c-5.545-1.66-10.626-4.367-15.1-8.047l-0.131-0.109
			c-0.446-0.37-0.889-0.756-1.326-1.149c-0.546-0.491-0.78-1.241-0.608-1.956c0.172-0.714,0.721-1.276,1.431-1.465l9.212-2.451
			c1.962-0.526,4.023,0.5,4.794,2.379h0l4.152,10.121c0.292,0.713,0.149,1.531-0.369,2.102
			C117.207,110.603,116.666,110.834,116.11,110.834z M104.607,100.886c2.472,1.827,5.128,3.346,7.943,4.542l-2.443-5.956h0
			c-0.011-0.025-0.04-0.039-0.065-0.033L104.607,100.886z"/>
	</g>
	<g>
		<path class="st4" d="M139.983,110.808c-0.555,0-1.096-0.231-1.48-0.655c-0.519-0.571-0.663-1.39-0.37-2.104l4.142-10.094
			c0.769-1.878,2.83-2.905,4.794-2.379l9.149,2.434c0.709,0.188,1.258,0.75,1.43,1.464s-0.061,1.464-0.606,1.955
			c-4.721,4.251-10.42,7.466-16.48,9.295C140.371,110.78,140.176,110.808,139.983,110.808z M146.026,99.438
			c-0.022,0-0.042,0.013-0.051,0.034l-2.423,5.906c2.773-1.196,5.418-2.714,7.854-4.51l-5.366-1.427l0,0
			C146.035,99.439,146.03,99.438,146.026,99.438z"/>
	</g>
	<g>
		<path class="st4" d="M169.331,68.604c-0.277,0-0.556-0.058-0.817-0.174l-11.04-4.941c-1.854-0.829-2.812-2.921-2.228-4.867
			l4.322-14.403c0.218-0.728,0.83-1.269,1.579-1.396c0.751-0.129,1.505,0.179,1.953,0.793c0.758,1.04,1.418,2.024,2.018,3.01
			c0,0,0.023,0.039,0.024,0.039c3.62,5.966,5.759,12.818,6.185,19.817c0.042,0.698-0.283,1.368-0.858,1.766
			C170.129,68.484,169.731,68.604,169.331,68.604z M162.164,49.486l-3.086,10.285l7.904,3.575
			C166.256,58.468,164.618,53.744,162.164,49.486z M162.541,48.23l-0.002,0.007l0.893-0.537L162.541,48.23z"/>
	</g>
	<g>
		<path class="st4" d="M86.712,68.621c-0.4,0-0.799-0.12-1.139-0.356c-0.575-0.398-0.9-1.068-0.857-1.767
			c0.51-8.282,3.367-16.2,8.264-22.896c0.448-0.612,1.206-0.917,1.953-0.791c0.748,0.128,1.359,0.669,1.577,1.396l4.325,14.414
			c0.584,1.945-0.374,4.037-2.227,4.867l-11.079,4.958C87.268,68.563,86.99,68.621,86.712,68.621z M93.915,49.479
			c-2.481,4.285-4.127,8.995-4.854,13.9l7.914-3.541l0.03-0.066L93.915,49.479z"/>
	</g>
	<g>
		<path class="st4" d="M128.042,40.614c-0.957,0-1.913-0.334-2.676-1.004l-9.957-8.747c-0.55-0.483-0.792-1.229-0.631-1.943
			s0.701-1.284,1.405-1.483c7.739-2.193,15.976-2.193,23.716,0c0.705,0.2,1.244,0.769,1.405,1.483s-0.081,1.46-0.631,1.943
			l-9.957,8.746C129.955,40.279,128.998,40.614,128.042,40.614z M120.971,30.425l7.034,6.179l7.089-6.182
			C130.43,29.572,125.636,29.574,120.971,30.425z"/>
	</g>
	<g>
		<path class="st4" d="M128,112.576c-23.94,0-43.417-19.477-43.417-43.417c0-23.94,19.477-43.417,43.417-43.417
			s43.417,19.477,43.417,43.417C171.417,93.099,151.94,112.576,128,112.576z M128,29.742c-21.734,0-39.417,17.682-39.417,39.417
			s17.682,39.417,39.417,39.417s39.417-17.683,39.417-39.417S149.734,29.742,128,29.742z"/>
	</g>
	<g>
		<path class="st4" d="M32.987,218.258H22.312c-2.206,0-4-1.794-4-4v-11.242c0-0.539,0.217-1.055,0.603-1.431
			c0.385-0.376,0.895-0.573,1.445-0.568C28.569,201.212,35,207.793,35,216c0,0.096-0.005,0.19-0.012,0.284
			C34.964,217.371,34.074,218.258,32.987,218.258z M22.312,205.251v9.007h8.552C30.163,209.749,26.762,206.184,22.312,205.251z"/>
	</g>
	<g>
		<path class="st4" d="M20.57,96.914c-0.094,0-0.186-0.005-0.278-0.011c-1.091-0.019-1.979-0.91-1.979-2.001V84.227
			c0-2.206,1.794-4,4-4h11.242c0.539,0,1.055,0.217,1.431,0.603c0.376,0.386,0.581,0.907,0.568,1.445
			C35.358,90.483,28.777,96.914,20.57,96.914z M22.312,84.227v8.552c4.51-0.702,8.074-4.103,9.007-8.552H22.312z"/>
	</g>
	<g>
		<path class="st4" d="M235.687,97.468c-0.016,0-0.032,0-0.048,0C227.431,97.272,221,90.691,221,82.484
			c0-0.096,0.005-0.19,0.012-0.284c0.024-1.087,0.915-1.974,2.001-1.974h10.674c2.206,0,4,1.794,4,4v11.242
			c0,0.539-0.217,1.055-0.603,1.431C236.711,97.265,236.209,97.468,235.687,97.468z M225.135,84.227
			c0.702,4.509,4.103,8.074,8.552,9.007v-9.007H225.135z"/>
	</g>
	<g>
		<path class="st4" d="M233.687,218.258h-11.242c-0.539,0-1.055-0.217-1.431-0.603c-0.376-0.386-0.581-0.907-0.568-1.445
			c0.195-8.209,6.777-14.64,14.983-14.64c0.094,0,0.186,0.005,0.278,0.011c1.091,0.019,1.979,0.91,1.979,2.001v10.675
			C237.687,216.463,235.893,218.258,233.687,218.258z M224.681,214.258h9.007v-8.552
			C229.178,206.408,225.613,209.809,224.681,214.258z"/>
	</g>
</g>
</svg>
