<?xml version="1.0" encoding="utf-8"?>
<!-- Generator: Adobe Illustrator 22.1.0, SVG Export Plug-In . SVG Version: 6.00 Build 0)  -->
<svg version="1.1" id="Layer_1" xmlns="http://www.w3.org/2000/svg" xmlns:xlink="http://www.w3.org/1999/xlink" x="0px" y="0px"
	 viewBox="0 0 256 256" style="enable-background:new 0 0 256 256;" xml:space="preserve">
<style type="text/css">
	.st0{fill:#4671C6;}
	.st1{fill:#F9CFCF;}
	.st2{fill:#F9A7A7;}
	.st3{fill:#A4C9FF;}
	.st4{fill:#3762CC;}
	.st5{fill:#E0EBFC;}
	.st6{fill:#6BDDDD;}
	.st7{fill:#B9BEFC;}
	.st8{fill:#FFEA92;}
	.st9{fill:#EAA97D;}
	.st10{fill:#FFEA94;}
	.st11{fill:#FFE164;}
	.st12{fill:#FFDC85;}
	.st13{fill:#FFFFFF;}
	.st14{fill:#383838;}
</style>
<g>
	<g>
		<path class="st4" d="M38.008,250.308c-0.042,0-0.084-0.001-0.127-0.004c-1.103-0.069-1.94-1.019-1.871-2.122l7.384-117.473
			c0.069-1.102,1.022-1.934,2.122-1.871c1.103,0.069,1.94,1.019,1.871,2.122l-7.384,117.473
			C39.936,249.493,39.056,250.308,38.008,250.308z"/>
	</g>
	<g>
		<path class="st1" d="M49.388,143.4l-9.651,1.385c-4.926,10.45-4.97,7.357,1.027,19.238c0.591,1.17,1.058,0.837,9.55,0.27
			c2.082-0.139,2.058-1.871,3.211-6.665C53.68,156.984,53.709,157.526,49.388,143.4z"/>
	</g>
	<g>
		<path class="st4" d="M42.594,166.795c-2.031,0-2.881-0.417-3.615-1.871c-0.784-1.553-1.464-2.849-2.043-3.952
			c-3.621-6.898-3.645-7.549-0.517-13.917c0.436-0.888,0.94-1.914,1.51-3.122c0.287-0.608,0.859-1.032,1.525-1.127l9.651-1.385
			c0.978-0.143,1.908,0.452,2.197,1.395c1.216,3.976,2.087,6.789,2.708,8.793c1.703,5.499,1.703,5.499,1.468,6.458
			c-0.196,0.816-0.353,1.52-0.493,2.146c-0.731,3.274-1.309,5.861-4.536,6.077c-1.666,0.111-3.021,0.213-4.128,0.296
			C44.748,166.704,43.542,166.795,42.594,166.795z M42.393,162.811c0.661,0.021,2.006-0.092,3.626-0.214
			c1.117-0.084,2.483-0.187,4.162-0.299c0.037-0.002,0.067-0.006,0.091-0.009c0.241-0.408,0.542-1.753,0.808-2.948
			c0.136-0.608,0.288-1.287,0.468-2.042c-0.126-0.523-0.588-2.018-1.359-4.507c-0.533-1.72-1.25-4.035-2.21-7.168l-6.895,0.989
			c-0.394,0.821-0.752,1.55-1.074,2.206c-1.353,2.754-1.9,3.91-1.86,4.877c0.043,1.063,0.855,2.61,2.329,5.417
			C41.025,160.157,41.663,161.372,42.393,162.811z"/>
	</g>
	<g>
		<path class="st3" d="M92.522,157.644L88.6,148.38c-13.086,4.576-26.892,6.324-30.523,6.022l12.221,9.837
			c1,0.805,0.362-3.319,5.564,61.72l18.312-3.323l-0.544-59.661C93.613,161.143,93.237,159.331,92.522,157.644z"/>
	</g>
	<g>
		<path class="st5" d="M109.45,230.39c-0.419-2.367-2.208-4.256-4.548-4.803l-11.785-2.758l-16.641,3.019l0.126,8.461
			c0.018,1.206,0.509,2.357,1.366,3.206c1.063,1.051,2.57,1.521,4.042,1.26l28.045-4.969L109.45,230.39z"/>
	</g>
	<g>
		<path class="st4" d="M81.21,240.845c-1.725,0-3.402-0.676-4.648-1.909c-1.238-1.225-1.935-2.858-1.96-4.599l-0.126-8.461
			c-0.014-0.978,0.681-1.823,1.643-1.998l16.641-3.019c0.27-0.049,0.547-0.042,0.813,0.021l11.785,2.758
			c3.123,0.731,5.502,3.244,6.062,6.402v0l0.605,3.416c0.193,1.087-0.533,2.125-1.62,2.318l-28.045,4.969
			C81.977,240.812,81.592,240.845,81.21,240.845z M78.501,227.512l0.101,6.767c0.01,0.687,0.284,1.331,0.773,1.814
			c0.6,0.593,1.455,0.861,2.287,0.713l26.076-4.62l-0.256-1.446c-0.28-1.581-1.472-2.839-3.035-3.206l-11.38-2.664L78.501,227.512z"
			/>
	</g>
	<g>
		<path class="st4" d="M75.861,227.959c-0.438,0-0.867-0.144-1.22-0.415c-0.448-0.344-0.729-0.862-0.774-1.425
			c-1.308-16.35-2.246-28.329-2.935-37.115c-1.22-15.565-1.7-21.693-1.983-23.282l-12.128-9.762
			c-0.685-0.551-0.929-1.484-0.603-2.301c0.326-0.815,1.147-1.321,2.022-1.25c3.499,0.293,17.161-1.533,29.698-5.917
			c0.995-0.351,2.09,0.136,2.502,1.108l3.923,9.264c0.821,1.938,1.247,3.988,1.266,6.093l0.544,59.661
			c0.009,0.974-0.685,1.812-1.643,1.986l-18.313,3.323C76.1,227.948,75.98,227.959,75.861,227.959z M71.491,162.632
			c1.288,0.773,1.409,1.975,1.696,4.823c0.311,3.085,0.787,9.151,1.733,21.236c0.657,8.385,1.542,19.679,2.758,34.905l14.48-2.627
			l-0.529-57.976c-0.014-1.579-0.333-3.117-0.949-4.569v0l-3.198-7.553c-8.957,2.949-18.119,4.638-24.055,5.271L71.491,162.632z"/>
	</g>
	<g>
		<path class="st5" d="M50.299,143.269c-14.196,2.037-14.489,2.457-14.692,1.104l-6.092-40.581
			c-0.285-1.896,0.206-3.826,1.361-5.355l15.71-20.798c3.809-5.043,11.209-6.029,15.907-1.802
			c4.666,4.198,4.729,11.487,0.145,15.766c-13.979,13.047-14.285,12.726-14.117,14.997C51.318,144.418,51.622,143.08,50.299,143.269
			z"/>
	</g>
	<g>
		<path class="st4" d="M36.703,147.157c-2.231,0-2.903-1.35-3.073-2.486l-6.092-40.581c-0.362-2.412,0.273-4.911,1.744-6.857
			l15.71-20.798c2.225-2.946,5.608-4.838,9.283-5.19c3.551-0.343,6.951,0.762,9.558,3.107c2.639,2.374,4.171,5.771,4.204,9.32
			c0.032,3.549-1.437,6.974-4.032,9.395c-2.789,2.603-5.034,4.674-6.84,6.341c-6.71,6.191-6.705,6.272-6.647,7.047
			c0.653,8.83,1.169,15.524,1.562,20.601c0.618,8,0.928,12.017,0.972,14.078c0.031,1.435,0.082,3.836-2.406,4.109l-0.06,0.007
			c-3.025,0.434-5.417,0.795-7.312,1.08c-3.734,0.563-5.438,0.819-6.528,0.828C36.729,147.157,36.716,147.157,36.703,147.157z
			 M50.299,143.27h0.01H50.299z M55.525,75.184c-0.287,0-0.577,0.014-0.869,0.042c-2.562,0.246-4.921,1.565-6.473,3.62
			L32.473,99.644c-0.826,1.093-1.183,2.498-0.979,3.853l5.947,39.615c1.065-0.109,2.922-0.388,5.235-0.737
			c1.697-0.256,3.793-0.572,6.384-0.947c-0.026-1.846-0.366-6.245-0.97-14.064c-0.393-5.081-0.91-11.779-1.563-20.614
			c-0.206-2.782,0.253-3.205,7.924-10.282c1.802-1.663,4.042-3.729,6.823-6.325c1.803-1.683,2.784-3.968,2.761-6.435
			c-0.022-2.466-1.045-4.733-2.879-6.383C59.605,75.929,57.631,75.184,55.525,75.184z"/>
	</g>
	<g>
		<path class="st9" d="M97.166,12.227l-4.709,232c-0.045,2.24,1.758,4.081,3.999,4.081h37.328h0.007h37.328
			c2.241,0,4.045-1.841,3.999-4.081l-4.709-232c-0.044-2.177-1.822-3.919-3.999-3.919h-65.244
			C98.988,8.308,97.211,10.049,97.166,12.227z"/>
	</g>
	<g>
		<path class="st4" d="M171.119,250.308H96.457c-1.626,0-3.148-0.64-4.286-1.801s-1.747-2.695-1.713-4.321l4.709-232
			c0.065-3.241,2.756-5.878,5.999-5.878h65.244c3.242,0,5.933,2.637,5.999,5.878l4.709,232c0.033,1.625-0.576,3.16-1.713,4.321
			C174.266,249.668,172.744,250.308,171.119,250.308z M101.166,10.308c-1.081,0-1.978,0.879-2,1.959l0,0l-4.709,232
			c-0.011,0.542,0.192,1.053,0.571,1.44c0.379,0.387,0.887,0.6,1.429,0.6h74.662c0.542,0,1.049-0.213,1.428-0.6
			c0.379-0.387,0.582-0.899,0.571-1.44l-4.709-232c-0.022-1.081-0.919-1.959-2-1.959H101.166z M97.167,12.227h0.01H97.167z"/>
	</g>
	<g>
		<circle class="st9" cx="133.791" cy="212.868" r="28.067"/>
	</g>
	<g>
		<circle class="st1" cx="133.791" cy="212.868" r="22.646"/>
	</g>
	<g>
		<path class="st9" d="M133.791,228.883c-8.831,0-16.015-7.184-16.015-16.015s7.185-16.015,16.015-16.015
			c8.831,0,16.016,7.184,16.016,16.015S142.622,228.883,133.791,228.883z M133.791,199.853c-7.177,0-13.015,5.839-13.015,13.015
			c0,7.177,5.838,13.015,13.015,13.015c7.177,0,13.016-5.839,13.016-13.015C146.806,205.691,140.968,199.853,133.791,199.853z"/>
	</g>
	<g>
		<path class="st9" d="M133.791,219.848c-3.849,0-6.981-3.132-6.981-6.981c0-3.849,3.132-6.981,6.981-6.981s6.981,3.132,6.981,6.981
			C140.772,216.717,137.64,219.848,133.791,219.848z M133.791,208.887c-2.195,0-3.981,1.786-3.981,3.981
			c0,2.195,1.786,3.981,3.981,3.981s3.981-1.786,3.981-3.981C137.772,210.673,135.986,208.887,133.791,208.887z"/>
	</g>
	<g>
		<path class="st1" d="M44.106,26.85l8.517-1.502c7.291-1.286,14.201,3.336,15.433,10.323l1.711,9.703
			c0.082,0.467,0.544,0.776,1.032,0.69l0,0c1.289-0.227,2.6,0.473,2.94,1.681c0.389,1.386-0.556,2.777-1.999,3.032l-0.989,0.174
			l0.413,2.341c1.232,6.987-3.68,13.693-10.971,14.979l-8.517,1.502c-8.056,1.42-15.69-3.686-17.051-11.406L31.984,43.4
			C30.622,35.68,36.05,28.271,44.106,26.85z"/>
	</g>
	<g>
		<path class="st4" d="M48.986,72.009c-7.947,0-14.956-5.483-16.333-13.295l-2.639-14.967c-1.55-8.793,4.616-17.257,13.745-18.867
			l8.517-1.502c4.038-0.711,8.103,0.129,11.448,2.367c3.373,2.256,5.61,5.658,6.302,9.579l1.535,8.707
			c1.902,0.114,3.595,1.367,4.103,3.174c0.331,1.177,0.146,2.449-0.509,3.49c-0.5,0.797-1.241,1.413-2.106,1.771l0.084,0.478
			c0.691,3.921-0.248,7.883-2.646,11.156c-2.378,3.248-5.911,5.428-9.948,6.14l-8.517,1.501
			C51.001,71.922,49.986,72.009,48.986,72.009z M55.074,27.133c-0.698,0-1.401,0.062-2.104,0.186l-8.517,1.502l0,0
			c-6.957,1.227-11.667,7.611-10.5,14.233l2.639,14.967c1.168,6.621,7.774,11.009,14.734,9.783l8.517-1.501
			c3.016-0.532,5.649-2.152,7.416-4.563c1.747-2.385,2.434-5.261,1.933-8.099l-0.413-2.34c-0.092-0.522,0.027-1.06,0.332-1.494
			c0.304-0.435,0.769-0.73,1.291-0.823l0.989-0.174c0.228-0.04,0.339-0.182,0.376-0.24c0.085-0.136,0.055-0.245,0.045-0.281
			c-0.045-0.16-0.351-0.31-0.667-0.252c-1.575,0.275-3.074-0.76-3.349-2.313l-1.711-9.703c-0.5-2.837-2.129-5.305-4.586-6.949
			C59.594,27.796,57.368,27.133,55.074,27.133z M44.105,26.851h0.01H44.105z"/>
	</g>
	<g>
		<path class="st4" d="M69.258,57.593c-1.233,0-2.671-0.372-4.016-1.881l-0.297-0.334c-0.368-0.412-0.332-1.044,0.081-1.412
			c0.412-0.369,1.044-0.332,1.412,0.081l0.298,0.334c1.373,1.54,2.722,1.276,4.028,1.021l0.413-0.078
			c0.541-0.097,1.063,0.267,1.158,0.812c0.096,0.544-0.268,1.063-0.812,1.158l-0.377,0.071
			C70.626,57.466,69.977,57.593,69.258,57.593z"/>
	</g>
	<g>
		<path class="st4" d="M62.186,46.562c1.213-0.214,2.025-1.373,1.812-2.583l-0.645-3.66c-0.213-1.211-1.374-2.022-2.586-1.808
			c-1.212,0.214-2.025,1.373-1.811,2.583l0.645,3.66C59.814,45.965,60.974,46.776,62.186,46.562z"/>
	</g>
	<g>
		<path class="st0" d="M25.686,40.258c-0.002-0.318,0.006-0.635,0.02-0.95c0.008-0.194,0.014-0.303,0.014-0.303l0.001,0.001
			c0.331-5.445,2.981-10.444,7.129-13.849c0-0.001-0.004-0.004-0.004-0.004c5.147-4.63,14.204-5.725,19.4-5.956
			c1.164-0.091,2.504-0.124,3.957-0.03c0.001,0,0.004,0,0.004,0l0,0c4.774,0.31,10.755,1.985,15.612,7.44
			c0.253,0.284,0.091,0.734-0.287,0.801l-2.766,0.488c0,0,3.514,1.462,4.611,5.441c0.079,0.288-0.15,0.569-0.448,0.556
			c-2.556-0.117-12.987-0.284-22.35,4.045c-1.056,0.488-0.634,1.461-0.199,3.924c-3.698,0.67-6.184,4.077-5.558,7.627
			c0.624,3.538,4.104,5.884,7.793,5.272c-1.166,7.858-0.894,8.637-2.408,9.535c-0.316,0.188-5.963,3.564-6.303,3.704l0,0.002
			l-1.088,0.701c-9.597-3.356-13.522-12.344-13.522-12.344C25.973,50.637,25.666,43.18,25.686,40.258z"/>
	</g>
	<g>
		<path class="st4" d="M42.817,70.702c-0.222,0-0.445-0.037-0.66-0.112c-9.821-3.435-14.113-12.165-14.644-13.318
			c-3.512-6.119-3.848-13.922-3.827-17.016c-0.001-0.347,0.007-0.693,0.022-1.037l0.017-0.339
			c0.356-5.849,3.175-11.371,7.741-15.172c0.014-0.014,0.029-0.027,0.044-0.041c5.648-5.081,15.361-6.233,20.648-6.467
			c1.342-0.105,2.758-0.118,4.147-0.029c0.011,0,0.022,0.001,0.033,0.002c6.775,0.44,12.646,3.243,16.976,8.105
			c0.597,0.669,0.785,1.613,0.491,2.462c-0.138,0.399-0.373,0.749-0.675,1.024c0.882,1.012,1.708,2.34,2.177,4.042
			c0.207,0.748,0.041,1.559-0.445,2.167c-0.487,0.61-1.235,0.949-2.022,0.918c-1.945-0.09-11.933-0.32-20.865,3.612
			c0.043,0.261,0.105,0.578,0.16,0.857c0.067,0.345,0.142,0.728,0.217,1.154c0.191,1.084-0.53,2.119-1.613,2.315
			c-2.608,0.473-4.378,2.855-3.945,5.312c0.431,2.442,2.897,4.08,5.495,3.646c0.632-0.104,1.273,0.099,1.729,0.547
			c0.456,0.448,0.67,1.087,0.577,1.72c-0.248,1.666-0.429,3.011-0.578,4.106c-0.588,4.344-0.766,5.655-2.788,6.855l-0.236,0.141
			c-4.458,2.659-5.673,3.359-6.091,3.58l-0.999,0.646C43.575,70.593,43.198,70.702,42.817,70.702z M27.716,39.157l-0.011,0.231
			c-0.013,0.292-0.021,0.575-0.019,0.86c0,0.008,0,0.015,0,0.023c-0.019,2.773,0.268,9.794,3.338,15.081
			c0.039,0.066,0.073,0.134,0.104,0.204c0.033,0.075,3.477,7.675,11.452,10.917l0.241-0.155c0.076-0.049,0.155-0.093,0.237-0.131
			c0.196-0.104,1.17-0.655,5.88-3.464l0.249-0.148c0.154-0.092,0.195-0.131,0.197-0.133c0.193-0.298,0.414-1.93,0.669-3.819
			c0.074-0.549,0.157-1.16,0.252-1.841c-3.689-0.478-6.794-3.218-7.451-6.946c-0.698-3.959,1.566-7.802,5.231-9.362
			c-0.283-1.615-0.367-3.416,1.657-4.351c7.796-3.604,16.202-4.234,20.744-4.271c-1.054-1.467-2.424-2.082-2.502-2.116
			c-0.808-0.353-1.298-1.198-1.193-2.073c0.1-0.837,0.705-1.52,1.516-1.712c-3.35-2.87-7.45-4.477-12.226-4.787
			c-0.009,0-0.018-0.001-0.027-0.002c-1.2-0.076-2.427-0.066-3.649,0.029c-4.786,0.214-13.376,1.189-18.119,5.361
			c-0.052,0.053-0.107,0.104-0.165,0.151c-3.777,3.1-6.11,7.628-6.402,12.424C27.717,39.137,27.717,39.147,27.716,39.157z"/>
	</g>
	<g>
		<path class="st0" d="M45.642,132.263l38.951-6.868l-7.511-42.596c-1.282-7.27-8.214-12.124-15.484-10.842l-12.625,2.226
			c-7.27,1.282-12.124,8.214-10.842,15.484L45.642,132.263z"/>
	</g>
	<g>
		<path class="st4" d="M92.376,95.808c-0.648,0-1.285-0.314-1.669-0.896c-0.61-0.921-0.357-2.162,0.563-2.771l82.819-54.833
			c0.921-0.611,2.162-0.358,2.771,0.563c0.61,0.921,0.357,2.162-0.563,2.771L93.479,95.475C93.139,95.7,92.755,95.808,92.376,95.808
			z"/>
	</g>
	<g>
		<polygon class="st13" points="181.984,81.631 197.039,28.308 201.948,28.308 194.631,68.416 		"/>
	</g>
	<g>
		<path class="st6" d="M223.55,13.138L223.55,13.138c-7.15-1.99-23.485-4.634-22.88,12.986c0.029,0.833,0.413,1.608,1.046,2.115
			c13.664,10.945,21.264-3.637,23.965-10.653l0,0C226.874,14.329,227.131,14.232,223.55,13.138z"/>
	</g>
	<g>
		<path class="st4" d="M201.055,28.466c-0.359,0-0.707-0.194-0.886-0.534c-0.257-0.489-0.07-1.094,0.418-1.351l19.144-10.086
			c0.489-0.256,1.094-0.07,1.351,0.418c0.257,0.489,0.07,1.094-0.418,1.351L201.52,28.351
			C201.371,28.429,201.212,28.466,201.055,28.466z"/>
	</g>
	<g>
		<path class="st4" d="M214.721,27.172c-0.065,0-0.132-0.006-0.199-0.02l-8.104-1.637c-0.541-0.109-0.891-0.637-0.782-1.178
			c0.109-0.541,0.633-0.894,1.178-0.782l8.104,1.637c0.541,0.109,0.891,0.637,0.782,1.178
			C215.604,26.845,215.188,27.172,214.721,27.172z"/>
	</g>
	<g>
		<path class="st4" d="M211.807,22.8c-0.126,0-0.254-0.024-0.377-0.075c-0.511-0.208-0.757-0.792-0.548-1.304l2.629-6.44
			c0.209-0.512,0.794-0.758,1.304-0.548c0.511,0.208,0.757,0.792,0.548,1.304l-2.629,6.44C212.575,22.565,212.202,22.8,211.807,22.8
			z"/>
	</g>
	<g>
		<path class="st4" d="M211.068,34.184c-3.408,0-6.961-1.467-10.604-4.384c-1.092-0.875-1.746-2.189-1.794-3.608
			c-0.209-6.123,1.479-10.641,5.021-13.429c5.904-4.646,15.313-2.966,20.395-1.552c0.016,0.004,0.032,0.009,0.048,0.014
			c1.882,0.575,3.368,1.029,4.039,2.384c0.636,1.284,0.186,2.5-0.438,4.184l-0.178,0.482c-1.914,4.969-6.184,13.546-13.417,15.5
			C213.131,34.048,212.106,34.184,211.068,34.184z M214.044,13.717c-2.876,0-5.777,0.536-7.879,2.19
			c-2.484,1.955-3.661,5.37-3.497,10.149c0.008,0.248,0.119,0.48,0.296,0.622c3.7,2.964,7.108,4.053,10.132,3.236
			c5.735-1.55,9.405-9.64,10.717-13.046l0.17-0.463c0.115-0.309,0.237-0.64,0.332-0.917c-0.426-0.154-0.984-0.325-1.326-0.429
			C221.052,14.52,217.566,13.717,214.044,13.717z"/>
	</g>
	<g>
		<path class="st13" d="M172.028,92.033l1.235,60.853l47.406-90.557V46.192c0-1.803-2.198-2.685-3.445-1.383L172.028,92.033z"/>
	</g>
	<g>
		<path class="st3" d="M82.113,22.816l-0.159-0.687c-0.234-1.014-1.246-1.646-2.26-1.412l-10.946,2.527
			C64.827,12.19,53.154,5.595,41.452,8.297l-0.191,0.044C28.672,11.247,20.823,23.808,23.73,36.397l0.577,2.498
			c0.092,0.4,0.491,0.649,0.891,0.556L70.252,29.05l0-0.001l9.309-2.149C81.393,26.477,82.536,24.648,82.113,22.816z"/>
	</g>
	<g>
		<path class="st4" d="M25.024,41.472c-0.508,0-1.006-0.142-1.448-0.417c-0.622-0.388-1.055-0.996-1.219-1.709l-0.577-2.498
			c-1.526-6.609-0.387-13.416,3.208-19.168c3.594-5.752,9.213-9.76,15.823-11.286l0.19-0.044c11.991-2.77,24.13,3.441,28.974,14.56
			l9.27-2.14c2.083-0.479,4.176,0.824,4.658,2.911l0.158,0.687c0.325,1.407,0.083,2.856-0.683,4.081
			c-0.765,1.225-1.961,2.078-3.368,2.403L25.646,41.4C25.44,41.448,25.231,41.472,25.024,41.472z M46.735,9.693
			c-1.598,0-3.216,0.179-4.833,0.553l-0.19,0.044c-5.568,1.286-10.302,4.662-13.33,9.508s-3.988,10.582-2.703,16.149l0.294,1.273
			l53.139-12.269c0.755-0.174,1.228-0.931,1.053-1.686c0,0,0-0.001,0-0.001l-0.132-0.573l-10.833,2.501
			c-0.987,0.228-1.995-0.322-2.334-1.28C63.786,15.236,55.608,9.693,46.735,9.693z"/>
	</g>
	<g>
		<path class="st4" d="M45.642,134.263c-0.408,0-0.809-0.125-1.147-0.362c-0.435-0.304-0.73-0.769-0.823-1.291l-7.511-42.596
			c-0.712-4.042,0.191-8.12,2.545-11.481c2.354-3.362,5.877-5.606,9.919-6.319l12.625-2.227c8.34-1.469,16.329,4.121,17.801,12.464
			l7.511,42.596c0.192,1.088-0.535,2.125-1.623,2.317l-38.951,6.868C45.874,134.253,45.758,134.263,45.642,134.263z M63.925,73.753
			c-0.653,0-1.314,0.057-1.979,0.174L49.32,76.153c-6.172,1.088-10.308,6.995-9.219,13.167l7.164,40.626l35.012-6.174l-7.164-40.626
			C74.142,77.639,69.333,73.753,63.925,73.753z"/>
	</g>
	<g>
		<path class="st5" d="M116.353,69.901l5.665,11.056c0.501,0.979,0.119,2.178-0.856,2.686l-37.068,19.297
			c-1.771,0.922-3.838,1.092-5.736,0.472l-25.805-8.435c-6.257-2.045-9.733-9.001-7.159-15.059c2.556-6.017,9.715-8.547,15.481-5.48
			l16.346,8.695c0.993,0.528,2.172,0.578,3.206,0.135l33.359-14.293C114.752,68.561,115.874,68.966,116.353,69.901z"/>
	</g>
	<g>
		<path class="st1" d="M117.056,71.162c3.567-6.521,4.2-8.933,7.568-9.484c9.851-1.614,10.13-1.965,10.83-0.856
			c5.068,8.027,5.697,8.373,4.753,9.482l-3.855,4.529c-0.43,0.505,0.1,0.183-14.729,5.312L117.056,71.162z"/>
	</g>
	<g>
		<path class="st4" d="M80.656,105.775c-0.986,0-1.973-0.153-2.919-0.462l-25.806-8.435c-3.633-1.188-6.623-3.864-8.205-7.343
			c-1.53-3.367-1.592-7.06-0.174-10.399c1.437-3.382,4.247-6.024,7.709-7.25c3.463-1.225,7.309-0.939,10.552,0.787l16.346,8.695
			c0.459,0.244,0.999,0.266,1.479,0.062l33.358-14.293c1.922-0.824,4.18-0.011,5.135,1.853l0,0l5.665,11.056
			c1,1.95,0.231,4.36-1.712,5.372l-37.068,19.297C83.667,105.418,82.163,105.775,80.656,105.775z M55.66,75.125
			c-1.026,0-2.059,0.177-3.063,0.532c-2.444,0.865-4.349,2.656-5.362,5.042c-0.975,2.295-0.928,4.846,0.134,7.181
			c1.119,2.461,3.235,4.355,5.806,5.196l25.806,8.435c1.376,0.451,2.905,0.324,4.191-0.344l37.068-19.297l-5.666-11.058
			L81.214,85.106c-1.601,0.685-3.398,0.608-4.933-0.208l-16.346-8.695C58.587,75.487,57.129,75.125,55.66,75.125z"/>
	</g>
	<g>
		<path class="st4" d="M121.624,82.145c-0.735,0-1.434-0.407-1.783-1.094l-4.567-8.982c-0.299-0.589-0.289-1.287,0.028-1.867
			c0.606-1.108,1.127-2.097,1.59-2.977c2.345-4.452,3.636-6.903,7.409-7.521c1.946-0.319,3.518-0.588,4.792-0.807
			c5.61-0.961,6.778-1.162,8.053,0.857c0.994,1.574,1.816,2.852,2.49,3.897c3.007,4.671,3.815,5.927,2.095,7.948l-3.855,4.529
			c-0.65,0.776-0.65,0.776-6.359,2.729c-2.104,0.72-5.061,1.731-9.238,3.176C122.061,82.109,121.841,82.145,121.624,82.145z
			 M119.314,71.191l3.302,6.494c3.33-1.149,5.786-1.99,7.604-2.612c2.694-0.922,4.195-1.435,4.701-1.646l3.511-4.126
			c-0.343-0.661-1.168-1.942-2.161-3.485c-0.635-0.987-1.402-2.178-2.32-3.629c-0.724,0.058-2.233,0.317-4.184,0.651
			c-1.282,0.22-2.863,0.491-4.821,0.812c-1.685,0.276-2.182,1.007-4.516,5.438C120.092,69.732,119.724,70.431,119.314,71.191z"/>
	</g>
	<g>
		<path class="st8" d="M45.693,132.263l-1.34-7.316l39.033-8.923c0.555-0.127,1.104,0.235,1.206,0.795l1.389,7.579
			c0.1,0.548-0.267,1.073-0.816,1.166L45.693,132.263z"/>
	</g>
	<g>
		<path class="st4" d="M45.69,134.264c-0.948,0-1.788-0.676-1.965-1.64l-1.34-7.316c-0.193-1.053,0.478-2.071,1.521-2.31
			l39.033-8.923c0.795-0.181,1.639-0.029,2.319,0.419c0.68,0.448,1.154,1.164,1.3,1.965l1.389,7.58
			c0.146,0.795-0.029,1.598-0.493,2.261s-1.158,1.102-1.956,1.237l-39.471,6.699C45.914,134.254,45.801,134.264,45.69,134.264z
			 M46.665,126.47l0.639,3.491l36.526-6.199l-1.018-5.555L46.665,126.47z"/>
	</g>
	<g>
		<path class="st3" d="M45.982,132.196L45.982,132.196c-1.193,7.697,1.641,14.554,1.332,13.554
			c3.216,10.41,14.696,8.507,12.768,8.66c14.216-1.128,25.964-4.571,37.718-9.673l13.454,31.223l18.333-6.266l-19.718-47.08
			c-1.37-3.271-4.921-5.054-8.362-4.2L45.982,132.196z"/>
	</g>
	<g>
		<path class="st4" d="M111.253,177.96c-0.778,0-1.513-0.457-1.837-1.209l-12.666-29.393c-12.343,5.172-23.563,7.971-36.048,9.008
			c-1.853,0.402-12.129,0.236-15.3-10.024l0,0c0,0,0-0.001,0-0.002c-0.022-0.072-0.04-0.143-0.054-0.215
			c-1.202-2.835-2.143-9.077-1.344-14.235c0.124-0.796,0.713-1.441,1.495-1.635l55.525-13.782c4.43-1.103,8.925,1.158,10.689,5.369
			l19.717,47.08c0.214,0.511,0.207,1.087-0.021,1.592c-0.227,0.505-0.653,0.894-1.177,1.073l-18.333,6.266
			C111.687,177.925,111.468,177.96,111.253,177.96z M97.799,142.736c0.25,0,0.5,0.047,0.737,0.141c0.494,0.196,0.89,0.58,1.1,1.068
			l12.722,29.523l14.557-4.975l-18.891-45.106c-0.996-2.377-3.535-3.654-6.036-3.032l-54.193,13.451
			c-0.512,5.346,0.918,9.954,1.267,10.971c0.066,0.119,0.121,0.247,0.163,0.382c0,0.001,0.001,0.002,0.001,0.003
			c2.207,7.134,8.934,7.338,10.441,7.291c0.083-0.018,0.169-0.03,0.257-0.037c12.833-1.019,24.269-3.953,37.08-9.514
			C97.257,142.792,97.528,142.736,97.799,142.736z"/>
	</g>
	<g>
		<polygon class="st9" points="181.984,81.631 197.039,28.308 201.948,28.308 194.631,68.416 		"/>
	</g>
	<g>
		<path class="st9" d="M172.028,92.033l1.235,60.853l47.406-90.557V46.192c0-1.803-2.198-2.685-3.445-1.383L172.028,92.033z"/>
	</g>
	<g>
		<path class="st4" d="M181.983,83.631c-0.339,0-0.681-0.086-0.992-0.264c-0.797-0.456-1.182-1.396-0.932-2.28l15.055-53.323
			c0.243-0.861,1.029-1.457,1.925-1.457h4.909c0.593,0,1.156,0.263,1.536,0.719c0.38,0.456,0.539,1.057,0.432,1.64l-7.316,40.109
			c-0.07,0.385-0.252,0.741-0.523,1.024l-12.647,13.214C183.042,83.419,182.516,83.631,181.983,83.631z M198.553,30.308
			l-12.462,44.14l6.681-6.98l6.778-37.16H198.553z"/>
	</g>
	<g>
		<path class="st4" d="M173.264,154.886c-0.152,0-0.306-0.017-0.458-0.053c-0.889-0.209-1.523-0.993-1.542-1.906l-1.235-60.853
			c-0.011-0.529,0.188-1.041,0.555-1.423l45.196-47.224c1.136-1.187,2.857-1.559,4.379-0.947c1.525,0.612,2.51,2.069,2.51,3.712
			v16.137c0,0.323-0.078,0.641-0.228,0.928l-47.406,90.557C174.685,154.483,173.996,154.886,173.264,154.886z M174.045,92.819
			l1.06,52.237l43.564-83.219V46.192L174.045,92.819z"/>
	</g>
	<g>
		<path class="st6" d="M177.23,36.568L177.23,36.568c-1.79,6.431-4.168,21.121,11.679,20.578c0.749-0.026,1.446-0.371,1.902-0.94
			c9.844-12.288-3.271-19.124-9.581-21.553l0,0C178.269,33.567,178.206,33.372,177.23,36.568z"/>
	</g>
	<g>
		<path class="st4" d="M190.117,57.8c-0.359,0-0.707-0.194-0.886-0.534L180.16,40.05c-0.257-0.489-0.07-1.094,0.418-1.351
			c0.489-0.257,1.093-0.07,1.351,0.418L191,56.334c0.257,0.489,0.07,1.094-0.418,1.351C190.433,57.763,190.274,57.8,190.117,57.8z"
			/>
	</g>
	<g>
		<path class="st4" d="M187.481,52.797c-0.065,0-0.132-0.006-0.199-0.02c-0.541-0.109-0.891-0.637-0.782-1.178l1.473-7.288
			c0.109-0.541,0.635-0.892,1.178-0.782c0.541,0.109,0.891,0.637,0.782,1.178l-1.473,7.288
			C188.364,52.47,187.947,52.797,187.481,52.797z"/>
	</g>
	<g>
		<path class="st4" d="M185.02,48.129c-0.126,0-0.254-0.024-0.377-0.075l-5.792-2.365c-0.511-0.208-0.757-0.792-0.548-1.304
			c0.209-0.512,0.792-0.758,1.304-0.548l5.792,2.365c0.511,0.208,0.757,0.792,0.548,1.304
			C185.788,47.895,185.414,48.129,185.02,48.129z"/>
	</g>
	<g>
		<path class="st4" d="M188.069,59.161c-5.117,0-8.926-1.548-11.335-4.608c-4.233-5.379-2.714-13.913-1.431-18.521
			c0.004-0.016,0.009-0.032,0.014-0.048c0.552-1.808,0.951-3.114,2.238-3.752c1.237-0.611,2.385-0.188,3.977,0.4l0.386,0.142
			c4.508,1.736,12.285,5.613,14.066,12.204c1.068,3.954-0.147,8.152-3.612,12.478c-0.824,1.027-2.061,1.643-3.395,1.689
			C188.671,59.155,188.368,59.161,188.069,59.161z M179.15,37.128c-0.871,3.138-2.524,10.819,0.728,14.951
			c1.717,2.181,4.725,3.223,8.962,3.068c0.165-0.005,0.318-0.078,0.41-0.192c2.623-3.274,3.589-6.28,2.872-8.934
			c-1.37-5.068-8.576-8.333-11.611-9.502l-0.365-0.134c-0.227-0.083-0.466-0.172-0.682-0.248
			C179.351,36.47,179.232,36.857,179.15,37.128z"/>
	</g>
	<g>
		<path class="st4" d="M133.791,242.935c-16.579,0-30.067-13.488-30.067-30.067c0-16.579,13.488-30.066,30.067-30.066
			s30.067,13.488,30.067,30.066C163.858,229.447,150.37,242.935,133.791,242.935z M133.791,186.801
			c-14.374,0-26.067,11.693-26.067,26.066c0,14.374,11.693,26.067,26.067,26.067s26.067-11.693,26.067-26.067
			C159.858,198.495,148.165,186.801,133.791,186.801z"/>
	</g>
	<g>
		<path class="st1" d="M63.954,71.765l-0.773-4.385c-1.924,0.809-2.266,0.764-11.507,2.393c-1.926,0.34-3.824,0.297-5.622-0.056
			l0.883,5.01C48.518,74.182,61.914,71.762,63.954,71.765z"/>
	</g>
	<g>
		<path class="st4" d="M46.936,76.727c-0.353,0-0.704-0.094-1.015-0.277c-0.504-0.297-0.853-0.8-0.955-1.376l-0.883-5.01
			c-0.114-0.649,0.099-1.313,0.569-1.775c0.471-0.462,1.142-0.664,1.786-0.535c1.623,0.319,3.268,0.335,4.889,0.049
			c1.668-0.294,3.047-0.534,4.198-0.734c5.308-0.922,5.565-0.98,6.881-1.534c0.561-0.236,1.198-0.203,1.732,0.088
			s0.907,0.81,1.013,1.409l0.773,4.385c0.103,0.583-0.058,1.181-0.438,1.634c-0.38,0.452-0.94,0.713-1.531,0.713
			c-0.002,0-0.004,0-0.006,0c-1.798,0-14.961,2.371-16.362,2.853C47.375,76.69,47.155,76.727,46.936,76.727z M48.485,71.999
			l0.051,0.289c0.463-0.099,0.976-0.204,1.525-0.313C49.536,72.007,49.011,72.014,48.485,71.999z"/>
	</g>
	<g>
		<path class="st5" d="M144.798,175.634c-0.779-2.274-2.837-3.865-5.234-4.045l-12.718-0.959l-15.386,5.259l1.486,8.678
			c0.204,1.189,0.866,2.251,1.844,2.957c1.212,0.875,2.774,1.107,4.188,0.623l26.945-9.231L144.798,175.634z"/>
	</g>
	<g>
		<path class="st4" d="M117.488,190.395c-1.371,0-2.73-0.427-3.869-1.249c-1.412-1.019-2.351-2.525-2.645-4.241l-1.486-8.678
			c-0.166-0.968,0.396-1.913,1.324-2.23l15.386-5.259c0.256-0.088,0.528-0.123,0.797-0.102l12.718,0.959
			c3.198,0.241,5.936,2.357,6.976,5.391l0,0l1.124,3.282c0.358,1.045-0.199,2.182-1.244,2.54l-26.944,9.23
			C118.93,190.278,118.207,190.395,117.488,190.395z M113.719,177.231l1.198,6.999c0.116,0.677,0.486,1.271,1.043,1.673
			c0.685,0.494,1.568,0.626,2.368,0.352l25.053-8.583l-0.476-1.39c-0.52-1.519-1.891-2.578-3.492-2.699l-12.309-0.928
			L113.719,177.231z"/>
	</g>
	<g>
		<path class="st6" d="M229.407,79.665L229.407,79.665c-8.504-2.367-27.932-5.512-27.213,15.445c0.034,0.99,0.491,1.913,1.244,2.515
			c16.251,13.018,25.29-4.326,28.504-12.671l0,0C233.467,80.792,233.335,80.865,229.407,79.665z"/>
	</g>
	<g>
		<path class="st4" d="M202.652,97.706c-0.359,0-0.707-0.194-0.886-0.534c-0.257-0.489-0.07-1.094,0.418-1.351l22.769-11.997
			c0.489-0.256,1.094-0.07,1.351,0.418s0.07,1.094-0.418,1.351l-22.769,11.997C202.969,97.669,202.81,97.706,202.652,97.706z"/>
	</g>
	<g>
		<path class="st4" d="M218.907,96.168c-0.065,0-0.132-0.006-0.199-0.02l-9.638-1.948c-0.541-0.109-0.891-0.637-0.782-1.178
			c0.109-0.541,0.633-0.893,1.178-0.782l9.638,1.948c0.541,0.109,0.891,0.637,0.782,1.178
			C219.79,95.84,219.373,96.168,218.907,96.168z"/>
	</g>
	<g>
		<path class="st4" d="M215.441,90.968c-0.126,0-0.254-0.024-0.377-0.075c-0.511-0.208-0.757-0.792-0.548-1.304l3.127-7.661
			c0.208-0.512,0.793-0.758,1.304-0.548c0.511,0.208,0.757,0.792,0.548,1.304l-3.127,7.661
			C216.209,90.733,215.835,90.968,215.441,90.968z"/>
	</g>
	<g>
		<path class="st4" d="M214.566,104.317c-3.968,0-8.117-1.717-12.378-5.13c-1.212-0.971-1.938-2.432-1.992-4.008
			c-0.245-7.155,1.715-12.425,5.828-15.661c6.89-5.423,17.945-3.442,23.921-1.779c0.016,0.004,0.032,0.009,0.048,0.014l0.273,0.083
			c2.14,0.652,3.554,1.083,4.25,2.482c0.724,1.454,0.159,2.994-0.696,5.326c-2.248,5.837-7.259,15.919-15.701,18.201
			C216.952,104.16,215.767,104.317,214.566,104.317z M218.091,79.945c-3.521,0-7.011,0.681-9.594,2.715
			c-3.055,2.404-4.503,6.57-4.303,12.382c0.014,0.403,0.199,0.785,0.495,1.022c4.5,3.605,8.668,4.923,12.387,3.918
			c6.737-1.821,11.037-10.647,13-15.747c0.224-0.613,0.545-1.487,0.692-2.035c-0.418-0.159-1.071-0.358-1.669-0.54l-0.25-0.076
			C226.064,80.812,222.059,79.945,218.091,79.945z"/>
	</g>
</g>
</svg>
