<?xml version="1.0" encoding="utf-8"?>
<!-- Generator: Adobe Illustrator 22.0.1, SVG Export Plug-In . SVG Version: 6.00 Build 0)  -->
<svg version="1.1" id="Layer_1" xmlns="http://www.w3.org/2000/svg" xmlns:xlink="http://www.w3.org/1999/xlink" x="0px" y="0px"
	 viewBox="0 0 256 256" style="enable-background:new 0 0 256 256;" xml:space="preserve">
<style type="text/css">
	.st0{fill:#3A312A;}
	.st1{fill:#F16C7A;}
	.st2{fill:#D7E057;}
	.st3{fill:#F8E4C8;}
	.st4{fill:#89C4DB;}
	.st5{fill-rule:evenodd;clip-rule:evenodd;fill:#F8E4C8;}
	.st6{fill:#87796F;}
	.st7{fill:#D4DB56;}
	.st8{fill:#F59689;}
	.st9{fill:#6CA6BE;}
	.st10{fill:#695B51;}
	.st11{fill:#F7E3C7;}
	.st12{fill:#8AC6DD;}
	.st13{fill:#6CA8BF;}
	.st14{fill:#D6DF58;}
	.st15{fill:#FAE6CA;}
	.st16{fill:#EF6D7A;}
	.st17{fill:#DDC9AC;}
	.st18{fill:#D24E5C;}
	.st19{fill:#6A5C52;}
	.st20{fill:#B9C239;}
	.st21{fill:#FCE8CB;}
	.st22{fill:#DECAAD;}
	.st23{fill:#D5DE58;}
	.st24{fill:#8AC5DC;}
	.st25{fill:#D34E5C;}
	.st26{fill:#ED6E7A;}
	.st27{fill:#B8C136;}
</style>
<g>
	<g>
		<g>
			<rect x="27.724" y="28" class="st1" width="159.793" height="36.477"/>
		</g>
	</g>
	<g>
		<g>
			<path class="st0" d="M187.517,26.5H68.986c-0.829,0-1.5,0.671-1.5,1.5c0,0.829,0.671,1.5,1.5,1.5h117.031v33.477H29.224V29.5
				h26.988c0.829,0,1.5-0.671,1.5-1.5c0-0.829-0.671-1.5-1.5-1.5H27.724c-0.829,0-1.5,0.671-1.5,1.5v36.477
				c0,0.829,0.671,1.5,1.5,1.5h159.792c0.829,0,1.5-0.671,1.5-1.5V28C189.017,27.171,188.345,26.5,187.517,26.5z"/>
		</g>
	</g>
	<g>
		<g>
			<rect x="27.724" y="78.637" class="st2" width="130.805" height="36.477"/>
		</g>
	</g>
	<g>
		<g>
			<path class="st0" d="M158.529,77.137H27.724c-0.829,0-1.5,0.671-1.5,1.5v36.477c0,0.829,0.671,1.5,1.5,1.5h130.805
				c0.829,0,1.5-0.671,1.5-1.5V78.637C160.029,77.808,159.357,77.137,158.529,77.137z M157.029,113.613H29.224V80.137h127.805
				V113.613z"/>
		</g>
	</g>
	<g>
		<g>
			<polygon class="st12" points="163.074,129.273 150.291,129.273 27.724,129.273 27.724,165.75 207.724,165.75 207.724,129.273 			
				"/>
		</g>
	</g>
	<g>
		<g>
			<path class="st0" d="M207.724,127.773h-44.65c-0.829,0-1.5,0.671-1.5,1.5c0,0.829,0.671,1.5,1.5,1.5h43.15v33.477h-177v-33.477
				h121.067c0.829,0,1.5-0.671,1.5-1.5c0-0.829-0.671-1.5-1.5-1.5H27.724c-0.829,0-1.5,0.671-1.5,1.5v36.477
				c0,0.829,0.671,1.5,1.5,1.5h180c0.829,0,1.5-0.671,1.5-1.5v-36.477C209.224,128.445,208.553,127.773,207.724,127.773z"/>
		</g>
	</g>
	<g>
		<g>
			<rect x="27.724" y="179.91" class="st6" width="154.425" height="36.477"/>
		</g>
	</g>
	<g>
		<g>
			<path class="st0" d="M182.148,178.41H27.724c-0.829,0-1.5,0.671-1.5,1.5v36.477c0,0.829,0.671,1.5,1.5,1.5h154.424
				c0.829,0,1.5-0.671,1.5-1.5V179.91C183.648,179.082,182.977,178.41,182.148,178.41z M180.648,214.887H29.224V181.41h151.424
				V214.887z"/>
		</g>
	</g>
	<g>
		<g>
			<path class="st2" d="M226.818,26.22c-0.974,11.564-13.025,13.39-13.025,13.39c10.347,0.487,12.925,14.059,12.925,14.059
				c0.221-9.677,13.321-14.202,13.321-14.202C230.227,38.879,226.818,26.22,226.818,26.22z"/>
		</g>
	</g>
	<g>
		<g>
			<path class="st0" d="M240.13,37.969c-8.605-0.515-11.832-12.024-11.864-12.141c-0.19-0.702-0.846-1.162-1.583-1.102
				c-0.725,0.066-1.298,0.642-1.359,1.367c-0.86,10.215-11.313,11.964-11.754,12.033c-0.763,0.115-1.313,0.79-1.273,1.56
				c0.04,0.77,0.657,1.384,1.428,1.421c9.028,0.425,11.499,12.718,11.523,12.842c0.137,0.711,0.759,1.217,1.472,1.217
				c0.042,0,0.084-0.002,0.126-0.005c0.764-0.064,1.357-0.693,1.375-1.459c0.194-8.508,12.191-12.777,12.313-12.819
				c0.675-0.235,1.092-0.914,0.994-1.623C241.427,38.553,240.844,38.012,240.13,37.969z M226.564,48.315
				c-1.357-3.13-3.709-6.907-7.587-8.877c2.931-1.405,6.409-3.913,8.202-8.272c1.551,3.071,4.2,6.88,8.333,8.722
				C232.505,41.528,228.59,44.293,226.564,48.315z"/>
		</g>
	</g>
	<g>
		<g>
			<path class="st2" d="M205.12,43.2c-0.689,8.179-9.213,9.47-9.213,9.47c7.318,0.344,9.142,9.944,9.142,9.944
				c0.156-6.844,9.422-10.045,9.422-10.045C207.53,52.155,205.12,43.2,205.12,43.2z"/>
		</g>
	</g>
	<g>
		<g>
			<path class="st0" d="M214.561,51.072c-5.767-0.345-7.973-8.186-7.994-8.265c-0.19-0.702-0.854-1.17-1.582-1.102
				c-0.726,0.065-1.299,0.642-1.36,1.368c-0.579,6.871-7.646,8.067-7.942,8.114c-0.763,0.115-1.314,0.79-1.273,1.561
				c0.04,0.77,0.657,1.384,1.428,1.421c6.035,0.284,7.723,8.644,7.739,8.726c0.135,0.713,0.759,1.22,1.472,1.22
				c0.042,0,0.083-0.001,0.125-0.005c0.765-0.063,1.358-0.694,1.376-1.461c0.13-5.709,8.332-8.634,8.413-8.662
				c0.676-0.234,1.094-0.913,0.996-1.622C215.86,51.657,215.276,51.115,214.561,51.072z M204.977,57.867
				c-0.924-1.885-2.34-3.947-4.447-5.28c1.856-1.041,3.697-2.63,4.871-4.916c1.057,1.873,2.655,3.954,4.941,5.224
				C208.492,53.996,206.352,55.635,204.977,57.867z"/>
		</g>
	</g>
	<g>
		<g>
			<path class="st2" d="M205.12,16.543c-0.689,8.179-9.213,9.471-9.213,9.471c7.318,0.344,9.142,9.944,9.142,9.944
				c0.156-6.845,9.422-10.045,9.422-10.045C207.53,25.497,205.12,16.543,205.12,16.543z"/>
		</g>
	</g>
	<g>
		<g>
			<path class="st0" d="M214.561,24.415c-5.767-0.345-7.973-8.185-7.994-8.265c-0.19-0.702-0.854-1.163-1.582-1.102
				c-0.726,0.065-1.299,0.642-1.36,1.368c-0.579,6.871-7.646,8.067-7.942,8.114c-0.763,0.115-1.314,0.79-1.273,1.56
				c0.04,0.77,0.657,1.384,1.428,1.421c6.035,0.284,7.723,8.644,7.739,8.726c0.135,0.713,0.759,1.22,1.472,1.22
				c0.042,0,0.083-0.001,0.125-0.005c0.765-0.064,1.358-0.694,1.376-1.461c0.13-5.709,8.332-8.634,8.413-8.662
				c0.676-0.234,1.094-0.913,0.996-1.622C215.86,25,215.276,24.458,214.561,24.415z M204.977,31.21
				c-0.924-1.885-2.34-3.947-4.447-5.28c1.856-1.041,3.697-2.63,4.871-4.916c1.057,1.873,2.655,3.954,4.941,5.224
				C208.492,27.338,206.352,28.978,204.977,31.21z"/>
		</g>
	</g>
	<g>
		<g>
			<path class="st0" d="M238.724,226.625h-209.5v-210.5c0-0.829-0.671-1.5-1.5-1.5c-0.829,0-1.5,0.671-1.5,1.5v212
				c0,0.829,0.671,1.5,1.5,1.5h211c0.829,0,1.5-0.671,1.5-1.5S239.553,226.625,238.724,226.625z"/>
		</g>
	</g>
	<g>
		<g>
			<path class="st0" d="M27.724,226.625c-0.829,0-1.5,0.671-1.5,1.5v11.75c0,0.829,0.671,1.5,1.5,1.5c0.829,0,1.5-0.671,1.5-1.5
				v-11.75C29.224,227.296,28.553,226.625,27.724,226.625z"/>
		</g>
	</g>
	<g>
		<g>
			<path class="st0" d="M61.194,226.625c-0.829,0-1.5,0.671-1.5,1.5v11.75c0,0.829,0.671,1.5,1.5,1.5c0.829,0,1.5-0.671,1.5-1.5
				v-11.75C62.694,227.296,62.023,226.625,61.194,226.625z"/>
		</g>
	</g>
	<g>
		<g>
			<path class="st0" d="M94.654,226.625c-0.829,0-1.5,0.671-1.5,1.5v11.75c0,0.829,0.671,1.5,1.5,1.5s1.5-0.671,1.5-1.5v-11.75
				C96.154,227.296,95.482,226.625,94.654,226.625z"/>
		</g>
	</g>
	<g>
		<g>
			<path class="st0" d="M128.124,226.625c-0.829,0-1.5,0.671-1.5,1.5v11.75c0,0.829,0.671,1.5,1.5,1.5c0.829,0,1.5-0.671,1.5-1.5
				v-11.75C129.624,227.296,128.953,226.625,128.124,226.625z"/>
		</g>
	</g>
	<g>
		<g>
			<path class="st0" d="M161.584,226.625c-0.829,0-1.5,0.671-1.5,1.5v11.75c0,0.829,0.671,1.5,1.5,1.5s1.5-0.671,1.5-1.5v-11.75
				C163.084,227.296,162.413,226.625,161.584,226.625z"/>
		</g>
	</g>
	<g>
		<g>
			<path class="st0" d="M195.054,226.625c-0.829,0-1.5,0.671-1.5,1.5v11.75c0,0.829,0.671,1.5,1.5,1.5c0.829,0,1.5-0.671,1.5-1.5
				v-11.75C196.554,227.296,195.882,226.625,195.054,226.625z"/>
		</g>
	</g>
	<g>
		<g>
			<path class="st0" d="M228.514,226.625c-0.829,0-1.5,0.671-1.5,1.5v11.75c0,0.829,0.671,1.5,1.5,1.5c0.829,0,1.5-0.671,1.5-1.5
				v-11.75C230.014,227.296,229.343,226.625,228.514,226.625z"/>
		</g>
	</g>
	<g>
		<g>
			<path class="st0" d="M27.724,226.625h-11.75c-0.829,0-1.5,0.671-1.5,1.5s0.671,1.5,1.5,1.5h11.75c0.829,0,1.5-0.671,1.5-1.5
				S28.553,226.625,27.724,226.625z"/>
		</g>
	</g>
	<g>
		<g>
			<path class="st0" d="M27.724,193.155h-11.75c-0.829,0-1.5,0.671-1.5,1.5c0,0.829,0.671,1.5,1.5,1.5h11.75
				c0.829,0,1.5-0.671,1.5-1.5C29.224,193.826,28.553,193.155,27.724,193.155z"/>
		</g>
	</g>
	<g>
		<g>
			<path class="st0" d="M27.724,159.695h-11.75c-0.829,0-1.5,0.671-1.5,1.5s0.671,1.5,1.5,1.5h11.75c0.829,0,1.5-0.671,1.5-1.5
				S28.553,159.695,27.724,159.695z"/>
		</g>
	</g>
	<g>
		<g>
			<path class="st0" d="M27.724,126.225h-11.75c-0.829,0-1.5,0.671-1.5,1.5c0,0.829,0.671,1.5,1.5,1.5h11.75
				c0.829,0,1.5-0.671,1.5-1.5C29.224,126.897,28.553,126.225,27.724,126.225z"/>
		</g>
	</g>
	<g>
		<g>
			<path class="st0" d="M27.724,92.765h-11.75c-0.829,0-1.5,0.671-1.5,1.5c0,0.829,0.671,1.5,1.5,1.5h11.75
				c0.829,0,1.5-0.671,1.5-1.5C29.224,93.437,28.553,92.765,27.724,92.765z"/>
		</g>
	</g>
	<g>
		<g>
			<path class="st0" d="M27.724,59.295h-11.75c-0.829,0-1.5,0.671-1.5,1.5s0.671,1.5,1.5,1.5h11.75c0.829,0,1.5-0.671,1.5-1.5
				S28.553,59.295,27.724,59.295z"/>
		</g>
	</g>
	<g>
		<g>
			<path class="st0" d="M27.724,25.835h-11.75c-0.829,0-1.5,0.671-1.5,1.5c0,0.829,0.671,1.5,1.5,1.5h11.75
				c0.829,0,1.5-0.671,1.5-1.5C29.224,26.506,28.553,25.835,27.724,25.835z"/>
		</g>
	</g>
	<g>
		<g>
			<rect x="171.019" y="29.5" class="st25" width="15" height="33.48"/>
		</g>
	</g>
	<g>
		<g>
			<rect x="142.029" y="80.14" class="st20" width="15" height="33.47"/>
		</g>
	</g>
	<g>
		<g>
			<rect x="191.229" y="130.77" class="st13" width="15" height="33.48"/>
		</g>
	</g>
	<g>
		<g>
			<rect x="165.649" y="181.41" class="st10" width="15" height="33.48"/>
		</g>
	</g>
</g>
</svg>
