<?xml version="1.0" encoding="utf-8"?>
<!-- Generator: Adobe Illustrator 22.0.1, SVG Export Plug-In . SVG Version: 6.00 Build 0)  -->
<svg version="1.1" id="Layer_1" xmlns="http://www.w3.org/2000/svg" xmlns:xlink="http://www.w3.org/1999/xlink" x="0px" y="0px"
	 viewBox="0 0 256 256" style="enable-background:new 0 0 256 256;" xml:space="preserve">
<style type="text/css">
	.st0{fill:#3A312A;}
	.st1{fill:#F16C7A;}
	.st2{fill:#D7E057;}
	.st3{fill:#F8E4C8;}
	.st4{fill:#89C4DB;}
	.st5{fill-rule:evenodd;clip-rule:evenodd;fill:#F8E4C8;}
	.st6{fill:#87796F;}
	.st7{fill:#D4DB56;}
	.st8{fill:#F59689;}
	.st9{fill:#6CA6BE;}
	.st10{fill:#695B51;}
	.st11{fill:#F7E3C7;}
	.st12{fill:#8AC6DD;}
	.st13{fill:#6CA8BF;}
	.st14{fill:#D6DF58;}
	.st15{fill:#FAE6CA;}
	.st16{fill:#EF6D7A;}
	.st17{fill:#DDC9AC;}
	.st18{fill:#D24E5C;}
	.st19{fill:#6A5C52;}
	.st20{fill:#B9C239;}
	.st21{fill:#FCE8CB;}
	.st22{fill:#DECAAD;}
	.st23{fill:#D5DE58;}
	.st24{fill:#8AC5DC;}
	.st25{fill:#D34E5C;}
	.st26{fill:#ED6E7A;}
	.st27{fill:#B8C136;}
</style>
<g>
	<g>
		<g>
			<path class="st0" d="M127.942,30.438c-0.828,0-1.5,0.672-1.5,1.5v192c0,0.828,0.672,1.5,1.5,1.5s1.5-0.672,1.5-1.5v-192
				C129.442,31.11,128.771,30.438,127.942,30.438z"/>
		</g>
	</g>
	<g>
		<g>
			<path class="st2" d="M136.403,20.014c-4.673-4.672-12.248-4.672-16.92,0c-4.672,4.673-4.672,12.248,0,16.92
				c4.673,4.672,12.248,4.672,16.92,0C141.075,32.262,141.075,24.687,136.403,20.014z"/>
		</g>
	</g>
	<g>
		<g>
			<path class="st0" d="M137.464,18.954c-5.249-5.249-13.791-5.251-19.042,0c-5.249,5.249-5.249,13.791,0,19.041
				c2.625,2.625,6.073,3.937,9.521,3.937c3.448,0,6.896-1.312,9.521-3.937C142.713,32.745,142.713,24.203,137.464,18.954z
				 M135.343,35.874c-4.079,4.079-10.719,4.079-14.8,0c-4.079-4.08-4.079-10.719,0-14.799c2.04-2.04,4.72-3.061,7.399-3.061
				c2.681,0,5.36,1.021,7.4,3.061C139.422,25.155,139.422,31.794,135.343,35.874z"/>
		</g>
	</g>
	<g>
		<g>
			<path class="st2" d="M136.403,219.154c-4.673-4.672-12.248-4.672-16.92,0c-4.672,4.673-4.672,12.248,0,16.92
				c4.673,4.672,12.248,4.672,16.92,0C141.075,231.402,141.075,223.827,136.403,219.154z"/>
		</g>
	</g>
	<g>
		<g>
			<path class="st0" d="M137.464,218.094c-5.251-5.251-13.793-5.249-19.042,0c-5.249,5.25-5.249,13.792,0,19.042
				c2.625,2.625,6.073,3.937,9.521,3.937c3.448,0,6.896-1.312,9.521-3.937C142.713,231.886,142.713,223.344,137.464,218.094z
				 M135.343,235.015c-4.079,4.078-10.719,4.08-14.8,0c-4.079-4.08-4.079-10.72,0-14.8c2.04-2.04,4.72-3.06,7.4-3.06
				c2.679,0,5.359,1.021,7.399,3.06C139.422,224.295,139.422,230.935,135.343,235.015z"/>
		</g>
	</g>
	<g>
		<g>
			<path class="st0" d="M224.049,126.545h-192c-0.828,0-1.5,0.672-1.5,1.5s0.672,1.5,1.5,1.5h192c0.828,0,1.5-0.672,1.5-1.5
				S224.877,126.545,224.049,126.545z"/>
		</g>
	</g>
	<g>
		<g>
			<path class="st6" d="M235.973,119.584c-4.673-4.673-12.248-4.673-16.92,0c-4.672,4.672-4.672,12.248,0,16.92
				c4.672,4.672,12.248,4.672,16.92,0C240.646,131.832,240.646,124.257,235.973,119.584z"/>
		</g>
	</g>
	<g>
		<g>
			<path class="st0" d="M237.033,118.523c-5.247-5.25-13.79-5.25-19.041,0c-5.249,5.25-5.249,13.792,0,19.042
				c2.625,2.625,6.073,3.937,9.521,3.937c3.448,0,6.896-1.312,9.521-3.937C242.283,132.315,242.283,123.773,237.033,118.523z
				 M234.912,135.444c-4.08,4.08-10.719,4.08-14.799,0c-4.079-4.08-4.079-10.72,0-14.8c4.08-4.08,10.719-4.078,14.799,0
				C238.992,124.725,238.992,131.364,234.912,135.444z"/>
		</g>
	</g>
	<g>
		<g>
			<path class="st6" d="M36.833,119.584c-4.672-4.673-12.248-4.673-16.92,0c-4.672,4.672-4.672,12.248,0,16.92
				c4.672,4.672,12.248,4.672,16.92,0C41.505,131.832,41.505,124.257,36.833,119.584z"/>
		</g>
	</g>
	<g>
		<g>
			<path class="st0" d="M37.894,118.523c-5.251-5.25-13.793-5.25-19.042,0s-5.249,13.792,0,19.042
				c2.625,2.625,6.073,3.937,9.521,3.937c3.448,0,6.896-1.312,9.521-3.937C43.143,132.315,43.143,123.773,37.894,118.523z
				 M35.772,135.444c-4.079,4.077-10.719,4.079-14.8,0c-4.079-4.08-4.079-10.72,0-14.8c4.078-4.079,10.718-4.079,14.8,0
				C39.852,124.725,39.852,131.364,35.772,135.444z"/>
		</g>
	</g>
	<g>
		<g>
			<path class="st0" d="M196.96,59.027c-0.586-0.586-1.535-0.586-2.121,0L59.075,194.791c-0.586,0.586-0.586,1.535,0,2.121
				c0.293,0.293,0.677,0.439,1.061,0.439s0.768-0.146,1.061-0.439L196.96,61.148C197.546,60.563,197.546,59.613,196.96,59.027z"/>
		</g>
	</g>
	<g>
		<g>
			<path class="st11" d="M198.35,45.673c-6.608,0-11.965,5.357-11.965,11.964c0,6.608,5.357,11.964,11.964,11.964
				s11.964-5.356,11.964-11.964C210.314,51.03,204.957,45.673,198.35,45.673z"/>
		</g>
	</g>
	<g>
		<g>
			<path class="st0" d="M198.35,44.174c-7.425,0-13.465,6.04-13.465,13.464c0,7.425,6.04,13.465,13.465,13.465
				c7.424,0,13.464-6.04,13.465-13.465C211.814,50.214,205.774,44.174,198.35,44.174z M198.35,68.103
				c-5.771,0-10.465-4.694-10.465-10.465c0-5.77,4.694-10.464,10.465-10.464s10.465,4.694,10.465,10.464
				C208.813,63.408,204.119,68.103,198.35,68.103z"/>
		</g>
	</g>
	<g>
		<g>
			<path class="st11" d="M57.536,186.487c-6.608,0-11.965,5.356-11.964,11.964c0,6.608,5.356,11.964,11.964,11.964
				c6.608,0,11.964-5.356,11.964-11.964C69.501,191.843,64.144,186.487,57.536,186.487z"/>
		</g>
	</g>
	<g>
		<g>
			<path class="st0" d="M57.536,184.987c-7.425,0-13.465,6.04-13.465,13.464c0,7.425,6.04,13.465,13.465,13.465
				s13.465-6.04,13.465-13.465C71.001,191.027,64.961,184.987,57.536,184.987z M57.536,208.916c-5.771,0-10.465-4.694-10.465-10.465
				c0-5.77,4.694-10.464,10.465-10.464s10.465,4.694,10.465,10.464C68.001,204.222,63.307,208.916,57.536,208.916z"/>
		</g>
	</g>
	<g>
		<g>
			<path class="st0" d="M196.96,194.941L61.196,59.177c-0.586-0.586-1.535-0.586-2.121,0s-0.586,1.535,0,2.121l135.764,135.765
				c0.293,0.293,0.677,0.439,1.061,0.439s0.768-0.146,1.061-0.439C197.546,196.477,197.546,195.527,196.96,194.941z"/>
		</g>
	</g>
	<g>
		<g>
			<circle class="st1" cx="198.349" cy="198.451" r="11.964"/>
		</g>
	</g>
	<g>
		<g>
			<path class="st0" d="M198.35,184.987c-7.425,0-13.465,6.04-13.465,13.464c0,7.425,6.04,13.465,13.465,13.465
				c7.424,0,13.464-6.04,13.464-13.465C211.813,191.027,205.773,184.987,198.35,184.987z M198.35,208.916
				c-5.771,0-10.465-4.694-10.465-10.465c0-5.77,4.694-10.464,10.465-10.464c5.77,0,10.464,4.694,10.464,10.464
				C208.813,204.222,204.119,208.916,198.35,208.916z"/>
		</g>
	</g>
	<g>
		<g>
			<path class="st1" d="M57.536,45.673c-6.608,0-11.964,5.357-11.964,11.964c0,6.608,5.357,11.964,11.965,11.965
				c6.608,0,11.964-5.357,11.964-11.965S64.144,45.673,57.536,45.673z"/>
		</g>
	</g>
	<g>
		<g>
			<path class="st0" d="M67.057,48.117c-2.543-2.543-5.923-3.943-9.519-3.943c-0.001,0-0.001,0-0.002,0
				c-7.425,0-13.465,6.04-13.465,13.464c0,7.425,6.04,13.465,13.465,13.465s13.465-6.04,13.465-13.465
				C71.001,54.041,69.601,50.66,67.057,48.117z M57.536,68.103c-5.771,0-10.465-4.694-10.465-10.465
				c0-5.77,4.694-10.464,10.465-10.464c0.001,0,0.001,0,0.002,0c2.794,0,5.422,1.089,7.397,3.064
				c1.977,1.977,3.065,4.604,3.065,7.399C68.001,63.408,63.307,68.103,57.536,68.103z"/>
		</g>
	</g>
	<g>
		<g>
			<path class="st12" d="M166.341,103.135c-0.819,0-1.628,0.04-2.432,0.098c-4.384-15.749-18.82-27.309-35.966-27.309
				c-20.622,0-37.34,16.718-37.34,37.34c0,0.284,0.015,0.563,0.021,0.846c-2.002-0.45-4.082-0.695-6.22-0.695
				c-15.613,0-28.27,12.656-28.27,28.269c0,15.613,12.657,28.27,28.27,28.27c0.662,0,1.315-0.031,1.965-0.076v0.076h80.425v-0.012
				c18.241-0.244,32.956-15.099,32.956-33.398C199.75,118.093,184.792,103.135,166.341,103.135z"/>
		</g>
	</g>
	<g>
		<g>
			<path class="st0" d="M166.341,101.635c-0.425,0-0.861,0.01-1.331,0.03c-5.032-16.101-20.102-27.241-37.067-27.241
				c-21.092,0-38.312,16.898-38.828,37.869c-1.564-0.251-3.142-0.378-4.71-0.378c-16.415,0-29.77,13.354-29.77,29.77
				s13.354,29.77,29.77,29.77c0.491,0,1.004-0.016,1.584-0.049c0.122,0.032,0.25,0.049,0.382,0.049h15.18c0.828,0,1.5-0.672,1.5-1.5
				s-0.672-1.5-1.5-1.5H86.842c-0.184-0.061-0.374-0.089-0.575-0.072c-0.717,0.049-1.309,0.072-1.862,0.072
				c-14.761,0-26.77-12.009-26.77-26.77s12.009-26.77,26.77-26.77c1.964,0,3.945,0.222,5.892,0.658
				c0.449,0.102,0.92-0.01,1.277-0.303c0.357-0.292,0.56-0.731,0.551-1.192l-0.011-0.345c-0.005-0.156-0.011-0.313-0.011-0.47
				c0-19.762,16.078-35.84,35.84-35.84c16.03,0,30.226,10.778,34.521,26.211c0.191,0.688,0.857,1.149,1.553,1.094
				c0.893-0.063,1.631-0.094,2.324-0.094c17.596,0,31.91,14.314,31.91,31.909c0,17.356-14.12,31.666-31.477,31.898
				c-0.056,0.001-0.111,0.005-0.166,0.012h-52.272c-0.828,0-1.5,0.672-1.5,1.5s0.672,1.5,1.5,1.5h52.459
				c0.071,0,0.142-0.005,0.211-0.015c18.9-0.356,34.245-15.971,34.245-34.896C201.251,117.295,185.591,101.635,166.341,101.635z"/>
		</g>
	</g>
	<g>
		<g>
			<path class="st13" d="M166.343,104.633c-0.7,0-1.44,0.03-2.33,0.1c-0.72,0.05-1.36-0.41-1.55-1.1
				c-4.3-15.43-18.49-26.21-34.52-26.21c-2.58,0-5.1,0.27-7.53,0.8c12.82,2.74,23.43,12.43,27.05,25.41
				c0.19,0.69,0.83,1.15,1.55,1.1c0.89-0.07,1.63-0.1,2.33-0.1c17.59,0,31.91,14.32,31.91,31.91c0,17.36-14.12,31.67-31.48,31.9
				c-0.05,0-0.11,0-0.16,0.01h15c0.05-0.01,0.11-0.01,0.16-0.01c17.36-0.23,31.48-14.54,31.48-31.9
				C198.253,118.953,183.933,104.633,166.343,104.633z"/>
		</g>
	</g>
	<g>
		<g>
			<path class="st14" d="M47.909,73.187c-0.974,11.564-13.025,13.389-13.025,13.389c10.347,0.487,12.925,14.059,12.925,14.059
				c0.221-9.677,13.321-14.202,13.321-14.202C51.318,85.846,47.909,73.187,47.909,73.187z"/>
		</g>
	</g>
	<g>
		<g>
			<path class="st0" d="M61.221,84.937c-8.604-0.515-11.832-12.024-11.863-12.141c-0.19-0.702-0.854-1.152-1.584-1.102
				c-0.725,0.066-1.298,0.642-1.359,1.367C45.555,83.276,35.102,85.024,34.66,85.093c-0.763,0.116-1.313,0.791-1.273,1.561
				c0.04,0.771,0.657,1.385,1.428,1.421c9.028,0.426,11.499,12.719,11.522,12.844c0.138,0.711,0.76,1.217,1.473,1.217
				c0.042,0,0.084-0.002,0.126-0.005c0.765-0.064,1.357-0.693,1.375-1.46c0.193-8.509,12.19-12.777,12.312-12.819
				c0.676-0.234,1.092-0.914,0.994-1.622C62.518,85.52,61.935,84.979,61.221,84.937z M47.655,95.282
				c-1.356-3.131-3.709-6.908-7.587-8.877c2.931-1.404,6.408-3.913,8.201-8.272c1.551,3.071,4.2,6.88,8.334,8.723
				C53.597,88.495,49.682,91.261,47.655,95.282z"/>
		</g>
	</g>
	<g>
		<g>
			<path class="st14" d="M26.211,90.167c-0.689,8.179-9.212,9.47-9.212,9.47c7.318,0.344,9.142,9.944,9.142,9.944
				c0.156-6.844,9.422-10.045,9.422-10.045C28.622,99.122,26.211,90.167,26.211,90.167z"/>
		</g>
	</g>
	<g>
		<g>
			<path class="st0" d="M35.652,98.04c-5.767-0.345-7.972-8.186-7.993-8.265c-0.191-0.702-0.863-1.155-1.582-1.102
				c-0.726,0.065-1.3,0.643-1.361,1.368c-0.579,6.87-7.646,8.065-7.942,8.112c-0.763,0.116-1.313,0.791-1.273,1.561
				c0.04,0.771,0.657,1.385,1.428,1.421c6.035,0.284,7.724,8.645,7.739,8.727c0.136,0.713,0.759,1.22,1.473,1.22
				c0.041,0,0.083-0.002,0.125-0.005c0.765-0.063,1.358-0.693,1.376-1.461c0.13-5.708,8.331-8.633,8.412-8.661
				c0.676-0.234,1.093-0.913,0.996-1.622C36.951,98.624,36.366,98.082,35.652,98.04z M26.067,104.835
				c-0.924-1.886-2.34-3.947-4.447-5.28c1.855-1.041,3.697-2.63,4.871-4.916c1.057,1.874,2.654,3.955,4.941,5.224
				C29.582,100.963,27.444,102.603,26.067,104.835z"/>
		</g>
	</g>
	<g>
		<g>
			<path class="st14" d="M26.211,63.51c-0.689,8.179-9.212,9.471-9.212,9.471c7.318,0.344,9.142,9.944,9.142,9.944
				c0.156-6.844,9.422-10.045,9.422-10.045C28.622,72.464,26.211,63.51,26.211,63.51z"/>
		</g>
	</g>
	<g>
		<g>
			<path class="st0" d="M35.652,71.383c-5.767-0.346-7.972-8.187-7.993-8.266c-0.191-0.702-0.863-1.153-1.582-1.102
				c-0.726,0.065-1.3,0.643-1.361,1.368c-0.579,6.871-7.646,8.066-7.942,8.113c-0.763,0.116-1.313,0.791-1.273,1.561
				c0.04,0.771,0.657,1.385,1.428,1.421c6.035,0.284,7.724,8.645,7.739,8.727c0.136,0.713,0.759,1.22,1.473,1.22
				c0.041,0,0.083-0.002,0.125-0.005c0.765-0.063,1.358-0.693,1.376-1.461c0.13-5.709,8.331-8.633,8.411-8.661
				c0.677-0.233,1.094-0.913,0.997-1.622C36.951,71.967,36.366,71.426,35.652,71.383z M26.067,78.177
				c-0.924-1.885-2.34-3.947-4.447-5.279c1.855-1.041,3.697-2.63,4.871-4.917c1.057,1.874,2.653,3.955,4.941,5.225
				C29.583,74.306,27.443,75.944,26.067,78.177z"/>
		</g>
	</g>
</g>
</svg>
