<?xml version="1.0" encoding="utf-8"?>
<!-- Generator: Adobe Illustrator 22.0.1, SVG Export Plug-In . SVG Version: 6.00 Build 0)  -->
<svg version="1.1" id="Layer_1" xmlns="http://www.w3.org/2000/svg" xmlns:xlink="http://www.w3.org/1999/xlink" x="0px" y="0px"
	 viewBox="0 0 256 256" style="enable-background:new 0 0 256 256;" xml:space="preserve">
<style type="text/css">
	.st0{fill:#3A312A;}
	.st1{fill:#F16C7A;}
	.st2{fill:#D7E057;}
	.st3{fill:#F8E4C8;}
	.st4{fill:#89C4DB;}
	.st5{fill-rule:evenodd;clip-rule:evenodd;fill:#F8E4C8;}
	.st6{fill:#87796F;}
	.st7{fill:#D4DB56;}
	.st8{fill:#F59689;}
	.st9{fill:#6CA6BE;}
	.st10{fill:#695B51;}
	.st11{fill:#F7E3C7;}
	.st12{fill:#8AC6DD;}
	.st13{fill:#6CA8BF;}
	.st14{fill:#D6DF58;}
	.st15{fill:#FAE6CA;}
	.st16{fill:#EF6D7A;}
	.st17{fill:#DDC9AC;}
	.st18{fill:#D24E5C;}
	.st19{fill:#6A5C52;}
	.st20{fill:#B9C239;}
	.st21{fill:#FCE8CB;}
	.st22{fill:#DECAAD;}
	.st23{fill:#D5DE58;}
	.st24{fill:#8AC5DC;}
	.st25{fill:#D34E5C;}
	.st26{fill:#ED6E7A;}
	.st27{fill:#B8C136;}
</style>
<g>
	<g>
		<g>
			<path class="st0" d="M238.944,226.625h-209.5v-210.5c0-0.829-0.671-1.5-1.5-1.5c-0.829,0-1.5,0.671-1.5,1.5v212
				c0,0.829,0.671,1.5,1.5,1.5h211c0.828,0,1.5-0.671,1.5-1.5S239.772,226.625,238.944,226.625z"/>
		</g>
	</g>
	<g>
		<g>
			<path class="st0" d="M27.945,226.625c-0.829,0-1.5,0.671-1.5,1.5v11.75c0,0.829,0.671,1.5,1.5,1.5c0.829,0,1.5-0.671,1.5-1.5
				v-11.75C29.445,227.296,28.773,226.625,27.945,226.625z"/>
		</g>
	</g>
	<g>
		<g>
			<path class="st0" d="M61.415,226.625c-0.829,0-1.5,0.671-1.5,1.5v11.75c0,0.829,0.671,1.5,1.5,1.5c0.829,0,1.5-0.671,1.5-1.5
				v-11.75C62.915,227.296,62.243,226.625,61.415,226.625z"/>
		</g>
	</g>
	<g>
		<g>
			<path class="st0" d="M94.875,226.625c-0.829,0-1.5,0.671-1.5,1.5v11.75c0,0.829,0.671,1.5,1.5,1.5s1.5-0.671,1.5-1.5v-11.75
				C96.375,227.296,95.704,226.625,94.875,226.625z"/>
		</g>
	</g>
	<g>
		<g>
			<path class="st0" d="M128.345,226.625c-0.829,0-1.5,0.671-1.5,1.5v11.75c0,0.829,0.671,1.5,1.5,1.5c0.828,0,1.5-0.671,1.5-1.5
				v-11.75C129.845,227.296,129.173,226.625,128.345,226.625z"/>
		</g>
	</g>
	<g>
		<g>
			<path class="st0" d="M161.805,226.625c-0.828,0-1.5,0.671-1.5,1.5v11.75c0,0.829,0.672,1.5,1.5,1.5c0.828,0,1.5-0.671,1.5-1.5
				v-11.75C163.305,227.296,162.633,226.625,161.805,226.625z"/>
		</g>
	</g>
	<g>
		<g>
			<path class="st0" d="M195.274,226.625c-0.828,0-1.5,0.671-1.5,1.5v11.75c0,0.829,0.672,1.5,1.5,1.5c0.828,0,1.5-0.671,1.5-1.5
				v-11.75C196.774,227.296,196.102,226.625,195.274,226.625z"/>
		</g>
	</g>
	<g>
		<g>
			<path class="st0" d="M228.734,226.625c-0.828,0-1.5,0.671-1.5,1.5v11.75c0,0.829,0.672,1.5,1.5,1.5s1.5-0.671,1.5-1.5v-11.75
				C230.234,227.296,229.563,226.625,228.734,226.625z"/>
		</g>
	</g>
	<g>
		<g>
			<path class="st0" d="M27.945,226.625h-11.75c-0.829,0-1.5,0.671-1.5,1.5s0.671,1.5,1.5,1.5h11.75c0.829,0,1.5-0.671,1.5-1.5
				S28.773,226.625,27.945,226.625z"/>
		</g>
	</g>
	<g>
		<g>
			<path class="st0" d="M27.945,193.155h-11.75c-0.829,0-1.5,0.671-1.5,1.5c0,0.829,0.671,1.5,1.5,1.5h11.75
				c0.829,0,1.5-0.671,1.5-1.5C29.445,193.826,28.773,193.155,27.945,193.155z"/>
		</g>
	</g>
	<g>
		<g>
			<path class="st0" d="M27.945,159.695h-11.75c-0.829,0-1.5,0.671-1.5,1.5s0.671,1.5,1.5,1.5h11.75c0.829,0,1.5-0.671,1.5-1.5
				S28.773,159.695,27.945,159.695z"/>
		</g>
	</g>
	<g>
		<g>
			<path class="st0" d="M27.945,126.225h-11.75c-0.829,0-1.5,0.671-1.5,1.5c0,0.829,0.671,1.5,1.5,1.5h11.75
				c0.829,0,1.5-0.671,1.5-1.5C29.445,126.897,28.773,126.225,27.945,126.225z"/>
		</g>
	</g>
	<g>
		<g>
			<path class="st0" d="M27.945,92.765h-11.75c-0.829,0-1.5,0.671-1.5,1.5c0,0.829,0.671,1.5,1.5,1.5h11.75
				c0.829,0,1.5-0.671,1.5-1.5C29.445,93.437,28.773,92.765,27.945,92.765z"/>
		</g>
	</g>
	<g>
		<g>
			<path class="st0" d="M27.945,59.295h-11.75c-0.829,0-1.5,0.671-1.5,1.5s0.671,1.5,1.5,1.5h11.75c0.829,0,1.5-0.671,1.5-1.5
				S28.773,59.295,27.945,59.295z"/>
		</g>
	</g>
	<g>
		<g>
			<path class="st0" d="M27.945,25.835h-11.75c-0.829,0-1.5,0.671-1.5,1.5c0,0.829,0.671,1.5,1.5,1.5h11.75
				c0.829,0,1.5-0.671,1.5-1.5C29.445,26.506,28.773,25.835,27.945,25.835z"/>
		</g>
	</g>
	<g>
		<g>
			<path class="st0" d="M228.676,118.487c-0.561-0.612-1.508-0.652-2.119-0.094l-48.357,44.274l-44.567-24.482
				c-0.6-0.329-1.343-0.212-1.811,0.283l-45.576,48.11l-45.379-28.35c-0.704-0.44-1.629-0.225-2.067,0.477
				c-0.439,0.703-0.226,1.628,0.477,2.067l46.42,29c0.246,0.153,0.521,0.228,0.794,0.228c0.401,0,0.798-0.161,1.089-0.468
				l45.623-48.16l44.494,24.442c0.565,0.309,1.261,0.226,1.735-0.208l49.15-45C229.193,120.047,229.235,119.098,228.676,118.487z"/>
		</g>
	</g>
	<g>
		<g>
			<path class="st2" d="M227.039,26.22c-0.974,11.564-13.024,13.39-13.024,13.39c10.347,0.487,12.925,14.059,12.925,14.059
				c0.221-9.677,13.321-14.202,13.321-14.202C230.447,38.879,227.039,26.22,227.039,26.22z"/>
		</g>
	</g>
	<g>
		<g>
			<path class="st0" d="M240.351,37.969c-8.604-0.515-11.832-12.024-11.863-12.141c-0.19-0.702-0.849-1.162-1.584-1.102
				c-0.725,0.066-1.298,0.642-1.359,1.367c-0.859,10.215-11.313,11.964-11.754,12.033c-0.763,0.115-1.313,0.79-1.273,1.56
				c0.04,0.77,0.657,1.384,1.428,1.421c9.027,0.425,11.498,12.718,11.521,12.842c0.138,0.711,0.76,1.217,1.473,1.217
				c0.042,0,0.084-0.002,0.126-0.005c0.764-0.064,1.357-0.693,1.375-1.459c0.194-8.508,12.191-12.777,12.313-12.819
				c0.676-0.235,1.092-0.914,0.994-1.623C241.647,38.553,241.064,38.012,240.351,37.969z M226.784,48.315
				c-1.357-3.131-3.708-6.908-7.586-8.877c2.931-1.405,6.408-3.913,8.201-8.272c1.551,3.071,4.2,6.88,8.334,8.722
				C232.727,41.528,228.811,44.294,226.784,48.315z"/>
		</g>
	</g>
	<g>
		<g>
			<path class="st2" d="M205.34,43.2c-0.689,8.179-9.212,9.47-9.212,9.47c7.318,0.344,9.142,9.944,9.142,9.944
				c0.156-6.844,9.422-10.045,9.422-10.045C207.751,52.155,205.34,43.2,205.34,43.2z"/>
		</g>
	</g>
	<g>
		<g>
			<path class="st0" d="M214.782,51.072c-5.767-0.345-7.972-8.186-7.993-8.265c-0.19-0.702-0.866-1.164-1.582-1.102
				c-0.726,0.065-1.3,0.642-1.361,1.368c-0.579,6.871-7.647,8.067-7.942,8.114c-0.763,0.115-1.313,0.79-1.273,1.561
				c0.04,0.77,0.657,1.384,1.428,1.421c6.035,0.284,7.724,8.644,7.739,8.726c0.136,0.713,0.759,1.22,1.473,1.22
				c0.041,0,0.083-0.001,0.125-0.005c0.765-0.063,1.358-0.694,1.376-1.461c0.13-5.709,8.331-8.634,8.412-8.662
				c0.676-0.234,1.093-0.913,0.996-1.622C216.081,51.657,215.496,51.115,214.782,51.072z M205.197,57.867
				c-0.924-1.885-2.34-3.947-4.447-5.28c1.855-1.041,3.697-2.63,4.871-4.917c1.057,1.874,2.654,3.955,4.941,5.224
				C208.713,53.996,206.573,55.635,205.197,57.867z"/>
		</g>
	</g>
	<g>
		<g>
			<path class="st2" d="M205.34,16.543c-0.689,8.179-9.212,9.471-9.212,9.471c7.318,0.344,9.142,9.944,9.142,9.944
				c0.156-6.845,9.422-10.045,9.422-10.045C207.751,25.497,205.34,16.543,205.34,16.543z"/>
		</g>
	</g>
	<g>
		<g>
			<path class="st0" d="M214.782,24.415c-5.767-0.345-7.972-8.185-7.993-8.265c-0.19-0.703-0.866-1.164-1.582-1.102
				c-0.726,0.065-1.3,0.642-1.361,1.368c-0.579,6.871-7.647,8.067-7.942,8.114c-0.763,0.115-1.313,0.79-1.273,1.56
				c0.04,0.77,0.657,1.384,1.428,1.421c6.035,0.284,7.724,8.644,7.739,8.726c0.136,0.713,0.759,1.22,1.473,1.22
				c0.041,0,0.083-0.001,0.125-0.005c0.765-0.064,1.358-0.694,1.376-1.461c0.13-5.709,8.331-8.634,8.412-8.662
				c0.676-0.234,1.093-0.913,0.996-1.622C216.081,25,215.496,24.458,214.782,24.415z M205.197,31.21
				c-0.924-1.885-2.34-3.947-4.447-5.28c1.855-1.041,3.697-2.63,4.871-4.917c1.057,1.874,2.654,3.955,4.941,5.224
				C208.713,27.338,206.573,28.978,205.197,31.21z"/>
		</g>
	</g>
	<g>
		<g>
			<circle class="st1" cx="87.07" cy="188.5" r="8"/>
		</g>
	</g>
	<g>
		<g>
			<path class="st0" d="M87.07,179c-5.238,0-9.5,4.262-9.5,9.5c0,5.238,4.262,9.5,9.5,9.5c5.238,0,9.5-4.262,9.5-9.5
				C96.57,183.262,92.308,179,87.07,179z M87.07,195c-3.584,0-6.5-2.916-6.5-6.5s2.916-6.5,6.5-6.5c3.584,0,6.5,2.916,6.5,6.5
				S90.654,195,87.07,195z"/>
		</g>
	</g>
	<g>
		<g>
			<circle class="st2" cx="133.07" cy="139.5" r="8"/>
		</g>
	</g>
	<g>
		<g>
			<path class="st0" d="M133.069,130c-5.238,0-9.5,4.262-9.5,9.5c0,5.238,4.261,9.5,9.5,9.5c5.238,0,9.5-4.262,9.5-9.5
				C142.569,134.262,138.308,130,133.069,130z M133.069,146c-3.584,0-6.5-2.916-6.5-6.5s2.916-6.5,6.5-6.5
				c3.584,0,6.5,2.916,6.5,6.5S136.653,146,133.069,146z"/>
		</g>
	</g>
	<g>
		<g>
			<circle class="st12" cx="178.07" cy="164.5" r="8"/>
		</g>
	</g>
	<g>
		<g>
			<path class="st0" d="M178.069,155c-5.238,0-9.5,4.262-9.5,9.5c0,5.238,4.262,9.5,9.5,9.5c5.238,0,9.5-4.262,9.5-9.5
				C187.569,159.262,183.308,155,178.069,155z M178.069,171c-3.584,0-6.5-2.916-6.5-6.5s2.916-6.5,6.5-6.5
				c3.584,0,6.5,2.916,6.5,6.5S181.653,171,178.069,171z"/>
		</g>
	</g>
	<g>
		<g>
			<circle class="st6" cx="227.07" cy="120.5" r="8"/>
		</g>
	</g>
	<g>
		<g>
			<path class="st0" d="M227.069,111c-5.238,0-9.5,4.262-9.5,9.5c0,5.238,4.262,9.5,9.5,9.5c5.238,0,9.5-4.262,9.5-9.5
				C236.569,115.262,232.308,111,227.069,111z M227.069,127c-3.584,0-6.5-2.916-6.5-6.5s2.916-6.5,6.5-6.5
				c3.584,0,6.5,2.916,6.5,6.5S230.653,127,227.069,127z"/>
		</g>
	</g>
</g>
</svg>
