<?xml version="1.0" encoding="utf-8"?>
<!-- Generator: Adobe Illustrator 22.0.1, SVG Export Plug-In . SVG Version: 6.00 Build 0)  -->
<svg version="1.1" id="Layer_1" xmlns="http://www.w3.org/2000/svg" xmlns:xlink="http://www.w3.org/1999/xlink" x="0px" y="0px"
	 viewBox="0 0 256 256" style="enable-background:new 0 0 256 256;" xml:space="preserve">
<style type="text/css">
	.st0{fill:#3A312A;}
	.st1{fill:#F16C7A;}
	.st2{fill:#D7E057;}
	.st3{fill:#F8E4C8;}
	.st4{fill:#89C4DB;}
	.st5{fill-rule:evenodd;clip-rule:evenodd;fill:#F8E4C8;}
	.st6{fill:#87796F;}
	.st7{fill:#D4DB56;}
	.st8{fill:#F59689;}
	.st9{fill:#6CA6BE;}
	.st10{fill:#695B51;}
	.st11{fill:#F7E3C7;}
	.st12{fill:#8AC6DD;}
	.st13{fill:#6CA8BF;}
	.st14{fill:#D6DF58;}
	.st15{fill:#FAE6CA;}
	.st16{fill:#EF6D7A;}
	.st17{fill:#DDC9AC;}
	.st18{fill:#D24E5C;}
	.st19{fill:#6A5C52;}
	.st20{fill:#B9C239;}
	.st21{fill:#FCE8CB;}
	.st22{fill:#DECAAD;}
	.st23{fill:#D5DE58;}
	.st24{fill:#8AC5DC;}
	.st25{fill:#D34E5C;}
	.st26{fill:#ED6E7A;}
	.st27{fill:#B8C136;}
</style>
<g>
	<g>
		<g>
			<path class="st6" d="M222.239,16.135H33.45c-9.447,0-17.106,7.658-17.106,17.106V163.53c0,9.447,7.658,17.105,17.106,17.105
				h188.789c9.447,0,17.106-7.658,17.106-17.105V33.241C239.345,23.794,231.687,16.135,222.239,16.135z"/>
		</g>
	</g>
	<g>
		<g>
			<path class="st0" d="M222.239,14.635H33.45c-10.259,0-18.605,8.346-18.605,18.605V163.53c0,10.259,8.346,18.605,18.605,18.605
				h188.789c10.259,0,18.605-8.346,18.605-18.605V33.241C240.845,22.981,232.498,14.635,222.239,14.635z M237.845,163.53
				c0,8.605-7.001,15.605-15.605,15.605H33.45c-8.605,0-15.605-7-15.605-15.605V33.241c0-8.605,7-15.605,15.605-15.605h188.789
				c8.605,0,15.605,7,15.605,15.605V163.53z"/>
		</g>
	</g>
	<g>
		<g>
			<path class="st14" d="M214.815,28.64H40.875c-6.58,0-11.92,5.33-11.92,11.92v115.66c0,6.58,5.34,11.92,11.92,11.92h173.94
				c6.58,0,11.92-5.34,11.92-11.92V40.56C226.735,33.97,221.395,28.64,214.815,28.64z"/>
		</g>
	</g>
	<g>
		<g>
			<path class="st0" d="M214.815,27.14H40.875c-7.4,0-13.42,6.02-13.42,13.42v29.896c0,0.829,0.671,1.5,1.5,1.5
				c0.829,0,1.5-0.671,1.5-1.5V40.56c0-5.746,4.674-10.42,10.42-10.42h173.94c5.746,0,10.42,4.674,10.42,10.42v115.66
				c0,5.746-4.674,10.42-10.42,10.42H40.875c-5.746,0-10.42-4.674-10.42-10.42V83.543c0-0.829-0.671-1.5-1.5-1.5
				c-0.829,0-1.5,0.671-1.5,1.5v72.677c0,7.4,6.02,13.42,13.42,13.42h173.94c7.4,0,13.42-6.02,13.42-13.42V40.56
				C228.235,33.16,222.215,27.14,214.815,27.14z"/>
		</g>
	</g>
	<g>
		<g>
			<path class="st27" d="M214.815,30.135h-15c5.74,0,10.42,4.67,10.42,10.42v115.66c0,5.75-4.68,10.42-10.42,10.42h15
				c5.74,0,10.42-4.67,10.42-10.42V40.555C225.235,34.805,220.555,30.135,214.815,30.135z"/>
		</g>
	</g>
	<g>
		<g>
			<rect x="116.499" y="116.834" class="st6" width="19.638" height="26.537"/>
		</g>
	</g>
	<g>
		<g>
			<path class="st0" d="M136.137,115.334h-19.638c-0.829,0-1.5,0.671-1.5,1.5v26.537c0,0.829,0.671,1.5,1.5,1.5h19.638
				c0.829,0,1.5-0.671,1.5-1.5v-26.537C137.637,116.006,136.966,115.334,136.137,115.334z M134.637,141.872h-16.638v-23.537h16.638
				V141.872z"/>
		</g>
	</g>
	<g>
		<g>
			<rect x="147.953" y="103.91" class="st1" width="19.638" height="39.462"/>
		</g>
	</g>
	<g>
		<g>
			<path class="st0" d="M167.591,102.41h-19.638c-0.829,0-1.5,0.671-1.5,1.5v39.462c0,0.829,0.671,1.5,1.5,1.5h19.638
				c0.829,0,1.5-0.671,1.5-1.5V103.91C169.091,103.081,168.419,102.41,167.591,102.41z M166.091,141.872h-16.638V105.41h16.638
				V141.872z"/>
		</g>
	</g>
	<g>
		<g>
			<rect x="179.407" y="90.985" class="st6" width="19.638" height="52.386"/>
		</g>
	</g>
	<g>
		<g>
			<path class="st0" d="M199.045,89.485h-19.638c-0.829,0-1.5,0.671-1.5,1.5v52.387c0,0.829,0.671,1.5,1.5,1.5h19.638
				c0.829,0,1.5-0.671,1.5-1.5V90.985C200.545,90.156,199.873,89.485,199.045,89.485z M197.545,141.872h-16.638V92.485h16.638
				V141.872z"/>
		</g>
	</g>
	<g>
		<g>
			<path class="st12" d="M196.633,60.461l-18.46-5.996c-1.75-0.569-3.628,0.389-4.197,2.139c-0.568,1.749,0.39,3.628,2.139,4.196
				l10.778,3.501l-99.975,51.194c-1.637,0.838-2.284,2.845-1.446,4.482c0.589,1.151,1.756,1.813,2.967,1.813
				c0.511,0,1.03-0.118,1.516-0.367l100.009-51.212L186.44,81.06c-0.568,1.749,0.39,3.628,2.139,4.196
				c0.342,0.111,0.689,0.164,1.03,0.164c1.404,0,2.71-0.895,3.167-2.303l5.996-18.46C199.34,62.908,198.382,61.029,196.633,60.461z"
				/>
		</g>
	</g>
	<g>
		<g>
			<path class="st0" d="M197.097,59.034l-18.459-5.996c-1.227-0.4-2.537-0.296-3.687,0.29c-1.149,0.586-2.001,1.584-2.401,2.812
				c-0.822,2.533,0.569,5.263,3.102,6.086l7.344,2.385l-96.76,49.548c-1.148,0.588-1.999,1.588-2.396,2.816
				c-0.396,1.228-0.291,2.537,0.297,3.685c0.831,1.622,2.479,2.629,4.302,2.629c0.759,0,1.52-0.184,2.199-0.532l96.777-49.557
				l-2.402,7.395c-0.822,2.533,0.569,5.263,3.102,6.085c0.485,0.158,0.987,0.238,1.494,0.238c2.099,0,3.945-1.343,4.593-3.339
				l5.996-18.46C201.021,62.587,199.629,59.857,197.097,59.034z M197.345,64.194l-5.996,18.46c-0.305,0.939-1.351,1.487-2.307,1.175
				c-0.959-0.312-1.487-1.347-1.175-2.306l3.524-10.848c0.188-0.578,0.008-1.211-0.454-1.605c-0.462-0.394-1.117-0.471-1.657-0.193
				L89.272,120.088c-0.889,0.454-2.018,0.078-2.464-0.795c-0.223-0.435-0.263-0.931-0.113-1.396c0.15-0.465,0.473-0.844,0.908-1.067
				l99.975-51.194c0.54-0.276,0.86-0.85,0.812-1.454c-0.048-0.604-0.455-1.12-1.032-1.308l-10.779-3.501
				c-0.96-0.312-1.487-1.346-1.176-2.306c0.151-0.466,0.475-0.844,0.911-1.066c0.261-0.133,0.543-0.2,0.828-0.2
				c0.19,0,0.382,0.03,0.568,0.091l18.46,5.996C197.129,62.2,197.657,63.234,197.345,64.194z"/>
		</g>
	</g>
	<g>
		<g>
			<rect x="113.532" y="180.635" class="st6" width="28.625" height="35.593"/>
		</g>
	</g>
	<g>
		<g>
			<path class="st0" d="M142.157,179.135h-28.625c-0.829,0-1.5,0.671-1.5,1.5v35.593c0,0.829,0.671,1.5,1.5,1.5h28.625
				c0.829,0,1.5-0.671,1.5-1.5v-35.593C143.657,179.807,142.986,179.135,142.157,179.135z M140.657,214.729h-25.625v-32.593h25.625
				V214.729z"/>
		</g>
	</g>
	<g>
		<g>
			<path class="st6" d="M148.141,216.229h-40.593c-12.927,0-23.407,10.479-23.407,23.406h87.406
				C171.548,226.708,161.068,216.229,148.141,216.229z"/>
		</g>
	</g>
	<g>
		<g>
			<path class="st0" d="M148.141,214.729h-40.593c-13.733,0-24.907,11.173-24.907,24.907c0,0.829,0.671,1.5,1.5,1.5h37.584
				c0.829,0,1.5-0.671,1.5-1.5s-0.671-1.5-1.5-1.5H85.692c0.773-11.382,10.281-20.407,21.856-20.407h40.593
				c11.575,0,21.082,9.024,21.856,20.407h-34.701c-0.829,0-1.5,0.671-1.5,1.5s0.671,1.5,1.5,1.5h36.252c0.829,0,1.5-0.671,1.5-1.5
				C173.048,225.902,161.875,214.729,148.141,214.729z"/>
		</g>
	</g>
	<g>
		<g>
			<path class="st14" d="M47.516,203.469c-0.974,11.564-13.024,13.39-13.024,13.39c10.346,0.487,12.925,14.059,12.925,14.059
				c0.221-9.677,13.321-14.202,13.321-14.202C50.924,216.129,47.516,203.469,47.516,203.469z"/>
		</g>
	</g>
	<g>
		<g>
			<path class="st0" d="M60.827,215.218c-8.604-0.514-11.831-12.024-11.863-12.141c-0.191-0.703-0.861-1.166-1.583-1.102
				c-0.725,0.066-1.298,0.642-1.359,1.367c-0.86,10.215-11.314,11.964-11.754,12.033c-0.763,0.115-1.313,0.79-1.273,1.561
				c0.04,0.77,0.657,1.384,1.427,1.421c9.028,0.425,11.499,12.718,11.523,12.842c0.137,0.711,0.759,1.217,1.472,1.217
				c0.042,0,0.084-0.001,0.127-0.005c0.764-0.064,1.356-0.693,1.374-1.459c0.194-8.508,12.191-12.777,12.313-12.819
				c0.675-0.235,1.092-0.915,0.994-1.623C62.125,215.802,61.541,215.261,60.827,215.218z M47.262,225.564
				c-1.357-3.13-3.709-6.907-7.587-8.876c2.931-1.405,6.409-3.913,8.202-8.273c1.551,3.071,4.2,6.88,8.334,8.722
				C53.203,218.777,49.288,221.542,47.262,225.564z"/>
		</g>
	</g>
	<g>
		<g>
			<path class="st14" d="M25.817,220.45c-0.689,8.179-9.212,9.471-9.212,9.471c7.318,0.344,9.142,9.944,9.142,9.944
				c0.156-6.845,9.422-10.045,9.422-10.045C28.228,229.404,25.817,220.45,25.817,220.45z"/>
		</g>
	</g>
	<g>
		<g>
			<path class="st0" d="M35.259,228.322c-5.767-0.345-7.973-8.186-7.994-8.265c-0.19-0.702-0.856-1.168-1.582-1.102
				c-0.726,0.065-1.299,0.642-1.36,1.368c-0.579,6.871-7.646,8.067-7.942,8.114c-0.763,0.115-1.313,0.79-1.273,1.561
				c0.04,0.77,0.657,1.384,1.427,1.421c6.036,0.284,7.724,8.644,7.739,8.726c0.135,0.713,0.759,1.22,1.472,1.22
				c0.042,0,0.083-0.001,0.125-0.005c0.765-0.063,1.358-0.694,1.376-1.461c0.13-5.709,8.331-8.634,8.413-8.662
				c0.676-0.234,1.094-0.913,0.996-1.622C36.558,228.906,35.974,228.365,35.259,228.322z M25.674,235.117
				c-0.924-1.885-2.34-3.947-4.447-5.28c1.855-1.041,3.697-2.63,4.871-4.916c1.057,1.874,2.655,3.954,4.941,5.224
				C29.19,231.245,27.05,232.884,25.674,235.117z"/>
		</g>
	</g>
	<g>
		<g>
			<path class="st14" d="M25.817,193.792c-0.689,8.179-9.212,9.471-9.212,9.471c7.318,0.344,9.142,9.944,9.142,9.944
				c0.156-6.845,9.422-10.045,9.422-10.045C28.228,202.747,25.817,193.792,25.817,193.792z"/>
		</g>
	</g>
	<g>
		<g>
			<path class="st0" d="M35.259,201.664c-5.766-0.345-7.972-8.185-7.994-8.264c-0.19-0.702-0.856-1.17-1.582-1.102
				c-0.726,0.065-1.299,0.642-1.36,1.368c-0.579,6.871-7.646,8.066-7.942,8.113c-0.763,0.115-1.313,0.79-1.273,1.561
				c0.04,0.77,0.657,1.384,1.427,1.421c6.036,0.284,7.723,8.645,7.739,8.726c0.135,0.713,0.759,1.22,1.472,1.22
				c0.042,0,0.083-0.001,0.125-0.005c0.765-0.063,1.358-0.694,1.376-1.461c0.13-5.709,8.332-8.634,8.413-8.662
				c0.677-0.234,1.094-0.913,0.996-1.622C36.558,202.249,35.974,201.707,35.259,201.664z M25.674,208.459
				c-0.924-1.886-2.34-3.947-4.447-5.28c1.856-1.041,3.697-2.63,4.871-4.917c1.057,1.874,2.654,3.955,4.941,5.224
				C29.19,204.588,27.05,206.227,25.674,208.459z"/>
		</g>
	</g>
	<g>
		<g>
			<path class="st3" d="M104.474,134.62H92.857v-7.55c-3.213,2.228-6.538,3.542-9.764,3.542c-3.095,0-6.36-1.327-9.56-3.582h-0.197
				v7.59H61.712c-9.711,0-17.583,7.872-17.583,17.583v15.934h77.929v-15.934C122.058,142.492,114.186,134.62,104.474,134.62z"/>
		</g>
	</g>
	<g>
		<g>
			<path class="st0" d="M104.474,133.12H94.357v-6.05c0-0.558-0.31-1.07-0.804-1.329c-0.494-0.257-1.091-0.222-1.55,0.096
				c-3.135,2.173-6.132,3.275-8.91,3.275c-2.654,0-5.58-1.113-8.697-3.308c-0.253-0.178-0.555-0.273-0.864-0.273h-0.197
				c-0.829,0-1.5,0.671-1.5,1.5v6.089H61.712c-10.522,0-19.083,8.561-19.083,19.083v15.934c0,0.829,0.671,1.5,1.5,1.5h77.929
				c0.829,0,1.5-0.671,1.5-1.5v-15.934C123.558,141.681,114.997,133.12,104.474,133.12z M120.558,166.637H45.628v-14.434
				c0-8.869,7.215-16.083,16.083-16.083h11.624c0.829,0,1.5-0.671,1.5-1.5v-4.978c2.861,1.64,5.63,2.47,8.257,2.47
				c2.664,0,5.435-0.787,8.264-2.344v4.852c0,0.829,0.671,1.5,1.5,1.5h11.617c8.869,0,16.083,7.215,16.083,16.083V166.637z"/>
		</g>
	</g>
	<g>
		<g>
			<path class="st4" d="M104.474,134.613h-2.779l0.071,0.056L89.683,150.69l-6.236-4.695l-6.236,4.695l-12.083-16.021l0.071-0.056
				h-3.486c-9.715,0-17.584,7.876-17.584,17.584v15.944h77.929v-15.944C122.058,142.489,114.189,134.613,104.474,134.613z"/>
		</g>
	</g>
	<g>
		<g>
			<path class="st0" d="M104.474,133.112h-2.779c-0.606,0-1.117,0.39-1.347,0.946l-10.96,14.533l-5.039-3.793
				c-0.534-0.402-1.271-0.402-1.805,0l-5.039,3.793l-10.873-14.417c-0.006-0.02-0.012-0.039-0.019-0.058
				c-0.211-0.601-0.778-1.003-1.416-1.003h-3.486c-10.522,0-19.083,8.561-19.083,19.084v15.944c0,0.829,0.671,1.5,1.5,1.5h77.929
				c0.829,0,1.5-0.671,1.5-1.5v-15.944C123.558,141.673,114.997,133.112,104.474,133.112z M120.558,166.64H45.629v-14.444
				c0-8.869,7.215-16.084,16.083-16.084h2.625l11.676,15.481c0.499,0.661,1.438,0.792,2.1,0.295l5.333-4.016l5.334,4.016
				c0.661,0.498,1.601,0.366,2.1-0.295l11.675-15.481h1.918c8.869,0,16.084,7.215,16.084,16.084V166.64z"/>
		</g>
	</g>
	<g>
		<g>
			<circle class="st5" cx="52.9" cy="91.032" r="6.919"/>
		</g>
	</g>
	<g>
		<g>
			<path class="st0" d="M52.9,82.613c-4.642,0-8.418,3.776-8.418,8.418s3.776,8.419,8.418,8.419c4.642,0,8.419-3.777,8.419-8.419
				S57.543,82.613,52.9,82.613z M52.9,96.451c-2.988,0-5.418-2.431-5.418-5.419s2.431-5.418,5.418-5.418
				c2.988,0,5.419,2.431,5.419,5.418S55.888,96.451,52.9,96.451z"/>
		</g>
	</g>
	<g>
		<g>
			
				<ellipse transform="matrix(0.3827 -0.9239 0.9239 0.3827 -14.1677 160.86)" class="st5" cx="113.288" cy="91.032" rx="6.919" ry="6.919"/>
		</g>
	</g>
	<g>
		<g>
			<path class="st0" d="M113.288,82.613c-4.642,0-8.418,3.776-8.418,8.418s3.776,8.419,8.418,8.419s8.418-3.777,8.418-8.419
				S117.93,82.613,113.288,82.613z M113.288,96.451c-2.988,0-5.418-2.431-5.418-5.419s2.431-5.418,5.418-5.418
				s5.418,2.431,5.418,5.418S116.276,96.451,113.288,96.451z"/>
		</g>
	</g>
	<g>
		<g>
			<path class="st6" d="M115.192,71.393c0-11.631-6.844-21.734-16.891-26.832c0.396,2.63,0.608,5.409,0.608,8.286
				c0,0.389-0.007,0.771-0.014,1.16c-0.085,4.221,1.789,8.194,4.907,11.051c5.55,5.076,9.22,12.168,9.863,20.115
				c0.078-0.113,0.262-0.17,0.403-0.219C115.376,84.473,115.192,72.447,115.192,71.393z"/>
		</g>
	</g>
	<g>
		<g>
			<path class="st0" d="M116.694,71.758l-0.002-0.365c0-11.832-6.787-22.626-17.712-28.17c-0.5-0.253-1.102-0.208-1.557,0.122
				c-0.456,0.329-0.689,0.884-0.605,1.439c0.393,2.608,0.592,5.321,0.592,8.063c0,0.35-0.006,0.694-0.014,1.129
				c-0.091,4.522,1.875,8.964,5.394,12.188c5.454,4.989,8.785,11.782,9.38,19.129c0.051,0.632,0.495,1.164,1.107,1.328
				c0.128,0.034,0.259,0.051,0.388,0.051c0.329,0,0.649-0.108,0.91-0.307c0.004-0.001,0.008-0.003,0.011-0.004
				C115.72,85.945,116.792,85.551,116.694,71.758z M113.646,77.57c-1.708-5.175-4.724-9.861-8.832-13.618
				c-2.883-2.641-4.494-6.255-4.418-10.009c0.006-0.367,0.013-0.728,0.013-1.096c0-1.856-0.087-3.701-0.258-5.513
				c8.42,5.321,13.541,14.304,13.541,24.059l0.002,0.387C113.711,74.131,113.69,76.032,113.646,77.57z"/>
		</g>
	</g>
	<g>
		<g>
			<path class="st0" d="M58.726,154.045c-0.829,0-1.5,0.671-1.5,1.5v12.594c0,0.829,0.671,1.5,1.5,1.5c0.829,0,1.5-0.671,1.5-1.5
				v-12.594C60.226,154.716,59.554,154.045,58.726,154.045z"/>
		</g>
	</g>
	<g>
		<g>
			<path class="st0" d="M108.17,154.045c-0.829,0-1.5,0.671-1.5,1.5v12.594c0,0.829,0.671,1.5,1.5,1.5s1.5-0.671,1.5-1.5v-12.594
				C109.67,154.716,108.999,154.045,108.17,154.045z"/>
		</g>
	</g>
	<g>
		<g>
			<polygon class="st7" points="86.431,156.361 80.442,156.361 78.625,168.14 88.248,168.14 			"/>
		</g>
	</g>
	<g>
		<g>
			<path class="st0" d="M89.73,167.912l-1.817-11.779c-0.113-0.731-0.742-1.271-1.482-1.271h-5.989c-0.74,0-1.37,0.54-1.482,1.271
				l-1.817,11.779c-0.067,0.433,0.059,0.873,0.344,1.205c0.285,0.332,0.701,0.523,1.139,0.523h9.623
				c0.438,0,0.854-0.191,1.139-0.523C89.671,168.784,89.797,168.344,89.73,167.912z M80.374,166.64l1.354-8.779h3.417l1.354,8.779
				H80.374z"/>
		</g>
	</g>
	<g>
		<g>
			<polygon class="st7" points="78.422,145.986 80.447,156.358 86.423,156.358 88.496,145.986 			"/>
		</g>
	</g>
	<g>
		<g>
			<path class="st0" d="M89.656,145.035c-0.285-0.347-0.711-0.549-1.16-0.549H78.422c-0.448,0-0.873,0.2-1.158,0.546
				c-0.285,0.346-0.4,0.801-0.314,1.241l2.024,10.372c0.137,0.704,0.754,1.212,1.472,1.212h5.977c0.715,0,1.331-0.505,1.471-1.206
				l2.072-10.372C90.055,145.839,89.94,145.383,89.656,145.035z M85.193,154.858h-3.511l-1.438-7.372h6.422L85.193,154.858z"/>
		</g>
	</g>
	<g>
		<g>
			
				<rect x="70.383" y="130.284" transform="matrix(0.7986 -0.6019 0.6019 0.7986 -69.4874 72.9786)" class="st6" width="7.841" height="20.071"/>
		</g>
	</g>
	<g>
		<g>
			<path class="st0" d="M84.671,145.071l-12.08-16.028c-0.499-0.662-1.438-0.794-2.101-0.295l-6.262,4.719
				c-0.318,0.239-0.527,0.595-0.582,0.989c-0.055,0.394,0.048,0.793,0.288,1.111l12.08,16.029c0.239,0.318,0.595,0.527,0.989,0.583
				c0.069,0.01,0.139,0.015,0.208,0.015c0.324,0,0.641-0.105,0.903-0.302l6.262-4.719C85.038,146.673,85.17,145.733,84.671,145.071z
				 M77.507,148.593L67.233,134.96l3.866-2.914l10.274,13.633L77.507,148.593z"/>
		</g>
	</g>
	<g>
		<g>
			
				<rect x="82.558" y="136.399" transform="matrix(0.6019 -0.7986 0.7986 0.6019 -75.1941 129.8127)" class="st6" width="20.071" height="7.841"/>
		</g>
	</g>
	<g>
		<g>
			<path class="st0" d="M103.25,134.456c-0.055-0.394-0.265-0.75-0.583-0.989l-6.262-4.719c-0.662-0.5-1.603-0.367-2.101,0.295
				l-12.08,16.028c-0.498,0.662-0.367,1.602,0.295,2.101l6.262,4.719c0.262,0.197,0.579,0.302,0.903,0.302
				c0.069,0,0.139-0.005,0.208-0.015c0.394-0.055,0.75-0.265,0.989-0.583l12.08-16.029
				C103.202,135.25,103.305,134.85,103.25,134.456z M89.39,148.593l-3.866-2.914l10.274-13.633l3.866,2.914L89.39,148.593z"/>
		</g>
	</g>
	<g>
		<g>
			<path class="st3" d="M103.799,65.056c-3.115-2.852-4.989-6.829-4.905-11.051c0.008-0.384,0.011-0.77,0.011-1.157
				c0-2.877-0.212-5.656-0.608-8.286c-4.433-2.248-9.488-3.521-14.848-3.521c-5.232,0-10.167,1.209-14.515,3.351
				c-0.417,2.679-0.636,5.515-0.636,8.456c0,0.052,0,0.103,0,0.155c0.012,4.432-1.932,8.59-5.282,11.492
				c-6.488,5.622-10.593,13.919-10.593,23.179c0,16.939,16.967,42.939,30.671,42.939c14.357,0,30.671-26,30.671-42.939
				C113.765,78.717,109.923,70.661,103.799,65.056z"/>
		</g>
	</g>
	<g>
		<g>
			<path class="st0" d="M104.812,63.949c-2.88-2.637-4.491-6.25-4.418-9.914c0.008-0.394,0.012-0.79,0.012-1.188
				c0-2.894-0.21-5.757-0.625-8.51c-0.072-0.48-0.372-0.895-0.805-1.115c-4.751-2.409-10.12-3.683-15.526-3.683
				c-5.35,0-10.457,1.179-15.179,3.505c-0.438,0.216-0.744,0.632-0.819,1.115c-0.434,2.789-0.654,5.711-0.654,8.687v0.158
				c0.011,3.948-1.726,7.722-4.764,10.355c-7.061,6.119-11.111,14.98-11.111,24.313c0,8.348,4.009,19.335,10.462,28.674
				c6.923,10.019,14.835,15.765,21.708,15.765c15.225,0,32.171-26.489,32.171-44.439C115.265,78.677,111.455,70.03,104.812,63.949z
				 M83.094,129.113c-12.875,0-29.171-25.693-29.171-41.439c0-8.461,3.672-16.497,10.076-22.045
				c3.699-3.206,5.813-7.809,5.799-12.626v-0.154c0-2.545,0.169-5.046,0.503-7.447c4.108-1.898,8.527-2.86,13.148-2.86
				c4.675,0,9.316,1.042,13.475,3.017c0.319,2.368,0.481,4.816,0.481,7.29c0,0.377-0.004,0.752-0.011,1.127
				c-0.09,4.526,1.875,8.969,5.392,12.188c6.024,5.514,9.479,13.354,9.479,21.511c0,7.869-3.713,18.206-9.691,26.977
				C96.402,123.706,89.12,129.113,83.094,129.113z"/>
		</g>
	</g>
	<g>
		<g>
			<circle class="st0" cx="72.266" cy="87.327" r="2.994"/>
		</g>
	</g>
	<g>
		<g>
			<path class="st0" d="M93.923,84.333c-1.653,0-2.994,1.34-2.994,2.994s1.34,2.994,2.994,2.994c1.653,0,2.994-1.34,2.994-2.994
				S95.576,84.333,93.923,84.333z"/>
		</g>
	</g>
	<g>
		<g>
			<path class="st8" d="M66.282,92.372c-2.848,0-5.157,1.726-5.157,3.855c0,2.129,2.309,3.855,5.157,3.855
				c2.848,0,5.157-1.726,5.157-3.855C71.44,94.098,69.131,92.372,66.282,92.372z"/>
		</g>
	</g>
	<g>
		<g>
			<path class="st8" d="M99.906,92.372c-2.848,0-5.157,1.726-5.157,3.855c0,2.129,2.309,3.855,5.157,3.855
				c2.848,0,5.157-1.726,5.157-3.855C105.063,94.098,102.754,92.372,99.906,92.372z"/>
		</g>
	</g>
	<g>
		<g>
			<path class="st0" d="M92.094,105.872c-0.777-0.291-1.64,0.103-1.931,0.879c-0.647,1.729-3.064,4.301-7.07,4.301
				c-3.423,0-5.685-1.404-7.12-4.419c-0.355-0.748-1.251-1.065-1.999-0.71c-0.748,0.356-1.066,1.251-0.71,1.999
				c1.936,4.068,5.243,6.13,9.829,6.13c5.18,0,8.752-3.239,9.879-6.249C93.263,107.027,92.87,106.163,92.094,105.872z"/>
		</g>
	</g>
	<g>
		<g>
			<path class="st0" d="M69.706,74.672c-6.895,0-12.505,5.61-12.505,12.505c0,6.895,5.61,12.505,12.505,12.505
				c6.896,0,12.505-5.61,12.505-12.505C82.211,80.282,76.601,74.672,69.706,74.672z M69.706,96.683
				c-5.241,0-9.505-4.264-9.505-9.505s4.264-9.505,9.505-9.505s9.505,4.264,9.505,9.505S74.947,96.683,69.706,96.683z"/>
		</g>
	</g>
	<g>
		<g>
			<path class="st0" d="M97.188,74.672c-6.895,0-12.505,5.61-12.505,12.505c0,6.895,5.61,12.505,12.505,12.505
				c6.895,0,12.505-5.61,12.505-12.505C109.693,80.282,104.083,74.672,97.188,74.672z M97.188,96.683
				c-5.241,0-9.505-4.264-9.505-9.505s4.264-9.505,9.505-9.505c5.241,0,9.505,4.264,9.505,9.505S102.429,96.683,97.188,96.683z"/>
		</g>
	</g>
	<g>
		<g>
			<path class="st0" d="M86.183,85.655h-5.472c-0.829,0-1.5,0.671-1.5,1.5s0.671,1.5,1.5,1.5h5.472c0.829,0,1.5-0.671,1.5-1.5
				S87.012,85.655,86.183,85.655z"/>
		</g>
	</g>
	<g>
		<g>
			<path class="st0" d="M59.144,83.214l-6.353-0.64c-0.826-0.083-1.56,0.517-1.643,1.342c-0.083,0.824,0.518,1.56,1.342,1.643
				l6.353,0.64c0.051,0.005,0.102,0.008,0.152,0.008c0.761,0,1.413-0.576,1.49-1.35C60.569,84.033,59.968,83.297,59.144,83.214z"/>
		</g>
	</g>
	<g>
		<g>
			<path class="st0" d="M115.045,83.857c-0.098-0.823-0.849-1.412-1.667-1.312l-5.648,0.672c-0.823,0.098-1.41,0.844-1.312,1.667
				c0.09,0.763,0.738,1.323,1.487,1.323c0.059,0,0.119-0.003,0.179-0.011l5.648-0.672C114.556,85.426,115.144,84.68,115.045,83.857z
				"/>
		</g>
	</g>
	<g>
		<g>
			<path class="st6" d="M85.997,38.059c-10.374-0.648-19.551,4.149-24.039,8.484C55.184,52.108,51.7,62.185,51.7,71.393
				c0,1.683,0.297,11.256,0.834,13.625c0.087-1.022,0.347-2.141,0.737-3.316c3.538-10.678,14.257-17.348,25.434-16.074
				c1.554,0.177,3.165,0.27,4.816,0.27c12.886,0,23.332-5.666,23.332-12.655S97.309,38.766,85.997,38.059z"/>
		</g>
	</g>
	<g>
		<g>
			<path class="st0" d="M86.09,36.562c-10.323-0.646-20.05,3.979-25.131,8.861C54.321,50.906,50.2,60.85,50.2,71.393
				c0,1.22,0.268,11.294,0.872,13.956c0.156,0.688,0.767,1.168,1.462,1.168c0.035,0,0.069-0.001,0.104-0.003
				c0.738-0.051,1.329-0.632,1.392-1.369c0.073-0.859,0.298-1.859,0.667-2.973c3.288-9.923,13.309-16.257,23.84-15.056
				c1.627,0.186,3.304,0.28,4.986,0.28c13.924,0,24.832-6.217,24.832-14.155C108.354,45.098,97.95,37.303,86.09,36.562z
				 M83.522,64.397c-1.569,0-3.132-0.087-4.647-0.26C68.298,62.93,58.163,68.447,53.4,77.565c-0.128-2.686-0.2-5.27-0.2-6.172
				c0-9.546,3.811-18.845,9.71-23.69c0.031-0.026,0.061-0.052,0.09-0.081c4.306-4.159,12.356-8.121,21.119-8.121
				c0.591,0,1.188,0.018,1.785,0.055h0c8.995,0.562,19.451,6.663,19.451,13.686C105.354,59.289,95.356,64.397,83.522,64.397z"/>
		</g>
	</g>
</g>
</svg>
