<?xml version="1.0" encoding="utf-8"?>
<!-- Generator: Adobe Illustrator 22.0.1, SVG Export Plug-In . SVG Version: 6.00 Build 0)  -->
<svg version="1.1" id="Layer_1" xmlns="http://www.w3.org/2000/svg" xmlns:xlink="http://www.w3.org/1999/xlink" x="0px" y="0px"
	 viewBox="0 0 256 256" style="enable-background:new 0 0 256 256;" xml:space="preserve">
<style type="text/css">
	.st0{fill:#3A312A;}
	.st1{fill:#F16C7A;}
	.st2{fill:#D7E057;}
	.st3{fill:#F8E4C8;}
	.st4{fill:#89C4DB;}
	.st5{fill-rule:evenodd;clip-rule:evenodd;fill:#F8E4C8;}
	.st6{fill:#87796F;}
	.st7{fill:#D4DB56;}
	.st8{fill:#F59689;}
	.st9{fill:#6CA6BE;}
	.st10{fill:#695B51;}
	.st11{fill:#F7E3C7;}
	.st12{fill:#8AC6DD;}
	.st13{fill:#6CA8BF;}
	.st14{fill:#D6DF58;}
	.st15{fill:#FAE6CA;}
	.st16{fill:#EF6D7A;}
	.st17{fill:#DDC9AC;}
	.st18{fill:#D24E5C;}
	.st19{fill:#6A5C52;}
	.st20{fill:#B9C239;}
	.st21{fill:#FCE8CB;}
	.st22{fill:#DECAAD;}
	.st23{fill:#D5DE58;}
	.st24{fill:#8AC5DC;}
	.st25{fill:#D34E5C;}
	.st26{fill:#ED6E7A;}
	.st27{fill:#B8C136;}
</style>
<g>
	<g>
		<g>
			<path class="st12" d="M186.973,56.879c-1.196,0-2.378,0.058-3.553,0.142c-6.403-22.847-27.49-39.618-52.534-39.618
				c-6.832,0-13.365,1.259-19.392,3.538l-10.924,5.601C85.963,36.261,76.345,52.8,76.345,71.573c0,0.412,0.022,0.818,0.031,1.227
				c-2.925-0.652-5.962-1.008-9.085-1.008C44.487,71.792,26,90.154,26,112.804s18.487,41.011,41.292,41.011
				c0.966,0,1.921-0.045,2.871-0.11v0.11h117.473v-0.017c26.645-0.354,48.137-21.904,48.137-48.451
				C235.772,78.579,213.924,56.879,186.973,56.879z"/>
		</g>
	</g>
	<g>
		<g>
			<path class="st0" d="M186.973,55.379c-0.774,0-1.572,0.022-2.45,0.069c-7.102-23.347-28.981-39.545-53.637-39.545
				c-6.841,0-13.544,1.223-19.923,3.634c-0.775,0.293-1.166,1.159-0.873,1.934c0.294,0.775,1.16,1.163,1.934,0.873
				c6.039-2.283,12.386-3.44,18.862-3.44c23.724,0,44.733,15.841,51.09,38.523c0.192,0.686,0.835,1.158,1.553,1.091
				c1.308-0.095,2.402-0.139,3.444-0.139c26.081,0,47.3,21.07,47.3,46.969c0,25.548-20.931,46.61-46.657,46.951
				c-0.068,0.001-0.136,0.007-0.202,0.017H70.727c-0.209-0.085-0.433-0.125-0.668-0.106c-1.057,0.072-1.936,0.106-2.767,0.106
				c-21.941,0-39.792-17.725-39.792-39.512s17.851-39.512,39.792-39.512c2.918,0,5.864,0.327,8.759,0.973
				c0.447,0.101,0.921-0.012,1.278-0.305c0.356-0.293,0.559-0.733,0.548-1.195l-0.015-0.46c-0.009-0.243-0.018-0.486-0.018-0.731
				c0-17.601,8.806-33.969,23.556-43.783c0.689-0.459,0.877-1.391,0.418-2.08c-0.46-0.692-1.393-0.877-2.08-0.418
				C84.321,35.552,75.049,52.59,74.848,70.965c-2.507-0.447-5.041-0.673-7.556-0.673c-23.596,0-42.792,19.07-42.792,42.512
				s19.196,42.512,42.792,42.512c0.743,0,1.516-0.024,2.396-0.077c0.148,0.05,0.309,0.077,0.475,0.077h117.473
				c0.083,0,0.164-0.007,0.244-0.021c27.256-0.482,49.394-22.842,49.394-49.947C237.272,77.795,214.708,55.379,186.973,55.379z"/>
		</g>
	</g>
	<g>
		<g>
			<path class="st2" d="M49.382,26.074C48.46,36.949,37.05,38.666,37.05,38.666c9.797,0.458,12.239,13.222,12.239,13.222
				c0.209-9.101,12.613-13.356,12.613-13.356C52.609,37.979,49.382,26.074,49.382,26.074z"/>
		</g>
	</g>
	<g>
		<g>
			<path class="st0" d="M61.99,37.034c-8.071-0.48-11.117-11.196-11.161-11.354c-0.19-0.702-0.862-1.157-1.582-1.101
				c-0.726,0.065-1.299,0.643-1.36,1.367c-0.808,9.534-10.646,11.171-11.061,11.235c-0.763,0.115-1.314,0.79-1.274,1.561
				s0.657,1.386,1.428,1.421c8.485,0.396,10.813,11.891,10.835,12.005c0.137,0.711,0.76,1.218,1.473,1.218
				c0.041,0,0.083-0.002,0.125-0.005c0.765-0.063,1.358-0.694,1.376-1.461c0.182-7.937,11.487-11.932,11.602-11.972
				c0.677-0.233,1.095-0.913,0.997-1.622S62.705,37.076,61.99,37.034z M49.146,46.664c-1.281-2.885-3.458-6.306-6.993-8.157
				c2.719-1.325,5.886-3.642,7.577-7.59c1.464,2.833,3.915,6.28,7.688,8.019C54.621,40.474,51.06,43.012,49.146,46.664z"/>
		</g>
	</g>
	<g>
		<g>
			<path class="st2" d="M28.836,42.043c-0.652,7.692-8.723,8.906-8.723,8.906c6.929,0.324,8.656,9.352,8.656,9.352
				c0.148-6.437,8.921-9.447,8.921-9.447C31.119,50.463,28.836,42.043,28.836,42.043z"/>
		</g>
	</g>
	<g>
		<g>
			<path class="st0" d="M37.78,49.356c-5.402-0.321-7.476-7.635-7.496-7.709c-0.192-0.7-0.849-1.163-1.582-1.099
				c-0.725,0.065-1.299,0.643-1.36,1.367c-0.541,6.389-7.175,7.506-7.452,7.55c-0.763,0.115-1.314,0.79-1.274,1.561
				s0.657,1.386,1.428,1.421c5.652,0.264,7.238,8.06,7.253,8.136c0.137,0.711,0.76,1.218,1.473,1.218
				c0.041,0,0.083-0.002,0.125-0.005c0.765-0.063,1.357-0.693,1.376-1.461c0.122-5.304,7.833-8.036,7.909-8.063
				c0.677-0.232,1.096-0.912,0.999-1.622S38.495,49.398,37.78,49.356z M28.709,55.67c-0.862-1.713-2.157-3.561-4.051-4.795
				c1.69-0.967,3.354-2.411,4.447-4.458c0.985,1.703,2.444,3.565,4.503,4.745C31.913,52.182,29.988,53.67,28.709,55.67z"/>
		</g>
	</g>
	<g>
		<g>
			<path class="st2" d="M28.836,16.973c-0.652,7.692-8.723,8.906-8.723,8.906c6.929,0.324,8.656,9.352,8.656,9.352
				c0.148-6.437,8.921-9.447,8.921-9.447C31.119,25.394,28.836,16.973,28.836,16.973z"/>
		</g>
	</g>
	<g>
		<g>
			<path class="st0" d="M37.78,24.287c-5.402-0.321-7.476-7.635-7.496-7.709c-0.192-0.7-0.849-1.16-1.582-1.099
				c-0.725,0.065-1.299,0.643-1.36,1.367c-0.541,6.389-7.175,7.506-7.452,7.55c-0.763,0.115-1.314,0.79-1.274,1.561
				s0.657,1.386,1.428,1.421c5.652,0.264,7.238,8.06,7.253,8.136c0.137,0.711,0.76,1.218,1.473,1.218
				c0.041,0,0.083-0.002,0.125-0.005c0.765-0.063,1.357-0.693,1.376-1.461c0.122-5.304,7.833-8.036,7.909-8.063
				c0.677-0.232,1.096-0.912,0.999-1.622S38.495,24.329,37.78,24.287z M28.709,30.601c-0.862-1.713-2.157-3.561-4.051-4.795
				c1.69-0.967,3.354-2.411,4.447-4.458c0.985,1.703,2.444,3.565,4.503,4.745C31.913,27.112,29.988,28.601,28.709,30.601z"/>
		</g>
	</g>
	<g>
		<g>
			<path class="st0" d="M130.886,203.717c-0.828,0-1.5,0.672-1.5,1.5v33.939c0,0.828,0.672,1.5,1.5,1.5s1.5-0.672,1.5-1.5v-33.939
				C132.386,204.389,131.714,203.717,130.886,203.717z"/>
		</g>
	</g>
	<g>
		<g>
			<path class="st0" d="M220.261,237.656H41.511c-0.828,0-1.5,0.672-1.5,1.5s0.672,1.5,1.5,1.5h178.75c0.828,0,1.5-0.672,1.5-1.5
				S221.089,237.656,220.261,237.656z"/>
		</g>
	</g>
	<g>
		<g>
			<rect x="51.136" y="134.656" class="st6" width="159.5" height="13"/>
		</g>
	</g>
	<g>
		<g>
			<path class="st0" d="M210.636,133.156h-159.5c-0.828,0-1.5,0.672-1.5,1.5v13c0,0.828,0.672,1.5,1.5,1.5h159.5
				c0.828,0,1.5-0.672,1.5-1.5v-13C212.136,133.828,211.464,133.156,210.636,133.156z M209.136,146.156h-156.5v-10h156.5V146.156z"
				/>
		</g>
	</g>
	<g>
		<g>
			<rect x="51.136" y="177.656" class="st6" width="159.5" height="13"/>
		</g>
	</g>
	<g>
		<g>
			<path class="st0" d="M210.636,176.156h-159.5c-0.828,0-1.5,0.672-1.5,1.5v13c0,0.828,0.672,1.5,1.5,1.5h159.5
				c0.828,0,1.5-0.672,1.5-1.5v-13C212.136,176.828,211.464,176.156,210.636,176.156z M209.136,189.156h-156.5v-10h156.5V189.156z"
				/>
		</g>
	</g>
	<g>
		<g>
			<path class="st21" d="M215.111,190.656H46.661c-3.945,0-7.143,3.198-7.143,7.143v15.714c0,3.945,3.198,7.143,7.143,7.143h105.501
				h12.782h50.167c3.945,0,7.143-3.198,7.143-7.143v-15.714C222.254,193.854,219.056,190.656,215.111,190.656z"/>
		</g>
	</g>
	<g>
		<g>
			<path class="st0" d="M215.111,189.156H46.661c-4.766,0-8.644,3.878-8.644,8.644v15.714c0,4.766,3.878,8.643,8.644,8.643h105.501
				c0.828,0,1.5-0.672,1.5-1.5s-0.672-1.5-1.5-1.5H46.661c-3.112,0-5.644-2.531-5.644-5.643V197.8c0-3.112,2.531-5.644,5.644-5.644
				h168.45c3.111,0,5.643,2.531,5.643,5.644v15.714c0,3.111-2.531,5.643-5.643,5.643h-50.167c-0.828,0-1.5,0.672-1.5,1.5
				s0.672,1.5,1.5,1.5h50.167c4.766,0,8.643-3.877,8.643-8.643V197.8C223.754,193.034,219.877,189.156,215.111,189.156z"/>
		</g>
	</g>
	<g>
		<g>
			<circle class="st12" cx="203.886" cy="205.656" r="6.5"/>
		</g>
	</g>
	<g>
		<g>
			<path class="st0" d="M203.886,197.656c-4.411,0-8,3.589-8,8s3.589,8,8,8s8-3.589,8-8S208.297,197.656,203.886,197.656z
				 M203.886,210.656c-2.757,0-5-2.243-5-5s2.243-5,5-5s5,2.243,5,5S206.643,210.656,203.886,210.656z"/>
		</g>
	</g>
	<g>
		<g>
			<circle class="st2" cx="180.886" cy="205.656" r="6.5"/>
		</g>
	</g>
	<g>
		<g>
			<path class="st0" d="M180.886,197.656c-4.411,0-8,3.589-8,8s3.589,8,8,8s8-3.589,8-8S185.297,197.656,180.886,197.656z
				 M180.886,210.656c-2.757,0-5-2.243-5-5s2.243-5,5-5s5,2.243,5,5S183.643,210.656,180.886,210.656z"/>
		</g>
	</g>
	<g>
		<g>
			<circle class="st16" cx="157.886" cy="205.656" r="6.5"/>
		</g>
	</g>
	<g>
		<g>
			<path class="st0" d="M157.886,197.656c-4.411,0-8,3.589-8,8s3.589,8,8,8s8-3.589,8-8S162.297,197.656,157.886,197.656z
				 M157.886,210.656c-2.757,0-5-2.243-5-5s2.243-5,5-5s5,2.243,5,5S160.643,210.656,157.886,210.656z"/>
		</g>
	</g>
	<g>
		<g>
			<path class="st0" d="M139.386,204.156h-88c-0.828,0-1.5,0.672-1.5,1.5s0.672,1.5,1.5,1.5h88c0.828,0,1.5-0.672,1.5-1.5
				S140.214,204.156,139.386,204.156z"/>
		</g>
	</g>
	<g>
		<g>
			<path class="st21" d="M215.111,147.656H46.661c-3.945,0-7.143,3.198-7.143,7.143v15.714c0,3.945,3.198,7.143,7.143,7.143h168.45
				c3.945,0,7.143-3.198,7.143-7.143v-15.714C222.254,150.854,219.056,147.656,215.111,147.656z"/>
		</g>
	</g>
	<g>
		<g>
			<path class="st0" d="M215.111,146.156H46.661c-4.766,0-8.644,3.878-8.644,8.644v15.714c0,4.766,3.878,8.643,8.644,8.643h168.45
				c4.766,0,8.643-3.877,8.643-8.643V154.8C223.754,150.034,219.877,146.156,215.111,146.156z M220.754,170.514
				c0,3.111-2.531,5.643-5.643,5.643H46.661c-3.112,0-5.644-2.531-5.644-5.643V154.8c0-3.112,2.531-5.644,5.644-5.644h168.45
				c3.111,0,5.643,2.531,5.643,5.644V170.514z"/>
		</g>
	</g>
	<g>
		<g>
			<circle class="st12" cx="203.886" cy="162.656" r="6.5"/>
		</g>
	</g>
	<g>
		<g>
			<path class="st0" d="M203.886,154.656c-4.411,0-8,3.589-8,8s3.589,8,8,8s8-3.589,8-8S208.297,154.656,203.886,154.656z
				 M203.886,167.656c-2.757,0-5-2.243-5-5s2.243-5,5-5s5,2.243,5,5S206.643,167.656,203.886,167.656z"/>
		</g>
	</g>
	<g>
		<g>
			<circle class="st2" cx="180.886" cy="162.656" r="6.5"/>
		</g>
	</g>
	<g>
		<g>
			<path class="st0" d="M180.886,154.656c-4.411,0-8,3.589-8,8s3.589,8,8,8s8-3.589,8-8S185.297,154.656,180.886,154.656z
				 M180.886,167.656c-2.757,0-5-2.243-5-5s2.243-5,5-5s5,2.243,5,5S183.643,167.656,180.886,167.656z"/>
		</g>
	</g>
	<g>
		<g>
			<circle class="st16" cx="157.886" cy="162.656" r="6.5"/>
		</g>
	</g>
	<g>
		<g>
			<path class="st0" d="M157.886,154.656c-4.411,0-8,3.589-8,8s3.589,8,8,8s8-3.589,8-8S162.297,154.656,157.886,154.656z
				 M157.886,167.656c-2.757,0-5-2.243-5-5s2.243-5,5-5s5,2.243,5,5S160.643,167.656,157.886,167.656z"/>
		</g>
	</g>
	<g>
		<g>
			<path class="st0" d="M139.386,161.156h-88c-0.828,0-1.5,0.672-1.5,1.5s0.672,1.5,1.5,1.5h88c0.828,0,1.5-0.672,1.5-1.5
				S140.214,161.156,139.386,161.156z"/>
		</g>
	</g>
	<g>
		<g>
			<path class="st21" d="M215.111,104.656H96.882H84.225H46.661c-3.945,0-7.143,3.198-7.143,7.143v15.714
				c0,3.945,3.198,7.143,7.143,7.143h168.45c3.945,0,7.143-3.198,7.143-7.143v-15.714
				C222.254,107.854,219.056,104.656,215.111,104.656z"/>
		</g>
	</g>
	<g>
		<g>
			<path class="st0" d="M215.111,103.156H96.882c-0.828,0-1.5,0.672-1.5,1.5s0.672,1.5,1.5,1.5h118.229
				c3.111,0,5.643,2.531,5.643,5.644v15.714c0,3.111-2.531,5.643-5.643,5.643H46.661c-3.112,0-5.644-2.531-5.644-5.643V111.8
				c0-3.112,2.531-5.644,5.644-5.644h37.563c0.828,0,1.5-0.672,1.5-1.5s-0.672-1.5-1.5-1.5H46.661c-4.766,0-8.644,3.878-8.644,8.644
				v15.714c0,4.766,3.878,8.643,8.644,8.643h168.45c4.766,0,8.643-3.877,8.643-8.643V111.8
				C223.754,107.034,219.877,103.156,215.111,103.156z"/>
		</g>
	</g>
	<g>
		<g>
			<circle class="st12" cx="203.886" cy="119.656" r="6.5"/>
		</g>
	</g>
	<g>
		<g>
			<path class="st0" d="M203.886,111.656c-4.411,0-8,3.589-8,8s3.589,8,8,8s8-3.589,8-8S208.297,111.656,203.886,111.656z
				 M203.886,124.656c-2.757,0-5-2.243-5-5s2.243-5,5-5s5,2.243,5,5S206.643,124.656,203.886,124.656z"/>
		</g>
	</g>
	<g>
		<g>
			<circle class="st2" cx="180.886" cy="119.656" r="6.5"/>
		</g>
	</g>
	<g>
		<g>
			<path class="st0" d="M180.886,111.656c-4.411,0-8,3.589-8,8s3.589,8,8,8s8-3.589,8-8S185.297,111.656,180.886,111.656z
				 M180.886,124.656c-2.757,0-5-2.243-5-5s2.243-5,5-5s5,2.243,5,5S183.643,124.656,180.886,124.656z"/>
		</g>
	</g>
	<g>
		<g>
			<circle class="st16" cx="157.886" cy="119.656" r="6.5"/>
		</g>
	</g>
	<g>
		<g>
			<path class="st0" d="M157.886,111.656c-4.411,0-8,3.589-8,8s3.589,8,8,8s8-3.589,8-8S162.297,111.656,157.886,111.656z
				 M157.886,124.656c-2.757,0-5-2.243-5-5s2.243-5,5-5s5,2.243,5,5S160.643,124.656,157.886,124.656z"/>
		</g>
	</g>
	<g>
		<g>
			<path class="st0" d="M139.386,118.156h-88c-0.828,0-1.5,0.672-1.5,1.5s0.672,1.5,1.5,1.5h88c0.828,0,1.5-0.672,1.5-1.5
				S140.214,118.156,139.386,118.156z"/>
		</g>
	</g>
	<g>
		<g>
			<path class="st13" d="M186.976,58.376c-1.04,0-2.13,0.05-3.45,0.14c-0.7,0.07-1.36-0.4-1.55-1.09
				c-6.36-22.68-27.37-38.52-51.09-38.52c-2.53,0-5.04,0.18-7.52,0.53c20.55,2.93,37.93,17.73,43.61,37.99
				c0.19,0.69,0.85,1.16,1.55,1.09c1.32-0.09,2.41-0.14,3.45-0.14c25.7,0,46.69,20.46,47.28,45.85c2.68,1.46,4.5,4.31,4.5,7.57
				v15.72c0,4.76-3.88,8.64-8.65,8.64h-2.97v8.88c13.27-8.35,22.14-23.07,22.14-39.69C234.276,79.446,213.056,58.376,186.976,58.376
				z"/>
		</g>
	</g>
	<g>
		<g>
			<rect x="194.136" y="179.156" class="st10" width="15" height="10"/>
		</g>
	</g>
	<g>
		<g>
			<rect x="194.136" y="136.156" class="st10" width="15" height="10"/>
		</g>
	</g>
	<g>
		<g>
			<path class="st22" d="M215.106,192.156h-15c3.12,0,5.65,2.53,5.65,5.64v0.08c3.51,0.85,6.13,4.02,6.13,7.78
				c0,3.76-2.62,6.93-6.13,7.78v0.08c0,3.11-2.53,5.64-5.65,5.64h15c3.12,0,5.65-2.53,5.65-5.64v-15.72
				C220.756,194.687,218.226,192.156,215.106,192.156z"/>
		</g>
	</g>
	<g>
		<g>
			<path class="st22" d="M215.106,149.156h-15c3.12,0,5.65,2.53,5.65,5.64v0.08c3.51,0.85,6.13,4.02,6.13,7.78
				c0,3.76-2.62,6.93-6.13,7.78v0.08c0,3.11-2.53,5.64-5.65,5.64h15c3.12,0,5.65-2.53,5.65-5.64v-15.72
				C220.756,151.687,218.226,149.156,215.106,149.156z"/>
		</g>
	</g>
	<g>
		<g>
			<path class="st22" d="M215.106,106.156h-15c3.12,0,5.65,2.53,5.65,5.64v0.08c3.51,0.85,6.13,4.02,6.13,7.78
				c0,3.76-2.62,6.93-6.13,7.78v0.08c0,3.11-2.53,5.64-5.65,5.64h15c3.12,0,5.65-2.53,5.65-5.64v-15.72
				C220.756,108.687,218.226,106.156,215.106,106.156z"/>
		</g>
	</g>
</g>
</svg>
