<svg xmlns="http://www.w3.org/2000/svg" viewBox="0 0 512 512"><title>70 Rage Room Icons - Expanded</title><path d="M200,111.945v160H312v-48a16,16,0,0,0,16-16v-96Z" fill="#f0915a"/><path d="M96,111.945H488a8,8,0,0,1,8,8v32a8,8,0,0,1-8,8H96a0,0,0,0,1,0,0v-48A0,0,0,0,1,96,111.945Z" fill="#a55528"/><path d="M96,135.945H496a0,0,0,0,1,0,0v16a8,8,0,0,1-8,8H96a0,0,0,0,1,0,0v-24A0,0,0,0,1,96,135.945Z" fill="#784119"/><rect x="232" y="79.945" width="32" height="64" rx="16" ry="16" fill="#fab991"/><rect x="264" y="79.945" width="32" height="64" rx="16" ry="16" fill="#fab991"/><rect x="296" y="79.945" width="32" height="48" rx="16" ry="16" fill="#fab991"/><circle cx="248" cy="127.945" r="8" fill="#f0915a"/><rect x="200" y="79.945" width="32" height="64" rx="16" ry="16" fill="#fab991"/><circle cx="216" cy="127.945" r="8" fill="#f0915a"/><circle cx="280" cy="127.945" r="8" fill="#f0915a"/><circle cx="312" cy="111.945" r="8" fill="#f0915a"/><path d="M200,159.945h0v-48a32,32,0,0,0-32-32h0a8,8,0,0,0-8,8v96a40,40,0,0,0,40,40h64A64,64,0,0,0,200,159.945Z" fill="#fab991"/><path d="M160,87.945h0a16,16,0,0,1,16,16v0a8,8,0,0,1-8,8h-8a0,0,0,0,1,0,0v-24A0,0,0,0,1,160,87.945Z" fill="#f0915a"/><path d="M88,95.945H24a8,8,0,0,0-8,8v112a40,40,0,0,0,40,40h3.6A12.262,12.262,0,0,0,72,244.17a12,12,0,0,0-12-12.225h0a4,4,0,0,1-4-4v-36a16,16,0,0,1,16-16h8a16,16,0,0,0,16-16v-56A8,8,0,0,0,88,95.945Z" fill="#555"/><rect x="16" y="31.945" width="80" height="40" rx="8" ry="8" fill="#555"/><path d="M88,71.945l-5.172,5.171A9.658,9.658,0,0,0,80,83.945h0a9.656,9.656,0,0,0,2.828,6.828L88,95.945H24l5.172-5.172A9.656,9.656,0,0,0,32,83.945h0a9.658,9.658,0,0,0-2.828-6.829L24,71.945Z" fill="#3c3c3c"/><rect x="24" y="103.945" width="64" height="8" rx="4" ry="4" fill="#828787"/><rect x="24" y="39.945" width="64" height="8" rx="4" ry="4" fill="#828787"/><path d="M352,287.938V255.945a16,16,0,0,0-16-16h-8a15.992,15.992,0,0,0-15.851,13.929,120.135,120.135,0,0,0-112.3,0A15.992,15.992,0,0,0,184,239.945h-8a16,16,0,0,0-16,16v31.993a120,120,0,1,0,192,0Z" fill="#5a7db9"/><path d="M152,363.945a4,4,0,0,1-4-4,108.122,108.122,0,0,1,108-108,4,4,0,0,1,0,8,100.113,100.113,0,0,0-100,100A4,4,0,0,1,152,363.945Z" fill="#6fa4d8"/><path d="M256,480.055a119.8,119.8,0,0,1-84.971-35.139,13.5,13.5,0,1,1,19.092-19.092A93.167,93.167,0,1,0,321.879,294.066a13.5,13.5,0,0,1,19.092-19.092A120.11,120.11,0,0,1,256,480.055Z" fill="#5055a5"/><circle cx="256" cy="359.945" r="80" fill="#d7e6e6"/><path d="M256,295.945v128a64,64,0,0,0,0-128Z" fill="#f05555"/><path d="M260,344.469V295.945a4,4,0,1,0-8,0v48.524a16,16,0,1,0,8,0Z" fill="#3c413c"/><circle cx="256" cy="359.945" r="8" fill="#faa51e"/><path d="M256,427.945a4,4,0,0,1-4-4v-8a4,4,0,1,1,8,0v8A4,4,0,0,1,256,427.945Z" fill="#3c413c"/><path d="M320,363.945h-8a4,4,0,0,1,0-8h8a4,4,0,0,1,0,8Z" fill="#3c413c"/><path d="M200,363.945h-8a4,4,0,1,1,0-8h8a4,4,0,0,1,0,8Z" fill="#3c413c"/><rect x="361.373" y="198.004" width="45.255" height="67.882" rx="8" ry="8" transform="translate(-51.539 339.464) rotate(-45)" fill="#5a7db9"/><rect x="54.059" y="305.318" width="67.882" height="45.255" rx="8" ry="8" transform="translate(-206.117 158.278) rotate(-45)" fill="#5a7db9"/><rect x="416" y="359.945" width="40" height="40" rx="8" ry="8" fill="#5a7db9"/></svg>