<svg xmlns="http://www.w3.org/2000/svg" viewBox="0 0 512 512"><title>70 Rage Room Icons - Expanded</title><path d="M240,384H171.882a48,48,0,0,0-33.941,14.059L120,416l40,40,19.314-19.314A16,16,0,0,1,190.627,432H240a24,24,0,0,0,24-24h0A24,24,0,0,0,240,384Z" fill="#fab991"/><path d="M355.314,372.686a16,16,0,0,0-22.627,0L273.373,432H190.627a16,16,0,0,0-11.313,4.686L160,456l24,24,16-16h76.687a23.843,23.843,0,0,0,16.97-7.03l61.657-61.656A16,16,0,0,0,355.314,372.686Z" fill="#f0915a"/><path d="M234.667,394.667H240A13.333,13.333,0,0,1,253.333,408v0A13.333,13.333,0,0,1,240,421.333h-5.333a8,8,0,0,1-8-8V402.667A8,8,0,0,1,234.667,394.667Z" fill="#f0915a"/><path d="M117.657,413.657,160,456l-40,40H24l82.343-82.343A8,8,0,0,1,117.657,413.657Z" fill="#555"/><path d="M160,456l26.343,26.343a8,8,0,0,1,0,11.314L184,496H120Z" fill="#3c3c3c"/><circle cx="232" cy="144" r="128" fill="#faa51e"/><path d="M232,271.939a127.6,127.6,0,0,1-90.51-37.429,16,16,0,1,1,22.627-22.628A96,96,0,1,0,299.883,76.118,16,16,0,1,1,322.51,53.491,127.939,127.939,0,0,1,232,271.939Z" fill="#f06423"/><path d="M120,148a4,4,0,0,1-4-4A116.132,116.132,0,0,1,232,28a4,4,0,0,1,0,8A108.122,108.122,0,0,0,124,144,4,4,0,0,1,120,148Z" fill="#ffc33c"/><circle cx="232" cy="144" r="96" fill="#d7e6e6"/><path d="M298.343,296H264V256H200v40H165.657a5.657,5.657,0,0,0-4,9.657l56.686,56.686a19.314,19.314,0,0,0,27.314,0l56.686-56.686a5.657,5.657,0,0,0-4-9.657Z" fill="#f06423"/><path d="M272,120V88a8,8,0,0,0-8-8H200a8,8,0,0,0-8,8v32a40.011,40.011,0,0,0,32,39.2V208H208a8,8,0,0,0-8,8h64a8,8,0,0,0-8-8H240V159.2A40.011,40.011,0,0,0,272,120Z" fill="#5a7db9"/><path d="M200,80h32a0,0,0,0,1,0,0v36a20,20,0,0,1-20,20h0a20,20,0,0,1-20-20V88A8,8,0,0,1,200,80Z" fill="#6fa4d8"/><path d="M208,124a4,4,0,0,1-4-4V90.667a4,4,0,0,1,8,0V120A4,4,0,0,1,208,124Z" fill="#d7e6e6"/><circle cx="384" cy="144" r="104" fill="#91be41"/><path d="M368,192a15.946,15.946,0,0,1-11.314-4.687l-32-32a16,16,0,0,1,22.627-22.626L368,153.373l51.353-51.353a16,16,0,1,1,22.627,22.627l-62.667,62.667A15.948,15.948,0,0,1,368,192Z" fill="#d7e6e6"/></svg>