<svg xmlns="http://www.w3.org/2000/svg" viewBox="0 0 512 512"><title>70 Rage Room Icons - Expanded</title><circle cx="256" cy="256" r="240" fill="#f05555"/><path d="M425.706,86.294c-.1-.1-.195-.188-.292-.284l-339.4,339.4c.1.1.188.195.284.292,93.726,93.725,245.686,93.725,339.412,0S519.431,180.02,425.706,86.294Z" fill="#e13741"/><circle cx="256" cy="256" r="176" fill="#d7e6e6"/><path d="M40,268a12,12,0,0,1-12-12A228,228,0,0,1,256,28a12,12,0,0,1,0,24C143.514,52,52,143.514,52,256A12,12,0,0,1,40,268Z" fill="#ff7373"/><path d="M160,352a16,16,0,0,1-16-16V176a16,16,0,0,1,32,0V336A16,16,0,0,1,160,352Z" fill="#3c3c3c"/><path d="M304,205.333a48,48,0,1,0-83.739,32,47.806,47.806,0,0,0-12.261,32v37.334a48,48,0,0,0,96,0V269.333a47.806,47.806,0,0,0-12.261-32A47.8,47.8,0,0,0,304,205.333Zm-48-16a16,16,0,1,1-16,16A16.019,16.019,0,0,1,256,189.333Zm16,117.334a16,16,0,0,1-32,0V269.333a16,16,0,1,1,32,0Z" fill="#3c3c3c"/><path d="M384,240h-8v-8a16,16,0,0,0-32,0v8h-8a16,16,0,0,0,0,32h8v8a16,16,0,0,0,32,0v-8h8a16,16,0,0,0,0-32Z" fill="#3c3c3c"/></svg>