<svg xmlns="http://www.w3.org/2000/svg" viewBox="0 0 512 512"><title>70 Rage Room Icons - Expanded</title><path d="M211.992,142a7.966,7.966,0,0,1-4.388-1.317L106.271,74.017a8,8,0,0,1,8.792-13.368L216.4,127.316a8,8,0,0,1-4.4,14.685Z" fill="#e13741"/><path d="M316,138.033V126a8,8,0,0,0-8-8H260a8,8,0,0,0-8,8v12.033a128,128,0,1,0,64,0Z" fill="#3c3c3c"/><path d="M334.745,184.745,284,134V118H260a8,8,0,0,0-8,8v12.033A128.053,128.053,0,0,0,156,262H302.745A45.255,45.255,0,0,0,348,216.745h0A45.255,45.255,0,0,0,334.745,184.745Z" fill="#555"/><circle cx="220" cy="198" r="16" fill="#828787"/><path d="M444,214H140V502H300V454h96a64,64,0,0,0,64-64V230A16,16,0,0,0,444,214Z" fill="#fab991"/><path d="M124,214a16,16,0,0,0-16,16V390a32,32,0,0,0,32,32h80a32,32,0,0,0,32-32V310a48,48,0,0,0,48-48V214Z" fill="#3c3c3c"/><path d="M252,262a48,48,0,0,0,0,96Z" fill="#f0915a"/><path d="M188,454H300a0,0,0,0,1,0,0v48a0,0,0,0,1,0,0H140a0,0,0,0,1,0,0v0A48,48,0,0,1,188,454Z" fill="#f0915a"/><path d="M388,278h0a48,48,0,0,1,48,48v8a24,24,0,0,1-24,24h0a24,24,0,0,1-24-24V278a0,0,0,0,1,0,0Z" fill="#f0915a"/><path d="M359.314,250.687,348,239.373a8,8,0,1,0-11.314,11.314,16,16,0,1,0,22.628,0Z" fill="#3c3c3c"/><path d="M439.314,250.687A8,8,0,1,0,428,239.373l-11.314,11.314a16,16,0,1,0,22.628,0Z" fill="#3c3c3c"/><path d="M364,382h53.333a16,16,0,0,1,16,16v8a0,0,0,0,1,0,0H348a0,0,0,0,1,0,0v-8a16,16,0,0,1,16-16Z" fill="#fff"/><path d="M292,118H276V94a56.063,56.063,0,0,1,56-56V54a40.045,40.045,0,0,0-40,40Z" fill="#828787"/><rect x="332" y="38" width="16" height="16" fill="#faa51e"/><path d="M348,38h0a8,8,0,0,1,8,8v0a8,8,0,0,1-8,8h0a0,0,0,0,1,0,0V38A0,0,0,0,1,348,38Z" fill="#e13741"/><path d="M380,50h-8a4,4,0,0,1,0-8h8a4,4,0,0,1,0,8Z" fill="#faa51e"/><path d="M364.971,33.029a4,4,0,0,1-2.828-6.828l5.656-5.656a4,4,0,0,1,5.656,5.656L367.8,31.857A3.982,3.982,0,0,1,364.971,33.029Z" fill="#faa51e"/><path d="M348,26a4,4,0,0,1-4-4V14a4,4,0,0,1,8,0v8A4,4,0,0,1,348,26Z" fill="#faa51e"/><path d="M348,82a4,4,0,0,1-4-4V70a4,4,0,0,1,8,0v8A4,4,0,0,1,348,82Z" fill="#faa51e"/><path d="M370.627,72.627a3.987,3.987,0,0,1-2.828-1.172L362.143,65.8a4,4,0,0,1,5.656-5.656l5.656,5.656a4,4,0,0,1-2.828,6.828Z" fill="#faa51e"/><path d="M84,86a32,32,0,1,1,32-32A32.036,32.036,0,0,1,84,86Zm0-48a16,16,0,1,0,16,16A16.019,16.019,0,0,0,84,38Z" fill="#f05555"/><path d="M218.684,49.6a8,8,0,0,0-11.08-2.288L158.141,79.858A15.992,15.992,0,0,0,134.667,94c0,.425.031.843.063,1.26l-26.742,17.594a31.934,31.934,0,1,0,7.281,14.361l28.54-18.776A15.971,15.971,0,0,0,166.667,94c0-.2-.023-.386-.03-.58L216.4,60.684A8,8,0,0,0,218.684,49.6ZM84,150a16,16,0,1,1,16-16A16.019,16.019,0,0,1,84,150Z" fill="#f05555"/><path d="M212,98H196a4,4,0,0,1,0-8h16a4,4,0,0,1,0,8Z" fill="#555"/><path d="M252,98H236a4,4,0,0,1,0-8h16a4,4,0,0,1,0,8Z" fill="#555"/><path d="M292,98H276a4,4,0,0,1,0-8h16a4,4,0,0,1,0,8Z" fill="#555"/><path d="M332,98H316a4,4,0,0,1,0-8h16a4,4,0,0,1,0,8Z" fill="#555"/></svg>