<svg xmlns="http://www.w3.org/2000/svg" viewBox="0 0 512 512"><title>70 Rage Room Icons - Expanded</title><path d="M312,240V224a16,16,0,0,0-16-16h0a16,16,0,0,0-16,16v48h64a16,16,0,0,0-16-16h0A16,16,0,0,1,312,240Z" fill="#e13741"/><path d="M200,112V272H312V224a16,16,0,0,0,16-16V112Z" fill="#f0915a"/><path d="M96,112H488a8,8,0,0,1,8,8v32a8,8,0,0,1-8,8H96a0,0,0,0,1,0,0V112A0,0,0,0,1,96,112Z" fill="#a55528"/><path d="M96,136H496a0,0,0,0,1,0,0v16a8,8,0,0,1-8,8H96a0,0,0,0,1,0,0V136A0,0,0,0,1,96,136Z" fill="#784119"/><rect x="232" y="80" width="32" height="64" rx="16" ry="16" fill="#fab991"/><rect x="264" y="80" width="32" height="64" rx="16" ry="16" fill="#fab991"/><rect x="296" y="80" width="32" height="48" rx="16" ry="16" fill="#fab991"/><circle cx="248" cy="128" r="8" fill="#f0915a"/><rect x="200" y="80" width="32" height="64" rx="16" ry="16" fill="#fab991"/><circle cx="216" cy="128" r="8" fill="#f0915a"/><circle cx="280" cy="128" r="8" fill="#f0915a"/><circle cx="312" cy="112" r="8" fill="#f0915a"/><path d="M200,160h0V112a32,32,0,0,0-32-32h0a8,8,0,0,0-8,8v96a40,40,0,0,0,40,40h64A64,64,0,0,0,200,160Z" fill="#fab991"/><path d="M160,88h0a16,16,0,0,1,16,16v0a8,8,0,0,1-8,8h-8a0,0,0,0,1,0,0V88a0,0,0,0,1,0,0Z" fill="#f0915a"/><path d="M88,96H24a8,8,0,0,0-8,8V216a40,40,0,0,0,40,40h3.6A12.262,12.262,0,0,0,72,244.225,12,12,0,0,0,60,232h0a4,4,0,0,1-4-4V192a16,16,0,0,1,16-16h8a16,16,0,0,0,16-16V104A8,8,0,0,0,88,96Z" fill="#555"/><rect x="16" y="32" width="80" height="40" rx="8" ry="8" fill="#555"/><path d="M88,72l-5.172,5.172A9.656,9.656,0,0,0,80,84h0a9.656,9.656,0,0,0,2.828,6.828L88,96H24l5.172-5.172A9.656,9.656,0,0,0,32,84h0a9.656,9.656,0,0,0-2.828-6.828L24,72Z" fill="#3c3c3c"/><rect x="24" y="104" width="64" height="8" rx="4" ry="4" fill="#828787"/><rect x="24" y="40" width="64" height="8" rx="4" ry="4" fill="#828787"/><path d="M104,368H408a0,0,0,0,1,0,0v96a16,16,0,0,1-16,16H120a16,16,0,0,1-16-16V368A0,0,0,0,1,104,368Z" fill="#d7e6e6"/><path d="M104,368v45.842A15.98,15.98,0,0,0,128,400a16,16,0,0,0,32,0,16,16,0,0,0,32,0,16,16,0,0,0,32,0,16,16,0,0,0,32,0V368Z" fill="#aac3d7"/><path d="M256,368H408a0,0,0,0,1,0,0v96a16,16,0,0,1-16,16H256a0,0,0,0,1,0,0V368A0,0,0,0,1,256,368Z" fill="#aac3d7"/><rect x="168" y="288" width="176" height="80" fill="#d7e6e6"/><path d="M176,320a16,16,0,0,0,16-16,16,16,0,0,0,32,0,16,16,0,0,0,32,0V272H168v45.842A15.907,15.907,0,0,0,176,320Z" fill="#aac3d7"/><rect x="256" y="288" width="88" height="80" fill="#aac3d7"/><path d="M104,368a8,8,0,0,0-8,8v8a16,16,0,0,0,32,0,16,16,0,0,0,32,0,16,16,0,0,0,32,0,16,16,0,0,0,32,0,16,16,0,0,0,32,0V368Z" fill="#f05555"/><path d="M408,368H256v16a16,16,0,0,0,32,0,16,16,0,0,0,32,0,16,16,0,0,0,32,0,16,16,0,0,0,32,0,16,16,0,0,0,32,0v-8A8,8,0,0,0,408,368Z" fill="#e13741"/><path d="M168,272a8,8,0,0,0-8,8v8a16,16,0,0,0,32,0,16,16,0,0,0,32,0,16,16,0,0,0,32,0V272Z" fill="#f05555"/><path d="M344,272H256v16a16,16,0,0,0,32,0,16,16,0,0,0,32,0,16,16,0,0,0,32,0v-8A8,8,0,0,0,344,272Z" fill="#e13741"/><circle cx="232" cy="344" r="8" fill="#faa51e"/><circle cx="192" cy="344" r="8" fill="#6fa4d8"/><circle cx="320" cy="344" r="8" fill="#f06423"/><circle cx="280" cy="344" r="8" fill="#5a7db9"/><circle cx="229.333" cy="456" r="8" fill="#faa51e"/><circle cx="138.667" cy="456" r="8" fill="#faa51e"/><circle cx="184" cy="456" r="8" fill="#6fa4d8"/><circle cx="328" cy="456" r="8" fill="#f06423"/><circle cx="282.667" cy="456" r="8" fill="#5a7db9"/><circle cx="373.333" cy="456" r="8" fill="#5a7db9"/><path d="M200,240h0a16,16,0,0,0-16-16h0a16,16,0,0,0-16,16v32h64a16,16,0,0,0-16-16h0A16,16,0,0,1,200,240Z" fill="#f05555"/><circle cx="112" cy="304" r="16" fill="#f05555"/><circle cx="416" cy="240" r="8" fill="#f05555"/><circle cx="384" cy="304" r="8" fill="#f05555"/><circle cx="136" cy="240" r="8" fill="#f05555"/><circle cx="389.333" cy="194.667" r="24" fill="#f05555"/></svg>