<svg xmlns="http://www.w3.org/2000/svg" viewBox="0 0 512 512"><title>70 Rage Room Icons - Expanded</title><path d="M352,128l-49.941,49.941A48,48,0,0,0,288,211.882V224H256V128Z" fill="#e13741"/><path d="M160,128l49.941,49.941A48,48,0,0,1,224,211.882V224h32V128Z" fill="#e13741"/><path d="M416,208H112V496H272V448h96a64,64,0,0,0,64-64V224A16,16,0,0,0,416,208Z" fill="#fab991"/><path d="M96,208a16,16,0,0,0-16,16V384a32,32,0,0,0,32,32h80a32,32,0,0,0,32-32V304a48,48,0,0,0,48-48V208Z" fill="#3c3c3c"/><path d="M224,256a48,48,0,0,0,0,96Z" fill="#f0915a"/><path d="M160,448H272a0,0,0,0,1,0,0v48a0,0,0,0,1,0,0H112a0,0,0,0,1,0,0v0A48,48,0,0,1,160,448Z" fill="#f0915a"/><path d="M360,272h0a48,48,0,0,1,48,48v8a24,24,0,0,1-24,24h0a24,24,0,0,1-24-24V272A0,0,0,0,1,360,272Z" fill="#f0915a"/><path d="M331.314,244.687,320,233.373a8,8,0,1,0-11.314,11.314,16,16,0,1,0,22.628,0Z" fill="#3c3c3c"/><path d="M411.314,244.687A8,8,0,1,0,400,233.373l-11.314,11.314a16,16,0,1,0,22.628,0Z" fill="#3c3c3c"/><path d="M336,376h53.333a16,16,0,0,1,16,16v8a0,0,0,0,1,0,0H320a0,0,0,0,1,0,0v-8A16,16,0,0,1,336,376Z" fill="#fff"/><path d="M368,61.333a45.5,45.5,0,0,0-7.66.658A45.317,45.317,0,0,0,297.582,43.27a45.338,45.338,0,0,0-83.164,0A45.317,45.317,0,0,0,151.66,61.991a45.331,45.331,0,1,0,32.68,65.352,45.3,45.3,0,0,0,49.242-26.613,45.293,45.293,0,0,0,44.836,0,45.3,45.3,0,0,0,49.242,26.613A45.332,45.332,0,1,0,368,61.333Z" fill="#f05555"/><path d="M320,69.333a45.311,45.311,0,0,0-39.544,23.172,45.283,45.283,0,0,0-48.912,0,45.342,45.342,0,1,0-15.088,60.323,45.328,45.328,0,0,0,79.088,0A45.33,45.33,0,1,0,320,69.333Z" fill="#ff7373"/><circle cx="440" cy="48" r="16" fill="#f05555"/><circle cx="72" cy="48" r="16" fill="#f05555"/><circle cx="116" cy="180" r="20" fill="#e13741"/><circle cx="396" cy="180" r="20" fill="#e13741"/></svg>