<svg xmlns="http://www.w3.org/2000/svg" viewBox="0 0 512 512"><title>70 Rage Room Icons - Expanded</title><path d="M272,124a8,8,0,0,1,0-16,24,24,0,0,0,0-48,8,8,0,0,1,0-16,40,40,0,0,1,0,80Z" fill="#aac3d7"/><path d="M112,124a8,8,0,0,1,0-16,24,24,0,0,0,0-48,8,8,0,0,1,0-16,40,40,0,0,1,0,80Z" fill="#aac3d7"/><path d="M16,148H400a0,0,0,0,1,0,0V404a32,32,0,0,1-32,32H48a32,32,0,0,1-32-32V148A0,0,0,0,1,16,148Z" fill="#aac3d7"/><path d="M16,148H352a0,0,0,0,1,0,0V404a32,32,0,0,1-32,32H48a32,32,0,0,1-32-32V148A0,0,0,0,1,16,148Z" fill="#d7e6e6"/><path d="M48,84H368a32,32,0,0,1,32,32v32a0,0,0,0,1,0,0H16a0,0,0,0,1,0,0V116A32,32,0,0,1,48,84Z" fill="#e13741"/><path d="M48,84H320a32,32,0,0,1,32,32v32a0,0,0,0,1,0,0H16a0,0,0,0,1,0,0V116A32,32,0,0,1,48,84Z" fill="#f05555"/><path d="M112,124a40,40,0,0,1,0-80,8,8,0,0,1,0,16,24,24,0,0,0,0,48,8,8,0,0,1,0,16Z" fill="#d7e6e6"/><path d="M272,124a40,40,0,0,1,0-80,8,8,0,0,1,0,16,24,24,0,0,0,0,48,8,8,0,0,1,0,16Z" fill="#d7e6e6"/><path d="M142.667,404a28.032,28.032,0,0,1-28-28V336a28,28,0,0,1,56,0v40A28.032,28.032,0,0,1,142.667,404Zm0-80a12.013,12.013,0,0,0-12,12v40a12,12,0,0,0,24,0V336A12.013,12.013,0,0,0,142.667,324Z" fill="#f05555"/><path d="M70.667,180h-20a8,8,0,0,0-8,8v80a8,8,0,0,0,8,8h20a27.987,27.987,0,0,0,19.577-48,27.987,27.987,0,0,0-19.577-48Zm0,80h-12V236h12a12,12,0,1,1,0,24Zm0-40h-12V196h12a12,12,0,1,1,0,24Z" fill="#555"/><path d="M142.667,180a28.032,28.032,0,0,0-28,28v40a28,28,0,0,0,56,0V208A28.032,28.032,0,0,0,142.667,180Zm12,68a12,12,0,0,1-24,0V208a12,12,0,0,1,24,0Z" fill="#555"/><path d="M214.667,180a28.032,28.032,0,0,0-28,28v40a28,28,0,0,0,56,0V208A28.032,28.032,0,0,0,214.667,180Zm12,68a12,12,0,0,1-24,0V208a12,12,0,0,1,24,0Z" fill="#555"/><path d="M314.667,204V188a8,8,0,0,0-16,0v16a16.018,16.018,0,0,1-16,16h-8V188a8,8,0,0,0-16,0v80a8,8,0,0,0,16,0V236h8a16.018,16.018,0,0,1,16,16v16a8,8,0,0,0,16,0V252a31.936,31.936,0,0,0-10.855-24A31.936,31.936,0,0,0,314.667,204Z" fill="#555"/><path d="M90.665,404a8,8,0,0,1-7.153-4.423l-24.845-49.69V396a8,8,0,0,1-16,0V316a8,8,0,0,1,15.155-3.578l24.845,49.69V316a8,8,0,0,1,16,0v80a8,8,0,0,1-8,8Z" fill="#f05555"/><path d="M242.667,404a23.907,23.907,0,0,1-16-6.126,23.988,23.988,0,0,1-40-17.874V316a8,8,0,0,1,16,0v64a8,8,0,0,0,16,0V316a8,8,0,0,1,16,0v64a8,8,0,0,0,16,0V316a8,8,0,0,1,16,0v64A24.027,24.027,0,0,1,242.667,404Z" fill="#f05555"/><circle cx="392" cy="364" r="104" fill="#6fa4d8"/><path d="M376,412a15.946,15.946,0,0,1-11.313-4.686l-32-32a16,16,0,0,1,22.626-22.628L376,373.373l51.354-51.353a16,16,0,1,1,22.626,22.627l-62.667,62.667A15.948,15.948,0,0,1,376,412Z" fill="#d7e6e6"/></svg>