<svg xmlns="http://www.w3.org/2000/svg" viewBox="0 0 512 512"><title>70 Rage Room Icons - Expanded</title><path d="M420,72V52a4,4,0,0,0-4-4h0a12,12,0,0,0-12,12v4a16,16,0,0,0-16,16h24A8,8,0,0,0,420,72Z" fill="#f0915a"/><path d="M229.373,73.373l-48,48A32,32,0,0,0,172,144v64a32,32,0,0,0,64,0V157.255l38.627-38.628Z" fill="#d24614"/><path d="M292,80V40H244V70.059l-8.971,8.97a24,24,0,0,0,33.942,33.942l16-16A23.923,23.923,0,0,0,292,80Z" fill="#f0915a"/><path d="M188,480a32,32,0,0,1-32-32V384a32,32,0,0,1,9.373-22.627l64-64a32,32,0,0,1,45.254,45.254L220,397.255V448A32,32,0,0,1,188,480Z" fill="#f06423"/><path d="M364,480a31.9,31.9,0,0,1-22.627-9.373l-64-64A32,32,0,0,1,268,384V304a32,32,0,0,1,64,0v66.745l54.627,54.628A32,32,0,0,1,364,480Z" fill="#faa51e"/><path d="M316,336H220a16,16,0,0,1-16-16V192a32,32,0,0,1,32-32H348v79.778a80,80,0,0,1-13.436,44.376L332,288v32A16,16,0,0,1,316,336Z" fill="#f06423"/><path d="M156,448h64a0,0,0,0,1,0,0v32a16,16,0,0,1-16,16H140a16,16,0,0,1-16-16v0A32,32,0,0,1,156,448Z" fill="#f06423"/><path d="M396,448v32a16,16,0,0,1-16,16H300a16,16,0,0,1-16-16h0a32,32,0,0,1,32-32Z" fill="#faa51e"/><path d="M204,80h40a24,24,0,0,1,24,24v72a16,16,0,0,1-16,16H196a16,16,0,0,1-16-16V104A24,24,0,0,1,204,80Z" fill="#f0915a"/><path d="M204,80h16a24,24,0,0,1,24,24v72a16,16,0,0,1-16,16H196a16,16,0,0,1-16-16V104A24,24,0,0,1,204,80Z" fill="#fab991"/><rect x="460" y="16" width="40" height="72" rx="4" ry="4" fill="#3c3c3c"/><rect x="484" y="16" width="16" height="72" rx="4" ry="4" fill="#555"/><rect x="204" y="40" width="272" height="24" rx="8" ry="8" fill="#a55528"/><rect x="204" y="40" width="16" height="24" rx="8" ry="8" fill="#784119"/><rect x="244" y="32" width="48" height="16" rx="8" ry="8" fill="#f0915a"/><path d="M308,72V52a4,4,0,0,0-4-4h0a12,12,0,0,0-12,12v4a16,16,0,0,0-16,16h24A8,8,0,0,0,308,72Z" fill="#f0915a"/><path d="M404,80V40a8,8,0,0,0-8-8H364a8,8,0,0,0-8,8V70.059l-8.971,8.97a24,24,0,0,0,33.942,33.942l16-16A23.923,23.923,0,0,0,404,80Z" fill="#fab991"/><path d="M212,64h24a40,40,0,0,1,40,40v8a0,0,0,0,1,0,0H172a0,0,0,0,1,0,0v-8A40,40,0,0,1,212,64Z" fill="#faa51e"/><path d="M236,112v8a8,8,0,0,0,8,8h8a8,8,0,0,1,8,8v8a8,8,0,0,1-8,8h0a8,8,0,0,0,8,8h8a8,8,0,0,0,8-8V112Z" fill="#3c413c"/><path d="M244,128h8a8,8,0,0,1,8,8v8a8,8,0,0,1-8,8h-8a0,0,0,0,1,0,0V128A0,0,0,0,1,244,128Z" fill="#fab991"/><path d="M160,104H276a0,0,0,0,1,0,0v8a0,0,0,0,1,0,0H160a4,4,0,0,1-4-4v0A4,4,0,0,1,160,104Z" fill="#f06423"/><path d="M164,112h61.333a0,0,0,0,1,0,0v80a8,8,0,0,1-8,8H172a8,8,0,0,1-8-8V112A0,0,0,0,1,164,112Z" fill="#6fa4d8"/><path d="M180,112v64a16,16,0,0,0,16,16h29.333V112Z" fill="#5a7db9"/><path d="M200,160h8a4,4,0,0,1,4,4v12a8,8,0,0,1-8,8h0a8,8,0,0,1-8-8V164A4,4,0,0,1,200,160Z" fill="#5055a5"/><path d="M212,165.333V164a4,4,0,0,0-4-4h-8a4,4,0,0,0-4,4v1.333Z" fill="#6fa4d8"/><path d="M380.971,112.971,347.029,79.029a8,8,0,0,0-11.313,0l-42.343,42.344A32,32,0,0,0,284,144v64a32,32,0,0,0,64,0V157.255l32.971-32.971A8,8,0,0,0,380.971,112.971Z" fill="#faa51e"/><path d="M36,352H276a0,0,0,0,1,0,0V480a16,16,0,0,1-16,16H52a16,16,0,0,1-16-16V352A0,0,0,0,1,36,352Z" fill="#a55528"/><path d="M36,352H180a0,0,0,0,1,0,0V480a16,16,0,0,1-16,16H52a16,16,0,0,1-16-16V352A0,0,0,0,1,36,352Z" fill="#f0915a"/><circle cx="108" cy="408" r="16" fill="#a55528"/><path d="M12,380.686h0a11.314,11.314,0,0,1,3.314-8L36,352H180l-20.686,20.686a11.314,11.314,0,0,0-3.314,8h0A11.313,11.313,0,0,1,144.686,392H23.314A11.313,11.313,0,0,1,12,380.686Z" fill="#fab991"/><path d="M300,380.686h0a11.314,11.314,0,0,0-3.314-8L276,352H180l20.686,20.686a11.314,11.314,0,0,1,3.314,8h0A11.313,11.313,0,0,0,215.314,392h73.372A11.313,11.313,0,0,0,300,380.686Z" fill="#fab991"/><path d="M116,264v40a16,16,0,0,1-16,16H92a16,16,0,0,1-16-16h0a16,16,0,0,0-16-16H52a16,16,0,0,0-16,16v48H156V264a16,16,0,0,0-16-16h-8A16,16,0,0,0,116,264Z" fill="#69a541"/><path d="M236,304v16a16,16,0,0,1-16,16h-8a16,16,0,0,1-16-16h0a16,16,0,0,0-16-16h-8a16,16,0,0,0-16,16v32H276V304a16,16,0,0,0-16-16h-8A16,16,0,0,0,236,304Z" fill="#91be41"/><rect x="36" y="224" width="32" height="32" rx="8" ry="8" fill="#69a541"/><rect x="404" y="224" width="32" height="32" rx="8" ry="8" fill="#69a541"/><rect x="276" y="256" width="32" height="32" rx="8" ry="8" fill="#91be41"/><rect x="101.373" y="172.686" width="45.255" height="22.627" rx="8" ry="8" transform="translate(-93.789 141.574) rotate(-45)" fill="#69a541"/><rect x="432.686" y="113.373" width="22.627" height="45.255" rx="8" ry="8" transform="translate(33.878 353.789) rotate(-45)" fill="#69a541"/><path d="M108,432h0a32,32,0,0,1,32,32v0a8,8,0,0,1-8,8H84a8,8,0,0,1-8-8v0a32,32,0,0,1,32-32Z" fill="#a55528"/></svg>