<svg xmlns="http://www.w3.org/2000/svg" viewBox="0 0 512 512"><title>70 Rage Room Icons - Expanded</title><path d="M368,108a8,8,0,0,1,0-16,24,24,0,0,0,0-48,8,8,0,0,1,0-16,40,40,0,0,1,0,80Z" fill="#aac3d7"/><path d="M216,108a8,8,0,0,1,0-16,24,24,0,0,0,0-48,8,8,0,0,1,0-16,40,40,0,0,1,0,80Z" fill="#aac3d7"/><path d="M128,132H496a0,0,0,0,1,0,0V372a32,32,0,0,1-32,32H160a32,32,0,0,1-32-32V132A0,0,0,0,1,128,132Z" fill="#aac3d7"/><path d="M128,132H456a0,0,0,0,1,0,0V372a32,32,0,0,1-32,32H160a32,32,0,0,1-32-32V132A0,0,0,0,1,128,132Z" fill="#d7e6e6"/><path d="M160,68H464a32,32,0,0,1,32,32v32a0,0,0,0,1,0,0H128a0,0,0,0,1,0,0V100A32,32,0,0,1,160,68Z" fill="#e13741"/><path d="M160,68H424a32,32,0,0,1,32,32v32a0,0,0,0,1,0,0H128a0,0,0,0,1,0,0V100A32,32,0,0,1,160,68Z" fill="#f05555"/><path d="M216,108a40,40,0,0,1,0-80,8,8,0,0,1,0,16,24,24,0,0,0,0,48,8,8,0,0,1,0,16Z" fill="#d7e6e6"/><path d="M368,108a40,40,0,0,1,0-80,8,8,0,0,1,0,16,24,24,0,0,0,0,48,8,8,0,0,1,0,16Z" fill="#d7e6e6"/><circle cx="256" cy="196" r="24" fill="#aac3d7"/><circle cx="328" cy="196" r="24" fill="#aac3d7"/><circle cx="400" cy="196" r="24" fill="#aac3d7"/><circle cx="184" cy="268" r="24" fill="#aac3d7"/><circle cx="256" cy="268" r="24" fill="#aac3d7"/><circle cx="328" cy="268" r="24" fill="#aac3d7"/><circle cx="400" cy="268" r="24" fill="#aac3d7"/><circle cx="184" cy="340" r="24" fill="#aac3d7"/><circle cx="256" cy="340" r="24" fill="#aac3d7"/><circle cx="328" cy="340" r="24" fill="#aac3d7"/><circle cx="184" cy="268" r="24" fill="#aac3d7"/><circle cx="256" cy="268" r="24" fill="#aac3d7"/><circle cx="144" cy="468" r="16" fill="#555"/><path d="M144,452v32a16,16,0,0,0,0-32Z" fill="#3c3c3c"/><rect x="16" y="132" width="256" height="224" rx="112" ry="112" fill="#3c3c3c"/><circle cx="128" cy="244" r="112" fill="#555"/><circle cx="128" cy="244" r="77.333" fill="#6fa4d8"/><path d="M114.667,286.667a15.947,15.947,0,0,1-11.314-4.687l-24-24a16,16,0,0,1,22.627-22.627l12.687,12.686,36.686-36.686A16,16,0,0,1,173.98,233.98l-48,48A15.947,15.947,0,0,1,114.667,286.667Z" fill="#d7e6e6"/><rect x="128" y="356" width="32" height="16" fill="#555"/><path d="M128,356v8h8a8,8,0,0,1,8,8h16V356Z" fill="#3c3c3c"/><rect x="120" y="372" width="48" height="96" rx="8" ry="8" fill="#f05555"/><path d="M144,372h16a8,8,0,0,1,8,8v80a8,8,0,0,1-8,8H144a0,0,0,0,1,0,0V372A0,0,0,0,1,144,372Z" fill="#e13741"/></svg>