<svg xmlns="http://www.w3.org/2000/svg" viewBox="0 0 512 512"><title>70 Rage Room Icons - Expanded</title><rect x="40" y="188" width="384" height="136" rx="16" ry="16" fill="#aac3d7"/><rect x="40" y="188" width="384" height="112" rx="16" ry="16" fill="#d7e6e6"/><rect x="88" y="204" width="40" height="80" rx="8" ry="8" fill="#3c3c3c"/><path d="M128,232h0a10.667,10.667,0,0,1-10.667-10.667V204H98.667v17.333A10.667,10.667,0,0,1,88,232h0v24h0a10.667,10.667,0,0,1,10.667,10.667V284h18.666V266.667A10.667,10.667,0,0,1,128,256h0Z" fill="#555"/><path d="M128,230.667H372a4,4,0,0,1,4,4v18.667a4,4,0,0,1-4,4H128a0,0,0,0,1,0,0V230.667A0,0,0,0,1,128,230.667Z" fill="#784119"/><path d="M136,230.667H372a4,4,0,0,1,4,4V244a0,0,0,0,1,0,0H140a4,4,0,0,1-4-4v-9.333A0,0,0,0,1,136,230.667Z" fill="#a55528"/><rect x="40" y="348" width="384" height="136" rx="16" ry="16" fill="#aac3d7"/><rect x="40" y="348" width="384" height="112" rx="16" ry="16" fill="#d7e6e6"/><rect x="189.333" y="388" width="154.667" height="32" fill="#555"/><rect x="189.333" y="396" width="154.667" height="8" fill="#828787"/><path d="M120,452a48.054,48.054,0,0,1-48-48V388h32v16a16,16,0,0,0,32,0,16,16,0,0,1,16-16h37.333v32H165.258A48.082,48.082,0,0,1,120,452Z" fill="#e13741"/><path d="M94.633,366.733,88,380l-6.633-13.267A4.946,4.946,0,0,0,76.944,364h0A4.945,4.945,0,0,0,72,368.944V388h32V368.944A4.945,4.945,0,0,0,99.056,364h0A4.946,4.946,0,0,0,94.633,366.733Z" fill="#ff7373"/><path d="M152,396h33.333a4,4,0,0,1,4,4v0a4,4,0,0,1-4,4H152a0,0,0,0,1,0,0v-8A0,0,0,0,1,152,396Z" transform="translate(341.333 800) rotate(-180)" fill="#ff7373"/><rect x="40" y="28" width="384" height="136" rx="16" ry="16" fill="#aac3d7"/><rect x="40" y="28" width="384" height="112" rx="16" ry="16" fill="#d7e6e6"/><path d="M440,308h32a0,0,0,0,1,0,0v16a16,16,0,0,1-16,16h0a16,16,0,0,1-16-16V308A0,0,0,0,1,440,308Z" transform="translate(912 648) rotate(180)" fill="#fab991"/><path d="M408,308h32a0,0,0,0,1,0,0v16a16,16,0,0,1-16,16h0a16,16,0,0,1-16-16V308A0,0,0,0,1,408,308Z" transform="translate(848 648) rotate(180)" fill="#fab991"/><path d="M376,308h32a0,0,0,0,1,0,0v16a16,16,0,0,1-16,16h0a16,16,0,0,1-16-16V308a0,0,0,0,1,0,0Z" transform="translate(784 648) rotate(180)" fill="#fab991"/><path d="M344,236h32a0,0,0,0,1,0,0v88a16,16,0,0,1-16,16h0a16,16,0,0,1-16-16V236A0,0,0,0,1,344,236Z" transform="translate(720 576) rotate(180)" fill="#fab991"/><path d="M344,340V460H456V436a16,16,0,0,0,16-16V340Z" fill="#f0915a"/><path d="M344,436h56a0,0,0,0,1,0,0v24a0,0,0,0,1,0,0H368a24,24,0,0,1-24-24v0A0,0,0,0,1,344,436Z" transform="translate(744 896) rotate(180)" fill="#fab991"/><path d="M312,340h0a32,32,0,0,1,32,32v56a8,8,0,0,1-8,8h0a24,24,0,0,1-24-24V340A0,0,0,0,1,312,340Z" transform="translate(656 776) rotate(180)" fill="#fab991"/><path d="M344,460H456a16,16,0,0,1,16,16v8a0,0,0,0,1,0,0H328a0,0,0,0,1,0,0v-8A16,16,0,0,1,344,460Z" fill="#555a6e"/><path d="M400,460h56a16,16,0,0,1,16,16v8a0,0,0,0,1,0,0H400a0,0,0,0,1,0,0V460A0,0,0,0,1,400,460Z" fill="#463c4b"/><circle cx="360" cy="252" r="8" fill="#f0915a"/><path d="M312,348h0a18.667,18.667,0,0,1,18.667,18.667v0A5.333,5.333,0,0,1,325.333,372H312a0,0,0,0,1,0,0V348A0,0,0,0,1,312,348Z" fill="#f0915a"/><path d="M234.79,116H104A32,32,0,0,1,72,84h0a32,32,0,0,1,32-32H234.79a180,180,0,0,1,56.921,9.237L312,68v32l-20.289,6.763A180,180,0,0,1,234.79,116Z" fill="#faa51e"/><rect x="312" y="68" width="48" height="32" fill="#555"/><rect x="312" y="84" width="48" height="16" fill="#3c3c3c"/><rect x="360" y="52" width="24" height="64" rx="12" ry="12" fill="#faa51e"/><path d="M360,84h24a0,0,0,0,1,0,0v20a12,12,0,0,1-12,12h0a12,12,0,0,1-12-12V84A0,0,0,0,1,360,84Z" fill="#f06423"/><path d="M312,84H72a32,32,0,0,0,32,32H234.79a180,180,0,0,0,56.921-9.237L312,100Z" fill="#f06423"/><rect x="96" y="60" width="152" height="8" rx="4" ry="4" fill="#ffc33c"/></svg>