<svg xmlns="http://www.w3.org/2000/svg" viewBox="0 0 512 512"><title>70 Rage Room Icons - Expanded</title><circle cx="256" cy="256" r="240" fill="#f05555"/><path d="M425.706,86.294c-.1-.1-.195-.188-.292-.284l-339.4,339.4c.1.1.188.195.284.292,93.726,93.725,245.686,93.725,339.412,0S519.431,180.02,425.706,86.294Z" fill="#e13741"/><circle cx="256" cy="256" r="176" fill="#d7e6e6"/><path d="M40,268a12,12,0,0,1-12-12A228,228,0,0,1,256,28a12,12,0,0,1,0,24C143.514,52,52,143.514,52,256A12,12,0,0,1,40,268Z" fill="#ff7373"/><path d="M341.98,165.98l-30.627-30.627a16,16,0,0,0-11.314-4.686H282.667L271.1,148.01a14.947,14.947,0,0,1-24.875,0l-11.562-17.343H217.294a16,16,0,0,0-11.314,4.686L175.353,165.98a16,16,0,0,0-4.686,11.314v89.373a8,8,0,0,0,8,8h16a8,8,0,0,0,8-8v-80l8-8v200a8,8,0,0,0,8,8h24a8,8,0,0,0,8-8V266.941a8.182,8.182,0,0,1,7.467-8.257,8,8,0,0,1,8.533,7.983v112a8,8,0,0,0,8,8h24a8,8,0,0,0,8-8v-200l8,8v80a8,8,0,0,0,8,8h16a8,8,0,0,0,8-8V177.294A16,16,0,0,0,341.98,165.98Z" fill="#3c3c3c"/></svg>