<svg xmlns="http://www.w3.org/2000/svg" viewBox="0 0 512 512"><title>70 Rage Room Icons - Expanded</title><rect x="152" y="32" width="208" height="224" fill="#faa51e"/><path d="M152,256V488a8,8,0,0,0,8,8h80a8,8,0,0,0,8-8V296a8,8,0,0,1,8-8h0a8,8,0,0,1,8,8V488a8,8,0,0,0,8,8h80a8,8,0,0,0,8-8V256Z" fill="#f06423"/><path d="M200,16H312a19.315,19.315,0,0,0-13.657,5.657L256,64,213.657,21.657A19.315,19.315,0,0,0,200,16Z" fill="#dc4614"/><rect x="152" y="224" width="208" height="32" fill="#dc4614"/><path d="M325.657,21.657a19.314,19.314,0,0,0-27.314,0L256,64,213.657,21.657a19.314,19.314,0,0,0-27.314,0L176,32l42.343,42.343a19.314,19.314,0,0,0,27.314,0L248,72V296a8,8,0,0,1,16,0V72l2.343,2.343a19.314,19.314,0,0,0,27.314,0L336,32Z" fill="#f06423"/><path d="M360,32l81.941,81.941A48,48,0,0,1,456,147.882V248a8,8,0,0,1-8,8H408a8,8,0,0,1-8-8V160l-40-40Z" fill="#f06423"/><path d="M152,32,70.059,113.941A48,48,0,0,0,56,147.882V248a8,8,0,0,0,8,8h40a8,8,0,0,0,8-8V160l40-40Z" fill="#f06423"/><path d="M336,32h24a0,0,0,0,1,0,0V72a0,0,0,0,1,0,0h0a24,24,0,0,1-24-24V32A0,0,0,0,1,336,32Z" fill="#d7e6e6"/><path d="M176,32h0a0,0,0,0,1,0,0V72a0,0,0,0,1,0,0H152a0,0,0,0,1,0,0V56A24,24,0,0,1,176,32Z" transform="translate(328 104) rotate(180)" fill="#d7e6e6"/><rect x="400" y="160" width="56" height="24" fill="#aac3d7"/><rect x="56" y="160" width="56" height="24" fill="#aac3d7"/><rect x="152" y="392" width="96" height="24" fill="#aac3d7"/><rect x="264" y="392" width="96" height="24" fill="#aac3d7"/><path d="M300,112h32a4,4,0,0,1,4,4v16a20,20,0,0,1-20,20h0a20,20,0,0,1-20-20V116a4,4,0,0,1,4-4Z" fill="#f06423"/><path d="M180,112h32a4,4,0,0,1,4,4v16a20,20,0,0,1-20,20h0a20,20,0,0,1-20-20V116a4,4,0,0,1,4-4Z" fill="#f06423"/></svg>