<svg xmlns="http://www.w3.org/2000/svg" viewBox="0 0 512 512"><title>70 Rage Room Icons - Expanded</title><path d="M184,16H424a32,32,0,0,1,32,32V496a0,0,0,0,1,0,0H152a0,0,0,0,1,0,0V48A32,32,0,0,1,184,16Z" fill="#aac3d7"/><path d="M184,16H392a32,32,0,0,1,32,32V496a0,0,0,0,1,0,0H152a0,0,0,0,1,0,0V48A32,32,0,0,1,184,16Z" fill="#d7e6e6"/><path d="M216,48H376a16,16,0,0,1,16,16V496a0,0,0,0,1,0,0H200a0,0,0,0,1,0,0V64A16,16,0,0,1,216,48Z" fill="#3c3c3c"/><path d="M216,48H360a0,0,0,0,1,0,0V496a0,0,0,0,1,0,0H200a0,0,0,0,1,0,0V64A16,16,0,0,1,216,48Z" fill="#f05555"/><rect x="224" y="80" width="112" height="208" rx="8" ry="8" fill="#e13741"/><rect x="224" y="320" width="112" height="144" rx="8" ry="8" fill="#e13741"/><path d="M200,496H184V64a16,16,0,0,1,16-16h16a16,16,0,0,0-16,16Z" fill="#aac3d7"/><circle cx="349.333" cy="253.333" r="8" fill="#3c3c3c"/><circle cx="362.667" cy="253.333" r="16" fill="#faa51e"/><circle cx="370.667" cy="253.333" r="8" fill="#f06423"/><circle cx="168" cy="256" r="112" fill="#faa51e"/><path d="M233.562,289.562l-9.239-9.239a19.252,19.252,0,0,0-22.273-3.607L147.284,221.95a19.3,19.3,0,0,0,2.049-8.617h0a19.312,19.312,0,0,0-5.656-13.656l-9.239-9.239a12.876,12.876,0,0,0-9.1-3.771h-1.791a8.552,8.552,0,0,0-6.047,2.5,4,4,0,0,0,0,5.656l12.3,12.3a7.543,7.543,0,0,1-10.667,10.667l-12.3-12.3a4,4,0,0,0-5.656,0,8.552,8.552,0,0,0-2.5,6.047v1.791a12.876,12.876,0,0,0,3.771,9.1l9.239,9.238a19.25,19.25,0,0,0,22.273,3.608l54.766,54.766a19.252,19.252,0,0,0,3.607,22.273l9.239,9.239a12.876,12.876,0,0,0,9.1,3.771h1.791a8.552,8.552,0,0,0,6.047-2.505h0a4,4,0,0,0,0-5.656l-12.3-12.3a7.543,7.543,0,0,1,10.667-10.667l12.3,12.3a4,4,0,0,0,5.656,0,8.552,8.552,0,0,0,2.5-6.047v-1.791A12.876,12.876,0,0,0,233.562,289.562Z" fill="#463c4b"/><path d="M147.357,278.024l-1.381-1.381A15.852,15.852,0,0,0,134.767,272h-.2a15.852,15.852,0,0,0-11.209,4.643L103.31,296.69A15.852,15.852,0,0,0,98.667,307.9v.2a15.852,15.852,0,0,0,4.643,11.209l1.481,1.481a15.851,15.851,0,0,0,10.965,4.641h0a15.852,15.852,0,0,0,11.453-4.641l20.148-20.148A15.852,15.852,0,0,0,152,289.434v-.2A15.852,15.852,0,0,0,147.357,278.024Z" fill="#5a7db9"/><path d="M221.333,186.667l-12,12a11.3,11.3,0,0,0-2.921,10.921l-65.079,65.079,8,8,65.079-65.079a11.3,11.3,0,0,0,10.921-2.921l12-12Z" fill="#463c4b"/><path d="M147.357,300.643A15.852,15.852,0,0,0,152,289.434v-.2a15.852,15.852,0,0,0-4.643-11.209l-.69-.691L104,320l.791.791a15.852,15.852,0,0,0,22.418,0Z" fill="#5055a5"/></svg>