<svg xmlns="http://www.w3.org/2000/svg" viewBox="0 0 512 512"><title>70 Rage Room Icons - Expanded</title><path d="M357.823,90.177a15.949,15.949,0,0,1-11.314-4.687,128,128,0,0,0-181.018,0,16,16,0,1,1-22.628-22.627,160,160,0,0,1,226.274,0,16,16,0,0,1-11.314,27.314Z" fill="#5a7db9"/><path d="M312.568,135.432a15.949,15.949,0,0,1-11.314-4.687,64,64,0,0,0-90.508,0,16,16,0,1,1-22.628-22.627,96,96,0,0,1,135.764,0,16,16,0,0,1-11.314,27.314Z" fill="#5a7db9"/><circle cx="256" cy="176" r="32" fill="#5a7db9"/><rect x="48" y="192" width="416" height="192" rx="96" ry="96" fill="#faa51e"/><path d="M424.54,235.46a3.993,3.993,0,0,1-2.83-1.172A75.443,75.443,0,0,0,368,212H144a75.443,75.443,0,0,0-53.71,22.288,4,4,0,1,1-5.66-5.656A83.4,83.4,0,0,1,144,204H368a83.4,83.4,0,0,1,59.37,24.632,4,4,0,0,1-2.83,6.828Z" fill="#ffc33c"/><path d="M368,384H144a96.108,96.108,0,0,1-96-96,16,16,0,0,1,32,0,64.072,64.072,0,0,0,64,64H368a64.072,64.072,0,0,0,64-64,16,16,0,0,1,32,0A96.108,96.108,0,0,1,368,384Z" fill="#f06423"/><rect x="80" y="224" width="352" height="128" rx="64" ry="64" fill="#d7e6e6"/><path d="M251.333,268a26.029,26.029,0,0,0-26-26h-20a6,6,0,0,0-6,6v80a6,6,0,0,0,12,0V294h6.6l22.252,37.087a6,6,0,0,0,10.291-6.174l-18.993-31.655A26.04,26.04,0,0,0,251.333,268Zm-26,14h-14V254h14a14,14,0,0,1,0,28Z" fill="#e13741"/><path d="M186.667,242h-40a6,6,0,0,0-6,6v80a6,6,0,0,0,12,0V294h18a6,6,0,1,0,0-12h-18V254h34a6,6,0,1,0,0-12Z" fill="#e13741"/><path d="M309.333,254a6,6,0,1,0,0-12h-40a6,6,0,0,0-6,6v80a6,6,0,0,0,6,6h40a6,6,0,1,0,0-12h-34V294h18a6,6,0,1,0,0-12h-18V254Z" fill="#e13741"/><path d="M370.667,322h-34V294h18a6,6,0,0,0,0-12h-18V254h34a6,6,0,0,0,0-12h-40a6,6,0,0,0-6,6v80a6,6,0,0,0,6,6h40a6,6,0,0,0,0-12Z" fill="#e13741"/><path d="M322.343,424H288V384H224v40H189.657a5.657,5.657,0,0,0-4,9.657l56.686,56.686a19.314,19.314,0,0,0,27.314,0l56.686-56.686a5.657,5.657,0,0,0-4-9.657Z" fill="#f06423"/></svg>