<svg xmlns="http://www.w3.org/2000/svg" viewBox="0 0 512 512"><title>70 Rage Room Icons - Expanded</title><path d="M252,40h0A160,160,0,0,0,92,200V488H252V440h96a64,64,0,0,0,64-64V200A160,160,0,0,0,252,40Z" fill="#fab991"/><path d="M140,440H252a0,0,0,0,1,0,0v48a0,0,0,0,1,0,0H92a0,0,0,0,1,0,0v0A48,48,0,0,1,140,440Z" fill="#f0915a"/><path d="M348,24H204A144,144,0,0,0,60,168h0V376a32,32,0,0,0,32,32h80a32,32,0,0,0,32-32V248h48a48,48,0,0,1,48-48H412a32,32,0,0,0,32-32V120A96,96,0,0,0,348,24Z" fill="#3c3c3c"/><path d="M204,248a48,48,0,0,0,0,96Z" fill="#f0915a"/><path d="M316,368h53.333a16,16,0,0,1,16,16v8a0,0,0,0,1,0,0H300a0,0,0,0,1,0,0v-8A16,16,0,0,1,316,368Z" fill="#fff"/><rect x="340" y="280" width="48" height="64" rx="24" ry="24" fill="#f0915a"/><path d="M460,200V312a16,16,0,0,1-16,16H404a16,16,0,0,1-16-16v-8a24,24,0,0,0-24-24h0a24,24,0,0,0-24,24v8a16,16,0,0,1-16,16H220a16,16,0,0,1-16-16V200a16,16,0,0,1,16-16H444A16,16,0,0,1,460,200Z" fill="#5055a5"/><path d="M460,200V312a16,16,0,0,1-16,16H404a16,16,0,0,1-16-16v-8a24,24,0,0,0-24-24h0a24,24,0,0,0-24,24v8a16,16,0,0,1-16,16H276a16,16,0,0,1-16-16V200a16,16,0,0,1,16-16H444A16,16,0,0,1,460,200Z" fill="#6fa4d8"/><path d="M411.206,184H276a16,16,0,0,0-16,16V312a16,16,0,0,0,16,16h48a16,16,0,0,0,16-16v-8a24,24,0,0,1,48,0v8a16,16,0,0,0,16,16h8V200a31.976,31.976,0,0,0,27.708-16Z" fill="#5a7db9"/><circle cx="380" cy="248" r="16" fill="#5055a5"/><circle cx="300" cy="248" r="16" fill="#5055a5"/><path d="M293.172,225.858h16a0,0,0,0,1,0,0v16a0,0,0,0,1,0,0h-16a8,8,0,0,1-8-8v0a8,8,0,0,1,8-8Z" transform="translate(252.402 -141.637) rotate(45)" fill="#5055a5"/><path d="M378.828,225.858h16a0,0,0,0,1,0,0v16a0,0,0,0,1,0,0h-16a8,8,0,0,1-8-8v0a8,8,0,0,1,8-8Z" transform="translate(818.891 128.52) rotate(135)" fill="#5055a5"/><path d="M414.667,206.667H281.333a4,4,0,0,1,0-8H414.667a4,4,0,0,1,0,8Z" fill="#d7e6e6"/><path d="M441.333,206.667h-8a4,4,0,0,1,0-8h8a4,4,0,0,1,0,8Z" fill="#d7e6e6"/><path d="M444,184H276a16,16,0,0,0-16,16V312a16,16,0,0,0,16,16h48a16,16,0,0,0,16-16v-8a24,24,0,0,1,48,0v8a16,16,0,0,0,16,16h40a16,16,0,0,0,16-16V200A16,16,0,0,0,444,184Zm8,128a8.009,8.009,0,0,1-8,8H404a8.009,8.009,0,0,1-8-8v-8a32,32,0,0,0-64,0v8a8.009,8.009,0,0,1-8,8H276a8.009,8.009,0,0,1-8-8V200a8.009,8.009,0,0,1,8-8H444a8.009,8.009,0,0,1,8,8Z" fill="#5a7db9"/><rect x="52" y="200" width="184" height="48" rx="8" ry="8" fill="#f06423"/></svg>