<svg xmlns="http://www.w3.org/2000/svg" viewBox="0 0 512 512"><title>70 Rage Room Icons - Expanded</title><path d="M264,64H496a0,0,0,0,1,0,0V448a0,0,0,0,1,0,0H264a8,8,0,0,1-8-8V72A8,8,0,0,1,264,64Z" transform="translate(752 512) rotate(180)" fill="#d7e6e6"/><path d="M344,320H496a0,0,0,0,1,0,0V448a0,0,0,0,1,0,0H344a8,8,0,0,1-8-8V328A8,8,0,0,1,344,320Z" transform="translate(832 768) rotate(180)" fill="#3c3c3c"/><path d="M16,64H248a8,8,0,0,1,8,8V440a8,8,0,0,1-8,8H16a0,0,0,0,1,0,0V64A0,0,0,0,1,16,64Z" transform="translate(272 512) rotate(180)" fill="#aac3d7"/><path d="M344,320H448a0,0,0,0,1,0,0V448a0,0,0,0,1,0,0H344a8,8,0,0,1-8-8V328A8,8,0,0,1,344,320Z" transform="translate(784 768) rotate(180)" fill="#555"/><rect x="256" y="320" width="80" height="128" transform="translate(592 768) rotate(180)" fill="#faa51e"/><rect x="272" y="336" width="48" height="96" rx="8" ry="8" transform="translate(592 768) rotate(180)" fill="#f06423"/><rect x="192" y="320" width="64" height="128" transform="translate(448 768) rotate(180)" fill="#faa51e"/><rect x="208" y="336" width="48" height="96" rx="8" ry="8" transform="translate(464 768) rotate(180)" fill="#f06423"/><rect x="16" y="160" width="176" height="288" rx="8" ry="8" transform="translate(208 608) rotate(180)" fill="#6fa4d8"/><path d="M64,160H184a8,8,0,0,1,8,8V440a8,8,0,0,1-8,8H72a8,8,0,0,1-8-8V160A0,0,0,0,1,64,160Z" transform="translate(256 608) rotate(180)" fill="#5a7db9"/><rect x="352" y="352" width="80" height="80" rx="8" ry="8" transform="translate(784 784) rotate(180)" fill="#6fa4d8"/><path d="M424,414.343V364a4,4,0,0,0-4-4H369.657a4,4,0,0,0-2.829,6.828l50.344,50.344A4,4,0,0,0,424,414.343Z" fill="#d7e6e6"/><circle cx="288" cy="384" r="8" fill="#d7e6e6"/><circle cx="240" cy="384" r="8" fill="#d7e6e6"/><circle cx="424" cy="336" r="8" fill="#aac3d7"/><circle cx="392" cy="336" r="8" fill="#aac3d7"/><circle cx="360" cy="336" r="8" fill="#aac3d7"/><path d="M392,269.333h48a8,8,0,0,1,8,8V304a16,16,0,0,1-16,16H400a16,16,0,0,1-16-16V277.333A8,8,0,0,1,392,269.333Z" fill="#e13741"/><path d="M440,269.334H392a8,8,0,0,0-8,8V304h32V281.333a4,4,0,0,1,4-4h28A8,8,0,0,0,440,269.334Z" fill="#f05555"/><path d="M460,269.333h-8a4,4,0,0,0-4,4V288h4a4,4,0,0,0,4-4v-6.667h4a4,4,0,0,0,4-4h0A4,4,0,0,0,460,269.333Z" fill="#3c3c3c"/><path d="M372,269.333h8a4,4,0,0,1,4,4V288h-4a4,4,0,0,1-4-4v-6.667h-4a4,4,0,0,1-4-4h0A4,4,0,0,1,372,269.333Z" fill="#3c3c3c"/><rect x="64" y="256" width="128" height="8" fill="#3c3c3c"/><rect x="56" y="256" width="8" height="8" transform="translate(120 520) rotate(180)" fill="#555"/><rect x="72" y="184" width="16" height="8" rx="4" ry="4" fill="#aac3d7"/><rect x="72" y="232" width="16" height="8" rx="4" ry="4" fill="#aac3d7"/><rect x="80" y="184" width="8" height="56" rx="4" ry="4" fill="#d7e6e6"/><rect x="72" y="288" width="16" height="8" rx="4" ry="4" fill="#aac3d7"/><rect x="72" y="336" width="16" height="8" rx="4" ry="4" fill="#aac3d7"/><rect x="80" y="288" width="8" height="56" rx="4" ry="4" fill="#d7e6e6"/><rect x="352" y="64" width="112" height="112" fill="#aac3d7"/><rect x="432" y="64" width="32" height="112" fill="#738ca0"/><path d="M352,176H464a0,0,0,0,1,0,0v56a0,0,0,0,1,0,0H328a8,8,0,0,1-8-8V208A32,32,0,0,1,352,176Z" fill="#aac3d7"/><path d="M432,176h32a0,0,0,0,1,0,0v56a0,0,0,0,1,0,0H408a8,8,0,0,1-8-8V208A32,32,0,0,1,432,176Z" fill="#738ca0"/><circle cx="256" cy="144" r="16" fill="#faa51e"/><path d="M245.333,112h21.333a32,32,0,0,1,32,32v0a0,0,0,0,1,0,0H213.333a0,0,0,0,1,0,0v0a32,32,0,0,1,32-32Z" fill="#3c3c3c"/><rect x="248" y="64" width="16" height="48" fill="#738ca0"/></svg>