<svg xmlns="http://www.w3.org/2000/svg" viewBox="0 0 512 512"><title>70 Rage Room Icons - Expanded</title><path d="M272,64H496a0,0,0,0,1,0,0V448a0,0,0,0,1,0,0H264a8,8,0,0,1-8-8V80a16,16,0,0,1,16-16Z" transform="translate(752 512) rotate(180)" fill="#d7e6e6"/><path d="M16,64H251a5,5,0,0,1,5,5V443a5,5,0,0,1-5,5H16a0,0,0,0,1,0,0V64A0,0,0,0,1,16,64Z" transform="translate(272 512) rotate(180)" fill="#aac3d7"/><rect x="248" y="208" width="16" height="240" transform="translate(512 656) rotate(180)" fill="#784119"/><rect x="248" y="208" width="8" height="240" transform="translate(504 656) rotate(180)" fill="#a55528"/><path d="M360,256H496a0,0,0,0,1,0,0V424a24,24,0,0,1-24,24H376a24,24,0,0,1-24-24V264a8,8,0,0,1,8-8Z" transform="translate(848 703.996) rotate(180)" fill="#e13741"/><path d="M240.452,352H352V280.536c0-13.455,11.011-24.791,24.464-24.536A24,24,0,0,1,400,280V440a8,8,0,0,1-8,8H248a8,8,0,0,1-8-8V384a16,16,0,0,1-15.982-16.773C224.423,358.621,231.836,352,240.452,352Z" fill="#f05555"/><path d="M352,352v32a16,16,0,0,1,0-32Z" fill="#e13741"/><path d="M256,384h96a0,0,0,0,1,0,0v16a0,0,0,0,1,0,0H240a0,0,0,0,1,0,0v0A16,16,0,0,1,256,384Z" transform="translate(592 784) rotate(-180)" fill="#e13741"/><rect x="16" y="320" width="208" height="112" rx="8" ry="8" transform="translate(240 752) rotate(180)" fill="#784119"/><rect x="16" y="320" width="64" height="112" rx="8" ry="8" transform="translate(96 752) rotate(-180)" fill="#a55528"/><rect x="24" y="432" width="8" height="16" transform="translate(56 880) rotate(180)" fill="#555"/><rect x="64" y="432" width="8" height="16" transform="translate(136 880) rotate(180)" fill="#555"/><rect x="168" y="432" width="8" height="16" transform="translate(344 880) rotate(180)" fill="#3c3c3c"/><rect x="208" y="432" width="8" height="16" transform="translate(424 880) rotate(180)" fill="#3c3c3c"/><rect x="160" y="336" width="48" height="80" rx="4" ry="4" transform="translate(368 752) rotate(180)" fill="#a55528"/><rect x="96" y="336" width="48" height="80" rx="4" ry="4" transform="translate(240 752) rotate(180)" fill="#a55528"/><circle cx="129.333" cy="376" r="6.667" fill="#faa51e"/><circle cx="174.667" cy="376" r="6.667" fill="#faa51e"/><rect x="40" y="208" width="152" height="96" rx="8" ry="8" transform="translate(232 512) rotate(180)" fill="#555"/><rect x="48" y="208" width="144" height="96" rx="8" ry="8" fill="#3c3c3c"/><path d="M56,283.676V224a8,8,0,0,1,8-8h59.676a4,4,0,0,1,2.829,6.828L62.828,286.505A4,4,0,0,1,56,283.676Z" fill="#555"/><rect x="104" y="301.333" width="24" height="18.667" transform="translate(232 621.333) rotate(180)" fill="#3c3c3c"/><path d="M88,312h56a0,0,0,0,1,0,0v0a8,8,0,0,1-8,8H96a8,8,0,0,1-8-8v0A0,0,0,0,1,88,312Z" transform="translate(232 632) rotate(180)" fill="#555"/><path d="M256,128h40a8,8,0,0,1,8,8v64a8,8,0,0,1-8,8H256a0,0,0,0,1,0,0V128A0,0,0,0,1,256,128Z" fill="#f06423"/><path d="M216,128h40a0,0,0,0,1,0,0v80a0,0,0,0,1,0,0H216a8,8,0,0,1-8-8V136A8,8,0,0,1,216,128Z" fill="#faa51e"/><rect x="226.667" y="128" width="10.667" height="80" fill="#ffc33c"/><path d="M354.171,114.532A7.966,7.966,0,0,0,352,120v96a7.966,7.966,0,0,0,2.171,5.468L400,168Z" fill="#784119"/><path d="M445.829,114.532A7.974,7.974,0,0,0,440,112H360a7.974,7.974,0,0,0-5.829,2.532L400,168Z" fill="#784119"/><path d="M400,168l45.829,53.468A7.966,7.966,0,0,0,448,216V120a7.966,7.966,0,0,0-2.171-5.468Z" fill="#a55528"/><path d="M354.171,221.468A7.974,7.974,0,0,0,360,224h80a7.974,7.974,0,0,0,5.829-2.532L400,168Z" fill="#a55528"/><rect x="368" y="128" width="64" height="80" rx="4" ry="4" fill="#aac3d7"/><path d="M413.459,160.631a16,16,0,1,0-26.918,0A24.005,24.005,0,0,0,368,184v20a4,4,0,0,0,4,4h56a4,4,0,0,0,4-4V184A24.005,24.005,0,0,0,413.459,160.631Z" fill="#738ca0"/></svg>