<svg xmlns="http://www.w3.org/2000/svg" viewBox="0 0 512 512"><title>70 Rage Room Icons - Expanded</title><circle cx="256" cy="256" r="176" fill="#d7e6e6"/><path d="M256,112h0a21.412,21.412,0,0,0-14.3,5.476C219.174,137.687,144,210.916,144,288a112,112,0,0,0,224,0c0-77.084-75.174-150.313-97.7-170.524A21.412,21.412,0,0,0,256,112Z" fill="#5a7db9"/><path d="M176,304a16,16,0,0,1-16-16c0-39.647,23.5-79.148,43.223-105.3a16,16,0,0,1,25.552,19.264C204.717,233.873,192,263.625,192,288A16,16,0,0,1,176,304Z" fill="#6fa4d8"/><path d="M270.3,117.476A21.407,21.407,0,0,0,256,112V288a56,56,0,0,1-112,0,112,112,0,0,0,224,0C368,210.916,292.826,137.687,270.3,117.476Z" fill="#5055a5"/><path d="M425.71,425.71c-93.73,93.72-245.69,93.72-339.42,0l45.26-45.26a176.045,176.045,0,0,0,224.21,20.57L233.37,278.63l45.26-45.26L401.02,355.76a176.045,176.045,0,0,0-20.57-224.21l45.26-45.26C519.43,180.02,519.43,331.98,425.71,425.71Z" fill="#e13741"/><path d="M86.29,86.29c93.73-93.72,245.69-93.72,339.42,0l-45.26,45.26a176.045,176.045,0,0,0-224.21-20.57L278.63,233.37l-45.26,45.26L110.98,156.24a176.045,176.045,0,0,0,20.57,224.21L86.29,425.71C-7.43,331.98-7.43,180.02,86.29,86.29Z" fill="#f05555"/><path d="M40,268a12,12,0,0,1-12-12A228,228,0,0,1,256,28a12,12,0,0,1,0,24C143.514,52,52,143.514,52,256A12,12,0,0,1,40,268Z" fill="#ff7373"/></svg>