<svg xmlns="http://www.w3.org/2000/svg" viewBox="0 0 512 512"><title>70 Rage Room Icons - Expanded</title><path d="M112,16H400a32,32,0,0,1,32,32V496a0,0,0,0,1,0,0H80a0,0,0,0,1,0,0V48A32,32,0,0,1,112,16Z" fill="#aac3d7"/><path d="M112,16H368a32,32,0,0,1,32,32V496a0,0,0,0,1,0,0H80a0,0,0,0,1,0,0V48A32,32,0,0,1,112,16Z" fill="#d7e6e6"/><path d="M144,48H352a16,16,0,0,1,16,16V496a0,0,0,0,1,0,0H128a0,0,0,0,1,0,0V64A16,16,0,0,1,144,48Z" fill="#6fa4d8"/><polygon points="328 176 328 192 312 192 312 256 264 256 264 192 256 187.429 256 168 248 168 248 182.857 208 160 208 328 176 328 176 256 128 256 128 496 368 496 368 176 328 176" fill="#5a7db9"/><path d="M128,496H112V64a16,16,0,0,1,16-16h16a16,16,0,0,0-16,16Z" fill="#aac3d7"/><path d="M168,368h0a40,40,0,0,1,40,40v88a0,0,0,0,1,0,0H128a0,0,0,0,1,0,0V408A40,40,0,0,1,168,368Z" fill="#91be41"/><path d="M248,368h0a40,40,0,0,1,40,40v88a0,0,0,0,1,0,0H208a0,0,0,0,1,0,0V408A40,40,0,0,1,248,368Z" fill="#69a541"/><path d="M328,368h0a40,40,0,0,1,40,40v88a0,0,0,0,1,0,0H288a0,0,0,0,1,0,0V408A40,40,0,0,1,328,368Z" fill="#91be41"/><path d="M339.757,443.757,334,449.515v-23.03l14.243-14.242a6,6,0,0,0-8.486-8.486L328,415.515l-11.757-11.758a6,6,0,0,0-8.486,8.486L322,426.485v23.03l-5.757-5.758a6,6,0,0,0-8.486,8.486L322,466.485V496h12V466.485l14.243-14.242a6,6,0,0,0-8.486-8.486Z" fill="#a55528"/><path d="M259.757,443.757,254,449.515v-23.03l14.243-14.242a6,6,0,0,0-8.486-8.486L248,415.515l-11.757-11.758a6,6,0,0,0-8.486,8.486L242,426.485v23.03l-5.757-5.758a6,6,0,0,0-8.486,8.486L242,466.485V496h12V466.485l14.243-14.242a6,6,0,0,0-8.486-8.486Z" fill="#a55528"/><path d="M179.757,443.757,174,449.515v-23.03l14.243-14.242a6,6,0,0,0-8.486-8.486L168,415.515l-11.757-11.758a6,6,0,0,0-8.486,8.486L162,426.485v23.03l-5.757-5.758a6,6,0,0,0-8.486,8.486L162,466.485V496h12V466.485l14.243-14.242a6,6,0,0,0-8.486-8.486Z" fill="#a55528"/><rect x="240" y="112" width="32" height="16" rx="8" ry="8" fill="#d7e6e6"/><rect x="160" y="192" width="24" height="16" rx="8" ry="8" fill="#d7e6e6"/><path d="M184,112h8a8,8,0,0,0,8-8h0a8,8,0,0,0-8-8H128v80h24a8,8,0,0,0,8-8h0a8,8,0,0,0-8-8h0a8,8,0,0,1-8-8h0a8,8,0,0,1,8-8h64a8,8,0,0,0,8-8h0a8,8,0,0,0-8-8H184a8,8,0,0,1-8-8h0A8,8,0,0,1,184,112Z" fill="#d7e6e6"/><path d="M368,80H344a8,8,0,0,0,0,16h8a8,8,0,0,1,0,16H320a8,8,0,0,0,0,16h48Z" fill="#d7e6e6"/></svg>