<svg xmlns="http://www.w3.org/2000/svg" viewBox="0 0 512 512"><title>70 Rage Room Icons - Expanded</title><path d="M184,16H424a32,32,0,0,1,32,32V496a0,0,0,0,1,0,0H152a0,0,0,0,1,0,0V48A32,32,0,0,1,184,16Z" fill="#aac3d7"/><path d="M184,16H392a32,32,0,0,1,32,32V496a0,0,0,0,1,0,0H152a0,0,0,0,1,0,0V48A32,32,0,0,1,184,16Z" fill="#d7e6e6"/><path d="M216,48H376a16,16,0,0,1,16,16V496a0,0,0,0,1,0,0H200a0,0,0,0,1,0,0V64A16,16,0,0,1,216,48Z" fill="#3c3c3c"/><path d="M216,48H360a0,0,0,0,1,0,0V496a0,0,0,0,1,0,0H200a0,0,0,0,1,0,0V64A16,16,0,0,1,216,48Z" fill="#f05555"/><rect x="224" y="80" width="112" height="208" rx="8" ry="8" fill="#e13741"/><rect x="224" y="320" width="112" height="144" rx="8" ry="8" fill="#e13741"/><path d="M200,496H184V64a16,16,0,0,1,16-16h16a16,16,0,0,0-16,16Z" fill="#aac3d7"/><circle cx="349.333" cy="253.333" r="8" fill="#3c3c3c"/><circle cx="362.667" cy="253.333" r="16" fill="#faa51e"/><circle cx="370.667" cy="253.333" r="8" fill="#f06423"/><circle cx="168" cy="256" r="112" fill="#6fa4d8"/><path d="M208,224H192V208a24,24,0,0,0-48,0v16H128V208a40,40,0,0,1,80,0Z" fill="#d7e6e6"/><rect x="112" y="224" width="112" height="104" rx="8" ry="8" fill="#555"/><path d="M112,304v16a8,8,0,0,0,8,8h96a8,8,0,0,0,8-8V304Z" fill="#faa51e"/><polygon points="152 304 136 304 120 328 136 328 152 304" fill="#3c3c3c"/><polygon points="184 304 168 304 152 328 168 328 184 304" fill="#3c3c3c"/><polygon points="216 304 200 304 184 328 200 328 216 304" fill="#3c3c3c"/><path d="M184,256a16,16,0,1,0-24,13.842V280a8,8,0,0,0,8,8h0a8,8,0,0,0,8-8V269.842A15.98,15.98,0,0,0,184,256Z" fill="#3c3c3c"/></svg>