<svg xmlns="http://www.w3.org/2000/svg" viewBox="0 0 512 512"><title>70 Rage Room Icons - Expanded</title><path d="M191.536,96C204.989,95.745,216,107.081,216,120.536v79.189a8.182,8.182,0,0,0,7.467,8.257A8,8,0,0,0,232,200V72.54C232,59.085,243.011,47.749,256.464,48A24,24,0,0,1,280,72V199.725a8.183,8.183,0,0,0,7.467,8.258A8,8,0,0,0,296,200V40.54C296,27.085,307.011,15.749,320.464,16A24,24,0,0,1,344,40V199.725a8.183,8.183,0,0,0,7.467,8.258A8,8,0,0,0,360,200V72.54C360,59.085,371.011,47.749,384.464,48A24,24,0,0,1,408,72V264a8,8,0,0,0,8,8h0a8,8,0,0,0,8-8V216a24,24,0,0,1,24-24h0a24,24,0,0,1,24,24v67.549a88,88,0,0,1-25.775,62.226l-12.45,12.45A88,88,0,0,0,408,420.451V472a24,24,0,0,1-24,24H224a24,24,0,0,1-24-24V422.627A54.626,54.626,0,0,0,184,384h0a54.626,54.626,0,0,1-16-38.627V120A24,24,0,0,1,191.536,96Z" fill="#3c3c3c"/><path d="M63.536,96C76.989,95.745,88,107.081,88,120.536v79.189a8.182,8.182,0,0,0,7.467,8.257A8,8,0,0,0,104,200V72.54C104,59.085,115.011,47.749,128.464,48A24,24,0,0,1,152,72V199.725a8.183,8.183,0,0,0,7.467,8.258A8,8,0,0,0,168,200V40.54C168,27.085,179.011,15.749,192.464,16A24,24,0,0,1,216,40V199.725a8.183,8.183,0,0,0,7.467,8.258A8,8,0,0,0,232,200V72.54C232,59.085,243.011,47.749,256.464,48A24,24,0,0,1,280,72V264a8,8,0,0,0,8,8h0a8,8,0,0,0,8-8V216a24,24,0,0,1,24-24h0a24,24,0,0,1,24,24v67.549a88,88,0,0,1-25.775,62.226l-12.45,12.45A88,88,0,0,0,280,420.451V472a24,24,0,0,1-24,24H96a24,24,0,0,1-24-24V422.627A54.626,54.626,0,0,0,56,384h0a54.626,54.626,0,0,1-16-38.627V120A24,24,0,0,1,63.536,96Z" fill="#faa51e"/><path d="M344,288V216.54c0-13.455-11.011-24.791-24.464-24.536A24,24,0,0,0,296,216v72a24,24,0,0,0,24,24h0A24,24,0,0,0,344,288Z" fill="#f06423"/><path d="M208,200a8,8,0,0,0,8-8V40a24,24,0,0,0-23.536-24C179.011,15.749,168,27.085,168,40.54V192a8,8,0,0,0,8,8Z" fill="#f06423"/><path d="M272,200a8,8,0,0,0,8-8V72a24,24,0,0,0-23.536-24C243.011,47.749,232,59.085,232,72.54V192a8,8,0,0,0,8,8Z" fill="#f06423"/><path d="M88,192V120.536C88,107.081,76.989,95.745,63.536,96A24,24,0,0,0,40,120v72a8,8,0,0,0,8,8H80A8,8,0,0,0,88,192Z" fill="#f06423"/><path d="M144,200a8,8,0,0,0,8-8V72a24,24,0,0,0-23.536-24C115.011,47.749,104,59.085,104,72.54V192a8,8,0,0,0,8,8Z" fill="#f06423"/><rect x="64" y="224" width="192" height="144" rx="32" ry="32" fill="#f06423"/><rect x="104" y="240" width="16" height="112" rx="8" ry="8" fill="#dc4614"/><rect x="200" y="240" width="16" height="112" rx="8" ry="8" fill="#dc4614"/><rect x="152" y="240" width="16" height="112" rx="8" ry="8" fill="#dc4614"/><rect x="48" y="144" width="32" height="16" rx="8" ry="8" fill="#dc4614"/><rect x="304" y="245.333" width="32" height="16" rx="8" ry="8" fill="#dc4614"/><rect x="112" y="144" width="32" height="16" rx="8" ry="8" fill="#dc4614"/><rect x="176" y="144" width="32" height="16" rx="8" ry="8" fill="#dc4614"/><rect x="240" y="144" width="32" height="16" rx="8" ry="8" fill="#dc4614"/><rect x="112" y="96" width="32" height="16" rx="8" ry="8" fill="#dc4614"/><rect x="176" y="96" width="32" height="16" rx="8" ry="8" fill="#dc4614"/><rect x="240" y="96" width="32" height="16" rx="8" ry="8" fill="#dc4614"/></svg>