<svg xmlns="http://www.w3.org/2000/svg" viewBox="0 0 512 512"><title>70 Rage Room Icons - Expanded</title><rect x="16" y="148" width="480" height="320" rx="16" ry="16" fill="#f06423"/><rect x="16" y="148" width="480" height="304" rx="16" ry="16" fill="#faa51e"/><path d="M48,116H224a32,32,0,0,1,32,32V436a0,0,0,0,1,0,0H48a16,16,0,0,1-16-16V132A16,16,0,0,1,48,116Z" fill="#738ca0"/><path d="M272,116H480a0,0,0,0,1,0,0V404a32,32,0,0,1-32,32H272a16,16,0,0,1-16-16V132A16,16,0,0,1,272,116Z" transform="translate(736 552) rotate(180)" fill="#738ca0"/><path d="M256,436h0a32,32,0,0,0-32-32H48a16,16,0,0,1-16-16V132a16,16,0,0,1,16-16H224a32,32,0,0,1,32,32Z" fill="#d7e6e6"/><path d="M256,436h0a32,32,0,0,1,32-32H464a16,16,0,0,0,16-16V132a16,16,0,0,0-16-16H288a32,32,0,0,0-32,32Z" fill="#aac3d7"/><circle cx="144" cy="116" r="72" fill="#91be41"/><path d="M130.667,149.333a11.963,11.963,0,0,1-8.486-3.515l-16-16a12,12,0,1,1,16.971-16.97l7.515,7.514,31.514-31.514a12,12,0,0,1,16.971,16.97l-40,40A11.963,11.963,0,0,1,130.667,149.333Z" fill="#d7e6e6"/><circle cx="368" cy="116" r="72" fill="#f05555"/><path d="M384.971,116l15.514-15.515a12,12,0,0,0-16.97-16.97L368,99.029,352.485,83.515a12,12,0,0,0-16.97,16.97L351.029,116l-15.514,15.515a12,12,0,1,0,16.97,16.97L368,132.971l15.515,15.514a12,12,0,0,0,16.97-16.97Z" fill="#d7e6e6"/><rect x="104" y="212" width="120" height="24" rx="12" ry="12" fill="#aac3d7"/><circle cx="76" cy="224" r="12" fill="#aac3d7"/><rect x="104" y="276" width="120" height="24" rx="12" ry="12" fill="#aac3d7"/><circle cx="76" cy="288" r="12" fill="#aac3d7"/><rect x="104" y="340" width="120" height="24" rx="12" ry="12" fill="#aac3d7"/><circle cx="76" cy="352" r="12" fill="#aac3d7"/><rect x="328" y="212" width="120" height="24" rx="12" ry="12" fill="#738ca0"/><circle cx="300" cy="224" r="12" fill="#738ca0"/><rect x="328" y="276" width="120" height="24" rx="12" ry="12" fill="#738ca0"/><circle cx="300" cy="288" r="12" fill="#738ca0"/><rect x="328" y="340" width="120" height="24" rx="12" ry="12" fill="#738ca0"/><circle cx="300" cy="352" r="12" fill="#738ca0"/></svg>