<svg xmlns="http://www.w3.org/2000/svg" viewBox="0 0 512 512"><title>70 Rage Room Icons - Expanded</title><path d="M148,40H324a8,8,0,0,1,8,8V288a48,48,0,0,0,48,48h24a80,80,0,0,1,80,80v40a16,16,0,0,1-16,16H292a16,16,0,0,1-16-16H228a16,16,0,0,1-16,16H156a16,16,0,0,1-16-16V48A8,8,0,0,1,148,40Z" fill="#3c3c3c"/><path d="M220,48V288a48,48,0,0,0,48,48h24a80,80,0,0,1,80,80v24H28V48a8,8,0,0,1,8-8H212A8,8,0,0,1,220,48Z" fill="#faa51e"/><path d="M116,440H372v16a16,16,0,0,1-16,16H180a16,16,0,0,1-16-16H116a16,16,0,0,1-16,16H44a16,16,0,0,1-16-16V440Z" fill="#555"/><path d="M28,320h88a0,0,0,0,1,0,0V440a0,0,0,0,1,0,0h0a88,88,0,0,1-88-88V320A0,0,0,0,1,28,320Z" transform="translate(144 760) rotate(180)" fill="#f06423"/><path d="M28,40H220a0,0,0,0,1,0,0V88a8,8,0,0,1-8,8H36a8,8,0,0,1-8-8V40A0,0,0,0,1,28,40Z" transform="translate(248 136) rotate(180)" fill="#f06423"/><path d="M292,336v32a16,16,0,0,1-16,16H212a48,48,0,0,0-48,48v8H372V416a80,80,0,0,0-80-80Z" fill="#f06423"/><path d="M276,368h-8a80.091,80.091,0,0,1-80-80V96a8,8,0,0,1,16,0V288a64.072,64.072,0,0,0,64,64h8a8,8,0,0,1,0,16Z" fill="#ffc33c"/><path d="M188,56h16a0,0,0,0,1,0,0V88a8,8,0,0,1-8,8h0a8,8,0,0,1-8-8V56A0,0,0,0,1,188,56Z" transform="translate(392 152) rotate(180)" fill="#faa51e"/><rect x="300" y="352" width="24" height="16" rx="8" ry="8" transform="translate(624 720) rotate(180)" fill="#faa51e"/></svg>