<svg xmlns="http://www.w3.org/2000/svg" viewBox="0 0 512 512"><title>70 Rage Room Icons - Expanded</title><path d="M336,96A160,160,0,1,0,496,256,160,160,0,0,0,336,96Zm0,184a24,24,0,1,1,24-24A24.006,24.006,0,0,1,336,280Z" fill="#3c3c3c"/><path d="M472,260a4,4,0,0,1-4-4c0-72.785-59.215-132-132-132a4,4,0,0,1,0-8c77.2,0,140,62.8,140,140A4,4,0,0,1,472,260Z" fill="#555"/><path d="M452,260a4,4,0,0,1-4-4A112.127,112.127,0,0,0,336,144a4,4,0,0,1,0-8A120.136,120.136,0,0,1,456,256,4,4,0,0,1,452,260Z" fill="#555"/><path d="M432,260a4,4,0,0,1-4-4,92.1,92.1,0,0,0-92-92,4,4,0,0,1,0-8A100.113,100.113,0,0,1,436,256,4,4,0,0,1,432,260Z" fill="#555"/><path d="M336,184a72,72,0,1,0,72,72A71.994,71.994,0,0,0,336,184Zm0,96a24,24,0,1,1,24-24A24.006,24.006,0,0,1,336,280Z" fill="#f05555"/><rect x="16" y="80" width="320" height="352" rx="8" ry="8" fill="#faa51e"/><rect x="112" y="96" width="128" height="64" rx="8" ry="8" fill="#3c3c3c"/><path d="M232,112H208a8,8,0,0,1-8-8h0a8,8,0,0,0-8-8H160a8,8,0,0,0-8,8h0a8,8,0,0,1-8,8H120a8,8,0,0,0-8,8v16a8,8,0,0,0,8,8h24a8,8,0,0,1,8,8h0a8,8,0,0,0,8,8h32a8,8,0,0,0,8-8h0a8,8,0,0,1,8-8h24a8,8,0,0,0,8-8V120A8,8,0,0,0,232,112Z" fill="#555"/><path d="M232,120H208a16.019,16.019,0,0,1-16-16H160a16.019,16.019,0,0,1-16,16H120a4,4,0,0,1,0-8h24a8.009,8.009,0,0,0,8-8,8.009,8.009,0,0,1,8-8h32a8.009,8.009,0,0,1,8,8,8.009,8.009,0,0,0,8,8h24a4,4,0,0,1,0,8Z" fill="#828787"/><path d="M160,160h32a0,0,0,0,1,0,0V408a8,8,0,0,1-8,8H168a8,8,0,0,1-8-8V160A0,0,0,0,1,160,160Z" fill="#784119"/><path d="M160,173.333h16a0,0,0,0,1,0,0V416a0,0,0,0,1,0,0h-8a8,8,0,0,1-8-8V173.333A0,0,0,0,1,160,173.333Z" fill="#a55528"/><path d="M304,112H274.667a8,8,0,0,0,0,16h-8a8,8,0,0,0,0,16H288V368H250.667a8,8,0,0,0,0,16h-16a8,8,0,0,0,0,16H304a16,16,0,0,0,16-16V128A16,16,0,0,0,304,112Z" fill="#f05555"/><path d="M120,368H66.667V288h0v-5.333a8,8,0,0,0-16,0v-8a8,8,0,0,0-16,0V288h0v96a16,16,0,0,0,16,16H104a8,8,0,0,0,0-16h16a8,8,0,0,0,0-16Z" fill="#f05555"/><path d="M42.667,205.333a8,8,0,0,0,8-8v8a8,8,0,0,0,16,0V192h0V144H80a8,8,0,0,0,0-16h8a8,8,0,0,0,0-16H50.667a16,16,0,0,0-16,16v64h0v5.333A8,8,0,0,0,42.667,205.333Z" fill="#f05555"/><rect x="216" y="200" width="24" height="24" rx="4" ry="4" fill="#f05555"/><rect x="248" y="328" width="24" height="24" rx="4" ry="4" fill="#f05555"/><rect x="75.029" y="240.686" width="33.941" height="22.627" rx="4" ry="4" transform="translate(-151.245 138.863) rotate(-45)" fill="#f05555"/></svg>