<svg id="Layer_1" data-name="Layer 1" xmlns="http://www.w3.org/2000/svg" viewBox="0 0 128 128"><title>Artboard 13</title><path d="M37.985,32.816,78.694,96.28l3.316,5.169a1.045,1.045,0,0,0,1.442.315L102.577,89.5l.481-.309.253.513a5.653,5.653,0,0,1,.366,4.018,5.721,5.721,0,0,1-2.39,3.269L80.26,110.672l0,0a7.937,7.937,0,0,1-4.611,1.565,4.479,4.479,0,0,1-3.549-2.332L24.349,35.467v0a1.515,1.515,0,0,1-.2-1.139,1.536,1.536,0,0,1,.656-.956l.006,0L50.871,16.648a5.7,5.7,0,0,1,7.462,1.2l.36.443-.48.308L38.3,31.374a1.045,1.045,0,0,0-.315,1.442" style="fill:#5ec0c4;fill-rule:evenodd"/><path d="M79.981,110.242,29.145,31.19,25.084,33.8a1.02,1.02,0,0,0-.305,1.4L72.528,109.63c1.725,2.689,4.194,2.7,7.454.612" style="fill:#3ab8b8;fill-rule:evenodd"/><path d="M78.264,96.556l-.009-.014-.008-.013L74.54,90.75l-.014-.021-.012-.019-3.7-5.764-.02-.03-.017-.027-3.693-5.757-.019-.029-.016-.026-3.69-5.752-.022-.034-.019-.031L59.629,67.5l-.017-.026-.014-.023L55.906,61.7l-.023-.034-.019-.031-3.707-5.779v0h0l-3.716-5.793-.012-.018-.01-.016L44.7,44.236l-.006-.009,0-.008-3.72-5.8,0-.005,0,0-3.411-5.318a1.554,1.554,0,0,1,.469-2.147L57.938,18.171a5.187,5.187,0,0,0-6.791-1.093L33.389,28.468l-4.814,3.088-3.486,2.236,0,0a1,1,0,0,0-.436.632,1.012,1.012,0,0,0,.129.76l0,0L57,85.417l.531.828,15,23.385a4.363,4.363,0,0,0,2.455,1.991c1.176.309,2.79.038,5-1.378v0L101.009,96.56a5.2,5.2,0,0,0,2.247-3.261,5.136,5.136,0,0,0-.4-3.373L83.727,102.194a1.554,1.554,0,0,1-2.147-.468ZM26.9,28.94l4.814-3.088L49.468,14.461a8.282,8.282,0,0,1,11.42,2.494l.531.827a1.554,1.554,0,0,1-.469,2.147L41.01,32.721l1.736,2.707L61.991,23.084A1.554,1.554,0,0,1,63.67,25.7L44.424,38.044l2.051,3.2L65.72,28.9A1.554,1.554,0,1,1,67.4,31.512L48.153,43.857l2.05,3.2L69.448,34.709a1.554,1.554,0,1,1,1.679,2.616L51.882,49.67l2.05,3.2L73.177,40.522a1.554,1.554,0,1,1,1.679,2.616L55.61,55.483l2.05,3.2L76.905,46.334a1.553,1.553,0,0,1,1.489-.1l.033.015h0l.033.017h0l.032.017h0l.032.018h0l.032.019h0l.031.02h0l.031.021h0l.03.021h0l.03.022h0l.03.023h0l.029.024h0l.029.025h0l.028.026h0l.028.026h0l.027.027h0l.026.028h0l.026.028h0l.025.029h0l.024.03h0l.023.031h0l.023.032h0l.022.032h0l.022.033h0l.021.033h0l.02.034h0l.019.034h0l.018.035h0l.017.035h0l.016.035a1.554,1.554,0,0,1-.581,1.939L59.339,61.3l2.05,3.2L80.634,52.147a1.553,1.553,0,0,1,1.489-.1l.033.015h0l.033.016h0l.033.017h0l.032.018h0l.032.019h0l.031.02h0l.031.021h0l.031.021h0l.03.022h0l.03.023h0l.029.024h0l.028.024h0l.028.025h0l.027.026h0l.027.027h0l.026.028h0l.026.028h0l.025.029h0l.024.03h0l.024.031h0l.023.032h0l.022.032h0l.021.033h0l.021.034h0l.02.034h0l.019.034h0l.018.034h0l.017.035h0l.016.035a1.554,1.554,0,0,1-.581,1.939L63.067,67.108l2.051,3.2L84.362,57.96a1.546,1.546,0,0,1,.838-.246h.075l.037,0h0l.037,0h0l.037,0h0l.036,0h0l.036.006h0l.036.006h0l.036.007h0l.036.008h0l.035.009h0l.035.01h0l.035.011h0l.034.012h0l.034.012h0l.034.014h0l.034.014h0l.034.015h0l.033.016h0l.033.017h0l.032.017h0l.032.018h0l.032.019h0l.031.02h0l.031.021h0l.03.021h0l.03.022a1.5,1.5,0,0,1,.369.4,1.554,1.554,0,0,1-.469,2.147L66.8,72.921l2.05,3.2L88.091,63.773a1.554,1.554,0,1,1,1.679,2.616L70.524,78.733l2.051,3.2L91.82,69.585A1.554,1.554,0,0,1,93.5,72.2L74.253,84.546l2.05,3.2L95.548,75.4a1.554,1.554,0,0,1,1.679,2.616L77.981,90.359l2.051,3.2L99.276,81.211a1.554,1.554,0,1,1,1.679,2.616L81.71,96.172l1.647,2.567L102.51,86.454a1.554,1.554,0,0,1,2.147.468l.531.827a8.212,8.212,0,0,1,1.109,6.206,8.318,8.318,0,0,1-3.6,5.208L81.666,112.852l-.007,0h0c-3.059,1.962-5.522,2.279-7.467,1.767a7.365,7.365,0,0,1-4.281-3.317l-15-23.385L54.38,87.1,22.216,36.952a1.537,1.537,0,0,1-.119-.188A4.122,4.122,0,0,1,23.3,31.247a1.593,1.593,0,0,1,.186-.122Z" style="fill:#98402f"/></svg>