<svg id="Layer_1" data-name="Layer 1" xmlns="http://www.w3.org/2000/svg" viewBox="0 0 128 128"><title>Artboard 4</title><path d="M91.241,51.328H36.759a3.462,3.462,0,0,1-2.453-1.021l0,0a3.473,3.473,0,0,1-1.022-2.458V25.643a3.438,3.438,0,0,1,.267-1.326,3.5,3.5,0,0,1,.755-1.125l.032-.032a3.832,3.832,0,0,1,1.052-.708,3.314,3.314,0,0,1,1.371-.286H91.241a3.458,3.458,0,0,1,2.451,1.019h0a3.472,3.472,0,0,1,1.022,2.458V47.851a3.44,3.44,0,0,1-.267,1.326,3.5,3.5,0,0,1-.755,1.129l-.332.22-1.732.722Z" style="fill:#5ec0c4;fill-rule:evenodd"/><path d="M80.34,85.231a8.282,8.282,0,1,1,14.138-5.856A8.281,8.281,0,0,1,80.34,85.231m-11.735,0a8.282,8.282,0,1,1-5.856-14.139A8.291,8.291,0,0,1,68.605,85.231ZM80.34,105.043a8.282,8.282,0,1,1,14.138-5.856A8.281,8.281,0,0,1,80.34,105.043ZM48.191,95.868H69.656a3.647,3.647,0,0,1,0,7.295H48.191a9.82,9.82,0,0,1-3.129,1.591,15.566,15.566,0,0,1-11.176-.779C27.558,100.608,30.9,93.6,40.416,93.6A12.933,12.933,0,0,1,48.191,95.868Zm-21.1-23.7V106.4a4.641,4.641,0,0,0,4.625,4.625H96.28a4.641,4.641,0,0,0,4.625-4.625V72.164a4.643,4.643,0,0,0-4.625-4.625H31.72A4.642,4.642,0,0,0,27.095,72.164ZM45.159,85.231A8.282,8.282,0,1,1,39.3,71.093,8.291,8.291,0,0,1,45.159,85.231Z" style="fill:#9f8281;fill-rule:evenodd"/><path d="M44.126,97.245a12.506,12.506,0,0,0-8.78.56c-4.223,2.245,1.034,4.515,5.069,4.515,1.947,0,4.823-.535,6.05-1.764a1.554,1.554,0,0,1,1.15-.507h22.04a.533.533,0,0,0,0-1.066H47.616v0c-1.18,0-.936-.927-3.49-1.733" style="fill:#fff;fill-rule:evenodd"/><path d="M34.135,79.375a5.168,5.168,0,1,0,8.822-3.654,5.174,5.174,0,0,0-8.822,3.654" style="fill:#eb6b75;fill-rule:evenodd"/><path d="M57.582,79.375A5.168,5.168,0,1,0,66.4,75.721a5.173,5.173,0,0,0-8.822,3.654" style="fill:#ffe64c;fill-rule:evenodd"/><path d="M86.2,74.207a5.168,5.168,0,1,0,5.168,5.168A5.173,5.173,0,0,0,86.2,74.207" style="fill:#5ec0c4;fill-rule:evenodd"/><path d="M86.2,94.019a5.168,5.168,0,1,0,5.168,5.167A5.173,5.173,0,0,0,86.2,94.019" style="fill:#fff;fill-rule:evenodd"/><rect x="75.986" y="59.632" width="9.881" height="4.793" style="fill:#89716f"/><rect x="42.133" y="59.632" width="9.881" height="4.793" style="fill:#89716f"/><path d="M91.241,53.419H36.759a5.586,5.586,0,0,1-5.568-5.568V25.643a5.592,5.592,0,0,1,5.568-5.568H91.241a5.585,5.585,0,0,1,5.568,5.568V47.851a5.591,5.591,0,0,1-5.568,5.568M31.2,56.517H96.8a4.106,4.106,0,0,0,4.1-4.1V21.079a4.107,4.107,0,0,0-4.1-4.1H31.2a4.117,4.117,0,0,0-4.1,4.1V52.415A4.117,4.117,0,0,0,31.2,56.517Z" style="fill:#9f8281;fill-rule:evenodd"/><path d="M98.811,17.5V55.992a4.1,4.1,0,0,0,2.095-3.576V21.079A4.106,4.106,0,0,0,98.811,17.5" style="fill:#fff;fill-rule:evenodd"/><path d="M100.906,72.164A4.633,4.633,0,0,0,98.811,68.3v41.964a4.634,4.634,0,0,0,2.095-3.865Z" style="fill:#fff;fill-rule:evenodd"/><path d="M34.135,79.375a5.174,5.174,0,0,0,8.822,3.654q.131-.131.25-.268a5.183,5.183,0,0,1-7.826-4.441A5.054,5.054,0,0,1,36.6,74.98a5.059,5.059,0,0,0-2.462,4.4" style="fill:#e6454f;fill-rule:evenodd"/><path d="M57.582,79.375A5.173,5.173,0,0,0,66.4,83.029q.131-.131.25-.268a5.183,5.183,0,0,1-7.826-4.441,5.054,5.054,0,0,1,1.215-3.34,5.059,5.059,0,0,0-2.462,4.4" style="fill:#f9c65b;fill-rule:evenodd"/><path d="M82.541,83.029a5.178,5.178,0,0,0,7.607-.314,5.164,5.164,0,0,1-6.6-7.792,5.19,5.19,0,0,0-1.007,8.106" style="fill:#3ab8b8;fill-rule:evenodd"/><path d="M83.788,101.786a5.158,5.158,0,0,1-.24-7.051,5.176,5.176,0,1,0,6.6,7.792,5.126,5.126,0,0,1-6.36-.741" style="fill:#e6e6e5;fill-rule:evenodd"/><polygon points="58.93 22.167 63.263 22.167 55.34 51.328 51.007 51.328 58.93 22.167" style="fill:#fff;fill-rule:evenodd"/><polygon points="64.887 22.167 77.143 22.167 69.22 51.328 56.964 51.328 64.887 22.167" style="fill:#fff;fill-rule:evenodd"/><path d="M96.28,67.539H31.72a4.643,4.643,0,0,0-4.625,4.625V106.4a4.643,4.643,0,0,0,4.625,4.625H96.28a4.643,4.643,0,0,0,4.625-4.625V72.164a4.643,4.643,0,0,0-4.625-4.625M42.957,75.721a5.169,5.169,0,1,0,1.513,3.655A5.152,5.152,0,0,0,42.957,75.721ZM39.3,71.093a8.284,8.284,0,1,1-5.856,2.426A8.258,8.258,0,0,1,39.3,71.093Zm27.1,4.628a5.169,5.169,0,1,0,1.513,3.655A5.153,5.153,0,0,0,66.4,75.721Zm-3.655-4.628a8.284,8.284,0,1,1-5.856,2.426A8.257,8.257,0,0,1,62.749,71.093ZM80.34,73.519a8.281,8.281,0,1,1-2.426,5.856A8.257,8.257,0,0,1,80.34,73.519Zm5.856.689a5.166,5.166,0,1,0,3.655,1.513A5.152,5.152,0,0,0,86.2,74.207ZM80.34,93.331a8.28,8.28,0,1,1-2.426,5.856A8.257,8.257,0,0,1,80.34,93.331Zm5.856.689a5.167,5.167,0,1,0,3.655,1.513A5.152,5.152,0,0,0,86.2,94.019Zm-16.54,4.963H47.616v0a1.547,1.547,0,0,1-1.083-.439,6.133,6.133,0,0,0-2.408-1.293,12.45,12.45,0,0,0-3.71-.535,11.064,11.064,0,0,0-5.07,1.1c-.973.517-1.575,1.128-1.575,1.71s.6,1.192,1.575,1.71a11.065,11.065,0,0,0,5.07,1.095,12.452,12.452,0,0,0,3.71-.535,6.29,6.29,0,0,0,2.34-1.229,1.553,1.553,0,0,1,1.15-.508h22.04a.528.528,0,0,0,.375-.152l.006-.006a.529.529,0,0,0,.152-.375h0a.538.538,0,0,0-.533-.533ZM48.191,95.868H69.656A3.654,3.654,0,0,1,73.3,99.515h0a3.636,3.636,0,0,1-1.07,2.571l0,0,0,0,0,0a3.638,3.638,0,0,1-2.566,1.066H48.191a9.817,9.817,0,0,1-3.129,1.591,15.576,15.576,0,0,1-4.646.681,14.2,14.2,0,0,1-6.529-1.46c-2-1.061-3.23-2.631-3.23-4.459s1.234-3.4,3.23-4.459a14.2,14.2,0,0,1,6.529-1.46,15.577,15.577,0,0,1,4.647.681A9.816,9.816,0,0,1,48.191,95.868ZM31.2,56.517H96.8a4.086,4.086,0,0,0,2.9-1.2l.006-.006a4.086,4.086,0,0,0,1.2-2.9V21.079a4.086,4.086,0,0,0-1.2-2.9l-.006-.006a4.086,4.086,0,0,0-2.9-1.2H31.2a4.118,4.118,0,0,0-4.1,4.1V52.415a4.117,4.117,0,0,0,4.1,4.1Zm10.937,7.907h9.881V59.632H42.133Zm30.738-4.793H55.129v4.793H72.871Zm13,0H75.986v4.793h9.881Zm5.374-6.212H36.759a5.549,5.549,0,0,1-3.833-1.543q-.051-.043-.1-.091a5.551,5.551,0,0,1-1.635-3.933V25.643a5.551,5.551,0,0,1,1.635-3.933l0,0a5.553,5.553,0,0,1,3.93-1.638H91.241a5.548,5.548,0,0,1,3.833,1.543c.034.029.068.059.1.091a5.552,5.552,0,0,1,1.635,3.933V47.851a5.551,5.551,0,0,1-1.635,3.933l0,0A5.553,5.553,0,0,1,91.241,53.419ZM36.759,50.3H91.241a2.442,2.442,0,0,0,1.731-.716l0,0,0,0a2.445,2.445,0,0,0,.722-1.732V25.643a2.446,2.446,0,0,0-.722-1.732c-.021-.021-.042-.043-.062-.066a2.443,2.443,0,0,0-1.669-.656H36.759a2.442,2.442,0,0,0-1.732.716l0,0,0,0a2.446,2.446,0,0,0-.722,1.732V47.851a2.445,2.445,0,0,0,.722,1.732c.021.021.042.044.062.066A2.443,2.443,0,0,0,36.759,50.3Zm-5.04,14.12h7.3V59.632H31.2a7.234,7.234,0,0,1-7.216-7.216V21.079A7.234,7.234,0,0,1,31.2,13.863H96.8a7.2,7.2,0,0,1,5.089,2.116l0,0,0,0,0,0a7.2,7.2,0,0,1,2.119,5.092V52.415A7.2,7.2,0,0,1,101.9,57.5l0,0,0,0,0,0A7.2,7.2,0,0,1,96.8,59.632H88.981v4.793h7.3a7.759,7.759,0,0,1,7.74,7.74V106.4a7.758,7.758,0,0,1-7.74,7.74H31.72a7.759,7.759,0,0,1-7.74-7.74V72.164a7.759,7.759,0,0,1,7.74-7.74Z" style="fill:#98402f"/></svg>