<svg id="Layer_1" data-name="Layer 1" xmlns="http://www.w3.org/2000/svg" viewBox="0 0 128 128"><title>Artboard 8</title><path d="M75.215,66.7a.953.953,0,0,0,.447,1.019,22.8,22.8,0,0,1,7.517,8.511,24.835,24.835,0,0,1,2.736,11.357.956.956,0,0,0,.6.943h0a1.253,1.253,0,0,0,.894,0,.957.957,0,0,0,.6-.944,26.909,26.909,0,0,0-2.993-12.352,24.877,24.877,0,0,0-8.191-9.249.952.952,0,0,0-1.111-.027,1.218,1.218,0,0,0-.5.74M42.908,109.954a31.684,31.684,0,0,1-3.786-6.051A34.216,34.216,0,0,1,35.86,87.538a33.7,33.7,0,0,1,4.78-15.9,30.61,30.61,0,0,1,5.512-6.721,27.756,27.756,0,0,1,7-4.682l.214-.048h9.592V60.7l-.015,33.222v.512H62.77l-1.991,10.925h6.632l-2.2-10.925h-.183v-.512L65.041,60.7v-.512h9.593l.214.048a27.765,27.765,0,0,1,7,4.681,30.613,30.613,0,0,1,5.512,6.721,33.7,33.7,0,0,1,4.78,15.9A34.215,34.215,0,0,1,88.878,103.9a31.7,31.7,0,0,1-3.786,6.051,29.619,29.619,0,0,1-4.961,4.917l-.314.108H48.184l-.314-.108A29.632,29.632,0,0,1,42.908,109.954Z" style="fill:#5ec0c4;fill-rule:evenodd"/><path d="M63.057,17.46a.957.957,0,0,0,.944.6,4.379,4.379,0,0,1,1.8.363,5.259,5.259,0,0,1,1.422.958l.018.018a4.622,4.622,0,0,1,.99,1.49,4.574,4.574,0,0,1,.347,1.747,1.042,1.042,0,0,0,.3.739h0a1.044,1.044,0,0,0,.739.306,1.084,1.084,0,0,0,.57-.135,1.121,1.121,0,0,0,.452-.83,4.134,4.134,0,0,0-.141-1.622,7.293,7.293,0,0,0-1.789-3.172h0a6.747,6.747,0,0,0-2.171-1.449h0a6.637,6.637,0,0,0-2.543-.5.957.957,0,0,0-.944.6,1.251,1.251,0,0,0,0,.894M73.4,58.1H54.085V22.935a9.82,9.82,0,0,1,.755-3.78A9.993,9.993,0,0,1,57,15.935v0a9.667,9.667,0,0,1,6.913-2.917,10.206,10.206,0,0,1,7.156,2.974,9.688,9.688,0,0,1,2.848,6.945V58.1Z" style="fill:#eb6b75;fill-rule:evenodd"/><path d="M58.434,58.1H54.085V22.935a9.82,9.82,0,0,1,.755-3.78A9.993,9.993,0,0,1,57,15.935v0a10.426,10.426,0,0,1,1.436-1.2Z" style="fill:#e6454f;fill-rule:evenodd"/><path d="M64,15.456a1.557,1.557,0,0,0,0,3.115,4,4,0,0,1,2.873,1.19,4.051,4.051,0,0,1,1.19,2.874,1.557,1.557,0,0,0,1.557,1.557c2.58,0,1.663-4.424-.549-6.63A7.157,7.157,0,0,0,64,15.456" style="fill:#fff;fill-rule:evenodd"/><path d="M88.518,87.584A26.506,26.506,0,0,0,77.106,65.56a1.552,1.552,0,0,0-1.728,2.579A23.38,23.38,0,0,1,85.4,87.584a1.557,1.557,0,0,0,3.114,0" style="fill:#fff;fill-rule:evenodd"/><path d="M47.9,109.954A31.684,31.684,0,0,1,44.11,103.9a34.216,34.216,0,0,1-3.262-16.365,33.7,33.7,0,0,1,4.78-15.9,30.613,30.613,0,0,1,5.512-6.721A27.918,27.918,0,0,1,57.192,60.7H53.366A28.663,28.663,0,0,0,41.075,71.9a33.89,33.89,0,0,0-1.494,31.78,30.16,30.16,0,0,0,8.6,10.785h4.167a29.75,29.75,0,0,1-4.455-4.514" style="fill:#3ab8b8;fill-rule:evenodd"/><path d="M54.6,57.584H73.4V22.935a9.434,9.434,0,0,0-9.4-9.4h0a9.435,9.435,0,0,0-9.4,9.4Zm7.749,36.337h.088L62.448,60.7H53.366A28.663,28.663,0,0,0,41.075,71.9a33.924,33.924,0,0,0-1.494,31.78,30.16,30.16,0,0,0,8.6,10.785H79.816a30.164,30.164,0,0,0,8.6-10.785A33.924,33.924,0,0,0,86.925,71.9,28.663,28.663,0,0,0,74.634,60.7H65.551l-.015,33.222h.089l2.408,11.948H60.167ZM76.518,58.159A31.864,31.864,0,0,1,89.577,70.285a36.947,36.947,0,0,1,1.64,34.737,33.191,33.191,0,0,1-9.953,12.244,1.546,1.546,0,0,1-.931.31v.006H47.667a1.55,1.55,0,0,1-1.044-.4,33.213,33.213,0,0,1-9.84-12.159,36.947,36.947,0,0,1,1.64-34.737A31.865,31.865,0,0,1,51.482,58.159V22.935A12.551,12.551,0,0,1,64,10.417h0A12.551,12.551,0,0,1,76.518,22.935Z" style="fill:#98402f"/></svg>