<svg id="Layer_1" data-name="Layer 1" xmlns="http://www.w3.org/2000/svg" viewBox="0 0 128 128"><title>Artboard 5</title><path d="M102.115,56.529a3.109,3.109,0,0,0-3.107-3.107H34.671v59.245H99.009a3.115,3.115,0,0,0,3.107-3.107Z" style="fill:#c0d863;fill-rule:evenodd"/><path d="M99.009,112.667V53.422a3.109,3.109,0,0,1,3.107,3.107v53.031a3.115,3.115,0,0,1-3.107,3.107" style="fill:#fff;fill-rule:evenodd"/><path d="M31.556,112.667V53.422H28.992a3.12,3.12,0,0,0-3.107,3.107v53.031a3.119,3.119,0,0,0,3.107,3.107Z" style="fill:#a2cc4f;fill-rule:evenodd"/><rect x="51.622" y="47.777" width="24.756" height="2.53" style="fill:#f9c65b"/><path d="M67.176,28.951a10.837,10.837,0,1,1,0-.006ZM51.622,44.663H76.378v-26.6a2.742,2.742,0,0,0-2.734-2.734H71.122A10.906,10.906,0,0,1,68.1,17.187l0,.006a10.9,10.9,0,0,1-8.344-.063c-4.47-2.107-.905-1.8-5.4-1.8a2.738,2.738,0,0,0-2.734,2.734Z" style="fill:#ffe64c;fill-rule:evenodd"/><path d="M72.856,44.663V15.332h.787a2.742,2.742,0,0,1,2.734,2.734v26.6Z" style="fill:#fff;fill-rule:evenodd"/><path d="M63.026,26.755A1.38,1.38,0,1,0,64.974,24.8a1.393,1.393,0,0,0-1.948,1.954" style="fill:#fff;fill-rule:evenodd"/><path d="M51.622,50.308H76.378v-2.53H51.622Zm0-5.645H76.378v-26.6a2.727,2.727,0,0,0-.8-1.93c-.021-.021-.041-.042-.061-.064a2.729,2.729,0,0,0-1.869-.74H71.122A10.905,10.905,0,0,1,68.1,17.186h0l0,.006a10.881,10.881,0,0,1-8.207,0c-.047-.019-.092-.04-.137-.063a10.9,10.9,0,0,1-2.882-1.8H54.357a2.736,2.736,0,0,0-2.734,2.734ZM64.974,24.8a1.387,1.387,0,0,0-1.9-.055l-.052.055a1.387,1.387,0,0,0-.006,1.948l.006.006a1.387,1.387,0,0,0,1.948-.006l0,0a1.386,1.386,0,0,0,0-1.951ZM64,21.283a4.487,4.487,0,0,1,3.176,7.662l0,0,0,0a4.484,4.484,0,0,1-6.346,0l-.006-.006a4.483,4.483,0,0,1,0-6.346c.033-.033.067-.064.1-.094A4.471,4.471,0,0,1,64,21.283ZM31.556,112.667V53.422H28.992a3.12,3.12,0,0,0-3.107,3.107v53.031a3.119,3.119,0,0,0,3.107,3.107Zm3.115-59.245v59.245H99.009a3.093,3.093,0,0,0,2.129-.846c.02-.023.041-.046.064-.068a3.1,3.1,0,0,0,.913-2.193V56.529a3.1,3.1,0,0,0-.913-2.193l0,0,0,0a3.093,3.093,0,0,0-2.193-.908H34.671Zm-5.679-3.114H48.508V46.642a1.93,1.93,0,0,1,.013-.222,1.549,1.549,0,0,1-.013-.2V18.067a5.826,5.826,0,0,1,1.717-4.126l.006-.006a5.827,5.827,0,0,1,4.126-1.717h3.122v0a1.548,1.548,0,0,1,1.089.445,7.779,7.779,0,0,0,2.387,1.6c.037.012.073.025.11.04a7.815,7.815,0,0,0,5.871,0l0,.005a7.763,7.763,0,0,0,2.42-1.574,1.554,1.554,0,0,1,1.164-.522h3.122a5.824,5.824,0,0,1,4.036,1.629c.033.028.065.057.1.088a5.834,5.834,0,0,1,1.717,4.132V46.22a1.619,1.619,0,0,1-.013.2,2.037,2.037,0,0,1,.013.223v3.666H99.009a6.206,6.206,0,0,1,4.392,1.83l0,0a6.2,6.2,0,0,1,1.826,4.395v53.031a6.2,6.2,0,0,1-1.826,4.395q-.048.048-.1.091a6.2,6.2,0,0,1-4.3,1.736H28.992a6.236,6.236,0,0,1-6.222-6.222V56.529a6.236,6.236,0,0,1,6.222-6.221Z" style="fill:#98402f"/></svg>