<svg id="Layer_1" data-name="Layer 1" xmlns="http://www.w3.org/2000/svg" viewBox="0 0 128 128"><title>Artboard 3</title><path d="M41.939,24.412A1.554,1.554,0,1,1,40.261,21.8a21.57,21.57,0,0,1,17.053-2.721,1.552,1.552,0,1,1-.778,3,18.443,18.443,0,0,0-14.6,2.332M31.334,26.055c-4.806,7.23-5.7,17.337,1.086,27.918,2.315,3.61,6.112,6.033,10.359,7.613a47.683,47.683,0,0,0,15.568,2.639,8.267,8.267,0,0,1-.085-2.732l-8.39-4.372a1.556,1.556,0,0,1,1.435-2.761l7.962,4.148a8.184,8.184,0,0,1,1.485-1.9l-4.723-7.419a1.551,1.551,0,0,1,2.616-1.667l4.718,7.413.008,0q.381-.152.771-.263l.039-.011.058-.016,0,0,.486-.117a8.162,8.162,0,0,1,.982-.144L65.326,45.4a1.553,1.553,0,1,1,3.1-.134l.408,9.444.045.014.056.018.012,0,.044.014.05.017,0,0,.11.037.055.02a8.28,8.28,0,0,1,2.068,1.09,47.658,47.658,0,0,0,4.091-15.246c.335-4.525-.283-8.988-2.6-12.594C65.989,17.5,56.429,14.1,47.853,15.456a24.675,24.675,0,0,0-16.519,10.6Z" style="fill:#9f8281;fill-rule:evenodd"/><path d="M73.972,64.836l-8.65,5.548L91.029,110.46l0,.005a5.138,5.138,0,0,0,8.65-5.548Z" style="fill:#ffe64c;fill-rule:evenodd"/><path d="M72.229,65.954l28.018,43.283q.07-.221.119-.448a5.127,5.127,0,0,0-.684-3.871L73.972,64.836Z" style="fill:#fff;fill-rule:evenodd"/><path d="M63.645,67.768l8.649-5.548-1.541-2.4-.229-.329-.275-.333-.008-.01-.033-.036-.042-.045-.013-.013-.029-.031-.043-.043-.017-.017-.026-.026-.019-.019-.024-.023-.022-.021-.022-.021-.024-.022-.021-.019-.026-.024-.019-.017-.028-.025-.017-.015-.031-.027-.015-.013-.033-.028-.013-.011-.036-.029-.01-.009-.039-.031-.008-.007-.041-.032-.006,0-.044-.033,0,0-.048-.036-.049-.035-.051-.036-.047-.032,0,0-.044-.03-.007,0-.043-.028-.01-.006-.04-.026-.012-.008-.039-.024-.014-.009-.037-.022-.043-.026-.007,0-.02-.011-.032-.019-.022-.012-.03-.017-.024-.013-.028-.015-.027-.015-.025-.013-.03-.015-.023-.012L68.727,58l-.035-.017-.018-.009-.038-.018-.016-.008-.04-.018-.013-.006-.043-.019-.011,0-.046-.02-.008,0-.048-.02-.006,0-.055-.022-.055-.022-.057-.022-.054-.02h0l-.051-.018-.007,0-.049-.017-.009,0-.047-.015-.012,0-.044-.014-.015,0-.041-.013-.018,0-.039-.011-.171-.046-.028-.007-.029-.008-.031-.007-.027-.006-.033-.007-.024,0-.037-.008-.021,0-.04-.008-.018,0-.042-.008-.016,0-.046-.008-.012,0a5.182,5.182,0,0,0-2.227.113L65,57.659l-.014,0-.058.017-.049.015-.008,0a5.125,5.125,0,0,0-.565.216l-.022.01-.035.016-.109.052-.031.015-.024.012-.034.017-.021.011-.037.019-.018.01-.039.022-.015.008-.042.024-.012.007-.045.026-.009.005-.047.028-.006,0-.053.033-.053.033,0,0L63.6,58.3l-.052.035-.054.037-.047.034-.006,0-.044.032-.008.006-.041.031-.011.008-.038.029-.014.01-.035.027-.016.012L63.2,58.6l-.018.015-.029.024-.02.017-.026.022-.023.019,0,0-.094.083a5.17,5.17,0,0,0-.879,6.584Z" style="fill:#f9c65b;fill-rule:evenodd"/><path d="M41.939,24.412a18.443,18.443,0,0,1,14.6-2.332,1.552,1.552,0,1,0,.778-3A21.57,21.57,0,0,0,40.261,21.8a1.554,1.554,0,1,0,1.679,2.616" style="fill:#fff;fill-rule:evenodd"/><path d="M98.13,112.017,69.647,67.61l-4.325,2.774L91.029,110.46l0,.005a5.162,5.162,0,0,0,7.1,1.551" style="fill:#f9c65b;fill-rule:evenodd"/><path d="M57.918,61.314a46.663,46.663,0,0,1-14.18-2.605c-4.247-1.58-8.044-4-10.359-7.613-4.842-7.549-5.774-14.857-4.166-21.05C26.448,36.79,26.8,45.219,32.42,53.974c2.315,3.61,6.112,6.033,10.359,7.613a47.683,47.683,0,0,0,15.568,2.639,8.267,8.267,0,0,1-.085-2.732Z" style="fill:#89716f;fill-rule:evenodd"/><path d="M98.13,112.017h0M58.262,61.493l-8.39-4.372a1.556,1.556,0,1,1,1.435-2.761l7.962,4.148a8.184,8.184,0,0,1,1.485-1.9l-4.723-7.419a1.551,1.551,0,1,1,2.616-1.667l4.718,7.413.007,0h0q.381-.152.771-.263l.039-.011.058-.016h0c.161-.044.323-.083.485-.117h0a8.168,8.168,0,0,1,.982-.144L65.326,45.4a1.553,1.553,0,0,1,3.1-.134l.408,9.444.045.014.055.018.012,0,.044.014.05.017,0,0,.11.038.055.019a8.288,8.288,0,0,1,2.068,1.091,47.658,47.658,0,0,0,4.09-15.246c.336-4.525-.283-8.988-2.6-12.594C65.989,17.5,56.429,14.1,47.853,15.456a24.675,24.675,0,0,0-16.519,10.6c-4.806,7.23-5.7,17.337,1.086,27.918,2.315,3.61,6.112,6.033,10.359,7.613a47.668,47.668,0,0,0,15.568,2.639A8.267,8.267,0,0,1,58.262,61.493Zm15.71,3.342-8.65,5.548L91.029,110.46l0,.005a5.161,5.161,0,0,0,7.1,1.551h0a5.162,5.162,0,0,0,1.551-7.1ZM63.645,67.768l8.65-5.548-1.541-2.4c-.073-.113-.149-.223-.229-.329h0c-.087-.116-.179-.227-.275-.333l-.008-.01-.033-.036-.042-.045-.013-.013-.029-.031-.043-.043-.017-.017-.026-.026-.019-.019-.024-.023-.021-.021-.023-.021-.024-.022-.021-.019-.026-.024-.019-.017-.028-.025-.017-.015-.031-.027-.015-.013-.033-.028-.013-.011-.036-.03-.011-.009-.038-.031-.009-.007-.041-.032-.006,0-.044-.033,0,0-.046-.034h0l-.048-.035h0l-.049-.034,0,0-.047-.032,0,0-.044-.03-.007,0-.043-.028-.01-.006-.04-.026-.012-.008-.038-.024-.014-.009-.037-.022-.044-.026-.007,0-.019-.011-.032-.019-.022-.012-.03-.017-.024-.014-.028-.015-.027-.015-.025-.013-.03-.015-.023-.012L68.727,58l-.035-.017-.019-.009-.037-.018-.016-.007-.04-.019-.013-.006-.043-.019-.011,0-.046-.02-.008,0-.049-.021-.006,0-.052-.021h0l-.054-.021h0l-.055-.021h0l-.054-.02h0l-.051-.018-.007,0-.049-.017-.009,0-.047-.015-.012,0-.044-.014-.015,0-.042-.013-.017,0-.039-.011c-.057-.016-.114-.032-.171-.046l-.028-.007-.029-.007-.031-.007-.027-.006-.033-.007-.024,0-.037-.008-.021,0-.039-.008-.018,0-.042-.008-.016,0-.046-.008-.012,0a5.181,5.181,0,0,0-2.227.113L65,57.659l-.014,0-.058.017-.049.015-.008,0a5.142,5.142,0,0,0-.565.216l-.022.01-.033.015h0l-.109.052-.031.015-.024.012-.034.017-.021.011-.037.019-.018.01-.039.021-.015.008-.042.024-.012.007-.045.026-.009.005-.047.028-.006,0-.05.03,0,0-.053.033h0l0,0L63.6,58.3h0l-.052.035h0l-.051.035,0,0-.048.034-.006,0-.044.032-.008.006-.041.031-.011.008-.038.029-.014.01-.035.027-.016.012L63.2,58.6l-.018.015-.029.024-.021.017-.026.022-.023.019,0,0-.091.08,0,0a5.169,5.169,0,0,0-.879,6.585ZM75.393,26.409c2.723,4.246,3.462,9.364,3.082,14.492a51.705,51.705,0,0,1-4.922,17.525L102.3,103.239a8.261,8.261,0,0,1-2.4,11.335,1.533,1.533,0,0,1-.183.117,8.262,8.262,0,0,1-11.24-2.458,1.56,1.56,0,0,1-.112-.173l-26.49-41.3,0-.007,0-.007-2.194-3.42A51.676,51.676,0,0,1,41.7,64.494c-4.825-1.795-9.171-4.6-11.892-8.842-7.558-11.783-6.5-23.136-1.061-31.312A27.738,27.738,0,0,1,47.378,12.39C57.076,10.86,67.836,14.628,75.393,26.409Z" style="fill:#98402f"/></svg>