<svg id="Layer_1" data-name="Layer 1" xmlns="http://www.w3.org/2000/svg" viewBox="0 0 128 128"><title>Artboard 12</title><path d="M52.905,100.3h22.7v13.517a1.149,1.149,0,0,1-.09.442l0,0a1.172,1.172,0,0,1-.25.375c-.412.412-1.331.38-2.139.353-.164-.006-.325-.011-.534-.011h-.421l-.08-.416a8.283,8.283,0,0,0-6.49-6.526,8.389,8.389,0,0,0-7.507,2.339,8.112,8.112,0,0,0-2.184,4.188l-.081.416H53.343l-.15-.15-.65-.65-.15-.15V100.3Z" style="fill:#9f8281;fill-rule:evenodd"/><path d="M73.49,54.583H54.511a3.959,3.959,0,0,1-3.94-3.94V31.662a3.959,3.959,0,0,1,3.94-3.94H73.49a3.959,3.959,0,0,1,3.94,3.94V50.643a3.958,3.958,0,0,1-3.94,3.94M42.3,19.772,52.706,97.7H75.294L85.717,19.654Z" style="fill:#c0d863;fill-rule:evenodd"/><path d="M53.685,31.662V50.643a.821.821,0,0,0,.825.825H73.49a.821.821,0,0,0,.825-.825V31.662a.82.82,0,0,0-.825-.825H54.511a.82.82,0,0,0-.825.825" style="fill:#fff;fill-rule:evenodd"/><path d="M44.377,16.664l-.009-3.133c-.886,0-1.6-.114-2.292.569-.663.652-.341,1.448-.192,2.57Z" style="fill:#9f8281;fill-rule:evenodd"/><rect x="47.475" y="13.532" width="2.923" height="3.12" transform="translate(-0.042 0.137) rotate(-0.16)" style="fill:#9f8281"/><polygon points="53.496 13.532 53.505 16.64 56.428 16.632 56.419 13.532 53.496 13.532" style="fill:#9f8281;fill-rule:evenodd"/><rect x="59.526" y="13.532" width="2.923" height="3.087" transform="translate(-0.041 0.168) rotate(-0.157)" style="fill:#9f8281"/><rect x="65.551" y="13.532" width="2.923" height="3.071" transform="translate(-0.041 0.185) rotate(-0.158)" style="fill:#9f8281"/><polygon points="71.572 13.532 71.581 16.591 74.504 16.583 74.495 13.532 71.572 13.532" style="fill:#9f8281;fill-rule:evenodd"/><polygon points="77.598 13.532 77.606 16.574 80.529 16.566 80.521 13.532 77.598 13.532" style="fill:#9f8281;fill-rule:evenodd"/><path d="M83.623,13.532l.008,3.026,2.5-.007c.142-1.065.444-1.808-.208-2.45-.7-.685-1.413-.569-2.3-.569" style="fill:#9f8281;fill-rule:evenodd"/><path d="M69.4,114.468a5.663,5.663,0,0,0-10.8,0Z" style="fill:#89716f;fill-rule:evenodd"/><polygon points="56.282 97.698 45.875 19.772 85.716 19.664 85.717 19.654 42.299 19.772 52.706 97.698 56.282 97.698" style="fill:#a2cc4f;fill-rule:evenodd"/><polygon points="82.634 19.672 72.213 97.698 75.294 97.698 85.716 19.664 82.634 19.672" style="fill:#fff;fill-rule:evenodd"/><path d="M69.4,114.468a5.654,5.654,0,0,0-10.8,0Zm-13.991,0a8.753,8.753,0,0,1,17.185,0h1.853a.655.655,0,0,0,.65-.65V100.813H52.905v13.006a.644.644,0,0,0,.186.458l.006.006a.644.644,0,0,0,.458.186Zm22.8-15.15v14.5a3.771,3.771,0,0,1-3.764,3.764H53.555a3.754,3.754,0,0,1-2.654-1.1l0,0,0,0v0a3.754,3.754,0,0,1-1.1-2.652v-14.5L38.6,15.505a4.141,4.141,0,0,1-.041-.54A4.313,4.313,0,0,1,39.9,11.887a5.184,5.184,0,0,1,2.918-1.421,5.021,5.021,0,0,1,.65-.048H84.534a5.009,5.009,0,0,1,.649.048A5.188,5.188,0,0,1,88.1,11.887a4.313,4.313,0,0,1,1.342,3.078,4.205,4.205,0,0,1-.041.54ZM73.49,30.837H54.511a.818.818,0,0,0-.582.238l-.006.006a.82.82,0,0,0-.238.582V50.643a.82.82,0,0,0,.238.582l.006.006a.82.82,0,0,0,.582.237H73.49a.819.819,0,0,0,.582-.237l.006-.006a.818.818,0,0,0,.238-.582V31.662a.818.818,0,0,0-.238-.582l-.006-.006A.818.818,0,0,0,73.49,30.837ZM54.511,27.722H73.49a3.93,3.93,0,0,1,2.777,1.156l0,0,0,0,0,0a3.93,3.93,0,0,1,1.152,2.773V50.643a3.931,3.931,0,0,1-1.156,2.778l0,0,0,0,0,0a3.93,3.93,0,0,1-2.773,1.152H54.511a3.931,3.931,0,0,1-2.778-1.156l0,0,0,0,0,0a3.932,3.932,0,0,1-1.152-2.773V31.662a3.93,3.93,0,0,1,1.156-2.777l0,0,0,0,0,0A3.932,3.932,0,0,1,54.511,27.722ZM44.377,16.664l-.009-3.133h-.9a1.9,1.9,0,0,0-1.39.569,1.238,1.238,0,0,0-.405.864,1.336,1.336,0,0,0,0,.139l.209,1.567Zm6.026-.016-.009-3.116H47.471l.009,3.124Zm6.025-.017-.008-3.1H53.5L53.5,16.64Zm6.025-.016-.008-3.084H59.521l.008,3.091Zm6.026-.016-.008-3.067H65.547l.008,3.075Zm6.025-.017L74.5,13.532H71.572l.008,3.059Zm6.026-.016-.008-3.034H77.6l.008,3.042Zm3.094-3.034.008,3.026,2.5-.007.193-1.447a1.33,1.33,0,0,0,0-.139,1.237,1.237,0,0,0-.405-.864,1.9,1.9,0,0,0-1.39-.569ZM52.706,97.7H75.294L85.717,19.654l-3.081.008a1.552,1.552,0,0,1-1.095,0l-4.976.013a1.554,1.554,0,0,1-1,0l-5.071.014a1.554,1.554,0,0,1-.9,0l-5.181.014a1.557,1.557,0,0,1-.787,0l-5.308.014a1.55,1.55,0,0,1-.328.035,1.569,1.569,0,0,1-.32-.033l-5.466.015a1.589,1.589,0,0,1-.239.018,1.563,1.563,0,0,1-.231-.017L46,19.762l-.066,0h-.057l-3.577.01Z" style="fill:#98402f"/></svg>