<svg id="Layer_1" data-name="Layer 1" xmlns="http://www.w3.org/2000/svg" viewBox="0 0 128 128"><title>Artboard 15</title><path d="M44.229,75.6c-7.518,3.941-13.848,7.26-17.113,9.883a1.548,1.548,0,0,1-.533.279c-.937.794-1.45,1.466-1.45,2,0,2.232,9.221,3.369,34.416,3.369,13.969,0,19.314-3.92,25.29-7.795l21.874-14.179a1.553,1.553,0,0,1,2.36.966l4.293,19.445h1.1V47.662c0-3-.86-3.534-3.385-2.577a24.158,24.158,0,0,0-5.569,3.37l-.187.159a54.224,54.224,0,0,0-6.214,5.716l-2.628,2.924c1.325,5.924-11.468,11.1-15.14,12.516a85.465,85.465,0,0,1-10.82,3.361c-7.416,1.765-14.592,2.31-18.547.591a6.916,6.916,0,0,1-1.91-1.2l-.651.346Z" style="fill:#eb6b75;fill-rule:evenodd"/><path d="M25.663,82.672c3.02-2.3,7.922-4.978,13.782-8.067l10.117-5.329c3.3-1.755,32.436-8.349,34.278-8.8l9.633-2.446-.016-.1c-.5-2.636,6.783-9.225,9.4-11.328V39.852c0-3.006-.861-3.534-3.385-2.577-5.136,1.947-14.84,11.152-14.606,12.13a4.051,4.051,0,0,1-.2,2.426,1.566,1.566,0,0,1-.258.577c-.916,1.781-2.91,3.555-5.61,5.211-5.44,3.335-13.275,6.114-19.787,7.672-8.694,2.081-17.066,2.428-20.539-.59-1.995,1.06-3.964,2.092-5.859,3.085-10.7,5.609-18.923,9.92-19.089,12.146-.086,1.162,3.387,2.062,12.134,2.74" style="fill:#e6454f;fill-rule:evenodd"/><path d="M42.413,63.451c5.938,1.823,19-1.61,26.2-4.386A51.514,51.514,0,0,0,77.9,54.515l-4.8,1.142Z" style="fill:#89716f;fill-rule:evenodd"/><path d="M84.7,63.471,54.2,71.217c3.49.972,9.393.364,15.61-1.115,7.165-1.7,14.855-4.627,19.69-7.772Z" style="fill:#9f8281;fill-rule:evenodd"/><polygon points="102.858 75.354 100.657 76.781 101.755 81.757 102.858 81.757 102.858 75.354" style="fill:#cee5c1;fill-rule:evenodd"/><path d="M60.316,87.868c-20.524,0-30.448-.754-33.422-2.24a1.525,1.525,0,0,1-.311.13c-.937.794-1.45,1.466-1.45,2,0,2.232,9.221,3.369,34.416,3.369,13.969,0,19.314-3.92,25.29-7.795l21.874-14.179a1.553,1.553,0,0,1,2.36.966l4.293,19.445h1.1v-4.26l-4.1-18.925a1.552,1.552,0,0,0-2.36-.966l-22.4,14.658c-5.96,3.9-11.321,7.795-25.29,7.795" style="fill:#e6454f;fill-rule:evenodd"/><path d="M102.858,81.757v-6.4l-2.2,1.427,1.1,4.977Zm2.656-33.3a1.583,1.583,0,0,1-.187.159,54.224,54.224,0,0,0-6.214,5.716c-1.576,1.705-2.641,2.87-2.637,2.886l.005.022,0,.016a3.869,3.869,0,0,1,.071,1.34,4.658,4.658,0,0,1-.3,1.153,1.555,1.555,0,0,1-.141.331,11.606,11.606,0,0,1-3.7,4.007l0,0,0,0q-.914.679-1.991,1.339a56.4,56.4,0,0,1-8.747,4.217l-.027.01-.134.052-.16.062a85.465,85.465,0,0,1-10.82,3.361c-7.416,1.765-14.592,2.31-18.547.591a6.916,6.916,0,0,1-1.91-1.2l-.075.04-.018.009-.076.04-.017.009-.076.041-.017.009-.077.041-.016.009-.077.041-.093.05-.015.008-.078.041-.015.008-.079.042-.014.007-.545.289-.011.006-.082.043-.01.006-.455.24-.008,0-.085.045-.007,0-.271.143-.006,0-.087.046-.005,0-.18.095,0,0-.088.047h0l-.089.047h0l-.182.1h0l-.09.047h0l-.091.048h0l-.091.048-.091.048h0l-.091.048h0l-.09.047h0l-.089.047h0l-.089.046h0l-.088.046,0,0-.088.046,0,0-.087.046,0,0-.086.045,0,0-.086.045-.006,0-.085.045-.006,0-.084.044-.007,0-.083.044-.007,0-.083.044-.007,0-.083.043-.008,0-.082.043-.009,0-.081.043-.009,0-.081.042-.01.005-.08.042-.01.005-.08.042-.011.006-.079.041-.011.006-.257.135-.013.007-.076.04-.013.007-.076.04-.014.007-.164.086-.015.008-.162.085c-7.518,3.941-13.848,7.26-17.113,9.883a1.548,1.548,0,0,1-.533.279c-.937.794-1.45,1.466-1.45,2,0,2.232,9.221,3.369,34.416,3.369,13.4,0,19.056-3.713,24.216-7.1.1-.067.23-.151,1.073-.7l21.874-14.179h0a1.551,1.551,0,0,1,2.36.966l4.293,19.445h1.1V47.662c0-1.7-.322-2.577-.854-2.856a3.433,3.433,0,0,0-2.53.279,20.915,20.915,0,0,0-4.511,2.588Q106.043,48.054,105.514,48.455ZM77.9,54.515c-1.426.346-3.047.73-4.8,1.142L42.413,63.451c3.336,1.024,9.447.364,15.886-1.177a82.391,82.391,0,0,0,10.316-3.209,53.97,53.97,0,0,0,8.57-4.1Q77.554,54.74,77.9,54.515Zm6.77-2.684a1.566,1.566,0,0,1-.258.577c-.916,1.781-2.91,3.555-5.61,5.211a57.085,57.085,0,0,1-9.07,4.342,85.619,85.619,0,0,1-10.717,3.331c-8.694,2.081-17.066,2.428-20.539-.59-1.995,1.06-3.964,2.092-5.859,3.085-10.7,5.609-18.923,9.92-19.089,12.146-.086,1.162,3.387,2.062,12.134,2.74,3.02-2.3,7.922-4.978,13.782-8.067l.1-.054.224-.118.3-.16.025-.013.331-.174.666-.35.046-.024.29-.152,1.345-.705.1-.054.015-.007.4-.21.009,0,.513-.269h0l.1-.054.1-.054h0l.206-.108,0,0,.2-.107.007,0,.1-.051.009,0,.2-.1.012-.006.093-.049.013-.007.091-.048.015-.008.3-.157.019-.01.086-.045.021-.011.084-.044.022-.012.429-.226.077-.041.03-.016.076-.04.032-.017.108-.057.073-.038.035-.019.072-.037.036-.019.108-.058.069-.036.04-.021.326-.172.063-.033.046-.024.062-.033.047-.025.06-.032.108-.057.05-.027.274-.145.055-.029.053-.028.057-.03.052-.027.059-.031.05-.027.06-.032.049-.026.061-.033.111-.059.046-.024.065-.034.044-.024.219-.116.069-.037.04-.021.071-.038.039-.02L49,69.573l.037-.019.075-.04.035-.019.076-.041.034-.018.189-.1.031-.017.081-.043.03-.016h0a1.552,1.552,0,0,1,.428-.192l.025-.009.2-.073.057-.02.218-.077.026-.009.23-.079.09-.03.163-.055.153-.051.152-.05.113-.037.223-.072.066-.021.255-.08.049-.016.272-.085.075-.023.256-.078.034-.01.222-.067.048-.014.231-.069.078-.023.128-.038.081-.024.281-.082.018,0,.34-.1.025-.007.256-.073.13-.037.264-.075.13-.037.272-.076.131-.037.28-.078.13-.036.289-.08.13-.036.3-.081.13-.035L56.876,67l.129-.035.313-.084.128-.034.321-.086.127-.033.329-.087.126-.033.337-.088.124-.032.345-.09.123-.032.352-.091.122-.031.359-.092.12-.031.367-.093.118-.03.374-.095.115-.029.381-.1.114-.029.388-.1.111-.028.394-.1L62.7,65.5l.4-.1.514-.127.1-.026.414-.1.521-.128.1-.024.426-.1.1-.023.432-.105.53-.129.089-.022.978-.237.083-.02.453-.109.08-.019.458-.11.077-.019.463-.111.073-.017,1.551-.37.063-.015.48-.114.059-.014c1.246-.3,2.494-.589,3.727-.879l.034-.008,4.7-1.1,2.033-.474.021,0,.046-.011.724-.169.065-.015.02,0,.045-.01.065-.015.065-.015.323-.076.063-.015h0l.128-.03.064-.015.318-.075.041-.01.022-.005.063-.015.063-.015.063-.015,9.633-2.446a.676.676,0,0,0-.008-.069v0h0v0h0v0h0v0h0l0-.011h0v-.008c-.241-1.038,1.131-3.282,3.368-5.7a57.93,57.93,0,0,1,6.032-5.626V39.852c0-1.7-.323-2.577-.854-2.856a3.433,3.433,0,0,0-2.531.279,20.9,20.9,0,0,0-4.512,2.588c-5.044,3.629-10.266,8.825-10.095,9.542A4.051,4.051,0,0,1,84.671,51.831ZM38.413,61.256c5.2-1.909,18.747-5.071,29.582-7.6l4.223-.987,9.65-2.451c0-.032-.01-.064-.018-.1-.35-1.462,5.448-8.568,11.3-12.778a23.954,23.954,0,0,1,5.23-2.978,6.145,6.145,0,0,1,5.061-.121c1.577.826,2.533,2.585,2.533,5.605v4.466a21.23,21.23,0,0,1,4.016-2.141,6.144,6.144,0,0,1,5.061-.12c1.578.827,2.533,2.585,2.533,5.605V91.125a1.558,1.558,0,0,1-1.557,1.558h-3.9a1.558,1.558,0,0,1-1.544-1.358l-4.051-18.348-.553.358v9.98a1.557,1.557,0,0,1-1.557,1.557h-3.9a1.558,1.558,0,0,1-1.545-1.358l-1.089-4.931L86.53,85.938c-.133.086-.45.3-1.062.7-5.532,3.628-11.6,7.608-25.919,7.608-27.476,0-37.531-2.187-37.531-6.483a3.927,3.927,0,0,1,.829-2.23c-9.05-.98-12.634-2.939-12.42-5.819.294-3.95,9.186-8.611,20.756-14.676q3.257-1.707,6.8-3.588A1.549,1.549,0,0,1,38.413,61.256ZM89.5,62.329c-1.427.346-3.047.73-4.8,1.142L54.2,71.217c3.49.972,9.393.364,15.61-1.115,6.988-1.663,14.257-4.428,18.98-7.324Q89.154,62.553,89.5,62.329Z" style="fill:#98402f"/></svg>