<svg id="Layer_1" data-name="Layer 1" xmlns="http://www.w3.org/2000/svg" viewBox="0 0 128 128"><title>Artboard 14</title><path d="M74.824,50.223a14.73,14.73,0,1,1,7.72,19.349,14.743,14.743,0,0,1-7.72-19.349m-39.21-3.132c14.3,9.5,30.387,21.428,44.7,27.681a20.318,20.318,0,0,0,9.771,1.589l.186-.016A20.392,20.392,0,0,0,96.405,37.3c-10.917-4.689-26.239-8-40.191-11.014-3.662-.791-7.23-1.562-10.657-2.347Z" style="fill:#9f8281;fill-rule:evenodd"/><path d="M71.124,73.635,63.114,92.283A8.89,8.89,0,0,0,79.45,99.3l8.525-19.847a22.438,22.438,0,0,1-8.79-1.872Z" style="fill:#89716f;fill-rule:evenodd"/><path d="M33.048,45.4l9.518-22.159c-1.69-.4-3.285-.959-4.948-.3a3.1,3.1,0,0,0-1.742,1.689L29.451,39.592c-.829,1.929.443,3.777,2.1,4.844Z" style="fill:#89716f;fill-rule:evenodd"/><path d="M38.913,22.652a4.308,4.308,0,0,0-1.294.295,3.1,3.1,0,0,0-1.742,1.689L29.451,39.592a3.379,3.379,0,0,0,.654,3.564Z" style="fill:#fff;fill-rule:evenodd"/><path d="M84.015,45.162a11.709,11.709,0,1,0,15.219,6.532,11.721,11.721,0,0,0-15.219-6.532" style="fill:#fff;fill-rule:evenodd"/><path d="M81.342,72.373C67.032,66.12,50.94,54.2,36.645,44.692l-1.031,2.4c14.3,9.5,30.387,21.428,44.7,27.681a20.318,20.318,0,0,0,9.771,1.589l.186-.016a20.4,20.4,0,0,0,17.3-13.473A20.4,20.4,0,0,1,91.3,73.945l-.186.016a20.318,20.318,0,0,1-9.771-1.589" style="fill:#89716f;fill-rule:evenodd"/><path d="M97.316,49.392a11.721,11.721,0,0,1-15.5,15.1,11.886,11.886,0,0,1-3.365-2.159,11.512,11.512,0,0,0,5.283,4.461A11.708,11.708,0,0,0,96.326,47.454a11.741,11.741,0,0,1,.989,1.938" style="fill:#e6e6e5;fill-rule:evenodd"/><path d="M84.015,45.162a11.723,11.723,0,1,0,8.963.12,11.668,11.668,0,0,0-8.963-.12m-9.191,5.061a14.743,14.743,0,1,1-.143,11.269A14.685,14.685,0,0,1,74.824,50.223ZM33.048,45.4l9.518-22.159q-.838-.2-1.664-.4l-.064-.014a5.362,5.362,0,0,0-3.22.12,3.1,3.1,0,0,0-1.742,1.689L29.451,39.592a3.106,3.106,0,0,0-.023,2.431,5.354,5.354,0,0,0,2.128,2.412Q32.295,44.91,33.048,45.4ZM90.083,76.361a1.532,1.532,0,0,1,.186-.016,20.395,20.395,0,0,0,16.821-12.25l0-.01A20.378,20.378,0,0,0,96.41,37.3l0,0c-10.917-4.689-26.239-8-40.191-11.014-3.662-.791-7.23-1.562-10.657-2.347l-9.944,23.15c2.895,1.925,5.926,3.992,9.036,6.114C56.412,61.229,69.328,70.04,80.24,74.741l.066.028.005,0A20.318,20.318,0,0,0,90.083,76.361Zm-2.107,3.092a23.258,23.258,0,0,1-7.223-1.27l-.01,0-.086-.03-.006,0-.1-.037-.234-.084h0q-.563-.206-1.119-.443h0c-.044-.017-.087-.035-.129-.055h-.008l-.485-.211-.038-.017-.031-.014-.07-.031-.07-.031-.14-.062-.071-.032c-2.274-1.015-4.622-2.191-7.018-3.489L63.114,92.283A8.89,8.89,0,0,0,79.45,99.3Zm-67.36-54.16a1.512,1.512,0,1,1-1.194,2.779l-7.922-3.4a1.512,1.512,0,0,1,1.195-2.779ZM18.6,33.735a1.512,1.512,0,1,1,.355,3l-8.562,1.014a1.512,1.512,0,1,1-.355-3Zm7.98-14.746A1.512,1.512,0,0,1,24.157,20.8L19,13.89a1.512,1.512,0,1,1,2.424-1.809Zm70.946,15.5q.074.027.144.062a23.428,23.428,0,0,1,12.748,29.329c9.512,4.415,10.158,10.061,7.57,16.279a58.43,58.43,0,0,1-5.653,9.58c-5.606,8.308-11.485,17.023-1.161,24.031a1.507,1.507,0,0,1-1.691,2.495c-12.821-8.7-6.081-18.693.345-28.217A56.559,56.559,0,0,0,115.2,79c1.924-4.623,1.361-8.87-5.975-12.34A23.467,23.467,0,0,1,91.35,79.26l-9.121,21.234a11.915,11.915,0,0,1-21.894-9.406l8.132-18.93C60.084,67.39,51.233,61.353,42.948,55.7c-4.575-3.121-8.978-6.124-13.023-8.722a8.381,8.381,0,0,1-3.3-3.843,6.052,6.052,0,0,1,.047-4.737L33.1,23.441a6.058,6.058,0,0,1,3.409-3.3,8.374,8.374,0,0,1,5.053-.251l.059.016c4.529,1.109,9.779,2.244,15.235,3.423C70.911,26.37,86.349,29.705,97.527,34.493Z" style="fill:#98402f"/></svg>