<svg id="Layer_1" data-name="Layer 1" xmlns="http://www.w3.org/2000/svg" viewBox="0 0 128 128"><title>BARCODE</title><rect x="21.845" y="32.905" width="16.155" height="51.001" style="fill:#5a6c75"/><rect x="71.005" y="32.905" width="11.489" height="51.001" style="fill:#5a6c75"/><rect x="100.41" y="32.905" width="5.744" height="51.001" style="fill:#5a6c75"/><rect x="46.893" y="32.905" width="8.077" height="51.001" style="fill:#5a6c75"/><path d="M13.523,42.976a1.75,1.75,0,0,0,1.75-1.75V26.333H30.167a1.75,1.75,0,0,0,0-3.5H13.523a1.75,1.75,0,0,0-1.75,1.75V41.226A1.75,1.75,0,0,0,13.523,42.976Z" style="fill:#475a61"/><path d="M114.477,22.833H97.833a1.75,1.75,0,0,0,0,3.5h14.894V41.226a1.75,1.75,0,0,0,3.5,0V24.583A1.75,1.75,0,0,0,114.477,22.833Z" style="fill:#475a61"/><path d="M114.477,85.024a1.75,1.75,0,0,0-1.75,1.75v14.893H97.833a1.75,1.75,0,0,0,0,3.5h16.644a1.75,1.75,0,0,0,1.75-1.75V86.774A1.75,1.75,0,0,0,114.477,85.024Z" style="fill:#475a61"/><path d="M30.167,101.667H15.273V86.774a1.75,1.75,0,0,0-3.5,0v16.643a1.75,1.75,0,0,0,1.75,1.75H30.167a1.75,1.75,0,1,0,0-3.5Z" style="fill:#475a61"/><path d="M61.922,31.155a1.75,1.75,0,0,0-1.75,1.75v51a1.75,1.75,0,0,0,3.5,0v-51A1.75,1.75,0,0,0,61.922,31.155Z" style="fill:#475a61"/><path d="M91.452,31.155A1.75,1.75,0,0,0,89.7,32.9v51a1.75,1.75,0,1,0,3.5,0v-51A1.75,1.75,0,0,0,91.452,31.155Z" style="fill:#475a61"/><path d="M38,93.345H21.845a1.75,1.75,0,1,0,0,3.5H38a1.75,1.75,0,0,0,0-3.5Z" style="fill:#475a61"/><path d="M54.97,93.345H46.893a1.75,1.75,0,1,0,0,3.5H54.97a1.75,1.75,0,0,0,0-3.5Z" style="fill:#475a61"/><path d="M63.54,94.43a1.827,1.827,0,0,0-.16-.31,2.737,2.737,0,0,0-.22-.26,1.808,1.808,0,0,0-2.47,0,1.319,1.319,0,0,0-.22.26,1.3,1.3,0,0,0-.16.31,1.181,1.181,0,0,0-.1.32,1.378,1.378,0,0,0-.04.35,1.358,1.358,0,0,0,.04.34,1.183,1.183,0,0,0,.1.32,1.517,1.517,0,0,0,.38.57,1.725,1.725,0,0,0,1.23.52,1.765,1.765,0,0,0,1.24-.52,2.678,2.678,0,0,0,.22-.26,1.827,1.827,0,0,0,.16-.31,1.739,1.739,0,0,0,.1-.32,1.98,1.98,0,0,0,0-.69A1.733,1.733,0,0,0,63.54,94.43Z" style="fill:#475a61"/><path d="M82.494,93.345H71a1.75,1.75,0,0,0,0,3.5H82.494a1.75,1.75,0,0,0,0-3.5Z" style="fill:#475a61"/><path d="M93.069,94.43a3.082,3.082,0,0,0-.159-.31,2.816,2.816,0,0,0-.221-.26,1.82,1.82,0,0,0-2.479,0,1.687,1.687,0,0,0-.21.26,1.3,1.3,0,0,0-.16.31,1.18,1.18,0,0,0-.1.32,1.378,1.378,0,0,0-.04.35,1.307,1.307,0,0,0,.04.34,1.182,1.182,0,0,0,.1.32,1.3,1.3,0,0,0,.16.31,1.665,1.665,0,0,0,.21.26,1.455,1.455,0,0,0,.27.22,2.193,2.193,0,0,0,.3.16,2.063,2.063,0,0,0,.329.1,2.026,2.026,0,0,0,.341.04,1.915,1.915,0,0,0,.34-.04,1.6,1.6,0,0,0,.33-.1,1.438,1.438,0,0,0,.3-.16,1.455,1.455,0,0,0,.27-.22A1.715,1.715,0,0,0,93.2,95.1a2.113,2.113,0,0,0-.03-.35A1.735,1.735,0,0,0,93.069,94.43Z" style="fill:#475a61"/><path d="M106.155,96.845a1.75,1.75,0,0,0,0-3.5H100.41a1.75,1.75,0,1,0,0,3.5Z" style="fill:#475a61"/></svg>