<svg id="Layer_1" data-name="Layer 1" xmlns="http://www.w3.org/2000/svg" viewBox="0 0 128 128"><title>CUTLERY</title><path d="M103.569,34.933a1.44,1.44,0,0,1-2.818,0l-4.508-21.41-4.508,21.41a1.44,1.44,0,0,1-2.818,0L84.41,13.523V50.879a5.44,5.44,0,0,0,5.44,5.44h12.787a5.44,5.44,0,0,0,5.44-5.44V13.523Z" style="fill:#fecec0"/><path d="M50.931,40.815a15.5,15.5,0,0,1-31.008,0c0-8.563,6.941-27.292,15.5-27.292S50.931,32.253,50.931,40.815Z" style="fill:#fecec0"/><path d="M75.435,69.333h-16l1.5-41.819a14.511,14.511,0,0,1,14.5-13.991h0Z" style="fill:#fed29a"/><path d="M35.427,114.477h0a5.179,5.179,0,0,1-5.176-5.331L32,49.832A3.433,3.433,0,0,1,35.427,46.5h0a3.433,3.433,0,0,1,3.431,3.332L40.6,109.146A5.179,5.179,0,0,1,35.427,114.477Z" style="fill:#fff5f5"/><path d="M96.243,114.477h0a5.179,5.179,0,0,1-5.176-5.331l1.745-59.314A3.433,3.433,0,0,1,96.243,46.5h0a3.433,3.433,0,0,1,3.431,3.332l1.745,59.314A5.179,5.179,0,0,1,96.243,114.477Z" style="fill:#fff5f5"/><path d="M67.435,114.477h0c-2.92,0-5.262-2.064-5.176-4.561L64,59.17a3.233,3.233,0,0,1,3.431-2.851h0a3.233,3.233,0,0,1,3.431,2.851l1.745,50.746C72.7,112.413,70.355,114.477,67.435,114.477Z" style="fill:#fff5f5"/></svg>