<svg id="Layer_1" data-name="Layer 1" xmlns="http://www.w3.org/2000/svg" viewBox="0 0 128 128"><title>DISCOUNT</title><path d="M64,32.463A41.007,41.007,0,1,0,105.007,73.47,41.007,41.007,0,0,0,64,32.463Zm0,11.3a2.9,2.9,0,1,1,2.9-2.9A2.9,2.9,0,0,1,64,43.764Z" style="fill:#fc642b"/><circle cx="55.465" cy="56.194" r="5.846" style="fill:#fff5f5"/><circle cx="72.535" cy="90.746" r="5.846" style="fill:#fff5f5"/><rect x="60.372" y="44.331" width="7.256" height="58.277" rx="3.628" ry="3.628" transform="translate(70.696 -23.736) rotate(45)" style="fill:#fff5f5"/><path d="M64,39.72a1.75,1.75,0,0,1-1.75-1.75V30.025A18.272,18.272,0,0,1,80.5,11.773H84.25a1.75,1.75,0,0,1,0,3.5H80.5A14.769,14.769,0,0,0,65.75,30.025V37.97A1.75,1.75,0,0,1,64,39.72Z" style="fill:#475a61"/></svg>