<svg id="Layer_1" data-name="Layer 1" xmlns="http://www.w3.org/2000/svg" viewBox="0 0 128 128"><title>FLOUR</title><path d="M44.846,39.13a8.088,8.088,0,0,0,7.247-4.5,11.248,11.248,0,0,0,12.464-.793A13.551,13.551,0,1,0,68.3,20.839a11.294,11.294,0,0,0-21.736,2.286A8.095,8.095,0,1,0,44.846,39.13Z" style="fill:#fed29a"/><rect x="28.988" y="33.834" width="70.024" height="11.397" style="fill:#fd9025"/><path d="M98.623,92.6,95.418,45.231H32.582L29.377,92.6a7.994,7.994,0,0,1-3.547,6.643l-.887.594a7.994,7.994,0,0,0-3.547,6.643h0a7.994,7.994,0,0,0,7.994,7.994H98.611a7.994,7.994,0,0,0,7.994-7.994h0a7.994,7.994,0,0,0-3.547-6.643l-.887-.594A7.994,7.994,0,0,1,98.623,92.6Z" style="fill:#fc642b"/><path d="M64,52.285a1.75,1.75,0,0,0-1.75,1.75V89.348a1.75,1.75,0,0,0,3.5,0V54.035A1.75,1.75,0,0,0,64,52.285Z" style="fill:#fd9025"/><path d="M64.417,101h-27.5a1.75,1.75,0,1,1,0-3.5h27.5a1.75,1.75,0,1,1,0,3.5Z" style="fill:#ed3a1b"/><path d="M78.833,101H71.509a1.75,1.75,0,1,1,0-3.5h7.324a1.75,1.75,0,1,1,0,3.5Z" style="fill:#ed3a1b"/><path d="M62.751,57.035a4.263,4.263,0,1,1-6.029,6.029c-1.665-1.665-2.044-8.073-2.044-8.073S61.086,55.37,62.751,57.035Z" style="fill:#fed29a"/><path d="M65.249,57.035a4.263,4.263,0,0,0,6.029,6.029c1.665-1.665,2.044-8.073,2.044-8.073S66.914,55.37,65.249,57.035Z" style="fill:#fed29a"/><path d="M62.56,63.911a4.917,4.917,0,1,1-6.953,6.953c-1.92-1.92-2.357-9.31-2.357-9.31S60.64,61.991,62.56,63.911Z" style="fill:#fdb556"/><path d="M65.44,63.911a4.917,4.917,0,0,0,6.953,6.953c1.92-1.92,2.357-9.31,2.357-9.31S67.36,61.991,65.44,63.911Z" style="fill:#fdb556"/><path d="M62.383,70.415a5.521,5.521,0,0,1-7.808,7.808c-2.156-2.156-2.647-10.454-2.647-10.454S60.227,68.259,62.383,70.415Z" style="fill:#ed3a1b"/><path d="M65.617,70.415a5.521,5.521,0,0,0,7.808,7.808c2.156-2.156,2.647-10.454,2.647-10.454S67.773,68.259,65.617,70.415Z" style="fill:#ed3a1b"/></svg>