<svg id="Layer_1" data-name="Layer 1" xmlns="http://www.w3.org/2000/svg" viewBox="0 0 128 128"><title>FRUITSFRUITS</title><path d="M82.2,46.864C71.53,31.3,49.3,45.086,49.3,45.086S27.065,31.3,16.393,46.864s10.227,60.472,32.9,50.69C71.975,107.337,92.873,62.427,82.2,46.864Z" style="fill:#fc642b"/><circle cx="85.964" cy="83.162" r="28.513" style="fill:#fd9025"/><path d="M63.006,18a1.754,1.754,0,0,0-2.315-.876c-6.4,2.888-10.7,8.711-12.436,16.842a38.88,38.88,0,0,0-.7,11.313A1.75,1.75,0,0,0,49.3,46.836a1.975,1.975,0,0,0,.2-.011,1.751,1.751,0,0,0,1.542-1.937c-.021-.186-1.96-18.684,11.093-24.569A1.752,1.752,0,0,0,63.006,18Z" style="fill:#475a61"/><path d="M49.066,21.445A8.227,8.227,0,0,1,37.432,33.08c-3.213-3.213-5.119-16.754-5.119-16.754S45.854,18.232,49.066,21.445Z" style="fill:#83e685"/><path d="M20.093,63.3a1.751,1.751,0,0,1-1.744-1.629c-.332-4.812.531-8.871,2.5-11.737a15.612,15.612,0,0,1,3.338-3.567,1.75,1.75,0,0,1,2.133,2.775,12.123,12.123,0,0,0-2.584,2.771c-1.516,2.209-2.169,5.5-1.892,9.516a1.75,1.75,0,0,1-1.625,1.867C20.175,63.3,20.134,63.3,20.093,63.3Z" style="fill:#fff5f5"/><path d="M106.281,64.391A9.168,9.168,0,1,1,92.765,52c3.421-3.732,18.4-6.51,18.4-6.51S109.7,60.659,106.281,64.391Z" style="fill:#83e685"/><path d="M67.541,74.347a1.75,1.75,0,0,1-1.515-2.622,23.013,23.013,0,0,1,9.395-8.989,1.75,1.75,0,1,1,1.607,3.109,19.529,19.529,0,0,0-7.969,7.624A1.747,1.747,0,0,1,67.541,74.347Z" style="fill:#fff5f5"/><path d="M90.376,75.442h-.009a1.749,1.749,0,0,1-1.741-1.756c0-.665.2-16.343,12.555-20.259a1.75,1.75,0,1,1,1.059,3.336c-9.908,3.142-10.112,16.8-10.113,16.938A1.751,1.751,0,0,1,90.376,75.442Z" style="fill:#475a61"/></svg>