<svg id="Layer_1" data-name="Layer 1" xmlns="http://www.w3.org/2000/svg" viewBox="0 0 128 128"><title>OPEN</title><path d="M107.543,61.736,69.508,25.312a5.566,5.566,0,0,0-11.015,0L20.457,61.736a1.75,1.75,0,1,0,2.42,2.527L59.411,29.277a5.564,5.564,0,0,0,9.178,0l36.534,34.987a1.75,1.75,0,1,0,2.42-2.527ZM64,28.194a2.073,2.073,0,1,1,2.073-2.073A2.075,2.075,0,0,1,64,28.194Z" style="fill:#475a61"/><rect x="13.523" y="60.573" width="100.953" height="45.13" style="fill:#fc642b"/><path d="M108.674,95.092V71.183a4.875,4.875,0,0,1-4.875-4.875H24.2a4.875,4.875,0,0,1-4.875,4.875V95.092A4.875,4.875,0,0,1,24.2,99.967h79.6A4.875,4.875,0,0,1,108.674,95.092Z" style="fill:#fff5f5"/><path d="M33.947,83.383a6.81,6.81,0,0,1,7.428-7.447,7.522,7.522,0,0,1,5.534,1.928,7.271,7.271,0,0,1,1.942,5.4A8.862,8.862,0,0,1,48,87.4a6.055,6.055,0,0,1-2.453,2.512,8.1,8.1,0,0,1-4,.9,9.186,9.186,0,0,1-4.027-.775,6.064,6.064,0,0,1-2.586-2.452A8.151,8.151,0,0,1,33.947,83.383Zm4.445.02a4.82,4.82,0,0,0,.81,3.13,3.065,3.065,0,0,0,4.42.02,5.323,5.323,0,0,0,.785-3.346,4.448,4.448,0,0,0-.819-2.969,2.8,2.8,0,0,0-2.223-.937,2.7,2.7,0,0,0-2.158.952A4.835,4.835,0,0,0,38.392,83.4Z" style="fill:#475a61"/><path d="M51.225,76.181h7.388a5.061,5.061,0,0,1,3.616,1.147,4.308,4.308,0,0,1,1.2,3.268A4.436,4.436,0,0,1,62.121,84a5.672,5.672,0,0,1-4,1.227H55.689v5.338H51.225Zm4.464,6.132h1.09a2.8,2.8,0,0,0,1.8-.446,1.438,1.438,0,0,0,.521-1.143,1.6,1.6,0,0,0-.451-1.148,2.346,2.346,0,0,0-1.7-.471H55.689Z" style="fill:#475a61"/><path d="M65.747,76.181H77.658v3.071H70.2v2.286h6.918v2.934H70.2v2.835h7.673v3.258H65.747Z" style="fill:#475a61"/><path d="M80.3,76.181h4.15l5.416,7.958V76.181h4.189V90.564H89.864l-5.387-7.9v7.9H80.3Z" style="fill:#475a61"/></svg>