<svg id="Layer_1" data-name="Layer 1" xmlns="http://www.w3.org/2000/svg" viewBox="0 0 128 128"><title>PRICE TAG</title><path d="M57.917,22.25,31.583,34v80.477H84.25V34Zm0,18a4,4,0,1,1,4-4A4,4,0,0,1,57.917,40.25Z" style="fill:#fed29a"/><circle cx="57.917" cy="69.573" r="16.75" style="fill:#fc642b"/><path d="M59.667,68.079V63.155a2.652,2.652,0,0,1,.919,2,1.75,1.75,0,0,0,3.5,0,6.178,6.178,0,0,0-4.419-5.912V57.875a1.75,1.75,0,0,0-3.5,0v1.366a6.165,6.165,0,0,0,0,11.825v4.924a2.652,2.652,0,0,1-.919-2,1.75,1.75,0,0,0-3.5,0A6.178,6.178,0,0,0,56.167,79.9v1.158a1.75,1.75,0,0,0,3.5,0V79.9a6.165,6.165,0,0,0,0-11.825Zm-4.419-2.926a2.652,2.652,0,0,1,.919-2v4A2.652,2.652,0,0,1,55.248,65.154Zm4.419,10.837v-4a2.633,2.633,0,0,1,0,4Z" style="fill:#fff5f5"/><path d="M96.417,77.75A1.75,1.75,0,0,1,94.667,76V33.3A18.044,18.044,0,0,0,76.643,15.273,17,17,0,0,0,59.667,32.25a1.75,1.75,0,0,1-3.5,0A20.5,20.5,0,0,1,76.643,11.773,21.548,21.548,0,0,1,98.167,33.3V76A1.75,1.75,0,0,1,96.417,77.75Z" style="fill:#475a61"/><path d="M74.667,97.25h-33.5a1.75,1.75,0,0,1,0-3.5h33.5a1.75,1.75,0,1,1,0,3.5Z" style="fill:#475a61"/><path d="M74.667,106.427h-33.5a1.75,1.75,0,0,1,0-3.5h33.5a1.75,1.75,0,0,1,0,3.5Z" style="fill:#475a61"/></svg>