<svg id="Layer_1" data-name="Layer 1" xmlns="http://www.w3.org/2000/svg" viewBox="0 0 128 128"><title>SARDINES</title><path d="M13.523,41.694V86.306c0,5.8,22.6,10.5,50.477,10.5s50.477-4.7,50.477-10.5V41.694Z" style="fill:#20c8c7"/><ellipse cx="64" cy="41.694" rx="50.477" ry="10.5" style="fill:#fff5f5"/><path d="M64,44.955h0c-3.392,0-5.831-2.166-4.873-4.327l1.293-2.916A3.855,3.855,0,0,1,64,35.935h0a3.855,3.855,0,0,1,3.58,1.778l1.293,2.916C69.831,42.79,67.392,44.955,64,44.955Z" style="fill:#fd9025"/><path d="M62.585,61.8C38.333,61.8,22.3,57.861,22.3,57.861V92.222c9.09,2.767,24.374,4.584,41.7,4.584s32.611-1.817,41.7-4.584V57.861S92.667,61.8,65.415,61.8Z" style="fill:#fc642b"/><path d="M84.333,71.861l-7.774,4.917h-7V71.86a1.75,1.75,0,0,0-3.5,0v4.917H62.583V71.86a1.75,1.75,0,0,0-3.5,0v4.917H53.417V71.861c-5.385,0-9.75,2.985-9.75,6.667s4.365,6.667,9.75,6.667V80.277h5.667v4.917a1.75,1.75,0,0,0,3.5,0V80.277h3.479v4.917a1.75,1.75,0,0,0,3.5,0V80.277h7l7.774,4.917Z" style="fill:#fed29a"/></svg>