<svg id="Layer_1" data-name="Layer 1" xmlns="http://www.w3.org/2000/svg" viewBox="0 0 128 128"><title>SUPERMARKET</title><rect x="18.167" y="60.186" width="91.667" height="54.291" style="fill:#fff5f5"/><rect x="66.625" y="84.436" width="32.25" height="22.564" style="fill:#6ae1db"/><path d="M48.39,31.5a1.75,1.75,0,0,0,1.75-1.75v-7a1.75,1.75,0,0,0-3.5,0v7A1.75,1.75,0,0,0,48.39,31.5Z" style="fill:#475a61"/><path d="M79.61,31.5a1.75,1.75,0,0,0,1.75-1.75v-7a1.75,1.75,0,0,0-3.5,0v7A1.75,1.75,0,0,0,79.61,31.5Z" style="fill:#475a61"/><rect x="13.523" y="51.501" width="100.953" height="8.684" style="fill:#fc642b"/><path d="M18.167,60.186h13.1a0,0,0,0,1,0,0V70.515a5.952,5.952,0,0,1-5.952,5.952h-1.19a5.952,5.952,0,0,1-5.952-5.952V60.186a0,0,0,0,1,0,0Z" style="fill:#fd9025"/><path d="M31.262,60.186h13.1a0,0,0,0,1,0,0V70.515A5.952,5.952,0,0,1,38.4,76.467h-1.19a5.952,5.952,0,0,1-5.952-5.952V60.186A0,0,0,0,1,31.262,60.186Z" style="fill:#fc642b"/><path d="M44.357,60.186h13.1a0,0,0,0,1,0,0V70.515A5.952,5.952,0,0,1,51.5,76.467H50.31a5.952,5.952,0,0,1-5.952-5.952V60.186a0,0,0,0,1,0,0Z" style="fill:#fd9025"/><path d="M57.452,60.186h13.1a0,0,0,0,1,0,0V70.515A5.952,5.952,0,0,1,64.6,76.467H63.4a5.952,5.952,0,0,1-5.952-5.952V60.186A0,0,0,0,1,57.452,60.186Z" style="fill:#fc642b"/><path d="M70.548,60.186h13.1a0,0,0,0,1,0,0V70.515a5.952,5.952,0,0,1-5.952,5.952H76.5a5.952,5.952,0,0,1-5.952-5.952V60.186a0,0,0,0,1,0,0Z" style="fill:#fd9025"/><path d="M83.643,60.186h13.1a0,0,0,0,1,0,0V70.515a5.952,5.952,0,0,1-5.952,5.952H89.6a5.952,5.952,0,0,1-5.952-5.952V60.186A0,0,0,0,1,83.643,60.186Z" style="fill:#fc642b"/><path d="M96.738,60.186h13.1a0,0,0,0,1,0,0V70.515a5.952,5.952,0,0,1-5.952,5.952h-1.19a5.952,5.952,0,0,1-5.952-5.952V60.186A0,0,0,0,1,96.738,60.186Z" style="fill:#fd9025"/><rect x="29.125" y="84.436" width="27.452" height="30.041" style="fill:#5a6c75"/><path d="M99.951,29.75h-71.9A7.063,7.063,0,0,0,21.1,35.536L18.167,51.5h91.667L106.9,35.536A7.063,7.063,0,0,0,99.951,29.75Z" style="fill:#fecec0"/><rect x="43.604" y="13.523" width="40.792" height="9.227" style="fill:#fc642b"/><polygon points="79.095 107 72.667 107 77.095 84.436 83.524 84.436 79.095 107" style="fill:#fff5f5"/><polygon points="89.071 107 83.643 107 88.071 84.436 93.5 84.436 89.071 107" style="fill:#fff5f5"/><path d="M114.477,112.727H13.523a1.75,1.75,0,0,0,0,3.5H114.477a1.75,1.75,0,0,0,0-3.5Z" style="fill:#475a61"/></svg>