<svg id="Layer_1" data-name="Layer 1" xmlns="http://www.w3.org/2000/svg" viewBox="0 0 128 128"><title>TOYS</title><rect x="13.523" y="66.224" width="43.875" height="43.875" style="fill:#fc642b"/><path d="M38.186,93.507h-5.6l-.778,2.635H26.774l6-15.96h5.379l6,15.96H38.984Zm-1.024-3.451L35.4,84.319l-1.742,5.738Z" style="fill:#fff5f5"/><rect x="27.067" y="20.125" width="43.875" height="43.875" transform="translate(-4.225 5.493) rotate(-6.151)" style="fill:#20c8c7"/><path d="M40.816,34.919,50,33.929a5.032,5.032,0,0,1,3.646.757,3.7,3.7,0,0,1,1.532,2.682,3.571,3.571,0,0,1-.617,2.509,3.916,3.916,0,0,1-1.6,1.245,4.476,4.476,0,0,1,2.67,1.141,3.912,3.912,0,0,1,1.077,2.43,4.347,4.347,0,0,1-.335,2.28,4.244,4.244,0,0,1-1.4,1.728,5.2,5.2,0,0,1-1.806.72,21.558,21.558,0,0,1-2.174.454l-8.464.912Zm5.617,5.692,2.132-.23a2.46,2.46,0,0,0,1.554-.568,1.448,1.448,0,0,0,.327-1.191,1.366,1.366,0,0,0-.567-1.034,2.425,2.425,0,0,0-1.605-.221l-2.165.233Zm.672,6.234,2.5-.269a2.772,2.772,0,0,0,1.738-.641,1.526,1.526,0,0,0,.389-1.263,1.408,1.408,0,0,0-.636-1.076,2.894,2.894,0,0,0-1.849-.233l-2.49.268Z" style="fill:#fff5f5"/><rect x="64" y="59.623" width="43.875" height="43.875" transform="translate(-24.227 37.959) rotate(-21.91)" style="fill:#83e685"/><path d="M89.669,81.62l4.5-.4a7.97,7.97,0,0,1-.14,3.33,5.939,5.939,0,0,1-1.469,2.574,8.7,8.7,0,0,1-3.046,1.894,10.265,10.265,0,0,1-4.227.886A6.745,6.745,0,0,1,81.652,88.5a9.013,9.013,0,0,1-2.93-4.075,8.286,8.286,0,0,1-.317-6.434,8.017,8.017,0,0,1,4.736-4.2A8.1,8.1,0,0,1,88,73.153a7.162,7.162,0,0,1,3.775,2.518l-3.678,2.524a3.726,3.726,0,0,0-.843-.812,2.847,2.847,0,0,0-1.264-.43,3.113,3.113,0,0,0-3.237,2.427,5.722,5.722,0,0,0,.546,3.167,5.973,5.973,0,0,0,2.1,3.075,3.18,3.18,0,0,0,4.156-1.468A4.912,4.912,0,0,0,89.669,81.62Z" style="fill:#fff5f5"/></svg>