<?xml version="1.0" encoding="utf-8"?>
<!-- Generator: Adobe Illustrator 23.0.0, SVG Export Plug-In . SVG Version: 6.00 Build 0)  -->
<svg version="1.1" id="Layer_1" xmlns="http://www.w3.org/2000/svg" xmlns:xlink="http://www.w3.org/1999/xlink" x="0px" y="0px"
	 viewBox="0 0 64 64" style="enable-background:new 0 0 64 64;" xml:space="preserve">
<style type="text/css">
	.st0{fill:#353744;}
	.st1{fill:#F68820;}
	.st2{fill:#808080;}
	.st3{fill:#5C76B2;}
	.st4{fill:#6FA4D8;}
	.st5{fill:#DBDEE3;}
	.st6{fill:#B3B4B6;}
	.st7{fill:#FBBE18;}
	.st8{fill:#EEC78E;}
	.st9{fill:#DB9E68;}
	.st10{fill:#55525B;}
	.st11{fill:#FFFFFF;}
	.st12{fill:#1C1D28;}
	.st13{fill:#FBD301;}
	.st14{fill:#BE7850;}
	.st15{fill:#4C52A3;}
	.st16{fill:#BF6B1E;}
	.st17{fill:#5F7ABC;}
	.st18{fill:#D4761E;}
	.st19{fill:#5D76B2;}
	.st20{fill:#668DC5;}
</style>
<g>
	<g>
		<path class="st0" d="M48,52v11c0,0.552,0.448,1,1,1s1-0.448,1-1v-3c1.105,0,2-0.895,2-2v-6H48z"/>
	</g>
	<g>
		<g>
			<path class="st10" d="M24.5,5.5h-2.153C22.173,5.206,21.866,5,21.5,5c-0.552,0-1,0.448-1,1c0,0.552,0.448,1,1,1
				c0.366,0,0.672-0.207,0.847-0.5H24.5C24.776,6.5,25,6.276,25,6C25,5.724,24.776,5.5,24.5,5.5z"/>
		</g>
		<g>
			<path class="st10" d="M24.5,8h-2.153c-0.174-0.294-0.481-0.5-0.847-0.5c-0.552,0-1,0.448-1,1c0,0.552,0.448,1,1,1
				c0.366,0,0.672-0.207,0.847-0.5H24.5C24.776,9,25,8.776,25,8.5C25,8.224,24.776,8,24.5,8z"/>
		</g>
	</g>
	<g>
		<path class="st1" d="M42.631,44H42c-2.209,0-4-1.791-4-4c0-1.105,0.895-2,2-2v-4c0-5.523-4.477-10-10-10h-2.5v0.328
			C23.189,25.44,20,29.342,20,34v4c1.105,0,2,0.895,2,2c0,2.209-1.791,4-4,4h-0.631C16.501,45.82,16,47.849,16,50
			c0,6.877,4.963,12.584,11.5,13.765V64H30c7.732,0,14-6.268,14-14C44,47.849,43.499,45.82,42.631,44z"/>
	</g>
	<g>
		<path class="st7" d="M38.631,44H38c-2.209,0-4-1.791-4-4c0-1.105,0.895-2,2-2v-2v-2c0-5.523-4.477-10-10-10s-10,4.477-10,10v2v2
			c1.105,0,2,0.895,2,2c0,2.209-1.791,4-4,4h-0.631C12.501,45.82,12,47.849,12,50c0,7.732,6.268,14,14,14s14-6.268,14-14
			C40,47.849,39.499,45.82,38.631,44z"/>
	</g>
	<g>
		<path class="st0" d="M30,24l-0.5-14H24l-0.963,26.964C23.017,37.53,23.47,38,24.036,38h4.927c0.566,0,1.02-0.47,0.999-1.036
			L29.5,24H30z"/>
	</g>
	<g>
		<path class="st10" d="M27.964,38h-3.927c-0.566,0-1.02-0.47-0.999-1.036L24,10h4l0.963,26.964C28.983,37.53,28.53,38,27.964,38z"
			/>
	</g>
	<g>
		<path class="st0" d="M29,44h-5c-0.552,0-1,0.448-1,1v4c0,0.885,0.39,1.672,1,2.221V63c0,0.552,0.448,1,1,1h3c0.552,0,1-0.448,1-1
			V51.221c0.61-0.549,1-1.336,1-2.221v-4C30,44.448,29.552,44,29,44z"/>
	</g>
	<g>
		<path class="st10" d="M28,44h-4c-0.552,0-1,0.448-1,1v4c0,0.885,0.39,1.672,1,2.221V63c0,0.552,0.448,1,1,1h2c0.552,0,1-0.448,1-1
			V51.221c0.61-0.549,1-1.336,1-2.221v-4C29,44.448,28.552,44,28,44z"/>
	</g>
	<g>
		<path class="st0" d="M29.5,40.5h-6c-0.276,0-0.5,0.224-0.5,0.5c0,0.276,0.224,0.5,0.5,0.5h6c0.276,0,0.5-0.224,0.5-0.5
			C30,40.724,29.776,40.5,29.5,40.5z"/>
	</g>
	<g>
		<path class="st10" d="M28.5,41.5h-5c-0.276,0-0.5-0.224-0.5-0.5l0,0c0-0.276,0.224-0.5,0.5-0.5h5c0.276,0,0.5,0.224,0.5,0.5l0,0
			C29,41.276,28.776,41.5,28.5,41.5z"/>
	</g>
	<g>
		<rect x="24" y="5" class="st7" width="4" height="5"/>
	</g>
	<g>
		<rect x="28" y="4" class="st1" width="1.5" height="6"/>
	</g>
	<g>
		<path class="st7" d="M28,0h-5c-1.381,0-2.5,1.119-2.5,2.5C20.5,3.881,21.619,5,23,5h5c1.381,0,2.5-1.119,2.5-2.5
			C30.5,1.119,29.381,0,28,0z"/>
	</g>
	<g>
		<circle class="st1" cx="28" cy="2.5" r="2.5"/>
	</g>
	<g>
		<circle class="st16" cx="28" cy="2.5" r="1"/>
	</g>
	<g>
		<g>
			<path class="st10" d="M35,54v-5c0-0.552-0.448-1-1-1s-1,0.448-1,1c0,0.552,0.448,1,1,1v5c0,0.552,0.448,1,1,1s1-0.448,1-1
				C36,54.448,35.552,54,35,54z"/>
		</g>
		<g>
			<path class="st10" d="M18,48c-0.552,0-1,0.448-1,1v5c-0.552,0-1,0.448-1,1c0,0.552,0.448,1,1,1s1-0.448,1-1v-5
				c0.552,0,1-0.448,1-1C19,48.448,18.552,48,18,48z"/>
		</g>
	</g>
	<g>
		<g>
			<path class="st10" d="M32,5c-0.366,0-0.673,0.206-0.847,0.5H29c-0.276,0-0.5,0.224-0.5,0.5c0,0.276,0.224,0.5,0.5,0.5h2.153
				C31.328,6.793,31.634,7,32,7c0.552,0,1-0.448,1-1C33,5.448,32.552,5,32,5z"/>
		</g>
		<g>
			<path class="st10" d="M32,7.5c-0.366,0-0.673,0.206-0.847,0.5H29c-0.276,0-0.5,0.224-0.5,0.5C28.5,8.776,28.724,9,29,9h2.153
				C31.328,9.293,31.634,9.5,32,9.5c0.552,0,1-0.448,1-1C33,7.948,32.552,7.5,32,7.5z"/>
		</g>
	</g>
	<g>
		<path class="st1" d="M50.5,0h-1C48.672,0,48,0.672,48,1.5V52h2V4c0-0.552,0.448-1,1-1h1V1.5C52,0.672,51.328,0,50.5,0z"/>
	</g>
	<g>
		<path class="st7" d="M49.5,0C48.672,0,48,0.672,48,1.5V52h1V4c0-0.552,0.448-1,1-1h1V1.5C51,0.672,50.328,0,49.5,0L49.5,0z"/>
	</g>
	<g>
		<rect x="51" y="3" class="st5" width="1" height="49"/>
	</g>
	<g>
		<path class="st10" d="M48,52v11c0,0.552,0.448,1,1,1v-4c1.105,0,2-0.895,2-2v-6H48z"/>
	</g>
</g>
</svg>
