<?xml version="1.0" encoding="utf-8"?>
<!-- Generator: Adobe Illustrator 23.0.0, SVG Export Plug-In . SVG Version: 6.00 Build 0)  -->
<svg version="1.1" id="Layer_1" xmlns="http://www.w3.org/2000/svg" xmlns:xlink="http://www.w3.org/1999/xlink" x="0px" y="0px"
	 viewBox="0 0 64 64" style="enable-background:new 0 0 64 64;" xml:space="preserve">
<style type="text/css">
	.st0{fill:#353744;}
	.st1{fill:#F68820;}
	.st2{fill:#808080;}
	.st3{fill:#5C76B2;}
	.st4{fill:#6FA4D8;}
	.st5{fill:#DBDEE3;}
	.st6{fill:#B3B4B6;}
	.st7{fill:#FBBE18;}
	.st8{fill:#EEC78E;}
	.st9{fill:#DB9E68;}
	.st10{fill:#55525B;}
	.st11{fill:#FFFFFF;}
	.st12{fill:#1C1D28;}
	.st13{fill:#FBD301;}
	.st14{fill:#BE7850;}
	.st15{fill:#4C52A3;}
	.st16{fill:#BF6B1E;}
	.st17{fill:#5F7ABC;}
	.st18{fill:#D4761E;}
	.st19{fill:#5D76B2;}
	.st20{fill:#668DC5;}
</style>
<g>
	<g>
		<path class="st4" d="M37.31,17.986h-9.293c-0.445,0-0.669,0.539-0.354,0.854l1.138,1.138l-4.009,4.009L21.5,20.693
			c-0.195-0.195-0.451-0.293-0.707-0.293h-4c-0.256,0-0.512,0.098-0.707,0.293L4,32.779c-0.391,0.39-0.391,1.024,0,1.414
			l2.086,2.086c0.195,0.195,0.451,0.293,0.707,0.293h4c0.256,0,0.512-0.097,0.707-0.293l7.293-7.293l3.293,3.293
			c0.195,0.195,0.451,0.293,0.707,0.293h4c0.256,0,0.512-0.097,0.707-0.293l7.499-7.499h2.808l-0.001-0.017
			c0.257,0,0.505-0.183,0.505-0.484v-5.293C38.31,18.434,37.863,17.986,37.31,17.986z"/>
	</g>
	<g>
		<path class="st3" d="M56.293,25.986h-16c-2.209,0-4,1.791-4,4v33.5h24v-33.5C60.293,27.777,58.502,25.986,56.293,25.986z"/>
	</g>
	<g>
		<path class="st4" d="M44.293,25.986h-4c-2.209,0-4,1.791-4,4v33.5h12v-33.5C48.293,27.777,46.502,25.986,44.293,25.986z"/>
	</g>
	<g>
		<path class="st0" d="M44.293,39.486h-16c-2.209,0-4,1.791-4,4v20h24v-20C48.293,41.277,46.502,39.486,44.293,39.486z"/>
	</g>
	<g>
		<path class="st10" d="M32.293,39.486h-4c-2.209,0-4,1.791-4,4v20h12v-20C36.293,41.277,34.502,39.486,32.293,39.486z"/>
	</g>
	<g>
		<path class="st3" d="M32.293,52.986h-16c-2.209,0-4,1.791-4,4v6.5h24v-6.5C36.293,54.777,34.502,52.986,32.293,52.986z"/>
	</g>
	<g>
		<path class="st4" d="M20.293,52.986h-4c-2.209,0-4,1.791-4,4v6.5h12v-6.5C24.293,54.777,22.502,52.986,20.293,52.986z"/>
	</g>
	<g>
		<g>
			<path class="st1" d="M49.19,6.848l1.34,2.716c0.146,0.295,0.427,0.5,0.753,0.547l2.997,0.436c0.82,0.119,1.148,1.127,0.554,1.706
				l-2.169,2.114c-0.236,0.23-0.343,0.561-0.288,0.885l0.512,2.985c0.14,0.817-0.717,1.44-1.451,1.054l-2.681-1.409
				c-0.291-0.153-0.639-0.153-0.931,0l-2.681,1.409c-0.734,0.386-1.591-0.237-1.451-1.054l0.512-2.985
				c0.056-0.324-0.052-0.655-0.288-0.885l-2.169-2.114c-0.594-0.579-0.266-1.587,0.554-1.706l2.997-0.436
				c0.326-0.047,0.607-0.252,0.753-0.547l1.34-2.716C47.763,6.105,48.823,6.105,49.19,6.848z"/>
		</g>
	</g>
	<g>
		<path class="st7" d="M48.293,4.885c-0.537,0-0.971-0.436-0.971-0.972V1.486c0-0.536,0.435-0.972,0.971-0.972
			s0.971,0.436,0.971,0.972v2.428C49.264,4.45,48.83,4.885,48.293,4.885z"/>
	</g>
	<g>
		<path class="st7" d="M39.189,11.5c-0.099,0-0.2-0.016-0.3-0.048l-2.309-0.75c-0.51-0.166-0.79-0.714-0.624-1.224
			c0.166-0.511,0.712-0.789,1.224-0.624l2.309,0.75c0.51,0.166,0.79,0.714,0.624,1.224C39.98,11.239,39.599,11.5,39.189,11.5z"/>
	</g>
	<g>
		<path class="st7" d="M41.238,24.166c-0.198,0-0.397-0.061-0.57-0.186c-0.434-0.315-0.53-0.923-0.215-1.357l1.427-1.964
			c0.316-0.433,0.923-0.531,1.356-0.214c0.434,0.314,0.53,0.922,0.215,1.356l-1.427,1.964
			C41.835,24.026,41.539,24.166,41.238,24.166z"/>
	</g>
	<g>
		<path class="st7" d="M55.347,24.166c-0.3,0-0.597-0.14-0.787-0.4l-1.427-1.964c-0.315-0.435-0.219-1.042,0.215-1.356
			c0.434-0.317,1.042-0.219,1.356,0.214l1.427,1.964c0.315,0.435,0.219,1.042-0.215,1.357
			C55.745,24.105,55.545,24.166,55.347,24.166z"/>
	</g>
	<g>
		<path class="st7" d="M57.396,11.5c-0.41,0-0.791-0.261-0.924-0.672c-0.166-0.51,0.114-1.058,0.624-1.224l2.309-0.75
			c0.512-0.165,1.058,0.113,1.224,0.624c0.166,0.51-0.114,1.058-0.624,1.224l-2.309,0.75C57.597,11.484,57.496,11.5,57.396,11.5z"/>
	</g>
	<g>
		<path class="st7" d="M43.724,18.072c4.068-1.023,7.381-3.935,8.939-7.76l-1.38-0.201c-0.326-0.047-0.607-0.252-0.753-0.547
			l-1.34-2.716c-0.367-0.743-1.427-0.743-1.793,0l-1.34,2.716c-0.146,0.295-0.427,0.5-0.753,0.547l-2.997,0.436
			c-0.82,0.119-1.148,1.127-0.554,1.706l2.169,2.114c0.236,0.23,0.343,0.561,0.288,0.885L43.724,18.072z"/>
	</g>
	<g>
		<path class="st7" d="M48.293,23.458c-0.537,0-0.971-0.436-0.971-0.972v-1c0-0.536,0.435-0.972,0.971-0.972
			s0.971,0.436,0.971,0.972v1C49.264,23.022,48.83,23.458,48.293,23.458z"/>
	</g>
	<g>
		<path class="st7" d="M56.853,17.239c-0.1,0-0.201-0.016-0.301-0.048l-0.951-0.31c-0.51-0.166-0.789-0.714-0.623-1.225
			c0.166-0.51,0.713-0.788,1.224-0.623l0.951,0.31c0.51,0.166,0.789,0.714,0.623,1.225C57.643,16.978,57.262,17.239,56.853,17.239z"
			/>
	</g>
	<g>
		<path class="st7" d="M52.994,7.986c-0.198,0-0.397-0.061-0.57-0.186c-0.434-0.315-0.53-0.923-0.215-1.356l0.588-0.81
			c0.315-0.434,0.922-0.53,1.356-0.216c0.434,0.315,0.53,0.923,0.215,1.356l-0.588,0.81C53.591,7.846,53.295,7.986,52.994,7.986z"/>
	</g>
	<g>
		<path class="st7" d="M43.592,7.986c-0.301,0-0.597-0.14-0.787-0.401l-0.588-0.81c-0.315-0.434-0.219-1.041,0.215-1.356
			c0.435-0.314,1.042-0.218,1.356,0.216l0.588,0.81c0.315,0.434,0.219,1.041-0.215,1.356C43.989,7.925,43.79,7.986,43.592,7.986z"/>
	</g>
	<g>
		<path class="st7" d="M39.733,17.239c-0.41,0-0.79-0.261-0.923-0.671c-0.166-0.511,0.113-1.059,0.623-1.225l0.951-0.31
			c0.512-0.165,1.059,0.113,1.224,0.623c0.166,0.511-0.113,1.059-0.623,1.225l-0.951,0.31
			C39.934,17.223,39.833,17.239,39.733,17.239z"/>
	</g>
	<g>
		<path class="st7" d="M56.337,35.486h0.749c0.445,0,0.669-0.539,0.354-0.854L55,32.193c-0.391-0.391-1.024-0.391-1.414,0
			l-2.439,2.439c-0.315,0.315-0.092,0.854,0.354,0.854h0.793v5c0,0.552,0.448,1,1,1h2.044c0.552,0,1-0.448,1-1V35.486z"/>
	</g>
	<g>
		<path class="st3" d="M37.31,17.986h-5.293c-0.445,0-0.669,0.539-0.354,0.854l1.138,1.138L27.5,25.279
			c-0.391,0.391-1.024,0.391-1.414,0L21.5,20.693c-0.391-0.391-1.024-0.391-1.414,0L8,32.779c-0.391,0.391-0.391,1.024,0,1.414
			l2.086,2.086c0.391,0.391,1.024,0.391,1.414,0l8.586-8.586c0.391-0.391,1.024-0.391,1.414,0l4.586,4.586
			c0.391,0.391,1.024,0.391,1.414,0l8.802-8.802l1.155,1.155c0.315,0.315,0.854,0.092,0.854-0.354v-5.293
			C38.31,18.434,37.863,17.986,37.31,17.986z"/>
	</g>
</g>
</svg>
