<?xml version="1.0" encoding="utf-8"?>
<!-- Generator: Adobe Illustrator 23.0.0, SVG Export Plug-In . SVG Version: 6.00 Build 0)  -->
<svg version="1.1" id="Layer_1" xmlns="http://www.w3.org/2000/svg" xmlns:xlink="http://www.w3.org/1999/xlink" x="0px" y="0px"
	 viewBox="0 0 64 64" style="enable-background:new 0 0 64 64;" xml:space="preserve">
<style type="text/css">
	.st0{fill:#353744;}
	.st1{fill:#F68820;}
	.st2{fill:#808080;}
	.st3{fill:#5C76B2;}
	.st4{fill:#6FA4D8;}
	.st5{fill:#DBDEE3;}
	.st6{fill:#B3B4B6;}
	.st7{fill:#FBBE18;}
	.st8{fill:#EEC78E;}
	.st9{fill:#DB9E68;}
	.st10{fill:#55525B;}
	.st11{fill:#FFFFFF;}
	.st12{fill:#1C1D28;}
	.st13{fill:#FBD301;}
	.st14{fill:#BE7850;}
	.st15{fill:#4C52A3;}
	.st16{fill:#BF6B1E;}
	.st17{fill:#5F7ABC;}
	.st18{fill:#D4761E;}
	.st19{fill:#5D76B2;}
	.st20{fill:#668DC5;}
</style>
<g>
	<g>
		<rect x="17.5" y="50" class="st12" width="25" height="2"/>
	</g>
	<g>
		<path class="st10" d="M44.5,52h-29c-1.105,0-2,0.895-2,2v0c0,1.105,0.895,2,2,2h29c1.105,0,2-0.895,2-2v0
			C46.5,52.895,45.605,52,44.5,52z"/>
	</g>
	<g>
		<path class="st10" d="M44,56L44,56c0,1.105,0.895,2,2,2h0c1.105,0,2,0.895,2,2v0c0,1.105-0.895,2-2,2H14c-1.105,0-2-0.895-2-2v0
			c0-1.105,0.895-2,2-2h0c1.105,0,2-0.895,2-2l0,0H44z"/>
	</g>
	<g>
		<path class="st0" d="M28,54H13.5v0c0,1.105,0.895,2,2,2h29c1.105,0,2-0.895,2-2v0c0-1.105-0.895-2-2-2H30v0
			C30,53.105,29.105,54,28,54z"/>
	</g>
	<g>
		<path class="st4" d="M61.293,23.436l-3.586-3.586C57.077,19.22,56,19.666,56,20.557v1.586h-5c-0.552,0-1,0.448-1,1v2
			c0,0.552,0.448,1,1,1h5v1.586c0,0.891,1.077,1.337,1.707,0.707l3.586-3.586C61.683,24.459,61.683,23.826,61.293,23.436z"/>
	</g>
	<g>
		<path class="st10" d="M30.5,2h-15l5,5l-7.25,7.25c-2.623,2.623-2.623,6.877,0,9.5s6.877,2.623,9.5,0L25.5,21H30
			c0.202,0,0.403-0.01,0.602-0.03c0.992-0.085,1.925-0.372,2.755-0.827l-16.05,16.05C14.87,38.63,13.5,41.937,13.5,45.385V46
			c0,2.209,1.791,4,4,4h25c2.209,0,4-1.791,4-4V18C46.5,9.163,39.337,2,30.5,2z"/>
	</g>
	<g>
		<path class="st0" d="M30,7h-1l-5-5v5h-3.5l-7.25,7.25c-2.623,2.623-2.623,6.877,0,9.5s6.877,2.623,9.5,0L25.5,21H30
			c3.866,0,7-3.134,7-7C37,10.134,33.866,7,30,7z"/>
	</g>
	<g>
		<circle class="st10" cx="26" cy="12" r="2"/>
	</g>
	<g>
		<path class="st0" d="M41.5,43.962V46c0,2.209-1.791,4-4,4h0h5c2.209,0,4-1.791,4-4V18c0,1.98-0.362,3.875-1.022,5.623
			C43.016,30.147,41.5,36.989,41.5,43.962z"/>
	</g>
	<g>
		<path class="st7" d="M13,30H8v-1.586c0-0.891-1.077-1.337-1.707-0.707l-3.586,3.586c-0.391,0.391-0.391,1.024,0,1.414l3.586,3.586
			C6.923,36.923,8,36.477,8,35.586V34h5c0.552,0,1-0.448,1-1v-2C14,30.448,13.552,30,13,30z"/>
	</g>
	<g>
		<g>
			<path class="st0" d="M46,58H28c1.105,0,2,0.895,2,2v2h16c1.105,0,2-0.895,2-2v0C48,58.895,47.105,58,46,58z"/>
		</g>
		<g>
			<path class="st12" d="M44,56H16c0,1.105-0.895,2-2,2h32C44.895,58,44,57.105,44,56z"/>
		</g>
	</g>
</g>
</svg>
