<?xml version="1.0" encoding="utf-8"?>
<!-- Generator: Adobe Illustrator 22.0.0, SVG Export Plug-In . SVG Version: 6.00 Build 0)  -->
<svg version="1.1" id="Layer_1" xmlns="http://www.w3.org/2000/svg" xmlns:xlink="http://www.w3.org/1999/xlink" x="0px" y="0px"
	 viewBox="0 0 128 128" style="enable-background:new 0 0 128 128;" xml:space="preserve">
<style type="text/css">
	.st0{fill:#746887;}
	.st1{fill:#FFCFB8;}
	.st2{fill:#E6B9A0;}
	.st3{fill:#D29997;}
	.st4{fill:#F98770;}
	.st5{fill:#DCA98B;}
	.st6{fill:#FFDDCF;}
	.st7{fill:#E8E8E8;}
	.st8{fill:#FFBF9E;}
	.st9{fill:#B0BACC;}
	.st10{fill:#9BA7BC;}
	.st11{fill:#B6B4ED;}
	.st12{fill:#FFBC99;}
	.st13{fill:#F8F8F8;}
	.st14{fill:#B2A7BF;}
	.st15{fill:#9B9B9B;}
	.st16{fill:#968AA0;}
	.st17{fill:#C6BBD3;}
	.st18{fill:#D8D8D8;}
	.st19{fill:#D29976;}
	.st20{fill:#FFA77B;}
	.st21{fill:#CCD3DD;}
	.st22{fill-rule:evenodd;clip-rule:evenodd;fill:#F8F8F8;}
	.st23{fill-rule:evenodd;clip-rule:evenodd;fill:#9B9B9B;}
	.st24{fill-rule:evenodd;clip-rule:evenodd;fill:#777777;}
	.st25{fill:#91DEF5;}
	.st26{fill:#B0E7F8;}
	.st27{fill-rule:evenodd;clip-rule:evenodd;fill:#DCA98B;}
	.st28{fill-rule:evenodd;clip-rule:evenodd;fill:#D29997;}
	.st29{fill-rule:evenodd;clip-rule:evenodd;fill:#FFCBBE;}
	.st30{fill-rule:evenodd;clip-rule:evenodd;fill:#E6B9A0;}
	.st31{fill-rule:evenodd;clip-rule:evenodd;fill:#746887;}
	.st32{fill-rule:evenodd;clip-rule:evenodd;fill:#FFBC99;}
	.st33{fill-rule:evenodd;clip-rule:evenodd;fill:#FFA77B;}
	.st34{fill-rule:evenodd;clip-rule:evenodd;fill:#FFCFB8;}
	.st35{fill-rule:evenodd;clip-rule:evenodd;fill:#E8E8E8;}
	.st36{fill-rule:evenodd;clip-rule:evenodd;fill:#CCD3DD;}
	.st37{fill:#E6B9C1;}
	.st38{fill:#FFCBBE;}
	.st39{fill-rule:evenodd;clip-rule:evenodd;fill:#F98770;}
	.st40{fill-rule:evenodd;clip-rule:evenodd;fill:#F2BB88;}
	.st41{fill:#F2D1A5;}
	.st42{fill-rule:evenodd;clip-rule:evenodd;fill:#F2D1A5;}
	.st43{fill:#F2BB88;}
	.st44{fill-rule:evenodd;clip-rule:evenodd;fill:#9BA7BC;}
	.st45{fill-rule:evenodd;clip-rule:evenodd;fill:#B0BACC;}
	.st46{fill-rule:evenodd;clip-rule:evenodd;fill:#FFFFFF;}
	.st47{fill-rule:evenodd;clip-rule:evenodd;fill:#FFDDCF;}
	.st48{fill-rule:evenodd;clip-rule:evenodd;fill:#B0E7F8;}
	.st49{fill-rule:evenodd;clip-rule:evenodd;fill:#968AA0;}
	.st50{fill:#9D9BE6;}
	.st51{fill:#CFCEF3;}
	.st52{fill-rule:evenodd;clip-rule:evenodd;fill:#D8D8D8;}
	.st53{fill-rule:evenodd;clip-rule:evenodd;fill:#B6B4ED;}
	.st54{fill-rule:evenodd;clip-rule:evenodd;fill:#FFD4BE;}
</style>
<g>
	<g>
		<g>
			<path class="st10" d="M87.5,83.51h2.78c5.27,0,9.71,3.92,10.36,9.15l3.86,30.85h9V57.89C113.5,72.04,101.65,83.51,87.5,83.51z"/>
		</g>
	</g>
	<g>
		<g>
			<path class="st9" d="M91.62,49.7l-12.83-5.25c-1.39-0.57-2.29-1.92-2.29-3.41v-0.53h-0.08l-35.92,2
				C26.43,43.09,14.65,53.37,12.04,67.3L1.5,123.51h9l12.12-32.33c1.73-4.61,6.15-7.67,11.08-7.67h38.8v40h10l5-40
				c14.152,0,26-11.473,26-25.625V46.38l-8.12,3.32C100.97,51.5,96.03,51.5,91.62,49.7z"/>
		</g>
	</g>
	<g>
		<g>
			<path class="st9" d="M105.729,10.51H91.271c-8.158,0-14.771,6.613-14.771,14.771v15.758c0,1.494,0.904,2.841,2.287,3.406
				l12.836,5.251c4.408,1.803,9.347,1.803,13.755,0l12.836-5.251c1.383-0.566,2.287-1.912,2.287-3.406V25.281
				C120.5,17.123,113.887,10.51,105.729,10.51z"/>
		</g>
	</g>
	<g>
		<g>
			<path class="st18" d="M115.19,5.12l-9.69,5.39h0.23c8.16,0,14.77,6.61,14.77,14.77V7.91C120.5,5.18,118.5,3.51,115.19,5.12z"/>
		</g>
	</g>
	<g>
		<g>
			<path class="st9" d="M14.69,33.96c2.16-5.73,5.03-11.59,3.81-17.44v-0.01c-0.46-2.17-1.93-4.76-3.57-6.75
				c-1.71-2.07-4.77-2.37-6.85-0.66C6,10.8,5.7,13.87,7.41,15.95c2.34,2.84,0.87,7.41-1.83,14.58c-1.73,4.6-4.07,9.87-4.08,14.98
				c0,4,1,8,4,11c2.24,2.24,5.36,4.39,8,5h0.23c1.51-3.79,3.75-7.17,6.53-10c-2.77,0-4.99-0.21-6.76-2
				C10.35,46.32,11.47,42.5,14.69,33.96z"/>
		</g>
	</g>
	<g>
		<g>
			<path class="st18" d="M76.5,7.91v17.37c0-8.16,6.61-14.77,14.77-14.77h0.23l-9.69-5.39C78.5,3.51,76.5,5.18,76.5,7.91z"/>
		</g>
	</g>
	<g>
		<g>
			<path class="st10" d="M22.62,91.18L10.5,123.51h9l12.12-32.33c1.73-4.61,6.15-7.67,11.08-7.67h-9
				C28.77,83.51,24.35,86.57,22.62,91.18z"/>
		</g>
	</g>
	<g>
		<g>
			<path class="st16" d="M101.5,31.51h-6c-0.552,0-1,0.448-1,1c0,2.209,1.791,4,4,4s4-1.791,4-4
				C102.5,31.958,102.052,31.51,101.5,31.51z"/>
		</g>
	</g>
	<g>
		<g>
			<circle class="st0" cx="110.5" cy="24.997" r="2.5"/>
		</g>
	</g>
	<g>
		<g>
			<circle class="st0" cx="86.5" cy="24.997" r="2.5"/>
		</g>
	</g>
	<g>
		<g>
			<path class="st4" d="M105.5,17.01c-0.829,0-1.5-0.671-1.5-1.5v-5c0-0.829,0.671-1.5,1.5-1.5s1.5,0.671,1.5,1.5v5
				C107,16.339,106.329,17.01,105.5,17.01z"/>
		</g>
	</g>
	<g>
		<g>
			<path class="st4" d="M13.637,19.865c-0.692,0-1.314-0.481-1.465-1.185c-0.174-0.81,0.341-1.608,1.151-1.782
				c3.197-0.688,4.139-1.47,4.147-1.478c0.572-0.6,1.492-0.596,2.093-0.024c0.6,0.571,0.595,1.548,0.023,2.148
				c-0.302,0.317-1.601,1.419-5.632,2.286C13.847,19.854,13.741,19.865,13.637,19.865z"/>
		</g>
	</g>
	<g>
		<g>
			<path class="st4" d="M91.5,17.01c-0.829,0-1.5-0.671-1.5-1.5v-5c0-0.829,0.671-1.5,1.5-1.5s1.5,0.671,1.5,1.5v5
				C93,16.339,92.329,17.01,91.5,17.01z"/>
		</g>
	</g>
	<g>
		<g>
			<path class="st4" d="M72.5,85.01c-0.829,0-1.5-0.671-1.5-1.5c0-3.033-2.467-5.5-5.5-5.5h-1c-0.829,0-1.5-0.671-1.5-1.5
				s0.671-1.5,1.5-1.5h1c4.687,0,8.5,3.813,8.5,8.5C74,84.339,73.329,85.01,72.5,85.01z"/>
		</g>
	</g>
	<g>
		<g>
			<path class="st4" d="M87.502,85.01c-0.062,0-0.125-0.004-0.188-0.012c-0.822-0.103-1.405-0.853-1.302-1.674l1-8
				c0.103-0.822,0.853-1.409,1.674-1.302c0.822,0.103,1.405,0.853,1.302,1.674l-1,8C88.894,84.455,88.248,85.01,87.502,85.01z"/>
		</g>
	</g>
	<g>
		<g>
			<path class="st0" d="M19.5,125.01h-9c-0.492,0-0.953-0.241-1.233-0.646s-0.344-0.92-0.172-1.381l12.12-32.33
				c1.94-5.17,6.958-8.644,12.485-8.644h9c0.829,0,1.5,0.671,1.5,1.5s-0.671,1.5-1.5,1.5c-4.284,0-8.172,2.691-9.676,6.697
				l-12.12,32.33C20.685,124.623,20.125,125.01,19.5,125.01z M12.664,122.01h5.796l11.755-31.356
				c0.845-2.252,2.274-4.182,4.075-5.644H33.7c-4.284,0-8.172,2.691-9.676,6.697L12.664,122.01z"/>
		</g>
	</g>
	<g>
		<g>
			<path class="st0" d="M113.5,125.01h-9c-0.756,0-1.395-0.563-1.488-1.314l-3.86-30.85c-0.555-4.468-4.369-7.836-8.872-7.836H87.5
				c-0.829,0-1.5-0.671-1.5-1.5s0.671-1.5,1.5-1.5c13.509,0,24.5-10.82,24.5-24.12c0-0.829,0.671-1.5,1.5-1.5s1.5,0.671,1.5,1.5
				v50.255c0,0.829-0.671,1.5-1.5,1.5s-1.5-0.671-1.5-1.5V70.201c-3.253,6.27-8.909,11.135-15.762,13.406
				c3.15,1.82,5.415,5.042,5.891,8.868l3.695,29.535H112v-5.93c0-0.829,0.671-1.5,1.5-1.5s1.5,0.671,1.5,1.5v7.43
				C115,124.339,114.329,125.01,113.5,125.01z"/>
		</g>
	</g>
	<g>
		<g>
			<path class="st0" d="M82.5,125.01h-10c-0.829,0-1.5-0.671-1.5-1.5v-38.5H33.7c-4.284,0-8.172,2.691-9.676,6.697l-12.12,32.33
				c-0.22,0.586-0.779,0.974-1.405,0.974h-9c-0.446,0-0.869-0.199-1.154-0.542s-0.402-0.796-0.32-1.234l9.085-48.449
				c0.152-0.813,0.935-1.352,1.75-1.198c0.814,0.152,1.351,0.937,1.198,1.75L3.308,122.01H9.46l11.755-31.356
				c1.94-5.17,6.958-8.644,12.485-8.644h38.8c0.829,0,1.5,0.671,1.5,1.5v38.5h7.176l4.836-38.686
				c0.094-0.75,0.732-1.314,1.488-1.314c13.509,0,24.5-10.822,24.5-24.125v-9.271l-6.052,2.475c-4.804,1.96-10.092,1.96-14.895,0
				l-12.831-5.25c-1.627-0.667-2.775-2.08-3.117-3.75l-34.522,1.92C27.167,44.561,16.05,54.225,13.528,67.509
				c-0.155,0.813-0.938,1.351-1.753,1.194c-0.814-0.154-1.349-0.939-1.194-1.753c2.783-14.662,15.061-25.328,29.857-25.938
				l35.898-1.999c0.028-0.001,0.136-0.002,0.164-0.002c0.829,0,1.5,0.671,1.5,1.5v0.53c0,0.89,0.533,1.684,1.359,2.022l12.829,5.25
				c4.071,1.661,8.555,1.661,12.625,0l8.119-3.32c0.462-0.189,0.988-0.135,1.404,0.144c0.415,0.278,0.664,0.746,0.664,1.245v11.505
				c0,14.518-11.623,26.408-26.172,27.094l-4.84,38.717C83.895,124.447,83.256,125.01,82.5,125.01z"/>
		</g>
	</g>
	<g>
		<g>
			<path class="st0" d="M98.5,52.558c-2.522,0-5.045-0.491-7.445-1.473l-12.835-5.251C76.264,45.034,75,43.152,75,41.04V25.281
				C75,16.31,82.299,9.01,91.271,9.01h14.458C114.701,9.01,122,16.31,122,25.281V41.04c0,2.113-1.264,3.995-3.219,4.794
				l-12.835,5.251C103.545,52.067,101.022,52.558,98.5,52.558z M91.271,12.01C83.953,12.01,78,17.963,78,25.281V41.04
				c0,0.889,0.532,1.681,1.355,2.018l12.835,5.251c4.069,1.664,8.55,1.664,12.619,0l12.835-5.251
				c0.823-0.337,1.355-1.129,1.355-2.018V25.281c0-7.318-5.953-13.271-13.271-13.271H91.271z M118.213,44.446h0.01H118.213z"/>
		</g>
	</g>
	<g>
		<g>
			<g>
				<path class="st0" d="M79.5,34.01h-9c-0.829,0-1.5-0.671-1.5-1.5s0.671-1.5,1.5-1.5h9c0.829,0,1.5,0.671,1.5,1.5
					S80.329,34.01,79.5,34.01z"/>
			</g>
		</g>
		<g>
			<g>
				<g>
					<path class="st0" d="M77.499,50.01c-0.286,0-0.575-0.082-0.831-0.252c-0.689-0.459-0.875-1.391-0.416-2.08l4-6
						c0.458-0.689,1.389-0.875,2.08-0.416c0.689,0.459,0.875,1.391,0.416,2.08l-4,6C78.459,49.776,77.983,50.01,77.499,50.01z"/>
				</g>
			</g>
		</g>
	</g>
	<g>
		<g>
			<g>
				<path class="st0" d="M126.5,34.01h-9c-0.829,0-1.5-0.671-1.5-1.5s0.671-1.5,1.5-1.5h9c0.829,0,1.5,0.671,1.5,1.5
					S127.329,34.01,126.5,34.01z"/>
			</g>
		</g>
		<g>
			<g>
				<path class="st0" d="M119.501,50.01c-0.485,0-0.96-0.234-1.25-0.668l-4-6c-0.459-0.689-0.273-1.621,0.416-2.08
					s1.62-0.273,2.08,0.416l4,6c0.459,0.689,0.273,1.621-0.416,2.08C120.076,49.929,119.787,50.01,119.501,50.01z"/>
			</g>
		</g>
	</g>
	<g>
		<g>
			<path class="st0" d="M120.5,26.78c-0.829,0-1.5-0.671-1.5-1.5c0-7.317-5.953-13.27-13.27-13.27h-0.23
				c-0.684,0-1.28-0.462-1.452-1.124c-0.171-0.661,0.126-1.355,0.723-1.688l9.69-5.39c2.813-1.37,4.615-0.698,5.445-0.178
				C121.237,4.463,122,6.023,122,7.91v17.37C122,26.109,121.329,26.78,120.5,26.78z M110.172,9.626
				c3.606,1.025,6.707,3.267,8.828,6.25V7.91c0-0.831-0.25-1.463-0.685-1.736c-0.517-0.324-1.418-0.217-2.469,0.295L110.172,9.626z"
				/>
		</g>
	</g>
	<g>
		<g>
			<path class="st0" d="M13.73,63.01H13.5c-0.114,0-0.227-0.013-0.337-0.039c-3.185-0.735-6.594-3.272-8.723-5.401
				C1.494,54.625,0,50.567,0,45.51c0.009-4.706,1.842-9.449,3.458-13.635c0.246-0.635,0.487-1.26,0.718-1.873
				c2.438-6.475,3.9-10.885,2.076-13.099c-1.084-1.319-1.589-2.979-1.421-4.675C5,10.537,5.816,9.014,7.131,7.938
				c2.704-2.223,6.723-1.835,8.956,0.866c1.951,2.367,3.401,5.131,3.881,7.395c0.006,0.028,0.011,0.056,0.016,0.084
				c1.11,5.452-0.964,10.728-2.969,15.832c-0.312,0.793-0.623,1.585-0.92,2.375c-3.331,8.833-3.896,11.566-1.526,13.967
				c1.299,1.313,2.936,1.554,5.692,1.554c0.604,0,1.149,0.363,1.383,0.92s0.11,1.2-0.313,1.631c-2.701,2.75-4.79,5.947-6.207,9.504
				C14.896,62.636,14.344,63.01,13.73,63.01z M11.171,9.494c-0.754,0-1.513,0.25-2.139,0.765c-0.697,0.569-1.127,1.373-1.215,2.266
				c-0.089,0.897,0.178,1.775,0.751,2.473c2.857,3.468,1.307,8.381-1.585,16.062c-0.233,0.621-0.478,1.254-0.727,1.897
				C4.734,36.899,3.008,41.367,3,45.513c0,4.229,1.198,7.574,3.561,9.937c1.962,1.962,4.324,3.562,6.287,4.296
				c1.11-2.486,2.528-4.801,4.234-6.919c-1.682-0.256-3.263-0.86-4.648-2.261c-3.878-3.927-2.375-8.576,0.853-17.134
				c0.302-0.802,0.618-1.606,0.935-2.413c1.938-4.933,3.769-9.592,2.81-14.192c-0.005-0.022-0.009-0.044-0.012-0.066
				c-0.394-1.778-1.633-4.088-3.247-6.046C13.108,9.91,12.143,9.494,11.171,9.494z"/>
		</g>
	</g>
	<g>
		<g>
			<path class="st0" d="M98.5,38.01c-3.033,0-5.5-2.467-5.5-5.5c0-1.378,1.122-2.5,2.5-2.5h6c1.378,0,2.5,1.122,2.5,2.5
				C104,35.543,101.533,38.01,98.5,38.01z M96.05,33.01c0.232,1.14,1.242,2,2.45,2s2.217-0.86,2.45-2H96.05z"/>
		</g>
	</g>
	<g>
		<g>
			<path class="st0" d="M93.5,43.01h-2c-3.584,0-6.5-2.916-6.5-6.5c0-0.829,0.671-1.5,1.5-1.5s1.5,0.671,1.5,1.5
				c0,1.93,1.57,3.5,3.5,3.5h2c1.93,0,3.5-1.57,3.5-3.5c0-0.829,0.671-1.5,1.5-1.5s1.5,0.671,1.5,1.5
				C100,40.094,97.084,43.01,93.5,43.01z"/>
		</g>
	</g>
	<g>
		<g>
			<path class="st0" d="M105.5,43.01h-2c-3.584,0-6.5-2.916-6.5-6.5c0-0.829,0.671-1.5,1.5-1.5s1.5,0.671,1.5,1.5
				c0,1.93,1.57,3.5,3.5,3.5h2c1.93,0,3.5-1.57,3.5-3.5c0-0.829,0.671-1.5,1.5-1.5s1.5,0.671,1.5,1.5
				C112,40.094,109.084,43.01,105.5,43.01z"/>
		</g>
	</g>
	<g>
		<g>
			<path class="st0" d="M76.5,26.78c-0.829,0-1.5-0.671-1.5-1.5V7.91c0-1.887,0.763-3.447,2.094-4.279
				c0.83-0.52,2.632-1.192,5.373,0.14l9.763,5.428c0.597,0.333,0.895,1.026,0.723,1.688c-0.172,0.662-0.769,1.124-1.452,1.124h-0.23
				C83.953,12.01,78,17.963,78,25.28C78,26.109,77.329,26.78,76.5,26.78z M79.44,5.988c-0.297,0-0.555,0.061-0.755,0.186
				C78.25,6.447,78,7.08,78,7.91v7.966c2.121-2.983,5.22-5.224,8.827-6.249l-5.746-3.196C80.481,6.141,79.911,5.988,79.44,5.988z"/>
		</g>
	</g>
</g>
</svg>
