<?xml version="1.0" encoding="utf-8"?>
<!-- Generator: Adobe Illustrator 22.0.0, SVG Export Plug-In . SVG Version: 6.00 Build 0)  -->
<svg version="1.1" id="Layer_1" xmlns="http://www.w3.org/2000/svg" xmlns:xlink="http://www.w3.org/1999/xlink" x="0px" y="0px"
	 viewBox="0 0 128 128" style="enable-background:new 0 0 128 128;" xml:space="preserve">
<style type="text/css">
	.st0{fill:#746887;}
	.st1{fill:#FFCFB8;}
	.st2{fill:#E6B9A0;}
	.st3{fill:#D29997;}
	.st4{fill:#F98770;}
	.st5{fill:#DCA98B;}
	.st6{fill:#FFDDCF;}
	.st7{fill:#E8E8E8;}
	.st8{fill:#FFBF9E;}
	.st9{fill:#B0BACC;}
	.st10{fill:#9BA7BC;}
	.st11{fill:#B6B4ED;}
	.st12{fill:#FFBC99;}
	.st13{fill:#F8F8F8;}
	.st14{fill:#B2A7BF;}
	.st15{fill:#9B9B9B;}
	.st16{fill:#968AA0;}
	.st17{fill:#C6BBD3;}
	.st18{fill:#D8D8D8;}
	.st19{fill:#D29976;}
	.st20{fill:#FFA77B;}
	.st21{fill:#CCD3DD;}
	.st22{fill-rule:evenodd;clip-rule:evenodd;fill:#F8F8F8;}
	.st23{fill-rule:evenodd;clip-rule:evenodd;fill:#9B9B9B;}
	.st24{fill-rule:evenodd;clip-rule:evenodd;fill:#777777;}
	.st25{fill:#91DEF5;}
	.st26{fill:#B0E7F8;}
	.st27{fill-rule:evenodd;clip-rule:evenodd;fill:#DCA98B;}
	.st28{fill-rule:evenodd;clip-rule:evenodd;fill:#D29997;}
	.st29{fill-rule:evenodd;clip-rule:evenodd;fill:#FFCBBE;}
	.st30{fill-rule:evenodd;clip-rule:evenodd;fill:#E6B9A0;}
	.st31{fill-rule:evenodd;clip-rule:evenodd;fill:#746887;}
	.st32{fill-rule:evenodd;clip-rule:evenodd;fill:#FFBC99;}
	.st33{fill-rule:evenodd;clip-rule:evenodd;fill:#FFA77B;}
	.st34{fill-rule:evenodd;clip-rule:evenodd;fill:#FFCFB8;}
	.st35{fill-rule:evenodd;clip-rule:evenodd;fill:#E8E8E8;}
	.st36{fill-rule:evenodd;clip-rule:evenodd;fill:#CCD3DD;}
	.st37{fill:#E6B9C1;}
	.st38{fill:#FFCBBE;}
	.st39{fill-rule:evenodd;clip-rule:evenodd;fill:#F98770;}
	.st40{fill-rule:evenodd;clip-rule:evenodd;fill:#F2BB88;}
	.st41{fill:#F2D1A5;}
	.st42{fill-rule:evenodd;clip-rule:evenodd;fill:#F2D1A5;}
	.st43{fill:#F2BB88;}
	.st44{fill-rule:evenodd;clip-rule:evenodd;fill:#9BA7BC;}
	.st45{fill-rule:evenodd;clip-rule:evenodd;fill:#B0BACC;}
	.st46{fill-rule:evenodd;clip-rule:evenodd;fill:#FFFFFF;}
	.st47{fill-rule:evenodd;clip-rule:evenodd;fill:#FFDDCF;}
	.st48{fill-rule:evenodd;clip-rule:evenodd;fill:#B0E7F8;}
	.st49{fill-rule:evenodd;clip-rule:evenodd;fill:#968AA0;}
	.st50{fill:#9D9BE6;}
	.st51{fill:#CFCEF3;}
	.st52{fill-rule:evenodd;clip-rule:evenodd;fill:#D8D8D8;}
	.st53{fill-rule:evenodd;clip-rule:evenodd;fill:#B6B4ED;}
	.st54{fill-rule:evenodd;clip-rule:evenodd;fill:#FFD4BE;}
</style>
<g>
	<g>
		<path class="st12" d="M103.377,53.854c-6.388,0-11.537-3.147-14.625-7.965c-0.108-0.168-0.203-0.346-0.306-0.518
			c-0.001,0-0.012-0.002-0.012-0.002c-11.896,2.016-25.903,1.699-50.141,1.699c-6.186,0-14.843,3.17-19.332,6.893
			c-4.489,3.713-7.717,8.958-8.871,15.037L3.391,126.5h8.726l10.451-37.762c1.27-3.422,4.643-5.197,8.289-5.294
			c19.07-0.504,32.363,4.343,42.339,4.343L71.258,126.5h9.695l5.817-37.743c14.252,0,27.593-4.576,28.116-33.933v-5.262
			c0,0-0.009-0.001-0.01-0.001C111.872,52.241,107.942,53.854,103.377,53.854z"/>
	</g>
	<g>
		<path class="st12" d="M112.233,19.074H94.521c-4.946,0-8.958,4.012-8.958,8.958v6.523c0,4.224,1.137,8.144,3.19,11.333
			c3.088,4.818,8.237,7.965,14.625,7.965c6.379,0,11.528-3.139,14.625-7.957c2.044-3.19,3.19-7.117,3.19-11.342v-6.523
			C121.191,23.086,117.179,19.074,112.233,19.074z"/>
	</g>
	<g>
		<path class="st38" d="M106.736,39.577l-6.752-0.144c-3.529,0-9.314,2.307-11.232,6.456c3.088,4.818,8.237,7.965,14.625,7.965
			c6.379,0,11.528-3.139,14.625-7.957C116.076,41.791,110.265,39.577,106.736,39.577z"/>
	</g>
	<g>
		<path class="st4" d="M90.938,74.699c-2.41,0-7.09,1.408-7.09,3.818c0,2.409,1.408,4.908,3.818,4.908s4.908-2.499,4.908-4.908
			C92.574,76.107,93.347,74.699,90.938,74.699z"/>
	</g>
	<g>
		<path class="st20" d="M30.858,83.444c-3.645,0.097-7.019,1.871-8.289,5.294L12.117,126.5h8.726l9.695-34.834
			c1.58-4.751,5.555-7.029,8.173-8.144C36.209,83.405,33.592,83.376,30.858,83.444z"/>
	</g>
	<g>
		<path class="st20" d="M99.8,86.682l5.391,39.818h8.726c0,0,0.97-69.485,0.97-70.688c0,0.02-0.01,0.039-0.019,0.049
			C114.304,75.067,108.109,83.337,99.8,86.682z"/>
	</g>
	<g>
		<path class="st12" d="M120.932,13.493c-2.944,1.853-7.028,4.008-8.903,5.581h0.204c4.947,0,8.958,4.011,8.958,8.958v0.373
			c2.545,0,3.283-3.631,3.393-6.786c0.084-2.512-0.062-4.752-0.256-6.486C124.146,13.495,122.327,12.615,120.932,13.493z"/>
	</g>
	<g>
		<path class="st12" d="M82.426,15.132c-0.194,1.735-0.34,3.975-0.256,6.486c0.11,3.156,0.848,6.786,3.393,6.786v-0.373
			c0-4.948,4.011-8.958,8.958-8.958h0.204c-1.875-1.573-5.959-3.729-8.903-5.581C84.427,12.615,82.609,13.495,82.426,15.132z"/>
	</g>
	<g>
		<path class="st3" d="M99.984,40.281c0,1.874,1.519,3.393,3.393,3.393s3.393-1.519,3.393-3.393v-0.848h-6.786V40.281z"/>
	</g>
	<g>
		<path class="st20" d="M112.233,19.074H94.521c-4.946,0-8.958,4.012-8.958,8.958v0.433c12.792,1.009,14.421,5.989,14.421,10.969
			h6.786c0-5.09,0.848-10.18,14.421-11.028v-0.373C121.191,23.086,117.179,19.074,112.233,19.074z"/>
	</g>
	<g>
		<path class="st20" d="M33.543,1.5h-0.087c-2.123,0-3.897,1.58-4.198,3.684c-0.504,3.636-1.871,9.162-5.507,12.798
			c-5.817,5.817-20.36,12.604-20.36,23.268c0,7.659,3.51,14.32,11.954,16.385c1.076-1.348,2.288-2.579,3.616-3.675
			c1.968-1.629,4.722-3.151,7.727-4.343c-7.281,1.939-15.057-0.33-14.814-8.125c0.242-7.999,10.907-10.907,17.694-17.694
			c4.828-4.828,7.204-12.1,8.173-17.296C38.226,3.895,36.19,1.5,33.543,1.5z"/>
	</g>
	<g>
		<path class="st20" d="M33.543,1.5h-0.087c-2.123,0-3.897,1.58-4.198,3.684c-0.504,3.636-1.871,9.162-5.507,12.798
			c-5.817,5.817-20.36,12.604-20.36,23.268c0,7.659,3.51,14.32,11.954,16.385c1.076-1.348,2.288-2.579,3.616-3.675
			c1.968-1.629,4.722-3.151,7.727-4.343c-7.281,1.939-15.057-0.33-14.814-8.125c0.242-7.999,10.907-10.907,17.694-17.694
			c4.828-4.828,7.204-12.1,8.173-17.296C38.226,3.895,36.19,1.5,33.543,1.5z"/>
	</g>
	<g>
		<path class="st4" d="M30.628,11.68c-1.453,0-4.275,1.251-4.275,3.393s0.971,3.393,2.424,3.393s2.837-1.251,2.837-3.393
			S32.081,11.68,30.628,11.68z"/>
	</g>
	<g>
		<path class="st4" d="M36.679,54.339c-3.748,0-11.028,2.19-11.028,5.938s2.19,7.635,5.938,7.635s7.635-3.887,7.635-7.635
			S40.427,54.339,36.679,54.339z"/>
	</g>
	<g>
		<path class="st4" d="M8.059,41.735c-1.453,0-4.275,1.251-4.275,3.393s1.94,4.363,3.393,4.363s1.868-2.221,1.868-4.363
			S9.512,41.735,8.059,41.735z"/>
	</g>
	<g>
		<path class="st4" d="M53.321,50.461c-2.142,0-6.302,1.252-6.302,3.393c0,2.142,1.252,4.363,3.393,4.363
			c2.142,0,4.363-2.221,4.363-4.363C54.776,51.712,55.463,50.461,53.321,50.461z"/>
	</g>
	<g>
		<path class="st4" d="M78.529,50.461c-2.142,0-6.302,1.252-6.302,3.393c0,2.142,1.252,4.363,3.393,4.363s4.363-2.221,4.363-4.363
			C79.983,51.712,80.671,50.461,78.529,50.461z"/>
	</g>
	<g>
		<path class="st4" d="M109.549,66.943c-3.48,0-10.241,2.034-10.241,5.514s0.948,7.09,4.429,7.09c3.48,0,7.456-3.684,8.175-7.09
			C112.462,69.851,113.029,66.943,109.549,66.943z"/>
	</g>
	<g>
		<path class="st4" d="M77.092,62.729c-3.305,0-9.726,1.932-9.726,5.237s1.931,6.733,5.237,6.733s6.733-3.428,6.733-6.733
			S80.397,62.729,77.092,62.729z"/>
	</g>
	<g>
		<path class="st4" d="M21.327,65.973c-2.142,0-6.302,1.251-6.302,3.393s1.252,4.363,3.393,4.363c2.142,0,4.363-2.221,4.363-4.363
			S23.469,65.973,21.327,65.973z"/>
	</g>
	<g>
		<path class="st4" d="M46.535,71.79c-2.142,0-6.302,1.251-6.302,3.393s1.252,4.363,3.393,4.363s4.363-2.221,4.363-4.363
			S48.677,71.79,46.535,71.79z"/>
	</g>
	<g>
		<path class="st4" d="M59.138,62.095c-2.142,0-6.787,1.736-6.787,3.878s1.736,3.878,3.878,3.878c2.142,0,4.363-2.221,4.363-4.363
			C60.593,63.347,61.28,62.095,59.138,62.095z"/>
	</g>
	<g>
		<path class="st4" d="M92.102,58.217c-2.142,0-6.787,1.736-6.787,3.878c0,2.142,1.736,3.878,3.878,3.878s4.363-2.221,4.363-4.363
			S94.244,58.217,92.102,58.217z"/>
	</g>
	<g>
		<path class="st4" d="M14.98,30.101c-1.606,0-5.09,1.302-5.09,2.909s1.302,2.909,2.909,2.909c1.606,0,3.272-1.666,3.272-3.272
			S16.587,30.101,14.98,30.101z"/>
	</g>
	<g>
		<path class="st0" d="M92.773,33.071c-0.937,0-1.697,0.76-1.697,1.697s0.76,1.697,1.697,1.697s1.697-0.76,1.697-1.697
			S93.71,33.071,92.773,33.071z"/>
	</g>
	<g>
		<path class="st0" d="M113.981,33.071c-0.937,0-1.697,0.76-1.697,1.697s0.76,1.697,1.697,1.697c0.937,0,1.697-0.76,1.697-1.697
			S114.918,33.071,113.981,33.071z"/>
	</g>
	<g>
		<path class="st0" d="M15.345,59.135c-0.119,0-0.238-0.014-0.356-0.043C6.665,57.057,1.891,50.554,1.891,41.25
			c0-8.51,8.167-14.568,14.729-19.436c2.346-1.74,4.562-3.384,6.071-4.893c3.461-3.461,4.669-8.968,5.082-11.943
			C28.178,2.137,30.622,0,33.456,0c1.81,0,3.431,0.761,4.533,2.087c1.09,1.312,1.538,3.021,1.227,4.69c0,0,0,0,0,0.001
			c-0.813,4.359-3.011,12.506-8.587,18.082c-2.475,2.476-5.36,4.4-8.15,6.262c-4.813,3.212-8.971,5.985-9.104,10.417
			c-0.073,2.35,0.686,4.173,2.256,5.419c2.358,1.872,6.45,2.335,10.672,1.21c0.77-0.203,1.562,0.226,1.811,0.979
			c0.249,0.754-0.133,1.572-0.871,1.865c-2.929,1.163-5.53,2.621-7.324,4.105c-1.248,1.028-2.391,2.19-3.4,3.455
			C16.229,58.933,15.795,59.135,15.345,59.135z M33.543,3c-1.46,0-2.602,1.008-2.8,2.396c-0.566,4.083-2.055,9.77-5.931,13.646
			c-1.665,1.666-3.967,3.373-6.405,5.181C12.072,28.923,4.891,34.25,4.891,41.25c0,4.438,1.314,12.107,9.916,14.685
			c0.976-1.133,2.049-2.183,3.2-3.132c0.478-0.396,1.003-0.788,1.569-1.174c-2.258-0.309-4.26-1.092-5.812-2.323
			c-2.32-1.841-3.493-4.56-3.39-7.861c0.181-5.976,5.164-9.301,10.438-12.82c2.668-1.78,5.428-3.622,7.694-5.887
			c5.191-5.191,7.156-13.276,7.759-16.511c0.146-0.789-0.066-1.599-0.585-2.223C35.151,3.366,34.372,3,33.543,3z M37.741,6.502h0.01
			H37.741z"/>
	</g>
	<g>
		<path class="st4" d="M103.377,55.354c-6.571,0-12.362-3.155-15.887-8.656c-0.276-0.432-0.314-0.974-0.099-1.439
			c2.31-4.998,8.88-7.326,12.593-7.326l6.785,0.145c3.7,0,10.293,2.282,12.591,7.182c0.219,0.467,0.183,1.014-0.096,1.448
			C115.733,52.203,109.942,55.354,103.377,55.354z M90.504,45.801c2.994,4.177,7.638,6.553,12.873,6.553
			c5.227,0,9.869-2.371,12.867-6.539c-1.978-3.059-6.716-4.738-9.508-4.738l-6.785-0.145C97.207,40.933,92.483,42.659,90.504,45.801
			z"/>
	</g>
	<g>
		<path class="st0" d="M20.842,128h-8.726c-0.468,0-0.91-0.219-1.194-0.592s-0.377-0.857-0.252-1.308l10.452-37.763
			c0.012-0.042,0.025-0.082,0.04-0.122c1.39-3.746,5.09-6.149,9.655-6.271c2.714-0.065,5.391-0.041,7.963,0.079
			c0.699,0.033,1.283,0.544,1.406,1.233c0.124,0.688-0.245,1.372-0.888,1.646c-3.811,1.623-6.279,4.058-7.337,7.238l-9.673,34.763
			C22.107,127.551,21.516,128,20.842,128z M14.088,125h5.614l9.39-33.737c0.836-2.517,2.301-4.637,4.379-6.355
			c-0.854,0.002-1.714,0.014-2.577,0.035c-3.338,0.089-5.913,1.68-6.898,4.259L14.088,125z"/>
	</g>
	<g>
		<path class="st0" d="M113.917,128h-8.726c-0.75,0-1.386-0.555-1.486-1.299l-5.391-39.818c-0.092-0.68,0.29-1.336,0.926-1.593
			c3.32-1.336,13.422-5.403,14.127-29.473c0.005-0.178,0.042-0.352,0.107-0.515c0.208-0.578,0.762-0.99,1.411-0.99
			c0.829,0,1.5,0.671,1.5,1.5c0,0.943-0.57,42.023-0.745,54.591c-0.012,0.829-0.695,1.487-1.521,1.479
			c-0.828-0.012-1.49-0.692-1.479-1.521c0.175-12.604,0.356-25.688,0.497-35.884c-2.47,6.308-6.354,10.654-11.698,13.13L106.501,125
			h5.936l0.094-6.728c0.012-0.829,0.668-1.477,1.521-1.479c0.828,0.012,1.49,0.692,1.479,1.521l-0.114,8.207
			C115.405,127.341,114.737,128,113.917,128z"/>
	</g>
	<g>
		<path class="st4" d="M73.197,89.288c-0.829,0-1.5-0.671-1.5-1.5c0-3.612-2.946-8.195-6.256-8.195h-0.97
			c-0.829,0-1.5-0.671-1.5-1.5s0.671-1.5,1.5-1.5h0.97c5.127,0,9.256,6.125,9.256,11.195C74.697,88.616,74.025,89.288,73.197,89.288
			z"/>
	</g>
	<g>
		<path class="st0" d="M103.377,55.354c-6.571,0-12.362-3.155-15.887-8.656c-2.241-3.482-3.427-7.682-3.427-12.143v-6.523
			c0-5.767,4.691-10.458,10.458-10.458h17.712c5.767,0,10.458,4.691,10.458,10.458v6.523c0,4.452-1.185,8.654-3.427,12.151
			C115.733,52.203,109.942,55.354,103.377,55.354z M94.521,20.574c-4.112,0-7.458,3.346-7.458,7.458v6.523
			c0,3.884,1.021,7.522,2.951,10.521c2.964,4.626,7.834,7.277,13.363,7.277c5.524,0,10.395-2.649,13.363-7.268
			c1.93-3.012,2.951-6.654,2.951-10.531v-6.523c0-4.112-3.346-7.458-7.458-7.458H94.521z"/>
	</g>
	<g>
		<path class="st0" d="M80.953,128h-9.695c-0.411,0-0.804-0.168-1.087-0.466c-0.283-0.297-0.432-0.698-0.411-1.109l1.862-37.173
			c-3.729-0.165-7.834-0.873-12.496-1.677c-7.565-1.305-16.979-2.932-28.228-2.632c-3.34,0.088-5.915,1.679-6.901,4.259
			L13.562,126.9c-0.18,0.65-0.771,1.1-1.446,1.1H3.391c-0.428,0-0.836-0.183-1.12-0.502c-0.285-0.32-0.419-0.746-0.37-1.171
			l5.765-49.48c0.096-0.823,0.848-1.413,1.663-1.316c0.823,0.096,1.413,0.84,1.316,1.664L5.076,125h5.899l10.147-36.662
			c0.012-0.042,0.025-0.082,0.04-0.122c1.39-3.747,5.09-6.15,9.656-6.271c11.537-0.304,21.121,1.347,28.817,2.674
			c5.191,0.896,9.675,1.669,13.562,1.669c0.411,0,0.804,0.168,1.087,0.466c0.283,0.297,0.432,0.698,0.411,1.109L72.834,125h6.832
			l5.622-36.472c0.113-0.731,0.742-1.271,1.482-1.271c13.523,0,26.107-3.933,26.616-32.46v-2.246
			c-2.939,1.842-6.347,2.803-10.009,2.803c-6.446,0-12.141-3.036-15.684-8.344c-10.273,1.621-21.875,1.603-40.718,1.567
			c-2.743-0.005-5.631-0.01-8.682-0.01c-5.681,0-14.096,2.999-18.375,6.548c-4.335,3.586-7.302,8.616-8.355,14.162
			c-0.155,0.813-0.938,1.352-1.753,1.194c-0.814-0.154-1.348-0.939-1.194-1.753c1.183-6.232,4.517-11.883,9.389-15.913
			c4.811-3.99,13.913-7.238,20.289-7.238c3.052,0,5.943,0.005,8.687,0.01c19.288,0.034,30.931,0.054,41.203-1.688
			c0.165-0.028,0.335-0.028,0.5,0c0.434,0.069,0.82,0.327,1.05,0.711l0.126,0.217c0.05,0.087,0.1,0.175,0.154,0.26
			c2.963,4.625,7.833,7.276,13.362,7.276c4,0,7.631-1.353,10.5-3.913c0.336-0.3,0.809-0.435,1.255-0.359
			c0.723,0.121,1.253,0.746,1.253,1.479v5.262c-0.542,30.414-15.15,35.151-28.327,35.42l-5.624,36.484
			C82.322,127.46,81.693,128,80.953,128z M88.435,45.369h0.01H88.435z"/>
	</g>
	<g>
		<path class="st0" d="M121.191,29.905c-0.829,0-1.5-0.671-1.5-1.5v-0.374c0-4.112-3.346-7.458-7.458-7.458h-0.204
			c-0.63,0-1.194-0.395-1.41-0.987c-0.215-0.593-0.038-1.257,0.445-1.662c1.335-1.121,3.529-2.408,5.851-3.771
			c1.116-0.655,2.231-1.31,3.217-1.93c1.094-0.689,2.44-0.766,3.6-0.206c1.163,0.56,1.942,1.662,2.086,2.949
			c0.25,2.235,0.339,4.491,0.264,6.703c0,0,0,0.001,0,0.002C125.834,28.835,122.912,29.905,121.191,29.905z M115.911,18.241
			c3.223,1.215,5.693,3.978,6.5,7.377c0.371-0.94,0.615-2.347,0.675-4.052c0.069-2.068-0.014-4.177-0.248-6.268
			c-0.04-0.353-0.271-0.514-0.406-0.579c-0.135-0.064-0.403-0.145-0.7,0.042c-1.01,0.636-2.153,1.307-3.296,1.978
			C117.581,17.242,116.715,17.75,115.911,18.241z M124.584,21.619h0.01H124.584z"/>
	</g>
	<g>
		<path class="st0" d="M85.563,29.905c-1.72,0-4.643-1.07-4.892-8.234c0,0,0-0.001,0-0.002c-0.075-2.212,0.014-4.468,0.264-6.703
			c0.144-1.287,0.923-2.389,2.086-2.949c1.159-0.56,2.505-0.483,3.6,0.206c0.986,0.621,2.102,1.275,3.217,1.93
			c2.322,1.363,4.516,2.651,5.851,3.771c0.483,0.405,0.661,1.069,0.445,1.662c-0.216,0.592-0.779,0.987-1.41,0.987h-0.204
			c-4.112,0-7.458,3.346-7.458,7.458v0.374C87.063,29.234,86.392,29.905,85.563,29.905z M83.669,21.567
			c0.06,1.705,0.304,3.111,0.675,4.052c0.806-3.399,3.277-6.163,6.5-7.377c-0.804-0.491-1.67-1-2.524-1.501
			c-1.143-0.671-2.286-1.342-3.296-1.978c-0.297-0.187-0.566-0.107-0.7-0.042c-0.135,0.065-0.367,0.227-0.406,0.579
			C83.683,17.39,83.6,19.499,83.669,21.567z"/>
	</g>
	<g>
		<path class="st0" d="M98.288,50.264c-0.829,0-1.5-0.671-1.5-1.5s0.671-1.5,1.5-1.5c0.591-0.008,3.589-0.22,3.589-3.589
			c0-0.829,0.671-1.5,1.5-1.5s1.5,0.671,1.5,1.5C104.877,48.509,100.937,50.264,98.288,50.264z"/>
	</g>
	<g>
		<path class="st0" d="M108.467,50.264c-2.649,0-6.59-1.755-6.59-6.589c0-0.829,0.671-1.5,1.5-1.5s1.5,0.671,1.5,1.5
			c0,3.489,3.222,3.589,3.59,3.589c0.829,0,1.5,0.671,1.5,1.5S109.295,50.264,108.467,50.264z"/>
	</g>
	<g>
		<path class="st0" d="M103.377,45.175c-2.698,0-4.893-2.195-4.893-4.894v-0.848c0-0.829,0.671-1.5,1.5-1.5h6.787
			c0.829,0,1.5,0.671,1.5,1.5v0.848C108.271,42.979,106.075,45.175,103.377,45.175z M101.6,40.933
			c0.266,0.724,0.962,1.242,1.777,1.242s1.512-0.518,1.778-1.242H101.6z"/>
	</g>
	<g>
		<path class="st0" d="M106.771,40.933h-6.787c-0.829,0-1.5-0.671-1.5-1.5c0-4.085-1.008-8.524-13.039-9.474
			c-0.78-0.062-1.382-0.712-1.382-1.495v-0.433c0-5.767,4.691-10.458,10.458-10.458h17.712c5.767,0,10.458,4.691,10.458,10.458
			v0.374c0,0.792-0.616,1.448-1.406,1.497c-13.015,0.813-13.015,5.445-13.015,9.531C108.271,40.262,107.599,40.933,106.771,40.933z
			 M101.422,37.933h3.886c0.276-4.921,2.322-9.806,14.315-10.912c-0.495-3.636-3.62-6.448-7.39-6.448H94.521
			c-3.798,0-6.942,2.853-7.4,6.529C96.477,28.108,100.862,31.417,101.422,37.933z M121.191,28.405h0.01H121.191z"/>
	</g>
	<g>
		<path class="st0" d="M15.345,59.135c-0.119,0-0.238-0.014-0.356-0.043C6.665,57.057,1.891,50.554,1.891,41.25
			c0-8.51,8.167-14.568,14.729-19.436c2.346-1.74,4.562-3.384,6.071-4.893c3.461-3.461,4.669-8.968,5.082-11.943
			C28.178,2.137,30.622,0,33.456,0c1.81,0,3.431,0.761,4.533,2.087c1.09,1.312,1.538,3.021,1.227,4.69c0,0,0,0,0,0.001
			c-0.813,4.359-3.011,12.506-8.587,18.082c-2.475,2.476-5.36,4.4-8.15,6.262c-4.813,3.212-8.971,5.985-9.104,10.417
			c-0.073,2.35,0.686,4.173,2.256,5.419c2.358,1.872,6.45,2.335,10.672,1.21c0.77-0.203,1.562,0.226,1.811,0.979
			c0.249,0.754-0.133,1.572-0.871,1.865c-2.929,1.163-5.53,2.621-7.324,4.105c-1.248,1.028-2.391,2.19-3.4,3.455
			C16.229,58.933,15.795,59.135,15.345,59.135z M33.543,3c-1.46,0-2.602,1.008-2.8,2.396c-0.566,4.083-2.055,9.77-5.931,13.646
			c-1.665,1.666-3.967,3.373-6.405,5.181C12.072,28.923,4.891,34.25,4.891,41.25c0,4.438,1.314,12.107,9.916,14.685
			c0.976-1.133,2.049-2.183,3.2-3.132c0.478-0.396,1.003-0.788,1.569-1.174c-2.258-0.309-4.26-1.092-5.812-2.323
			c-2.32-1.841-3.493-4.56-3.39-7.861c0.181-5.976,5.164-9.301,10.438-12.82c2.668-1.78,5.428-3.622,7.694-5.887
			c5.191-5.191,7.156-13.276,7.759-16.511c0.146-0.789-0.066-1.599-0.585-2.223C35.151,3.366,34.372,3,33.543,3z M37.741,6.502h0.01
			H37.741z"/>
	</g>
</g>
</svg>
