<?xml version="1.0" encoding="utf-8"?>
<!-- Generator: Adobe Illustrator 22.0.0, SVG Export Plug-In . SVG Version: 6.00 Build 0)  -->
<svg version="1.1" id="Layer_1" xmlns="http://www.w3.org/2000/svg" xmlns:xlink="http://www.w3.org/1999/xlink" x="0px" y="0px"
	 viewBox="0 0 128 128" style="enable-background:new 0 0 128 128;" xml:space="preserve">
<style type="text/css">
	.st0{fill:#746887;}
	.st1{fill:#FFCFB8;}
	.st2{fill:#E6B9A0;}
	.st3{fill:#D29997;}
	.st4{fill:#F98770;}
	.st5{fill:#DCA98B;}
	.st6{fill:#FFDDCF;}
	.st7{fill:#E8E8E8;}
	.st8{fill:#FFBF9E;}
	.st9{fill:#B0BACC;}
	.st10{fill:#9BA7BC;}
	.st11{fill:#B6B4ED;}
	.st12{fill:#FFBC99;}
	.st13{fill:#F8F8F8;}
	.st14{fill:#B2A7BF;}
	.st15{fill:#9B9B9B;}
	.st16{fill:#968AA0;}
	.st17{fill:#C6BBD3;}
	.st18{fill:#D8D8D8;}
	.st19{fill:#D29976;}
	.st20{fill:#FFA77B;}
	.st21{fill:#CCD3DD;}
	.st22{fill-rule:evenodd;clip-rule:evenodd;fill:#F8F8F8;}
	.st23{fill-rule:evenodd;clip-rule:evenodd;fill:#9B9B9B;}
	.st24{fill-rule:evenodd;clip-rule:evenodd;fill:#777777;}
	.st25{fill:#91DEF5;}
	.st26{fill:#B0E7F8;}
	.st27{fill-rule:evenodd;clip-rule:evenodd;fill:#DCA98B;}
	.st28{fill-rule:evenodd;clip-rule:evenodd;fill:#D29997;}
	.st29{fill-rule:evenodd;clip-rule:evenodd;fill:#FFCBBE;}
	.st30{fill-rule:evenodd;clip-rule:evenodd;fill:#E6B9A0;}
	.st31{fill-rule:evenodd;clip-rule:evenodd;fill:#746887;}
	.st32{fill-rule:evenodd;clip-rule:evenodd;fill:#FFBC99;}
	.st33{fill-rule:evenodd;clip-rule:evenodd;fill:#FFA77B;}
	.st34{fill-rule:evenodd;clip-rule:evenodd;fill:#FFCFB8;}
	.st35{fill-rule:evenodd;clip-rule:evenodd;fill:#E8E8E8;}
	.st36{fill-rule:evenodd;clip-rule:evenodd;fill:#CCD3DD;}
	.st37{fill:#E6B9C1;}
	.st38{fill:#FFCBBE;}
	.st39{fill-rule:evenodd;clip-rule:evenodd;fill:#F98770;}
	.st40{fill-rule:evenodd;clip-rule:evenodd;fill:#F2BB88;}
	.st41{fill:#F2D1A5;}
	.st42{fill-rule:evenodd;clip-rule:evenodd;fill:#F2D1A5;}
	.st43{fill:#F2BB88;}
	.st44{fill-rule:evenodd;clip-rule:evenodd;fill:#9BA7BC;}
	.st45{fill-rule:evenodd;clip-rule:evenodd;fill:#B0BACC;}
	.st46{fill-rule:evenodd;clip-rule:evenodd;fill:#FFFFFF;}
	.st47{fill-rule:evenodd;clip-rule:evenodd;fill:#FFDDCF;}
	.st48{fill-rule:evenodd;clip-rule:evenodd;fill:#B0E7F8;}
	.st49{fill-rule:evenodd;clip-rule:evenodd;fill:#968AA0;}
	.st50{fill:#9D9BE6;}
	.st51{fill:#CFCEF3;}
	.st52{fill-rule:evenodd;clip-rule:evenodd;fill:#D8D8D8;}
	.st53{fill-rule:evenodd;clip-rule:evenodd;fill:#B6B4ED;}
	.st54{fill-rule:evenodd;clip-rule:evenodd;fill:#FFD4BE;}
</style>
<g>
	<g>
		<path class="st16" d="M114.984,39.216c0-2.368-1.679-3.999-4.029-4.087c-2.225,0-4.029,1.804-4.029,4.029l-15.543,0
			c0-3.829-3.104-6.932-6.932-6.932s-6.932,3.104-6.932,6.932v-1.112c0-2.424-1.965-4.389-4.389-4.389
			c0-1.667-1.248-3.161-2.913-3.248c-1.775-0.093-3.244,1.319-3.244,3.074c0-1.7-1.378-3.078-3.078-3.078
			c-1.7,0-3.078,1.378-3.078,3.078c0-1.7-1.378-3.078-3.078-3.078c-1.7,0-3.078,1.378-3.078,3.078c0-1.7-1.378-3.078-3.078-3.078
			c-1.7,0-3.078,1.378-3.078,3.078c0-1.7-1.378-3.078-3.078-3.078c-1.7,0-3.078,1.378-3.078,3.078c0-1.7-1.378-3.078-3.078-3.078
			s-3.078,1.378-3.078,3.078c0-1.755-1.469-3.167-3.244-3.074c-1.665,0.087-2.913,1.581-2.913,3.248
			C14.275,33.657,1.5,46.431,1.5,62.189v0c0,7.879,6.387,14.266,14.266,14.266c4.193,0,7.592,3.399,7.592,7.592v13.548h0
			c6.697,0,12.126-5.429,12.126-12.126v-9.014c0-7.879-6.387-14.266-14.265-14.266h5.972v-0.604c0-5.995,4.907-11.069,10.9-10.908
			c6.214,0.167,11.201,5.257,11.201,11.512h14.42v0c0-6.36,5.156-11.516,11.516-11.516h2.292V62.19h37.109
			c6.224,0,11.592-4.787,11.86-11.005C126.757,44.99,120.961,39.818,114.984,39.216z"/>
	</g>
	<g>
		<path class="st17" d="M49.293,62.19L49.293,62.19c0-6.36-5.156-11.516-11.516-11.516c-5.846,0-10.585,4.739-10.585,10.585v0.931
			c3.896,0,7.58,1.8,9.95,4.892c1.471,1.92,3.788,3.157,6.393,3.157h13.808C57.342,65.793,53.738,62.19,49.293,62.19z"/>
	</g>
	<g>
		<path class="st17" d="M77.52,62.19V50.674h-2.292c-6.36,0-11.516,5.156-11.516,11.516v0c0,4.446,3.604,8.05,8.05,8.05H85.57
			C85.57,65.793,81.966,62.19,77.52,62.19z"/>
	</g>
	<g>
		<circle class="st0" cx="110.956" cy="39.158" r="1.25"/>
	</g>
	<g>
		<circle class="st0" cx="84.452" cy="39.158" r="2.5"/>
	</g>
	<g>
		<path class="st4" d="M96.927,43.158c-0.829,0-1.5-0.672-1.5-1.5v-2.5c0-0.828,0.671-1.5,1.5-1.5s1.5,0.672,1.5,1.5v2.5
			C98.427,42.486,97.755,43.158,96.927,43.158z"/>
	</g>
	<g>
		<path class="st4" d="M101.927,43.158c-0.829,0-1.5-0.672-1.5-1.5v-2.5c0-0.828,0.671-1.5,1.5-1.5s1.5,0.672,1.5,1.5v2.5
			C103.427,42.486,102.755,43.158,101.927,43.158z"/>
	</g>
	<g>
		<path class="st4" d="M89.452,54.674c-0.23,0-0.459-0.053-0.671-0.158l-5-2.5c-0.741-0.371-1.041-1.271-0.671-2.013
			c0.371-0.74,1.273-1.039,2.013-0.671l4.329,2.165l4.329-2.165c0.423-0.211,0.919-0.211,1.342,0l4.335,2.168l4.423-2.173
			c0.423-0.209,0.92-0.204,1.342,0.01l4.236,2.157l4.323-2.162c0.423-0.211,0.919-0.211,1.342,0l4.429,2.215l6.446-2.287
			c0.779-0.276,1.638,0.132,1.915,0.913c0.277,0.78-0.131,1.638-0.912,1.915l-7.048,2.5c-0.384,0.136-0.808,0.11-1.172-0.072
			l-4.329-2.165l-4.329,2.165c-0.426,0.213-0.927,0.21-1.352-0.005l-4.242-2.16l-4.417,2.17c-0.419,0.207-0.912,0.205-1.332-0.005
			l-4.329-2.165l-4.329,2.165C89.912,54.621,89.682,54.674,89.452,54.674z"/>
	</g>
	<g>
		<path class="st0" d="M23.359,99.096c-0.829,0-1.5-0.672-1.5-1.5v-5.585c0-0.828,0.671-1.5,1.5-1.5s1.5,0.672,1.5,1.5v3.979
			c5.152-0.73,9.126-5.17,9.126-10.521v-9.014c0-7.039-5.727-12.766-12.766-12.767c-0.829,0-1.5-0.672-1.5-1.5s0.671-1.5,1.5-1.5
			h4.505c0.223-3.037,1.57-5.944,3.772-8.088c2.356-2.294,5.428-3.52,8.635-3.423c6.592,0.177,11.858,5.117,12.577,11.511h11.589
			c0.746-6.473,6.26-11.516,12.93-11.516h2.292c0.829,0,1.5,0.672,1.5,1.5v10.016h27.9c0.829,0,1.5,0.672,1.5,1.5
			s-0.671,1.5-1.5,1.5h-29.4c-0.829,0-1.5-0.672-1.5-1.5V52.174h-0.792c-5.522,0-10.016,4.493-10.016,10.016
			c0,0.828-0.671,1.5-1.5,1.5H49.293c-0.829,0-1.5-0.672-1.5-1.5c0-5.468-4.279-9.865-9.742-10.013
			c-2.39-0.067-4.69,0.851-6.462,2.574c-1.841,1.793-2.897,4.284-2.897,6.835v0.604c0,0.125-0.015,0.247-0.044,0.363
			c4.958,2.659,8.337,7.895,8.337,13.903v9.014C36.985,92.983,30.873,99.096,23.359,99.096z"/>
	</g>
	<g>
		<path class="st0" d="M23.357,85.52c-0.826,0-1.497-0.668-1.5-1.494c-0.013-3.347-2.745-6.069-6.091-6.069
			C7.073,77.956,0,70.883,0,62.189c0-16.133,12.786-29.335,28.756-30.007c0.57-1.825,2.174-3.171,4.112-3.272
			c1.245-0.053,2.414,0.356,3.324,1.185c0.813-0.739,1.893-1.19,3.077-1.19c1.184,0,2.265,0.452,3.079,1.192
			c0.813-0.74,1.894-1.192,3.078-1.192s2.265,0.452,3.079,1.192c0.813-0.74,1.895-1.192,3.079-1.192s2.265,0.452,3.078,1.192
			c0.814-0.74,1.895-1.192,3.079-1.192s2.265,0.452,3.078,1.192c0.814-0.74,1.895-1.192,3.079-1.192c1.183,0,2.263,0.451,3.077,1.19
			c0.91-0.829,2.082-1.244,3.323-1.185c1.981,0.104,3.612,1.507,4.148,3.394c1.256,0.287,2.361,0.978,3.17,1.927
			c1.533-2.122,4.027-3.505,6.839-3.505c4.138,0,7.589,2.996,8.298,6.933h12.883c0.656-2.322,2.793-4.029,5.322-4.029
			c2.703,0.04,4.825,1.801,5.384,4.272c6.062,1.174,11.943,6.516,11.648,13.348c-0.301,6.976-6.169,12.44-13.359,12.44
			c-0.829,0-1.523-0.672-1.523-1.5s0.648-1.5,1.477-1.5h0.046c5.485,0,10.134-4.293,10.362-9.569
			c0.238-5.51-5.162-9.909-10.156-10.412c-0.766-0.077-1.35-0.722-1.35-1.492c0-1.501-1.049-2.564-2.551-2.587
			c-1.372,0-2.506,1.135-2.506,2.529c0,0.828-0.671,1.5-1.5,1.5H91.384c-0.829,0-1.5-0.672-1.5-1.5c0-2.995-2.437-5.433-5.432-5.433
			s-5.432,2.438-5.432,5.433c0,0.828-0.671,1.5-1.5,1.5s-1.5-0.672-1.5-1.5v-1.112c0-1.594-1.296-2.89-2.889-2.89
			c-0.829,0-1.5-0.672-1.5-1.5c0-0.922-0.669-1.707-1.492-1.75c-0.44-0.028-0.856,0.13-1.173,0.431
			c-0.317,0.302-0.492,0.708-0.492,1.146c0,0.828-0.671,1.5-1.5,1.5s-1.5-0.672-1.5-1.5c0-0.87-0.708-1.578-1.578-1.578
			c-0.871,0-1.579,0.708-1.579,1.578c0,0.828-0.671,1.5-1.5,1.5s-1.5-0.672-1.5-1.5c0-0.87-0.708-1.578-1.578-1.578
			c-0.871,0-1.579,0.708-1.579,1.578c0,0.828-0.671,1.5-1.5,1.5s-1.5-0.672-1.5-1.5c0-0.87-0.708-1.578-1.578-1.578
			c-0.871,0-1.579,0.708-1.579,1.578c0,0.828-0.671,1.5-1.5,1.5s-1.5-0.672-1.5-1.5c0-0.87-0.708-1.578-1.579-1.578
			c-0.87,0-1.578,0.708-1.578,1.578c0,0.828-0.671,1.5-1.5,1.5s-1.5-0.672-1.5-1.5c0-0.87-0.708-1.578-1.579-1.578
			s-1.579,0.708-1.579,1.578c0,0.828-0.671,1.5-1.5,1.5s-1.5-0.672-1.5-1.5c0-0.438-0.175-0.844-0.492-1.146
			c-0.318-0.302-0.737-0.466-1.173-0.431c-0.822,0.043-1.491,0.828-1.491,1.75c0,0.828-0.671,1.5-1.5,1.5
			C15.127,35.156,3,47.283,3,62.189c0,7.039,5.727,12.767,12.767,12.767c4.994,0,9.072,4.063,9.091,9.058
			c0.003,0.828-0.666,1.503-1.494,1.506C23.361,85.52,23.359,85.52,23.357,85.52z"/>
	</g>
	<g>
		<path class="st0" d="M57.342,71.739H43.535c-2.995,0-5.758-1.365-7.583-3.744c-2.066-2.696-5.34-4.306-8.76-4.306
			c-0.829,0-1.5-0.672-1.5-1.5v-0.931c0-6.664,5.421-12.085,12.085-12.085c6.706,0,12.244,5.098,12.942,11.622
			c4.592,0.69,8.124,4.662,8.124,9.443C58.842,71.067,58.171,71.739,57.342,71.739z M28.705,60.772
			c3.785,0.414,7.306,2.366,9.628,5.397c1.252,1.633,3.148,2.569,5.202,2.569h12.134c-0.68-2.891-3.281-5.05-6.376-5.05
			c-0.829,0-1.5-0.672-1.5-1.5c0-5.522-4.493-10.016-10.016-10.016C32.931,52.174,28.958,55.988,28.705,60.772z M50.793,62.189h0.01
			H50.793z"/>
	</g>
	<g>
		<path class="st0" d="M85.57,71.739H71.762c-5.266,0-9.55-4.284-9.55-9.55c0-7.177,5.839-13.016,13.016-13.016h2.292
			c0.829,0,1.5,0.672,1.5,1.5v10.133c4.556,0.722,8.05,4.677,8.05,9.433C87.07,71.067,86.398,71.739,85.57,71.739z M75.228,52.174
			c-5.522,0-10.016,4.493-10.016,10.016c0,3.611,2.938,6.55,6.55,6.55h12.134c-0.68-2.891-3.281-5.05-6.376-5.05
			c-0.829,0-1.5-0.672-1.5-1.5V52.174H75.228z"/>
	</g>
	<g>
		<path class="st0" d="M110.956,44.687c-3.049,0-5.529-2.48-5.529-5.528c0-3.049,2.48-5.529,5.529-5.529s5.529,2.48,5.529,5.529
			c0,0.828-0.671,1.5-1.5,1.5s-1.5-0.672-1.5-1.5c0-1.395-1.134-2.529-2.529-2.529s-2.529,1.135-2.529,2.529
			s1.134,2.528,2.529,2.528c0.829,0,1.5,0.672,1.5,1.5S111.784,44.687,110.956,44.687z"/>
	</g>
</g>
</svg>
