<?xml version="1.0" encoding="utf-8"?>
<!-- Generator: Adobe Illustrator 22.0.0, SVG Export Plug-In . SVG Version: 6.00 Build 0)  -->
<svg version="1.1" id="Layer_1" xmlns="http://www.w3.org/2000/svg" xmlns:xlink="http://www.w3.org/1999/xlink" x="0px" y="0px"
	 viewBox="0 0 128 128" style="enable-background:new 0 0 128 128;" xml:space="preserve">
<style type="text/css">
	.st0{fill:#746887;}
	.st1{fill:#FFCFB8;}
	.st2{fill:#E6B9A0;}
	.st3{fill:#D29997;}
	.st4{fill:#F98770;}
	.st5{fill:#DCA98B;}
	.st6{fill:#FFDDCF;}
	.st7{fill:#E8E8E8;}
	.st8{fill:#FFBF9E;}
	.st9{fill:#B0BACC;}
	.st10{fill:#9BA7BC;}
	.st11{fill:#B6B4ED;}
	.st12{fill:#FFBC99;}
	.st13{fill:#F8F8F8;}
	.st14{fill:#B2A7BF;}
	.st15{fill:#9B9B9B;}
	.st16{fill:#968AA0;}
	.st17{fill:#C6BBD3;}
	.st18{fill:#D8D8D8;}
	.st19{fill:#D29976;}
	.st20{fill:#FFA77B;}
	.st21{fill:#CCD3DD;}
	.st22{fill-rule:evenodd;clip-rule:evenodd;fill:#F8F8F8;}
	.st23{fill-rule:evenodd;clip-rule:evenodd;fill:#9B9B9B;}
	.st24{fill-rule:evenodd;clip-rule:evenodd;fill:#777777;}
	.st25{fill:#91DEF5;}
	.st26{fill:#B0E7F8;}
	.st27{fill-rule:evenodd;clip-rule:evenodd;fill:#DCA98B;}
	.st28{fill-rule:evenodd;clip-rule:evenodd;fill:#D29997;}
	.st29{fill-rule:evenodd;clip-rule:evenodd;fill:#FFCBBE;}
	.st30{fill-rule:evenodd;clip-rule:evenodd;fill:#E6B9A0;}
	.st31{fill-rule:evenodd;clip-rule:evenodd;fill:#746887;}
	.st32{fill-rule:evenodd;clip-rule:evenodd;fill:#FFBC99;}
	.st33{fill-rule:evenodd;clip-rule:evenodd;fill:#FFA77B;}
	.st34{fill-rule:evenodd;clip-rule:evenodd;fill:#FFCFB8;}
	.st35{fill-rule:evenodd;clip-rule:evenodd;fill:#E8E8E8;}
	.st36{fill-rule:evenodd;clip-rule:evenodd;fill:#CCD3DD;}
	.st37{fill:#E6B9C1;}
	.st38{fill:#FFCBBE;}
	.st39{fill-rule:evenodd;clip-rule:evenodd;fill:#F98770;}
	.st40{fill-rule:evenodd;clip-rule:evenodd;fill:#F2BB88;}
	.st41{fill:#F2D1A5;}
	.st42{fill-rule:evenodd;clip-rule:evenodd;fill:#F2D1A5;}
	.st43{fill:#F2BB88;}
	.st44{fill-rule:evenodd;clip-rule:evenodd;fill:#9BA7BC;}
	.st45{fill-rule:evenodd;clip-rule:evenodd;fill:#B0BACC;}
	.st46{fill-rule:evenodd;clip-rule:evenodd;fill:#FFFFFF;}
	.st47{fill-rule:evenodd;clip-rule:evenodd;fill:#FFDDCF;}
	.st48{fill-rule:evenodd;clip-rule:evenodd;fill:#B0E7F8;}
	.st49{fill-rule:evenodd;clip-rule:evenodd;fill:#968AA0;}
	.st50{fill:#9D9BE6;}
	.st51{fill:#CFCEF3;}
	.st52{fill-rule:evenodd;clip-rule:evenodd;fill:#D8D8D8;}
	.st53{fill-rule:evenodd;clip-rule:evenodd;fill:#B6B4ED;}
	.st54{fill-rule:evenodd;clip-rule:evenodd;fill:#FFD4BE;}
</style>
<g>
	<g>
		<g>
			<path class="st45" d="M115.5,92c0,0,4.896-59.723-56-61c-0.658-0.014-1.326,0-2,0c-20,0-32,5-40,16c-6.362,8.748-8,12-11,12
				c-2.761,0-5,2.239-5,5s2.239,5,5,5h2c5.987,0,16.081,5.969,35,6c0,0,3,19,15,19c0,0-0.718-10.998,1-19c12,0,24.24,0.133,33,5
				c9,5,12,13,12,13s-12,8-12,18c0,0,11-2,17-7c0,0,12,5,17,5C126.5,109,126.5,98,115.5,92z"/>
		</g>
	</g>
	<g>
		<g>
			<path class="st36" d="M59.5,31c7.22,0.15,13.51,1.12,19,2.73c0.08-8.89,4-16.73,4-16.73C69.5,17,59.5,31,59.5,31z"/>
		</g>
	</g>
	<g>
		<g>
			<circle class="st0" cx="24" cy="55.5" r="2.5"/>
		</g>
	</g>
	<g>
		<g>
			<path class="st4" d="M59.501,76.5c-0.12,0-0.243-0.015-0.365-0.045c-0.804-0.201-1.292-1.015-1.091-1.819
				c1.002-4.01,1.99-6.986,2.032-7.11c0.262-0.787,1.11-1.213,1.897-0.949c0.786,0.262,1.211,1.111,0.949,1.897
				c-0.01,0.03-0.995,2.999-1.968,6.89C60.785,76.045,60.173,76.5,59.501,76.5z"/>
		</g>
	</g>
	<g>
		<g>
			<path class="st4" d="M43.5,76.5c-0.829,0-1.5-0.671-1.5-1.5v-3c0-0.829,0.671-1.5,1.5-1.5S45,71.171,45,72v3
				C45,75.829,44.329,76.5,43.5,76.5z"/>
		</g>
	</g>
	<g>
		<g>
			<path class="st0" d="M78.5,35.23c-0.142,0-0.283-0.02-0.422-0.061c-5.561-1.631-11.822-2.529-18.609-2.67
				c-0.556-0.011-1.06-0.33-1.31-0.827c-0.25-0.497-0.203-1.091,0.12-1.544C58.706,29.531,68.885,15.5,82.5,15.5
				c0.52,0,1.002,0.269,1.275,0.711s0.299,0.994,0.066,1.459c-0.037,0.076-3.766,7.655-3.842,16.074
				c-0.004,0.47-0.229,0.911-0.606,1.191C79.132,35.128,78.818,35.23,78.5,35.23z M62.567,29.614
				c5.173,0.282,10.034,1.007,14.506,2.167c0.364-5.502,1.977-10.371,3.064-13.114C72.22,19.774,65.631,26.141,62.567,29.614z"/>
		</g>
	</g>
	<g>
		<g>
			<path class="st0" d="M28.224,75.098c-0.091,0-0.183-0.008-0.276-0.026c-4.61-0.856-8.465-1.968-11.562-2.86
				C13.068,71.255,10.447,70.5,8.5,70.5h-2C2.916,70.5,0,67.584,0,64s2.916-6.5,6.5-6.5c1.601,0,2.89-1.708,6.723-7.106
				c0.887-1.25,1.896-2.67,3.064-4.276C24.645,34.625,37.356,29.5,57.5,29.5l0.664-0.003c0.46-0.003,0.916-0.006,1.367,0.003
				c10.045,0.21,18.982,2.025,26.563,5.394c0.757,0.336,1.098,1.223,0.762,1.979c-0.338,0.756-1.223,1.1-1.98,0.762
				c-7.215-3.205-15.763-4.933-25.407-5.136c-0.425-0.009-0.854-0.006-1.284-0.002L57.5,32.5c-19.346,0-30.945,4.6-38.787,15.382
				c-1.16,1.595-2.162,3.006-3.044,4.249C11.466,58.05,9.726,60.5,6.5,60.5C4.57,60.5,3,62.07,3,64s1.57,3.5,3.5,3.5h2
				c2.371,0,5.171,0.807,8.717,1.83c3.035,0.875,6.811,1.963,11.278,2.793c0.814,0.151,1.352,0.934,1.201,1.749
				C29.562,74.594,28.932,75.098,28.224,75.098z"/>
		</g>
	</g>
	<g>
		<g>
			<path class="st0" d="M92.5,112.5c-0.349,0-0.689-0.122-0.961-0.348C91.197,111.867,91,111.445,91,111
				c0-8.972,8.574-16.209,11.624-18.5c-1.117-2.222-4.333-7.567-10.853-11.189c-8.34-4.633-20.281-4.805-31.038-4.811
				C59.38,84.074,59.99,93.8,59.997,93.902c0.027,0.414-0.119,0.821-0.402,1.123c-0.284,0.303-0.68,0.475-1.095,0.475
				c-11.361,0-15.303-14.553-16.244-19.011c-2.154-0.035-4.306-0.152-6.54-0.355c-0.825-0.075-1.433-0.805-1.357-1.63
				s0.808-1.435,1.63-1.357c2.573,0.234,5.031,0.35,7.514,0.354c0.736,0.001,1.363,0.538,1.479,1.265
				c0.027,0.168,2.651,15.964,11.938,17.599c-0.129-3.46-0.236-11.39,1.114-17.679c0.148-0.691,0.76-1.185,1.467-1.185
				c11.432,0,24.389,0,33.729,5.189c9.374,5.208,12.546,13.437,12.676,13.784c0.245,0.652,0.008,1.387-0.571,1.774
				c-0.105,0.07-9.803,6.646-11.173,14.854c3.335-0.803,10.218-2.785,14.38-6.253c0.431-0.358,1.021-0.445,1.537-0.232
				c2.859,1.191,10.365,4.048,14.77,4.734c-0.469-3.102-2.369-9.835-10.065-14.033c-0.52-0.284-0.824-0.848-0.776-1.438
				c0.027-0.343,2.482-34.522-22.661-50.752c-0.696-0.449-0.896-1.378-0.447-2.074c0.449-0.697,1.378-0.896,2.074-0.447
				c24.206,15.625,24.287,46.673,24.073,52.548C127.872,97.586,128,108.526,128,109c0,0.829-0.672,1.5-1.5,1.5
				c-4.51,0-13.904-3.634-16.755-4.78c-6.321,4.776-16.529,6.675-16.977,6.756C92.679,112.492,92.589,112.5,92.5,112.5z"/>
		</g>
	</g>
</g>
</svg>
