<?xml version="1.0" encoding="utf-8"?>
<!-- Generator: Adobe Illustrator 22.0.0, SVG Export Plug-In . SVG Version: 6.00 Build 0)  -->
<svg version="1.1" id="Layer_1" xmlns="http://www.w3.org/2000/svg" xmlns:xlink="http://www.w3.org/1999/xlink" x="0px" y="0px"
	 viewBox="0 0 128 128" style="enable-background:new 0 0 128 128;" xml:space="preserve">
<style type="text/css">
	.st0{fill:#746887;}
	.st1{fill:#FFCFB8;}
	.st2{fill:#E6B9A0;}
	.st3{fill:#D29997;}
	.st4{fill:#F98770;}
	.st5{fill:#DCA98B;}
	.st6{fill:#FFDDCF;}
	.st7{fill:#E8E8E8;}
	.st8{fill:#FFBF9E;}
	.st9{fill:#B0BACC;}
	.st10{fill:#9BA7BC;}
	.st11{fill:#B6B4ED;}
	.st12{fill:#FFBC99;}
	.st13{fill:#F8F8F8;}
	.st14{fill:#B2A7BF;}
	.st15{fill:#9B9B9B;}
	.st16{fill:#968AA0;}
	.st17{fill:#C6BBD3;}
	.st18{fill:#D8D8D8;}
	.st19{fill:#D29976;}
	.st20{fill:#FFA77B;}
	.st21{fill:#CCD3DD;}
	.st22{fill-rule:evenodd;clip-rule:evenodd;fill:#F8F8F8;}
	.st23{fill-rule:evenodd;clip-rule:evenodd;fill:#9B9B9B;}
	.st24{fill-rule:evenodd;clip-rule:evenodd;fill:#777777;}
	.st25{fill:#91DEF5;}
	.st26{fill:#B0E7F8;}
	.st27{fill-rule:evenodd;clip-rule:evenodd;fill:#DCA98B;}
	.st28{fill-rule:evenodd;clip-rule:evenodd;fill:#D29997;}
	.st29{fill-rule:evenodd;clip-rule:evenodd;fill:#FFCBBE;}
	.st30{fill-rule:evenodd;clip-rule:evenodd;fill:#E6B9A0;}
	.st31{fill-rule:evenodd;clip-rule:evenodd;fill:#746887;}
	.st32{fill-rule:evenodd;clip-rule:evenodd;fill:#FFBC99;}
	.st33{fill-rule:evenodd;clip-rule:evenodd;fill:#FFA77B;}
	.st34{fill-rule:evenodd;clip-rule:evenodd;fill:#FFCFB8;}
	.st35{fill-rule:evenodd;clip-rule:evenodd;fill:#E8E8E8;}
	.st36{fill-rule:evenodd;clip-rule:evenodd;fill:#CCD3DD;}
	.st37{fill:#E6B9C1;}
	.st38{fill:#FFCBBE;}
	.st39{fill-rule:evenodd;clip-rule:evenodd;fill:#F98770;}
	.st40{fill-rule:evenodd;clip-rule:evenodd;fill:#F2BB88;}
	.st41{fill:#F2D1A5;}
	.st42{fill-rule:evenodd;clip-rule:evenodd;fill:#F2D1A5;}
	.st43{fill:#F2BB88;}
	.st44{fill-rule:evenodd;clip-rule:evenodd;fill:#9BA7BC;}
	.st45{fill-rule:evenodd;clip-rule:evenodd;fill:#B0BACC;}
	.st46{fill-rule:evenodd;clip-rule:evenodd;fill:#FFFFFF;}
	.st47{fill-rule:evenodd;clip-rule:evenodd;fill:#FFDDCF;}
	.st48{fill-rule:evenodd;clip-rule:evenodd;fill:#B0E7F8;}
	.st49{fill-rule:evenodd;clip-rule:evenodd;fill:#968AA0;}
	.st50{fill:#9D9BE6;}
	.st51{fill:#CFCEF3;}
	.st52{fill-rule:evenodd;clip-rule:evenodd;fill:#D8D8D8;}
	.st53{fill-rule:evenodd;clip-rule:evenodd;fill:#B6B4ED;}
	.st54{fill-rule:evenodd;clip-rule:evenodd;fill:#FFD4BE;}
</style>
<g>
	<g>
		<g>
			<g>
				<path class="st45" d="M76.491,16c-10.57,0-20.21,4.7-25.88,13.9c-3.63,5.88-6.12,15.27-6.12,21.1
					c0,10.982,7.908,19.298,18.946,22.962l0.021,0.006C62.134,78.094,60.159,81,61.491,81c1.202,0,4.211-2.168,6.42-5.852l0-0.008
					c1.166,0.247,2.352,0.435,3.567,0.575l0.039,0.004c0.949,6.26,2.214,12.653,2.214,12.653
					c1.122,6.598,6.839,11.425,13.532,11.425h2.05c2.832,0,5.437-1.136,7.338-3.012c2.301-2.27,2.754-7.347-0.206-8.644
					c-0.866-0.38-2.625,0.131-3,1C93.037,90.084,91.491,92,88.491,92c-4.029,0-5.29-3.814-5-8c0,0,0.32-4.156,0.597-8.672
					c-0.003,0-0.005,0.001-0.007,0.001l0.008-0.007c0,0.002,0,0.004,0,0.005c0.927-0.16,1.845-0.359,2.743-0.589l0.001-0.002
					C89.058,78.671,92.245,81,93.491,81c1.4,0-0.856-3.214-2.167-7.681l-0.003-0.009c10.1-3.92,17.17-11.93,17.17-22.31
					c0-5.83-2.49-15.22-6.12-21.1C96.701,20.7,87.061,16,76.491,16z"/>
			</g>
		</g>
		<g>
			<g>
				<polygon class="st45" points="84.081,75.33 84.089,75.328 84.089,75.323 				"/>
			</g>
		</g>
	</g>
	<g>
		<g>
			<g>
				<path class="st45" d="M71.521,75.72h-0.04c-1.22-0.14-2.4-0.33-3.57-0.58v0.01c-2.21,3.68-5.22,5.85-6.42,5.85
					c-1.33,0,0.64-2.91,1.97-7.03l-0.02-0.01c-6.96-2.31-12.67-6.47-15.94-11.98L47.491,62c-1.55,0.66-3.56,0.99-6,1
					c-5.35,0.03-11.95-2.4-14-12c-0.85-3.99-1.09-8.02-1-12c0.05-2.26,0.24-4.48,0.57-6.61l-0.25-0.07
					c-11.24,5.85-19.27,17.12-20.49,30.54L1.491,116h16l2.65-14.55c0.78-4.31,4.54-7.45,8.92-7.45h29.43v22h13l4-22l0.08-0.74
					c-0.9-1.46-1.53-3.11-1.84-4.89C73.731,88.37,72.461,81.98,71.521,75.72z"/>
			</g>
		</g>
	</g>
	<g>
		<g>
			<path class="st44" d="M44.491,12c-11.73,0-17.69,12.7-18,27c-0.09,3.98,0.15,8.01,1,12c2.05,9.6,8.65,12.03,14,12
				c2.44-0.01,4.45-0.34,6-1l0.01-0.02c-1.93-3.23-3.01-6.92-3.01-10.98c0-5.83,2.49-15.22,6.12-21.1c2.78-4.5,6.5-7.93,10.82-10.25
				C59.621,17.39,55.941,12,44.491,12z"/>
		</g>
	</g>
	<g>
		<g>
			<path class="st44" d="M89.311,99.8h-2.05c-2.45,0-4.76-0.65-6.77-1.79l4,17.99h14V92.64c-0.15,1.55-0.81,3.13-1.84,4.15
				C94.751,98.66,92.141,99.8,89.311,99.8z"/>
		</g>
	</g>
	<g>
		<g>
			<path class="st31" d="M91.321,73.32c1.31,4.47,3.57,7.68,2.17,7.68c-0.62,0-1.73-0.58-2.96-1.66c-1.23-1.07-2.58-2.64-3.7-4.6
				c-0.9,0.23-1.82,0.43-2.74,0.59c-0.28,4.51-0.6,8.67-0.6,8.67c-0.29,4.19,0.97,8,5,8c3,0,4.55-1.92,4.95-2.86
				c0.38-0.87,2.14-1.38,3-1c1.27,0.56,1.91,1.8,2.05,3.22v-21.9c-2.14,1.54-4.55,2.83-7.17,3.85V73.32z"/>
		</g>
	</g>
	<g>
		<g>
			<path class="st44" d="M108.491,12c-11.45,0-15.13,5.39-16.94,7.65c4.32,2.32,8.04,5.75,10.82,10.25
				c3.63,5.88,6.12,15.27,6.12,21.1c0,4.06-1.08,7.75-3.01,10.98l0.01,0.02c1.55,0.66,3.56,0.99,6,1c5.35,0.03,11.95-2.4,14-12
				c0.85-3.99,1.09-8.02,1-12C126.181,24.7,120.221,12,108.491,12z"/>
		</g>
	</g>
	<g>
		<g>
			<path class="st44" d="M20.141,101.45L17.491,116h11.25l2.64-14.55c0.79-4.31,4.72-7.45,9.11-7.45h-11.43
				C24.681,94,20.921,97.14,20.141,101.45z"/>
		</g>
	</g>
	<g>
		<g>
			<path class="st44" d="M91.321,73.32c1.31,4.47,3.57,7.68,2.17,7.68c-0.62,0-1.73-0.58-2.96-1.66c-1.23-1.07-2.58-2.64-3.7-4.6
				c-0.9,0.23-1.82,0.43-2.74,0.59c-0.28,4.51-0.6,8.67-0.6,8.67c-0.29,4.19,0.97,8,5,8c3,0,4.55-1.92,4.95-2.86
				c0.38-0.87,2.14-1.38,3-1c1.27,0.56,1.91,1.8,2.05,3.22v-21.9c-2.14,1.54-4.55,2.83-7.17,3.85V73.32z"/>
		</g>
	</g>
	<g>
		<g>
			<g>
				<g>
					<path class="st52" d="M90.491,68l-0.12-0.22c-1.17-2.07-3.76-2.85-5.88-1.78c0,1.7,0.25,3.28,0.67,4.75
						c0.41,1.46,1,2.8,1.67,3.99c2.23,3.93,5.42,6.26,6.66,6.26c1.4,0-0.86-3.21-2.17-7.68C90.841,71.68,90.491,69.88,90.491,68z"/>
				</g>
			</g>
		</g>
	</g>
	<g>
		<g>
			<path class="st52" d="M70.138,65.804c-2.155-1.197-4.867-0.142-5.646,2.196c0,1.877-0.353,3.682-0.833,5.319
				C62.347,77.786,60.091,81,61.491,81c1.245,0,4.43-2.33,6.656-6.256c1.347-2.379,2.344-5.351,2.344-8.744L70.138,65.804z"/>
		</g>
	</g>
	<g>
		<g>
			<circle class="st0" cx="88.281" cy="47" r="2.5"/>
		</g>
	</g>
	<g>
		<g>
			<circle class="st0" cx="88.281" cy="47" r="2.5"/>
		</g>
	</g>
	<g>
		<g>
			<circle class="st0" cx="64.701" cy="47" r="2.5"/>
		</g>
	</g>
	<g>
		<g>
			<path class="st0" d="M41.403,64.5c-3.854,0-12.845-1.319-15.379-13.188c-0.798-3.747-1.136-7.786-1.033-12.347
				C25.366,21.674,33.02,10.5,44.491,10.5c11.636,0,15.831,5.322,17.848,7.88l0.263,0.332c0.278,0.348,0.388,0.801,0.299,1.237
				c-0.089,0.437-0.367,0.811-0.76,1.021c-4.221,2.267-7.67,5.536-10.253,9.717C48.245,36.587,45.991,45.825,45.991,51
				c0,3.668,0.941,7.104,2.798,10.21c0.26,0.435,0.282,0.972,0.061,1.427c-0.159,0.324-0.438,0.601-0.771,0.742
				c-1.72,0.733-3.935,1.109-6.582,1.12C41.467,64.5,41.436,64.5,41.403,64.5z M44.491,13.5c-7.356,0-16.093,6.687-16.5,25.532
				c-0.098,4.327,0.219,8.139,0.967,11.655c2.021,9.456,8.725,10.848,12.524,10.812c1.466-0.006,2.751-0.134,3.842-0.381
				c-1.549-3.137-2.333-6.532-2.333-10.119c0-5.708,2.373-15.456,6.344-21.888c2.54-4.112,5.841-7.43,9.827-9.886
				C57.109,16.813,53.343,13.5,44.491,13.5z"/>
		</g>
	</g>
	<g>
		<g>
			<path class="st0" d="M98.491,117.5h-14c-0.703,0-1.312-0.488-1.464-1.174l-4-17.99c-0.129-0.579,0.096-1.179,0.572-1.532
				c0.478-0.353,1.117-0.391,1.632-0.099c1.839,1.043,3.924,1.595,6.029,1.595h2.051c2.365,0,4.598-0.916,6.288-2.579
				c0.739-0.733,1.276-1.97,1.398-3.226c0.078-0.796,0.77-1.404,1.565-1.353c0.8,0.039,1.428,0.698,1.428,1.498v9.732
				c0,0.829-0.672,1.5-1.5,1.5s-1.5-0.671-1.5-1.5v-3.866c-2.154,1.809-4.846,2.793-7.68,2.793h-2.051
				c-1.585,0-3.161-0.251-4.665-0.736l3.099,13.936h11.297v-3.839c-0.019-0.094-0.028-0.192-0.028-0.292
				c0-0.782,0.599-1.425,1.363-1.494c0.941-0.098,1.665,0.61,1.665,1.491V116C99.991,116.829,99.319,117.5,98.491,117.5z"/>
		</g>
	</g>
	<g>
		<g>
			<path class="st0" d="M88.491,93.5c-1.8,0-3.344-0.634-4.463-1.833c-1.979-2.121-2.198-5.396-2.033-7.77
				c0.001-0.016,0.32-4.163,0.599-8.659c0.043-0.693,0.556-1.266,1.24-1.385c0.854-0.149,1.737-0.339,2.627-0.566
				c0.654-0.166,1.337,0.124,1.673,0.709c0.931,1.629,2.132,3.125,3.382,4.212c0.009,0.008,0.019,0.016,0.027,0.024
				c-0.525-1.245-1.155-2.763-1.661-4.49c-0.04-0.137-0.061-0.279-0.061-0.422c0-0.619,0.38-1.183,0.956-1.408
				c2.514-0.979,4.814-2.213,6.838-3.669c0.456-0.33,1.059-0.375,1.56-0.118s0.816,0.772,0.816,1.335v21.9
				c0,0.8-0.628,1.459-1.427,1.498c-0.791,0.044-1.488-0.556-1.566-1.351c-0.069-0.707-0.327-1.626-1.162-1.994
				c-0.219-0.057-0.844,0.113-1.05,0.295C94.16,91.205,92.16,93.5,88.491,93.5z M85.515,76.584c-0.26,4.049-0.528,7.531-0.528,7.531
				c-0.171,2.469,0.279,4.48,1.235,5.504c0.553,0.592,1.295,0.88,2.27,0.88c2.248,0,3.34-1.406,3.57-1.948
				c0.323-0.74,1.013-1.341,1.948-1.706c1.045-0.408,2.154-0.445,2.981-0.103V72.228c-1.209,0.714-2.485,1.364-3.821,1.943
				c0.405,1.165,0.854,2.225,1.233,3.122c0.907,2.144,1.406,3.324,0.708,4.378c-0.349,0.526-0.939,0.829-1.62,0.829
				c-1.423,0-3.086-1.274-3.95-2.033c-1.235-1.075-2.428-2.475-3.422-4.013C85.917,76.499,85.715,76.543,85.515,76.584z"/>
		</g>
	</g>
	<g>
		<g>
			<path class="st0" d="M98.491,94.14c-0.828,0-1.5-0.671-1.5-1.5v-1.28c0-0.829,0.672-1.5,1.5-1.5s1.5,0.671,1.5,1.5v1.28
				C99.991,93.469,99.319,94.14,98.491,94.14z"/>
		</g>
	</g>
	<g>
		<g>
			<path class="st0" d="M58.491,95.5c-0.828,0-1.5-0.671-1.5-1.5c0-2.481-2.019-4.5-4.5-4.5c-0.828,0-1.5-0.671-1.5-1.5
				s0.672-1.5,1.5-1.5c4.136,0,7.5,3.364,7.5,7.5C59.991,94.829,59.319,95.5,58.491,95.5z"/>
		</g>
	</g>
	<g>
		<g>
			<path class="st0" d="M71.491,117.5h-13c-0.828,0-1.5-0.671-1.5-1.5V95.5h-27.93c-3.662,0-6.793,2.615-7.444,6.217l-2.65,14.552
				c-0.13,0.713-0.751,1.231-1.476,1.231h-16c-0.422,0-0.823-0.177-1.107-0.488c-0.284-0.312-0.425-0.728-0.387-1.147l4.113-45.25
				c0.075-0.826,0.817-1.435,1.63-1.358c0.825,0.075,1.433,0.804,1.358,1.629L3.134,114.5H16.24l2.426-13.319
				c0.909-5.029,5.281-8.681,10.396-8.681h29.43c0.828,0,1.5,0.671,1.5,1.5v20.5h10.248l3.787-20.905
				c-0.868-1.525-1.464-3.194-1.772-4.968c-0.006-0.027-1.133-5.708-2.043-11.558c-0.536-0.076-1.061-0.161-1.581-0.257
				c-2.194,3.252-5.205,5.688-7.139,5.688c-0.681,0-1.271-0.302-1.62-0.829c-0.7-1.057-0.197-2.248,0.717-4.41
				c0.294-0.694,0.635-1.501,0.965-2.379c-6.315-2.376-11.448-6.25-14.671-11.073c-1.511,0.451-3.315,0.683-5.385,0.691
				c-0.03,0-0.062,0-0.094,0c-3.854,0-12.845-1.319-15.379-13.188c-0.798-3.747-1.136-7.786-1.033-12.347
				c0.03-1.362,0.11-2.709,0.239-4.03c-9.902,6.066-16.35,16.373-17.414,28.049c-0.076,0.825-0.806,1.432-1.631,1.357
				c-0.824-0.075-1.433-0.805-1.357-1.63c1.238-13.57,9.197-25.429,21.291-31.723c0.339-0.176,0.73-0.217,1.099-0.113l0.25,0.07
				c0.73,0.205,1.192,0.924,1.076,1.673c-0.318,2.055-0.505,4.212-0.553,6.414c-0.098,4.326,0.219,8.138,0.967,11.654
				c2.021,9.456,8.725,10.848,12.524,10.812c2.195-0.009,3.985-0.292,5.325-0.84c0.191-0.101,0.405-0.16,0.627-0.169
				c0.578-0.03,1.075,0.249,1.356,0.723c3.004,5.062,8.375,9.082,15.123,11.322c0.067,0.023,0.134,0.05,0.198,0.082
				c0.663,0.332,1.004,1.107,0.776,1.812c-0.471,1.458-1.016,2.764-1.467,3.832c0.966-0.839,2.13-2.11,3.172-3.832
				c0.093-0.172,0.219-0.327,0.374-0.452c0.352-0.285,0.812-0.401,1.257-0.306c1.106,0.236,2.222,0.417,3.408,0.554
				c0.681,0.068,1.27,0.586,1.372,1.27c0.923,6.151,2.186,12.517,2.198,12.581c0.279,1.608,0.831,3.075,1.645,4.395
				c0.175,0.284,0.251,0.618,0.215,0.949l-0.08,0.74c-0.004,0.036-0.009,0.072-0.016,0.107l-4,22
				C72.837,116.981,72.216,117.5,71.491,117.5z"/>
		</g>
	</g>
	<g>
		<g>
			<path class="st0" d="M10.807,49.474c-0.039,0-0.078-0.001-0.117-0.004C1.152,48.738,0.038,35.671-0.004,35.115
				c-0.063-0.826,0.553-1.545,1.379-1.61c0.82-0.055,1.547,0.553,1.611,1.378c0.009,0.11,0.957,11.06,7.934,11.595
				c0.825,0.063,1.443,0.784,1.38,1.61C12.24,48.876,11.583,49.474,10.807,49.474z"/>
		</g>
	</g>
	<g>
		<g>
			<path class="st0" d="M111.576,64.5c-0.031,0-0.062,0-0.094,0c-2.645-0.011-4.859-0.387-6.579-1.12
				c-0.332-0.141-0.602-0.398-0.761-0.722c-0.222-0.456-0.209-1.012,0.051-1.447c1.856-3.107,2.798-6.542,2.798-10.21
				c0-5.175-2.254-14.413-5.896-20.312c-2.583-4.181-6.033-7.45-10.254-9.716c-0.393-0.211-0.671-0.585-0.76-1.022
				s0.021-0.89,0.299-1.238l0.265-0.333c2.017-2.558,6.213-7.879,17.847-7.879c11.47,0,19.124,11.174,19.5,28.467
				c0.103,4.56-0.235,8.599-1.033,12.345v0C124.424,63.181,115.433,64.5,111.576,64.5z M107.658,61.119
				c1.091,0.248,2.375,0.375,3.839,0.381c3.801,0.038,10.507-1.356,12.527-10.813v0c0.748-3.516,1.064-7.328,0.967-11.654
				c-0.409-18.847-9.145-25.534-16.5-25.534c-8.852,0-12.619,3.313-14.672,5.726c3.986,2.456,7.288,5.774,9.828,9.886
				c3.971,6.433,6.344,16.181,6.344,21.889C109.991,54.586,109.207,57.982,107.658,61.119z M125.491,51h0.01H125.491z"/>
		</g>
	</g>
	<g>
		<g>
			<path class="st0" d="M89.312,101.297h-2.05c-7.449,0-13.762-5.33-15.011-12.673c-0.005-0.023-1.127-5.709-2.046-11.559
				c-0.539-0.076-1.062-0.16-1.575-0.254c-2.192,3.254-5.204,5.689-7.14,5.689c-0.681,0-1.271-0.302-1.62-0.829
				c-0.7-1.055-0.199-2.239,0.709-4.39c0.296-0.699,0.639-1.511,0.97-2.396C50.061,70.567,42.991,61.526,42.991,51
				c0-5.708,2.373-15.456,6.344-21.888C55.058,19.826,64.956,14.5,76.491,14.5c0.828,0,1.5,0.671,1.5,1.5s-0.672,1.5-1.5,1.5
				c-10.471,0-19.438,4.807-24.603,13.187c-3.644,5.9-5.897,15.138-5.897,20.313c0,9.762,6.698,17.813,17.918,21.538
				c0.78,0.259,1.229,1.105,0.978,1.888c-0.47,1.461-1.013,2.768-1.465,3.838c0.967-0.84,2.131-2.113,3.173-3.838
				c0.093-0.17,0.219-0.323,0.372-0.447c0.351-0.285,0.812-0.399,1.255-0.306c1.103,0.233,2.223,0.414,3.427,0.552
				c0.673,0.077,1.25,0.6,1.352,1.27c0.933,6.153,2.189,12.523,2.202,12.587c1.01,5.936,6.079,10.216,12.061,10.216h2.05
				c2.367,0,4.599-0.916,6.284-2.58c1.059-1.044,1.641-3.002,1.354-4.554c-0.155-0.84-0.528-1.395-1.108-1.649
				c-0.223-0.055-0.847,0.112-1.052,0.292c-0.641,1.406-2.647,3.693-6.299,3.693c-1.8,0-3.342-0.634-4.462-1.834
				c-1.979-2.122-2.199-5.396-2.034-7.77c0.001-0.015,0.313-4.084,0.589-8.539c-0.009-0.432,0.168-0.858,0.51-1.157
				c0.228-0.199,0.506-0.322,0.795-0.36c0.821-0.143,1.671-0.325,2.527-0.542c0.121-0.035,0.247-0.055,0.377-0.059
				c0.542-0.023,1.071,0.277,1.345,0.76c1.082,1.913,2.358,3.329,3.414,4.246c-0.526-1.247-1.158-2.771-1.667-4.504
				c-0.219-0.748,0.167-1.547,0.894-1.829c10.152-3.94,16.213-11.758,16.213-20.912c0-5.175-2.254-14.413-5.896-20.312
				c-3.891-6.313-9.824-10.576-17.159-12.328c-0.806-0.192-1.303-1.001-1.11-1.808c0.191-0.805,1-1.303,1.808-1.11
				c8.124,1.94,14.699,6.667,19.016,13.67c3.97,6.432,6.343,16.179,6.343,21.887c0,10.032-6.258,18.607-16.816,23.171
				c0.411,1.181,0.853,2.225,1.228,3.111c0.908,2.15,1.408,3.334,0.709,4.389c-0.349,0.527-0.939,0.829-1.62,0.829
				c-2.012,0-5.172-2.634-7.373-6.046c-0.203,0.046-0.404,0.089-0.605,0.131c-0.259,4.053-0.526,7.53-0.526,7.53
				c-0.171,2.469,0.279,4.479,1.236,5.504c0.553,0.593,1.295,0.881,2.269,0.881c2.241,0,3.342-1.411,3.576-1.954
				c0.313-0.726,0.997-1.327,1.926-1.692c1.072-0.423,2.215-0.456,3.054-0.086c1.503,0.659,2.516,2.026,2.854,3.852
				c0.466,2.523-0.437,5.498-2.196,7.234C95.453,100.074,92.474,101.297,89.312,101.297z"/>
		</g>
	</g>
	<g>
		<g>
			<path class="st0" d="M28.741,117.5h-11.25c-0.445,0-0.867-0.197-1.151-0.539c-0.285-0.342-0.404-0.792-0.324-1.23l2.65-14.55
				c0.909-5.029,5.281-8.681,10.396-8.681h11.43c0.828,0,1.5,0.671,1.5,1.5s-0.672,1.5-1.5,1.5c-3.702,0-6.985,2.674-7.635,6.221
				l-2.64,14.547C30.088,116.981,29.467,117.5,28.741,117.5z M19.289,114.5h8.2l2.416-13.317c0.405-2.212,1.538-4.182,3.125-5.683
				h-3.969c-3.662,0-6.793,2.615-7.444,6.217L19.289,114.5z"/>
		</g>
	</g>
	<g>
		<g>
			<path class="st0" d="M88.491,93.5c-1.8,0-3.344-0.634-4.463-1.833c-1.979-2.121-2.198-5.396-2.033-7.77
				c0.001-0.016,0.32-4.163,0.599-8.659c0.043-0.693,0.556-1.266,1.24-1.385c0.854-0.149,1.737-0.339,2.627-0.566
				c0.654-0.166,1.337,0.124,1.673,0.709c0.931,1.629,2.132,3.125,3.382,4.212c0.009,0.008,0.019,0.016,0.027,0.024
				c-0.525-1.245-1.155-2.763-1.661-4.49c-0.04-0.137-0.061-0.279-0.061-0.422c0-0.619,0.38-1.183,0.956-1.408
				c2.514-0.979,4.814-2.213,6.838-3.669c0.456-0.33,1.059-0.375,1.56-0.118s0.816,0.772,0.816,1.335v21.9
				c0,0.8-0.628,1.459-1.427,1.498c-0.791,0.044-1.488-0.556-1.566-1.351c-0.069-0.707-0.327-1.626-1.162-1.994
				c-0.219-0.057-0.844,0.113-1.05,0.295C94.16,91.205,92.16,93.5,88.491,93.5z M85.515,76.584c-0.26,4.049-0.528,7.531-0.528,7.531
				c-0.171,2.469,0.279,4.48,1.235,5.504c0.553,0.592,1.295,0.88,2.27,0.88c2.248,0,3.34-1.406,3.57-1.948
				c0.323-0.74,1.013-1.341,1.948-1.706c1.045-0.408,2.154-0.445,2.981-0.103V72.228c-1.209,0.714-2.485,1.364-3.821,1.943
				c0.405,1.165,0.854,2.225,1.233,3.122c0.907,2.144,1.406,3.324,0.708,4.378c-0.349,0.526-0.939,0.829-1.62,0.829
				c-1.423,0-3.086-1.274-3.95-2.033c-1.235-1.075-2.428-2.475-3.422-4.013C85.917,76.499,85.715,76.543,85.515,76.584z"/>
		</g>
	</g>
	<g>
		<g>
			<g>
				<g>
					<path class="st4" d="M93.491,82.5c-2.195,0-5.768-3.149-7.965-7.02c-1.636-2.907-2.512-6.137-2.535-9.345
						c-0.006-0.828,0.66-1.505,1.489-1.511c0.004,0,0.007,0,0.011,0c0.823,0,1.494,0.665,1.5,1.489
						c0.02,2.74,0.742,5.395,2.147,7.891c1.08,1.903,2.352,3.314,3.406,4.231c-0.526-1.246-1.156-2.766-1.663-4.494
						c-0.6-2.045-0.891-3.923-0.891-5.742c0-0.829,0.672-1.5,1.5-1.5s1.5,0.671,1.5,1.5c0,1.529,0.252,3.131,0.77,4.898
						c0.489,1.669,1.129,3.181,1.643,4.396c0.907,2.144,1.406,3.324,0.708,4.378C94.763,82.198,94.172,82.5,93.491,82.5z"/>
				</g>
			</g>
		</g>
	</g>
	<g>
		<g>
			<path class="st0" d="M84.09,76.823c-0.03,0-0.062-0.001-0.093-0.003c-0.827-0.051-1.456-0.763-1.405-1.589
				c0.262-4.24,0.399-7.432,0.399-9.231c0-0.857-0.151-3.726-2.105-4.646c-0.749-0.354-1.07-1.247-0.717-1.997
				c0.354-0.749,1.247-1.068,1.996-0.717c2.432,1.146,3.826,3.829,3.826,7.36c0,1.886-0.137,5.054-0.405,9.416
				C85.537,76.211,84.877,76.823,84.09,76.823z"/>
		</g>
	</g>
	<g>
		<g>
			<g>
				<path class="st4" d="M61.491,82.5c-0.681,0-1.271-0.302-1.62-0.829c-0.698-1.054-0.199-2.234,0.708-4.378
					c0.514-1.215,1.153-2.727,1.643-4.396c0.518-1.767,0.77-3.369,0.77-4.898c0-0.829,0.672-1.5,1.5-1.5s1.5,0.671,1.5,1.5
					c0,1.818-0.291,3.696-0.891,5.742c-0.508,1.732-1.139,3.255-1.666,4.501c1.05-0.917,2.327-2.332,3.412-4.243
					c1.422-2.526,2.145-5.22,2.145-8c0-0.829,0.672-1.5,1.5-1.5s1.5,0.671,1.5,1.5c0,3.255-0.876,6.532-2.532,9.476
					C67.259,79.351,63.687,82.5,61.491,82.5z"/>
			</g>
		</g>
	</g>
	<g>
		<g>
			<path class="st0" d="M71.515,77.219c-0.729,0-1.368-0.532-1.481-1.275c-0.691-4.565-1.042-7.911-1.042-9.944
				c0-2.072,0-5.929,3.978-7.406c0.781-0.288,1.641,0.108,1.929,0.884s-0.107,1.64-0.884,1.928
				c-1.569,0.583-2.022,1.613-2.022,4.594c0,1.883,0.339,5.077,1.009,9.495c0.124,0.819-0.439,1.583-1.259,1.708
				C71.665,77.214,71.59,77.219,71.515,77.219z"/>
		</g>
	</g>
</g>
</svg>
