<?xml version="1.0" encoding="utf-8"?>
<!-- Generator: Adobe Illustrator 22.0.0, SVG Export Plug-In . SVG Version: 6.00 Build 0)  -->
<svg version="1.1" id="Layer_1" xmlns="http://www.w3.org/2000/svg" xmlns:xlink="http://www.w3.org/1999/xlink" x="0px" y="0px"
	 viewBox="0 0 128 128" style="enable-background:new 0 0 128 128;" xml:space="preserve">
<style type="text/css">
	.st0{fill:#746887;}
	.st1{fill:#FFCFB8;}
	.st2{fill:#E6B9A0;}
	.st3{fill:#D29997;}
	.st4{fill:#F98770;}
	.st5{fill:#DCA98B;}
	.st6{fill:#FFDDCF;}
	.st7{fill:#E8E8E8;}
	.st8{fill:#FFBF9E;}
	.st9{fill:#B0BACC;}
	.st10{fill:#9BA7BC;}
	.st11{fill:#B6B4ED;}
	.st12{fill:#FFBC99;}
	.st13{fill:#F8F8F8;}
	.st14{fill:#B2A7BF;}
	.st15{fill:#9B9B9B;}
	.st16{fill:#968AA0;}
	.st17{fill:#C6BBD3;}
	.st18{fill:#D8D8D8;}
	.st19{fill:#D29976;}
	.st20{fill:#FFA77B;}
	.st21{fill:#CCD3DD;}
	.st22{fill-rule:evenodd;clip-rule:evenodd;fill:#F8F8F8;}
	.st23{fill-rule:evenodd;clip-rule:evenodd;fill:#9B9B9B;}
	.st24{fill-rule:evenodd;clip-rule:evenodd;fill:#777777;}
	.st25{fill:#91DEF5;}
	.st26{fill:#B0E7F8;}
	.st27{fill-rule:evenodd;clip-rule:evenodd;fill:#DCA98B;}
	.st28{fill-rule:evenodd;clip-rule:evenodd;fill:#D29997;}
	.st29{fill-rule:evenodd;clip-rule:evenodd;fill:#FFCBBE;}
	.st30{fill-rule:evenodd;clip-rule:evenodd;fill:#E6B9A0;}
	.st31{fill-rule:evenodd;clip-rule:evenodd;fill:#746887;}
	.st32{fill-rule:evenodd;clip-rule:evenodd;fill:#FFBC99;}
	.st33{fill-rule:evenodd;clip-rule:evenodd;fill:#FFA77B;}
	.st34{fill-rule:evenodd;clip-rule:evenodd;fill:#FFCFB8;}
	.st35{fill-rule:evenodd;clip-rule:evenodd;fill:#E8E8E8;}
	.st36{fill-rule:evenodd;clip-rule:evenodd;fill:#CCD3DD;}
	.st37{fill:#E6B9C1;}
	.st38{fill:#FFCBBE;}
	.st39{fill-rule:evenodd;clip-rule:evenodd;fill:#F98770;}
	.st40{fill-rule:evenodd;clip-rule:evenodd;fill:#F2BB88;}
	.st41{fill:#F2D1A5;}
	.st42{fill-rule:evenodd;clip-rule:evenodd;fill:#F2D1A5;}
	.st43{fill:#F2BB88;}
	.st44{fill-rule:evenodd;clip-rule:evenodd;fill:#9BA7BC;}
	.st45{fill-rule:evenodd;clip-rule:evenodd;fill:#B0BACC;}
	.st46{fill-rule:evenodd;clip-rule:evenodd;fill:#FFFFFF;}
	.st47{fill-rule:evenodd;clip-rule:evenodd;fill:#FFDDCF;}
	.st48{fill-rule:evenodd;clip-rule:evenodd;fill:#B0E7F8;}
	.st49{fill-rule:evenodd;clip-rule:evenodd;fill:#968AA0;}
	.st50{fill:#9D9BE6;}
	.st51{fill:#CFCEF3;}
	.st52{fill-rule:evenodd;clip-rule:evenodd;fill:#D8D8D8;}
	.st53{fill-rule:evenodd;clip-rule:evenodd;fill:#B6B4ED;}
	.st54{fill-rule:evenodd;clip-rule:evenodd;fill:#FFD4BE;}
</style>
<g>
	<g>
		<path class="st6" d="M79.047,54.651c-0.781,0-1.504,0.069-2.197,0.177c10.435,0.06,5.42,15.016,5.42,15.016
			s4.825-4.45,5.864-9.805C86.325,57.591,83.28,54.651,79.047,54.651z"/>
	</g>
	<g>
		<polygon class="st6" points="73.346,38.775 73.347,38.775 73.346,38.775 		"/>
	</g>
	<g>
		<path class="st6" d="M73.347,38.775c4.769,1.571,10.698,4.157,15.227,8.203c1.295,1.157,2.264,2.544,2.925,4.046l15.103-8.226
			C94.066,44.899,73.355,38.778,73.347,38.775z"/>
	</g>
	<g>
		<path class="st6" d="M58.872,118.479c-0.936,1.471-8.778,0.802-8.778,0.802c-0.757,2.674-2.852,4.851-2.852,4.851
			c4.01,0.439,6.565,2.368,6.565,2.368s9.945-2.702,10.613-5.414c0.514-2.086,0.593-24.795,0.602-35.177
			c-1.127,0.536-2.401,1.16-3.738,1.845C60.753,97.43,59.579,117.368,58.872,118.479z"/>
	</g>
	<g>
		<path class="st6" d="M55.411,63.477L55.411,63.477l6.15,19.088c0,0-0.002,0.037-0.003,0.069c2.079-1.122,3.464-1.853,3.464-1.853
			l-4.6-18.533C58.687,62.765,57.017,63.172,55.411,63.477z"/>
	</g>
	<g>
		<path class="st7" d="M60.421,62.247l4.6,18.533c0,0-1.384,0.731-3.464,1.853c-5.616,3.032-16.343,8.944-18.861,11.203
			c-3.451,3.095-5.169,11.318-5.169,11.318l5.409-4.634c0.418,4.456,3.147,8.649,3.147,8.649s-1.248-6.154,1.593-11.68
			c2.841-5.526,21.733-13.581,21.733-13.581l-4.684-23.337C63.445,61.189,62.035,61.765,60.421,62.247z"/>
	</g>
	<g>
		<path class="st6" d="M88.573,46.979c-8.988-8.031-23.495-10.313-23.495-10.313S43.179,32.12,37.75,47.092
			c0,0-7.256-2.323-7.256-7.177c0-3.4,1.693-5.573,5.771-8.504l-0.001-0.002c0,0-4.466-5.257-4.005-8.341
			c-5.3,3.658-10.86,8.692-10.86,17.737c0,9.325,11.143,29.774,39.022,21.442c8.444-2.523,11.382-7.596,18.626-7.596
			c7.243,0,11.038,8.623,11.038,8.623C93.827,58.256,93.241,51.149,88.573,46.979z"/>
	</g>
	<g>
		<path class="st8" d="M88.573,46.979c-4.529-4.046-10.458-6.632-15.227-8.203c0.003,0.003,2.39,2.277,3.186,5.994
			c0.833,3.888-3.825,3.506-3.825,3.506c-2.656,4.622-6.587-0.85-6.587-0.85c-12.586,6.59-20.931-2.656-20.931-2.656
			s7.437,15.671,19.536,15.805c5.418-2.604,8.463-5.923,14.322-5.923c7.243,0,11.038,8.623,11.038,8.623
			C93.827,58.256,93.241,51.149,88.573,46.979z"/>
	</g>
	<g>
		<path class="st8" d="M39.117,16.095c-0.003,0.659,0.017,1.35,0.074,2.054c0.12,1.474,0.393,2.996,0.939,4.373
			c1.173,2.96-3.866,8.886-3.866,8.886l0.001,0.002c0.83-0.597,1.751-1.222,2.785-1.898c5.914-3.867,15.812-10.339,8.391-22.483
			C48.942,10.366,42.901,14.128,39.117,16.095z"/>
	</g>
	<g>
		<path class="st6" d="M43.339,3.209c-4.411-2.278-9.738-2.278-14.149,0c-1.756,0.907-3.35,2.148-4.102,3.821
			c-1.501,3.338,4.544,7.1,8.328,9.068c-0.014-2.791-0.464-5-0.464-5s1.197-1.616,3.314-1.616s3.314,1.616,3.314,1.616
			s-0.45,2.208-0.464,5c3.784-1.967,9.828-5.729,8.328-9.068C46.689,5.357,45.095,4.115,43.339,3.209z"/>
	</g>
	<g>
		<path class="st7" d="M39.578,11.097c0,0-1.197-1.616-3.314-1.616s-3.314,1.616-3.314,1.616s1.357,6.607-0.552,11.425
			c-1.173,2.96,3.866,8.886,3.866,8.886s5.039-5.927,3.866-8.886C38.221,17.704,39.578,11.097,39.578,11.097z"/>
	</g>
	<g>
		<g>
			<circle class="st0" cx="29.593" cy="8.543" r="1.195"/>
		</g>
		<g>
			<circle class="st0" cx="42.936" cy="8.543" r="1.195"/>
		</g>
	</g>
	<g>
		<path class="st0" d="M82.271,71.344c-0.281,0-0.564-0.079-0.814-0.241c-0.574-0.371-0.824-1.085-0.608-1.734
			c0.718-2.152,2.119-8.382,0.013-11.323c-0.82-1.145-2.135-1.706-4.019-1.717c-0.781-0.005-1.429-0.608-1.487-1.388
			s0.492-1.474,1.264-1.595c0.842-0.131,1.636-0.195,2.429-0.195c4.845,0,8.271,3.262,10.293,5.997
			c0.25,0.338,0.347,0.765,0.267,1.177c-1.119,5.771-6.107,10.427-6.319,10.622C83.003,71.209,82.638,71.344,82.271,71.344z
			 M84.252,58.11c0.698,1.866,0.802,4.027,0.656,6.007c0.668-1.126,1.262-2.394,1.607-3.723
			C85.889,59.611,85.132,58.807,84.252,58.11z"/>
	</g>
	<g>
		<path class="st0" d="M39.113,17.597c-0.271,0-0.543-0.073-0.782-0.22c-0.448-0.274-0.721-0.763-0.718-1.288
			c0.01-1.913,0.213-3.559,0.356-4.487c-0.358-0.284-0.942-0.62-1.705-0.62c-0.758,0-1.345,0.338-1.704,0.622
			c0.143,0.93,0.345,2.574,0.354,4.485c0.003,0.525-0.27,1.014-0.718,1.288c-0.448,0.275-1.009,0.294-1.474,0.051
			c-7.506-3.901-10.536-7.606-9.005-11.014c0.805-1.788,2.414-3.314,4.782-4.538c4.863-2.511,10.667-2.509,15.526,0
			c2.369,1.223,3.979,2.75,4.782,4.538l0,0l0,0c1.531,3.406-1.498,7.112-9.005,11.014C39.588,17.541,39.351,17.597,39.113,17.597z
			 M36.264,2.992c-2.193,0-4.387,0.517-6.386,1.55c-1.752,0.904-2.903,1.948-3.423,3.103c-0.576,1.282,1.508,3.511,5.315,5.813
			c-0.125-1.236-0.287-2.05-0.289-2.062c-0.084-0.416,0.012-0.85,0.264-1.19c0.611-0.826,2.252-2.224,4.52-2.224
			s3.908,1.397,4.52,2.224c0.252,0.342,0.348,0.775,0.264,1.191c-0.002,0.013-0.164,0.825-0.29,2.062
			c3.809-2.303,5.893-4.531,5.315-5.813l0,0c-0.519-1.154-1.67-2.198-3.422-3.103C40.651,3.509,38.458,2.992,36.264,2.992z"/>
	</g>
	<g>
		<path class="st4" d="M32.259,24.566c-0.307,0-0.616-0.094-0.883-0.289c-0.668-0.487-0.815-1.422-0.33-2.091
			c0.241-0.332,2.437-3.241,5.219-3.241c2.714,0,4.781,2.339,5.008,2.605c0.537,0.631,0.46,1.577-0.171,2.114
			c-0.632,0.538-1.577,0.459-2.114-0.171c-0.37-0.428-1.589-1.549-2.723-1.549c-0.995,0-2.312,1.353-2.794,2.008
			C33.177,24.354,32.721,24.566,32.259,24.566z"/>
	</g>
	<g>
		<path class="st0" d="M36.265,32.909c-0.439,0-0.857-0.193-1.143-0.528c-0.939-1.104-5.551-6.797-4.118-10.411
			c1.725-4.352,0.49-10.509,0.478-10.57c-0.085-0.418,0.011-0.852,0.264-1.194c0.611-0.826,2.252-2.224,4.52-2.224
			s3.908,1.397,4.52,2.224c0.253,0.342,0.349,0.776,0.264,1.193c-0.013,0.062-1.24,6.237,0.477,10.571
			c1.433,3.614-3.178,9.307-4.117,10.411C37.122,32.716,36.705,32.909,36.265,32.909z M34.562,11.603
			c0.312,1.997,0.895,7.274-0.769,11.473c-0.439,1.108,0.943,3.751,2.471,5.889c1.526-2.14,2.909-4.784,2.472-5.889l0,0
			c-1.663-4.199-1.078-9.479-0.768-11.475c-0.358-0.284-0.941-0.619-1.703-0.619C35.508,10.981,34.922,11.318,34.562,11.603z"/>
	</g>
	<g>
		<path class="st4" d="M90.085,64.773c-0.056,0-0.112-0.003-0.17-0.01c-0.53-0.061-0.988-0.397-1.203-0.886
			c-0.033-0.075-3.502-7.728-9.665-7.728c-3.692,0-6.118,1.452-9.188,3.29c-1.377,0.824-2.802,1.677-4.484,2.485
			c-0.207,0.101-0.425,0.162-0.666,0.148C51.82,61.931,44.154,46.086,43.834,45.412c-0.318-0.673-0.097-1.478,0.522-1.892
			c0.623-0.411,1.45-0.308,1.946,0.243c0.31,0.338,7.762,8.282,19.121,2.332c0.664-0.346,1.479-0.153,1.914,0.454
			c0.628,0.864,1.959,2.094,2.849,2.079c0.502-0.027,0.94-0.613,1.221-1.101c0.29-0.504,0.837-0.785,1.423-0.748
			c0.623,0.049,1.738-0.095,2.126-0.54c0.19-0.219,0.228-0.608,0.109-1.157c-0.663-3.098-2.619-5.087-2.749-5.216
			c-0.47-0.443-0.61-1.15-0.319-1.748c0.329-0.676,1.105-1.002,1.818-0.769c6.554,2.159,11.855,5.022,15.758,8.51
			c5.173,4.621,5.926,12.664,1.714,18.31C91.002,64.553,90.556,64.773,90.085,64.773z M79.047,53.15
			c5.564,0,9.246,4.277,11.07,7.102c1.802-4.132,0.87-9.105-2.543-12.154c0-0.001,0-0.001-0.001-0.001
			c-3.115-2.784-6.963-4.843-10.443-6.308c0.353,0.796,0.66,1.688,0.869,2.665c0.408,1.905-0.205,3.101-0.791,3.769
			c-1.045,1.189-2.665,1.488-3.691,1.55c-1.078,1.432-2.295,1.808-3.18,1.853c-1.963,0.077-3.64-1.312-4.606-2.335
			c-6.44,2.993-11.837,2.135-15.631,0.517c3.092,4.122,8.055,9.017,14.296,9.259c1.427-0.705,2.694-1.464,3.922-2.199
			C71.51,54.955,74.525,53.15,79.047,53.15z"/>
	</g>
	<g>
		<path class="st0" d="M48.104,65.695c-8.027,0-13.714-2.697-17.438-5.472c-7.397-5.511-10.767-13.929-10.767-19.419
			c0-0.828,0.672-1.5,1.5-1.5s1.5,0.672,1.5,1.5c0,3.977,2.546,11.789,9.559,17.013c7.034,5.238,16.553,6.275,27.533,2.992
			c3.478-1.039,5.945-2.516,8.331-3.944c3.19-1.91,6.204-3.715,10.725-3.715c5.563,0,9.245,4.277,11.069,7.102
			c1.803-4.133,0.87-9.106-2.542-12.155c-8.56-7.646-22.589-9.927-22.729-9.949c-0.123-0.023-5.44-1.096-11.287-0.385
			c-7.518,0.915-12.361,4.226-14.397,9.841c-0.274,0.757-1.102,1.164-1.867,0.917c-0.339-0.108-8.299-2.725-8.299-8.605
			c0-3.821,1.863-6.241,5.136-8.783c-0.98-1.308-2.34-3.353-3.004-5.387c-2.483,1.915-5.083,4.419-6.652,7.754
			c-0.354,0.75-1.248,1.069-1.996,0.719c-0.75-0.353-1.071-1.246-0.719-1.996c2.304-4.896,6.367-8.123,9.649-10.388
			c0.492-0.34,1.14-0.356,1.646-0.038c0.507,0.316,0.778,0.903,0.689,1.495c-0.248,1.655,1.994,5.177,3.665,7.147
			c0.077,0.092,0.145,0.192,0.198,0.3c0.329,0.659,0.133,1.461-0.466,1.891c-3.896,2.8-5.146,4.57-5.146,7.286
			c0,2.604,3.118,4.403,4.937,5.231c2.712-5.84,8.326-9.414,16.341-10.371c6.328-0.756,11.879,0.374,12.111,0.422
			C65.922,35.28,80.36,37.63,89.572,45.86c5.173,4.62,5.927,12.663,1.715,18.31c-0.319,0.428-0.834,0.661-1.371,0.594
			c-0.53-0.061-0.989-0.397-1.204-0.886c-0.033-0.075-3.503-7.728-9.665-7.728c-3.691,0-6.115,1.451-9.184,3.289
			c-2.426,1.452-5.175,3.098-9.013,4.245C56.071,65.112,51.835,65.695,48.104,65.695z"/>
	</g>
	<g>
		<path class="st0" d="M36.266,32.911c-0.12,0-0.24-0.015-0.359-0.044c-0.427-0.105-0.786-0.393-0.982-0.785
			c-0.269-0.537-0.191-1.186,0.197-1.644c1.866-2.2,4.161-5.983,3.614-7.363c-0.541-1.367-0.891-2.983-1.039-4.804
			c-0.057-0.693-0.083-1.407-0.079-2.184c0.003-0.557,0.313-1.067,0.809-1.324c5.26-2.733,8.333-5.595,7.647-7.119
			c-0.324-0.723-0.032-1.572,0.668-1.942c0.699-0.368,1.566-0.131,1.98,0.545c8.179,13.386-2.898,20.629-8.85,24.521
			c-1.057,0.691-1.95,1.3-2.73,1.861C36.884,32.814,36.577,32.911,36.266,32.911z M40.629,16.991
			c0.011,0.356,0.03,0.699,0.058,1.036c0.124,1.525,0.406,2.852,0.838,3.943c0.496,1.251,0.268,2.751-0.282,4.224
			c5.265-3.832,8.996-8.16,6.685-14.751C46.572,13.236,44.137,15.09,40.629,16.991z"/>
	</g>
	<g>
		<path class="st0" d="M91.498,52.524c-0.163,0-0.327-0.026-0.484-0.08c-0.397-0.136-0.72-0.432-0.889-0.815
			c-0.603-1.369-1.461-2.558-2.552-3.532l0,0c-4.475-3.999-10.462-6.502-14.696-7.896c-0.778-0.257-1.206-1.09-0.961-1.872
			c0.245-0.781,1.069-1.224,1.858-0.99c0.203,0.061,20.496,6.007,32.578,3.981c0.728-0.117,1.427,0.298,1.666,0.99
			s-0.058,1.456-0.7,1.807l-15.103,8.226C91.993,52.463,91.746,52.524,91.498,52.524z M89.573,45.86
			c1.011,0.903,1.866,1.945,2.556,3.112l7.781-4.238c-4.517-0.06-9.328-0.678-13.621-1.438C87.475,44.108,88.57,44.964,89.573,45.86
			L89.573,45.86z"/>
	</g>
	<g>
		<path class="st0" d="M53.806,128c-0.322,0-0.641-0.104-0.904-0.303c-0.018-0.014-2.312-1.689-5.823-2.074
			c-0.568-0.062-1.053-0.442-1.247-0.98c-0.195-0.537-0.067-1.139,0.329-1.551c0.017-0.018,1.849-1.955,2.489-4.219
			c0.195-0.692,0.859-1.149,1.57-1.086c3.105,0.263,6.373,0.163,7.361-0.203c0.383-1.85,1.141-10.512,2.205-29.912
			c0.029-0.532,0.339-1.009,0.813-1.253c1.35-0.692,2.638-1.322,3.776-1.865c0.465-0.223,1.012-0.188,1.446,0.086
			c0.436,0.275,0.699,0.755,0.699,1.27c-0.003,4.152-0.021,12.208-0.099,19.515c-0.009,0.823-0.679,1.484-1.5,1.484
			c-0.005,0-0.011,0-0.016,0c-0.829-0.009-1.493-0.688-1.484-1.516c0.065-6.068,0.088-12.655,0.096-17.086
			c-0.258,0.128-0.52,0.259-0.784,0.393c-1.605,29.028-2.25,30.039-2.599,30.585c-0.879,1.383-3.908,1.914-9.011,1.579
			c-0.351,0.842-0.785,1.608-1.207,2.253c1.93,0.521,3.365,1.281,4.141,1.755c4.392-1.267,8.547-3.19,8.907-4.156
			c0.043-0.185,0.203-1.302,0.335-7.363c0.019-0.817,0.687-1.468,1.499-1.468c0.012,0,0.022,0,0.033,0
			c0.829,0.019,1.485,0.704,1.468,1.532c-0.151,6.917-0.344,7.696-0.426,8.029c-0.264,1.072-1.931,3.854-11.676,6.502
			C54.069,127.982,53.938,128,53.806,128z M57.513,117.856L57.513,117.856L57.513,117.856z"/>
	</g>
	<g>
		<path class="st0" d="M46.084,110.671c-0.496,0-0.975-0.246-1.258-0.682c-0.097-0.148-1.948-3.023-2.896-6.633l-3.429,2.938
			c-0.488,0.419-1.187,0.48-1.739,0.152c-0.553-0.327-0.836-0.97-0.705-1.598c0.075-0.355,1.863-8.744,5.638-12.129
			c2.47-2.216,11.777-7.426,19.149-11.406c0.997-0.538,1.835-0.986,2.438-1.308l-4.317-17.397c-0.192-0.777,0.259-1.569,1.026-1.799
			c1.385-0.413,2.721-0.933,4.084-1.588c0.418-0.2,0.906-0.195,1.318,0.01c0.415,0.207,0.711,0.594,0.802,1.048l4.684,23.336
			c0.14,0.696-0.229,1.396-0.882,1.675c-5.117,2.182-18.86,8.751-20.987,12.887c-2.57,5-1.468,10.64-1.457,10.696
			c0.144,0.705-0.235,1.413-0.901,1.687C46.467,110.635,46.273,110.671,46.084,110.671z M42.936,99.021
			c0.189,0,0.381,0.036,0.562,0.109c0.52,0.21,0.879,0.692,0.931,1.251c0.047,0.496,0.126,0.99,0.229,1.477
			c0.296-1.624,0.814-3.36,1.685-5.052c2.684-5.22,16.942-11.837,21.357-13.788l-4.077-20.312c-0.468,0.191-0.937,0.37-1.409,0.536
			l4.264,17.178c0.166,0.669-0.146,1.365-0.755,1.688c-0.003,0.002-1.382,0.73-3.451,1.848C52.198,89.392,45.43,93.4,43.698,94.953
			c-1.36,1.22-2.488,3.549-3.311,5.775l1.572-1.347C42.236,99.145,42.584,99.021,42.936,99.021z"/>
	</g>
	<g>
		<path class="st0" d="M61.558,84.134c-0.274,0-0.548-0.075-0.789-0.224c-0.385-0.239-0.639-0.636-0.697-1.077l-6.089-18.896
			c-0.132-0.409-0.082-0.855,0.138-1.226s0.587-0.628,1.01-0.708c1.582-0.301,3.218-0.702,4.861-1.194
			c0.392-0.117,0.816-0.069,1.173,0.135c0.356,0.203,0.614,0.543,0.713,0.941l4.6,18.533c0.166,0.669-0.146,1.365-0.755,1.688
			c-0.003,0.002-1.382,0.73-3.451,1.848C62.047,84.074,61.803,84.134,61.558,84.134z M57.351,64.604l5.104,15.844
			c0.311-0.166,0.588-0.314,0.828-0.442l-3.943-15.893C58.672,64.292,58.008,64.456,57.351,64.604z"/>
	</g>
</g>
</svg>
