<?xml version="1.0" encoding="utf-8"?>
<!-- Generator: Adobe Illustrator 22.0.0, SVG Export Plug-In . SVG Version: 6.00 Build 0)  -->
<svg version="1.1" id="Layer_1" xmlns="http://www.w3.org/2000/svg" xmlns:xlink="http://www.w3.org/1999/xlink" x="0px" y="0px"
	 viewBox="0 0 128 128" style="enable-background:new 0 0 128 128;" xml:space="preserve">
<style type="text/css">
	.st0{fill:#746887;}
	.st1{fill:#FFCFB8;}
	.st2{fill:#E6B9A0;}
	.st3{fill:#D29997;}
	.st4{fill:#F98770;}
	.st5{fill:#DCA98B;}
	.st6{fill:#FFDDCF;}
	.st7{fill:#E8E8E8;}
	.st8{fill:#FFBF9E;}
	.st9{fill:#B0BACC;}
	.st10{fill:#9BA7BC;}
	.st11{fill:#B6B4ED;}
	.st12{fill:#FFBC99;}
	.st13{fill:#F8F8F8;}
	.st14{fill:#B2A7BF;}
	.st15{fill:#9B9B9B;}
	.st16{fill:#968AA0;}
	.st17{fill:#C6BBD3;}
	.st18{fill:#D8D8D8;}
	.st19{fill:#D29976;}
	.st20{fill:#FFA77B;}
	.st21{fill:#CCD3DD;}
	.st22{fill-rule:evenodd;clip-rule:evenodd;fill:#F8F8F8;}
	.st23{fill-rule:evenodd;clip-rule:evenodd;fill:#9B9B9B;}
	.st24{fill-rule:evenodd;clip-rule:evenodd;fill:#777777;}
	.st25{fill:#91DEF5;}
	.st26{fill:#B0E7F8;}
	.st27{fill-rule:evenodd;clip-rule:evenodd;fill:#DCA98B;}
	.st28{fill-rule:evenodd;clip-rule:evenodd;fill:#D29997;}
	.st29{fill-rule:evenodd;clip-rule:evenodd;fill:#FFCBBE;}
	.st30{fill-rule:evenodd;clip-rule:evenodd;fill:#E6B9A0;}
	.st31{fill-rule:evenodd;clip-rule:evenodd;fill:#746887;}
	.st32{fill-rule:evenodd;clip-rule:evenodd;fill:#FFBC99;}
	.st33{fill-rule:evenodd;clip-rule:evenodd;fill:#FFA77B;}
	.st34{fill-rule:evenodd;clip-rule:evenodd;fill:#FFCFB8;}
	.st35{fill-rule:evenodd;clip-rule:evenodd;fill:#E8E8E8;}
	.st36{fill-rule:evenodd;clip-rule:evenodd;fill:#CCD3DD;}
	.st37{fill:#E6B9C1;}
	.st38{fill:#FFCBBE;}
	.st39{fill-rule:evenodd;clip-rule:evenodd;fill:#F98770;}
	.st40{fill-rule:evenodd;clip-rule:evenodd;fill:#F2BB88;}
	.st41{fill:#F2D1A5;}
	.st42{fill-rule:evenodd;clip-rule:evenodd;fill:#F2D1A5;}
	.st43{fill:#F2BB88;}
	.st44{fill-rule:evenodd;clip-rule:evenodd;fill:#9BA7BC;}
	.st45{fill-rule:evenodd;clip-rule:evenodd;fill:#B0BACC;}
	.st46{fill-rule:evenodd;clip-rule:evenodd;fill:#FFFFFF;}
	.st47{fill-rule:evenodd;clip-rule:evenodd;fill:#FFDDCF;}
	.st48{fill-rule:evenodd;clip-rule:evenodd;fill:#B0E7F8;}
	.st49{fill-rule:evenodd;clip-rule:evenodd;fill:#968AA0;}
	.st50{fill:#9D9BE6;}
	.st51{fill:#CFCEF3;}
	.st52{fill-rule:evenodd;clip-rule:evenodd;fill:#D8D8D8;}
	.st53{fill-rule:evenodd;clip-rule:evenodd;fill:#B6B4ED;}
	.st54{fill-rule:evenodd;clip-rule:evenodd;fill:#FFD4BE;}
</style>
<g>
	<g>
		<path class="st22" d="M92.501,19.505L92.501,19.505c-18.392,0-32.938,15.572-31.687,33.921l0.078,1.146
			c0.372,5.45,3.864,10.193,8.959,12.165l9.956,4.951c7.398,3.68,16.061,3.828,23.582,0.404l11.763-5.356
			c0.835-0.323,1.608-0.77,2.35-1.232c3.787-2.362,6.298-6.375,6.609-10.933l0.078-1.146
			C125.439,35.078,110.892,19.505,92.501,19.505z"/>
	</g>
	<g>
		<path class="st23" d="M103.391,72.095c-7.52,3.42-16.19,3.27-23.58-0.41l-9.96-4.95c-5.09-1.97-8.59-6.71-8.96-12.16l-0.08-1.15
			c-1.25-18.35,13.3-33.92,31.69-33.92c3.34,0,6.55,0.51,9.57,1.47l0.09,0.02c-5.02-3.99-11.21-7.49-18.66-7.49h-2
			c-2.45-0.05-4.93,0.08-7.4,0.34c-0.3,0.17-0.6,0.34-0.91,0.52c-4.44,2.66-9.02,6.88-12.69,12.14c-3.08,4.42-5.5,9.58-6.5,15.72
			c-0.07,0.41-0.13,0.82-0.18,1.24c-0.06,0.45-0.11,0.9-0.15,1.35c-0.11,1.2-0.17,2.43-0.17,3.69c0,24,13,31,16,43l4,22h13
			l4.82-19.51c0.42-1.9,2.23-3.49,4.18-3.49c13.85,0,21.83-14.68,21.99-24.67l0.01-0.33c-0.71,0.43-1.56,0.93-2.35,1.23
			L103.391,72.095z"/>
	</g>
	<g>
		<path class="st24" d="M21.501,114.505h11l14-23h-11.78C29.131,102.365,21.501,114.505,21.501,114.505z"/>
	</g>
	<g>
		<path class="st24" d="M95.501,90.505c2.33,0,4.35,1.63,4.85,3.91l4.15,19.09h13v-48l-0.01,0.33
			C117.331,75.825,109.351,90.505,95.501,90.505z"/>
	</g>
	<g>
		<path class="st15" d="M95.501,54.505h-6c-0.552,0-1,0.448-1,1c0,2.209,1.791,4,4,4s4-1.791,4-4
			C96.501,54.953,96.053,54.505,95.501,54.505z"/>
	</g>
	<g>
		<path class="st15" d="M77.501,39.505c-6,0-10,7-10,13c0,4,3,5,6,5s5-2,7-5c2.773-4.16,6-2,6-6
			C86.501,41.505,82.501,39.505,77.501,39.505z"/>
	</g>
	<g>
		<path class="st15" d="M107.501,39.505c-5,0-9,2-9,7c0,4,3.227,1.84,6,6c2,3,4,5,7,5s6-1,6-5
			C117.501,46.505,113.501,39.505,107.501,39.505z"/>
	</g>
	<g>
		<path class="st22" d="M117.501,22.505c-2.52,0-4.78,1.15-6.43,2.99v0.01c5.24,3.78,9.27,9.12,11.43,15.31c2.41-1.79,4-4.84,4-8.31
			C126.501,26.985,122.471,22.505,117.501,22.505z"/>
	</g>
	<g>
		<path class="st22" d="M67.501,22.505c-2.864,0-5.352,1.683-7,4c-1.212,1.704-2,3.661-2,6c0,3.47,1.59,6.52,4,8.31
			c2.16-6.19,6.19-11.53,11.43-15.31v-0.01C72.281,23.655,70.021,22.505,67.501,22.505z"/>
	</g>
	<g>
		<path class="st23" d="M18.501,29.505l-3.31,0.04c-8.49,6.83-13.58,17.65-13.69,32.96c-0.1,13.47,4,52,4,52h16c0,0,19-30.21,19-38
			c0-4-1-6-4-10C26.281,52.885,29.501,29.505,18.501,29.505z"/>
	</g>
	<g>
		<circle class="st0" cx="77.001" cy="48.005" r="2"/>
	</g>
	<g>
		<circle class="st0" cx="108.001" cy="47.005" r="2"/>
	</g>
	<g>
		<path class="st0" d="M69.501,93.005h-34.78c-0.523,0-1.008-0.272-1.28-0.719c-0.272-0.446-0.293-1.002-0.054-1.467
			c4.64-9.022,5.614-12.764,5.614-14.314c0-3.62-0.833-5.278-3.7-9.1c-4.72-6.291-6.643-14.395-8.34-21.545
			c-2.185-9.21-3.763-14.855-8.46-14.855l-3.292,0.04c-0.64-0.004-1.214-0.391-1.43-0.993c-0.216-0.602-0.027-1.275,0.472-1.676
			c6.583-5.292,15.167-8.38,25.515-9.177l1.788-0.14c2.142-0.164,4.277-0.513,6.349-1.039l12.703-3.19
			c4.863-1.23,9.226-2.041,13.337-2.477c0.701-0.072,1.369,0.356,1.586,1.034c0.217,0.677-0.071,1.414-0.689,1.764
			c-0.295,0.167-0.59,0.334-0.896,0.511c-4.481,2.685-8.824,6.844-12.213,11.702c-3.328,4.775-5.372,9.716-6.25,15.103
			c-0.068,0.397-0.124,0.783-0.171,1.177c-0.06,0.448-0.107,0.876-0.145,1.305c0,0.001,0,0.002,0,0.004
			c-0.108,1.186-0.164,2.381-0.164,3.553c0,15.02,5.205,23.131,9.797,30.287c2.587,4.032,5.031,7.84,6.158,12.349
			c0.112,0.448,0.012,0.923-0.273,1.287C70.399,92.792,69.963,93.005,69.501,93.005z M37.159,90.005h30.325
			c-1.149-3.264-3.056-6.235-5.21-9.593c-4.577-7.132-10.272-16.008-10.272-31.907c0-1.263,0.059-2.55,0.176-3.827
			c0.042-0.471,0.094-0.941,0.157-1.412c0.051-0.425,0.114-0.86,0.188-1.295c0.949-5.828,3.157-11.171,6.748-16.324
			c2.478-3.552,5.442-6.76,8.62-9.364c-2.084,0.392-4.26,0.876-6.552,1.456l-12.702,3.19c-2.234,0.567-4.541,0.944-6.851,1.121
			l-1.787,0.14c-7.861,0.605-14.61,2.591-20.13,5.917c6.191,0.956,7.972,8.46,10.012,17.06c1.629,6.865,3.476,14.646,7.821,20.438
			c3.174,4.231,4.3,6.514,4.3,10.9C42.001,79.012,40.414,83.44,37.159,90.005z M53.671,44.815h0.01H53.671z"/>
	</g>
	<g>
		<path class="st0" d="M69.56,93.246c-0.688,0-1.307-0.476-1.462-1.174l-0.027-0.107l1.431-0.458l1.455-0.364l0.069,0.277
			c0.18,0.809-0.329,1.61-1.138,1.79C69.777,93.234,69.667,93.246,69.56,93.246z"/>
	</g>
	<g>
		<path class="st0" d="M32.501,116.005h-11c-0.546,0-1.049-0.297-1.313-0.774c-0.264-0.478-0.248-1.062,0.043-1.524
			c0.076-0.121,7.661-12.212,13.156-22.888c0.257-0.5,0.771-0.813,1.333-0.813h11.78c0.542,0,1.042,0.292,1.308,0.765
			s0.255,1.052-0.026,1.515l-14,23C33.51,115.732,33.024,116.005,32.501,116.005z M24.191,113.005h7.467l12.174-20h-8.199
			C31.588,100.771,26.593,109.084,24.191,113.005z"/>
	</g>
	<g>
		<path class="st0" d="M69.501,93.005h-34.78c-0.523,0-1.008-0.272-1.28-0.719c-0.272-0.446-0.293-1.002-0.054-1.467
			c4.64-9.022,5.614-12.764,5.614-14.314c0-3.62-0.833-5.278-3.7-9.1c-4.72-6.291-6.643-14.395-8.34-21.545
			c-2.185-9.21-3.763-14.855-8.46-14.855l-3.292,0.04c-0.64-0.004-1.214-0.391-1.43-0.993c-0.216-0.602-0.027-1.275,0.472-1.676
			c6.583-5.292,15.167-8.38,25.515-9.177l1.788-0.14c2.142-0.164,4.277-0.513,6.349-1.039l12.703-3.19
			c4.863-1.23,9.226-2.041,13.337-2.477c0.701-0.072,1.369,0.356,1.586,1.034c0.217,0.677-0.071,1.414-0.689,1.764
			c-0.295,0.167-0.59,0.334-0.896,0.511c-4.481,2.685-8.824,6.844-12.213,11.702c-3.328,4.775-5.372,9.716-6.25,15.103
			c-0.068,0.397-0.124,0.783-0.171,1.177c-0.06,0.448-0.107,0.876-0.145,1.305c0,0.001,0,0.002,0,0.004
			c-0.108,1.186-0.164,2.381-0.164,3.553c0,15.02,5.205,23.131,9.797,30.287c2.587,4.032,5.031,7.84,6.158,12.349
			c0.112,0.448,0.012,0.923-0.273,1.287C70.399,92.792,69.963,93.005,69.501,93.005z M37.159,90.005h30.325
			c-1.149-3.264-3.056-6.235-5.21-9.593c-4.577-7.132-10.272-16.008-10.272-31.907c0-1.263,0.059-2.55,0.176-3.827
			c0.042-0.471,0.094-0.941,0.157-1.412c0.051-0.425,0.114-0.86,0.188-1.295c0.949-5.828,3.157-11.171,6.748-16.324
			c2.478-3.552,5.442-6.76,8.62-9.364c-2.084,0.392-4.26,0.876-6.552,1.456l-12.702,3.19c-2.234,0.567-4.541,0.944-6.851,1.121
			l-1.787,0.14c-7.861,0.605-14.61,2.591-20.13,5.917c6.191,0.956,7.972,8.46,10.012,17.06c1.629,6.865,3.476,14.646,7.821,20.438
			c3.174,4.231,4.3,6.514,4.3,10.9C42.001,79.012,40.414,83.44,37.159,90.005z M53.671,44.815h0.01H53.671z"/>
	</g>
	<g>
		<path class="st0" d="M117.501,115.005h-13c-0.706,0-1.316-0.492-1.466-1.181l-4.15-19.09c-0.346-1.58-1.77-2.729-3.384-2.729
			c-0.829,0-1.5-0.671-1.5-1.5s0.671-1.5,1.5-1.5c12.465,0,20.335-13.509,20.49-23.194l0.011-0.353
			c0.026-0.819,0.679-1.441,1.523-1.454c0.819,0.013,1.477,0.681,1.477,1.5v32.086c0,0.829-0.671,1.5-1.5,1.5s-1.5-0.671-1.5-1.5
			V77.655c-3.03,6.264-8.297,11.91-15.5,13.735c0.632,0.769,1.093,1.688,1.315,2.704l3.894,17.912h10.291v-6.498
			c0-0.829,0.671-1.5,1.5-1.5s1.5,0.671,1.5,1.5v7.998C119.001,114.334,118.33,115.005,117.501,115.005z"/>
	</g>
	<g>
		<path class="st0" d="M69.56,93.246c-0.688,0-1.307-0.476-1.462-1.174l-0.027-0.107l1.431-0.458l1.455-0.364l0.069,0.277
			c0.18,0.809-0.329,1.61-1.138,1.79C69.777,93.234,69.667,93.246,69.56,93.246z"/>
	</g>
	<g>
		<path class="st0" d="M92.017,76.072c-4.407,0-8.808-1.015-12.879-3.04l-9.895-4.922c-5.577-2.188-9.44-7.454-9.849-13.436
			l-0.078-1.146c-0.633-9.293,2.52-18.16,8.878-24.967c6.359-6.807,14.991-10.556,24.306-10.556s17.947,3.749,24.306,10.556
			c6.358,6.807,9.512,15.674,8.878,24.967l-0.078,1.146c-0.336,4.934-3.069,9.458-7.312,12.104
			c-0.736,0.458-1.621,0.978-2.603,1.358l-11.683,5.322l0,0C100.18,75.202,96.096,76.072,92.017,76.072z M92.501,21.005
			c-8.475,0-16.329,3.411-22.114,9.604c-5.785,6.193-8.654,14.26-8.077,22.715l0.078,1.146c0.331,4.849,3.473,9.115,8.004,10.868
			c0.043,0.017,0.085,0.035,0.126,0.056l9.955,4.952c7.026,3.495,15.151,3.634,22.292,0.382l11.763-5.356
			c0.831-0.324,1.562-0.756,2.179-1.14c3.427-2.137,5.634-5.787,5.905-9.762l0.078-1.146c0.577-8.455-2.292-16.522-8.077-22.715
			S100.976,21.005,92.501,21.005z M103.388,72.093h0.01H103.388z"/>
	</g>
	<g>
		<path class="st0" d="M92.501,61.005c-3.033,0-5.5-2.467-5.5-5.5c0-1.378,1.122-2.5,2.5-2.5h6c1.378,0,2.5,1.122,2.5,2.5
			C98.001,58.538,95.534,61.005,92.501,61.005z M90.051,56.005c0.232,1.14,1.242,2,2.45,2s2.217-0.86,2.45-2H90.051z"/>
	</g>
	<g>
		<path class="st0" d="M92.501,68.005c-0.829,0-1.5-0.671-1.5-1.5v-7c0-0.829,0.671-1.5,1.5-1.5s1.5,0.671,1.5,1.5v7
			C94.001,67.334,93.33,68.005,92.501,68.005z"/>
	</g>
	<g>
		<path class="st0" d="M92.501,68.005c-4.232,0-6.434-1.04-6.671-1.158c-0.741-0.371-1.041-1.271-0.671-2.013
			c0.369-0.737,1.265-1.038,2.001-0.676c0.057,0.027,1.856,0.847,5.34,0.847c3.523,0,5.324-0.839,5.341-0.848
			c0.744-0.355,1.639-0.046,2,0.692c0.361,0.739,0.065,1.629-0.67,1.997C98.935,66.965,96.733,68.005,92.501,68.005z"/>
	</g>
	<g>
		<path class="st4" d="M73.501,59.005c-4.767,0-7.5-2.369-7.5-6.5c0-6.858,4.723-14.5,11.5-14.5c6.575,0,10.5,3.178,10.5,8.5
			c0,3.146-1.814,3.888-3.138,4.43c-1.022,0.417-2.079,0.85-3.114,2.402C79.88,56.14,77.439,59.005,73.501,59.005z M77.501,41.005
			c-4.865,0-8.5,6.071-8.5,11.5c0,1.629,0.512,3.5,4.5,3.5c2.061,0,3.674-1.214,5.752-4.332c1.545-2.318,3.308-3.039,4.475-3.516
			c1.177-0.481,1.273-0.521,1.273-1.652C85.001,41.959,80.922,41.005,77.501,41.005z"/>
	</g>
	<g>
		<path class="st4" d="M111.501,59.005c-3.938,0-6.379-2.865-8.248-5.668c-1.035-1.553-2.092-1.985-3.114-2.402
			c-1.324-0.542-3.138-1.283-3.138-4.43c0-5.322,3.925-8.5,10.5-8.5c6.777,0,11.5,7.642,11.5,14.5
			C119.001,56.636,116.268,59.005,111.501,59.005z M107.501,41.005c-3.421,0-7.5,0.954-7.5,5.5c0,1.132,0.096,1.171,1.273,1.652
			c1.167,0.477,2.93,1.198,4.475,3.516c2.078,3.118,3.691,4.332,5.752,4.332c3.988,0,4.5-1.871,4.5-3.5
			C116.001,47.077,112.366,41.005,107.501,41.005z"/>
	</g>
	<g>
		<path class="st0" d="M122.501,42.315c-0.147,0-0.296-0.022-0.44-0.066c-0.456-0.14-0.818-0.489-0.976-0.94
			c-2.054-5.885-5.82-10.93-10.892-14.587c-0.391-0.282-0.623-0.735-0.623-1.217c0-0.37,0.137-0.736,0.383-1.012
			c2.017-2.25,4.697-3.488,7.547-3.488c5.79,0,10.5,5.159,10.5,11.5c0,3.815-1.722,7.372-4.605,9.514
			C123.134,42.214,122.819,42.315,122.501,42.315z M113.396,25.393c4.246,3.423,7.552,7.787,9.689,12.782
			c1.222-1.54,1.916-3.546,1.916-5.669c0-4.687-3.364-8.5-7.5-8.5C116.032,24.005,114.616,24.49,113.396,25.393z"/>
	</g>
	<g>
		<path class="st0" d="M62.501,42.315c-0.318,0-0.633-0.102-0.895-0.296c-2.884-2.142-4.605-5.699-4.605-9.514
			c0-2.469,0.745-4.716,2.278-6.87c2.094-2.943,5.09-4.63,8.222-4.63c2.849,0,5.529,1.239,7.546,3.488
			c0.247,0.275,0.383,0.632,0.383,1.001v0.01c0,0.482-0.231,0.935-0.623,1.216c-5.072,3.659-8.838,8.703-10.891,14.588
			c-0.157,0.451-0.52,0.799-0.976,0.939C62.797,42.293,62.648,42.315,62.501,42.315z M67.501,24.005
			c-2.148,0-4.254,1.228-5.778,3.37c-1.159,1.628-1.722,3.307-1.722,5.13c0,2.124,0.694,4.13,1.916,5.669
			c2.137-4.996,5.443-9.358,9.689-12.782C70.386,24.49,68.97,24.005,67.501,24.005z"/>
	</g>
	<g>
		<path class="st0" d="M21.501,116.005h-16c-0.767,0-1.411-0.579-1.492-1.341c-0.167-1.572-4.095-38.653-4.008-52.106
			c0.005-0.825,0.676-1.49,1.5-1.49c0.003,0,0.006,0,0.01,0c0.828,0.005,1.496,0.681,1.49,1.51
			c-0.077,11.864,3.134,43.518,3.851,50.428H20.67c5.501-8.819,18.331-30.628,18.331-36.5c0-3.62-0.833-5.278-3.7-9.1
			c-4.72-6.291-6.643-14.395-8.34-21.545c-2.185-9.21-3.763-14.855-8.46-14.855l-2.767,0.034
			C9.025,36.613,4.921,44.616,3.533,54.834c-0.111,0.821-0.86,1.399-1.688,1.284c-0.821-0.111-1.396-0.867-1.284-1.688
			C2.083,43.226,6.688,34.46,14.25,28.376c0.262-0.21,0.586-0.327,0.922-0.331l3.31-0.04c7.325,0,9.212,7.953,11.397,17.162
			c1.629,6.865,3.476,14.646,7.821,20.438c3.174,4.231,4.3,6.514,4.3,10.9c0,7.992-17.262,35.669-19.23,38.799
			C22.496,115.741,22.017,116.005,21.501,116.005z"/>
	</g>
	<g>
		<path class="st0" d="M86.501,115.005h-13c-0.725,0-1.346-0.519-1.476-1.231l-4-22c-0.987-3.936-3.195-7.377-5.752-11.361
			c-4.577-7.132-10.272-16.008-10.272-31.907c0-1.263,0.059-2.55,0.176-3.827c0.042-0.468,0.094-0.94,0.157-1.412
			c0.051-0.425,0.114-0.86,0.188-1.295c0.949-5.828,3.157-11.171,6.748-16.324c3.626-5.198,8.296-9.662,13.149-12.569
			c0.333-0.193,0.637-0.366,0.942-0.539c0.179-0.101,0.377-0.165,0.582-0.186c2.657-0.279,5.208-0.399,7.587-0.348l1.969,0
			c6.568,0,12.977,2.557,19.593,7.815c0.547,0.435,0.722,1.19,0.42,1.821c-0.301,0.63-0.998,0.969-1.68,0.817
			c-0.043-0.009-0.176-0.041-0.218-0.054c-2.921-0.929-5.988-1.399-9.115-1.399c-8.476,0-16.33,3.411-22.115,9.604
			c-5.785,6.192-8.654,14.259-8.078,22.713l0.08,1.148c0.329,4.846,3.471,9.11,8.005,10.865c0.043,0.017,0.085,0.035,0.126,0.056
			l9.96,4.95c7.021,3.497,15.146,3.637,22.292,0.388l11.759-5.359c0.76-0.292,1.528-0.745,2.195-1.148
			c0.471-0.285,1.059-0.289,1.534-0.012c0.475,0.277,0.759,0.792,0.743,1.341l-0.01,0.33c-0.17,10.664-8.634,26.124-23.489,26.124
			c-1.195,0-2.438,1.06-2.715,2.313l-4.829,19.546C87.792,114.535,87.191,115.005,86.501,115.005z M74.752,112.005h10.574
			l4.538-18.37c0.57-2.58,3.049-4.63,5.636-4.63c11.516,0,19.109-11.53,20.322-20.922c-0.046,0.019-0.093,0.037-0.139,0.054
			l-11.67,5.322c-7.974,3.626-17.04,3.468-24.871-0.432l-9.899-4.919c-5.581-2.189-9.444-7.454-9.849-13.432l-0.08-1.147
			c-0.633-9.295,2.52-18.161,8.879-24.968c6.359-6.807,14.992-10.556,24.308-10.556c0.878,0,1.752,0.034,2.621,0.101
			c-3.909-2.08-7.751-3.101-11.621-3.101h-2c-2.191-0.043-4.512,0.056-6.934,0.3c-0.205,0.116-0.411,0.234-0.623,0.357
			c-4.481,2.685-8.824,6.844-12.213,11.702c-3.328,4.775-5.372,9.716-6.25,15.103c-0.068,0.397-0.124,0.783-0.171,1.177
			c-0.06,0.448-0.107,0.876-0.145,1.305c-0.109,1.19-0.164,2.385-0.164,3.557c0,15.02,5.205,23.131,9.797,30.287
			c2.587,4.032,5.031,7.84,6.158,12.349L74.752,112.005z"/>
	</g>
</g>
</svg>
