<?xml version="1.0" encoding="utf-8"?>
<!-- Generator: Adobe Illustrator 22.0.0, SVG Export Plug-In . SVG Version: 6.00 Build 0)  -->
<svg version="1.1" id="Layer_1" xmlns="http://www.w3.org/2000/svg" xmlns:xlink="http://www.w3.org/1999/xlink" x="0px" y="0px"
	 viewBox="0 0 128 128" style="enable-background:new 0 0 128 128;" xml:space="preserve">
<style type="text/css">
	.st0{fill:#746887;}
	.st1{fill:#FFCFB8;}
	.st2{fill:#E6B9A0;}
	.st3{fill:#D29997;}
	.st4{fill:#F98770;}
	.st5{fill:#DCA98B;}
	.st6{fill:#FFDDCF;}
	.st7{fill:#E8E8E8;}
	.st8{fill:#FFBF9E;}
	.st9{fill:#B0BACC;}
	.st10{fill:#9BA7BC;}
	.st11{fill:#B6B4ED;}
	.st12{fill:#FFBC99;}
	.st13{fill:#F8F8F8;}
	.st14{fill:#B2A7BF;}
	.st15{fill:#9B9B9B;}
	.st16{fill:#968AA0;}
	.st17{fill:#C6BBD3;}
	.st18{fill:#D8D8D8;}
	.st19{fill:#D29976;}
	.st20{fill:#FFA77B;}
	.st21{fill:#CCD3DD;}
	.st22{fill-rule:evenodd;clip-rule:evenodd;fill:#F8F8F8;}
	.st23{fill-rule:evenodd;clip-rule:evenodd;fill:#9B9B9B;}
	.st24{fill-rule:evenodd;clip-rule:evenodd;fill:#777777;}
	.st25{fill:#91DEF5;}
	.st26{fill:#B0E7F8;}
	.st27{fill-rule:evenodd;clip-rule:evenodd;fill:#DCA98B;}
	.st28{fill-rule:evenodd;clip-rule:evenodd;fill:#D29997;}
	.st29{fill-rule:evenodd;clip-rule:evenodd;fill:#FFCBBE;}
	.st30{fill-rule:evenodd;clip-rule:evenodd;fill:#E6B9A0;}
	.st31{fill-rule:evenodd;clip-rule:evenodd;fill:#746887;}
	.st32{fill-rule:evenodd;clip-rule:evenodd;fill:#FFBC99;}
	.st33{fill-rule:evenodd;clip-rule:evenodd;fill:#FFA77B;}
	.st34{fill-rule:evenodd;clip-rule:evenodd;fill:#FFCFB8;}
	.st35{fill-rule:evenodd;clip-rule:evenodd;fill:#E8E8E8;}
	.st36{fill-rule:evenodd;clip-rule:evenodd;fill:#CCD3DD;}
	.st37{fill:#E6B9C1;}
	.st38{fill:#FFCBBE;}
	.st39{fill-rule:evenodd;clip-rule:evenodd;fill:#F98770;}
	.st40{fill-rule:evenodd;clip-rule:evenodd;fill:#F2BB88;}
	.st41{fill:#F2D1A5;}
	.st42{fill-rule:evenodd;clip-rule:evenodd;fill:#F2D1A5;}
	.st43{fill:#F2BB88;}
	.st44{fill-rule:evenodd;clip-rule:evenodd;fill:#9BA7BC;}
	.st45{fill-rule:evenodd;clip-rule:evenodd;fill:#B0BACC;}
	.st46{fill-rule:evenodd;clip-rule:evenodd;fill:#FFFFFF;}
	.st47{fill-rule:evenodd;clip-rule:evenodd;fill:#FFDDCF;}
	.st48{fill-rule:evenodd;clip-rule:evenodd;fill:#B0E7F8;}
	.st49{fill-rule:evenodd;clip-rule:evenodd;fill:#968AA0;}
	.st50{fill:#9D9BE6;}
	.st51{fill:#CFCEF3;}
	.st52{fill-rule:evenodd;clip-rule:evenodd;fill:#D8D8D8;}
	.st53{fill-rule:evenodd;clip-rule:evenodd;fill:#B6B4ED;}
	.st54{fill-rule:evenodd;clip-rule:evenodd;fill:#FFD4BE;}
</style>
<g>
	<g>
		<path class="st25" d="M75.626,1.5h-23.25c-20.733,0-37.65,16.444-38.375,37c-0.016,0.457,0,0.914,0,1.375v0
			c0,10.839,8.786,22.625,19.625,22.625h60.75c10.839,0,19.625-11.786,19.625-22.625v0c0-0.464,0.016-0.915,0-1.375
			C113.271,17.948,96.356,1.5,75.626,1.5z"/>
	</g>
	<g>
		<path class="st26" d="M102.001,45.5c-5,0-8-7-13-7c-6,0-7,7-12,7s-8-7-13-7c-6,0-7,7-12,7s-8-7-13-7c-6,0-7,7-12,7s-8-7-13-7
			c-0.01,0.15-0.01,0.31-0.01,0.46c0,0.3,0.01,0.61,0.01,0.92c0,10.83,8.79,22.62,19.62,22.62h60.76c5.42,0,10.32-2.95,13.87-7.25
			s5.75-9.95,5.75-15.37c0-0.47,0.02-0.92,0-1.38C108.001,38.5,107.001,45.5,102.001,45.5z"/>
	</g>
	<g>
		<path class="st26" d="M18.297,79.545c-1.977,0.679-3.297,2.535-3.297,4.625c0,3.014,2.703,5.354,5.673,4.84
			c12.096-2.097,23.327-10.924,23.327-26.427l-10-0.083C34.001,72.789,23.737,77.677,18.297,79.545z"/>
	</g>
	<g>
		<path class="st26" d="M42.001,87.5c-6.897,9.483-9.334,21.196-9.875,33.216c-0.142,3.151,2.378,5.784,5.532,5.784
			c2.934,0,5.355-2.285,5.522-5.214c0.428-7.524,1.881-21.14,6.822-26.786c8.433-9.638,10.75-21,11-32h-11
			C50.001,71.5,50.001,76.5,42.001,87.5z"/>
	</g>
	<g>
		<path class="st26" d="M109.704,79.545c-5.44-1.868-15.703-6.756-15.703-17.045l-10,0.083c0,15.503,11.231,24.33,23.327,26.427
			c2.969,0.515,5.673-1.826,5.673-4.84C113.001,82.081,111.681,80.224,109.704,79.545z"/>
	</g>
	<g>
		<path class="st26" d="M78.001,62.5h-11c0.25,11,2.567,22.362,11,32c4.94,5.646,6.394,19.262,6.822,26.786
			c0.167,2.93,2.587,5.214,5.522,5.214c3.154,0,5.674-2.633,5.532-5.784c-0.541-12.02-2.979-23.733-9.875-33.216
			C78.001,76.5,78.001,71.5,78.001,62.5z"/>
	</g>
	<g>
		<path class="st4" d="M94.381,64H33.62c-5.541,0-10.878-2.768-15.027-7.794c-3.871-4.689-6.092-10.64-6.092-16.326l-0.011-0.92
			c0-0.185,0.001-0.382,0.015-0.567C12.562,37.608,13.214,37,14.001,37c3.063,0,5.414,2.057,7.487,3.871
			C23.328,42.48,25.064,44,27.001,44c1.646,0,2.708-1.056,4.303-2.78c1.739-1.88,3.905-4.22,7.697-4.22
			c3.063,0,5.414,2.057,7.487,3.871C48.328,42.48,50.064,44,52.001,44c1.646,0,2.708-1.056,4.303-2.78
			c1.739-1.88,3.905-4.22,7.697-4.22c3.063,0,5.414,2.057,7.487,3.871C73.328,42.48,75.064,44,77.001,44
			c1.646,0,2.708-1.056,4.303-2.78c1.739-1.88,3.905-4.22,7.697-4.22c3.063,0,5.414,2.057,7.487,3.871
			c1.84,1.609,3.576,3.129,5.513,3.129c1.646,0,2.708-1.056,4.303-2.78c1.739-1.88,3.905-4.22,7.697-4.22
			c0.804,0,1.465,0.633,1.499,1.437c0.014,0.334,0.01,0.663,0.005,0.997l-0.004,0.446c0,5.684-2.221,11.635-6.094,16.325
			C105.257,61.232,99.92,64,94.381,64z M15.506,40.294C15.725,49.965,23.56,61,33.62,61h60.761c4.628,0,9.143-2.381,12.714-6.705
			c3.31-4.01,5.316-9.251,5.403-14.086c-1.607,0.472-2.733,1.688-3.992,3.049c-1.623,1.754-3.463,3.742-6.505,3.742
			c-3.063,0-5.414-2.057-7.487-3.871C92.674,41.52,90.938,40,89.001,40c-2.481,0-3.878,1.51-5.495,3.258
			C81.883,45.012,80.043,47,77.001,47c-3.063,0-5.414-2.057-7.487-3.871C67.674,41.52,65.938,40,64.001,40
			c-2.481,0-3.878,1.51-5.495,3.258C56.883,45.012,55.043,47,52.001,47c-3.063,0-5.414-2.057-7.487-3.871
			C42.674,41.52,40.938,40,39.001,40c-2.481,0-3.878,1.51-5.495,3.258C31.883,45.012,30.043,47,27.001,47
			c-3.063,0-5.414-2.057-7.487-3.871C18.162,41.947,16.866,40.812,15.506,40.294z"/>
	</g>
	<g>
		<path class="st4" d="M29.999,21.996c-0.265,0-0.532-0.07-0.774-0.217c-0.705-0.428-0.935-1.343-0.51-2.051
			c0.133-0.221,3.351-5.454,12.677-9.599c0.758-0.337,1.643,0.004,1.98,0.761c0.336,0.757-0.005,1.644-0.762,1.98
			c-8.38,3.725-11.299,8.361-11.327,8.408C31,21.74,30.505,21.996,29.999,21.996z"/>
	</g>
	<g>
		<path class="st0" d="M94.376,64h-60.75c-5.546,0-10.885-2.768-15.034-7.793c-3.871-4.688-6.091-10.641-6.091-16.332l-0.004-0.442
			c-0.004-0.33-0.007-0.659,0.005-0.987c0.232-6.576,2.116-13.051,5.45-18.724c0.421-0.715,1.343-0.951,2.053-0.534
			c0.715,0.42,0.953,1.339,0.533,2.053c-3.081,5.245-4.823,11.231-5.038,17.312c-0.01,0.282-0.006,0.562-0.003,0.844l0.004,0.479
			C15.501,49.644,23.418,61,33.626,61h60.75c10.208,0,18.125-11.356,18.125-21.125l0.004-0.479c0.003-0.282,0.007-0.562-0.003-0.845
			C111.794,18.617,95.597,3,75.626,3h-23.25C41.982,3,32.011,7.429,25.018,15.152c-0.559,0.615-1.506,0.66-2.119,0.105
			c-0.614-0.556-0.661-1.504-0.105-2.119C30.354,4.789,41.137,0,52.376,0h23.25C97.22,0,114.734,16.888,115.5,38.447
			c0.012,0.331,0.008,0.656,0.004,0.983l-0.003,0.445c0,5.69-2.221,11.644-6.092,16.332C105.26,61.232,99.921,64,94.376,64z"/>
	</g>
	<g>
		<path class="st0" d="M19.857,90.581c-1.474,0-2.912-0.52-4.065-1.49c-1.456-1.226-2.291-3.019-2.291-4.92
			c0-2.73,1.731-5.159,4.309-6.043c5.487-1.884,14.691-6.42,14.691-15.627c0-0.4,0.16-0.783,0.443-1.065
			c0.284-0.282,0.667-0.468,1.069-0.435l10,0.083c0.823,0.007,1.487,0.676,1.487,1.5c0,17.453-13.236,25.94-24.571,27.905
			C20.573,90.55,20.214,90.581,19.857,90.581z M35.428,64.012c-0.475,4.92-3.531,12.449-16.644,16.952
			c-1.365,0.469-2.283,1.758-2.283,3.207c0,1.014,0.445,1.97,1.223,2.625c0.755,0.635,1.737,0.905,2.694,0.737
			c9.857-1.708,21.315-8.875,22.046-23.461L35.428,64.012z"/>
	</g>
	<g>
		<path class="st0" d="M37.657,128c-1.939,0-3.746-0.772-5.087-2.175c-1.341-1.402-2.031-3.24-1.943-5.176
			c0.647-14.389,3.971-25.521,10.161-34.031c7.713-10.605,7.713-15.121,7.713-24.118c0-0.829,0.672-1.5,1.5-1.5h11
			c0.403,0,0.79,0.163,1.072,0.452c0.282,0.289,0.437,0.679,0.428,1.083c-0.318,13.979-3.932,24.451-11.371,32.954
			c-3.386,3.87-5.738,13.304-6.453,25.883C44.466,125.088,41.383,128,37.657,128z M51.499,64
			c-0.024,8.171-0.467,13.632-8.285,24.382c-5.833,8.02-8.97,18.618-9.591,32.401c-0.05,1.11,0.347,2.164,1.115,2.968
			c0.77,0.805,1.807,1.248,2.919,1.248c2.136,0,3.903-1.669,4.023-3.799c0.442-7.777,1.965-21.715,7.191-27.688
			c6.68-7.634,10.06-17.042,10.58-29.512H51.499z"/>
	</g>
	<g>
		<path class="st0" d="M108.145,90.581c-0.356,0-0.716-0.03-1.072-0.092c-11.335-1.965-24.571-10.452-24.571-27.905
			c0-0.824,0.664-1.493,1.487-1.5l10-0.083c0.004,0,0.009,0,0.013,0c0.396,0,0.775,0.156,1.057,0.435
			c0.283,0.282,0.443,0.665,0.443,1.065c0,9.208,9.204,13.743,14.69,15.627c2.577,0.885,4.31,3.313,4.31,6.043
			c0,1.901-0.835,3.694-2.292,4.92C111.056,90.061,109.617,90.581,108.145,90.581z M85.538,64.071
			c0.73,14.587,12.188,21.753,22.046,23.461c0.955,0.166,1.939-0.103,2.693-0.737c0.777-0.654,1.224-1.611,1.224-2.625
			c0-1.449-0.918-2.737-2.284-3.207c-13.112-4.502-16.168-12.031-16.643-16.952L85.538,64.071z"/>
	</g>
	<g>
		<path class="st0" d="M90.344,128c-3.724,0-6.808-2.912-7.02-6.629c-0.715-12.581-3.066-22.014-6.452-25.883
			c-7.439-8.502-11.053-18.974-11.371-32.954c-0.009-0.404,0.146-0.794,0.428-1.083C66.211,61.163,66.598,61,67.001,61h11
			c0.828,0,1.5,0.671,1.5,1.5c0,8.997,0,13.512,7.713,24.118c3.76,5.17,6.408,11.148,8.099,18.275
			c0.19,0.806-0.308,1.615-1.114,1.806c-0.808,0.193-1.614-0.308-1.806-1.113c-1.596-6.733-4.083-12.361-7.604-17.203
			C76.97,77.632,76.527,72.171,76.503,64H68.55c0.521,12.471,3.9,21.879,10.58,29.512c5.226,5.972,6.748,19.911,7.19,27.688
			c0.121,2.13,1.889,3.799,4.023,3.799c1.112,0,2.149-0.443,2.919-1.248c0.769-0.804,1.165-1.858,1.115-2.968
			c-0.115-2.562-0.326-5.09-0.627-7.514c-0.103-0.822,0.481-1.571,1.304-1.673c0.82-0.099,1.571,0.482,1.673,1.304
			c0.311,2.501,0.528,5.108,0.646,7.749c0.088,1.936-0.603,3.774-1.943,5.176C94.09,127.228,92.283,128,90.344,128z"/>
	</g>
</g>
</svg>
