<?xml version="1.0" encoding="utf-8"?>
<!-- Generator: Adobe Illustrator 22.0.0, SVG Export Plug-In . SVG Version: 6.00 Build 0)  -->
<svg version="1.1" id="Layer_1" xmlns="http://www.w3.org/2000/svg" xmlns:xlink="http://www.w3.org/1999/xlink" x="0px" y="0px"
	 viewBox="0 0 128 128" style="enable-background:new 0 0 128 128;" xml:space="preserve">
<style type="text/css">
	.st0{fill:#746887;}
	.st1{fill:#FFCFB8;}
	.st2{fill:#E6B9A0;}
	.st3{fill:#D29997;}
	.st4{fill:#F98770;}
	.st5{fill:#DCA98B;}
	.st6{fill:#FFDDCF;}
	.st7{fill:#E8E8E8;}
	.st8{fill:#FFBF9E;}
	.st9{fill:#B0BACC;}
	.st10{fill:#9BA7BC;}
	.st11{fill:#B6B4ED;}
	.st12{fill:#FFBC99;}
	.st13{fill:#F8F8F8;}
	.st14{fill:#B2A7BF;}
	.st15{fill:#9B9B9B;}
	.st16{fill:#968AA0;}
	.st17{fill:#C6BBD3;}
	.st18{fill:#D8D8D8;}
	.st19{fill:#D29976;}
	.st20{fill:#FFA77B;}
	.st21{fill:#CCD3DD;}
	.st22{fill-rule:evenodd;clip-rule:evenodd;fill:#F8F8F8;}
	.st23{fill-rule:evenodd;clip-rule:evenodd;fill:#9B9B9B;}
	.st24{fill-rule:evenodd;clip-rule:evenodd;fill:#777777;}
	.st25{fill:#91DEF5;}
	.st26{fill:#B0E7F8;}
	.st27{fill-rule:evenodd;clip-rule:evenodd;fill:#DCA98B;}
	.st28{fill-rule:evenodd;clip-rule:evenodd;fill:#D29997;}
	.st29{fill-rule:evenodd;clip-rule:evenodd;fill:#FFCBBE;}
	.st30{fill-rule:evenodd;clip-rule:evenodd;fill:#E6B9A0;}
	.st31{fill-rule:evenodd;clip-rule:evenodd;fill:#746887;}
	.st32{fill-rule:evenodd;clip-rule:evenodd;fill:#FFBC99;}
	.st33{fill-rule:evenodd;clip-rule:evenodd;fill:#FFA77B;}
	.st34{fill-rule:evenodd;clip-rule:evenodd;fill:#FFCFB8;}
	.st35{fill-rule:evenodd;clip-rule:evenodd;fill:#E8E8E8;}
	.st36{fill-rule:evenodd;clip-rule:evenodd;fill:#CCD3DD;}
	.st37{fill:#E6B9C1;}
	.st38{fill:#FFCBBE;}
	.st39{fill-rule:evenodd;clip-rule:evenodd;fill:#F98770;}
	.st40{fill-rule:evenodd;clip-rule:evenodd;fill:#F2BB88;}
	.st41{fill:#F2D1A5;}
	.st42{fill-rule:evenodd;clip-rule:evenodd;fill:#F2D1A5;}
	.st43{fill:#F2BB88;}
	.st44{fill-rule:evenodd;clip-rule:evenodd;fill:#9BA7BC;}
	.st45{fill-rule:evenodd;clip-rule:evenodd;fill:#B0BACC;}
	.st46{fill-rule:evenodd;clip-rule:evenodd;fill:#FFFFFF;}
	.st47{fill-rule:evenodd;clip-rule:evenodd;fill:#FFDDCF;}
	.st48{fill-rule:evenodd;clip-rule:evenodd;fill:#B0E7F8;}
	.st49{fill-rule:evenodd;clip-rule:evenodd;fill:#968AA0;}
	.st50{fill:#9D9BE6;}
	.st51{fill:#CFCEF3;}
	.st52{fill-rule:evenodd;clip-rule:evenodd;fill:#D8D8D8;}
	.st53{fill-rule:evenodd;clip-rule:evenodd;fill:#B6B4ED;}
	.st54{fill-rule:evenodd;clip-rule:evenodd;fill:#FFD4BE;}
</style>
<g>
	<g>
		<path class="st7" d="M103.114,39.92c-6.271,0-8.411,3.833-8.411,3.833l8.411,53.373l8.411-53.373
			C111.525,43.753,109.384,39.92,103.114,39.92z"/>
	</g>
	<g>
		<path class="st16" d="M70.972,93.493c-4.669,0.339-9.669,0.437-14.898,0.458l10.017,15.912h0c4.735,0,8.167-4.512,6.903-9.076
			L70.972,93.493z"/>
	</g>
	<g>
		<path class="st14" d="M104.429,8.359c-4.548-0.249-8.828,0.804-12.506,2.819c-8.925,4.892-19.201,6.449-29.161,4.361
			c-3.374-0.707-6.871-1.08-10.455-1.08C24.247,14.459,1.5,37.207,1.5,65.266c0,22.618,14.784,27.413,35.212,28.423
			c-0.003,0-0.007,0-0.01,0l5.7,16.175c5.201,0,9.418-4.217,9.418-9.418v-6.488c0,0,0.296,0,0.486,0
			c22.241,0,41.131-0.413,48.015-14.551l-5.619-35.656c0,0,2.141-3.833,8.411-3.833c6.271,0,8.411,3.833,8.411,3.833l-1.627,10.327
			c10.209-3.093,17.473-12.962,16.518-24.383C125.455,18.198,115.951,8.991,104.429,8.359z"/>
	</g>
	<g>
		<path class="st17" d="M13.068,88.558c6.111,3.404,14.282,4.669,23.644,5.132c-0.003,0-0.007,0-0.01,0l5.7,16.175
			c5.201,0,9.418-4.217,9.418-9.418v-6.488c0,0,0.296,0,0.486,0c22.241,0,41.131-0.413,48.015-14.551l-3.99-25.32
			C96.331,97.12,13.089,54.98,13.068,88.558z"/>
	</g>
	<g>
		<path class="st0" d="M92.101,23.21c-2.347,0-4.25,1.903-4.25,4.25c0,2.347,1.903,4.25,4.25,4.25c2.347,0,4.25-1.902,4.25-4.25
			C96.35,25.113,94.448,23.21,92.101,23.21z"/>
	</g>
	<g>
		<circle class="st0" cx="114.126" cy="27.46" r="4.25"/>
	</g>
	<g>
		<path class="st4" d="M42.402,111.364c-0.637,0-1.203-0.401-1.415-1.002l-5.365-15.229c-10.635-0.602-17.845-2.235-23.283-5.266
			c-0.477-0.265-0.771-0.767-0.771-1.312c0.003-4.376,1.352-7.877,4.01-10.405c6.718-6.389,20.623-5.699,35.343-4.971
			c5.573,0.275,11.335,0.563,16.697,0.445c0.779-0.031,1.515,0.639,1.532,1.468c0.018,0.828-0.64,1.514-1.468,1.532
			c-5.475,0.117-11.286-0.171-16.91-0.449c-14.06-0.697-27.34-1.355-33.127,4.148c-1.894,1.801-2.896,4.21-3.055,7.345
			c5.104,2.613,11.999,4.014,22.149,4.519c0.111,0.003,0.229,0.019,0.337,0.046c0.561,0.14,0.973,0.582,1.097,1.115l5.267,14.947
			c3.877-0.51,6.88-3.836,6.88-7.851v-6.487c0-0.828,0.672-1.5,1.5-1.5h0.486c23.892,0,40.098-0.934,46.458-13.292L96.26,63.27
			c-2.884,7.283-9.756,11.51-20.78,12.844c-0.824,0.085-1.57-0.486-1.67-1.309c-0.1-0.823,0.486-1.57,1.309-1.67
			c13.634-1.649,19.713-7.523,19.713-19.047c0-0.783,0.603-1.435,1.383-1.495c0.792-0.086,1.478,0.488,1.599,1.262l3.99,25.32
			c0.048,0.304,0.002,0.614-0.133,0.89c-7.372,15.142-28.085,15.391-48.35,15.395v4.987
			C53.32,106.467,48.423,111.364,42.402,111.364z"/>
	</g>
	<g>
		<path class="st0" d="M42.402,111.364c-0.637,0-1.203-0.401-1.415-1.002l-5.365-15.229c-11.724-0.665-19.463-2.621-25.007-6.304
			C3.473,84.084,0,76.376,0,65.266C0,50.79,5.793,37.319,16.311,27.334c0.602-0.57,1.549-0.548,2.121,0.055
			c0.57,0.602,0.546,1.551-0.055,2.121C8.461,38.923,3,51.621,3,65.266c0,21.014,12.907,25.887,33.739,26.923
			c0.112,0.003,0.23,0.019,0.338,0.046c0.561,0.14,0.973,0.582,1.097,1.115l5.267,14.947c3.877-0.511,6.88-3.836,6.88-7.851v-6.487
			c0-0.828,0.672-1.5,1.5-1.5h0.486c23.892,0,40.098-0.934,46.458-13.292l-5.544-35.181c-0.053-0.332,0.008-0.672,0.172-0.965
			c0.104-0.188,2.651-4.602,9.721-4.602s9.616,4.414,9.721,4.602c0.164,0.293,0.225,0.633,0.172,0.965l-1.231,7.817
			c8.627-3.682,13.948-12.395,13.146-21.981c-0.902-10.789-9.747-19.372-20.574-19.966c-4.097-0.227-8.145,0.688-11.703,2.637
			c-9.226,5.058-19.949,6.663-30.189,4.514c-3.313-0.695-6.728-1.048-10.147-1.048c-10.042,0-19.711,3.009-27.962,8.701
			c-0.68,0.473-1.615,0.3-2.086-0.383c-0.471-0.682-0.3-1.616,0.383-2.086c8.754-6.04,19.012-9.232,29.665-9.232
			c3.626,0,7.248,0.374,10.764,1.112c9.535,1.996,19.53,0.505,28.132-4.209c4.049-2.219,8.648-3.254,13.309-3.002
			c12.313,0.676,22.373,10.439,23.4,22.712c0.989,11.841-6.239,22.509-17.579,25.942c-0.491,0.149-1.029,0.035-1.42-0.305
			c-0.389-0.339-0.577-0.854-0.496-1.364l1.532-9.729c-0.668-0.815-2.661-2.697-6.835-2.697c-4.164,0-6.158,1.873-6.835,2.699
			l5.524,35.056c0.048,0.304,0.002,0.614-0.133,0.89c-7.372,15.142-28.085,15.391-48.35,15.395v4.987
			C53.32,106.467,48.423,111.364,42.402,111.364z"/>
	</g>
	<g>
		<path class="st0" d="M103.113,98.626c-0.738,0-1.367-0.537-1.481-1.267l-6.639-42.128c-10.067-3.459-16.766-12.795-16.766-23.522
			c0-0.828,0.672-1.5,1.5-1.5s1.5,0.672,1.5,1.5c0,9.714,6.244,18.131,15.538,20.943c0.551,0.167,0.958,0.634,1.047,1.202
			l5.301,33.636l5.301-33.636c0.089-0.568,0.496-1.035,1.047-1.202C118.756,49.84,125,41.423,125,31.709
			c0-12.067-9.818-21.886-21.887-21.886c-0.828,0-1.5-0.672-1.5-1.5s0.672-1.5,1.5-1.5C116.836,6.823,128,17.987,128,31.709
			c0,10.728-6.698,20.064-16.767,23.522l-6.639,42.128C104.48,98.089,103.852,98.626,103.113,98.626z"/>
	</g>
	<g>
		<path class="st0" d="M103.113,98.626c-0.738,0-1.367-0.537-1.481-1.267l-8.411-53.373c-0.053-0.332,0.008-0.672,0.172-0.965
			c0.104-0.188,2.651-4.602,9.721-4.602s9.616,4.414,9.721,4.602c0.164,0.293,0.225,0.633,0.172,0.965l-8.411,53.373
			C104.48,98.089,103.852,98.626,103.113,98.626z M96.278,44.119l6.835,43.371l6.835-43.373c-0.668-0.815-2.661-2.697-6.835-2.697
			C98.949,41.42,96.955,43.293,96.278,44.119z"/>
	</g>
	<g>
		<path class="st0" d="M66.091,111.364c-0.516,0-0.995-0.265-1.27-0.701L54.805,94.751c-0.29-0.461-0.308-1.043-0.045-1.521
			c0.262-0.478,0.763-0.775,1.308-0.777c4.228-0.019,9.729-0.086,14.797-0.455c0.707-0.062,1.363,0.406,1.554,1.096l2.021,7.295
			c0.729,2.631,0.199,5.386-1.453,7.559C71.333,110.118,68.82,111.364,66.091,111.364z M58.779,95.433l8.105,12.877
			c1.472-0.204,2.796-0.974,3.713-2.18c1.08-1.421,1.427-3.222,0.95-4.941l-1.694-6.116C66.092,95.31,62.188,95.397,58.779,95.433z"
			/>
	</g>
	<g>
		<path class="st0" d="M51.82,95.459c-0.828,0-1.5-0.672-1.5-1.5v-6.765c0-0.828,0.672-1.5,1.5-1.5s1.5,0.672,1.5,1.5v6.765
			C53.32,94.787,52.648,95.459,51.82,95.459z"/>
	</g>
	<g>
		<path class="st0" d="M36.703,95.189c-0.618,0-1.197-0.385-1.415-1.001l-2.289-6.495c-0.275-0.782,0.135-1.639,0.916-1.914
			c0.784-0.273,1.639,0.136,1.914,0.916l2.289,6.495c0.275,0.782-0.135,1.639-0.916,1.914
			C37.037,95.162,36.868,95.189,36.703,95.189z"/>
	</g>
	<g>
		<path class="st0" d="M57.084,121.178h-9.067c-0.776,0-1.425-0.593-1.494-1.365l-0.986-10.964
			c-0.074-0.825,0.534-1.555,1.359-1.629c0.823-0.082,1.555,0.534,1.629,1.359l0.863,9.599h7.696c0.828,0,1.5,0.672,1.5,1.5
			S57.912,121.178,57.084,121.178z"/>
	</g>
	<g>
		<path class="st0" d="M82.685,116.867h-9.068c-0.588,0-1.122-0.344-1.365-0.879l-3.141-6.899c-0.343-0.754-0.01-1.644,0.744-1.986
			c0.752-0.344,1.643-0.011,1.986,0.744l2.74,6.021h8.104c0.828,0,1.5,0.672,1.5,1.5S83.513,116.867,82.685,116.867z"/>
	</g>
	<g>
		<path class="st0" d="M73.616,116.867h-4.31c-0.828,0-1.5-0.672-1.5-1.5s0.672-1.5,1.5-1.5h4.31c0.828,0,1.5,0.672,1.5,1.5
			S74.444,116.867,73.616,116.867z"/>
	</g>
	<g>
		<path class="st0" d="M48.017,121.178h-4.311c-0.828,0-1.5-0.672-1.5-1.5s0.672-1.5,1.5-1.5h4.311c0.828,0,1.5,0.672,1.5,1.5
			S48.845,121.178,48.017,121.178z"/>
	</g>
</g>
</svg>
