<?xml version="1.0" encoding="utf-8"?>
<!-- Generator: Adobe Illustrator 22.0.0, SVG Export Plug-In . SVG Version: 6.00 Build 0)  -->
<svg version="1.1" id="Layer_1" xmlns="http://www.w3.org/2000/svg" xmlns:xlink="http://www.w3.org/1999/xlink" x="0px" y="0px"
	 viewBox="0 0 128 128" style="enable-background:new 0 0 128 128;" xml:space="preserve">
<style type="text/css">
	.st0{fill:#746887;}
	.st1{fill:#FFCFB8;}
	.st2{fill:#E6B9A0;}
	.st3{fill:#D29997;}
	.st4{fill:#F98770;}
	.st5{fill:#DCA98B;}
	.st6{fill:#FFDDCF;}
	.st7{fill:#E8E8E8;}
	.st8{fill:#FFBF9E;}
	.st9{fill:#B0BACC;}
	.st10{fill:#9BA7BC;}
	.st11{fill:#B6B4ED;}
	.st12{fill:#FFBC99;}
	.st13{fill:#F8F8F8;}
	.st14{fill:#B2A7BF;}
	.st15{fill:#9B9B9B;}
	.st16{fill:#968AA0;}
	.st17{fill:#C6BBD3;}
	.st18{fill:#D8D8D8;}
	.st19{fill:#D29976;}
	.st20{fill:#FFA77B;}
	.st21{fill:#CCD3DD;}
	.st22{fill-rule:evenodd;clip-rule:evenodd;fill:#F8F8F8;}
	.st23{fill-rule:evenodd;clip-rule:evenodd;fill:#9B9B9B;}
	.st24{fill-rule:evenodd;clip-rule:evenodd;fill:#777777;}
	.st25{fill:#91DEF5;}
	.st26{fill:#B0E7F8;}
	.st27{fill-rule:evenodd;clip-rule:evenodd;fill:#DCA98B;}
	.st28{fill-rule:evenodd;clip-rule:evenodd;fill:#D29997;}
	.st29{fill-rule:evenodd;clip-rule:evenodd;fill:#FFCBBE;}
	.st30{fill-rule:evenodd;clip-rule:evenodd;fill:#E6B9A0;}
	.st31{fill-rule:evenodd;clip-rule:evenodd;fill:#746887;}
	.st32{fill-rule:evenodd;clip-rule:evenodd;fill:#FFBC99;}
	.st33{fill-rule:evenodd;clip-rule:evenodd;fill:#FFA77B;}
	.st34{fill-rule:evenodd;clip-rule:evenodd;fill:#FFCFB8;}
	.st35{fill-rule:evenodd;clip-rule:evenodd;fill:#E8E8E8;}
	.st36{fill-rule:evenodd;clip-rule:evenodd;fill:#CCD3DD;}
	.st37{fill:#E6B9C1;}
	.st38{fill:#FFCBBE;}
	.st39{fill-rule:evenodd;clip-rule:evenodd;fill:#F98770;}
	.st40{fill-rule:evenodd;clip-rule:evenodd;fill:#F2BB88;}
	.st41{fill:#F2D1A5;}
	.st42{fill-rule:evenodd;clip-rule:evenodd;fill:#F2D1A5;}
	.st43{fill:#F2BB88;}
	.st44{fill-rule:evenodd;clip-rule:evenodd;fill:#9BA7BC;}
	.st45{fill-rule:evenodd;clip-rule:evenodd;fill:#B0BACC;}
	.st46{fill-rule:evenodd;clip-rule:evenodd;fill:#FFFFFF;}
	.st47{fill-rule:evenodd;clip-rule:evenodd;fill:#FFDDCF;}
	.st48{fill-rule:evenodd;clip-rule:evenodd;fill:#B0E7F8;}
	.st49{fill-rule:evenodd;clip-rule:evenodd;fill:#968AA0;}
	.st50{fill:#9D9BE6;}
	.st51{fill:#CFCEF3;}
	.st52{fill-rule:evenodd;clip-rule:evenodd;fill:#D8D8D8;}
	.st53{fill-rule:evenodd;clip-rule:evenodd;fill:#B6B4ED;}
	.st54{fill-rule:evenodd;clip-rule:evenodd;fill:#FFD4BE;}
</style>
<g>
	<g>
		<path class="st13" d="M21.44,16.4c-0.28-2.62-1.5-5.15-2.94-6.9c-1.71-2.07-5.92-2.71-8-1c-2.08,1.7-1.8,4.36-0.09,6.44
			c0.8,0.97,1.16,2.15,1.17,3.56c0.02,2.71-1.22,6.3-3,11.02c-0.12,0.31-0.25,0.63-0.41,0.95c-1.26,2.65-3.64,5.75-5.2,10.99v0.01
			C1.91,45,1.23,49.51,1.5,55.5c0.61,13.41,5.88,22.98,10.01,28.71c-0.01-0.24-0.01-0.48-0.01-0.71c0-6.24,1.63-10.98,4.31-14.61
			c-2.12-2.77-4.31-6.95-4.31-14.39c0-3.3,0.74-6.97,2.03-10.99c1.05-3.29,2.48-6.82,4.16-10.56c0.07-0.15,0.13-0.29,0.2-0.44
			c2.22-4.95,3.61-8.21,3.61-15.01c0-0.37-0.02-0.73-0.06-1.09V16.4z"/>
	</g>
	<g>
		<g>
			<path class="st13" d="M88.53,64.89c-4.93-2.53-9.81-8.3-12.31-14.44c-9.48,4.81-20.87,3.91-27.72,5.05c-14.83,2.47-37,5-37,28
				c0,17,12,40,12,40h8l1.02-20.65l1.12-0.42c7.28-2.68,12.79-6.05,13.86-13.93c2,2,14,7,33,6l5,29h9v-30
				c0,0,17.18-8.67,17.97-28.61c-4.59,2.37-9.21,3.61-11.97,3.61S93.12,67.26,88.53,64.89z"/>
		</g>
	</g>
	<g>
		<g>
			<path class="st18" d="M33.64,102.43l-1.12,0.42L31.5,123.5h8l7.73-33.48C45.69,96.83,40.43,99.93,33.64,102.43z"/>
		</g>
	</g>
	<g>
		<path class="st18" d="M98.75,90.7v0.05l2.75,32.75h8c0,0,1.967-43.872,2.72-55.697C110.749,79.595,103.508,87.025,98.75,90.7z"/>
	</g>
	<g>
		<path class="st18" d="M112.22,67.803c0.118-0.946,0.211-1.911,0.25-2.913C112.423,64.914,112.336,65.982,112.22,67.803z"/>
	</g>
	<g>
		<path class="st13" d="M112.69,26.12c0.96,0.33,1.87,0.7,2.73,1.12c2.44,1.08,4.46,2.43,6.07,3.97c2.89-0.85,5.01-3.53,5.01-6.71
			c0-3.87-1-7-4-10C115.09,18.42,112.56,25.6,112.69,26.12z"/>
	</g>
	<g>
		<path class="st13" d="M100.5,24.5c-18,0-26,9-26,18c0,8.48,6.97,18.76,14.03,22.39c4.59,2.37,9.21,3.61,11.97,3.61
			s7.38-1.24,11.97-3.61c7.06-3.63,14.03-13.91,14.03-22.39C126.5,33.5,118.5,24.5,100.5,24.5z"/>
	</g>
	<g>
		<path class="st13" d="M78.5,14.5c-3,3-4,6.13-4,10c0,3.18,2.12,5.86,5.01,6.71c1.61-1.54,3.63-2.89,6.07-3.97
			c0.86-0.42,1.77-0.79,2.73-1.12C88.44,25.6,85.91,18.42,78.5,14.5z"/>
	</g>
	<g>
		<path class="st21" d="M87.5,38.5c-3.314,0-5,2.686-5,6s2.686,6,6,6s6-2.686,6-6S90.814,38.5,87.5,38.5z"/>
	</g>
	<g>
		<path class="st21" d="M113.5,38.5c-3.314,0-7,2.686-7,6s2.686,6,6,6s6-2.686,6-6S116.814,38.5,113.5,38.5z"/>
	</g>
	<g>
		<path class="st21" d="M10.5,8.5c-2.08,1.7-1.8,4.36-0.09,6.44c0.8,0.97,1.16,2.15,1.17,3.56h0.02c5.84,0,9.82-2.05,9.82-2.05
			l0.02-0.04V16.4c-0.28-2.62-1.5-5.15-2.94-6.9C16.79,7.43,12.58,6.79,10.5,8.5z"/>
	</g>
	<g>
		<path class="st21" d="M8.2,30.47H8.17c-1.26,2.65-3.64,5.75-5.2,10.99v0.01c0,0,2.31,2.06,10.53,2.06l0.03-0.02
			c1.05-3.29,2.48-6.82,4.16-10.56c0.07-0.15,0.13-0.29,0.2-0.44l-0.05-0.04C12.02,32.47,8.2,30.47,8.2,30.47z"/>
	</g>
	<g>
		<path class="st10" d="M104.7,52.5h-8.4c-0.773,0-1.4,0.627-1.4,1.4c0,3.093,2.507,5.6,5.6,5.6s5.6-2.507,5.6-5.6
			C106.1,53.127,105.473,52.5,104.7,52.5z"/>
	</g>
	<g>
		<circle class="st31" cx="89" cy="45" r="2"/>
	</g>
	<g>
		<circle class="st31" cx="112" cy="45" r="2"/>
	</g>
	<g>
		<path class="st4" d="M47.501,90c-0.097,0-0.196-0.01-0.295-0.03c-0.812-0.162-1.339-0.953-1.177-1.765
			c0.474-2.371-0.601-4.799-2.674-6.043l-0.627-0.376c-0.71-0.426-0.94-1.348-0.514-2.058c0.426-0.709,1.348-0.941,2.058-0.514
			l0.627,0.376c3.157,1.895,4.793,5.593,4.071,9.204C48.828,89.507,48.202,90,47.501,90z"/>
	</g>
	<g>
		<path class="st4" d="M79.034,94.818c0,0-0.651-2.998-0.842-4.021c-0.43-2.305-2.527-4.334-4.986-4.826
			c-0.812-0.162-1.339-0.953-1.177-1.765c0.162-0.812,0.95-1.34,1.765-1.177c3.669,0.734,6.69,3.701,7.347,7.216
			c0.188,1.002,0.825,3.936,0.825,3.936L79.034,94.818z"/>
	</g>
	<g>
		<path class="st4" d="M11.6,20c-0.824,0-1.514-0.665-1.52-1.489c-0.008-1.11-0.271-1.942-0.827-2.617
			c-1.257-1.529-1.858-3.282-1.694-4.938C7.7,9.54,8.388,8.289,9.551,7.338c2.635-2.166,7.831-1.547,10.105,1.206
			c1.766,2.146,2.99,5.022,3.275,7.696c0.005,0.053,0.008,0.106,0.008,0.159v0.01c0,0.233-0.054,0.462-0.158,0.671
			c-0.143,0.285-0.392,0.557-0.675,0.703C21.931,17.874,17.733,20,11.6,20z M13.679,9.008c-0.871,0-1.687,0.207-2.227,0.651
			c-0.543,0.444-0.847,0.979-0.908,1.593c-0.083,0.845,0.29,1.842,1.024,2.736c0.705,0.855,1.159,1.837,1.371,2.974
			c3.156-0.18,5.585-0.949,6.842-1.435c-0.385-1.802-1.261-3.639-2.44-5.073C16.579,9.53,15.061,9.008,13.679,9.008z"/>
	</g>
	<g>
		<path class="st4" d="M13.5,45.03c-8.544,0-11.249-2.19-11.528-2.44c-0.319-0.285-0.502-0.692-0.502-1.12
			c0-0.145,0.021-0.299,0.062-0.438c1.146-3.851,2.711-6.585,3.968-8.783c0.518-0.905,0.965-1.687,1.315-2.422
			c0.353-0.742,1.353-1.065,2.081-0.685c0.032,0.017,3.605,1.829,8.944,1.829c0.339,0,0.669,0.115,0.934,0.327
			c0.543,0.433,0.769,1.222,0.474,1.851l-0.198,0.436c-1.803,4.013-3.144,7.415-4.09,10.383c-0.104,0.326-0.316,0.606-0.602,0.795
			C14.112,44.924,13.794,45.03,13.5,45.03z M4.766,40.762c1.094,0.46,3.424,1.156,7.675,1.256c0.817-2.42,1.87-5.104,3.196-8.138
			c-3.038-0.25-5.394-0.968-6.771-1.491c-0.241,0.439-0.498,0.888-0.762,1.35C7,35.67,5.764,37.831,4.766,40.762z"/>
	</g>
	<g>
		<path class="st0" d="M11.51,85.71c-0.473,0-0.93-0.224-1.217-0.623C3.955,76.293,0.492,66.362,0.001,55.568
			c-0.247-5.481,0.247-10.21,1.508-14.451c0.006-0.029,0.014-0.058,0.022-0.086c1.146-3.851,2.711-6.585,3.968-8.783
			c0.518-0.905,0.965-1.687,1.315-2.422c0.151-0.303,0.262-0.58,0.366-0.848c1.595-4.229,2.917-7.946,2.899-10.467
			c-0.008-1.111-0.271-1.942-0.827-2.617c-1.257-1.529-1.858-3.282-1.694-4.938C7.7,9.54,8.388,8.289,9.551,7.338
			c2.635-2.166,7.831-1.547,10.105,1.206c1.766,2.146,2.99,5.022,3.275,7.696c0.002,0.018,0.003,0.036,0.004,0.054
			C22.979,16.696,23,17.091,23,17.5c0,6.943-1.352,10.295-3.741,15.624l-0.209,0.459c-1.803,4.013-3.144,7.415-4.09,10.383
			C13.641,48.075,13,51.52,13,54.5c0,7.396,2.284,11.234,4.001,13.479c0.406,0.53,0.413,1.265,0.016,1.803
			C14.352,73.391,13,78.007,13,83.5c0,0.21,0,0.43,0.008,0.649c0.027,0.662-0.383,1.263-1.009,1.479
			C11.839,85.683,11.673,85.71,11.51,85.71z M4.43,41.813c-0.007,0.03-0.015,0.059-0.023,0.088
			c-1.18,3.933-1.641,8.359-1.408,13.531c0.395,8.68,2.824,16.771,7.23,24.112c0.484-4.043,1.735-7.605,3.738-10.635
			C12.104,66.229,10,61.922,10,54.5c0-3.296,0.688-7.041,2.102-11.448c0.981-3.074,2.361-6.58,4.22-10.716l0.21-0.462
			C18.616,27.225,20,24.139,20,17.5c0-0.314-0.017-0.619-0.051-0.924c-0.002-0.021-0.004-0.041-0.005-0.061
			c-0.235-2.102-1.206-4.365-2.602-6.062c-1.243-1.504-4.491-1.942-5.889-0.794c-0.543,0.444-0.847,0.979-0.908,1.593
			c-0.083,0.845,0.29,1.842,1.024,2.736c1.003,1.217,1.498,2.69,1.511,4.502c0.022,3.042-1.328,6.871-3.097,11.56
			c-0.141,0.365-0.29,0.728-0.472,1.092c-0.385,0.811-0.882,1.679-1.407,2.597C6.872,35.894,5.475,38.335,4.43,41.813z"/>
	</g>
	<g>
		<path class="st0" d="M94.5,125h-9c-0.73,0-1.354-0.526-1.478-1.245l-4.775-27.696c-14.921,0.576-25.937-2.482-30.719-5.058
			c-1.958,7.296-8.018,10.498-14.37,12.836l-0.188,0.071l-0.972,19.666C32.958,124.373,32.3,125,31.5,125h-8
			c-0.559,0-1.071-0.311-1.33-0.806C21.673,123.241,10,100.67,10,83.5c0-11.126,4.858-18.835,14.852-23.569
			c0.748-0.354,1.642-0.036,1.998,0.713c0.355,0.749,0.035,1.643-0.713,1.998C17.297,66.829,13,73.652,13,83.5
			c0,14.674,9.342,34.309,11.423,38.5h5.649l0.95-19.224c0.029-0.597,0.411-1.12,0.972-1.331l1.12-0.42
			c7.263-2.674,11.951-5.734,12.9-12.727c0.077-0.565,0.467-1.038,1.007-1.22c0.541-0.18,1.137-0.043,1.54,0.361
			c1.517,1.517,12.861,6.571,31.861,5.562c0.754-0.038,1.427,0.494,1.557,1.243L86.764,122H93V93.5c0-0.566,0.319-1.084,0.824-1.339
			c0.155-0.079,14.944-7.785,16.949-24.804C107.018,68.994,103.174,70,100.5,70c-3.246,0-8.214-1.482-12.658-3.777
			c-4.846-2.487-9.583-7.786-12.376-13.755c-6.668,2.96-14.016,3.46-20,3.868c-2.482,0.169-4.826,0.329-6.72,0.644l-1.994,0.328
			c-4.229,0.69-9.021,1.473-13.555,2.752c-0.797,0.224-1.626-0.239-1.851-1.037c-0.225-0.797,0.239-1.626,1.037-1.851
			c4.698-1.324,9.579-2.122,13.886-2.825l1.985-0.326c2.037-0.339,4.452-0.503,7.009-0.677c6.144-0.418,13.791-0.938,20.279-4.231
			c0.374-0.188,0.811-0.214,1.203-0.067c0.393,0.146,0.707,0.451,0.865,0.839c2.375,5.833,7.04,11.328,11.606,13.671
			C93.824,65.936,98.203,67,100.5,67s6.676-1.064,11.282-3.443c0.474-0.244,1.043-0.219,1.494,0.067
			c0.45,0.287,0.714,0.792,0.693,1.325C113.245,83.224,99.573,92.317,96,94.387V123.5C96,124.329,95.329,125,94.5,125z"/>
	</g>
	<g>
		<g>
			<path class="st0" d="M39.5,125h-8c-0.411,0-0.803-0.168-1.086-0.466s-0.432-0.698-0.412-1.108l1.02-20.65
				c0.029-0.597,0.411-1.12,0.972-1.331l1.12-0.419c6.562-2.417,11.218-5.25,12.623-11.206l0.032-0.137
				c0.187-0.806,0.992-1.306,1.795-1.125c0.807,0.185,1.312,0.986,1.129,1.793c-0.011,0.05-0.023,0.101-0.035,0.151l-7.697,33.335
				C40.804,124.518,40.198,125,39.5,125z M33.076,122h5.231l5.375-23.278c-2.681,2.318-6.068,3.844-9.523,5.116l-0.188,0.071
				L33.076,122z"/>
		</g>
	</g>
	<g>
		<path class="st0" d="M100.5,61c-3.915,0-7.1-3.185-7.1-7.1c0-1.599,1.301-2.9,2.9-2.9h8.4c1.599,0,2.9,1.301,2.9,2.9
			C107.6,57.815,104.415,61,100.5,61z M96.401,54c0.053,2.215,1.872,4,4.099,4s4.046-1.785,4.099-4H96.401z"/>
	</g>
	<g>
		<path class="st0" d="M100.5,70c-0.829,0-1.5-0.671-1.5-1.5v-9c0-0.829,0.671-1.5,1.5-1.5s1.5,0.671,1.5,1.5v9
			C102,69.329,101.329,70,100.5,70z"/>
	</g>
	<g>
		<path class="st0" d="M109.5,125h-8c-0.78,0-1.43-0.598-1.495-1.375l-2.75-32.75c-0.003-0.042-0.005-0.083-0.005-0.125
			c0-0.465,0.215-0.953,0.583-1.237c4.202-3.246,11.465-10.406,12.899-21.896c0.1-0.805,0.813-1.392,1.629-1.308
			c0.807,0.076,1.408,0.779,1.356,1.588c-0.45,7.057-1.333,25.561-1.995,39.84c-0.039,0.828-0.743,1.466-1.568,1.429
			c-0.828-0.039-1.467-0.74-1.429-1.568c0.416-8.957,0.918-19.575,1.346-27.997c-2.907,5.54-6.855,9.43-9.764,11.778L102.879,122
			h5.187l0.295-6.503c0.038-0.828,0.721-1.463,1.567-1.43c0.828,0.038,1.468,0.739,1.43,1.567l-0.36,7.934
			C110.962,124.369,110.302,125,109.5,125z"/>
	</g>
	<g>
		<path class="st0" d="M121.49,32.71c-0.381,0-0.753-0.145-1.037-0.416c-1.531-1.464-3.429-2.703-5.641-3.682
			c-0.829-0.404-1.69-0.757-2.611-1.073c-0.48-0.165-0.844-0.562-0.967-1.055c-0.365-1.46,2.762-9.183,10.564-13.309
			c0.581-0.309,1.296-0.201,1.762,0.265C126.631,16.51,128,19.921,128,24.5c0,3.744-2.503,7.095-6.086,8.149
			C121.774,32.69,121.632,32.71,121.49,32.71z M114.512,25.198c0.546,0.22,1.07,0.452,1.566,0.694
			c2.162,0.956,4.102,2.167,5.745,3.593C123.727,28.597,125,26.648,125,24.5c0-3.356-0.844-5.844-2.791-8.111
			C117.596,19.196,115.31,23.278,114.512,25.198z"/>
	</g>
	<g>
		<path class="st0" d="M100.5,70c-3.245,0-8.213-1.482-12.658-3.777C79.937,62.158,73,51.072,73,42.5c0-9.706,8.503-19.5,27.5-19.5
			S128,32.794,128,42.5c0,8.573-6.937,19.659-14.844,23.724C108.714,68.518,103.746,70,100.5,70z M100.5,26
			C88.305,26,76,31.102,76,42.5c0,8.162,6.977,17.848,13.216,21.056C93.825,65.936,98.204,67,100.5,67
			c2.297,0,6.676-1.064,11.281-3.443C118.022,60.349,125,50.663,125,42.5C125,31.102,112.695,26,100.5,26z"/>
	</g>
	<g>
		<path class="st0" d="M79.51,32.71c-0.142,0-0.284-0.02-0.423-0.061C75.503,31.595,73,28.244,73,24.5
			c0-4.579,1.369-7.99,4.439-11.061c0.465-0.466,1.181-0.574,1.762-0.265c7.802,4.126,10.929,11.849,10.564,13.309
			c-0.123,0.493-0.487,0.891-0.968,1.056c-0.919,0.315-1.78,0.668-2.559,1.048c-2.263,1.003-4.16,2.242-5.691,3.707
			C80.264,32.564,79.891,32.71,79.51,32.71z M78.791,16.389C76.844,18.656,76,21.144,76,24.5c0,2.149,1.273,4.097,3.177,4.985
			c1.644-1.426,3.589-2.641,5.796-3.617c0.467-0.229,0.976-0.454,1.515-0.67C85.689,23.277,83.404,19.195,78.791,16.389z"/>
	</g>
	<g>
		<path class="st0" d="M88.5,52c-4.136,0-7.5-3.364-7.5-7.5c0-4.486,2.612-7.5,6.5-7.5c4.012,0,8.5,3.208,8.5,7.5
			C96,48.636,92.636,52,88.5,52z M87.5,40c-3.248,0-3.5,3.444-3.5,4.5c0,2.481,2.019,4.5,4.5,4.5s4.5-2.019,4.5-4.5
			C93,42.077,89.976,40,87.5,40z"/>
	</g>
	<g>
		<path class="st0" d="M112.5,52c-4.136,0-7.5-3.364-7.5-7.5c0-4.292,4.488-7.5,8.5-7.5c3.888,0,6.5,3.014,6.5,7.5
			C120,48.636,116.636,52,112.5,52z M113.5,40c-2.476,0-5.5,2.077-5.5,4.5c0,2.481,2.019,4.5,4.5,4.5s4.5-2.019,4.5-4.5
			C117,43.444,116.748,40,113.5,40z"/>
	</g>
</g>
</svg>
