<?xml version="1.0" encoding="utf-8"?>
<!-- Generator: Adobe Illustrator 22.0.0, SVG Export Plug-In . SVG Version: 6.00 Build 0)  -->
<svg version="1.1" id="Layer_1" xmlns="http://www.w3.org/2000/svg" xmlns:xlink="http://www.w3.org/1999/xlink" x="0px" y="0px"
	 viewBox="0 0 128 128" style="enable-background:new 0 0 128 128;" xml:space="preserve">
<style type="text/css">
	.st0{fill:#746887;}
	.st1{fill:#FFCFB8;}
	.st2{fill:#E6B9A0;}
	.st3{fill:#D29997;}
	.st4{fill:#F98770;}
	.st5{fill:#DCA98B;}
	.st6{fill:#FFDDCF;}
	.st7{fill:#E8E8E8;}
	.st8{fill:#FFBF9E;}
	.st9{fill:#B0BACC;}
	.st10{fill:#9BA7BC;}
	.st11{fill:#B6B4ED;}
	.st12{fill:#FFBC99;}
	.st13{fill:#F8F8F8;}
	.st14{fill:#B2A7BF;}
	.st15{fill:#9B9B9B;}
	.st16{fill:#968AA0;}
	.st17{fill:#C6BBD3;}
	.st18{fill:#D8D8D8;}
	.st19{fill:#D29976;}
	.st20{fill:#FFA77B;}
	.st21{fill:#CCD3DD;}
	.st22{fill-rule:evenodd;clip-rule:evenodd;fill:#F8F8F8;}
	.st23{fill-rule:evenodd;clip-rule:evenodd;fill:#9B9B9B;}
	.st24{fill-rule:evenodd;clip-rule:evenodd;fill:#777777;}
	.st25{fill:#91DEF5;}
	.st26{fill:#B0E7F8;}
	.st27{fill-rule:evenodd;clip-rule:evenodd;fill:#DCA98B;}
	.st28{fill-rule:evenodd;clip-rule:evenodd;fill:#D29997;}
	.st29{fill-rule:evenodd;clip-rule:evenodd;fill:#FFCBBE;}
	.st30{fill-rule:evenodd;clip-rule:evenodd;fill:#E6B9A0;}
	.st31{fill-rule:evenodd;clip-rule:evenodd;fill:#746887;}
	.st32{fill-rule:evenodd;clip-rule:evenodd;fill:#FFBC99;}
	.st33{fill-rule:evenodd;clip-rule:evenodd;fill:#FFA77B;}
	.st34{fill-rule:evenodd;clip-rule:evenodd;fill:#FFCFB8;}
	.st35{fill-rule:evenodd;clip-rule:evenodd;fill:#E8E8E8;}
	.st36{fill-rule:evenodd;clip-rule:evenodd;fill:#CCD3DD;}
	.st37{fill:#E6B9C1;}
	.st38{fill:#FFCBBE;}
	.st39{fill-rule:evenodd;clip-rule:evenodd;fill:#F98770;}
	.st40{fill-rule:evenodd;clip-rule:evenodd;fill:#F2BB88;}
	.st41{fill:#F2D1A5;}
	.st42{fill-rule:evenodd;clip-rule:evenodd;fill:#F2D1A5;}
	.st43{fill:#F2BB88;}
	.st44{fill-rule:evenodd;clip-rule:evenodd;fill:#9BA7BC;}
	.st45{fill-rule:evenodd;clip-rule:evenodd;fill:#B0BACC;}
	.st46{fill-rule:evenodd;clip-rule:evenodd;fill:#FFFFFF;}
	.st47{fill-rule:evenodd;clip-rule:evenodd;fill:#FFDDCF;}
	.st48{fill-rule:evenodd;clip-rule:evenodd;fill:#B0E7F8;}
	.st49{fill-rule:evenodd;clip-rule:evenodd;fill:#968AA0;}
	.st50{fill:#9D9BE6;}
	.st51{fill:#CFCEF3;}
	.st52{fill-rule:evenodd;clip-rule:evenodd;fill:#D8D8D8;}
	.st53{fill-rule:evenodd;clip-rule:evenodd;fill:#B6B4ED;}
	.st54{fill-rule:evenodd;clip-rule:evenodd;fill:#FFD4BE;}
</style>
<g>
	<g>
		<g>
			<g>
				<path class="st49" d="M64.331,13.313h-0.145c-1.345,0-2.503,0.828-3.145,2.017c-1.396,2.586-5.751,4.189-25.405,4.189
					C13.913,19.52,1.5,30.898,1.5,45.38c0,4.852,0.802,11.857,8.751,16.76c2.887,1.78,2.906,8.821,2.906,8.821
					c0.001-0.004,0.003-0.009,0.004-0.013c1.151-11.562,5.943-19.122,15.741-22.842c0.002-0.003,0.005-0.008,0.007-0.011
					c0,0-20.246,5.24-20.246-2.218c0-12.413,11.539-20.151,26.972-20.151h13.447c11.389,0,16.199-3.766,18.216-7.148
					C68.686,16.262,67.031,13.313,64.331,13.313z"/>
			</g>
		</g>
		<g>
			<g>
				<path class="st45" d="M100.804,93.798c-14.558,0-25.696-15.362-25.696-24.052c0-2.355,0.56-5.039,2.108-7.045
					c0.479-3.352,1.337-7.636,3.156-11.699l0,0c-14.016-0.652-25.734-5.62-33.358-5.62c-24.826,0-34.136,10.282-34.136,31.55
					c0,19.137,12.413,37.756,12.413,37.756h22.426c0.662,0,1.262-0.269,1.696-0.703c0.434-0.435,0.703-1.034,0.703-1.697
					c0-1.045-0.662-1.955-1.645-2.286l-12.837-3.589l9.31-5.172h31.033c5.151,0.165,9.568,0.817,9.91,5.958l0.434,6.455h17.585
					c0,0,10.344-13.448,10.272-24.267l-0.035-0.039C110.293,92.024,105.747,93.798,100.804,93.798z"/>
			</g>
		</g>
		<g>
			<g>
				<path class="st49" d="M119.412,31.645c-3.429,0-6.202,3.571-6.202,7.974c0,0.558,0.044,1.108,0.133,1.639
					c2.578,1.701,4.554,3.907,6.07,6.335c3.429,0,6.202-3.571,6.202-7.975C125.614,35.216,122.841,31.645,119.412,31.645z"/>
			</g>
		</g>
		<g>
			<g>
				<path class="st49" d="M82.197,31.645c-3.429,0-6.202,3.571-6.202,7.974c0,4.404,2.773,7.975,6.202,7.975
					c1.515-2.428,3.491-4.634,6.069-6.335c0.089-0.532,0.133-1.081,0.133-1.639C88.4,35.216,85.626,31.645,82.197,31.645z"/>
			</g>
		</g>
		<g>
			<g>
				<path class="st9" d="M100.804,37.848c-18.263,0-22.296,15.813-23.588,24.853c-1.548,2.007-2.108,4.69-2.108,7.045
					c0,8.69,11.138,24.052,25.696,24.052S126.5,78.436,126.5,69.746c0-2.355-0.56-5.039-2.108-7.045
					C123.101,53.661,119.067,37.848,100.804,37.848z"/>
			</g>
		</g>
		<g>
			<g>
				<path class="st49" d="M63.989,110l-12.837-4.624l10.344-4.137H44.946l-9.31,5.172L48.473,110
					c0.983,0.331,1.645,1.241,1.645,2.286c0,0.662-0.269,1.262-0.703,1.697c-0.434,0.434-1.034,0.703-1.696,0.703h15.516
					c0.662,0,1.262-0.269,1.696-0.703c0.434-0.435,0.703-1.034,0.703-1.697C65.634,111.242,64.972,110.332,63.989,110z"/>
			</g>
		</g>
		<g>
			<g>
				<path class="st16" d="M104.278,80.033H97.33c-0.64,0-1.158,0.519-1.158,1.158c0,2.558,2.074,4.632,4.632,4.632
					s4.632-2.074,4.632-4.632C105.436,80.552,104.918,80.033,104.278,80.033z"/>
			</g>
		</g>
		<g>
			<g>
				<path class="st0" d="M90.615,57.856c-1.428,0-2.586,1.158-2.586,2.586s1.158,2.586,2.586,2.586s2.586-1.158,2.586-2.586
					S92.043,57.856,90.615,57.856z"/>
			</g>
		</g>
		<g>
			<g>
				<path class="st0" d="M110.994,57.856c-1.428,0-2.586,1.158-2.586,2.586s1.158,2.586,2.586,2.586
					c1.428,0,2.586-1.158,2.586-2.586S112.422,57.856,110.994,57.856z"/>
			</g>
		</g>
	</g>
	<g>
		<path class="st4" d="M96.667,115.152c-0.828,0-1.5-0.672-1.5-1.5v-13.447c0-0.828,0.672-1.5,1.5-1.5s1.5,0.672,1.5,1.5v13.447
			C98.167,114.48,97.495,115.152,96.667,115.152z"/>
	</g>
	<g>
		<path class="st4" d="M44.946,102.739c-0.509,0-1.006-0.26-1.287-0.729c-0.427-0.71-0.196-1.632,0.515-2.058l5.104-3.062
			c4.185-3.181,4.512-7.765,4.512-9.099c0-10.83-9.95-13.421-14.229-14.031c-0.82-0.117-1.391-0.877-1.273-1.697
			s0.878-1.381,1.697-1.273c10.522,1.503,16.805,7.859,16.805,17.002c0,1.692-0.416,7.526-5.771,11.544
			c-0.042,0.03-0.084,0.06-0.129,0.086l-5.173,3.104C45.476,102.671,45.209,102.739,44.946,102.739z"/>
	</g>
	<g>
		<path class="st0" d="M47.718,116.187H25.292c-0.502,0-0.97-0.251-1.248-0.668c-0.518-0.775-12.665-19.221-12.665-38.589
			c0-20.525,8.565-30.596,27.773-32.651c0.806-0.084,1.562,0.508,1.65,1.332c0.089,0.823-0.508,1.562-1.332,1.65
			C21.883,49.144,14.379,58.017,14.379,76.93c0,16.478,9.583,32.799,11.736,36.257h21.603c0.24,0,0.466-0.094,0.636-0.264
			c0.171-0.171,0.265-0.396,0.265-0.636c0-0.397-0.245-0.737-0.625-0.866l-12.762-3.565c-0.585-0.163-1.015-0.665-1.085-1.269
			c-0.071-0.604,0.229-1.191,0.761-1.487l9.31-5.172c0.223-0.123,0.474-0.188,0.729-0.188h31.033
			c4.122,0.131,10.941,0.35,11.406,7.358l0.34,5.055h15.427c0.664-0.916,2.012-2.843,3.48-5.325
			c0.423-0.713,1.344-0.948,2.055-0.527c0.713,0.422,0.949,1.342,0.527,2.055c-2.166,3.662-4.038,6.109-4.117,6.212
			c-0.284,0.369-0.724,0.586-1.189,0.586H86.322c-0.789,0-1.443-0.611-1.497-1.399l-0.435-6.455c-0.215-3.254-2.271-4.361-8.46-4.56
			l-30.597,0.001l-5.778,3.21l9.321,2.606c1.67,0.562,2.741,2.052,2.741,3.731c0,1.04-0.406,2.02-1.144,2.757
			C49.738,115.781,48.759,116.187,47.718,116.187z"/>
	</g>
	<g>
		<path class="st0" d="M111.56,101.949c-0.194,0-0.393-0.038-0.583-0.118c-0.763-0.322-1.12-1.202-0.798-1.966
			c1.187-2.809,1.955-5.393,2.297-7.716c-3.741,2.067-7.727,3.148-11.671,3.148c-15.981,0-27.196-16.576-27.196-25.552
			c0-1.729,0.29-4.962,2.178-7.634c0.548-3.686,1.34-6.896,2.405-9.743c-6.979-0.532-13.262-2.02-18.863-3.346
			c-4.854-1.149-9.048-2.143-12.313-2.143c-0.828,0-1.5-0.672-1.5-1.5s0.672-1.5,1.5-1.5c3.616,0,7.967,1.03,13.005,2.224
			c6.033,1.428,12.872,3.047,20.422,3.398c0.496,0.022,0.948,0.289,1.208,0.712c0.26,0.422,0.295,0.946,0.092,1.398
			c-1.41,3.15-2.404,6.847-3.039,11.299c-0.037,0.257-0.14,0.499-0.298,0.704c-1.562,2.026-1.796,4.71-1.796,6.13
			c0,7.72,10.218,22.552,24.196,22.552c4.231,0,8.548-1.446,12.483-4.184c0.621-0.433,1.466-0.333,1.972,0.228
			c0.245,0.273,0.418,0.666,0.42,1.033c0.022,3.383-0.899,7.306-2.737,11.658C112.7,101.605,112.145,101.949,111.56,101.949z"/>
	</g>
	<g>
		<path class="st0" d="M63.234,116.187H47.718c-0.828,0-1.5-0.672-1.5-1.5s0.672-1.5,1.5-1.5c0.24,0,0.466-0.094,0.636-0.264
			c0.171-0.171,0.265-0.396,0.265-0.636c0-0.397-0.245-0.737-0.624-0.864l-12.763-3.567c-0.585-0.163-1.015-0.665-1.085-1.269
			c-0.071-0.604,0.229-1.191,0.761-1.487l9.31-5.172c0.223-0.123,0.474-0.188,0.729-0.188h16.551c0.719,0,1.337,0.51,1.473,1.217
			c0.137,0.706-0.248,1.409-0.916,1.676l-6.678,2.672l9.123,3.286c1.564,0.527,2.636,2.017,2.636,3.697
			c0,1.041-0.405,2.021-1.143,2.757C65.255,115.781,64.275,116.187,63.234,116.187z M51.515,113.187h11.72
			c0.24,0,0.466-0.094,0.636-0.264s0.264-0.396,0.264-0.636c0-0.397-0.245-0.737-0.623-0.864l-12.867-4.635
			c-0.586-0.211-0.98-0.763-0.991-1.385c-0.011-0.623,0.364-1.188,0.943-1.419l3.112-1.245h-8.374l-5.779,3.21l9.322,2.607
			c1.67,0.56,2.741,2.05,2.741,3.73C51.618,112.594,51.583,112.896,51.515,113.187z"/>
	</g>
	<g>
		<path class="st0" d="M13.158,72.459c-0.094,0-0.188-0.009-0.283-0.027c-0.704-0.135-1.215-0.748-1.218-1.466
			c-0.011-2.58-0.699-6.628-2.193-7.55C0.981,58.187,0,50.618,0,45.381C0,31.762,11.019,18.02,35.636,18.02
			c15.803,0,22.781-0.985,24.085-3.402c0.934-1.729,2.644-2.804,4.465-2.804h0.146c1.81,0,3.423,0.939,4.315,2.515
			c0.897,1.581,0.875,3.458-0.06,5.021c-2.143,3.593-7.268,7.878-19.504,7.878H35.636c-15.236,0-25.473,7.495-25.473,18.651
			c0,0.611,0.2,1.026,0.668,1.39c2.79,2.158,12.339,0.762,17.702-0.624c0.602-0.156,1.237,0.076,1.599,0.583
			c0.36,0.507,0.37,1.184,0.025,1.701c-0.173,0.26-0.431,0.47-0.723,0.581c-8.956,3.4-13.652,10.26-14.781,21.588l0,0
			c-0.015,0.145-0.051,0.29-0.104,0.422C14.317,72.095,13.761,72.459,13.158,72.459z M64.186,14.813
			c-0.728,0-1.409,0.459-1.824,1.229c-1.782,3.302-6.405,4.978-26.726,4.978C16.115,21.02,3,30.81,3,45.381
			c0,4.9,0.914,11.089,8.038,15.482c0.885,0.545,1.554,1.41,2.06,2.41c1.513-5.086,4.043-9.121,7.627-12.156
			c-4.36,0.486-9.235,0.454-11.729-1.478c-1.198-0.928-1.832-2.229-1.832-3.762c0-12.748,11.708-21.651,28.473-21.651h13.447
			c10.828,0,15.183-3.489,16.929-6.417c0.373-0.624,0.383-1.372,0.025-2.002c-0.17-0.299-0.675-0.994-1.706-0.994H64.186z"/>
	</g>
	<g>
		<path class="st0" d="M100.805,95.298c-15.981,0-27.196-16.577-27.196-25.552c0-1.73,0.29-4.962,2.179-7.634
			c2.545-17.096,10.96-25.765,25.018-25.765c14.057,0,22.472,8.669,25.017,25.765c1.889,2.672,2.179,5.903,2.179,7.634
			C128,78.721,116.785,95.298,100.805,95.298z M100.805,39.348c-12.608,0-19.839,7.708-22.103,23.564
			c-0.037,0.257-0.14,0.499-0.298,0.704c-1.562,2.026-1.796,4.71-1.796,6.13c0,7.72,10.218,22.552,24.196,22.552
			c13.978,0,24.195-14.832,24.195-22.552c0-1.42-0.233-4.104-1.796-6.13c-0.158-0.205-0.261-0.447-0.298-0.704
			C120.643,47.056,113.412,39.348,100.805,39.348z M77.217,62.7h0.01H77.217z"/>
	</g>
	<g>
		<path class="st0" d="M100.805,87.323c-3.382,0-6.133-2.751-6.133-6.132c0-1.466,1.192-2.658,2.658-2.658h6.948
			c1.466,0,2.658,1.192,2.658,2.658C106.937,84.572,104.186,87.323,100.805,87.323z M97.69,81.533
			c0.171,1.566,1.502,2.79,3.114,2.79c1.611,0,2.942-1.224,3.113-2.79H97.69z"/>
	</g>
	<g>
		<path class="st0" d="M100.805,95.298c-0.828,0-1.5-0.672-1.5-1.5v-7.975c0-0.828,0.672-1.5,1.5-1.5s1.5,0.672,1.5,1.5v7.975
			C102.305,94.626,101.633,95.298,100.805,95.298z"/>
	</g>
	<g>
		<path class="st0" d="M119.411,49.095c-0.518,0-0.999-0.267-1.272-0.706c-1.525-2.445-3.417-4.423-5.623-5.878
			c-0.349-0.229-0.586-0.595-0.653-1.007c-0.102-0.613-0.153-1.247-0.153-1.884c0-5.225,3.455-9.475,7.702-9.475
			s7.703,4.25,7.703,9.475S123.658,49.095,119.411,49.095z M114.744,40.401c2.082,1.479,3.902,3.36,5.426,5.609
			c2.233-0.501,3.944-3.176,3.944-6.391c0-3.57-2.109-6.475-4.703-6.475c-2.593,0-4.702,2.904-4.702,6.475
			C114.709,39.883,114.721,40.144,114.744,40.401z"/>
	</g>
	<g>
		<path class="st0" d="M82.197,49.095c-4.247,0-7.702-4.25-7.702-9.475s3.455-9.475,7.702-9.475s7.702,4.25,7.702,9.475
			c0,0.644-0.052,1.277-0.153,1.886c-0.068,0.411-0.306,0.775-0.653,1.005c-2.207,1.456-4.099,3.434-5.623,5.878
			C83.196,48.828,82.715,49.095,82.197,49.095z M82.197,33.146c-2.593,0-4.702,2.904-4.702,6.475c0,3.215,1.71,5.89,3.943,6.391
			c1.523-2.249,3.344-4.131,5.427-5.61c0.022-0.255,0.034-0.517,0.034-0.78C86.899,36.05,84.79,33.146,82.197,33.146z"/>
	</g>
</g>
</svg>
