<?xml version="1.0" encoding="utf-8"?>
<!-- Generator: Adobe Illustrator 22.0.0, SVG Export Plug-In . SVG Version: 6.00 Build 0)  -->
<svg version="1.1" id="Layer_1" xmlns="http://www.w3.org/2000/svg" xmlns:xlink="http://www.w3.org/1999/xlink" x="0px" y="0px"
	 viewBox="0 0 128 128" style="enable-background:new 0 0 128 128;" xml:space="preserve">
<style type="text/css">
	.st0{fill:#746887;}
	.st1{fill:#FFCFB8;}
	.st2{fill:#E6B9A0;}
	.st3{fill:#D29997;}
	.st4{fill:#F98770;}
	.st5{fill:#DCA98B;}
	.st6{fill:#FFDDCF;}
	.st7{fill:#E8E8E8;}
	.st8{fill:#FFBF9E;}
	.st9{fill:#B0BACC;}
	.st10{fill:#9BA7BC;}
	.st11{fill:#B6B4ED;}
	.st12{fill:#FFBC99;}
	.st13{fill:#F8F8F8;}
	.st14{fill:#B2A7BF;}
	.st15{fill:#9B9B9B;}
	.st16{fill:#968AA0;}
	.st17{fill:#C6BBD3;}
	.st18{fill:#D8D8D8;}
	.st19{fill:#D29976;}
	.st20{fill:#FFA77B;}
	.st21{fill:#CCD3DD;}
	.st22{fill-rule:evenodd;clip-rule:evenodd;fill:#F8F8F8;}
	.st23{fill-rule:evenodd;clip-rule:evenodd;fill:#9B9B9B;}
	.st24{fill-rule:evenodd;clip-rule:evenodd;fill:#777777;}
	.st25{fill:#91DEF5;}
	.st26{fill:#B0E7F8;}
	.st27{fill-rule:evenodd;clip-rule:evenodd;fill:#DCA98B;}
	.st28{fill-rule:evenodd;clip-rule:evenodd;fill:#D29997;}
	.st29{fill-rule:evenodd;clip-rule:evenodd;fill:#FFCBBE;}
	.st30{fill-rule:evenodd;clip-rule:evenodd;fill:#E6B9A0;}
	.st31{fill-rule:evenodd;clip-rule:evenodd;fill:#746887;}
	.st32{fill-rule:evenodd;clip-rule:evenodd;fill:#FFBC99;}
	.st33{fill-rule:evenodd;clip-rule:evenodd;fill:#FFA77B;}
	.st34{fill-rule:evenodd;clip-rule:evenodd;fill:#FFCFB8;}
	.st35{fill-rule:evenodd;clip-rule:evenodd;fill:#E8E8E8;}
	.st36{fill-rule:evenodd;clip-rule:evenodd;fill:#CCD3DD;}
	.st37{fill:#E6B9C1;}
	.st38{fill:#FFCBBE;}
	.st39{fill-rule:evenodd;clip-rule:evenodd;fill:#F98770;}
	.st40{fill-rule:evenodd;clip-rule:evenodd;fill:#F2BB88;}
	.st41{fill:#F2D1A5;}
	.st42{fill-rule:evenodd;clip-rule:evenodd;fill:#F2D1A5;}
	.st43{fill:#F2BB88;}
	.st44{fill-rule:evenodd;clip-rule:evenodd;fill:#9BA7BC;}
	.st45{fill-rule:evenodd;clip-rule:evenodd;fill:#B0BACC;}
	.st46{fill-rule:evenodd;clip-rule:evenodd;fill:#FFFFFF;}
	.st47{fill-rule:evenodd;clip-rule:evenodd;fill:#FFDDCF;}
	.st48{fill-rule:evenodd;clip-rule:evenodd;fill:#B0E7F8;}
	.st49{fill-rule:evenodd;clip-rule:evenodd;fill:#968AA0;}
	.st50{fill:#9D9BE6;}
	.st51{fill:#CFCEF3;}
	.st52{fill-rule:evenodd;clip-rule:evenodd;fill:#D8D8D8;}
	.st53{fill-rule:evenodd;clip-rule:evenodd;fill:#B6B4ED;}
	.st54{fill-rule:evenodd;clip-rule:evenodd;fill:#FFD4BE;}
</style>
<g>
	<g>
		<path class="st11" d="M95.293,92.957l-3.863,13.521h4.461l7.761-14.289l-0.006-0.005C100.987,92.68,98.188,92.952,95.293,92.957z"
			/>
	</g>
	<g>
		<g>
			<g>
				<path class="st9" d="M121.737,31.941c4.061-4.061,4.061-10.644,0-14.705c-4.061-4.061-10.644-4.061-14.705,0
					c-2.855,2.855-3.694,6.955-2.534,10.551l6.449,26.278l0.002,0.003c-4.626-1.799-10.002-2.835-15.744-2.835
					c-0.812,0-1.615,0.025-2.411,0.065c-29.696,1.351-38.44,27.397-44.256,30.405c-6.077,3.144-41.177-4.077-46.652,18.941
					c-4.303,18.089,28.225,31.74,49.534,15.373c8.422-6.469,12.828-16.453,16.252-26.661c5.716,2.868,13.652,3.654,19.537,3.79
					l-3.809,13.331h4.461l7.343-13.52h0c17.283,0,31.294-9.341,31.294-20.863v0c0-16.564-5.28-29.775-9.339-37.489
					C118.837,34.145,120.42,33.258,121.737,31.941z"/>
			</g>
		</g>
	</g>
	<g>
		<path class="st11" d="M107.032,17.236c-4.061,4.061-4.061,10.644,0,14.705c1.751,1.751,3.973,2.743,6.258,2.984l1.094,2.586
			l1.094-2.586c2.285-0.24,4.506-1.232,6.258-2.984c4.061-4.061,4.061-10.644,0-14.705
			C117.676,13.176,111.093,13.176,107.032,17.236z"/>
	</g>
	<g>
		<path class="st7" d="M114.385,4.651c-1.616,0-2.926,1.31-2.926,2.926c0,0.419,2.926,13.751,2.926,13.751
			s2.926-13.332,2.926-13.751C117.311,5.961,116.001,4.651,114.385,4.651z"/>
	</g>
	<g>
		<polygon class="st7" points="114.385,37.511 118.785,27.113 109.985,27.113 		"/>
	</g>
	<g>
		<path class="st11" d="M48.539,81.704c-6.077,3.144-41.177-4.077-46.652,18.941c-4.303,18.089,28.225,31.74,49.534,15.373
			c23.46-18.02,15.768-63.307,42.458-64.749C63.316,52.03,54.424,78.659,48.539,81.704z"/>
	</g>
	<g>
		<path class="st11" d="M93.879,51.269c0.443-0.011,0.874-0.036,1.326-0.036C94.754,51.233,94.313,51.245,93.879,51.269z"/>
	</g>
	<g>
		<ellipse class="st7" cx="25.189" cy="102.953" rx="6.494" ry="3.909"/>
	</g>
	<g>
		<path class="st0" d="M118.785,21.328c-0.9,0-1.63,0.73-1.63,1.63c0,0.9,0.73,1.63,1.63,1.63c0.9,0,1.63-0.73,1.63-1.63
			C120.415,22.058,119.685,21.328,118.785,21.328z"/>
	</g>
	<g>
		<path class="st0" d="M109.985,21.328c-0.9,0-1.63,0.73-1.63,1.63c0,0.9,0.73,1.63,1.63,1.63c0.9,0,1.63-0.73,1.63-1.63
			C111.615,22.058,110.885,21.328,109.985,21.328z"/>
	</g>
	<g>
		<path class="st4" d="M31.682,104.453c-0.688,0-1.308-0.477-1.463-1.176c-0.179-0.809,0.332-1.609,1.14-1.789
			c19.178-4.245,26.002-16.35,32.601-28.056c6.678-11.846,12.986-23.035,31.191-23.699c0.821-0.044,1.523,0.616,1.554,1.444
			s-0.617,1.523-1.444,1.554c-16.526,0.603-22.162,10.6-28.687,22.175c-6.6,11.707-14.081,24.977-34.566,29.512
			C31.898,104.441,31.789,104.453,31.682,104.453z"/>
	</g>
	<g>
		<path class="st4" d="M25.188,108.362c-4.483,0-7.994-2.376-7.994-5.409s3.511-5.409,7.994-5.409s7.995,2.376,7.995,5.409
			S29.671,108.362,25.188,108.362z M25.188,100.544c-2.812,0-4.994,1.295-4.994,2.409s2.182,2.409,4.994,2.409
			c2.813,0,4.995-1.295,4.995-2.409S28.001,100.544,25.188,100.544z"/>
	</g>
	<g>
		<path class="st0" d="M29.48,124.849c-7.461,0-14.531-2.109-19.826-5.539c-7.46-4.831-10.909-11.938-9.227-19.012
			c4.291-18.041,25.53-18.656,38.22-19.023c4.061-0.117,7.896-0.229,9.202-0.903c1.209-0.626,2.957-3.027,4.98-5.809
			c6.458-8.876,17.267-23.733,39.896-24.763c0.814-0.041,1.642-0.067,2.479-0.067c4.713,0,9.369,0.69,13.628,2.011l-5.779-23.548
			c-1.354-4.263-0.239-8.864,2.917-12.02c1.433-1.434,3.176-2.457,5.105-3.009c-1.118-5.202-1.118-5.375-1.118-5.59
			c0-2.44,1.985-4.426,4.426-4.426s4.426,1.985,4.426,4.426c0,0.215,0,0.388-1.118,5.59c1.929,0.552,3.672,1.575,5.105,3.009
			c2.247,2.247,3.485,5.234,3.485,8.412c0,3.179-1.238,6.166-3.485,8.413c-1.02,1.021-2.218,1.846-3.526,2.435
			c0.917,1.841,1.784,3.759,2.585,5.724c0.312,0.767-0.056,1.643-0.823,1.955c-0.768,0.314-1.643-0.055-1.956-0.822
			c-0.989-2.425-2.08-4.775-3.244-6.987c-0.211-0.401-0.229-0.878-0.049-1.294c0.181-0.417,0.54-0.729,0.978-0.851
			c1.475-0.406,2.829-1.195,3.913-2.28c1.681-1.681,2.607-3.915,2.607-6.292c0-2.376-0.926-4.61-2.606-6.291
			c-1.352-1.353-3.075-2.216-4.984-2.499c-0.41-0.061-0.777-0.288-1.014-0.63c-0.236-0.341-0.32-0.765-0.233-1.17
			c1.067-4.941,1.311-6.19,1.363-6.501c-0.042-0.749-0.665-1.346-1.424-1.346s-1.382,0.597-1.423,1.347
			c0.052,0.31,0.296,1.56,1.363,6.5c0.087,0.405,0.003,0.829-0.233,1.17c-0.236,0.342-0.604,0.569-1.014,0.63
			c-1.909,0.283-3.633,1.146-4.985,2.499c-2.369,2.369-3.199,5.829-2.167,9.029c0.011,0.034,0.021,0.068,0.029,0.104l6.442,26.25
			c0.113,0.424,0.038,0.89-0.231,1.263c-0.399,0.556-1.122,0.772-1.76,0.523c-4.597-1.788-9.853-2.733-15.201-2.733
			c-0.786,0-1.564,0.024-2.335,0.063c-21.196,0.965-31.474,15.092-37.614,23.532c-2.431,3.341-4.188,5.756-6.028,6.707
			c-1.914,0.99-5.512,1.095-10.493,1.238C26.14,84.638,7.105,85.189,3.347,100.991c-1.396,5.87,1.497,11.629,7.938,15.801
			c9.886,6.401,26.533,7.782,39.223-1.964c8.355-6.419,12.647-16.72,15.744-25.949c0.138-0.412,0.448-0.743,0.85-0.909
			c0.403-0.164,0.856-0.147,1.245,0.046c5.516,2.769,13.322,3.503,18.898,3.631c0.464,0.011,0.897,0.236,1.173,0.61
			c0.275,0.374,0.362,0.854,0.234,1.302l-3.263,11.42h1.581l6.917-12.735c0.263-0.483,0.769-0.784,1.318-0.784
			c16.429,0,29.794-8.687,29.794-19.363c0-7.5-1.116-15.034-3.315-22.394c-0.237-0.794,0.214-1.63,1.007-1.867
			c0.795-0.239,1.63,0.214,1.867,1.008C126.842,56.48,128,64.304,128,72.096c0,12.126-14.228,22.029-31.897,22.355l-6.921,12.743
			c-0.263,0.483-0.769,0.784-1.318,0.784h-4.461c-0.471,0-0.914-0.221-1.197-0.597c-0.284-0.376-0.375-0.862-0.245-1.315
			l3.282-11.487c-5.138-0.236-11.526-1.016-16.683-3.169c-3.205,9.239-7.714,19.261-16.223,25.797
			C45.324,122.592,37.193,124.848,29.48,124.849z"/>
	</g>
	<g>
		<path class="st0" d="M29.48,124.849c-7.461,0-14.531-2.109-19.826-5.539c-7.46-4.831-10.909-11.938-9.227-19.012
			c4.291-18.041,25.53-18.655,38.22-19.022c4.061-0.117,7.896-0.229,9.202-0.903c1.209-0.626,2.957-3.026,4.98-5.806
			c6.592-9.057,17.626-24.215,41.012-24.798c0.789-0.022,1.503,0.622,1.536,1.44c0.032,0.819-0.599,1.513-1.418,1.558
			c-11.037,0.597-15.892,9.036-20.548,23.413c-0.255,0.789-1.101,1.221-1.89,0.965c-0.788-0.255-1.22-1.101-0.965-1.889
			c2.537-7.832,5.5-15.572,10.834-20.439C67.73,59.193,60.186,69.558,55.255,76.331c-2.431,3.341-4.188,5.754-6.027,6.705
			c-1.914,0.99-5.513,1.094-10.494,1.238c-12.595,0.364-31.629,0.915-35.388,16.717c-1.396,5.87,1.497,11.629,7.938,15.801
			c9.886,6.401,26.533,7.782,39.223-1.964c9.414-7.231,13.568-18.738,17.661-31.929c0.246-0.792,1.088-1.232,1.877-0.988
			c0.792,0.245,1.234,1.086,0.988,1.877c-4.091,13.185-8.6,25.662-18.699,33.419C45.324,122.592,37.193,124.848,29.48,124.849z"/>
	</g>
	<g>
		<path class="st0" d="M114.385,39.011c-0.603,0-1.146-0.36-1.381-0.915l-4.4-10.397c-0.196-0.464-0.147-0.994,0.131-1.413
			c0.278-0.42,0.748-0.672,1.25-0.672h8.8c0.503,0,0.973,0.252,1.25,0.672c0.278,0.419,0.327,0.949,0.131,1.413l-4.4,10.397
			C115.531,38.65,114.987,39.011,114.385,39.011z M112.249,28.613l2.136,5.049l2.136-5.049H112.249z"/>
	</g>
	<g>
		<path class="st0" d="M114.385,39.011c-0.603,0-1.146-0.36-1.381-0.915l-0.765-1.809c-2.365-0.435-4.563-1.582-6.267-3.286
			c-2.247-2.247-3.484-5.234-3.484-8.413c0-3.178,1.238-6.165,3.485-8.412c1.433-1.434,3.176-2.457,5.105-3.009
			c-1.118-5.202-1.118-5.375-1.118-5.59c0-2.44,1.985-4.426,4.426-4.426s4.426,1.985,4.426,4.426c0,0.215,0,0.388-1.118,5.59
			c1.929,0.552,3.672,1.575,5.104,3.009l0,0c0,0,0,0,0,0c2.247,2.247,3.485,5.235,3.485,8.412c0,3.179-1.238,6.166-3.485,8.413
			c-1.703,1.704-3.901,2.852-6.266,3.286l-0.765,1.809C115.531,38.65,114.987,39.011,114.385,39.011z M112.961,7.497
			c0.052,0.311,0.296,1.561,1.363,6.501c0.087,0.405,0.003,0.829-0.233,1.17c-0.236,0.342-0.604,0.569-1.014,0.63
			c-1.909,0.283-3.633,1.147-4.985,2.499c-3.469,3.469-3.469,9.114,0,12.583c1.454,1.454,3.306,2.337,5.355,2.553
			c0.364,0.039,0.694,0.208,0.937,0.466c0.243-0.258,0.573-0.427,0.937-0.466c2.05-0.216,3.901-1.099,5.354-2.553
			c1.681-1.681,2.607-3.915,2.607-6.292c0-2.376-0.926-4.61-2.606-6.291c0,0,0,0,0,0c-1.352-1.353-3.075-2.216-4.984-2.499
			c-0.41-0.061-0.777-0.288-1.014-0.63c-0.236-0.341-0.32-0.765-0.233-1.17c1.067-4.94,1.311-6.19,1.363-6.501
			c-0.041-0.749-0.664-1.346-1.423-1.346S113.002,6.748,112.961,7.497z"/>
	</g>
	<g>
		<path class="st4" d="M87.004,77.885c-0.829,0-1.5-0.672-1.5-1.5s0.671-1.5,1.5-1.5c9.691,0,16.235-2.039,18.926-5.897
			c2.364-3.391,1.031-7.125,1.017-7.162c-0.286-0.777,0.112-1.64,0.889-1.926c0.779-0.289,1.639,0.111,1.926,0.889
			c0.078,0.213,1.878,5.256-1.372,9.915C105.067,75.469,97.872,77.885,87.004,77.885z"/>
	</g>
	<g>
		<path class="st0" d="M95.206,82.312H91.43c-2.75,0-5.068-1.883-5.734-4.427h-1.381c-3.268,0-5.926-2.659-5.926-5.927
			c0-0.828,0.671-1.5,1.5-1.5s1.5,0.672,1.5,1.5c0,1.614,1.312,2.927,2.926,2.927h2.689c0.829,0,1.5,0.672,1.5,1.5
			c0,1.614,1.312,2.927,2.926,2.927h3.775c8.808,0,15.844-3.778,18.364-9.861c1.981-4.782,0.639-10.003-3.682-14.324
			c-0.586-0.586-0.586-1.535,0-2.121s1.535-0.586,2.121,0c5.145,5.145,6.765,11.722,4.333,17.594
			C113.349,77.823,105.25,82.312,95.206,82.312z"/>
	</g>
	<g>
		<path class="st0" d="M83.196,124.849h-4.118c-0.499,0-0.964-0.247-1.243-0.66s-0.334-0.938-0.148-1.4l6.794-16.87
			c0.31-0.768,1.185-1.142,1.952-0.831c0.768,0.31,1.14,1.184,0.831,1.952l-5.965,14.81h1.896c0.829,0,1.5,0.672,1.5,1.5
			S84.024,124.849,83.196,124.849z"/>
	</g>
	<g>
		<path class="st0" d="M95.891,107.979H91.43c-0.471,0-0.914-0.221-1.198-0.597c-0.283-0.376-0.374-0.862-0.245-1.315l3.863-13.521
			c0.184-0.643,0.771-1.087,1.44-1.088c2.729-0.005,5.448-0.256,8.081-0.747c0.439-0.08,0.892,0.037,1.235,0.322
			c0.549,0.458,0.705,1.245,0.364,1.873l-7.761,14.289C96.947,107.678,96.441,107.979,95.891,107.979z M93.419,104.979h1.58
			l5.897-10.857c-1.477,0.176-2.969,0.283-4.467,0.32L93.419,104.979z"/>
	</g>
	<g>
		<path class="st0" d="M91.224,124.849h-4.118c-0.499,0-0.964-0.247-1.243-0.66s-0.334-0.938-0.148-1.4l6.794-16.87
			c0.31-0.768,1.185-1.142,1.952-0.831c0.768,0.31,1.14,1.184,0.831,1.952l-5.965,14.81h1.896c0.829,0,1.5,0.672,1.5,1.5
			S92.053,124.849,91.224,124.849z"/>
	</g>
	<g>
		<path class="st0" d="M114.385,22.828c-0.705,0-1.314-0.49-1.465-1.179c-2.96-13.489-2.96-13.869-2.96-14.072
			c0-2.44,1.985-4.426,4.426-4.426s4.426,1.985,4.426,4.426c0,0.203,0,0.583-2.96,14.072
			C115.699,22.338,115.089,22.828,114.385,22.828z M112.961,7.498c0.102,0.608,0.72,3.519,1.424,6.78
			c0.704-3.262,1.322-6.172,1.424-6.78c-0.042-0.749-0.664-1.347-1.424-1.347S113.002,6.749,112.961,7.498z M117.305,7.632h0.01
			H117.305z"/>
	</g>
</g>
</svg>
