<?xml version="1.0" encoding="utf-8"?>
<!-- Generator: Adobe Illustrator 22.0.0, SVG Export Plug-In . SVG Version: 6.00 Build 0)  -->
<svg version="1.1" id="Layer_1" xmlns="http://www.w3.org/2000/svg" xmlns:xlink="http://www.w3.org/1999/xlink" x="0px" y="0px"
	 viewBox="0 0 128 128" style="enable-background:new 0 0 128 128;" xml:space="preserve">
<style type="text/css">
	.st0{fill:#746887;}
	.st1{fill:#FFCFB8;}
	.st2{fill:#E6B9A0;}
	.st3{fill:#D29997;}
	.st4{fill:#F98770;}
	.st5{fill:#DCA98B;}
	.st6{fill:#FFDDCF;}
	.st7{fill:#E8E8E8;}
	.st8{fill:#FFBF9E;}
	.st9{fill:#B0BACC;}
	.st10{fill:#9BA7BC;}
	.st11{fill:#B6B4ED;}
	.st12{fill:#FFBC99;}
	.st13{fill:#F8F8F8;}
	.st14{fill:#B2A7BF;}
	.st15{fill:#9B9B9B;}
	.st16{fill:#968AA0;}
	.st17{fill:#C6BBD3;}
	.st18{fill:#D8D8D8;}
	.st19{fill:#D29976;}
	.st20{fill:#FFA77B;}
	.st21{fill:#CCD3DD;}
	.st22{fill-rule:evenodd;clip-rule:evenodd;fill:#F8F8F8;}
	.st23{fill-rule:evenodd;clip-rule:evenodd;fill:#9B9B9B;}
	.st24{fill-rule:evenodd;clip-rule:evenodd;fill:#777777;}
	.st25{fill:#91DEF5;}
	.st26{fill:#B0E7F8;}
	.st27{fill-rule:evenodd;clip-rule:evenodd;fill:#DCA98B;}
	.st28{fill-rule:evenodd;clip-rule:evenodd;fill:#D29997;}
	.st29{fill-rule:evenodd;clip-rule:evenodd;fill:#FFCBBE;}
	.st30{fill-rule:evenodd;clip-rule:evenodd;fill:#E6B9A0;}
	.st31{fill-rule:evenodd;clip-rule:evenodd;fill:#746887;}
	.st32{fill-rule:evenodd;clip-rule:evenodd;fill:#FFBC99;}
	.st33{fill-rule:evenodd;clip-rule:evenodd;fill:#FFA77B;}
	.st34{fill-rule:evenodd;clip-rule:evenodd;fill:#FFCFB8;}
	.st35{fill-rule:evenodd;clip-rule:evenodd;fill:#E8E8E8;}
	.st36{fill-rule:evenodd;clip-rule:evenodd;fill:#CCD3DD;}
	.st37{fill:#E6B9C1;}
	.st38{fill:#FFCBBE;}
	.st39{fill-rule:evenodd;clip-rule:evenodd;fill:#F98770;}
	.st40{fill-rule:evenodd;clip-rule:evenodd;fill:#F2BB88;}
	.st41{fill:#F2D1A5;}
	.st42{fill-rule:evenodd;clip-rule:evenodd;fill:#F2D1A5;}
	.st43{fill:#F2BB88;}
	.st44{fill-rule:evenodd;clip-rule:evenodd;fill:#9BA7BC;}
	.st45{fill-rule:evenodd;clip-rule:evenodd;fill:#B0BACC;}
	.st46{fill-rule:evenodd;clip-rule:evenodd;fill:#FFFFFF;}
	.st47{fill-rule:evenodd;clip-rule:evenodd;fill:#FFDDCF;}
	.st48{fill-rule:evenodd;clip-rule:evenodd;fill:#B0E7F8;}
	.st49{fill-rule:evenodd;clip-rule:evenodd;fill:#968AA0;}
	.st50{fill:#9D9BE6;}
	.st51{fill:#CFCEF3;}
	.st52{fill-rule:evenodd;clip-rule:evenodd;fill:#D8D8D8;}
	.st53{fill-rule:evenodd;clip-rule:evenodd;fill:#B6B4ED;}
	.st54{fill-rule:evenodd;clip-rule:evenodd;fill:#FFD4BE;}
</style>
<g>
	<g>
		<path class="st10" d="M96.8,44.9C92.8,13.11,86.62,1.5,64,1.5S35.2,13.11,31.2,44.9c-4,2.51-7.67,7.39-10.2,11.6c-6,10-12,35-7,35
			c3.4,0,7.72-3.69,12.34-8.57c-0.76,14.44,1.43,27.37,12.34,34.57H49c3.81,0,7.08,2.37,8.38,5.73c2.07,0.18,4.28,0.27,6.62,0.27
			s4.55-0.09,6.62-0.27c0.45-1.17,1.15-2.22,2.02-3.09c1.62-1.63,3.88-2.64,6.36-2.64h10.32c10.91-7.2,13.1-20.13,12.34-34.57
			c4.62,4.88,8.94,8.57,12.34,8.57c5,0-1-25-7-35C104.47,52.29,100.8,47.41,96.8,44.9z"/>
	</g>
	<g>
		<path class="st13" d="M84.273,43.043c-0.144-2.861,0.277-5.722,1.316-8.392c1.234-3.174,1.74-7.576,1.191-10.478
			c-0.932-4.931-5.009-8.818-9.975-9.542c-2.271-0.331-4.442-0.025-6.363,0.765c-4.101,1.688-8.783,1.688-12.884,0
			c-1.921-0.79-4.092-1.096-6.363-0.765c-4.966,0.724-9.042,4.61-9.975,9.542c-0.545,2.884-0.05,7.27,1.167,10.451
			c1.038,2.712,1.466,5.609,1.299,8.509c-0.572,9.97-1.847,33.661-3.132,44.168C38.851,101.23,49.739,113.5,63.772,113.5h0
			c13.885,0,24.703-12.023,23.259-25.833C85.907,76.926,84.778,53.034,84.273,43.043z"/>
	</g>
	<g>
		<path class="st41" d="M49,117.5H28c-4.971,0-9,4.029-9,9h39C58,121.529,53.971,117.5,49,117.5z"/>
	</g>
	<g>
		<path class="st41" d="M100,117.5H79c-4.971,0-9,4.029-9,9h39C109,121.529,104.971,117.5,100,117.5z"/>
	</g>
	<g>
		<polygon class="st41" points="53,42.5 64,51.5 75,42.5 64,36.5 		"/>
	</g>
	<g>
		<circle class="st0" cx="75" cy="28.102" r="2.5"/>
	</g>
	<g>
		<circle class="st0" cx="53" cy="28.102" r="2.5"/>
	</g>
	<g>
		<path class="st0" d="M64,125c-2.377,0-4.648-0.093-6.75-0.276c-0.57-0.049-1.062-0.419-1.27-0.953
			C54.877,120.917,52.071,119,49,119H38.68c-0.294,0-0.581-0.086-0.826-0.248c-11.498-7.588-13.31-21.153-13.146-32.035
			C20.166,91.089,16.87,93,14,93c-1.068,0-1.973-0.558-2.546-1.571c-3.005-5.307,3.167-27.212,8.26-35.701
			c1.86-3.096,5.581-8.609,10.085-11.702c0.329-2.573,0.679-5.028,1.041-7.308c0.13-0.818,0.896-1.375,1.717-1.246
			c0.818,0.13,1.376,0.898,1.246,1.717c-0.389,2.45-0.764,5.107-1.114,7.897c-0.056,0.446-0.31,0.844-0.691,1.083
			c-4.245,2.665-7.907,8.1-9.711,11.103c-5.952,9.919-10.161,30.476-8.203,32.726c3.208-0.079,7.903-4.652,11.168-8.1
			c0.432-0.456,1.102-0.596,1.681-0.347c0.577,0.248,0.939,0.83,0.906,1.457C26.952,99.842,30.44,110.045,39.137,116H49
			c3.977,0,7.636,2.298,9.389,5.806c3.533,0.258,7.689,0.258,11.223,0c0.5-0.999,1.17-1.928,1.968-2.727
			C73.551,117.095,76.188,116,79,116h9.863c5.181-3.552,8.51-8.708,10.17-15.746c0.19-0.805,0.99-1.308,1.805-1.116
			c0.806,0.19,1.306,0.998,1.115,1.804c-1.883,7.983-5.745,13.809-11.807,17.809C89.901,118.914,89.614,119,89.32,119H79
			c-2.007,0-3.889,0.78-5.296,2.197c-0.739,0.739-1.32,1.627-1.684,2.571c-0.206,0.535-0.699,0.906-1.271,0.956
			C68.648,124.907,66.377,125,64,125z M14.136,90.053h0.01H14.136z"/>
	</g>
	<g>
		<path class="st0" d="M101.63,94.211c-0.035,0-0.069-0.001-0.104-0.003c-0.826-0.057-1.45-0.773-1.394-1.599
			c0.201-2.932,0.211-6.162,0.03-9.6c-0.033-0.627,0.329-1.209,0.906-1.457c0.579-0.249,1.249-0.109,1.681,0.347
			c3.265,3.448,7.96,8.021,11.168,8.1c1.958-2.25-2.251-22.807-8.203-32.727c-1.804-3.002-5.466-8.437-9.711-11.102
			c-0.382-0.239-0.635-0.637-0.691-1.083C91.154,12.047,84.424,3,64,3C46.778,3,39.521,9.666,35.238,29.416
			c-0.175,0.809-0.973,1.329-1.783,1.148c-0.811-0.175-1.324-0.974-1.148-1.784C36.855,7.8,45.445,0,64,0
			c24.341,0,30.31,13.59,34.201,44.026c4.504,3.093,8.225,8.606,10.085,11.701c5.093,8.489,11.265,30.395,8.26,35.702
			C115.973,92.442,115.068,93,114,93c-2.872,0-6.171-1.913-10.716-6.291c0.025,2.139-0.027,4.181-0.16,6.105
			C103.07,93.605,102.411,94.211,101.63,94.211z"/>
	</g>
	<g>
		<path class="st0" d="M58,128H19c-0.828,0-1.5-0.671-1.5-1.5c0-5.79,4.71-10.5,10.5-10.5h21c5.79,0,10.5,4.71,10.5,10.5
			C59.5,127.329,58.828,128,58,128z M20.65,125H56.35c-0.697-3.419-3.728-6-7.35-6H28C24.378,119,21.348,121.581,20.65,125z"/>
	</g>
	<g>
		<path class="st0" d="M109,128H70c-0.828,0-1.5-0.671-1.5-1.5c0-5.79,4.71-10.5,10.5-10.5h21c5.79,0,10.5,4.71,10.5,10.5
			C110.5,127.329,109.828,128,109,128z M71.65,125h35.699c-0.697-3.419-3.728-6-7.35-6H79C75.378,119,72.348,121.581,71.65,125z"/>
	</g>
	<g>
		<path class="st4" d="M64,53c-0.337,0-0.674-0.113-0.95-0.339l-11-9c-0.386-0.316-0.59-0.804-0.543-1.301
			c0.046-0.497,0.337-0.938,0.774-1.177l11-6c0.449-0.244,0.988-0.244,1.438,0l11,6c0.438,0.239,0.729,0.68,0.774,1.177
			c0.047,0.497-0.157,0.984-0.543,1.301l-11,9C64.674,52.887,64.337,53,64,53z M55.674,42.75L64,49.562l8.326-6.812L64,38.208
			L55.674,42.75z"/>
	</g>
	<g>
		<path class="st0" d="M101.663,84.427c-0.397,0-0.795-0.157-1.09-0.469c-2.196-2.321-4.487-4.939-6.702-7.47
			c-1.571-1.796-2.896-3.492-4.052-5.184c-0.467-0.685-0.291-1.618,0.394-2.084c0.684-0.465,1.617-0.291,2.085,0.393
			c1.087,1.592,2.34,3.195,3.831,4.9c2.196,2.51,4.467,5.105,6.624,7.384c0.569,0.602,0.543,1.551-0.059,2.12
			C102.404,84.291,102.033,84.427,101.663,84.427z"/>
	</g>
	<g>
		<path class="st0" d="M26.337,84.427c-0.37,0-0.741-0.136-1.031-0.411c-0.602-0.569-0.628-1.519-0.059-2.12
			c2.157-2.279,4.428-4.875,6.624-7.384c1.491-1.705,2.744-3.308,3.831-4.9c0.469-0.685,1.402-0.859,2.085-0.393
			c0.685,0.467,0.86,1.4,0.394,2.084c-1.155,1.692-2.48,3.388-4.052,5.184c-2.215,2.531-4.506,5.149-6.702,7.47
			C27.132,84.27,26.734,84.427,26.337,84.427z"/>
	</g>
	<g>
		<path class="st0" d="M63.771,115c-7.126,0-13.922-3.06-18.645-8.396c-4.715-5.326-6.924-12.429-6.062-19.485
			c1.164-9.511,2.327-30.033,2.953-41.058l0.172-3.014c0.156-2.738-0.248-5.391-1.204-7.887h0.001
			c-1.329-3.47-1.839-8.103-1.24-11.266c1.043-5.516,5.662-9.935,11.231-10.747c2.441-0.357,4.915-0.058,7.15,0.862
			c3.73,1.536,8.012,1.536,11.742,0c2.235-0.919,4.705-1.218,7.15-0.862c5.569,0.812,10.188,5.231,11.231,10.747
			c0.603,3.187,0.082,7.834-1.266,11.301c-0.944,2.428-1.354,5.043-1.216,7.772l0.156,3.13c0.553,11.083,1.58,31.712,2.595,41.414
			c0.732,7.008-1.551,14.029-6.265,19.262C77.548,112.001,70.81,115,63.771,115z M52.988,16.001c-0.524,0-1.051,0.038-1.576,0.115
			c-4.324,0.63-7.908,4.058-8.718,8.336c-0.489,2.586-0.019,6.728,1.094,9.636h0.001c1.107,2.895,1.577,5.966,1.396,9.131
			l-0.171,3.012c-0.627,11.06-1.795,31.645-2.97,41.252c-0.759,6.205,1.184,12.449,5.329,17.133
			C51.527,109.309,57.504,112,63.771,112c6.189,0,12.115-2.637,16.258-7.235c4.146-4.603,6.154-10.777,5.509-16.942
			c-1.022-9.783-2.053-30.465-2.606-41.576l-0.156-3.128c-0.159-3.154,0.316-6.186,1.415-9.011c1.128-2.9,1.607-7.051,1.115-9.656
			c-0.81-4.278-4.394-7.706-8.718-8.336c-1.907-0.278-3.837-0.048-5.574,0.668c-4.457,1.834-9.57,1.834-14.027,0
			C55.728,16.266,54.368,16.001,52.988,16.001z"/>
	</g>
</g>
</svg>
