<?xml version="1.0" encoding="utf-8"?>
<!-- Generator: Adobe Illustrator 22.0.0, SVG Export Plug-In . SVG Version: 6.00 Build 0)  -->
<svg version="1.1" id="Layer_1" xmlns="http://www.w3.org/2000/svg" xmlns:xlink="http://www.w3.org/1999/xlink" x="0px" y="0px"
	 viewBox="0 0 128 128" style="enable-background:new 0 0 128 128;" xml:space="preserve">
<style type="text/css">
	.st0{fill:#746887;}
	.st1{fill:#FFCFB8;}
	.st2{fill:#E6B9A0;}
	.st3{fill:#D29997;}
	.st4{fill:#F98770;}
	.st5{fill:#DCA98B;}
	.st6{fill:#FFDDCF;}
	.st7{fill:#E8E8E8;}
	.st8{fill:#FFBF9E;}
	.st9{fill:#B0BACC;}
	.st10{fill:#9BA7BC;}
	.st11{fill:#B6B4ED;}
	.st12{fill:#FFBC99;}
	.st13{fill:#F8F8F8;}
	.st14{fill:#B2A7BF;}
	.st15{fill:#9B9B9B;}
	.st16{fill:#968AA0;}
	.st17{fill:#C6BBD3;}
	.st18{fill:#D8D8D8;}
	.st19{fill:#D29976;}
	.st20{fill:#FFA77B;}
	.st21{fill:#CCD3DD;}
	.st22{fill-rule:evenodd;clip-rule:evenodd;fill:#F8F8F8;}
	.st23{fill-rule:evenodd;clip-rule:evenodd;fill:#9B9B9B;}
	.st24{fill-rule:evenodd;clip-rule:evenodd;fill:#777777;}
	.st25{fill:#91DEF5;}
	.st26{fill:#B0E7F8;}
	.st27{fill-rule:evenodd;clip-rule:evenodd;fill:#DCA98B;}
	.st28{fill-rule:evenodd;clip-rule:evenodd;fill:#D29997;}
	.st29{fill-rule:evenodd;clip-rule:evenodd;fill:#FFCBBE;}
	.st30{fill-rule:evenodd;clip-rule:evenodd;fill:#E6B9A0;}
	.st31{fill-rule:evenodd;clip-rule:evenodd;fill:#746887;}
	.st32{fill-rule:evenodd;clip-rule:evenodd;fill:#FFBC99;}
	.st33{fill-rule:evenodd;clip-rule:evenodd;fill:#FFA77B;}
	.st34{fill-rule:evenodd;clip-rule:evenodd;fill:#FFCFB8;}
	.st35{fill-rule:evenodd;clip-rule:evenodd;fill:#E8E8E8;}
	.st36{fill-rule:evenodd;clip-rule:evenodd;fill:#CCD3DD;}
	.st37{fill:#E6B9C1;}
	.st38{fill:#FFCBBE;}
	.st39{fill-rule:evenodd;clip-rule:evenodd;fill:#F98770;}
	.st40{fill-rule:evenodd;clip-rule:evenodd;fill:#F2BB88;}
	.st41{fill:#F2D1A5;}
	.st42{fill-rule:evenodd;clip-rule:evenodd;fill:#F2D1A5;}
	.st43{fill:#F2BB88;}
	.st44{fill-rule:evenodd;clip-rule:evenodd;fill:#9BA7BC;}
	.st45{fill-rule:evenodd;clip-rule:evenodd;fill:#B0BACC;}
	.st46{fill-rule:evenodd;clip-rule:evenodd;fill:#FFFFFF;}
	.st47{fill-rule:evenodd;clip-rule:evenodd;fill:#FFDDCF;}
	.st48{fill-rule:evenodd;clip-rule:evenodd;fill:#B0E7F8;}
	.st49{fill-rule:evenodd;clip-rule:evenodd;fill:#968AA0;}
	.st50{fill:#9D9BE6;}
	.st51{fill:#CFCEF3;}
	.st52{fill-rule:evenodd;clip-rule:evenodd;fill:#D8D8D8;}
	.st53{fill-rule:evenodd;clip-rule:evenodd;fill:#B6B4ED;}
	.st54{fill-rule:evenodd;clip-rule:evenodd;fill:#FFD4BE;}
</style>
<g>
	<g>
		<path class="st17" d="M29.837,88.869c0,0-6.402,6.408,3.522,16.333h15.809v-0.156c0-4.381,3.552-7.933,7.933-7.933h13.662
			c4.381,0,7.933,3.552,7.933,7.933h15.809c9.925-9.925,3.522-16.177,3.522-16.177H29.837z"/>
	</g>
	<g>
		<path class="st16" d="M41.264,105.046v0.156h7.904v-0.156c0-4.381,3.552-7.933,7.933-7.933h-7.904
			C44.816,97.113,41.264,100.665,41.264,105.046z"/>
	</g>
	<g>
		<path class="st16" d="M93.819,63.029c-0.007,0.003,3.887-7.848,3.887-7.848l3.436,2.381l2.722-5.467l-9.003-18.083l-8.261,13.627
			L71.966,27.9l-5.104,14.039L47.721,22.798v13.944H20.733l11.959,11.959H5.655L18.23,61.276L1.5,73.1h24.67l-15.596,15.77h90.737
			c-0.068-0.08-0.152-0.13-0.262-0.142c-9.523-0.966-16.843-6.756-16.843-13.753C84.207,69.895,88.063,65.453,93.819,63.029z"/>
	</g>
	<g>
		<path class="st17" d="M113.923,63.033c0.004,0.001-3.895-7.852-3.895-7.852l-3.436,2.381l-2.725-5.473l-2.725,5.473l-3.436-2.381
			c0,0-3.894,7.851-3.887,7.848c-5.756,2.424-9.612,6.866-9.612,11.945c0,6.998,7.319,12.787,16.843,13.753
			c0.92,0.093,0.032,2.927,2.818,2.927c2.786,0,1.882-2.833,2.795-2.925c9.534-0.959,16.866-6.752,16.866-13.756
			C123.528,69.897,119.675,65.457,113.923,63.033z"/>
	</g>
	<g>
		<path class="st18" d="M113.698,72.044c-5.429,0-9.83,4.401-9.83,9.83c0,2.666,1.062,5.084,2.786,6.855
			c7.909-0.793,14.304-4.911,16.258-10.289C121.518,74.705,117.919,72.044,113.698,72.044z"/>
	</g>
	<g>
		<path class="st18" d="M94.037,72.044c-4.221,0-7.821,2.661-9.213,6.397c1.954,5.377,8.349,9.495,16.258,10.289
			c1.724-1.771,2.786-4.189,2.786-6.855C103.867,76.446,99.466,72.044,94.037,72.044z"/>
	</g>
	<g>
		<path class="st18" d="M113.938,63.036c0,0,0.003,0.002,0.005,0.005c4.7,1.987,8.128,5.321,9.216,9.248
			c0.003,0.003,0.005,0.006,0.005,0.006c2.361-2.578,4.909-6.519,2.104-9.499C120.733,57.976,113.938,63.036,113.938,63.036z"/>
	</g>
	<g>
		<path class="st18" d="M82.465,62.796c-2.805,2.98-0.257,6.92,2.104,9.499c0,0,0.003-0.002,0.005-0.006
			c1.088-3.927,4.516-7.261,9.216-9.248c0.003-0.003,0.005-0.005,0.005-0.005S87.002,57.976,82.465,62.796z"/>
	</g>
	<g>
		<path class="st16" d="M106.592,57.562l-2.725-5.473l-2.725,5.473l-3.436-2.381l-3.911,7.854c0,0,0.001,0.001,0.002,0.002
			c2.945-1.243,6.389-1.959,10.069-1.959c3.68,0,7.123,0.716,10.069,1.959c0.002-0.001,0.002-0.002,0.002-0.002l-3.91-7.854
			L106.592,57.562z"/>
	</g>
	<g>
		<path class="st0" d="M113.374,78.744c-0.903,0-1.635,0.732-1.635,1.635c0,0.903,0.732,1.635,1.635,1.635
			c0.903,0,1.635-0.732,1.635-1.635C115.01,79.476,114.277,78.744,113.374,78.744z"/>
	</g>
	<g>
		<path class="st0" d="M94.36,78.744c-0.903,0-1.635,0.732-1.635,1.635c0,0.903,0.732,1.635,1.635,1.635s1.635-0.732,1.635-1.635
			C95.995,79.476,95.263,78.744,94.36,78.744z"/>
	</g>
	<g>
		<path class="st0" d="M101.311,90.369H10.574c-0.605,0-1.151-0.363-1.384-0.922c-0.233-0.559-0.108-1.202,0.317-1.633L22.577,74.6
			H1.5c-0.653,0-1.231-0.423-1.43-1.046s0.03-1.302,0.563-1.679l15.277-10.797L4.595,49.762c-0.429-0.429-0.558-1.074-0.325-1.635
			s0.779-0.926,1.386-0.926h23.416l-9.398-9.398c-0.429-0.429-0.558-1.074-0.325-1.635s0.779-0.926,1.386-0.926h12.56
			c0.828,0,1.5,0.672,1.5,1.5s-0.672,1.5-1.5,1.5h-8.938l9.398,9.398c0.429,0.429,0.558,1.074,0.325,1.635s-0.779,0.926-1.386,0.926
			H9.276l10.015,10.014c0.312,0.312,0.472,0.747,0.434,1.188c-0.037,0.44-0.268,0.842-0.628,1.097L6.222,71.6H26.17
			c0.605,0,1.151,0.363,1.384,0.922c0.233,0.559,0.108,1.202-0.317,1.633L14.167,87.369h77.05c-5.229-2.804-8.51-7.309-8.51-12.395
			c0-5.352,3.839-10.342,10.058-13.122c0.331-0.747,0.862-1.819,1.653-3.415l1.945-3.923c0.193-0.39,0.548-0.677,0.97-0.785
			c0.422-0.109,0.87-0.028,1.229,0.22l2.011,1.393l1.616-3.247l-7.456-14.977l-6.849,11.298c-0.26,0.428-0.714,0.698-1.214,0.721
			c-0.479,0.027-0.977-0.203-1.274-0.604L72.423,31.035l-4.15,11.417c-0.176,0.481-0.585,0.841-1.085,0.952
			c-0.503,0.107-1.023-0.042-1.386-0.404l-16.58-16.581v10.323c0,0.828-0.672,1.5-1.5,1.5h-6.77c-0.828,0-1.5-0.672-1.5-1.5
			s0.672-1.5,1.5-1.5h5.27V22.798c0-0.606,0.365-1.153,0.926-1.386c0.561-0.231,1.206-0.104,1.635,0.325l17.476,17.476l4.298-11.825
			c0.189-0.519,0.647-0.892,1.194-0.972c0.551-0.083,1.092,0.148,1.421,0.591l13.305,17.944l7.103-11.717
			c0.284-0.468,0.773-0.762,1.346-0.722c0.546,0.023,1.037,0.341,1.28,0.83l9.003,18.083c0.21,0.422,0.21,0.916,0,1.337
			l-2.722,5.468c-0.194,0.391-0.548,0.677-0.97,0.785c-0.421,0.108-0.868,0.028-1.228-0.221l-2.009-1.392
			c-1.087,2.192-2.955,5.96-3.099,6.256c-0.155,0.336-0.431,0.606-0.779,0.753c-5.363,2.258-8.694,6.306-8.694,10.562
			c0,6.094,6.661,11.365,15.494,12.261c0.486,0.048,0.935,0.285,1.257,0.668c0.376,0.446,0.459,1.07,0.213,1.599
			C102.424,90.031,101.894,90.369,101.311,90.369z M100.896,90.22c0.002,0,0.004,0,0.007,0.001
			C100.9,90.22,100.898,90.22,100.896,90.22z"/>
	</g>
	<g>
		<path class="st4" d="M106.653,90.229c-0.402,0-0.791-0.162-1.075-0.454c-2.07-2.127-3.211-4.933-3.211-7.901
			c0-6.247,5.083-11.33,11.33-11.33c4.708,0,8.976,2.963,10.619,7.374c0.125,0.334,0.126,0.701,0.005,1.036
			c-2.18,5.996-9.056,10.419-17.519,11.268C106.753,90.227,106.703,90.229,106.653,90.229z M113.697,73.544
			c-4.593,0-8.33,3.737-8.33,8.33c0,1.942,0.664,3.791,1.885,5.276c6.618-0.864,12.123-4.276,14.042-8.7
			C119.958,75.494,116.973,73.544,113.697,73.544z"/>
	</g>
	<g>
		<path class="st4" d="M101.082,90.229c-0.05,0-0.1-0.003-0.149-0.008c-8.462-0.848-15.339-5.271-17.52-11.268
			c-0.121-0.335-0.12-0.703,0.005-1.037c1.645-4.41,5.912-7.373,10.619-7.373c6.247,0,11.33,5.083,11.33,11.33
			c0,2.969-1.14,5.775-3.21,7.901C101.873,90.067,101.484,90.229,101.082,90.229z M86.44,78.45c1.92,4.425,7.425,7.836,14.043,8.7
			c1.22-1.485,1.884-3.333,1.884-5.276c0-4.593-3.737-8.33-8.33-8.33C90.763,73.544,87.777,75.494,86.44,78.45z"/>
	</g>
	<g>
		<path class="st0" d="M103.867,93.155c-2.808,0-3.453-2.07-3.691-3.018c-10.165-1.282-17.469-7.577-17.469-15.164
			c0-5.351,3.839-10.341,10.058-13.121c0.331-0.747,0.862-1.819,1.653-3.415l1.945-3.923c0.193-0.39,0.548-0.677,0.97-0.785
			c0.422-0.109,0.87-0.028,1.229,0.22l2.011,1.393l1.952-3.921c0.254-0.51,0.773-0.832,1.343-0.832s1.089,0.322,1.343,0.832
			l1.952,3.922l2.012-1.395c0.357-0.248,0.807-0.33,1.229-0.219c0.422,0.108,0.775,0.395,0.97,0.785l1.948,3.925
			c0.802,1.615,1.332,2.684,1.659,3.418c6.213,2.78,10.049,7.769,10.049,13.116c0,7.467-7.464,13.892-17.481,15.165
			C107.312,91.095,106.673,93.155,103.867,93.155z M95.181,63.659c-0.155,0.335-0.431,0.605-0.779,0.753
			c-5.363,2.258-8.694,6.305-8.694,10.562c0,6.095,6.661,11.366,15.494,12.262c1.388,0.142,1.715,1.479,1.854,2.051
			c0.206,0.845,0.229,0.869,0.812,0.869c0.582,0,0.598-0.016,0.798-0.861c0.136-0.573,0.454-1.917,1.847-2.057
			c8.846-0.89,15.517-6.162,15.517-12.264c0-4.254-3.329-8.3-8.688-10.559c-0.346-0.146-0.621-0.413-0.777-0.747
			c-0.135-0.278-2.015-4.065-3.107-6.266l-2.01,1.394c-0.359,0.246-0.808,0.326-1.228,0.22c-0.422-0.108-0.775-0.395-0.97-0.785
			l-1.382-2.775l-1.382,2.775c-0.194,0.391-0.548,0.677-0.97,0.785c-0.421,0.108-0.868,0.028-1.228-0.221l-2.009-1.392
			C97.192,59.596,95.325,63.361,95.181,63.659z"/>
	</g>
	<g>
		<path class="st0" d="M113.936,64.538c-0.197,0-0.396-0.039-0.584-0.118c-2.85-1.204-6.129-1.841-9.484-1.841
			c-3.354,0-6.634,0.637-9.484,1.841c-0.405,0.171-0.862,0.155-1.255-0.04c-0.145-0.072-0.278-0.169-0.393-0.283
			c-0.456-0.456-0.569-1.152-0.282-1.729l3.911-7.854c0.194-0.39,0.548-0.676,0.97-0.784c0.423-0.105,0.869-0.027,1.228,0.221
			l2.011,1.393l1.952-3.921c0.254-0.51,0.773-0.832,1.343-0.832s1.089,0.322,1.343,0.832l1.952,3.922l2.012-1.395
			c0.357-0.248,0.805-0.328,1.228-0.22c0.422,0.108,0.775,0.395,0.97,0.784l3.91,7.854c0.231,0.466,0.206,1.017-0.067,1.459
			c-0.111,0.18-0.257,0.33-0.426,0.446C114.535,64.447,114.237,64.538,113.936,64.538z M93.796,63.036h0.01H93.796z M98.277,57.401
			l-1.526,3.066c4.541-1.172,9.692-1.171,14.233-0.001l-1.526-3.065l-2.012,1.395c-0.359,0.246-0.808,0.326-1.228,0.22
			c-0.422-0.108-0.775-0.395-0.97-0.785l-1.382-2.775l-1.382,2.775c-0.194,0.391-0.548,0.677-0.97,0.785
			c-0.421,0.108-0.868,0.028-1.228-0.221L98.277,57.401z"/>
	</g>
	<g>
		<path class="st0" d="M123.165,73.795c-0.038,0-0.076-0.001-0.115-0.005c-0.408-0.031-0.783-0.228-1.041-0.54
			c-0.137-0.163-0.237-0.354-0.294-0.561c-0.944-3.408-3.989-6.421-8.354-8.267c-0.137-0.058-0.264-0.136-0.378-0.23
			c-0.332-0.274-0.532-0.682-0.543-1.117c-0.014-0.487,0.212-0.951,0.603-1.242c2.722-2.027,9.005-4.649,13.32-0.064
			c1.604,1.705,3.467,5.472-2.091,11.539C123.986,73.619,123.584,73.795,123.165,73.795z M117.146,62.967
			c2.887,1.689,5.113,3.902,6.45,6.41c1.31-1.899,2.039-4.003,0.582-5.552C122.038,61.554,119.145,62.128,117.146,62.967z"/>
	</g>
	<g>
		<path class="st0" d="M84.569,73.795c-0.011,0-0.021,0-0.033,0c-0.409-0.01-0.797-0.186-1.073-0.487
			c-5.558-6.067-3.695-9.834-2.09-11.539c4.312-4.583,10.598-1.963,13.319,0.064c0.349,0.261,0.568,0.66,0.6,1.095
			s-0.127,0.861-0.436,1.169c-0.137,0.137-0.304,0.251-0.481,0.326c-4.366,1.846-7.411,4.858-8.354,8.267
			c-0.068,0.249-0.201,0.477-0.385,0.66l-0.006,0.006C85.349,73.637,84.967,73.795,84.569,73.795z M87.314,62.211
			c-1.298,0-2.628,0.414-3.757,1.614c-1.458,1.549-0.729,3.653,0.581,5.552c1.34-2.512,3.57-4.728,6.464-6.418
			C89.652,62.555,88.497,62.211,87.314,62.211z"/>
	</g>
	<g>
		<path class="st4" d="M86.6,106.546c-0.265,0-0.532-0.069-0.774-0.216c-0.709-0.428-0.937-1.349-0.51-2.058l0,0
			c0.021-0.034,2.056-3.463,2.433-7.312c0.081-0.824,0.812-1.423,1.64-1.347c0.824,0.081,1.427,0.814,1.347,1.64
			c-0.445,4.544-2.752,8.406-2.85,8.568C87.603,106.288,87.107,106.546,86.6,106.546z"/>
	</g>
	<g>
		<path class="st0" d="M49.168,106.702H33.359c-0.397,0-0.779-0.158-1.061-0.439c-10.859-10.859-3.598-18.379-3.523-18.454
			c0.281-0.281,0.663-0.439,1.062-0.439h68.19c0.392,0,0.768,0.153,1.048,0.427c0.101,0.098,2.46,2.448,2.483,6.502
			c0.023,3.836-1.993,7.81-5.993,11.81c-0.281,0.281-0.663,0.439-1.061,0.439H78.696c-0.828,0-1.5-0.672-1.5-1.5
			c0-3.548-2.886-6.434-6.433-6.434c-0.828,0-1.5-0.672-1.5-1.5s0.672-1.5,1.5-1.5c4.69,0,8.593,3.442,9.313,7.934h13.798
			c6.812-7.095,4.466-11.773,3.453-13.178H30.545c-1.013,1.429-3.387,6.216,3.444,13.333h13.774
			c0.654-4.567,4.593-8.089,9.338-8.089h5.882c0.828,0,1.5,0.672,1.5,1.5s-0.672,1.5-1.5,1.5h-5.882
			c-3.548,0-6.434,2.886-6.434,6.434v0.155C50.668,106.03,49.996,106.702,49.168,106.702z"/>
	</g>
	<g>
		<path class="st0" d="M49.169,106.702h-7.905c-0.828,0-1.5-0.672-1.5-1.5v-0.156c0-5.201,4.231-9.433,9.434-9.433h7.904
			c0.828,0,1.5,0.672,1.5,1.5s-0.672,1.5-1.5,1.5c-3.547,0-6.433,2.886-6.433,6.433v0.156
			C50.669,106.03,49.997,106.702,49.169,106.702z M42.905,103.702h4.859c0.279-1.951,1.158-3.712,2.444-5.089h-1.012
			C46.11,98.613,43.524,100.798,42.905,103.702z"/>
	</g>
</g>
</svg>
