<?xml version="1.0" encoding="utf-8"?>
<!-- Generator: Adobe Illustrator 22.0.0, SVG Export Plug-In . SVG Version: 6.00 Build 0)  -->
<svg version="1.1" id="Layer_1" xmlns="http://www.w3.org/2000/svg" xmlns:xlink="http://www.w3.org/1999/xlink" x="0px" y="0px"
	 viewBox="0 0 128 128" style="enable-background:new 0 0 128 128;" xml:space="preserve">
<style type="text/css">
	.st0{fill:#746887;}
	.st1{fill:#FFCFB8;}
	.st2{fill:#E6B9A0;}
	.st3{fill:#D29997;}
	.st4{fill:#F98770;}
	.st5{fill:#DCA98B;}
	.st6{fill:#FFDDCF;}
	.st7{fill:#E8E8E8;}
	.st8{fill:#FFBF9E;}
	.st9{fill:#B0BACC;}
	.st10{fill:#9BA7BC;}
	.st11{fill:#B6B4ED;}
	.st12{fill:#FFBC99;}
	.st13{fill:#F8F8F8;}
	.st14{fill:#B2A7BF;}
	.st15{fill:#9B9B9B;}
	.st16{fill:#968AA0;}
	.st17{fill:#C6BBD3;}
	.st18{fill:#D8D8D8;}
	.st19{fill:#D29976;}
	.st20{fill:#FFA77B;}
	.st21{fill:#CCD3DD;}
	.st22{fill-rule:evenodd;clip-rule:evenodd;fill:#F8F8F8;}
	.st23{fill-rule:evenodd;clip-rule:evenodd;fill:#9B9B9B;}
	.st24{fill-rule:evenodd;clip-rule:evenodd;fill:#777777;}
	.st25{fill:#91DEF5;}
	.st26{fill:#B0E7F8;}
	.st27{fill-rule:evenodd;clip-rule:evenodd;fill:#DCA98B;}
	.st28{fill-rule:evenodd;clip-rule:evenodd;fill:#D29997;}
	.st29{fill-rule:evenodd;clip-rule:evenodd;fill:#FFCBBE;}
	.st30{fill-rule:evenodd;clip-rule:evenodd;fill:#E6B9A0;}
	.st31{fill-rule:evenodd;clip-rule:evenodd;fill:#746887;}
	.st32{fill-rule:evenodd;clip-rule:evenodd;fill:#FFBC99;}
	.st33{fill-rule:evenodd;clip-rule:evenodd;fill:#FFA77B;}
	.st34{fill-rule:evenodd;clip-rule:evenodd;fill:#FFCFB8;}
	.st35{fill-rule:evenodd;clip-rule:evenodd;fill:#E8E8E8;}
	.st36{fill-rule:evenodd;clip-rule:evenodd;fill:#CCD3DD;}
	.st37{fill:#E6B9C1;}
	.st38{fill:#FFCBBE;}
	.st39{fill-rule:evenodd;clip-rule:evenodd;fill:#F98770;}
	.st40{fill-rule:evenodd;clip-rule:evenodd;fill:#F2BB88;}
	.st41{fill:#F2D1A5;}
	.st42{fill-rule:evenodd;clip-rule:evenodd;fill:#F2D1A5;}
	.st43{fill:#F2BB88;}
	.st44{fill-rule:evenodd;clip-rule:evenodd;fill:#9BA7BC;}
	.st45{fill-rule:evenodd;clip-rule:evenodd;fill:#B0BACC;}
	.st46{fill-rule:evenodd;clip-rule:evenodd;fill:#FFFFFF;}
	.st47{fill-rule:evenodd;clip-rule:evenodd;fill:#FFDDCF;}
	.st48{fill-rule:evenodd;clip-rule:evenodd;fill:#B0E7F8;}
	.st49{fill-rule:evenodd;clip-rule:evenodd;fill:#968AA0;}
	.st50{fill:#9D9BE6;}
	.st51{fill:#CFCEF3;}
	.st52{fill-rule:evenodd;clip-rule:evenodd;fill:#D8D8D8;}
	.st53{fill-rule:evenodd;clip-rule:evenodd;fill:#B6B4ED;}
	.st54{fill-rule:evenodd;clip-rule:evenodd;fill:#FFD4BE;}
</style>
<g>
	<g>
		<path class="st35" d="M11.85,60.04C11.57,60.01,11.29,60,11,60c-5.25,0-9.5,4.25-9.5,9.5S5.75,79,11,79
			c0.53,0,1.04-0.04,1.55-0.13c-0.01-0.1-0.01-0.21-0.01-0.32c0-3.61,1.32-7.2,3.5-10.12C13.96,66.08,12.48,63.21,11.85,60.04z"/>
	</g>
	<g>
		<path class="st29" d="M16.9,88.63c0.68,6.28,2.43,17.2,6.6,21.37h10V91.89c-1.65,0.63-3.43,0.98-5.28,0.98
			C23.79,92.87,19.76,91.31,16.9,88.63z"/>
	</g>
	<g>
		<path class="st29" d="M87.55,93.87c-1.44,6.94-3.24,13.87-5.05,16.13h10c2.82-3.53,6.14-15.52,7.85-22.27
			C97.15,91.28,92.58,93.64,87.55,93.87z"/>
	</g>
	<g>
		<path class="st29" d="M72.5,86.53V110h10c1.81-2.26,3.61-9.19,5.05-16.13c-0.28,0.01-0.55,0.02-0.83,0.02
			C80.81,93.89,75.69,90.95,72.5,86.53z"/>
	</g>
	<g>
		<path class="st29" d="M33.5,91.89V110h8l3.46-16.63c-1.94-2.26-3.19-5.06-3.43-8.17C39.68,88.23,36.85,90.64,33.5,91.89z"/>
	</g>
	<g>
		<path class="st22" d="M83.5,37c0,0-3.11-0.78-5.45-3.3h-0.01c-2.74,0.2-5.23,1.07-7.54,2.3c-4.4-3.37-9.98-6-16-6
			c-7.84,0-16,4-19,10c-1.52-0.38-3.34-1-5-1c-10.26,0-19,7.5-19,17.54c0,4.55,1.72,8.7,4.54,11.89c-2.18,2.92-3.5,6.51-3.5,10.12
			c0,8.42,7.07,14.32,15.68,14.32c5.61,0,10.54-3.15,13.31-7.67C42.14,93.08,49.24,99,57.47,99c7.78,0,13.88-5.3,14.97-12.55
			c3.19,4.46,8.33,7.44,14.28,7.44c9.31,0,17.23-7.28,18.18-16.2c-1.36,0.2-2.82,0.31-4.4,0.31C69.41,78,83.5,37,83.5,37z"/>
	</g>
	<g>
		<path class="st29" d="M111.5,34c-1.24,0-2.4-0.32-3.41-0.89c-1.64,1.77-3.98,2.89-6.59,2.89s-4.95-1.12-6.59-2.89
			C93.9,33.68,92.74,34,91.5,34c-3.87,0-7-3.13-7-7h-9c0,8,8,10,8,10s-14.09,41,17,41s17-41,17-41s9-2,9-10h-8
			C118.5,30.87,115.37,34,111.5,34z"/>
	</g>
	<g>
		<path class="st22" d="M111.5,20c-1.238,0-2.398,0.324-3.407,0.888C106.449,19.116,104.108,18,101.5,18s-4.949,1.116-6.593,2.888
			C93.898,20.324,92.738,20,91.5,20c-3.866,0-7,3.134-7,7c0,3.866,3.134,7,7,7c1.238,0,2.398-0.324,3.407-0.888
			C96.551,34.884,98.892,36,101.5,36s4.949-1.116,6.593-2.888c1.009,0.564,2.17,0.888,3.407,0.888c3.866,0,7-3.134,7-7
			C118.5,23.134,115.366,20,111.5,20z"/>
	</g>
	<g>
		<circle class="st31" cx="109" cy="46.5" r="2"/>
	</g>
	<g>
		<circle class="st31" cx="94" cy="46.5" r="2"/>
	</g>
	<g>
		<circle class="st39" cx="98" cy="68.5" r="2"/>
	</g>
	<g>
		<circle class="st39" cx="105" cy="68.5" r="2"/>
	</g>
	<g>
		<path class="st0" d="M11,80.5c-6.065,0-11-4.935-11-11s4.935-11,11-11c0.345,0,0.678,0.013,1.011,0.049
			c0.652,0.07,1.182,0.556,1.31,1.199c0.561,2.824,1.89,5.483,3.842,7.688c0.471,0.532,0.504,1.322,0.079,1.892
			c-2.065,2.765-3.202,6.041-3.202,9.222c0,0.06-0.002,0.12,0.003,0.175c0.07,0.776-0.465,1.487-1.233,1.623
			C12.228,80.45,11.635,80.5,11,80.5z M10.652,61.507C6.401,61.69,3,65.206,3,69.5c0,4.411,3.589,8,8,8c0.025,0,0.049,0,0.074,0
			c0.198-3.11,1.269-6.235,3.08-8.991C12.517,66.419,11.324,64.035,10.652,61.507z"/>
	</g>
	<g>
		<path class="st0" d="M33.5,111.5h-10c-0.398,0-0.779-0.158-1.061-0.439c-4.281-4.281-6.187-14.473-7.031-22.269
			c-0.067-0.624,0.26-1.224,0.821-1.504c0.562-0.279,1.238-0.181,1.696,0.248c2.639,2.473,6.294,3.835,10.294,3.835
			c1.617,0,3.213-0.296,4.745-0.881c0.46-0.176,0.98-0.114,1.386,0.166C34.757,90.935,35,91.396,35,91.89V110
			C35,110.829,34.329,111.5,33.5,111.5z M24.158,108.5H32V93.922c-1.239,0.297-2.504,0.448-3.78,0.448
			c-3.43,0-6.662-0.855-9.396-2.451C19.961,99.879,21.852,105.777,24.158,108.5z"/>
	</g>
	<g>
		<path class="st0" d="M92.5,111.5h-10c-0.577,0-1.103-0.331-1.352-0.851c-0.25-0.52-0.179-1.137,0.181-1.587
			c0.774-0.967,2.422-4.266,4.752-15.497c0.139-0.671,0.716-1.163,1.4-1.194c4.417-0.202,8.702-2.26,11.754-5.646
			c0.463-0.512,1.214-0.644,1.821-0.318c0.608,0.325,0.917,1.023,0.747,1.691c-0.672,2.654-1.727,6.635-2.933,10.532
			c-0.245,0.792-1.088,1.233-1.876,0.99c-0.792-0.245-1.234-1.085-0.99-1.876c0.602-1.946,1.167-3.915,1.663-5.725
			c-2.668,1.785-5.726,2.918-8.882,3.26c-1.305,6.122-2.54,10.495-3.736,13.222h6.678c0.5-0.777,1.059-1.898,1.665-3.347
			c0.32-0.765,1.2-1.124,1.963-0.805c0.764,0.32,1.125,1.199,0.805,1.963c-0.893,2.134-1.707,3.647-2.489,4.625
			C93.387,111.292,92.956,111.5,92.5,111.5z"/>
	</g>
	<g>
		<path class="st0" d="M82.5,111.5h-10c-0.829,0-1.5-0.671-1.5-1.5V86.53c0-0.651,0.419-1.227,1.039-1.427
			c0.62-0.2,1.297,0.022,1.678,0.549c3.09,4.282,7.83,6.738,13.003,6.738c0.242,0,0.476-0.008,0.717-0.017
			c0.457-0.016,0.933,0.179,1.229,0.531c0.297,0.352,0.446,0.82,0.353,1.271c-1.9,9.16-3.65,14.643-5.348,16.763
			C83.386,111.293,82.956,111.5,82.5,111.5z M74,108.5h7.708c0.817-1.394,2.18-4.802,3.992-13.137
			c-4.395-0.232-8.476-1.959-11.699-4.902V108.5z M87.55,93.87l0.052,1.499L87.55,93.87z"/>
	</g>
	<g>
		<path class="st0" d="M41.5,111.5h-8c-0.829,0-1.5-0.671-1.5-1.5V91.89c0-0.626,0.389-1.187,0.976-1.405
			c2.981-1.113,5.565-3.267,7.274-6.066c0.339-0.556,0.997-0.829,1.63-0.677c0.633,0.152,1.095,0.694,1.146,1.343
			c0.207,2.68,1.269,5.207,3.072,7.308c0.303,0.353,0.425,0.827,0.331,1.283l-3.46,16.63C42.824,111.001,42.21,111.5,41.5,111.5z
			 M35,108.5h5.28l3.065-14.734c-1.188-1.519-2.078-3.203-2.642-4.991c-1.612,1.751-3.557,3.161-5.704,4.121V108.5z"/>
	</g>
	<g>
		<path class="st0" d="M57.47,100.5c-7.843,0-14.607-4.936-16.764-11.735c-3.246,3.518-7.789,5.605-12.486,5.605
			c-9.794,0-17.18-6.801-17.18-15.82c0-3.452,1.099-6.976,3.114-10.042C11.467,65.075,10,60.869,10,56.54
			c0-4.662,1.799-9.128,5.066-12.575c0.569-0.602,1.519-0.627,2.121-0.057c0.602,0.57,0.627,1.52,0.057,2.121
			C14.467,48.958,13,52.593,13,56.54c0,3.99,1.479,7.859,4.164,10.896c0.471,0.532,0.503,1.322,0.079,1.891
			c-2.065,2.765-3.202,6.041-3.202,9.222c0,7.309,6.096,12.82,14.18,12.82c4.792,0,9.402-2.665,12.032-6.954
			c0.34-0.555,0.996-0.826,1.63-0.675c0.632,0.152,1.094,0.694,1.145,1.343C43.564,92.046,49.909,97.5,57.47,97.5
			c6.943,0,12.489-4.636,13.487-11.273c0.091-0.604,0.539-1.093,1.133-1.235c0.596-0.142,1.215,0.089,1.571,0.586
			c3.097,4.33,7.856,6.812,13.06,6.812c7.826,0,14.679-5.571,16.376-12.99c-0.848,0.066-1.716,0.1-2.596,0.1
			c-7.961,0-13.844-2.587-17.486-7.689c-7.563-10.596-2.948-28.669-1.382-33.883c-1.128-0.475-2.717-1.312-4.153-2.674
			c-2.021,0.234-4.104,0.915-6.274,2.07c-0.519,0.276-1.151,0.224-1.617-0.133C66.199,34.595,60.83,31.5,54.5,31.5
			c-7.575,0-15.001,3.857-17.658,9.171c-0.314,0.629-1.022,0.957-1.706,0.784c-0.337-0.084-0.689-0.18-1.051-0.278
			C32.864,40.844,31.602,40.5,30.5,40.5c-2.631,0-5.191,0.538-7.607,1.598c-0.757,0.333-1.644-0.013-1.976-0.771
			c-0.333-0.758,0.012-1.644,0.771-1.976c2.799-1.228,5.764-1.851,8.812-1.851c1.461,0,2.943,0.393,4.26,0.751
			C38.292,32.54,46.354,28.5,54.5,28.5c6.703,0,12.37,2.999,16.149,5.741c2.45-1.191,4.841-1.859,7.282-2.037
			c0.45-0.027,0.909,0.143,1.218,0.475c1.99,2.143,4.694,2.86,4.721,2.867c0.405,0.104,0.75,0.374,0.948,0.742
			c0.198,0.368,0.236,0.803,0.101,1.198c-0.074,0.215-7.284,21.631,0.54,32.585c3.046,4.265,8.107,6.428,15.041,6.428
			c1.449,0,2.856-0.099,4.182-0.294c0.458-0.066,0.923,0.081,1.257,0.402c0.334,0.321,0.501,0.779,0.453,1.24
			c-1.047,9.836-9.688,17.542-19.672,17.542c-5.165,0-9.957-2.051-13.532-5.714C70.937,96.178,64.849,100.5,57.47,100.5z"/>
	</g>
	<g>
		<path class="st0" d="M100.5,79.5c-7.961,0-13.844-2.587-17.486-7.689c-7.553-10.583-2.959-28.623-1.388-33.862
			C78.382,36.606,74,33.212,74,27c0-0.829,0.671-1.5,1.5-1.5h9c0.829,0,1.5,0.671,1.5,1.5c0,3.033,2.467,5.5,5.5,5.5
			c0.955,0,1.854-0.234,2.673-0.696c0.604-0.341,1.365-0.223,1.838,0.287c1.439,1.554,3.389,2.41,5.489,2.41s4.05-0.855,5.489-2.41
			c0.473-0.509,1.233-0.628,1.838-0.287c0.819,0.462,1.718,0.696,2.673,0.696c3.033,0,5.5-2.467,5.5-5.5c0-0.829,0.671-1.5,1.5-1.5
			h8c0.829,0,1.5,0.671,1.5,1.5c0,6.301-4.986,9.698-8.609,11.004c1.586,5.31,6.122,23.262-1.405,33.807
			C114.344,76.913,108.461,79.5,100.5,79.5z M77.119,28.5c0.907,5.519,6.682,7.029,6.745,7.045c0.408,0.102,0.753,0.37,0.954,0.739
			s0.237,0.806,0.101,1.203c-0.074,0.215-7.284,21.631,0.54,32.585c3.046,4.265,8.107,6.428,15.041,6.428
			c6.936,0,11.998-2.164,15.044-6.432c7.83-10.97,0.611-32.366,0.538-32.581c-0.139-0.404-0.099-0.848,0.11-1.22
			c0.208-0.372,0.565-0.638,0.981-0.731c0.314-0.072,6.682-1.594,7.693-7.036h-4.998c-0.711,3.974-4.192,7-8.368,7
			c-1.071,0-2.129-0.202-3.114-0.591c-1.902,1.658-4.356,2.591-6.886,2.591s-4.984-0.933-6.886-2.591
			C93.629,35.298,92.571,35.5,91.5,35.5c-4.175,0-7.657-3.026-8.368-7H77.119z"/>
	</g>
	<g>
		<path class="st0" d="M101.5,37.5c-2.532,0-4.988-0.933-6.891-2.591C93.621,35.298,92.564,35.5,91.5,35.5
			c-4.687,0-8.5-3.813-8.5-8.5s3.813-8.5,8.5-8.5c1.064,0,2.121,0.202,3.109,0.591c1.903-1.658,4.359-2.591,6.891-2.591
			s4.988,0.933,6.891,2.591c0.988-0.389,2.044-0.591,3.109-0.591c4.687,0,8.5,3.813,8.5,8.5s-3.813,8.5-8.5,8.5
			c-1.064,0-2.121-0.202-3.109-0.591C106.488,36.567,104.032,37.5,101.5,37.5z M94.907,31.612c0.407,0,0.809,0.166,1.1,0.48
			c1.44,1.553,3.391,2.408,5.493,2.408s4.053-0.855,5.493-2.408c0.47-0.507,1.227-0.628,1.831-0.29
			c0.817,0.456,1.742,0.697,2.676,0.697c3.033,0,5.5-2.467,5.5-5.5s-2.467-5.5-5.5-5.5c-0.934,0-1.859,0.241-2.676,0.697
			c-0.604,0.338-1.361,0.218-1.831-0.29c-1.44-1.553-3.391-2.408-5.493-2.408s-4.053,0.855-5.493,2.408
			c-0.471,0.507-1.228,0.627-1.831,0.29C93.359,21.741,92.434,21.5,91.5,21.5c-3.033,0-5.5,2.467-5.5,5.5s2.467,5.5,5.5,5.5
			c0.934,0,1.859-0.241,2.676-0.697C94.405,31.674,94.657,31.612,94.907,31.612z"/>
	</g>
</g>
</svg>
