<?xml version="1.0" encoding="utf-8"?>
<!-- Generator: Adobe Illustrator 22.0.0, SVG Export Plug-In . SVG Version: 6.00 Build 0)  -->
<svg version="1.1" id="Layer_1" xmlns="http://www.w3.org/2000/svg" xmlns:xlink="http://www.w3.org/1999/xlink" x="0px" y="0px"
	 viewBox="0 0 128 128" style="enable-background:new 0 0 128 128;" xml:space="preserve">
<style type="text/css">
	.st0{fill:#746887;}
	.st1{fill:#FFCFB8;}
	.st2{fill:#E6B9A0;}
	.st3{fill:#D29997;}
	.st4{fill:#F98770;}
	.st5{fill:#DCA98B;}
	.st6{fill:#FFDDCF;}
	.st7{fill:#E8E8E8;}
	.st8{fill:#FFBF9E;}
	.st9{fill:#B0BACC;}
	.st10{fill:#9BA7BC;}
	.st11{fill:#B6B4ED;}
	.st12{fill:#FFBC99;}
	.st13{fill:#F8F8F8;}
	.st14{fill:#B2A7BF;}
	.st15{fill:#9B9B9B;}
	.st16{fill:#968AA0;}
	.st17{fill:#C6BBD3;}
	.st18{fill:#D8D8D8;}
	.st19{fill:#D29976;}
	.st20{fill:#FFA77B;}
	.st21{fill:#CCD3DD;}
	.st22{fill-rule:evenodd;clip-rule:evenodd;fill:#F8F8F8;}
	.st23{fill-rule:evenodd;clip-rule:evenodd;fill:#9B9B9B;}
	.st24{fill-rule:evenodd;clip-rule:evenodd;fill:#777777;}
	.st25{fill:#91DEF5;}
	.st26{fill:#B0E7F8;}
	.st27{fill-rule:evenodd;clip-rule:evenodd;fill:#DCA98B;}
	.st28{fill-rule:evenodd;clip-rule:evenodd;fill:#D29997;}
	.st29{fill-rule:evenodd;clip-rule:evenodd;fill:#FFCBBE;}
	.st30{fill-rule:evenodd;clip-rule:evenodd;fill:#E6B9A0;}
	.st31{fill-rule:evenodd;clip-rule:evenodd;fill:#746887;}
	.st32{fill-rule:evenodd;clip-rule:evenodd;fill:#FFBC99;}
	.st33{fill-rule:evenodd;clip-rule:evenodd;fill:#FFA77B;}
	.st34{fill-rule:evenodd;clip-rule:evenodd;fill:#FFCFB8;}
	.st35{fill-rule:evenodd;clip-rule:evenodd;fill:#E8E8E8;}
	.st36{fill-rule:evenodd;clip-rule:evenodd;fill:#CCD3DD;}
	.st37{fill:#E6B9C1;}
	.st38{fill:#FFCBBE;}
	.st39{fill-rule:evenodd;clip-rule:evenodd;fill:#F98770;}
	.st40{fill-rule:evenodd;clip-rule:evenodd;fill:#F2BB88;}
	.st41{fill:#F2D1A5;}
	.st42{fill-rule:evenodd;clip-rule:evenodd;fill:#F2D1A5;}
	.st43{fill:#F2BB88;}
	.st44{fill-rule:evenodd;clip-rule:evenodd;fill:#9BA7BC;}
	.st45{fill-rule:evenodd;clip-rule:evenodd;fill:#B0BACC;}
	.st46{fill-rule:evenodd;clip-rule:evenodd;fill:#FFFFFF;}
	.st47{fill-rule:evenodd;clip-rule:evenodd;fill:#FFDDCF;}
	.st48{fill-rule:evenodd;clip-rule:evenodd;fill:#B0E7F8;}
	.st49{fill-rule:evenodd;clip-rule:evenodd;fill:#968AA0;}
	.st50{fill:#9D9BE6;}
	.st51{fill:#CFCEF3;}
	.st52{fill-rule:evenodd;clip-rule:evenodd;fill:#D8D8D8;}
	.st53{fill-rule:evenodd;clip-rule:evenodd;fill:#B6B4ED;}
	.st54{fill-rule:evenodd;clip-rule:evenodd;fill:#FFD4BE;}
</style>
<g>
	<g>
		<path class="st11" d="M123.615,47.73L123.615,47.73c-25.909,0-48.871-16.683-56.877-41.323h0c-0.862-2.653-4.615-2.653-5.477,0h0
			C53.255,31.047,30.293,47.73,4.385,47.73h0c-2.789,0-3.949,3.569-1.692,5.209l0,0c20.96,15.229,29.731,42.222,21.725,66.862v0
			c-0.862,2.653,2.174,4.859,4.431,3.219l0,0c20.96-15.229,49.343-15.229,70.303,0l0,0c2.256,1.639,5.293-0.566,4.431-3.219
			c-8.006-24.64,0.764-51.634,21.725-66.863l0.001,0C127.564,51.299,126.405,47.73,123.615,47.73z"/>
	</g>
	<g>
		<path class="st1" d="M66.351,31.211l-2.117-6.515l-2.117,6.515C57.35,45.88,43.68,56.391,28.256,56.391h-6.851l5.543,4.027
			c12.478,9.066,17.744,25.204,12.978,39.873l-2.117,6.516l5.542-4.027c12.478-9.066,29.205-9.187,41.684-0.121l5.543,4.027
			l-2.117-6.515c-4.766-14.669,1.237-30.726,13.716-39.792l5.543-4.027h-6.851C85.444,56.351,71.117,45.88,66.351,31.211z"/>
	</g>
	<g>
		<path class="st4" d="M37.809,108.307c-0.31,0-0.619-0.096-0.882-0.286c-0.525-0.383-0.745-1.06-0.545-1.678l2.117-6.516
			c4.586-14.11-0.411-29.461-12.433-38.195l-5.543-4.026c-0.525-0.382-0.745-1.06-0.545-1.678c0.201-0.617,0.777-1.036,1.427-1.036
			h6.851c14.478,0,27.815-9.929,32.435-24.145l2.116-6.515c0.201-0.618,0.776-1.037,1.427-1.037c0.649,0,1.226,0.418,1.427,1.036
			l2.117,6.516c4.538,13.967,18.455,24.104,33.091,24.104h6.851c0.649,0,1.226,0.419,1.427,1.036c0.2,0.618-0.02,1.296-0.545,1.678
			l-5.543,4.026c-12.173,8.844-17.589,24.518-13.171,38.115l2.117,6.515c0.2,0.618-0.02,1.295-0.545,1.678
			c-0.525,0.381-1.238,0.381-1.764,0l-5.542-4.026c-4.674-3.396-10.191-5.541-15.957-6.205c-0.823-0.095-1.413-0.839-1.318-1.662
			s0.841-1.413,1.662-1.318c6.277,0.724,12.286,3.061,17.377,6.758l1.807,1.313l-0.69-2.124
			c-4.891-15.055,0.841-31.72,14.261-41.471l1.808-1.312h-2.233c-16.155,0-30.936-10.765-35.944-26.177l-0.69-2.125l-0.689,2.124
			C58.527,47.11,44.017,57.892,28.256,57.892h-2.233l1.808,1.312c13.076,9.502,18.511,26.199,13.522,41.551l-0.69,2.125l1.807-1.313
			c5.299-3.85,11.537-6.244,18.039-6.926c0.809-0.076,1.562,0.512,1.648,1.336c0.086,0.824-0.512,1.562-1.336,1.648
			c-5.979,0.626-11.715,2.828-16.588,6.369l-5.542,4.026C38.428,108.211,38.118,108.307,37.809,108.307z"/>
	</g>
	<g>
		<path class="st0" d="M100.845,125.086c-0.896,0-1.792-0.284-2.574-0.853c-20.497-14.889-48.042-14.892-68.541,0.001
			c-1.562,1.134-3.582,1.138-5.147,0c-1.563-1.136-2.188-3.058-1.592-4.896c7.83-24.098-0.681-50.294-21.18-65.187
			c-1.563-1.137-2.188-3.059-1.591-4.896c0.598-1.839,2.232-3.026,4.165-3.026c11.23,0,22.161-3.225,31.61-9.325
			c0.692-0.45,1.625-0.25,2.073,0.446c0.45,0.695,0.25,1.624-0.446,2.073c-9.935,6.415-21.428,9.806-33.237,9.806
			c-0.93,0-1.239,0.729-1.312,0.953C3,50.406,2.821,51.179,3.574,51.725c21.553,15.659,30.503,43.203,22.271,68.541
			c-0.288,0.884,0.311,1.403,0.501,1.542c0.19,0.138,0.867,0.546,1.62,0c21.553-15.66,50.516-15.659,72.068-0.001
			c0.754,0.549,1.431,0.139,1.62,0.001c0.19-0.139,0.789-0.658,0.502-1.543c-3.531-10.867-3.955-22.478-1.226-33.575
			c0.199-0.804,1.008-1.297,1.815-1.099c0.805,0.198,1.296,1.011,1.099,1.815c-2.597,10.554-2.194,21.596,1.164,31.932
			c0.598,1.838-0.027,3.76-1.591,4.896C102.637,124.802,101.74,125.086,100.845,125.086z"/>
	</g>
	<g>
		<path class="st0" d="M104.758,81.083c-0.182,0-0.366-0.032-0.545-0.103c-0.771-0.301-1.153-1.171-0.853-1.942
			c4.276-10.962,11.561-20.407,21.065-27.313c0.753-0.546,0.574-1.318,0.501-1.542c-0.072-0.224-0.382-0.953-1.312-0.953
			c-26.642,0-50.071-17.023-58.304-42.359C65.024,5.985,64.235,5.917,64,5.917s-1.024,0.068-1.312,0.953
			c-3.522,10.838-9.979,20.459-18.671,27.823c-0.633,0.534-1.578,0.456-2.114-0.175c-0.535-0.632-0.457-1.579,0.175-2.114
			C50.346,25.4,56.485,16.25,59.835,5.942C60.433,4.104,62.067,2.917,64,2.917s3.567,1.188,4.165,3.025
			c7.829,24.097,30.112,40.287,55.45,40.287c1.933,0,3.567,1.188,4.165,3.026c0.598,1.838-0.027,3.76-1.591,4.896
			c-9.04,6.567-15.968,15.55-20.034,25.976C105.924,80.721,105.357,81.083,104.758,81.083z"/>
	</g>
	<g>
		<path class="st0" d="M64.233,59.825c-0.828,0-1.5-0.672-1.5-1.5V45.816c0-0.828,0.672-1.5,1.5-1.5s1.5,0.672,1.5,1.5v12.509
			C65.733,59.153,65.062,59.825,64.233,59.825z"/>
	</g>
	<g>
		<path class="st0" d="M64.233,37.7c-0.828,0-1.5-0.672-1.5-1.5V24.695c0-0.828,0.672-1.5,1.5-1.5s1.5,0.672,1.5,1.5V36.2
			C65.733,37.028,65.062,37.7,64.233,37.7z"/>
	</g>
	<g>
		<path class="st0" d="M73.402,66.891c-0.665,0-1.272-0.444-1.449-1.118c-0.211-0.801,0.267-1.621,1.068-1.832l14.31-3.77
			c0.805-0.215,1.622,0.268,1.832,1.068c0.211,0.801-0.267,1.621-1.068,1.832l-14.31,3.77
			C73.657,66.875,73.528,66.891,73.402,66.891z"/>
	</g>
	<g>
		<path class="st0" d="M96.663,60.764c-0.665,0-1.272-0.445-1.449-1.118c-0.211-0.801,0.267-1.621,1.068-1.832l11.054-2.913
			c0.804-0.215,1.622,0.266,1.833,1.067c0.212,0.802-0.267,1.622-1.067,1.833l-11.056,2.913
			C96.918,60.748,96.789,60.764,96.663,60.764z"/>
	</g>
	<g>
		<path class="st0" d="M78.407,90.223c-0.48,0-0.953-0.23-1.243-0.658L68.31,76.497c-0.464-0.687-0.285-1.619,0.4-2.084
			c0.685-0.462,1.619-0.286,2.084,0.4l8.854,13.067c0.464,0.687,0.285,1.619-0.4,2.084C78.99,90.139,78.697,90.223,78.407,90.223z"
			/>
	</g>
	<g>
		<path class="st0" d="M90.578,108.186c-0.48,0-0.952-0.23-1.242-0.658l-6.402-9.447c-0.464-0.687-0.285-1.619,0.4-2.084
			c0.685-0.462,1.619-0.285,2.084,0.4l6.4,9.447c0.465,0.686,0.286,1.619-0.399,2.083C91.161,108.102,90.868,108.186,90.578,108.186
			z"/>
	</g>
	<g>
		<path class="st0" d="M49.92,90.431c-0.29,0-0.583-0.084-0.841-0.258c-0.686-0.465-0.864-1.397-0.4-2.084l8.996-13.275
			c0.466-0.686,1.399-0.863,2.083-0.399c0.686,0.464,0.864,1.397,0.399,2.083l-8.994,13.275C50.873,90.2,50.4,90.431,49.92,90.431z"
			/>
	</g>
	<g>
		<path class="st0" d="M37.808,108.307c-0.29,0-0.583-0.084-0.841-0.258c-0.686-0.465-0.864-1.397-0.4-2.084l6.359-9.386
			c0.466-0.685,1.399-0.861,2.084-0.4c0.686,0.465,0.864,1.397,0.4,2.084l-6.359,9.386
			C38.761,108.076,38.288,108.307,37.808,108.307z"/>
	</g>
	<g>
		<path class="st0" d="M55.076,66.894c-0.128,0-0.259-0.017-0.389-0.051l-13.488-3.606c-0.8-0.214-1.275-1.036-1.062-1.837
			c0.215-0.8,1.033-1.272,1.837-1.062l13.488,3.606c0.8,0.214,1.275,1.036,1.062,1.837C56.345,66.451,55.738,66.894,55.076,66.894z"
			/>
	</g>
	<g>
		<path class="st0" d="M32.297,60.803c-0.128,0-0.259-0.017-0.388-0.051l-10.892-2.911c-0.8-0.214-1.275-1.036-1.062-1.837
			c0.214-0.799,1.033-1.274,1.837-1.062l10.89,2.911c0.801,0.214,1.276,1.036,1.062,1.836C33.565,60.36,32.96,60.803,32.297,60.803z
			"/>
	</g>
</g>
</svg>
