<?xml version="1.0" encoding="utf-8"?>
<!-- Generator: Adobe Illustrator 22.0.0, SVG Export Plug-In . SVG Version: 6.00 Build 0)  -->
<svg version="1.1" id="Layer_1" xmlns="http://www.w3.org/2000/svg" xmlns:xlink="http://www.w3.org/1999/xlink" x="0px" y="0px"
	 viewBox="0 0 128 128" style="enable-background:new 0 0 128 128;" xml:space="preserve">
<style type="text/css">
	.st0{fill:#746887;}
	.st1{fill:#FFCFB8;}
	.st2{fill:#E6B9A0;}
	.st3{fill:#D29997;}
	.st4{fill:#F98770;}
	.st5{fill:#DCA98B;}
	.st6{fill:#FFDDCF;}
	.st7{fill:#E8E8E8;}
	.st8{fill:#FFBF9E;}
	.st9{fill:#B0BACC;}
	.st10{fill:#9BA7BC;}
	.st11{fill:#B6B4ED;}
	.st12{fill:#FFBC99;}
	.st13{fill:#F8F8F8;}
	.st14{fill:#B2A7BF;}
	.st15{fill:#9B9B9B;}
	.st16{fill:#968AA0;}
	.st17{fill:#C6BBD3;}
	.st18{fill:#D8D8D8;}
	.st19{fill:#D29976;}
	.st20{fill:#FFA77B;}
	.st21{fill:#CCD3DD;}
	.st22{fill-rule:evenodd;clip-rule:evenodd;fill:#F8F8F8;}
	.st23{fill-rule:evenodd;clip-rule:evenodd;fill:#9B9B9B;}
	.st24{fill-rule:evenodd;clip-rule:evenodd;fill:#777777;}
	.st25{fill:#91DEF5;}
	.st26{fill:#B0E7F8;}
	.st27{fill-rule:evenodd;clip-rule:evenodd;fill:#DCA98B;}
	.st28{fill-rule:evenodd;clip-rule:evenodd;fill:#D29997;}
	.st29{fill-rule:evenodd;clip-rule:evenodd;fill:#FFCBBE;}
	.st30{fill-rule:evenodd;clip-rule:evenodd;fill:#E6B9A0;}
	.st31{fill-rule:evenodd;clip-rule:evenodd;fill:#746887;}
	.st32{fill-rule:evenodd;clip-rule:evenodd;fill:#FFBC99;}
	.st33{fill-rule:evenodd;clip-rule:evenodd;fill:#FFA77B;}
	.st34{fill-rule:evenodd;clip-rule:evenodd;fill:#FFCFB8;}
	.st35{fill-rule:evenodd;clip-rule:evenodd;fill:#E8E8E8;}
	.st36{fill-rule:evenodd;clip-rule:evenodd;fill:#CCD3DD;}
	.st37{fill:#E6B9C1;}
	.st38{fill:#FFCBBE;}
	.st39{fill-rule:evenodd;clip-rule:evenodd;fill:#F98770;}
	.st40{fill-rule:evenodd;clip-rule:evenodd;fill:#F2BB88;}
	.st41{fill:#F2D1A5;}
	.st42{fill-rule:evenodd;clip-rule:evenodd;fill:#F2D1A5;}
	.st43{fill:#F2BB88;}
	.st44{fill-rule:evenodd;clip-rule:evenodd;fill:#9BA7BC;}
	.st45{fill-rule:evenodd;clip-rule:evenodd;fill:#B0BACC;}
	.st46{fill-rule:evenodd;clip-rule:evenodd;fill:#FFFFFF;}
	.st47{fill-rule:evenodd;clip-rule:evenodd;fill:#FFDDCF;}
	.st48{fill-rule:evenodd;clip-rule:evenodd;fill:#B0E7F8;}
	.st49{fill-rule:evenodd;clip-rule:evenodd;fill:#968AA0;}
	.st50{fill:#9D9BE6;}
	.st51{fill:#CFCEF3;}
	.st52{fill-rule:evenodd;clip-rule:evenodd;fill:#D8D8D8;}
	.st53{fill-rule:evenodd;clip-rule:evenodd;fill:#B6B4ED;}
	.st54{fill-rule:evenodd;clip-rule:evenodd;fill:#FFD4BE;}
</style>
<g>
	<g>
		<g>
			<path class="st7" d="M79.079,53.698c0,0,7.24-3.413,3.812-8.816c-2.454-3.868-10.134-2.163-14.913-0.628
				c-2.596,0.834-5.362,0.834-7.958,0c-4.779-1.536-12.458-3.24-14.912,0.628c-3.428,5.403,3.812,8.816,3.812,8.816
				C34.784,82.608-1.83,64.658,1.744,93.608c3.574,28.95,34.43,32.126,36.098,29.625c1.668-2.502-6.195-1.827-1.191-7.903
				C41.654,109.254,64,110.207,64,110.207s22.346-0.953,27.35,5.123c5.004,6.076-2.859,5.401-1.191,7.903
				c1.668,2.502,32.524-0.675,36.098-29.625C129.83,64.658,93.216,82.608,79.079,53.698z"/>
		</g>
	</g>
	<g>
		<g>
			<path class="st9" d="M64,110.207c0,0-22.346-0.953-27.349,5.123c0,0,5.497,5.043,27.35,5.043s27.35-5.043,27.35-5.043
				C86.346,109.254,64,110.207,64,110.207z"/>
		</g>
	</g>
	<g>
		<g>
			<path class="st9" d="M48.35,22.463c-5.455-1.771-7.177-3.849-7.004-4.814c0.459-2.55,8.079-7.226,20.416-6.699
				c1.848,0.073,3.477-1.382,3.557-3.267c0.08-1.884-1.382-3.477-3.267-3.557c-14.03-0.585-26.077,4.811-27.428,12.312
				c-0.556,3.088,0.213,8.82,11.616,12.522c16.072,5.216,14.915,13.665,14.466,15.458c2.276,0.599,4.65,0.581,6.915-0.078
				c0.231-2.139,0.121-5.406-1.671-9.001C63.124,29.668,57.202,25.336,48.35,22.463z"/>
		</g>
	</g>
	<g>
		<g>
			<path class="st0" d="M87.913,95.646c-1.381,0-2.5,1.119-2.5,2.5c0,1.381,1.119,2.5,2.5,2.5s2.5-1.119,2.5-2.5
				C90.413,96.765,89.294,95.646,87.913,95.646z"/>
		</g>
	</g>
	<g>
		<g>
			<circle class="st0" cx="40.087" cy="98.146" r="2.5"/>
		</g>
	</g>
	<g>
		<g>
			<path class="st4" d="M94.896,85.463c-3.51,0-10.104-0.761-14.103-5.973c-2.243-3.067-2.335-5.182-2.432-7.42
				c-0.124-2.838-0.277-6.369-5.528-14.183c-1.229-1.829-3.506-2.79-3.529-2.8c-0.768-0.312-1.137-1.187-0.825-1.954
				c0.312-0.766,1.183-1.138,1.954-0.825c0.127,0.052,3.135,1.294,4.891,3.905c5.722,8.515,5.896,12.513,6.035,15.727
				c0.09,2.074,0.149,3.444,1.836,5.752c4.463,5.816,13.568,4.682,13.662,4.669c0.818-0.107,1.575,0.47,1.685,1.29
				c0.108,0.821-0.469,1.575-1.29,1.685C97.129,85.352,96.238,85.463,94.896,85.463z"/>
		</g>
	</g>
	<g>
		<g>
			<path class="st4" d="M33.093,85.463c-1.337,0-2.223-0.111-2.346-0.127c-0.821-0.109-1.399-0.863-1.29-1.685
				c0.109-0.82,0.867-1.395,1.683-1.29c0.146,0.019,9.236,1.101,13.685-4.697c1.665-2.278,1.725-3.649,1.815-5.724
				c0.14-3.213,0.313-7.212,6.036-15.727c1.755-2.611,4.763-3.854,4.891-3.905c0.767-0.312,1.643,0.059,1.954,0.825
				c0.312,0.768-0.059,1.643-0.826,1.954c-0.019,0.008-2.295,0.964-3.528,2.8c-5.252,7.813-5.405,11.346-5.529,14.183
				c-0.097,2.238-0.189,4.353-2.411,7.392C43.209,84.699,36.602,85.463,33.093,85.463z"/>
		</g>
	</g>
	<g>
		<g>
			<path class="st0" d="M34.788,125.416c-2.839,0-6.039-0.727-6.601-0.86c-5.832-1.381-25.083-7.683-27.932-30.765
				c-2.023-16.39,8.381-19.092,19.396-21.953c2.877-0.747,5.852-1.521,8.801-2.555c0.783-0.274,1.638,0.137,1.912,0.918
				c0.274,0.782-0.137,1.638-0.919,1.912c-3.067,1.076-6.104,1.865-9.04,2.628C9.448,77.588,1.532,79.644,3.233,93.424
				c1.765,14.3,10.36,21.544,17.26,25.104c6.58,3.395,12.923,4.103,15.4,3.854c-0.891-0.581-2.141-1.455-2.391-3.073
				c-0.223-1.446,0.41-3.014,1.991-4.933c5.279-6.412,25.853-5.785,28.507-5.671c2.655-0.111,23.229-0.741,28.508,5.671
				c1.58,1.919,2.213,3.486,1.99,4.933c-0.248,1.607-1.482,2.479-2.372,3.061c3.373,0.299,13.989-1.12,22.436-8.687
				c0.617-0.556,1.567-0.501,2.118,0.116c0.553,0.617,0.501,1.565-0.116,2.118c-9.29,8.322-20.846,9.938-24.99,9.403
				c-1.36-0.172-2.206-0.571-2.663-1.257c-0.533-0.8-0.534-1.502-0.442-1.951c0.226-1.09,1.148-1.69,1.891-2.172
				c0.55-0.357,1.119-0.727,1.175-1.089c0.028-0.186,0.017-0.92-1.342-2.568c-3.712-4.508-20.121-4.838-26.128-4.578
				c-0.043,0.002-0.085,0.002-0.128,0c-6.009-0.262-22.415,0.07-26.127,4.577c-1.357,1.649-1.37,2.384-1.341,2.569
				c0.056,0.362,0.624,0.731,1.174,1.089c0.742,0.481,1.666,1.082,1.89,2.172c0.093,0.449,0.091,1.151-0.442,1.951
				C38.403,125.095,36.675,125.416,34.788,125.416z"/>
		</g>
	</g>
	<g>
		<g>
			<path class="st0" d="M120.724,110.397c-0.289,0-0.581-0.083-0.839-0.257c-0.687-0.464-0.867-1.396-0.403-2.083
				c2.825-4.184,4.604-9.106,5.286-14.634c1.701-13.78-6.216-15.836-17.172-18.683c-10.154-2.637-22.791-5.92-29.864-20.384
				c-0.176-0.361-0.2-0.777-0.067-1.156s0.412-0.688,0.775-0.859c0.859-0.411,3.216-1.893,3.757-3.776
				c0.264-0.916,0.076-1.858-0.572-2.88c-1.399-2.206-6.329-2.206-13.187-0.003c-2.901,0.934-5.971,0.934-8.875,0
				c-6.857-2.204-11.787-2.203-13.187,0.003c-0.65,1.024-0.836,1.969-0.57,2.887c0.653,2.253,3.725,3.755,3.755,3.77
				c0.363,0.171,0.643,0.48,0.775,0.859c0.133,0.379,0.109,0.795-0.067,1.156c-3.102,6.341-7.499,11.07-13.443,14.457
				c-0.721,0.407-1.637,0.158-2.046-0.562c-0.41-0.72-0.159-1.636,0.561-2.046c5.011-2.854,8.815-6.765,11.597-11.929
				c-1.356-0.896-3.339-2.549-4.013-4.869c-0.513-1.769-0.204-3.562,0.918-5.331c2.876-4.53,10.634-3.182,16.638-1.251
				c2.303,0.738,4.737,0.738,7.04,0c6.005-1.932,13.763-3.279,16.638,1.251c1.122,1.769,1.432,3.562,0.918,5.331
				c-0.673,2.32-2.656,3.973-4.013,4.869c6.56,12.175,17.553,15.031,27.287,17.56c11.015,2.861,21.419,5.563,19.395,21.953
				c-0.74,6.001-2.685,11.366-5.776,15.946C121.678,110.166,121.205,110.397,120.724,110.397z"/>
		</g>
	</g>
	<g>
		<g>
			<path class="st0" d="M64,121.873c-22.181,0-28.122-5.216-28.364-5.438c-0.587-0.539-0.65-1.443-0.144-2.059
				c5.279-6.412,25.853-5.785,28.507-5.671c2.655-0.111,23.229-0.741,28.508,5.671c0.507,0.615,0.443,1.52-0.145,2.059
				C92.122,116.657,86.182,121.873,64,121.873z M39.185,115.112c2.79,1.35,9.868,3.761,24.815,3.761
				c14.932,0,22.01-2.406,24.813-3.763c-5.354-3.395-19.313-3.642-24.75-3.404c-0.043,0.002-0.085,0.002-0.128,0
				C58.497,111.471,44.534,111.72,39.185,115.112z"/>
		</g>
	</g>
	<g>
		<g>
			<path class="st0" d="M64.034,46.349c-1.243,0-2.49-0.16-3.709-0.481c-0.794-0.208-1.273-1.018-1.074-1.814
				c0.359-1.436,1.398-8.84-13.474-13.666h0C33.292,26.333,32.505,19.74,33.148,16.172c1.503-8.347,13.957-14.15,28.966-13.545
				c1.313,0.056,2.524,0.619,3.412,1.586c0.888,0.968,1.347,2.222,1.291,3.533c-0.112,2.635-2.299,4.707-4.918,4.707
				c-0.065,0-0.131-0.002-0.197-0.004c-11.825-0.511-18.196,3.865-18.833,5.319c0.302,0.523,1.802,1.923,5.944,3.268
				c9.249,3.002,15.467,7.589,18.481,13.633c1.956,3.925,2.069,7.513,1.819,9.831c-0.065,0.604-0.488,1.109-1.072,1.279
				C66.737,46.158,65.388,46.349,64.034,46.349z M62.39,43.23c1.273,0.185,2.562,0.153,3.813-0.09
				c0.061-1.877-0.232-4.4-1.594-7.134c-2.641-5.296-8.267-9.373-16.722-12.117c-5.435-1.765-8.432-4.197-8.018-6.506
				c0.663-3.677,9.333-8.461,21.957-7.933c1.053,0.061,1.95-0.799,1.994-1.832c0.021-0.511-0.157-1-0.503-1.377
				c-0.346-0.376-0.818-0.596-1.329-0.617C48.925,5.079,37.299,10.049,36.1,16.703c-0.81,4.501,2.956,8.347,10.604,10.83
				C61.197,32.236,62.6,39.755,62.39,43.23z M42.82,17.665L42.82,17.665z"/>
		</g>
	</g>
	<g>
		<g>
			<path class="st4" d="M105.229,114.884c-0.557,0-1.092-0.312-1.352-0.847c-0.36-0.745-0.049-1.641,0.695-2.003l0,0
				c0.717-0.35,17.508-8.787,12.339-27.681c-0.218-0.799,0.252-1.624,1.052-1.843c0.798-0.217,1.624,0.252,1.843,1.052
				c5.834,21.328-13.727,31.075-13.925,31.172C105.672,114.836,105.449,114.884,105.229,114.884z"/>
		</g>
	</g>
	<g>
		<g>
			<path class="st4" d="M22.77,114.884c-0.219,0-0.442-0.048-0.652-0.149c-0.198-0.097-19.759-9.844-13.924-31.172
				c0.218-0.8,1.044-1.269,1.843-1.052c0.799,0.219,1.27,1.044,1.051,1.843c-5.185,18.95,12.161,27.595,12.337,27.68
				c0.746,0.361,1.058,1.259,0.697,2.004C23.862,114.572,23.327,114.884,22.77,114.884z"/>
		</g>
	</g>
</g>
</svg>
