<?xml version="1.0" encoding="utf-8"?>
<!-- Generator: Adobe Illustrator 22.0.0, SVG Export Plug-In . SVG Version: 6.00 Build 0)  -->
<svg version="1.1" id="Layer_1" xmlns="http://www.w3.org/2000/svg" xmlns:xlink="http://www.w3.org/1999/xlink" x="0px" y="0px"
	 viewBox="0 0 128 128" style="enable-background:new 0 0 128 128;" xml:space="preserve">
<style type="text/css">
	.st0{fill:#746887;}
	.st1{fill:#FFCFB8;}
	.st2{fill:#E6B9A0;}
	.st3{fill:#D29997;}
	.st4{fill:#F98770;}
	.st5{fill:#DCA98B;}
	.st6{fill:#FFDDCF;}
	.st7{fill:#E8E8E8;}
	.st8{fill:#FFBF9E;}
	.st9{fill:#B0BACC;}
	.st10{fill:#9BA7BC;}
	.st11{fill:#B6B4ED;}
	.st12{fill:#FFBC99;}
	.st13{fill:#F8F8F8;}
	.st14{fill:#B2A7BF;}
	.st15{fill:#9B9B9B;}
	.st16{fill:#968AA0;}
	.st17{fill:#C6BBD3;}
	.st18{fill:#D8D8D8;}
	.st19{fill:#D29976;}
	.st20{fill:#FFA77B;}
	.st21{fill:#CCD3DD;}
	.st22{fill-rule:evenodd;clip-rule:evenodd;fill:#F8F8F8;}
	.st23{fill-rule:evenodd;clip-rule:evenodd;fill:#9B9B9B;}
	.st24{fill-rule:evenodd;clip-rule:evenodd;fill:#777777;}
	.st25{fill:#91DEF5;}
	.st26{fill:#B0E7F8;}
	.st27{fill-rule:evenodd;clip-rule:evenodd;fill:#DCA98B;}
	.st28{fill-rule:evenodd;clip-rule:evenodd;fill:#D29997;}
	.st29{fill-rule:evenodd;clip-rule:evenodd;fill:#FFCBBE;}
	.st30{fill-rule:evenodd;clip-rule:evenodd;fill:#E6B9A0;}
	.st31{fill-rule:evenodd;clip-rule:evenodd;fill:#746887;}
	.st32{fill-rule:evenodd;clip-rule:evenodd;fill:#FFBC99;}
	.st33{fill-rule:evenodd;clip-rule:evenodd;fill:#FFA77B;}
	.st34{fill-rule:evenodd;clip-rule:evenodd;fill:#FFCFB8;}
	.st35{fill-rule:evenodd;clip-rule:evenodd;fill:#E8E8E8;}
	.st36{fill-rule:evenodd;clip-rule:evenodd;fill:#CCD3DD;}
	.st37{fill:#E6B9C1;}
	.st38{fill:#FFCBBE;}
	.st39{fill-rule:evenodd;clip-rule:evenodd;fill:#F98770;}
	.st40{fill-rule:evenodd;clip-rule:evenodd;fill:#F2BB88;}
	.st41{fill:#F2D1A5;}
	.st42{fill-rule:evenodd;clip-rule:evenodd;fill:#F2D1A5;}
	.st43{fill:#F2BB88;}
	.st44{fill-rule:evenodd;clip-rule:evenodd;fill:#9BA7BC;}
	.st45{fill-rule:evenodd;clip-rule:evenodd;fill:#B0BACC;}
	.st46{fill-rule:evenodd;clip-rule:evenodd;fill:#FFFFFF;}
	.st47{fill-rule:evenodd;clip-rule:evenodd;fill:#FFDDCF;}
	.st48{fill-rule:evenodd;clip-rule:evenodd;fill:#B0E7F8;}
	.st49{fill-rule:evenodd;clip-rule:evenodd;fill:#968AA0;}
	.st50{fill:#9D9BE6;}
	.st51{fill:#CFCEF3;}
	.st52{fill-rule:evenodd;clip-rule:evenodd;fill:#D8D8D8;}
	.st53{fill-rule:evenodd;clip-rule:evenodd;fill:#B6B4ED;}
	.st54{fill-rule:evenodd;clip-rule:evenodd;fill:#FFD4BE;}
</style>
<g>
	<g>
		<g>
			<path class="st36" d="M96.52,85c0-5.64-11.16-10.73-11.71-27.16l0.005,0c0,0,0,0,0,0c-0.101-0.174-0.206-0.344-0.305-0.521
				c0,0-0.01,0-0.01-0.01s-0.01-0.01-0.01-0.02c-0.845-1.509-1.595-3.097-2.244-4.719C75.603,53.761,60.648,56.47,54.52,58
				c-7.76,1.94-32,3-32,24s11,43,11,43h8l-2-25c9,0,12-9,12-9s33,2,33,9s1,25,1,25h19l3.26-49.12C102.52,81.84,96.52,85,96.52,85z"
				/>
		</g>
	</g>
	<g>
		<g>
			<path class="st45" d="M100.52,69c-6.657,0-12.03-4.844-15.705-11.16l-0.005,0C85.36,74.27,96.52,79.36,96.52,85
				c0,0,6-3.16,11.26-9.12c3.61-4.1,6.87-9.51,7.59-16.13c0,0,0,0.01-0.01,0.01C111.92,65.12,107.02,69,100.52,69z"/>
		</g>
	</g>
	<g>
		<g>
			<path class="st45" d="M108.12,29h-15.2c-8.22,0-14.54,7.45-13.02,15.53c0.79,4.25,2.36,8.78,4.59,12.76
				c0,0.01,0.01,0.01,0.01,0.02s0.01,0.01,0.01,0.01C88.19,63.89,93.68,69,100.52,69c6.5,0,11.4-3.88,14.84-9.24
				c0.01,0,0.01-0.01,0.01-0.01c2.92-4.51,4.8-10.07,5.77-15.22C122.66,36.45,116.34,29,108.12,29z"/>
		</g>
	</g>
	<g>
		<g>
			<path class="st22" d="M104.52,46v-4c0-2.21-1.79-4-4-4c-1.1,0-2.1,0.45-2.83,1.17c-0.72,0.73-1.17,1.73-1.17,2.83v4
				c0,3.61-7.34,5.59-11.71,11.84C88.48,64.16,93.86,69,100.52,69c6.5,0,11.4-3.88,14.84-9.24c0.01,0,0.01-0.01,0.01-0.01
				c0.35-0.55,0.69-1.11,1.01-1.68C112.04,51.64,104.52,49.66,104.52,46z"/>
		</g>
	</g>
	<g>
		<g>
			<path class="st36" d="M34.52,28c0-13-11-25-26-25c0,0,3,8,3,14c0,10-10,13-10,24c0,21.94,16.57,28.53,23.75,30.35
				c1.73-2.85,4.15-5.02,6.89-6.7c-8.22-1.81-10.2-10.31-6.64-15.65C29.52,43,34.52,37,34.52,28z"/>
		</g>
	</g>
	<g>
		<g>
			<path class="st45" d="M39.52,100l2,25h7l3-34C51.52,91,48.52,100,39.52,100z"/>
		</g>
	</g>
	<g>
		<g>
			<path class="st36" d="M124.68,20.25c-3.16,2.15-9.7,6.54-13.87,9.02c6.32,1.3,10.92,7.08,10.54,13.6
				c3.38-1.08,4.7-8.96,5.13-21.61C126.51,20.31,125.46,19.72,124.68,20.25z"/>
		</g>
	</g>
	<g>
		<g>
			<path class="st36" d="M74.56,21.26c0.43,12.65,1.75,20.53,5.13,21.61c-0.38-6.52,4.22-12.3,10.54-13.6
				c-4.17-2.48-10.71-6.87-13.87-9.02C75.58,19.72,74.53,20.31,74.56,21.26z"/>
		</g>
	</g>
	<g>
		<g>
			<path class="st9" d="M103.52,53h-6c-0.552,0-1,0.448-1,1c0,2.209,1.791,4,4,4s4-1.791,4-4C104.52,53.448,104.072,53,103.52,53z"
				/>
		</g>
	</g>
	<g>
		<g>
			<circle class="st31" cx="111.02" cy="45.5" r="2"/>
		</g>
	</g>
	<g>
		<g>
			<circle class="st31" cx="90.02" cy="45.5" r="2"/>
		</g>
	</g>
	<g>
		<g>
			<path class="st0" d="M105.539,111.174c-0.033,0-0.067-0.001-0.101-0.003c-0.827-0.055-1.453-0.77-1.397-1.596l1.973-29.73
				c-4.454,4.171-8.585,6.372-8.794,6.482c-0.465,0.245-1.024,0.229-1.474-0.043c-0.45-0.271-0.725-0.759-0.725-1.284
				c0-1.603-1.431-3.463-3.243-5.818c-3.38-4.394-7.996-10.392-8.452-20.914c-0.026-0.044-0.052-0.089-0.078-0.134
				c-0.023-0.036-0.045-0.072-0.066-0.11c-0.005-0.008-0.009-0.016-0.013-0.024c-0.662-1.183-1.28-2.436-1.844-3.739
				c-13.367,2.404-22.259,4.151-26.441,5.195c-1.112,0.278-2.503,0.53-4.114,0.823c-9.99,1.814-26.71,4.85-26.747,21.668
				c-0.002,0.827-0.673,1.497-1.5,1.497c-0.001,0-0.002,0-0.003,0c-0.828-0.002-1.499-0.675-1.497-1.503
				c0.042-19.317,19.017-22.762,29.21-24.613c1.56-0.283,2.906-0.528,3.923-0.782c4.37-1.091,13.731-2.925,27.825-5.451
				c0.702-0.122,1.393,0.258,1.657,0.919c0.633,1.581,1.35,3.092,2.132,4.493c0.017,0.026,0.033,0.053,0.048,0.081l0.291,0.497
				c0.15,0.257,0.217,0.545,0.203,0.831c0.359,9.713,4.506,15.104,7.841,19.438c1.485,1.931,2.756,3.582,3.404,5.278
				c2.102-1.347,5.771-3.976,9.097-7.744c0.425-0.481,1.109-0.638,1.701-0.392c0.593,0.247,0.962,0.844,0.92,1.484l-2.243,33.794
				C106.981,110.566,106.322,111.174,105.539,111.174z"/>
		</g>
	</g>
	<g>
		<g>
			<path class="st0" d="M104.52,126.5h-19c-0.796,0-1.454-0.622-1.498-1.417c-0.041-0.736-1.002-18.122-1.002-25.083
				c0-2.646-12.209-6.217-30.504-7.434c-1.476,3.313-5.163,8.117-11.378,8.841l1.878,23.473c0.034,0.417-0.109,0.83-0.393,1.137
				c-0.284,0.308-0.684,0.482-1.102,0.482h-8c-0.568,0-1.087-0.321-1.342-0.829c-0.348-0.697-8.558-17.279-10.673-35.603
				c-0.095-0.823,0.495-1.567,1.318-1.662c0.814-0.103,1.566,0.495,1.662,1.318c1.794,15.542,8.3,30.194,9.979,33.776h5.43
				l-1.87-23.38c-0.034-0.417,0.109-0.83,0.393-1.137c0.284-0.308,0.684-0.482,1.102-0.482c7.828,0,10.55-7.895,10.577-7.974
				c0.214-0.645,0.83-1.069,1.514-1.023c0.083,0.005,8.423,0.521,16.656,1.893C80.378,93.414,86.02,96.148,86.02,100
				c0,5.738,0.688,19.117,0.921,23.5h16.175l0.397-5.978c0.055-0.827,0.772-1.461,1.596-1.397c0.827,0.055,1.453,0.77,1.397,1.596
				l-0.49,7.379C105.964,125.888,105.31,126.5,104.52,126.5z"/>
		</g>
	</g>
	<g>
		<g>
			<path class="st4" d="M95.52,126.5c-0.829,0-1.5-0.671-1.5-1.5V98c0-0.829,0.671-1.5,1.5-1.5s1.5,0.671,1.5,1.5v27
				C97.02,125.829,96.348,126.5,95.52,126.5z"/>
		</g>
	</g>
	<g>
		<g>
			<path class="st4" d="M51.519,92.5c-0.186,0-0.374-0.035-0.557-0.108c-0.769-0.308-1.143-1.181-0.835-1.95
				c0.992-2.479,0.413-5.302-1.476-7.19l-0.191-0.19c-0.587-0.585-0.588-1.535-0.003-2.121c0.584-0.588,1.535-0.588,2.121-0.003
				l0.192,0.192c2.74,2.74,3.58,6.832,2.141,10.427C52.678,92.144,52.114,92.5,51.519,92.5z"/>
		</g>
	</g>
	<g>
		<g>
			<path class="st4" d="M100.52,70.5c-6.509,0-12.549-4.229-17.007-11.907c-0.293-0.505-0.267-1.134,0.068-1.613
				c2.244-3.209,5.192-5.345,7.56-7.06c2.082-1.508,3.879-2.81,3.879-3.92v-4c0-1.457,0.569-2.835,1.602-3.883
				c1.063-1.048,2.443-1.617,3.898-1.617c3.033,0,5.5,2.467,5.5,5.5v4c0,1.114,1.798,2.417,3.88,3.925
				c2.434,1.763,5.464,3.958,7.724,7.306c0.317,0.47,0.342,1.079,0.064,1.574c-0.333,0.595-0.688,1.178-1.053,1.751l0,0
				c-0.016,0.025-0.033,0.05-0.05,0.074C112.419,67.087,106.866,70.5,100.52,70.5z M86.612,57.927
				c2.438,3.919,7.131,9.573,13.907,9.573c5.369,0,9.937-2.877,13.578-8.55c0.016-0.025,0.032-0.049,0.05-0.073
				c0.151-0.239,0.301-0.48,0.448-0.724c-1.896-2.497-4.307-4.242-6.456-5.799c-2.748-1.99-5.12-3.709-5.12-6.354v-4
				c0-1.378-1.122-2.5-2.5-2.5c-0.663,0-1.294,0.262-1.777,0.738c-0.46,0.467-0.723,1.099-0.723,1.762v4
				c0,2.642-2.373,4.36-5.12,6.35C90.818,53.858,88.485,55.548,86.612,57.927z"/>
		</g>
	</g>
	<g>
		<g>
			<path class="st0" d="M25.27,72.85c-0.122,0-0.246-0.015-0.369-0.046C17.42,70.907,0.02,64.011,0.02,41
				c0-6.126,2.908-10.049,5.474-13.509C7.821,24.351,10.02,21.385,10.02,17c0-5.652-2.875-13.396-2.905-13.474
				C6.942,3.066,7.007,2.55,7.287,2.146S8.028,1.5,8.52,1.5c15.164,0,27.5,11.888,27.5,26.5c0,6.552-2.563,11.547-4.797,15.167
				c-0.435,0.705-1.358,0.924-2.064,0.489c-0.705-0.435-0.924-1.359-0.489-2.064c2.151-3.486,4.35-7.827,4.35-13.591
				c0-12.27-9.855-22.374-22.371-23.412C11.565,7.443,13.02,12.66,13.02,17c0,5.376-2.601,8.885-5.116,12.277
				C5.392,32.665,3.02,35.864,3.02,41c0,19.908,14.346,26.541,21.587,28.617c1.147-1.657,2.577-3.165,4.272-4.507
				c-2.639-1.259-4.619-3.33-5.705-6.023c-1.437-3.563-1.017-7.747,1.096-10.917c0.458-0.69,1.39-0.877,2.08-0.417
				c0.689,0.459,0.876,1.391,0.417,2.08c-1.571,2.358-1.881,5.474-0.81,8.132c1.079,2.677,3.397,4.531,6.526,5.22
				c0.597,0.131,1.055,0.613,1.156,1.216c0.102,0.604-0.173,1.208-0.695,1.528c-2.779,1.704-4.929,3.79-6.392,6.2
				C26.275,72.584,25.785,72.85,25.27,72.85z"/>
		</g>
	</g>
	<g>
		<g>
			<path class="st0" d="M48.52,126.5h-7c-0.782,0-1.433-0.601-1.495-1.38l-2-25c-0.034-0.417,0.109-0.83,0.393-1.137
				c0.284-0.308,0.684-0.482,1.102-0.482c7.828,0,10.55-7.895,10.577-7.974c0.24-0.722,0.981-1.146,1.728-0.995
				c0.745,0.155,1.256,0.843,1.189,1.601l-3,34C49.945,125.906,49.297,126.5,48.52,126.5z M42.904,123.5h4.242l2.329-26.397
				c-1.967,2.084-4.725,3.884-8.338,4.305L42.904,123.5z"/>
		</g>
	</g>
	<g>
		<g>
			<path class="st0" d="M96.52,86.5c-0.269,0-0.537-0.072-0.775-0.216c-0.45-0.271-0.725-0.759-0.725-1.284
				c0-1.603-1.431-3.463-3.243-5.818c-3.421-4.446-8.105-10.535-8.466-21.292c-0.015-0.433,0.158-0.85,0.474-1.146
				c0.316-0.296,0.746-0.439,1.174-0.397c0.479,0.048,0.91,0.323,1.152,0.739C88.375,60.975,93.256,67.5,100.52,67.5
				c5.369,0,9.937-2.877,13.578-8.55c0.06-0.094,0.129-0.179,0.207-0.256c0.292-0.294,0.706-0.469,1.146-0.441
				c0.796,0.043,1.419,0.701,1.419,1.498c0,0.058-0.003,0.114-0.01,0.17c-0.653,5.995-3.33,11.698-7.954,16.951
				c-5.382,6.098-11.432,9.322-11.687,9.456C97,86.442,96.759,86.5,96.52,86.5z M87.007,63.535
				c1.385,6.329,4.519,10.401,7.147,13.818c1.485,1.931,2.756,3.582,3.404,5.278c2.102-1.347,5.771-3.976,9.097-7.744
				c2.584-2.936,4.499-6.01,5.726-9.19c-3.44,3.161-7.46,4.803-11.862,4.803C95.589,70.5,90.923,68.065,87.007,63.535z"/>
		</g>
	</g>
	<g>
		<g>
			<path class="st0" d="M121.35,44.37c-0.329,0-0.653-0.108-0.919-0.315c-0.391-0.303-0.607-0.779-0.578-1.272
				c0.333-5.702-3.685-10.879-9.345-12.043c-0.606-0.125-1.074-0.609-1.177-1.22c-0.103-0.61,0.18-1.222,0.712-1.538
				c4.474-2.661,11.688-7.54,13.793-8.971c0.827-0.562,1.884-0.611,2.761-0.129c0.884,0.486,1.414,1.417,1.381,2.427
				c0,0.001,0,0.002,0,0.003c-0.519,15.29-2.25,21.735-6.172,22.988C121.657,44.347,121.503,44.37,121.35,44.37z M114.334,28.865
				c4.259,1.979,7.352,5.908,8.262,10.471c1.043-2.485,1.992-7.567,2.361-17.46C122.845,23.307,118.243,26.403,114.334,28.865z
				 M126.479,21.26h0.01H126.479z"/>
		</g>
	</g>
	<g>
		<g>
			<path class="st0" d="M79.689,44.37c-0.153,0-0.307-0.023-0.457-0.071c-3.922-1.253-5.652-7.698-6.172-22.988
				c0-0.001,0-0.002,0-0.004c-0.032-1.01,0.498-1.94,1.382-2.426c0.875-0.481,1.934-0.433,2.76,0.129
				c2.104,1.431,9.312,6.307,13.793,8.972c0.532,0.316,0.815,0.928,0.712,1.538c-0.103,0.611-0.57,1.096-1.177,1.22
				c-5.66,1.164-9.677,6.342-9.345,12.043c0.029,0.494-0.188,0.97-0.578,1.272C80.342,44.262,80.018,44.37,79.689,44.37z
				 M76.083,21.875c0.37,9.892,1.318,14.975,2.361,17.46c0.91-4.562,4.003-8.491,8.262-10.47
				C82.794,26.402,78.193,23.306,76.083,21.875z"/>
		</g>
	</g>
	<g>
		<g>
			<path class="st0" d="M100.52,59.5c-3.033,0-5.5-2.467-5.5-5.5c0-1.378,1.122-2.5,2.5-2.5h6c1.378,0,2.5,1.122,2.5,2.5
				C106.02,57.033,103.552,59.5,100.52,59.5z M98.07,54.5c0.232,1.14,1.242,2,2.45,2s2.217-0.86,2.45-2H98.07z"/>
		</g>
	</g>
	<g>
		<g>
			<path class="st0" d="M100.52,64.5c-0.829,0-1.5-0.671-1.5-1.5v-5c0-0.829,0.671-1.5,1.5-1.5s1.5,0.671,1.5,1.5v5
				C102.02,63.829,101.348,64.5,100.52,64.5z"/>
		</g>
	</g>
	<g>
		<g>
			<path class="st0" d="M100.52,70.5c-6.651,0-12.784-4.392-17.275-12.37c-0.022-0.034-0.043-0.069-0.062-0.105
				c-0.005-0.008-0.009-0.017-0.014-0.025c-2.212-3.956-3.896-8.641-4.743-13.196c-0.799-4.244,0.337-8.602,3.116-11.953
				c2.82-3.401,6.968-5.351,11.378-5.351h15.2c4.411,0,8.558,1.95,11.378,5.351c2.779,3.351,3.915,7.708,3.116,11.956l0,0
				c-1.115,5.923-3.241,11.52-5.985,15.758l0,0c-0.015,0.022-0.029,0.043-0.044,0.064C112.419,67.087,106.866,70.5,100.52,70.5z
				 M85.771,56.507c0.017,0.026,0.033,0.052,0.048,0.08C88.101,60.663,93.046,67.5,100.52,67.5c5.369,0,9.937-2.877,13.578-8.55
				c0.018-0.027,0.036-0.054,0.055-0.081c2.517-3.911,4.474-9.099,5.513-14.617l0,0c0.633-3.367-0.269-6.825-2.477-9.486
				c-2.249-2.711-5.554-4.266-9.069-4.266h-15.2c-3.515,0-6.821,1.555-9.069,4.266c-2.208,2.661-3.11,6.119-2.477,9.486
				C82.161,48.487,83.721,52.835,85.771,56.507z M121.14,44.53h0.01H121.14z"/>
		</g>
	</g>
</g>
</svg>
