<?xml version="1.0" encoding="utf-8"?>
<!-- Generator: Adobe Illustrator 22.0.1, SVG Export Plug-In . SVG Version: 6.00 Build 0)  -->
<svg version="1.1" id="Layer_1" xmlns="http://www.w3.org/2000/svg" xmlns:xlink="http://www.w3.org/1999/xlink" x="0px" y="0px"
	 viewBox="0 0 128 128" style="enable-background:new 0 0 128 128;" xml:space="preserve">
<style type="text/css">
	.st0{fill:#3A2C60;}
	.st1{fill:#E6E7E8;}
	.st2{fill:#6DC9F7;}
	.st3{fill:#FFFFFF;}
	.st4{fill:#FA759E;}
	.st5{fill:#FFD7E5;}
	.st6{fill:#D4FBFF;}
	.st7{fill:#0089EF;}
</style>
<g>
	<path class="st1" d="M88.919,58.667c-3.833-1.718-6.309-5.536-6.309-9.727c0-1.811,0.473-3.575,1.333-5.134
		c0.747,0.554,1.501,1.141,2.263,1.775c0.538,0.447,1.219,0.693,1.917,0.693c0.895,0,1.735-0.394,2.308-1.082
		c1.058-1.271,0.883-3.167-0.388-4.225c-0.97-0.807-1.93-1.55-2.883-2.246c0.023-0.72-0.176-1.446-0.634-2.046
		c-0.687-0.906-1.452-1.766-2.26-2.543c-0.053-0.054-0.11-0.105-0.165-0.148c-0.72-0.613-1.665-0.885-2.601-0.75
		c-0.72,0.106-1.379,0.446-1.89,0.959c-4.248-2.001-8.261-2.982-11.972-3.253l-0.019-1.37c4.549,0,8.25-3.701,8.25-8.25
		s-3.701-8.25-8.25-8.25h-4.25c-1.378,0-2.5,1.122-2.5,2.5s1.122,2.5,2.5,2.5h4.25c1.792,0,3.25,1.458,3.25,3.25
		s-1.458,3.25-3.25,3.25c-2.722,0-4.936,2.214-4.936,4.936v1.48c-4.039,0.372-7.614,1.524-10.622,2.93
		c-1.299-1.015-3.128-0.943-4.316,0.203c-0.82,0.789-1.584,1.648-2.271,2.554c-0.388,0.508-0.596,1.105-0.638,1.712
		c-2.036,1.608-3.165,2.851-3.212,2.904c-1.091,1.237-0.973,3.134,0.262,4.229c1.233,1.094,3.132,0.979,4.232-0.253
		c0.121-0.137,0.741-0.812,1.789-1.72c0.71,1.204,1.189,2.539,1.381,3.938c0.067,0.499,0.101,0.989,0.101,1.457
		c0,2.046-0.585,4.038-1.691,5.76c-1.118,1.741-2.715,3.113-4.613,3.965c-1.35,0.597-2.118,2.118-1.828,3.611
		c0.404,2.13,1.352,7.119,1.973,11.427c0.312,2.158,0.494,3.722,0.573,4.933c0.037,0.491,0.057,0.936,0.057,1.314
		c0,0.194-0.008,0.396-0.02,0.695c-0.036,0.796-0.138,1.82-0.303,3.05c-0.083,0.661-0.188,1.356-0.297,2.076l-0.059,0.394
		c-0.246,1.56-0.542,3.279-0.856,4.977c-0.309,1.691-0.617,3.273-0.876,4.53c-0.198,0.974,0.05,1.974,0.68,2.744
		c0.631,0.772,1.564,1.215,2.58,1.215c3.882,0,7.53,1.512,10.273,4.258c2.744,2.747,4.252,6.397,4.247,10.282v0.86
		c0,2.15,1.745,3.9,3.89,3.9h4.56c2.194,0,3.98-1.79,3.98-3.99v-0.41c0-8.216,6.688-14.9,14.91-14.9c0.186-0.001,0.37,0,0.569,0.009
		c1,0.047,1.956-0.374,2.613-1.137c0.663-0.77,0.932-1.784,0.74-2.781l-0.09-0.467c-0.231-1.201-0.503-2.612-0.769-4.115
		c-0.294-1.598-0.583-3.316-0.834-4.966c-0.129-0.867-0.249-1.703-0.356-2.47c-0.163-1.383-0.25-2.326-0.284-3.049l-0.004-0.111
		c-0.008-0.213-0.015-0.406-0.015-0.593c0-0.176,0.007-0.359,0.015-0.562l0.004-0.111l0.001-0.02
		c0.009-0.19,0.018-0.398,0.037-0.625c0.092-1.269,0.29-2.974,0.572-4.929c0.29-2.007,0.642-4.092,0.915-5.68
		c0.399-2.264,0.788-4.338,1.057-5.743C91.032,60.783,90.264,59.263,88.919,58.667z M67.379,41.988
		c-0.403,0.049-0.854,0.073-1.379,0.073c-3.652,0-7.092-1.263-9.82-3.506c4.943-1.916,11.49-2.737,19.159,0.345
		C73.046,40.631,70.294,41.733,67.379,41.988z"/>
	<g>
		<path class="st6" d="M59.37,13.07h4.25c2.343,0,4.25,1.907,4.25,4.25s-1.907,4.25-4.25,4.25c-2.17,0-3.936,1.766-3.936,3.936
			v2.413c0.974-0.058,1.974-0.07,3-0.025v-2.388c0-0.516,0.42-0.936,0.936-0.936c3.998,0,7.25-3.252,7.25-7.25
			s-3.252-7.25-7.25-7.25h-4.25c-0.829,0-1.5,0.671-1.5,1.5S58.541,13.07,59.37,13.07z"/>
		<g>
			<path class="st7" d="M84.124,41.274c-0.451,0-0.904-0.152-1.278-0.462C59.174,21.114,42.088,39.795,41.372,40.6
				c-0.733,0.823-1.996,0.901-2.822,0.169c-0.826-0.731-0.905-1.991-0.175-2.818c0.201-0.227,20.325-22.435,47.029-0.215
				c0.849,0.707,0.964,1.968,0.258,2.817C85.267,41.029,84.697,41.274,84.124,41.274z"/>
		</g>
		<g>
			<path class="st4" d="M83.16,75.24c-0.01,0.26-0.02,0.49-0.02,0.71c0,0.23,0.01,0.47,0.02,0.74c0.04,0.87,0.15,1.94,0.29,3.13
				c0.11,0.79,0.23,1.63,0.36,2.5c0.25,1.64,0.54,3.37,0.84,5c0.3,1.7,0.61,3.29,0.86,4.59c0.28,1.45-0.86,2.79-2.33,2.73
				c-0.21-0.01-0.41-0.01-0.61-0.01c-8.79,0-15.91,7.12-15.91,15.9v0.41c0,1.65-1.33,2.99-2.98,2.99h-4.56
				c-1.59,0-2.89-1.31-2.89-2.9v-0.86c0.01-8.58-6.94-15.54-15.52-15.54c-0.01,0-0.01,0-0.02,0c-1.45,0-2.55-1.33-2.26-2.76
				c0.26-1.26,0.57-2.85,0.88-4.55c0.3-1.62,0.6-3.35,0.86-5c0.13-0.87,0.26-1.71,0.36-2.5c0.16-1.19,0.27-2.26,0.31-3.13
				c0.01-0.27,0.02-0.51,0.02-0.74c0-0.4-0.02-0.87-0.06-1.39c-0.09-1.38-0.31-3.13-0.58-5c-0.6-4.16-1.49-8.89-1.98-11.47
				c-0.2-1.03,0.3-2.09,1.25-2.51c2.07-0.93,3.83-2.44,5.05-4.34c1.17-1.82,1.85-3.98,1.85-6.3c0-0.54-0.04-1.07-0.11-1.59
				c-0.38-2.77-1.73-5.23-3.7-7.02c-0.87-0.79-1.02-2.12-0.31-3.05c0.66-0.87,1.39-1.69,2.17-2.44c0.88-0.85,2.21-0.83,3.09-0.08
				c0.19,0.15,0.35,0.34,0.49,0.56c2.92,4.65,8.09,7.74,13.98,7.74c0.51,0,1.01-0.02,1.5-0.08h0.01c5.26-0.47,9.8-3.41,12.47-7.66
				c0.77-1.22,2.41-1.5,3.49-0.56c0.03,0.02,0.06,0.05,0.09,0.08c0.78,0.75,1.51,1.57,2.17,2.44c0.71,0.93,0.56,2.26-0.31,3.05
				c-2.34,2.13-3.81,5.2-3.81,8.61c0,4.74,2.84,8.82,6.9,10.64c0.95,0.42,1.45,1.48,1.25,2.51c-0.27,1.41-0.66,3.49-1.06,5.76
				c-0.32,1.86-0.65,3.84-0.92,5.71c-0.27,1.87-0.48,3.62-0.58,5C83.18,74.8,83.17,75.03,83.16,75.24z"/>
			<g>
				<path class="st3" d="M42.31,92.365c0.3-1.804,0.6-3.731,0.86-5.568c0.13-0.969,0.26-1.904,0.36-2.784
					c0.16-1.325,0.27-2.517,0.31-3.486c0.01-0.301,0.02-0.568,0.02-0.824c0-0.445-0.02-0.969-0.06-1.548
					c-0.09-1.537-0.31-3.486-0.58-5.568c-0.6-4.633-1.49-9.901-1.98-12.774c-0.2-1.147,0.3-2.328,1.25-2.795
					c2.07-1.036,3.83-2.717,5.05-4.833c1.17-2.027,1.85-4.432,1.85-7.016c0-0.601-0.04-1.192-0.11-1.771
					c-0.38-3.085-1.73-5.825-3.7-7.818c-0.87-0.88-1.02-2.361-0.31-3.397c0.446-0.655,0.933-1.271,1.437-1.868
					c-0.765-0.239-1.632-0.085-2.267,0.528c-0.78,0.75-1.51,1.57-2.17,2.44c-0.71,0.93-0.56,2.26,0.31,3.05
					c1.97,1.79,3.32,4.25,3.7,7.02c0.07,0.52,0.11,1.05,0.11,1.59c0,2.32-0.68,4.48-1.85,6.3c-1.22,1.9-2.98,3.41-5.05,4.34
					c-0.95,0.42-1.45,1.48-1.25,2.51c0.49,2.58,1.38,7.31,1.98,11.47c0.27,1.87,0.49,3.62,0.58,5c0.04,0.52,0.06,0.99,0.06,1.39
					c0,0.23-0.01,0.47-0.02,0.74c-0.04,0.87-0.15,1.94-0.31,3.13c-0.1,0.79-0.23,1.63-0.36,2.5c-0.26,1.65-0.56,3.38-0.86,5
					c-0.31,1.7-0.62,3.29-0.88,4.55c-0.29,1.43,0.81,2.76,2.26,2.76c0.01,0,0.01,0,0.02,0c0.408,0,0.808,0.03,1.208,0.061
					C42.047,93.948,42.178,93.172,42.31,92.365z"/>
			</g>
			<g>
				<path class="st5" d="M52.157,44.443c-0.501,0-0.907,0.406-0.907,0.907s0.406,0.907,0.907,0.907s0.907-0.406,0.907-0.907
					S52.658,44.443,52.157,44.443z"/>
				<path class="st5" d="M71.843,44.443c-0.501,0-0.907,0.406-0.907,0.907s0.406,0.907,0.907,0.907c0.501,0,0.907-0.406,0.907-0.907
					S72.344,44.443,71.843,44.443z"/>
				<path class="st5" d="M58.843,46.663c-0.501,0-0.907,0.406-0.907,0.907s0.406,0.907,0.907,0.907c0.501,0,0.907-0.406,0.907-0.907
					S59.344,46.663,58.843,46.663z"/>
				<path class="st5" d="M65.157,46.663c-0.501,0-0.907,0.406-0.907,0.907s0.406,0.907,0.907,0.907s0.907-0.406,0.907-0.907
					S65.658,46.663,65.157,46.663z"/>
				<path class="st5" d="M50.562,38.57c-0.501,0-0.907,0.406-0.907,0.907s0.406,0.907,0.907,0.907c0.501,0,0.907-0.406,0.907-0.907
					S51.063,38.57,50.562,38.57z"/>
				<path class="st5" d="M73.437,38.57c-0.501,0-0.907,0.406-0.907,0.907s0.406,0.907,0.907,0.907c0.501,0,0.907-0.406,0.907-0.907
					S73.938,38.57,73.437,38.57z"/>
				<path class="st5" d="M56.155,41.384c-0.501,0-0.907,0.406-0.907,0.907s0.406,0.907,0.907,0.907c0.501,0,0.907-0.406,0.907-0.907
					S56.656,41.384,56.155,41.384z"/>
				<path class="st5" d="M67.844,41.384c-0.501,0-0.907,0.406-0.907,0.907s0.406,0.907,0.907,0.907s0.907-0.406,0.907-0.907
					S68.345,41.384,67.844,41.384z"/>
				<path class="st5" d="M62,42.384c-0.501,0-0.907,0.406-0.907,0.907s0.406,0.907,0.907,0.907c0.501,0,0.907-0.406,0.907-0.907
					S62.501,42.384,62,42.384z"/>
				<path class="st5" d="M62,51.413c-0.501,0-0.907,0.406-0.907,0.907s0.406,0.907,0.907,0.907c0.501,0,0.907-0.406,0.907-0.907
					S62.501,51.413,62,51.413z"/>
			</g>
			<g>
				<path class="st0" d="M84.919,54.668c-3.833-1.718-6.309-5.536-6.309-9.728c0-1.805,0.47-3.562,1.325-5.118
					c0.75,0.55,1.505,1.121,2.271,1.759c0.538,0.447,1.219,0.693,1.917,0.693c0.895,0,1.735-0.394,2.308-1.082
					c1.058-1.271,0.883-3.167-0.388-4.225c-0.97-0.807-1.929-1.537-2.882-2.232c0.026-0.725-0.173-1.456-0.634-2.061
					c-0.69-0.909-1.455-1.769-2.26-2.542c-0.039-0.039-0.097-0.097-0.176-0.157c-0.717-0.606-1.657-0.877-2.589-0.741
					c-0.728,0.107-1.395,0.451-1.908,0.972c-4.24-1.994-8.25-2.991-11.955-3.262L63.62,25.57c4.549,0,8.25-3.701,8.25-8.25
					s-3.701-8.25-8.25-8.25h-4.25c-1.378,0-2.5,1.122-2.5,2.5s1.122,2.5,2.5,2.5h4.25c1.792,0,3.25,1.458,3.25,3.25
					s-1.458,3.25-3.25,3.25c-2.722,0-4.936,2.214-4.936,4.936v1.496c-4.037,0.372-7.612,1.512-10.618,2.917
					c-1.3-1.018-3.131-0.947-4.319,0.199c-0.818,0.787-1.583,1.647-2.272,2.554c-0.389,0.51-0.597,1.109-0.638,1.718
					c-2.028,1.603-3.165,2.845-3.212,2.898c-1.091,1.237-0.973,3.134,0.262,4.229c1.234,1.094,3.132,0.98,4.232-0.253
					c0.121-0.137,0.741-0.811,1.789-1.719c0.709,1.204,1.189,2.539,1.381,3.938c0.067,0.499,0.101,0.989,0.101,1.457
					c0,2.047-0.585,4.039-1.691,5.76c-1.117,1.74-2.714,3.112-4.613,3.965c-1.35,0.597-2.119,2.117-1.828,3.611
					c0.404,2.13,1.352,7.119,1.973,11.427c0.313,2.164,0.494,3.728,0.573,4.934c0.038,0.491,0.057,0.935,0.057,1.313
					c0,0.186-0.007,0.379-0.015,0.591l-0.004,0.103c-0.037,0.804-0.139,1.828-0.303,3.05c-0.083,0.652-0.186,1.339-0.292,2.048
					l-0.063,0.421c-0.247,1.565-0.543,3.285-0.856,4.977c-0.309,1.691-0.616,3.273-0.876,4.531c-0.198,0.973,0.05,1.973,0.68,2.743
					c0.631,0.772,1.564,1.215,2.581,1.215c3.882,0,7.53,1.512,10.272,4.258c2.744,2.747,4.252,6.397,4.247,10.282v0.86
					c0,2.151,1.745,3.9,3.89,3.9h4.56c2.194,0,3.98-1.79,3.98-3.99v-0.41c0-8.216,6.688-14.9,14.91-14.9
					c0.185-0.002,0.368,0,0.569,0.009c1.016,0.048,1.957-0.374,2.613-1.138c0.663-0.77,0.932-1.784,0.74-2.78L86.4,91.243
					c-0.231-1.199-0.502-2.605-0.767-4.104c-0.294-1.598-0.583-3.316-0.834-4.967c-0.129-0.866-0.249-1.703-0.356-2.469l-0.1-0.878
					c-0.06-0.55-0.557-0.949-1.103-0.886c-0.549,0.06-0.945,0.553-0.886,1.103l0.104,0.916c0.11,0.793,0.23,1.637,0.361,2.513
					c0.255,1.673,0.547,3.413,0.844,5.023c0.265,1.502,0.538,2.919,0.771,4.127l0.092,0.479c0.076,0.394-0.03,0.793-0.292,1.098
					c-0.255,0.298-0.626,0.469-1.007,0.444c-0.227-0.011-0.443-0.011-0.659-0.011c-9.324,0-16.91,7.581-16.91,16.9v0.41
					c0,1.098-0.888,1.99-1.98,1.99h-4.56c-1.042,0-1.89-0.853-1.89-1.9v-0.859c0.005-4.417-1.711-8.571-4.832-11.696
					c-3.121-3.124-7.271-4.845-11.708-4.845c-0.393,0-0.762-0.175-1.012-0.481c-0.248-0.304-0.346-0.697-0.269-1.077
					c0.261-1.267,0.573-2.864,0.884-4.57c0.316-1.706,0.615-3.443,0.866-5.034l0.064-0.428c0.109-0.726,0.214-1.428,0.298-2.087
					c0.171-1.272,0.278-2.355,0.318-3.227l0.004-0.111c0.009-0.238,0.017-0.456,0.017-0.665c0-0.422-0.021-0.918-0.062-1.455
					c-0.082-1.248-0.268-2.861-0.588-5.078c-0.627-4.351-1.581-9.371-1.988-11.519c-0.115-0.591,0.168-1.181,0.679-1.407
					c2.258-1.015,4.154-2.645,5.481-4.711c1.314-2.044,2.009-4.41,2.009-6.841c0-0.556-0.04-1.136-0.119-1.726
					c-0.401-2.927-1.829-5.635-4.019-7.625c-0.493-0.447-0.575-1.196-0.186-1.706c0.628-0.827,1.323-1.609,2.069-2.325
					c0.479-0.462,1.23-0.478,1.775-0.014c0.09,0.071,0.179,0.175,0.263,0.306c3.228,5.14,8.771,8.208,14.827,8.208
					c0.62,0,1.135-0.028,1.587-0.084c5.391-0.471,10.34-3.508,13.239-8.123c0.22-0.349,0.573-0.582,0.966-0.64
					c0.376-0.053,0.736,0.052,1.021,0.301c0.034,0.03,0.07,0.057,0.108,0.082c-0.034-0.022-0.058-0.038-0.055-0.036
					c0.744,0.715,1.439,1.497,2.068,2.326c0.388,0.507,0.306,1.256-0.188,1.704c-2.629,2.393-4.137,5.801-4.137,9.35
					c0,4.979,2.94,9.513,7.496,11.555c0.505,0.223,0.788,0.813,0.672,1.407c-0.271,1.414-0.662,3.499-1.063,5.779
					c-0.243,1.411-0.491,2.892-0.715,4.341c-0.084,0.546,0.29,1.057,0.835,1.141c0.542,0.08,1.057-0.289,1.141-0.835
					c0.222-1.438,0.469-2.907,0.709-4.304c0.399-2.264,0.788-4.339,1.057-5.743C87.033,56.783,86.264,55.262,84.919,54.668z
					 M40.625,39.935c-0.368,0.413-1.002,0.449-1.412,0.086c-0.412-0.365-0.452-0.997-0.09-1.406
					c0.039-0.043,0.842-0.916,2.296-2.119c0.141,0.205,0.299,0.401,0.49,0.574c0.296,0.269,0.569,0.558,0.831,0.856
					C41.5,38.983,40.762,39.78,40.625,39.935z M60.684,25.506c0-1.619,1.317-2.936,2.936-2.936c2.895,0,5.25-2.355,5.25-5.25
					s-2.355-5.25-5.25-5.25h-4.25c-0.276,0-0.5-0.224-0.5-0.5s0.224-0.5,0.5-0.5h4.25c3.446,0,6.25,2.804,6.25,6.25
					s-2.804,6.25-6.25,6.25c-1.067,0-1.936,0.869-1.936,1.936v1.359c-0.339-0.003-0.667,0.014-1,0.022V25.506z M63.378,37.987
					c-0.404,0.05-0.842,0.073-1.378,0.073c-3.653,0-7.094-1.263-9.822-3.508c4.941-1.914,11.489-2.725,19.153,0.353
					C69.039,36.633,66.29,37.733,63.378,37.987z M73.028,33.424c-4.258-1.873-8.218-2.626-11.796-2.626
					c-4.078,0-7.656,0.954-10.648,2.241c-0.425-0.465-0.827-0.958-1.198-1.479c6.206-2.755,14.866-4.271,24.979,0.305
					C73.95,32.414,73.509,32.939,73.028,33.424z M82.093,37.07c0.13-0.118,0.241-0.249,0.348-0.382
					c0.769,0.571,1.542,1.167,2.324,1.817c0.424,0.353,0.482,0.985,0.129,1.409c-0.191,0.229-0.471,0.36-0.77,0.36
					c-0.165,0-0.409-0.04-0.639-0.231c-0.813-0.677-1.616-1.294-2.414-1.883C81.387,37.778,81.721,37.408,82.093,37.07z"/>
				<path class="st0" d="M82.547,71.198c-0.163,1.269-0.278,2.376-0.344,3.279c-0.019,0.222-0.029,0.435-0.042,0.714
					c0,0-0.097,1.015,0.983,1.015c1.038,0,1.019-0.999,1.019-0.999c0.008-0.177,0.017-0.367,0.035-0.575
					c0.063-0.877,0.176-1.947,0.333-3.18c0.07-0.548-0.317-1.049-0.865-1.119C83.112,70.261,82.617,70.65,82.547,71.198z"/>
			</g>
		</g>
	</g>
</g>
</svg>
