<?xml version="1.0" encoding="utf-8"?>
<!-- Generator: Adobe Illustrator 22.0.1, SVG Export Plug-In . SVG Version: 6.00 Build 0)  -->
<svg version="1.1" id="Layer_1" xmlns="http://www.w3.org/2000/svg" xmlns:xlink="http://www.w3.org/1999/xlink" x="0px" y="0px"
	 viewBox="0 0 128 128" style="enable-background:new 0 0 128 128;" xml:space="preserve">
<style type="text/css">
	.st0{fill:#3A2C60;}
	.st1{fill:#E6E7E8;}
	.st2{fill:#6DC9F7;}
	.st3{fill:#FFFFFF;}
	.st4{fill:#FA759E;}
	.st5{fill:#FFD7E5;}
	.st6{fill:#D4FBFF;}
	.st7{fill:#0089EF;}
</style>
<g>
	<g>
		<path class="st1" d="M12.92,60.528c0.177,0.138,0.245,0.372,0.168,0.582l-0.532,1.472c-0.301,0.833-0.044,1.723,0.656,2.267
			c0.699,0.543,1.625,0.574,2.356,0.077l1.296-0.877c0.185-0.126,0.43-0.117,0.605,0.02l1.235,0.961
			c0.368,0.287,0.798,0.431,1.23,0.431c0.39,0,0.78-0.117,1.128-0.353c0.733-0.497,1.048-1.367,0.802-2.218l-0.434-1.503
			c-0.063-0.215,0.021-0.444,0.206-0.57l1.295-0.877c0.733-0.497,1.049-1.367,0.803-2.218c-0.246-0.851-0.976-1.42-1.862-1.449
			l-1.563-0.051c-0.224-0.007-0.417-0.157-0.479-0.373l-0.434-1.503c-0.246-0.851-0.977-1.419-1.861-1.449
			c-0.903-0.04-1.653,0.49-1.954,1.323l-0.532,1.472c-0.076,0.211-0.291,0.366-0.501,0.339l-1.564-0.052
			c-0.878-0.019-1.652,0.491-1.954,1.324c-0.301,0.833-0.044,1.722,0.655,2.266L12.92,60.528z"/>
		<path class="st1" d="M121.011,75.909c-0.246-0.851-0.977-1.419-1.861-1.448l-1.563-0.052c-0.225-0.007-0.417-0.157-0.479-0.372
			l-0.435-1.503c-0.246-0.851-0.977-1.42-1.861-1.449c-0.918-0.02-1.652,0.491-1.954,1.323l-0.532,1.472
			c-0.076,0.21-0.274,0.365-0.501,0.339l-1.563-0.051c-0.927-0.026-1.653,0.49-1.954,1.323c-0.302,0.833-0.045,1.723,0.654,2.267
			l1.236,0.961c0.176,0.137,0.243,0.371,0.167,0.582l-0.532,1.472c-0.301,0.833-0.043,1.723,0.655,2.266
			c0.7,0.544,1.625,0.573,2.357,0.078l1.296-0.878c0.186-0.125,0.429-0.118,0.605,0.02l1.234,0.961c0,0,0,0,0.001,0
			c0.367,0.286,0.798,0.43,1.229,0.43c0.39,0,0.78-0.117,1.128-0.353c0.733-0.497,1.048-1.367,0.803-2.218l-0.435-1.502
			c-0.063-0.215,0.021-0.444,0.207-0.57l1.294-0.877C120.942,77.631,121.257,76.76,121.011,75.909z"/>
		<path class="st1" d="M110.847,96.314h-9.924c0.856-0.896,1.575-1.894,2.151-2.966h2.222c0.553,0,1-0.448,1-1s-0.447-1-1-1h-1.348
			c0.115-0.344,0.218-0.693,0.303-1.047h1.045c0.553,0,1-0.448,1-1s-0.447-1-1-1h-0.755c0.019-0.28,0.048-0.558,0.048-0.842
			c0-0.07-0.01-0.136-0.011-0.205h0.718c0.553,0,1-0.448,1-1s-0.447-1-1-1h-0.935c-0.514-2.535-1.932-4.621-4.209-6.124
			c1.663-2.649,3.11-6.125,3.864-9.327c0.77-3.269,0.758-5.944-0.035-7.953c-0.755-1.91-2.19-3.164-4.152-3.626
			c-1.964-0.46-3.807,0.02-5.334,1.393c-1.606,1.444-2.811,3.833-3.58,7.102c-0.735,3.126-0.998,6.675-0.735,9.735
			c-0.266-0.008-0.532,0.001-0.797,0c-0.088-0.025-0.176-0.055-0.272-0.055c-0.002,0-0.004,0-0.005,0
			c-0.284,0.002-0.559,0.017-0.83,0.035c0.26-3.057-0.001-6.596-0.735-9.715c-2.134-9.06-6.943-8.959-8.914-8.495
			c-0.066,0.016-0.142,0.038-0.213,0.058c0.459-1.138,0.831-2.319,1.109-3.536c0.306,0.09,0.616,0.149,0.929,0.149
			c2.45,0,4.369-2.529,4.369-5.757c0-2.75-1.395-4.986-3.322-5.59V25.535c0-4.041-2.814-7.417-6.586-8.297
			c0.51-0.504,0.968-1.105,1.289-1.823c1.813-4.063-1.844-7.103-2.661-7.103c-0.745,0-0.484,1.353-3.214,3.165
			c-2.739,1.818-5.25,2.026-5.25,2.026S57.513,8.31,49.096,9.727c-6.04,1.017-10.564,5.583-12.645,8.088
			c-2.905,1.359-4.923,4.3-4.923,7.72v18.012c-1.928,0.604-3.322,2.84-3.322,5.59c0,3.228,1.919,5.757,4.369,5.757
			c0.289,0,0.576-0.053,0.859-0.13c1.498,6.518,5.698,12.012,11.358,15.237c-6.309,1.193-11.923,4.362-16.18,8.839
			c-0.05,0.041-0.091,0.089-0.133,0.14c-2.798,2.981-4.997,6.527-6.402,10.451l-4.992-18.084c-0.44-1.595-2.097-2.535-3.69-2.093
			c-1.594,0.44-2.533,2.096-2.093,3.69l9.024,32.69v3.713c-2.516,1.717-3.91,4.826-3.288,8c0.733,3.74,4.025,6.341,7.702,6.341
			c0.499,0,1.005-0.048,1.513-0.147l3.23-0.634c0.232-0.046,0.452-0.122,0.67-0.201h42.215v0.001h23.638
			c0.217,0.078,0.436,0.154,0.667,0.2l3.23,0.634c0.509,0.1,1.02,0.149,1.527,0.149c1.543,0,3.053-0.457,4.363-1.337
			c1.74-1.17,2.921-2.947,3.324-5.005s-0.019-4.149-1.188-5.89c-0.812-1.209-1.923-2.14-3.213-2.736l-0.012-7.669h6.142
			c1.308,0,2.368-1.06,2.368-2.368C113.215,97.375,112.155,96.314,110.847,96.314z M74.437,69.803
			c0.185,0.786,0.413,1.587,0.675,2.389c-2.185-1.001-4.508-1.747-6.935-2.201c2.123-1.212,4.042-2.741,5.689-4.527
			C73.873,66.695,74.043,68.128,74.437,69.803z"/>
	</g>
	<g>
		<g>
			<g>
				<path class="st7" d="M60.699,66.552c-2.539,0.987-5.298,1.535-8.186,1.535h0c-2.888,0-5.647-0.547-8.186-1.535
					c-15.087,1.059-27,13.625-27,28.981v22.173h70.373V95.533C87.699,80.176,75.786,67.61,60.699,66.552z"/>
				<path class="st3" d="M44.327,66.552c-15.087,1.059-27,13.625-27,28.981v22.173h3V95.533c0-14.557,10.704-26.614,24.67-28.731
					C44.771,66.722,44.548,66.638,44.327,66.552z"/>
				<path class="st3" d="M52.513,68.086L52.513,68.086c-2.886,0-5.642-0.546-8.179-1.532c-0.889,0.063-1.77,0.155-2.636,0.295
					l11.379,45.411l10.251-45.411c-0.866-0.14-1.747-0.232-2.636-0.295C58.155,67.54,55.398,68.086,52.513,68.086z"/>
			</g>
		</g>
		<path class="st5" d="M15.319,60.24l-1.235-0.961c-0.518-0.403-1.237-0.427-1.78-0.059l-1.296,0.878
			c-0.807,0.547-1.843-0.259-1.511-1.176l0.532-1.472c0.223-0.617,0.024-1.308-0.494-1.711l-1.235-0.961
			c-0.77-0.599-0.323-1.833,0.651-1.801l1.564,0.052c0.656,0.022,1.251-0.382,1.475-0.999l0.532-1.472
			c0.332-0.917,1.643-0.874,1.914,0.063l0.434,1.503c0.182,0.631,0.75,1.072,1.406,1.094l1.564,0.052
			c0.975,0.032,1.339,1.293,0.531,1.84l-1.296,0.878c-0.543,0.368-0.788,1.044-0.606,1.675l0.434,1.503
			C17.175,60.103,16.089,60.839,15.319,60.24z"/>
		<path class="st5" d="M112.595,78.43l-1.235-0.961c-0.518-0.403-1.237-0.427-1.78-0.059l-1.296,0.878
			c-0.807,0.547-1.843-0.259-1.511-1.176l0.532-1.472c0.223-0.617,0.024-1.308-0.494-1.711l-1.235-0.961
			c-0.77-0.599-0.323-1.833,0.651-1.801l1.564,0.052c0.656,0.022,1.251-0.382,1.475-0.999l0.532-1.472
			c0.332-0.917,1.643-0.874,1.914,0.063l0.434,1.503c0.182,0.631,0.75,1.072,1.406,1.094l1.564,0.052
			c0.975,0.032,1.339,1.293,0.531,1.84l-1.296,0.878c-0.543,0.368-0.788,1.044-0.606,1.675l0.434,1.503
			C114.452,78.293,113.365,79.029,112.595,78.43z"/>
		<g>
			<g>
				<g>
					<g>
						<g>
							<path class="st3" d="M94.742,75.45c1.827-2.615,3.476-6.375,4.301-9.876c1.532-6.507-0.363-9.651-3.444-10.376
								c-3.08-0.725-6.179,1.243-7.711,7.75c-0.808,3.43-1.018,7.436-0.585,10.564c-0.678-0.048-1.37-0.073-2.076-0.073
								c-0.705,0-1.398,0.025-2.076,0.073c0.432-3.129,0.222-7.134-0.585-10.564c-1.532-6.507-4.631-8.475-7.711-7.75
								c-3.08,0.725-4.976,3.869-3.444,10.376c0.824,3.501,2.473,7.261,4.301,9.876c-2.972,1.609-4.847,4.225-4.847,8.009
								c0,7.01,6.43,12.692,14.362,12.692s14.362-5.683,14.362-12.692C99.589,79.675,97.714,77.059,94.742,75.45z"/>
							<path class="st5" d="M76.407,86.611c-0.607,0-1.099,0.335-1.099,0.749c0,0.414,0.492,0.749,1.099,0.749
								c0.607,0,1.099-0.335,1.099-0.749C77.506,86.946,77.014,86.611,76.407,86.611z"/>
							<ellipse class="st5" cx="94.284" cy="87.36" rx="1.099" ry="0.749"/>
							<g>
								<path class="st4" d="M79.746,63.661c-0.606-3.124-2.272-5.428-3.721-5.147c-1.449,0.281-2.132,3.041-1.525,6.165
									c0.606,3.124,2.272,5.428,3.721,5.147C79.67,69.545,80.353,66.784,79.746,63.661z"/>
								<path class="st4" d="M94.42,58.513c-1.449-0.281-3.115,2.023-3.721,5.147c-0.606,3.124,0.077,5.884,1.525,6.165
									c1.449,0.281,3.115-2.023,3.721-5.147C96.552,61.555,95.869,58.795,94.42,58.513z"/>
							</g>
						</g>
					</g>
				</g>
			</g>
		</g>
		<g>
			<path class="st3" d="M76.451,40.381c-0.49,0-0.953,0.155-1.373,0.421c0.017,0.416,0.043,0.83,0.043,1.247v3.429
				c0,1.289-0.114,2.552-0.321,3.782c0.49,0.392,1.048,0.634,1.651,0.634c1.861,0,3.369-2.13,3.369-4.757
				S78.312,40.381,76.451,40.381z"/>
			<path class="st3" d="M29.904,45.478v-3.429c0-0.417,0.026-0.832,0.043-1.247c-0.42-0.266-0.883-0.421-1.373-0.421
				c-1.861,0-3.369,2.13-3.369,4.757s1.508,4.757,3.369,4.757c0.603,0,1.161-0.242,1.651-0.634
				C30.018,48.03,29.904,46.767,29.904,45.478z"/>
			<path class="st3" d="M75.079,40.813c-0.026-0.635-0.072-1.268-0.137-1.899c-0.002-0.023-0.005-0.046-0.007-0.069
				c-0.063-0.605-0.146-1.207-0.244-1.806c-0.01-0.06-0.021-0.12-0.031-0.18c-0.096-0.563-0.208-1.123-0.336-1.679
				c-0.025-0.108-0.053-0.216-0.079-0.324c-0.123-0.51-0.256-1.018-0.405-1.522c-0.049-0.166-0.105-0.329-0.157-0.494
				c-0.141-0.448-0.287-0.895-0.448-1.337c-0.086-0.234-0.183-0.464-0.274-0.696c-0.147-0.373-0.292-0.747-0.454-1.114
				c-0.146-0.33-0.307-0.652-0.464-0.977c-0.13-0.27-0.253-0.543-0.391-0.809c-0.308-0.59-0.633-1.172-0.98-1.743
				c-0.002-0.003-0.003-0.006-0.005-0.009c-0.343-0.564-0.719-1.099-1.125-1.607c-0.005-0.006-0.009-0.013-0.014-0.019
				c-0.406-0.508-0.843-0.987-1.305-1.436c-0.003-0.003-0.005-0.005-0.008-0.008c-0.931-0.903-1.968-1.682-3.084-2.324c0,0,0,0,0,0
				c-1.867,1.519-6.803,2.607-12.617,2.607c-5.814,0-10.75-1.088-12.617-2.607c0,0-0.001,0-0.001,0.001
				c-1.115,0.641-2.152,1.421-3.083,2.323c-0.003,0.003-0.006,0.006-0.009,0.009c-0.462,0.448-0.897,0.927-1.303,1.434
				c-0.006,0.007-0.011,0.015-0.016,0.022c-0.404,0.507-0.78,1.042-1.122,1.604c0,0-0.001,0.001-0.001,0.001v0
				c-0.35,0.574-0.677,1.16-0.986,1.754c-0.137,0.263-0.258,0.534-0.387,0.801c-0.158,0.327-0.321,0.652-0.468,0.983
				c-0.161,0.366-0.306,0.739-0.452,1.111c-0.092,0.233-0.19,0.465-0.276,0.701c-0.161,0.441-0.307,0.887-0.447,1.334
				c-0.052,0.165-0.108,0.329-0.157,0.495c-0.149,0.503-0.282,1.011-0.405,1.521c-0.026,0.109-0.054,0.217-0.079,0.326
				c-0.127,0.555-0.239,1.115-0.335,1.677c-0.011,0.061-0.022,0.122-0.032,0.184c-0.099,0.598-0.181,1.199-0.244,1.803
				c-0.003,0.024-0.005,0.048-0.007,0.073c-0.064,0.63-0.111,1.262-0.136,1.897l0,0c-0.017,0.412-0.042,0.823-0.042,1.236v3.429
				c0,12.486,10.122,22.608,22.608,22.608h0c12.486,0,22.608-10.122,22.608-22.608v-3.429
				C75.121,41.636,75.095,41.225,75.079,40.813L75.079,40.813z"/>
		</g>
		<g>
			<path class="st4" d="M19.424,105.113l2.893-0.567L12.122,67.614c-0.294-1.065-1.395-1.69-2.46-1.396h0
				c-1.065,0.294-1.689,1.395-1.396,2.46l10.138,36.726C18.733,105.285,19.07,105.182,19.424,105.113z"/>
			<path class="st3" d="M28.098,113.748l-1.267-6.461c-0.378-1.929-2.248-3.185-4.177-2.807l-3.231,0.634
				c-3.713,0.728-6.132,4.328-5.404,8.041c0.728,3.713,4.328,6.132,8.041,5.404l3.231-0.634
				C27.22,117.546,28.476,115.676,28.098,113.748z"/>
			<g>
				<g>
					<path class="st3" d="M98.733,105.113l-3.231-0.634c-1.928-0.378-3.798,0.879-4.177,2.807l-1.267,6.461
						c-0.378,1.929,0.879,3.798,2.807,4.177l3.231,0.634c3.713,0.728,7.313-1.692,8.041-5.404
						C104.866,109.441,102.446,105.841,98.733,105.113z"/>
					<g>
						<path class="st0" d="M34.302,100.17c-0.552,0-1,0.448-1,1v5.333c0,0.552,0.448,1,1,1s1-0.448,1-1v-5.333
							C35.302,100.618,34.854,100.17,34.302,100.17z"/>
						<path class="st0" d="M8.921,56.529c0.177,0.137,0.244,0.371,0.168,0.581l-0.532,1.472c-0.301,0.833-0.044,1.722,0.654,2.267
							c0.699,0.544,1.625,0.575,2.358,0.078l1.295-0.877c0.186-0.126,0.429-0.117,0.605,0.02l1.235,0.961c0,0,0,0,0,0
							c0.367,0.286,0.797,0.43,1.229,0.43c0.389,0,0.78-0.117,1.128-0.353c0.733-0.497,1.048-1.367,0.802-2.219l-0.434-1.503
							c-0.063-0.215,0.021-0.444,0.206-0.569l1.296-0.878c0.733-0.497,1.048-1.367,0.802-2.218
							c-0.246-0.851-0.977-1.419-1.862-1.449l-1.564-0.051c-0.224-0.007-0.416-0.157-0.478-0.372l-0.435-1.504
							c-0.246-0.851-0.977-1.419-1.862-1.448c-0.91-0.019-1.652,0.49-1.953,1.323l-0.532,1.471c-0.077,0.211-0.298,0.359-0.502,0.34
							l-1.564-0.052c-0.879-0.027-1.652,0.49-1.953,1.324c-0.301,0.833-0.044,1.722,0.655,2.266L8.921,56.529z M10.482,54.028
							c1.074,0.034,2.076-0.63,2.448-1.658l0.545-1.472l0.434,1.503c0.304,1.051,1.241,1.781,2.334,1.816l1.567,0.063l-1.296,0.878
							c-0.905,0.613-1.309,1.73-1.005,2.781l0.436,1.519c0,0-0.004-0.002-0.012-0.008l-1.236-0.962
							c-0.863-0.671-2.05-0.71-2.955-0.097l-1.305,0.87l0.532-1.472c0.372-1.028,0.042-2.169-0.821-2.84l-1.231-0.974L10.482,54.028
							z"/>
						<path class="st0" d="M117.011,71.909c-0.245-0.85-0.977-1.418-1.861-1.448l-1.563-0.052c-0.225-0.007-0.417-0.157-0.479-0.372
							l-0.434-1.504c-0.247-0.851-0.979-1.419-1.864-1.448c-0.892-0.019-1.651,0.491-1.951,1.323l-0.532,1.471
							c-0.076,0.211-0.273,0.371-0.502,0.34l-1.563-0.051c-0.869-0.02-1.652,0.49-1.953,1.323c-0.302,0.833-0.045,1.723,0.654,2.267
							l1.234,0.961c0.177,0.137,0.245,0.372,0.169,0.581l-0.533,1.473c-0.301,0.833-0.044,1.722,0.655,2.266
							c0.7,0.544,1.625,0.574,2.357,0.078l1.297-0.878c0.185-0.125,0.43-0.118,0.604,0.021l1.235,0.96
							c0.367,0.286,0.798,0.43,1.23,0.43c0.389,0,0.779-0.117,1.127-0.352c0.733-0.497,1.048-1.368,0.803-2.219l-0.435-1.503
							c-0.063-0.215,0.021-0.444,0.206-0.57l1.297-0.878C116.943,73.63,117.257,72.76,117.011,71.909z M113.792,73.35
							c-0.905,0.612-1.31,1.729-1.007,2.781l0.438,1.519c0,0-0.005-0.002-0.013-0.008c0,0,0,0,0,0l-1.235-0.961
							c-0.455-0.354-0.999-0.531-1.545-0.531c-0.49,0-0.982,0.144-1.41,0.434l-1.307,0.871l0.533-1.474
							c0.371-1.028,0.041-2.169-0.821-2.839l-1.23-0.973l1.563,0.051c1.088,0.046,2.077-0.63,2.449-1.658l0.545-1.471l0.434,1.504
							c0.305,1.05,1.242,1.779,2.334,1.815l1.568,0.064L113.792,73.35z"/>
						<path class="st0" d="M106.847,92.314h-9.924c0.855-0.896,1.575-1.894,2.151-2.966h2.222c0.553,0,1-0.448,1-1s-0.447-1-1-1
							h-1.347c0.115-0.344,0.218-0.693,0.303-1.047h1.045c0.553,0,1-0.448,1-1s-0.447-1-1-1h-0.755
							c0.019-0.28,0.048-0.558,0.048-0.842c0-0.07-0.01-0.135-0.011-0.205h0.718c0.553,0,1-0.448,1-1s-0.447-1-1-1h-0.935
							c-0.514-2.535-1.932-4.621-4.209-6.125c1.663-2.649,3.11-6.124,3.864-9.327c0.77-3.269,0.758-5.944-0.035-7.953
							c-0.755-1.911-2.19-3.164-4.152-3.626c-1.973-0.462-6.78-0.565-8.914,8.495c-0.735,3.124-0.997,6.673-0.735,9.735
							c-0.635-0.02-1.27-0.02-1.904,0c0.262-3.062,0-6.611-0.735-9.735c-2.134-9.06-6.947-8.957-8.914-8.495
							c-0.074,0.018-0.143,0.044-0.215,0.064c0.459-1.138,0.831-2.319,1.11-3.536c0.306,0.093,0.618,0.142,0.931,0.142
							c2.45,0,4.369-2.529,4.369-5.757c0-2.75-1.395-4.987-3.323-5.59V21.535c0-4.041-2.814-7.417-6.586-8.297
							c0.51-0.504,0.968-1.105,1.289-1.823c1.813-4.063-1.844-7.103-2.661-7.103c-0.745,0-0.484,1.353-3.214,3.165
							c-2.739,1.818-5.25,2.026-5.25,2.026S53.513,4.31,45.096,5.727c-6.04,1.017-10.564,5.583-12.645,8.088
							c-2.905,1.359-4.923,4.3-4.923,7.72v18.012c-1.928,0.604-3.323,2.84-3.323,5.59c0,3.228,1.919,5.757,4.369,5.757
							c0.313,0,0.623-0.059,0.93-0.149c1.494,6.529,5.7,12.033,11.368,15.26c-6.317,1.178-11.938,4.332-16.205,8.8
							c-0.102,0.073-0.185,0.163-0.255,0.273c-2.763,2.965-4.938,6.48-6.33,10.372l-4.997-18.101
							c-0.213-0.772-0.714-1.416-1.412-1.811c-0.696-0.395-1.506-0.496-2.278-0.282c-0.772,0.213-1.416,0.714-1.811,1.412
							c-0.396,0.697-0.496,1.506-0.282,2.278l9.024,32.691v3.709c-0.818,0.556-1.532,1.267-2.1,2.112
							c-1.17,1.741-1.592,3.833-1.188,5.89c0.733,3.74,4.025,6.341,7.701,6.341c0.499,0,1.005-0.048,1.513-0.147l3.231-0.634
							c0.231-0.045,0.446-0.123,0.66-0.2h42.225v0.001h23.646c0.214,0.077,0.428,0.155,0.658,0.2l3.231,0.634
							c0.508,0.1,1.014,0.147,1.513,0.147c3.676,0,6.968-2.601,7.702-6.341c0.708-3.614-1.203-7.138-4.403-8.624l-0.012-7.671h6.142
							c1.308,0,2.368-1.06,2.368-2.368C109.215,93.375,108.155,92.314,106.847,92.314z M75.891,48.734
							c0.067-0.483,0.118-0.971,0.155-1.462c0.007-0.09,0.015-0.181,0.021-0.271c0.032-0.504,0.054-1.011,0.054-1.523v-3.429
							c0-0.208-0.006-0.416-0.015-0.623c1.41-0.371,2.714,1.494,2.714,3.711c0,2.331-1.429,4.301-2.933,3.63
							C75.889,48.756,75.89,48.745,75.891,48.734z M26.205,45.137c0-2.036,1.085-3.756,2.369-3.756c0.114,0,0.229,0.015,0.344,0.045
							c-0.008,0.207-0.014,0.415-0.014,0.623v3.429c0,0.511,0.022,1.017,0.054,1.521c0.006,0.093,0.014,0.186,0.021,0.28
							c0.036,0.481,0.086,0.958,0.151,1.431c0.003,0.019,0.003,0.039,0.006,0.058C27.641,49.435,26.205,47.468,26.205,45.137z
							 M31.208,49.069c-0.096-0.572-0.167-1.146-0.218-1.717c-0.005-0.062-0.009-0.124-0.014-0.186
							c-0.045-0.566-0.072-1.13-0.072-1.688v-3.429c0-0.296,0.014-0.59,0.028-0.885l0.014-0.312c0.025-0.614,0.07-1.226,0.139-1.905
							c0.062-0.585,0.141-1.167,0.236-1.745l0.031-0.178c0.093-0.544,0.201-1.084,0.324-1.622l0.077-0.316
							c0.119-0.493,0.248-0.984,0.392-1.47l0.153-0.48c0.136-0.433,0.276-0.864,0.431-1.288c0.055-0.149,0.114-0.296,0.174-0.444
							l0.143-0.358c0.125-0.319,0.25-0.638,0.388-0.95c0.111-0.25,0.23-0.495,0.351-0.74l0.232-0.483
							c0.08-0.169,0.159-0.338,0.245-0.503c0.3-0.575,0.617-1.142,0.955-1.698c0.314-0.517,0.668-1.021,1.065-1.521
							c0.377-0.471,0.787-0.922,1.228-1.351c0.716-0.694,1.503-1.314,2.347-1.849c2.394,1.48,7.217,2.415,12.658,2.415
							c5.44,0,10.263-0.934,12.658-2.415c0.844,0.535,1.632,1.156,2.354,1.857c0.435,0.422,0.846,0.874,1.234,1.361
							c0.368,0.462,0.709,0.946,1.032,1.471c0.009,0.015,0.017,0.029,0.024,0.042c0.337,0.552,0.65,1.115,0.948,1.685
							c0.086,0.165,0.164,0.332,0.243,0.499l0.233,0.486c0.12,0.247,0.241,0.494,0.351,0.741c0.146,0.333,0.278,0.671,0.439,1.081
							l0.091,0.228c0.06,0.148,0.12,0.296,0.174,0.442c0.156,0.428,0.297,0.861,0.434,1.294l0.151,0.479
							c0.145,0.486,0.273,0.977,0.393,1.473l0.076,0.312c0.124,0.538,0.231,1.08,0.323,1.616l0.032,0.183
							c0.095,0.579,0.175,1.163,0.242,1.816c0.063,0.609,0.108,1.221,0.133,1.835l0.015,0.341c0.014,0.285,0.027,0.57,0.027,0.855
							v3.429c0,11.915-9.693,21.608-21.608,21.608C41.822,67.086,32.924,59.28,31.208,49.069z M71.115,68.203
							c-2.188-1.004-4.516-1.752-6.947-2.207c2.13-1.214,4.054-2.747,5.705-4.539c0.004,1.303,0.19,2.753,0.565,4.346
							C70.624,66.592,70.852,67.398,71.115,68.203z M51.997,74.222c0.159,0.096,0.337,0.144,0.516,0.144s0.357-0.048,0.516-0.144
							l8.807-5.306l-8.811,39.029l-9.769-38.988L51.997,74.222z M45.658,68.068c2.171,0.66,4.471,1.018,6.855,1.018
							c2.383,0,4.684-0.358,6.854-1.018l-6.854,4.129L45.658,68.068z M9.23,68.412c-0.071-0.257-0.038-0.527,0.094-0.759
							c0.132-0.232,0.346-0.399,0.604-0.471c0.088-0.024,0.178-0.037,0.268-0.037c0.17,0,0.339,0.044,0.492,0.131
							c0.232,0.132,0.399,0.346,0.471,0.604l9.908,35.892l-1.834,0.36c-0.045,0.009-0.088,0.023-0.133,0.033L9.23,68.412z
							 M25.099,116.943l-3.231,0.634c-1.536,0.303-3.093-0.015-4.389-0.885c-1.297-0.872-2.177-2.197-2.478-3.73
							c-0.301-1.534,0.013-3.093,0.885-4.39c0.872-1.297,2.196-2.177,3.73-2.478l3.23-0.634c0.166-0.033,0.33-0.048,0.493-0.048
							c1.198,0,2.271,0.848,2.51,2.066l1.267,6.461C27.388,115.325,26.483,116.672,25.099,116.943z M68.365,116.706H35.302v-5.856
							c0-0.552-0.448-1-1-1s-1,0.448-1,1v5.856h-4.769c0.534-0.922,0.767-2.025,0.546-3.15l-1.267-6.461
							c-0.446-2.269-2.518-3.797-4.763-3.651l-3.967-14.371c1.095-4.627,3.335-8.816,6.409-12.246
							c4.765,2.318,7.811,7.137,7.811,12.479v7.35c0,0.552,0.448,1,1,1s1-0.448,1-1v-7.35c0-5.892-3.239-11.23-8.357-13.983
							c3.087-2.97,6.849-5.24,11.032-6.558l-3.675,11.058l6.877,3.473l-2.292,5.292l12.517,21.119l0.701,2.797
							c0.112,0.445,0.512,0.757,0.97,0.757c0.004,0,0.008,0,0.012,0c0.463-0.005,0.862-0.328,0.964-0.78l0.671-2.972l7.093-13
							c0.408,0.334,0.922,0.542,1.491,0.542h5.027l0.035,21.574L68.365,116.706z M70.093,81.254h-1.235c-0.553,0-1,0.448-1,1
							s0.447,1,1,1h1.018c-0.001,0.069-0.011,0.135-0.011,0.205c0,0.284,0.029,0.562,0.048,0.842h-1.055c-0.553,0-1,0.448-1,1
							s0.447,1,1,1h1.155c-0.067,0.345-0.11,0.696-0.153,1.047h-1.001c-0.553,0-1,0.448-1,1s0.447,1,1,1h0.865v2.966h-5.619
							l2.033-3.727l-2.292-5.292l6.596-3.331C70.296,80.38,70.182,80.811,70.093,81.254z M67.053,68.777
							c1.783,0.564,3.492,1.294,5.102,2.185c0.636,1.495,1.365,2.924,2.146,4.167c-1.73,1.143-2.96,2.625-3.682,4.38L67.053,68.777z
							 M71.723,92.314v-2.332c0.51,0.835,1.121,1.613,1.808,2.332H71.723z M73.617,89.225c0.32-0.167,0.545-0.492,0.545-0.877
							c0-0.552-0.447-1-1-1h-0.522c-0.139-0.342-0.258-0.691-0.36-1.047h0.882c0.553,0,1-0.448,1-1s-0.447-1-1-1h-1.249
							c-0.023-0.279-0.049-0.558-0.049-0.842c0-0.07,0.011-0.135,0.012-0.205h1.286c0.553,0,1-0.448,1-1s-0.447-1-1-1H72.13
							c0.538-2.103,1.895-3.755,4.057-4.925c0.25-0.136,0.431-0.372,0.496-0.649c0.066-0.277,0.011-0.57-0.153-0.803
							c-1.769-2.532-3.357-6.185-4.146-9.532c-0.665-2.824-0.683-5.162-0.052-6.76c0.511-1.292,1.436-2.104,2.751-2.414
							c0.328-0.077,0.647-0.115,0.959-0.115c2.507,0,4.456,2.481,5.549,7.121c0.769,3.264,0.986,7.172,0.569,10.199
							c-0.042,0.299,0.054,0.6,0.26,0.82s0.492,0.334,0.802,0.314c1.314-0.094,2.693-0.094,4.008,0
							c0.31,0.021,0.595-0.094,0.802-0.314c0.206-0.22,0.302-0.521,0.26-0.82c-0.417-3.027-0.199-6.935,0.569-10.199
							c1.229-5.215,3.539-7.703,6.508-7.006c1.315,0.31,2.24,1.122,2.751,2.414c0.631,1.599,0.613,3.937-0.052,6.76
							c-0.788,3.346-2.377,6.999-4.146,9.532c-0.164,0.233-0.22,0.526-0.153,0.803c0.065,0.277,0.246,0.513,0.497,0.649
							c2.162,1.17,3.519,2.822,4.057,4.925h-1.331c-0.553,0-1,0.448-1,1s0.447,1,1,1h1.586c0.001,0.07,0.012,0.134,0.012,0.205
							c0,0.284-0.026,0.563-0.049,0.842h-1.549c-0.553,0-1,0.448-1,1s0.447,1,1,1h1.182c-0.102,0.356-0.222,0.705-0.36,1.047h-0.821
							c-0.553,0-1,0.448-1,1c0,0.477,0.341,0.858,0.789,0.957c-2.315,3.489-6.621,5.846-11.554,5.846
							C80.256,95.151,75.919,92.759,73.617,89.225z M103.156,112.961c-0.621,3.166-3.708,5.235-6.867,4.615l-3.231-0.634
							c-1.384-0.271-2.289-1.618-2.018-3.003l1.267-6.461c0.239-1.219,1.313-2.067,2.51-2.067c0.163,0,0.328,0.016,0.493,0.048
							l3.231,0.634C101.706,106.715,103.777,109.795,103.156,112.961z"/>
						<rect x="70.449" y="98.311" class="st4" width="28.14" height="2.121"/>
						<path class="st0" d="M80.742,83.478c0-0.676-0.548-1.224-1.224-1.224s-1.224,0.548-1.224,1.224s0.548,1.224,1.224,1.224
							S80.742,84.154,80.742,83.478z"/>
						<path class="st0" d="M91.709,82.254c-0.676,0-1.224,0.548-1.224,1.224s0.548,1.224,1.224,1.224s1.224-0.548,1.224-1.224
							S92.385,82.254,91.709,82.254z"/>
						<path class="st0" d="M90.77,87.177c-0.553,0-1,0.448-1,1c0,0.913-0.743,1.656-1.657,1.656c-0.913,0-1.656-0.743-1.656-1.656
							c0-0.027-0.013-0.049-0.015-0.075c0.736-0.206,1.248-0.597,1.248-0.83c0-0.326-0.991-0.709-2.214-0.709
							c-1.223,0-2.214,0.383-2.214,0.709c0,0.229,0.496,0.611,1.212,0.819c-0.003,0.03-0.017,0.055-0.017,0.086
							c0,0.913-0.743,1.656-1.656,1.656c-0.914,0-1.657-0.743-1.657-1.656c0-0.552-0.447-1-1-1s-1,0.448-1,1
							c0,2.016,1.641,3.656,3.657,3.656c1.049,0,1.989-0.45,2.656-1.16c0.667,0.71,1.608,1.16,2.656,1.16
							c2.017,0,3.657-1.64,3.657-3.656C91.77,87.625,91.322,87.177,90.77,87.177z"/>
						<path class="st0" d="M47.658,79.824l4.422-3.353c0.256-0.194,0.609-0.194,0.865,0l4.422,3.353
							c0.471,0.357,1.148,0.021,1.148-0.57v-6.585c0-0.591-0.677-0.927-1.148-0.57l-4.422,3.353c-0.256,0.194-0.609,0.194-0.865,0
							l-4.422-3.353c-0.471-0.357-1.148-0.021-1.148,0.57v6.585C46.51,79.845,47.187,80.181,47.658,79.824z"/>
						<path class="st0" d="M52.513,53.376c1.969,0,3.571-1.602,3.571-3.571v-1.507c0-0.552-0.448-1-1-1s-1,0.448-1,1v1.507
							c0,0.866-0.705,1.571-1.571,1.571s-1.571-0.705-1.571-1.571v-1.507c0-0.552-0.448-1-1-1s-1,0.448-1,1v1.507
							C48.942,51.774,50.544,53.376,52.513,53.376z"/>
						<path class="st0" d="M60.767,37.935l4.427,0.771c0.058,0.01,0.116,0.015,0.172,0.015c0.478,0,0.899-0.342,0.984-0.829
							c0.095-0.544-0.27-1.062-0.813-1.157l-4.428-0.771c-0.548-0.09-1.062,0.27-1.157,0.814
							C59.858,37.322,60.222,37.84,60.767,37.935z"/>
						<path class="st0" d="M45.072,36.778c-0.095-0.544-0.614-0.904-1.157-0.814l-4.427,0.771c-0.544,0.095-0.909,0.613-0.814,1.157
							c0.085,0.486,0.507,0.829,0.984,0.829c0.057,0,0.115-0.005,0.172-0.015l4.427-0.771C44.803,37.84,45.167,37.322,45.072,36.778
							z"/>
						<path class="st0" d="M58.319,56.575c0.333-0.44,0.247-1.067-0.193-1.401c-0.441-0.335-1.069-0.247-1.401,0.193
							c-0.015,0.02-1.485,1.918-4.212,1.918c-2.749,0-4.139-1.819-4.203-1.905c-0.324-0.444-0.946-0.542-1.392-0.221
							c-0.448,0.323-0.549,0.948-0.226,1.396c0.081,0.112,2.013,2.729,5.821,2.729C56.223,59.285,58.236,56.685,58.319,56.575z"/>
						<circle class="st0" cx="42.786" cy="43.386" r="2.573"/>
						<path class="st0" d="M62.09,45.959c1.421,0,2.573-1.152,2.573-2.573s-1.152-2.573-2.573-2.573
							c-1.421,0-2.573,1.152-2.573,2.573S60.669,45.959,62.09,45.959z"/>
					</g>
				</g>
			</g>
		</g>
	</g>
</g>
</svg>
