<?xml version="1.0" encoding="utf-8"?>
<!-- Generator: Adobe Illustrator 22.0.1, SVG Export Plug-In . SVG Version: 6.00 Build 0)  -->
<svg version="1.1" id="Layer_1" xmlns="http://www.w3.org/2000/svg" xmlns:xlink="http://www.w3.org/1999/xlink" x="0px" y="0px"
	 viewBox="0 0 128 128" style="enable-background:new 0 0 128 128;" xml:space="preserve">
<style type="text/css">
	.st0{fill:#3A2C60;}
	.st1{fill:#E6E7E8;}
	.st2{fill:#6DC9F7;}
	.st3{fill:#FFFFFF;}
	.st4{fill:#FA759E;}
	.st5{fill:#FFD7E5;}
	.st6{fill:#D4FBFF;}
	.st7{fill:#0089EF;}
</style>
<g>
	<g>
		<path class="st1" d="M93.34,36.608c-0.631-1.738-1.81-3.215-3.36-4.218c0.581-1.168,0.885-2.454,0.885-3.773
			c0-4.681-3.809-8.49-8.489-8.49c-1.224,0-2.402,0.255-3.487,0.747c-0.134-4.564-3.889-8.236-8.485-8.236
			c-2.104,0-4.084,0.759-5.641,2.15c-2.728-0.812-5.722-0.172-7.882,1.596c-1.562-2.312-4.196-3.747-7.031-3.747
			c-4.681,0-8.489,3.808-8.489,8.489c0,1.875,0.612,3.669,1.742,5.144c-1.026,1.281-1.586,2.853-1.595,4.517
			c-2.344,1.568-3.775,4.217-3.775,7.055c0,0.929,0.155,1.851,0.455,2.727c-4.429,0.282-7.944,3.974-7.944,8.472
			c0,4.02,2.812,7.388,6.569,8.262l10.437,55.671c0.396,2.116,2.247,3.652,4.4,3.652h19.87c0.76,1.61,2.387,2.734,4.281,2.734
			c1.444,0,2.774-0.646,3.67-1.756c0.165,0.013,0.325,0.02,0.483,0.02c3.724,0,6.753-3.029,6.753-6.753
			c0-1.524-0.513-2.927-1.368-4.058l4.016-21.419c0-0.001,0.001-0.002,0.001-0.002l0.952-5.079c0-0.001,0-0.001,0-0.002
			l4.944-26.371c0.038-0.199-0.007-0.394-0.087-0.576c3.77-0.865,6.594-4.239,6.594-8.267C101.758,40.44,97.988,36.647,93.34,36.608
			z"/>
		<path class="st1" d="M94.269,109.191c-2.616,0-4.745,2.128-4.745,4.745s2.129,4.745,4.745,4.745s4.744-2.128,4.744-4.745
			S96.885,109.191,94.269,109.191z"/>
	</g>
	<g>
		<g>
			<g>
				<path class="st7" d="M68.055,110.617c0-1.501,0.889-2.786,2.163-3.383c-0.007-0.12-0.018-0.239-0.018-0.361
					c0-3.177,2.576-5.753,5.753-5.753c1.722,0,3.264,0.761,4.318,1.96l9.997-53.323h-1.509c-0.563,3.579-3.652,6.32-7.389,6.32
					c-3.737,0-6.826-2.74-7.389-6.32h-1.496c0.012,0.167,0.034,0.331,0.034,0.5c0,4.136-3.353,7.489-7.489,7.489
					c-3.548,0-6.513-2.47-7.286-5.783c-1.159-0.48-2.162-1.248-2.94-2.207h-2.084c-1.151,2.655-3.793,4.513-6.871,4.513
					c-2.659,0-4.989-1.39-6.318-3.479c-1.3,1.086-2.972,1.742-4.799,1.742c-0.362,0-0.716-0.034-1.064-0.084l10.563,56.344
					c0.308,1.645,1.744,2.837,3.418,2.837h20.562C68.12,111.304,68.055,110.97,68.055,110.617z"/>
				<path class="st3" d="M68.055,110.617c0-1.501,0.889-2.786,2.163-3.383c-0.007-0.12-0.018-0.239-0.018-0.361
					c0-2.991,2.282-5.447,5.2-5.725l6.114-45.079c-0.048,0.001-0.095,0.007-0.144,0.007c-3.737,0-6.826-2.74-7.389-6.32h-1.496
					c0.012,0.167,0.034,0.331,0.034,0.5c0,4.136-3.353,7.489-7.489,7.489c-3.548,0-6.513-2.47-7.286-5.783
					c-1.159-0.48-2.162-1.248-2.94-2.207h-2.084c-1.151,2.655-3.793,4.513-6.871,4.513c-1.633,0-3.138-0.528-4.367-1.416
					l7.971,58.775h18.759C68.12,111.304,68.055,110.97,68.055,110.617z"/>
				<path class="st7" d="M65.03,57.746c-3.548,0-6.513-2.47-7.286-5.783c-1.159-0.48-2.162-1.248-2.94-2.207h-0.466l2.997,61.872
					h8.761l2.658-54.88C67.657,57.379,66.387,57.746,65.03,57.746z"/>
			</g>
			<g>
				<path class="st5" d="M89.268,33.608c-0.221,0-0.438,0.014-0.654,0.033c-0.555-2.154-2.04-3.929-4.006-4.875
					c0.792-1.188,1.255-2.614,1.255-4.149c0-4.136-3.353-7.489-7.489-7.489c-1.767,0-3.388,0.616-4.669,1.639
					c0.118-0.528,0.185-1.075,0.185-1.639c0-4.136-3.353-7.489-7.489-7.489c-2.115,0-4.022,0.881-5.385,2.291
					c-0.837-0.316-1.74-0.497-2.688-0.497c-2.264,0-4.291,0.994-5.685,2.562c-1.187-2.569-3.78-4.356-6.796-4.356
					c-4.136,0-7.489,3.353-7.489,7.489c0,2.004,0.792,3.82,2.074,5.164c-1.186,1.148-1.926,2.755-1.926,4.536
					c0,0.17,0.012,0.336,0.025,0.503c-2.268,1.287-3.8,3.719-3.8,6.513c0,1.385,0.383,2.677,1.038,3.79
					c-0.34-0.047-0.685-0.08-1.038-0.08c-4.136,0-7.489,3.353-7.489,7.489c0,4.136,3.353,7.489,7.489,7.489
					c1.827,0,3.499-0.656,4.799-1.742c1.329,2.089,3.659,3.479,6.318,3.479c4.123,0,7.465-3.332,7.487-7.449
					c0.569,2.334,2.225,4.24,4.407,5.144c0.773,3.313,3.738,5.783,7.286,5.783c4.136,0,7.489-3.353,7.489-7.489
					c0-0.638-0.089-1.254-0.239-1.846c0.516,0.112,1.051,0.176,1.6,0.176c0,4.136,3.353,7.489,7.489,7.489
					c4.136,0,7.489-3.353,7.489-7.489c0-0.007-0.001-0.014-0.001-0.021c0.137,0.007,0.271,0.021,0.41,0.021
					c4.136,0,7.49-3.353,7.49-7.489C96.758,36.961,93.404,33.608,89.268,33.608z"/>
				<g>
					<path class="st3" d="M45.848,12.638c2.442,0,4.224,1.146,5.589,2.956c0.321,0.425,0.703,0.783,1.219,0.797
						c0.594,0.016,1.001-0.39,1.601-0.772c1.177-0.75,2.573-1.186,4.072-1.186c0.606,0,1.195,0.074,1.759,0.21
						c0.318,0.077,0.6,0.217,0.871,0.152s0.449-0.248,0.659-0.423c1.297-1.081,2.963-1.733,4.784-1.733
						c3.612,0,6.627,2.558,7.332,5.961c0.096-0.477,0.157-0.967,0.157-1.472c0-4.136-3.353-7.489-7.489-7.489
						c-2.115,0-4.022,0.881-5.385,2.291c-0.837-0.316-1.74-0.497-2.688-0.497c-2.264,0-4.291,0.994-5.685,2.562
						c-1.187-2.569-3.78-4.356-6.796-4.356c-4.136,0-7.489,3.353-7.489,7.489c0,0.512,0.053,1.012,0.152,1.495
						C39.207,15.208,42.228,12.638,45.848,12.638z"/>
				</g>
				<path class="st4" d="M41.249,33.9c-1.5,0-2.717,1.216-2.717,2.717s1.216,2.717,2.717,2.717c1.5,0,2.717-1.216,2.717-2.717
					S42.749,33.9,41.249,33.9z"/>
				<circle class="st4" cx="47.668" cy="42.051" r="1.435"/>
			</g>
		</g>
		<g>
			<path class="st5" d="M75.953,101.119c-3.177,0-5.753,2.576-5.753,5.753c0,0.122,0.011,0.241,0.018,0.361
				c-1.275,0.597-2.163,1.883-2.163,3.383c0,2.068,1.677,3.745,3.745,3.745c1.362,0,2.543-0.735,3.198-1.822
				c0.311,0.052,0.629,0.086,0.955,0.086c3.177,0,5.753-2.576,5.753-5.753S79.131,101.119,75.953,101.119z"/>
			<path class="st4" d="M77.127,106.542c-0.828,0-1.5,0.671-1.5,1.5c0,0.828,0.671,1.5,1.5,1.5s1.5-0.671,1.5-1.5
				C78.626,107.213,77.955,106.542,77.127,106.542z"/>
			<g>
				<circle class="st5" cx="90.268" cy="109.936" r="3.745"/>
				<g>
					<path class="st0" d="M85.508,75.147c-0.548-0.103-1.065,0.257-1.167,0.799l-0.951,5.078c-0.103,0.543,0.256,1.065,0.798,1.167
						c0.063,0.012,0.125,0.017,0.186,0.017c0.472,0,0.892-0.335,0.981-0.816l0.951-5.078C86.408,75.771,86.05,75.249,85.508,75.147z
						"/>
					<path class="st0" d="M89.34,32.608c-0.631-1.738-1.81-3.215-3.36-4.218c0.581-1.168,0.885-2.454,0.885-3.773
						c0-4.681-3.809-8.49-8.49-8.49c-1.223,0-2.401,0.255-3.486,0.747c-0.134-4.564-3.89-8.236-8.486-8.236
						c-2.104,0-4.083,0.759-5.64,2.15c-2.727-0.811-5.722-0.172-7.882,1.596c-1.562-2.312-4.196-3.746-7.031-3.746
						c-4.682,0-8.49,3.808-8.49,8.489c0,1.874,0.613,3.669,1.743,5.144c-1.026,1.281-1.586,2.853-1.595,4.517
						c-2.344,1.568-3.775,4.217-3.775,7.055c0,0.929,0.155,1.851,0.455,2.727c-4.429,0.282-7.944,3.974-7.944,8.472
						c0,4.02,2.812,7.388,6.569,8.262l10.437,55.671c0.396,2.116,2.247,3.652,4.4,3.652h19.87c0.76,1.61,2.387,2.734,4.281,2.734
						c1.444,0,2.774-0.646,3.67-1.756c0.165,0.013,0.325,0.02,0.483,0.02c3.724,0,6.753-3.03,6.753-6.753
						c0-1.524-0.513-2.927-1.368-4.058l3.104-16.555c0.103-0.542-0.255-1.065-0.798-1.167c-0.546-0.103-1.065,0.256-1.167,0.799
						l-2.87,15.311c-1.054-0.682-2.307-1.082-3.653-1.082c-3.652,0-6.637,2.914-6.75,6.54c-1.323,0.869-2.148,2.359-2.148,3.958
						c0,0.004,0.001,0.007,0.001,0.011H47.648c-1.191,0-2.216-0.85-2.436-2.021L34.886,53.521c1.573-0.029,3.108-0.488,4.425-1.333
						c1.604,1.946,3.979,3.081,6.537,3.081c3.232,0,6.039-1.837,7.471-4.512h1.018c0.719,0.79,1.585,1.448,2.56,1.923
						c1.063,3.597,4.338,6.067,8.131,6.067c4.237,0,7.76-3.121,8.39-7.185c1.207,3.218,4.316,5.515,7.951,5.515
						c3.098,0,5.807-1.673,7.289-4.164l-3.512,18.733c-0.103,0.542,0.255,1.065,0.798,1.167c0.552,0.104,1.066-0.256,1.167-0.799
						l4.139-22.072c0.038-0.199-0.007-0.394-0.087-0.576c3.77-0.865,6.594-4.239,6.594-8.267
						C97.758,36.44,93.988,32.647,89.34,32.608z M70.643,108.14c0.375-0.175,0.598-0.64,0.568-1.053
						c-0.005-0.071-0.011-0.143-0.011-0.215c0-2.621,2.132-4.753,4.753-4.753s4.753,2.132,4.753,4.753
						c0,2.621-2.132,4.753-4.753,4.753c-0.242,0-0.5-0.023-0.79-0.072c-0.399-0.067-0.811,0.119-1.021,0.47
						c-0.505,0.838-1.381,1.338-2.342,1.338c-1.514,0-2.745-1.231-2.745-2.745C69.055,109.564,69.678,108.591,70.643,108.14z
						 M89.268,47.586c-0.072,0-0.145-0.005-0.216-0.01l-0.14-0.009c-0.274-0.011-0.541,0.094-0.741,0.283
						c-0.199,0.188-0.312,0.461-0.312,0.736c0,3.578-2.911,6.489-6.489,6.489c-3.273,0-5.981-2.438-6.42-5.593
						c1.043-0.206,2.151-0.659,3.324-1.382c0.47-0.29,0.616-0.905,0.327-1.375c-0.29-0.471-0.904-0.618-1.376-0.328
						c-1.224,0.753-2.316,1.15-3.268,1.203c-0.027-0.002-0.049-0.016-0.077-0.016c-0.326,0-0.657-0.035-0.988-0.087
						c-0.101-0.027-0.204-0.051-0.301-0.088c-1.673-0.646-2.29-2.678-2.306-2.732c-0.149-0.531-0.708-0.84-1.231-0.69
						c-0.532,0.149-0.843,0.701-0.693,1.232c0.032,0.115,0.773,2.677,3.028,3.838c0.078,0.405,0.13,0.807,0.13,1.197
						c0,3.578-2.911,6.489-6.489,6.489c-3.028,0-5.624-2.061-6.313-5.011c-0.073-0.314-0.293-0.573-0.591-0.696
						c-1.903-0.788-3.331-2.454-3.818-4.457c-0.11-0.452-0.516-0.763-0.971-0.763c-0.039,0-0.078,0.002-0.117,0.007
						c-0.502,0.059-0.881,0.482-0.884,0.988c-0.02,3.559-2.93,6.455-6.487,6.455c-2.209,0-4.238-1.112-5.443-2.972
						c-0.267-0.59-0.849-2.253-0.481-3.247c0.192-0.518-0.072-1.093-0.59-1.285c-0.517-0.191-1.093,0.072-1.285,0.59
						c-0.522,1.405-0.089,3.091,0.26,4.072c-1.059,0.704-2.298,1.105-3.578,1.105c-3.578,0-6.489-2.911-6.489-6.489
						s2.911-6.489,6.489-6.489c0.269,0,0.555,0.022,0.9,0.07c0.377,0.057,0.757-0.116,0.97-0.435s0.225-0.732,0.029-1.063
						c-0.588-1-0.899-2.135-0.899-3.283c0-2.328,1.263-4.49,3.294-5.644c0.055-0.031,0.101-0.074,0.148-0.115
						c0.015-0.013,0.034-0.017,0.048-0.03c0.016-0.014,1.592-1.465,4.227,0.131c0.161,0.098,0.34,0.145,0.517,0.145
						c0.338,0,0.668-0.171,0.856-0.482c0.286-0.473,0.135-1.087-0.338-1.374c-2.01-1.217-3.671-1.18-4.83-0.841
						c0.227-0.989,0.724-1.897,1.475-2.624c0.396-0.382,0.407-1.011,0.028-1.409c-1.159-1.215-1.798-2.804-1.798-4.474
						c0-3.578,2.911-6.489,6.49-6.489c2.518,0,4.828,1.481,5.887,3.775c0.142,0.306,0.428,0.521,0.762,0.57
						c0.333,0.052,0.669-0.073,0.894-0.325c1.786-2.009,4.708-2.763,7.273-1.793c0.373,0.141,0.795,0.047,1.073-0.241
						c1.235-1.28,2.893-1.985,4.664-1.985c3.579,0,6.49,2.911,6.49,6.489c0,0.085-0.011,0.174-0.015,0.261
						c-1.577-0.42-3.079-0.212-4,0.129c-0.518,0.192-0.781,0.768-0.589,1.286c0.192,0.519,0.769,0.781,1.286,0.589
						c0.102-0.039,1.806-0.645,3.587,0.209c0.006,0.004,0.01,0.01,0.016,0.014c0.016,0.01,0.034,0.013,0.051,0.021
						c0.795,0.398,1.601,1.088,2.283,2.258c0.187,0.318,0.521,0.496,0.865,0.496c0.171,0,0.345-0.044,0.503-0.136
						c0.477-0.278,0.638-0.891,0.36-1.368c-0.51-0.874-1.093-1.551-1.708-2.082c0.88-0.434,1.838-0.677,2.843-0.677
						c3.579,0,6.49,2.911,6.49,6.49c0,1.284-0.376,2.526-1.088,3.594c-0.16,0.241-0.209,0.54-0.133,0.819
						c0.077,0.279,0.271,0.511,0.531,0.637c1.729,0.832,2.994,2.371,3.471,4.223c0.123,0.474,0.572,0.797,1.055,0.747
						c0.188-0.016,0.376-0.029,0.567-0.029c3.579,0,6.49,2.911,6.49,6.489S92.847,47.586,89.268,47.586z"/>
					<path class="st0" d="M90.269,105.191c-2.616,0-4.745,2.128-4.745,4.745s2.129,4.745,4.745,4.745s4.744-2.128,4.744-4.745
						S92.885,105.191,90.269,105.191z M90.269,112.681c-1.514,0-2.745-1.231-2.745-2.745s1.231-2.745,2.745-2.745
						c1.513,0,2.744,1.231,2.744,2.745S91.781,112.681,90.269,112.681z"/>
				</g>
			</g>
		</g>
	</g>
</g>
</svg>
