<?xml version="1.0" encoding="utf-8"?>
<!-- Generator: Adobe Illustrator 22.0.1, SVG Export Plug-In . SVG Version: 6.00 Build 0)  -->
<svg version="1.1" id="Layer_1" xmlns="http://www.w3.org/2000/svg" xmlns:xlink="http://www.w3.org/1999/xlink" x="0px" y="0px"
	 viewBox="0 0 128 128" style="enable-background:new 0 0 128 128;" xml:space="preserve">
<style type="text/css">
	.st0{fill:#3A2C60;}
	.st1{fill:#E6E7E8;}
	.st2{fill:#6DC9F7;}
	.st3{fill:#FFFFFF;}
	.st4{fill:#FA759E;}
	.st5{fill:#FFD7E5;}
	.st6{fill:#D4FBFF;}
	.st7{fill:#0089EF;}
</style>
<g>
	<path class="st1" d="M71.623,6.384c-19.448,0-35.271,15.822-35.271,35.27v26.863h-3.159c-2.68,0-4.859,2.18-4.859,4.859
		s2.18,4.859,4.859,4.859h0.257v37.663h-0.257c-2.68,0-4.859,2.18-4.859,4.858c0,2.68,2.18,4.859,4.859,4.859h12.318
		c2.679,0,4.858-2.18,4.858-4.859c0-2.679-2.18-4.858-4.858-4.858H45.26V78.235h0.252c2.679,0,4.858-2.18,4.858-4.859
		s-2.18-4.859-4.858-4.859h-3.159V41.653c0-16.14,13.131-29.27,29.271-29.27c14.36,0,26.043,11.683,26.043,26.043
		c0,12.759-10.38,23.139-23.139,23.139c-11.317,0-20.525-9.208-20.525-20.525c0-10.02,8.152-18.172,18.173-18.172
		c8.853,0,16.055,7.202,16.055,16.055c0,7.802-6.348,14.149-14.149,14.149c-6.856,0-12.435-5.578-12.435-12.435c0-1.654-1.346-3-3-3
		s-3,1.346-3,3c0,10.165,8.27,18.435,18.435,18.435c11.11,0,20.149-9.039,20.149-20.149c0-12.161-9.894-22.055-22.055-22.055
		c-13.329,0-24.173,10.844-24.173,24.172c0,14.626,11.899,26.525,26.525,26.525c16.067,0,29.139-13.071,29.139-29.139
		C103.666,20.758,89.292,6.384,71.623,6.384z"/>
	<g>
		<g>
			<path class="st4" d="M67.623,3.384c-18.896,0-34.271,15.373-34.271,34.27v27.864h4V37.653c0-16.69,13.579-30.27,30.271-30.27
				c14.911,0,27.043,12.132,27.043,27.043c0,13.311-10.828,24.139-24.139,24.139c-11.869,0-21.525-9.656-21.525-21.525
				c0-10.571,8.601-19.172,19.173-19.172c9.404,0,17.055,7.65,17.055,17.055c0,8.354-6.796,15.149-15.149,15.149
				c-7.408,0-13.435-6.026-13.435-13.435c0-1.104-0.896-2-2-2s-2,0.896-2,2c0,9.613,7.821,17.435,17.435,17.435
				c10.559,0,19.149-8.591,19.149-19.149c0-11.609-9.445-21.055-21.055-21.055c-12.777,0-23.173,10.395-23.173,23.172
				c0,14.075,11.45,25.525,25.525,25.525c15.516,0,28.139-12.623,28.139-28.139C98.666,17.31,84.74,3.384,67.623,3.384z"/>
		</g>
		<g>
			<g>
				<g>
					<g>
						<rect x="30.445" y="73.235" class="st3" width="9.814" height="39.663"/>
						<rect x="33.45" y="73.235" class="st7" width="6.81" height="39.663"/>
					</g>
					<path class="st5" d="M41.511,112.898H29.193c-2.122,0-3.859,1.737-3.859,3.859c0,2.122,1.737,3.859,3.859,3.859h12.318
						c2.123,0,3.859-1.737,3.859-3.859C45.37,114.635,43.634,112.898,41.511,112.898z"/>
					<path class="st5" d="M41.511,65.517H29.193c-2.122,0-3.859,1.737-3.859,3.859c0,2.122,1.737,3.859,3.859,3.859h12.318
						c2.123,0,3.859-1.737,3.859-3.859C45.37,67.253,43.634,65.517,41.511,65.517z"/>
				</g>
				<g>
					<path class="st0" d="M67.622,2.384c-7.035,0-13.833,2.074-19.658,5.999c-0.458,0.309-0.579,0.93-0.271,1.388
						c0.308,0.459,0.932,0.578,1.388,0.271c5.494-3.701,11.905-5.657,18.541-5.657c16.565,0,30.043,13.478,30.043,30.043
						c0,14.964-12.175,27.139-27.139,27.139c-13.523,0-24.525-11.002-24.525-24.525c0-12.226,9.946-22.172,22.173-22.172
						c11.059,0,20.055,8.996,20.055,20.055c0,10.008-8.142,18.149-18.149,18.149c-9.062,0-16.435-7.372-16.435-16.435
						c0-0.552,0.448-1,1-1s1,0.448,1,1c0,7.959,6.476,14.435,14.435,14.435c8.905,0,16.149-7.244,16.149-16.149
						c0-9.955-8.1-18.055-18.055-18.055c-11.123,0-20.173,9.049-20.173,20.172c0,12.421,10.104,22.525,22.525,22.525
						c13.861,0,25.139-11.277,25.139-25.139c0-15.463-12.58-28.043-28.043-28.043c-17.242,0-31.271,14.027-31.271,31.27v26.863h-2
						V37.653c0-7.656,2.677-15.137,7.536-21.063c0.35-0.427,0.288-1.057-0.14-1.407c-0.427-0.351-1.057-0.286-1.407,0.14
						c-5.152,6.283-7.989,14.214-7.989,22.331v26.863h-3.158c-2.68,0-4.859,2.18-4.859,4.859c0,2.679,2.18,4.858,4.859,4.858h0.257
						v37.664h-0.257c-2.68,0-4.859,2.18-4.859,4.858c0,2.68,2.18,4.859,4.859,4.859h12.317c2.68,0,4.859-2.18,4.859-4.859
						c0-2.679-2.18-4.858-4.859-4.858H41.26V74.234h0.251c2.68,0,4.859-2.18,4.859-4.858c0-2.68-2.18-4.859-4.859-4.859h-3.159
						V37.653c0-16.14,13.131-29.27,29.271-29.27c14.36,0,26.043,11.683,26.043,26.043c0,12.759-10.38,23.139-23.139,23.139
						c-11.317,0-20.525-9.208-20.525-20.525c0-10.02,8.152-18.172,18.173-18.172c8.853,0,16.055,7.202,16.055,16.055
						c0,7.802-6.348,14.149-14.149,14.149c-6.856,0-12.435-5.578-12.435-12.435c0-1.654-1.346-3-3-3s-3,1.346-3,3
						c0,10.165,8.27,18.435,18.435,18.435c11.11,0,20.149-9.039,20.149-20.149c0-12.161-9.894-22.055-22.055-22.055
						c-13.329,0-24.173,10.844-24.173,24.172c0,14.626,11.899,26.525,26.525,26.525c16.067,0,29.139-13.071,29.139-29.139
						C99.665,16.758,85.291,2.384,67.622,2.384z M31.45,91.983l7.81,4.475v5.24l-7.81-4.475V91.983z M39.26,94.154l-7.81-4.475
						v-5.24l7.81,4.475V94.154z M31.45,99.527l7.81,4.475v5.238l-7.81-4.474V99.527z M39.26,86.61l-7.81-4.475v-5.238l7.81,4.474
						V86.61z M31.45,107.071l7.81,4.474v0.353h-7.81V107.071z M44.37,116.757c0,1.577-1.282,2.859-2.859,2.859H29.193
						c-1.577,0-2.859-1.282-2.859-2.859c0-1.576,1.282-2.858,2.859-2.858h12.317C43.088,113.898,44.37,115.181,44.37,116.757z
						 M39.26,79.065l-7.81-4.474v-0.356h7.81V79.065z M44.37,69.376c0,1.576-1.282,2.858-2.859,2.858H29.193
						c-1.577,0-2.859-1.282-2.859-2.858c0-1.577,1.282-2.859,2.859-2.859h12.317C43.088,66.517,44.37,67.799,44.37,69.376z"/>
					<path class="st0" d="M43.48,14.355c0.255,0,0.51-0.097,0.705-0.291c0.744-0.739,1.529-1.449,2.334-2.111
						c0.427-0.351,0.488-0.981,0.138-1.407c-0.351-0.427-0.98-0.49-1.407-0.138c-0.854,0.701-1.686,1.454-2.475,2.238
						c-0.392,0.389-0.394,1.022-0.004,1.414C42.966,14.256,43.223,14.355,43.48,14.355z"/>
				</g>
			</g>
		</g>
	</g>
</g>
</svg>
