<svg id="Layer_2" data-name="Layer 2" xmlns="http://www.w3.org/2000/svg" viewBox="0 0 128 128"><title>BLACKSMITH</title><rect x="43.826" y="42.796" width="9.998" height="6.051" style="fill:#5d4037"/><path d="M48.825,99.615h0a7.51,7.51,0,0,1,7.51,7.51v13.3a0,0,0,0,1,0,0H41.315a0,0,0,0,1,0,0v-13.3a7.51,7.51,0,0,1,7.51-7.51Z" style="fill:#ffca90"/><path d="M48.825,99.615a7.537,7.537,0,0,0-1,.074,7.506,7.506,0,0,1,6.509,7.436v13.3h2v-13.3A7.51,7.51,0,0,0,48.825,99.615Z" style="fill:#dda976"/><rect x="23.102" y="110.364" width="18.213" height="10.063" style="fill:#00acc1"/><rect x="56.335" y="110.364" width="18.213" height="10.063" style="fill:#00acc1"/><path d="M56.335,110.364v2H66.547a6,6,0,0,1,6,6v2.062h2V110.364Z" style="fill:#0097a7"/><path d="M23.1,110.364v2H33.313a6,6,0,0,1,6,6v2.062h2V110.364Z" style="fill:#0097a7"/><path d="M1.75,66.819C6.444,77.325,18.2,84.09,29.709,84.09h.83a18.771,18.771,0,0,1-3.917,23.137l-3.52,3.137H41.315v-3.238a7.51,7.51,0,1,1,15.02,0v3.238H74.548l-5.323-9.727A15.155,15.155,0,0,1,79.51,78.508l15.066-3.054V66.819Z" style="fill:#5d4037"/><path d="M67.365,93.34a15.142,15.142,0,0,1,5.319-11.5,15.153,15.153,0,0,0-6.461,20.8l4.228,7.726h4.1l-5.323-9.727A15.154,15.154,0,0,1,67.365,93.34Z" style="fill:#4c352e"/><path d="M38.313,109.127v1.237h3v-3.238a7.474,7.474,0,0,1,1.972-5.06A7.506,7.506,0,0,0,38.313,109.127Z" style="fill:#4c352e"/><path d="M30.539,66.819H1.75c.306.684.644,1.35,1.007,2h0C7.977,78.175,18.951,84.09,29.709,84.09h.83V68.82H84.33a7.242,7.242,0,0,1,7.242,7.242l3-.609V66.819Z" style="fill:#4c352e"/><rect x="59.373" y="26.708" width="66.877" height="10.348" style="fill:#fb8c00"/><path d="M59.373,26.708v2H115.9a8.346,8.346,0,0,1,8.346,8.346h2V26.708Z" style="fill:#ef6c00"/><polygon points="38.277 37.056 43.826 42.796 53.825 42.796 59.373 37.056 59.373 26.708 53.825 20.967 43.826 20.967 38.277 26.708 38.277 37.056" style="fill:#00acc1"/><polygon points="53.825 20.967 43.826 20.967 41.891 22.969 50.823 22.969 56.371 28.709 56.371 39.057 52.757 42.796 53.825 42.796 59.373 37.056 59.373 26.708 53.825 20.967" style="fill:#0097a7"/><rect x="43.826" y="14.916" width="9.998" height="6.051" style="fill:#5d4037"/><path d="M43.826,14.916v2h4a4,4,0,0,1,4,4v.05h2V14.916Z" style="fill:#4c352e"/><path d="M43.826,42.8v2h4a4,4,0,0,1,4,4v.05h2V42.8Z" style="fill:#4c352e"/><rect x="38.277" y="7.573" width="21.096" height="7.343" rx="2.296" ry="2.296" style="fill:#00acc1"/><path d="M57.077,7.573h-16.5A2.288,2.288,0,0,0,38.3,9.6a2.262,2.262,0,0,1,.268-.027h16.5a2.3,2.3,0,0,1,2.3,2.3v2.751a2.262,2.262,0,0,1-.027.268,2.288,2.288,0,0,0,2.029-2.269V9.869A2.3,2.3,0,0,0,57.077,7.573Z" style="fill:#0097a7"/><rect x="38.277" y="48.847" width="21.096" height="7.343" rx="2.296" ry="2.296" style="fill:#00acc1"/><path d="M30.216,48.959a1.743,1.743,0,0,1-1.237-.513l-4.36-4.36a1.75,1.75,0,0,1,2.475-2.475l4.36,4.36a1.75,1.75,0,0,1-1.237,2.987Z" style="fill:#ffca90"/><path d="M25.133,55.582a1.74,1.74,0,0,1-.873-.235l-5.341-3.083a1.75,1.75,0,1,1,1.75-3.031l5.341,3.083a1.75,1.75,0,0,1-.877,3.266Z" style="fill:#ffca90"/><path d="M67.435,48.959A1.75,1.75,0,0,1,66.2,45.972l4.36-4.36a1.75,1.75,0,0,1,2.475,2.475l-4.36,4.36A1.743,1.743,0,0,1,67.435,48.959Z" style="fill:#ffca90"/><path d="M72.519,55.582a1.75,1.75,0,0,1-.877-3.266l5.34-3.083a1.75,1.75,0,0,1,1.75,3.031l-5.34,3.083A1.74,1.74,0,0,1,72.519,55.582Z" style="fill:#ffca90"/><path d="M57.077,48.847h-16.5A2.288,2.288,0,0,0,38.3,50.876a2.262,2.262,0,0,1,.268-.027h16.5a2.3,2.3,0,0,1,2.3,2.3V55.9a2.262,2.262,0,0,1-.027.268,2.288,2.288,0,0,0,2.029-2.269V51.144A2.3,2.3,0,0,0,57.077,48.847Z" style="fill:#0097a7"/><path d="M94.575,65.069H1.75a1.749,1.749,0,0,0-1.6,2.464C5.134,78.682,17.46,85.75,29.476,85.839a16.916,16.916,0,0,1-4.018,20.082l-3.52,3.136a1.811,1.811,0,0,0-.586,1.307v10.063a1.75,1.75,0,0,0,1.75,1.75H61.875a1.75,1.75,0,0,0,0-3.5h-3.79v-6.563H72.8v6.563H69.517a1.75,1.75,0,0,0,0,3.5h5.031a1.75,1.75,0,0,0,1.75-1.75V110.364a1.833,1.833,0,0,0-.215-.84L70.761,99.8a13.4,13.4,0,0,1,9.1-19.573l15.065-3.054a1.75,1.75,0,0,0,1.4-1.715V66.819A1.75,1.75,0,0,0,94.575,65.069Zm-65.786,3.5v13.74C19.221,82,9.589,76.877,4.63,68.569Zm-3.937,43.545H39.565v6.563H24.853Zm18.213-1.75v-3.238a5.76,5.76,0,0,1,11.52,0v11.552H43.065Zm49.76-36.34-13.663,2.77A16.905,16.905,0,0,0,67.69,101.477l3.905,7.137H58.085v-1.488a9.26,9.26,0,1,0-18.52,0v1.488H27.7l.089-.08a20.392,20.392,0,0,0,4.5-24.855V68.569H92.825Z" style="fill:#28201e"/><path d="M126.25,24.958H96.875a1.75,1.75,0,0,0,0,3.5H124.5v6.848H61.123V28.458H77.856a1.75,1.75,0,0,0,0-3.5H60.116l-4.542-4.7V16.666h1.5a4.051,4.051,0,0,0,4.046-4.046V9.869a4.051,4.051,0,0,0-4.046-4.046h-16.5a4.051,4.051,0,0,0-4.046,4.046V12.62a4.051,4.051,0,0,0,4.046,4.046h1.5V20.26L37.02,25.491a1.751,1.751,0,0,0-.492,1.216V37.056a1.751,1.751,0,0,0,.492,1.216L42.076,43.5V47.1h-1.5a4.051,4.051,0,0,0-4.046,4.046v2.751a4.051,4.051,0,0,0,4.046,4.046h16.5a4.051,4.051,0,0,0,4.046-4.046V51.144A4.051,4.051,0,0,0,57.077,47.1h-1.5V43.5l4.542-4.7H126.25a1.75,1.75,0,0,0,1.75-1.75V26.708A1.75,1.75,0,0,0,126.25,24.958ZM40.027,12.62V9.869a.547.547,0,0,1,.546-.546h16.5a.547.547,0,0,1,.546.546V12.62a.547.547,0,0,1-.546.546h-16.5A.547.547,0,0,1,40.027,12.62Zm12.047,4.046v2.552h-6.5V16.666ZM40.027,27.415l4.541-4.7h8.515l4.54,4.7v8.933l-4.54,4.7H44.568l-4.541-4.7Zm17.6,23.729v2.751a.547.547,0,0,1-.546.546h-16.5a.547.547,0,0,1-.546-.546V51.144a.547.547,0,0,1,.546-.546h16.5A.547.547,0,0,1,57.623,51.144ZM45.576,47.1V44.546h6.5V47.1Z" style="fill:#28201e"/><path d="M86.231,28.458H88.5a1.75,1.75,0,0,0,0-3.5H86.231a1.75,1.75,0,0,0,0,3.5Z" style="fill:#28201e"/><path d="M28.979,48.446a1.75,1.75,0,1,0,2.475-2.475l-4.36-4.36a1.75,1.75,0,0,0-2.475,2.475Z" style="fill:#28201e"/><path d="M18.919,52.264l5.341,3.083a1.75,1.75,0,0,0,1.75-3.031l-5.341-3.083a1.75,1.75,0,1,0-1.75,3.031Z" style="fill:#28201e"/><path d="M70.558,41.611l-4.36,4.36a1.75,1.75,0,1,0,2.475,2.475l4.36-4.36a1.75,1.75,0,0,0-2.475-2.475Z" style="fill:#28201e"/><path d="M71,54.707a1.749,1.749,0,0,0,2.391.641l5.34-3.083a1.75,1.75,0,0,0-1.75-3.031l-5.34,3.083A1.75,1.75,0,0,0,71,54.707Z" style="fill:#28201e"/></svg>