<svg id="Layer_2" data-name="Layer 2" xmlns="http://www.w3.org/2000/svg" viewBox="0 0 128 128"><title>BUYER</title><path d="M119.77,110.83v15.42H7.86V110.83A22.53,22.53,0,0,1,28.33,88.51l10.66-1.03,8.57,17.02L63.81,91.17,80.07,104.5l8.57-17.02L99.3,88.51A22.53,22.53,0,0,1,119.77,110.83Z" style="fill:#5d4037"/><path d="M99.3,88.51,88.64,87.48l-1.192,2.368,6.852.662a22.53,22.53,0,0,1,20.47,22.32v13.42h5V110.83A22.53,22.53,0,0,0,99.3,88.51Z" style="fill:#4c352e"/><path d="M77.888,80.967l-1.109-8.576a21.78,21.78,0,0,1-25.928,0l-1.109,8.576a6.9,6.9,0,0,1-.6,2.026l14.677,8.174,14.677-8.174A6.9,6.9,0,0,1,77.888,80.967Z" style="fill:#ffca90"/><path d="M81.079,34.167H46.55A38.738,38.738,0,0,1,41.2,54.286l1.134,5.142c.141.626.305,1.237.491,1.84s.4,1.185.64,1.767a22.009,22.009,0,0,0,40.707,0c.238-.582.454-1.171.64-1.767s.35-1.215.491-1.84l1.134-5.142A38.738,38.738,0,0,1,81.079,34.167Z" style="fill:#ffca90"/><path d="M63.814,76.669A22.294,22.294,0,0,1,50.85,72.391l-.574,4.435a26.348,26.348,0,0,0,13.5,3.844h.066a26.344,26.344,0,0,0,13.5-3.844l-.574-4.435A22.294,22.294,0,0,1,63.814,76.669Z" style="fill:#dda976"/><path d="M81.079,34.167H46.55A38.738,38.738,0,0,1,41.2,54.286l1.134,5.142c.141.626.305,1.237.491,1.84s.4,1.185.64,1.767a22.009,22.009,0,0,0,40.707,0c.238-.582.454-1.171.64-1.767s.35-1.215.491-1.84l1.134-5.142A38.738,38.738,0,0,1,81.079,34.167Z" style="fill:#ffca90"/><path d="M37.361,34.167V59.75l.968-1.241A38.794,38.794,0,0,0,46.55,34.167H37.361Z" style="fill:#5d4037"/><path d="M37.361,39.208a6.8,6.8,0,0,0,0,13.58Z" style="fill:#ffca90"/><path d="M66.232,53.4H64.253a3.459,3.459,0,0,1-2.626-1.2,3.416,3.416,0,0,1-.785-2.744l.719-4.687a1.75,1.75,0,1,1,3.459.531L64.3,49.984l1.932-.083a1.75,1.75,0,0,1,0,3.5Z" style="fill:#5d4037"/><path d="M64.525,65.75H63.475a9.639,9.639,0,0,1-8.929-5.907,1.75,1.75,0,1,1,3.229-1.352,6.148,6.148,0,0,0,5.7,3.759h1.051a6.148,6.148,0,0,0,5.7-3.759,1.75,1.75,0,1,1,3.229,1.352A9.639,9.639,0,0,1,64.525,65.75Z" style="fill:#5d4037"/><polygon points="45.259 80.833 63.814 91.167 47.561 104.5 37.361 84.25 45.259 80.833" style="fill:#fb8c00"/><path d="M25.12,116.17v10.08h-3.5V116.17a1.75,1.75,0,0,1,3.5,0Z" style="fill:#4c352e"/><path d="M90.268,34.167V59.75L89.3,58.509a38.794,38.794,0,0,1-8.221-24.342h9.189Z" style="fill:#5d4037"/><path d="M90.268,39.208a6.8,6.8,0,0,1,0,13.58Z" style="fill:#ffca90"/><polygon points="82.369 80.833 63.814 91.167 80.067 104.5 90.268 84.25 82.369 80.833" style="fill:#fb8c00"/><path d="M106.01,116.17v10.08h-3.5V116.17a1.75,1.75,0,1,1,3.5,0Z" style="fill:#4c352e"/><polygon points="67.506 106.083 63.814 106.083 60.122 106.083 55.111 126.25 63.814 126.25 72.517 126.25 67.506 106.083" style="fill:#ffca90"/><polygon points="63.814 91.167 55.111 98.306 60.122 106.083 63.814 106.083 67.506 106.083 72.517 98.306 63.814 91.167" style="fill:#00acc1"/><polygon points="63.814 26.5 15.317 26.5 25.433 34.167 63.814 34.167 102.196 34.167 112.312 26.5 63.814 26.5" style="fill:#fb8c00"/><path d="M63.814,26.5h-48.5l2.639,2H96.387A3,3,0,0,1,98.2,33.891l-.364.276H102.2L112.312,26.5Z" style="fill:#ef6c00"/><polygon points="81.861 1.75 76.779 1.75 63.814 11.609 50.849 1.75 45.767 1.75 38.686 26.5 63.814 26.5 88.943 26.5 81.861 1.75" style="fill:#5d4037"/><polygon points="63.814 11.609 50.849 1.75 46.849 1.75 61.814 13.129 63.814 11.609" style="fill:#4c352e"/><polygon points="81.861 1.75 77.861 1.75 84.943 26.5 88.943 26.5 81.861 1.75" style="fill:#4c352e"/><path d="M81.457,40H69.193v2.729H58.436V40H46.172a38.682,38.682,0,0,1-.912,4.53,5.02,5.02,0,0,0,5,4.428h3.119a5.045,5.045,0,0,0,4.482-2.729H69.768a5.045,5.045,0,0,0,4.482,2.729H77.37a5.02,5.02,0,0,0,5-4.428A38.682,38.682,0,0,1,81.457,40Z" style="fill:#00acc1"/><path d="M92.625,39.766a6.923,6.923,0,0,0-2.357-.558v13.58a6.923,6.923,0,0,0,2.357-.558Z" style="fill:#dda976"/><path d="M35,39.766a6.923,6.923,0,0,1,2.357-.558v13.58A6.923,6.923,0,0,1,35,52.23Z" style="fill:#dda976"/><path d="M46.4,37.875H81.233c-.1-1.23-.17-2.465-.154-3.708H46.55C46.565,35.41,46.5,36.645,46.4,37.875Z" style="fill:#dda976"/><path d="M46.55,34.167H37.361v3.708h9.05C46.514,36.646,46.565,35.409,46.55,34.167Z" style="fill:#4c352e"/><path d="M81.079,34.167h0c-.015,1.242.036,2.479.139,3.708h9.05V34.167Z" style="fill:#4c352e"/><path d="M63.475,65.75h1.051a9.639,9.639,0,0,0,8.929-5.907,1.75,1.75,0,1,0-3.229-1.352,6.148,6.148,0,0,1-5.7,3.759H63.475a6.148,6.148,0,0,1-5.7-3.759,1.75,1.75,0,1,0-3.229,1.352A9.639,9.639,0,0,0,63.475,65.75Z" style="fill:#28201e"/><path d="M99.472,86.77l-8.117-.789.475-.943a1.749,1.749,0,0,0-.867-2.394l-7.9-3.417a1.762,1.762,0,0,0-1.547.077l-1.941,1.081-.93-7.192a24.774,24.774,0,0,0,8.608-14.5c.806,1.094,1.925,3.274,3.583,2.713a1.751,1.751,0,0,0,1.181-1.655V54.284a8.531,8.531,0,0,0,0-16.572V35.917H102.2a1.748,1.748,0,0,0,1.057-.355l10.116-7.667a1.75,1.75,0,0,0-1.057-3.145h-6.687a1.75,1.75,0,0,0,0,3.5h1.481l-5.5,4.167H26.021l-5.5-4.167h75.1a1.75,1.75,0,0,0,0-3.5H90.262L83.544,1.269A1.75,1.75,0,0,0,81.861,0H76.779a1.746,1.746,0,0,0-1.06.357L63.814,9.41,51.909.357A1.746,1.746,0,0,0,50.85,0H45.768a1.75,1.75,0,0,0-1.683,1.269L37.366,24.75H15.316a1.75,1.75,0,0,0-1.057,3.145l10.116,7.667a1.748,1.748,0,0,0,1.057.355H35.611v1.8a8.531,8.531,0,0,0,0,16.572V59.75a1.751,1.751,0,0,0,1.181,1.655c1.656.561,2.778-1.619,3.583-2.713a24.761,24.761,0,0,0,8.608,14.5l-.93,7.193L46.111,79.3a1.762,1.762,0,0,0-1.547-.077l-7.9,3.417a1.749,1.749,0,0,0-.867,2.394l.475.943-8.117.789A24.193,24.193,0,0,0,6.106,110.832V126.25A1.75,1.75,0,0,0,7.856,128H119.772a1.75,1.75,0,0,0,1.75-1.75V110.832A24.193,24.193,0,0,0,99.472,86.77ZM47.087,3.5H50.26l12.5,9.5a1.749,1.749,0,0,0,2.119,0l12.5-9.5h3.173l6.079,21.25H41.007Zm35.38,79.282,5.4,2.337-8.383,16.642L66.913,91.445l12.43-6.922,0,0ZM70.2,98.67l-3.648,5.663H61.076L57.428,98.67l6.387-5.239ZM95.018,46a5.05,5.05,0,0,1-3,4.594V41.4A5.051,5.051,0,0,1,95.018,46Zm-6.5-6.79V54.347a37.32,37.32,0,0,1-5.651-18.43h5.651Zm-7.934,5.408a3.276,3.276,0,0,1-3.215,2.592H74.251a3.284,3.284,0,0,1-3.309-3.25V41.75h9.021C80.135,42.711,80.344,43.67,80.584,44.616ZM69.192,38.25A1.75,1.75,0,0,0,67.442,40v2.729H60.187V40a1.75,1.75,0,0,0-1.75-1.75h-10.3c.069-.775.119-1.555.145-2.333H79.347c.025.778.075,1.558.145,2.333ZM47.071,44.5c.229-.907.43-1.825.594-2.747h9.021v2.208a3.284,3.284,0,0,1-3.309,3.25H50.259a3.275,3.275,0,0,1-3.214-2.592C47.055,44.577,47.061,44.536,47.071,44.5ZM32.61,46a5.052,5.052,0,0,1,3-4.595v9.189A5.052,5.052,0,0,1,32.61,46Zm6.5,6.79V35.917h5.651a37.321,37.321,0,0,1-5.651,18.43Zm5.969,9.583a47.211,47.211,0,0,1-2.029-7.8,40.649,40.649,0,0,0,2.628-5.641,6.778,6.778,0,0,0,4.58,1.777h3.119a6.811,6.811,0,0,0,6.4-4.479h1.555l-.494,3.224a3.416,3.416,0,0,0,.785,2.744,3.459,3.459,0,0,0,2.626,1.2h1.979a1.75,1.75,0,0,0,0-3.5l-1.932.083.576-3.755h2.971a6.811,6.811,0,0,0,6.4,4.479h3.118a6.78,6.78,0,0,0,4.581-1.777,40.606,40.606,0,0,0,2.628,5.642c-.932,4.228-1.737,8.357-4.351,11.95A20.251,20.251,0,0,1,45.08,62.371Zm6.4,18.82.753-5.824a23.517,23.517,0,0,0,23.17,0l.753,5.822a8.164,8.164,0,0,0,.193.993L63.814,89.163,51.283,82.184A7.981,7.981,0,0,0,51.477,81.191Zm-6.314,1.591,3.12,1.738,0,0,12.43,6.922L48.142,101.761,39.759,85.119ZM57.35,124.5l.713-2.87a1.75,1.75,0,1,0-3.4-.844l-.923,3.714H25.117v-8.333a1.75,1.75,0,1,0-3.5,0V124.5H9.606V110.832A20.705,20.705,0,0,1,28.5,90.254l9.468-.921L46,105.287a1.772,1.772,0,0,0,2.673.565L54.7,100.9l3.538,5.491-.95,3.826a1.75,1.75,0,1,0,3.4.844l.8-3.231h4.648L70.279,124.5Zm60.673,0H106.012v-8.333a1.75,1.75,0,0,0-3.5,0V124.5H73.886l-4.5-18.1,3.538-5.49,6.032,4.948a1.772,1.772,0,0,0,2.673-.565l8.036-15.954,9.468.921a20.705,20.705,0,0,1,18.889,20.578Z" style="fill:#28201e"/><path d="M58.172,113.941a1.752,1.752,0,0,0-2.122,1.274l-.143.571a1.752,1.752,0,0,0,1.274,2.122,1.773,1.773,0,0,0,.425.052,1.752,1.752,0,0,0,1.7-1.326l.143-.571A1.752,1.752,0,0,0,58.172,113.941Z" style="fill:#28201e"/></svg>