<svg id="Layer_2" data-name="Layer 2" xmlns="http://www.w3.org/2000/svg" viewBox="0 0 128 128"><title>CARGO TRUCK</title><path d="M116.25,36.063H85V88.688h.365a11.86,11.86,0,0,1,23.02,0H126.25V57.875Z" style="fill:#5d4037"/><polygon points="116.25 36.063 85 36.063 85 39.063 113.25 39.063 123.25 60.875 123.25 88.688 126.25 88.688 126.25 57.875 116.25 36.063" style="fill:#4c352e"/><rect x="1.75" y="24.563" width="83.25" height="55.125" style="fill:#00acc1"/><path d="M1.75,24.563v4H75a6,6,0,0,1,6,6V79.688h4V24.563Z" style="fill:#0097a7"/><polygon points="118.549 57.875 111.759 43.063 92 43.063 92 57.875 118.549 57.875" style="fill:#ffca90"/><path d="M110.363,49.562l3.811,8.313h4.375l-6.791-14.812H92v3h12.909A6,6,0,0,1,110.363,49.562Z" style="fill:#dda976"/><rect x="119.417" y="66.729" width="6.833" height="6.833" style="fill:#fb8c00"/><rect x="123.25" y="66.729" width="3" height="6.833" style="fill:#ef6c00"/><circle cx="96.875" cy="91.563" r="11.875" style="fill:#fb8c00"/><circle cx="22.743" cy="91.563" r="11.875" style="fill:#fb8c00"/><circle cx="96.875" cy="91.563" r="5.25" style="fill:#5d4037"/><path d="M96.875,86.313a5.262,5.262,0,0,0-1,.1,5.244,5.244,0,0,1,0,10.3,5.248,5.248,0,1,0,1-10.4Z" style="fill:#4c352e"/><circle cx="22.743" cy="91.563" r="5.25" style="fill:#5d4037"/><path d="M1.75,88.688h9.483a11.869,11.869,0,0,1,11.51-9H1.75Z" style="fill:#ffca90"/><path d="M22.743,79.688a11.869,11.869,0,0,1,11.51,9H85v-9Z" style="fill:#ffca90"/><path d="M22.743,86.313a5.262,5.262,0,0,0-1,.1,5.244,5.244,0,0,1,0,10.3,5.248,5.248,0,1,0,1-10.4Z" style="fill:#4c352e"/><rect x="81" y="79.688" width="4" height="9" style="fill:#dda976"/><path d="M22.619,26.313H27a1.75,1.75,0,0,0,0-3.5H22.619a1.75,1.75,0,1,0,0,3.5Z" style="fill:#28201e"/><path d="M120.022,58.82a1.748,1.748,0,0,0,.118-1.674L113.35,42.333a1.751,1.751,0,0,0-1.591-1.021H92a1.75,1.75,0,0,0-1.75,1.75V57.875A1.75,1.75,0,0,0,92,59.625h26.549A1.749,1.749,0,0,0,120.022,58.82ZM93.75,56.125V44.813h16.886l5.186,11.313Z" style="fill:#28201e"/><path d="M96.875,84.563a7,7,0,1,0,7,7A7.008,7.008,0,0,0,96.875,84.563Zm0,10.5a3.5,3.5,0,1,1,3.5-3.5A3.5,3.5,0,0,1,96.875,95.063Z" style="fill:#28201e"/><path d="M22.743,84.563a7,7,0,1,0,7,7A7.008,7.008,0,0,0,22.743,84.563Zm0,10.5a3.5,3.5,0,1,1,3.5-3.5A3.5,3.5,0,0,1,22.743,95.063Z" style="fill:#28201e"/><path d="M127.841,57.146l-10-21.812a1.751,1.751,0,0,0-1.591-1.021H86.75v-9.75A1.75,1.75,0,0,0,85,22.813H34.618a1.75,1.75,0,0,0,0,3.5H83.25V77.938H3.5V26.313H15a1.75,1.75,0,0,0,0-3.5H1.75A1.75,1.75,0,0,0,0,24.563V88.688a1.75,1.75,0,0,0,1.75,1.75H9.175c-.031.372-.057.745-.057,1.125a13.625,13.625,0,1,0,27.25,0c0-.38-.026-.753-.057-1.125H56.875a1.75,1.75,0,0,0,0-3.5H35.548a13.714,13.714,0,0,0-3.687-5.5H83.25v5.5H66.5a1.75,1.75,0,0,0,0,3.5H83.307c-.031.372-.057.745-.057,1.125a13.625,13.625,0,0,0,27.25,0c0-.38-.026-.753-.057-1.125H126.25a1.75,1.75,0,0,0,1.75-1.75V57.875A1.749,1.749,0,0,0,127.841,57.146ZM9.937,86.938H3.5v-5.5H13.625A13.749,13.749,0,0,0,9.937,86.938Zm12.806,14.75A10.136,10.136,0,0,1,12.618,91.563,10.242,10.242,0,0,1,22.743,81.438,10.242,10.242,0,0,1,32.868,91.563,10.136,10.136,0,0,1,22.743,101.688Zm74.132,0A10.136,10.136,0,0,1,86.75,91.563a10.125,10.125,0,0,1,20.25,0A10.136,10.136,0,0,1,96.875,101.688Zm12.806-14.75A13.615,13.615,0,0,0,86.75,82.447V37.813h28.377L124.5,58.257v6.722h-5.083a1.75,1.75,0,0,0-1.75,1.75v6.833a1.75,1.75,0,0,0,1.75,1.75H124.5V86.938ZM124.5,71.813h-3.333V68.479H124.5Z" style="fill:#28201e"/></svg>