<svg id="Layer_2" data-name="Layer 2" xmlns="http://www.w3.org/2000/svg" viewBox="0 0 128 128"><title>CASH</title><rect x="48.449" y="1.75" width="43.859" height="46.583" style="fill:#00acc1"/><path d="M86.526,48.333V18.573a8.837,8.837,0,0,1-8.837-8.837H63.068a8.837,8.837,0,0,1-8.837,8.837v29.76Z" style="fill:#0097a7"/><path d="M83.166,48.333a16.147,16.147,0,1,0-25.575,0Z" style="fill:#ffca90"/><polygon points="44.39 48.333 37.841 22.183 25.989 28.746 36.835 48.333 44.39 48.333" style="fill:#00acc1"/><polygon points="48.449 48.333 48.449 9.135 35.393 12.405 44.39 48.333 48.449 48.333" style="fill:#0097a7"/><rect x="80.591" y="75.441" width="38.736" height="23.701" rx="3.555" ry="3.555" style="fill:#ffca90"/><path d="M115.772,75.441H84.146A3.555,3.555,0,0,0,80.591,79v.445h31.181A3.555,3.555,0,0,1,115.327,83V99.142h.445a3.555,3.555,0,0,0,3.555-3.555V79A3.555,3.555,0,0,0,115.772,75.441Z" style="fill:#dda976"/><circle cx="92.441" cy="87.292" r="4.629" style="fill:#fb8c00"/><path d="M109.62,53.67V75.44H84.15A3.555,3.555,0,0,0,80.59,79V95.59a3.553,3.553,0,0,0,3.56,3.55h25.47v21.78a5.328,5.328,0,0,1-5.33,5.33H14.01a5.337,5.337,0,0,1-5.34-5.33V53.67a5.339,5.339,0,0,1,5.34-5.34h90.28A5.33,5.33,0,0,1,109.62,53.67Z" style="fill:#5d4037"/><path d="M104.29,48.33H14.01A5.324,5.324,0,0,0,8.7,53.361c.1-.006.2-.031.309-.031H99.29a5.33,5.33,0,0,1,5.33,5.34V75.44h5V53.67A5.33,5.33,0,0,0,104.29,48.33Z" style="fill:#4c352e"/><path d="M104.62,99.14v26.78c0,.1-.024.2-.03.3a5.314,5.314,0,0,0,5.03-5.3V99.14Z" style="fill:#4c352e"/><path d="M13.92,60.74a1.746,1.746,0,0,1-1.75,1.75H8.67v-3.5h3.5A1.746,1.746,0,0,1,13.92,60.74Z" style="fill:#4c352e"/><path d="M98.9,58.99H91.67a1.75,1.75,0,0,0,0,3.5H98.9a1.75,1.75,0,0,0,0-3.5Zm-14.46,0H77.22a1.75,1.75,0,0,0,0,3.5h7.22a1.75,1.75,0,0,0,0-3.5Zm-14.45,0H62.76a1.75,1.75,0,0,0,0,3.5h7.23a1.75,1.75,0,0,0,0-3.5Zm-14.45,0H48.31a1.75,1.75,0,0,0,0,3.5h7.23a1.75,1.75,0,0,0,0-3.5Zm-14.46,0H33.85a1.75,1.75,0,0,0,0,3.5h7.23a1.75,1.75,0,0,0,0-3.5Zm-14.45,0H19.4a1.75,1.75,0,0,0,0,3.5h7.23a1.75,1.75,0,0,0,0-3.5Z" style="fill:#4c352e"/><path d="M13.92,113.84a1.745,1.745,0,0,1-1.75,1.75H8.67v-3.5h3.5A1.752,1.752,0,0,1,13.92,113.84Z" style="fill:#4c352e"/><path d="M98.9,112.09H91.67a1.75,1.75,0,0,0,0,3.5H98.9a1.75,1.75,0,0,0,0-3.5Zm-14.46,0H77.22a1.75,1.75,0,0,0,0,3.5h7.22a1.75,1.75,0,0,0,0-3.5Zm-14.45,0H62.76a1.75,1.75,0,1,0,0,3.5h7.23a1.75,1.75,0,0,0,0-3.5Zm-14.45,0H48.31a1.75,1.75,0,0,0,0,3.5h7.23a1.75,1.75,0,0,0,0-3.5Zm-14.46,0H33.85a1.75,1.75,0,0,0,0,3.5h7.23a1.75,1.75,0,0,0,0-3.5Zm-14.45,0H19.4a1.75,1.75,0,0,0,0,3.5h7.23a1.75,1.75,0,1,0,0-3.5Z" style="fill:#4c352e"/><path d="M80.021,36.75H77.469v-.157a4.42,4.42,0,0,0-8.84,0v3.814a.92.92,0,0,1-1.84,0V33.923a1.75,1.75,0,0,0-3.5,0V36.75H60.736a1.75,1.75,0,0,0,0,3.5h2.552v.157a4.42,4.42,0,0,0,8.84,0V36.593a.92.92,0,0,1,1.84,0v6.484a1.75,1.75,0,0,0,3.5,0V40.25h2.552a1.75,1.75,0,0,0,0-3.5Z" style="fill:#00acc1"/><path d="M115.771,73.691h-4.4V53.666a7.091,7.091,0,0,0-7.083-7.083H94.058V29.034a1.75,1.75,0,0,0-3.5,0V46.583H88.275V18.573a1.75,1.75,0,0,0-1.75-1.75,7.1,7.1,0,0,1-7.087-7.088,1.75,1.75,0,0,0-1.75-1.75H63.068a1.75,1.75,0,0,0-1.75,1.75,7.1,7.1,0,0,1-7.087,7.088,1.75,1.75,0,0,0-1.75,1.75v28.01H50.2V3.5H90.558V9.736a1.75,1.75,0,1,0,3.5,0V1.75A1.75,1.75,0,0,0,92.308,0H48.449A1.75,1.75,0,0,0,46.7,1.75V7.769L34.967,10.708a1.75,1.75,0,0,0-1.272,2.122L35.817,21.3,25.142,27.215a1.75,1.75,0,0,0-.683,2.379l9.407,16.989H14.006a7.091,7.091,0,0,0-7.083,7.083v20a1.75,1.75,0,1,0,3.5,0V62.489h1.75a1.75,1.75,0,0,0,0-3.5h-1.75V53.666a3.587,3.587,0,0,1,3.583-3.583h90.286a3.587,3.587,0,0,1,3.583,3.583v5.323h-1.75a1.75,1.75,0,0,0,0,3.5h1.75v11.2H84.146A5.311,5.311,0,0,0,78.841,79V95.587a5.311,5.311,0,0,0,5.305,5.306h23.728v11.2h-1.75a1.75,1.75,0,0,0,0,3.5h1.75v5.323a3.587,3.587,0,0,1-3.583,3.583H14.006a3.587,3.587,0,0,1-3.583-3.583v-5.323h1.75a1.75,1.75,0,0,0,0-3.5h-1.75v-24.8a1.75,1.75,0,1,0-3.5,0v33.625A7.091,7.091,0,0,0,14.006,128h90.286a7.091,7.091,0,0,0,7.083-7.083V100.893h4.4a5.311,5.311,0,0,0,5.305-5.306V79A5.311,5.311,0,0,0,115.771,73.691ZM46.7,11.377V46.583h-.943L39.539,21.759h0l-2.024-8.08ZM28.368,29.43,36.7,24.817l1.57,6.269,3.881,15.5H37.866Zm27.613-9.251a10.616,10.616,0,0,0,8.693-8.693H76.083a10.616,10.616,0,0,0,8.692,8.693v7.734a17.832,17.832,0,0,0-28.794,0Zm2.5,26.4a14.217,14.217,0,0,1-2.5-8.083,14.4,14.4,0,1,1,28.794,0,14.217,14.217,0,0,1-2.5,8.083Zm59.095,49a1.807,1.807,0,0,1-1.805,1.806H84.146a1.807,1.807,0,0,1-1.805-1.806V79a1.807,1.807,0,0,1,1.805-1.8h31.625a1.807,1.807,0,0,1,1.805,1.8Z" style="fill:#28201e"/><path d="M92.441,80.913a6.379,6.379,0,1,0,6.379,6.379A6.386,6.386,0,0,0,92.441,80.913Zm0,9.258a2.879,2.879,0,1,1,2.879-2.879A2.882,2.882,0,0,1,92.441,90.171Z" style="fill:#28201e"/><path d="M48.309,62.489h7.227a1.75,1.75,0,0,0,0-3.5H48.309a1.75,1.75,0,0,0,0,3.5Z" style="fill:#28201e"/><path d="M19.4,62.489h7.227a1.75,1.75,0,1,0,0-3.5H19.4a1.75,1.75,0,0,0,0,3.5Z" style="fill:#28201e"/><path d="M77.216,62.489h7.227a1.75,1.75,0,0,0,0-3.5H77.216a1.75,1.75,0,0,0,0,3.5Z" style="fill:#28201e"/><path d="M98.9,62.489a1.75,1.75,0,0,0,0-3.5H91.67a1.75,1.75,0,1,0,0,3.5Z" style="fill:#28201e"/><path d="M33.854,62.489h7.227a1.75,1.75,0,0,0,0-3.5H33.854a1.75,1.75,0,0,0,0,3.5Z" style="fill:#28201e"/><path d="M62.762,62.489h7.227a1.75,1.75,0,0,0,0-3.5H62.762a1.75,1.75,0,0,0,0,3.5Z" style="fill:#28201e"/><path d="M98.9,115.594a1.75,1.75,0,0,0,0-3.5H91.67a1.75,1.75,0,0,0,0,3.5Z" style="fill:#28201e"/><path d="M62.762,115.594h7.227a1.75,1.75,0,0,0,0-3.5H62.762a1.75,1.75,0,0,0,0,3.5Z" style="fill:#28201e"/><path d="M77.216,115.594h7.227a1.75,1.75,0,0,0,0-3.5H77.216a1.75,1.75,0,1,0,0,3.5Z" style="fill:#28201e"/><path d="M48.309,115.594h7.227a1.75,1.75,0,0,0,0-3.5H48.309a1.75,1.75,0,0,0,0,3.5Z" style="fill:#28201e"/><path d="M33.854,115.594h7.227a1.75,1.75,0,0,0,0-3.5H33.854a1.75,1.75,0,0,0,0,3.5Z" style="fill:#28201e"/><path d="M19.4,115.594h7.227a1.75,1.75,0,0,0,0-3.5H19.4a1.75,1.75,0,0,0,0,3.5Z" style="fill:#28201e"/><path d="M80.021,36.75H77.469v-.157a4.42,4.42,0,0,0-8.84,0v3.814a.92.92,0,0,1-1.84,0V33.923a1.75,1.75,0,0,0-3.5,0V36.75H60.736a1.75,1.75,0,0,0,0,3.5h2.552v.157a4.42,4.42,0,0,0,8.84,0V36.593a.92.92,0,0,1,1.84,0v6.484a1.75,1.75,0,0,0,3.5,0V40.25h2.552a1.75,1.75,0,0,0,0-3.5Z" style="fill:#28201e"/><path d="M92.308,16.021a1.75,1.75,0,0,0-1.75,1.75V21a1.75,1.75,0,0,0,3.5,0V17.771A1.75,1.75,0,0,0,92.308,16.021Z" style="fill:#28201e"/></svg>