<svg id="Layer_2" data-name="Layer 2" xmlns="http://www.w3.org/2000/svg" viewBox="0 0 128 128"><title>CONTRACT</title><path d="M126.25,59.854a1.75,1.75,0,0,1-1.75-1.75V40.354a6.007,6.007,0,0,0-6-6,1.75,1.75,0,1,1,0-3.5,9.511,9.511,0,0,1,9.5,9.5V58.1A1.75,1.75,0,0,1,126.25,59.854Z" style="fill:#5d4037"/><rect x="1.75" y="1.75" width="93.333" height="124.5" style="fill:#ffca90"/><path d="M1.75,1.75v4H85.083a6,6,0,0,1,6,6v114.5h4V1.75Z" style="fill:#dda976"/><rect x="64.25" y="-4.208" width="5" height="36.667" transform="translate(80.875 -52.625) rotate(90)" style="fill:#5d4037"/><rect x="80.708" y="12.25" width="5" height="3.75" transform="translate(97.333 -69.083) rotate(90)" style="fill:#4c352e"/><rect x="45.917" y="-11.667" width="5" height="73.334" transform="translate(73.417 -23.417) rotate(90)" style="fill:#5d4037"/><rect x="45.917" y="-0.792" width="5" height="73.334" transform="translate(84.292 -12.542) rotate(90)" style="fill:#5d4037"/><rect x="45.917" y="10.083" width="5" height="73.334" transform="translate(95.167 -1.667) rotate(90)" style="fill:#5d4037"/><rect x="45.917" y="20.958" width="5" height="73.334" transform="translate(106.042 9.208) rotate(90)" style="fill:#5d4037"/><rect x="45.917" y="31.833" width="5" height="73.334" transform="translate(116.917 20.083) rotate(90)" style="fill:#5d4037"/><rect x="45.917" y="42.708" width="5" height="73.334" transform="translate(127.792 30.958) rotate(90)" style="fill:#5d4037"/><path d="M63.186,111.435a3.688,3.688,0,0,1-.386-.021,3.526,3.526,0,0,1-3.114-2.759L58,101.271l-1.6-.972,1.47.949-4.487,6.95a1.75,1.75,0,0,1-2.939-1.9l4.487-6.95a3.57,3.57,0,0,1,6.481,1.145l1.682,7.383a.1.1,0,0,0,.114.05l.81-1.757a3.538,3.538,0,0,1,3.232-2.081h.014a3.536,3.536,0,0,1,3.233,2.057h0l.121.012h0l.676-.89a3.571,3.571,0,0,1,5.921.349l.62,1.052,3.349-1.076a1.75,1.75,0,1,1,1.125,3.314l-3.265,1.107a3.587,3.587,0,0,1-4.224-1.567l-.621-1.054-1.512-1.066,1.394,1.059-.676.89a3.571,3.571,0,0,1-6.077-.643H67.2l-.79,1.721A3.52,3.52,0,0,1,63.186,111.435Z" style="fill:#00acc1"/><rect x="105.5" y="21.688" width="13" height="82.75" style="fill:#00acc1"/><path d="M109.875,11.063h4.25a2,2,0,0,1,2,2v8.625a0,0,0,0,1,0,0h-8.25a0,0,0,0,1,0,0V13.063A2,2,0,0,1,109.875,11.063Z" style="fill:#5d4037"/><path d="M114.125,11.063h-4.25a2,2,0,0,0-2,2h4.25a2,2,0,0,1,2,2v6.625h2V13.063A2,2,0,0,0,114.125,11.063Z" style="fill:#4c352e"/><polygon points="112.5 116.938 111.5 116.938 105.5 104.438 118.5 104.438 112.5 116.938" style="fill:#ffca90"/><path d="M105.5,104.438l.96,2h5.862a2,2,0,0,1,1.8,2.865l-3.145,6.551.52,1.083h1l6-12.5Z" style="fill:#dda976"/><path d="M105.5,21.688v3h7a3,3,0,0,1,3,3h-10v3.5h10v73.25h3V21.688Z" style="fill:#0097a7"/><path d="M121.75,35.318V31.439a9.434,9.434,0,0,0-3.25-.585v3.5A5.959,5.959,0,0,1,121.75,35.318Z" style="fill:#4c352e"/><rect x="80.708" y="23.125" width="5" height="3.75" transform="translate(108.208 -58.208) rotate(90)" style="fill:#4c352e"/><rect x="80.708" y="34" width="5" height="3.75" transform="translate(119.083 -47.333) rotate(90)" style="fill:#4c352e"/><rect x="80.708" y="44.875" width="5" height="3.75" transform="translate(129.958 -36.458) rotate(90)" style="fill:#4c352e"/><rect x="80.708" y="55.75" width="5" height="3.75" transform="translate(140.833 -25.583) rotate(90)" style="fill:#4c352e"/><rect x="80.708" y="66.625" width="5" height="3.75" transform="translate(151.708 -14.708) rotate(90)" style="fill:#4c352e"/><rect x="80.708" y="77.5" width="5" height="3.75" transform="translate(162.583 -3.833) rotate(90)" style="fill:#4c352e"/><path d="M26.333,124.5H21.75a1.75,1.75,0,0,0,0,3.5h4.583a1.75,1.75,0,0,0,0-3.5Z" style="fill:#28201e"/><path d="M95.083,0H1.75A1.75,1.75,0,0,0,0,1.75v124.5A1.75,1.75,0,0,0,1.75,128h10a1.75,1.75,0,0,0,0-3.5H3.5V3.5H93.333v121h-57a1.75,1.75,0,0,0,0,3.5h58.75a1.75,1.75,0,0,0,1.75-1.75V1.75A1.75,1.75,0,0,0,95.083,0Z" style="fill:#28201e"/><path d="M85.084,18.375a1.75,1.75,0,0,0,1.75-1.75v-5a1.75,1.75,0,0,0-1.75-1.75H48.417a1.75,1.75,0,0,0-1.75,1.75v5a1.75,1.75,0,0,0,1.75,1.75Zm-34.917-5H83.334v1.5H50.167Z" style="fill:#28201e"/><path d="M10,22.5v5a1.75,1.75,0,0,0,1.75,1.75H85.084a1.75,1.75,0,0,0,1.75-1.75v-5a1.75,1.75,0,0,0-1.75-1.75H11.75A1.75,1.75,0,0,0,10,22.5Zm3.5,1.75H83.334v1.5H13.5Z" style="fill:#28201e"/><path d="M10,38.375a1.75,1.75,0,0,0,1.75,1.75H85.084a1.75,1.75,0,0,0,1.75-1.75v-5a1.75,1.75,0,0,0-1.75-1.75H11.75A1.75,1.75,0,0,0,10,33.375Zm3.5-3.25H83.334v1.5H13.5Z" style="fill:#28201e"/><path d="M10,49.25A1.75,1.75,0,0,0,11.75,51H85.084a1.75,1.75,0,0,0,1.75-1.75v-5a1.75,1.75,0,0,0-1.75-1.75H11.75A1.75,1.75,0,0,0,10,44.25ZM13.5,46H83.334v1.5H13.5Z" style="fill:#28201e"/><path d="M10,60.125a1.75,1.75,0,0,0,1.75,1.75H85.084a1.75,1.75,0,0,0,1.75-1.75v-5a1.75,1.75,0,0,0-1.75-1.75H11.75A1.75,1.75,0,0,0,10,55.125Zm3.5-3.25H83.334v1.5H13.5Z" style="fill:#28201e"/><path d="M10,71a1.75,1.75,0,0,0,1.75,1.75H85.084A1.75,1.75,0,0,0,86.834,71V66a1.75,1.75,0,0,0-1.75-1.75H11.75A1.75,1.75,0,0,0,10,66Zm3.5-3.25H83.334v1.5H13.5Z" style="fill:#28201e"/><path d="M10,81.875a1.75,1.75,0,0,0,1.75,1.75H85.084a1.75,1.75,0,0,0,1.75-1.75v-5a1.75,1.75,0,0,0-1.75-1.75H11.75A1.75,1.75,0,0,0,10,76.875Zm3.5-3.25H83.334v1.5H13.5Z" style="fill:#28201e"/><path d="M74.824,108.447a3.587,3.587,0,0,0,4.224,1.567l3.265-1.107a1.75,1.75,0,1,0-1.125-3.314l-3.349,1.076-.62-1.052a3.571,3.571,0,0,0-5.921-.349l-.676.89-.121-.012a3.536,3.536,0,0,0-3.233-2.057h-.014a3.538,3.538,0,0,0-3.232,2.081l-.81,1.757a.1.1,0,0,1-.114-.05L61.416,100.5a3.57,3.57,0,0,0-6.481-1.145l-4.487,6.95a1.75,1.75,0,0,0,2.939,1.9l4.487-6.95.13.022,1.682,7.384a3.526,3.526,0,0,0,3.114,2.759,3.688,3.688,0,0,0,.386.021,3.52,3.52,0,0,0,3.228-2.082l.79-1.721h.129a3.571,3.571,0,0,0,6.077.643l.676-.89.118.008Z" style="fill:#28201e"/><path d="M120.25,31.023V21.688a1.75,1.75,0,0,0-1.75-1.75h-.625V13.063a3.755,3.755,0,0,0-3.75-3.75h-4.25a3.755,3.755,0,0,0-3.75,3.75v6.875H105.5a1.75,1.75,0,0,0-1.75,1.75v82.75a1.741,1.741,0,0,0,.029.291c0,.017,0,.034.005.052a1.726,1.726,0,0,0,.127.383c0,.01.006.021.01.031l6,12.5a1.751,1.751,0,0,0,1.578.993h1a1.751,1.751,0,0,0,1.578-.993l6-12.5c0-.01.006-.021.01-.031a1.727,1.727,0,0,0,.127-.383c0-.017,0-.034.005-.052a1.741,1.741,0,0,0,.029-.291v-19.1a1.75,1.75,0,0,0-3.5,0v17.354h-9.5v-71.5h9.5V72.5a1.75,1.75,0,0,0,3.5,0V34.616a6.009,6.009,0,0,1,4.25,5.738V58.1a1.75,1.75,0,0,0,3.5,0V40.354A9.511,9.511,0,0,0,120.25,31.023Zm-4.531,75.165L112,113.936l-3.719-7.748Zm-6.094-93.125a.25.25,0,0,1,.25-.25h4.25a.25.25,0,0,1,.25.25v6.875h-4.75Zm7.125,14.625h-9.5v-4.25h9.5Z" style="fill:#28201e"/></svg>