<svg id="Layer_2" data-name="Layer 2" xmlns="http://www.w3.org/2000/svg" viewBox="0 0 128 128"><title>CRUCIBLE</title><polygon points="116.219 50.667 11.781 50.667 11.781 36.736 38.333 26.736 89.667 26.736 116.219 36.736 116.219 50.667" style="fill:#fb8c00"/><polygon points="89.667 26.736 38.333 26.736 11.781 36.736 11.781 39.855 33.329 31.74 84.663 31.74 111.215 41.74 111.215 50.667 116.219 50.667 116.219 36.736 89.667 26.736" style="fill:#ef6c00"/><path d="M89.667,26.736h-8V20.75a11.012,11.012,0,0,0-11-11H57.333a11.012,11.012,0,0,0-11,11v5.986h-8V20.75a19.022,19.022,0,0,1,19-19H70.667a19.022,19.022,0,0,1,19,19Z" style="fill:#00acc1"/><path d="M43.167,20.75v5.986h3.167V20.75a11.012,11.012,0,0,1,11-11H54.167A11.012,11.012,0,0,0,43.167,20.75Z" style="fill:#0097a7"/><path d="M70.667,1.75H67.5a19.022,19.022,0,0,1,19,19v5.986h3.167V20.75A19.022,19.022,0,0,0,70.667,1.75Z" style="fill:#0097a7"/><path d="M90.75,126.25H37.25l-2.323-4.389A152.2,152.2,0,0,1,17.25,50.667h93.5a152.2,152.2,0,0,1-17.677,71.194Z" style="fill:#5d4037"/><path d="M17.25,50.667h0c0,1.67.032,3.338.087,5h86.407A152.2,152.2,0,0,1,86.381,126.25H90.75l2.323-4.389A152.2,152.2,0,0,0,110.75,50.667H17.25Z" style="fill:#4c352e"/><path d="M116.835,35.1,91.417,25.525V20.75A20.774,20.774,0,0,0,70.667,0H57.333a20.774,20.774,0,0,0-20.75,20.75v4.775L11.165,35.1a1.75,1.75,0,0,0-1.133,1.638V50.667a1.75,1.75,0,0,0,1.75,1.75h3.746A154.537,154.537,0,0,0,33.38,122.679l2.323,4.389A1.75,1.75,0,0,0,37.25,128h5.917a1.75,1.75,0,0,0,0-3.5H38.3l-1.83-3.458A151.041,151.041,0,0,1,19.01,52.417H108.99a151.041,151.041,0,0,1-17.464,68.626L89.7,124.5H59.625a1.75,1.75,0,1,0,0,3.5H90.75a1.75,1.75,0,0,0,1.547-.932l2.323-4.389a154.537,154.537,0,0,0,17.853-70.263h3.746a1.75,1.75,0,0,0,1.75-1.75V36.736A1.75,1.75,0,0,0,116.835,35.1ZM40.083,20.75A17.269,17.269,0,0,1,57.333,3.5H70.667a17.269,17.269,0,0,1,17.25,17.25v4.236h-4.5V20.75A12.765,12.765,0,0,0,70.667,8H57.333a12.765,12.765,0,0,0-12.75,12.75v4.236h-4.5Zm74.385,28.167H13.531V37.947l25.121-9.461H62a1.75,1.75,0,0,0,0-3.5H48.083V20.75a9.26,9.26,0,0,1,9.25-9.25H70.667a9.26,9.26,0,0,1,9.25,9.25v4.236H73.375a1.75,1.75,0,0,0,0,3.5H89.349l25.12,9.461Z" style="fill:#28201e"/><path d="M53.125,124.5H49.667a1.75,1.75,0,0,0,0,3.5h3.458a1.75,1.75,0,0,0,0-3.5Z" style="fill:#28201e"/></svg>