<svg id="Layer_2" data-name="Layer 2" xmlns="http://www.w3.org/2000/svg" viewBox="0 0 128 128"><title>FACTORY</title><rect x="1.75" y="80.917" width="124.5" height="45.333" style="fill:#5d4037"/><path d="M1.75,80.917v5h113.5a6,6,0,0,1,6,6V126.25h5V80.917Z" style="fill:#4c352e"/><polygon points="24.25 80.917 1.75 80.917 1.75 71.696 24.25 61.696 24.25 80.917" style="fill:#fb8c00"/><polygon points="46.75 80.917 24.25 80.917 24.25 71.696 46.75 61.696 46.75 80.917" style="fill:#fb8c00"/><polygon points="69.25 80.917 46.75 80.917 46.75 71.696 69.25 61.696 69.25 80.917" style="fill:#fb8c00"/><rect x="14.33" y="98.25" width="37.34" height="28" style="fill:#fb8c00"/><rect x="63" y="98.25" width="20.167" height="9.667" style="fill:#ffca90"/><rect x="95" y="98.25" width="20.167" height="9.667" style="fill:#ffca90"/><path d="M95,98.25v3h11.167a6,6,0,0,1,6,6v.667h3V98.25Z" style="fill:#dda976"/><path d="M63,98.25v3H74.167a6,6,0,0,1,6,6v.667h3V98.25Z" style="fill:#dda976"/><polygon points="14.33 98.25 14.33 101.25 48.67 101.25 48.67 103.5 14.33 103.5 14.33 107 48.67 107 48.67 110.5 14.33 110.5 14.33 114 48.67 114 48.67 117.5 14.33 117.5 14.33 121 48.67 121 48.67 126.25 51.67 126.25 51.67 121 51.67 117.5 51.67 114 51.67 110.5 51.67 107 51.67 103.5 51.67 98.25 14.33 98.25" style="fill:#ef6c00"/><polygon points="118.167 80.917 77.833 80.917 86.698 23.667 109.302 23.667 118.167 80.917" style="fill:#ffca90"/><path d="M106.089,31.749,113.7,80.917h4.465L109.3,23.667H86.7l-.465,3H100.16A6,6,0,0,1,106.089,31.749Z" style="fill:#dda976"/><polygon points="83.976 42.167 112.024 42.167 110.749 33.5 85.251 33.5 83.976 42.167" style="fill:#00acc1"/><polygon points="106.36 33.5 107.702 42.167 112.024 42.167 110.749 33.5 106.36 33.5" style="fill:#0097a7"/><path d="M16.311,10.312h0a6.792,6.792,0,0,0,6.557,5.022H26.6a5.249,5.249,0,0,1,5.026,3.737h0a7.979,7.979,0,0,0,7.641,5.68h4.644a5.249,5.249,0,0,1,3.712,1.537l.52.52a16.59,16.59,0,0,0,11.731,4.859h0a16.59,16.59,0,0,0,9.855-3.244l5.05-3.729a5.249,5.249,0,0,1,3.118-1.027h31.439v-6a5.249,5.249,0,0,1,2.155-4.24l3-2.188A5.249,5.249,0,0,0,116.643,7h0a5.249,5.249,0,0,0-5.249-5.249H22.868A6.792,6.792,0,0,0,16.311,10.312Z" style="fill:#5d4037"/><path d="M69.777,24.693l-5.05,3.729a16.587,16.587,0,0,1-7.3,3.043,16.261,16.261,0,0,0,12.3-3.043l5.05-3.729a5.249,5.249,0,0,1,3.118-1.026h-5A5.249,5.249,0,0,0,69.777,24.693Z" style="fill:#4c352e"/><path d="M111.394,1.75h-5a5.249,5.249,0,0,1,3.094,9.489l-3,2.188a5.249,5.249,0,0,0-2.155,4.24v6h5v-6a5.249,5.249,0,0,1,2.155-4.24l3-2.188a5.249,5.249,0,0,0-3.094-9.489Z" style="fill:#4c352e"/><polygon points="28.25 80.917 24.25 80.917 24.25 71.696 28.25 69.919 28.25 80.917" style="fill:#ef6c00"/><polygon points="50.75 80.917 46.75 80.917 46.75 71.696 50.75 69.919 50.75 80.917" style="fill:#ef6c00"/><path d="M89.5,124.5H86.167a1.75,1.75,0,0,0,0,3.5H89.5a1.75,1.75,0,0,0,0-3.5Z" style="fill:#28201e"/><path d="M126.25,79.167h-6.584l-8.587-55.46c0-.014,0-.027,0-.04v-6a3.511,3.511,0,0,1,1.436-2.826l3-2.189A7,7,0,0,0,111.394,0H60.667a1.75,1.75,0,0,0,0,3.5h50.727a3.5,3.5,0,0,1,2.063,6.325l-3,2.189a7.02,7.02,0,0,0-2.873,5.653v4.249H77.895a7.048,7.048,0,0,0-4.157,1.368l-5.05,3.729a14.946,14.946,0,0,1-8.815,2.9A14.743,14.743,0,0,1,49.378,25.57l-.521-.521A6.95,6.95,0,0,0,43.909,23H39.265A6.192,6.192,0,0,1,33.3,18.566a6.957,6.957,0,0,0-6.7-4.983h-3.73a5.042,5.042,0,1,1,0-10.083H46A1.75,1.75,0,0,0,46,0H22.868a8.542,8.542,0,1,0,0,17.083H26.6a3.478,3.478,0,0,1,3.351,2.491A9.67,9.67,0,0,0,39.265,26.5h4.644a3.478,3.478,0,0,1,2.474,1.024l.521.521a18.218,18.218,0,0,0,12.968,5.372A18.47,18.47,0,0,0,70.766,29.83L75.817,26.1a3.472,3.472,0,0,1,2.078-.684h6.761l-8.322,53.75H71V61.7a1.75,1.75,0,0,0-2.461-1.6L48.5,69V61.7a1.75,1.75,0,0,0-2.461-1.6L26,69V61.7a1.75,1.75,0,0,0-2.461-1.6l-22.5,10A1.751,1.751,0,0,0,0,71.7V126.25A1.75,1.75,0,0,0,1.75,128H77a1.75,1.75,0,0,0,0-3.5H53.417V98.25a1.75,1.75,0,0,0-1.75-1.75H14.333a1.75,1.75,0,0,0-1.75,1.75V124.5H3.5V82.667h121V124.5H98.667a1.75,1.75,0,0,0,0,3.5H126.25a1.75,1.75,0,0,0,1.75-1.75V80.917A1.75,1.75,0,0,0,126.25,79.167ZM49.917,110.5H16.083V107H49.917ZM16.083,114H49.917v3.5H16.083Zm33.833-14v3.5H16.083V100ZM16.083,121H49.917v3.5H16.083ZM107.8,25.417l.981,6.333H87.217l.981-6.333ZM86.762,35.25h22.476l.76,5.167H86ZM3.5,72.834l19-8.445V79.167H3.5Zm22.5,0,19-8.445V79.167H26Zm22.5,6.333V72.834l19-8.445V79.167Zm31.375,0,5.458-35.25h25.333l5.458,35.25Z" style="fill:#28201e"/><path d="M84.917,98.25a1.75,1.75,0,0,0-1.75-1.75H63a1.75,1.75,0,0,0-1.75,1.75v9.667a1.75,1.75,0,0,0,1.75,1.75H83.167a1.75,1.75,0,0,0,1.75-1.75Zm-3.5,7.917H64.75V100H81.417Z" style="fill:#28201e"/><path d="M116.917,107.917V98.25a1.75,1.75,0,0,0-1.75-1.75H95a1.75,1.75,0,0,0-1.75,1.75v9.667a1.75,1.75,0,0,0,1.75,1.75h20.167A1.75,1.75,0,0,0,116.917,107.917Zm-3.5-1.75H96.75V100h16.667Z" style="fill:#28201e"/></svg>