<svg id="Layer_2" data-name="Layer 2" xmlns="http://www.w3.org/2000/svg" viewBox="0 0 128 128"><title>GOLD MINE</title><polygon points="1.75 115.5 126.25 115.5 126.25 63.5 111.75 52 111.75 34.75 95.75 29.25 91.75 20.5 64 12.5 32.25 21.75 32.25 32 14 40.75 14.25 52.75 1.75 60 1.75 115.5" style="fill:#5d4037"/><polygon points="111.75 52 111.75 34.75 95.75 29.25 91.75 20.5 64 12.5 32.25 21.75 32.25 23.878 60.998 15.502 88.748 23.502 92.748 32.252 108.748 37.752 108.748 55.002 123.248 66.502 123.248 115.5 126.25 115.5 126.25 63.5 111.75 52" style="fill:#4c352e"/><rect x="32.25" y="62.756" width="63.5" height="10.744" style="fill:#00acc1"/><polygon points="29.256 115.5 39.256 73.5 50 73.5 40 115.5 29.256 115.5" style="fill:#ffca90"/><polygon points="98.744 115.5 88.744 73.5 78 73.5 88 115.5 98.744 115.5" style="fill:#ffca90"/><polygon points="105.247 115.5 109.375 103.375 115.625 99.625 126.25 99.625 126.25 115.5 105.247 115.5" style="fill:#fb8c00"/><polygon points="115.625 99.625 109.375 103.375 109.032 104.381 113.623 101.627 124.248 101.627 124.248 115.5 126.25 115.5 126.25 99.625 115.625 99.625" style="fill:#ef6c00"/><polygon points="1.75 98.625 12.25 98.625 19.875 105 26.875 107.875 30 112.376 29.256 115.5 1.75 115.5 1.75 98.625" style="fill:#fb8c00"/><polygon points="26.875 107.875 19.875 105 12.25 98.625 1.75 98.625 1.75 100.627 9.248 100.627 16.873 107.002 23.873 109.877 26.998 114.378 26.73 115.5 29.256 115.5 30 112.376 26.875 107.875" style="fill:#ef6c00"/><path d="M111.75,52H98.744a1.75,1.75,0,0,0-1.75,1.75h0a1.75,1.75,0,0,0,1.75,1.75h17.419Z" style="fill:#4c352e"/><path d="M55.375,33.75h0A1.75,1.75,0,0,0,53.625,32H32.25l-7.3,3.5H53.625A1.75,1.75,0,0,0,55.375,33.75Z" style="fill:#4c352e"/><path d="M31.75,54.5h0A1.75,1.75,0,0,0,30,52.75H14.25l-6.034,3.5H30A1.75,1.75,0,0,0,31.75,54.5Z" style="fill:#4c352e"/><path d="M32.25,62.756v3H85.006A7.741,7.741,0,0,1,92.748,73.5h3V62.756Z" style="fill:#0097a7"/><polygon points="49.087 77.333 50 73.5 39.256 73.5 38.344 77.333 49.087 77.333" style="fill:#dda976"/><polygon points="89.656 77.333 88.744 73.5 78 73.5 78.913 77.333 89.656 77.333" style="fill:#dda976"/><path d="M57.333,61.006a1.75,1.75,0,0,0,0,3.5H60a1.75,1.75,0,0,0,0-3.5Z" style="fill:#28201e"/><path d="M126.25,80.417a1.75,1.75,0,0,0,1.75-1.75V63.5a1.75,1.75,0,0,0-.663-1.371L113.5,51.154V34.75a1.75,1.75,0,0,0-1.181-1.655l-15.29-5.256-3.687-8.067a1.751,1.751,0,0,0-1.107-.954l-27.75-8a1.766,1.766,0,0,0-.974,0l-31.75,9.25A1.75,1.75,0,0,0,30.5,21.75V30.9L13.244,39.172a1.75,1.75,0,0,0-.993,1.615l.229,10.968L.872,58.486A1.749,1.749,0,0,0,0,60v55.5a1.75,1.75,0,0,0,1.75,1.75h124.5A1.75,1.75,0,0,0,128,115.5V89.667a1.75,1.75,0,0,0-3.5,0v8.208h-8.875a1.751,1.751,0,0,0-.9.25l-6.25,3.75a1.75,1.75,0,0,0-.756.937l-3.724,10.939h-3.868l-9.167-38.5H95.75A1.75,1.75,0,0,0,97.5,73.5V62.756a1.75,1.75,0,0,0-1.75-1.75H68.333a1.75,1.75,0,0,0,0,3.5H94V71.75H34V64.506H49a1.75,1.75,0,0,0,0-3.5H32.25a1.75,1.75,0,0,0-1.75,1.75V73.5a1.75,1.75,0,0,0,1.75,1.75h4.791L29.2,108.162l-.892-1.285a1.749,1.749,0,0,0-.772-.621l-6.75-2.772-7.417-6.2a1.751,1.751,0,0,0-1.123-.407H3.5V61.008L14.72,54.5H30A1.75,1.75,0,0,0,30,51H15.964l-.191-9.159L32.648,33.75H53.625a1.75,1.75,0,0,0,0-3.5H34V23.063l30-8.741,26.49,7.637,3.666,8.019a1.751,1.751,0,0,0,1.023.927L110,36V50.25H98.744a1.75,1.75,0,1,0,0,3.5h12.4l13.36,10.6V78.667A1.75,1.75,0,0,0,126.25,80.417ZM76.618,75.25l9.167,38.5H42.216l9.167-38.5Zm34.208,29.3,5.285-3.171h8.39V113.75H107.691ZM87.361,75.25l9.167,38.5H89.382l-9.167-38.5Zm-39.577,0-9.167,38.5H31.472l9.167-38.5ZM11.615,100.375l7.138,5.968a1.756,1.756,0,0,0,.458.276l6.522,2.679,2.384,3.434-.242,1.019H3.5V100.375Z" style="fill:#28201e"/></svg>