<svg id="Layer_2" data-name="Layer 2" xmlns="http://www.w3.org/2000/svg" viewBox="0 0 128 128"><title>HORSE</title><path d="M113.039,126.247H32.328V61.1a40.379,40.379,0,0,1,9.88-26.5,13,13,0,0,1,.8-17.518l9.159,9.169a40.346,40.346,0,0,1,20.691-5.686L107.6,55.316a10.33,10.33,0,0,1-15.265,9.079l-6.376-3.463c-.12.14-.24.27-.36.4A17.324,17.324,0,0,1,72.859,66.9l1.662,1.682L99.8,94.065a45.661,45.661,0,0,1,13.243,32.182Z" style="fill:#fb8c00"/><path d="M101.593,55.316a10.3,10.3,0,0,1-7.3,9.878A10.323,10.323,0,0,0,107.6,55.316L72.859,20.571a40.669,40.669,0,0,0-5.62.39Z" style="fill:#ef6c00"/><path d="M109.606,108.85A45.592,45.592,0,0,0,99.8,94.065L74.521,68.579H68.51L93.785,94.065a45.661,45.661,0,0,1,13.243,32.182h6.011A45.841,45.841,0,0,0,109.606,108.85Z" style="fill:#ef6c00"/><path d="M32.329,66.9c0-2.759-.1-5.544.085-8.3a41,41,0,0,1,4.315-15.851A43.7,43.7,0,0,1,42.206,34.6a13.006,13.006,0,0,1,.8-17.512h0l9.161,9.161a35.054,35.054,0,0,1,10-4.246,40.351,40.351,0,0,1,10.694-1.436V1.752h0A57.905,57.905,0,0,0,14.957,59.657V95.666H32.329Z" style="fill:#5d4037"/><path d="M72.863,1.752c-1.689,0-3.357.088-5.009.23v18.59A40.352,40.352,0,0,0,57.16,22.007a42.281,42.281,0,0,0-6.786,2.453l1.794,1.794a35.06,35.06,0,0,1,10-4.246,40.352,40.352,0,0,1,10.694-1.436V1.752Z" style="fill:#4c352e"/><path d="M86.823,42.743l-4.067-4.067L75.5,31.419a1.751,1.751,0,0,0-1.239-.513H64.75a1.752,1.752,0,0,0,0,3.5h2.177a9.022,9.022,0,0,0,8.835,7.257h5.03l3.554,3.553a1.752,1.752,0,0,0,2.477-2.477Zm-9.535-4.58H75.762a5.516,5.516,0,0,1-5.22-3.754h2.993Z" style="fill:#5d4037"/><path d="M63.625,116.492a1.746,1.746,0,0,1-1.239-.513l-2.238-2.238A44.652,44.652,0,0,1,46.983,81.958a1.752,1.752,0,0,1,3.5,0,41.175,41.175,0,0,0,12.139,29.307l2.238,2.238a1.752,1.752,0,0,1-1.239,2.99Z" style="fill:#5d4037"/><path d="M52.472,59.513l5.1,5.1a13.674,13.674,0,0,0,9.732,4.031h7.281l-.068-.068L72.859,66.9a17.268,17.268,0,0,0,7.57-1.754H67.307a10.194,10.194,0,0,1-7.255-3l-5.1-5.1a1.752,1.752,0,0,0-2.477,2.477Z" style="fill:#5d4037"/><path d="M32.328,95.666V66.76c0-2.276-.059-4.567.027-6.845a40.258,40.258,0,0,1,3.451-15.222c.04-.091.083-.18.124-.27q.329-.726.684-1.437c.04-.079.074-.161.114-.24s.087-.153.128-.231a40.751,40.751,0,0,1,5.286-7.831c.022-.026.042-.053.063-.079-.008-.009-.013-.02-.021-.03a12.992,12.992,0,0,1,.824-17.487l.023.023.01-.018-2.854-2.854h0c-4.8,4.8-7.249,15.255-2.991,20.366a43.7,43.7,0,0,0-5.477,8.142A41,41,0,0,0,27.405,58.6c-.188,2.754-.085,5.54-.085,8.3V95.666Z" style="fill:#4c352e"/><path d="M101.038,92.83,76.683,68.261a19.137,19.137,0,0,0,9.629-5.15L91.5,65.934a12.084,12.084,0,0,0,17.853-10.619,1.752,1.752,0,0,0-.513-1.239l-34.23-34.23V1.752A1.752,1.752,0,0,0,72.863,0,59.725,59.725,0,0,0,13.206,59.657V72.99a1.752,1.752,0,0,0,3.5,0V59.657a56.22,56.22,0,0,1,54.4-56.126V18.856A41.017,41.017,0,0,0,52.422,24.03l-8.177-8.176a1.751,1.751,0,0,0-2.477,0,14.841,14.841,0,0,0-1.8,18.693,42.387,42.387,0,0,0-7.7,14.764c-1.689,5.8-1.691,11.6-1.691,17.585V93.914H16.709V81.958a1.752,1.752,0,0,0-3.5,0V95.666a1.752,1.752,0,0,0,1.752,1.752h15.62v28.831A1.752,1.752,0,0,0,32.329,128H43.041a1.752,1.752,0,1,0,0-3.5H34.081V66.9a75.081,75.081,0,0,1,.506-11.914,39.819,39.819,0,0,1,8.965-19.256,1.808,1.808,0,0,0,0-2.242A11.183,11.183,0,0,1,43.1,19.664l7.828,7.827a1.811,1.811,0,0,0,2.134.267,38.844,38.844,0,0,1,19.1-5.412l33.666,33.666a8.582,8.582,0,0,1-12.649,6.842L86.8,59.388a1.753,1.753,0,0,0-2.157.389,15.622,15.622,0,0,1-11.777,5.367H67.307a10.194,10.194,0,0,1-7.255-3l-5.1-5.1a1.752,1.752,0,0,0-2.477,2.477l5.1,5.1a13.674,13.674,0,0,0,9.732,4.031h4.826L98.55,95.3a43.672,43.672,0,0,1,12.707,29.2H63a1.752,1.752,0,1,0,0,3.5h50.045a1.752,1.752,0,0,0,1.752-1.752A47.181,47.181,0,0,0,101.038,92.83Z" style="fill:#28201e"/><path d="M54.49,124.5H51.549a1.752,1.752,0,1,0,0,3.5H54.49a1.752,1.752,0,1,0,0-3.5Z" style="fill:#28201e"/><path d="M66.927,34.41a9.022,9.022,0,0,0,8.835,7.257h5.03l3.554,3.553a1.752,1.752,0,0,0,2.477-2.477l-4.067-4.067L75.5,31.419a1.751,1.751,0,0,0-1.239-.513H64.75a1.752,1.752,0,0,0,0,3.5Zm6.608,0,3.754,3.754H75.762a5.516,5.516,0,0,1-5.22-3.754Z" style="fill:#28201e"/><path d="M63.625,116.492a1.752,1.752,0,0,0,1.239-2.99l-2.238-2.238A41.175,41.175,0,0,1,50.486,81.958a1.752,1.752,0,0,0-3.5,0,44.652,44.652,0,0,0,13.166,31.784l2.238,2.238A1.746,1.746,0,0,0,63.625,116.492Z" style="fill:#28201e"/></svg>