<svg id="Layer_2" data-name="Layer 2" xmlns="http://www.w3.org/2000/svg" viewBox="0 0 128 128"><title>INVEST</title><path d="M62.219,24.434V59.795a1.75,1.75,0,1,0,3.5,0V24.434Z" style="fill:#5d4037"/><path d="M74.219,14.184h8.406a0,0,0,0,1,0,0v0a10.25,10.25,0,0,1-10.25,10.25H63.969a0,0,0,0,1,0,0v0A10.25,10.25,0,0,1,74.219,14.184Z" style="fill:#00acc1"/><path d="M80.177,14.184a10.253,10.253,0,0,1-9.8,7.25H64.417a10.244,10.244,0,0,0-.448,3h8.406a10.25,10.25,0,0,0,10.25-10.25Z" style="fill:#0097a7"/><path d="M78.065,33.144h11.56a0,0,0,0,1,0,0v0a14.1,14.1,0,0,1-14.1,14.1H63.969a0,0,0,0,1,0,0v0A14.1,14.1,0,0,1,78.065,33.144Z" style="fill:#00acc1"/><path d="M87.3,33.144a14.1,14.1,0,0,1-13.769,11.1H64.3a14.126,14.126,0,0,0-.327,3h11.56a14.1,14.1,0,0,0,14.1-14.1Z" style="fill:#0097a7"/><path d="M38.312,33.144h11.56a14.1,14.1,0,0,1,14.1,14.1v0a0,0,0,0,1,0,0H52.408a14.1,14.1,0,0,1-14.1-14.1v0A0,0,0,0,1,38.312,33.144Z" transform="translate(102.281 80.383) rotate(-180)" style="fill:#00acc1"/><path d="M45.313,14.184h8.406a10.25,10.25,0,0,1,10.25,10.25v0a0,0,0,0,1,0,0H55.562a10.25,10.25,0,0,1-10.25-10.25v0A0,0,0,0,1,45.313,14.184Z" transform="translate(109.281 38.618) rotate(-180)" style="fill:#00acc1"/><path d="M47.761,14.184a10.253,10.253,0,0,0,9.8,7.25H63.52a10.244,10.244,0,0,1,.448,3H55.563a10.25,10.25,0,0,1-10.25-10.25Z" style="fill:#0097a7"/><path d="M40.64,33.144a14.1,14.1,0,0,0,13.769,11.1h9.233a14.126,14.126,0,0,1,.327,3H52.408a14.1,14.1,0,0,1-14.1-14.1Z" style="fill:#0097a7"/><polygon points="120.792 54.389 109.708 54.389 109.708 43.305 103.208 43.305 103.208 54.389 92.125 54.389 92.125 60.889 103.208 60.889 103.208 71.972 109.708 71.972 109.708 60.889 120.792 60.889 120.792 54.389" style="fill:#00acc1"/><polygon points="43.26 113.816 1.781 113.816 8.451 95.809 36.59 95.809 43.26 113.816" style="fill:#fb8c00"/><polygon points="84.74 113.816 43.26 113.816 49.93 95.809 78.07 95.809 84.74 113.816" style="fill:#fb8c00"/><polygon points="63.969 95.809 22.49 95.809 29.16 77.802 57.299 77.802 63.969 95.809" style="fill:#fb8c00"/><polygon points="105.448 95.809 63.969 95.809 70.639 77.802 98.778 77.802 105.448 95.809" style="fill:#fb8c00"/><polygon points="84.74 77.802 43.26 77.802 49.93 59.795 78.07 59.795 84.74 77.802" style="fill:#fb8c00"/><path d="M75.52,66.711,79.628,77.8H84.74L78.07,59.795H49.93l-1.111,3H69.894A6,6,0,0,1,75.52,66.711Z" style="fill:#ef6c00"/><path d="M96.228,84.718l4.108,11.091h5.111L98.778,77.8H70.639l-1.111,3H90.6A6,6,0,0,1,96.228,84.718Z" style="fill:#ef6c00"/><path d="M54.781,84.718l4.108,11.091H64L57.33,77.8H29.191l-1.111,3H49.154A6,6,0,0,1,54.781,84.718Z" style="fill:#ef6c00"/><polygon points="126.219 113.816 84.74 113.816 91.41 95.809 119.549 95.809 126.219 113.816" style="fill:#fb8c00"/><path d="M117.031,102.725l4.108,11.091h5.111l-6.67-18.007H91.441l-1.111,3H111.4A6,6,0,0,1,117.031,102.725Z" style="fill:#ef6c00"/><path d="M75.536,102.725l4.108,11.091h5.111l-6.67-18.007H49.946l-1.111,3H69.909A6,6,0,0,1,75.536,102.725Z" style="fill:#ef6c00"/><path d="M34.041,102.725l4.108,11.091H43.26L36.59,95.809H8.451l-1.111,3H28.415A6,6,0,0,1,34.041,102.725Z" style="fill:#ef6c00"/><path d="M108.29,112.066h-5.748a1.75,1.75,0,0,0,0,3.5h5.748a1.75,1.75,0,0,0,0-3.5Z" style="fill:#28201e"/><path d="M127.859,113.209,121.189,95.2a1.749,1.749,0,0,0-1.641-1.143H106.666l-6.247-16.864a1.749,1.749,0,0,0-1.641-1.143H85.957l-1.376-3.714A1.749,1.749,0,1,0,81.3,73.553l.925,2.5H45.775l5.374-14.507h25.7l1.135,3.063a1.749,1.749,0,0,0,3.281-1.215L79.71,59.188a1.749,1.749,0,0,0-1.641-1.143H65.719V48.989h9.811A15.864,15.864,0,0,0,91.375,33.144a1.75,1.75,0,0,0-1.75-1.75H78.064A15.815,15.815,0,0,0,65.719,37.33V26.184h6.656a12.013,12.013,0,0,0,12-12,1.75,1.75,0,0,0-1.75-1.75H74.219a11.992,11.992,0,0,0-10.25,5.792,11.992,11.992,0,0,0-10.25-5.792H45.312a1.75,1.75,0,0,0-1.75,1.75,12.013,12.013,0,0,0,12,12h6.656V37.33a15.815,15.815,0,0,0-12.346-5.937H38.312a1.75,1.75,0,0,0-1.75,1.75A15.864,15.864,0,0,0,52.408,48.989h9.811v9.056H49.931a1.751,1.751,0,0,0-1.641,1.143L42.042,76.052H29.16a1.751,1.751,0,0,0-1.641,1.143L21.272,94.059H8.451A1.751,1.751,0,0,0,6.81,95.2L.14,113.209a1.749,1.749,0,0,0,1.641,2.357H95a1.75,1.75,0,0,0,0-3.5H87.254l5.373-14.508h25.7l5.373,14.508h-7.871a1.75,1.75,0,0,0,0,3.5h10.386a1.749,1.749,0,0,0,1.641-2.357ZM74.219,15.934h6.476a8.516,8.516,0,0,1-8.319,6.75H65.9A8.516,8.516,0,0,1,74.219,15.934Zm-18.656,6.75a8.514,8.514,0,0,1-8.319-6.75h6.475a8.514,8.514,0,0,1,8.319,6.75Zm22.5,12.21h9.687a12.363,12.363,0,0,1-12.222,10.6H65.843A12.363,12.363,0,0,1,78.064,34.894Zm-25.656,10.6a12.364,12.364,0,0,1-12.222-10.6h9.687A12.364,12.364,0,0,1,62.1,45.489ZM68.125,79.552,63.969,90.771,59.813,79.552Zm-37.747,0h25.7l5.373,14.507H25ZM43.26,108.778,39.1,97.559h8.312ZM4.3,112.066,9.669,97.559h25.7l5.374,14.508Zm41.479,0,5.374-14.508h25.7l5.373,14.508Zm38.964-3.287L80.583,97.559H88.9Zm6.67-14.721H66.483l5.373-14.507h25.7l5.373,14.507Z" style="fill:#28201e"/><path d="M90.375,54.389v6.5a1.75,1.75,0,0,0,1.75,1.75h9.333v9.334a1.75,1.75,0,0,0,1.75,1.75h6.5a1.75,1.75,0,0,0,1.75-1.75V62.639h9.334a1.75,1.75,0,0,0,1.75-1.75v-6.5a1.75,1.75,0,0,0-1.75-1.75h-9.334V43.306a1.75,1.75,0,0,0-1.75-1.75h-6.5a1.75,1.75,0,0,0-1.75,1.75v9.333H92.125A1.75,1.75,0,0,0,90.375,54.389Zm3.5,1.75h9.333a1.75,1.75,0,0,0,1.75-1.75V45.056h3v9.333a1.75,1.75,0,0,0,1.75,1.75h9.334v3h-9.334a1.75,1.75,0,0,0-1.75,1.75v9.334h-3V60.889a1.75,1.75,0,0,0-1.75-1.75H93.875Z" style="fill:#28201e"/></svg>