<svg id="Layer_2" data-name="Layer 2" xmlns="http://www.w3.org/2000/svg" viewBox="0 0 128 128"><title>JEWELERY</title><polygon points="48.46 122.769 39.623 122.769 1.75 83.87 20.687 60.12 67.397 60.12 86.333 83.87 48.46 122.769" style="fill:#00acc1"/><path d="M86.333,83.87,67.4,60.12H20.687l-1.1,1.378h0L16.7,65.124h6.456l16.714,17H3.145l-1.4,1.75,1.7,1.75H29.3L42.19,122.769h3.7L58.779,85.62H79.736l2.2,2.763ZM28.062,65.124h31.96l-15.98,16.25Zm15.98,52.3L33.009,85.62H55.075ZM48.217,82.12,64.082,65.987,76.945,82.12Z" style="fill:#0097a7"/><polygon points="114.971 59.815 82.946 59.815 71.667 48.536 71.667 16.51 82.946 5.231 114.971 5.231 126.25 16.51 126.25 48.536 114.971 59.815" style="fill:#fb8c00"/><path d="M124.5,14.761l-7.78-7.78-1.75-1.75H82.946L81.2,6.982,78.942,9.235H81.2v5.526H73.416l-1.75,1.75v1.75H81.2V46.786H71.667v1.75l1.75,1.75H81.2v7.778l1.75,1.75H84.7V50.286h28.525v9.528h1.75l1.75-1.75V50.286h5.526v2.253l2.253-2.253,1.75-1.75V16.51Zm-11.28,32.025H84.7V18.261h28.525ZM84.7,14.761V9.235h26.273l2.253,2.253v3.273Zm37.552,5.753V46.786h-5.526V18.261h3.273Z" style="fill:#ef6c00"/><path d="M78.508,75.8a1.75,1.75,0,0,0,1.367-2.841l-1.128-1.414a1.75,1.75,0,1,0-2.736,2.182l1.128,1.414A1.747,1.747,0,0,0,78.508,75.8Z" style="fill:#28201e"/><path d="M88.008,83.39a1.786,1.786,0,0,0-.307-.61L84.212,78.4a1.75,1.75,0,1,0-2.736,2.182L82.7,82.12H48.217L67.259,62.755l4.414,5.536a1.75,1.75,0,1,0,2.736-2.182l-5.646-7.08A1.808,1.808,0,0,0,67.4,58.37H20.7a1.808,1.808,0,0,0-1.385.659L.382,82.779a1.776,1.776,0,0,0,.131,2.329l37.856,38.881a1.747,1.747,0,0,0,1.254.529H48.46a1.747,1.747,0,0,0,1.254-.529L87.57,85.108A1.762,1.762,0,0,0,88.008,83.39ZM55.075,85.62,44.042,117.429,33.009,85.62ZM5.383,82.12l15.44-19.365L39.867,82.12ZM24.862,61.87h38.36l-19.179,19.5ZM5.9,85.62H29.3l12.278,35.4H40.361Zm41.826,35.4H46.5l12.278-35.4H82.187Z" style="fill:#28201e"/><path d="M127.865,49.208a1.834,1.834,0,0,0,.135-.672V16.511a1.793,1.793,0,0,0-.515-1.24L116.211,4a1.781,1.781,0,0,0-1.24-.515H82.945A1.793,1.793,0,0,0,81.705,4L70.432,15.271a1.781,1.781,0,0,0-.515,1.24V48.536a1.793,1.793,0,0,0,.515,1.24L81.705,61.049a1.781,1.781,0,0,0,1.24.515h32.025a1.793,1.793,0,0,0,1.24-.515l11.274-11.273A1.854,1.854,0,0,0,127.865,49.208ZM116.721,9.456l5.3,5.3h-5.3Zm-3.5,5.3H84.7V6.981h28.525Zm-32.025,0h-5.3l5.3-5.3Zm0,3.5V46.786H73.417V18.261Zm0,32.025v5.3l-5.3-5.3Zm3.5,0H91a1.75,1.75,0,0,0,0-3.5H84.7V18.261h28.525V46.786H101.5a1.75,1.75,0,0,0,0,3.5h11.721v7.778H84.7Zm32.025,0h5.3l-5.3,5.3Zm0-3.5V18.261H124.5V46.786Z" style="fill:#28201e"/></svg>