<svg id="Layer_2" data-name="Layer 2" xmlns="http://www.w3.org/2000/svg" viewBox="0 0 128 128"><title>KILN</title><rect x="1.75" y="31.625" width="124.5" height="56.5" style="fill:#28201e"/><rect x="1.75" y="31.625" width="124.5" height="56.5" style="fill:#5d4037"/><rect x="40.75" y="12.625" width="46.5" height="104.5" transform="translate(128.875 0.875) rotate(90)" style="fill:#fb8c00"/><path d="M11.75,41.625v3h93.5a8,8,0,0,1,8,8v35.5h3v-46.5Z" style="fill:#ef6c00"/><rect x="50.417" y="16.458" width="27.167" height="15.167" style="fill:#fb8c00"/><path d="M50.417,16.458v3H68.581a6,6,0,0,1,6,6v6.164h3V16.458Z" style="fill:#ef6c00"/><rect x="43.667" y="4.375" width="40.667" height="12.083" style="fill:#5d4037"/><path d="M43.667,4.375v3H75.331a6,6,0,0,1,6,6v3.081h3V4.375Z" style="fill:#4c352e"/><path d="M11.75,79.875l2.505-1.107A20.869,20.869,0,0,0,25.5,66.625h0l9,6.625h0a16.652,16.652,0,0,0,1.662-17.808L36,55.125l4.464,2.322A26.5,26.5,0,0,1,53.625,73.375h0l3.312-7.61a29.78,29.78,0,0,1,7.326-10.2L70,50.375l-.322,1.642A29.78,29.78,0,0,0,73.25,72.875h0l.478-.546a16.868,16.868,0,0,0,3.191-16.781L76.5,54.375l6.988,5.435A16.868,16.868,0,0,1,90,73.125h0a16.621,16.621,0,0,0,10-11h0l2.4,5.34a16.621,16.621,0,0,0,10.353,9.1l3.5,1.058v10.5H11.75Z" style="fill:#ffca90"/><path d="M113.248,76.717h0a8.4,8.4,0,0,1-8.405,8.405H11.75v3h104.5v-10.5Z" style="fill:#dda976"/><rect x="1.75" y="88.125" width="124.5" height="35.5" style="fill:#5d4037"/><path d="M126.25,110.042h-8.625v-8.333h8.625v-3.5h-19V88.125h-3.5V98.208H86.5V88.125H83V98.208H65.75V88.125h-3.5V98.208H45V88.125H41.5V98.208H24.25V88.125h-3.5V98.208h-19v3.5h8.625v8.333H1.75v3.5h19v10.083h3.5V113.542H41.5v10.083H45V113.542H62.25v10.083h3.5V113.542H83v10.083h3.5V113.542h17.25v10.083h3.5V113.542h19Zm-95.125,0H13.875v-8.333h17.25Zm20.75,0H34.625v-8.333h17.25Zm20.75,0H55.375v-8.333h17.25Zm20.75,0H76.125v-8.333h17.25Zm20.75,0H96.875v-8.333h17.25Z" style="fill:#4c352e"/><path d="M126.25,29.875H79.333V18.208h5a1.75,1.75,0,0,0,1.75-1.75V4.375a1.75,1.75,0,0,0-1.75-1.75H43.667a1.75,1.75,0,0,0-1.75,1.75V16.458a1.75,1.75,0,0,0,1.75,1.75h5V29.875H1.75A1.75,1.75,0,0,0,0,31.625v92a1.75,1.75,0,0,0,1.75,1.75H6.937a1.75,1.75,0,0,0,0-3.5H3.5v-8.333H20.75v8.333H17a1.75,1.75,0,0,0,0,3.5H126.25a1.75,1.75,0,0,0,1.75-1.75v-92A1.75,1.75,0,0,0,126.25,29.875ZM96.875,110.042v-8.333h17.25v8.333Zm-20.75,0v-8.333h17.25v8.333Zm-20.75,0v-8.333h17.25v8.333Zm-20.75,0v-8.333h17.25v8.333ZM3.5,98.208V89.875H20.75v8.333Zm10-17.193,1.462-.646a22.718,22.718,0,0,0,11.3-11.009l7.2,5.3a1.751,1.751,0,0,0,2.42-.336,18.482,18.482,0,0,0,3.361-15.538l.412.215A24.876,24.876,0,0,1,51.948,73.875a1.75,1.75,0,0,0,1.571,1.247,1.774,1.774,0,0,0,1.71-1.049l3.312-7.61a27.841,27.841,0,0,1,6.9-9.6l2.053-1.857a31.5,31.5,0,0,0,4.252,18.758,1.75,1.75,0,0,0,2.825.263l.477-.546A18.63,18.63,0,0,0,79.51,58.933l2.9,2.258A15.022,15.022,0,0,1,88.25,73.125a1.75,1.75,0,0,0,2.382,1.632,18.468,18.468,0,0,0,9.429-8.224l.74,1.649a18.364,18.364,0,0,0,11.442,10.061l2.257.682v7.451H13.5Zm111,17.193H107.25V89.875H124.5Zm-38,0V89.875h17.25v8.333Zm-20.75,0V89.875H83v8.333Zm-20.75,0V89.875H62.25v8.333ZM24.25,89.875H41.5v8.333H24.25Zm93.375,11.833H124.5v8.333h-6.875ZM45.417,6.125H82.583v8.583H45.417Zm6.75,12.083H75.833V29.875H52.167ZM3.5,33.375h121v53H118V41.625a1.75,1.75,0,0,0-1.75-1.75H101.667a1.75,1.75,0,1,0,0,3.5H114.5V75.267l-1.243-.376a14.864,14.864,0,0,1-9.263-8.144l-2.4-5.34a1.75,1.75,0,0,0-3.281.243,14.951,14.951,0,0,1-6.758,8.778,18.479,18.479,0,0,0-7-12l-6.988-5.435a1.75,1.75,0,0,0-2.722,1.97l.418,1.172A15.13,15.13,0,0,1,73.548,69.7a28.012,28.012,0,0,1-2.153-17.348l.322-1.642a1.75,1.75,0,0,0-2.891-1.635l-5.736,5.19a31.313,31.313,0,0,0-7.758,10.8l-1.614,3.71A28.419,28.419,0,0,0,41.271,55.9l-4.464-2.322a1.749,1.749,0,0,0-2.365,2.349l.163.319a14.963,14.963,0,0,1-.521,14.53l-7.547-5.555a1.75,1.75,0,0,0-2.687.827,19.189,19.189,0,0,1-10.3,11.125l-.048.021V43.375H77.583a1.75,1.75,0,0,0,0-3.5H11.75A1.75,1.75,0,0,0,10,41.625v44.75H3.5Zm0,68.333h6.875v8.333H3.5Zm10.375,8.333v-8.333h17.25v8.333Zm10.375,3.5H41.5v8.333H24.25Zm20.75,0H62.25v8.333H45Zm20.75,0H83v8.333H65.75Zm20.75,0h17.25v8.333H86.5Zm38,8.333H107.25v-8.333H124.5Z" style="fill:#28201e"/><path d="M87.25,43.375H92a1.75,1.75,0,0,0,0-3.5H87.25a1.75,1.75,0,0,0,0,3.5Z" style="fill:#28201e"/></svg>