<svg id="Layer_2" data-name="Layer 2" xmlns="http://www.w3.org/2000/svg" viewBox="0 0 128 128"><title>MINING</title><path d="M119.846,49.574l-9.513,9.513H92.958L88.349,63.7a64.7,64.7,0,0,1,3.275,11.362L84.305,67.74,80.25,71.8V85.712l-6.75,6.75H58.333l-9,16.417H126.25v-59.3Z" style="fill:#5d4037"/><polygon points="88.621 72.056 88.621 72.055 84.305 67.74 84.305 67.74 88.621 72.056" style="fill:#4c352e"/><path d="M123.248,49.574V94.231A11.645,11.645,0,0,1,111.6,105.876H50.979l-1.646,3H126.25v-59.3Z" style="fill:#4c352e"/><path d="M91.623,75.058A64.851,64.851,0,0,0,78.14,46.205l1.7-1.7L66.178,30.85l-1.7,1.7A64.851,64.851,0,0,0,35.629,19.063L56.8,40.231,55.339,41.69l.608,6.44,6.611,6.611,6.44.607,1.458-1.458Z" style="fill:#00acc1"/><polygon points="66.352 52.703 59.911 52.095 62.557 54.741 68.997 55.348 70.455 53.89 67.81 51.244 66.352 52.703" style="fill:#0097a7"/><path d="M91.623,75.058A64.85,64.85,0,0,0,78.14,46.205l1.7-1.7-5.218-5.218h0l-.776-.776-1.7,1.7.714.714A64.851,64.851,0,0,1,86.332,69.767Z" style="fill:#0097a7"/><rect x="27.479" y="40.211" width="9.349" height="76.645" transform="translate(64.949 0.266) rotate(45)" style="fill:#fb8c00"/><rect x="70.666" y="32.047" width="9.349" height="6.599" transform="translate(47.06 -42.921) rotate(45)" style="fill:#fb8c00"/><rect x="-4.099" y="78.856" width="76.645" height="3.494" transform="translate(-46.971 47.808) rotate(-45)" style="fill:#ef6c00"/><rect x="74.111" y="35.669" width="6.599" height="3.494" transform="translate(-3.784 65.696) rotate(-45)" style="fill:#ef6c00"/><path d="M70.473,48.575a1.743,1.743,0,0,1-1.237-.513l-6.61-6.611A1.75,1.75,0,0,1,65.1,38.977l6.61,6.611a1.75,1.75,0,0,1-1.237,2.987Z" style="fill:#0097a7"/><path d="M91.623,50.5a1.75,1.75,0,0,1-1.75-1.75V43.52a1.75,1.75,0,0,1,3.5,0v5.23A1.75,1.75,0,0,1,91.623,50.5Z" style="fill:#ffca90"/><path d="M91.623,50.5a1.75,1.75,0,0,1-1.75-1.75V43.52a1.75,1.75,0,0,1,3.5,0v5.23A1.75,1.75,0,0,1,91.623,50.5Z" style="fill:#ffca90"/><path d="M66.213,70a1.765,1.765,0,0,1-.454-.06l-5.053-1.354a1.75,1.75,0,1,1,.906-3.381l5.053,1.354A1.75,1.75,0,0,1,66.213,70Z" style="fill:#ffca90"/><path d="M65.315,76.808h-5.23a1.75,1.75,0,0,1,0-3.5h5.23a1.75,1.75,0,0,1,0,3.5Z" style="fill:#ffca90"/><path d="M61.158,84.971a1.75,1.75,0,0,1-.452-3.441l5.052-1.354a1.75,1.75,0,0,1,.906,3.381l-5.053,1.354A1.753,1.753,0,0,1,61.158,84.971Z" style="fill:#ffca90"/><path d="M104.775,54.025a1.751,1.751,0,0,1-1.514-2.625l2.615-4.53a1.75,1.75,0,0,1,3.031,1.75l-2.615,4.53A1.749,1.749,0,0,1,104.775,54.025Z" style="fill:#ffca90"/><path d="M98.434,51.4a1.751,1.751,0,0,1-1.691-2.2L98.1,44.141a1.75,1.75,0,1,1,3.381.905L100.123,50.1A1.751,1.751,0,0,1,98.434,51.4Z" style="fill:#ffca90"/><path d="M89.458,62.587H117.75a1.75,1.75,0,0,0,0-3.5H92.958Z" style="fill:#4c352e"/><path d="M56.414,95.962H88.083a1.75,1.75,0,0,0,0-3.5H58.333Z" style="fill:#4c352e"/><path d="M65.1,38.977a1.75,1.75,0,0,0-2.475,2.475l6.61,6.611a1.75,1.75,0,0,0,2.475-2.475Z" style="fill:#28201e"/><path d="M126.25,47.824h-6.4a1.75,1.75,0,0,0-1.237.513l-9,9H92.958a1.75,1.75,0,0,0-1.237.513l-2.763,2.763a66.832,66.832,0,0,0-8.475-14.276l.591-.591a1.749,1.749,0,0,0,0-2.475l-2.286-2.286,3.429-3.429a1.749,1.749,0,0,0,0-2.475l-6.61-6.611a1.8,1.8,0,0,0-2.475,0L69.7,31.9l-2.287-2.287a1.749,1.749,0,0,0-2.475,0l-.591.591A66.816,66.816,0,0,0,35.958,17.345,1.75,1.75,0,0,0,34.392,20.3l19.93,19.931-.22.221a1.75,1.75,0,0,0-.5,1.4l.53,5.621L42.676,58.926A1.75,1.75,0,0,0,45.15,61.4l10.8-10.8,4.135,4.135L8.36,106.461l-4.135-4.135L39.9,66.65a1.75,1.75,0,1,0-2.475-2.475L.513,101.089a1.749,1.749,0,0,0,0,2.475l6.61,6.61a1.749,1.749,0,0,0,2.475,0L63.211,56.56l5.622.53a1.746,1.746,0,0,0,1.4-.5l.221-.221L81.831,67.74l-2.818,2.817a1.75,1.75,0,0,0-.513,1.237V84.987l-5.725,5.725H58.333a1.75,1.75,0,0,0-1.535.909l-9,16.417a1.75,1.75,0,0,0,1.535,2.591H73.5a1.75,1.75,0,0,0,0-3.5H52.289L59.37,94.212H88.083a1.75,1.75,0,0,0,0-3.5H77.725l3.763-3.763A1.75,1.75,0,0,0,82,85.712V72.52l2.305-2.3,6.08,6.08a1.765,1.765,0,0,0,2.956-1.565,66.48,66.48,0,0,0-2.955-10.6l3.3-3.3H117.75a1.75,1.75,0,0,0,0-3.5h-3.192l6.013-6.013H124.5v55.8H87.333a1.75,1.75,0,0,0,0,3.5H126.25a1.75,1.75,0,0,0,1.75-1.75v-59.3A1.75,1.75,0,0,0,126.25,47.824ZM74.368,32.183,78.5,36.319,76.312,38.51l-4.136-4.135ZM70.455,52.14a1.75,1.75,0,0,0-1.237.513l-.876.876-4.993-.471-5.72-5.72-.471-4.993.876-.876a1.749,1.749,0,0,0,0-2.475L41.271,22.231A63.362,63.362,0,0,1,63.375,33.9a1.75,1.75,0,0,0,2.344-.118l.459-.458L77.361,44.509l-.459.459a1.749,1.749,0,0,0-.118,2.344A63.345,63.345,0,0,1,87.269,65.836c.092.255.191.508.28.765.323.931.629,1.868.908,2.814L71.692,52.652A1.75,1.75,0,0,0,70.455,52.14Z" style="fill:#28201e"/><path d="M81.333,107.128H79.5a1.75,1.75,0,0,0,0,3.5h1.833a1.75,1.75,0,0,0,0-3.5Z" style="fill:#28201e"/><path d="M91.623,50.5a1.75,1.75,0,0,0,1.75-1.75V43.52a1.75,1.75,0,0,0-3.5,0v5.23A1.75,1.75,0,0,0,91.623,50.5Z" style="fill:#28201e"/><path d="M66.665,66.559,61.612,65.2a1.75,1.75,0,1,0-.906,3.381l5.053,1.354a1.75,1.75,0,0,0,.906-3.381Z" style="fill:#28201e"/><path d="M58.335,75.058a1.75,1.75,0,0,0,1.75,1.75h5.23a1.75,1.75,0,0,0,0-3.5h-5.23A1.75,1.75,0,0,0,58.335,75.058Z" style="fill:#28201e"/><path d="M65.759,80.177,60.707,81.53a1.75,1.75,0,1,0,.905,3.381l5.053-1.354a1.75,1.75,0,0,0-.906-3.381Z" style="fill:#28201e"/><path d="M103.9,53.79a1.749,1.749,0,0,0,2.391-.641l2.615-4.53a1.75,1.75,0,0,0-3.031-1.75l-2.615,4.53A1.75,1.75,0,0,0,103.9,53.79Z" style="fill:#28201e"/><path d="M97.979,51.337a1.748,1.748,0,0,0,2.144-1.238l1.354-5.053a1.75,1.75,0,1,0-3.381-.905l-1.354,5.053A1.75,1.75,0,0,0,97.979,51.337Z" style="fill:#28201e"/></svg>