<svg id="Layer_2" data-name="Layer 2" xmlns="http://www.w3.org/2000/svg" viewBox="0 0 128 128"><title>MONEY</title><rect x="1.75" y="30.5" width="124.5" height="67" style="fill:#00acc1"/><path d="M118,75.167V52.833a13.5,13.5,0,0,1-13.5-13.5h-81A13.5,13.5,0,0,1,10,52.833V75.167a13.5,13.5,0,0,1,13.5,13.5h81A13.5,13.5,0,0,1,118,75.167Z" style="fill:#0097a7"/><circle cx="64" cy="64" r="24.667" style="fill:#ffca90"/><path d="M64,39.333c-.674,0-1.34.035-2,.088a24.66,24.66,0,0,1,0,49.158c.66.053,1.326.088,2,.088a24.667,24.667,0,0,0,0-49.333Z" style="fill:#dda976"/><path d="M66.914,62.25H61.086a2.329,2.329,0,1,1,0-4.657h9.906a1.75,1.75,0,0,0,0-3.5H65.75V49.271a1.75,1.75,0,0,0-3.5,0v4.822H61.086a5.829,5.829,0,1,0,0,11.657h5.827a2.329,2.329,0,1,1,0,4.657H57.008a1.75,1.75,0,0,0,0,3.5H62.25v4.822a1.75,1.75,0,0,0,3.5,0V73.907h1.164a5.829,5.829,0,1,0,0-11.657Z" style="fill:#00acc1"/><path d="M126.25,28.75H37.333a1.75,1.75,0,0,0,0,3.5H124.5v63.5H3.5V32.25h14a1.75,1.75,0,0,0,0-3.5H1.75A1.75,1.75,0,0,0,0,30.5v67a1.75,1.75,0,0,0,1.75,1.75h124.5A1.75,1.75,0,0,0,128,97.5v-67A1.75,1.75,0,0,0,126.25,28.75Z" style="fill:#28201e"/><path d="M26.5,32.25h1.833a1.75,1.75,0,0,0,0-3.5H26.5a1.75,1.75,0,0,0,0,3.5Z" style="fill:#28201e"/><path d="M66.914,70.407H57.008a1.75,1.75,0,0,0,0,3.5H62.25v4.822a1.75,1.75,0,0,0,3.5,0V73.907h1.164a5.829,5.829,0,1,0,0-11.657H61.086a2.329,2.329,0,1,1,0-4.657h9.906a1.75,1.75,0,0,0,0-3.5H65.75V49.271a1.75,1.75,0,0,0-3.5,0v4.822H61.086a5.829,5.829,0,1,0,0,11.657h5.827a2.329,2.329,0,1,1,0,4.657Z" style="fill:#28201e"/><path d="M10,51.083a1.75,1.75,0,0,0-1.75,1.75V75.167A1.75,1.75,0,0,0,10,76.917a11.764,11.764,0,0,1,11.75,11.75,1.75,1.75,0,0,0,1.75,1.75h81a1.75,1.75,0,0,0,1.75-1.75A11.764,11.764,0,0,1,118,76.917a1.75,1.75,0,0,0,1.75-1.75V67a1.75,1.75,0,0,0-3.5,0v6.517a15.281,15.281,0,0,0-13.4,13.4H77.114a26.392,26.392,0,0,0,0-45.834H102.85a15.281,15.281,0,0,0,13.4,13.4v2.392a1.75,1.75,0,0,0,3.5,0V52.833a1.75,1.75,0,0,0-1.75-1.75,11.764,11.764,0,0,1-11.75-11.75,1.75,1.75,0,0,0-1.75-1.75h-81a1.75,1.75,0,0,0-1.75,1.75A11.764,11.764,0,0,1,10,51.083ZM86.917,64A22.917,22.917,0,1,1,64,41.083,22.943,22.943,0,0,1,86.917,64ZM25.15,41.083H50.886a26.392,26.392,0,0,0,0,45.834H25.15a15.281,15.281,0,0,0-13.4-13.4V54.483A15.281,15.281,0,0,0,25.15,41.083Z" style="fill:#28201e"/></svg>