<svg id="Layer_2" data-name="Layer 2" xmlns="http://www.w3.org/2000/svg" viewBox="0 0 128 128"><title>REFINERY</title><path d="M104.521,51.392a1.75,1.75,0,0,0,1.75-1.75V33.871a1.75,1.75,0,0,0-3.5,0V49.642A1.75,1.75,0,0,0,104.521,51.392Z" style="fill:#5d4037"/><path d="M118.5,80.238,106.271,64.055V56.184a1.75,1.75,0,0,0-3.5,0v7.88L90.65,80.4a1.75,1.75,0,0,0,2.811,2.086l11.072-14.921L115.7,82.347a1.75,1.75,0,0,0,2.793-2.109Z" style="fill:#5d4037"/><rect x="76.25" y="24.996" width="50" height="8.875" style="fill:#fb8c00"/><path d="M76.25,25v3h41.128a5.87,5.87,0,0,1,5.87,5.87v0h3V25Z" style="fill:#ef6c00"/><rect x="30" y="24.996" width="21.75" height="8.875" style="fill:#fb8c00"/><path d="M30,25v3H41.877a5.87,5.87,0,0,1,5.87,5.87v0h4V25Z" style="fill:#ef6c00"/><rect x="1.75" y="106.612" width="124.5" height="11.559" style="fill:#5d4037"/><path d="M1.75,106.612v4h114.5a6,6,0,0,1,6,6v1.555h4V106.612Z" style="fill:#4c352e"/><rect x="51.75" y="15.871" width="24.5" height="90.741" style="fill:#5d4037"/><rect x="51.75" y="15.871" width="24.5" height="9.125" style="fill:#00acc1"/><rect x="51.75" y="33.871" width="24.5" height="24.5" style="fill:#00acc1"/><polygon points="19.992 76.913 11.758 76.913 1.75 63.387 1.75 9.829 30 9.829 30 63.387 19.992 76.913" style="fill:#00acc1"/><polygon points="24.996 9.829 24.996 63.237 14.988 75.714 10.871 75.714 11.758 76.913 19.992 76.913 30 63.387 30 9.829 24.996 9.829" style="fill:#0097a7"/><rect x="1.75" y="9.829" width="28.25" height="7.417" style="fill:#5d4037"/><rect x="1.75" y="55.579" width="28.25" height="7.417" style="fill:#ffca90"/><rect x="24.996" y="55.579" width="5.004" height="7.417" style="fill:#dda976"/><rect x="89" y="80.163" width="31.25" height="26.449" style="fill:#00acc1"/><path d="M89,80.163v3h21.247a6,6,0,0,1,6,6v17.447h4V80.163Z" style="fill:#0097a7"/><rect x="89" y="98.413" width="31.25" height="8.199" style="fill:#fb8c00"/><rect x="116.247" y="98.413" width="4.003" height="8.199" style="fill:#ef6c00"/><rect x="101.25" y="49.642" width="6.542" height="6.542" rx="3.271" ry="3.271" style="fill:#00acc1"/><path d="M102.792,15.413h3.458a3,3,0,0,1,3,3V25a0,0,0,0,1,0,0H99.792a0,0,0,0,1,0,0V18.413A3,3,0,0,1,102.792,15.413Z" style="fill:#ffca90"/><polygon points="76.25 55.896 66.475 46.121 76.25 36.346 76.25 33.871 73.776 33.871 64 43.646 54.224 33.871 51.75 33.871 51.75 36.346 61.525 46.121 51.75 55.896 51.75 58.371 54.225 58.371 64 48.596 73.775 58.371 76.25 58.371 76.25 55.896" style="fill:#ffca90"/><rect x="51.75" y="82.112" width="24.5" height="24.5" style="fill:#00acc1"/><polygon points="76.25 104.137 66.475 94.362 76.25 84.586 76.25 82.112 73.775 82.112 64 91.887 54.225 82.112 51.75 82.112 51.75 84.586 61.525 94.362 51.75 104.137 51.75 106.612 54.224 106.612 64 96.836 73.776 106.612 76.25 106.612 76.25 104.137" style="fill:#ffca90"/><rect x="24.996" y="9.829" width="5.004" height="7.417" style="fill:#4c352e"/><path d="M26.833,116.421h-3a1.75,1.75,0,1,0,0,3.5h3a1.75,1.75,0,0,0,0-3.5Z" style="fill:#28201e"/><path d="M126.25,35.621a1.75,1.75,0,0,0,1.75-1.75V25a1.75,1.75,0,0,0-1.75-1.75H111V18.413a4.755,4.755,0,0,0-4.75-4.75h-3.458a4.755,4.755,0,0,0-4.75,4.75v4.833H78V15.871a1.75,1.75,0,0,0-1.75-1.75H51.75A1.75,1.75,0,0,0,50,15.871v7.375H31.75V9.829A1.75,1.75,0,0,0,30,8.079H1.75A1.75,1.75,0,0,0,0,9.829V63.387a1.751,1.751,0,0,0,.343,1.041L10.351,77.954a1.752,1.752,0,0,0,1.407.709h8.234a1.752,1.752,0,0,0,1.407-.709L31.407,64.428a1.751,1.751,0,0,0,.343-1.041V35.621H50v69.241H1.75A1.75,1.75,0,0,0,0,106.612v11.559a1.75,1.75,0,0,0,1.75,1.75H15.167a1.75,1.75,0,0,0,0-3.5H3.5v-8.059h121v8.059h-89a1.75,1.75,0,0,0,0,3.5h90.75a1.75,1.75,0,0,0,1.75-1.75V106.612a1.75,1.75,0,0,0-1.75-1.75H122v-24.7a1.75,1.75,0,0,0-1.75-1.75h-3.131L106.271,64.054V57.6a5,5,0,0,0,0-9.378v-12.6ZM101.542,18.413a1.251,1.251,0,0,1,1.25-1.25h3.458a1.251,1.251,0,0,1,1.25,1.25v4.833h-5.958ZM74.5,60.121V80.362h-21V60.121Zm-18.525-3.5L64,48.6l8.025,8.025ZM72.025,83.862,64,91.887l-8.025-8.025ZM74.5,86.336v16.051l-8.025-8.025ZM66.475,46.121,74.5,38.1V54.146ZM64,43.646l-8.025-8.025H72.025ZM74.5,32.121h-21V26.746h21Zm-12.975,14L53.5,54.146V38.1Zm0,48.241L53.5,102.387V86.336ZM64,96.836l8.025,8.025H55.975ZM53.5,17.621h21v5.625h-21ZM28.25,61.246H3.5V57.329H28.25ZM3.5,53.829V19H28.25V53.829Zm0-42.25H28.25V15.5H3.5ZM19.11,75.163H12.64L4.932,64.746H26.818ZM31.75,26.746H50v5.375H31.75Zm59,78.116v-4.7H118.5v4.7Zm27.75-8.2H90.75V81.913H118.5ZM96.481,78.413l8.052-10.851,8.2,10.851Zm9.561-25.5a1.521,1.521,0,1,1-1.521-1.521A1.523,1.523,0,0,1,106.042,52.913Zm-3.271-4.689a5,5,0,0,0,0,9.378v6.462L92.122,78.413H89a1.75,1.75,0,0,0-1.75,1.75v24.7H78V35.621h8.167a1.75,1.75,0,0,0,0-3.5H78V26.746h46.5v5.375H95.333a1.75,1.75,0,0,0,0,3.5h7.437Z" style="fill:#28201e"/></svg>