<svg id="Layer_2" data-name="Layer 2" xmlns="http://www.w3.org/2000/svg" viewBox="0 0 128 128"><title>SHOVEL</title><path d="M4.222,123.973l-.148-.047-.047-.148A47.838,47.838,0,0,1,15.763,75.37L22.437,68.7,59.3,105.563l-6.674,6.674A47.838,47.838,0,0,1,4.222,123.973Z" style="fill:#00acc1"/><path d="M55.053,101.312l-6.674,6.674A47.839,47.839,0,0,1,3.134,120.615q.391,1.589.893,3.163l.047.148.148.047A47.838,47.838,0,0,0,52.63,112.237l6.674-6.674Z" style="fill:#0097a7"/><path d="M95.385,1.75,82.953,14.182l.964,18.112L95.707,44.083l18.112.964L126.25,32.615Zm15.107,34.62-11.084-.59L92.22,28.593l-.59-11.085,3.755-3.755,18.862,18.862Z" style="fill:#5d4037"/><polygon points="123.625 29.99 111.193 42.422 93.082 41.458 95.707 44.083 113.818 45.047 126.25 32.615 123.625 29.99" style="fill:#4c352e"/><polygon points="96.782 33.156 92.22 28.593 91.629 17.508 95.385 13.753 111.622 29.99 111.622 29.99 92.76 11.128 89.004 14.883 89.595 25.968 96.782 33.156 96.782 33.156" style="fill:#4c352e"/><rect x="57.005" y="28.052" width="16.672" height="69.214" transform="translate(63.445 -27.851) rotate(45)" style="fill:#fb8c00"/><polygon points="38.262 101.526 27.545 100.455 26.474 89.738 34.976 81.235 46.765 93.024 38.262 101.526" style="fill:#ffca90"/><rect x="34.524" y="63.473" width="69.214" height="5.952" transform="translate(-26.739 68.345) rotate(-45)" style="fill:#ef6c00"/><polygon points="42.556 88.815 34.053 97.318 27.163 96.628 27.545 100.455 38.262 101.526 46.765 93.024 42.556 88.815" style="fill:#dda976"/><path d="M127.487,31.378l-15.56-15.56a1.75,1.75,0,0,0-2.475,2.475l14.322,14.322L113.132,43.258,96.47,42.371l-7.277-7.276-3.564-3.564-.887-16.664L95.385,4.225l6.313,6.313a1.75,1.75,0,0,0,2.475-2.475L96.622.513a1.749,1.749,0,0,0-2.475,0L81.715,12.944a1.75,1.75,0,0,0-.51,1.33l.923,17.334L66.2,47.535a1.75,1.75,0,1,0,2.475,2.475L83.917,34.769l4.657,4.657,4.657,4.657L46.765,90.55l-9.314-9.314,16-16a1.75,1.75,0,0,0-2.475-2.475l-16,16-11.3-11.3a1.749,1.749,0,0,0-2.475,0l-6.674,6.674a49.4,49.4,0,0,0-12.164,50.18l.047.147a1.751,1.751,0,0,0,1.126,1.13l.147.047.007,0a49.425,49.425,0,0,0,50.178-12.165l6.674-6.674a1.749,1.749,0,0,0,0-2.475l-11.3-11.3L96.392,45.872l17.333.922.093,0a1.75,1.75,0,0,0,1.237-.513l12.432-12.432A1.749,1.749,0,0,0,127.487,31.378ZM44.29,93.024,37.611,99.7l-8.467-.846L28.3,90.389l6.678-6.679,4.657,4.657ZM51.392,111a45.912,45.912,0,0,1-45.92,11.528A45.906,45.906,0,0,1,17,76.607l5.437-5.437L32.5,81.235,25.236,88.5a1.749,1.749,0,0,0-.5,1.411L25.8,100.629a1.75,1.75,0,0,0,1.567,1.567l10.717,1.071a1.747,1.747,0,0,0,1.411-.5L46.764,95.5l10.064,10.064Z" style="fill:#28201e"/><path d="M94.147,12.516l-3.755,3.756a1.75,1.75,0,0,0-.51,1.33l.59,11.084a1.749,1.749,0,0,0,.51,1.145l7.188,7.187a1.745,1.745,0,0,0,1.145.51l11.084.59.093,0a1.75,1.75,0,0,0,1.237-.513l3.755-3.755a1.749,1.749,0,0,0,0-2.475L96.622,12.516A1.8,1.8,0,0,0,94.147,12.516Zm15.658,22.065-9.635-.513L93.932,27.83l-.513-9.636,1.966-1.967,16.387,16.388Z" style="fill:#28201e"/><path d="M58.753,59.208A1.744,1.744,0,0,0,59.99,58.7l2.145-2.145a1.75,1.75,0,0,0-2.475-2.475l-2.145,2.145a1.75,1.75,0,0,0,1.237,2.987Z" style="fill:#28201e"/></svg>