<svg id="Layer_2" data-name="Layer 2" xmlns="http://www.w3.org/2000/svg" viewBox="0 0 128 128"><title>TORCH</title><polygon points="92.25 52.128 35.75 52.128 25.75 41.189 102.25 41.189 92.25 52.128" style="fill:#5d4037"/><path d="M25.75,41.189l2.745,3H85.625a4.239,4.239,0,0,1,3.129,7.1l-.765.837H92.25l10-10.939Z" style="fill:#4c352e"/><path d="M43.9,41.189l-1.136-2.506a16.085,16.085,0,0,1,3.322-18.058h0A16.085,16.085,0,0,0,49.3,2.35l-.283-.6L57.35,6.825A21.272,21.272,0,0,1,67.02,20.26l1.252,5.49h0A21.272,21.272,0,0,0,70.807,4.8l-.285-.677L78.764,10.7A21.024,21.024,0,0,1,85.945,21.65h0a21.024,21.024,0,0,1-1.1,14.059L82.4,41.189Z" style="fill:#ffca90"/><path d="M50.574,6.352,55.85,9.567A21.272,21.272,0,0,1,65.52,23l1.252,5.49a21.248,21.248,0,0,0,2.271-3.853q-.367.565-.771,1.111L67.02,20.26A21.272,21.272,0,0,0,57.35,6.825L49.022,1.75l.283.6A16.053,16.053,0,0,1,50.574,6.352Z" style="fill:#dda976"/><path d="M85.945,21.65h0A21.024,21.024,0,0,0,78.764,10.7L70.522,4.125l.285.677a21.241,21.241,0,0,1,1.332,4.553l5.124,4.09a21.024,21.024,0,0,1,6.081,25.006l-1.223,2.738H82.4l2.448-5.48A21.024,21.024,0,0,0,85.945,21.65Z" style="fill:#dda976"/><path d="M39.25,52.128h49.5a0,0,0,0,1,0,0v5.247a4,4,0,0,1-4,4H43.25a4,4,0,0,1-4-4V52.128A0,0,0,0,1,39.25,52.128Z" style="fill:#fb8c00"/><path d="M39.25,52.128v3H81.508a4.239,4.239,0,0,1,4.239,4.239v1.007a3.986,3.986,0,0,1-.107.89,4,4,0,0,0,3.11-3.893V52.128Z" style="fill:#ef6c00"/><polygon points="68.417 126.25 59.583 126.25 44.583 61.375 83.417 61.375 68.417 126.25" style="fill:#00acc1"/><path d="M81.521,69.572l1.9-8.2H44.583l.694,3h28.8a4.239,4.239,0,0,1,4.13,5.194H46.479l.809,3.5H77.4l-12.3,53.178h3.309L81.229,70.838l.293-1.266Z" style="fill:#0097a7"/><path d="M103.852,40.484a1.751,1.751,0,0,0-1.6-1.044H85.1l1.347-3.017A22.87,22.87,0,0,0,87.654,33a1.75,1.75,0,1,0-3.381-.9A19.436,19.436,0,0,1,83.247,35l-1.984,4.444H45.026l-.67-1.479a14.4,14.4,0,0,1,2.96-16.093,17.876,17.876,0,0,0,4.937-16.1l4.186,2.551a19.631,19.631,0,0,1,8.875,12.33l1.252,5.49a1.75,1.75,0,0,0,3.11.655A23.132,23.132,0,0,0,73.864,9.031l3.808,3.04a19.138,19.138,0,0,1,6.583,10.035,1.75,1.75,0,0,0,3.379-.913A22.62,22.62,0,0,0,79.855,9.335L71.614,2.757A1.75,1.75,0,0,0,68.909,4.8l.285.677A19.612,19.612,0,0,1,69,21.068l-.273-1.2A23.15,23.15,0,0,0,58.261,5.33L49.933.255A1.75,1.75,0,0,0,47.439,2.5l.283.6a14.362,14.362,0,0,1-2.871,16.288,17.909,17.909,0,0,0-3.684,20.022l.016.034H25.75a1.75,1.75,0,0,0-1.292,2.931l10,10.939a1.75,1.75,0,0,0,1.292.569H37.5v3.5a5.755,5.755,0,0,0,5.691,5.747l14.687,63.522A1.75,1.75,0,0,0,59.583,128h8.833a1.75,1.75,0,0,0,1.705-1.356L84.809,63.122A5.755,5.755,0,0,0,90.5,57.375v-3.5h1.75a1.751,1.751,0,0,0,1.292-.569l10-10.939A1.751,1.751,0,0,0,103.852,40.484ZM67.025,124.5h-6.05L49.084,73.072H56a1.75,1.75,0,0,0,0-3.5H48.275l-1.491-6.447H81.216l-1.491,6.447H71.75a1.75,1.75,0,0,0,0,3.5h7.166ZM87,57.375a2.253,2.253,0,0,1-2.25,2.25H43.25A2.252,2.252,0,0,1,41,57.375v-3.5H87Zm4.479-7H36.521l-6.8-7.439H98.279Z" style="fill:#28201e"/><path d="M65.75,69.572H62a1.75,1.75,0,0,0,0,3.5H65.75a1.75,1.75,0,0,0,0-3.5Z" style="fill:#28201e"/></svg>