<svg id="Layer_2" data-name="Layer 2" xmlns="http://www.w3.org/2000/svg" viewBox="0 0 128 128"><title>TRADE</title><rect x="44.734" y="68.286" width="81.5" height="43.859" style="fill:#00acc1"/><path d="M118.249,97.525V82.905a8.837,8.837,0,0,1-8.837-8.837H61.557a8.837,8.837,0,0,1-8.837,8.837v14.62a8.837,8.837,0,0,1,8.837,8.837h47.854A8.837,8.837,0,0,1,118.249,97.525Z" style="fill:#0097a7"/><circle cx="85.484" cy="90.215" r="16.147" style="fill:#ffca90"/><path d="M85.484,74.068c-.506,0-1.005.03-1.5.076a16.141,16.141,0,0,1,0,32.143c.495.046.994.076,1.5.076a16.147,16.147,0,0,0,0-32.295Z" style="fill:#dda976"/><polygon points="43.245 51.869 1.766 51.869 8.436 33.862 36.575 33.862 43.245 51.869" style="fill:#fb8c00"/><polygon points="84.724 51.869 43.245 51.869 49.915 33.862 78.054 33.862 84.724 51.869" style="fill:#fb8c00"/><path d="M87.392,88.465H83.577a.92.92,0,1,1,0-1.84h6.484a1.75,1.75,0,0,0,0-3.5H87.234V80.573a1.75,1.75,0,0,0-3.5,0v2.552h-.157a4.42,4.42,0,1,0,0,8.84h3.814a.92.92,0,0,1,0,1.841H80.907a1.75,1.75,0,0,0,0,3.5h2.827v2.552a1.75,1.75,0,1,0,3.5,0V97.306h.157a4.42,4.42,0,0,0,0-8.841Z" style="fill:#00acc1"/><polygon points="63.953 33.862 22.474 33.862 29.144 15.855 57.283 15.855 63.953 33.862" style="fill:#fb8c00"/><path d="M54.734,23.771l3.738,10.091h5.482l-6.67-18.007H29.144l-1.482,4H49.107A6,6,0,0,1,54.734,23.771Z" style="fill:#ef6c00"/><path d="M75.5,41.778l3.738,10.091h5.482l-6.67-18.007H49.915l-1.482,4H69.878A6,6,0,0,1,75.5,41.778Z" style="fill:#ef6c00"/><path d="M34.025,41.778l3.738,10.091h5.482l-6.67-18.007H8.436l-1.482,4H28.4A6,6,0,0,1,34.025,41.778Z" style="fill:#ef6c00"/><path d="M120.151,37.333a19.667,19.667,0,0,0-19.667-19.667h-3.75L103,25.948a18.875,18.875,0,0,1,3.82,11.385h-6.083l12,14.674h1.5l12-14.674Z" style="fill:#5d4037"/><path d="M7.849,87.719a19.667,19.667,0,0,0,19.667,19.667h3.75L25,99.1a18.875,18.875,0,0,1-3.82-11.385h6.083l-12-14.674h-1.5l-12,14.674Z" style="fill:#5d4037"/><path d="M1.766,53.619h7.9a1.75,1.75,0,1,0,0-3.5H4.28L9.653,35.612h25.7L40.73,50.119H22.475a1.75,1.75,0,1,0,0,3.5H84.724a1.749,1.749,0,0,0,1.641-2.357l-6.67-18.007a1.749,1.749,0,0,0-1.641-1.143H65.171L58.924,15.248a1.749,1.749,0,0,0-1.641-1.143H29.144A1.749,1.749,0,0,0,27.5,15.248L21.256,32.112H8.436a1.749,1.749,0,0,0-1.641,1.143L.125,51.262a1.749,1.749,0,0,0,1.641,2.357ZM39.089,35.612H47.4l-4.156,11.22Zm43.12,14.507H45.76l5.373-14.507h25.7ZM30.361,17.605h25.7l5.373,14.507H24.988Z" style="fill:#28201e"/><path d="M126.234,66.535h-14.75a1.75,1.75,0,0,0,0,3.5h13v40.359h-78V70.035H94a1.75,1.75,0,0,0,0-3.5H44.734a1.75,1.75,0,0,0-1.75,1.75v43.859a1.75,1.75,0,0,0,1.75,1.75h81.5a1.75,1.75,0,0,0,1.75-1.75V68.285A1.75,1.75,0,0,0,126.234,66.535Z" style="fill:#28201e"/><path d="M104.333,70.035a1.75,1.75,0,1,0,0-3.5H101.15a1.75,1.75,0,0,0,0,3.5Z" style="fill:#28201e"/><path d="M87.392,93.806H80.907a1.75,1.75,0,0,0,0,3.5h2.827v2.552a1.75,1.75,0,1,0,3.5,0V97.306h.157a4.42,4.42,0,0,0,0-8.841H83.577a.92.92,0,1,1,0-1.84h6.484a1.75,1.75,0,0,0,0-3.5H87.234V80.573a1.75,1.75,0,0,0-3.5,0v2.552h-.157a4.42,4.42,0,1,0,0,8.84h3.814a.92.92,0,0,1,0,1.841Z" style="fill:#28201e"/><path d="M61.558,72.318a1.75,1.75,0,0,0-1.75,1.75,7.1,7.1,0,0,1-7.088,7.087,1.75,1.75,0,0,0-1.75,1.75v14.62a1.75,1.75,0,0,0,1.75,1.75,7.1,7.1,0,0,1,7.088,7.087,1.75,1.75,0,0,0,1.75,1.75h47.854a1.75,1.75,0,0,0,1.75-1.75,7.1,7.1,0,0,1,7.088-7.087,1.75,1.75,0,0,0,1.75-1.75V82.905a1.75,1.75,0,0,0-1.75-1.75,7.1,7.1,0,0,1-7.088-7.087,1.75,1.75,0,0,0-1.75-1.75Zm38.324,17.9a14.4,14.4,0,1,1-14.4-14.4A14.414,14.414,0,0,1,99.882,90.215Zm-36.719,14.4A10.615,10.615,0,0,0,54.47,95.92V84.511a10.615,10.615,0,0,0,8.693-8.692H74.9a17.832,17.832,0,0,0,0,28.794Zm44.643-28.794a10.615,10.615,0,0,0,8.693,8.692V95.92a10.615,10.615,0,0,0-8.693,8.692H96.071a17.832,17.832,0,0,0,0-28.794Z" style="fill:#28201e"/><path d="M101.6,27a17.254,17.254,0,0,1,3.374,8.579h-4.242A1.75,1.75,0,0,0,99.38,38.44l12,14.674a1.746,1.746,0,0,0,1.354.643h1.5a1.746,1.746,0,0,0,1.354-.643l12-14.674a1.75,1.75,0,0,0-1.354-2.857h-4.4a21.444,21.444,0,0,0-21.346-19.666h-3.75a1.75,1.75,0,0,0-1.4,2.806Zm-1.118-7.587A17.937,17.937,0,0,1,118.4,37.333a1.75,1.75,0,0,0,1.75,1.75h2.392l-9.059,11.076-9.059-11.076h2.392a1.75,1.75,0,0,0,1.75-1.75,20.749,20.749,0,0,0-4.174-12.44l-4.142-5.476Z" style="fill:#28201e"/><path d="M26.4,98.048a17.245,17.245,0,0,1-3.374-8.579h4.242a1.75,1.75,0,0,0,1.354-2.857l-12-14.674a1.746,1.746,0,0,0-1.354-.643h-1.5a1.746,1.746,0,0,0-1.354.643l-12,14.674a1.75,1.75,0,0,0,1.354,2.857h4.4a21.445,21.445,0,0,0,21.346,19.667h3.75a1.75,1.75,0,0,0,1.4-2.806Zm1.118,7.588A17.937,17.937,0,0,1,9.6,87.719a1.75,1.75,0,0,0-1.75-1.75H5.457l9.059-11.076,9.059,11.076H21.183a1.75,1.75,0,0,0-1.75,1.75,20.745,20.745,0,0,0,4.174,12.44l4.142,5.477Z" style="fill:#28201e"/></svg>