<svg id="Layer_2" data-name="Layer 2" xmlns="http://www.w3.org/2000/svg" viewBox="0 0 128 128"><title>TUNNEL</title><path d="M64,11.75A52.308,52.308,0,0,0,11.752,63.909V126.25H116.247V63.885A52.308,52.308,0,0,0,64,11.75Z" style="fill:#ffca90"/><path d="M64,11.75c-.838,0-1.671.024-2.5.063a52.311,52.311,0,0,1,49.746,52.071V126.25h5V63.885A52.308,52.308,0,0,0,64,11.75Z" style="fill:#dda976"/><path d="M126.25,64v62.25h-10V64c0-.21,0-.41-.01-.62a51.785,51.785,0,0,0-1.34-11.21c-.27-1.14-.57-2.27-.91-3.38a52.247,52.247,0,0,0-3.9-9.38c-.55-1.04-1.14-2.05-1.76-3.03a52.119,52.119,0,0,0-6.18-8.05c-.8-.85-1.63-1.68-2.48-2.48a52.808,52.808,0,0,0-8.05-6.19c-.98-.61-1.99-1.2-3.03-1.75a52.249,52.249,0,0,0-9.38-3.9c-1.11-.34-2.24-.64-3.39-.91a50.654,50.654,0,0,0-10.07-1.31c-.58-.03-1.16-.04-1.75-.04s-1.17.01-1.75.04A50.754,50.754,0,0,0,52.17,13.1c-1.14.27-2.26.57-3.37.91a51.332,51.332,0,0,0-9.39,3.9c-1.04.55-2.05,1.14-3.03,1.75a52.808,52.808,0,0,0-8.05,6.19c-.85.8-1.68,1.63-2.48,2.48a52.811,52.811,0,0,0-6.19,8.05c-.61.98-1.2,1.99-1.75,3.03a51.331,51.331,0,0,0-3.9,9.39c-.34,1.11-.65,2.24-.91,3.38a51.618,51.618,0,0,0-1.34,11.2c-.01.21-.01.41-.01.62v62.25h-10V64c0-.21,0-.41.01-.62a62.125,62.125,0,0,1,1.67-13.8c.27-1.14.57-2.27.91-3.38A60.864,60.864,0,0,1,9.23,34.4c.55-1.03,1.14-2.04,1.75-3.03a61.8,61.8,0,0,1,7.78-10.13c.8-.85,1.63-1.68,2.48-2.48a61.8,61.8,0,0,1,10.13-7.78c.99-.61,2-1.2,3.03-1.76A61.46,61.46,0,0,1,46.2,4.34c1.11-.34,2.24-.64,3.38-.91A61.466,61.466,0,0,1,62.25,1.78c.58-.02,1.17-.03,1.75-.03s1.17.01,1.75.03A61.458,61.458,0,0,1,78.41,3.43c1.14.27,2.27.57,3.39.91A60.6,60.6,0,0,1,93.6,9.23h.01c1.03.56,2.03,1.14,3.02,1.75a61.8,61.8,0,0,1,10.13,7.78c.85.8,1.68,1.63,2.48,2.48a61.8,61.8,0,0,1,7.78,10.13c.61.99,1.19,1.99,1.75,3.02a60.693,60.693,0,0,1,4.89,11.81c.34,1.11.64,2.24.91,3.38a62.125,62.125,0,0,1,1.67,13.8C126.25,63.59,126.25,63.79,126.25,64Z" style="fill:#00acc1"/><path d="M64,38.333h0A24.946,24.946,0,0,1,88.946,63.279V97.833a0,0,0,0,1,0,0H39.054a0,0,0,0,1,0,0V63.279A24.946,24.946,0,0,1,64,38.333Z" style="fill:#5d4037"/><path d="M64,38.333c-.674,0-1.34.034-2,.087A24.943,24.943,0,0,1,84.946,63.279V97.833h4V63.279A24.946,24.946,0,0,0,64,38.333Z" style="fill:#4c352e"/><polygon points="88.946 97.833 116.247 126.25 11.75 126.25 39.054 97.833 88.946 97.833" style="fill:#fb8c00"/><polygon points="88.946 97.833 84.969 97.833 112.27 126.25 116.247 126.25 88.946 97.833" style="fill:#ef6c00"/><rect x="116.25" y="113.38" width="10" height="3.5" style="fill:#0097a7"/><rect x="116.25" y="100.88" width="10" height="3.5" style="fill:#0097a7"/><rect x="116.25" y="88.38" width="10" height="3.5" style="fill:#0097a7"/><rect x="116.25" y="75.88" width="10" height="3.5" style="fill:#0097a7"/><path d="M126.25,64v2.88h-10V64c0-.21,0-.41-.01-.62h10C126.25,63.59,126.25,63.79,126.25,64Z" style="fill:#0097a7"/><rect x="1.75" y="113.38" width="10" height="3.5" style="fill:#0097a7"/><rect x="1.75" y="100.88" width="10" height="3.5" style="fill:#0097a7"/><rect x="1.75" y="88.38" width="10" height="3.5" style="fill:#0097a7"/><rect x="1.75" y="75.88" width="10" height="3.5" style="fill:#0097a7"/><path d="M11.76,63.38c-.01.21-.01.41-.01.62v2.88h-10V64c0-.21,0-.41.01-.62Z" style="fill:#0097a7"/><path d="M65.75,1.78V11.79c-.58-.03-1.16-.04-1.75-.04s-1.17.01-1.75.04V1.78c.58-.02,1.17-.03,1.75-.03S65.17,1.76,65.75,1.78Z" style="fill:#0097a7"/><path d="M65.75,1.78V11.79c-.58-.03-1.16-.04-1.75-.04s-1.17.01-1.75.04V1.78c.58-.02,1.17-.03,1.75-.03S65.17,1.76,65.75,1.78Z" style="fill:#0097a7"/><path d="M52.17,13.1c-1.14.27-2.26.57-3.37.91L46.2,4.34c1.11-.34,2.24-.64,3.38-.91Z" style="fill:#0097a7"/><path d="M39.41,17.91c-1.04.55-2.05,1.14-3.03,1.75l-5.01-8.68c.99-.61,2-1.2,3.03-1.76Z" style="fill:#0097a7"/><path d="M28.33,25.85c-.85.8-1.68,1.63-2.48,2.48l-7.09-7.09c.8-.85,1.63-1.68,2.48-2.48Z" style="fill:#0097a7"/><path d="M19.66,36.38c-.61.98-1.2,1.99-1.75,3.03L9.23,34.4c.55-1.03,1.14-2.04,1.75-3.03Z" style="fill:#0097a7"/><path d="M14.01,48.8c-.34,1.11-.65,2.24-.91,3.38l-9.67-2.6c.27-1.14.57-2.27.91-3.38Z" style="fill:#0097a7"/><path d="M81.8,4.34l-2.59,9.67c-1.11-.34-2.24-.64-3.39-.91l2.59-9.67C79.55,3.7,80.68,4,81.8,4.34Z" style="fill:#0097a7"/><path d="M96.63,10.98l-5.01,8.68c-.98-.61-1.99-1.2-3.03-1.75L93.6,9.23h.01C94.64,9.79,95.64,10.37,96.63,10.98Z" style="fill:#0097a7"/><path d="M109.24,21.24l-7.09,7.09c-.8-.85-1.63-1.68-2.48-2.48l7.09-7.09C107.61,19.56,108.44,20.39,109.24,21.24Z" style="fill:#0097a7"/><path d="M118.77,34.39l-8.68,5.02c-.55-1.04-1.14-2.05-1.76-3.03l8.69-5.01C117.63,32.36,118.21,33.36,118.77,34.39Z" style="fill:#0097a7"/><path d="M124.57,49.58l-9.67,2.59c-.27-1.14-.57-2.27-.91-3.38l9.67-2.59C124,47.31,124.3,48.44,124.57,49.58Z" style="fill:#0097a7"/><path d="M125.826,47.478c0-.014,0-.029-.007-.043s-.015-.036-.021-.056a63.594,63.594,0,0,0-6.244-15.094,1.535,1.535,0,0,0-.306-.532,64.392,64.392,0,0,0-9.764-12.725,1.724,1.724,0,0,0-.512-.512A64.4,64.4,0,0,0,96.248,8.753a1.538,1.538,0,0,0-.533-.307A63.593,63.593,0,0,0,80.62,2.2c-.019-.006-.036-.016-.055-.021s-.029,0-.044-.007a63.875,63.875,0,0,0-33.042,0c-.014,0-.029,0-.043.007S47.4,2.2,47.38,2.2a63.594,63.594,0,0,0-15.1,6.245,1.527,1.527,0,0,0-.531.306,64.4,64.4,0,0,0-12.724,9.764,1.724,1.724,0,0,0-.512.512A64.391,64.391,0,0,0,8.752,31.754a1.533,1.533,0,0,0-.306.532A63.594,63.594,0,0,0,2.2,47.38c-.006.019-.016.036-.021.056s0,.029-.007.043A63.846,63.846,0,0,0,0,64v62.25A1.75,1.75,0,0,0,1.75,128h124.5a1.75,1.75,0,0,0,1.75-1.75V64A63.846,63.846,0,0,0,125.826,47.478Zm-74.1-36.054L50.041,5.143a60.337,60.337,0,0,1,12.209-1.6v6.5A53.848,53.848,0,0,0,51.724,11.424ZM5.143,50.041l6.281,1.683a53.9,53.9,0,0,0-1.409,11.651h-6.5A60.389,60.389,0,0,1,5.143,50.041ZM10,91.875v9H3.5v-9Zm-6.5-3.5v-9H10v9Zm6.5-21.5v9H3.5v-9Zm-6.5,37.5H10v9H3.5Zm8.823-56.033L6.045,46.659a60.144,60.144,0,0,1,4.717-11.375L16.4,38.537A53.674,53.674,0,0,0,12.323,48.342Zm5.833-12.831-5.632-3.252a60.872,60.872,0,0,1,7.509-9.752L24.626,27.1A54.334,54.334,0,0,0,18.156,35.511ZM27.1,24.626l-4.594-4.594a60.875,60.875,0,0,1,9.752-7.509l3.252,5.632A54.333,54.333,0,0,0,27.1,24.626ZM38.537,16.4l-3.253-5.634A60.144,60.144,0,0,1,46.659,6.045l1.682,6.278A53.675,53.675,0,0,0,38.537,16.4ZM65.75,3.544a60.337,60.337,0,0,1,12.209,1.6l-1.683,6.281a53.848,53.848,0,0,0-10.526-1.38Zm15.591,2.5a60.144,60.144,0,0,1,11.375,4.717L89.463,16.4a53.675,53.675,0,0,0-9.8-4.073Zm14.4,6.478a60.875,60.875,0,0,1,9.752,7.509L100.9,24.626a54.333,54.333,0,0,0-8.41-6.471Zm12.227,9.983a60.875,60.875,0,0,1,7.509,9.752l-5.632,3.252a54.334,54.334,0,0,0-6.471-8.41Zm9.27,12.777a60.144,60.144,0,0,1,4.717,11.375l-6.278,1.682a53.674,53.674,0,0,0-4.073-9.8ZM118,91.875h6.5v9H118Zm0-3.5v-9h6.5v9Zm0-12.5v-9h6.5v9Zm6.485-12.5h-6.5a53.9,53.9,0,0,0-1.409-11.651l6.281-1.683A60.389,60.389,0,0,1,124.484,63.375Zm-6.486,41h6.5v9H118ZM3.5,116.875H10V124.5H3.5ZM15.859,124.5,39.8,99.583H88.2l5.772,6.009a1.749,1.749,0,1,0,2.523-2.424l-5.8-6.039V63.279a26.7,26.7,0,1,0-53.393,0V71.5a1.75,1.75,0,0,0,3.5,0V63.279a23.2,23.2,0,1,1,46.393,0v32.8H40.8V81.25a1.75,1.75,0,0,0-3.5,0V97.128L13.5,121.9v-6.758l0-.019,0-.019V102.644l0-.019,0-.019V90.144l0-.019,0-.019V77.644l0-.019,0-.019s0-12.493,0-12.5V64a50.5,50.5,0,0,1,101,0v1.106l0,.019,0,.019v37.48h0V121.9l-8.34-8.681a1.75,1.75,0,0,0-2.523,2.426l8.5,8.853ZM118,124.5v-7.625h6.5V124.5Z" style="fill:#28201e"/><path d="M100.906,107.758a1.749,1.749,0,1,0-2.521,2.426l.84.873a1.749,1.749,0,0,0,2.521-2.426Z" style="fill:#28201e"/></svg>