<svg id="Layer_2" data-name="Layer 2" xmlns="http://www.w3.org/2000/svg" viewBox="0 0 128 128"><title>WAGON</title><path d="M19.5,51.615l10,45.875h5.231a11.43,11.43,0,0,1,21.037,0H72.231a11.43,11.43,0,0,1,21.037,0H98.5l10-45.875Z" style="fill:#5d4037"/><path d="M19.5,51.615l.654,3H97.5a4.827,4.827,0,0,1,4.716,5.855L94.15,97.49H98.5l10-45.875Z" style="fill:#4c352e"/><rect x="10.333" y="41.115" width="107.333" height="10.5" style="fill:#fb8c00"/><path d="M10.333,41.115v3h95.833a7.5,7.5,0,0,1,7.5,7.5h4v-10.5Z" style="fill:#ef6c00"/><circle cx="82.75" cy="101.959" r="11.427" style="fill:#28201e"/><path d="M55.769,106.427H72.231a11.45,11.45,0,0,1,0-8.938H55.769a11.45,11.45,0,0,1,0,8.938Z" style="fill:#fb8c00"/><path d="M33.823,101.959a11.388,11.388,0,0,1,.908-4.469H19v8.938H34.731A11.388,11.388,0,0,1,33.823,101.959Z" style="fill:#fb8c00"/><path d="M93.269,97.49a11.45,11.45,0,0,1,0,8.938H109V97.49Z" style="fill:#fb8c00"/><path d="M72.231,97.49H55.769a11.367,11.367,0,0,1,.633,2H69.229a11.369,11.369,0,0,0-.633,6.936h3.636a11.45,11.45,0,0,1,0-8.937Z" style="fill:#ef6c00"/><path d="M34.731,97.49H19v2H31.729a11.369,11.369,0,0,0-.633,6.936h3.636a11.45,11.45,0,0,1,0-8.937Z" style="fill:#ef6c00"/><path d="M93.269,97.49a11.367,11.367,0,0,1,.633,2H106v6.936h3V97.49Z" style="fill:#ef6c00"/><path d="M45.25,90.532A11.429,11.429,0,0,1,55.769,97.49H72.231a11.415,11.415,0,0,1,17.094-4.867l6.76-31.008H31.915l6.76,31.008A11.363,11.363,0,0,1,45.25,90.532Z" style="fill:#ffca90"/><path d="M93.094,75.337l.383-1.757,2.608-11.965H31.915l.873,4H84.874a5,5,0,0,1,4.885,6.065l-.034.154H34.143l.763,3.5H88.963L87.116,83.81H36.753l.763,3.5H86.353l-.781,3.582a11.421,11.421,0,0,1,3.754,1.732l1.158-5.314h0l.344-1.58,2.266-10.393Z" style="fill:#dda976"/><polygon points="19.5 41.115 19.5 33.49 31.915 29.74 39.25 18.99 49.125 17.115 61.875 25.24 72 29.115 75.625 41.115 19.5 41.115" style="fill:#5d4037"/><polygon points="61.875 25.24 77.625 20.365 83 14.615 95.25 14.615 99.375 20.49 108.5 25.24 108.5 41.115 75.625 41.115 72 29.115 61.875 25.24" style="fill:#5d4037"/><polygon points="75.262 26.08 68.062 23.325 61.875 25.24 72 29.115 75.625 41.115 79.803 41.115 75.262 26.08" style="fill:#4c352e"/><circle cx="45.25" cy="101.959" r="11.427" style="fill:#00acc1"/><circle cx="82.75" cy="101.959" r="11.427" style="fill:#00acc1"/><path d="M82.75,90.532a11.466,11.466,0,0,0-1.5.11,11.414,11.414,0,0,1,0,22.634,11.422,11.422,0,1,0,1.5-22.743Z" style="fill:#0097a7"/><path d="M45.25,90.532a11.466,11.466,0,0,0-1.5.11,11.414,11.414,0,0,1,0,22.634,11.422,11.422,0,1,0,1.5-22.743Z" style="fill:#0097a7"/><circle cx="82.75" cy="101.959" r="4.427" style="fill:#5d4037"/><path d="M82.75,97.532a4.394,4.394,0,0,0-1,.124,4.415,4.415,0,0,1,0,8.605,4.423,4.423,0,1,0,1-8.729Z" style="fill:#4c352e"/><circle cx="45.25" cy="101.959" r="4.427" style="fill:#5d4037"/><path d="M126.25,115.135H1.75a1.75,1.75,0,0,1,0-3.5h124.5a1.75,1.75,0,0,1,0,3.5Z" style="fill:#5d4037"/><path d="M45.25,97.532a4.394,4.394,0,0,0-1,.124,4.415,4.415,0,0,1,0,8.605,4.423,4.423,0,1,0,1-8.729Z" style="fill:#4c352e"/><path d="M82.75,95.782a6.177,6.177,0,1,0,6.177,6.177A6.184,6.184,0,0,0,82.75,95.782Zm0,8.854a2.677,2.677,0,1,1,2.677-2.677A2.68,2.68,0,0,1,82.75,104.635Z" style="fill:#28201e"/><path d="M45.25,95.782a6.177,6.177,0,1,0,6.177,6.177A6.184,6.184,0,0,0,45.25,95.782Zm0,8.854a2.677,2.677,0,1,1,2.677-2.677A2.68,2.68,0,0,1,45.25,104.635Z" style="fill:#28201e"/><path d="M51.98,63.365h3.789a1.75,1.75,0,0,0,0-3.5H51.98a1.75,1.75,0,0,0,0,3.5Z" style="fill:#28201e"/><path d="M126.25,111.635H91.663a13.243,13.243,0,0,0,2.7-3.458H109a1.75,1.75,0,0,0,1.75-1.75V97.49A1.75,1.75,0,0,0,109,95.74h-8.327l9.237-42.375h7.757a1.75,1.75,0,0,0,1.75-1.75v-10.5a1.75,1.75,0,0,0-1.75-1.75H110.25V37.125a1.75,1.75,0,0,0-3.5,0v2.239H76.924L73.675,28.609a1.749,1.749,0,0,0-1.05-1.128l-5.4-2.066,10.915-3.378a1.753,1.753,0,0,0,.761-.477l4.856-5.195H94.34l3.6,5.13a1.743,1.743,0,0,0,.624.547l8.183,4.26v2.813a1.75,1.75,0,1,0,3.5,0V25.24a1.75,1.75,0,0,0-.942-1.552l-8.746-4.553-3.88-5.525a1.749,1.749,0,0,0-1.432-.745H83a1.751,1.751,0,0,0-1.278.555l-5.058,5.411-14.532,4.5L50.065,15.639A1.748,1.748,0,0,0,48.8,15.4l-9.875,1.875A1.75,1.75,0,0,0,37.8,18l-6.987,10.24L18.994,31.814A1.75,1.75,0,0,0,17.75,33.49v5.875H10.333a1.75,1.75,0,0,0-1.75,1.75v10.5a1.75,1.75,0,0,0,1.75,1.75H18.09L27.327,95.74H19a1.75,1.75,0,0,0-1.75,1.75v8.938a1.75,1.75,0,0,0,1.75,1.75H33.638a13.243,13.243,0,0,0,2.7,3.458H1.75a1.75,1.75,0,0,0,0,3.5h124.5a1.75,1.75,0,0,0,0-3.5ZM69.735,100a13.193,13.193,0,0,0,.119,4.679H58.146a13.309,13.309,0,0,0,0-5.438H69.854C69.8,99.489,69.773,99.747,69.735,100ZM51.515,90.37a13.287,13.287,0,0,0-11.638-.442l-.571-2.618H88.693l-.571,2.618A13.32,13.32,0,0,0,71.131,95.74H56.869A13.389,13.389,0,0,0,51.515,90.37Zm37.941-6.56H38.544L36.7,75.337H91.3ZM73.135,103.02a9.675,9.675,0,1,1,9.615,8.615A9.754,9.754,0,0,1,73.135,103.02Zm34.115,1.657h-11.6a13.309,13.309,0,0,0,0-5.438h11.6Zm-86-69.888,11.17-3.374a1.75,1.75,0,0,0,.939-.689l6.928-10.152,8.482-1.611,12.165,7.752a1.73,1.73,0,0,0,.315.159l9.323,3.568,2.7,8.922H21.25Zm-9.167,8.076H115.917v7H12.083Zm9.589,10.5h84.655L97.09,95.74H94.369a13.167,13.167,0,0,0-.686-1.127l-.021-.031a13.146,13.146,0,0,0-2.39-2.669L97.8,61.987a1.75,1.75,0,0,0-1.71-2.123H64a1.75,1.75,0,0,0,0,3.5H93.913l-1.847,8.472H35.934l-1.847-8.472h9.662a1.75,1.75,0,0,0,0-3.5H31.915a1.75,1.75,0,0,0-1.71,2.123l6.524,29.925a13.146,13.146,0,0,0-2.39,2.669l-.021.031a13.167,13.167,0,0,0-.686,1.127H30.91Zm10.682,51.313H20.75V99.24h11.6A13.309,13.309,0,0,0,32.354,104.677Zm3.281-1.657a9.675,9.675,0,1,1,9.615,8.615A9.754,9.754,0,0,1,35.635,103.02Zm18.528,8.615a13.243,13.243,0,0,0,2.7-3.458H71.138a13.243,13.243,0,0,0,2.7,3.458Z" style="fill:#28201e"/></svg>