<svg id="Layer_2" data-name="Layer 2" xmlns="http://www.w3.org/2000/svg" viewBox="0 0 128 128"><title>WHEELBARROW</title><path d="M88.188,59.923,56.1,74.545l-32.17-10.3A24.263,24.263,0,0,1,7.063,41.139H98.188Z" style="fill:#ffca90"/><path d="M7.062,41.139a24.251,24.251,0,0,0,.2,3H82.2a6,6,0,0,1,5.3,8.82l-5.118,9.613,5.813-2.649,10-18.784Z" style="fill:#dda976"/><rect x="1.75" y="34.805" width="101.75" height="6.333" rx="2" ry="2" style="fill:#00acc1"/><polygon points="17.875 34.805 17.875 28.851 27.57 25.923 33.298 17.528 41.009 16.064 50.966 22.408 58.872 25.434 61.703 34.805 17.875 34.805" style="fill:#5d4037"/><polygon points="17.875 34.805 17.875 28.851 27.57 25.923 33.298 17.528 41.009 16.064 50.966 22.408 58.872 25.434 61.703 34.805 17.875 34.805" style="fill:#5d4037"/><polygon points="50.966 22.408 63.265 18.602 67.462 14.111 77.028 14.111 80.249 18.699 87.375 22.408 87.375 34.805 61.703 34.805 58.872 25.434 50.966 22.408" style="fill:#5d4037"/><polygon points="62.134 22.4 57.152 20.494 50.966 22.409 58.872 25.434 61.703 34.805 65.881 34.805 62.134 22.4" style="fill:#4c352e"/><path d="M120.606,45.151,18.82,91.531a4,4,0,1,0,3.275,7.3L54.263,84.165c.029.065.048.132.082.195l10.771,19.8a3,3,0,0,0,2.635,1.566H81.5a3,3,0,0,0,2.929-2.351L92.8,66.6l31.114-14.185a3.99,3.99,0,0,0-3.309-7.261ZM79.092,99.722H69.533L59.716,81.679,85.933,69.727Z" style="fill:#28201e"/><path d="M120.606,45.151,18.82,91.531a4,4,0,1,0,3.275,7.3L54.263,84.165c.029.065.048.132.082.195l10.771,19.8a3,3,0,0,0,2.635,1.566H81.5a3,3,0,0,0,2.929-2.351L92.8,66.6l31.114-14.185a3.99,3.99,0,0,0-3.309-7.261ZM79.092,99.722H69.533L59.716,81.679,85.933,69.727Z" style="fill:#5d4037"/><path d="M120.606,45.151,18.82,91.531a4,4,0,1,0,3.275,7.3L54.263,84.165c.029.065.048.132.082.195l10.771,19.8a3,3,0,0,0,2.635,1.566H81.5a3,3,0,0,0,2.929-2.351L92.8,66.6l31.114-14.185a3.99,3.99,0,0,0-3.309-7.261ZM79.092,99.722H69.533L59.716,81.679,85.933,69.727Z" style="fill:#5d4037"/><path d="M38.743,91.24l-7.315,3.335c.011.2.031.4.031.6a11.016,11.016,0,1,1-3.34-7.886l7.293-3.323a18.642,18.642,0,1,0,3.332,7.269Z" style="fill:#fb8c00"/><path d="M31.428,94.575c.011.2.031.4.031.6a10.958,10.958,0,0,1-.816,4.15l8.511-3.88c0-.091.014-.178.014-.269a18.757,18.757,0,0,0-.424-3.94Z" style="fill:#ef6c00"/><path d="M89.558,80.837a1.75,1.75,0,0,0-2.094,1.319l-.22.967a1.75,1.75,0,1,0,3.412.775l.22-.967A1.749,1.749,0,0,0,89.558,80.837Z" style="fill:#28201e"/><path d="M125.365,43.954a5.711,5.711,0,0,0-5.484-.4L92.157,56.191l7.082-13.3H101.5a3.754,3.754,0,0,0,3.75-3.75V36.805a3.754,3.754,0,0,0-3.75-3.75H89.125V22.409a1.75,1.75,0,0,0-.942-1.552l-6.747-3.512-2.975-4.238a1.751,1.751,0,0,0-1.433-.745H67.462a1.751,1.751,0,0,0-1.278.555L62.3,17.067,51.222,20.5l-3.076-1.961a1.75,1.75,0,1,0-1.881,2.951l3.76,2.4a1.758,1.758,0,0,0,.314.159l7.105,2.719,1.9,6.293H19.625v-2.9l8.45-2.553a1.752,1.752,0,0,0,.939-.689l5.32-7.8,6.318-1.2.842.536A1.75,1.75,0,0,0,43.376,15.5l-1.427-.909a1.745,1.745,0,0,0-1.267-.244l-7.711,1.464a1.747,1.747,0,0,0-1.119.733l-5.381,7.884-9.1,2.75a1.75,1.75,0,0,0-1.244,1.675v4.2H3.75A3.754,3.754,0,0,0,0,36.805v2.333a3.754,3.754,0,0,0,3.75,3.75H5.382A25.914,25.914,0,0,0,23.395,65.913L51.251,74.83,35.917,81.818a20.255,20.255,0,0,0-15.459-7.1A20.533,20.533,0,1,0,40.7,92.272l12.786-5.829,10.092,18.548a4.746,4.746,0,0,0,4.173,2.481H81.5a4.716,4.716,0,0,0,4.635-3.712l3.26-14.32a1.75,1.75,0,1,0-3.412-.777L82.72,102.993a1.241,1.241,0,0,1-1.22.979H67.75a1.247,1.247,0,0,1-1.1-.653L55.917,83.589c-.019-.047-.048-.119-.06-.144a1.748,1.748,0,0,0-2.32-.873L21.379,97.233A2.322,2.322,0,0,1,18.405,96.1a2.275,2.275,0,0,1,1.141-2.978L121.332,46.743a2.24,2.24,0,0,1,3.168,2.039,2.245,2.245,0,0,1-1.311,2.038L92.075,65a1.749,1.749,0,0,0-.98,1.2L88.726,76.614a1.75,1.75,0,1,0,3.412.777l2.177-9.562L124.641,54a5.74,5.74,0,0,0,.725-10.05ZM63.782,20.273a1.75,1.75,0,0,0,.761-.477l3.679-3.935h7.9l2.7,3.843a1.746,1.746,0,0,0,.625.547l6.184,3.219v9.584H63l-2.456-8.127A1.749,1.749,0,0,0,59.5,23.8l-3.18-1.217ZM3.5,39.139V36.805a.25.25,0,0,1,.25-.25H101.5a.25.25,0,0,1,.25.25v2.333a.25.25,0,0,1-.25.25H3.75A.25.25,0,0,1,3.5,39.139Zm5.379,3.75H95.273L86.922,58.576l-30.935,14.1L24.461,62.58A22.435,22.435,0,0,1,8.879,42.889Zm11.579,69.25a16.958,16.958,0,0,1,0-33.917A16.774,16.774,0,0,1,32.575,83.34l-4.152,1.892A12.753,12.753,0,1,0,33.182,95.7l4.177-1.9q.059.7.059,1.385A16.978,16.978,0,0,1,20.458,112.139Zm0-11.207a5.716,5.716,0,0,0,2.353-.5l.009,0,6.616-3.016a9.253,9.253,0,1,1-4.771-10.462L18.1,89.935a5.709,5.709,0,0,0-2.514,2.183,5.816,5.816,0,0,0-.506,1.017,5.751,5.751,0,0,0,5.376,7.8Z" style="fill:#28201e"/><path d="M87.039,68.37a1.754,1.754,0,0,0-1.831-.235L58.99,80.087a1.749,1.749,0,0,0-.812,2.429L68,100.559a1.751,1.751,0,0,0,1.537.914h9.559a1.75,1.75,0,0,0,1.706-1.361l6.842-30A1.75,1.75,0,0,0,87.039,68.37ZM77.7,97.972H70.573L62.15,82.493l21.29-9.706Z" style="fill:#28201e"/></svg>