<?xml version="1.0" encoding="utf-8"?>
<!-- Generator: Adobe Illustrator 22.0.1, SVG Export Plug-In . SVG Version: 6.00 Build 0)  -->
<svg version="1.1" id="Layer_1" xmlns="http://www.w3.org/2000/svg" xmlns:xlink="http://www.w3.org/1999/xlink" x="0px" y="0px"
	 viewBox="0 0 128 128" style="enable-background:new 0 0 128 128;" xml:space="preserve">
<style type="text/css">
	.st0{fill:#263238;}
	.st1{fill:#E6E7E8;}
	.st2{fill:#FFD7E5;}
	.st3{fill:#0089EF;}
	.st4{fill:#6DC9F7;}
	.st5{fill:#FA759E;}
	.st6{fill:#FFFFFF;}
	.st7{fill:#3A2C60;}
	.st8{fill:#D4FBFF;}
</style>
<g>
	<path class="st1" d="M95.895,82.23h5.163c0.032,0,0.059-0.015,0.09-0.018c0.468,2.699,2.821,4.76,5.652,4.76
		c3.166,0,5.742-2.576,5.742-5.742s-2.576-5.742-5.742-5.742c-2.831,0-5.184,2.061-5.652,4.76c-0.031-0.003-0.058-0.018-0.09-0.018
		h-5.163c-4.101,0-7.438-3.337-7.438-7.438v-7.746h8.892c4.661,0,9-2.398,11.607-6.413c1.532-2.343,2.473-5.117,2.72-8.028
		c0.042-0.526,0.063-1.053,0.063-1.589c0-7.236-4.18-13.628-10.244-15.797C99.893,19.46,89.561,9.165,77.229,9.165
		c-7.808,0-15.095,4.191-19.711,11.273c-2.509-2.061-5.539-3.183-8.648-3.183c-7.355,0-13.469,5.997-14.539,14.095
		c-7.816,0.378-14.072,7.673-14.072,16.585c0,0.518,0.024,1.01,0.071,1.464c0.001,0.017,0.002,0.033,0.003,0.05h-0.002
		c0.062,0.846,0.187,1.706,0.37,2.557c1.651,7.678,7.872,13.04,15.127,13.04h6.713v7.746c0,4.101-3.336,7.438-7.438,7.438h-4.256
		c-0.475-2.69-2.825-4.742-5.649-4.742c-3.166,0-5.742,2.576-5.742,5.742s2.576,5.742,5.742,5.742c2.824,0,5.174-2.052,5.649-4.742
		h4.256c5.204,0,9.438-4.233,9.438-9.438v-7.746h9.039v31.866c0,4.101-3.336,7.438-7.438,7.438H35.939
		c-0.044,0-0.082,0.02-0.125,0.025c-0.465-2.702-2.82-4.767-5.653-4.767c-3.166,0-5.742,2.576-5.742,5.742s2.576,5.742,5.742,5.742
		c2.833,0,5.188-2.065,5.653-4.767c0.043,0.006,0.08,0.025,0.125,0.025h10.205c5.204,0,9.438-4.233,9.438-9.438V65.046H65v46.397
		c-2.69,0.475-4.742,2.825-4.742,5.649c0,3.166,2.576,5.742,5.742,5.742s5.742-2.576,5.742-5.742c0-2.824-2.052-5.174-4.742-5.649
		V65.046h9.419v31.866c0,5.204,4.234,9.438,9.438,9.438h10.205c0.044,0,0.082-0.02,0.125-0.025c0.465,2.702,2.82,4.767,5.653,4.767
		c3.166,0,5.742-2.576,5.742-5.742s-2.576-5.742-5.742-5.742c-2.833,0-5.188,2.065-5.653,4.767c-0.043-0.006-0.08-0.025-0.125-0.025
		H85.857c-4.102,0-7.438-3.337-7.438-7.438V65.046h8.039v7.746C86.457,77.996,90.691,82.23,95.895,82.23z"/>
	<g>
		<path class="st6" d="M106.737,45.015c0-7.219-4.317-13.276-10.169-15.053c-1.28-13.38-11.237-23.795-23.336-23.795
			c-8.117,0-15.271,4.687-19.488,11.813c-2.392-2.319-5.488-3.725-8.877-3.725c-7.124,0-12.975,6.186-13.64,14.095
			c-0.086-0.002-0.17-0.015-0.257-0.015c-7.57,0-13.707,6.983-13.707,15.597c0,1.317,0.144,2.614,0.414,3.866
			c1.574,7.293,7.549,12.25,14.149,12.25h5.712h55.807c4.205,0,8.271-2.115,10.776-5.959
			C105.766,51.563,106.737,48.44,106.737,45.015z"/>
		<path class="st4" d="M106.679,46.526c-0.24,2.83-1.16,5.42-2.56,7.56c-2.5,3.85-6.57,5.96-10.77,5.96h-61.52
			c-6.6,0-12.58-4.95-14.15-12.25c-0.17-0.791-0.29-1.602-0.35-2.424c0-0.012,0-0.024,0-0.036
			c0.675-7.585,6.124-13.554,12.874-13.976c0.003,0,0.005,0,0.008,0c0.869-0.055,1.554-0.798,1.496-1.667
			c-0.035-0.533-0.031-1.096,0.078-1.496c1.736-6.335,6.934-10.94,13.084-10.94c2.669,0,5.151,0.874,7.253,2.372
			c0.912,0.65,2.161,0.426,2.808-0.488c4.307-6.079,10.908-9.974,18.299-9.974c11.728,0,21.446,9.789,23.198,22.575
			c0.098,0.714,0.545,1.333,1.212,1.604C102.543,35.336,106.166,40.412,106.679,46.526z"/>
		<g>
			<g>
				<path class="st5" d="M25.942,77.23c0-2.619-2.123-4.742-4.742-4.742c-2.619,0-4.742,2.123-4.742,4.742
					c0,2.619,2.123,4.742,4.742,4.742C23.819,81.972,25.942,79.849,25.942,77.23z"/>
				<path class="st5" d="M102.801,72.487c-2.619,0-4.742,2.123-4.742,4.742c0,2.619,2.123,4.742,4.742,4.742
					c2.619,0,4.742-2.123,4.742-4.742C107.543,74.611,105.42,72.487,102.801,72.487z"/>
				<path class="st5" d="M26.161,96.608c-2.619,0-4.742,2.123-4.742,4.742c0,2.619,2.123,4.742,4.742,4.742
					c2.619,0,4.742-2.123,4.742-4.742C30.903,98.731,28.78,96.608,26.161,96.608z"/>
				<path class="st5" d="M97.839,96.608c-2.619,0-4.742,2.123-4.742,4.742c0,2.619,2.123,4.742,4.742,4.742
					c2.619,0,4.742-2.123,4.742-4.742C102.582,98.731,100.458,96.608,97.839,96.608z"/>
				<path class="st5" d="M62,108.35c-2.619,0-4.742,2.123-4.742,4.742c0,2.619,2.123,4.742,4.742,4.742
					c2.619,0,4.742-2.123,4.742-4.742C66.742,110.473,64.619,108.35,62,108.35z"/>
			</g>
			<g>
				<path class="st7" d="M104.279,51.748c-0.292,0.622-0.627,1.225-0.999,1.794c-0.543,0.837-1.18,1.603-1.893,2.276
					c-0.401,0.38-0.419,1.013-0.039,1.414c0.196,0.208,0.462,0.313,0.727,0.313c0.247,0,0.494-0.091,0.688-0.273
					c0.827-0.783,1.565-1.672,2.193-2.639c0.421-0.645,0.803-1.329,1.134-2.035c0.234-0.5,0.02-1.096-0.48-1.33
					C105.106,51.033,104.513,51.249,104.279,51.748z"/>
				<path class="st7" d="M91.896,78.229h5.163c0.032,0,0.059-0.015,0.09-0.018c0.468,2.699,2.821,4.76,5.652,4.76
					c3.166,0,5.742-2.576,5.742-5.742s-2.576-5.742-5.742-5.742c-2.831,0-5.184,2.061-5.652,4.76
					c-0.031-0.003-0.058-0.018-0.09-0.018h-5.163c-4.102,0-7.438-3.337-7.438-7.438v-7.746h8.893c1.66,0,3.291-0.302,4.848-0.897
					c0.516-0.197,0.773-0.775,0.576-1.291c-0.197-0.517-0.773-0.772-1.291-0.576c-1.327,0.507-2.718,0.765-4.133,0.765H31.829
					c-6.305,0-11.721-4.713-13.172-11.46c-0.161-0.751-0.271-1.507-0.328-2.247c0-0.037-0.002-0.074-0.006-0.11
					c-0.043-0.395-0.063-0.817-0.063-1.293c0-8.048,5.699-14.597,12.777-14.597c0.002,0,0.003,0,0.005,0
					c0.062,0.004,0.123,0.007,0.188,0.007c0.52,0,0.953-0.398,0.996-0.917c0.628-7.51,6.063-13.173,12.644-13.173
					c2.978,0,5.881,1.222,8.175,3.438c0.221,0.213,0.522,0.313,0.829,0.272c0.303-0.041,0.57-0.218,0.727-0.481
					c4.2-7.088,11.165-11.319,18.63-11.319c11.489,0,21.096,9.843,22.345,22.896c0.038,0.403,0.317,0.744,0.706,0.861
					c5.569,1.685,9.459,7.48,9.459,14.093c0,0.482-0.019,0.956-0.056,1.424c-0.036,0.414-0.086,0.823-0.151,1.226
					c-0.088,0.545,0.282,1.059,0.827,1.147c0.545,0.085,1.059-0.282,1.147-0.827c0.073-0.451,0.129-0.909,0.17-1.38
					c0.042-0.526,0.063-1.053,0.063-1.59c0-7.236-4.18-13.628-10.243-15.797C95.893,15.461,85.562,5.166,73.23,5.166
					c-7.808,0-15.096,4.191-19.712,11.273c-2.51-2.062-5.539-3.184-8.648-3.184c-7.355,0-13.469,5.998-14.538,14.096
					c-7.816,0.378-14.071,7.672-14.071,16.584c0,0.531,0.023,1.011,0.07,1.465c0.001,0.017,0.002,0.033,0.004,0.049h-0.002
					c0.063,0.844,0.187,1.704,0.37,2.557c1.65,7.678,7.871,13.04,15.127,13.04h6.714v7.746c0,4.101-3.337,7.438-7.438,7.438h-4.256
					c-0.475-2.69-2.825-4.742-5.649-4.742c-3.166,0-5.742,2.576-5.742,5.742s2.576,5.742,5.742,5.742
					c2.824,0,5.174-2.052,5.649-4.742h4.256c5.204,0,9.438-4.233,9.438-9.438v-7.746h9.038v31.866c0,4.101-3.337,7.438-7.438,7.438
					H31.939c-0.044,0-0.082,0.02-0.124,0.025c-0.465-2.702-2.82-4.767-5.653-4.767c-3.166,0-5.742,2.576-5.742,5.742
					c0,3.167,2.576,5.743,5.742,5.743c2.833,0,5.188-2.065,5.653-4.768c0.042,0.006,0.08,0.025,0.124,0.025h10.205
					c5.204,0,9.438-4.233,9.438-9.438V61.046H61v46.397c-2.69,0.475-4.742,2.825-4.742,5.65c0,3.166,2.576,5.742,5.742,5.742
					s5.742-2.576,5.742-5.742c0-2.825-2.052-5.175-4.742-5.65V61.046h9.419v31.866c0,5.204,4.233,9.438,9.438,9.438h10.205
					c0.044,0,0.082-0.02,0.124-0.025c0.465,2.703,2.82,4.768,5.653,4.768c3.166,0,5.742-2.576,5.742-5.743
					c0-3.166-2.576-5.742-5.742-5.742c-2.833,0-5.188,2.065-5.653,4.767c-0.043-0.006-0.08-0.025-0.124-0.025H81.857
					c-4.101,0-7.438-3.337-7.438-7.438V61.046h8.038v7.746C82.457,73.996,86.692,78.229,91.896,78.229z M102.801,73.487
					c2.063,0,3.742,1.679,3.742,3.742s-1.679,3.742-3.742,3.742s-3.742-1.679-3.742-3.742S100.737,73.487,102.801,73.487z
					 M21.199,80.972c-2.063,0-3.742-1.679-3.742-3.742s1.679-3.742,3.742-3.742s3.742,1.679,3.742,3.742
					S23.263,80.972,21.199,80.972z M26.161,105.093c-2.063,0-3.742-1.679-3.742-3.743c0-2.063,1.679-3.742,3.742-3.742
					s3.742,1.679,3.742,3.742C29.903,103.414,28.225,105.093,26.161,105.093z M65.742,113.093c0,2.063-1.679,3.742-3.742,3.742
					s-3.742-1.679-3.742-3.742c0-2.064,1.679-3.743,3.742-3.743S65.742,111.028,65.742,113.093z M97.839,97.607
					c2.063,0,3.742,1.679,3.742,3.742c0,2.064-1.679,3.743-3.742,3.743s-3.742-1.679-3.742-3.743
					C94.097,99.286,95.776,97.607,97.839,97.607z"/>
			</g>
		</g>
	</g>
</g>
</svg>
