<?xml version="1.0" encoding="utf-8"?>
<!-- Generator: Adobe Illustrator 22.0.1, SVG Export Plug-In . SVG Version: 6.00 Build 0)  -->
<svg version="1.1" id="Layer_1" xmlns="http://www.w3.org/2000/svg" xmlns:xlink="http://www.w3.org/1999/xlink" x="0px" y="0px"
	 viewBox="0 0 128 128" style="enable-background:new 0 0 128 128;" xml:space="preserve">
<style type="text/css">
	.st0{fill:#263238;}
	.st1{fill:#E6E7E8;}
	.st2{fill:#FFD7E5;}
	.st3{fill:#0089EF;}
	.st4{fill:#6DC9F7;}
	.st5{fill:#FA759E;}
	.st6{fill:#FFFFFF;}
	.st7{fill:#3A2C60;}
	.st8{fill:#D4FBFF;}
</style>
<g>
	<path class="st1" d="M121.457,85.364h-4.586V31.035c0-3.004-2.444-5.448-5.449-5.448H24.85c-3.004,0-5.449,2.444-5.449,5.448
		v22.606h-6.324c-1.949,0-3.534,1.585-3.534,3.534v45.702c0,1.949,1.585,3.535,3.534,3.535h24.841c1.949,0,3.534-1.586,3.534-3.535
		v-4.579h73.548c4.111,0,7.456-3.345,7.456-7.456v-4.479C122.457,85.812,122.009,85.364,121.457,85.364z"/>
	<g>
		<g>
			<g>
				<g>
					<g>
						<g>
							<g>
								<path class="st6" d="M107.422,22.587H20.85c-2.457,0-4.449,1.992-4.449,4.449v23.606h17.517c1.4,0,2.534,1.135,2.534,2.535
									v29.188h75.418V27.036C111.871,24.579,109.879,22.587,107.422,22.587z"/>
								<path class="st4" d="M107.422,25.587H20.85c-2.457,0-4.449,1.992-4.449,4.449v20.606h17.517c1.4,0,2.534,1.135,2.534,2.535
									v29.188h75.418V30.036C111.871,27.579,109.879,25.587,107.422,25.587z"/>
								<path class="st8" d="M102.65,28.953H25.622c-1.473,0-2.667,1.194-2.667,2.667v19.021h10.963c1.4,0,2.534,1.135,2.534,2.535
									v22.918h66.197c1.473,0,2.667-1.194,2.667-2.667V31.62C105.317,30.147,104.123,28.953,102.65,28.953z"/>
							</g>
						</g>
						<path class="st5" d="M36.453,82.364v10.935h74.548c3.565,0,6.455-2.89,6.455-6.456v-4.479H36.453z"/>
					</g>
				</g>
			</g>
		</g>
		<g>
			<g>
				<g>
					<g>
						<path class="st4" d="M33.918,101.413H9.078c-1.4,0-2.534-1.135-2.534-2.534V53.176c0-1.4,1.135-2.534,2.534-2.534h24.841
							c1.4,0,2.534,1.135,2.534,2.534v45.702C36.453,100.278,35.318,101.413,33.918,101.413z"/>
						<g>
							<path class="st7" d="M67.636,92.299h-4.992c-0.552,0-1,0.447-1,1s0.448,1,1,1h4.992c0.552,0,1-0.447,1-1
								S68.188,92.299,67.636,92.299z"/>
							<path class="st7" d="M117.457,81.364h-4.586V27.035c0-3.004-2.444-5.448-5.449-5.448H20.85c-3.004,0-5.449,2.444-5.449,5.448
								v22.606H9.077c-1.949,0-3.534,1.585-3.534,3.534v45.702c0,1.949,1.585,3.535,3.534,3.535h24.841
								c1.949,0,3.534-1.586,3.534-3.535v-4.579h19.222c0.552,0,1-0.447,1-1s-0.448-1-1-1H37.453v-8.935h79.004v3.479
								c0,3.009-2.447,5.456-5.456,5.456H73.186c-0.552,0-1,0.447-1,1s0.448,1,1,1h37.815c4.111,0,7.456-3.345,7.456-7.456v-4.479
								C118.457,81.812,118.009,81.364,117.457,81.364z M35.453,98.878c0,0.847-0.688,1.535-1.534,1.535H9.077
								c-0.846,0-1.534-0.688-1.534-1.535V53.176c0-0.846,0.688-1.534,1.534-1.534h24.841c0.846,0,1.534,0.688,1.534,1.534V98.878z
								 M33.919,49.642H17.401V27.035c0-1.901,1.547-3.448,3.449-3.448h86.572c1.902,0,3.449,1.547,3.449,3.448v54.329H37.453
								V53.176C37.453,51.227,35.867,49.642,33.919,49.642z"/>
						</g>
					</g>
					<path class="st8" d="M32.671,94.65H10.325c-0.773,0-1.399-0.627-1.399-1.399V55.617c0-0.773,0.627-1.399,1.399-1.399h22.346
						c0.773,0,1.399,0.627,1.399,1.399v37.634C34.07,94.024,33.444,94.65,32.671,94.65z"/>
				</g>
				<path class="st3" d="M23.857,53.503H19.14c-0.375,0-0.679-0.304-0.679-0.679l0,0c0-0.375,0.304-0.679,0.679-0.679h4.717
					c0.375,0,0.679,0.304,0.679,0.679l0,0C24.536,53.199,24.232,53.503,23.857,53.503z"/>
				<circle class="st5" cx="26.044" cy="52.824" r="0.679"/>
			</g>
			<g>
				<g>
					<path class="st6" d="M16.019,89.979h-3.254c-0.599,0-1.085-0.486-1.085-1.085v-3.254c0-0.599,0.486-1.085,1.085-1.085h3.254
						c0.599,0,1.085,0.486,1.085,1.085v3.254C17.103,89.494,16.618,89.979,16.019,89.979z"/>
					<path class="st6" d="M23.294,89.979h-3.254c-0.599,0-1.085-0.486-1.085-1.085v-3.254c0-0.599,0.486-1.085,1.085-1.085h3.254
						c0.599,0,1.085,0.486,1.085,1.085v3.254C24.379,89.494,23.893,89.979,23.294,89.979z"/>
					<path class="st6" d="M30.57,89.979h-3.254c-0.599,0-1.085-0.486-1.085-1.085v-3.254c0-0.599,0.486-1.085,1.085-1.085h3.254
						c0.599,0,1.085,0.486,1.085,1.085v3.254C31.654,89.494,31.169,89.979,30.57,89.979z"/>
				</g>
				<g>
					<path class="st6" d="M16.019,83.336h-3.254c-0.599,0-1.085-0.486-1.085-1.085v-3.254c0-0.599,0.486-1.085,1.085-1.085h3.254
						c0.599,0,1.085,0.486,1.085,1.085v3.254C17.103,82.851,16.618,83.336,16.019,83.336z"/>
					<path class="st6" d="M23.294,83.336h-3.254c-0.599,0-1.085-0.486-1.085-1.085v-3.254c0-0.599,0.486-1.085,1.085-1.085h3.254
						c0.599,0,1.085,0.486,1.085,1.085v3.254C24.379,82.851,23.893,83.336,23.294,83.336z"/>
					<path class="st6" d="M30.57,83.336h-3.254c-0.599,0-1.085-0.486-1.085-1.085v-3.254c0-0.599,0.486-1.085,1.085-1.085h3.254
						c0.599,0,1.085,0.486,1.085,1.085v3.254C31.654,82.851,31.169,83.336,30.57,83.336z"/>
				</g>
				<g>
					<path class="st6" d="M16.019,76.694h-3.254c-0.599,0-1.085-0.486-1.085-1.085v-3.254c0-0.599,0.486-1.085,1.085-1.085h3.254
						c0.599,0,1.085,0.486,1.085,1.085v3.254C17.103,76.208,16.618,76.694,16.019,76.694z"/>
					<path class="st6" d="M23.294,76.694h-3.254c-0.599,0-1.085-0.486-1.085-1.085v-3.254c0-0.599,0.486-1.085,1.085-1.085h3.254
						c0.599,0,1.085,0.486,1.085,1.085v3.254C24.379,76.208,23.893,76.694,23.294,76.694z"/>
					<path class="st6" d="M30.57,76.694h-3.254c-0.599,0-1.085-0.486-1.085-1.085v-3.254c0-0.599,0.486-1.085,1.085-1.085h3.254
						c0.599,0,1.085,0.486,1.085,1.085v3.254C31.654,76.208,31.169,76.694,30.57,76.694z"/>
				</g>
				<g>
					<path class="st6" d="M16.019,70.051h-3.254c-0.599,0-1.085-0.486-1.085-1.085v-3.254c0-0.599,0.486-1.085,1.085-1.085h3.254
						c0.599,0,1.085,0.486,1.085,1.085v3.254C17.103,69.565,16.618,70.051,16.019,70.051z"/>
					<path class="st6" d="M23.294,70.051h-3.254c-0.599,0-1.085-0.486-1.085-1.085v-3.254c0-0.599,0.486-1.085,1.085-1.085h3.254
						c0.599,0,1.085,0.486,1.085,1.085v3.254C24.379,69.565,23.893,70.051,23.294,70.051z"/>
					<path class="st6" d="M30.57,70.051h-3.254c-0.599,0-1.085-0.486-1.085-1.085v-3.254c0-0.599,0.486-1.085,1.085-1.085h3.254
						c0.599,0,1.085,0.486,1.085,1.085v3.254C31.654,69.565,31.169,70.051,30.57,70.051z"/>
				</g>
				<g>
					<path class="st6" d="M16.019,63.408h-3.254c-0.599,0-1.085-0.486-1.085-1.085V59.07c0-0.599,0.486-1.085,1.085-1.085h3.254
						c0.599,0,1.085,0.486,1.085,1.085v3.254C17.103,62.922,16.618,63.408,16.019,63.408z"/>
					<path class="st6" d="M23.294,63.408h-3.254c-0.599,0-1.085-0.486-1.085-1.085V59.07c0-0.599,0.486-1.085,1.085-1.085h3.254
						c0.599,0,1.085,0.486,1.085,1.085v3.254C24.379,62.922,23.893,63.408,23.294,63.408z"/>
					<path class="st6" d="M30.57,63.408h-3.254c-0.599,0-1.085-0.486-1.085-1.085V59.07c0-0.599,0.486-1.085,1.085-1.085h3.254
						c0.599,0,1.085,0.486,1.085,1.085v3.254C31.654,62.922,31.169,63.408,30.57,63.408z"/>
				</g>
			</g>
			<path class="st5" d="M23.142,99.195h-3.289c-0.712,0-1.29-0.577-1.29-1.29v0c0-0.712,0.577-1.29,1.29-1.29h3.289
				c0.712,0,1.29,0.577,1.29,1.29v0C24.432,98.617,23.855,99.195,23.142,99.195z"/>
		</g>
	</g>
</g>
</svg>
