<?xml version="1.0" encoding="utf-8"?>
<!-- Generator: Adobe Illustrator 22.0.1, SVG Export Plug-In . SVG Version: 6.00 Build 0)  -->
<svg version="1.1" id="Layer_1" xmlns="http://www.w3.org/2000/svg" xmlns:xlink="http://www.w3.org/1999/xlink" x="0px" y="0px"
	 viewBox="0 0 128 128" style="enable-background:new 0 0 128 128;" xml:space="preserve">
<style type="text/css">
	.st0{fill:#263238;}
	.st1{fill:#E6E7E8;}
	.st2{fill:#FFD7E5;}
	.st3{fill:#0089EF;}
	.st4{fill:#6DC9F7;}
	.st5{fill:#FA759E;}
	.st6{fill:#FFFFFF;}
	.st7{fill:#3A2C60;}
	.st8{fill:#D4FBFF;}
</style>
<g>
	<path class="st1" d="M104.478,29.156H49.083v-1.973c0-2.538-2.064-4.603-4.602-4.603H33.466c-2.538,0-4.602,2.064-4.602,4.603
		v1.973h-1.342c-9.028,0-16.373,7.343-16.373,16.367v47.521c0,9.028,7.345,16.374,16.373,16.374h76.956
		c9.028,0,16.373-7.346,16.373-16.374V45.523C120.851,36.499,113.506,29.156,104.478,29.156z"/>
	<g>
		<path class="st3" d="M44.082,26.157v-2.973c0-1.99-1.613-3.602-3.602-3.602H29.466c-1.989,0-3.602,1.613-3.602,3.602v2.973H44.082
			z"/>
		<g>
			<g>
				<path class="st5" d="M100.478,26.157H23.522c-8.456,0-15.373,6.917-15.373,15.367v47.522c0,8.456,6.917,15.373,15.373,15.373
					h76.956c8.456,0,15.373-6.917,15.373-15.373V41.523C115.851,33.074,108.934,26.157,100.478,26.157z"/>
				<path class="st2" d="M106.141,78.833C101.497,89.909,90.553,97.69,77.79,97.69s-23.707-7.781-28.351-18.857H8.149v10.212
					c0,8.456,6.917,15.373,15.373,15.373h76.956c8.456,0,15.373-6.917,15.373-15.373V78.833H106.141z"/>
				<circle class="st6" cx="77.79" cy="66.958" r="30.732"/>
				<ellipse class="st3" cx="79.29" cy="66.958" rx="29.232" ry="30.694"/>
				<path class="st8" d="M77.79,89.112c-12.216,0-22.154-9.938-22.154-22.154c0-12.216,9.938-22.154,22.154-22.154
					s22.154,9.938,22.154,22.154C99.944,79.174,90.005,89.112,77.79,89.112z"/>
				<path class="st4" d="M77.79,80.534c-7.486,0-13.576-6.09-13.576-13.576c0-7.486,6.09-13.576,13.576-13.576
					c7.486,0,13.576,6.09,13.576,13.576C91.366,74.444,85.276,80.534,77.79,80.534z"/>
				<circle class="st6" cx="81.738" cy="63.034" r="2.746"/>
			</g>
		</g>
		<g>
			<path class="st8" d="M33.3,46.318h-7.801c-2.787,0-5.046-2.259-5.046-5.046v0c0-2.787,2.259-5.046,5.046-5.046H33.3
				c2.787,0,5.046,2.259,5.046,5.046v0C38.346,44.059,36.087,46.318,33.3,46.318z"/>
			<g>
				<path class="st7" d="M57.625,27.156h6.438c0.552,0,1-0.447,1-1s-0.448-1-1-1h-6.438c-0.552,0-1,0.447-1,1
					S57.073,27.156,57.625,27.156z"/>
				<path class="st7" d="M100.478,25.156H68.75c-0.552,0-1,0.447-1,1s0.448,1,1,1h31.728c7.925,0,14.373,6.445,14.373,14.367v36.31
					h-7.25c1.242-3.394,1.92-7.057,1.92-10.875c0-17.497-14.235-31.731-31.732-31.731S46.058,49.461,46.058,66.958
					c0,3.818,0.679,7.481,1.92,10.875H9.149v-36.31c0-7.922,6.448-14.367,14.373-14.367h29.416c0.552,0,1-0.447,1-1s-0.448-1-1-1
					h-7.855v-1.973c0-2.538-2.064-4.603-4.602-4.603H29.466c-2.538,0-4.603,2.064-4.603,4.603v1.973h-1.342
					c-9.028,0-16.373,7.343-16.373,16.367v47.521c0,9.028,7.345,16.374,16.373,16.374h76.956c9.028,0,16.373-7.346,16.373-16.374
					V41.523C116.851,32.499,109.506,25.156,100.478,25.156z M26.864,23.184c0-1.435,1.167-2.603,2.603-2.603H40.48
					c1.435,0,2.602,1.168,2.602,2.603v1.973H26.864V23.184z M77.79,37.227c16.394,0,29.732,13.338,29.732,29.731
					c0,16.395-13.338,29.732-29.732,29.732S48.058,83.353,48.058,66.958C48.058,50.564,61.396,37.227,77.79,37.227z
					 M100.478,103.419H23.522c-7.925,0-14.373-6.448-14.373-14.374v-9.212h39.649C53.746,90.931,64.875,98.69,77.79,98.69
					s24.044-7.76,28.992-18.857h8.069v9.212C114.851,96.971,108.403,103.419,100.478,103.419z"/>
				<path class="st7" d="M25.499,35.227c-3.333,0-6.046,2.712-6.046,6.046s2.712,6.046,6.046,6.046H33.3
					c3.333,0,6.046-2.712,6.046-6.046s-2.712-6.046-6.046-6.046H25.499z M37.346,41.272c0,2.23-1.815,4.046-4.046,4.046h-7.801
					c-2.231,0-4.046-1.815-4.046-4.046s1.815-4.046,4.046-4.046H33.3C35.531,37.227,37.346,39.042,37.346,41.272z"/>
			</g>
		</g>
	</g>
</g>
</svg>
