<?xml version="1.0" encoding="utf-8"?>
<!-- Generator: Adobe Illustrator 22.0.1, SVG Export Plug-In . SVG Version: 6.00 Build 0)  -->
<svg version="1.1" id="Layer_1" xmlns="http://www.w3.org/2000/svg" xmlns:xlink="http://www.w3.org/1999/xlink" x="0px" y="0px"
	 viewBox="0 0 128 128" style="enable-background:new 0 0 128 128;" xml:space="preserve">
<style type="text/css">
	.st0{fill:#263238;}
	.st1{fill:#E6E7E8;}
	.st2{fill:#FFD7E5;}
	.st3{fill:#0089EF;}
	.st4{fill:#6DC9F7;}
	.st5{fill:#FA759E;}
	.st6{fill:#FFFFFF;}
	.st7{fill:#3A2C60;}
	.st8{fill:#D4FBFF;}
</style>
<g>
	<g>
		<path class="st1" d="M70.048,52.913h-0.646c0.494-0.471,0.89-1.042,1.151-1.669c0.249-0.604,0.375-1.237,0.375-1.881
			c0-2.695-2.2-4.897-4.915-4.91c-2.699,0.012-4.896,2.215-4.896,4.91c0,0.645,0.126,1.278,0.376,1.884
			c0.259,0.625,0.651,1.193,1.146,1.667h-0.643c-2.719,0-4.93,2.212-4.93,4.93v12.47c0,1.156,0.821,2.168,1.902,2.354
			c0.605,0.109,1.219-0.022,1.718-0.363v12.509c0,1.505,1.229,2.73,2.74,2.73c1.209,0,2.237-0.79,2.595-1.881
			c0.358,1.091,1.386,1.881,2.595,1.881c1.506,0,2.73-1.225,2.73-2.73V72.304c0.498,0.34,1.111,0.473,1.707,0.365
			c1.108-0.188,1.913-1.178,1.913-2.356v-12.47C74.968,55.125,72.761,52.913,70.048,52.913z"/>
		<path class="st1" d="M121.516,65.155l-13.481-7.482c-0.3-0.166-0.664-0.162-0.958,0.012c-0.295,0.173-0.476,0.49-0.476,0.832
			v4.017h-9.818c-1.599-14.414-12.887-25.701-27.3-27.299v-9.819h4.017c0.342,0,0.658-0.181,0.832-0.475
			c0.173-0.295,0.178-0.659,0.012-0.958L66.862,10.5c-0.34-0.613-1.348-0.613-1.688,0l-7.482,13.482
			c-0.166,0.299-0.161,0.663,0.012,0.958c0.173,0.294,0.49,0.475,0.832,0.475h4.017v9.819C48.139,36.833,36.852,48.12,35.254,62.533
			h-9.819v-4.017c0-0.342-0.181-0.658-0.475-0.832c-0.294-0.173-0.659-0.178-0.958-0.012L10.52,65.155
			c-0.307,0.17-0.497,0.493-0.497,0.844s0.19,0.674,0.497,0.844l13.482,7.482c0.3,0.167,0.664,0.162,0.958-0.012
			c0.294-0.173,0.475-0.49,0.475-0.832v-4.017h9.819c1.599,14.414,12.886,25.701,27.299,27.299v9.819h-4.017
			c-0.342,0-0.658,0.181-0.832,0.475c-0.173,0.295-0.178,0.659-0.012,0.958l7.482,13.482c0.17,0.307,0.493,0.497,0.844,0.497
			s0.674-0.19,0.844-0.497l7.481-13.482c0.166-0.299,0.161-0.663-0.012-0.958c-0.174-0.294-0.49-0.475-0.832-0.475h-4.017v-9.819
			c14.413-1.599,25.701-12.886,27.3-27.299h9.818v4.017c0,0.342,0.181,0.658,0.476,0.832c0.294,0.173,0.658,0.178,0.958,0.012
			l13.481-7.482c0.306-0.17,0.496-0.493,0.496-0.844S121.822,65.324,121.516,65.155z M66.018,90.033
			c-13.253,0-24.035-10.782-24.035-24.035s10.782-24.035,24.035-24.035s24.035,10.782,24.035,24.035S79.271,90.033,66.018,90.033z"
			/>
	</g>
	<g>
		<g>
			<path class="st6" d="M69.968,53.843v12.47c0,0.65-0.43,1.26-1.08,1.37c-0.83,0.15-1.55-0.49-1.55-1.29v-10.95
				c0-0.23-0.19-0.43-0.43-0.43h-0.13c-0.23,0-0.43,0.2-0.43,0.43v25.37c0,0.96-0.77,1.73-1.73,1.73c-0.96,0-1.73-0.77-1.73-1.73
				v-12.98c0-0.48-0.39-0.86-0.87-0.87c-0.47,0.01-0.86,0.39-0.86,0.87v12.98c0,0.96-0.78,1.73-1.73,1.73
				c-0.96,0-1.74-0.77-1.74-1.73v-25.37c0-0.23-0.19-0.43-0.43-0.43h-0.13c-0.23,0-0.43,0.2-0.43,0.43v10.95
				c0,0.8-0.72,1.44-1.55,1.29c-0.64-0.11-1.08-0.72-1.08-1.37v-12.47c0-2.17,1.76-3.93,3.93-3.93h1.67c0.36,0,0.65-0.29,0.65-0.65
				c0-0.22-0.11-0.44-0.31-0.55c-0.71-0.43-1.27-1.08-1.59-1.85c-0.19-0.46-0.3-0.97-0.3-1.5c0-2.16,1.75-3.9,3.9-3.91
				c2.16,0.01,3.91,1.75,3.91,3.91c0,0.53-0.11,1.04-0.3,1.5c-0.32,0.77-0.89,1.42-1.6,1.85c-0.19,0.11-0.3,0.33-0.3,0.55
				c0,0.36,0.29,0.65,0.65,0.65h1.67C68.218,49.913,69.968,51.673,69.968,53.843z"/>
			<path class="st4" d="M66.048,49.913h-1.67c-0.205,0-0.38-0.1-0.499-0.248h-0.126c0.011-0.046,0.017-0.093,0.034-0.137
				c-0.036-0.081-0.059-0.17-0.059-0.265c0-0.22,0.11-0.44,0.3-0.55c0.164-0.099,0.318-0.213,0.465-0.334
				c0.103-0.086,0.197-0.18,0.291-0.276c0.034-0.035,0.071-0.067,0.104-0.103c0.116-0.128,0.224-0.263,0.323-0.405
				c0.003-0.005,0.007-0.009,0.01-0.014c0.103-0.15,0.197-0.307,0.279-0.471c-0.644-1.272-1.953-2.149-3.482-2.158
				c-1.52,0.009-2.828,0.887-3.473,2.159c0.082,0.163,0.174,0.32,0.277,0.469c0.004,0.006,0.008,0.011,0.012,0.017
				c0.097,0.141,0.203,0.275,0.317,0.402c0.034,0.038,0.072,0.071,0.108,0.107c0.091,0.094,0.183,0.187,0.284,0.271
				c0.147,0.121,0.3,0.235,0.464,0.334c0.2,0.11,0.31,0.33,0.31,0.55c0,0.095-0.023,0.184-0.059,0.266
				c0.017,0.044,0.023,0.09,0.034,0.136h-0.126c-0.119,0.148-0.294,0.248-0.499,0.248h-1.67c-2.17,0-3.93,1.76-3.93,3.93v1.738
				v10.732c0,0.65,0.44,1.26,1.08,1.37c0.83,0.15,1.55-0.49,1.55-1.29v-10.45v-0.362v-0.138c0-0.23,0.2-0.43,0.43-0.43h0.13
				c0.24,0,0.43,0.2,0.43,0.43v0.138v0.362v24.87c0,0.96,0.78,1.73,1.74,1.73c0.95,0,1.73-0.77,1.73-1.73v-12.48v-0.5
				c0-0.48,0.39-0.86,0.86-0.87c0.48,0.01,0.87,0.39,0.87,0.87v0.5v12.48c0,0.96,0.77,1.73,1.73,1.73c0.96,0,1.73-0.77,1.73-1.73
				v-24.87v-0.362v-0.138c0-0.23,0.2-0.43,0.43-0.43h0.13c0.24,0,0.43,0.2,0.43,0.43v0.138v0.362v10.45c0,0.8,0.72,1.44,1.55,1.29
				c0.65-0.11,1.08-0.72,1.08-1.37V55.582v-1.738C69.968,51.673,68.218,49.913,66.048,49.913z"/>
		</g>
		<path class="st5" d="M117.048,61.998l-13.482-7.482v4.982h-11.66C90.703,44.926,79.09,33.314,64.518,32.11V20.45H69.5
			L62.018,6.969L54.536,20.45h4.982v11.66C44.945,33.314,33.333,44.926,32.13,59.498H20.47v-4.982L6.988,61.998L20.47,69.48v-4.982
			h11.66c1.203,14.573,12.816,26.185,27.388,27.388v11.66h-4.982l7.482,13.482l7.482-13.482h-4.982v-11.66
			c14.573-1.203,26.185-12.816,27.388-27.388h11.66v4.982L117.048,61.998z M62.018,86.998c-13.807,0-25-11.193-25-25
			s11.193-25,25-25s25,11.193,25,25S75.825,86.998,62.018,86.998z"/>
		<g>
			<path class="st7" d="M66.048,48.913h-0.646c0.494-0.471,0.89-1.042,1.151-1.669c0.249-0.604,0.375-1.237,0.375-1.881
				c0-2.695-2.2-4.897-4.915-4.91c-2.699,0.012-4.896,2.215-4.896,4.91c0,0.645,0.126,1.278,0.376,1.884
				c0.259,0.625,0.651,1.193,1.146,1.667h-0.643c-2.719,0-4.93,2.212-4.93,4.93v12.47c0,1.156,0.821,2.168,1.902,2.354
				c0.605,0.109,1.219-0.022,1.718-0.363v12.509c0,1.505,1.229,2.73,2.74,2.73c1.209,0,2.237-0.79,2.595-1.881
				c0.358,1.091,1.386,1.881,2.595,1.881c1.506,0,2.73-1.225,2.73-2.73V68.304c0.498,0.34,1.111,0.473,1.707,0.365
				c1.108-0.188,1.913-1.178,1.913-2.356v-12.47C70.968,51.125,68.761,48.913,66.048,48.913z M68.968,66.313
				c0,0.189-0.11,0.361-0.258,0.386c-0.126,0.022-0.209-0.023-0.259-0.065c-0.034-0.028-0.113-0.109-0.113-0.241v-10.95
				c0-0.789-0.642-1.43-1.431-1.43h-0.13c-0.788,0-1.43,0.641-1.43,1.43v25.37c0,0.409-0.321,0.73-0.73,0.73
				s-0.729-0.321-0.729-0.73v-12.98c0-1.026-0.813-1.848-1.892-1.87c-1.013,0.022-1.838,0.861-1.838,1.87v12.98
				c0,0.402-0.328,0.73-0.73,0.73c-0.408,0-0.74-0.328-0.74-0.73v-25.37c0-0.789-0.641-1.43-1.43-1.43h-0.13
				c-0.789,0-1.43,0.641-1.43,1.43v10.95c0,0.132-0.08,0.212-0.114,0.241c-0.05,0.042-0.138,0.087-0.267,0.063
				c-0.133-0.023-0.25-0.203-0.25-0.385v-12.47c0-1.616,1.314-2.93,2.93-2.93h1.67c0.91,0,1.65-0.74,1.65-1.65
				c0-0.598-0.316-1.144-0.792-1.406c-0.527-0.319-0.948-0.809-1.184-1.376c-0.149-0.36-0.224-0.736-0.224-1.118
				c0-1.597,1.303-2.902,2.896-2.91c1.607,0.007,2.915,1.313,2.915,2.91c0,0.381-0.075,0.758-0.223,1.116
				c-0.235,0.565-0.66,1.055-1.181,1.37c-0.491,0.286-0.797,0.828-0.797,1.415c0,0.91,0.74,1.65,1.65,1.65h1.67
				c1.61,0,2.92,1.314,2.92,2.93V66.313z"/>
			<path class="st7" d="M87.578,77.726c-0.461-0.307-1.082-0.179-1.386,0.281c-1.299,1.958-2.837,3.759-4.574,5.353
				c-0.406,0.374-0.434,1.006-0.06,1.413c0.197,0.215,0.466,0.324,0.736,0.324c0.242,0,0.484-0.087,0.677-0.263
				c1.855-1.704,3.5-3.629,4.887-5.721C88.164,78.652,88.038,78.031,87.578,77.726z"/>
			<path class="st7" d="M62.018,35.998c-14.336,0-26,11.664-26,26s11.664,26,26,26c14.337,0,26-11.664,26-26
				S76.355,35.998,62.018,35.998z M62.018,85.998c-13.234,0-24-10.766-24-24s10.766-24,24-24c13.233,0,24,10.766,24,24
				S75.251,85.998,62.018,85.998z"/>
			<path class="st7" d="M117.532,61.124l-13.481-7.482c-0.31-0.171-0.687-0.166-0.992,0.013c-0.306,0.18-0.493,0.508-0.493,0.862
				v3.982h-9.752c-1.612-14.405-12.891-25.684-27.296-27.295V21.45h3.981c0.354,0,0.682-0.188,0.861-0.493s0.185-0.683,0.013-0.993
				L62.892,6.483c-0.353-0.635-1.396-0.635-1.749,0l-7.482,13.482c-0.172,0.31-0.167,0.688,0.013,0.993s0.508,0.493,0.862,0.493
				h3.982v9.752c-14.405,1.611-25.684,12.89-27.295,27.295H21.47v-3.982c0-0.354-0.188-0.682-0.493-0.862
				c-0.306-0.18-0.684-0.185-0.993-0.013L6.503,61.124c-0.317,0.176-0.515,0.511-0.515,0.875s0.197,0.698,0.515,0.875l13.482,7.482
				c0.311,0.171,0.688,0.167,0.993-0.013c0.305-0.18,0.493-0.508,0.493-0.862v-3.982h9.752c1.611,14.405,12.89,25.684,27.295,27.295
				v9.752h-3.982c-0.354,0-0.682,0.188-0.862,0.493s-0.185,0.683-0.013,0.993l7.482,13.482c0.176,0.317,0.511,0.515,0.875,0.515
				s0.698-0.197,0.875-0.515l7.481-13.482c0.172-0.31,0.167-0.688-0.013-0.993s-0.507-0.493-0.861-0.493h-3.981v-9.753
				c5.218-0.588,10.21-2.5,14.491-5.557c0.449-0.321,0.554-0.946,0.232-1.395c-0.319-0.45-0.945-0.553-1.395-0.233
				c-4.238,3.026-9.222,4.853-14.411,5.281c-0.519,0.043-0.918,0.476-0.918,0.997v11.66c0,0.552,0.447,1,1,1h3.283l-5.783,10.421
				l-5.783-10.421h3.283c0.552,0,1-0.448,1-1v-11.66c0-0.521-0.399-0.954-0.917-0.997c-14.17-1.17-25.304-12.304-26.474-26.474
				c-0.043-0.519-0.476-0.917-0.997-0.917H20.47c-0.552,0-1,0.448-1,1v3.283L9.049,61.998l10.421-5.783v3.283c0,0.552,0.448,1,1,1
				h11.66c0.521,0,0.954-0.399,0.997-0.917c1.17-14.17,12.304-25.304,26.474-26.474c0.519-0.043,0.917-0.476,0.917-0.997V20.45
				c0-0.552-0.448-1-1-1h-3.283L62.018,9.03l5.783,10.421h-3.283c-0.553,0-1,0.448-1,1v11.66c0,0.521,0.399,0.954,0.918,0.997
				c14.169,1.17,25.304,12.304,26.474,26.474c0.043,0.519,0.477,0.917,0.997,0.917h11.659c0.553,0,1-0.448,1-1v-3.283l10.421,5.783
				l-10.421,5.783v-3.283c0-0.552-0.447-1-1-1H91.906c-0.521,0-0.954,0.399-0.997,0.917c-0.309,3.745-1.325,7.338-3.02,10.678
				c-0.25,0.493-0.054,1.095,0.439,1.344c0.49,0.25,1.094,0.053,1.344-0.439c1.674-3.299,2.729-6.827,3.141-10.501h9.752v3.982
				c0,0.354,0.188,0.682,0.493,0.862c0.305,0.179,0.682,0.184,0.992,0.013l13.481-7.482c0.317-0.176,0.515-0.511,0.515-0.875
				S117.85,61.3,117.532,61.124z"/>
		</g>
	</g>
</g>
</svg>
