<?xml version="1.0" encoding="utf-8"?>
<!-- Generator: Adobe Illustrator 22.0.1, SVG Export Plug-In . SVG Version: 6.00 Build 0)  -->
<svg version="1.1" id="Layer_1" xmlns="http://www.w3.org/2000/svg" xmlns:xlink="http://www.w3.org/1999/xlink" x="0px" y="0px"
	 viewBox="0 0 128 128" style="enable-background:new 0 0 128 128;" xml:space="preserve">
<style type="text/css">
	.st0{fill:#263238;}
	.st1{fill:#E6E7E8;}
	.st2{fill:#FFD7E5;}
	.st3{fill:#0089EF;}
	.st4{fill:#6DC9F7;}
	.st5{fill:#FA759E;}
	.st6{fill:#FFFFFF;}
	.st7{fill:#3A2C60;}
	.st8{fill:#D4FBFF;}
</style>
<g>
	<path class="st1" d="M91.429,29.362h-0.317V18.463c0-3.458-2.814-6.272-6.272-6.272H33.164c-3.458,0-6.272,2.814-6.272,6.272
		v95.074c0,3.459,2.814,6.272,6.272,6.272H84.84c3.458,0,6.272-2.813,6.272-6.272V87.085v-5.361v-18.61h0.317
		c7.543,0,13.679-6.136,13.679-13.679v-6.393C105.108,35.498,98.972,29.362,91.429,29.362z"/>
	<g>
		<g>
			<g>
				<g>
					<path class="st4" d="M80.213,58.113l-9.944,6.933l1.594-6.949c-6.856-0.168-12.366-5.767-12.366-12.663v-6.393
						c0-7.003,5.677-12.679,12.679-12.679h13.936V14.463c0-2.912-2.361-5.272-5.272-5.272H29.164c-2.912,0-5.272,2.361-5.272,5.272
						v95.074c0,2.912,2.361,5.272,5.272,5.272H80.84c2.912,0,5.272-2.361,5.272-5.272V58.113H80.213z"/>
					<path class="st8" d="M80.213,58.113l-9.944,6.933l1.594-6.949c-6.856-0.168-12.366-5.767-12.366-12.663v-6.393
						c0-7.003,5.677-12.679,12.679-12.679h8.979v-6.821c0-1.608-1.303-2.911-2.911-2.911H31.759c-1.608,0-2.911,1.303-2.911,2.911
						v78.289c0,1.608,1.303,2.911,2.911,2.911h46.485c1.608,0,2.911-1.303,2.911-2.911V58.113H80.213z"/>
				</g>
				<path class="st3" d="M59.908,15.144h-9.813c-0.78,0-1.413-0.633-1.413-1.413v0c0-0.78,0.633-1.413,1.413-1.413h9.813
					c0.78,0,1.413,0.633,1.413,1.413v0C61.321,14.511,60.689,15.144,59.908,15.144z"/>
				<circle class="st5" cx="64.459" cy="13.731" r="1.413"/>
			</g>
			<path class="st5" d="M58.423,110.195h-6.842c-1.482,0-2.683-1.201-2.683-2.683l0,0c0-1.482,1.201-2.683,2.683-2.683h6.842
				c1.482,0,2.683,1.201,2.683,2.683l0,0C61.106,108.994,59.905,110.195,58.423,110.195z"/>
		</g>
		<g>
			<path class="st6" d="M75.097,61.68l-4.828,3.366l1.086-4.731l-34.213-0.016c-2.037-0.001-3.704,1.665-3.705,3.702l-0.01,21.756
				c-0.001,2.035,1.663,3.701,3.699,3.702l34.617,0.017c2.655,0.001,4.826-2.171,4.827-4.823l0.009-19.511
				C76.579,63.786,76.007,62.56,75.097,61.68z"/>
			<path class="st4" d="M75.097,61.68l-4.828,3.366l1.086-4.731L40.128,60.3c-2.03,0.007-3.69,1.668-3.691,3.701l-0.01,21.756
				c-0.001,2.035,1.663,3.701,3.699,3.702l31.631,0.015c2.649-0.007,4.812-2.174,4.813-4.821l0.009-19.511
				C76.579,63.786,76.007,62.56,75.097,61.68z"/>
		</g>
		<g>
			<g>
				<path class="st5" d="M87.429,26.362H72.177c-7.003,0-12.679,5.677-12.679,12.679v6.392c0,6.897,5.509,12.495,12.366,12.663
					l-1.594,6.949l9.944-6.933h7.216c7.003,0,12.679-5.677,12.679-12.679v-6.392C100.109,32.039,94.432,26.362,87.429,26.362z"/>
				<g>
					<path class="st7" d="M86.112,76.724c-0.552,0-1,0.447-1,1v5.361c0,0.553,0.448,1,1,1s1-0.447,1-1v-5.361
						C87.112,77.171,86.665,76.724,86.112,76.724z"/>
					<path class="st7" d="M87.429,25.362h-0.317V14.463c0-3.458-2.813-6.272-6.272-6.272H29.164c-3.458,0-6.272,2.814-6.272,6.272
						v95.074c0,3.459,2.814,6.272,6.272,6.272H80.84c3.458,0,6.272-2.813,6.272-6.272V88.191c0-0.553-0.448-1-1-1s-1,0.447-1,1
						v21.346c0,2.355-1.917,4.272-4.272,4.272H29.164c-2.356,0-4.272-1.917-4.272-4.272V14.463c0-2.356,1.917-4.272,4.272-4.272
						H80.84c2.355,0,4.272,1.917,4.272,4.272v10.899H72.177c-7.543,0-13.679,6.136-13.679,13.679v6.393
						c0,7.069,5.237,12.819,12.129,13.581l-0.069,0.3l-33.416-0.016c-0.001,0-0.001,0-0.002,0c-1.251,0-2.431,0.49-3.321,1.379
						c-0.891,0.89-1.382,2.07-1.382,3.322l-0.01,21.756c-0.001,2.592,2.106,4.701,4.698,4.702l34.617,0.017c0.001,0,0.001,0,0.002,0
						c3.211,0,5.824-2.611,5.825-5.822l0.009-19.51c0.001-1.181-0.362-2.305-1.019-3.263l3.968-2.767h4.585v12.993
						c0,0.553,0.448,1,1,1s1-0.447,1-1V59.113h0.317c7.543,0,13.679-6.136,13.679-13.679v-6.393
						C101.108,31.499,94.972,25.362,87.429,25.362z M71.744,88.476c0,0-0.001,0-0.001,0l-34.617-0.017
						c-0.717,0-1.394-0.282-1.906-0.795c-0.512-0.513-0.794-1.189-0.793-1.907l0.006-12.53l41.143,0.02l-0.005,11.407
						C75.568,86.761,73.852,88.476,71.744,88.476z M75.578,65.142l-0.001,1.995l-41.143-0.02l0.001-3.116
						c0-1.491,1.213-2.703,2.704-2.703c0,0,0.001,0,0.001,0l32.958,0.016l-0.805,3.508c-0.092,0.403,0.072,0.821,0.415,1.052
						c0.169,0.114,0.364,0.172,0.56,0.171c0.2,0,0.4-0.06,0.572-0.179l4.088-2.85C75.351,63.643,75.578,64.376,75.578,65.142z
						 M99.108,45.434c0,6.44-5.239,11.679-11.679,11.679h-7.216c-0.205,0-0.404,0.063-0.572,0.18l-7.819,5.451l1.015-4.423
						c0.067-0.292,0-0.6-0.185-0.837c-0.184-0.237-0.465-0.379-0.765-0.386c-6.387-0.157-11.39-5.28-11.39-11.664v-6.393
						c0-6.44,5.239-11.679,11.679-11.679h15.252c6.44,0,11.679,5.239,11.679,11.679V45.434z"/>
				</g>
			</g>
			<g>
				<path class="st6" d="M80.538,30.634v1.291c0.853,0.088,1.583,0.263,2.193,0.526c0.61,0.263,1.142,0.662,1.596,1.195
					c0.359,0.407,0.635,0.825,0.831,1.255c0.195,0.43,0.292,0.825,0.292,1.183c0,0.398-0.146,0.743-0.436,1.034
					c-0.291,0.291-0.644,0.437-1.058,0.437c-0.781,0-1.287-0.422-1.518-1.267c-0.263-0.996-0.896-1.657-1.9-1.984v4.972
					c0.988,0.271,1.775,0.518,2.36,0.741c0.586,0.223,1.109,0.546,1.572,0.968c0.494,0.438,0.875,0.962,1.142,1.572
					c0.267,0.609,0.4,1.277,0.4,2.002c0,0.909-0.213,1.759-0.64,2.552c-0.426,0.793-1.054,1.44-1.882,1.942
					c-0.829,0.502-1.813,0.801-2.952,0.896v1.426c0,0.47-0.046,0.813-0.138,1.028c-0.092,0.215-0.293,0.323-0.604,0.323
					c-0.287,0-0.488-0.088-0.604-0.263c-0.116-0.175-0.173-0.446-0.173-0.813v-1.677c-0.932-0.104-1.747-0.323-2.444-0.657
					c-0.697-0.335-1.279-0.751-1.745-1.249s-0.811-1.016-1.034-1.554c-0.223-0.538-0.335-1.065-0.335-1.583
					c0-0.382,0.149-0.727,0.448-1.034s0.671-0.46,1.118-0.46c0.358,0,0.661,0.084,0.908,0.251c0.247,0.167,0.418,0.402,0.514,0.705
					c0.215,0.654,0.402,1.154,0.562,1.5c0.16,0.346,0.4,0.663,0.723,0.95c0.323,0.287,0.751,0.506,1.285,0.657V41.94
					c-1.068-0.294-1.96-0.623-2.677-0.986c-0.717-0.362-1.299-0.878-1.745-1.548s-0.669-1.53-0.669-2.582
					c0-1.371,0.436-2.494,1.309-3.371s2.134-1.387,3.783-1.53v-1.267c0-0.669,0.251-1.004,0.753-1.004
					C80.282,29.653,80.538,29.98,80.538,30.634z M79.02,38.833v-4.578c-0.669,0.199-1.191,0.462-1.566,0.789
					c-0.375,0.327-0.562,0.821-0.562,1.482c0,0.629,0.175,1.105,0.526,1.428C77.769,38.277,78.302,38.57,79.02,38.833z
					 M80.538,42.383v5.235c0.805-0.16,1.426-0.482,1.864-0.968c0.438-0.486,0.658-1.052,0.658-1.697c0-0.693-0.213-1.229-0.64-1.607
					S81.366,42.646,80.538,42.383z"/>
			</g>
		</g>
	</g>
</g>
</svg>
