<?xml version="1.0" encoding="utf-8"?>
<!-- Generator: Adobe Illustrator 22.0.1, SVG Export Plug-In . SVG Version: 6.00 Build 0)  -->
<svg version="1.1" id="Layer_1" xmlns="http://www.w3.org/2000/svg" xmlns:xlink="http://www.w3.org/1999/xlink" x="0px" y="0px"
	 viewBox="0 0 128 128" style="enable-background:new 0 0 128 128;" xml:space="preserve">
<style type="text/css">
	.st0{fill:#263238;}
	.st1{fill:#E6E7E8;}
	.st2{fill:#FFD7E5;}
	.st3{fill:#0089EF;}
	.st4{fill:#6DC9F7;}
	.st5{fill:#FA759E;}
	.st6{fill:#FFFFFF;}
	.st7{fill:#3A2C60;}
	.st8{fill:#D4FBFF;}
</style>
<g>
	<path class="st1" d="M121.091,40.648c0.553,0,1-0.448,1-1v-5.551c0-0.552-0.447-1-1-1s-1,0.448-1,1v4.551h-8.868v-2.916
		c0-7.055-5.74-12.795-12.795-12.795h-2.917v-8.868h4.552c0.553,0,1-0.448,1-1s-0.447-1-1-1h-5.552c-0.553,0-1,0.448-1,1v9.868
		h-8.723v-6.868c0-0.552-0.447-1-1-1s-1,0.448-1,1v6.868h-8.722v-6.868c0-0.552-0.447-1-1-1s-1,0.448-1,1v6.868h-8.723v-6.868
		c0-0.552-0.447-1-1-1s-1,0.448-1,1v6.868h-8.723v-6.868c0-0.552-0.447-1-1-1s-1,0.448-1,1v6.868h-8.723v-9.868c0-0.552-0.447-1-1-1
		h-6.598c-0.553,0-1,0.448-1,1s0.447,1,1,1h5.598v8.868h-3.963c-7.055,0-12.795,5.74-12.795,12.795v2.916h-8.868v-4.551
		c0-0.552-0.447-1-1-1s-1,0.448-1,1v5.551c0,0.552,0.447,1,1,1h9.868v8.723h-6.867c-0.553,0-1,0.448-1,1s0.447,1,1,1h6.867v8.723
		h-6.867c-0.553,0-1,0.448-1,1s0.447,1,1,1h6.867v8.722h-6.867c-0.553,0-1,0.448-1,1s0.447,1,1,1h6.867v8.723h-6.867
		c-0.553,0-1,0.448-1,1s0.447,1,1,1h6.867v8.723h-9.868c-0.553,0-1,0.448-1,1v6.598c0,0.552,0.447,1,1,1s1-0.448,1-1V94.26h8.868
		v3.962c0,7.055,5.74,12.795,12.795,12.795h3.963v8.868h-5.598c-0.553,0-1,0.448-1,1s0.447,1,1,1h6.598c0.553,0,1-0.448,1-1v-9.868
		h8.723v6.868c0,0.552,0.447,1,1,1s1-0.448,1-1v-6.868h8.723v6.868c0,0.552,0.447,1,1,1s1-0.448,1-1v-6.868h8.723v6.868
		c0,0.552,0.447,1,1,1s1-0.448,1-1v-6.868h8.722v6.868c0,0.552,0.447,1,1,1s1-0.448,1-1v-6.868h8.723v9.868c0,0.552,0.447,1,1,1
		h5.552c0.553,0,1-0.448,1-1s-0.447-1-1-1h-4.552v-8.868h2.917c7.055,0,12.795-5.74,12.795-12.795V94.26h8.868v5.598
		c0,0.552,0.447,1,1,1s1-0.448,1-1V93.26c0-0.552-0.447-1-1-1h-9.868v-8.723h6.867c0.553,0,1-0.448,1-1s-0.447-1-1-1h-6.867v-8.723
		h6.867c0.553,0,1-0.448,1-1s-0.447-1-1-1h-6.867v-8.722h6.867c0.553,0,1-0.448,1-1s-0.447-1-1-1h-6.867V51.37h6.867
		c0.553,0,1-0.448,1-1s-0.447-1-1-1h-6.867v-8.723H121.091z"/>
	<g>
		<path class="st5" d="M29.572,104.063c-6.504,0-11.795-5.291-11.795-11.795V29.777c0-6.504,5.291-11.795,11.795-11.795h62.491
			c6.504,0,11.795,5.291,11.795,11.795v62.491c0,6.504-5.291,11.795-11.795,11.795H29.572z"/>
		<path class="st2" d="M88.234,95.767H33.402c-4.048,0-7.329-3.281-7.329-7.329V33.607c0-4.048,3.281-7.329,7.329-7.329h54.832
			c4.048,0,7.329,3.281,7.329,7.329v54.832C95.562,92.486,92.281,95.767,88.234,95.767z"/>
		<g>
			<g>
				<g>
					<path class="st4" d="M64.839,35.91L47.312,61.846c-0.581,0.859,0.031,2.019,1.068,2.025l9.804,0.059
						c1.165,0.007,1.968,1.171,1.561,2.263l-6.725,18.008c-0.388,1.04,1.004,1.8,1.669,0.911l19.679-26.323
						c0.638-0.853,0.033-2.069-1.032-2.075l-11.654-0.07c-1.145-0.007-1.946-1.133-1.577-2.217l6.077-17.85
						C66.465,35.742,65.333,35.179,64.839,35.91z"/>
				</g>
			</g>
		</g>
		<path class="st6" d="M64.881,40.287c0.025-0.037,0.044-0.082,0.051-0.127c0.197-1.289-1.564-2.074-2.361-0.894L47.312,61.846
			c-0.581,0.859,0.031,2.019,1.068,2.025l3.101,0.019c0-0.006,0.001-0.012,0.001-0.018l-0.103-0.001
			c-1.037-0.006-1.648-1.166-1.068-2.025L64.881,40.287z"/>
		<g>
			<path class="st7" d="M63.68,94.768h-5.855c-0.553,0-1,0.448-1,1s0.447,1,1,1h5.855c0.553,0,1-0.448,1-1
				S64.232,94.768,63.68,94.768z"/>
			<path class="st7" d="M88.233,25.278H33.402c-4.593,0-8.329,3.736-8.329,8.329v54.832c0,4.593,3.736,8.329,8.329,8.329h17.971
				c0.553,0,1-0.448,1-1s-0.447-1-1-1H33.402c-3.49,0-6.329-2.839-6.329-6.329V33.607c0-3.49,2.839-6.329,6.329-6.329h54.831
				c3.49,0,6.329,2.839,6.329,6.329v54.832c0,3.49-2.839,6.329-6.329,6.329H70.488c-0.553,0-1,0.448-1,1s0.447,1,1,1h17.745
				c4.593,0,8.329-3.736,8.329-8.329V33.607C96.562,29.015,92.826,25.278,88.233,25.278z"/>
			<path class="st7" d="M75.386,56.988c-0.388-0.781-1.171-1.27-2.044-1.275l-11.654-0.07c-0.22-0.001-0.42-0.105-0.547-0.285
				c-0.128-0.179-0.16-0.401-0.09-0.61L67.127,36.9c0.288-0.843-0.082-1.742-0.879-2.139c-0.798-0.396-1.738-0.149-2.237,0.589
				L46.484,61.286c-0.476,0.704-0.525,1.607-0.13,2.358c0.396,0.752,1.17,1.222,2.02,1.227l9.804,0.059
				c0.318,0.002,0.493,0.206,0.553,0.293c0.061,0.087,0.188,0.322,0.077,0.62l-6.725,18.008c-0.351,0.937,0.018,1.926,0.896,2.406
				c0.309,0.168,0.637,0.25,0.958,0.25c0.593,0,1.163-0.277,1.552-0.797l19.68-26.323C75.691,58.688,75.774,57.769,75.386,56.988z
				 M73.567,58.19L53.956,84.551l6.725-18.007c0.306-0.818,0.192-1.736-0.303-2.456c-0.496-0.72-1.314-1.152-2.188-1.158
				l-9.804-0.059c-0.155-0.001-0.23-0.1-0.262-0.159c-0.038-0.072-0.065-0.183,0.017-0.306l16.506-24.426l-5.488,16.124
				c-0.277,0.812-0.146,1.714,0.353,2.414c0.497,0.7,1.307,1.12,2.165,1.125l11.654,0.07c0.151,0.001,0.228,0.09,0.266,0.166
				C73.633,57.954,73.658,58.068,73.567,58.19z"/>
			<path class="st7" d="M114.727,34.693c0.553,0,1-0.448,1-1v-5.551c0-0.552-0.447-1-1-1s-1,0.448-1,1v4.551h-8.868v-2.916
				c0-7.055-5.74-12.795-12.795-12.795h-2.916V8.114h4.551c0.553,0,1-0.448,1-1s-0.447-1-1-1h-5.551c-0.553,0-1,0.448-1,1v9.868
				h-8.723v-6.868c0-0.552-0.447-1-1-1s-1,0.448-1,1v6.868h-8.723v-6.868c0-0.552-0.447-1-1-1s-1,0.448-1,1v6.868h-8.723v-6.868
				c0-0.552-0.447-1-1-1s-1,0.448-1,1v6.868h-8.723v-6.868c0-0.552-0.447-1-1-1s-1,0.448-1,1v6.868h-8.723V7.114
				c0-0.552-0.447-1-1-1h-6.597c-0.553,0-1,0.448-1,1s0.447,1,1,1h5.597v8.868h-3.962c-7.055,0-12.795,5.74-12.795,12.795v2.916
				H7.909v-4.551c0-0.552-0.447-1-1-1s-1,0.448-1,1v5.551c0,0.552,0.447,1,1,1h9.868v8.723H9.909c-0.553,0-1,0.448-1,1s0.447,1,1,1
				h6.868v8.723H9.909c-0.553,0-1,0.448-1,1s0.447,1,1,1h6.868v8.722H9.909c-0.553,0-1,0.448-1,1s0.447,1,1,1h6.868v8.723H9.909
				c-0.553,0-1,0.448-1,1s0.447,1,1,1h6.868v8.723H6.909c-0.553,0-1,0.448-1,1v6.597c0,0.552,0.447,1,1,1s1-0.448,1-1v-5.597h8.868
				v3.962c0,7.055,5.74,12.795,12.795,12.795h3.962v8.868h-5.597c-0.553,0-1,0.448-1,1s0.447,1,1,1h6.597c0.553,0,1-0.448,1-1
				v-9.868h8.723v6.868c0,0.552,0.447,1,1,1s1-0.448,1-1v-6.868h8.723v6.868c0,0.552,0.447,1,1,1s1-0.448,1-1v-6.868h8.723v6.868
				c0,0.552,0.447,1,1,1s1-0.448,1-1v-6.868h8.723v6.868c0,0.552,0.447,1,1,1s1-0.448,1-1v-6.868h8.723v9.868c0,0.552,0.447,1,1,1
				h5.551c0.553,0,1-0.448,1-1s-0.447-1-1-1h-4.551v-8.868h2.916c7.055,0,12.795-5.74,12.795-12.795v-3.962h8.868v5.597
				c0,0.552,0.447,1,1,1s1-0.448,1-1v-6.597c0-0.552-0.447-1-1-1h-9.868v-8.723h6.868c0.553,0,1-0.448,1-1s-0.447-1-1-1h-6.868
				v-8.723h6.868c0.553,0,1-0.448,1-1s-0.447-1-1-1h-6.868v-8.722h6.868c0.553,0,1-0.448,1-1s-0.447-1-1-1h-6.868v-8.723h6.868
				c0.553,0,1-0.448,1-1s-0.447-1-1-1h-6.868v-8.723H114.727z M102.858,92.268c0,5.952-4.843,10.795-10.795,10.795H29.572
				c-5.952,0-10.795-4.843-10.795-10.795V29.777c0-5.952,4.843-10.795,10.795-10.795h62.491c5.952,0,10.795,4.843,10.795,10.795
				V92.268z"/>
		</g>
	</g>
</g>
</svg>
