<?xml version="1.0" encoding="utf-8"?>
<!-- Generator: Adobe Illustrator 22.0.1, SVG Export Plug-In . SVG Version: 6.00 Build 0)  -->
<svg version="1.1" id="Layer_1" xmlns="http://www.w3.org/2000/svg" xmlns:xlink="http://www.w3.org/1999/xlink" x="0px" y="0px"
	 viewBox="0 0 128 128" style="enable-background:new 0 0 128 128;" xml:space="preserve">
<style type="text/css">
	.st0{fill:#263238;}
	.st1{fill:#E6E7E8;}
	.st2{fill:#FFD7E5;}
	.st3{fill:#0089EF;}
	.st4{fill:#6DC9F7;}
	.st5{fill:#FA759E;}
	.st6{fill:#FFFFFF;}
	.st7{fill:#3A2C60;}
	.st8{fill:#D4FBFF;}
</style>
<g>
	<g>
		<circle class="st1" cx="66" cy="79.781" r="46"/>
		<path class="st1" d="M74.603,26.101c-2.572-1.443-5.387-2.211-8.376-2.283l-0.426-0.006c-0.048,0.007-0.098,0.003-0.146,0.009
			c-2.938,0.088-5.715,0.854-8.256,2.28c-0.779,0.438-1.33,1.186-1.512,2.054c-0.179,0.853,0.02,1.74,0.544,2.435l0.054,0.071
			l0.001,0.001c0.587,0.777,1.478,1.193,2.401,1.193c0.521,0,1.054-0.133,1.549-0.407c1.714-0.954,3.592-1.454,5.548-1.486
			c1.989,0.032,3.867,0.532,5.581,1.486c1.369,0.762,3.029,0.43,4.004-0.856c0.525-0.695,0.725-1.584,0.546-2.438
			C75.933,27.285,75.382,26.537,74.603,26.101z"/>
		<path class="st1" d="M77.933,24.31c0.947,0,1.868-0.444,2.455-1.271l0.052-0.074c0.491-0.691,0.672-1.564,0.495-2.396
			c-0.174-0.822-0.686-1.537-1.403-1.962c-4.013-2.376-8.612-3.671-13.31-3.745l-0.426-0.004c-0.041-0.007-0.076,0.002-0.113,0.006
			c-4.66,0.089-9.228,1.383-13.214,3.743c-0.718,0.426-1.229,1.14-1.403,1.961c-0.176,0.831,0.004,1.704,0.548,2.471
			c0.916,1.289,2.645,1.65,4.021,0.84c3.129-1.844,6.716-2.837,10.356-2.871c3.659,0.034,7.248,1.027,10.378,2.871
			C76.862,24.17,77.401,24.31,77.933,24.31z"/>
		<path class="st1" d="M46.551,16.016c0.586,0.82,1.516,1.263,2.461,1.263c0.548,0,1.101-0.148,1.596-0.457
			c4.607-2.876,9.932-4.417,15.386-4.454c5.469,0.037,10.793,1.577,15.397,4.453c1.351,0.844,3.134,0.49,4.113-0.88
			c0.483-0.679,0.668-1.538,0.505-2.356c-0.162-0.819-0.661-1.541-1.368-1.983C79.127,8.16,72.759,6.3,66.22,6.222l-0.426-0.003
			c-0.028,0-0.064,0.001-0.096,0.004c-6.508,0.092-12.848,1.951-18.339,5.379c-0.707,0.441-1.205,1.164-1.368,1.982
			s0.021,1.678,0.508,2.359L46.551,16.016z"/>
	</g>
	<g>
		<g>
			<circle class="st2" cx="62" cy="75.781" r="45"/>
			<circle class="st6" cx="62" cy="75.781" r="39"/>
			<ellipse class="st3" cx="62" cy="77.281" rx="38.962" ry="37.5"/>
			<path class="st8" d="M78.5,56.81c0-2.663-1.592-4.896-3.75-5.552c-0.472-4.935-4.145-8.776-8.607-8.776
				c-2.994,0-5.632,1.729-7.188,4.357c-0.882-0.855-2.024-1.374-3.274-1.374c-2.628,0-4.786,2.282-5.031,5.199
				c-0.032-0.001-0.063-0.005-0.095-0.005c-2.792,0-5.055,2.575-5.055,5.752c0,0.486,0.053,0.964,0.153,1.426
				c0.581,2.69,2.784,4.518,5.219,4.518h2.107h20.583c1.551,0,3.051-0.78,3.974-2.198C78.142,59.226,78.5,58.074,78.5,56.81z"/>
			<g>
				<path class="st6" d="M39.333,83.694h6.474c0.645,0,1.137,0.133,1.476,0.396c0.339,0.266,0.509,0.625,0.509,1.079
					c0,0.405-0.135,0.749-0.403,1.029c-0.269,0.281-0.676,0.422-1.222,0.422h-9.127c-0.62,0-1.104-0.172-1.451-0.515
					c-0.347-0.343-0.521-0.746-0.521-1.209c0-0.298,0.111-0.692,0.335-1.185c0.223-0.491,0.467-0.878,0.731-1.159
					c1.1-1.141,2.092-2.118,2.977-2.933s1.517-1.35,1.897-1.606c0.678-0.479,1.241-0.961,1.692-1.444
					c0.45-0.484,0.794-0.98,1.029-1.488c0.235-0.509,0.354-1.007,0.354-1.494c0-0.529-0.126-1.003-0.378-1.42
					c-0.253-0.418-0.596-0.742-1.029-0.974c-0.435-0.231-0.908-0.348-1.42-0.348c-1.084,0-1.935,0.476-2.555,1.427
					c-0.083,0.124-0.222,0.463-0.416,1.017s-0.413,0.979-0.657,1.277s-0.602,0.446-1.072,0.446c-0.414,0-0.757-0.137-1.029-0.409
					c-0.273-0.272-0.409-0.645-0.409-1.116c0-0.57,0.128-1.166,0.384-1.786c0.257-0.619,0.639-1.182,1.147-1.687
					c0.509-0.504,1.153-0.911,1.935-1.221c0.781-0.311,1.697-0.466,2.747-0.466c1.265,0,2.344,0.199,3.236,0.596
					c0.579,0.265,1.087,0.628,1.525,1.091c0.438,0.464,0.779,0.999,1.023,1.606c0.243,0.607,0.365,1.238,0.365,1.891
					c0,1.025-0.254,1.958-0.763,2.797c-0.508,0.839-1.027,1.496-1.556,1.972c-0.529,0.476-1.416,1.222-2.66,2.238
					c-1.244,1.018-2.098,1.807-2.561,2.369C39.742,83.111,39.54,83.38,39.333,83.694z"/>
				<path class="st6" d="M52.358,76.787c0.563-0.67,1.174-1.166,1.836-1.488c0.661-0.322,1.401-0.483,2.22-0.483
					c0.785,0,1.511,0.146,2.176,0.44c0.666,0.293,1.249,0.711,1.749,1.252c0.5,0.542,0.887,1.181,1.159,1.916
					c0.273,0.736,0.409,1.505,0.409,2.307c0,1.166-0.267,2.225-0.8,3.175c-0.533,0.951-1.277,1.692-2.232,2.226
					c-0.954,0.533-2.035,0.8-3.242,0.8c-1.39,0-2.588-0.339-3.597-1.017s-1.779-1.681-2.313-3.007c-0.533-1.327-0.8-2.949-0.8-4.868
					c0-1.563,0.161-2.959,0.483-4.191c0.322-1.231,0.785-2.252,1.389-3.063s1.335-1.422,2.195-1.836
					c0.859-0.413,1.839-0.62,2.938-0.62c1.059,0,1.991,0.207,2.797,0.62c0.806,0.414,1.414,0.927,1.823,1.538
					c0.409,0.612,0.613,1.199,0.613,1.761c0,0.339-0.128,0.647-0.384,0.924c-0.257,0.277-0.583,0.416-0.98,0.416
					c-0.347,0-0.669-0.109-0.967-0.329c-0.298-0.219-0.517-0.522-0.657-0.911c-0.19-0.496-0.492-0.896-0.905-1.197
					c-0.414-0.302-0.893-0.452-1.438-0.452c-0.438,0-0.874,0.126-1.309,0.378c-0.434,0.252-0.8,0.594-1.098,1.023
					C52.821,72.976,52.466,74.538,52.358,76.787z M55.707,84.488c0.835,0,1.525-0.341,2.071-1.023
					c0.545-0.682,0.818-1.577,0.818-2.685c0-0.752-0.129-1.399-0.385-1.94c-0.256-0.542-0.607-0.955-1.054-1.24
					c-0.447-0.285-0.938-0.428-1.477-0.428c-0.513,0-1.002,0.136-1.469,0.409c-0.468,0.272-0.844,0.667-1.129,1.184
					c-0.285,0.518-0.428,1.123-0.428,1.817c0,1.116,0.289,2.046,0.868,2.79C54.103,84.116,54.83,84.488,55.707,84.488z"/>
				<path class="st6" d="M87.672,80.879c0,0.579-0.143,1.205-0.428,1.879s-0.733,1.336-1.345,1.984
					c-0.612,0.649-1.394,1.177-2.344,1.581c-0.951,0.405-2.059,0.607-3.324,0.607c-0.959,0-1.831-0.091-2.616-0.272
					c-0.786-0.182-1.499-0.465-2.14-0.85c-0.641-0.384-1.229-0.891-1.767-1.519c-0.479-0.57-0.889-1.209-1.228-1.916
					c-0.34-0.707-0.594-1.462-0.763-2.264c-0.17-0.802-0.255-1.653-0.255-2.555c0-1.463,0.213-2.773,0.639-3.931
					s1.036-2.147,1.829-2.971c0.794-0.822,1.724-1.448,2.791-1.878c1.066-0.431,2.203-0.646,3.41-0.646
					c1.471,0,2.781,0.294,3.931,0.881s2.029,1.313,2.642,2.176c0.611,0.864,0.918,1.681,0.918,2.449
					c0,0.422-0.149,0.794-0.446,1.116c-0.298,0.322-0.657,0.484-1.079,0.484c-0.472,0-0.825-0.112-1.061-0.335
					c-0.235-0.224-0.498-0.608-0.787-1.153c-0.479-0.901-1.044-1.575-1.693-2.021c-0.648-0.446-1.448-0.67-2.399-0.67
					c-1.513,0-2.718,0.575-3.615,1.724c-0.896,1.149-1.345,2.782-1.345,4.898c0,1.414,0.198,2.59,0.595,3.528
					s0.959,1.639,1.687,2.102c0.728,0.464,1.579,0.695,2.555,0.695c1.059,0,1.953-0.263,2.685-0.788
					c0.732-0.524,1.284-1.296,1.656-2.313c0.156-0.479,0.351-0.87,0.582-1.172s0.604-0.453,1.116-0.453
					c0.438,0,0.814,0.153,1.129,0.459C87.516,80.045,87.672,80.425,87.672,80.879z"/>
			</g>
			<g>
				<polygon class="st2" points="49.667,106.781 74.333,106.781 74.333,89.781 				"/>
				<polygon class="st5" points="69.5,93.112 49.667,106.781 69.5,106.781 				"/>
			</g>
			<path class="st6" d="M66.375,73.631c-1.517,0-2.75-1.233-2.75-2.75s1.233-2.75,2.75-2.75s2.75,1.233,2.75,2.75
				S67.892,73.631,66.375,73.631z M66.375,70.131c-0.413,0-0.75,0.337-0.75,0.75s0.337,0.75,0.75,0.75s0.75-0.337,0.75-0.75
				S66.788,70.131,66.375,70.131z"/>
		</g>
		<g>
			<g>
				<g>
					<path class="st4" d="M53.283,26.059l-0.054-0.071c-0.75-0.993-0.428-2.406,0.658-3.015c2.41-1.351,5.097-2.088,7.9-2.156
						v-0.005l0.425,0.005c2.803,0.068,5.491,0.804,7.9,2.155c1.086,0.609,1.408,2.022,0.657,3.015l-0.054,0.072
						c-0.626,0.828-1.758,1.019-2.666,0.514c-1.844-1.026-3.903-1.577-6.051-1.612c-2.147,0.034-4.206,0.586-6.051,1.612
						C55.041,27.078,53.909,26.887,53.283,26.059z"/>
					<path class="st4" d="M75.572,18.46c-0.614,0.865-1.783,1.096-2.697,0.558c-3.291-1.94-7.012-2.973-10.875-3.01
						c-3.864,0.037-7.584,1.07-10.874,3.009c-0.914,0.539-2.083,0.307-2.697-0.557l-0.053-0.074
						c-0.683-0.962-0.413-2.317,0.603-2.918c3.877-2.296,8.258-3.533,12.809-3.606v-0.004l0.425,0.004
						c4.55,0.072,8.931,1.31,12.809,3.606c1.015,0.601,1.286,1.956,0.603,2.918L75.572,18.46z"/>
					<g>
						<path class="st4" d="M43.363,11.433l-0.053-0.074c-0.681-0.954-0.415-2.289,0.579-2.909c5.373-3.355,11.51-5.152,17.898-5.229
							V3.219l0.425,0.003c6.389,0.076,12.525,1.874,17.898,5.228c0.994,0.621,1.26,1.956,0.579,2.91l-0.053,0.074
							c-0.621,0.87-1.809,1.106-2.715,0.54C73.147,8.991,67.685,7.406,62,7.367c-5.684,0.039-11.147,1.624-15.922,4.606
							C45.172,12.539,43.984,12.303,43.363,11.433z"/>
						<g>
							<path class="st7" d="M97.584,101.666c-1.536,2.107-3.268,4.09-5.147,5.891c-0.399,0.382-0.413,1.015-0.03,1.413
								c0.196,0.205,0.459,0.309,0.722,0.309c0.249,0,0.498-0.092,0.691-0.278c1.965-1.882,3.775-3.953,5.382-6.156
								c0.325-0.446,0.227-1.071-0.22-1.397C98.535,101.123,97.91,101.22,97.584,101.666z"/>
							<path class="st7" d="M62,29.781c-25.364,0-46,20.636-46,46s20.636,46,46,46c10.402,0,20.217-3.388,28.381-9.797
								c0.435-0.341,0.511-0.969,0.169-1.403c-0.341-0.435-0.97-0.512-1.403-0.169c-7.81,6.129-17.196,9.369-27.146,9.369
								c-24.262,0-44-19.738-44-44s19.738-44,44-44s44,19.738,44,44c0,7.974-2.154,15.782-6.229,22.582
								c-0.284,0.474-0.13,1.088,0.344,1.371c0.473,0.284,1.087,0.131,1.371-0.344C105.748,92.281,108,84.117,108,75.781
								C108,50.417,87.364,29.781,62,29.781z"/>
							<path class="st7" d="M62,35.781c-22.056,0-40,17.944-40,40s17.944,40,40,40s40-17.944,40-40S84.056,35.781,62,35.781z
								 M62,113.781c-20.953,0-38-17.047-38-38s17.047-38,38-38s38,17.047,38,38S82.953,113.781,62,113.781z"/>
							<path class="st7" d="M75.63,50.564c-0.758-5.194-4.745-9.039-9.487-9.039c-2.889,0-5.591,1.444-7.408,3.913
								c-0.921-0.605-1.974-0.931-3.054-0.931c-2.865,0-5.269,2.202-5.868,5.244c-2.966,0.409-5.27,3.24-5.27,6.659
								c0,0.545,0.059,1.093,0.174,1.628c0.67,3.105,3.201,5.273,6.154,5.273h4.962c0.528,0,0.957-0.429,0.957-0.957
								s-0.429-0.957-0.957-0.957h-4.962c-2.043,0-3.805-1.548-4.283-3.764c-0.087-0.402-0.131-0.814-0.131-1.224
								c0-2.645,1.839-4.796,4.061-4.797c0.015,0.001,0.089,0.006,0.104,0.007c0.497-0.021,0.94-0.37,0.983-0.877
								c0.207-2.464,1.959-4.322,4.076-4.322c0.96,0,1.862,0.382,2.608,1.104c0.21,0.204,0.498,0.298,0.794,0.262
								c0.29-0.039,0.547-0.21,0.696-0.462c1.439-2.434,3.818-3.887,6.363-3.887c3.932,0,7.223,3.401,7.654,7.91
								c0.037,0.387,0.304,0.713,0.675,0.825c1.809,0.549,3.071,2.455,3.071,4.636c0,1.034-0.28,2.011-0.81,2.824
								c-0.72,1.104-1.906,1.764-3.173,1.764h-3.644c-0.528,0-0.957,0.429-0.957,0.957s0.429,0.957,0.957,0.957h3.644
								c1.917,0,3.702-0.984,4.777-2.633c0.732-1.126,1.119-2.464,1.119-3.869C79.457,54.032,77.912,51.557,75.63,50.564z"/>
							<path class="st7" d="M66.417,63.313c0.528,0,0.957-0.429,0.957-0.957s-0.429-0.957-0.957-0.957h-7.084
								c-0.528,0-0.957,0.429-0.957,0.957s0.429,0.957,0.957,0.957H66.417z"/>
							<path class="st7" d="M74.798,88.896c-0.327-0.172-0.727-0.148-1.032,0.063l-24.666,17c-0.36,0.248-0.518,0.702-0.388,1.12
								s0.518,0.703,0.955,0.703h24.666c0.553,0,1-0.447,1-1v-17C75.333,89.41,75.127,89.068,74.798,88.896z M73.333,105.781H52.88
								l20.453-14.097V105.781z"/>
							<path class="st7" d="M70.603,22.101c-2.572-1.443-5.387-2.211-8.376-2.283l-0.426-0.006
								c-0.048,0.001-0.098,0.002-0.146,0.009c-2.938,0.088-5.715,0.854-8.256,2.28c-0.779,0.438-1.33,1.186-1.512,2.054
								c-0.179,0.853,0.02,1.74,0.544,2.435l0.054,0.071l0.001,0.001c0.587,0.777,1.478,1.193,2.401,1.193
								c0.521,0,1.054-0.133,1.549-0.407c1.714-0.954,3.592-1.454,5.548-1.486c1.989,0.032,3.867,0.532,5.581,1.486
								c1.369,0.761,3.029,0.43,4.004-0.856c0.525-0.695,0.725-1.584,0.546-2.438C71.933,23.285,71.382,22.537,70.603,22.101z
								 M69.918,25.457c-0.312,0.411-0.894,0.515-1.381,0.242c-2.005-1.115-4.199-1.7-6.554-1.738
								c-2.321,0.038-4.516,0.623-6.521,1.738c-0.488,0.273-1.068,0.17-1.382-0.243l-0.054-0.071
								c-0.18-0.237-0.244-0.529-0.184-0.82c0.063-0.303,0.258-0.565,0.533-0.72c2.285-1.282,4.786-1.964,7.435-2.027
								c0.023-0.001,0.047-0.002,0.07-0.005l0.307,0.005c2.649,0.063,5.15,0.746,7.436,2.027c0.275,0.154,0.47,0.416,0.533,0.719
								C70.218,24.855,70.152,25.146,69.918,25.457z"/>
							<path class="st7" d="M73.933,20.31c0.947,0,1.868-0.444,2.455-1.271l0.052-0.074c0.491-0.691,0.672-1.564,0.495-2.396
								c-0.174-0.822-0.686-1.537-1.403-1.962c-4.013-2.376-8.612-3.671-13.31-3.745l-0.426-0.004
								c-0.042-0.005-0.076,0.001-0.113,0.006c-4.66,0.089-9.228,1.383-13.214,3.743c-0.718,0.426-1.229,1.14-1.403,1.961
								c-0.176,0.831,0.004,1.704,0.548,2.471c0.916,1.29,2.646,1.649,4.021,0.84c3.129-1.844,6.716-2.837,10.356-2.871
								c3.659,0.034,7.248,1.027,10.378,2.871C72.862,20.17,73.401,20.31,73.933,20.31z M50.619,18.156
								c-0.476,0.277-1.066,0.159-1.428-0.35c-0.168-0.236-0.229-0.537-0.169-0.822c0.06-0.28,0.225-0.514,0.466-0.656
								c3.712-2.198,7.971-3.396,12.314-3.466c0.021,0,0.043-0.002,0.063-0.003l0.331,0.003c4.343,0.068,8.602,1.268,12.314,3.466
								c0.242,0.144,0.407,0.376,0.467,0.656c0.062,0.289,0.001,0.582-0.175,0.829l-0.049,0.07
								c-0.312,0.434-0.899,0.551-1.372,0.272c-3.432-2.022-7.364-3.111-11.393-3.148C57.98,15.045,54.049,16.134,50.619,18.156z"/>
							<path class="st7" d="M42.551,12.016c0.586,0.82,1.516,1.263,2.461,1.263c0.548,0,1.101-0.148,1.596-0.457
								c4.607-2.876,9.932-4.417,15.386-4.454c5.469,0.037,10.793,1.577,15.397,4.453c1.352,0.845,3.133,0.49,4.113-0.88
								c0.483-0.679,0.668-1.538,0.505-2.356c-0.162-0.819-0.661-1.541-1.368-1.983C75.127,4.16,68.759,2.3,62.22,2.222
								l-0.426-0.003c-0.028,0-0.064,0.001-0.096,0.004C55.19,2.314,48.851,4.174,43.359,7.602
								c-0.707,0.441-1.205,1.164-1.368,1.982s0.021,1.678,0.508,2.359L42.551,12.016z M44.418,9.299
								c5.202-3.248,11.213-5.004,17.381-5.077c0.02,0,0.039-0.001,0.059-0.002l0.344,0.002c6.168,0.073,12.178,1.829,17.38,5.075
								c0.244,0.153,0.41,0.394,0.467,0.677c0.057,0.284-0.005,0.57-0.225,0.879c-0.313,0.438-0.914,0.561-1.373,0.271
								c-4.918-3.071-10.604-4.717-16.457-4.757c-5.838,0.04-11.524,1.686-16.445,4.758c-0.455,0.284-1.058,0.166-1.37-0.272
								l-0.053-0.074c-0.168-0.234-0.229-0.52-0.172-0.804C44.009,9.69,44.175,9.45,44.418,9.299z"/>
						</g>
					</g>
				</g>
			</g>
		</g>
	</g>
</g>
</svg>
