<?xml version="1.0" encoding="utf-8"?>
<!-- Generator: Adobe Illustrator 22.0.1, SVG Export Plug-In . SVG Version: 6.00 Build 0)  -->
<svg version="1.1" id="Layer_1" xmlns="http://www.w3.org/2000/svg" xmlns:xlink="http://www.w3.org/1999/xlink" x="0px" y="0px"
	 viewBox="0 0 128 128" style="enable-background:new 0 0 128 128;" xml:space="preserve">
<style type="text/css">
	.st0{fill:#263238;}
	.st1{fill:#E6E7E8;}
	.st2{fill:#FFD7E5;}
	.st3{fill:#0089EF;}
	.st4{fill:#6DC9F7;}
	.st5{fill:#FA759E;}
	.st6{fill:#FFFFFF;}
	.st7{fill:#3A2C60;}
	.st8{fill:#D4FBFF;}
</style>
<g>
	<g>
		<path class="st1" d="M107.371,57.86v-7.343c0-2.277-1.684-4.168-3.871-4.494v-6.16c0-2.78-2.262-5.042-5.041-5.042H76.858
			c-0.296-0.471-0.703-0.862-1.189-1.135c-2.894-1.622-6.058-2.485-9.416-2.566l-0.481-0.006c-0.047,0.003-0.097,0.003-0.144,0.009
			c-3.308,0.097-6.435,0.959-9.296,2.564c-0.486,0.271-0.894,0.663-1.189,1.134H33.542c-2.78,0-5.042,2.262-5.042,5.042v6.16
			c-2.188,0.326-3.871,2.217-3.871,4.494v7.343c-6.063,0.675-10.794,5.83-10.794,12.07v34.362c0,2.907,2.365,5.272,5.272,5.272
			h16.26v6.952c0,2.358,1.918,4.276,4.276,4.276h52.713c2.358,0,4.277-1.918,4.277-4.276v-6.952h16.26
			c2.907,0,5.272-2.365,5.272-5.272V69.931C118.166,63.69,113.434,58.534,107.371,57.86z"/>
		<path class="st1" d="M81.244,25.207c-4.521-2.677-9.703-4.136-14.987-4.22c-0.002,0-0.005,0-0.008,0l-0.481-0.004
			c-0.027,0-0.075,0.001-0.112,0.006c-5.255,0.099-10.404,1.557-14.897,4.218c-0.78,0.461-1.337,1.237-1.527,2.131
			c-0.192,0.905,0.003,1.856,0.546,2.62l0.053,0.073c0.638,0.899,1.639,1.384,2.67,1.383c0.578,0,1.166-0.152,1.704-0.47
			c3.559-2.097,7.642-3.227,11.787-3.267c4.166,0.04,8.249,1.17,11.808,3.268c1.496,0.881,3.377,0.49,4.38-0.92l0.054-0.077
			c0.535-0.754,0.731-1.705,0.539-2.61C82.58,26.445,82.024,25.668,81.244,25.207z"/>
		<path class="st1" d="M44.096,22.08c0,0.001,0.001,0.002,0.001,0.003c0.638,0.894,1.649,1.376,2.68,1.376
			c0.596,0,1.198-0.162,1.736-0.498c5.232-3.268,11.281-5.018,17.479-5.06c6.213,0.042,12.262,1.792,17.492,5.059
			c1.473,0.921,3.41,0.534,4.418-0.88l0.058-0.081c0.527-0.738,0.729-1.673,0.551-2.564c-0.177-0.891-0.72-1.677-1.489-2.157
			c-6.217-3.881-13.398-5.979-20.775-6.067l-0.481-0.003c-0.031-0.003-0.063,0.001-0.095,0.004
			c-7.344,0.103-14.497,2.199-20.693,6.067c-0.77,0.48-1.313,1.268-1.489,2.159c-0.177,0.891,0.023,1.824,0.549,2.559L44.096,22.08z
			"/>
	</g>
	<g>
		<path class="st2" d="M94.458,31.821h-22.22c0.251,0.698,0.176,1.501-0.314,2.149l-0.061,0.081
			c-0.708,0.937-1.99,1.153-3.016,0.582c-2.087-1.161-4.417-1.785-6.846-1.823c-2.429,0.039-4.759,0.663-6.847,1.824
			c-1.027,0.571-2.308,0.355-3.016-0.582l-0.061-0.081c-0.49-0.648-0.564-1.451-0.314-2.149H29.541c-2.232,0-4.042,1.81-4.042,4.042
			v18.958h73V35.863C98.5,33.631,96.69,31.821,94.458,31.821z"/>
		<path class="st6" d="M87.8,41.349H66.263c0.152,0.453,0.254,0.929,0.254,1.433c0,2.495-2.022,4.517-4.517,4.517
			s-4.517-2.022-4.517-4.517c0-0.504,0.102-0.98,0.254-1.433H36.199c-1.746,0-3.161,1.415-3.161,3.161v10.312h57.923V44.509
			C90.961,42.764,89.546,41.349,87.8,41.349z"/>
		<path class="st6" d="M102.021,54.787H21.979c-6.155,0-11.144,4.99-11.144,11.145v34.362c0,2.359,1.913,4.272,4.272,4.272h17.26
			v-28.14h59.266v28.14h17.26c2.359,0,4.272-1.913,4.272-4.272V65.931C113.165,59.776,108.175,54.787,102.021,54.787z"/>
		<path class="st3" d="M102.021,57.787H21.979c-6.155,0-11.144,4.99-11.144,11.145v31.362c0,2.359,1.913,4.272,4.272,4.272h17.26
			v-28.14h59.266v28.14h17.26c2.359,0,4.272-1.913,4.272-4.272V68.931C113.165,62.776,108.175,57.787,102.021,57.787z"/>
		<path class="st6" d="M32.366,76.425v36.092c0,1.81,1.467,3.277,3.277,3.277h52.713c1.81,0,3.277-1.467,3.277-3.277V76.425H32.366z
			"/>
		<path class="st5" d="M95.612,64.337h-5.59c-0.944,0-1.709-0.765-1.709-1.709l0,0c0-0.944,0.765-1.709,1.709-1.709h5.59
			c0.944,0,1.709,0.765,1.709,1.709l0,0C97.321,63.572,96.556,64.337,95.612,64.337z"/>
		<rect x="32.366" y="80.425" class="st4" width="59.266" height="7.644"/>
		<g>
			<path class="st3" d="M28.716,54.787h-7.087v-8.269c0-1.957,1.587-3.544,3.544-3.544h0c1.957,0,3.544,1.587,3.544,3.544V54.787z"
				/>
			<path class="st3" d="M102.371,54.787h-7.087v-8.269c0-1.957,1.587-3.544,3.544-3.544h0c1.957,0,3.544,1.587,3.544,3.544V54.787z"
				/>
		</g>
		<g>
			<g>
				<g>
					<path class="st4" d="M52.137,34.051l-0.061-0.081c-0.849-1.124-0.484-2.722,0.744-3.411c2.727-1.529,5.768-2.363,8.939-2.439
						v-0.006l0.481,0.006c3.172,0.076,6.213,0.91,8.939,2.439c1.229,0.689,1.593,2.288,0.744,3.412l-0.061,0.081
						c-0.708,0.937-1.99,1.152-3.016,0.581c-2.087-1.161-4.417-1.785-6.846-1.823c-2.429,0.039-4.759,0.663-6.847,1.824
						C54.126,35.204,52.845,34.989,52.137,34.051z"/>
					<path class="st4" d="M77.357,25.453c-0.695,0.978-2.018,1.24-3.052,0.631C70.581,23.889,66.371,22.72,62,22.678
						c-4.372,0.041-8.582,1.211-12.305,3.405c-1.034,0.609-2.357,0.348-3.052-0.631l-0.06-0.084
						c-0.773-1.088-0.467-2.621,0.682-3.302c4.387-2.598,9.344-3.998,14.493-4.08v-0.004l0.481,0.004
						c5.149,0.082,10.106,1.482,14.493,4.08c1.149,0.68,1.455,2.213,0.682,3.302L77.357,25.453z"/>
					<path class="st4" d="M40.912,17.502l-0.06-0.084c-0.77-1.079-0.47-2.59,0.655-3.292c6.079-3.796,13.023-5.83,20.252-5.916
						V8.207L62.24,8.21c7.229,0.086,14.173,2.12,20.252,5.916c1.125,0.702,1.425,2.213,0.655,3.292l-0.06,0.084
						c-0.703,0.984-2.047,1.251-3.073,0.611C74.613,14.739,68.432,12.945,62,12.901c-6.432,0.044-12.613,1.837-18.016,5.211
						C42.959,18.753,41.614,18.486,40.912,17.502z"/>
				</g>
				<g>
					<circle class="st5" cx="62" cy="42.781" r="4.517"/>
					<g>
						<path class="st7" d="M103.371,53.866v-7.348c0-2.275-1.686-4.148-3.871-4.476v-6.178c0-2.78-2.262-5.042-5.042-5.042H72.849
							c-0.295-0.462-0.689-0.86-1.18-1.135c-2.894-1.622-6.057-2.485-9.416-2.566l-0.481-0.006
							c-0.049,0.001-0.097,0.003-0.144,0.009c-3.308,0.097-6.435,0.959-9.297,2.564c-0.491,0.275-0.885,0.672-1.179,1.134h-21.61
							c-2.78,0-5.042,2.262-5.042,5.042v6.178c-2.185,0.328-3.871,2.201-3.871,4.476v7.348c-6.062,0.675-10.794,5.825-10.794,12.065
							v13.641c0,0.553,0.447,1,1,1s1-0.447,1-1V65.931c0-5.594,4.551-10.145,10.145-10.145h3.346
							c0.059,0.011,0.113,0.035,0.174,0.035h7.538h57.924H98.5c0.062,0,0.116-0.024,0.174-0.035h3.346
							c5.594,0,10.145,4.551,10.145,10.145v34.362c0,1.805-1.468,3.272-3.271,3.272h-16.26V76.425c0-0.553-0.447-1-1-1H32.367
							c-0.553,0-1,0.447-1,1v27.141H15.106c-1.804,0-3.271-1.468-3.271-3.272v-4.555c0-0.553-0.447-1-1-1s-1,0.447-1,1v4.555
							c0,2.907,2.365,5.272,5.271,5.272h16.261v6.952c0,2.358,1.918,4.276,4.276,4.276h52.713c2.358,0,4.277-1.918,4.277-4.276
							v-6.952h16.26c2.906,0,5.271-2.365,5.271-5.272V65.931C114.165,59.691,109.433,54.541,103.371,53.866z M52.641,32.333
							c0.08-0.38,0.323-0.708,0.668-0.901c2.605-1.462,5.457-2.239,8.475-2.312c0.023-0.001,0.048-0.002,0.072-0.005l0.36,0.005
							c3.018,0.072,5.868,0.85,8.474,2.311c0.345,0.193,0.588,0.522,0.668,0.901c0.077,0.368-0.006,0.736-0.235,1.04l-0.058,0.076
							c-0.393,0.521-1.123,0.65-1.732,0.311c-2.25-1.251-4.711-1.907-7.349-1.949c-2.604,0.042-5.064,0.697-7.317,1.949
							c-0.608,0.34-1.337,0.209-1.731-0.309l-0.062-0.082C52.647,33.068,52.565,32.7,52.641,32.333z M29.542,32.821h21.096
							c0.044,0.628,0.252,1.238,0.638,1.748l0.061,0.081c0.001,0.002,0.002,0.003,0.004,0.005c1,1.323,2.809,1.682,4.299,0.852
							c1.962-1.09,4.107-1.661,6.346-1.697c2.272,0.036,4.418,0.607,6.376,1.697c0.539,0.3,1.119,0.444,1.688,0.444
							c1.005,0,1.975-0.452,2.616-1.301l0.058-0.077c0.387-0.512,0.597-1.124,0.64-1.752h21.096c1.678,0,3.042,1.364,3.042,3.042
							v6.331c-1.855,0.572-3.216,2.282-3.216,4.323v7.269h-2.322V44.51c0-2.295-1.866-4.161-4.161-4.161H66.944
							c-0.901-1.824-2.776-3.084-4.945-3.084s-4.043,1.26-4.945,3.084H36.199c-2.295,0-4.161,1.866-4.161,4.161v9.276h-2.321v-7.269
							c0-2.041-1.361-3.751-3.217-4.323v-6.331C26.5,34.186,27.864,32.821,29.542,32.821z M62,48.299
							c3.042,0,5.518-2.476,5.518-5.518c0-0.146-0.011-0.289-0.022-0.433H87.8c1.191,0,2.161,0.97,2.161,2.161v9.276H34.038V44.51
							c0-1.191,0.97-2.161,2.161-2.161h20.305c-0.011,0.143-0.022,0.287-0.022,0.433C56.482,45.823,58.958,48.299,62,48.299z
							 M58.482,42.781c0-1.939,1.578-3.517,3.518-3.517s3.518,1.577,3.518,3.517S63.939,46.299,62,46.299
							S58.482,44.721,58.482,42.781z M22.628,46.518c0-1.402,1.142-2.544,2.544-2.544s2.544,1.142,2.544,2.544v7.269h-5.088V46.518z
							 M96.284,53.786v-7.269c0-1.402,1.141-2.544,2.543-2.544s2.544,1.142,2.544,2.544v7.269H96.284z M90.633,112.518
							c0,1.255-1.021,2.276-2.277,2.276H35.643c-1.255,0-2.276-1.021-2.276-2.276V77.425h57.267V112.518z"/>
						<path class="st7" d="M10.834,92.071c0.553,0,1-0.447,1-1v-6.833c0-0.553-0.447-1-1-1s-1,0.447-1,1v6.833
							C9.834,91.624,10.282,92.071,10.834,92.071z"/>
						<path class="st7" d="M95.612,65.337c1.494,0,2.709-1.215,2.709-2.709s-1.215-2.709-2.709-2.709h-5.59
							c-1.494,0-2.71,1.215-2.71,2.709s1.216,2.709,2.71,2.709H95.612z M89.312,62.628c0-0.391,0.318-0.709,0.71-0.709h5.59
							c0.391,0,0.709,0.318,0.709,0.709s-0.318,0.709-0.709,0.709h-5.59C89.63,63.337,89.312,63.019,89.312,62.628z"/>
						<path class="st7" d="M42,93.215h40.698c0.553,0,1-0.447,1-1s-0.447-1-1-1H42c-0.553,0-1,0.447-1,1S41.447,93.215,42,93.215z"
							/>
						<path class="st7" d="M42,100.792h40.698c0.553,0,1-0.447,1-1s-0.447-1-1-1H42c-0.553,0-1,0.447-1,1S41.447,100.792,42,100.792
							z"/>
						<path class="st7" d="M42,108.369h40.698c0.553,0,1-0.447,1-1s-0.447-1-1-1H42c-0.553,0-1,0.447-1,1S41.447,108.369,42,108.369
							z"/>
						<path class="st7" d="M77.244,21.207c-4.521-2.677-9.703-4.136-14.995-4.22l-0.481-0.004c-0.026,0.001-0.075,0.001-0.112,0.006
							c-5.255,0.099-10.404,1.557-14.897,4.218c-0.781,0.461-1.337,1.238-1.527,2.131c-0.192,0.905,0.004,1.856,0.542,2.614
							l0.057,0.079c0.995,1.402,2.878,1.797,4.375,0.913c3.558-2.097,7.64-3.227,11.786-3.267c4.166,0.04,8.249,1.17,11.808,3.268
							c0.538,0.317,1.125,0.47,1.704,0.47c1.03,0,2.031-0.484,2.67-1.382c0.001-0.001,0.001-0.001,0.001-0.002l0.06-0.084
							c0.535-0.753,0.73-1.704,0.538-2.609C78.58,22.444,78.023,21.668,77.244,21.207z M76.601,24.791l-0.06,0.083
							c-0.39,0.55-1.134,0.699-1.729,0.349c-3.859-2.275-8.287-3.502-12.823-3.545c-4.516,0.043-8.942,1.269-12.802,3.544
							c-0.595,0.349-1.339,0.201-1.731-0.353L47.4,24.79c-0.212-0.299-0.29-0.676-0.214-1.036c0.075-0.353,0.284-0.646,0.59-0.826
							c4.221-2.499,9.062-3.862,13.999-3.94c0.022,0,0.044-0.002,0.064-0.003l0.386,0.003c4.937,0.078,9.777,1.441,14,3.94
							c0.305,0.181,0.514,0.474,0.589,0.826C76.89,24.114,76.813,24.492,76.601,24.791z"/>
						<path class="st7" d="M40.096,18.08c0,0.001,0.001,0.002,0.001,0.003c0.638,0.894,1.649,1.376,2.68,1.376
							c0.596,0,1.198-0.162,1.736-0.498c5.232-3.268,11.281-5.018,17.479-5.06c6.213,0.042,12.262,1.792,17.492,5.059
							c1.472,0.92,3.41,0.533,4.418-0.88l0.058-0.081c0.527-0.738,0.729-1.673,0.551-2.564c-0.177-0.891-0.72-1.677-1.489-2.157
							C76.807,9.397,69.625,7.299,62.247,7.21l-0.481-0.003c-0.031-0.003-0.063,0.001-0.095,0.004
							c-7.344,0.103-14.497,2.199-20.692,6.066c-0.77,0.48-1.313,1.268-1.49,2.158c-0.177,0.892,0.023,1.825,0.549,2.561
							L40.096,18.08z M42.037,14.975c5.906-3.688,12.73-5.681,19.734-5.765c0.021,0,0.04-0.001,0.059-0.003l0.399,0.003
							c7.006,0.084,13.83,2.077,19.734,5.765c0.307,0.191,0.516,0.493,0.586,0.851c0.071,0.357-0.006,0.717-0.218,1.015
							l-0.058,0.081c-0.394,0.552-1.153,0.703-1.729,0.343C75,13.801,68.589,11.946,61.993,11.901
							C55.411,11.946,49,13.801,43.454,17.265c-0.575,0.358-1.333,0.208-1.727-0.342l-0.062-0.086
							c-0.21-0.295-0.287-0.654-0.216-1.011C41.521,15.469,41.729,15.166,42.037,14.975z"/>
					</g>
				</g>
			</g>
		</g>
	</g>
</g>
</svg>
