<?xml version="1.0" encoding="utf-8"?>
<!-- Generator: Adobe Illustrator 22.0.0, SVG Export Plug-In . SVG Version: 6.00 Build 0)  -->
<svg version="1.1" id="Icon_Set" xmlns="http://www.w3.org/2000/svg" xmlns:xlink="http://www.w3.org/1999/xlink" x="0px" y="0px"
	 viewBox="0 0 64 64" style="enable-background:new 0 0 64 64;" xml:space="preserve">
<style type="text/css">
	.st0{fill:#212A41;}
	.st1{fill:#4E4B51;}
	.st2{fill:#6C696F;}
	.st3{fill:#B7C0D7;}
	.st4{fill:#D5DEF5;}
	.st5{fill:#99A2B9;}
	.st6{fill:#E0E0E0;}
	.st7{fill:#D32E5E;}
	.st8{fill:#F9AC2F;}
	.st9{fill:#0079A8;}
	.st10{fill:#BED38E;}
	.st11{fill:#8A878D;}
	.st12{fill:#C2C2C2;}
	.st13{fill:#302D33;}
	.st14{fill:#FEFEFE;}
	.st15{fill:#FFCA4D;}
	.st16{fill:#DB8E11;}
	.st17{fill:#A4A4A4;}
	.st18{fill:#7B849B;}
	.st19{fill:#E0C8A4;}
	.st20{fill:#C2AA86;}
	.st21{fill:#FEE6C2;}
	.st22{fill:#1E97C6;}
	.st23{fill:#005B8A;}
	.st24{fill:#BD7000;}
</style>
<g>
	<g>
		<path class="st2" d="M54.183,21.62C51.643,15.779,45.88,12,39.51,12H12v23h48L54.183,21.62z M32,28h-6V16.838
			c3.53,1.544,6,5.063,6,9.162V28z"/>
		<path class="st0" d="M60,35.5H12c-0.276,0-0.5-0.224-0.5-0.5V12c0-0.276,0.224-0.5,0.5-0.5h27.51
			c6.571,0,12.511,3.894,15.132,9.921l0,0l5.817,13.38c0.066,0.154,0.052,0.333-0.041,0.473C60.326,35.415,60.169,35.5,60,35.5z
			 M12.5,34.5h46.737l-5.514-12.681C51.263,16.158,45.683,12.5,39.51,12.5H12.5V34.5z M32,28.5h-6c-0.276,0-0.5-0.224-0.5-0.5
			V16.838c0-0.169,0.085-0.326,0.227-0.418c0.14-0.094,0.317-0.107,0.474-0.04c3.827,1.673,6.3,5.449,6.3,9.62v2
			C32.5,28.276,32.276,28.5,32,28.5z M26.5,27.5h5V26c0-3.513-1.938-6.716-5-8.363V27.5z"/>
	</g>
	<g>
		<path class="st1" d="M25.51,12H12v23h34l-5.817-13.38C37.643,15.779,31.88,12,25.51,12z M32,28H16V16h6c5.523,0,10,4.477,10,10V28
			z"/>
		<path class="st0" d="M46,35.5H12c-0.276,0-0.5-0.224-0.5-0.5V12c0-0.276,0.224-0.5,0.5-0.5h13.51
			c6.571,0,12.511,3.895,15.132,9.921l5.817,13.379c0.066,0.154,0.052,0.333-0.041,0.473C46.326,35.415,46.169,35.5,46,35.5z
			 M12.5,34.5h32.737l-5.514-12.68c-2.461-5.662-8.041-9.32-14.214-9.32H12.5V34.5z M32,28.5H16c-0.276,0-0.5-0.224-0.5-0.5V16
			c0-0.276,0.224-0.5,0.5-0.5h6c5.79,0,10.5,4.71,10.5,10.5v2C32.5,28.276,32.276,28.5,32,28.5z M16.5,27.5h15V26
			c0-5.238-4.262-9.5-9.5-9.5h-5.5V27.5z"/>
	</g>
	<g>
		<path class="st1" d="M56.949,33.5c-0.192,0-0.377-0.112-0.459-0.301L51.89,22.617c-2.144-4.931-7.003-8.117-12.38-8.117
			c-0.276,0-0.5-0.224-0.5-0.5s0.224-0.5,0.5-0.5c5.774,0,10.994,3.422,13.298,8.718l4.601,10.583
			c0.109,0.253-0.007,0.548-0.26,0.658C57.084,33.487,57.016,33.5,56.949,33.5z"/>
	</g>
	<g>
		<path class="st13" d="M42.949,33.5c-0.192,0-0.377-0.112-0.459-0.301L37.89,22.617c-2.144-4.931-7.003-8.117-12.38-8.117
			c-0.276,0-0.5-0.224-0.5-0.5s0.224-0.5,0.5-0.5c5.774,0,10.994,3.422,13.298,8.718l4.601,10.583
			c0.109,0.253-0.007,0.548-0.26,0.658C43.084,33.487,43.016,33.5,42.949,33.5z"/>
	</g>
	<g>
		<path class="st6" d="M59,39H29c-0.552,0-1-0.448-1-1v-3h32v3C60,38.552,59.552,39,59,39z"/>
		<path class="st0" d="M59,39.5H29c-0.827,0-1.5-0.673-1.5-1.5v-3c0-0.276,0.224-0.5,0.5-0.5h32c0.276,0,0.5,0.224,0.5,0.5v3
			C60.5,38.827,59.827,39.5,59,39.5z M28.5,35.5V38c0,0.276,0.225,0.5,0.5,0.5h30c0.275,0,0.5-0.224,0.5-0.5v-2.5H28.5z"/>
	</g>
	<g>
		<path class="st6" d="M45,39H15.5c-0.315,0-0.611-0.148-0.8-0.4L12,35h34v3C46,38.552,45.552,39,45,39z"/>
		<path class="st0" d="M45,39.5H15.5c-0.47,0-0.918-0.224-1.2-0.6l-2.7-3.6c-0.113-0.151-0.132-0.354-0.047-0.523
			S11.811,34.5,12,34.5h34c0.276,0,0.5,0.224,0.5,0.5v3C46.5,38.827,45.827,39.5,45,39.5z M13,35.5l2.101,2.8
			c0.094,0.125,0.243,0.2,0.399,0.2H45c0.275,0,0.5-0.224,0.5-0.5v-2.5H13z"/>
	</g>
	<g>
		<path class="st1" d="M10,20h2v-8h-2c-1.105,0-2,0.895-2,2v4C8,19.105,8.895,20,10,20z"/>
		<path class="st0" d="M12,20.5h-2c-1.379,0-2.5-1.122-2.5-2.5v-4c0-1.378,1.121-2.5,2.5-2.5h2c0.276,0,0.5,0.224,0.5,0.5v8
			C12.5,20.276,12.276,20.5,12,20.5z M10,12.5c-0.827,0-1.5,0.673-1.5,1.5v4c0,0.827,0.673,1.5,1.5,1.5h1.5v-7H10z"/>
	</g>
	<g>
		<path class="st0" d="M52,49.497H8c-2.481,0-4.5-2.019-4.5-4.5v-25c0-2.481,2.019-4.5,4.5-4.5c0.276,0,0.5,0.224,0.5,0.5
			s-0.224,0.5-0.5,0.5c-1.93,0-3.5,1.57-3.5,3.5v25c0,1.93,1.57,3.5,3.5,3.5h44c0.276,0,0.5,0.224,0.5,0.5S52.276,49.497,52,49.497z
			"/>
	</g>
	<g>
		<path class="st0" d="M60,51.5h-2c-0.276,0-0.5-0.224-0.5-0.5s0.224-0.5,0.5-0.5h2c0.276,0,0.5,0.224,0.5,0.5S60.276,51.5,60,51.5z
			"/>
	</g>
	<g>
		<path class="st0" d="M60,47.5h-2c-0.276,0-0.5-0.224-0.5-0.5s0.224-0.5,0.5-0.5h2c0.276,0,0.5,0.224,0.5,0.5S60.276,47.5,60,47.5z
			"/>
	</g>
	<g>
		<path class="st2" d="M58,52h-3c-1.657,0-3-1.343-3-3v0c0-1.657,1.343-3,3-3h3V52z"/>
		<path class="st0" d="M58,52.5h-3c-1.93,0-3.5-1.57-3.5-3.5s1.57-3.5,3.5-3.5h3c0.276,0,0.5,0.224,0.5,0.5v6
			C58.5,52.276,58.276,52.5,58,52.5z M55,46.5c-1.379,0-2.5,1.122-2.5,2.5s1.121,2.5,2.5,2.5h2.5v-5H55z"/>
	</g>
	<g>
		<path class="st8" d="M28,28h-8v-2c0-0.552,0.448-1,1-1h6c0.552,0,1,0.448,1,1V28z"/>
		<path class="st0" d="M28,28.5h-8c-0.276,0-0.5-0.224-0.5-0.5v-2c0-0.827,0.673-1.5,1.5-1.5h6c0.827,0,1.5,0.673,1.5,1.5v2
			C28.5,28.276,28.276,28.5,28,28.5z M20.5,27.5h7V26c0-0.276-0.225-0.5-0.5-0.5h-6c-0.275,0-0.5,0.224-0.5,0.5V27.5z"/>
	</g>
	<g>
		<circle class="st7" cx="36.5" cy="30.5" r="1.5"/>
		<path class="st0" d="M36.5,32.5c-1.103,0-2-0.897-2-2s0.897-2,2-2s2,0.897,2,2S37.603,32.5,36.5,32.5z M36.5,29.5
			c-0.552,0-1,0.449-1,1s0.448,1,1,1s1-0.449,1-1S37.052,29.5,36.5,29.5z"/>
	</g>
	<g>
		<path class="st2" d="M14,33.5c-0.276,0-0.5-0.224-0.5-0.5V14c0-0.276,0.224-0.5,0.5-0.5s0.5,0.224,0.5,0.5v19
			C14.5,33.276,14.276,33.5,14,33.5z"/>
	</g>
	<g>
		<path class="st11" d="M18,26.5c-0.276,0-0.5-0.224-0.5-0.5v-8c0-0.276,0.224-0.5,0.5-0.5s0.5,0.224,0.5,0.5v8
			C18.5,26.276,18.276,26.5,18,26.5z"/>
	</g>
</g>
</svg>
