<?xml version="1.0" encoding="utf-8"?>
<!-- Generator: Adobe Illustrator 22.0.0, SVG Export Plug-In . SVG Version: 6.00 Build 0)  -->
<svg version="1.1" id="Icon_Set" xmlns="http://www.w3.org/2000/svg" xmlns:xlink="http://www.w3.org/1999/xlink" x="0px" y="0px"
	 viewBox="0 0 64 64" style="enable-background:new 0 0 64 64;" xml:space="preserve">
<style type="text/css">
	.st0{fill:#212A41;}
	.st1{fill:#4E4B51;}
	.st2{fill:#6C696F;}
	.st3{fill:#B7C0D7;}
	.st4{fill:#D5DEF5;}
	.st5{fill:#99A2B9;}
	.st6{fill:#E0E0E0;}
	.st7{fill:#D32E5E;}
	.st8{fill:#F9AC2F;}
	.st9{fill:#0079A8;}
	.st10{fill:#BED38E;}
	.st11{fill:#8A878D;}
	.st12{fill:#C2C2C2;}
	.st13{fill:#302D33;}
	.st14{fill:#FEFEFE;}
	.st15{fill:#FFCA4D;}
	.st16{fill:#DB8E11;}
	.st17{fill:#A4A4A4;}
	.st18{fill:#7B849B;}
	.st19{fill:#E0C8A4;}
	.st20{fill:#C2AA86;}
	.st21{fill:#FEE6C2;}
	.st22{fill:#1E97C6;}
	.st23{fill:#005B8A;}
	.st24{fill:#BD7000;}
</style>
<g>
	<g>
		<path class="st1" d="M28,9h-8c-4.418,0-8,3.582-8,8h24C36,12.582,32.418,9,28,9z"/>
		<path class="st0" d="M36,17.5H12c-0.276,0-0.5-0.224-0.5-0.5c0-4.687,3.813-8.5,8.5-8.5h8c4.687,0,8.5,3.813,8.5,8.5
			C36.5,17.276,36.276,17.5,36,17.5z M12.517,16.5h22.967c-0.258-3.903-3.516-7-7.483-7h-8C16.033,9.5,12.775,12.597,12.517,16.5z"
			/>
	</g>
	<g>
		<path class="st6" d="M46,19h-2v4h2c3.314,0,6,2.686,6,6v9c0,3.314-2.686,6-6,6h-2v4h2c5.523,0,10-4.477,10-10v-9
			C56,23.477,51.523,19,46,19z"/>
		<path class="st0" d="M46,48.5h-2c-0.276,0-0.5-0.224-0.5-0.5v-4c0-0.276,0.224-0.5,0.5-0.5h2c3.032,0,5.5-2.467,5.5-5.5v-9
			c0-3.033-2.468-5.5-5.5-5.5h-2c-0.276,0-0.5-0.224-0.5-0.5v-4c0-0.276,0.224-0.5,0.5-0.5h2c5.79,0,10.5,4.71,10.5,10.5v9
			C56.5,43.79,51.79,48.5,46,48.5z M44.5,47.5H46c5.238,0,9.5-4.262,9.5-9.5v-9c0-5.238-4.262-9.5-9.5-9.5h-1.5v3H46
			c3.584,0,6.5,2.916,6.5,6.5v9c0,3.584-2.916,6.5-6.5,6.5h-1.5V47.5z"/>
	</g>
	<g>
		<path class="st1" d="M36,51H12c-1.105,0-2,0.895-2,2v4c0,1.105,0.895,2,2,2h24c1.105,0,2-0.895,2-2v-4C38,51.895,37.105,51,36,51z
			"/>
		<path class="st0" d="M36,59.5H12c-1.378,0-2.5-1.122-2.5-2.5v-4c0-1.378,1.122-2.5,2.5-2.5h24c1.379,0,2.5,1.122,2.5,2.5v4
			C38.5,58.378,37.379,59.5,36,59.5z M12,51.5c-0.827,0-1.5,0.673-1.5,1.5v4c0,0.827,0.673,1.5,1.5,1.5h24
			c0.827,0,1.5-0.673,1.5-1.5v-4c0-0.827-0.673-1.5-1.5-1.5H12z"/>
	</g>
	<g>
		<path class="st2" d="M44,51H20c-1.105,0-2,0.895-2,2v4c0,1.105,0.895,2,2,2h24c1.105,0,2-0.895,2-2v-4C46,51.895,45.105,51,44,51z
			"/>
		<path class="st0" d="M44,59.5H20c-1.378,0-2.5-1.122-2.5-2.5v-4c0-1.378,1.122-2.5,2.5-2.5h24c1.379,0,2.5,1.122,2.5,2.5v4
			C46.5,58.378,45.379,59.5,44,59.5z M20,51.5c-0.827,0-1.5,0.673-1.5,1.5v4c0,0.827,0.673,1.5,1.5,1.5h24
			c0.827,0,1.5-0.673,1.5-1.5v-4c0-0.827-0.673-1.5-1.5-1.5H20z"/>
	</g>
	<g>
		<path class="st2" d="M28,5L28,5c-2.209,0-4,1.791-4,4v0h8v0C32,6.791,30.209,5,28,5z"/>
		<path class="st0" d="M32,9.5h-8c-0.276,0-0.5-0.224-0.5-0.5c0-2.481,2.019-4.5,4.5-4.5s4.5,2.019,4.5,4.5
			C32.5,9.276,32.276,9.5,32,9.5z M24.536,8.5h6.929c-0.243-1.694-1.704-3-3.464-3S24.779,6.806,24.536,8.5z"/>
	</g>
	<g>
		<path class="st2" d="M36,9h-8c-4.418,0-8,3.582-8,8h24C44,12.582,40.418,9,36,9z"/>
		<path class="st0" d="M44,17.5H20c-0.276,0-0.5-0.224-0.5-0.5c0-4.687,3.813-8.5,8.5-8.5h8c4.687,0,8.5,3.813,8.5,8.5
			C44.5,17.276,44.276,17.5,44,17.5z M20.517,16.5h22.967c-0.258-3.903-3.516-7-7.483-7h-8C24.033,9.5,20.775,12.597,20.517,16.5z"
			/>
	</g>
	<g>
		<path class="st1" d="M41.657,15.5c-0.206,0-0.398-0.128-0.472-0.333C40.408,12.974,38.324,11.5,36,11.5
			c-0.276,0-0.5-0.224-0.5-0.5s0.224-0.5,0.5-0.5c2.747,0,5.21,1.741,6.129,4.333c0.092,0.26-0.044,0.546-0.305,0.638
			C41.77,15.491,41.713,15.5,41.657,15.5z"/>
	</g>
	<g>
		<path class="st11" d="M22.343,15.5c-0.056,0-0.112-0.009-0.167-0.029c-0.26-0.092-0.396-0.378-0.304-0.638
			C22.79,12.241,25.253,10.5,28,10.5c0.276,0,0.5,0.224,0.5,0.5s-0.224,0.5-0.5,0.5c-2.324,0-4.409,1.474-5.186,3.667
			C22.741,15.372,22.548,15.5,22.343,15.5z"/>
	</g>
	<g>
		<path class="st2" d="M14.343,15.5c-0.056,0-0.112-0.009-0.167-0.029c-0.26-0.092-0.396-0.378-0.304-0.638
			C14.79,12.241,17.253,10.5,20,10.5c0.276,0,0.5,0.224,0.5,0.5s-0.224,0.5-0.5,0.5c-2.324,0-4.409,1.474-5.186,3.667
			C14.741,15.372,14.548,15.5,14.343,15.5z"/>
	</g>
	<g>
		<path class="st12" d="M36,17H4l7.328,10.992C11.766,28.649,12,29.421,12,30.211V51h24V17z"/>
		<path class="st0" d="M36,51.5H12c-0.276,0-0.5-0.224-0.5-0.5V30.211c0-0.693-0.203-1.364-0.588-1.941L3.584,17.277
			c-0.102-0.153-0.112-0.351-0.025-0.513S3.815,16.5,4,16.5h32c0.276,0,0.5,0.224,0.5,0.5v34C36.5,51.276,36.276,51.5,36,51.5z
			 M12.5,50.5h23v-33H4.934l6.81,10.215c0.495,0.742,0.756,1.605,0.756,2.496V50.5z"/>
	</g>
	<g>
		<path class="st6" d="M44,17H12l7.328,10.992C19.766,28.649,20,29.421,20,30.211V51h24V17z"/>
		<path class="st0" d="M44,51.5H20c-0.276,0-0.5-0.224-0.5-0.5V30.211c0-0.693-0.203-1.364-0.588-1.941l-7.328-10.992
			c-0.102-0.153-0.112-0.351-0.025-0.513S11.815,16.5,12,16.5h32c0.276,0,0.5,0.224,0.5,0.5v34C44.5,51.276,44.276,51.5,44,51.5z
			 M20.5,50.5h23v-33H12.934l6.81,10.215c0.495,0.742,0.756,1.605,0.756,2.496V50.5z"/>
	</g>
	<g>
		<path class="st14" d="M22,49.5c-0.276,0-0.5-0.224-0.5-0.5V30.211c0-1.09-0.319-2.145-0.924-3.051l-5.255-7.883
			c-0.153-0.23-0.091-0.54,0.139-0.693c0.23-0.154,0.54-0.091,0.693,0.139l5.255,7.883c0.714,1.071,1.092,2.317,1.092,3.605V49
			C22.5,49.276,22.276,49.5,22,49.5z"/>
	</g>
	<g>
		<path class="st6" d="M14,49.5c-0.276,0-0.5-0.224-0.5-0.5V30.211c0-1.09-0.319-2.145-0.924-3.051l-5.255-7.883
			c-0.153-0.23-0.091-0.54,0.139-0.693C7.69,18.43,8,18.493,8.153,18.723l5.255,7.883c0.714,1.071,1.092,2.317,1.092,3.605V49
			C14.5,49.276,14.276,49.5,14,49.5z"/>
	</g>
	<g>
		<path class="st3" d="M33,43h-2c-0.552,0-1-0.448-1-1V26c0-0.552,0.448-1,1-1h2c0.552,0,1,0.448,1,1v16C34,42.552,33.552,43,33,43z
			"/>
		<path class="st0" d="M33,43.5h-2c-0.827,0-1.5-0.673-1.5-1.5V26c0-0.827,0.673-1.5,1.5-1.5h2c0.827,0,1.5,0.673,1.5,1.5v16
			C34.5,42.827,33.827,43.5,33,43.5z M31,25.5c-0.276,0-0.5,0.224-0.5,0.5v16c0,0.276,0.224,0.5,0.5,0.5h2
			c0.275,0,0.5-0.224,0.5-0.5V26c0-0.276-0.225-0.5-0.5-0.5H31z"/>
	</g>
	<g>
		<path class="st12" d="M42,49.5c-0.276,0-0.5-0.224-0.5-0.5V19c0-0.276,0.224-0.5,0.5-0.5s0.5,0.224,0.5,0.5v30
			C42.5,49.276,42.276,49.5,42,49.5z"/>
	</g>
	<g>
		<path class="st1" d="M44,57.5c-0.276,0-0.5-0.224-0.5-0.5v-4c0-0.276,0.224-0.5,0.5-0.5s0.5,0.224,0.5,0.5v4
			C44.5,57.276,44.276,57.5,44,57.5z"/>
	</g>
	<g>
		<path class="st11" d="M20,57.5c-0.276,0-0.5-0.224-0.5-0.5v-4c0-0.276,0.224-0.5,0.5-0.5s0.5,0.224,0.5,0.5v4
			C20.5,57.276,20.276,57.5,20,57.5z"/>
	</g>
	<g>
		<path class="st2" d="M12,57.5c-0.276,0-0.5-0.224-0.5-0.5v-4c0-0.276,0.224-0.5,0.5-0.5s0.5,0.224,0.5,0.5v4
			C12.5,57.276,12.276,57.5,12,57.5z"/>
	</g>
	<g>
		<path class="st0" d="M52,55.5h-6c-0.276,0-0.5-0.224-0.5-0.5s0.224-0.5,0.5-0.5h6c0.276,0,0.5,0.224,0.5,0.5S52.276,55.5,52,55.5z
			"/>
	</g>
	<g>
		<path class="st0" d="M60,57.5h-2c-0.276,0-0.5-0.224-0.5-0.5s0.224-0.5,0.5-0.5h2c0.276,0,0.5,0.224,0.5,0.5S60.276,57.5,60,57.5z
			"/>
	</g>
	<g>
		<path class="st0" d="M60,53.5h-2c-0.276,0-0.5-0.224-0.5-0.5s0.224-0.5,0.5-0.5h2c0.276,0,0.5,0.224,0.5,0.5S60.276,53.5,60,53.5z
			"/>
	</g>
	<g>
		<path class="st2" d="M57.994,58h-3c-1.657,0-3-1.343-3-3v0c0-1.657,1.343-3,3-3h3V58z"/>
		<path class="st0" d="M57.994,58.5h-3c-1.93,0-3.5-1.57-3.5-3.5s1.57-3.5,3.5-3.5h3c0.276,0,0.5,0.224,0.5,0.5v6
			C58.494,58.276,58.271,58.5,57.994,58.5z M54.994,52.5c-1.379,0-2.5,1.122-2.5,2.5s1.121,2.5,2.5,2.5h2.5v-5H54.994z"/>
	</g>
	<g>
		<circle class="st7" cx="32" cy="55" r="1.5"/>
		<path class="st0" d="M32,57c-1.103,0-2-0.897-2-2s0.897-2,2-2c1.103,0,2,0.897,2,2S33.103,57,32,57z M32,54c-0.551,0-1,0.449-1,1
			s0.449,1,1,1s1-0.449,1-1S32.551,54,32,54z"/>
	</g>
</g>
</svg>
