<?xml version="1.0" encoding="utf-8"?>
<!-- Generator: Adobe Illustrator 22.0.0, SVG Export Plug-In . SVG Version: 6.00 Build 0)  -->
<svg version="1.1" id="Icon_Set" xmlns="http://www.w3.org/2000/svg" xmlns:xlink="http://www.w3.org/1999/xlink" x="0px" y="0px"
	 viewBox="0 0 64 64" style="enable-background:new 0 0 64 64;" xml:space="preserve">
<style type="text/css">
	.st0{fill:#212A41;}
	.st1{fill:#4E4B51;}
	.st2{fill:#6C696F;}
	.st3{fill:#B7C0D7;}
	.st4{fill:#D5DEF5;}
	.st5{fill:#99A2B9;}
	.st6{fill:#E0E0E0;}
	.st7{fill:#D32E5E;}
	.st8{fill:#F9AC2F;}
	.st9{fill:#0079A8;}
	.st10{fill:#BED38E;}
	.st11{fill:#8A878D;}
	.st12{fill:#C2C2C2;}
	.st13{fill:#302D33;}
	.st14{fill:#FEFEFE;}
	.st15{fill:#FFCA4D;}
	.st16{fill:#DB8E11;}
	.st17{fill:#A4A4A4;}
	.st18{fill:#7B849B;}
	.st19{fill:#E0C8A4;}
	.st20{fill:#C2AA86;}
	.st21{fill:#FEE6C2;}
	.st22{fill:#1E97C6;}
	.st23{fill:#005B8A;}
	.st24{fill:#BD7000;}
</style>
<g>
	<g>
		<path class="st8" d="M49.77,28H14.23c-0.634,0-1.108-0.583-0.979-1.204l4.583-22C17.931,4.332,18.339,4,18.813,4h26.374
			c0.474,0,0.882,0.332,0.979,0.796l4.583,22C50.879,27.417,50.405,28,49.77,28z"/>
		<path class="st0" d="M49.77,28.5H14.23c-0.454,0-0.877-0.202-1.164-0.554s-0.397-0.809-0.305-1.252l4.583-22
			C17.489,4.002,18.106,3.5,18.813,3.5h26.374c0.707,0,1.324,0.502,1.468,1.194l4.583,22c0.093,0.443-0.019,0.9-0.305,1.252
			S50.224,28.5,49.77,28.5z M18.813,4.5c-0.235,0-0.441,0.167-0.49,0.397l-4.583,22c-0.031,0.148,0.006,0.301,0.102,0.418
			c0.095,0.117,0.236,0.185,0.388,0.185h35.54c0.151,0,0.292-0.067,0.388-0.185c0.096-0.117,0.133-0.27,0.102-0.418l-4.583-22
			c-0.048-0.23-0.254-0.397-0.49-0.397H18.813z"/>
	</g>
	<g>
		<path class="st15" d="M15.46,26.5c-0.034,0-0.068-0.003-0.103-0.011c-0.271-0.056-0.444-0.321-0.387-0.591l4.167-20
			c0.056-0.271,0.315-0.45,0.591-0.388c0.271,0.056,0.444,0.321,0.387,0.591l-4.167,20C15.9,26.338,15.692,26.5,15.46,26.5z"/>
	</g>
	<g>
		<path class="st16" d="M48.54,26.5c-0.232,0-0.44-0.162-0.489-0.398l-4.167-20c-0.057-0.27,0.117-0.535,0.387-0.591
			c0.272-0.062,0.535,0.116,0.591,0.388l4.167,20c0.057,0.27-0.117,0.535-0.387,0.591C48.608,26.497,48.574,26.5,48.54,26.5z"/>
	</g>
	<g>
		<path class="st0" d="M48,37.5c-0.276,0-0.5-0.224-0.5-0.5v-9c0-0.276,0.224-0.5,0.5-0.5s0.5,0.224,0.5,0.5v9
			C48.5,37.276,48.276,37.5,48,37.5z"/>
	</g>
	<g>
		<circle class="st2" cx="48" cy="38.5" r="1.5"/>
		<path class="st0" d="M48,40.5c-1.103,0-2-0.897-2-2s0.897-2,2-2s2,0.897,2,2S49.103,40.5,48,40.5z M48,37.5c-0.551,0-1,0.448-1,1
			s0.449,1,1,1s1-0.448,1-1S48.551,37.5,48,37.5z"/>
	</g>
	<g>
		<path class="st12" d="M21,44v12h16V44c0-2.209-1.791-4-4-4h-8C22.791,40,21,41.791,21,44z"/>
		<path class="st0" d="M37,56.5H21c-0.276,0-0.5-0.224-0.5-0.5V44c0-2.481,2.019-4.5,4.5-4.5h8c2.481,0,4.5,2.019,4.5,4.5v12
			C37.5,56.276,37.276,56.5,37,56.5z M21.5,55.5h15V44c0-1.93-1.57-3.5-3.5-3.5h-8c-1.93,0-3.5,1.57-3.5,3.5V55.5z"/>
	</g>
	<g>
		<path class="st6" d="M27,44v12h16V44c0-2.209-1.791-4-4-4h-8C28.791,40,27,41.791,27,44z"/>
		<path class="st0" d="M43,56.5H27c-0.276,0-0.5-0.224-0.5-0.5V44c0-2.481,2.019-4.5,4.5-4.5h8c2.481,0,4.5,2.019,4.5,4.5v12
			C43.5,56.276,43.276,56.5,43,56.5z M27.5,55.5h15V44c0-1.93-1.57-3.5-3.5-3.5h-8c-1.93,0-3.5,1.57-3.5,3.5V55.5z"/>
	</g>
	<g>
		<polygon class="st6" points="39,40 31,40 33,28 37,28 		"/>
		<path class="st0" d="M39,40.5h-8c-0.147,0-0.287-0.064-0.381-0.177c-0.095-0.112-0.136-0.261-0.112-0.405l2-12
			C32.547,27.677,32.755,27.5,33,27.5h4c0.245,0,0.453,0.177,0.493,0.418l2,12c0.024,0.145-0.017,0.293-0.112,0.405
			C39.287,40.436,39.147,40.5,39,40.5z M31.59,39.5h6.819l-1.833-11h-3.153L31.59,39.5z"/>
	</g>
	<g>
		<path class="st12" d="M36.639,38.5c-0.242,0-0.454-0.175-0.493-0.421l-1.279-8c-0.043-0.272,0.142-0.529,0.415-0.573
			c0.279-0.041,0.53,0.143,0.573,0.415l1.279,8c0.043,0.272-0.142,0.529-0.415,0.573C36.691,38.498,36.665,38.5,36.639,38.5z"/>
	</g>
	<g>
		<polygon class="st12" points="31,40 25,40 27,28 33,28 		"/>
		<path class="st0" d="M31,40.5h-6c-0.147,0-0.287-0.064-0.381-0.177c-0.095-0.112-0.136-0.261-0.112-0.405l2-12
			C26.547,27.677,26.755,27.5,27,27.5h6c0.147,0,0.287,0.064,0.381,0.177c0.095,0.112,0.136,0.261,0.112,0.405l-2,12
			C31.453,40.323,31.245,40.5,31,40.5z M25.59,39.5h4.986l1.833-11h-4.986L25.59,39.5z"/>
	</g>
	<g>
		<path class="st12" d="M37,56H21c-1.105,0-2,0.895-2,2v2h20v-2C39,56.895,38.105,56,37,56z"/>
		<path class="st0" d="M39,60.5H19c-0.276,0-0.5-0.224-0.5-0.5v-2c0-1.379,1.122-2.5,2.5-2.5h16c1.378,0,2.5,1.121,2.5,2.5v2
			C39.5,60.276,39.276,60.5,39,60.5z M19.5,59.5h19V58c0-0.827-0.673-1.5-1.5-1.5H21c-0.827,0-1.5,0.673-1.5,1.5V59.5z"/>
	</g>
	<g>
		<path class="st6" d="M43,56H27c-1.105,0-2,0.895-2,2v2h20v-2C45,56.895,44.105,56,43,56z"/>
		<path class="st0" d="M45,60.5H25c-0.276,0-0.5-0.224-0.5-0.5v-2c0-1.379,1.122-2.5,2.5-2.5h16c1.378,0,2.5,1.121,2.5,2.5v2
			C45.5,60.276,45.276,60.5,45,60.5z M25.5,59.5h19V58c0-0.827-0.673-1.5-1.5-1.5H27c-0.827,0-1.5,0.673-1.5,1.5V59.5z"/>
	</g>
	<g>
		<path class="st12" d="M35.5,50h-1c-0.552,0-1-0.448-1-1v-2c0-0.552,0.448-1,1-1h1c0.552,0,1,0.448,1,1v2
			C36.5,49.552,36.052,50,35.5,50z"/>
		<path class="st0" d="M35.5,50.5h-1c-0.827,0-1.5-0.673-1.5-1.5v-2c0-0.827,0.673-1.5,1.5-1.5h1c0.827,0,1.5,0.673,1.5,1.5v2
			C37,49.827,36.327,50.5,35.5,50.5z M34.5,46.5c-0.276,0-0.5,0.225-0.5,0.5v2c0,0.275,0.224,0.5,0.5,0.5h1
			c0.276,0,0.5-0.225,0.5-0.5v-2c0-0.275-0.224-0.5-0.5-0.5H34.5z"/>
	</g>
	<g>
		<path class="st12" d="M41,54.5c-0.276,0-0.5-0.224-0.5-0.5V44c0-0.276,0.224-0.5,0.5-0.5s0.5,0.224,0.5,0.5v10
			C41.5,54.276,41.276,54.5,41,54.5z"/>
	</g>
	<g>
		<path class="st14" d="M29,54.5c-0.276,0-0.5-0.224-0.5-0.5V44c0-0.276,0.224-0.5,0.5-0.5s0.5,0.224,0.5,0.5v10
			C29.5,54.276,29.276,54.5,29,54.5z"/>
	</g>
	<g>
		<path class="st6" d="M23,54.5c-0.276,0-0.5-0.224-0.5-0.5V44c0-0.276,0.224-0.5,0.5-0.5s0.5,0.224,0.5,0.5v10
			C23.5,54.276,23.276,54.5,23,54.5z"/>
	</g>
	<g>
		<path class="st6" d="M27.361,38.5c-0.026,0-0.053-0.002-0.08-0.006c-0.272-0.044-0.458-0.301-0.415-0.573l1.279-8
			c0.043-0.272,0.297-0.455,0.573-0.415c0.272,0.044,0.458,0.301,0.415,0.573l-1.279,8C27.815,38.325,27.603,38.5,27.361,38.5z"/>
	</g>
</g>
</svg>
