<?xml version="1.0" encoding="utf-8"?>
<!-- Generator: Adobe Illustrator 22.0.0, SVG Export Plug-In . SVG Version: 6.00 Build 0)  -->
<svg version="1.1" id="Icon_Set" xmlns="http://www.w3.org/2000/svg" xmlns:xlink="http://www.w3.org/1999/xlink" x="0px" y="0px"
	 viewBox="0 0 64 64" style="enable-background:new 0 0 64 64;" xml:space="preserve">
<style type="text/css">
	.st0{fill:#212A41;}
	.st1{fill:#4E4B51;}
	.st2{fill:#6C696F;}
	.st3{fill:#B7C0D7;}
	.st4{fill:#D5DEF5;}
	.st5{fill:#99A2B9;}
	.st6{fill:#E0E0E0;}
	.st7{fill:#D32E5E;}
	.st8{fill:#F9AC2F;}
	.st9{fill:#0079A8;}
	.st10{fill:#BED38E;}
	.st11{fill:#8A878D;}
	.st12{fill:#C2C2C2;}
	.st13{fill:#302D33;}
	.st14{fill:#FEFEFE;}
	.st15{fill:#FFCA4D;}
	.st16{fill:#DB8E11;}
	.st17{fill:#A4A4A4;}
	.st18{fill:#7B849B;}
	.st19{fill:#E0C8A4;}
	.st20{fill:#C2AA86;}
	.st21{fill:#FEE6C2;}
	.st22{fill:#1E97C6;}
	.st23{fill:#005B8A;}
	.st24{fill:#BD7000;}
</style>
<g>
	<g>
		<path class="st0" d="M32,20.5c-0.172,0-0.333-0.089-0.424-0.235l-10-16c-0.146-0.234-0.075-0.543,0.159-0.689
			c0.235-0.147,0.542-0.076,0.689,0.159L32,19.057l9.576-15.322c0.146-0.235,0.455-0.306,0.689-0.159
			c0.234,0.146,0.305,0.455,0.159,0.689l-10,16C32.333,20.411,32.172,20.5,32,20.5z"/>
	</g>
	<g>
		<path class="st1" d="M55,60H6c-1.105,0-2-0.895-2-2V22c0-1.105,0.895-2,2-2h49c1.105,0,2,0.895,2,2v36C57,59.105,56.105,60,55,60z
			"/>
		<path class="st0" d="M55,60.5H6c-1.378,0-2.5-1.122-2.5-2.5V22c0-1.378,1.122-2.5,2.5-2.5h49c1.378,0,2.5,1.122,2.5,2.5v36
			C57.5,59.378,56.378,60.5,55,60.5z M6,20.5c-0.827,0-1.5,0.673-1.5,1.5v36c0,0.827,0.673,1.5,1.5,1.5h49
			c0.827,0,1.5-0.673,1.5-1.5V22c0-0.827-0.673-1.5-1.5-1.5H6z"/>
	</g>
	<g>
		<path class="st2" d="M58,60H9c-1.105,0-2-0.895-2-2V22c0-1.105,0.895-2,2-2h49c1.105,0,2,0.895,2,2v36C60,59.105,59.105,60,58,60z
			"/>
		<path class="st0" d="M58,60.5H9c-1.378,0-2.5-1.122-2.5-2.5V22c0-1.378,1.122-2.5,2.5-2.5h49c1.378,0,2.5,1.122,2.5,2.5v36
			C60.5,59.378,59.378,60.5,58,60.5z M9,20.5c-0.827,0-1.5,0.673-1.5,1.5v36c0,0.827,0.673,1.5,1.5,1.5h49
			c0.827,0,1.5-0.673,1.5-1.5V22c0-0.827-0.673-1.5-1.5-1.5H9z"/>
	</g>
	<g>
		<path class="st2" d="M32,16c-2.209,0-4,1.791-4,4h8C36,17.791,34.209,16,32,16z"/>
		<path class="st0" d="M36,20.5h-8c-0.276,0-0.5-0.224-0.5-0.5c0-2.481,2.019-4.5,4.5-4.5s4.5,2.019,4.5,4.5
			C36.5,20.276,36.276,20.5,36,20.5z M28.536,19.5h6.929c-0.243-1.694-1.704-3-3.464-3S28.779,17.806,28.536,19.5z"/>
	</g>
	<g>
		<rect x="11.5" y="24" class="st3" width="44" height="32"/>
		<path class="st0" d="M55.5,56.5h-44c-0.276,0-0.5-0.224-0.5-0.5V24c0-0.276,0.224-0.5,0.5-0.5h44c0.276,0,0.5,0.224,0.5,0.5v32
			C56,56.276,55.776,56.5,55.5,56.5z M12,55.5h43v-31H12V55.5z"/>
	</g>
	<g>
		<path class="st4" d="M13.5,54.5c-0.276,0-0.5-0.224-0.5-0.5V26c0-0.276,0.224-0.5,0.5-0.5S14,25.724,14,26v28
			C14,54.276,13.776,54.5,13.5,54.5z"/>
	</g>
	<g>
		<path class="st5" d="M53.5,54.5c-0.276,0-0.5-0.224-0.5-0.5V26c0-0.276,0.224-0.5,0.5-0.5S54,25.724,54,26v28
			C54,54.276,53.776,54.5,53.5,54.5z"/>
	</g>
</g>
</svg>
