<?xml version="1.0" encoding="utf-8"?>
<!-- Generator: Adobe Illustrator 22.0.0, SVG Export Plug-In . SVG Version: 6.00 Build 0)  -->
<svg version="1.1" id="Icon_Set" xmlns="http://www.w3.org/2000/svg" xmlns:xlink="http://www.w3.org/1999/xlink" x="0px" y="0px"
	 viewBox="0 0 64 64" style="enable-background:new 0 0 64 64;" xml:space="preserve">
<style type="text/css">
	.st0{fill:#212A41;}
	.st1{fill:#4E4B51;}
	.st2{fill:#6C696F;}
	.st3{fill:#B7C0D7;}
	.st4{fill:#D5DEF5;}
	.st5{fill:#99A2B9;}
	.st6{fill:#E0E0E0;}
	.st7{fill:#D32E5E;}
	.st8{fill:#F9AC2F;}
	.st9{fill:#0079A8;}
	.st10{fill:#BED38E;}
	.st11{fill:#8A878D;}
	.st12{fill:#C2C2C2;}
	.st13{fill:#302D33;}
	.st14{fill:#FEFEFE;}
	.st15{fill:#FFCA4D;}
	.st16{fill:#DB8E11;}
	.st17{fill:#A4A4A4;}
	.st18{fill:#7B849B;}
	.st19{fill:#E0C8A4;}
	.st20{fill:#C2AA86;}
	.st21{fill:#FEE6C2;}
	.st22{fill:#1E97C6;}
	.st23{fill:#005B8A;}
	.st24{fill:#BD7000;}
</style>
<g>
	<g>
		<circle class="st6" cx="32" cy="25" r="20"/>
		<path class="st0" d="M32,45.5c-11.304,0-20.5-9.196-20.5-20.5S20.696,4.5,32,4.5S52.5,13.696,52.5,25S43.304,45.5,32,45.5z
			 M32,5.5c-10.752,0-19.5,8.748-19.5,19.5S21.248,44.5,32,44.5S51.5,35.752,51.5,25S42.752,5.5,32,5.5z"/>
	</g>
	<g>
		<path class="st14" d="M14,25.5c-0.276,0-0.5-0.224-0.5-0.5c0-10.201,8.299-18.5,18.5-18.5c0.276,0,0.5,0.224,0.5,0.5
			S32.276,7.5,32,7.5c-9.649,0-17.5,7.851-17.5,17.5C14.5,25.276,14.276,25.5,14,25.5z"/>
	</g>
	<g>
		<path class="st12" d="M22,25L22,25c0,6.075,4.925,11,11,11h15.695C50.779,32.843,52,29.066,52,25s-1.221-7.843-3.305-11H33
			C26.925,14,22,18.925,22,25z"/>
		<path class="st0" d="M48.695,36.5H33c-6.341,0-11.5-5.159-11.5-11.5S26.659,13.5,33,13.5h15.695c0.168,0,0.325,0.084,0.417,0.225
			C51.329,17.082,52.5,20.98,52.5,25s-1.171,7.918-3.388,11.275C49.021,36.416,48.863,36.5,48.695,36.5z M33,14.5
			c-5.79,0-10.5,4.71-10.5,10.5S27.21,35.5,33,35.5h15.424C50.438,32.358,51.5,28.734,51.5,25s-1.062-7.358-3.076-10.5H33z"/>
	</g>
	<g>
		<rect x="27" y="45" class="st1" width="6" height="6"/>
		<path class="st0" d="M33,51.5h-6c-0.276,0-0.5-0.224-0.5-0.5v-6c0-0.276,0.224-0.5,0.5-0.5h6c0.276,0,0.5,0.224,0.5,0.5v6
			C33.5,51.276,33.276,51.5,33,51.5z M27.5,50.5h5v-5h-5V50.5z"/>
	</g>
	<g>
		<circle class="st3" cx="42" cy="25" r="9"/>
		<path class="st0" d="M42,34.5c-5.238,0-9.5-4.262-9.5-9.5s4.262-9.5,9.5-9.5s9.5,4.262,9.5,9.5S47.238,34.5,42,34.5z M42,16.5
			c-4.687,0-8.5,3.813-8.5,8.5s3.813,8.5,8.5,8.5s8.5-3.813,8.5-8.5S46.687,16.5,42,16.5z"/>
	</g>
	<g>
		<path class="st0" d="M43,30.5c-3.032,0-5.5-2.467-5.5-5.5s2.468-5.5,5.5-5.5s5.5,2.467,5.5,5.5S46.032,30.5,43,30.5z M43,20.5
			c-2.481,0-4.5,2.019-4.5,4.5s2.019,4.5,4.5,4.5s4.5-2.019,4.5-4.5S45.481,20.5,43,20.5z"/>
	</g>
	<g>
		<circle class="st8" cx="28" cy="25" r="2"/>
		<path class="st0" d="M28,27.5c-1.379,0-2.5-1.122-2.5-2.5s1.121-2.5,2.5-2.5s2.5,1.122,2.5,2.5S29.379,27.5,28,27.5z M28,23.5
			c-0.827,0-1.5,0.673-1.5,1.5s0.673,1.5,1.5,1.5s1.5-0.673,1.5-1.5S28.827,23.5,28,23.5z"/>
	</g>
	<g>
		<path class="st1" d="M42,51H12c-1.105,0-2,0.895-2,2v4c0,1.105,0.895,2,2,2h30c1.105,0,2-0.895,2-2v-4C44,51.895,43.105,51,42,51z
			"/>
		<path class="st0" d="M42,59.5H12c-1.379,0-2.5-1.122-2.5-2.5v-4c0-1.378,1.121-2.5,2.5-2.5h30c1.379,0,2.5,1.122,2.5,2.5v4
			C44.5,58.378,43.379,59.5,42,59.5z M12,51.5c-0.827,0-1.5,0.673-1.5,1.5v4c0,0.827,0.673,1.5,1.5,1.5h30
			c0.827,0,1.5-0.673,1.5-1.5v-4c0-0.827-0.673-1.5-1.5-1.5H12z"/>
	</g>
	<g>
		<path class="st2" d="M52,51H22c-1.105,0-2,0.895-2,2v4c0,1.105,0.895,2,2,2h30c1.105,0,2-0.895,2-2v-4C54,51.895,53.105,51,52,51z
			"/>
		<path class="st0" d="M52,59.5H22c-1.379,0-2.5-1.122-2.5-2.5v-4c0-1.378,1.121-2.5,2.5-2.5h30c1.379,0,2.5,1.122,2.5,2.5v4
			C54.5,58.378,53.379,59.5,52,59.5z M22,51.5c-0.827,0-1.5,0.673-1.5,1.5v4c0,0.827,0.673,1.5,1.5,1.5h30
			c0.827,0,1.5-0.673,1.5-1.5v-4c0-0.827-0.673-1.5-1.5-1.5H22z"/>
	</g>
	<g>
		<rect x="31" y="45" class="st2" width="6" height="6"/>
		<path class="st0" d="M37,51.5h-6c-0.276,0-0.5-0.224-0.5-0.5v-6c0-0.276,0.224-0.5,0.5-0.5h6c0.276,0,0.5,0.224,0.5,0.5v6
			C37.5,51.276,37.276,51.5,37,51.5z M31.5,50.5h5v-5h-5V50.5z"/>
	</g>
	<g>
		<path class="st1" d="M52,57.5c-0.276,0-0.5-0.224-0.5-0.5v-4c0-0.276,0.224-0.5,0.5-0.5s0.5,0.224,0.5,0.5v4
			C52.5,57.276,52.276,57.5,52,57.5z"/>
	</g>
	<g>
		<path class="st11" d="M22,57.5c-0.276,0-0.5-0.224-0.5-0.5v-4c0-0.276,0.224-0.5,0.5-0.5s0.5,0.224,0.5,0.5v4
			C22.5,57.276,22.276,57.5,22,57.5z"/>
	</g>
	<g>
		<path class="st2" d="M12,57.5c-0.276,0-0.5-0.224-0.5-0.5v-4c0-0.276,0.224-0.5,0.5-0.5s0.5,0.224,0.5,0.5v4
			C12.5,57.276,12.276,57.5,12,57.5z"/>
	</g>
</g>
</svg>
