<?xml version="1.0" encoding="utf-8"?>
<!-- Generator: Adobe Illustrator 22.0.0, SVG Export Plug-In . SVG Version: 6.00 Build 0)  -->
<svg version="1.1" id="Icon_Set" xmlns="http://www.w3.org/2000/svg" xmlns:xlink="http://www.w3.org/1999/xlink" x="0px" y="0px"
	 viewBox="0 0 64 64" style="enable-background:new 0 0 64 64;" xml:space="preserve">
<style type="text/css">
	.st0{fill:#212A41;}
	.st1{fill:#4E4B51;}
	.st2{fill:#6C696F;}
	.st3{fill:#B7C0D7;}
	.st4{fill:#D5DEF5;}
	.st5{fill:#99A2B9;}
	.st6{fill:#E0E0E0;}
	.st7{fill:#D32E5E;}
	.st8{fill:#F9AC2F;}
	.st9{fill:#0079A8;}
	.st10{fill:#BED38E;}
	.st11{fill:#8A878D;}
	.st12{fill:#C2C2C2;}
	.st13{fill:#302D33;}
	.st14{fill:#FEFEFE;}
	.st15{fill:#FFCA4D;}
	.st16{fill:#DB8E11;}
	.st17{fill:#A4A4A4;}
	.st18{fill:#7B849B;}
	.st19{fill:#E0C8A4;}
	.st20{fill:#C2AA86;}
	.st21{fill:#FEE6C2;}
	.st22{fill:#1E97C6;}
	.st23{fill:#005B8A;}
	.st24{fill:#BD7000;}
</style>
<g>
	<g>
		<path class="st1" d="M40,59H9c-1.105,0-2-0.895-2-2V7c0-1.105,0.895-2,2-2h31c1.105,0,2,0.895,2,2v50C42,58.105,41.105,59,40,59z"
			/>
		<path class="st0" d="M40,59.5H9c-1.379,0-2.5-1.122-2.5-2.5V7c0-1.378,1.121-2.5,2.5-2.5h31c1.379,0,2.5,1.122,2.5,2.5v50
			C42.5,58.378,41.379,59.5,40,59.5z M9,5.5C8.173,5.5,7.5,6.173,7.5,7v50c0,0.827,0.673,1.5,1.5,1.5h31c0.827,0,1.5-0.673,1.5-1.5
			V7c0-0.827-0.673-1.5-1.5-1.5H9z"/>
	</g>
	<g>
		<path class="st2" d="M55,59H24c-1.105,0-2-0.895-2-2V7c0-1.105,0.895-2,2-2h31c1.105,0,2,0.895,2,2v50C57,58.105,56.105,59,55,59z
			"/>
		<path class="st0" d="M55,59.5H24c-1.379,0-2.5-1.122-2.5-2.5V7c0-1.378,1.121-2.5,2.5-2.5h31c1.379,0,2.5,1.122,2.5,2.5v50
			C57.5,58.378,56.379,59.5,55,59.5z M24,5.5c-0.827,0-1.5,0.673-1.5,1.5v50c0,0.827,0.673,1.5,1.5,1.5h31
			c0.827,0,1.5-0.673,1.5-1.5V7c0-0.827-0.673-1.5-1.5-1.5H24z"/>
	</g>
	<g>
		<path class="st1" d="M55,57.5c-0.276,0-0.5-0.224-0.5-0.5V7c0-0.276,0.224-0.5,0.5-0.5s0.5,0.224,0.5,0.5v50
			C55.5,57.276,55.276,57.5,55,57.5z"/>
	</g>
	<g>
		<path class="st11" d="M24,57.5c-0.276,0-0.5-0.224-0.5-0.5V7c0-0.276,0.224-0.5,0.5-0.5s0.5,0.224,0.5,0.5v50
			C24.5,57.276,24.276,57.5,24,57.5z"/>
	</g>
	<g>
		<path class="st2" d="M9,57.5c-0.276,0-0.5-0.224-0.5-0.5V7c0-0.276,0.224-0.5,0.5-0.5S9.5,6.724,9.5,7v50
			C9.5,57.276,9.276,57.5,9,57.5z"/>
	</g>
	<g>
		<path class="st13" d="M20,57.5c-0.276,0-0.5-0.224-0.5-0.5V7c0-0.276,0.224-0.5,0.5-0.5s0.5,0.224,0.5,0.5v50
			C20.5,57.276,20.276,57.5,20,57.5z"/>
	</g>
	<g>
		<rect x="28" y="9" class="st3" width="24" height="46"/>
		<path class="st0" d="M52,55.5H28c-0.276,0-0.5-0.224-0.5-0.5V9c0-0.276,0.224-0.5,0.5-0.5h24c0.276,0,0.5,0.224,0.5,0.5v46
			C52.5,55.276,52.276,55.5,52,55.5z M28.5,54.5h23v-45h-23V54.5z"/>
	</g>
	<g>
		<path class="st0" d="M52,21.5H28c-0.276,0-0.5-0.224-0.5-0.5s0.224-0.5,0.5-0.5h24c0.276,0,0.5,0.224,0.5,0.5S52.276,21.5,52,21.5
			z"/>
	</g>
	<g>
		<path class="st0" d="M52,33.5H28c-0.276,0-0.5-0.224-0.5-0.5s0.224-0.5,0.5-0.5h24c0.276,0,0.5,0.224,0.5,0.5S52.276,33.5,52,33.5
			z"/>
	</g>
	<g>
		<path class="st1" d="M40,13c-1.678,0-3.109,1.035-3.703,2.5H33c-0.552,0-1,0.448-1,1v1c0,0.552,0.448,1,1,1h3.297
			C36.891,19.965,38.322,21,40,21h8v-8H40z"/>
		<path class="st0" d="M48,21.5h-8c-1.724,0-3.27-0.971-4.026-2.5H33c-0.827,0-1.5-0.673-1.5-1.5v-1c0-0.827,0.673-1.5,1.5-1.5
			h2.974c0.757-1.529,2.303-2.5,4.026-2.5h8c0.276,0,0.5,0.224,0.5,0.5v8C48.5,21.276,48.276,21.5,48,21.5z M33,16
			c-0.275,0-0.5,0.224-0.5,0.5v1c0,0.276,0.225,0.5,0.5,0.5h3.297c0.204,0,0.387,0.124,0.464,0.312
			C37.299,19.641,38.57,20.5,40,20.5h7.5v-7H40c-1.43,0-2.701,0.859-3.239,2.188C36.684,15.876,36.501,16,36.297,16H33z"/>
	</g>
	<g>
		<path class="st1" d="M40,25c-1.678,0-3.109,1.035-3.703,2.5H33c-0.552,0-1,0.448-1,1v1c0,0.552,0.448,1,1,1h3.297
			C36.891,31.965,38.322,33,40,33h8v-8H40z"/>
		<path class="st0" d="M48,33.5h-8c-1.724,0-3.27-0.971-4.026-2.5H33c-0.827,0-1.5-0.673-1.5-1.5v-1c0-0.827,0.673-1.5,1.5-1.5
			h2.974c0.757-1.529,2.303-2.5,4.026-2.5h8c0.276,0,0.5,0.224,0.5,0.5v8C48.5,33.276,48.276,33.5,48,33.5z M33,28
			c-0.275,0-0.5,0.224-0.5,0.5v1c0,0.276,0.225,0.5,0.5,0.5h3.297c0.204,0,0.387,0.124,0.464,0.312
			C37.299,31.641,38.57,32.5,40,32.5h7.5v-7H40c-1.43,0-2.701,0.859-3.239,2.188C36.684,27.876,36.501,28,36.297,28H33z"/>
	</g>
	<g>
		<circle class="st2" cx="48" cy="29" r="4"/>
		<path class="st0" d="M48,33.5c-2.481,0-4.5-2.019-4.5-4.5s2.019-4.5,4.5-4.5s4.5,2.019,4.5,4.5S50.481,33.5,48,33.5z M48,25.5
			c-1.93,0-3.5,1.57-3.5,3.5s1.57,3.5,3.5,3.5s3.5-1.57,3.5-3.5S49.93,25.5,48,25.5z"/>
	</g>
	<g>
		<path class="st1" d="M28.297,27.5H28v3h0.297C28.891,31.965,30.322,33,32,33h8v-8h-8C30.322,25,28.891,26.035,28.297,27.5z"/>
		<path class="st0" d="M40,33.5h-8c-1.725,0-3.27-0.971-4.026-2.5c-0.264-0.014-0.474-0.232-0.474-0.5v-3
			c0-0.267,0.21-0.485,0.474-0.5c0.757-1.53,2.302-2.5,4.026-2.5h8c0.276,0,0.5,0.224,0.5,0.5v8C40.5,33.276,40.276,33.5,40,33.5z
			 M28.5,30.043c0.116,0.052,0.211,0.147,0.261,0.269C29.299,31.641,30.57,32.5,32,32.5h7.5v-7H32c-1.43,0-2.701,0.859-3.239,2.188
			c-0.05,0.122-0.145,0.217-0.261,0.269V30.043z"/>
	</g>
	<g>
		<path class="st0" d="M52,45.5H28c-0.276,0-0.5-0.224-0.5-0.5s0.224-0.5,0.5-0.5h24c0.276,0,0.5,0.224,0.5,0.5S52.276,45.5,52,45.5
			z"/>
	</g>
	<g>
		<path class="st1" d="M28.297,39.5H28v3h0.297C28.891,43.965,30.322,45,32,45h8v-8h-8C30.322,37,28.891,38.035,28.297,39.5z"/>
		<path class="st0" d="M40,45.5h-8c-1.725,0-3.27-0.971-4.026-2.5c-0.264-0.014-0.474-0.232-0.474-0.5v-3
			c0-0.267,0.21-0.485,0.474-0.5c0.757-1.53,2.302-2.5,4.026-2.5h8c0.276,0,0.5,0.224,0.5,0.5v8C40.5,45.276,40.276,45.5,40,45.5z
			 M28.5,42.043c0.116,0.052,0.211,0.147,0.261,0.269C29.299,43.641,30.57,44.5,32,44.5h7.5v-7H32c-1.43,0-2.701,0.859-3.239,2.188
			c-0.05,0.122-0.145,0.217-0.261,0.269V42.043z"/>
	</g>
	<g>
		<path class="st8" d="M47,17h-8v-1c0-1.657,1.343-3,3-3h5V17z"/>
		<path class="st0" d="M47,17.5h-8c-0.276,0-0.5-0.224-0.5-0.5v-1c0-1.93,1.57-3.5,3.5-3.5h5c0.276,0,0.5,0.224,0.5,0.5v4
			C47.5,17.276,47.276,17.5,47,17.5z M39.5,16.5h7v-3H42c-1.379,0-2.5,1.122-2.5,2.5V16.5z"/>
	</g>
	<g>
		<path class="st8" d="M39,41h-8v-1c0-1.657,1.343-3,3-3h5V41z"/>
		<path class="st0" d="M39,41.5h-8c-0.276,0-0.5-0.224-0.5-0.5v-1c0-1.93,1.57-3.5,3.5-3.5h5c0.276,0,0.5,0.224,0.5,0.5v4
			C39.5,41.276,39.276,41.5,39,41.5z M31.5,40.5h7v-3H34c-1.379,0-2.5,1.122-2.5,2.5V40.5z"/>
	</g>
	<g>
		<path class="st7" d="M39,29h-8v-1c0-1.657,1.343-3,3-3h5V29z"/>
		<path class="st0" d="M39,29.5h-8c-0.276,0-0.5-0.224-0.5-0.5v-1c0-1.93,1.57-3.5,3.5-3.5h5c0.276,0,0.5,0.224,0.5,0.5v4
			C39.5,29.276,39.276,29.5,39,29.5z M31.5,28.5h7v-3H34c-1.379,0-2.5,1.122-2.5,2.5V28.5z"/>
	</g>
	<g>
		<circle class="st2" cx="48" cy="17" r="4"/>
		<path class="st0" d="M48,21.5c-2.481,0-4.5-2.019-4.5-4.5s2.019-4.5,4.5-4.5s4.5,2.019,4.5,4.5S50.481,21.5,48,21.5z M48,13.5
			c-1.93,0-3.5,1.57-3.5,3.5s1.57,3.5,3.5,3.5s3.5-1.57,3.5-3.5S49.93,13.5,48,13.5z"/>
	</g>
	<g>
		<path class="st1" d="M40,47c-1.678,0-3.109,1.035-3.703,2.5H33c-0.552,0-1,0.448-1,1v1c0,0.552,0.448,1,1,1h3.297
			C36.891,53.965,38.322,55,40,55h8v-8H40z"/>
		<path class="st0" d="M48,55.5h-8c-1.724,0-3.27-0.971-4.026-2.5H33c-0.827,0-1.5-0.673-1.5-1.5v-1c0-0.827,0.673-1.5,1.5-1.5
			h2.974c0.757-1.529,2.303-2.5,4.026-2.5h8c0.276,0,0.5,0.224,0.5,0.5v8C48.5,55.276,48.276,55.5,48,55.5z M33,50
			c-0.275,0-0.5,0.224-0.5,0.5v1c0,0.276,0.225,0.5,0.5,0.5h3.297c0.204,0,0.387,0.124,0.464,0.312
			C37.299,53.641,38.57,54.5,40,54.5h7.5v-7H40c-1.43,0-2.701,0.859-3.239,2.188C36.684,49.876,36.501,50,36.297,50H33z"/>
	</g>
	<g>
		<path class="st7" d="M47,51h-8v-1c0-1.657,1.343-3,3-3h5V51z"/>
		<path class="st0" d="M47,51.5h-8c-0.276,0-0.5-0.224-0.5-0.5v-1c0-1.93,1.57-3.5,3.5-3.5h5c0.276,0,0.5,0.224,0.5,0.5v4
			C47.5,51.276,47.276,51.5,47,51.5z M39.5,50.5h7v-3H42c-1.379,0-2.5,1.122-2.5,2.5V50.5z"/>
	</g>
	<g>
		<circle class="st2" cx="48" cy="51" r="4"/>
		<path class="st0" d="M48,55.5c-2.481,0-4.5-2.019-4.5-4.5s2.019-4.5,4.5-4.5s4.5,2.019,4.5,4.5S50.481,55.5,48,55.5z M48,47.5
			c-1.93,0-3.5,1.57-3.5,3.5s1.57,3.5,3.5,3.5s3.5-1.57,3.5-3.5S49.93,47.5,48,47.5z"/>
	</g>
	<g>
		<circle class="st2" cx="40" cy="29" r="4"/>
		<path class="st0" d="M40,33.5c-2.481,0-4.5-2.019-4.5-4.5s2.019-4.5,4.5-4.5s4.5,2.019,4.5,4.5S42.481,33.5,40,33.5z M40,25.5
			c-1.93,0-3.5,1.57-3.5,3.5s1.57,3.5,3.5,3.5s3.5-1.57,3.5-3.5S41.93,25.5,40,25.5z"/>
	</g>
	<g>
		<circle class="st2" cx="40" cy="41" r="4"/>
		<path class="st0" d="M40,45.5c-2.481,0-4.5-2.019-4.5-4.5s2.019-4.5,4.5-4.5s4.5,2.019,4.5,4.5S42.481,45.5,40,45.5z M40,37.5
			c-1.93,0-3.5,1.57-3.5,3.5s1.57,3.5,3.5,3.5s3.5-1.57,3.5-3.5S41.93,37.5,40,37.5z"/>
	</g>
	<g>
		<rect x="22" y="25" class="st6" width="3" height="14"/>
		<path class="st0" d="M25,39.5h-3c-0.276,0-0.5-0.224-0.5-0.5V25c0-0.276,0.224-0.5,0.5-0.5h3c0.276,0,0.5,0.224,0.5,0.5v14
			C25.5,39.276,25.276,39.5,25,39.5z M22.5,38.5h2v-13h-2V38.5z"/>
	</g>
</g>
</svg>
