<?xml version="1.0" encoding="utf-8"?>
<!-- Generator: Adobe Illustrator 23.0.0, SVG Export Plug-In . SVG Version: 6.00 Build 0)  -->
<svg version="1.1" id="Layer_1" xmlns="http://www.w3.org/2000/svg" xmlns:xlink="http://www.w3.org/1999/xlink" x="0px" y="0px"
	 viewBox="0 0 64 64" style="enable-background:new 0 0 64 64;" xml:space="preserve">
<style type="text/css">
	.st0{fill:#353744;}
	.st1{fill:#F68820;}
	.st2{fill:#808080;}
	.st3{fill:#5C76B2;}
	.st4{fill:#6FA4D8;}
	.st5{fill:#DBDEE3;}
	.st6{fill:#B3B4B6;}
	.st7{fill:#FBBE18;}
	.st8{fill:#EEC78E;}
	.st9{fill:#DB9E68;}
	.st10{fill:#55525B;}
	.st11{fill:#FFFFFF;}
	.st12{fill:#1C1D28;}
	.st13{fill:#FBD301;}
	.st14{fill:#BE7850;}
	.st15{fill:#4C52A3;}
	.st16{fill:#BF6B1E;}
	.st17{fill:#5F7ABC;}
	.st18{fill:#D4761E;}
	.st19{fill:#5D76B2;}
	.st20{fill:#668DC5;}
</style>
<g>
	<g>
		<g>
			<rect x="6.5" y="19" transform="matrix(-1 -1.224647e-16 1.224647e-16 -1 21 57.5)" class="st6" width="8" height="19.5"/>
		</g>
		<g>
			<rect x="6.5" y="19" transform="matrix(-1 -1.224647e-16 1.224647e-16 -1 17 57.5)" class="st5" width="4" height="19.5"/>
		</g>
		<g>
			<path class="st6" d="M10.5,11L10.5,11c-1.105,0-2,0.895-2,2v2h4v-2C12.5,11.895,11.605,11,10.5,11z"/>
		</g>
		<g>
			<path class="st5" d="M10.5,11L10.5,11c-1.105,0-2,0.895-2,2v2h2V11z"/>
		</g>
		<g>
			<path class="st6" d="M6.5,50.5l3.584,5.376c0.198,0.297,0.634,0.297,0.832,0L14.5,50.5H6.5z"/>
		</g>
		<g>
			<path class="st10" d="M9.5,55l0.584,0.876c0.198,0.297,0.634,0.297,0.832,0L11.5,55H9.5z"/>
		</g>
		<g>
			<rect x="6.5" y="38.5" class="st0" width="8" height="12"/>
		</g>
		<g>
			<rect x="6.5" y="38.5" class="st10" width="4" height="12"/>
		</g>
		<g>
			<path class="st0" d="M13,15H8c-0.828,0-1.5,0.672-1.5,1.5V19h8v-2.5C14.5,15.672,13.828,15,13,15z"/>
		</g>
		<g>
			<path class="st10" d="M10.5,15H8c-0.828,0-1.5,0.672-1.5,1.5V19h4V15z"/>
		</g>
		<g>
			<path class="st10" d="M6.5,19v-2h-2c-1.105,0-2,0.895-2,2v11.5c0,1.105,0.895,2,2,2s2-0.895,2-2c0-1.105-0.895-2-2-2V19H6.5z"/>
		</g>
	</g>
	<g>
		<path class="st1" d="M44.5,57h-24c-2.209,0-4-1.791-4-4V15c0-2.209,1.791-4,4-4h24c2.209,0,4,1.791,4,4v38
			C48.5,55.209,46.709,57,44.5,57z"/>
	</g>
	<g>
		<path class="st7" d="M50.5,53h-24c-2.209,0-4-1.791-4-4V11c0-2.209,1.791-4,4-4h20l8,8v34C54.5,51.209,52.709,53,50.5,53z"/>
	</g>
	<g>
		<path class="st1" d="M54.5,15h-4c-2.209,0-4-1.791-4-4V7L54.5,15z"/>
	</g>
	<g>
		<g>
			<path class="st1" d="M35.5,20h12c0.552,0,1-0.448,1-1v0c0-0.552-0.448-1-1-1h-12c-0.552,0-1,0.448-1,1v0
				C34.5,19.552,34.948,20,35.5,20z"/>
		</g>
		<g>
			<path class="st1" d="M29.5,25h18c0.552,0,1-0.448,1-1v0c0-0.552-0.448-1-1-1h-18c-0.552,0-1,0.448-1,1v0
				C28.5,24.552,28.948,25,29.5,25z"/>
		</g>
		<g>
			<path class="st1" d="M29.5,30h18c0.552,0,1-0.448,1-1v0c0-0.552-0.448-1-1-1h-18c-0.552,0-1,0.448-1,1v0
				C28.5,29.552,28.948,30,29.5,30z"/>
		</g>
		<g>
			<path class="st1" d="M29.5,35h18c0.552,0,1-0.448,1-1l0,0c0-0.552-0.448-1-1-1h-18c-0.552,0-1,0.448-1,1l0,0
				C28.5,34.552,28.948,35,29.5,35z"/>
		</g>
		<g>
			<path class="st1" d="M29.5,40h18c0.552,0,1-0.448,1-1v0c0-0.552-0.448-1-1-1h-18c-0.552,0-1,0.448-1,1v0
				C28.5,39.552,28.948,40,29.5,40z"/>
		</g>
		<g>
			<path class="st1" d="M29.5,45H38c0.552,0,1-0.448,1-1v0c0-0.552-0.448-1-1-1h-8.5c-0.552,0-1,0.448-1,1v0
				C28.5,44.552,28.948,45,29.5,45z"/>
		</g>
	</g>
	<g>
		<circle class="st10" cx="54.5" cy="42" r="7"/>
	</g>
	<g>
		<path class="st4" d="M56.5,39l-3,3l-1-1c-0.552-0.552-1.448-0.552-2,0l0,0c-0.552,0.552-0.552,1.448,0,2l2,2
			c0.552,0.552,1.448,0.552,2,0l4-4c0.552-0.552,0.552-1.448,0-2l0,0C57.948,38.448,57.052,38.448,56.5,39z"/>
	</g>
</g>
</svg>
