<?xml version="1.0" encoding="utf-8"?>
<!-- Generator: Adobe Illustrator 23.0.0, SVG Export Plug-In . SVG Version: 6.00 Build 0)  -->
<svg version="1.1" id="Layer_1" xmlns="http://www.w3.org/2000/svg" xmlns:xlink="http://www.w3.org/1999/xlink" x="0px" y="0px"
	 viewBox="0 0 64 64" style="enable-background:new 0 0 64 64;" xml:space="preserve">
<style type="text/css">
	.st0{fill:#353744;}
	.st1{fill:#F68820;}
	.st2{fill:#808080;}
	.st3{fill:#5C76B2;}
	.st4{fill:#6FA4D8;}
	.st5{fill:#DBDEE3;}
	.st6{fill:#B3B4B6;}
	.st7{fill:#FBBE18;}
	.st8{fill:#EEC78E;}
	.st9{fill:#DB9E68;}
	.st10{fill:#55525B;}
	.st11{fill:#FFFFFF;}
	.st12{fill:#1C1D28;}
	.st13{fill:#FBD301;}
	.st14{fill:#BE7850;}
	.st15{fill:#4C52A3;}
	.st16{fill:#BF6B1E;}
	.st17{fill:#5F7ABC;}
	.st18{fill:#D4761E;}
	.st19{fill:#5D76B2;}
	.st20{fill:#668DC5;}
</style>
<g>
	<g>
		<path class="st10" d="M46,60.25H36c-2.481,0-4.5-2.019-4.5-4.5v-20h1v20c0,1.93,1.57,3.5,3.5,3.5h10c1.93,0,3.5-1.57,3.5-3.5h1
			C50.5,58.231,48.481,60.25,46,60.25z"/>
	</g>
	<g>
		<path class="st3" d="M55,45.75h-6v-20c0-11.046-8.954-20-20-20h0h6c11.046,0,20,8.954,20,20V45.75z"/>
	</g>
	<g>
		<path class="st3" d="M35,3.75c-12.15,0-22,9.85-22,22v20h2v-20c0-11.046,8.954-20,20-20s20,8.954,20,20v20h2v-20
			C57,13.6,47.15,3.75,35,3.75z"/>
	</g>
	<g>
		<g>
			<path class="st5" d="M30,35.75c-1.105,0-2-0.895-2-2v0v-4.5h8v4.5c0,1.105-0.895,2-2,2L30,35.75z"/>
		</g>
		<g>
			<path class="st2" d="M32,29.25v6.5h2c1.105,0,2-0.895,2-2v-4.5H32z"/>
		</g>
		<g>
			<rect x="28" y="29.25" class="st6" width="4" height="1"/>
		</g>
		<g>
			<rect x="32" y="30.25" class="st6" width="4" height="1"/>
		</g>
		<g>
			<rect x="32" y="32.25" class="st6" width="4" height="1"/>
		</g>
		<g>
			<rect x="28" y="31.25" class="st6" width="4" height="1"/>
		</g>
		<g>
			<path class="st6" d="M32,33.25h-4v0.5c0,1.105,0.895,2,2,2l2,0V33.25z"/>
		</g>
		<g>
			<path class="st1" d="M40,18.25c0-4.719-4.086-8.484-8.913-7.949c-3.517,0.389-6.443,3.17-6.987,6.667
				c-0.412,2.646,0.477,5.092,2.123,6.808C27.374,24.976,28,26.585,28,28.249v1.001h8v-1v0c0-1.65,0.6-3.26,1.748-4.444
				C39.141,22.368,40,20.411,40,18.25z"/>
		</g>
		<g>
			<path class="st7" d="M24.354,15.894c0.627,1.389,2.023,2.356,3.646,2.356c2.209,0,4-1.791,4-4c0-1.622-0.966-3.017-2.353-3.645
				C27.123,11.381,25.131,13.37,24.354,15.894z"/>
		</g>
		<g>
			<path class="st0" d="M32,37.75L32,37.75c-1.105,0-2-0.895-2-2v0h4v0C34,36.855,33.105,37.75,32,37.75z"/>
		</g>
	</g>
	<g>
		<circle class="st3" cx="32" cy="45.75" r="4"/>
	</g>
	<g>
		<path class="st7" d="M30.667,44.329v2.842c0,0.532,0.593,0.85,1.036,0.555l2.131-1.421c0.396-0.264,0.396-0.846,0-1.109
			l-2.131-1.421C31.26,43.479,30.667,43.797,30.667,44.329z"/>
	</g>
	<path class="st0" d="M16,35.75h-4c-5.523,0-10,4.477-10,10s4.477,10,10,10h4c5.523,0,10-4.477,10-10
		C26,40.227,21.523,35.75,16,35.75z"/>
	<g>
		<circle class="st10" cx="12" cy="45.75" r="10"/>
	</g>
	<g>
		<path class="st3" d="M35,3.75c-12.15,0-22,9.85-22,22v20h2v-20c0-11.046,8.954-20,20-20s20,8.954,20,20v20h2v-20
			C57,13.6,47.15,3.75,35,3.75z"/>
	</g>
	<path class="st0" d="M52,35.75h-4c-5.523,0-10,4.477-10,10s4.477,10,10,10h4c5.523,0,10-4.477,10-10
		C62,40.227,57.523,35.75,52,35.75z"/>
	<g>
		<circle class="st10" cx="48" cy="45.75" r="10"/>
	</g>
	<g>
		<circle class="st0" cx="48" cy="45.75" r="5.5"/>
	</g>
	<path class="st3" d="M12,39.75h-2c-3.314,0-6,2.686-6,6s2.686,6,6,6h2c3.314,0,6-2.686,6-6S15.314,39.75,12,39.75z"/>
	<g>
		<circle class="st4" cx="10" cy="45.75" r="6"/>
	</g>
	<g>
		<path class="st4" d="M7,45.75v-20c0-12.15,9.85-22,22-22h6h0c-12.15,0-22,9.85-22,22v20H7z"/>
	</g>
	<g>
		<circle class="st7" cx="10" cy="45.75" r="3"/>
	</g>
</g>
</svg>
