<?xml version="1.0" encoding="utf-8"?>
<!-- Generator: Adobe Illustrator 23.0.0, SVG Export Plug-In . SVG Version: 6.00 Build 0)  -->
<svg version="1.1" id="Layer_1" xmlns="http://www.w3.org/2000/svg" xmlns:xlink="http://www.w3.org/1999/xlink" x="0px" y="0px"
	 viewBox="0 0 64 64" style="enable-background:new 0 0 64 64;" xml:space="preserve">
<style type="text/css">
	.st0{fill:#353744;}
	.st1{fill:#F68820;}
	.st2{fill:#808080;}
	.st3{fill:#5C76B2;}
	.st4{fill:#6FA4D8;}
	.st5{fill:#DBDEE3;}
	.st6{fill:#B3B4B6;}
	.st7{fill:#FBBE18;}
	.st8{fill:#EEC78E;}
	.st9{fill:#DB9E68;}
	.st10{fill:#55525B;}
	.st11{fill:#FFFFFF;}
	.st12{fill:#1C1D28;}
	.st13{fill:#FBD301;}
	.st14{fill:#BE7850;}
	.st15{fill:#4C52A3;}
	.st16{fill:#BF6B1E;}
	.st17{fill:#5F7ABC;}
	.st18{fill:#D4761E;}
	.st19{fill:#5D76B2;}
	.st20{fill:#668DC5;}
</style>
<g>
	<g>
		<path class="st10" d="M48.5,27.706h-33c-0.828,0-1.5-0.672-1.5-1.5v-10.5h36v10.5C50,27.035,49.328,27.706,48.5,27.706z"/>
	</g>
	<g>
		<path class="st0" d="M14,15.706v4h16.6c0.773,0,1.4,0.627,1.4,1.4v6.6h16.5c0.828,0,1.5-0.672,1.5-1.5v-10.5H14z"/>
	</g>
	<g>
		<path class="st0" d="M60.5,15.706h-57c-0.828,0-1.5-0.672-1.5-1.5v-1c0-0.828,0.672-1.5,1.5-1.5h57c0.828,0,1.5,0.672,1.5,1.5v1
			C62,15.035,61.328,15.706,60.5,15.706z"/>
	</g>
	<g>
		<path class="st10" d="M30.5,15.706h-27c-0.828,0-1.5-0.672-1.5-1.5v-1c0-0.828,0.672-1.5,1.5-1.5h27c0.828,0,1.5,0.672,1.5,1.5v1
			C32,15.035,31.328,15.706,30.5,15.706z"/>
	</g>
	<g>
		<path class="st1" d="M57,19.706c0.365,0,0.706,0.099,1,0.27v-8.27h-2v8.27C56.294,19.805,56.635,19.706,57,19.706z"/>
	</g>
	<g>
		<path class="st1" d="M54.5,33.706h5c0.276,0,0.5-0.224,0.5-0.5v-8.5v0c0-0.552-0.448-1-1-1h-4c-0.552,0-1,0.448-1,1v8.5
			C54,33.482,54.224,33.706,54.5,33.706z"/>
	</g>
	<g>
		<rect x="55" y="21.706" class="st6" width="4" height="2"/>
	</g>
	<g>
		<rect x="55" y="21.706" class="st5" width="2" height="2"/>
	</g>
	<g>
		<path class="st7" d="M59,21.706h-4v0c0-1.105,0.895-2,2-2h0C58.105,19.706,59,20.602,59,21.706L59,21.706z"/>
	</g>
	<g>
		<path class="st7" d="M58,11.706H31v0c0-1.105,0.895-2,2-2h23C57.105,9.706,58,10.602,58,11.706L58,11.706z"/>
	</g>
	<g>
		<path class="st7" d="M57,23.706h-2c-0.552,0-1,0.448-1,1v8.5c0,0.276,0.224,0.5,0.5,0.5H57V23.706z"/>
	</g>
	<path class="st1" d="M55.5,26.706c-0.276,0-0.5,0.224-0.5,0.5v6.5h1v-6.5C56,26.93,55.776,26.706,55.5,26.706z"/>
	<path class="st7" d="M58.5,30.206c-0.276,0-0.5,0.224-0.5,0.5v3h1v-3C59,30.43,58.776,30.206,58.5,30.206z"/>
	<g>
		<path class="st9" d="M6,47.706c3.59,0,6.5-2.91,6.5-6.5c0-3.038-2.462-5.5-5.5-5.5h49.5c3.038,0,5.5,2.462,5.5,5.5
			c0,3.59-2.91,6.5-6.5,6.5H6z"/>
	</g>
	<g>
		<path class="st14" d="M6,44.706c1.933,0,3.5-1.567,3.5-3.5H59c0,1.933-1.567,3.5-3.5,3.5H6z"/>
	</g>
	<g>
		<path class="st8" d="M6,44.706c-2.209,0-4-1.791-4-4c0-2.761,2.239-5,5-5h49.5c-2.761,0-5,2.239-5,5c0,2.209,1.791,4,4,4H6z"/>
	</g>
	<g>
		<path class="st3" d="M29,41.706c0-3.314,2.686-6,6-6h-4.5c-3.314,0-6,2.686-6,6s2.686,6,6,6H35C31.686,47.706,29,45.02,29,41.706z
			"/>
	</g>
	<g>
		<path class="st4" d="M19.5,41.706v11.586c0,0.891,1.077,1.337,1.707,0.707l2.586-2.586c0.391-0.391,1.024-0.391,1.414,0
			l2.586,2.586c0.63,0.63,1.707,0.184,1.707-0.707V41.706H19.5z"/>
	</g>
	<g>
		<path class="st3" d="M19.5,47.064c0.042,0.102,0.073,0.209,0.08,0.323l0.065,1.124c0.037,0.63,0.641,1.069,1.252,0.909
			l1.089-0.285c0.378-0.099,0.779,0.031,1.027,0.334l0.714,0.871c0.4,0.488,1.147,0.488,1.547,0l0.714-0.871
			c0.248-0.302,0.649-0.433,1.027-0.334l1.089,0.285c0.611,0.16,1.215-0.279,1.252-0.909l0.065-1.124
			c0.007-0.114,0.037-0.221,0.08-0.323v-5.358h-10V47.064z"/>
	</g>
	<g>
		<path class="st7" d="M25.274,34.511l0.714,0.871c0.248,0.302,0.649,0.433,1.027,0.334l1.089-0.285
			c0.611-0.16,1.215,0.279,1.252,0.909l0.065,1.124c0.023,0.39,0.271,0.731,0.635,0.873l1.049,0.41
			c0.588,0.23,0.819,0.94,0.478,1.471l-0.608,0.948c-0.211,0.329-0.211,0.751,0,1.08l0.608,0.948
			c0.341,0.531,0.11,1.242-0.478,1.471l-1.049,0.41c-0.364,0.142-0.612,0.483-0.635,0.873l-0.065,1.124
			c-0.037,0.63-0.641,1.069-1.252,0.909l-1.089-0.285c-0.378-0.099-0.779,0.031-1.027,0.334l-0.714,0.871
			c-0.4,0.488-1.147,0.488-1.547,0l-0.714-0.871c-0.248-0.302-0.649-0.433-1.027-0.334l-1.089,0.285
			c-0.611,0.16-1.215-0.279-1.252-0.909l-0.065-1.124c-0.023-0.39-0.271-0.731-0.635-0.873l-1.049-0.41
			c-0.588-0.23-0.819-0.94-0.478-1.471l0.608-0.948c0.211-0.329,0.211-0.751,0-1.08l-0.608-0.948
			c-0.341-0.531-0.11-1.242,0.478-1.471l1.049-0.41c0.364-0.142,0.612-0.483,0.635-0.873l0.065-1.124
			c0.037-0.63,0.641-1.069,1.252-0.909l1.089,0.285c0.378,0.099,0.779-0.031,1.027-0.334l0.714-0.871
			C24.127,34.023,24.873,34.023,25.274,34.511z"/>
	</g>
	<g>
		<circle class="st1" cx="24.5" cy="41.706" r="5.5"/>
	</g>
	<g>
		<path class="st7" d="M24.967,37.929l0.785,2.054l2.196,0.111c0.458,0.023,0.646,0.6,0.289,0.888l-1.711,1.381l0.573,2.123
			c0.12,0.443-0.371,0.8-0.756,0.549L24.5,43.836l-1.842,1.201c-0.385,0.251-0.875-0.106-0.756-0.549l0.573-2.123l-1.711-1.381
			c-0.357-0.288-0.17-0.865,0.289-0.888l2.196-0.111l0.785-2.054C24.197,37.5,24.803,37.5,24.967,37.929z"/>
	</g>
</g>
</svg>
