<?xml version="1.0" encoding="utf-8"?>
<!-- Generator: Adobe Illustrator 23.0.0, SVG Export Plug-In . SVG Version: 6.00 Build 0)  -->
<svg version="1.1" id="Layer_1" xmlns="http://www.w3.org/2000/svg" xmlns:xlink="http://www.w3.org/1999/xlink" x="0px" y="0px"
	 viewBox="0 0 64 64" style="enable-background:new 0 0 64 64;" xml:space="preserve">
<style type="text/css">
	.st0{fill:#353744;}
	.st1{fill:#F68820;}
	.st2{fill:#808080;}
	.st3{fill:#5C76B2;}
	.st4{fill:#6FA4D8;}
	.st5{fill:#DBDEE3;}
	.st6{fill:#B3B4B6;}
	.st7{fill:#FBBE18;}
	.st8{fill:#EEC78E;}
	.st9{fill:#DB9E68;}
	.st10{fill:#55525B;}
	.st11{fill:#FFFFFF;}
	.st12{fill:#1C1D28;}
	.st13{fill:#FBD301;}
	.st14{fill:#BE7850;}
	.st15{fill:#4C52A3;}
	.st16{fill:#BF6B1E;}
	.st17{fill:#5F7ABC;}
	.st18{fill:#D4761E;}
	.st19{fill:#5D76B2;}
	.st20{fill:#668DC5;}
</style>
<g>
	<g>
		<path class="st3" d="M50,0.706H15c-1.657,0-3,1.343-3,3v50c0,1.657,1.343,3,3,3h35c2.209,0,4-1.791,4-4v-48
			C54,2.497,52.209,0.706,50,0.706z"/>
	</g>
	<g>
		<path class="st4" d="M48,0.706H15c-1.657,0-3,1.343-3,3v50c0,1.657,1.343,3,3,3h33c2.209,0,4-1.791,4-4v-48
			C52,2.497,50.209,0.706,48,0.706z"/>
	</g>
	<g>
		<path class="st5" d="M48,2.706h-2.555c0.344,0.59,0.555,1.268,0.555,2v48c0,0.732-0.211,1.41-0.555,2H48c1.105,0,2-0.896,2-2v-48
			C50,3.601,49.105,2.706,48,2.706z"/>
	</g>
	<g>
		<path class="st3" d="M42,0.706H15c-1.657,0-3,1.343-3,3v50c0,1.657,1.343,3,3,3h27c2.209,0,4-1.791,4-4v-48
			C46,2.497,44.209,0.706,42,0.706z"/>
	</g>
	<g>
		<path class="st4" d="M40,56.706H15c-1.657,0-3-1.343-3-3v-50c0-1.657,1.343-3,3-3h25c2.209,0,4,1.791,4,4v48
			C44,54.915,42.209,56.706,40,56.706z"/>
	</g>
	<g>
		<path class="st1" d="M18,56.706v5.586c0,0.891,1.077,1.337,1.707,0.707l2.586-2.586c0.391-0.391,1.024-0.391,1.414,0l2.586,2.586
			c0.63,0.63,1.707,0.184,1.707-0.707v-5.586H18z"/>
	</g>
	<g>
		<path class="st10" d="M38.5,48.706h-21c-0.828,0-1.5-0.672-1.5-1.5v-37c0-0.828,0.672-1.5,1.5-1.5h21c0.828,0,1.5,0.672,1.5,1.5
			v37C40,48.035,39.328,48.706,38.5,48.706z"/>
	</g>
	<g>
		<g>
			<path class="st0" d="M25.5,14.706H21c-0.552,0-1,0.448-1,1v12.5c0,0.552,0.448,1,1,1h4.5c0.552,0,1-0.448,1-1v-12.5
				C26.5,15.154,26.052,14.706,25.5,14.706z"/>
		</g>
		<g>
			<path class="st0" d="M35,14.706h-4.5c-0.552,0-1,0.448-1,1v12.5c0,0.552,0.448,1,1,1H35c0.552,0,1-0.448,1-1v-12.5
				C36,15.154,35.552,14.706,35,14.706z"/>
		</g>
		<g>
			<path class="st0" d="M35,32.206H21c-0.552,0-1,0.448-1,1v10.5c0,0.552,0.448,1,1,1h14c0.552,0,1-0.448,1-1v-10.5
				C36,32.654,35.552,32.206,35,32.206z"/>
		</g>
	</g>
	<g>
		<path class="st3" d="M32,5.706h-8c-0.552,0-1-0.448-1-1v0c0-0.552,0.448-1,1-1h8c0.552,0,1,0.448,1,1v0
			C33,5.258,32.552,5.706,32,5.706z"/>
	</g>
	<g>
		<circle class="st3" cx="28" cy="52.706" r="2"/>
	</g>
	<g>
		<path class="st1" d="M34,14.706h6v-6h0C36.686,8.706,34,11.392,34,14.706L34,14.706z"/>
	</g>
	<g>
		<path class="st7" d="M26,14.706h8v0c0-3.314,2.686-6,6-6h0h-8C28.686,8.706,26,11.392,26,14.706L26,14.706z"/>
	</g>
	<g>
		<path class="st7" d="M10,14.706h8v0c0-3.314,2.686-6,6-6h0h-8C12.686,8.706,10,11.392,10,14.706L10,14.706z"/>
	</g>
	<g>
		<path class="st5" d="M18,14.706h8v0c0-3.314,2.686-6,6-6h0h-8C20.686,8.706,18,11.392,18,14.706L18,14.706z"/>
	</g>
	<g>
		<path class="st1" d="M14,18.706L14,18.706c-2.209,0-4-1.791-4-4v0h8v0C18,16.915,16.209,18.706,14,18.706z"/>
	</g>
	<g>
		<path class="st1" d="M30,18.706L30,18.706c-2.209,0-4-1.791-4-4v0h8v0C34,16.915,32.209,18.706,30,18.706z"/>
	</g>
	<g>
		<path class="st6" d="M22,18.706L22,18.706c-2.209,0-4-1.791-4-4v0h8v0C26,16.915,24.209,18.706,22,18.706z"/>
	</g>
	<g>
		<path class="st1" d="M38,31.706h-2v-2h2c0.552,0,1,0.448,1,1v0C39,31.258,38.552,31.706,38,31.706z"/>
	</g>
	<g>
		<circle class="st7" cx="36" cy="30.706" r="2"/>
	</g>
	<g>
		<circle class="st13" cx="35" cy="30.706" r="1"/>
	</g>
</g>
</svg>
