<?xml version="1.0" encoding="utf-8"?>
<!-- Generator: Adobe Illustrator 23.0.0, SVG Export Plug-In . SVG Version: 6.00 Build 0)  -->
<svg version="1.1" id="Layer_1" xmlns="http://www.w3.org/2000/svg" xmlns:xlink="http://www.w3.org/1999/xlink" x="0px" y="0px"
	 viewBox="0 0 64 64" style="enable-background:new 0 0 64 64;" xml:space="preserve">
<style type="text/css">
	.st0{fill:#353744;}
	.st1{fill:#F68820;}
	.st2{fill:#808080;}
	.st3{fill:#5C76B2;}
	.st4{fill:#6FA4D8;}
	.st5{fill:#DBDEE3;}
	.st6{fill:#B3B4B6;}
	.st7{fill:#FBBE18;}
	.st8{fill:#EEC78E;}
	.st9{fill:#DB9E68;}
	.st10{fill:#55525B;}
	.st11{fill:#FFFFFF;}
	.st12{fill:#1C1D28;}
	.st13{fill:#FBD301;}
	.st14{fill:#BE7850;}
	.st15{fill:#4C52A3;}
	.st16{fill:#BF6B1E;}
	.st17{fill:#5F7ABC;}
	.st18{fill:#D4761E;}
	.st19{fill:#5D76B2;}
	.st20{fill:#668DC5;}
</style>
<g>
	<g>
		<path class="st7" d="M53.5,14.5h-2c-0.552,0-1,0.448-1,1v0c0,0.552,0.448,1,1,1h2c0.552,0,1-0.448,1-1v0
			C54.5,14.948,54.052,14.5,53.5,14.5z"/>
	</g>
	<g>
		<path class="st7" d="M50.743,9.843l-1.414,1.414c-0.391,0.391-0.391,1.024,0,1.414v0c0.391,0.391,1.024,0.391,1.414,0l1.414-1.414
			c0.391-0.391,0.391-1.024,0-1.414l0,0C51.766,9.453,51.133,9.453,50.743,9.843z"/>
	</g>
	<g>
		<path class="st7" d="M50.743,21.157l-1.414-1.414c-0.391-0.391-0.391-1.024,0-1.414l0,0c0.391-0.391,1.024-0.391,1.414,0
			l1.414,1.414c0.391,0.391,0.391,1.024,0,1.414l0,0C51.766,21.547,51.133,21.547,50.743,21.157z"/>
	</g>
	<g>
		<g>
			<path class="st1" d="M47,27.5H30c3.033,0,5.5,2.467,5.5,5.5s-2.467,5.5-5.5,5.5h17c3.038,0,5.5-2.462,5.5-5.5v0
				C52.5,29.962,50.038,27.5,47,27.5z"/>
		</g>
	</g>
	<g>
		<path class="st3" d="M37,27.5h-2.5c3.038,0,5.5,2.462,5.5,5.5v0c0,3.038-2.462,5.5-5.5,5.5H37c3.038,0,5.5-2.462,5.5-5.5v0
			C42.5,29.962,40.038,27.5,37,27.5z"/>
	</g>
	<g>
		<path class="st5" d="M33.5,33c0-1.93-1.57-3.5-3.5-3.5H15.5v7H30C31.93,36.5,33.5,34.93,33.5,33z"/>
	</g>
	<g>
		<g>
			<path class="st5" d="M13.5,47c-1.654,0-3,1.121-3,2.5s1.346,2.5,3,2.5h28v-5H13.5z"/>
		</g>
		<g>
			<path class="st1" d="M50.5,45h-9c0.552,0,1,0.448,1,1s-0.448,1-1,1h9c0.552,0,1-0.448,1-1S51.052,45,50.5,45z"/>
		</g>
		<g>
			<path class="st1" d="M50.5,52h-9c0.552,0,1,0.448,1,1s-0.448,1-1,1h9c0.552,0,1-0.448,1-1S51.052,52,50.5,52z"/>
		</g>
		<g>
			<path class="st7" d="M41.5,54h-28c-2.757,0-5-2.019-5-4.5s2.243-4.5,5-4.5h28c0.552,0,1,0.448,1,1s-0.448,1-1,1h-28
				c-1.654,0-3,1.121-3,2.5s1.346,2.5,3,2.5h28c0.552,0,1,0.448,1,1S42.052,54,41.5,54z"/>
		</g>
		<g>
			<rect x="41.5" y="47" class="st6" width="9" height="5"/>
		</g>
	</g>
	<g>
		<path class="st10" d="M58,45H20c-0.828,0-1.5-0.672-1.5-1.5V40c0-0.828,0.672-1.5,1.5-1.5h38c0.828,0,1.5,0.672,1.5,1.5v3.5
			C59.5,44.328,58.828,45,58,45z"/>
	</g>
	<g>
		<rect x="23" y="38.5" class="st0" width="4" height="6.5"/>
	</g>
	<g>
		<rect x="50.5" y="38.5" class="st0" width="1.5" height="6.5"/>
	</g>
	<g>
		<path class="st7" d="M30,38.5H15.5c-0.552,0-1-0.448-1-1s0.448-1,1-1H30c1.93,0,3.5-1.57,3.5-3.5s-1.57-3.5-3.5-3.5H15.5
			c-0.552,0-1-0.448-1-1s0.448-1,1-1H30c3.033,0,5.5,2.467,5.5,5.5S33.033,38.5,30,38.5z"/>
	</g>
	<g>
		<g>
			<path class="st5" d="M7,56c-1.654,0-3,1.121-3,2.5S5.346,61,7,61h32v-5H7z"/>
		</g>
		<g>
			<path class="st3" d="M61,54H39c0.552,0,1,0.448,1,1s-0.448,1-1,1h22c0.552,0,1-0.448,1-1S61.552,54,61,54z"/>
		</g>
		<g>
			<path class="st3" d="M61,61H39c0.552,0,1,0.448,1,1s-0.448,1-1,1h22c0.552,0,1-0.448,1-1S61.552,61,61,61z"/>
		</g>
		<g>
			<path class="st4" d="M39,63H7c-2.757,0-5-2.019-5-4.5S4.243,54,7,54h32c0.552,0,1,0.448,1,1s-0.448,1-1,1H7
				c-1.654,0-3,1.121-3,2.5S5.346,61,7,61h32c0.552,0,1,0.448,1,1S39.552,63,39,63z"/>
		</g>
		<g>
			<rect x="39" y="56" class="st6" width="22" height="5"/>
		</g>
	</g>
	<g>
		<path class="st7" d="M45.5,21h-26c-0.552,0-1,0.448-1,1v1c0,1.105,0.895,2,2,2h24c1.105,0,2-0.895,2-2v-1
			C46.5,21.448,46.052,21,45.5,21z"/>
	</g>
	<g>
		<rect x="19.5" y="19" class="st7" width="26" height="2"/>
	</g>
	<g>
		<path class="st7" d="M39.5,12l-7-7l-7,7l-7-7v13c0,0.552,0.448,1,1,1h26c0.552,0,1-0.448,1-1V5L39.5,12z"/>
	</g>
	<g>
		<rect x="19.5" y="19" class="st1" width="13" height="2"/>
	</g>
	<g>
		<rect x="32.5" y="19" class="st16" width="13" height="2"/>
	</g>
	<g>
		<g>
			<path class="st1" d="M46.5,18V5l-7,7l-7-7v14h13C46.052,19,46.5,18.552,46.5,18z"/>
		</g>
		<g>
			<path class="st1" d="M32.5,21v4h12c1.105,0,2-0.895,2-2v-1c0-0.552-0.448-1-1-1H32.5z"/>
		</g>
	</g>
	<g>
		<circle class="st1" cx="32.489" cy="3.5" r="2.5"/>
	</g>
	<g>
		<path class="st13" d="M31.759,1.121c-0.79,0.242-1.407,0.859-1.649,1.649c0.198,0.429,0.626,0.73,1.129,0.73
			c0.69,0,1.25-0.56,1.25-1.25C32.489,1.747,32.188,1.319,31.759,1.121z"/>
	</g>
	<g>
		<circle class="st1" cx="46.5" cy="3.5" r="2.5"/>
	</g>
	<g>
		<path class="st13" d="M45.77,1.121c-0.79,0.242-1.407,0.859-1.649,1.649c0.198,0.429,0.626,0.73,1.129,0.73
			c0.69,0,1.25-0.56,1.25-1.25C46.5,1.747,46.199,1.319,45.77,1.121z"/>
	</g>
	<g>
		<circle class="st1" cx="18.5" cy="3.5" r="2.5"/>
	</g>
	<g>
		<path class="st13" d="M17.77,1.121c-0.79,0.242-1.407,0.859-1.649,1.649c0.198,0.429,0.626,0.73,1.129,0.73
			c0.69,0,1.25-0.56,1.25-1.25C18.5,1.747,18.199,1.319,17.77,1.121z"/>
	</g>
	<g>
		<path class="st4" d="M31.086,10.414l-1.172,1.172c-0.781,0.781-0.781,2.047,0,2.828l1.172,1.172c0.781,0.781,2.047,0.781,2.828,0
			l1.172-1.172c0.781-0.781,0.781-2.047,0-2.828l-1.172-1.172C33.133,9.633,31.867,9.633,31.086,10.414z"/>
	</g>
	<g>
		<path class="st7" d="M11.5,14.5h2c0.552,0,1,0.448,1,1v0c0,0.552-0.448,1-1,1h-2c-0.552,0-1-0.448-1-1v0
			C10.5,14.948,10.948,14.5,11.5,14.5z"/>
	</g>
	<g>
		<path class="st7" d="M14.257,9.843l1.414,1.414c0.391,0.391,0.391,1.024,0,1.414l0,0c-0.391,0.391-1.024,0.391-1.414,0
			l-1.414-1.414c-0.391-0.391-0.391-1.024,0-1.414l0,0C13.234,9.453,13.867,9.453,14.257,9.843z"/>
	</g>
	<g>
		<path class="st7" d="M14.257,21.157l1.414-1.414c0.391-0.391,0.391-1.024,0-1.414h0c-0.391-0.391-1.024-0.391-1.414,0
			l-1.414,1.414c-0.391,0.391-0.391,1.024,0,1.414l0,0C13.234,21.547,13.867,21.547,14.257,21.157z"/>
	</g>
	<g>
		<path class="st3" d="M33.914,15.586l1.172-1.172c0.781-0.781,0.781-2.047,0-2.828l-1.172-1.172
			c-0.391-0.391-0.902-0.586-1.414-0.586v6.343C33.012,16.172,33.524,15.976,33.914,15.586z"/>
	</g>
</g>
</svg>
