<?xml version="1.0" encoding="utf-8"?>
<!-- Generator: Adobe Illustrator 23.0.0, SVG Export Plug-In . SVG Version: 6.00 Build 0)  -->
<svg version="1.1" id="Layer_1" xmlns="http://www.w3.org/2000/svg" xmlns:xlink="http://www.w3.org/1999/xlink" x="0px" y="0px"
	 viewBox="0 0 64 64" style="enable-background:new 0 0 64 64;" xml:space="preserve">
<style type="text/css">
	.st0{fill:#353744;}
	.st1{fill:#F68820;}
	.st2{fill:#808080;}
	.st3{fill:#5C76B2;}
	.st4{fill:#6FA4D8;}
	.st5{fill:#DBDEE3;}
	.st6{fill:#B3B4B6;}
	.st7{fill:#FBBE18;}
	.st8{fill:#EEC78E;}
	.st9{fill:#DB9E68;}
	.st10{fill:#55525B;}
	.st11{fill:#FFFFFF;}
	.st12{fill:#1C1D28;}
	.st13{fill:#FBD301;}
	.st14{fill:#BE7850;}
	.st15{fill:#4C52A3;}
	.st16{fill:#BF6B1E;}
	.st17{fill:#5F7ABC;}
	.st18{fill:#D4761E;}
	.st19{fill:#5D76B2;}
	.st20{fill:#668DC5;}
</style>
<g>
	<g>
		<rect x="48.5" y="10" class="st7" width="4" height="20"/>
	</g>
	<g>
		<rect x="50.5" y="10" class="st1" width="2" height="20"/>
	</g>
	<g>
		<path class="st5" d="M53.5,24h-6c-0.552,0-1,0.448-1,1v0c0,0.552,0.448,1,1,1h6c0.552,0,1-0.448,1-1v0
			C54.5,24.448,54.052,24,53.5,24z"/>
	</g>
	<g>
		<path class="st5" d="M53.5,28h-6c-0.552,0-1,0.448-1,1v1h8v-1C54.5,28.448,54.052,28,53.5,28z"/>
	</g>
	<g>
		<path class="st8" d="M55,30H19.5v32H36c0.828,0,1.5-0.672,1.5-1.5V56h15c2.209,0,4-1.791,4-4V31.5C56.5,30.672,55.828,30,55,30z"
			/>
	</g>
	<g>
		<path class="st9" d="M36,62H19.5v0c0-3.314,2.686-6,6-6h12v4.5C37.5,61.328,36.828,62,36,62z"/>
	</g>
	<g>
		<path class="st10" d="M17,30c-0.828,0-1.5,0.672-1.5,1.5V48v0c0,2.209,1.791,4,4,4h10c2.209,0,4-1.791,4-4v-8h3
			c0.828,0,1.5-0.672,1.5-1.5V30H17z"/>
	</g>
	<g>
		<path class="st9" d="M33.5,34c-3.314,0-6,2.686-6,6c0,3.314,2.686,6,6,6V34z"/>
	</g>
	<g>
		<circle class="st10" cx="43.5" cy="34" r="2"/>
	</g>
	<g>
		<circle class="st10" cx="52.5" cy="34" r="2"/>
	</g>
	<g>
		<path class="st9" d="M50,48L50,48c-1.381,0-2.5-1.119-2.5-2.5V36h0c2.761,0,5,2.239,5,5v4.5C52.5,46.881,51.381,48,50,48z"/>
	</g>
	<g>
		<path class="st10" d="M47.5,52h3c1.105,0,2-0.895,2-2v0h-7v0C45.5,51.105,46.395,52,47.5,52z"/>
	</g>
	<g>
		<g>
			<path class="st6" d="M33.5,2h-19c-3.866,0-7,3.134-7,7c0,0.552,0.448,1,1,1c0.556,0,1.007-0.454,1-1.012
				C9.493,8.44,9.952,8,10.5,8h4c0.552,0,1,0.448,1,1v1c0,1.104,0.895,2,2,2h16c1.105,0,2-0.896,2-2V4C35.5,2.895,34.605,2,33.5,2z"
				/>
		</g>
		<g>
			<rect x="21.5" y="12" class="st7" width="8" height="18"/>
		</g>
		<g>
			<rect x="25.5" y="12" class="st1" width="4" height="18"/>
		</g>
		<g>
			<path class="st5" d="M38.5,2L38.5,2L38.5,2H35c-2.761,0-5,2.239-5,5s2.239,5,5,5h3.5l0,0h0c2.761,0,5-2.239,5-5S41.261,2,38.5,2z
				"/>
		</g>
		<g>
			<circle class="st6" cx="38.5" cy="7" r="5"/>
		</g>
		<g>
			<path class="st6" d="M8.5,10H11c0.552,0,1-0.448,1-1v0c0-0.552,0.448-1,1-1l0,0H9.5c-0.552,0-1,0.448-1,1V10z"/>
		</g>
		<g>
			<path class="st6" d="M14,9c0,0.552,0.448,1,1,1h1.5c0.552,0,1-0.448,1-1v0c0-0.552,0.448-1,1-1l0,0H15C14.448,8,14,8.448,14,9
				L14,9z"/>
		</g>
		<g>
			<path class="st5" d="M25.5,2h-11c-3.866,0-7,3.134-7,7c0,0.552,0.448,1,1,1c0.556,0,1.007-0.454,1-1.012
				C9.493,8.44,9.952,8,10.5,8l4,0c0.552,0,1,0.448,1,1v1c0,1.105,0.895,2,2,2h8c1.105,0,2-0.895,2-2V4C27.5,2.895,26.605,2,25.5,2z
				"/>
		</g>
	</g>
	<g>
		<path class="st7" d="M48.386,2.342l-1.788,5.365c-0.06,0.18-0.013,0.378,0.121,0.512L48.5,10h4l1.781-1.781
			c0.134-0.134,0.181-0.332,0.121-0.512l-1.788-5.365C52.546,2.138,52.355,2,52.14,2H48.86C48.645,2,48.454,2.138,48.386,2.342z"/>
	</g>
	<g>
		<rect x="47.5" y="26" class="st6" width="6" height="2"/>
	</g>
	<g>
		<path class="st6" d="M50.5,24L50.5,24c0,0.552-0.448,1-1,1h-3l0,0c0,0.552,0.448,1,1,1h6c0.552,0,1-0.448,1-1v0
			c0-0.552-0.448-1-1-1H50.5z"/>
	</g>
	<g>
		<path class="st3" d="M45.5,19c0-1.731-0.882-3.253-2.219-4.15c-0.086-0.058-0.18-0.081-0.272-0.081v-0.003h-3v0.003
			c-0.262,0-0.509,0.21-0.509,0.505v3.592c0,0.179-0.095,0.344-0.25,0.433L39,19.443l-0.25-0.144
			c-0.155-0.089-0.25-0.254-0.25-0.433v-3.597c0-0.293-0.245-0.506-0.506-0.506v-0.001h-3v0.001c-0.089,0-0.18,0.024-0.264,0.079
			c-1.568,1.045-2.514,2.949-2.154,5.043c0.283,1.645,1.419,3.039,2.924,3.695V30h7v-6.424C44.264,22.803,45.5,21.049,45.5,19z"/>
	</g>
	<g>
		<path class="st4" d="M42.5,19c0-1.731-0.882-3.253-2.219-4.15c-0.331-0.222-0.781,0.025-0.781,0.424v3.592
			c0,0.179-0.095,0.344-0.25,0.433l-1.5,0.866c-0.155,0.089-0.345,0.089-0.5,0l-1.5-0.866c-0.155-0.089-0.25-0.254-0.25-0.433
			v-3.597c0-0.394-0.442-0.645-0.769-0.427c-1.568,1.045-2.514,2.949-2.154,5.043c0.283,1.645,1.419,3.039,2.924,3.695V30h4v-6.424
			C41.264,22.803,42.5,21.049,42.5,19z"/>
	</g>
	<g>
		<path class="st3" d="M38,30h-1v-5.5c0-0.276,0.224-0.5,0.5-0.5h0c0.276,0,0.5,0.224,0.5,0.5V30z"/>
	</g>
</g>
</svg>
