<?xml version="1.0" encoding="utf-8"?>
<!-- Generator: Adobe Illustrator 23.0.0, SVG Export Plug-In . SVG Version: 6.00 Build 0)  -->
<svg version="1.1" id="Layer_1" xmlns="http://www.w3.org/2000/svg" xmlns:xlink="http://www.w3.org/1999/xlink" x="0px" y="0px"
	 viewBox="0 0 64 64" style="enable-background:new 0 0 64 64;" xml:space="preserve">
<style type="text/css">
	.st0{fill:#353744;}
	.st1{fill:#F68820;}
	.st2{fill:#808080;}
	.st3{fill:#5C76B2;}
	.st4{fill:#6FA4D8;}
	.st5{fill:#DBDEE3;}
	.st6{fill:#B3B4B6;}
	.st7{fill:#FBBE18;}
	.st8{fill:#EEC78E;}
	.st9{fill:#DB9E68;}
	.st10{fill:#55525B;}
	.st11{fill:#FFFFFF;}
	.st12{fill:#1C1D28;}
	.st13{fill:#FBD301;}
	.st14{fill:#BE7850;}
	.st15{fill:#4C52A3;}
	.st16{fill:#BF6B1E;}
	.st17{fill:#5F7ABC;}
	.st18{fill:#D4761E;}
	.st19{fill:#5D76B2;}
	.st20{fill:#668DC5;}
</style>
<g>
	<g>
		<path class="st5" d="M6,60.25h24v2H4v0C4,61.145,4.895,60.25,6,60.25z"/>
	</g>
	<g>
		<path class="st7" d="M32,6.25h-3v-4h3c0.552,0,1,0.448,1,1v2C33,5.802,32.552,6.25,32,6.25z"/>
	</g>
	<g>
		<path class="st10" d="M29,7.75c-0.276,0-0.5-0.224-0.5-0.5v-5c0-0.276,0.224-0.5,0.5-0.5s0.5,0.224,0.5,0.5v5
			C29.5,7.526,29.276,7.75,29,7.75z"/>
	</g>
	<g>
		<rect x="12" y="32.25" class="st7" width="24" height="28"/>
	</g>
	<g>
		<path class="st0" d="M30,60.25H18v-10c0-3.314,2.686-6,6-6h0c3.314,0,6,2.686,6,6V60.25z"/>
	</g>
	<g>
		<path class="st1" d="M12,32.25v10h22c1.105,0,2,0.895,2,2v16h22v-28H12z"/>
	</g>
	<g>
		<path class="st5" d="M30,36.25H6c-1.105,0-2-0.895-2-2v-2h26V36.25z"/>
	</g>
	<g>
		<g>
			<rect x="31" y="36.25" class="st2" width="1" height="24"/>
		</g>
		<g>
			<rect x="29" y="36.25" class="st6" width="2" height="24"/>
		</g>
		<g>
			<rect x="28" y="36.25" class="st5" width="1" height="24"/>
		</g>
		<g>
			<path class="st2" d="M28,38.25h4c1.105,0,2-0.895,2-2v0h-6V38.25z"/>
		</g>
		<g>
			<path class="st5" d="M28,38.25L28,38.25c1.105,0,2-0.895,2-2v0h-4v0C26,37.355,26.895,38.25,28,38.25z"/>
		</g>
		<g>
			<path class="st2" d="M28,58.25h4c1.105,0,2,0.895,2,2v0h-6V58.25z"/>
		</g>
		<g>
			<path class="st5" d="M28,58.25L28,58.25c1.105,0,2,0.895,2,2v0h-4v0C26,59.145,26.895,58.25,28,58.25z"/>
		</g>
	</g>
	<g>
		<g>
			<rect x="11" y="36.25" class="st2" width="1" height="24"/>
		</g>
		<g>
			<rect x="9" y="36.25" class="st6" width="2" height="24"/>
		</g>
		<g>
			<rect x="8" y="36.25" class="st5" width="1" height="24"/>
		</g>
		<g>
			<path class="st2" d="M8,38.25h4c1.105,0,2-0.895,2-2v0H8V38.25z"/>
		</g>
		<g>
			<path class="st5" d="M8,38.25L8,38.25c1.105,0,2-0.895,2-2v0H6v0C6,37.355,6.895,38.25,8,38.25z"/>
		</g>
		<g>
			<path class="st2" d="M8,58.25h4c1.105,0,2,0.895,2,2v0H8V58.25z"/>
		</g>
		<g>
			<path class="st5" d="M8,58.25L8,58.25c1.105,0,2,0.895,2,2v0H6v0C6,59.145,6.895,58.25,8,58.25z"/>
		</g>
	</g>
	<g>
		<polygon class="st10" points="4,32.25 16,20.25 28,32.25 		"/>
	</g>
	<g>
		<path class="st0" d="M60,32.25l-9.1-10.921c-0.57-0.684-1.414-1.079-2.305-1.079H16l12,12H60z"/>
	</g>
	<g>
		<polygon class="st0" points="16,22.75 6,32.25 8,32.25 16.974,23.724 		"/>
	</g>
	<g>
		<path class="st16" d="M41.5,46.25h-2c-0.552,0-1-0.448-1-1v-6c0-0.552,0.448-1,1-1h2c0.552,0,1,0.448,1,1v6
			C42.5,45.802,42.052,46.25,41.5,46.25z"/>
	</g>
	<g>
		<path class="st16" d="M41.5,58.25h-2c-0.552,0-1-0.448-1-1v-6c0-0.552,0.448-1,1-1h2c0.552,0,1,0.448,1,1v6
			C42.5,57.802,42.052,58.25,41.5,58.25z"/>
	</g>
	<g>
		<path class="st16" d="M54.5,46.25h-2c-0.552,0-1-0.448-1-1v-6c0-0.552,0.448-1,1-1h2c0.552,0,1,0.448,1,1v6
			C55.5,45.802,55.052,46.25,54.5,46.25z"/>
	</g>
	<g>
		<path class="st16" d="M54.5,58.25h-2c-0.552,0-1-0.448-1-1v-6c0-0.552,0.448-1,1-1h2c0.552,0,1,0.448,1,1v6
			C55.5,57.802,55.052,58.25,54.5,58.25z"/>
	</g>
	<g>
		<path class="st16" d="M48,46.25h-2c-0.552,0-1-0.448-1-1v-6c0-0.552,0.448-1,1-1h2c0.552,0,1,0.448,1,1v6
			C49,45.802,48.552,46.25,48,46.25z"/>
	</g>
	<g>
		<path class="st16" d="M48,58.25h-2c-0.552,0-1-0.448-1-1v-6c0-0.552,0.448-1,1-1h2c0.552,0,1,0.448,1,1v6
			C49,57.802,48.552,58.25,48,58.25z"/>
	</g>
	<g>
		<polygon class="st5" points="24,20.25 29,25.25 29,14.25 21,14.25 21,20.25 		"/>
	</g>
	<g>
		<rect x="29" y="14.25" class="st6" width="8" height="11"/>
	</g>
	<g>
		<path class="st10" d="M29,14.25v-8l-8.887,7.11c-0.369,0.295-0.16,0.89,0.312,0.89H29z"/>
	</g>
	<g>
		<path class="st0" d="M29,6.25l8.887,7.11c0.369,0.295,0.16,0.89-0.312,0.89H29V6.25z"/>
	</g>
	<g>
		<circle class="st10" cx="24.5" cy="17.25" r="1.5"/>
	</g>
	<g>
		<path class="st6" d="M30,60.25h28c1.105,0,2,0.895,2,2v0H28v0C28,61.145,28.895,60.25,30,60.25z"/>
	</g>
	<g>
		<path class="st6" d="M30,36.25h28c1.105,0,2-0.895,2-2v-2H28v2C28,35.355,28.895,36.25,30,36.25z"/>
	</g>
</g>
</svg>
