<?xml version="1.0" encoding="utf-8"?>
<!-- Generator: Adobe Illustrator 22.0.0, SVG Export Plug-In . SVG Version: 6.00 Build 0)  -->
<svg version="1.1" id="Layer_1" xmlns="http://www.w3.org/2000/svg" xmlns:xlink="http://www.w3.org/1999/xlink" x="0px" y="0px"
	 viewBox="0 0 256 256" style="enable-background:new 0 0 256 256;" xml:space="preserve">
<style type="text/css">
	.st0{fill:#3A312A;}
	.st1{fill:#F16C7A;}
	.st2{fill:#D7E057;}
	.st3{fill:#F8E4C8;}
	.st4{fill:#89C4DB;}
	.st5{fill-rule:evenodd;clip-rule:evenodd;fill:#F8E4C8;}
	.st6{fill:#87796F;}
	.st7{fill:#D4DB56;}
	.st8{fill:#F59689;}
	.st9{fill:#6CA6BE;}
	.st10{fill:#695B51;}
	.st11{fill:#F7E3C7;}
	.st12{fill:#8AC6DD;}
	.st13{fill:#6CA8BF;}
	.st14{fill:#D6DF58;}
	.st15{fill:#FAE6CA;}
	.st16{fill:#EF6D7A;}
	.st17{fill:#DDC9AC;}
	.st18{fill:#D24E5C;}
	.st19{fill:#6A5C52;}
	.st20{fill:#B9C239;}
	.st21{fill:#FCE8CB;}
	.st22{fill:#DECAAD;}
	.st23{fill:#D5DE58;}
	.st24{fill:#8AC5DC;}
	.st25{fill:#D34E5C;}
	.st26{fill:#ED6E7A;}
	.st27{fill:#B8C136;}
</style>
<g>
	<path class="st14" d="M47.799,26.283c0,0,3.408,12.659,13.222,13.246c0,0-13.1,4.525-13.321,14.202c0,0-2.578-13.572-12.925-14.059
		C34.774,39.672,46.825,37.847,47.799,26.283z"/>
	<path class="st0" d="M47.698,55.23c-0.713,0-1.335-0.506-1.473-1.218c-0.024-0.124-2.494-12.417-11.521-12.842
		c-0.771-0.036-1.388-0.65-1.428-1.421c-0.04-0.77,0.511-1.444,1.273-1.561c0.441-0.068,10.895-1.817,11.754-12.032
		c0.062-0.726,0.635-1.301,1.359-1.367c0.731-0.056,1.393,0.399,1.584,1.102c0.031,0.116,3.259,11.626,11.863,12.141
		c0.714,0.042,1.297,0.583,1.396,1.292c0.098,0.708-0.318,1.388-0.994,1.622c-0.121,0.042-12.119,4.311-12.312,12.819
		c-0.018,0.767-0.61,1.396-1.375,1.46C47.782,55.229,47.74,55.23,47.698,55.23z M39.958,39.501c3.878,1.97,6.229,5.746,7.586,8.876
		c2.026-4.021,5.942-6.786,8.949-8.426c-4.135-1.843-6.783-5.651-8.334-8.723C46.366,35.589,42.889,38.097,39.958,39.501z"/>
	<path class="st14" d="M26.1,43.263c0,0,2.411,8.954,9.352,9.369c0,0-9.266,3.201-9.422,10.045c0,0-1.824-9.6-9.142-9.944
		C16.888,52.734,25.411,51.443,26.1,43.263z"/>
	<path class="st0" d="M26.028,64.178c-0.714,0-1.337-0.508-1.473-1.22c-0.016-0.082-1.703-8.441-7.738-8.726
		c-0.771-0.036-1.388-0.65-1.428-1.421c-0.04-0.77,0.511-1.444,1.273-1.561c0.296-0.047,7.363-1.243,7.941-8.113
		c0.062-0.726,0.636-1.303,1.361-1.368c0.721-0.058,1.392,0.399,1.581,1.102l0,0c0.022,0.079,2.229,7.92,7.995,8.265
		c0.714,0.042,1.299,0.584,1.396,1.293c0.097,0.709-0.32,1.389-0.996,1.622c-0.081,0.028-8.283,2.953-8.413,8.661
		c-0.018,0.768-0.611,1.397-1.377,1.461C26.111,64.176,26.069,64.178,26.028,64.178z M21.51,52.65
		c2.107,1.333,3.523,3.395,4.447,5.279c1.376-2.231,3.515-3.871,5.364-4.972c-2.286-1.27-3.884-3.35-4.941-5.224
		C25.207,50.021,23.365,51.609,21.51,52.65z"/>
	<path class="st14" d="M26.1,16.606c0,0,2.411,8.954,9.352,9.37c0,0-9.266,3.201-9.422,10.045c0,0-1.824-9.6-9.142-9.944
		C16.888,26.076,25.411,24.785,26.1,16.606z"/>
	<path class="st0" d="M26.028,37.521c-0.714,0-1.337-0.508-1.473-1.22c-0.016-0.082-1.703-8.442-7.738-8.727
		c-0.771-0.036-1.388-0.65-1.428-1.421c-0.04-0.769,0.511-1.444,1.273-1.56c0.296-0.047,7.363-1.242,7.941-8.113
		c0.062-0.726,0.636-1.303,1.361-1.368c0.721-0.057,1.392,0.399,1.581,1.102l0,0c0.022,0.079,2.229,7.92,7.995,8.266
		c0.714,0.043,1.299,0.584,1.396,1.293c0.097,0.709-0.32,1.389-0.997,1.622c-0.08,0.028-8.282,2.952-8.412,8.661
		c-0.018,0.768-0.611,1.397-1.377,1.461C26.111,37.519,26.069,37.521,26.028,37.521z M21.51,25.993
		c2.107,1.332,3.523,3.393,4.447,5.279c1.376-2.231,3.515-3.872,5.365-4.972c-2.287-1.27-3.885-3.351-4.942-5.225
		C25.207,23.363,23.365,24.952,21.51,25.993z"/>
	<path class="st16" d="M39.404,103.028c-0.769,2.439-1.455,4.916-2.031,7.435h-4.27c-5.12,0-9.27,4.15-9.27,9.27v23.604
		c0,5.12,4.15,9.27,9.27,9.27h4.048c2.407,11.077,6.716,21.442,12.572,30.737l-2.75,2.75c-3.62,3.62-3.62,9.489,0,13.11
		l16.69,16.691c3.62,3.62,9.49,3.62,13.11,0l2.631-2.631c9.313,5.967,19.722,10.37,30.855,12.853v3.649c0,5.12,4.15,9.27,9.27,9.27
		h23.604c5.12,0,9.27-4.15,9.27-9.27v-3.649c11.133-2.483,21.542-6.886,30.855-12.853l2.632,2.631c3.62,3.62,9.49,3.62,13.11,0
		l16.691-16.691c3.62-3.621,3.62-9.49,0-13.11l-2.75-2.75c5.856-9.295,10.165-19.66,12.572-30.737h4.049
		c5.119,0,9.27-4.15,9.27-9.27v-23.604c0-5.12-4.15-9.27-9.27-9.27h-4.271c-2.503-10.941-6.866-21.174-12.742-30.345l3.142-3.141
		c3.62-3.62,3.62-9.49,0-13.11l-16.691-16.69c-3.62-3.621-9.49-3.621-13.11,0l-3.26,3.259c-9.152-5.766-19.342-10.033-30.227-12.461
		v-4.67c0-5.12-4.15-9.27-9.27-9.27H119.53c-5.12,0-9.27,4.151-9.27,9.27v4.67c-5.769,1.553-21.074,6.695-30.227,12.461l-3.26-3.259
		c-3.62-3.621-9.49-3.621-13.11,0l-16.69,16.69c-3.62,3.62-3.62,9.49,0,13.11l3.142,3.141c-2.157,3.366-4.105,6.877-5.836,10.511
		 M131.332,179.729c-26.616,0-48.193-21.577-48.193-48.193c0-26.617,21.577-48.194,48.193-48.194
		c26.617,0,48.194,21.577,48.194,48.194C179.526,158.151,157.949,179.729,131.332,179.729z"/>
	<path class="st0" d="M143.134,240.535H119.53c-5.938,0-10.77-4.832-10.77-10.771v-2.454c-10.334-2.438-20.126-6.517-29.143-12.139
		l-1.783,1.783c-4.199,4.199-11.032,4.199-15.231,0l-16.69-16.691c-4.199-4.199-4.199-11.031,0-15.23l1.908-1.908
		c-5.518-9-9.507-18.75-11.871-29.018h-2.848c-5.939,0-10.77-4.832-10.77-10.771v-23.604c0-5.938,4.831-10.77,10.77-10.77h3.083
		c0.505-2.073,1.104-4.215,1.788-6.386c0.249-0.789,1.086-1.228,1.882-0.979c0.79,0.249,1.229,1.091,0.979,1.882
		c-0.789,2.503-1.461,4.965-2,7.318c-0.155,0.682-0.763,1.165-1.462,1.165h-4.271c-4.284,0-7.77,3.485-7.77,7.77v23.604
		c0,4.285,3.485,7.771,7.77,7.771h4.049c0.706,0,1.316,0.492,1.466,1.182c2.336,10.749,6.5,20.928,12.376,30.255
		c0.373,0.593,0.286,1.365-0.209,1.86l-2.75,2.75c-3.029,3.029-3.029,7.959,0,10.988l16.69,16.691c3.029,3.027,7.958,3.029,10.989,0
		l2.631-2.632c0.497-0.498,1.274-0.583,1.87-0.202c9.339,5.982,19.558,10.239,30.372,12.652c0.687,0.152,1.174,0.762,1.174,1.464
		v3.648c0,4.284,3.485,7.771,7.77,7.771h23.604c4.285,0,7.77-3.486,7.77-7.771v-3.648c0-0.702,0.487-1.311,1.174-1.464
		c10.814-2.413,21.033-6.67,30.372-12.652c0.597-0.381,1.374-0.295,1.87,0.202l2.631,2.632c3.03,3.029,7.959,3.027,10.989,0
		l16.691-16.691c3.029-3.029,3.029-7.959,0-10.988l-2.75-2.75c-0.495-0.495-0.582-1.268-0.209-1.86
		c5.876-9.327,10.04-19.506,12.376-30.255c0.149-0.689,0.76-1.182,1.466-1.182h4.049c4.284,0,7.77-3.485,7.77-7.771v-23.604
		c0-4.284-3.485-7.77-7.77-7.77h-4.271c-0.699,0-1.307-0.483-1.462-1.165c-2.431-10.623-6.65-20.673-12.543-29.871
		c-0.381-0.594-0.296-1.372,0.202-1.87l3.143-3.141c3.029-3.03,3.029-7.959,0-10.989L197.94,48.236
		c-3.028-3.028-7.959-3.03-10.989,0l-3.26,3.26c-0.495,0.498-1.269,0.58-1.86,0.209c-9.18-5.783-19.191-9.91-29.753-12.267
		c-0.686-0.152-1.174-0.762-1.174-1.464v-4.67c0-4.284-3.485-7.769-7.77-7.769H119.53c-4.285,0-7.77,3.485-7.77,7.769v4.67
		c0,0.678-0.455,1.272-1.11,1.448c-5.882,1.585-20.911,6.672-29.816,12.282c-0.59,0.371-1.364,0.289-1.86-0.209l-3.26-3.26
		c-3.031-3.03-7.96-3.028-10.989,0l-16.69,16.691c-3.029,3.03-3.029,7.959,0,10.989l3.142,3.141c0.498,0.498,0.583,1.276,0.202,1.87
		c-2.109,3.293-4.042,6.774-5.744,10.348c-0.357,0.748-1.25,1.062-2,0.709c-0.748-0.356-1.065-1.252-0.709-2
		c1.581-3.318,3.355-6.56,5.282-9.653l-2.294-2.293c-4.199-4.199-4.199-11.032,0-15.231l16.69-16.69c4.2-4.2,11.033-4.198,15.231,0
		l2.424,2.424c8.732-5.214,22.117-9.87,28.502-11.703v-3.531c0-5.938,4.832-10.769,10.77-10.769h23.604
		c5.938,0,10.77,4.831,10.77,10.769v3.476c10.079,2.378,19.658,6.327,28.508,11.753l2.418-2.418c4.2-4.2,11.033-4.198,15.231,0
		l16.691,16.69c4.199,4.199,4.199,11.032,0,15.231l-2.294,2.293c5.531,8.872,9.571,18.493,12.022,28.633h3.083
		c5.939,0,10.77,4.831,10.77,10.77v23.604c0,5.939-4.831,10.771-10.77,10.771h-2.848c-2.364,10.268-6.354,20.018-11.871,29.018
		l1.908,1.908c4.199,4.199,4.199,11.031,0,15.23l-16.691,16.691c-4.198,4.198-11.031,4.2-15.231,0l-1.783-1.783
		c-9.017,5.622-18.809,9.701-29.143,12.139v2.454C153.904,235.703,149.072,240.535,143.134,240.535z M131.332,181.229
		c-27.401,0-49.693-22.292-49.693-49.693c0-27.401,22.292-49.694,49.693-49.694c27.401,0,49.693,22.293,49.693,49.694
		C181.025,158.936,158.733,181.229,131.332,181.229z M131.332,84.841c-25.747,0-46.693,20.947-46.693,46.694
		c0,25.747,20.946,46.693,46.693,46.693c25.747,0,46.693-20.946,46.693-46.693C178.025,105.788,157.079,84.841,131.332,84.841z"/>
	<path class="st12" d="M145.733,138.89l19.612-17.692c2.626-2.37,2.835-6.421,0.465-9.048c-2.37-2.627-6.421-2.836-9.049-0.465
		l-36.033,32.506l-12.547-17.716c-2.046-2.888-6.045-3.569-8.93-1.526c-2.888,2.045-3.571,6.043-1.525,8.93l16.713,23.599
		c1.057,1.494,2.704,2.464,4.522,2.665c0.237,0.026,0.472,0.039,0.706,0.039c1.576,0,3.108-0.583,4.291-1.65l11.987-10.814
		L145.733,138.89z"/>
	<path class="st0" d="M119.668,161.682c-0.29,0-0.58-0.016-0.872-0.048c-2.243-0.249-4.277-1.447-5.58-3.29l-16.713-23.598
		c-2.52-3.558-1.675-8.502,1.882-11.021c3.558-2.521,8.502-1.673,11.02,1.883l11.572,16.339l34.779-31.376
		c1.567-1.415,3.593-2.132,5.703-2.025c2.108,0.108,4.049,1.032,5.463,2.6c2.92,3.237,2.663,8.247-0.573,11.166l-19.612,17.693
		c-0.616,0.552-1.562,0.506-2.119-0.109c-0.555-0.615-0.506-1.563,0.109-2.119l19.612-17.691c2.008-1.812,2.168-4.921,0.355-6.93
		c-0.877-0.973-2.081-1.546-3.391-1.613c-1.305-0.062-2.564,0.379-3.538,1.257l-36.033,32.506c-0.319,0.287-0.747,0.423-1.17,0.378
		c-0.426-0.048-0.812-0.274-1.059-0.624l-12.547-17.716c-1.564-2.207-4.633-2.734-6.839-1.169c-2.208,1.563-2.731,4.632-1.168,6.839
		l16.713,23.599c0.81,1.144,2.071,1.888,3.463,2.041c1.418,0.161,2.791-0.298,3.827-1.233l11.987-10.813
		c0.614-0.553,1.562-0.507,2.119,0.109c0.555,0.615,0.506,1.563-0.109,2.119l-11.987,10.814
		C123.508,160.959,121.627,161.682,119.668,161.682z"/>
	<path class="st2" d="M235.918,196.753h-1.419c-0.832-3.636-2.281-7.036-4.234-10.083l1.044-1.044c1.203-1.203,1.203-3.153,0-4.356
		l-5.546-5.546c-1.203-1.203-3.153-1.203-4.356,0l-1.083,1.083c-3.041-1.916-6.427-3.334-10.044-4.14v-1.552
		c0-1.701-1.379-3.08-3.08-3.08h-7.843c-1.701,0-3.08,1.379-3.08,3.08v1.552c-1.917,0.516-7.003,2.225-10.044,4.14l-1.083-1.083
		c-1.203-1.203-3.153-1.203-4.356,0l-5.546,5.546c-1.203,1.203-1.203,3.153,0,4.356l1.044,1.044
		c-1.952,3.047-3.402,6.448-4.234,10.083h-1.419c-1.701,0-3.08,1.379-3.08,3.08v7.843c0,1.701,1.379,3.08,3.08,3.08h1.345
		c0.8,3.681,2.232,7.125,4.177,10.213l-0.914,0.914c-1.203,1.203-1.203,3.153,0,4.356l5.546,5.546c1.203,1.203,3.153,1.203,4.356,0
		l0.874-0.874c3.094,1.983,6.553,3.446,10.253,4.271v1.213c0,1.701,1.379,3.08,3.08,3.08h7.843c1.701,0,3.08-1.379,3.08-3.08v-1.213
		c3.699-0.825,7.158-2.288,10.253-4.271l0.874,0.874c1.203,1.203,3.153,1.203,4.356,0l5.546-5.546c1.203-1.203,1.203-3.153,0-4.356
		l-0.914-0.914c1.946-3.089,3.378-6.533,4.177-10.213h1.345c1.701,0,3.08-1.379,3.08-3.08v-7.843
		C238.998,198.132,237.619,196.753,235.918,196.753z M203.278,219.768c-8.844,0-16.014-7.17-16.014-16.014
		c0-8.844,7.17-16.014,16.014-16.014c8.844,0,16.014,7.17,16.014,16.014C219.292,212.599,212.122,219.768,203.278,219.768z"/>
	<path class="st0" d="M207.2,240.975h-7.844c-2.525,0-4.58-2.055-4.58-4.58v-0.033c-3-0.783-5.86-1.974-8.529-3.552l-0.037,0.037
		c-0.865,0.864-2.016,1.341-3.238,1.341c-1.224,0-2.374-0.477-3.239-1.342l-5.546-5.546c-1.785-1.786-1.785-4.691-0.001-6.478
		l0.083-0.082c-1.547-2.663-2.711-5.507-3.472-8.483h-0.158c-2.525,0-4.58-2.055-4.58-4.581v-7.843c0-2.525,2.055-4.58,4.58-4.58
		h0.245c0.784-2.938,1.96-5.74,3.509-8.36l-0.206-0.206c-1.785-1.786-1.785-4.691-0.001-6.477l5.548-5.546
		c0.864-0.865,2.015-1.342,3.238-1.342c1.223,0,2.373,0.477,3.238,1.342l0.264,0.264c2.755-1.516,6.291-2.76,8.303-3.383v-0.429
		c0-2.525,2.055-4.58,4.58-4.58h7.844c2.525,0,4.58,2.055,4.58,4.58v0.372c2.916,0.762,5.703,1.91,8.314,3.428l0.252-0.253
		c0.865-0.864,2.016-1.341,3.238-1.341c1.224,0,2.374,0.477,3.239,1.342l5.545,5.546c1.786,1.786,1.786,4.691,0,6.477l-0.206,0.206
		c1.549,2.619,2.726,5.423,3.51,8.36h0.245c2.525,0,4.58,2.055,4.58,4.58v7.843c0,2.526-2.055,4.581-4.58,4.581h-0.159
		c-0.761,2.978-1.925,5.822-3.472,8.483l0.082,0.082c1.786,1.786,1.786,4.691,0,6.478l-5.546,5.546
		c-0.864,0.865-2.015,1.342-3.238,1.342c-1.223,0-2.373-0.477-3.238-1.342l-0.037-0.036c-2.669,1.578-5.529,2.768-8.529,3.552v0.033
		C211.78,238.92,209.726,240.975,207.2,240.975z M186.025,229.411c0.278,0,0.56,0.078,0.809,0.237
		c3.002,1.924,6.289,3.293,9.768,4.069c0.687,0.152,1.174,0.762,1.174,1.464v1.213c0,0.871,0.709,1.58,1.58,1.58h7.844
		c0.871,0,1.58-0.709,1.58-1.58v-1.213c0-0.702,0.487-1.311,1.174-1.464c3.479-0.776,6.767-2.146,9.769-4.069
		c0.596-0.381,1.373-0.295,1.87,0.201l0.875,0.874c0.598,0.6,1.638,0.599,2.233,0.001l5.547-5.546c0.616-0.616,0.616-1.619,0-2.235
		l-0.913-0.913c-0.495-0.495-0.582-1.268-0.209-1.86c1.89-3,3.229-6.274,3.98-9.731c0.15-0.69,0.76-1.182,1.466-1.182h1.346
		c0.871,0,1.58-0.709,1.58-1.581v-7.843c0-0.871-0.709-1.58-1.58-1.58h-1.419c-0.699,0-1.307-0.483-1.462-1.165
		c-0.783-3.42-2.141-6.652-4.035-9.608c-0.381-0.594-0.297-1.372,0.202-1.87l1.044-1.044c0.616-0.616,0.616-1.619,0-2.235
		l-5.546-5.546c-0.598-0.598-1.637-0.598-2.234,0l-1.084,1.084c-0.496,0.494-1.266,0.582-1.86,0.208
		c-2.953-1.86-6.173-3.188-9.569-3.945c-0.687-0.152-1.174-0.762-1.174-1.464v-1.552c0-0.871-0.709-1.58-1.58-1.58h-7.844
		c-0.871,0-1.58,0.709-1.58,1.58v1.552c0,0.679-0.455,1.272-1.11,1.448c-1.829,0.492-6.793,2.172-9.635,3.961
		c-0.594,0.375-1.365,0.286-1.859-0.209l-1.083-1.083c-0.598-0.598-1.638-0.598-2.233,0l-5.548,5.546
		c-0.615,0.616-0.615,1.619,0.001,2.235l1.043,1.044c0.498,0.498,0.583,1.276,0.202,1.87c-1.895,2.957-3.252,6.189-4.034,9.608
		c-0.155,0.682-0.763,1.165-1.462,1.165h-1.419c-0.871,0-1.58,0.709-1.58,1.58v7.843c0,0.872,0.709,1.581,1.58,1.581h1.345
		c0.706,0,1.315,0.492,1.466,1.182c0.751,3.455,2.091,6.729,3.981,9.731c0.373,0.594,0.286,1.366-0.209,1.861l-0.914,0.913
		c-0.615,0.615-0.615,1.618,0.001,2.234l5.546,5.546c0.598,0.598,1.637,0.598,2.234,0l0.875-0.875
		C185.254,229.561,185.638,229.411,186.025,229.411z M203.278,221.269c-9.657,0-17.514-7.857-17.514-17.514
		s7.856-17.514,17.514-17.514c9.657,0,17.514,7.857,17.514,17.514S212.936,221.269,203.278,221.269z M203.278,189.241
		c-8.003,0-14.514,6.511-14.514,14.514s6.511,14.514,14.514,14.514c8.003,0,14.514-6.511,14.514-14.514
		S211.281,189.241,203.278,189.241z"/>
	<path class="st25" d="M214.631,198.143c0.489-0.49,0.891-1.032,1.222-1.605c-2.508-4.354-7.2-7.298-12.575-7.298
		c-8.003,0-14.514,6.511-14.514,14.514c0,5.332,2.898,9.988,7.193,12.511c0.715-0.361,1.386-0.836,1.982-1.432L214.631,198.143z"/>
	<path class="st25" d="M211.292,80.925c-0.39-0.59-0.3-1.37,0.2-1.87l3.14-3.14c3.035-3.035,3.035-7.955,0-10.99l-16.69-16.69
		c-3.035-3.035-7.955-3.035-10.99,0l-3.26,3.26c-0.5,0.5-1.27,0.58-1.86,0.21c-8.67-5.46-18.08-9.45-28-11.86v13.359
		c0,1.31,0.856,2.451,2.1,2.862c23.841,7.862,42.714,26.634,50.721,50.408c0.416,1.235,1.553,2.081,2.855,2.081h13.774
		C220.792,98.755,216.762,89.475,211.292,80.925z"/>
	<path class="st25" d="M207.274,155.676c-1.148,3.744-2.573,7.375-4.252,10.859h4.18c2.52,0,4.58,2.05,4.58,4.58v0.37
		c1.72,0.45,3.39,1.05,5.02,1.77c3.04-6.29,5.38-12.89,6.96-19.74h-13.609C208.819,153.515,207.665,154.401,207.274,155.676z"/>
	<path class="st25" d="M170.792,212.255h-0.15c-2.53,0-4.58-2.051-4.58-4.58v-3.8c-3.261,1.601-6.639,2.987-10.131,4.14
		c-1.244,0.411-2.099,1.552-2.099,2.861v13.359c6.51-1.58,12.8-3.85,18.8-6.75C171.882,215.795,171.252,214.055,170.792,212.255z"/>
</g>
</svg>
