<?xml version="1.0" encoding="utf-8"?>
<!-- Generator: Adobe Illustrator 22.0.1, SVG Export Plug-In . SVG Version: 6.00 Build 0)  -->
<svg version="1.1" id="Layer_1" xmlns="http://www.w3.org/2000/svg" xmlns:xlink="http://www.w3.org/1999/xlink" x="0px" y="0px"
	 viewBox="0 0 256 256" style="enable-background:new 0 0 256 256;" xml:space="preserve">
<style type="text/css">
	.st0{fill:#3A312A;}
	.st1{fill:#F16C7A;}
	.st2{fill:#D7E057;}
	.st3{fill:#F8E4C8;}
	.st4{fill:#89C4DB;}
	.st5{fill-rule:evenodd;clip-rule:evenodd;fill:#F8E4C8;}
	.st6{fill:#87796F;}
	.st7{fill:#D4DB56;}
	.st8{fill:#F59689;}
	.st9{fill:#6CA6BE;}
	.st10{fill:#695B51;}
	.st11{fill:#F7E3C7;}
	.st12{fill:#8AC6DD;}
	.st13{fill:#6CA8BF;}
	.st14{fill:#D6DF58;}
	.st15{fill:#FAE6CA;}
	.st16{fill:#EF6D7A;}
	.st17{fill:#DDC9AC;}
	.st18{fill:#D24E5C;}
	.st19{fill:#6A5C52;}
	.st20{fill:#B9C239;}
	.st21{fill:#FCE8CB;}
	.st22{fill:#DECAAD;}
	.st23{fill:#D5DE58;}
	.st24{fill:#8AC5DC;}
	.st25{fill:#D34E5C;}
	.st26{fill:#ED6E7A;}
	.st27{fill:#B8C136;}
</style>
<g>
	<g>
		<g>
			<path class="st0" d="M238.724,226.58h-209.5V16.08c0-0.829-0.671-1.5-1.5-1.5c-0.829,0-1.5,0.671-1.5,1.5v212
				c0,0.829,0.671,1.5,1.5,1.5h211c0.829,0,1.5-0.671,1.5-1.5C240.224,227.252,239.553,226.58,238.724,226.58z"/>
		</g>
	</g>
	<g>
		<g>
			<path class="st0" d="M27.724,226.58c-0.829,0-1.5,0.671-1.5,1.5v11.75c0,0.829,0.671,1.5,1.5,1.5c0.829,0,1.5-0.671,1.5-1.5
				v-11.75C29.224,227.252,28.553,226.58,27.724,226.58z"/>
		</g>
	</g>
	<g>
		<g>
			<path class="st0" d="M61.194,226.58c-0.829,0-1.5,0.671-1.5,1.5v11.75c0,0.829,0.671,1.5,1.5,1.5c0.829,0,1.5-0.671,1.5-1.5
				v-11.75C62.694,227.252,62.023,226.58,61.194,226.58z"/>
		</g>
	</g>
	<g>
		<g>
			<path class="st0" d="M94.654,226.58c-0.829,0-1.5,0.671-1.5,1.5v11.75c0,0.829,0.671,1.5,1.5,1.5s1.5-0.671,1.5-1.5v-11.75
				C96.154,227.252,95.482,226.58,94.654,226.58z"/>
		</g>
	</g>
	<g>
		<g>
			<path class="st0" d="M128.124,226.58c-0.829,0-1.5,0.671-1.5,1.5v11.75c0,0.829,0.671,1.5,1.5,1.5c0.829,0,1.5-0.671,1.5-1.5
				v-11.75C129.624,227.252,128.953,226.58,128.124,226.58z"/>
		</g>
	</g>
	<g>
		<g>
			<path class="st0" d="M161.584,226.58c-0.829,0-1.5,0.671-1.5,1.5v11.75c0,0.829,0.671,1.5,1.5,1.5s1.5-0.671,1.5-1.5v-11.75
				C163.084,227.252,162.413,226.58,161.584,226.58z"/>
		</g>
	</g>
	<g>
		<g>
			<path class="st0" d="M195.054,226.58c-0.829,0-1.5,0.671-1.5,1.5v11.75c0,0.829,0.671,1.5,1.5,1.5c0.829,0,1.5-0.671,1.5-1.5
				v-11.75C196.554,227.252,195.882,226.58,195.054,226.58z"/>
		</g>
	</g>
	<g>
		<g>
			<path class="st0" d="M228.514,226.58c-0.829,0-1.5,0.671-1.5,1.5v11.75c0,0.829,0.671,1.5,1.5,1.5c0.829,0,1.5-0.671,1.5-1.5
				v-11.75C230.014,227.252,229.343,226.58,228.514,226.58z"/>
		</g>
	</g>
	<g>
		<g>
			<path class="st0" d="M27.724,226.58h-11.75c-0.829,0-1.5,0.671-1.5,1.5c0,0.829,0.671,1.5,1.5,1.5h11.75
				c0.829,0,1.5-0.671,1.5-1.5C29.224,227.252,28.553,226.58,27.724,226.58z"/>
		</g>
	</g>
	<g>
		<g>
			<path class="st0" d="M27.724,193.11h-11.75c-0.829,0-1.5,0.671-1.5,1.5c0,0.829,0.671,1.5,1.5,1.5h11.75
				c0.829,0,1.5-0.671,1.5-1.5C29.224,193.782,28.553,193.11,27.724,193.11z"/>
		</g>
	</g>
	<g>
		<g>
			<path class="st0" d="M27.724,159.65h-11.75c-0.829,0-1.5,0.671-1.5,1.5s0.671,1.5,1.5,1.5h11.75c0.829,0,1.5-0.671,1.5-1.5
				S28.553,159.65,27.724,159.65z"/>
		</g>
	</g>
	<g>
		<g>
			<path class="st0" d="M27.724,126.18h-11.75c-0.829,0-1.5,0.671-1.5,1.5c0,0.829,0.671,1.5,1.5,1.5h11.75
				c0.829,0,1.5-0.671,1.5-1.5C29.224,126.852,28.553,126.18,27.724,126.18z"/>
		</g>
	</g>
	<g>
		<g>
			<path class="st0" d="M27.724,92.72h-11.75c-0.829,0-1.5,0.671-1.5,1.5s0.671,1.5,1.5,1.5h11.75c0.829,0,1.5-0.671,1.5-1.5
				S28.553,92.72,27.724,92.72z"/>
		</g>
	</g>
	<g>
		<g>
			<path class="st0" d="M27.724,59.25h-11.75c-0.829,0-1.5,0.671-1.5,1.5s0.671,1.5,1.5,1.5h11.75c0.829,0,1.5-0.671,1.5-1.5
				S28.553,59.25,27.724,59.25z"/>
		</g>
	</g>
	<g>
		<g>
			<path class="st0" d="M27.724,25.79h-11.75c-0.829,0-1.5,0.671-1.5,1.5c0,0.829,0.671,1.5,1.5,1.5h11.75
				c0.829,0,1.5-0.671,1.5-1.5C29.224,26.461,28.553,25.79,27.724,25.79z"/>
		</g>
	</g>
	<g>
		<g>
			<path class="st2" d="M226.818,26.175c-0.974,11.564-13.025,13.39-13.025,13.39c10.347,0.487,12.925,14.059,12.925,14.059
				c0.221-9.677,13.321-14.202,13.321-14.202C230.227,38.834,226.818,26.175,226.818,26.175z"/>
		</g>
	</g>
	<g>
		<g>
			<path class="st0" d="M240.129,37.924c-8.604-0.514-11.831-12.024-11.863-12.141c-0.191-0.703-0.86-1.167-1.583-1.102
				c-0.725,0.066-1.298,0.642-1.359,1.367c-0.86,10.215-11.313,11.964-11.754,12.033c-0.763,0.115-1.313,0.79-1.273,1.561
				c0.04,0.77,0.657,1.384,1.428,1.421c9.028,0.425,11.499,12.718,11.523,12.842c0.137,0.711,0.759,1.217,1.472,1.217
				c0.042,0,0.084-0.002,0.126-0.005c0.764-0.064,1.357-0.693,1.375-1.459c0.194-8.508,12.191-12.777,12.313-12.819
				c0.675-0.235,1.092-0.915,0.994-1.623C241.427,38.508,240.843,37.967,240.129,37.924z M226.564,48.27
				c-1.357-3.13-3.709-6.907-7.587-8.876c2.931-1.405,6.409-3.913,8.202-8.273c1.551,3.071,4.2,6.88,8.334,8.722
				C232.505,41.483,228.59,44.248,226.564,48.27z"/>
		</g>
	</g>
	<g>
		<g>
			<path class="st2" d="M205.12,43.156c-0.689,8.179-9.213,9.47-9.213,9.47c7.318,0.344,9.142,9.944,9.142,9.944
				c0.156-6.844,9.422-10.045,9.422-10.045C207.53,52.11,205.12,43.156,205.12,43.156z"/>
		</g>
	</g>
	<g>
		<g>
			<path class="st0" d="M214.561,51.027c-5.766-0.345-7.972-8.185-7.994-8.264c-0.19-0.702-0.854-1.169-1.582-1.102
				c-0.726,0.065-1.299,0.642-1.36,1.368c-0.579,6.87-7.646,8.066-7.942,8.113c-0.763,0.115-1.314,0.79-1.273,1.56
				c0.04,0.77,0.657,1.384,1.428,1.421c6.035,0.284,7.723,8.644,7.739,8.726c0.135,0.713,0.759,1.22,1.473,1.22
				c0.041,0,0.083-0.002,0.125-0.005c0.765-0.063,1.358-0.694,1.376-1.461c0.13-5.709,8.332-8.634,8.413-8.662
				c0.677-0.234,1.094-0.913,0.996-1.622C215.86,51.612,215.276,51.07,214.561,51.027z M204.977,57.822
				c-0.924-1.885-2.34-3.947-4.447-5.28c1.856-1.041,3.697-2.629,4.87-4.916c1.057,1.873,2.654,3.955,4.941,5.224
				C208.492,53.951,206.352,55.591,204.977,57.822z"/>
		</g>
	</g>
	<g>
		<g>
			<path class="st2" d="M205.12,16.498c-0.689,8.179-9.213,9.471-9.213,9.471c7.318,0.344,9.142,9.944,9.142,9.944
				c0.156-6.845,9.422-10.045,9.422-10.045C207.53,25.452,205.12,16.498,205.12,16.498z"/>
		</g>
	</g>
	<g>
		<g>
			<path class="st0" d="M214.561,24.37c-5.767-0.345-7.973-8.185-7.994-8.265c-0.19-0.702-0.854-1.163-1.582-1.102
				c-0.726,0.065-1.299,0.642-1.36,1.368c-0.579,6.871-7.646,8.067-7.942,8.114c-0.763,0.115-1.314,0.79-1.273,1.561
				c0.04,0.77,0.657,1.384,1.428,1.421c6.035,0.284,7.723,8.644,7.739,8.726c0.135,0.713,0.759,1.22,1.472,1.22
				c0.042,0,0.083-0.001,0.125-0.005c0.765-0.063,1.358-0.694,1.376-1.461c0.13-5.71,8.332-8.634,8.413-8.662
				c0.676-0.234,1.094-0.913,0.996-1.622C215.86,24.955,215.276,24.413,214.561,24.37z M204.977,31.165
				c-0.924-1.885-2.34-3.947-4.447-5.28c1.856-1.041,3.697-2.63,4.871-4.916c1.057,1.874,2.655,3.954,4.941,5.224
				C208.492,27.294,206.352,28.933,204.977,31.165z"/>
		</g>
	</g>
	<g>
		<g>
			<path class="st0" d="M57.349,59.455c-0.829,0-1.5,0.671-1.5,1.5v141.5c0,0.829,0.671,1.5,1.5,1.5c0.829,0,1.5-0.671,1.5-1.5
				v-141.5C58.849,60.127,58.178,59.455,57.349,59.455z"/>
		</g>
	</g>
	<g>
		<g>
			<path class="st0" d="M70.349,59.455h-26c-0.829,0-1.5,0.671-1.5,1.5c0,0.829,0.671,1.5,1.5,1.5h26c0.829,0,1.5-0.671,1.5-1.5
				C71.849,60.127,71.178,59.455,70.349,59.455z"/>
		</g>
	</g>
	<g>
		<g>
			<path class="st0" d="M70.849,200.955h-26c-0.829,0-1.5,0.671-1.5,1.5c0,0.829,0.671,1.5,1.5,1.5h26c0.829,0,1.5-0.671,1.5-1.5
				C72.349,201.627,71.678,200.955,70.849,200.955z"/>
		</g>
	</g>
	<g>
		<g>
			<rect x="39.849" y="90.67" class="st21" width="35" height="82.07"/>
		</g>
	</g>
	<g>
		<g>
			<path class="st0" d="M74.849,89.17h-35c-0.829,0-1.5,0.671-1.5,1.5v8.415c0,0.829,0.671,1.5,1.5,1.5c0.829,0,1.5-0.671,1.5-1.5
				V92.17h32v79.07h-32v-58.915c0-0.829-0.671-1.5-1.5-1.5c-0.829,0-1.5,0.671-1.5,1.5v60.415c0,0.829,0.671,1.5,1.5,1.5h35
				c0.829,0,1.5-0.671,1.5-1.5V90.67C76.349,89.841,75.678,89.17,74.849,89.17z"/>
		</g>
	</g>
	<g>
		<g>
			<rect x="39.849" y="117.555" class="st1" width="35" height="55.185"/>
		</g>
	</g>
	<g>
		<g>
			<path class="st0" d="M74.849,116.055h-35c-0.829,0-1.5,0.671-1.5,1.5v55.185c0,0.829,0.671,1.5,1.5,1.5h35
				c0.829,0,1.5-0.671,1.5-1.5v-55.185C76.349,116.727,75.678,116.055,74.849,116.055z M73.349,171.24h-32v-52.185h32V171.24z"/>
		</g>
	</g>
	<g>
		<g>
			<path class="st0" d="M110.349,121.455c-0.829,0-1.5,0.671-1.5,1.5v92.5c0,0.829,0.671,1.5,1.5,1.5c0.829,0,1.5-0.671,1.5-1.5
				v-92.5C111.849,122.127,111.178,121.455,110.349,121.455z"/>
		</g>
	</g>
	<g>
		<g>
			<path class="st0" d="M123.349,121.455h-26c-0.829,0-1.5,0.671-1.5,1.5c0,0.829,0.671,1.5,1.5,1.5h26c0.829,0,1.5-0.671,1.5-1.5
				C124.849,122.127,124.178,121.455,123.349,121.455z"/>
		</g>
	</g>
	<g>
		<g>
			<path class="st0" d="M123.849,213.955h-26c-0.829,0-1.5,0.671-1.5,1.5c0,0.829,0.671,1.5,1.5,1.5h26c0.829,0,1.5-0.671,1.5-1.5
				C125.349,214.627,124.678,213.955,123.849,213.955z"/>
		</g>
	</g>
	<g>
		<g>
			<rect x="92.849" y="142.38" class="st21" width="35" height="53.65"/>
		</g>
	</g>
	<g>
		<g>
			<path class="st0" d="M127.849,140.88h-35c-0.829,0-1.5,0.671-1.5,1.5v53.65c0,0.829,0.671,1.5,1.5,1.5h35
				c0.829,0,1.5-0.671,1.5-1.5v-53.65C129.349,141.552,128.678,140.88,127.849,140.88z M126.349,194.53h-32v-50.65h32V194.53z"/>
		</g>
	</g>
	<g>
		<g>
			<rect x="92.849" y="159.955" class="st2" width="35" height="36.075"/>
		</g>
	</g>
	<g>
		<g>
			<path class="st0" d="M127.849,158.455h-35c-0.829,0-1.5,0.671-1.5,1.5v36.075c0,0.829,0.671,1.5,1.5,1.5h35
				c0.829,0,1.5-0.671,1.5-1.5v-36.075C129.349,159.127,128.678,158.455,127.849,158.455z M126.349,194.53h-32v-33.075h32V194.53z"
				/>
		</g>
	</g>
	<g>
		<g>
			<path class="st0" d="M163.349,32.455c-0.829,0-1.5,0.671-1.5,1.5v159.5c0,0.829,0.671,1.5,1.5,1.5c0.829,0,1.5-0.671,1.5-1.5
				v-159.5C164.849,33.127,164.178,32.455,163.349,32.455z"/>
		</g>
	</g>
	<g>
		<g>
			<path class="st0" d="M176.349,32.455h-26c-0.829,0-1.5,0.671-1.5,1.5c0,0.829,0.671,1.5,1.5,1.5h26c0.829,0,1.5-0.671,1.5-1.5
				C177.849,33.127,177.178,32.455,176.349,32.455z"/>
		</g>
	</g>
	<g>
		<g>
			<path class="st0" d="M176.849,191.955h-26c-0.829,0-1.5,0.671-1.5,1.5c0,0.829,0.671,1.5,1.5,1.5h26c0.829,0,1.5-0.671,1.5-1.5
				C178.349,192.627,177.678,191.955,176.849,191.955z"/>
		</g>
	</g>
	<g>
		<g>
			<rect x="145.849" y="67.45" class="st21" width="35" height="92.51"/>
		</g>
	</g>
	<g>
		<g>
			<path class="st0" d="M180.849,65.95h-35c-0.829,0-1.5,0.671-1.5,1.5v8.659c0,0.829,0.671,1.5,1.5,1.5c0.829,0,1.5-0.671,1.5-1.5
				V68.95h32v89.51h-32V89.301c0-0.829-0.671-1.5-1.5-1.5c-0.829,0-1.5,0.671-1.5,1.5v70.659c0,0.829,0.671,1.5,1.5,1.5h35
				c0.829,0,1.5-0.671,1.5-1.5V67.45C182.349,66.622,181.678,65.95,180.849,65.95z"/>
		</g>
	</g>
	<g>
		<g>
			<rect x="145.849" y="97.755" class="st12" width="35" height="62.205"/>
		</g>
	</g>
	<g>
		<g>
			<path class="st0" d="M180.849,96.255h-35c-0.829,0-1.5,0.671-1.5,1.5v62.205c0,0.829,0.671,1.5,1.5,1.5h35
				c0.829,0,1.5-0.671,1.5-1.5V97.755C182.349,96.927,181.678,96.255,180.849,96.255z M179.349,158.46h-32V99.255h32V158.46z"/>
		</g>
	</g>
	<g>
		<g>
			<path class="st0" d="M217.349,79.455c-0.829,0-1.5,0.671-1.5,1.5v131.5c0,0.829,0.671,1.5,1.5,1.5c0.829,0,1.5-0.671,1.5-1.5
				v-131.5C218.849,80.127,218.178,79.455,217.349,79.455z"/>
		</g>
	</g>
	<g>
		<g>
			<path class="st0" d="M230.349,79.455h-26c-0.829,0-1.5,0.671-1.5,1.5c0,0.829,0.671,1.5,1.5,1.5h26c0.829,0,1.5-0.671,1.5-1.5
				C231.849,80.127,231.178,79.455,230.349,79.455z"/>
		</g>
	</g>
	<g>
		<g>
			<path class="st0" d="M230.849,210.955h-26c-0.829,0-1.5,0.671-1.5,1.5c0,0.829,0.671,1.5,1.5,1.5h26c0.829,0,1.5-0.671,1.5-1.5
				C232.349,211.627,231.678,210.955,230.849,210.955z"/>
		</g>
	</g>
	<g>
		<g>
			<rect x="199.849" y="108.57" class="st21" width="35" height="76.27"/>
		</g>
	</g>
	<g>
		<g>
			<path class="st0" d="M234.849,107.07h-35c-0.829,0-1.5,0.671-1.5,1.5v76.27c0,0.829,0.671,1.5,1.5,1.5h35
				c0.829,0,1.5-0.671,1.5-1.5v-76.27C236.349,107.742,235.678,107.07,234.849,107.07z M233.349,183.34h-32v-73.27h32V183.34z"/>
		</g>
	</g>
	<g>
		<g>
			<rect x="199.849" y="133.555" class="st6" width="35" height="51.285"/>
		</g>
	</g>
	<g>
		<g>
			<path class="st0" d="M234.849,132.055h-35c-0.829,0-1.5,0.671-1.5,1.5v51.285c0,0.829,0.671,1.5,1.5,1.5h35
				c0.829,0,1.5-0.671,1.5-1.5v-51.285C236.349,132.727,235.678,132.055,234.849,132.055z M233.349,183.34h-32v-48.285h32V183.34z"
				/>
		</g>
	</g>
	<g>
		<g>
			<rect x="218.349" y="110.075" class="st22" width="15" height="21.98"/>
		</g>
	</g>
	<g>
		<g>
			<rect x="218.349" y="135.055" class="st10" width="15" height="48.28"/>
		</g>
	</g>
</g>
</svg>
