<?xml version="1.0" encoding="utf-8"?>
<!-- Generator: Adobe Illustrator 22.0.1, SVG Export Plug-In . SVG Version: 6.00 Build 0)  -->
<svg version="1.1" id="Layer_1" xmlns="http://www.w3.org/2000/svg" xmlns:xlink="http://www.w3.org/1999/xlink" x="0px" y="0px"
	 viewBox="0 0 256 256" style="enable-background:new 0 0 256 256;" xml:space="preserve">
<style type="text/css">
	.st0{fill:#3A312A;}
	.st1{fill:#F16C7A;}
	.st2{fill:#D7E057;}
	.st3{fill:#F8E4C8;}
	.st4{fill:#89C4DB;}
	.st5{fill-rule:evenodd;clip-rule:evenodd;fill:#F8E4C8;}
	.st6{fill:#87796F;}
	.st7{fill:#D4DB56;}
	.st8{fill:#F59689;}
	.st9{fill:#6CA6BE;}
	.st10{fill:#695B51;}
	.st11{fill:#F7E3C7;}
	.st12{fill:#8AC6DD;}
	.st13{fill:#6CA8BF;}
	.st14{fill:#D6DF58;}
	.st15{fill:#FAE6CA;}
	.st16{fill:#EF6D7A;}
	.st17{fill:#DDC9AC;}
	.st18{fill:#D24E5C;}
	.st19{fill:#6A5C52;}
	.st20{fill:#B9C239;}
	.st21{fill:#FCE8CB;}
	.st22{fill:#DECAAD;}
	.st23{fill:#D5DE58;}
	.st24{fill:#8AC5DC;}
	.st25{fill:#D34E5C;}
	.st26{fill:#ED6E7A;}
	.st27{fill:#B8C136;}
</style>
<g>
	<g>
		<g>
			<path class="st14" d="M47.867,26.277c-0.974,11.564-13.024,13.39-13.024,13.39c10.347,0.487,12.925,14.059,12.925,14.059
				c0.221-9.677,13.321-14.202,13.321-14.202C51.275,38.936,47.867,26.277,47.867,26.277z"/>
		</g>
	</g>
	<g>
		<g>
			<path class="st0" d="M61.179,38.026c-8.604-0.515-11.832-12.024-11.863-12.141c-0.19-0.702-0.851-1.165-1.584-1.102
				c-0.725,0.066-1.298,0.642-1.359,1.367c-0.86,10.215-11.313,11.964-11.754,12.033c-0.763,0.115-1.313,0.79-1.273,1.561
				c0.04,0.77,0.657,1.384,1.428,1.421C43.8,41.59,46.27,53.883,46.294,54.007c0.138,0.711,0.76,1.217,1.473,1.217
				c0.042,0,0.084-0.002,0.126-0.005c0.765-0.064,1.357-0.693,1.375-1.459c0.193-8.509,12.191-12.777,12.313-12.819
				c0.676-0.235,1.092-0.914,0.994-1.623C62.477,38.61,61.893,38.069,61.179,38.026z M47.612,48.372
				c-1.356-3.131-3.709-6.907-7.587-8.876c2.931-1.405,6.409-3.913,8.202-8.273c1.551,3.071,4.199,6.88,8.334,8.723
				C53.554,41.584,49.639,44.35,47.612,48.372z"/>
		</g>
	</g>
	<g>
		<g>
			<path class="st14" d="M26.168,43.257c-0.689,8.179-9.212,9.471-9.212,9.471c7.318,0.344,9.142,9.944,9.142,9.944
				c0.156-6.844,9.422-10.045,9.422-10.045C28.579,52.211,26.168,43.257,26.168,43.257z"/>
		</g>
	</g>
	<g>
		<g>
			<path class="st0" d="M35.609,51.129c-5.766-0.345-7.972-8.186-7.994-8.265c-0.189-0.702-0.866-1.159-1.581-1.102
				c-0.726,0.065-1.3,0.643-1.361,1.368c-0.578,6.871-7.646,8.067-7.941,8.114c-0.763,0.115-1.313,0.79-1.273,1.561
				c0.04,0.77,0.657,1.384,1.428,1.421c6.034,0.284,7.723,8.644,7.738,8.725c0.136,0.713,0.759,1.22,1.473,1.22
				c0.041,0,0.083-0.002,0.125-0.005c0.765-0.063,1.358-0.694,1.376-1.461c0.13-5.709,8.331-8.634,8.412-8.662
				c0.676-0.234,1.093-0.913,0.996-1.622C36.908,51.714,36.323,51.172,35.609,51.129z M26.024,57.924
				c-0.924-1.885-2.34-3.947-4.446-5.28c1.856-1.041,3.697-2.629,4.87-4.916c1.058,1.874,2.654,3.954,4.941,5.223
				C29.54,54.053,27.4,55.692,26.024,57.924z"/>
		</g>
	</g>
	<g>
		<g>
			<path class="st14" d="M26.168,16.6c-0.689,8.179-9.212,9.471-9.212,9.471c7.318,0.344,9.142,9.944,9.142,9.944
				c0.156-6.845,9.422-10.045,9.422-10.045C28.579,25.554,26.168,16.6,26.168,16.6z"/>
		</g>
	</g>
	<g>
		<g>
			<path class="st0" d="M35.609,24.472c-5.766-0.345-7.972-8.186-7.994-8.265c-0.189-0.702-0.866-1.166-1.581-1.102
				c-0.726,0.065-1.3,0.643-1.361,1.368c-0.578,6.871-7.646,8.067-7.941,8.114c-0.763,0.115-1.313,0.79-1.273,1.561
				c0.04,0.77,0.657,1.384,1.428,1.421c6.034,0.284,7.723,8.644,7.738,8.726c0.136,0.712,0.759,1.22,1.473,1.22
				c0.041,0,0.083-0.001,0.125-0.005c0.765-0.063,1.358-0.694,1.376-1.461c0.13-5.709,8.331-8.634,8.412-8.662
				c0.676-0.234,1.093-0.913,0.996-1.622C36.908,25.056,36.323,24.515,35.609,24.472z M26.024,31.267
				c-0.924-1.886-2.34-3.947-4.446-5.28c1.856-1.041,3.697-2.63,4.87-4.917c1.058,1.874,2.654,3.954,4.941,5.224
				C29.54,27.395,27.4,29.035,26.024,31.267z"/>
		</g>
	</g>
	<g>
		<g>
			<path class="st6" d="M227.334,86.469H28.466c-6.664,0-12.066,5.402-12.066,12.066v57.624v13.241v58.004
				c0,6.664,5.402,12.066,12.066,12.066h198.868c6.664,0,12.066-5.402,12.066-12.066V98.535
				C239.4,91.871,233.998,86.469,227.334,86.469z"/>
		</g>
	</g>
	<g>
		<g>
			<path class="st0" d="M227.334,84.969H28.466c-7.48,0-13.565,6.085-13.565,13.566v57.623c0,0.829,0.672,1.5,1.5,1.5
				c0.828,0,1.5-0.671,1.5-1.5V98.535c0-5.826,4.739-10.566,10.565-10.566h198.868c5.826,0,10.566,4.74,10.566,10.566v128.868
				c0,5.826-4.74,10.566-10.566,10.566H28.466c-5.826,0-10.565-4.74-10.565-10.566v-58.004c0-0.829-0.672-1.5-1.5-1.5
				c-0.828,0-1.5,0.671-1.5,1.5v58.004c0,7.48,6.085,13.566,13.565,13.566h198.868c7.48,0,13.566-6.085,13.566-13.566V98.535
				C240.9,91.054,234.814,84.969,227.334,84.969z"/>
		</g>
	</g>
	<g>
		<g>
			<path class="st21" d="M212.125,190.969H43.675c-3.945,0-7.143,3.198-7.143,7.143v15.714c0,3.945,3.198,7.143,7.143,7.143h168.45
				c3.945,0,7.143-3.198,7.143-7.143v-15.714C219.268,194.167,216.07,190.969,212.125,190.969z"/>
		</g>
	</g>
	<g>
		<g>
			<path class="st0" d="M212.125,189.469H43.675c-4.766,0-8.643,3.878-8.643,8.643v15.714c0,4.766,3.877,8.643,8.643,8.643h168.45
				c4.766,0,8.644-3.877,8.644-8.643v-15.714C220.769,193.346,216.891,189.469,212.125,189.469z M217.769,213.826
				c0,3.112-2.531,5.643-5.644,5.643H43.675c-3.111,0-5.643-2.531-5.643-5.643v-15.714c0-3.112,2.531-5.643,5.643-5.643h168.45
				c3.112,0,5.644,2.531,5.644,5.643V213.826z"/>
		</g>
	</g>
	<g>
		<g>
			<circle class="st12" cx="200.9" cy="205.969" r="6.5"/>
		</g>
	</g>
	<g>
		<g>
			<path class="st0" d="M200.9,197.969c-4.411,0-8,3.589-8,8c0,4.411,3.589,8,8,8s8-3.589,8-8
				C208.9,201.558,205.312,197.969,200.9,197.969z M200.9,210.969c-2.757,0-5-2.243-5-5c0-2.757,2.243-5,5-5s5,2.243,5,5
				C205.9,208.726,203.657,210.969,200.9,210.969z"/>
		</g>
	</g>
	<g>
		<g>
			<circle class="st2" cx="177.9" cy="205.969" r="6.5"/>
		</g>
	</g>
	<g>
		<g>
			<path class="st0" d="M177.9,197.969c-4.411,0-8,3.589-8,8c0,4.411,3.589,8,8,8s8-3.589,8-8
				C185.9,201.558,182.312,197.969,177.9,197.969z M177.9,210.969c-2.757,0-5-2.243-5-5c0-2.757,2.243-5,5-5s5,2.243,5,5
				C182.9,208.726,180.657,210.969,177.9,210.969z"/>
		</g>
	</g>
	<g>
		<g>
			<circle class="st16" cx="154.9" cy="205.969" r="6.5"/>
		</g>
	</g>
	<g>
		<g>
			<path class="st0" d="M154.9,197.969c-4.411,0-8,3.589-8,8c0,4.411,3.589,8,8,8s8-3.589,8-8
				C162.9,201.558,159.312,197.969,154.9,197.969z M154.9,210.969c-2.757,0-5-2.243-5-5c0-2.757,2.243-5,5-5s5,2.243,5,5
				C159.9,208.726,157.657,210.969,154.9,210.969z"/>
		</g>
	</g>
	<g>
		<g>
			<path class="st0" d="M136.4,204.469h-88c-0.828,0-1.5,0.671-1.5,1.5c0,0.829,0.672,1.5,1.5,1.5h88c0.828,0,1.5-0.671,1.5-1.5
				C137.9,205.14,137.229,204.469,136.4,204.469z"/>
		</g>
	</g>
	<g>
		<g>
			<path class="st21" d="M212.125,147.969H43.675c-3.945,0-7.143,3.198-7.143,7.143v15.714c0,3.945,3.198,7.143,7.143,7.143h168.45
				c3.945,0,7.143-3.198,7.143-7.143v-15.714C219.268,151.167,216.07,147.969,212.125,147.969z"/>
		</g>
	</g>
	<g>
		<g>
			<path class="st0" d="M212.125,146.469H43.675c-4.766,0-8.643,3.878-8.643,8.643v15.714c0,4.766,3.877,8.643,8.643,8.643h168.45
				c4.766,0,8.644-3.877,8.644-8.643v-15.714C220.769,150.346,216.891,146.469,212.125,146.469z M217.769,170.826
				c0,3.112-2.531,5.643-5.644,5.643H43.675c-3.111,0-5.643-2.531-5.643-5.643v-15.714c0-3.112,2.531-5.643,5.643-5.643h168.45
				c3.112,0,5.644,2.531,5.644,5.643V170.826z"/>
		</g>
	</g>
	<g>
		<g>
			<circle class="st12" cx="200.9" cy="162.969" r="6.5"/>
		</g>
	</g>
	<g>
		<g>
			<path class="st0" d="M200.9,154.969c-4.411,0-8,3.589-8,8c0,4.411,3.589,8,8,8s8-3.589,8-8
				C208.9,158.558,205.312,154.969,200.9,154.969z M200.9,167.969c-2.757,0-5-2.243-5-5c0-2.757,2.243-5,5-5s5,2.243,5,5
				C205.9,165.726,203.657,167.969,200.9,167.969z"/>
		</g>
	</g>
	<g>
		<g>
			<circle class="st2" cx="177.9" cy="162.969" r="6.5"/>
		</g>
	</g>
	<g>
		<g>
			<path class="st0" d="M177.9,154.969c-4.411,0-8,3.589-8,8c0,4.411,3.589,8,8,8s8-3.589,8-8
				C185.9,158.558,182.312,154.969,177.9,154.969z M177.9,167.969c-2.757,0-5-2.243-5-5c0-2.757,2.243-5,5-5s5,2.243,5,5
				C182.9,165.726,180.657,167.969,177.9,167.969z"/>
		</g>
	</g>
	<g>
		<g>
			<circle class="st16" cx="154.9" cy="162.969" r="6.5"/>
		</g>
	</g>
	<g>
		<g>
			<path class="st0" d="M154.9,154.969c-4.411,0-8,3.589-8,8c0,4.411,3.589,8,8,8s8-3.589,8-8
				C162.9,158.558,159.312,154.969,154.9,154.969z M154.9,167.969c-2.757,0-5-2.243-5-5c0-2.757,2.243-5,5-5s5,2.243,5,5
				C159.9,165.726,157.657,167.969,154.9,167.969z"/>
		</g>
	</g>
	<g>
		<g>
			<path class="st0" d="M136.4,161.469h-88c-0.828,0-1.5,0.671-1.5,1.5c0,0.829,0.672,1.5,1.5,1.5h88c0.828,0,1.5-0.671,1.5-1.5
				C137.9,162.14,137.229,161.469,136.4,161.469z"/>
		</g>
	</g>
	<g>
		<g>
			<path class="st21" d="M212.125,104.969H92.535H79.766H43.675c-3.945,0-7.143,3.198-7.143,7.143v15.714
				c0,3.945,3.198,7.143,7.143,7.143h168.45c3.945,0,7.143-3.198,7.143-7.143v-15.714
				C219.268,108.167,216.07,104.969,212.125,104.969z"/>
		</g>
	</g>
	<g>
		<g>
			<path class="st0" d="M212.125,103.469H92.535c-0.828,0-1.5,0.671-1.5,1.5c0,0.829,0.672,1.5,1.5,1.5h119.59
				c3.112,0,5.644,2.531,5.644,5.643v15.714c0,3.112-2.531,5.643-5.644,5.643H43.675c-3.111,0-5.643-2.531-5.643-5.643v-15.714
				c0-3.112,2.531-5.643,5.643-5.643h36.091c0.828,0,1.5-0.671,1.5-1.5c0-0.829-0.672-1.5-1.5-1.5H43.675
				c-4.766,0-8.643,3.878-8.643,8.643v15.714c0,4.766,3.877,8.643,8.643,8.643h168.45c4.766,0,8.644-3.877,8.644-8.643v-15.714
				C220.769,107.346,216.891,103.469,212.125,103.469z"/>
		</g>
	</g>
	<g>
		<g>
			<circle class="st12" cx="200.9" cy="119.969" r="6.5"/>
		</g>
	</g>
	<g>
		<g>
			<path class="st0" d="M200.9,111.969c-4.411,0-8,3.589-8,8c0,4.411,3.589,8,8,8s8-3.589,8-8
				C208.9,115.558,205.312,111.969,200.9,111.969z M200.9,124.969c-2.757,0-5-2.243-5-5c0-2.757,2.243-5,5-5s5,2.243,5,5
				C205.9,122.726,203.657,124.969,200.9,124.969z"/>
		</g>
	</g>
	<g>
		<g>
			<circle class="st2" cx="177.9" cy="119.969" r="6.5"/>
		</g>
	</g>
	<g>
		<g>
			<path class="st0" d="M177.9,111.969c-4.411,0-8,3.589-8,8c0,4.411,3.589,8,8,8s8-3.589,8-8
				C185.9,115.558,182.312,111.969,177.9,111.969z M177.9,124.969c-2.757,0-5-2.243-5-5c0-2.757,2.243-5,5-5s5,2.243,5,5
				C182.9,122.726,180.657,124.969,177.9,124.969z"/>
		</g>
	</g>
	<g>
		<g>
			<circle class="st16" cx="154.9" cy="119.969" r="6.5"/>
		</g>
	</g>
	<g>
		<g>
			<path class="st0" d="M154.9,111.969c-4.411,0-8,3.589-8,8c0,4.411,3.589,8,8,8s8-3.589,8-8
				C162.9,115.558,159.312,111.969,154.9,111.969z M154.9,124.969c-2.757,0-5-2.243-5-5c0-2.757,2.243-5,5-5s5,2.243,5,5
				C159.9,122.726,157.657,124.969,154.9,124.969z"/>
		</g>
	</g>
	<g>
		<g>
			<path class="st0" d="M136.4,118.469h-88c-0.828,0-1.5,0.671-1.5,1.5c0,0.829,0.672,1.5,1.5,1.5h88c0.828,0,1.5-0.671,1.5-1.5
				C137.9,119.14,137.229,118.469,136.4,118.469z"/>
		</g>
	</g>
	<g>
		<g>
			<path class="st16" d="M235.779,50.367h-1.669c-0.978-4.275-2.682-8.273-4.978-11.856l1.228-1.227
				c1.415-1.414,1.415-3.708,0-5.122l-6.521-6.521c-1.414-1.415-3.708-1.415-5.122,0l-1.274,1.274
				c-3.576-2.253-7.557-3.92-11.81-4.868v-1.824c0-2-1.622-3.622-3.622-3.622h-9.222c-2,0-3.622,1.622-3.622,3.622v1.824
				c-2.254,0.607-8.234,2.616-11.81,4.868l-1.273-1.274c-1.415-1.415-3.708-1.415-5.122,0l-6.521,6.521
				c-1.414,1.414-1.414,3.708,0,5.122l1.228,1.227c-2.296,3.583-4,7.581-4.979,11.856h-1.668c-2,0-3.622,1.621-3.622,3.622v9.222
				c0,2,1.621,3.622,3.622,3.622h1.582c0.94,4.328,2.624,8.377,4.912,12.009l-1.074,1.074c-1.414,1.414-1.414,3.707,0,5.122
				l6.521,6.521c1.414,1.415,3.708,1.415,5.122,0l1.028-1.028c3.639,2.331,7.705,4.052,12.055,5.022v1.426
				c0,2,1.622,3.622,3.622,3.622h9.222c2,0,3.622-1.622,3.622-3.622v-1.426c4.35-0.97,8.417-2.69,12.055-5.022l1.028,1.028
				c1.414,1.415,3.708,1.415,5.122,0l6.521-6.521c1.415-1.414,1.415-3.708,0-5.122l-1.074-1.074
				c2.288-3.632,3.971-7.682,4.912-12.009h1.582c2,0,3.622-1.622,3.622-3.622v-9.222C239.4,51.989,237.779,50.367,235.779,50.367z
				 M197.4,77.429c-10.399,0-18.829-8.43-18.829-18.829c0-10.399,8.43-18.829,18.829-18.829c10.399,0,18.829,8.43,18.829,18.829
				C216.229,68.999,207.799,77.429,197.4,77.429z"/>
		</g>
	</g>
	<g>
		<g>
			<path class="st0" d="M197.4,38.271c-11.21,0-20.329,9.12-20.329,20.33c0,11.209,9.119,20.329,20.329,20.329
				s20.329-9.12,20.329-20.329C217.729,47.39,208.61,38.271,197.4,38.271z M197.4,75.929c-9.556,0-17.329-7.774-17.329-17.329
				c0-9.556,7.773-17.33,17.329-17.33s17.329,7.774,17.329,17.33C214.729,68.155,206.956,75.929,197.4,75.929z M235.778,48.867
				h-0.491c-0.933-3.568-2.359-6.968-4.255-10.135l0.388-0.388c1.997-1.997,1.997-5.246,0-7.243l-6.521-6.521
				c-0.967-0.967-2.253-1.5-3.621-1.5s-2.654,0.533-3.621,1.5l-0.44,0.44c-3.158-1.857-6.54-3.252-10.083-4.157v-0.642
				c0-2.824-2.297-5.122-5.121-5.122h-9.223c-2.824,0-5.121,2.298-5.121,5.122v0.698c-2.549,0.779-6.891,2.34-10.071,4.113
				l-0.452-0.452c-0.967-0.967-2.253-1.5-3.621-1.5s-2.654,0.533-3.622,1.5l-6.521,6.521c-1.997,1.997-1.997,5.246,0,7.243
				l0.388,0.388c-1.896,3.167-3.322,6.567-4.255,10.135h-0.491c-2.824,0-5.122,2.297-5.122,5.122v9.222
				c0,2.824,2.298,5.122,5.122,5.122h0.392c0.903,3.616,2.314,7.065,4.207,10.282l-0.24,0.241c-1.997,1.997-1.997,5.246,0,7.243
				l6.521,6.521c0.968,0.967,2.254,1.5,3.622,1.5s2.654-0.533,3.621-1.5l0.188-0.188c3.227,1.93,6.694,3.375,10.335,4.305v0.242
				c0,2.824,2.297,5.122,5.121,5.122h9.223c2.824,0,5.121-2.298,5.121-5.122v-0.243c3.642-0.93,7.108-2.374,10.335-4.304
				l0.188,0.188c0.967,0.967,2.253,1.5,3.621,1.5s2.654-0.533,3.621-1.5l6.521-6.521c1.997-1.997,1.997-5.247,0-7.243l-0.24-0.241
				c1.892-3.218,3.303-6.667,4.207-10.282h0.392c2.824,0,5.122-2.297,5.122-5.122v-9.222
				C240.9,51.165,238.603,48.867,235.778,48.867z M237.9,63.211c0,1.17-0.952,2.122-2.122,2.122h-1.581
				c-0.705,0-1.315,0.492-1.466,1.181c-0.891,4.096-2.478,7.975-4.716,11.529c-0.373,0.593-0.286,1.365,0.209,1.86l1.074,1.074
				c0.827,0.827,0.827,2.173,0,3.001l-6.521,6.52c-0.801,0.802-2.199,0.802-3,0l-1.028-1.028c-0.498-0.497-1.273-0.583-1.87-0.202
				c-3.558,2.279-7.451,3.901-11.572,4.821c-0.687,0.153-1.174,0.761-1.174,1.464v1.426c0,1.17-0.951,2.122-2.121,2.122h-9.223
				c-1.17,0-2.121-0.952-2.121-2.122v-1.426c0-0.703-0.487-1.311-1.174-1.464c-4.12-0.919-8.015-2.541-11.572-4.821
				c-0.249-0.159-0.53-0.237-0.809-0.237c-0.388,0-0.771,0.149-1.062,0.439l-1.028,1.028c-0.801,0.803-2.198,0.801-3.001,0
				l-6.521-6.52c-0.827-0.828-0.827-2.174,0-3.001l1.074-1.074c0.495-0.495,0.582-1.268,0.209-1.86
				c-2.239-3.554-3.826-7.433-4.716-11.528c-0.149-0.69-0.76-1.182-1.466-1.182h-1.581c-1.17,0-2.122-0.952-2.122-2.122v-9.222
				c0-1.17,0.952-2.122,2.122-2.122h1.668c0.699,0,1.306-0.483,1.462-1.165c0.927-4.049,2.535-7.878,4.779-11.381
				c0.381-0.593,0.296-1.372-0.202-1.87l-1.228-1.228c-0.4-0.401-0.621-0.934-0.621-1.5c0-0.566,0.221-1.099,0.621-1.5l6.521-6.521
				c0.803-0.802,2.2-0.803,3.001,0l1.274,1.273c0.496,0.495,1.268,0.582,1.86,0.208c3.396-2.14,9.146-4.083,11.399-4.688
				c0.655-0.176,1.11-0.771,1.11-1.449v-1.825c0-1.17,0.951-2.122,2.121-2.122h9.223c1.17,0,2.121,0.952,2.121,2.122v1.825
				c0,0.703,0.487,1.311,1.174,1.464c4.024,0.897,7.839,2.47,11.336,4.673c0.593,0.374,1.364,0.286,1.86-0.208l1.274-1.274
				c0.801-0.802,2.199-0.802,3,0l6.521,6.521c0.4,0.401,0.621,0.934,0.621,1.5c0,0.567-0.221,1.1-0.621,1.5l-1.228,1.228
				c-0.498,0.498-0.583,1.276-0.202,1.87c2.244,3.503,3.853,7.332,4.779,11.381c0.156,0.682,0.763,1.165,1.462,1.165h1.668
				c1.17,0,2.122,0.952,2.122,2.122V63.211z"/>
		</g>
	</g>
	<g>
		<g>
			<path class="st10" d="M229.35,88.169l-4.45,4.45c-0.82,0.82-1.86,1.33-2.99,1.46c0.64,1.35,0.99,2.87,0.99,4.46v128.86
				c0,5.83-4.74,10.57-10.57,10.57h15c5.83,0,10.57-4.74,10.57-10.57V98.539C237.9,93.399,234.22,89.109,229.35,88.169z"/>
		</g>
	</g>
</g>
</svg>
