<?xml version="1.0" encoding="utf-8"?>
<!-- Generator: Adobe Illustrator 22.0.1, SVG Export Plug-In . SVG Version: 6.00 Build 0)  -->
<svg version="1.1" id="Layer_1" xmlns="http://www.w3.org/2000/svg" xmlns:xlink="http://www.w3.org/1999/xlink" x="0px" y="0px"
	 viewBox="0 0 256 256" style="enable-background:new 0 0 256 256;" xml:space="preserve">
<style type="text/css">
	.st0{fill:#3A312A;}
	.st1{fill:#F16C7A;}
	.st2{fill:#D7E057;}
	.st3{fill:#F8E4C8;}
	.st4{fill:#89C4DB;}
	.st5{fill-rule:evenodd;clip-rule:evenodd;fill:#F8E4C8;}
	.st6{fill:#87796F;}
	.st7{fill:#D4DB56;}
	.st8{fill:#F59689;}
	.st9{fill:#6CA6BE;}
	.st10{fill:#695B51;}
	.st11{fill:#F7E3C7;}
	.st12{fill:#8AC6DD;}
	.st13{fill:#6CA8BF;}
	.st14{fill:#D6DF58;}
	.st15{fill:#FAE6CA;}
	.st16{fill:#EF6D7A;}
	.st17{fill:#DDC9AC;}
	.st18{fill:#D24E5C;}
	.st19{fill:#6A5C52;}
	.st20{fill:#B9C239;}
	.st21{fill:#FCE8CB;}
	.st22{fill:#DECAAD;}
	.st23{fill:#D5DE58;}
	.st24{fill:#8AC5DC;}
	.st25{fill:#D34E5C;}
	.st26{fill:#ED6E7A;}
	.st27{fill:#B8C136;}
</style>
<g>
	<g>
		<g>
			<path class="st14" d="M48.143,26.375c-0.974,11.564-13.024,13.39-13.024,13.39c10.347,0.487,12.925,14.059,12.925,14.059
				c0.221-9.677,13.321-14.202,13.321-14.202C51.551,39.034,48.143,26.375,48.143,26.375z"/>
		</g>
	</g>
	<g>
		<g>
			<path class="st0" d="M61.454,38.124C52.849,37.61,49.622,26.1,49.59,25.984c-0.191-0.702-0.852-1.164-1.583-1.102
				c-0.725,0.066-1.298,0.642-1.359,1.367c-0.86,10.215-11.313,11.963-11.754,12.032c-0.763,0.115-1.313,0.79-1.273,1.561
				c0.04,0.77,0.657,1.384,1.428,1.421c9.028,0.425,11.498,12.719,11.522,12.843c0.137,0.711,0.759,1.217,1.472,1.217
				c0.042,0,0.084-0.001,0.126-0.005c0.764-0.064,1.357-0.693,1.375-1.459c0.195-8.509,12.192-12.777,12.313-12.819
				c0.675-0.235,1.092-0.915,0.994-1.623C62.752,38.708,62.168,38.167,61.454,38.124z M47.888,48.47
				c-1.357-3.13-3.709-6.908-7.587-8.877c2.931-1.404,6.409-3.913,8.202-8.272c1.551,3.071,4.2,6.88,8.335,8.722
				C53.83,41.683,49.915,44.449,47.888,48.47z"/>
		</g>
	</g>
	<g>
		<g>
			<path class="st14" d="M26.444,43.356c-0.689,8.179-9.212,9.471-9.212,9.471c7.318,0.344,9.142,9.944,9.142,9.944
				c0.156-6.844,9.422-10.045,9.422-10.045C28.855,52.31,26.444,43.356,26.444,43.356z"/>
		</g>
	</g>
	<g>
		<g>
			<path class="st0" d="M35.885,51.228c-5.766-0.345-7.972-8.185-7.994-8.264c-0.19-0.702-0.856-1.168-1.582-1.102
				c-0.726,0.065-1.299,0.642-1.36,1.368c-0.579,6.87-7.646,8.066-7.942,8.113c-0.763,0.115-1.313,0.79-1.273,1.561
				c0.04,0.77,0.657,1.384,1.427,1.421c6.036,0.284,7.724,8.644,7.739,8.726c0.135,0.713,0.759,1.22,1.472,1.22
				c0.042,0,0.083-0.001,0.125-0.005c0.765-0.063,1.358-0.694,1.376-1.461c0.13-5.709,8.332-8.634,8.413-8.662
				c0.677-0.234,1.094-0.913,0.996-1.622C37.185,51.812,36.6,51.271,35.885,51.228z M26.301,58.023
				c-0.924-1.886-2.34-3.947-4.447-5.28c1.855-1.041,3.697-2.629,4.871-4.916c1.057,1.874,2.654,3.955,4.941,5.224
				C29.816,54.151,27.677,55.791,26.301,58.023z"/>
		</g>
	</g>
	<g>
		<g>
			<path class="st14" d="M26.444,16.698c-0.689,8.179-9.212,9.471-9.212,9.471c7.318,0.344,9.142,9.944,9.142,9.944
				c0.156-6.845,9.422-10.045,9.422-10.045C28.855,25.652,26.444,16.698,26.444,16.698z"/>
		</g>
	</g>
	<g>
		<g>
			<path class="st0" d="M35.886,24.57c-5.767-0.345-7.973-8.186-7.994-8.265c-0.19-0.702-0.856-1.169-1.582-1.102
				c-0.726,0.065-1.299,0.642-1.36,1.368c-0.579,6.871-7.646,8.067-7.942,8.114c-0.763,0.115-1.313,0.79-1.273,1.561
				c0.04,0.77,0.657,1.384,1.428,1.421c6.035,0.284,7.723,8.644,7.739,8.726c0.135,0.713,0.759,1.22,1.472,1.22
				c0.042,0,0.083-0.001,0.125-0.005c0.765-0.063,1.358-0.694,1.376-1.461c0.13-5.709,8.332-8.634,8.413-8.662
				c0.676-0.234,1.094-0.913,0.996-1.622C37.185,25.155,36.6,24.613,35.886,24.57z M26.301,31.365
				c-0.924-1.885-2.34-3.947-4.447-5.28c1.856-1.041,3.697-2.63,4.871-4.916c1.057,1.874,2.655,3.954,4.941,5.224
				C29.816,27.494,27.677,29.133,26.301,31.365z"/>
		</g>
	</g>
	<g>
		<g>
			<path class="st0" d="M228.213,130.068l-95.977-95.977c-0.563-0.563-1.559-0.563-2.121,0L86.442,77.765
				c-0.586,0.585-0.586,1.536,0,2.121c0.586,0.586,1.535,0.586,2.121,0l42.612-42.613l93.855,93.855l-93.855,93.855l-93.855-93.855
				l41.87-41.87c0.586-0.585,0.586-1.536,0-2.121c-0.586-0.586-1.535-0.586-2.121,0l-42.93,42.93c-0.586,0.585-0.586,1.536,0,2.121
				l95.976,95.977c0.281,0.281,0.663,0.439,1.061,0.439c0.397,0,0.779-0.158,1.06-0.439l95.977-95.977
				C228.799,131.604,228.799,130.653,228.213,130.068z"/>
		</g>
	</g>
	<g>
		<g>
			
				<ellipse transform="matrix(0.7071 -0.7071 0.7071 0.7071 -54.3014 131.1621)" class="st24" cx="131.176" cy="131.129" rx="59.137" ry="59.137"/>
		</g>
	</g>
	<g>
		<g>
			<path class="st0" d="M131.176,70.492c-33.435,0-60.637,27.202-60.637,60.637c0,33.436,27.202,60.637,60.637,60.637
				c33.435,0,60.638-27.202,60.638-60.637C191.813,97.693,164.611,70.492,131.176,70.492z M131.176,188.766
				c-31.781,0-57.637-25.856-57.637-57.637c0-31.781,25.856-57.637,57.637-57.637c31.781,0,57.638,25.856,57.638,57.637
				C188.813,162.91,162.957,188.766,131.176,188.766z"/>
		</g>
	</g>
	<g>
		<g>
			<path class="st0" d="M131.176,70.492c-22.63,0-41.041,27.202-41.041,60.637c0,33.436,18.411,60.637,41.041,60.637
				s41.041-27.202,41.041-60.637C172.217,97.693,153.806,70.492,131.176,70.492z M131.176,188.766
				c-20.976,0-38.041-25.856-38.041-57.637c0-31.781,17.065-57.637,38.041-57.637s38.041,25.856,38.041,57.637
				C169.217,162.91,152.151,188.766,131.176,188.766z"/>
		</g>
	</g>
	<g>
		<g>
			<path class="st0" d="M131.176,70.492c-10.934,0-16.833,31.242-16.833,60.637c0,29.396,5.9,60.637,16.833,60.637
				s16.834-31.242,16.834-60.637C148.01,101.733,142.109,70.492,131.176,70.492z M131.176,188.766
				c-6.543,0-13.833-23.671-13.833-57.637s7.291-57.637,13.833-57.637c6.543,0,13.834,23.67,13.834,57.637
				S137.719,188.766,131.176,188.766z"/>
		</g>
	</g>
	<g>
		<g>
			<path class="st0" d="M131.176,90.087c-33.435,0-60.637,18.411-60.637,41.041s27.202,41.041,60.637,41.041
				c33.435,0,60.638-18.411,60.638-41.041S164.611,90.087,131.176,90.087z M131.176,169.169c-31.781,0-57.637-17.065-57.637-38.041
				s25.856-38.041,57.637-38.041c31.781,0,57.638,17.065,57.638,38.041S162.957,169.169,131.176,169.169z"/>
		</g>
	</g>
	<g>
		<g>
			<path class="st0" d="M131.176,114.295c-29.395,0-60.637,5.9-60.637,16.833c0,10.934,31.242,16.834,60.637,16.834
				c29.396,0,60.638-5.9,60.638-16.834C191.813,120.195,160.571,114.295,131.176,114.295z M131.176,144.962
				c-33.966,0-57.637-7.291-57.637-13.834c0-6.543,23.67-13.833,57.637-13.833c33.967,0,57.638,7.291,57.638,13.833
				C188.813,137.672,165.143,144.962,131.176,144.962z"/>
		</g>
	</g>
	<g>
		<g>
			<circle class="st2" cx="131.176" cy="34.714" r="11.587"/>
		</g>
	</g>
	<g>
		<g>
			<path class="st0" d="M140.43,25.46c-2.472-2.472-5.759-3.833-9.254-3.833c-3.496,0-6.782,1.361-9.253,3.833
				c-5.103,5.103-5.103,13.405,0,18.507c2.551,2.552,5.902,3.827,9.253,3.827c3.351,0,6.703-1.276,9.254-3.827
				c2.472-2.472,3.833-5.758,3.833-9.254C144.263,31.218,142.901,27.932,140.43,25.46z M138.309,41.847
				c-3.934,3.932-10.332,3.932-14.265,0c-3.933-3.933-3.933-10.332,0-14.265c1.905-1.905,4.438-2.955,7.132-2.955
				c2.694,0,5.227,1.049,7.133,2.955c1.905,1.905,2.954,4.438,2.954,7.132C141.263,37.408,140.214,39.941,138.309,41.847z"/>
		</g>
	</g>
	<g>
		<g>
			<path class="st2" d="M139.369,219.443c-4.525-4.525-11.861-4.525-16.386,0c-4.525,4.525-4.525,11.861,0,16.386
				c4.525,4.525,11.861,4.525,16.386,0C143.894,231.304,143.894,223.968,139.369,219.443z"/>
		</g>
	</g>
	<g>
		<g>
			<path class="st0" d="M140.43,218.383c-2.472-2.472-5.759-3.833-9.254-3.833c-3.496,0-6.782,1.361-9.253,3.833
				c-5.103,5.103-5.103,13.405,0,18.507c2.551,2.552,5.902,3.827,9.253,3.827c3.351,0,6.703-1.276,9.254-3.827
				c2.472-2.472,3.833-5.758,3.833-9.254C144.263,224.141,142.901,220.854,140.43,218.383z M138.309,234.769
				c-3.934,3.932-10.332,3.932-14.265,0c-3.933-3.933-3.933-10.332,0-14.265c1.905-1.905,4.438-2.955,7.132-2.955
				c2.694,0,5.227,1.049,7.133,2.955c1.905,1.905,2.954,4.438,2.954,7.132C141.263,230.331,140.214,232.864,138.309,234.769z"/>
		</g>
	</g>
	<g>
		<g>
			<path class="st2" d="M235.83,122.982c-4.525-4.525-11.861-4.525-16.386,0c-4.525,4.525-4.525,11.861,0,16.386
				c4.525,4.525,11.861,4.525,16.386,0C240.355,134.843,240.355,127.507,235.83,122.982z"/>
		</g>
	</g>
	<g>
		<g>
			<path class="st0" d="M236.891,121.921c-2.472-2.472-5.758-3.833-9.253-3.833c-3.496,0-6.782,1.361-9.254,3.833
				s-3.834,5.758-3.834,9.254c0,3.496,1.362,6.782,3.834,9.253c2.472,2.472,5.758,3.833,9.254,3.833
				c3.495,0,6.781-1.362,9.253-3.833c2.472-2.472,3.833-5.758,3.833-9.253C240.724,127.679,239.362,124.393,236.891,121.921z
				 M234.769,138.308c-1.905,1.905-4.438,2.955-7.133,2.955c-2.694,0-5.227-1.049-7.132-2.955s-2.955-4.438-2.955-7.132
				c0-2.694,1.05-5.228,2.955-7.133s4.438-2.954,7.133-2.954c2.694,0,5.227,1.049,7.132,2.954c1.905,1.905,2.954,4.438,2.954,7.133
				C237.724,133.869,236.675,136.402,234.769,138.308z"/>
		</g>
	</g>
	<g>
		<g>
			<path class="st2" d="M42.908,122.982c-4.525-4.525-11.861-4.525-16.386,0c-4.525,4.525-4.525,11.861,0,16.386
				c4.525,4.525,11.861,4.525,16.386,0C47.433,134.843,47.433,127.507,42.908,122.982z"/>
		</g>
	</g>
	<g>
		<g>
			<path class="st0" d="M43.969,121.921c-5.103-5.103-13.405-5.103-18.508,0c-5.102,5.103-5.102,13.405,0,18.507
				c2.551,2.551,5.902,3.827,9.254,3.827c3.352,0,6.703-1.276,9.254-3.827C49.071,135.326,49.071,127.024,43.969,121.921z
				 M41.848,138.308c-3.934,3.933-10.332,3.933-14.266,0c-3.933-3.933-3.933-10.332,0-14.265c3.933-3.932,10.333-3.932,14.266,0
				C45.78,127.976,45.78,134.375,41.848,138.308z"/>
		</g>
	</g>
	<g>
		<g>
			<path class="st0" d="M199.074,125.999c0.828,0,1.5-0.671,1.5-1.5V63.276c0-0.829-0.672-1.5-1.5-1.5H63.343
				c-0.829,0-1.5,0.671-1.5,1.5v135.731c0,0.829,0.671,1.5,1.5,1.5h135.731c0.828,0,1.5-0.671,1.5-1.5v-61.253
				c0-0.829-0.672-1.5-1.5-1.5c-0.828,0-1.5,0.671-1.5,1.5v59.753H64.843V64.776h132.731v59.723
				C197.574,125.328,198.246,125.999,199.074,125.999z"/>
		</g>
	</g>
	<g>
		<g>
			
				<ellipse transform="matrix(0.3827 -0.9239 0.9239 0.3827 64.9096 223.0777)" class="st1" cx="199.384" cy="62.967" rx="11.587" ry="11.587"/>
		</g>
	</g>
	<g>
		<g>
			<path class="st0" d="M199.385,49.88c-7.216,0-13.087,5.871-13.087,13.087s5.871,13.087,13.087,13.087
				c7.216,0,13.087-5.871,13.087-13.087S206.601,49.88,199.385,49.88z M199.385,73.054c-5.562,0-10.087-4.525-10.087-10.087
				s4.525-10.087,10.087-10.087c5.562,0,10.087,4.525,10.087,10.087S204.946,73.054,199.385,73.054z"/>
		</g>
	</g>
	<g>
		<g>
			
				<ellipse transform="matrix(0.3827 -0.9239 0.9239 0.3827 -145.3354 181.2575)" class="st1" cx="62.968" cy="199.384" rx="11.587" ry="11.587"/>
		</g>
	</g>
	<g>
		<g>
			<path class="st0" d="M62.968,186.297c-7.216,0-13.087,5.871-13.087,13.086c0,7.216,5.871,13.087,13.087,13.087
				s13.087-5.871,13.087-13.087C76.055,192.167,70.184,186.297,62.968,186.297z M62.968,209.47c-5.562,0-10.087-4.525-10.087-10.087
				c0-5.562,4.525-10.086,10.087-10.086s10.087,4.525,10.087,10.086C73.055,204.945,68.53,209.47,62.968,209.47z"/>
		</g>
	</g>
	<g>
		<g>
			
				<ellipse transform="matrix(0.3827 -0.9239 0.9239 0.3827 -61.123 307.2901)" class="st1" cx="199.384" cy="199.384" rx="11.587" ry="11.587"/>
		</g>
	</g>
	<g>
		<g>
			<path class="st0" d="M199.385,186.297c-7.216,0-13.087,5.871-13.087,13.086c0,7.216,5.871,13.087,13.087,13.087
				c7.216,0,13.087-5.871,13.087-13.087C212.472,192.167,206.601,186.297,199.385,186.297z M199.385,209.47
				c-5.562,0-10.087-4.525-10.087-10.087c0-5.562,4.525-10.086,10.087-10.086c5.562,0,10.087,4.525,10.087,10.086
				C209.472,204.945,204.946,209.47,199.385,209.47z"/>
		</g>
	</g>
	<g>
		<g>
			
				<ellipse transform="matrix(0.3827 -0.9239 0.9239 0.3827 -19.3027 97.0451)" class="st1" cx="62.968" cy="62.967" rx="11.587" ry="11.587"/>
		</g>
	</g>
	<g>
		<g>
			<path class="st0" d="M62.968,49.88c-7.216,0-13.087,5.871-13.087,13.087s5.871,13.087,13.087,13.087s13.087-5.871,13.087-13.087
				S70.184,49.88,62.968,49.88z M62.968,73.054c-5.562,0-10.087-4.525-10.087-10.087S57.406,52.88,62.968,52.88
				s10.087,4.525,10.087,10.087S68.53,73.054,62.968,73.054z"/>
		</g>
	</g>
	<g>
		<g>
			<path class="st13" d="M138.796,185.787c-0.48,0.81-0.96,1.55-1.47,2.21c6.94-1.71,13.25-6.28,18.39-12.89
				C150.766,179.567,145.046,183.197,138.796,185.787z"/>
		</g>
	</g>
	<g>
		<g>
			<path class="st13" d="M137.326,74.257c0.51,0.66,0.99,1.4,1.47,2.21c6.25,2.59,11.97,6.22,16.92,10.68
				C150.576,80.537,144.266,75.967,137.326,74.257z"/>
		</g>
	</g>
	<g>
		<g>
			<path class="st13" d="M167.426,101.597c3.08,5.34,5.35,11.2,6.65,17.42c5.99,1.6,10.86,3.59,13.97,5.96
				C185.726,115.587,178.176,107.347,167.426,101.597z"/>
		</g>
	</g>
	<g>
		<g>
			<path class="st13" d="M165.152,165.104c-4.162,9.056-9.941,16.358-16.715,21.018c17.922-5.638,32.095-19.811,37.733-37.733
				C181.51,155.163,174.208,160.942,165.152,165.104z"/>
		</g>
	</g>
	<g>
		<g>
			<path class="st13" d="M148.437,76.135c6.774,4.66,12.553,11.962,16.715,21.018c9.056,4.162,16.358,9.941,21.018,16.715
				C180.532,95.945,166.359,81.772,148.437,76.135z"/>
		</g>
	</g>
	<g>
		<g>
			<path class="st13" d="M174.076,143.237c-1.3,6.23-3.57,12.1-6.66,17.44c10.75-5.76,18.31-14.01,20.63-23.4
				C184.936,139.647,180.066,141.647,174.076,143.237z"/>
		</g>
	</g>
	<g>
		<g>
			<path class="st13" d="M174.656,122.277c0.44,2.89,0.66,5.84,0.66,8.85c0,3.01-0.22,5.96-0.66,8.85
				c8.98-2.57,14.16-5.79,14.16-8.85C188.816,128.067,183.636,124.847,174.656,122.277z"/>
		</g>
	</g>
</g>
</svg>
