<?xml version="1.0" encoding="utf-8"?>
<!-- Generator: Adobe Illustrator 22.0.1, SVG Export Plug-In . SVG Version: 6.00 Build 0)  -->
<svg version="1.1" id="Layer_1" xmlns="http://www.w3.org/2000/svg" xmlns:xlink="http://www.w3.org/1999/xlink" x="0px" y="0px"
	 viewBox="0 0 256 256" style="enable-background:new 0 0 256 256;" xml:space="preserve">
<style type="text/css">
	.st0{fill:#3A312A;}
	.st1{fill:#F16C7A;}
	.st2{fill:#D7E057;}
	.st3{fill:#F8E4C8;}
	.st4{fill:#89C4DB;}
	.st5{fill-rule:evenodd;clip-rule:evenodd;fill:#F8E4C8;}
	.st6{fill:#87796F;}
	.st7{fill:#D4DB56;}
	.st8{fill:#F59689;}
	.st9{fill:#6CA6BE;}
	.st10{fill:#695B51;}
	.st11{fill:#F7E3C7;}
	.st12{fill:#8AC6DD;}
	.st13{fill:#6CA8BF;}
	.st14{fill:#D6DF58;}
	.st15{fill:#FAE6CA;}
	.st16{fill:#EF6D7A;}
	.st17{fill:#DDC9AC;}
	.st18{fill:#D24E5C;}
	.st19{fill:#6A5C52;}
	.st20{fill:#B9C239;}
	.st21{fill:#FCE8CB;}
	.st22{fill:#DECAAD;}
	.st23{fill:#D5DE58;}
	.st24{fill:#8AC5DC;}
	.st25{fill:#D34E5C;}
	.st26{fill:#ED6E7A;}
	.st27{fill:#B8C136;}
</style>
<g>
	<g>
		<g>
			<path class="st14" d="M48.269,26.097c-0.974,11.564-13.024,13.39-13.024,13.39C45.591,39.974,48.17,53.546,48.17,53.546
				c0.221-9.677,13.321-14.202,13.321-14.202C51.678,38.757,48.269,26.097,48.269,26.097z"/>
		</g>
	</g>
	<g>
		<g>
			<path class="st0" d="M61.581,37.847c-8.604-0.515-11.832-12.024-11.864-12.141c-0.191-0.703-0.861-1.159-1.583-1.102
				c-0.725,0.066-1.298,0.642-1.359,1.367c-0.86,10.215-11.314,11.964-11.754,12.032c-0.763,0.116-1.314,0.791-1.273,1.561
				c0.04,0.771,0.657,1.385,1.428,1.421c9.028,0.425,11.499,12.718,11.523,12.843c0.137,0.711,0.759,1.217,1.472,1.217
				c0.042,0,0.084-0.002,0.126-0.005c0.764-0.064,1.357-0.693,1.375-1.46c0.195-8.509,12.192-12.777,12.313-12.819
				c0.675-0.234,1.092-0.914,0.994-1.622C62.878,38.43,62.294,37.889,61.581,37.847z M48.015,48.192
				c-1.356-3.131-3.708-6.907-7.587-8.877c2.931-1.404,6.409-3.913,8.202-8.272c1.551,3.071,4.199,6.88,8.334,8.723
				C53.956,41.405,50.041,44.171,48.015,48.192z"/>
		</g>
	</g>
	<g>
		<g>
			<path class="st14" d="M26.571,43.078c-0.689,8.179-9.212,9.47-9.212,9.47c7.318,0.344,9.142,9.944,9.142,9.944
				c0.156-6.844,9.422-10.045,9.422-10.045C28.981,52.032,26.571,43.078,26.571,43.078z"/>
		</g>
	</g>
	<g>
		<g>
			<path class="st0" d="M36.012,50.95c-5.766-0.345-7.972-8.186-7.993-8.265c-0.191-0.702-0.857-1.167-1.582-1.102
				c-0.726,0.065-1.299,0.643-1.36,1.368c-0.579,6.87-7.647,8.066-7.942,8.113c-0.763,0.116-1.313,0.791-1.273,1.561
				c0.04,0.771,0.657,1.385,1.428,1.421c6.035,0.284,7.723,8.645,7.739,8.727c0.135,0.713,0.759,1.22,1.472,1.22
				c0.041,0,0.083-0.002,0.125-0.005c0.765-0.063,1.358-0.693,1.376-1.461c0.13-5.709,8.331-8.634,8.412-8.662
				c0.677-0.234,1.094-0.913,0.996-1.622C37.311,51.534,36.727,50.992,36.012,50.95z M26.428,57.745
				c-0.924-1.886-2.34-3.947-4.447-5.28c1.855-1.041,3.697-2.629,4.871-4.916c1.057,1.874,2.654,3.954,4.941,5.224
				C29.942,53.873,27.804,55.513,26.428,57.745z"/>
		</g>
	</g>
	<g>
		<g>
			<path class="st14" d="M26.571,16.42c-0.689,8.179-9.212,9.471-9.212,9.471c7.318,0.344,9.142,9.944,9.142,9.944
				c0.156-6.845,9.422-10.045,9.422-10.045C28.981,25.375,26.571,16.42,26.571,16.42z"/>
		</g>
	</g>
	<g>
		<g>
			<path class="st0" d="M36.012,24.293c-5.766-0.346-7.972-8.186-7.994-8.265c-0.191-0.702-0.858-1.168-1.582-1.102
				c-0.726,0.065-1.299,0.643-1.36,1.368c-0.579,6.87-7.647,8.066-7.942,8.113c-0.763,0.116-1.313,0.791-1.273,1.561
				c0.04,0.771,0.657,1.385,1.428,1.421c6.035,0.284,7.723,8.644,7.739,8.726c0.135,0.713,0.759,1.22,1.472,1.22
				c0.041,0,0.083-0.002,0.125-0.005c0.765-0.063,1.358-0.693,1.376-1.461c0.13-5.708,8.331-8.633,8.412-8.661
				c0.676-0.234,1.094-0.913,0.996-1.622C37.311,24.877,36.727,24.336,36.012,24.293z M26.428,31.088
				c-0.924-1.886-2.34-3.947-4.447-5.28c1.856-1.041,3.697-2.63,4.871-4.916c1.057,1.874,2.654,3.954,4.941,5.224
				C29.943,27.216,27.804,28.855,26.428,31.088z"/>
		</g>
	</g>
	<g>
		<g>
			<path class="st21" d="M16.728,98.463v125.667c0,8.495,6.887,15.382,15.382,15.382h192.236c8.495,0,15.382-6.887,15.382-15.382
				V98.463H16.728z"/>
		</g>
	</g>
	<g>
		<g>
			<path class="st0" d="M239.727,96.964H16.728c-0.829,0-1.5,0.672-1.5,1.5v35.783c0,0.828,0.671,1.5,1.5,1.5
				c0.829,0,1.5-0.672,1.5-1.5V99.964h219.999v124.167c0,7.654-6.227,13.882-13.882,13.882H32.11
				c-7.654,0-13.882-6.228-13.882-13.882v-76.622c0-0.828-0.671-1.5-1.5-1.5c-0.829,0-1.5,0.672-1.5,1.5v76.622
				c0,9.309,7.573,16.882,16.882,16.882h192.236c9.309,0,16.882-7.573,16.882-16.882V98.464
				C241.227,97.636,240.556,96.964,239.727,96.964z"/>
		</g>
	</g>
	<g>
		<g>
			<path class="st6" d="M224.346,68.797H32.11c-8.495,0-15.382,6.887-15.382,15.382v14.284h223V84.179
				C239.728,75.684,232.841,68.797,224.346,68.797z"/>
		</g>
	</g>
	<g>
		<g>
			<path class="st0" d="M224.346,67.297h-31.25c-0.828,0-1.5,0.672-1.5,1.5s0.672,1.5,1.5,1.5h31.25
				c7.654,0,13.882,6.228,13.882,13.882v12.785H18.228V84.179c0-7.654,6.228-13.882,13.882-13.882h148.178
				c0.828,0,1.5-0.672,1.5-1.5s-0.672-1.5-1.5-1.5H32.11c-9.309,0-16.882,7.573-16.882,16.882v14.285c0,0.828,0.671,1.5,1.5,1.5
				h222.999c0.828,0,1.5-0.672,1.5-1.5V84.179C241.227,74.87,233.654,67.297,224.346,67.297z"/>
		</g>
	</g>
	<g>
		<g>
			<circle class="st1" cx="37.228" cy="83.797" r="6.75"/>
		</g>
	</g>
	<g>
		<g>
			<path class="st0" d="M37.228,75.547c-4.549,0-8.25,3.701-8.25,8.25s3.701,8.25,8.25,8.25s8.25-3.701,8.25-8.25
				S41.777,75.547,37.228,75.547z M37.228,89.047c-2.895,0-5.25-2.355-5.25-5.25s2.355-5.25,5.25-5.25c2.895,0,5.25,2.355,5.25,5.25
				S40.123,89.047,37.228,89.047z"/>
		</g>
	</g>
	<g>
		<g>
			<circle class="st2" cx="65.478" cy="83.797" r="6.75"/>
		</g>
	</g>
	<g>
		<g>
			<path class="st0" d="M65.478,75.547c-4.549,0-8.25,3.701-8.25,8.25s3.701,8.25,8.25,8.25s8.25-3.701,8.25-8.25
				S70.027,75.547,65.478,75.547z M65.478,89.047c-2.895,0-5.25-2.355-5.25-5.25s2.355-5.25,5.25-5.25c2.895,0,5.25,2.355,5.25,5.25
				S68.373,89.047,65.478,89.047z"/>
		</g>
	</g>
	<g>
		<g>
			<circle class="st12" cx="93.728" cy="83.797" r="6.75"/>
		</g>
	</g>
	<g>
		<g>
			<path class="st0" d="M93.728,75.547c-4.549,0-8.25,3.701-8.25,8.25s3.701,8.25,8.25,8.25s8.25-3.701,8.25-8.25
				S98.277,75.547,93.728,75.547z M93.728,89.047c-2.895,0-5.25-2.355-5.25-5.25s2.355-5.25,5.25-5.25c2.895,0,5.25,2.355,5.25,5.25
				S96.623,89.047,93.728,89.047z"/>
		</g>
	</g>
	<g>
		<g>
			<path class="st22" d="M223.228,99.967v124.16c0,7.66-6.23,13.88-13.88,13.88h15c7.65,0,13.88-6.22,13.88-13.88V99.967H223.228z"
				/>
		</g>
	</g>
	<g>
		<g>
			<path class="st10" d="M224.348,70.297h-15c7.65,0,13.88,6.23,13.88,13.88v12.79h15v-12.79
				C238.228,76.527,231.998,70.297,224.348,70.297z"/>
		</g>
	</g>
	<g>
		<g>
			<path class="st1" d="M185.495,208.127l-50.049-86.688c-3.208-5.556-11.227-5.556-14.435,0l-50.049,86.688
				c-3.208,5.556,0.802,12.501,7.218,12.501h100.098C184.693,220.629,188.702,213.684,185.495,208.127z"/>
		</g>
	</g>
	<g>
		<g>
			<path class="st0" d="M186.793,207.378l-50.049-86.688c-1.777-3.079-4.961-4.918-8.517-4.918c-3.555,0-6.739,1.839-8.516,4.918
				l-50.049,86.688c-1.778,3.078-1.778,6.755,0,9.834c1.777,3.079,4.961,4.917,8.517,4.917h100.099c3.555,0,6.738-1.838,8.516-4.917
				C188.571,214.133,188.571,210.456,186.793,207.378z M184.195,215.712c-1.235,2.14-3.447,3.417-5.918,3.417H78.179
				c-2.471,0-4.683-1.277-5.918-3.417s-1.235-4.694,0-6.834l50.049-86.688c1.236-2.14,3.448-3.418,5.918-3.418
				c2.471,0,4.684,1.278,5.919,3.418l50.049,86.688C185.431,211.018,185.431,213.572,184.195,215.712z"/>
		</g>
	</g>
	<g>
		<g>
			<path class="st6" d="M128.225,139.733c-8.236,0-11.63,7.656-11.63,14.833c0,4.14,1.06,13.56,2.606,20.762
				c0.909,4.236,4.694,7.236,9.026,7.236c4.332,0,8.115-2.999,9.026-7.234c1.548-7.202,2.608-16.624,2.608-20.764
				C139.861,147.389,136.467,139.733,128.225,139.733z"/>
		</g>
	</g>
	<g>
		<g>
			<path class="st0" d="M128.225,138.232c-9.07,0-13.129,8.203-13.129,16.333c0,4.242,1.061,13.724,2.639,21.076
				c1.047,4.881,5.46,8.423,10.493,8.423c5.03,0,9.443-3.541,10.493-8.419c1.579-7.351,2.641-16.834,2.641-21.08
				C141.36,146.436,137.299,138.232,128.225,138.232z M135.786,175.015c-0.754,3.506-3.934,6.05-7.559,6.05
				c-3.628,0-6.807-2.545-7.56-6.052c-1.516-7.062-2.572-16.443-2.572-20.447c0-6.15,2.653-13.333,10.129-13.333
				c7.481,0,10.136,7.183,10.136,13.333C138.36,158.573,137.304,167.957,135.786,175.015z"/>
		</g>
	</g>
	<g>
		<g>
			<path class="st6" d="M128.226,190.109c-5.912,0-10.759,4.846-10.759,10.758c0,5.913,4.847,10.759,10.759,10.759
				s10.759-4.846,10.759-10.759C138.985,194.955,134.138,190.109,128.226,190.109z"/>
		</g>
	</g>
	<g>
		<g>
			<path class="st0" d="M128.226,188.608c-6.76,0-12.259,5.499-12.259,12.259s5.5,12.259,12.259,12.259
				c6.76,0,12.259-5.499,12.259-12.259S134.986,188.608,128.226,188.608z M128.226,210.126c-5.105,0-9.259-4.153-9.259-9.259
				s4.154-9.259,9.259-9.259c5.106,0,9.259,4.153,9.259,9.259S133.332,210.126,128.226,210.126z"/>
		</g>
	</g>
</g>
</svg>
