<?xml version="1.0" encoding="utf-8"?>
<!-- Generator: Adobe Illustrator 22.0.1, SVG Export Plug-In . SVG Version: 6.00 Build 0)  -->
<svg version="1.1" id="Layer_1" xmlns="http://www.w3.org/2000/svg" xmlns:xlink="http://www.w3.org/1999/xlink" x="0px" y="0px"
	 viewBox="0 0 256 256" style="enable-background:new 0 0 256 256;" xml:space="preserve">
<style type="text/css">
	.st0{fill:#3A312A;}
	.st1{fill:#F16C7A;}
	.st2{fill:#D7E057;}
	.st3{fill:#F8E4C8;}
	.st4{fill:#89C4DB;}
	.st5{fill-rule:evenodd;clip-rule:evenodd;fill:#F8E4C8;}
	.st6{fill:#87796F;}
	.st7{fill:#D4DB56;}
	.st8{fill:#F59689;}
	.st9{fill:#6CA6BE;}
	.st10{fill:#695B51;}
	.st11{fill:#F7E3C7;}
	.st12{fill:#8AC6DD;}
	.st13{fill:#6CA8BF;}
	.st14{fill:#D6DF58;}
	.st15{fill:#FAE6CA;}
	.st16{fill:#EF6D7A;}
	.st17{fill:#DDC9AC;}
	.st18{fill:#D24E5C;}
	.st19{fill:#6A5C52;}
	.st20{fill:#B9C239;}
	.st21{fill:#FCE8CB;}
	.st22{fill:#DECAAD;}
	.st23{fill:#D5DE58;}
	.st24{fill:#8AC5DC;}
	.st25{fill:#D34E5C;}
	.st26{fill:#ED6E7A;}
	.st27{fill:#B8C136;}
</style>
<g>
	<g>
		<g>
			<path class="st2" d="M226.123,26.098c-0.974,11.564-13.025,13.389-13.025,13.389c10.347,0.487,12.925,14.059,12.925,14.059
				c0.221-9.677,13.321-14.202,13.321-14.202C229.531,38.757,226.123,26.098,226.123,26.098z"/>
		</g>
	</g>
	<g>
		<g>
			<path class="st0" d="M239.434,37.847c-8.604-0.515-11.832-12.024-11.863-12.141c-0.191-0.703-0.86-1.159-1.583-1.102
				c-0.725,0.066-1.298,0.642-1.359,1.367c-0.86,10.215-11.314,11.964-11.754,12.032c-0.763,0.116-1.314,0.791-1.273,1.561
				c0.04,0.771,0.657,1.385,1.428,1.421c9.028,0.425,11.498,12.718,11.522,12.842c0.137,0.712,0.759,1.218,1.472,1.218
				c0.042,0,0.084-0.002,0.126-0.005c0.764-0.064,1.357-0.693,1.375-1.46c0.195-8.509,12.192-12.777,12.313-12.819
				c0.675-0.234,1.092-0.914,0.994-1.622C240.732,38.43,240.148,37.889,239.434,37.847z M225.868,48.192
				c-1.357-3.131-3.709-6.907-7.587-8.877c2.931-1.404,6.409-3.913,8.202-8.272c1.551,3.071,4.199,6.88,8.334,8.723
				C231.81,41.405,227.894,44.171,225.868,48.192z"/>
		</g>
	</g>
	<g>
		<g>
			<path class="st2" d="M204.424,43.078c-0.689,8.179-9.212,9.47-9.212,9.47c7.318,0.344,9.142,9.944,9.142,9.944
				c0.156-6.844,9.422-10.045,9.422-10.045C206.835,52.032,204.424,43.078,204.424,43.078z"/>
		</g>
	</g>
	<g>
		<g>
			<path class="st0" d="M213.865,50.95c-5.766-0.345-7.972-8.186-7.993-8.265c-0.19-0.702-0.854-1.167-1.582-1.102
				c-0.725,0.065-1.299,0.643-1.36,1.368c-0.579,6.87-7.647,8.066-7.942,8.113c-0.763,0.116-1.313,0.791-1.273,1.561
				c0.04,0.771,0.657,1.385,1.428,1.421c6.035,0.284,7.723,8.645,7.739,8.727c0.135,0.713,0.759,1.22,1.472,1.22
				c0.042,0,0.083-0.002,0.125-0.005c0.765-0.063,1.358-0.693,1.376-1.461c0.13-5.709,8.332-8.634,8.412-8.662
				c0.677-0.234,1.094-0.913,0.996-1.622C215.165,51.534,214.58,50.992,213.865,50.95z M204.281,57.745
				c-0.924-1.886-2.34-3.947-4.447-5.28c1.856-1.041,3.697-2.629,4.871-4.916c1.057,1.874,2.654,3.954,4.941,5.224
				C207.796,53.873,205.657,55.513,204.281,57.745z"/>
		</g>
	</g>
	<g>
		<g>
			<path class="st2" d="M204.424,16.42c-0.689,8.179-9.212,9.471-9.212,9.471c7.318,0.344,9.142,9.944,9.142,9.944
				c0.156-6.844,9.422-10.045,9.422-10.045C206.835,25.375,204.424,16.42,204.424,16.42z"/>
		</g>
	</g>
	<g>
		<g>
			<path class="st0" d="M213.865,24.293c-5.766-0.345-7.972-8.186-7.993-8.265c-0.19-0.702-0.855-1.168-1.582-1.102
				c-0.725,0.065-1.299,0.643-1.36,1.368c-0.579,6.87-7.647,8.066-7.942,8.113c-0.763,0.116-1.313,0.791-1.273,1.561
				c0.04,0.771,0.657,1.385,1.428,1.421c6.035,0.284,7.723,8.645,7.739,8.727c0.135,0.713,0.759,1.22,1.472,1.22
				c0.042,0,0.083-0.002,0.125-0.005c0.765-0.063,1.358-0.693,1.376-1.461c0.13-5.709,8.332-8.634,8.412-8.662
				c0.677-0.234,1.094-0.913,0.996-1.622C215.165,24.877,214.58,24.335,213.865,24.293z M204.281,31.088
				c-0.924-1.886-2.34-3.947-4.447-5.28c1.856-1.041,3.697-2.629,4.871-4.916c1.057,1.874,2.654,3.954,4.941,5.224
				C207.796,27.216,205.657,28.855,204.281,31.088z"/>
		</g>
	</g>
	<g>
		<g>
			<path class="st6" d="M176.541,36.847c-0.109-11.326-9.318-20.453-20.645-20.459L37.013,16.326
				C25.6,16.321,16.345,25.571,16.345,36.984V195.95c0,11.409,9.248,20.657,20.657,20.657h119.186
				c11.408,0,20.657-9.249,20.657-20.657V68.451L176.541,36.847z"/>
		</g>
	</g>
	<g>
		<g>
			<path class="st0" d="M178.041,36.832c-0.116-12.093-10.05-21.938-22.144-21.943L37.014,14.826h-0.012
				c-5.916,0-11.478,2.303-15.663,6.485c-4.188,4.186-6.494,9.751-6.494,15.672v38.958c0,0.828,0.671,1.5,1.5,1.5s1.5-0.672,1.5-1.5
				V36.983c0-5.119,1.994-9.931,5.615-13.55c3.618-3.616,8.427-5.607,13.542-5.607h0.01l118.883,0.063
				c10.457,0.006,19.046,8.517,19.146,18.973l0.304,31.59v127.498c0,10.563-8.594,19.157-19.157,19.157H37.002
				c-10.563,0-19.157-8.594-19.157-19.157V89.19c0-0.828-0.671-1.5-1.5-1.5s-1.5,0.672-1.5,1.5v106.759
				c0,12.218,9.94,22.157,22.157,22.157h119.186c12.217,0,22.157-9.939,22.157-22.157V68.437L178.041,36.832z"/>
		</g>
	</g>
	<g>
		<g>
			<path class="st11" d="M147.709,39.317h-87.51c-11.53,0-20.85,9.33-20.85,20.85v91.685c0,2.875,2.33,5.205,5.205,5.205h18.92
				c2.875,0,5.205,2.33,5.205,5.205c0,2.875,2.33,5.205,5.205,5.205h7.59c2.875,0,5.205-2.331,5.205-5.205v-2.59
				c0-2.875,2.33-5.205,5.205-5.205h36.59c2.875,0,5.205,2.33,5.205,5.205v5.59c0,2.875,2.33,5.205,5.205,5.205h23.59
				c2.875,0,5.205-2.331,5.205-5.205v-14.59c0-2.875,2.33-5.205,5.205-5.205h21.76c2.875,0,5.205-2.331,5.205-5.205V91.447
				L147.709,39.317z"/>
		</g>
	</g>
	<g>
		<g>
			<path class="st0" d="M200.909,90.386l-52.14-52.13c-0.281-0.281-0.663-0.439-1.06-0.439h-34.858c-0.829,0-1.5,0.672-1.5,1.5
				s0.671,1.5,1.5,1.5h34.237l51.261,51.251v48.194c0,2.043-1.662,3.705-3.705,3.705h-21.76c-3.697,0-6.705,3.008-6.705,6.705v14.59
				c0,2.043-1.662,3.705-3.705,3.705h-23.59c-2.043,0-3.705-1.662-3.705-3.705v-5.59c0-3.697-3.008-6.705-6.705-6.705h-36.59
				c-3.697,0-6.705,3.008-6.705,6.705v2.59c0,2.043-1.662,3.705-3.705,3.705h-7.59c-2.043,0-3.705-1.662-3.705-3.705
				c0-3.697-3.008-6.705-6.705-6.705h-18.92c-2.043,0-3.705-1.662-3.705-3.705V60.167c0-10.67,8.681-19.351,19.35-19.351h39.976
				c0.829,0,1.5-0.672,1.5-1.5s-0.671-1.5-1.5-1.5H60.199c-12.324,0-22.35,10.026-22.35,22.351v91.685
				c0,3.697,3.008,6.705,6.705,6.705h18.92c2.043,0,3.705,1.662,3.705,3.705c0,3.697,3.008,6.705,6.705,6.705h7.59
				c3.697,0,6.705-3.008,6.705-6.705v-2.59c0-2.043,1.662-3.705,3.705-3.705h36.59c2.043,0,3.705,1.662,3.705,3.705v5.59
				c0,3.697,3.008,6.705,6.705,6.705h23.59c3.697,0,6.705-3.008,6.705-6.705v-14.59c0-2.043,1.662-3.705,3.705-3.705h21.76
				c3.697,0,6.705-3.008,6.705-6.705V91.446C201.349,91.049,201.19,90.667,200.909,90.386z"/>
		</g>
	</g>
	<g>
		<g>
			<path class="st11" d="M147.817,39.423V73.22c0,10.14,8.22,18.36,18.36,18.36h33.668v-0.129L147.817,39.423z"/>
		</g>
	</g>
	<g>
		<g>
			<path class="st0" d="M200.905,90.391l-52.028-52.027c-0.428-0.429-1.074-0.558-1.635-0.325s-0.926,0.779-0.926,1.386v33.797
				c0,10.951,8.909,19.86,19.86,19.86h33.668c0.829,0,1.5-0.672,1.5-1.5v-0.13C201.345,91.054,201.187,90.672,200.905,90.391z
				 M166.177,90.081c-9.297,0-16.86-7.563-16.86-16.86V43.045l47.036,47.036H166.177z"/>
		</g>
	</g>
	<g>
		<g>
			<path class="st10" d="M175.045,36.859c-0.1-10.45-8.69-18.96-19.15-18.97h-15c10.46,0.01,19.05,8.52,19.15,18.97l0.12,12.79
				l15.14,15.15L175.045,36.859z"/>
		</g>
	</g>
	<g>
		<g>
			<path class="st12" d="M54.775,166.967H40.52c-3.531,0-6.393,2.862-6.393,6.393v14.586c0,3.531,2.862,6.393,6.393,6.393h14.255
				c3.531,0,6.393-2.862,6.393-6.393v-14.586C61.168,169.829,58.306,166.967,54.775,166.967z"/>
		</g>
	</g>
	<g>
		<g>
			<path class="st0" d="M54.775,165.467H40.52c-4.352,0-7.893,3.541-7.893,7.893v14.586c0,4.352,3.541,7.893,7.893,7.893h14.255
				c4.352,0,7.893-3.541,7.893-7.893v-14.586C62.668,169.008,59.127,165.467,54.775,165.467z M59.668,187.945
				c0,2.698-2.195,4.893-4.893,4.893H40.52c-2.698,0-4.893-2.194-4.893-4.893v-14.586c0-2.698,2.195-4.893,4.893-4.893h14.255
				c2.698,0,4.893,2.194,4.893,4.893V187.945z"/>
		</g>
	</g>
	<g>
		<g>
			<path class="st2" d="M45.06,204.913H23.572c-3.531,0-6.393,2.862-6.393,6.393v21.908c0,3.531,2.862,6.393,6.393,6.393H45.06
				c3.531,0,6.393-2.862,6.393-6.393v-21.908C51.453,207.776,48.591,204.913,45.06,204.913z"/>
		</g>
	</g>
	<g>
		<g>
			<path class="st0" d="M45.06,203.413H23.572c-4.352,0-7.893,3.541-7.893,7.894v21.907c0,4.352,3.541,7.893,7.893,7.893H45.06
				c4.352,0,7.893-3.541,7.893-7.893v-21.907C52.953,206.954,49.413,203.413,45.06,203.413z M49.953,233.214
				c0,2.698-2.195,4.893-4.893,4.893H23.572c-2.698,0-4.893-2.194-4.893-4.893v-21.907c0-2.698,2.195-4.894,4.893-4.894H45.06
				c2.698,0,4.893,2.195,4.893,4.894V233.214z"/>
		</g>
	</g>
	<g>
		<g>
			<path class="st2" d="M119.992,162.942H98.503c-3.531,0-6.393,2.862-6.393,6.393v21.908c0,3.531,2.862,6.393,6.393,6.393h21.489
				c3.531,0,6.393-2.862,6.393-6.393v-21.908C126.385,165.804,123.522,162.942,119.992,162.942z"/>
		</g>
	</g>
	<g>
		<g>
			<path class="st0" d="M119.992,161.442H98.503c-4.352,0-7.893,3.541-7.893,7.893v21.908c0,4.352,3.541,7.893,7.893,7.893h21.489
				c4.352,0,7.893-3.541,7.893-7.893v-21.908C127.885,164.983,124.344,161.442,119.992,161.442z M124.885,191.243
				c0,2.698-2.195,4.893-4.893,4.893H98.503c-2.698,0-4.893-2.194-4.893-4.893v-21.908c0-2.698,2.195-4.893,4.893-4.893h21.489
				c2.698,0,4.893,2.194,4.893,4.893V191.243z"/>
		</g>
	</g>
	<g>
		<g>
			<path class="st11" d="M82.802,203.235H68.547c-3.531,0-6.393,2.862-6.393,6.393v14.586c0,3.531,2.862,6.393,6.393,6.393h14.255
				c3.531,0,6.393-2.862,6.393-6.393v-14.586C89.195,206.098,86.332,203.235,82.802,203.235z"/>
		</g>
	</g>
	<g>
		<g>
			<path class="st0" d="M82.802,201.735H68.546c-4.352,0-7.893,3.541-7.893,7.893v14.586c0,4.352,3.541,7.893,7.893,7.893h14.255
				c4.352,0,7.893-3.541,7.893-7.893v-14.586C90.694,205.276,87.154,201.735,82.802,201.735z M87.694,224.214
				c0,2.698-2.195,4.893-4.893,4.893H68.546c-2.698,0-4.893-2.194-4.893-4.893v-14.586c0-2.698,2.195-4.893,4.893-4.893h14.255
				c2.698,0,4.893,2.194,4.893,4.893V224.214z"/>
		</g>
	</g>
	<g>
		<g>
			<path class="st12" d="M158.828,175.967h-14.255c-3.531,0-6.393,2.862-6.393,6.393v14.586c0,3.531,2.862,6.393,6.393,6.393h14.255
				c3.531,0,6.393-2.862,6.393-6.393v-14.586C165.221,178.829,162.359,175.967,158.828,175.967z"/>
		</g>
	</g>
	<g>
		<g>
			<path class="st0" d="M158.828,174.467h-14.255c-4.352,0-7.893,3.541-7.893,7.893v14.586c0,4.352,3.541,7.893,7.893,7.893h14.255
				c4.352,0,7.893-3.541,7.893-7.893v-14.586C166.721,178.008,163.18,174.467,158.828,174.467z M163.721,196.945
				c0,2.698-2.195,4.893-4.893,4.893h-14.255c-2.698,0-4.893-2.194-4.893-4.893v-14.586c0-2.698,2.195-4.893,4.893-4.893h14.255
				c2.698,0,4.893,2.194,4.893,4.893V196.945z"/>
		</g>
	</g>
	<g>
		<g>
			<path class="st12" d="M130.923,204.913h-21.489c-3.531,0-6.393,2.862-6.393,6.393v21.908c0,3.531,2.862,6.393,6.393,6.393h21.489
				c3.531,0,6.393-2.862,6.393-6.393v-21.908C137.316,207.776,134.454,204.913,130.923,204.913z"/>
		</g>
	</g>
	<g>
		<g>
			<path class="st0" d="M130.923,203.413h-21.489c-4.352,0-7.893,3.541-7.893,7.894v21.907c0,4.352,3.541,7.893,7.893,7.893h21.489
				c4.352,0,7.893-3.541,7.893-7.893v-21.907C138.816,206.954,135.275,203.413,130.923,203.413z M135.816,233.214
				c0,2.698-2.195,4.893-4.893,4.893h-21.489c-2.698,0-4.893-2.194-4.893-4.893v-21.907c0-2.698,2.195-4.894,4.893-4.894h21.489
				c2.698,0,4.893,2.195,4.893,4.894V233.214z"/>
		</g>
	</g>
	<g>
		<g>
			<path class="st11" d="M185.855,212.235h-14.255c-3.531,0-6.393,2.862-6.393,6.393v14.586c0,3.531,2.862,6.393,6.393,6.393h14.255
				c3.531,0,6.393-2.862,6.393-6.393v-14.586C192.247,215.098,189.385,212.235,185.855,212.235z"/>
		</g>
	</g>
	<g>
		<g>
			<path class="st0" d="M185.854,210.735H171.6c-4.352,0-7.893,3.541-7.893,7.893v14.586c0,4.352,3.541,7.893,7.893,7.893h14.255
				c4.352,0,7.893-3.541,7.893-7.893v-14.586C193.748,214.276,190.206,210.735,185.854,210.735z M190.748,233.214
				c0,2.698-2.195,4.893-4.893,4.893H171.6c-2.698,0-4.893-2.194-4.893-4.893v-14.586c0-2.698,2.195-4.893,4.893-4.893h14.255
				c2.698,0,4.893,2.194,4.893,4.893V233.214z"/>
		</g>
	</g>
	<g>
		<g>
			<path class="st2" d="M210.786,154.942h-21.489c-3.531,0-6.393,2.862-6.393,6.393v21.908c0,3.531,2.862,6.393,6.393,6.393h21.489
				c3.531,0,6.393-2.862,6.393-6.393v-21.908C217.179,157.804,214.317,154.942,210.786,154.942z"/>
		</g>
	</g>
	<g>
		<g>
			<path class="st0" d="M210.786,153.442h-21.489c-4.352,0-7.893,3.541-7.893,7.893v21.908c0,4.352,3.541,7.893,7.893,7.893h21.489
				c4.352,0,7.893-3.541,7.893-7.893v-21.908C218.679,156.983,215.138,153.442,210.786,153.442z M215.679,183.243
				c0,2.698-2.195,4.893-4.893,4.893h-21.489c-2.698,0-4.893-2.194-4.893-4.893v-21.908c0-2.698,2.195-4.893,4.893-4.893h21.489
				c2.698,0,4.893,2.194,4.893,4.893V183.243z"/>
		</g>
	</g>
	<g>
		<g>
			<path class="st12" d="M232.786,204.913h-21.489c-3.531,0-6.393,2.862-6.393,6.393v21.908c0,3.531,2.862,6.393,6.393,6.393h21.489
				c3.531,0,6.393-2.862,6.393-6.393v-21.908C239.179,207.776,236.317,204.913,232.786,204.913z"/>
		</g>
	</g>
	<g>
		<g>
			<path class="st0" d="M232.786,203.413h-21.489c-4.352,0-7.893,3.541-7.893,7.894v21.907c0,4.352,3.541,7.893,7.893,7.893h21.489
				c4.352,0,7.893-3.541,7.893-7.893v-21.907C240.679,206.954,237.138,203.413,232.786,203.413z M237.679,233.214
				c0,2.698-2.195,4.893-4.893,4.893h-21.489c-2.698,0-4.893-2.194-4.893-4.893v-21.907c0-2.698,2.195-4.894,4.893-4.894h21.489
				c2.698,0,4.893,2.195,4.893,4.894V233.214z"/>
		</g>
	</g>
	<g>
		<g>
			<path class="st10" d="M172.889,146.967c-2.05,0-3.71,1.66-3.71,3.71v14.58c0,3.7-3.01,6.71-6.71,6.71h-2.12v2.65
				c3.62,0.71,6.37,3.91,6.37,7.74v14.59c0,4.35-3.54,7.89-7.89,7.89h-0.68c-3.2,6.1-9.6,10.27-16.96,10.27h15
				c10.56,0,19.16-8.59,19.16-19.16v-48.98H172.889z"/>
		</g>
	</g>
	<g>
		<g>
			<path class="st22" d="M183.349,93.076v47.18c0,2.05-1.66,3.71-3.71,3.71h15c2.05,0,3.71-1.66,3.71-3.71v-47.18H183.349z"/>
		</g>
	</g>
</g>
</svg>
