<?xml version="1.0" encoding="utf-8"?>
<!-- Generator: Adobe Illustrator 22.0.1, SVG Export Plug-In . SVG Version: 6.00 Build 0)  -->
<svg version="1.1" id="Layer_1" xmlns="http://www.w3.org/2000/svg" xmlns:xlink="http://www.w3.org/1999/xlink" x="0px" y="0px"
	 viewBox="0 0 256 256" style="enable-background:new 0 0 256 256;" xml:space="preserve">
<style type="text/css">
	.st0{fill:#3A312A;}
	.st1{fill:#F16C7A;}
	.st2{fill:#D7E057;}
	.st3{fill:#F8E4C8;}
	.st4{fill:#89C4DB;}
	.st5{fill-rule:evenodd;clip-rule:evenodd;fill:#F8E4C8;}
	.st6{fill:#87796F;}
	.st7{fill:#D4DB56;}
	.st8{fill:#F59689;}
	.st9{fill:#6CA6BE;}
	.st10{fill:#695B51;}
	.st11{fill:#F7E3C7;}
	.st12{fill:#8AC6DD;}
	.st13{fill:#6CA8BF;}
	.st14{fill:#D6DF58;}
	.st15{fill:#FAE6CA;}
	.st16{fill:#EF6D7A;}
	.st17{fill:#DDC9AC;}
	.st18{fill:#D24E5C;}
	.st19{fill:#6A5C52;}
	.st20{fill:#B9C239;}
	.st21{fill:#FCE8CB;}
	.st22{fill:#DECAAD;}
	.st23{fill:#D5DE58;}
	.st24{fill:#8AC5DC;}
	.st25{fill:#D34E5C;}
	.st26{fill:#ED6E7A;}
	.st27{fill:#B8C136;}
</style>
<g>
	<g>
		<g>
			<path class="st14" d="M47.942,26.092c-0.974,11.564-13.025,13.39-13.025,13.39C45.264,39.968,47.842,53.54,47.842,53.54
				c0.221-9.677,13.321-14.202,13.321-14.202C51.35,38.751,47.942,26.092,47.942,26.092z"/>
		</g>
	</g>
	<g>
		<g>
			<path class="st0" d="M61.253,37.84C52.648,37.326,49.421,25.816,49.39,25.7c-0.19-0.702-0.847-1.16-1.584-1.102
				c-0.725,0.066-1.298,0.642-1.359,1.367c-0.859,10.215-11.313,11.963-11.754,12.032c-0.763,0.115-1.313,0.79-1.273,1.561
				c0.04,0.77,0.657,1.384,1.428,1.421c9.028,0.425,11.499,12.719,11.522,12.843c0.138,0.711,0.76,1.217,1.473,1.217
				c0.042,0,0.084-0.001,0.126-0.005c0.765-0.064,1.357-0.693,1.375-1.459c0.193-8.509,12.19-12.777,12.312-12.819
				c0.676-0.235,1.092-0.914,0.994-1.623C62.55,38.424,61.967,37.883,61.253,37.84z M47.688,48.187
				c-1.356-3.13-3.709-6.908-7.587-8.877c2.931-1.404,6.408-3.913,8.201-8.272c1.551,3.071,4.2,6.88,8.334,8.722
				C53.629,41.399,49.714,44.165,47.688,48.187z"/>
		</g>
	</g>
	<g>
		<g>
			<path class="st14" d="M26.243,43.072c-0.689,8.179-9.213,9.471-9.213,9.471c7.318,0.344,9.142,9.944,9.142,9.944
				c0.156-6.844,9.422-10.045,9.422-10.045C28.654,52.026,26.243,43.072,26.243,43.072z"/>
		</g>
	</g>
	<g>
		<g>
			<path class="st0" d="M35.685,50.944c-5.744-0.343-7.955-8.125-7.993-8.263c-0.19-0.704-0.868-1.167-1.582-1.103
				c-0.726,0.065-1.3,0.642-1.361,1.368c-0.579,6.871-7.646,8.067-7.942,8.114c-0.763,0.115-1.313,0.79-1.273,1.561
				c0.04,0.77,0.657,1.384,1.428,1.421c6.035,0.284,7.724,8.644,7.739,8.726c0.136,0.712,0.759,1.22,1.473,1.22
				c0.041,0,0.083-0.001,0.125-0.005c0.765-0.063,1.358-0.694,1.376-1.461c0.13-5.709,8.331-8.634,8.412-8.662
				c0.676-0.234,1.093-0.913,0.996-1.622C36.983,51.528,36.398,50.987,35.685,50.944z M26.1,57.739
				c-0.924-1.886-2.34-3.947-4.447-5.28c1.855-1.041,3.697-2.63,4.871-4.916c1.057,1.874,2.654,3.955,4.941,5.224
				C29.615,53.867,27.476,55.507,26.1,57.739z"/>
		</g>
	</g>
	<g>
		<g>
			<path class="st14" d="M26.243,16.415c-0.689,8.179-9.213,9.471-9.213,9.471c7.318,0.344,9.142,9.944,9.142,9.944
				c0.156-6.845,9.422-10.045,9.422-10.045C28.654,25.368,26.243,16.415,26.243,16.415z"/>
		</g>
	</g>
	<g>
		<g>
			<path class="st0" d="M35.685,24.287c-5.767-0.345-7.972-8.186-7.993-8.265c-0.19-0.702-0.864-1.161-1.582-1.102
				c-0.726,0.065-1.3,0.642-1.361,1.368c-0.579,6.871-7.646,8.067-7.942,8.114c-0.763,0.115-1.313,0.79-1.273,1.561
				c0.04,0.77,0.657,1.384,1.428,1.421c6.035,0.284,7.724,8.644,7.739,8.726c0.136,0.713,0.759,1.22,1.473,1.22
				c0.041,0,0.083-0.001,0.125-0.005c0.765-0.063,1.358-0.694,1.376-1.461c0.13-5.709,8.331-8.634,8.412-8.662
				c0.676-0.234,1.093-0.913,0.996-1.622C36.983,24.871,36.398,24.33,35.685,24.287z M26.1,31.082
				c-0.924-1.885-2.34-3.947-4.447-5.28c1.855-1.041,3.697-2.63,4.871-4.917c1.057,1.874,2.654,3.955,4.941,5.224
				C29.615,27.21,27.476,28.849,26.1,31.082z"/>
		</g>
	</g>
	<g>
		<g>
			<path class="st21" d="M16.4,98.458v125.667c0,8.495,6.887,15.382,15.382,15.382h192.236c8.495,0,15.382-6.887,15.382-15.382
				V98.458H16.4z"/>
		</g>
	</g>
	<g>
		<g>
			<path class="st0" d="M239.4,96.958h-223c-0.828,0-1.5,0.671-1.5,1.5v35.783c0,0.829,0.672,1.5,1.5,1.5c0.828,0,1.5-0.671,1.5-1.5
				V99.958h220v124.167c0,7.654-6.228,13.882-13.882,13.882H31.782c-7.654,0-13.882-6.228-13.882-13.882v-76.623
				c0-0.829-0.672-1.5-1.5-1.5c-0.828,0-1.5,0.671-1.5,1.5v76.623c0,9.309,7.573,16.882,16.882,16.882h192.236
				c9.309,0,16.882-7.573,16.882-16.882V98.458C240.9,97.629,240.229,96.958,239.4,96.958z"/>
		</g>
	</g>
	<g>
		<g>
			<path class="st6" d="M224.018,68.791H31.782c-8.495,0-15.382,6.887-15.382,15.382v14.285h223V84.173
				C239.4,75.678,232.513,68.791,224.018,68.791z"/>
		</g>
	</g>
	<g>
		<g>
			<path class="st0" d="M224.019,67.291h-75.218c-0.828,0-1.5,0.671-1.5,1.5s0.672,1.5,1.5,1.5h75.218
				c7.654,0,13.882,6.228,13.882,13.882v12.785h-220V84.173c0-7.654,6.227-13.882,13.882-13.882H136c0.828,0,1.5-0.671,1.5-1.5
				s-0.672-1.5-1.5-1.5H31.782c-9.309,0-16.882,7.573-16.882,16.882v14.285c0,0.829,0.672,1.5,1.5,1.5h223
				c0.828,0,1.5-0.671,1.5-1.5V84.173C240.9,74.864,233.327,67.291,224.019,67.291z"/>
		</g>
	</g>
	<g>
		<g>
			<circle class="st1" cx="36.9" cy="83.791" r="6.75"/>
		</g>
	</g>
	<g>
		<g>
			<path class="st0" d="M36.9,75.541c-4.549,0-8.25,3.701-8.25,8.25s3.701,8.25,8.25,8.25c4.549,0,8.25-3.701,8.25-8.25
				S41.449,75.541,36.9,75.541z M36.9,89.041c-2.895,0-5.25-2.355-5.25-5.25s2.355-5.25,5.25-5.25c2.894,0,5.25,2.355,5.25,5.25
				S39.795,89.041,36.9,89.041z"/>
		</g>
	</g>
	<g>
		<g>
			<circle class="st2" cx="65.15" cy="83.791" r="6.75"/>
		</g>
	</g>
	<g>
		<g>
			<path class="st0" d="M65.15,75.541c-4.549,0-8.25,3.701-8.25,8.25s3.701,8.25,8.25,8.25c4.549,0,8.25-3.701,8.25-8.25
				S69.699,75.541,65.15,75.541z M65.15,89.041c-2.895,0-5.25-2.355-5.25-5.25s2.355-5.25,5.25-5.25c2.894,0,5.25,2.355,5.25,5.25
				S68.045,89.041,65.15,89.041z"/>
		</g>
	</g>
	<g>
		<g>
			<circle class="st12" cx="93.4" cy="83.791" r="6.75"/>
		</g>
	</g>
	<g>
		<g>
			<path class="st0" d="M93.4,75.541c-4.549,0-8.25,3.701-8.25,8.25s3.701,8.25,8.25,8.25c4.549,0,8.25-3.701,8.25-8.25
				S97.949,75.541,93.4,75.541z M93.4,89.041c-2.895,0-5.25-2.355-5.25-5.25s2.355-5.25,5.25-5.25c2.894,0,5.25,2.355,5.25,5.25
				S96.295,89.041,93.4,89.041z"/>
		</g>
	</g>
	<g>
		<g>
			<path class="st2" d="M236.4,44.388h-1.382c-0.81-3.541-2.222-6.853-4.124-9.822l1.017-1.017c1.172-1.172,1.172-3.071,0-4.243
				l-5.402-5.402c-1.172-1.172-3.072-1.172-4.243,0l-1.055,1.055c-2.962-1.866-6.26-3.247-9.783-4.033v-1.511c0-1.657-1.343-3-3-3
				h-7.64c-1.657,0-3,1.343-3,3v1.511c-1.867,0.503-6.821,2.167-9.783,4.033l-1.055-1.055c-1.172-1.172-3.071-1.172-4.243,0
				l-5.402,5.402c-1.172,1.172-1.172,3.071,0,4.243l1.017,1.017c-1.902,2.968-3.314,6.28-4.124,9.822h-1.382c-1.657,0-3,1.343-3,3
				v7.64c0,1.657,1.343,3,3,3h1.31c0.779,3.585,2.174,6.94,4.069,9.948l-0.89,0.89c-1.172,1.172-1.172,3.071,0,4.243l5.402,5.402
				c1.172,1.172,3.072,1.172,4.243,0l0.852-0.852c3.014,1.931,6.383,3.356,9.987,4.16v1.181c0,1.657,1.343,3,3,3h7.64
				c1.657,0,3-1.343,3-3V81.82c3.603-0.804,6.972-2.229,9.987-4.16l0.852,0.852c1.172,1.172,3.071,1.172,4.243,0l5.402-5.402
				c1.172-1.172,1.172-3.072,0-4.243l-0.89-0.89c1.895-3.009,3.29-6.363,4.069-9.948h1.31c1.657,0,3-1.343,3-3v-7.64
				C239.4,45.731,238.057,44.388,236.4,44.388z M204.607,66.806c-8.615,0-15.598-6.984-15.598-15.598
				c0-8.615,6.984-15.598,15.598-15.598c8.615,0,15.598,6.983,15.598,15.598C220.205,59.823,213.222,66.806,204.607,66.806z"/>
		</g>
	</g>
	<g>
		<g>
			<path class="st0" d="M236.4,42.888h-0.21c-0.761-2.844-1.9-5.559-3.398-8.098l0.179-0.179c0.851-0.85,1.318-1.98,1.318-3.183
				c0-1.202-0.468-2.332-1.318-3.182l-5.401-5.402c-1.754-1.754-4.61-1.755-6.364,0l-0.225,0.225
				c-2.53-1.468-5.229-2.581-8.054-3.321v-0.332c0-2.481-2.019-4.5-4.5-4.5h-7.64c-2.481,0-4.5,2.019-4.5,4.5v0.389
				c-1.961,0.609-5.375,1.813-8.042,3.276l-0.236-0.236c-1.755-1.756-4.611-1.754-6.364,0l-5.401,5.402
				c-0.851,0.85-1.318,1.98-1.318,3.182c0,1.203,0.468,2.333,1.318,3.182l0.179,0.18c-1.498,2.54-2.638,5.254-3.398,8.098h-0.209
				c-2.481,0-4.501,2.019-4.501,4.5v7.64c0,2.481,2.02,4.5,4.501,4.5h0.124c0.739,2.884,1.867,5.64,3.363,8.219l-0.059,0.059
				c-1.755,1.754-1.755,4.61,0,6.364l5.401,5.402c1.754,1.755,4.61,1.753,6.364,0l0.015-0.014c2.589,1.527,5.358,2.681,8.264,3.442
				v0.001c0,2.481,2.019,4.5,4.5,4.5h7.64c2.481,0,4.5-2.019,4.5-4.5V83c2.905-0.761,5.675-1.915,8.264-3.442l0.015,0.014
				c1.754,1.755,4.61,1.753,6.364,0l5.401-5.402c1.755-1.754,1.755-4.61,0-6.364l-0.059-0.059c1.496-2.579,2.624-5.334,3.363-8.219
				h0.125c2.481,0,4.5-2.019,4.5-4.5v-7.64C240.9,44.907,238.882,42.888,236.4,42.888z M237.9,55.028c0,0.827-0.673,1.5-1.5,1.5
				h-1.311c-0.706,0-1.315,0.492-1.466,1.181c-0.731,3.365-2.034,6.55-3.873,9.467c-0.373,0.593-0.286,1.365,0.209,1.86l0.89,0.89
				c0.585,0.585,0.585,1.537,0,2.122l-5.401,5.402c-0.588,0.585-1.538,0.583-2.122,0l-0.852-0.852
				c-0.496-0.497-1.273-0.583-1.87-0.203c-2.923,1.873-6.12,3.205-9.504,3.959c-0.687,0.153-1.174,0.761-1.174,1.464v1.181
				c0,0.827-0.673,1.5-1.5,1.5h-7.64c-0.827,0-1.5-0.673-1.5-1.5V81.82c0-0.703-0.487-1.311-1.174-1.464
				c-3.384-0.755-6.581-2.087-9.504-3.959c-0.249-0.159-0.53-0.237-0.809-0.237c-0.388,0-0.772,0.15-1.062,0.439l-0.852,0.852
				c-0.585,0.584-1.535,0.586-2.122,0l-5.401-5.402c-0.585-0.585-0.585-1.537,0-2.122l0.89-0.89c0.495-0.496,0.582-1.268,0.209-1.86
				c-1.839-2.917-3.142-6.103-3.873-9.467c-0.15-0.689-0.76-1.181-1.466-1.181h-1.31c-0.828,0-1.501-0.673-1.501-1.5v-7.64
				c0-0.827,0.673-1.5,1.501-1.5h1.382c0.699,0,1.307-0.484,1.462-1.166c0.76-3.324,2.081-6.469,3.925-9.346
				c0.381-0.594,0.297-1.372-0.202-1.87l-1.017-1.018c-0.283-0.283-0.439-0.66-0.439-1.061c0-0.4,0.156-0.777,0.439-1.061
				l5.401-5.402c0.587-0.586,1.537-0.585,2.122,0l1.056,1.055c0.496,0.494,1.268,0.582,1.86,0.208
				c2.784-1.754,7.518-3.354,9.373-3.854c0.655-0.176,1.11-0.77,1.11-1.448v-1.511c0-0.827,0.673-1.5,1.5-1.5h7.64
				c0.827,0,1.5,0.673,1.5,1.5v1.511c0,0.703,0.487,1.311,1.174,1.464c3.305,0.737,6.438,2.028,9.31,3.838
				c0.593,0.374,1.364,0.286,1.86-0.208l1.056-1.056c0.585-0.584,1.535-0.586,2.122,0l5.401,5.402
				c0.283,0.284,0.439,0.661,0.439,1.061c0,0.401-0.156,0.777-0.439,1.061l-1.017,1.017c-0.499,0.499-0.583,1.276-0.202,1.87
				c1.844,2.877,3.165,6.022,3.925,9.346c0.155,0.682,0.763,1.166,1.462,1.166h1.383c0.827,0,1.5,0.673,1.5,1.5V55.028z
				 M204.606,34.109c-9.428,0-17.098,7.67-17.098,17.099c0,9.428,7.67,17.098,17.098,17.098s17.099-7.67,17.099-17.098
				C221.705,41.78,214.034,34.109,204.606,34.109z M204.606,65.306c-7.773,0-14.098-6.324-14.098-14.098s6.324-14.099,14.098-14.099
				c7.774,0,14.099,6.325,14.099,14.099S212.381,65.306,204.606,65.306z"/>
		</g>
	</g>
	<g>
		<g>
			<rect x="102.72" y="122.961" class="st1" width="50.36" height="23.29"/>
		</g>
	</g>
	<g>
		<g>
			<path class="st0" d="M153.08,121.461h-50.359c-0.828,0-1.5,0.671-1.5,1.5v23.29c0,0.829,0.672,1.5,1.5,1.5h50.359
				c0.828,0,1.5-0.671,1.5-1.5v-23.29C154.58,122.132,153.908,121.461,153.08,121.461z M151.58,144.75h-47.359v-20.29h47.359V144.75
				z"/>
		</g>
	</g>
	<g>
		<g>
			<rect x="102.72" y="146.25" class="st12" width="50.36" height="0"/>
		</g>
	</g>
	<g>
		<g>
			<path class="st0" d="M153.08,144.75h-50.359c-0.828,0-1.5,0.671-1.5,1.5s0.672,1.5,1.5,1.5h50.359c0.828,0,1.5-0.671,1.5-1.5
				S153.908,144.75,153.08,144.75z"/>
		</g>
	</g>
	<g>
		<g>
			<rect x="102.72" y="146.251" class="st12" width="50.36" height="23.14"/>
		</g>
	</g>
	<g>
		<g>
			<path class="st0" d="M153.08,144.75h-50.359c-0.828,0-1.5,0.671-1.5,1.5v23.14c0,0.829,0.672,1.5,1.5,1.5h50.359
				c0.828,0,1.5-0.671,1.5-1.5v-23.14C154.58,145.422,153.908,144.75,153.08,144.75z M151.58,167.891h-47.359v-20.14h47.359V167.891
				z"/>
		</g>
	</g>
	<g>
		<g>
			<rect x="102.72" y="169.391" class="st2" width="50.36" height="23.14"/>
		</g>
	</g>
	<g>
		<g>
			<path class="st0" d="M153.08,167.891h-50.359c-0.828,0-1.5,0.671-1.5,1.5v23.14c0,0.829,0.672,1.5,1.5,1.5h50.359
				c0.828,0,1.5-0.671,1.5-1.5v-23.14C154.58,168.562,153.908,167.891,153.08,167.891z M151.58,191.031h-47.359v-20.14h47.359
				V191.031z"/>
		</g>
	</g>
	<g>
		<g>
			<path class="st1" d="M153.08,192.531v23.14h43.346c4.067,0,7.364-3.297,7.364-7.364v-15.776H153.08z"/>
		</g>
	</g>
	<g>
		<g>
			<path class="st0" d="M203.79,191.031h-50.71c-0.828,0-1.5,0.671-1.5,1.5v23.14c0,0.829,0.672,1.5,1.5,1.5h43.347
				c4.888,0,8.863-3.977,8.863-8.864v-15.776C205.29,191.702,204.618,191.031,203.79,191.031z M202.29,208.307
				c0,3.233-2.63,5.864-5.863,5.864H154.58v-20.14h47.71V208.307z"/>
		</g>
	</g>
	<g>
		<g>
			<rect x="153.08" y="146.251" class="st1" width="50.71" height="23.14"/>
		</g>
	</g>
	<g>
		<g>
			<path class="st0" d="M203.79,144.75h-50.71c-0.828,0-1.5,0.671-1.5,1.5v23.14c0,0.829,0.672,1.5,1.5,1.5h50.71
				c0.828,0,1.5-0.671,1.5-1.5v-23.14C205.29,145.422,204.618,144.75,203.79,144.75z M202.29,167.891h-47.71v-20.14h47.71V167.891z"
				/>
		</g>
	</g>
	<g>
		<g>
			<rect x="153.08" y="169.391" class="st12" width="50.71" height="23.14"/>
		</g>
	</g>
	<g>
		<g>
			<path class="st0" d="M203.79,167.891h-50.71c-0.828,0-1.5,0.671-1.5,1.5v23.14c0,0.829,0.672,1.5,1.5,1.5h50.71
				c0.828,0,1.5-0.671,1.5-1.5v-23.14C205.29,168.562,204.618,167.891,203.79,167.891z M202.29,191.031h-47.71v-20.14h47.71V191.031
				z"/>
		</g>
	</g>
	<g>
		<g>
			<path class="st2" d="M59.5,122.961c-4.13,0-7.49,3.35-7.49,7.49v15.8h50.71v-23.29H59.5z"/>
		</g>
	</g>
	<g>
		<g>
			<path class="st0" d="M102.721,121.461H59.5c-4.957,0-8.99,4.033-8.99,8.99v15.8c0,0.829,0.672,1.5,1.5,1.5h50.711
				c0.828,0,1.5-0.671,1.5-1.5v-23.29C104.221,122.132,103.549,121.461,102.721,121.461z M101.221,144.75H53.51v-14.3
				c0-3.303,2.688-5.99,5.99-5.99h41.721V144.75z"/>
		</g>
	</g>
	<g>
		<g>
			<rect x="102.72" y="192.531" class="st12" width="50.36" height="23.14"/>
		</g>
	</g>
	<g>
		<g>
			<path class="st0" d="M153.08,191.031h-50.359c-0.828,0-1.5,0.671-1.5,1.5v23.14c0,0.829,0.672,1.5,1.5,1.5h50.359
				c0.828,0,1.5-0.671,1.5-1.5v-23.14C154.58,191.702,153.908,191.031,153.08,191.031z M151.58,214.171h-47.359v-20.14h47.359
				V214.171z"/>
		</g>
	</g>
	<g>
		<g>
			<path class="st2" d="M196.3,122.961h-43.22v23.29h50.71v-15.8C203.79,126.311,200.43,122.961,196.3,122.961z"/>
		</g>
	</g>
	<g>
		<g>
			<path class="st0" d="M196.3,121.461h-43.22c-0.828,0-1.5,0.671-1.5,1.5v23.29c0,0.829,0.672,1.5,1.5,1.5h50.71
				c0.828,0,1.5-0.671,1.5-1.5v-15.8C205.29,125.494,201.257,121.461,196.3,121.461z M202.29,144.75h-47.71v-20.29h41.72
				c3.303,0,5.99,2.687,5.99,5.99V144.75z"/>
		</g>
	</g>
	<g>
		<g>
			<path class="st1" d="M52.01,192.531v15.776c0,4.067,3.297,7.364,7.364,7.364h43.346v-23.14H52.01z"/>
		</g>
	</g>
	<g>
		<g>
			<path class="st0" d="M102.721,191.031H52.01c-0.828,0-1.5,0.671-1.5,1.5v15.776c0,4.888,3.977,8.864,8.864,8.864h43.347
				c0.828,0,1.5-0.671,1.5-1.5v-23.14C104.221,191.702,103.549,191.031,102.721,191.031z M101.221,214.171H59.374
				c-3.233,0-5.864-2.631-5.864-5.864v-14.276h47.711V214.171z"/>
		</g>
	</g>
	<g>
		<g>
			<rect x="52.01" y="169.391" class="st12" width="50.71" height="23.14"/>
		</g>
	</g>
	<g>
		<g>
			<path class="st0" d="M102.721,167.891H52.01c-0.828,0-1.5,0.671-1.5,1.5v23.14c0,0.829,0.672,1.5,1.5,1.5h50.711
				c0.828,0,1.5-0.671,1.5-1.5v-23.14C104.221,168.562,103.549,167.891,102.721,167.891z M101.221,191.031H53.51v-20.14h47.711
				V191.031z"/>
		</g>
	</g>
	<g>
		<g>
			<rect x="52.01" y="146.251" class="st1" width="50.71" height="23.14"/>
		</g>
	</g>
	<g>
		<g>
			<path class="st0" d="M102.721,144.75H52.01c-0.828,0-1.5,0.671-1.5,1.5v23.14c0,0.829,0.672,1.5,1.5,1.5h50.711
				c0.828,0,1.5-0.671,1.5-1.5v-23.14C104.221,145.422,103.549,144.75,102.721,144.75z M101.221,167.891H53.51v-20.14h47.711
				V167.891z"/>
		</g>
	</g>
	<g>
		<g>
			<path class="st22" d="M224.4,99.961v124.16c0,6.12-3.58,11.41-8.76,13.89h8.38c7.65,0,13.88-6.23,13.88-13.89V99.961H224.4z"/>
		</g>
	</g>
	<g>
		<g>
			<path class="st10" d="M233.25,73.831c-0.09,0.11-0.17,0.23-0.28,0.34l-5.4,5.4c-0.96,0.97-2.26,1.4-3.53,1.3
				c0.24,1.06,0.36,2.17,0.36,3.3v12.79h13.5v-12.79C237.9,80.061,236.09,76.381,233.25,73.831z"/>
		</g>
	</g>
</g>
</svg>
