<?xml version="1.0" encoding="utf-8"?>
<!-- Generator: Adobe Illustrator 22.0.1, SVG Export Plug-In . SVG Version: 6.00 Build 0)  -->
<svg version="1.1" id="Layer_1" xmlns="http://www.w3.org/2000/svg" xmlns:xlink="http://www.w3.org/1999/xlink" x="0px" y="0px"
	 viewBox="0 0 256 256" style="enable-background:new 0 0 256 256;" xml:space="preserve">
<style type="text/css">
	.st0{fill:#3A312A;}
	.st1{fill:#F16C7A;}
	.st2{fill:#D7E057;}
	.st3{fill:#F8E4C8;}
	.st4{fill:#89C4DB;}
	.st5{fill-rule:evenodd;clip-rule:evenodd;fill:#F8E4C8;}
	.st6{fill:#87796F;}
	.st7{fill:#D4DB56;}
	.st8{fill:#F59689;}
	.st9{fill:#6CA6BE;}
	.st10{fill:#695B51;}
	.st11{fill:#F7E3C7;}
	.st12{fill:#8AC6DD;}
	.st13{fill:#6CA8BF;}
	.st14{fill:#D6DF58;}
	.st15{fill:#FAE6CA;}
	.st16{fill:#EF6D7A;}
	.st17{fill:#DDC9AC;}
	.st18{fill:#D24E5C;}
	.st19{fill:#6A5C52;}
	.st20{fill:#B9C239;}
	.st21{fill:#FCE8CB;}
	.st22{fill:#DECAAD;}
	.st23{fill:#D5DE58;}
	.st24{fill:#8AC5DC;}
	.st25{fill:#D34E5C;}
	.st26{fill:#ED6E7A;}
	.st27{fill:#B8C136;}
</style>
<g>
	<g>
		<g>
			<path class="st2" d="M226.285,26.196c-0.974,11.564-13.025,13.389-13.025,13.389c10.347,0.487,12.925,14.059,12.925,14.059
				c0.221-9.677,13.321-14.202,13.321-14.202C229.693,38.855,226.285,26.196,226.285,26.196z"/>
		</g>
	</g>
	<g>
		<g>
			<path class="st0" d="M239.597,37.945c-8.605-0.516-11.832-12.025-11.864-12.142c-0.191-0.703-0.866-1.167-1.583-1.102
				c-0.725,0.066-1.298,0.642-1.359,1.367c-0.86,10.216-11.313,11.964-11.754,12.032c-0.763,0.116-1.313,0.791-1.273,1.561
				c0.04,0.771,0.657,1.385,1.427,1.421c9.028,0.426,11.499,12.719,11.523,12.843c0.137,0.712,0.759,1.218,1.472,1.218
				c0.042,0,0.084-0.002,0.126-0.005c0.764-0.064,1.357-0.693,1.375-1.46c0.195-8.509,12.192-12.777,12.313-12.819
				c0.675-0.234,1.092-0.914,0.994-1.622C240.894,38.529,240.31,37.988,239.597,37.945z M226.03,48.291
				c-1.357-3.131-3.708-6.908-7.586-8.877c2.931-1.405,6.409-3.913,8.202-8.273c1.551,3.071,4.2,6.881,8.334,8.723
				C231.972,41.504,228.057,44.27,226.03,48.291z"/>
		</g>
	</g>
	<g>
		<g>
			<path class="st2" d="M204.586,43.176c-0.689,8.179-9.212,9.47-9.212,9.47c7.318,0.344,9.142,9.944,9.142,9.944
				c0.156-6.844,9.422-10.045,9.422-10.045C206.997,52.13,204.586,43.176,204.586,43.176z"/>
		</g>
	</g>
	<g>
		<g>
			<path class="st0" d="M214.028,51.049c-5.767-0.346-7.973-8.186-7.994-8.265c-0.19-0.702-0.858-1.166-1.582-1.102
				c-0.726,0.065-1.299,0.643-1.36,1.368c-0.579,6.87-7.646,8.065-7.942,8.112c-0.763,0.116-1.313,0.791-1.273,1.561
				c0.04,0.771,0.657,1.385,1.427,1.421c6.036,0.284,7.724,8.645,7.739,8.727c0.135,0.712,0.759,1.22,1.472,1.22
				c0.042,0,0.083-0.002,0.125-0.005c0.765-0.063,1.358-0.693,1.376-1.461c0.13-5.709,8.332-8.633,8.413-8.661
				c0.676-0.233,1.094-0.913,0.996-1.622C215.327,51.633,214.743,51.092,214.028,51.049z M204.443,57.843
				c-0.924-1.886-2.34-3.947-4.447-5.279c1.856-1.041,3.697-2.63,4.87-4.916c1.057,1.873,2.655,3.954,4.941,5.224
				C207.958,53.972,205.819,55.61,204.443,57.843z"/>
		</g>
	</g>
	<g>
		<g>
			<path class="st2" d="M204.586,16.519c-0.689,8.179-9.212,9.471-9.212,9.471c7.318,0.344,9.142,9.944,9.142,9.944
				c0.156-6.844,9.422-10.045,9.422-10.045C206.997,25.473,204.586,16.519,204.586,16.519z"/>
		</g>
	</g>
	<g>
		<g>
			<path class="st0" d="M214.028,24.392c-5.767-0.346-7.973-8.187-7.994-8.266c-0.19-0.702-0.857-1.175-1.582-1.102
				c-0.726,0.065-1.299,0.643-1.36,1.368c-0.579,6.871-7.646,8.066-7.942,8.113c-0.763,0.116-1.313,0.791-1.273,1.561
				c0.04,0.771,0.657,1.385,1.427,1.421c6.036,0.284,7.724,8.645,7.739,8.727c0.135,0.712,0.759,1.22,1.472,1.22
				c0.042,0,0.083-0.002,0.125-0.005c0.765-0.063,1.358-0.693,1.376-1.461c0.13-5.709,8.332-8.633,8.413-8.661
				c0.676-0.233,1.094-0.913,0.996-1.622C215.327,24.976,214.743,24.435,214.028,24.392z M204.443,31.186
				c-0.924-1.886-2.34-3.947-4.447-5.279c1.856-1.041,3.697-2.63,4.871-4.917c1.057,1.874,2.655,3.955,4.941,5.225
				C207.958,27.314,205.819,28.953,204.443,31.186z"/>
		</g>
	</g>
	<g>
		<g>
			<path class="st1" d="M176.703,36.945c-0.109-11.326-9.318-20.453-20.645-20.459L37.175,16.425
				c-11.413-0.006-20.668,9.244-20.668,20.657v158.966c0,11.409,9.248,20.657,20.657,20.657H156.35
				c11.408,0,20.657-9.249,20.657-20.657V68.55L176.703,36.945z"/>
		</g>
	</g>
	<g>
		<g>
			<path class="st0" d="M178.203,36.931c-0.116-12.094-10.05-21.938-22.144-21.944L37.176,14.925h-0.012
				c-5.916,0-11.479,2.303-15.664,6.485c-4.188,4.186-6.494,9.751-6.494,15.672v38.957c0,0.828,0.671,1.5,1.5,1.5
				c0.829,0,1.5-0.672,1.5-1.5V37.082c0-5.119,1.994-9.931,5.615-13.55c3.621-3.618,8.402-5.637,13.552-5.607l118.883,0.062
				c10.457,0.006,19.046,8.517,19.146,18.974l0.304,31.59v127.498c0,10.563-8.594,19.157-19.157,19.157H37.164
				c-10.564,0-19.157-8.594-19.157-19.157V89.288c0-0.828-0.671-1.5-1.5-1.5c-0.829,0-1.5,0.672-1.5,1.5v106.76
				c0,12.218,9.94,22.157,22.157,22.157H156.35c12.217,0,22.157-9.939,22.157-22.157V68.535L178.203,36.931z"/>
		</g>
	</g>
	<g>
		<g>
			<path class="st11" d="M147.872,39.414h-87.51c-11.526,0-20.854,9.328-20.854,20.854v158.583c0,11.526,9.328,20.854,20.854,20.854
				h118.792c11.526,0,20.854-9.328,20.854-20.854V91.55L147.872,39.414z"/>
		</g>
	</g>
	<g>
		<g>
			<path class="st0" d="M201.067,90.489l-52.135-52.136c-0.281-0.281-0.663-0.439-1.06-0.439H60.361
				c-12.326,0-22.354,10.028-22.354,22.354v158.582c0,12.326,10.028,22.354,22.354,22.354h55.775c0.829,0,1.5-0.672,1.5-1.5
				s-0.671-1.5-1.5-1.5H60.361c-10.672,0-19.354-8.683-19.354-19.354V60.269c0-10.672,8.682-19.354,19.354-19.354h86.89
				l51.256,51.257v126.68c0,10.672-8.682,19.354-19.354,19.354h-50.275c-0.829,0-1.5,0.672-1.5,1.5s0.671,1.5,1.5,1.5h50.275
				c12.326,0,22.354-10.028,22.354-22.354V91.55C201.507,91.152,201.349,90.771,201.067,90.489z"/>
		</g>
	</g>
	<g>
		<g>
			<path class="st11" d="M147.979,39.522v33.797c0,10.14,8.22,18.36,18.36,18.36h33.668V91.55L147.979,39.522z"/>
		</g>
	</g>
	<g>
		<g>
			<path class="st0" d="M201.067,90.489L149.04,38.461c-0.428-0.43-1.073-0.559-1.635-0.325c-0.561,0.232-0.926,0.779-0.926,1.386
				v33.797c0,10.951,8.909,19.86,19.86,19.86h33.667c0.829,0,1.5-0.672,1.5-1.5V91.55C201.507,91.152,201.349,90.771,201.067,90.489
				z M166.339,90.179c-9.297,0-16.86-7.563-16.86-16.86V43.143l47.036,47.036H166.339z"/>
		</g>
	</g>
	<g>
		<g>
			<path class="st25" d="M175.207,36.957c-0.1-10.45-8.69-18.96-19.15-18.97h-15c10.46,0.01,19.05,8.52,19.15,18.97l0.12,12.79
				l15.14,15.15L175.207,36.957z"/>
		</g>
	</g>
	<g>
		<g>
			<path class="st0" d="M70.732,104.701c-0.196-0.804-0.456-1.507-0.778-2.109c-0.322-0.603-0.764-1.177-1.324-1.724
				c-0.561-0.547-1.285-0.99-2.172-1.331c-0.888-0.341-2.023-0.512-3.406-0.512c-2.877,0-5.019,0.78-6.425,2.34
				c-1.406,1.561-2.109,4.293-2.109,8.198c0,1.589,0.138,3.039,0.413,4.352c0.276,1.313,0.661,2.348,1.156,3.104
				c0.682,1.064,1.556,1.873,2.621,2.424c1.065,0.551,2.462,0.827,4.19,0.827c3.083,0,5.255-0.864,6.516-2.593
				c1.261-1.729,1.892-4.456,1.892-8.185C71.307,107.831,71.115,106.233,70.732,104.701z M65.33,113.838
				c-0.201,0.878-0.514,1.521-0.939,1.927c-0.425,0.406-0.927,0.609-1.506,0.609c-0.878,0-1.548-0.479-2.011-1.436
				c-0.462-0.958-0.693-2.745-0.693-5.36c0-2.588,0.21-4.361,0.63-5.318c0.42-0.958,1.102-1.437,2.046-1.437
				c0.925,0,1.618,0.47,2.081,1.408c0.462,0.938,0.693,2.772,0.693,5.5C65.631,111.591,65.53,112.96,65.33,113.838z"/>
		</g>
	</g>
	<g>
		<g>
			<path class="st0" d="M81.873,99.025c-0.607,1.289-1.448,2.373-2.522,3.251s-2.583,1.631-4.526,2.257v4.68
				c1.317-0.401,2.413-0.821,3.286-1.261c0.873-0.439,1.777-1.014,2.712-1.724v13.691h5.773V99.025H81.873z"/>
		</g>
	</g>
	<g>
		<g>
			<path class="st0" d="M109.018,104.701c-0.196-0.804-0.456-1.507-0.778-2.109c-0.322-0.603-0.764-1.177-1.324-1.724
				c-0.56-0.547-1.285-0.99-2.172-1.331c-0.888-0.341-2.023-0.512-3.406-0.512c-2.878,0-5.019,0.78-6.425,2.34
				c-1.406,1.561-2.109,4.293-2.109,8.198c0,1.589,0.138,3.039,0.413,4.352c0.276,1.313,0.661,2.348,1.156,3.104
				c0.682,1.064,1.556,1.873,2.621,2.424c1.065,0.551,2.462,0.827,4.19,0.827c3.083,0,5.255-0.864,6.516-2.593
				s1.892-4.456,1.892-8.185C109.592,107.831,109.4,106.233,109.018,104.701z M103.615,113.838
				c-0.201,0.878-0.514,1.521-0.939,1.927s-0.927,0.609-1.506,0.609c-0.878,0-1.548-0.479-2.011-1.436
				c-0.462-0.958-0.693-2.745-0.693-5.36c0-2.588,0.21-4.361,0.63-5.318c0.42-0.958,1.102-1.437,2.046-1.437
				c0.925,0,1.618,0.47,2.081,1.408c0.462,0.938,0.693,2.772,0.693,5.5C103.917,111.591,103.816,112.96,103.615,113.838z"/>
		</g>
	</g>
	<g>
		<g>
			<path class="st0" d="M128.161,104.701c-0.196-0.804-0.456-1.507-0.778-2.109c-0.322-0.603-0.764-1.177-1.324-1.724
				c-0.561-0.547-1.285-0.99-2.172-1.331c-0.888-0.341-2.023-0.512-3.406-0.512c-2.878,0-5.019,0.78-6.425,2.34
				c-1.406,1.561-2.109,4.293-2.109,8.198c0,1.589,0.138,3.039,0.413,4.352c0.276,1.313,0.661,2.348,1.156,3.104
				c0.682,1.064,1.556,1.873,2.621,2.424c1.065,0.551,2.462,0.827,4.19,0.827c3.083,0,5.255-0.864,6.516-2.593
				c1.261-1.729,1.892-4.456,1.892-8.185C128.735,107.831,128.544,106.233,128.161,104.701z M122.758,113.838
				c-0.201,0.878-0.514,1.521-0.939,1.927s-0.927,0.609-1.506,0.609c-0.878,0-1.548-0.479-2.011-1.436
				c-0.462-0.958-0.693-2.745-0.693-5.36c0-2.588,0.21-4.361,0.63-5.318c0.42-0.958,1.103-1.437,2.046-1.437
				c0.925,0,1.618,0.47,2.081,1.408c0.462,0.938,0.693,2.772,0.693,5.5C123.06,111.591,122.959,112.96,122.758,113.838z"/>
		</g>
	</g>
	<g>
		<g>
			<path class="st0" d="M139.302,99.025c-0.608,1.289-1.448,2.373-2.523,3.251s-2.583,1.631-4.526,2.257v4.68
				c1.317-0.401,2.413-0.821,3.286-1.261c0.874-0.439,1.777-1.014,2.712-1.724v13.691h5.773V99.025H139.302z"/>
		</g>
	</g>
	<g>
		<g>
			<path class="st0" d="M166.446,104.701c-0.196-0.804-0.456-1.507-0.778-2.109c-0.322-0.603-0.764-1.177-1.324-1.724
				c-0.56-0.547-1.285-0.99-2.172-1.331c-0.888-0.341-2.023-0.512-3.406-0.512c-2.877,0-5.019,0.78-6.425,2.34
				c-1.406,1.561-2.109,4.293-2.109,8.198c0,1.589,0.138,3.039,0.413,4.352c0.276,1.313,0.661,2.348,1.156,3.104
				c0.682,1.064,1.556,1.873,2.621,2.424c1.065,0.551,2.462,0.827,4.19,0.827c3.083,0,5.255-0.864,6.516-2.593
				c1.261-1.729,1.892-4.456,1.892-8.185C167.021,107.831,166.829,106.233,166.446,104.701z M161.044,113.838
				c-0.201,0.878-0.514,1.521-0.939,1.927s-0.927,0.609-1.506,0.609c-0.878,0-1.548-0.479-2.011-1.436
				c-0.462-0.958-0.693-2.745-0.693-5.36c0-2.588,0.21-4.361,0.63-5.318c0.42-0.958,1.103-1.437,2.046-1.437
				c0.925,0,1.618,0.47,2.081,1.408c0.462,0.938,0.693,2.772,0.693,5.5C161.345,111.591,161.245,112.96,161.044,113.838z"/>
		</g>
	</g>
	<g>
		<g>
			<path class="st0" d="M177.587,99.025c-0.607,1.289-1.448,2.373-2.523,3.251c-1.074,0.878-2.583,1.631-4.526,2.257v4.68
				c1.317-0.401,2.413-0.821,3.286-1.261c0.873-0.439,1.777-1.014,2.712-1.724v13.691h5.774V99.025H177.587z"/>
		</g>
	</g>
	<g>
		<g>
			<path class="st0" d="M70.732,139.142c-0.196-0.804-0.456-1.507-0.778-2.109c-0.322-0.603-0.764-1.177-1.324-1.724
				c-0.561-0.547-1.285-0.99-2.172-1.331c-0.888-0.341-2.023-0.512-3.406-0.512c-2.877,0-5.019,0.78-6.425,2.34
				c-1.406,1.561-2.109,4.293-2.109,8.198c0,1.589,0.138,3.039,0.413,4.352c0.276,1.313,0.661,2.348,1.156,3.104
				c0.682,1.064,1.556,1.873,2.621,2.424c1.065,0.551,2.462,0.827,4.19,0.827c3.083,0,5.255-0.864,6.516-2.593
				c1.261-1.729,1.892-4.456,1.892-8.185C71.307,142.271,71.115,140.674,70.732,139.142z M65.33,148.278
				c-0.201,0.878-0.514,1.521-0.939,1.927c-0.425,0.406-0.927,0.609-1.506,0.609c-0.878,0-1.548-0.479-2.011-1.436
				c-0.462-0.958-0.693-2.745-0.693-5.36c0-2.588,0.21-4.361,0.63-5.318c0.42-0.958,1.102-1.437,2.046-1.437
				c0.925,0,1.618,0.47,2.081,1.408c0.462,0.938,0.693,2.772,0.693,5.5C65.631,146.031,65.53,147.4,65.33,148.278z"/>
		</g>
	</g>
	<g>
		<g>
			<path class="st0" d="M89.875,139.142c-0.196-0.804-0.456-1.507-0.778-2.109c-0.322-0.603-0.764-1.177-1.324-1.724
				c-0.56-0.547-1.285-0.99-2.172-1.331c-0.888-0.341-2.023-0.512-3.406-0.512c-2.877,0-5.019,0.78-6.425,2.34
				c-1.406,1.561-2.109,4.293-2.109,8.198c0,1.589,0.138,3.039,0.413,4.352c0.276,1.313,0.661,2.348,1.156,3.104
				c0.682,1.064,1.556,1.873,2.621,2.424c1.065,0.551,2.462,0.827,4.19,0.827c3.083,0,5.255-0.864,6.516-2.593
				c1.261-1.729,1.892-4.456,1.892-8.185C90.45,142.271,90.258,140.674,89.875,139.142z M84.473,148.278
				c-0.201,0.878-0.514,1.521-0.939,1.927s-0.927,0.609-1.506,0.609c-0.878,0-1.548-0.479-2.011-1.436
				c-0.462-0.958-0.693-2.745-0.693-5.36c0-2.588,0.21-4.361,0.63-5.318c0.42-0.958,1.103-1.437,2.046-1.437
				c0.925,0,1.618,0.47,2.081,1.408c0.462,0.938,0.693,2.772,0.693,5.5C84.774,146.031,84.673,147.4,84.473,148.278z"/>
		</g>
	</g>
	<g>
		<g>
			<path class="st0" d="M101.016,133.466c-0.607,1.289-1.448,2.373-2.522,3.251c-1.074,0.878-2.583,1.631-4.526,2.257v4.68
				c1.317-0.401,2.413-0.821,3.286-1.261c0.874-0.439,1.777-1.014,2.712-1.724v13.691h5.773v-20.895H101.016z"/>
		</g>
	</g>
	<g>
		<g>
			<path class="st0" d="M128.161,139.142c-0.196-0.804-0.456-1.507-0.778-2.109c-0.322-0.603-0.764-1.177-1.324-1.724
				c-0.561-0.547-1.285-0.99-2.172-1.331c-0.888-0.341-2.023-0.512-3.406-0.512c-2.878,0-5.019,0.78-6.425,2.34
				c-1.406,1.561-2.109,4.293-2.109,8.198c0,1.589,0.138,3.039,0.413,4.352c0.276,1.313,0.661,2.348,1.156,3.104
				c0.682,1.064,1.556,1.873,2.621,2.424c1.065,0.551,2.462,0.827,4.19,0.827c3.083,0,5.255-0.864,6.516-2.593
				c1.261-1.729,1.892-4.456,1.892-8.185C128.735,142.271,128.544,140.674,128.161,139.142z M122.758,148.278
				c-0.201,0.878-0.514,1.521-0.939,1.927s-0.927,0.609-1.506,0.609c-0.878,0-1.548-0.479-2.011-1.436
				c-0.462-0.958-0.693-2.745-0.693-5.36c0-2.588,0.21-4.361,0.63-5.318c0.42-0.958,1.103-1.437,2.046-1.437
				c0.925,0,1.618,0.47,2.081,1.408c0.462,0.938,0.693,2.772,0.693,5.5C123.06,146.031,122.959,147.4,122.758,148.278z"/>
		</g>
	</g>
	<g>
		<g>
			<path class="st0" d="M139.302,133.466c-0.608,1.289-1.448,2.373-2.523,3.251s-2.583,1.631-4.526,2.257v4.68
				c1.317-0.401,2.413-0.821,3.286-1.261c0.874-0.439,1.777-1.014,2.712-1.724v13.691h5.773v-20.895H139.302z"/>
		</g>
	</g>
	<g>
		<g>
			<path class="st0" d="M166.446,139.142c-0.196-0.804-0.456-1.507-0.778-2.109c-0.322-0.603-0.764-1.177-1.324-1.724
				c-0.56-0.547-1.285-0.99-2.172-1.331c-0.888-0.341-2.023-0.512-3.406-0.512c-2.877,0-5.019,0.78-6.425,2.34
				c-1.406,1.561-2.109,4.293-2.109,8.198c0,1.589,0.138,3.039,0.413,4.352c0.276,1.313,0.661,2.348,1.156,3.104
				c0.682,1.064,1.556,1.873,2.621,2.424c1.065,0.551,2.462,0.827,4.19,0.827c3.083,0,5.255-0.864,6.516-2.593
				c1.261-1.729,1.892-4.456,1.892-8.185C167.021,142.271,166.829,140.674,166.446,139.142z M161.044,148.278
				c-0.201,0.878-0.514,1.521-0.939,1.927s-0.927,0.609-1.506,0.609c-0.878,0-1.548-0.479-2.011-1.436
				c-0.462-0.958-0.693-2.745-0.693-5.36c0-2.588,0.21-4.361,0.63-5.318c0.42-0.958,1.103-1.437,2.046-1.437
				c0.925,0,1.618,0.47,2.081,1.408c0.462,0.938,0.693,2.772,0.693,5.5C161.345,146.031,161.245,147.4,161.044,148.278z"/>
		</g>
	</g>
	<g>
		<g>
			<path class="st0" d="M185.589,139.142c-0.196-0.804-0.456-1.507-0.778-2.109c-0.322-0.603-0.764-1.177-1.324-1.724
				c-0.56-0.547-1.285-0.99-2.172-1.331c-0.888-0.341-2.023-0.512-3.406-0.512c-2.878,0-5.019,0.78-6.425,2.34
				c-1.406,1.561-2.109,4.293-2.109,8.198c0,1.589,0.138,3.039,0.413,4.352c0.276,1.313,0.661,2.348,1.156,3.104
				c0.682,1.064,1.556,1.873,2.621,2.424c1.065,0.551,2.462,0.827,4.191,0.827c3.083,0,5.255-0.864,6.516-2.593
				c1.261-1.729,1.892-4.456,1.892-8.185C186.164,142.271,185.972,140.674,185.589,139.142z M180.187,148.278
				c-0.201,0.878-0.514,1.521-0.939,1.927c-0.425,0.406-0.927,0.609-1.506,0.609c-0.878,0-1.548-0.479-2.011-1.436
				c-0.462-0.958-0.693-2.745-0.693-5.36c0-2.588,0.21-4.361,0.63-5.318c0.42-0.958,1.103-1.437,2.046-1.437
				c0.925,0,1.618,0.47,2.081,1.408c0.462,0.938,0.693,2.772,0.693,5.5C180.488,146.031,180.388,147.4,180.187,148.278z"/>
		</g>
	</g>
	<g>
		<g>
			<path class="st0" d="M70.732,173.582c-0.196-0.804-0.456-1.507-0.778-2.109c-0.322-0.603-0.764-1.177-1.324-1.724
				c-0.561-0.547-1.285-0.99-2.172-1.331c-0.888-0.341-2.023-0.512-3.406-0.512c-2.877,0-5.019,0.78-6.425,2.34
				c-1.406,1.561-2.109,4.293-2.109,8.198c0,1.589,0.138,3.039,0.413,4.352c0.276,1.313,0.661,2.348,1.156,3.104
				c0.682,1.064,1.556,1.873,2.621,2.424c1.065,0.551,2.462,0.827,4.19,0.827c3.083,0,5.255-0.864,6.516-2.593
				c1.261-1.729,1.892-4.456,1.892-8.185C71.307,176.712,71.115,175.114,70.732,173.582z M65.33,182.719
				c-0.201,0.878-0.514,1.521-0.939,1.927c-0.425,0.406-0.927,0.609-1.506,0.609c-0.878,0-1.548-0.479-2.011-1.436
				c-0.462-0.958-0.693-2.745-0.693-5.36c0-2.588,0.21-4.361,0.63-5.318c0.42-0.958,1.102-1.437,2.046-1.437
				c0.925,0,1.618,0.47,2.081,1.408c0.462,0.938,0.693,2.772,0.693,5.5C65.631,180.472,65.53,181.841,65.33,182.719z"/>
		</g>
	</g>
	<g>
		<g>
			<path class="st0" d="M81.873,167.906c-0.607,1.289-1.448,2.373-2.522,3.251s-2.583,1.631-4.526,2.257v4.68
				c1.317-0.401,2.413-0.821,3.286-1.261c0.873-0.439,1.777-1.014,2.712-1.724v13.691h5.773v-20.895H81.873z"/>
		</g>
	</g>
	<g>
		<g>
			<path class="st0" d="M109.018,173.582c-0.196-0.804-0.456-1.507-0.778-2.109c-0.322-0.603-0.764-1.177-1.324-1.724
				c-0.56-0.547-1.285-0.99-2.172-1.331c-0.888-0.341-2.023-0.512-3.406-0.512c-2.878,0-5.019,0.78-6.425,2.34
				c-1.406,1.561-2.109,4.293-2.109,8.198c0,1.589,0.138,3.039,0.413,4.352c0.276,1.313,0.661,2.348,1.156,3.104
				c0.682,1.064,1.556,1.873,2.621,2.424c1.065,0.551,2.462,0.827,4.19,0.827c3.083,0,5.255-0.864,6.516-2.593
				s1.892-4.456,1.892-8.185C109.592,176.712,109.4,175.114,109.018,173.582z M103.615,182.719
				c-0.201,0.878-0.514,1.521-0.939,1.927s-0.927,0.609-1.506,0.609c-0.878,0-1.548-0.479-2.011-1.436
				c-0.462-0.958-0.693-2.745-0.693-5.36c0-2.588,0.21-4.361,0.63-5.318c0.42-0.958,1.102-1.437,2.046-1.437
				c0.925,0,1.618,0.47,2.081,1.408c0.462,0.938,0.693,2.772,0.693,5.5C103.917,180.472,103.816,181.841,103.615,182.719z"/>
		</g>
	</g>
	<g>
		<g>
			<path class="st0" d="M128.161,173.582c-0.196-0.804-0.456-1.507-0.778-2.109c-0.322-0.603-0.764-1.177-1.324-1.724
				c-0.561-0.547-1.285-0.99-2.172-1.331c-0.888-0.341-2.023-0.512-3.406-0.512c-2.878,0-5.019,0.78-6.425,2.34
				c-1.406,1.561-2.109,4.293-2.109,8.198c0,1.589,0.138,3.039,0.413,4.352c0.276,1.313,0.661,2.348,1.156,3.104
				c0.682,1.064,1.556,1.873,2.621,2.424c1.065,0.551,2.462,0.827,4.19,0.827c3.083,0,5.255-0.864,6.516-2.593
				c1.261-1.729,1.892-4.456,1.892-8.185C128.735,176.712,128.544,175.114,128.161,173.582z M122.758,182.719
				c-0.201,0.878-0.514,1.521-0.939,1.927s-0.927,0.609-1.506,0.609c-0.878,0-1.548-0.479-2.011-1.436
				c-0.462-0.958-0.693-2.745-0.693-5.36c0-2.588,0.21-4.361,0.63-5.318c0.42-0.958,1.103-1.437,2.046-1.437
				c0.925,0,1.618,0.47,2.081,1.408c0.462,0.938,0.693,2.772,0.693,5.5C123.06,180.472,122.959,181.841,122.758,182.719z"/>
		</g>
	</g>
	<g>
		<g>
			<path class="st0" d="M147.304,173.582c-0.196-0.804-0.456-1.507-0.778-2.109c-0.322-0.603-0.764-1.177-1.324-1.724
				c-0.561-0.547-1.285-0.99-2.172-1.331c-0.888-0.341-2.023-0.512-3.406-0.512c-2.877,0-5.019,0.78-6.425,2.34
				c-1.406,1.561-2.109,4.293-2.109,8.198c0,1.589,0.138,3.039,0.413,4.352c0.276,1.313,0.661,2.348,1.156,3.104
				c0.682,1.064,1.556,1.873,2.621,2.424c1.065,0.551,2.462,0.827,4.19,0.827c3.083,0,5.255-0.864,6.516-2.593
				c1.261-1.729,1.892-4.456,1.892-8.185C147.878,176.712,147.686,175.114,147.304,173.582z M141.901,182.719
				c-0.201,0.878-0.514,1.521-0.939,1.927s-0.927,0.609-1.506,0.609c-0.879,0-1.548-0.479-2.011-1.436
				c-0.462-0.958-0.693-2.745-0.693-5.36c0-2.588,0.21-4.361,0.63-5.318c0.42-0.958,1.103-1.437,2.046-1.437
				c0.925,0,1.618,0.47,2.081,1.408c0.462,0.938,0.693,2.772,0.693,5.5C142.203,180.472,142.102,181.841,141.901,182.719z"/>
		</g>
	</g>
	<g>
		<g>
			<path class="st0" d="M158.444,167.906c-0.607,1.289-1.448,2.373-2.522,3.251c-1.074,0.878-2.583,1.631-4.526,2.257v4.68
				c1.317-0.401,2.413-0.821,3.286-1.261c0.874-0.439,1.777-1.014,2.712-1.724v13.691h5.773v-20.895H158.444z"/>
		</g>
	</g>
	<g>
		<g>
			<path class="st0" d="M185.589,173.582c-0.196-0.804-0.456-1.507-0.778-2.109c-0.322-0.603-0.764-1.177-1.324-1.724
				c-0.56-0.547-1.285-0.99-2.172-1.331c-0.888-0.341-2.023-0.512-3.406-0.512c-2.878,0-5.019,0.78-6.425,2.34
				c-1.406,1.561-2.109,4.293-2.109,8.198c0,1.589,0.138,3.039,0.413,4.352c0.276,1.313,0.661,2.348,1.156,3.104
				c0.682,1.064,1.556,1.873,2.621,2.424c1.065,0.551,2.462,0.827,4.191,0.827c3.083,0,5.255-0.864,6.516-2.593
				c1.261-1.729,1.892-4.456,1.892-8.185C186.164,176.712,185.972,175.114,185.589,173.582z M180.187,182.719
				c-0.201,0.878-0.514,1.521-0.939,1.927c-0.425,0.406-0.927,0.609-1.506,0.609c-0.878,0-1.548-0.479-2.011-1.436
				c-0.462-0.958-0.693-2.745-0.693-5.36c0-2.588,0.21-4.361,0.63-5.318c0.42-0.958,1.103-1.437,2.046-1.437
				c0.925,0,1.618,0.47,2.081,1.408c0.462,0.938,0.693,2.772,0.693,5.5C180.488,180.472,180.388,181.841,180.187,182.719z"/>
		</g>
	</g>
	<g>
		<g>
			<path class="st22" d="M183.511,93.175v42.15c0.55,0.54,0.98,1.12,1.3,1.71c0.32,0.6,0.58,1.3,0.78,2.11
				c0.38,1.53,0.57,3.13,0.57,4.79c0,3.73-0.63,6.46-1.89,8.18c-0.22,0.31-0.48,0.59-0.76,0.83v16.82c0.55,0.54,0.98,1.12,1.3,1.71
				c0.32,0.6,0.58,1.3,0.78,2.11c0.38,1.53,0.57,3.13,0.57,4.79c0,3.73-0.63,6.46-1.89,8.18c-0.22,0.31-0.48,0.59-0.76,0.83v31.47
				c0,10.67-8.69,19.35-19.36,19.35h15c10.67,0,19.36-8.68,19.36-19.35V93.175H183.511z"/>
		</g>
	</g>
</g>
</svg>
