<?xml version="1.0" encoding="utf-8"?>
<!-- Generator: Adobe Illustrator 22.0.1, SVG Export Plug-In . SVG Version: 6.00 Build 0)  -->
<svg version="1.1" id="Layer_1" xmlns="http://www.w3.org/2000/svg" xmlns:xlink="http://www.w3.org/1999/xlink" x="0px" y="0px"
	 viewBox="0 0 256 256" style="enable-background:new 0 0 256 256;" xml:space="preserve">
<style type="text/css">
	.st0{fill:#3A312A;}
	.st1{fill:#F16C7A;}
	.st2{fill:#D7E057;}
	.st3{fill:#F8E4C8;}
	.st4{fill:#89C4DB;}
	.st5{fill-rule:evenodd;clip-rule:evenodd;fill:#F8E4C8;}
	.st6{fill:#87796F;}
	.st7{fill:#D4DB56;}
	.st8{fill:#F59689;}
	.st9{fill:#6CA6BE;}
	.st10{fill:#695B51;}
	.st11{fill:#F7E3C7;}
	.st12{fill:#8AC6DD;}
	.st13{fill:#6CA8BF;}
	.st14{fill:#D6DF58;}
	.st15{fill:#FAE6CA;}
	.st16{fill:#EF6D7A;}
	.st17{fill:#DDC9AC;}
	.st18{fill:#D24E5C;}
	.st19{fill:#6A5C52;}
	.st20{fill:#B9C239;}
	.st21{fill:#FCE8CB;}
	.st22{fill:#DECAAD;}
	.st23{fill:#D5DE58;}
	.st24{fill:#8AC5DC;}
	.st25{fill:#D34E5C;}
	.st26{fill:#ED6E7A;}
	.st27{fill:#B8C136;}
</style>
<g>
	<g>
		<g>
			<rect x="166.268" y="116.534" class="st14" width="22.769" height="22.769"/>
		</g>
	</g>
	<g>
		<g>
			<path class="st0" d="M189.037,115.034h-22.769c-0.829,0-1.5,0.671-1.5,1.5v22.769c0,0.829,0.671,1.5,1.5,1.5h22.769
				c0.829,0,1.5-0.671,1.5-1.5v-22.769C190.537,115.705,189.866,115.034,189.037,115.034z M187.537,137.803h-19.769v-19.769h19.769
				V137.803z"/>
		</g>
	</g>
	<g>
		<g>
			<rect x="16.845" y="16.918" class="st14" width="22.769" height="22.769"/>
		</g>
	</g>
	<g>
		<g>
			<path class="st0" d="M39.614,15.418h-22.77c-0.829,0-1.5,0.671-1.5,1.5v22.769c0,0.829,0.671,1.5,1.5,1.5h22.77
				c0.829,0,1.5-0.671,1.5-1.5V16.918C41.114,16.089,40.443,15.418,39.614,15.418z M38.114,38.188h-19.77V18.418h19.77V38.188z"/>
		</g>
	</g>
	<g>
		<g>
			<rect x="116.46" y="16.918" class="st14" width="22.769" height="22.769"/>
		</g>
	</g>
	<g>
		<g>
			<path class="st0" d="M139.229,15.418H116.46c-0.829,0-1.5,0.671-1.5,1.5v22.769c0,0.829,0.671,1.5,1.5,1.5h22.769
				c0.829,0,1.5-0.671,1.5-1.5V16.918C140.729,16.089,140.058,15.418,139.229,15.418z M137.729,38.188H117.96V18.418h19.769V38.188z
				"/>
		</g>
	</g>
	<g>
		<g>
			<rect x="66.653" y="66.726" class="st14" width="22.769" height="22.769"/>
		</g>
	</g>
	<g>
		<g>
			<path class="st0" d="M89.422,65.226H66.653c-0.829,0-1.5,0.671-1.5,1.5v22.769c0,0.829,0.671,1.5,1.5,1.5h22.769
				c0.829,0,1.5-0.671,1.5-1.5V66.726C90.922,65.897,90.25,65.226,89.422,65.226z M87.922,87.995H68.153V68.226h19.769V87.995z"/>
		</g>
	</g>
	<g>
		<g>
			<rect x="116.46" y="66.726" class="st14" width="22.769" height="22.769"/>
		</g>
	</g>
	<g>
		<g>
			<path class="st0" d="M139.229,65.226H116.46c-0.829,0-1.5,0.671-1.5,1.5v22.769c0,0.829,0.671,1.5,1.5,1.5h22.769
				c0.829,0,1.5-0.671,1.5-1.5V66.726C140.729,65.897,140.058,65.226,139.229,65.226z M137.729,87.995H117.96V68.226h19.769V87.995z
				"/>
		</g>
	</g>
	<g>
		<g>
			<rect x="216.076" y="66.726" class="st14" width="22.769" height="22.769"/>
		</g>
	</g>
	<g>
		<g>
			<path class="st0" d="M238.845,65.226h-22.769c-0.829,0-1.5,0.671-1.5,1.5v22.769c0,0.829,0.671,1.5,1.5,1.5h22.769
				c0.829,0,1.5-0.671,1.5-1.5V66.726C240.345,65.897,239.673,65.226,238.845,65.226z M237.345,87.995h-19.769V68.226h19.769V87.995
				z"/>
		</g>
	</g>
	<g>
		<g>
			<rect x="66.653" y="166.341" class="st14" width="22.769" height="22.769"/>
		</g>
	</g>
	<g>
		<g>
			<path class="st0" d="M89.422,164.841H66.653c-0.829,0-1.5,0.671-1.5,1.5v22.769c0,0.829,0.671,1.5,1.5,1.5h22.769
				c0.829,0,1.5-0.671,1.5-1.5v-22.769C90.922,165.513,90.25,164.841,89.422,164.841z M87.922,187.61H68.153v-19.769h19.769V187.61z
				"/>
		</g>
	</g>
	<g>
		<g>
			<rect x="166.268" y="166.341" class="st14" width="22.769" height="22.769"/>
		</g>
	</g>
	<g>
		<g>
			<path class="st0" d="M189.037,164.841h-22.769c-0.829,0-1.5,0.671-1.5,1.5v22.769c0,0.829,0.671,1.5,1.5,1.5h22.769
				c0.829,0,1.5-0.671,1.5-1.5v-22.769C190.537,165.513,189.866,164.841,189.037,164.841z M187.537,187.61h-19.769v-19.769h19.769
				V187.61z"/>
		</g>
	</g>
	<g>
		<g>
			<rect x="216.076" y="166.341" class="st14" width="22.769" height="22.769"/>
		</g>
	</g>
	<g>
		<g>
			<path class="st0" d="M238.845,164.841h-22.769c-0.829,0-1.5,0.671-1.5,1.5v22.769c0,0.829,0.671,1.5,1.5,1.5h22.769
				c0.829,0,1.5-0.671,1.5-1.5v-22.769C240.345,165.513,239.673,164.841,238.845,164.841z M237.345,187.61h-19.769v-19.769h19.769
				V187.61z"/>
		</g>
	</g>
	<g>
		<g>
			<rect x="16.845" y="216.149" class="st14" width="22.769" height="22.769"/>
		</g>
	</g>
	<g>
		<g>
			<path class="st0" d="M39.614,214.649h-22.77c-0.829,0-1.5,0.671-1.5,1.5v22.769c0,0.829,0.671,1.5,1.5,1.5h22.77
				c0.829,0,1.5-0.671,1.5-1.5v-22.769C41.114,215.32,40.443,214.649,39.614,214.649z M38.114,237.418h-19.77v-19.769h19.77V237.418
				z"/>
		</g>
	</g>
	<g>
		<g>
			<rect x="116.46" y="216.149" class="st14" width="22.769" height="22.769"/>
		</g>
	</g>
	<g>
		<g>
			<path class="st0" d="M139.229,214.649H116.46c-0.829,0-1.5,0.671-1.5,1.5v22.769c0,0.829,0.671,1.5,1.5,1.5h22.769
				c0.829,0,1.5-0.671,1.5-1.5v-22.769C140.729,215.32,140.058,214.649,139.229,214.649z M137.729,237.418H117.96v-19.769h19.769
				V237.418z"/>
		</g>
	</g>
	<g>
		<g>
			<rect x="216.076" y="216.149" class="st14" width="22.769" height="22.769"/>
		</g>
	</g>
	<g>
		<g>
			<path class="st0" d="M238.845,214.649h-22.769c-0.829,0-1.5,0.671-1.5,1.5v22.769c0,0.829,0.671,1.5,1.5,1.5h22.769
				c0.829,0,1.5-0.671,1.5-1.5v-22.769C240.345,215.32,239.673,214.649,238.845,214.649z M237.345,237.418h-19.769v-19.769h19.769
				V237.418z"/>
		</g>
	</g>
	<g>
		<g>
			
				<ellipse transform="matrix(0.7071 -0.7071 0.7071 0.7071 2.8435 63.4703)" class="st24" cx="78.037" cy="28.303" rx="11.385" ry="11.385"/>
		</g>
	</g>
	<g>
		<g>
			<path class="st0" d="M78.037,15.418c-7.104,0-12.884,5.78-12.884,12.885c0,7.105,5.78,12.885,12.884,12.885
				s12.885-5.78,12.885-12.885C90.922,21.198,85.142,15.418,78.037,15.418z M78.037,38.188c-5.45,0-9.884-4.434-9.884-9.885
				c0-5.451,4.434-9.885,9.884-9.885c5.451,0,9.885,4.434,9.885,9.885C87.922,33.753,83.488,38.188,78.037,38.188z"/>
		</g>
	</g>
	<g>
		<g>
			<circle class="st24" cx="177.653" cy="28.303" r="11.385"/>
		</g>
	</g>
	<g>
		<g>
			<path class="st0" d="M177.653,15.418c-7.104,0-12.885,5.78-12.885,12.885c0,7.105,5.78,12.885,12.885,12.885
				c7.105,0,12.884-5.78,12.884-12.885C190.537,21.198,184.757,15.418,177.653,15.418z M177.653,38.188
				c-5.451,0-9.885-4.434-9.885-9.885c0-5.451,4.434-9.885,9.885-9.885c5.45,0,9.884,4.434,9.884,9.885
				C187.537,33.753,183.103,38.188,177.653,38.188z"/>
		</g>
	</g>
	<g>
		<g>
			
				<ellipse transform="matrix(0.7071 -0.7071 0.7071 0.7071 46.6086 169.1284)" class="st24" cx="227.46" cy="28.303" rx="11.385" ry="11.385"/>
		</g>
	</g>
	<g>
		<g>
			<path class="st0" d="M227.46,15.418c-7.104,0-12.885,5.78-12.885,12.885c0,7.105,5.78,12.885,12.885,12.885
				c7.104,0,12.884-5.78,12.884-12.885C240.345,21.198,234.565,15.418,227.46,15.418z M227.46,38.188
				c-5.451,0-9.885-4.434-9.885-9.885c0-5.451,4.434-9.885,9.885-9.885c5.45,0,9.884,4.434,9.884,9.885
				C237.345,33.753,232.911,38.188,227.46,38.188z"/>
		</g>
	</g>
	<g>
		<g>
			<circle class="st24" cx="177.653" cy="78.11" r="11.385"/>
		</g>
	</g>
	<g>
		<g>
			<path class="st0" d="M177.653,65.226c-7.104,0-12.885,5.78-12.885,12.884c0,7.104,5.78,12.885,12.885,12.885
				c7.105,0,12.884-5.78,12.884-12.885C190.537,71.006,184.757,65.226,177.653,65.226z M177.653,87.995
				c-5.451,0-9.885-4.434-9.885-9.885c0-5.45,4.434-9.884,9.885-9.884c5.45,0,9.884,4.434,9.884,9.884
				C187.537,83.561,183.103,87.995,177.653,87.995z"/>
		</g>
	</g>
	<g>
		<g>
			
				<ellipse transform="matrix(0.3827 -0.9239 0.9239 0.3827 -54.7381 74.2995)" class="st24" cx="28.23" cy="78.11" rx="11.385" ry="11.385"/>
		</g>
	</g>
	<g>
		<g>
			<path class="st0" d="M28.229,65.226c-7.104,0-12.885,5.78-12.885,12.884c0,7.104,5.78,12.885,12.885,12.885
				c7.105,0,12.885-5.78,12.885-12.885C41.114,71.006,35.334,65.226,28.229,65.226z M28.229,87.995
				c-5.451,0-9.885-4.434-9.885-9.885c0-5.45,4.434-9.884,9.885-9.884c5.451,0,9.885,4.434,9.885,9.884
				C38.114,83.561,33.68,87.995,28.229,87.995z"/>
		</g>
	</g>
	<g>
		<g>
			
				<ellipse transform="matrix(0.9871 -0.1602 0.1602 0.9871 -19.4825 14.1519)" class="st24" cx="78.037" cy="127.918" rx="11.385" ry="11.385"/>
		</g>
	</g>
	<g>
		<g>
			<path class="st0" d="M78.037,115.034c-7.104,0-12.884,5.78-12.884,12.884s5.78,12.885,12.884,12.885s12.885-5.78,12.885-12.885
				S85.142,115.034,78.037,115.034z M78.037,137.803c-5.45,0-9.884-4.434-9.884-9.885c0-5.45,4.434-9.884,9.884-9.884
				c5.451,0,9.885,4.434,9.885,9.884C87.922,133.369,83.488,137.803,78.037,137.803z"/>
		</g>
	</g>
	<g>
		<g>
			
				<ellipse transform="matrix(0.9871 -0.1602 0.1602 0.9871 -17.5531 38.0868)" class="st24" cx="227.46" cy="127.918" rx="11.385" ry="11.385"/>
		</g>
	</g>
	<g>
		<g>
			<path class="st0" d="M227.46,115.034c-7.104,0-12.885,5.78-12.885,12.884s5.78,12.885,12.885,12.885
				c7.104,0,12.884-5.78,12.884-12.885S234.565,115.034,227.46,115.034z M227.46,137.803c-5.451,0-9.885-4.434-9.885-9.885
				c0-5.45,4.434-9.884,9.885-9.884c5.45,0,9.884,4.434,9.884,9.884C237.345,133.369,232.911,137.803,227.46,137.803z"/>
		</g>
	</g>
	<g>
		<g>
			
				<ellipse transform="matrix(0.9732 -0.2298 0.2298 0.9732 -40.0779 11.2402)" class="st24" cx="28.23" cy="177.726" rx="11.385" ry="11.385"/>
		</g>
	</g>
	<g>
		<g>
			<path class="st0" d="M28.229,164.841c-7.104,0-12.885,5.78-12.885,12.885s5.78,12.884,12.885,12.884
				c7.105,0,12.885-5.78,12.885-12.884S35.334,164.841,28.229,164.841z M28.229,187.61c-5.451,0-9.885-4.434-9.885-9.884
				c0-5.451,4.434-9.885,9.885-9.885c5.451,0,9.885,4.434,9.885,9.885C38.114,183.176,33.68,187.61,28.229,187.61z"/>
		</g>
	</g>
	<g>
		<g>
			<circle class="st24" cx="127.845" cy="177.726" r="11.385"/>
		</g>
	</g>
	<g>
		<g>
			<path class="st0" d="M127.845,164.841c-7.104,0-12.884,5.78-12.884,12.885s5.78,12.884,12.884,12.884s12.885-5.78,12.885-12.884
				S134.949,164.841,127.845,164.841z M127.845,187.61c-5.45,0-9.884-4.434-9.884-9.884c0-5.451,4.434-9.885,9.884-9.885
				c5.451,0,9.885,4.434,9.885,9.885C137.729,183.176,133.295,187.61,127.845,187.61z"/>
		</g>
	</g>
	<g>
		<g>
			
				<ellipse transform="matrix(0.9732 -0.2298 0.2298 0.9732 -50.1888 24.016)" class="st24" cx="78.037" cy="227.533" rx="11.385" ry="11.385"/>
		</g>
	</g>
	<g>
		<g>
			<path class="st0" d="M78.037,214.649c-7.104,0-12.884,5.78-12.884,12.885s5.78,12.884,12.884,12.884s12.885-5.78,12.885-12.884
				S85.142,214.649,78.037,214.649z M78.037,237.418c-5.45,0-9.884-4.434-9.884-9.884c0-5.451,4.434-9.885,9.884-9.885
				c5.451,0,9.885,4.434,9.885,9.885C87.922,232.984,83.488,237.418,78.037,237.418z"/>
		</g>
	</g>
	<g>
		<g>
			<circle class="st24" cx="177.653" cy="227.533" r="11.385"/>
		</g>
	</g>
	<g>
		<g>
			<path class="st0" d="M177.653,214.649c-7.104,0-12.885,5.78-12.885,12.885s5.78,12.884,12.885,12.884
				c7.105,0,12.884-5.78,12.884-12.884S184.757,214.649,177.653,214.649z M177.653,237.418c-5.451,0-9.885-4.434-9.885-9.884
				c0-5.451,4.434-9.885,9.885-9.885c5.45,0,9.884,4.434,9.884,9.885C187.537,232.984,183.103,237.418,177.653,237.418z"/>
		</g>
	</g>
	<g>
		<g>
			<path class="st6" d="M211.879,200.444l-8.721-8.721l-9.369-9.369l-4.935-4.935l-23.031-23.031
				c-1.518,2.167-3.246,4.23-5.178,6.162c-1.932,1.932-3.995,3.66-6.162,5.178l46.056,46.056c3.131,3.132,8.208,3.132,11.34,0
				C215.011,208.653,215.011,203.576,211.879,200.444z"/>
		</g>
	</g>
	<g>
		<g>
			<path class="st0" d="M212.94,199.384l-8.721-8.721c-0.586-0.586-1.535-0.586-2.121,0c-0.586,0.586-0.586,1.536,0,2.121
				l8.721,8.721c2.541,2.542,2.541,6.677,0,9.219c-1.231,1.232-2.868,1.909-4.609,1.909c-1.741,0-3.378-0.678-4.609-1.909
				l-44.817-44.817c1.726-1.31,3.377-2.75,4.922-4.296c1.545-1.545,2.986-3.196,4.296-4.923l26.727,26.727
				c0.586,0.586,1.536,0.586,2.121,0c0.586-0.586,0.586-1.536,0-2.121l-27.966-27.966c-0.313-0.314-0.751-0.472-1.191-0.434
				c-0.442,0.039-0.844,0.271-1.098,0.633c-1.478,2.109-3.164,4.116-5.01,5.962c-1.847,1.847-3.853,3.533-5.962,5.01
				c-0.363,0.254-0.595,0.656-0.634,1.098c-0.039,0.442,0.12,0.878,0.434,1.191l46.057,46.056c1.797,1.798,4.188,2.788,6.73,2.788
				c2.543,0,4.933-0.99,6.73-2.788C216.651,209.134,216.651,203.095,212.94,199.384z"/>
		</g>
	</g>
	<g>
		<g>
			<path class="st2" d="M174.2,149.498l-3.644-3.644c-2.251,5.34-5.56,10.345-9.911,14.696c-4.351,4.351-9.356,7.659-14.696,9.911
				l3.644,3.644c2.591,2.592,6.801,2.592,9.392,0l15.214-15.214C176.791,156.299,176.791,152.09,174.2,149.498z"/>
		</g>
	</g>
	<g>
		<g>
			<path class="st0" d="M175.26,148.438l-3.644-3.644c-0.353-0.353-0.859-0.505-1.349-0.412c-0.49,0.096-0.9,0.429-1.094,0.89
				c-2.238,5.309-5.464,10.093-9.589,14.218s-8.909,7.351-14.218,9.589c-0.46,0.194-0.794,0.604-0.89,1.094
				c-0.096,0.49,0.058,0.996,0.412,1.349l3.644,3.644c1.537,1.537,3.581,2.383,5.757,2.383c2.175,0,4.22-0.846,5.756-2.383
				l15.214-15.214c1.537-1.537,2.383-3.581,2.383-5.756C177.644,152.019,176.797,149.975,175.26,148.438z M173.139,157.83
				l-15.214,15.214c-0.97,0.97-2.261,1.504-3.635,1.504c-1.375,0-2.666-0.534-3.636-1.504l-2.106-2.106
				c4.868-2.324,9.286-5.455,13.158-9.327c3.872-3.872,7.003-8.29,9.327-13.158l2.107,2.107c0.97,0.97,1.504,2.261,1.504,3.636
				C174.644,155.569,174.109,156.86,173.139,157.83z"/>
		</g>
	</g>
	<g>
		<g>
			
				<ellipse transform="matrix(0.2898 -0.9571 0.9571 0.2898 -31.4813 213.158)" class="st1" cx="127.886" cy="127.791" rx="46.326" ry="46.326"/>
		</g>
	</g>
	<g>
		<g>
			<path class="st0" d="M161.704,93.974c-9.033-9.033-21.043-14.008-33.818-14.008c-0.001,0,0,0,0,0
				c-12.774,0-24.785,4.975-33.818,14.008c-18.648,18.647-18.648,48.989,0,67.636c9.324,9.324,21.571,13.985,33.818,13.985
				c12.247,0,24.495-4.662,33.818-13.985C180.351,142.962,180.351,112.621,161.704,93.974z M159.583,159.488
				c-17.477,17.477-45.916,17.477-63.394,0c-17.478-17.478-17.478-45.917,0-63.394c17.478-17.477,45.917-17.477,63.394,0
				C177.06,113.572,177.06,142.01,159.583,159.488z"/>
		</g>
	</g>
	<g>
		<g>
			<path class="st12" d="M152.28,103.397c-11.986-11.986-30.593-13.299-44.041-3.957l-9.25,9.502
				c-8.745,13.378-7.246,31.493,4.504,43.242c13.472,13.472,35.315,13.472,48.788,0C165.752,138.713,165.752,116.87,152.28,103.397z
				"/>
		</g>
	</g>
	<g>
		<g>
			<path class="st0" d="M153.34,102.337c-12.326-12.328-31.655-14.063-45.957-4.128c-0.68,0.473-0.849,1.407-0.376,2.088
				c0.472,0.68,1.406,0.849,2.088,0.376c13.109-9.106,30.825-7.514,42.124,3.786c6.233,6.232,9.665,14.519,9.665,23.333
				c0,8.814-3.433,17.101-9.665,23.333c-12.866,12.865-33.8,12.865-46.666,0c-10.983-10.983-12.795-28.378-4.309-41.361
				c0.454-0.693,0.259-1.623-0.435-2.076c-0.694-0.453-1.623-0.258-2.076,0.435c-9.259,14.165-7.283,33.143,4.699,45.124
				c7.018,7.018,16.236,10.527,25.455,10.527s18.437-3.509,25.454-10.527c6.799-6.799,10.544-15.839,10.544-25.455
				C163.884,118.176,160.14,109.136,153.34,102.337z"/>
		</g>
	</g>
	<g>
		<g>
			<rect x="16.845" y="116.534" class="st14" width="22.769" height="22.769"/>
		</g>
	</g>
	<g>
		<g>
			<path class="st0" d="M39.614,115.034h-22.77c-0.829,0-1.5,0.671-1.5,1.5v22.769c0,0.829,0.671,1.5,1.5,1.5h22.77
				c0.829,0,1.5-0.671,1.5-1.5v-22.769C41.114,115.705,40.443,115.034,39.614,115.034z M38.114,137.803h-19.77v-19.769h19.77
				V137.803z"/>
		</g>
	</g>
	<g>
		<g>
			<rect x="116.46" y="116.534" class="st14" width="22.769" height="22.769"/>
		</g>
	</g>
	<g>
		<g>
			<path class="st0" d="M139.229,115.034H116.46c-0.829,0-1.5,0.671-1.5,1.5v22.769c0,0.829,0.671,1.5,1.5,1.5h22.769
				c0.829,0,1.5-0.671,1.5-1.5v-22.769C140.729,115.705,140.058,115.034,139.229,115.034z M137.729,137.803H117.96v-19.769h19.769
				V137.803z"/>
		</g>
	</g>
	<g>
		<g>
			<path class="st13" d="M151.215,104.458c-6.23-6.23-14.52-9.66-23.33-9.66c-2.56,0-5.07,0.29-7.5,0.86
				c5.95,1.37,11.41,4.38,15.83,8.8c12.87,12.87,12.87,33.8,0,46.67c-4.51,4.51-10.02,7.45-15.83,8.79
				c10.73,2.49,22.48-0.44,30.83-8.79C164.085,138.258,164.085,117.328,151.215,104.458z"/>
		</g>
	</g>
</g>
</svg>
