<?xml version="1.0" encoding="utf-8"?>
<!-- Generator: Adobe Illustrator 22.0.1, SVG Export Plug-In . SVG Version: 6.00 Build 0)  -->
<svg version="1.1" id="Layer_1" xmlns="http://www.w3.org/2000/svg" xmlns:xlink="http://www.w3.org/1999/xlink" x="0px" y="0px"
	 viewBox="0 0 256 256" style="enable-background:new 0 0 256 256;" xml:space="preserve">
<style type="text/css">
	.st0{fill:#3A312A;}
	.st1{fill:#F16C7A;}
	.st2{fill:#D7E057;}
	.st3{fill:#F8E4C8;}
	.st4{fill:#89C4DB;}
	.st5{fill-rule:evenodd;clip-rule:evenodd;fill:#F8E4C8;}
	.st6{fill:#87796F;}
	.st7{fill:#D4DB56;}
	.st8{fill:#F59689;}
	.st9{fill:#6CA6BE;}
	.st10{fill:#695B51;}
	.st11{fill:#F7E3C7;}
	.st12{fill:#8AC6DD;}
	.st13{fill:#6CA8BF;}
	.st14{fill:#D6DF58;}
	.st15{fill:#FAE6CA;}
	.st16{fill:#EF6D7A;}
	.st17{fill:#DDC9AC;}
	.st18{fill:#D24E5C;}
	.st19{fill:#6A5C52;}
	.st20{fill:#B9C239;}
	.st21{fill:#FCE8CB;}
	.st22{fill:#DECAAD;}
	.st23{fill:#D5DE58;}
	.st24{fill:#8AC5DC;}
	.st25{fill:#D34E5C;}
	.st26{fill:#ED6E7A;}
	.st27{fill:#B8C136;}
</style>
<g>
	<g>
		<g>
			<path class="st6" d="M66.978,230.422c0,4.987,4.043,9.03,9.03,9.03h104.439c4.987,0,9.03-4.043,9.03-9.03H66.978z"/>
		</g>
	</g>
	<g>
		<g>
			<path class="st0" d="M189.477,228.922H66.978c-0.829,0-1.5,0.671-1.5,1.5c0,5.807,4.724,10.53,10.53,10.53h47.195
				c0.829,0,1.5-0.671,1.5-1.5s-0.671-1.5-1.5-1.5H76.008c-3.639,0-6.683-2.594-7.38-6.03h119.199
				c-0.697,3.436-3.741,6.03-7.38,6.03h-44.444c-0.828,0-1.5,0.671-1.5,1.5s0.672,1.5,1.5,1.5h44.444
				c5.807,0,10.53-4.724,10.53-10.53C190.977,229.594,190.306,228.922,189.477,228.922z"/>
		</g>
	</g>
	<g>
		<g>
			<path class="st2" d="M236.478,123.339h-1.382c-0.81-3.541-2.222-6.853-4.124-9.822l1.017-1.017c1.172-1.172,1.172-3.072,0-4.243
				l-5.402-5.402c-1.172-1.172-3.071-1.172-4.243,0l-1.055,1.055c-2.962-1.866-6.26-3.247-9.783-4.033v-1.511c0-1.657-1.343-3-3-3
				h-7.64c-1.657,0-3,1.344-3,3v1.511c-1.867,0.503-6.821,2.167-9.783,4.033l-1.055-1.055c-1.172-1.172-3.071-1.172-4.243,0
				l-5.402,5.402c-1.172,1.172-1.172,3.071,0,4.243l1.017,1.017c-1.902,2.968-3.314,6.28-4.124,9.822h-1.382c-1.657,0-3,1.343-3,3
				v7.64c0,1.657,1.343,3,3,3h1.31c0.779,3.585,2.174,6.94,4.069,9.948l-0.89,0.89c-1.172,1.172-1.172,3.071,0,4.243l5.402,5.402
				c1.172,1.172,3.071,1.172,4.243,0l0.852-0.852c3.014,1.931,6.383,3.356,9.987,4.16v1.181c0,1.657,1.343,3,3,3h7.64
				c1.657,0,3-1.343,3-3v-1.181c3.603-0.804,6.972-2.229,9.987-4.16l0.852,0.852c1.172,1.172,3.071,1.172,4.243,0l5.402-5.402
				c1.172-1.172,1.172-3.071,0-4.243l-0.89-0.89c1.895-3.009,3.29-6.363,4.069-9.948h1.31c1.657,0,3-1.343,3-3v-7.64
				C239.478,124.682,238.135,123.339,236.478,123.339z M204.685,145.757c-8.615,0-15.598-6.984-15.598-15.598
				c0-8.615,6.984-15.598,15.598-15.598c8.615,0,15.598,6.984,15.598,15.598C220.283,138.774,213.299,145.757,204.685,145.757z"/>
		</g>
	</g>
	<g>
		<g>
			<path class="st0" d="M204.685,113.061c-9.428,0-17.099,7.67-17.099,17.098s7.671,17.098,17.099,17.098
				c9.428,0,17.099-7.67,17.099-17.098S214.112,113.061,204.685,113.061z M204.685,144.257c-7.774,0-14.099-6.324-14.099-14.098
				s6.324-14.098,14.099-14.098s14.099,6.324,14.099,14.098S212.459,144.257,204.685,144.257z M236.477,121.839h-0.209
				c-0.762-2.844-1.901-5.559-3.399-8.098l0.18-0.179c0.851-0.85,1.318-1.98,1.318-3.182c0-1.203-0.468-2.333-1.318-3.182
				l-5.402-5.402c-1.755-1.756-4.611-1.755-6.364,0l-0.225,0.224c-2.53-1.468-5.229-2.581-8.053-3.321v-0.332
				c0-2.481-2.019-4.5-4.5-4.5h-7.64c-2.481,0-4.501,2.019-4.501,4.5v0.389c-1.96,0.609-5.373,1.813-8.041,3.276l-0.236-0.236
				c-1.753-1.754-4.609-1.755-6.364,0l-5.402,5.402c-0.851,0.85-1.318,1.98-1.318,3.183c0,1.202,0.468,2.332,1.318,3.182l0.18,0.18
				c-1.498,2.539-2.638,5.254-3.399,8.098h-0.209c-2.481,0-4.5,2.019-4.5,4.5v7.64c0,2.481,2.019,4.5,4.5,4.5h0.125
				c0.739,2.883,1.867,5.639,3.362,8.218l-0.059,0.059c-0.851,0.85-1.318,1.98-1.318,3.182c0,1.203,0.468,2.333,1.318,3.182
				l5.402,5.403c1.754,1.754,4.61,1.753,6.364,0l0.015-0.015c2.589,1.527,5.359,2.681,8.263,3.442v0.001c0,2.481,2.02,4.5,4.501,4.5
				h7.64c2.481,0,4.5-2.019,4.5-4.5v-0.001c2.905-0.761,5.675-1.915,8.263-3.441l0.015,0.015c1.754,1.754,4.61,1.753,6.364,0
				l5.402-5.402c0.851-0.85,1.318-1.98,1.318-3.183c0-1.202-0.468-2.332-1.318-3.182l-0.059-0.059
				c1.495-2.58,2.623-5.335,3.362-8.218h0.125c2.482,0,4.5-2.019,4.5-4.5v-7.64C240.977,123.858,238.959,121.839,236.477,121.839z
				 M237.977,133.979c0,0.827-0.673,1.5-1.5,1.5h-1.31c-0.706,0-1.315,0.492-1.466,1.181c-0.732,3.363-2.033,6.548-3.872,9.468
				c-0.373,0.593-0.286,1.365,0.209,1.86l0.89,0.89c0.283,0.284,0.44,0.661,0.44,1.061c0,0.401-0.156,0.777-0.44,1.061l-5.402,5.402
				c-0.585,0.584-1.535,0.586-2.122,0l-0.852-0.852c-0.497-0.497-1.274-0.583-1.87-0.203c-2.922,1.873-6.119,3.205-9.503,3.959
				c-0.687,0.153-1.174,0.761-1.174,1.464v1.181c0,0.827-0.673,1.5-1.5,1.5h-7.64c-0.828,0-1.501-0.673-1.501-1.5v-1.181
				c0-0.703-0.487-1.311-1.174-1.464c-3.383-0.755-6.58-2.087-9.503-3.959c-0.249-0.159-0.53-0.237-0.809-0.237
				c-0.388,0-0.773,0.15-1.062,0.439l-0.852,0.852c-0.585,0.584-1.535,0.585-2.122,0L178.441,151
				c-0.283-0.283-0.439-0.66-0.439-1.061c0-0.4,0.156-0.777,0.439-1.061l0.89-0.89c0.495-0.495,0.582-1.267,0.209-1.86
				c-1.839-2.919-3.141-6.104-3.872-9.468c-0.15-0.689-0.76-1.181-1.466-1.181h-1.31c-0.827,0-1.5-0.673-1.5-1.5v-7.64
				c0-0.827,0.673-1.5,1.5-1.5h1.382c0.699,0,1.306-0.483,1.462-1.166c0.762-3.325,2.082-6.469,3.926-9.346
				c0.381-0.594,0.296-1.372-0.202-1.871l-1.018-1.017c-0.283-0.283-0.439-0.66-0.439-1.06c0-0.401,0.156-0.777,0.439-1.061
				l5.402-5.402c0.585-0.584,1.535-0.586,2.122,0l1.055,1.055c0.494,0.495,1.265,0.583,1.86,0.208
				c2.758-1.737,7.592-3.374,9.373-3.854c0.655-0.176,1.11-0.77,1.11-1.448v-1.511c0-0.827,0.673-1.5,1.501-1.5h7.64
				c0.827,0,1.5,0.673,1.5,1.5v1.511c0,0.703,0.487,1.311,1.174,1.464c3.304,0.737,6.436,2.028,9.31,3.838
				c0.595,0.374,1.366,0.287,1.86-0.208l1.055-1.055c0.585-0.584,1.535-0.586,2.122,0l5.402,5.403c0.283,0.283,0.44,0.66,0.44,1.061
				c0,0.4-0.156,0.777-0.44,1.061l-1.017,1.017c-0.498,0.499-0.583,1.276-0.202,1.87c1.843,2.878,3.164,6.022,3.925,9.347
				c0.156,0.682,0.763,1.166,1.462,1.166h1.382c0.827,0,1.5,0.673,1.5,1.5V133.979z"/>
		</g>
	</g>
	<g>
		<g>
			<path class="st16" d="M83.564,123.339h-1.382c-0.81-3.541-2.222-6.853-4.124-9.822l1.017-1.017c1.172-1.172,1.172-3.072,0-4.243
				l-5.402-5.402c-1.172-1.172-3.071-1.172-4.243,0l-1.055,1.055c-2.962-1.866-6.26-3.247-9.783-4.033v-1.511c0-1.657-1.343-3-3-3
				h-7.64c-1.657,0-3,1.344-3,3v1.511c-1.867,0.503-6.821,2.167-9.783,4.033l-1.055-1.055c-1.172-1.172-3.071-1.172-4.243,0
				l-5.402,5.402c-1.172,1.172-1.172,3.071,0,4.243l1.017,1.017c-1.902,2.968-3.314,6.28-4.124,9.822h-1.382c-1.657,0-3,1.343-3,3
				v7.64c0,1.657,1.343,3,3,3h1.31c0.779,3.585,2.174,6.94,4.069,9.948l-0.89,0.89c-1.172,1.172-1.172,3.071,0,4.243l5.402,5.402
				c1.172,1.172,3.071,1.172,4.243,0l0.852-0.852c3.014,1.931,6.383,3.356,9.987,4.16v1.181c0,1.657,1.343,3,3,3h7.64
				c1.657,0,3-1.343,3-3v-1.181c3.603-0.804,6.972-2.229,9.987-4.16l0.852,0.852c1.172,1.172,3.071,1.172,4.243,0l5.402-5.402
				c1.172-1.172,1.172-3.071,0-4.243l-0.89-0.89c1.895-3.009,3.29-6.363,4.069-9.948h1.31c1.657,0,3-1.343,3-3v-7.64
				C86.564,124.682,85.221,123.339,83.564,123.339z M51.771,145.757c-8.615,0-15.598-6.984-15.598-15.598
				c0-8.615,6.984-15.598,15.598-15.598c8.615,0,15.598,6.984,15.598,15.598C67.369,138.774,60.386,145.757,51.771,145.757z"/>
		</g>
	</g>
	<g>
		<g>
			<path class="st0" d="M83.564,121.839h-0.209c-0.762-2.844-1.901-5.559-3.399-8.098l0.18-0.179c0.85-0.85,1.318-1.98,1.318-3.182
				c0-1.203-0.468-2.333-1.318-3.182l-5.402-5.402c-0.85-0.85-1.98-1.318-3.182-1.318c-1.203,0-2.332,0.468-3.182,1.318
				l-0.225,0.224c-2.53-1.468-5.229-2.581-8.053-3.321v-0.332c0-2.481-2.019-4.5-4.501-4.5h-7.64c-2.482,0-4.5,2.019-4.5,4.5v0.389
				c-1.961,0.609-5.374,1.813-8.042,3.276l-0.236-0.236c-1.755-1.755-4.609-1.755-6.364,0l-5.402,5.402
				c-0.85,0.85-1.318,1.98-1.318,3.183c0,1.202,0.468,2.332,1.318,3.182l0.18,0.18c-1.498,2.54-2.638,5.254-3.399,8.098h-0.209
				c-2.481,0-4.5,2.019-4.5,4.5v7.64c0,2.481,2.019,4.5,4.5,4.5h0.124c0.739,2.883,1.867,5.638,3.363,8.218l-0.059,0.059
				c-0.85,0.85-1.318,1.98-1.318,3.182c0,1.203,0.468,2.333,1.318,3.182l5.402,5.403c1.754,1.753,4.609,1.753,6.365,0l0.014-0.015
				c2.588,1.527,5.358,2.681,8.263,3.442v0.001c0,2.481,2.018,4.5,4.5,4.5h7.64c2.482,0,4.501-2.019,4.501-4.5v-0.001
				c2.904-0.761,5.675-1.915,8.263-3.442l0.015,0.015c1.754,1.755,4.609,1.755,6.364,0l5.402-5.402
				c0.85-0.85,1.318-1.98,1.318-3.183c0-1.202-0.468-2.332-1.318-3.183l-0.059-0.059c1.496-2.579,2.624-5.334,3.364-8.218h0.124
				c2.481,0,4.5-2.019,4.5-4.5v-7.64C88.065,123.858,86.045,121.839,83.564,121.839z M85.065,133.979c0,0.827-0.673,1.5-1.5,1.5
				h-1.31c-0.706,0-1.316,0.492-1.466,1.181c-0.731,3.364-2.034,6.549-3.873,9.468c-0.373,0.593-0.287,1.365,0.209,1.86l0.89,0.889
				c0.283,0.284,0.439,0.661,0.439,1.061c0,0.401-0.156,0.777-0.439,1.061l-5.402,5.402c-0.585,0.585-1.537,0.586-2.122,0
				l-0.852-0.852c-0.498-0.498-1.276-0.583-1.87-0.203c-2.923,1.873-6.121,3.205-9.504,3.959c-0.685,0.153-1.173,0.761-1.173,1.464
				v1.181c0,0.827-0.673,1.5-1.501,1.5h-7.64c-0.827,0-1.5-0.673-1.5-1.5v-1.181c0-0.703-0.488-1.311-1.173-1.464
				c-3.384-0.755-6.582-2.087-9.504-3.959c-0.248-0.159-0.529-0.237-0.809-0.237c-0.388,0-0.772,0.15-1.062,0.439l-0.851,0.852
				c-0.585,0.585-1.537,0.584-2.122,0L25.528,151c-0.283-0.283-0.439-0.66-0.439-1.061c0-0.4,0.156-0.777,0.439-1.061l0.89-0.89
				c0.496-0.495,0.582-1.267,0.208-1.86c-1.839-2.92-3.142-6.105-3.872-9.467c-0.15-0.69-0.76-1.182-1.466-1.182h-1.311
				c-0.827,0-1.5-0.673-1.5-1.5v-7.64c0-0.827,0.673-1.5,1.5-1.5h1.382c0.7,0,1.306-0.483,1.462-1.166
				c0.76-3.324,2.08-6.469,3.925-9.347c0.38-0.593,0.296-1.371-0.202-1.87l-1.017-1.018c-0.283-0.283-0.439-0.66-0.439-1.06
				c0-0.401,0.156-0.777,0.439-1.061l5.402-5.402c0.585-0.585,1.537-0.585,2.122,0l1.055,1.055c0.495,0.495,1.267,0.582,1.86,0.208
				c2.785-1.754,7.518-3.354,9.374-3.854c0.655-0.176,1.11-0.77,1.11-1.448v-1.511c0-0.827,0.673-1.5,1.5-1.5h7.64
				c0.827,0,1.501,0.673,1.501,1.5v1.511c0,0.703,0.488,1.311,1.173,1.464c3.305,0.737,6.437,2.028,9.311,3.838
				c0.593,0.374,1.365,0.287,1.86-0.208l1.056-1.055c0.566-0.566,1.554-0.567,2.122,0l5.402,5.403
				c0.283,0.283,0.439,0.66,0.439,1.061c0,0.4-0.156,0.777-0.439,1.061l-1.017,1.017c-0.499,0.498-0.582,1.276-0.203,1.87
				c1.844,2.877,3.165,6.022,3.925,9.347c0.156,0.682,0.763,1.166,1.462,1.166h1.382c0.827,0,1.5,0.673,1.5,1.5V133.979z
				 M51.771,113.061c-9.428,0-17.098,7.67-17.098,17.098s7.67,17.098,17.098,17.098c9.428,0,17.098-7.67,17.098-17.098
				S61.199,113.061,51.771,113.061z M51.771,144.257c-7.774,0-14.098-6.324-14.098-14.098s6.324-14.098,14.098-14.098
				c7.774,0,14.098,6.324,14.098,14.098S59.545,144.257,51.771,144.257z"/>
		</g>
	</g>
	<g>
		<g>
			<path class="st2" d="M48.139,26.211c-0.974,11.564-13.024,13.39-13.024,13.39C45.461,40.087,48.04,53.66,48.04,53.66
				c0.221-9.677,13.321-14.202,13.321-14.202C51.547,38.87,48.139,26.211,48.139,26.211z"/>
		</g>
	</g>
	<g>
		<g>
			<path class="st0" d="M61.451,37.96c-8.605-0.515-11.832-12.024-11.864-12.141c-0.191-0.703-0.863-1.162-1.584-1.102
				c-0.725,0.066-1.298,0.642-1.359,1.367C45.784,36.3,35.331,38.049,34.89,38.118c-0.763,0.115-1.313,0.79-1.273,1.56
				c0.04,0.77,0.657,1.384,1.428,1.421c9.028,0.425,11.499,12.718,11.523,12.842c0.137,0.711,0.759,1.217,1.472,1.217
				c0.042,0,0.084-0.002,0.126-0.005c0.764-0.064,1.357-0.693,1.374-1.459c0.195-8.508,12.192-12.777,12.313-12.819
				c0.675-0.235,1.092-0.914,0.994-1.623C62.748,38.544,62.165,38.003,61.451,37.96z M47.884,48.306
				c-1.357-3.13-3.708-6.907-7.587-8.876c2.931-1.405,6.409-3.913,8.202-8.273c1.551,3.071,4.199,6.88,8.334,8.723
				C53.826,41.519,49.911,44.284,47.884,48.306z"/>
		</g>
	</g>
	<g>
		<g>
			<path class="st2" d="M26.44,43.192c-0.689,8.179-9.212,9.471-9.212,9.471c7.318,0.344,9.142,9.944,9.142,9.944
				c0.156-6.844,9.422-10.045,9.422-10.045C28.851,52.146,26.44,43.192,26.44,43.192z"/>
		</g>
	</g>
	<g>
		<g>
			<path class="st0" d="M35.882,51.063c-5.766-0.345-7.972-8.186-7.994-8.265c-0.19-0.702-0.852-1.17-1.582-1.102
				c-0.726,0.065-1.299,0.642-1.36,1.368c-0.579,6.871-7.647,8.067-7.942,8.114c-0.763,0.115-1.313,0.79-1.273,1.56
				c0.04,0.77,0.657,1.384,1.428,1.421c6.035,0.284,7.723,8.644,7.739,8.726c0.135,0.713,0.759,1.22,1.473,1.22
				c0.041,0,0.083-0.001,0.125-0.005c0.765-0.063,1.358-0.694,1.376-1.461c0.13-5.709,8.331-8.634,8.412-8.662
				c0.676-0.234,1.094-0.913,0.996-1.622C37.181,51.648,36.596,51.106,35.882,51.063z M26.297,57.858
				c-0.924-1.885-2.34-3.947-4.447-5.28c1.855-1.041,3.697-2.63,4.871-4.916c1.057,1.873,2.654,3.954,4.941,5.224
				C29.812,53.987,27.673,55.626,26.297,57.858z"/>
		</g>
	</g>
	<g>
		<g>
			<path class="st2" d="M26.44,16.534c-0.689,8.179-9.212,9.471-9.212,9.471c7.318,0.344,9.142,9.944,9.142,9.944
				c0.156-6.845,9.422-10.045,9.422-10.045C28.851,25.488,26.44,16.534,26.44,16.534z"/>
		</g>
	</g>
	<g>
		<g>
			<path class="st0" d="M35.882,24.406c-5.766-0.345-7.972-8.186-7.994-8.265c-0.19-0.702-0.852-1.163-1.582-1.102
				c-0.726,0.065-1.299,0.642-1.36,1.368c-0.579,6.871-7.647,8.067-7.942,8.114c-0.763,0.115-1.313,0.79-1.273,1.56
				c0.04,0.77,0.657,1.384,1.428,1.421c6.035,0.284,7.723,8.644,7.739,8.726c0.135,0.713,0.759,1.22,1.473,1.22
				c0.041,0,0.083-0.001,0.125-0.005c0.765-0.063,1.358-0.694,1.376-1.461c0.13-5.71,8.331-8.634,8.412-8.662
				c0.676-0.234,1.094-0.913,0.996-1.622C37.181,24.991,36.596,24.449,35.882,24.406z M26.297,31.201
				c-0.924-1.885-2.34-3.947-4.447-5.28c1.855-1.041,3.697-2.63,4.871-4.916c1.057,1.874,2.654,3.954,4.941,5.224
				C29.812,27.33,27.673,28.969,26.297,31.201z"/>
		</g>
	</g>
	<g>
		<g>
			<path class="st3" d="M158.468,153.187h-16.431v-10.678c-4.545,3.151-9.247,5.01-13.81,5.01c-4.377,0-8.996-1.877-13.522-5.065
				h-0.279v10.734h-16.44c-13.735,0-24.869,11.133-24.869,24.869v22.537h110.22v-22.537
				C183.337,164.32,172.204,153.187,158.468,153.187z"/>
		</g>
	</g>
	<g>
		<g>
			<path class="st0" d="M158.469,151.687h-14.931v-9.178c0-0.558-0.31-1.07-0.805-1.329c-0.494-0.258-1.09-0.222-1.55,0.096
				c-4.539,3.147-8.898,4.743-12.956,4.743c-3.885,0-8.143-1.612-12.658-4.792c-0.253-0.178-0.555-0.273-0.864-0.273h-0.279
				c-0.829,0-1.5,0.671-1.5,1.5v9.234h-14.94c-14.54,0-26.369,11.829-26.369,26.369v22.537c0,0.829,0.671,1.5,1.5,1.5h110.22
				c0.828,0,1.5-0.671,1.5-1.5v-22.537C184.838,163.516,173.009,151.687,158.469,151.687z M181.838,199.092H74.618v-21.037
				c0-12.886,10.483-23.369,23.369-23.369h16.44c0.829,0,1.5-0.671,1.5-1.5v-8.132c4.283,2.632,8.412,3.964,12.3,3.964
				c3.95,0,8.081-1.265,12.311-3.765v7.933c0,0.829,0.672,1.5,1.5,1.5h16.431c12.886,0,23.369,10.483,23.369,23.369V199.092z"/>
		</g>
	</g>
	<g>
		<g>
			<path class="st4" d="M158.468,153.176h-3.93l0.1,0.08l-17.09,22.66l-8.82-6.64l-8.82,6.64l-17.09-22.66l0.1-0.08h-4.93
				c-13.74,0-24.87,11.14-24.87,24.87v22.55h110.22v-22.55C183.338,164.316,172.208,153.176,158.468,153.176z"/>
		</g>
	</g>
	<g>
		<g>
			<path class="st0" d="M158.468,151.676h-3.93c-0.637,0-1.203,0.401-1.415,1.002c-0.018,0.051-0.033,0.103-0.045,0.155
				l-15.825,20.983l-7.623-5.739c-0.533-0.402-1.271-0.403-1.804,0l-7.623,5.739l-15.825-20.982
				c-0.012-0.052-0.027-0.104-0.045-0.155c-0.211-0.601-0.778-1.003-1.415-1.003h-4.93c-14.54,0-26.37,11.83-26.37,26.37v22.55
				c0,0.829,0.671,1.5,1.5,1.5h110.22c0.828,0,1.5-0.671,1.5-1.5v-22.55C184.838,163.506,173.008,151.676,158.468,151.676z
				 M181.838,199.096H74.618v-21.05c0-12.886,10.483-23.37,23.37-23.37h4.022l16.7,22.144c0.499,0.661,1.439,0.793,2.1,0.295
				l7.918-5.961l7.917,5.961c0.661,0.498,1.601,0.367,2.1-0.295l16.7-22.144h3.022c12.887,0,23.37,10.484,23.37,23.37V199.096z"/>
		</g>
	</g>
	<g>
		<g>
			<path class="st5" d="M85.524,81.752c-5.405,0-9.786,4.381-9.786,9.786c0,5.404,4.381,9.785,9.786,9.785
				c5.404,0,9.785-4.381,9.785-9.785C95.31,86.133,90.929,81.752,85.524,81.752z"/>
		</g>
	</g>
	<g>
		<g>
			<path class="st0" d="M85.524,80.252c-6.223,0-11.286,5.062-11.286,11.286s5.063,11.286,11.286,11.286S96.81,97.761,96.81,91.538
				S91.748,80.252,85.524,80.252z M85.524,99.823c-4.569,0-8.286-3.717-8.286-8.286s3.717-8.286,8.286-8.286
				s8.286,3.717,8.286,8.286S90.093,99.823,85.524,99.823z"/>
		</g>
	</g>
	<g>
		<g>
			<path class="st5" d="M170.934,81.752c-5.404,0-9.786,4.381-9.786,9.786c0,5.404,4.381,9.785,9.786,9.785
				c5.404,0,9.785-4.381,9.785-9.785C180.72,86.133,176.339,81.752,170.934,81.752z"/>
		</g>
	</g>
	<g>
		<g>
			<path class="st0" d="M170.935,80.252c-6.224,0-11.286,5.062-11.286,11.286s5.063,11.286,11.286,11.286
				c6.223,0,11.285-5.063,11.285-11.286S177.157,80.252,170.935,80.252z M170.935,99.823c-4.569,0-8.286-3.717-8.286-8.286
				s3.717-8.286,8.286-8.286c4.568,0,8.285,3.717,8.285,8.286S175.503,99.823,170.935,99.823z"/>
		</g>
	</g>
	<g>
		<g>
			<path class="st6" d="M173.627,63.761c0-16.45-9.68-30.74-23.89-37.95c0.56,3.72,0.86,7.65,0.86,11.72c0,0.55-0.01,1.09-0.02,1.64
				c-0.12,5.97,2.53,11.59,6.94,15.63c7.85,7.18,13.04,17.21,13.95,28.45c0.11-0.16,0.37-0.24,0.57-0.31
				C173.887,82.261,173.627,65.251,173.627,63.761z"/>
		</g>
	</g>
	<g>
		<g>
			<path class="st0" d="M175.13,64.281l-0.003-0.52c0-16.5-9.469-31.554-24.711-39.288c-0.5-0.254-1.101-0.207-1.557,0.121
				c-0.455,0.329-0.688,0.884-0.605,1.44c0.56,3.717,0.843,7.585,0.843,11.497c0,0.531-0.01,1.052-0.02,1.61
				c-0.125,6.216,2.582,12.327,7.427,16.767c7.831,7.162,12.613,16.915,13.468,27.464c0.051,0.632,0.495,1.164,1.107,1.328
				c0.129,0.034,0.259,0.051,0.388,0.051c0.359,0,0.709-0.13,0.981-0.365c0.011-0.004,0.023-0.008,0.033-0.011
				c0.002-0.001,0.048-0.017,0.05-0.017c0.008-0.003,0.016-0.006,0.023-0.009C173.762,83.905,175.265,83.353,175.13,64.281z
				 M171.893,76.37c-2.061-8.674-6.674-16.558-13.362-22.675c-4.209-3.856-6.561-9.139-6.453-14.528
				c0.01-0.548,0.02-1.087,0.02-1.636c0-3.034-0.164-6.044-0.49-8.983c12.729,7.541,20.521,20.788,20.521,35.213l0.003,0.541
				C172.17,69.928,172.058,73.761,171.893,76.37z"/>
		</g>
	</g>
	<g>
		<g>
			<path class="st0" d="M93.763,181.282c-0.829,0-1.5,0.671-1.5,1.5v17.812c0,0.829,0.671,1.5,1.5,1.5s1.5-0.671,1.5-1.5v-17.812
				C95.263,181.954,94.592,181.282,93.763,181.282z"/>
		</g>
	</g>
	<g>
		<g>
			<path class="st0" d="M163.696,181.282c-0.828,0-1.5,0.671-1.5,1.5v17.812c0,0.829,0.672,1.5,1.5,1.5c0.828,0,1.5-0.671,1.5-1.5
				v-17.812C165.196,181.954,164.524,181.282,163.696,181.282z"/>
		</g>
	</g>
	<g>
		<g>
			<polygon class="st7" points="132.948,183.936 124.478,183.936 121.908,200.596 135.518,200.596 			"/>
		</g>
	</g>
	<g>
		<g>
			<path class="st0" d="M137,200.368l-2.569-16.66c-0.112-0.731-0.742-1.271-1.482-1.271h-8.47c-0.74,0-1.37,0.54-1.482,1.271
				l-2.57,16.66c-0.067,0.433,0.059,0.873,0.344,1.205c0.285,0.332,0.701,0.523,1.139,0.523h13.61c0.438,0,0.854-0.191,1.139-0.523
				C136.941,201.24,137.066,200.8,137,200.368z M123.657,199.096l2.107-13.66h5.898l2.106,13.66H123.657z"/>
		</g>
	</g>
	<g>
		<g>
			<polygon class="st7" points="121.622,169.263 124.485,183.932 132.938,183.932 135.869,169.263 			"/>
		</g>
	</g>
	<g>
		<g>
			<path class="st0" d="M137.029,168.312c-0.285-0.347-0.711-0.549-1.16-0.549h-14.247c-0.448,0-0.873,0.2-1.158,0.546
				c-0.285,0.346-0.4,0.801-0.315,1.241l2.863,14.669c0.137,0.704,0.754,1.212,1.472,1.212h8.453c0.715,0,1.331-0.505,1.471-1.206
				l2.932-14.669C137.428,169.116,137.314,168.659,137.029,168.312z M131.708,182.432h-5.988l-2.277-11.669h10.597L131.708,182.432z
				"/>
		</g>
	</g>
	<g>
		<g>
			
				<rect x="110.25" y="147.054" transform="matrix(0.7986 -0.6019 0.6019 0.7986 -73.7274 102.1667)" class="st6" width="11.09" height="28.387"/>
		</g>
	</g>
	<g>
		<g>
			<path class="st0" d="M129.964,168.343l-17.086-22.67c-0.239-0.318-0.595-0.527-0.989-0.583c-0.392-0.054-0.793,0.048-1.111,0.288
				l-8.856,6.674c-0.662,0.499-0.794,1.439-0.295,2.101l17.085,22.67c0.295,0.391,0.744,0.597,1.199,0.597
				c0.315,0,0.631-0.098,0.902-0.302l8.856-6.674c0.317-0.239,0.527-0.595,0.583-0.989
				C130.307,169.061,130.203,168.661,129.964,168.343z M120.205,173.82l-15.279-20.275l6.46-4.869l15.28,20.275L120.205,173.82z"/>
		</g>
	</g>
	<g>
		<g>
			
				<rect x="127.471" y="155.703" transform="matrix(0.6019 -0.7986 0.7986 0.6019 -72.3704 177.3341)" class="st6" width="28.387" height="11.09"/>
		</g>
	</g>
	<g>
		<g>
			<path class="st0" d="M156.121,153.042c-0.056-0.394-0.265-0.75-0.583-0.989l-8.857-6.674c-0.66-0.5-1.602-0.367-2.101,0.295
				l-17.085,22.67c-0.499,0.662-0.367,1.602,0.295,2.101l8.856,6.674c0.27,0.204,0.587,0.302,0.901,0.302
				c0.455,0,0.904-0.206,1.199-0.597l17.086-22.67C156.073,153.835,156.177,153.435,156.121,153.042z M137.255,173.82l-6.46-4.869
				l15.279-20.275l6.461,4.869L137.255,173.82z"/>
		</g>
	</g>
	<g>
		<g>
			<path class="st3" d="M157.513,54.798c-4.406-4.033-7.056-9.658-6.937-15.63c0.011-0.543,0.016-1.088,0.016-1.636
				c0-4.07-0.3-8-0.86-11.72c-6.27-3.18-13.42-4.979-21-4.979c-7.4,0-14.38,1.71-20.53,4.74c-0.59,3.79-0.9,7.8-0.9,11.96
				c0,0.073,0,0.146,0,0.219c0.017,6.269-2.733,12.149-7.471,16.254c-9.177,7.952-14.983,19.687-14.983,32.784
				c0,23.958,23.997,60.731,43.38,60.731c20.306,0,43.38-36.773,43.38-60.731C171.609,74.12,166.175,62.726,157.513,54.798z"/>
		</g>
	</g>
	<g>
		<g>
			<path class="st0" d="M158.525,53.691c-4.206-3.851-6.557-9.133-6.449-14.494c0.011-0.553,0.017-1.108,0.017-1.666
				c0-4.056-0.295-8.074-0.877-11.943c-0.072-0.48-0.372-0.895-0.805-1.115c-6.634-3.364-14.13-5.142-21.679-5.142
				c-7.47,0-14.601,1.647-21.193,4.894c-0.438,0.216-0.744,0.632-0.819,1.115c-0.609,3.912-0.919,8.014-0.919,12.191l0,0.222
				c0.016,5.765-2.518,11.274-6.953,15.117C89,61.407,83.35,73.769,83.35,86.788c0,11.688,5.628,27.092,14.687,40.203
				c9.532,13.794,20.818,22.029,30.192,22.029c9.867,0,20.999-8.032,30.544-22.037c8.843-12.975,14.336-28.376,14.336-40.195
				C173.109,74.237,167.794,62.174,158.525,53.691z M156.295,125.293c-8.846,12.978-19.338,20.726-28.066,20.726
				c-8.389,0-18.753-7.751-27.724-20.734C91.773,112.649,86.35,97.898,86.35,86.788c0-12.148,5.272-23.684,14.465-31.65
				c5.094-4.415,8.006-10.754,7.988-17.388l0-0.218c0-3.748,0.258-7.428,0.766-10.953c5.979-2.818,12.422-4.247,19.164-4.247
				c6.817,0,13.587,1.545,19.629,4.474c0.485,3.484,0.732,7.088,0.732,10.726c0,0.538-0.006,1.073-0.017,1.606
				c-0.124,6.223,2.582,12.333,7.424,16.767c8.649,7.916,13.609,19.173,13.609,30.883
				C170.109,98.036,164.815,112.79,156.295,125.293z"/>
		</g>
	</g>
	<g>
		<g>
			<path class="st0" d="M112.914,82.064c-2.338,0-4.234,1.896-4.234,4.234c0,2.339,1.896,4.234,4.234,4.234
				c2.339,0,4.234-1.896,4.234-4.234C117.148,83.959,115.252,82.064,112.914,82.064z"/>
		</g>
	</g>
	<g>
		<g>
			<path class="st0" d="M143.545,82.064c-2.339,0-4.234,1.896-4.234,4.234c0,2.339,1.896,4.234,4.234,4.234
				c2.339,0,4.234-1.896,4.234-4.234C147.779,83.959,145.883,82.064,143.545,82.064z"/>
		</g>
	</g>
	<g>
		<g>
			<path class="st8" d="M104.451,93.433c-4.028,0-7.294,2.441-7.294,5.453s3.266,5.453,7.294,5.453c4.028,0,7.294-2.441,7.294-5.453
				S108.48,93.433,104.451,93.433z"/>
		</g>
	</g>
	<g>
		<g>
			<path class="st8" d="M152.007,93.433c-4.028,0-7.294,2.441-7.294,5.453s3.266,5.453,7.294,5.453s7.294-2.441,7.294-5.453
				S156.035,93.433,152.007,93.433z"/>
		</g>
	</g>
	<g>
		<g>
			<path class="st0" d="M140.741,113.109c-0.777-0.292-1.641,0.103-1.931,0.878c-0.841,2.244-4.135,6.487-10.582,6.487
				c-5.039,0-8.517-2.161-10.632-6.605c-0.356-0.748-1.251-1.065-1.999-0.71c-0.748,0.356-1.066,1.251-0.71,1.999
				c2.627,5.519,7.116,8.316,13.341,8.316c7.03,0,11.87-4.373,13.391-8.435C141.91,114.264,141.517,113.399,140.741,113.109z"/>
		</g>
	</g>
	<g>
		<g>
			<path class="st0" d="M109.293,69.021c-9.41,0-17.065,7.656-17.065,17.065s7.655,17.065,17.065,17.065
				c9.41,0,17.065-7.655,17.065-17.065S118.703,69.021,109.293,69.021z M109.293,100.151c-7.755,0-14.065-6.31-14.065-14.065
				c0-7.756,6.31-14.065,14.065-14.065c7.756,0,14.065,6.31,14.065,14.065C123.358,93.842,117.049,100.151,109.293,100.151z"/>
		</g>
	</g>
	<g>
		<g>
			<path class="st0" d="M148.163,69.021c-9.41,0-17.065,7.656-17.065,17.065s7.655,17.065,17.065,17.065
				c9.409,0,17.064-7.655,17.064-17.065S157.572,69.021,148.163,69.021z M148.163,100.151c-7.756,0-14.065-6.31-14.065-14.065
				c0-7.756,6.31-14.065,14.065-14.065c7.755,0,14.064,6.31,14.064,14.065C162.227,93.842,155.918,100.151,148.163,100.151z"/>
		</g>
	</g>
	<g>
		<g>
			<path class="st0" d="M132.598,84.555h-7.739c-0.829,0-1.5,0.671-1.5,1.5s0.671,1.5,1.5,1.5h7.739c0.828,0,1.5-0.671,1.5-1.5
				S133.426,84.555,132.598,84.555z"/>
		</g>
	</g>
	<g>
		<g>
			<path class="st9" d="M158.467,154.671h-3.02l-1.77,2.35c7.78,3.8,13.16,11.8,13.16,21.03v21.04h15v-21.04
				C181.837,165.161,171.357,154.671,158.467,154.671z"/>
		</g>
	</g>
	<g>
		<g>
			<path class="st0" d="M94.292,81.099l-8.984-0.906c-0.816-0.088-1.56,0.518-1.643,1.342c-0.083,0.824,0.518,1.56,1.342,1.643
				l8.984,0.906c0.051,0.005,0.102,0.008,0.152,0.008c0.761,0,1.413-0.577,1.49-1.35C95.718,81.917,95.117,81.182,94.292,81.099z"/>
		</g>
	</g>
	<g>
		<g>
			<path class="st0" d="M172.803,81.463c-0.098-0.823-0.846-1.406-1.667-1.312l-7.989,0.951c-0.822,0.098-1.41,0.844-1.311,1.666
				c0.091,0.763,0.738,1.323,1.487,1.323c0.06,0,0.119-0.003,0.18-0.011l7.989-0.951C172.313,83.032,172.901,82.286,172.803,81.463z
				"/>
		</g>
	</g>
	<g>
		<g>
			<path class="st6" d="M132.334,16.615c-14.672-0.917-27.652,5.868-34,12c-9.58,7.871-14.507,22.122-14.507,35.146
				c0,2.38,0.42,15.92,1.18,19.27c0.124-1.446,0.492-3.027,1.042-4.69c5.005-15.103,20.164-24.537,35.972-22.735
				c2.198,0.25,4.477,0.382,6.812,0.382c18.225,0,33-8.013,33-17.898C161.834,28.205,148.334,17.615,132.334,16.615z"/>
		</g>
	</g>
	<g>
		<g>
			<path class="st0" d="M132.428,15.118c-14.42-0.904-28.008,5.559-35.092,12.376c-9.259,7.637-15.008,21.526-15.008,36.267
				c0,2.404,0.409,16.039,1.217,19.602c0.156,0.687,0.767,1.168,1.462,1.168c0.035,0,0.069-0.001,0.104-0.003
				c0.738-0.051,1.328-0.632,1.391-1.369c0.108-1.265,0.435-2.727,0.972-4.346c4.743-14.313,19.204-23.445,34.379-21.717
				c2.279,0.26,4.628,0.392,6.982,0.392c19.346,0,34.5-8.521,34.5-19.398C163.334,27.078,148.602,16.129,132.428,15.118z
				 M128.834,54.488c-2.241,0-4.475-0.125-6.642-0.372C106.663,52.343,91.814,61,85.734,74.97c-0.26-4.564-0.407-9.603-0.407-11.209
				c0-13.68,5.479-27.021,13.959-33.987c0.031-0.026,0.061-0.052,0.09-0.081c6.182-5.972,17.735-11.661,30.306-11.661
				c0.849,0,1.702,0.026,2.559,0.08c12.992,0.812,28.094,9.715,28.094,19.977C160.334,46.978,145.909,54.488,128.834,54.488z"/>
		</g>
	</g>
	<g>
		<g>
			<path class="st6" d="M177.536,169.013H78.92c-4.136,0-7.489,3.353-7.489,7.489v46.433c0,4.136,3.353,7.489,7.489,7.489h98.616
				c4.136,0,7.489-3.353,7.489-7.489v-46.433C185.025,172.366,181.672,169.013,177.536,169.013z"/>
		</g>
	</g>
	<g>
		<g>
			<path class="st0" d="M177.536,167.513H78.92c-4.957,0-8.99,4.033-8.99,8.989v18.507c0,0.829,0.671,1.5,1.5,1.5s1.5-0.671,1.5-1.5
				v-18.507c0-3.303,2.687-5.989,5.99-5.989h98.616c3.303,0,5.989,2.687,5.989,5.989v46.433c0,3.303-2.687,5.989-5.989,5.989H78.92
				c-3.303,0-5.99-2.687-5.99-5.989v-14.668c0-0.829-0.671-1.5-1.5-1.5s-1.5,0.671-1.5,1.5v14.668c0,4.957,4.033,8.989,8.99,8.989
				h98.616c4.957,0,8.989-4.033,8.989-8.989v-46.433C186.525,171.545,182.493,167.513,177.536,167.513z"/>
		</g>
	</g>
	<g>
		<g>
			<circle class="st2" cx="128.228" cy="200.013" r="8.5"/>
		</g>
	</g>
	<g>
		<g>
			<path class="st0" d="M128.228,190.013c-5.514,0-10,4.486-10,10s4.486,10,10,10s9.999-4.486,9.999-10
				S133.742,190.013,128.228,190.013z M128.228,207.013c-3.86,0-7-3.14-7-7s3.14-7,7-7s6.999,3.14,6.999,7
				S132.088,207.013,128.228,207.013z"/>
		</g>
	</g>
	<g>
		<g>
			<path class="st10" d="M177.538,170.513h-15c3.3,0,5.99,2.69,5.99,5.99v46.43c0,3.29-2.66,5.96-5.94,5.99h15
				c3.28-0.03,5.94-2.7,5.94-5.99v-46.43C183.528,173.203,180.838,170.513,177.538,170.513z"/>
		</g>
	</g>
	<g>
		<g>
			<path class="st10" d="M172.828,231.922c-0.7,3.44-3.74,6.03-7.38,6.03h15c3.64,0,6.68-2.59,7.38-6.03H172.828z"/>
		</g>
	</g>
</g>
</svg>
