<?xml version="1.0" encoding="utf-8"?>
<!-- Generator: Adobe Illustrator 22.0.1, SVG Export Plug-In . SVG Version: 6.00 Build 0)  -->
<svg version="1.1" id="Layer_1" xmlns="http://www.w3.org/2000/svg" xmlns:xlink="http://www.w3.org/1999/xlink" x="0px" y="0px"
	 viewBox="0 0 256 256" style="enable-background:new 0 0 256 256;" xml:space="preserve">
<style type="text/css">
	.st0{fill:#3A312A;}
	.st1{fill:#F16C7A;}
	.st2{fill:#D7E057;}
	.st3{fill:#F8E4C8;}
	.st4{fill:#89C4DB;}
	.st5{fill-rule:evenodd;clip-rule:evenodd;fill:#F8E4C8;}
	.st6{fill:#87796F;}
	.st7{fill:#D4DB56;}
	.st8{fill:#F59689;}
	.st9{fill:#6CA6BE;}
	.st10{fill:#695B51;}
	.st11{fill:#F7E3C7;}
	.st12{fill:#8AC6DD;}
	.st13{fill:#6CA8BF;}
	.st14{fill:#D6DF58;}
	.st15{fill:#FAE6CA;}
	.st16{fill:#EF6D7A;}
	.st17{fill:#DDC9AC;}
	.st18{fill:#D24E5C;}
	.st19{fill:#6A5C52;}
	.st20{fill:#B9C239;}
	.st21{fill:#FCE8CB;}
	.st22{fill:#DECAAD;}
	.st23{fill:#D5DE58;}
	.st24{fill:#8AC5DC;}
	.st25{fill:#D34E5C;}
	.st26{fill:#ED6E7A;}
	.st27{fill:#B8C136;}
</style>
<g>
	<g>
		<g>
			<path class="st2" d="M225.919,26.092c-0.974,11.564-13.024,13.39-13.024,13.39c10.347,0.487,12.925,14.059,12.925,14.059
				c0.221-9.677,13.321-14.202,13.321-14.202C229.328,38.751,225.919,26.092,225.919,26.092z"/>
		</g>
	</g>
	<g>
		<g>
			<path class="st0" d="M239.231,37.84c-8.605-0.514-11.832-12.024-11.864-12.14c-0.191-0.703-0.862-1.166-1.583-1.102
				c-0.725,0.066-1.298,0.642-1.359,1.367c-0.86,10.215-11.314,11.964-11.754,12.033c-0.763,0.115-1.314,0.79-1.273,1.561
				c0.04,0.77,0.657,1.384,1.428,1.421c9.028,0.425,11.498,12.718,11.522,12.842c0.137,0.711,0.759,1.217,1.472,1.217
				c0.042,0,0.084-0.001,0.126-0.005c0.764-0.064,1.357-0.693,1.374-1.459c0.195-8.509,12.192-12.777,12.313-12.819
				c0.675-0.235,1.092-0.915,0.994-1.623C240.529,38.424,239.945,37.883,239.231,37.84z M225.665,48.187
				c-1.356-3.13-3.709-6.907-7.587-8.876c2.931-1.405,6.409-3.913,8.202-8.273c1.551,3.071,4.2,6.88,8.335,8.722
				C231.607,41.399,227.691,44.166,225.665,48.187z"/>
		</g>
	</g>
	<g>
		<g>
			<path class="st2" d="M204.221,43.072c-0.689,8.179-9.212,9.47-9.212,9.47c7.318,0.344,9.142,9.944,9.142,9.944
				c0.156-6.844,9.422-10.045,9.422-10.045C206.632,52.026,204.221,43.072,204.221,43.072z"/>
		</g>
	</g>
	<g>
		<g>
			<path class="st0" d="M213.662,50.944c-5.766-0.345-7.972-8.185-7.994-8.264c-0.19-0.702-0.853-1.168-1.582-1.102
				c-0.726,0.065-1.299,0.643-1.36,1.368c-0.579,6.871-7.646,8.066-7.942,8.113c-0.763,0.115-1.313,0.79-1.273,1.561
				c0.04,0.77,0.657,1.384,1.427,1.421c6.036,0.284,7.724,8.644,7.739,8.726c0.135,0.713,0.759,1.22,1.472,1.22
				c0.042,0,0.083-0.001,0.125-0.005c0.765-0.063,1.358-0.694,1.376-1.461c0.13-5.709,8.332-8.634,8.413-8.662
				c0.677-0.234,1.094-0.913,0.996-1.622C214.961,51.528,214.377,50.987,213.662,50.944z M204.078,57.739
				c-0.924-1.886-2.34-3.947-4.447-5.28c1.855-1.041,3.697-2.63,4.871-4.917c1.057,1.874,2.654,3.955,4.941,5.224
				C207.593,53.867,205.454,55.507,204.078,57.739z"/>
		</g>
	</g>
	<g>
		<g>
			<path class="st2" d="M204.221,16.415c-0.689,8.179-9.212,9.471-9.212,9.471c7.318,0.344,9.142,9.944,9.142,9.944
				c0.156-6.845,9.422-10.045,9.422-10.045C206.632,25.369,204.221,16.415,204.221,16.415z"/>
		</g>
	</g>
	<g>
		<g>
			<path class="st0" d="M213.663,24.287c-5.766-0.345-7.973-8.186-7.994-8.265c-0.19-0.702-0.853-1.168-1.582-1.102
				c-0.726,0.065-1.299,0.643-1.36,1.368c-0.579,6.871-7.646,8.067-7.942,8.114c-0.763,0.115-1.313,0.79-1.273,1.561
				c0.04,0.77,0.657,1.384,1.428,1.421c6.035,0.284,7.723,8.644,7.739,8.726c0.135,0.713,0.759,1.22,1.472,1.22
				c0.042,0,0.083-0.001,0.125-0.005c0.765-0.063,1.358-0.694,1.376-1.461c0.13-5.709,8.331-8.634,8.413-8.662
				c0.676-0.234,1.094-0.913,0.996-1.622C214.961,24.871,214.377,24.33,213.663,24.287z M204.078,31.082
				c-0.924-1.885-2.34-3.947-4.447-5.28c1.855-1.041,3.697-2.63,4.871-4.916c1.057,1.874,2.654,3.954,4.941,5.223
				C207.593,27.21,205.454,28.849,204.078,31.082z"/>
		</g>
	</g>
	<g>
		<g>
			<path class="st1" d="M176.338,36.841c-0.109-11.326-9.318-20.453-20.645-20.459L36.809,16.32
				c-11.413-0.006-20.668,9.244-20.668,20.657v158.966c0,11.409,9.248,20.657,20.657,20.657h119.186
				c11.408,0,20.657-9.249,20.657-20.657V68.445L176.338,36.841z"/>
		</g>
	</g>
	<g>
		<g>
			<path class="st0" d="M177.838,36.827c-0.116-12.094-10.05-21.938-22.144-21.944L36.81,14.82h-0.012
				c-5.916,0-11.478,2.303-15.663,6.486c-4.188,4.186-6.494,9.751-6.494,15.671v38.958c0,0.829,0.671,1.5,1.5,1.5s1.5-0.671,1.5-1.5
				V36.978c0-5.119,1.994-9.931,5.614-13.55c3.619-3.616,8.427-5.607,13.542-5.607h0.01l118.883,0.062
				c10.457,0.005,19.046,8.517,19.146,18.974l0.304,31.589v127.499c0,10.563-8.594,19.157-19.157,19.157H36.798
				c-10.563,0-19.157-8.594-19.157-19.157V89.184c0-0.829-0.671-1.5-1.5-1.5s-1.5,0.671-1.5,1.5v106.76
				c0,12.218,9.94,22.157,22.157,22.157h119.186c12.218,0,22.157-9.939,22.157-22.157V68.431L177.838,36.827z"/>
		</g>
	</g>
	<g>
		<g>
			<path class="st11" d="M147.506,39.31h-87.51c-11.526,0-20.854,9.328-20.854,20.854v158.582c0,11.526,9.328,20.854,20.854,20.854
				h118.792c11.526,0,20.854-9.329,20.854-20.854V91.445L147.506,39.31z"/>
		</g>
	</g>
	<g>
		<g>
			<path class="st0" d="M200.702,90.385L148.566,38.25c-0.281-0.281-0.663-0.439-1.06-0.439h-87.51
				c-12.326,0-22.354,10.028-22.354,22.354v158.583c0,12.326,10.028,22.354,22.354,22.354h55.774c0.829,0,1.5-0.671,1.5-1.5
				s-0.671-1.5-1.5-1.5H59.996c-10.672,0-19.354-8.683-19.354-19.354V60.164c0-10.672,8.682-19.354,19.354-19.354h86.889
				l51.257,51.256v126.68c0,10.672-8.683,19.354-19.354,19.354h-50.274c-0.829,0-1.5,0.671-1.5,1.5s0.671,1.5,1.5,1.5h50.274
				c12.326,0,22.354-10.028,22.354-22.354V91.445C201.142,91.047,200.983,90.666,200.702,90.385z"/>
		</g>
	</g>
	<g>
		<g>
			<path class="st11" d="M147.613,39.418v33.797c0,10.14,8.22,18.36,18.36,18.36h33.668v-0.129L147.613,39.418z"/>
		</g>
	</g>
	<g>
		<g>
			<path class="st0" d="M200.702,90.385l-52.028-52.028c-0.428-0.429-1.074-0.558-1.635-0.325c-0.561,0.232-0.926,0.779-0.926,1.386
				v33.797c0,10.951,8.909,19.86,19.86,19.86h33.668c0.829,0,1.5-0.671,1.5-1.5v-0.129
				C201.142,91.047,200.983,90.666,200.702,90.385z M165.974,90.075c-9.297,0-16.86-7.563-16.86-16.86V43.039l47.036,47.036H165.974
				z"/>
		</g>
	</g>
	<g>
		<g>
			<path class="st25" d="M174.841,36.853c-0.1-10.45-8.69-18.96-19.15-18.97h-15c10.46,0.01,19.05,8.52,19.15,18.97l0.12,12.79
				l15.14,15.15L174.841,36.853z"/>
		</g>
	</g>
	<g>
		<g>
			<path class="st12" d="M233.48,198.971h-14.586c-3.531,0-6.393,2.862-6.393,6.393v14.255c0,3.531,2.862,6.393,6.393,6.393h14.586
				c3.531,0,6.393-2.862,6.393-6.393v-14.255C239.873,201.833,237.01,198.971,233.48,198.971z"/>
		</g>
	</g>
	<g>
		<g>
			<path class="st0" d="M233.48,197.472h-14.586c-4.352,0-7.893,3.541-7.893,7.893v14.255c0,4.352,3.541,7.893,7.893,7.893h14.586
				c4.352,0,7.893-3.541,7.893-7.893v-14.255C241.373,201.012,237.832,197.472,233.48,197.472z M238.373,219.62
				c0,2.698-2.195,4.893-4.893,4.893h-14.586c-2.698,0-4.893-2.195-4.893-4.893v-14.255c0-2.698,2.195-4.893,4.893-4.893h14.586
				c2.698,0,4.893,2.195,4.893,4.893V219.62z"/>
		</g>
	</g>
	<g>
		<g>
			<path class="st2" d="M179.749,195.686h-21.908c-3.531,0-6.393,2.862-6.393,6.393v21.489c0,3.531,2.862,6.393,6.393,6.393h21.908
				c3.531,0,6.393-2.862,6.393-6.393v-21.489C186.141,198.548,183.279,195.686,179.749,195.686z"/>
		</g>
	</g>
	<g>
		<g>
			<path class="st0" d="M179.748,194.187h-21.908c-4.352,0-7.893,3.541-7.893,7.893v21.489c0,4.352,3.541,7.893,7.893,7.893h21.908
				c4.352,0,7.893-3.541,7.893-7.893v-21.489C187.642,197.727,184.101,194.187,179.748,194.187z M184.642,223.568
				c0,2.698-2.195,4.893-4.893,4.893h-21.908c-2.698,0-4.893-2.195-4.893-4.893v-21.489c0-2.698,2.195-4.893,4.893-4.893h21.908
				c2.698,0,4.893,2.195,4.893,4.893V223.568z"/>
		</g>
	</g>
	<g>
		<g>
			<path class="st2" d="M151.777,108.755H129.87c-3.531,0-6.393,2.862-6.393,6.393v21.489c0,3.531,2.862,6.393,6.393,6.393h21.908
				c3.531,0,6.393-2.862,6.393-6.393v-21.489C158.17,111.617,155.308,108.755,151.777,108.755z"/>
		</g>
	</g>
	<g>
		<g>
			<path class="st0" d="M151.777,107.255H129.87c-4.352,0-7.892,3.541-7.892,7.893v21.489c0,4.352,3.54,7.893,7.892,7.893h21.908
				c4.352,0,7.893-3.541,7.893-7.893v-21.489C159.67,110.796,156.129,107.255,151.777,107.255z M156.67,136.637
				c0,2.698-2.195,4.893-4.893,4.893H129.87c-2.698,0-4.892-2.195-4.892-4.893v-21.489c0-2.698,2.195-4.893,4.892-4.893h21.908
				c2.698,0,4.893,2.195,4.893,4.893V136.637z"/>
		</g>
	</g>
	<g>
		<g>
			<path class="st1" d="M79.749,189.945H65.163c-3.531,0-6.393,2.862-6.393,6.393v14.255c0,3.531,2.862,6.393,6.393,6.393h14.586
				c3.531,0,6.393-2.862,6.393-6.393v-14.255C86.141,192.807,83.279,189.945,79.749,189.945z"/>
		</g>
	</g>
	<g>
		<g>
			<path class="st0" d="M79.748,188.445H65.163c-4.352,0-7.893,3.541-7.893,7.893v14.255c0,4.352,3.541,7.893,7.893,7.893h14.585
				c4.352,0,7.893-3.541,7.893-7.893v-14.255C87.642,191.986,84.101,188.445,79.748,188.445z M84.642,210.593
				c0,2.698-2.195,4.893-4.893,4.893H65.163c-2.698,0-4.893-2.195-4.893-4.893v-14.255c0-2.698,2.195-4.893,4.893-4.893h14.585
				c2.698,0,4.893,2.195,4.893,4.893V210.593z"/>
		</g>
	</g>
	<g>
		<g>
			<path class="st1" d="M140.749,159.945h-14.586c-3.531,0-6.393,2.862-6.393,6.393v14.255c0,3.531,2.862,6.393,6.393,6.393h14.586
				c3.531,0,6.393-2.862,6.393-6.393v-14.255C147.141,162.807,144.279,159.945,140.749,159.945z"/>
		</g>
	</g>
	<g>
		<g>
			<path class="st0" d="M140.748,158.445h-14.585c-4.352,0-7.893,3.541-7.893,7.893v14.255c0,4.352,3.541,7.893,7.893,7.893h14.585
				c4.352,0,7.893-3.541,7.893-7.893v-14.255C148.642,161.986,145.101,158.445,140.748,158.445z M145.642,180.593
				c0,2.698-2.195,4.893-4.893,4.893h-14.585c-2.698,0-4.893-2.195-4.893-4.893v-14.255c0-2.698,2.195-4.893,4.893-4.893h14.585
				c2.698,0,4.893,2.195,4.893,4.893V180.593z"/>
		</g>
	</g>
	<g>
		<g>
			<path class="st12" d="M93.48,132.918H78.894c-3.531,0-6.393,2.862-6.393,6.393v14.255c0,3.531,2.862,6.393,6.393,6.393H93.48
				c3.531,0,6.393-2.862,6.393-6.393v-14.255C99.873,135.781,97.01,132.918,93.48,132.918z"/>
		</g>
	</g>
	<g>
		<g>
			<path class="st0" d="M93.48,131.418H78.894c-4.352,0-7.893,3.541-7.893,7.893v14.255c0,4.352,3.541,7.893,7.893,7.893H93.48
				c4.352,0,7.893-3.541,7.893-7.893v-14.255C101.373,134.959,97.832,131.418,93.48,131.418z M98.373,153.566
				c0,2.698-2.195,4.893-4.893,4.893H78.894c-2.698,0-4.893-2.195-4.893-4.893v-14.255c0-2.698,2.195-4.893,4.893-4.893H93.48
				c2.698,0,4.893,2.195,4.893,4.893V153.566z"/>
		</g>
	</g>
	<g>
		<g>
			<path class="st12" d="M214.749,125.823h-21.908c-3.531,0-6.393,2.862-6.393,6.393v21.489c0,3.531,2.862,6.393,6.393,6.393h21.908
				c3.531,0,6.393-2.862,6.393-6.393v-21.489C221.141,128.686,218.279,125.823,214.749,125.823z"/>
		</g>
	</g>
	<g>
		<g>
			<path class="st0" d="M214.748,124.324h-21.908c-4.352,0-7.893,3.541-7.893,7.893v21.489c0,4.352,3.541,7.893,7.893,7.893h21.908
				c4.352,0,7.893-3.541,7.893-7.893v-21.489C222.642,127.864,219.101,124.324,214.748,124.324z M219.642,153.705
				c0,2.698-2.195,4.893-4.893,4.893h-21.908c-2.698,0-4.893-2.195-4.893-4.893v-21.489c0-2.698,2.195-4.893,4.893-4.893h21.908
				c2.698,0,4.893,2.195,4.893,4.893V153.705z"/>
		</g>
	</g>
	<g>
		<g>
			<path class="st2" d="M79.777,73.961H57.87c-3.531,0-6.393,2.862-6.393,6.393v21.489c0,3.531,2.862,6.393,6.393,6.393h21.908
				c3.531,0,6.393-2.862,6.393-6.393V80.354C86.17,76.823,83.308,73.961,79.777,73.961z"/>
		</g>
	</g>
	<g>
		<g>
			<path class="st0" d="M79.777,72.461H57.87c-4.352,0-7.892,3.541-7.892,7.893v21.489c0,4.352,3.54,7.893,7.892,7.893h21.908
				c4.352,0,7.893-3.541,7.893-7.893V80.354C87.67,76.001,84.129,72.461,79.777,72.461z M84.67,101.842
				c0,2.698-2.195,4.893-4.893,4.893H57.87c-2.698,0-4.892-2.195-4.892-4.893V80.354c0-2.698,2.195-4.893,4.892-4.893h21.908
				c2.698,0,4.893,2.195,4.893,4.893V101.842z"/>
		</g>
	</g>
	<g>
		<g>
			<path class="st12" d="M129.749,51.961h-21.908c-3.531,0-6.393,2.862-6.393,6.393v21.489c0,3.531,2.862,6.393,6.393,6.393h21.908
				c3.531,0,6.393-2.862,6.393-6.393V58.354C136.141,54.823,133.279,51.961,129.749,51.961z"/>
		</g>
	</g>
	<g>
		<g>
			<path class="st0" d="M129.748,50.461h-21.908c-4.352,0-7.893,3.541-7.893,7.893v21.489c0,4.352,3.541,7.893,7.893,7.893h21.908
				c4.352,0,7.893-3.541,7.893-7.893V58.354C137.642,54.001,134.101,50.461,129.748,50.461z M134.642,79.842
				c0,2.698-2.195,4.893-4.893,4.893h-21.908c-2.698,0-4.893-2.195-4.893-4.893V58.354c0-2.698,2.195-4.893,4.893-4.893h21.908
				c2.698,0,4.893,2.195,4.893,4.893V79.842z"/>
		</g>
	</g>
	<g>
		<g>
			<path class="st22" d="M192.845,124.321h5.3v-31.25h-13.5v102.82c1.83,1.45,3,3.68,3,6.19v21.49c0,4.15-3.22,7.56-7.3,7.87
				c-2.26,2.94-5.29,5.26-8.78,6.66h7.22c10.67,0,19.36-8.68,19.36-19.35v-57.15h-5.3c-4.36,0-7.9-3.54-7.9-7.9v-21.48
				C184.945,127.861,188.485,124.321,192.845,124.321z"/>
		</g>
	</g>
</g>
</svg>
