<svg id="Layer_1" data-name="Layer 1" xmlns="http://www.w3.org/2000/svg" viewBox="0 0 128 128"><title>BEER CANS</title><rect x="38.25" y="26.015" width="51.5" height="85.985" rx="9.097" ry="9.097" style="fill:#f8b62b"/><rect x="46.367" y="112" width="35.267" height="6.5" style="fill:#feded6"/><rect x="46.367" y="19.515" width="35.267" height="6.5" style="fill:#feded6"/><path d="M89.75,57.833H73.885a14.214,14.214,0,0,0-19.77,0H38.25v20.5H54.115a14.214,14.214,0,0,0,19.77,0H89.75Z" style="fill:#fc6928"/><path d="M77.583,19.515H67V14.792A5.292,5.292,0,0,1,72.292,9.5h0a5.292,5.292,0,0,1,5.292,5.292Z" style="fill:#fc6928"/><rect x="38.25" y="26.015" width="41.75" height="85.985" rx="9.097" ry="9.097" style="fill:#f9d12f"/><path d="M64,82.333a14.192,14.192,0,0,0,9.885-4H80v-20.5H73.885a14.214,14.214,0,0,0-19.77,0H38.25v20.5H54.115A14.192,14.192,0,0,0,64,82.333Z" style="fill:#fd852b"/><rect x="70.903" y="112" width="10.731" height="6.5" style="fill:#f6c6bb"/><rect x="70.903" y="19.515" width="10.731" height="6.5" style="fill:#f6c6bb"/><path d="M68.951,10.719A5.258,5.258,0,0,0,67,14.792v4.723h3.9V14.792A5.258,5.258,0,0,0,68.951,10.719Z" style="fill:#fd852b"/><path d="M89.75,41.716a1.75,1.75,0,0,0,1.75-1.75V35.077a10.856,10.856,0,0,0-8.117-10.485V19.48a1.75,1.75,0,0,0-1.75-1.75h-2.3V14.758a7.042,7.042,0,1,0-14.083,0V17.73H46.367a1.75,1.75,0,0,0-1.75,1.75v5.112A10.856,10.856,0,0,0,36.5,35.077v67.791a10.857,10.857,0,0,0,8.117,10.486v5.112a1.75,1.75,0,0,0,1.75,1.75H50.75a1.75,1.75,0,1,0,0-3.5H48.117v-3H79.883v3H65.375a1.75,1.75,0,0,0,0,3.5H81.633a1.75,1.75,0,0,0,1.75-1.75v-5.112A10.857,10.857,0,0,0,91.5,102.868V47.717a1.75,1.75,0,0,0-3.5,0v8.332H74.569a15.962,15.962,0,0,0-21.138,0H46.25a1.75,1.75,0,0,0,0,3.5h7.865a1.751,1.751,0,0,0,1.215-.49,12.464,12.464,0,0,1,17.341,0,1.751,1.751,0,0,0,1.215.49H88v17H73.885a1.751,1.751,0,0,0-1.215.49,12.464,12.464,0,0,1-17.341,0,1.751,1.751,0,0,0-1.215-.49H40V35.077a7.355,7.355,0,0,1,7.347-7.347H54a1.75,1.75,0,0,0,0-3.5H48.117v-3H79.883v3H62a1.75,1.75,0,0,0,0,3.5H80.653A7.355,7.355,0,0,1,88,35.077v4.889A1.75,1.75,0,0,0,89.75,41.716ZM53.431,80.049a15.962,15.962,0,0,0,21.138,0H88v22.819a7.356,7.356,0,0,1-7.347,7.348H47.347A7.356,7.356,0,0,1,40,102.868V80.049ZM68.75,14.758a3.542,3.542,0,1,1,7.084,0V17.73H68.75Z" style="fill:#2a1624"/><path d="M58.5,116.716H57.375a1.75,1.75,0,0,0,0,3.5H58.5a1.75,1.75,0,0,0,0-3.5Z" style="fill:#2a1624"/></svg>