<svg id="Layer_1" data-name="Layer 1" xmlns="http://www.w3.org/2000/svg" viewBox="0 0 128 128"><title>CONFETTI CANNON</title><polygon points="91.5 63.75 64 118.75 36.5 63.75 91.5 63.75" style="fill:#f9d12f"/><polygon points="91.5 63.75 87 72.75 41 72.75 36.5 63.75 91.5 63.75" style="fill:#2ec3fc"/><polygon points="38.778 9.707 42.787 14.78 49.239 14.355 45.652 19.735 48.05 25.74 41.825 23.991 36.855 28.128 36.595 21.667 31.125 18.218 37.189 15.974 38.778 9.707" style="fill:#f9d12f"/><polygon points="89.222 9.707 85.213 14.78 78.761 14.355 82.348 19.735 79.95 25.74 86.175 23.991 91.145 28.128 91.405 21.667 96.875 18.218 90.811 15.974 89.222 9.707" style="fill:#f8b62b"/><path d="M65.55,24.883a1.75,1.75,0,0,0-2.662-2.272A13.694,13.694,0,0,0,62.816,39.8a9.737,9.737,0,0,1,1.769,9.062c-.954,3.055-3.059,4.94-3.923,5.228a1.75,1.75,0,1,0,1.106,3.32c2.063-.687,4.922-3.552,6.157-7.5A13.323,13.323,0,0,0,65.616,37.7,10.229,10.229,0,0,1,65.55,24.883Z" style="fill:#fd852b"/><path d="M27.655,39.141A10.228,10.228,0,0,1,20.07,28.81a1.75,1.75,0,0,0-3.489-.273,13.694,13.694,0,0,0,10.043,13.95,9.736,9.736,0,0,1,6.757,6.292c1.023,3.032.428,5.8-.1,6.536a1.75,1.75,0,0,0,2.847,2.036c1.265-1.769,1.9-5.767.571-9.69A13.323,13.323,0,0,0,27.655,39.141Z" style="fill:#fd852b"/><path d="M111.419,28.536a1.75,1.75,0,1,0-3.488.281,10.132,10.132,0,0,1-7.586,10.324A13.323,13.323,0,0,0,91.3,47.659c-1.324,3.924-.694,7.921.571,9.69a1.75,1.75,0,1,0,2.847-2.036c-.529-.74-1.125-3.5-.1-6.536a9.736,9.736,0,0,1,6.757-6.292A13.694,13.694,0,0,0,111.419,28.536Z" style="fill:#fd852b"/><path d="M47.54,46.448a1.75,1.75,0,0,0,1.273-2.122l-3-12a1.75,1.75,0,1,0-3.4.849l3,12a1.748,1.748,0,0,0,2.122,1.273Z" style="fill:#fc6928"/><path d="M50.544,50.539a1.75,1.75,0,1,0-3.4.849l1,4a1.75,1.75,0,0,0,3.4-.849Z" style="fill:#fc6928"/><path d="M84.309,31.052a1.751,1.751,0,0,0-2.122,1.273l-3,12a1.75,1.75,0,1,0,3.4.849l3-12A1.75,1.75,0,0,0,84.309,31.052Z" style="fill:#fc6928"/><path d="M79.579,49.266a1.751,1.751,0,0,0-2.122,1.273l-1,4a1.75,1.75,0,1,0,3.4.849l1-4A1.75,1.75,0,0,0,79.579,49.266Z" style="fill:#fc6928"/><rect x="16.758" y="50.25" width="6.082" height="6.082" transform="translate(-31.884 29.609) rotate(-45.001)" style="fill:#fd748c"/><rect x="105.16" y="50.25" width="6.082" height="6.082" transform="translate(-5.991 92.118) rotate(-45)" style="fill:#fd748c"/><circle cx="13" cy="12.75" r="3.5" style="fill:#2ec3fc"/><circle cx="115" cy="12.75" r="3.5" style="fill:#2ec3fc"/><polygon points="56.236 103.222 64 118.75 91.5 63.75 75.074 63.75 56.236 103.222" style="fill:#f8b62b"/><polygon points="75.074 63.75 70.778 72.75 87 72.75 91.5 63.75 75.074 63.75" style="fill:#1ba4fc"/><polygon points="87.561 14.773 86.992 12.529 85.213 14.78 78.761 14.355 82.348 19.735 80.901 23.359 79.95 25.74 84.824 24.371 86.175 23.991 87.954 25.471 88.155 20.466 93.625 17.017 87.561 14.773" style="fill:#f9d12f"/><polygon points="40.439 14.773 41.008 12.529 42.787 14.78 49.239 14.355 45.652 19.735 47.099 23.359 48.05 25.74 43.176 24.371 41.825 23.991 40.046 25.471 39.845 20.466 34.375 17.017 40.439 14.773" style="fill:#f8b62b"/><path d="M91.5,61.966h-55A1.75,1.75,0,0,0,34.935,64.5l27.5,55a1.75,1.75,0,0,0,3.131,0l27.5-55A1.75,1.75,0,0,0,91.5,61.966ZM64,114.8,43.832,74.466h6.015a1.75,1.75,0,1,0,0-3.5H42.082l-2.75-5.5H88.669l-2.75,5.5H57.833a1.75,1.75,0,0,0,0,3.5H84.169Z" style="fill:#2a1624"/><path d="M60.663,54.056a1.75,1.75,0,1,0,1.106,3.32c2.063-.687,4.922-3.552,6.157-7.5a13.323,13.323,0,0,0-2.311-12.205,10.229,10.229,0,0,1-.066-12.817,1.75,1.75,0,0,0-2.662-2.272,13.694,13.694,0,0,0-.071,17.188,9.737,9.737,0,0,1,1.769,9.062C63.632,51.882,61.526,53.768,60.663,54.056Z" style="fill:#2a1624"/><path d="M36.126,57.315c1.265-1.769,1.9-5.767.571-9.69a13.323,13.323,0,0,0-9.042-8.518A10.228,10.228,0,0,1,20.07,28.775a1.75,1.75,0,0,0-3.489-.274,13.694,13.694,0,0,0,10.043,13.95,9.736,9.736,0,0,1,6.757,6.292c1.023,3.032.428,5.8-.1,6.536a1.75,1.75,0,0,0,2.847,2.036Z" style="fill:#2a1624"/><path d="M111.419,28.5a1.75,1.75,0,1,0-3.488.281,10.132,10.132,0,0,1-7.586,10.324A13.323,13.323,0,0,0,91.3,47.625c-1.324,3.924-.694,7.921.571,9.69a1.75,1.75,0,1,0,2.847-2.036c-.529-.74-1.125-3.5-.1-6.536a9.736,9.736,0,0,1,6.757-6.292A13.694,13.694,0,0,0,111.419,28.5Z" style="fill:#2a1624"/><path d="M30.192,19.665l4.691,2.958.223,5.541a1.75,1.75,0,0,0,2.868,1.275l4.263-3.548,5.339,1.5a1.75,1.75,0,0,0,2.1-2.334l-2.057-5.151,3.077-4.615a1.75,1.75,0,0,0-1.571-2.717l-5.534.365L40.151,8.587a1.75,1.75,0,0,0-3.069.655l-1.363,5.376-5.2,1.925a1.75,1.75,0,0,0-.326,3.122Zm7.6-2.084a1.75,1.75,0,0,0,1.089-1.211L39.6,13.54l1.811,2.291a1.742,1.742,0,0,0,1.488.661l2.913-.192L44.2,18.73a1.749,1.749,0,0,0-.169,1.62l1.083,2.712-2.812-.79a1.747,1.747,0,0,0-1.593.339L38.461,24.48l-.118-2.918a1.75,1.75,0,0,0-.816-1.41l-2.47-1.557Z" style="fill:#2a1624"/><path d="M48.813,44.292l-3-12a1.75,1.75,0,1,0-3.4.849l3,12a1.75,1.75,0,1,0,3.4-.849Z" style="fill:#2a1624"/><path d="M48.421,49.231a1.75,1.75,0,0,0-1.273,2.122l1,4a1.75,1.75,0,0,0,3.4-.849l-1-4A1.75,1.75,0,0,0,48.421,49.231Z" style="fill:#2a1624"/><path d="M80.382,19.906l-2.057,5.151a1.75,1.75,0,0,0,2.1,2.334l5.339-1.5,4.263,3.548a1.75,1.75,0,0,0,2.868-1.275l.223-5.541,4.691-2.958a1.75,1.75,0,0,0-.326-3.122l-5.2-1.925L90.918,9.242a1.75,1.75,0,0,0-3.069-.655l-3.438,4.352-5.534-.365a1.768,1.768,0,0,0-1.63.87,1.749,1.749,0,0,0,.059,1.847ZM85.1,16.492a1.749,1.749,0,0,0,1.488-.661L88.4,13.54l.718,2.831A1.75,1.75,0,0,0,90.2,17.581l2.739,1.014-2.47,1.557a1.75,1.75,0,0,0-.816,1.41l-.118,2.918-2.244-1.868a1.749,1.749,0,0,0-1.593-.339l-2.811.79,1.083-2.712a1.749,1.749,0,0,0-.169-1.62l-1.62-2.43Z" style="fill:#2a1624"/><path d="M82.187,32.292l-3,12a1.75,1.75,0,1,0,3.4.849l3-12a1.75,1.75,0,1,0-3.4-.849Z" style="fill:#2a1624"/><path d="M77.73,56.627a1.747,1.747,0,0,0,2.122-1.273l1-4a1.75,1.75,0,1,0-3.4-.849l-1,4A1.75,1.75,0,0,0,77.73,56.627Z" style="fill:#2a1624"/><path d="M21.037,47.719a1.749,1.749,0,0,0-2.475,0l-4.3,4.3a1.749,1.749,0,0,0,0,2.475l4.3,4.3a1.749,1.749,0,0,0,2.475,0l4.3-4.3a1.749,1.749,0,0,0,0-2.475ZM19.8,55.083l-1.826-1.826L19.8,51.431l1.826,1.826Z" style="fill:#2a1624"/><path d="M109.438,47.719a1.8,1.8,0,0,0-2.475,0l-4.3,4.3a1.749,1.749,0,0,0,0,2.475l4.3,4.3a1.749,1.749,0,0,0,2.475,0l4.3-4.3a1.749,1.749,0,0,0,0-2.475ZM108.2,55.083l-1.826-1.826,1.826-1.826,1.826,1.826Z" style="fill:#2a1624"/><path d="M18.25,12.716A5.25,5.25,0,1,0,13,17.966,5.256,5.256,0,0,0,18.25,12.716ZM13,14.466a1.75,1.75,0,1,1,1.75-1.75A1.752,1.752,0,0,1,13,14.466Z" style="fill:#2a1624"/><path d="M115,7.466a5.25,5.25,0,1,0,5.25,5.25A5.256,5.256,0,0,0,115,7.466Zm0,7a1.75,1.75,0,1,1,1.75-1.75A1.752,1.752,0,0,1,115,14.466Z" style="fill:#2a1624"/></svg>