<svg id="Layer_1" data-name="Layer 1" xmlns="http://www.w3.org/2000/svg" viewBox="0 0 128 128"><title>CUPCAKE</title><path d="M82.994,118.5H46.069a4.794,4.794,0,0,1-4.691-3.809l-11.7-55.748H98.325L87.7,114.6A4.794,4.794,0,0,1,82.994,118.5Z" style="fill:#fd852b"/><path d="M94.3,80.008H72.951a12.476,12.476,0,0,0-17.9,0H34.1l3.658,17.427H55.048a12.476,12.476,0,0,0,17.9,0H90.979Z" style="fill:#672d53"/><path d="M46.8,58.943,48,63.705s7,7.594,24.165,7.481c0,0,3.667,5.592,15.167,5.036L79.5,118.5h3.492a4.794,4.794,0,0,0,4.709-3.9L98.325,58.943Z" style="fill:#fc6928"/><circle cx="80.242" cy="32.848" r="12.454" style="fill:#ec4d85"/><path d="M67.788,32.848A12.412,12.412,0,0,0,71.5,41.714a12.452,12.452,0,0,0,12.48-20.747A12.458,12.458,0,0,0,67.788,32.848Z" style="fill:#fd748c"/><path d="M86.916,35.837a17.6,17.6,0,0,0-8.849,2.385,20.132,20.132,0,0,0-37.725,7.732A12.928,12.928,0,1,0,48,63.705a20.04,20.04,0,0,0,24.543.162,17.7,17.7,0,1,0,14.372-28.03Z" style="fill:#1ba4fc"/><path d="M80.615,37.956a17.627,17.627,0,0,0-2.345.157c-.067.038-.136.07-.2.109-.013-.024-.028-.046-.041-.07a17.668,17.668,0,0,0-6.26,2.188A19.975,19.975,0,0,0,50.893,30.105a20.131,20.131,0,0,0-10.55,15.849,12.452,12.452,0,0,0-5.857-.511,12.543,12.543,0,0,0-5.336,2.02A12.926,12.926,0,0,0,36.3,71.158c.276,0,.548-.013.82-.03A12.338,12.338,0,0,0,44.9,67.862,13.006,13.006,0,0,0,48,63.705a19.956,19.956,0,0,0,15.53,4.023,16.963,16.963,0,0,0,3.4-.847,20.235,20.235,0,0,0,5.611-3.014,17.453,17.453,0,0,0,16.783,7.206,17.7,17.7,0,0,0-8.712-33.117Z" style="fill:#2ec3fc"/><path d="M84.079,26.025a1.75,1.75,0,0,1-1.283-2.94c.562-.615,5.222-6.1-1.126-12.337a1.75,1.75,0,0,1,2.452-2.5c8.928,8.767,1.315,17.135,1.237,17.219A1.745,1.745,0,0,1,84.079,26.025Z" style="fill:#672d53"/><path d="M52.351,44.494a1.745,1.745,0,0,1-1.287-.563l-1.7-1.847a1.75,1.75,0,1,1,2.572-2.373l1.7,1.847a1.75,1.75,0,0,1-1.286,2.937Z" style="fill:#f9d12f"/><path d="M64,51.235a1.749,1.749,0,0,1-1.686-2.222l.853-3.047a1.75,1.75,0,1,1,3.37.943l-.852,3.047A1.751,1.751,0,0,1,64,51.235Z" style="fill:#f9d12f"/><path d="M89.146,59.27a1.75,1.75,0,0,1-1.666-1.217L86.343,54.5a1.75,1.75,0,1,1,3.333-1.066l1.137,3.552a1.749,1.749,0,0,1-1.667,2.283Z" style="fill:#f9d12f"/><path d="M37.149,59.27H34.1a1.75,1.75,0,0,1,0-3.5h3.052a1.75,1.75,0,0,1,0,3.5Z" style="fill:#f9d12f"/><polygon points="86.632 80.008 83.404 97.435 90.979 97.435 91.536 94.514 94.305 80.008 86.632 80.008" style="fill:#532b47"/><path d="M44.333,99.151h.917a1.75,1.75,0,0,0,0-3.5h-.917a1.75,1.75,0,0,0,0,3.5Z" style="fill:#2a1624"/><path d="M54.471,68.885A21.8,21.8,0,0,0,72.2,66.214a19.448,19.448,0,1,0,21.99-30.739,14.106,14.106,0,0,0-6.295-14.611c1.047-3.262,1.07-7.895-3.77-12.647a1.75,1.75,0,0,0-2.452,2.5C85.019,14,85.3,17.084,84.742,19.352a14.126,14.126,0,0,0-4.5-.742A14.289,14.289,0,0,0,67.27,27.052a21.856,21.856,0,0,0-28.39,16.7,14.459,14.459,0,0,0-2.578-.231,14.678,14.678,0,0,0-5.728,28.192l1.808,8.615v.005l7.281,34.688a6.572,6.572,0,0,0,6.4,5.2H82.994a6.55,6.55,0,0,0,6.427-5.317L92.692,97.76l0-.013L96.018,80.33v-.007l0-.02c0-.009,0-.013,0-.023A1.73,1.73,0,0,0,94.3,78.224H73.663a14.226,14.226,0,0,0-19.325,0H35.518l-1.153-5.493a14.507,14.507,0,0,0,15.221-8.317,1.75,1.75,0,0,0-3.169-1.486A11.181,11.181,0,1,1,39.8,47.583a1.75,1.75,0,0,0,2.29-1.5,18.382,18.382,0,0,1,34.446-7.058A1.75,1.75,0,1,0,79.6,37.351a21.9,21.9,0,0,0-9.112-8.938,10.768,10.768,0,0,1,9.751-6.3,10.654,10.654,0,0,1,2.973.429c-.19.253-.343.43-.42.514a1.75,1.75,0,0,0,2.563,2.384,11.085,11.085,0,0,0,1.021-1.378,10.694,10.694,0,0,1,4.443,10.39,19.471,19.471,0,0,0-3.906-.394,1.75,1.75,0,0,0,0,3.5A15.96,15.96,0,1,1,73.965,62.811a1.75,1.75,0,0,0-2.479-.37,18.3,18.3,0,0,1-16.064,3.075,1.75,1.75,0,0,0-.95,3.369Zm.578,12.839a1.748,1.748,0,0,0,1.254-.529,10.727,10.727,0,0,1,15.395,0,1.748,1.748,0,0,0,1.254.529H92.189L89.531,95.651H72.952a1.749,1.749,0,0,0-1.254.529,10.728,10.728,0,0,1-15.4,0,1.749,1.749,0,0,0-1.254-.529H51.917a1.75,1.75,0,0,0,0,3.5h2.42a14.227,14.227,0,0,0,19.326,0h15.2l-2.88,15.091a3.046,3.046,0,0,1-2.989,2.474H46.069a3.056,3.056,0,0,1-2.978-2.418L36.253,81.724Z" style="fill:#2a1624"/><path d="M53.636,41.523l-1.7-1.847a1.75,1.75,0,1,0-2.572,2.373l1.7,1.847a1.75,1.75,0,1,0,2.572-2.373Z" style="fill:#2a1624"/><path d="M64,51.2a1.751,1.751,0,0,0,1.684-1.278l.852-3.047a1.75,1.75,0,1,0-3.37-.943l-.853,3.047A1.749,1.749,0,0,0,64,51.2Z" style="fill:#2a1624"/><path d="M89.146,59.235a1.749,1.749,0,0,0,1.667-2.283L89.676,53.4a1.75,1.75,0,1,0-3.333,1.066l1.137,3.552A1.75,1.75,0,0,0,89.146,59.235Z" style="fill:#2a1624"/><path d="M34.1,55.735a1.75,1.75,0,0,0,0,3.5h3.052a1.75,1.75,0,0,0,0-3.5Z" style="fill:#2a1624"/></svg>