<svg id="Layer_1" data-name="Layer 1" xmlns="http://www.w3.org/2000/svg" viewBox="0 0 128 128"><title>GARLANDS</title><rect x="15.712" y="43.594" width="5.664" height="5.664" transform="translate(-27.396 26.71) rotate(-45)" style="fill:#f9d12f"/><rect x="82.223" y="21.075" width="5.664" height="5.664" transform="translate(8.008 67.146) rotate(-45.001)" style="fill:#2ec3fc"/><path d="M50.769,69.747a2.324,2.324,0,1,0-2.323-2.324A2.326,2.326,0,0,0,50.769,69.747Z" style="fill:#2ec3fc"/><path d="M50.769,72.9a2.324,2.324,0,1,0,2.323,2.324A2.326,2.326,0,0,0,50.769,72.9Z" style="fill:#2ec3fc"/><path d="M49.2,71.321a2.324,2.324,0,1,0-2.324,2.324A2.327,2.327,0,0,0,49.2,71.321Z" style="fill:#2ec3fc"/><path d="M54.668,69a2.324,2.324,0,1,0,2.323,2.324A2.327,2.327,0,0,0,54.668,69Z" style="fill:#2ec3fc"/><path d="M107.72,98.083a2.324,2.324,0,1,0-2.324-2.324A2.326,2.326,0,0,0,107.72,98.083Z" style="fill:#f9d12f"/><path d="M107.72,101.231a2.324,2.324,0,1,0,2.323,2.324A2.327,2.327,0,0,0,107.72,101.231Z" style="fill:#f9d12f"/><path d="M106.145,99.657a2.324,2.324,0,1,0-2.324,2.323A2.327,2.327,0,0,0,106.145,99.657Z" style="fill:#f9d12f"/><path d="M111.617,97.334a2.324,2.324,0,1,0,2.324,2.324A2.326,2.326,0,0,0,111.617,97.334Z" style="fill:#f9d12f"/><path d="M32.865,62.07a1.772,1.772,0,0,1-.318-.029A1.751,1.751,0,0,1,31.142,60c1.135-6.18,3.663-10.333,6.526-12.687q0-.4.021-.826c.535-12.036,10.065-15.711,10.471-15.862a1.75,1.75,0,0,1,1.224,3.279,13.82,13.82,0,0,0-8.09,11.4,7.825,7.825,0,0,1,2.665-.367c2.8.109,4.85,1.861,5.108,4.358a5.87,5.87,0,0,1-2.7,5.513,5.217,5.217,0,0,1-5.441.3,5.985,5.985,0,0,1-2.647-3.444,20,20,0,0,0-3.69,8.97A1.752,1.752,0,0,1,32.865,62.07Zm8.4-12.971c.283,2.146,1.092,2.8,1.392,2.971a1.788,1.788,0,0,0,1.794-.189,2.4,2.4,0,0,0,1.134-2.22c-.112-1.074-1.379-1.206-1.765-1.222A5.284,5.284,0,0,0,41.268,49.1Z" style="fill:#fd852b"/><path d="M78.819,74.072a1.752,1.752,0,0,1-1.656-2.316,20,20,0,0,0,1.167-9.629,5.984,5.984,0,0,1-3.994,1.709,5.253,5.253,0,0,1-4.6-2.919,5.867,5.867,0,0,1,.338-6.129c1.447-2.053,4.1-2.575,6.587-1.3A7.98,7.98,0,0,1,78.8,55.106a13.819,13.819,0,0,0-1.483-13.9,1.75,1.75,0,0,1,2.673-2.26c.279.33,6.795,8.2,1.378,18.957q-.192.38-.386.731c1.347,3.453,1.521,8.312-.511,14.257A1.752,1.752,0,0,1,78.819,74.072ZM73.944,56.3a1.174,1.174,0,0,0-1.013.506,2.4,2.4,0,0,0-.1,2.489A1.8,1.8,0,0,0,74.3,60.335h.011c.345,0,1.37-.178,2.667-1.911A5.185,5.185,0,0,0,75.068,56.6,2.652,2.652,0,0,0,73.944,56.3Z" style="fill:#fd852b"/><path d="M30.325,19.782l-8.664,12.9,7.838-.993,2.044,7.631,8.175-12.168A65.289,65.289,0,0,1,30.325,19.782Z" style="fill:#fd748c"/><path d="M89.059,40.035,90.24,54.647l5.514-5.657,6.352,4.7L100.855,38.2A65.3,65.3,0,0,1,89.059,40.035Z" style="fill:#f9d12f"/><path d="M63.376,37.471c-1.947-.508-3.842-1.092-5.7-1.718L53.864,50.336l7.072-3.522,4.447,6.53L69.191,38.76C67.261,38.4,65.323,37.979,63.376,37.471Z" style="fill:#2ec3fc"/><path d="M65.137,85.029c-2.609.458-5.195.779-7.75.991L67.7,99.657l5.059-16.332C70.287,83.995,67.746,84.571,65.137,85.029Z" style="fill:#f9d12f"/><path d="M88.372,77.322,102.961,86.4l-1.88-17.584A64.775,64.775,0,0,1,88.372,77.322Z" style="fill:#fd748c"/><path d="M25.824,82.02l4.213,17.169,10.632-13.5A64.825,64.825,0,0,1,25.824,82.02Z" style="fill:#2ec3fc"/><path d="M46.9,120.251a1.75,1.75,0,0,1-1.7-1.322c-1.54-6.092-.969-10.919.655-14.251q-.164-.365-.324-.76c-4.519-11.168,2.617-18.475,2.924-18.781a1.75,1.75,0,0,1,2.477,2.472,13.823,13.823,0,0,0-2.615,13.736A7.968,7.968,0,0,1,50.589,99.9c2.589-1.063,5.184-.326,6.459,1.837a5.869,5.869,0,0,1-.165,6.138,5.219,5.219,0,0,1-4.825,2.533,5.985,5.985,0,0,1-3.841-2.03,20.005,20.005,0,0,0,.376,9.692,1.751,1.751,0,0,1-1.7,2.179ZM49.87,104.8c1.15,1.834,2.158,2.092,2.5,2.123A1.851,1.851,0,0,0,53.925,106a2.4,2.4,0,0,0,.107-2.49c-.548-.93-1.756-.524-2.112-.377A5.174,5.174,0,0,0,49.87,104.8Z" style="fill:#fd852b"/><path d="M93.678,112.046a1.749,1.749,0,0,1-1.739-1.576,20.005,20.005,0,0,0-2.944-9.243,5.989,5.989,0,0,1-2.922,3.217,5.217,5.217,0,0,1-5.4-.741,5.868,5.868,0,0,1-2.242-5.715c.462-2.467,2.644-4.039,5.447-3.926a7.968,7.968,0,0,1,2.627.584A13.819,13.819,0,0,0,79.371,82.62a1.75,1.75,0,0,1,1.49-3.166c.392.183,9.59,4.627,9.14,16.665-.011.284-.026.559-.047.825,2.661,2.581,4.842,6.926,5.467,13.178a1.75,1.75,0,0,1-1.567,1.915C93.795,112.043,93.735,112.046,93.678,112.046ZM83.6,97.557c-.482,0-1.551.112-1.731,1.076a2.4,2.4,0,0,0,.948,2.3,1.794,1.794,0,0,0,1.772.335c.312-.146,1.173-.732,1.631-2.848a5.18,5.18,0,0,0-2.493-.865C83.693,97.558,83.65,97.557,83.6,97.557Z" style="fill:#fd852b"/><path d="M39.165,85.448c-1.952-.3-3.865-.653-5.716-1.1L30.038,99.188,39.846,86.73Z" style="fill:#1ba4fc"/><polygon points="67.703 99.657 65.137 85.029 72.762 83.325 67.703 99.657" style="fill:#f8b62b"/><polygon points="102.961 86.4 101.08 68.816 94.583 73.312 102.961 86.4" style="fill:#ec4d85"/><path d="M50.61,88.055c-13.689,0-26.447-3.393-35.8-9.765A1.75,1.75,0,1,1,16.78,75.4c11.94,8.135,29.906,11.092,48.055,7.908,18.284-3.206,34.228-12.179,42.65-24a1.751,1.751,0,0,1,2.851,2.031c-8.944,12.554-25.728,22.056-44.9,25.417A86.024,86.024,0,0,1,50.61,88.055Z" style="fill:#fd852b"/><polygon points="95.755 48.989 95 38.327 100.855 38.204 102.106 53.688 95.755 48.989" style="fill:#f8b62b"/><polygon points="60.935 46.814 63.376 37.471 69.191 38.76 65.382 53.344 60.935 46.814" style="fill:#1ba4fc"/><polygon points="29.499 31.685 34.942 23.748 39.718 27.149 31.543 39.317 29.499 31.685" style="fill:#ec4d85"/><path d="M18.544,52.146a1.744,1.744,0,0,0,1.237-.513l4-4a1.749,1.749,0,0,0,0-2.475l-4-4a1.749,1.749,0,0,0-2.475,0l-4,4a1.749,1.749,0,0,0,0,2.475l4,4A1.744,1.744,0,0,0,18.544,52.146Zm0-7.285,1.53,1.53-1.53,1.53-1.53-1.53Z" style="fill:#2a1624"/><path d="M83.817,29.115a1.749,1.749,0,0,0,2.475,0l4-4a1.749,1.749,0,0,0,0-2.475l-4-4a1.749,1.749,0,0,0-2.475,0l-4,4a1.749,1.749,0,0,0,0,2.475Zm1.237-6.772,1.53,1.53-1.53,1.53-1.53-1.53Z" style="fill:#2a1624"/><path d="M50.769,69.713a2.324,2.324,0,1,0-2.323-2.324A2.326,2.326,0,0,0,50.769,69.713Z" style="fill:#2a1624"/><path d="M50.769,77.509a2.324,2.324,0,1,0-2.323-2.324A2.326,2.326,0,0,0,50.769,77.509Z" style="fill:#2a1624"/><path d="M44.548,71.287a2.324,2.324,0,1,0,2.323-2.324A2.326,2.326,0,0,0,44.548,71.287Z" style="fill:#2a1624"/><path d="M56.991,71.287a2.324,2.324,0,1,0-2.323,2.324A2.326,2.326,0,0,0,56.991,71.287Z" style="fill:#2a1624"/><path d="M105.4,95.725A2.324,2.324,0,1,0,107.72,93.4,2.327,2.327,0,0,0,105.4,95.725Z" style="fill:#2a1624"/><path d="M107.72,101.2a2.324,2.324,0,1,0,2.323,2.324A2.327,2.327,0,0,0,107.72,101.2Z" style="fill:#2a1624"/><path d="M106.145,99.623a2.324,2.324,0,1,0-2.324,2.323A2.327,2.327,0,0,0,106.145,99.623Z" style="fill:#2a1624"/><path d="M111.617,97.3a2.324,2.324,0,1,0,2.324,2.324A2.326,2.326,0,0,0,111.617,97.3Z" style="fill:#2a1624"/><path d="M90,96.085A17.592,17.592,0,0,0,83.743,81.35c1.542-.65,3.054-1.336,4.522-2.068l13.771,8.569A1.75,1.75,0,0,0,104.7,86.18l-1.786-16.7a49.865,49.865,0,0,0,7.422-8.182,1.751,1.751,0,0,0-2.851-2.031A46.921,46.921,0,0,1,100,67.409a1.752,1.752,0,0,0-.145.132c-8.9,7.669-21.3,13.324-35.022,15.73-18.149,3.184-36.114.227-48.055-7.908a1.75,1.75,0,1,0-1.971,2.892,49.946,49.946,0,0,0,9.53,5.021l4,16.294a1.75,1.75,0,0,0,3.074.665l5.666-7.195a1.75,1.75,0,1,0-2.75-2.165l-3.446,4.376L28.29,84.694a71.542,71.542,0,0,0,18.1,3.21,17.623,17.623,0,0,0-.862,15.98q.16.4.324.76c-1.624,3.332-2.2,8.159-.655,14.251a1.75,1.75,0,1,0,3.393-.857,20.005,20.005,0,0,1-.376-9.692,5.985,5.985,0,0,0,3.841,2.03,5.219,5.219,0,0,0,4.825-2.533,5.869,5.869,0,0,0,.165-6.138c-1.275-2.163-3.87-2.9-6.459-1.837a7.968,7.968,0,0,0-2.271,1.443,13.922,13.922,0,0,1,2.226-13.29h.067c1.965,0,3.952-.089,5.948-.23l9.749,12.888a1.749,1.749,0,0,0,1.4.694,1.778,1.778,0,0,0,.3-.026,1.75,1.75,0,0,0,1.369-1.206l4.78-15.434q2.92-.828,5.727-1.838A13.917,13.917,0,0,1,86.5,94.613a7.968,7.968,0,0,0-2.627-.584c-2.8-.113-4.985,1.459-5.447,3.926a5.868,5.868,0,0,0,2.242,5.715,5.217,5.217,0,0,0,5.4.741,5.989,5.989,0,0,0,2.922-3.217,20.005,20.005,0,0,1,2.944,9.243,1.749,1.749,0,0,0,1.739,1.576c.058,0,.117,0,.176-.009a1.75,1.75,0,0,0,1.567-1.915c-.625-6.252-2.806-10.6-5.467-13.178C89.975,96.644,89.99,96.368,90,96.085ZM51.92,103.1c.356-.147,1.564-.553,2.112.377a2.4,2.4,0,0,1-.107,2.49,1.851,1.851,0,0,1-1.553.918c-.344-.031-1.352-.29-2.5-2.123A5.174,5.174,0,0,1,51.92,103.1Zm48.919-20.12-9-5.6a66.954,66.954,0,0,0,7.842-5.2Zm-33.8,12.862-6.386-8.442c1.592-.189,3.188-.407,4.785-.687s3.171-.618,4.732-.982Zm17.55,5.392a1.794,1.794,0,0,1-1.772-.335,2.4,2.4,0,0,1-.948-2.3c.181-.964,1.249-1.076,1.731-1.076.049,0,.092,0,.127,0a5.18,5.18,0,0,1,2.493.865C85.764,100.507,84.9,101.093,84.591,101.239Z" style="fill:#2a1624"/><path d="M114.976,32.3a1.749,1.749,0,0,0-2.391-.638q-.294.17-.593.335a1.75,1.75,0,1,0,1.7,3.061q.328-.182.649-.367A1.749,1.749,0,0,0,114.976,32.3Z" style="fill:#2a1624"/><path d="M20.172,33.563a1.746,1.746,0,0,0,1.709.818l6.323-.8,1.648,6.156A1.75,1.75,0,0,0,33,40.259L40.22,29.5c1.582.977,3.228,1.9,4.914,2.777a17.591,17.591,0,0,0-7.445,14.176q-.019.426-.021.826c-2.863,2.354-5.392,6.507-6.526,12.687a1.751,1.751,0,0,0,1.405,2.037,1.772,1.772,0,0,0,.318.029,1.752,1.752,0,0,0,1.72-1.434,20,20,0,0,1,3.69-8.97,5.985,5.985,0,0,0,2.647,3.444,5.217,5.217,0,0,0,5.441-.3,5.87,5.87,0,0,0,2.7-5.513c-.259-2.5-2.311-4.248-5.108-4.358a7.825,7.825,0,0,0-2.665.367A13.918,13.918,0,0,1,48.859,34.11a85.941,85.941,0,0,0,14.075,5.02c1.362.356,2.727.666,4.094.953l-2.366,9.06-2.279-3.348a1.747,1.747,0,0,0-2.226-.582l-3.626,1.806,1.245-4.766a1.75,1.75,0,0,0-3.387-.885L52.17,49.859a1.75,1.75,0,0,0,2.474,2.009l5.7-2.841,3.587,5.268a1.75,1.75,0,0,0,3.14-.542l3.4-13.013q3.608.607,7.191.892A13.917,13.917,0,0,1,78.8,55.072a7.98,7.98,0,0,0-2.145-1.624c-2.49-1.271-5.14-.748-6.587,1.3a5.867,5.867,0,0,0-.338,6.129,5.253,5.253,0,0,0,4.6,2.919,5.984,5.984,0,0,0,3.994-1.709,20,20,0,0,1-1.167,9.629,1.75,1.75,0,1,0,3.312,1.132c2.032-5.945,1.857-10.8.511-14.257q.193-.351.386-.731A17.622,17.622,0,0,0,81.82,41.87c.8.024,1.594.039,2.385.039q1.634,0,3.248-.068L88.5,54.754a1.75,1.75,0,0,0,3,1.081l4.449-4.564,5.123,3.79a1.75,1.75,0,0,0,2.785-1.548L102.717,39.49a54.5,54.5,0,0,0,5.758-1.952,1.75,1.75,0,0,0-1.314-3.244,52.054,52.054,0,0,1-6.755,2.189l-.066.018a72.731,72.731,0,0,1-30.661.55c-.016,0-.029-.013-.046-.017A1.723,1.723,0,0,0,69.418,37q-2.8-.53-5.6-1.256C45.989,31.087,30.883,20.925,23.408,8.561a1.75,1.75,0,0,0-3,1.811,50.83,50.83,0,0,0,7.645,9.615L20.209,31.668A1.75,1.75,0,0,0,20.172,33.563Zm23.65,14.843c.386.015,1.652.148,1.765,1.222a2.4,2.4,0,0,1-1.134,2.22,1.788,1.788,0,0,1-1.794.189c-.3-.171-1.108-.826-1.392-2.971A5.284,5.284,0,0,1,43.822,48.405ZM74.309,60.3H74.3a1.8,1.8,0,0,1-1.463-1.042,2.4,2.4,0,0,1,.1-2.489,1.174,1.174,0,0,1,1.013-.506,2.652,2.652,0,0,1,1.124.3,5.185,5.185,0,0,1,1.907,1.824C75.679,60.123,74.653,60.3,74.309,60.3Zm25.743-10.344L96.8,47.548a1.751,1.751,0,0,0-2.294.185l-2.827,2.9-.73-9.028a67.46,67.46,0,0,0,8.329-1.27ZM30.644,22.41a67.438,67.438,0,0,0,6.644,5.183l-5.051,7.518L31.189,31.2a1.742,1.742,0,0,0-1.91-1.284l-4.019.509Z" style="fill:#2a1624"/></svg>