<svg id="Layer_1" data-name="Layer 1" xmlns="http://www.w3.org/2000/svg" viewBox="0 0 128 128"><title>TEQUILA</title><path d="M53.08,34.56,25.15,62.49a19.729,19.729,0,0,1-1.17-26.63,17.369,17.369,0,0,1,2.47-2.48,19.76,19.76,0,0,1,26.63,1.18Z" style="fill:#f9d12f"/><path d="M46.1,41.545a9.814,9.814,0,0,0-4.776-2.633,1.776,1.776,0,0,0,.015-.361l-.61-9.7a19.479,19.479,0,0,0-3.5.02v.01l.609,9.866a9.815,9.815,0,0,0-4.365,1.689c-.035-.042-.064-.086-.1-.125l-6.92-6.93a17.369,17.369,0,0,0-2.47,2.48l6.92,6.92c.039.039.084.068.126.1a9.814,9.814,0,0,0-1.689,4.366L19.47,46.64h-.01a19.479,19.479,0,0,0-.02,3.5l9.7.61h.11a1.735,1.735,0,0,0,.251-.024,9.816,9.816,0,0,0,2.635,4.784Z" style="fill:#f8b62b"/><polygon points="90.399 46 84.379 108.33 83.399 118.5 43.219 118.5 42.239 108.33 36.219 46 90.399 46" style="fill:#feded6"/><path d="M58.642,68.667C49,72.035,42.628,71.6,38.552,70.154l3.687,38.176.98,10.17H83.4l.98-10.17,3.4-35.24C81.425,68.755,71.088,64.32,58.642,68.667Z" style="fill:#fd852b"/><polygon points="75.075 45.635 67 118.5 83.399 118.5 90.399 46 75.075 45.635" style="fill:#f6c6bb"/><path d="M87.782,73.09a34.987,34.987,0,0,0-15.091-5.945L67,118.5H83.4l.98-10.17Z" style="fill:#fc6928"/><polygon points="84.379 108.33 83.399 118.5 43.219 118.5 42.239 108.33 84.379 108.33" style="fill:#feded6"/><polygon points="67 118.5 83.399 118.5 84.379 108.33 68.127 108.33 67 118.5" style="fill:#f6c6bb"/><path d="M90.4,44.216H45.871l8.451-8.451a1.749,1.749,0,0,0,0-2.475,21.423,21.423,0,0,0-15.044-6.28,1.716,1.716,0,0,0-.413-.026,1.735,1.735,0,0,0-.259.043A21.4,21.4,0,0,0,17.654,47.98a1.478,1.478,0,0,0-.018.66A21.425,21.425,0,0,0,23.917,63.7a1.749,1.749,0,0,0,2.475,0l8.92-8.92,6.166,63.858a1.75,1.75,0,0,0,1.742,1.582H83.4a1.75,1.75,0,0,0,1.742-1.582l7-72.5A1.75,1.75,0,0,0,90.4,44.216ZM67.8,65.142a32.992,32.992,0,0,0-9.734,1.838c-7.2,2.516-13.2,3.1-17.886,1.789L38.146,47.716H74.288Zm-21.8-26a11.481,11.481,0,0,0-4.752-2.069l-.405-6.489a17.827,17.827,0,0,1,9.709,4.007Zm-13.762,0-4.549-4.55a17.829,17.829,0,0,1,9.647-4.008l.4,6.379A11.488,11.488,0,0,0,32.238,39.138ZM21.206,46.71a17.829,17.829,0,0,1,4.008-9.647l4.551,4.551a11.559,11.559,0,0,0-2.174,5.494Zm4.007,13.215a17.827,17.827,0,0,1-4.007-9.708l6.492.405a11.551,11.551,0,0,0,2.067,4.751Zm7.061-7.061A8.12,8.12,0,0,1,43.49,41.648l-2.568,2.568h-4.7a1.75,1.75,0,0,0-1.742,1.919l.4,4.128Zm12.534,63.852L40.536,72.464a23.808,23.808,0,0,0,4.876.5,42.45,42.45,0,0,0,13.808-2.676,29.893,29.893,0,0,1,7.25-1.57l-4.8,12.89a1.75,1.75,0,1,0,3.28,1.222L78.023,47.716H88.472L86.314,70.065a38.071,38.071,0,0,0-6.688-3.113,1.75,1.75,0,0,0-1.15,3.306,35.255,35.255,0,0,1,7.463,3.7l-3.147,32.592H58.918a1.75,1.75,0,0,0,0,3.5H82.454l-.644,6.67Z" style="fill:#2a1624"/><path d="M51.583,106.546H50.5a1.75,1.75,0,0,0,0,3.5h1.083a1.75,1.75,0,0,0,0-3.5Z" style="fill:#2a1624"/><path d="M108.642,7.716H95.871a9.669,9.669,0,0,0-9.021,6.267L77.9,38.007a1.75,1.75,0,1,0,3.28,1.222L90.129,15.2a6.153,6.153,0,0,1,5.741-3.989h12.771a1.75,1.75,0,0,0,0-3.5Z" style="fill:#2a1624"/></svg>