<svg id="Layer_1" data-name="Layer 1" xmlns="http://www.w3.org/2000/svg" viewBox="0 0 128 128"><title>WINE GLASS</title><path d="M88.72,63.68C83.36,67.78,75.38,72.01,64,74c-11.38-1.99-19.36-6.22-24.72-10.32-5.9-4.52-8.44-13.32-6.08-21.24l3.4-11.42L43,9.5H85l7.68,25.83h.01l2.11,7.11C97.16,50.36,94.62,59.16,88.72,63.68Z" style="fill:#feded6"/><path d="M77.625,118.5,65.75,111.092V90a1.75,1.75,0,0,0-3.5,0v21.092L50.375,118.5Z" style="fill:#f6c6bb"/><path d="M88.72,63.68C83.36,67.78,75.38,72.01,64,74c-11.38-1.99-19.36-6.22-24.72-10.32-5.9-4.52-8.44-13.32-6.08-21.24l3.4-11.42c6.71,5.29,16.91,10,29.9,5.98,10.06-3.11,18.95-3.28,26.18-1.67h.01l2.11,7.11C97.16,50.36,94.62,59.16,88.72,63.68Z" style="fill:#672d53"/><path d="M58.333,9.5H43L36.6,31.02,33.2,42.44c-2.36,7.92.18,16.72,6.08,21.24C44.64,67.78,52.62,72.01,64,74,34,67.667,58.333,9.5,58.333,9.5Z" style="fill:#f6c6bb"/><path d="M50.183,37.73A34.721,34.721,0,0,1,36.6,31.02L33.2,42.44c-2.36,7.92.18,16.72,6.08,21.24C44.64,67.78,52.62,72.01,64,74,48.462,70.72,47.5,53.536,50.183,37.73Z" style="fill:#532b47"/><path d="M96.478,41.908l-2.11-7.11a1.8,1.8,0,0,0-.061-.17l-7.63-25.66A1.749,1.749,0,0,0,85,7.716H43a1.75,1.75,0,0,0-1.677,1.251l-9.8,32.939c-2.572,8.629.181,18.14,6.694,23.13,6.971,5.331,15.544,8.915,25.482,10.653a1.733,1.733,0,0,0,.6,0c9.938-1.738,18.511-5.322,25.482-10.653h0C96.3,60.046,99.049,50.535,96.478,41.908Zm-8.82,20.348A54.187,54.187,0,0,1,64,72.189a54.185,54.185,0,0,1-23.656-9.932c-5.3-4.06-7.6-12.2-5.467-19.351l2.688-9.034a37.549,37.549,0,0,0,6.983,3.858A1.75,1.75,0,0,0,45.893,34.5a34.638,34.638,0,0,1-7.268-4.191l5.68-19.091h39.39l6.5,21.848a54.9,54.9,0,0,0-24.208,2.23,30.127,30.127,0,0,1-11.376,1.339,1.75,1.75,0,0,0-.282,3.488q1.255.1,2.525.1a34.358,34.358,0,0,0,10.168-1.585,50.315,50.315,0,0,1,24.3-1.813l1.8,6.081C95.254,50.058,92.956,58.2,87.657,62.256Z" style="fill:#2a1624"/><path d="M78.551,116.981l-12.8-7.986V80.466a1.75,1.75,0,0,0-3.5,0v28.529l-12.8,7.986a1.75,1.75,0,0,0,.926,3.235h27.25a1.75,1.75,0,0,0,.926-3.235Zm-22.065-.265L64,112.028l7.514,4.688Z" style="fill:#2a1624"/><path d="M88.564,46.727A1.748,1.748,0,0,0,86.658,48.3a12.692,12.692,0,0,1-4.623,8.965,1.75,1.75,0,0,0,2.129,2.778,16.191,16.191,0,0,0,5.978-11.415A1.75,1.75,0,0,0,88.564,46.727Z" style="fill:#fff"/><path d="M86.32,43.5a1.751,1.751,0,0,0,1.7,1.341,1.777,1.777,0,0,0,.411-.049,1.751,1.751,0,0,0,1.292-2.111q-.112-.466-.25-.929a1.75,1.75,0,1,0-3.353,1Q86.23,43.121,86.32,43.5Z" style="fill:#fff"/></svg>