<?xml version="1.0" encoding="utf-8"?>
<!-- Generator: Adobe Illustrator 23.0.0, SVG Export Plug-In . SVG Version: 6.00 Build 0)  -->
<svg version="1.1" id="Layer_1" xmlns="http://www.w3.org/2000/svg" xmlns:xlink="http://www.w3.org/1999/xlink" x="0px" y="0px"
	 viewBox="0 0 512 512" style="enable-background:new 0 0 512 512;" xml:space="preserve">
<style type="text/css">
	.st0{fill:#32283C;}
	.st1{fill:#463C4B;}
	.st2{fill:#E6E6EB;}
	.st3{fill:#A5C3DC;}
	.st4{fill:#FF4646;}
	.st5{fill:#CD3232;}
	.st6{fill:#F0915A;}
	.st7{fill:#FAB991;}
	.st8{fill:#F5732D;}
	.st9{fill:#FAA037;}
	.st10{fill:#78AF41;}
	.st11{fill:#788CB4;}
	.st12{fill:#466932;}
	.st13{fill:#FBB993;}
	.st14{fill:#F1905B;}
	.st15{fill:#23192D;}
	.st16{fill:#32293C;}
	.st17{fill:#B92323;}
</style>
<g>
	<path class="st16" d="M464,136h-48v-32c0-44.112-35.888-80-80-80s-80,35.888-80,80v32h16v-32c0-35.29,28.71-64,64-64
		s64,28.71,64,64v32c-8.837,0-16,7.163-16,16v320c0,8.837-7.163,16-16,16h96c8.837,0,16-7.163,16-16V152
		C480,143.163,472.837,136,464,136z"/>
	<path class="st1" d="M368,136h-48v-32c0-44.112-35.888-80-80-80s-80,35.888-80,80v32h-48c-8.837,0-16,7.163-16,16v320
		c0,8.837,7.163,16,16,16h256c8.837,0,16-7.163,16-16V152C384,143.163,376.837,136,368,136z M176,136v-32c0-35.29,28.71-64,64-64
		s64,28.71,64,64v32H176z"/>
	<g>
		<g>
			<path class="st3" d="M208,248v-16c8.822,0,16-7.178,16-16s-7.178-16-16-16v-16c17.645,0,32,14.355,32,32S225.645,248,208,248z"/>
		</g>
		<g>
			<path class="st3" d="M96,248v-16c8.822,0,16-7.178,16-16s-7.178-16-16-16v-16c17.645,0,32,14.355,32,32S113.645,248,96,248z"/>
		</g>
		<g>
			<path class="st3" d="M64,440h208c17.673,0,32-14.327,32-32V264H32v144C32,425.673,46.327,440,64,440z"/>
		</g>
		<g>
			<path class="st2" d="M240,440H64c-17.673,0-32-14.327-32-32V264h240v144C272,425.673,257.673,440,240,440z"/>
		</g>
		<g>
			<path class="st5" d="M48,216h240c8.837,0,16,7.163,16,16v32H32v-32C32,223.163,39.163,216,48,216z"/>
		</g>
		<g>
			<path class="st4" d="M256,216H48c-8.837,0-16,7.163-16,16v32h240v-32C272,223.163,264.837,216,256,216z"/>
		</g>
		<g>
			<path class="st2" d="M96,248c-17.645,0-32-14.355-32-32s14.355-32,32-32c4.418,0,8,3.582,8,8s-3.582,8-8,8
				c-8.822,0-16,7.178-16,16s7.178,16,16,16c4.418,0,8,3.582,8,8S100.418,248,96,248z"/>
		</g>
		<g>
			<path class="st2" d="M208,248c-17.645,0-32-14.355-32-32s14.355-32,32-32c4.418,0,8,3.582,8,8s-3.582,8-8,8
				c-8.822,0-16,7.178-16,16s7.178,16,16,16c4.418,0,8,3.582,8,8S212.418,248,208,248z"/>
		</g>
	</g>
	<g>
		<path class="st4" d="M112,300H64c-6.627,0-12,5.373-12,12v72c0,6.627,5.373,12,12,12s12-5.373,12-12v-20h14.667
			c6.627,0,12-5.373,12-12s-5.373-12-12-12H76v-16h36c6.627,0,12-5.373,12-12S118.627,300,112,300z"/>
		<path class="st4" d="M204,332c0-17.645-14.355-32-32-32h-28c-6.627,0-12,5.373-12,12v72c0,6.627,5.373,12,12,12s12-5.373,12-12
			v-20h1.388l25.767,28.109c2.367,2.582,5.602,3.891,8.849,3.891c2.896,0,5.802-1.043,8.105-3.154
			c4.885-4.478,5.215-12.069,0.737-16.955l-14.177-15.466C196.952,355.097,204,344.359,204,332z M156,324h16c4.411,0,8,3.589,8,8
			s-3.589,8-8,8h-16V324z"/>
		<path class="st4" d="M234.667,300c-6.627,0-12,5.373-12,12v72c0,6.627,5.373,12,12,12s12-5.373,12-12v-72
			C246.667,305.373,241.294,300,234.667,300z"/>
	</g>
</g>
</svg>
