<?xml version="1.0" encoding="utf-8"?>
<!-- Generator: Adobe Illustrator 23.0.0, SVG Export Plug-In . SVG Version: 6.00 Build 0)  -->
<svg version="1.1" id="Layer_1" xmlns="http://www.w3.org/2000/svg" xmlns:xlink="http://www.w3.org/1999/xlink" x="0px" y="0px"
	 viewBox="0 0 512 512" style="enable-background:new 0 0 512 512;" xml:space="preserve">
<style type="text/css">
	.st0{fill:#32283C;}
	.st1{fill:#463C4B;}
	.st2{fill:#E6E6EB;}
	.st3{fill:#A5C3DC;}
	.st4{fill:#FF4646;}
	.st5{fill:#CD3232;}
	.st6{fill:#F0915A;}
	.st7{fill:#FAB991;}
	.st8{fill:#F5732D;}
	.st9{fill:#FAA037;}
	.st10{fill:#78AF41;}
	.st11{fill:#788CB4;}
	.st12{fill:#466932;}
	.st13{fill:#FBB993;}
	.st14{fill:#F1905B;}
	.st15{fill:#23192D;}
	.st16{fill:#32293C;}
	.st17{fill:#B92323;}
</style>
<g>
	<g>
		<path class="st6" d="M32,432h384c8.837,0,16-7.163,16-16V96c0-8.837-7.163-16-16-16H32c-8.837,0-16,7.163-16,16v320
			C16,424.837,23.163,432,32,432z"/>
	</g>
	<g>
		<path class="st7" d="M272,432H32c-8.837,0-16-7.163-16-16V96c0-8.837,7.163-16,16-16h240c8.837,0,16,7.163,16,16v320
			C288,424.837,280.837,432,272,432z"/>
	</g>
	<g>
		<path class="st2" d="M184,144h-64c-4.418,0-8-3.582-8-8V80h80v56C192,140.418,188.418,144,184,144z"/>
	</g>
	<g>
		<path class="st5" d="M490.794,241.926l-39.513-46.099c-2.082-2.429-5.122-3.827-8.321-3.827h-32l0,0
			c-6.053,0-10.959,4.907-10.959,10.959v10.374h-48c-8.837,0-16,7.163-16,16v53.333c0,8.837,7.163,16,16,16h48v10.374
			c0,6.053,4.907,10.959,10.959,10.959l0,0h32c3.2,0,6.239-1.398,8.321-3.827l39.513-46.099c3.36-3.92,5.206-8.912,5.206-14.074
			C496,250.837,494.153,245.846,490.794,241.926z"/>
	</g>
	<g>
		<path class="st4" d="M458.794,241.926l-39.513-46.099c-2.082-2.429-5.122-3.827-8.321-3.827c-6.053,0-10.959,4.907-10.959,10.959
			v10.374h-48c-8.837,0-16,7.163-16,16v53.333c0,8.837,7.163,16,16,16h48v10.374c0,6.053,4.907,10.959,10.959,10.959
			c3.199,0,6.239-1.398,8.321-3.827l39.513-46.099c3.36-3.92,5.206-8.912,5.206-14.074C464,250.837,462.153,245.846,458.794,241.926
			z"/>
	</g>
	<g>
		<path class="st6" d="M248,400h-48c-4.418,0-8-3.582-8-8v-32c0-4.418,3.582-8,8-8h48c4.418,0,8,3.582,8,8v32
			C256,396.418,252.418,400,248,400z"/>
	</g>
</g>
</svg>
