<svg id="Layer_1" data-name="Layer 1" xmlns="http://www.w3.org/2000/svg" viewBox="0 0 128 128"><title>CAP</title><path d="M118.5,81V92.5h-73V81a36.5,36.5,0,1,1,73,0Z" style="fill:#ffc900"/><path d="M102.5,81V92.5h-57V81A36.507,36.507,0,0,1,73.99,45.38,36.515,36.515,0,0,1,102.5,81Z" style="fill:#ffda2d"/><path d="M9.5,85.222A49.1,49.1,0,0,0,35.226,92.5H118.5V85.222Z" style="fill:#ff596b"/><path d="M118.5,81V92.5H64V74.58A30.068,30.068,0,0,1,80.76,47.61a29.4,29.4,0,0,1,7.59-2.56A36.518,36.518,0,0,1,118.5,81Z" style="fill:#4b9641"/><circle cx="83.172" cy="40" r="4.5" style="fill:#d1d1d1"/><path d="M102.5,81V92.5H64V74.58A30.068,30.068,0,0,1,80.76,47.61,36.521,36.521,0,0,1,102.5,81Z" style="fill:#5dbd52"/></svg>