<svg id="Layer_1" data-name="Layer 1" xmlns="http://www.w3.org/2000/svg" viewBox="0 0 128 128"><title>COCONUT</title><path d="M75,46.457a1.751,1.751,0,0,1-1.652-2.326l5.36-15.4a13.636,13.636,0,0,1,12.869-9.148H100a1.75,1.75,0,0,1,0,3.5H91.577a10.135,10.135,0,0,0-9.564,6.8l-5.36,15.4A1.75,1.75,0,0,1,75,46.457Z" style="fill:#b55607"/><path d="M48.869,58.679a1.751,1.751,0,0,1-1.694-1.316L39.019,25.5a1.75,1.75,0,0,1,3.391-.868l8.156,31.861a1.752,1.752,0,0,1-1.7,2.185Z" style="fill:#b55607"/><path d="M65.25,26.79a.364.364,0,0,1-.28.36.37.37,0,0,1-.45-.27,7.3,7.3,0,0,0-8.57-5.32c-.1.02-.2.04-.3.07A7.3,7.3,0,0,0,50.4,30.5a.277.277,0,0,1,.01.09.364.364,0,0,1-.28.36.375.375,0,0,1-.46-.27A7.288,7.288,0,0,0,35.55,34.3a.292.292,0,0,1,.02.09.376.376,0,0,1-.74.09,7.287,7.287,0,1,0-14.12,3.61v.01a.37.37,0,0,1-.27.45.277.277,0,0,1-.09.01.364.364,0,0,1-.36-.28A23.352,23.352,0,0,1,36.82,9.86c.11-.03.21-.05.32-.08A23.378,23.378,0,0,1,65.24,26.7.277.277,0,0,1,65.25,26.79Z" style="fill:#ff596b"/><path d="M50.13,30.95a.308.308,0,0,1-.1.01.364.364,0,0,1-.36-.28,7.216,7.216,0,0,0-3.34-4.46,7.3,7.3,0,0,0-5.08-.89c-.15.03-.29.06-.44.1a7.3,7.3,0,0,0-5.26,8.86v.01a.355.355,0,0,1-.27.45.277.277,0,0,1-.09.01.364.364,0,0,1-.36-.28c-4.68-18.29,1.56-24.29,1.83-24.53A.357.357,0,0,1,37,9.86c.36.09,8.72,2.35,13.4,20.64A.37.37,0,0,1,50.13,30.95Z" style="fill:#ebecee"/><path d="M118.5,116.75H9.5a1.75,1.75,0,0,0,0,3.5h109a1.75,1.75,0,0,0,0-3.5Z" style="fill:#4b9641"/><path d="M103.21,79.29a39.242,39.242,0,0,1-50.83,37.46h-.01A39.208,39.208,0,0,1,33.36,54.84l23.91-6.73,25.2,4.54,12.17,2.19A39.007,39.007,0,0,1,103.21,79.29Z" style="fill:#5dbd52"/><path d="M94.64,54.84a45.249,45.249,0,0,0-10.91-.36A38.873,38.873,0,0,0,64,61.35c-20.96,15.21-30.64-6.51-30.64-6.51l9.12-10.13H85.52Z" style="fill:#ebecee"/><path d="M82.227,82.624a1.75,1.75,0,0,1-1.692-2.2c3.6-13.584-5.233-23.091-5.61-23.489a1.75,1.75,0,0,1,2.531-2.417c.434.454,10.571,11.278,6.462,26.8A1.75,1.75,0,0,1,82.227,82.624Z" style="fill:#ebecee"/><path d="M53.259,102.368a1.742,1.742,0,0,1-1.16-.441C34,85.875,45.12,65.756,45.234,65.555a1.75,1.75,0,0,1,3.044,1.728c-.414.735-9.8,17.889,6.143,32.026a1.75,1.75,0,0,1-1.162,3.059Z" style="fill:#ebecee"/><path d="M65.25,26.79a.364.364,0,0,1-.28.36.37.37,0,0,1-.45-.27,7.3,7.3,0,0,0-8.57-5.32C49.98,10.88,37,9.86,37,9.86s.05-.03.14-.08A23.378,23.378,0,0,1,65.24,26.7.277.277,0,0,1,65.25,26.79Z" style="fill:#e4474f"/><path d="M50.13,30.95a.308.308,0,0,1-.1.01.364.364,0,0,1-.36-.28,7.216,7.216,0,0,0-3.34-4.46,7.3,7.3,0,0,0-5.08-.89A26.937,26.937,0,0,0,37,9.86c.36.09,8.72,2.35,13.4,20.64A.37.37,0,0,1,50.13,30.95Z" style="fill:#d1d1d1"/><path d="M103.21,79.29a39.242,39.242,0,0,1-50.83,37.46C74.77,117.83,89.16,103.26,93,83.52c2.06-10.62-5.04-23.13-10.53-30.87l12.17,2.19A39.007,39.007,0,0,1,103.21,79.29Z" style="fill:#4b9641"/><path d="M94.64,54.84a45.249,45.249,0,0,0-10.91-.36,87.4,87.4,0,0,0-7.08-9.2s.39-.22,1.13-.57h7.74Z" style="fill:#d1d1d1"/></svg>