<svg id="Layer_1" data-name="Layer 1" xmlns="http://www.w3.org/2000/svg" viewBox="0 0 128 128"><title>FLOAT</title><path d="M64,119.445a22.812,22.812,0,0,1-16.238-6.727L15.281,80.237a22.988,22.988,0,0,1,0-32.475L47.762,15.281a22.961,22.961,0,0,1,32.475,0l32.481,32.481a22.961,22.961,0,0,1,0,32.475L80.237,112.719A22.81,22.81,0,0,1,64,119.445ZM64,12.055a19.335,19.335,0,0,0-13.763,5.7L17.755,50.237a19.486,19.486,0,0,0,0,27.525l32.481,32.481a19.463,19.463,0,0,0,27.526,0l32.481-32.481h0a19.462,19.462,0,0,0,0-27.525L77.763,17.756A19.333,19.333,0,0,0,64,12.055Z" style="fill:#b55607"/><path d="M64,19.791A44.209,44.209,0,1,0,108.209,64,44.209,44.209,0,0,0,64,19.791Zm0,66.675A22.465,22.465,0,1,1,86.465,64,22.465,22.465,0,0,1,64,86.465Z" style="fill:#d1d1d1"/><path d="M59.375,20.032a44.21,44.21,0,0,0,0,87.935,44.21,44.21,0,0,0,0-87.935ZM64,86.465a22.552,22.552,0,0,1-4.625-.479,22.465,22.465,0,1,1,0-43.973A22.466,22.466,0,1,1,64,86.465Z" style="fill:#ebecee"/><path d="M50.874,21.773l3.342,22a22.5,22.5,0,0,1,19.568,0l3.342-22a44.46,44.46,0,0,0-26.252,0Z" style="fill:#e4474f"/><path d="M106.227,50.874l-22,3.342a22.5,22.5,0,0,1,0,19.568l22,3.342a44.46,44.46,0,0,0,0-26.252Z" style="fill:#e4474f"/><path d="M77.126,106.228l-3.342-22a22.5,22.5,0,0,1-19.568,0l-3.342,22a44.46,44.46,0,0,0,26.252,0Z" style="fill:#e4474f"/><path d="M21.772,77.126l22-3.342a22.5,22.5,0,0,1,0-19.568l-22-3.342a44.46,44.46,0,0,0,0,26.252Z" style="fill:#e4474f"/><path d="M86.465,64a22.374,22.374,0,0,1-2.238,9.784L97.36,75.779a44.178,44.178,0,0,0,0-23.558L84.227,54.216A22.374,22.374,0,0,1,86.465,64Z" style="fill:#ff596b"/><path d="M50.874,21.773l3.005,19.784c.289-.011.579-.022.871-.022a22.546,22.546,0,0,1,4.641.483,22.426,22.426,0,0,1,14.393,1.755l2.769-18.226a43.906,43.906,0,0,0-17.161-5.512A44.011,44.011,0,0,0,50.874,21.773Z" style="fill:#ff596b"/><path d="M32.285,64a22.354,22.354,0,0,1,2.928-11.084l-13.44-2.041a44.46,44.46,0,0,0,0,26.252l13.44-2.041A22.354,22.354,0,0,1,32.285,64Z" style="fill:#ff596b"/><path d="M76.553,102.454,73.784,84.227a22.426,22.426,0,0,1-14.393,1.755,22.546,22.546,0,0,1-4.641.483c-.292,0-.581-.011-.871-.022l-3.005,19.784a44.015,44.015,0,0,0,8.517,1.738A43.907,43.907,0,0,0,76.553,102.454Z" style="fill:#ff596b"/></svg>