<svg id="Layer_1" data-name="Layer 1" xmlns="http://www.w3.org/2000/svg" viewBox="0 0 128 128"><title>HAWAIIAN</title><path d="M118.5,49.68,96.26,65.26v50.36H31.74V65.26l-3.5-2.45L9.5,49.68,28.17,23.02a11.417,11.417,0,0,1,9.36-4.88H90.47a11.417,11.417,0,0,1,9.36,4.88Z" style="fill:#5dbd52"/><path d="M118.5,49.68,96.26,65.26v50.36H64.81L64,37.88,78.5,18.15l.02-.01H90.47a11.417,11.417,0,0,1,9.36,4.88l2.49,3.56Z" style="fill:#4b9641"/><path d="M111.21,49.68,88.97,65.26v50.36H64.81L64,37.88,78.5,18.15l.02-.01h4.66a11.417,11.417,0,0,1,9.36,4.88l2.49,3.56Z" style="fill:#5dbd52"/><path d="M31.74,40.12V65.26l-3.5-2.45V40.12a1.75,1.75,0,0,1,3.5,0Z" style="fill:#4b9641"/><path d="M98.011,62.917a1.75,1.75,0,0,1-1.75-1.75V40.115a1.75,1.75,0,1,1,3.5,0V61.167A1.75,1.75,0,0,1,98.011,62.917Z" style="fill:#4b9641"/><path d="M65.75,34.67v80.95h-3.5V34.67a1.75,1.75,0,0,1,3.5,0Z" style="fill:#4b9641"/><polygon points="49.5 18.145 54.333 12.38 64 25.167 64 37.88 49.5 18.145" style="fill:#ffda2d"/><polygon points="78.5 18.145 73.667 12.38 64 25.167 64 37.88 78.5 18.145" style="fill:#ffda2d"/><polygon points="54.333 12.38 73.667 12.38 64 25.167 54.333 12.38" style="fill:#4b9641"/><path d="M52.229,36.047c0-1.02-1.2-1.881-2.856-2.163.963-1.365,1.214-2.818.495-3.538s-2.172-.469-3.538.494c-.282-1.653-1.144-2.856-2.163-2.856S42.285,29.187,42,30.84c-1.365-.963-2.818-1.214-3.538-.494s-.468,2.172.495,3.538c-1.653.282-2.856,1.144-2.856,2.163s1.2,1.881,2.856,2.163c-.963,1.366-1.214,2.818-.495,3.538s2.172.469,3.538-.495c.282,1.653,1.144,2.856,2.163,2.856s1.881-1.2,2.163-2.856c1.365.963,2.818,1.214,3.538.495s.469-2.172-.494-3.538C51.026,37.928,52.229,37.066,52.229,36.047Z" style="fill:#ffda2d"/><path d="M85.187,94.651c0-1.02-1.2-1.881-2.856-2.163.963-1.365,1.214-2.818.495-3.538s-2.172-.469-3.538.495c-.282-1.653-1.144-2.856-2.163-2.856s-1.881,1.2-2.164,2.856c-1.365-.963-2.818-1.214-3.537-.495s-.469,2.172.494,3.538c-1.653.282-2.856,1.144-2.856,2.163s1.2,1.881,2.856,2.163c-.963,1.365-1.214,2.818-.494,3.538s2.172.469,3.537-.495c.282,1.653,1.144,2.856,2.164,2.856s1.881-1.2,2.163-2.856c1.365.963,2.818,1.214,3.538.495s.469-2.172-.495-3.538C83.984,96.532,85.187,95.671,85.187,94.651Z" style="fill:#ffda2d"/><path d="M40.72,103.14c1.16,1.65,1.46,3.4.6,4.27s-2.62.57-4.27-.6c-.34,2-1.38,3.45-2.61,3.45s-2.27-1.45-2.61-3.45l-.09.06V94.19l.09.06c.34-2,1.38-3.45,2.61-3.45s2.27,1.45,2.61,3.45c1.65-1.16,3.4-1.47,4.27-.6s.56,2.62-.6,4.27c1.99.34,3.45,1.38,3.45,2.61S42.71,102.8,40.72,103.14Z" style="fill:#ffda2d"/><path d="M101.96,28.25c-.72.72-2.17.47-3.54-.5-.28,1.66-1.14,2.86-2.16,2.86s-1.88-1.2-2.16-2.86c-1.37.97-2.82,1.22-3.54.5s-.47-2.17.49-3.54c-1.65-.28-2.85-1.14-2.85-2.16s1.2-1.88,2.85-2.17a4.563,4.563,0,0,1-.9-2.24h.32a11.417,11.417,0,0,1,9.36,4.88l2.49,3.56A1.806,1.806,0,0,1,101.96,28.25Z" style="fill:#ffda2d"/><path d="M59.125,66.88c0-1.02-1.2-1.881-2.856-2.163.963-1.365,1.214-2.818.495-3.537s-2.172-.469-3.538.494c-.282-1.653-1.144-2.856-2.164-2.856s-1.881,1.2-2.163,2.856c-1.365-.963-2.818-1.214-3.538-.494s-.469,2.172.495,3.537C44.2,65,43,65.86,43,66.88s1.2,1.881,2.856,2.163c-.963,1.365-1.214,2.818-.495,3.538s2.172.469,3.538-.495c.282,1.653,1.144,2.856,2.163,2.856s1.881-1.2,2.164-2.856c1.365.963,2.818,1.214,3.538.495s.468-2.172-.495-3.538C57.922,68.761,59.125,67.9,59.125,66.88Z" style="fill:#ffda2d"/><path d="M93.394,54.568c0-1.193-1.408-2.2-3.341-2.531,1.127-1.6,1.42-3.3.579-4.139s-2.541-.548-4.139.579c-.33-1.934-1.338-3.341-2.531-3.341s-2.2,1.408-2.531,3.341c-1.6-1.127-3.3-1.42-4.139-.579s-.548,2.541.579,4.139c-1.934.33-3.341,1.338-3.341,2.531s1.408,2.2,3.341,2.531c-1.127,1.6-1.42,3.3-.578,4.139s2.541.548,4.139-.579C81.761,62.593,82.769,64,83.961,64s2.2-1.407,2.531-3.341c1.6,1.127,3.3,1.42,4.139.579s.548-2.541-.579-4.139C91.986,56.768,93.394,55.76,93.394,54.568Z" style="fill:#ffda2d"/><path d="M90.218,20.594A11.411,11.411,0,0,1,92.54,23.02l2.49,3.56,2.4,3.431a4.474,4.474,0,0,0,.987-2.261c1.37.97,2.82,1.22,3.54.5a1.806,1.806,0,0,0,.36-1.67l-2.49-3.56a11.417,11.417,0,0,0-9.36-4.88h-.32a4.563,4.563,0,0,0,.9,2.24A5.96,5.96,0,0,0,90.218,20.594Z" style="fill:#ffc900"/></svg>