<svg id="Layer_1" data-name="Layer 1" xmlns="http://www.w3.org/2000/svg" viewBox="0 0 128 128"><title>LOUNGER</title><path d="M118.5,111.616h-3.519l-9.534-19.554A1.75,1.75,0,1,0,102.3,93.6l8.784,18.019h-28.7V36.8a1.75,1.75,0,1,0-3.5,0v74.812H16.913L24.125,96.85a1.75,1.75,0,0,0-3.145-1.535l-7.962,16.3H9.5a1.75,1.75,0,0,0,0,3.5h109a1.75,1.75,0,0,0,0-3.5Z" style="fill:#983729"/><path d="M114.39,47.89a.5.5,0,0,1-1,0,10.613,10.613,0,0,0-8.22-10.32,10.245,10.245,0,0,0-2.37-.27A10.6,10.6,0,0,0,92.22,47.89a.5.5,0,0,1-.5.5.5.5,0,0,1-.5-.5,10.585,10.585,0,1,0-21.17,0,.5.5,0,0,1-.5.5.5.5,0,0,1-.5-.5,10.585,10.585,0,1,0-21.17,0,.5.5,0,0,1-.5.5.5.5,0,0,1-.5-.5A33.8,33.8,0,0,1,80.63,14.13h.28A33.8,33.8,0,0,1,114.39,47.89Z" style="fill:#ff596b"/><path d="M92.22,47.89a.5.5,0,0,1-.5.5.5.5,0,0,1-.5-.5,10.6,10.6,0,0,0-7.68-10.18,10.331,10.331,0,0,0-2.91-.41A10.6,10.6,0,0,0,70.05,47.89a.5.5,0,0,1-.5.5.5.5,0,0,1-.5-.5c0-27.29,10.88-33.45,11.35-33.7a.491.491,0,0,1,.47,0C81.33,14.44,92.22,20.6,92.22,47.89Z" style="fill:#ebecee"/><rect x="14.111" y="90.139" width="91.336" height="5.943" style="fill:#b55607"/><polygon points="88.545 96.082 108.742 61.099 113.889 64.071 95.407 96.082 88.545 96.082" style="fill:#b55607"/><path d="M114.39,47.89a.5.5,0,0,1-1,0,10.613,10.613,0,0,0-8.22-10.32c-6.16-18.63-24.3-23.38-24.3-23.38l.04-.06A33.8,33.8,0,0,1,114.39,47.89Z" style="fill:#e4474f"/><path d="M92.22,47.89a.5.5,0,0,1-.5.5.5.5,0,0,1-.5-.5,10.6,10.6,0,0,0-7.68-10.18c1.78-11.98-2.67-23.52-2.67-23.52C81.33,14.44,92.22,20.6,92.22,47.89Z" style="fill:#d1d1d1"/></svg>