<svg id="Layer_1" data-name="Layer 1" xmlns="http://www.w3.org/2000/svg" viewBox="0 0 128 128"><title>PALM TREE</title><path d="M67.5,107.75H47.25c33-34.75,7.01-56.06,7.01-56.06l6.2-2.79c.85.7,1.65,1.41,2.41,2.12C89.39,75.79,67.5,107.75,67.5,107.75Z" style="fill:#983729"/><path d="M67.5,107.75H58.12C85,70.5,61.39,51.69,61.39,51.69l1.48-.67C89.39,75.79,67.5,107.75,67.5,107.75Z" style="fill:#b55607"/><path d="M57.8,53.2l-4.22-3.66-7.24-6.28,1.25-4.88L42.94,40.3,27.09,26.53l1.25-4.87-4.65,1.92L12.28,13.67l-.05-.04c4.79-5.51,18.88-1.13,31.46,9.8S62.59,47.69,57.8,53.2Z" style="fill:#4b9641"/><path d="M46.34,43.26l1.25-4.88L42.94,40.3,27.09,26.53l1.25-4.87-4.65,1.92L12.28,13.67c6.59-.26,16.52,4.23,25.66,12.17s14.97,17.14,15.64,23.7Z" style="fill:#5dbd52"/><path d="M58.34,54.06l-.73.06-2.51.19-8.08.62L45.08,51.7l-1.42,3.49-15.68,1.2-1.93-3.23-1.43,3.48-11.32.87V57.5c-.41-5.45,9.34-10.64,21.77-11.59S57.93,48.61,58.34,54.06Z" style="fill:#4b9641"/><path d="M55.1,54.31l-8.08.62L45.08,51.7l-1.42,3.49-15.68,1.2-1.93-3.23-1.43,3.48-11.32.87V57.5c3.06-3.88,10.96-7.07,20.43-7.79S51.5,50.93,55.1,54.31Z" style="fill:#5dbd52"/><path d="M97.7,71.43a.037.037,0,0,1-.01.03l-8.95-4.84.11-3.37-2.76,1.94L73.7,58.49l.11-3.37-2.76,1.94-6.07-3.28L62.1,52.22c2.33-4.31,12.18-3.49,22.01,1.82C93.92,59.34,99.99,67.11,97.7,71.43Z" style="fill:#4b9641"/><path d="M97.7,71.43a.037.037,0,0,1-.01.03l-8.95-4.84.11-3.37-2.76,1.94L73.7,58.49l.11-3.37-2.76,1.94-6.07-3.28c4.22-1.32,11.58.14,18.92,4.11C91.22,61.84,96.47,67.19,97.7,71.43Z" style="fill:#5dbd52"/><path d="M115.77,30.52v.01l-14.06,5.7-3.78-3.32-.39,5.01L78.07,45.81,74.3,42.49l-.4,5.01-9,3.65L59.84,53.2c-2.74-6.77,7.55-17.33,22.99-23.59S113.01,23.76,115.77,30.52Z" style="fill:#4b9641"/><path d="M115.77,30.52v.01l-14.06,5.7-3.78-3.32-.39,5.01L78.07,45.81,74.3,42.49l-.4,5.01-9,3.65c2.7-6.02,11.24-12.9,22.54-17.48S109.64,28.08,115.77,30.52Z" style="fill:#5dbd52"/><path d="M118.5,109.5H9.5a1.75,1.75,0,0,1,0-3.5h109a1.75,1.75,0,0,1,0,3.5Z" style="fill:#b55607"/><path d="M108.667,118.5H19.333a1.75,1.75,0,0,1,0-3.5h89.334a1.75,1.75,0,0,1,0,3.5Z" style="fill:#b55607"/><path d="M62.1,55.22a6.32,6.32,0,1,1-6.32-6.32,1.275,1.275,0,0,1,.2.01A6.311,6.311,0,0,1,62.1,55.22Z" style="fill:#ffc900"/><path d="M62.1,55.22a6.3,6.3,0,0,1-1.95,4.56,6.311,6.311,0,0,1-4.17-10.87A6.311,6.311,0,0,1,62.1,55.22Z" style="fill:#ffda2d"/><path d="M70.32,54.14a6.32,6.32,0,1,1-6.57-6.31,2.09,2.09,0,0,1,.25-.01A6.321,6.321,0,0,1,70.32,54.14Z" style="fill:#ffc900"/><path d="M70.32,54.14a6.313,6.313,0,0,1-1.65,4.25,2.09,2.09,0,0,1-.25.01,6.314,6.314,0,0,1-4.67-10.57,2.09,2.09,0,0,1,.25-.01A6.321,6.321,0,0,1,70.32,54.14Z" style="fill:#ffda2d"/></svg>