<svg id="Layer_1" data-name="Layer 1" xmlns="http://www.w3.org/2000/svg" viewBox="0 0 128 128"><title>PAMELA HAT</title><path d="M85.35,51.53,43.17,58.87l-10.36,1.8a26.665,26.665,0,1,1,52.54-9.14Z" style="fill:#e4474f"/><path d="M85.35,51.53,43.17,58.87A26.661,26.661,0,0,1,60.5,29.47,26.675,26.675,0,0,1,85.35,51.53Z" style="fill:#ff596b"/><polygon points="86.41 57.64 77.15 59.25 44.19 64.98 44.18 64.99 33.87 66.78 32.81 60.67 43.17 58.87 85.35 51.53 86.41 57.64" style="fill:#ffda2d"/><path d="M118.77,74.13c-7.37-3.04-15.73-3.74-24.43-2.88a104.022,104.022,0,0,0-21.92,4.9A191.182,191.182,0,0,0,45.78,87.46c-13.02,6.62-24.22,4.19-30.68,1.52a29.03,29.03,0,0,1-5.88-3.16L33.87,66.78l10.31-1.79.01-.01,32.96-5.73,9.26-1.61a45.244,45.244,0,0,1,6.67,1.27A58.858,58.858,0,0,1,118.77,74.13Z" style="fill:#ff596b"/><path d="M118.784,74.139s-.206-.242-.626-.645C118.569,73.9,118.784,74.139,118.784,74.139Z" style="fill:#e4474f"/><path d="M45.778,87.455A41.22,41.22,0,0,1,40.493,89.7l0,0S70.787,79.146,90.11,78.9c20.042-.259,28.674-4.758,28.674-4.758C97.583,65.376,68.3,76,45.778,87.455Z" style="fill:#e4474f"/><path d="M85.348,51.53s-5.6,27.79,10.4,42.54l-5.675,4.5S70.7,73.74,85.348,51.53Z" style="fill:#ffda2d"/><polygon points="44.19 64.98 44.18 64.99 33.87 66.78 32.81 60.67 43.17 58.87 44.19 64.98" style="fill:#ffc900"/><path d="M44.18,64.99,15.1,88.98a29.03,29.03,0,0,1-5.88-3.16L33.87,66.78Z" style="fill:#e4474f"/><path d="M81.869,58.43l-4.718.82c-2.38,3.77-4.42,9.21-4.73,16.9q3.825-1.261,7.679-2.265A33.969,33.969,0,0,1,81.869,58.43Z" style="fill:#e4474f"/><path d="M85.347,51.531c-.028.011-4.509,1.857-8.2,7.719l4.718-.82A33.184,33.184,0,0,1,85.347,51.531Z" style="fill:#ffc900"/></svg>