<svg id="Layer_1" data-name="Layer 1" xmlns="http://www.w3.org/2000/svg" viewBox="0 0 128 128"><title>PASSPORT</title><rect x="31" y="9.5" width="66" height="94.5" style="fill:#92d5f3"/><rect x="31" y="9.5" width="59.67" height="94.5" style="fill:#b5e3e9"/><polygon points="90.667 104 31 104 90.667 117 90.667 104" style="fill:#92d5f3"/><path d="M64,33.917A17.417,17.417,0,1,0,81.417,51.333,17.436,17.436,0,0,0,64,33.917ZM77.794,49.583H70.732a34.081,34.081,0,0,0-2.076-11.348A13.936,13.936,0,0,1,77.794,49.583ZM64.025,65.249h-.011c-.848-.223-2.968-4.261-3.247-12.166h6.466C66.954,60.985,64.838,65.023,64.025,65.249ZM60.767,49.583c.279-7.9,2.395-11.939,3.208-12.165h.011c.847.223,2.967,4.261,3.246,12.165ZM59.344,38.235a34.081,34.081,0,0,0-2.076,11.348H50.206A13.936,13.936,0,0,1,59.344,38.235ZM50.206,53.083h7.062a34.082,34.082,0,0,0,2.077,11.349A13.936,13.936,0,0,1,50.206,53.083Zm18.45,11.349a34.082,34.082,0,0,0,2.076-11.349h7.062A13.936,13.936,0,0,1,68.656,64.432Z" style="fill:#ebecee"/><path d="M48.334,83.5H79.667a1.75,1.75,0,0,0,0-3.5H48.334a1.75,1.75,0,0,0,0,3.5Z" style="fill:#ebecee"/><path d="M79.667,87.917H48.334a1.75,1.75,0,1,0,0,3.5H79.667a1.75,1.75,0,1,0,0-3.5Z" style="fill:#ebecee"/></svg>