<svg id="Layer_1" data-name="Layer 1" xmlns="http://www.w3.org/2000/svg" viewBox="0 0 128 128"><title>SAND BUCKET</title><path d="M104.68,50.63,93.7,118.5H84.73a5.65,5.65,0,0,0-5.63-5.63H48.9a5.633,5.633,0,0,0-5.63,5.63H34.3l-.73-4.53L23.32,50.63Z" style="fill:#4b9641"/><path d="M92.68,50.63,82.43,113.97a5.566,5.566,0,0,0-3.33-1.1H36.9a5.566,5.566,0,0,0-3.33,1.1L23.32,50.63Z" style="fill:#5dbd52"/><path d="M99.85,36.95a10.991,10.991,0,0,1-20.09,6.18,17.919,17.919,0,0,1-3.35,1.86,18.2,18.2,0,0,1-7.24,1.49,18.02,18.02,0,0,1-5.62-.89,18.357,18.357,0,0,1-8.73-5.96A14.41,14.41,0,1,1,41.6,17.68c.32-.03.64-.04.97-.04a14.208,14.208,0,0,1,4.36.67A14.515,14.515,0,0,1,52,21.17,18.461,18.461,0,0,1,68.8,9.51c.12-.01.25-.01.37-.01A18.48,18.48,0,0,1,87.55,26.04a11.2,11.2,0,0,1,1.3-.09A11,11,0,0,1,99.85,36.95Z" style="fill:#ff8f2b"/><path d="M92.68,37.24c0,5.57-2.97,9.02-8.35,9.74a10.415,10.415,0,0,1-1.48.1,10.9,10.9,0,0,1-6.44-2.09,10.583,10.583,0,0,1-2.65-2.73,18.366,18.366,0,0,1-10.21,3.33c-.13.01-.25.01-.38.01a18.612,18.612,0,0,1-14.35-6.84,14.418,14.418,0,0,1-11.29,6.81A14.415,14.415,0,0,1,41.6,17.68c1.63.6,4.858,2.445,6.15,4.153.27-.68,2.79-1.933,4.25-.663A18.461,18.461,0,0,1,68.8,9.51,18.467,18.467,0,0,1,81.55,25.17a11.2,11.2,0,0,1,1.3-.09C88.93,25.08,92.68,31.17,92.68,37.24Z" style="fill:orange"/><rect x="19.53" y="37.24" width="88.94" height="13.39" style="fill:#e4474f"/><rect x="19.53" y="37.24" width="73.15" height="13.39" style="fill:#ff596b"/><path d="M64,48.225a4.365,4.365,0,1,1,4.365-4.365A4.37,4.37,0,0,1,64,48.225Z" style="fill:#983729"/><path d="M67.487,16.157a1.75,1.75,0,0,0-1.75,1.75V19.65a1.75,1.75,0,1,0,3.5,0V17.907A1.75,1.75,0,0,0,67.487,16.157Z" style="fill:#983729"/><path d="M77.949,24.83a1.75,1.75,0,0,0-1.75,1.75v1.744a1.75,1.75,0,1,0,3.5,0V26.58A1.75,1.75,0,0,0,77.949,24.83Z" style="fill:#983729"/><path d="M40.841,26.1a1.75,1.75,0,0,0-1.75,1.75V29.6a1.75,1.75,0,1,0,3.5,0V27.854A1.75,1.75,0,0,0,40.841,26.1Z" style="fill:#983729"/><path d="M56.668,26.774a1.75,1.75,0,0,0-1.75,1.75v1.743a1.75,1.75,0,0,0,3.5,0V28.524A1.75,1.75,0,0,0,56.668,26.774Z" style="fill:#983729"/><path d="M65.116,42.512a1.749,1.749,0,0,0-2.464.231c-27.141,32.774-35.44,33.51-37.748,32.3-3.393-1.773-2.673-11.726-.871-20.011L23.32,50.63H21.5a85.446,85.446,0,0,0-2.163,11.418c-1.005,8.922.283,14.189,3.939,16.1a6.437,6.437,0,0,0,3.063.745c5.421,0,15.795-5.893,39-33.918A1.75,1.75,0,0,0,65.116,42.512Z" style="fill:#b55607"/></svg>