<svg id="Layer_1" data-name="Layer 1" xmlns="http://www.w3.org/2000/svg" viewBox="0 0 128 128"><title>SNORKLE</title><ellipse cx="64" cy="76.423" rx="29.737" ry="17.448" style="fill:#983729"/><path d="M113.98,81.19c-4.25,4.7-9.64,5.01-15.61,3.42-8.68-2.31-18.59-8.65-28.01-11.4a22.872,22.872,0,0,0-11.73-.26c-.33.08-.66.17-.99.26-13.63,3.98-28.29,15.47-38.76,11.4a12.713,12.713,0,0,1-4.86-3.42c-7.77-8.59-3.96-24.09-.14-34.25a15.312,15.312,0,0,1,14.34-9.92H99.78a15.312,15.312,0,0,1,14.34,9.92C117.94,57.1,121.75,72.6,113.98,81.19Z" style="fill:#983729"/><path d="M103.23,81.19a12.713,12.713,0,0,1-4.86,3.42c-8.68-2.31-18.59-8.65-28.01-11.4a43.515,43.515,0,0,0-23.47,0c-9.483,2.526-19.33,9.09-28.01,11.4a12.713,12.713,0,0,1-4.86-3.42c-7.77-8.59-3.96-24.09-.14-34.25a15.312,15.312,0,0,1,14.34-9.92H89.03a15.312,15.312,0,0,1,14.34,9.92C107.19,57.1,111,72.6,103.23,81.19Z" style="fill:#b55607"/><path d="M109.04,76.71a5.815,5.815,0,0,1-4.77,2.09c-4.46,0-10.82-2.97-16.98-5.85-.88-.41-1.77-.83-2.67-1.24-.83-.39-1.67-.77-2.51-1.15q-1.29-.57-2.58-1.11a69.165,69.165,0,0,0-6.74-2.47c-.19-.06-.37-.12-.56-.17a29.531,29.531,0,0,0-16.46,0,107.618,107.618,0,0,0-15.06,6.14,113.011,113.011,0,0,1-10.44,4.48,25.565,25.565,0,0,1-4.91,1.26h-.01a13.229,13.229,0,0,1-1.62.11,6.873,6.873,0,0,1-1.94-.24,5.871,5.871,0,0,1-2.83-1.85,9.293,9.293,0,0,1-1.72-2.81c-2.1-5.25-1.13-13.94,2.88-24.62a8.692,8.692,0,0,1,8.1-5.59H99.78a8.626,8.626,0,0,1,4.34,1.17,8.4,8.4,0,0,1,2.04,1.65,8.17,8.17,0,0,1,1.47,2.19,5.96,5.96,0,0,1,.25.58C112.72,62.18,113.14,72.18,109.04,76.71Z" style="fill:#b5e3e9"/><path d="M56.66,43.69,21.79,78.56a5.871,5.871,0,0,1-2.83-1.85,9.293,9.293,0,0,1-1.72-2.81L47.45,43.69Z" style="fill:#ebecee"/><path d="M64.01,43.69,30.27,77.43a25.565,25.565,0,0,1-4.91,1.26l34.99-35Z" style="fill:#ebecee"/><path d="M104.12,44.86,79.53,69.45a69.165,69.165,0,0,0-6.74-2.47L96.08,43.69h3.7A8.626,8.626,0,0,1,104.12,44.86Z" style="fill:#ebecee"/><path d="M107.63,48.7,84.62,71.71c-.83-.39-1.67-.77-2.51-1.15l24.05-24.05A8.17,8.17,0,0,1,107.63,48.7Z" style="fill:#ebecee"/><path d="M111.84,14.93v89.81a13.924,13.924,0,0,1-13.92,13.92H72.99a14.419,14.419,0,0,1-14.42-14.42V93.58a50.183,50.183,0,0,0,5.41.29H64a50.558,50.558,0,0,0,5.43-.29v9.91a4.3,4.3,0,0,0,4.3,4.3H95.2a5.766,5.766,0,0,0,5.77-5.77V14.93a5.419,5.419,0,0,1,1.59-3.84,5.171,5.171,0,0,1,1.12-.85,5.355,5.355,0,0,1,2.72-.74A5.437,5.437,0,0,1,111.84,14.93Z" style="fill:#4b9641"/><path d="M106.39,14.93v89.81a13.924,13.924,0,0,1-13.92,13.92H72.99a14.419,14.419,0,0,1-14.42-14.42V93.58a50.183,50.183,0,0,0,5.41.29v9.62a4.3,4.3,0,0,0,4.3,4.3H95.2a5.766,5.766,0,0,0,5.77-5.77V14.93a5.419,5.419,0,0,1,1.59-3.84,5.171,5.171,0,0,1,1.12-.85A5.4,5.4,0,0,1,106.39,14.93Z" style="fill:#5dbd52"/><rect x="100.972" y="64.241" width="10.831" height="3.5" style="fill:#4b9641"/><rect x="100.972" y="72.578" width="10.831" height="3.5" style="fill:#4b9641"/><rect x="100.972" y="80.915" width="10.831" height="3.5" style="fill:#4b9641"/><rect x="100.972" y="89.252" width="10.831" height="3.5" style="fill:#4b9641"/><rect x="100.972" y="97.589" width="10.831" height="3.5" style="fill:#4b9641"/></svg>