<svg id="Layer_1" data-name="Layer 1" xmlns="http://www.w3.org/2000/svg" viewBox="0 0 128 128"><title>SUITCASE</title><path d="M80.5,40.942h-33a1.75,1.75,0,0,1-1.75-1.75V25.421A8.262,8.262,0,0,1,54,17.168H74a8.263,8.263,0,0,1,8.253,8.253V39.192A1.75,1.75,0,0,1,80.5,40.942Zm-31.25-3.5h29.5V25.421A4.758,4.758,0,0,0,74,20.668H54a4.758,4.758,0,0,0-4.753,4.753Z" style="fill:#983729"/><rect x="9.5" y="34.15" width="109" height="74.93" rx="4.9" ry="4.9" style="fill:#983729"/><path d="M110.5,34.15V96.57a4.9,4.9,0,0,1-4.9,4.9H9.5V39.05a4.9,4.9,0,0,1,4.9-4.9Z" style="fill:#b55607"/><rect x="21.486" y="29.083" width="12" height="80" style="fill:#ebecee"/><rect x="94.514" y="29.083" width="12" height="80" style="fill:#ebecee"/><rect x="21.486" y="101.47" width="12" height="7.613" style="fill:#d1d1d1"/><rect x="94.514" y="101.47" width="12" height="7.613" style="fill:#d1d1d1"/></svg>