<svg id="Layer_1" data-name="Layer 1" xmlns="http://www.w3.org/2000/svg" viewBox="0 0 128 128"><title>SUN</title><path d="M99,64A35,35,0,1,1,64,29,34.807,34.807,0,0,1,99,64Z" style="fill:#ffc900"/><path d="M99,64a34.807,34.807,0,0,1-5.97,19.55A35,35,0,0,1,43.3,35.78,35,35,0,0,1,99,64Z" style="fill:#ffda2d"/><path d="M64,7.75A1.75,1.75,0,0,0,62.25,9.5v12a1.75,1.75,0,0,0,3.5,0V9.5A1.75,1.75,0,0,0,64,7.75Z" style="fill:orange"/><path d="M94.052,35.7a1.744,1.744,0,0,0,1.237-.513l24.448-24.448a1.75,1.75,0,1,0-2.475-2.475L92.815,32.711A1.75,1.75,0,0,0,94.052,35.7Z" style="fill:orange"/><path d="M118.5,62.25h-12a1.75,1.75,0,0,0,0,3.5h12a1.75,1.75,0,0,0,0-3.5Z" style="fill:orange"/><path d="M95.289,92.815a1.75,1.75,0,0,0-2.475,2.475l24.448,24.448a1.75,1.75,0,1,0,2.475-2.475Z" style="fill:orange"/><path d="M64,104.75a1.75,1.75,0,0,0-1.75,1.75v12a1.75,1.75,0,0,0,3.5,0v-12A1.75,1.75,0,0,0,64,104.75Z" style="fill:orange"/><path d="M32.711,92.815,8.263,117.263a1.75,1.75,0,1,0,2.475,2.475L35.186,95.289a1.75,1.75,0,1,0-2.475-2.475Z" style="fill:orange"/><path d="M21.5,65.75a1.75,1.75,0,0,0,0-3.5H9.5a1.75,1.75,0,0,0,0,3.5Z" style="fill:orange"/><path d="M10.737,8.263a1.75,1.75,0,0,0-2.475,2.475L32.711,35.186a1.75,1.75,0,0,0,2.475-2.475Z" style="fill:orange"/><path d="M90.5,65.75A1.75,1.75,0,0,1,88.75,64,24.778,24.778,0,0,0,64,39.25a1.75,1.75,0,0,1,0-3.5A28.282,28.282,0,0,1,92.25,64,1.75,1.75,0,0,1,90.5,65.75Z" style="fill:#fff"/></svg>