<svg id="Layer_1" data-name="Layer 1" xmlns="http://www.w3.org/2000/svg" viewBox="0 0 128 128"><title>SUNSET</title><path d="M99,71.25H29a35,35,0,0,1,35-35,35.6,35.6,0,0,1,5.5.43A35.006,35.006,0,0,1,99,71.25Z" style="fill:#ffc900"/><path d="M99,71.25H40A35.006,35.006,0,0,1,69.5,36.68,35.006,35.006,0,0,1,99,71.25Z" style="fill:#ffda2d"/><path d="M64,30.5a1.75,1.75,0,0,1-1.75-1.75v-12a1.75,1.75,0,0,1,3.5,0v12A1.75,1.75,0,0,1,64,30.5Z" style="fill:orange"/><path d="M94.052,42.948a1.75,1.75,0,0,1-1.237-2.987l24.448-24.448a1.75,1.75,0,0,1,2.475,2.475L95.289,42.436A1.744,1.744,0,0,1,94.052,42.948Z" style="fill:orange"/><path d="M33.948,42.948a1.744,1.744,0,0,1-1.237-.513L8.263,17.987a1.75,1.75,0,0,1,2.475-2.475L35.185,39.961a1.75,1.75,0,0,1-1.237,2.987Z" style="fill:orange"/><path d="M88.888,63.877a1.751,1.751,0,0,1-1.643-1.148A24.8,24.8,0,0,0,73.171,48.254,1.75,1.75,0,0,1,74.469,45,28.308,28.308,0,0,1,90.531,61.524a1.751,1.751,0,0,1-1.643,2.353Z" style="fill:#fff"/><path d="M118.5,69.5H9.5a1.75,1.75,0,0,0,0,3.5h109a1.75,1.75,0,0,0,0-3.5Z" style="fill:orange"/><path d="M111.375,79.5H16.625a1.75,1.75,0,0,0,0,3.5h94.75a1.75,1.75,0,0,0,0-3.5Z" style="fill:orange"/><path d="M102.625,89.5H25.375a1.75,1.75,0,0,0,0,3.5h77.25a1.75,1.75,0,0,0,0-3.5Z" style="fill:orange"/><path d="M90,99.5H38a1.75,1.75,0,0,0,0,3.5H90a1.75,1.75,0,0,0,0-3.5Z" style="fill:orange"/><path d="M79.125,109.5H48.875a1.75,1.75,0,0,0,0,3.5h30.25a1.75,1.75,0,0,0,0-3.5Z" style="fill:orange"/></svg>