<svg id="Layer_1" data-name="Layer 1" xmlns="http://www.w3.org/2000/svg" viewBox="0 0 128 128"><title>TRAVEL BAG</title><path d="M73.126,25.875H54.874a1.75,1.75,0,0,1-1.75-1.75v-5.75A10.637,10.637,0,0,1,63.749,7.75h.5A10.637,10.637,0,0,1,74.876,18.375v5.75A1.75,1.75,0,0,1,73.126,25.875Zm-16.5-3.5H71.376v-4a7.133,7.133,0,0,0-7.125-7.125h-.5a7.133,7.133,0,0,0-7.125,7.125Z" style="fill:#983729"/><rect x="16.355" y="31.761" width="95.041" height="9.788" style="fill:#b55607"/><path d="M102.68,52.87V118.5H25.32V52.87a9.925,9.925,0,0,1,6.42-9.29,9.722,9.722,0,0,1,3.51-.64h57.5A9.929,9.929,0,0,1,102.68,52.87Z" style="fill:#5dbd52"/><path d="M25.069,87.137h.247a0,0,0,0,1,0,0V118.5a0,0,0,0,1,0,0h-8.96a0,0,0,0,1,0,0V95.85A8.713,8.713,0,0,1,25.069,87.137Z" style="fill:orange"/><path d="M102.685,87.137h8.96a0,0,0,0,1,0,0V118.5a0,0,0,0,1,0,0H111.4a8.713,8.713,0,0,1-8.713-8.713V87.137A0,0,0,0,1,102.685,87.137Z" transform="translate(214.329 205.637) rotate(180)" style="fill:#ff8f2b"/><path d="M90.63,105.15v3.67H37.37v-3.67A25.9,25.9,0,0,1,59.59,79.52a24.809,24.809,0,0,1,3.68-.27h1.46A25.905,25.905,0,0,1,90.63,105.15Z" style="fill:#ff8f2b"/><path d="M81.79,105.15v3.67H37.37v-3.67A25.9,25.9,0,0,1,59.59,79.52,25.894,25.894,0,0,1,81.79,105.15Z" style="fill:orange"/><path d="M102.68,52.87V118.5H94.5v-53h-47c-13.75,0-15.76-20.2-15.76-20.2V43.58a9.722,9.722,0,0,1,3.51-.64h57.5A9.929,9.929,0,0,1,102.68,52.87Z" style="fill:#4b9641"/><path d="M31.737,19.526H96.263a0,0,0,0,1,0,0V45.3A13.561,13.561,0,0,1,82.7,58.859H45.3A13.561,13.561,0,0,1,31.737,45.3V19.526A0,0,0,0,1,31.737,19.526Z" style="fill:#5dbd52"/><rect x="58.002" y="44.634" width="11.997" height="25.655" rx="5.833" ry="5.833" style="fill:orange"/><circle cx="64" cy="64.287" r="2.891" style="fill:#983729"/><rect x="96.263" y="31.761" width="15.134" height="9.788" style="fill:#983729"/></svg>