<svg id="Layer_1" data-name="Layer 1" xmlns="http://www.w3.org/2000/svg" viewBox="0 0 128 128"><title>UMBRELLA  AND SUN</title><path d="M71.065,112.834a1.751,1.751,0,0,1-1.69-2.208L82.957,60.443a1.75,1.75,0,1,1,3.379.914L72.754,111.541A1.751,1.751,0,0,1,71.065,112.834Z" style="fill:#b55607"/><path d="M41.78,30.03a11.72,11.72,0,0,1-2.02,6.59h-.01a11.741,11.741,0,1,1,2.03-6.59Z" style="fill:#ffc900"/><path d="M41.78,30.03a11.72,11.72,0,0,1-2.02,6.59h-.01a11.746,11.746,0,0,1-14.8-17.19,11.758,11.758,0,0,1,16.83,10.6Z" style="fill:#ffda2d"/><path d="M30.03,7.75A1.75,1.75,0,0,0,28.28,9.5v4.027a1.75,1.75,0,1,0,3.5,0V9.5A1.75,1.75,0,0,0,30.03,7.75Z" style="fill:orange"/><path d="M41.7,20.111a1.744,1.744,0,0,0,1.237-.513l2.848-2.848a1.75,1.75,0,0,0-2.475-2.475l-2.848,2.848A1.75,1.75,0,0,0,41.7,20.111Z" style="fill:orange"/><path d="M50.561,28.281H46.534a1.75,1.75,0,0,0,0,3.5h4.027a1.75,1.75,0,0,0,0-3.5Z" style="fill:orange"/><path d="M42.937,40.463a1.75,1.75,0,1,0-2.475,2.475l2.848,2.848a1.75,1.75,0,0,0,2.475-2.475Z" style="fill:orange"/><path d="M30.03,44.784a1.75,1.75,0,0,0-1.75,1.75v4.027a1.75,1.75,0,1,0,3.5,0V46.534A1.75,1.75,0,0,0,30.03,44.784Z" style="fill:orange"/><path d="M17.124,40.463l-2.848,2.848a1.75,1.75,0,1,0,2.475,2.475L19.6,42.938a1.75,1.75,0,1,0-2.475-2.475Z" style="fill:orange"/><path d="M15.277,30.031a1.75,1.75,0,0,0-1.75-1.75H9.5a1.75,1.75,0,0,0,0,3.5h4.027A1.75,1.75,0,0,0,15.277,30.031Z" style="fill:orange"/><path d="M16.751,14.276a1.75,1.75,0,0,0-2.475,2.475L17.124,19.6A1.75,1.75,0,0,0,19.6,17.124Z" style="fill:orange"/><path d="M117.03,82.21a.49.49,0,0,1-.48.37.3.3,0,0,1-.13-.02.492.492,0,0,1-.35-.61,11.616,11.616,0,0,0-8.18-14.24c-.13-.03-.25-.07-.38-.09a11.593,11.593,0,0,0-13.85,8.26.5.5,0,0,1-.99-.13.688.688,0,0,1,.02-.13A11.609,11.609,0,0,0,75.7,62.52a11.5,11.5,0,0,0-5.42,7.04.51.51,0,0,1-.62.35.5.5,0,0,1-.37-.48.507.507,0,0,1,.02-.13A11.61,11.61,0,1,0,46.9,63.22v.01a.5.5,0,0,1-.62.35.513.513,0,0,1-.37-.49.5.5,0,0,1,.02-.12A36.874,36.874,0,0,1,91.11,37.04c.12.03.24.07.36.1a36.805,36.805,0,0,1,25.56,45.07Z" style="fill:#ff596b"/><path d="M93.66,75.87v.01a.51.51,0,0,1-.49.37.615.615,0,0,1-.13-.01.522.522,0,0,1-.37-.49.585.585,0,0,1,.02-.13,11.624,11.624,0,0,0-6.21-13.5,10.705,10.705,0,0,0-1.96-.74,11.612,11.612,0,0,0-14.24,8.16v.02a.515.515,0,0,1-.62.35.5.5,0,0,1-.35-.61c0-.01,0-.01.01-.02C77.1,40.54,90.3,37.16,90.86,37.03a.512.512,0,0,1,.46.13C91.73,37.55,101.43,47.13,93.66,75.87Z" style="fill:#ebecee"/><path d="M107.5,118.5h-87a17.717,17.717,0,0,1,13.22-16.27,17.489,17.489,0,0,1,4.49-.58,17.627,17.627,0,0,1,13.57,6.32,20.474,20.474,0,0,1,14-11.22,20.128,20.128,0,0,1,4.49-.5,20.44,20.44,0,0,1,18.9,12.66,14.429,14.429,0,0,1,18.33,9.59Z" style="fill:#ff8f2b"/><path d="M98.52,118.5H20.5a17.717,17.717,0,0,1,13.22-16.27,17.637,17.637,0,0,1,9.08,5.74c1.387-2.032,7.35-1.94,8.98,0a20.474,20.474,0,0,1,14-11.22,20.424,20.424,0,0,1,14.4,12.16,14.494,14.494,0,0,1,4.48-.72,14.3,14.3,0,0,1,4.51.72A14.523,14.523,0,0,1,98.52,118.5Z" style="fill:orange"/><path d="M118.5,116.75H9.5a1.75,1.75,0,0,0,0,3.5h109a1.75,1.75,0,0,0,0-3.5Z" style="fill:orange"/><path d="M117.03,82.21a.49.49,0,0,1-.48.37.3.3,0,0,1-.13-.02.492.492,0,0,1-.35-.61,11.616,11.616,0,0,0-8.18-14.24c-.13-.03-.25-.07-.38-.09-1.5-23.85-16.19-30.46-16.19-30.46l.15-.02a36.805,36.805,0,0,1,25.56,45.07Z" style="fill:#e4474f"/><path d="M93.66,75.87v.01a.51.51,0,0,1-.49.37.615.615,0,0,1-.13-.01.522.522,0,0,1-.37-.49.585.585,0,0,1,.02-.13,11.624,11.624,0,0,0-6.21-13.5c8.65-13.93,4.84-24.96,4.84-24.96C91.73,37.55,101.43,47.13,93.66,75.87Z" style="fill:#d1d1d1"/></svg>