<svg id="Layer_1" data-name="Layer 1" xmlns="http://www.w3.org/2000/svg" viewBox="0 0 128 128"><title>WOMAN SWIMSUIT</title><path d="M92.62,83.92v8.15a25.27,25.27,0,0,0-4.48,1.71,33.55,33.55,0,0,0-9.59,6.93.01.01,0,0,0-.01.01,34.475,34.475,0,0,0-7.83,12.93,7.067,7.067,0,0,1-13.42,0,37,37,0,0,0-1.72-4.17.01.01,0,0,1-.01-.01,33.075,33.075,0,0,0-20.18-17.4V83.92C35.38,78.83,39.5,75,47,66.5c4.73-5.36,9.45-13.15,12.29-18.19l-.02.02c-2.58,2.91-10.68,4.24-10.68,4.24S37.87,47.32,37.2,41.43a12.616,12.616,0,0,1,2.71-9.41c1.58-6.41,4.81-15.48,11.25-22.52h3.89s-5.02,6.05-8.68,18.26a12.5,12.5,0,0,1,3.42-.48,12.652,12.652,0,0,1,11.2,6.76,3.309,3.309,0,0,0,2.93,1.8h.19a3.3,3.3,0,0,0,2.9-1.8,12.652,12.652,0,0,1,11.2-6.76,12.5,12.5,0,0,1,3.42.48C77.97,15.55,72.95,9.5,72.95,9.5h3.89c6.44,7.04,9.67,16.11,11.25,22.52a12.616,12.616,0,0,1,2.71,9.41c-.67,5.89-11.39,11.14-11.39,11.14s-8.14-1.34-10.7-4.26C71.55,53.35,76.27,61.14,81,66.5,88.5,75,92.62,78.83,92.62,83.92Z" style="fill:#ffda2d"/><rect x="59.294" y="48.314" width="9.413" height="6.936" style="fill:orange"/><path d="M79.41,52.57s-8.14-1.34-10.7-4.26a15.839,15.839,0,0,0,11.54-.98c8.9-4.71,2.5-14.08,2.5-14.08a24.461,24.461,0,0,0-1.12-5.49C77.97,15.55,72.95,9.5,72.95,9.5h3.89c6.44,7.04,9.67,16.11,11.25,22.52a12.616,12.616,0,0,1,2.71,9.41C90.13,47.32,79.41,52.57,79.41,52.57Z" style="fill:#ffc900"/><path d="M92.62,83.92v8.15a25.27,25.27,0,0,0-4.48,1.71c0-8.06-1.47-17.95-6.81-22.28S68.71,55.25,68.71,55.25V48.31C71.55,53.35,76.27,61.14,81,66.5,88.5,75,92.62,78.83,92.62,83.92Z" style="fill:#ffc900"/><path d="M59.29,48.31l-.02.02c-2.58,2.91-10.68,4.24-10.68,4.24S37.87,47.32,37.2,41.43C37.2,41.43,44.96,50.5,59.29,48.31Z" style="fill:#ffc900"/><path d="M78.54,100.72a34.475,34.475,0,0,0-7.83,12.93,7.067,7.067,0,0,1-13.42,0,37,37,0,0,0-1.72-4.17c2.05,3.63,8.43,9.01,13.14,1.35C73.26,103.41,78.23,100.87,78.54,100.72Z" style="fill:#ffc900"/></svg>