<svg id="Layer_1" data-name="Layer 1" xmlns="http://www.w3.org/2000/svg" viewBox="0 0 128 128"><title>BAREFOOT</title><path d="M67.5,1.75V73.242L25.6,100.6l-13.063,1.462A12.133,12.133,0,0,0,1.75,114.117h0A12.133,12.133,0,0,0,13.883,126.25H108.25a18,18,0,0,0,18-18V1.75Z" style="fill:#ffeace"/><path d="M67.5,1.75V73.242L25.6,100.6l-13.063,1.462A12.133,12.133,0,0,0,1.75,114.117h0A12.133,12.133,0,0,0,13.883,126.25H108.25a18,18,0,0,0,18-18V1.75Z" style="fill:#ffeace"/><path d="M67.5,1.75V73.242L25.6,100.6l-13.063,1.462A12.133,12.133,0,0,0,1.75,114.117h0A12.133,12.133,0,0,0,13.883,126.25H108.25a18,18,0,0,0,18-18V1.75Z" style="fill:#ffeace"/><path d="M121.246,1.75v102.5a18,18,0,0,1-18,18H8.879a12.088,12.088,0,0,1-4.786-.984,12.1,12.1,0,0,0,9.79,4.987H108.25a18,18,0,0,0,18-18V1.75Z" style="fill:#ffd892"/><path d="M94.167,103.41a1.75,1.75,0,0,1-1.237-2.987l8.9-8.9a8.2,8.2,0,0,0,2.416-5.834V61.993a1.75,1.75,0,0,1,3.5,0V85.685a11.67,11.67,0,0,1-3.441,8.309l-8.9,8.9A1.744,1.744,0,0,1,94.167,103.41Z" style="fill:#ffd892"/></svg>