<svg id="Layer_1" data-name="Layer 1" xmlns="http://www.w3.org/2000/svg" viewBox="0 0 128 128"><title>CHECKLIST</title><path d="M85.2,11.476l3.89,7.031v.811a6.22,6.22,0,0,1-6.22,6.22H45.059a6.22,6.22,0,0,1-6.22-6.22v-.81l3.89-7.031H23.445a3.311,3.311,0,0,0-3.311,3.311V122.939a3.311,3.311,0,0,0,3.311,3.311h81.11a3.311,3.311,0,0,0,3.311-3.311V14.785a3.311,3.311,0,0,0-3.311-3.311Z" style="fill:#73c6b2"/><path d="M26.83,15.478H40.515l2.214-4H23.445a3.311,3.311,0,0,0-3.311,3.311v.693Z" style="fill:#15958c"/><path d="M104.555,11.475H85.2l2.214,4h13.139a3.311,3.311,0,0,1,3.311,3.311V126.25h.693a3.311,3.311,0,0,0,3.311-3.311V14.785A3.311,3.311,0,0,0,104.555,11.475Z" style="fill:#15958c"/><path d="M77.884,11.476,73.994,1.75H53.934l-3.89,9.726H42.729l-3.89,7.031v.811a6.22,6.22,0,0,0,6.22,6.22H82.869a6.22,6.22,0,0,0,6.22-6.22v-.811L85.2,11.476Z" style="fill:#3ec2f0"/><path d="M85.2,11.476H77.884L73.994,1.75H53.934l-.8,2H70.991l3.89,9.726H82.2l3.89,7.031v.811a6.194,6.194,0,0,1-1.417,3.952,6.221,6.221,0,0,0,4.419-5.953v-.81Z" style="fill:#0096cf"/><path d="M89.089,19.317a6.22,6.22,0,0,1-6.22,6.22H45.059a6.22,6.22,0,0,1-6.22-6.22H27.905v99.152h72.117V19.317Z" style="fill:#f0f4f7"/><path d="M28.33,23.32H40.3a6.193,6.193,0,0,1-1.463-4H27.905v4Z" style="fill:#dfe1ea"/><path d="M89.089,19.317a6.193,6.193,0,0,1-1.463,4H90.02a6,6,0,0,1,6,6v89.149h4V19.317Z" style="fill:#dfe1ea"/><path d="M67.449,10.308H60.641a1.75,1.75,0,0,1,0-3.5h6.808a1.75,1.75,0,0,1,0,3.5Z" style="fill:#0096cf"/><path d="M100.023,63.167H88.234a25.091,25.091,0,0,0-48.468,0H27.905V74.558H39.391a25.091,25.091,0,0,0,49.218,0h11.414Z" style="fill:#f16973"/><polygon points="60.044 81.543 47.657 69.156 52.495 64.319 60.044 71.866 75.444 56.467 80.282 61.305 60.044 81.543" style="fill:#c64255"/><rect x="96.02" y="63.167" width="4.003" height="11.391" style="fill:#c64255"/><path d="M64,44.578c-.674,0-1.341.034-2,.087a25.082,25.082,0,0,1,0,50c.661.052,1.327.087,2,.087a25.089,25.089,0,1,0,0-50.178Z" style="fill:#c64255"/></svg>