<svg id="Layer_1" data-name="Layer 1" xmlns="http://www.w3.org/2000/svg" viewBox="0 0 128 128"><title>CLIPBOARD</title><path d="M77.884,11.475H85.2l3.89,7.031v.811a6.22,6.22,0,0,1-6.22,6.22H45.059a6.22,6.22,0,0,1-6.22-6.22v-.81l3.89-7.031H23.445a3.311,3.311,0,0,0-3.311,3.311V122.939a3.311,3.311,0,0,0,3.311,3.311h81.11a3.311,3.311,0,0,0,3.311-3.311V14.785a3.311,3.311,0,0,0-3.311-3.311Z" style="fill:#73c6b2"/><path d="M25.5,14.477H41.069l1.661-3H23.445a3.3,3.3,0,0,0-3.279,3Z" style="fill:#15958c"/><path d="M104.555,11.475H85.2l1.661,3h13.692a3.31,3.31,0,0,1,3.311,3.31V125.942c0,.106-.021.205-.031.308h.724a3.311,3.311,0,0,0,3.311-3.311V14.785A3.31,3.31,0,0,0,104.555,11.475Z" style="fill:#15958c"/><path d="M89.089,19.317a6.22,6.22,0,0,1-6.22,6.22H45.059a6.22,6.22,0,0,1-6.22-6.22H27.905v99.152h72.117V19.317Z" style="fill:#f0f4f7"/><path d="M28.164,22.32H39.612a6.189,6.189,0,0,1-.773-3H27.905v3Z" style="fill:#dfe1ea"/><path d="M89.089,19.317a6.189,6.189,0,0,1-.773,3h2.7a5,5,0,0,1,5,5v91.15h4V19.317Z" style="fill:#dfe1ea"/><path d="M77.884,11.476,73.994,1.75H53.934l-3.89,9.726H42.729l-3.89,7.031v.811a6.22,6.22,0,0,0,6.22,6.22H82.869a6.22,6.22,0,0,0,6.22-6.22v-.811L85.2,11.476Z" style="fill:#3ec2f0"/><path d="M85.2,11.476H77.884L73.994,1.75H53.934l-1.2,3H70.991l3.89,9.726H82.2l3.89,7.031v.811a6.185,6.185,0,0,1-.589,2.629,6.215,6.215,0,0,0,3.591-5.631v-.81Z" style="fill:#0096cf"/><path d="M67.449,10.308H60.641a1.75,1.75,0,0,1,0-3.5h6.808a1.75,1.75,0,0,1,0,3.5Z" style="fill:#0096cf"/><path d="M44.157,45.9a1.744,1.744,0,0,1-1.237-.513L38.5,40.966a1.75,1.75,0,1,1,2.475-2.475l3.185,3.185,7.083-7.083a1.75,1.75,0,0,1,2.475,2.475l-8.32,8.32A1.744,1.744,0,0,1,44.157,45.9Z" style="fill:#dfe1ea"/><path d="M88.193,41.741H58.95a1.75,1.75,0,0,1,0-3.5H88.193a1.75,1.75,0,1,1,0,3.5Z" style="fill:#dfe1ea"/><path d="M44.157,60.353h0a1.75,1.75,0,0,1-1.237-.513L38.5,55.417a1.75,1.75,0,0,1,2.475-2.475l3.185,3.185,7.083-7.083a1.75,1.75,0,0,1,2.475,2.475l-8.32,8.32A1.75,1.75,0,0,1,44.157,60.353Z" style="fill:#dfe1ea"/><path d="M88.193,56.192H58.95a1.75,1.75,0,0,1,0-3.5H88.193a1.75,1.75,0,1,1,0,3.5Z" style="fill:#dfe1ea"/><path d="M44.157,74.8a1.744,1.744,0,0,1-1.237-.513L38.5,69.868a1.75,1.75,0,1,1,2.475-2.475l3.185,3.185L51.24,63.5a1.75,1.75,0,1,1,2.475,2.475l-8.32,8.32A1.744,1.744,0,0,1,44.157,74.8Z" style="fill:#dfe1ea"/><path d="M88.193,70.644H58.95a1.75,1.75,0,0,1,0-3.5H88.193a1.75,1.75,0,1,1,0,3.5Z" style="fill:#dfe1ea"/><path d="M44.157,89.254a1.744,1.744,0,0,1-1.237-.513L38.5,84.319a1.75,1.75,0,0,1,2.475-2.475l3.185,3.185,7.083-7.083a1.75,1.75,0,1,1,2.475,2.475l-8.32,8.32A1.744,1.744,0,0,1,44.157,89.254Z" style="fill:#dfe1ea"/><path d="M88.193,85.094H58.95a1.75,1.75,0,1,1,0-3.5H88.193a1.75,1.75,0,0,1,0,3.5Z" style="fill:#dfe1ea"/><path d="M44.157,103.706a1.744,1.744,0,0,1-1.237-.513L38.5,98.771A1.75,1.75,0,1,1,40.972,96.3l3.185,3.185L51.24,92.4a1.75,1.75,0,1,1,2.475,2.475l-8.32,8.32A1.744,1.744,0,0,1,44.157,103.706Z" style="fill:#dfe1ea"/><path d="M88.193,99.545H58.95a1.75,1.75,0,1,1,0-3.5H88.193a1.75,1.75,0,0,1,0,3.5Z" style="fill:#dfe1ea"/></svg>