<svg id="Layer_1" data-name="Layer 1" xmlns="http://www.w3.org/2000/svg" viewBox="0 0 128 128"><title>ENERGY BAR</title><polygon points="32.024 126.25 31.263 119.434 24.449 118.676 23.694 111.866 16.882 111.109 16.126 104.298 9.315 103.542 8.559 96.731 1.75 95.976 9.981 87.746 40.254 118.019 32.024 126.25" style="fill:#3ec2f0"/><rect x="18.783" y="46.076" width="90.443" height="35.856" transform="translate(-26.511 64.004) rotate(-45)" style="fill:#ffeace"/><polygon points="9.981 87.746 19.351 83.304 44.705 108.658 40.254 118.019 9.981 87.746" style="fill:#f16973"/><polygon points="126.25 32.024 119.434 31.263 118.676 24.449 111.866 23.694 111.109 16.882 104.298 16.126 103.542 9.315 96.731 8.559 95.976 1.75 87.746 9.981 118.019 40.254 126.25 32.024" style="fill:#3ec2f0"/><polygon points="87.746 9.981 83.304 19.351 108.658 44.705 118.019 40.254 87.746 9.981" style="fill:#f16973"/><polygon points="36.65 114.415 31.3 119.766 32.024 126.25 40.254 118.019 36.65 114.415" style="fill:#0096cf"/><polygon points="105.054 41.101 41.101 105.054 19.351 83.304 19.351 83.304 44.705 108.658 108.658 44.705 105.054 41.101" style="fill:#ffd892"/><polygon points="41.101 105.054 36.65 114.415 40.254 118.019 44.705 108.658 41.101 105.054" style="fill:#c64255"/><polygon points="119.766 31.3 114.415 36.65 118.019 40.254 126.25 32.024 119.766 31.3" style="fill:#0096cf"/><polygon points="114.415 36.65 105.054 41.101 108.658 44.705 118.019 40.254 114.415 36.65" style="fill:#c64255"/><polygon points="62.927 74.985 49.805 82.452 51.777 62.861 31.965 82.673 45.335 96.044 64.486 76.893 62.927 74.985" style="fill:#ffd892"/><polygon points="63.514 51.123 65.027 52.942 78.183 45.455 76.212 65.167 96.044 45.335 82.673 31.965 63.514 51.123" style="fill:#ffd892"/><polygon points="69.043 72.32 64.466 66.72 57.441 70.718 58.954 55.683 63.531 61.183 70.556 57.184 69.043 72.32" style="fill:#f16973"/></svg>