<svg id="Layer_1" data-name="Layer 1" xmlns="http://www.w3.org/2000/svg" viewBox="0 0 128 128"><title>FINISH LINE</title><path d="M113.493,16.575a1.75,1.75,0,0,0-1.477-3.174L96.23,20.75H31.774L15.987,13.4a1.75,1.75,0,0,0-1.477,3.174l13.116,6.106V55.893l-12.567,5.85a1.75,1.75,0,0,0,1.477,3.174l15.085-7.021c.043-.02.08-.049.121-.072h64.52c.041.023.077.052.121.072l15.085,7.021a1.75,1.75,0,0,0,1.477-3.174l-12.567-5.85V22.681Z" style="fill:#f0f4f7"/><rect x="9.043" y="8.917" width="8.917" height="103.333" style="fill:#3ec2f0"/><rect x="110.043" y="8.917" width="8.917" height="103.333" style="fill:#3ec2f0"/><path d="M110.043,8.917v2h0a5.91,5.91,0,0,1,5.91,5.91V112.25h3V8.917Z" style="fill:#0096cf"/><rect x="1.752" y="112.25" width="23.5" height="6.833" style="fill:#73c6b2"/><rect x="102.752" y="112.25" width="23.5" height="6.833" style="fill:#73c6b2"/><path d="M102.752,112.25v3h16.668a3.83,3.83,0,0,1,3.83,3.83h3V112.25Z" style="fill:#15958c"/><path d="M9.04,8.917v2h0a5.91,5.91,0,0,1,5.91,5.91V112.25h3V8.917Z" style="fill:#0096cf"/><path d="M1.748,112.25v3H18.416a3.83,3.83,0,0,1,3.83,3.83h3V112.25Z" style="fill:#15958c"/><path d="M36.75,36.694v1.649h5.559v2.94H36.75v4.147h-3.3V33.754h9.4v2.94Z" style="fill:#f16973"/><path d="M45.266,33.754h3.3V45.432h-3.3Z" style="fill:#f16973"/><path d="M51.336,33.754h3.3l4.556,6.255V33.754h3.3V45.432h-3.3l-4.556-6.255v6.255h-3.3Z" style="fill:#f16973"/><path d="M65.275,33.754h3.3V45.432h-3.3Z" style="fill:#f16973"/><path d="M70.46,43.664,72.3,41.471A6.161,6.161,0,0,0,76.154,42.9c.9,0,1.377-.306,1.377-.815,0-.561-.407-.646-2.022-1.02-2.533-.578-4.487-1.241-4.487-3.672,0-2.329,1.836-3.842,4.606-3.842a7.489,7.489,0,0,1,4.9,1.581l-1.649,2.328a5.845,5.845,0,0,0-3.331-1.173c-.8,0-1.19.323-1.19.766,0,.595.408.781,2.074,1.139,2.72.578,4.419,1.309,4.419,3.535,0,2.465-1.887,3.91-4.81,3.91A8.346,8.346,0,0,1,70.46,43.664Z" style="fill:#f16973"/><path d="M93.869,33.754V45.432h-3.3V40.944H86.3v4.487h-3.3V33.754h3.3V38h4.267V33.754Z" style="fill:#f16973"/></svg>