<svg id="Layer_1" data-name="Layer 1" xmlns="http://www.w3.org/2000/svg" viewBox="0 0 128 128"><title>HURDLE</title><rect x="1.75" y="13.874" width="124.5" height="21" style="fill:#f0f4f7"/><path d="M1.75,13.874v4h114.5a6,6,0,0,1,6,6v11h4v-21Z" style="fill:#dfe1ea"/><rect x="14.75" y="34.874" width="7.75" height="71.502" style="fill:#3ec2f0"/><rect x="105.5" y="34.874" width="7.75" height="71.502" transform="translate(218.75 141.25) rotate(180)" style="fill:#3ec2f0"/><rect x="105.5" y="34.874" width="7.75" height="5.546" transform="translate(218.75 75.294) rotate(180)" style="fill:#0096cf"/><rect x="14.75" y="34.874" width="7.75" height="5.546" transform="translate(37.25 75.294) rotate(180)" style="fill:#0096cf"/><rect x="60.125" y="48.001" width="7.75" height="124.5" transform="translate(174.251 46.251) rotate(90)" style="fill:#73c6b2"/><rect x="27.5" y="13.874" width="21" height="21" style="fill:#f16973"/><rect x="79.5" y="13.874" width="21" height="21" transform="translate(180 48.748) rotate(180)" style="fill:#f16973"/><path d="M79.5,13.874v4h11a6,6,0,0,1,6,6v11h4v-21Z" style="fill:#c64255"/><path d="M27.5,13.874v4h11a6,6,0,0,1,6,6v11h4v-21Z" style="fill:#c64255"/><path d="M116.374,26.124H111.5a1.75,1.75,0,0,1,0-3.5h4.875a1.75,1.75,0,0,1,0,3.5Z" style="fill:#f16973"/><path d="M16.5,26.124H11.626a1.75,1.75,0,0,1,0-3.5H16.5a1.75,1.75,0,0,1,0,3.5Z" style="fill:#f16973"/></svg>