<svg id="Layer_1" data-name="Layer 1" xmlns="http://www.w3.org/2000/svg" viewBox="0 0 128 128"><title>MOBILE</title><rect x="27.875" y="1.75" width="72.25" height="124.5" rx="5" ry="5" style="fill:#f0f4f7"/><path d="M95.125,1.75H32.875a5,5,0,0,0-4.9,4H90.121a5,5,0,0,1,5,5v114.5a5.022,5.022,0,0,1-.1,1h.1a5,5,0,0,0,5-5V6.75A5,5,0,0,0,95.125,1.75Z" style="fill:#dfe1ea"/><path d="M27.875,111.25h72.25a0,0,0,0,1,0,0v10a5,5,0,0,1-5,5H32.875a5,5,0,0,1-5-5v-10A0,0,0,0,1,27.875,111.25Z" style="fill:#73c6b2"/><path d="M95.121,125.253a5.022,5.022,0,0,1-.1,1h.1a5,5,0,0,0,5-5v-10h-5Z" style="fill:#15958c"/><polygon points="73 11.75 55 11.75 45 1.75 83 1.75 73 11.75" style="fill:#73c6b2"/><path d="M70.75,120.5H58.625a1.75,1.75,0,0,1,0-3.5H70.75a1.75,1.75,0,0,1,0,3.5Z" style="fill:#15958c"/><rect x="36.167" y="23" width="55.667" height="16.008" style="fill:#3ec2f0"/><polygon points="36.167 23 36.167 26.002 87.83 26.002 87.83 39.008 91.833 39.008 91.833 23 36.167 23" style="fill:#0096cf"/><rect x="36.167" y="49.667" width="14.833" height="16.008" style="fill:#f16973"/><rect x="56.583" y="49.667" width="14.833" height="16.008" style="fill:#3ec2f0"/><rect x="77" y="49.667" width="14.833" height="16.008" style="fill:#f16973"/><polygon points="77 49.667 77 52.669 88.831 52.669 88.831 65.674 91.833 65.674 91.833 49.667 77 49.667" style="fill:#c64255"/><polygon points="56.583 49.667 56.583 52.669 68.414 52.669 68.414 65.674 71.417 65.674 71.417 49.667 56.583 49.667" style="fill:#0096cf"/><polygon points="36.167 49.667 36.167 52.669 47.998 52.669 47.998 65.674 51 65.674 51 49.667 36.167 49.667" style="fill:#c64255"/><rect x="36.167" y="76.333" width="14.833" height="16.008" style="fill:#3ec2f0"/><rect x="56.583" y="76.333" width="14.833" height="16.008" style="fill:#f16973"/><rect x="77" y="76.333" width="14.833" height="16.008" style="fill:#3ec2f0"/><polygon points="78.997 5.753 83 1.75 45 1.75 49.003 5.753 78.997 5.753" style="fill:#15958c"/><polygon points="77 76.257 77 79.26 88.831 79.26 88.831 92.265 91.833 92.265 91.833 76.257 77 76.257" style="fill:#0096cf"/><polygon points="56.583 76.257 56.583 79.26 68.414 79.26 68.414 92.265 71.417 92.265 71.417 76.257 56.583 76.257" style="fill:#c64255"/><polygon points="36.167 76.257 36.167 79.26 47.998 79.26 47.998 92.265 51 92.265 51 76.257 36.167 76.257" style="fill:#0096cf"/></svg>