<svg id="Layer_1" data-name="Layer 1" xmlns="http://www.w3.org/2000/svg" viewBox="0 0 128 128"><title>REST AREA</title><rect x="1.75" y="56.693" width="124.5" height="11.34" style="fill:#73c6b2"/><path d="M1.75,56.693v3h117.2a4.3,4.3,0,0,1,4.3,4.3v4.038h3V56.693Z" style="fill:#15958c"/><rect x="11.75" y="68.033" width="11.917" height="58.217" style="fill:#3ec2f0"/><rect x="104.333" y="68.033" width="11.917" height="58.217" transform="translate(220.583 194.283) rotate(180)" style="fill:#3ec2f0"/><path d="M104.333,68.033v3h4.615a4.3,4.3,0,0,1,4.3,4.3V126.25h3V68.033Z" style="fill:#0096cf"/><path d="M11.75,68.033v3h4.615a4.3,4.3,0,0,1,4.3,4.3V126.25h3V68.033Z" style="fill:#0096cf"/><path d="M107.69,40.42a2.585,2.585,0,0,1,2.45,1.75,2.375,2.375,0,0,1,.15.85v2.94a2.375,2.375,0,0,1-.15.85,2.585,2.585,0,0,1-2.45,1.75,2.576,2.576,0,0,1,2.45,1.75,2.414,2.414,0,0,1,.15.85v2.93a2.6,2.6,0,0,1-2.6,2.6H88.4a2.6,2.6,0,0,1-2.6-2.6V51.16a2.412,2.412,0,0,1,.15-.85,2.576,2.576,0,0,1,2.45-1.75,2.585,2.585,0,0,1-2.45-1.75,2.374,2.374,0,0,1-.15-.85V43.02a2.374,2.374,0,0,1,.15-.85,2.585,2.585,0,0,1,2.45-1.75,2.576,2.576,0,0,1-2.45-1.75,2.413,2.413,0,0,1-.15-.85V23.69a16.371,16.371,0,0,1,6.68-13.21l.36-2.46h10.41l.36,2.46a16.407,16.407,0,0,1,6.68,13.21V37.82a2.414,2.414,0,0,1-.15.85A2.576,2.576,0,0,1,107.69,40.42Z" style="fill:#f0f4f7"/><rect x="90.637" y="1.715" width="14.813" height="6.301" style="fill:#73c6b2"/><path d="M90.637,1.715v2h8.512a4.3,4.3,0,0,1,4.3,4.3h2v-6.3Z" style="fill:#15958c"/><path d="M91.83,38.67H85.95a2.576,2.576,0,0,0,2.45,1.75,2.585,2.585,0,0,0-2.45,1.75h5.88a1.75,1.75,0,0,0,0-3.5Z" style="fill:#dfe1ea"/><path d="M107.69,40.42a2.576,2.576,0,0,0,2.45-1.75h-5.88a1.75,1.75,0,0,0,0,3.5h5.88A2.585,2.585,0,0,0,107.69,40.42Z" style="fill:#dfe1ea"/><path d="M91.83,46.81H85.95a2.585,2.585,0,0,0,2.45,1.75,2.576,2.576,0,0,0-2.45,1.75h5.88a1.75,1.75,0,0,0,0-3.5Z" style="fill:#dfe1ea"/><path d="M110.14,46.81h-5.88a1.75,1.75,0,0,0,0,3.5h5.88a2.576,2.576,0,0,0-2.45-1.75A2.585,2.585,0,0,0,110.14,46.81Z" style="fill:#dfe1ea"/><path d="M110.14,38.67a2.414,2.414,0,0,0,.15-.85V23.69a16.407,16.407,0,0,0-6.68-13.21l-.36-2.46H92.84l-.223,1.522h7.853l.137.938a16.407,16.407,0,0,1,6.68,13.21V37.82a2.414,2.414,0,0,1-.15.85,2.576,2.576,0,0,1-2.45,1.75,2.585,2.585,0,0,1,2.45,1.75,2.375,2.375,0,0,1,.15.85v2.94a2.375,2.375,0,0,1-.15.85,2.585,2.585,0,0,1-2.45,1.75,2.576,2.576,0,0,1,2.45,1.75,2.414,2.414,0,0,1,.15.85v2.93a2.6,2.6,0,0,1-2.6,2.6h3a2.6,2.6,0,0,0,2.6-2.6V51.16a2.414,2.414,0,0,0-.15-.85,2.576,2.576,0,0,0-2.45-1.75,2.585,2.585,0,0,0,2.45-1.75,2.375,2.375,0,0,0,.15-.85V43.02a2.375,2.375,0,0,0-.15-.85,2.585,2.585,0,0,0-2.45-1.75A2.576,2.576,0,0,0,110.14,38.67Z" style="fill:#dfe1ea"/><path d="M73.647,40.42a2.585,2.585,0,0,1,2.45,1.75,2.375,2.375,0,0,1,.15.85v2.94a2.375,2.375,0,0,1-.15.85,2.585,2.585,0,0,1-2.45,1.75,2.576,2.576,0,0,1,2.45,1.75,2.414,2.414,0,0,1,.15.85v2.93a2.6,2.6,0,0,1-2.6,2.6H54.357a2.6,2.6,0,0,1-2.6-2.6V51.16a2.412,2.412,0,0,1,.15-.85,2.576,2.576,0,0,1,2.45-1.75,2.585,2.585,0,0,1-2.45-1.75,2.374,2.374,0,0,1-.15-.85V43.02a2.374,2.374,0,0,1,.15-.85,2.585,2.585,0,0,1,2.45-1.75,2.576,2.576,0,0,1-2.45-1.75,2.413,2.413,0,0,1-.15-.85V23.69a16.371,16.371,0,0,1,6.68-13.21l.36-2.46h10.41l.36,2.46a16.407,16.407,0,0,1,6.68,13.21V37.82a2.414,2.414,0,0,1-.15.85A2.576,2.576,0,0,1,73.647,40.42Z" style="fill:#f0f4f7"/><rect x="56.594" y="1.715" width="14.813" height="6.301" style="fill:#73c6b2"/><path d="M56.594,1.715v2h8.512a4.3,4.3,0,0,1,4.3,4.3h2v-6.3Z" style="fill:#15958c"/><path d="M57.787,38.67h-5.88a2.576,2.576,0,0,0,2.45,1.75,2.585,2.585,0,0,0-2.45,1.75h5.88a1.75,1.75,0,0,0,0-3.5Z" style="fill:#dfe1ea"/><path d="M73.647,40.42a2.576,2.576,0,0,0,2.45-1.75h-5.88a1.75,1.75,0,0,0,0,3.5H76.1A2.585,2.585,0,0,0,73.647,40.42Z" style="fill:#dfe1ea"/><path d="M57.787,46.81h-5.88a2.585,2.585,0,0,0,2.45,1.75,2.576,2.576,0,0,0-2.45,1.75h5.88a1.75,1.75,0,0,0,0-3.5Z" style="fill:#dfe1ea"/><path d="M76.1,46.81h-5.88a1.75,1.75,0,0,0,0,3.5H76.1a2.576,2.576,0,0,0-2.45-1.75A2.585,2.585,0,0,0,76.1,46.81Z" style="fill:#dfe1ea"/><path d="M76.1,38.67a2.414,2.414,0,0,0,.15-.85V23.69a16.407,16.407,0,0,0-6.68-13.21l-.36-2.46H58.8l-.223,1.522h7.853l.137.938a16.407,16.407,0,0,1,6.68,13.21V37.82a2.414,2.414,0,0,1-.15.85,2.576,2.576,0,0,1-2.45,1.75,2.585,2.585,0,0,1,2.45,1.75,2.375,2.375,0,0,1,.15.85v2.94a2.375,2.375,0,0,1-.15.85,2.585,2.585,0,0,1-2.45,1.75,2.576,2.576,0,0,1,2.45,1.75,2.414,2.414,0,0,1,.15.85v2.93a2.6,2.6,0,0,1-2.6,2.6h3a2.6,2.6,0,0,0,2.6-2.6V51.16a2.414,2.414,0,0,0-.15-.85,2.576,2.576,0,0,0-2.45-1.75,2.585,2.585,0,0,0,2.45-1.75,2.375,2.375,0,0,0,.15-.85V43.02a2.375,2.375,0,0,0-.15-.85,2.585,2.585,0,0,0-2.45-1.75A2.576,2.576,0,0,0,76.1,38.67Z" style="fill:#dfe1ea"/><path d="M39.6,40.42a2.585,2.585,0,0,1,2.45,1.75,2.375,2.375,0,0,1,.15.85v2.94a2.375,2.375,0,0,1-.15.85,2.585,2.585,0,0,1-2.45,1.75,2.576,2.576,0,0,1,2.45,1.75,2.414,2.414,0,0,1,.15.85v2.93a2.6,2.6,0,0,1-2.6,2.6H20.311a2.6,2.6,0,0,1-2.6-2.6V51.16a2.412,2.412,0,0,1,.15-.85,2.576,2.576,0,0,1,2.45-1.75,2.585,2.585,0,0,1-2.45-1.75,2.374,2.374,0,0,1-.15-.85V43.02a2.374,2.374,0,0,1,.15-.85,2.585,2.585,0,0,1,2.45-1.75,2.576,2.576,0,0,1-2.45-1.75,2.413,2.413,0,0,1-.15-.85V23.69a16.371,16.371,0,0,1,6.68-13.21l.36-2.46h10.41l.36,2.46A16.407,16.407,0,0,1,42.2,23.69V37.82a2.414,2.414,0,0,1-.15.85A2.576,2.576,0,0,1,39.6,40.42Z" style="fill:#f0f4f7"/><rect x="22.548" y="1.715" width="14.813" height="6.301" style="fill:#73c6b2"/><path d="M22.548,1.715v2H31.06a4.3,4.3,0,0,1,4.3,4.3h2v-6.3Z" style="fill:#15958c"/><path d="M23.741,38.67h-5.88a2.576,2.576,0,0,0,2.45,1.75,2.585,2.585,0,0,0-2.45,1.75h5.88a1.75,1.75,0,0,0,0-3.5Z" style="fill:#dfe1ea"/><path d="M39.6,40.42a2.576,2.576,0,0,0,2.45-1.75h-5.88a1.75,1.75,0,0,0,0,3.5h5.88A2.585,2.585,0,0,0,39.6,40.42Z" style="fill:#dfe1ea"/><path d="M23.741,46.81h-5.88a2.585,2.585,0,0,0,2.45,1.75,2.576,2.576,0,0,0-2.45,1.75h5.88a1.75,1.75,0,1,0,0-3.5Z" style="fill:#dfe1ea"/><path d="M42.051,46.81h-5.88a1.75,1.75,0,0,0,0,3.5h5.88a2.576,2.576,0,0,0-2.45-1.75A2.585,2.585,0,0,0,42.051,46.81Z" style="fill:#dfe1ea"/><path d="M42.051,38.67a2.414,2.414,0,0,0,.15-.85V23.69a16.407,16.407,0,0,0-6.68-13.21l-.36-2.46H24.751l-.223,1.522h7.853l.137.938A16.407,16.407,0,0,1,39.2,23.69V37.82a2.414,2.414,0,0,1-.15.85,2.576,2.576,0,0,1-2.45,1.75,2.585,2.585,0,0,1,2.45,1.75,2.375,2.375,0,0,1,.15.85v2.94a2.375,2.375,0,0,1-.15.85,2.585,2.585,0,0,1-2.45,1.75,2.576,2.576,0,0,1,2.45,1.75,2.414,2.414,0,0,1,.15.85v2.93a2.6,2.6,0,0,1-2.6,2.6h3a2.6,2.6,0,0,0,2.6-2.6V51.16a2.414,2.414,0,0,0-.15-.85,2.576,2.576,0,0,0-2.45-1.75,2.585,2.585,0,0,0,2.45-1.75,2.375,2.375,0,0,0,.15-.85V43.02a2.375,2.375,0,0,0-.15-.85,2.585,2.585,0,0,0-2.45-1.75A2.576,2.576,0,0,0,42.051,38.67Z" style="fill:#dfe1ea"/></svg>