<svg id="Layer_1" data-name="Layer 1" xmlns="http://www.w3.org/2000/svg" viewBox="0 0 128 128"><title>RUNNER NUMBER</title><rect x="1.75" y="14.833" width="124.5" height="98.333" style="fill:#f0f4f7"/><rect x="120.245" y="14.833" width="6.005" height="98.333" style="fill:#dfe1ea"/><rect x="1.75" y="14.833" width="124.5" height="11.333" style="fill:#73c6b2"/><path d="M1.75,14.833v4h113.5a5,5,0,0,1,5,5v2.33h6V14.833Z" style="fill:#15958c"/><rect x="1.75" y="101.833" width="124.5" height="11.333" style="fill:#73c6b2"/><polygon points="49.247 36.25 49.247 60 23.247 60 23.247 36.25 15.247 36.25 15.247 68 49.247 68 49.247 91.75 57.247 91.75 57.247 64 57.247 60 57.247 36.25 49.247 36.25" style="fill:#f16973"/><polygon points="111.752 91.75 69.752 91.75 69.752 83.75 103.752 83.75 103.752 68 69.752 68 69.752 36.25 111.752 36.25 111.752 44.25 77.752 44.25 77.752 60 111.752 60 111.752 91.75" style="fill:#f16973"/><rect x="120.245" y="101.833" width="6.005" height="11.333" style="fill:#15958c"/></svg>