<svg id="Layer_1" data-name="Layer 1" xmlns="http://www.w3.org/2000/svg" viewBox="0 0 128 128"><title>VISOR</title><polygon points="126.25 58.234 33 58.234 43 36.567 67.333 36.567 79.333 46.567 126.25 46.567 126.25 58.234" style="fill:#73c6b2"/><polygon points="79.333 46.567 67.333 36.567 43 36.567 41.614 39.569 64.33 39.569 76.331 49.569 123.248 49.569 123.248 58.234 126.25 58.234 126.25 46.567 79.333 46.567" style="fill:#15958c"/><path d="M33,58.234,1.75,82.9l18.889,6.093A50.442,50.442,0,0,0,77.38,70.012l8.287-11.779Z" style="fill:#f0f4f7"/><path d="M80.663,58.234,72.376,70.012A50.441,50.441,0,0,1,33.693,91.365,50.443,50.443,0,0,0,77.38,70.012l8.287-11.779Z" style="fill:#dfe1ea"/><path d="M71.382,58.234l-3.8,5.284A38.074,38.074,0,0,1,24.556,77.911l-11.7-3.775-3.307,2.61,13.936,4.495a42.034,42.034,0,0,0,12.927,2.045,41.528,41.528,0,0,0,34.026-17.74l5.258-7.312Z" style="fill:#3ec2f0"/></svg>