<svg id="Layer_1" data-name="Layer 1" xmlns="http://www.w3.org/2000/svg" viewBox="0 0 128 128"><title>WATER BOTTLE</title><path d="M92.063,27.25H35.813l2.785-10.1a6,6,0,0,1,5.784-4.4H83.494a6,6,0,0,1,5.784,4.4Z" style="fill:#73c6b2"/><path d="M39.377,15.752H78.49a6,6,0,0,1,5.784,4.4L86.23,27.25h5.832l-2.785-10.1a6,6,0,0,0-5.784-4.4H44.381A5.985,5.985,0,0,0,39.2,15.767C39.258,15.765,39.316,15.752,39.377,15.752Z" style="fill:#15958c"/><polygon points="71.604 12.75 56.271 12.75 56.604 7.25 53.271 5.25 53.271 1.75 74.604 1.75 74.604 5.25 71.271 7.25 71.604 12.75" style="fill:#3ec2f0"/><polygon points="74.604 1.75 71.602 1.75 71.602 5.25 68.268 7.25 68.602 12.75 71.604 12.75 71.271 7.25 74.604 5.25 74.604 1.75" style="fill:#0096cf"/><path d="M92.188,27.25H35.813l1.3,3.25a18.175,18.175,0,0,1,0,13.5h0a18.175,18.175,0,0,0-1.3,6.75v55.264a43.448,43.448,0,0,0,5,20.235H87.188a43.448,43.448,0,0,0,5-20.235V50.75a18.175,18.175,0,0,0-1.3-6.75h0a18.175,18.175,0,0,1,0-13.5Z" style="fill:#f0f4f7"/><path d="M90.888,30.5l1.3-3.25H35.813l1.3,3.25c.1.248.172.5.26.753h48.81l-1.3,3.25a18.175,18.175,0,0,0,0,13.5,18.175,18.175,0,0,1,1.3,6.75v55.264a43.432,43.432,0,0,1-3.165,16.232h4.17a43.448,43.448,0,0,0,5-20.235V50.75a18.176,18.176,0,0,0-1.3-6.75A18.175,18.175,0,0,1,90.888,30.5Z" style="fill:#dfe1ea"/><polygon points="92.188 86.5 35.813 66.5 35.813 56 92.188 76 92.188 86.5" style="fill:#73c6b2"/><polygon points="86.183 84.37 92.188 86.5 92.188 76 86.183 73.87 86.183 84.37" style="fill:#15958c"/><polygon points="92.188 107.5 35.813 87.5 35.813 77 92.188 97 92.188 107.5" style="fill:#73c6b2"/><path d="M86.183,105.37l5.96,2.114c.017-.49.045-.979.045-1.47V97l-6-2.13Z" style="fill:#15958c"/></svg>