<svg id="Layer_1" data-name="Layer 1" xmlns="http://www.w3.org/2000/svg" viewBox="0 0 128 128"><title>WEIGHT SCALE</title><rect x="1.75" y="1.75" width="124.5" height="124.5" rx="4" ry="4" style="fill:#73c6b2"/><path d="M122.25,1.75H5.75a4,4,0,0,0-4,4v0h116.5a4,4,0,0,1,4,4v116.5h0a4,4,0,0,0,4-4V5.75A4,4,0,0,0,122.25,1.75Z" style="fill:#15958c"/><path d="M99.5,15.75V46.167a4,4,0,0,1-4,4h-63a4,4,0,0,1-4-4V15.75a4,4,0,0,0-4-4H15.75a4,4,0,0,0-4,4v96.5a4,4,0,0,0,4,4h96.5a4,4,0,0,0,4-4V15.75a4,4,0,0,0-4-4H103.5A4,4,0,0,0,99.5,15.75Z" style="fill:#f0f4f7"/><path d="M15.247,15.753H28.5v0a4,4,0,0,0-4-4H15.75a4,4,0,0,0-4,4v0Z" style="fill:#dfe1ea"/><path d="M112.25,11.75H103.5a4,4,0,0,0-4,4v0h8.747a4,4,0,0,1,4,4v96.5h0a4,4,0,0,0,4-4V15.75A4,4,0,0,0,112.25,11.75Z" style="fill:#dfe1ea"/><path d="M89.5,19.75V40.17h-51V19.75a8,8,0,0,1,8-8h35A8,8,0,0,1,89.5,19.75Z" style="fill:#f0f4f7"/><path d="M81.5,11.75h-35a7.969,7.969,0,0,0-5.82,2.521,7.97,7.97,0,0,1,2.818-.52h35a8,8,0,0,1,8,8V40.17h3V19.75A8,8,0,0,0,81.5,11.75Z" style="fill:#dfe1ea"/><path d="M64,22.792a1.75,1.75,0,0,0-1.75,1.75v8.25a1.75,1.75,0,0,0,3.5,0v-8.25A1.75,1.75,0,0,0,64,22.792Z" style="fill:#dfe1ea"/><path d="M65.75,11.75v4.42a1.75,1.75,0,0,1-3.5,0V11.75Z" style="fill:#dfe1ea"/><path d="M73.12,11.75v4.42a1.75,1.75,0,1,1-3.5,0V11.75Z" style="fill:#dfe1ea"/><path d="M80.5,11.75v4.42a1.75,1.75,0,0,1-3.5,0V11.75Z" style="fill:#dfe1ea"/><path d="M58.38,11.75v4.42a1.75,1.75,0,1,1-3.5,0V11.75Z" style="fill:#dfe1ea"/><path d="M51,11.75v4.42a1.75,1.75,0,0,1-3.5,0V11.75Z" style="fill:#dfe1ea"/><path d="M21,61.5h86a1.75,1.75,0,0,0,0-3.5H21a1.75,1.75,0,0,0,0,3.5Z" style="fill:#dfe1ea"/><path d="M107,67.5H21A1.75,1.75,0,0,0,21,71h86a1.75,1.75,0,0,0,0-3.5Z" style="fill:#dfe1ea"/><path d="M107,77H21a1.75,1.75,0,0,0,0,3.5h86a1.75,1.75,0,0,0,0-3.5Z" style="fill:#dfe1ea"/><path d="M107,86.5H21A1.75,1.75,0,0,0,21,90h86a1.75,1.75,0,0,0,0-3.5Z" style="fill:#dfe1ea"/><path d="M107,96H21a1.75,1.75,0,0,0,0,3.5h86a1.75,1.75,0,0,0,0-3.5Z" style="fill:#dfe1ea"/><path d="M107,105.5H21a1.75,1.75,0,0,0,0,3.5h86a1.75,1.75,0,0,0,0-3.5Z" style="fill:#dfe1ea"/><path d="M64,32.792a7.375,7.375,0,0,0-7.375,7.375h14.75A7.375,7.375,0,0,0,64,32.792Z" style="fill:#3ec2f0"/></svg>