<?xml version="1.0" encoding="utf-8"?>
<!-- Generator: Adobe Illustrator 22.0.1, SVG Export Plug-In . SVG Version: 6.00 Build 0)  -->
<svg version="1.1" id="Layer_1" xmlns="http://www.w3.org/2000/svg" xmlns:xlink="http://www.w3.org/1999/xlink" x="0px" y="0px"
	 viewBox="0 0 256 256" style="enable-background:new 0 0 256 256;" xml:space="preserve">
<style type="text/css">
	.st0{fill:#3A312A;}
	.st1{fill:#F16C7A;}
	.st2{fill:#D7E057;}
	.st3{fill:#F8E4C8;}
	.st4{fill:#89C4DB;}
	.st5{fill-rule:evenodd;clip-rule:evenodd;fill:#F8E4C8;}
	.st6{fill:#87796F;}
	.st7{fill:#D4DB56;}
	.st8{fill:#F59689;}
	.st9{fill:#6CA6BE;}
	.st10{fill:#695B51;}
	.st11{fill:#F7E3C7;}
	.st12{fill:#8AC6DD;}
	.st13{fill:#6CA8BF;}
	.st14{fill:#D6DF58;}
	.st15{fill:#FAE6CA;}
	.st16{fill:#EF6D7A;}
	.st17{fill:#DDC9AC;}
	.st18{fill:#D24E5C;}
	.st19{fill:#6A5C52;}
	.st20{fill:#B9C239;}
	.st21{fill:#FCE8CB;}
	.st22{fill:#DECAAD;}
	.st23{fill:#D5DE58;}
	.st24{fill:#8AC5DC;}
	.st25{fill:#D34E5C;}
	.st26{fill:#ED6E7A;}
	.st27{fill:#B8C136;}
</style>
<g>
	<g>
		<g>
			<path class="st0" d="M128.007,54.063c-0.829,0-1.5,0.672-1.5,1.5v145c0,0.828,0.671,1.5,1.5,1.5s1.5-0.672,1.5-1.5v-145
				C129.507,54.735,128.835,54.063,128.007,54.063z"/>
		</g>
	</g>
	<g>
		<g>
			<path class="st0" d="M210.507,155.563h-165c-0.829,0-1.5,0.672-1.5,1.5v43.75c0,0.828,0.671,1.5,1.5,1.5
				c0.829,0,1.5-0.672,1.5-1.5v-42.25h162v42.25c0,0.828,0.671,1.5,1.5,1.5s1.5-0.672,1.5-1.5v-43.75
				C212.007,156.235,211.335,155.563,210.507,155.563z"/>
		</g>
	</g>
	<g>
		<g>
			<path class="st12" d="M229.468,180.564h-38.15c-5.544,0-10.039,4.495-10.039,10.039v38.862c0,5.544,4.495,10.039,10.039,10.039
				h38.15c5.544,0,10.039-4.495,10.039-10.039v-38.862C239.507,185.059,235.013,180.564,229.468,180.564z"/>
		</g>
	</g>
	<g>
		<g>
			<path class="st0" d="M229.468,179.063h-38.149c-6.363,0-11.539,5.177-11.539,11.54v38.861c0,6.362,5.176,11.539,11.539,11.539
				h38.149c6.363,0,11.539-5.177,11.539-11.539v-38.861C241.007,184.24,235.831,179.063,229.468,179.063z M238.007,229.465
				c0,4.708-3.831,8.539-8.539,8.539h-38.149c-4.708,0-8.539-3.831-8.539-8.539v-38.861c0-4.709,3.831-8.54,8.539-8.54h38.149
				c4.708,0,8.539,3.831,8.539,8.54V229.465z"/>
		</g>
	</g>
	<g>
		<g>
			<path class="st2" d="M147.082,180.564h-38.15c-5.544,0-10.039,4.495-10.039,10.039v38.862c0,5.544,4.495,10.039,10.039,10.039
				h38.15c5.544,0,10.039-4.495,10.039-10.039v-38.862C157.121,185.059,152.626,180.564,147.082,180.564z"/>
		</g>
	</g>
	<g>
		<g>
			<path class="st0" d="M147.082,179.063h-38.15c-6.363,0-11.539,5.177-11.539,11.54v13.334c0,0.828,0.671,1.5,1.5,1.5
				c0.829,0,1.5-0.672,1.5-1.5v-13.334c0-4.709,3.831-8.54,8.539-8.54h38.15c4.708,0,8.539,3.831,8.539,8.54v38.861
				c0,4.708-3.831,8.539-8.539,8.539h-38.15c-4.708,0-8.539-3.831-8.539-8.539v-12.275c0-0.828-0.671-1.5-1.5-1.5
				c-0.829,0-1.5,0.672-1.5,1.5v12.275c0,6.362,5.176,11.539,11.539,11.539h38.15c6.363,0,11.539-5.177,11.539-11.539v-38.861
				C158.621,184.24,153.445,179.063,147.082,179.063z"/>
		</g>
	</g>
	<g>
		<g>
			<path class="st1" d="M64.696,180.564h-38.15c-5.544,0-10.039,4.495-10.039,10.039v38.862c0,5.544,4.495,10.039,10.039,10.039
				h38.15c5.544,0,10.039-4.495,10.039-10.039v-38.862C74.735,185.059,70.24,180.564,64.696,180.564z"/>
		</g>
	</g>
	<g>
		<g>
			<path class="st0" d="M64.696,179.063H26.546c-6.363,0-11.54,5.177-11.54,11.54v38.861c0,6.362,5.177,11.539,11.54,11.539h38.149
				c6.363,0,11.539-5.177,11.539-11.539v-38.861C76.235,184.24,71.059,179.063,64.696,179.063z M73.235,229.465
				c0,4.708-3.831,8.539-8.539,8.539H26.546c-4.708,0-8.54-3.831-8.54-8.539v-38.861c0-4.709,3.831-8.54,8.54-8.54h38.149
				c4.708,0,8.539,3.831,8.539,8.54V229.465z"/>
		</g>
	</g>
	<g>
		<g>
			<path class="st0" d="M145.507,199.063h-35c-0.829,0-1.5,0.672-1.5,1.5s0.671,1.5,1.5,1.5h35c0.829,0,1.5-0.672,1.5-1.5
				S146.335,199.063,145.507,199.063z"/>
		</g>
	</g>
	<g>
		<g>
			<path class="st0" d="M145.507,221.563h-35c-0.829,0-1.5,0.672-1.5,1.5s0.671,1.5,1.5,1.5h35c0.829,0,1.5-0.672,1.5-1.5
				S146.335,221.563,145.507,221.563z"/>
		</g>
	</g>
	<g>
		<g>
			<path class="st0" d="M62.507,199.063h-35c-0.829,0-1.5,0.672-1.5,1.5s0.671,1.5,1.5,1.5h35c0.829,0,1.5-0.672,1.5-1.5
				S63.335,199.063,62.507,199.063z"/>
		</g>
	</g>
	<g>
		<g>
			<path class="st0" d="M62.507,221.563h-35c-0.829,0-1.5,0.672-1.5,1.5s0.671,1.5,1.5,1.5h35c0.829,0,1.5-0.672,1.5-1.5
				S63.335,221.563,62.507,221.563z"/>
		</g>
	</g>
	<g>
		<g>
			<path class="st0" d="M227.507,199.063h-35c-0.829,0-1.5,0.672-1.5,1.5s0.671,1.5,1.5,1.5h35c0.829,0,1.5-0.672,1.5-1.5
				S228.335,199.063,227.507,199.063z"/>
		</g>
	</g>
	<g>
		<g>
			<path class="st0" d="M227.507,221.563h-35c-0.829,0-1.5,0.672-1.5,1.5s0.671,1.5,1.5,1.5h35c0.829,0,1.5-0.672,1.5-1.5
				S228.335,221.563,227.507,221.563z"/>
		</g>
	</g>
	<g>
		<g>
			<path class="st13" d="M229.467,182.064h-15c4.71,0,8.54,3.83,8.54,8.54v8.46h4.5c0.83,0,1.5,0.67,1.5,1.5s-0.67,1.5-1.5,1.5h-4.5
				v19.5h4.5c0.83,0,1.5,0.67,1.5,1.5s-0.67,1.5-1.5,1.5h-4.5v4.9c0,4.71-3.83,8.54-8.54,8.54h15c4.71,0,8.54-3.83,8.54-8.54v-38.86
				C238.007,185.894,234.177,182.064,229.467,182.064z"/>
		</g>
	</g>
	<g>
		<g>
			<path class="st2" d="M47.918,121.262c-0.974,11.564-13.025,13.389-13.025,13.389c10.347,0.487,12.925,14.059,12.925,14.059
				c0.221-9.677,13.321-14.202,13.321-14.202C51.326,133.921,47.918,121.262,47.918,121.262z"/>
		</g>
	</g>
	<g>
		<g>
			<path class="st0" d="M61.229,133.012c-8.604-0.515-11.832-12.024-11.864-12.141c-0.191-0.703-0.86-1.168-1.584-1.102
				c-0.725,0.066-1.298,0.642-1.359,1.367c-0.86,10.215-11.313,11.964-11.754,12.032c-0.763,0.116-1.313,0.791-1.273,1.561
				c0.04,0.771,0.657,1.385,1.428,1.421c9.028,0.425,11.499,12.718,11.523,12.843c0.137,0.711,0.759,1.217,1.472,1.217
				c0.042,0,0.085-0.002,0.126-0.005c0.764-0.064,1.357-0.693,1.375-1.46c0.195-8.509,12.192-12.777,12.313-12.819
				c0.675-0.234,1.092-0.914,0.994-1.622C62.527,133.595,61.943,133.054,61.229,133.012z M47.664,143.357
				c-1.357-3.131-3.708-6.907-7.587-8.877c2.931-1.404,6.409-3.913,8.202-8.272c1.551,3.071,4.199,6.88,8.334,8.723
				C53.605,136.57,49.69,139.336,47.664,143.357z"/>
		</g>
	</g>
	<g>
		<g>
			<path class="st2" d="M26.22,138.243c-0.689,8.179-9.213,9.471-9.213,9.471c7.318,0.344,9.142,9.944,9.142,9.944
				c0.156-6.845,9.422-10.045,9.422-10.045C28.63,147.197,26.22,138.243,26.22,138.243z"/>
		</g>
	</g>
	<g>
		<g>
			<path class="st0" d="M35.661,146.115c-5.766-0.345-7.972-8.186-7.993-8.265c-0.19-0.701-0.854-1.173-1.582-1.102
				c-0.725,0.065-1.299,0.643-1.36,1.368c-0.579,6.87-7.647,8.066-7.943,8.113c-0.763,0.116-1.313,0.791-1.273,1.561
				c0.04,0.771,0.657,1.385,1.428,1.421c6.035,0.284,7.724,8.644,7.739,8.726c0.135,0.713,0.759,1.22,1.472,1.22
				c0.042,0,0.083-0.002,0.125-0.005c0.765-0.063,1.358-0.693,1.376-1.461c0.13-5.708,8.332-8.633,8.412-8.661
				c0.677-0.234,1.094-0.913,0.996-1.622C36.96,146.699,36.375,146.157,35.661,146.115z M26.077,152.91
				c-0.924-1.886-2.34-3.947-4.447-5.28c1.856-1.041,3.697-2.63,4.871-4.916c1.057,1.874,2.654,3.954,4.941,5.224
				C29.591,149.038,27.453,150.678,26.077,152.91z"/>
		</g>
	</g>
	<g>
		<g>
			<path class="st2" d="M26.22,111.585c-0.689,8.179-9.213,9.471-9.213,9.471C24.325,121.4,26.149,131,26.149,131
				c0.156-6.845,9.422-10.046,9.422-10.046C28.63,120.539,26.22,111.585,26.22,111.585z"/>
		</g>
	</g>
	<g>
		<g>
			<path class="st0" d="M35.661,119.458c-5.766-0.346-7.972-8.187-7.994-8.266c-0.19-0.702-0.854-1.165-1.582-1.102
				c-0.725,0.065-1.299,0.643-1.36,1.368c-0.579,6.871-7.647,8.066-7.943,8.113c-0.763,0.116-1.313,0.791-1.273,1.561
				c0.04,0.771,0.657,1.385,1.427,1.421c6.036,0.284,7.724,8.645,7.74,8.727c0.135,0.713,0.759,1.22,1.472,1.22
				c0.042,0,0.083-0.002,0.125-0.005c0.765-0.063,1.358-0.693,1.376-1.461c0.13-5.709,8.331-8.633,8.412-8.661
				c0.676-0.233,1.094-0.913,0.996-1.622C36.96,120.042,36.375,119.501,35.661,119.458z M26.077,126.252
				c-0.924-1.885-2.34-3.947-4.447-5.279c1.856-1.041,3.697-2.63,4.871-4.917c1.057,1.874,2.654,3.955,4.941,5.225
				C29.591,122.381,27.453,124.02,26.077,126.252z"/>
		</g>
	</g>
	<g>
		<g>
			<path class="st3" d="M128.007,16.585c-61.58,0-111.5,56.5-111.5,62c0,2.814,13.072,18.978,34.082,34.094l10.913,7.264
				c18.567,11.385,41.58,20.641,66.505,20.641c61.58,0,111.5-56.5,111.5-62S189.587,16.585,128.007,16.585z"/>
		</g>
	</g>
	<g>
		<g>
			<path class="st0" d="M207.737,44.313c-18.163-13.334-46.739-29.229-79.73-29.229c-32.99,0-61.567,15.895-79.73,29.229
				c-19.3,14.168-33.27,30.306-33.27,34.271c0,4.067,14.903,21.064,34.707,35.313c0.672,0.482,1.609,0.329,2.094-0.342
				c0.484-0.673,0.331-1.609-0.342-2.094C30.771,96.573,18.352,80.99,18.004,78.632c0.722-5.104,48.914-60.547,110.002-60.547
				c61.089,0,109.28,55.442,110.003,60.453c-0.722,5.104-48.914,60.547-110.003,60.547c-21.51,0-43.621-6.87-65.721-20.419
				c-0.706-0.433-1.63-0.212-2.063,0.494c-0.433,0.706-0.211,1.63,0.495,2.063c22.579,13.844,45.218,20.862,67.289,20.862
				c32.991,0,61.567-15.895,79.73-29.229c19.3-14.168,33.27-30.306,33.27-34.271S227.037,58.481,207.737,44.313z"/>
		</g>
	</g>
	<g>
		<g>
			
				<ellipse transform="matrix(0.0985 -0.9951 0.9951 0.0985 37.1907 198.2259)" class="st24" cx="128.007" cy="78.585" rx="49.6" ry="49.6"/>
		</g>
	</g>
	<g>
		<g>
			<path class="st0" d="M128.007,27.485c-28.176,0-51.1,22.923-51.1,51.1s22.923,51.101,51.1,51.101
				c28.177,0,51.1-22.924,51.1-51.101S156.184,27.485,128.007,27.485z M128.007,126.686c-26.522,0-48.1-21.578-48.1-48.101
				s21.578-48.1,48.1-48.1c26.523,0,48.1,21.577,48.1,48.1S154.529,126.686,128.007,126.686z"/>
		</g>
	</g>
	<g>
		<g>
			<path class="st6" d="M128.007,48.713c-3.878,0-7.58,0.747-10.98,2.092l-10.841,7.389c-4.991,5.339-8.052,12.506-8.052,20.391
				c0,16.498,13.374,29.873,29.873,29.873c16.498,0,29.873-13.374,29.873-29.873C157.88,62.087,144.505,48.713,128.007,48.713z"/>
		</g>
	</g>
	<g>
		<g>
			<path class="st0" d="M128.007,47.213c-3.966,0-7.845,0.739-11.531,2.197c-0.771,0.305-1.148,1.176-0.843,1.946
				c0.305,0.77,1.176,1.151,1.947,0.843c3.333-1.318,6.841-1.986,10.428-1.986c15.645,0,28.373,12.728,28.373,28.372
				s-12.728,28.373-28.373,28.373c-15.644,0-28.372-12.729-28.372-28.373c0-7.214,2.716-14.091,7.647-19.366
				c0.566-0.605,0.534-1.555-0.071-2.12c-0.604-0.565-1.554-0.532-2.12,0.071c-5.453,5.833-8.456,13.438-8.456,21.415
				c0,17.299,14.074,31.373,31.372,31.373c17.299,0,31.373-14.074,31.373-31.373S145.306,47.213,128.007,47.213z"/>
		</g>
	</g>
	<g>
		<g>
			<circle class="st3" cx="148.007" cy="57.585" r="11.5"/>
		</g>
	</g>
	<g>
		<g>
			<path class="st0" d="M148.007,44.585c-7.168,0-13,5.832-13,13s5.832,13,13,13c7.169,0,13-5.832,13-13
				S155.175,44.585,148.007,44.585z M148.007,67.585c-5.514,0-10-4.486-10-10s4.486-10,10-10c5.514,0,10,4.486,10,10
				S153.521,67.585,148.007,67.585z"/>
		</g>
	</g>
	<g>
		<g>
			<path class="st22" d="M208.358,48.477c-0.08-0.04-0.17-0.07-0.25-0.13c-0.1-0.07-0.19-0.16-0.26-0.26
				c-10.18-7.7-22.52-15.36-36.39-21.01c-0.03,0-0.05,0.01-0.08,0.01c-0.19,0-0.39-0.04-0.58-0.12c-0.21-0.08-0.38-0.21-0.52-0.37
				c-12.96-5.14-27.22-8.51-42.25-8.51c-0.01,0-0.01,0-0.02,0s-0.01,0-0.02,0c-2.52,0-5.01,0.09-7.48,0.28
				c12.29,0.901,23.98,3.95,34.77,8.23c0.14,0.16,0.31,0.29,0.52,0.37c0.19,0.08,0.39,0.12,0.58,0.12c0.03,0,0.05-0.01,0.08-0.01
				c13.87,5.65,26.21,13.31,36.39,21.01c0.07,0.1,0.16,0.19,0.26,0.26c0.08,0.06,0.17,0.09,0.25,0.13
				c18.06,13.77,29.17,27.55,29.64,30.11c-0.96,5.17-45.18,56.03-102.5,60.22c2.48,0.19,4.98,0.28,7.51,0.28
				c60.91,0,108.99-55.11,109.99-60.5C237.527,76.027,226.417,62.247,208.358,48.477z"/>
		</g>
	</g>
</g>
</svg>
