<?xml version="1.0" encoding="utf-8"?>
<!-- Generator: Adobe Illustrator 22.0.1, SVG Export Plug-In . SVG Version: 6.00 Build 0)  -->
<svg version="1.1" id="Layer_1" xmlns="http://www.w3.org/2000/svg" xmlns:xlink="http://www.w3.org/1999/xlink" x="0px" y="0px"
	 viewBox="0 0 256 256" style="enable-background:new 0 0 256 256;" xml:space="preserve">
<style type="text/css">
	.st0{fill:#3A312A;}
	.st1{fill:#F16C7A;}
	.st2{fill:#D7E057;}
	.st3{fill:#F8E4C8;}
	.st4{fill:#89C4DB;}
	.st5{fill-rule:evenodd;clip-rule:evenodd;fill:#F8E4C8;}
	.st6{fill:#87796F;}
	.st7{fill:#D4DB56;}
	.st8{fill:#F59689;}
	.st9{fill:#6CA6BE;}
	.st10{fill:#695B51;}
	.st11{fill:#F7E3C7;}
	.st12{fill:#8AC6DD;}
	.st13{fill:#6CA8BF;}
	.st14{fill:#D6DF58;}
	.st15{fill:#FAE6CA;}
	.st16{fill:#EF6D7A;}
	.st17{fill:#DDC9AC;}
	.st18{fill:#D24E5C;}
	.st19{fill:#6A5C52;}
	.st20{fill:#B9C239;}
	.st21{fill:#FCE8CB;}
	.st22{fill:#DECAAD;}
	.st23{fill:#D5DE58;}
	.st24{fill:#8AC5DC;}
	.st25{fill:#D34E5C;}
	.st26{fill:#ED6E7A;}
	.st27{fill:#B8C136;}
</style>
<g>
	<g>
		<g>
			<path class="st6" d="M222.295,16.172H33.506c-9.447,0-17.105,7.658-17.105,17.106v130.289c0,9.447,7.658,17.105,17.105,17.105
				h188.789c9.447,0,17.105-7.658,17.105-17.105V33.278C239.4,23.831,231.742,16.172,222.295,16.172z"/>
		</g>
	</g>
	<g>
		<g>
			<path class="st0" d="M222.295,14.672H33.506c-10.259,0-18.605,8.346-18.605,18.605v130.289c0,10.259,8.347,18.605,18.605,18.605
				h188.789c10.259,0,18.605-8.346,18.605-18.605V33.278C240.9,23.019,232.554,14.672,222.295,14.672z M237.9,163.567
				c0,8.605-7.001,15.605-15.605,15.605H33.506c-8.604,0-15.605-7-15.605-15.605V33.278c0-8.605,7.001-15.605,15.605-15.605h188.789
				c8.604,0,15.605,7,15.605,15.605V163.567z"/>
		</g>
	</g>
	<g>
		<g>
			<path class="st12" d="M214.87,28.677H40.93c-6.58,0-11.92,5.33-11.92,11.92v115.66c0,6.58,5.34,11.92,11.92,11.92h173.94
				c6.58,0,11.92-5.34,11.92-11.92V40.597C226.79,34.007,221.45,28.677,214.87,28.677z"/>
		</g>
	</g>
	<g>
		<g>
			<path class="st0" d="M214.87,27.177H40.931c-7.4,0-13.421,6.02-13.421,13.42v51.162c0,0.829,0.672,1.5,1.5,1.5
				c0.828,0,1.5-0.671,1.5-1.5V40.597c0-5.746,4.675-10.42,10.421-10.42H214.87c5.745,0,10.42,4.674,10.42,10.42v115.66
				c0,5.746-4.675,10.42-10.42,10.42H40.931c-5.746,0-10.421-4.674-10.421-10.42v-51.276c0-0.829-0.672-1.5-1.5-1.5
				c-0.828,0-1.5,0.671-1.5,1.5v51.276c0,7.4,6.021,13.42,13.421,13.42H214.87c7.399,0,13.42-6.02,13.42-13.42V40.597
				C228.29,33.197,222.27,27.177,214.87,27.177z"/>
		</g>
	</g>
	<g>
		<g>
			<rect x="113.588" y="180.672" class="st6" width="28.625" height="35.593"/>
		</g>
	</g>
	<g>
		<g>
			<path class="st0" d="M142.213,179.172h-28.625c-0.828,0-1.5,0.671-1.5,1.5v35.593c0,0.829,0.672,1.5,1.5,1.5h28.625
				c0.828,0,1.5-0.671,1.5-1.5v-35.593C143.713,179.844,143.041,179.172,142.213,179.172z M140.713,214.766h-25.625v-32.593h25.625
				V214.766z"/>
		</g>
	</g>
	<g>
		<g>
			<path class="st6" d="M148.197,216.266h-40.593c-12.927,0-23.407,10.479-23.407,23.406h87.406
				C171.603,226.745,161.124,216.266,148.197,216.266z"/>
		</g>
	</g>
	<g>
		<g>
			<path class="st0" d="M148.196,214.766h-40.593c-13.733,0-24.906,11.173-24.906,24.907c0,0.829,0.672,1.5,1.5,1.5h37.584
				c0.828,0,1.5-0.671,1.5-1.5s-0.672-1.5-1.5-1.5H85.748c0.773-11.382,10.28-20.407,21.855-20.407h40.593
				c11.575,0,21.083,9.024,21.856,20.407h-34.701c-0.828,0-1.5,0.671-1.5,1.5s0.672,1.5,1.5,1.5h36.252c0.828,0,1.5-0.671,1.5-1.5
				C173.104,225.939,161.931,214.766,148.196,214.766z"/>
		</g>
	</g>
	<g>
		<g>
			<path class="st2" d="M47.571,203.506c-0.974,11.564-13.024,13.39-13.024,13.39c10.346,0.487,12.925,14.059,12.925,14.059
				c0.221-9.677,13.321-14.202,13.321-14.202C50.98,216.166,47.571,203.506,47.571,203.506z"/>
		</g>
	</g>
	<g>
		<g>
			<path class="st0" d="M60.883,215.255c-8.604-0.514-11.832-12.024-11.863-12.141c-0.19-0.702-0.85-1.16-1.584-1.102
				c-0.725,0.066-1.298,0.642-1.359,1.367c-0.859,10.215-11.313,11.964-11.754,12.033c-0.763,0.115-1.313,0.79-1.273,1.561
				c0.04,0.77,0.657,1.384,1.428,1.421c9.027,0.425,11.498,12.718,11.521,12.842c0.138,0.711,0.76,1.217,1.473,1.217
				c0.042,0,0.084-0.001,0.126-0.005c0.764-0.064,1.357-0.693,1.375-1.459c0.194-8.508,12.191-12.777,12.313-12.819
				c0.676-0.235,1.092-0.915,0.994-1.623C62.18,215.839,61.597,215.298,60.883,215.255z M47.316,225.602
				c-1.356-3.13-3.709-6.907-7.587-8.876c2.931-1.405,6.409-3.913,8.202-8.273c1.551,3.071,4.2,6.88,8.334,8.722
				C53.259,218.814,49.343,221.581,47.316,225.602z"/>
		</g>
	</g>
	<g>
		<g>
			<path class="st2" d="M25.872,220.487c-0.689,8.179-9.212,9.471-9.212,9.471c7.318,0.344,9.142,9.944,9.142,9.944
				c0.156-6.845,9.422-10.046,9.422-10.046C28.283,229.441,25.872,220.487,25.872,220.487z"/>
		</g>
	</g>
	<g>
		<g>
			<path class="st0" d="M35.314,228.359c-5.767-0.345-7.973-8.186-7.995-8.265c-0.189-0.702-0.865-1.162-1.581-1.102
				c-0.726,0.065-1.3,0.643-1.361,1.368c-0.578,6.871-7.646,8.067-7.942,8.114c-0.763,0.115-1.313,0.79-1.273,1.561
				c0.04,0.77,0.657,1.384,1.428,1.421c6.035,0.284,7.724,8.644,7.739,8.726c0.136,0.713,0.759,1.22,1.473,1.22
				c0.041,0,0.083-0.001,0.125-0.005c0.765-0.063,1.358-0.694,1.376-1.461c0.13-5.709,8.331-8.634,8.412-8.662
				c0.676-0.234,1.093-0.913,0.996-1.622C36.613,228.943,36.028,228.402,35.314,228.359z M25.729,235.154
				c-0.924-1.885-2.34-3.947-4.447-5.28c1.856-1.041,3.697-2.63,4.87-4.916c1.058,1.874,2.655,3.954,4.942,5.224
				C29.245,231.282,27.105,232.921,25.729,235.154z"/>
		</g>
	</g>
	<g>
		<g>
			<path class="st2" d="M25.872,193.829c-0.689,8.179-9.212,9.471-9.212,9.471c7.318,0.344,9.142,9.944,9.142,9.944
				c0.156-6.845,9.422-10.045,9.422-10.045C28.283,202.784,25.872,193.829,25.872,193.829z"/>
		</g>
	</g>
	<g>
		<g>
			<path class="st0" d="M35.314,201.701c-5.767-0.345-7.973-8.185-7.995-8.264c-0.189-0.702-0.865-1.161-1.581-1.102
				c-0.726,0.065-1.3,0.643-1.361,1.368c-0.578,6.871-7.646,8.066-7.942,8.113c-0.763,0.115-1.313,0.79-1.273,1.561
				c0.04,0.77,0.657,1.384,1.428,1.421c6.035,0.284,7.724,8.645,7.739,8.726c0.136,0.713,0.759,1.22,1.473,1.22
				c0.041,0,0.083-0.001,0.125-0.005c0.765-0.063,1.358-0.694,1.376-1.461c0.13-5.709,8.331-8.634,8.412-8.662
				c0.676-0.234,1.093-0.913,0.996-1.622C36.613,202.286,36.028,201.744,35.314,201.701z M25.729,208.497
				c-0.924-1.885-2.34-3.947-4.447-5.28c1.856-1.042,3.697-2.63,4.87-4.917c1.058,1.874,2.655,3.955,4.942,5.224
				C29.244,204.625,27.105,206.264,25.729,208.497z"/>
		</g>
	</g>
	<g>
		<g>
			<rect x="58.9" y="28.677" class="st15" width="138" height="139.5"/>
		</g>
	</g>
	<g>
		<g>
			<path class="st0" d="M196.9,27.177h-138c-0.828,0-1.5,0.671-1.5,1.5v139.5c0,0.829,0.672,1.5,1.5,1.5h138
				c0.828,0,1.5-0.671,1.5-1.5v-139.5C198.4,27.849,197.729,27.177,196.9,27.177z M195.4,166.677h-135v-136.5h135V166.677z"/>
		</g>
	</g>
	<g>
		<g>
			<path class="st2" d="M236.4,180.864h-1.382c-0.81-3.541-2.222-6.853-4.124-9.822l1.017-1.017c1.172-1.172,1.172-3.071,0-4.243
				l-5.402-5.402c-1.172-1.172-3.072-1.172-4.243,0l-1.055,1.055c-2.962-1.866-6.26-3.247-9.783-4.033v-1.511c0-1.657-1.343-3-3-3
				h-7.64c-1.657,0-3,1.343-3,3v1.511c-1.867,0.503-6.821,2.167-9.783,4.033l-1.055-1.055c-1.172-1.172-3.071-1.172-4.243,0
				l-5.402,5.402c-1.172,1.172-1.172,3.071,0,4.243l1.017,1.017c-1.902,2.968-3.314,6.28-4.124,9.822h-1.382c-1.657,0-3,1.343-3,3
				v7.64c0,1.657,1.343,3,3,3h1.31c0.779,3.585,2.174,6.94,4.069,9.948l-0.89,0.89c-1.172,1.172-1.172,3.071,0,4.243l5.402,5.402
				c1.172,1.172,3.072,1.172,4.243,0l0.852-0.852c3.014,1.931,6.383,3.356,9.987,4.16v1.181c0,1.657,1.343,3,3,3h7.64
				c1.657,0,3-1.343,3-3v-1.181c3.603-0.804,6.972-2.229,9.987-4.16l0.852,0.852c1.172,1.172,3.071,1.172,4.243,0l5.402-5.402
				c1.172-1.172,1.172-3.072,0-4.243l-0.89-0.89c1.895-3.009,3.29-6.363,4.069-9.948h1.31c1.657,0,3-1.343,3-3v-7.64
				C239.4,182.207,238.057,180.864,236.4,180.864z M204.607,203.282c-8.615,0-15.598-6.984-15.598-15.598
				s6.984-15.598,15.598-15.598c8.615,0,15.598,6.983,15.598,15.598S213.222,203.282,204.607,203.282z"/>
		</g>
	</g>
	<g>
		<g>
			<path class="st0" d="M236.4,179.363h-0.21c-0.761-2.843-1.9-5.559-3.398-8.098l0.179-0.179c0.851-0.85,1.318-1.98,1.318-3.182
				c0-1.203-0.468-2.333-1.318-3.182l-5.401-5.403c-1.755-1.752-4.609-1.754-6.364,0l-0.225,0.225
				c-2.529-1.467-5.229-2.581-8.054-3.321v-0.332c0-2.481-2.019-4.5-4.5-4.5h-7.64c-2.481,0-4.5,2.019-4.5,4.5v0.389
				c-1.961,0.609-5.374,1.813-8.042,3.276l-0.236-0.237c-1.754-1.754-4.61-1.753-6.364,0l-5.401,5.402
				c-0.851,0.85-1.318,1.98-1.318,3.183c0,1.202,0.468,2.332,1.318,3.182l0.179,0.179c-1.498,2.54-2.638,5.255-3.398,8.098h-0.209
				c-2.481,0-4.501,2.019-4.501,4.5v7.64c0,2.481,2.02,4.5,4.501,4.5h0.124c0.739,2.884,1.867,5.639,3.363,8.219l-0.059,0.059
				c-0.851,0.85-1.318,1.98-1.318,3.182c0,1.203,0.468,2.333,1.318,3.182l5.401,5.403c1.754,1.754,4.61,1.753,6.364,0l0.015-0.014
				c2.588,1.526,5.358,2.68,8.264,3.441v0.001c0,2.481,2.019,4.5,4.5,4.5h7.64c2.481,0,4.5-2.019,4.5-4.5v-0.001
				c2.905-0.761,5.676-1.915,8.264-3.441l0.015,0.015c1.754,1.754,4.61,1.753,6.364,0l5.401-5.402
				c0.851-0.85,1.318-1.98,1.318-3.183c0-1.202-0.468-2.332-1.318-3.182l-0.059-0.059c1.496-2.58,2.624-5.335,3.363-8.219h0.125
				c2.481,0,4.5-2.019,4.5-4.5v-7.64C240.9,181.382,238.882,179.363,236.4,179.363z M237.9,191.503c0,0.827-0.673,1.5-1.5,1.5
				h-1.311c-0.706,0-1.315,0.492-1.466,1.181c-0.731,3.364-2.034,6.549-3.873,9.468c-0.373,0.592-0.286,1.365,0.209,1.86l0.89,0.89
				c0.283,0.284,0.439,0.661,0.439,1.061c0,0.401-0.156,0.777-0.439,1.061l-5.401,5.402c-0.585,0.584-1.535,0.585-2.122,0
				l-0.852-0.852c-0.496-0.498-1.273-0.583-1.87-0.203c-2.922,1.872-6.119,3.204-9.504,3.959c-0.687,0.153-1.174,0.761-1.174,1.464
				v1.181c0,0.827-0.673,1.5-1.5,1.5h-7.64c-0.827,0-1.5-0.673-1.5-1.5v-1.181c0-0.703-0.487-1.311-1.174-1.464
				c-3.385-0.755-6.582-2.087-9.504-3.959c-0.249-0.159-0.53-0.237-0.809-0.237c-0.388,0-0.772,0.15-1.062,0.439l-0.852,0.851
				c-0.585,0.584-1.535,0.585-2.122,0l-5.401-5.403c-0.283-0.283-0.439-0.66-0.439-1.061c0-0.4,0.156-0.777,0.439-1.061l0.89-0.89
				c0.495-0.495,0.582-1.268,0.209-1.86c-1.839-2.918-3.142-6.104-3.873-9.468c-0.15-0.689-0.76-1.181-1.466-1.181h-1.31
				c-0.828,0-1.501-0.673-1.501-1.5v-7.64c0-0.827,0.673-1.5,1.501-1.5h1.382c0.699,0,1.307-0.484,1.462-1.166
				c0.761-3.324,2.081-6.469,3.925-9.346c0.381-0.594,0.296-1.372-0.202-1.87l-1.017-1.017c-0.283-0.284-0.439-0.661-0.439-1.061
				c0-0.401,0.156-0.777,0.439-1.061l5.401-5.402c0.585-0.586,1.539-0.585,2.122,0l1.056,1.055c0.496,0.495,1.268,0.583,1.86,0.208
				c2.759-1.738,7.592-3.374,9.373-3.854c0.655-0.176,1.11-0.77,1.11-1.448v-1.512c0-0.827,0.673-1.5,1.5-1.5h7.64
				c0.827,0,1.5,0.673,1.5,1.5v1.512c0,0.703,0.487,1.311,1.174,1.464c3.306,0.737,6.438,2.028,9.31,3.838
				c0.593,0.375,1.364,0.287,1.86-0.208l1.056-1.055c0.585-0.584,1.535-0.585,2.122,0l5.401,5.403
				c0.283,0.283,0.439,0.66,0.439,1.061c0,0.4-0.156,0.777-0.439,1.061l-1.017,1.017c-0.498,0.499-0.583,1.276-0.202,1.87
				c1.844,2.877,3.164,6.022,3.925,9.346c0.155,0.682,0.763,1.166,1.462,1.166h1.383c0.827,0,1.5,0.673,1.5,1.5V191.503z
				 M204.606,170.585c-9.428,0-17.098,7.67-17.098,17.098s7.67,17.098,17.098,17.098s17.099-7.67,17.099-17.098
				S214.034,170.585,204.606,170.585z M204.606,201.782c-7.773,0-14.098-6.324-14.098-14.098s6.324-14.098,14.098-14.098
				c7.774,0,14.099,6.324,14.099,14.098S212.381,201.782,204.606,201.782z"/>
		</g>
	</g>
	<g>
		<g>
			<path class="st0" d="M183.4,43.533h-111c-0.828,0-1.5,0.671-1.5,1.5s0.672,1.5,1.5,1.5h111c0.828,0,1.5-0.671,1.5-1.5
				S184.229,43.533,183.4,43.533z"/>
		</g>
	</g>
	<g>
		<g>
			<path class="st0" d="M183.4,65.033h-111c-0.828,0-1.5,0.671-1.5,1.5s0.672,1.5,1.5,1.5h111c0.828,0,1.5-0.671,1.5-1.5
				S184.229,65.033,183.4,65.033z"/>
		</g>
	</g>
	<g>
		<g>
			<path class="st0" d="M183.4,86.533h-111c-0.828,0-1.5,0.671-1.5,1.5s0.672,1.5,1.5,1.5h111c0.828,0,1.5-0.671,1.5-1.5
				S184.229,86.533,183.4,86.533z"/>
		</g>
	</g>
	<g>
		<g>
			<path class="st0" d="M183.4,108.033h-111c-0.828,0-1.5,0.671-1.5,1.5s0.672,1.5,1.5,1.5h111c0.828,0,1.5-0.671,1.5-1.5
				S184.229,108.033,183.4,108.033z"/>
		</g>
	</g>
	<g>
		<g>
			<path class="st0" d="M183.4,129.533h-111c-0.828,0-1.5,0.671-1.5,1.5s0.672,1.5,1.5,1.5h111c0.828,0,1.5-0.671,1.5-1.5
				S184.229,129.533,183.4,129.533z"/>
		</g>
	</g>
	<g>
		<g>
			<path class="st0" d="M183.4,151.033h-111c-0.828,0-1.5,0.671-1.5,1.5s0.672,1.5,1.5,1.5h111c0.828,0,1.5-0.671,1.5-1.5
				S184.229,151.033,183.4,151.033z"/>
		</g>
	</g>
	<g>
		<g>
			<path class="st13" d="M214.87,30.177h-15c5.74,0,10.42,4.67,10.42,10.42v111.2c1.56,0.7,2.64,2.27,2.64,4.09v0.34
				c2.82,0.74,5.52,1.85,8.05,3.32l0.22-0.23c1.07-1.06,2.54-1.47,3.92-1.24c0.11-0.59,0.17-1.2,0.17-1.82V40.597
				C225.29,34.847,220.61,30.177,214.87,30.177z"/>
		</g>
	</g>
</g>
</svg>
