<?xml version="1.0" encoding="utf-8"?>
<!-- Generator: Adobe Illustrator 22.0.1, SVG Export Plug-In . SVG Version: 6.00 Build 0)  -->
<svg version="1.1" id="Layer_1" xmlns="http://www.w3.org/2000/svg" xmlns:xlink="http://www.w3.org/1999/xlink" x="0px" y="0px"
	 viewBox="0 0 256 256" style="enable-background:new 0 0 256 256;" xml:space="preserve">
<style type="text/css">
	.st0{fill:#3A312A;}
	.st1{fill:#F16C7A;}
	.st2{fill:#D7E057;}
	.st3{fill:#F8E4C8;}
	.st4{fill:#89C4DB;}
	.st5{fill-rule:evenodd;clip-rule:evenodd;fill:#F8E4C8;}
	.st6{fill:#87796F;}
	.st7{fill:#D4DB56;}
	.st8{fill:#F59689;}
	.st9{fill:#6CA6BE;}
	.st10{fill:#695B51;}
	.st11{fill:#F7E3C7;}
	.st12{fill:#8AC6DD;}
	.st13{fill:#6CA8BF;}
	.st14{fill:#D6DF58;}
	.st15{fill:#FAE6CA;}
	.st16{fill:#EF6D7A;}
	.st17{fill:#DDC9AC;}
	.st18{fill:#D24E5C;}
	.st19{fill:#6A5C52;}
	.st20{fill:#B9C239;}
	.st21{fill:#FCE8CB;}
	.st22{fill:#DECAAD;}
	.st23{fill:#D5DE58;}
	.st24{fill:#8AC5DC;}
	.st25{fill:#D34E5C;}
	.st26{fill:#ED6E7A;}
	.st27{fill:#B8C136;}
</style>
<g>
	<g>
		<g>
			<path class="st0" d="M210.507,154.678c-0.829,0-1.5,0.671-1.5,1.5v52.15h-162v-52.15c0-0.829-0.671-1.5-1.5-1.5
				c-0.829,0-1.5,0.671-1.5,1.5v53.65c0,0.829,0.671,1.5,1.5,1.5h165c0.829,0,1.5-0.671,1.5-1.5v-53.65
				C212.007,155.35,211.335,154.678,210.507,154.678z"/>
		</g>
	</g>
	<g>
		<g>
			<path class="st0" d="M128.007,73.503c-0.829,0-1.5,0.671-1.5,1.5v24c0,0.829,0.671,1.5,1.5,1.5s1.5-0.671,1.5-1.5v-24
				C129.507,74.175,128.835,73.503,128.007,73.503z"/>
		</g>
	</g>
	<g>
		<g>
			<path class="st0" d="M129.447,74.584c-0.232-0.795-1.066-1.254-1.859-1.021l-82.5,24c-0.795,0.231-1.253,1.064-1.021,1.859
				c0.191,0.656,0.79,1.082,1.44,1.082c0.139,0,0.28-0.02,0.419-0.06l82.5-24C129.221,76.212,129.679,75.38,129.447,74.584z"/>
		</g>
	</g>
	<g>
		<g>
			<path class="st0" d="M210.926,97.563l-82.5-24c-0.794-0.232-1.628,0.226-1.859,1.021c-0.231,0.795,0.226,1.628,1.021,1.859
				l82.5,24c0.14,0.041,0.281,0.06,0.419,0.06c0.65,0,1.249-0.426,1.44-1.082C212.179,98.627,211.721,97.794,210.926,97.563z"/>
		</g>
	</g>
	<g>
		<g>
			<path class="st2" d="M47.918,26.202c-0.974,11.564-13.025,13.389-13.025,13.389c10.347,0.487,12.925,14.059,12.925,14.059
				C48.04,43.974,61.14,39.448,61.14,39.448C51.326,38.861,47.918,26.202,47.918,26.202z"/>
		</g>
	</g>
	<g>
		<g>
			<path class="st0" d="M61.229,37.951c-8.604-0.514-11.832-12.024-11.864-12.14c-0.191-0.703-0.86-1.167-1.584-1.102
				c-0.725,0.066-1.298,0.642-1.359,1.367C45.563,36.291,35.11,38.04,34.669,38.108c-0.763,0.115-1.313,0.79-1.273,1.56
				c0.04,0.77,0.657,1.384,1.428,1.421c9.028,0.425,11.499,12.719,11.523,12.843c0.137,0.711,0.759,1.217,1.472,1.217
				c0.042,0,0.084-0.002,0.126-0.005c0.764-0.064,1.357-0.693,1.375-1.459c0.195-8.509,12.192-12.777,12.313-12.819
				c0.675-0.235,1.092-0.914,0.994-1.622C62.527,38.535,61.943,37.994,61.229,37.951z M47.664,48.297
				c-1.357-3.13-3.709-6.908-7.587-8.877c2.931-1.404,6.409-3.913,8.202-8.272c1.551,3.071,4.199,6.88,8.334,8.722
				C53.605,41.51,49.69,44.276,47.664,48.297z"/>
		</g>
	</g>
	<g>
		<g>
			<path class="st2" d="M26.22,43.182c-0.689,8.179-9.213,9.471-9.213,9.471c7.318,0.344,9.142,9.944,9.142,9.944
				c0.156-6.844,9.422-10.045,9.422-10.045C28.63,52.136,26.22,43.182,26.22,43.182z"/>
		</g>
	</g>
	<g>
		<g>
			<path class="st0" d="M35.661,51.054c-5.766-0.345-7.972-8.185-7.993-8.264c-0.19-0.702-0.854-1.167-1.582-1.102
				c-0.725,0.065-1.299,0.642-1.36,1.368c-0.579,6.87-7.647,8.066-7.943,8.113c-0.763,0.115-1.313,0.79-1.273,1.561
				c0.04,0.77,0.657,1.384,1.427,1.421c6.036,0.284,7.724,8.644,7.74,8.726c0.135,0.712,0.759,1.22,1.473,1.22
				c0.041,0,0.083-0.001,0.125-0.005c0.765-0.063,1.358-0.694,1.376-1.461c0.13-5.709,8.332-8.634,8.412-8.662
				c0.677-0.234,1.094-0.913,0.996-1.622C36.96,51.639,36.375,51.097,35.661,51.054z M26.077,57.85
				c-0.924-1.886-2.341-3.947-4.448-5.28c1.856-1.042,3.698-2.63,4.871-4.917c1.057,1.874,2.654,3.955,4.941,5.224
				C29.591,53.977,27.453,55.617,26.077,57.85z"/>
		</g>
	</g>
	<g>
		<g>
			<path class="st2" d="M26.22,16.525c-0.689,8.179-9.213,9.471-9.213,9.471c7.318,0.344,9.142,9.944,9.142,9.944
				c0.156-6.845,9.422-10.045,9.422-10.045C28.63,25.479,26.22,16.525,26.22,16.525z"/>
		</g>
	</g>
	<g>
		<g>
			<path class="st0" d="M35.661,24.397c-5.766-0.345-7.972-8.186-7.994-8.265c-0.19-0.702-0.854-1.167-1.582-1.102
				c-0.725,0.065-1.299,0.642-1.36,1.368c-0.579,6.871-7.647,8.067-7.943,8.114c-0.763,0.115-1.313,0.79-1.273,1.56
				c0.04,0.77,0.657,1.384,1.428,1.421c6.035,0.284,7.724,8.644,7.739,8.726c0.135,0.713,0.759,1.22,1.473,1.22
				c0.041,0,0.083-0.001,0.125-0.005c0.765-0.063,1.358-0.694,1.376-1.461c0.13-5.709,8.331-8.634,8.412-8.662
				c0.676-0.234,1.094-0.913,0.996-1.622C36.96,24.981,36.375,24.44,35.661,24.397z M26.077,31.192
				c-0.924-1.885-2.34-3.947-4.447-5.28c1.856-1.041,3.697-2.63,4.871-4.917c1.057,1.874,2.654,3.955,4.941,5.224
				C29.591,27.32,27.453,28.959,26.077,31.192z"/>
		</g>
	</g>
	<g>
		<g>
			<path class="st1" d="M229.468,98.534h-38.15c-5.544,0-10.039,4.495-10.039,10.039v38.862c0,5.544,4.495,10.039,10.039,10.039
				h38.15c5.544,0,10.039-4.495,10.039-10.039v-38.862C239.507,103.028,235.013,98.534,229.468,98.534z"/>
		</g>
	</g>
	<g>
		<g>
			<path class="st0" d="M229.468,97.034h-38.149c-6.363,0-11.539,5.176-11.539,11.539v38.861c0,6.363,5.176,11.539,11.539,11.539
				h38.149c6.363,0,11.539-5.176,11.539-11.539v-38.861C241.007,102.21,235.831,97.034,229.468,97.034z M238.007,147.434
				c0,4.708-3.831,8.539-8.539,8.539h-38.149c-4.708,0-8.539-3.831-8.539-8.539v-38.861c0-4.709,3.831-8.539,8.539-8.539h38.149
				c4.708,0,8.539,3.831,8.539,8.539V147.434z"/>
		</g>
	</g>
	<g>
		<g>
			<path class="st1" d="M147.082,98.534h-38.15c-5.544,0-10.039,4.495-10.039,10.039v38.862c0,5.544,4.495,10.039,10.039,10.039
				h38.15c5.544,0,10.039-4.495,10.039-10.039v-38.862C157.121,103.028,152.626,98.534,147.082,98.534z"/>
		</g>
	</g>
	<g>
		<g>
			<path class="st0" d="M147.082,97.034h-38.15c-6.363,0-11.539,5.176-11.539,11.539v38.861c0,6.363,5.176,11.539,11.539,11.539
				h38.15c6.363,0,11.539-5.176,11.539-11.539v-38.861C158.621,102.21,153.445,97.034,147.082,97.034z M155.621,147.434
				c0,4.708-3.831,8.539-8.539,8.539h-38.15c-4.708,0-8.539-3.831-8.539-8.539v-38.861c0-4.709,3.831-8.539,8.539-8.539h38.15
				c4.708,0,8.539,3.831,8.539,8.539V147.434z"/>
		</g>
	</g>
	<g>
		<g>
			<path class="st1" d="M64.696,98.534h-38.15c-5.544,0-10.039,4.495-10.039,10.039v38.862c0,5.544,4.495,10.039,10.039,10.039
				h38.15c5.544,0,10.039-4.495,10.039-10.039v-38.862C74.735,103.028,70.24,98.534,64.696,98.534z"/>
		</g>
	</g>
	<g>
		<g>
			<path class="st0" d="M64.696,97.034H26.546c-6.363,0-11.54,5.176-11.54,11.539v38.861c0,6.363,5.177,11.539,11.54,11.539h38.149
				c6.363,0,11.539-5.176,11.539-11.539v-38.861C76.235,102.21,71.059,97.034,64.696,97.034z M73.235,147.434
				c0,4.708-3.831,8.539-8.539,8.539H26.546c-4.708,0-8.54-3.831-8.54-8.539v-38.861c0-4.709,3.831-8.539,8.54-8.539h38.149
				c4.708,0,8.539,3.831,8.539,8.539V147.434z"/>
		</g>
	</g>
	<g>
		<g>
			<path class="st0" d="M145.507,114.974h-35c-0.829,0-1.5,0.671-1.5,1.5s0.671,1.5,1.5,1.5h35c0.829,0,1.5-0.671,1.5-1.5
				S146.335,114.974,145.507,114.974z"/>
		</g>
	</g>
	<g>
		<g>
			<path class="st0" d="M145.507,137.474h-35c-0.829,0-1.5,0.671-1.5,1.5s0.671,1.5,1.5,1.5h35c0.829,0,1.5-0.671,1.5-1.5
				S146.335,137.474,145.507,137.474z"/>
		</g>
	</g>
	<g>
		<g>
			<path class="st24" d="M147.082,16.534h-38.15c-5.544,0-10.039,4.495-10.039,10.039v38.862c0,5.544,4.495,10.039,10.039,10.039
				h38.15c5.544,0,10.039-4.495,10.039-10.039V26.573C157.121,21.028,152.626,16.534,147.082,16.534z"/>
		</g>
	</g>
	<g>
		<g>
			<path class="st0" d="M147.082,15.034h-38.15c-6.363,0-11.539,5.176-11.539,11.539v14.055c0,0.829,0.671,1.5,1.5,1.5
				c0.829,0,1.5-0.671,1.5-1.5V26.573c0-4.709,3.831-8.539,8.539-8.539h38.15c4.708,0,8.539,3.831,8.539,8.539v38.861
				c0,4.708-3.831,8.539-8.539,8.539h-38.15c-4.708,0-8.539-3.831-8.539-8.539V53.879c0-0.829-0.671-1.5-1.5-1.5
				c-0.829,0-1.5,0.671-1.5,1.5v11.555c0,6.363,5.176,11.539,11.539,11.539h38.15c6.363,0,11.539-5.176,11.539-11.539V26.573
				C158.621,20.21,153.445,15.034,147.082,15.034z"/>
		</g>
	</g>
	<g>
		<g>
			<path class="st0" d="M145.507,32.974h-35c-0.829,0-1.5,0.671-1.5,1.5s0.671,1.5,1.5,1.5h35c0.829,0,1.5-0.671,1.5-1.5
				S146.335,32.974,145.507,32.974z"/>
		</g>
	</g>
	<g>
		<g>
			<path class="st0" d="M145.507,55.474h-35c-0.829,0-1.5,0.671-1.5,1.5s0.671,1.5,1.5,1.5h35c0.829,0,1.5-0.671,1.5-1.5
				S146.335,55.474,145.507,55.474z"/>
		</g>
	</g>
	<g>
		<g>
			<path class="st2" d="M106.082,180.534h-38.15c-5.544,0-10.039,4.495-10.039,10.039v38.862c0,5.544,4.495,10.039,10.039,10.039
				h38.15c5.544,0,10.039-4.495,10.039-10.039v-38.862C116.121,185.028,111.626,180.534,106.082,180.534z"/>
		</g>
	</g>
	<g>
		<g>
			<path class="st0" d="M106.082,179.034H90.517c-0.829,0-1.5,0.671-1.5,1.5s0.671,1.5,1.5,1.5h15.565
				c4.708,0,8.539,3.831,8.539,8.539v38.861c0,4.708-3.831,8.539-8.539,8.539h-38.15c-4.708,0-8.539-3.831-8.539-8.539v-38.861
				c0-4.709,3.831-8.539,8.539-8.539h10.067c0.829,0,1.5-0.671,1.5-1.5s-0.671-1.5-1.5-1.5H67.932
				c-6.363,0-11.539,5.176-11.539,11.539v38.861c0,6.363,5.176,11.539,11.539,11.539h38.15c6.363,0,11.539-5.176,11.539-11.539
				v-38.861C117.621,184.21,112.445,179.034,106.082,179.034z"/>
		</g>
	</g>
	<g>
		<g>
			<path class="st0" d="M104.507,196.974h-35c-0.829,0-1.5,0.671-1.5,1.5s0.671,1.5,1.5,1.5h35c0.829,0,1.5-0.671,1.5-1.5
				S105.335,196.974,104.507,196.974z"/>
		</g>
	</g>
	<g>
		<g>
			<path class="st0" d="M104.507,219.474h-35c-0.829,0-1.5,0.671-1.5,1.5s0.671,1.5,1.5,1.5h35c0.829,0,1.5-0.671,1.5-1.5
				S105.335,219.474,104.507,219.474z"/>
		</g>
	</g>
	<g>
		<g>
			<path class="st2" d="M188.082,180.534h-38.15c-5.544,0-10.039,4.495-10.039,10.039v38.862c0,5.544,4.495,10.039,10.039,10.039
				h38.15c5.544,0,10.039-4.495,10.039-10.039v-38.862C198.121,185.028,193.626,180.534,188.082,180.534z"/>
		</g>
	</g>
	<g>
		<g>
			<path class="st0" d="M188.082,179.034h-38.15c-6.363,0-11.539,5.176-11.539,11.539v38.861c0,6.363,5.176,11.539,11.539,11.539
				h38.15c6.363,0,11.539-5.176,11.539-11.539v-38.861C199.621,184.21,194.445,179.034,188.082,179.034z M196.621,229.434
				c0,4.708-3.831,8.539-8.539,8.539h-38.15c-4.708,0-8.539-3.831-8.539-8.539v-38.861c0-4.709,3.831-8.539,8.539-8.539h38.15
				c4.708,0,8.539,3.831,8.539,8.539V229.434z"/>
		</g>
	</g>
	<g>
		<g>
			<path class="st0" d="M186.507,196.974h-35c-0.829,0-1.5,0.671-1.5,1.5s0.671,1.5,1.5,1.5h35c0.829,0,1.5-0.671,1.5-1.5
				S187.335,196.974,186.507,196.974z"/>
		</g>
	</g>
	<g>
		<g>
			<path class="st0" d="M186.507,219.474h-35c-0.829,0-1.5,0.671-1.5,1.5s0.671,1.5,1.5,1.5h35c0.829,0,1.5-0.671,1.5-1.5
				S187.335,219.474,186.507,219.474z"/>
		</g>
	</g>
	<g>
		<g>
			<path class="st0" d="M62.507,114.974h-35c-0.829,0-1.5,0.671-1.5,1.5s0.671,1.5,1.5,1.5h35c0.829,0,1.5-0.671,1.5-1.5
				S63.335,114.974,62.507,114.974z"/>
		</g>
	</g>
	<g>
		<g>
			<path class="st0" d="M62.507,137.474h-35c-0.829,0-1.5,0.671-1.5,1.5s0.671,1.5,1.5,1.5h35c0.829,0,1.5-0.671,1.5-1.5
				S63.335,137.474,62.507,137.474z"/>
		</g>
	</g>
	<g>
		<g>
			<path class="st0" d="M227.507,114.974h-35c-0.829,0-1.5,0.671-1.5,1.5s0.671,1.5,1.5,1.5h35c0.829,0,1.5-0.671,1.5-1.5
				S228.335,114.974,227.507,114.974z"/>
		</g>
	</g>
	<g>
		<g>
			<path class="st0" d="M227.507,137.474h-35c-0.829,0-1.5,0.671-1.5,1.5s0.671,1.5,1.5,1.5h35c0.829,0,1.5-0.671,1.5-1.5
				S228.335,137.474,227.507,137.474z"/>
		</g>
	</g>
	<g>
		<g>
			<path class="st25" d="M229.467,100.033h-15c4.71,0,8.54,3.83,8.54,8.54v6.4h4.5c0.83,0,1.5,0.67,1.5,1.5s-0.67,1.5-1.5,1.5h-4.5
				v19.5h4.5c0.83,0,1.5,0.67,1.5,1.5s-0.67,1.5-1.5,1.5h-4.5v6.96c0,4.71-3.83,8.54-8.54,8.54h15c4.71,0,8.54-3.83,8.54-8.54
				v-38.86C238.007,103.863,234.177,100.033,229.467,100.033z"/>
		</g>
	</g>
	<g>
		<g>
			<path class="st13" d="M147.077,18.033h-15c4.71,0,8.54,3.83,8.54,8.54v6.4h4.89c0.83,0,1.5,0.67,1.5,1.5s-0.67,1.5-1.5,1.5h-4.89
				v19.5h4.89c0.83,0,1.5,0.67,1.5,1.5s-0.67,1.5-1.5,1.5h-4.89v6.96c0,4.71-3.83,8.54-8.54,8.54h15c4.71,0,8.54-3.83,8.54-8.54
				v-38.86C155.617,21.863,151.787,18.033,147.077,18.033z"/>
		</g>
	</g>
	<g>
		<g>
			<path class="st20" d="M188.077,182.033h-15c4.71,0,8.54,3.83,8.54,8.54v6.4h4.89c0.83,0,1.5,0.67,1.5,1.5s-0.67,1.5-1.5,1.5
				h-4.89v19.5h4.89c0.83,0,1.5,0.67,1.5,1.5s-0.67,1.5-1.5,1.5h-4.89v6.96c0,4.71-3.83,8.54-8.54,8.54h15
				c4.71,0,8.54-3.83,8.54-8.54v-38.86C196.617,185.863,192.787,182.033,188.077,182.033z"/>
		</g>
	</g>
</g>
</svg>
