<?xml version="1.0" encoding="utf-8"?>
<!-- Generator: Adobe Illustrator 22.0.1, SVG Export Plug-In . SVG Version: 6.00 Build 0)  -->
<svg version="1.1" id="Layer_1" xmlns="http://www.w3.org/2000/svg" xmlns:xlink="http://www.w3.org/1999/xlink" x="0px" y="0px"
	 viewBox="0 0 256 256" style="enable-background:new 0 0 256 256;" xml:space="preserve">
<style type="text/css">
	.st0{fill:#3A312A;}
	.st1{fill:#F16C7A;}
	.st2{fill:#D7E057;}
	.st3{fill:#F8E4C8;}
	.st4{fill:#89C4DB;}
	.st5{fill-rule:evenodd;clip-rule:evenodd;fill:#F8E4C8;}
	.st6{fill:#87796F;}
	.st7{fill:#D4DB56;}
	.st8{fill:#F59689;}
	.st9{fill:#6CA6BE;}
	.st10{fill:#695B51;}
	.st11{fill:#F7E3C7;}
	.st12{fill:#8AC6DD;}
	.st13{fill:#6CA8BF;}
	.st14{fill:#D6DF58;}
	.st15{fill:#FAE6CA;}
	.st16{fill:#EF6D7A;}
	.st17{fill:#DDC9AC;}
	.st18{fill:#D24E5C;}
	.st19{fill:#6A5C52;}
	.st20{fill:#B9C239;}
	.st21{fill:#FCE8CB;}
	.st22{fill:#DECAAD;}
	.st23{fill:#D5DE58;}
	.st24{fill:#8AC5DC;}
	.st25{fill:#D34E5C;}
	.st26{fill:#ED6E7A;}
	.st27{fill:#B8C136;}
</style>
<g>
	<g>
		<g>
			<path class="st0" d="M128.086,34.813c-0.829,0-1.5,0.671-1.5,1.5V220.02c0,0.829,0.671,1.5,1.5,1.5c0.829,0,1.5-0.671,1.5-1.5
				V36.313C129.586,35.484,128.915,34.813,128.086,34.813z"/>
		</g>
	</g>
	<g>
		<g>
			<path class="st2" d="M47.997,26.345c-0.974,11.564-13.024,13.39-13.024,13.39c10.347,0.487,12.925,14.059,12.925,14.059
				c0.221-9.677,13.321-14.202,13.321-14.202C51.406,39.004,47.997,26.345,47.997,26.345z"/>
		</g>
	</g>
	<g>
		<g>
			<path class="st0" d="M61.309,38.094C52.704,37.58,49.477,26.07,49.445,25.954c-0.191-0.703-0.862-1.163-1.583-1.102
				c-0.725,0.066-1.298,0.642-1.359,1.367c-0.86,10.215-11.313,11.964-11.754,12.033c-0.763,0.115-1.313,0.79-1.273,1.561
				c0.04,0.77,0.657,1.384,1.428,1.421c9.028,0.425,11.498,12.718,11.522,12.842c0.137,0.711,0.759,1.217,1.472,1.217
				c0.042,0,0.084-0.001,0.126-0.005c0.764-0.064,1.357-0.693,1.375-1.459c0.195-8.509,12.192-12.777,12.313-12.819
				c0.675-0.235,1.092-0.914,0.994-1.623C62.606,38.678,62.023,38.137,61.309,38.094z M47.743,48.44
				c-1.357-3.13-3.708-6.907-7.586-8.876c2.931-1.405,6.409-3.913,8.202-8.273c1.551,3.071,4.2,6.88,8.334,8.723
				C53.685,41.653,49.769,44.418,47.743,48.44z"/>
		</g>
	</g>
	<g>
		<g>
			<path class="st2" d="M26.299,43.326c-0.689,8.179-9.212,9.47-9.212,9.47c7.318,0.344,9.142,9.944,9.142,9.944
				c0.156-6.844,9.422-10.045,9.422-10.045C28.709,52.28,26.299,43.326,26.299,43.326z"/>
		</g>
	</g>
	<g>
		<g>
			<path class="st0" d="M35.74,51.198c-5.766-0.345-7.972-8.186-7.994-8.265c-0.19-0.702-0.855-1.167-1.582-1.102
				c-0.726,0.065-1.299,0.642-1.36,1.368c-0.579,6.871-7.646,8.067-7.942,8.114c-0.763,0.115-1.313,0.79-1.273,1.561
				c0.04,0.77,0.657,1.384,1.428,1.421c6.035,0.284,7.723,8.644,7.739,8.726c0.135,0.713,0.759,1.22,1.473,1.22
				c0.041,0,0.083-0.001,0.125-0.005c0.765-0.063,1.358-0.694,1.376-1.461c0.13-5.709,8.331-8.634,8.412-8.662
				c0.676-0.234,1.094-0.913,0.996-1.622C37.039,51.782,36.455,51.241,35.74,51.198z M26.156,57.993
				c-0.924-1.885-2.34-3.947-4.447-5.28c1.856-1.041,3.697-2.63,4.871-4.916c1.057,1.874,2.654,3.954,4.941,5.224
				C29.67,54.121,27.532,55.76,26.156,57.993z"/>
		</g>
	</g>
	<g>
		<g>
			<path class="st2" d="M26.299,16.668c-0.689,8.179-9.212,9.471-9.212,9.471c7.318,0.344,9.142,9.944,9.142,9.944
				c0.156-6.845,9.422-10.045,9.422-10.045C28.709,25.622,26.299,16.668,26.299,16.668z"/>
		</g>
	</g>
	<g>
		<g>
			<path class="st0" d="M35.74,24.54c-5.766-0.345-7.972-8.185-7.993-8.264c-0.19-0.702-0.855-1.169-1.582-1.102
				c-0.726,0.065-1.299,0.642-1.36,1.368c-0.579,6.871-7.646,8.067-7.942,8.114c-0.763,0.115-1.313,0.79-1.273,1.561
				c0.04,0.77,0.657,1.384,1.428,1.421c6.035,0.284,7.723,8.644,7.739,8.726c0.135,0.712,0.759,1.22,1.472,1.22
				c0.042,0,0.083-0.001,0.125-0.005c0.765-0.063,1.358-0.694,1.376-1.461c0.13-5.709,8.332-8.634,8.412-8.662
				c0.677-0.234,1.094-0.913,0.996-1.622C37.039,25.125,36.455,24.583,35.74,24.54z M26.156,31.335
				c-0.924-1.886-2.34-3.947-4.447-5.28c1.856-1.041,3.697-2.63,4.871-4.916c1.057,1.874,2.654,3.954,4.941,5.223
				C29.67,27.463,27.532,29.103,26.156,31.335z"/>
		</g>
	</g>
	<g>
		<g>
			<path class="st0" d="M225.313,127.086L129.147,30.92c-0.586-0.586-1.535-0.586-2.121,0l-96.167,96.167
				c-0.586,0.585-0.586,1.536,0,2.121l96.167,96.167c0.293,0.293,0.677,0.439,1.06,0.439c0.384,0,0.768-0.146,1.061-0.439
				l45.937-45.937c0.586-0.585,0.586-1.536,0-2.121c-0.586-0.586-1.535-0.586-2.121,0l-44.877,44.876l-94.045-94.045l94.045-94.045
				l94.045,94.045l-39.837,39.837c-0.586,0.585-0.586,1.536,0,2.121c0.586,0.586,1.535,0.586,2.121,0l40.898-40.898
				C225.899,128.622,225.899,127.672,225.313,127.086z"/>
		</g>
	</g>
	<g>
		<g>
			<circle class="st24" cx="128.086" cy="42.736" r="25.411"/>
		</g>
	</g>
	<g>
		<g>
			<path class="st0" d="M128.086,15.825c-14.839,0-26.911,12.072-26.911,26.911c0,14.839,12.072,26.911,26.911,26.911
				c14.838,0,26.911-12.072,26.911-26.911C154.997,27.897,142.925,15.825,128.086,15.825z M128.086,66.647
				c-13.184,0-23.911-10.727-23.911-23.911s10.727-23.911,23.911-23.911c13.185,0,23.911,10.726,23.911,23.911
				S141.271,66.647,128.086,66.647z"/>
		</g>
	</g>
	<g>
		<g>
			<circle class="st24" cx="128.086" cy="213.736" r="25.411"/>
		</g>
	</g>
	<g>
		<g>
			<path class="st0" d="M128.086,186.825c-14.839,0-26.911,12.072-26.911,26.911c0,14.839,12.072,26.911,26.911,26.911
				c14.838,0,26.911-12.072,26.911-26.911C154.997,198.897,142.925,186.825,128.086,186.825z M128.086,237.647
				c-13.184,0-23.911-10.727-23.911-23.911s10.727-23.911,23.911-23.911c13.185,0,23.911,10.726,23.911,23.911
				S141.271,237.647,128.086,237.647z"/>
		</g>
	</g>
	<g>
		<g>
			<path class="st0" d="M219.94,126.667H88.419c-0.829,0-1.5,0.671-1.5,1.5s0.671,1.5,1.5,1.5H219.94c0.829,0,1.5-0.671,1.5-1.5
				S220.769,126.667,219.94,126.667z"/>
		</g>
	</g>
	<g>
		<g>
			<path class="st0" d="M75.299,126.667H36.233c-0.829,0-1.5,0.671-1.5,1.5s0.671,1.5,1.5,1.5h39.066c0.829,0,1.5-0.671,1.5-1.5
				S76.127,126.667,75.299,126.667z"/>
		</g>
	</g>
	<g>
		<g>
			
				<ellipse transform="matrix(0.2669 -0.9637 0.9637 0.2669 33.006 299.724)" class="st24" cx="213.517" cy="128.167" rx="25.411" ry="25.411"/>
		</g>
	</g>
	<g>
		<g>
			<path class="st0" d="M213.517,101.256c-14.839,0-26.911,12.072-26.911,26.911c0,14.839,12.072,26.911,26.911,26.911
				c14.838,0,26.911-12.072,26.911-26.911C240.428,113.328,228.355,101.256,213.517,101.256z M213.517,152.078
				c-13.185,0-23.911-10.727-23.911-23.911s10.727-23.911,23.911-23.911s23.911,10.726,23.911,23.911
				S226.702,152.078,213.517,152.078z"/>
		</g>
	</g>
	<g>
		<g>
			
				<ellipse transform="matrix(0.2669 -0.9637 0.9637 0.2669 -92.3482 134.9287)" class="st24" cx="42.517" cy="128.167" rx="25.411" ry="25.411"/>
		</g>
	</g>
	<g>
		<g>
			<path class="st0" d="M42.517,101.256c-14.839,0-26.911,12.072-26.911,26.911c0,14.839,12.072,26.911,26.911,26.911
				c14.838,0,26.911-12.072,26.911-26.911C69.428,113.328,57.355,101.256,42.517,101.256z M42.517,152.078
				c-13.185,0-23.911-10.727-23.911-23.911s10.727-23.911,23.911-23.911c13.185,0,23.911,10.726,23.911,23.911
				S55.702,152.078,42.517,152.078z"/>
		</g>
	</g>
	<g>
		<g>
			
				<ellipse transform="matrix(0.9871 -0.1602 0.1602 0.9871 -18.8729 22.1718)" class="st3" cx="128.086" cy="128.147" rx="33.822" ry="33.822"/>
		</g>
	</g>
	<g>
		<g>
			<path class="st0" d="M128.086,92.825c-19.477,0-35.322,15.845-35.322,35.322s15.845,35.322,35.322,35.322
				c19.477,0,35.322-15.845,35.322-35.322S147.563,92.825,128.086,92.825z M128.086,160.469c-17.822,0-32.322-14.5-32.322-32.322
				s14.5-32.322,32.322-32.322c17.822,0,32.322,14.5,32.322,32.322S145.909,160.469,128.086,160.469z"/>
		</g>
	</g>
	<g>
		<g>
			<path class="st0" d="M128.086,103.301c-0.829,0-1.5,0.671-1.5,1.5v2.92c0,0.829,0.671,1.5,1.5,1.5c0.829,0,1.5-0.671,1.5-1.5
				v-2.92C129.586,103.972,128.915,103.301,128.086,103.301z"/>
		</g>
	</g>
	<g>
		<g>
			<path class="st0" d="M142.956,108.237c-0.663-0.496-1.603-0.359-2.099,0.305l-1.746,2.34c-0.496,0.664-0.359,1.604,0.305,2.099
				c0.269,0.201,0.584,0.298,0.896,0.298c0.457,0,0.909-0.208,1.203-0.603l1.746-2.34
				C143.757,109.672,143.62,108.732,142.956,108.237z"/>
		</g>
	</g>
	<g>
		<g>
			<path class="st0" d="M151.922,121.085c-0.236-0.793-1.068-1.244-1.865-1.011l-2.799,0.832c-0.794,0.236-1.247,1.071-1.011,1.865
				c0.194,0.651,0.791,1.073,1.438,1.073c0.141,0,0.285-0.021,0.428-0.063l2.799-0.832
				C151.706,122.714,152.158,121.879,151.922,121.085z"/>
		</g>
	</g>
	<g>
		<g>
			<path class="st0" d="M150.535,134.819l-2.741-1.007c-0.778-0.286-1.64,0.112-1.925,0.89c-0.286,0.778,0.113,1.64,0.89,1.925
				l2.741,1.007c0.171,0.063,0.346,0.093,0.518,0.093c0.611,0,1.185-0.376,1.408-0.983
				C151.711,135.967,151.313,135.105,150.535,134.819z"/>
		</g>
	</g>
	<g>
		<g>
			<path class="st0" d="M117.062,110.882l-1.746-2.34c-0.495-0.665-1.437-0.801-2.099-0.305c-0.664,0.495-0.801,1.435-0.305,2.099
				l1.746,2.34c0.294,0.395,0.746,0.603,1.203,0.603c0.312,0,0.627-0.097,0.896-0.298
				C117.421,112.486,117.558,111.546,117.062,110.882z"/>
		</g>
	</g>
	<g>
		<g>
			<path class="st0" d="M108.915,120.906l-2.799-0.832c-0.795-0.238-1.628,0.217-1.865,1.011c-0.236,0.794,0.217,1.629,1.011,1.865
				l2.799,0.832c0.142,0.042,0.286,0.063,0.428,0.063c0.647,0,1.244-0.422,1.438-1.073
				C110.161,121.977,109.708,121.142,108.915,120.906z"/>
		</g>
	</g>
	<g>
		<g>
			<path class="st0" d="M110.304,134.702c-0.285-0.778-1.147-1.176-1.925-0.89l-2.741,1.007c-0.777,0.286-1.176,1.147-0.89,1.925
				c0.223,0.607,0.797,0.983,1.408,0.983c0.172,0,0.347-0.03,0.518-0.093l2.741-1.007
				C110.191,136.342,110.59,135.48,110.304,134.702z"/>
		</g>
	</g>
	<g>
		<g>
			<path class="st23" d="M127.345,114.048c-7.173,0.38-12.933,6.462-12.933,13.652c0,3.463,1.297,6.628,3.421,9.033
				c2.016,2.281,3.289,5.082,3.818,8.058h12.867c0.529-2.975,1.81-5.777,3.818-8.049c2.132-2.413,3.421-5.57,3.421-9.041
				C141.757,119.908,135.229,113.635,127.345,114.048z"/>
		</g>
	</g>
	<g>
		<g>
			<path class="st0" d="M138.527,116.697c-3.05-2.895-7.054-4.364-11.262-4.146c-7.914,0.42-14.353,7.216-14.353,15.15
				c0,3.692,1.349,7.253,3.797,10.026c1.771,2.003,2.969,4.537,3.465,7.326c0.128,0.716,0.75,1.237,1.477,1.237h12.867
				c0.727,0,1.35-0.521,1.477-1.237c0.494-2.782,1.692-5.313,3.465-7.318c2.449-2.772,3.797-6.335,3.797-10.034
				C143.257,123.5,141.578,119.591,138.527,116.697z M137.212,135.749c-1.87,2.115-3.207,4.703-3.909,7.542h-10.438
				c-0.703-2.846-2.04-5.437-3.908-7.55c-1.964-2.224-3.046-5.08-3.046-8.04c0-6.365,5.165-11.818,11.512-12.154
				c3.378-0.178,6.591,1.004,9.039,3.327c2.448,2.322,3.795,5.458,3.795,8.828C140.257,130.667,139.176,133.525,137.212,135.749z"/>
		</g>
	</g>
	<g>
		<g>
			<path class="st6" d="M133.932,144.794h-11.691c-1.68,0-3.042,1.362-3.042,3.042v0.615c0,1.68,1.362,3.042,3.042,3.042h11.691
				c1.68,0,3.042-1.362,3.042-3.042v-0.615C136.974,146.156,135.612,144.794,133.932,144.794z"/>
		</g>
	</g>
	<g>
		<g>
			<path class="st0" d="M133.932,143.294h-11.691c-2.504,0-4.542,2.038-4.542,4.542v0.615c0,2.504,2.038,4.542,4.542,4.542h11.691
				c2.504,0,4.542-2.037,4.542-4.542v-0.615C138.474,145.332,136.436,143.294,133.932,143.294z M135.474,148.451
				c0,0.85-0.692,1.542-1.542,1.542h-11.691c-0.85,0-1.542-0.691-1.542-1.542v-0.615c0-0.85,0.692-1.542,1.542-1.542h11.691
				c0.85,0,1.542,0.692,1.542,1.542V148.451z"/>
		</g>
	</g>
	<g>
		<g>
			<path class="st13" d="M213.516,104.257c-2.62,0-5.14,0.42-7.5,1.21c9.53,3.15,16.41,12.14,16.41,22.7
				c0,10.56-6.88,19.55-16.41,22.7c2.36,0.79,4.88,1.21,7.5,1.21c13.19,0,23.91-10.73,23.91-23.91
				C237.426,114.987,226.706,104.257,213.516,104.257z"/>
		</g>
	</g>
</g>
</svg>
