<?xml version="1.0" encoding="utf-8"?>
<!-- Generator: Adobe Illustrator 22.0.1, SVG Export Plug-In . SVG Version: 6.00 Build 0)  -->
<svg version="1.1" id="Layer_1" xmlns="http://www.w3.org/2000/svg" xmlns:xlink="http://www.w3.org/1999/xlink" x="0px" y="0px"
	 viewBox="0 0 256 256" style="enable-background:new 0 0 256 256;" xml:space="preserve">
<style type="text/css">
	.st0{fill:#3A312A;}
	.st1{fill:#F16C7A;}
	.st2{fill:#D7E057;}
	.st3{fill:#F8E4C8;}
	.st4{fill:#89C4DB;}
	.st5{fill-rule:evenodd;clip-rule:evenodd;fill:#F8E4C8;}
	.st6{fill:#87796F;}
	.st7{fill:#D4DB56;}
	.st8{fill:#F59689;}
	.st9{fill:#6CA6BE;}
	.st10{fill:#695B51;}
	.st11{fill:#F7E3C7;}
	.st12{fill:#8AC6DD;}
	.st13{fill:#6CA8BF;}
	.st14{fill:#D6DF58;}
	.st15{fill:#FAE6CA;}
	.st16{fill:#EF6D7A;}
	.st17{fill:#DDC9AC;}
	.st18{fill:#D24E5C;}
	.st19{fill:#6A5C52;}
	.st20{fill:#B9C239;}
	.st21{fill:#FCE8CB;}
	.st22{fill:#DECAAD;}
	.st23{fill:#D5DE58;}
	.st24{fill:#8AC5DC;}
	.st25{fill:#D34E5C;}
	.st26{fill:#ED6E7A;}
	.st27{fill:#B8C136;}
</style>
<g>
	<g>
		<g>
			<path class="st12" d="M106.318,54.492H63.649c-5.246,0-9.499,4.253-9.499,9.499v42.669c0,5.246,4.253,9.499,9.499,9.499h42.669
				c5.246,0,9.499-4.253,9.499-9.499V63.991C115.817,58.745,111.564,54.492,106.318,54.492z"/>
		</g>
	</g>
	<g>
		<g>
			<path class="st0" d="M106.318,52.992h-42.67c-6.064,0-10.998,4.934-10.998,10.999v42.669c0,6.064,4.934,10.999,10.998,10.999
				h42.67c6.064,0,10.999-4.934,10.999-10.999V63.991C117.317,57.926,112.383,52.992,106.318,52.992z M114.317,106.66
				c0,4.411-3.588,7.999-7.999,7.999h-42.67c-4.41,0-7.998-3.588-7.998-7.999V63.991c0-4.411,3.588-7.999,7.998-7.999h42.67
				c4.411,0,7.999,3.588,7.999,7.999V106.66z"/>
		</g>
	</g>
	<g>
		<g>
			<path class="st1" d="M167.985,54.492h-42.669c-5.246,0-9.499,4.253-9.499,9.499v42.669c0,5.246,4.253,9.499,9.499,9.499h42.669
				c5.246,0,9.499-4.253,9.499-9.499V63.99C177.484,58.745,173.231,54.492,167.985,54.492z"/>
		</g>
	</g>
	<g>
		<g>
			<path class="st0" d="M167.984,52.992h-13.934c-0.828,0-1.5,0.671-1.5,1.5s0.672,1.5,1.5,1.5h13.934
				c4.411,0,7.999,3.588,7.999,7.998v42.67c0,4.411-3.588,7.999-7.999,7.999h-42.669c-4.41,0-7.998-3.588-7.998-7.999V63.99
				c0-4.41,3.588-7.998,7.998-7.998h15.935c0.828,0,1.5-0.671,1.5-1.5s-0.672-1.5-1.5-1.5h-15.935
				c-6.064,0-10.998,4.934-10.998,10.998v42.67c0,6.064,4.934,10.999,10.998,10.999h42.669c6.064,0,10.999-4.934,10.999-10.999
				V63.99C178.983,57.926,174.049,52.992,167.984,52.992z"/>
		</g>
	</g>
	<g>
		<g>
			<path class="st14" d="M229.651,54.492h-42.669c-5.246,0-9.499,4.253-9.499,9.499v42.669c0,5.246,4.253,9.499,9.499,9.499h42.669
				c5.246,0,9.499-4.253,9.499-9.499V63.991C239.15,58.745,234.897,54.492,229.651,54.492z"/>
		</g>
	</g>
	<g>
		<g>
			<path class="st0" d="M229.651,52.992h-42.669c-6.064,0-10.999,4.934-10.999,10.999v42.669c0,6.064,4.935,10.999,10.999,10.999
				h42.669c6.064,0,10.999-4.934,10.999-10.999V63.991C240.65,57.926,235.716,52.992,229.651,52.992z M237.65,106.66
				c0,4.411-3.588,7.999-7.999,7.999h-42.669c-4.411,0-7.999-3.588-7.999-7.999V63.991c0-4.411,3.588-7.999,7.999-7.999h42.669
				c4.411,0,7.999,3.588,7.999,7.999V106.66z"/>
		</g>
	</g>
	<g>
		<g>
			<path class="st12" d="M106.318,116.159H63.649c-5.246,0-9.499,4.253-9.499,9.499v42.669c0,5.246,4.253,9.499,9.499,9.499h42.669
				c5.246,0,9.499-4.253,9.499-9.499v-42.669C115.817,120.411,111.564,116.159,106.318,116.159z"/>
		</g>
	</g>
	<g>
		<g>
			<path class="st0" d="M106.318,114.659h-42.67c-6.064,0-10.998,4.934-10.998,10.999v13.709c0,0.828,0.672,1.5,1.5,1.5
				c0.828,0,1.5-0.672,1.5-1.5v-13.709c0-4.411,3.588-7.999,7.998-7.999h42.67c4.411,0,7.999,3.588,7.999,7.999v42.668
				c0,4.411-3.588,7.999-7.999,7.999h-42.67c-4.41,0-7.998-3.588-7.998-7.999v-15.71c0-0.828-0.672-1.5-1.5-1.5
				c-0.828,0-1.5,0.672-1.5,1.5v15.71c0,6.064,4.934,10.999,10.998,10.999h42.67c6.064,0,10.999-4.935,10.999-10.999v-42.668
				C117.317,119.593,112.383,114.659,106.318,114.659z"/>
		</g>
	</g>
	<g>
		<g>
			<path class="st1" d="M167.985,116.159h-42.669c-5.246,0-9.499,4.253-9.499,9.499v42.669c0,5.246,4.253,9.499,9.499,9.499h42.669
				c5.246,0,9.499-4.253,9.499-9.499v-42.669C177.484,120.411,173.231,116.159,167.985,116.159z"/>
		</g>
	</g>
	<g>
		<g>
			<path class="st0" d="M167.984,114.659h-42.669c-6.064,0-10.998,4.934-10.998,10.999v42.669c0,6.064,4.934,10.999,10.998,10.999
				h42.669c6.064,0,10.999-4.935,10.999-10.999v-42.669C178.983,119.593,174.049,114.659,167.984,114.659z M175.983,168.326
				c0,4.411-3.588,7.999-7.999,7.999h-42.669c-4.41,0-7.998-3.588-7.998-7.999v-42.669c0-4.411,3.588-7.999,7.998-7.999h42.669
				c4.411,0,7.999,3.588,7.999,7.999V168.326z"/>
		</g>
	</g>
	<g>
		<g>
			<path class="st14" d="M229.651,116.159h-42.669c-5.246,0-9.499,4.253-9.499,9.499v42.669c0,5.246,4.253,9.499,9.499,9.499h42.669
				c5.246,0,9.499-4.253,9.499-9.499v-42.669C239.15,120.411,234.897,116.159,229.651,116.159z"/>
		</g>
	</g>
	<g>
		<g>
			<path class="st0" d="M229.651,114.659h-42.669c-6.064,0-10.999,4.934-10.999,10.999v42.669c0,6.064,4.935,10.999,10.999,10.999
				h42.669c6.064,0,10.999-4.935,10.999-10.999v-42.669C240.65,119.593,235.716,114.659,229.651,114.659z M237.65,168.326
				c0,4.411-3.588,7.999-7.999,7.999h-42.669c-4.411,0-7.999-3.588-7.999-7.999v-42.669c0-4.411,3.588-7.999,7.999-7.999h42.669
				c4.411,0,7.999,3.588,7.999,7.999V168.326z"/>
		</g>
	</g>
	<g>
		<g>
			<path class="st12" d="M106.318,177.825H63.649c-5.246,0-9.499,4.253-9.499,9.499v42.669c0,5.246,4.253,9.499,9.499,9.499h42.669
				c5.246,0,9.499-4.253,9.499-9.499v-42.669C115.817,182.078,111.564,177.825,106.318,177.825z"/>
		</g>
	</g>
	<g>
		<g>
			<path class="st0" d="M106.318,176.325h-42.67c-6.064,0-10.998,4.935-10.998,10.999v42.669c0,6.064,4.934,10.999,10.998,10.999
				h42.67c6.064,0,10.999-4.935,10.999-10.999v-42.669C117.317,181.26,112.383,176.325,106.318,176.325z M114.317,229.993
				c0,4.411-3.588,7.999-7.999,7.999h-42.67c-4.41,0-7.998-3.588-7.998-7.999v-42.669c0-4.411,3.588-7.999,7.998-7.999h42.67
				c4.411,0,7.999,3.588,7.999,7.999V229.993z"/>
		</g>
	</g>
	<g>
		<g>
			<path class="st1" d="M167.985,177.825h-42.669c-5.246,0-9.499,4.253-9.499,9.499v42.669c0,5.246,4.253,9.499,9.499,9.499h42.669
				c5.246,0,9.499-4.253,9.499-9.499v-42.669C177.484,182.078,173.231,177.825,167.985,177.825z"/>
		</g>
	</g>
	<g>
		<g>
			<path class="st0" d="M167.984,176.325h-42.669c-6.064,0-10.998,4.935-10.998,10.999v42.669c0,6.064,4.934,10.999,10.998,10.999
				h42.669c6.064,0,10.999-4.935,10.999-10.999v-42.669C178.983,181.26,174.049,176.325,167.984,176.325z M175.983,229.993
				c0,4.411-3.588,7.999-7.999,7.999h-42.669c-4.41,0-7.998-3.588-7.998-7.999v-42.669c0-4.411,3.588-7.999,7.998-7.999h42.669
				c4.411,0,7.999,3.588,7.999,7.999V229.993z"/>
		</g>
	</g>
	<g>
		<g>
			<path class="st14" d="M229.651,177.825h-42.669c-5.246,0-9.499,4.253-9.499,9.499v42.669c0,5.246,4.253,9.499,9.499,9.499h42.669
				c5.246,0,9.499-4.253,9.499-9.499v-42.669C239.15,182.078,234.897,177.825,229.651,177.825z"/>
		</g>
	</g>
	<g>
		<g>
			<path class="st0" d="M229.651,176.325h-42.669c-6.064,0-10.999,4.935-10.999,10.999v42.669c0,6.064,4.935,10.999,10.999,10.999
				h42.669c6.064,0,10.999-4.935,10.999-10.999v-42.669C240.65,181.26,235.716,176.325,229.651,176.325z M237.65,229.993
				c0,4.411-3.588,7.999-7.999,7.999h-42.669c-4.411,0-7.999-3.588-7.999-7.999v-42.669c0-4.411,3.588-7.999,7.999-7.999h42.669
				c4.411,0,7.999,3.588,7.999,7.999V229.993z"/>
		</g>
	</g>
	<g>
		<g>
			<path class="st2" d="M47.561,26.19c-0.974,11.564-13.024,13.39-13.024,13.39c10.347,0.487,12.925,14.059,12.925,14.059
				c0.221-9.677,13.321-14.202,13.321-14.202C50.97,38.85,47.561,26.19,47.561,26.19z"/>
		</g>
	</g>
	<g>
		<g>
			<path class="st0" d="M60.873,37.939c-8.604-0.515-11.832-12.024-11.863-12.141c-0.19-0.702-0.848-1.158-1.584-1.102
				c-0.725,0.066-1.298,0.642-1.359,1.367C45.207,36.28,34.754,38.028,34.313,38.097c-0.763,0.115-1.313,0.79-1.273,1.561
				c0.04,0.77,0.657,1.384,1.428,1.421c9.027,0.425,11.498,12.718,11.521,12.842c0.138,0.711,0.76,1.217,1.473,1.217
				c0.042,0,0.084-0.001,0.126-0.005c0.765-0.064,1.357-0.693,1.375-1.459c0.193-8.509,12.191-12.777,12.313-12.819
				c0.676-0.235,1.092-0.914,0.994-1.623C62.171,38.523,61.587,37.982,60.873,37.939z M47.307,48.285
				c-1.356-3.131-3.708-6.907-7.586-8.876c2.931-1.405,6.408-3.913,8.201-8.272c1.551,3.071,4.2,6.88,8.334,8.722
				C53.248,41.498,49.333,44.263,47.307,48.285z"/>
		</g>
	</g>
	<g>
		<g>
			<path class="st2" d="M25.863,43.171c-0.689,8.179-9.212,9.471-9.212,9.471c7.318,0.344,9.142,9.944,9.142,9.944
				c0.156-6.844,9.422-10.045,9.422-10.045C28.273,52.125,25.863,43.171,25.863,43.171z"/>
		</g>
	</g>
	<g>
		<g>
			<path class="st0" d="M35.305,51.043c-5.767-0.345-7.973-8.186-7.995-8.265c-0.19-0.702-0.863-1.16-1.581-1.102
				c-0.726,0.065-1.3,0.643-1.361,1.368c-0.578,6.871-7.646,8.067-7.941,8.114c-0.763,0.115-1.313,0.79-1.273,1.561
				c0.04,0.77,0.657,1.384,1.428,1.421c6.035,0.284,7.723,8.644,7.738,8.725c0.136,0.713,0.759,1.22,1.473,1.22
				c0.041,0,0.083-0.001,0.124-0.005c0.766-0.063,1.359-0.694,1.377-1.461c0.13-5.709,8.332-8.633,8.412-8.661
				c0.677-0.234,1.094-0.913,0.997-1.622C36.603,51.627,36.019,51.086,35.305,51.043z M25.72,57.837
				c-0.924-1.885-2.34-3.947-4.447-5.279c1.855-1.041,3.697-2.63,4.87-4.916c1.058,1.874,2.655,3.954,4.941,5.223
				C29.234,53.966,27.096,55.606,25.72,57.837z"/>
		</g>
	</g>
	<g>
		<g>
			<path class="st2" d="M25.863,16.513c-0.689,8.179-9.212,9.471-9.212,9.471c7.318,0.344,9.142,9.944,9.142,9.944
				c0.156-6.845,9.422-10.045,9.422-10.045C28.273,25.468,25.863,16.513,25.863,16.513z"/>
		</g>
	</g>
	<g>
		<g>
			<path class="st0" d="M35.305,24.385c-5.767-0.345-7.973-8.186-7.995-8.265c-0.19-0.702-0.863-1.159-1.581-1.102
				c-0.726,0.065-1.3,0.643-1.361,1.368c-0.578,6.871-7.646,8.067-7.941,8.114c-0.763,0.115-1.313,0.79-1.273,1.561
				c0.04,0.77,0.657,1.384,1.428,1.421c6.035,0.284,7.723,8.644,7.738,8.726c0.136,0.713,0.759,1.22,1.473,1.22
				c0.041,0,0.083-0.001,0.124-0.005c0.766-0.063,1.359-0.694,1.377-1.461c0.13-5.709,8.332-8.634,8.413-8.662
				c0.676-0.234,1.093-0.913,0.996-1.622C36.603,24.97,36.019,24.428,35.305,24.385z M25.72,31.18
				c-0.924-1.885-2.34-3.947-4.447-5.279c1.855-1.042,3.697-2.63,4.87-4.917c1.058,1.874,2.655,3.954,4.942,5.224
				C29.235,27.309,27.096,28.948,25.72,31.18z"/>
		</g>
	</g>
	<g>
		<g>
			<path class="st20" d="M229.65,55.992h-15c4.41,0,8,3.59,8,8v42.67c0,4.41-3.59,8-8,8h15c4.41,0,8-3.59,8-8v-42.67
				C237.65,59.582,234.06,55.992,229.65,55.992z"/>
		</g>
	</g>
	<g>
		<g>
			<path class="st20" d="M229.65,117.662h-15c4.41,0,8,3.58,8,8v42.66c0,4.42-3.59,8-8,8h15c4.41,0,8-3.58,8-8v-42.66
				C237.65,121.242,234.06,117.662,229.65,117.662z"/>
		</g>
	</g>
	<g>
		<g>
			<path class="st20" d="M229.65,179.322h-15c4.41,0,8,3.59,8,8v42.67c0,4.41-3.59,8-8,8h15c4.41,0,8-3.59,8-8v-42.67
				C237.65,182.912,234.06,179.322,229.65,179.322z"/>
		</g>
	</g>
</g>
</svg>
