<?xml version="1.0" encoding="utf-8"?>
<!-- Generator: Adobe Illustrator 22.0.1, SVG Export Plug-In . SVG Version: 6.00 Build 0)  -->
<svg version="1.1" id="Layer_1" xmlns="http://www.w3.org/2000/svg" xmlns:xlink="http://www.w3.org/1999/xlink" x="0px" y="0px"
	 viewBox="0 0 256 256" style="enable-background:new 0 0 256 256;" xml:space="preserve">
<style type="text/css">
	.st0{fill:#3A312A;}
	.st1{fill:#F16C7A;}
	.st2{fill:#D7E057;}
	.st3{fill:#F8E4C8;}
	.st4{fill:#89C4DB;}
	.st5{fill-rule:evenodd;clip-rule:evenodd;fill:#F8E4C8;}
	.st6{fill:#87796F;}
	.st7{fill:#D4DB56;}
	.st8{fill:#F59689;}
	.st9{fill:#6CA6BE;}
	.st10{fill:#695B51;}
	.st11{fill:#F7E3C7;}
	.st12{fill:#8AC6DD;}
	.st13{fill:#6CA8BF;}
	.st14{fill:#D6DF58;}
	.st15{fill:#FAE6CA;}
	.st16{fill:#EF6D7A;}
	.st17{fill:#DDC9AC;}
	.st18{fill:#D24E5C;}
	.st19{fill:#6A5C52;}
	.st20{fill:#B9C239;}
	.st21{fill:#FCE8CB;}
	.st22{fill:#DECAAD;}
	.st23{fill:#D5DE58;}
	.st24{fill:#8AC5DC;}
	.st25{fill:#D34E5C;}
	.st26{fill:#ED6E7A;}
	.st27{fill:#B8C136;}
</style>
<g>
	<g>
		<g>
			<path class="st2" d="M226.493,26.219c-0.974,11.564-13.024,13.389-13.024,13.389c10.347,0.487,12.925,14.059,12.925,14.059
				c0.221-9.677,13.321-14.202,13.321-14.202C229.901,38.878,226.493,26.219,226.493,26.219z"/>
		</g>
	</g>
	<g>
		<g>
			<path class="st0" d="M239.805,37.968c-8.604-0.514-11.832-12.024-11.863-12.14c-0.19-0.702-0.855-1.162-1.584-1.102
				c-0.725,0.066-1.298,0.642-1.359,1.367c-0.86,10.215-11.313,11.963-11.755,12.032c-0.763,0.115-1.313,0.79-1.273,1.56
				c0.04,0.77,0.657,1.384,1.428,1.421c9.028,0.425,11.499,12.718,11.522,12.842c0.138,0.711,0.76,1.217,1.473,1.217
				c0.042,0,0.084-0.002,0.126-0.005c0.765-0.064,1.357-0.693,1.375-1.459c0.193-8.508,12.191-12.777,12.313-12.819
				c0.676-0.235,1.092-0.914,0.994-1.622C241.102,38.552,240.519,38.011,239.805,37.968z M226.238,48.314
				c-1.356-3.131-3.709-6.908-7.587-8.877c2.931-1.404,6.409-3.913,8.202-8.272c1.551,3.071,4.199,6.88,8.334,8.722
				C232.18,41.527,228.265,44.292,226.238,48.314z"/>
		</g>
	</g>
	<g>
		<g>
			<path class="st2" d="M204.794,43.199c-0.689,8.179-9.213,9.471-9.213,9.471c7.318,0.344,9.142,9.944,9.142,9.944
				c0.156-6.844,9.422-10.045,9.422-10.045C207.205,52.154,204.794,43.199,204.794,43.199z"/>
		</g>
	</g>
	<g>
		<g>
			<path class="st0" d="M214.235,51.071c-5.766-0.345-7.972-8.185-7.994-8.264c-0.188-0.702-0.863-1.164-1.581-1.102
				c-0.726,0.065-1.3,0.643-1.361,1.368c-0.578,6.87-7.646,8.066-7.941,8.113c-0.763,0.115-1.313,0.79-1.273,1.561
				c0.04,0.77,0.657,1.384,1.428,1.421c6.034,0.284,7.723,8.644,7.738,8.726c0.136,0.713,0.759,1.22,1.473,1.22
				c0.041,0,0.083-0.001,0.125-0.005c0.765-0.063,1.358-0.694,1.376-1.461c0.13-5.709,8.331-8.634,8.412-8.662
				c0.676-0.234,1.093-0.913,0.996-1.622C215.534,51.656,214.949,51.114,214.235,51.071z M204.65,57.867
				c-0.924-1.886-2.339-3.947-4.446-5.28c1.855-1.042,3.697-2.63,4.87-4.917c1.058,1.873,2.654,3.955,4.941,5.224
				C208.166,53.995,206.027,55.635,204.65,57.867z"/>
		</g>
	</g>
	<g>
		<g>
			<path class="st2" d="M204.794,16.542c-0.689,8.179-9.213,9.471-9.213,9.471c7.318,0.344,9.142,9.944,9.142,9.944
				c0.156-6.845,9.422-10.045,9.422-10.045C207.205,25.496,204.794,16.542,204.794,16.542z"/>
		</g>
	</g>
	<g>
		<g>
			<path class="st0" d="M214.235,24.414c-5.766-0.345-7.972-8.186-7.994-8.265c-0.188-0.702-0.863-1.163-1.581-1.102
				c-0.726,0.065-1.3,0.642-1.361,1.368c-0.578,6.871-7.646,8.067-7.941,8.114c-0.763,0.115-1.313,0.79-1.273,1.56
				c0.04,0.77,0.657,1.384,1.428,1.421c6.034,0.284,7.723,8.644,7.738,8.726c0.136,0.713,0.759,1.22,1.473,1.22
				c0.041,0,0.083-0.001,0.125-0.005c0.765-0.063,1.358-0.694,1.376-1.461c0.13-5.71,8.331-8.634,8.412-8.662
				c0.676-0.234,1.093-0.913,0.996-1.622C215.534,24.998,214.949,24.457,214.235,24.414z M204.65,31.209
				c-0.924-1.885-2.34-3.947-4.446-5.28c1.855-1.041,3.697-2.629,4.87-4.916c1.058,1.873,2.654,3.954,4.941,5.223
				C208.166,27.337,206.026,28.977,204.65,31.209z"/>
		</g>
	</g>
	<g>
		<g>
			<path class="st6" d="M148.279,111.472l-65.133,0c-4.429,0-8.019,3.59-8.019,8.019c0,4.428,3.59,8.018,8.019,8.018l19.393,0
				l13.169,0l32.571,0c-0.459-2.606-0.696-5.286-0.696-8.019C147.583,116.758,147.82,114.078,148.279,111.472z"/>
		</g>
	</g>
	<g>
		<g>
			<path class="st0" d="M149.083,119.49c0-2.61,0.227-5.221,0.674-7.758c0.076-0.436-0.044-0.885-0.328-1.225
				c-0.285-0.339-0.706-0.536-1.149-0.536H83.146c0,0,0,0-0.001,0c-2.542,0-4.933,0.99-6.729,2.788
				c-1.798,1.798-2.788,4.189-2.788,6.731c0,5.248,4.27,9.518,9.519,9.519h19.393c0.828,0,1.5-0.671,1.5-1.5s-0.672-1.5-1.5-1.5
				H83.146c-3.595,0-6.519-2.925-6.519-6.519c0-1.741,0.678-3.378,1.909-4.609c1.231-1.231,2.867-1.909,4.608-1.909h63.382
				c-0.294,2.148-0.443,4.334-0.443,6.518c0,2.185,0.149,4.37,0.443,6.519h-30.818c-0.828,0-1.5,0.671-1.5,1.5s0.672,1.5,1.5,1.5
				h32.571c0.443,0,0.864-0.196,1.149-0.536c0.284-0.34,0.404-0.788,0.328-1.225C149.31,124.71,149.083,122.1,149.083,119.49z"/>
		</g>
	</g>
	<g>
		<g>
			<path class="st2" d="M147.583,119.49c0-6.153,1.199-12.032,3.383-17.4h-5.153c-3.665,0-6.641,2.976-6.641,6.641v21.516
				c0,3.665,2.976,6.642,6.641,6.641h5.153C148.782,131.522,147.583,125.643,147.583,119.49z"/>
		</g>
	</g>
	<g>
		<g>
			<path class="st0" d="M149.083,119.49c0-5.833,1.102-11.497,3.273-16.834c0.188-0.463,0.134-0.988-0.146-1.403
				c-0.278-0.414-0.745-0.663-1.244-0.663h-5.153c-4.489,0-8.142,3.652-8.142,8.141v21.516c0,4.489,3.652,8.142,8.142,8.142h5.153
				c0.499,0,0.966-0.248,1.244-0.662c0.279-0.415,0.333-0.941,0.146-1.403C150.185,130.987,149.083,125.323,149.083,119.49z
				 M148.792,135.39h-2.979c-2.835,0-5.142-2.307-5.142-5.142v-21.516c0-2.835,2.307-5.141,5.142-5.141h2.979
				c-1.799,5.085-2.709,10.423-2.709,15.899C146.083,124.966,146.993,130.305,148.792,135.39z"/>
		</g>
	</g>
	<g>
		<g>
			
				<ellipse transform="matrix(0.1891 -0.982 0.982 0.1891 39.9073 287.3062)" class="st1" cx="193.911" cy="119.49" rx="46.326" ry="46.326"/>
		</g>
	</g>
	<g>
		<g>
			<path class="st0" d="M193.911,71.664c-26.371,0-47.825,21.455-47.825,47.826c0,26.371,21.454,47.826,47.825,47.826
				s47.826-21.455,47.826-47.826C241.737,93.119,220.282,71.664,193.911,71.664z M193.911,164.316
				c-24.717,0-44.825-20.109-44.825-44.826c0-24.717,20.108-44.826,44.825-44.826s44.826,20.109,44.826,44.826
				C238.737,144.207,218.628,164.316,193.911,164.316z"/>
		</g>
	</g>
	<g>
		<g>
			
				<ellipse transform="matrix(0.7071 -0.7071 0.7071 0.7071 -27.6969 172.1139)" class="st12" cx="193.911" cy="119.49" rx="34.498" ry="34.498"/>
		</g>
	</g>
	<g>
		<g>
			<path class="st0" d="M193.911,83.492c-19.85,0-35.998,16.148-35.998,35.998s16.148,35.998,35.998,35.998
				s35.998-16.148,35.998-35.998S213.761,83.492,193.911,83.492z M193.911,152.488c-18.195,0-32.998-14.803-32.998-32.998
				s14.803-32.998,32.998-32.998s32.998,14.803,32.998,32.998S212.106,152.488,193.911,152.488z"/>
		</g>
	</g>
	<g>
		<g>
			<path class="st0" d="M205.301,115.216c-0.708-0.43-1.631-0.204-2.061,0.505l-39.729,65.552l-44.878,16.586l-48.407-25.686
				c-0.622-0.329-1.386-0.184-1.842,0.349l-30,35c-0.539,0.629-0.467,1.576,0.162,2.115c0.283,0.243,0.63,0.361,0.976,0.361
				c0.423,0,0.843-0.178,1.14-0.524l29.219-34.088l47.939,25.438c0.379,0.201,0.823,0.23,1.223,0.082l46-17
				c0.318-0.118,0.588-0.34,0.764-0.63l40-66C206.235,116.568,206.01,115.646,205.301,115.216z"/>
		</g>
	</g>
	<g>
		<g>
			<circle class="st1" cx="69.523" cy="173.499" r="8"/>
		</g>
	</g>
	<g>
		<g>
			<path class="st0" d="M69.523,163.999c-5.238,0-9.5,4.262-9.5,9.5c0,5.238,4.262,9.5,9.5,9.5s9.5-4.262,9.5-9.5
				C79.023,168.261,74.762,163.999,69.523,163.999z M69.523,179.999c-3.584,0-6.5-2.916-6.5-6.5c0-3.584,2.916-6.5,6.5-6.5
				s6.5,2.916,6.5,6.5C76.023,177.083,73.107,179.999,69.523,179.999z"/>
		</g>
	</g>
	<g>
		<g>
			<path class="st2" d="M124.384,193.639c-8.563-6.522-18.242,3.158-11.72,11.721C121.226,211.881,130.906,202.202,124.384,193.639z
				"/>
		</g>
	</g>
	<g>
		<g>
			<path class="st0" d="M125.577,192.73c-0.082-0.107-0.178-0.203-0.284-0.285c-5.157-3.926-10.487-2.662-13.487,0.336
				c-2.997,2.997-4.264,8.33-0.336,13.487c0.082,0.107,0.178,0.203,0.284,0.285c2.289,1.743,4.611,2.463,6.749,2.463
				c2.68,0,5.07-1.132,6.737-2.799C128.238,203.219,129.505,197.887,125.577,192.73z M123.119,204.095
				c-2.043,2.045-5.721,2.877-9.385,0.192c-2.684-3.663-1.852-7.34,0.193-9.385c2.044-2.044,5.722-2.877,9.385-0.192
				C125.996,198.373,125.164,202.051,123.119,204.095z"/>
		</g>
	</g>
	<g>
		<g>
			<circle class="st12" cx="164.523" cy="182.499" r="8"/>
		</g>
	</g>
	<g>
		<g>
			<path class="st0" d="M164.523,172.999c-5.238,0-9.5,4.262-9.5,9.5c0,5.238,4.262,9.5,9.5,9.5s9.5-4.262,9.5-9.5
				C174.023,177.261,169.762,172.999,164.523,172.999z M164.523,188.999c-3.584,0-6.5-2.916-6.5-6.5c0-3.584,2.916-6.5,6.5-6.5
				s6.5,2.916,6.5,6.5C171.023,186.083,168.107,188.999,164.523,188.999z"/>
		</g>
	</g>
	<g>
		<g>
			<circle class="st6" cx="204.523" cy="116.499" r="8"/>
		</g>
	</g>
	<g>
		<g>
			<path class="st0" d="M204.523,106.999c-5.238,0-9.5,4.262-9.5,9.5c0,5.238,4.262,9.5,9.5,9.5s9.5-4.262,9.5-9.5
				C214.023,111.261,209.762,106.999,204.523,106.999z M204.523,122.999c-3.584,0-6.5-2.916-6.5-6.5c0-3.584,2.916-6.5,6.5-6.5
				s6.5,2.916,6.5,6.5C211.023,120.083,208.107,122.999,204.523,122.999z"/>
		</g>
	</g>
	<g>
		<g>
			<path class="st0" d="M238.398,226.624h-209.5v-210.5c0-0.829-0.672-1.5-1.5-1.5s-1.5,0.671-1.5,1.5v212
				c0,0.829,0.672,1.5,1.5,1.5h211c0.828,0,1.5-0.671,1.5-1.5C239.898,227.295,239.227,226.624,238.398,226.624z"/>
		</g>
	</g>
	<g>
		<g>
			<path class="st0" d="M27.398,226.624c-0.828,0-1.5,0.671-1.5,1.5v11.75c0,0.829,0.672,1.5,1.5,1.5s1.5-0.671,1.5-1.5v-11.75
				C28.898,227.295,28.227,226.624,27.398,226.624z"/>
		</g>
	</g>
	<g>
		<g>
			<path class="st0" d="M60.868,226.624c-0.828,0-1.5,0.671-1.5,1.5v11.75c0,0.829,0.672,1.5,1.5,1.5s1.5-0.671,1.5-1.5v-11.75
				C62.368,227.295,61.696,226.624,60.868,226.624z"/>
		</g>
	</g>
	<g>
		<g>
			<path class="st0" d="M94.328,226.624c-0.828,0-1.5,0.671-1.5,1.5v11.75c0,0.829,0.672,1.5,1.5,1.5s1.5-0.671,1.5-1.5v-11.75
				C95.828,227.295,95.156,226.624,94.328,226.624z"/>
		</g>
	</g>
	<g>
		<g>
			<path class="st0" d="M127.798,226.624c-0.828,0-1.5,0.671-1.5,1.5v11.75c0,0.829,0.672,1.5,1.5,1.5s1.5-0.671,1.5-1.5v-11.75
				C129.298,227.295,128.626,226.624,127.798,226.624z"/>
		</g>
	</g>
	<g>
		<g>
			<path class="st0" d="M161.258,226.624c-0.828,0-1.5,0.671-1.5,1.5v11.75c0,0.829,0.672,1.5,1.5,1.5s1.5-0.671,1.5-1.5v-11.75
				C162.758,227.295,162.086,226.624,161.258,226.624z"/>
		</g>
	</g>
	<g>
		<g>
			<path class="st0" d="M194.729,226.624c-0.828,0-1.5,0.671-1.5,1.5v11.75c0,0.829,0.672,1.5,1.5,1.5s1.5-0.671,1.5-1.5v-11.75
				C196.229,227.295,195.557,226.624,194.729,226.624z"/>
		</g>
	</g>
	<g>
		<g>
			<path class="st0" d="M228.188,226.624c-0.828,0-1.5,0.671-1.5,1.5v11.75c0,0.829,0.672,1.5,1.5,1.5s1.5-0.671,1.5-1.5v-11.75
				C229.688,227.295,229.017,226.624,228.188,226.624z"/>
		</g>
	</g>
	<g>
		<g>
			<path class="st0" d="M27.398,226.624h-11.75c-0.828,0-1.5,0.671-1.5,1.5c0,0.829,0.672,1.5,1.5,1.5h11.75
				c0.828,0,1.5-0.671,1.5-1.5C28.898,227.295,28.227,226.624,27.398,226.624z"/>
		</g>
	</g>
	<g>
		<g>
			<path class="st0" d="M27.398,193.154h-11.75c-0.828,0-1.5,0.671-1.5,1.5s0.672,1.5,1.5,1.5h11.75c0.828,0,1.5-0.671,1.5-1.5
				S28.227,193.154,27.398,193.154z"/>
		</g>
	</g>
	<g>
		<g>
			<path class="st0" d="M27.398,159.694h-11.75c-0.828,0-1.5,0.671-1.5,1.5s0.672,1.5,1.5,1.5h11.75c0.828,0,1.5-0.671,1.5-1.5
				S28.227,159.694,27.398,159.694z"/>
		</g>
	</g>
	<g>
		<g>
			<path class="st0" d="M27.398,126.224h-11.75c-0.828,0-1.5,0.671-1.5,1.5c0,0.829,0.672,1.5,1.5,1.5h11.75
				c0.828,0,1.5-0.671,1.5-1.5C28.898,126.896,28.227,126.224,27.398,126.224z"/>
		</g>
	</g>
	<g>
		<g>
			<path class="st0" d="M27.398,92.764h-11.75c-0.828,0-1.5,0.671-1.5,1.5c0,0.829,0.672,1.5,1.5,1.5h11.75
				c0.828,0,1.5-0.671,1.5-1.5C28.898,93.435,28.227,92.764,27.398,92.764z"/>
		</g>
	</g>
	<g>
		<g>
			<path class="st0" d="M27.398,59.294h-11.75c-0.828,0-1.5,0.671-1.5,1.5c0,0.829,0.672,1.5,1.5,1.5h11.75
				c0.828,0,1.5-0.671,1.5-1.5C28.898,59.965,28.227,59.294,27.398,59.294z"/>
		</g>
	</g>
	<g>
		<g>
			<path class="st0" d="M27.398,25.834h-11.75c-0.828,0-1.5,0.671-1.5,1.5s0.672,1.5,1.5,1.5h11.75c0.828,0,1.5-0.671,1.5-1.5
				S28.227,25.834,27.398,25.834z"/>
		</g>
	</g>
	<g>
		<g>
			<path class="st13" d="M193.913,86.489c-2.58,0-5.09,0.3-7.5,0.86c11.11,2.59,20.08,10.82,23.73,21.48
				c2.35,1.74,3.88,4.53,3.88,7.67c0,2.34-0.85,4.5-2.26,6.15c-1.36,14.2-11.75,25.8-25.34,28.97c2.41,0.56,4.92,0.87,7.49,0.87
				c18.19,0,33-14.8,33-33C226.913,101.299,212.103,86.489,193.913,86.489z"/>
		</g>
	</g>
</g>
</svg>
