<?xml version="1.0" encoding="utf-8"?>
<!-- Generator: Adobe Illustrator 22.0.1, SVG Export Plug-In . SVG Version: 6.00 Build 0)  -->
<svg version="1.1" id="Layer_1" xmlns="http://www.w3.org/2000/svg" xmlns:xlink="http://www.w3.org/1999/xlink" x="0px" y="0px"
	 viewBox="0 0 256 256" style="enable-background:new 0 0 256 256;" xml:space="preserve">
<style type="text/css">
	.st0{fill:#3A312A;}
	.st1{fill:#F16C7A;}
	.st2{fill:#D7E057;}
	.st3{fill:#F8E4C8;}
	.st4{fill:#89C4DB;}
	.st5{fill-rule:evenodd;clip-rule:evenodd;fill:#F8E4C8;}
	.st6{fill:#87796F;}
	.st7{fill:#D4DB56;}
	.st8{fill:#F59689;}
	.st9{fill:#6CA6BE;}
	.st10{fill:#695B51;}
	.st11{fill:#F7E3C7;}
	.st12{fill:#8AC6DD;}
	.st13{fill:#6CA8BF;}
	.st14{fill:#D6DF58;}
	.st15{fill:#FAE6CA;}
	.st16{fill:#EF6D7A;}
	.st17{fill:#DDC9AC;}
	.st18{fill:#D24E5C;}
	.st19{fill:#6A5C52;}
	.st20{fill:#B9C239;}
	.st21{fill:#FCE8CB;}
	.st22{fill:#DECAAD;}
	.st23{fill:#D5DE58;}
	.st24{fill:#8AC5DC;}
	.st25{fill:#D34E5C;}
	.st26{fill:#ED6E7A;}
	.st27{fill:#B8C136;}
</style>
<g>
	<g>
		<g>
			<polygon class="st12" points="79.146,172.226 79.099,188.688 79.062,201.914 78.957,239.068 178.198,239.349 178.387,172.507 			
				"/>
		</g>
	</g>
	<g>
		<g>
			<path class="st0" d="M178.392,171.007l-99.241-0.281h-0.004c-0.396,0-0.776,0.157-1.058,0.437
				c-0.282,0.28-0.441,0.662-0.442,1.059L77.6,188.684c-0.002,0.829,0.667,1.502,1.496,1.504H79.1c0.827,0,1.498-0.669,1.5-1.496
				l0.042-14.962l96.241,0.272l-0.18,63.842l-96.241-0.272l0.101-35.655c0.003-0.829-0.668-1.502-1.496-1.504h-0.004
				c-0.827,0-1.497,0.669-1.5,1.496l-0.105,37.155c-0.002,0.829,0.668,1.502,1.496,1.504l99.241,0.281h0.004
				c0.396,0,0.776-0.157,1.058-0.436c0.282-0.28,0.441-0.662,0.442-1.059l0.189-66.842
				C179.89,171.683,179.22,171.009,178.392,171.007z"/>
		</g>
	</g>
	<g>
		<g>
			<path class="st1" d="M201.716,42.244h-28.108v9.178h23.519v6.142c0,13.331-10.402,24.284-23.519,25.156v2.93
				c0,2.134-0.145,4.237-0.444,6.287c18.387-0.665,33.141-15.825,33.141-34.372V46.833
				C206.305,44.301,204.248,42.244,201.716,42.244z"/>
		</g>
	</g>
	<g>
		<g>
			<path class="st0" d="M201.716,40.744h-28.108c-0.829,0-1.5,0.671-1.5,1.5v9.178c0,0.829,0.671,1.5,1.5,1.5h22.019v4.642
				c0,12.442-9.716,22.834-22.119,23.659c-0.788,0.052-1.4,0.707-1.4,1.497v2.93c0,2.076-0.144,4.119-0.428,6.071
				c-0.064,0.44,0.071,0.886,0.368,1.217c0.285,0.318,0.691,0.498,1.117,0.498c0.018,0,0.036,0,0.054-0.001
				c19.395-0.702,34.587-16.458,34.587-35.872V46.832C207.805,43.475,205.074,40.744,201.716,40.744z M204.805,57.564
				c0,17.198-13.01,31.264-29.932,32.764c0.156-1.528,0.234-3.095,0.234-4.678v-1.563c13.297-1.59,23.519-12.978,23.519-26.522
				v-6.142c0-0.829-0.671-1.5-1.5-1.5h-22.019v-6.178h26.608c1.704,0,3.089,1.386,3.089,3.089V57.564z"/>
		</g>
	</g>
	<g>
		<g>
			<path class="st1" d="M83.737,85.649v-2.93C70.62,81.848,60.217,70.895,60.217,57.564v-6.142h23.519v-9.178H55.628
				c-2.532,0-4.589,2.057-4.589,4.589v10.731c0,18.548,14.754,33.707,33.141,34.372C83.882,89.887,83.737,87.783,83.737,85.649z"/>
		</g>
	</g>
	<g>
		<g>
			<path class="st0" d="M85.665,91.721c-0.284-1.95-0.428-3.993-0.428-6.071v-2.93c0-0.79-0.612-1.444-1.4-1.497
				c-12.403-0.825-22.119-11.217-22.119-23.659v-4.642h22.02c0.829,0,1.5-0.671,1.5-1.5v-9.178c0-0.829-0.671-1.5-1.5-1.5H55.628
				c-3.358,0-6.089,2.731-6.089,6.089v10.732c0,19.413,15.192,35.169,34.587,35.872c0.018,0,0.036,0.001,0.054,0.001
				c0.425,0,0.832-0.181,1.117-0.498C85.594,92.607,85.729,92.161,85.665,91.721z M52.539,57.564V46.832
				c0-1.703,1.386-3.089,3.089-3.089h26.608v6.178h-22.02c-0.829,0-1.5,0.671-1.5,1.5v6.142c0,13.545,10.221,24.933,23.52,26.522
				v1.563c0,1.584,0.079,3.151,0.234,4.678C65.549,88.828,52.539,74.762,52.539,57.564z"/>
		</g>
	</g>
	<g>
		<g>
			<path class="st2" d="M138.01,130.581h-18.677c-0.369,0-0.746-0.007-1.115-0.021v19.164h20.907v-19.164
				C138.756,130.575,138.38,130.581,138.01,130.581z"/>
		</g>
	</g>
	<g>
		<g>
			<path class="st0" d="M140.165,129.48c-0.293-0.283-0.676-0.428-1.098-0.419c-0.351,0.014-0.707,0.02-1.058,0.02h-18.676
				c-0.351,0-0.708-0.006-1.058-0.02c-0.412-0.009-0.804,0.136-1.098,0.419c-0.294,0.283-0.46,0.673-0.46,1.081v19.165
				c0,0.829,0.671,1.5,1.5,1.5h20.907c0.829,0,1.5-0.671,1.5-1.5V130.56C140.625,130.153,140.459,129.763,140.165,129.48z
				 M137.625,148.225h-17.907v-16.144h17.907V148.225z"/>
		</g>
	</g>
	<g>
		<g>
			<path class="st1" d="M148.87,149.723h-40.396c-6.226,0-11.273,5.047-11.273,11.273h62.943v0
				C160.143,154.77,155.096,149.723,148.87,149.723z"/>
		</g>
	</g>
	<g>
		<g>
			<path class="st0" d="M148.87,148.223h-40.396c-7.043,0-12.773,5.73-12.773,12.773c0,0.829,0.671,1.5,1.5,1.5h62.943
				c0.829,0,1.5-0.672,1.5-1.5C161.644,153.953,155.914,148.223,148.87,148.223z M98.815,159.496
				c0.724-4.68,4.779-8.273,9.659-8.273h40.396c4.879,0,8.935,3.594,9.659,8.273H98.815z"/>
		</g>
	</g>
	<g>
		<g>
			<path class="st1" d="M160.613,160.996H96.731c-6.226,0-11.273,5.047-11.273,11.273h86.429
				C171.886,166.043,166.839,160.996,160.613,160.996z"/>
		</g>
	</g>
	<g>
		<g>
			<path class="st0" d="M160.613,159.496H96.731c-7.044,0-12.773,5.73-12.773,12.773c0,0.829,0.671,1.5,1.5,1.5h86.429
				c0.829,0,1.5-0.671,1.5-1.5C173.386,165.226,167.656,159.496,160.613,159.496z M87.072,170.769
				c0.724-4.68,4.779-8.273,9.659-8.273h63.882c4.879,0,8.935,3.593,9.658,8.273H87.072z"/>
		</g>
	</g>
	<g>
		<g>
			<path class="st2" d="M83.737,33.359v61.626c0,19.659,15.938,35.597,35.597,35.597h18.677c19.659,0,35.597-15.938,35.597-35.597
				V33.359H83.737z"/>
		</g>
	</g>
	<g>
		<g>
			<path class="st0" d="M173.607,31.859H83.737c-0.829,0-1.5,0.671-1.5,1.5v61.626c0,20.455,16.642,37.097,37.097,37.097h18.676
				c20.456,0,37.097-16.642,37.097-37.097V33.359C175.107,32.53,174.436,31.859,173.607,31.859z M172.107,94.985
				c0,18.801-15.296,34.097-34.097,34.097h-18.676c-18.801,0-34.097-15.296-34.097-34.097V34.859h86.871V94.985z"/>
		</g>
	</g>
	<g>
		<g>
			<path class="st2" d="M172.13,16.633H85.214c-3.758,0-6.805,3.047-6.805,6.805v3.115c0,3.759,3.047,6.805,6.805,6.805h86.916
				c3.758,0,6.805-3.046,6.805-6.805v-3.115C178.935,19.68,175.888,16.633,172.13,16.633z"/>
		</g>
	</g>
	<g>
		<g>
			<path class="st0" d="M172.13,15.133h-48.731c-0.829,0-1.5,0.671-1.5,1.5s0.671,1.5,1.5,1.5h48.731
				c2.925,0,5.305,2.38,5.305,5.305v3.115c0,2.925-2.38,5.305-5.305,5.305H85.214c-2.925,0-5.305-2.38-5.305-5.305v-3.115
				c0-2.925,2.38-5.305,5.305-5.305h25.398c0.829,0,1.5-0.671,1.5-1.5s-0.671-1.5-1.5-1.5H85.214c-4.579,0-8.305,3.726-8.305,8.305
				v3.115c0,4.58,3.726,8.305,8.305,8.305h86.916c4.58,0,8.305-3.726,8.305-8.305v-3.115
				C180.435,18.859,176.709,15.133,172.13,15.133z"/>
		</g>
	</g>
	<g>
		<g>
			
				<ellipse transform="matrix(0.9925 -0.1222 0.1222 0.9925 -8.8993 16.3693)" class="st6" cx="129.021" cy="80.747" rx="28.572" ry="28.573"/>
		</g>
	</g>
	<g>
		<g>
			<path class="st0" d="M129.021,50.675c-16.582,0-30.072,13.49-30.072,30.072c0,16.582,13.49,30.073,30.072,30.073
				c16.582,0,30.072-13.491,30.072-30.073C159.093,64.165,145.602,50.675,129.021,50.675z M129.021,107.82
				c-14.928,0-27.072-12.145-27.072-27.073c0-14.928,12.145-27.072,27.072-27.072c14.928,0,27.072,12.144,27.072,27.072
				C156.093,95.675,143.948,107.82,129.021,107.82z"/>
		</g>
	</g>
	<g>
		<g>
			<path class="st15" d="M148.516,77.984c1.099-1.071,0.492-2.937-1.026-3.157l-10.652-1.548c-0.603-0.088-1.124-0.466-1.394-1.013
				l-4.764-9.653c-0.679-1.376-2.641-1.376-3.32,0l-4.764,9.653c-0.27,0.546-0.791,0.925-1.394,1.013l-10.652,1.548
				c-1.518,0.221-2.124,2.086-1.026,3.157l7.708,7.513c0.436,0.425,0.635,1.038,0.532,1.638l-1.82,10.609
				c-0.259,1.512,1.328,2.665,2.686,1.951l9.528-5.009c0.539-0.284,1.183-0.284,1.723,0l9.528,5.009
				c1.358,0.714,2.945-0.439,2.686-1.951l-1.82-10.609c-0.103-0.6,0.096-1.213,0.532-1.638L148.516,77.984z"/>
		</g>
	</g>
	<g>
		<g>
			<path class="st0" d="M149.563,79.058c0.92-0.897,1.245-2.213,0.848-3.435c-0.397-1.222-1.433-2.096-2.705-2.28l-10.651-1.548
				c-0.115-0.017-0.214-0.089-0.265-0.192l-4.764-9.652c-0.568-1.152-1.72-1.868-3.005-1.868c-1.285,0-2.437,0.716-3.005,1.868
				l-4.764,9.653c-0.051,0.104-0.15,0.175-0.264,0.192l-10.652,1.548c-1.271,0.185-2.308,1.059-2.705,2.28
				c-0.397,1.222-0.072,2.538,0.848,3.436l7.707,7.513c0.083,0.081,0.121,0.197,0.101,0.311l-1.82,10.609
				c-0.217,1.266,0.294,2.522,1.333,3.277c1.039,0.755,2.392,0.854,3.529,0.255l9.527-5.009c0.103-0.055,0.225-0.054,0.327,0
				l9.528,5.009c0.494,0.26,1.03,0.389,1.562,0.389c0.692,0,1.379-0.217,1.967-0.644c1.039-0.755,1.55-2.011,1.333-3.277
				l-1.82-10.61c-0.02-0.114,0.018-0.229,0.101-0.31L149.563,79.058z M138.797,87.389l1.82,10.609
				c0.031,0.178-0.059,0.285-0.14,0.343c-0.08,0.059-0.211,0.11-0.369,0.027l-9.528-5.01c-0.488-0.256-1.023-0.384-1.559-0.384
				c-0.535,0-1.071,0.128-1.56,0.385l-9.527,5.009c-0.161,0.083-0.289,0.032-0.37-0.027c-0.081-0.059-0.17-0.166-0.14-0.343
				l1.82-10.609c0.187-1.087-0.174-2.196-0.964-2.966l-7.707-7.513c-0.129-0.126-0.12-0.266-0.089-0.36
				c0.031-0.095,0.105-0.213,0.284-0.239l10.652-1.548c1.092-0.159,2.035-0.845,2.523-1.833l4.764-9.653
				c0.079-0.162,0.215-0.195,0.314-0.195s0.235,0.034,0.315,0.195c0,0,0,0,0,0l4.764,9.653c0.488,0.988,1.432,1.673,2.523,1.833
				l10.652,1.548c0.179,0.026,0.253,0.144,0.284,0.239c0.031,0.095,0.04,0.234-0.089,0.36l-7.708,7.514
				C138.971,85.193,138.61,86.302,138.797,87.389z"/>
		</g>
	</g>
	<g>
		<g>
			
				<rect x="185.207" y="185.093" transform="matrix(0.0027 -1 1 0.0027 -7.3989 424.0076)" class="st2" width="47.36" height="61.24"/>
		</g>
	</g>
	<g>
		<g>
			<path class="st0" d="M239.577,190.623l-61.24-0.18h-0.004c-0.396,0-0.776,0.157-1.058,0.437c-0.282,0.28-0.441,0.662-0.442,1.06
				l-0.13,47.36c-0.002,0.828,0.667,1.502,1.496,1.504l61.24,0.18h0.004c0.396,0,0.776-0.157,1.058-0.437
				c0.282-0.28,0.441-0.662,0.442-1.06l0.13-47.36C241.075,191.299,240.405,190.626,239.577,190.623z M237.946,237.979l-58.24-0.171
				l0.122-44.36l58.24,0.171L237.946,237.979z"/>
		</g>
	</g>
	<g>
		<g>
			<polygon class="st1" points="16.522,210.493 16.442,238.853 78.952,239.033 79.032,210.663 			"/>
		</g>
	</g>
	<g>
		<g>
			<path class="st0" d="M80.096,209.605c-0.28-0.282-0.662-0.441-1.06-0.442l-62.51-0.17h-0.004c-0.827,0-1.498,0.669-1.5,1.496
				l-0.08,28.36c-0.002,0.829,0.667,1.502,1.496,1.504l62.51,0.18h0.004c0.396,0,0.776-0.157,1.058-0.437
				c0.282-0.28,0.441-0.662,0.442-1.059l0.08-28.37C80.533,210.269,80.376,209.888,80.096,209.605z M77.456,237.529l-59.51-0.171
				l0.071-25.36l59.51,0.162L77.456,237.529z"/>
		</g>
	</g>
	<g>
		<g>
			<path class="st2" d="M62.438,129.192c-0.974,11.564-13.024,13.389-13.024,13.389c10.346,0.487,12.925,14.059,12.925,14.059
				c0.221-9.677,13.321-14.202,13.321-14.202C65.846,141.851,62.438,129.192,62.438,129.192z"/>
		</g>
	</g>
	<g>
		<g>
			<path class="st0" d="M75.749,140.94c-8.605-0.514-11.832-12.024-11.863-12.14c-0.191-0.703-0.861-1.167-1.583-1.102
				c-0.725,0.066-1.298,0.642-1.359,1.367c-0.86,10.215-11.314,11.963-11.754,12.032c-0.763,0.115-1.313,0.79-1.274,1.561
				c0.04,0.77,0.657,1.384,1.427,1.421c9.028,0.425,11.499,12.718,11.522,12.842c0.137,0.711,0.759,1.217,1.472,1.217
				c0.042,0,0.084-0.001,0.126-0.005c0.764-0.064,1.357-0.693,1.375-1.46c0.195-8.508,12.192-12.777,12.313-12.819
				c0.675-0.235,1.092-0.915,0.994-1.623C77.047,141.524,76.463,140.983,75.749,140.94z M62.183,151.287
				c-1.356-3.13-3.709-6.907-7.586-8.876c2.931-1.405,6.409-3.913,8.202-8.273c1.551,3.071,4.199,6.88,8.334,8.722
				C68.125,144.5,64.209,147.266,62.183,151.287z"/>
		</g>
	</g>
	<g>
		<g>
			<path class="st2" d="M40.739,146.172c-0.689,8.179-9.212,9.471-9.212,9.471c7.318,0.344,9.142,9.944,9.142,9.944
				c0.156-6.845,9.422-10.046,9.422-10.046C43.15,155.126,40.739,146.172,40.739,146.172z"/>
		</g>
	</g>
	<g>
		<g>
			<path class="st0" d="M50.18,154.044c-5.766-0.345-7.972-8.185-7.994-8.264c-0.19-0.702-0.853-1.17-1.582-1.102
				c-0.726,0.066-1.299,0.643-1.36,1.368c-0.579,6.871-7.646,8.067-7.942,8.114c-0.763,0.115-1.313,0.79-1.273,1.561
				c0.04,0.77,0.657,1.384,1.428,1.421c6.035,0.284,7.724,8.644,7.739,8.726c0.135,0.713,0.759,1.22,1.473,1.22
				c0.041,0,0.082-0.002,0.124-0.005c0.765-0.063,1.358-0.694,1.376-1.461c0.13-5.709,8.331-8.634,8.412-8.662
				c0.677-0.234,1.094-0.913,0.996-1.622C51.479,154.628,50.895,154.087,50.18,154.044z M40.596,160.839
				c-0.924-1.885-2.34-3.947-4.447-5.28c1.856-1.041,3.697-2.63,4.871-4.917c1.057,1.874,2.654,3.955,4.941,5.224
				C44.111,156.968,41.972,158.607,40.596,160.839z"/>
		</g>
	</g>
	<g>
		<g>
			<path class="st2" d="M40.739,119.515c-0.689,8.179-9.212,9.47-9.212,9.47c7.318,0.344,9.142,9.944,9.142,9.944
				c0.156-6.844,9.422-10.045,9.422-10.045C43.15,128.469,40.739,119.515,40.739,119.515z"/>
		</g>
	</g>
	<g>
		<g>
			<path class="st0" d="M50.181,127.387c-5.744-0.344-7.956-8.126-7.994-8.263c-0.19-0.703-0.859-1.167-1.583-1.103
				c-0.726,0.065-1.299,0.643-1.36,1.368c-0.579,6.87-7.646,8.066-7.942,8.113c-0.763,0.115-1.313,0.79-1.273,1.561
				c0.04,0.77,0.657,1.384,1.428,1.421c6.035,0.284,7.724,8.644,7.739,8.726c0.135,0.713,0.759,1.22,1.472,1.22
				c0.042,0,0.083-0.002,0.125-0.005c0.765-0.064,1.358-0.694,1.376-1.461c0.13-5.709,8.331-8.634,8.412-8.662
				c0.676-0.234,1.094-0.913,0.996-1.622C51.479,127.971,50.895,127.43,50.181,127.387z M40.596,134.182
				c-0.924-1.885-2.34-3.947-4.447-5.28c1.856-1.041,3.697-2.629,4.871-4.916c1.057,1.874,2.654,3.955,4.941,5.224
				C44.111,130.31,41.972,131.949,40.596,134.182z"/>
		</g>
	</g>
	<g>
		<g>
			<path class="st2" d="M62.438,129.192c-0.974,11.564-13.024,13.389-13.024,13.389c10.346,0.487,12.925,14.059,12.925,14.059
				c0.221-9.677,13.321-14.202,13.321-14.202C65.846,141.851,62.438,129.192,62.438,129.192z"/>
		</g>
	</g>
	<g>
		<g>
			<path class="st0" d="M75.749,140.94c-8.605-0.514-11.832-12.024-11.863-12.14c-0.191-0.703-0.861-1.167-1.583-1.102
				c-0.725,0.066-1.298,0.642-1.359,1.367c-0.86,10.215-11.314,11.963-11.754,12.032c-0.763,0.115-1.313,0.79-1.274,1.561
				c0.04,0.77,0.657,1.384,1.427,1.421c9.028,0.425,11.499,12.718,11.522,12.842c0.137,0.711,0.759,1.217,1.472,1.217
				c0.042,0,0.084-0.001,0.126-0.005c0.764-0.064,1.357-0.693,1.375-1.46c0.195-8.508,12.192-12.777,12.313-12.819
				c0.675-0.235,1.092-0.915,0.994-1.623C77.047,141.524,76.463,140.983,75.749,140.94z M62.183,151.287
				c-1.356-3.13-3.709-6.907-7.586-8.876c2.931-1.405,6.409-3.913,8.202-8.273c1.551,3.071,4.199,6.88,8.334,8.722
				C68.125,144.5,64.209,147.266,62.183,151.287z"/>
		</g>
	</g>
	<g>
		<g>
			<path class="st2" d="M40.739,146.172c-0.689,8.179-9.212,9.471-9.212,9.471c7.318,0.344,9.142,9.944,9.142,9.944
				c0.156-6.845,9.422-10.046,9.422-10.046C43.15,155.126,40.739,146.172,40.739,146.172z"/>
		</g>
	</g>
	<g>
		<g>
			<path class="st0" d="M50.18,154.044c-5.766-0.345-7.972-8.185-7.994-8.264c-0.19-0.702-0.853-1.17-1.582-1.102
				c-0.726,0.066-1.299,0.643-1.36,1.368c-0.579,6.871-7.646,8.067-7.942,8.114c-0.763,0.115-1.313,0.79-1.273,1.561
				c0.04,0.77,0.657,1.384,1.428,1.421c6.035,0.284,7.724,8.644,7.739,8.726c0.135,0.713,0.759,1.22,1.473,1.22
				c0.041,0,0.082-0.002,0.124-0.005c0.765-0.063,1.358-0.694,1.376-1.461c0.13-5.709,8.331-8.634,8.412-8.662
				c0.677-0.234,1.094-0.913,0.996-1.622C51.479,154.628,50.895,154.087,50.18,154.044z M40.596,160.839
				c-0.924-1.885-2.34-3.947-4.447-5.28c1.856-1.041,3.697-2.63,4.871-4.917c1.057,1.874,2.654,3.955,4.941,5.224
				C44.111,156.968,41.972,158.607,40.596,160.839z"/>
		</g>
	</g>
	<g>
		<g>
			<path class="st2" d="M40.739,119.515c-0.689,8.179-9.212,9.47-9.212,9.47c7.318,0.344,9.142,9.944,9.142,9.944
				c0.156-6.844,9.422-10.045,9.422-10.045C43.15,128.469,40.739,119.515,40.739,119.515z"/>
		</g>
	</g>
	<g>
		<g>
			<path class="st0" d="M50.181,127.387c-5.744-0.344-7.956-8.126-7.994-8.263c-0.19-0.703-0.859-1.167-1.583-1.103
				c-0.726,0.065-1.299,0.643-1.36,1.368c-0.579,6.87-7.646,8.066-7.942,8.113c-0.763,0.115-1.313,0.79-1.273,1.561
				c0.04,0.77,0.657,1.384,1.428,1.421c6.035,0.284,7.724,8.644,7.739,8.726c0.135,0.713,0.759,1.22,1.472,1.22
				c0.042,0,0.083-0.002,0.125-0.005c0.765-0.064,1.358-0.694,1.376-1.461c0.13-5.709,8.331-8.634,8.412-8.662
				c0.676-0.234,1.094-0.913,0.996-1.622C51.479,127.971,50.895,127.43,50.181,127.387z M40.596,134.182
				c-0.924-1.885-2.34-3.947-4.447-5.28c1.856-1.041,3.697-2.629,4.871-4.916c1.057,1.874,2.654,3.955,4.941,5.224
				C44.111,130.31,41.972,131.949,40.596,134.182z"/>
		</g>
	</g>
	<g>
		<g>
			<path class="st20" d="M157.112,34.863v35.17c1.28,3.33,1.98,6.94,1.98,10.71c0,3.77-0.7,7.38-1.98,10.71v3.53
				c0,18.8-15.3,34.1-34.1,34.1h15c18.8,0,34.1-15.3,34.1-34.1v-60.12H157.112z"/>
		</g>
	</g>
	<g>
		<g>
			<path class="st20" d="M172.132,18.133h-15c2.92,0,5.3,2.38,5.3,5.31v3.11c0,2.93-2.38,5.31-5.3,5.31h15c2.92,0,5.3-2.38,5.3-5.31
				v-3.11C177.432,20.513,175.052,18.133,172.132,18.133z"/>
		</g>
	</g>
</g>
</svg>
