<?xml version="1.0" encoding="utf-8"?>
<!-- Generator: Adobe Illustrator 22.0.1, SVG Export Plug-In . SVG Version: 6.00 Build 0)  -->
<svg version="1.1" id="Layer_1" xmlns="http://www.w3.org/2000/svg" xmlns:xlink="http://www.w3.org/1999/xlink" x="0px" y="0px"
	 viewBox="0 0 256 256" style="enable-background:new 0 0 256 256;" xml:space="preserve">
<style type="text/css">
	.st0{fill:#3A312A;}
	.st1{fill:#F16C7A;}
	.st2{fill:#D7E057;}
	.st3{fill:#F8E4C8;}
	.st4{fill:#89C4DB;}
	.st5{fill-rule:evenodd;clip-rule:evenodd;fill:#F8E4C8;}
	.st6{fill:#87796F;}
	.st7{fill:#D4DB56;}
	.st8{fill:#F59689;}
	.st9{fill:#6CA6BE;}
	.st10{fill:#695B51;}
	.st11{fill:#F7E3C7;}
	.st12{fill:#8AC6DD;}
	.st13{fill:#6CA8BF;}
	.st14{fill:#D6DF58;}
	.st15{fill:#FAE6CA;}
	.st16{fill:#EF6D7A;}
	.st17{fill:#DDC9AC;}
	.st18{fill:#D24E5C;}
	.st19{fill:#6A5C52;}
	.st20{fill:#B9C239;}
	.st21{fill:#FCE8CB;}
	.st22{fill:#DECAAD;}
	.st23{fill:#D5DE58;}
	.st24{fill:#8AC5DC;}
	.st25{fill:#D34E5C;}
	.st26{fill:#ED6E7A;}
	.st27{fill:#B8C136;}
</style>
<g>
	<g>
		<g>
			<path class="st2" d="M226.221,26.134c-0.974,11.564-13.025,13.389-13.025,13.389c10.347,0.487,12.925,14.059,12.925,14.059
				c0.221-9.677,13.321-14.202,13.321-14.202C229.629,38.793,226.221,26.134,226.221,26.134z"/>
		</g>
	</g>
	<g>
		<g>
			<path class="st0" d="M239.532,37.882c-8.604-0.514-11.832-12.024-11.863-12.14c-0.19-0.702-0.848-1.164-1.584-1.102
				c-0.725,0.066-1.298,0.642-1.359,1.367c-0.859,10.215-11.313,11.963-11.754,12.032c-0.763,0.115-1.313,0.79-1.273,1.561
				c0.04,0.77,0.657,1.384,1.428,1.421c9.027,0.425,11.498,12.719,11.521,12.843c0.138,0.711,0.76,1.217,1.473,1.217
				c0.042,0,0.084-0.001,0.126-0.005c0.764-0.064,1.357-0.693,1.375-1.459c0.194-8.509,12.191-12.777,12.313-12.819
				c0.676-0.235,1.092-0.915,0.994-1.623C240.829,38.466,240.246,37.925,239.532,37.882z M225.966,48.229
				c-1.356-3.13-3.709-6.907-7.587-8.876c2.931-1.405,6.409-3.913,8.202-8.273c1.551,3.071,4.2,6.88,8.334,8.722
				C231.908,41.441,227.992,44.208,225.966,48.229z"/>
		</g>
	</g>
	<g>
		<g>
			<path class="st2" d="M204.522,43.114c-0.689,8.179-9.212,9.47-9.212,9.47c7.318,0.344,9.142,9.944,9.142,9.944
				c0.156-6.844,9.422-10.045,9.422-10.045C206.933,52.068,204.522,43.114,204.522,43.114z"/>
		</g>
	</g>
	<g>
		<g>
			<path class="st0" d="M213.964,50.986c-5.767-0.345-7.972-8.185-7.993-8.264c-0.19-0.702-0.857-1.158-1.582-1.102
				c-0.726,0.065-1.3,0.642-1.361,1.368c-0.579,6.871-7.646,8.066-7.942,8.113c-0.763,0.115-1.313,0.79-1.273,1.561
				c0.04,0.77,0.657,1.384,1.428,1.421c6.035,0.284,7.724,8.644,7.739,8.726c0.136,0.712,0.759,1.22,1.473,1.22
				c0.041,0,0.083-0.001,0.125-0.005c0.765-0.063,1.358-0.694,1.376-1.461c0.13-5.709,8.331-8.634,8.412-8.662
				c0.676-0.234,1.093-0.913,0.996-1.622C215.263,51.57,214.678,51.029,213.964,50.986z M204.379,57.781
				c-0.924-1.886-2.34-3.947-4.447-5.28c1.855-1.042,3.697-2.63,4.871-4.917c1.057,1.874,2.654,3.955,4.941,5.224
				C207.894,53.91,205.755,55.549,204.379,57.781z"/>
		</g>
	</g>
	<g>
		<g>
			<path class="st2" d="M204.522,16.457c-0.689,8.179-9.212,9.471-9.212,9.471c7.318,0.344,9.142,9.944,9.142,9.944
				c0.156-6.845,9.422-10.045,9.422-10.045C206.933,25.411,204.522,16.457,204.522,16.457z"/>
		</g>
	</g>
	<g>
		<g>
			<path class="st0" d="M213.964,24.329c-5.767-0.345-7.972-8.186-7.993-8.265c-0.19-0.702-0.857-1.165-1.582-1.102
				c-0.726,0.065-1.3,0.642-1.361,1.368c-0.579,6.871-7.646,8.067-7.942,8.114c-0.763,0.115-1.313,0.79-1.273,1.561
				c0.04,0.77,0.657,1.384,1.428,1.421c6.035,0.284,7.724,8.644,7.739,8.726c0.136,0.713,0.759,1.22,1.473,1.22
				c0.041,0,0.083-0.001,0.125-0.005c0.765-0.063,1.358-0.694,1.376-1.461c0.13-5.709,8.331-8.634,8.412-8.662
				c0.676-0.234,1.093-0.913,0.996-1.622C215.263,24.913,214.678,24.372,213.964,24.329z M204.379,31.124
				c-0.924-1.885-2.34-3.947-4.447-5.28c1.855-1.041,3.697-2.63,4.871-4.917c1.057,1.874,2.654,3.955,4.941,5.224
				C207.895,27.252,205.755,28.891,204.379,31.124z"/>
		</g>
	</g>
	<g>
		<g>
			<path class="st1" d="M176.639,36.883c-0.109-11.327-9.318-20.453-20.645-20.459L37.11,16.362
				c-11.413-0.006-20.668,9.245-20.668,20.657v158.966c0,11.409,9.248,20.657,20.657,20.657h119.186
				c11.408,0,20.657-9.249,20.657-20.657V68.487L176.639,36.883z"/>
		</g>
	</g>
	<g>
		<g>
			<path class="st0" d="M178.139,36.869c-0.116-12.094-10.05-21.938-22.144-21.945L37.111,14.862H37.1
				c-5.916,0-11.479,2.303-15.663,6.486c-4.188,4.186-6.494,9.751-6.494,15.671v38.958c0,0.829,0.672,1.5,1.5,1.5s1.5-0.671,1.5-1.5
				V37.02c0-5.119,1.994-9.931,5.615-13.55c3.618-3.616,8.427-5.607,13.542-5.607h0.01l118.884,0.062
				c10.457,0.005,19.046,8.517,19.146,18.974l0.304,31.589v127.498c0,10.563-8.594,19.157-19.156,19.157H37.1
				c-10.563,0-19.157-8.594-19.157-19.157V89.226c0-0.829-0.672-1.5-1.5-1.5s-1.5,0.671-1.5,1.5v106.759
				c0,12.218,9.939,22.157,22.157,22.157h119.187c12.217,0,22.156-9.939,22.156-22.157V68.473L178.139,36.869z"/>
		</g>
	</g>
	<g>
		<g>
			<path class="st11" d="M147.807,39.352h-87.51c-11.526,0-20.854,9.328-20.854,20.854v158.583c0,11.526,9.328,20.854,20.854,20.854
				h118.792c11.525,0,20.854-9.329,20.854-20.854V91.487L147.807,39.352z"/>
		</g>
	</g>
	<g>
		<g>
			<path class="st0" d="M201.003,90.427l-52.135-52.135c-0.281-0.281-0.663-0.439-1.061-0.439H60.297
				c-12.326,0-22.354,10.028-22.354,22.354v158.583c0,12.326,10.028,22.354,22.354,22.354h55.774c0.828,0,1.5-0.672,1.5-1.5
				s-0.672-1.5-1.5-1.5H60.297c-10.672,0-19.354-8.682-19.354-19.354V60.206c0-10.672,8.683-19.354,19.354-19.354h86.89
				l51.256,51.256v126.681c0,10.672-8.682,19.354-19.354,19.354h-50.275c-0.828,0-1.5,0.672-1.5,1.5s0.672,1.5,1.5,1.5h50.275
				c12.326,0,22.354-10.027,22.354-22.354V91.487C201.442,91.089,201.284,90.708,201.003,90.427z"/>
		</g>
	</g>
	<g>
		<g>
			<path class="st11" d="M147.915,39.459v33.797c0,10.14,8.22,18.36,18.36,18.36h33.668v-0.129L147.915,39.459z"/>
		</g>
	</g>
	<g>
		<g>
			<path class="st0" d="M201.003,90.427l-52.027-52.028c-0.43-0.429-1.075-0.557-1.635-0.325c-0.561,0.232-0.926,0.779-0.926,1.386
				v33.797c0,10.951,8.909,19.86,19.86,19.86h33.667c0.828,0,1.5-0.671,1.5-1.5v-0.129
				C201.442,91.089,201.284,90.708,201.003,90.427z M166.275,90.117c-9.297,0-16.86-7.563-16.86-16.86V43.081l47.035,47.036H166.275
				z"/>
		</g>
	</g>
	<g>
		<g>
			<path class="st25" d="M175.143,36.895c-0.1-10.45-8.69-18.96-19.15-18.97h-15c10.46,0.01,19.05,8.52,19.15,18.97l0.12,12.79
				l15.14,15.15L175.143,36.895z"/>
		</g>
	</g>
	<g>
		<g>
			<path class="st2" d="M236.363,196.721h-1.419c-0.832-3.636-2.281-7.036-4.234-10.083l1.044-1.044
				c1.203-1.203,1.203-3.153,0-4.356l-5.546-5.546c-1.203-1.203-3.153-1.203-4.356,0l-1.083,1.083
				c-3.041-1.916-6.427-3.333-10.044-4.14v-1.552c0-1.701-1.379-3.08-3.08-3.08h-7.843c-1.701,0-3.08,1.379-3.08,3.08v1.552
				c-1.917,0.516-7.002,2.224-10.044,4.14l-1.083-1.083c-1.203-1.203-3.153-1.203-4.356,0l-5.546,5.546
				c-1.203,1.203-1.203,3.153,0,4.356l1.044,1.044c-1.953,3.047-3.402,6.448-4.234,10.083h-1.419c-1.701,0-3.08,1.379-3.08,3.08
				v7.843c0,1.701,1.379,3.08,3.08,3.08h1.345c0.8,3.68,2.232,7.125,4.177,10.213l-0.914,0.914c-1.203,1.203-1.203,3.153,0,4.356
				l5.546,5.546c1.203,1.203,3.153,1.203,4.356,0l0.874-0.875c3.094,1.983,6.553,3.446,10.252,4.271v1.212
				c0,1.701,1.379,3.08,3.08,3.08h7.843c1.701,0,3.08-1.379,3.08-3.08v-1.212c3.699-0.825,7.158-2.288,10.253-4.271l0.874,0.875
				c1.203,1.203,3.153,1.203,4.356,0l5.546-5.546c1.203-1.203,1.203-3.153,0-4.356l-0.914-0.914
				c1.946-3.088,3.377-6.533,4.177-10.213h1.345c1.701,0,3.08-1.379,3.08-3.08v-7.843
				C239.443,198.1,238.064,196.721,236.363,196.721z M203.723,219.736c-8.844,0-16.014-7.17-16.014-16.014
				c0-8.844,7.17-16.014,16.014-16.014c8.844,0,16.014,7.169,16.014,16.014C219.737,212.567,212.567,219.736,203.723,219.736z"/>
		</g>
	</g>
	<g>
		<g>
			<path class="st0" d="M236.362,195.221h-0.245c-0.783-2.936-1.959-5.738-3.509-8.36l0.206-0.206
				c0.865-0.865,1.342-2.016,1.342-3.238c0-1.224-0.477-2.374-1.342-3.238l-5.546-5.548c-1.785-1.783-4.691-1.784-6.479,0.001
				l-0.251,0.252c-2.61-1.517-5.398-2.667-8.314-3.428v-0.372c0-2.525-2.055-4.58-4.58-4.58h-7.843c-2.525,0-4.58,2.055-4.58,4.58
				v0.429c-2.012,0.623-5.548,1.868-8.303,3.383l-0.264-0.265c-1.787-1.783-4.692-1.784-6.478,0.001l-5.546,5.546
				c-0.865,0.865-1.342,2.016-1.342,3.239c0,1.223,0.477,2.373,1.342,3.238l0.206,0.206c-1.55,2.622-2.726,5.425-3.51,8.36h-0.245
				c-2.525,0-4.58,2.055-4.58,4.58v7.844c0,2.525,2.055,4.58,4.58,4.58h0.159c0.761,2.978,1.925,5.822,3.472,8.484l-0.082,0.081
				c-0.865,0.865-1.342,2.016-1.342,3.239s0.477,2.374,1.342,3.238l5.546,5.546c1.786,1.788,4.693,1.786,6.478,0l0.036-0.036
				c2.671,1.578,5.531,2.77,8.53,3.552v0.033c0,2.525,2.055,4.58,4.58,4.58h7.843c2.525,0,4.58-2.055,4.58-4.58v-0.033
				c3-0.783,5.859-1.974,8.53-3.552l0.036,0.036c1.784,1.786,4.691,1.788,6.478,0l5.546-5.545c0.865-0.865,1.342-2.016,1.342-3.239
				s-0.477-2.374-1.342-3.238l-0.083-0.083c1.548-2.661,2.712-5.506,3.473-8.483h0.158c2.525,0,4.58-2.055,4.58-4.58v-7.844
				C240.942,197.275,238.888,195.221,236.362,195.221z M237.942,207.645c0,0.871-0.709,1.58-1.58,1.58h-1.345
				c-0.706,0-1.316,0.492-1.466,1.182c-0.751,3.457-2.091,6.731-3.981,9.731c-0.373,0.593-0.286,1.365,0.209,1.86l0.914,0.915
				c0.299,0.298,0.463,0.694,0.463,1.116s-0.164,0.818-0.463,1.117l-5.546,5.546c-0.616,0.615-1.617,0.615-2.235,0l-0.874-0.874
				c-0.496-0.497-1.274-0.582-1.87-0.202c-3.003,1.924-6.291,3.293-9.77,4.069c-0.687,0.152-1.174,0.762-1.174,1.464v1.213
				c0,0.871-0.709,1.58-1.58,1.58h-7.843c-0.871,0-1.58-0.709-1.58-1.58v-1.213c0-0.702-0.487-1.312-1.174-1.464
				c-3.479-0.776-6.766-2.146-9.77-4.069c-0.249-0.159-0.53-0.237-0.809-0.237c-0.388,0-0.772,0.149-1.062,0.439l-0.874,0.874
				c-0.618,0.615-1.619,0.615-2.235,0l-5.546-5.547c-0.299-0.298-0.463-0.694-0.463-1.116s0.164-0.818,0.464-1.117l0.913-0.914
				c0.494-0.496,0.581-1.268,0.208-1.86c-1.891-3-3.229-6.274-3.98-9.731c-0.149-0.689-0.76-1.182-1.466-1.182h-1.346
				c-0.871,0-1.58-0.709-1.58-1.58v-7.844c0-0.871,0.709-1.58,1.58-1.58h1.419c0.699,0,1.307-0.483,1.462-1.165
				c0.782-3.416,2.14-6.648,4.035-9.609c0.381-0.593,0.296-1.371-0.202-1.869l-1.044-1.044c-0.299-0.299-0.463-0.695-0.463-1.117
				s0.164-0.818,0.463-1.117l5.546-5.546c0.614-0.616,1.618-0.617,2.234-0.001l1.083,1.084c0.496,0.494,1.268,0.581,1.861,0.209
				c2.839-1.789,7.805-3.47,9.634-3.962c0.655-0.176,1.11-0.77,1.11-1.448v-1.552c0-0.871,0.709-1.58,1.58-1.58h7.843
				c0.871,0,1.58,0.709,1.58,1.58v1.552c0,0.702,0.487,1.312,1.174,1.464c3.397,0.758,6.618,2.085,9.57,3.946
				c0.594,0.372,1.365,0.285,1.861-0.209l1.082-1.083c0.614-0.616,1.619-0.617,2.235-0.001l5.546,5.548
				c0.299,0.298,0.463,0.694,0.463,1.116s-0.164,0.818-0.463,1.117l-1.044,1.044c-0.498,0.498-0.583,1.276-0.202,1.869
				c1.896,2.961,3.253,6.194,4.034,9.608c0.155,0.683,0.763,1.166,1.462,1.166h1.419c0.871,0,1.58,0.709,1.58,1.58V207.645z
				 M203.723,186.209c-9.657,0-17.514,7.856-17.514,17.514s7.856,17.514,17.514,17.514s17.514-7.856,17.514-17.514
				S213.38,186.209,203.723,186.209z M203.723,218.236c-8.003,0-14.514-6.511-14.514-14.514s6.511-14.514,14.514-14.514
				s14.514,6.511,14.514,14.514S211.726,218.236,203.723,218.236z"/>
		</g>
	</g>
	<g>
		<g>
			<path class="st24" d="M97.416,88.876c-10.669,7.722-16.384,19.745-16.48,31.975l39.848,0.292l19.87-34.53
				C127.474,79.039,110.528,79.386,97.416,88.876z"/>
		</g>
	</g>
	<g>
		<g>
			<path class="st0" d="M142.102,86.223c-0.104-0.384-0.355-0.711-0.701-0.91c-14.095-8.1-31.704-7.176-44.864,2.349
				c-10.604,7.675-16.997,20.079-17.101,33.179c-0.003,0.398,0.152,0.781,0.432,1.064c0.279,0.283,0.659,0.444,1.058,0.447
				l39.848,0.292h0.011c0.536,0,1.032-0.287,1.3-0.752l19.87-34.53C142.152,87.017,142.205,86.607,142.102,86.223z M119.919,119.637
				l-37.441-0.274c0.55-11.592,6.389-22.447,15.818-29.271c11.799-8.54,27.455-9.625,40.294-2.9L119.919,119.637z"/>
		</g>
	</g>
	<g>
		<g>
			<path class="st14" d="M80.936,120.852c-0.073,8.208,2.383,16.503,7.565,23.662c6.703,9.261,16.645,14.785,27.152,16.147
				l5.131-39.517L80.936,120.852z"/>
		</g>
	</g>
	<g>
		<g>
			<path class="st0" d="M121.914,120.157c-0.282-0.324-0.69-0.511-1.12-0.514l-39.848-0.292h-0.011c-0.822,0-1.493,0.663-1.5,1.487
				c-0.078,8.861,2.637,17.351,7.851,24.554c6.749,9.325,16.755,15.275,28.174,16.755c0.065,0.009,0.13,0.013,0.194,0.013
				c0.742,0,1.388-0.551,1.485-1.307l5.131-39.517C122.326,120.91,122.196,120.481,121.914,120.157z M114.361,158.952
				c-9.972-1.677-18.68-7.077-24.646-15.319c-4.541-6.272-7.037-13.598-7.265-21.27l36.626,0.268L114.361,158.952z"/>
		</g>
	</g>
	<g>
		<g>
			<path class="st16" d="M154.817,100.454l-34.033,20.689l-5.131,39.517c0.197,0.029,0.393,0.05,0.591,0.074
				c9.54,1.097,19.501-1.236,27.892-7.309C161.09,141.154,165.528,118.022,154.817,100.454z"/>
		</g>
	</g>
	<g>
		<g>
			<path class="st0" d="M156.098,99.673c-0.43-0.707-1.354-0.93-2.06-0.501l-34.034,20.689c-0.389,0.236-0.649,0.637-0.708,1.088
				l-5.131,39.517c-0.105,0.812,0.458,1.557,1.267,1.677c0.154,0.023,0.307,0.041,0.461,0.06l0.181,0.021
				c1.582,0.182,3.163,0.271,4.739,0.271c8.655,0,17.106-2.719,24.203-7.855C162.366,142.083,167.234,117.938,156.098,99.673z
				 M143.256,152.211c-7.531,5.45-16.712,7.965-25.919,7.128l4.841-37.288l32.113-19.521
				C163.628,119.298,158.941,140.858,143.256,152.211z"/>
		</g>
	</g>
	<g>
		<g>
			<path class="st6" d="M152.833,97.616c-3.343-4.645-7.525-8.323-12.199-10.983l-19.993,34.407l33.922-20.801
				C154.027,99.348,153.45,98.474,152.833,97.616z"/>
		</g>
	</g>
	<g>
		<g>
			<path class="st0" d="M155.849,99.467c-0.551-0.917-1.155-1.834-1.798-2.727c-3.396-4.718-7.66-8.558-12.675-11.411
				c-0.715-0.406-1.625-0.162-2.039,0.55l-19.992,34.407c-0.346,0.594-0.243,1.347,0.249,1.827c0.288,0.281,0.666,0.427,1.048,0.427
				c0.271,0,0.542-0.073,0.784-0.221l33.921-20.801C156.048,101.088,156.272,100.172,155.849,99.467z M124.925,116.654
				l16.244-27.957c4.088,2.546,7.598,5.835,10.446,9.794c0.3,0.416,0.59,0.838,0.869,1.262L124.925,116.654z"/>
		</g>
	</g>
	<g>
		<g>
			<rect x="79.242" y="173.003" class="st24" width="82.07" height="17.25"/>
		</g>
	</g>
	<g>
		<g>
			<path class="st0" d="M161.313,171.503h-82.07c-0.828,0-1.5,0.672-1.5,1.5v17.25c0,0.828,0.672,1.5,1.5,1.5h82.07
				c0.828,0,1.5-0.672,1.5-1.5v-17.25C162.813,172.175,162.141,171.503,161.313,171.503z M159.813,188.753h-79.07v-14.25h79.07
				V188.753z"/>
		</g>
	</g>
	<g>
		<g>
			<rect x="79.242" y="173.003" class="st1" width="55.185" height="17.25"/>
		</g>
	</g>
	<g>
		<g>
			<path class="st0" d="M134.427,171.503H79.242c-0.828,0-1.5,0.672-1.5,1.5v17.25c0,0.828,0.672,1.5,1.5,1.5h55.185
				c0.828,0,1.5-0.672,1.5-1.5v-17.25C135.927,172.175,135.255,171.503,134.427,171.503z M132.927,188.753H80.742v-14.25h52.185
				V188.753z"/>
		</g>
	</g>
	<g>
		<g>
			<rect x="79.242" y="203.003" class="st24" width="82.07" height="17.25"/>
		</g>
	</g>
	<g>
		<g>
			<path class="st0" d="M161.313,201.503h-82.07c-0.828,0-1.5,0.672-1.5,1.5v17.25c0,0.828,0.672,1.5,1.5,1.5h82.07
				c0.828,0,1.5-0.672,1.5-1.5v-17.25C162.813,202.175,162.141,201.503,161.313,201.503z M159.813,218.753h-79.07v-14.25h79.07
				V218.753z"/>
		</g>
	</g>
	<g>
		<g>
			<rect x="79.242" y="203.003" class="st14" width="32.534" height="17.25"/>
		</g>
	</g>
	<g>
		<g>
			<path class="st0" d="M111.776,201.503H79.242c-0.828,0-1.5,0.672-1.5,1.5v17.25c0,0.828,0.672,1.5,1.5,1.5h32.534
				c0.828,0,1.5-0.672,1.5-1.5v-17.25C113.276,202.175,112.604,201.503,111.776,201.503z M110.276,218.753H80.742v-14.25h29.534
				V218.753z"/>
		</g>
	</g>
	<g>
		<g>
			<path class="st22" d="M189.209,203.722c0,6.139,3.837,11.387,9.233,13.505v-27.009
				C193.046,192.336,189.209,197.584,189.209,203.722z"/>
		</g>
	</g>
	<g>
		<g>
			<path class="st22" d="M184.947,93.113v80.44c0.64,0.22,1.22,0.59,1.71,1.08l0.26,0.26c2.75-1.51,6.29-2.76,8.3-3.38v-0.43
				c0-2.05,1.37-3.77,3.23-4.35v-73.62H184.947z M186.657,232.813c-1.79,1.79-4.69,1.79-6.48,0l-0.35-0.35
				c-2.13,2.48-4.86,4.44-7.96,5.68h7.22c4.15,0,8-1.33,11.15-3.56c-1.21-0.54-2.4-1.13-3.54-1.81L186.657,232.813z"/>
		</g>
	</g>
</g>
</svg>
