<svg id="Layer_1" data-name="Layer 1" xmlns="http://www.w3.org/2000/svg" viewBox="0 0 128 128"><title>BUILDING</title><rect x="15.5" y="105.058" width="97" height="7.442" style="fill:#11afff"/><rect x="22.625" y="97.616" width="82.75" height="7.442" style="fill:#36cef4"/><rect x="26.5" y="90.527" width="16" height="7.09" style="fill:#ff6100"/><rect x="29.833" y="44.756" width="9.333" height="45.77" style="fill:#fcad02"/><rect x="85.5" y="90.527" width="16" height="7.09" style="fill:#ff6100"/><rect x="26.5" y="37.667" width="16" height="7.09" style="fill:#ff6100"/><rect x="85.5" y="37.667" width="16" height="7.09" style="fill:#ff6100"/><rect x="88.833" y="44.756" width="9.333" height="45.77" style="fill:#fcad02"/><polygon points="64 15.5 15.5 37.667 112.5 37.667 64 15.5" style="fill:#11afff"/><rect x="60.5" y="37.667" width="7" height="59.95" style="fill:#fcad02"/><rect x="94.41" y="37.667" width="7.09" height="7.09" style="fill:#ef3f00"/><rect x="94.41" y="90.527" width="7.09" height="7.09" style="fill:#ef3f00"/><rect x="88.833" y="44.756" width="5.577" height="45.77" style="fill:#fcca03"/><rect x="35.41" y="37.667" width="7.09" height="7.09" style="fill:#ef3f00"/><rect x="35.41" y="90.527" width="7.09" height="7.09" style="fill:#ef3f00"/><rect x="29.833" y="44.756" width="5.577" height="45.77" style="fill:#fcca03"/><rect x="94.41" y="97.616" width="10.965" height="7.442" style="fill:#11afff"/><polygon points="15.5 37.667 94.41 37.667 54.955 19.634 15.5 37.667" style="fill:#36cef4"/><path d="M37.833,103.309a1.75,1.75,0,0,0,0,3.5h.625a1.75,1.75,0,1,0,0-3.5Z" style="fill:#5d0000"/><path d="M112.5,110.75H17.25v-3.941H31.5a1.75,1.75,0,0,0,0-3.5H24.375V99.366h79.25v3.942H45.083a1.75,1.75,0,0,0,0,3.5H112.5a1.75,1.75,0,0,0,0-3.5h-5.375V97.616a1.75,1.75,0,0,0-1.75-1.75H103.25v-5.34a1.75,1.75,0,0,0-1.75-1.75H99.917V46.506H101.5a1.75,1.75,0,0,0,1.75-1.75V39.417h9.25a1.75,1.75,0,0,0,.728-3.342L84.807,23.085a1.75,1.75,0,0,0-1.455,3.184l21.11,9.648H23.539L64,17.424l7.71,3.524a1.75,1.75,0,1,0,1.455-3.184l-8.437-3.856a1.752,1.752,0,0,0-1.455,0l-48.5,22.167a1.75,1.75,0,0,0,.728,3.342h9.25v5.339a1.75,1.75,0,0,0,1.75,1.75h1.583V82.5a1.75,1.75,0,0,0,3.5,0V46.506h5.833V88.776H26.5a1.75,1.75,0,0,0-1.75,1.75v5.34H22.625a1.75,1.75,0,0,0-1.75,1.75v5.692H15.5a1.75,1.75,0,0,0-1.75,1.75V112.5a1.75,1.75,0,0,0,1.75,1.75h97a1.75,1.75,0,0,0,0-3.5ZM69.25,95.866V39.417h14.5v5.339a1.75,1.75,0,0,0,1.75,1.75h1.583V88.776H85.5a1.75,1.75,0,0,0,0,3.5H99.75v3.59Zm27.167-7.09H90.583V46.506h5.834ZM99.75,43.006H87.25V39.417h12.5Zm-59-3.589v3.589H28.25V39.417Zm.167,7.089H42.5a1.75,1.75,0,0,0,1.75-1.75V39.417h21.5V95.866h-3.5V44.756a1.75,1.75,0,0,0-3.5,0v51.11H44.25v-5.34a1.75,1.75,0,0,0-1.75-1.75H40.917ZM28.25,92.276h12.5v3.59H28.25Z" style="fill:#5d0000"/><path d="M77.252,23.48l.37.169a1.75,1.75,0,1,0,1.453-3.184l-.37-.169a1.75,1.75,0,1,0-1.453,3.184Z" style="fill:#5d0000"/></svg>