<svg id="Layer_1" data-name="Layer 1" xmlns="http://www.w3.org/2000/svg" viewBox="0 0 128 128"><title>HOUSE</title><polygon points="43.667 26 34.75 26 34.75 43.452 43.667 39.831 43.667 26" style="fill:#cb6f2c"/><polygon points="43.667 39.831 43.667 26 39.208 26 39.208 41.642 43.667 39.831" style="fill:#af5819"/><polygon points="93.25 112.5 34.75 112.5 34.75 44.5 64 28.804 93.25 44.5 93.25 112.5" style="fill:#ffd89e"/><rect x="83.625" y="41.375" width="9.554" height="38.235" style="fill:#ffc65c"/><rect x="27.625" y="74.25" width="72.75" height="38.25" style="fill:#ffd89e"/><polygon points="27.625 112.5 15.5 112.5 15.5 87.5 27.625 79.25 27.625 112.5" style="fill:#fcca03"/><polygon points="100.375 112.5 112.5 112.5 112.5 87.5 100.375 79.25 100.375 112.5" style="fill:#fcad02"/><rect x="54" y="87.167" width="20" height="25.333" style="fill:#cb6f2c"/><rect x="36.61" y="87.167" width="8.405" height="14.603" style="fill:#36cef4"/><path d="M45.015,103.52h-8.4a1.75,1.75,0,0,1-1.75-1.75v-14.6a1.75,1.75,0,0,1,1.75-1.75h8.4a1.75,1.75,0,0,1,1.75,1.75v14.6A1.75,1.75,0,0,1,45.015,103.52Zm-6.654-3.5h4.9v-11.1h-4.9Z" style="fill:#fff"/><circle cx="64" cy="48.813" r="5.812" style="fill:#ef3f00"/><path d="M36.458,15.5a7.2,7.2,0,0,0-5.973,3.172,6.517,6.517,0,0,0-6.043.756,4.5,4.5,0,1,0-2.785,4.748c-.02.21-.032.422-.032.637a6.557,6.557,0,0,0,11.519,4.293A7.207,7.207,0,1,0,36.458,15.5Z" style="fill:#c2dbe5"/><polygon points="101.387 53.267 63.772 33.337 26.651 53.256 22.868 46.208 63.747 24.271 105.132 46.197 101.387 53.267" style="fill:#ff6100"/><rect x="91.5" y="74.25" width="8.875" height="38.25" style="fill:#ffc65c"/><rect x="82.985" y="87.167" width="8.405" height="14.603" style="fill:#36cef4"/><path d="M91.39,103.52h-8.4a1.75,1.75,0,0,1-1.75-1.75v-14.6a1.75,1.75,0,0,1,1.75-1.75h8.4a1.75,1.75,0,0,1,1.75,1.75v14.6A1.75,1.75,0,0,1,91.39,103.52Zm-6.654-3.5h4.9v-11.1h-4.9Z" style="fill:#fff"/><path d="M93.25,60.583H83.625V76H93.25A1.75,1.75,0,0,0,95,74.25V62.333A1.75,1.75,0,0,0,93.25,60.583ZM91.5,72.5H87.125V64.083H91.5Z" style="fill:#ef3f00"/><polygon points="63.747 24.271 83.625 43.856 101.387 53.267 105.132 46.197 63.747 24.271" style="fill:#ef3f00"/><rect x="65.75" y="87.167" width="8.25" height="25.333" style="fill:#af5819"/><path d="M61.75,43.452a5.814,5.814,0,0,0,0,10.721,5.814,5.814,0,0,0,0-10.721Z" style="fill:#ff6100"/><path d="M36.458,15.5a7.2,7.2,0,0,0-5.973,3.172,6.517,6.517,0,0,0-6.043.756,4.473,4.473,0,0,0-7.019-3.109,4.477,4.477,0,0,0,6.15,4.107c-.02.21-.032.422-.032.637a6.557,6.557,0,0,0,11.519,4.293,7.187,7.187,0,0,0,8.489-1.385,7.178,7.178,0,0,0-7.091-8.47Z" style="fill:#e0eff4"/><path d="M40.813,110.75H40a1.75,1.75,0,0,0,0,3.5h.813a1.75,1.75,0,1,0,0-3.5Z" style="fill:#5d0000"/><path d="M113.484,86.053l-11.359-7.729V74.25a1.75,1.75,0,0,0-1.75-1.75H95V51.863l5.567,2.95a1.75,1.75,0,0,0,2.366-.727l3.745-7.069a1.75,1.75,0,0,0-.727-2.366L81.709,31.807A1.75,1.75,0,1,0,80.071,34.9l22.7,12.025L100.66,50.9,64.591,31.791a1.753,1.753,0,0,0-1.647,0L27.366,50.887l-2.128-3.965L63.752,26.254l5.506,2.917A1.75,1.75,0,1,0,70.9,26.078l-6.331-3.354a1.753,1.753,0,0,0-1.647,0l-17.5,9.393V26a1.739,1.739,0,0,0-.31-.992,8.953,8.953,0,0,0-16.07-7.318,1.75,1.75,0,0,0,2.9,1.963,5.458,5.458,0,1,1,4.523,8.513,5.385,5.385,0,0,1-2.508-.615,1.75,1.75,0,0,0-2.129.407,4.807,4.807,0,0,1-8.447-3.146c0-.157.009-.313.024-.466a1.75,1.75,0,0,0-2.388-1.8,2.75,2.75,0,1,1,1.7-2.9,1.75,1.75,0,0,0,3.472-.446A6.24,6.24,0,1,0,20,26.25a8.3,8.3,0,0,0,13,5.332v7.2L22.041,44.666a1.751,1.751,0,0,0-.714,2.37l3.783,7.049a1.75,1.75,0,0,0,2.37.714l36.3-19.478L91.5,50.009V60.583h-55V56A1.75,1.75,0,0,0,33,56V72.5H27.625a1.75,1.75,0,0,0-1.75,1.75v4.074L14.516,86.053A1.75,1.75,0,0,0,13.75,87.5v25a1.75,1.75,0,0,0,1.75,1.75H33.833a1.75,1.75,0,1,0,0-3.5H17.25V88.426l8.625-5.868V105.5a1.75,1.75,0,0,0,3.5,0V76h69.25v34.75H55.75V88.917h16.5v16.416a1.75,1.75,0,0,0,3.5,0V87.167A1.75,1.75,0,0,0,74,85.417H54a1.75,1.75,0,0,0-1.75,1.75V110.75H47.417a1.75,1.75,0,0,0,0,3.5H112.5a1.75,1.75,0,0,0,1.75-1.75v-25A1.75,1.75,0,0,0,113.484,86.053ZM36.5,31.664A8.9,8.9,0,0,0,41.917,29.8V34L36.5,36.906ZM91.5,72.5H87.125V64.083H91.5ZM49.75,70.042a1.75,1.75,0,0,0,1.75-1.75V64.083h3.625V72.5H44.375V64.083H48v4.208A1.75,1.75,0,0,0,49.75,70.042Zm8.875-5.958H62.25V72.5H58.625Zm7.125,0h3.625v4.208a1.75,1.75,0,1,0,3.5,0V64.083H76.5V72.5H65.75Zm14.25,0h3.625V72.5H80Zm-39.125,0V72.5H36.5V64.083ZM110.75,110.75h-8.625V82.558l8.625,5.868Z" style="fill:#5d0000"/><path d="M46.765,101.77v-14.6a1.75,1.75,0,0,0-1.75-1.75h-8.4a1.75,1.75,0,0,0-1.75,1.75v14.6a1.75,1.75,0,0,0,1.75,1.75h8.4A1.75,1.75,0,0,0,46.765,101.77Zm-3.5-1.75h-4.9v-11.1h4.9Z" style="fill:#5d0000"/><path d="M91.39,103.52a1.75,1.75,0,0,0,1.75-1.75v-14.6a1.75,1.75,0,0,0-1.75-1.75h-8.4a1.75,1.75,0,0,0-1.75,1.75v14.6a1.75,1.75,0,0,0,1.75,1.75Zm-6.654-14.6h4.9v11.1h-4.9Z" style="fill:#5d0000"/><path d="M64,56.375a7.563,7.563,0,1,0-7.563-7.562A7.571,7.571,0,0,0,64,56.375ZM64,44.75a4.063,4.063,0,1,1-4.063,4.063A4.067,4.067,0,0,1,64,44.75Z" style="fill:#5d0000"/><path d="M74.73,32.07l.545.289a1.75,1.75,0,1,0,1.641-3.092l-.545-.289A1.75,1.75,0,1,0,74.73,32.07Z" style="fill:#5d0000"/></svg>