<svg id="Layer_1" data-name="Layer 1" xmlns="http://www.w3.org/2000/svg" viewBox="0 0 128 128"><title>MONEY</title><rect x="23.075" y="34.967" width="89.425" height="50.955" style="fill:#fcca03"/><rect x="15.5" y="42.078" width="89.425" height="50.955" style="fill:#92be00"/><path d="M97.942,80.154v-25.2a6.3,6.3,0,0,1-6.3-6.3H28.783a6.3,6.3,0,0,1-6.3,6.3v25.2a6.3,6.3,0,0,1,6.3,6.3H91.642A6.3,6.3,0,0,1,97.942,80.154Z" style="fill:#c2dbe5"/><rect x="97.942" y="42.078" width="6.983" height="50.955" style="fill:#74ac01"/><rect x="105.517" y="34.967" width="6.983" height="50.955" style="fill:#fcad02"/><path d="M91.692,78.154v-21.2c-3.479,0-6.3-4.821-6.3-8.3H28.783a6.3,6.3,0,0,1-6.3,6.3v25.2a6.3,6.3,0,0,1,6.3,6.3H85.392C85.392,82.974,88.213,78.154,91.692,78.154Z" style="fill:#e0eff4"/><ellipse cx="60.213" cy="67.555" rx="13.521" ry="18.898" style="fill:#fcad02"/><path d="M57.239,49.13c-6.035,1.9-10.548,9.417-10.548,18.425S51.2,84.085,57.239,85.98c6.035-1.9,10.548-9.417,10.548-18.425S63.275,51.026,57.239,49.13Z" style="fill:#fcca03"/><path d="M61.963,66.028V59.6a3.339,3.339,0,0,1,1.6,2.841,1.75,1.75,0,1,0,3.5,0,6.854,6.854,0,0,0-5.1-6.613V54.781a1.75,1.75,0,0,0-3.5,0v1.051a6.838,6.838,0,0,0,0,13.226v6.426a3.339,3.339,0,0,1-1.6-2.842,1.75,1.75,0,0,0-3.5,0,6.855,6.855,0,0,0,5.1,6.614V80.33a1.75,1.75,0,0,0,3.5,0V79.255a6.839,6.839,0,0,0,0-13.227Zm-5.1-3.584a3.339,3.339,0,0,1,1.6-2.841v5.683A3.339,3.339,0,0,1,56.864,62.444Zm5.1,13.039V69.8a3.325,3.325,0,0,1,0,5.684Z" style="fill:#e0eff4"/><path d="M112.5,33.217H50.667a1.75,1.75,0,0,0,0,3.5H110.75V85.922a1.75,1.75,0,0,0,3.5,0V34.967A1.75,1.75,0,0,0,112.5,33.217Z" style="fill:#5d0000"/><path d="M43.833,36.717h.917a1.75,1.75,0,0,0,0-3.5h-.917a1.75,1.75,0,0,0,0,3.5Z" style="fill:#5d0000"/><path d="M104.926,40.328h-80.1V36.717H37a1.75,1.75,0,0,0,0-3.5H23.075a1.75,1.75,0,0,0-1.75,1.75v5.361H15.5a1.75,1.75,0,0,0-1.75,1.75V93.033a1.75,1.75,0,0,0,1.75,1.75H77.292a1.75,1.75,0,0,0,0-3.5H17.25V43.828h85.926V91.283H90.833a1.75,1.75,0,0,0,0,3.5h14.093a1.75,1.75,0,0,0,1.75-1.75V42.078A1.75,1.75,0,0,0,104.926,40.328Z" style="fill:#5d0000"/><path d="M84.333,91.283h-.625a1.75,1.75,0,0,0,0,3.5h.625a1.75,1.75,0,0,0,0-3.5Z" style="fill:#5d0000"/><path d="M30.533,48.657a1.75,1.75,0,0,0-3.5,0,4.555,4.555,0,0,1-4.549,4.55,1.75,1.75,0,0,0-1.75,1.75v25.2a1.75,1.75,0,0,0,1.75,1.75,4.555,4.555,0,0,1,4.549,4.549,1.75,1.75,0,0,0,1.75,1.75h62.86a1.75,1.75,0,0,0,1.75-1.75,4.555,4.555,0,0,1,4.55-4.549,1.75,1.75,0,0,0,1.75-1.75v-25.2a1.75,1.75,0,0,0-1.75-1.75,4.555,4.555,0,0,1-4.55-4.55,1.75,1.75,0,0,0-1.75-1.75H36.625a1.75,1.75,0,0,0,0,3.5H51.718c-4.083,3.71-6.777,10.011-6.777,17.148S47.635,80.993,51.718,84.7H30.341A8.076,8.076,0,0,0,24.233,78.6V56.516A8.065,8.065,0,0,0,30.533,48.657Zm59.551,1.75a8.078,8.078,0,0,0,6.108,6.108V78.6A8.077,8.077,0,0,0,90.084,84.7H68.708c4.084-3.71,6.777-10.01,6.777-17.147s-2.693-13.438-6.777-17.148ZM48.441,67.556c0-9.456,5.28-17.148,11.771-17.148S71.984,58.1,71.984,67.556,66.7,84.7,60.212,84.7,48.441,77.011,48.441,67.556Z" style="fill:#5d0000"/><path d="M67.062,72.642a6.855,6.855,0,0,0-5.1-6.614V59.6a3.339,3.339,0,0,1,1.6,2.841,1.75,1.75,0,0,0,3.5,0,6.854,6.854,0,0,0-5.1-6.613V54.781a1.75,1.75,0,0,0-3.5,0v1.051a6.838,6.838,0,0,0,0,13.226v6.426a3.339,3.339,0,0,1-1.6-2.842,1.75,1.75,0,0,0-3.5,0,6.855,6.855,0,0,0,5.1,6.614V80.33a1.75,1.75,0,0,0,3.5,0V79.255A6.855,6.855,0,0,0,67.062,72.642Zm-10.2-10.2a3.339,3.339,0,0,1,1.6-2.841v5.683A3.339,3.339,0,0,1,56.864,62.444Zm5.1,13.039V69.8a3.325,3.325,0,0,1,0,5.684Z" style="fill:#5d0000"/></svg>