<svg id="Layer_1" data-name="Layer 1" xmlns="http://www.w3.org/2000/svg" viewBox="0 0 128 128"><title>ONLINE REAL ESTATE</title><rect x="15.5" y="20" width="97" height="69.075" style="fill:#e0eff4"/><rect x="24.293" y="20" width="79.413" height="69.075" style="fill:#36cef4"/><polygon points="63.991 37.642 50.293 44.89 50.293 66.667 59.308 66.667 59.308 56.939 68.674 56.939 68.674 66.667 77.689 66.667 77.689 44.957 63.991 37.642" style="fill:#ffd89e"/><polygon points="77.167 102.085 50.833 102.085 53.833 89.075 74.167 89.075 77.167 102.085" style="fill:#292929"/><path d="M52.04,102.085H75.96A5.915,5.915,0,0,1,81.875,108v0a0,0,0,0,1,0,0H46.125a0,0,0,0,1,0,0v0A5.915,5.915,0,0,1,52.04,102.085Z" style="fill:#ef3f00"/><rect x="71.974" y="43.909" width="5.715" height="22.758" style="fill:#ffc65c"/><rect x="53.598" y="56.939" width="5.715" height="9.728" style="fill:#ffc65c"/><path d="M81.5,48.726a1.739,1.739,0,0,1-.818-.2l-16.791-8.9L47.328,48.513a1.75,1.75,0,0,1-1.655-3.084L63.057,36.1a1.748,1.748,0,0,1,1.647,0L82.319,45.43a1.75,1.75,0,0,1-.821,3.3Z" style="fill:#ff6100"/><rect x="106.25" y="20" width="6.25" height="69.075" style="fill:#c2dbe5"/><rect x="97.457" y="20" width="6.25" height="69.075" style="fill:#11afff"/><polygon points="53.833 89.075 50.833 102.085 70.417 102.085 67.417 89.075 53.833 89.075" style="fill:#4f4f4f"/><path d="M70.417,102.085H52.04A5.915,5.915,0,0,0,46.125,108H76.332A5.915,5.915,0,0,0,70.417,102.085Z" style="fill:#ff6100"/><path d="M82.319,45.43,64.7,36.1a1.748,1.748,0,0,0-1.647,0L45.672,45.429a1.75,1.75,0,0,0,1.655,3.084L63.89,39.626l12.05,6.384V64.917H70.424V56.938a1.75,1.75,0,0,0-1.75-1.75H59.308a1.75,1.75,0,0,0-1.75,1.75v7.979H52.043V53a1.75,1.75,0,0,0-3.5,0V66.667a1.75,1.75,0,0,0,1.75,1.75h9.015a1.75,1.75,0,0,0,1.75-1.75V58.688h5.866v7.979a1.75,1.75,0,0,0,1.75,1.75h9.015a1.75,1.75,0,0,0,1.75-1.75v-18.8l1.241.658a1.75,1.75,0,1,0,1.639-3.092Z" style="fill:#5d0000"/><path d="M16.417,106.25H15.5a1.75,1.75,0,0,0,0,3.5h.917a1.75,1.75,0,0,0,0-3.5Z" style="fill:#5d0000"/><path d="M103.707,62.2a1.75,1.75,0,0,0,1.75-1.75v-1.32a1.75,1.75,0,0,0-3.5,0v1.32A1.75,1.75,0,0,0,103.707,62.2Z" style="fill:#5d0000"/><path d="M55.226,90.825H112.5a1.75,1.75,0,0,0,1.75-1.75V20a1.75,1.75,0,0,0-1.75-1.75h-97A1.75,1.75,0,0,0,13.75,20V89.075a1.75,1.75,0,0,0,1.75,1.75H51.634l-2.31,10.016a7.684,7.684,0,0,0-4.74,5.409H24.293a1.75,1.75,0,0,0,0,3.5H112.5a1.75,1.75,0,0,0,0-3.5H83.416a7.684,7.684,0,0,0-4.74-5.409L77.2,94.453a1.75,1.75,0,0,0-3.41.787l1.175,5.095H53.033ZM17.25,21.75h5.293V82.429a1.75,1.75,0,0,0,3.5,0V21.75h75.913V51.5a1.75,1.75,0,1,0,3.5,0V21.75h5.293V87.325h-5.293V67.555a1.75,1.75,0,0,0-3.5,0V87.325H17.25Zm31.024,84.5a4.161,4.161,0,0,1,3.766-2.415H75.96a4.161,4.161,0,0,1,3.766,2.415Z" style="fill:#5d0000"/></svg>