<svg id="Layer_1" data-name="Layer 1" xmlns="http://www.w3.org/2000/svg" viewBox="0 0 128 128"><title>PAINTING</title><rect x="15.5" y="47.299" width="97" height="60.888" style="fill:#cb6f2c"/><rect x="23.727" y="55.564" width="80.546" height="44.357" style="fill:#e0eff4"/><polygon points="90.973 99.921 54.616 99.921 72.794 63.564 90.973 99.921" style="fill:#11afff"/><circle cx="58.152" cy="64.626" r="4.41" style="fill:#ef3f00"/><circle cx="64" cy="23.938" r="5.875" style="fill:#fcad02"/><rect x="106.75" y="47.299" width="5.75" height="60.888" style="fill:#af5819"/><rect x="97.875" y="55.564" width="6.398" height="44.357" style="fill:#c2dbe5"/><polygon points="54.616 99.921 83.521 99.921 69.069 71.016 54.616 99.921" style="fill:#36cef4"/><path d="M61.687,18.539a5.872,5.872,0,0,0,0,10.8,5.872,5.872,0,0,0,0-10.8Z" style="fill:#fcca03"/><path d="M56.262,60.657a4.386,4.386,0,0,0,0,7.938,4.386,4.386,0,0,0,0-7.938Z" style="fill:#ff6100"/><polygon points="63.634 99.921 37.027 99.921 50.331 73.314 63.634 99.921" style="fill:#11afff"/><polygon points="37.027 99.921 57.301 99.921 47.164 79.647 37.027 99.921" style="fill:#36cef4"/><path d="M23.727,106.437H17.25V49.049H29.287l-.331.3a1.75,1.75,0,1,0,2.338,2.6l27.733-24.9a5.858,5.858,0,0,0,9.947,0l3.666,3.292a1.75,1.75,0,0,0,2.338-2.6L69.808,23.1a5.867,5.867,0,0,0-11.616,0L33.185,45.549H15.5a1.75,1.75,0,0,0-1.75,1.75v60.888a1.75,1.75,0,0,0,1.75,1.75h8.227a1.75,1.75,0,0,0,0-3.5ZM64,21.563a2.375,2.375,0,1,1-2.375,2.375A2.378,2.378,0,0,1,64,21.563Z" style="fill:#5d0000"/><path d="M32,106.437H31a1.75,1.75,0,0,0,0,3.5h1a1.75,1.75,0,0,0,0-3.5Z" style="fill:#5d0000"/><path d="M112.5,45.549h-9.25a1.75,1.75,0,0,0,0,3.5h7.5v57.388H38.917a1.75,1.75,0,0,0,0,3.5H112.5a1.75,1.75,0,0,0,1.75-1.75V47.3A1.75,1.75,0,0,0,112.5,45.549Z" style="fill:#5d0000"/><path d="M89.577,45.549H44a1.75,1.75,0,0,0,0,3.5H93.475l3.231,2.9a1.75,1.75,0,0,0,2.338-2.6L84.169,35.991a1.75,1.75,0,1,0-2.338,2.6Z" style="fill:#5d0000"/><path d="M77.476,34.686a1.75,1.75,0,1,0,2.342-2.6l-.283-.255a1.75,1.75,0,1,0-2.342,2.6Z" style="fill:#5d0000"/><path d="M21.977,55.563V99.921a1.75,1.75,0,0,0,1.75,1.75h80.547a1.75,1.75,0,0,0,1.75-1.75V55.563a1.75,1.75,0,0,0-1.75-1.75H23.727A1.75,1.75,0,0,0,21.977,55.563ZM60.8,98.171H39.859L50.33,77.227ZM25.477,57.313h77.047V98.171H64.716L61.082,90.9,72.795,67.477,85.478,92.843a1.75,1.75,0,0,0,3.131-1.564L74.36,62.781a1.75,1.75,0,0,0-3.131,0l-12.1,24.208L51.9,72.531a1.75,1.75,0,0,0-3.131,0L35.946,98.171H25.477Z" style="fill:#5d0000"/><path d="M58.152,70.063a5.438,5.438,0,0,0,0-10.875,1.75,1.75,0,0,0,0,3.5,1.938,1.938,0,1,1-1.937,1.938,1.75,1.75,0,0,0-3.5,0A5.444,5.444,0,0,0,58.152,70.063Z" style="fill:#5d0000"/></svg>