<svg id="Layer_1" data-name="Layer 1" xmlns="http://www.w3.org/2000/svg" viewBox="0 0 128 128"><title>TRUCK</title><polygon points="112.5 88.43 78.75 88.43 78.75 43.949 97 43.949 112.5 66.189 112.5 88.43" style="fill:#ef3f00"/><polygon points="90.833 43.949 78.75 43.949 78.75 88.43 106.333 88.43 106.333 66.189 90.833 43.949" style="fill:#ff6100"/><circle cx="95.625" cy="88.43" r="8.25" style="fill:#292929"/><rect x="15.5" y="77.756" width="63.25" height="10.674" style="fill:#92be00"/><circle cx="41.338" cy="88.43" r="8.25" style="fill:#292929"/><path d="M39.213,80.467a8.239,8.239,0,0,0,0,15.927,8.239,8.239,0,0,0,0-15.927Z" style="fill:#4f4f4f"/><path d="M93.5,80.467a8.239,8.239,0,0,0,0,15.927,8.239,8.239,0,0,0,0-15.927Z" style="fill:#4f4f4f"/><rect x="15.5" y="31.32" width="63.25" height="46.437" style="fill:#ffd89e"/><circle cx="41.338" cy="88.43" r="3.056" style="fill:#fff"/><circle cx="95.625" cy="88.43" r="3.056" style="fill:#fff"/><polygon points="112.5 66.189 97 43.949 85.5 43.949 85.5 66.189 112.5 66.189" style="fill:#11afff"/><rect x="27.333" y="31.32" width="5" height="46.437" style="fill:#cb6f2c"/><rect x="44.625" y="31.32" width="5" height="46.437" style="fill:#cb6f2c"/><rect x="61.917" y="31.32" width="5" height="46.437" style="fill:#cb6f2c"/><polygon points="85.5 43.949 85.5 66.189 106.333 66.189 90.833 43.949 85.5 43.949" style="fill:#36cef4"/><rect x="71.245" y="31.32" width="7.505" height="46.437" style="fill:#ffc65c"/><rect x="71.245" y="77.756" width="7.505" height="10.674" style="fill:#74ac01"/><path d="M101.559,53.552l.24.344a1.75,1.75,0,0,0,2.869-2.006l-.24-.344a1.75,1.75,0,1,0-2.869,2.006Z" style="fill:#5d0000"/><path d="M41.338,85.374a3.056,3.056,0,1,0,3.056,3.057A3.06,3.06,0,0,0,41.338,85.374Z" style="fill:#5d0000"/><path d="M95.625,91.486a3.056,3.056,0,1,0-3.056-3.056A3.06,3.06,0,0,0,95.625,91.486Z" style="fill:#5d0000"/><path d="M114.178,65.719c-.01-.034-.019-.067-.031-.1a1.747,1.747,0,0,0-.207-.422l0-.008-6.182-8.869a1.75,1.75,0,0,0-2.871,2l4.264,6.118H87.25V50.25a1.75,1.75,0,0,0-3.5,0V66.189a1.75,1.75,0,0,0,1.75,1.75h25.25V86.681H110a1.75,1.75,0,0,0,0,3.5h2.5a1.75,1.75,0,0,0,1.75-1.75V66.189A1.731,1.731,0,0,0,114.178,65.719Z" style="fill:#5d0000"/><path d="M112.5,94.931h-9.291a9.992,9.992,0,1,0-17.42-8.25H80.5V45.7H96.087l2.037,2.924a1.75,1.75,0,1,0,2.871-2l-2.56-3.673A1.751,1.751,0,0,0,97,42.2H80.5V31.319a1.75,1.75,0,0,0-1.75-1.75H15.5a1.75,1.75,0,0,0-1.75,1.75V88.431a1.75,1.75,0,0,0,1.75,1.75h16a9.957,9.957,0,0,0,2.253,4.75H22.187a1.75,1.75,0,0,0,0,3.5H112.5a1.75,1.75,0,0,0,0-3.5Zm-16.875-13a6.5,6.5,0,1,1-6.5,6.5A6.508,6.508,0,0,1,95.625,81.931Zm-9.837,8.25a9.957,9.957,0,0,0,2.253,4.75H48.922a9.969,9.969,0,0,0-3.1-15.424H77v7.174H56.5a1.75,1.75,0,0,0,0,3.5H85.788ZM46.375,33.069H60.167V76.007H51.375V38a1.75,1.75,0,0,0-3.5,0V76.007h-1.5ZM77,43.948V76.007H68.667V33.069H77ZM65.167,33.069V76.007h-1.5V33.069Zm-34.584,0v38.6a1.75,1.75,0,0,0,3.5,0v-38.6h8.792V76.007H29.083V33.069Zm-13.333,0h8.333V76.007H17.25Zm0,46.438h19.6A10.017,10.017,0,0,0,31.5,86.681H17.25Zm17.588,8.924a6.5,6.5,0,1,1,6.5,6.5A6.508,6.508,0,0,1,34.838,88.431Z" style="fill:#5d0000"/><path d="M16.125,94.931H15.5a1.75,1.75,0,0,0,0,3.5h.625a1.75,1.75,0,0,0,0-3.5Z" style="fill:#5d0000"/></svg>