<svg id="Layer_1" data-name="Layer 1" xmlns="http://www.w3.org/2000/svg" viewBox="0 0 128 128"><title>WALLET</title><rect x="17.911" y="42.879" width="89.904" height="69.621" style="fill:#cb6f2c"/><rect x="99.667" y="51.43" width="8.149" height="61.07" style="fill:#af5819"/><path d="M93.523,71.673h16.565a0,0,0,0,1,0,0V92.047a0,0,0,0,1,0,0H93.523A10.187,10.187,0,0,1,83.336,81.86v0A10.187,10.187,0,0,1,93.523,71.673Z" style="fill:#fcca03"/><rect x="99.667" y="71.673" width="10.422" height="20.374" style="fill:#fcad02"/><path d="M26.874,33.505h80.942a0,0,0,0,1,0,0V51.43a0,0,0,0,1,0,0H26.874a8.963,8.963,0,0,1-8.963-8.963v0a8.963,8.963,0,0,1,8.963-8.963Z" style="fill:#fcca03"/><rect x="44.898" y="12.992" width="35.93" height="40.946" transform="translate(96.328 -29.398) rotate(90)" style="fill:#92be00"/><circle cx="93.719" cy="81.86" r="4.137" style="fill:#e0eff4"/><path d="M75.514,51.43V30.391A4.217,4.217,0,0,1,71.3,26.174H54.43a4.217,4.217,0,0,1-4.217,4.217V51.43Z" style="fill:#e0eff4"/><path d="M62.863,42.379c-6.987,0-12.651,4.052-12.651,9.051h25.3C75.514,46.431,69.85,42.379,62.863,42.379Z" style="fill:#fcad02"/><rect x="99.667" y="33.465" width="8.149" height="17.965" style="fill:#fcad02"/><rect x="61.46" y="29.554" width="35.93" height="7.823" transform="translate(112.89 -45.96) rotate(90)" style="fill:#74ac01"/><path d="M17.911,98.681a1.75,1.75,0,0,0,1.75-1.75V95.375a1.75,1.75,0,0,0-3.5,0v1.556A1.75,1.75,0,0,0,17.911,98.681Z" style="fill:#5d0000"/><path d="M107.815,96.681a1.75,1.75,0,0,0-1.75,1.75V110.75h-86.4v-6.5a1.75,1.75,0,0,0-3.5,0v8.25a1.75,1.75,0,0,0,1.75,1.75h89.9a1.75,1.75,0,0,0,1.75-1.75V98.431A1.75,1.75,0,0,0,107.815,96.681Z" style="fill:#5d0000"/><path d="M56,17.25h.813a1.75,1.75,0,0,0,0-3.5H56a1.75,1.75,0,0,0,0,3.5Z" style="fill:#5d0000"/><path d="M110.089,69.923h-.523V33.5a1.75,1.75,0,0,0-1.75-1.75H90.25a1.75,1.75,0,0,0,0,3.5h15.815V49.681H85.086V15.5a1.75,1.75,0,0,0-1.75-1.75H62.863a1.75,1.75,0,0,0,0,3.5H81.586V49.681H77.264V30.391a1.75,1.75,0,0,0-1.75-1.75,2.469,2.469,0,0,1-2.467-2.467,1.75,1.75,0,0,0-1.75-1.75H54.43a1.75,1.75,0,0,0-1.75,1.75,2.469,2.469,0,0,1-2.467,2.467,1.75,1.75,0,0,0-1.75,1.75v19.29H26.874a7.213,7.213,0,1,1,0-14.426H40.64V43.9a1.75,1.75,0,0,0,3.5,0V17.25h6.073a1.75,1.75,0,1,0,0-3.5H42.39a1.75,1.75,0,0,0-1.75,1.75V31.755H26.874A10.725,10.725,0,0,0,16.161,42.468c0,.092.012.182.014.273,0,.046-.014.091-.014.138V87.625a1.75,1.75,0,0,0,3.5,0V50.365a10.658,10.658,0,0,0,7.213,2.815h79.191V69.923H93.523a11.937,11.937,0,1,0,0,23.874h16.565a1.75,1.75,0,0,0,1.75-1.75V71.673A1.75,1.75,0,0,0,110.089,69.923Zm-54.171-42H69.809a5.99,5.99,0,0,0,3.955,3.955V44.392a16.684,16.684,0,0,0-10.9-3.764,16.684,16.684,0,0,0-10.9,3.764V31.879A5.99,5.99,0,0,0,55.918,27.924Zm17.5,21.757H52.307c1.207-3.144,5.546-5.552,10.556-5.552S72.212,46.536,73.419,49.681ZM108.339,90.3H93.523a8.437,8.437,0,1,1,0-16.874h14.815Z" style="fill:#5d0000"/><path d="M93.72,77.723a4.137,4.137,0,1,0,4.137,4.138A4.143,4.143,0,0,0,93.72,77.723Z" style="fill:#5d0000"/></svg>