<svg id="Layer_3" data-name="Layer 3" xmlns="http://www.w3.org/2000/svg" viewBox="0 0 128 128"><title>Artboard 108</title><path d="M53.889,62.105s23.355-.334,23.355,25.022c0-25.356,23.355-25.022,23.355-25.023s-23.355.334-23.355-25.023C77.244,62.437,53.889,62.1,53.889,62.105Z" style="fill:#3bb7d6"/><path d="M79.856,49.772A28.642,28.642,0,0,1,77.244,37.08c0,24.529-21.851,25.018-23.279,25.025A27.187,27.187,0,0,1,64.81,64.733C70.215,63.106,77.143,59.185,79.856,49.772Z" style="fill:#7ccbd8"/><path d="M27.416,83.767S44.1,83.527,44.1,101.641c0-18.113,16.682-17.874,16.682-17.876S44.1,84,44.1,65.891C44.1,84,27.416,83.765,27.416,83.767Z" style="fill:#3bb7d6"/><path d="M46.419,75.822a19.751,19.751,0,0,1-2.32-9.931c0,17.536-15.634,17.87-16.631,17.876a19.291,19.291,0,0,1,8.722,2.388A15.153,15.153,0,0,0,46.419,75.822Z" style="fill:#7ccbd8"/><path d="M38.471,40.659s13.346-.19,13.346,14.3c0-14.489,13.346-14.3,13.346-14.3s-13.346.191-13.346-14.3C51.817,40.85,38.471,40.658,38.471,40.659Z" style="fill:#3bb7d6"/><path d="M53.963,34.8a15.436,15.436,0,0,1-2.146-8.438c0,14.025-12.5,14.3-13.3,14.3a15.327,15.327,0,0,1,7.439,2.185A12.1,12.1,0,0,0,53.963,34.8Z" style="fill:#7ccbd8"/><path d="M78.579,37.08a1.335,1.335,0,1,0-2.669,0c0,22.875-19.693,23.674-21.938,23.69h-.085a1.257,1.257,0,0,0-.77.258,1.291,1.291,0,0,0-.386.415,1.336,1.336,0,0,0,1.153,2h.094c2.273.016,21.932.817,21.932,23.687a1.335,1.335,0,1,0,2.669,0c0-22.853,19.658-23.672,21.933-23.689h.09a1.409,1.409,0,0,0,1.156-.672,1.336,1.336,0,0,0-.052-1.336,1.406,1.406,0,0,0-1.115-.658h-.073C98.271,60.755,78.579,59.971,78.579,37.08Zm-1.333,40.35c-2.9-9.483-9.989-13.567-15.587-15.328,5.6-1.763,12.68-5.85,15.585-15.325,2.9,9.483,9.988,13.569,15.587,15.329C87.233,63.87,80.15,67.957,77.245,77.431Z" style="fill:#001a2d"/><path d="M53.151,54.958c0-12.5,10.71-12.956,11.967-12.965h.061a1.314,1.314,0,0,0,1.293-1.348,1.353,1.353,0,0,0-1.325-1.322h-.025C63.9,39.317,53.151,38.9,53.151,26.359a1.335,1.335,0,1,0-2.669,0c0,12.525-10.747,12.957-11.972,12.965h-.039a1.358,1.358,0,0,0-.148.008,1.335,1.335,0,0,0,.147,2.661.236.236,0,0,1,.047,0c1.249.008,11.966.443,11.966,12.964a1.335,1.335,0,1,0,2.669,0Zm-8.5-14.271a13.384,13.384,0,0,0,7.158-7.112,13.161,13.161,0,0,0,7.176,7.057,13.377,13.377,0,0,0-7.158,7.111A13.158,13.158,0,0,0,44.65,40.687Z" style="fill:#001a2d"/><path d="M61.057,82.461a1.388,1.388,0,0,0-.278-.029h-.042c-1.566-.009-15.3-.555-15.3-16.541a1.335,1.335,0,1,0-2.669,0c0,15.986-13.738,16.532-15.3,16.541h-.042a1.389,1.389,0,0,0-.278.029,1.335,1.335,0,0,0,.282,2.64h.046c1.587.007,15.3.534,15.3,16.539a1.335,1.335,0,1,0,2.669,0c0-16,13.709-16.532,15.3-16.539h.046a1.335,1.335,0,0,0,.281-2.64ZM44.1,93.5a16.3,16.3,0,0,0-9.946-9.738A16.328,16.328,0,0,0,44.1,74.028l0,.006,0-.006a16.328,16.328,0,0,0,9.943,9.733A16.3,16.3,0,0,0,44.1,93.5Z" style="fill:#001a2d"/></svg>