<?xml version="1.0" encoding="utf-8"?>
<!-- Generator: Adobe Illustrator 22.0.1, SVG Export Plug-In . SVG Version: 6.00 Build 0)  -->
<svg version="1.1" id="Layer_1" xmlns="http://www.w3.org/2000/svg" xmlns:xlink="http://www.w3.org/1999/xlink" x="0px" y="0px"
	 viewBox="0 0 128 128" style="enable-background:new 0 0 128 128;" xml:space="preserve">
<style type="text/css">
	.st0{fill:#3A2C60;}
	.st1{fill:#E6E7E8;}
	.st2{fill:#6DC9F7;}
	.st3{fill:#FFFFFF;}
	.st4{fill:#FA759E;}
	.st5{fill:#FFD7E5;}
	.st6{fill:#D4FBFF;}
	.st7{fill:#0089EF;}
</style>
<g>
	<g>
		<path class="st1" d="M123.677,122.875h-3.359v-1.271c0-2.175-1.77-3.945-3.944-3.945h-0.912V80.694v-1.013
			c0-6.466-5.261-11.727-11.728-11.727c-6.466,0-11.727,5.261-11.727,11.727v6.506c0,0.268-0.013,0.536-0.037,0.802H73.947
			c-1.831,0-3.577,0.362-5.186,0.998V56.871h2.079c0.553,0,1-0.448,1-1v-6.468c0-0.552-0.447-1-1-1h-1.239l-2.227-5.726
			L61.651,27.96c-0.149-0.382-0.516-0.635-0.926-0.638c-0.451-0.001-0.78,0.246-0.934,0.626l-8.244,20.455h-1.285
			c-0.552,0-1,0.448-1,1v6.468c0,0.552,0.448,1,1,1h2.297v5.225h-1v-0.277c0-0.552-0.448-1-1-1h-2.473c-0.552,0-1,0.448-1,1v0.277
			h-1.377v-0.277c0-0.552-0.448-1-1-1h-3.023c-0.552,0-1,0.448-1,1v0.277h-1.377v-0.277c0-0.552-0.448-1-1-1h-2.473
			c-0.552,0-1,0.448-1,1v0.277h-1.213v-5.225h2.011c0.552,0,1-0.448,1-1v-6.468c0-0.552-0.448-1-1-1h-1.239l-2.227-5.726
			L26.444,27.96c-0.149-0.382-0.516-0.635-0.926-0.638c-0.373-0.001-0.78,0.246-0.934,0.626L16.34,48.403h-1.285
			c-0.552,0-1,0.448-1,1v6.468c0,0.552,0.448,1,1,1h2.366v40.207c-2.102,1.426-3.486,3.835-3.486,6.561s1.384,5.135,3.486,6.561
			v7.46h-1.494c-2.175,0-3.944,1.77-3.944,3.945v1.271H8.323c-0.552,0-1,0.448-1,1s0.448,1,1,1h4.659h106.335h4.359
			c0.553,0,1-0.448,1-1S124.229,122.875,123.677,122.875z M100.083,109.984H88.704v-3.029h11.379V109.984z M102.083,106.956h2.928
			c0.835,0,1.515,0.679,1.515,1.514s-0.68,1.515-1.515,1.515h-2.928V106.956z M86.704,109.984H75.326v-3.373
			c0.628,0.219,1.299,0.344,2.001,0.344h9.377V109.984z M83.431,94.764h-6.104c-0.702,0-1.373,0.125-2.001,0.344v-2.688h13.991
			C87.742,93.913,85.649,94.764,83.431,94.764z M73.326,96.272c-1.281,1.118-2.095,2.758-2.095,4.588s0.814,3.47,2.095,4.588v4.505
			c-1.702-0.121-3.268-0.731-4.564-1.694V94.138c1.297-0.958,2.862-1.565,4.564-1.685V96.272z M68.762,117.659v-3.238
			c1.424,0.562,2.96,0.894,4.564,0.964v2.274H68.762z M75.326,117.659v-2.243h11.378v2.243H75.326z M77.327,101.525
			c-0.366,0-0.664-0.298-0.664-0.665s0.298-0.665,0.664-0.665h6.104c1.119,0,2.215-0.141,3.273-0.396v1.726H77.327z M100.083,74.563
			V86.99h-2.667c0.015-0.267,0.022-0.534,0.022-0.802v-6.506C97.438,77.572,98.485,75.706,100.083,74.563z M110.029,80.694
			c0,3.471-2.824,6.295-6.296,6.295h-1.65V73.613c0.527-0.144,1.079-0.227,1.65-0.227c3.472,0,6.296,2.824,6.296,6.295V80.694z
			 M88.704,117.659v-2.243h11.379v2.243H88.704z M88.704,101.525v-2.371c3.111-1.268,5.724-3.63,7.27-6.733h4.109v9.104H88.704z
			 M113.461,117.659h-11.378v-2.243h2.928c3.83,0,6.946-3.116,6.946-6.946c0-3.83-3.116-6.945-6.946-6.945h-2.928v-9.104h1.65
			c4.046,0,7.619-2.059,9.728-5.184V117.659z"/>
		<path class="st1" d="M85.335,52.537c0,1.21,0.946,2.194,2.136,2.275v3.347h-0.047c-0.553,0-1,0.448-1,1
			c0,3.739,3.042,6.782,6.781,6.782s6.781-3.042,6.781-6.782c0-0.552-0.447-1-1-1h-0.047v-3.349c1.18-0.092,2.115-1.07,2.115-2.273
			c0-0.628-0.254-1.196-0.665-1.611c0.448-0.471,0.898-0.952,1.351-1.444c0.047-0.051,0.096-0.103,0.143-0.154
			c0.708-0.771,1.415-1.567,2.117-2.378c0.05-0.058,0.1-0.115,0.15-0.173c2.223-2.579,4.356-5.323,6.112-8.068
			c0.002-0.003,0.004-0.004,0.006-0.007c0.009-0.014,0.017-0.027,0.026-0.041c0.256-0.401,0.501-0.8,0.739-1.2
			c0.071-0.119,0.14-0.236,0.209-0.354c0.197-0.339,0.389-0.676,0.572-1.013c0.032-0.058,0.07-0.12,0.101-0.179
			c0.005-0.01,0.004-0.02,0.009-0.03c0.589-1.1,1.094-2.188,1.503-3.256c0.01-0.022,0.029-0.036,0.038-0.059
			c0.055-0.143,0.093-0.28,0.144-0.421c0.081-0.228,0.161-0.456,0.232-0.681c0.089-0.281,0.165-0.556,0.238-0.829
			c0.055-0.206,0.111-0.412,0.157-0.615c0.067-0.301,0.116-0.592,0.163-0.883c0.027-0.169,0.062-0.34,0.082-0.507
			c0.055-0.457,0.088-0.903,0.088-1.332c0-11.676-9.499-21.176-21.176-21.176s-21.176,9.5-21.176,21.176
			c0,7.066,7.358,16.428,14.002,23.441C85.685,51.161,85.335,51.806,85.335,52.537z M92.363,58.159v-3.332h1.684v3.332H92.363z
			 M89.471,54.827h0.893v3.332h-0.893V54.827z M96.047,58.159v-3.332h0.893v3.332H96.047z"/>
	</g>
	<g>
		<g>
			<polygon class="st4" points="13.528,46.403 13.528,47.68 16.905,47.68 16.905,46.403 19.377,46.403 19.377,47.68 22.754,47.68 
				22.754,46.403 23.305,46.403 25.227,46.403 25.778,46.403 25.778,47.68 29.155,47.68 29.155,46.403 29.712,46.403 27.237,40.039 
				24.421,32.8 21.512,25.322 13.016,46.403 			"/>
			<polygon class="st4" points="48.734,46.403 48.734,47.68 52.111,47.68 52.111,46.403 54.584,46.403 54.584,47.68 57.961,47.68 
				57.961,46.403 58.512,46.403 60.433,46.403 60.984,46.403 60.984,47.68 64.361,47.68 64.361,46.403 64.919,46.403 62.443,40.039 
				59.627,32.8 56.719,25.322 48.222,46.403 			"/>
			<g>
				<g>
					<polygon class="st5" points="49.559,52.871 49.559,62.086 28.623,62.086 28.623,52.871 14.421,52.871 14.421,62.086 
						14.421,115.659 63.762,115.659 63.762,62.086 63.762,52.871 					"/>
					<polygon class="st2" points="49.936,58.819 49.936,60.096 46.559,60.096 46.559,58.819 44.087,58.819 44.087,60.096 
						40.71,60.096 40.71,58.819 37.686,58.819 37.686,60.096 34.309,60.096 34.309,58.819 31.837,58.819 31.837,60.096 
						28.46,60.096 28.46,58.819 25.987,58.819 25.987,60.096 25.987,65.287 52.408,65.287 52.408,60.096 52.408,58.819 					"/>
				</g>
				<path class="st7" d="M21.345,68.772c-1.681,0-3.044,1.363-3.044,3.044v6.155h6.089v-6.155
					C24.389,70.135,23.026,68.772,21.345,68.772z"/>
				<path class="st7" d="M57.146,68.772c-1.681,0-3.044,1.363-3.044,3.044v6.155h6.089v-6.155
					C60.19,70.135,58.827,68.772,57.146,68.772z"/>
				<polygon class="st2" points="31.635,46.403 29.155,46.403 29.155,47.68 25.778,47.68 25.778,46.403 25.227,46.403 
					23.305,46.403 22.754,46.403 22.754,47.68 19.377,47.68 19.377,46.403 16.905,46.403 16.905,47.68 13.528,47.68 13.528,46.403 
					11.055,46.403 11.055,47.68 11.055,52.871 31.635,52.871 				"/>
				<polygon class="st2" points="66.841,46.403 64.361,46.403 64.361,47.68 60.984,47.68 60.984,46.403 60.433,46.403 
					58.512,46.403 57.961,46.403 57.961,47.68 54.584,47.68 54.584,46.403 52.111,46.403 52.111,47.68 48.734,47.68 48.734,46.403 
					46.262,46.403 46.262,47.68 46.262,52.871 66.841,52.871 				"/>
			</g>
			<polygon class="st2" points="49.936,58.819 49.936,60.096 46.559,60.096 46.559,58.819 44.087,58.819 44.087,60.096 
				40.71,60.096 40.71,58.819 37.686,58.819 37.686,60.096 34.309,60.096 34.309,58.819 31.837,58.819 31.837,60.096 28.46,60.096 
				28.46,58.819 25.987,58.819 25.987,60.096 25.987,65.287 52.408,65.287 52.408,60.096 52.408,58.819 			"/>
			<path class="st2" d="M39.043,90.636c-2.891,0-5.234,2.343-5.234,5.234v19.789h10.468V95.87
				C44.277,92.979,41.933,90.636,39.043,90.636z"/>
			<path class="st3" d="M40.543,90.881c-0.478-0.144-0.975-0.245-1.5-0.245c-2.891,0-5.234,2.343-5.234,5.234v19.789h3V95.87
				C36.809,93.504,38.388,91.529,40.543,90.881z"/>
		</g>
		<path class="st2" d="M99.734,65.955c-5.915,0-10.727,4.812-10.727,10.727v6.506c0,0.616-0.058,1.218-0.17,1.802h-18.89
			c-7.272,0-13.189,5.916-13.189,13.238c0,7.272,5.916,13.189,13.189,13.189h31.064c3.278,0,5.946-2.667,5.946-5.946
			c0-3.278-2.667-5.946-5.946-5.946H73.327c-0.918,0-1.664-0.747-1.664-1.664c0-0.918,0.747-1.664,1.664-1.664h6.104
			c5.312,0,9.89-3.201,11.908-7.775h8.395c5.915,0,10.727-4.812,10.727-10.727v-1.012C110.461,70.767,105.649,65.955,99.734,65.955z
			 M79.431,92.764h-6.104c-2.81,0-5.096,2.286-5.096,5.096c0,2.81,2.286,5.096,5.096,5.096h27.684c1.386,0,2.514,1.128,2.514,2.514
			c0,1.387-1.128,2.515-2.514,2.515H69.947c-5.38,0-9.757-4.377-9.757-9.806c0-5.38,4.377-9.757,9.757-9.757h17.5
			C85.736,91.034,82.781,92.764,79.431,92.764z M107.03,77.694c0,4.023-3.273,7.295-7.296,7.295h-7.42
			c0.082-0.589,0.124-1.191,0.124-1.802v-6.506c0-4.023,3.273-7.295,7.295-7.295s7.296,3.273,7.296,7.295V77.694z"/>
		<path class="st4" d="M112.373,115.659H11.927c-1.626,0-2.945,1.318-2.945,2.945v2.271h106.335v-2.271
			C115.317,116.977,113.999,115.659,112.373,115.659z"/>
		
			<ellipse transform="matrix(0.3827 -0.9239 0.9239 0.3827 -81.9526 78.6257)" class="st7" cx="17.859" cy="100.638" rx="6.924" ry="6.924"/>
		<circle class="st7" cx="47.589" cy="103.91" r="5.707"/>
		<g>
			<g>
				<g>
					<path class="st4" d="M109.569,24.301c0-11.143-9.033-20.176-20.176-20.176s-20.176,9.033-20.176,20.176
						c0,7.399,8.892,17.793,14.869,23.946H94.7C100.677,42.094,109.569,31.7,109.569,24.301z"/>
					<path class="st5" d="M103.63,21.983c0-11.143-6.374-17.857-14.237-17.857S75.156,10.84,75.156,21.983
						c0,7.399,6.274,20.111,10.493,26.264h7.489C97.356,42.094,103.63,29.381,103.63,21.983z"/>
					<path class="st4" d="M95.491,20.517c0-11.143-2.73-16.392-6.098-16.392c-3.368,0-6.098,5.25-6.098,16.392
						c0,7.399,2.688,21.576,4.494,27.729h3.208C92.804,42.094,95.491,27.916,95.491,20.517z"/>
				</g>
				<path class="st7" d="M94.764,48.246H83.625c-0.713,0-1.29,0.578-1.29,1.29c0,0.713,0.578,1.29,1.29,1.29h11.139
					c0.713,0,1.29-0.578,1.29-1.29C96.054,48.824,95.477,48.246,94.764,48.246z"/>
			</g>
			<g>
				<path class="st7" d="M83.423,56.159c0,3.193,2.589,5.782,5.782,5.782c3.193,0,5.782-2.589,5.782-5.782H83.423z"/>
				<g>
					<path class="st0" d="M24.39,78.972c0.552,0,1-0.448,1-1v-6.155c0-2.23-1.814-4.044-4.044-4.044s-4.044,1.814-4.044,4.044v6.155
						c0,0.552,0.448,1,1,1H24.39z M19.301,71.816c0-1.127,0.917-2.044,2.044-2.044s2.044,0.917,2.044,2.044v5.155h-4.089V71.816z"/>
					<path class="st0" d="M53.101,77.972c0,0.552,0.448,1,1,1h6.089c0.552,0,1-0.448,1-1v-6.155c0-2.23-1.814-4.044-4.044-4.044
						s-4.044,1.814-4.044,4.044V77.972z M55.101,71.816c0-1.127,0.917-2.044,2.044-2.044s2.044,0.917,2.044,2.044v5.155h-4.089
						V71.816z"/>
					<path class="st0" d="M119.677,119.875h-3.359v-1.271c0-2.175-1.77-3.944-3.944-3.944h-0.912V77.694v-1.013
						c0-6.466-5.261-11.727-11.728-11.727c-6.466,0-11.727,5.261-11.727,11.727v6.506c0,0.268-0.013,0.535-0.037,0.802H69.947
						c-1.831,0-3.577,0.362-5.186,0.998V53.87h2.079c0.553,0,1-0.448,1-1v-6.467c0-0.552-0.447-1-1-1h-1.239L57.651,24.96
						c-0.149-0.382-0.516-0.635-0.926-0.638c-0.002,0-0.004,0-0.006,0c-0.408,0-0.775,0.248-0.928,0.626l-8.244,20.455h-1.285
						c-0.552,0-1,0.448-1,1v6.467c0,0.552,0.448,1,1,1h2.297v5.225h-1v-0.276c0-0.552-0.448-1-1-1h-2.473c-0.552,0-1,0.448-1,1
						v0.276h-1.377v-0.276c0-0.552-0.448-1-1-1h-3.023c-0.552,0-1,0.448-1,1v0.276h-1.377v-0.276c0-0.552-0.448-1-1-1h-2.473
						c-0.552,0-1,0.448-1,1v0.276h-1.213V53.87h2.011c0.552,0,1-0.448,1-1v-6.467c0-0.552-0.448-1-1-1h-1.239L22.444,24.96
						c-0.149-0.382-0.516-0.635-0.926-0.638c-0.002,0-0.004,0-0.006,0c-0.408,0-0.775,0.248-0.928,0.626L12.34,45.403h-1.285
						c-0.552,0-1,0.448-1,1v6.467c0,0.552,0.448,1,1,1h2.366v40.207c-2.102,1.426-3.486,3.835-3.486,6.561s1.384,5.135,3.486,6.561
						v7.46h-1.494c-2.175,0-3.944,1.77-3.944,3.944v1.271H4.323c-0.552,0-1,0.448-1,1s0.448,1,1,1h4.659h106.335h4.359
						c0.553,0,1-0.448,1-1S120.229,119.875,119.677,119.875z M109.461,114.659H98.083v-2.243h2.928c3.83,0,6.946-3.116,6.946-6.946
						c0-3.83-3.116-6.945-6.946-6.945h-2.928v-9.104h1.65c4.046,0,7.619-2.059,9.728-5.184V114.659z M84.704,114.659v-2.243h11.379
						v2.243H84.704z M71.326,114.659v-2.243h11.378v2.243H71.326z M64.762,114.659v-3.238c1.424,0.562,2.96,0.894,4.564,0.964v2.275
						H64.762z M62.762,110.441v4.218h-4.813v-8.894C59.157,107.682,60.808,109.287,62.762,110.441z M73.327,98.525
						c-0.366,0-0.664-0.298-0.664-0.665s0.298-0.665,0.664-0.665h6.104c1.119,0,2.215-0.141,3.273-0.396v1.726H73.327z
						 M84.704,96.154c3.111-1.269,5.724-3.631,7.27-6.733h4.109v9.104H84.704V96.154z M88.837,85.99h3.477h7.42
						c4.574,0,8.296-3.721,8.296-8.295v-1.013c0-4.574-3.722-8.295-8.296-8.295s-8.295,3.721-8.295,8.295v6.506
						c0,0.268-0.01,0.536-0.028,0.802h-1.442c0.02-0.267,0.038-0.534,0.038-0.802v-6.506c0-5.363,4.363-9.727,9.727-9.727
						c5.364,0,9.728,4.363,9.728,9.727v1.013c0,5.363-4.363,9.727-9.728,9.727h-8.395h-3.892h-17.5
						c-5.932,0-10.757,4.826-10.757,10.758c0,5.958,4.826,10.806,10.757,10.806h31.063c1.938,0,3.515-1.577,3.515-3.515
						c0-1.938-1.577-3.514-3.515-3.514H73.327c-2.259,0-4.096-1.837-4.096-4.096s1.837-4.096,4.096-4.096h6.104
						c3.387,0,6.52-1.623,8.515-4.344h1.739c-2.162,3.55-6.033,5.775-10.255,5.775h-6.104c-1.469,0-2.664,1.195-2.664,2.665
						s1.195,2.665,2.664,2.665h27.684c2.728,0,4.946,2.218,4.946,4.945s-2.219,4.946-4.946,4.946H69.947
						c-6.721,0-12.188-5.468-12.188-12.188c0-6.748,5.468-12.238,12.188-12.238H88.837z M99.733,70.386
						c3.472,0,6.296,2.824,6.296,6.295v1.013c0,3.471-2.824,6.295-6.296,6.295h-1.65V70.613
						C98.61,70.469,99.162,70.386,99.733,70.386z M96.083,83.99h-2.667c0.015-0.266,0.022-0.534,0.022-0.802v-6.506
						c0-2.11,1.047-3.976,2.645-5.119V83.99z M79.431,91.765h-6.104c-0.702,0-1.373,0.125-2.001,0.344v-2.688h13.991
						C83.742,90.912,81.649,91.765,79.431,91.765z M69.326,102.448v4.505c-1.702-0.121-3.268-0.732-4.564-1.695V91.138
						c1.297-0.958,2.862-1.565,4.564-1.685v3.82c-1.281,1.118-2.095,2.758-2.095,4.588S68.046,101.33,69.326,102.448z
						 M101.011,103.956c0.835,0,1.515,0.679,1.515,1.514s-0.68,1.515-1.515,1.515h-2.928v-3.029H101.011z M96.083,106.985H84.704
						v-3.029h11.379V106.985z M82.704,106.985H71.326v-3.373c0.628,0.219,1.299,0.344,2.001,0.344h9.377V106.985z M62.762,103.198
						c-0.988-1.426-1.572-3.154-1.572-5.02c0-1.855,0.584-3.574,1.572-4.992V103.198z M56.702,28.038l4.809,12.363l2.09,5.373
						c-0.143,0.173-0.24,0.386-0.24,0.628v0.276h-1.377v-0.276c0-0.552-0.448-1-1-1H57.96c-0.552,0-1,0.448-1,1v0.276h-1.377v-0.276
						c0-0.552-0.448-1-1-1h-2.472c-0.552,0-1,0.448-1,1v0.276h-1.377v-0.276c0-0.218-0.084-0.409-0.203-0.573L56.702,28.038z
						 M47.262,47.403h0.473v0.276c0,0.552,0.448,1,1,1h3.377c0.552,0,1-0.448,1-1v-0.276h0.472v0.276c0,0.552,0.448,1,1,1h3.377
						c0.552,0,1-0.448,1-1v-0.276h1.024v0.276c0,0.552,0.448,1,1,1h3.377c0.552,0,1-0.448,1-1v-0.276h0.479v4.467H47.262V47.403z
						 M62.762,53.87v32.101c-4.183,2.479-7.003,7.038-7.003,12.256c0,0.784,0.08,1.548,0.203,2.298
						c-0.002,0.025-0.014,0.047-0.014,0.073v14.061h-4.359v-5.378c1.639-1.224,2.707-3.173,2.707-5.371s-1.068-4.147-2.707-5.371
						V66.287h0.819c0.552,0,1-0.448,1-1v-6.467c0-0.552-0.448-1-1-1h-1.849V53.87H62.762z M48.589,114.659v-4.125
						c0.342-0.051,0.677-0.121,1-0.222v4.347H48.589z M45.276,114.659v-4.462c0.42,0.155,0.859,0.268,1.313,0.337v4.125H45.276z
						 M28.806,114.659V66.287h20.783v31.221c-0.632-0.198-1.304-0.305-2-0.305c-0.814,0-1.591,0.153-2.313,0.42V95.87
						c0-3.438-2.796-6.234-6.234-6.234s-6.234,2.796-6.234,6.234v18.789H28.806z M47.589,108.617c-2.596,0-4.707-2.111-4.707-4.707
						s2.111-4.707,4.707-4.707s4.707,2.111,4.707,4.707S50.185,108.617,47.589,108.617z M34.809,95.87
						c0-2.334,1.899-4.234,4.234-4.234s4.234,1.899,4.234,4.234v2.911c-1.462,1.231-2.394,3.072-2.394,5.129
						s0.932,3.898,2.394,5.129v5.62h-8.468V95.87z M31.836,61.096c0.552,0,1-0.448,1-1v-0.276h0.473v0.276c0,0.552,0.448,1,1,1
						h3.377c0.552,0,1-0.448,1-1v-0.276h1.023v0.276c0,0.552,0.448,1,1,1h3.377c0.552,0,1-0.448,1-1v-0.276h0.473v0.276
						c0,0.552,0.448,1,1,1h3.377c0.552,0,1-0.448,1-1v-0.276h0.472v4.467H26.987v-4.467h0.472v0.276c0,0.552,0.448,1,1,1H31.836z
						 M21.496,28.038l4.809,12.364l2.09,5.373c-0.143,0.173-0.24,0.387-0.24,0.629v0.276h-1.377v-0.276c0-0.552-0.448-1-1-1h-3.023
						c-0.552,0-1,0.448-1,1v0.276h-1.377v-0.276c0-0.552-0.448-1-1-1h-2.473c-0.552,0-1,0.448-1,1v0.276h-1.377v-0.276
						c0-0.218-0.084-0.409-0.203-0.573L21.496,28.038z M12.055,47.403h0.473v0.276c0,0.552,0.448,1,1,1h3.377c0.552,0,1-0.448,1-1
						v-0.276h0.473v0.276c0,0.552,0.448,1,1,1h3.377c0.552,0,1-0.448,1-1v-0.276h1.023v0.276c0,0.552,0.448,1,1,1h3.377
						c0.552,0,1-0.448,1-1v-0.276h0.48v4.467h-18.58V47.403z M15.421,53.87h12.203v3.949h-1.636c-0.552,0-1,0.448-1,1v6.467
						c0,0.552,0.448,1,1,1h0.819v48.373h-7.947v-6.167c3.898-0.494,6.924-3.824,6.924-7.854c0-4.37-3.555-7.924-7.924-7.924
						c-0.851,0-1.669,0.138-2.438,0.388V53.87z M11.935,100.638c0-3.267,2.658-5.924,5.924-5.924s5.924,2.658,5.924,5.924
						s-2.658,5.924-5.924,5.924S11.935,103.905,11.935,100.638z M15.421,108.175c0.462,0.15,0.944,0.255,1.438,0.318v6.167h-1.438
						V108.175z M9.982,118.603c0-1.072,0.872-1.944,1.944-1.944h2.494h19.388h10.468h19.485h48.611c1.072,0,1.944,0.872,1.944,1.944
						v1.271H9.982V118.603z"/>
					<path class="st0" d="M107.509,31.561c-0.488-0.262-1.093-0.079-1.354,0.408c-0.454,0.845-0.982,1.739-1.568,2.655
						c-0.298,0.465-0.162,1.083,0.303,1.381c0.167,0.107,0.354,0.158,0.538,0.158c0.33,0,0.652-0.163,0.843-0.461
						c0.614-0.959,1.168-1.897,1.646-2.787C108.178,32.429,107.995,31.823,107.509,31.561z"/>
					<path class="st0" d="M81.335,49.537c0,1.21,0.946,2.193,2.136,2.274v3.347h-0.047c-0.553,0-1,0.448-1,1
						c0,3.739,3.042,6.782,6.781,6.782s6.781-3.042,6.781-6.782c0-0.552-0.447-1-1-1h-0.047v-3.349
						c1.18-0.092,2.115-1.07,2.115-2.272c0-0.632-0.257-1.205-0.673-1.62c2.937-3.089,5.506-6.086,7.599-8.909
						c0.328-0.444,0.235-1.07-0.208-1.399c-0.444-0.328-1.069-0.236-1.399,0.208c-2.205,2.975-4.929,6.146-8.099,9.43h-9.765
						c-5.476-5.675-14.293-15.908-14.293-22.946c0-10.573,8.603-19.175,19.176-19.175s19.176,8.602,19.176,19.175
						c0,1.332-0.327,2.865-0.973,4.557c-0.196,0.516,0.063,1.094,0.578,1.291c0.516,0.196,1.094-0.063,1.291-0.578
						c0.732-1.921,1.104-3.694,1.104-5.27c0-11.676-9.499-21.175-21.176-21.175s-21.176,9.499-21.176,21.175
						c0,7.069,7.36,16.425,14.006,23.438C81.687,48.158,81.335,48.804,81.335,49.537z M85.471,51.827h0.893v3.332h-0.893V51.827z
						 M88.363,55.159v-3.332h1.684v3.332H88.363z M89.205,60.94c-2.294,0-4.215-1.624-4.676-3.782h9.352
						C93.42,59.317,91.499,60.94,89.205,60.94z M92.047,55.159v-3.332h0.893v3.332H92.047z M94.764,49.827H83.625
						c-0.16,0-0.29-0.13-0.29-0.29s0.13-0.291,0.29-0.291h11.139c0.16,0,0.291,0.13,0.291,0.291S94.924,49.827,94.764,49.827z"/>
				</g>
			</g>
		</g>
	</g>
</g>
</svg>
