<?xml version="1.0" encoding="utf-8"?>
<!-- Generator: Adobe Illustrator 22.0.1, SVG Export Plug-In . SVG Version: 6.00 Build 0)  -->
<svg version="1.1" id="Layer_1" xmlns="http://www.w3.org/2000/svg" xmlns:xlink="http://www.w3.org/1999/xlink" x="0px" y="0px"
	 viewBox="0 0 128 128" style="enable-background:new 0 0 128 128;" xml:space="preserve">
<style type="text/css">
	.st0{fill:#3A2C60;}
	.st1{fill:#E6E7E8;}
	.st2{fill:#6DC9F7;}
	.st3{fill:#FFFFFF;}
	.st4{fill:#FA759E;}
	.st5{fill:#FFD7E5;}
	.st6{fill:#D4FBFF;}
	.st7{fill:#0089EF;}
</style>
<g>
	<path class="st1" d="M123.842,71.763l-4.326-5.145c-0.301-0.358-0.301-0.878,0-1.236l4.325-5.145c0.75-0.891,0.91-2.1,0.418-3.154
		c-0.491-1.056-1.52-1.711-2.684-1.711h-14.584c-0.458,0-0.917,0.108-1.324,0.313l-14.723,7.361l-14.572-0.024V52.026v-4.851V26.593
		c4.011-3.125,6.858-7.762,6.075-15.36c-0.282-2.74-2.74-4.747-5.485-4.462c-1.329,0.138-2.524,0.783-3.367,1.819
		s-1.231,2.339-1.094,3.667c0.575,5.595-1.633,7.061-10.587,10.435c-6.831,2.574-15.331,5.777-19.681,14.76
		c-5.496,11.347-3.11,20.261-0.387,25.512l-19.753-0.033l1.414-1.682c0.662-0.786,0.68-1.899,0.043-2.706
		c-0.636-0.808-1.722-1.049-2.643-0.591L8.644,64.082C7.913,64.448,7.459,65.183,7.459,66s0.454,1.552,1.185,1.918l12.263,6.132
		c0.312,0.155,0.642,0.23,0.967,0.23c0.637,0,1.254-0.287,1.675-0.82c0.637-0.808,0.619-1.921-0.042-2.708l-1.531-1.821
		l19.904,0.039c-2.737,5.242-5.167,14.184,0.352,25.579c4.35,8.982,12.851,12.186,19.684,14.761
		c8.951,3.373,11.16,4.839,10.584,10.433c-0.137,1.329,0.251,2.632,1.094,3.668s2.039,1.682,3.365,1.817
		c0.174,0.019,0.348,0.027,0.519,0.027c2.569,0,4.705-1.93,4.968-4.488c0.787-7.641-2.096-12.288-6.144-15.413
		c0.039-0.107,0.069-0.219,0.069-0.34V69.039l14.798,0.029l14.499,7.25c0.41,0.204,0.867,0.312,1.323,0.312h14.584
		c1.164,0,2.192-0.655,2.684-1.711S124.591,72.653,123.842,71.763z M74.373,47.175v4.851v10.993l-20.022-0.034
		c-0.214-0.285-0.46-0.55-0.735-0.788c-0.353-0.305-8.574-7.605-2.383-20.387c2.612-5.392,8.246-7.515,14.21-9.762
		c2.837-1.069,6.054-2.285,8.93-4.067V47.175z M65.441,99.952c-5.964-2.248-11.597-4.371-14.209-9.761
		c-6.179-12.759,2.008-20.063,2.347-20.356c0.298-0.25,0.56-0.533,0.788-0.84l20.006,0.039v34.985
		C71.496,102.238,68.279,101.022,65.441,99.952z"/>
	<g>
		<g>
			<path class="st4" d="M49.788,59.984c-0.222-0.381-0.487-0.738-0.826-1.031c-0.377-0.326-9.144-8.131-2.63-21.579
				c2.786-5.751,8.602-7.942,14.758-10.262c7.892-2.974,17.713-6.674,16.363-19.777c-0.227-2.197-2.19-3.794-4.388-3.569
				c-2.198,0.226-3.796,2.191-3.569,4.389c0.658,6.399-2.379,8.137-11.227,11.471c-6.665,2.512-14.96,5.637-19.137,14.261
				c-5.366,11.079-3.088,20.283,0.424,26.08L49.788,59.984z"/>
			<path class="st4" d="M61.09,96.888c-6.156-2.32-11.972-4.511-14.758-10.262c-6.514-13.448,2.253-21.254,2.604-21.559
				c0.361-0.302,0.64-0.674,0.868-1.074l-10.212-0.02c-3.533,5.794-5.845,15.023-0.46,26.14c4.177,8.624,12.472,11.75,19.137,14.261
				c8.848,3.334,11.885,5.072,11.227,11.471c-0.227,2.198,1.371,4.163,3.569,4.389c0.139,0.014,0.277,0.021,0.414,0.021
				c2.024,0,3.762-1.533,3.974-3.591C78.803,103.563,68.982,99.862,61.09,96.888z"/>
		</g>
		<g>
			<path class="st3" d="M42.56,59.972c-3.514-5.797-5.795-15.003-0.427-26.085C46.31,25.263,54.605,22.782,61.27,20.27
				c8.848-3.334,11.885-5.716,11.227-12.116c-0.187-1.81,0.873-3.445,2.478-4.098c-0.588-0.24-1.233-0.36-1.908-0.291
				c-2.198,0.226-3.796,2.191-3.569,4.389c0.658,6.399-2.379,8.137-11.227,11.471c-6.665,2.512-14.96,5.637-19.137,14.261
				c-5.366,11.079-3.088,20.283,0.424,26.08L42.56,59.972z"/>
			<path class="st3" d="M72.496,115.846c0.658-6.399-2.284-8.741-11.132-12.075c-6.665-2.511-15.055-5.033-19.232-13.657
				c-5.383-11.113-3.074-20.339,0.456-26.134l-2.996-0.006c-3.533,5.794-5.845,15.023-0.46,26.14
				c4.177,8.624,12.472,11.75,19.137,14.261c8.848,3.334,11.885,5.072,11.227,11.471c-0.227,2.198,1.371,4.163,3.569,4.389
				c0.139,0.014,0.277,0.021,0.414,0.021c0.532,0,1.041-0.111,1.511-0.305C73.377,119.303,72.309,117.662,72.496,115.846z"/>
		</g>
		<g>
			<path class="st7" d="M117.576,52.372h-14.584c-0.304,0-0.604,0.071-0.877,0.207l-15.336,7.668c-1.445,0.722-1.445,2.784,0,3.507
				l15.336,7.668c0.272,0.136,0.572,0.207,0.877,0.207h14.584c1.666,0,2.573-1.947,1.5-3.222l-4.326-5.145
				c-0.613-0.729-0.613-1.794,0-2.523l4.326-5.145C120.149,54.319,119.242,52.372,117.576,52.372z"/>
			<path class="st5" d="M104.337,60.076l-88.389-0.148l-1.124,1.337c-0.358,0.426-0.358,1.047,0,1.473l1.001,1.191l75.071,0.148
				c0.001,0,13.435,0,13.436,0c1.103,0,1.998-0.893,2-1.996C106.335,60.975,105.441,60.077,104.337,60.076z"/>
			<g>
				<path class="st7" d="M17.355,69.155L5.091,63.024c-0.843-0.422-0.843-1.625,0-2.047l12.263-6.132
					c1.111-0.556,2.187,0.809,1.387,1.76l-3.918,4.659c-0.358,0.426-0.358,1.047,0,1.473l3.918,4.659
					C19.541,68.346,18.466,69.711,17.355,69.155z"/>
				<g>
					<path class="st0" d="M71.373,42.174c-0.552,0-1,0.447-1,1v4.852c0,0.553,0.448,1,1,1s1-0.447,1-1v-4.852
						C72.373,42.621,71.925,42.174,71.373,42.174z"/>
					<path class="st0" d="M115.516,62.619c-0.301-0.358-0.301-0.878,0-1.236l4.327-5.145c0.749-0.891,0.909-2.1,0.417-3.154
						c-0.491-1.056-1.52-1.711-2.684-1.711h-14.584c-0.459,0-0.917,0.108-1.324,0.313l-14.723,7.361l-14.573-0.024v-6.65
						c0-0.553-0.448-1-1-1s-1,0.447-1,1v6.646l-20.029-0.034c-0.213-0.284-0.453-0.55-0.727-0.787
						c-0.353-0.306-8.567-7.622-2.384-20.388c2.612-5.391,8.245-7.514,14.211-9.763c2.836-1.069,6.053-2.285,8.929-4.067v14.215
						c0,0.553,0.448,1,1,1s1-0.447,1-1V22.592c4.011-3.125,6.858-7.762,6.075-15.36c-0.283-2.742-2.753-4.746-5.484-4.462
						c-1.329,0.137-2.525,0.782-3.368,1.818s-1.231,2.339-1.094,3.668c0.575,5.594-1.633,7.06-10.584,10.433
						c-6.832,2.574-15.333,5.778-19.684,14.762c-5.497,11.349-3.109,20.262-0.386,25.512l-19.755-0.033l1.415-1.682
						c0.662-0.786,0.679-1.899,0.043-2.707c-0.637-0.808-1.724-1.048-2.643-0.591L4.644,60.082C3.913,60.449,3.459,61.183,3.459,62
						s0.454,1.552,1.185,1.918l12.263,6.132c0.311,0.155,0.642,0.23,0.967,0.23c0.636,0,1.254-0.287,1.676-0.821
						c0.636-0.808,0.619-1.921-0.043-2.707l-1.531-1.821l19.904,0.039c-2.738,5.242-5.168,14.183,0.352,25.578
						c4.352,8.985,12.853,12.188,19.684,14.761c8.951,3.373,11.16,4.839,10.584,10.434c-0.137,1.328,0.251,2.631,1.094,3.667
						s2.039,1.682,3.372,1.819c0.171,0.017,0.343,0.026,0.512,0.026c2.569,0,4.705-1.93,4.968-4.488
						c0.787-7.642-2.096-12.288-6.144-15.414c0.039-0.107,0.068-0.219,0.068-0.339V65.039l14.8,0.029l14.496,7.249
						c0.408,0.204,0.866,0.312,1.323,0.312h14.584c1.164,0,2.192-0.655,2.684-1.711c0.491-1.055,0.332-2.264-0.418-3.154
						L115.516,62.619z M40.033,34.323c4.003-8.265,12.091-11.312,18.589-13.762c8.322-3.136,12.629-5.116,11.869-12.509
						c-0.082-0.798,0.151-1.579,0.657-2.2c0.505-0.622,1.223-1.01,2.02-1.091c0.104-0.011,0.207-0.017,0.309-0.017
						c1.517,0,2.823,1.152,2.982,2.693c0.72,6.988-1.867,11.108-5.692,13.913c-0.034,0.027-0.075,0.044-0.106,0.075
						c-2.909,2.103-6.513,3.464-9.925,4.75c-6.348,2.393-12.343,4.652-15.303,10.763c-5.781,11.934-0.031,19.706,2.137,22.042
						l-7.438-0.012C37.434,54.277,34.559,45.623,40.033,34.323z M17.979,68.221c-0.073,0.092-0.134,0.063-0.178,0.04L5.539,62.129
						c-0.021-0.011-0.08-0.04-0.08-0.129s0.058-0.118,0.08-0.129l12.263-6.132c0.043-0.023,0.104-0.054,0.178,0.04
						c0.073,0.092,0.029,0.144-0.002,0.182l-3.918,4.659c-0.672,0.8-0.672,1.96,0,2.76l3.918,4.659
						C18.009,68.077,18.052,68.129,17.979,68.221z M15.59,62.093c-0.045-0.054-0.045-0.132,0-0.186l0.824-0.979l87.922,0.147
						c0.551,0.001,0.999,0.45,0.998,1.002c-0.001,0.551-0.45,0.998-1,0.998H90.898l-74.606-0.147L15.59,62.093z M76.458,116.563
						c-0.158,1.535-1.439,2.693-2.979,2.693c-0.104,0-0.21-0.006-0.312-0.017c-0.797-0.082-1.515-0.47-2.021-1.091
						c-0.506-0.622-0.739-1.403-0.657-2.2c0.761-7.394-3.547-9.374-11.869-12.51c-6.499-2.448-14.586-5.495-18.589-13.761
						c-5.494-11.344-2.576-20.025,0.13-24.703l7.431,0.015c-2.12,2.265-7.984,10.05-2.161,22.072
						c2.96,6.111,8.957,8.37,15.305,10.762C68.702,100.825,77.729,104.227,76.458,116.563z M70.373,100.019
						c-2.876-1.782-6.093-2.998-8.93-4.067c-5.964-2.247-11.598-4.37-14.21-9.762c-6.179-12.759,2.008-20.063,2.346-20.355
						c0.298-0.25,0.562-0.532,0.789-0.84l20.006,0.039V100.019z M118.447,70.074c-0.061,0.13-0.303,0.555-0.871,0.555h-14.584
						c-0.149,0-0.298-0.035-0.429-0.101l-10.904-5.452h12.674c1.651,0,2.997-1.343,3-2.994c0.001-0.802-0.309-1.556-0.875-2.123
						s-1.318-0.882-2.12-0.883l-12.936-0.022l11.162-5.581c0.131-0.065,0.278-0.101,0.427-0.101h14.584
						c0.568,0,0.81,0.425,0.871,0.555s0.23,0.589-0.135,1.023l-4.327,5.145c-0.928,1.104-0.928,2.706,0,3.811l4.326,5.145
						C118.677,69.485,118.507,69.944,118.447,70.074z"/>
				</g>
			</g>
		</g>
	</g>
</g>
</svg>
