<?xml version="1.0" encoding="utf-8"?>
<!-- Generator: Adobe Illustrator 22.0.1, SVG Export Plug-In . SVG Version: 6.00 Build 0)  -->
<svg version="1.1" id="Layer_1" xmlns="http://www.w3.org/2000/svg" xmlns:xlink="http://www.w3.org/1999/xlink" x="0px" y="0px"
	 viewBox="0 0 128 128" style="enable-background:new 0 0 128 128;" xml:space="preserve">
<style type="text/css">
	.st0{fill:#3A2C60;}
	.st1{fill:#E6E7E8;}
	.st2{fill:#6DC9F7;}
	.st3{fill:#FFFFFF;}
	.st4{fill:#FA759E;}
	.st5{fill:#FFD7E5;}
	.st6{fill:#D4FBFF;}
	.st7{fill:#0089EF;}
</style>
<g>
	<path class="st1" d="M122.352,79.882c0-1.641-1.335-2.977-2.977-2.977h-8.884v-9.026c0-1.779-0.361-3.474-1.01-5.02h9.894
		c1.641,0,2.977-1.335,2.977-2.977c0-1.641-1.335-2.977-2.977-2.977h-8.884v-9.026c0-3.733-1.59-7.094-4.118-9.468
		c0.005-0.122,0.021-0.242,0.021-0.364c0-4.911-3.995-8.906-8.906-8.906s-8.907,3.995-8.907,8.906c0,0.123,0.016,0.243,0.021,0.365
		c-2.528,2.374-4.117,5.734-4.117,9.467v9.026h-5.482v-9.026c0-3.733-1.59-7.094-4.117-9.467c0.005-0.122,0.021-0.242,0.021-0.365
		c0-4.911-3.996-8.906-8.907-8.906s-8.907,3.995-8.907,8.906c0,0.123,0.016,0.243,0.021,0.365c-2.528,2.374-4.117,5.734-4.117,9.467
		v9.026h-5.482v-9.026c0-3.733-1.59-7.094-4.117-9.467c0.005-0.122,0.021-0.242,0.021-0.365c0-4.911-3.996-8.906-8.907-8.906
		s-8.906,3.995-8.906,8.906c0,0.123,0.016,0.243,0.021,0.364c-2.528,2.374-4.118,5.735-4.118,9.468v9.026h-8.884
		c-1.641,0-2.977,1.335-2.977,2.977c0,1.642,1.335,2.977,2.977,2.977h9.894c-0.649,1.546-1.01,3.241-1.01,5.02v9.026h-8.884
		c-1.641,0-2.977,1.335-2.977,2.977c0,1.642,1.335,2.977,2.977,2.977h9.894c-0.649,1.546-1.01,3.241-1.01,5.02v9.026h-8.884
		c-1.641,0-2.977,1.335-2.977,2.977c0,1.642,1.335,2.977,2.977,2.977h106.75c1.641,0,2.977-1.335,2.977-2.977
		c0-1.641-1.335-2.977-2.977-2.977h-8.884v-9.026c0-1.779-0.361-3.474-1.01-5.02h9.894
		C121.016,82.859,122.352,81.524,122.352,79.882z M84.485,67.879v9.026h-5.482v-9.026c0-1.779-0.361-3.474-1.01-5.02h7.502
		C84.846,64.405,84.485,66.101,84.485,67.879z M52.997,67.879v9.026h-5.482v-9.026c0-1.779-0.361-3.474-1.01-5.02h7.502
		C53.358,64.405,52.997,66.101,52.997,67.879z M46.505,82.859h7.502c-0.649,1.546-1.01,3.241-1.01,5.02v9.026h-5.482v-9.026
		C47.515,86.101,47.154,84.405,46.505,82.859z M77.993,82.859h7.502c-0.649,1.546-1.01,3.241-1.01,5.02v9.026h-5.482v-9.026
		C79.003,86.101,78.642,84.405,77.993,82.859z"/>
	<g>
		<g>
			<g>
				<g>
					<path class="st7" d="M42.515,53.906V43.879c0-6.629-5.374-12.003-12.003-12.003c-6.629,0-12.003,5.374-12.003,12.003v10.026
						H42.515z"/>
					<path class="st5" d="M33.886,41.19c2.677-1.267,4.533-3.984,4.533-7.143c0-4.367-3.54-7.906-7.907-7.906
						s-7.906,3.54-7.906,7.906c0,3.158,1.856,5.876,4.533,7.143c-4.149,1.407-7.138,5.325-7.138,9.949v2.809h2.61
						c0.054-4.32,3.568-7.807,7.901-7.807s7.848,3.487,7.902,7.807h2.61v-2.809C41.024,46.515,38.035,42.597,33.886,41.19z"/>
				</g>
				<g>
					<g>
						<path class="st7" d="M51.488,51.138c0-4.624,2.99-8.542,7.138-9.949c-2.456-1.162-4.203-3.552-4.477-6.377
							c-2.539,2.201-4.152,5.442-4.152,9.066v10.026h1.491V51.138z"/>
						<path class="st7" d="M69.851,34.813c-0.274,2.825-2.021,5.214-4.477,6.377c4.149,1.407,7.138,5.325,7.138,9.949v2.767h1.491
							V43.879C74.003,40.255,72.39,37.014,69.851,34.813z"/>
					</g>
					<path class="st5" d="M65.374,41.19c2.677-1.267,4.533-3.984,4.533-7.143c0-4.367-3.54-7.906-7.906-7.906
						c-4.367,0-7.907,3.54-7.907,7.906c0,3.158,1.856,5.876,4.533,7.143c-4.149,1.407-7.138,5.325-7.138,9.949v2.809h2.61
						c0.054-4.32,3.568-7.807,7.902-7.807c4.333,0,7.848,3.487,7.901,7.807h2.61v-2.809C72.512,46.515,69.522,42.597,65.374,41.19z"
						/>
				</g>
				<g>
					<g>
						<path class="st7" d="M101.338,34.813c-0.274,2.825-2.021,5.214-4.477,6.377c4.149,1.407,7.138,5.325,7.138,9.949v2.767h1.491
							V43.879C105.491,40.255,103.878,37.014,101.338,34.813z"/>
						<path class="st7" d="M82.976,51.138c0-4.624,2.99-8.542,7.138-9.949c-2.456-1.162-4.203-3.552-4.477-6.377
							c-2.539,2.201-4.152,5.442-4.152,9.066v10.026h1.491V51.138z"/>
					</g>
					<path class="st5" d="M96.861,41.19c2.677-1.267,4.533-3.984,4.533-7.143c0-4.367-3.54-7.906-7.906-7.906
						s-7.907,3.54-7.907,7.906c0,3.158,1.856,5.876,4.533,7.143c-4.149,1.407-7.138,5.325-7.138,9.949v2.809h2.61
						c0.054-4.32,3.568-7.807,7.902-7.807s7.848,3.487,7.901,7.807H104v-2.809C104,46.515,101.01,42.597,96.861,41.19z"/>
				</g>
			</g>
			<path class="st7" d="M115.375,53.906H8.625c-1.092,0-1.977,0.885-1.977,1.977c0,1.092,0.885,1.977,1.977,1.977h106.75
				c1.092,0,1.977-0.885,1.977-1.977C117.352,54.791,116.467,53.906,115.375,53.906z"/>
		</g>
		<g>
			<g>
				<g>
					<g>
						<path class="st7" d="M20.001,71.138c0-4.624,2.99-8.542,7.138-9.949c-2.456-1.162-4.203-3.552-4.477-6.377
							c-2.539,2.201-4.153,5.442-4.153,9.066v10.026h1.491V71.138z"/>
						<path class="st7" d="M38.363,54.813c-0.274,2.825-2.021,5.214-4.477,6.377c4.149,1.407,7.138,5.325,7.138,9.949v2.767h1.491
							V63.879C42.515,60.255,40.902,57.014,38.363,54.813z"/>
					</g>
					<path class="st4" d="M33.886,61.19c2.677-1.267,4.533-3.984,4.533-7.143c0-4.367-3.54-7.906-7.907-7.906
						s-7.906,3.54-7.906,7.906c0,3.158,1.856,5.876,4.533,7.143c-4.149,1.407-7.138,5.325-7.138,9.949v2.809h21.024v-2.809
						C41.024,66.515,38.035,62.597,33.886,61.19z"/>
				</g>
				<g>
					<path class="st7" d="M74.003,73.906V63.879c0-6.629-5.374-12.003-12.003-12.003h0c-6.629,0-12.003,5.374-12.003,12.003v10.026
						H74.003z"/>
					<path class="st4" d="M65.374,61.19c2.677-1.267,4.533-3.984,4.533-7.143c0-4.367-3.54-7.906-7.906-7.906
						c-4.367,0-7.907,3.54-7.907,7.906c0,3.158,1.856,5.876,4.533,7.143c-4.149,1.407-7.138,5.325-7.138,9.949v2.809h21.024v-2.809
						C72.512,66.515,69.522,62.597,65.374,61.19z"/>
				</g>
				<g>
					<g>
						<path class="st7" d="M82.976,71.138c0-4.624,2.99-8.542,7.138-9.949c-2.456-1.162-4.203-3.552-4.477-6.377
							c-2.539,2.201-4.152,5.442-4.152,9.066v10.026h1.491V71.138z"/>
						<path class="st7" d="M101.338,54.813c-0.274,2.825-2.021,5.214-4.477,6.377c4.149,1.407,7.138,5.325,7.138,9.949v2.767h1.491
							V63.879C105.491,60.255,103.878,57.014,101.338,54.813z"/>
					</g>
					<path class="st4" d="M96.861,61.19c2.677-1.267,4.533-3.984,4.533-7.143c0-4.367-3.54-7.906-7.906-7.906
						s-7.907,3.54-7.907,7.906c0,3.158,1.856,5.876,4.533,7.143c-4.149,1.407-7.138,5.325-7.138,9.949v2.809H104v-2.809
						C104,66.515,101.01,62.597,96.861,61.19z"/>
				</g>
			</g>
			<g>
				<path class="st7" d="M115.375,73.906H8.625c-1.092,0-1.977,0.885-1.977,1.977s0.885,1.977,1.977,1.977h106.75
					c1.092,0,1.977-0.885,1.977-1.977S116.467,73.906,115.375,73.906z"/>
				<path class="st2" d="M96.861,81.19c2.677-1.267,4.533-3.984,4.533-7.143c0-4.367-3.54-7.906-7.906-7.906
					s-7.907,3.54-7.907,7.906c0,3.158,1.856,5.876,4.533,7.143c-4.149,1.407-7.138,5.325-7.138,9.949v2.809H104v-2.809
					C104,86.515,101.01,82.597,96.861,81.19z"/>
			</g>
		</g>
		<g>
			<g>
				<g>
					<g>
						<path class="st7" d="M20.001,91.138c0-4.624,2.99-8.542,7.138-9.949c-2.456-1.162-4.203-3.552-4.477-6.377
							c-2.539,2.201-4.153,5.442-4.153,9.066v10.026h1.491V91.138z"/>
						<path class="st7" d="M38.363,74.813c-0.274,2.825-2.021,5.214-4.477,6.377c4.149,1.407,7.138,5.325,7.138,9.949v2.767h1.491
							V83.879C42.515,80.255,40.902,77.014,38.363,74.813z"/>
					</g>
					<g>
						<path class="st2" d="M33.886,81.19c2.677-1.267,4.533-3.984,4.533-7.143c0-4.367-3.54-7.906-7.907-7.906
							s-7.906,3.54-7.906,7.906c0,3.158,1.856,5.876,4.533,7.143c-4.149,1.407-7.138,5.325-7.138,9.949v2.809h21.024v-2.809
							C41.024,86.515,38.035,82.597,33.886,81.19z"/>
						<path class="st7" d="M115.375,93.906H8.625c-1.092,0-1.977,0.885-1.977,1.977s0.885,1.977,1.977,1.977h106.75
							c1.092,0,1.977-0.885,1.977-1.977S116.467,93.906,115.375,93.906z"/>
					</g>
				</g>
				<g>
					<g>
						<path class="st7" d="M51.488,91.138c0-4.624,2.99-8.542,7.138-9.949c-2.456-1.162-4.203-3.552-4.477-6.377
							c-2.539,2.201-4.152,5.442-4.152,9.066v10.026h1.491V91.138z"/>
						<path class="st7" d="M69.851,74.813c-0.274,2.825-2.021,5.214-4.477,6.377c4.149,1.407,7.138,5.325,7.138,9.949v2.767h1.491
							V83.879C74.003,80.255,72.39,77.014,69.851,74.813z"/>
					</g>
					<path class="st2" d="M65.374,81.19c2.677-1.267,4.533-3.984,4.533-7.143c0-4.367-3.54-7.906-7.906-7.906
						c-4.367,0-7.907,3.54-7.907,7.906c0,3.158,1.856,5.876,4.533,7.143c-4.149,1.407-7.138,5.325-7.138,9.949v2.809h21.024v-2.809
						C72.512,86.515,69.522,82.597,65.374,81.19z"/>
					<g>
						<path class="st3" d="M62,69.141c3.84,0,7.039,2.739,7.754,6.369c0.09-0.476,0.152-0.961,0.152-1.463
							c0-4.367-3.54-7.906-7.906-7.906c-4.367,0-7.907,3.54-7.907,7.906c0,0.502,0.062,0.987,0.152,1.463
							C54.961,71.88,58.16,69.141,62,69.141z"/>
					</g>
					<path class="st7" d="M115.375,93.906H8.625c-1.092,0-1.977,0.885-1.977,1.977s0.885,1.977,1.977,1.977h106.75
						c1.092,0,1.977-0.885,1.977-1.977S116.467,93.906,115.375,93.906z"/>
				</g>
				<g>
					<g>
						<g>
							<path class="st7" d="M82.976,91.138c0-4.624,2.99-8.542,7.138-9.949c-2.456-1.162-4.203-3.552-4.477-6.377
								c-2.539,2.201-4.152,5.442-4.152,9.066v10.026h1.491V91.138z"/>
							<path class="st7" d="M101.338,74.813c-0.274,2.825-2.021,5.214-4.477,6.377c4.149,1.407,7.138,5.325,7.138,9.949v2.767h1.491
								V83.879C105.491,80.255,103.878,77.014,101.338,74.813z"/>
						</g>
						<path class="st7" d="M115.375,93.906H8.625c-1.092,0-1.977,0.885-1.977,1.977s0.885,1.977,1.977,1.977h106.75
							c1.092,0,1.977-0.885,1.977-1.977S116.467,93.906,115.375,93.906z"/>
					</g>
					<path class="st2" d="M96.861,81.19c2.677-1.267,4.533-3.984,4.533-7.143c0-4.367-3.54-7.906-7.906-7.906
						s-7.907,3.54-7.907,7.906c0,3.158,1.856,5.876,4.533,7.143c-4.149,1.407-7.138,5.325-7.138,9.949v2.809H104v-2.809
						C104,86.515,101.01,82.597,96.861,81.19z"/>
				</g>
			</g>
			<path class="st7" d="M115.375,93.906H8.625c-1.092,0-1.977,0.885-1.977,1.977s0.885,1.977,1.977,1.977h106.75
				c1.092,0,1.977-0.885,1.977-1.977S116.467,93.906,115.375,93.906z"/>
			<g>
				<path class="st0" d="M118.352,75.882c0-1.642-1.335-2.977-2.977-2.977h-8.884v-9.026c0-1.784-0.381-3.473-1.035-5.02h9.92
					c1.642,0,2.977-1.335,2.977-2.977s-1.335-2.977-2.977-2.977h-8.884v-9.026c0-3.731-1.591-7.086-4.118-9.457
					c0.005-0.125,0.022-0.249,0.022-0.375c0-4.911-3.996-8.907-8.907-8.907s-8.907,3.996-8.907,8.907
					c0,0.126,0.016,0.249,0.022,0.375c-2.527,2.372-4.118,5.726-4.118,9.457v9.026h-5.482v-9.026c0-3.731-1.591-7.086-4.118-9.457
					c0.005-0.125,0.022-0.249,0.022-0.375c0-4.911-3.996-8.907-8.907-8.907s-8.906,3.996-8.906,8.907
					c0,0.126,0.016,0.249,0.022,0.374c-2.527,2.372-4.119,5.727-4.119,9.458v9.026h-5.481v-9.026c0-3.731-1.591-7.086-4.119-9.457
					c0.005-0.125,0.022-0.249,0.022-0.375c0-4.911-3.996-8.907-8.907-8.907s-8.906,3.996-8.906,8.907
					c0,0.126,0.016,0.249,0.022,0.374c-2.527,2.371-4.119,5.727-4.119,9.458v9.026H8.625c-1.641,0-2.977,1.335-2.977,2.977
					s1.335,2.977,2.977,2.977h9.92c-0.655,1.547-1.035,3.236-1.035,5.02v9.026H8.625c-1.641,0-2.977,1.335-2.977,2.977
					s1.335,2.977,2.977,2.977h9.92c-0.655,1.547-1.035,3.236-1.035,5.02v9.026H8.625c-1.641,0-2.977,1.335-2.977,2.977
					s1.335,2.977,2.977,2.977h45.958c0.552,0,1-0.448,1-1s-0.448-1-1-1H8.625c-0.539,0-0.977-0.438-0.977-0.977
					s0.438-0.977,0.977-0.977H19.79c0.07,0.016,0.136,0.042,0.21,0.042h21.024c0.075,0,0.14-0.027,0.21-0.042h10.043
					c0.07,0.016,0.136,0.042,0.21,0.042h21.023c0.075,0,0.14-0.027,0.21-0.042h10.044c0.07,0.016,0.136,0.042,0.21,0.042h21.023
					c0.075,0,0.14-0.027,0.21-0.042h11.165c0.539,0,0.977,0.438,0.977,0.977s-0.438,0.977-0.977,0.977H69.417c-0.552,0-1,0.448-1,1
					s0.448,1,1,1h45.958c1.642,0,2.977-1.335,2.977-2.977s-1.335-2.977-2.977-2.977h-8.884v-9.026c0-1.784-0.381-3.473-1.035-5.02
					h9.92C117.017,78.859,118.352,77.524,118.352,75.882z M104.491,87.801c-0.872-2.869-2.829-5.315-5.497-6.766
					c1.369-1.082,2.384-2.548,2.935-4.19c1.595,1.908,2.563,4.358,2.563,7.035V87.801z M25.006,61.035
					c-2.668,1.451-4.625,3.897-5.497,6.766v-3.922c0-2.677,0.967-5.127,2.563-7.035C22.623,58.487,23.638,59.953,25.006,61.035z
					 M49.997,54.905h1.281c0.07,0.016,0.136,0.042,0.21,0.042h1.115c-0.563,0.591-1.081,1.224-1.526,1.912h-9.641
					c-0.445-0.688-0.963-1.321-1.526-1.912h1.115c0.075,0,0.14-0.027,0.21-0.042h1.281H49.997z M81.485,54.905h1.281
					c0.07,0.016,0.136,0.042,0.21,0.042h1.115c-0.563,0.591-1.081,1.224-1.526,1.912h-9.641c-0.445-0.688-0.963-1.321-1.526-1.912
					h1.115c0.075,0,0.14-0.027,0.21-0.042h1.281H81.485z M101.928,56.845c1.595,1.908,2.563,4.358,2.563,7.035v3.922
					c-0.872-2.869-2.829-5.315-5.497-6.766C100.362,59.953,101.378,58.487,101.928,56.845z M96.434,60.286
					c-0.368,0.174-0.594,0.555-0.571,0.961s0.292,0.759,0.677,0.89c3.864,1.31,6.459,4.927,6.459,9.001v1.767h-0.687
					c-0.563-4.372-4.302-7.765-8.825-7.765s-8.262,3.392-8.825,7.765h-0.687v-1.767c0-4.074,2.596-7.691,6.459-9.001
					c0.386-0.131,0.654-0.483,0.677-0.89s-0.203-0.787-0.571-0.961c-2.406-1.139-3.961-3.588-3.961-6.239
					c0-3.809,3.098-6.907,6.907-6.907s6.907,3.098,6.907,6.907C100.394,56.698,98.84,59.147,96.434,60.286z M67.506,81.035
					c1.369-1.082,2.384-2.548,2.935-4.19c1.595,1.909,2.562,4.358,2.562,7.035v3.922C72.131,84.932,70.173,82.486,67.506,81.035z
					 M80.485,63.879v9.026h-5.482v-9.026c0-1.784-0.381-3.473-1.035-5.02h7.553C80.865,60.406,80.485,62.096,80.485,63.879z
					 M71.357,74.905h11.408c0.07,0.016,0.136,0.042,0.21,0.042h1.115c-0.563,0.591-1.081,1.224-1.526,1.912h-9.641
					C72.467,76.155,71.937,75.508,71.357,74.905z M82.485,83.879c0-2.676,0.967-5.126,2.563-7.035
					c0.551,1.643,1.566,3.108,2.935,4.19c-2.668,1.451-4.625,3.897-5.497,6.766V83.879z M87.982,61.035
					c-2.668,1.451-4.625,3.897-5.497,6.766v-3.922c0-2.676,0.967-5.126,2.563-7.035C85.598,58.487,86.613,59.953,87.982,61.035z
					 M70.44,56.845c1.595,1.909,2.562,4.358,2.562,7.035v3.922c-0.872-2.869-2.829-5.315-5.497-6.766
					C68.875,59.953,69.89,58.488,70.44,56.845z M64.946,60.286c-0.368,0.174-0.594,0.555-0.571,0.961s0.292,0.759,0.677,0.89
					c3.864,1.31,6.459,4.927,6.459,9.001v1.767h-0.687c-0.563-4.372-4.302-7.765-8.825-7.765s-8.261,3.392-8.825,7.765h-0.687
					v-1.767c0-4.074,2.596-7.691,6.459-9.001c0.386-0.131,0.654-0.483,0.677-0.89s-0.203-0.787-0.571-0.961
					c-2.406-1.139-3.96-3.588-3.96-6.239c0-3.809,3.098-6.907,6.906-6.907c3.809,0,6.907,3.098,6.907,6.907
					C68.907,56.698,67.352,59.148,64.946,60.286z M36.019,81.035c1.369-1.082,2.384-2.548,2.934-4.191
					c1.596,1.909,2.563,4.359,2.563,7.035v3.922C40.644,84.932,38.686,82.486,36.019,81.035z M48.997,63.879v9.026h-5.481v-9.026
					c0-1.784-0.381-3.473-1.035-5.02h7.552C49.378,60.406,48.997,62.096,48.997,63.879z M39.909,74.948h1.115
					c0.075,0,0.14-0.027,0.21-0.042h1.281h10.127c-0.579,0.602-1.11,1.25-1.566,1.954h-9.641
					C40.99,76.172,40.473,75.539,39.909,74.948z M50.997,83.879c0-2.676,0.967-5.126,2.563-7.035
					c0.55,1.643,1.566,3.109,2.934,4.191c-2.668,1.451-4.625,3.897-5.497,6.766V83.879z M56.494,61.035
					c-2.668,1.451-4.625,3.897-5.497,6.766v-3.922c0-2.676,0.967-5.126,2.563-7.035C54.11,58.487,55.126,59.953,56.494,61.035z
					 M38.953,56.844c1.596,1.909,2.563,4.359,2.563,7.035v3.922c-0.872-2.869-2.829-5.315-5.497-6.766
					C37.387,59.953,38.402,58.487,38.953,56.844z M33.458,60.286c-0.368,0.174-0.594,0.555-0.571,0.961s0.292,0.759,0.677,0.89
					c3.864,1.31,6.459,4.927,6.459,9.001v1.767h-0.687c-0.563-4.372-4.302-7.765-8.825-7.765s-8.261,3.392-8.825,7.765H21v-1.767
					c0-4.074,2.596-7.691,6.459-9.001c0.386-0.131,0.654-0.483,0.677-0.89s-0.203-0.787-0.571-0.961
					c-2.406-1.139-3.96-3.588-3.96-6.239c0-3.809,3.098-6.907,6.906-6.907c3.809,0,6.907,3.098,6.907,6.907
					C37.419,56.698,35.864,59.147,33.458,60.286z M25.006,81.035c-2.668,1.451-4.625,3.897-5.497,6.766v-3.922
					c0-2.677,0.967-5.127,2.563-7.035C22.623,78.487,23.638,79.953,25.006,81.035z M21,92.905v-1.767
					c0-4.074,2.596-7.691,6.459-9.001c0.386-0.131,0.654-0.483,0.677-0.89s-0.203-0.787-0.571-0.961
					c-2.406-1.139-3.96-3.588-3.96-6.239c0-3.809,3.098-6.907,6.906-6.907c3.809,0,6.907,3.098,6.907,6.907
					c0,2.651-1.555,5.1-3.96,6.239c-0.368,0.174-0.594,0.555-0.571,0.961s0.292,0.759,0.677,0.89
					c3.864,1.31,6.459,4.927,6.459,9.001v1.767H21z M42.48,78.859h7.552c-0.655,1.547-1.035,3.236-1.035,5.02v9.026h-5.481v-9.026
					C43.516,82.096,43.135,80.406,42.48,78.859z M52.488,92.905v-1.767c0-4.074,2.596-7.691,6.459-9.001
					c0.386-0.131,0.654-0.483,0.677-0.89s-0.203-0.787-0.571-0.961c-2.406-1.139-3.96-3.588-3.96-6.239
					c0-3.809,3.098-6.907,6.906-6.907c3.809,0,6.907,3.098,6.907,6.907c0,2.651-1.555,5.1-3.961,6.239
					c-0.368,0.174-0.594,0.555-0.571,0.961s0.292,0.759,0.677,0.89c3.864,1.31,6.459,4.927,6.459,9.001v1.767H52.488z
					 M73.968,78.859h7.553c-0.655,1.547-1.035,3.236-1.035,5.02v9.026h-5.482v-9.026C75.003,82.096,74.622,80.406,73.968,78.859z
					 M83.976,92.905v-1.767c0-4.074,2.596-7.691,6.459-9.001c0.386-0.131,0.654-0.483,0.677-0.89s-0.203-0.787-0.571-0.961
					c-2.406-1.139-3.961-3.588-3.961-6.239c0-3.809,3.098-6.907,6.907-6.907s6.907,3.098,6.907,6.907c0,2.651-1.555,5.1-3.961,6.239
					c-0.368,0.174-0.594,0.555-0.571,0.961s0.292,0.759,0.677,0.89c3.864,1.31,6.459,4.927,6.459,9.001v1.767H83.976z
					 M116.352,55.882c0,0.539-0.438,0.977-0.977,0.977h-10.964c-0.445-0.688-0.963-1.321-1.526-1.912h1.115
					c0.075,0,0.14-0.027,0.21-0.042h1.281h9.884C115.914,54.905,116.352,55.344,116.352,55.882z M104.491,43.879v3.922
					c-0.872-2.869-2.829-5.315-5.497-6.766c1.369-1.082,2.384-2.548,2.935-4.19C103.524,38.753,104.491,41.203,104.491,43.879z
					 M93.488,27.141c3.809,0,6.907,3.098,6.907,6.907c0,2.651-1.555,5.1-3.961,6.239c-0.368,0.174-0.594,0.555-0.571,0.961
					s0.292,0.759,0.677,0.89c3.864,1.31,6.459,4.927,6.459,9.001v1.767h-0.687c-0.563-4.372-4.302-7.765-8.825-7.765
					s-8.262,3.392-8.825,7.765h-0.687v-1.767c0-4.074,2.596-7.691,6.459-9.001c0.386-0.131,0.654-0.483,0.677-0.89
					s-0.203-0.787-0.571-0.961c-2.406-1.139-3.961-3.588-3.961-6.239C86.581,30.239,89.679,27.141,93.488,27.141z M85.047,36.845
					c0.551,1.643,1.566,3.108,2.935,4.19c-2.668,1.451-4.625,3.897-5.497,6.766v-3.922C82.485,41.203,83.452,38.753,85.047,36.845z
					 M73.003,43.879v3.922c-0.872-2.869-2.829-5.315-5.497-6.766c1.369-1.082,2.384-2.548,2.935-4.19
					C72.036,38.753,73.003,41.203,73.003,43.879z M62,27.141c3.809,0,6.907,3.098,6.907,6.907c0,2.651-1.555,5.1-3.961,6.239
					c-0.368,0.174-0.594,0.555-0.571,0.961s0.292,0.759,0.677,0.89c3.864,1.31,6.459,4.927,6.459,9.001v1.767h-0.687
					c-0.563-4.372-4.302-7.765-8.825-7.765s-8.261,3.392-8.825,7.765h-0.687v-1.767c0-4.074,2.596-7.691,6.459-9.001
					c0.386-0.131,0.654-0.483,0.677-0.89s-0.203-0.787-0.571-0.961c-2.406-1.139-3.96-3.588-3.96-6.239
					C55.094,30.239,58.192,27.141,62,27.141z M53.56,36.844c0.55,1.643,1.566,3.109,2.934,4.191
					c-2.668,1.451-4.625,3.897-5.497,6.766v-3.922C50.997,41.203,51.964,38.753,53.56,36.844z M41.516,43.879v3.922
					c-0.872-2.869-2.829-5.315-5.497-6.766c1.369-1.082,2.384-2.548,2.934-4.191C40.548,38.753,41.516,41.203,41.516,43.879z
					 M30.512,27.141c3.809,0,6.907,3.098,6.907,6.907c0,2.651-1.555,5.1-3.96,6.239c-0.368,0.174-0.594,0.555-0.571,0.961
					s0.292,0.759,0.677,0.89c3.864,1.31,6.459,4.927,6.459,9.001v1.767h-0.687c-0.563-4.372-4.302-7.765-8.825-7.765
					s-8.261,3.392-8.825,7.765H21v-1.767c0-4.074,2.596-7.691,6.459-9.001c0.386-0.131,0.654-0.483,0.677-0.89
					s-0.203-0.787-0.571-0.961c-2.406-1.139-3.96-3.588-3.96-6.239C23.606,30.239,26.704,27.141,30.512,27.141z M22.072,36.844
					c0.55,1.643,1.566,3.109,2.934,4.191c-2.668,1.451-4.625,3.897-5.497,6.766v-3.922C19.509,41.203,20.476,38.753,22.072,36.844z
					 M8.625,56.859c-0.539,0-0.977-0.438-0.977-0.977s0.438-0.977,0.977-0.977h9.884h1.281c0.07,0.016,0.136,0.042,0.21,0.042h1.115
					c-0.563,0.591-1.081,1.224-1.526,1.912H8.625z M8.625,76.859c-0.539,0-0.977-0.438-0.977-0.977s0.438-0.977,0.977-0.977h9.884
					h1.281c0.07,0.016,0.136,0.042,0.21,0.042h1.115c-0.563,0.591-1.081,1.224-1.526,1.912H8.625z M102.885,74.948h1.115
					c0.075,0,0.14-0.027,0.21-0.042h11.165c0.539,0,0.977,0.438,0.977,0.977s-0.438,0.977-0.977,0.977h-10.964
					C103.966,76.172,103.448,75.539,102.885,74.948z"/>
				<path class="st0" d="M65.083,96.859h-6.167c-0.552,0-1,0.448-1,1s0.448,1,1,1h6.167c0.552,0,1-0.448,1-1
					S65.636,96.859,65.083,96.859z"/>
			</g>
		</g>
	</g>
</g>
</svg>
