<?xml version="1.0" encoding="utf-8"?>
<!-- Generator: Adobe Illustrator 22.0.1, SVG Export Plug-In . SVG Version: 6.00 Build 0)  -->
<svg version="1.1" id="Layer_1" xmlns="http://www.w3.org/2000/svg" xmlns:xlink="http://www.w3.org/1999/xlink" x="0px" y="0px"
	 viewBox="0 0 128 128" style="enable-background:new 0 0 128 128;" xml:space="preserve">
<style type="text/css">
	.st0{fill:#3A2C60;}
	.st1{fill:#E6E7E8;}
	.st2{fill:#6DC9F7;}
	.st3{fill:#FFFFFF;}
	.st4{fill:#FA759E;}
	.st5{fill:#FFD7E5;}
	.st6{fill:#D4FBFF;}
	.st7{fill:#0089EF;}
</style>
<g>
	<path class="st1" d="M108.197,42.127c-3.607-2.331-8.094-2.669-12.011-0.906l-18.524,8.344c-0.393,0.177-0.77,0.379-1.137,0.593
		c-1.247-1.216-2.948-1.969-4.823-1.969H60.298c-1.875,0-3.575,0.753-4.822,1.968c-0.368-0.213-0.744-0.415-1.137-0.592
		l-18.525-8.344c-3.916-1.764-8.405-1.424-12.011,0.906c-3.605,2.331-5.758,6.285-5.758,10.578v26.59
		c0,4.293,2.152,8.248,5.758,10.578c2.077,1.342,4.446,2.023,6.83,2.023c1.756,0,3.52-0.37,5.181-1.118l18.525-8.344h-0.001
		c0.393-0.177,0.77-0.379,1.137-0.593c1.247,1.216,2.948,1.969,4.823,1.969h11.404c1.875,0,3.575-0.753,4.822-1.968
		c0.368,0.213,0.744,0.415,1.137,0.592l18.525,8.344c1.661,0.748,3.425,1.118,5.181,1.118c2.384,0,4.754-0.682,6.83-2.023
		c3.605-2.331,5.758-6.285,5.758-10.578v-26.59C113.955,48.412,111.803,44.458,108.197,42.127z"/>
	<g>
		<g>
			<g>
				<path class="st4" d="M92.598,38.133l-18.526,8.344c-0.61,0.275-1.184,0.604-1.727,0.97c0.794,1.007,1.272,2.275,1.272,3.657
					v21.792c0,1.382-0.478,2.65-1.272,3.657c0.542,0.367,1.116,0.695,1.727,0.97l18.526,8.344
					c7.674,3.456,16.358-2.157,16.358-10.573v-26.59C108.956,40.289,100.272,34.677,92.598,38.133z"/>
				<path class="st5" d="M91.255,79.256c-2.968,0-5.725,0.882-8.042,2.385l9.385,4.227c3.648,1.643,7.515,1.219,10.578-0.564
					C100.48,81.642,96.152,79.256,91.255,79.256z"/>
				<path class="st5" d="M94.503,37.483c-0.638,0.165-1.275,0.366-1.905,0.65l-18.526,8.344c-0.611,0.275-1.174,0.616-1.716,0.984
					c0.787,1.005,1.261,2.267,1.261,3.643v0.486c2.328,2.69,5.759,4.399,9.596,4.399c7.015,0,12.702-5.687,12.702-12.702
					C95.915,41.194,95.4,39.224,94.503,37.483z"/>
				<path class="st5" d="M108.956,49.937c-5.976,0.942-10.551,6.101-10.551,12.342s4.575,11.4,10.551,12.342V49.937z"/>
			</g>
			<g>
				<g>
					<path class="st4" d="M50.383,72.896V51.104c0-1.382,0.478-2.65,1.272-3.657c-0.542-0.367-1.116-0.695-1.727-0.97l-18.526-8.344
						c-7.674-3.456-16.358,2.156-16.358,10.573v26.59c0,8.416,8.684,14.029,16.358,10.573l18.526-8.344
						c0.61-0.275,1.184-0.604,1.727-0.97C50.861,75.546,50.383,74.278,50.383,72.896z"/>
				</g>
				<path class="st5" d="M53.147,75.355c-2.101-2.096-5-3.393-8.203-3.393c-6.415,0-11.615,5.2-11.615,11.615
					c0,0.469,0.036,0.928,0.09,1.383l16.51-7.436C51.138,76.978,52.217,76.237,53.147,75.355z"/>
				<path class="st5" d="M15.981,79.866c5.976-0.478,10.679-5.469,10.679-11.568c0-6.415-5.2-11.615-11.615-11.615v18.612
					C15.045,76.944,15.387,78.479,15.981,79.866z"/>
				<path class="st5" d="M31.402,38.133c-2.486-1.12-5.074-1.275-7.442-0.705c0,0.031-0.005,0.061-0.005,0.092
					c0,6.599,5.349,11.948,11.948,11.948c3.983,0,7.5-1.956,9.671-4.952L31.402,38.133z"/>
			</g>
		</g>
		<g>
			<path class="st2" d="M67.702,45.189H56.298c-3.267,0-5.915,2.648-5.915,5.915v21.792c0,3.267,2.648,5.915,5.915,5.915h11.404
				c3.267,0,5.915-2.648,5.915-5.915V51.104C73.617,47.838,70.969,45.189,67.702,45.189z"/>
			<path class="st3" d="M53.383,72.896V51.104c0-3.267,2.648-5.915,5.915-5.915h-3c-3.267,0-5.915,2.648-5.915,5.915v21.792
				c0,3.267,2.648,5.915,5.915,5.915h3C56.031,78.811,53.383,76.163,53.383,72.896z"/>
			<g>
				<path class="st0" d="M104.197,38.127c-3.605-2.331-8.096-2.669-12.01-0.906l-18.526,8.344c-0.394,0.177-0.771,0.379-1.138,0.595
					c-1.021-0.999-2.35-1.691-3.843-1.902c-0.546-0.078-1.053,0.303-1.131,0.85c-0.077,0.547,0.303,1.053,0.85,1.131
					c2.404,0.341,4.218,2.433,4.218,4.866v21.792c0,2.71-2.205,4.915-4.915,4.915H56.298c-2.71,0-4.915-2.205-4.915-4.915V51.105
					c0-2.474,1.848-4.57,4.299-4.877c0.548-0.068,0.937-0.568,0.868-1.116c-0.068-0.547-0.564-0.936-1.116-0.868
					c-1.543,0.193-2.913,0.892-3.96,1.915c-0.366-0.215-0.741-0.416-1.134-0.592l-18.526-8.344
					c-3.917-1.763-8.404-1.424-12.01,0.906c-3.606,2.331-5.759,6.285-5.759,10.579v26.589c0,4.293,2.152,8.248,5.758,10.578
					c2.077,1.342,4.446,2.024,6.83,2.024c1.756,0,3.521-0.37,5.181-1.118l18.526-8.344c0.393-0.177,0.769-0.378,1.135-0.593
					c1.247,1.216,2.948,1.969,4.823,1.969h11.404c1.875,0,3.576-0.753,4.823-1.969c0.366,0.215,0.743,0.417,1.136,0.594
					l18.526,8.344c1.66,0.748,3.424,1.118,5.18,1.118c2.384,0,4.754-0.682,6.83-2.024c3.606-2.331,5.759-6.285,5.759-10.578V48.706
					C109.956,44.412,107.803,40.458,104.197,38.127z M30.992,84.956c-3.296,1.483-7.07,1.197-10.104-0.763
					c-3.033-1.96-4.844-5.287-4.844-8.898V48.706c0-3.612,1.811-6.938,4.844-8.899c1.747-1.129,3.74-1.702,5.745-1.702
					c1.478,0,2.961,0.311,4.357,0.94l18.526,8.344c0.253,0.114,0.496,0.241,0.736,0.374c-0.552,0.996-0.871,2.135-0.871,3.342v3.781
					c-2.538-1.874-6.085-3.046-10.016-3.046c-0.553,0-1,0.448-1,1s0.447,1,1,1c4.191,0,7.879,1.447,10.016,3.627v8.685
					c-2.137,2.18-5.824,3.627-10.016,3.627c-0.553,0-1,0.448-1,1s0.447,1,1,1c3.931,0,7.478-1.172,10.016-3.046v4.164
					c0,1.213,0.316,2.352,0.867,3.344c-0.238,0.132-0.481,0.258-0.732,0.372L30.992,84.956z M107.956,75.295
					c0,3.611-1.811,6.938-4.844,8.898c-3.032,1.961-6.811,2.246-10.103,0.763l-18.526-8.344c-0.252-0.113-0.494-0.24-0.733-0.372
					c0.551-0.992,0.866-2.131,0.866-3.344v-4.165c2.538,1.875,6.085,3.047,10.017,3.047c0.553,0,1-0.448,1-1s-0.447-1-1-1
					c-4.192,0-7.88-1.447-10.017-3.628v-8.683c2.136-2.181,5.825-3.628,10.017-3.628c0.553,0,1-0.448,1-1s-0.447-1-1-1
					c-3.931,0-7.479,1.172-10.017,3.047v-3.782c0-1.202-0.32-2.342-0.875-3.339c0.241-0.134,0.487-0.262,0.741-0.376l18.526-8.344
					c3.293-1.483,7.07-1.198,10.102,0.762c3.034,1.96,4.845,5.287,4.845,8.899V75.295z"/>
				<path class="st0" d="M59.873,46.19h4.212c0.553,0,1-0.448,1-1s-0.447-1-1-1h-4.212c-0.553,0-1,0.448-1,1
					S59.32,46.19,59.873,46.19z"/>
			</g>
		</g>
	</g>
</g>
</svg>
