<?xml version="1.0" encoding="utf-8"?>
<!-- Generator: Adobe Illustrator 22.0.1, SVG Export Plug-In . SVG Version: 6.00 Build 0)  -->
<svg version="1.1" id="Layer_1" xmlns="http://www.w3.org/2000/svg" xmlns:xlink="http://www.w3.org/1999/xlink" x="0px" y="0px"
	 viewBox="0 0 128 128" style="enable-background:new 0 0 128 128;" xml:space="preserve">
<style type="text/css">
	.st0{fill:#3A2C60;}
	.st1{fill:#E6E7E8;}
	.st2{fill:#6DC9F7;}
	.st3{fill:#FFFFFF;}
	.st4{fill:#FA759E;}
	.st5{fill:#FFD7E5;}
	.st6{fill:#D4FBFF;}
	.st7{fill:#0089EF;}
</style>
<g>
	<path class="st1" d="M125.595,13.633c-0.281-2.755-2.614-4.912-5.441-4.912h-10.187H95.312H80.656H66H51.345H36.688H22.033H11.847
		c-2.827,0-5.161,2.157-5.441,4.912c-0.019,0.184-0.028,0.37-0.028,0.558v16.166v53.417v0.006v34.027c0,3.016,2.454,5.47,5.47,5.47
		h25.599h57.109h25.599c3.016,0,5.47-2.454,5.47-5.47V83.781v-0.006V30.358V14.192C125.623,14.003,125.614,13.817,125.595,13.633z"
		/>
	<g>
		<g>
			<path class="st5" d="M113.295,33.686c-4.047,0-7.328-3.281-7.328-7.328c0,4.047-3.281,7.328-7.328,7.328
				s-7.328-3.281-7.328-7.328c0,4.047-3.281,7.328-7.328,7.328s-7.328-3.281-7.328-7.328c0,4.047-3.281,7.328-7.328,7.328
				S62,30.405,62,26.358c0,4.047-3.281,7.328-7.328,7.328s-7.328-3.281-7.328-7.328c0,4.047-3.281,7.328-7.328,7.328
				c-4.047,0-7.328-3.281-7.328-7.328c0,4.047-3.281,7.328-7.328,7.328c-4.047,0-7.328-3.281-7.328-7.328
				c0,4.047-3.281,7.328-7.328,7.328h0c-4.047,0-7.328-3.281-7.328-7.328v87.45c0,2.469,2.001,4.47,4.47,4.47h108.306
				c2.469,0,4.47-2.001,4.47-4.47V26.359C120.622,30.406,117.342,33.686,113.295,33.686z"/>
			<g>
				<path class="st4" d="M38.097,33.423c-3.114-0.845-5.408-3.683-5.408-7.065c0,4.047-3.281,7.328-7.328,7.328
					c-4.047,0-7.328-3.281-7.328-7.328c0,4.047-3.281,7.328-7.328,7.328h0c-4.047,0-7.328-3.281-7.328-7.328V10.192
					c0-0.617,0.125-1.205,0.351-1.74c-0.226,0.535-0.351,1.123-0.351,1.74v69.586C20.815,70.238,32.33,54.727,38.097,33.423z"/>
				<path class="st4" d="M3.377,79.778v34.03c0,2.469,2.001,4.47,4.47,4.47h25.599C29.969,102.441,18.552,90.247,3.377,79.778z"/>
			</g>
			<path class="st5" d="M30.574,109.679l0.06-0.036c-0.489-1.121-1.034-2.216-1.606-3.299c-0.26-0.219-0.453-0.517-0.531-0.866
				l-0.041-0.183c-0.424-0.757-0.868-1.505-1.331-2.244c-0.4-0.01-0.807,0.188-0.999,0.633l-0.652,1.514
				c-0.274,0.635-0.925,1.022-1.614,0.958l-1.642-0.152c-1.023-0.095-1.57,1.175-0.798,1.853l1.239,1.088
				c0.52,0.456,0.686,1.195,0.413,1.831l-0.652,1.514c-0.406,0.944,0.632,1.856,1.516,1.331l1.417-0.842
				c0.595-0.353,1.349-0.283,1.869,0.173l1.239,1.088c0.772,0.678,1.961-0.028,1.735-1.03l-0.363-1.608
				C29.68,110.728,29.979,110.032,30.574,109.679z"/>
			<g>
				<path class="st4" d="M90.554,118.278h25.599c2.469,0,4.47-2.001,4.47-4.47v-34.03C105.448,90.247,94.031,102.441,90.554,118.278
					z"/>
				<path class="st4" d="M113.295,33.686c-4.047,0-7.328-3.281-7.328-7.328c0,4.047-3.281,7.328-7.328,7.328
					s-7.328-3.281-7.328-7.328c0,3.382-2.294,6.221-5.408,7.065c5.767,21.304,17.282,36.815,34.72,46.355V26.359
					C120.622,30.406,117.342,33.686,113.295,33.686z"/>
			</g>
		</g>
		<g>
			<path class="st5" d="M14.868,50.244l-0.72-1.483c-0.302-0.622-0.97-0.979-1.655-0.884l-1.633,0.226
				c-1.018,0.141-1.621-1.102-0.881-1.815l1.188-1.143c0.498-0.479,0.631-1.225,0.329-1.847l-0.72-1.483
				c-0.449-0.924,0.547-1.883,1.454-1.399l1.454,0.777c0.61,0.326,1.36,0.222,1.859-0.258l1.188-1.143
				c0.74-0.712,1.96-0.061,1.779,0.95l-0.289,1.623c-0.121,0.681,0.21,1.362,0.82,1.688l1.454,0.777
				c0.906,0.484,0.664,1.845-0.354,1.986l-1.633,0.226c-0.685,0.095-1.231,0.62-1.352,1.301l-0.289,1.623
				C16.686,50.978,15.317,51.168,14.868,50.244z"/>
		</g>
		<path class="st5" d="M3.377,98.971c0.582,0.282,1.379-0.014,1.513-0.769l0.289-1.623c0.121-0.681,0.667-1.206,1.352-1.301
			l1.633-0.227c1.018-0.141,1.26-1.502,0.354-1.986l-1.454-0.777c-0.61-0.326-0.941-1.007-0.819-1.688l0.289-1.623
			c0.18-1.011-1.039-1.663-1.78-0.95l-1.188,1.143c-0.057,0.055-0.127,0.087-0.19,0.132V98.971z"/>
		<g>
			<path class="st5" d="M107.723,50.244l-0.72-1.483c-0.302-0.622-0.97-0.979-1.655-0.884l-1.633,0.226
				c-1.018,0.141-1.621-1.102-0.881-1.815l1.188-1.143c0.498-0.479,0.631-1.225,0.329-1.847l-0.72-1.483
				c-0.449-0.924,0.547-1.883,1.454-1.399l1.454,0.777c0.61,0.326,1.36,0.222,1.859-0.258l1.188-1.143
				c0.74-0.712,1.96-0.061,1.78,0.95l-0.289,1.623c-0.121,0.681,0.21,1.362,0.82,1.688l1.454,0.777
				c0.906,0.484,0.664,1.845-0.354,1.986l-1.633,0.226c-0.685,0.095-1.231,0.62-1.352,1.301l-0.289,1.623
				C109.541,50.978,108.171,51.168,107.723,50.244z"/>
		</g>
		<g>
			<path class="st5" d="M112.81,112.834l-0.72-1.483c-0.302-0.622-0.97-0.979-1.655-0.884l-1.633,0.226
				c-1.018,0.141-1.621-1.102-0.881-1.815l1.188-1.143c0.498-0.479,0.631-1.225,0.329-1.847l-0.72-1.483
				c-0.449-0.924,0.547-1.883,1.454-1.399l1.454,0.777c0.61,0.326,1.36,0.222,1.859-0.258l1.188-1.143
				c0.74-0.712,1.96-0.061,1.78,0.95l-0.289,1.623c-0.121,0.681,0.21,1.362,0.82,1.688l1.454,0.777
				c0.906,0.484,0.664,1.845-0.354,1.986l-1.633,0.226c-0.685,0.095-1.231,0.62-1.352,1.301l-0.289,1.623
				C114.628,113.569,113.259,113.759,112.81,112.834z"/>
		</g>
		<path class="st5" d="M116.812,73.15l-1.454-0.777c-0.61-0.326-0.941-1.007-0.819-1.688l0.289-1.623
			c0.18-1.011-1.039-1.663-1.779-0.95l-1.188,1.143c-0.498,0.479-1.249,0.584-1.859,0.258l-1.454-0.777
			c-0.891-0.476-1.861,0.442-1.468,1.352c2.186,2.015,4.507,3.894,6.979,5.622c0.219-0.175,0.476-0.306,0.767-0.347l1.633-0.227
			C117.476,74.995,117.718,73.634,116.812,73.15z"/>
		<path class="st5" d="M15.469,69.884l-1.642-0.152c-0.689-0.064-1.258-0.564-1.41-1.238l-0.363-1.608
			c-0.226-1.002-1.602-1.13-2.009-0.186l-0.652,1.514c-0.273,0.635-0.925,1.022-1.613,0.958L6.139,69.02
			c-1.023-0.095-1.57,1.175-0.798,1.853l1.239,1.088c0.52,0.456,0.686,1.195,0.413,1.831l-0.652,1.514
			c-0.406,0.944,0.632,1.856,1.516,1.331l1.417-0.842c0.26-0.154,0.55-0.213,0.838-0.209c2.198-1.547,4.28-3.213,6.251-4.988
			C16.239,70.232,15.933,69.927,15.469,69.884z"/>
		<path class="st4" d="M116.153,5.722H7.847c-2.469,0-4.47,2.001-4.47,4.47v16.166c0,4.047,3.281,7.328,7.328,7.328h0
			c4.047,0,7.328-3.281,7.328-7.328c0,4.047,3.281,7.328,7.328,7.328c4.047,0,7.328-3.281,7.328-7.328
			c0,4.047,3.281,7.328,7.328,7.328c4.047,0,7.328-3.281,7.328-7.328c0,4.047,3.281,7.328,7.328,7.328S62,30.405,62,26.358
			c0,4.047,3.281,7.328,7.328,7.328s7.328-3.281,7.328-7.328c0,4.047,3.281,7.328,7.328,7.328s7.328-3.281,7.328-7.328
			c0,4.047,3.281,7.328,7.328,7.328s7.328-3.281,7.328-7.328c0,4.047,3.281,7.328,7.328,7.328s7.328-3.281,7.328-7.328V10.192
			C120.623,7.723,118.622,5.722,116.153,5.722z"/>
		<path class="st3" d="M116.153,5.722H7.847c-2.469,0-4.47,2.001-4.47,4.47v3c0-2.469,2.001-4.47,4.47-4.47h108.306
			c2.469,0,4.47,2.001,4.47,4.47v-3C120.623,7.723,118.622,5.722,116.153,5.722z"/>
		<g>
			<g>
				<circle class="st2" cx="62" cy="65.195" r="4.657"/>
				<g>
					<polygon class="st3" points="58.358,72.816 58.358,72.816 57.35,72.816 57.351,72.816 					"/>
					<path class="st2" d="M80.281,61.15c0-0.037,0.01-0.072,0.011-0.109c-0.403-0.319-0.914-0.508-1.475-0.479
						c-1.189,0.062-2.081,1.13-2.081,2.32v2.846c0,3.914-3.173,7.087-7.087,7.087h-1.007v0H55.358v0h-1.007
						c-3.914,0-7.087-3.173-7.087-7.087v-2.846c0-1.191-0.891-2.258-2.08-2.32c-0.561-0.029-1.072,0.16-1.475,0.479
						c0.001,0.037,0.011,0.071,0.011,0.109c0,0.835-0.328,1.588-0.853,2.157v2.422c0,2.92,1.099,5.578,2.894,7.604
						c1.121-0.394,2.416-0.153,3.313,0.744c0.629,0.629,0.938,1.456,0.932,2.28c1.341,0.549,2.807,0.857,4.345,0.857h1.007v38.432
						c0,1.386,1.124,2.51,2.51,2.51c1.386,0,2.51-1.124,2.51-2.51V97.18c0-0.896,0.726-1.622,1.622-1.622s1.622,0.726,1.622,1.622
						v18.357c0,1.311,0.958,2.482,2.264,2.606c1.497,0.143,2.757-1.031,2.757-2.498V91.55V77.213h1.007
						c1.539,0,3.004-0.308,4.345-0.857c-0.006-0.825,0.303-1.651,0.932-2.28c0.897-0.897,2.191-1.137,3.313-0.744
						c1.795-2.026,2.894-4.684,2.894-7.604v-2.421C80.608,62.739,80.281,61.985,80.281,61.15z"/>
				</g>
			</g>
			<g>
				<circle class="st7" cx="40.529" cy="61.15" r="3.191"/>
				<circle class="st7" cx="83.471" cy="61.15" r="3.191"/>
			</g>
			<g>
				<path class="st4" d="M49.074,74.077c-1.246-1.246-3.266-1.246-4.512,0c-1.246,1.246-1.246,3.266,0,4.512
					c1.246,1.246,3.266,1.246,4.512,0S50.32,75.323,49.074,74.077z"/>
				<path class="st4" d="M79.438,43.712c-1.246-1.246-3.266-1.246-4.512,0s-1.246,3.266,0,4.512s3.266,1.246,4.512,0
					C80.685,46.978,80.685,44.958,79.438,43.712z"/>
			</g>
			<g>
				<path class="st7" d="M62,79.431c-1.762,0-3.191,1.429-3.191,3.191s1.428,3.191,3.191,3.191s3.191-1.428,3.191-3.191
					S63.762,79.431,62,79.431z"/>
				<path class="st7" d="M62,36.489c-1.762,0-3.191,1.428-3.191,3.191S60.238,42.87,62,42.87s3.191-1.429,3.191-3.191
					S63.762,36.489,62,36.489z"/>
			</g>
			<g>
				<path class="st4" d="M79.438,74.077c-1.246-1.246-3.266-1.246-4.512,0s-1.246,3.266,0,4.512s3.266,1.246,4.512,0
					C80.685,77.343,80.685,75.323,79.438,74.077z"/>
				<g>
					<path class="st4" d="M49.074,43.712c-1.246-1.246-3.266-1.246-4.512,0c-1.246,1.246-1.246,3.266,0,4.512
						c1.246,1.246,3.266,1.246,4.512,0S50.32,44.958,49.074,43.712z"/>
					<g>
						<path class="st0" d="M27.019,58.346c0.169,0.111,0.359,0.164,0.547,0.164c0.326,0,0.646-0.159,0.838-0.452
							c1.091-1.666,2.139-3.418,3.112-5.209c0.265-0.485,0.085-1.092-0.4-1.356c-0.484-0.264-1.093-0.084-1.355,0.4
							c-0.949,1.743-1.968,3.449-3.03,5.069C26.428,57.423,26.557,58.043,27.019,58.346z"/>
						<path class="st0" d="M121.595,9.633c-0.281-2.755-2.614-4.912-5.441-4.912h-10.187H91.312H76.656H62H47.345H32.688H18.033
							H7.847c-2.827,0-5.161,2.157-5.441,4.912c-0.019,0.184-0.028,0.37-0.028,0.558v16.166v53.417v0.006v34.027
							c0,3.016,2.454,5.47,5.47,5.47h25.599h57.109h25.599c3.016,0,5.47-2.454,5.47-5.47V79.781v-0.006V26.358V10.192
							C121.623,10.003,121.614,9.817,121.595,9.633z M83.983,32.686c-3.489,0-6.327-2.839-6.327-6.328V6.722h12.655v19.636
							C90.312,29.847,87.473,32.686,83.983,32.686z M33.688,26.358V6.722h12.656v19.636c0,3.489-2.839,6.328-6.328,6.328
							S33.688,29.847,33.688,26.358z M4.377,10.192c0-1.913,1.557-3.47,3.47-3.47h9.187v19.636c0,3.489-2.839,6.328-6.328,6.328
							s-6.328-2.839-6.328-6.328V10.192z M19.033,6.722h12.655v19.636c0,3.489-2.839,6.328-6.328,6.328s-6.327-2.839-6.327-6.328
							V6.722z M48.345,6.722H61v19.636c0,3.489-2.839,6.328-6.328,6.328s-6.327-2.839-6.327-6.328V6.722z M63,6.722h12.656v19.636
							c0,3.489-2.839,6.328-6.328,6.328S63,29.847,63,26.358V6.722z M92.312,6.722h12.655v19.636c0,3.489-2.838,6.328-6.327,6.328
							s-6.328-2.839-6.328-6.328V6.722z M106.967,6.722h9.187c1.913,0,3.47,1.557,3.47,3.47v16.166c0,3.489-2.839,6.328-6.328,6.328
							s-6.328-2.839-6.328-6.328V6.722z M10.705,34.686c3.162,0,5.918-1.772,7.328-4.375c1.41,2.603,4.165,4.375,7.327,4.375
							c3.162,0,5.918-1.772,7.328-4.376c0.912,1.684,2.389,3.017,4.174,3.751c-1.236,4.412-2.709,8.57-4.437,12.434
							c-0.226,0.504,0.001,1.096,0.505,1.321c0.507,0.225,1.097-0.002,1.321-0.505c1.77-3.957,3.275-8.214,4.538-12.726
							c0.402,0.06,0.809,0.101,1.228,0.101c3.162,0,5.918-1.772,7.328-4.375c1.41,2.603,4.165,4.375,7.327,4.375
							c3.162,0,5.918-1.772,7.328-4.376c1.41,2.603,4.166,4.376,7.328,4.376c3.162,0,5.918-1.772,7.328-4.375
							c1.41,2.603,4.165,4.375,7.327,4.375c0.427,0,0.843-0.042,1.253-0.105c5.814,20.602,17.014,35.785,33.508,45.288
							c-16.461,11.633-25.691,23.572-28.97,37.409H69.219c0.265-0.501,0.423-1.056,0.423-1.633V78.213h0.008
							c1.247,0,2.446-0.196,3.581-0.54c0.199,0.592,0.518,1.152,0.989,1.623c0.791,0.792,1.843,1.228,2.963,1.228
							c1.119,0,2.172-0.436,2.963-1.228c1.634-1.634,1.634-4.292,0-5.926c-0.123-0.123-0.263-0.221-0.398-0.327
							c1.496-2.057,2.386-4.581,2.386-7.314v-0.627c0.422,0.143,0.867,0.239,1.337,0.239c2.312,0,4.191-1.88,4.191-4.19
							c0-2.311-1.88-4.191-4.191-4.191c-1.774,0-3.285,1.112-3.896,2.673c-0.262-0.055-0.533-0.083-0.812-0.069
							c-1.697,0.089-3.027,1.547-3.027,3.319v2.846c0,3.356-2.73,6.087-6.087,6.087H54.351c-3.355,0-6.086-2.73-6.086-6.087v-2.846
							c0-1.772-1.33-3.229-3.028-3.319c-0.279-0.014-0.55,0.013-0.812,0.068c-0.61-1.56-2.121-2.673-3.895-2.673
							c-2.312,0-4.191,1.88-4.191,4.191c0,2.311,1.88,4.19,4.191,4.19c0.47,0,0.915-0.095,1.337-0.239v0.627
							c0,2.733,0.891,5.258,2.387,7.315c-0.135,0.105-0.275,0.201-0.399,0.325c-1.634,1.634-1.634,4.292,0,5.926
							c0.817,0.817,1.89,1.226,2.963,1.226s2.147-0.409,2.964-1.226c0.47-0.471,0.789-1.031,0.989-1.623
							c1.135,0.345,2.334,0.54,3.581,0.54l0.008,37.432c0,0.593,0.162,1.143,0.422,1.633H34.226
							c-3.28-13.837-12.51-25.776-28.97-37.409c7.805-4.496,14.492-10.296,19.896-17.256c0.339-0.437,0.26-1.064-0.177-1.403
							c-0.438-0.339-1.064-0.258-1.403,0.177c-5.215,6.719-11.667,12.324-19.194,16.681v-46.31
							C5.906,33.547,8.173,34.686,10.705,34.686z M50.938,75.628c-0.14-0.827-0.521-1.621-1.157-2.258
							c-0.993-0.993-2.364-1.373-3.654-1.159c-1.411-1.786-2.261-4.034-2.261-6.481v-2.072c0.436-0.578,0.716-1.268,0.805-2.023
							c0.126-0.044,0.257-0.075,0.395-0.075c0.022,0,0.044,0,0.065,0.001c0.625,0.033,1.134,0.626,1.134,1.322v2.846
							c0,4.459,3.627,8.087,8.086,8.087h15.299c4.459,0,8.087-3.628,8.087-8.087v-2.846c0-0.696,0.508-1.289,1.133-1.322
							c0.154-0.008,0.311,0.017,0.46,0.069c0.088,0.756,0.369,1.448,0.805,2.027v2.072c0,2.447-0.85,4.695-2.261,6.481
							c-0.227-0.038-0.456-0.067-0.69-0.067c-1.12,0-2.172,0.436-2.963,1.228c-0.637,0.637-1.018,1.431-1.158,2.258
							c-1.07,0.374-2.216,0.586-3.412,0.586h-1.008c-0.553,0-1,0.448-1,1v38.432c0,0.431-0.176,0.828-0.495,1.118
							c-0.318,0.29-0.739,0.425-1.167,0.384c-0.762-0.072-1.358-0.78-1.358-1.61V97.18c0-1.445-1.176-2.622-2.621-2.622
							s-2.621,1.176-2.621,2.622v18.465c0,0.833-0.678,1.51-1.511,1.51c-0.832,0-1.51-0.678-1.51-1.51V77.213c0-0.552-0.447-1-1-1
							h-1.008C53.154,76.213,52.009,76.002,50.938,75.628z M45.269,74.784c0.427-0.427,0.988-0.641,1.549-0.641
							c0.562,0,1.122,0.213,1.55,0.641c0.854,0.854,0.854,2.244,0,3.098c-0.853,0.853-2.244,0.855-3.099,0
							C44.414,77.028,44.414,75.638,45.269,74.784z M40.529,63.341c-1.208,0-2.191-0.982-2.191-2.19s0.983-2.191,2.191-2.191
							s2.19,0.983,2.19,2.191S41.737,63.341,40.529,63.341z M81.28,61.15c0-1.208,0.982-2.191,2.19-2.191s2.191,0.983,2.191,2.191
							s-0.983,2.19-2.191,2.19S81.28,62.358,81.28,61.15z M77.183,74.142c0.585,0,1.135,0.228,1.549,0.642
							c0.854,0.854,0.854,2.244,0,3.098c-0.828,0.827-2.27,0.827-3.098,0c-0.854-0.854-0.854-2.244,0-3.098
							C76.048,74.37,76.598,74.142,77.183,74.142z M61.379,115.645V97.18c0-0.343,0.278-0.622,0.621-0.622s0.621,0.279,0.621,0.622
							v18.357c0,0.628,0.171,1.22,0.452,1.741h-2.116C61.217,116.788,61.379,116.238,61.379,115.645z M7.847,117.278
							c-1.913,0-3.47-1.557-3.47-3.47V81.699c15.684,11.143,24.568,22.511,27.808,35.58H7.847z M119.623,113.808
							c0,1.914-1.557,3.47-3.47,3.47H91.815c3.239-13.068,12.124-24.437,27.808-35.58V113.808z M119.623,78.067
							c-15.944-9.231-26.792-23.986-32.455-44.017c1.771-0.736,3.237-2.065,4.144-3.74c1.41,2.603,4.166,4.376,7.328,4.376
							c3.162,0,5.918-1.772,7.327-4.375c1.41,2.603,4.166,4.375,7.328,4.375c2.532,0,4.799-1.139,6.328-2.928V78.067z"/>
						<path class="st0" d="M62,70.852c3.119,0,5.657-2.538,5.657-5.657S65.119,59.539,62,59.539c-3.119,0-5.657,2.538-5.657,5.657
							S58.881,70.852,62,70.852z M62,61.539c2.017,0,3.657,1.641,3.657,3.657S64.017,68.852,62,68.852
							c-2.017,0-3.657-1.641-3.657-3.657S59.983,61.539,62,61.539z"/>
						<path class="st0" d="M77.183,50.159c1.119,0,2.172-0.436,2.963-1.228c1.634-1.634,1.634-4.292,0-5.926
							c-0.791-0.792-1.844-1.228-2.963-1.228c-1.12,0-2.172,0.436-2.963,1.228c-1.634,1.634-1.634,4.292,0,5.926
							C75.011,49.723,76.063,50.159,77.183,50.159z M75.634,44.419c0.414-0.414,0.964-0.642,1.549-0.642s1.135,0.228,1.549,0.642
							c0.854,0.854,0.854,2.244,0,3.098c-0.828,0.827-2.27,0.827-3.098,0C74.779,46.663,74.779,45.273,75.634,44.419z"/>
						<path class="st0" d="M62,86.812c2.311,0,4.19-1.88,4.19-4.19c0-2.311-1.88-4.191-4.19-4.191c-2.311,0-4.19,1.88-4.19,4.191
							C57.81,84.932,59.689,86.812,62,86.812z M62,80.431c1.208,0,2.19,0.983,2.19,2.191s-0.982,2.19-2.19,2.19
							s-2.19-0.982-2.19-2.19S60.792,80.431,62,80.431z"/>
						<path class="st0" d="M62,43.87c2.311,0,4.19-1.88,4.19-4.19c0-2.311-1.88-4.191-4.19-4.191c-2.311,0-4.19,1.88-4.19,4.191
							C57.81,41.99,59.689,43.87,62,43.87z M62,37.488c1.208,0,2.19,0.983,2.19,2.191s-0.982,2.19-2.19,2.19s-2.19-0.982-2.19-2.19
							S60.792,37.488,62,37.488z"/>
						<path class="st0" d="M46.817,50.157c1.073,0,2.147-0.409,2.964-1.226c1.633-1.634,1.633-4.292,0-5.926
							c-1.635-1.634-4.292-1.633-5.927,0c-1.634,1.634-1.634,4.292,0,5.926C44.672,49.748,45.744,50.157,46.817,50.157z
							 M45.269,44.419c0.428-0.427,0.988-0.641,1.55-0.641c0.561,0,1.121,0.213,1.549,0.641c0.854,0.854,0.854,2.244,0,3.098
							c-0.853,0.853-2.244,0.855-3.099,0C44.414,46.663,44.414,45.273,45.269,44.419z"/>
					</g>
				</g>
			</g>
		</g>
	</g>
</g>
</svg>
