<?xml version="1.0" encoding="utf-8"?>
<!-- Generator: Adobe Illustrator 22.0.1, SVG Export Plug-In . SVG Version: 6.00 Build 0)  -->
<svg version="1.1" id="Layer_1" xmlns="http://www.w3.org/2000/svg" xmlns:xlink="http://www.w3.org/1999/xlink" x="0px" y="0px"
	 viewBox="0 0 128 128" style="enable-background:new 0 0 128 128;" xml:space="preserve">
<style type="text/css">
	.st0{fill:#3A2C60;}
	.st1{fill:#E6E7E8;}
	.st2{fill:#6DC9F7;}
	.st3{fill:#FFFFFF;}
	.st4{fill:#FA759E;}
	.st5{fill:#FFD7E5;}
	.st6{fill:#D4FBFF;}
	.st7{fill:#0089EF;}
</style>
<g>
	<path class="st1" d="M122.352,30.867V14.418c0-1.654-1.346-3-3-3H12.649c-1.654,0-3,1.346-3,3v16.448c0,3.04,1.138,5.813,3,7.938
		V66.68h-0.023c-1.642,0-2.977,1.335-2.977,2.977c0,1.641,1.335,2.977,2.977,2.977h0.023v12.277h-0.023
		c-1.642,0-2.977,1.335-2.977,2.977s1.335,2.977,2.977,2.977h0.023v13.595h-0.023c-1.642,0-2.977,1.335-2.977,2.977
		c0,1.642,1.335,2.977,2.977,2.977h0.023v7.168c0,1.654,1.346,3,3,3h100.703c1.654,0,3-1.346,3-3v-7.168h0.023
		c1.642,0,2.977-1.335,2.977-2.977c0-1.641-1.335-2.977-2.977-2.977h-0.023V90.865h0.023c1.642,0,2.977-1.335,2.977-2.977
		s-1.335-2.977-2.977-2.977h-0.023V72.633h0.023c1.642,0,2.977-1.335,2.977-2.977c0-1.642-1.335-2.977-2.977-2.977h-0.023V38.804
		C121.213,36.68,122.352,33.907,122.352,30.867z"/>
	<g>
		<path class="st7" d="M9.648,105.414v8.168c0,1.105,0.895,2,2,2h100.704c1.105,0,2-0.895,2-2v-8.168H9.648z"/>
		<rect x="9.648" y="25.782" class="st6" width="104.704" height="75.678"/>
		<g>
			<path class="st4" d="M74.003,63.68V53.653c0-6.629-5.374-12.003-12.003-12.003s-12.003,5.374-12.003,12.003V63.68H74.003z"/>
			<g>
				<path class="st3" d="M42.515,63.68V53.653c0-6.629-5.374-12.003-12.003-12.003h0c-6.629,0-12.003,5.374-12.003,12.003V63.68
					H42.515z"/>
				<path class="st5" d="M42.512,63.68v-7.028c0-3.31-1.34-6.31-3.51-8.49c-2.17-2.17-5.17-3.51-8.49-3.51c-6.63,0-12,5.37-12,12
					v7.028H42.512z"/>
			</g>
			<path class="st5" d="M105.491,63.68V53.653c0-6.629-5.374-12.003-12.003-12.003h0c-6.629,0-12.003,5.374-12.003,12.003V63.68
				H105.491z"/>
			<path class="st7" d="M8.625,67.633h106.75c1.092,0,1.977-0.885,1.977-1.977s-0.885-1.977-1.977-1.977H8.625
				c-1.092,0-1.977,0.885-1.977,1.977S7.533,67.633,8.625,67.633z"/>
			<path class="st5" d="M74.003,81.911V71.885c0-6.629-5.374-12.003-12.003-12.003s-12.003,5.374-12.003,12.003v10.026H74.003z"/>
			<path class="st4" d="M42.515,81.911V71.885c0-6.629-5.374-12.003-12.003-12.003h0c-6.629,0-12.003,5.374-12.003,12.003v10.026
				H42.515z"/>
			<path class="st4" d="M105.491,81.911V71.885c0-6.629-5.374-12.003-12.003-12.003h0c-6.629,0-12.003,5.374-12.003,12.003v10.026
				H105.491z"/>
			<g>
				<path class="st7" d="M115.375,81.911H37.799c1.381,1.058,2.527,2.402,3.341,3.954h74.235c1.092,0,1.977-0.885,1.977-1.977
					C117.352,82.796,116.467,81.911,115.375,81.911z"/>
				<path class="st7" d="M23.226,81.911H8.625c-1.092,0-1.977,0.885-1.977,1.977c0,1.092,0.885,1.977,1.977,1.977h11.26
					C20.7,84.313,21.846,82.969,23.226,81.911z"/>
			</g>
			<path class="st4" d="M74.003,101.46V91.434c0-6.629-5.374-12.003-12.003-12.003s-12.003,5.374-12.003,12.003v10.026H74.003z"/>
			<path class="st5" d="M42.515,101.46V91.434c0-6.629-5.374-12.003-12.003-12.003h0c-6.629,0-12.003,5.374-12.003,12.003v10.026
				H42.515z"/>
			<path class="st5" d="M105.491,101.46V91.434c0-6.629-5.374-12.003-12.003-12.003h0c-6.629,0-12.003,5.374-12.003,12.003v10.026
				H105.491z"/>
			<path class="st7" d="M115.375,101.46H8.625c-1.092,0-1.977,0.885-1.977,1.977s0.885,1.977,1.977,1.977h106.75
				c1.092,0,1.977-0.885,1.977-1.977S116.467,101.46,115.375,101.46z"/>
		</g>
		<g>
			<g>
				<path class="st7" d="M6.699,27.867c0.506,5.645,5.244,10.071,11.02,10.071c5.776,0,10.514-4.426,11.02-10.071H6.699z"/>
				<path class="st3" d="M28.839,27.867c0.506,5.645,5.244,10.071,11.02,10.071c5.776,0,10.514-4.426,11.02-10.071H28.839z"/>
				<path class="st7" d="M50.98,27.867c0.506,5.645,5.244,10.071,11.02,10.071s10.514-4.426,11.02-10.071H50.98z"/>
				<path class="st3" d="M73.121,27.867c0.506,5.645,5.243,10.071,11.02,10.071s10.514-4.426,11.02-10.071H73.121z"/>
				<path class="st7" d="M95.262,27.867c0.506,5.645,5.243,10.071,11.02,10.071c5.776,0,10.514-4.426,11.02-10.071H95.262z"/>
			</g>
			<path class="st7" d="M8.648,8.418c-1.105,0-2,0.895-2,2v16.448h22.141V8.418H8.648z"/>
			<rect x="28.789" y="8.418" class="st3" width="22.141" height="18.448"/>
			<rect x="50.93" y="8.418" class="st7" width="22.141" height="18.448"/>
			<rect x="73.07" y="8.418" class="st3" width="22.141" height="18.448"/>
			<path class="st7" d="M115.352,8.418H95.211v18.448h22.141V10.418C117.352,9.314,116.457,8.418,115.352,8.418z"/>
			<g>
				<path class="st0" d="M20.287,45.621c-1.815,2.308-2.774,5.084-2.774,8.03c0,0.552,0.447,1,1,1s1-0.448,1-1
					c0-2.493,0.812-4.842,2.347-6.794c0.342-0.434,0.267-1.063-0.168-1.404C21.256,45.111,20.628,45.187,20.287,45.621z"/>
				<path class="st0" d="M118.352,26.867V10.418c0-1.654-1.346-3-3-3H8.648c-1.654,0-3,1.346-3,3v16.448c0,3.04,1.138,5.813,3,7.938
					V62.68H8.625c-1.642,0-2.977,1.335-2.977,2.977c0,1.641,1.335,2.977,2.977,2.977h0.023v12.278H8.625
					c-1.642,0-2.977,1.335-2.977,2.977c0,1.642,1.335,2.977,2.977,2.977h0.023v13.595H8.625c-1.642,0-2.977,1.335-2.977,2.977
					c0,1.641,1.335,2.977,2.977,2.977h0.023v7.168c0,1.654,1.346,3,3,3h100.704c1.654,0,3-1.346,3-3v-7.168h0.022
					c1.642,0,2.977-1.335,2.977-2.977c0-1.642-1.335-2.977-2.977-2.977h-0.022V86.865h0.022c1.642,0,2.977-1.335,2.977-2.977
					c0-1.641-1.335-2.977-2.977-2.977h-0.022V68.633h0.022c1.642,0,2.977-1.335,2.977-2.977c0-1.642-1.335-2.977-2.977-2.977h-0.022
					V34.805C117.214,32.68,118.352,29.907,118.352,26.867z M106.282,36.937c-5.216,0-9.517-3.985-10.021-9.071h20.04
					C115.798,32.952,111.497,36.937,106.282,36.937z M7.648,10.418c0-0.551,0.448-1,1-1h106.704c0.552,0,1,0.449,1,1v15.448H7.648
					V10.418z M94.16,27.867c-0.504,5.085-4.804,9.071-10.02,9.071s-9.516-3.985-10.02-9.071H94.16z M72.02,27.867
					c-0.504,5.085-4.804,9.071-10.02,9.071s-9.516-3.985-10.02-9.071H72.02z M49.879,27.867c-0.504,5.085-4.804,9.071-10.02,9.071
					s-9.516-3.985-10.02-9.071H49.879z M27.738,27.867c-0.504,5.085-4.804,9.071-10.02,9.071s-9.516-3.985-10.02-9.071H27.738z
					 M7.648,65.657c0-0.539,0.438-0.977,0.977-0.977h9.888h1.184c-0.411,0.615-0.767,1.27-1.07,1.954H8.625
					C8.087,66.633,7.648,66.195,7.648,65.657z M49.997,64.68h1.187c-0.411,0.615-0.767,1.27-1.07,1.954h-7.716
					c-0.303-0.683-0.658-1.338-1.07-1.954h1.184H49.997z M104.491,62.68h-1.829c-2.353-2.345-5.597-3.798-9.174-3.798
					s-6.821,1.453-9.174,3.798h-1.829v-9.026c0-6.067,4.936-11.003,11.003-11.003s11.003,4.936,11.003,11.003V62.68z
					 M104.491,91.434v9.026H82.485v-9.026c0-6.067,4.936-11.003,11.003-11.003S104.491,85.367,104.491,91.434z M75.003,100.46
					v-9.026c0-1.609-0.308-3.145-0.845-4.569h7.172c-0.537,1.424-0.845,2.959-0.845,4.569v9.026H75.003z M43.516,100.46v-9.026
					c0-1.609-0.308-3.145-0.845-4.569h7.171c-0.537,1.424-0.845,2.959-0.845,4.569v9.026H43.516z M19.51,91.434
					c0-6.067,4.936-11.003,11.003-11.003s11.003,4.936,11.003,11.003v9.026H19.51V91.434z M43.087,68.633h6.338
					c-0.27,1.041-0.428,2.127-0.428,3.251v9.026h-5.481v-9.026C43.516,70.76,43.357,69.675,43.087,68.633z M82.286,84.865h-9.083
					c-0.409-0.695-0.879-1.349-1.406-1.954h2.206h7.482h2.206C83.164,83.516,82.695,84.17,82.286,84.865z M80.485,71.885v9.026
					h-5.482v-9.026c0-1.125-0.158-2.21-0.428-3.251h6.339C80.644,69.675,80.485,70.76,80.485,71.885z M73.003,71.885v9.026h-3.395
					c-2.142-1.553-4.766-2.48-7.608-2.48c-2.842,0-5.466,0.927-7.608,2.48h-3.395v-9.026c0-6.067,4.936-11.003,11.003-11.003
					S73.003,65.818,73.003,71.885z M49.997,82.911h2.206c-0.527,0.605-0.996,1.258-1.406,1.954h-9.082
					c-0.409-0.695-0.879-1.349-1.406-1.954h2.206H49.997z M50.997,91.434c0-6.067,4.936-11.003,11.003-11.003
					s11.003,4.936,11.003,11.003v9.026H50.997V91.434z M101.096,80.911c-2.142-1.553-4.766-2.48-7.608-2.48s-5.466,0.927-7.608,2.48
					h-3.395v-9.026c0-6.067,4.936-11.003,11.003-11.003s11.003,4.936,11.003,11.003v9.026H101.096z M81.485,64.68h1.187
					c-0.411,0.615-0.767,1.27-1.07,1.954h-7.717c-0.303-0.683-0.658-1.338-1.07-1.954h1.187H81.485z M73.003,62.68h-1.829
					c-2.353-2.345-5.597-3.798-9.174-3.798c-3.577,0-6.821,1.453-9.174,3.798h-1.829v-9.026c0-6.067,4.936-11.003,11.003-11.003
					s11.003,4.936,11.003,11.003V62.68z M41.516,71.885v9.026h-3.395c-2.142-1.553-4.766-2.48-7.608-2.48s-5.466,0.927-7.608,2.48
					H19.51v-9.026c0-6.067,4.936-11.003,11.003-11.003S41.516,65.818,41.516,71.885z M10.648,68.633h7.289
					c-0.27,1.041-0.428,2.127-0.428,3.251v9.026h-6.861V68.633z M7.648,83.888c0-0.539,0.438-0.977,0.977-0.977h9.885h2.206
					c-0.527,0.605-0.996,1.258-1.406,1.954H8.625C8.087,84.865,7.648,84.426,7.648,83.888z M10.648,86.865h7.706
					c-0.537,1.424-0.845,2.959-0.845,4.569v9.026h-6.861V86.865z M113.352,113.582c0,0.551-0.448,1-1,1H11.648c-0.552,0-1-0.449-1-1
					v-7.168h102.704V113.582z M116.351,103.437c0,0.539-0.438,0.977-0.977,0.977h-1.022H9.648H8.625
					c-0.538,0-0.977-0.438-0.977-0.977s0.438-0.977,0.977-0.977h9.885h24.006h7.481h24.006h7.482h24.006h9.884
					C115.913,102.46,116.351,102.898,116.351,103.437z M113.352,100.46h-6.861v-9.026c0-1.609-0.308-3.145-0.845-4.569h7.706V100.46
					z M116.351,83.888c0,0.539-0.438,0.977-0.977,0.977h-10.684c-0.409-0.695-0.879-1.349-1.406-1.954h2.206h9.884
					C115.913,82.911,116.351,83.349,116.351,83.888z M113.352,80.911h-6.861v-9.026c0-1.125-0.158-2.21-0.428-3.251h7.289V80.911z
					 M116.351,65.657c0,0.539-0.438,0.977-0.977,0.977h-10.001c-0.303-0.683-0.658-1.338-1.07-1.954h1.187h9.884
					C115.913,64.68,116.351,65.118,116.351,65.657z M106.491,62.68v-9.026c0-7.17-5.833-13.003-13.003-13.003
					s-13.003,5.833-13.003,13.003v9.026h-5.482v-9.026c0-7.17-5.833-13.003-13.003-13.003s-13.003,5.833-13.003,13.003v9.026h-5.484
					v-9.028c0-3.467-1.35-6.733-3.803-9.197c-2.453-2.452-5.72-3.803-9.197-3.803c-2.124,0-4.232,0.523-6.096,1.514
					c-0.487,0.259-0.673,0.864-0.413,1.352c0.259,0.488,0.86,0.672,1.353,0.414c1.574-0.837,3.357-1.279,5.156-1.279
					c2.943,0,5.708,1.143,7.781,3.215c2.076,2.085,3.219,4.85,3.219,7.785v9.028h-1.826c-2.353-2.345-5.597-3.798-9.174-3.798
					s-6.821,1.453-9.174,3.798h-1.826v-4.418c0-0.552-0.447-1-1-1s-1,0.448-1,1v4.418h-6.864V36.629
					c1.99,1.445,4.428,2.309,7.07,2.309c4.964,0,9.221-3.02,11.07-7.314c1.849,4.294,6.106,7.314,11.07,7.314
					s9.221-3.02,11.07-7.314c1.849,4.294,6.106,7.314,11.07,7.314s9.221-3.02,11.07-7.314c1.849,4.294,6.106,7.314,11.07,7.314
					s9.221-3.02,11.07-7.314c1.849,4.294,6.106,7.314,11.071,7.314c2.642,0,5.08-0.863,7.07-2.309V62.68H106.491z"/>
			</g>
		</g>
	</g>
</g>
</svg>
