<?xml version="1.0" encoding="utf-8"?>
<!-- Generator: Adobe Illustrator 22.0.1, SVG Export Plug-In . SVG Version: 6.00 Build 0)  -->
<svg version="1.1" id="Layer_1" xmlns="http://www.w3.org/2000/svg" xmlns:xlink="http://www.w3.org/1999/xlink" x="0px" y="0px"
	 viewBox="0 0 128 128" style="enable-background:new 0 0 128 128;" xml:space="preserve">
<style type="text/css">
	.st0{fill:#3A2C60;}
	.st1{fill:#E6E7E8;}
	.st2{fill:#6DC9F7;}
	.st3{fill:#FFFFFF;}
	.st4{fill:#FA759E;}
	.st5{fill:#FFD7E5;}
	.st6{fill:#D4FBFF;}
	.st7{fill:#0089EF;}
</style>
<g>
	<path class="st1" d="M101.126,112.211L80.349,80.256l6.185-4.022c1.763-1.146,2.265-3.513,1.119-5.275l-4.271-6.567
		c-1.146-1.764-3.514-2.266-5.275-1.118l-6.248,4.063c-0.534-0.549-1.218-0.929-1.984-1.092c-1.022-0.217-2.063-0.022-2.937,0.547
		c-0.874,0.568-1.474,1.442-1.69,2.462c-0.162,0.767-0.093,1.546,0.192,2.256l-4.18,2.718V42.384
		c5.732-2.897,9.577-8.854,9.577-15.499c0-9.574-7.79-17.363-17.364-17.363S36.11,17.311,36.11,26.885
		c0,6.644,3.845,12.601,9.576,15.499v2.702h-0.34c-1.466,0-2.659,1.193-2.659,2.66c0,1.466,1.193,2.659,2.659,2.659h0.34v5.84h-0.34
		c-1.466,0-2.659,1.193-2.659,2.659s1.193,2.659,2.659,2.659h0.34v5.84h-0.34c-1.466,0-2.659,1.193-2.659,2.659
		c0,1.467,1.193,2.66,2.659,2.66h0.34v5.839h-0.34c-1.466,0-2.659,1.193-2.659,2.66c0,1.466,1.193,2.659,2.659,2.659h0.34v5.84
		h-0.34c-1.466,0-2.659,1.193-2.659,2.659c0,1.467,1.193,2.66,2.659,2.66h0.34v5.667c-1.365,0.003-2.475,1.114-2.475,2.48v4.357
		h-7.655c-2.929,0-5.311,2.382-5.311,5.311v8.625c0,0.553,0.448,1,1,1h12.966h18.524h12.966c0.553,0,1-0.447,1-1v-8.625
		c0-2.929-2.382-5.311-5.311-5.311h-7.656v-4.357c0-1.366-1.11-2.477-2.475-2.48V85.749l1.083,1.667
		c0.556,0.854,1.41,1.44,2.407,1.652c0.266,0.056,0.532,0.084,0.798,0.084c0.73,0,1.445-0.211,2.072-0.619l6.185-4.022
		l20.778,31.954c0.568,0.874,1.442,1.475,2.462,1.69c0.272,0.058,0.546,0.087,0.817,0.087c0.747,0,1.479-0.216,2.119-0.633
		C101.786,116.437,102.299,114.015,101.126,112.211z"/>
	<g>
		<g>
			<g>
				<g>
					<path class="st4" d="M52.855,38.894v53.204c-0.713-0.464-1.56-0.739-2.474-0.739h-1.819c-0.914,0-1.761,0.275-2.474,0.739
						V38.894c-1.19-0.25-2.325-0.642-3.404-1.135v59.946H56.26V37.759C55.18,38.252,54.045,38.644,52.855,38.894z"/>
					<g>
						<path class="st4" d="M46.089,42.085h-4.745c-0.917,0-1.66,0.743-1.66,1.66c0,0.917,0.743,1.659,1.66,1.659h4.745V42.085z"/>
						<path class="st4" d="M46.089,53.244h-4.745c-0.917,0-1.66,0.743-1.66,1.659c0,0.917,0.743,1.66,1.66,1.66h4.745V53.244z"/>
						<path class="st4" d="M46.089,64.402h-4.745c-0.917,0-1.66,0.743-1.66,1.66c0,0.917,0.743,1.66,1.66,1.66h4.745V64.402z"/>
						<path class="st4" d="M46.089,75.561h-4.745c-0.917,0-1.66,0.743-1.66,1.66c0,0.917,0.743,1.66,1.66,1.66h4.745V75.561z"/>
						<path class="st4" d="M46.089,86.719h-4.745c-0.917,0-1.66,0.743-1.66,1.66s0.743,1.66,1.66,1.66h4.745V86.719z"/>
					</g>
					<path class="st2" d="M49.472,6.521c-9.037,0-16.364,7.326-16.364,16.364c0,7.877,5.567,14.45,12.981,16.009v53.204
						c0.713-0.464,1.56-0.739,2.474-0.739h1.819c0.914,0,1.761,0.275,2.474,0.739V38.894c7.413-1.559,12.981-8.132,12.981-16.009
						C65.836,13.848,58.51,6.521,49.472,6.521z"/>
					<circle class="st5" cx="49.472" cy="22.885" r="12.574"/>
					<circle class="st4" cx="49.472" cy="22.885" r="7.965"/>
					<path class="st3" d="M44.508,22.885c0-3.885,2.784-7.117,6.465-7.819c-0.486-0.093-0.987-0.146-1.5-0.146
						c-4.399,0-7.965,3.566-7.965,7.965c0,4.399,3.566,7.965,7.965,7.965c0.513,0,1.014-0.053,1.5-0.146
						C47.292,30.002,44.508,26.77,44.508,22.885z"/>
				</g>
				<path class="st7" d="M67.39,104.543H31.555c-2.381,0-4.311,1.93-4.311,4.311v8.625h44.457v-8.625
					C71.701,106.473,69.771,104.543,67.39,104.543z"/>
			</g>
			<path class="st2" d="M57.254,97.705H41.691c-0.818,0-1.48,0.663-1.48,1.48v18.293h18.524V99.186
				C58.734,98.368,58.072,97.705,57.254,97.705z"/>
			<path class="st4" d="M50.382,91.359h-1.819c-2.511,0-4.547,2.036-4.547,4.547v1.799h10.913v-1.799
				C54.929,93.395,52.893,91.359,50.382,91.359z"/>
		</g>
		<g>
			<path class="st4" d="M96.287,108.756L67.498,64.48c-0.874-1.344-2.672-1.725-4.015-0.851c-1.344,0.874-1.725,2.672-0.851,4.015
				l28.789,44.276c0.874,1.344,2.672,1.725,4.015,0.851C96.78,111.898,97.161,110.1,96.287,108.756z"/>
			<g>
				<path class="st7" d="M82.814,67.503l-4.27-6.567c-0.847-1.303-2.59-1.672-3.893-0.825L55.737,72.41
					c-1.303,0.847-1.672,2.59-0.825,3.893l4.27,6.567c0.847,1.303,2.59,1.672,3.893,0.825l18.914-12.299
					C83.292,70.549,83.661,68.806,82.814,67.503z"/>
				<g>
					<path class="st0" d="M58.437,22.885c0-4.943-4.021-8.965-8.964-8.965c-4.943,0-8.965,4.021-8.965,8.965
						s4.021,8.965,8.965,8.965C54.416,31.85,58.437,27.828,58.437,22.885z M42.508,22.885c0-3.841,3.125-6.965,6.965-6.965
						s6.964,3.124,6.964,6.965s-3.124,6.965-6.964,6.965S42.508,26.726,42.508,22.885z"/>
					<path class="st0" d="M49.473,51.105c-0.552,0-1,0.447-1,1v5.362c0,0.553,0.448,1,1,1s1-0.447,1-1v-5.362
						C50.473,51.553,50.025,51.105,49.473,51.105z"/>
					<path class="st0" d="M48.473,48.128c0,0.553,0.448,1,1,1s1-0.447,1-1V36.409c7.018-0.515,12.574-6.377,12.574-13.525
						c0-7.484-6.089-13.574-13.574-13.574c-7.485,0-13.575,6.09-13.575,13.574c0,7.148,5.556,13.009,12.575,13.525V48.128z
						 M37.898,22.885c0-6.382,5.192-11.574,11.575-11.574c6.382,0,11.574,5.192,11.574,11.574c0,6.383-5.192,11.575-11.574,11.575
						C43.09,34.46,37.898,29.268,37.898,22.885z"/>
					<path class="st0" d="M97.125,108.211L76.347,76.257l6.186-4.022c0.854-0.555,1.441-1.41,1.652-2.406
						c0.212-0.996,0.021-2.016-0.533-2.869l-4.27-6.567c-0.556-0.854-1.41-1.44-2.407-1.652c-0.996-0.209-2.016-0.021-2.869,0.534
						l-6.249,4.063c-0.534-0.549-1.218-0.929-1.984-1.091c-1.022-0.216-2.063-0.022-2.936,0.546
						c-0.874,0.567-1.475,1.442-1.691,2.462c-0.162,0.767-0.093,1.546,0.193,2.256l-4.18,2.718V38.383
						c5.731-2.898,9.576-8.854,9.576-15.499c0-9.574-7.789-17.363-17.363-17.363S32.109,13.31,32.109,22.885
						c0,6.644,3.845,12.601,9.576,15.499v2.702h-0.34c-1.466,0-2.66,1.193-2.66,2.66c0,1.466,1.193,2.659,2.66,2.659h0.34v5.84
						h-0.34c-1.466,0-2.66,1.193-2.66,2.659s1.193,2.659,2.66,2.659h0.34v5.84h-0.34c-1.466,0-2.66,1.193-2.66,2.659
						c0,1.467,1.193,2.66,2.66,2.66h0.34v5.839h-0.34c-1.466,0-2.66,1.193-2.66,2.66c0,1.466,1.193,2.659,2.66,2.659h0.34v5.84
						h-0.34c-1.466,0-2.66,1.193-2.66,2.659c0,1.467,1.193,2.66,2.66,2.66h0.34v5.667c-1.365,0.003-2.475,1.114-2.475,2.48v4.357
						h-7.655c-2.929,0-5.311,2.382-5.311,5.311v8.625c0,0.553,0.448,1,1,1H40.21h18.524h12.967c0.553,0,1-0.447,1-1v-8.625
						c0-2.929-2.383-5.311-5.312-5.311h-7.655v-4.357c0-1.366-1.11-2.477-2.475-2.48V81.748l1.083,1.667
						c0.73,1.123,1.955,1.733,3.203,1.733c0.712,0,1.433-0.198,2.073-0.615l6.186-4.022l20.777,31.954
						c0.568,0.874,1.443,1.475,2.463,1.691c0.271,0.058,0.545,0.086,0.816,0.086c0.747,0,1.479-0.216,2.12-0.632v-0.001
						c0.874-0.568,1.475-1.442,1.69-2.462C97.888,110.127,97.693,109.084,97.125,108.211z M63.204,65.668
						c0.105-0.497,0.398-0.924,0.825-1.201c0.319-0.207,0.678-0.307,1.033-0.307c0.368,0,0.725,0.118,1.036,0.321l-2.907,1.89
						C63.152,66.141,63.154,65.903,63.204,65.668z M55.26,71.528l-0.068,0.044c-0.602,0.391-1.044,0.931-1.336,1.534V39.686
						c0.477-0.124,0.945-0.269,1.404-0.432V71.528z M53.929,96.705h-8.913v-0.799c0-1.956,1.591-3.547,3.547-3.547h1.819
						c1.956,0,3.547,1.591,3.547,3.547V96.705z M34.109,22.885c0-8.472,6.892-15.363,15.364-15.363
						c8.471,0,15.363,6.892,15.363,15.363c0,7.225-5.125,13.546-12.187,15.031c-0.462,0.098-0.794,0.506-0.794,0.979V90.56
						c-0.024-0.007-0.05-0.009-0.074-0.015c-0.182-0.047-0.367-0.086-0.555-0.115c-0.054-0.008-0.107-0.018-0.161-0.025
						c-0.195-0.024-0.392-0.039-0.592-0.042V61.468c0-0.553-0.448-1-1-1s-1,0.447-1,1v28.896c-0.2,0.003-0.398,0.018-0.593,0.042
						c-0.054,0.007-0.108,0.016-0.161,0.025c-0.188,0.029-0.373,0.067-0.555,0.115c-0.024,0.006-0.05,0.009-0.074,0.015V38.894
						c0-0.473-0.332-0.881-0.794-0.979C39.234,36.431,34.109,30.108,34.109,22.885z M43.685,39.255
						c0.459,0.163,0.927,0.307,1.404,0.432v1.398h-1.404V39.255z M40.685,43.745c0-0.364,0.296-0.66,0.66-0.66h3.745v1.319h-3.745
						C40.981,44.404,40.685,44.108,40.685,43.745z M43.685,46.404h1.404v5.84h-1.404V46.404z M40.685,54.903
						c0-0.363,0.296-0.659,0.66-0.659h3.745v1.318h-3.745C40.981,55.562,40.685,55.267,40.685,54.903z M43.685,57.562h1.404v5.84
						h-1.404V57.562z M40.685,66.061c0-0.363,0.296-0.659,0.66-0.659h3.745v1.319h-3.745C40.981,66.722,40.685,66.426,40.685,66.061
						z M43.685,68.722h1.404v5.839h-1.404V68.722z M40.685,77.221c0-0.364,0.296-0.66,0.66-0.66h3.745v1.319h-3.745
						C40.981,77.88,40.685,77.584,40.685,77.221z M43.685,79.88h1.404v5.84h-1.404V79.88z M40.685,88.379
						c0-0.363,0.296-0.659,0.66-0.659h3.745v1.319h-3.745C40.981,89.039,40.685,88.743,40.685,88.379z M45.089,91.039v0.549
						c-0.571,0.461-1.052,1.03-1.404,1.679v-2.229H45.089z M28.244,108.853c0-1.825,1.485-3.311,3.311-3.311h7.655v10.936H28.244
						V108.853z M67.39,105.543c1.826,0,3.312,1.485,3.312,3.311v7.625H59.734v-10.936H67.39z M57.734,99.185v17.293H41.21V99.185
						c0-0.265,0.215-0.48,0.48-0.48h0.994h1.331h10.913h1.331h0.994C57.519,98.705,57.734,98.921,57.734,99.185z M55.26,93.268
						c-0.353-0.649-0.833-1.219-1.404-1.679V76.425c0.069,0.142,0.129,0.287,0.218,0.423l1.187,1.825V93.268z M62.529,82.856
						c-0.838,0.546-1.963,0.307-2.509-0.531l-4.27-6.567c-0.545-0.838-0.306-1.964,0.532-2.51L75.196,60.95
						c0.298-0.194,0.638-0.294,0.985-0.294c0.126,0,0.253,0.013,0.38,0.04c0.474,0.101,0.88,0.379,1.144,0.785l4.271,6.567
						c0.264,0.406,0.354,0.891,0.254,1.364c-0.101,0.475-0.38,0.881-0.786,1.146L62.529,82.856z M95.715,110.732
						c-0.104,0.497-0.397,0.924-0.823,1.201c-0.88,0.569-2.062,0.319-2.633-0.559L71.482,79.421l3.19-2.074l20.778,31.954
						C95.726,109.727,95.82,110.235,95.715,110.732z"/>
				</g>
			</g>
		</g>
	</g>
</g>
</svg>
