<?xml version="1.0" encoding="utf-8"?>
<!-- Generator: Adobe Illustrator 22.0.1, SVG Export Plug-In . SVG Version: 6.00 Build 0)  -->
<svg version="1.1" id="Layer_1" xmlns="http://www.w3.org/2000/svg" xmlns:xlink="http://www.w3.org/1999/xlink" x="0px" y="0px"
	 viewBox="0 0 128 128" style="enable-background:new 0 0 128 128;" xml:space="preserve">
<style type="text/css">
	.st0{fill:#3A2C60;}
	.st1{fill:#E6E7E8;}
	.st2{fill:#6DC9F7;}
	.st3{fill:#FFFFFF;}
	.st4{fill:#FA759E;}
	.st5{fill:#FFD7E5;}
	.st6{fill:#D4FBFF;}
	.st7{fill:#0089EF;}
</style>
<g>
	<g>
		<path class="st1" d="M98.671,78.559c-0.003-0.532-0.025-1.051-0.058-1.564c-0.003-0.04-0.002-0.082-0.005-0.121
			c-0.001-0.011-0.007-0.019-0.008-0.029c-0.229-3.272-1.056-6.165-2.329-8.685c-0.046-0.093-0.092-0.186-0.139-0.277
			c-0.257-0.49-0.53-0.966-0.82-1.428c-0.106-0.17-0.216-0.337-0.326-0.503c-0.241-0.361-0.49-0.716-0.751-1.058
			c-0.187-0.247-0.381-0.485-0.576-0.721c-0.154-0.185-0.311-0.367-0.47-0.547c-0.32-0.361-0.65-0.709-0.989-1.044
			c-0.136-0.135-0.273-0.27-0.412-0.401c-0.271-0.254-0.545-0.501-0.826-0.74c-0.251-0.214-0.504-0.424-0.763-0.627
			c-0.212-0.166-0.427-0.326-0.644-0.483c-0.316-0.231-0.638-0.455-0.964-0.671c-0.162-0.106-0.325-0.209-0.489-0.311
			c-0.392-0.246-0.79-0.48-1.194-0.704c-0.066-0.036-0.131-0.075-0.197-0.111c-3.083-1.672-6.488-2.714-9.873-3.143
			c-0.07-0.009-0.139-0.017-0.209-0.026c-0.497-0.059-0.993-0.11-1.487-0.143c-2.35-0.159-4.772,0.006-7.064,0.47l-2.028-6.63
			c5.877-8.209,8.688-17.241,7.921-25.482c-0.142-1.521-0.406-2.968-0.783-4.324c-0.188-0.678-0.405-1.333-0.648-1.962
			c-0.122-0.315-0.25-0.623-0.385-0.924c-1.215-2.713-2.961-4.885-5.123-6.289c-0.76-0.494-1.556-0.864-2.37-1.11
			c-0.813-0.247-1.644-0.37-2.474-0.37c-1.245,0-2.488,0.278-3.668,0.834c-0.393,0.185-0.779,0.401-1.156,0.648
			c-3.243,2.129-6.24,7.183-4.926,14.982c0.658,3.901,2.878,11.568,6.25,22.662c-1.201,1.448-2.517,2.857-3.916,4.192
			c-9.753,9.301-15.204,20.559-14.954,30.885c0.17,7.037,2.934,13.07,7.993,17.449c5.869,5.079,16.882,7.23,27.083,5.36
			c0.424,2.444,0.622,4.339,0.59,5.642c-0.092,3.664-1.803,5.273-2.869,5.429c-1.011,0.135-2.826,0.181-3.649-1.072
			c-0.365-0.554-0.388-1.208-0.2-1.521c0.159-0.265,0.625-0.314,0.98-0.309c0.118,0.001,0.224,0.009,0.302,0.016
			c0.886,0.083,1.749-0.182,2.434-0.747c0.686-0.566,1.109-1.365,1.193-2.249c0.173-1.826-1.17-3.453-2.996-3.626
			c-3.314-0.319-6.087,0.955-7.611,3.485c-1.544,2.568-1.41,5.947,0.343,8.61c0.22,0.334,0.458,0.649,0.714,0.945
			c1.791,2.072,4.429,3.187,7.532,3.187c0.611,0,1.24-0.043,1.885-0.131c0.004,0,0.035-0.005,0.041-0.005
			c3.991-0.582,8.369-4.536,8.552-11.844c0.046-1.825-0.221-4.313-0.815-7.586c0.663-0.253,1.31-0.525,1.932-0.812
			c0.549-0.253,1.079-0.523,1.602-0.801c0.161-0.085,0.319-0.173,0.477-0.26c0.383-0.213,0.759-0.433,1.128-0.66
			c0.144-0.089,0.293-0.174,0.435-0.264c0.43-0.275,0.847-0.562,1.256-0.856c0.224-0.161,0.441-0.328,0.659-0.495
			c0.202-0.155,0.4-0.312,0.596-0.472c0.865-0.703,1.672-1.452,2.421-2.243c0.091-0.096,0.182-0.192,0.271-0.289
			c0.254-0.277,0.502-0.556,0.742-0.843c0.017-0.021,0.034-0.043,0.051-0.064c0.491-0.591,0.949-1.205,1.379-1.837
			c0.054-0.08,0.111-0.159,0.164-0.24c0.201-0.303,0.394-0.61,0.581-0.922c0.07-0.116,0.136-0.235,0.204-0.352
			c0.306-0.531,0.592-1.075,0.859-1.632c0.076-0.159,0.156-0.315,0.229-0.476c0.124-0.274,0.24-0.553,0.355-0.833
			c0.095-0.231,0.185-0.464,0.273-0.698c0.096-0.256,0.194-0.512,0.282-0.773c0.007-0.021,0.016-0.042,0.023-0.063
			c0.002-0.007,0-0.013,0.003-0.02c0.435-1.301,0.766-2.659,1.003-4.065c0.005-0.023,0.019-0.043,0.022-0.067l0.067-0.493
			c0.05-0.338,0.1-0.676,0.138-1.02l0.039-0.289c0.029-0.279,0.043-0.567,0.064-0.85c0.017-0.228,0.039-0.454,0.051-0.684
			C98.656,79.833,98.675,79.198,98.671,78.559z M80.47,96.98c-0.181,0.083-0.362,0.165-0.544,0.243
			c-2.283-9.756-6.076-22.582-9.9-35.153c1.513-0.246,3.082-0.318,4.677-0.212c8.298,0.549,17.257,6.021,17.317,16.738
			C92.079,89.368,85.772,94.539,80.47,96.98z M61.015,15.643c0.296-0.195,0.601-0.316,0.906-0.36h0
			c0.089-0.013,0.179-0.02,0.268-0.02c0.405,0,0.813,0.132,1.218,0.396c2.095,1.36,3.567,4.551,3.939,8.536
			c0.487,5.227-0.841,10.872-3.85,16.445c-1.876-6.258-3.712-12.616-4.381-16.039c-0.045-0.228-0.084-0.443-0.118-0.645
			C58.16,18.989,59.871,16.394,61.015,15.643z M59.363,56.732c0.539-0.514,1.072-1.042,1.593-1.581l0.84,2.745
			c-5.454,2.869-8.903,7.746-9.746,13.82c-1.797,12.961,6.828,18.013,12.129,19.871c1.732,0.605,3.633-0.309,4.239-2.04
			c0.293-0.838,0.244-1.741-0.142-2.542c-0.385-0.801-1.059-1.403-1.898-1.697c-6.095-2.136-8.626-6.283-7.739-12.679
			c0.487-3.511,2.256-6.333,5.14-8.232c3.627,11.935,7.53,25.128,9.769,34.732c-8.024,1.449-17.065-0.172-21.384-3.909
			c-3.603-3.118-5.572-7.467-5.696-12.579C46.264,74.186,50.964,64.742,59.363,56.732z"/>
		<path class="st1" d="M108.949,27.491L108.949,27.491l-9.372-2.313c-1.105-0.273-2.232,0.405-2.507,1.515l-2.903,11.764
			c-1.299-1.344-3.002-2.328-4.893-2.794c-2.458-0.607-4.988-0.313-7.125,0.826c-2.174,1.159-3.68,3.046-4.24,5.316
			c-0.561,2.27-0.106,4.641,1.28,6.678c1.362,2.003,3.466,3.44,5.922,4.046c0.836,0.207,1.69,0.31,2.559,0.31
			c0.914,0,1.843-0.114,2.78-0.344c4.813-1.176,8.588-5.086,9.851-10.203l2.202-8.919l4.708,1.162
			c1.11,0.271,2.233-0.406,2.507-1.515l0.746-3.021C110.737,28.89,110.058,27.765,108.949,27.491z"/>
		<path class="st1" d="M40.133,105.03c-1.598,0.394-3.044,1.206-4.174,2.315l-2.482-10.056c-0.255-1.037-1.306-1.673-2.344-1.417
			l-8.185,2.02c-1.036,0.256-1.671,1.307-1.416,2.343l0.651,2.639c0.256,1.036,1.303,1.669,2.343,1.416l3.989-0.984l1.893,7.667
			c1.115,4.516,4.447,7.967,8.697,9.005c0.828,0.203,1.649,0.304,2.458,0.304c0.768,0,1.525-0.091,2.265-0.274
			c2.176-0.537,4.04-1.811,5.248-3.586c1.23-1.809,1.634-3.917,1.136-5.935C49.194,106.358,44.673,103.909,40.133,105.03z"/>
	</g>
	<g>
		<g>
			<path class="st2" d="M69.438,118.275c-0.02,0.003-0.04,0.006-0.06,0.009c-3.959,0.539-7.287-0.76-9.133-3.564
				c-1.543-2.344-1.669-5.305-0.321-7.545c1.317-2.187,3.743-3.283,6.66-3.005c1.279,0.121,2.217,1.257,2.095,2.536
				c-0.121,1.279-1.258,2.217-2.536,2.095c-0.763-0.071-1.769,0.003-2.233,0.773c-0.417,0.693-0.326,1.757,0.221,2.588
				c0.834,1.267,2.475,1.804,4.619,1.512c0.006-0.001,0.013-0.002,0.019-0.003c1.441-0.21,3.607-2.077,3.715-6.392
				c0.041-1.618-0.247-3.961-0.785-6.844c-9.944,2.096-21.206,0.277-27.232-4.939c-4.84-4.189-7.485-9.969-7.648-16.717
				c-0.243-10.045,5.094-21.03,14.644-30.138c1.577-1.504,3.026-3.076,4.338-4.695c-3.171-10.42-5.694-18.998-6.376-23.049
				c-1.235-7.325,1.509-12.024,4.488-13.98c2.67-1.752,5.876-1.752,8.574,0.001c3.585,2.328,5.95,6.977,6.488,12.752
				c0.764,8.206-2.169,17.19-8.027,25.206c0.501,1.639,1.015,3.318,1.537,5.026c0.301,0.983,0.604,1.972,0.907,2.964
				c2.529-0.613,5.157-0.818,7.684-0.65c10.826,0.717,22.516,8.015,22.596,22.346c0.06,10.754-5.21,19.117-14.838,23.55
				c-0.858,0.395-1.743,0.752-2.652,1.072c0.652,3.424,1.003,6.232,0.953,8.208C76.966,114.136,73.038,117.751,69.438,118.275z
				 M57.407,49.209c-0.868,0.954-1.78,1.889-2.734,2.799c-8.602,8.205-13.415,17.922-13.203,26.659
				c0.13,5.401,2.219,10.003,6.041,13.311c4.472,3.87,14.155,5.887,23.244,3.933c-2.262-9.976-6.402-23.929-10.388-37.022
				c-3.457,1.846-6.075,4.976-6.717,9.604c-0.949,6.845,1.877,11.474,8.399,13.76c1.213,0.425,1.851,1.752,1.426,2.964
				c-0.425,1.212-1.753,1.85-2.964,1.426c-5.013-1.757-13.169-6.534-11.469-18.79c0.927-6.68,4.927-11.05,9.958-13.442
				c-0.324-1.059-0.645-2.109-0.963-3.146C57.826,50.575,57.616,49.89,57.407,49.209z M64.745,57.298
				c4.087,13.416,8.161,27.134,10.47,37.295c0.565-0.216,1.123-0.451,1.673-0.704c5.569-2.564,12.194-7.993,12.131-19.298
				c-0.063-11.356-9.505-17.151-18.251-17.731C68.757,56.727,66.702,56.865,64.745,57.298z M57.777,10.293
				c-0.447,0.065-0.889,0.236-1.312,0.514c-1.672,1.097-3.317,4.196-2.454,9.317c0.567,3.363,2.574,10.342,5.194,19.021
				c3.847-6.267,5.705-12.937,5.136-19.043c-0.399-4.287-2.04-7.757-4.39-9.282C59.248,10.363,58.505,10.187,57.777,10.293z"/>
		</g>
		<path class="st4" d="M104.709,24.462l-9.37-2.313c-0.574-0.142-1.155,0.209-1.297,0.783l-1.816,7.359l-1.585,6.42
			c-1.141-1.93-3.123-3.467-5.606-4.079c-4.584-1.131-9.139,1.296-10.155,5.411s1.887,8.383,6.471,9.514
			c1.637,0.404,3.271,0.354,4.861-0.035c4.564-1.115,7.992-4.911,9.117-9.472l2.441-9.89l5.679,1.402
			c0.574,0.142,1.155-0.209,1.297-0.783l0.746-3.022C105.634,25.184,105.283,24.604,104.709,24.462z"/>
		<g>
			<path class="st3" d="M100.771,28.162l-0.172,0.698l2.851,0.704c0.453,0.112,0.901-0.089,1.143-0.458L100.771,28.162z"/>
			<path class="st3" d="M84.352,47.558c-4.584-1.131-7.487-5.4-6.471-9.514c0.733-2.968,3.31-5.05,6.409-5.56
				c-4.322-0.71-8.449,1.668-9.409,5.56c-1.016,4.115,1.887,8.383,6.471,9.514c1.296,0.32,2.588,0.346,3.86,0.154
				C84.925,47.669,84.639,47.629,84.352,47.558z"/>
		</g>
		<g>
			<path class="st4" d="M19.188,94.864l8.185-2.02c0.502-0.124,1.009,0.183,1.133,0.684l1.586,6.428l1.384,5.608
				c0.997-1.686,2.728-3.028,4.896-3.563c4.004-0.988,7.983,1.132,8.87,4.726s-1.648,7.322-5.652,8.311
				c-1.43,0.353-2.857,0.309-4.246-0.03c-3.986-0.974-6.98-4.29-7.964-8.274l-2.132-8.638l-4.96,1.224
				c-0.502,0.124-1.009-0.183-1.133-0.684l-0.651-2.639C18.38,95.495,18.687,94.987,19.188,94.864z"/>
			<g>
				<path class="st0" d="M53.983,51.284c-8.806,8.398-13.731,18.388-13.513,27.407c0.137,5.69,2.346,10.546,6.386,14.043
					c3.64,3.15,9.987,4.933,16.625,4.933c2.496,0,5.034-0.252,7.483-0.779c0.261-0.056,0.489-0.214,0.632-0.439
					c0.144-0.225,0.191-0.499,0.132-0.759c-2.271-10.018-6.344-23.748-10.407-37.092c-0.087-0.287-0.298-0.519-0.574-0.633
					c-0.276-0.115-0.589-0.1-0.854,0.042c-4.098,2.188-6.601,5.767-7.236,10.349c-1.009,7.279,2.124,12.411,9.059,14.841
					c0.69,0.242,1.055,1,0.813,1.69c-0.242,0.689-1,1.055-1.69,0.813c-4.725-1.655-12.412-6.158-10.809-17.709
					c1.008-7.264,5.667-10.902,9.397-12.676c0.448-0.213,0.672-0.722,0.527-1.196l-1.592-5.203
					c-0.105-0.344-0.387-0.604-0.737-0.683c-0.35-0.078-0.717,0.037-0.959,0.303C55.809,49.48,54.906,50.404,53.983,51.284z
					 M57.796,53.896c-5.455,2.87-8.903,7.746-9.746,13.82c-1.798,12.961,6.828,18.013,12.13,19.871
					c1.731,0.607,3.632-0.31,4.238-2.04c0.606-1.73-0.309-3.632-2.04-4.239c-6.095-2.135-8.626-6.282-7.739-12.679
					c0.487-3.511,2.256-6.334,5.14-8.232c3.793,12.48,7.545,25.182,9.769,34.732c-8.024,1.448-17.065-0.171-21.384-3.908
					c-3.603-3.118-5.572-7.467-5.696-12.579c-0.205-8.457,4.495-17.901,12.894-25.912c0.539-0.514,1.072-1.042,1.593-1.581
					L57.796,53.896z"/>
				<path class="st0" d="M74.743,95.475c0.146,0.079,0.309,0.118,0.471,0.118c0.121,0,0.242-0.022,0.357-0.066
					c0.585-0.224,1.164-0.468,1.734-0.73c5.836-2.687,12.779-8.375,12.712-20.212c-0.066-11.996-9.992-18.114-19.185-18.723
					c-2.162-0.142-4.283,0.012-6.305,0.459c-0.272,0.061-0.507,0.231-0.647,0.472s-0.174,0.529-0.093,0.796
					c4.073,13.371,8.159,27.135,10.451,37.225C74.303,95.097,74.488,95.338,74.743,95.475z M70.702,57.858
					c8.299,0.549,17.257,6.021,17.317,16.738c0.061,10.772-6.247,15.943-11.548,18.384c-0.181,0.083-0.363,0.165-0.545,0.244
					c-2.282-9.755-6.076-22.582-9.9-35.153C67.538,57.823,69.106,57.751,70.702,57.858z"/>
				<path class="st0" d="M92.606,82.683c-0.521-0.177-1.09,0.106-1.266,0.629c-2.064,6.147-6.534,10.951-12.925,13.894
					c-0.814,0.375-1.678,0.725-2.566,1.038c-0.466,0.164-0.742,0.645-0.65,1.13c0.666,3.496,0.981,6.186,0.936,7.996
					c-0.154,6.15-3.654,9.451-6.892,9.922c-3.565,0.483-6.539-0.654-8.163-3.123c-1.333-2.024-1.45-4.567-0.3-6.479
					c1.111-1.844,3.192-2.76,5.708-2.525c0.353,0.033,0.671,0.202,0.896,0.476c0.226,0.273,0.332,0.618,0.298,0.97
					c-0.033,0.353-0.202,0.671-0.476,0.896s-0.622,0.328-0.972,0.298c-2.003-0.186-2.852,0.704-3.183,1.252
					c-0.618,1.026-0.521,2.495,0.242,3.653c1.056,1.606,3.04,2.297,5.618,1.95c2.12-0.309,4.455-2.743,4.57-7.356
					c0.042-1.635-0.221-3.942-0.802-7.053c-0.049-0.265-0.204-0.498-0.427-0.648c-0.224-0.149-0.498-0.201-0.762-0.147
					c-9.904,2.088-20.75,0.149-26.371-4.716c-4.621-4-7.146-9.527-7.302-15.985c-0.236-9.764,4.988-20.476,14.334-29.39
					c1.59-1.517,3.079-3.128,4.425-4.79c0.209-0.258,0.276-0.603,0.18-0.92c-3.341-10.982-5.699-19.083-6.347-22.924
					c-1.155-6.851,1.335-11.196,4.051-12.978c2.328-1.527,5.124-1.527,7.48,0.004c3.327,2.161,5.528,6.537,6.038,12.006
					c0.734,7.892-2.049,16.601-7.839,24.524c-0.186,0.254-0.241,0.581-0.149,0.882l2.445,7.991c0.154,0.506,0.678,0.806,1.191,0.679
					c2.361-0.572,4.912-0.789,7.382-0.623c7.743,0.512,17.846,4.835,20.835,15.331c0.151,0.531,0.706,0.839,1.236,0.688
					c0.531-0.151,0.839-0.705,0.688-1.236c-3.274-11.496-14.235-16.223-22.626-16.778c-2.35-0.157-4.773,0.006-7.064,0.47
					l-2.028-6.63c5.877-8.209,8.688-17.241,7.921-25.482c-0.566-6.082-3.096-11.002-6.939-13.498
					c-3.041-1.976-6.654-1.975-9.667,0.001c-3.243,2.128-6.24,7.182-4.926,14.982c0.657,3.899,2.877,11.566,6.25,22.662
					c-1.203,1.451-2.519,2.859-3.916,4.192c-9.753,9.302-15.203,20.559-14.953,30.885c0.17,7.037,2.934,13.07,7.993,17.449
					c5.869,5.08,16.88,7.23,27.083,5.36c0.424,2.445,0.622,4.34,0.589,5.642c-0.092,3.664-1.802,5.273-2.869,5.429
					c-1.007,0.137-2.825,0.182-3.649-1.071c-0.365-0.554-0.388-1.209-0.2-1.521c0.218-0.362,1.038-0.316,1.281-0.293
					c0.886,0.083,1.748-0.181,2.434-0.747c0.685-0.566,1.109-1.365,1.193-2.249s-0.181-1.749-0.747-2.434s-1.365-1.109-2.249-1.193
					c-3.308-0.312-6.087,0.955-7.611,3.485c-1.545,2.568-1.41,5.947,0.343,8.61c1.759,2.673,4.692,4.129,8.259,4.128
					c0.62,0,1.259-0.044,1.914-0.133c3.991-0.582,8.369-4.536,8.552-11.845c0.046-1.827-0.221-4.314-0.815-7.585
					c0.664-0.254,1.312-0.525,1.932-0.812c6.904-3.178,11.74-8.391,13.984-15.073C93.411,83.426,93.129,82.859,92.606,82.683z"/>
				<path class="st0" d="M59.078,40.137c0.043,0.005,0.086,0.008,0.129,0.008c0.344,0,0.668-0.178,0.852-0.477
					c4.04-6.58,5.865-13.377,5.279-19.659c-0.428-4.589-2.237-8.338-4.84-10.028c-0.901-0.585-1.889-0.82-2.864-0.679
					c-0.597,0.087-1.174,0.312-1.717,0.668c-1.923,1.262-3.834,4.723-2.891,10.319c0.62,3.675,2.876,11.373,5.223,19.145
					C58.363,39.812,58.687,40.087,59.078,40.137z M57.015,11.643c0.296-0.195,0.601-0.316,0.906-0.36c0,0,0,0,0,0
					c0.089-0.013,0.178-0.02,0.268-0.02c0.405,0,0.813,0.132,1.219,0.396c2.095,1.36,3.567,4.551,3.938,8.536
					c0.487,5.227-0.84,10.872-3.85,16.446c-2.001-6.676-3.957-13.466-4.499-16.683C54.16,14.989,55.871,12.394,57.015,11.643z"/>
				<path class="st0" d="M93.543,71.945c-0.551,0.038-0.967,0.516-0.929,1.066c0.035,0.51,0.054,1.029,0.058,1.559
					c0.006,1.093-0.045,2.176-0.149,3.188l-0.241,1.77c-0.075,0.547,0.309,1.052,0.855,1.126c0.046,0.006,0.091,0.009,0.137,0.009
					c0.492,0,0.921-0.364,0.989-0.865l0.245-1.802c0.115-1.116,0.17-2.272,0.164-3.438c-0.003-0.572-0.024-1.134-0.063-1.685
					C94.572,72.323,94.103,71.906,93.543,71.945z"/>
				<path class="st0" d="M106.225,24.431c-0.286-0.474-0.74-0.807-1.277-0.939l-9.371-2.313c-1.111-0.271-2.234,0.406-2.507,1.515
					l-2.904,11.764c-1.299-1.344-3.001-2.328-4.892-2.794c-5.12-1.265-10.217,1.492-11.365,6.142
					c-0.561,2.27-0.106,4.641,1.279,6.678c1.363,2.003,3.466,3.441,5.923,4.047c0.836,0.207,1.691,0.31,2.559,0.31
					c0.914,0,1.843-0.114,2.779-0.343c4.813-1.176,8.587-5.086,9.851-10.204l2.202-8.919l4.707,1.162
					c0.535,0.131,1.094,0.048,1.568-0.238c0.473-0.286,0.807-0.739,0.94-1.276l0.746-3.022
					C106.596,25.461,106.511,24.904,106.225,24.431z M103.776,28.54c-0.008,0.033-0.054,0.063-0.086,0.053l-5.679-1.401
					c-0.537-0.132-1.078,0.195-1.21,0.731l-2.441,9.89c-1.068,4.326-4.359,7.756-8.384,8.741c-1.51,0.367-2.984,0.38-4.384,0.035
					c-1.978-0.488-3.664-1.635-4.749-3.23c-1.062-1.561-1.414-3.363-0.992-5.074c0.735-2.976,3.632-4.929,6.914-4.929
					c0.666,0,1.348,0.08,2.03,0.249c2.118,0.523,3.935,1.841,4.984,3.617c0.207,0.35,0.606,0.541,1.006,0.48
					c0.402-0.059,0.728-0.355,0.825-0.75l3.401-13.78c0.008-0.032,0.055-0.059,0.086-0.052l9.37,2.313c0,0,0,0,0,0
					c0.033,0.008,0.06,0.054,0.052,0.086L103.776,28.54z"/>
				<path class="st0" d="M36.133,101.03c-1.598,0.395-3.045,1.206-4.174,2.315l-2.482-10.057c-0.256-1.035-1.307-1.672-2.343-1.416
					l-8.185,2.02c0,0,0,0,0,0c-0.501,0.124-0.925,0.436-1.192,0.878c-0.268,0.443-0.346,0.963-0.222,1.465l0.651,2.64
					c0.256,1.036,1.306,1.671,2.343,1.415l3.989-0.984l1.893,7.667c1.114,4.516,4.446,7.966,8.696,9.005
					c0.829,0.203,1.65,0.304,2.459,0.304c0.768,0,1.525-0.091,2.265-0.274c4.539-1.12,7.402-5.391,6.383-9.521
					C45.195,102.358,40.673,99.91,36.133,101.03z M39.351,114.067c-1.204,0.296-2.472,0.287-3.77-0.031
					c-3.471-0.849-6.309-3.809-7.23-7.542l-2.132-8.638c-0.112-0.456-0.521-0.76-0.97-0.76c-0.08,0-0.16,0.009-0.241,0.029
					l-4.882,1.271l-0.636-2.578l8.045-2.051l2.97,12.036c0.097,0.394,0.423,0.69,0.825,0.75c0.4,0.058,0.799-0.131,1.006-0.48
					c0.9-1.522,2.458-2.653,4.275-3.102c3.466-0.855,6.904,0.936,7.66,3.996C45.027,110.026,42.819,113.211,39.351,114.067z"/>
			</g>
		</g>
	</g>
</g>
</svg>
