<?xml version="1.0" encoding="utf-8"?>
<!-- Generator: Adobe Illustrator 22.0.1, SVG Export Plug-In . SVG Version: 6.00 Build 0)  -->
<svg version="1.1" id="Layer_1" xmlns="http://www.w3.org/2000/svg" xmlns:xlink="http://www.w3.org/1999/xlink" x="0px" y="0px"
	 viewBox="0 0 128 128" style="enable-background:new 0 0 128 128;" xml:space="preserve">
<style type="text/css">
	.st0{fill:#3A2C60;}
	.st1{fill:#E6E7E8;}
	.st2{fill:#6DC9F7;}
	.st3{fill:#FFFFFF;}
	.st4{fill:#FA759E;}
	.st5{fill:#FFD7E5;}
	.st6{fill:#D4FBFF;}
	.st7{fill:#0089EF;}
</style>
<g>
	<path class="st1" d="M120.366,8.752c-0.197-0.02-0.396-0.03-0.598-0.03h-9.802H95.312h-9.551h-5.104H66H51.345h-5.105h-9.551
		H22.033h-9.802c-0.202,0-0.401,0.01-0.598,0.03c-2.949,0.3-5.257,2.797-5.257,5.824v0.001v15.781v53.416c0,0.002,0,0.004,0,0.006
		v33.643c0,3.229,2.626,5.855,5.854,5.855h25.214h57.109h25.214c3.229,0,5.854-2.627,5.854-5.855V83.78c0-0.002,0-0.004,0-0.006
		V30.358V14.577v-0.001C125.623,11.549,123.315,9.052,120.366,8.752z"/>
	<g>
		<g>
			<g>
				<path class="st2" d="M115.768,5.722H8.232c-2.681,0-4.855,2.174-4.855,4.855v102.847c0,2.681,2.174,4.855,4.855,4.855h107.536
					c2.681,0,4.855-2.174,4.855-4.855V10.577C120.623,7.896,118.449,5.722,115.768,5.722z"/>
				<g>
					<g>
						<path class="st6" d="M87.531,38.765l-51.538,79.513h51.562l8.614-61.231C92.654,51.594,89.771,45.503,87.531,38.765z"/>
					</g>
					<g>
						<path class="st6" d="M36.469,38.765c-2.241,6.738-5.123,12.829-8.638,18.282l8.614,61.231h51.562L36.469,38.765z"/>
					</g>
					<polygon class="st3" points="36.445,118.278 62,118.278 87.555,118.278 87.635,117.705 62,78.154 36.364,117.705 					"/>
				</g>
				<g>
					<path class="st4" d="M37.822,34.386c-2.213-0.606-4.062-2.098-5.133-4.076c-1.41,2.603-4.166,4.375-7.328,4.375
						c-3.162,0-5.918-1.772-7.327-4.375c-1.41,2.603-4.166,4.375-7.328,4.375c-3.162,0-5.918-1.772-7.328-4.375v49.467
						C20.549,70.383,31.97,55.192,37.822,34.386z"/>
					<path class="st4" d="M3.377,79.778v33.646c0,2.681,2.174,4.855,4.855,4.855h25.214C29.969,102.441,18.552,90.247,3.377,79.778z
						"/>
				</g>
				<path class="st5" d="M30.574,109.679l0.06-0.036c-0.489-1.121-1.034-2.216-1.606-3.299c-0.26-0.219-0.453-0.517-0.531-0.866
					l-0.041-0.183c-0.424-0.757-0.868-1.505-1.331-2.244c-0.4-0.01-0.807,0.188-0.999,0.633l-0.652,1.514
					c-0.274,0.635-0.925,1.022-1.614,0.958l-1.642-0.152c-1.023-0.095-1.57,1.175-0.798,1.853l1.239,1.088
					c0.52,0.456,0.686,1.195,0.413,1.831l-0.652,1.514c-0.406,0.944,0.632,1.856,1.516,1.331l1.417-0.842
					c0.595-0.353,1.349-0.283,1.869,0.173l1.239,1.088c0.772,0.678,1.961-0.028,1.735-1.03l-0.363-1.608
					C29.68,110.728,29.979,110.032,30.574,109.679z"/>
				<g>
					<path class="st4" d="M90.554,118.278h25.214c2.681,0,4.855-2.174,4.855-4.855V79.778
						C105.448,90.247,94.031,102.441,90.554,118.278z"/>
					<path class="st4" d="M113.295,34.686c-3.162,0-5.918-1.772-7.328-4.375c-1.41,2.603-4.165,4.375-7.327,4.375
						c-3.162,0-5.918-1.772-7.328-4.375c-1.071,1.977-2.921,3.47-5.133,4.076c5.852,20.805,17.273,35.997,34.445,45.392V30.311
						C119.213,32.914,116.457,34.686,113.295,34.686z"/>
				</g>
			</g>
			<g>
				<path class="st5" d="M14.868,50.244l-0.72-1.483c-0.302-0.622-0.97-0.979-1.655-0.884l-1.633,0.226
					c-1.018,0.141-1.621-1.102-0.881-1.815l1.188-1.143c0.498-0.479,0.631-1.225,0.329-1.847l-0.72-1.483
					c-0.449-0.924,0.547-1.883,1.454-1.399l1.454,0.777c0.61,0.326,1.36,0.222,1.859-0.258l1.188-1.143
					c0.74-0.712,1.96-0.061,1.779,0.95l-0.289,1.623c-0.121,0.681,0.21,1.362,0.82,1.688l1.454,0.777
					c0.906,0.484,0.664,1.845-0.354,1.986l-1.633,0.226c-0.685,0.095-1.231,0.62-1.352,1.301l-0.289,1.623
					C16.686,50.978,15.317,51.168,14.868,50.244z"/>
			</g>
			<path class="st5" d="M3.377,98.971c0.582,0.282,1.379-0.014,1.513-0.769l0.289-1.623c0.121-0.681,0.667-1.206,1.352-1.301
				l1.633-0.227c1.018-0.141,1.26-1.502,0.354-1.986l-1.454-0.777c-0.61-0.326-0.941-1.007-0.819-1.688l0.289-1.623
				c0.18-1.011-1.039-1.663-1.78-0.95l-1.188,1.143c-0.057,0.055-0.127,0.087-0.19,0.132V98.971z"/>
			<g>
				<path class="st5" d="M107.723,50.244l-0.72-1.483c-0.302-0.622-0.97-0.979-1.655-0.884l-1.633,0.226
					c-1.018,0.141-1.621-1.102-0.881-1.815l1.188-1.143c0.498-0.479,0.631-1.225,0.329-1.847l-0.72-1.483
					c-0.449-0.924,0.547-1.883,1.454-1.399l1.454,0.777c0.61,0.326,1.36,0.222,1.859-0.258l1.188-1.143
					c0.74-0.712,1.96-0.061,1.78,0.95l-0.289,1.623c-0.121,0.681,0.21,1.362,0.82,1.688l1.454,0.777
					c0.906,0.484,0.664,1.845-0.354,1.986l-1.633,0.226c-0.685,0.095-1.231,0.62-1.352,1.301l-0.289,1.623
					C109.541,50.978,108.171,51.168,107.723,50.244z"/>
			</g>
			<g>
				<path class="st5" d="M112.81,112.834l-0.72-1.483c-0.302-0.622-0.97-0.979-1.655-0.884l-1.633,0.226
					c-1.018,0.141-1.621-1.102-0.881-1.815l1.188-1.143c0.498-0.479,0.631-1.225,0.329-1.847l-0.72-1.483
					c-0.449-0.924,0.547-1.883,1.454-1.399l1.454,0.777c0.61,0.326,1.36,0.222,1.859-0.258l1.188-1.143
					c0.74-0.712,1.96-0.061,1.78,0.95l-0.289,1.623c-0.121,0.681,0.21,1.362,0.82,1.688l1.454,0.777
					c0.906,0.484,0.664,1.845-0.354,1.986l-1.633,0.226c-0.685,0.095-1.231,0.62-1.352,1.301l-0.289,1.623
					C114.628,113.569,113.259,113.759,112.81,112.834z"/>
			</g>
			<path class="st5" d="M116.812,73.15l-1.454-0.777c-0.61-0.326-0.941-1.007-0.819-1.688l0.289-1.623
				c0.18-1.011-1.039-1.663-1.779-0.95l-1.188,1.143c-0.498,0.479-1.249,0.584-1.859,0.258l-1.454-0.777
				c-0.891-0.476-1.861,0.442-1.468,1.352c2.186,2.015,4.507,3.894,6.979,5.622c0.219-0.175,0.476-0.306,0.767-0.347l1.633-0.227
				C117.476,74.995,117.718,73.634,116.812,73.15z"/>
			<path class="st5" d="M15.469,69.884l-1.642-0.152c-0.689-0.064-1.258-0.564-1.41-1.238l-0.363-1.608
				c-0.226-1.002-1.602-1.13-2.009-0.186l-0.652,1.514c-0.273,0.635-0.925,1.022-1.613,0.958L6.139,69.02
				c-1.023-0.095-1.57,1.175-0.798,1.853l1.239,1.088c0.52,0.456,0.686,1.195,0.413,1.831l-0.652,1.514
				c-0.406,0.944,0.632,1.856,1.516,1.331l1.417-0.842c0.26-0.154,0.55-0.213,0.838-0.209c2.198-1.547,4.28-3.213,6.251-4.988
				C16.239,70.232,15.933,69.927,15.469,69.884z"/>
			<g>
				<path class="st4" d="M8.232,5.722c-2.681,0-4.855,2.174-4.855,4.855v15.781c0,4.047,3.281,7.328,7.328,7.328h0
					c4.047,0,7.328-3.281,7.328-7.328V5.722H8.232z"/>
				<path class="st3" d="M6.377,26.358V10.577c0-2.681,2.174-4.855,4.855-4.855h-3c-2.681,0-4.855,2.174-4.855,4.855v15.781
					c0,4.047,3.281,7.328,7.328,7.328h0c0.514,0,1.016-0.054,1.5-0.155C8.877,32.839,6.377,29.891,6.377,26.358z"/>
				<path class="st4" d="M18.033,5.722v20.636c0,4.047,3.281,7.328,7.328,7.328c4.047,0,7.328-3.281,7.328-7.328V5.722H18.033z"/>
				<path class="st4" d="M32.688,5.722v20.636c0,4.047,3.281,7.328,7.328,7.328c4.047,0,7.328-3.281,7.328-7.328V5.722H32.688z"/>
				<path class="st4" d="M47.344,5.722v20.636c0,4.047,3.281,7.328,7.328,7.328S62,30.405,62,26.358V5.722H47.344z"/>
				<path class="st4" d="M62,5.722v20.636c0,4.047,3.281,7.328,7.328,7.328l0,0c4.047,0,7.328-3.281,7.328-7.328V5.722H62z"/>
				<path class="st4" d="M76.656,5.722v20.636c0,4.047,3.281,7.328,7.328,7.328s7.328-3.281,7.328-7.328V5.722H76.656z"/>
				<path class="st4" d="M91.312,5.722v20.636c0,4.047,3.281,7.328,7.328,7.328s7.328-3.281,7.328-7.328V5.722H91.312z"/>
				<path class="st4" d="M115.768,5.722h-9.801v20.636c0,4.047,3.281,7.328,7.328,7.328s7.328-3.281,7.328-7.328V10.577
					C120.623,7.895,118.449,5.722,115.768,5.722z"/>
			</g>
		</g>
		<g>
			<path class="st0" d="M15.283,87.795c-0.411-0.367-1.043-0.334-1.412,0.078c-0.368,0.411-0.333,1.044,0.078,1.412
				c1.552,1.389,3.021,2.801,4.365,4.196c0.196,0.203,0.458,0.306,0.72,0.306c0.25,0,0.5-0.093,0.694-0.28
				c0.397-0.383,0.409-1.016,0.025-1.414C18.376,90.663,16.872,89.217,15.283,87.795z"/>
			<path class="st0" d="M116.366,4.752c-0.197-0.02-0.396-0.03-0.598-0.03h-9.802H91.312H76.656H62H47.345H32.688H18.033H8.231
				c-0.202,0-0.401,0.01-0.598,0.03c-2.949,0.3-5.257,2.797-5.257,5.824v0.001v15.781v53.416c0,0.002,0,0.004,0,0.006v33.643
				c0,3.229,2.626,5.855,5.854,5.855h25.214h57.109h25.214c3.229,0,5.854-2.627,5.854-5.855V79.78c0-0.002,0-0.004,0-0.006V26.358
				V10.577v-0.001C121.623,7.549,119.315,5.052,116.366,4.752z M116.544,6.8c1.755,0.36,3.079,1.917,3.079,3.777v15.781
				c0,3.489-2.839,6.327-6.328,6.327s-6.328-2.838-6.328-6.327V6.722h8.802C116.034,6.722,116.294,6.749,116.544,6.8z
				 M104.967,26.358c0,3.489-2.838,6.327-6.327,6.327s-6.328-2.838-6.328-6.327V6.722h12.655V26.358z M90.312,26.358
				c0,3.489-2.839,6.327-6.328,6.327s-6.327-2.838-6.327-6.327V6.722h12.655V26.358z M75.656,26.358
				c0,3.489-2.839,6.327-6.328,6.327S63,29.848,63,26.358V6.722h12.656V26.358z M61,26.358c0,3.489-2.839,6.327-6.328,6.327
				s-6.327-2.838-6.327-6.327V6.722H61V26.358z M46.345,26.358c0,3.489-2.839,6.327-6.328,6.327s-6.328-2.838-6.328-6.327V6.722
				h12.656V26.358z M4.377,31.758c1.529,1.789,3.796,2.928,6.328,2.928c3.162,0,5.918-1.772,7.328-4.375
				c1.41,2.603,4.165,4.375,7.327,4.375c3.162,0,5.918-1.772,7.328-4.375c0.908,1.677,2.377,3.007,4.152,3.742
				C31.177,54.086,20.322,68.835,4.377,78.067V31.758z M31.688,26.358c0,3.489-2.839,6.327-6.328,6.327s-6.327-2.838-6.327-6.327
				V6.722h12.655V26.358z M8.231,6.722h8.802v19.637c0,3.489-2.839,6.327-6.328,6.327s-6.328-2.838-6.328-6.327V10.577
				c0-1.86,1.324-3.417,3.079-3.777C7.706,6.749,7.966,6.722,8.231,6.722z M8.231,117.278c-2.125,0-3.854-1.729-3.854-3.855V81.698
				c1.625,1.155,3.187,2.32,4.658,3.476c0.435,0.341,1.064,0.265,1.403-0.17c0.342-0.435,0.266-1.063-0.169-1.403
				c-1.581-1.241-3.263-2.492-5.015-3.731C21.75,70.367,32.957,55.19,38.771,34.587c-0.029-0.004-0.056-0.014-0.085-0.018
				c0.434,0.07,0.876,0.116,1.33,0.116c3.162,0,5.918-1.772,7.328-4.375c1.41,2.603,4.165,4.375,7.327,4.375
				c3.162,0,5.918-1.772,7.328-4.375c1.41,2.603,4.166,4.375,7.328,4.375c3.162,0,5.918-1.772,7.328-4.375
				c1.41,2.603,4.165,4.375,7.327,4.375c0.454,0,0.896-0.046,1.33-0.116c-0.029,0.005-0.056,0.014-0.085,0.018
				c5.814,20.603,17.021,35.779,33.516,45.282c-16.461,11.634-25.691,23.573-28.97,37.409h-55.55
				c-1.762-7.435-5.238-14.278-10.641-20.884c-0.351-0.429-0.98-0.49-1.407-0.142c-0.428,0.35-0.491,0.98-0.142,1.407
				c5.097,6.23,8.425,12.66,10.15,19.618H8.231z M37.771,34.369c0.012,0.004,0.025,0.006,0.038,0.01
				C37.797,34.376,37.784,34.373,37.771,34.369z M86.229,34.369c-0.013,0.004-0.026,0.006-0.039,0.01
				C86.203,34.376,86.216,34.373,86.229,34.369z M119.623,113.423c0,2.126-1.729,3.855-3.854,3.855H91.815
				c3.238-13.068,12.124-24.438,27.808-35.58V113.423z M87.16,34.053c1.775-0.735,3.243-2.065,4.152-3.742
				c1.41,2.603,4.166,4.375,7.328,4.375c3.162,0,5.918-1.772,7.327-4.375c1.41,2.603,4.166,4.375,7.328,4.375
				c2.532,0,4.799-1.139,6.328-2.928v46.31C103.678,68.835,92.823,54.086,87.16,34.053z"/>
		</g>
	</g>
</g>
</svg>
