<?xml version="1.0" encoding="utf-8"?>
<!-- Generator: Adobe Illustrator 22.0.1, SVG Export Plug-In . SVG Version: 6.00 Build 0)  -->
<svg version="1.1" id="Layer_1" xmlns="http://www.w3.org/2000/svg" xmlns:xlink="http://www.w3.org/1999/xlink" x="0px" y="0px"
	 viewBox="0 0 128 128" style="enable-background:new 0 0 128 128;" xml:space="preserve">
<style type="text/css">
	.st0{fill:#3A2C60;}
	.st1{fill:#E6E7E8;}
	.st2{fill:#6DC9F7;}
	.st3{fill:#FFFFFF;}
	.st4{fill:#FA759E;}
	.st5{fill:#FFD7E5;}
	.st6{fill:#D4FBFF;}
	.st7{fill:#0089EF;}
</style>
<g>
	<path class="st1" d="M78.837,61.232c2.277-1.687,4.113-3.819,5.376-6.235h3.347c0.553,0,1-0.447,1-1s-0.447-1-1-1h-2.451
		c0.243-0.668,0.445-1.351,0.6-2.05h1.851c0.553,0,1-0.447,1-1s-0.447-1-1-1h-1.55c0.043-0.479,0.083-0.96,0.083-1.449
		c0-0.206-0.026-0.399-0.034-0.602h1.502c0.553,0,1-0.447,1-1s-0.447-1-1-1h-1.721c-0.64-3.501-2.583-6.36-5.768-8.371
		c2.264-3.523,4.247-8.236,5.269-12.572c2.766-11.752-2.8-14.402-5.321-14.997c-2.501-0.587-4.848,0.025-6.796,1.776
		c-2.084,1.873-3.651,4.992-4.658,9.271c-1,4.249-1.336,9.091-0.936,13.208c-1.082-0.045-2.174-0.045-3.256,0
		c0.4-4.117,0.064-8.959-0.936-13.208c-1.007-4.278-2.574-7.397-4.658-9.271c-1.947-1.751-4.298-2.364-6.795-1.776
		c-2.521,0.595-8.088,3.245-5.322,14.997c1.021,4.336,3.005,9.049,5.269,12.572c-3.185,2.011-5.129,4.87-5.768,8.371H44.44
		c-0.553,0-1,0.447-1,1s0.447,1,1,1h1.502c-0.008,0.202-0.034,0.396-0.034,0.602c0,0.489,0.039,0.97,0.083,1.449h-1.55
		c-0.553,0-1,0.447-1,1s0.447,1,1,1h1.851c0.154,0.699,0.356,1.382,0.6,2.05H44.44c-0.553,0-1,0.447-1,1s0.447,1,1,1h3.347
		c1.263,2.417,3.1,4.55,5.377,6.236c-9.072,2.239-15.16,6.814-15.159,12.239c0.01,1.315,0.764,2.503,1.967,3.1
		c1.227,0.607,2.655,0.483,3.731-0.321c0.95-0.712,2.043-1.365,3.248-1.958L46.88,75.56c0,0.005-0.003,0.009-0.004,0.014
		l-1.426,25.274l-0.868,15.399c-0.104,1.844,0.538,3.598,1.805,4.938c1.265,1.338,2.977,2.074,4.818,2.074h29.588
		c1.84,0,3.551-0.737,4.817-2.076c1.268-1.341,1.909-3.094,1.806-4.937l-2.294-40.673c0-0.005-0.003-0.009-0.004-0.014l-0.072-1.268
		c1.205,0.593,2.298,1.246,3.248,1.958c0.623,0.466,1.363,0.703,2.115,0.703c0.547,0,1.1-0.126,1.616-0.382
		c1.203-0.597,1.957-1.784,1.965-3.045c0.001-0.021,0.003-0.088,0.003-0.108C93.995,68.03,87.908,63.467,78.837,61.232z"/>
	<g>
		<g>
			<g>
				<path class="st3" d="M41.577,112.301l2.301-40.673h36.243l2.301,40.673c0.18,3.234-2.392,5.956-5.626,5.956H47.203
					C43.969,118.258,41.396,115.535,41.577,112.301z"/>
				<path class="st7" d="M41.581,112.304l2.294-40.673h33.994l2.294,40.673c0.18,3.234-2.392,5.957-5.626,5.957H47.206
					C43.965,118.26,41.4,115.538,41.581,112.304z"/>
				<path class="st4" d="M62,65.498c-6.899,0-13.185,1.218-17.957,3.216l-0.165,2.915h36.243l-0.165-2.915
					C75.185,66.716,68.899,65.498,62,65.498z"/>
				<path class="st7" d="M72.265,57.707c-2.966,1.677-6.483,2.662-10.265,2.662s-7.299-0.985-10.265-2.662
					c-9.816,1.895-16.729,6.423-16.729,11.711c0,0.015,0,0.031,0,0.046c0.016,2.054,2.455,3.217,4.099,1.985
					c4.771-3.574,13.241-5.951,22.896-5.951s18.124,2.377,22.896,5.951c1.644,1.232,4.083,0.069,4.099-1.985
					c0-0.015,0-0.031,0-0.046C88.995,64.131,82.082,59.602,72.265,57.707z"/>
			</g>
		</g>
		<g>
			<g>
				<g>
					<path class="st3" d="M74.648,32.851c2.429-3.476,4.621-8.474,5.717-13.129c2.036-8.65-0.483-12.829-4.578-13.793
						c-4.095-0.964-8.214,1.652-10.25,10.302c-1.074,4.56-1.353,9.884-0.778,14.043c-0.901-0.064-1.822-0.097-2.759-0.097
						s-1.858,0.033-2.759,0.097c0.575-4.159,0.295-9.483-0.778-14.043c-2.036-8.65-6.156-11.266-10.25-10.302
						c-4.095,0.964-6.614,5.143-4.578,13.793c1.096,4.654,3.288,9.652,5.717,13.129c-3.95,2.139-6.444,5.616-6.444,10.646
						c0,9.318,8.548,16.872,19.092,16.872s19.092-7.554,19.092-16.872C81.092,38.468,78.599,34.99,74.648,32.851z"/>
					<g>
						<ellipse class="st5" cx="50.118" cy="47.683" rx="1.46" ry="0.996"/>
						<path class="st5" d="M73.882,46.687c-0.807,0-1.46,0.446-1.46,0.996s0.654,0.996,1.46,0.996c0.806,0,1.46-0.446,1.46-0.996
							S74.688,46.687,73.882,46.687z"/>
					</g>
					<g>
						<path class="st0" d="M41.92,106.307c0.019,0.001,0.038,0.002,0.057,0.002c0.526,0,0.968-0.411,0.997-0.944l0.232-4.138
							c0.031-0.551-0.391-1.023-0.942-1.054c-0.551-0.044-1.023,0.392-1.054,0.942l-0.232,4.138
							C40.946,105.804,41.368,106.276,41.92,106.307z"/>
						<path class="st0" d="M74.829,57.238c2.28-1.687,4.119-3.822,5.383-6.24h3.347c0.553,0,1-0.447,1-1s-0.447-1-1-1h-2.451
							c0.244-0.668,0.446-1.351,0.6-2.051h1.851c0.553,0,1-0.447,1-1s-0.447-1-1-1h-1.55c0.043-0.479,0.083-0.96,0.083-1.449
							c0-0.206-0.026-0.399-0.034-0.602h1.502c0.553,0,1-0.447,1-1s-0.447-1-1-1h-1.721c-0.64-3.501-2.583-6.36-5.768-8.371
							c2.264-3.523,4.247-8.236,5.269-12.572C84.105,8.199,78.538,5.55,76.017,4.956c-2.497-0.586-4.848,0.025-6.795,1.775
							c-2.084,1.873-3.65,4.992-4.658,9.271c-1,4.249-1.336,9.091-0.937,13.208c-1.08-0.045-2.174-0.045-3.254,0
							c0.399-4.117,0.063-8.959-0.937-13.208c-1.008-4.278-2.575-7.397-4.659-9.271c-1.946-1.751-4.297-2.361-6.795-1.775
							c-2.521,0.594-8.087,3.243-5.321,14.996c1.021,4.336,3.005,9.049,5.269,12.572c-3.185,2.011-5.129,4.87-5.768,8.371H40.44
							c-0.553,0-1,0.447-1,1s0.447,1,1,1h1.503c-0.008,0.202-0.034,0.396-0.034,0.602c0,0.489,0.039,0.97,0.083,1.449H40.44
							c-0.553,0-1,0.447-1,1s0.447,1,1,1h1.852c0.154,0.699,0.357,1.383,0.6,2.051H40.44c-0.553,0-1,0.447-1,1s0.447,1,1,1h3.348
							c1.264,2.419,3.104,4.554,5.384,6.241c-9.072,2.238-15.167,6.807-15.167,12.233c0.01,1.315,0.764,2.503,1.967,3.1
							c0.517,0.256,1.069,0.382,1.617,0.382c0.752,0,1.492-0.237,2.115-0.704c0.95-0.712,2.043-1.364,3.248-1.957l-0.072,1.264
							c0,0.007-0.005,0.012-0.005,0.019l-1.425,25.274c-0.031,0.552,0.391,1.024,0.941,1.055c0.548,0.023,1.024-0.39,1.055-0.941
							l1.372-24.331h34.36l2.241,39.729c0.071,1.288-0.377,2.514-1.263,3.45c-0.885,0.936-2.079,1.45-3.365,1.45H47.206
							c-1.287,0-2.482-0.515-3.365-1.448c-0.886-0.937-1.333-2.162-1.262-3.451l0.152-2.703c0.031-0.552-0.391-1.024-0.941-1.055
							c-0.542-0.031-1.024,0.389-1.055,0.941l-0.152,2.704c-0.104,1.845,0.538,3.598,1.805,4.938
							c1.265,1.338,2.976,2.074,4.818,2.074h29.587c1.841,0,3.552-0.737,4.818-2.076c1.268-1.34,1.909-3.093,1.806-4.937
							l-2.294-40.673c0-0.007-0.004-0.012-0.005-0.019l-0.071-1.263c1.205,0.593,2.299,1.246,3.249,1.958
							c1.076,0.805,2.505,0.929,3.731,0.321c1.203-0.597,1.957-1.784,1.967-3.153C89.994,64.03,83.9,59.473,74.829,57.238z
							 M46.062,50.997h0.099c0.553,0,1-0.447,1-1s-0.447-1-1-1h-1.11c-0.281-0.665-0.521-1.347-0.7-2.051h1.81c0.553,0,1-0.447,1-1
							s-0.447-1-1-1h-2.169c-0.05-0.478-0.084-0.96-0.084-1.449c0-0.207,0.026-0.4,0.035-0.602h2.218c0.553,0,1-0.447,1-1
							s-0.447-1-1-1h-1.968c0.661-3.077,2.535-5.488,5.635-7.166c0.25-0.135,0.431-0.371,0.496-0.648
							c0.066-0.277,0.011-0.569-0.153-0.804c-2.375-3.398-4.507-8.297-5.563-12.784c-1.682-7.142-0.32-11.612,3.833-12.59
							c0.463-0.109,0.915-0.164,1.355-0.164c1.327,0,2.549,0.495,3.644,1.479c1.774,1.595,3.137,4.368,4.049,8.242
							c1.03,4.376,1.322,9.617,0.762,13.677c-0.042,0.299,0.054,0.6,0.261,0.82c0.205,0.22,0.504,0.34,0.801,0.313
							c1.762-0.126,3.607-0.126,5.375,0c0.3,0.028,0.595-0.094,0.802-0.313c0.206-0.221,0.302-0.521,0.26-0.82
							c-0.561-4.06-0.269-9.301,0.762-13.677c0.911-3.874,2.273-6.647,4.048-8.242c1.458-1.312,3.141-1.756,4.999-1.315
							c4.153,0.978,5.516,5.449,3.834,12.59c-1.056,4.487-3.188,9.386-5.563,12.784c-0.164,0.234-0.22,0.526-0.153,0.804
							c0.065,0.277,0.246,0.514,0.496,0.648c3.1,1.678,4.974,4.089,5.635,7.166h-1.969c-0.553,0-1,0.447-1,1s0.447,1,1,1h2.219
							c0.009,0.202,0.035,0.395,0.035,0.602c0,0.489-0.034,0.971-0.084,1.449h-2.17c-0.553,0-1,0.447-1,1s0.447,1,1,1h1.811
							c-0.179,0.704-0.419,1.385-0.7,2.051h-1.111c-0.553,0-1,0.447-1,1s0.447,1,1,1h0.1c-3.057,4.979-9.053,8.372-15.938,8.372
							S49.119,55.976,46.062,50.997z M79.064,70.628H44.937l0.07-1.244C49.669,67.54,55.635,66.498,62,66.498
							c6.365,0,12.33,1.042,16.993,2.886L79.064,70.628z M87.14,70.779c-0.553,0.275-1.167,0.228-1.645-0.131
							c-5.142-3.851-13.925-6.15-23.495-6.15c-9.571,0-18.354,2.3-23.495,6.15c-0.477,0.357-1.092,0.406-1.645,0.131
							c-0.531-0.264-0.852-0.758-0.855-1.361c0-4.676,6.518-8.811,15.613-10.649c3.035,1.639,6.58,2.6,10.382,2.6
							c3.802,0,7.347-0.961,10.381-2.6c9.094,1.84,15.613,5.982,15.613,10.687C87.99,70.022,87.67,70.516,87.14,70.779z"/>
						<path class="st0" d="M55.525,43.523c0-0.899-0.729-1.627-1.628-1.627s-1.628,0.729-1.628,1.627
							c0,0.899,0.729,1.628,1.628,1.628S55.525,44.422,55.525,43.523z"/>
						<path class="st0" d="M70.102,45.15c0.899,0,1.628-0.729,1.628-1.628c0-0.899-0.729-1.627-1.628-1.627
							c-0.899,0-1.627,0.729-1.627,1.627C68.475,44.422,69.204,45.15,70.102,45.15z"/>
						<path class="st0" d="M65.531,54.3c2.499,0,4.531-2.033,4.531-4.531c0-0.553-0.447-1-1-1s-1,0.447-1,1
							c0,1.396-1.136,2.531-2.531,2.531S63,51.164,63,49.769c0-0.077-0.027-0.144-0.043-0.216c1.153-0.237,1.986-0.837,1.986-1.181
							c0-0.433-1.318-1.284-2.943-1.284s-2.943,0.85-2.943,1.284c0,0.344,0.833,0.944,1.986,1.181
							C61.027,49.624,61,49.692,61,49.769c0,1.396-1.136,2.531-2.531,2.531s-2.531-1.136-2.531-2.531c0-0.553-0.447-1-1-1
							s-1,0.447-1,1c0,2.498,2.032,4.531,4.531,4.531c1.435,0,2.7-0.683,3.531-1.727C62.831,53.617,64.097,54.3,65.531,54.3z"/>
					</g>
					<g>
						<path class="st4" d="M54.72,17.179c-0.806-4.152-3.02-7.216-4.946-6.842c-1.926,0.374-2.833,4.043-2.028,8.195
							c0.806,4.152,3.02,7.216,4.946,6.842C54.618,25.001,55.526,21.332,54.72,17.179z"/>
						<path class="st4" d="M74.226,10.338c-1.926-0.374-4.14,2.689-4.946,6.842c-0.806,4.153,0.102,7.822,2.028,8.196
							c1.926,0.374,4.14-2.69,4.946-6.842C77.06,14.38,76.152,10.711,74.226,10.338z"/>
					</g>
				</g>
			</g>
		</g>
	</g>
</g>
</svg>
