<?xml version="1.0" encoding="utf-8"?>
<!-- Generator: Adobe Illustrator 23.0.0, SVG Export Plug-In . SVG Version: 6.00 Build 0)  -->
<svg version="1.1" id="Layer_1" xmlns="http://www.w3.org/2000/svg" xmlns:xlink="http://www.w3.org/1999/xlink" x="0px" y="0px"
	 viewBox="0 0 512 512" style="enable-background:new 0 0 512 512;" xml:space="preserve">
<style type="text/css">
	.st0{fill:#32283C;}
	.st1{fill:#463C4B;}
	.st2{fill:#E6E6EB;}
	.st3{fill:#A5C3DC;}
	.st4{fill:#FF4646;}
	.st5{fill:#CD3232;}
	.st6{fill:#F0915A;}
	.st7{fill:#FAB991;}
	.st8{fill:#F5732D;}
	.st9{fill:#FAA037;}
	.st10{fill:#78AF41;}
	.st11{fill:#788CB4;}
	.st12{fill:#466932;}
	.st13{fill:#FBB993;}
	.st14{fill:#F1905B;}
	.st15{fill:#23192D;}
	.st16{fill:#32293C;}
	.st17{fill:#B92323;}
</style>
<g>
	<g>
		<path class="st4" d="M398.059,126.059l-34.745-34.745C356.07,84.07,352,74.245,352,64l0,0c0-10.245,4.07-20.07,11.314-27.314
			L384,16h0c-53.019,0-96,42.98-96,96v32c0,8.836-7.163,16-16,16s-16-7.164-16-16v-9.373c0-14.488,5.755-28.383,16-38.627h0
			c-61.856,0-112,50.144-112,112l0,0c0,75.111,60.889,136,136,136s136-60.889,136-136l0,0
			C432,177.266,419.791,147.791,398.059,126.059z"/>
	</g>
	<g>
		<path class="st4" d="M240,16v40c0,13.255-10.745,24-24,24h0c-13.255,0-24-10.745-24-24v0c0-22.091,17.909-40,40-40H240z"/>
	</g>
	<g>
		<g>
			<path class="st0" d="M147.373,496H480c8.837,0,16-7.163,16-16V320c0-8.837-7.163-16-16-16H147.373
				c-7.198,0-14.017,3.231-18.575,8.802l-59.732,73.006C65.79,389.812,64,394.827,64,400l0,0c0,5.173,1.79,10.188,5.066,14.192
				l59.732,73.006C133.356,492.769,140.175,496,147.373,496z"/>
		</g>
		<g>
			<path class="st1" d="M147.373,496H456c8.837,0,16-7.163,16-16V320c0-8.837-7.163-16-16-16H147.373
				c-7.198,0-14.017,3.231-18.575,8.802l-59.732,73.006C65.79,389.812,64,394.827,64,400l0,0c0,5.173,1.79,10.188,5.066,14.192
				l59.732,73.006C133.356,492.769,140.175,496,147.373,496z"/>
		</g>
		<g>
			<circle class="st0" cx="104" cy="400" r="24"/>
		</g>
		<g>
			<path class="st2" d="M362.667,352h24c4.418,0,8-3.582,8-8s-3.582-8-8-8h-24c-13.233,0-24,10.767-24,24v80
				c0,13.233,10.767,24,24,24h24c4.418,0,8-3.582,8-8s-3.582-8-8-8h-24c-4.411,0-8-3.589-8-8v-80
				C354.667,355.589,358.255,352,362.667,352z"/>
			<path class="st2" d="M450.667,448h-24c-4.411,0-8-3.589-8-8v-32h16c4.418,0,8-3.582,8-8s-3.582-8-8-8h-16v-32
				c0-4.411,3.589-8,8-8h24c4.418,0,8-3.582,8-8s-3.582-8-8-8h-24c-13.233,0-24,10.767-24,24v80c0,13.233,10.767,24,24,24h24
				c4.418,0,8-3.582,8-8S455.085,448,450.667,448z"/>
			<path class="st2" d="M184,336h-24c-4.418,0-8,3.582-8,8v112c0,4.418,3.582,8,8,8s8-3.582,8-8v-48h16c13.233,0,24-10.767,24-24
				v-24C208,346.767,197.233,336,184,336z M192,384c0,4.411-3.589,8-8,8h-16v-40h16c4.411,0,8,3.589,8,8V384z"/>
			<path class="st2" d="M256,336h-24c-4.418,0-8,3.582-8,8v112c0,4.418,3.582,8,8,8s8-3.582,8-8v-48h16c4.411,0,8,3.589,8,8v40
				c0,4.418,3.582,8,8,8s8-3.582,8-8v-40c0-6.142-2.322-11.751-6.131-16c3.809-4.249,6.131-9.858,6.131-16v-24
				C280,346.767,269.233,336,256,336z M240,352h16c4.411,0,8,3.589,8,8v24c0,4.411-3.589,8-8,8h-16V352z"/>
			<path class="st2" d="M309.333,336c-4.418,0-8,3.582-8,8v112c0,4.418,3.582,8,8,8s8-3.582,8-8V344
				C317.333,339.582,313.752,336,309.333,336z"/>
		</g>
	</g>
	<path class="st2" d="M104,392H72c-22.056,0-40-17.944-40-40v-64c0-22.056,17.944-40,40-40h93.983c-1.6-5.208-2.9-10.547-3.871-16
		H72c-30.878,0-56,25.122-56,56v64c0,30.878,25.122,56,56,56h32c4.418,0,8-3.582,8-8S108.418,392,104,392z"/>
	<g>
		<path class="st9" d="M256,178.667c-4.418,0-8,3.582-8,8v32h-16v-32c0-4.418-3.582-8-8-8s-8,3.582-8,8v88c0,4.418,3.582,8,8,8
			s8-3.582,8-8v-40h16v40c0,4.418,3.582,8,8,8s8-3.582,8-8v-88C264,182.248,260.418,178.667,256,178.667z"/>
		<path class="st9" d="M304,178.667c-13.234,0-24,10.766-24,24v56c0,13.234,10.766,24,24,24s24-10.766,24-24v-56
			C328,189.433,317.234,178.667,304,178.667z M312,258.667c0,4.411-3.589,8-8,8s-8-3.589-8-8v-56c0-4.411,3.589-8,8-8s8,3.589,8,8
			V258.667z"/>
		<path class="st9" d="M373.333,178.667h-32c-4.418,0-8,3.582-8,8s3.582,8,8,8h8v80c0,4.418,3.582,8,8,8s8-3.582,8-8v-80h8
			c4.418,0,8-3.582,8-8S377.752,178.667,373.333,178.667z"/>
	</g>
</g>
</svg>
