<?xml version="1.0" encoding="utf-8"?>
<!-- Generator: Adobe Illustrator 22.0.1, SVG Export Plug-In . SVG Version: 6.00 Build 0)  -->
<svg version="1.1" id="Layer_1" xmlns="http://www.w3.org/2000/svg" xmlns:xlink="http://www.w3.org/1999/xlink" x="0px" y="0px"
	 viewBox="0 0 128 128" style="enable-background:new 0 0 128 128;" xml:space="preserve">
<style type="text/css">
	.st0{fill:#263238;}
	.st1{fill:#E6E7E8;}
	.st2{fill:#FFD7E5;}
	.st3{fill:#0089EF;}
	.st4{fill:#6DC9F7;}
	.st5{fill:#FA759E;}
	.st6{fill:#FFFFFF;}
	.st7{fill:#3A2C60;}
	.st8{fill:#D4FBFF;}
</style>
<g>
	<path class="st1" d="M112.34,52.213c0.023-0.262,0.035-0.527,0.053-0.791c0.013-0.189,0.028-0.377,0.038-0.567
		c0.031-0.604,0.05-1.21,0.05-1.813c0-19.113-15.543-34.91-34.647-35.215c-9.355-0.143-18.309,3.474-25.155,10.198
		c-5.745,5.643-9.318,12.798-10.33,20.493h-3.667c-0.552,0-1,0.447-1,1v4.605c-1.082,0.339-2.125,0.771-3.119,1.288l-3.253-3.254
		c-0.188-0.188-0.442-0.293-0.707-0.293s-0.52,0.105-0.707,0.293l-6.738,6.739c-0.391,0.391-0.391,1.023,0,1.414l3.253,3.254
		c-0.519,0.994-0.95,2.038-1.288,3.118h-4.605c-0.552,0-1,0.447-1,1v9.529c0,0.553,0.448,1,1,1h4.605
		c0.338,1.08,0.77,2.125,1.289,3.119l-3.254,3.254c-0.188,0.188-0.293,0.441-0.293,0.707s0.105,0.52,0.293,0.707l6.738,6.738
		c0.391,0.391,1.023,0.391,1.414,0l3.254-3.254c0.995,0.519,2.039,0.95,3.119,1.289v4.604c0,0.553,0.448,1,1,1h9.53
		c0.552,0,1-0.447,1-1v-4.604c1.08-0.339,2.124-0.771,3.119-1.289l3.254,3.254c0.391,0.391,1.023,0.391,1.414,0l4.454-4.454
		c0.94,1.735,1.72,3.584,2.311,5.535l0.488,1.609c-1.01,0.45-1.719,1.46-1.719,2.637v8.324c0,5.049,3.404,9.466,8.204,10.8v0.25
		c0,2.612,2.125,4.737,4.737,4.737h3.577c2.612,0,4.737-2.125,4.737-4.737v-0.25c4.8-1.335,8.204-5.751,8.204-10.8v-8.324
		c0-1.176-0.708-2.186-1.719-2.637l0.611-2.017c1.592-5.254,4.572-9.773,8.617-13.071c0.473-0.385,0.931-0.784,1.382-1.191
		c0.146-0.132,0.287-0.269,0.431-0.403c0.3-0.28,0.596-0.564,0.886-0.854c0.164-0.164,0.324-0.33,0.485-0.496
		c0.258-0.269,0.511-0.542,0.761-0.819c0.165-0.183,0.33-0.365,0.491-0.551c0.233-0.27,0.458-0.546,0.683-0.823
		c0.159-0.196,0.322-0.389,0.477-0.587c0.26-0.334,0.509-0.677,0.756-1.021c0.283-0.393,0.555-0.791,0.821-1.194
		c0.119-0.18,0.241-0.359,0.357-0.542c0.197-0.311,0.385-0.626,0.572-0.943c0.066-0.112,0.137-0.219,0.201-0.332
		c0.006-0.011,0.006-0.023,0.011-0.034c0.807-1.404,1.521-2.857,2.125-4.359c0.001-0.003,0.003-0.005,0.005-0.008l0.444-1.18
		c0.217-0.602,0.418-1.21,0.602-1.824c0.039-0.131,0.086-0.26,0.124-0.392c0.102-0.356,0.188-0.718,0.279-1.078
		c0.065-0.255,0.139-0.508,0.197-0.763c0.001-0.004,0-0.007,0-0.011c0.349-1.526,0.588-3.083,0.732-4.66
		C112.325,52.254,112.338,52.236,112.34,52.213z"/>
	<g>
		<g>
			<g>
				<g>
					<g>
						<path class="st2" d="M73.818,10.828c-17.654-0.281-32.755,13.453-34.587,30.691h4.982v5.354
							c1.52,0.411,2.961,1.008,4.296,1.776l3.783-3.783l6.738,6.738l-3.783,3.783c0.767,1.335,1.364,2.776,1.776,4.296h5.354v9.529
							h-5.354c-0.411,1.521-1.008,2.961-1.776,4.296l3.783,3.783l-1.369,1.369c1.29,2.146,2.327,4.451,3.06,6.868l0.802,2.647
							h23.479l0.926-3.054c1.603-5.291,4.657-10.064,8.942-13.557c7.695-6.272,12.612-15.821,12.612-26.524
							C107.481,26.329,92.46,11.124,73.818,10.828z"/>
					</g>
					<path class="st6" d="M81.092,53.443c0-4.324-3.506-7.83-7.83-7.83c-4.324,0-7.83,3.506-7.83,7.83
						c0,3.468,2.257,6.405,5.38,7.434v27.3h5.159V60.782C78.959,59.678,81.092,56.814,81.092,53.443z"/>
					<path class="st5" d="M61.423,88.176c-1.043,0-1.889,0.846-1.889,1.889v8.324c0,4.952,3.526,9.077,8.204,10.011v1.04
						c0,2.064,1.673,3.737,3.737,3.737h3.577c2.064,0,3.737-1.673,3.737-3.737v-1.04c4.678-0.934,8.204-5.058,8.204-10.011v-8.324
						c0-1.043-0.846-1.889-1.889-1.889H61.423z"/>
				</g>
			</g>
		</g>
		<g>
			<g>
				<path class="st6" d="M39.448,77.241c-7.065,0-12.792-5.727-12.792-12.792c0-7.065,5.727-12.792,12.792-12.792
					c7.065,0,12.792,5.727,12.792,12.792C52.24,71.513,46.513,77.241,39.448,77.241z"/>
				<path class="st6" d="M62.377,69.213v-9.529h-5.354c-0.411-1.52-1.008-2.961-1.776-4.296l3.783-3.783l-6.738-6.738l-3.783,3.783
					c-1.335-0.768-2.776-1.364-4.296-1.776v-5.354h-9.529v5.354c-1.52,0.411-2.961,1.008-4.296,1.776l-3.783-3.783l-6.738,6.738
					l3.783,3.783c-0.767,1.335-1.364,2.776-1.776,4.296h-5.354v9.529h5.354c0.411,1.52,1.008,2.961,1.776,4.296l-3.783,3.784
					l6.738,6.738l3.783-3.783c1.335,0.767,2.776,1.364,4.296,1.776v5.354h9.529v-5.354c1.52-0.412,2.961-1.008,4.296-1.776
					l3.783,3.783l6.738-6.738l-3.783-3.784c0.767-1.335,1.364-2.776,1.776-4.296H62.377z M39.448,77.241
					c-7.065,0-12.792-5.727-12.792-12.792c0-7.065,5.727-12.792,12.792-12.792c7.065,0,12.792,5.727,12.792,12.792
					C52.24,71.513,46.513,77.241,39.448,77.241z"/>
			</g>
			<g>
				<path class="st5" d="M39.458,51.657V77.24c6.335-0.005,11.578-4.619,12.591-10.668c0.106-0.754,0.172-1.523,0.181-2.31
					C52.13,57.288,46.456,51.663,39.458,51.657z"/>
				<path class="st4" d="M55.247,55.387l3.783-3.783l-6.738-6.738l-3.783,3.783c-1.335-0.768-2.776-1.364-4.296-1.776v-5.354h-9.529
					v5.354c-1.354,0.366-2.64,0.888-3.85,1.538l0,0c-0.149,0.08-0.3,0.154-0.446,0.238l-2.283-2.283l-5.238,5.238l3.266,3.266
					c0.308,0.308,0.367,0.774,0.166,1.16c-0.489,0.938-0.897,1.924-1.218,2.95c-0.13,0.415-0.503,0.704-0.938,0.704h-2.268h-2.354
					v9.529h2.354h2.263c0.437,0,0.813,0.291,0.944,0.708c0.321,1.023,0.727,2.006,1.215,2.942c0.202,0.388,0.142,0.858-0.167,1.168
					l-3.262,3.262l5.238,5.238l2.283-2.283c1.335,0.768,2.776,1.364,4.296,1.776v5.354h9.529v-5.354
					c1.52-0.412,2.961-1.008,4.296-1.776l3.783,3.783l6.738-6.738l-3.783-3.783c0.767-1.335,1.364-2.776,1.776-4.296h5.354v-9.529
					h-5.354C56.611,58.164,56.015,56.723,55.247,55.387z M39.448,77.241c-7.065,0-12.792-5.727-12.792-12.792
					s5.727-12.792,12.792-12.792c7.065,0,12.792,5.727,12.792,12.792S46.513,77.241,39.448,77.241z"/>
			</g>
			<g>
				<path class="st7" d="M73.834,9.827C64.474,9.68,55.525,13.3,48.679,20.026c-5.745,5.643-9.321,12.798-10.332,20.493h-3.664
					c-0.552,0-1,0.447-1,1v4.605c-1.082,0.339-2.125,0.771-3.119,1.288l-3.253-3.254c-0.188-0.188-0.442-0.293-0.707-0.293
					s-0.52,0.105-0.707,0.293l-6.738,6.739c-0.391,0.391-0.391,1.023,0,1.414l3.253,3.254c-0.519,0.994-0.95,2.038-1.288,3.118
					h-4.605c-0.552,0-1,0.447-1,1v9.529c0,0.553,0.448,1,1,1h4.605c0.338,1.08,0.77,2.124,1.288,3.119l-3.253,3.254
					c-0.391,0.391-0.391,1.023,0,1.414l6.738,6.738c0.391,0.391,1.023,0.391,1.414,0l3.253-3.254c0.996,0.519,2.04,0.95,3.119,1.289
					v4.604c0,0.553,0.448,1,1,1h9.529c0.552,0,1-0.447,1-1v-4.604c1.08-0.339,2.124-0.771,3.119-1.289l3.254,3.254
					c0.391,0.391,1.023,0.391,1.414,0l4.44-4.44c0.942,1.732,1.734,3.571,2.325,5.521l0.488,1.609
					c-1.01,0.45-1.719,1.46-1.719,2.637v8.324c0,5.049,3.404,9.465,8.204,10.8v0.25c0,2.612,2.125,4.737,4.737,4.737h3.577
					c2.612,0,4.737-2.125,4.737-4.737v-0.25c4.8-1.335,8.204-5.751,8.204-10.8v-8.324c0-1.176-0.708-2.186-1.719-2.637l0.611-2.017
					c1.592-5.254,4.572-9.773,8.617-13.071c3.354-2.734,6.148-6.018,8.302-9.757c0.275-0.479,0.111-1.09-0.368-1.365
					c-0.478-0.276-1.089-0.111-1.366,0.367c-2.032,3.527-4.667,6.624-7.833,9.204c-4.355,3.551-7.559,8.406-9.267,14.042
					l-0.71,2.344H62.265l-0.587-1.937c-0.689-2.275-1.635-4.41-2.772-6.408L59.738,78c0.391-0.391,0.391-1.023,0-1.414l-3.254-3.254
					c0.518-0.994,0.95-2.038,1.289-3.119h4.605c0.552,0,1-0.447,1-1v-9.529c0-0.553-0.448-1-1-1h-4.605
					c-0.339-1.081-0.771-2.125-1.288-3.119l3.253-3.253c0.391-0.391,0.391-1.023,0-1.414L53,44.158
					c-0.375-0.375-1.039-0.375-1.414,0l-3.254,3.254c-0.993-0.518-2.038-0.949-3.119-1.288v-4.605c0-0.553-0.448-1-1-1h-3.844
					c1-7.154,4.356-13.804,9.712-19.066c6.46-6.348,14.909-9.792,23.721-9.625c18.02,0.287,32.68,15.187,32.68,33.215
					c0,0.997-0.045,2.004-0.133,2.993c-0.049,0.55,0.357,1.036,0.907,1.085c0.547,0.057,1.036-0.357,1.085-0.907
					c0.094-1.048,0.141-2.114,0.141-3.171C108.481,25.929,92.938,10.132,73.834,9.827z M85.992,98.39
					c0,0.683-0.084,1.35-0.229,1.996H60.762c-0.144-0.646-0.229-1.313-0.229-1.996v-2.488h25.459V98.39z M78.592,107.42l-0.804,0.16
					v1.859c0,1.51-1.228,2.737-2.737,2.737h-3.577c-1.509,0-2.737-1.228-2.737-2.737v-1.859l-0.804-0.16
					c-2.896-0.578-5.25-2.501-6.477-5.034H85.07C83.843,104.919,81.488,106.842,78.592,107.42z M85.002,89.176h0.101
					c0.49,0,0.889,0.399,0.889,0.89v3.836H60.533v-3.836c0-0.49,0.399-0.89,0.889-0.89h0.101H85.002z M43.951,47.838
					c1.432,0.389,2.798,0.953,4.06,1.679c0.392,0.224,0.886,0.159,1.206-0.16l3.077-3.077l5.324,5.325l-3.077,3.076
					c-0.32,0.319-0.385,0.813-0.16,1.205c0.726,1.263,1.29,2.628,1.677,4.06c0.118,0.436,0.514,0.738,0.965,0.738h4.354v7.529
					h-4.354c-0.452,0-0.847,0.303-0.965,0.738c-0.387,1.432-0.952,2.797-1.677,4.06c-0.226,0.392-0.16,0.886,0.16,1.205l3.077,3.077
					l-5.324,5.324l-3.077-3.076c-0.319-0.319-0.813-0.385-1.205-0.16c-1.266,0.727-2.631,1.291-4.06,1.677
					c-0.436,0.118-0.739,0.514-0.739,0.966v4.354h-7.529v-4.354c0-0.452-0.303-0.848-0.739-0.965
					c-1.428-0.387-2.793-0.951-4.06-1.678c-0.392-0.227-0.886-0.159-1.205,0.16l-3.076,3.076l-5.324-5.324l3.076-3.077
					c0.32-0.319,0.385-0.813,0.16-1.205c-0.727-1.265-1.291-2.63-1.677-4.059c-0.118-0.437-0.514-0.739-0.965-0.739h-4.354v-7.529
					h4.354c0.452,0,0.848-0.303,0.965-0.739c0.386-1.429,0.951-2.794,1.677-4.059c0.225-0.392,0.159-0.886-0.16-1.205l-3.076-3.076
					l5.324-5.325l3.076,3.077c0.318,0.318,0.813,0.384,1.206,0.16c1.262-0.726,2.628-1.29,4.06-1.679
					c0.436-0.118,0.738-0.514,0.738-0.965v-4.354h7.529v4.354C43.212,47.324,43.515,47.72,43.951,47.838z"/>
				<path class="st7" d="M106.839,51.748c-0.535-0.125-1.075,0.213-1.198,0.751c-0.269,1.173-0.607,2.344-0.996,3.458l-0.573,1.521
					c-0.194,0.518,0.067,1.094,0.583,1.288c0.116,0.044,0.235,0.064,0.353,0.064c0.404,0,0.785-0.247,0.936-0.647l0.581-1.545
					c0.421-1.206,0.779-2.448,1.064-3.692C107.713,52.408,107.377,51.871,106.839,51.748z"/>
				<path class="st7" d="M25.656,64.448c0,7.604,6.187,13.792,13.792,13.792S53.24,72.053,53.24,64.448s-6.188-13.792-13.792-13.792
					S25.656,56.844,25.656,64.448z M51.24,64.448c0,6.502-5.29,11.792-11.792,11.792c-6.502,0-11.792-5.29-11.792-11.792
					c0-6.165,4.757-11.231,10.792-11.741v12.605c0,0.553,0.448,1,1,1s1-0.447,1-1V52.707C46.483,53.218,51.24,58.284,51.24,64.448z"
					/>
			</g>
		</g>
	</g>
</g>
</svg>
