<?xml version="1.0" encoding="utf-8"?>
<!-- Generator: Adobe Illustrator 22.0.1, SVG Export Plug-In . SVG Version: 6.00 Build 0)  -->
<svg version="1.1" id="Layer_1" xmlns="http://www.w3.org/2000/svg" xmlns:xlink="http://www.w3.org/1999/xlink" x="0px" y="0px"
	 viewBox="0 0 128 128" style="enable-background:new 0 0 128 128;" xml:space="preserve">
<style type="text/css">
	.st0{fill:#263238;}
	.st1{fill:#E6E7E8;}
	.st2{fill:#FFD7E5;}
	.st3{fill:#0089EF;}
	.st4{fill:#6DC9F7;}
	.st5{fill:#FA759E;}
	.st6{fill:#FFFFFF;}
	.st7{fill:#3A2C60;}
	.st8{fill:#D4FBFF;}
</style>
<g>
	<g>
		<path class="st1" d="M103.149,27.398l-2.682-3.688c-0.96-1.187-1.994-2.34-3.111-3.462l-3.351-3.044
			c-7.709-6.322-17.4-9.89-27.287-10.048c-0.231-0.004-0.463-0.005-0.694-0.005c-24.004,0-44.321,20.268-44.364,44.257
			c-0.024,13.301,5.852,25.793,16.122,34.272c0.427,0.352,1.056,0.292,1.408-0.134s0.292-1.056-0.134-1.408
			c-9.807-8.097-15.418-20.025-15.395-32.726C23.702,28.505,43.103,9.152,66.025,9.152c0.219,0,0.439,0.001,0.66,0.005
			c9.438,0.15,18.69,3.558,26.014,9.562l3.275,2.975c1.032,1.039,2.02,2.141,2.906,3.234l2.622,3.604
			c4.473,6.867,6.837,14.806,6.837,22.958c0,12.774-5.687,24.736-15.602,32.818c-0.428,0.349-0.492,0.979-0.143,1.407
			c0.197,0.243,0.485,0.368,0.775,0.368c0.222,0,0.446-0.074,0.631-0.225c10.383-8.463,16.338-20.99,16.338-34.368
			C110.339,42.95,107.863,34.634,103.149,27.398z"/>
		<path class="st1" d="M103.339,51.491c0-20.264-16.479-37.012-36.733-37.334c-9.928-0.131-19.412,3.682-26.67,10.812
			c-7.253,7.126-11.257,16.521-11.275,26.454c-0.021,11.2,4.929,21.72,13.578,28.861c4.444,3.669,7.724,8.681,9.485,14.494
			l0.533,1.758c-1.079,0.457-1.837,1.526-1.837,2.77v8.84c0,5.35,3.618,10.028,8.712,11.422v0.313c0,2.74,2.229,4.968,4.968,4.968
			h3.799c2.74,0,4.968-2.229,4.968-4.968v-0.314c5.095-1.394,8.712-6.072,8.712-11.421v-8.84c0-1.243-0.759-2.313-1.837-2.77
			l0.664-2.19c1.694-5.592,4.866-10.402,9.171-13.912C98.324,73.305,103.339,62.755,103.339,51.491z"/>
	</g>
	<g>
		<g>
			<g>
				<path class="st8" d="M98.339,47.491c0-19.873-15.952-36.02-35.75-36.335c-19.986-0.318-36.893,16.279-36.929,36.267
					c-0.021,11.31,5.129,21.412,13.215,28.089c4.696,3.877,8.04,9.147,9.806,14.975l0.852,2.811h24.934l0.983-3.244
					c1.702-5.618,4.946-10.687,9.496-14.397C93.118,68.997,98.339,58.856,98.339,47.491z"/>
				<path class="st5" d="M49.426,93.298c-1.108,0-2.006,0.898-2.006,2.006v8.84c0,5.259,3.745,9.639,8.712,10.631v1.104
					c0,2.192,1.777,3.968,3.968,3.968H63.9c2.192,0,3.968-1.777,3.968-3.968v-1.104c4.968-0.992,8.712-5.372,8.712-10.631v-8.84
					c0-1.108-0.898-2.006-2.006-2.006H49.426z"/>
			</g>
		</g>
		<g>
			<path class="st6" d="M78.367,55.506c0,12.459-7.328,25.648-16.367,25.648S45.633,67.965,45.633,55.506S62,27.727,62,27.727
				S78.367,43.047,78.367,55.506z"/>
			<path class="st4" d="M48.633,55.506c0,11.762,6.531,24.167,14.867,25.52c8.336-1.353,14.867-13.758,14.867-25.52
				c0-10.132-10.824-22.156-14.867-26.294C59.457,33.35,48.633,45.374,48.633,55.506z"/>
		</g>
		<g>
			<path class="st7" d="M99.178,23.44c-0.301-0.462-0.921-0.595-1.384-0.292c-0.462,0.301-0.593,0.921-0.292,1.384
				c4.473,6.867,6.837,14.806,6.837,22.958c0,12.774-5.687,24.736-15.602,32.818c-0.428,0.349-0.492,0.979-0.143,1.407
				c0.197,0.243,0.485,0.368,0.775,0.368c0.222,0,0.446-0.074,0.631-0.225c10.383-8.463,16.338-20.99,16.338-34.368
				C106.339,38.95,103.863,30.634,99.178,23.44z"/>
			<path class="st7" d="M94.911,20.969c0.198,0.244,0.487,0.371,0.778,0.371c0.221,0,0.443-0.073,0.628-0.222
				c0.429-0.348,0.496-0.977,0.149-1.407c-0.96-1.187-1.994-2.34-3.074-3.426c-0.39-0.393-1.023-0.395-1.414-0.005
				c-0.392,0.389-0.394,1.022-0.005,1.414C93.006,18.732,93.994,19.834,94.911,20.969z"/>
			<path class="st7" d="M19.661,47.413C19.702,24.505,39.103,5.152,62.025,5.152c0.219,0,0.439,0.001,0.66,0.005
				c9.438,0.15,18.69,3.558,26.052,9.595c0.428,0.35,1.057,0.288,1.408-0.139c0.35-0.427,0.288-1.057-0.139-1.408
				c-7.709-6.322-17.4-9.89-27.287-10.048C38.459,2.772,17.705,23.189,17.661,47.409c-0.024,13.301,5.852,25.793,16.122,34.272
				c0.187,0.154,0.412,0.229,0.636,0.229c0.288,0,0.574-0.124,0.771-0.363c0.352-0.426,0.292-1.056-0.134-1.408
				C25.249,72.042,19.638,60.114,19.661,47.413z"/>
			<path class="st7" d="M99.339,47.491c0-20.264-16.479-37.012-36.733-37.334c-9.939-0.142-19.412,3.682-26.67,10.812
				c-7.253,7.126-11.257,16.521-11.275,26.454c-0.021,11.2,4.929,21.72,13.578,28.861c4.444,3.669,7.724,8.681,9.485,14.494
				l0.533,1.758c-1.079,0.457-1.837,1.526-1.837,2.77v8.84c0,5.35,3.618,10.028,8.712,11.422v0.313c0,2.74,2.229,4.968,4.968,4.968
				h3.799c2.74,0,4.968-2.229,4.968-4.968v-0.314c5.095-1.394,8.712-6.072,8.712-11.421v-8.84c0-1.243-0.759-2.313-1.837-2.77
				l0.664-2.19c1.694-5.592,4.866-10.402,9.171-13.912C94.324,69.305,99.339,58.755,99.339,47.491z M46.887,52.83L61,67.228v9.098
				L47.407,62.457c-0.5-2.311-0.774-4.668-0.774-6.951C46.633,54.629,46.726,53.734,46.887,52.83z M63,71.253l14.028-11.198
				C75.635,69.701,70.051,79.251,63,80.088V71.253z M77.311,57.269L63,68.693v-9.619l12.763-10.8
				c0.988,2.441,1.604,4.897,1.604,7.232C77.367,56.09,77.345,56.678,77.311,57.269z M63,56.455V42.662l6.244-5.283
				c2.066,2.701,4.14,5.799,5.676,8.99L63,56.455z M63,40.042v-9.904c1.255,1.298,3.077,3.275,5.007,5.667L63,40.042z M61,47.958
				l-8.007-8.169c2.903-4.163,6.106-7.684,8.007-9.651V47.958z M51.853,41.483L61,50.816V64.37L47.436,50.532
				C48.359,47.467,49.99,44.36,51.853,41.483z M61,79.183v0.904c-5.466-0.649-10.051-6.533-12.485-13.642L61,79.183z M74.467,94.298
				h0.107c0.555,0,1.006,0.452,1.006,1.006v4.136H48.42v-4.136c0-0.555,0.452-1.006,1.006-1.006h0.107H74.467z M75.58,104.145
				c0,0.748-0.094,1.476-0.255,2.182h-26.65c-0.161-0.706-0.255-1.435-0.255-2.182v-2.704h27.16V104.145z M67.672,113.795
				l-0.804,0.16v1.925c0,1.637-1.332,2.968-2.968,2.968h-3.799c-1.637,0-2.968-1.332-2.968-2.968v-1.924l-0.804-0.16
				c-3.129-0.625-5.67-2.716-6.968-5.469h25.28C73.342,111.079,70.801,113.17,67.672,113.795z M84.314,74.883
				c-4.615,3.762-8.011,8.908-9.822,14.881l-0.768,2.534H63V82.103C72.434,81.2,79.367,67.66,79.367,55.506
				c0-12.747-16.002-27.872-16.684-28.51L62,26.357l-0.684,0.64c-0.681,0.638-16.684,15.763-16.684,28.51
				C44.633,67.66,51.566,81.2,61,82.103v10.195H50.275l-0.637-2.101c-1.876-6.191-5.377-11.536-10.126-15.456
				c-8.187-6.76-12.871-16.716-12.852-27.315c0.017-9.394,3.809-18.283,10.677-25.031c6.873-6.752,15.874-10.384,25.236-10.239
				c19.17,0.305,34.766,16.156,34.766,35.334C97.339,58.152,92.592,68.136,84.314,74.883z"/>
		</g>
	</g>
</g>
</svg>
