<?xml version="1.0" encoding="utf-8"?>
<!-- Generator: Adobe Illustrator 22.0.1, SVG Export Plug-In . SVG Version: 6.00 Build 0)  -->
<svg version="1.1" id="Layer_1" xmlns="http://www.w3.org/2000/svg" xmlns:xlink="http://www.w3.org/1999/xlink" x="0px" y="0px"
	 viewBox="0 0 128 128" style="enable-background:new 0 0 128 128;" xml:space="preserve">
<style type="text/css">
	.st0{fill:#263238;}
	.st1{fill:#E6E7E8;}
	.st2{fill:#FFD7E5;}
	.st3{fill:#0089EF;}
	.st4{fill:#6DC9F7;}
	.st5{fill:#FA759E;}
	.st6{fill:#FFFFFF;}
	.st7{fill:#3A2C60;}
	.st8{fill:#D4FBFF;}
</style>
<g>
	<path class="st1" d="M111.872,8.815H20.128c-6.237,0-11.313,5.075-11.313,11.313v91.744c0,6.237,5.075,11.313,11.313,11.313h91.744
		c6.237,0,11.313-5.075,11.313-11.313V20.128C123.185,13.891,118.109,8.815,111.872,8.815z"/>
	<g>
		<g>
			<path class="st4" d="M107.872,118.185H16.128c-5.687,0-10.313-4.626-10.313-10.313V16.128c0-5.687,4.626-10.313,10.313-10.313
				h91.744c5.687,0,10.313,4.626,10.313,10.313v91.744C118.185,113.559,113.559,118.185,107.872,118.185z"/>
		</g>
		<path class="st6" d="M16.128,11.815c-2.378,0-4.313,1.935-4.313,4.313v91.744c0,2.378,1.935,4.313,4.313,4.313h91.744
			c2.378,0,4.313-1.935,4.313-4.313V16.128c0-2.378-1.935-4.313-4.313-4.313H16.128z"/>
		<path class="st8" d="M107.872,14.815H16.128c-2.378,0-4.313,1.935-4.313,4.313v88.744c0,2.378,1.935,4.313,4.313,4.313h91.744
			c2.378,0,4.313-1.935,4.313-4.313V19.128C112.185,16.75,110.25,14.815,107.872,14.815z"/>
		<g>
			<path class="st6" d="M102.566,62c0,0-18.162,21.015-40.566,21.015S21.434,62,21.434,62S39.596,40.985,62,40.985
				S102.566,62,102.566,62z"/>
			<circle class="st8" cx="62" cy="62" r="18.5"/>
			<path class="st4" d="M62.014,77.904H62c-2.102,0-4.144-0.404-6.069-1.2l1.91-4.621c1.317,0.545,2.717,0.821,4.159,0.821
				L62.014,77.904z M68.099,76.692l-1.92-4.617c1.326-0.551,2.516-1.348,3.535-2.368l3.537,3.533
				C71.766,74.728,70.032,75.889,68.099,76.692z M50.771,73.263c-1.489-1.485-2.652-3.218-3.456-5.149l4.615-1.922
				c0.552,1.323,1.35,2.512,2.372,3.532L50.771,73.263z M76.698,68.084l-4.619-1.912c0.541-1.308,0.818-2.693,0.825-4.12
				l-0.001-0.107l5,0.006C77.904,64.105,77.499,66.152,76.698,68.084z M51.083,62.249l-2.218-0.222h-2.771L46.096,62
				c0-2.095,0.402-4.132,1.194-6.056l4.623,1.906c-0.542,1.315-0.817,2.711-0.817,4.149L51.083,62.249z M72.06,57.787
				c-0.553-1.321-1.352-2.508-2.377-3.524l3.523-3.549c1.493,1.483,2.659,3.214,3.467,5.144L72.06,57.787z M54.27,54.309
				l-3.545-3.525c1.481-1.49,3.213-2.655,5.146-3.463l1.928,4.613C56.474,52.487,55.287,53.286,54.27,54.309z M66.139,51.908
				c-1.293-0.531-2.664-0.805-4.077-0.813l-0.104,0.001v-2.591l-0.124-2.404L62,46.096c2.09,0,4.121,0.399,6.039,1.188
				L66.139,51.908z M61.958,48.506v0.091V48.506z"/>
			<circle class="st3" cx="62" cy="62" r="8.681"/>
			<circle class="st6" cx="66.501" cy="57.72" r="3.723"/>
		</g>
		<rect x="11.815" y="71.915" class="st5" width="100.369" height="4.17"/>
		<g>
			<g>
				<g>
					<path class="st5" d="M19.997,35.724c-1.104,0-2-0.896-2-2V23.635c0-3.092,2.516-5.607,5.607-5.607h9.918c1.104,0,2,0.896,2,2
						s-0.896,2-2,2h-9.918c-0.887,0-1.607,0.721-1.607,1.607v10.089C21.997,34.828,21.101,35.724,19.997,35.724z"/>
				</g>
				<path class="st5" d="M104.003,35.724c1.104,0,2-0.896,2-2V23.635c0-3.092-2.516-5.607-5.607-5.607h-9.918c-1.104,0-2,0.896-2,2
					s0.896,2,2,2h9.918c0.887,0,1.607,0.721,1.607,1.607v10.089C102.003,34.828,102.899,35.724,104.003,35.724z"/>
			</g>
			<g>
				<path class="st5" d="M104.003,88.276c1.104,0,2,0.896,2,2v10.089c0,3.092-2.516,5.607-5.607,5.607h-9.918c-1.104,0-2-0.896-2-2
					s0.896-2,2-2h9.918c0.887,0,1.607-0.721,1.607-1.607V90.276C102.003,89.172,102.899,88.276,104.003,88.276z"/>
				<path class="st5" d="M19.997,88.276c-1.104,0-2,0.896-2,2v10.089c0,3.092,2.516,5.607,5.607,5.607h9.918c1.104,0,2-0.896,2-2
					s-0.896-2-2-2h-9.918c-0.887,0-1.607-0.721-1.607-1.607V90.276C21.997,89.172,21.101,88.276,19.997,88.276z"/>
			</g>
		</g>
		<g>
			<path class="st7" d="M89.746,71.915h3.478c6.026-4.614,9.764-8.873,10.099-9.261c0.324-0.376,0.324-0.933,0-1.309
				c-0.754-0.872-18.722-21.36-41.323-21.36s-40.569,20.488-41.323,21.36c-0.324,0.376-0.324,0.933,0,1.309
				c0.335,0.387,4.073,4.647,10.099,9.261h3.485c-5.864-4.143-9.999-8.336-11.475-9.915C26.073,58.479,42.521,41.985,62,41.985
				c19.463,0,35.925,16.496,39.214,20.015C99.739,63.58,95.607,67.773,89.746,71.915z"/>
			<path class="st7" d="M62,82.015c-7.704,0-14.934-2.588-21.067-5.93h-4.11c6.941,4.281,15.643,7.93,25.177,7.93
				s18.237-3.648,25.177-7.93h-4.102C76.943,79.427,69.711,82.015,62,82.015z"/>
			<path class="st7" d="M62,79.5c-3.871,0-7.44-1.279-10.342-3.415h-3.107C52.054,79.431,56.786,81.5,62,81.5
				s9.946-2.069,13.449-5.415h-3.107C69.44,78.221,65.871,79.5,62,79.5z"/>
			<path class="st7" d="M78.761,71.915C80.489,69.005,81.5,65.622,81.5,62c0-10.752-8.748-19.5-19.5-19.5S42.5,51.248,42.5,62
				c0,3.622,1.011,7.005,2.739,9.915h2.357C45.648,69.094,44.5,65.68,44.5,62c0-9.649,7.851-17.5,17.5-17.5S79.5,52.351,79.5,62
				c0,3.68-1.148,7.094-3.096,9.915H78.761z"/>
			<path class="st7" d="M118.185,79.191c-0.553,0-1,0.447-1,1v5.447c0,0.553,0.447,1,1,1s1-0.447,1-1v-5.447
				C119.185,79.639,118.737,79.191,118.185,79.191z"/>
			<path class="st7" d="M107.872,4.815H16.128c-6.237,0-11.313,5.075-11.313,11.313v91.744c0,6.237,5.075,11.313,11.313,11.313
				h91.744c6.237,0,11.313-5.075,11.313-11.313V91.426c0-0.553-0.447-1-1-1s-1,0.447-1,1v16.446c0,5.135-4.178,9.313-9.313,9.313
				H16.128c-5.135,0-9.313-4.178-9.313-9.313V16.128c0-5.135,4.178-9.313,9.313-9.313h91.744c5.135,0,9.313,4.178,9.313,9.313
				v58.723c0,0.553,0.447,1,1,1s1-0.447,1-1V16.128C119.185,9.891,114.109,4.815,107.872,4.815z"/>
			<path class="st7" d="M19.997,36.724c1.654,0,3-1.346,3-3V23.635c0-0.335,0.272-0.607,0.607-0.607h9.918c1.654,0,3-1.346,3-3
				s-1.346-3-3-3h-9.918c-3.644,0-6.607,2.964-6.607,6.607v10.089C16.997,35.378,18.343,36.724,19.997,36.724z M18.997,23.635
				c0-2.541,2.066-4.607,4.607-4.607h9.918c0.552,0,1,0.448,1,1s-0.448,1-1,1h-9.918c-1.438,0-2.607,1.17-2.607,2.607v10.089
				c0,0.552-0.448,1-1,1s-1-0.448-1-1V23.635z"/>
			<path class="st7" d="M100.396,17.027h-9.918c-1.654,0-3,1.346-3,3s1.346,3,3,3h9.918c0.335,0,0.607,0.272,0.607,0.607v10.089
				c0,1.654,1.346,3,3,3s3-1.346,3-3V23.635C107.003,19.991,104.039,17.027,100.396,17.027z M105.003,33.724c0,0.552-0.448,1-1,1
				s-1-0.448-1-1V23.635c0-1.438-1.17-2.607-2.607-2.607h-9.918c-0.552,0-1-0.448-1-1s0.448-1,1-1h9.918
				c2.541,0,4.607,2.066,4.607,4.607V33.724z"/>
			<path class="st7" d="M104.003,87.276c-1.654,0-3,1.346-3,3v10.089c0,0.335-0.272,0.607-0.607,0.607h-9.918c-1.654,0-3,1.346-3,3
				s1.346,3,3,3h9.918c3.644,0,6.607-2.964,6.607-6.607V90.276C107.003,88.622,105.657,87.276,104.003,87.276z M105.003,100.365
				c0,2.541-2.066,4.607-4.607,4.607h-9.918c-0.552,0-1-0.448-1-1s0.448-1,1-1h9.918c1.438,0,2.607-1.17,2.607-2.607V90.276
				c0-0.552,0.448-1,1-1s1,0.448,1,1V100.365z"/>
			<path class="st7" d="M33.522,100.973h-9.918c-0.335,0-0.607-0.272-0.607-0.607V90.276c0-1.654-1.346-3-3-3s-3,1.346-3,3v10.089
				c0,3.644,2.964,6.607,6.607,6.607h9.918c1.654,0,3-1.346,3-3S35.177,100.973,33.522,100.973z M33.522,104.973h-9.918
				c-2.541,0-4.607-2.066-4.607-4.607V90.276c0-0.552,0.448-1,1-1s1,0.448,1,1v10.089c0,1.438,1.17,2.607,2.607,2.607h9.918
				c0.552,0,1,0.448,1,1S34.074,104.973,33.522,104.973z"/>
			<path class="st7" d="M16.128,10.815c-2.93,0-5.313,2.383-5.313,5.313v91.744c0,2.93,2.383,5.313,5.313,5.313h91.744
				c2.93,0,5.313-2.383,5.313-5.313V16.128c0-2.93-2.383-5.313-5.313-5.313H16.128z M111.185,16.128v91.744
				c0,1.826-1.486,3.313-3.313,3.313H16.128c-1.826,0-3.313-1.486-3.313-3.313V16.128c0-1.826,1.486-3.313,3.313-3.313h91.744
				C109.698,12.815,111.185,14.302,111.185,16.128z"/>
		</g>
	</g>
</g>
</svg>
