<?xml version="1.0" encoding="utf-8"?>
<!-- Generator: Adobe Illustrator 22.0.1, SVG Export Plug-In . SVG Version: 6.00 Build 0)  -->
<svg version="1.1" id="Layer_1" xmlns="http://www.w3.org/2000/svg" xmlns:xlink="http://www.w3.org/1999/xlink" x="0px" y="0px"
	 viewBox="0 0 128 128" style="enable-background:new 0 0 128 128;" xml:space="preserve">
<style type="text/css">
	.st0{fill:#263238;}
	.st1{fill:#E6E7E8;}
	.st2{fill:#FFD7E5;}
	.st3{fill:#0089EF;}
	.st4{fill:#6DC9F7;}
	.st5{fill:#FA759E;}
	.st6{fill:#FFFFFF;}
	.st7{fill:#3A2C60;}
	.st8{fill:#D4FBFF;}
</style>
<g>
	<path class="st1" d="M103.095,37.598H74.83c-0.553,0-5.597,0-6.149,0h-8.148c-0.553,0-4.682,0-5.234,0H28.905
		c-8.372,0-15.184,6.812-15.184,15.185v26.436c0,8.373,6.812,15.185,15.184,15.185h74.189c8.372,0,15.184-6.812,15.184-15.185
		V52.782C118.278,44.409,111.467,37.598,103.095,37.598z"/>
	<g>
		<path class="st6" d="M99.094,89.402H24.906c-7.834,0-14.184-6.351-14.184-14.184V48.782c0-7.834,6.351-14.184,14.184-14.184
			h74.189c7.834,0,14.184,6.351,14.184,14.184v26.436C113.279,83.052,106.928,89.402,99.094,89.402z"/>
		<path class="st4" d="M99.094,34.598H24.906c-7.834,0-14.184,6.351-14.184,14.184v23.436c0,7.834,6.35,14.184,14.184,14.184h74.189
			c7.834,0,14.184-6.351,14.184-14.184V48.782C113.279,40.948,106.928,34.598,99.094,34.598z"/>
		<path class="st2" d="M83.792,80.693H40.208c-1.772,0-3.208-1.436-3.208-3.208V46.515c0-1.772,1.436-3.208,3.208-3.208h43.584
			c1.772,0,3.208,1.436,3.208,3.208v30.969C87,79.256,85.564,80.693,83.792,80.693z"/>
		<g>
			<path class="st5" d="M30.302,60.265h-3.535V56.73c0-1.299-1.053-2.352-2.352-2.352s-2.352,1.053-2.352,2.352v3.536h-3.535
				c-1.299,0-2.352,1.053-2.352,2.352c0,1.299,1.053,2.352,2.352,2.352h3.535v3.536c0,1.299,1.053,2.352,2.352,2.352
				s2.352-1.053,2.352-2.352v-3.536h3.535c1.299,0,2.352-1.053,2.352-2.352C32.654,61.318,31.601,60.265,30.302,60.265z"/>
			<g>
				<g>
					<circle class="st5" cx="99.514" cy="57" r="2.955"/>
					<circle class="st5" cx="99.514" cy="68.291" r="2.955"/>
				</g>
				<g>
					<circle class="st5" cx="105.159" cy="62.645" r="2.955"/>
					<g>
						<circle class="st5" cx="93.868" cy="62.645" r="2.955"/>
						<g>
							<path class="st7" d="M99.095,33.598H70.83c-0.553,0-1,0.447-1,1s0.447,1,1,1h28.265c7.27,0,13.184,5.915,13.184,13.185
								v26.436c0,7.27-5.914,13.185-13.184,13.185H24.906c-7.27,0-13.185-5.915-13.185-13.185V48.782
								c0-7.27,5.915-13.185,13.185-13.185h26.392c0.553,0,1-0.447,1-1s-0.447-1-1-1H24.906c-8.373,0-15.185,6.812-15.185,15.185
								v26.436c0,8.373,6.812,15.185,15.185,15.185h74.188c8.372,0,15.184-6.812,15.184-15.185V48.782
								C114.278,40.409,107.467,33.598,99.095,33.598z"/>
							<path class="st7" d="M56.532,35.598h8.148c0.553,0,1-0.447,1-1s-0.447-1-1-1h-8.148c-0.553,0-1,0.447-1,1
								S55.979,35.598,56.532,35.598z"/>
							<path class="st7" d="M36,46.516v30.969c0,2.32,1.888,4.208,4.208,4.208h43.584c2.32,0,4.208-1.888,4.208-4.208V46.516
								c0-2.32-1.888-4.208-4.208-4.208H40.208C37.888,42.308,36,44.195,36,46.516z M86,46.516v30.969
								c0,1.218-0.99,2.208-2.208,2.208H40.208c-1.218,0-2.208-0.99-2.208-2.208V46.516c0-1.218,0.99-2.208,2.208-2.208h43.584
								C85.01,44.308,86,45.298,86,46.516z"/>
							<path class="st7" d="M24.415,71.856c1.848,0,3.352-1.504,3.352-3.353v-2.535h2.535c1.848,0,3.352-1.504,3.352-3.352
								c0-1.848-1.504-3.352-3.352-3.352h-2.535V56.73c0-1.848-1.504-3.352-3.352-3.352s-3.352,1.504-3.352,3.352v2.536h-2.536
								c-1.848,0-3.352,1.504-3.352,3.352c0,1.848,1.504,3.352,3.352,3.352h2.536v2.535C21.063,70.353,22.567,71.856,24.415,71.856z
								 M18.527,63.969c-0.745,0-1.352-0.606-1.352-1.352s0.606-1.352,1.352-1.352h3.536c0.553,0,1-0.447,1-1V56.73
								c0-0.745,0.606-1.352,1.352-1.352s1.352,0.606,1.352,1.352v3.536c0,0.553,0.447,1,1,1h3.535c0.745,0,1.352,0.606,1.352,1.352
								s-0.606,1.352-1.352,1.352h-3.535c-0.553,0-1,0.447-1,1v3.535c0,0.746-0.606,1.353-1.352,1.353s-1.352-0.606-1.352-1.353
								v-3.535c0-0.553-0.447-1-1-1H18.527z"/>
							<path class="st7" d="M99.514,53.045c-2.181,0-3.955,1.774-3.955,3.955s1.774,3.955,3.955,3.955s3.955-1.774,3.955-3.955
								S101.694,53.045,99.514,53.045z M99.514,58.955c-1.078,0-1.955-0.877-1.955-1.955s0.877-1.955,1.955-1.955
								s1.955,0.877,1.955,1.955S100.592,58.955,99.514,58.955z"/>
							<path class="st7" d="M99.514,64.336c-2.181,0-3.955,1.774-3.955,3.955s1.774,3.955,3.955,3.955s3.955-1.774,3.955-3.955
								S101.694,64.336,99.514,64.336z M99.514,70.246c-1.078,0-1.955-0.877-1.955-1.955s0.877-1.955,1.955-1.955
								s1.955,0.877,1.955,1.955S100.592,70.246,99.514,70.246z"/>
							<path class="st7" d="M109.114,62.646c0-2.181-1.774-3.955-3.955-3.955s-3.955,1.774-3.955,3.955
								c0,2.181,1.774,3.955,3.955,3.955S109.114,64.826,109.114,62.646z M103.204,62.646c0-1.078,0.877-1.955,1.955-1.955
								s1.955,0.877,1.955,1.955s-0.877,1.955-1.955,1.955S103.204,63.724,103.204,62.646z"/>
							<path class="st7" d="M89.913,62.646c0,2.181,1.774,3.955,3.955,3.955s3.955-1.774,3.955-3.955
								c0-2.181-1.774-3.955-3.955-3.955S89.913,60.465,89.913,62.646z M95.823,62.646c0,1.078-0.877,1.955-1.955,1.955
								s-1.955-0.877-1.955-1.955s0.877-1.955,1.955-1.955S95.823,61.567,95.823,62.646z"/>
						</g>
					</g>
				</g>
			</g>
		</g>
	</g>
</g>
</svg>
