<?xml version="1.0" encoding="utf-8"?>
<!-- Generator: Adobe Illustrator 22.0.1, SVG Export Plug-In . SVG Version: 6.00 Build 0)  -->
<svg version="1.1" id="Layer_1" xmlns="http://www.w3.org/2000/svg" xmlns:xlink="http://www.w3.org/1999/xlink" x="0px" y="0px"
	 viewBox="0 0 128 128" style="enable-background:new 0 0 128 128;" xml:space="preserve">
<style type="text/css">
	.st0{fill:#263238;}
	.st1{fill:#E6E7E8;}
	.st2{fill:#FFD7E5;}
	.st3{fill:#0089EF;}
	.st4{fill:#6DC9F7;}
	.st5{fill:#FA759E;}
	.st6{fill:#FFFFFF;}
	.st7{fill:#3A2C60;}
	.st8{fill:#D4FBFF;}
</style>
<g>
	<path class="st1" d="M100.969,109.76c13.306-10.415,21.882-26.607,21.882-44.775c0-31.348-25.503-56.851-56.851-56.851
		S9.149,33.638,9.149,64.985S34.652,121.836,66,121.836c10.178,0,19.732-2.702,28.005-7.407l5.419,7.663
		c0.646,0.914,1.61,1.522,2.713,1.711c0.239,0.041,0.479,0.062,0.717,0.062c0.859,0,1.696-0.264,2.411-0.771
		c0.914-0.646,1.521-1.609,1.711-2.713c0.189-1.103-0.063-2.214-0.709-3.128L100.969,109.76z"/>
	<g>
		<g>
			<path class="st4" d="M86.375,103.564l-5.492,5.933c-0.996,1.076-2.79,0.604-3.128-0.823l-6.92-29.285
				c-0.428-1.813,1.569-3.225,3.135-2.217l25.305,16.283c1.233,0.794,1.081,2.643-0.266,3.223l-7.424,3.202l4.033,5.703
				c13.503-10.195,22.233-26.375,22.233-44.597C117.851,30.14,92.846,5.134,62,5.134S6.149,30.14,6.149,60.985
				c0,30.846,25.005,55.851,55.851,55.851c10.334,0,20.005-2.818,28.308-7.71L86.375,103.564z"/>
		</g>
		<path class="st8" d="M70.834,79.389c-0.428-1.813,1.569-3.225,3.135-2.217l22.433,14.435c7.25-8.14,11.662-18.863,11.662-30.621
			c0-25.44-20.623-46.064-46.064-46.064S15.936,35.545,15.936,60.985c0,25.44,20.623,46.064,46.064,46.064
			c5.177,0,10.149-0.867,14.793-2.442L70.834,79.389z"/>
		<path class="st6" d="M99.275,93.455L73.969,77.171c-1.567-1.008-3.564,0.404-3.135,2.217l6.92,29.285
			c0.337,1.427,2.131,1.9,3.128,0.823l5.492-5.933l9.867,13.952c1.017,1.439,3.009,1.78,4.447,0.763l0,0
			c1.439-1.017,1.78-3.009,0.763-4.447L91.585,99.88l7.424-3.202C100.356,96.097,100.508,94.248,99.275,93.455z"/>
		<path class="st5" d="M81.056,109.309l5.318-5.745l9.867,13.952c1.017,1.439,3.009,1.78,4.447,0.763
			c1.439-1.017,1.78-3.009,0.763-4.447L91.585,99.88l7.424-3.202c1.347-0.581,1.499-2.43,0.266-3.223L74.392,77.444
			c-0.48,0.471-0.741,1.17-0.558,1.945l6.92,29.285C80.812,108.918,80.924,109.123,81.056,109.309z"/>
		<g>
			<path class="st7" d="M106.954,92.423c-0.903,1.288-1.875,2.555-2.881,3.756l-0.875,1.02c-0.36,0.419-0.312,1.05,0.107,1.41
				c0.188,0.162,0.42,0.241,0.651,0.241c0.282,0,0.562-0.118,0.759-0.349l0.883-1.029c1.051-1.254,2.058-2.567,2.993-3.902
				c0.317-0.452,0.208-1.076-0.245-1.393C107.895,91.861,107.27,91.971,106.954,92.423z"/>
			<path class="st7" d="M62,4.134c-31.348,0-56.851,25.503-56.851,56.851S30.652,117.836,62,117.836
				c9.963,0,19.561-2.575,28.023-7.382l5.402,7.639c0.646,0.914,1.61,1.522,2.713,1.711c0.239,0.041,0.479,0.062,0.717,0.062
				c0.859,0,1.696-0.264,2.411-0.771c0.914-0.646,1.521-1.609,1.711-2.713c0.189-1.103-0.063-2.214-0.709-3.128l-5.294-7.487
				c1.57-1.225,3.1-2.515,4.55-3.917c0.397-0.384,0.407-1.017,0.023-1.414c-0.385-0.397-1.017-0.407-1.414-0.023
				c-1.376,1.331-2.826,2.555-4.315,3.72l-2.704-3.824l6.291-2.713c0.963-0.416,1.615-1.322,1.701-2.368
				c0.086-1.045-0.408-2.047-1.29-2.615l-1.931-1.243c6.96-8.206,11.179-18.807,11.179-30.386c0-25.951-21.113-47.064-47.064-47.064
				S14.936,35.034,14.936,60.985S36.049,108.049,62,108.049c4.901,0,9.621-0.773,14.066-2.171l0.715,3.025
				c0.241,1.021,1.021,1.821,2.036,2.087c1.014,0.267,2.087-0.045,2.799-0.815l4.655-5.028l2.593,3.667
				c-8.122,4.575-17.32,7.021-26.864,7.021c-30.245,0-54.851-24.606-54.851-54.851S31.755,6.134,62,6.134
				s54.851,24.606,54.851,54.851c0,9.566-2.499,18.982-7.227,27.232c-0.274,0.479-0.109,1.09,0.371,1.365
				c0.479,0.275,1.09,0.109,1.365-0.371c4.901-8.552,7.491-18.313,7.491-28.227C118.851,29.638,93.348,4.134,62,4.134z
				 M87.927,84.964h12.199c-1.181,1.871-2.499,3.646-3.934,5.318L87.927,84.964z M16.961,61.985h19.646
				c0.086,7.563,1.136,14.691,2.936,20.979H22.68C19.182,76.731,17.128,69.588,16.961,61.985z M22.68,39.007h16.864
				c-1.801,6.288-2.85,13.416-2.936,20.979H16.961C17.128,52.383,19.182,45.24,22.68,39.007z M107.039,59.985H87.393
				c-0.086-7.563-1.136-14.691-2.936-20.979h16.864C104.818,45.24,106.872,52.383,107.039,59.985z M101.324,82.964H84.819
				l-0.317-0.204c1.767-6.24,2.801-13.29,2.887-20.774h19.652C106.873,69.588,104.823,76.732,101.324,82.964z M85.393,59.985H63
				V39.007h19.423C84.24,45.24,85.306,52.383,85.393,59.985z M63,37.007V15.97c7.915,0.644,14.821,8.891,18.803,21.037H63z
				 M61,37.007H42.197C46.179,24.861,53.085,16.615,61,15.97V37.007z M61,39.007v20.979H38.607
				c0.087-7.603,1.153-14.745,2.97-20.979H61z M38.607,61.985H61v20.979H41.577C39.76,76.731,38.694,69.588,38.607,61.985z
				 M61,84.964V106c-7.915-0.644-14.821-8.891-18.803-21.037H61z M63,84.964h8.124l3.341,14.137
				c-3.347,4.073-7.264,6.562-11.465,6.905V84.964z M71.077,76.405c-1.028,0.727-1.505,1.988-1.216,3.213l0.791,3.345H63V61.985
				h22.39c-0.081,7.077-1.014,13.75-2.608,19.667l-8.271-5.322C73.452,75.649,72.104,75.679,71.077,76.405z M100.127,37.007H83.85
				c-2.971-9.256-7.604-16.479-13.134-20.232C83.071,19.207,93.624,26.704,100.127,37.007z M53.284,16.775
				c-5.53,3.753-10.162,10.976-13.134,20.232H23.873C30.376,26.704,40.929,19.207,53.284,16.775z M23.873,84.964H40.15
				c2.971,9.256,7.604,16.479,13.134,20.232C40.929,102.764,30.376,95.267,23.873,84.964z M70.702,105.189
				c1.505-1.022,2.945-2.296,4.303-3.802l0.6,2.54C74.007,104.436,72.371,104.859,70.702,105.189z M86.44,102.566
				c-0.022-0.001-0.043-0.002-0.065-0.002c-0.278,0-0.544,0.116-0.734,0.321l-5.493,5.933c-0.306,0.332-0.676,0.277-0.822,0.239
				c-0.145-0.038-0.494-0.174-0.598-0.613l-6.92-29.285c-0.154-0.652,0.286-1.022,0.424-1.12c0.138-0.098,0.632-0.389,1.197-0.026
				l25.306,16.283c0.379,0.244,0.391,0.619,0.379,0.769c-0.013,0.149-0.086,0.517-0.5,0.695l-7.424,3.202
				c-0.277,0.12-0.485,0.357-0.567,0.648c-0.082,0.29-0.028,0.602,0.146,0.848l9.867,13.952c0.338,0.478,0.469,1.059,0.371,1.636
				c-0.099,0.577-0.417,1.08-0.894,1.418c-0.478,0.338-1.06,0.471-1.636,0.371c-0.577-0.099-1.081-0.417-1.418-0.894l-9.867-13.953
				C87.017,102.74,86.741,102.586,86.44,102.566z"/>
		</g>
	</g>
</g>
</svg>
