<?xml version="1.0" encoding="utf-8"?>
<!-- Generator: Adobe Illustrator 22.0.1, SVG Export Plug-In . SVG Version: 6.00 Build 0)  -->
<svg version="1.1" id="Layer_1" xmlns="http://www.w3.org/2000/svg" xmlns:xlink="http://www.w3.org/1999/xlink" x="0px" y="0px"
	 viewBox="0 0 128 128" style="enable-background:new 0 0 128 128;" xml:space="preserve">
<style type="text/css">
	.st0{fill:#263238;}
	.st1{fill:#E6E7E8;}
	.st2{fill:#FFD7E5;}
	.st3{fill:#0089EF;}
	.st4{fill:#6DC9F7;}
	.st5{fill:#FA759E;}
	.st6{fill:#FFFFFF;}
	.st7{fill:#3A2C60;}
	.st8{fill:#D4FBFF;}
</style>
<g>
	<path class="st1" d="M112.635,95.084V28.252c0-4.805-3.374-8.831-7.875-9.85v-3.213c0-5.047-4.106-9.153-9.153-9.153H45.981
		c-0.023,0-0.044,0.012-0.066,0.013c-0.087,0.006-0.17,0.022-0.252,0.05c-0.034,0.011-0.066,0.02-0.098,0.035
		c-0.106,0.049-0.207,0.11-0.292,0.196L17.776,33.99c-0.085,0.086-0.146,0.187-0.195,0.293c-0.014,0.031-0.022,0.062-0.033,0.094
		c-0.028,0.084-0.045,0.168-0.051,0.256c-0.001,0.021-0.012,0.041-0.012,0.062v77.243c0,5.046,4.106,9.152,9.152,9.152h9.294
		c1.791,2.842,4.949,4.739,8.548,4.739h42.689c0.448,0.085,0.908,0.134,1.38,0.134h18.558c4.084,0,7.408-3.323,7.408-7.408V99.998
		C114.515,98.111,113.8,96.393,112.635,95.084z"/>
	<g>
		<g>
			<g>
				<path class="st4" d="M103.107,89.589c1.764,0,3.367,0.722,4.529,1.886V24.252c0-4.59-3.445-8.405-7.875-9.013v74.35H103.107z"/>
				<path class="st4" d="M78.337,116.094H32.5c1.553,2.816,4.552,4.736,7.98,4.736h42.771
					C80.844,120.329,78.928,118.466,78.337,116.094z"/>
			</g>
			<g>
				<g>
					<path class="st6" d="M78.141,114.555V95.997c0-3.524,2.884-6.408,6.408-6.408h15.212V11.188c0-4.503-3.655-8.148-8.157-8.148
						H41.986L14.483,30.699v77.237c0,4.503,3.655,8.157,8.157,8.157h55.696C78.213,115.6,78.141,115.086,78.141,114.555z"/>
					<path class="st8" d="M78.141,114.555V95.997c0-3.524,2.884-6.408,6.408-6.408h15.212V14.112c0-4.503-3.655-8.148-8.157-8.148
						H41.986L14.483,33.623v74.313c0,4.503,3.655,8.157,8.157,8.157h55.696C78.213,115.6,78.141,115.086,78.141,114.555z"/>
					<path class="st4" d="M41.986,3.037v19.502c0,4.503-3.655,8.157-8.157,8.157H14.483L41.986,3.037z"/>
				</g>
			</g>
			<g>
				<path class="st4" d="M31.006,78.166h-5.355c-0.473,0-0.857,0.384-0.857,0.857v23.4c0,0.473,0.384,0.857,0.857,0.857h5.355
					c0.473,0,0.857-0.384,0.857-0.857v-23.4C31.863,78.55,31.48,78.166,31.006,78.166z"/>
				<path class="st4" d="M40.594,71.841h-5.355c-0.473,0-0.857,0.384-0.857,0.857v29.725c0,0.473,0.384,0.857,0.857,0.857h5.355
					c0.473,0,0.857-0.384,0.857-0.857V72.698C41.451,72.225,41.067,71.841,40.594,71.841z"/>
				<path class="st4" d="M50.182,83.375h-5.355c-0.473,0-0.857,0.384-0.857,0.857v18.191c0,0.473,0.384,0.857,0.857,0.857h5.355
					c0.473,0,0.857-0.384,0.857-0.857V84.232C51.039,83.759,50.655,83.375,50.182,83.375z"/>
			</g>
			<g>
				<path class="st6" d="M83.812,82.955v6.68c0.242-0.028,0.487-0.046,0.737-0.046h4.09v-6.634c0-6.128-4.986-11.114-11.114-11.114
					h-3.153c-6.128,0-11.114,4.986-11.114,11.114v9.9c0,1.333,1.08,2.413,2.413,2.413s2.413-1.08,2.413-2.413v-9.9
					c0-3.467,2.82-6.287,6.287-6.287h3.153C80.992,76.668,83.812,79.488,83.812,82.955z"/>
				<path class="st5" d="M103.107,89.589H84.549c-3.524,0-6.408,2.884-6.408,6.408v18.558c0,3.524,2.884,6.408,6.408,6.408h18.558
					c3.524,0,6.408-2.884,6.408-6.408V95.997C109.515,92.473,106.631,89.589,103.107,89.589z"/>
				<g>
					<path class="st7" d="M99.76,33.4c0.552,0,1-0.448,1-1v-6.359c0-0.552-0.448-1-1-1s-1,0.448-1,1V32.4
						C98.76,32.952,99.208,33.4,99.76,33.4z"/>
					<path class="st7" d="M25.417,41.77h63.305c0.552,0,1-0.448,1-1s-0.448-1-1-1H25.417c-0.552,0-1,0.448-1,1
						S24.864,41.77,25.417,41.77z"/>
					<path class="st7" d="M25.417,50.765h63.305c0.552,0,1-0.448,1-1s-0.448-1-1-1H25.417c-0.552,0-1,0.448-1,1
						S24.864,50.765,25.417,50.765z"/>
					<path class="st7" d="M89.721,58.759c0-0.552-0.448-1-1-1H25.417c-0.552,0-1,0.448-1,1s0.448,1,1,1h63.305
						C89.273,59.759,89.721,59.312,89.721,58.759z"/>
					<path class="st7" d="M108.635,91.084V24.252c0-4.805-3.374-8.828-7.875-9.847v-3.216c0-5.047-4.106-9.153-9.153-9.153H41.981
						c-0.022,0-0.042,0.011-0.064,0.013c-0.088,0.006-0.173,0.023-0.257,0.051c-0.033,0.011-0.064,0.02-0.095,0.034
						c-0.106,0.049-0.207,0.111-0.293,0.197L13.776,29.99c-0.085,0.086-0.146,0.187-0.195,0.293
						c-0.014,0.031-0.022,0.062-0.033,0.094c-0.028,0.084-0.045,0.168-0.051,0.256c-0.001,0.021-0.012,0.041-0.012,0.062v77.243
						c0,5.046,4.106,9.152,9.152,9.152h9.313c1.79,2.838,4.933,4.739,8.53,4.739h42.689c0.448,0.085,0.908,0.134,1.38,0.134h18.558
						c4.084,0,7.408-3.323,7.408-7.408V95.998C110.515,94.111,109.8,92.393,108.635,91.084z M40.981,5.461v17.081
						c0,3.944-3.208,7.152-7.152,7.152H16.89L40.981,5.461z M15.485,107.938V31.695h18.344c5.046,0,9.152-4.106,9.152-9.152V4.037
						h48.625c3.944,0,7.153,3.208,7.153,7.153v10.174c0,0.552,0.448,1,1,1s1-0.448,1-1v-4.887c3.386,0.972,5.875,4.082,5.875,7.776
						v65.233c-1.05-0.571-2.252-0.896-3.528-0.896h-2.347V36.702c0-0.552-0.448-1-1-1s-1,0.448-1,1v51.888h-9.121v-5.634
						c0-6.68-5.434-12.114-12.114-12.114h-3.153c-6.68,0-12.114,5.434-12.114,12.114v9.9c0,1.882,1.531,3.414,3.414,3.414
						c1.882,0,3.413-1.531,3.413-3.414v-9.9c0-2.916,2.372-5.287,5.287-5.287h3.153c2.915,0,5.287,2.372,5.287,5.287v5.848
						c-3.248,0.785-5.671,3.708-5.671,7.194v18.558c0,0.181,0.014,0.358,0.027,0.535h-54.53
						C18.694,115.09,15.485,111.882,15.485,107.938z M77.525,75.668h-3.153c-4.018,0-7.287,3.269-7.287,7.287v9.9
						c0,0.779-0.634,1.414-1.413,1.414s-1.414-0.634-1.414-1.414v-9.9c0-5.577,4.537-10.114,10.114-10.114h3.153
						c5.577,0,10.114,4.537,10.114,10.114v5.634h-2.827v-5.634C84.812,78.937,81.543,75.668,77.525,75.668z M40.48,119.83
						c-2.408,0-4.561-1.066-6.046-2.739h43.163c0.381,1.041,0.983,1.976,1.758,2.739H40.48z M108.515,114.555
						c0,2.982-2.426,5.408-5.408,5.408H84.549c-2.982,0-5.408-2.426-5.408-5.408V95.998c0-2.982,2.426-5.408,5.408-5.408h18.558
						c2.982,0,5.408,2.426,5.408,5.408V114.555z"/>
					<path class="st7" d="M98.413,101.011c0-2.853-2.605-5.097-5.566-4.484c-1.77,0.367-3.182,1.82-3.52,3.595
						c-0.346,1.816,0.395,3.458,1.663,4.465l-0.577,8.081c-0.056,0.788,0.568,1.459,1.358,1.459h4.113
						c0.79,0,1.415-0.671,1.358-1.459l-0.577-8.081C97.722,103.747,98.413,102.466,98.413,101.011z"/>
				</g>
			</g>
		</g>
	</g>
</g>
</svg>
