<?xml version="1.0" encoding="utf-8"?>
<!-- Generator: Adobe Illustrator 22.0.1, SVG Export Plug-In . SVG Version: 6.00 Build 0)  -->
<svg version="1.1" id="Layer_1" xmlns="http://www.w3.org/2000/svg" xmlns:xlink="http://www.w3.org/1999/xlink" x="0px" y="0px"
	 viewBox="0 0 128 128" style="enable-background:new 0 0 128 128;" xml:space="preserve">
<style type="text/css">
	.st0{fill:#263238;}
	.st1{fill:#E6E7E8;}
	.st2{fill:#FFD7E5;}
	.st3{fill:#0089EF;}
	.st4{fill:#6DC9F7;}
	.st5{fill:#FA759E;}
	.st6{fill:#FFFFFF;}
	.st7{fill:#3A2C60;}
	.st8{fill:#D4FBFF;}
</style>
<g>
	<path class="st1" d="M111.345,58.665H89.655V9.39c0-0.552-0.448-1-1-1h-45.31c-0.552,0-1,0.448-1,1v49.275h-21.69
		c-1.809,0-3.28,1.472-3.28,3.281c0,1.809,1.472,3.28,3.28,3.28h1.379c0.356,0,0.646,0.29,0.646,0.646v4.173
		c0,1.208,0.982,2.19,2.19,2.19h3.011c1.208,0,2.19-0.982,2.19-2.19v-2.923c0-1.045,0.85-1.896,1.896-1.896h10.379v56.284
		c0,0.552,0.448,1,1,1h39.349c1.988,0.701,4.108,1.101,6.311,1.101c9.934,0,18.353-7.756,19.167-17.658
		c0.042-0.517,0.063-1.044,0.063-1.582c0-10.384-8.279-18.85-18.58-19.197V65.226h10.379c1.045,0,1.896,0.85,1.896,1.896v2.924
		c0,1.207,0.982,2.189,2.189,2.189h3.012c1.207,0,2.189-0.982,2.189-2.189v-4.174c0-0.356,0.29-0.646,0.646-0.646h1.379
		c1.809,0,3.28-1.472,3.28-3.28C114.625,60.136,113.153,58.665,111.345,58.665z"/>
	<g>
		<g>
			<g>
				<g>
					<rect x="39.345" y="5.389" class="st3" width="45.31" height="50.275"/>
					<path class="st3" d="M84.655,82.158V60.226h-45.31v57.284h39.474c-7.023-2.535-12.052-9.239-12.052-17.136
						C66.767,90.42,74.746,82.344,84.655,82.158z"/>
				</g>
				<rect x="59.815" y="5.389" class="st6" width="4.37" height="21"/>
				<rect x="59.816" y="32.889" class="st6" width="4.365" height="24.5"/>
				<g>
					<rect x="59.816" y="63.889" class="st6" width="4.365" height="24.5"/>
					<rect x="59.815" y="94.889" class="st6" width="4.37" height="22.62"/>
				</g>
			</g>
			<path class="st4" d="M107.345,55.665H16.656c-1.259,0-2.28,1.021-2.28,2.28v0c0,1.259,1.021,2.28,2.28,2.28h1.379
				c0.909,0,1.646,0.737,1.646,1.646v4.173c0,0.657,0.533,1.19,1.19,1.19h3.011c0.657,0,1.19-0.533,1.19-1.19v-2.923
				c0-1.599,1.296-2.896,2.896-2.896h68.068c1.599,0,2.896,1.296,2.896,2.896v2.924c0,0.657,0.532,1.189,1.189,1.189h3.012
				c0.657,0,1.189-0.532,1.189-1.189v-4.174c0-0.909,0.737-1.646,1.646-1.646h1.379c1.259,0,2.28-1.021,2.28-2.28v0
				C109.625,56.686,108.604,55.665,107.345,55.665z"/>
		</g>
		<g>
			
				<ellipse transform="matrix(0.9871 -0.1602 0.1602 0.9871 -14.9805 14.9117)" class="st6" cx="85.001" cy="100.374" rx="18.233" ry="18.233"/>
			<path class="st2" d="M103.175,101.87c-0.77,9.37-8.61,16.74-18.17,16.74c-9.57,0-17.41-7.37-18.18-16.74
				c0.77-9.37,8.61-16.73,18.18-16.73C94.565,85.14,102.405,92.5,103.175,101.87z"/>
			<g>
				<path class="st7" d="M84.655,66.886c-0.552,0-1,0.448-1,1v4.374c0,0.552,0.448,1,1,1s1-0.448,1-1v-4.374
					C85.655,67.334,85.208,66.886,84.655,66.886z"/>
				<path class="st7" d="M107.345,54.665H85.655V5.39c0-0.552-0.448-1-1-1h-45.31c-0.552,0-1,0.448-1,1v49.275h-21.69
					c-1.809,0-3.28,1.472-3.28,3.281c0,1.809,1.472,3.28,3.28,3.28h1.379c0.356,0,0.646,0.29,0.646,0.646v4.173
					c0,1.208,0.982,2.19,2.19,2.19h3.011c1.208,0,2.19-0.982,2.19-2.19v-2.923c0-1.045,0.85-1.896,1.896-1.896h10.379v56.284
					c0,0.552,0.448,1,1,1h39.349c1.988,0.701,4.108,1.101,6.311,1.101c9.934,0,18.353-7.756,19.167-17.658
					c0.042-0.517,0.063-1.044,0.063-1.582c0-10.384-8.279-18.85-18.58-19.197v-5.034c0-0.552-0.448-1-1-1s-1,0.448-1,1v5.07
					c-9.979,0.698-17.89,9.014-17.89,19.162c0,0.538,0.021,1.064,0.063,1.582c0.502,6.112,3.909,11.399,8.777,14.557h-34.26V61.226
					h43.31v3.043c0,0.552,0.448,1,1,1s1-0.448,1-1v-3.043h10.379c1.045,0,1.896,0.85,1.896,1.896v2.924
					c0,1.207,0.982,2.189,2.189,2.189h3.012c1.207,0,2.189-0.982,2.189-2.189v-4.174c0-0.356,0.29-0.646,0.646-0.646h1.379
					c1.809,0,3.28-1.472,3.28-3.28C110.625,56.136,109.153,54.665,107.345,54.665z M67.822,101.789
					c-0.038-0.463-0.057-0.937-0.057-1.418c0-9.5,7.734-17.23,17.24-17.23c9.5,0,17.23,7.729,17.23,17.23
					c0,0.482-0.019,0.955-0.057,1.418c-0.729,8.872-8.272,15.822-17.173,15.822C76.099,117.61,68.551,110.661,67.822,101.789z
					 M40.345,6.39h43.31v48.275h-43.31V6.39z M107.345,59.226h-1.379c-1.458,0-2.646,1.187-2.646,2.646v4.174
					c0,0.104-0.085,0.189-0.189,0.189h-3.012c-0.104,0-0.189-0.085-0.189-0.189v-2.924c0-2.148-1.748-3.896-3.896-3.896H27.966
					c-2.148,0-3.896,1.748-3.896,3.896v2.923c0,0.105-0.085,0.19-0.19,0.19H20.87c-0.104,0-0.19-0.085-0.19-0.19v-4.173
					c0-1.458-1.187-2.646-2.646-2.646h-1.379c-0.706,0-1.28-0.574-1.28-1.28s0.574-1.281,1.28-1.281h90.689
					c0.706,0,1.28,0.575,1.28,1.281S108.051,59.226,107.345,59.226z"/>
			</g>
			<g>
				<path class="st3" d="M89.171,106.692c-0.457,0-0.913-0.179-1.254-0.535c-0.683-0.712-1.773-1.137-2.916-1.137
					c-1.144,0-2.234,0.425-2.916,1.137c-0.664,0.693-1.764,0.716-2.457,0.052c-0.693-0.664-0.716-1.764-0.052-2.457
					c1.345-1.403,3.322-2.207,5.425-2.207c2.103,0,4.08,0.804,5.425,2.207c0.664,0.693,0.641,1.793-0.052,2.457
					C90.037,106.532,89.604,106.692,89.171,106.692z"/>
				<path class="st3" d="M93.114,101.907c-0.437,0-0.875-0.164-1.212-0.493c-1.71-1.666-4.225-2.621-6.901-2.621
					s-5.191,0.955-6.901,2.621c-0.687,0.67-1.787,0.655-2.457-0.032c-0.67-0.687-0.655-1.787,0.032-2.457
					c2.353-2.293,5.752-3.607,9.327-3.607c3.574,0,6.973,1.315,9.327,3.607c0.687,0.67,0.702,1.77,0.032,2.457
					C94.018,101.731,93.567,101.907,93.114,101.907z"/>
				<path class="st3" d="M97.054,97.124c-0.431,0-0.862-0.159-1.198-0.48c-2.722-2.593-6.678-4.08-10.855-4.08
					s-8.134,1.487-10.855,4.08c-0.695,0.662-1.795,0.635-2.457-0.06c-0.662-0.695-0.635-1.795,0.06-2.457
					c3.361-3.202,8.192-5.039,13.252-5.039c5.061,0,9.891,1.837,13.252,5.039c0.695,0.662,0.721,1.762,0.06,2.457
					C97.971,96.943,97.513,97.124,97.054,97.124z"/>
				<circle class="st5" cx="85" cy="109.351" r="2.307"/>
			</g>
		</g>
	</g>
</g>
</svg>
