<?xml version="1.0" encoding="utf-8"?>
<!-- Generator: Adobe Illustrator 22.0.1, SVG Export Plug-In . SVG Version: 6.00 Build 0)  -->
<svg version="1.1" id="Layer_1" xmlns="http://www.w3.org/2000/svg" xmlns:xlink="http://www.w3.org/1999/xlink" x="0px" y="0px"
	 viewBox="0 0 128 128" style="enable-background:new 0 0 128 128;" xml:space="preserve">
<style type="text/css">
	.st0{fill:#263238;}
	.st1{fill:#E6E7E8;}
	.st2{fill:#FFD7E5;}
	.st3{fill:#0089EF;}
	.st4{fill:#6DC9F7;}
	.st5{fill:#FA759E;}
	.st6{fill:#FFFFFF;}
	.st7{fill:#3A2C60;}
	.st8{fill:#D4FBFF;}
</style>
<g>
	<path class="st1" d="M106.204,39.54H88.501c-0.07-0.145-0.127-0.286-0.204-0.433c-1.844-3.511-0.763-6.635-0.059-8.044
		c1.009,0.498,2.113,0.752,3.234,0.752c0.556,0,1.116-0.063,1.67-0.188c0.121-0.015,0.243-0.042,0.364-0.072
		c11.487-2.907,10.766-15.721,9.925-21.082l-0.033-0.227c-0.315-1.957-0.681-3.234-0.696-3.288
		c-0.125-0.435-0.541-0.749-0.979-0.723c-0.451,0.008-0.842,0.317-0.952,0.756c-0.729,2.898-5.21,4.272-5.237,4.28
		c-9.749,2.703-12.686,9.593-11.289,14.851c0.398,1.497,1.23,2.804,2.34,3.794c-0.058,0.11-0.119,0.229-0.182,0.359
		c-1.429-2.625-4.891-4.484-10.022-3.048c-0.623,0.162-2.594,0.431-3.477-0.438c-0.322-0.317-0.816-0.379-1.206-0.151
		c-0.391,0.228-0.579,0.688-0.461,1.125c0.073,0.271,1.853,6.683,6.303,9.146c1.146,0.635,2.361,0.953,3.633,0.953
		c0.811,0,1.645-0.13,2.497-0.389c0.655-0.199,1.233-0.511,1.72-0.908c0.137,0.946,0.423,1.943,0.904,2.974H68.862
		c-1.458,0-2.644,1.187-2.644,2.645v14.387h-1.751c-0.311-1.96-1.999-3.468-4.045-3.468H49.304c-0.12-0.853-0.398-1.795-0.932-2.813
		c-1.175-2.238-0.619-4.248-0.149-5.297c0.692,0.297,1.432,0.462,2.199,0.462c0.498,0,1.007-0.063,1.516-0.193v0.001
		c5.967-1.515,8.646-7.161,7.351-15.495c-0.236-1.512-0.519-2.506-0.531-2.548c-0.124-0.435-0.5-0.723-0.977-0.725
		c-0.451,0.007-0.843,0.316-0.954,0.754c-0.405,1.602-2.729,2.622-3.57,2.875c-7.202,1.995-9.361,7.113-8.32,11.026
		c0.094,0.35,0.22,0.687,0.371,1.009c-1.408-0.889-3.408-1.234-5.826-0.556c-0.491,0.13-1.737,0.245-2.233-0.244
		c-0.322-0.317-0.816-0.379-1.206-0.151c-0.391,0.228-0.579,0.688-0.461,1.125c0.054,0.2,1.365,4.922,4.669,6.751
		c0.868,0.48,1.787,0.722,2.747,0.722c0.61,0,1.237-0.098,1.879-0.292c0.349-0.106,0.659-0.266,0.948-0.447
		c0.141,0.689,0.387,1.411,0.776,2.153c0.358,0.681,0.563,1.31,0.673,1.883H34.818c-2.047,0-3.734,1.507-4.045,3.468h-5.325
		c-1.266,0-2.296,1.03-2.296,2.296v64.603c0,1.266,1.03,2.296,2.296,2.296h43.414h0.84h36.503c1.458,0,2.644-1.187,2.644-2.645
		V42.184C108.848,40.726,107.663,39.54,106.204,39.54z"/>
	<g>
		<g>
			<g>
				<path class="st6" d="M89.26,26.591c-3.803,0.965-7.133-1.287-8.05-4.732c-1.191-4.471,1.177-11.02,10.594-13.627
					c0,0,5.052-1.497,5.942-4.994C97.745,3.239,103.407,23,89.26,26.591z"/>
				<path class="st8" d="M89.261,26.585c-0.08,0.02-0.16,0.04-0.24,0.05c-2.34-0.54-4.16-2.36-4.81-4.78
					c-1.19-4.47,1.18-11.02,10.59-13.62c0,0,1.92-0.57,3.61-1.83l0.03,0.21C99.351,12.415,99.731,23.935,89.261,26.585z"/>
				<path class="st8" d="M79.379,32.517c2.17-0.659,3.144-2.768,2.568-4.747c-0.747-2.568-3.876-5.1-9.313-3.575
					c0,0-2.947,0.77-4.432-0.694C68.202,23.501,71.308,34.969,79.379,32.517z"/>
			</g>
			<g>
				<path class="st3" d="M102.204,36.54H64.862c-0.908,0-1.644,0.736-1.644,1.644v15.387h2.483c0.716,0,1.296,0.58,1.296,1.296
					v64.602c0,0.716-0.58,1.296-1.296,1.296h36.503c0.908,0,1.644-0.736,1.644-1.644V38.184
					C103.848,37.276,103.112,36.54,102.204,36.54z"/>
				<g>
					<path class="st8" d="M79.955,41.182H69.512c-0.692,0-1.253,0.561-1.253,1.253v7.164c0,0.692,0.561,1.253,1.253,1.253h10.444
						c0.692,0,1.253-0.561,1.253-1.253v-7.164C81.208,41.743,80.647,41.182,79.955,41.182z"/>
					<path class="st8" d="M97.555,41.182H87.111c-0.692,0-1.253,0.561-1.253,1.253v7.164c0,0.692,0.561,1.253,1.253,1.253h10.444
						c0.692,0,1.253-0.561,1.253-1.253v-7.164C98.808,41.743,98.247,41.182,97.555,41.182z"/>
					<path class="st8" d="M79.955,55.729H69.512c-0.692,0-1.253,0.561-1.253,1.253v7.164c0,0.692,0.561,1.253,1.253,1.253h10.444
						c0.692,0,1.253-0.561,1.253-1.253v-7.164C81.208,56.29,80.647,55.729,79.955,55.729z"/>
					<path class="st8" d="M97.555,55.729H87.111c-0.692,0-1.253,0.561-1.253,1.253v7.164c0,0.692,0.561,1.253,1.253,1.253h10.444
						c0.692,0,1.253-0.561,1.253-1.253v-7.164C98.808,56.29,98.247,55.729,97.555,55.729z"/>
					<path class="st8" d="M79.955,70.392H69.512c-0.692,0-1.253,0.561-1.253,1.253v7.164c0,0.692,0.561,1.253,1.253,1.253h10.444
						c0.692,0,1.253-0.561,1.253-1.253v-7.164C81.208,70.953,80.647,70.392,79.955,70.392z"/>
					<path class="st8" d="M97.555,70.392H87.111c-0.692,0-1.253,0.561-1.253,1.253v7.164c0,0.692,0.561,1.253,1.253,1.253h10.444
						c0.692,0,1.253-0.561,1.253-1.253v-7.164C98.808,70.953,98.247,70.392,97.555,70.392z"/>
					<path class="st8" d="M79.955,85.428H69.512c-0.692,0-1.253,0.561-1.253,1.253v7.164c0,0.692,0.561,1.253,1.253,1.253h10.444
						c0.692,0,1.253-0.561,1.253-1.253v-7.164C81.208,85.989,80.647,85.428,79.955,85.428z"/>
					<path class="st8" d="M97.555,85.428H87.111c-0.692,0-1.253,0.561-1.253,1.253v7.164c0,0.692,0.561,1.253,1.253,1.253h10.444
						c0.692,0,1.253-0.561,1.253-1.253v-7.164C98.808,85.989,98.247,85.428,97.555,85.428z"/>
				</g>
			</g>
		</g>
		<g>
			<g>
				<path class="st8" d="M47.694,40.295c-2.736,0.694-5.131-0.926-5.791-3.404c-0.856-3.216,0.846-7.927,7.621-9.802
					c0,0,3.634-1.077,4.274-3.592C53.798,23.498,57.87,37.712,47.694,40.295z"/>
				<path class="st8" d="M40.586,44.558c1.561-0.474,2.261-1.991,1.847-3.414c-0.538-1.847-2.788-3.669-6.699-2.571
					c0,0-2.12,0.554-3.188-0.5C32.547,38.073,34.78,46.321,40.586,44.558z"/>
			</g>
			<g>
				<path class="st3" d="M59.496,53.571c0.014-0.119,0.036-0.235,0.036-0.357c0-1.718-1.393-3.11-3.111-3.11H30.818
					c-1.718,0-3.111,1.393-3.111,3.11c0,0.123,0.022,0.239,0.036,0.357H59.496z"/>
				<g>
					<path class="st4" d="M65.701,120.765H21.448c-0.716,0-1.296-0.58-1.296-1.296V54.867c0-0.716,0.58-1.296,1.296-1.296h44.253
						c0.716,0,1.296,0.58,1.296,1.296v64.602C66.997,120.185,66.417,120.765,65.701,120.765z"/>
					<g>
						<path class="st8" d="M49.116,102.703H38.034c-0.654,0-1.184,0.53-1.184,1.184v16.878H50.3v-16.878
							C50.3,103.233,49.769,102.703,49.116,102.703z"/>
						<path class="st8" d="M61.702,59.542H25.448c-0.533,0-0.965,0.432-0.965,0.965v2.789c0,0.533,0.432,0.965,0.965,0.965h36.254
							c0.533,0,0.965-0.432,0.965-0.965v-2.789C62.667,59.974,62.235,59.542,61.702,59.542z"/>
						<path class="st8" d="M61.702,69.41H25.448c-0.533,0-0.965,0.432-0.965,0.965v2.789c0,0.533,0.432,0.966,0.965,0.966h36.254
							c0.533,0,0.965-0.432,0.965-0.966v-2.789C62.667,69.842,62.235,69.41,61.702,69.41z"/>
						<path class="st8" d="M61.702,79.25H25.448c-0.533,0-0.965,0.432-0.965,0.965v2.789c0,0.533,0.432,0.965,0.965,0.965h36.254
							c0.533,0,0.965-0.432,0.965-0.965v-2.789C62.667,79.682,62.235,79.25,61.702,79.25z"/>
						<path class="st8" d="M61.702,89.09H25.448c-0.533,0-0.965,0.432-0.965,0.965v2.789c0,0.533,0.432,0.965,0.965,0.965h36.254
							c0.533,0,0.965-0.432,0.965-0.965v-2.789C62.667,89.522,62.235,89.09,61.702,89.09z"/>
					</g>
					<g>
						<path class="st7" d="M102.205,35.54h-17.7c-0.068-0.144-0.131-0.286-0.208-0.433c-1.844-3.512-0.762-6.636-0.058-8.045
							c1.01,0.498,2.114,0.753,3.236,0.753c0.556,0,1.115-0.063,1.668-0.188c0.112-0.013,0.223-0.038,0.335-0.065l-0.216-0.977
							l-0.26-0.966c-0.034,0.009-0.067,0.019-0.198,0.04c-1.3,0.29-2.58,0.142-3.69-0.406c0.81-2.033,3.343-7.59,7.4-9.305
							c0.508-0.215,0.747-0.802,0.531-1.311c-0.215-0.509-0.801-0.747-1.311-0.531c-4.446,1.88-7.18,7.296-8.267,9.879
							c-0.595-0.667-1.049-1.474-1.289-2.378c-1.151-4.336,1.452-10.068,9.908-12.414c0.173-0.052,3.294-1.001,5.243-3.192
							c0.031,0.175,0.063,0.357,0.093,0.546l0.032,0.223c0.942,6.002,1.098,16.433-8.438,18.846l0.246,0.97l0.237,0.972
							c0.003-0.001,0.006-0.002,0.009-0.002c11.487-2.908,10.766-15.722,9.924-21.083l-0.033-0.227
							c-0.315-1.957-0.681-3.234-0.696-3.288c-0.125-0.434-0.506-0.693-0.978-0.723c-0.452,0.008-0.843,0.317-0.953,0.756
							c-0.729,2.898-5.21,4.272-5.237,4.28c-9.749,2.704-12.686,9.594-11.289,14.851c0.398,1.497,1.229,2.805,2.34,3.794
							c-0.058,0.11-0.119,0.229-0.182,0.36c-1.429-2.626-4.894-4.489-10.02-3.047c-0.669,0.17-2.601,0.427-3.479-0.438
							c-0.323-0.317-0.816-0.38-1.207-0.151c-0.39,0.228-0.579,0.688-0.461,1.125c0.074,0.271,1.853,6.683,6.303,9.146
							c1.147,0.635,2.362,0.953,3.633,0.953c0.811,0,1.644-0.13,2.497-0.389c0.656-0.199,1.234-0.511,1.721-0.908
							c0.138,0.946,0.423,1.943,0.904,2.974H64.862c-1.458,0-2.644,1.186-2.644,2.644V52.57h-1.752
							c-0.311-1.959-1.999-3.467-4.045-3.467H45.299c-0.118-0.853-0.391-1.793-0.926-2.813c-1.175-2.238-0.619-4.248-0.149-5.297
							c0.692,0.297,1.433,0.462,2.2,0.462c0.499,0,1.006-0.063,1.515-0.192c0,0,0,0,0,0c5.967-1.515,8.646-7.162,7.35-15.495
							c-0.236-1.512-0.519-2.507-0.531-2.549c-0.125-0.435-0.555-0.701-0.977-0.725c-0.452,0.007-0.843,0.316-0.954,0.754
							c-0.406,1.603-2.729,2.622-3.571,2.875c-7.201,1.996-9.361,7.114-8.32,11.025c0.094,0.352,0.221,0.689,0.373,1.012
							c-1.408-0.889-3.408-1.234-5.824-0.558c-0.516,0.132-1.743,0.243-2.236-0.243c-0.321-0.317-0.817-0.38-1.206-0.151
							c-0.391,0.228-0.58,0.688-0.461,1.125c0.054,0.2,1.365,4.922,4.669,6.751c0.868,0.48,1.787,0.722,2.748,0.722
							c0.611,0,1.238-0.098,1.879-0.292h0c0.349-0.106,0.658-0.266,0.948-0.447c0.141,0.689,0.387,1.412,0.776,2.153
							c0.359,0.684,0.556,1.309,0.664,1.883H30.818c-2.047,0-3.734,1.507-4.045,3.467h-5.324c-1.266,0-2.296,1.03-2.296,2.297
							v64.602c0,1.266,1.03,2.296,2.296,2.296h43.414h0.839h36.503c1.458,0,2.644-1.186,2.644-2.644V38.184
							C104.848,36.726,103.662,35.54,102.205,35.54z M79.088,31.56c-1.674,0.509-3.17,0.378-4.575-0.397
							c-2.275-1.257-3.765-3.933-4.58-5.826c1.41,0.203,2.737-0.116,2.971-0.178c4.601-1.292,7.415,0.594,8.083,2.891
							c0.056,0.192,0.087,0.392,0.104,0.592c-1.347-0.681-3.589-1.619-5.489-1.456c-0.55,0.047-0.958,0.53-0.912,1.081
							c0.047,0.551,0.524,0.966,1.082,0.911c1.477-0.12,3.543,0.783,4.758,1.428C80.201,31.023,79.728,31.365,79.088,31.56z
							 M49.807,28.047c0.118-0.034,2.057-0.622,3.506-1.975c0,0.001,0,0.003,0,0.004c0.657,4.226,0.77,11.565-5.866,13.248
							c-0.83,0.211-1.648,0.161-2.375-0.132c0.659-1.585,2.398-5.165,5.071-6.295c0.509-0.215,0.747-0.802,0.531-1.311
							c-0.215-0.509-0.801-0.747-1.311-0.531c-3.062,1.296-5.013,4.827-5.911,6.836c-0.261-0.374-0.461-0.798-0.584-1.257
							C42.074,33.646,43.9,29.684,49.807,28.047z M40.296,43.601c-1.125,0.344-2.131,0.258-3.072-0.263
							c-1.405-0.775-2.383-2.353-2.98-3.624c0.875,0.037,1.61-0.139,1.762-0.179c3.011-0.847,4.873,0.28,5.402,1.728
							c-1-0.454-2.352-0.924-3.56-0.82c-0.55,0.047-0.958,0.531-0.912,1.081c0.047,0.55,0.532,0.971,1.082,0.911
							c0.874-0.065,2.076,0.405,2.928,0.823C40.768,43.402,40.555,43.522,40.296,43.601z M30.818,51.104h25.603
							c0.939,0,1.738,0.617,2.01,1.467H28.808C29.08,51.721,29.879,51.104,30.818,51.104z M102.848,119.121
							c0,0.354-0.289,0.644-0.644,0.644H67.967c0.013-0.098,0.03-0.195,0.03-0.296v-10.586c0-0.553-0.448-1-1-1s-1,0.447-1,1v10.586
							c0,0.163-0.133,0.296-0.296,0.296H21.448c-0.164,0-0.296-0.133-0.296-0.296V54.867c0-0.164,0.133-0.297,0.296-0.297h44.253
							c0.163,0,0.296,0.133,0.296,0.297v40.231c0,0.553,0.448,1,1,1s1-0.447,1-1V54.867c0-1.267-1.03-2.297-2.296-2.297h-1.483
							V38.184c0-0.354,0.289-0.644,0.644-0.644h37.343c0.355,0,0.644,0.289,0.644,0.644V119.121z"/>
						<path class="st7" d="M66.997,98.294c-0.552,0-1,0.447-1,1v5.164c0,0.553,0.448,1,1,1s1-0.447,1-1v-5.164
							C67.997,98.741,67.549,98.294,66.997,98.294z"/>
					</g>
				</g>
			</g>
		</g>
	</g>
</g>
</svg>
