<svg xmlns="http://www.w3.org/2000/svg" viewBox="0 0 256 256"><title>icons_</title><rect x="71.93" y="18.402" width="96.637" height="131.113" fill="#63bce7"/><rect x="71.93" y="18.402" width="9.5" height="131.113" fill="#6377e7"/><rect x="159.067" y="18.402" width="9.5" height="131.113" fill="#63e2e7"/><path d="M178.425,140.016l-8.894-7.886a13.352,13.352,0,0,1-4.115-6.832l-2.734-11.229a8.5,8.5,0,0,1,2.806-8.532L178.425,94.72h6.987v45.3Z" fill="#f8af23"/><rect x="172.972" y="84.158" width="15.045" height="46.952" rx="7.523" ry="7.523" transform="translate(-23.243 159.155) rotate(-45)" fill="#f46275"/><circle cx="135.26" cy="62.399" r="28.852" transform="translate(-4.506 113.92) rotate(-45)" fill="#f46275"/><circle cx="135.26" cy="62.399" r="21.56" transform="translate(-4.506 113.92) rotate(-45)" fill="#63bce7"/><path d="M216.675,151.029V138.95l6.448-28.031A9.316,9.316,0,0,0,216.7,99.9l-32.611-9.712a4.409,4.409,0,0,0-5.667,4.225v56.613Z" fill="#f8af23"/><path d="M216.7,99.9l-.443-.132-9.084,39.18v12.079h9.5V138.95l6.448-28.031A9.316,9.316,0,0,0,216.7,99.9Z" fill="#f8d323"/><rect x="32.638" y="148.857" width="45.718" height="16.121" transform="translate(110.995 313.835) rotate(-180)" fill="#f46275"/><rect x="32.638" y="148.857" width="9.5" height="16.121" fill="#f43075"/><rect x="32.638" y="164.978" width="45.718" height="61.647" transform="translate(110.995 391.603) rotate(-180)" fill="#63bce7"/><rect x="32.638" y="164.978" width="9.5" height="61.647" fill="#6377e7"/><rect x="174.551" y="148.857" width="45.718" height="16.121" transform="translate(394.821 313.835) rotate(-180)" fill="#f46275"/><rect x="210.77" y="148.857" width="9.5" height="16.121" fill="#f48875"/><rect x="174.551" y="164.978" width="45.718" height="61.647" transform="translate(394.821 391.603) rotate(-180)" fill="#63bce7"/><rect x="210.77" y="164.978" width="9.5" height="61.647" fill="#63e2e7"/><path d="M71.93,75.141V104.9l5.857-6.871a6.827,6.827,0,0,1,9.6-.765h0a6.827,6.827,0,0,1,.765,9.6L74.824,122.487s3.977,16.782-6.505,26.37H38.685l2.627-36.05c.315-3.329,2.368-6.146,4.456-8.475Z" fill="#f8af23"/><path d="M55.267,104.332,71.93,85.741v-10.6l-26.162,29.19c-2.088,2.329-4.141,5.146-4.456,8.475l-2.627,36.05h9.5l2.627-36.05C51.127,109.477,53.18,106.661,55.267,104.332Z" fill="#f87023"/><path d="M135.26,46.937V62.4H119.8A15.462,15.462,0,1,0,135.26,46.937Z" fill="#f8af23"/><path d="M135.26,46.937A15.462,15.462,0,0,0,119.8,62.4H135.26Z" fill="#f46275"/><rect x="135.552" y="97.088" width="11.312" height="42.929" fill="#f46275"/><rect x="114.594" y="109.272" width="11.31" height="30.744" fill="#f8af23"/><rect x="93.632" y="118.549" width="11.312" height="21.467" fill="#f46275"/><rect x="37.977" y="154.042" width="15.417" height="5.75" fill="#f8af23"/><rect x="179.89" y="154.042" width="15.417" height="5.75" fill="#f8af23"/><path d="M27.323,236.1h-18a1.5,1.5,0,1,0,0,3h18a1.5,1.5,0,0,0,0-3Z" fill="#3f3679"/><path d="M246.68,236.1h-18a1.5,1.5,0,0,0,0,3h18a1.5,1.5,0,1,0,0-3Z" fill="#3f3679"/><path d="M218.479,236.1H37.521a1.5,1.5,0,0,0,0,3H218.479a1.5,1.5,0,0,0,0-3Z" fill="#3f3679"/><path d="M248.18,226.625a1.5,1.5,0,0,0-1.5-1.5H221.77V148.857a1.5,1.5,0,0,0-1.5-1.5h-2.094v-8.236l6.41-27.864a10.838,10.838,0,0,0-7.454-12.792l-32.61-9.712a5.911,5.911,0,0,0-7.023,3.124l-1.9-1.9a8.953,8.953,0,0,0-5.527-2.6V18.4a1.5,1.5,0,0,0-1.5-1.5H71.93a1.5,1.5,0,0,0-1.5,1.5V74.568L44.651,103.331c-2.056,2.293-4.462,5.426-4.835,9.367L37.29,147.357H32.638a1.5,1.5,0,0,0-1.5,1.5v76.268H9.32a1.5,1.5,0,1,0,0,3H246.68A1.5,1.5,0,0,0,248.18,226.625ZM218.77,155.417H196.807v-1.375a1.5,1.5,0,0,0-1.5-1.5H179.89a1.5,1.5,0,0,0-1.5,1.5v5.75a1.5,1.5,0,0,0,1.5,1.5h15.417a1.5,1.5,0,0,0,1.5-1.5v-1.375H218.77v5.061H176.051V150.357H218.77Zm-24.963,2.875H181.39v-2.75h12.417Zm-113.95,6.686V151.015h88.71a1.5,1.5,0,0,0,1.5-1.5v-14.9l6.858,6.081v6.666h-2.374a1.5,1.5,0,0,0-1.5,1.5v76.268H79.856ZM179.925,94.416a2.909,2.909,0,0,1,3.739-2.788l32.61,9.712a7.832,7.832,0,0,1,5.387,9.244l-6.448,28.03a1.5,1.5,0,0,0-.038.336v8.407h-35.25v-7.341a1.5,1.5,0,0,0-.5-1.123l-8.894-7.885a11.8,11.8,0,0,1-3.652-6.064l-2.734-11.229a6.956,6.956,0,0,1,2.311-7.026l.185-.154,10.228,10.228c.018.018.043.024.062.041v3.947a1.5,1.5,0,0,0,3,0Zm-3,1.13v17.035l-11.969-11.969a6.023,6.023,0,1,1,8.518-8.518ZM73.43,19.9h93.637V87.6a8.908,8.908,0,0,0-3.078,1.41l-6.233-6.233a30.305,30.305,0,1,0-2.121,2.121l6.233,6.233a9,9,0,0,0,.967,11.605l1.672,1.672a9.937,9.937,0,0,0-3.282,10.019l2.734,11.229a14.777,14.777,0,0,0,3.108,6.092v16.269H79.6a1.5,1.5,0,0,0-1.241-.658H71.747c7.048-8.968,5.3-21.263,4.695-24.457l12.847-15.071A8.307,8.307,0,0,0,76.645,97.052l-3.215,3.772V19.9Zm42.49,61.838a27.352,27.352,0,1,1,38.682,0A27.384,27.384,0,0,1,115.919,81.74ZM42.8,112.948c.288-3.037,2.332-5.665,4.08-7.615L70.43,79.063v25.281L59.667,116.97a1.5,1.5,0,0,0,2.283,1.946L73.071,105.87,78.928,99a5.306,5.306,0,0,1,8.077,6.884L73.682,121.514a1.5,1.5,0,0,0-.318,1.319c.037.157,3.556,15.568-5.642,24.524H40.3Zm-8.667,37.409H76.856v5.061H54.893v-1.375a1.5,1.5,0,0,0-1.5-1.5H37.977a1.5,1.5,0,0,0-1.5,1.5v5.75a1.5,1.5,0,0,0,1.5,1.5H53.393a1.5,1.5,0,0,0,1.5-1.5v-1.375H76.856v5.061H34.138Zm17.755,7.936H39.477v-2.75H51.893ZM34.138,225.125V166.478H76.856v58.647Zm141.913,0V166.478H218.77v58.647Z" fill="#3f3679"/><path d="M151.566,46.093a23.049,23.049,0,1,0,0,32.611A23.085,23.085,0,0,0,151.566,46.093Zm-2.121,30.49a20.05,20.05,0,1,1,0-28.369A20.085,20.085,0,0,1,149.445,76.583Z" fill="#3f3679"/><path d="M135.26,45.437A16.962,16.962,0,1,0,152.222,62.4,16.981,16.981,0,0,0,135.26,45.437Zm-1.5,3.08V60.9H121.378A13.988,13.988,0,0,1,133.76,48.517Zm1.5,27.844A13.982,13.982,0,0,1,121.378,63.9H135.26a1.5,1.5,0,0,0,1.5-1.5V48.517a13.962,13.962,0,0,1-1.5,27.844Z" fill="#3f3679"/><path d="M135.552,141.516h11.312a1.5,1.5,0,0,0,1.5-1.5V97.088a1.5,1.5,0,0,0-1.5-1.5H135.552a1.5,1.5,0,0,0-1.5,1.5v42.928A1.5,1.5,0,0,0,135.552,141.516Zm1.5-42.928h8.312v39.928h-8.312Z" fill="#3f3679"/><path d="M114.595,141.516H125.9a1.5,1.5,0,0,0,1.5-1.5V109.272a1.5,1.5,0,0,0-1.5-1.5h-11.31a1.5,1.5,0,0,0-1.5,1.5v30.744A1.5,1.5,0,0,0,114.595,141.516Zm1.5-30.744h8.31v27.744h-8.31Z" fill="#3f3679"/><path d="M92.132,118.549v21.467a1.5,1.5,0,0,0,1.5,1.5h11.312a1.5,1.5,0,0,0,1.5-1.5V118.549a1.5,1.5,0,0,0-1.5-1.5H93.632A1.5,1.5,0,0,0,92.132,118.549Zm3,1.5h8.312v18.467H95.132Z" fill="#3f3679"/><path d="M79.733,39.651H101.4a1.5,1.5,0,0,0,0-3H79.733a1.5,1.5,0,0,0,0,3Z" fill="#3f3679"/><path d="M79.733,48.858H101.4a1.5,1.5,0,0,0,0-3H79.733a1.5,1.5,0,0,0,0,3Z" fill="#3f3679"/><path d="M79.733,58.065H101.4a1.5,1.5,0,0,0,0-3H79.733a1.5,1.5,0,0,0,0,3Z" fill="#3f3679"/><path d="M79.733,67.272H101.4a1.5,1.5,0,0,0,0-3H79.733a1.5,1.5,0,0,0,0,3Z" fill="#3f3679"/><path d="M79.733,76.48H101.4a1.5,1.5,0,0,0,0-3H79.733a1.5,1.5,0,0,0,0,3Z" fill="#3f3679"/><path d="M79.733,85.687H101.4a1.5,1.5,0,0,0,0-3H79.733a1.5,1.5,0,0,0,0,3Z" fill="#3f3679"/></svg>