<svg xmlns="http://www.w3.org/2000/svg" viewBox="0 0 256 256"><title>icons_</title><rect x="15.61" y="28.986" width="224.78" height="154.91" rx="14.009" ry="14.009" fill="#63bce7"/><path d="M25.11,169.887V43A14.025,14.025,0,0,1,39.119,28.986h-9.5A14.025,14.025,0,0,0,15.61,43V169.887A14.025,14.025,0,0,0,29.619,183.9h9.5A14.025,14.025,0,0,1,25.11,169.887Z" fill="#6377e7"/><path d="M230.89,169.887V43a14.025,14.025,0,0,0-14.009-14.009h9.5A14.025,14.025,0,0,1,240.39,43V169.887A14.025,14.025,0,0,1,226.381,183.9h-9.5A14.025,14.025,0,0,0,230.89,169.887Z" fill="#63e2e7"/><rect x="24.231" y="37.607" width="207.538" height="125.366" rx="5.388" ry="5.388" fill="#f8af23"/><path d="M33.731,157.585V42.995a5.4,5.4,0,0,1,5.388-5.388h-9.5a5.4,5.4,0,0,0-5.388,5.388v114.59a5.4,5.4,0,0,0,5.388,5.388h9.5A5.4,5.4,0,0,1,33.731,157.585Z" fill="#f87023"/><path d="M222.269,157.585V42.995a5.4,5.4,0,0,0-5.388-5.388h9.5a5.4,5.4,0,0,1,5.388,5.388v114.59a5.4,5.4,0,0,1-5.388,5.388h-9.5A5.4,5.4,0,0,0,222.269,157.585Z" fill="#f8d323"/><rect x="88.847" y="206.612" width="78.305" height="9.429" fill="#f46275"/><rect x="88.847" y="206.612" width="9.5" height="9.429" fill="#f43075"/><rect x="99.983" y="183.896" width="56.035" height="22.716" fill="#9e9e9e"/><rect x="99.983" y="183.896" width="9.5" height="22.716" fill="#707070"/><circle cx="128" cy="173.435" r="4.613" fill="#f46275"/><path d="M76,70.016V100.29H45.726A30.274,30.274,0,1,0,76,70.016Z" fill="#63bce7"/><path d="M76,70.016A30.274,30.274,0,0,0,45.726,100.29H76Z" fill="#f46275"/><rect x="120.667" y="101.034" width="14.333" height="30.667" fill="#63bce7"/><rect x="144.917" y="90.316" width="14.333" height="41.385" fill="#f46275"/><rect x="169.167" y="79.598" width="14.333" height="52.103" fill="#63bce7"/><rect x="193.417" y="68.88" width="14.333" height="62.821" fill="#f46275"/><path d="M233.269,157.585V42.995a6.9,6.9,0,0,0-6.888-6.888H29.619a6.9,6.9,0,0,0-6.888,6.888v114.59a6.9,6.9,0,0,0,6.888,6.888H226.381A6.9,6.9,0,0,0,233.269,157.585Zm-207.537,0V42.995a3.892,3.892,0,0,1,3.888-3.888H226.381a3.892,3.892,0,0,1,3.888,3.888v114.59a3.892,3.892,0,0,1-3.888,3.888H29.619A3.892,3.892,0,0,1,25.731,157.585Z" fill="#3f3679"/><path d="M128,167.321a6.113,6.113,0,1,0,6.113,6.113A6.12,6.12,0,0,0,128,167.321Zm0,9.227a3.113,3.113,0,1,1,3.113-3.113A3.117,3.117,0,0,1,128,176.548Z" fill="#3f3679"/><path d="M27.323,225.514h-18a1.5,1.5,0,0,0,0,3h18a1.5,1.5,0,1,0,0-3Z" fill="#3f3679"/><path d="M246.68,225.514h-18a1.5,1.5,0,0,0,0,3h18a1.5,1.5,0,0,0,0-3Z" fill="#3f3679"/><path d="M218.479,225.514H37.521a1.5,1.5,0,0,0,0,3H218.479a1.5,1.5,0,0,0,0-3Z" fill="#3f3679"/><path d="M9.32,217.541H246.68a1.5,1.5,0,0,0,0-3H168.652v-7.929a1.5,1.5,0,0,0-1.5-1.5h-9.635V185.4h68.863a15.526,15.526,0,0,0,15.509-15.509V43a15.526,15.526,0,0,0-15.509-15.509H29.619A15.526,15.526,0,0,0,14.11,43V169.887A15.526,15.526,0,0,0,29.619,185.4H98.482v19.716H88.848a1.5,1.5,0,0,0-1.5,1.5v7.929H9.32a1.5,1.5,0,0,0,0,3Zm7.79-47.653V43A12.523,12.523,0,0,1,29.619,30.486H226.381A12.523,12.523,0,0,1,238.89,43V169.887A12.523,12.523,0,0,1,226.381,182.4H29.619A12.523,12.523,0,0,1,17.11,169.887ZM101.482,185.4h53.035v19.716H101.482ZM90.348,208.112h75.3v6.429h-75.3Z" fill="#3f3679"/><path d="M76,68.516a31.774,31.774,0,1,0,31.774,31.774A31.81,31.81,0,0,0,76,68.516Zm-1.5,3.039V98.79H47.265A28.815,28.815,0,0,1,74.5,71.555ZM76,129.064A28.811,28.811,0,0,1,47.265,101.79H76a1.5,1.5,0,0,0,1.5-1.5V71.555A28.774,28.774,0,0,1,76,129.064Z" fill="#3f3679"/><path d="M135,99.534H120.667a1.5,1.5,0,0,0-1.5,1.5V131.7a1.5,1.5,0,0,0,1.5,1.5H135a1.5,1.5,0,0,0,1.5-1.5V101.034A1.5,1.5,0,0,0,135,99.534ZM133.5,130.2H122.167V102.534H133.5Z" fill="#3f3679"/><path d="M159.25,88.815H144.917a1.5,1.5,0,0,0-1.5,1.5V131.7a1.5,1.5,0,0,0,1.5,1.5H159.25a1.5,1.5,0,0,0,1.5-1.5V90.315A1.5,1.5,0,0,0,159.25,88.815Zm-1.5,41.385H146.417V91.815H157.75Z" fill="#3f3679"/><path d="M183.5,78.1H169.167a1.5,1.5,0,0,0-1.5,1.5v52.1a1.5,1.5,0,0,0,1.5,1.5H183.5a1.5,1.5,0,0,0,1.5-1.5V79.6A1.5,1.5,0,0,0,183.5,78.1ZM182,130.2H170.667V81.1H182Z" fill="#3f3679"/><path d="M207.75,67.379H193.417a1.5,1.5,0,0,0-1.5,1.5V131.7a1.5,1.5,0,0,0,1.5,1.5H207.75a1.5,1.5,0,0,0,1.5-1.5V68.879A1.5,1.5,0,0,0,207.75,67.379Zm-1.5,62.821H194.917V70.379H206.25Z" fill="#3f3679"/></svg>