<svg xmlns="http://www.w3.org/2000/svg" viewBox="0 0 256 256"><title>icons_</title><path d="M32.9,208.807a12.5,12.5,0,0,1-12.5-12.5v-36.15a12.5,12.5,0,0,1,25,0v36.15A12.5,12.5,0,0,1,32.9,208.807Z" fill="#f8af23"/><path d="M167.815,153.34h-34.5a12.5,12.5,0,0,1,0-25h26.82l15.529-30.649a12.5,12.5,0,0,1,11.15-6.851h15.25a12.5,12.5,0,0,1,0,25h-7.57L178.965,146.49A12.5,12.5,0,0,1,167.815,153.34Z" fill="#f8af23"/><path d="M202.065,90.84h-9.5a12.5,12.5,0,0,1,0,25h-7.57L169.465,146.49a12.5,12.5,0,0,1-11.15,6.851h9.5a12.5,12.5,0,0,0,11.15-6.851l15.529-30.649h7.57a12.5,12.5,0,0,0,0-25Z" fill="#f8d323"/><path d="M155.819,121.157H41.709a23.7,23.7,0,0,0-23.7,23.7v15.3H41.342v69.577h85.333V160.157h29.143Z" fill="#63bce7"/><rect x="117.175" y="160.157" width="9.5" height="69.577" fill="#63e2e7"/><rect x="146.319" y="121.157" width="9.5" height="39" fill="#63e2e7"/><rect x="41.342" y="160.157" width="9.5" height="69.577" fill="#6377e7"/><path d="M32.394,130.446a23.7,23.7,0,0,1,18.815-9.289h-9.5a23.7,23.7,0,0,0-23.7,23.7v15.3h9.5v-15.3A23.7,23.7,0,0,1,32.394,130.446Z" fill="#6377e7"/><circle cx="115.009" cy="73.397" r="8.375" fill="#f8af23"/><circle cx="53.009" cy="73.397" r="8.375" fill="#f87023"/><path d="M73.342,88.823H94.675a0,0,0,0,1,0,0V126.24a10.667,10.667,0,0,1-10.667,10.667h0A10.667,10.667,0,0,1,73.342,126.24V88.823a0,0,0,0,1,0,0Z" fill="#f8af23"/><path d="M73.342,88.823V126.24a10.664,10.664,0,0,0,7.75,10.253V88.823Z" fill="#f87023"/><rect x="53.009" y="30.266" width="62" height="80.117" rx="31" ry="31" fill="#f8af23"/><path d="M62.509,79.383V61.266a31.007,31.007,0,0,1,26.25-30.638,31.232,31.232,0,0,0-4.75-.362h0a31,31,0,0,0-31,31V79.383a31,31,0,0,0,31,31h0a31.232,31.232,0,0,0,4.75-.362A31.007,31.007,0,0,1,62.509,79.383Z" fill="#f87023"/><polygon points="109.509 61.144 111.759 73.397 115.009 73.397 115.009 52.157 109.509 52.157 109.509 61.144" fill="#9e9e9e"/><path d="M53.009,73.4h3.75l3.088-14.239a3.134,3.134,0,0,1,3.924-2.792l28.112,7.415c5.824,1.825,12.82-.753,17.874-4.174l7.144-4.835a11.056,11.056,0,0,0,3.405-14.636l-1.32-2.313A28.587,28.587,0,0,0,94.159,23.407H69.3a15.468,15.468,0,0,0-12.55,6.426l-3.745,5.2-1.191,1.287a17.688,17.688,0,0,0-4.143,16.439Z" fill="#9e9e9e"/><path d="M61.318,36.318l1.191-1.287,3.745-5.2A15.468,15.468,0,0,1,78.8,23.407H69.3a15.468,15.468,0,0,0-12.55,6.427l-3.745,5.2-1.191,1.287a17.688,17.688,0,0,0-4.143,16.439L53.009,73.4h3.75l2.624-12.1-2.207-8.542A17.688,17.688,0,0,1,61.318,36.318Z" fill="#707070"/><polygon points="73.342 116.257 84.009 136.907 74.675 145.757 64.842 121.157 73.342 116.257" fill="#f46275"/><polygon points="94.675 116.257 84.009 136.907 93.342 145.757 103.175 121.157 94.675 116.257" fill="#f46275"/><circle cx="74.425" cy="76.883" r="3.486" fill="#3f3679"/><circle cx="97.078" cy="76.883" r="3.486" fill="#3f3679"/><rect x="152.112" y="40.476" width="73.851" height="25.182" rx="4.919" ry="4.919" fill="#9e9e9e"/><rect x="152.112" y="65.658" width="73.851" height="25.182" rx="4.919" ry="4.919" fill="#9e9e9e"/><rect x="152.112" y="15.294" width="73.851" height="25.182" rx="4.919" ry="4.919" fill="#9e9e9e"/><path d="M221.044,15.294h-9.5a4.919,4.919,0,0,1,4.919,4.919V35.557a4.919,4.919,0,0,1-4.919,4.919h9.5a4.919,4.919,0,0,0,4.919-4.919V20.213A4.919,4.919,0,0,0,221.044,15.294Z" fill="#cecece"/><path d="M221.044,40.476h-9.5a4.919,4.919,0,0,1,4.919,4.919V60.739a4.919,4.919,0,0,1-4.919,4.919h9.5a4.919,4.919,0,0,0,4.919-4.919V45.395A4.919,4.919,0,0,0,221.044,40.476Z" fill="#cecece"/><path d="M221.044,65.658h-9.5a4.919,4.919,0,0,1,4.919,4.919V85.922a4.919,4.919,0,0,1-4.919,4.919h9.5a4.919,4.919,0,0,0,4.919-4.919V70.577A4.919,4.919,0,0,0,221.044,65.658Z" fill="#cecece"/><path d="M163.431,128.717l-1.458-9.729a8.816,8.816,0,0,0-4.185-6.255L112.954,85.849a8.816,8.816,0,0,0-12.095,3.027l-2.265,3.777L161.213,130.2A1.476,1.476,0,0,0,163.431,128.717Z" fill="#9e9e9e"/><path d="M101.286,109.653h14.875a0,0,0,0,1,0,0v69.629a7.438,7.438,0,0,1-7.438,7.438h0a7.438,7.438,0,0,1-7.438-7.438V109.653a0,0,0,0,1,0,0Z" transform="translate(91.687 -34.816) rotate(30.949)" fill="#9e9e9e"/><rect x="118.148" y="95.644" width="31.578" height="20.989" rx="6.415" ry="6.415" transform="translate(73.652 -53.768) rotate(30.949)" fill="#f46275"/><path d="M138.948,88.806h5.384a4.056,4.056,0,0,1,4.056,4.056v4.915a0,0,0,0,1,0,0h-13.5a0,0,0,0,1,0,0V92.862A4.056,4.056,0,0,1,138.948,88.806Z" transform="translate(68.142 -59.559) rotate(30.949)" fill="#f46275"/><path d="M32.913,208.808a12.5,12.5,0,0,1-6.532-23.167l57.7-35.281A12.5,12.5,0,1,1,97.126,171.69l-57.7,35.281A12.445,12.445,0,0,1,32.913,208.808Z" fill="#f8af23"/><path d="M20.4,160.157v36.15a12.49,12.49,0,0,0,17.247,11.559A12.5,12.5,0,0,1,29.9,196.307v-36.15Z" fill="#f87023"/><rect x="210.875" y="24.363" width="7.043" height="7.043" rx="1.43" ry="1.43" fill="#f8af23"/><rect x="160.157" y="24.363" width="39.168" height="7.043" fill="#f8af23"/><rect x="210.875" y="49.546" width="7.043" height="7.043" rx="1.43" ry="1.43" fill="#f8af23"/><rect x="160.157" y="49.546" width="39.168" height="7.043" fill="#f8af23"/><rect x="210.875" y="74.728" width="7.043" height="7.043" rx="1.43" ry="1.43" fill="#f8af23"/><rect x="160.157" y="74.728" width="39.168" height="7.043" fill="#f8af23"/><path d="M27.323,239.206h-18a1.5,1.5,0,1,0,0,3h18a1.5,1.5,0,1,0,0-3Z" fill="#3f3679"/><path d="M246.68,239.206h-18a1.5,1.5,0,0,0,0,3h18a1.5,1.5,0,0,0,0-3Z" fill="#3f3679"/><path d="M218.479,239.206H37.521a1.5,1.5,0,0,0,0,3H218.479a1.5,1.5,0,0,0,0-3Z" fill="#3f3679"/><path d="M9.32,231.233H246.68a1.5,1.5,0,0,0,0-3h-118.5V161.657h27.644a1.5,1.5,0,0,0,1.5-1.5V154.84h10.5a13.933,13.933,0,0,0,12.488-7.673l15.113-29.827h6.649a13.985,13.985,0,0,0,8.632-25h10.347a6.426,6.426,0,0,0,6.418-6.418V70.577a6.406,6.406,0,0,0-2.3-4.919,6.406,6.406,0,0,0,2.3-4.919V45.395a6.406,6.406,0,0,0-2.3-4.919,6.406,6.406,0,0,0,2.3-4.919V20.212a6.426,6.426,0,0,0-6.418-6.418H157.03a6.426,6.426,0,0,0-6.418,6.418V35.557a6.406,6.406,0,0,0,2.3,4.919,6.406,6.406,0,0,0-2.3,4.919V60.739a6.406,6.406,0,0,0,2.3,4.919,6.406,6.406,0,0,0-2.3,4.919V85.922a6.426,6.426,0,0,0,6.418,6.418h21.118a14.009,14.009,0,0,0-3.822,4.673l-10.914,21.54a10.27,10.27,0,0,0-4.853-7.105l-6.577-3.944a7.951,7.951,0,0,0-.23-1.964,7.863,7.863,0,0,0-3.607-4.867l-.966-.579,1.756-2.928a5.556,5.556,0,0,0-1.908-7.622l-4.618-2.769a5.561,5.561,0,0,0-7.622,1.908l-1.756,2.928-.966-.579a7.861,7.861,0,0,0-5.992-.89,7.954,7.954,0,0,0-1.841.722l-8.378-5.023c.177-.879.325-1.765.429-2.659a9.866,9.866,0,0,0,.225-19.537V56.85l1.234-.835a12.614,12.614,0,0,0,3.867-16.623l-1.32-2.312A30.151,30.151,0,0,0,94.159,21.907H69.3a17.01,17.01,0,0,0-13.768,7.049l-3.691,5.125L50.717,35.3a19.111,19.111,0,0,0-4.494,17.833l2.893,11.2A9.864,9.864,0,0,0,51.738,83.18a32.577,32.577,0,0,0,20.1,26.331v5.879l-7.4,4.266H41.709a25.2,25.2,0,0,0-25.2,25.2v15.3a1.5,1.5,0,0,0,1.5,1.5H18.9v34.65a13.972,13.972,0,0,0,20.94,12.138v19.788H9.32a1.5,1.5,0,1,0,0,3ZM153.612,35.557V20.212a3.423,3.423,0,0,1,3.418-3.418h64.014a3.423,3.423,0,0,1,3.418,3.418V35.557a3.423,3.423,0,0,1-3.418,3.419H157.03A3.423,3.423,0,0,1,153.612,35.557Zm0,25.182V45.395a3.423,3.423,0,0,1,3.418-3.418h64.014a3.423,3.423,0,0,1,3.418,3.418V60.739a3.423,3.423,0,0,1-3.418,3.419H157.03A3.423,3.423,0,0,1,153.612,60.739Zm3.418,28.6a3.423,3.423,0,0,1-3.418-3.418V70.577a3.423,3.423,0,0,1,3.418-3.419h64.014a3.423,3.423,0,0,1,3.418,3.419V85.922a3.423,3.423,0,0,1-3.418,3.418H157.03ZM177,98.369a10.949,10.949,0,0,1,9.813-6.028h15.25a11,11,0,1,1,0,22h-7.57a1.5,1.5,0,0,0-1.338.822l-15.529,30.649a10.949,10.949,0,0,1-9.812,6.028h-10.5V129.616l3.122,1.872a2.976,2.976,0,0,0,4.474-2.994l-.726-4.846c.007-.012.016-.022.022-.035ZM160.49,119.21l1.494,9.7-15.906-9.538a7.955,7.955,0,0,0,.589-.848l4.2-7a8.014,8.014,0,0,0,.466-.922l5.689,3.411A7.289,7.289,0,0,1,160.49,119.21Zm-57.939,34.512a13.93,13.93,0,0,0-2.349-2.871l22.474-37.48,3.806,2.282-20.58,34.32a1.5,1.5,0,0,0,2.573,1.543l20.58-34.32,3.806,2.282L97.824,177.909a5.914,5.914,0,0,1-9.495.919l9.58-5.857A14.017,14.017,0,0,0,102.551,153.723Zm1.026-34.066-7.4-4.266v-5.862a32.418,32.418,0,0,0,12.544-9.055l7.171,4.3a7.95,7.95,0,0,0,.23,1.964,7.867,7.867,0,0,0,3.608,4.867l.374.224-4.694,7.828Zm-8.29-1.315,6.013,3.466-8.53,21.34-6.911-6.554ZM121.8,92.9a8.013,8.013,0,0,0-.594.845l-4.2,7a8.014,8.014,0,0,0-.466.922l-15.893-9.53,1.494-2.491a7.316,7.316,0,0,1,10.037-2.512Zm14.568-1.024,4.5,2.7A1.5,1.5,0,0,0,142.412,92l-4.293-2.574a2.522,2.522,0,0,1,2.747-.084l4.618,2.769a2.555,2.555,0,0,1,.877,3.506l-1.756,2.928-9-5.4ZM126.8,93.051a4.881,4.881,0,0,1,3.721.553l8.04,4.821,5.787,3.47h0l2.252,1.35a4.915,4.915,0,0,1,1.688,6.743l-4.2,7a4.92,4.92,0,0,1-6.743,1.688l-1.659-.995h0l-12.757-7.65h0l-1.659-.995a4.914,4.914,0,0,1-1.687-6.743l1.326-2.212,15.051,9.025a1.5,1.5,0,0,0,1.543-2.573L122.454,97.5l1.326-2.212A4.882,4.882,0,0,1,126.8,93.051ZM121.884,73.4a6.884,6.884,0,0,1-5.4,6.71c.005-.242.02-13.413.02-13.413A6.9,6.9,0,0,1,121.884,73.4Zm-8.375-12.131V71.9h-.5l-2-10.891v-.434l2.5-1.692ZM52.918,37.337s1.271-1.379,1.308-1.429l3.745-5.2a14,14,0,0,1,11.333-5.8H94.159a27.144,27.144,0,0,1,23.525,13.661L119,40.88a9.6,9.6,0,0,1-2.943,12.651l-7.144,4.835c-5.806,3.93-12.008,5.419-16.65,3.966L64.153,54.916a4.634,4.634,0,0,0-5.792,4.015L55.549,71.9H54.17L49.127,52.382A16.124,16.124,0,0,1,52.918,37.337ZM46.134,73.4a6.9,6.9,0,0,1,3.747-6.109l1.652,6.392a1.488,1.488,0,0,0-.024.237v5.467c0,.242.013.48.018.721A6.89,6.89,0,0,1,46.134,73.4Zm8.375,5.986V74.9h2.25a1.5,1.5,0,0,0,1.466-1.182l3.088-14.24a1.492,1.492,0,0,0,.03-.2,1.635,1.635,0,0,1,2.046-1.456l28.047,7.4c4.786,1.5,10.9.418,16.767-2.882l2.082,11.337a1.5,1.5,0,0,0,1.475,1.229h1.75v4.486a29.8,29.8,0,0,1-.4,4.852A10.323,10.323,0,0,0,99.572,88.1l-2.265,3.777a1.5,1.5,0,0,0,.515,2.058l8.29,4.971a29.494,29.494,0,0,1-51.6-19.527Zm29.5,32.5a32.614,32.614,0,0,0,9.167-1.312v5.322l-9.167,17.746-9.167-17.746v-5.335A32.386,32.386,0,0,0,84.009,111.883ZM72.73,118.341l9.428,18.252-6.911,6.554-8.53-21.34ZM19.509,144.857a22.2,22.2,0,0,1,22.2-22.2H63.826l9.456,23.657a1.5,1.5,0,0,0,2.425.532l8.3-7.872,8.3,7.872a1.5,1.5,0,0,0,2.425-.532l9.456-23.657h9.419L97.8,149.027a14.009,14.009,0,0,0-14.495.055L42.842,173.82V160.157a1.5,1.5,0,0,0-1.5-1.5H19.509Zm19.123,60.824a10.981,10.981,0,0,1-16.73-9.375v-34.65h17.94v14l-6.708,4.1a1.5,1.5,0,0,0,1.564,2.56l50.169-30.673a11,11,0,1,1,11.477,18.77L38.809,205.588A1.461,1.461,0,0,0,38.632,205.681Zm4.21.957,42.893-26.225a8.985,8.985,0,0,0,2.4,2.107,8.944,8.944,0,0,0,12.262-3.069l34.056-56.795h11.26l8.605,5.16v30.84H126.675a1.5,1.5,0,0,0-1.5,1.5v68.077H42.842Z" fill="#3f3679"/><path d="M86.194,92.84a1.5,1.5,0,0,0,1.5-1.5V83.215a1.5,1.5,0,0,0-3,0V91.34A1.5,1.5,0,0,0,86.194,92.84Z" fill="#3f3679"/><path d="M81.883,69.174a1.5,1.5,0,0,0-1.5-1.5H68.467a1.5,1.5,0,0,0,0,3H80.383A1.5,1.5,0,0,0,81.883,69.174Z" fill="#3f3679"/><path d="M91.119,70.674h11.917a1.5,1.5,0,1,0,0-3H91.119a1.5,1.5,0,0,0,0,3Z" fill="#3f3679"/><path d="M94.644,96.007a1.5,1.5,0,0,0-2.687-1.334,6.424,6.424,0,0,1-11.524,0,1.5,1.5,0,0,0-2.687,1.334,9.425,9.425,0,0,0,16.9,0Z" fill="#3f3679"/><path d="M139.544,111.25l2.31,1.385a1.5,1.5,0,0,0,1.543-2.573l-2.31-1.385a1.5,1.5,0,1,0-1.543,2.573Z" fill="#3f3679"/><path d="M216.488,22.863H212.3a2.933,2.933,0,0,0-2.93,2.93v4.184a2.933,2.933,0,0,0,2.93,2.929h4.184a2.932,2.932,0,0,0,2.929-2.929V25.793A2.933,2.933,0,0,0,216.488,22.863Zm-.071,7.044-4.043.07-.07-4.114,4.113-.07Z" fill="#3f3679"/><path d="M199.325,22.863H160.157a1.5,1.5,0,0,0-1.5,1.5v7.043a1.5,1.5,0,0,0,1.5,1.5h39.168a1.5,1.5,0,0,0,1.5-1.5V24.363A1.5,1.5,0,0,0,199.325,22.863Zm-1.5,7.043H161.657V25.863h36.168Z" fill="#3f3679"/><path d="M216.488,48.045H212.3a2.933,2.933,0,0,0-2.93,2.93v4.184a2.933,2.933,0,0,0,2.93,2.93h4.184a2.933,2.933,0,0,0,2.929-2.93V50.975A2.933,2.933,0,0,0,216.488,48.045Zm-.071,7.044-4.043.069-.07-4.114,4.113-.07Z" fill="#3f3679"/><path d="M199.325,48.045H160.157a1.5,1.5,0,0,0-1.5,1.5v7.043a1.5,1.5,0,0,0,1.5,1.5h39.168a1.5,1.5,0,0,0,1.5-1.5V49.545A1.5,1.5,0,0,0,199.325,48.045Zm-1.5,7.043H161.657V51.045h36.168Z" fill="#3f3679"/><path d="M212.3,83.271h4.184a2.933,2.933,0,0,0,2.929-2.93V76.157a2.933,2.933,0,0,0-2.929-2.93H212.3a2.933,2.933,0,0,0-2.93,2.93v4.184A2.933,2.933,0,0,0,212.3,83.271Zm4.113-7.114v4.115l-4.043.069-.07-4.114Z" fill="#3f3679"/><path d="M199.325,73.228H160.157a1.5,1.5,0,0,0-1.5,1.5v7.043a1.5,1.5,0,0,0,1.5,1.5h39.168a1.5,1.5,0,0,0,1.5-1.5V74.728A1.5,1.5,0,0,0,199.325,73.228Zm-1.5,7.043H161.657V76.228h36.168Z" fill="#3f3679"/></svg>