<svg xmlns="http://www.w3.org/2000/svg" viewBox="0 0 256 256"><title>icons_</title><rect x="182.204" y="209.244" width="61.7" height="21.039" rx="4.919" ry="4.919" fill="#f8af23"/><rect x="182.204" y="111.994" width="61.7" height="21.039" rx="4.919" ry="4.919" fill="#f46275"/><rect x="43.775" y="105.284" width="101.057" height="34.459" rx="4.919" ry="4.919" fill="#9e9e9e"/><rect x="43.775" y="139.743" width="101.057" height="34.459" rx="4.919" ry="4.919" fill="#9e9e9e"/><rect x="43.775" y="70.825" width="101.057" height="34.459" rx="4.919" ry="4.919" fill="#9e9e9e"/><path d="M53.275,100.365V75.743a4.919,4.919,0,0,1,4.919-4.919h-9.5a4.919,4.919,0,0,0-4.919,4.919v24.622a4.919,4.919,0,0,0,4.919,4.919h9.5A4.919,4.919,0,0,1,53.275,100.365Z" fill="#707070"/><path d="M53.275,134.824V110.2a4.919,4.919,0,0,1,4.919-4.919h-9.5a4.919,4.919,0,0,0-4.919,4.919v24.622a4.919,4.919,0,0,0,4.919,4.919h9.5A4.919,4.919,0,0,1,53.275,134.824Z" fill="#707070"/><rect x="54.223" y="84.344" width="53.598" height="7.421" rx="2.265" ry="2.265" fill="#f8af23"/><rect x="54.223" y="118.803" width="53.598" height="7.421" rx="2.265" ry="2.265" fill="#f8af23"/><rect x="54.223" y="153.262" width="53.598" height="7.421" rx="2.265" ry="2.265" fill="#f8af23"/><rect x="123.626" y="84.344" width="7.421" height="7.421" rx="2.265" ry="2.265" fill="#f8af23"/><rect x="123.626" y="118.803" width="7.421" height="7.421" rx="2.265" ry="2.265" fill="#f8af23"/><rect x="123.626" y="153.262" width="7.421" height="7.421" rx="2.265" ry="2.265" fill="#f8af23"/><path d="M66.889,150.941c-.242.676-.516,1.326-.816,1.97l6.056,6.056L60.221,170.875l-6.056-6.056c-.644.3-1.3.574-1.97.816V174.2H35.359v-8.568c-.669-.242-1.326-.516-1.97-.816l-6.056,6.056L15.424,158.967l6.056-6.056c-.3-.644-.574-1.294-.816-1.97H12.1V134.1h8.568c.242-.669.516-1.326.816-1.97l-6.056-6.056L27.333,114.17l6.056,6.063c.644-.3,1.3-.58,1.97-.822v-8.561H52.195v8.561c.669.242,1.326.523,1.97.822l6.056-6.063,11.908,11.908-6.056,6.056c.3.644.574,1.3.816,1.97H75.45v16.836Z" fill="#63bce7"/><path d="M30.98,152.911c-.3-.644-.574-1.294-.816-1.97H21.6V134.1h8.568c.242-.669.516-1.326.816-1.97l-6.056-6.056,7.156-7.156-4.747-4.753L15.424,126.079l6.056,6.056c-.3.644-.574,1.3-.816,1.97H12.1v16.836h8.568c.242.676.516,1.326.816,1.97l-6.056,6.056,11.908,11.908,4.75-4.75-7.158-7.158Z" fill="#6377e7"/><circle cx="43.776" cy="142.524" r="10.721" fill="#f46275"/><rect x="182.204" y="14.744" width="61.7" height="21.039" rx="4.919" ry="4.919" fill="#63bce7"/><path d="M238.985,14.744h-9.5a4.919,4.919,0,0,1,4.919,4.919v11.2a4.919,4.919,0,0,1-4.919,4.919h9.5a4.919,4.919,0,0,0,4.919-4.919v-11.2A4.919,4.919,0,0,0,238.985,14.744Z" fill="#63e2e7"/><path d="M238.985,111.994h-9.5a4.919,4.919,0,0,1,4.919,4.919v11.2a4.919,4.919,0,0,1-4.919,4.919h9.5a4.919,4.919,0,0,0,4.919-4.919v-11.2A4.919,4.919,0,0,0,238.985,111.994Z" fill="#f48875"/><path d="M238.985,209.244h-9.5a4.919,4.919,0,0,1,4.919,4.919v11.2a4.919,4.919,0,0,1-4.919,4.919h9.5a4.919,4.919,0,0,0,4.919-4.919v-11.2A4.919,4.919,0,0,0,238.985,209.244Z" fill="#f8d323"/><rect x="196.692" y="21.655" width="32.724" height="7.217" rx="2.265" ry="2.265" fill="#f8af23"/><rect x="196.692" y="118.905" width="32.724" height="7.217" rx="2.265" ry="2.265" fill="#f8af23"/><rect x="196.692" y="216.155" width="32.724" height="7.217" rx="2.265" ry="2.265" fill="#f46275"/><path d="M105.556,82.844H56.489a3.77,3.77,0,0,0-3.766,3.765V89.5a3.77,3.77,0,0,0,3.766,3.765h49.067a3.77,3.77,0,0,0,3.766-3.765V86.609A3.77,3.77,0,0,0,105.556,82.844Zm.766,6.656a.776.776,0,0,1-.766.765H56.489a.776.776,0,0,1-.766-.765V86.609a.776.776,0,0,1,.766-.765h49.067a.776.776,0,0,1,.766.765Z" fill="#3f3679"/><path d="M128.782,82.844h-2.891a3.769,3.769,0,0,0-3.765,3.765V89.5a3.769,3.769,0,0,0,3.765,3.765h2.891a3.769,3.769,0,0,0,3.765-3.765V86.609A3.769,3.769,0,0,0,128.782,82.844Zm.765,6.656a.776.776,0,0,1-.765.765h-2.891a.776.776,0,0,1-.765-.765V86.609a.776.776,0,0,1,.765-.765h2.891a.776.776,0,0,1,.765.765Z" fill="#3f3679"/><path d="M128.782,117.3h-2.891a3.77,3.77,0,0,0-3.765,3.766v2.89a3.77,3.77,0,0,0,3.765,3.766h2.891a3.77,3.77,0,0,0,3.765-3.766v-2.89A3.77,3.77,0,0,0,128.782,117.3Zm.765,6.656a.776.776,0,0,1-.765.766h-2.891a.776.776,0,0,1-.765-.766v-2.89a.776.776,0,0,1,.765-.766h2.891a.776.776,0,0,1,.765.766Z" fill="#3f3679"/><path d="M125.891,162.184h2.891a3.77,3.77,0,0,0,3.765-3.766v-2.89a3.77,3.77,0,0,0-3.765-3.766h-2.891a3.77,3.77,0,0,0-3.765,3.766v2.89A3.77,3.77,0,0,0,125.891,162.184Zm-.765-6.656a.776.776,0,0,1,.765-.766h2.891a.776.776,0,0,1,.765.766v2.89a.776.776,0,0,1-.765.766h-2.891a.776.776,0,0,1-.765-.766Z" fill="#3f3679"/><path d="M56,142.523a12.221,12.221,0,1,0-12.221,12.222A12.235,12.235,0,0,0,56,142.523Zm-21.442,0a9.221,9.221,0,1,1,9.221,9.222A9.232,9.232,0,0,1,34.555,142.523Z" fill="#3f3679"/><path d="M198.957,30.372H227.15a3.77,3.77,0,0,0,3.766-3.765V23.921a3.77,3.77,0,0,0-3.766-3.766H198.957a3.77,3.77,0,0,0-3.765,3.766v2.686A3.769,3.769,0,0,0,198.957,30.372Zm-.765-6.451a.776.776,0,0,1,.765-.766H227.15a.776.776,0,0,1,.766.766v2.686a.776.776,0,0,1-.766.765H198.957a.776.776,0,0,1-.765-.765Z" fill="#3f3679"/><path d="M198.957,127.622H227.15a3.77,3.77,0,0,0,3.766-3.765v-2.686a3.77,3.77,0,0,0-3.766-3.766H198.957a3.77,3.77,0,0,0-3.765,3.766v2.686A3.769,3.769,0,0,0,198.957,127.622Zm-.765-6.451a.776.776,0,0,1,.765-.766H227.15a.776.776,0,0,1,.766.766v2.686a.776.776,0,0,1-.766.765H198.957a.776.776,0,0,1-.765-.765Z" fill="#3f3679"/><path d="M227.15,214.655H198.957a3.77,3.77,0,0,0-3.765,3.766v2.686a3.769,3.769,0,0,0,3.765,3.765H227.15a3.77,3.77,0,0,0,3.766-3.765v-2.686A3.77,3.77,0,0,0,227.15,214.655Zm.766,6.451a.776.776,0,0,1-.766.765H198.957a.776.776,0,0,1-.765-.765v-2.686a.776.776,0,0,1,.765-.766H227.15a.776.776,0,0,1,.766.766Z" fill="#3f3679"/><path d="M27.323,239.756h-18a1.5,1.5,0,1,0,0,3h18a1.5,1.5,0,1,0,0-3Z" fill="#3f3679"/><path d="M246.68,239.756h-18a1.5,1.5,0,0,0,0,3h18a1.5,1.5,0,0,0,0-3Z" fill="#3f3679"/><path d="M218.479,239.756H37.521a1.5,1.5,0,0,0,0,3H218.479a1.5,1.5,0,0,0,0-3Z" fill="#3f3679"/><path d="M9.32,231.783H246.68a1.5,1.5,0,1,0,0-3h-2.273a6.372,6.372,0,0,0,1-3.418v-11.2a6.426,6.426,0,0,0-6.419-6.419H187.123a6.426,6.426,0,0,0-6.419,6.419v4.1H163.3v-94.25h17.4v4.1a6.426,6.426,0,0,0,6.419,6.418h51.862a6.426,6.426,0,0,0,6.419-6.418v-11.2a6.426,6.426,0,0,0-6.419-6.419H187.123a6.426,6.426,0,0,0-6.419,6.419v4.1H163.3V26.764h17.4v4.1a6.426,6.426,0,0,0,6.419,6.418h51.862a6.426,6.426,0,0,0,6.419-6.418v-11.2a6.426,6.426,0,0,0-6.419-6.419H187.123a6.426,6.426,0,0,0-6.419,6.419v4.1H161.8a1.5,1.5,0,0,0-1.5,1.5v95.75H146.333V110.2a6.406,6.406,0,0,0-2.3-4.919,6.405,6.405,0,0,0,2.3-4.918V75.743a6.426,6.426,0,0,0-6.419-6.418H48.694a6.426,6.426,0,0,0-6.419,6.418v24.622a6.405,6.405,0,0,0,2.3,4.918,6.411,6.411,0,0,0-2.239,4.063H35.357a1.5,1.5,0,0,0-1.5,1.5v7.538l-.136.057-5.331-5.331a1.544,1.544,0,0,0-2.121,0L14.364,125.018a1.5,1.5,0,0,0,0,2.121l5.331,5.33-.057.136H12.1a1.5,1.5,0,0,0-1.5,1.5v16.838a1.5,1.5,0,0,0,1.5,1.5h7.538l.057.136-5.331,5.33a1.5,1.5,0,0,0,0,2.121L26.27,171.936a1.5,1.5,0,0,0,2.121,0l5.331-5.33.136.057V174.2a1.5,1.5,0,0,0,1.5,1.5l104.556,0a6.426,6.426,0,0,0,6.419-6.419V144.662a6.406,6.406,0,0,0-2.3-4.919,6.406,6.406,0,0,0,2.3-4.919V124.014H160.3v95.75a1.5,1.5,0,0,0,1.5,1.5h18.9v4.1a6.372,6.372,0,0,0,1,3.418H9.32a1.5,1.5,0,1,0,0,3ZM183.7,116.913a3.423,3.423,0,0,1,3.419-3.419h51.862a3.423,3.423,0,0,1,3.419,3.419v11.2a3.423,3.423,0,0,1-3.419,3.418H187.123a3.423,3.423,0,0,1-3.419-3.418Zm0-97.25a3.423,3.423,0,0,1,3.419-3.419h51.862a3.423,3.423,0,0,1,3.419,3.419v11.2a3.423,3.423,0,0,1-3.419,3.418H187.123a3.423,3.423,0,0,1-3.419-3.418Zm-138.429,80.7V75.743a3.423,3.423,0,0,1,3.419-3.418h91.22a3.423,3.423,0,0,1,3.419,3.418v24.622a3.423,3.423,0,0,1-3.419,3.418H48.694A3.423,3.423,0,0,1,45.275,100.365Zm-9.4,63.863c-.6-.218-1.2-.47-1.846-.771a1.5,1.5,0,0,0-1.7.3l-5,5-9.785-9.785,5-5a1.5,1.5,0,0,0,.3-1.7c-.3-.644-.553-1.248-.771-1.846a1.5,1.5,0,0,0-1.41-.987H13.6V135.6h7.063a1.5,1.5,0,0,0,1.41-.987c.218-.6.47-1.2.771-1.846a1.5,1.5,0,0,0-.3-1.7l-5-5,9.785-9.785,5,5a1.5,1.5,0,0,0,1.7.3c.644-.3,1.248-.553,1.846-.771a1.5,1.5,0,0,0,.987-1.41v-7.063H50.7v7.063a1.5,1.5,0,0,0,.987,1.41c.6.218,1.2.47,1.847.771a1.5,1.5,0,0,0,1.7-.3l5-5,9.785,9.785-5,5a1.5,1.5,0,0,0-.3,1.694c.3.645.553,1.25.771,1.848a1.5,1.5,0,0,0,1.409.986h7.063v13.838H66.891a1.5,1.5,0,0,0-1.409.986c-.218.6-.471,1.2-.771,1.848a1.5,1.5,0,0,0,.3,1.694l5,5-9.785,9.785-5-5a1.5,1.5,0,0,0-1.7-.3c-.643.3-1.247.552-1.847.771a1.5,1.5,0,0,0-.987,1.41V172.7H36.857v-7.062A1.5,1.5,0,0,0,35.871,164.228Zm37.025-39.5L68.474,120.3h37.081a.776.776,0,0,1,.766.766v2.89a.776.776,0,0,1-.766.766Zm.293,33.185-3.146-3.146h35.513a.776.776,0,0,1,.766.766v2.89a.776.776,0,0,1-.766.766H73.587A1.472,1.472,0,0,0,73.189,157.909Zm70.144-13.247v24.622a3.423,3.423,0,0,1-3.419,3.419H53.7v-6.04l.136-.057,5.33,5.33a1.5,1.5,0,0,0,2.121,0l9.752-9.752h34.521a3.77,3.77,0,0,0,3.766-3.766v-2.89a3.77,3.77,0,0,0-3.766-3.766H76.708a1.491,1.491,0,0,0,.246-.819v-9.7h62.96A3.423,3.423,0,0,1,143.333,144.662Zm-66.379-6.419V134.1a1.5,1.5,0,0,0-1.5-1.5H67.916l-.057-.135,4.745-4.745h32.952a3.77,3.77,0,0,0,3.766-3.766v-2.89a3.77,3.77,0,0,0-3.766-3.766H65.474l-4.192-4.192a1.544,1.544,0,0,0-2.121,0l-5.33,5.331-.136-.057v-7.538a1.5,1.5,0,0,0-1.5-1.5H45.4a3.416,3.416,0,0,1,3.3-2.563h91.22a3.423,3.423,0,0,1,3.419,3.419v24.622a3.423,3.423,0,0,1-3.419,3.419ZM183.7,225.364v-11.2a3.423,3.423,0,0,1,3.419-3.419h51.862a3.423,3.423,0,0,1,3.419,3.419v11.2a3.423,3.423,0,0,1-3.419,3.418H187.123A3.423,3.423,0,0,1,183.7,225.364Z" fill="#3f3679"/></svg>