<svg xmlns="http://www.w3.org/2000/svg" viewBox="0 0 256 256"><title>icons_</title><rect x="15.61" y="41.374" width="224.78" height="154.91" rx="14.009" ry="14.009" fill="#63bce7"/><path d="M25.11,182.275V55.382A14.025,14.025,0,0,1,39.119,41.374h-9.5A14.025,14.025,0,0,0,15.61,55.382V182.275a14.025,14.025,0,0,0,14.009,14.009h9.5A14.025,14.025,0,0,1,25.11,182.275Z" fill="#6377e7"/><path d="M230.89,182.275V55.382a14.025,14.025,0,0,0-14.009-14.009h9.5A14.025,14.025,0,0,1,240.39,55.382V182.275a14.025,14.025,0,0,1-14.009,14.009h-9.5A14.025,14.025,0,0,0,230.89,182.275Z" fill="#63e2e7"/><rect x="24.231" y="49.994" width="207.538" height="125.366" rx="5.388" ry="5.388" fill="#f8af23"/><path d="M33.731,169.973V55.382a5.4,5.4,0,0,1,5.388-5.388h-9.5a5.4,5.4,0,0,0-5.388,5.388v114.59a5.4,5.4,0,0,0,5.388,5.388h9.5A5.4,5.4,0,0,1,33.731,169.973Z" fill="#f87023"/><path d="M222.269,169.973V55.382a5.4,5.4,0,0,0-5.388-5.388h9.5a5.4,5.4,0,0,1,5.388,5.388v114.59a5.4,5.4,0,0,1-5.388,5.388h-9.5A5.4,5.4,0,0,0,222.269,169.973Z" fill="#f8d323"/><rect x="88.847" y="218.999" width="78.305" height="9.429" fill="#f46275"/><rect x="88.847" y="218.999" width="9.5" height="9.429" fill="#f43075"/><rect x="99.983" y="196.283" width="56.035" height="22.716" fill="#9e9e9e"/><rect x="99.983" y="196.283" width="9.5" height="22.716" fill="#707070"/><circle cx="128" cy="185.822" r="4.613" fill="#f46275"/><rect x="63" y="101.733" width="147" height="21.888" rx="10.944" ry="10.944" fill="#f46275"/><path d="M86.124,119.9c-.208.58-.443,1.138-.7,1.69l5.2,5.2L80.4,137l-5.2-5.2c-.552.257-1.116.492-1.69.7v7.35H59.075V132.5c-.574-.208-1.138-.443-1.69-.7l-5.2,5.2L41.974,126.782l5.2-5.2c-.257-.552-.492-1.11-.7-1.69h-7.35V105.454h7.35c.208-.574.443-1.138.7-1.69l-5.2-5.2L52.189,88.353l5.2,5.2c.552-.257,1.116-.5,1.69-.706V85.5H73.518v7.345c.574.208,1.138.448,1.69.706l5.2-5.2L90.619,98.569l-5.2,5.2c.257.552.492,1.116.7,1.69h7.345V119.9Z" fill="#63bce7"/><circle cx="66.296" cy="112.676" r="9.197" fill="#f46275"/><polygon points="42.539 33.785 59.725 16.599 76.911 33.785 66.924 33.785 66.924 66.148 52.527 66.148 52.527 33.785 42.539 33.785" fill="#9e9e9e"/><polygon points="179.089 33.785 196.275 16.599 213.461 33.785 203.473 33.785 203.473 66.148 189.076 66.148 189.076 33.785 179.089 33.785" fill="#9e9e9e"/><path d="M128,191.935a6.113,6.113,0,1,0-6.113-6.113A6.12,6.12,0,0,0,128,191.935Zm0-9.227a3.113,3.113,0,1,1-3.113,3.113A3.117,3.117,0,0,1,128,182.708Z" fill="#3f3679"/><path d="M27.323,237.9h-18a1.5,1.5,0,1,0,0,3h18a1.5,1.5,0,0,0,0-3Z" fill="#3f3679"/><path d="M246.68,237.9h-18a1.5,1.5,0,1,0,0,3h18a1.5,1.5,0,0,0,0-3Z" fill="#3f3679"/><path d="M218.479,237.9H37.521a1.5,1.5,0,1,0,0,3H218.479a1.5,1.5,0,1,0,0-3Z" fill="#3f3679"/><path d="M9.32,229.928H246.68a1.5,1.5,0,1,0,0-3H168.653V219a1.5,1.5,0,0,0-1.5-1.5h-9.635V197.783h68.864a15.526,15.526,0,0,0,15.508-15.509V55.382a15.526,15.526,0,0,0-15.508-15.509H204.973V35.285h8.488a1.5,1.5,0,0,0,1.061-2.561L197.335,15.539a1.5,1.5,0,0,0-2.121,0L178.028,32.724a1.5,1.5,0,0,0,1.061,2.561h8.488v4.589H68.423V35.285h8.488a1.5,1.5,0,0,0,1.061-2.561L60.786,15.539a1.5,1.5,0,0,0-2.121,0L41.479,32.724a1.5,1.5,0,0,0,1.061,2.561h8.488v4.589H29.619A15.526,15.526,0,0,0,14.11,55.382V182.274a15.526,15.526,0,0,0,15.508,15.509H98.482V217.5H88.847a1.5,1.5,0,0,0-1.5,1.5v7.929H9.32a1.5,1.5,0,1,0,0,3ZM52.527,67.648h14.4a1.5,1.5,0,0,0,1.5-1.5V51.494H187.577V66.148a1.5,1.5,0,0,0,1.5,1.5h14.4a1.5,1.5,0,0,0,1.5-1.5V51.494h21.408a3.892,3.892,0,0,1,3.888,3.888v114.59a3.892,3.892,0,0,1-3.888,3.888H29.619a3.892,3.892,0,0,1-3.888-3.888V55.382a3.892,3.892,0,0,1,3.888-3.888H51.027V66.148A1.5,1.5,0,0,0,52.527,67.648ZM182.71,32.285,196.275,18.72l13.564,13.564h-6.366a1.5,1.5,0,0,0-1.5,1.5V64.648h-11.4V33.785a1.5,1.5,0,0,0-1.5-1.5Zm4.866,10.589v5.621H68.423V42.874ZM46.161,32.285,59.725,18.72,73.29,32.285H66.923a1.5,1.5,0,0,0-1.5,1.5V64.648h-11.4V33.785a1.5,1.5,0,0,0-1.5-1.5ZM17.11,182.274V55.382A12.523,12.523,0,0,1,29.619,42.874H51.027v5.621H29.619a6.9,6.9,0,0,0-6.888,6.888v114.59a6.9,6.9,0,0,0,6.888,6.888H226.381a6.9,6.9,0,0,0,6.888-6.888V55.382a6.9,6.9,0,0,0-6.888-6.888H204.973V42.874h21.408A12.523,12.523,0,0,1,238.89,55.382V182.274a12.523,12.523,0,0,1-12.508,12.509H29.619A12.523,12.523,0,0,1,17.11,182.274Zm84.372,15.509h53.035V217.5H101.482ZM90.347,220.5h75.306v6.429H90.347Z" fill="#3f3679"/><path d="M40.474,98.568a1.5,1.5,0,0,0,.439,1.061l4.326,4.326H39.122a1.5,1.5,0,0,0-1.5,1.5V119.9a1.5,1.5,0,0,0,1.5,1.5h6.117l-4.325,4.325a1.5,1.5,0,0,0,0,2.121L51.127,138.06a1.5,1.5,0,0,0,2.121,0l4.325-4.325v6.117a1.5,1.5,0,0,0,1.5,1.5H73.519a1.5,1.5,0,0,0,1.5-1.5v-6.117l4.326,4.326a1.544,1.544,0,0,0,2.121,0l10.214-10.214a1.5,1.5,0,0,0,0-2.121l-.6-.6h107.98a12.444,12.444,0,0,0,0-24.888H91.074l.6-.6a1.5,1.5,0,0,0,0-2.121L81.465,87.293a1.5,1.5,0,0,0-2.121,0l-4.326,4.326V85.5a1.5,1.5,0,0,0-1.5-1.5H59.074a1.5,1.5,0,0,0-1.5,1.5v6.117l-4.325-4.325a1.5,1.5,0,0,0-2.121,0L40.913,97.507A1.5,1.5,0,0,0,40.474,98.568Zm158.583,4.666a9.444,9.444,0,0,1,0,18.888H88.076l-.722-.722h6.117a1.5,1.5,0,0,0,1.5-1.5V105.454a1.5,1.5,0,0,0-1.5-1.5H87.354l.721-.721ZM52.188,90.475l4.137,4.137a1.5,1.5,0,0,0,1.7.3c.545-.254,1.058-.468,1.566-.653a1.5,1.5,0,0,0,.987-1.41V87H72.019v5.846a1.5,1.5,0,0,0,.987,1.41c.508.185,1.02.4,1.567.654a1.5,1.5,0,0,0,1.695-.3L80.4,90.475,88.5,98.568l-4.137,4.137a1.5,1.5,0,0,0-.3,1.695c.255.547.469,1.059.654,1.567a1.5,1.5,0,0,0,1.41.987h5.846V118.4H86.125a1.5,1.5,0,0,0-1.41.987c-.185.508-.4,1.021-.653,1.566a1.5,1.5,0,0,0,.3,1.7l4.137,4.137L80.4,134.877l-4.137-4.137a1.5,1.5,0,0,0-1.695-.3c-.547.255-1.059.469-1.567.654a1.5,1.5,0,0,0-.987,1.41v5.846H60.574v-5.846a1.5,1.5,0,0,0-.987-1.41c-.508-.185-1.021-.4-1.566-.653a1.5,1.5,0,0,0-1.7.3l-4.137,4.137-8.093-8.093,4.137-4.137a1.5,1.5,0,0,0,.3-1.7c-.254-.545-.468-1.058-.653-1.566a1.5,1.5,0,0,0-1.41-.987H40.622V106.954h5.846a1.5,1.5,0,0,0,1.41-.987c.185-.508.4-1.02.654-1.567a1.5,1.5,0,0,0-.3-1.695L44.1,98.568Z" fill="#3f3679"/><path d="M66.3,123.374a10.7,10.7,0,1,0-10.7-10.7A10.71,10.71,0,0,0,66.3,123.374Zm0-18.4a7.7,7.7,0,1,1-7.7,7.7A7.706,7.706,0,0,1,66.3,104.979Z" fill="#3f3679"/></svg>