<svg xmlns="http://www.w3.org/2000/svg" viewBox="0 0 256 256"><title>icons_</title><path d="M128,220.51c-12.584,0-24.059-10.73-32.312-30.213-7.7-18.183-11.945-42.256-11.945-67.784s4.242-49.6,11.945-67.784C103.941,35.247,115.416,24.517,128,24.517s24.059,10.73,32.312,30.213c7.7,18.183,11.945,42.256,11.945,67.784s-4.242,49.6-11.945,67.784C152.059,209.78,140.584,220.51,128,220.51Zm0-186.467c-8.391,0-16.972,8.894-23.54,24.4-7.216,17.035-11.19,39.788-11.19,64.068s3.974,47.033,11.19,64.068c6.569,15.508,15.149,24.4,23.54,24.4s16.972-8.894,23.54-24.4c7.216-17.035,11.19-39.788,11.19-64.068s-3.974-47.033-11.19-64.068C144.972,42.937,136.391,34.043,128,34.043Z" fill="#f8af23"/><path d="M128,223.014a100.5,100.5,0,1,1,100.5-100.5A100.614,100.614,0,0,1,128,223.014ZM128,31.54a90.974,90.974,0,1,0,90.974,90.974A91.077,91.077,0,0,0,128,31.54Z" fill="#63bce7"/><circle cx="128" cy="26.543" r="18.814" fill="#f46275"/><path d="M118.686,26.543A18.8,18.8,0,0,1,132.75,8.358a18.814,18.814,0,1,0,0,36.371A18.8,18.8,0,0,1,118.686,26.543Z" fill="#f43075"/><circle cx="128" cy="218.484" r="18.814" fill="#f46275"/><path d="M136.083,159.376l-3.32,3.32V82.331l3.32,3.32a4.763,4.763,0,0,0,6.736-6.735L131.368,67.465a4.762,4.762,0,0,0-6.736,0L113.181,78.916a4.763,4.763,0,0,0,6.736,6.735l3.32-3.32V162.7l-3.32-3.32a4.763,4.763,0,1,0-6.736,6.735l11.451,11.451a4.762,4.762,0,0,0,6.736,0l11.451-11.451a4.763,4.763,0,1,0-6.736-6.735Z" fill="#9e9e9e"/><path d="M118.686,218.484A18.8,18.8,0,0,1,132.75,200.3a18.814,18.814,0,1,0,0,36.371A18.8,18.8,0,0,1,118.686,218.484Z" fill="#f43075"/><path d="M132.429,178.622l11.451-11.45a6.263,6.263,0,0,0-8.857-8.857h0l-.759.759V85.953l.76.76a6.263,6.263,0,1,0,8.857-8.857L132.429,66.4a6.271,6.271,0,0,0-8.857,0L112.12,77.855a6.263,6.263,0,0,0,4.428,10.691h0a6.219,6.219,0,0,0,4.428-1.835l.759-.759v73.121l-.759-.759a6.263,6.263,0,1,0-8.857,8.856l11.451,11.45a6.262,6.262,0,0,0,8.858,0Zm-18.187-13.571a3.263,3.263,0,0,1,4.615-4.614l3.32,3.319a1.5,1.5,0,0,0,2.561-1.061V82.331a1.5,1.5,0,0,0-2.561-1.061l-3.32,3.32a3.242,3.242,0,0,1-2.307.956h0a3.263,3.263,0,0,1-2.308-5.57l11.451-11.451a3.268,3.268,0,0,1,4.615,0l11.451,11.451a3.262,3.262,0,0,1,0,4.614,3.343,3.343,0,0,1-4.615,0l-3.32-3.32a1.5,1.5,0,0,0-2.561,1.061V162.7a1.5,1.5,0,0,0,2.561,1.061l3.319-3.318a3.263,3.263,0,1,1,4.616,4.613L130.307,176.5a3.342,3.342,0,0,1-4.615,0Z" fill="#3f3679"/><path d="M27.323,246.771h-18a1.5,1.5,0,1,0,0,3h18a1.5,1.5,0,1,0,0-3Z" fill="#3f3679"/><path d="M246.68,246.771h-18a1.5,1.5,0,0,0,0,3h18a1.5,1.5,0,0,0,0-3Z" fill="#3f3679"/><path d="M218.479,246.771H37.521a1.5,1.5,0,0,0,0,3H218.479a1.5,1.5,0,0,0,0-3Z" fill="#3f3679"/><path d="M9.32,238.8H246.68a1.5,1.5,0,0,0,0-3H138.57a20.353,20.353,0,0,0,9.333-13.244,102,102,0,0,0,0-200.079,20.315,20.315,0,0,0-39.808,0,102,102,0,0,0,0,200.074A20.354,20.354,0,0,0,117.43,235.8H9.32a1.5,1.5,0,1,0,0,3Zm100.273-28.853c-4.708-4.946-8.921-11.726-12.524-20.232-7.626-18-11.826-41.868-11.826-67.2s4.2-49.2,11.826-67.2c3.6-8.508,7.815-15.289,12.523-20.233a20.377,20.377,0,0,0,3.777,5.52A63.39,63.39,0,0,0,103.079,57.86C95.786,75.076,91.77,98.037,91.77,122.514s4.017,47.437,11.309,64.653a63.407,63.407,0,0,0,10.291,17.259A20.378,20.378,0,0,0,109.593,209.945Zm-4.931-1.065a89.46,89.46,0,0,1,0-172.733,76.317,76.317,0,0,0-10.361,18C86.527,72.509,82.243,96.79,82.243,122.514s4.284,50,12.063,68.369A76.393,76.393,0,0,0,104.663,208.879Zm10.943-6.454A60.5,60.5,0,0,1,105.841,186C98.7,169.143,94.77,146.6,94.77,122.514S98.7,75.885,105.841,59.03A60.448,60.448,0,0,1,115.605,42.6a20.177,20.177,0,0,0,24.79,0,60.5,60.5,0,0,1,9.764,16.429c7.14,16.854,11.072,39.4,11.072,63.483S157.3,169.143,150.159,186a60.459,60.459,0,0,1-9.764,16.429,20.177,20.177,0,0,0-24.789,0Zm37.316-15.259c7.292-17.216,11.309-40.177,11.309-64.653s-4.017-47.438-11.309-64.653A63.42,63.42,0,0,0,142.63,40.6a20.365,20.365,0,0,0,3.778-5.521c4.707,4.943,8.918,11.725,12.523,20.234,7.626,18,11.826,41.868,11.826,67.2s-4.2,49.2-11.826,67.2c-3.6,8.509-7.815,15.29-12.523,20.234a20.372,20.372,0,0,0-3.778-5.521A63.373,63.373,0,0,0,152.921,187.167ZM151.328,36.145a89.46,89.46,0,0,1,0,172.737,76.3,76.3,0,0,0,10.364-18c7.779-18.364,12.063-42.646,12.063-68.369s-4.284-50-12.063-68.369A76.322,76.322,0,0,0,151.328,36.145ZM227,122.514a99.128,99.128,0,0,1-78.733,96.893c.014-.308.047-.611.047-.923a20.215,20.215,0,0,0-.757-5.422c.074-.073.147-.152.221-.226a92.459,92.459,0,0,0,0-180.646c-.073-.073-.145-.151-.219-.224a20.215,20.215,0,0,0,.757-5.422c0-.312-.033-.615-.047-.923A99.108,99.108,0,0,1,227,122.514ZM128,9.229a17.314,17.314,0,1,1-17.314,17.314A17.334,17.334,0,0,1,128,9.229ZM29,122.514a99.067,99.067,0,0,1,78.733-96.891c-.014.308-.047.61-.047.921a20.215,20.215,0,0,0,.756,5.419c-.074.073-.147.153-.221.227a92.461,92.461,0,0,0-.005,180.646c.076.075.149.158.225.233a20.215,20.215,0,0,0-.755,5.415c0,.312.033.615.047.923A99.111,99.111,0,0,1,29,122.514Zm81.686,95.97A17.314,17.314,0,1,1,128,235.8,17.333,17.333,0,0,1,110.686,218.483Z" fill="#3f3679"/></svg>