<svg xmlns="http://www.w3.org/2000/svg" viewBox="0 0 256 256"><title>icons_</title><rect x="32.709" y="14.662" width="123.437" height="215.702" rx="17.46" ry="17.46" fill="#63bce7"/><path d="M42.209,212.9V32.122a17.46,17.46,0,0,1,17.46-17.46h-9.5a17.46,17.46,0,0,0-17.46,17.46V212.9a17.46,17.46,0,0,0,17.46,17.46h9.5A17.46,17.46,0,0,1,42.209,212.9Z" fill="#6377e7"/><path d="M32.709,212.909a17.456,17.456,0,0,0,17.456,17.456H138.69a17.456,17.456,0,0,0,17.456-17.456V202.594H32.709Z" fill="#f46275"/><path d="M42.209,212.909V202.594h-9.5v10.315a17.456,17.456,0,0,0,17.456,17.456h9.5A17.456,17.456,0,0,1,42.209,212.909Z" fill="#f43075"/><path d="M156.146,32.118A17.456,17.456,0,0,0,138.69,14.662H50.165A17.456,17.456,0,0,0,32.709,32.118V42.433H156.146Z" fill="#f46275"/><path d="M59.665,14.662h-9.5A17.456,17.456,0,0,0,32.709,32.118V42.433h9.5V32.118A17.456,17.456,0,0,1,59.665,14.662Z" fill="#f43075"/><rect x="72.34" y="25.431" width="43.639" height="6.234" fill="#f8af23"/><circle cx="93.848" cy="216.961" r="5.299" fill="#f8af23"/><path d="M156.144,48.877V96.038l-9.283-10.891a10.82,10.82,0,0,0-15.209-1.212h0a10.82,10.82,0,0,0-1.212,15.209l21.117,24.775s-6.3,26.6,10.311,41.8h46.968l-4.164-57.138c-.5-5.277-3.754-9.741-7.062-13.433Z" fill="#f8af23"/><path d="M204.674,108.576c-.5-5.277-3.754-9.741-7.062-13.432L156.145,48.877v10.6l31.967,35.667c3.309,3.692,6.563,8.156,7.062,13.432l4.164,57.138h9.5Z" fill="#f8d323"/><rect x="141.096" y="165.714" width="82.195" height="29.176" fill="#9e9e9e"/><rect x="213.791" y="165.714" width="9.5" height="29.176" fill="#cecece"/><rect x="145.966" y="194.891" width="72.454" height="35.474" fill="#63bce7"/><rect x="208.92" y="194.891" width="9.5" height="35.474" fill="#63e2e7"/><path d="M72.341,33.165h43.639a1.5,1.5,0,0,0,1.5-1.5V25.431a1.5,1.5,0,0,0-1.5-1.5H72.341a1.5,1.5,0,0,0-1.5,1.5v6.234A1.5,1.5,0,0,0,72.341,33.165Zm1.5-6.234h40.639v3.234H73.841Z" fill="#3f3679"/><path d="M93.849,210.162a6.8,6.8,0,1,0,6.8,6.8A6.806,6.806,0,0,0,93.849,210.162Zm0,10.6a3.8,3.8,0,1,1,3.8-3.8A3.8,3.8,0,0,1,93.849,220.761Z" fill="#3f3679"/><path d="M56.409,100.042a1.5,1.5,0,0,0,1.5-1.5v-9.6h9.6a1.5,1.5,0,0,0,0-3h-11.1a1.5,1.5,0,0,0-1.5,1.5v11.1A1.5,1.5,0,0,0,56.409,100.042Z" fill="#3f3679"/><path d="M67.51,156.086h-9.6v-9.6a1.5,1.5,0,0,0-3,0v11.1a1.5,1.5,0,0,0,1.5,1.5h11.1a1.5,1.5,0,0,0,0-3Z" fill="#3f3679"/><path d="M132.446,144.984a1.5,1.5,0,0,0-1.5,1.5v9.6h-9.6a1.5,1.5,0,0,0,0,3h11.1a1.5,1.5,0,0,0,1.5-1.5v-11.1A1.5,1.5,0,0,0,132.446,144.984Z" fill="#3f3679"/><path d="M87.586,95.3H67.51a1.5,1.5,0,0,0-1.5,1.5v20.076a1.5,1.5,0,0,0,1.5,1.5H87.586a1.5,1.5,0,0,0,1.5-1.5V96.8A1.5,1.5,0,0,0,87.586,95.3Zm-1.5,20.076H69.01V98.3H86.086Z" fill="#3f3679"/><path d="M101.269,118.374h20.076a1.5,1.5,0,0,0,1.5-1.5V96.8a1.5,1.5,0,0,0-1.5-1.5H101.269a1.5,1.5,0,0,0-1.5,1.5v20.076A1.5,1.5,0,0,0,101.269,118.374Zm1.5-20.076h17.076v17.076H102.769Z" fill="#3f3679"/><path d="M87.586,126.652H67.51a1.5,1.5,0,0,0-1.5,1.5v20.077a1.5,1.5,0,0,0,1.5,1.5H87.586a1.5,1.5,0,0,0,1.5-1.5V128.152A1.5,1.5,0,0,0,87.586,126.652Zm-1.5,20.077H69.01V129.652H86.086Z" fill="#3f3679"/><path d="M122.845,148.229V128.152a1.5,1.5,0,1,0-3,0v18.577H101.269a1.5,1.5,0,1,0,0,3h20.076A1.5,1.5,0,0,0,122.845,148.229Z" fill="#3f3679"/><path d="M74.251,111.633h6.594a1.5,1.5,0,0,0,1.5-1.5v-6.594a1.5,1.5,0,0,0-1.5-1.5H74.251a1.5,1.5,0,0,0-1.5,1.5v6.594A1.5,1.5,0,0,0,74.251,111.633Zm1.5-6.594h3.594v3.594H75.751Z" fill="#3f3679"/><path d="M101.269,136.246h6.594a1.5,1.5,0,0,0,1.5-1.5v-6.594a1.5,1.5,0,0,0-1.5-1.5h-6.594a1.5,1.5,0,0,0-1.5,1.5v6.594A1.5,1.5,0,0,0,101.269,136.246Zm1.5-6.594h3.594v3.594h-3.594Z" fill="#3f3679"/><path d="M115.726,105.336h-8.838a1.5,1.5,0,0,0,0,3h8.838a1.5,1.5,0,0,0,0-3Z" fill="#3f3679"/><path d="M73.129,139.691h8.838a1.5,1.5,0,0,0,0-3H73.129a1.5,1.5,0,0,0,0,3Z" fill="#3f3679"/><path d="M113.27,128.152v11h-3.48a1.5,1.5,0,0,0,0,3h4.98a1.5,1.5,0,0,0,1.5-1.5v-12.5a1.5,1.5,0,1,0-3,0Z" fill="#3f3679"/><path d="M104.565,142.147a1.5,1.5,0,0,0,0-3h-3.9a1.5,1.5,0,1,0,0,3Z" fill="#3f3679"/><path d="M56.409,138.358a1.5,1.5,0,0,0,1.5-1.5V108.449a1.5,1.5,0,0,0-3,0v28.409A1.5,1.5,0,0,0,56.409,138.358Z" fill="#3f3679"/><path d="M132.446,106.949a1.5,1.5,0,0,0-1.5,1.5v28.409a1.5,1.5,0,0,0,3,0V108.449A1.5,1.5,0,0,0,132.446,106.949Z" fill="#3f3679"/><path d="M199.076,181.165a1.5,1.5,0,0,0,0,3h9.762a1.5,1.5,0,0,0,0-3Z" fill="#3f3679"/><path d="M27.323,239.838h-18a1.5,1.5,0,0,0,0,3h18a1.5,1.5,0,1,0,0-3Z" fill="#3f3679"/><path d="M246.68,239.838h-18a1.5,1.5,0,0,0,0,3h18a1.5,1.5,0,0,0,0-3Z" fill="#3f3679"/><path d="M218.479,239.838H37.521a1.5,1.5,0,0,0,0,3H218.479a1.5,1.5,0,0,0,0-3Z" fill="#3f3679"/><path d="M9.32,231.865H246.68a1.5,1.5,0,0,0,0-3H219.921V196.391h3.37a1.5,1.5,0,0,0,1.5-1.5V165.714a1.5,1.5,0,0,0-1.5-1.5H210.233l-4.066-55.779c-.562-5.939-4.271-10.758-7.438-14.292L157.646,48.3V32.118a18.978,18.978,0,0,0-18.956-18.956H50.165A18.978,18.978,0,0,0,31.209,32.118V212.909a18.943,18.943,0,0,0,8.763,15.956H9.32a1.5,1.5,0,0,0,0,3ZM34.209,43.934H154.646V91.966L148,84.175a12.256,12.256,0,0,0-19.944,1.767h-6.715a1.5,1.5,0,0,0,0,3H126.8a12.279,12.279,0,0,0,2.5,11.176l20.636,24.21c-.779,3.848-3.583,20.977,4.722,34.871,0,.039-.011.075-.011.115v4.9H141.1a1.5,1.5,0,0,0-1.5,1.5v29.177a1.5,1.5,0,0,0,1.5,1.5h3.37v4.7H34.209Zm124.1,120.28h-.663v-.787C157.863,163.69,158.08,163.954,158.308,164.214ZM50.169,228.865a15.977,15.977,0,0,1-15.96-15.96v-8.812H144.466v23.669a15.822,15.822,0,0,1-5.78,1.1Zm166.752,0H147.466V196.391h69.455Zm4.87-35.475H142.6v-9.226h45.9a1.5,1.5,0,0,0,0-3H142.6V167.214h79.2Zm-25.3-97.246c2.861,3.192,6.206,7.506,6.684,12.541l4.047,55.528H162.46c-15.229-14.479-9.5-39.694-9.442-39.95a1.5,1.5,0,0,0-.318-1.317L131.582,98.172a9.3,9.3,0,0,1,1.044-13.095A9.321,9.321,0,0,1,145.72,86.12L155,97.011l17.626,20.679a1.5,1.5,0,0,0,2.283-1.945L157.646,95.487V52.8ZM138.686,16.162a15.977,15.977,0,0,1,15.96,15.96v8.812H34.209V32.122a15.977,15.977,0,0,1,15.96-15.96Z" fill="#3f3679"/></svg>