<?xml version="1.0" encoding="utf-8"?>
<!-- Generator: Adobe Illustrator 24.0.1, SVG Export Plug-In . SVG Version: 6.00 Build 0)  -->
<svg version="1.1" id="Layer_1" xmlns="http://www.w3.org/2000/svg" xmlns:xlink="http://www.w3.org/1999/xlink" x="0px" y="0px"
	 viewBox="0 0 512 512" style="enable-background:new 0 0 512 512;" xml:space="preserve">
<style type="text/css">
	.st0{fill:#BFD6DD;}
	.st1{fill:#2F5C72;}
</style>
<g>
	<rect x="190.1" y="444.5" class="st0" width="131.8" height="45"/>
	<rect x="343.3" y="167" class="st1" width="15" height="15"/>
	<circle class="st1" cx="256" cy="467" r="15"/>
	<rect x="190.1" y="375.5" class="st0" width="16.8" height="7.5"/>
	<rect x="221.9" y="371.7" class="st0" width="75.9" height="15"/>
	<rect x="312.9" y="375.5" class="st0" width="9" height="7.5"/>
	<path class="st1" d="M312.9,401.7V398h24v-11.3h90.8v-72.8H263.5v-27.8h94.8V197h-15v74.2H168.7V197h-15v89.2h94.8v42.8h164.2v42.8
		h-75.8v-11.3h-24v-3.8H206.9v3.8h-31.8v11.3H84.3v102.8h90.8v30h161.8v-30h60.8v-15h-60.8v-30H175.1v30H99.3v-72.8h75.8V398h31.8
		v3.8H312.9z M312.9,375.5h9v7.5h-9V375.5z M221.9,371.7h75.9v15h-75.9V371.7z M190.1,444.5h131.8v45H190.1V444.5z M190.1,383v-7.5
		h16.8v7.5H190.1z"/>
	<rect x="412.7" y="459.5" class="st1" width="15" height="15"/>
	<rect x="153.7" y="167" class="st1" width="15" height="15"/>
	<path class="st0" d="M228.7,30v38.7c0,4.1-3.4,7.5-7.5,7.5s-7.5-3.4-7.5-7.5v-7.5V22.5h7.5C225.4,22.5,228.7,25.9,228.7,30z"/>
	<polygon class="st0" points="153.7,22.5 198.7,22.5 198.7,61.2 183.7,61.2 183.7,37.5 168.7,37.5 168.7,107 153.7,107 	"/>
	<polygon class="st0" points="358.3,107 343.3,107 343.3,37.5 328.3,37.5 328.3,61.2 313.3,61.2 313.3,22.5 358.3,22.5 	"/>
	<path class="st0" d="M283.3,30c0-4.1,3.4-7.5,7.5-7.5h7.5v38.7v7.5c0,4.1-3.4,7.5-7.5,7.5s-7.5-3.4-7.5-7.5V30z"/>
	<path class="st1" d="M221.2,7.5h-82.5V122h15v30h15v-30h15V76.2H200c3.1,8.7,11.4,15,21.2,15c12.4,0,22.5-10.1,22.5-22.5V30
		C243.7,17.6,233.6,7.5,221.2,7.5z M198.7,61.2h-15V37.5h-15V107h-15V22.5h45V61.2z M228.7,68.7c0,4.1-3.4,7.5-7.5,7.5
		s-7.5-3.4-7.5-7.5v-7.5V22.5h7.5c4.1,0,7.5,3.4,7.5,7.5V68.7z"/>
	<path class="st1" d="M290.8,7.5c-12.4,0-22.5,10.1-22.5,22.5v38.7c0,12.4,10.1,22.5,22.5,22.5c9.8,0,18.1-6.3,21.2-15h16.3V122h15
		v30h15v-30h15V7.5H290.8z M298.3,61.2v7.5c0,4.1-3.4,7.5-7.5,7.5s-7.5-3.4-7.5-7.5V30c0-4.1,3.4-7.5,7.5-7.5h7.5V61.2z M358.3,107
		h-15V37.5h-15v23.7h-15V22.5h45V107z"/>
</g>
</svg>
