<?xml version="1.0" encoding="utf-8"?>
<!-- Generator: Adobe Illustrator 24.0.1, SVG Export Plug-In . SVG Version: 6.00 Build 0)  -->
<svg version="1.1" id="Layer_1" xmlns="http://www.w3.org/2000/svg" xmlns:xlink="http://www.w3.org/1999/xlink" x="0px" y="0px"
	 viewBox="0 0 512 512" style="enable-background:new 0 0 512 512;" xml:space="preserve">
<style type="text/css">
	.st0{fill:#BFD6DD;}
	.st1{fill:#7FD5F7;}
	.st2{fill:#2F5C72;}
</style>
<g>
	<path class="st0" d="M319.4,256.7c-7-16.9-20.2-30.1-37.1-37.1c-16.9-7-35.6-7-52.5,0c-16.9,7-30.1,20.2-37.1,37.1s-7,35.6,0,52.5
		c7,16.9,20.2,30.1,37.1,37.1s35.6,7,52.5,0C317.2,331.8,333.8,291.6,319.4,256.7z M248.8,319.9h-13.3v-13.3h13.3V319.9z M276.5,262
		h-41v-13.3h41V262z"/>
	<path class="st1" d="M200.3,22.5v146.8h166.3V22.5H200.3z M336.5,139.3h-28.4V52.5h28.4V139.3z"/>
	<rect x="168.8" y="396.5" class="st0" width="174.4" height="93"/>
	<path class="st2" d="M351.5,37.5h-58.4v116.8h58.4V37.5z M336.5,139.3h-28.4V52.5h28.4V139.3z"/>
	<path class="st2" d="M130,454.5c0-11.9-9.7-21.7-21.7-21.7s-21.7,9.7-21.7,21.7s9.7,21.7,21.7,21.7S130,466.5,130,454.5z
		 M101.7,454.5c0-3.7,3-6.7,6.7-6.7s6.7,3,6.7,6.7s-3,6.7-6.7,6.7S101.7,458.2,101.7,454.5z"/>
	<path class="st2" d="M425.3,454.5c0-11.9-9.7-21.7-21.7-21.7c-11.9,0-21.7,9.7-21.7,21.7s9.7,21.7,21.7,21.7
		C415.6,476.2,425.3,466.5,425.3,454.5z M397,454.5c0-3.7,3-6.7,6.7-6.7s6.7,3,6.7,6.7s-3,6.7-6.7,6.7S397,458.2,397,454.5z"/>
	<path class="st2" d="M333.2,250.9c-8.5-20.6-24.6-36.6-45.2-45.2c-20.6-8.6-43.4-8.6-64,0c-20.6,8.5-36.6,24.6-45.2,45.2
		c-8.6,20.6-8.6,43.4,0,64c8.5,20.6,24.6,36.6,45.2,45.2c10.3,4.3,21.2,6.4,32,6.4c10.8,0,21.6-2.1,31.9-6.4
		C330.6,342.5,350.8,293.5,333.2,250.9z M282.2,346.3c-16.9,7-35.5,7-52.5,0s-30.1-20.2-37.1-37.1c-7-16.9-7-35.5,0-52.5
		s20.2-30.1,37.1-37.1c16.9-7,35.5-7,52.5,0c16.9,7,30.1,20.2,37.1,37.1C333.8,291.6,317.2,331.8,282.2,346.3z"/>
	<path class="st2" d="M291.5,233.7h-71V277h71V233.7z M276.5,262h-41v-13.3h41V262z"/>
	<path class="st2" d="M263.8,291.6h-43.3v43.3h43.3V291.6z M248.8,319.9h-13.3v-13.3h13.3V319.9z"/>
	<rect x="183.8" y="417.5" class="st2" width="114.4" height="15"/>
	<rect x="313.2" y="417.5" class="st2" width="15" height="15"/>
	<rect x="213.8" y="453.5" class="st2" width="114.4" height="15"/>
	<rect x="183.8" y="453.5" class="st2" width="15" height="15"/>
	<rect x="58.4" y="67.5" class="st2" width="15" height="15"/>
	<path class="st2" d="M410.4,37.5h-28.8v-30H185.3v30H58.4v15h72.1v131.8h251.1V52.5h21.7l35.4,43.2v393.8h-80.4v-108H153.8v108
		H73.4v-392h-15v407h395.3V90.3L410.4,37.5z M185.3,169.3h-39.8V52.5h39.8V169.3z M366.5,169.3H200.3V22.5h166.3V169.3z
		 M343.2,489.5H168.8v-93h174.4V489.5z"/>
</g>
</svg>
