<?xml version="1.0" encoding="utf-8"?>
<!-- Generator: Adobe Illustrator 24.0.1, SVG Export Plug-In . SVG Version: 6.00 Build 0)  -->
<svg version="1.1" id="Layer_1" xmlns="http://www.w3.org/2000/svg" xmlns:xlink="http://www.w3.org/1999/xlink" x="0px" y="0px"
	 viewBox="0 0 512 512" style="enable-background:new 0 0 512 512;" xml:space="preserve">
<style type="text/css">
	.st0{fill:#BFD6DD;}
	.st1{fill:#F9DE6B;}
	.st2{fill:#2F5C72;}
</style>
<g>
	<polygon class="st0" points="170.7,135 155.7,135 155.7,233.5 148.2,233.5 148.2,248.5 155.7,248.5 155.7,263.5 148.2,263.5 
		148.2,278.5 155.7,278.5 155.7,429.5 356.3,429.5 356.3,142.5 170.7,142.5 	"/>
	<polygon class="st1" points="239.1,256.6 290.1,286 239.1,315.4 	"/>
	<path class="st2" d="M224.1,230.6v110.8l96-55.4L224.1,230.6z M239.1,256.6l51,29.4l-51,29.4V256.6z"/>
	<path class="st2" d="M354,7.5H158c-27.9,0-50.6,22.7-50.6,50.6l0,395.7c0,27.9,22.7,50.6,50.6,50.6H354c27.9,0,50.6-22.7,50.6-50.6
		V58.1C404.6,30.2,381.9,7.5,354,7.5z M279.6,22.5c-2.1,1.9-4,4-5.8,6.3c-4.3,5.5-10.8,8.7-17.8,8.7s-13.5-3.2-17.8-8.7
		c-1.8-2.3-3.7-4.4-5.8-6.3H279.6z M389.6,453.9c0,19.6-16,35.6-35.6,35.6H158c-19.6,0-35.6-16-35.6-35.6l0-395.7
		c0-19.6,16-35.6,35.6-35.6h35.8c12.9,0,25,5.8,32.6,15.5c7.2,9.2,18,14.5,29.6,14.5c11.7,0,22.5-5.3,29.6-14.5
		c7.5-9.7,19.7-15.5,32.6-15.5H354c19.6,0,35.6,16,35.6,35.6V453.9z"/>
	<rect x="199.2" y="459.5" class="st2" width="113.6" height="15"/>
	<rect x="169.2" y="459.5" class="st2" width="15" height="15"/>
	<rect x="327.8" y="459.5" class="st2" width="15" height="15"/>
	<rect x="195.1" y="97.5" class="st2" width="61.7" height="15"/>
	<rect x="271.9" y="97.5" class="st2" width="15" height="15"/>
	<rect x="301.9" y="97.5" class="st2" width="15" height="15"/>
	<rect x="140.7" y="248.5" class="st2" width="15" height="15"/>
	<polygon class="st2" points="140.7,233.5 155.7,233.5 155.7,82.5 356.3,82.5 356.3,127.5 170.7,127.5 170.7,142.5 356.3,142.5 
		356.3,429.5 155.7,429.5 155.7,278.5 140.7,278.5 140.7,444.5 371.3,444.5 371.3,67.5 140.7,67.5 	"/>
	<path class="st2" d="M167.8,286c0,48.6,39.5,88.2,88.2,88.2s88.2-39.5,88.2-88.2c0-22.8-8.7-44.4-24.4-60.9c-3.8-4-8-7.6-12.4-10.8
		l-8.7,12.2c3.7,2.6,7.2,5.7,10.3,9c13.1,13.7,20.2,31.6,20.2,50.5c0,40.3-32.8,73.2-73.2,73.2c-40.3,0-73.2-32.8-73.2-73.2
		c0-40.3,32.8-73.2,73.2-73.2v-15C207.4,197.8,167.8,237.4,167.8,286z"/>
	<path class="st2" d="M275.3,200l-3.3,14.6c4.9,1.1,9.8,2.7,14.4,4.8l6.3-13.6C287.1,203.3,281.3,201.3,275.3,200z"/>
</g>
</svg>
