<?xml version="1.0" encoding="utf-8"?>
<!-- Generator: Adobe Illustrator 24.0.1, SVG Export Plug-In . SVG Version: 6.00 Build 0)  -->
<svg version="1.1" id="Layer_1" xmlns="http://www.w3.org/2000/svg" xmlns:xlink="http://www.w3.org/1999/xlink" x="0px" y="0px"
	 viewBox="0 0 512 512" style="enable-background:new 0 0 512 512;" xml:space="preserve">
<style type="text/css">
	.st0{fill:#BFD6DD;}
	.st1{fill:#2F5C72;}
	.st2{fill:#F9DE6B;}
</style>
<g>
	<circle class="st0" cx="480.4" cy="174.7" r="7.5"/>
	<path class="st0" d="M207.3,287.1c-45.5,0-82.5,37-82.5,82.5s37,82.5,82.5,82.5s82.5-37,82.5-82.5S252.8,287.1,207.3,287.1z
		 M197.8,380.5v-21.8l18.9,10.9L197.8,380.5z"/>
	<path class="st1" d="M207.3,272.1c-53.8,0-97.5,43.7-97.5,97.5s43.7,97.5,97.5,97.5s97.5-43.7,97.5-97.5S261,272.1,207.3,272.1z
		 M207.3,452.1c-45.5,0-82.5-37-82.5-82.5s37-82.5,82.5-82.5s82.5,37,82.5,82.5S252.8,452.1,207.3,452.1z"/>
	<polygon class="st2" points="289.8,227.2 274.8,227.2 274.8,201 259.8,201 259.8,227.2 244.8,227.2 244.8,151.3 229.8,151.3 
		229.8,227.2 214.8,227.2 214.8,101.6 199.8,101.6 199.8,227.2 184.8,227.2 184.8,172.8 169.8,172.8 169.8,227.2 154.8,227.2 
		154.8,131.3 139.8,131.3 139.8,227.2 124.8,227.2 124.8,52.5 289.8,52.5 	"/>
	<path class="st1" d="M109.8,37.5v204.7h195V37.5H109.8z M289.8,227.2h-15V201h-15v26.2h-15v-75.8h-15v75.8h-15V101.6h-15v125.5h-15
		v-54.3h-15v54.3h-15v-95.8h-15v95.8h-15V52.5h165V227.2z"/>
	<circle class="st1" cx="267.3" cy="369.6" r="7.5"/>
	<circle class="st1" cx="207.8" cy="309.6" r="7.5"/>
	<circle class="st1" cx="147.3" cy="369.6" r="7.5"/>
	<circle class="st1" cx="207.3" cy="429.6" r="7.5"/>
	<path class="st1" d="M182.8,332.7v73.8l63.9-36.9L182.8,332.7z M197.8,358.7l18.9,10.9l-18.9,10.9V358.7z"/>
	<path class="st1" d="M502.9,174.7c0-12.4-10.1-22.5-22.5-22.5s-22.5,10.1-22.5,22.5c0,9.8,6.3,18.1,15,21.2v98.7H344.5V189.7h30
		v-45h-30v-15h30v-45h-30V7.5H70.1v30h-30v73.6h30v101.1h15V22.5h244.4v467H85.1V257.2h-15v37.4h-60V401h30v15h30v88.5h274.4V354.6
		h79v-30h-15v15h-64v-30h143.4V195.9C496.6,192.8,502.9,184.5,502.9,174.7z M55.1,96.1V52.5h15v43.6H55.1z M359.5,99.7v15h-15v-15
		H359.5z M359.5,159.7v15h-15v-15H359.5z M25.1,386v-76.4h45V371h-30v15H25.1z M55.1,401v-15h15v15H55.1z M480.4,182.2
		c-4.1,0-7.5-3.4-7.5-7.5s3.4-7.5,7.5-7.5s7.5,3.4,7.5,7.5S484.5,182.2,480.4,182.2z"/>
	<circle class="st0" cx="416" cy="227.2" r="7.5"/>
	<path class="st1" d="M416,204.7c-12.4,0-22.5,10.1-22.5,22.5c0,9.8,6.3,18.1,15,21.2v30.9h15v-30.9c8.7-3.1,15-11.4,15-21.2
		C438.5,214.7,428.4,204.7,416,204.7z M416,234.7c-4.1,0-7.5-3.4-7.5-7.5s3.4-7.5,7.5-7.5s7.5,3.4,7.5,7.5S420.1,234.7,416,234.7z"
		/>
	<rect x="70.1" y="227.2" class="st1" width="15" height="15"/>
	<rect x="139.8" y="101.3" class="st1" width="15" height="15"/>
	<rect x="169.8" y="142.8" class="st1" width="15" height="15"/>
	<rect x="199.8" y="71.6" class="st1" width="15" height="15"/>
	<rect x="229.8" y="121.3" class="st1" width="15" height="15"/>
	<rect x="259.8" y="171" class="st1" width="15" height="15"/>
</g>
</svg>
