<?xml version="1.0" encoding="utf-8"?>
<!-- Generator: Adobe Illustrator 24.0.1, SVG Export Plug-In . SVG Version: 6.00 Build 0)  -->
<svg version="1.1" id="Layer_1" xmlns="http://www.w3.org/2000/svg" xmlns:xlink="http://www.w3.org/1999/xlink" x="0px" y="0px"
	 viewBox="0 0 512 512" style="enable-background:new 0 0 512 512;" xml:space="preserve">
<style type="text/css">
	.st0{fill:#BFD6DD;}
	.st1{fill:#2F5C72;}
</style>
<g>
	<polygon class="st0" points="67.5,206.3 52.5,206.3 52.5,358.2 459.5,358.2 459.5,213.8 67.5,213.8 	"/>
	<g>
		<rect x="187.6" y="168.8" class="st1" width="76.7" height="15"/>
		<rect x="279.4" y="168.8" class="st1" width="15" height="15"/>
		<rect x="309.4" y="168.8" class="st1" width="15" height="15"/>
		<rect x="202.6" y="388.2" class="st1" width="106.7" height="15"/>
		<rect x="324.4" y="388.2" class="st1" width="15" height="15"/>
		<rect x="172.6" y="388.2" class="st1" width="15" height="15"/>
		<rect x="67.5" y="138.8" class="st1" width="15" height="15"/>
		<polygon class="st1" points="97.5,153.8 459.5,153.8 459.5,198.8 67.5,198.8 67.5,213.8 459.5,213.8 459.5,358.2 52.5,358.2 
			52.5,138.8 37.5,138.8 37.5,373.2 474.5,373.2 474.5,138.8 97.5,138.8 		"/>
		<path class="st1" d="M453.9,78.8H58.1c-27.9,0-50.6,22.7-50.6,50.6l0,253.1c0,27.9,22.7,50.6,50.6,50.6h395.7
			c27.9,0,50.6-22.7,50.6-50.6V129.4C504.5,101.5,481.8,78.8,453.9,78.8z M279.6,93.8c-2.1,1.9-4,4-5.8,6.3
			c-4.3,5.5-10.8,8.7-17.8,8.7s-13.5-3.2-17.8-8.7c-1.8-2.3-3.7-4.4-5.8-6.3H279.6z M489.5,382.6c0,19.6-16,35.6-35.6,35.6H58.1
			c-19.6,0-35.6-16-35.6-35.6l0-253.1c0-19.6,16-35.6,35.6-35.6h135.7c12.9,0,25,5.8,32.6,15.5c7.2,9.2,18,14.5,29.6,14.5
			c11.7,0,22.5-5.3,29.6-14.5c7.5-9.7,19.7-15.5,32.6-15.5h135.7c19.6,0,35.6,16,35.6,35.6V382.6z"/>
	</g>
</g>
</svg>
