<?xml version="1.0" encoding="utf-8"?>
<!-- Generator: Adobe Illustrator 24.0.1, SVG Export Plug-In . SVG Version: 6.00 Build 0)  -->
<svg version="1.1" id="Layer_1" xmlns="http://www.w3.org/2000/svg" xmlns:xlink="http://www.w3.org/1999/xlink" x="0px" y="0px"
	 viewBox="0 0 512 512" style="enable-background:new 0 0 512 512;" xml:space="preserve">
<style type="text/css">
	.st0{fill:#BFD6DD;}
	.st1{fill:#2F5C72;}
	.st2{fill:#F9DE6B;}
</style>
<g>
	<path class="st0" d="M296.5,380.9c-2.2-4.9-2.6-10.3-1.1-15.4c1.7-5.6,5.5-10.3,10.7-13.1c5.2-2.8,11.2-3.4,16.8-1.7l14.9,4.5
		l-65.8-65.8c-4.2-4.2-6.5-9.7-6.5-15.6c0-5.9,2.3-11.4,6.5-15.6s9.7-6.5,15.6-6.5c5.9,0,11.4,2.3,15.6,6.5l15.9,15.9
		c1.1-2.1,2.5-4.1,4.2-5.8c8.3-8.3,21.7-8.6,30.3-0.8c1.1-2.1,2.5-4.1,4.2-5.8c4.2-4.2,9.7-6.5,15.6-6.5c5.3,0,10.4,1.9,14.3,5.3
		c1.1-2.1,2.5-4.1,4.2-5.9c4.2-4.2,9.7-6.5,15.6-6.5c5.9,0,11.4,2.3,15.6,6.5l43.8,43.8v-23.9h-7.5v-75.9h-392v-7.5h-15l0,182.3h227
		v7.5H296.5z"/>
	
		<rect x="244.8" y="221.5" transform="matrix(0.7071 -0.7071 0.7071 0.7071 -94.6764 248.2578)" class="st1" width="15" height="33.8"/>
	<rect x="220.6" y="266.7" class="st1" width="33.8" height="15"/>
	
		<rect x="235.4" y="302.4" transform="matrix(0.7071 -0.7071 0.7071 0.7071 -145.24 269.2009)" class="st1" width="33.8" height="15"/>
	<rect x="280.6" y="206.7" class="st1" width="15" height="33.8"/>
	
		<rect x="307" y="230.9" transform="matrix(0.7071 -0.7071 0.7071 0.7071 -73.7327 298.8185)" class="st1" width="33.8" height="15"/>
	<path class="st2" d="M450,404l-69.7-4.7l-65.6-20.8l-0.1,0c-1.8-0.5-3.3-1.8-4.2-3.4c-0.9-1.7-1.1-3.6-0.5-5.4
		c0.5-1.8,1.8-3.3,3.4-4.2c1.7-0.9,3.6-1.1,5.4-0.5l43.4,13l7.3-12.6l-86.6-86.6c-1.3-1.3-2.1-3.1-2.1-5c0-1.9,0.7-3.7,2.1-5
		c1.3-1.3,3.1-2.1,5-2.1c1.9,0,3.7,0.7,5,2.1l76.4,76.4l11-10.2L334,288.8l0,0c-1.3-1.3-2.1-3.1-2.1-5c0-1.9,0.7-3.7,2.1-5
		c2.8-2.8,7.2-2.8,10,0l46.6,46.6l11-10.2l-33.1-33.1c-1.3-1.3-2.1-3.1-2.1-5c0-1.9,0.7-3.7,2.1-5c1.3-1.3,3.1-2.1,5-2.1
		c1.9,0,3.7,0.7,5,2.1l33.5,33.5l11-10.2l-20.4-20.4c-1.3-1.3-2.1-3.1-2.1-5c0-1.9,0.7-3.7,2.1-5c1.3-1.3,3.1-2.1,5-2.1
		c1.9,0,3.7,0.7,5,2.1l53.3,53.3l16.4,53.4L450,404z"/>
	<path class="st1" d="M479.1,310.4l-55.9-55.9c-4.2-4.2-9.7-6.5-15.6-6.5c-5.9,0-11.4,2.3-15.6,6.5c-1.7,1.7-3.2,3.7-4.2,5.9
		c-4-3.4-9-5.3-14.3-5.3c-5.9,0-11.4,2.3-15.6,6.5c-1.7,1.7-3.1,3.7-4.2,5.8c-8.7-7.8-22-7.5-30.3,0.8c-1.7,1.7-3.1,3.7-4.2,5.8
		l-15.9-15.9c-4.2-4.2-9.7-6.5-15.6-6.5c-5.9,0-11.4,2.3-15.6,6.5s-6.5,9.7-6.5,15.6c0,5.9,2.3,11.4,6.5,15.6l65.8,65.8l-14.9-4.5
		c-5.6-1.7-11.6-1.1-16.8,1.7c-5.2,2.8-9,7.4-10.7,13.1c-1.7,5.6-1.1,11.6,1.7,16.8c2.8,5.2,7.4,8.9,13,10.7l67.3,21.3l78.3,5.3
		l43.5-43.5L479.1,310.4z M450,404l-69.7-4.7l-65.6-20.8l-0.1,0c-1.8-0.5-3.3-1.8-4.2-3.4c-0.9-1.7-1.1-3.6-0.5-5.4
		c0.5-1.8,1.8-3.3,3.4-4.2c1.7-0.9,3.6-1.1,5.4-0.5l43.4,13l7.3-12.6l-86.6-86.6c-1.3-1.3-2.1-3.1-2.1-5c0-1.9,0.7-3.7,2.1-5
		c1.3-1.3,3.1-2.1,5-2.1c1.9,0,3.7,0.7,5,2.1l76.4,76.4l11-10.2L334,288.8l0,0c-1.3-1.3-2.1-3.1-2.1-5c0-1.9,0.7-3.7,2.1-5
		c2.8-2.8,7.2-2.8,10,0l46.6,46.6l11-10.2l-33.1-33.1c-1.3-1.3-2.1-3.1-2.1-5c0-1.9,0.7-3.7,2.1-5c1.3-1.3,3.1-2.1,5-2.1
		c1.9,0,3.7,0.7,5,2.1l33.5,33.5l11-10.2l-20.4-20.4c-1.3-1.3-2.1-3.1-2.1-5c0-1.9,0.7-3.7,2.1-5c1.3-1.3,3.1-2.1,5-2.1
		c1.9,0,3.7,0.7,5,2.1l53.3,53.3l16.4,53.4L450,404z"/>
	<rect x="187.6" y="153.6" class="st1" width="76.7" height="15"/>
	<rect x="279.4" y="153.6" class="st1" width="15" height="15"/>
	<rect x="309.4" y="153.6" class="st1" width="15" height="15"/>
	<rect x="202.6" y="403.3" class="st1" width="106.7" height="15"/>
	<rect x="172.6" y="403.3" class="st1" width="15" height="15"/>
	<rect x="67.5" y="123.6" class="st1" width="15" height="15"/>
	<polygon class="st1" points="67.5,198.6 459.5,198.6 459.5,274.5 474.5,274.5 474.5,123.6 97.5,123.6 97.5,138.6 459.5,138.6 
		459.5,183.6 67.5,183.6 	"/>
	<polygon class="st1" points="279.5,373.4 52.5,373.4 52.5,123.6 37.5,123.6 37.5,388.4 279.5,388.4 	"/>
	<rect x="489.5" y="293.6" class="st1" width="15" height="14.8"/>
	<path class="st1" d="M453.9,63.6H58.1c-27.9,0-50.6,22.7-50.6,50.6l0,283.5c0,27.9,22.7,50.6,50.6,50.6h397.7v-15H58.1
		c-19.6,0-35.6-16-35.6-35.6l0-283.5c0-19.6,16-35.6,35.6-35.6h135.7c12.9,0,25,5.8,32.6,15.5c7.2,9.2,18,14.5,29.6,14.5
		c11.7,0,22.5-5.3,29.6-14.5c7.5-9.7,19.7-15.5,32.6-15.5h135.7c19.6,0,35.6,16,35.6,35.6v164.4h15V114.2
		C504.5,86.3,481.8,63.6,453.9,63.6z M273.8,84.9c-4.3,5.5-10.8,8.7-17.8,8.7s-13.5-3.2-17.8-8.7c-1.8-2.3-3.7-4.4-5.8-6.3h47.1
		C277.5,80.5,275.5,82.6,273.8,84.9z"/>
</g>
</svg>
