<?xml version="1.0" encoding="utf-8"?>
<!-- Generator: Adobe Illustrator 24.0.1, SVG Export Plug-In . SVG Version: 6.00 Build 0)  -->
<svg version="1.1" id="Layer_1" xmlns="http://www.w3.org/2000/svg" xmlns:xlink="http://www.w3.org/1999/xlink" x="0px" y="0px"
	 viewBox="0 0 512 512" style="enable-background:new 0 0 512 512;" xml:space="preserve">
<style type="text/css">
	.st0{fill:#7FD5F7;}
	.st1{fill:#BFD6DD;}
	.st2{fill:#2F5C72;}
</style>
<g>
	<path class="st0" d="M242.9,229.8v21.8L182.5,312v-30.6l29.4-29.4v-87h7.5v-30h-30v30h7.5v80.8l-14.4,14.4v-36.8h9.8l-17.3-30
		l-17.3,30h9.8V282l-16.1-16.1v-56.3v-8.3c4.5-2.6,7.5-7.4,7.5-13c0-8.3-6.7-15-15-15c-8.3,0-15,6.7-15,15c0,5.5,3,10.4,7.5,13v70.8
		l31.1,31.1V327l-38.6,38.6l-8.7,8.7c-2.7,2.7-5.1,5.5-7.3,8.5V120.1h122.5v109.8H242.9z"/>
	<path class="st1" d="M392.9,296.2l-86.6-86.6L130.8,384.9c-23.9,23.9-23.9,62.8,0,86.6c23.9,23.9,62.8,23.9,86.6,0l71.5-71.5
		l5.3,5.3l10.6-10.6l-5.3-5.3l10.6-10.6l5.3,5.3l10.6-10.6l-5.3-5.3L392.9,296.2z M174.2,443.7c-8.5,0-15.4-6.9-15.4-15.4
		s6.9-15.4,15.4-15.4s15.4,6.9,15.4,15.4S182.7,443.7,174.2,443.7z"/>
	<path class="st2" d="M174.2,397.8c-16.8,0-30.4,13.6-30.4,30.4c0,16.8,13.6,30.4,30.4,30.4c16.8,0,30.4-13.6,30.4-30.4
		C204.6,411.5,190.9,397.8,174.2,397.8z M189.6,428.3c0,8.5-6.9,15.4-15.4,15.4c-8.5,0-15.4-6.9-15.4-15.4c0-8.5,6.9-15.4,15.4-15.4
		C182.7,412.8,189.6,419.8,189.6,428.3z"/>
	<rect x="182.9" y="56.3" class="st2" width="15" height="15"/>
	
		<rect x="302.7" y="382" transform="matrix(0.7071 -0.7071 0.7071 0.7071 -184.5802 333.3958)" class="st2" width="15" height="15"/>
	<path class="st2" d="M306.3,188.3L182.5,312v-30.6l29.4-29.4v-87h7.5v-30h-30v30h7.5v80.8l-14.4,14.4v-36.8h9.8l-17.3-30l-17.3,30
		h9.8V282l-16.1-16.1v-64.6c4.5-2.6,7.5-7.4,7.5-13c0-8.3-6.7-15-15-15c-8.3,0-15,6.7-15,15c0,5.5,3,10.4,7.5,13v70.8l31.1,31.1V327
		l-47.3,47.3c-2.7,2.7-5.1,5.5-7.3,8.5V120.1h122.5v109.8h15V105.1h-20V7.5H117.9v97.6h-20v323.2h0c0,19.5,7.4,39.1,22.3,53.9
		c29.7,29.7,78.1,29.7,107.9,0l71.5-71.5l-10.6-10.6l-71.5,71.5c-23.9,23.9-62.8,23.9-86.6,0c-23.9-23.9-23.9-62.8,0-86.6
		l175.4-175.4l86.6,86.6l-72.1,72.1l10.6,10.6l82.7-82.7L306.3,188.3z M132.9,22.5h82.6v82.6h-82.6V22.5z"/>
	<rect x="150.4" y="56.3" class="st2" width="15" height="15"/>
</g>
</svg>
