<?xml version="1.0" encoding="utf-8"?>
<!-- Generator: Adobe Illustrator 24.0.1, SVG Export Plug-In . SVG Version: 6.00 Build 0)  -->
<svg version="1.1" id="Layer_1" xmlns="http://www.w3.org/2000/svg" xmlns:xlink="http://www.w3.org/1999/xlink" x="0px" y="0px"
	 viewBox="0 0 512 512" style="enable-background:new 0 0 512 512;" xml:space="preserve">
<style type="text/css">
	.st0{fill:#BFD6DD;}
	.st1{fill:#2F5C72;}
</style>
<g>
	<path class="st0" d="M451.3,146.9H60.7c-21,0-38.2,17.1-38.2,38.2v105H15v15l429.5,0v7.5h15v-7.5h15l0.2,7.5h14.8V185.1
		C489.5,164,472.4,146.9,451.3,146.9z M86,275.1l-6.8,0c-4.5,0-8.2-3.7-8.2-8.2v-81.9c0-4.5,3.7-8.2,8.2-8.2H86V275.1z M116,275.1
		l-15,0v-98.2h15V275.1z M146,275.1l-15,0v-98.2h15V275.1z M304.2,275.1c-27.1,0-49.1-22-49.1-49.1s22-49.1,49.1-49.1
		c27.1,0,49.1,22,49.1,49.1S331.3,275.1,304.2,275.1z M441,215.8c0,4.9-4,8.9-8.9,8.9c-4.9,0-8.9-4-8.9-8.9v-30c0-4.9,4-8.9,8.9-8.9
		c4.9,0,8.9,4,8.9,8.9V215.8z"/>
	<path class="st1" d="M304.2,161.9c-35.3,0-64.1,28.7-64.1,64.1c0,35.3,28.7,64.1,64.1,64.1c35.3,0,64.1-28.7,64.1-64.1
		C368.3,190.7,339.6,161.9,304.2,161.9z M304.2,275.1c-27.1,0-49.1-22-49.1-49.1s22-49.1,49.1-49.1c27.1,0,49.1,22,49.1,49.1
		S331.3,275.1,304.2,275.1z"/>
	<rect x="178.4" y="218.5" class="st1" width="48.4" height="15"/>
	<path class="st1" d="M432.1,161.9c-13.2,0-23.9,10.7-23.9,23.9v30c0,13.2,10.7,23.9,23.9,23.9S456,229,456,215.8v-30
		C456,172.6,445.3,161.9,432.1,161.9z M441,215.8c0,4.9-4,8.9-8.9,8.9c-4.9,0-8.9-4-8.9-8.9v-30c0-4.9,4-8.9,8.9-8.9
		c4.9,0,8.9,4,8.9,8.9V215.8z"/>
	<path class="st1" d="M79.2,161.9c-12.8,0-23.2,10.4-23.2,23.2v81.9c0,12.8,10.4,23.2,23.2,23.2l81.8,0V161.9H79.2z M86,275.1
		l-6.8,0c-4.5,0-8.2-3.7-8.2-8.2v-81.9c0-4.5,3.7-8.2,8.2-8.2H86V275.1z M116,275.1l-15,0v-98.2h15V275.1z M146,275.1l-15,0v-98.2
		h15V275.1z"/>
	<path class="st1" d="M451.3,131.9H60.7c-29.3,0-53.2,23.8-53.2,53.2v105h15v-105c0-21,17.1-38.2,38.2-38.2h390.7
		c21,0,38.2,17.1,38.2,38.2v150h-467v-15h422v-15l-437,0v45h14.8v30h72.4v-30h322.7v30h72.4v-30h14.8v-165
		C504.5,155.8,480.7,131.9,451.3,131.9z M79.7,365.1H37.3v-15h42.4V365.1z M474.7,365.1h-42.4v-15h42.4V365.1z"/>
	<rect x="459.5" y="305.1" class="st1" width="15" height="15"/>
	<path class="st1" d="M337.6,232.9l-14.7-3c-1.8,8.8-9.7,15.2-18.7,15.2c-10.5,0-19.1-8.6-19.1-19.1c0-8.8,6-16.4,14.6-18.5
		l-3.6-14.6c-15.3,3.7-26,17.4-26,33.1c0,18.8,15.3,34.1,34.1,34.1C320.3,260.1,334.4,248.6,337.6,232.9z"/>
	<path class="st1" d="M320.9,216.7l13.1-7.3c-3.2-5.7-7.9-10.4-13.7-13.5l-7.1,13.2C316.4,210.9,319.1,213.5,320.9,216.7z"/>
</g>
</svg>
