<?xml version="1.0" encoding="utf-8"?>
<!-- Generator: Adobe Illustrator 24.0.1, SVG Export Plug-In . SVG Version: 6.00 Build 0)  -->
<svg version="1.1" id="Layer_1" xmlns="http://www.w3.org/2000/svg" xmlns:xlink="http://www.w3.org/1999/xlink" x="0px" y="0px"
	 viewBox="0 0 512 512" style="enable-background:new 0 0 512 512;" xml:space="preserve">
<style type="text/css">
	.st0{fill:#BFD6DD;}
	.st1{fill:#F9DE6B;}
	.st2{fill:#2F5C72;}
</style>
<g>
	<polygon class="st0" points="53.5,208.4 38.5,208.4 38.5,410.9 428.5,410.9 428.5,418.4 443.5,418.4 443.5,410.9 458.5,410.9 
		458.5,418.4 473.5,418.4 473.5,215.9 83.5,215.9 83.5,208.4 68.5,208.4 68.5,215.9 53.5,215.9 	"/>
	<g>
		<rect x="428.5" y="245.9" class="st1" width="15" height="45"/>
		<rect x="368.5" y="245.9" class="st1" width="15" height="15"/>
		<rect x="368.5" y="305.9" class="st1" width="15" height="15"/>
		<rect x="428.5" y="335.9" class="st1" width="15" height="45"/>
		<rect x="368.5" y="365.9" class="st1" width="15" height="15"/>
		<rect x="248.5" y="245.9" class="st1" width="15" height="15"/>
		<polygon class="st1" points="308.5,245.9 323.5,245.9 323.5,320.9 248.5,320.9 248.5,305.9 308.5,305.9 		"/>
		<rect x="308.5" y="365.9" class="st1" width="15" height="15"/>
		<rect x="248.5" y="365.9" class="st1" width="15" height="15"/>
		<rect x="188.5" y="245.9" class="st1" width="15" height="15"/>
		<rect x="188.5" y="305.9" class="st1" width="15" height="15"/>
		<rect x="128.5" y="245.9" class="st1" width="15" height="15"/>
		<rect x="128.5" y="305.9" class="st1" width="15" height="15"/>
		<rect x="68.5" y="365.9" class="st1" width="135" height="15"/>
		<rect x="68.5" y="245.9" class="st1" width="15" height="15"/>
		<rect x="68.5" y="305.9" class="st1" width="15" height="15"/>
	</g>
	<g>
		<path class="st2" d="M230.3,121c16.3-6.6,35-6.6,51.3,0l5.6-13.9c-20.2-8.1-42.4-8.1-62.5,0L230.3,121z"/>
		<path class="st2" d="M256,56.1c23.5,0,46.3,6.3,66.2,18.3l7.7-12.9c-22.2-13.4-47.8-20.4-73.9-20.4c-26.2,0-51.7,7.1-73.9,20.4
			l7.7,12.9C209.7,62.4,232.5,56.1,256,56.1z"/>
		<path class="st2" d="M309,84.1c-16.2-8.5-34.5-13-53-13c-18.5,0-36.8,4.5-53,13l7,13.3c14-7.4,29.9-11.3,46-11.3
			c16.1,0,32,3.9,46,11.3L309,84.1z"/>
		<path class="st2" d="M413.5,305.9h45v-75h-45V305.9z M428.5,245.9h15v45h-15V245.9z"/>
		<path class="st2" d="M353.5,275.9h45v-45h-45V275.9z M368.5,245.9h15v15h-15V245.9z"/>
		<path class="st2" d="M353.5,335.9h45v-45h-45V335.9z M368.5,305.9h15v15h-15V305.9z"/>
		<path class="st2" d="M413.5,395.9h45v-75h-45V395.9z M428.5,335.9h15v45h-15V335.9z"/>
		<path class="st2" d="M353.5,395.9h45v-45h-45V395.9z M368.5,365.9h15v15h-15V365.9z"/>
		<path class="st2" d="M278.5,230.9h-45v45h45V230.9z M263.5,260.9h-15v-15h15V260.9z"/>
		<path class="st2" d="M293.5,290.9h-60v45h105v-105h-45V290.9z M308.5,245.9h15v75h-75v-15h60V245.9z"/>
		<path class="st2" d="M293.5,395.9h45v-45h-45V395.9z M308.5,365.9h15v15h-15V365.9z"/>
		<path class="st2" d="M233.5,395.9h45v-45h-45V395.9z M248.5,365.9h15v15h-15V365.9z"/>
		<path class="st2" d="M173.5,275.9h45v-45h-45V275.9z M188.5,245.9h15v15h-15V245.9z"/>
		<path class="st2" d="M173.5,335.9h45v-45h-45V335.9z M188.5,305.9h15v15h-15V305.9z"/>
		<path class="st2" d="M158.5,230.9h-45v45h45V230.9z M143.5,260.9h-15v-15h15V260.9z"/>
		<path class="st2" d="M158.5,290.9h-45v45h45V290.9z M143.5,320.9h-15v-15h15V320.9z"/>
		<path class="st2" d="M53.5,395.9h165v-45h-165V395.9z M68.5,365.9h135v15h-135V365.9z"/>
		<path class="st2" d="M98.5,230.9h-45v45h45V230.9z M83.5,260.9h-15v-15h15V260.9z"/>
		<path class="st2" d="M98.5,290.9h-45v45h45V290.9z M83.5,320.9h-15v-15h15V320.9z"/>
		<rect x="443.5" y="410.9" class="st2" width="15" height="15"/>
		<rect x="53.5" y="200.9" class="st2" width="15" height="15"/>
		<path class="st2" d="M488.5,211.5l16-16l0-39.6l-110.8,0l-15,15H133.3l-15-15l-110.8,0l0,39.6l16,16v203.8l-16,16l0,39.6l156.5,0
			l15-15h154l15,15l156.5,0l0-39.6l-16-16V211.5z M399.9,170.9l89.6,0l0,18.4l-11.6,11.6h-108L399.9,170.9z M363.7,185.9l-15,15
			H163.3l-15-15H363.7z M157.8,455.9l-135.3,0l0-18.4l11.6-11.6h153.7L157.8,455.9z M194,440.9l15-15h94l15,15H194z M489.5,437.5
			l0,18.4l-135.3,0l-30-30h104.3v-15h-390V205.3l-16-16l0-18.4l89.6,0l30,30H83.5v15h390v205.6L489.5,437.5z"/>
	</g>
</g>
</svg>
