<?xml version="1.0" encoding="utf-8"?>
<!-- Generator: Adobe Illustrator 24.0.1, SVG Export Plug-In . SVG Version: 6.00 Build 0)  -->
<svg version="1.1" id="Layer_1" xmlns="http://www.w3.org/2000/svg" xmlns:xlink="http://www.w3.org/1999/xlink" x="0px" y="0px"
	 viewBox="0 0 512 512" style="enable-background:new 0 0 512 512;" xml:space="preserve">
<style type="text/css">
	.st0{fill:#2F5C72;}
	.st1{fill:#F9DE6B;}
	.st2{fill:#BFD6DD;}
</style>
<g>
	<path class="st0" d="M230.3,87.5c16.3-6.6,35-6.6,51.3,0l5.6-13.9c-20.2-8.1-42.4-8.1-62.5,0L230.3,87.5z"/>
	<path class="st0" d="M256,22.5c23.5,0,46.3,6.3,66.2,18.3l7.7-12.9C307.7,14.6,282.2,7.5,256,7.5c-26.2,0-51.7,7.1-73.9,20.4
		l7.7,12.9C209.7,28.8,232.5,22.5,256,22.5z"/>
	<path class="st0" d="M309,50.5c-16.2-8.5-34.5-13-53-13c-18.5,0-36.8,4.5-53,13l7,13.3c14-7.4,29.9-11.3,46-11.3
		c16.1,0,32,3.9,46,11.3L309,50.5z"/>
	<rect x="220.6" y="444.5" class="st0" width="70.8" height="15"/>
	<rect x="306.4" y="444.5" class="st0" width="15" height="15"/>
	<rect x="190.6" y="444.5" class="st0" width="15" height="15"/>
	<rect x="142.3" y="360.4" class="st0" width="15" height="15"/>
	<rect x="248.5" y="190.6" class="st1" width="15" height="30"/>
	<path class="st2" d="M157.3,233.5c0-51.9,40.3-94.6,91.2-98.4v40.5h-15v60h15v40.8h-91.2V233.5z"/>
	<path class="st2" d="M263.5,276.3v-40.8h15v-60h-15v-40.5c50.9,3.8,91.2,46.5,91.2,98.4v42.8H263.5z"/>
	<path class="st0" d="M256,119.8c-62.7,0-113.7,51-113.7,113.7v111.9h15v-54.1h197.4v128.6c0,38.4-31.2,69.6-69.6,69.6h-58.3
		c-38.4,0-69.6-31.2-69.6-69.6v-29.5h-15v29.5c0,46.6,37.9,84.6,84.6,84.6h58.3c46.6,0,84.6-37.9,84.6-84.6V233.5
		C369.7,170.8,318.7,119.8,256,119.8z M248.5,276.3h-91.2v-42.8c0-51.9,40.3-94.6,91.2-98.4v40.5h-15v60h15V276.3z M248.5,190.6h15
		v30h-15V190.6z M354.7,276.3h-91.2v-40.8h15v-60h-15v-40.5c50.9,3.8,91.2,46.5,91.2,98.4V276.3z"/>
</g>
</svg>
