<?xml version="1.0" encoding="utf-8"?>
<!-- Generator: Adobe Illustrator 24.0.1, SVG Export Plug-In . SVG Version: 6.00 Build 0)  -->
<svg version="1.1" id="Layer_1" xmlns="http://www.w3.org/2000/svg" xmlns:xlink="http://www.w3.org/1999/xlink" x="0px" y="0px"
	 viewBox="0 0 512 512" style="enable-background:new 0 0 512 512;" xml:space="preserve">
<style type="text/css">
	.st0{fill:#BFD6DD;}
	.st1{fill:#F9DE6B;}
	.st2{fill:#2F5C72;}
</style>
<g>
	<polygon class="st0" points="53.5,210.3 38.5,210.3 38.5,412.8 428.5,412.8 428.5,420.3 443.5,420.3 443.5,412.8 458.5,412.8 
		458.5,420.3 473.5,420.3 473.5,217.8 83.5,217.8 83.5,210.3 68.5,210.3 68.5,217.8 53.5,217.8 	"/>
	<g>
		<rect x="428.5" y="247.8" class="st1" width="15" height="45"/>
		<rect x="368.5" y="247.8" class="st1" width="15" height="15"/>
		<rect x="368.5" y="307.8" class="st1" width="15" height="15"/>
		<rect x="428.5" y="337.8" class="st1" width="15" height="45"/>
		<rect x="368.5" y="367.8" class="st1" width="15" height="15"/>
		<rect x="248.5" y="247.8" class="st1" width="15" height="15"/>
		<polygon class="st1" points="308.5,247.8 323.5,247.8 323.5,322.8 248.5,322.8 248.5,307.8 308.5,307.8 		"/>
		<rect x="308.5" y="367.8" class="st1" width="15" height="15"/>
		<rect x="248.5" y="367.8" class="st1" width="15" height="15"/>
		<rect x="188.5" y="247.8" class="st1" width="15" height="15"/>
		<rect x="188.5" y="307.8" class="st1" width="15" height="15"/>
		<rect x="128.5" y="247.8" class="st1" width="15" height="15"/>
		<rect x="128.5" y="307.8" class="st1" width="15" height="15"/>
		<rect x="68.5" y="367.8" class="st1" width="135" height="15"/>
		<rect x="68.5" y="247.8" class="st1" width="15" height="15"/>
		<rect x="68.5" y="307.8" class="st1" width="15" height="15"/>
	</g>
	<path class="st2" d="M413.5,307.8h45v-75h-45V307.8z M428.5,247.8h15v45h-15V247.8z"/>
	<path class="st2" d="M398.5,232.8h-45v45h45V232.8z M383.5,262.8h-15v-15h15V262.8z"/>
	<path class="st2" d="M353.5,337.8h45v-45h-45V337.8z M368.5,307.8h15v15h-15V307.8z"/>
	<path class="st2" d="M413.5,397.8h45v-75h-45V397.8z M428.5,337.8h15v45h-15V337.8z"/>
	<path class="st2" d="M353.5,397.8h45v-45h-45V397.8z M368.5,367.8h15v15h-15V367.8z"/>
	<path class="st2" d="M233.5,232.8v45h45v-45H233.5z M263.5,262.8h-15v-15h15V262.8z"/>
	<path class="st2" d="M233.5,337.8h105v-105h-45v60h-60V337.8z M248.5,307.8h60v-60h15v75h-75V307.8z"/>
	<path class="st2" d="M338.5,397.8v-45h-45v45H338.5z M308.5,367.8h15v15h-15V367.8z"/>
	<path class="st2" d="M233.5,397.8h45v-45h-45V397.8z M248.5,367.8h15v15h-15V367.8z"/>
	<path class="st2" d="M218.5,232.8h-45v45h45V232.8z M203.5,262.8h-15v-15h15V262.8z"/>
	<path class="st2" d="M173.5,337.8h45v-45h-45V337.8z M188.5,307.8h15v15h-15V307.8z"/>
	<path class="st2" d="M158.5,232.8h-45v45h45V232.8z M143.5,262.8h-15v-15h15V262.8z"/>
	<path class="st2" d="M113.5,337.8h45v-45h-45V337.8z M128.5,307.8h15v15h-15V307.8z"/>
	<path class="st2" d="M218.5,352.8h-165v45h165V352.8z M203.5,382.8h-135v-15h135V382.8z"/>
	<path class="st2" d="M98.5,232.8h-45v45h45V232.8z M83.5,262.8h-15v-15h15V262.8z"/>
	<path class="st2" d="M98.5,292.8h-45v45h45V292.8z M83.5,322.8h-15v-15h15V322.8z"/>
	<path class="st2" d="M230.3,164.1c16.3-6.6,35-6.6,51.3,0l5.6-13.9c-20.2-8.1-42.4-8.1-62.5,0L230.3,164.1z"/>
	<path class="st2" d="M256,99.2c23.5,0,46.3,6.3,66.2,18.3l7.7-12.9c-22.2-13.4-47.8-20.4-73.9-20.4c-26.2,0-51.7,7.1-73.9,20.4
		l7.7,12.9C209.7,105.5,232.5,99.2,256,99.2z"/>
	<path class="st2" d="M309,127.2c-16.2-8.5-34.5-13-53-13c-18.5,0-36.8,4.5-53,13l7,13.3c14-7.4,29.9-11.3,46-11.3
		c16.1,0,32,3.9,46,11.3L309,127.2z"/>
	<rect x="53.5" y="202.8" class="st2" width="15" height="15"/>
	<polygon class="st2" points="83.5,202.8 83.5,217.8 473.5,217.8 473.5,427.8 488.5,427.8 488.5,202.8 	"/>
	<polygon class="st2" points="38.5,202.8 23.5,202.8 23.5,427.8 428.5,427.8 428.5,412.8 38.5,412.8 	"/>
	<rect x="443.5" y="412.8" class="st2" width="15" height="15"/>
</g>
</svg>
