<svg id="Layer_1" data-name="Layer 1" xmlns="http://www.w3.org/2000/svg" viewBox="0 0 128 128"><title>ACUTION</title><circle cx="50.771" cy="77.229" r="35.271" style="fill:#74ac01"/><path d="M46.6,42.212a35.264,35.264,0,0,0,0,70.035,35.264,35.264,0,0,0,0-70.035Z" style="fill:#92be00"/><path d="M50.787,106.682H50.77a29.7,29.7,0,0,1-5.081-.437,1.75,1.75,0,1,1,.6-3.447,26.248,26.248,0,0,0,4.48.385h.016a26.131,26.131,0,0,0,4.515-.394,1.75,1.75,0,0,1,.607,3.447A29.647,29.647,0,0,1,50.787,106.682Zm-13.841-3.689a1.742,1.742,0,0,1-.873-.234A29.508,29.508,0,0,1,28.237,96.2a1.75,1.75,0,1,1,2.676-2.256,26.011,26.011,0,0,0,6.91,5.786,1.75,1.75,0,0,1-.877,3.266Zm27.693-.025a1.75,1.75,0,0,1-.879-3.264,26.039,26.039,0,0,0,6.9-5.8,1.75,1.75,0,0,1,2.68,2.25,29.49,29.49,0,0,1-7.822,6.576A1.742,1.742,0,0,1,64.64,102.967ZM24.749,88.5a1.75,1.75,0,0,1-1.644-1.148A29.363,29.363,0,0,1,21.318,77.29a1.75,1.75,0,0,1,1.746-1.754h0a1.75,1.75,0,0,1,1.75,1.746,25.871,25.871,0,0,0,1.574,8.87A1.75,1.75,0,0,1,24.749,88.5Zm52.062-.051A1.75,1.75,0,0,1,75.166,86.1a25.875,25.875,0,0,0,1.557-8.875v-.114a1.75,1.75,0,0,1,3.5,0v.069A29.418,29.418,0,0,1,78.455,87.3,1.751,1.751,0,0,1,76.811,88.453ZM24.712,69.56a1.75,1.75,0,0,1-1.646-2.345,29.306,29.306,0,0,1,5.1-8.863A1.75,1.75,0,1,1,30.85,60.6,25.845,25.845,0,0,0,26.357,68.4,1.749,1.749,0,0,1,24.712,69.56Zm52.06-.158a1.75,1.75,0,0,1-1.642-1.145,25.915,25.915,0,0,0-4.537-7.779,1.75,1.75,0,1,1,2.672-2.26,29.364,29.364,0,0,1,5.148,8.828A1.75,1.75,0,0,1,76.771,69.4ZM36.856,55.021a1.75,1.75,0,0,1-.883-3.263,29.171,29.171,0,0,1,9.6-3.523,1.75,1.75,0,0,1,.613,3.445,25.688,25.688,0,0,0-8.452,3.1A1.744,1.744,0,0,1,36.856,55.021Zm27.686-.083a1.735,1.735,0,0,1-.869-.232A25.722,25.722,0,0,0,55.2,51.653a1.75,1.75,0,1,1,.594-3.449,29.214,29.214,0,0,1,9.622,3.467,1.75,1.75,0,0,1-.873,3.268Z" style="fill:#fff"/><path d="M94.266,71.322H90.451V69.6l3.816-4.536h1.826V69.7h.946v1.625h-.946v1.409H94.266Zm0-1.625V67.325L92.25,69.7Z" style="fill:#292929"/><path d="M98.54,65.191h4.973v1.672h-3.368l-.181,1.131a3.689,3.689,0,0,1,.692-.247,2.931,2.931,0,0,1,.677-.082,2.524,2.524,0,0,1,1.836.684,2.3,2.3,0,0,1,.7,1.723,2.924,2.924,0,0,1-.363,1.4,2.456,2.456,0,0,1-1.029,1.029,3.616,3.616,0,0,1-1.7.355,5.07,5.07,0,0,1-1.278-.141,2.606,2.606,0,0,1-.906-.423,2.522,2.522,0,0,1-.6-.635,3.338,3.338,0,0,1-.386-.884l2.12-.232a1.287,1.287,0,0,0,.36.774.949.949,0,0,0,.673.265.913.913,0,0,0,.723-.332,1.484,1.484,0,0,0,.285-.99,1.433,1.433,0,0,0-.288-.988.99.99,0,0,0-.767-.313,1.245,1.245,0,0,0-.586.15,1.671,1.671,0,0,0-.462.391l-1.785-.258Z" style="fill:#292929"/><path d="M107.074,65.891a2.32,2.32,0,1,1,2.32-2.32A2.323,2.323,0,0,1,107.074,65.891Zm0-3.5a1.18,1.18,0,1,0,1.18,1.18A1.181,1.181,0,0,0,107.074,62.391Z" style="fill:#292929"/><circle cx="50.771" cy="77.229" r="13.892" style="fill:#fcad02"/><path d="M46.646,63.961a13.9,13.9,0,0,0,0,26.537,13.9,13.9,0,0,0,0-26.537Z" style="fill:#fcca03"/><path d="M112.5,78.979H50.77a1.75,1.75,0,0,1-1.237-2.987l61.729-61.729a1.75,1.75,0,0,1,2.475,2.475L55,75.479h57.5a1.75,1.75,0,0,1,0,3.5Z" style="fill:#292929"/><path d="M112.5,75.479H87.73a36.868,36.868,0,0,0-5.652-18.018,1.75,1.75,0,1,0-2.957,1.871A33.38,33.38,0,0,1,84.23,75.479H79.078a1.667,1.667,0,0,0-1.213,0H66.308a15.557,15.557,0,0,0-3.321-7.992l7.375-7.375a1.74,1.74,0,0,0,.231.365,25.915,25.915,0,0,1,4.537,7.779,1.75,1.75,0,0,0,3.283-1.211,29.364,29.364,0,0,0-5.148-8.828,1.736,1.736,0,0,0-.567-.44l41.04-41.04a1.75,1.75,0,0,0-2.475-2.475L75.681,49.845a37.02,37.02,0,1,0-24.91,64.405A37.133,37.133,0,0,0,87.04,84.688a1.75,1.75,0,0,0-3.43-.7,33.524,33.524,0,1,1-32.84-40.278A33.277,33.277,0,0,1,73.2,52.322L60.512,65.013a15.631,15.631,0,1,0,5.8,13.967h10.34A25.788,25.788,0,0,1,75.166,86.1a1.75,1.75,0,0,0,3.289,1.2,29.275,29.275,0,0,0,1.69-8.322H112.5a1.75,1.75,0,0,0,0-3.5Zm-49.729,0H55l5.5-5.5A12.062,12.062,0,0,1,62.771,75.479Zm-12,13.892a12.142,12.142,0,1,1,7.245-21.862l-8.483,8.483a1.75,1.75,0,0,0,1.237,2.987h12A12.149,12.149,0,0,1,50.771,89.371Z" style="fill:#5d0000"/><path d="M55.3,102.788a26.131,26.131,0,0,1-4.515.394h-.016a26.248,26.248,0,0,1-4.48-.385,1.75,1.75,0,1,0-.6,3.447,29.7,29.7,0,0,0,5.081.438h.018a29.647,29.647,0,0,0,5.121-.446,1.75,1.75,0,0,0-.607-3.447Z" style="fill:#5d0000"/><path d="M30.629,58.131a1.75,1.75,0,0,0-2.465.221,29.306,29.306,0,0,0-5.1,8.863A1.75,1.75,0,1,0,26.357,68.4,25.845,25.845,0,0,1,30.85,60.6,1.749,1.749,0,0,0,30.629,58.131Z" style="fill:#5d0000"/><path d="M70.658,93.9a26.039,26.039,0,0,1-6.9,5.8,1.75,1.75,0,1,0,1.755,3.027,29.49,29.49,0,0,0,7.822-6.576,1.75,1.75,0,0,0-2.68-2.25Z" style="fill:#5d0000"/><path d="M36.856,55.021a1.744,1.744,0,0,0,.879-.237,25.688,25.688,0,0,1,8.452-3.1,1.75,1.75,0,1,0-.613-3.445,29.171,29.171,0,0,0-9.6,3.523,1.75,1.75,0,0,0,.883,3.263Z" style="fill:#5d0000"/><path d="M63.673,54.706a1.75,1.75,0,1,0,1.742-3.035A29.215,29.215,0,0,0,55.793,48.2a1.75,1.75,0,0,0-.594,3.449A25.722,25.722,0,0,1,63.673,54.706Z" style="fill:#5d0000"/><path d="M36.073,102.758a1.75,1.75,0,0,0,1.75-3.031,26.011,26.011,0,0,1-6.91-5.786A1.75,1.75,0,1,0,28.237,96.2,29.508,29.508,0,0,0,36.073,102.758Z" style="fill:#5d0000"/><path d="M23.068,75.536h0a1.75,1.75,0,0,0-1.746,1.754,29.363,29.363,0,0,0,1.787,10.065,1.75,1.75,0,1,0,3.287-1.2,25.871,25.871,0,0,1-1.574-8.87A1.75,1.75,0,0,0,23.068,75.536Z" style="fill:#5d0000"/><path d="M96.092,72.731V71.322h.946V69.7h-.946V65.063H94.266L90.451,69.6v1.723h3.815v1.409ZM92.25,69.7l2.016-2.373V69.7Z" style="fill:#5d0000"/><path d="M100.757,71.585a.949.949,0,0,1-.673-.265,1.286,1.286,0,0,1-.36-.774l-2.12.232a3.337,3.337,0,0,0,.386.884,2.524,2.524,0,0,0,.6.635,2.606,2.606,0,0,0,.906.423,5.067,5.067,0,0,0,1.278.141,3.616,3.616,0,0,0,1.7-.355,2.456,2.456,0,0,0,1.029-1.029,2.924,2.924,0,0,0,.363-1.4,2.3,2.3,0,0,0-.7-1.723,2.524,2.524,0,0,0-1.836-.684,2.931,2.931,0,0,0-.677.082,3.691,3.691,0,0,0-.692.247l.181-1.13h3.368V65.191H98.54l-.664,4.053,1.785.258a1.671,1.671,0,0,1,.462-.391,1.246,1.246,0,0,1,.586-.15.99.99,0,0,1,.767.313,1.433,1.433,0,0,1,.288.988,1.484,1.484,0,0,1-.285.99A.912.912,0,0,1,100.757,71.585Z" style="fill:#5d0000"/><path d="M104.754,63.57a2.32,2.32,0,1,0,2.32-2.32A2.323,2.323,0,0,0,104.754,63.57Zm3.5,0a1.18,1.18,0,1,1-1.18-1.18A1.181,1.181,0,0,1,108.254,63.57Z" style="fill:#5d0000"/></svg>