<svg id="Layer_1" data-name="Layer 1" xmlns="http://www.w3.org/2000/svg" viewBox="0 0 128 128"><title>APARTMENT</title><rect x="25.375" y="92.427" width="20.958" height="20.073" style="fill:#ffd89e"/><rect x="38.708" y="92.427" width="7.625" height="20.073" style="fill:#ffc65c"/><rect x="46.333" y="15.5" width="35.333" height="83.677" style="fill:#e0eff4"/><polygon points="46.333 37.25 15.5 37.25 24.75 22.25 46.333 22.25 46.333 37.25" style="fill:#ff6100"/><polygon points="46.333 64.838 15.5 64.838 24.75 49.838 46.333 49.838 46.333 64.838" style="fill:#ff6100"/><polygon points="46.333 92.427 15.5 92.427 24.75 77.427 46.333 77.427 46.333 92.427" style="fill:#ff6100"/><rect x="25.375" y="37.25" width="20.958" height="12.588" style="fill:#ffd89e"/><rect x="25.375" y="64.838" width="20.958" height="12.588" style="fill:#ffd89e"/><polygon points="81.667 37.25 112.5 37.25 103.25 22.25 81.667 22.25 81.667 37.25" style="fill:#ef3f00"/><polygon points="81.667 64.838 112.5 64.838 103.25 49.838 81.667 49.838 81.667 64.838" style="fill:#ef3f00"/><polygon points="81.667 92.427 112.5 92.427 103.25 77.427 81.667 77.427 81.667 92.427" style="fill:#ef3f00"/><rect x="81.667" y="37.25" width="20.958" height="12.588" transform="translate(184.292 87.088) rotate(-180)" style="fill:#ffd89e"/><rect x="81.667" y="64.838" width="20.958" height="12.588" transform="translate(184.292 142.265) rotate(-180)" style="fill:#ffd89e"/><rect x="81.667" y="92.427" width="20.958" height="20.073" transform="translate(184.292 204.927) rotate(-180)" style="fill:#ffd89e"/><rect x="38.333" y="105.838" width="51.333" height="6.662" style="fill:#cb6f2c"/><rect x="43.096" y="99.177" width="41.807" height="6.662" style="fill:#cb6f2c"/><rect x="54.875" y="22.25" width="18.25" height="8" style="fill:#36cef4"/><rect x="54.875" y="77.427" width="18.25" height="8" style="fill:#36cef4"/><rect x="54.875" y="49.838" width="18.25" height="8" style="fill:#36cef4"/><rect x="95" y="37.25" width="7.625" height="12.588" style="fill:#ffc65c"/><rect x="95" y="64.838" width="7.625" height="12.588" style="fill:#ffc65c"/><rect x="95" y="92.427" width="7.625" height="20.073" style="fill:#ffc65c"/><rect x="38.708" y="37.25" width="7.625" height="12.588" style="fill:#ffc65c"/><rect x="38.708" y="22.25" width="7.625" height="15" style="fill:#ef3f00"/><rect x="73.125" y="15.5" width="8.542" height="82.986" style="fill:#c2dbe5"/><rect x="38.708" y="49.838" width="7.625" height="15" style="fill:#ef3f00"/><rect x="38.708" y="77.427" width="7.625" height="15" style="fill:#ef3f00"/><rect x="38.708" y="64.838" width="7.625" height="12.588" style="fill:#ffc65c"/><polygon points="81.667 49.838 81.667 64.838 104.25 64.838 95 49.838 81.667 49.838" style="fill:#ff6100"/><polygon points="81.667 77.427 81.667 92.427 104.25 92.427 95 77.427 81.667 77.427" style="fill:#ff6100"/><polygon points="81.667 22.25 81.667 37.25 104.25 37.25 95 22.25 81.667 22.25" style="fill:#ff6100"/><path d="M54.875,39h18.25a1.75,1.75,0,0,0,0-3.5H54.875a1.75,1.75,0,0,0,0,3.5Z" style="fill:#fff"/><path d="M73.125,62.25H54.875a1.75,1.75,0,0,0,0,3.5h18.25a1.75,1.75,0,0,0,0-3.5Z" style="fill:#fff"/><path d="M73.125,89H54.875a1.75,1.75,0,0,0,0,3.5h18.25a1.75,1.75,0,0,0,0-3.5Z" style="fill:#fff"/><rect x="82.333" y="105.838" width="7.334" height="6.662" style="fill:#af5819"/><rect x="50.853" y="99.177" width="34.051" height="6.662" style="fill:#af5819"/><path d="M81.667,66.169a1.75,1.75,0,0,0,1.75-1.75v-.838a1.75,1.75,0,0,0-3.5,0v.838A1.75,1.75,0,0,0,81.667,66.169Z" style="fill:#5d0000"/><path d="M54.875,32a1.75,1.75,0,0,0,1.75-1.75V24h14.75v4.5H60.75a1.75,1.75,0,0,0,0,3.5H73.125a1.75,1.75,0,0,0,1.75-1.75v-8a1.75,1.75,0,0,0-1.75-1.75H54.875a1.75,1.75,0,0,0-1.75,1.75v8A1.75,1.75,0,0,0,54.875,32Z" style="fill:#5d0000"/><path d="M54.875,87.177h18.25a1.75,1.75,0,0,0,0-3.5h-16.5v-4.5h16.5a1.75,1.75,0,0,0,0-3.5H54.875a1.75,1.75,0,0,0-1.75,1.75v8A1.75,1.75,0,0,0,54.875,87.177Z" style="fill:#5d0000"/><path d="M54.875,59.588h18.25a1.75,1.75,0,0,0,1.75-1.75v-8a1.75,1.75,0,0,0-1.75-1.75H54.875a1.75,1.75,0,0,0-1.75,1.75v8A1.75,1.75,0,0,0,54.875,59.588Zm1.75-8h14.75v4.5H56.625Z" style="fill:#5d0000"/><path d="M54.875,39h18.25a1.75,1.75,0,0,0,0-3.5H54.875a1.75,1.75,0,0,0,0,3.5Z" style="fill:#5d0000"/><path d="M54.875,65.75h18.25a1.75,1.75,0,0,0,0-3.5H54.875a1.75,1.75,0,0,0,0,3.5Z" style="fill:#5d0000"/><path d="M54.875,92.5h18.25a1.75,1.75,0,0,0,0-3.5H54.875a1.75,1.75,0,0,0,0,3.5Z" style="fill:#5d0000"/><path d="M112.5,110.75h-8.125V99.177a1.75,1.75,0,0,0-3.5,0V110.75H91.417v-4.912a1.75,1.75,0,0,0-1.75-1.75H86.653V99.177a1.75,1.75,0,0,0-1.75-1.75H83.417v-3.25H112.5a1.749,1.749,0,0,0,1.489-2.668l-9.25-15a1.729,1.729,0,0,0-.364-.409V66.588H112.5a1.749,1.749,0,0,0,1.489-2.668l-9.25-15a1.729,1.729,0,0,0-.364-.409V39H112.5a1.749,1.749,0,0,0,1.489-2.668l-9.25-15a1.748,1.748,0,0,0-1.489-.832H89.5a1.75,1.75,0,0,0,0,3.5h12.773l7.092,11.5H83.417v-20a1.75,1.75,0,0,0-1.75-1.75H46.333a1.75,1.75,0,0,0-1.75,1.75v5H24.75a1.748,1.748,0,0,0-1.489.832l-9.25,15A1.749,1.749,0,0,0,15.5,39h8.125v9.511a1.73,1.73,0,0,0-.364.409l-9.25,15A1.749,1.749,0,0,0,15.5,66.588H44.583v9.088H27.125V71.133a1.75,1.75,0,0,0-3.5,0V76.1a1.73,1.73,0,0,0-.364.409l-9.25,15A1.749,1.749,0,0,0,15.5,94.177h8.125V110.75h-2.25a1.75,1.75,0,0,0,0,3.5H112.5a1.75,1.75,0,0,0,0-3.5Zm-35.333-6.662a1.75,1.75,0,0,0,0,3.5h10.75v3.162H40.083v-3.162H69.167a1.75,1.75,0,0,0,0-3.5H44.847v-3.162H83.153v3.162Zm32.2-13.412H83.417v-11.5h18.856ZM100.875,39v9.088H83.417V39ZM48.083,17.25H79.917V57.338a1.75,1.75,0,0,0,3.5,0v-5.75h18.856l7.092,11.5h-19.7a1.75,1.75,0,0,0,0,3.5h11.208v9.088H83.417V70.133a1.75,1.75,0,1,0-3.5,0V97.427H48.083ZM38.333,39a1.75,1.75,0,0,0,0-3.5h-19.7L25.727,24H44.583V48.088H27.125V39Zm-19.7,24.088,7.092-11.5H44.583v11.5Zm7.092,16.088H44.583v11.5H18.635Zm1.4,15H44.583v3.25H43.1a1.75,1.75,0,0,0-1.75,1.75v4.912H38.333a1.75,1.75,0,0,0-1.75,1.75v4.912H27.125Z" style="fill:#5d0000"/><path d="M16.125,110.75H15.5a1.75,1.75,0,0,0,0,3.5h.625a1.75,1.75,0,0,0,0-3.5Z" style="fill:#5d0000"/></svg>