<svg id="Layer_1" data-name="Layer 1" xmlns="http://www.w3.org/2000/svg" viewBox="0 0 128 128"><title>CUSTOMER SUPPORT</title><path d="M109.96,112.5H18.04A39.088,39.088,0,0,1,57.13,73.41H70.87a39.093,39.093,0,0,1,39.09,39.09Z" style="fill:#11afff"/><path d="M54.98,73.471A39.088,39.088,0,0,0,18.04,112.5H91.92A39.089,39.089,0,0,0,54.98,73.471Z" style="fill:#36cef4"/><polygon points="64 78.504 57.058 85.806 64 92.955 70.942 85.806 64 78.504" style="fill:#fcca03"/><path d="M40.188,77.261,54.2,88.02l9.011-7-8.268-7.548A38.871,38.871,0,0,0,40.188,77.261Z" style="fill:#e0eff4"/><path d="M87.812,77.261,73.8,88.02l-9.011-7,8.268-7.548A38.871,38.871,0,0,1,87.812,77.261Z" style="fill:#c2dbe5"/><path d="M79.332,83.77A39.045,39.045,0,0,0,69.2,77l-4.41,4.026,9.011,7Z" style="fill:#e0eff4"/><polygon points="70.942 85.806 64.785 81.022 64 79.5 64 92.955 70.942 85.806" style="fill:#fcad02"/><path d="M56.164,26H71.836A13.146,13.146,0,0,1,84.982,39.146V60.04A20.982,20.982,0,0,1,64,81.022h0A20.982,20.982,0,0,1,43.018,60.04V39.146A13.146,13.146,0,0,1,56.164,26Z" style="fill:#ffc65c"/><path d="M43.018,39.146V60.04A20.976,20.976,0,0,0,59.29,80.472,20.976,20.976,0,0,0,75.561,60.04V39.146A13.146,13.146,0,0,0,62.415,26H56.164A13.146,13.146,0,0,0,43.018,39.146Z" style="fill:#ffd89e"/><path d="M38.26,98.05V112.5h-3.5V98.05a1.75,1.75,0,1,1,3.5,0Z" style="fill:#11afff"/><polygon points="70.318 112.5 57.682 112.5 64 92.955 70.318 112.5" style="fill:#fcad02"/><path d="M57.307,48.507H49.782a1.75,1.75,0,0,0,0,3.5h3.132a2.832,2.832,0,0,0,5.585-.475,1.745,1.745,0,0,0-1.192-3.025Z" style="fill:#292929"/><path d="M78.218,48.507H70.693A1.745,1.745,0,0,0,69.5,51.531a2.832,2.832,0,0,0,5.585.475h3.132a1.75,1.75,0,0,0,0-3.5Z" style="fill:#292929"/><rect x="35.41" y="46.4" width="7.608" height="15.752" style="fill:#292929"/><path d="M70.318,20.58c-36.233-4.9-27.3,29.677-27.3,29.677C48.956,41.665,53.931,45.1,65.54,38.94a11.46,11.46,0,0,0,5.17-5.184,21.336,21.336,0,0,0,1.111,2.617c4.188,8.213,13.161,10.608,13.161,10.608C87.995,21.764,70.318,20.58,70.318,20.58Z" style="fill:#cb6f2c"/><path d="M27.83,54.276a9.906,9.906,0,0,0,9.906,9.906V44.371A9.9,9.9,0,0,0,27.83,54.276Z" style="fill:#ff6100"/><rect x="84.982" y="46.4" width="7.608" height="15.752" transform="translate(177.571 108.552) rotate(180)" style="fill:#292929"/><path d="M100.17,54.276a9.906,9.906,0,0,0-9.906-9.906V64.182A9.9,9.9,0,0,0,100.17,54.276Z" style="fill:#ef3f00"/><path d="M64,72.18a1.75,1.75,0,0,1-.165-3.492l21.6-2.071V62.152a1.75,1.75,0,0,1,3.5,0v6.055a1.75,1.75,0,0,1-1.583,1.742L64.167,72.172C64.11,72.177,64.054,72.18,64,72.18Z" style="fill:#292929"/><circle cx="64" cy="70.43" r="3.453" style="fill:#ff6100"/><polygon points="63.686 112.5 64 92.955 57.682 112.5 63.686 112.5" style="fill:#fcca03"/><path d="M70.318,20.58c-11.226-1.519-18.113.754-22.277,4.612h0c21.041-2.308,22.669,8.564,22.669,8.564a21.333,21.333,0,0,0,1.111,2.617c4.188,8.213,13.161,10.608,13.161,10.608C87.995,21.764,70.318,20.58,70.318,20.58Z" style="fill:#af5819"/><path d="M101,84.9a1.75,1.75,0,1,0-2.58,2.365l.231.254a1.75,1.75,0,0,0,2.6-2.343Z" style="fill:#5d0000"/><path d="M105.386,90.63a1.75,1.75,0,0,0-2.955,1.875,37.178,37.178,0,0,1,5.779,19.951v.044a1.732,1.732,0,0,0,1.75,1.728,1.769,1.769,0,0,0,1.75-1.772A40.668,40.668,0,0,0,105.386,90.63Z" style="fill:#5d0000"/><path d="M91.487,96.3a1.75,1.75,0,0,0-1.75,1.75V112.5a1.75,1.75,0,0,0,3.5,0V98.049A1.75,1.75,0,0,0,91.487,96.3Z" style="fill:#5d0000"/><path d="M36.513,96.3a1.75,1.75,0,0,0-1.75,1.75V112.5a1.75,1.75,0,0,0,3.5,0V98.049A1.75,1.75,0,0,0,36.513,96.3Z" style="fill:#5d0000"/><path d="M59.057,50.257a1.75,1.75,0,0,0-1.75-1.75H49.782a1.75,1.75,0,0,0,0,3.5h3.132a2.832,2.832,0,0,0,5.585-.475A1.74,1.74,0,0,0,59.057,50.257Z" style="fill:#5d0000"/><path d="M69.5,51.531a2.832,2.832,0,0,0,5.585.475h3.132a1.75,1.75,0,1,0,0-3.5H70.693A1.745,1.745,0,0,0,69.5,51.531Z" style="fill:#5d0000"/><path d="M51.19,20.922c-.148.074-.293.149-.438.226a1.75,1.75,0,1,0,1.638,3.093l.366-.188a1.75,1.75,0,0,0-1.565-3.131Z" style="fill:#5d0000"/><path d="M90.265,42.621a1.75,1.75,0,0,0-1.75,1.75v.279H86.955c.587-8.3-1.045-14.844-4.88-19.466A17.9,17.9,0,0,0,70.5,18.839,41.076,41.076,0,0,0,56.856,19a1.75,1.75,0,0,0,.709,3.428,37.668,37.668,0,0,1,12.518-.118c.04,0,.079.009.118.012a14.359,14.359,0,0,1,9.181,5.092c3.266,3.937,4.635,9.7,4.078,17.148a20.231,20.231,0,0,1-10.08-8.988,19.6,19.6,0,0,1-1.019-2.4A1.75,1.75,0,0,0,69.133,33a9.812,9.812,0,0,1-4.413,4.4A44.869,44.869,0,0,1,53.851,41.42c-3.663.947-6.72,1.737-9.768,4.789-.577-4.7-.735-12.97,3.965-18.5A1.75,1.75,0,1,0,45.38,25.44C40.446,31.25,39.986,39.222,40.4,44.65h-.915V37.425c0-11.125,11-20.175,24.515-20.175S88.515,26.3,88.515,37.425a1.75,1.75,0,0,0,3.5,0C92.015,24.371,79.447,13.75,64,13.75S35.985,24.371,35.985,37.425V62.243a8.156,8.156,0,0,1-4.017-13.733,1.75,1.75,0,0,0-2.475-2.475,11.655,11.655,0,0,0,8.242,19.9,1.75,1.75,0,0,0,1.75-1.75V63.9H41.6a22.611,22.611,0,0,0,3.965,9.418A41.075,41.075,0,0,0,16.29,112.5a1.732,1.732,0,0,0,1.75,1.728,1.769,1.769,0,0,0,1.75-1.772,37.516,37.516,0,0,1,28.3-36.2,22.712,22.712,0,0,0,10.774,5.921L54.2,85.809l-6.906-5.3a1.75,1.75,0,0,0-2.131,2.776l7.978,6.124a1.75,1.75,0,0,0,2.139-.006l1.615-1.254,5.119,5.272-5.994,18.543a1.75,1.75,0,1,0,3.33,1.076L64,98.645l4.652,14.393a1.75,1.75,0,1,0,3.33-1.076L65.989,93.419l5.119-5.272L72.723,89.4a1.75,1.75,0,0,0,2.139.006L88,79.32a37.257,37.257,0,0,1,6.126,3.945,1.75,1.75,0,0,0,2.181-2.738,40.959,40.959,0,0,0-13.88-7.2,22.764,22.764,0,0,0,1.874-3.081l3.04-.292a1.75,1.75,0,0,0,1.583-1.742V65.3a1.738,1.738,0,0,0,1.336.633,11.656,11.656,0,1,0,0-23.311ZM88.515,60.4H86.723c0-.121.009-.241.009-.362V48.15h1.783Zm-49.029,0V48.15h1.33c.183,1.129.363,1.939.453,2.318V60.04c0,.122.007.241.009.362ZM64,90.443l-4.326-4.455,4.147-3.22c.06,0,.119,0,.18,0s.119,0,.18,0l4.147,3.22Zm9.8-4.634-4.672-3.628A22.712,22.712,0,0,0,79.9,76.265a36.9,36.9,0,0,1,4.485,1.421ZM64,79.272A19.254,19.254,0,0,1,44.768,60.04V50.822c3.052-4.217,5.688-4.909,9.959-6.013A48.527,48.527,0,0,0,66.36,40.486a14.235,14.235,0,0,0,4.015-3.1c3.585,6.826,10.091,9.839,12.857,10.856v11.8a19.1,19.1,0,0,1-1.306,6.913L68.693,68.221a5.2,5.2,0,1,0,.333,3.484l11-1.055A19.224,19.224,0,0,1,64,79.272ZM92.015,62.243V46.31a8.157,8.157,0,0,1,0,15.933Z" style="fill:#5d0000"/></svg>