<svg id="Layer_1" data-name="Layer 1" xmlns="http://www.w3.org/2000/svg" viewBox="0 0 128 128"><title>DEAL</title><polygon points="63.989 16.537 47.715 25.148 47.715 51.021 58.425 51.021 58.425 39.463 69.553 39.463 69.553 51.021 80.264 51.021 80.264 25.227 63.989 16.537" style="fill:#e0eff4"/><polygon points="80.054 67.547 98.333 94.242 112.5 84.908 112.5 47.742 80.054 67.547" style="fill:#cb6f2c"/><polygon points="47.946 67.547 29.667 94.242 15.5 84.908 15.5 47.742 47.946 67.547" style="fill:#cb6f2c"/><polyline points="94.7 88.936 78.416 97.932 58.5 82.5 69.5 77.229 89.667 84.167 96.277 85.833 94.7 88.936" style="fill:#fcad02"/><path d="M79.718,95.388,68.905,83.272,56.565,73.748,45.64,70.916,33.1,89.235,54.766,109.46l2.1,2.026a3.033,3.033,0,0,0,4.283.243h0a3.033,3.033,0,0,0,.243-4.283l-.091-.033.048-.015,2.179,2.442a3.618,3.618,0,0,0,5.108.29h0a3.618,3.618,0,0,0,.29-5.108l1.32,1.479a3.618,3.618,0,1,0,5.4-4.818l-1.247-1.4.008-.007a3.613,3.613,0,0,0,5.318-4.891Z" style="fill:#ffc65c"/><path d="M62.628,72.075H83.154l10.5,15.333L70.178,83.2A2.974,2.974,0,0,0,68,83.655l-7.2,4.8A9.389,9.389,0,0,1,49.06,87.383h0a3.792,3.792,0,0,1,0-5.447l7.76-7.511A8.348,8.348,0,0,1,62.628,72.075Z" style="fill:#ffd89e"/><polygon points="37.279 61.036 19.523 87.559 29.667 94.242 47.946 67.547 37.279 61.036" style="fill:#e0eff4"/><polygon points="90.721 61.036 108.477 87.559 98.333 94.242 80.054 67.547 90.721 61.036" style="fill:#e0eff4"/><polygon points="42.613 64.377 24.857 90.9 29.667 94.242 47.946 67.547 42.613 64.377" style="fill:#c2dbe5"/><polygon points="85.387 64.377 103.143 90.9 98.333 94.242 80.054 67.547 85.387 64.377" style="fill:#c2dbe5"/><rect x="74.247" y="24.02" width="6.017" height="27.001" style="fill:#c2dbe5"/><rect x="52.403" y="39.463" width="6.017" height="11.558" style="fill:#c2dbe5"/><path d="M84.79,29.376a1.739,1.739,0,0,1-.817-.2L63.867,18.521,44.035,29.162a1.75,1.75,0,1,1-1.654-3.084L63.035,15a1.747,1.747,0,0,1,1.646,0L85.611,26.08a1.75,1.75,0,0,1-.821,3.3Z" style="fill:#ff6100"/><path d="M44.035,29.162,63.867,18.521l14.647,7.76v22.99H71.3V39.463a1.75,1.75,0,0,0-1.75-1.75H58.426a1.75,1.75,0,0,0-1.75,1.75v9.808H49.465V33.25a1.75,1.75,0,0,0-3.5,0V51.021a1.75,1.75,0,0,0,1.75,1.75H58.426a1.75,1.75,0,0,0,1.75-1.75V41.213H67.8v9.808a1.75,1.75,0,0,0,1.75,1.75H80.265a1.75,1.75,0,0,0,1.75-1.75V28.135l1.958,1.037a1.75,1.75,0,1,0,1.639-3.092L64.682,14.991a1.747,1.747,0,0,0-1.646,0L42.381,26.078a1.75,1.75,0,0,0,1.654,3.084Z" style="fill:#5d0000"/><path d="M113.961,83.945a1.747,1.747,0,0,0-2.424-.5l-2.573,1.695-6.3-9.4a1.75,1.75,0,1,0-2.908,1.947l6.281,9.383-7.236,4.767L84.607,71.1l0-.007L82.54,68.081,90.2,63.4l2,2.985a1.75,1.75,0,1,0,2.908-1.947L93.191,61.58l20.222-12.344a1.751,1.751,0,0,0-1.824-2.988L79.142,66.054a1.751,1.751,0,0,0-.532,2.482l1.225,1.789H62.628a10.037,10.037,0,0,0-5.636,1.725l-8.5-2.2.9-1.311a1.751,1.751,0,0,0-.532-2.482L16.412,46.247a1.751,1.751,0,0,0-1.824,2.988L34.81,61.58,22.424,80.08a1.75,1.75,0,1,0,2.908,1.947L37.8,63.4l7.66,4.676L29.194,91.834,16.463,83.447a1.75,1.75,0,1,0-1.926,2.922L28.7,95.7a1.749,1.749,0,0,0,2.407-.473L33.4,91.893l2.7,2.487a1.75,1.75,0,0,0,2.371-2.574l-3.072-2.831,11-16.056,7.471,1.937-6.016,5.823a5.542,5.542,0,0,0,0,7.962,11.2,11.2,0,0,0,13.933,1.271l6.715-4.477,9.923,11.118a1.868,1.868,0,0,1-2.787,2.487h0l-8.106-9.083a1.75,1.75,0,0,0-2.611,2.33l9.427,10.562a1.868,1.868,0,1,1-2.786,2.488l-1.32-1.479h0L60.517,92.977a1.75,1.75,0,1,0-2.611,2.33l9.7,10.873.007.01a1.866,1.866,0,0,1-.149,2.636,1.869,1.869,0,0,1-2.637-.149L54.017,96.56a1.75,1.75,0,1,0-2.611,2.33l8.674,9.72,0,0a1.283,1.283,0,0,1-1.914,1.709c-.028-.032-.059-.063-.089-.093L43.5,96.438a1.75,1.75,0,1,0-2.371,2.574L55.6,112.705a4.79,4.79,0,0,0,6.705.33,4.712,4.712,0,0,0,.924-1.164,5.31,5.31,0,0,0,8.046-2.706,5.314,5.314,0,0,0,6.9-6.139,5.336,5.336,0,0,0,4.2-4.926c.007-.118-.013-.232-.014-.349l11.791-6.515,2.734,3.992A1.749,1.749,0,0,0,99.3,95.7l10.154-6.689h0l4.012-2.643A1.749,1.749,0,0,0,113.961,83.945Zm-32.8,10.469c-.05-.062-.087-.132-.14-.192L73.27,85.534l8.937,1.6a1.75,1.75,0,1,0,.617-3.445L70.487,81.479a4.715,4.715,0,0,0-3.454.72l-7.2,4.8a7.683,7.683,0,0,1-9.556-.872,2.041,2.041,0,0,1,0-2.934l7.76-7.511a6.567,6.567,0,0,1,4.589-1.857h19.6l9.936,14.51Z" style="fill:#5d0000"/><path d="M96.413,69.536a1.751,1.751,0,0,0-.482,2.428l.395.59a1.75,1.75,0,0,0,2.91-1.945l-.395-.59A1.752,1.752,0,0,0,96.413,69.536Z" style="fill:#5d0000"/></svg>