<svg id="Layer_1" data-name="Layer 1" xmlns="http://www.w3.org/2000/svg" viewBox="0 0 128 128"><title>DEVELOPMENT</title><polygon points="63.982 53.885 36.318 68.522 36.318 112.5 54.524 112.5 54.524 92.854 73.44 92.854 73.44 112.5 91.646 112.5 91.646 68.657 63.982 53.885" style="fill:#ffd89e"/><polygon points="82.333 63.31 91.646 68.869 91.646 112.5 82.333 112.5 82.333 63.31" style="fill:#ffc65c"/><rect x="45.167" y="92.854" width="9.358" height="19.646" style="fill:#ffc65c"/><path d="M99.34,74.485a1.745,1.745,0,0,1-.817-.2L63.77,55.869l-34.285,18.4a1.75,1.75,0,1,1-1.654-3.084L62.938,52.343a1.752,1.752,0,0,1,1.646,0l35.576,18.849a1.75,1.75,0,0,1-.821,3.3Z" style="fill:#ff6100"/><path d="M106,47.886V36.84h-6.9a20.581,20.581,0,0,0-1.943-4.687l4.88-4.88-7.811-7.811-4.88,4.88A20.579,20.579,0,0,0,84.665,22.4V15.5H73.619v6.9a20.578,20.578,0,0,0-4.687,1.943l-4.88-4.88-7.811,7.811,4.88,4.88a20.581,20.581,0,0,0-1.943,4.687h-6.9V47.886h6.9a20.579,20.579,0,0,0,1.943,4.687l-4.88,4.88,7.811,7.811,4.88-4.88a20.578,20.578,0,0,0,4.687,1.943v6.9H84.665v-6.9a20.579,20.579,0,0,0,4.687-1.943l4.88,4.88,7.811-7.811-4.88-4.88a20.579,20.579,0,0,0,1.943-4.687ZM79.142,51.893a9.53,9.53,0,1,1,9.53-9.53A9.53,9.53,0,0,1,79.142,51.893Z" style="fill:#36cef4"/><rect x="54.524" y="92.854" width="18.915" height="18.915" style="fill:#cb6f2c"/><rect x="65.608" y="92.854" width="7.832" height="18.915" style="fill:#af5819"/><path d="M95.342,42.363A12.905,12.905,0,1,0,82.437,55.268,12.905,12.905,0,0,0,95.342,42.363Zm-16.2,9.53a9.53,9.53,0,1,1,9.53-9.53A9.53,9.53,0,0,1,79.142,51.893Z" style="fill:#11afff"/><path d="M73.619,24.15a1.75,1.75,0,0,0,1.75-1.75V17.25h7.546V22.4A1.75,1.75,0,0,0,84.2,24.087a18.809,18.809,0,0,1,4.288,1.778,1.75,1.75,0,0,0,2.1-.285l3.643-3.643,5.336,5.336-3.643,3.643a1.751,1.751,0,0,0-.284,2.1,18.84,18.84,0,0,1,1.778,4.288,1.749,1.749,0,0,0,1.687,1.284h5.149v7.546H99.105a1.749,1.749,0,0,0-1.687,1.284,18.84,18.84,0,0,1-1.778,4.288,1.751,1.751,0,0,0,.284,2.1l3.643,3.643L95.01,62.01a1.75,1.75,0,1,0,2.475,2.475l5.795-5.795a1.749,1.749,0,0,0,0-2.475l-3.967-3.967a22.359,22.359,0,0,0,1.083-2.612H106a1.75,1.75,0,0,0,1.75-1.75V36.84A1.75,1.75,0,0,0,106,35.09H100.4a22.359,22.359,0,0,0-1.083-2.612l3.967-3.967a1.749,1.749,0,0,0,0-2.475l-7.811-7.811a1.8,1.8,0,0,0-2.475,0l-3.967,3.967a22.552,22.552,0,0,0-2.612-1.083V15.5a1.75,1.75,0,0,0-1.75-1.75H73.619a1.75,1.75,0,0,0-1.75,1.75v6.9A1.75,1.75,0,0,0,73.619,24.15Z" style="fill:#5d0000"/><path d="M79.142,53.643a11.293,11.293,0,0,0,11.28-11.28,11.455,11.455,0,0,0-.167-1.943,1.75,1.75,0,0,0-3.449.6,7.78,7.78,0,1,1-7.664-6.436,1.75,1.75,0,1,0,0-3.5,11.28,11.28,0,0,0,0,22.559Z" style="fill:#5d0000"/><path d="M84.03,34a1.749,1.749,0,0,0,.19,2.467c.077.066.152.135.227.2a1.75,1.75,0,1,0,2.385-2.562c-.109-.1-.22-.2-.334-.3A1.751,1.751,0,0,0,84.03,34Z" style="fill:#5d0000"/><path d="M112.5,110.75H93.4V77.788a1.75,1.75,0,0,0-3.5,0V110.75H75.189v-17.9a1.75,1.75,0,0,0-1.75-1.75H54.524a1.75,1.75,0,0,0-1.75,1.75V105.5a1.75,1.75,0,0,0,3.5,0V94.6H71.689V110.75H38.068V69.661L56.23,59.915,62.815,66.5a1.749,1.749,0,0,0,2.475,0l3.967-3.967a22.393,22.393,0,0,0,2.612,1.083v5.61a1.75,1.75,0,0,0,1.75,1.75H84.665a1.75,1.75,0,0,0,1.75-1.75v-1.36l12.107,6.415a1.75,1.75,0,0,0,1.639-3.093L86.415,63.905V62.326a1.75,1.75,0,0,0-3.5,0v5.15H75.369v-5.15a1.75,1.75,0,0,0-1.284-1.687A18.835,18.835,0,0,1,69.8,58.861a1.752,1.752,0,0,0-2.1.285l-3.643,3.643-5.337-5.336,3.644-3.642a1.75,1.75,0,0,0,.284-2.1,18.84,18.84,0,0,1-1.778-4.288,1.749,1.749,0,0,0-1.687-1.284H54.029V38.59h5.149a1.749,1.749,0,0,0,1.687-1.284,18.84,18.84,0,0,1,1.778-4.288,1.75,1.75,0,0,0-.284-2.1l-3.644-3.642L65.29,20.7a1.75,1.75,0,0,0-2.475-2.475L55,26.036a1.75,1.75,0,0,0,0,2.475l3.968,3.967a22.319,22.319,0,0,0-1.083,2.612H52.279a1.75,1.75,0,0,0-1.75,1.75V47.886a1.75,1.75,0,0,0,1.75,1.75h5.609a22.319,22.319,0,0,0,1.083,2.612L55,56.215a1.751,1.751,0,0,0-.387.594L27.831,71.183a1.75,1.75,0,1,0,1.654,3.084l5.083-2.728V110.75H22a1.75,1.75,0,0,0,0,3.5h90.5a1.75,1.75,0,0,0,0-3.5Z" style="fill:#5d0000"/><path d="M16.313,110.75H15.5a1.75,1.75,0,0,0,0,3.5h.813a1.75,1.75,0,0,0,0-3.5Z" style="fill:#5d0000"/></svg>