<svg id="Layer_1" data-name="Layer 1" xmlns="http://www.w3.org/2000/svg" viewBox="0 0 128 128"><title>LOAN</title><polygon points="87.691 112.5 19.027 112.5 19.027 15.5 73.193 15.5 87.691 29.999 87.691 112.5" style="fill:#ffd89e"/><rect x="73.193" y="29.999" width="14.499" height="82.501" style="fill:#ffc65c"/><circle cx="87.691" cy="86.16" r="21.282" style="fill:#ef3f00"/><path d="M82.632,65.509a21.256,21.256,0,0,0,0,41.3,21.256,21.256,0,0,0,0-41.3Z" style="fill:#ff6100"/><polygon points="87.691 29.999 73.193 29.999 73.193 15.5 87.691 29.999" style="fill:#ffd89e"/><polygon points="45.459 24.755 31.695 32.037 31.695 53.917 40.753 53.917 40.753 44.143 50.164 44.143 50.164 53.917 59.222 53.917 59.222 32.104 45.459 24.755" style="fill:#e0eff4"/><path d="M89.441,84.632V77.3a3.77,3.77,0,0,1,2.03,3.331,1.75,1.75,0,0,0,3.5,0,7.287,7.287,0,0,0-5.53-7.059V72.316a1.75,1.75,0,0,0-3.5,0v1.255a7.27,7.27,0,0,0,0,14.118v7.332a3.77,3.77,0,0,1-2.03-3.331,1.75,1.75,0,0,0-3.5,0,7.287,7.287,0,0,0,5.53,7.059v1.28a1.75,1.75,0,1,0,3.5,0v-1.28a7.27,7.27,0,0,0,0-14.118Zm-5.53-4a3.77,3.77,0,0,1,2.03-3.331V83.96A3.77,3.77,0,0,1,83.911,80.63Zm5.53,14.391V88.36a3.747,3.747,0,0,1,0,6.661Z" style="fill:#e0eff4"/><rect x="53.359" y="30.035" width="5.863" height="23.882" style="fill:#c2dbe5"/><rect x="34.859" y="44.143" width="5.863" height="9.774" style="fill:#c2dbe5"/><path d="M63.05,35.883a1.739,1.739,0,0,1-.818-.2l-16.875-8.94L28.712,35.67a1.75,1.75,0,0,1-1.655-3.084l17.467-9.373a1.748,1.748,0,0,1,1.647,0l17.7,9.378a1.75,1.75,0,0,1-.821,3.3Z" style="fill:#ff6100"/><path d="M87.691,110.75H20.777V17.25H71.442V30a1.75,1.75,0,0,0,1.75,1.75h6.75a1.75,1.75,0,0,0,0-3.5h-5V19.725l11,11V57.75a1.75,1.75,0,0,0,3.5,0V30a1.75,1.75,0,0,0-.513-1.237l-14.5-14.5a1.75,1.75,0,0,0-1.237-.513H19.027a1.75,1.75,0,0,0-1.75,1.75v97a1.75,1.75,0,0,0,1.75,1.75H87.691a1.75,1.75,0,0,0,0-3.5Z" style="fill:#5d0000"/><path d="M50.164,55.667h9.058a1.75,1.75,0,0,0,1.75-1.75V35.011l1.26.667a1.75,1.75,0,1,0,1.639-3.092l-17.7-9.378a1.748,1.748,0,0,0-1.647,0L27.057,32.586a1.75,1.75,0,0,0,1.655,3.084l16.645-8.932,12.115,6.419v19.01H51.914V44.143a1.75,1.75,0,0,0-1.75-1.75H40.753A1.75,1.75,0,0,0,39,44.143v8.024H33.445v-13a1.75,1.75,0,0,0-3.5,0v14.75a1.75,1.75,0,0,0,1.75,1.75h9.058a1.75,1.75,0,0,0,1.75-1.75V45.893h5.911v8.024A1.75,1.75,0,0,0,50.164,55.667Z" style="fill:#5d0000"/><path d="M67.149,63.09a1.75,1.75,0,0,0-1.75-1.75H48.333a1.75,1.75,0,0,0,0,3.5H65.4A1.75,1.75,0,0,0,67.149,63.09Z" style="fill:#5d0000"/><path d="M41.333,61.34a1.75,1.75,0,0,0,0,3.5h.209a1.75,1.75,0,0,0,0-3.5Z" style="fill:#5d0000"/><path d="M27.747,64.84h6.958a1.75,1.75,0,1,0,0-3.5H27.747a1.75,1.75,0,1,0,0,3.5Z" style="fill:#5d0000"/><path d="M27.747,73.083H45.664a1.75,1.75,0,0,0,0-3.5H27.747a1.75,1.75,0,1,0,0,3.5Z" style="fill:#5d0000"/><path d="M59.222,77.827H27.747a1.75,1.75,0,1,0,0,3.5H59.222a1.75,1.75,0,1,0,0-3.5Z" style="fill:#5d0000"/><path d="M27.747,89.57H45.664a1.75,1.75,0,0,0,0-3.5H27.747a1.75,1.75,0,1,0,0,3.5Z" style="fill:#5d0000"/><path d="M60.972,96.063a1.75,1.75,0,0,0-1.75-1.75H27.747a1.75,1.75,0,1,0,0,3.5H59.222A1.75,1.75,0,0,0,60.972,96.063Z" style="fill:#5d0000"/><path d="M27.884,102.558a1.75,1.75,0,1,0,0,3.5H45.664a1.75,1.75,0,0,0,0-3.5Z" style="fill:#5d0000"/><path d="M101.311,72.16a1.75,1.75,0,1,0,2.441-2.508q-.3-.289-.6-.566A1.75,1.75,0,0,0,100.8,71.68C100.972,71.836,101.143,72,101.311,72.16Z" style="fill:#5d0000"/><path d="M108.057,75.4a1.75,1.75,0,1,0-3.093,1.637A19.51,19.51,0,1,1,95.5,68.25a1.75,1.75,0,1,0,1.4-3.207A23.024,23.024,0,1,0,108.057,75.4Z" style="fill:#5d0000"/><path d="M91.472,80.63a1.75,1.75,0,0,0,3.5,0,7.287,7.287,0,0,0-5.53-7.059V72.316a1.75,1.75,0,0,0-3.5,0v1.255a7.27,7.27,0,0,0,0,14.118v7.332a3.77,3.77,0,0,1-2.03-3.331,1.75,1.75,0,0,0-3.5,0,7.287,7.287,0,0,0,5.53,7.059v1.28a1.75,1.75,0,1,0,3.5,0v-1.28a7.27,7.27,0,0,0,0-14.118V77.3A3.77,3.77,0,0,1,91.472,80.63Zm-7.561,0a3.77,3.77,0,0,1,2.03-3.331V83.96A3.77,3.77,0,0,1,83.911,80.63ZM91.472,91.69a3.77,3.77,0,0,1-2.03,3.331V88.36A3.77,3.77,0,0,1,91.472,91.69Z" style="fill:#5d0000"/></svg>