<svg id="Layer_1" data-name="Layer 1" xmlns="http://www.w3.org/2000/svg" viewBox="0 0 128 128"><title>LOCATION</title><polygon points="63.982 53.885 36.318 68.522 36.318 112.5 54.524 112.5 54.524 92.854 73.44 92.854 73.44 112.5 91.646 112.5 91.646 68.657 63.982 53.885" style="fill:#ffd89e"/><rect x="54.524" y="92.854" width="18.915" height="19.646" style="fill:#cb6f2c"/><rect x="65.696" y="92.854" width="7.743" height="19.646" style="fill:#af5819"/><polygon points="82 62.833 91.646 68.657 91.646 112.141 82 112.141 82 62.833" style="fill:#ffc65c"/><rect x="44.667" y="92.854" width="9.858" height="19.646" style="fill:#ffc65c"/><path d="M78.761,15.5A23.525,23.525,0,0,0,55.236,39.025c0,12.993,23.525,33.709,23.525,33.709s23.525-20.717,23.525-33.709A23.525,23.525,0,0,0,78.761,15.5Zm0,33.986A10.461,10.461,0,1,1,89.221,39.025,10.46,10.46,0,0,1,78.761,49.486Z" style="fill:#ff6100"/><path d="M78.761,72.734s23.525-20.717,23.525-33.709A23.525,23.525,0,0,0,78.761,15.5S112.855,32.969,78.761,72.734Z" style="fill:#ef3f00"/><path d="M80.022,49.4a10.457,10.457,0,1,1-1.261-20.838c-5.781,0-15.886,1.623-15.886,10.468,0,8.655,10.1,10.468,15.886,10.468A8.467,8.467,0,0,0,80.022,49.4Z" style="fill:#ef3f00"/><path d="M77.6,74.048a1.75,1.75,0,0,0,2.313,0c.321-.283,3-2.662,6.46-6.2L89.9,69.71v33.956a1.75,1.75,0,0,0,3.5,0v-32.1l5.127,2.716a1.75,1.75,0,0,0,1.639-3.093L88.884,65.213c6.866-7.406,15.152-18.031,15.152-26.188a25.284,25.284,0,0,0-3.275-12.453A1.75,1.75,0,0,0,97.716,28.3a21.777,21.777,0,0,1,2.82,10.726c0,4.88-3.911,11.987-11.312,20.553A140.4,140.4,0,0,1,78.761,70.369,140.587,140.587,0,0,1,68.3,59.578c-7.4-8.565-11.311-15.673-11.311-20.553A21.786,21.786,0,0,1,87.977,19.29a1.75,1.75,0,1,0,1.482-3.17A25.285,25.285,0,0,0,53.486,39.025C53.486,52.652,76.619,73.181,77.6,74.048Z" style="fill:#5d0000"/><path d="M93.7,23.186a1.75,1.75,0,0,0,2.406-2.541q-.284-.27-.577-.529a1.75,1.75,0,0,0-2.318,2.623Q93.463,22.958,93.7,23.186Z" style="fill:#5d0000"/><path d="M78.761,47.736a8.694,8.694,0,0,1-6.678-3.118A1.75,1.75,0,1,0,69.4,46.866a12.21,12.21,0,1,0-2.851-7.841,1.75,1.75,0,1,0,3.5,0,8.71,8.71,0,1,1,8.71,8.71Z" style="fill:#5d0000"/><path d="M112.5,110.75H75.189v-17.9a1.75,1.75,0,0,0-1.75-1.75H54.524a1.75,1.75,0,0,0-1.75,1.75v11.812a1.75,1.75,0,0,0,3.5,0V94.6H71.689V110.75H38.068V69.661l17.994-9.656a1.75,1.75,0,1,0-1.655-3.084L27.831,71.183a1.75,1.75,0,1,0,1.655,3.084l5.082-2.727V110.75H22.5a1.75,1.75,0,0,0,0,3.5h90a1.75,1.75,0,0,0,0-3.5Z" style="fill:#5d0000"/><path d="M16.625,110.75H15.5a1.75,1.75,0,0,0,0,3.5h1.125a1.75,1.75,0,0,0,0-3.5Z" style="fill:#5d0000"/></svg>