<svg id="Layer_1" data-name="Layer 1" xmlns="http://www.w3.org/2000/svg" viewBox="0 0 128 128"><title>PIGGY BANK</title><path d="M21.691,71.666a4.682,4.682,0,0,1-4.477-3.029,4.482,4.482,0,0,1,.962-4.517,11.732,11.732,0,0,0-2.444.094,1.75,1.75,0,0,1-.465-3.469,11.955,11.955,0,0,1,7.328,1c3.936-.645,6.878,2.4,7.994,4.382a1.75,1.75,0,0,1-3.044,1.727,6.738,6.738,0,0,0-1.529-1.773c.008.038.016.077.024.115a4.346,4.346,0,0,1-2.977,5.285A5.312,5.312,0,0,1,21.691,71.666Zm.242-6.051c-1.1.541-1.643,1.235-1.428,1.83a1.32,1.32,0,0,0,1.656.658c.517-.139.524-.832.447-1.22A2.632,2.632,0,0,0,21.933,65.615Z" style="fill:#ef3f00"/><path d="M111.064,68.769a6.84,6.84,0,0,1-6.189-3.792,28.018,28.018,0,0,0-16.2-14.189V40.414a12.869,12.869,0,0,0-8.9,8.909H55.057A27.946,27.946,0,0,0,27.111,77.268h0a27.917,27.917,0,0,0,12.866,23.522L41.7,112.5h9.056v-3.034a4.263,4.263,0,0,1,4.255-4.251H79.8a2.262,2.262,0,0,1,2.3,2.244V112.5h9.056l1.725-10.55A27.952,27.952,0,0,0,107.6,79.766h3.424a1.472,1.472,0,0,0,1.472-1.472V70.241A1.456,1.456,0,0,0,111.064,68.769Z" style="fill:#ef3f00"/><path d="M98.707,79.766h3.424a1.472,1.472,0,0,0,1.472-1.472V70.241a1.456,1.456,0,0,0-1.436-1.472,6.84,6.84,0,0,1-6.189-3.792,28.018,28.018,0,0,0-16.2-14.189V49.322H55.057A27.946,27.946,0,0,0,27.111,77.268h0a27.916,27.916,0,0,0,12.866,23.522L41.7,112.5h.159v-3.034a4.263,4.263,0,0,1,4.255-4.251H79.8a2.262,2.262,0,0,1,2.3,2.244V112.5h.159l1.725-10.55A27.952,27.952,0,0,0,98.707,79.766Z" style="fill:#ff6100"/><path d="M95.044,66.568a1.75,1.75,0,0,1-1.75-1.75,1.587,1.587,0,1,0-3.175,0,1.75,1.75,0,0,1-3.5,0,5.087,5.087,0,1,1,10.175,0A1.75,1.75,0,0,1,95.044,66.568Z" style="fill:#e0eff4"/><path d="M111.378,72.161a1.122,1.122,0,0,0,1.122,1.122V71.039A1.122,1.122,0,0,0,111.378,72.161Z" style="fill:#ff6100"/><circle cx="63.314" cy="44.553" r="11.564" style="fill:#fcad02"/><circle cx="44.175" cy="27.575" r="7.575" style="fill:#fcad02"/><circle cx="60.675" cy="19.75" r="4.25" style="fill:#fcad02"/><path d="M59.526,33.636a11.55,11.55,0,0,0,0,21.833,11.55,11.55,0,0,0,0-21.833Z" style="fill:#fcca03"/><path d="M54.394,59.359A1.75,1.75,0,0,1,53.7,56a23.3,23.3,0,0,1,9-1.638,23.512,23.512,0,0,1,8.848,1.571,1.75,1.75,0,1,1-1.355,3.227,19.985,19.985,0,0,0-7.493-1.3,20.04,20.04,0,0,0-7.612,1.349A1.739,1.739,0,0,1,54.394,59.359Z" style="fill:#e0eff4"/><path d="M41.283,20.575a7.574,7.574,0,0,0,0,14,7.574,7.574,0,0,0,0-14Z" style="fill:#fcca03"/><path d="M58.55,16.089a4.215,4.215,0,0,0,0,7.321,4.215,4.215,0,0,0,0-7.321Z" style="fill:#fcca03"/><path d="M112.5,110.75h-.625a1.75,1.75,0,0,0,0,3.5h.625a1.75,1.75,0,0,0,0-3.5Z" style="fill:#5d0000"/><path d="M113.295,67.941a3.134,3.134,0,0,0-2.224-.923h-.043a5.109,5.109,0,0,1-4.581-2.812A29.928,29.928,0,0,0,90.423,49.559V40.414A1.751,1.751,0,0,0,88.2,38.729a14.558,14.558,0,0,0-10.133,10.2,1.75,1.75,0,0,0,3.41.787,11.117,11.117,0,0,1,5.443-6.746v7.813a1.752,1.752,0,0,0,1.192,1.659,26.386,26.386,0,0,1,15.189,13.3,8.6,8.6,0,0,0,6.9,4.711,2.832,2.832,0,0,0,.55,3.964v3.593H107.6a1.75,1.75,0,0,0-1.743,1.6A26.1,26.1,0,0,1,92.056,100.4a1.749,1.749,0,0,0-.9,1.263l-1.486,9.083H83.847v-3.292a3.937,3.937,0,0,0-1.209-2.852,4.065,4.065,0,0,0-2.859-1.143H55.011a6.015,6.015,0,0,0-6,6v1.284H15.5a1.75,1.75,0,0,0,0,3.5h90a1.75,1.75,0,0,0,0-3.5H93.212l1.256-7.679a29.579,29.579,0,0,0,14.7-21.556h1.865a3.225,3.225,0,0,0,3.222-3.222V70.241A3.267,3.267,0,0,0,113.295,67.941ZM52.508,109.466a2.482,2.482,0,0,1,.737-1.766,2.512,2.512,0,0,1,1.811-.736H79.8a.571.571,0,0,1,.4.156.454.454,0,0,1,.144.338v3.292H52.508Z" style="fill:#5d0000"/><path d="M90.119,64.818a1.587,1.587,0,1,1,3.175,0,1.75,1.75,0,0,0,3.5,0,5.087,5.087,0,1,0-10.175,0,1.75,1.75,0,0,0,3.5,0Z" style="fill:#5d0000"/><path d="M15.732,64.214a11.732,11.732,0,0,1,2.444-.094,4.482,4.482,0,0,0-.962,4.517,4.682,4.682,0,0,0,4.477,3.029,5.312,5.312,0,0,0,1.372-.182A4.346,4.346,0,0,0,26.04,66.2c-.008-.038-.016-.077-.024-.115a6.446,6.446,0,0,1,1.114,1.159,29.584,29.584,0,0,0,11.229,34.576l.652,4.424a1.75,1.75,0,0,0,1.729,1.5A1.774,1.774,0,0,0,41,107.72a1.75,1.75,0,0,0,1.476-1.986l-.766-5.2a1.752,1.752,0,0,0-.786-1.218A26.192,26.192,0,0,1,51.839,51.271a13.4,13.4,0,0,0,3.7,4.069A16.656,16.656,0,0,0,53.7,56a1.75,1.75,0,1,0,1.393,3.211A20.04,20.04,0,0,1,62.7,57.866a19.985,19.985,0,0,1,7.493,1.3,1.75,1.75,0,0,0,1.355-3.227c-.27-.114-.553-.219-.84-.321A13.313,13.313,0,0,0,59.521,31.787a1.75,1.75,0,0,0,.995,3.355,9.8,9.8,0,1,1-6.817,7.43,1.75,1.75,0,1,0-3.429-.7A13.4,13.4,0,0,0,50,44.553a13.247,13.247,0,0,0,.453,3.385,29.845,29.845,0,0,0-21.8,15.812,7.231,7.231,0,0,0-6.059-2,11.955,11.955,0,0,0-7.328-1,1.75,1.75,0,1,0,.465,3.469Zm6.2,1.4a2.632,2.632,0,0,1,.675,1.269c.077.388.07,1.081-.447,1.22a1.32,1.32,0,0,1-1.656-.658C20.29,66.851,20.835,66.156,21.933,65.615Z" style="fill:#5d0000"/><path d="M53.427,38.311a1.75,1.75,0,0,0,2.468-.183q.129-.149.264-.293a1.75,1.75,0,1,0-2.545-2.4q-.189.2-.37.41A1.75,1.75,0,0,0,53.427,38.311Z" style="fill:#5d0000"/><path d="M44.175,36.9a9.325,9.325,0,1,0-9.325-9.325A9.336,9.336,0,0,0,44.175,36.9Zm0-15.15a5.825,5.825,0,1,1-5.825,5.825A5.832,5.832,0,0,1,44.175,21.75Z" style="fill:#5d0000"/><path d="M60.675,25.75a6.007,6.007,0,0,0,6-6,1.75,1.75,0,0,0-3.5,0,2.5,2.5,0,1,1-2.5-2.5,1.75,1.75,0,0,0,0-3.5,6,6,0,0,0,0,12Z" style="fill:#5d0000"/></svg>