<svg id="Layer_1" data-name="Layer 1" xmlns="http://www.w3.org/2000/svg" viewBox="0 0 128 128"><title>POOL</title><path d="M77.922,94.64a4,4,0,0,1-4-4v-50.9A24.184,24.184,0,0,1,98.078,15.58a4,4,0,1,1,0,8A16.175,16.175,0,0,0,81.922,39.736v50.9A4,4,0,0,1,77.922,94.64Z" style="fill:#ef3f00"/><path d="M38.412,94.64a4,4,0,0,1-4-4v-50.9A24.184,24.184,0,0,1,58.569,15.58a4,4,0,1,1,0,8A16.175,16.175,0,0,0,42.412,39.736v50.9A4,4,0,0,1,38.412,94.64Z" style="fill:#ff6100"/><rect x="42.412" y="39.736" width="31.51" height="5.517" style="fill:#e0eff4"/><rect x="42.412" y="58.403" width="31.51" height="5.517" style="fill:#e0eff4"/><rect x="42.412" y="77.07" width="31.51" height="5.517" style="fill:#e0eff4"/><path d="M15.5,87.988s18.912-11.9,45.5,0c22.3,9.983,34-4.592,51.5-5.4V112.42h-97Z" style="fill:#9ee7f9"/><path d="M61,99.138c-26.588-11.9-45.5,0-45.5,0V112.42h97V93.736C95,94.546,83.3,109.121,61,99.138Z" style="fill:#36cef4"/><rect x="62.569" y="39.736" width="11.353" height="5.517" style="fill:#c2dbe5"/><rect x="62.569" y="58.403" width="11.353" height="5.517" style="fill:#c2dbe5"/><rect x="62.569" y="77.07" width="11.353" height="5.517" style="fill:#c2dbe5"/><path d="M40.442,25.534a1.747,1.747,0,0,0,1.314-.594q.211-.239.426-.47a1.75,1.75,0,1,0-2.564-2.383q-.248.267-.488.54a1.75,1.75,0,0,0,1.313,2.906Z" style="fill:#5d0000"/><path d="M113.708,81.321a1.763,1.763,0,0,0-1.289-.482,43.442,43.442,0,0,0-11.357,2.214,1.75,1.75,0,0,0,1.063,3.334,43.028,43.028,0,0,1,8.626-1.913v7.65c-5.861.554-11.112,2.49-16.2,4.384-9.866,3.674-19.183,7.145-32.838,1.032-16.516-7.393-30.2-5.924-38.761-3.389a1.75,1.75,0,0,0,.992,3.355c8-2.366,20.8-3.727,36.339,3.229a38.329,38.329,0,0,0,15.891,3.643c7.273,0,13.5-2.318,19.6-4.591,4.984-1.856,9.725-3.61,14.976-4.154V112.42a1.75,1.75,0,1,0,3.5,0V82.587A1.746,1.746,0,0,0,113.708,81.321Z" style="fill:#5d0000"/><path d="M95.494,85.007l-.306.114A1.75,1.75,0,0,0,96.413,88.4l.317-.118a1.75,1.75,0,0,0-1.236-3.275Z" style="fill:#5d0000"/><path d="M60.285,89.586c12.294,5.5,21.446,3.822,29.5,1.188A1.75,1.75,0,1,0,88.7,87.448a39.042,39.042,0,0,1-13.03,2.246V39.736A22.432,22.432,0,0,1,98.078,17.33a2.25,2.25,0,0,1,0,4.5A17.926,17.926,0,0,0,80.172,39.736V84a1.75,1.75,0,0,0,3.5,0V39.736A14.423,14.423,0,0,1,98.078,25.33a5.75,5.75,0,0,0,0-11.5A25.935,25.935,0,0,0,72.238,37.986H44.279A14.42,14.42,0,0,1,58.568,25.33a5.75,5.75,0,1,0,0-11.5,25.836,25.836,0,0,0-13.427,3.758,1.75,1.75,0,1,0,1.818,2.99A22.335,22.335,0,0,1,58.568,17.33a2.25,2.25,0,0,1,0,4.5A17.927,17.927,0,0,0,40.662,39.736V81.021c-1.559-.1-3.057-.121-4.5-.089v-41.2a22.152,22.152,0,0,1,2.166-9.606,1.75,1.75,0,1,0-3.16-1.506,25.631,25.631,0,0,0-2.506,11.112V81.125c-10.9.979-17.625,5.087-18.094,5.382a1.749,1.749,0,0,0-.818,1.481V112.42a1.75,1.75,0,0,0,3.5,0V89.014C21.069,87.013,37.884,79.559,60.285,89.586ZM49.49,78.819H72.172v2.018H44.162V65.67h28.01v9.649H49.49a1.75,1.75,0,0,0,0,3.5ZM72.172,43.5H56.833a1.75,1.75,0,0,0,0,3.5H72.172V62.17H44.162V60.153h22a1.75,1.75,0,0,0,0-3.5h-22V47h6.5a1.75,1.75,0,0,0,0-3.5h-6.5V41.486h28.01ZM61.715,86.391c-1.747-.782-3.459-1.461-5.137-2.054H72.172v5.1A37.116,37.116,0,0,1,61.715,86.391Z" style="fill:#5d0000"/></svg>