<?xml version="1.0" encoding="utf-8"?>
<!-- Generator: Adobe Illustrator 22.0.1, SVG Export Plug-In . SVG Version: 6.00 Build 0)  -->
<svg version="1.1" id="Layer_1" xmlns="http://www.w3.org/2000/svg" xmlns:xlink="http://www.w3.org/1999/xlink" x="0px" y="0px"
	 viewBox="0 0 256 256" style="enable-background:new 0 0 256 256;" xml:space="preserve">
<style type="text/css">
	.st0{fill:#3A312A;}
	.st1{fill:#F16C7A;}
	.st2{fill:#D7E057;}
	.st3{fill:#F8E4C8;}
	.st4{fill:#89C4DB;}
	.st5{fill-rule:evenodd;clip-rule:evenodd;fill:#F8E4C8;}
	.st6{fill:#87796F;}
	.st7{fill:#D4DB56;}
	.st8{fill:#F59689;}
	.st9{fill:#6CA6BE;}
	.st10{fill:#695B51;}
	.st11{fill:#F7E3C7;}
	.st12{fill:#8AC6DD;}
	.st13{fill:#6CA8BF;}
	.st14{fill:#D6DF58;}
	.st15{fill:#FAE6CA;}
	.st16{fill:#EF6D7A;}
	.st17{fill:#DDC9AC;}
	.st18{fill:#D24E5C;}
	.st19{fill:#6A5C52;}
	.st20{fill:#B9C239;}
	.st21{fill:#FCE8CB;}
	.st22{fill:#DECAAD;}
	.st23{fill:#D5DE58;}
	.st24{fill:#8AC5DC;}
	.st25{fill:#D34E5C;}
	.st26{fill:#ED6E7A;}
	.st27{fill:#B8C136;}
</style>
<g>
	<g>
		<g>
			<path class="st0" d="M238.617,226.58h-209.5V16.08c0-0.829-0.672-1.5-1.5-1.5c-0.828,0-1.5,0.671-1.5,1.5v212
				c0,0.829,0.672,1.5,1.5,1.5h211c0.828,0,1.5-0.671,1.5-1.5C240.117,227.252,239.445,226.58,238.617,226.58z"/>
		</g>
	</g>
	<g>
		<g>
			<path class="st0" d="M27.617,226.58c-0.828,0-1.5,0.671-1.5,1.5v11.75c0,0.829,0.672,1.5,1.5,1.5c0.828,0,1.5-0.671,1.5-1.5
				v-11.75C29.117,227.252,28.445,226.58,27.617,226.58z"/>
		</g>
	</g>
	<g>
		<g>
			<path class="st0" d="M61.087,226.58c-0.828,0-1.5,0.671-1.5,1.5v11.75c0,0.829,0.672,1.5,1.5,1.5c0.828,0,1.5-0.671,1.5-1.5
				v-11.75C62.587,227.252,61.915,226.58,61.087,226.58z"/>
		</g>
	</g>
	<g>
		<g>
			<path class="st0" d="M94.547,226.58c-0.828,0-1.5,0.671-1.5,1.5v11.75c0,0.829,0.672,1.5,1.5,1.5s1.5-0.671,1.5-1.5v-11.75
				C96.047,227.252,95.375,226.58,94.547,226.58z"/>
		</g>
	</g>
	<g>
		<g>
			<path class="st0" d="M128.017,226.58c-0.828,0-1.5,0.671-1.5,1.5v11.75c0,0.829,0.672,1.5,1.5,1.5s1.5-0.671,1.5-1.5v-11.75
				C129.517,227.252,128.845,226.58,128.017,226.58z"/>
		</g>
	</g>
	<g>
		<g>
			<path class="st0" d="M161.478,226.58c-0.828,0-1.5,0.671-1.5,1.5v11.75c0,0.829,0.672,1.5,1.5,1.5s1.5-0.671,1.5-1.5v-11.75
				C162.978,227.252,162.306,226.58,161.478,226.58z"/>
		</g>
	</g>
	<g>
		<g>
			<path class="st0" d="M194.947,226.58c-0.828,0-1.5,0.671-1.5,1.5v11.75c0,0.829,0.672,1.5,1.5,1.5s1.5-0.671,1.5-1.5v-11.75
				C196.447,227.252,195.775,226.58,194.947,226.58z"/>
		</g>
	</g>
	<g>
		<g>
			<path class="st0" d="M228.407,226.58c-0.828,0-1.5,0.671-1.5,1.5v11.75c0,0.829,0.672,1.5,1.5,1.5s1.5-0.671,1.5-1.5v-11.75
				C229.907,227.252,229.235,226.58,228.407,226.58z"/>
		</g>
	</g>
	<g>
		<g>
			<path class="st0" d="M27.617,226.58h-11.75c-0.828,0-1.5,0.671-1.5,1.5c0,0.829,0.672,1.5,1.5,1.5h11.75
				c0.828,0,1.5-0.671,1.5-1.5C29.117,227.252,28.445,226.58,27.617,226.58z"/>
		</g>
	</g>
	<g>
		<g>
			<path class="st0" d="M27.617,193.11h-11.75c-0.828,0-1.5,0.671-1.5,1.5c0,0.829,0.672,1.5,1.5,1.5h11.75
				c0.828,0,1.5-0.671,1.5-1.5C29.117,193.782,28.445,193.11,27.617,193.11z"/>
		</g>
	</g>
	<g>
		<g>
			<path class="st0" d="M27.617,159.65h-11.75c-0.828,0-1.5,0.671-1.5,1.5s0.672,1.5,1.5,1.5h11.75c0.828,0,1.5-0.671,1.5-1.5
				S28.445,159.65,27.617,159.65z"/>
		</g>
	</g>
	<g>
		<g>
			<path class="st0" d="M27.617,126.18h-11.75c-0.828,0-1.5,0.671-1.5,1.5c0,0.829,0.672,1.5,1.5,1.5h11.75
				c0.828,0,1.5-0.671,1.5-1.5C29.117,126.852,28.445,126.18,27.617,126.18z"/>
		</g>
	</g>
	<g>
		<g>
			<path class="st0" d="M27.617,92.72h-11.75c-0.828,0-1.5,0.671-1.5,1.5s0.672,1.5,1.5,1.5h11.75c0.828,0,1.5-0.671,1.5-1.5
				S28.445,92.72,27.617,92.72z"/>
		</g>
	</g>
	<g>
		<g>
			<path class="st0" d="M27.617,59.25h-11.75c-0.828,0-1.5,0.671-1.5,1.5s0.672,1.5,1.5,1.5h11.75c0.828,0,1.5-0.671,1.5-1.5
				S28.445,59.25,27.617,59.25z"/>
		</g>
	</g>
	<g>
		<g>
			<path class="st0" d="M27.617,25.79h-11.75c-0.828,0-1.5,0.671-1.5,1.5c0,0.829,0.672,1.5,1.5,1.5h11.75
				c0.828,0,1.5-0.671,1.5-1.5C29.117,26.461,28.445,25.79,27.617,25.79z"/>
		</g>
	</g>
	<g>
		<g>
			<rect x="39.049" y="128.955" class="st1" width="36.477" height="99.125"/>
		</g>
	</g>
	<g>
		<g>
			<path class="st0" d="M75.525,127.455H39.049c-0.828,0-1.5,0.671-1.5,1.5v25.374c0,0.829,0.672,1.5,1.5,1.5
				c0.828,0,1.5-0.671,1.5-1.5v-23.874h33.477v96.125H40.549v-58.999c0-0.829-0.672-1.5-1.5-1.5c-0.828,0-1.5,0.671-1.5,1.5v60.499
				c0,0.829,0.672,1.5,1.5,1.5h36.477c0.828,0,1.5-0.671,1.5-1.5v-99.125C77.025,128.127,76.353,127.455,75.525,127.455z"/>
		</g>
	</g>
	<g>
		<g>
			<rect x="89.685" y="80.955" class="st2" width="36.477" height="147.125"/>
		</g>
	</g>
	<g>
		<g>
			<path class="st0" d="M126.162,79.455H89.685c-0.828,0-1.5,0.671-1.5,1.5V228.08c0,0.829,0.672,1.5,1.5,1.5h36.477
				c0.828,0,1.5-0.671,1.5-1.5V80.955C127.662,80.127,126.99,79.455,126.162,79.455z M124.662,226.58H91.185V82.455h33.477V226.58z"
				/>
		</g>
	</g>
	<g>
		<g>
			<rect x="140.322" y="80.955" class="st12" width="36.477" height="147.125"/>
		</g>
	</g>
	<g>
		<g>
			<path class="st0" d="M176.799,99.669c0.828,0,1.5-0.671,1.5-1.5V80.955c0-0.829-0.672-1.5-1.5-1.5h-36.477
				c-0.828,0-1.5,0.671-1.5,1.5V228.08c0,0.829,0.672,1.5,1.5,1.5h36.477c0.828,0,1.5-0.671,1.5-1.5V111.408
				c0-0.829-0.672-1.5-1.5-1.5s-1.5,0.671-1.5,1.5V226.58h-33.477V82.455h33.477v15.714
				C175.299,98.998,175.971,99.669,176.799,99.669z"/>
		</g>
	</g>
	<g>
		<g>
			<rect x="190.959" y="128.955" class="st6" width="36.477" height="99.125"/>
		</g>
	</g>
	<g>
		<g>
			<path class="st0" d="M227.436,127.455h-36.477c-0.828,0-1.5,0.671-1.5,1.5v99.125c0,0.829,0.672,1.5,1.5,1.5h36.477
				c0.828,0,1.5-0.671,1.5-1.5v-99.125C228.936,128.127,228.264,127.455,227.436,127.455z M225.936,226.58h-33.477v-96.125h33.477
				V226.58z"/>
		</g>
	</g>
	<g>
		<g>
			<path class="st2" d="M226.711,26.175c-0.974,11.564-13.024,13.39-13.024,13.39c10.347,0.487,12.925,14.059,12.925,14.059
				c0.221-9.677,13.321-14.202,13.321-14.202C230.12,38.834,226.711,26.175,226.711,26.175z"/>
		</g>
	</g>
	<g>
		<g>
			<path class="st0" d="M240.023,37.924c-8.604-0.514-11.832-12.024-11.863-12.141c-0.19-0.702-0.849-1.164-1.584-1.102
				c-0.725,0.066-1.298,0.642-1.359,1.367c-0.86,10.215-11.313,11.964-11.755,12.033c-0.763,0.115-1.313,0.79-1.273,1.561
				c0.04,0.77,0.657,1.384,1.428,1.421c9.028,0.425,11.499,12.718,11.522,12.842c0.138,0.711,0.76,1.217,1.473,1.217
				c0.042,0,0.084-0.002,0.126-0.005c0.765-0.064,1.357-0.693,1.375-1.459c0.193-8.508,12.191-12.777,12.313-12.819
				c0.676-0.235,1.092-0.914,0.994-1.623C241.32,38.508,240.737,37.967,240.023,37.924z M226.457,48.27
				c-1.356-3.131-3.709-6.908-7.587-8.877c2.931-1.404,6.409-3.913,8.202-8.273c1.551,3.071,4.199,6.88,8.334,8.723
				C232.398,41.483,228.483,44.248,226.457,48.27z"/>
		</g>
	</g>
	<g>
		<g>
			<path class="st2" d="M205.013,43.156c-0.689,8.179-9.213,9.47-9.213,9.47c7.318,0.344,9.142,9.944,9.142,9.944
				c0.156-6.844,9.422-10.045,9.422-10.045C207.424,52.11,205.013,43.156,205.013,43.156z"/>
		</g>
	</g>
	<g>
		<g>
			<path class="st0" d="M214.454,51.027c-5.766-0.345-7.972-8.185-7.994-8.264c-0.189-0.702-0.864-1.159-1.581-1.102
				c-0.726,0.065-1.3,0.643-1.361,1.368c-0.578,6.87-7.646,8.066-7.941,8.113c-0.763,0.115-1.313,0.79-1.273,1.56
				c0.04,0.77,0.657,1.384,1.428,1.421c6.034,0.284,7.723,8.644,7.738,8.726c0.136,0.713,0.759,1.22,1.473,1.22
				c0.041,0,0.083-0.002,0.125-0.005c0.765-0.063,1.358-0.694,1.376-1.461c0.13-5.709,8.331-8.634,8.412-8.662
				c0.676-0.234,1.093-0.913,0.996-1.622C215.753,51.612,215.168,51.07,214.454,51.027z M204.869,57.823
				c-0.924-1.886-2.339-3.947-4.446-5.28c1.855-1.042,3.697-2.63,4.87-4.917c1.058,1.873,2.654,3.955,4.941,5.224
				C208.385,53.951,206.246,55.591,204.869,57.823z"/>
		</g>
	</g>
	<g>
		<g>
			<path class="st2" d="M205.013,16.498c-0.689,8.179-9.213,9.471-9.213,9.471c7.318,0.344,9.142,9.944,9.142,9.944
				c0.156-6.845,9.422-10.045,9.422-10.045C207.424,25.452,205.013,16.498,205.013,16.498z"/>
		</g>
	</g>
	<g>
		<g>
			<path class="st0" d="M214.454,24.37c-5.766-0.345-7.972-8.185-7.994-8.265c-0.189-0.702-0.864-1.166-1.581-1.102
				c-0.726,0.065-1.3,0.643-1.361,1.368c-0.578,6.871-7.646,8.067-7.941,8.114c-0.763,0.115-1.313,0.79-1.273,1.561
				c0.04,0.77,0.657,1.384,1.428,1.421c6.034,0.284,7.723,8.644,7.738,8.726c0.136,0.713,0.759,1.22,1.473,1.22
				c0.041,0,0.083-0.001,0.125-0.005c0.765-0.063,1.358-0.694,1.376-1.461c0.13-5.71,8.331-8.634,8.412-8.662
				c0.676-0.234,1.093-0.913,0.996-1.622C215.753,24.955,215.168,24.413,214.454,24.37z M204.869,31.165
				c-0.924-1.885-2.34-3.947-4.446-5.28c1.855-1.041,3.697-2.629,4.87-4.916c1.058,1.874,2.654,3.954,4.941,5.223
				C208.385,27.294,206.245,28.933,204.869,31.165z"/>
		</g>
	</g>
	<g>
		<g>
			<path class="st0" d="M227.742,108.955h-1.147c-13.53,0-25.758-7.485-31.912-19.534l-27.12-53.094
				c-6.774-13.263-19.692-21.169-34.575-21.169h-0.12c-14.933,0.042-27.857,8.03-34.574,21.367L71.747,89.238
				c-6.124,12.162-18.388,19.717-32.005,19.717c-0.828,0-1.5,0.671-1.5,1.5c0,0.829,0.672,1.5,1.5,1.5
				c14.757,0,28.048-8.188,34.685-21.367l26.546-52.713c6.198-12.307,18.124-19.677,31.903-19.717h0.11
				c13.732,0,25.653,7.296,31.904,19.534l27.12,53.094c6.67,13.058,19.921,21.169,34.584,21.169h1.147c0.828,0,1.5-0.671,1.5-1.5
				C229.242,109.627,228.57,108.955,227.742,108.955z"/>
		</g>
	</g>
	<g>
		<g>
			<rect x="210.932" y="130.455" class="st10" width="15" height="96.12"/>
		</g>
	</g>
</g>
</svg>
