<?xml version="1.0" encoding="utf-8"?>
<!-- Generator: Adobe Illustrator 22.0.1, SVG Export Plug-In . SVG Version: 6.00 Build 0)  -->
<svg version="1.1" id="Layer_1" xmlns="http://www.w3.org/2000/svg" xmlns:xlink="http://www.w3.org/1999/xlink" x="0px" y="0px"
	 viewBox="0 0 256 256" style="enable-background:new 0 0 256 256;" xml:space="preserve">
<style type="text/css">
	.st0{fill:#3A312A;}
	.st1{fill:#F16C7A;}
	.st2{fill:#D7E057;}
	.st3{fill:#F8E4C8;}
	.st4{fill:#89C4DB;}
	.st5{fill-rule:evenodd;clip-rule:evenodd;fill:#F8E4C8;}
	.st6{fill:#87796F;}
	.st7{fill:#D4DB56;}
	.st8{fill:#F59689;}
	.st9{fill:#6CA6BE;}
	.st10{fill:#695B51;}
	.st11{fill:#F7E3C7;}
	.st12{fill:#8AC6DD;}
	.st13{fill:#6CA8BF;}
	.st14{fill:#D6DF58;}
	.st15{fill:#FAE6CA;}
	.st16{fill:#EF6D7A;}
	.st17{fill:#DDC9AC;}
	.st18{fill:#D24E5C;}
	.st19{fill:#6A5C52;}
	.st20{fill:#B9C239;}
	.st21{fill:#FCE8CB;}
	.st22{fill:#DECAAD;}
	.st23{fill:#D5DE58;}
	.st24{fill:#8AC5DC;}
	.st25{fill:#D34E5C;}
	.st26{fill:#ED6E7A;}
	.st27{fill:#B8C136;}
</style>
<g>
	<g>
		<g>
			<path class="st1" d="M106.299,91.5c8.159-7.962,13.127-18.474,13.127-30.003c0-24.853-23.057-45-51.5-45
				c-1.795,0-3.569,0.082-5.317,0.238c-19.659,1.687-36.051,13.148-42.83,28.783c-0.077,0.177-0.163,0.351-0.237,0.529
				c-0.072,0.172-0.133,0.349-0.202,0.522c-1.88,4.672-2.914,9.693-2.914,14.927c0,0.004,0,0.007,0,0.011
				c0,0.015-0.001,0.03-0.001,0.045c0,24.873,22.932,45.037,51.221,45.037c4.064,0,8.005-0.447,11.795-1.236
				c0.552-0.11,1.104-0.221,1.649-0.346c0.03-0.007,0.061-0.012,0.091-0.019l30.013,9.879c1.998,0.658,3.857-1.315,3.081-3.271
				L106.299,91.5z"/>
		</g>
	</g>
	<g>
		<g>
			<path class="st0" d="M108.058,91.865c8.307-8.442,12.868-19.188,12.868-30.368c0-25.641-23.775-46.5-53-46.5
				c-1.811,0-3.645,0.082-5.444,0.243C42.79,16.93,25.488,28.581,18.403,44.92l-0.096,0.213c-0.05,0.109-0.101,0.219-0.152,0.342
				c-0.045,0.109-0.087,0.22-0.128,0.329l-0.079,0.206c-2.006,4.985-3.022,10.195-3.023,15.543c0,25.661,23.65,46.537,52.721,46.537
				c3.988,0,8.06-0.427,12.089-1.266c0.46-0.092,0.919-0.184,1.368-0.282l29.622,9.75c0.417,0.138,0.842,0.204,1.262,0.204
				c1.073,0,2.11-0.438,2.88-1.256c1.071-1.137,1.379-2.745,0.803-4.197L108.058,91.865z M112.683,113.184
				c-0.129,0.136-0.484,0.434-1.021,0.259l-30.013-9.879c-0.143-0.047-0.308-0.068-0.471-0.068c-0.113,0-0.226,0.01-0.328,0.029
				c-0.019,0.004-0.08,0.017-0.099,0.021c-0.53,0.123-1.067,0.23-1.617,0.34c-3.84,0.8-7.706,1.205-11.489,1.205
				c-27.416,0-49.721-19.53-49.72-43.593c0-4.906,0.944-9.74,2.807-14.369l0.423-1.014c6.652-15.343,22.975-26.288,41.588-27.886
				c1.717-0.153,3.461-0.231,5.183-0.231c27.57,0,50,19.514,50,43.5c0,10.68-4.501,20.954-12.675,28.93
				c-0.433,0.423-0.569,1.064-0.347,1.627l7.976,20.097C113.088,112.674,112.812,113.047,112.683,113.184z"/>
		</g>
	</g>
	<g>
		<g>
			<path class="st0" d="M93.926,42.505h-54.18c-0.828,0-1.5,0.672-1.5,1.5s0.672,1.5,1.5,1.5h54.18c0.828,0,1.5-0.672,1.5-1.5
				S94.754,42.505,93.926,42.505z"/>
		</g>
	</g>
	<g>
		<g>
			<path class="st0" d="M101.585,59.943H34.118c-0.828,0-1.5,0.672-1.5,1.5s0.672,1.5,1.5,1.5h67.467c0.828,0,1.5-0.672,1.5-1.5
				S102.413,59.943,101.585,59.943z"/>
		</g>
	</g>
	<g>
		<g>
			<path class="st0" d="M93.926,77.382h-54.18c-0.828,0-1.5,0.672-1.5,1.5s0.672,1.5,1.5,1.5h54.18c0.828,0,1.5-0.672,1.5-1.5
				S94.754,77.382,93.926,77.382z"/>
		</g>
	</g>
	<g>
		<g>
			<path class="st2" d="M95.837,137.195c-0.974,11.564-13.025,13.389-13.025,13.389c10.347,0.487,12.925,14.059,12.925,14.059
				c0.221-9.677,13.321-14.202,13.321-14.202C99.245,149.854,95.837,137.195,95.837,137.195z"/>
		</g>
	</g>
	<g>
		<g>
			<path class="st0" d="M109.148,148.944c-8.604-0.515-11.832-12.024-11.863-12.141c-0.19-0.702-0.853-1.156-1.584-1.102
				c-0.725,0.066-1.298,0.642-1.359,1.367c-0.859,10.215-11.313,11.964-11.754,12.032c-0.763,0.116-1.313,0.791-1.273,1.561
				c0.04,0.771,0.657,1.385,1.428,1.421c9.028,0.425,11.499,12.718,11.522,12.843c0.138,0.711,0.76,1.217,1.473,1.217
				c0.042,0,0.084-0.002,0.126-0.005c0.765-0.064,1.357-0.693,1.375-1.46c0.193-8.509,12.19-12.777,12.312-12.819
				c0.676-0.234,1.092-0.914,0.994-1.622C110.445,149.527,109.862,148.986,109.148,148.944z M95.583,159.29
				c-1.356-3.131-3.709-6.907-7.587-8.877c2.931-1.404,6.408-3.912,8.201-8.272c1.551,3.071,4.2,6.88,8.334,8.723
				C101.524,152.503,97.609,155.269,95.583,159.29z"/>
		</g>
	</g>
	<g>
		<g>
			<path class="st2" d="M74.138,154.176c-0.689,8.179-9.212,9.47-9.212,9.47c7.318,0.344,9.142,9.944,9.142,9.944
				c0.156-6.844,9.422-10.045,9.422-10.045C76.549,163.13,74.138,154.176,74.138,154.176z"/>
		</g>
	</g>
	<g>
		<g>
			<path class="st0" d="M83.58,162.048c-5.767-0.345-7.972-8.186-7.993-8.265c-0.19-0.701-0.862-1.159-1.582-1.102
				c-0.726,0.065-1.3,0.643-1.361,1.368c-0.579,6.87-7.646,8.066-7.942,8.113c-0.763,0.116-1.313,0.791-1.273,1.561
				c0.04,0.771,0.657,1.385,1.428,1.421c6.035,0.284,7.724,8.645,7.739,8.727c0.136,0.713,0.759,1.22,1.473,1.22
				c0.041,0,0.083-0.002,0.125-0.005c0.765-0.063,1.358-0.693,1.376-1.461c0.13-5.709,8.331-8.634,8.412-8.662
				c0.676-0.234,1.093-0.913,0.996-1.622C84.879,162.632,84.294,162.09,83.58,162.048z M73.995,168.843
				c-0.924-1.886-2.34-3.947-4.447-5.28c1.855-1.041,3.697-2.63,4.871-4.916c1.057,1.874,2.654,3.955,4.941,5.224
				C77.511,164.971,75.371,166.61,73.995,168.843z"/>
		</g>
	</g>
	<g>
		<g>
			<path class="st2" d="M74.138,127.518c-0.689,8.179-9.212,9.471-9.212,9.471c7.318,0.344,9.142,9.944,9.142,9.944
				c0.156-6.845,9.422-10.045,9.422-10.045C76.549,136.472,74.138,127.518,74.138,127.518z"/>
		</g>
	</g>
	<g>
		<g>
			<path class="st0" d="M83.58,135.391c-5.767-0.345-7.972-8.186-7.993-8.265c-0.19-0.701-0.862-1.158-1.582-1.102
				c-0.726,0.065-1.3,0.643-1.361,1.368c-0.579,6.87-7.646,8.066-7.942,8.113c-0.763,0.116-1.313,0.791-1.273,1.561
				c0.04,0.771,0.657,1.385,1.428,1.421c6.035,0.284,7.724,8.644,7.739,8.726c0.136,0.713,0.759,1.22,1.473,1.22
				c0.041,0,0.083-0.002,0.125-0.005c0.765-0.063,1.358-0.693,1.376-1.461c0.13-5.708,8.331-8.633,8.412-8.661
				c0.676-0.234,1.093-0.913,0.996-1.622C84.879,135.975,84.294,135.433,83.58,135.391z M73.995,142.186
				c-0.924-1.886-2.34-3.947-4.447-5.28c1.855-1.041,3.697-2.63,4.871-4.916c1.057,1.874,2.654,3.955,4.941,5.224
				C77.51,138.313,75.371,139.953,73.995,142.186z"/>
		</g>
	</g>
	<g>
		<g>
			<path class="st3" d="M208.451,153.171h-16.431v-10.678c-4.545,3.151-9.247,5.01-13.81,5.01c-4.377,0-8.996-1.877-13.522-5.065
				h-0.279v10.734h-16.44c-13.735,0-24.869,11.133-24.869,24.869v22.537h110.22V178.04
				C233.32,164.304,222.187,153.171,208.451,153.171z"/>
		</g>
	</g>
	<g>
		<g>
			<path class="st0" d="M208.451,151.671h-14.931v-9.179c0-0.559-0.31-1.07-0.805-1.329c-0.494-0.258-1.091-0.223-1.55,0.097
				c-4.539,3.146-8.897,4.742-12.955,4.742c-3.886,0-8.145-1.612-12.658-4.792c-0.253-0.178-0.555-0.273-0.864-0.273h-0.278
				c-0.828,0-1.5,0.672-1.5,1.5v9.234h-14.94c-14.54,0-26.369,11.829-26.369,26.369v22.536c0,0.828,0.672,1.5,1.5,1.5h110.22
				c0.828,0,1.5-0.672,1.5-1.5V178.04C234.82,163.5,222.991,151.671,208.451,151.671z M231.82,199.076h-107.22V178.04
				c0-12.886,10.483-23.369,23.369-23.369h16.44c0.828,0,1.5-0.672,1.5-1.5v-8.133c4.283,2.632,8.412,3.964,12.301,3.964
				c3.95,0,8.081-1.265,12.31-3.765v7.934c0,0.828,0.672,1.5,1.5,1.5h16.431c12.886,0,23.369,10.483,23.369,23.369V199.076z"/>
		</g>
	</g>
	<g>
		<g>
			<path class="st4" d="M208.451,153.16h-3.93l0.1,0.08l-17.09,22.66l-8.82-6.64l-8.82,6.64l-17.09-22.66l0.1-0.08h-4.93
				c-13.74,0-24.87,11.14-24.87,24.87v22.55h110.22v-22.55C233.321,164.3,222.191,153.16,208.451,153.16z"/>
		</g>
	</g>
	<g>
		<g>
			<path class="st0" d="M208.45,151.66h-3.93c-0.637,0-1.203,0.401-1.415,1.002c-0.018,0.052-0.033,0.104-0.045,0.155
				l-15.825,20.983l-7.622-5.738c-0.535-0.402-1.27-0.402-1.805,0l-7.623,5.738l-15.825-20.983
				c-0.012-0.052-0.027-0.104-0.045-0.155c-0.212-0.601-0.778-1.002-1.415-1.002h-4.93c-14.541,0-26.37,11.829-26.37,26.37v22.55
				c0,0.828,0.672,1.5,1.5,1.5h110.22c0.828,0,1.5-0.672,1.5-1.5v-22.55C234.82,163.489,222.99,151.66,208.45,151.66z
				 M231.82,199.08h-107.22v-21.05c0-12.887,10.483-23.37,23.37-23.37h4.022l16.7,22.144c0.498,0.66,1.438,0.79,2.1,0.295
				l7.918-5.96l7.917,5.96c0.662,0.498,1.602,0.366,2.1-0.295l16.7-22.144h3.022c12.887,0,23.37,10.483,23.37,23.37V199.08z"/>
		</g>
	</g>
	<g>
		<g>
			<path class="st5" d="M135.507,81.736c-5.405,0-9.785,4.381-9.785,9.786c0,5.404,4.381,9.785,9.785,9.785
				c5.404,0,9.786-4.381,9.786-9.785C145.293,86.117,140.911,81.736,135.507,81.736z"/>
		</g>
	</g>
	<g>
		<g>
			<path class="st0" d="M135.507,80.236c-6.223,0-11.285,5.063-11.285,11.285s5.063,11.285,11.285,11.285
				c6.224,0,11.286-5.063,11.286-11.285S141.73,80.236,135.507,80.236z M135.507,99.807c-4.568,0-8.285-3.717-8.285-8.285
				s3.717-8.285,8.285-8.285c4.569,0,8.286,3.717,8.286,8.285S140.076,99.807,135.507,99.807z"/>
		</g>
	</g>
	<g>
		<g>
			<path class="st5" d="M220.917,81.736c-5.404,0-9.786,4.381-9.786,9.786c0,5.404,4.381,9.785,9.786,9.785
				c5.404,0,9.786-4.381,9.786-9.785C230.702,86.117,226.321,81.736,220.917,81.736z"/>
		</g>
	</g>
	<g>
		<g>
			<path class="st0" d="M220.917,80.236c-6.223,0-11.285,5.063-11.285,11.285s5.063,11.285,11.285,11.285
				s11.285-5.063,11.285-11.285S227.14,80.236,220.917,80.236z M220.917,99.807c-4.568,0-8.285-3.717-8.285-8.285
				s3.717-8.285,8.285-8.285s8.285,3.717,8.285,8.285S225.485,99.807,220.917,99.807z"/>
		</g>
	</g>
	<g>
		<g>
			<path class="st6" d="M223.61,63.745c0-16.45-9.68-30.74-23.89-37.95c0.56,3.72,0.86,7.65,0.86,11.72c0,0.551-0.01,1.09-0.02,1.64
				c-0.12,5.97,2.53,11.59,6.94,15.63c7.85,7.18,13.04,17.21,13.95,28.45c0.11-0.16,0.37-0.24,0.57-0.31
				C223.87,82.245,223.61,65.236,223.61,63.745z"/>
		</g>
	</g>
	<g>
		<g>
			<path class="st0" d="M225.112,64.267l-0.003-0.521c0-16.499-9.469-31.553-24.711-39.288c-0.499-0.253-1.101-0.207-1.557,0.122
				c-0.455,0.328-0.688,0.884-0.605,1.438c0.56,3.723,0.844,7.591,0.844,11.498c0,0.488-0.009,0.969-0.018,1.455l-0.003,0.154
				c-0.125,6.217,2.582,12.328,7.428,16.767c7.831,7.164,12.613,16.917,13.468,27.465c0.052,0.634,0.496,1.166,1.11,1.329
				c0.128,0.033,0.257,0.05,0.385,0.05c0.36,0,0.709-0.13,0.981-0.365c0.011-0.004,0.021-0.008,0.032-0.011
				c0.002-0.001,0.045-0.016,0.047-0.017c0.009-0.003,0.018-0.006,0.026-0.009C223.745,83.89,225.248,83.337,225.112,64.267z
				 M221.876,76.353c-2.062-8.673-6.675-16.556-13.362-22.674c-4.21-3.855-6.563-9.139-6.454-14.497l0.003-0.156
				c0.009-0.505,0.018-1.003,0.018-1.51c0-3.031-0.165-6.041-0.491-8.983c12.729,7.541,20.521,20.79,20.521,35.213l0.003,0.543
				C222.152,69.911,222.041,73.743,221.876,76.353z"/>
		</g>
	</g>
	<g>
		<g>
			<path class="st0" d="M143.746,181.267c-0.828,0-1.5,0.672-1.5,1.5v17.812c0,0.828,0.672,1.5,1.5,1.5s1.5-0.672,1.5-1.5v-17.812
				C145.246,181.938,144.574,181.267,143.746,181.267z"/>
		</g>
	</g>
	<g>
		<g>
			<path class="st0" d="M213.679,181.267c-0.828,0-1.5,0.672-1.5,1.5v17.812c0,0.828,0.672,1.5,1.5,1.5s1.5-0.672,1.5-1.5v-17.812
				C215.179,181.938,214.507,181.267,213.679,181.267z"/>
		</g>
	</g>
	<g>
		<g>
			<polygon class="st7" points="182.931,183.92 174.461,183.92 171.891,200.58 185.501,200.58 			"/>
		</g>
	</g>
	<g>
		<g>
			<path class="st0" d="M186.983,200.352l-2.57-16.66c-0.113-0.731-0.742-1.271-1.482-1.271h-8.47c-0.74,0-1.369,0.54-1.482,1.271
				l-2.57,16.66c-0.066,0.433,0.059,0.873,0.344,1.205s0.701,0.523,1.139,0.523h13.61c0.438,0,0.854-0.191,1.139-0.523
				S187.05,200.784,186.983,200.352z M173.64,199.08l2.107-13.66h5.897l2.107,13.66H173.64z"/>
		</g>
	</g>
	<g>
		<g>
			<polygon class="st7" points="171.604,169.247 174.467,183.916 182.92,183.916 185.852,169.247 			"/>
		</g>
	</g>
	<g>
		<g>
			<path class="st0" d="M187.012,168.296c-0.285-0.348-0.711-0.549-1.16-0.549h-14.247c-0.448,0-0.873,0.2-1.158,0.546
				c-0.284,0.347-0.399,0.802-0.314,1.241l2.863,14.669c0.138,0.705,0.755,1.213,1.473,1.213h8.453c0.715,0,1.331-0.505,1.471-1.206
				l2.931-14.669C187.41,169.101,187.296,168.644,187.012,168.296z M181.691,182.416h-5.988l-2.277-11.669h10.597L181.691,182.416z"
				/>
		</g>
	</g>
	<g>
		<g>
			
				<rect x="160.233" y="147.038" transform="matrix(0.7986 -0.6019 0.6019 0.7986 -63.6516 132.2465)" class="st6" width="11.09" height="28.387"/>
		</g>
	</g>
	<g>
		<g>
			<path class="st0" d="M179.947,168.327l-17.086-22.67c-0.24-0.318-0.596-0.527-0.989-0.583c-0.398-0.057-0.795,0.048-1.112,0.287
				l-8.855,6.675c-0.661,0.499-0.793,1.439-0.295,2.101l17.085,22.67c0.24,0.318,0.596,0.527,0.989,0.583
				c0.07,0.01,0.14,0.015,0.209,0.015c0.324,0,0.642-0.104,0.902-0.302l8.856-6.675c0.318-0.24,0.527-0.596,0.583-0.989
				C180.29,169.044,180.187,168.645,179.947,168.327z M170.188,173.804l-15.279-20.274l6.46-4.869l15.28,20.274L170.188,173.804z"/>
		</g>
	</g>
	<g>
		<g>
			
				<rect x="177.454" y="155.687" transform="matrix(0.6019 -0.7986 0.7986 0.6019 -52.4574 217.2439)" class="st6" width="28.387" height="11.09"/>
		</g>
	</g>
	<g>
		<g>
			<path class="st0" d="M205.521,152.036l-8.856-6.675c-0.316-0.239-0.714-0.345-1.111-0.287c-0.394,0.056-0.749,0.265-0.989,0.583
				l-17.085,22.67c-0.498,0.661-0.366,1.602,0.296,2.101l8.856,6.675c0.261,0.197,0.578,0.302,0.902,0.302
				c0.069,0,0.139-0.005,0.209-0.015c0.394-0.056,0.749-0.265,0.989-0.583l17.085-22.67
				C206.314,153.476,206.183,152.535,205.521,152.036z M187.238,173.804l-6.461-4.869l15.279-20.274l6.461,4.869L187.238,173.804z"
				/>
		</g>
	</g>
	<g>
		<g>
			<path class="st3" d="M207.496,54.782c-4.406-4.033-7.056-9.658-6.937-15.63c0.011-0.543,0.016-1.088,0.016-1.636
				c0-4.07-0.3-8-0.86-11.72c-6.27-3.18-13.42-4.979-21-4.979c-7.4,0-14.38,1.71-20.53,4.74c-0.59,3.79-0.9,7.8-0.9,11.96
				c0,0.073,0,0.146,0,0.219c0.017,6.269-2.733,12.149-7.471,16.254c-9.177,7.952-14.983,19.687-14.983,32.783
				c0,23.958,23.997,60.731,43.38,60.731c20.306,0,43.38-36.773,43.38-60.731C221.592,74.104,216.157,62.71,207.496,54.782z"/>
		</g>
	</g>
	<g>
		<g>
			<path class="st0" d="M208.509,53.676c-4.206-3.851-6.558-9.134-6.45-14.495c0.011-0.553,0.017-1.107,0.017-1.665
				c0-4.063-0.295-8.081-0.877-11.944c-0.072-0.479-0.372-0.895-0.805-1.114c-6.633-3.363-14.129-5.142-21.679-5.142
				c-7.366,0-14.694,1.692-21.192,4.895c-0.438,0.216-0.744,0.632-0.819,1.115c-0.609,3.915-0.918,8.017-0.918,12.19v0.222
				c0.017,5.765-2.518,11.274-6.952,15.117c-9.851,8.536-15.501,20.897-15.501,33.917c0,11.688,5.628,27.092,14.688,40.203
				c9.531,13.793,20.818,22.028,30.192,22.028c9.867,0,21-8.032,30.545-22.037c8.842-12.974,14.335-28.376,14.335-40.194
				C223.092,74.222,217.776,62.158,208.509,53.676z M206.277,125.276c-8.845,12.979-19.337,20.727-28.065,20.727
				c-8.389,0-18.753-7.751-27.725-20.734c-8.731-12.636-14.155-27.387-14.155-38.497c0-12.148,5.272-23.685,14.466-31.649
				c5.095-4.415,8.006-10.755,7.987-17.389v-0.218c0-3.744,0.258-7.426,0.767-10.953c5.978-2.818,12.421-4.247,19.163-4.247
				c6.818,0,13.588,1.545,19.629,4.474c0.485,3.479,0.731,7.083,0.731,10.727c0,0.538-0.006,1.073-0.017,1.605
				c-0.124,6.224,2.582,12.335,7.425,16.768c8.648,7.916,13.608,19.173,13.608,30.883
				C220.092,98.02,214.799,112.774,206.277,125.276z"/>
		</g>
	</g>
	<g>
		<g>
			<path class="st0" d="M162.896,82.048c-2.339,0-4.234,1.896-4.234,4.234s1.896,4.234,4.234,4.234c2.338,0,4.234-1.896,4.234-4.234
				S165.235,82.048,162.896,82.048z"/>
		</g>
	</g>
	<g>
		<g>
			<path class="st0" d="M193.527,82.048c-2.338,0-4.234,1.896-4.234,4.234s1.896,4.234,4.234,4.234c2.339,0,4.234-1.896,4.234-4.234
				S195.866,82.048,193.527,82.048z"/>
		</g>
	</g>
	<g>
		<g>
			<path class="st8" d="M154.434,93.417c-4.028,0-7.294,2.441-7.294,5.453c0,3.011,3.266,5.452,7.294,5.452
				c4.028,0,7.294-2.441,7.294-5.452C161.728,95.858,158.462,93.417,154.434,93.417z"/>
		</g>
	</g>
	<g>
		<g>
			<path class="st8" d="M201.99,93.417c-4.028,0-7.294,2.441-7.294,5.453c0,3.011,3.266,5.452,7.294,5.452s7.294-2.441,7.294-5.452
				C209.283,95.858,206.018,93.417,201.99,93.417z"/>
		</g>
	</g>
	<g>
		<g>
			<path class="st0" d="M190.724,113.094c-0.777-0.294-1.641,0.103-1.931,0.878c-0.841,2.244-4.135,6.487-10.582,6.487
				c-5.038,0-8.516-2.161-10.632-6.605c-0.355-0.747-1.25-1.065-1.999-0.71c-0.748,0.356-1.066,1.251-0.71,1.999
				c2.627,5.519,7.115,8.316,13.341,8.316c7.029,0,11.869-4.372,13.391-8.435C191.893,114.249,191.499,113.384,190.724,113.094z"/>
		</g>
	</g>
	<g>
		<g>
			<path class="st0" d="M159.275,69.005c-9.409,0-17.064,7.655-17.064,17.065s7.655,17.065,17.064,17.065
				c9.41,0,17.065-7.655,17.065-17.065S168.686,69.005,159.275,69.005z M159.275,100.136c-7.755,0-14.064-6.31-14.064-14.065
				s6.31-14.065,14.064-14.065c7.756,0,14.065,6.31,14.065,14.065S167.031,100.136,159.275,100.136z"/>
		</g>
	</g>
	<g>
		<g>
			<path class="st0" d="M198.146,69.005c-9.41,0-17.065,7.655-17.065,17.065s7.655,17.065,17.065,17.065s17.065-7.655,17.065-17.065
				S207.556,69.005,198.146,69.005z M198.146,100.136c-7.756,0-14.065-6.31-14.065-14.065s6.31-14.065,14.065-14.065
				s14.065,6.31,14.065,14.065S205.901,100.136,198.146,100.136z"/>
		</g>
	</g>
	<g>
		<g>
			<path class="st0" d="M182.58,84.539h-7.739c-0.828,0-1.5,0.672-1.5,1.5s0.672,1.5,1.5,1.5h7.739c0.828,0,1.5-0.672,1.5-1.5
				S183.408,84.539,182.58,84.539z"/>
		</g>
	</g>
	<g>
		<g>
			<path class="st9" d="M208.45,154.656h-3.02l-1.77,2.35c7.78,3.8,13.16,11.8,13.16,21.03v21.04h15v-21.04
				C231.82,165.145,221.34,154.656,208.45,154.656z"/>
		</g>
	</g>
	<g>
		<g>
			<path class="st0" d="M144.275,81.083l-8.984-0.906c-0.809-0.096-1.56,0.517-1.643,1.342c-0.083,0.824,0.518,1.56,1.342,1.643
				l8.984,0.906c0.051,0.006,0.102,0.008,0.152,0.008c0.761,0,1.412-0.576,1.49-1.35C145.7,81.901,145.1,81.166,144.275,81.083z"/>
		</g>
	</g>
	<g>
		<g>
			<path class="st0" d="M222.785,81.446c-0.098-0.822-0.847-1.419-1.667-1.312l-7.989,0.951c-0.822,0.098-1.41,0.844-1.312,1.667
				c0.091,0.762,0.738,1.322,1.487,1.322c0.06,0,0.119-0.003,0.18-0.011l7.989-0.951C222.296,83.016,222.884,82.27,222.785,81.446z"
				/>
		</g>
	</g>
	<g>
		<g>
			<path class="st6" d="M182.317,16.599c-14.672-0.917-27.652,5.868-34,12c-9.58,7.871-14.507,22.122-14.507,35.146
				c0,2.38,0.42,15.92,1.18,19.27c0.124-1.446,0.492-3.027,1.042-4.69c5.005-15.103,20.164-24.537,35.972-22.735
				c2.198,0.25,4.477,0.382,6.812,0.382c18.225,0,33-8.013,33-17.898C211.817,28.189,198.317,17.599,182.317,16.599z"/>
		</g>
	</g>
	<g>
		<g>
			<path class="st0" d="M182.411,15.103c-14.427-0.894-28.008,5.56-35.093,12.376c-9.26,7.637-15.009,21.525-15.009,36.267
				c0,2.404,0.409,16.039,1.218,19.603c0.156,0.688,0.767,1.168,1.462,1.168c0.034,0,0.069-0.001,0.104-0.004
				c0.738-0.051,1.328-0.632,1.391-1.369c0.107-1.262,0.435-2.724,0.972-4.346c4.743-14.313,19.19-23.451,34.379-21.717
				c2.274,0.26,4.623,0.392,6.982,0.392c19.346,0,34.5-8.521,34.5-19.397C213.317,27.063,198.586,16.113,182.411,15.103z
				 M178.817,54.472c-2.245,0-4.48-0.125-6.643-0.372c-15.522-1.765-30.377,6.884-36.458,20.854
				c-0.26-4.564-0.407-9.603-0.407-11.209c0-13.68,5.479-27.021,13.96-33.986c0.031-0.025,0.062-0.053,0.09-0.08
				c6.182-5.972,17.734-11.661,30.306-11.661c0.849,0,1.702,0.025,2.559,0.079c12.992,0.812,28.094,9.716,28.094,19.978
				C210.317,46.963,195.893,54.472,178.817,54.472z"/>
		</g>
	</g>
	<g>
		<g>
			<path class="st6" d="M227.519,168.997h-98.616c-4.136,0-7.489,3.353-7.489,7.489v46.434c0,4.136,3.353,7.489,7.489,7.489h98.616
				c4.136,0,7.489-3.353,7.489-7.489v-46.434C235.008,172.35,231.655,168.997,227.519,168.997z"/>
		</g>
	</g>
	<g>
		<g>
			<path class="st0" d="M227.519,167.497h-98.616c-4.957,0-8.989,4.032-8.989,8.989v18.507c0,0.828,0.672,1.5,1.5,1.5
				s1.5-0.672,1.5-1.5v-18.507c0-3.303,2.687-5.989,5.989-5.989h98.616c3.303,0,5.989,2.687,5.989,5.989v46.433
				c0,3.303-2.687,5.989-5.989,5.989h-98.616c-3.303,0-5.989-2.687-5.989-5.989V208.25c0-0.828-0.672-1.5-1.5-1.5
				s-1.5,0.672-1.5,1.5v14.669c0,4.957,4.032,8.989,8.989,8.989h98.616c4.957,0,8.989-4.032,8.989-8.989v-46.433
				C236.508,171.529,232.476,167.497,227.519,167.497z"/>
		</g>
	</g>
	<g>
		<g>
			<path class="st6" d="M116.961,230.406c0,4.987,4.043,9.03,9.03,9.03H230.43c4.987,0,9.03-4.043,9.03-9.03H116.961z"/>
		</g>
	</g>
	<g>
		<g>
			<path class="st0" d="M239.461,228.906h-122.5c-0.828,0-1.5,0.672-1.5,1.5c0,5.807,4.724,10.53,10.53,10.53h47.195
				c0.828,0,1.5-0.672,1.5-1.5s-0.672-1.5-1.5-1.5h-47.195c-3.639,0-6.683-2.594-7.38-6.03h119.199
				c-0.697,3.437-3.741,6.03-7.38,6.03h-44.445c-0.828,0-1.5,0.672-1.5,1.5s0.672,1.5,1.5,1.5h44.445
				c5.807,0,10.53-4.724,10.53-10.53C240.961,229.578,240.289,228.906,239.461,228.906z"/>
		</g>
	</g>
	<g>
		<g>
			<circle class="st2" cx="178.211" cy="199.997" r="8.5"/>
		</g>
	</g>
	<g>
		<g>
			<path class="st0" d="M178.211,189.997c-5.514,0-10,4.486-10,10s4.486,10,10,10s10-4.486,10-10S183.725,189.997,178.211,189.997z
				 M178.211,206.997c-3.859,0-7-3.141-7-7s3.141-7,7-7s7,3.141,7,7S182.07,206.997,178.211,206.997z"/>
		</g>
	</g>
	<g>
		<g>
			<path class="st10" d="M227.521,170.497h-15c3.3,0,5.99,2.69,5.99,5.99v46.43c0,3.29-2.66,5.96-5.94,5.99h15
				c3.28-0.03,5.94-2.7,5.94-5.99v-46.43C233.511,173.187,230.821,170.497,227.521,170.497z"/>
		</g>
	</g>
	<g>
		<g>
			<path class="st10" d="M222.811,231.906c-0.7,3.44-3.74,6.03-7.38,6.03h15c3.64,0,6.68-2.59,7.38-6.03H222.811z"/>
		</g>
	</g>
</g>
</svg>
