<?xml version="1.0" encoding="utf-8"?>
<!-- Generator: Adobe Illustrator 22.0.1, SVG Export Plug-In . SVG Version: 6.00 Build 0)  -->
<svg version="1.1" id="Layer_1" xmlns="http://www.w3.org/2000/svg" xmlns:xlink="http://www.w3.org/1999/xlink" x="0px" y="0px"
	 viewBox="0 0 256 256" style="enable-background:new 0 0 256 256;" xml:space="preserve">
<style type="text/css">
	.st0{fill:#3A312A;}
	.st1{fill:#F16C7A;}
	.st2{fill:#D7E057;}
	.st3{fill:#F8E4C8;}
	.st4{fill:#89C4DB;}
	.st5{fill-rule:evenodd;clip-rule:evenodd;fill:#F8E4C8;}
	.st6{fill:#87796F;}
	.st7{fill:#D4DB56;}
	.st8{fill:#F59689;}
	.st9{fill:#6CA6BE;}
	.st10{fill:#695B51;}
	.st11{fill:#F7E3C7;}
	.st12{fill:#8AC6DD;}
	.st13{fill:#6CA8BF;}
	.st14{fill:#D6DF58;}
	.st15{fill:#FAE6CA;}
	.st16{fill:#EF6D7A;}
	.st17{fill:#DDC9AC;}
	.st18{fill:#D24E5C;}
	.st19{fill:#6A5C52;}
	.st20{fill:#B9C239;}
	.st21{fill:#FCE8CB;}
	.st22{fill:#DECAAD;}
	.st23{fill:#D5DE58;}
	.st24{fill:#8AC5DC;}
	.st25{fill:#D34E5C;}
	.st26{fill:#ED6E7A;}
	.st27{fill:#B8C136;}
</style>
<g>
	<g>
		<g>
			<path class="st24" d="M136.595,27.978c-15.592,11.285-23.943,28.855-24.084,46.728l58.232,0.426L199.78,24.67
				C180.521,13.602,155.757,14.108,136.595,27.978z"/>
		</g>
	</g>
	<g>
		<g>
			<path class="st0" d="M201.228,24.28c-0.103-0.384-0.355-0.711-0.701-0.91c-20.357-11.699-45.799-10.369-64.813,3.392
				c-15.319,11.088-24.555,29.007-24.704,47.932c-0.003,0.398,0.152,0.781,0.431,1.064c0.279,0.283,0.66,0.444,1.058,0.447
				l58.232,0.426h0.011c0.536,0,1.032-0.287,1.3-0.752l29.037-50.461C201.279,25.074,201.332,24.664,201.228,24.28z M169.879,73.625
				l-55.836-0.409c0.604-17.417,9.288-33.787,23.432-44.024c17.652-12.777,41.138-14.272,60.247-3.953L169.879,73.625z"/>
		</g>
	</g>
	<g>
		<g>
			<path class="st14" d="M112.511,74.706c-0.107,11.996,3.483,24.117,11.055,34.579c9.795,13.534,24.325,21.607,39.679,23.597
				l7.498-57.749L112.511,74.706z"/>
		</g>
	</g>
	<g>
		<g>
			<path class="st0" d="M171.874,74.146c-0.283-0.324-0.69-0.511-1.12-0.514l-58.232-0.426h-0.011c-0.823,0-1.493,0.663-1.5,1.487
				c-0.113,12.799,3.808,25.064,11.34,35.471c9.75,13.471,24.204,22.067,40.702,24.205c0.065,0.008,0.13,0.012,0.194,0.012
				c0.742,0,1.388-0.551,1.485-1.307l7.498-57.749C172.286,74.899,172.156,74.47,171.874,74.146z M161.953,131.182
				c-15.05-2.341-28.206-10.389-37.172-22.777c-6.86-9.478-10.567-20.577-10.765-32.188l55.021,0.403L161.953,131.182z"/>
		</g>
	</g>
	<g>
		<g>
			<path class="st16" d="M220.479,44.897l-49.736,30.235l-7.498,57.749c0.288,0.042,0.575,0.073,0.864,0.109
				c13.941,1.603,28.498-1.806,40.76-10.681C229.647,104.375,236.132,70.571,220.479,44.897z"/>
		</g>
	</g>
	<g>
		<g>
			<path class="st0" d="M221.76,44.116c-0.431-0.707-1.354-0.931-2.06-0.501L169.964,73.85c-0.389,0.236-0.649,0.637-0.708,1.088
				l-7.498,57.749c-0.105,0.812,0.459,1.558,1.269,1.677c0.222,0.033,0.443,0.059,0.665,0.085l0.247,0.03
				c2.285,0.263,4.568,0.393,6.845,0.393c12.504,0,24.713-3.928,34.967-11.349C230.814,105.383,237.847,70.503,221.76,44.116z
				 M203.99,121.093c-11.338,8.206-25.188,11.916-39.063,10.477l7.21-55.531l47.824-29.072
				C234.241,71.863,227.39,104.158,203.99,121.093z"/>
		</g>
	</g>
	<g>
		<g>
			<path class="st6" d="M217.58,40.749c-4.886-6.788-10.997-12.164-17.828-16.05l-29.217,50.282l49.573-30.398
				C219.325,43.281,218.482,42.003,217.58,40.749z"/>
		</g>
	</g>
	<g>
		<g>
			<path class="st0" d="M221.394,43.811c-0.799-1.329-1.672-2.654-2.596-3.938c-4.905-6.814-11.063-12.358-18.304-16.478
				c-0.715-0.406-1.625-0.162-2.039,0.55l-29.217,50.282c-0.346,0.594-0.243,1.347,0.249,1.827c0.288,0.281,0.666,0.427,1.048,0.427
				c0.271,0,0.542-0.073,0.784-0.221l49.572-30.398C221.593,45.432,221.817,44.516,221.394,43.811z M174.818,70.595l25.474-43.84
				c6.31,3.818,11.712,8.815,16.07,14.871c0.583,0.809,1.144,1.634,1.676,2.466L174.818,70.595z"/>
		</g>
	</g>
	<g>
		<g>
			<path class="st14" d="M48.194,202.248c-0.974,11.564-13.024,13.39-13.024,13.39c10.347,0.487,12.925,14.059,12.925,14.059
				c0.221-9.677,13.321-14.202,13.321-14.202C51.603,214.907,48.194,202.248,48.194,202.248z"/>
		</g>
	</g>
	<g>
		<g>
			<path class="st0" d="M61.506,213.997c-8.605-0.515-11.833-12.024-11.864-12.141c-0.191-0.703-0.864-1.169-1.583-1.102
				c-0.725,0.066-1.298,0.642-1.359,1.367c-0.86,10.215-11.314,11.964-11.754,12.033c-0.763,0.115-1.313,0.79-1.273,1.561
				c0.04,0.77,0.657,1.384,1.428,1.421c9.028,0.425,11.498,12.718,11.522,12.842c0.137,0.711,0.759,1.217,1.472,1.217
				c0.042,0,0.084-0.001,0.126-0.005c0.764-0.064,1.357-0.693,1.374-1.459c0.195-8.508,12.192-12.777,12.313-12.819
				c0.675-0.235,1.092-0.914,0.994-1.623C62.804,214.581,62.22,214.04,61.506,213.997z M47.94,224.343
				c-1.356-3.131-3.709-6.908-7.587-8.877c2.931-1.405,6.409-3.913,8.202-8.273c1.551,3.071,4.199,6.88,8.334,8.723
				C53.882,217.556,49.967,220.322,47.94,224.343z"/>
		</g>
	</g>
	<g>
		<g>
			<path class="st14" d="M26.496,219.229c-0.689,8.179-9.212,9.47-9.212,9.47c7.318,0.344,9.142,9.944,9.142,9.944
				c0.156-6.844,9.422-10.045,9.422-10.045C28.907,228.183,26.496,219.229,26.496,219.229z"/>
		</g>
	</g>
	<g>
		<g>
			<path class="st0" d="M35.938,227.101c-5.766-0.345-7.972-8.186-7.994-8.265c-0.19-0.702-0.853-1.167-1.582-1.102
				c-0.726,0.065-1.299,0.642-1.36,1.368c-0.579,6.871-7.646,8.067-7.942,8.114c-0.763,0.115-1.313,0.79-1.273,1.561
				c0.04,0.77,0.657,1.384,1.428,1.421c6.035,0.284,7.723,8.644,7.739,8.726c0.135,0.713,0.759,1.22,1.472,1.22
				c0.042,0,0.084-0.001,0.125-0.005c0.765-0.063,1.358-0.694,1.376-1.461c0.13-5.709,8.331-8.634,8.412-8.662
				c0.676-0.234,1.094-0.913,0.996-1.622C37.236,227.685,36.652,227.144,35.938,227.101z M26.352,233.896
				c-0.924-1.886-2.34-3.947-4.447-5.28c1.855-1.041,3.697-2.63,4.871-4.916c1.057,1.874,2.654,3.954,4.941,5.223
				C29.868,230.023,27.729,231.664,26.352,233.896z"/>
		</g>
	</g>
	<g>
		<g>
			<path class="st14" d="M26.496,192.571c-0.689,8.179-9.212,9.471-9.212,9.471c7.318,0.344,9.142,9.944,9.142,9.944
				c0.156-6.844,9.422-10.045,9.422-10.045C28.907,201.525,26.496,192.571,26.496,192.571z"/>
		</g>
	</g>
	<g>
		<g>
			<path class="st0" d="M35.938,200.443c-5.766-0.345-7.972-8.186-7.994-8.265c-0.19-0.702-0.853-1.168-1.582-1.102
				c-0.726,0.065-1.299,0.642-1.36,1.368c-0.579,6.871-7.646,8.067-7.942,8.114c-0.763,0.115-1.313,0.79-1.273,1.561
				c0.04,0.77,0.657,1.384,1.428,1.421c6.035,0.284,7.723,8.644,7.739,8.726c0.135,0.713,0.759,1.22,1.472,1.22
				c0.042,0,0.084-0.001,0.125-0.005c0.765-0.063,1.358-0.694,1.376-1.461c0.13-5.709,8.331-8.634,8.412-8.662
				c0.676-0.234,1.094-0.913,0.996-1.622C37.236,201.028,36.652,200.486,35.938,200.443z M26.352,207.238
				c-0.924-1.886-2.34-3.947-4.447-5.28c1.855-1.041,3.697-2.63,4.871-4.916c1.057,1.874,2.654,3.954,4.941,5.223
				C29.868,203.366,27.729,205.006,26.352,207.238z"/>
		</g>
	</g>
	<g>
		<g>
			<path class="st11" d="M102.715,15H40.241c-8.228,0-14.888,6.66-14.888,14.888v113.213c0,8.229,6.66,14.888,14.888,14.888h84.806
				c8.228,0,14.888-6.66,14.888-14.888V52.22L102.715,15z"/>
		</g>
	</g>
	<g>
		<g>
			<path class="st0" d="M140.996,51.16l-37.221-37.22c-0.281-0.281-0.663-0.439-1.061-0.439H40.241
				c-9.036,0-16.388,7.352-16.388,16.388v38.819c0,0.829,0.671,1.5,1.5,1.5c0.829,0,1.5-0.671,1.5-1.5V29.888
				c0-7.382,6.006-13.388,13.388-13.388h61.853l36.342,36.341v90.26c0,7.382-6.006,13.388-13.389,13.388H40.241
				c-7.382,0-13.388-6.006-13.388-13.388V81.96c0-0.829-0.671-1.5-1.5-1.5c-0.829,0-1.5,0.671-1.5,1.5v61.141
				c0,9.037,7.352,16.388,16.388,16.388h84.806c9.037,0,16.389-7.352,16.389-16.388V52.22
				C141.435,51.822,141.277,51.441,140.996,51.16z"/>
		</g>
	</g>
	<g>
		<g>
			<path class="st0" d="M118.879,60.32H46.409c-0.829,0-1.5,0.671-1.5,1.5s0.671,1.5,1.5,1.5h72.471c0.829,0,1.5-0.671,1.5-1.5
				S119.708,60.32,118.879,60.32z"/>
		</g>
	</g>
	<g>
		<g>
			<path class="st0" d="M118.879,78.087H46.409c-0.829,0-1.5,0.671-1.5,1.5s0.671,1.5,1.5,1.5h72.471c0.829,0,1.5-0.671,1.5-1.5
				S119.708,78.087,118.879,78.087z"/>
		</g>
	</g>
	<g>
		<g>
			<path class="st0" d="M118.879,95.854H46.409c-0.829,0-1.5,0.671-1.5,1.5s0.671,1.5,1.5,1.5h72.471c0.829,0,1.5-0.671,1.5-1.5
				S119.708,95.854,118.879,95.854z"/>
		</g>
	</g>
	<g>
		<g>
			<path class="st0" d="M118.879,113.621H46.409c-0.829,0-1.5,0.671-1.5,1.5s0.671,1.5,1.5,1.5h72.471c0.829,0,1.5-0.671,1.5-1.5
				S119.708,113.621,118.879,113.621z"/>
		</g>
	</g>
	<g>
		<g>
			<path class="st0" d="M118.879,131.388H46.409c-0.829,0-1.5,0.671-1.5,1.5s0.671,1.5,1.5,1.5h72.471c0.829,0,1.5-0.671,1.5-1.5
				S119.708,131.388,118.879,131.388z"/>
		</g>
	</g>
	<g>
		<g>
			<path class="st11" d="M102.792,15.077v24.128c0,7.239,5.869,13.108,13.108,13.108h24.036V52.22L102.792,15.077z"/>
		</g>
	</g>
	<g>
		<g>
			<path class="st0" d="M140.996,51.16l-37.144-37.144c-0.428-0.428-1.073-0.558-1.635-0.325c-0.561,0.232-0.926,0.779-0.926,1.386
				v24.128c0,8.055,6.553,14.608,14.607,14.608h24.036c0.828,0,1.5-0.671,1.5-1.5V52.22
				C141.435,51.822,141.277,51.441,140.996,51.16z M115.899,50.813c-6.4,0-11.607-5.208-11.607-11.608V18.698l32.114,32.115H115.899
				z"/>
		</g>
	</g>
	<g>
		<g>
			<path class="st12" d="M87.429,34.916H51.52c-2.823,0-5.112,2.289-5.112,5.112v1.309c0,2.823,2.289,5.112,5.112,5.112h35.909
				c2.823,0,5.112-2.289,5.112-5.112v-1.309C92.541,37.205,90.252,34.916,87.429,34.916z"/>
		</g>
	</g>
	<g>
		<g>
			<path class="st0" d="M87.429,33.416H51.521c-3.646,0-6.612,2.966-6.612,6.612v1.31c0,3.646,2.966,6.612,6.612,6.612h35.909
				c3.646,0,6.612-2.966,6.612-6.612v-1.31C94.041,36.382,91.075,33.416,87.429,33.416z M91.041,41.337
				c0,1.992-1.62,3.612-3.612,3.612H51.521c-1.992,0-3.612-1.62-3.612-3.612v-1.31c0-1.992,1.62-3.612,3.612-3.612h35.909
				c1.992,0,3.612,1.62,3.612,3.612V41.337z"/>
		</g>
	</g>
	<g>
		<g>
			<path class="st6" d="M128.228,212.5c-8.42,0-16.62-0.74-24.5-2.15v29.15h49v-29.15C144.848,211.76,136.648,212.5,128.228,212.5z"
				/>
		</g>
	</g>
	<g>
		<g>
			<path class="st0" d="M153.69,209.2c-0.341-0.285-0.793-0.404-1.227-0.326c-15.775,2.823-32.697,2.822-48.472,0
				c-0.436-0.077-0.887,0.041-1.227,0.326c-0.34,0.285-0.537,0.707-0.537,1.15v29.15c0,0.829,0.671,1.5,1.5,1.5h48.999
				c0.828,0,1.5-0.671,1.5-1.5v-29.15C154.227,209.906,154.031,209.485,153.69,209.2z M151.227,238h-45.999v-25.87
				c15.02,2.482,30.979,2.482,45.999,0V238z"/>
		</g>
	</g>
	<g>
		<g>
			<path class="st6" d="M127.875,124.5h-12.794H17.228c0,48.601,49.696,88,111,88s111-39.399,111-88H127.875z"/>
		</g>
	</g>
	<g>
		<g>
			<path class="st0" d="M239.227,123H127.875c-0.829,0-1.5,0.671-1.5,1.5s0.671,1.5,1.5,1.5h109.836
				c-1.016,47.007-49.738,85-109.483,85S19.761,173.007,18.744,126h96.337c0.829,0,1.5-0.671,1.5-1.5s-0.671-1.5-1.5-1.5H17.228
				c-0.829,0-1.5,0.671-1.5,1.5c0,49.351,50.467,89.5,112.5,89.5s112.499-40.149,112.499-89.5
				C240.727,123.671,240.056,123,239.227,123z"/>
		</g>
	</g>
	<g>
		<g>
			<path class="st12" d="M218.833,120.385h-1.382c-0.81-3.541-2.222-6.853-4.124-9.822l1.017-1.017c1.172-1.172,1.172-3.071,0-4.243
				l-5.402-5.402c-1.172-1.172-3.071-1.172-4.243,0l-1.055,1.055c-2.962-1.866-6.26-3.247-9.783-4.033v-1.511c0-1.657-1.343-3-3-3
				h-7.64c-1.657,0-3,1.343-3,3v1.511c-1.867,0.503-6.821,2.167-9.783,4.033l-1.055-1.055c-1.172-1.172-3.071-1.172-4.243,0
				l-5.402,5.402c-1.172,1.172-1.172,3.071,0,4.243l1.017,1.017c-1.902,2.968-3.314,6.28-4.124,9.822h-1.382c-1.657,0-3,1.343-3,3
				v7.64c0,1.657,1.343,3,3,3h1.31c0.779,3.585,2.174,6.94,4.069,9.948l-0.89,0.89c-1.172,1.172-1.172,3.071,0,4.243l5.402,5.402
				c1.172,1.172,3.071,1.172,4.243,0l0.852-0.852c3.014,1.931,6.383,3.356,9.987,4.16v1.181c0,1.657,1.343,3,3,3h7.64
				c1.657,0,3-1.344,3-3v-1.181c3.603-0.804,6.972-2.229,9.987-4.16l0.852,0.852c1.172,1.172,3.071,1.172,4.243,0l5.402-5.402
				c1.172-1.172,1.172-3.072,0-4.243l-0.89-0.89c1.895-3.009,3.29-6.363,4.069-9.948h1.31c1.657,0,3-1.343,3-3v-7.64
				C221.833,121.728,220.49,120.385,218.833,120.385z M187.04,142.803c-8.615,0-15.598-6.984-15.598-15.598
				s6.984-15.598,15.598-15.598c8.615,0,15.598,6.983,15.598,15.598S195.655,142.803,187.04,142.803z"/>
		</g>
	</g>
	<g>
		<g>
			<path class="st0" d="M187.04,110.107c-9.428,0-17.099,7.67-17.099,17.098s7.671,17.098,17.099,17.098
				c9.428,0,17.099-7.67,17.099-17.098S196.468,110.107,187.04,110.107z M187.04,141.303c-7.774,0-14.099-6.324-14.099-14.098
				s6.324-14.098,14.099-14.098c7.774,0,14.099,6.324,14.099,14.098S194.814,141.303,187.04,141.303z M218.833,118.885h-0.209
				c-0.762-2.843-1.901-5.559-3.398-8.098l0.179-0.179c0.851-0.85,1.318-1.98,1.318-3.182c0-1.203-0.468-2.333-1.318-3.182
				l-5.402-5.403c-1.754-1.754-4.61-1.753-6.364,0l-0.225,0.224c-2.529-1.467-5.229-2.581-8.053-3.321v-0.332
				c0-2.481-2.019-4.5-4.5-4.5h-7.641c-2.481,0-4.5,2.019-4.5,4.5v0.389c-1.96,0.609-5.372,1.812-8.041,3.276l-0.236-0.237
				c-1.754-1.754-4.61-1.753-6.364,0l-5.402,5.402c-0.851,0.85-1.318,1.98-1.318,3.183c0,1.202,0.468,2.332,1.318,3.182l0.179,0.179
				c-1.497,2.54-2.637,5.255-3.398,8.098h-0.209c-2.482,0-4.5,2.019-4.5,4.5v7.64c0,2.481,2.018,4.5,4.5,4.5h0.125
				c0.739,2.884,1.867,5.639,3.362,8.218l-0.059,0.059c-1.755,1.755-1.755,4.61,0,6.365l5.402,5.402c1.754,1.754,4.61,1.753,6.364,0
				l0.015-0.014c2.588,1.526,5.358,2.68,8.263,3.441v0.001c0,2.481,2.019,4.5,4.5,4.5h7.641c2.481,0,4.5-2.019,4.5-4.5v-0.001
				c2.904-0.761,5.675-1.915,8.263-3.441l0.015,0.015c1.754,1.754,4.61,1.753,6.364,0l5.402-5.402c1.755-1.755,1.755-4.61,0-6.365
				l-0.059-0.059c1.495-2.579,2.623-5.334,3.362-8.218h0.125c2.481,0,4.5-2.019,4.5-4.5v-7.64
				C223.333,120.904,221.314,118.885,218.833,118.885z M220.333,131.025c0,0.827-0.673,1.5-1.5,1.5h-1.311
				c-0.706,0-1.315,0.492-1.466,1.181c-0.731,3.364-2.034,6.549-3.872,9.468c-0.373,0.593-0.286,1.365,0.209,1.86l0.89,0.89
				c0.585,0.585,0.585,1.537,0,2.123l-5.402,5.401c-0.585,0.584-1.535,0.585-2.122,0l-0.852-0.852
				c-0.496-0.498-1.273-0.583-1.87-0.203c-2.922,1.872-6.119,3.204-9.503,3.959c-0.687,0.153-1.174,0.761-1.174,1.464v1.181
				c0,0.827-0.673,1.5-1.5,1.5h-7.641c-0.827,0-1.5-0.673-1.5-1.5v-1.181c0-0.703-0.487-1.311-1.174-1.464
				c-3.384-0.755-6.581-2.087-9.503-3.959c-0.249-0.159-0.53-0.237-0.809-0.237c-0.388,0-0.773,0.15-1.062,0.439l-0.852,0.851
				c-0.585,0.584-1.535,0.585-2.122,0l-5.402-5.402c-0.585-0.585-0.585-1.537,0-2.123l0.89-0.89c0.495-0.495,0.582-1.267,0.209-1.86
				c-1.838-2.918-3.141-6.104-3.872-9.468c-0.15-0.689-0.76-1.181-1.466-1.181h-1.31c-0.827,0-1.5-0.673-1.5-1.5v-7.64
				c0-0.827,0.673-1.5,1.5-1.5h1.382c0.699,0,1.306-0.483,1.462-1.166c0.761-3.324,2.082-6.469,3.925-9.347
				c0.381-0.593,0.296-1.372-0.202-1.87l-1.017-1.017c-0.283-0.284-0.44-0.661-0.44-1.061c0-0.401,0.156-0.777,0.44-1.061
				l5.402-5.402c0.585-0.584,1.535-0.586,2.122,0l1.055,1.055c0.494,0.495,1.265,0.583,1.86,0.208
				c2.76-1.739,7.593-3.374,9.373-3.854c0.655-0.176,1.11-0.77,1.11-1.448v-1.512c0-0.827,0.673-1.5,1.5-1.5h7.641
				c0.827,0,1.5,0.673,1.5,1.5v1.512c0,0.703,0.487,1.311,1.174,1.464c3.305,0.737,6.438,2.028,9.31,3.838
				c0.595,0.375,1.366,0.287,1.86-0.208l1.055-1.055c0.585-0.584,1.535-0.585,2.122,0l5.402,5.403
				c0.283,0.283,0.439,0.66,0.439,1.061c0,0.4-0.156,0.777-0.439,1.061l-1.017,1.017c-0.498,0.498-0.583,1.276-0.202,1.87
				c1.843,2.878,3.164,6.022,3.925,9.347c0.156,0.682,0.763,1.166,1.462,1.166h1.382c0.827,0,1.5,0.673,1.5,1.5V131.025z"/>
		</g>
	</g>
	<g>
		<g>
			<path class="st10" d="M223.338,126v5.02c0,1.23-0.5,2.35-1.3,3.17c-5.83,41.22-48.49,73.77-101.31,76.6
				c2.48,0.14,4.98,0.21,7.5,0.21c59.75,0,108.47-37.99,109.48-85H223.338z"/>
		</g>
	</g>
</g>
</svg>
