<?xml version="1.0" encoding="utf-8"?>
<!-- Generator: Adobe Illustrator 22.0.0, SVG Export Plug-In . SVG Version: 6.00 Build 0)  -->
<svg version="1.1" id="Layer_1" xmlns="http://www.w3.org/2000/svg" xmlns:xlink="http://www.w3.org/1999/xlink" x="0px" y="0px"
	 viewBox="0 0 256 256" style="enable-background:new 0 0 256 256;" xml:space="preserve">
<style type="text/css">
	.st0{fill:#3A312A;}
	.st1{fill:#F16C7A;}
	.st2{fill:#D7E057;}
	.st3{fill:#F8E4C8;}
	.st4{fill:#89C4DB;}
	.st5{fill-rule:evenodd;clip-rule:evenodd;fill:#F8E4C8;}
	.st6{fill:#87796F;}
	.st7{fill:#D4DB56;}
	.st8{fill:#F59689;}
	.st9{fill:#6CA6BE;}
	.st10{fill:#695B51;}
	.st11{fill:#F7E3C7;}
	.st12{fill:#8AC6DD;}
	.st13{fill:#6CA8BF;}
	.st14{fill:#D6DF58;}
	.st15{fill:#FAE6CA;}
	.st16{fill:#EF6D7A;}
	.st17{fill:#DDC9AC;}
	.st18{fill:#D24E5C;}
	.st19{fill:#6A5C52;}
	.st20{fill:#B9C239;}
	.st21{fill:#FCE8CB;}
	.st22{fill:#DECAAD;}
	.st23{fill:#D5DE58;}
	.st24{fill:#8AC5DC;}
	.st25{fill:#D34E5C;}
	.st26{fill:#ED6E7A;}
	.st27{fill:#B8C136;}
</style>
<g>
	<path class="st16" d="M195.117,119.67h-2.701c-1.583-6.921-4.343-13.394-8.06-19.196l1.988-1.987c2.29-2.29,2.29-6.003,0-8.293
		l-10.558-10.558c-2.29-2.29-6.003-2.29-8.293,0l-2.062,2.062c-5.79-3.647-12.235-6.347-19.121-7.882v-2.954
		c0-3.238-2.625-5.864-5.864-5.864h-14.931c-3.239,0-5.864,2.626-5.864,5.864v2.954c-3.649,0.983-13.331,4.235-19.121,7.882
		l-2.062-2.062c-2.29-2.29-6.003-2.29-8.293,0L79.616,90.195c-2.29,2.29-2.29,6.003,0,8.293l1.988,1.987
		c-3.717,5.802-6.477,12.274-8.061,19.196h-2.701c-3.239,0-5.864,2.625-5.864,5.864v14.931c0,3.239,2.625,5.864,5.864,5.864h2.561
		c1.523,7.007,4.249,13.563,7.953,19.443l-1.739,1.739c-2.29,2.29-2.29,6.003,0,8.293l10.558,10.558c2.29,2.29,6.003,2.29,8.293,0
		l1.664-1.664c5.891,3.774,12.476,6.56,19.518,8.13v2.308c0,3.238,2.625,5.864,5.864,5.864h14.931c3.238,0,5.864-2.625,5.864-5.864
		v-2.308c7.043-1.571,13.627-4.356,19.518-8.13l1.665,1.664c2.29,2.29,6.003,2.29,8.293,0l10.558-10.558
		c2.29-2.29,2.29-6.003,0-8.293l-1.739-1.739c3.704-5.88,6.43-12.437,7.953-19.443h2.561c3.239,0,5.864-2.625,5.864-5.864v-14.931
		C200.981,122.296,198.356,119.67,195.117,119.67z M132.98,163.486c-16.837,0-30.486-13.649-30.486-30.486
		c0-16.837,13.649-30.486,30.486-30.486c16.837,0,30.486,13.649,30.486,30.486C163.466,149.837,149.817,163.486,132.98,163.486z"/>
	<path class="st0" d="M140.445,202.501h-14.931c-4.061,0-7.364-3.303-7.364-7.364v-1.118c-6.297-1.532-12.276-4.022-17.803-7.415
		l-0.819,0.819c-1.391,1.391-3.24,2.157-5.207,2.157s-3.816-0.766-5.207-2.157l-10.558-10.558c-2.871-2.872-2.871-7.543,0-10.414
		l0.9-0.901c-3.329-5.515-5.763-11.466-7.25-17.722h-1.364c-4.06,0-7.364-3.303-7.364-7.364v-14.932
		c0-4.061,3.303-7.364,7.364-7.364h1.518c1.538-6.176,4.002-12.046,7.338-17.48l-1.142-1.142c-1.391-1.391-2.157-3.241-2.157-5.207
		c0-1.967,0.766-3.816,2.157-5.207l10.558-10.558c1.391-1.391,3.24-2.157,5.207-2.157s3.816,0.766,5.207,2.157l1.231,1.231
		c5.394-3.133,13.283-5.914,17.391-7.126v-1.82c0-4.06,3.304-7.364,7.364-7.364h14.931c4.061,0,7.364,3.303,7.364,7.364v1.764
		c6.138,1.494,11.98,3.902,17.399,7.173l1.224-1.223c2.871-2.871,7.543-2.871,10.414,0l10.558,10.558
		c2.872,2.871,2.872,7.543,0,10.414l-1.143,1.142c3.336,5.434,5.801,11.304,7.338,17.48h1.518c4.061,0,7.364,3.303,7.364,7.364
		v14.932c0,4.061-3.304,7.364-7.364,7.364h-1.364c-1.487,6.256-3.921,12.207-7.25,17.722l0.9,0.901
		c2.871,2.871,2.871,7.542,0,10.414l-10.558,10.558c-1.391,1.391-3.24,2.157-5.207,2.157c-1.967,0-3.816-0.766-5.207-2.157
		l-0.819-0.819c-5.527,3.393-11.505,5.883-17.803,7.415v1.118C147.809,199.198,144.506,202.501,140.445,202.501z M100.132,183.199
		c0.279,0,0.56,0.078,0.809,0.237c5.853,3.75,12.257,6.417,19.036,7.93c0.686,0.153,1.173,0.761,1.173,1.464v2.308
		c0,2.406,1.958,4.364,4.364,4.364h14.931c2.406,0,4.364-1.958,4.364-4.364v-2.308c0-0.703,0.488-1.311,1.173-1.464
		c6.779-1.512,13.184-4.18,19.036-7.93c0.592-0.38,1.371-0.296,1.87,0.202l1.665,1.664c0.825,0.825,1.92,1.279,3.086,1.279
		c1.165,0,2.261-0.454,3.086-1.278l10.558-10.558c1.701-1.702,1.701-4.47,0-6.172l-1.739-1.739c-0.496-0.495-0.582-1.268-0.208-1.86
		c3.682-5.846,6.291-12.226,7.756-18.963c0.15-0.69,0.76-1.182,1.466-1.182h2.561c2.406,0,4.364-1.958,4.364-4.364v-14.932
		c0-2.406-1.958-4.364-4.364-4.364h-2.701c-0.7,0-1.306-0.483-1.462-1.166c-1.523-6.658-4.168-12.957-7.861-18.721
		c-0.38-0.593-0.296-1.372,0.203-1.87l1.988-1.987c1.702-1.701,1.702-4.47,0-6.171l-10.558-10.558c-1.702-1.701-4.47-1.701-6.172,0
		l-2.062,2.062c-0.495,0.495-1.268,0.582-1.86,0.208c-5.753-3.624-12.027-6.211-18.648-7.688c-0.686-0.153-1.173-0.761-1.173-1.464
		v-2.954c0-2.406-1.958-4.364-4.364-4.364h-14.931c-2.406,0-4.364,1.958-4.364,4.364v2.954c0,0.678-0.455,1.272-1.11,1.448
		c-3.694,0.995-13.127,4.186-18.711,7.703c-0.592,0.374-1.364,0.287-1.86-0.208l-2.062-2.062c-1.702-1.701-4.47-1.701-6.172,0
		L80.677,91.255c-1.701,1.702-1.701,4.47,0,6.172l1.988,1.986c0.499,0.499,0.583,1.277,0.203,1.87
		c-3.693,5.764-6.338,12.063-7.861,18.721c-0.156,0.682-0.763,1.166-1.462,1.166h-2.702c-2.406,0-4.364,1.957-4.364,4.364v14.932
		c0,2.406,1.957,4.364,4.364,4.364h2.561c0.706,0,1.316,0.492,1.466,1.182c1.464,6.737,4.074,13.117,7.756,18.963
		c0.374,0.592,0.287,1.365-0.208,1.86l-1.739,1.739c-1.701,1.702-1.701,4.47,0,6.172l10.558,10.558
		c0.824,0.824,1.92,1.278,3.086,1.278c1.165,0,2.261-0.454,3.086-1.278l1.665-1.665C99.361,183.349,99.745,183.199,100.132,183.199z
		 M132.979,164.986c-17.637,0-31.986-14.349-31.986-31.986s14.349-31.986,31.986-31.986s31.986,14.349,31.986,31.986
		S150.617,164.986,132.979,164.986z M132.979,104.014c-15.983,0-28.986,13.003-28.986,28.986s13.003,28.986,28.986,28.986
		s28.986-13.003,28.986-28.986S148.962,104.014,132.979,104.014z"/>
	<path class="st25" d="M183.503,119.989h7.447c-1.522-6.646-4.163-12.935-7.849-18.692c-0.384-0.599-0.309-1.38,0.194-1.883
		l1.865-1.865c0.717-0.717,1.238-1.633,1.364-2.638c0.173-1.373-0.285-2.698-1.243-3.655l-10.437-10.437
		c-0.717-0.717-1.633-1.238-2.638-1.364c-1.373-0.173-2.697,0.285-3.655,1.243l-2.062,2.062c-0.5,0.5-1.275,0.577-1.874,0.2
		c-5.654-3.56-11.813-6.112-18.307-7.599v7.223c0,1.286,0.816,2.443,2.04,2.838c15.347,4.954,27.448,17.122,32.309,32.509
		C181.048,119.163,182.209,119.989,183.503,119.989z"/>
	<path class="st25" d="M183.543,166.834c-0.5-0.5-0.577-1.275-0.2-1.873c3.543-5.628,6.08-11.753,7.57-18.211h-7.681
		c-1.277,0-2.427,0.805-2.83,2.017c-5.002,15.051-16.943,26.931-32.05,31.81c-1.225,0.396-2.042,1.551-2.042,2.838v7.869
		c6.652-1.524,12.941-4.156,18.695-7.841c0.599-0.384,1.38-0.309,1.883,0.194l1.545,1.544c0.717,0.716,1.633,1.237,2.639,1.363
		c1.373,0.172,2.696-0.286,3.652-1.243l10.437-10.436c0.717-0.717,1.238-1.634,1.364-2.64c0.172-1.373-0.286-2.696-1.243-3.654
		L183.543,166.834z"/>
	<path class="st14" d="M47.946,26.248c0,0,3.408,12.659,13.222,13.246c0,0-13.1,4.525-13.321,14.202c0,0-2.579-13.572-12.925-14.059
		C34.922,39.638,46.972,37.812,47.946,26.248z"/>
	<path class="st0" d="M47.846,55.196c-0.713,0-1.336-0.506-1.472-1.217c-0.024-0.124-2.495-12.417-11.522-12.842
		c-0.771-0.037-1.388-0.651-1.428-1.421c-0.04-0.771,0.511-1.445,1.273-1.561c0.441-0.069,10.894-1.817,11.754-12.033
		c0.061-0.725,0.634-1.301,1.359-1.367c0.733-0.059,1.393,0.399,1.584,1.101c0.032,0.116,3.259,11.626,11.864,12.141
		c0.714,0.043,1.297,0.584,1.396,1.292c0.098,0.708-0.319,1.388-0.994,1.623c-0.121,0.042-12.119,4.311-12.313,12.819
		c-0.018,0.767-0.61,1.396-1.375,1.459C47.93,55.194,47.888,55.196,47.846,55.196z M40.105,39.466
		c3.878,1.969,6.23,5.746,7.587,8.876c2.027-4.021,5.941-6.787,8.949-8.427c-4.134-1.842-6.783-5.651-8.334-8.722
		C46.514,35.553,43.036,38.062,40.105,39.466z"/>
	<path class="st14" d="M26.248,43.229c0,0,2.411,8.954,9.352,9.369c0,0-9.266,3.201-9.422,10.045c0,0-1.824-9.6-9.142-9.944
		C17.035,52.699,25.559,51.408,26.248,43.229z"/>
	<path class="st0" d="M26.176,64.144c-0.713,0-1.337-0.507-1.472-1.22c-0.016-0.082-1.704-8.442-7.739-8.726
		c-0.771-0.037-1.388-0.651-1.428-1.421c-0.04-0.771,0.511-1.445,1.273-1.561c0.296-0.047,7.364-1.243,7.942-8.114
		c0.061-0.726,0.635-1.303,1.36-1.368c0.731-0.062,1.392,0.399,1.582,1.101l0,0c0.021,0.079,2.228,7.92,7.994,8.265
		c0.714,0.043,1.299,0.584,1.396,1.293c0.098,0.709-0.32,1.388-0.996,1.622c-0.081,0.028-8.282,2.952-8.413,8.662
		c-0.018,0.767-0.611,1.398-1.376,1.461C26.259,64.142,26.217,64.144,26.176,64.144z M21.657,52.616
		c2.107,1.333,3.524,3.395,4.447,5.28c1.376-2.232,3.515-3.872,5.365-4.972c-2.287-1.27-3.884-3.35-4.941-5.224
		C25.354,49.986,23.513,51.575,21.657,52.616z"/>
	<path class="st14" d="M26.21,16.571c0,0,2.446,8.945,9.388,9.333c0,0-9.253,3.237-9.383,10.082c0,0-1.862-9.593-9.181-9.908
		C17.034,26.078,25.553,24.753,26.21,16.571z"/>
	<path class="st0" d="M26.214,37.487c-0.711,0-1.333-0.504-1.471-1.214c-0.016-0.082-1.737-8.435-7.773-8.696
		c-0.771-0.033-1.391-0.645-1.433-1.415c-0.043-0.77,0.505-1.447,1.267-1.566c0.295-0.048,7.359-1.271,7.911-8.144
		c0.058-0.726,0.63-1.306,1.355-1.374c0.722-0.069,1.393,0.394,1.586,1.096l0,0c0.022,0.079,2.258,7.911,8.025,8.233
		c0.715,0.04,1.302,0.579,1.402,1.288c0.1,0.709-0.314,1.39-0.99,1.626c-0.081,0.028-8.27,2.985-8.378,8.695
		c-0.014,0.767-0.605,1.4-1.37,1.466C26.301,37.485,26.257,37.487,26.214,37.487z M21.656,25.977
		c2.112,1.325,3.536,3.381,4.468,5.263c1.367-2.238,3.5-3.886,5.345-4.994c-2.292-1.26-3.897-3.335-4.961-5.205
		C25.343,23.333,23.508,24.928,21.656,25.977z"/>
	<path class="st12" d="M62.318,191.296c-12.896-15.748-20.646-35.865-20.646-57.76c0-50.347,40.96-91.307,91.307-91.307
		c14.317,0,28.115,3.272,40.647,9.529l-3.582,0.846c-3.949,0.933-6.394,4.89-5.461,8.839c0.841,3.56,4.14,5.898,7.674,5.64
		c0.386-0.028,0.776-0.087,1.164-0.178l20.985-4.957c1.896-0.448,3.537-1.631,4.561-3.289c1.024-1.658,1.348-3.654,0.9-5.55
		l-4.957-20.986c-0.932-3.948-4.891-6.389-8.839-5.461c-3.949,0.933-6.394,4.89-5.461,8.838l0.889,3.765
		c-14.902-7.706-31.396-11.729-48.522-11.729c-58.448,0-106,47.552-106,106c0,58.449,47.552,106,106,106s106-47.551,106-106
		c0-20.041-5.627-39.559-16.271-56.443c-2.164-3.433-6.701-4.461-10.133-2.296c-3.432,2.164-4.46,6.701-2.296,10.133
		c9.164,14.535,14.007,31.343,14.007,48.607c0,50.347-40.96,91.307-91.307,91.307c-23.707,0-45.33-9.083-61.578-23.95
		L62.318,191.296z"/>
	<path class="st0" d="M132.979,241.036c-59.276,0-107.5-48.224-107.5-107.5c0-59.276,48.224-107.5,107.5-107.5
		c16.298,0,31.868,3.518,46.327,10.459l-0.154-0.65c-0.543-2.299-0.158-4.673,1.084-6.683c1.242-2.01,3.193-3.416,5.493-3.959
		c4.752-1.114,9.522,1.834,10.643,6.576l4.958,20.985c0.543,2.3,0.158,4.673-1.085,6.684c-1.243,2.011-3.193,3.417-5.493,3.96
		l-20.985,4.957c-0.461,0.108-0.932,0.181-1.399,0.215c-4.345,0.312-8.24-2.539-9.245-6.791c-1.075-4.554,1.596-9.132,6.005-10.489
		c-11.367-5.025-23.506-7.57-36.149-7.57c-49.519,0-89.807,40.287-89.807,89.807c0,20.645,7.211,40.82,20.306,56.81
		c0.525,0.641,0.431,1.586-0.21,2.111c-0.642,0.524-1.586,0.43-2.111-0.21c-13.532-16.524-20.985-37.374-20.985-58.71
		c0-51.174,41.633-92.807,92.807-92.807c14.543,0,28.443,3.259,41.317,9.687c0.565,0.282,0.893,0.888,0.82,1.515
		c-0.073,0.627-0.53,1.142-1.145,1.287l-3.582,0.846c-3.137,0.741-5.087,3.897-4.346,7.034c0.664,2.811,3.237,4.704,6.106,4.489
		c0.31-0.022,0.623-0.071,0.93-0.143l20.984-4.957c1.519-0.358,2.808-1.288,3.63-2.617c0.821-1.329,1.075-2.897,0.716-4.417
		l-4.958-20.985c-0.74-3.134-3.897-5.08-7.035-4.346c-1.519,0.359-2.808,1.288-3.629,2.617c-0.821,1.328-1.075,2.897-0.716,4.417
		l0.889,3.766c0.135,0.57-0.075,1.167-0.537,1.527c-0.462,0.36-1.091,0.419-1.612,0.15c-14.835-7.672-30.929-11.562-47.833-11.562
		c-57.622,0-104.5,46.879-104.5,104.5c0,57.622,46.878,104.5,104.5,104.5s104.5-46.878,104.5-104.5
		c0-19.758-5.546-38.999-16.04-55.644c-0.833-1.321-2.13-2.239-3.654-2.584c-1.522-0.347-3.089-0.077-4.41,0.756
		c-2.728,1.72-3.547,5.337-1.828,8.064c9.315,14.775,14.238,31.859,14.238,49.407c0,51.174-41.633,92.807-92.807,92.807
		c-23.206,0-45.434-8.646-62.591-24.344c-0.611-0.559-0.653-1.508-0.094-2.119c0.559-0.611,1.508-0.653,2.119-0.094
		c16.602,15.191,38.111,23.557,60.565,23.557c49.52,0,89.807-40.287,89.807-89.807c0-16.98-4.764-33.512-13.776-47.807
		c-1.26-1.998-1.666-4.369-1.144-6.673c0.522-2.305,1.911-4.268,3.91-5.528c1.997-1.26,4.366-1.668,6.673-1.145
		c2.305,0.522,4.268,1.912,5.528,3.911c10.795,17.124,16.502,36.918,16.502,57.243C240.479,192.811,192.255,241.036,132.979,241.036
		z"/>
</g>
</svg>
