<?xml version="1.0" encoding="utf-8"?>
<!-- Generator: Adobe Illustrator 22.0.1, SVG Export Plug-In . SVG Version: 6.00 Build 0)  -->
<svg version="1.1" id="Layer_1" xmlns="http://www.w3.org/2000/svg" xmlns:xlink="http://www.w3.org/1999/xlink" x="0px" y="0px"
	 viewBox="0 0 256 256" style="enable-background:new 0 0 256 256;" xml:space="preserve">
<style type="text/css">
	.st0{fill:#3A312A;}
	.st1{fill:#F16C7A;}
	.st2{fill:#D7E057;}
	.st3{fill:#F8E4C8;}
	.st4{fill:#89C4DB;}
	.st5{fill-rule:evenodd;clip-rule:evenodd;fill:#F8E4C8;}
	.st6{fill:#87796F;}
	.st7{fill:#D4DB56;}
	.st8{fill:#F59689;}
	.st9{fill:#6CA6BE;}
	.st10{fill:#695B51;}
	.st11{fill:#F7E3C7;}
	.st12{fill:#8AC6DD;}
	.st13{fill:#6CA8BF;}
	.st14{fill:#D6DF58;}
	.st15{fill:#FAE6CA;}
	.st16{fill:#EF6D7A;}
	.st17{fill:#DDC9AC;}
	.st18{fill:#D24E5C;}
	.st19{fill:#6A5C52;}
	.st20{fill:#B9C239;}
	.st21{fill:#FCE8CB;}
	.st22{fill:#DECAAD;}
	.st23{fill:#D5DE58;}
	.st24{fill:#8AC5DC;}
	.st25{fill:#D34E5C;}
	.st26{fill:#ED6E7A;}
	.st27{fill:#B8C136;}
</style>
<g>
	<g>
		<g>
			<path class="st6" d="M222.239,16.135H33.45c-9.447,0-17.106,7.658-17.106,17.106V163.53c0,9.447,7.658,17.105,17.106,17.105
				h188.789c9.447,0,17.106-7.658,17.106-17.105V33.241C239.345,23.794,231.687,16.135,222.239,16.135z"/>
		</g>
	</g>
	<g>
		<g>
			<path class="st0" d="M222.239,14.635H33.45c-10.259,0-18.605,8.346-18.605,18.605v130.29c0,10.259,8.346,18.605,18.605,18.605
				h188.789c10.259,0,18.605-8.347,18.605-18.605V33.241C240.845,22.981,232.498,14.635,222.239,14.635z M237.845,163.53
				c0,8.604-7.001,15.605-15.605,15.605H33.45c-8.605,0-15.605-7.001-15.605-15.605V33.241c0-8.605,7-15.605,15.605-15.605h188.789
				c8.605,0,15.605,7,15.605,15.605V163.53z"/>
		</g>
	</g>
	<g>
		<g>
			<path class="st12" d="M214.815,28.64H40.875c-6.58,0-11.92,5.33-11.92,11.92v115.66c0,6.58,5.34,11.92,11.92,11.92h173.94
				c6.58,0,11.92-5.34,11.92-11.92V40.56C226.735,33.97,221.395,28.64,214.815,28.64z"/>
		</g>
	</g>
	<g>
		<g>
			<path class="st0" d="M214.815,27.14H40.875c-7.4,0-13.42,6.02-13.42,13.42v51.162c0,0.829,0.671,1.5,1.5,1.5
				c0.829,0,1.5-0.671,1.5-1.5V40.56c0-5.746,4.674-10.42,10.42-10.42h173.94c5.746,0,10.42,4.674,10.42,10.42v115.66
				c0,5.745-4.674,10.42-10.42,10.42H40.875c-5.746,0-10.42-4.675-10.42-10.42v-51.275c0-0.829-0.671-1.5-1.5-1.5
				c-0.829,0-1.5,0.671-1.5,1.5v51.275c0,7.399,6.02,13.42,13.42,13.42h173.94c7.4,0,13.42-6.021,13.42-13.42V40.56
				C228.235,33.16,222.215,27.14,214.815,27.14z"/>
		</g>
	</g>
	<g>
		<g>
			<rect x="113.532" y="180.635" class="st6" width="28.625" height="35.593"/>
		</g>
	</g>
	<g>
		<g>
			<path class="st0" d="M142.157,179.136h-28.625c-0.829,0-1.5,0.672-1.5,1.5v35.593c0,0.828,0.671,1.5,1.5,1.5h28.625
				c0.829,0,1.5-0.672,1.5-1.5v-35.593C143.657,179.808,142.986,179.136,142.157,179.136z M140.657,214.729h-25.625v-32.593h25.625
				V214.729z"/>
		</g>
	</g>
	<g>
		<g>
			<path class="st6" d="M148.141,216.229h-40.593c-12.927,0-23.407,10.479-23.407,23.406h87.406
				C171.548,226.708,161.068,216.229,148.141,216.229z"/>
		</g>
	</g>
	<g>
		<g>
			<path class="st0" d="M148.141,214.729h-40.593c-13.733,0-24.907,11.173-24.907,24.907c0,0.828,0.671,1.5,1.5,1.5h37.584
				c0.829,0,1.5-0.672,1.5-1.5s-0.671-1.5-1.5-1.5H85.692c0.773-11.383,10.281-20.407,21.856-20.407h40.593
				c11.575,0,21.082,9.024,21.856,20.407h-34.701c-0.829,0-1.5,0.672-1.5,1.5s0.671,1.5,1.5,1.5h36.252c0.829,0,1.5-0.672,1.5-1.5
				C173.048,225.901,161.875,214.729,148.141,214.729z"/>
		</g>
	</g>
	<g>
		<g>
			<path class="st2" d="M47.516,203.469c-0.974,11.564-13.024,13.39-13.024,13.39c10.346,0.487,12.925,14.059,12.925,14.059
				c0.221-9.677,13.321-14.202,13.321-14.202C50.924,216.129,47.516,203.469,47.516,203.469z"/>
		</g>
	</g>
	<g>
		<g>
			<path class="st0" d="M60.827,215.219c-8.604-0.515-11.831-12.024-11.863-12.141c-0.19-0.702-0.848-1.163-1.583-1.102
				c-0.725,0.066-1.298,0.642-1.359,1.367c-0.86,10.215-11.313,11.963-11.754,12.031c-0.763,0.116-1.313,0.791-1.273,1.561
				c0.04,0.771,0.657,1.385,1.427,1.421c9.028,0.426,11.499,12.719,11.523,12.844c0.137,0.711,0.759,1.217,1.472,1.217
				c0.042,0,0.084-0.002,0.127-0.005c0.764-0.064,1.356-0.693,1.374-1.46c0.194-8.509,12.191-12.777,12.313-12.819
				c0.675-0.234,1.092-0.914,0.994-1.622C62.125,215.802,61.541,215.261,60.827,215.219z M47.262,225.564
				c-1.357-3.131-3.709-6.908-7.587-8.877c2.931-1.404,6.409-3.913,8.202-8.272c1.551,3.071,4.2,6.88,8.334,8.723
				C53.203,218.777,49.288,221.543,47.262,225.564z"/>
		</g>
	</g>
	<g>
		<g>
			<path class="st2" d="M25.817,220.45c-0.689,8.179-9.212,9.471-9.212,9.471c7.318,0.344,9.142,9.944,9.142,9.944
				c0.156-6.845,9.422-10.045,9.422-10.045C28.228,229.404,25.817,220.45,25.817,220.45z"/>
		</g>
	</g>
	<g>
		<g>
			<path class="st0" d="M35.259,228.322c-5.766-0.345-7.972-8.186-7.994-8.265c-0.19-0.702-0.856-1.166-1.582-1.102
				c-0.726,0.065-1.299,0.643-1.36,1.368c-0.579,6.87-7.647,8.066-7.942,8.113c-0.763,0.116-1.314,0.791-1.273,1.561
				c0.04,0.771,0.657,1.385,1.428,1.421c6.035,0.284,7.723,8.644,7.739,8.726c0.135,0.712,0.759,1.22,1.472,1.22
				c0.042,0,0.083-0.002,0.125-0.005c0.765-0.063,1.358-0.693,1.376-1.461c0.13-5.708,8.332-8.633,8.413-8.661
				c0.677-0.234,1.094-0.913,0.996-1.622C36.558,228.906,35.974,228.364,35.259,228.322z M25.674,235.116
				c-0.924-1.885-2.34-3.946-4.447-5.279c1.855-1.041,3.697-2.63,4.87-4.916c1.057,1.874,2.654,3.954,4.941,5.224
				C29.19,231.245,27.05,232.885,25.674,235.116z"/>
		</g>
	</g>
	<g>
		<g>
			<path class="st2" d="M25.817,193.792c-0.689,8.179-9.212,9.471-9.212,9.471c7.318,0.344,9.142,9.944,9.142,9.944
				c0.156-6.845,9.422-10.045,9.422-10.045C28.228,202.747,25.817,193.792,25.817,193.792z"/>
		</g>
	</g>
	<g>
		<g>
			<path class="st0" d="M35.259,201.665c-5.766-0.345-7.972-8.187-7.994-8.266c-0.19-0.702-0.864-1.166-1.582-1.102
				c-0.726,0.065-1.3,0.643-1.361,1.368c-0.579,6.871-7.646,8.066-7.942,8.113c-0.763,0.116-1.313,0.791-1.273,1.561
				c0.04,0.771,0.657,1.385,1.427,1.421c6.036,0.284,7.724,8.645,7.739,8.727c0.135,0.712,0.759,1.22,1.472,1.22
				c0.042,0,0.083-0.002,0.125-0.005c0.765-0.063,1.358-0.693,1.376-1.461c0.13-5.709,8.331-8.633,8.413-8.661
				c0.676-0.233,1.094-0.913,0.996-1.622C36.558,202.249,35.974,201.707,35.259,201.665z M25.674,208.459
				c-0.924-1.886-2.34-3.947-4.447-5.279c1.856-1.041,3.697-2.63,4.871-4.916c1.057,1.873,2.654,3.954,4.941,5.224
				C29.19,204.588,27.05,206.228,25.674,208.459z"/>
		</g>
	</g>
	<g>
		<g>
			<path class="st13" d="M214.815,30.135h-15c5.74,0,10.42,4.67,10.42,10.42v115.66c0,5.75-4.68,10.42-10.42,10.42h15
				c5.74,0,10.42-4.67,10.42-10.42V40.555C225.235,34.805,220.555,30.135,214.815,30.135z"/>
		</g>
	</g>
	<g>
		<g>
			<rect x="58.845" y="28.64" class="st15" width="138" height="139.5"/>
		</g>
	</g>
	<g>
		<g>
			<path class="st0" d="M196.845,27.14h-138c-0.829,0-1.5,0.671-1.5,1.5v139.5c0,0.828,0.671,1.5,1.5,1.5h138
				c0.829,0,1.5-0.672,1.5-1.5V28.64C198.345,27.812,197.673,27.14,196.845,27.14z M195.345,166.64h-135V30.14h135V166.64z"/>
		</g>
	</g>
	<g>
		<g>
			<path class="st0" d="M163.854,133.479h-55.51V63.3h55.51c0.829,0,1.5-0.671,1.5-1.5s-0.671-1.5-1.5-1.5h-57.01
				c-0.829,0-1.5,0.671-1.5,1.5v73.179c0,0.828,0.671,1.5,1.5,1.5h57.01c0.829,0,1.5-0.672,1.5-1.5S164.683,133.479,163.854,133.479
				z"/>
		</g>
	</g>
	<g>
		<g>
			<path class="st0" d="M164.345,97h-57c-0.829,0-1.5,0.671-1.5,1.5s0.671,1.5,1.5,1.5h57c0.829,0,1.5-0.671,1.5-1.5
				S165.173,97,164.345,97z"/>
		</g>
	</g>
	<g>
		<g>
			<path class="st2" d="M171.893,51h-14.095c-2.702,0-4.892,2.19-4.892,4.893v84.215c0,2.702,2.19,4.893,4.892,4.893h14.095
				c2.702,0,4.893-2.19,4.893-4.893V55.893C176.785,53.19,174.595,51,171.893,51z"/>
		</g>
	</g>
	<g>
		<g>
			<path class="st0" d="M171.893,49.5h-14.095c-3.525,0-6.393,2.868-6.393,6.393v84.215c0,3.524,2.868,6.393,6.393,6.393h14.095
				c3.525,0,6.393-2.868,6.393-6.393V55.893C178.285,52.368,175.417,49.5,171.893,49.5z M175.285,140.107
				c0,1.871-1.522,3.393-3.393,3.393h-14.095c-1.871,0-3.393-1.521-3.393-3.393V55.893c0-1.871,1.522-3.393,3.393-3.393h14.095
				c1.871,0,3.393,1.522,3.393,3.393V140.107z"/>
		</g>
	</g>
	<g>
		<g>
			<path class="st1" d="M130.828,51H83.797c-2.702,0-4.893,2.19-4.893,4.893v11.215c0,2.702,2.19,4.893,4.893,4.893h47.031
				c2.702,0,4.893-2.19,4.893-4.893V55.893C135.721,53.19,133.531,51,130.828,51z"/>
		</g>
	</g>
	<g>
		<g>
			<path class="st0" d="M130.829,49.5H83.797c-3.525,0-6.393,2.868-6.393,6.393v11.215c0,3.525,2.868,6.393,6.393,6.393h47.031
				c3.525,0,6.393-2.868,6.393-6.393V55.893C137.221,52.368,134.354,49.5,130.829,49.5z M134.221,67.107
				c0,1.871-1.522,3.393-3.393,3.393H83.797c-1.871,0-3.393-1.522-3.393-3.393V55.893c0-1.871,1.522-3.393,3.393-3.393h47.031
				c1.871,0,3.393,1.522,3.393,3.393V67.107z"/>
		</g>
	</g>
	<g>
		<g>
			<path class="st2" d="M131.42,87.5H84.389c-2.702,0-4.893,2.19-4.893,4.893v11.215c0,2.702,2.19,4.893,4.893,4.893h47.031
				c2.702,0,4.892-2.19,4.892-4.893V92.393C136.313,89.69,134.122,87.5,131.42,87.5z"/>
		</g>
	</g>
	<g>
		<g>
			<path class="st0" d="M131.42,86H84.389c-3.525,0-6.393,2.868-6.393,6.393v11.215c0,3.525,2.868,6.393,6.393,6.393h47.031
				c3.525,0,6.393-2.868,6.393-6.393V92.393C137.813,88.868,134.945,86,131.42,86z M134.813,103.607
				c0,1.871-1.522,3.393-3.393,3.393H84.389c-1.871,0-3.393-1.522-3.393-3.393V92.393c0-1.871,1.522-3.393,3.393-3.393h47.031
				c1.871,0,3.393,1.522,3.393,3.393V103.607z"/>
		</g>
	</g>
	<g>
		<g>
			<path class="st1" d="M132.012,124H84.981c-2.702,0-4.892,2.19-4.892,4.893v11.215c0,2.702,2.19,4.893,4.892,4.893h47.031
				c2.702,0,4.893-2.19,4.893-4.893v-11.215C136.905,126.19,134.714,124,132.012,124z"/>
		</g>
	</g>
	<g>
		<g>
			<path class="st0" d="M132.012,122.5H84.981c-3.525,0-6.393,2.868-6.393,6.393v11.215c0,3.524,2.868,6.393,6.393,6.393h47.031
				c3.525,0,6.393-2.868,6.393-6.393v-11.215C138.405,125.368,135.537,122.5,132.012,122.5z M135.405,140.107
				c0,1.871-1.522,3.393-3.393,3.393H84.981c-1.871,0-3.393-1.521-3.393-3.393v-11.215c0-1.871,1.522-3.393,3.393-3.393h47.031
				c1.871,0,3.393,1.522,3.393,3.393V140.107z"/>
		</g>
	</g>
</g>
</svg>
