<svg id="Layer_1" data-name="Layer 1" xmlns="http://www.w3.org/2000/svg" viewBox="0 0 128 128"><title>INTERPHONE</title><rect x="22.333" y="5.15" width="83.333" height="117.699" style="fill:#6f6571"/><path d="M22.333,5.15V19.8H45.477a6.555,6.555,0,0,1,5.965,3.836h0a6.555,6.555,0,0,0,5.965,3.836H70.594a6.555,6.555,0,0,0,5.965-3.836h0A6.555,6.555,0,0,1,82.523,19.8h23.144V5.15Z" style="fill:#8bb3ea"/><rect x="31.278" y="110.605" width="14.711" height="5.508" rx="2.754" ry="2.754" style="fill:#8bb3ea"/><rect x="56.645" y="110.605" width="14.711" height="5.508" rx="2.754" ry="2.754" style="fill:#8bb3ea"/><rect x="82.011" y="110.605" width="14.711" height="5.508" rx="2.754" ry="2.754" style="fill:#8bb3ea"/><path d="M69.711,16.88a5.77,5.77,0,1,0-11.423,0h0a5.75,5.75,0,0,0,1.875,3.52l.053.048a5.785,5.785,0,0,0,.748.551l.1.06a5.741,5.741,0,0,0,.82.4c.039.016.079.029.119.044a5.708,5.708,0,0,0,.9.256c.032.006.064.009.1.015a5.466,5.466,0,0,0,2.005,0c.032-.006.064-.009.1-.015a5.708,5.708,0,0,0,.9-.256c.04-.015.08-.028.119-.044a5.741,5.741,0,0,0,.82-.4l.1-.06a5.785,5.785,0,0,0,.748-.551l.053-.048a5.75,5.75,0,0,0,1.875-3.52h0Z" style="fill:#6f6571"/><rect x="30.93" y="32.987" width="66.139" height="35.965" rx="4.001" ry="4.001" style="fill:#e04955"/><path d="M67.285,53.2a8.163,8.163,0,1,0-6.569,0A14.908,14.908,0,0,0,49.089,67.735v1.217H78.911V67.735A14.908,14.908,0,0,0,67.285,53.2Z" style="fill:#8bb3ea"/><path d="M105.667,3.4H22.333a1.75,1.75,0,0,0-1.75,1.75v117.7a1.75,1.75,0,0,0,1.75,1.75h83.334a1.75,1.75,0,0,0,1.75-1.75V5.15A1.75,1.75,0,0,0,105.667,3.4ZM24.083,6.9h79.834V18.046H82.522a8.323,8.323,0,0,0-7.557,4.86,4.816,4.816,0,0,1-4.372,2.813H57.406a4.816,4.816,0,0,1-4.372-2.812,8.323,8.323,0,0,0-7.557-4.86H24.083Zm0,114.2V21.546H45.478a4.814,4.814,0,0,1,4.371,2.812,8.325,8.325,0,0,0,7.558,4.86H70.594a8.325,8.325,0,0,0,7.558-4.861,4.814,4.814,0,0,1,4.371-2.812h21.395V121.1Z" style="fill:#1f2632"/><path d="M43.234,108.855h-9.2a4.5,4.5,0,0,0,0,9.008h9.2a4.5,4.5,0,1,0,0-9.008Zm0,5.508h-9.2a1,1,0,0,1,0-2.008h9.2a1,1,0,1,1,0,2.008Z" style="fill:#1f2632"/><path d="M68.6,108.855H59.4a4.5,4.5,0,0,0,0,9.008h9.2a4.5,4.5,0,0,0,0-9.008Zm0,5.508H59.4a1,1,0,0,1,0-2.008h9.2a1,1,0,0,1,0,2.008Z" style="fill:#1f2632"/><path d="M93.968,108.855h-9.2a4.5,4.5,0,1,0,0,9.008h9.2a4.5,4.5,0,0,0,0-9.008Zm0,5.508h-9.2a1,1,0,1,1,0-2.008h9.2a1,1,0,0,1,0,2.008Z" style="fill:#1f2632"/><path d="M64,23.619a7.52,7.52,0,1,0-7.521-7.52A7.529,7.529,0,0,0,64,23.619Zm0-11.541A4.02,4.02,0,1,1,59.979,16.1,4.025,4.025,0,0,1,64,12.078Z" style="fill:#1f2632"/><path d="M93.069,31.237H34.931a5.756,5.756,0,0,0-5.75,5.75V64.951a5.756,5.756,0,0,0,5.75,5.75H93.069a5.756,5.756,0,0,0,5.75-5.75V36.988A5.756,5.756,0,0,0,93.069,31.237ZM73.83,67.2V65.051a1.75,1.75,0,0,0-3.5,0V67.2H57.67V65.051a1.75,1.75,0,0,0-3.5,0V67.2H50.851a13.073,13.073,0,0,1,10.25-12.3,1.75,1.75,0,0,0,.32-3.309,6.413,6.413,0,1,1,5.158,0,1.75,1.75,0,0,0,.32,3.309,13.073,13.073,0,0,1,10.25,12.3Zm21.489-2.25a2.253,2.253,0,0,1-2.25,2.25H80.641a16.53,16.53,0,0,0-9.553-14.547,9.913,9.913,0,1,0-14.176,0A16.53,16.53,0,0,0,47.359,67.2H34.931a2.253,2.253,0,0,1-2.25-2.25V36.988a2.253,2.253,0,0,1,2.25-2.25H93.069a2.253,2.253,0,0,1,2.25,2.25Z" style="fill:#1f2632"/><path d="M49.661,87.327a1.743,1.743,0,0,0,1.237-.513L61.036,76.677A1.75,1.75,0,0,0,58.562,74.2L48.424,84.34a1.75,1.75,0,0,0,1.237,2.987Z" style="fill:#1f2632"/><path d="M70.085,74.423a1.749,1.749,0,0,0-2.475,0L48.645,93.389a1.75,1.75,0,1,0,2.475,2.475L70.085,76.9A1.749,1.749,0,0,0,70.085,74.423Z" style="fill:#1f2632"/><path d="M75.8,77.976a1.749,1.749,0,0,0-2.475,0L52.2,99.106a1.75,1.75,0,1,0,2.475,2.475L75.8,80.451A1.749,1.749,0,0,0,75.8,77.976Z" style="fill:#1f2632"/><path d="M77.1,92.743,66.964,102.88a1.75,1.75,0,1,0,2.475,2.475L79.576,95.217A1.75,1.75,0,0,0,77.1,92.743Z" style="fill:#1f2632"/><path d="M57.915,105.134a1.749,1.749,0,0,0,2.475,0L79.355,86.168a1.75,1.75,0,0,0-2.475-2.475L57.915,102.659A1.749,1.749,0,0,0,57.915,105.134Z" style="fill:#1f2632"/></svg>