<svg id="Layer_1" data-name="Layer 1" xmlns="http://www.w3.org/2000/svg" viewBox="0 0 128 128"><title>SMART WATCH</title><polygon points="39.061 29.994 26.002 38.981 26.002 17.197 39.061 17.197 39.061 29.994" style="fill:#fc8427"/><rect x="23.067" y="9.112" width="18.929" height="8.085" style="fill:#fcc434"/><path d="M113.709,59.033a4.632,4.632,0,0,1-2.634-.822L62.793,24.929,14.51,58.211a4.649,4.649,0,1,1-5.277-7.656l50.921-35.1a4.649,4.649,0,0,1,5.277,0l50.921,35.1a4.65,4.65,0,0,1-2.643,8.478Z" style="fill:#4b3f4e"/><polygon points="62.793 24.929 21.583 53.335 21.583 118.888 104.003 118.888 104.003 53.336 62.793 24.929" style="fill:#6f6571"/><path d="M88.764,69.078a3.271,3.271,0,0,1,.878-2.479,3.563,3.563,0,0,1,2.557-.84,3.465,3.465,0,0,1,2.508.859,3.793,3.793,0,0,1-.009,4.889,3.4,3.4,0,0,1-2.5.888,3.5,3.5,0,0,1-2.537-.868A3.248,3.248,0,0,1,88.764,69.078ZM92.218,62.4h0a2.508,2.508,0,0,1-2.5-2.378l-.7-13.32a3.2,3.2,0,0,1,3.2-3.372h0a3.2,3.2,0,0,1,3.2,3.372l-.7,13.32A2.508,2.508,0,0,1,92.218,62.4Z" style="fill:#6f6571"/><path d="M91.785,28.089A28.989,28.989,0,0,0,73.192,79.322h0l-10.4,6.751,28.418-.015c.192,0,.382.015.575.015a28.992,28.992,0,0,0,0-57.985Z" style="fill:#e04955"/><path d="M122.527,57.081A30.732,30.732,0,0,0,85.31,27.031L66.425,14.013a6.434,6.434,0,0,0-7.263,0L40.812,26.663V18.947H42a1.75,1.75,0,0,0,1.75-1.75V9.111A1.75,1.75,0,0,0,42,7.361H23.067a1.75,1.75,0,0,0-1.75,1.75V17.2a1.75,1.75,0,0,0,1.75,1.75h1.185v19.13L8.24,49.115a6.4,6.4,0,0,0,2.475,11.562,6.423,6.423,0,0,0,1.17.107A6.349,6.349,0,0,0,15.5,59.651l4.33-2.985v62.222a1.75,1.75,0,0,0,1.75,1.75H104a1.75,1.75,0,0,0,1.75-1.75V84.453A30.768,30.768,0,0,0,122.527,57.081Zm-97.71-46.22H40.247v4.586H24.817Zm12.494,8.086V29.074l-9.559,6.578V18.947ZM13.517,56.771A2.9,2.9,0,0,1,10.227,52l29.7-20.471.13-.09h0l21.093-14.54a2.919,2.919,0,0,1,3.291,0L80.987,28.3A30.653,30.653,0,0,0,75.1,31.284l-11.309-7.8a1.747,1.747,0,0,0-1.986,0Zm88.736,60.368H23.333V54.255l39.459-27.2,9.32,6.424A30.712,30.712,0,0,0,70.33,79.094l-8.49,5.512a1.75,1.75,0,0,0,.953,3.218h0l28.381-.015.2.006c.137,0,.273.009.411.009a30.6,30.6,0,0,0,10.468-1.837ZM91.785,84.323c-.1,0-.194,0-.291-.007l-.284-.008-22.5.012,5.413-3.514a1.75,1.75,0,0,0,.2-2.826,27.239,27.239,0,1,1,17.47,6.343Z" style="fill:#1f2632"/><path d="M92.218,62.4a2.508,2.508,0,0,0,2.5-2.378l.7-13.32a3.2,3.2,0,1,0-6.4,0l.7,13.32A2.508,2.508,0,0,0,92.218,62.4Z" style="fill:#1f2632"/><path d="M92.2,65.759a3.564,3.564,0,0,0-2.557.84,3.864,3.864,0,0,0,.02,4.928A3.5,3.5,0,0,0,92.2,72.4a3.4,3.4,0,0,0,2.5-.888,3.793,3.793,0,0,0,.009-4.889A3.465,3.465,0,0,0,92.2,65.759Z" style="fill:#1f2632"/></svg>