<svg id="Layer_1" data-name="Layer 1" xmlns="http://www.w3.org/2000/svg" viewBox="0 0 128 128"><title>VIRTUAL REALITY</title><path d="M101.632,98.611H84.143A13.019,13.019,0,0,1,74.937,94.8l-1.731-1.731a13.019,13.019,0,0,0-18.412,0L53.063,94.8a13.019,13.019,0,0,1-9.206,3.813H26.368a14.477,14.477,0,0,1-6.161-1.382,12.557,12.557,0,0,0,11.305,7.1h15.1a11.239,11.239,0,0,0,7.947-3.292L58,97.6A8.49,8.49,0,0,1,70,97.6l3.438,3.438a11.239,11.239,0,0,0,7.947,3.292h15.1a12.557,12.557,0,0,0,11.305-7.1A14.477,14.477,0,0,1,101.632,98.611Z" style="fill:#4b3f4e"/><path d="M11.809,64.248v19.8A14.559,14.559,0,0,0,26.368,98.611H43.857A13.019,13.019,0,0,0,53.063,94.8l1.731-1.731a13.019,13.019,0,0,1,18.412,0L74.937,94.8a13.019,13.019,0,0,0,9.206,3.813h17.489a14.559,14.559,0,0,0,14.559-14.559v-19.8a14.559,14.559,0,0,0-14.559-14.559H26.368A14.559,14.559,0,0,0,11.809,64.248Z" style="fill:#6f6571"/><path d="M26.368,49.689h75.264c.2,0,.4.022.607.031V46.141a4.071,4.071,0,0,0-4.071-4.071H29.832a4.071,4.071,0,0,0-4.071,4.071v3.578C25.964,49.711,26.163,49.689,26.368,49.689Z" style="fill:#e04955"/><path d="M84.143,93.159a7.514,7.514,0,0,1-5.35-2.216l-1.733-1.732a18.472,18.472,0,0,0-26.122,0l-1.731,1.731a7.519,7.519,0,0,1-5.351,2.217H26.368a9.117,9.117,0,0,1-9.106-9.107v-19.8a9.116,9.116,0,0,1,9.106-9.106h75.264a9.117,9.117,0,0,1,9.107,9.106v19.8a9.117,9.117,0,0,1-9.107,9.107Z" style="fill:#8bb3ea"/><rect x="56.264" y="23.667" width="15.471" height="18.403" style="fill:#fc8427"/><rect x="56.264" y="23.667" width="15.471" height="6.269" style="fill:#fcc434"/><rect x="5.208" y="64.101" width="6.602" height="20.098" style="fill:#8bb3ea"/><rect x="116.191" y="64.101" width="6.602" height="20.098" style="fill:#8bb3ea"/><path d="M101.632,53.391H26.368A10.869,10.869,0,0,0,15.512,64.248v19.8A10.869,10.869,0,0,0,26.368,94.909H43.857a9.253,9.253,0,0,0,6.588-2.729l1.731-1.73a16.721,16.721,0,0,1,23.647,0l1.732,1.731a9.253,9.253,0,0,0,6.588,2.729h17.488a10.87,10.87,0,0,0,10.857-10.857v-19.8A10.869,10.869,0,0,0,101.632,53.391Zm7.357,30.661a7.366,7.366,0,0,1-7.357,7.357H84.144a5.778,5.778,0,0,1-4.113-1.7L78.3,87.974a20.221,20.221,0,0,0-28.6,0L47.97,89.705a5.776,5.776,0,0,1-4.113,1.7H26.368a7.365,7.365,0,0,1-7.356-7.357v-19.8a7.365,7.365,0,0,1,7.356-7.356h75.264a7.366,7.366,0,0,1,7.357,7.356Z" style="fill:#1f2632"/><path d="M122.792,62.351h-4.971a16.324,16.324,0,0,0-13.832-14.222V46.141a5.828,5.828,0,0,0-5.82-5.821H73.485V23.667a1.75,1.75,0,0,0-1.75-1.75H56.264a1.75,1.75,0,0,0-1.75,1.75V40.32H29.833a5.828,5.828,0,0,0-5.821,5.821v1.988A16.324,16.324,0,0,0,10.179,62.351H5.208a1.75,1.75,0,0,0-1.75,1.75V84.2a1.75,1.75,0,0,0,1.75,1.75h4.971a16.329,16.329,0,0,0,8.749,12.6,14.308,14.308,0,0,0,12.585,7.536h15.1a12.9,12.9,0,0,0,9.185-3.8l3.438-3.438a6.749,6.749,0,0,1,9.533,0l3.438,3.438a12.9,12.9,0,0,0,9.185,3.8h15.1a14.308,14.308,0,0,0,12.586-7.536,16.329,16.329,0,0,0,8.747-12.6h4.971a1.75,1.75,0,0,0,1.75-1.75V64.1A1.75,1.75,0,0,0,122.792,62.351ZM58.014,25.417H69.985v2.769H58.014Zm0,6.269H69.985V40.32H58.014Zm-30.5,14.456a2.324,2.324,0,0,1,2.321-2.321H98.168a2.324,2.324,0,0,1,2.32,2.321v1.8H27.511ZM6.958,65.851h3.1v16.6h-3.1Zm89.53,36.732H81.39A9.425,9.425,0,0,1,74.68,99.8l-3.438-3.439a10.253,10.253,0,0,0-14.482,0L53.321,99.8a9.429,9.429,0,0,1-6.71,2.779h-15.1a10.709,10.709,0,0,1-6.615-2.3c.485.044.974.074,1.47.074H43.857A14.671,14.671,0,0,0,54.3,96.035L56.031,94.3a11.269,11.269,0,0,1,15.938,0l1.73,1.731a14.678,14.678,0,0,0,10.443,4.326h17.489c.5,0,.985-.031,1.471-.075A10.71,10.71,0,0,1,96.487,102.583Zm5.145-5.722H84.143a11.2,11.2,0,0,1-7.969-3.3l-1.73-1.731a14.768,14.768,0,0,0-20.887,0l-1.731,1.731a11.2,11.2,0,0,1-7.969,3.3H26.368A12.824,12.824,0,0,1,13.559,84.052v-19.8A12.824,12.824,0,0,1,26.368,51.438h75.264A12.823,12.823,0,0,1,114.44,64.248v19.8A12.823,12.823,0,0,1,101.632,96.861Zm19.41-14.413h-3.1v-16.6h3.1Z" style="fill:#1f2632"/><path d="M30.733,61.948a1.75,1.75,0,0,0-2.475,2.475l17.8,17.8a1.75,1.75,0,0,0,2.475-2.475Z" style="fill:#1f2632"/><path d="M29.493,73.077a1.75,1.75,0,0,0-2.475,2.475l10.8,10.8a1.75,1.75,0,0,0,2.475-2.475Z" style="fill:#1f2632"/><path d="M80.293,61.948a1.75,1.75,0,0,0-2.475,2.475L98.507,85.111a1.75,1.75,0,0,0,2.475-2.475Z" style="fill:#1f2632"/><path d="M79.052,73.077a1.75,1.75,0,0,0-2.475,2.475l10.8,10.8a1.75,1.75,0,0,0,2.475-2.475Z" style="fill:#1f2632"/></svg>