<svg xmlns="http://www.w3.org/2000/svg" viewBox="0 0 512 512"><title>50 Astrology Icons - Expanded</title><path d="M416,240H32a16,16,0,0,1,0-32H416a16,16,0,0,0,0-32,16,16,0,0,1,0-32,48,48,0,0,1,0,96Z" fill="#82cdaa"/><path d="M416,272H32a16,16,0,0,1,0-32H416a48,48,0,0,0,0-96,16,16,0,0,0,0,32,16,16,0,0,1,0,32,48,48,0,0,1,0-96,80,80,0,0,1,0,160Z" fill="#329682"/><path d="M192,176H32a16,16,0,0,1,0-32H192a16,16,0,0,0,0-32,16,16,0,0,1,0-32,48,48,0,0,1,0,96Z" fill="#82cdaa"/><path d="M192,208H32a16,16,0,0,1,0-32H192a48,48,0,0,0,0-96,16,16,0,0,0,0,32,16,16,0,0,1,0,32,48,48,0,0,1,0-96,80,80,0,0,1,0,160Z" fill="#329682"/><path d="M336,432a16,16,0,0,1,0-32,16,16,0,0,0,0-32H192a16,16,0,0,1,0-32H336a48,48,0,0,1,0,96Z" fill="#82cdaa"/><path d="M336,464a48,48,0,0,1,0-96,16,16,0,0,1,0,32,16,16,0,0,0,0,32,48,48,0,0,0,0-96H192a16,16,0,0,1,0-32H336a80,80,0,0,1,0,160Z" fill="#329682"/><path d="M40,336h8a48,48,0,0,1,48,48v8a8,8,0,0,1-8,8H80a48,48,0,0,1-48-48v-8A8,8,0,0,1,40,336Z" fill="#c39b69"/><path d="M328,64h8a48,48,0,0,1,48,48v8a8,8,0,0,1-8,8h-8a48,48,0,0,1-48-48V72A8,8,0,0,1,328,64Z" transform="translate(448 -256) rotate(90)" fill="#c39b69"/><path d="M424,288h8a48,48,0,0,1,48,48v8a8,8,0,0,1-8,8h-8a48,48,0,0,1-48-48v-8A8,8,0,0,1,424,288Z" fill="#c39b69"/></svg>