<svg xmlns="http://www.w3.org/2000/svg" viewBox="0 0 512 512"><title>50 Astrology Icons - Expanded</title><path d="M40,288.118V212a48,48,0,0,1,48-48h28.118a48,48,0,0,0,33.941-14.059l83.882-83.882A48,48,0,0,1,267.882,52h72.236a48,48,0,0,1,33.941,14.059l83.882,83.882A48,48,0,0,1,472,183.882V320.118a48,48,0,0,1-14.059,33.941l-35.882,35.882A48,48,0,0,1,388.118,404H155.882a48,48,0,0,1-33.941-14.059L54.059,322.059A48,48,0,0,1,40,288.118Z" fill="#5a5a73"/><path d="M312,52h0a32,32,0,0,1,32,32V192.118a48,48,0,0,1-14.059,33.941l-67.882,67.882A48,48,0,0,1,228.118,308H72a32,32,0,0,1-32-32h0v12.118a48,48,0,0,0,14.059,33.941l67.882,67.882A48,48,0,0,0,155.882,404H388.118a48,48,0,0,0,33.941-14.059l35.882-35.882A48,48,0,0,0,472,320.118V183.882a48,48,0,0,0-14.059-33.941L374.059,66.059A48,48,0,0,0,340.118,52Z" fill="#463c4b"/><circle cx="280" cy="164" r="32" fill="#463c4b"/><circle cx="168" cy="228" r="16" fill="#463c4b"/><circle cx="360" cy="316" r="24" fill="#32283c"/><path d="M81.373,50.627,62.627,69.373a22.627,22.627,0,0,0-6.627,16V108a24,24,0,0,0,24,24H96a24,24,0,0,0,24-24V66.627A22.628,22.628,0,0,0,97.373,44h0A22.627,22.627,0,0,0,81.373,50.627Z" fill="#5a5a73"/><path d="M120,76h0a32,32,0,0,1-32,32H56a24,24,0,0,0,24,24H96a24,24,0,0,0,24-24Z" fill="#463c4b"/><circle cx="416" cy="444" r="24" fill="#463c4b"/></svg>