<svg xmlns="http://www.w3.org/2000/svg" viewBox="0 0 512 512"><title>50 Astrology Icons - Expanded</title><path d="M432,144h32a0,0,0,0,1,0,0V256a32,32,0,0,1-32,32H400a0,0,0,0,1,0,0V176A32,32,0,0,1,432,144Z" transform="translate(864 432) rotate(180)" fill="#d73228"/><path d="M464,144H344V112a16,16,0,0,0-16-16H272a48,48,0,0,1,48-48h48A96,96,0,0,1,464,144Z" fill="#f05a4b"/><path d="M304,112h8a32,32,0,0,1,32,32v0a0,0,0,0,1,0,0H304a0,0,0,0,1,0,0V112A0,0,0,0,1,304,112Z" transform="translate(648 256) rotate(180)" fill="#d73228"/><path d="M48,144H80a32,32,0,0,1,32,32V288a0,0,0,0,1,0,0H80a32,32,0,0,1-32-32V144A0,0,0,0,1,48,144Z" fill="#d73228"/><path d="M80,304v32h64v32H80a32,32,0,0,1-32-32h0a32,32,0,0,1,32-32Z" fill="#eb463c"/><path d="M208,400v32H112v32h0a32,32,0,0,1-32-32h0a32,32,0,0,1,32-32Z" fill="#eb463c"/><path d="M208,368v32H48v32h0a32,32,0,0,1-32-32h0a32,32,0,0,1,32-32Z" fill="#d73228"/><path d="M432,304v32H368v32h64a32,32,0,0,0,32-32h0a32,32,0,0,0-32-32Z" fill="#eb463c"/><path d="M304,400v32h96v32h0a32,32,0,0,0,32-32h0a32,32,0,0,0-32-32Z" fill="#eb463c"/><path d="M304,368v32H464v32h0a32,32,0,0,0,32-32h0a32,32,0,0,0-32-32Z" fill="#d73228"/><path d="M160,192H352a64,64,0,0,1,64,64v56a24,24,0,0,1-24,24H368v40a56,56,0,0,1-56,56H200a56,56,0,0,1-56-56V336H120a24,24,0,0,1-24-24V256A64,64,0,0,1,160,192Z" fill="#f05a4b"/><circle cx="224" cy="192" r="16" fill="#32283c"/><circle cx="288" cy="192" r="16" fill="#32283c"/><rect x="288" y="240" width="32" height="160" rx="16" ry="16" fill="#f58773"/><rect x="192" y="240" width="32" height="160" rx="16" ry="16" fill="#f58773"/><path d="M48,144H168V112a16,16,0,0,1,16-16h56a48,48,0,0,0-48-48H144A96,96,0,0,0,48,144Z" fill="#f05a4b"/><path d="M168,112h40a0,0,0,0,1,0,0v0a32,32,0,0,1-32,32h-8a0,0,0,0,1,0,0V112A0,0,0,0,1,168,112Z" fill="#d73228"/></svg>