<svg xmlns="http://www.w3.org/2000/svg" viewBox="0 0 512 512"><title>50 Astrology Icons - Expanded</title><path d="M288,464V416H224v16a64,64,0,0,0,64,64h0a16,16,0,0,0,16-16h0a16,16,0,0,0-16-16Z" fill="#facda0"/><path d="M224,336h64a0,0,0,0,1,0,0v96a16,16,0,0,1-16,16H240a16,16,0,0,1-16-16V336A0,0,0,0,1,224,336Z" fill="#73645a"/><path d="M128,128H384V256a32,32,0,0,1-32,32h0a32,32,0,0,0-32,32v64a32,32,0,0,1-32,32H224a32,32,0,0,1-32-32V320a32,32,0,0,0-32-32h0a32,32,0,0,1-32-32Z" fill="#c39b69"/><path d="M128,128H384v32a16,16,0,0,1-16,16H320a32,32,0,0,0-32,32V336H224V208a32,32,0,0,0-32-32H144a16,16,0,0,1-16-16Z" fill="#facda0"/><path d="M96,40h0a24,24,0,0,0,24,24h8v64h64V80a64,64,0,0,0-64-64h-8A24,24,0,0,0,96,40Z" fill="#d26e28"/><path d="M416,40h0a24,24,0,0,1-24,24h-8v64H320V80a64,64,0,0,1,64-64h8A24,24,0,0,1,416,40Z" fill="#d26e28"/><circle cx="192" cy="208" r="16" fill="#32283c"/><circle cx="320" cy="208" r="16" fill="#32283c"/><path d="M256,384a31.994,31.994,0,0,1,32-31.99V336H224v16.01A31.994,31.994,0,0,1,256,384Z" fill="#32283c"/><path d="M416,128h32a0,0,0,0,1,0,0v48a0,0,0,0,1,0,0H384a0,0,0,0,1,0,0V160A32,32,0,0,1,416,128Z" transform="translate(832 304) rotate(180)" fill="#73645a"/><path d="M64,128h64a0,0,0,0,1,0,0v48a0,0,0,0,1,0,0H96a32,32,0,0,1-32-32V128A0,0,0,0,1,64,128Z" fill="#73645a"/></svg>