<svg xmlns="http://www.w3.org/2000/svg" viewBox="0 0 512 512"><title>50 Astrology Icons - Expanded</title><path d="M400,120V328h-2.745A45.255,45.255,0,0,0,352,373.255H160A45.255,45.255,0,0,0,114.745,328H112V120a48,48,0,0,1,48-48H352A48,48,0,0,1,400,120Z" fill="#463c4b"/><circle cx="176" cy="216" r="16" fill="#32283c"/><circle cx="336" cy="216" r="16" fill="#32283c"/><path d="M288,72V218.745A109.256,109.256,0,0,0,320,296h0a109.256,109.256,0,0,1,32,77.255V392a64,64,0,0,1-64,64H224a64,64,0,0,1-64-64V373.255A109.256,109.256,0,0,1,192,296h0a109.256,109.256,0,0,0,32-77.255V72Z" fill="#facda0"/><path d="M352,72h0a48,48,0,0,1,48,48V337.373A22.628,22.628,0,0,0,422.627,360h0a22.627,22.627,0,0,0,16-6.627l45.657-45.657A40,40,0,0,0,496,279.431V152a96,96,0,0,0-96-96H368a16,16,0,0,0-16,16Z" fill="#5a5a73"/><path d="M160,72h0a48,48,0,0,0-48,48V337.373A22.628,22.628,0,0,1,89.373,360h0a22.627,22.627,0,0,1-16-6.627L27.716,307.716A40,40,0,0,1,16,279.431V152a96,96,0,0,1,96-96h32a16,16,0,0,1,16,16Z" fill="#5a5a73"/><path d="M280,328H232a16,16,0,0,0-16,16v16a32,32,0,0,1,32,32v64h16V392a32,32,0,0,1,32-32V344A16,16,0,0,0,280,328Z" fill="#463c4b"/></svg>