<svg xmlns="http://www.w3.org/2000/svg" viewBox="0 0 512 512"><title>50 Astrology Icons - Expanded</title><path d="M459.172,256c0,26.032-35.961,44.726-45.348,67.364-9.731,23.467,2.111,62.029-15.574,79.714S342,408.921,318.536,418.652C295.9,428.039,277.205,464,251.172,464s-44.727-35.961-67.364-45.348c-23.467-9.731-62.029,2.111-79.714-15.574s-5.843-56.247-15.574-79.714C79.133,300.726,43.172,282.032,43.172,256s35.961-44.727,45.348-67.365c9.731-23.467-2.111-62.028,15.574-79.714s56.247-5.842,79.714-15.574C206.446,83.96,225.139,48,251.172,48S295.9,83.96,318.536,93.347c23.468,9.732,62.029-2.111,79.714,15.575s5.843,56.246,15.574,79.714C423.211,211.273,459.172,229.967,459.172,256Z" fill="#fabe19"/><circle cx="251.172" cy="256" r="144" fill="#f5871e"/><circle cx="251.172" cy="256" r="112" fill="#faa032"/><path d="M171.58,79.837a16,16,0,0,1-14.788-9.881l-9.184-22.174a16,16,0,0,1,29.564-12.245l9.184,22.173A16.01,16.01,0,0,1,171.58,79.837Z" fill="#fabe19"/><path d="M339.961,486.344a16.007,16.007,0,0,1-14.789-9.881l-9.184-22.173a16,16,0,1,1,29.564-12.246l9.185,22.172a16.009,16.009,0,0,1-14.776,22.128Z" fill="#fabe19"/><path d="M162.383,486.344a16.009,16.009,0,0,1-14.775-22.127l9.184-22.173a16,16,0,1,1,29.564,12.245l-9.184,22.174A16.006,16.006,0,0,1,162.383,486.344Z" fill="#fabe19"/><path d="M330.764,79.837A16.009,16.009,0,0,1,315.988,57.71l9.184-22.173a16,16,0,0,1,29.565,12.246l-9.185,22.173A16.006,16.006,0,0,1,330.764,79.837Z" fill="#fabe19"/><path d="M36.838,360.787A16,16,0,0,1,30.709,330l22.173-9.184A16,16,0,1,1,65.128,350.38l-22.173,9.185A15.957,15.957,0,0,1,36.838,360.787Z" fill="#fabe19"/><path d="M59,192.406a15.957,15.957,0,0,1-6.117-1.222L30.709,182a16,16,0,0,1,12.246-29.564l22.173,9.184A16,16,0,0,1,59,192.406Z" fill="#fabe19"/><circle cx="347.172" cy="256" r="144" fill="#5a5a73"/><path d="M347.172,112V400a144,144,0,0,0,0-288Z" fill="#463c4b"/><circle cx="315.172" cy="192" r="16" fill="#463c4b"/><circle cx="419.172" cy="328" r="24" fill="#32283c"/><circle cx="251.172" cy="272" r="32" fill="#463c4b"/></svg>