<svg xmlns="http://www.w3.org/2000/svg" viewBox="0 0 512 512"><title>50 Astrology Icons - Expanded</title><circle cx="256" cy="256" r="224" fill="#f05a4b"/><path d="M256,32V480c123.712,0,224-100.288,224-224S379.712,32,256,32Z" fill="#d73228"/><path d="M256,160H458.431a224.557,224.557,0,0,0-45.686-64H256a32,32,0,0,0-32,32h0A32,32,0,0,0,256,160Z" fill="#d73228"/><rect x="320" y="224" width="128" height="64" rx="32" ry="32" fill="#b9140a"/><path d="M192,320h0a32,32,0,0,1,32-32h0a32,32,0,0,0,32-32h0a32,32,0,0,0-32-32H96a32,32,0,0,0-32,32h0a32,32,0,0,0,32,32h0a32,32,0,0,1,32,32h0a32,32,0,0,1-32,32H53.569a224.557,224.557,0,0,0,45.686,64h313.49a224.557,224.557,0,0,0,45.686-64H224A32,32,0,0,1,192,320Z" fill="#d73228"/><path d="M458.431,160a224.557,224.557,0,0,0-45.686-64H256v64Z" fill="#b9140a"/><path d="M458.431,352H256v64H412.745A224.557,224.557,0,0,0,458.431,352Z" fill="#b9140a"/></svg>