<svg xmlns="http://www.w3.org/2000/svg" viewBox="0 0 512 512"><title>50 Astrology Icons - Expanded</title><path d="M16,80H64a96,96,0,0,1,96,96v48a0,0,0,0,1,0,0H64a48,48,0,0,1-48-48V80A0,0,0,0,1,16,80Z" transform="translate(176 304) rotate(180)" fill="#f05a4b"/><path d="M48,112h64a16,16,0,0,1,16,16v64a0,0,0,0,1,0,0H112a64,64,0,0,1-64-64V112A0,0,0,0,1,48,112Z" fill="#d73228"/><path d="M400,80h96a0,0,0,0,1,0,0v48a96,96,0,0,1-96,96H352a0,0,0,0,1,0,0V128A48,48,0,0,1,400,80Z" fill="#f05a4b"/><path d="M448,112h16a0,0,0,0,1,0,0v64a16,16,0,0,1-16,16H384a0,0,0,0,1,0,0V176A64,64,0,0,1,448,112Z" transform="translate(848 304) rotate(180)" fill="#d73228"/><path d="M96,176V320A112,112,0,0,0,208,432h96A112,112,0,0,0,416,320V176a48,48,0,0,0-48-48H144A48,48,0,0,0,96,176Z" fill="#f05a4b"/><path d="M96,176h0a16,16,0,0,0,16,16h64a32,32,0,0,1,32,32v80h96V224a32,32,0,0,1,32-32h64a16,16,0,0,0,16-16h0a48,48,0,0,0-48-48H144A48,48,0,0,0,96,176Z" fill="#ffa591"/><circle cx="176" cy="224" r="16" fill="#32283c"/><circle cx="336" cy="224" r="16" fill="#32283c"/><rect x="160" y="304" width="192" height="96" rx="48" ry="48" fill="#f58773"/><circle cx="208" cy="352" r="16" fill="#96321e"/><circle cx="304" cy="352" r="16" fill="#96321e"/></svg>