<svg xmlns="http://www.w3.org/2000/svg" viewBox="0 0 512 512"><title>50 Astrology Icons - Expanded</title><path d="M256,460a12,12,0,0,1-9.031-4.1l-224-256a12,12,0,0,1,18.062-15.8L256,429.777,470.969,184.1a12,12,0,1,1,18.062,15.8l-224,256A12,12,0,0,1,256,460Z" fill="#5a5a73"/><path d="M284.8,493.6,256,472V368h16l28.8,21.6A8,8,0,0,1,304,396v88a12,12,0,0,1-12,12h0A12,12,0,0,1,284.8,493.6Z" fill="#329682"/><path d="M227.2,493.6,256,472V368H240l-28.8,21.6A8,8,0,0,0,208,396v88a12,12,0,0,0,12,12h0A12,12,0,0,0,227.2,493.6Z" fill="#82cdaa"/><rect x="240" y="80" width="16" height="288" fill="#f5871e"/><rect x="256" y="80" width="16" height="288" fill="#d24605"/><path d="M496,206.667a50.3,50.3,0,0,1-35.8-14.829l-48.215-48.214A66.557,66.557,0,0,0,364.61,124H364v20a44.049,44.049,0,0,1-44,44,12,12,0,0,1,0-24,20.023,20.023,0,0,0,20-20V120a20.023,20.023,0,0,1,20-20h4.61a90.406,90.406,0,0,1,64.347,26.653l48.215,48.215a26.454,26.454,0,0,0,18.828,7.8,12,12,0,0,1,0,24Z" fill="#d24605"/><path d="M16,206.667a12,12,0,0,1,0-24,26.454,26.454,0,0,0,18.828-7.8l48.215-48.215A90.406,90.406,0,0,1,147.39,100H152a20.023,20.023,0,0,1,20,20v24a20.023,20.023,0,0,0,20,20,12,12,0,0,1,0,24,44.049,44.049,0,0,1-44-44V124h-.61a66.557,66.557,0,0,0-47.376,19.624L51.8,191.838A50.3,50.3,0,0,1,16,206.667Z" fill="#d24605"/><rect x="224" y="152" width="64" height="48" fill="#82cdaa"/><rect x="224" y="176" width="64" height="24" fill="#329682"/><rect x="288" y="136" width="32" height="80" rx="16" ry="16" fill="#329682"/><rect x="192" y="136" width="32" height="80" rx="16" ry="16" fill="#329682"/><path d="M256,16h3.314a11.314,11.314,0,0,1,8,3.314l41.372,41.372a11.314,11.314,0,0,1,3.314,8h0A11.313,11.313,0,0,1,300.686,80H256Z" fill="#463c4b"/><path d="M256,16h-3.314a11.314,11.314,0,0,0-8,3.314L203.314,60.686a11.314,11.314,0,0,0-3.314,8h0A11.313,11.313,0,0,0,211.314,80H256Z" fill="#5a5a73"/></svg>