<svg xmlns="http://www.w3.org/2000/svg" viewBox="0 0 512 512"><title>50 Astrology Icons - Expanded</title><path d="M270.348,46.929l56.225,113.925L452.3,179.123a16,16,0,0,1,8.867,27.291L370.19,295.093l21.476,125.216a16,16,0,0,1-23.215,16.867L256,378.057,143.549,437.176a16,16,0,0,1-23.215-16.867L141.81,295.093,50.835,206.414A16,16,0,0,1,59.7,179.123l125.725-18.269L241.652,46.929A16,16,0,0,1,270.348,46.929Z" fill="#f5871e"/><path d="M167.6,286.714l-70.992-69.2a12,12,0,0,1,6.651-20.468l98.107-14.255,43.875-88.9a12,12,0,0,1,21.522,0l43.875,88.9,98.107,14.255a12,12,0,0,1,6.651,20.468l-70.991,69.2,16.758,97.711a12,12,0,0,1-17.411,12.65L256,350.942l-87.75,46.133a12,12,0,0,1-17.412-12.65Z" fill="#fabe19"/><path d="M104.967,220.923a12,12,0,0,1-1.71-23.877l98.107-14.255,43.875-88.9a12,12,0,1,1,21.522,10.622l-46.667,94.557a12,12,0,0,1-9.035,6.565L106.708,220.8A12.1,12.1,0,0,1,104.967,220.923Z" fill="#ffdb37"/><path d="M256,473.99a16,16,0,0,1-16-16v-40a16,16,0,0,1,32,0v40A16,16,0,0,1,256,473.99Z" fill="#fabe19"/><path d="M446.214,335.8a15.976,15.976,0,0,1-4.947-.788l-38.042-12.36a16,16,0,1,1,9.888-30.434l38.042,12.361a16,16,0,0,1-4.941,31.221Z" fill="#fabe19"/><path d="M350.033,144.548a16,16,0,0,1-12.931-25.4l23.51-32.36A16,16,0,0,1,386.5,105.591L362.99,137.952A15.979,15.979,0,0,1,350.033,144.548Z" fill="#fabe19"/><path d="M161.968,144.548a15.979,15.979,0,0,1-12.958-6.6L125.5,105.592a16,16,0,1,1,25.888-18.81L174.9,119.143a16,16,0,0,1-12.931,25.405Z" fill="#fabe19"/><path d="M65.785,335.8a16,16,0,0,1-4.941-31.221l38.043-12.361a16,16,0,1,1,9.888,30.434L70.733,335.01A15.983,15.983,0,0,1,65.785,335.8Z" fill="#fabe19"/></svg>