<svg id="Layer_1" data-name="Layer 1" xmlns="http://www.w3.org/2000/svg" viewBox="0 0 128 128"><title>DOMOTICS</title><path d="M33.149,25.549v9.693a6.939,6.939,0,0,0,2.519,5.35L64,64,92.331,40.591a6.939,6.939,0,0,0,2.519-5.35V25.549Z" style="fill:#e6e7e8"/><path d="M64,64,35.669,87.409a6.939,6.939,0,0,0-2.519,5.35v9.693h61.7V92.758a6.939,6.939,0,0,0-2.519-5.35Z" style="fill:#e6e7e8"/><path d="M68.877,79.034a11.2,11.2,0,0,0-9.754,0L37.068,89.7a6.939,6.939,0,0,0-3.918,6.247v6.5h61.7v-6.5A6.939,6.939,0,0,0,90.932,89.7Z" style="fill:#54c3f0"/><path d="M48.375,51.09,64,64,79.625,51.09l-10.748-5.2a11.2,11.2,0,0,0-9.754,0Z" style="fill:#54c3f0"/><path d="M90.932,93.7,68.877,83.034a11.2,11.2,0,0,0-9.754,0L37.068,93.7a6.939,6.939,0,0,0-3.918,6.247v2.5h61.7v-2.5A6.939,6.939,0,0,0,90.932,93.7Z" style="fill:#3fb4d8"/><path d="M59.123,49.892l-7.695,3.721L64,64,76.572,53.613l-7.695-3.721A11.2,11.2,0,0,0,59.123,49.892Z" style="fill:#3fb4d8"/><rect x="33.149" y="19.5" width="61.701" height="6.049" style="fill:#d1d3d4"/><rect x="33.149" y="102.451" width="61.701" height="6.049" style="fill:#d1d3d4"/></svg>