<svg id="Layer_1" data-name="Layer 1" xmlns="http://www.w3.org/2000/svg" viewBox="0 0 128 128"><title>DOOR</title><polygon points="54.732 75.084 42.569 97.253 115.55 97.253 103.386 75.084 54.732 75.084" style="fill:#661e1e"/><polygon points="54.732 75.084 103.386 75.084 91.223 52.916 66.896 52.916 54.732 75.084" style="fill:#b71a25"/><polygon points="91.223 52.916 79.059 30.747 66.896 52.916 91.223 52.916" style="fill:#ef1b34"/><polygon points="18.45 30.747 9.75 41.832 18.45 52.916 66.896 52.916 79.059 30.747 18.45 30.747" style="fill:#f92333"/><polygon points="18.45 52.916 9.75 64 18.45 75.084 54.732 75.084 66.896 52.916 18.45 52.916" style="fill:#cb2027"/><polygon points="18.45 75.084 9.75 86.168 18.45 97.253 42.569 97.253 54.732 75.084 18.45 75.084" style="fill:#7f2626"/><path d="M105.871,40.226a1.75,1.75,0,0,0,1.75-1.75V35.8a1.75,1.75,0,1,0-3.5,0v2.675A1.75,1.75,0,0,0,105.871,40.226Z" style="fill:#e6e7e8"/><path d="M102.612,40.179H99.937a1.75,1.75,0,0,0,0,3.5h2.675a1.75,1.75,0,1,0,0-3.5Z" style="fill:#e6e7e8"/><path d="M106.066,43.438a1.75,1.75,0,0,0-1.75,1.75v2.676a1.75,1.75,0,0,0,3.5,0V45.188A1.75,1.75,0,0,0,106.066,43.438Z" style="fill:#e6e7e8"/><path d="M112,39.984h-2.675a1.75,1.75,0,0,0,0,3.5H112a1.75,1.75,0,0,0,0-3.5Z" style="fill:#e6e7e8"/></svg>