<svg id="Layer_1" data-name="Layer 1" xmlns="http://www.w3.org/2000/svg" viewBox="0 0 128 128"><title>SMART TV_1</title><path d="M97,45.555H92.412a28.412,28.412,0,0,0-56.824,0H31a17.667,17.667,0,0,0,0,35.333H97a17.667,17.667,0,0,0,0-35.333Z" style="fill:#88d3e3"/><path d="M31,74.889a11.667,11.667,0,0,1,0-23.334H41.588v-6a22.412,22.412,0,0,1,44.824,0v6H97a11.667,11.667,0,0,1,0,23.334Z" style="fill:#63c6d3"/><polygon points="84.365 84.44 64 64.075 43.635 84.44 55.713 84.44 55.713 111.028 72.287 111.028 72.287 84.44 84.365 84.44" style="fill:#f2c333"/><polygon points="58.713 108.028 58.713 81.44 50.877 81.44 64 68.317 77.123 81.44 69.287 81.44 69.287 108.028 58.713 108.028" style="fill:#f2e74f"/></svg>