<svg id="Layer_1" data-name="Layer 1" xmlns="http://www.w3.org/2000/svg" viewBox="0 0 128 128"><title>SMART TV</title><path d="M87.345,77.618,84.03,80.933A1.75,1.75,0,1,0,86.5,83.407l3.314-3.314Z" style="fill:#294b63"/><path d="M93.271,83.545l-3.314,3.314a1.75,1.75,0,1,0,2.475,2.475l3.314-3.314Z" style="fill:#294b63"/><path d="M99.2,89.471l-3.314,3.315a1.75,1.75,0,1,0,2.475,2.475l3.314-3.315Z" style="fill:#294b63"/><path d="M105.125,95.4l-3.314,3.315a1.75,1.75,0,1,0,2.475,2.475l3.314-3.315Z" style="fill:#294b63"/><circle cx="48.887" cy="48.91" r="31.649" transform="translate(-20.266 48.893) rotate(-45)" style="fill:#4a9ebf"/><rect x="85.354" y="69.492" width="13.788" height="45.559" rx="6.894" ry="6.894" transform="translate(-38.227 92.255) rotate(-45)" style="fill:#294b63"/><path d="M85.89,76.164a6.886,6.886,0,0,0-8.518-.962,6.886,6.886,0,0,0,.962,8.518L100.8,106.185a6.886,6.886,0,0,0,8.518.962,6.886,6.886,0,0,0-.962-8.518Z" style="fill:#2e5174"/><path d="M74.921,77.884a6.819,6.819,0,0,1,1.22-1.72h0a6.82,6.82,0,0,1,1.72-1.219,2.17,2.17,0,0,0-.391-.553l-4.653-4.653c-.02-.02-.044-.034-.065-.053-.476.546-.966,1.084-1.486,1.6s-1.058,1.01-1.6,1.486c.019.021.033.045.053.065l4.653,4.653A2.17,2.17,0,0,0,74.921,77.884Z" style="fill:#343642"/><path d="M72.817,69.738c-.02-.02-.044-.034-.065-.053-.476.546-.966,1.084-1.486,1.6s-1.058,1.01-1.6,1.486c.019.021.033.045.053.065l1.718,1.718c.547-.482,1.086-.976,1.606-1.5s1.015-1.06,1.5-1.606Z" style="fill:#2e303a"/><circle cx="48.887" cy="48.91" r="22.108" transform="translate(-20.266 48.893) rotate(-45)" style="fill:#88d3e3"/><path d="M67.178,30.618a25.868,25.868,0,1,0,0,36.582A25.694,25.694,0,0,0,67.178,30.618ZM64.519,64.542a22.108,22.108,0,1,1,0-31.265A22.108,22.108,0,0,1,64.519,64.542Z" style="fill:#4599ad"/><polygon points="49.141 33.104 53.923 42.793 64.615 44.346 56.878 51.888 58.705 62.536 49.141 57.509 39.578 62.536 41.405 51.888 33.668 44.346 44.36 42.793 49.141 33.104" style="fill:#f1f2f2"/><polygon points="45.702 50.491 42.264 47.139 47.017 46.449 49.142 42.143 51.267 46.449 56.02 47.139 52.58 50.491 53.392 55.224 49.142 52.99 44.891 55.225 45.702 50.491" style="fill:#f2e74f"/><path d="M102.95,57.51a1.75,1.75,0,0,0,1.75-1.75V53.085a1.75,1.75,0,0,0-3.5,0V55.76A1.75,1.75,0,0,0,102.95,57.51Z" style="fill:#e6e7e8"/><path d="M99.691,57.464H97.017a1.75,1.75,0,0,0,0,3.5h2.675a1.75,1.75,0,1,0,0-3.5Z" style="fill:#e6e7e8"/><path d="M103.145,60.723a1.75,1.75,0,0,0-1.75,1.75v2.675a1.75,1.75,0,0,0,3.5,0V62.473A1.75,1.75,0,0,0,103.145,60.723Z" style="fill:#e6e7e8"/><path d="M109.079,57.269H106.4a1.75,1.75,0,0,0,0,3.5h2.676a1.75,1.75,0,0,0,0-3.5Z" style="fill:#e6e7e8"/></svg>