<svg id="Layer_1" data-name="Layer 1" xmlns="http://www.w3.org/2000/svg" viewBox="0 0 128 128"><title>THERMOSTAT</title><path d="M21.4,96.6v6.94a6.959,6.959,0,0,0,6.959,6.959H65.772a6.959,6.959,0,0,0,6.959-6.959V93.717H21.4Z" style="fill:#f1f2f2"/><path d="M72.732,31.4v-6.94A6.959,6.959,0,0,0,65.772,17.5H28.357A6.959,6.959,0,0,0,21.4,24.459v9.824H72.732Z" style="fill:#f1f2f2"/><rect x="21.398" y="34.283" width="51.333" height="59.434" style="fill:#d1d3d4"/><circle cx="47.065" cy="102.108" r="3.063" style="fill:#d1d3d4"/><rect x="87.295" y="39.5" width="16.75" height="47.95" style="fill:#7f2626"/><rect x="62.045" y="49.123" width="16.75" height="38.327" style="fill:#cb2027"/><rect x="36.795" y="58.093" width="16.75" height="29.357" style="fill:#f92333"/><rect x="87.295" y="83.084" width="16.75" height="5.75" style="fill:#661e1e"/><rect x="62.045" y="83.084" width="16.75" height="5.75" style="fill:#b71a25"/><rect x="36.795" y="83.084" width="16.75" height="5.75" style="fill:#ef1b34"/><path d="M108.888,85.7H30.638a1.75,1.75,0,1,0,0,3.5h78.25a1.75,1.75,0,0,0,0-3.5Z" style="fill:#58595b"/><path d="M114.825,85.7h-.812a1.75,1.75,0,0,0,0,3.5h.813a1.75,1.75,0,0,0,0-3.5Z" style="fill:#58595b"/></svg>