<svg id="Layer_1" data-name="Layer 1" xmlns="http://www.w3.org/2000/svg" viewBox="0 0 128 128"><title>DIRECTION</title><path d="M69,107.375H58.75V18.647a5.125,5.125,0,0,1,5.125-5.125h0A5.125,5.125,0,0,1,69,18.647Z" style="fill:#983729"/><path d="M107.5,118.5h-87a17.735,17.735,0,0,1,27.86-13.66,18.156,18.156,0,0,1,3.42,3.13A20.508,20.508,0,0,1,65.01,96.93a20.721,20.721,0,0,1,5.26-.68,20.44,20.44,0,0,1,18.9,12.66,14.429,14.429,0,0,1,18.33,9.59Z" style="fill:#ff8f2b"/><path d="M101.53,118.5H20.5a17.735,17.735,0,0,1,12.8-16.16,17.706,17.706,0,0,1,12.73,6.29c.64-1.35,4.75-1.84,5.75-.66A20.508,20.508,0,0,1,65.01,96.93a20.406,20.406,0,0,1,18.41,12.65,14.426,14.426,0,0,1,18.11,8.92Z" style="fill:orange"/><path d="M118.5,116.75H9.5a1.75,1.75,0,0,0,0,3.5h109a1.75,1.75,0,0,0,0-3.5Z" style="fill:orange"/><polygon points="75.17 22.75 75.17 45.08 21.5 45.08 9.5 33.92 21.5 22.75 75.17 22.75" style="fill:#983729"/><polygon points="69 22.75 69 45.08 21.5 45.08 9.5 33.92 21.5 22.75 69 22.75" style="fill:#b55607"/><polygon points="118.5 68.33 106.5 79.5 52.83 79.5 52.83 57.17 106.5 57.17 118.5 68.33" style="fill:#983729"/><polygon points="110.33 68.33 98.33 79.5 52.83 79.5 52.83 57.17 98.33 57.17 110.33 68.33" style="fill:#b55607"/><path d="M64,31.5a2.375,2.375,0,1,0-2.375-2.375A2.378,2.378,0,0,0,64,31.5Z" style="fill:#983729"/><path d="M64,36.335a2.375,2.375,0,1,0,2.375,2.375A2.378,2.378,0,0,0,64,36.335Z" style="fill:#983729"/><path d="M64,61.25a2.375,2.375,0,1,0,2.375,2.375A2.378,2.378,0,0,0,64,61.25Z" style="fill:#983729"/><path d="M64,70.836a2.375,2.375,0,1,0,2.375,2.375A2.378,2.378,0,0,0,64,70.836Z" style="fill:#983729"/></svg>