<svg id="Layer_1" data-name="Layer 1" xmlns="http://www.w3.org/2000/svg" viewBox="0 0 128 128"><title>FAN</title><path d="M118.5,73.63l-14.88,3.14-15,3.16c-.05-.22-.09-.43-.15-.64a24.806,24.806,0,0,0-48.39.76l.02.03-13.29-2.8-1.72-.36L9.5,73.63a55.7,55.7,0,0,1,109,0Z" style="fill:#983729"/><path d="M103.5,76.12,88.62,79.26l-.15.03a24.779,24.779,0,0,0-24.1-18.97c-18,0-33.64,8.42-37.56,16.96l-1.72-.36L9.5,73.63A55.79,55.79,0,0,1,47.42,31.94c.52-.01,1.05-.02,1.58-.02A55.713,55.713,0,0,1,103.5,76.12Z" style="fill:#b55607"/><polygon points="72.257 98.573 55.742 98.573 64 85.127 72.257 98.573" style="fill:#983729"/><path d="M120.212,73.266a1.745,1.745,0,0,0-2.073-1.351L68.008,82.493,97.6,40.676a1.75,1.75,0,1,0-2.857-2.022L65.75,79.624v-50.2a1.75,1.75,0,0,0-3.5,0v50.2L33.256,38.654A1.75,1.75,0,1,0,30.4,40.676L59.992,82.493,9.861,71.915a1.75,1.75,0,1,0-.723,3.424l54.5,11.5a1.734,1.734,0,0,0,.356.038h0a1.732,1.732,0,0,0,.361-.038l54.5-11.5A1.749,1.749,0,0,0,120.212,73.266Z" style="fill:#983729"/></svg>