<svg id="Layer_1" data-name="Layer 1" xmlns="http://www.w3.org/2000/svg" viewBox="0 0 128 128"><title>JUICE</title><polygon points="80.4 33.5 77.93 56.85 72.52 107.95 71.4 118.5 34.74 118.5 33.62 107.95 27.64 51.49 25.74 33.5 80.4 33.5" style="fill:#ebecee"/><path d="M77.926,56.85l-5.41,51.1L71.4,118.5H34.736l-1.12-10.55-5.98-56.46s9.68,6.76,28.43,2.26C64.9,51.63,72.176,53.12,77.926,56.85Z" style="fill:orange"/><polygon points="72.516 107.95 71.396 118.5 34.736 118.5 33.616 107.95 72.516 107.95" style="fill:#ebecee"/><path d="M95.48,9.5a1.746,1.746,0,0,1-1.75,1.75H69.18a6.464,6.464,0,0,0-6.37,5.54L60.48,33.5,54.51,76.24a1.744,1.744,0,0,1-1.73,1.51.974.974,0,0,1-.24-.02,1.74,1.74,0,0,1-1.49-1.97l5.9-42.26,2.4-17.19a9.973,9.973,0,0,1,9.83-8.56H93.73A1.746,1.746,0,0,1,95.48,9.5Z" style="fill:#983729"/><path d="M95.48,9.5a1.746,1.746,0,0,1-1.75,1.75H69.18a6.464,6.464,0,0,0-6.37,5.54L60.48,33.5H56.95l2.4-17.19a9.973,9.973,0,0,1,9.83-8.56H93.73A1.746,1.746,0,0,1,95.48,9.5Z" style="fill:#b55607"/><polygon points="80.4 33.5 77.93 56.85 72.52 107.95 71.4 118.5 64.2 118.5 72.52 33.5 80.4 33.5" style="fill:#d1d1d1"/><path d="M77.926,56.85a24.931,24.931,0,0,0-7.374-3.241L64.861,111.75l6.838,3.9.817-7.7Z" style="fill:#ff8f2b"/><path d="M102.26,92.67A25.831,25.831,0,0,1,76.43,118.5a25.431,25.431,0,0,1-2.91-.17A25.82,25.82,0,0,1,50.6,92.67Z" style="fill:#4b9641"/><path d="M96.43,92.67a25.834,25.834,0,0,1-22.91,25.66A25.82,25.82,0,0,1,50.6,92.67Z" style="fill:#5dbd52"/><path d="M93.36,92.67A16.93,16.93,0,0,1,76.43,109.6a15.8,15.8,0,0,1-2.68-.22A16.917,16.917,0,0,1,59.5,92.67Z" style="fill:#ffc900"/><path d="M87.99,92.67a16.925,16.925,0,0,1-14.24,16.71A16.917,16.917,0,0,1,59.5,92.67Z" style="fill:#ffda2d"/><path d="M89.594,103.308,78.911,92.667h-4.96L63.268,103.308a17.023,17.023,0,0,0,2.468,2.482l8.944-8.909v12.628a17.021,17.021,0,0,0,3.5,0V96.88l8.944,8.91A17.02,17.02,0,0,0,89.594,103.308Z" style="fill:orange"/></svg>