<svg id="Layer_1" data-name="Layer 1" xmlns="http://www.w3.org/2000/svg" viewBox="0 0 128 128"><title>SHORT</title><rect x="24" y="19.67" width="80" height="9.33" style="fill:#ff8f2b"/><rect x="24" y="19.67" width="67.5" height="9.33" style="fill:orange"/><polygon points="118.5 108.33 74 108.33 70.65 97.83 64 77.01 57.65 96.89 57.35 97.83 54 108.33 9.5 108.33 11.42 97.83 24 29 104 29 116.58 97.83 118.5 108.33" style="fill:#4b9641"/><polygon points="105.8 108.33 74 108.33 70.65 97.83 64 77.01 51.3 77.01 44.65 97.83 41.3 108.33 9.5 108.33 11.42 97.83 24 29 91.3 29 103.88 97.83 105.8 108.33" style="fill:#5dbd52"/><path d="M50.684,58.356a8.954,8.954,0,0,1-2.887-.467,7.731,7.731,0,0,1-5.2-6.561,1.75,1.75,0,1,1,3.468-.474,4.211,4.211,0,0,0,2.859,3.721,6.543,6.543,0,0,0,6.426-1.639c1.869-1.841,2.336-4.586,1.316-7.73-4.317-13.31,5.783-21.864,6.215-22.221a1.75,1.75,0,0,1,2.862,1.464c-.007.112-.641,11.452,6.763,15.516,3,1.647,5.6,1.4,6.947-.662.88-1.344.868-3.062-.026-3.753a1.75,1.75,0,0,1,2.141-2.77c2.361,1.825,2.719,5.532.813,8.441-1.813,2.767-5.928,4.9-11.559,1.812-6.019-3.3-7.857-9.895-8.393-14.336A16.885,16.885,0,0,0,60,44.127c1.429,4.405.631,8.525-2.189,11.3A10.279,10.279,0,0,1,50.684,58.356Z" style="fill:#fff"/><polygon points="57.35 97.833 54 108.333 9.5 108.333 11.42 97.833 57.35 97.833" style="fill:orange"/><polygon points="118.5 108.333 74 108.333 70.65 97.833 116.58 97.833 118.5 108.333" style="fill:orange"/><circle cx="72.971" cy="60.834" r="3.624" style="fill:#ffda2d"/><circle cx="30.909" cy="72.292" r="3.624" style="fill:#ffda2d"/><circle cx="47.114" cy="84.343" r="3.624" style="fill:#ffda2d"/><circle cx="96.639" cy="79.334" r="3.624" style="fill:#ffda2d"/><circle cx="38.157" cy="40.468" r="3.624" style="fill:#ffda2d"/><circle cx="93.812" cy="46.252" r="3.624" style="fill:#ffda2d"/><polygon points="44.65 97.83 41.3 108.33 54 108.333 57.35 97.833 44.65 97.83" style="fill:#ff8f2b"/><polygon points="103.88 97.83 105.8 108.33 118.5 108.333 116.58 97.833 103.88 97.83" style="fill:#ff8f2b"/></svg>