<svg id="Layer_1" data-name="Layer 1" xmlns="http://www.w3.org/2000/svg" viewBox="0 0 128 128"><title>SUNGLASSES</title><path d="M11.094,104.578a1.75,1.75,0,0,1-1.237-2.987l3.107-3.107a1.75,1.75,0,1,1,2.475,2.475l-3.107,3.107A1.744,1.744,0,0,1,11.094,104.578Z" style="fill:#983729"/><path d="M99.721,15.951a1.75,1.75,0,0,1-1.237-2.987l3.107-3.107a1.75,1.75,0,0,1,2.475,2.475l-3.107,3.107A1.744,1.744,0,0,1,99.721,15.951Z" style="fill:#983729"/><path d="M63.24,74.525A1.75,1.75,0,0,1,62,71.538L71.538,62a1.75,1.75,0,1,1,2.475,2.475l-9.535,9.535A1.743,1.743,0,0,1,63.24,74.525Z" style="fill:#983729"/><path d="M111.34,52.68l-2.73,2.73-7.75,7.76a19,19,0,0,1-22.85,3.06L66.58,59.7a15.376,15.376,0,0,0-3.99,2.89,15.153,15.153,0,0,0-1.73,2.05,16.569,16.569,0,0,0-1.16,1.94l6.53,11.43a19,19,0,0,1-3.06,22.85l-2.78,2.78-7.71,7.7a18.988,18.988,0,0,1-26.86,0l-11.4-11.4a4.509,4.509,0,0,1-.39-5.95,4.2,4.2,0,0,1,.39-.45L43.86,64.11a9.86,9.86,0,0,1,9.84-2.48,7.162,7.162,0,0,1,.89.3,15.609,15.609,0,0,1,1.3-2.23,15.393,15.393,0,0,1,1.73-2.08c.13-.13.27-.26.4-.38a15.7,15.7,0,0,1,3.91-2.65,9.9,9.9,0,0,1,1.6-10.1,6.869,6.869,0,0,1,.58-.63L93.54,14.42a4.521,4.521,0,0,1,6.4,0l11.4,11.4A18.988,18.988,0,0,1,111.34,52.68Z" style="fill:#983729"/><path d="M108.61,55.41l-7.75,7.76a19,19,0,0,1-22.85,3.06L66.58,59.7c-5.518,2.05-9.72,9.08-10.45,10.51l6.53,11.43a19,19,0,0,1-2.27,22l-7.71,7.7a18.988,18.988,0,0,1-26.86,0l-11.4-11.4a4.509,4.509,0,0,1-.39-5.95L40.28,67.74a9.909,9.909,0,0,1,10.74-2.17,9.029,9.029,0,0,1,3.57-3.64,15.444,15.444,0,0,1,3.43-4.69,15.7,15.7,0,0,1,3.91-2.65,9.9,9.9,0,0,1,1.6-10.1L89.97,18.05a4.539,4.539,0,0,1,6.4,0l11.4,11.41A18.976,18.976,0,0,1,108.61,55.41Z" style="fill:#b55607"/><path d="M106.29,30.87l-9.55-9.55L94.16,23.9,92,26.06l-8,8L69.16,48.9a2.745,2.745,0,0,0-.6,3.02l.36.89,12.63,7.22A12.223,12.223,0,0,0,84,61.08a11.853,11.853,0,0,0,5.67.29A11.38,11.38,0,0,0,92,60.66a11.591,11.591,0,0,0,2.16-1.17,11.877,11.877,0,0,0,1.65-1.37l10.48-10.49A11.848,11.848,0,0,0,106.29,30.87ZM60.03,81.55,52.81,68.92l-.89-.36a2.745,2.745,0,0,0-3.02.6l-2.49,2.49L44.26,73.8,21.32,96.74l9.55,9.55a11.877,11.877,0,0,0,11.05,3.16,11.648,11.648,0,0,0,4.49-2.1,11.025,11.025,0,0,0,1.22-1.06L58.12,95.81A11.881,11.881,0,0,0,60.03,81.55Z" style="fill:#b5e3e9"/><path d="M41.92,76.14v33.31a11.658,11.658,0,0,1-5.66-.08V81.8Z" style="fill:#ebecee"/><path d="M46.41,71.65v35.7a11.614,11.614,0,0,1-2.15,1.3V73.8Z" style="fill:#ebecee"/><path d="M89.67,28.39V61.37A11.853,11.853,0,0,1,84,61.08V34.06Z" style="fill:#ebecee"/><path d="M94.16,23.9V59.49A11.591,11.591,0,0,1,92,60.66V26.06Z" style="fill:#ebecee"/></svg>