<svg id="Layer_1" data-name="Layer 1" xmlns="http://www.w3.org/2000/svg" viewBox="0 0 128 128"><title>SWIMSUIT</title><path d="M91.88,49.12a58.954,58.954,0,0,0-.59,28.25,31.884,31.884,0,0,1,.76,7.23,12.241,12.241,0,0,1-6.27,10.65,33.191,33.191,0,0,0-15.2,18.5,6.979,6.979,0,0,1-7.52,4.69,6.347,6.347,0,0,1-1.97-.6,7.426,7.426,0,0,1-3.72-4.24A33.176,33.176,0,0,0,42.08,95.17a11.846,11.846,0,0,1-4.49-4.45,12.188,12.188,0,0,1-1.64-6.12,31.884,31.884,0,0,1,.76-7.23,58.954,58.954,0,0,0-.59-28.25,13.421,13.421,0,0,1-1.44-4.69,13.832,13.832,0,0,1,2.97-10.29c.36-1.45.8-3.03,1.33-4.69C40.99,23.11,44.37,15.6,49.95,9.5h4.26s-5.4,6.51-9.39,19.63c-.03.11-.07.22-.1.34q.42-.12.84-.21a13.821,13.821,0,0,1,15.15,7.09,3.27,3.27,0,0,0,.39.58,3.539,3.539,0,0,0,2.82,1.38h.2a3.48,3.48,0,0,0,3.1-1.83,13.887,13.887,0,0,1,9.38-7.22h.01c.24-.05.48-.1.73-.13a13.33,13.33,0,0,1,2.2-.18,13.688,13.688,0,0,1,3.65.5.292.292,0,0,1,.09.02c-4-13.35-9.49-19.97-9.49-19.97h4.26c7.04,7.7,10.57,17.63,12.3,24.64a13.832,13.832,0,0,1,2.97,10.29A13.421,13.421,0,0,1,91.88,49.12Z" style="fill:#e4474f"/><path d="M87.49,44.43a13.832,13.832,0,0,0-2.97-10.29c-.36-1.45-.79-3.03-1.33-4.69a13.688,13.688,0,0,0-3.65-.5,13.33,13.33,0,0,0-2.2.18,3.382,3.382,0,0,1,.11.34q-.42-.12-.84-.21H76.6a13.887,13.887,0,0,0-9.38,7.22,3.48,3.48,0,0,1-3.1,1.83h-.2a3.539,3.539,0,0,1-2.82-1.38,3.491,3.491,0,0,1-2.81,1.38h-.2a3.623,3.623,0,0,1-3.21-1.96C53,32.78,44.97,29.5,44.72,29.47c.03-.12.07-.23.1-.34C48.81,16.01,54.21,9.5,54.21,9.5H49.95c-5.58,6.1-8.96,13.61-10.97,19.95-.53,1.66-.97,3.24-1.33,4.69a13.832,13.832,0,0,0-2.97,10.29,13.421,13.421,0,0,0,1.44,4.69,58.954,58.954,0,0,1,.59,28.25,31.884,31.884,0,0,0-.76,7.23,12.188,12.188,0,0,0,1.64,6.12,11.846,11.846,0,0,0,4.49,4.45A33.176,33.176,0,0,1,57.37,113.6a7.426,7.426,0,0,0,3.72,4.24,7.082,7.082,0,0,0,3.66-4.09,33.191,33.191,0,0,1,15.2-18.5A12.241,12.241,0,0,0,86.22,84.6a31.884,31.884,0,0,0-.76-7.23,58.954,58.954,0,0,1,.59-28.25A13.421,13.421,0,0,0,87.49,44.43Z" style="fill:#ff596b"/><path d="M80.723,57.379c-12.2,0-15-5.44-15.131-5.719-.015-.033-.037-.061-.054-.093a1.732,1.732,0,0,0-.094-.162c-.031-.046-.066-.088-.1-.131s-.073-.088-.114-.129-.086-.077-.131-.113-.085-.069-.132-.1a1.752,1.752,0,0,0-.159-.09c-.035-.018-.065-.042-.1-.058-.014-.006-.029-.008-.043-.014-.055-.022-.111-.038-.167-.054s-.109-.035-.164-.045-.1-.012-.151-.017a1.771,1.771,0,0,0-.186-.015c-.048,0-.1.008-.145.012a1.741,1.741,0,0,0-.191.022c-.046.009-.091.026-.136.038a1.753,1.753,0,0,0-.192.062c-.011,0-.023.006-.034.011-.034.015-.063.037-.1.054a1.764,1.764,0,0,0-.174.1c-.044.029-.083.063-.124.1a1.7,1.7,0,0,0-.138.12c-.04.04-.074.083-.11.127s-.073.087-.105.136a1.758,1.758,0,0,0-.092.162c-.019.036-.043.067-.059.1-.025.057-2.85,5.7-15.121,5.7a1.75,1.75,0,0,0,0,3.5c9.729,0,14.538-3.259,16.723-5.563,2.185,2.3,6.994,5.563,16.723,5.563a1.75,1.75,0,0,0,0-3.5Z" style="fill:#e4474f"/></svg>