<svg id="Layer_1" data-name="Layer 1" xmlns="http://www.w3.org/2000/svg" viewBox="0 0 128 128"><title>TSHIRT</title><path d="M118.5,46.8,96.26,62.38v50.36H31.74V62.38L9.5,46.8,28.17,20.14a11.417,11.417,0,0,1,9.36-4.88H90.47a11.417,11.417,0,0,1,9.36,4.88Z" style="fill:#92d5f3"/><path d="M110.25,46.8,88.01,62.38v50.36H31.74V62.38l-3.5-2.45L9.5,46.8,28.17,20.14a11.417,11.417,0,0,1,9.36-4.88H82.22a11.417,11.417,0,0,1,9.36,4.88Z" style="fill:#b5e3e9"/><path d="M31.74,37.23V62.38l-3.5-2.45V37.23a1.75,1.75,0,0,1,3.5,0Z" style="fill:#92d5f3"/><path d="M98.011,60.122a1.75,1.75,0,0,1-1.75-1.75V37.235a1.75,1.75,0,1,1,3.5,0V58.372A1.75,1.75,0,0,1,98.011,60.122Z" style="fill:#92d5f3"/><path d="M82.88,16.035a18.88,18.88,0,0,1-37.76,0c0-.26.01-.52.02-.77H82.86C82.87,15.515,82.88,15.775,82.88,16.035Z" style="fill:#ebecee"/><path d="M76.3,16.035a12.3,12.3,0,0,1-24.6,0c0-.26.01-.52.03-.77H76.27C76.29,15.515,76.3,15.775,76.3,16.035Z" style="fill:#92d5f3"/><rect x="31.74" y="106.565" width="64.521" height="6.17" style="fill:#d1d1d1"/><path d="M87.25,46.77h-9a1.75,1.75,0,0,1,0-3.5h9a1.75,1.75,0,0,1,0,3.5Z" style="fill:#ffda2d"/><rect x="31.74" y="106.565" width="56.27" height="6.17" style="fill:#ebecee"/></svg>