<svg id="Layer_1" data-name="Layer 1" xmlns="http://www.w3.org/2000/svg" viewBox="0 0 128 128"><title>BEANS</title><path d="M38.9,124.362h0A77.62,77.62,0,0,1,3.638,89.1h0A18.284,18.284,0,0,1,7.106,68.082h0A18.284,18.284,0,0,1,36.43,72.92h0A41.053,41.053,0,0,0,55.079,91.57h0a18.284,18.284,0,0,1,4.838,29.325h0A18.284,18.284,0,0,1,38.9,124.362Z" style="fill:#9b6e42"/><path d="M55.08,91.57h0A41.052,41.052,0,0,1,36.43,72.92,18.282,18.282,0,0,0,8.5,66.831a18.3,18.3,0,0,1,24.928,8.091h0A41.053,41.053,0,0,0,52.078,93.571h0A18.284,18.284,0,0,1,56.916,122.9c-.43.43-.883.826-1.346,1.206a18.242,18.242,0,0,0,4.348-3.207h0A18.284,18.284,0,0,0,55.08,91.57Z" style="fill:#6d4c41"/><path d="M42.888,96.313l-.079,0a11.581,11.581,0,0,1-11.12-11.119,1.75,1.75,0,0,1,3.5-.154,8.1,8.1,0,0,0,7.777,7.777,1.75,1.75,0,0,1-.076,3.5Z" style="fill:#6d4c41"/><path d="M116.068,84.216h0a63.681,63.681,0,0,1-40.911,0h0A15,15,0,0,1,64.975,70.01h0A15,15,0,0,1,84.794,55.805h0a33.68,33.68,0,0,0,21.638,0h0A15,15,0,0,1,126.25,70.01h0A15,15,0,0,1,116.068,84.216Z" style="fill:#9b6e42"/><path d="M106.431,55.805a33.68,33.68,0,0,1-21.638,0,15.008,15.008,0,0,0-18.174,7.36,14.94,14.94,0,0,1,15.173-3.358,33.68,33.68,0,0,0,21.638,0,15,15,0,0,1,19.819,14.205h0a14.968,14.968,0,0,1-1.659,6.85,14.986,14.986,0,0,0,4.66-10.853h0A15,15,0,0,0,106.431,55.805Z" style="fill:#6d4c41"/><path d="M95.613,68.354a9.835,9.835,0,0,1-6.663-2.609,1.75,1.75,0,1,1,2.364-2.58,6.331,6.331,0,0,0,8.6,0,1.75,1.75,0,1,1,2.364,2.58A9.835,9.835,0,0,1,95.613,68.354Z" style="fill:#6d4c41"/><path d="M83.995,23.39h0A63.681,63.681,0,0,1,55.066,52.319h0a15,15,0,0,1-17.244-2.845h0a15,15,0,0,1,3.969-24.058h0a33.68,33.68,0,0,0,15.3-15.3h0A15,15,0,0,1,81.15,6.146h0A15,15,0,0,1,83.995,23.39Z" style="fill:#9b6e42"/><path d="M81.15,6.146h0A14.876,14.876,0,0,0,68.547,1.9a14.824,14.824,0,0,1,8.6,4.241h0A15,15,0,0,1,79.992,23.39,63.682,63.682,0,0,1,51.064,52.319a14.97,14.97,0,0,1-4.609,1.407,14.967,14.967,0,0,0,8.611-1.407h0A63.682,63.682,0,0,0,83.995,23.39,15,15,0,0,0,81.15,6.146Z" style="fill:#6d4c41"/><path d="M51.68,29.507a1.75,1.75,0,0,1-.075-3.5,6.331,6.331,0,0,0,6.08-6.081,1.75,1.75,0,0,1,3.5.154A9.812,9.812,0,0,1,51.758,29.5Z" style="fill:#6d4c41"/><path d="M55.854,90A39.514,39.514,0,0,1,38,72.146,1.75,1.75,0,1,0,34.861,73.7,43.033,43.033,0,0,0,54.305,93.139a16.534,16.534,0,0,1,4.375,26.519,16.527,16.527,0,0,1-19.007,3.136A76.285,76.285,0,0,1,5.207,88.327a16.539,16.539,0,0,1,21.86-22.288,1.75,1.75,0,0,0,1.479-3.172A20.04,20.04,0,0,0,2.068,89.876a79.8,79.8,0,0,0,36.056,36.056A20.034,20.034,0,0,0,55.854,90Z"/><path d="M31.689,85.191a11.581,11.581,0,0,0,11.12,11.119l.079,0a1.75,1.75,0,0,0,.076-3.5,8.1,8.1,0,0,1-7.777-7.777,1.75,1.75,0,0,0-3.5.154Z"/><path d="M121.008,56.4a16.566,16.566,0,0,0-15.139-2.249,32.081,32.081,0,0,1-20.514,0A16.751,16.751,0,0,0,63.225,70.011,16.742,16.742,0,0,0,74.6,85.873a65.794,65.794,0,0,0,42.035,0A16.743,16.743,0,0,0,128,70.011,16.567,16.567,0,0,0,121.008,56.4Zm-5.5,26.162a62.275,62.275,0,0,1-39.787,0,13.244,13.244,0,0,1-8.994-12.548A13.282,13.282,0,0,1,79.933,56.745a13.364,13.364,0,0,1,4.3.717,35.629,35.629,0,0,0,22.762,0A13.251,13.251,0,0,1,124.5,70.011,13.244,13.244,0,0,1,115.506,82.559Z"/><path d="M99.912,63.164a6.331,6.331,0,0,1-8.6,0,1.75,1.75,0,1,0-2.364,2.58,9.812,9.812,0,0,0,13.326,0,1.75,1.75,0,1,0-2.364-2.58Z"/><path d="M48.43,55.619a16.721,16.721,0,0,0,7.41-1.731,1.75,1.75,0,1,0-1.549-3.139,13.246,13.246,0,0,1-15.232-2.513,13.251,13.251,0,0,1,3.506-21.252,35.621,35.621,0,0,0,16.1-16.095A13.25,13.25,0,0,1,79.912,7.384a13.246,13.246,0,0,1,2.513,15.232,62.049,62.049,0,0,1-7.592,11.795,1.75,1.75,0,0,0,2.71,2.215,65.53,65.53,0,0,0,8.021-12.461A16.744,16.744,0,0,0,82.387,4.909,16.75,16.75,0,0,0,55.522,9.341a32.1,32.1,0,0,1-14.505,14.5,16.751,16.751,0,0,0-4.432,26.865A16.737,16.737,0,0,0,48.43,55.619Z"/><path d="M67.487,41.978c-1.146,1-2.343,1.959-3.558,2.866a1.75,1.75,0,1,0,2.093,2.8c1.285-.958,2.55-1.977,3.76-3.028a1.75,1.75,0,0,0-2.295-2.643Z"/><path d="M57.684,19.928a6.331,6.331,0,0,1-6.08,6.081,1.75,1.75,0,0,0,.075,3.5l.078,0a9.812,9.812,0,0,0,9.423-9.423,1.75,1.75,0,0,0-3.5-.154Z"/></svg>