<svg id="Layer_1" data-name="Layer 1" xmlns="http://www.w3.org/2000/svg" viewBox="0 0 128 128"><title>CHERRY</title><path d="M74.938,82.545a1.749,1.749,0,0,1-1.6-1.031l-3.828-8.483a73.58,73.58,0,0,1-6.2-36.829l.735-8.118L58.067,36.2A69.472,69.472,0,0,0,44.435,77.689a1.75,1.75,0,0,1-3.5,0A72.946,72.946,0,0,1,55.25,34.127l9.7-13.165a1.75,1.75,0,0,1,3.152,1.2L66.8,36.518a70.083,70.083,0,0,0,5.9,35.074l3.828,8.483a1.751,1.751,0,0,1-1.594,2.47Z" style="fill:#9b6e42"/><path d="M44.435,77.689c0-1.593.065-3.176.17-4.752l-1.92.576-1.592-.477c-.1,1.544-.158,3.094-.158,4.654a1.75,1.75,0,0,0,3.5,0Z" style="fill:#6d4c41"/><path d="M74.456,75.473l-1.606,1.7-1.323.313,1.816,4.024a1.75,1.75,0,1,0,3.189-1.439Z" style="fill:#6d4c41"/><path d="M102.649,1.751H86.607A20.25,20.25,0,0,0,66.357,22H82.4a20.25,20.25,0,0,0,20.25-20.25Z" style="fill:#54b88b"/><path d="M86.607,1.751A20.138,20.138,0,0,0,75.582,5.029,20.161,20.161,0,0,1,82.6,3.752H98.646a20.22,20.22,0,0,1-9.225,16.972A20.238,20.238,0,0,0,102.649,1.751H86.607Z" style="fill:#4ba57d"/><path d="M108.746,84.962l-2.338-4.05q-.273-.473-.569-.924C99.49,70.329,85.56,69.522,77.633,77.934l-2.7,2.861-3.826.9a18.39,18.39,0,0,0-4.456,1.692,17.158,17.158,0,0,1,3.2,9.05q.031.538.031,1.085v5.243a27.072,27.072,0,0,1-5.912,16.919,27.2,27.2,0,0,0,35.762,6.524C112.357,114.453,116.156,97.8,108.746,84.962Z" style="fill:#ff6e6e"/><path d="M72.861,85.745l3.826-.9,2.7-2.861c7.927-8.412,21.857-7.6,28.206,2.054q.3.451.569.924l2.338,4.05c.18.312.348.629.515.945a28.114,28.114,0,0,0-2.265-4.991l-2.338-4.05q-.273-.473-.569-.924C99.49,70.329,85.56,69.522,77.633,77.934l-2.7,2.861-3.826.9a18.39,18.39,0,0,0-4.456,1.692,17.281,17.281,0,0,1,2.081,3.881A18.326,18.326,0,0,1,72.861,85.745Z" style="fill:#e56363"/><path d="M73.882,93.526c0-.444-.013-.885-.039-1.315a21.2,21.2,0,0,0-3.4-10.329,18.466,18.466,0,0,0-3.785,1.509,17.158,17.158,0,0,1,3.2,9.05q.031.538.031,1.085v5.243a27.072,27.072,0,0,1-5.912,16.919,27.055,27.055,0,0,0,2.713,3.012,30.959,30.959,0,0,0,7.2-19.931Z" style="fill:#e56363"/><path d="M46.451,76.559l-3.766,1.13-3.765-1.13c-11.071-3.321-22.731,4.343-23.4,15.882q-.031.538-.031,1.085V98.2c0,14.819,11.619,27.345,26.432,27.751a27.2,27.2,0,0,0,27.96-27.186V93.526q0-.546-.031-1.085C69.181,80.9,57.522,73.238,46.451,76.559Z" style="fill:#ff6e6e"/><path d="M69.85,92.441c-.669-11.539-12.328-19.2-23.4-15.882l-3.766,1.13-3.765-1.13c-11.071-3.321-22.731,4.343-23.4,15.882q-.031.538-.031,1.085V98.2c0,.107.007.213.008.32,0-.272.008-.544.023-.814.669-11.539,12.328-19.2,23.4-15.882l3.765,1.13,3.766-1.13c11.071-3.321,22.731,4.343,23.4,15.882q.031.532.031,1.073V93.526Q69.881,92.98,69.85,92.441Z" style="fill:#e56363"/><path d="M30.065,1.751H46.107A20.25,20.25,0,0,1,66.357,22H50.315a20.25,20.25,0,0,1-20.25-20.25Z" style="fill:#54b88b"/><path d="M46.107,1.751A20.138,20.138,0,0,1,57.132,5.029a20.161,20.161,0,0,0-7.023-1.277H34.068a20.22,20.22,0,0,0,9.225,16.972A20.238,20.238,0,0,1,30.065,1.751H46.107Z" style="fill:#4ba57d"/><path d="M110.262,84.087l-2.339-4.052q-.3-.516-.622-1.008a19.17,19.17,0,0,0-14.467-8.558,20.107,20.107,0,0,0-16.475,6.265l-.9.958-2.753-6.1a70.083,70.083,0,0,1-5.9-35.074l1.157-12.767H82.4a22.025,22.025,0,0,0,22-22A1.75,1.75,0,0,0,102.648,0H86.607a22.033,22.033,0,0,0-20.25,13.4A22.033,22.033,0,0,0,46.107,0a1.75,1.75,0,0,0,0,3.5,18.527,18.527,0,0,1,18.418,16.75H50.315A18.526,18.526,0,0,1,31.9,3.5h3.27a1.75,1.75,0,0,0,0-3.5h-5.1a1.75,1.75,0,0,0-1.75,1.75,22.025,22.025,0,0,0,22,22H62.895L55.25,34.127A72.9,72.9,0,0,0,40.981,75.35l-1.558-.468a20.1,20.1,0,0,0-17.4,2.813,19.17,19.17,0,0,0-8.249,14.644q-.034.589-.034,1.187V98.2c0,15.841,12.621,29.075,28.134,29.5.274.007.547.011.821.011a28.723,28.723,0,0,0,20.176-8.2q.563-.547,1.09-1.12a28.869,28.869,0,0,0,36.688,5.306,1.75,1.75,0,1,0-1.832-2.982A25.389,25.389,0,0,1,66.2,115.653a29.7,29.7,0,0,0,5.435-17.633c0-1.5.011-3,0-4.495A19.425,19.425,0,0,0,69.2,84.134a16.448,16.448,0,0,1,2.313-.731l3.783-.895a1.85,1.85,0,0,0,.929-.529l2.68-2.845a16.617,16.617,0,0,1,13.623-5.179,15.69,15.69,0,0,1,11.847,6.994q.27.409.517.838l2.338,4.05a26.314,26.314,0,0,1,3.021,18.326,1.75,1.75,0,0,0,3.432.687A29.814,29.814,0,0,0,110.262,84.087ZM86.607,3.5h14.209A18.527,18.527,0,0,1,82.4,20.251H68.189A18.527,18.527,0,0,1,86.607,3.5ZM41.969,124.2c-13.636-.374-24.729-12.038-24.729-26,0-4.359-.189-8.592,2.081-12.525a16.715,16.715,0,0,1,17.994-7.733c1.008.231,2,.559,2.986.856a9.131,9.131,0,0,0,2.38.638,6.854,6.854,0,0,0,1.834-.471c.8-.239,1.593-.484,2.392-.718a16.892,16.892,0,0,1,9.871.052A16.212,16.212,0,0,1,68.132,93.641c.011,1.709,0,3.418,0,5.127A25.685,25.685,0,0,1,41.969,124.2ZM70.709,80a20.065,20.065,0,0,0-3.542,1.2,19.758,19.758,0,0,0-3.818-3.5,20.1,20.1,0,0,0-17.4-2.812l-1.466.44A69.425,69.425,0,0,1,58.067,36.2l5.982-8.12L63.314,36.2a73.58,73.58,0,0,0,6.2,36.829L72.47,79.58Z"/><path d="M109.344,112.049a1.75,1.75,0,0,0-2.409.569q-.447.725-.945,1.421a1.75,1.75,0,0,0,2.848,2.036q.565-.792,1.076-1.618A1.75,1.75,0,0,0,109.344,112.049Z"/></svg>