<svg id="Layer_1" data-name="Layer 1" xmlns="http://www.w3.org/2000/svg" viewBox="0 0 128 128"><title>RAINBOW</title><path d="M42.152,72.989a7.761,7.761,0,0,0-10.615-2.527,10.223,10.223,0,0,0-19.389,2.451A12.133,12.133,0,0,0,13.89,97.054H39.909a12.137,12.137,0,0,0,2.243-24.065Z" style="fill:#eaeaea"/><path d="M42.152,72.989a7.761,7.761,0,0,0-10.615-2.527A10.212,10.212,0,0,0,13.657,69.1a10.2,10.2,0,0,1,14.878,4.361A7.761,7.761,0,0,1,39.15,75.991a12.124,12.124,0,0,1,7.706,18.871,12.129,12.129,0,0,0-4.7-21.873Z" style="fill:#d2d2d2"/><path d="M85.848,72.989a7.761,7.761,0,0,1,10.615-2.527,10.223,10.223,0,0,1,19.389,2.451,12.133,12.133,0,0,1-1.742,24.141H88.091a12.137,12.137,0,0,1-2.243-24.065Z" style="fill:#eaeaea"/><path d="M115.852,72.913a10.212,10.212,0,0,0-16.519-6.166,10.21,10.21,0,0,1,12.517,8.168,12.118,12.118,0,0,1,5.578,21.669,12.127,12.127,0,0,0-1.576-23.671Z" style="fill:#d2d2d2"/><path d="M22.219,64.446A10.152,10.152,0,0,1,27.6,65.981a38.987,38.987,0,0,1,72.81,0,10.195,10.195,0,0,1,10.514-.148,48.994,48.994,0,0,0-93.838,0A10.162,10.162,0,0,1,22.219,64.446Z" style="fill:#54b88b"/><path d="M31.537,70.462a7.539,7.539,0,0,1,5.426-.985,28.989,28.989,0,0,1,54.074,0,7.539,7.539,0,0,1,5.426.985,10.288,10.288,0,0,1,3.942-4.481,38.987,38.987,0,0,0-72.81,0A10.288,10.288,0,0,1,31.537,70.462Z" style="fill:#ffca28"/><path d="M42.152,72.989a12.066,12.066,0,0,1,3.692,1.349,19,19,0,0,1,36.314,0,12.066,12.066,0,0,1,3.692-1.349,7.787,7.787,0,0,1,5.188-3.512,28.989,28.989,0,0,0-54.074,0A7.788,7.788,0,0,1,42.152,72.989Z" style="fill:#ff6e6e"/><path d="M89.422,66.048a11.7,11.7,0,0,0-4.917,3.4,16.036,16.036,0,0,0-3.713,1.636,18.854,18.854,0,0,1,1.365,3.259,12.066,12.066,0,0,1,3.692-1.349,7.787,7.787,0,0,1,5.188-3.512A28.884,28.884,0,0,0,89.422,66.048Z" style="fill:#e56363"/><path d="M91.037,69.477a7.539,7.539,0,0,1,5.426.985,10.288,10.288,0,0,1,3.942-4.481c-.419-1.089-.891-2.151-1.4-3.19a14.287,14.287,0,0,0-3.159,2.794,11.682,11.682,0,0,0-6.422.464A28.884,28.884,0,0,1,91.037,69.477Z" style="fill:#ff8f00"/><path d="M99,62.791c.511,1.039.983,2.1,1.4,3.19a10.195,10.195,0,0,1,10.514-.148,48.629,48.629,0,0,0-1.907-5.212,14.36,14.36,0,0,0-2.231-.175A14.187,14.187,0,0,0,99,62.791Z" style="fill:#4ba57d"/><path d="M38.578,66.048a11.7,11.7,0,0,1,4.917,3.4,16.036,16.036,0,0,1,3.713,1.636,18.854,18.854,0,0,0-1.365,3.259,12.066,12.066,0,0,0-3.692-1.349,7.787,7.787,0,0,0-5.188-3.512A28.884,28.884,0,0,1,38.578,66.048Z" style="fill:#e56363"/><path d="M36.963,69.477a7.539,7.539,0,0,0-5.426.985A10.288,10.288,0,0,0,27.6,65.981c.419-1.089.891-2.151,1.4-3.19a14.287,14.287,0,0,1,3.159,2.794,11.682,11.682,0,0,1,6.422.464A28.884,28.884,0,0,0,36.963,69.477Z" style="fill:#ff8f00"/><path d="M29,62.791c-.511,1.039-.983,2.1-1.4,3.19a10.195,10.195,0,0,0-10.514-.148,48.629,48.629,0,0,1,1.907-5.212,14.36,14.36,0,0,1,2.231-.175A14.187,14.187,0,0,1,29,62.791Z" style="fill:#4ba57d"/><path d="M25.687,95.3H24.246a1.75,1.75,0,0,0,0,3.5h1.441a1.75,1.75,0,0,0,0-3.5Z"/><path d="M117.3,71.409a11.935,11.935,0,0,0-4.917-6.728A51.279,51.279,0,0,0,94.641,39.519,1.75,1.75,0,1,0,92.523,42.3a47.852,47.852,0,0,1,15.539,20.611,12.06,12.06,0,0,0-6.761.653,41.4,41.4,0,0,0-28.1-23.3A39.917,39.917,0,0,0,64,39.2,41,41,0,0,0,26.7,63.569a12.041,12.041,0,0,0-6.764-.653A47.618,47.618,0,0,1,64,32.7a46.76,46.76,0,0,1,19.291,4.121,1.75,1.75,0,1,0,1.434-3.192A50.229,50.229,0,0,0,64,29.2,51.106,51.106,0,0,0,15.615,64.681,11.935,11.935,0,0,0,10.7,71.409a13.883,13.883,0,0,0,3.193,27.4h3.19a1.75,1.75,0,1,0,0-3.5h-3.19A10.383,10.383,0,0,1,12.4,74.645a1.749,1.749,0,0,0,1.474-1.431,8.459,8.459,0,0,1,4.061-5.858c.01-.005.021-.006.03-.012a8.032,8.032,0,0,1,1.021-.5l.006,0a8.516,8.516,0,0,1,10.953,4.346,1.75,1.75,0,0,0,2.5.774,6.07,6.07,0,0,1,6.942.512A6.162,6.162,0,0,1,40.67,73.92a1.75,1.75,0,0,0,1.159.789,11.122,11.122,0,0,1,3.194,1.171A10.383,10.383,0,0,1,39.909,95.3H32.853a1.75,1.75,0,1,0,0,3.5h7.057a13.879,13.879,0,0,0,8.045-25.2,17.253,17.253,0,0,1,32.091,0,13.879,13.879,0,0,0,8.045,25.2h26.019a13.883,13.883,0,0,0,3.193-27.4ZM31.472,67.09a11.974,11.974,0,0,0-1.714-1.713A37.755,37.755,0,0,1,64,42.7,37.755,37.755,0,0,1,98.242,65.377a12.055,12.055,0,0,0-2.516,2.8,9.434,9.434,0,0,0-3.577-.583A31.236,31.236,0,0,0,64,49.2,31.234,31.234,0,0,0,35.852,67.59a9.568,9.568,0,0,0-3.577.583A11.9,11.9,0,0,0,31.472,67.09Zm51.68,4.852a20.76,20.76,0,0,0-38.3,0c-.028-.011-.057-.016-.085-.027a13.816,13.816,0,0,0-1.563-.491,9.493,9.493,0,0,0-3.856-3.043,27.22,27.22,0,0,1,49.312,0A9.493,9.493,0,0,0,84.8,71.425a13.816,13.816,0,0,0-1.563.491C83.209,71.926,83.179,71.932,83.151,71.942ZM114.109,95.3H88.091a10.383,10.383,0,0,1-5.109-19.426,11.4,11.4,0,0,1,2.538-1.02,4.97,4.97,0,0,0,1.16-.328,3.929,3.929,0,0,0,1.056-1.172A6,6,0,0,1,95.269,71.8a2.17,2.17,0,0,0,1.711.338,1.752,1.752,0,0,0,1.076-.949,8.516,8.516,0,0,1,10.955-4.345h0a8.029,8.029,0,0,1,1.023.5c.01.006.021.007.031.012a8.459,8.459,0,0,1,4.061,5.857,1.749,1.749,0,0,0,1.474,1.431A10.383,10.383,0,0,1,114.109,95.3Z"/></svg>