<svg id="Layer_1" data-name="Layer 1" xmlns="http://www.w3.org/2000/svg" viewBox="0 0 128 128"><title>TOMATO</title><path d="M80.085,19.887a30.081,30.081,0,0,0-8.489.1l-2.6.4V1.75H59V20.392l-2.6-.4a30.081,30.081,0,0,0-8.489-.1L24,23l9.812,5.746A30.084,30.084,0,0,0,52.5,32.667h0a48.409,48.409,0,0,0,11,30.727L64,64l.5-.606a48.409,48.409,0,0,0,11-30.727h0a30.084,30.084,0,0,0,18.688-3.921L104,23Z" style="fill:#54b88b"/><path d="M97.78,22.19l-6.926,4.056a30.084,30.084,0,0,1-18.688,3.921h0A48.4,48.4,0,0,1,61.39,60.608c.671.95,1.37,1.883,2.113,2.786L64,64l.5-.606a48.409,48.409,0,0,0,11-30.727h0a30.084,30.084,0,0,0,18.688-3.921L104,23Z" style="fill:#4ba57d"/><path d="M94.008,28.842A30.079,30.079,0,0,1,75.5,32.667h0a48.409,48.409,0,0,1-11,30.727L64,64l-.5-.606a48.409,48.409,0,0,1-11-30.727h0a30.079,30.079,0,0,1-18.508-3.825,50.394,50.394,0,0,0,23.336,97.14,64.549,64.549,0,0,1,13.342,0,50.4,50.4,0,0,0,23.336-97.14Z" style="fill:#ff6e6e"/><path d="M94.008,28.842a30.131,30.131,0,0,1-3.83,1.843,50.379,50.379,0,0,1-18.3,95.391c1.313.1,2.636.174,3.976.174A50.4,50.4,0,0,0,94.008,28.842Z" style="fill:#e56363"/><path d="M121.273,58.4a1.75,1.75,0,0,0,3.266-1.262q-.429-1.109-.9-2.194a1.75,1.75,0,1,0-3.205,1.405Q120.874,57.364,121.273,58.4Z"/><path d="M127.22,66.821a1.75,1.75,0,1,0-3.447.6,49.216,49.216,0,0,1,.728,8.431,48.633,48.633,0,0,1-53.648,48.387,66.527,66.527,0,0,0-13.7,0A48.645,48.645,0,0,1,33.864,30.775a32.254,32.254,0,0,0,16.922,3.794,50.327,50.327,0,0,0,8.9,26.669q1.163,1.68,2.466,3.268c.5.608.974,1.245,1.85,1.245s1.35-.637,1.851-1.245A50.275,50.275,0,0,0,77.214,34.569a32.2,32.2,0,0,0,16.922-3.794,48.683,48.683,0,0,1,21,16.391A1.75,1.75,0,1,0,117.96,45.1,52.2,52.2,0,0,0,97.9,28.6l6.986-4.091a1.75,1.75,0,0,0-.659-3.246L80.311,18.151a31.8,31.8,0,0,0-8.982.109l-.578.09V1.75A1.75,1.75,0,0,0,69,0H59a1.75,1.75,0,0,0-1.75,1.75v16.6l-.578-.09a31.835,31.835,0,0,0-8.982-.109,1.75,1.75,0,1,0,.451,3.471,28.287,28.287,0,0,1,8,.1l2.6.4a1.75,1.75,0,0,0,2.018-1.729V3.5h6.5V20.392a1.75,1.75,0,0,0,2.018,1.729l2.6-.4a28.287,28.287,0,0,1,8-.1L98.7,24.075c-2.058,1.2-4.093,2.462-6.189,3.6A28.575,28.575,0,0,1,75.7,30.928a1.751,1.751,0,0,0-1.953,1.738A46.787,46.787,0,0,1,64,61.211a46.789,46.789,0,0,1-9.75-28.545A1.751,1.751,0,0,0,52.3,30.928a28.791,28.791,0,0,1-17.109-3.42c-1.991-1.092-3.93-2.286-5.889-3.433l8.009-1.042a1.75,1.75,0,1,0-.451-3.471l-13.082,1.7a1.75,1.75,0,0,0-.659,3.246l6.993,4.095a52.138,52.138,0,0,0,27.4,99.117,62.886,62.886,0,0,1,12.98,0,52.183,52.183,0,0,0,56.729-60.9Z"/></svg>