<svg id="Layer_1" data-name="Layer 1" xmlns="http://www.w3.org/2000/svg" viewBox="0 0 128 128"><title>UMBRELLA</title><path d="M62.75,11.75h2.5c.671,0,1.336.024,2,.051V1.75h-6.5V11.8C61.414,11.774,62.079,11.75,62.75,11.75Z" style="fill:#596675"/><path d="M72.625,119.75h0a5.375,5.375,0,0,1-5.375-5.375V63.013L63.987,62,60.75,63.006v51.369A11.875,11.875,0,0,0,72.625,126.25h0A11.875,11.875,0,0,0,84.5,114.375V100.5H78v13.875A5.375,5.375,0,0,1,72.625,119.75Z" style="fill:#596675"/><path d="M115.5,62l-12.882,4L89.737,62,76.864,66,63.987,62,51.115,66,38.246,62,25.373,66,12.5,62h0A50.25,50.25,0,0,1,62.75,11.75h2.5A50.25,50.25,0,0,1,115.5,62Z" style="fill:#eaeaea"/><path d="M102.618,66,115.5,62h0A50.25,50.25,0,0,0,65.25,11.75H64l1.884,1.466A61.813,61.813,0,0,1,89.737,62h0Z" style="fill:#ff6e6e"/><path d="M65.25,11.75H64l1.317,1.025A56.933,56.933,0,0,1,111.24,63.323L115.5,62h0A50.25,50.25,0,0,0,65.25,11.75Z" style="fill:#e56363"/><path d="M25.382,66,12.5,62h0A50.25,50.25,0,0,1,62.75,11.75H64l-1.884,1.466A61.813,61.813,0,0,0,38.263,62h0Z" style="fill:#ff6e6e"/><path d="M65.884,13.216,64,11.75l-1.884,1.466A61.813,61.813,0,0,0,38.263,62h0l-.009,0,12.86,4,12.872-4,12.877,4,12.873-4h0A61.813,61.813,0,0,0,65.884,13.216Z" style="fill:#eaeaea"/><polygon points="63.987 66.188 67.25 67.202 67.25 63.013 63.987 62 60.75 63.006 60.75 67.194 63.987 66.188" style="fill:#373f47"/><path d="M65.884,13.216,64,11.75l-1.884,1.466c-.6.469-1.177.964-1.759,1.452A67.283,67.283,0,0,1,84.65,63.581L89.737,62h0A61.813,61.813,0,0,0,65.884,13.216Z" style="fill:#d2d2d2"/><rect x="78" y="100.5" width="6.5" height="14.25" style="fill:#373f47"/><path d="M62.75,11.75H64l-1.317,1.025A56.933,56.933,0,0,0,16.76,63.323L12.5,62h0A50.25,50.25,0,0,1,62.75,11.75Z" style="fill:#e56363"/><path d="M60.75,87.75A1.75,1.75,0,0,0,62.5,86V82.875a1.75,1.75,0,0,0-3.5,0V86A1.75,1.75,0,0,0,60.75,87.75Z"/><path d="M69,10.15V1.75A1.75,1.75,0,0,0,67.25,0h-6.5A1.75,1.75,0,0,0,59,1.75v8.4A52.058,52.058,0,0,0,10.75,62a1.75,1.75,0,0,0,1.231,1.671l12.873,4a1.754,1.754,0,0,0,.522.078h0a1.758,1.758,0,0,0,.519-.079l12.354-3.836L50.6,67.671a1.753,1.753,0,0,0,1.039,0L59,65.382V74.75a1.75,1.75,0,0,0,3.5,0V64.295a5.4,5.4,0,0,1,1.5-.415,5.771,5.771,0,0,1,1.5.423v50.073A7.125,7.125,0,0,0,79.426,116.5h3.1A10.123,10.123,0,0,1,62.5,114.375V94.125a1.75,1.75,0,0,0-3.5,0v20.25a13.616,13.616,0,0,0,27.213.733,1.757,1.757,0,0,0,.037-.358V100.5a1.75,1.75,0,0,0-1.75-1.75H78a1.75,1.75,0,0,0-1.75,1.75v13.875a3.625,3.625,0,0,1-7.25,0V65.39l7.345,2.282a1.766,1.766,0,0,0,1.039,0l12.353-3.839L102.1,67.671a1.791,1.791,0,0,0,1.039,0l12.881-4A1.75,1.75,0,0,0,117.25,62,52.058,52.058,0,0,0,69,10.15Zm10.75,92.1h3V113h-3Zm22.868-38.083L91.474,60.707A63.1,63.1,0,0,0,69.217,13.675a48.51,48.51,0,0,1,44.517,47.041ZM62.5,10V3.5h3V10Q64,9.992,62.5,10ZM51.115,64.167,40.033,60.723a60.263,60.263,0,0,1,7.232-27.334,1.75,1.75,0,1,0-3.077-1.667A63.779,63.779,0,0,0,36.527,60.7L25.377,64.166l-11.111-3.45A49.012,49.012,0,0,1,43.889,17.325a48.272,48.272,0,0,1,14.9-3.65,63.655,63.655,0,0,0-7.637,7.748,1.75,1.75,0,1,0,2.694,2.234,60.15,60.15,0,0,1,8.406-8.285V60.707Zm25.749,0L65.75,60.715V15.373a59.611,59.611,0,0,1,22.2,45.349Z"/></svg>