<svg id="Layer_1" data-name="Layer 1" xmlns="http://www.w3.org/2000/svg" viewBox="0 0 128 128"><title>BEEHIVE</title><rect x="36.625" y="35.958" width="54.75" height="12.5" rx="6.25" ry="6.25" style="fill:#ffca28"/><rect x="29" y="48.458" width="70" height="12.5" rx="6.25" ry="6.25" style="fill:#ffca28"/><rect x="21.5" y="85.958" width="85" height="12.5" rx="6.25" ry="6.25" style="fill:#ffca28"/><rect x="29" y="98.458" width="70" height="12.5" rx="6.25" ry="6.25" style="fill:#ffca28"/><path d="M29.424,102.458H98.576a6.247,6.247,0,0,0-5.826-4H35.25A6.247,6.247,0,0,0,29.424,102.458Z" style="fill:#ff8f00"/><rect x="36.625" y="110.958" width="54.75" height="12.5" rx="6.25" ry="6.25" style="fill:#ffca28"/><path d="M37.049,114.958h53.9a6.247,6.247,0,0,0-5.826-4H42.875A6.247,6.247,0,0,0,37.049,114.958Z" style="fill:#ff8f00"/><path d="M29.424,56.959H98.576a6.247,6.247,0,0,1-5.826,4H35.25A6.247,6.247,0,0,1,29.424,56.959Z" style="fill:#ff8f00"/><path d="M37.049,44.459h53.9a6.247,6.247,0,0,1-5.826,4H42.875A6.247,6.247,0,0,1,37.049,44.459Z" style="fill:#ff8f00"/><rect x="60.5" y="13.875" width="7" height="22.083" style="fill:#9b6e42"/><rect x="60.5" y="13.875" width="7" height="4" style="fill:#6d4c41"/><path d="M73.083,85.958H54.917V70.042A9.083,9.083,0,0,1,64,60.958h0a9.083,9.083,0,0,1,9.083,9.083Z" style="fill:#596675"/><path d="M64,60.958a9.054,9.054,0,0,0-6.44,2.679,9.079,9.079,0,0,1,12.521,8.405V85.958h3V70.042A9.083,9.083,0,0,0,64,60.958Z" style="fill:#373f47"/><path d="M21.5,67.208a6.25,6.25,0,0,0,6.25,6.25H54.917V70.042A9.083,9.083,0,0,1,64,60.958H27.75A6.25,6.25,0,0,0,21.5,67.208Z" style="fill:#ffca28"/><path d="M100.25,60.958H64a9.083,9.083,0,0,1,9.083,9.083v3.417H100.25a6.25,6.25,0,1,0,0-12.5Z" style="fill:#ffca28"/><path d="M100.25,85.958H27.75a6.247,6.247,0,0,0-5.826,4h84.151A6.247,6.247,0,0,0,100.25,85.958Z" style="fill:#ff8f00"/><path d="M108,73.458H73.083v12.5H108a6.25,6.25,0,0,0,0-12.5Z" style="fill:#ffca28"/><path d="M73.054,69.458c.012.194.029.387.029.584v3.417H100.25a6.247,6.247,0,0,0,5.826-4Z" style="fill:#ff8f00"/><path d="M21.924,69.458a6.247,6.247,0,0,0,5.826,4H54.917V70.042c0-.2.017-.39.029-.584Z" style="fill:#ff8f00"/><path d="M20,73.458a6.25,6.25,0,0,0,0,12.5H54.917v-12.5Z" style="fill:#ffca28"/><path d="M1.75,4.542v9.333H36.267L19.63,23.958a2,2,0,0,0-.963,1.71v4.656a2,2,0,0,0,3.037,1.71l29.963-18.16H126.25V4.542Z" style="fill:#9b6e42"/><path d="M126.25,2.792H1.75A1.75,1.75,0,0,0,0,4.542v9.333a1.75,1.75,0,0,0,1.75,1.75H30l-11.28,6.837a3.771,3.771,0,0,0-1.806,3.206v4.656a3.741,3.741,0,0,0,5.693,3.207L52.156,15.625H58.75V34.208H42.875a7.994,7.994,0,0,0-6.609,12.5H35.25a7.994,7.994,0,0,0-6.609,12.5H27.75a7.994,7.994,0,0,0-6.609,12.5H20a8,8,0,0,0,0,16h1.141a7.994,7.994,0,0,0,6.609,12.5h.891a7.994,7.994,0,0,0,6.609,12.5h1.016a7.994,7.994,0,0,0,6.609,12.5h42.25a7.994,7.994,0,0,0,6.609-12.5H92.75a7.994,7.994,0,0,0,6.609-12.5h.891a7.994,7.994,0,0,0,6.609-12.5H108a8.009,8.009,0,0,0,8-8,1.75,1.75,0,0,0-3.5,0,4.5,4.5,0,0,1-4.5,4.5H74.833v-9H108a1.75,1.75,0,0,0,0-3.5h-1.141a7.994,7.994,0,0,0-6.609-12.5h-.891a7.994,7.994,0,0,0-6.609-12.5H91.734a7.994,7.994,0,0,0-6.609-12.5H69.25V15.625H86.667a1.75,1.75,0,0,0,0-3.5h-35a1.758,1.758,0,0,0-.907.253L20.8,30.538a.227.227,0,0,1-.252,0,.232.232,0,0,1-.127-.218V25.668a.248.248,0,0,1,.12-.213L37.174,15.372a1.75,1.75,0,0,0-.907-3.247H3.5V6.292h121v5.833H110.833a1.75,1.75,0,0,0,0,3.5H126.25a1.75,1.75,0,0,0,1.75-1.75V4.542A1.75,1.75,0,0,0,126.25,2.792Zm-103,64.416a4.5,4.5,0,0,1,4.5-4.5H56.033c-2.357,2.562-2.866,5.651-2.866,9H27.75A4.5,4.5,0,0,1,23.25,67.208Zm-7.75,12.5a4.5,4.5,0,0,1,4.5-4.5H53.167v9H20A4.5,4.5,0,0,1,15.5,79.708Zm74.125,37.5a4.5,4.5,0,0,1-4.5,4.5H42.875a4.5,4.5,0,0,1,0-9h42.25A4.5,4.5,0,0,1,89.625,117.208Zm7.625-12.5a4.5,4.5,0,0,1-4.5,4.5H35.25a4.5,4.5,0,0,1,0-9h57.5A4.5,4.5,0,0,1,97.25,104.708Zm3-17a4.5,4.5,0,0,1,0,9H27.75a4.5,4.5,0,0,1,0-9Zm-43.583-3.5V70.042a7.333,7.333,0,1,1,14.666,0V84.208Zm48.083-17a4.5,4.5,0,0,1-4.5,4.5H74.833c0-3.349-.509-6.438-2.866-9H100.25A4.5,4.5,0,0,1,104.75,67.208Zm-7.5-12.5a4.5,4.5,0,0,1-4.5,4.5H35.25a4.5,4.5,0,0,1,0-9h57.5A4.5,4.5,0,0,1,97.25,54.708Zm-7.625-12.5a4.5,4.5,0,0,1-4.5,4.5H42.875a4.5,4.5,0,0,1,0-9h42.25A4.5,4.5,0,0,1,89.625,42.208ZM65.75,15.625V34.208h-3.5V15.625Z"/><path d="M96.667,12.125a1.75,1.75,0,0,0,0,3.5h4.166a1.75,1.75,0,0,0,0-3.5Z"/></svg>