<svg id="Layer_1" data-name="Layer 1" xmlns="http://www.w3.org/2000/svg" viewBox="0 0 128 128"><title>BOOT</title><path d="M64.047,57.356,64,15.5H14.5v97.749h99.125v-8.91a20,20,0,0,0-12.512-18.545L76.558,75.879A20,20,0,0,1,64.047,57.356Z" style="fill:#9b6e42"/><path d="M101.113,85.794,76.558,75.879A20,20,0,0,1,64.047,57.356L64,15.5H14.5v4H60l.047,41.856A20,20,0,0,0,72.556,79.882L97.111,89.8a20,20,0,0,1,12.512,18.545v4.908h4v-8.91A20,20,0,0,0,101.113,85.794Z" style="fill:#6d4c41"/><rect x="9.83" y="1.75" width="58.84" height="13.75" rx="2" ry="2" style="fill:#596675"/><polygon points="14.5 113.249 14.5 126.25 23.092 126.25 25.093 121.751 29.507 121.751 31.508 126.25 37.772 126.25 39.773 121.751 44.187 121.751 46.188 126.25 52.452 126.25 54.453 121.751 58.867 121.751 60.868 126.25 67.132 126.25 69.133 121.751 73.547 121.751 75.548 126.25 81.812 126.25 83.813 121.751 88.227 121.751 90.228 126.25 96.492 126.25 98.493 121.751 102.907 121.751 104.908 126.25 113.625 126.25 113.625 113.249 14.5 113.249" style="fill:#596675"/><path d="M19.12,1.75V8.62a1.75,1.75,0,1,1-3.5,0V1.75Z" style="fill:#373f47"/><path d="M26.42,1.75V8.62a1.75,1.75,0,1,1-3.5,0V1.75Z" style="fill:#373f47"/><path d="M33.71,1.75V8.62a1.75,1.75,0,1,1-3.5,0V1.75Z" style="fill:#373f47"/><path d="M41,1.75V8.62a1.75,1.75,0,1,1-3.5,0V1.75Z" style="fill:#373f47"/><path d="M48.29,1.75V8.62a1.75,1.75,0,1,1-3.5,0V1.75Z" style="fill:#373f47"/><path d="M55.58,1.75V8.62a1.75,1.75,0,1,1-3.5,0V1.75Z" style="fill:#373f47"/><path d="M62.88,1.75V8.62a1.75,1.75,0,1,1-3.5,0V1.75Z" style="fill:#373f47"/><path d="M14.5,83.25h0a54.672,54.672,0,0,1,44.679,23.163L64,113.249H14.5Z" style="fill:#ffca28"/><path d="M55.176,110.416l2,2.834H64l-4.821-6.836A54.672,54.672,0,0,0,14.5,83.25v4.165A54.661,54.661,0,0,1,55.176,110.416Z" style="fill:#ff8f00"/><path d="M51.583,27.333H64a0,0,0,0,1,0,0v6.5a0,0,0,0,1,0,0H51.583a3.25,3.25,0,0,1-3.25-3.25v0a3.25,3.25,0,0,1,3.25-3.25Z" style="fill:#6d4c41"/><path d="M51.583,42.687H64a0,0,0,0,1,0,0v6.5a0,0,0,0,1,0,0H51.583a3.25,3.25,0,0,1-3.25-3.25v0A3.25,3.25,0,0,1,51.583,42.687Z" style="fill:#6d4c41"/><path d="M64.073,58.042H51.583a3.25,3.25,0,1,0,0,6.5H65.394A19.962,19.962,0,0,1,64.073,58.042Z" style="fill:#6d4c41"/><path d="M101.113,85.794l-9.066-3.661h0l-1.62,1.974A45.937,45.937,0,0,0,80,113.249h33.625v-8.91A20,20,0,0,0,101.113,85.794Z" style="fill:#ffca28"/><path d="M101.113,85.794l-9.066-3.661h0l-1.62,1.974c-.61.744-1.186,1.51-1.746,2.286l8.429,3.4a20,20,0,0,1,12.512,18.545v4.908h4v-8.91A20,20,0,0,0,101.113,85.794Z" style="fill:#ff8f00"/><rect x="14.5" y="113.249" width="99.125" height="4" style="fill:#373f47"/><path d="M12.75,29.167a1.75,1.75,0,1,0,3.5,0V17.25h46l.009,8.333H51.583a5,5,0,0,0,0,10H62.272l.006,5.354h-10.7a5,5,0,0,0,0,10H62.29l.006,5.354H51.583a5,5,0,0,0,0,10h12.64A21.661,21.661,0,0,0,75.9,77.5a1.75,1.75,0,0,0,1.311-3.246A18.174,18.174,0,0,1,67.056,64.027c-.012-.038-.015-.078-.029-.116a18.2,18.2,0,0,1-1.2-5.931l0-.014c-.007-.2-.023-.407-.024-.612l-.045-40.1h.915a3.754,3.754,0,0,0,3.75-3.75V3.75A3.754,3.754,0,0,0,66.667,0H11.833a3.754,3.754,0,0,0-3.75,3.75V13.5a3.754,3.754,0,0,0,3.75,3.75h.917Zm49.5,2.916H51.583a1.5,1.5,0,0,1,0-3H62.25Zm0,15.354H51.583a1.5,1.5,0,0,1,0-3H62.25ZM51.583,62.792a1.5,1.5,0,0,1,0-3H62.448l0,.02q.085.75.219,1.486l0,.018q.137.746.324,1.476Zm-40-49.292V3.75a.25.25,0,0,1,.25-.25h3.792V8.625a1.75,1.75,0,0,0,3.5,0V3.5h3.792V8.625a1.75,1.75,0,1,0,3.5,0V3.5h3.792V8.625a1.75,1.75,0,0,0,3.5,0V3.5H37.5V8.625a1.75,1.75,0,0,0,3.5,0V3.5h3.792V8.625a1.75,1.75,0,0,0,3.5,0V3.5h3.792V8.625a1.75,1.75,0,0,0,3.5,0V3.5h3.792V8.625a1.75,1.75,0,0,0,3.5,0V3.5h3.792a.25.25,0,0,1,.25.25V13.5a.25.25,0,0,1-.25.25H11.833A.25.25,0,0,1,11.583,13.5Z"/><path d="M14.5,38.417a1.75,1.75,0,0,0-1.75,1.75v3.5a1.75,1.75,0,0,0,3.5,0v-3.5A1.75,1.75,0,0,0,14.5,38.417Z"/><path d="M101.769,84.171,92.7,80.51h0l-6.055-2.445a1.75,1.75,0,0,0-1.311,3.246l3.847,1.553L89.074,83a47.818,47.818,0,0,0-10.786,28.5H64.907l-4.3-6.095A56.477,56.477,0,0,0,16.25,81.553V54.667a1.75,1.75,0,0,0-3.5,0V126.25A1.75,1.75,0,0,0,14.5,128h8.592a1.751,1.751,0,0,0,1.6-1.039l1.539-3.46H28.37l1.539,3.46a1.751,1.751,0,0,0,1.6,1.039h6.263a1.751,1.751,0,0,0,1.6-1.039l1.539-3.46H43.05l1.539,3.46a1.751,1.751,0,0,0,1.6,1.039h6.263a1.751,1.751,0,0,0,1.6-1.039l1.539-3.46H57.73l1.539,3.46a1.751,1.751,0,0,0,1.6,1.039h6.264a1.751,1.751,0,0,0,1.6-1.039l1.539-3.46H72.41l1.539,3.46a1.751,1.751,0,0,0,1.6,1.039h6.263a1.751,1.751,0,0,0,1.6-1.039l1.539-3.46H87.09l1.539,3.46a1.751,1.751,0,0,0,1.6,1.039h6.263a1.751,1.751,0,0,0,1.6-1.039l1.539-3.46h2.141l1.539,3.46a1.751,1.751,0,0,0,1.6,1.039h8.717a1.75,1.75,0,0,0,1.75-1.75V104.339A21.657,21.657,0,0,0,101.769,84.171ZM91.78,85.217l.8-.979,7.874,3.179a18.17,18.17,0,0,1,11.417,16.922v7.16H81.785A44.313,44.313,0,0,1,91.78,85.217ZM57.749,107.422l2.876,4.077H16.25V85.029A52.986,52.986,0,0,1,57.749,107.422ZM111.875,124.5h-5.83l-1.539-3.46a1.751,1.751,0,0,0-1.6-1.039H98.493a1.751,1.751,0,0,0-1.6,1.039l-1.539,3.46h-3.99l-1.539-3.46a1.751,1.751,0,0,0-1.6-1.039H83.813a1.751,1.751,0,0,0-1.6,1.039l-1.539,3.46h-3.99l-1.539-3.46a1.751,1.751,0,0,0-1.6-1.039H69.133a1.751,1.751,0,0,0-1.6,1.039L66,124.5H62l-1.539-3.46a1.751,1.751,0,0,0-1.6-1.039H54.453a1.751,1.751,0,0,0-1.6,1.039l-1.539,3.46h-3.99l-1.539-3.46a1.751,1.751,0,0,0-1.6-1.039H39.773a1.751,1.751,0,0,0-1.6,1.039l-1.539,3.46h-3.99l-1.539-3.46a1.751,1.751,0,0,0-1.6-1.039H25.093a1.751,1.751,0,0,0-1.6,1.039l-1.539,3.46H16.25V115h95.625Z"/></svg>