<svg id="Layer_1" data-name="Layer 1" xmlns="http://www.w3.org/2000/svg" viewBox="0 0 128 128"><title>TREE</title><path d="M50.779,83.026a27.644,27.644,0,0,1-14.587,9.343l-.7-15.434L37.4,73.3A34.957,34.957,0,0,0,50.779,83.026Z" style="fill:#54b88b"/><path d="M50.779,83.026A34.957,34.957,0,0,1,37.4,73.3L35.49,76.935l.013.277a38.719,38.719,0,0,0,12.331,8.9A27.972,27.972,0,0,0,50.779,83.026Z" style="fill:#4ba57d"/><path d="M93.936,32.876A17.723,17.723,0,0,0,68.817,11.8a20.75,20.75,0,0,0-34.45,20.585,34.873,34.873,0,0,0,21.01,52.169l.885-19.468L48.338,49.975l6.034-1.935,9.213,13.082L73.167,47.3l4.514,2.211-5.942,15.57.885,19.468A34.877,34.877,0,0,0,93.936,32.876Z" style="fill:#54b88b"/><path d="M93.936,32.876A17.723,17.723,0,0,0,68.817,11.8,20.716,20.716,0,0,0,43.073,9.223,20.656,20.656,0,0,1,64.814,13.8a17.728,17.728,0,0,1,25.12,21.078A34.869,34.869,0,0,1,77.549,82.889,34.871,34.871,0,0,0,93.936,32.876Z" style="fill:#4ba57d"/><polygon points="71.739 65.084 77.681 49.515 73.167 47.304 63.586 61.123 54.373 48.041 48.338 49.975 56.261 65.084 53.671 122.062 74.329 122.062 71.739 65.084" style="fill:#9b6e42"/><path d="M77.681,49.515,73.167,47.3l-.761,1.1h0a2.77,2.77,0,0,1,1.369,3.475l-5.04,13.207,2.59,56.977h3l-2.59-56.977Z" style="fill:#6d4c41"/><path d="M109.491,64.592l-3.579-1.753-7.6,10.956-4.04-5.737A34.943,34.943,0,0,1,90.6,73.3l1.907,3.637-2.053,45.17h16.377l-2.053-45.17Z" style="fill:#9b6e42"/><polygon points="109.491 64.592 105.912 62.839 104.633 64.683 106.489 65.592 101.778 77.936 103.786 122.105 106.833 122.105 104.78 76.935 109.491 64.592" style="fill:#6d4c41"/><path d="M96.8,71.636l-2.52-3.579A34.943,34.943,0,0,1,90.6,73.3l1.907,3.637-.013.277A38.914,38.914,0,0,0,96.8,71.636Z" style="fill:#6d4c41"/><path d="M122.378,51.4a14.05,14.05,0,0,0-19.915-16.71,16.451,16.451,0,0,0-7.937-4.283,17.788,17.788,0,0,1-.589,2.468,34.867,34.867,0,0,1,.339,35.181l4.04,5.737,7.6-10.956,3.579,1.753L104.78,76.935l.7,15.434a27.65,27.65,0,0,0,16.9-40.968Z" style="fill:#54b88b"/><path d="M99.461,38.693A14.054,14.054,0,0,1,119.376,55.4a27.584,27.584,0,0,1-.24,28.712A27.618,27.618,0,0,0,122.378,51.4a14.05,14.05,0,0,0-19.915-16.71,16.451,16.451,0,0,0-7.937-4.283,17.788,17.788,0,0,1-.589,2.468c.576.962,1.09,1.963,1.573,2.982A16.453,16.453,0,0,1,99.461,38.693Z" style="fill:#4ba57d"/><polygon points="102.91 66.841 98.202 73.632 98.316 73.794 103.079 66.924 102.91 66.841" style="fill:#4ba57d"/><path d="M98.228,32.331c.042-.186.074-.375.112-.562a16.437,16.437,0,0,0-3.813-1.362,17.788,17.788,0,0,1-.589,2.468,34.867,34.867,0,0,1,.339,35.181l2.52,3.579a38.905,38.905,0,0,0,1.432-39.3Z" style="fill:#4ba57d"/><path d="M77.221,83.026a27.644,27.644,0,0,0,14.587,9.343l.7-15.434L90.6,73.3A34.957,34.957,0,0,1,77.221,83.026Z" style="fill:#54b88b"/><path d="M92.51,76.935,90.6,73.3a34.957,34.957,0,0,1-13.381,9.727,27.972,27.972,0,0,0,2.945,3.09,38.719,38.719,0,0,0,12.331-8.9Z" style="fill:#4ba57d"/><path d="M18.509,64.592l3.579-1.753,7.6,10.956,4.04-5.737A34.943,34.943,0,0,0,37.4,73.3L35.49,76.935l2.053,45.17H21.167l2.053-45.17Z" style="fill:#9b6e42"/><path d="M35.49,76.935,37.4,73.3a34.943,34.943,0,0,1-3.673-5.241L32.138,70.31A34.693,34.693,0,0,0,34.4,73.3l-1.907,3.637,2.053,45.17h3Z" style="fill:#6d4c41"/><path d="M35.49,76.935,37.4,73.3a34.943,34.943,0,0,1-3.673-5.241L31.2,71.636a38.914,38.914,0,0,0,4.3,5.576Z" style="fill:#6d4c41"/><path d="M31.781,64.1a35.218,35.218,0,0,1,2.585-31.72,21.223,21.223,0,0,1-.675-3.456,48.3,48.3,0,0,0-8.155,5.763A14.054,14.054,0,0,0,5.622,51.4a27.65,27.65,0,0,0,16.9,40.968l.7-15.434L18.509,64.592l3.579-1.753,7.6,10.956,4.04-5.737C33.065,66.738,32.348,65.47,31.781,64.1Z" style="fill:#54b88b"/><path d="M33.692,28.927c-1.215.685-2.5,1.5-3.7,2.313.033.172.059.345.1.517A38.895,38.895,0,0,0,31.2,71.636l2.52-3.579c-.66-1.319-1.376-2.587-1.943-3.954a35.218,35.218,0,0,1,2.585-31.72A21.223,21.223,0,0,1,33.692,28.927Z" style="fill:#4ba57d"/><path d="M73.313,99.745a1.749,1.749,0,0,0-1.668,1.828l.092,2.007a1.75,1.75,0,0,0,1.747,1.67l.081,0a1.749,1.749,0,0,0,1.668-1.828l-.092-2.007A1.741,1.741,0,0,0,73.313,99.745Z"/><path d="M128.039,65.578a29.361,29.361,0,0,0-3.772-14.409,15.8,15.8,0,0,0-21.493-18.562,18.175,18.175,0,0,0-6.328-3.488c.045-.538.075-1.077.075-1.618A19.469,19.469,0,0,0,69.128,9.7,22.513,22.513,0,0,0,31.8,26.67c0,.435.015.872.041,1.309a55.8,55.8,0,0,0-6.607,4.633,16.01,16.01,0,0,0-14.253.913,1.75,1.75,0,1,0,1.781,3.012,12.3,12.3,0,0,1,6.254-1.7,12.162,12.162,0,0,1,5.706,1.408,1.752,1.752,0,0,0,2.034-.3,41.75,41.75,0,0,1,5.639-4.2q.045.181.085.364a35.913,35.913,0,0,0-3.439,7.792,36.512,36.512,0,0,0,2.615,28.046l-1.964,2.788-6.168-8.9a1.751,1.751,0,0,0-2.208-.574L17.74,63.021a1.748,1.748,0,0,0-.865,2.2l4.58,12-.583,12.831A25.9,25.9,0,0,1,7.124,52.3a1.753,1.753,0,0,0,.166-1.428,12.357,12.357,0,0,1-.125-7.058,1.75,1.75,0,1,0-3.371-.943,15.863,15.863,0,0,0-.061,8.3A29.376,29.376,0,0,0,20.708,93.651l-1.289,28.375a1.749,1.749,0,0,0,1.748,1.829H37.544a1.749,1.749,0,0,0,1.748-1.829L38,93.654A29.613,29.613,0,0,0,51.278,85.1c.751.277,1.512.536,2.287.765l-1.642,36.116a1.749,1.749,0,0,0,1.748,1.829H74.329a1.749,1.749,0,0,0,1.748-1.829l-.486-10.69a1.75,1.75,0,0,0-3.5.158l.4,8.861h-17l2.461-54.138.046-1.009h0a1.746,1.746,0,0,0-.2-.892L50.854,51.007l2.828-.907,8.473,12.031a1.749,1.749,0,0,0,1.431.742h.007a1.751,1.751,0,0,0,1.432-.753l8.724-12.583,1.728.847L70.1,64.46a1.747,1.747,0,0,0-.113.7h0l.319,7.014L71.288,93.7a1.75,1.75,0,1,0,3.5-.158l-.349-7.677c.775-.23,1.536-.488,2.287-.765A29.608,29.608,0,0,0,90,93.653l-1.29,28.373a1.749,1.749,0,0,0,1.748,1.829h16.377a1.749,1.749,0,0,0,1.748-1.829l-1.289-28.375A29.345,29.345,0,0,0,128.039,65.578ZM23,120.355l1.268-27.906v0l.7-15.434a1.747,1.747,0,0,0-.113-.7l-4.14-10.85.792-.388,6.738,9.72a1.751,1.751,0,0,0,1.432.753h.007a1.749,1.749,0,0,0,1.431-.742l2.515-3.571q.793,1.178,1.675,2.292l-1.363,2.6a1.746,1.746,0,0,0-.2.892l1.971,43.341ZM37.839,90.047,37.26,77.329l.52-.99a36.467,36.467,0,0,0,10.1,7.312A26.156,26.156,0,0,1,37.839,90.047ZM73.5,65.369l5.811-15.23a1.749,1.749,0,0,0-.865-2.2l-4.514-2.211a1.751,1.751,0,0,0-2.208.574L63.575,58.067,55.8,47.033a1.746,1.746,0,0,0-1.965-.658L47.8,48.31a1.75,1.75,0,0,0-1.016,2.479l7.7,14.69-.03.663-.733,16.113A33.185,33.185,0,0,1,35.853,33.307c.583-.938-.023-2.142-.205-3.126A19.322,19.322,0,0,1,35.3,26.67,19.013,19.013,0,0,1,67.595,13.051a1.746,1.746,0,0,0,2.035.3,15.786,15.786,0,0,1,7.408-1.829A16,16,0,0,1,93.021,27.5a16.214,16.214,0,0,1-.329,3.2c-.2.973-.822,2.132-.257,3.077A33.068,33.068,0,0,1,97.12,50.759a33.463,33.463,0,0,1-22.849,31.5l-.648-14.246ZM90.161,90.047a26.146,26.146,0,0,1-10.036-6.4,36.472,36.472,0,0,0,10.1-7.312l.519.99Zm2.126,30.309,1.971-43.342a1.746,1.746,0,0,0-.2-.892l-1.363-2.6q.882-1.112,1.675-2.292l2.514,3.57a1.749,1.749,0,0,0,1.431.742h.007a1.751,1.751,0,0,0,1.432-.753l6.738-9.719.792.388-4.14,10.85a1.747,1.747,0,0,0-.113.7l.7,15.434h0L105,120.355Zm14.841-30.3-.583-12.832,4.58-12a1.748,1.748,0,0,0-.865-2.2l-3.578-1.753a1.751,1.751,0,0,0-2.208.574l-6.169,8.9-1.963-2.788a36.655,36.655,0,0,0-.512-35.3c0-.015.007-.031.011-.046v0a14.69,14.69,0,0,1,5.4,3.346,1.746,1.746,0,0,0,2.034.3,12.162,12.162,0,0,1,5.706-1.408A12.308,12.308,0,0,1,120.71,50.871a1.753,1.753,0,0,0,.166,1.428,25.9,25.9,0,0,1-13.748,37.752Z"/></svg>