<?xml version="1.0" encoding="utf-8"?>
<!-- Generator: Adobe Illustrator 23.0.0, SVG Export Plug-In . SVG Version: 6.00 Build 0)  -->
<svg version="1.1" id="Layer_1" xmlns="http://www.w3.org/2000/svg" xmlns:xlink="http://www.w3.org/1999/xlink" x="0px" y="0px"
	 viewBox="0 0 512 512" style="enable-background:new 0 0 512 512;" xml:space="preserve">
<style type="text/css">
	.st0{fill:#32283C;}
	.st1{fill:#463C4B;}
	.st2{fill:#E6E6EB;}
	.st3{fill:#A5C3DC;}
	.st4{fill:#FF4646;}
	.st5{fill:#CD3232;}
	.st6{fill:#F0915A;}
	.st7{fill:#FAB991;}
	.st8{fill:#F5732D;}
	.st9{fill:#FAA037;}
	.st10{fill:#78AF41;}
	.st11{fill:#788CB4;}
	.st12{fill:#466932;}
	.st13{fill:#FBB993;}
	.st14{fill:#F1905B;}
	.st15{fill:#23192D;}
	.st16{fill:#32293C;}
	.st17{fill:#B92323;}
</style>
<g>
	<g>
		<g>
			<path class="st5" d="M264,16h-32c-70.692,0-128,57.307-128,128v0c0,55.73,35.621,103.133,85.333,120.706V304h-10.374
				c-6.053,0-10.959,4.907-10.959,10.959v0c0,3.199,1.398,6.239,3.827,8.321l46.099,39.513c3.92,3.36,8.912,5.206,14.074,5.206h32
				c5.162,0,10.154-1.847,14.074-5.206l46.099-39.513c2.429-2.082,3.827-5.122,3.827-8.321v0c0-6.053-4.907-10.959-10.959-10.959
				h-10.374v-39.294C356.379,247.134,392,199.731,392,144v0C392,73.307,334.693,16,264,16z"/>
		</g>
		<g>
			<path class="st4" d="M360,144c0-70.692-57.308-128-128-128S104,73.308,104,144c0,55.73,35.621,103.134,85.333,120.706V304
				h-10.374c-6.053,0-10.959,4.907-10.959,10.959v0c0,3.199,1.398,6.239,3.827,8.321l46.099,39.513
				c3.92,3.36,8.912,5.206,14.074,5.206s10.154-1.847,14.074-5.206l46.099-39.513c2.429-2.082,3.827-5.122,3.827-8.321v0
				c0-6.053-4.907-10.959-10.959-10.959h-10.374v-39.294C324.379,247.134,360,199.73,360,144z"/>
		</g>
		<g>
			<circle class="st5" cx="232" cy="144" r="96"/>
		</g>
		<path class="st2" d="M264,132c6.627,0,12-5.373,12-12v-1.538c0-18.174-14.143-33.097-32-34.365V72c0-6.627-5.373-12-12-12
			s-12,5.373-12,12v12.098c-17.857,1.268-32,16.191-32,34.365c0,15.843,10.734,29.591,26.104,33.433l29.971,7.493
			c4.666,1.167,7.925,5.34,7.925,10.15c0,5.769-4.693,10.462-10.462,10.462h-19.076c-5.769,0-10.462-4.693-10.462-10.462V168
			c0-6.627-5.373-12-12-12s-12,5.373-12,12v1.538c0,18.174,14.143,33.097,32,34.365V216c0,6.627,5.373,12,12,12s12-5.373,12-12
			v-12.098c17.857-1.268,32-16.191,32-34.365c0-15.843-10.734-29.591-26.104-33.433l-29.971-7.493
			c-4.666-1.167-7.925-5.34-7.925-10.15c0-5.769,4.693-10.462,10.462-10.462h19.076c5.769,0,10.462,4.693,10.462,10.462V120
			C252,126.627,257.373,132,264,132z"/>
	</g>
	<g>
		<path class="st13" d="M256,384h-68.118c-12.73,0-24.939,5.057-33.941,14.059L136,416l40,40l19.314-19.314
			c3.001-3.001,7.07-4.686,11.314-4.686H256c13.255,0,24-10.745,24-24v0C280,394.745,269.255,384,256,384z"/>
	</g>
	<g>
		<path class="st14" d="M371.313,372.686c-6.248-6.249-16.379-6.249-22.627,0L289.373,432h-82.745
			c-4.243,0-8.313,1.686-11.314,4.686L176,456l24,24l16-16h76.687c6.411,0,12.438-2.497,16.97-7.03l61.657-61.657
			C377.562,389.065,377.562,378.935,371.313,372.686z"/>
	</g>
	<g>
		<path class="st14" d="M256,421.333h-5.333c-4.418,0-8-3.582-8-8v-10.667c0-4.418,3.582-8,8-8H256
			c7.364,0,13.333,5.97,13.333,13.333l0,0C269.333,415.364,263.364,421.333,256,421.333z"/>
	</g>
	<g>
		<path class="st1" d="M133.657,413.657L176,456l-40,40H40l82.343-82.343C125.467,410.533,130.533,410.533,133.657,413.657z"/>
	</g>
	<g>
		<path class="st0" d="M176,456l26.343,26.343c3.124,3.124,3.124,8.19,0,11.314L200,496h-64L176,456z"/>
	</g>
	<g>
		<g>
			<circle class="st2" cx="392" cy="144" r="72"/>
		</g>
		<g>
			<path class="st1" d="M392,80c35.29,0,64,28.71,64,64s-28.71,64-64,64s-64-28.71-64-64S356.71,80,392,80 M392,64
				c-44.183,0-80,35.817-80,80s35.817,80,80,80c44.183,0,80-35.817,80-80S436.183,64,392,64L392,64z"/>
		</g>
	</g>
	<g>
		<path class="st4" d="M381.333,178.667c-2.047,0-4.095-0.781-5.657-2.343l-24-24c-3.125-3.124-3.125-8.189,0-11.313
			c3.124-3.125,8.189-3.125,11.313,0l18.343,18.343l42.343-42.343c3.124-3.125,8.189-3.125,11.313,0
			c3.125,3.124,3.125,8.189,0,11.313l-48,48C385.428,177.886,383.381,178.667,381.333,178.667z"/>
	</g>
</g>
</svg>
