<?xml version="1.0" encoding="utf-8"?>
<!-- Generator: Adobe Illustrator 23.0.0, SVG Export Plug-In . SVG Version: 6.00 Build 0)  -->
<svg version="1.1" id="Layer_1" xmlns="http://www.w3.org/2000/svg" xmlns:xlink="http://www.w3.org/1999/xlink" x="0px" y="0px"
	 viewBox="0 0 512 512" style="enable-background:new 0 0 512 512;" xml:space="preserve">
<style type="text/css">
	.st0{fill:#32283C;}
	.st1{fill:#463C4B;}
	.st2{fill:#E6E6EB;}
	.st3{fill:#A5C3DC;}
	.st4{fill:#FF4646;}
	.st5{fill:#CD3232;}
	.st6{fill:#F0915A;}
	.st7{fill:#FAB991;}
	.st8{fill:#F5732D;}
	.st9{fill:#FAA037;}
	.st10{fill:#78AF41;}
	.st11{fill:#788CB4;}
	.st12{fill:#466932;}
	.st13{fill:#FBB993;}
	.st14{fill:#F1905B;}
	.st15{fill:#23192D;}
	.st16{fill:#32293C;}
	.st17{fill:#B92323;}
</style>
<g>
	<g>
		<path class="st2" d="M316.368,96L316.368,96c-1.078,0-2.1,0.479-2.79,1.307l-11.155,13.386c-0.69,0.828-1.712,1.307-2.79,1.307
			h-1.931c-1.078,0-2.1-0.479-2.79-1.307l-11.155-13.386c-0.69-0.828-1.712-1.307-2.79-1.307h-1.931c-1.078,0-2.1,0.479-2.79,1.307
			l-11.155,13.386c-0.69,0.828-1.712,1.307-2.79,1.307h-1.931c-1.078,0-2.1-0.479-2.79-1.307l-11.155-13.386
			c-0.69-0.828-1.712-1.307-2.79-1.307h0c-2.006,0-3.632,1.626-3.632,3.632V176h64c8.837,0,16-7.163,16-16V99.632
			C320,97.626,318.374,96,316.368,96z"/>
	</g>
	<g>
		<path class="st3" d="M288,160c0,8.837,7.163,16,16,16h0h-48v-32c0-8.837,7.163-16,16-16h0c8.837,0,16,7.163,16,16V160z"/>
	</g>
	<g>
		<path class="st0" d="M496,352H32c-8.837,0-16,7.163-16,16v64c0,8.837,7.163,16,16,16h448c8.837,0,16-7.163,16-16V352z"/>
	</g>
	<g>
		<path class="st1" d="M240,352H32c-8.837,0-16,7.163-16,16v64c0,8.837,7.163,16,16,16h208c8.837,0,16-7.163,16-16v-64
			C256,359.163,248.837,352,240,352z"/>
	</g>
	<g>
		<path class="st4" d="M176,192h304c8.837,0,16,7.163,16,16v112H144v-96C144,206.327,158.327,192,176,192z"/>
	</g>
	<g>
		<path class="st5" d="M416,192h64c8.837,0,16,7.163,16,16v112H384v-96C384,206.327,398.327,192,416,192z"/>
	</g>
	<g>
		<path class="st5" d="M48,320h448v32H32v-16C32,327.163,39.163,320,48,320z"/>
	</g>
	<g>
		<path class="st4" d="M48,320h192c8.837,0,16,7.163,16,16v16H32v-16C32,327.163,39.163,320,48,320z"/>
	</g>
	<g>
		<circle class="st2" cx="136" cy="400" r="32"/>
	</g>
	<g>
		<path class="st1" d="M136,416L136,416c4.418,0,8-3.582,8-8v-16c0-4.418-3.582-8-8-8h0c-4.418,0-8,3.582-8,8v16
			C128,412.418,131.582,416,136,416z"/>
	</g>
	<g>
		<path class="st3" d="M360,304H72c-4.418,0-8,3.582-8,8v8h304v-8C368,307.582,364.418,304,360,304z"/>
	</g>
	<g>
		<path class="st2" d="M104,304H72c-4.418,0-8,3.582-8,8v8h48v-8C112,307.582,108.418,304,104,304z"/>
	</g>
	<g>
		<path class="st2" d="M168,304h-32c-4.418,0-8,3.582-8,8v8h48v-8C176,307.582,172.418,304,168,304z"/>
	</g>
	<g>
		<path class="st2" d="M232,304h-32c-4.418,0-8,3.582-8,8v8h48v-8C240,307.582,236.418,304,232,304z"/>
	</g>
	<g>
		<path class="st2" d="M280,304h-16c4.418,0,8,3.582,8,8v8h16v-8C288,307.582,284.418,304,280,304z"/>
	</g>
	<g>
		<path class="st2" d="M328,304h-16c4.418,0,8,3.582,8,8v8h16v-8C336,307.582,332.418,304,328,304z"/>
	</g>
	<g>
		<path class="st1" d="M296,288h64c4.418,0,8-3.582,8-8v-48c0-4.418-3.582-8-8-8h-64c-4.418,0-8,3.582-8,8v48
			C288,284.418,291.582,288,296,288z"/>
	</g>
	<g>
		<path class="st5" d="M256,240h-80c-8.837,0-16,7.163-16,16v0c0,8.837,7.163,16,16,16h80c8.837,0,16-7.163,16-16v0
			C272,247.163,264.837,240,256,240z"/>
	</g>
	<g>
		<path class="st2" d="M256,256h-80V144c0-8.837,7.163-16,16-16h80h0c-8.837,0-16,7.163-16,16V256z"/>
	</g>
	<g>
		<path class="st5" d="M384,160h96c8.837,0,16-7.163,16-16V80c0-8.837-7.163-16-16-16h-96c-8.837,0-16,7.163-16,16v64
			C368,152.837,375.163,160,384,160z"/>
	</g>
	<g>
		<path class="st4" d="M384,160h80c8.837,0,16-7.163,16-16V80c0-8.837-7.163-16-16-16h-80c-8.837,0-16,7.163-16,16v64
			C368,152.837,375.163,160,384,160z"/>
	</g>
	<g>
		<rect x="416" y="160" class="st0" width="32" height="32"/>
	</g>
	<g>
		<path class="st1" d="M416,192h16v-12c0-2.209-1.791-4-4-4h-12V192z"/>
	</g>
	<g>
		<path class="st1" d="M456,144h-64c-4.418,0-8-3.582-8-8V88c0-4.418,3.582-8,8-8h64c4.418,0,8,3.582,8,8v48
			C464,140.418,460.418,144,456,144z"/>
	</g>
	<g>
		<path class="st3" d="M229.333,176H200c-4.418,0-8-3.582-8-8v0c0-4.418,3.582-8,8-8h29.333c4.418,0,8,3.582,8,8v0
			C237.333,172.418,233.752,176,229.333,176z"/>
	</g>
	<g>
		<path class="st3" d="M229.333,208H200c-4.418,0-8-3.582-8-8v0c0-4.418,3.582-8,8-8h29.333c4.418,0,8,3.582,8,8v0
			C237.333,204.418,233.752,208,229.333,208z"/>
	</g>
	<g>
		<path class="st3" d="M229.333,240H200c-4.418,0-8-3.582-8-8v0c0-4.418,3.582-8,8-8h29.333c4.418,0,8,3.582,8,8v0
			C237.333,236.418,233.752,240,229.333,240z"/>
	</g>
</g>
</svg>
