<?xml version="1.0" encoding="utf-8"?>
<!-- Generator: Adobe Illustrator 23.0.0, SVG Export Plug-In . SVG Version: 6.00 Build 0)  -->
<svg version="1.1" id="Layer_1" xmlns="http://www.w3.org/2000/svg" xmlns:xlink="http://www.w3.org/1999/xlink" x="0px" y="0px"
	 viewBox="0 0 512 512" style="enable-background:new 0 0 512 512;" xml:space="preserve">
<style type="text/css">
	.st0{fill:#32283C;}
	.st1{fill:#463C4B;}
	.st2{fill:#E6E6EB;}
	.st3{fill:#A5C3DC;}
	.st4{fill:#FF4646;}
	.st5{fill:#CD3232;}
	.st6{fill:#F0915A;}
	.st7{fill:#FAB991;}
	.st8{fill:#F5732D;}
	.st9{fill:#FAA037;}
	.st10{fill:#78AF41;}
	.st11{fill:#788CB4;}
	.st12{fill:#466932;}
	.st13{fill:#FBB993;}
	.st14{fill:#F1905B;}
	.st15{fill:#23192D;}
	.st16{fill:#32293C;}
	.st17{fill:#B92323;}
</style>
<g>
	<g>
		<path class="st13" d="M184,16L184,16C122.144,16,72,66.145,72,128v192h112v-32h64c26.51,0,48-21.49,48-48V128
			C296,66.145,245.856,16,184,16z"/>
	</g>
	<g>
		<path class="st5" d="M248,320H72c-26.51,0-48,21.49-48,48v128h272V368C296,341.49,274.51,320,248,320z"/>
	</g>
	<g>
		<path class="st4" d="M72,320L72,320c-26.51,0-48,21.49-48,48v128h96V368C120,341.49,98.51,320,72,320z"/>
	</g>
	<g>
		<path class="st14" d="M184,288h-80c-17.673,0-32,14.327-32,32v0h112V288z"/>
	</g>
	<g>
		<path class="st0" d="M256,16h-88C106.144,16,56,66.145,56,128v112c0,17.673,14.327,32,32,32h32c17.673,0,32-14.327,32-32v-40h0
			c17.673,0,32-14.327,32-32v-8c0-17.673,14.327-32,32-32h40c30.928,0,56-25.072,56-56l0,0C312,41.072,286.928,16,256,16z"/>
	</g>
	<g>
		<path class="st14" d="M152,160v80c-22.091,0-40-17.909-40-40C112,177.909,129.908,160,152,160z"/>
	</g>
	<g>
		<circle class="st0" cx="222.667" cy="160" r="12"/>
	</g>
	<g>
		<circle class="st0" cx="262.667" cy="160" r="12"/>
	</g>
	<g>
		<path class="st14" d="M258.667,224L258.667,224c-8.837,0-16-7.163-16-16v-34.667h0c17.673,0,32,14.327,32,32V208
			C274.667,216.837,267.503,224,258.667,224z"/>
	</g>
	<g>
		<path class="st14" d="M136,320L136,320c26.51,0,48,21.49,48,48v8c0,13.255,10.745,24,24,24h0c13.255,0,24-10.745,24-24v-8
			c0-26.51-21.49-48-48-48H136z"/>
	</g>
	<g>
		<rect x="24" y="464" class="st13" width="96" height="32"/>
	</g>
	<g>
		<path class="st14" d="M483.313,388.686c-6.248-6.249-16.379-6.248-22.627,0l-38.627,38.627c-3.022,3.022-7.041,4.687-11.314,4.687
			H408l0,0h-40c-4.418,0-8,3.582-8,8v56h32v-16c0-8.837,7.164-16,16-16h2.745c12.82,0,24.874-4.993,33.941-14.059l38.627-38.627
			C489.562,405.065,489.562,394.935,483.313,388.686z"/>
	</g>
	<g>
		<path class="st13" d="M396,392h-36c-17.673,0-32,14.327-32,32v72h32v-56c0-4.418,3.582-8,8-8h28c11.046,0,20-8.954,20-20l0,0
			C416,400.954,407.046,392,396,392z"/>
	</g>
	<g>
		<g>
			<path class="st5" d="M437.061,36.784l-17.91-2.603l-8.01-16.229c-0.643-1.302-1.893-1.953-3.142-1.953h-15.934
				c-1.25,0-2.5,0.651-3.143,1.953l-8.01,16.229l-17.91,2.603c-2.873,0.417-4.021,3.949-1.941,5.976l12.959,12.633l-3.059,17.837
				c-0.389,2.265,1.413,4.096,3.454,4.096l-0.002,0.008h15.936l0.002-0.008c0.538,0,1.092-0.121,1.629-0.403l8.051-4.233
				l8.051,4.233c0.536,0.282,1.09,0.402,1.629,0.403l0.002,0.008h15.936l-0.002-0.008c2.042,0.001,3.843-1.831,3.454-4.096
				l-3.059-17.837l12.96-12.633C441.082,40.733,439.934,37.202,437.061,36.784z"/>
			<path class="st4" d="M395.206,17.953l8.01,16.229l17.91,2.602c2.873,0.418,4.021,3.949,1.942,5.976l-12.96,12.633l3.059,17.837
				c0.491,2.862-2.513,5.044-5.083,3.693l-16.019-8.422l-16.019,8.422c-2.57,1.351-5.574-0.831-5.083-3.693l3.059-17.837
				l-12.96-12.633c-2.079-2.027-0.932-5.558,1.942-5.976l17.91-2.602l8.01-16.229C390.208,15.349,393.921,15.349,395.206,17.953z"/>
		</g>
		<g>
			<path class="st5" d="M437.061,109.784l-17.91-2.603l-8.01-16.229c-0.643-1.302-1.893-1.953-3.142-1.953h-15.934
				c-1.25,0-2.5,0.651-3.143,1.953l-8.01,16.229l-17.91,2.603c-2.873,0.417-4.021,3.949-1.941,5.976l12.959,12.633l-3.059,17.837
				c-0.389,2.265,1.413,4.096,3.454,4.096l-0.002,0.008h15.936l0.002-0.008c0.538,0,1.092-0.121,1.629-0.403l8.051-4.233
				l8.051,4.233c0.536,0.282,1.09,0.402,1.629,0.403l0.002,0.008h15.936l-0.002-0.008c2.042,0.001,3.843-1.831,3.454-4.096
				l-3.059-17.837l12.96-12.633C441.082,113.733,439.934,110.202,437.061,109.784z"/>
			<path class="st4" d="M395.206,90.953l8.01,16.229l17.91,2.602c2.873,0.418,4.021,3.949,1.942,5.976l-12.96,12.633l3.059,17.837
				c0.491,2.862-2.513,5.044-5.083,3.693l-16.019-8.422l-16.019,8.422c-2.57,1.351-5.574-0.831-5.083-3.693l3.059-17.837
				l-12.96-12.633c-2.079-2.027-0.932-5.558,1.942-5.976l17.91-2.602l8.01-16.229C390.208,88.349,393.921,88.349,395.206,90.953z"/>
		</g>
		<g>
			<path class="st5" d="M437.061,182.784l-17.91-2.603l-8.01-16.229c-0.643-1.302-1.893-1.953-3.142-1.953h-15.934
				c-1.25,0-2.5,0.651-3.143,1.953l-8.01,16.229l-17.91,2.603c-2.873,0.417-4.021,3.949-1.941,5.976l12.959,12.633l-3.059,17.837
				c-0.389,2.265,1.413,4.096,3.454,4.096l-0.002,0.008h15.936l0.002-0.008c0.538,0,1.092-0.121,1.629-0.403l8.051-4.233
				l8.051,4.233c0.536,0.282,1.09,0.402,1.629,0.403l0.002,0.008h15.936l-0.002-0.008c2.042,0.001,3.843-1.831,3.454-4.096
				l-3.059-17.837l12.96-12.633C441.082,186.733,439.934,183.202,437.061,182.784z"/>
			<path class="st4" d="M395.206,163.953l8.01,16.229l17.91,2.602c2.873,0.418,4.021,3.949,1.942,5.976l-12.96,12.633l3.059,17.837
				c0.491,2.862-2.513,5.044-5.083,3.693l-16.019-8.422l-16.019,8.422c-2.57,1.351-5.574-0.831-5.083-3.693l3.059-17.837
				l-12.96-12.633c-2.079-2.027-0.932-5.558,1.942-5.976l17.91-2.602l8.01-16.229C390.208,161.349,393.921,161.349,395.206,163.953z
				"/>
		</g>
		<g>
			<path class="st5" d="M437.061,255.784l-17.91-2.603l-8.01-16.229c-0.643-1.302-1.893-1.953-3.142-1.953h-15.934
				c-1.25,0-2.5,0.651-3.143,1.953l-8.01,16.229l-17.91,2.603c-2.873,0.417-4.021,3.949-1.941,5.976l12.959,12.633l-3.059,17.837
				c-0.389,2.265,1.413,4.096,3.454,4.096l-0.002,0.008h15.936l0.002-0.008c0.538,0,1.092-0.121,1.629-0.403l8.051-4.233
				l8.051,4.233c0.536,0.282,1.09,0.402,1.629,0.403l0.002,0.008h15.936l-0.002-0.008c2.042,0.001,3.843-1.831,3.454-4.096
				l-3.059-17.837l12.96-12.633C441.082,259.733,439.934,256.202,437.061,255.784z"/>
			<path class="st4" d="M395.206,236.953l8.01,16.229l17.91,2.602c2.873,0.418,4.021,3.949,1.942,5.976l-12.96,12.633l3.059,17.837
				c0.491,2.862-2.513,5.044-5.083,3.693l-16.019-8.422l-16.019,8.422c-2.57,1.351-5.574-0.831-5.083-3.693l3.059-17.837
				l-12.96-12.633c-2.079-2.027-0.932-5.558,1.942-5.976l17.91-2.602l8.01-16.229C390.208,234.349,393.921,234.349,395.206,236.953z
				"/>
		</g>
		<g>
			<path class="st5" d="M437.061,328.784l-17.91-2.603l-8.01-16.229c-0.643-1.302-1.893-1.953-3.142-1.953h-15.934
				c-1.25,0-2.5,0.651-3.143,1.953l-8.01,16.229l-17.91,2.603c-2.873,0.417-4.021,3.949-1.941,5.976l12.959,12.633l-3.059,17.837
				c-0.389,2.265,1.413,4.096,3.454,4.096l-0.002,0.008h15.936l0.002-0.008c0.538,0,1.092-0.121,1.629-0.403l8.051-4.233
				l8.051,4.233c0.536,0.282,1.09,0.402,1.629,0.403l0.002,0.008h15.936l-0.002-0.008c2.042,0.001,3.843-1.831,3.454-4.096
				l-3.059-17.837l12.96-12.633C441.082,332.733,439.934,329.202,437.061,328.784z"/>
			<path class="st4" d="M395.206,309.953l8.01,16.229l17.91,2.602c2.873,0.418,4.021,3.949,1.942,5.976l-12.96,12.633l3.059,17.837
				c0.491,2.862-2.513,5.044-5.083,3.693l-16.019-8.422l-16.019,8.422c-2.57,1.351-5.574-0.831-5.083-3.693l3.059-17.837
				l-12.96-12.633c-2.079-2.027-0.932-5.558,1.942-5.976l17.91-2.602l8.01-16.229C390.208,307.349,393.921,307.349,395.206,309.953z
				"/>
		</g>
	</g>
</g>
</svg>
