<?xml version="1.0" encoding="utf-8"?>
<!-- Generator: Adobe Illustrator 23.0.0, SVG Export Plug-In . SVG Version: 6.00 Build 0)  -->
<svg version="1.1" id="Layer_1" xmlns="http://www.w3.org/2000/svg" xmlns:xlink="http://www.w3.org/1999/xlink" x="0px" y="0px"
	 viewBox="0 0 512 512" style="enable-background:new 0 0 512 512;" xml:space="preserve">
<style type="text/css">
	.st0{fill:#32283C;}
	.st1{fill:#463C4B;}
	.st2{fill:#E6E6EB;}
	.st3{fill:#A5C3DC;}
	.st4{fill:#FF4646;}
	.st5{fill:#CD3232;}
	.st6{fill:#F0915A;}
	.st7{fill:#FAB991;}
	.st8{fill:#F5732D;}
	.st9{fill:#FAA037;}
	.st10{fill:#78AF41;}
	.st11{fill:#788CB4;}
	.st12{fill:#466932;}
	.st13{fill:#FBB993;}
	.st14{fill:#F1905B;}
	.st15{fill:#23192D;}
	.st16{fill:#32293C;}
	.st17{fill:#B92323;}
</style>
<g>
	<g>
		<path class="st0" d="M272,60.457h-16c-13.255,0-24,10.745-24,24v0c0,13.255,10.745,24,24,24h16c13.255,0,24-10.745,24-24v0
			C296,71.202,285.255,60.457,272,60.457z"/>
	</g>
	<g>
		<path class="st1" d="M96,228.457c-17.645,0-32-14.355-32-32s14.355-32,32-32s32,14.355,32,32S113.645,228.457,96,228.457z
			 M96,180.457c-8.822,0-16,7.178-16,16s7.178,16,16,16s16-7.178,16-16S104.822,180.457,96,180.457z"/>
	</g>
	<g>
		<path class="st1" d="M416,228.457c-17.645,0-32-14.355-32-32s14.355-32,32-32s32,14.355,32,32S433.645,228.457,416,228.457z
			 M416,180.457c-8.822,0-16,7.178-16,16s7.178,16,16,16s16-7.178,16-16S424.822,180.457,416,180.457z"/>
	</g>
	<g>
		<path class="st0" d="M464,468.457H48c-17.673,0-32-14.327-32-32v-192c0-17.673,14.327-32,32-32h416c17.673,0,32,14.327,32,32v192
			C496,454.13,481.673,468.457,464,468.457z"/>
	</g>
	<g>
		<path class="st1" d="M432,468.457H48c-17.673,0-32-14.327-32-32v-192c0-17.673,14.327-32,32-32h384c17.673,0,32,14.327,32,32v192
			C464,454.13,449.673,468.457,432,468.457z"/>
	</g>
	<g>
		<path class="st2" d="M424,436.457H56c-4.418,0-8-3.582-8-8v-176c0-4.418,3.582-8,8-8h368c4.418,0,8,3.582,8,8v176
			C432,432.875,428.418,436.457,424,436.457z"/>
	</g>
	<g>
		<path class="st4" d="M120,268.457c-17.645,0-32,14.355-32,32v80c0,17.645,14.355,32,32,32s32-14.355,32-32v-80
			C152,282.812,137.645,268.457,120,268.457z M136,380.457c0,8.822-7.178,16-16,16s-16-7.178-16-16v-80c0-8.822,7.178-16,16-16
			s16,7.178,16,16V380.457z"/>
		<path class="st4" d="M202.667,268.457h-24c-4.418,0-8,3.582-8,8v128c0,4.418,3.582,8,8,8s8-3.582,8-8v-56.319h16
			c17.645,0,32-14.355,32-32v-15.681C234.667,282.812,220.312,268.457,202.667,268.457z M218.667,316.138c0,8.822-7.178,16-16,16
			h-16v-47.681h16c8.822,0,16,7.178,16,16V316.138z"/>
		<path class="st4" d="M282.667,284.457h24c4.418,0,8-3.582,8-8s-3.582-8-8-8h-24c-17.645,0-32,14.355-32,32v80
			c0,17.645,14.355,32,32,32h24c4.418,0,8-3.582,8-8s-3.582-8-8-8h-24c-8.822,0-16-7.178-16-16v-32h24c4.418,0,8-3.582,8-8
			s-3.582-8-8-8h-24v-32C266.667,291.635,273.845,284.457,282.667,284.457z"/>
		<path class="st4" d="M384,268.457c-4.418,0-8,3.582-8,8v83.883l-32.51-86.692c-1.357-3.622-5.108-5.749-8.918-5.063
			c-3.806,0.69-6.572,4.004-6.572,7.872v128c0,4.418,3.582,8,8,8s8-3.582,8-8v-83.883l32.51,86.692
			c1.187,3.165,4.204,5.192,7.485,5.192c0.474,0,0.952-0.042,1.433-0.129c3.806-0.69,6.572-4.004,6.572-7.872v-128
			C392,272.038,388.418,268.457,384,268.457z"/>
	</g>
	<g>
		<path class="st4" d="M410.667,200.037c-2.281,0-4.563-0.871-6.303-2.611L277.011,70.073c-5.612-5.612-13.074-8.703-21.011-8.703
			s-15.398,3.091-21.011,8.703L107.636,197.426c-3.48,3.48-9.125,3.481-12.605,0c-3.48-3.481-3.48-9.125,0-12.605L222.384,57.468
			c8.979-8.979,20.918-13.924,33.616-13.924s24.637,4.945,33.616,13.924L416.97,184.821c3.48,3.481,3.48,9.125,0,12.605
			C415.229,199.166,412.948,200.037,410.667,200.037z"/>
	</g>
	<g>
		<circle class="st1" cx="256" cy="84.457" r="24"/>
	</g>
</g>
</svg>
