<?xml version="1.0" encoding="utf-8"?>
<!-- Generator: Adobe Illustrator 23.0.0, SVG Export Plug-In . SVG Version: 6.00 Build 0)  -->
<svg version="1.1" id="Layer_1" xmlns="http://www.w3.org/2000/svg" xmlns:xlink="http://www.w3.org/1999/xlink" x="0px" y="0px"
	 viewBox="0 0 512 512" style="enable-background:new 0 0 512 512;" xml:space="preserve">
<style type="text/css">
	.st0{fill:#32283C;}
	.st1{fill:#463C4B;}
	.st2{fill:#E6E6EB;}
	.st3{fill:#A5C3DC;}
	.st4{fill:#FF4646;}
	.st5{fill:#CD3232;}
	.st6{fill:#F0915A;}
	.st7{fill:#FAB991;}
	.st8{fill:#F5732D;}
	.st9{fill:#FAA037;}
	.st10{fill:#78AF41;}
	.st11{fill:#788CB4;}
	.st12{fill:#466932;}
	.st13{fill:#FBB993;}
	.st14{fill:#F1905B;}
	.st15{fill:#23192D;}
	.st16{fill:#32293C;}
	.st17{fill:#B92323;}
</style>
<g>
	<path class="st6" d="M228,128l-86.627,86.627c-6.001,6.001-9.373,14.141-9.373,22.627V448h128v-32c26.51,0,48-21.49,48-48V128H228z
		"/>
	<g>
		<path class="st12" d="M388,368H188c-8.837,0-16-7.163-16-16V32c0-8.837,7.163-16,16-16h200c8.837,0,16,7.163,16,16v320
			C404,360.837,396.837,368,388,368z"/>
	</g>
	<g>
		<path class="st10" d="M356,368H188c-8.837,0-16-7.163-16-16V32c0-8.837,7.163-16,16-16h168c8.837,0,16,7.163,16,16v320
			C372,360.837,364.837,368,356,368z"/>
	</g>
	<g>
		<path class="st12" d="M316,40h-88c-4.418,0-8,3.582-8,8v0c0,8.837-7.163,16-16,16h0c-4.418,0-8,3.582-8,8v240c0,4.418,3.582,8,8,8
			h0c8.837,0,16,7.163,16,16v0c0,4.418,3.582,8,8,8h88c4.418,0,8-3.582,8-8v0c0-8.837,7.163-16,16-16h0c4.418,0,8-3.582,8-8V72
			c0-4.418-3.582-8-8-8h0c-8.837,0-16-7.163-16-16v0C324,43.582,320.418,40,316,40z"/>
	</g>
	<g>
		<circle class="st10" cx="272" cy="192" r="60"/>
	</g>
	<g>
		<rect x="372" y="160" transform="matrix(-1 -1.224647e-16 1.224647e-16 -1 776 384)" class="st5" width="32" height="64"/>
	</g>
	<g>
		<rect x="172" y="160" class="st4" width="200" height="64"/>
	</g>
	<g>
		<path class="st7" d="M141.373,278.627l75.314-75.314c6.248-6.248,16.379-6.248,22.627,0l2.745,2.745
			c18.745,18.745,18.745,49.137,0,67.882L212,304v64c0,26.51-21.49,48-48,48h-32V301.255
			C132,292.768,135.371,284.629,141.373,278.627z"/>
	</g>
	<g>
		<path class="st6" d="M214.667,205.333L214.667,205.333c9.573,9.573,9.573,25.094,0,34.667l0,0c-2.209,2.209-5.791,2.209-8,0
			l-13.333-13.333L214.667,205.333z"/>
	</g>
	<g>
		<path class="st1" d="M284,496H108v-24c0-13.255,10.745-24,24-24h128c13.255,0,24,10.745,24,24V496z"/>
	</g>
	<g>
		<path class="st0" d="M212,472h72v24h-88v-8C196,479.163,203.163,472,212,472z"/>
	</g>
</g>
</svg>
