<?xml version="1.0" encoding="utf-8"?>
<!-- Generator: Adobe Illustrator 23.0.0, SVG Export Plug-In . SVG Version: 6.00 Build 0)  -->
<svg version="1.1" id="Layer_1" xmlns="http://www.w3.org/2000/svg" xmlns:xlink="http://www.w3.org/1999/xlink" x="0px" y="0px"
	 viewBox="0 0 512 512" style="enable-background:new 0 0 512 512;" xml:space="preserve">
<style type="text/css">
	.st0{fill:#32283C;}
	.st1{fill:#463C4B;}
	.st2{fill:#E6E6EB;}
	.st3{fill:#A5C3DC;}
	.st4{fill:#FF4646;}
	.st5{fill:#CD3232;}
	.st6{fill:#F0915A;}
	.st7{fill:#FAB991;}
	.st8{fill:#F5732D;}
	.st9{fill:#FAA037;}
	.st10{fill:#78AF41;}
	.st11{fill:#788CB4;}
	.st12{fill:#466932;}
	.st13{fill:#FBB993;}
	.st14{fill:#F1905B;}
	.st15{fill:#23192D;}
	.st16{fill:#32293C;}
	.st17{fill:#B92323;}
</style>
<g>
	<g>
		<g>
			<path class="st7" d="M280,376.002h-68.118c-12.73,0-24.939,5.057-33.941,14.059L160,408.002l40,40l19.314-19.314
				c3.001-3.001,7.07-4.686,11.314-4.686H280c13.255,0,24-10.745,24-24v0C304,386.747,293.255,376.002,280,376.002z"/>
		</g>
		<g>
			<path class="st6" d="M395.313,364.688c-6.248-6.249-16.379-6.249-22.627,0l-59.314,59.314h-82.745
				c-4.243,0-8.313,1.686-11.314,4.686L200,448.002l24,24l16-16h76.687c6.411,0,12.438-2.497,16.97-7.03l61.657-61.657
				C401.562,381.067,401.562,370.937,395.313,364.688z"/>
		</g>
		<g>
			<path class="st6" d="M280,413.335h-5.333c-4.418,0-8-3.582-8-8v-10.667c0-4.418,3.582-8,8-8H280
				c7.364,0,13.333,5.97,13.333,13.333v0C293.333,407.366,287.364,413.335,280,413.335z"/>
		</g>
		<g>
			<path class="st1" d="M157.657,405.659L200,448.002l-40,40H64l82.343-82.343C149.467,402.535,154.533,402.535,157.657,405.659z"/>
		</g>
		<g>
			<path class="st0" d="M200,448.002l26.343,26.343c3.124,3.124,3.124,8.19,0,11.314L224,488.002h-64L200,448.002z"/>
		</g>
	</g>
	<g>
		<g>
			<g>
				<path class="st0" d="M362.667,176.006c-6.581,0-12.746-4.09-15.076-10.644l-38.884-109.36H160c-8.836,0-16-7.164-16-16
					s7.164-16,16-16h160c6.77,0,12.808,4.261,15.076,10.64l42.666,120c2.96,8.326-1.389,17.476-9.715,20.436
					C366.255,175.707,364.445,176.006,362.667,176.006z"/>
			</g>
			<g>
				<path class="st5" d="M40,184.002l29.201,134.776c3.189,14.72,16.212,25.224,31.274,25.224h279.048
					c15.062,0,28.085-10.504,31.274-25.224L440,184.002H40z"/>
			</g>
			<g>
				<path class="st4" d="M40,184.002l29.201,134.776c3.189,14.72,16.212,25.224,31.274,25.224h167.048
					c15.062,0,28.085-10.504,31.274-25.224L328,184.002H40z"/>
			</g>
			<g>
				<path class="st5" d="M456,184.002H24c-4.418,0-8-3.582-8-8v-32c0-4.418,3.582-8,8-8h432c4.418,0,8,3.582,8,8v32
					C464,180.42,460.418,184.002,456,184.002z"/>
			</g>
			<g>
				<polygon class="st5" points="321.067,216.002 328,184.002 40,184.002 46.933,216.002 				"/>
			</g>
			<g>
				<path class="st4" d="M344,184.002H24c-4.418,0-8-3.582-8-8v-32c0-4.418,3.582-8,8-8h320c4.418,0,8,3.582,8,8v32
					C352,180.42,348.418,184.002,344,184.002z"/>
			</g>
			<g>
				<path class="st1" d="M117.333,176.006c-1.779,0-3.587-0.299-5.36-0.929c-8.326-2.96-12.675-12.11-9.715-20.436l42.667-120
					c2.961-8.326,12.11-12.674,20.436-9.715c8.326,2.96,12.675,12.11,9.715,20.436l-42.666,120
					C130.079,171.916,123.913,176.006,117.333,176.006z"/>
			</g>
			<g>
				<path class="st1" d="M250.667,176.006c-6.581,0-12.746-4.09-15.076-10.644l-42.666-120c-2.96-8.326,1.389-17.476,9.715-20.436
					c8.328-2.957,17.476,1.39,20.436,9.715l42.667,120c2.96,8.326-1.39,17.476-9.715,20.436
					C254.255,175.707,252.445,176.006,250.667,176.006z"/>
			</g>
		</g>
		<g>
			<g>
				<g>
					<path class="st2" d="M256,248.002h-16c-4.418,0-8-3.582-8-8v-16c0-4.418,3.582-8,8-8h16c4.418,0,8,3.582,8,8v16
						C264,244.42,260.418,248.002,256,248.002z"/>
				</g>
				<g>
					<path class="st2" d="M192,248.002h-16c-4.418,0-8-3.582-8-8v-16c0-4.418,3.582-8,8-8h16c4.418,0,8,3.582,8,8v16
						C200,244.42,196.418,248.002,192,248.002z"/>
				</g>
				<g>
					<path class="st2" d="M128,248.002h-16c-4.418,0-8-3.582-8-8v-16c0-4.418,3.582-8,8-8h16c4.418,0,8,3.582,8,8v16
						C136,244.42,132.418,248.002,128,248.002z"/>
				</g>
			</g>
			<g>
				<g>
					<path class="st2" d="M256,312.002h-16c-4.418,0-8-3.582-8-8v-16c0-4.418,3.582-8,8-8h16c4.418,0,8,3.582,8,8v16
						C264,308.42,260.418,312.002,256,312.002z"/>
				</g>
				<g>
					<path class="st2" d="M192,312.002h-16c-4.418,0-8-3.582-8-8v-16c0-4.418,3.582-8,8-8h16c4.418,0,8,3.582,8,8v16
						C200,308.42,196.418,312.002,192,312.002z"/>
				</g>
				<g>
					<path class="st2" d="M128,312.002h-16c-4.418,0-8-3.582-8-8v-16c0-4.418,3.582-8,8-8h16c4.418,0,8,3.582,8,8v16
						C136,308.42,132.418,312.002,128,312.002z"/>
				</g>
			</g>
		</g>
	</g>
	<g>
		<g>
			<path class="st8" d="M490.794,233.928l-39.513-46.099c-2.082-2.429-5.122-3.827-8.321-3.827h-32l0,0
				c-6.053,0-10.959,4.907-10.959,10.959v10.374h-48c-8.837,0-16,7.163-16,16v53.333c0,8.837,7.163,16,16,16h48v10.374
				c0,6.053,4.907,10.959,10.959,10.959l0,0h32c3.2,0,6.239-1.398,8.321-3.827l39.513-46.099c3.36-3.92,5.206-8.912,5.206-14.074
				C496,242.839,494.153,237.848,490.794,233.928z"/>
		</g>
		<g>
			<path class="st9" d="M458.794,233.928l-39.513-46.099c-2.082-2.429-5.122-3.827-8.321-3.827c-6.053,0-10.959,4.907-10.959,10.959
				v10.374h-48c-8.837,0-16,7.163-16,16v53.333c0,8.837,7.163,16,16,16h48v10.374c0,6.053,4.907,10.959,10.959,10.959
				c3.199,0,6.239-1.398,8.321-3.827l39.513-46.099c3.36-3.92,5.206-8.912,5.206-14.074
				C464,242.839,462.153,237.848,458.794,233.928z"/>
		</g>
	</g>
</g>
</svg>
