<?xml version="1.0" encoding="utf-8"?>
<!-- Generator: Adobe Illustrator 23.0.0, SVG Export Plug-In . SVG Version: 6.00 Build 0)  -->
<svg version="1.1" id="Layer_1" xmlns="http://www.w3.org/2000/svg" xmlns:xlink="http://www.w3.org/1999/xlink" x="0px" y="0px"
	 viewBox="0 0 512 512" style="enable-background:new 0 0 512 512;" xml:space="preserve">
<style type="text/css">
	.st0{fill:#323232;}
	.st1{fill:#646464;}
	.st2{fill:#464646;}
	.st3{fill:#FAA51E;}
	.st4{fill:#5A6E82;}
	.st5{fill:#788C9B;}
	.st6{fill:#AAC3D7;}
	.st7{fill:#7DC8AA;}
	.st8{fill:#147864;}
	.st9{fill:#329682;}
	.st10{fill:#FFFFFF;}
	.st11{fill:#9B5FAA;}
	.st12{fill:#463C4B;}
	.st13{fill:#32283C;}
	.st14{fill:#D76E28;}
	.st15{fill:#784687;}
	.st16{fill:#F0915A;}
	.st17{fill:#FAB991;}
	.st18{fill:#D7E6F0;}
	.st19{fill:#82AA41;}
	.st20{fill:#4B8C41;}
	.st21{fill:#A5CD3C;}
	.st22{fill:#FAD241;}
	.st23{fill:#AA5A28;}
	.st24{fill:#F04B37;}
	.st25{fill:#6EA5D7;}
	.st26{fill:#8CAAC8;}
	.st27{fill:#F0697D;}
	.st28{fill:#5A5A6E;}
	.st29{fill:#647DBE;}
	.st30{fill:#2D6E23;}
	.st31{fill:#F58CAA;}
	.st32{fill:#B98C3C;}
	.st33{fill:#C3A050;}
	.st34{fill:#D2C36E;}
	.st35{fill:#64412D;}
	.st36{fill:#DC7846;}
	.st37{fill:#96461E;}
	.st38{fill:#F06423;}
	.st39{fill:#E6AAFA;}
	.st40{fill:#BE82D2;}
	.st41{fill:#FAA037;}
	.st42{fill:#D73228;}
	.st43{fill:#BE281E;}
	.st44{fill:#5064A0;}
	.st45{fill:#8C1E14;}
	.st46{fill:#F5732D;}
	.st47{fill:#FAD7A0;}
	.st48{fill:#964628;}
	.st49{fill:#D24614;}
	.st50{fill:#F5D7A5;}
	.st51{fill:#F58723;}
	.st52{fill:#E65A78;}
	.st53{fill:#643773;}
	.st54{fill:#9B64AA;}
	.st55{fill:#555555;}
	.st56{fill:#FAD2B4;}
</style>
<g>
	<g>
		<path class="st24" d="M395.704,336h-32c-17.673,0-32-14.327-32-32s14.327-32,32-32h32c17.673,0,32,14.327,32,32
			S413.377,336,395.704,336z"/>
	</g>
	<g>
		<path class="st43" d="M155.704,176c0-4.418-3.582-8-8-8h-48c-4.418,0-8,3.582-8,8v72c0,17.673,14.327,32,32,32h32V176z"/>
	</g>
	<g>
		<path class="st17" d="M91.704,88h32c8.837,0,16,7.163,16,16v0h-48c-4.418,0-8-3.582-8-8v0C83.704,91.582,87.286,88,91.704,88z"/>
	</g>
	<g>
		<path class="st16" d="M91.704,104v32c0,8.836,7.163,16,16,16v16h32v-64H91.704z"/>
	</g>
	<g>
		<path class="st17" d="M131.704,120h-20c-2.209,0-4,1.791-4,4v0c0,6.627,5.373,12,12,12h4c0,8.837,7.164,16,16,16v-24
			C139.704,123.582,136.122,120,131.704,120z"/>
	</g>
	<g>
		<path class="st42" d="M355.704,320h-192c-4.418,0-8-3.582-8-8v-96c0-13.255,10.745-24,24-24h184v120
			C363.704,316.418,360.122,320,355.704,320z"/>
	</g>
	<g>
		<path class="st17" d="M259.704,224h-32c-17.673,0-32-14.327-32-32v-64c0-17.673,14.327-32,32-32h32c17.673,0,32,14.327,32,32v64
			C291.704,209.673,277.377,224,259.704,224z"/>
	</g>
	<g>
		<g>
			<path class="st18" d="M331.704,144v48c0,17.67-14.33,32-32,32h-24c0,35.35-28.65,64-64,64h-32c-8.84,0-16-7.16-16-16
				c0-8.84,7.16-16,16-16v-64c0-8.84,7.16-16,16-16h80v-32H331.704z"/>
		</g>
	</g>
	<g>
		<path class="st24" d="M331.704,144h-144c-4.418,0-8-3.582-8-8v-8c0-4.418,3.582-8,8-8h144c4.418,0,8,3.582,8,8v8
			C339.704,140.418,336.122,144,331.704,144z"/>
	</g>
	<g>
		<path class="st17" d="M223.704,200h-24c-2.209,0-4-1.791-4-4l0,0c0-2.209,1.791-4,4-4h24c2.209,0,4,1.791,4,4l0,0
			C227.704,198.209,225.913,200,223.704,200z"/>
	</g>
	<g>
		<path class="st2" d="M355.704,352h-192c-4.418,0-8-3.582-8-8v-16c0-4.418,3.582-8,8-8h192c4.418,0,8,3.582,8,8v16
			C363.704,348.418,360.122,352,355.704,352z"/>
	</g>
	<g>
		<path class="st42" d="M355.704,384h-192c-4.418,0-8-3.582-8-8v-16c0-4.418,3.582-8,8-8h192c4.418,0,8,3.582,8,8v16
			C363.704,380.418,360.122,384,355.704,384z"/>
	</g>
	<g>
		<rect x="203.704" y="320" class="st46" width="32" height="32"/>
	</g>
	<g>
		<rect x="259.704" y="384" class="st29" width="96" height="32"/>
	</g>
	<g>
		<rect x="163.704" y="384" class="st44" width="96" height="32"/>
	</g>
	<g>
		<path class="st0" d="M259.704,416h-96c-4.418,0-8,3.582-8,8v24c-13.255,0-24,10.745-24,24v8c0,8.836,7.163,16,16,16h104
			c8.837,0,16-7.164,16-16v-56C267.704,419.582,264.122,416,259.704,416z"/>
	</g>
	<g>
		<path class="st2" d="M355.704,416h-96c-4.418,0-8,3.582-8,8v24c-13.255,0-24,10.745-24,24v8c0,8.836,7.163,16,16,16h104
			c8.837,0,16-7.164,16-16v-56C363.704,419.582,360.122,416,355.704,416z"/>
	</g>
	<g>
		<path class="st42" d="M331.704,16h-40c-57.438,0-104,46.562-104,104l0,0h144V48c0,8.836,7.163,16,16,16s16-7.164,16-16l0,0
			C363.704,30.327,349.377,16,331.704,16z"/>
	</g>
	<g>
		<path class="st24" d="M395.714,336.008c-12.7,0-24.716-7.612-29.721-20.124l-32-80c-6.563-16.409,1.418-35.032,17.827-41.596
			c16.408-6.563,35.032,1.418,41.596,17.827l32,80c6.563,16.409-1.418,35.032-17.827,41.596
			C403.692,335.27,399.669,336.008,395.714,336.008z"/>
	</g>
	<g>
		<path class="st17" d="M303.704,176h-4c-4.418,0-8-3.582-8-8v-24c0-4.418,3.582-8,8-8h4c11.046,0,20,8.954,20,20v0
			C323.704,167.046,314.75,176,303.704,176z"/>
	</g>
</g>
</svg>
