<?xml version="1.0" encoding="utf-8"?>
<!-- Generator: Adobe Illustrator 23.0.0, SVG Export Plug-In . SVG Version: 6.00 Build 0)  -->
<svg version="1.1" id="Layer_1" xmlns="http://www.w3.org/2000/svg" xmlns:xlink="http://www.w3.org/1999/xlink" x="0px" y="0px"
	 viewBox="0 0 512 512" style="enable-background:new 0 0 512 512;" xml:space="preserve">
<style type="text/css">
	.st0{fill:#323232;}
	.st1{fill:#646464;}
	.st2{fill:#464646;}
	.st3{fill:#FAA51E;}
	.st4{fill:#5A6E82;}
	.st5{fill:#788C9B;}
	.st6{fill:#AAC3D7;}
	.st7{fill:#7DC8AA;}
	.st8{fill:#147864;}
	.st9{fill:#329682;}
	.st10{fill:#FFFFFF;}
	.st11{fill:#9B5FAA;}
	.st12{fill:#463C4B;}
	.st13{fill:#32283C;}
	.st14{fill:#D76E28;}
	.st15{fill:#784687;}
	.st16{fill:#F0915A;}
	.st17{fill:#FAB991;}
	.st18{fill:#D7E6F0;}
	.st19{fill:#82AA41;}
	.st20{fill:#4B8C41;}
	.st21{fill:#A5CD3C;}
	.st22{fill:#FAD241;}
	.st23{fill:#AA5A28;}
	.st24{fill:#F04B37;}
	.st25{fill:#6EA5D7;}
	.st26{fill:#8CAAC8;}
	.st27{fill:#F0697D;}
	.st28{fill:#5A5A6E;}
	.st29{fill:#647DBE;}
	.st30{fill:#2D6E23;}
	.st31{fill:#F58CAA;}
	.st32{fill:#B98C3C;}
	.st33{fill:#C3A050;}
	.st34{fill:#D2C36E;}
	.st35{fill:#64412D;}
	.st36{fill:#DC7846;}
	.st37{fill:#96461E;}
	.st38{fill:#F06423;}
	.st39{fill:#E6AAFA;}
	.st40{fill:#BE82D2;}
	.st41{fill:#FAA037;}
	.st42{fill:#D73228;}
	.st43{fill:#BE281E;}
	.st44{fill:#5064A0;}
	.st45{fill:#8C1E14;}
	.st46{fill:#F5732D;}
	.st47{fill:#FAD7A0;}
	.st48{fill:#964628;}
	.st49{fill:#D24614;}
	.st50{fill:#F5D7A5;}
	.st51{fill:#F58723;}
	.st52{fill:#E65A78;}
	.st53{fill:#643773;}
	.st54{fill:#9B64AA;}
	.st55{fill:#555555;}
	.st56{fill:#FAD2B4;}
</style>
<g>
	<g>
		
			<rect x="118.705" y="241.365" transform="matrix(0.7071 -0.7071 0.7071 0.7071 -116.5565 246.592)" class="st0" width="241.359" height="45.255"/>
	</g>
	<g>
		
			<rect x="110.705" y="244.678" transform="matrix(0.7071 -0.7071 0.7071 0.7071 -113.2428 238.592)" class="st2" width="241.359" height="22.627"/>
	</g>
	<g>
		<polygon class="st1" points="170.051,333.326 202.051,301.326 202.051,269.326 170.051,301.326 		"/>
	</g>
	<g>
		<polygon class="st1" points="234.051,269.326 266.051,237.325 266.051,205.325 234.051,237.325 		"/>
	</g>
	<g>
		<polygon class="st2" points="170.051,365.326 202.051,333.326 202.051,301.326 170.051,333.326 		"/>
	</g>
	<g>
		<polygon class="st2" points="234.051,301.326 266.051,269.326 266.051,237.325 234.051,269.326 		"/>
	</g>
	<g>
		<path class="st31" d="M39.708,415.669l84.686-84.686c3.124-3.124,8.19-3.124,11.314,0l36.686,36.686
			c3.124,3.124,3.124,8.19,0,11.314l-84.686,84.686c-3.124,3.124-8.19,3.124-11.314,0l-36.686-36.686
			C36.584,423.858,36.584,418.793,39.708,415.669z"/>
	</g>
	<g>
		<path class="st27" d="M58.051,445.326l96-96l18.343,18.343c3.124,3.124,3.124,8.19,0,11.314l-84.686,84.686
			c-3.124,3.124-8.19,3.124-11.314,0L58.051,445.326z"/>
	</g>
	<g>
		<path class="st41" d="M429.76,85.709l-22.569,66.553l42.03,56.322c4.727,6.334,0.139,15.338-7.764,15.237l-70.27-0.898
			l-40.577,57.378c-4.563,6.452-14.544,4.872-16.89-2.675l-20.861-67.109l-67.109-20.86c-7.547-2.346-9.128-12.327-2.675-16.89
			l57.378-40.577l-0.898-70.27c-0.101-7.902,8.903-12.49,15.237-7.764l56.322,42.03l66.553-22.569
			C425.152,71.079,432.298,78.225,429.76,85.709z"/>
	</g>
	<g>
		<path class="st22" d="M397.26,113.803l-14.346,42.305l26.717,35.801c3.004,4.026,0.088,9.75-4.935,9.685l-44.667-0.571
			l-25.793,36.472c-2.901,4.102-9.245,3.097-10.736-1.7l-13.26-42.657l-42.657-13.26c-4.797-1.491-5.802-7.836-1.7-10.736
			l36.472-25.793l-0.571-44.667c-0.064-5.023,5.659-7.939,9.685-4.935l35.801,26.717l42.305-14.346
			C394.331,104.504,398.873,109.046,397.26,113.803z"/>
	</g>
	<g>
		<g>
			<path class="st3" d="M218.051,61.325h-16v-16c0-4.418,3.582-8,8-8h0c4.418,0,8,3.582,8,8V61.325z"/>
		</g>
		<g>
			<path class="st3" d="M210.051,101.325L210.051,101.325c-4.418,0-8-3.582-8-8v-16h16v16
				C218.051,97.744,214.47,101.325,210.051,101.325z"/>
		</g>
		<g>
			<path class="st3" d="M202.051,61.325v16h-16c-4.418,0-8-3.582-8-8v0c0-4.418,3.582-8,8-8H202.051z"/>
		</g>
		<g>
			<path class="st3" d="M242.051,69.325L242.051,69.325c0,4.418-3.582,8-8,8h-16v-16h16
				C238.47,61.325,242.051,64.907,242.051,69.325z"/>
		</g>
	</g>
	<g>
		<g>
			<path class="st3" d="M450.051,285.326h-16v-16c0-4.418,3.582-8,8-8h0c4.418,0,8,3.582,8,8V285.326z"/>
		</g>
		<g>
			<path class="st3" d="M442.051,325.326L442.051,325.326c-4.418,0-8-3.582-8-8v-16h16v16
				C450.051,321.744,446.47,325.326,442.051,325.326z"/>
		</g>
		<g>
			<path class="st3" d="M434.051,285.326v16h-16c-4.418,0-8-3.582-8-8v0c0-4.418,3.582-8,8-8H434.051z"/>
		</g>
		<g>
			<path class="st3" d="M474.051,293.325L474.051,293.325c0,4.418-3.582,8-8,8h-16v-16h16
				C470.47,285.326,474.051,288.907,474.051,293.325z"/>
		</g>
	</g>
	<g>
		<g>
			<path class="st3" d="M298.051,349.326h-16v-16c0-4.418,3.582-8,8-8h0c4.418,0,8,3.582,8,8V349.326z"/>
		</g>
		<g>
			<path class="st3" d="M290.051,389.326L290.051,389.326c-4.418,0-8-3.582-8-8v-16h16v16
				C298.051,385.744,294.47,389.326,290.051,389.326z"/>
		</g>
		<g>
			<path class="st3" d="M282.051,349.326v16h-16c-4.418,0-8-3.582-8-8v0c0-4.418,3.582-8,8-8H282.051z"/>
		</g>
		<g>
			<path class="st3" d="M322.051,357.325L322.051,357.325c0,4.418-3.582,8-8,8h-16v-16h16
				C318.47,349.326,322.051,352.907,322.051,357.325z"/>
		</g>
	</g>
</g>
</svg>
