<?xml version="1.0" encoding="utf-8"?>
<!-- Generator: Adobe Illustrator 23.0.0, SVG Export Plug-In . SVG Version: 6.00 Build 0)  -->
<svg version="1.1" id="Layer_1" xmlns="http://www.w3.org/2000/svg" xmlns:xlink="http://www.w3.org/1999/xlink" x="0px" y="0px"
	 viewBox="0 0 512 512" style="enable-background:new 0 0 512 512;" xml:space="preserve">
<style type="text/css">
	.st0{fill:#323232;}
	.st1{fill:#646464;}
	.st2{fill:#464646;}
	.st3{fill:#FAA51E;}
	.st4{fill:#5A6E82;}
	.st5{fill:#788C9B;}
	.st6{fill:#AAC3D7;}
	.st7{fill:#7DC8AA;}
	.st8{fill:#147864;}
	.st9{fill:#329682;}
	.st10{fill:#FFFFFF;}
	.st11{fill:#9B5FAA;}
	.st12{fill:#463C4B;}
	.st13{fill:#32283C;}
	.st14{fill:#D76E28;}
	.st15{fill:#784687;}
	.st16{fill:#F0915A;}
	.st17{fill:#FAB991;}
	.st18{fill:#D7E6F0;}
	.st19{fill:#82AA41;}
	.st20{fill:#4B8C41;}
	.st21{fill:#A5CD3C;}
	.st22{fill:#FAD241;}
	.st23{fill:#AA5A28;}
	.st24{fill:#F04B37;}
	.st25{fill:#6EA5D7;}
	.st26{fill:#8CAAC8;}
	.st27{fill:#F0697D;}
	.st28{fill:#5A5A6E;}
	.st29{fill:#647DBE;}
	.st30{fill:#2D6E23;}
	.st31{fill:#F58CAA;}
	.st32{fill:#B98C3C;}
	.st33{fill:#C3A050;}
	.st34{fill:#D2C36E;}
	.st35{fill:#64412D;}
	.st36{fill:#DC7846;}
	.st37{fill:#96461E;}
	.st38{fill:#F06423;}
	.st39{fill:#E6AAFA;}
	.st40{fill:#BE82D2;}
	.st41{fill:#FAA037;}
	.st42{fill:#D73228;}
	.st43{fill:#BE281E;}
	.st44{fill:#5064A0;}
	.st45{fill:#8C1E14;}
	.st46{fill:#F5732D;}
	.st47{fill:#FAD7A0;}
	.st48{fill:#964628;}
	.st49{fill:#D24614;}
	.st50{fill:#F5D7A5;}
	.st51{fill:#F58723;}
	.st52{fill:#E65A78;}
	.st53{fill:#643773;}
	.st54{fill:#9B64AA;}
	.st55{fill:#555555;}
	.st56{fill:#FAD2B4;}
</style>
<g>
	<g>
		<rect x="184.241" y="247.467" class="st19" width="32" height="32"/>
	</g>
	<g>
		<path class="st30" d="M184.241,79.467v-8l-2.343,2.343c-3.622,3.622-5.657,8.535-5.657,13.657s2.035,10.035,5.657,13.657
			l2.343,2.343l-2.343,2.343c-3.622,3.622-5.657,8.535-5.657,13.657s2.035,10.035,5.657,13.657l2.343,2.343l-2.343,2.343
			c-3.622,3.622-5.657,8.535-5.657,13.657s2.035,10.035,5.657,13.657l2.343,2.343v32c0,8.836,7.163,16,16,16h26.667v-136H184.241z"
			/>
	</g>
	<g>
		<path class="st19" d="M184.241,263.467h-24c-2.122,0-4.157-0.843-5.657-2.343l-8-8c-3.125-3.125-3.125-8.189,0-11.314
			c3.124-3.123,8.189-3.123,11.313,0l5.657,5.657h20.687c4.418,0,8,3.582,8,8C192.241,259.885,188.66,263.467,184.241,263.467z"/>
	</g>
	<g>
		<circle class="st29" cx="152.241" cy="210.133" r="56"/>
	</g>
	<g>
		<g>
			<path class="st25" d="M188.492,167.467h-28.251c-4.418,0-8,3.582-8,8s3.582,8,8,8s8,3.582,8,8s-3.582,8-8,8s-8,3.582-8,8
				s3.582,8,8,8s8,3.582,8,8s3.582,8,8,8s8-3.582,8-8s3.582-8,8-8s8-3.582,8-8c0-4.074,3.047-7.429,6.986-7.929
				C204.782,186.777,198.01,175.561,188.492,167.467z"/>
		</g>
		<g>
			<path class="st25" d="M136.241,215.467h-18.667c-4.418,0-8-3.582-8-8s-3.582-8-8-8h-4.306c-0.666,3.454-1.027,7.018-1.027,10.667
				c0,14.346,5.4,27.425,14.271,37.333h9.729c4.418,0,8-3.582,8-8s3.582-8,8-8s8-3.582,8-8S140.66,215.467,136.241,215.467z"/>
		</g>
	</g>
	<path class="st21" d="M176.241,255.467h-16c-4.418,0-8,3.582-8,8h-12.687l-13.657-13.657c-3.124-3.123-8.189-3.123-11.313,0
		c-3.125,3.125-3.125,8.189,0,11.314l16,16c1.5,1.5,3.535,2.343,5.657,2.343h48v-16C184.241,259.048,180.66,255.467,176.241,255.467
		z"/>
	<g>
		<path class="st16" d="M256.241,407.467h-64c-12.943,0-24.611-7.796-29.564-19.754c-4.953-11.958-2.215-25.722,6.937-34.874l64-64
			c12.497-12.497,32.758-12.497,45.255,0c12.497,12.497,12.497,32.758,0,45.255l-11.398,11.398
			c12.134,4.547,20.771,16.252,20.771,29.974C288.241,393.14,273.914,407.467,256.241,407.467z"/>
	</g>
	<g>
		<path class="st19" d="M272.241,343.467h-2.745l9.372-9.372c12.497-12.497,12.497-32.759,0-45.255
			c-12.497-12.497-32.758-12.497-45.255,0l-64,64c-9.152,9.151-11.89,22.915-6.937,34.873c4.953,11.958,16.621,19.754,29.564,19.754
			h48c0,17.673,14.327,32,32,32h0c8.837,0,16-7.164,16-16v-64C288.241,350.63,281.078,343.467,272.241,343.467z"/>
	</g>
	<g>
		<path class="st20" d="M216.241,295.467v80h4.153c2.091,0,3.806-1.562,4.119-3.63c1.75-11.532,11.706-20.37,23.727-20.37
			c12.021,0,21.978,8.838,23.727,20.37c0.314,2.068,2.028,3.63,4.119,3.63h8.307c2.091,0,3.806-1.562,4.119-3.63
			c1.75-11.532,11.706-20.37,23.727-20.37s21.978,8.838,23.727,20.37c0.314,2.068,2.028,3.63,4.119,3.63l0,0
			c2.294,0,4.153-1.859,4.153-4.153v-75.847H216.241z"/>
	</g>
	<g>
		<path class="st21" d="M408.241,439.467c0-8.189-3.124-16.379-9.373-22.627l-54.627-54.627v-66.745c0-17.673-14.327-32-32-32
			s-32,14.327-32,32v80c0,8.487,3.371,16.626,9.373,22.627l41.373,41.373h-2.746c-17.673,0-32,14.327-32,32l0,0
			c0,8.836,7.163,16,16,16h80c8.837,0,16-7.164,16-16L408.241,439.467L408.241,439.467z"/>
	</g>
	<g>
		<path class="st19" d="M344.241,295.467h-128v-112c0-17.673,14.327-32,32-32h80v80.26c0,10.078-4.004,19.744-11.13,26.87
			l-4.87,4.87h0h0C329.914,263.467,344.241,277.794,344.241,295.467L344.241,295.467z"/>
	</g>
	<g>
		<path class="st20" d="M328.241,231.467h-112c-13.255,0-24-10.745-24-24v0c0-13.255,10.745-24,24-24h112V231.467z"/>
	</g>
	<g>
		<rect x="368.241" y="39.467" class="st19" width="40" height="37.333"/>
	</g>
	<g>
		<path class="st21" d="M392.241,76.8c0-8.836-7.163-16-16-16v-4c0-6.627-5.373-12-12-12l0,0c-2.209,0-4,1.791-4,4v20
			c0,4.418,3.582,8,8,8h8v58.666c0,8.836-7.163,16-16,16h-32c-8.837,0-16,7.164-16,16l0,0c0,8.836,7.163,16,16,16h32
			c26.51,0,48-21.49,48-48V76.8H392.241z"/>
	</g>
	<g>
		<path class="st21" d="M368.241,23.467h32c4.418,0,8,3.582,8,8v8h-40c-4.418,0-8-3.582-8-8v0
			C360.241,27.048,363.823,23.467,368.241,23.467z"/>
	</g>
	<g>
		<path class="st19" d="M232.241,167.467h40c8.837,0,16-7.163,16-16v-72c0-13.255-10.745-24-24-24h-40c-13.255,0-24,10.745-24,24v56
			C200.241,153.14,214.568,167.467,232.241,167.467z"/>
	</g>
	<g>
		<path class="st21" d="M248.241,167.467h-16c-17.673,0-32-14.327-32-32v-56c0-13.255,10.745-24,24-24h16c13.255,0,24,10.745,24,24
			v72C264.241,160.303,257.078,167.467,248.241,167.467z"/>
	</g>
	<g>
		<path class="st30" d="M320.241,135.467c0-5.122-2.035-10.035-5.657-13.657l-2.343-2.343l2.343-2.343
			c3.622-3.622,5.657-8.535,5.657-13.657s-2.035-10.035-5.657-13.657l-2.343-2.343c0-26.51-21.49-48-48-48h-16l-2.343-2.343
			c-3.622-3.622-8.535-5.657-13.657-5.657s-10.035,2.035-13.657,5.657l-2.343,2.343c-17.673,0-32,14.327-32,32v16
			c0,4.418,3.582,8,8,8h64v8c0,4.418,3.582,8,8,8v40l-2.343,2.343c-3.622,3.622-5.657,8.535-5.657,13.657s2.035,10.035,5.657,13.657
			l2.343,2.343l-2.343,2.343c-3.622,3.622-5.657,8.535-5.657,13.657s2.035,10.035,5.657,13.657l2.343,2.343h48l2.343-2.343
			c3.622-3.622,5.657-8.535,5.657-13.657s-2.035-10.035-5.657-13.657l-2.343-2.343l2.343-2.343
			c3.622-3.622,5.657-8.535,5.657-13.657s-2.035-10.035-5.657-13.657l-2.343-2.343l2.343-2.343
			C318.206,145.501,320.241,140.589,320.241,135.467z"/>
	</g>
	<g>
		<path class="st19" d="M272.241,135.467L272.241,135.467c-4.418,0-8-3.582-8-8v-16c0-4.418,3.582-8,8-8l0,0c8.837,0,16,7.163,16,16
			v0C288.241,128.303,281.078,135.467,272.241,135.467z"/>
	</g>
	<g>
		<rect x="186.908" y="68.8" class="st21" width="120" height="5.333"/>
	</g>
	<g>
		<g>
			<path class="st31" d="M194.908,71.467c4.418,0,8-3.582,8-8s-3.582-8-8-8s-8,3.582-8,8c0-4.418-3.582-8-8-8s-8,3.582-8,8
				s3.582,8,8,8c-4.418,0-8,3.582-8,8s3.582,8,8,8s8-3.582,8-8c0,4.418,3.582,8,8,8s8-3.582,8-8S199.326,71.467,194.908,71.467z"/>
		</g>
		<g>
			<circle class="st22" cx="186.908" cy="71.467" r="5.333"/>
		</g>
	</g>
	<g>
		<g>
			<path class="st24" d="M234.908,71.467c4.418,0,8-3.582,8-8s-3.582-8-8-8s-8,3.582-8,8c0-4.418-3.582-8-8-8s-8,3.582-8,8
				s3.582,8,8,8c-4.418,0-8,3.582-8,8s3.582,8,8,8s8-3.582,8-8c0,4.418,3.582,8,8,8s8-3.582,8-8S239.326,71.467,234.908,71.467z"/>
		</g>
		<g>
			<circle class="st22" cx="226.908" cy="71.467" r="5.333"/>
		</g>
	</g>
	<g>
		<g>
			<path class="st31" d="M274.908,71.467c4.418,0,8-3.582,8-8s-3.582-8-8-8s-8,3.582-8,8c0-4.418-3.582-8-8-8c-4.418,0-8,3.582-8,8
				s3.582,8,8,8c-4.418,0-8,3.582-8,8s3.582,8,8,8c4.418,0,8-3.582,8-8c0,4.418,3.582,8,8,8s8-3.582,8-8
				S279.326,71.467,274.908,71.467z"/>
		</g>
		<g>
			<circle class="st22" cx="266.908" cy="71.467" r="5.333"/>
		</g>
	</g>
	<g>
		<g>
			<path class="st24" d="M314.908,71.467c4.418,0,8-3.582,8-8s-3.582-8-8-8s-8,3.582-8,8c0-4.418-3.582-8-8-8s-8,3.582-8,8
				s3.582,8,8,8c-4.418,0-8,3.582-8,8s3.582,8,8,8s8-3.582,8-8c0,4.418,3.582,8,8,8s8-3.582,8-8S319.326,71.467,314.908,71.467z"/>
		</g>
		<g>
			<circle class="st22" cx="306.908" cy="71.467" r="5.333"/>
		</g>
	</g>
	<g>
		<path class="st19" d="M104.241,103.467v8c0,13.255,10.745,24,24,24h8v-8c0-13.255-10.745-24-24-24H104.241z"/>
	</g>
	<g>
		<path class="st19" d="M376.241,215.467v8c0,13.255,10.745,24,24,24h8v-8c0-13.255-10.745-24-24-24H376.241z"/>
	</g>
	<g>
		<path class="st21" d="M200.241,399.467v8c0,13.255-10.745,24-24,24h-8v-8c0-13.255,10.745-24,24-24H200.241z"/>
	</g>
	<g>
		<path class="st20" d="M312.241,263.467h-96v32h128v0C344.241,277.794,329.914,263.467,312.241,263.467z"/>
	</g>
</g>
</svg>
