<?xml version="1.0" encoding="utf-8"?>
<!-- Generator: Adobe Illustrator 23.0.0, SVG Export Plug-In . SVG Version: 6.00 Build 0)  -->
<svg version="1.1" id="Layer_1" xmlns="http://www.w3.org/2000/svg" xmlns:xlink="http://www.w3.org/1999/xlink" x="0px" y="0px"
	 viewBox="0 0 512 512" style="enable-background:new 0 0 512 512;" xml:space="preserve">
<style type="text/css">
	.st0{fill:#323232;}
	.st1{fill:#646464;}
	.st2{fill:#464646;}
	.st3{fill:#FAA51E;}
	.st4{fill:#5A6E82;}
	.st5{fill:#788C9B;}
	.st6{fill:#AAC3D7;}
	.st7{fill:#7DC8AA;}
	.st8{fill:#147864;}
	.st9{fill:#329682;}
	.st10{fill:#FFFFFF;}
	.st11{fill:#9B5FAA;}
	.st12{fill:#463C4B;}
	.st13{fill:#32283C;}
	.st14{fill:#D76E28;}
	.st15{fill:#784687;}
	.st16{fill:#F0915A;}
	.st17{fill:#FAB991;}
	.st18{fill:#D7E6F0;}
	.st19{fill:#82AA41;}
	.st20{fill:#4B8C41;}
	.st21{fill:#A5CD3C;}
	.st22{fill:#FAD241;}
	.st23{fill:#AA5A28;}
	.st24{fill:#F04B37;}
	.st25{fill:#6EA5D7;}
	.st26{fill:#8CAAC8;}
	.st27{fill:#F0697D;}
	.st28{fill:#5A5A6E;}
	.st29{fill:#647DBE;}
	.st30{fill:#2D6E23;}
	.st31{fill:#F58CAA;}
	.st32{fill:#B98C3C;}
	.st33{fill:#C3A050;}
	.st34{fill:#D2C36E;}
	.st35{fill:#64412D;}
	.st36{fill:#DC7846;}
	.st37{fill:#96461E;}
	.st38{fill:#F06423;}
	.st39{fill:#E6AAFA;}
	.st40{fill:#BE82D2;}
	.st41{fill:#FAA037;}
	.st42{fill:#D73228;}
	.st43{fill:#BE281E;}
	.st44{fill:#5064A0;}
	.st45{fill:#8C1E14;}
	.st46{fill:#F5732D;}
	.st47{fill:#FAD7A0;}
	.st48{fill:#964628;}
	.st49{fill:#D24614;}
	.st50{fill:#F5D7A5;}
	.st51{fill:#F58723;}
	.st52{fill:#E65A78;}
	.st53{fill:#643773;}
	.st54{fill:#9B64AA;}
	.st55{fill:#555555;}
	.st56{fill:#FAD2B4;}
</style>
<g>
	<g>
		<path class="st26" d="M278.821,224h-64c-8.837,0-16-7.163-16-16V96h80V224z"/>
	</g>
	<g>
		<path class="st0" d="M158.821,320h72v-80h-72c-4.418,0-8,3.582-8,8v64C150.821,316.418,154.403,320,158.821,320z"/>
	</g>
	<g>
		<path class="st0" d="M422.821,448c0-8.189-3.124-16.379-9.373-22.627l-54.627-54.627V304h-128v18.746l-38.627,38.627
			c-6.002,6.001-9.373,14.141-9.373,22.627v64c-17.673,0-32,14.327-32,32l0,0c0,8.836,7.164,16,16,16h240c8.836,0,16-7.164,16-16
			L422.821,448L422.821,448z"/>
	</g>
	<path class="st2" d="M430.821,96h-64c-4.418,0-8,3.582-8,8v56h-96c-17.673,0-32,14.327-32,32v112c0,8.836,7.164,16,16,16h48v64
		c0,8.487,3.371,16.626,9.373,22.627L345.567,448h-2.746c-17.673,0-32,14.327-32,32c0,8.836,7.164,16,16,16h80
		c8.836,0,16-7.164,16-16v-32h0c0-8.189-3.124-16.379-9.373-22.627l-54.627-54.627V224h48c17.673,0,32-14.327,32-32v-88
		C438.821,99.582,435.239,96,430.821,96z"/>
	<g>
		<path class="st21" d="M278.821,176h-32c-17.673,0-32-14.327-32-32V96h64V176z"/>
	</g>
	<g>
		<rect x="214.821" y="112" class="st19" width="64" height="16"/>
	</g>
	<path class="st18" d="M342.821,120c-8.822,0-16-7.178-16-16v-8h-128v8c0,4.418,3.582,8,8,8h72v96c0,8.836,7.164,16,16,16h16
		c8.836,0,16-7.164,16-16v-76.305c4.711,2.732,10.174,4.305,16,4.305c4.418,0,8-3.582,8-8S347.239,120,342.821,120z"/>
	<g>
		<path class="st2" d="M342.821,96h-168c-4.418,0-8-3.582-8-8s3.582-8,8-8h168c4.418,0,8,3.582,8,8S347.239,96,342.821,96z"/>
	</g>
	<g>
		<path class="st0" d="M198.821,80L198.821,80c0-35.346,28.654-64,64-64h88c4.418,0,8,3.582,8,8v0c0,4.418-3.582,8-8,8h0
			c-13.255,0-24,10.745-24,24v24H198.821z"/>
	</g>
	<g>
		<path class="st19" d="M134.821,248c0-8.836-7.164-16-16-16h-8v48h40v-32H134.821z"/>
	</g>
	<g>
		<path class="st23" d="M118.821,336h-16V96c0-4.418,3.582-8,8-8h0c4.418,0,8,3.582,8,8V336z"/>
	</g>
	<g>
		<path class="st21" d="M100.154,232L100.154,232c13.255,0,24,10.745,24,24v0c0,13.255-10.745,24-24,24h0c-4.418,0-8-3.582-8-8v-32
			C92.154,235.582,95.736,232,100.154,232z"/>
	</g>
	<g>
		<path class="st19" d="M358.821,32v16h-12c-2.209,0-4,1.791-4,4l0,0c0,6.627,5.373,12,12,12h4c0,8.836,7.164,16,16,16v16h32V32
			H358.821z"/>
	</g>
	<g>
		<path class="st21" d="M390.821,16h-32c-4.418,0-8,3.582-8,8s3.582,8,8,8h32v32c0,8.837,7.164,16,16,16V32
			C406.821,23.163,399.657,16,390.821,16z"/>
	</g>
	<g>
		<path class="st21" d="M198.821,144h16v-16h0C205.984,128,198.821,135.163,198.821,144L198.821,144z"/>
	</g>
	<g>
		<path class="st22" d="M126.821,360h-32c-4.418,0-8-3.582-8-8v-16h48v16C134.821,356.418,131.239,360,126.821,360z"/>
	</g>
	<g>
		<path class="st22" d="M126.821,376h-32c-13.255,0-24,10.745-24,24v41.088c0,9.548,3.793,18.705,10.544,25.456L110.821,496
			l29.456-29.456c6.751-6.751,10.544-15.908,10.544-25.456V400C150.821,386.745,140.076,376,126.821,376z"/>
	</g>
	<g>
		<rect x="94.821" y="360" class="st42" width="32" height="16"/>
	</g>
	<g>
		<path class="st41" d="M110.821,336v24h16c4.418,0,8-3.582,8-8v-16H110.821z"/>
	</g>
	<g>
		<path class="st41" d="M150.821,400h-32c-4.418,0-8,3.582-8,8v88l29.456-29.456c6.751-6.751,10.544-15.908,10.544-25.456V400z"/>
	</g>
</g>
</svg>
