<?xml version="1.0" encoding="utf-8"?>
<!-- Generator: Adobe Illustrator 22.0.0, SVG Export Plug-In . SVG Version: 6.00 Build 0)  -->
<svg version="1.1" id="Layer_1" xmlns="http://www.w3.org/2000/svg" xmlns:xlink="http://www.w3.org/1999/xlink" x="0px" y="0px"
	 viewBox="0 0 512 512" style="enable-background:new 0 0 512 512;" xml:space="preserve">
<style type="text/css">
	.st0{fill:#FF7B7B;}
	.st1{fill:#FFB236;}
	.st2{fill:#FFD3B3;}
	.st3{fill:#FCB98B;}
	.st4{fill:#6E83B7;}
	.st5{fill:#FFB0AA;}
	.st6{fill:#EDEFF1;}
	.st7{fill:#FFE352;}
	.st8{fill:#46BEE8;}
	.st9{fill:#9CE5FF;}
	.st10{fill:#80D6FB;}
	.st11{fill:#FFE67B;}
	.st12{fill:#F76161;}
	.st13{fill:#98CA69;}
	.st14{fill:#75AA40;}
	.st15{fill:#BFEA8C;}
	.st16{fill:#D3D3D3;}
	.st17{fill:#466089;}
	.st18{fill:#7C93BF;}
	.st19{fill:#FFC69F;}
	.st20{fill:#859CC1;}
	.st21{fill:#EFA470;}
	.st22{fill:#C1C1C1;}
	.st23{fill:#E2935D;}
	.st24{fill:#99E5FF;}
</style>
<g>
	<g>
		<g>
			<polygon class="st10" points="208,224 256,378 304,224 284,209 228,209 			"/>
		</g>
	</g>
	<g>
		<g>
			<polygon class="st8" points="284,209 256,237 228,209 208,224 212.175,237.396 233.935,269.809 252.692,243.126 256,241.472 
				259.308,243.126 278.065,269.809 299.825,237.396 304,224 			"/>
		</g>
	</g>
	<g>
		<g>
			<polygon class="st2" points="256,182 228,182 228,209 256,237 284,209 284,182 			"/>
		</g>
	</g>
	<g>
		<g>
			<path class="st3" d="M228,196c8.334,3.721,18.296,6,28,6c9.704,0,19.666-2.279,28-6v-14h-56V196z"/>
		</g>
	</g>
	<g>
		<g>
			<path class="st4" d="M364.017,243.339L351,239l-47-15l-48,154l-48-154l-47,15v268h95h95h39V279.389
				C390,263.032,379.534,248.511,364.017,243.339z"/>
		</g>
	</g>
	<g>
		<g>
			<polygon class="st20" points="184.232,259.356 208,224 256,378 201.667,303.333 206.796,281 			"/>
		</g>
	</g>
	<g>
		<g>
			<rect x="338" y="356" class="st17" width="6" height="151"/>
		</g>
	</g>
	<g>
		<g>
			<polygon class="st20" points="327.768,259.356 304,224 256,378 310.333,303.333 305.204,281 			"/>
		</g>
	</g>
	<g>
		<g>
			<polygon class="st10" points="228,209 208,224 234.011,262.746 250,240 256,237 			"/>
		</g>
	</g>
	<g>
		<g>
			<polygon class="st10" points="284,209 304,224 277.989,262.746 262,240 256,237 			"/>
		</g>
	</g>
	<g>
		<g>
			<path class="st2" d="M256,85h-60v49c0,33.137,26.863,60,60,60s60-26.863,60-60V85H256z"/>
		</g>
	</g>
	<g>
		<g>
			<path class="st3" d="M256.644,176c-8.479,0-14.627-6.915-14.885-7.209l4.516-3.951l-2.258,1.976l2.251-1.983
				c0.046,0.052,4.653,5.168,10.376,5.168c0.011,0,0.022,0,0.034,0c3.273-0.012,6.447-1.748,9.434-5.16l4.516,3.951
				C266.441,173.575,261.736,176,256.644,176z"/>
		</g>
	</g>
	<g>
		<g>
			<circle class="st4" cx="234.2" cy="120.094" r="6"/>
		</g>
	</g>
	<g>
		<g>
			<circle class="st4" cx="278.2" cy="120.094" r="6"/>
		</g>
	</g>
	<g>
		<g>
			<polygon class="st3" points="262.488,149.463 248.549,149.463 250.006,131.976 255.985,132.474 255.069,143.463 262.488,143.463 
							"/>
		</g>
	</g>
	<g>
		<g>
			<path class="st4" d="M245.876,97.915c0,0-18.589-7.713-34.41,5.933c0,0,18.392-4.746,30.85,1.187L245.876,97.915z"/>
		</g>
	</g>
	<g>
		<g>
			<path class="st4" d="M263.926,97.915c0,0,18.589-7.713,34.41,5.933c0,0-18.392-4.746-30.85,1.187L263.926,97.915z"/>
		</g>
	</g>
	<g>
		<g>
			<path class="st4" d="M212,85c0,0,0.583,2-6,8l-10,20V93h-7v-8H212z"/>
		</g>
	</g>
	<g>
		<g>
			<path class="st4" d="M300,85c0,0-0.583,2,6,8l10,20V93h7v-8H300z"/>
		</g>
	</g>
	<g>
		<g>
			<rect x="253" y="449" class="st17" width="6" height="58"/>
		</g>
	</g>
	<g>
		<g>
			<g>
				<polygon class="st6" points="188,507 223,507 252.777,316.826 217.223,311.174 				"/>
			</g>
		</g>
		<g>
			<g>
				<g>
					<path class="st6" d="M235.471,311.037L237.333,301c0,0,16.472,9.254,15.443,15.826L235.471,311.037z"/>
				</g>
			</g>
			<g>
				<g>
					<ellipse transform="matrix(0.157 -0.9876 0.9876 0.157 -112.0015 496.7867)" class="st16" cx="235" cy="314" rx="5" ry="18"/>
				</g>
			</g>
			<g>
				<g>
					<ellipse transform="matrix(0.157 -0.9876 0.9876 0.157 -112.0015 496.7867)" class="st22" cx="235" cy="314" rx="3" ry="14"/>
				</g>
			</g>
			<g>
				<g>
					
						<ellipse transform="matrix(0.157 -0.9876 0.9876 0.157 -112.0015 496.7867)" class="st16" cx="235" cy="314" rx="1.714" ry="10"/>
				</g>
			</g>
		</g>
	</g>
	<g>
		<g>
			<g>
				<polygon class="st6" points="157.207,507 195.5,507 205.539,308.914 169.603,306.769 				"/>
			</g>
		</g>
		<g>
			<g>
				<g>
					<path class="st6" d="M187.75,304.847l0.871-10.171c0,0,17.299,7.597,16.919,14.238L187.75,304.847z"/>
				</g>
			</g>
			<g>
				<g>
					
						<ellipse transform="matrix(0.0596 -0.9982 0.9982 0.0596 -130.8959 476.7433)" class="st16" cx="187.571" cy="307.841" rx="5" ry="18"/>
				</g>
			</g>
			<g>
				<g>
					
						<ellipse transform="matrix(0.0596 -0.9982 0.9982 0.0596 -130.8959 476.7433)" class="st22" cx="187.571" cy="307.841" rx="3" ry="14"/>
				</g>
			</g>
			<g>
				<g>
					
						<ellipse transform="matrix(0.0596 -0.9982 0.9982 0.0596 -130.8959 476.7433)" class="st16" cx="187.571" cy="307.841" rx="1.714" ry="10"/>
				</g>
			</g>
		</g>
	</g>
	<g>
		<g>
			<g>
				<path class="st2" d="M171.308,394.472l15-5l1.526-6.612c0.916-3.968,3.83-7.173,7.693-8.461L209,369l-2,16l-5.692,53.472l-14,4
					L171.308,394.472z"/>
			</g>
		</g>
		<g>
			<g>
				<path class="st2" d="M249.185,410.241l0.065-0.678c0.33-3.423-1.365-6.567-4.102-8.267c1.262-1.396,2.109-3.189,2.304-5.206l0,0
					c0.482-4.995-3.176-9.435-8.171-9.917l-32.435-3.131c-4.995-0.482-9.435,3.176-9.917,8.171c-0.213,2.21,0.386,4.309,1.551,6.007
					c-2.604,1.302-4.505,3.867-4.805,6.978l-0.066,0.678c-0.248,2.568,0.649,4.977,2.263,6.741c-1.553,1.457-2.609,3.457-2.83,5.744
					c-0.355,3.673,1.534,7.04,4.543,8.759c-0.637,1.096-1.06,2.338-1.19,3.682l0,0c-0.482,4.995,3.176,9.435,8.171,9.917
					l24.857,2.399c4.995,0.482,9.435-3.176,9.917-8.171l0,0c0.153-1.589-0.115-3.12-0.71-4.487c2.676-1.362,4.625-4.012,4.935-7.223
					l0,0c0.151-1.568-0.106-3.081-0.684-4.434C246.235,416.844,248.829,413.924,249.185,410.241z"/>
			</g>
		</g>
	</g>
	<g>
		<g>
			<path class="st4" d="M122.065,268.108L40.737,411.951c-15.991,28.282,8.585,62.288,40.457,55.98L192,446l-14-57l-57,13l40-64v-99
				l-3.75,1.111C142.336,244.53,129.721,254.568,122.065,268.108z"/>
		</g>
	</g>
	<g>
		<g>
			<path class="st1" d="M286,16.46L286,16.46C286,10.131,280.869,5,274.54,5H237.46C231.131,5,226,10.131,226,16.46v0
				c-23.609,12.076-41,37.269-41,64.04V85h142v-4.5C327,53.729,309.609,28.537,286,16.46z"/>
		</g>
	</g>
	<g>
		<g>
			<path class="st17" d="M103.643,419.419l-5.286-2.838c4.529-8.436,12.264-13.248,17.197-15.604
				C112.995,399.107,108.82,397,103,397v-6c13.347,0,20.118,8.824,20.4,9.2l2.572,3.429l-4.103,1.242
				C121.75,404.908,109.33,408.825,103.643,419.419z"/>
		</g>
	</g>
	<g>
		<g>
			<path class="st7" d="M256,68c-42.333,0-67,17-67,17h134C323,85,298.333,68,256,68z"/>
		</g>
	</g>
	<g>
		<g>
			<path class="st7" d="M240,46c0-22.5-14-29.54-14-29.54c-2.241,1.146-4.425,2.412-6.545,3.785C233.15,29.01,240,46,240,46z"/>
		</g>
	</g>
	<g>
		<g>
			<path class="st7" d="M272,46c0-22.5,14-29.54,14-29.54c2.241,1.146,4.425,2.412,6.545,3.785C278.85,29.01,272,46,272,46z"/>
		</g>
	</g>
	<g>
		<g>
			<g>
				<polygon class="st6" points="143.5,507 181.373,507 142.43,297.154 106.9,302.956 				"/>
			</g>
		</g>
		<g>
			<g>
				<g>
					<path class="st6" d="M124.181,297.095l-1.385-10.114c0,0,18.546,3.611,19.633,10.174L124.181,297.095z"/>
				</g>
			</g>
			<g>
				<g>
					
						<ellipse transform="matrix(0.9869 -0.1612 0.1612 0.9869 -46.73 24.0149)" class="st16" cx="124.665" cy="300.055" rx="18" ry="5"/>
				</g>
			</g>
			<g>
				<g>
					
						<ellipse transform="matrix(0.9869 -0.1612 0.1612 0.9869 -46.73 24.0149)" class="st22" cx="124.665" cy="300.055" rx="14" ry="3"/>
				</g>
			</g>
			<g>
				<g>
					
						<ellipse transform="matrix(0.9869 -0.1612 0.1612 0.9869 -46.73 24.0149)" class="st16" cx="124.665" cy="300.055" rx="10" ry="1.714"/>
				</g>
			</g>
		</g>
	</g>
	<g>
		<g>
			<polygon class="st6" points="196,85 196,93 189,93 185,96 185,85 			"/>
		</g>
	</g>
	<g>
		<g>
			<path class="st2" d="M196,93h-6.95c-5.916,0-10.539,5.108-9.95,10.995l2,20c0.511,5.112,4.813,9.005,9.95,9.005H196V93z"/>
		</g>
	</g>
	<g>
		<g>
			<polygon class="st6" points="316,85 316,93 323,93 327,96 327,85 			"/>
		</g>
	</g>
	<g>
		<g>
			<path class="st2" d="M316,93h6.95c5.916,0,10.539,5.108,9.95,10.995l-2,20c-0.511,5.112-4.813,9.005-9.95,9.005H316V93z"/>
		</g>
	</g>
	<g>
		<g>
			<polygon class="st4" points="160.227,393.054 123.841,401.352 133.588,457.561 170.83,450.19 			"/>
		</g>
	</g>
</g>
</svg>
