<?xml version="1.0" encoding="utf-8"?>
<!-- Generator: Adobe Illustrator 22.0.0, SVG Export Plug-In . SVG Version: 6.00 Build 0)  -->
<svg version="1.1" id="Layer_1" xmlns="http://www.w3.org/2000/svg" xmlns:xlink="http://www.w3.org/1999/xlink" x="0px" y="0px"
	 viewBox="0 0 512 512" style="enable-background:new 0 0 512 512;" xml:space="preserve">
<style type="text/css">
	.st0{fill:#FF7B7B;}
	.st1{fill:#FFB236;}
	.st2{fill:#FFD3B3;}
	.st3{fill:#FCB98B;}
	.st4{fill:#6E83B7;}
	.st5{fill:#FFB0AA;}
	.st6{fill:#EDEFF1;}
	.st7{fill:#FFE352;}
	.st8{fill:#46BEE8;}
	.st9{fill:#9CE5FF;}
	.st10{fill:#80D6FB;}
	.st11{fill:#FFE67B;}
	.st12{fill:#F76161;}
	.st13{fill:#98CA69;}
	.st14{fill:#75AA40;}
	.st15{fill:#BFEA8C;}
	.st16{fill:#D3D3D3;}
	.st17{fill:#466089;}
	.st18{fill:#7C93BF;}
	.st19{fill:#FFC69F;}
	.st20{fill:#859CC1;}
	.st21{fill:#EFA470;}
	.st22{fill:#C1C1C1;}
	.st23{fill:#E2935D;}
	.st24{fill:#99E5FF;}
</style>
<g>
	<g>
		<g>
			<path class="st6" d="M256,97h72c15.333-17.833,16-39,16-39c0-52-88-53-88-53s-88,1-88,53c0,0,0.667,21.167,16,39H256z"/>
		</g>
	</g>
	<g>
		<g>
			<g>
				<path class="st4" d="M364.017,243.339L351,239l-47-15l-48,154l-48-154l-47,15l-13.017,4.339
					C132.466,248.511,122,263.032,122,279.389V507h39h95h95h39V279.389C390,263.032,379.534,248.511,364.017,243.339z"/>
			</g>
		</g>
		<g>
			<g>
				<polygon class="st6" points="208,224 256,378 304,224 284,209 228,209 				"/>
			</g>
		</g>
		<g>
			<g>
				<polygon class="st16" points="284,209 256,237 228,209 208,224 212.175,237.396 233.935,269.809 252.692,243.126 256,241.472 
					259.308,243.126 278.065,269.809 299.825,237.396 304,224 				"/>
			</g>
		</g>
		<g>
			<g>
				<polygon class="st4" points="264,271 256,271 248,271 244.024,339.578 256,378 267.976,339.578 				"/>
			</g>
		</g>
		<g>
			<g>
				<path class="st17" d="M261.73,279.357h-2c0-8.797-2.707-9.357-2.734-9.357H255c-0.719,0.091-2.73,1.954-2.73,9.357h-2
					c0-11.02,4.242-11.355,4.727-11.357H257C257.488,268.002,261.73,268.338,261.73,279.357z"/>
			</g>
		</g>
		<g>
			<g>
				<polygon class="st4" points="256,271 264,271 274.81,258.224 262,240 256,237 250,240 237.189,258.224 248,271 				"/>
			</g>
		</g>
		<g>
			<g>
				<path class="st17" d="M259.362,265h-6.724c-2.942,0-5.734-1.295-7.634-3.541l-5.511-6.513l-2.304,3.277L248,271h16l10.81-12.776
					l-2.304-3.277l-5.511,6.513C265.096,263.705,262.303,265,259.362,265z"/>
			</g>
		</g>
		<g>
			<g>
				<polygon class="st2" points="256,182 228,182 228,209 256,237 284,209 284,182 				"/>
			</g>
		</g>
		<g>
			<g>
				<path class="st3" d="M228,196c8.334,3.721,18.296,6,28,6c9.704,0,19.666-2.279,28-6v-14h-56V196z"/>
			</g>
		</g>
		<g>
			<g>
				<path class="st2" d="M196,93h-6.95c-5.916,0-10.539,5.108-9.95,10.995l2,20c0.511,5.112,4.813,9.005,9.95,9.005H196V93z"/>
			</g>
		</g>
		<g>
			<g>
				<path class="st2" d="M316,93h6.95c5.916,0,10.539,5.108,9.95,10.995l-2,20c-0.511,5.112-4.813,9.005-9.95,9.005H316V93z"/>
			</g>
		</g>
		<g>
			<g>
				<polygon class="st20" points="184.232,259.356 208,224 256,378 201.667,303.333 206.796,281 				"/>
			</g>
		</g>
		<g>
			<g>
				<rect x="338" y="356" class="st17" width="6" height="151"/>
			</g>
		</g>
		<g>
			<g>
				<polygon class="st20" points="327.768,259.356 304,224 256,378 310.333,303.333 305.204,281 				"/>
			</g>
		</g>
		<g>
			<g>
				<polygon class="st6" points="228,209 208,224 234.011,262.746 250,240 256,237 				"/>
			</g>
		</g>
		<g>
			<g>
				<polygon class="st6" points="284,209 304,224 277.989,262.746 262,240 256,237 				"/>
			</g>
		</g>
		<g>
			<g>
				<path class="st2" d="M256,67h-60v67c0,33.137,26.863,60,60,60s60-26.863,60-60V67H256z"/>
			</g>
		</g>
		<g>
			<g>
				<circle class="st4" cx="234.2" cy="120.094" r="6"/>
			</g>
		</g>
		<g>
			<g>
				<circle class="st4" cx="278.2" cy="120.094" r="6"/>
			</g>
		</g>
		<g>
			<g>
				<polygon class="st3" points="261,149.463 248.312,149.463 251.035,131.769 256.965,132.681 255.307,143.463 261,143.463 				"/>
			</g>
		</g>
		<g>
			<g>
				<path class="st4" d="M245.876,97.915c0,0-18.589-7.713-34.41,5.933c0,0,18.392-4.746,30.85,1.187L245.876,97.915z"/>
			</g>
		</g>
		<g>
			<g>
				<path class="st4" d="M263.926,97.915c0,0,18.589-7.713,34.41,5.933c0,0-18.392-4.746-30.85,1.187L263.926,97.915z"/>
			</g>
		</g>
		<g>
			<g>
				<rect x="168" y="356" class="st17" width="6" height="151"/>
			</g>
		</g>
	</g>
	<g>
		<g>
			<path class="st3" d="M256.584,176.022c-7.921,0-13.812-3.666-14.179-3.899l3.213-5.067c0.432,0.27,10.665,6.526,21.166-0.01
				l3.17,5.094C265.277,175.051,260.661,176.022,256.584,176.022z"/>
		</g>
	</g>
	<g>
		<g>
			<circle class="st7" cx="256" cy="405" r="9"/>
		</g>
	</g>
	<g>
		<g>
			<circle class="st7" cx="256" cy="444" r="9"/>
		</g>
	</g>
	<g>
		<g>
			<circle class="st7" cx="256" cy="483" r="9"/>
		</g>
	</g>
	<g>
		<g>
			<path class="st17" d="M320,83V68c0,0-21.333-17-64-17s-64,17-64,17v15H320z"/>
		</g>
	</g>
	<g>
		<g>
			<g>
				<path class="st4" d="M256,67c40.667,0,64,16,64,16l-8.561,6.726C307.915,92.495,303.564,94,299.083,94H256h-43.083
					c-4.481,0-8.833-1.505-12.356-4.274L192,83C192,83,215.333,67,256,67z"/>
			</g>
		</g>
	</g>
	<g>
		<g>
			<circle class="st7" cx="256" cy="37" r="20"/>
		</g>
	</g>
	<g>
		<g>
			<g>
				<polygon class="st5" points="297,353 305,347 305,332 297,332 289,332 289,347 				"/>
			</g>
		</g>
		<g>
			<g>
				<circle class="st7" cx="297" cy="359" r="8"/>
			</g>
		</g>
	</g>
	<g>
		<g>
			<g>
				<polygon class="st13" points="315,353 323,347 323,332 315,332 307,332 307,347 				"/>
			</g>
		</g>
		<g>
			<g>
				<circle class="st7" cx="315" cy="359" r="8"/>
			</g>
		</g>
	</g>
	<g>
		<g>
			<g>
				<polygon class="st10" points="333,353 341,347 341,332 333,332 325,332 325,347 				"/>
			</g>
		</g>
		<g>
			<g>
				<circle class="st7" cx="333" cy="359" r="8"/>
			</g>
		</g>
	</g>
</g>
</svg>
