<?xml version="1.0" encoding="utf-8"?>
<!-- Generator: Adobe Illustrator 22.0.0, SVG Export Plug-In . SVG Version: 6.00 Build 0)  -->
<svg version="1.1" id="Layer_1" xmlns="http://www.w3.org/2000/svg" xmlns:xlink="http://www.w3.org/1999/xlink" x="0px" y="0px"
	 viewBox="0 0 512 512" style="enable-background:new 0 0 512 512;" xml:space="preserve">
<style type="text/css">
	.st0{fill:#FF7B7B;}
	.st1{fill:#FFB236;}
	.st2{fill:#FFD3B3;}
	.st3{fill:#FCB98B;}
	.st4{fill:#6E83B7;}
	.st5{fill:#FFB0AA;}
	.st6{fill:#EDEFF1;}
	.st7{fill:#FFE352;}
	.st8{fill:#46BEE8;}
	.st9{fill:#9CE5FF;}
	.st10{fill:#80D6FB;}
	.st11{fill:#FFE67B;}
	.st12{fill:#F76161;}
	.st13{fill:#98CA69;}
	.st14{fill:#75AA40;}
	.st15{fill:#BFEA8C;}
	.st16{fill:#D3D3D3;}
	.st17{fill:#466089;}
	.st18{fill:#7C93BF;}
	.st19{fill:#FFC69F;}
	.st20{fill:#859CC1;}
	.st21{fill:#EFA470;}
	.st22{fill:#C1C1C1;}
	.st23{fill:#E2935D;}
	.st24{fill:#99E5FF;}
</style>
<g>
	<g>
		<g>
			<g>
				<path class="st4" d="M357.595,231.938L290.06,212.98L256,323.333L221.94,212.98l-67.535,18.958
					C131.104,238.479,115,259.726,115,283.929V507h282V283.929C397,259.726,380.896,238.479,357.595,231.938z M165,463.071V332l9,52
					L165,463.071z M338,384l9-52v131.071L338,384z"/>
			</g>
		</g>
		<g>
			<g>
				<path class="st17" d="M321,94v118c0,0-25.167-22-65-22c-39.833,0-65,22-65,22V94H321z"/>
			</g>
		</g>
		<g>
			<g>
				<path class="st4" d="M198,206.932c-4.56,2.936-7,5.068-7,5.068v-83h7V206.932z"/>
			</g>
		</g>
		<g>
			<g>
				<path class="st4" d="M314,206.932c4.56,2.936,7,5.068,7,5.068v-83h-7V206.932z"/>
			</g>
		</g>
		<g>
			<g>
				<rect x="229" y="181" class="st2" width="54" height="30"/>
			</g>
		</g>
		<g>
			<g>
				<polygon class="st6" points="283,211 229,211 221.942,212.981 256,323.333 290.058,212.981 				"/>
			</g>
		</g>
		<g>
			<g>
				<path class="st2" d="M314,92h6.598c6.041,0,10.703,5.315,9.915,11.305l-2.597,19.739c-0.524,3.981-3.917,6.956-7.932,6.956H314
					V92z"/>
			</g>
		</g>
		<g>
			<g>
				<path class="st2" d="M198,92h-6.598c-6.041,0-10.703,5.315-9.915,11.305l2.597,19.739c0.524,3.981,3.917,6.956,7.932,6.956H198
					V92z"/>
			</g>
		</g>
		<g>
			<g>
				<path class="st3" d="M229,194.396c8.282,3.598,17.41,5.604,27,5.604s18.718-2.006,27-5.604V181h-54V194.396z"/>
			</g>
		</g>
		<g>
			<g>
				<path class="st2" d="M314,132c0,32.033-25.967,58-58,58s-58-25.967-58-58V56h116V132z"/>
			</g>
		</g>
		<g>
			<g>
				<polygon class="st20" points="324,255 314.162,219.747 290.058,212.981 256,323.333 221.942,212.981 197.838,219.747 188,255 
					216,295 207,319 256,371.667 305,319 296,295 				"/>
			</g>
		</g>
		<g>
			<g>
				<path class="st4" d="M287,16h-3c-7.043-7.043-16.596-11-26.556-11H251c-33.137,0-60,26.863-60,60v27h7v27l11.693-27.284
					C261.479,89.157,276,70,276,70s12.404,14.615,27.462,20.02L314,119V92h7V50C321,31.222,305.778,16,287,16z"/>
			</g>
		</g>
		<g>
			<g>
				<polygon class="st3" points="259,149 249.158,149 253.089,133.272 258.911,134.728 256.842,143 259,143 				"/>
			</g>
		</g>
		<g>
			<g>
				<path class="st4" d="M266,104c0,0,16.939-7.347,33,3c0,0-13.75-3.375-30,3L266,104z"/>
			</g>
		</g>
		<g>
			<g>
				<path class="st4" d="M246,104c0,0-16.939-7.347-33,3c0,0,13.75-3.375,30,3L246,104z"/>
			</g>
		</g>
		<g>
			<g>
				<path class="st3" d="M256,168c-6.188,0-10.306-2.292-10.479-2.39l2.957-5.221c0.011,0.006,2.996,1.61,7.521,1.61
					c4.551,0,7.493-1.595,7.521-1.61l2.957,5.221C266.306,165.708,262.188,168,256,168z"/>
			</g>
		</g>
		<g>
			<g>
				<path class="st19" d="M284,142h-10c-2.209,0-4-1.791-4-4l0,0c0-2.209,1.791-4,4-4h10c2.209,0,4,1.791,4,4l0,0
					C288,140.209,286.209,142,284,142z"/>
			</g>
		</g>
		<g>
			<g>
				<path class="st19" d="M228,142h10c2.209,0,4-1.791,4-4l0,0c0-2.209-1.791-4-4-4h-10c-2.209,0-4,1.791-4,4l0,0
					C224,140.209,225.791,142,228,142z"/>
			</g>
		</g>
		<g>
			<g>
				<path class="st4" d="M236,118c-0.022,0-0.044,0.003-0.067,0.003c-0.62,0.028-5.516,0.18-7.933-2.003
					c0,0,0.619,2.919,2.817,4.987C230.301,121.874,230,122.901,230,124c0,3.314,2.686,6,6,6s6-2.686,6-6S239.314,118,236,118z"/>
			</g>
		</g>
		<g>
			<g>
				<path class="st4" d="M276,118c0.022,0,0.044,0.003,0.067,0.003c0.62,0.028,5.516,0.18,7.933-2.003c0,0-0.619,2.919-2.817,4.987
					c0.516,0.886,0.817,1.913,0.817,3.013c0,3.314-2.686,6-6,6s-6-2.686-6-6S272.686,118,276,118z"/>
			</g>
		</g>
	</g>
	<g>
		<g>
			<g>
				<path class="st5" d="M273.142,235.785h-34.283c-3.314,0-6-2.686-6-6v-24.641c0-3.314,2.686-6,6-6h34.283c3.314,0,6,2.686,6,6
					v24.641C279.142,233.099,276.455,235.785,273.142,235.785z"/>
			</g>
		</g>
		<g>
			<g>
				<polygon class="st5" points="273.356,299.585 256.186,293.8 238.644,299.585 238.644,235.785 273.356,235.785 				"/>
			</g>
		</g>
		<g>
			<g>
				<rect x="238.644" y="235.785" class="st0" width="34.712" height="3.696"/>
			</g>
		</g>
		<g>
			<g>
				<path class="st5" d="M229.001,199.988c0,0,0.362,4.399,3.857,4.942V230c0,0-8.912-3.588-10.181-17.221L229.001,199.988z"/>
			</g>
		</g>
		<g>
			<g>
				<path class="st0" d="M230.93,228.877c1.139,0.803,1.928,1.123,1.928,1.123v-25.07c-0.772-0.12-1.384-0.434-1.88-0.841
					c-0.03,0.277-0.048,0.557-0.048,0.841V228.877z"/>
			</g>
		</g>
		<g>
			<g>
				<path class="st5" d="M282.999,199.988c0,0-0.362,4.399-3.857,4.942V230c0,0,8.912-3.588,10.181-17.221L282.999,199.988z"/>
			</g>
		</g>
		<g>
			<g>
				<path class="st0" d="M281.07,228.877c-1.139,0.803-1.928,1.123-1.928,1.123v-25.07c0.772-0.12,1.384-0.434,1.88-0.841
					c0.03,0.277,0.048,0.557,0.048,0.841V228.877z"/>
			</g>
		</g>
		<g>
			<g>
				<path class="st0" d="M265.875,258.767h-4c0-13.72-4.36-17.716-5.876-18.687c-1.518,0.962-5.873,4.917-5.873,18.687h-4
					c0-19.771,8.403-22.571,9.361-22.825l0.513-0.137l0.513,0.137C257.471,236.195,265.875,238.996,265.875,258.767z"/>
			</g>
		</g>
	</g>
</g>
</svg>
