<?xml version="1.0" encoding="utf-8"?>
<!-- Generator: Adobe Illustrator 22.0.0, SVG Export Plug-In . SVG Version: 6.00 Build 0)  -->
<svg version="1.1" id="Layer_1" xmlns="http://www.w3.org/2000/svg" xmlns:xlink="http://www.w3.org/1999/xlink" x="0px" y="0px"
	 viewBox="0 0 512 512" style="enable-background:new 0 0 512 512;" xml:space="preserve">
<style type="text/css">
	.st0{fill:#FF7B7B;}
	.st1{fill:#FFB236;}
	.st2{fill:#FFD3B3;}
	.st3{fill:#FCB98B;}
	.st4{fill:#6E83B7;}
	.st5{fill:#FFB0AA;}
	.st6{fill:#EDEFF1;}
	.st7{fill:#FFE352;}
	.st8{fill:#46BEE8;}
	.st9{fill:#9CE5FF;}
	.st10{fill:#80D6FB;}
	.st11{fill:#FFE67B;}
	.st12{fill:#F76161;}
	.st13{fill:#98CA69;}
	.st14{fill:#75AA40;}
	.st15{fill:#BFEA8C;}
	.st16{fill:#D3D3D3;}
	.st17{fill:#466089;}
	.st18{fill:#7C93BF;}
	.st19{fill:#FFC69F;}
	.st20{fill:#859CC1;}
	.st21{fill:#EFA470;}
	.st22{fill:#C1C1C1;}
	.st23{fill:#E2935D;}
	.st24{fill:#99E5FF;}
</style>
<g>
	<g>
		<g>
			<g>
				<path class="st2" d="M417.888,253.113l3.745-11.63c0.878-2.728,0.521-5.704-0.979-8.146l-0.001-0.002
					c-0.842-1.371-1.334-2.928-1.433-4.534l-1.803-29.289c-0.193-3.13,2.033-5.891,5.133-6.366h0
					c3.397-0.521,6.547,1.883,6.942,5.297l0.829,11.031c0.188,2.505,1.746,4.7,4.049,5.704h0c2.019,0.88,4.339,0.725,6.222-0.418
					l5.963-3.616c2.338-1.418,3.595-4.103,3.186-6.807l-2.684-17.759c-0.289-1.885-1.281-3.592-2.777-4.775l-3.815-3.019
					c-2.195-1.737-2.552-4.931-0.794-7.109l0.083-0.103c1.843-2.285,5.174-2.605,7.398-0.73c3.471,2.926,7.914,6.667,7.914,6.667
					c1.154,0.972,1.991,2.267,2.403,3.718l4.855,20.183l11.14,10.198c2.18,1.995,2.996,5.078,2.091,7.891l-7.984,24.796
					c-0.932,2.894-2.919,5.33-5.566,6.824l-4.953,2.796c-1.655,0.934-2.897,2.457-3.479,4.265l-1.874,5.82L417.888,253.113z"/>
			</g>
		</g>
		<g>
			<g>
				<g>
					<path class="st7" d="M466.566,147.167c0-17.153-14.5-30.919-31.911-29.709c-14.817,1.029-26.754,13.127-27.605,27.955
						c-0.579,10.107,3.886,19.196,11.109,24.99c4.143,3.323,6.666,8.257,6.666,13.568v1.96h23.915v-1.841
						c0-5.256,2.34-10.275,6.468-13.529C462.125,165.108,466.566,156.658,466.566,147.167z"/>
				</g>
			</g>
			<g>
				<g>
					<rect x="424.825" y="185.93" class="st6" width="23.915" height="14.344"/>
				</g>
			</g>
			<g>
				<g>
					<rect x="427.197" y="200.275" class="st4" width="19.171" height="7.172"/>
				</g>
			</g>
			<g>
				<g>
					<rect x="433.783" y="153.625" class="st1" width="6" height="32.305"/>
				</g>
			</g>
			<g>
				<g>
					<path class="st1" d="M453.75,153.625h-6c0-2.197-1.787-3.983-3.983-3.983s-3.983,1.787-3.983,3.983h-6
						c0-5.505,4.479-9.983,9.983-9.983S453.75,148.121,453.75,153.625z"/>
				</g>
			</g>
			<g>
				<g>
					<path class="st1" d="M439.783,153.625h-6c0-2.197-1.787-3.983-3.983-3.983s-3.983,1.787-3.983,3.983h-6
						c0-5.505,4.479-9.983,9.983-9.983S439.783,148.121,439.783,153.625z"/>
				</g>
			</g>
		</g>
		<g>
			<g>
				<path class="st3" d="M462.326,201.41l-0.724-3.007l-12.063-0.125c-0.216,0-0.431,0.009-0.649,0.029
					c-0.02,0.001-0.038,0.005-0.058,0.006l0.911,6.026c0.409,2.704-0.848,5.388-3.186,6.807l-5.963,3.616
					c-1.291,0.783-2.787,1.09-4.251,0.93c-0.944,3.823,0.314,7.871,3.317,10.489l11.437,9.952c1.919,1.678,4.389,2.603,6.955,2.603
					l1.116-0.011c3.247-0.033,6.099-2.133,7.093-5.224l1.787-5.551c0.098-0.303,0.353-0.534,0.664-0.603l4.647-1.021l2.198-6.826
					c0.906-2.813,0.089-5.896-2.091-7.891L462.326,201.41z"/>
			</g>
		</g>
		<g>
			<g>
				<path class="st2" d="M475.555,219.502l-1.133,3.518l-6.355,1.397c-1.355,0.298-2.451,1.293-2.876,2.614l-1.787,5.55
					c-0.598,1.857-2.318,3.124-4.269,3.144l-1.027,0.011c-1.854,0.014-3.644-0.642-5.038-1.861l-11.443-9.957
					c-2.281-1.989-3.157-5.137-2.231-8.015l3.021-9.381c0.957-2.971,3.639-5.037,6.708-5.224c0.189-0.019,0.373-0.023,0.561-0.018
					l12.637,0.131l11.142,10.201C475.645,213.6,476.461,216.689,475.555,219.502z"/>
			</g>
		</g>
		<g>
			<g>
				<path class="st3" d="M444.615,226.784l-2.855-0.919l5.281-16.4c0.774-2.406,2.992-4.087,5.52-4.181l5.665-0.211l0.111,2.998
					l-5.665,0.211c-1.271,0.047-2.386,0.892-2.775,2.102L444.615,226.784z"/>
			</g>
		</g>
		<g>
			<g>
				<path class="st3" d="M452.577,234.112l-2.855-0.919l5.164-16.036c0.705-2.19,2.556-3.767,4.829-4.115l3.911-0.6l0.455,2.965
					l-3.911,0.6c-1.144,0.175-2.074,0.968-2.429,2.069L452.577,234.112z"/>
			</g>
		</g>
		<g>
			<g>
				
					<rect x="427.764" y="250.231" transform="matrix(0.3065 -0.9519 0.9519 0.3065 61.3841 587.7141)" class="st3" width="12.524" height="3"/>
			</g>
		</g>
	</g>
	<g>
		<g>
			<path class="st10" d="M459.563,261.67l-47.772-14.651l-14.705,47.948l-8.216-22.317c-6.53-17.73-21.03-31.36-39.14-36.76
				l-47.3-14.09h-92.8l-49.94,14.86c-26.97,8.03-45.46,32.82-45.46,60.96v209.47H348V332.43l19.78,48.37
				c11.23,27.44,51.2,23.71,57.16-5.33L459.563,261.67z"/>
		</g>
	</g>
	<g>
		<g>
			<path class="st8" d="M397.145,295.132l-20.884,68.335l-0.001-3.025c-0.004-11.94,1.773-23.813,5.274-35.228l12.128-39.545
				L397.145,295.132z"/>
		</g>
	</g>
	<g>
		<g>
			<g>
				<rect x="164.2" y="291.194" class="st8" width="6" height="200"/>
			</g>
		</g>
	</g>
	<g>
		<g>
			<rect x="253.2" y="235.429" class="st8" width="6" height="255.765"/>
		</g>
	</g>
	<g>
		<g>
			<polygon class="st18" points="164.2,491.194 164.2,507.094 256.2,507.094 348.2,507.094 348.2,491.194 256.2,491.194 			"/>
		</g>
	</g>
	<g>
		<g>
			<rect x="245.434" y="491.194" class="st16" width="21.532" height="15.9"/>
		</g>
	</g>
	<g>
		<g>
			<polygon class="st8" points="228.942,208.171 209.635,221.8 234.621,259.28 250.522,237.701 256.2,235.429 			"/>
		</g>
	</g>
	<g>
		<g>
			<polygon class="st8" points="283.458,208.171 302.766,221.8 277.78,259.28 261.879,237.701 256.2,235.429 			"/>
		</g>
	</g>
	<g>
		<g>
			<path class="st2" d="M256.2,235.429L256.2,235.429c-15.054,0-27.258-12.204-27.258-27.258v-36.122h54.516v36.122
				C283.458,223.225,271.255,235.429,256.2,235.429z"/>
		</g>
	</g>
	<g>
		<g>
			<path class="st3" d="M228.942,186.684c8.334,3.721,17.554,5.809,27.258,5.809c9.704,0,18.924-2.087,27.258-5.809v-14.635h-54.516
				V186.684z"/>
		</g>
	</g>
	<g>
		<g>
			<path class="st2" d="M313.923,125.587c0,31.933-25.99,57.82-57.923,57.82s-57.923-25.887-57.923-57.82V65h115.846V125.587z"/>
		</g>
	</g>
	<g>
		<g>
			<path class="st2" d="M313.923,87.087h4.264c6.798,0,12.074,5.933,11.28,12.684l-1.591,13.523
				c-0.832,7.075-6.829,12.408-13.953,12.408h0V87.087z"/>
		</g>
	</g>
	<g>
		<g>
			<path class="st2" d="M198.077,87.097h-4.264c-6.799,0-12.074,5.933-11.28,12.684l1.591,13.523
				c0.832,7.075,6.829,12.408,13.953,12.408h0V87.097z"/>
		</g>
	</g>
	<g>
		<g>
			<polygon class="st3" points="261.879,140.977 248.397,140.977 249.803,124.099 255.783,124.597 254.917,134.977 261.879,134.977 
							"/>
		</g>
	</g>
	<g>
		<g>
			<path class="st4" d="M194,87.094h4.077v13.389l2.82-2.273c2.59-2.158,4.18-5.355,4.18-8.726V68.696c0,0,6.59,15.065,32.59,15.065
				c37.333,0,69.256-15.065,69.256-15.065v20.789c0,3.371,1.59,6.568,4.18,8.726l2.82,2.273V87.094H318V47.312
				c0-8.587-5.228-16.309-13.201-19.498l-4.299-1.72v0c0-11.598-9.402-21-21-21H247c-29.271,0-53,23.729-53,53V87.094z"/>
		</g>
	</g>
	<g>
		<g>
			<path class="st3" d="M266.118,164.713c-0.046-0.052-4.653-5.168-10.376-5.168c-0.011,0-0.022,0-0.034,0
				c-3.274,0.011-6.448,1.748-9.434,5.16l-4.516-3.951c4.186-4.784,8.891-7.209,13.983-7.209c8.48,0,14.627,6.915,14.885,7.209
				l-4.516,3.951l2.258-1.976L266.118,164.713z"/>
		</g>
	</g>
	<g>
		<g>
			<g>
				<path class="st5" d="M261.2,269.094h-10c-2.209,0-4-1.791-4-4v-18c0-2.209,1.791-4,4-4h10c2.209,0,4,1.791,4,4v18
					C265.2,267.303,263.409,269.094,261.2,269.094z"/>
			</g>
		</g>
		<g>
			<g>
				<path class="st5" d="M265.2,265.094l29.844,8.937c3.849,1.153,7.721-1.73,7.721-5.748v-2.671c0-1.681-0.424-3.336-1.233-4.81
					l-2.583-4.708l2.583-4.708c0.809-1.474,1.233-3.128,1.233-4.81v-2.671c0-4.018-3.872-6.9-7.721-5.748l-29.844,8.937V265.094z"/>
			</g>
		</g>
		<g>
			<g>
				<path class="st0" d="M265.2,265.094l3.905,1.169c0.057-0.383,0.095-0.771,0.095-1.169v-18c0-0.398-0.039-0.786-0.095-1.169
					l-3.905,1.169V265.094z"/>
			</g>
		</g>
		<g>
			<g>
				<path class="st5" d="M247.2,265.094l-29.844,8.937c-3.849,1.153-7.721-1.73-7.721-5.748v-2.671c0-1.681,0.424-3.336,1.233-4.81
					l2.583-4.708l-2.583-4.708c-0.809-1.474-1.233-3.128-1.233-4.81v-2.671c0-4.018,3.872-6.9,7.721-5.748l29.844,8.937V265.094z"/>
			</g>
		</g>
		<g>
			<g>
				<path class="st0" d="M247.2,265.094l-3.905,1.169c-0.057-0.383-0.095-0.771-0.095-1.169v-18c0-0.398,0.039-0.786,0.095-1.169
					l3.905,1.169V265.094z"/>
			</g>
		</g>
	</g>
	<g>
		<g>
			<circle class="st7" cx="270.2" cy="291.194" r="5"/>
		</g>
	</g>
	<g>
		<g>
			<circle class="st7" cx="270.2" cy="337.169" r="5"/>
		</g>
	</g>
	<g>
		<g>
			<circle class="st7" cx="270.2" cy="383.144" r="5"/>
		</g>
	</g>
	<g>
		<g>
			<circle class="st7" cx="270.2" cy="429.119" r="5"/>
		</g>
	</g>
	<g>
		<g>
			<circle class="st7" cx="270.2" cy="475.094" r="5"/>
		</g>
	</g>
	<g>
		<g>
			<g>
				<path class="st4" d="M290.45,95.176h-24c-2.209,0-4,1.791-4,4v5h-12.5v-5c0-2.209-1.791-4-4-4h-24c-2.209,0-4,1.791-4,4v14
					c0,2.209,1.791,4,4,4h24c2.209,0,4-1.791,4-4v-5h12.5v5c0,2.209,1.791,4,4,4h24c2.209,0,4-1.791,4-4v-14
					C294.45,96.966,292.659,95.176,290.45,95.176z"/>
			</g>
		</g>
		<g>
			<g>
				<g>
					<rect x="266.45" y="99.176" class="st10" width="24" height="14"/>
				</g>
			</g>
			<g>
				<g>
					<rect x="221.95" y="99.176" class="st10" width="24" height="14"/>
				</g>
			</g>
		</g>
	</g>
</g>
</svg>
