<?xml version="1.0" encoding="utf-8"?>
<!-- Generator: Adobe Illustrator 22.0.0, SVG Export Plug-In . SVG Version: 6.00 Build 0)  -->
<svg version="1.1" id="Layer_1" xmlns="http://www.w3.org/2000/svg" xmlns:xlink="http://www.w3.org/1999/xlink" x="0px" y="0px"
	 viewBox="0 0 512 512" style="enable-background:new 0 0 512 512;" xml:space="preserve">
<style type="text/css">
	.st0{fill:#FF7B7B;}
	.st1{fill:#FFB236;}
	.st2{fill:#FFD3B3;}
	.st3{fill:#FCB98B;}
	.st4{fill:#6E83B7;}
	.st5{fill:#FFB0AA;}
	.st6{fill:#EDEFF1;}
	.st7{fill:#FFE352;}
	.st8{fill:#46BEE8;}
	.st9{fill:#9CE5FF;}
	.st10{fill:#80D6FB;}
	.st11{fill:#FFE67B;}
	.st12{fill:#F76161;}
	.st13{fill:#98CA69;}
	.st14{fill:#75AA40;}
	.st15{fill:#BFEA8C;}
	.st16{fill:#D3D3D3;}
	.st17{fill:#466089;}
	.st18{fill:#7C93BF;}
	.st19{fill:#FFC69F;}
	.st20{fill:#859CC1;}
	.st21{fill:#EFA470;}
	.st22{fill:#C1C1C1;}
	.st23{fill:#E2935D;}
	.st24{fill:#99E5FF;}
</style>
<g>
	<g>
		<g>
			<path class="st4" d="M351.989,253.302L290,235l-34,72v-1l-34-71l-47.056,12.343c-9.165,2.404-17.631,6.944-24.704,13.25
				l-25.606,22.827l29.636-85.415l-55.002-14.914L57.312,307.346c-4.518,13.379-1.478,28.155,7.953,38.664l0,0
				c11.679,13.014,30.574,16.702,46.29,9.036L167,328l13,98l-11,81.047h87V507h87l-11-81l11-78v159h52V310.846
				C395,284.252,377.495,260.832,351.989,253.302z"/>
		</g>
	</g>
	<g>
		<g>
			<path class="st17" d="M306,213c7.5,12,29,23,29,23c-15.5-35-14-86-14-86h-65h-65c0,0,1.5,51-14,86c0,0,21.5-11,29-23
				c0,0-1.5,15-13,23c0,0,21-6.75,28-23l8,19h27h27l8-19c7,16.25,28,23,28,23C307.5,228,306,213,306,213z"/>
		</g>
	</g>
	<g>
		<g>
			<polygon class="st2" points="256,307 290,235 283,232 283,202 229,202 229,232 222,235 			"/>
		</g>
	</g>
	<g>
		<g>
			<path class="st2" d="M314,113h6.598c6.041,0,10.703,5.315,9.915,11.305l-2.597,19.739c-0.524,3.981-3.917,6.956-7.932,6.956H314
				V113z"/>
		</g>
	</g>
	<g>
		<g>
			<path class="st3" d="M229,215.396c8.282,3.598,17.41,5.604,27,5.604s18.718-2.006,27-5.604V202h-54V215.396z"/>
		</g>
	</g>
	<g>
		<g>
			<path class="st2" d="M314,153c0,32.033-25.967,58-58,58s-58-25.967-58-58V77h116V153z"/>
		</g>
	</g>
	<g>
		<g>
			<path class="st4" d="M245.937,124.078c0,0-17.793-7.382-32.937,5.679c0,0,17.604-4.543,29.529,1.136L245.937,124.078z"/>
		</g>
	</g>
	<g>
		<g>
			<path class="st4" d="M264.811,128.531c0,0,15.435-11.527,33.323-2.585c0,0-18.181-0.08-28.346,8.354L264.811,128.531z"/>
		</g>
	</g>
	<g>
		<g>
			<g>
				<path class="st4" d="M199.161,214.888c-0.054,0.037-0.107,0.075-0.161,0.112C199,215,199.059,215.065,199.161,214.888z"/>
			</g>
		</g>
		<g>
			<g>
				<path class="st4" d="M313,215c-0.054-0.038-0.107-0.075-0.161-0.112C312.941,215.065,313,215,313,215z"/>
			</g>
		</g>
		<g>
			<g>
				<path class="st4" d="M256,26L256,26c-35.899,0-65,29.102-65,65v22h11c0,90.559-2.217,100.797-2.839,101.888
					C206.741,209.58,212,203.29,212,150c0-53.667,44-59,44-59s44,5.333,44,59c0,53.29,5.259,59.58,12.839,64.888
					c-0.583-1.021-2.564-10.085-2.813-85.617L314,140v-27h7V91C321,55.102,291.899,26,256,26z"/>
			</g>
		</g>
	</g>
	<g>
		<g>
			<polygon class="st3" points="259,170 249.158,170 253.089,154.272 258.911,155.728 256.842,164 259,164 			"/>
		</g>
	</g>
	<g>
		<g>
			<path class="st19" d="M284,163h-10c-2.209,0-4-1.791-4-4l0,0c0-2.209,1.791-4,4-4h10c2.209,0,4,1.791,4,4l0,0
				C288,161.209,286.209,163,284,163z"/>
		</g>
	</g>
	<g>
		<g>
			<path class="st19" d="M228,163h10c2.209,0,4-1.791,4-4l0,0c0-2.209-1.791-4-4-4h-10c-2.209,0-4,1.791-4,4l0,0
				C224,161.209,225.791,163,228,163z"/>
		</g>
	</g>
	<g>
		<g>
			<path class="st4" d="M236,139c-0.022,0-0.044,0.003-0.067,0.003c-0.62,0.028-5.516,0.18-7.933-2.003c0,0,0.619,2.919,2.817,4.987
				C230.301,142.874,230,143.901,230,145c0,3.314,2.686,6,6,6s6-2.686,6-6S239.314,139,236,139z"/>
		</g>
	</g>
	<g>
		<g>
			<path class="st4" d="M276,139c0.022,0,0.044,0.003,0.067,0.003c0.62,0.028,5.516,0.18,7.933-2.003c0,0-0.619,2.919-2.817,4.987
				c0.516,0.886,0.817,1.913,0.817,3.013c0,3.314-2.686,6-6,6s-6-2.686-6-6S272.686,139,276,139z"/>
		</g>
	</g>
	<g>
		<g>
			<path class="st6" d="M246,181h20l-0.106,0.425c-1.113,4.452-5.113,7.575-9.701,7.575h-0.384c-4.589,0-8.589-3.123-9.701-7.575
				L246,181z"/>
		</g>
	</g>
	<g>
		<g>
			<polygon class="st20" points="280,300 320,288 309.15,240.654 290,235 256,307 256,369 302,336 			"/>
		</g>
	</g>
	<g>
		<g>
			<path class="st2" d="M198,113h-6.598c-6.041,0-10.703,5.315-9.915,11.305l2.597,19.739c0.524,3.981,3.917,6.956,7.932,6.956H198
				V113z"/>
		</g>
	</g>
	<g>
		<g>
			<polygon class="st4" points="259.318,299.974 256,307 256,369 281.151,350.957 			"/>
		</g>
	</g>
	<g>
		<g>
			<polygon class="st17" points="295,506 287,506 287,393 295,399 			"/>
		</g>
	</g>
	<g>
		<g>
			<circle class="st17" cx="273" cy="414" r="8"/>
		</g>
	</g>
	<g>
		<g>
			<circle class="st17" cx="273" cy="448" r="8"/>
		</g>
	</g>
	<g>
		<g>
			<circle class="st17" cx="273" cy="482" r="8"/>
		</g>
	</g>
	<g>
		<g>
			<circle class="st4" cx="215.1" cy="138.338" r="38.333"/>
		</g>
	</g>
	<g>
		<g>
			<circle class="st10" cx="215.1" cy="138.338" r="29.333"/>
		</g>
	</g>
	<g>
		<g>
			
				<rect x="90.673" y="142.654" transform="matrix(0.9895 -0.1443 0.1443 0.9895 -20.3065 21.2957)" class="st4" width="92" height="16"/>
		</g>
	</g>
	<g>
		<g>
			<path class="st2" d="M109.969,123.394l-4.636,23.104c-0.969,4.83-1.541,9.729-1.711,14.649c-0.075,2.175,0.194,4.349,0.809,6.436
				l4.223,14.327l-1.041,3.444l36.872,9.998l1.589-5.914l9.427-11.569c1.353-1.66,2.436-3.524,3.197-5.526
				c1.765-4.641,3.145-9.42,4.125-14.292l4.645-23.09L109.969,123.394z"/>
		</g>
	</g>
	<g>
		<g>
			<path class="st3" d="M149.914,147.864l14.369,2.92l-1.462,7.267c-0.37,1.84-0.817,3.661-1.301,5.472
				c-0.704-0.008-1.417-0.074-2.133-0.218l-15.768-3.172c-3.966-0.798-7.031-3.577-8.394-7.097
				c-0.384-0.364-0.747-0.747-1.075-1.159c-2.275,1.242-4.98,1.726-7.714,1.176c-2.735-0.55-5.042-2.042-6.66-4.068
				c-2.275,1.242-4.98,1.727-7.715,1.176c-2.729-0.549-5.033-2.036-6.65-4.056l4.558-22.712l43.123,8.675L149.914,147.864z"/>
		</g>
	</g>
	<g>
		<g>
			<path class="st2" d="M140.659,151.741l1.916,0.386c3.44,0.692,6.79-1.536,7.482-4.976l5.373-26.71
				c0.692-3.44-1.536-6.79-4.976-7.482l-1.916-0.386c-3.44-0.692-6.79,1.536-7.482,4.976l-5.373,26.71
				C134.991,147.699,137.219,151.049,140.659,151.741z"/>
		</g>
	</g>
	<g>
		<g>
			<path class="st2" d="M154.839,155.561l1.916,0.386c3.44,0.692,6.79-1.536,7.482-4.976l5.373-26.71
				c0.692-3.44-1.536-6.79-4.976-7.482l-1.916-0.386c-3.44-0.692-6.79,1.536-7.482,4.976l-5.373,26.71
				C149.171,151.519,151.399,154.869,154.839,155.561z"/>
		</g>
	</g>
	<g>
		<g>
			<path class="st3" d="M135.643,143.954c2.339-4.263,7.259-6.718,12.271-5.709l3.677,0.74l-1.552,7.717
				c-0.799,3.969-4.664,6.54-8.633,5.741C137.485,151.654,134.935,147.872,135.643,143.954z"/>
		</g>
	</g>
	<g>
		<g>
			<path class="st3" d="M151.591,138.985l-1.777,8.935c-0.692,3.44,1.536,6.79,4.976,7.482l1.916,0.386
				c3.44,0.692,6.79-1.536,7.482-4.976l1.929-9.183L151.591,138.985z"/>
		</g>
	</g>
	<g>
		<g>
			<path class="st2" d="M168.635,154.511l0.386-1.916c0.692-3.44-1.536-6.79-4.976-7.482l-17.684-3.557
				c-3.44-0.692-6.79,1.536-7.482,4.976l-0.386,1.916c-0.692,3.44,1.536,6.79,4.976,7.482l17.684,3.557
				C164.593,160.179,167.943,157.951,168.635,154.511z"/>
		</g>
	</g>
	<g>
		<g>
			<path class="st2" d="M126.285,148.85l1.916,0.386c3.44,0.692,6.79-1.536,7.482-4.976l4.768-23.701
				c0.692-3.44-1.536-6.79-4.976-7.482l-1.916-0.386c-3.44-0.692-6.79,1.536-7.482,4.976l-4.768,23.701
				C120.617,144.808,122.845,148.158,126.285,148.85z"/>
		</g>
	</g>
	<g>
		<g>
			<path class="st2" d="M111.911,145.958l1.916,0.386c3.44,0.692,6.79-1.536,7.482-4.976l3.557-17.684
				c0.692-3.44-1.536-6.79-4.976-7.482l-1.916-0.386c-3.44-0.692-6.79,1.536-7.482,4.976l-3.557,17.684
				C106.243,141.916,108.471,145.266,111.911,145.958z"/>
		</g>
	</g>
	<g>
		<g>
			<path class="st3" d="M129.303,186.162l-3.879-0.975c0.04-0.158,3.841-15.891-4.961-24.268l2.758-2.898
				C133.725,168.02,129.488,185.427,129.303,186.162z"/>
		</g>
	</g>
	<g>
		<g>
			<polygon class="st20" points="232,300 210,336 295,399 256,307 222,235 203,240 192,288 			"/>
		</g>
	</g>
	<g>
		<g>
			<polygon class="st17" points="124.634,283.42 115,310 140.898,268.921 			"/>
		</g>
	</g>
	<g>
		<g>
			<path class="st17" d="M256.123,100.816h93.158c4.393,0,5.575-6.054,1.504-7.706L324.81,82.566H256h-68.81l-25.976,10.544
				c-4.07,1.652-2.888,7.706,1.504,7.706h93.158H256.123z"/>
		</g>
	</g>
	<g>
		<g>
			<path class="st17" d="M324.686,82.566l-14.778-57.379c-3.067-11.91-13.807-20.234-26.105-20.234h0
				c-4.731,0-9.378,1.245-13.475,3.61l-0.854,0.493c-8.339,4.813-18.611,4.813-26.95,0l-0.854-0.493
				c-4.097-2.365-8.744-3.61-13.475-3.61h0c-12.298,0-23.038,8.324-26.105,20.234l-14.778,57.379H324.686z"/>
		</g>
	</g>
	<g>
		<g>
			<polygon class="st4" points="192.821,61.182 187.314,82.566 324.686,82.566 319.179,61.182 			"/>
		</g>
	</g>
</g>
</svg>
