<?xml version="1.0" encoding="utf-8"?>
<!-- Generator: Adobe Illustrator 22.0.0, SVG Export Plug-In . SVG Version: 6.00 Build 0)  -->
<svg version="1.1" id="Layer_1" xmlns="http://www.w3.org/2000/svg" xmlns:xlink="http://www.w3.org/1999/xlink" x="0px" y="0px"
	 viewBox="0 0 512 512" style="enable-background:new 0 0 512 512;" xml:space="preserve">
<style type="text/css">
	.st0{fill:#FF7B7B;}
	.st1{fill:#FFB236;}
	.st2{fill:#FFD3B3;}
	.st3{fill:#FCB98B;}
	.st4{fill:#6E83B7;}
	.st5{fill:#FFB0AA;}
	.st6{fill:#EDEFF1;}
	.st7{fill:#FFE352;}
	.st8{fill:#46BEE8;}
	.st9{fill:#9CE5FF;}
	.st10{fill:#80D6FB;}
	.st11{fill:#FFE67B;}
	.st12{fill:#F76161;}
	.st13{fill:#98CA69;}
	.st14{fill:#75AA40;}
	.st15{fill:#BFEA8C;}
	.st16{fill:#D3D3D3;}
	.st17{fill:#466089;}
	.st18{fill:#7C93BF;}
	.st19{fill:#FFC69F;}
	.st20{fill:#859CC1;}
	.st21{fill:#EFA470;}
	.st22{fill:#C1C1C1;}
	.st23{fill:#E2935D;}
	.st24{fill:#99E5FF;}
</style>
<g>
	<g>
		<g>
			<g>
				<path class="st3" d="M81.717,241.483l2.733-0.885l-13.941-47.807c-1.38-4.73-3.727-9.12-6.881-12.91l-10.007-12.014
					c-2.079-2.491-4.471-4.686-7.131-6.522l-13.887-9.613c-2.966-2.052-7.042-1.272-9.049,1.729
					c-0.735,1.102-1.084,2.347-1.084,3.575c0,1.016,0.241,2.022,0.702,2.932c-0.182,0.208-0.356,0.425-0.514,0.661
					c-0.735,1.102-1.084,2.347-1.084,3.575c0,0.91,0.203,1.809,0.574,2.641c-0.384,0.85-0.574,1.751-0.574,2.645
					c0,2.052,0.977,4.058,2.786,5.313l18.071,12.516l8.063,17.022l9.855,42.108l0.582,1.756l1.593-0.516l0.002,0.005l2.965-0.959
					l0,0.001l3.852-1.247l12.373-4.003L81.717,241.483z"/>
			</g>
		</g>
		<g>
			<g>
				<path class="st2" d="M90.56,247.344l-16.723-57.336c-1.379-4.729-3.719-9.123-6.873-12.908l-10.015-12.018
					c-2.072-2.486-4.471-4.68-7.132-6.523l-13.879-9.609c-2.97-2.056-7.048-1.277-9.052,1.728l0,0
					c-1.954,2.932-1.199,6.889,1.698,8.894l18.075,12.514l8.063,17.023l9.855,42.108l7.167,21.502L90.56,247.344z"/>
			</g>
		</g>
		<g>
			<g>
				<path class="st3" d="M50.799,180.831l3.924,8.278l3.987,17.049l3.745-1.236L54.544,184.8
					C53.836,182.99,52.483,181.601,50.799,180.831z"/>
			</g>
		</g>
		<g>
			<g>
				<path class="st2" d="M62.552,255.689l-5.617-15.446c-1.012-2.782-2.812-5.21-5.18-6.986l0,0c-4.4-3.3-6.681-8.714-5.97-14.168
					l1.144-8.772c0.259-1.985,0.124-4.002-0.396-5.935l-4.161-15.456c-0.748-2.777,0.754-5.665,3.457-6.648h0
					c2.824-1.027,5.952,0.384,7.051,3.181l7.88,20.059l14.238,46.274L62.552,255.689z"/>
			</g>
		</g>
	</g>
	<g>
		<g>
			<g>
				<path class="st3" d="M490.426,164.202c0-1.227-0.349-2.473-1.084-3.575c-0.158-0.236-0.332-0.453-0.514-0.661
					c0.461-0.91,0.702-1.916,0.702-2.932c0-1.227-0.349-2.473-1.084-3.575c-2.007-3.001-6.083-3.781-9.049-1.729l-13.887,9.613
					c-2.661,1.837-5.053,4.031-7.131,6.522l-10.007,12.014c-3.154,3.79-5.501,8.18-6.881,12.91l-13.941,47.807l2.733,0.885
					l-0.001,0.002l12.373,4.003l3.852,1.247l0-0.001l2.965,0.959l0.002-0.005l1.593,0.516l0.582-1.756l9.855-42.108l8.063-17.022
					l18.071-12.516c1.81-1.254,2.786-3.261,2.786-5.313c0-0.893-0.191-1.795-0.574-2.645
					C490.224,166.011,490.426,165.112,490.426,164.202z"/>
			</g>
		</g>
		<g>
			<g>
				<path class="st2" d="M421.44,247.344l16.723-57.336c1.379-4.729,3.719-9.123,6.873-12.908l10.015-12.018
					c2.072-2.486,4.471-4.68,7.132-6.523l13.879-9.609c2.97-2.056,7.048-1.277,9.052,1.728v0c1.954,2.932,1.199,6.889-1.698,8.894
					l-18.075,12.514l-8.063,17.023l-9.855,42.108l-7.167,21.502L421.44,247.344z"/>
			</g>
		</g>
		<g>
			<g>
				<path class="st3" d="M461.201,180.831l-3.924,8.278l-3.987,17.049l-3.745-1.236l7.911-20.122
					C458.164,182.99,459.517,181.601,461.201,180.831z"/>
			</g>
		</g>
		<g>
			<g>
				<path class="st2" d="M449.448,255.689l5.617-15.446c1.012-2.782,2.812-5.21,5.18-6.986v0c4.4-3.3,6.681-8.714,5.97-14.168
					l-1.144-8.772c-0.259-1.985-0.124-4.002,0.396-5.935l4.161-15.456c0.748-2.777-0.754-5.665-3.457-6.648l0,0
					c-2.824-1.027-5.952,0.384-7.051,3.181l-7.88,20.059l-14.238,46.274L449.448,255.689z"/>
			</g>
		</g>
	</g>
	<g>
		<g>
			<path class="st6" d="M463.563,251.67l-47.772-14.651l-16.039,52.298l-9.615-23.551C383.609,248.031,369.108,234.408,351,229
				l-47-15l-20-15h-56l-20,15l-47,15c-18.108,5.408-32.609,19.031-39.137,36.765l-9.615,23.551l-16.039-52.298L48.437,251.67
				l33.938,110.66l0.076-0.023l-0.026,0.063l0.636,3.1c5.956,29.039,45.934,32.766,57.156,5.329L161,320v187.094L256,507l95,0.094
				V320l20.784,50.799c11.222,27.437,51.2,23.709,57.156-5.329l0.636-3.1l-0.026-0.063l0.076,0.023L463.563,251.67z"/>
		</g>
	</g>
	<g>
		<g>
			<path class="st16" d="M115.832,280.539l10.634,34.675c3.501,11.415,5.279,23.288,5.274,35.228l-0.001,3.025l-19.556-63.99
				L115.832,280.539z"/>
		</g>
	</g>
	<g>
		<g>
			<rect x="161" y="491" class="st17" width="84" height="16"/>
		</g>
	</g>
	<g>
		<g>
			<polygon class="st16" points="256,231.472 252.692,233.126 233.935,259.809 203.337,215.488 208,214 228,199 256,227 			"/>
		</g>
	</g>
	<g>
		<g>
			<polygon class="st6" points="228,199 208,214 234.011,252.746 250,230 256,227 			"/>
		</g>
	</g>
	<g>
		<g>
			<path class="st16" d="M396.168,280.539l-10.634,34.675c-3.501,11.415-5.279,23.288-5.274,35.228l0.001,3.025l19.556-63.99
				L396.168,280.539z"/>
		</g>
	</g>
	<g>
		<g>
			<rect x="245" y="491" class="st7" width="22" height="16"/>
		</g>
	</g>
	<g>
		<g>
			<rect x="267" y="491" class="st17" width="84" height="16"/>
		</g>
	</g>
	<g>
		<g>
			<polygon class="st16" points="256,231.472 259.308,233.126 278.065,259.809 308.663,215.488 304,214 284,199 256,227 			"/>
		</g>
	</g>
	<g>
		<g>
			<polygon class="st2" points="256,172 228,172 228,199 256,227 284,199 284,172 			"/>
		</g>
	</g>
	<g>
		<g>
			<path class="st3" d="M228,186c8.334,3.721,18.296,6,28,6c9.704,0,19.666-2.279,28-6v-14h-56V186z"/>
		</g>
	</g>
	<g>
		<g>
			<path class="st2" d="M196,83h-6.95c-5.916,0-10.539,5.108-9.95,10.995l2,20c0.511,5.112,4.813,9.005,9.95,9.005H196V83z"/>
		</g>
	</g>
	<g>
		<g>
			<path class="st2" d="M316,83h6.95c5.916,0,10.539,5.108,9.95,10.995l-2,20c-0.511,5.112-4.813,9.005-9.95,9.005H316V83z"/>
		</g>
	</g>
	<g>
		<g>
			<polygon class="st6" points="284,199 304,214 277.989,252.746 262,230 256,227 			"/>
		</g>
	</g>
	<g>
		<g>
			<path class="st2" d="M256,57h-60v67c0,33.137,26.863,60,60,60s60-26.863,60-60V57H256z"/>
		</g>
	</g>
	<g>
		<g>
			<circle class="st4" cx="234.2" cy="110.094" r="6"/>
		</g>
	</g>
	<g>
		<g>
			<circle class="st4" cx="278.2" cy="110.094" r="6"/>
		</g>
	</g>
	<g>
		<g>
			<polygon class="st3" points="262.488,139.463 248.549,139.463 250.006,121.976 255.985,122.474 255.069,133.463 262.488,133.463 
							"/>
		</g>
	</g>
	<g>
		<g>
			<path class="st4" d="M245.876,87.915c0,0-18.589-7.713-34.41,5.933c0,0,18.392-4.746,30.85,1.187L245.876,87.915z"/>
		</g>
	</g>
	<g>
		<g>
			<path class="st4" d="M263.926,87.915c0,0,18.589-7.713,34.41,5.933c0,0-18.392-4.746-30.85,1.187L263.926,87.915z"/>
		</g>
	</g>
	<g>
		<g>
			<path class="st3" d="M256.644,166c-8.479,0-14.627-6.915-14.885-7.209l4.516-3.951l-2.258,1.976l2.251-1.983
				c0.046,0.052,4.653,5.168,10.376,5.168c0.011,0,0.022,0,0.034,0c3.273-0.012,6.447-1.748,9.434-5.16l4.516,3.951
				C266.441,163.575,261.736,166,256.644,166z"/>
		</g>
	</g>
	<g>
		<g>
			<path class="st4" d="M275,5h-4.279c-3.105,0-6.167,0.723-8.944,2.111c-3.637,1.818-7.917,1.818-11.554,0
				C247.446,5.723,244.384,5,241.279,5H237c-26.51,0-48,21.49-48,48v30h7v20l10-20v-9h11.456c7.542,0,14.93-2.132,21.313-6.151
				L256,57l17.231,10.849C279.614,71.868,287.002,74,294.544,74H306v9l10,20V83h7V53C323,26.49,301.51,5,275,5z"/>
		</g>
	</g>
	<g>
		<g>
			<polygon class="st5" points="256,261 248,261 240.058,475.5 256,491 271.942,475.5 264,261 			"/>
		</g>
	</g>
	<g>
		<g>
			<path class="st0" d="M261.73,269.357h-2c0-8.797-2.707-9.357-2.735-9.357H255c-0.719,0.091-2.73,1.954-2.73,9.357h-2
				c0-11.02,4.243-11.355,4.726-11.357H257C257.488,258.002,261.73,258.338,261.73,269.357z"/>
		</g>
	</g>
	<g>
		<g>
			<polygon class="st5" points="256,261 264,261 274.81,248.224 262,230 256,227 250,230 237.189,248.224 248,261 			"/>
		</g>
	</g>
	<g>
		<g>
			<path class="st0" d="M259.362,255h-6.724c-2.942,0-5.734-1.295-7.634-3.541l-5.511-6.513l-2.304,3.277L248,261h16l10.81-12.776
				l-2.304-3.277l-5.511,6.513C265.096,253.705,262.303,255,259.362,255z"/>
		</g>
	</g>
</g>
</svg>
