<?xml version="1.0" encoding="utf-8"?>
<!-- Generator: Adobe Illustrator 22.0.0, SVG Export Plug-In . SVG Version: 6.00 Build 0)  -->
<svg version="1.1" id="Layer_1" xmlns="http://www.w3.org/2000/svg" xmlns:xlink="http://www.w3.org/1999/xlink" x="0px" y="0px"
	 viewBox="0 0 512 512" style="enable-background:new 0 0 512 512;" xml:space="preserve">
<style type="text/css">
	.st0{fill:#FF7B7B;}
	.st1{fill:#FFB236;}
	.st2{fill:#FFD3B3;}
	.st3{fill:#FCB98B;}
	.st4{fill:#6E83B7;}
	.st5{fill:#FFB0AA;}
	.st6{fill:#EDEFF1;}
	.st7{fill:#FFE352;}
	.st8{fill:#46BEE8;}
	.st9{fill:#9CE5FF;}
	.st10{fill:#80D6FB;}
	.st11{fill:#FFE67B;}
	.st12{fill:#F76161;}
	.st13{fill:#98CA69;}
	.st14{fill:#75AA40;}
	.st15{fill:#BFEA8C;}
	.st16{fill:#D3D3D3;}
	.st17{fill:#466089;}
	.st18{fill:#7C93BF;}
	.st19{fill:#FFC69F;}
	.st20{fill:#859CC1;}
	.st21{fill:#EFA470;}
	.st22{fill:#C1C1C1;}
	.st23{fill:#E2935D;}
	.st24{fill:#99E5FF;}
</style>
<g>
	<g>
		<polygon class="st17" points="321,150 321,269 256,269 191,269 191,150 		"/>
	</g>
	<g>
		<path class="st2" d="M474.061,222.748l-11.14-10.198l-4.855-20.183c-0.412-1.452-1.249-2.747-2.403-3.718
			c0,0-4.443-3.741-7.914-6.667c-2.225-1.875-5.556-1.555-7.398,0.73l-0.083,0.103c-1.757,2.179-1.4,5.373,0.794,7.109l3.815,3.019
			c1.496,1.184,2.488,2.89,2.777,4.775l2.684,17.759c0.409,2.704-0.848,5.389-3.186,6.807l-5.963,3.617
			c-1.883,1.142-4.204,1.297-6.222,0.417c-2.302-1.004-3.86-3.199-4.049-5.703l-0.829-11.031c-0.395-3.414-3.545-5.818-6.942-5.297
			c-3.1,0.475-5.326,3.236-5.133,6.366l1.802,29.289c0.099,1.606,0.591,3.163,1.433,4.534l0.001,0.002
			c1.5,2.442,1.857,5.418,0.979,8.146l-3.745,11.629l-19.693,51.624l-10.721-28.814c-6.33-17.012-20.384-29.992-37.845-34.952
			L290,235l-7-3v-36h-54v36l-7,3l-64.147,19.13C132.427,261.713,115,285.095,115,311.628V507h49V348l16,79l-16,80h92h92l-16-80
			l16-79l17.861,52.094c9.444,27.546,48.644,26.839,57.089-1.029L426,389l26.295-113.86l1.874-5.82
			c0.582-1.808,1.824-3.331,3.479-4.265l4.953-2.796c2.647-1.494,4.635-3.931,5.566-6.824l7.984-24.795
			C477.058,227.826,476.241,224.744,474.061,222.748z"/>
	</g>
	<g>
		<path class="st2" d="M314,113h6.598c6.041,0,10.703,5.315,9.915,11.305l-2.597,19.739c-0.524,3.981-3.917,6.956-7.932,6.956H314
			V113z"/>
	</g>
	<g>
		<path class="st2" d="M198,113h-6.598c-6.041,0-10.703,5.315-9.915,11.305l2.597,19.739c0.524,3.981,3.917,6.956,7.932,6.956H198
			V113z"/>
	</g>
	<g>
		<path class="st3" d="M229,215.396c8.282,3.598,17.41,5.604,27,5.604s18.718-2.006,27-5.604V202h-54V215.396z"/>
	</g>
	<g>
		<path class="st2" d="M314,153c0,32.033-25.967,58-58,58s-58-25.967-58-58v-47h116V153z"/>
	</g>
	<g>
		<polygon class="st4" points="301,106 314,140 314,113 321,113 321,106 		"/>
	</g>
	<g>
		<polygon class="st4" points="211,106 198,140 198,113 191,113 191,106 		"/>
	</g>
	<g>
		<path class="st4" d="M245.437,124.578c0,0-17.793-7.382-32.937,5.679c0,0,17.604-4.543,29.529,1.136L245.437,124.578z"/>
	</g>
	<g>
		<path class="st4" d="M265.563,124.578c0,0,17.793-7.382,32.937,5.679c0,0-17.604-4.543-29.529,1.136L265.563,124.578z"/>
	</g>
	<g>
		<polygon class="st3" points="259,170 249.157,170 253.09,154.272 258.91,155.728 256.843,164 259,164 		"/>
	</g>
	<g>
		<path class="st19" d="M284,163h-10c-2.209,0-4-1.791-4-4l0,0c0-2.209,1.791-4,4-4h10c2.209,0,4,1.791,4,4l0,0
			C288,161.209,286.209,163,284,163z"/>
	</g>
	<g>
		<path class="st19" d="M228,163h10c2.209,0,4-1.791,4-4l0,0c0-2.209-1.791-4-4-4h-10c-2.209,0-4,1.791-4,4l0,0
			C224,161.209,225.791,163,228,163z"/>
	</g>
	<g>
		<path class="st4" d="M235.5,139.5c-0.022,0-0.044,0.003-0.067,0.003c-0.62,0.028-5.516,0.18-7.933-2.003
			c0,0,0.619,2.919,2.817,4.987c-0.516,0.886-0.817,1.913-0.817,3.013c0,3.314,2.686,6,6,6s6-2.686,6-6S238.814,139.5,235.5,139.5z"
			/>
	</g>
	<g>
		<path class="st4" d="M275.5,139.5c0.022,0,0.044,0.003,0.067,0.003c0.62,0.028,5.516,0.18,7.933-2.003
			c0,0-0.619,2.919-2.817,4.987c0.516,0.886,0.817,1.913,0.817,3.013c0,3.314-2.686,6-6,6s-6-2.686-6-6S272.186,139.5,275.5,139.5z"
			/>
	</g>
	<g>
		<path class="st3" d="M375.144,354.781l19.325-50.52l4.322,11.615L377,373l-1.065-2.129
			C373.428,365.856,373.141,360.018,375.144,354.781z"/>
	</g>
	<g>
		<path class="st3" d="M474.061,222.748l-11.242-10.231l-0.496-2.256l-11.887-0.134c-0.28-0.008-0.674,0.026-0.676,0.01l0,0.003
			l0.689,5.32c0.409,2.704-0.904,5.398-3.242,6.816l-5.991,3.621c-1.071,0.65-2.298,0.971-3.516,0.973
			c-0.943,3.596,0.211,7.43,3.042,9.897l11.434,9.954c1.007,0.881,2.163,1.536,3.439,1.947c1.003,0.323,2.048,0.483,3.113,0.475
			l0.855-0.065c2.931-0.03,5.334-1.98,6.233-4.771l1.787-5.55c0.177-0.551,0.605-0.982,1.17-1.106l5.506-1.198l1.872-5.812
			C477.058,227.826,476.241,224.744,474.061,222.748z"/>
	</g>
	<g>
		<path class="st2" d="M476.151,230.642l-1.133,3.518l-6.355,1.397c-1.355,0.298-2.451,1.293-2.876,2.614L464,243.72
			c-0.598,1.857-2.318,3.124-4.269,3.144l-1.027,0.011c-1.855,0.014-3.644-0.642-5.038-1.861l-11.443-9.957
			c-2.281-1.989-3.157-5.137-2.231-8.015l3.021-9.381c0.957-2.971,3.639-5.037,6.708-5.224c0.189-0.019,0.373-0.023,0.561-0.018
			l12.637,0.131l11.142,10.201C476.241,224.74,477.057,227.829,476.151,230.642z"/>
	</g>
	<g>
		<path class="st3" d="M445.211,237.925l-2.855-0.92l5.281-16.4c0.773-2.406,2.992-4.086,5.52-4.181l5.666-0.211l0.111,2.998
			l-5.666,0.211c-1.271,0.048-2.386,0.893-2.775,2.102L445.211,237.925z"/>
	</g>
	<g>
		<path class="st3" d="M453.173,245.252l-2.855-0.92l5.164-16.036c0.705-2.189,2.556-3.767,4.829-4.115l3.912-0.6l0.455,2.965
			l-3.912,0.6c-1.144,0.176-2.074,0.969-2.429,2.07L453.173,245.252z"/>
	</g>
	<g>
		
			<rect x="428.36" y="261.371" transform="matrix(0.3066 -0.9518 0.9518 0.3066 51.1418 595.9473)" class="st3" width="12.524" height="3"/>
	</g>
	<g>
		<rect x="426.272" y="71.697" class="st4" width="16.699" height="143.929"/>
	</g>
	<g>
		
			<rect x="426.272" y="71.697" transform="matrix(-1 8.986799e-11 -8.986799e-11 -1 869.2434 170.0917)" class="st6" width="16.699" height="26.699"/>
	</g>
	<g>
		<path class="st7" d="M416.294,83.253l5.206-1.973l-5.206-1.973c-2.085-0.79-3.671-2.523-4.272-4.67l-2.272-8.107l-2.272,8.107
			c-0.602,2.147-2.187,3.88-4.272,4.67L398,81.28l5.206,1.973c2.085,0.79,3.671,2.523,4.272,4.67l2.272,8.107l2.272-8.107
			C412.624,85.776,414.21,84.043,416.294,83.253z"/>
	</g>
	<g>
		<path class="st7" d="M454.862,61.518l4.147-1.571l-4.147-1.571c-1.661-0.629-2.924-2.01-3.403-3.72l-1.81-6.458l-1.81,6.458
			c-0.479,1.71-1.742,3.091-3.403,3.72l-4.147,1.571l4.147,1.571c1.661,0.629,2.924,2.01,3.403,3.72l1.81,6.458l1.81-6.458
			C451.938,63.528,453.201,62.147,454.862,61.518z"/>
	</g>
	<g>
		<path class="st7" d="M429.711,46.786l2.735-1.036l-2.735-1.036c-1.095-0.415-1.929-1.326-2.245-2.454L426.272,38l-1.194,4.26
			c-0.316,1.128-1.149,2.039-2.245,2.454l-2.735,1.036l2.735,1.036c1.095,0.415,1.929,1.326,2.245,2.454l1.194,4.26l1.194-4.26
			C427.782,48.112,428.616,47.202,429.711,46.786z"/>
	</g>
	<g>
		<path class="st6" d="M246,181h20l-0.106,0.425c-1.113,4.452-5.113,7.575-9.701,7.575h-0.384c-4.589,0-8.589-3.123-9.701-7.575
			L246,181z"/>
	</g>
	<g>
		<path class="st4" d="M256,507h92l-16-80l16-79v-6.339c0-27.062-21.938-49-49-49c-18.543,0-34.678,10.303-43,25.494
			c-8.322-15.192-24.457-25.494-43-25.494c-27.062,0-49,21.938-49,49V348l16,79l-16,80H256z"/>
	</g>
	<g>
		<path class="st4" d="M256,507h92l-16-80l16-79v-6.339c0-27.062-21.938-49-49-49c-18.543,0-34.678,10.303-43,25.494
			c-8.322-15.192-24.457-25.494-43-25.494c-27.062,0-49,21.938-49,49V348l16,79l-16,80H256z"/>
	</g>
	<g>
		<g>
			<g>
				<path class="st5" d="M164.017,341c5.262,0,9.789-3.649,10.986-8.772c4.003-17.139,19.52-29.566,37.997-29.566
					c14.255,0,27.371,7.778,34.229,20.299L256,338.969l8.771-16.009c6.858-12.521,19.975-20.299,34.229-20.299
					c18.477,0,33.993,12.427,37.997,29.566c1.197,5.124,5.725,8.772,10.986,8.772h0c-0.356-26.756-22.143-48.339-48.983-48.339
					c-18.543,0-34.678,10.303-43,25.494c-8.322-15.192-24.457-25.494-43-25.494C186.16,292.661,164.372,314.244,164.017,341
					L164.017,341z"/>
			</g>
		</g>
	</g>
	<g>
		<g>
			<rect x="179" y="94" class="st4" width="154" height="12"/>
		</g>
		<g>
			<rect x="190" y="5" class="st4" width="132" height="89"/>
		</g>
		<g>
			<rect x="190" y="76" class="st5" width="132" height="18"/>
		</g>
	</g>
	<g>
		<path class="st3" d="M259,312h-6c-0.004-0.352-0.191-9.037-8.395-13.344l2.789-5.312c4.212,2.212,6.896,5.244,8.605,8.224
			c1.71-2.979,4.394-6.012,8.605-8.224l2.789,5.312C259.096,303.013,259,311.91,259,312z"/>
	</g>
	<g>
		<polygon class="st5" points="177.468,414.5 180,427 176.5,444.5 335.5,444.5 332,427 334.532,414.5 		"/>
	</g>
	<g>
		<g>
			<g>
				<path class="st5" d="M261,260.193h-10c-2.209,0-4-1.791-4-4v-18c0-2.209,1.791-4,4-4h10c2.209,0,4,1.791,4,4v18
					C265,258.403,263.209,260.193,261,260.193z"/>
			</g>
		</g>
		<g>
			<g>
				<path class="st5" d="M265,256.193l29.844,8.937c3.849,1.153,7.721-1.73,7.721-5.748v-2.671c0-1.681-0.424-3.336-1.233-4.81
					l-2.583-4.708l2.583-4.709c0.809-1.474,1.233-3.128,1.233-4.81v-2.671c0-4.018-3.872-6.9-7.721-5.748L265,238.193V256.193z"/>
			</g>
		</g>
		<g>
			<g>
				<path class="st0" d="M265,256.193l3.905,1.169c0.057-0.383,0.095-0.771,0.095-1.169v-18c0-0.398-0.039-0.786-0.095-1.169
					L265,238.193V256.193z"/>
			</g>
		</g>
		<g>
			<g>
				<path class="st5" d="M247,256.193l-29.844,8.937c-3.849,1.153-7.721-1.73-7.721-5.748v-2.671c0-1.681,0.424-3.336,1.233-4.81
					l2.583-4.708l-2.583-4.709c-0.809-1.474-1.233-3.128-1.233-4.81v-2.671c0-4.018,3.872-6.9,7.721-5.748L247,238.193V256.193z"/>
			</g>
		</g>
		<g>
			<g>
				<path class="st0" d="M247,256.193l-3.905,1.169c-0.057-0.383-0.095-0.771-0.095-1.169v-18c0-0.398,0.039-0.786,0.095-1.169
					l3.905,1.169V256.193z"/>
			</g>
		</g>
	</g>
</g>
</svg>
