<?xml version="1.0" encoding="utf-8"?>
<!-- Generator: Adobe Illustrator 23.0.6, SVG Export Plug-In . SVG Version: 6.00 Build 0)  -->
<svg version="1.1" xmlns="http://www.w3.org/2000/svg" xmlns:xlink="http://www.w3.org/1999/xlink" x="0px" y="0px"
	 viewBox="0 0 512 512" style="enable-background:new 0 0 512 512;" xml:space="preserve">
<style type="text/css">
	.st0{fill:#80D6FB;}
	.st1{fill:#46BEE8;}
	.st2{fill:#FFD3B3;}
	.st3{fill:#FCB98B;}
	.st4{fill:#6E83B7;}
	.st5{fill:#EDEFF1;}
	.st6{fill:#466089;}
	.st7{fill:#D3D3D3;}
	.st8{fill:#FFB0AA;}
	.st9{fill:#FF7B7B;}
	.st10{fill:#FFE352;}
	.st11{fill:#FFB236;}
	.st12{fill:#98CA69;}
</style>
<g id="Layer_1">
</g>
<g id="Layer_2">
	<g>
		<g>
			<rect x="231" y="55" class="st7" width="50" height="50"/>
		</g>
		<g>
			<rect x="166" y="5" class="st4" width="180" height="50"/>
		</g>
		<g>
			<rect x="6" y="111" class="st4" width="80" height="180"/>
		</g>
		<path class="st5" d="M407,136h-75.011c-18.341-21.421-45.578-35-75.989-35s-57.648,13.579-75.989,35H86v130h94.011
			c18.341,21.421,45.578,35,75.989,35s57.648-13.579,75.989-35H377v80h130V236C507,180.772,462.229,136,407,136z"/>
		<g>
			<rect x="216" y="186" class="st7" width="80" height="30"/>
		</g>
		<g>
			<path class="st0" d="M442,367c0,0,50,43,50,90c0,27.614-22.386,50-50,50s-50-22.386-50-50C392,410,442,367,442,367z"/>
		</g>
	</g>
</g>
</svg>
