<?xml version="1.0" encoding="utf-8"?>
<!-- Generator: Adobe Illustrator 23.0.6, SVG Export Plug-In . SVG Version: 6.00 Build 0)  -->
<svg version="1.1" xmlns="http://www.w3.org/2000/svg" xmlns:xlink="http://www.w3.org/1999/xlink" x="0px" y="0px"
	 viewBox="0 0 512 512" style="enable-background:new 0 0 512 512;" xml:space="preserve">
<style type="text/css">
	.st0{fill:#80D6FB;}
	.st1{fill:#46BEE8;}
	.st2{fill:#FFD3B3;}
	.st3{fill:#FCB98B;}
	.st4{fill:#6E83B7;}
	.st5{fill:#EDEFF1;}
	.st6{fill:#466089;}
	.st7{fill:#D3D3D3;}
	.st8{fill:#FFB0AA;}
	.st9{fill:#FF7B7B;}
	.st10{fill:#FFE352;}
	.st11{fill:#FFB236;}
	.st12{fill:#98CA69;}
</style>
<g id="Layer_1">
</g>
<g id="Layer_2">
	<g>
		<g>
			<rect x="116" y="5" class="st5" width="180" height="20"/>
		</g>
		<g>
			<rect x="136" y="25" class="st7" width="140" height="80"/>
		</g>
		<g>
			<polygon class="st4" points="316,206 96,206 136,125 276,125 			"/>
		</g>
		<g>
			<rect x="96" y="226" class="st4" width="220" height="40"/>
		</g>
		<g>
			<rect x="266" y="25" class="st4" width="20" height="80"/>
		</g>
		<g>
			<rect x="126" y="25" transform="matrix(-1 4.501987e-11 -4.501987e-11 -1 272 130)" class="st4" width="20" height="80"/>
		</g>
		<g>
			<rect x="196" y="25" transform="matrix(-1 4.501987e-11 -4.501987e-11 -1 412 130)" class="st4" width="20" height="80"/>
		</g>
		<g>
			<rect x="116" y="105" class="st5" width="180" height="20"/>
		</g>
		<g>
			<rect x="86" y="206" class="st6" width="240" height="20"/>
		</g>
		<g>
			<rect x="86" y="266" class="st6" width="240" height="20"/>
		</g>
		<g>
			<rect x="96" y="286" class="st4" width="220" height="40"/>
		</g>
		<g>
			<rect x="96" y="346" class="st4" width="220" height="161"/>
		</g>
		<g>
			<rect x="86" y="326" class="st6" width="240" height="20"/>
		</g>
		<path class="st6" d="M376,251v20h5v32h10v150.5c0,5.514-4.486,10-10,10h-65v20h65c16.542,0,30-13.458,30-30V303h10v-32h5v-20H376z
			"/>
		<g>
			<rect x="381" y="211" class="st5" width="10" height="40"/>
		</g>
		<g>
			<rect x="411" y="211" class="st5" width="10" height="40"/>
		</g>
	</g>
</g>
</svg>
