<?xml version="1.0" encoding="utf-8"?>
<!-- Generator: Adobe Illustrator 23.0.6, SVG Export Plug-In . SVG Version: 6.00 Build 0)  -->
<svg version="1.1" xmlns="http://www.w3.org/2000/svg" xmlns:xlink="http://www.w3.org/1999/xlink" x="0px" y="0px"
	 viewBox="0 0 512 512" style="enable-background:new 0 0 512 512;" xml:space="preserve">
<style type="text/css">
	.st0{fill:#80D6FB;}
	.st1{fill:#46BEE8;}
	.st2{fill:#FFD3B3;}
	.st3{fill:#FCB98B;}
	.st4{fill:#6E83B7;}
	.st5{fill:#EDEFF1;}
	.st6{fill:#466089;}
	.st7{fill:#D3D3D3;}
	.st8{fill:#FFB0AA;}
	.st9{fill:#FF7B7B;}
	.st10{fill:#FFE352;}
	.st11{fill:#FFB236;}
	.st12{fill:#98CA69;}
</style>
<g id="Layer_1">
</g>
<g id="Layer_2">
	<g>
		<g>
			<path class="st0" d="M300,294h-88l-96.751,24.65C79.806,327.68,55,359.598,55,396.173V507h402V396.173
				c0-36.576-24.806-68.493-60.249-77.523L300,294z"/>
		</g>
		<g>
			<path class="st1" d="M256,358c33.592,0,61.202-26.02,63.783-58.96L300,294h-88l-19.783,5.04C194.798,331.98,222.408,358,256,358z
				"/>
		</g>
		<g>
			<path class="st2" d="M300,257v37c0,24.301-19.699,44-44,44c-24.301,0-44-19.699-44-44v-37H300z"/>
		</g>
		<g>
			<path class="st3" d="M212,275c13.499,5.851,28.376,10,44,10s30.501-4.149,44-10v-18h-88V275z"/>
		</g>
		<g>
			<path class="st2" d="M347,106v72c0,50.258-40.742,91-91,91h0c-50.258,0-91-40.742-91-91v-72H347z"/>
		</g>
		<g>
			<path class="st4" d="M165,178c0,0.322,0.009,0.641,0.012,0.962L186,114h70h70l20.988,64.962c0.003-0.321,0.012-0.641,0.012-0.962
				v-72H165V178z"/>
		</g>
		<g>
			<path class="st2" d="M151,175h14v-49h-14c-5.523,0-10,4.477-10,10v29C141,170.523,145.477,175,151,175z"/>
		</g>
		<g>
			<path class="st2" d="M361,175h-14v-49h14c5.523,0,10,4.477,10,10v29C371,170.523,366.523,175,361,175z"/>
		</g>
		<g>
			<path class="st0" d="M347,106V65c0-33.137-26.863-60-60-60h-62c-33.137,0-60,26.863-60,60v41H347z"/>
		</g>
		<g>
			<polygon class="st4" points="344,305.21 344,422 168,422 168,305.21 135,313.618 135,507 377,507 377,313.618 			"/>
		</g>
		<g>
			<rect x="119" y="457" class="st1" width="16" height="50"/>
		</g>
		<g>
			<path class="st5" d="M256,106h70V65c0-22.091-17.909-40-40-40h-30h-30c-22.091,0-40,17.909-40,40v41H256z"/>
		</g>
		<g>
			<path class="st1" d="M360.669,106.553c-1.556,6.482-3.113,12.965-4.669,19.447c-65.733-15.781-134.267-15.781-200,0
				c-1.556-6.483-3.113-12.965-4.669-19.447C220.133,90.035,291.867,90.035,360.669,106.553z"/>
		</g>
		<g>
			<rect x="186" y="447" class="st6" width="140" height="60"/>
		</g>
		<g>
			<g>
				<path class="st7" d="M366,457h-34c-2.761,0-5-2.239-5-5l0,0c0-2.761,2.239-5,5-5h34c2.761,0,5,2.239,5,5l0,0
					C371,454.761,368.761,457,366,457z"/>
			</g>
			<g>
				<path class="st5" d="M366,447h-34c-2.761,0-5-2.239-5-5l0,0c0-2.761,2.239-5,5-5h34c2.761,0,5,2.239,5,5l0,0
					C371,444.761,368.761,447,366,447z"/>
			</g>
			<g>
				<polygon class="st8" points="327,417 327,437 377,437 377,457 327,457 327,477 377,477 377,507 427,507 427,417 				"/>
			</g>
			<g>
				<g>
					<rect x="379" y="407" class="st7" width="44" height="10"/>
				</g>
				<g>
					<path class="st5" d="M423,377v10h-60v30h-30v-40c0-11.046,8.954-20,20-20h50C414.046,357,423,365.954,423,377z"/>
				</g>
			</g>
			<g>
				<path class="st9" d="M417,507h-30v-62c0-4.418,3.582-8,8-8h14c4.418,0,8,3.582,8,8V507z"/>
			</g>
		</g>
	</g>
</g>
</svg>
