<?xml version="1.0" encoding="utf-8"?>
<!-- Generator: Adobe Illustrator 23.0.6, SVG Export Plug-In . SVG Version: 6.00 Build 0)  -->
<svg version="1.1" xmlns="http://www.w3.org/2000/svg" xmlns:xlink="http://www.w3.org/1999/xlink" x="0px" y="0px"
	 viewBox="0 0 512 512" style="enable-background:new 0 0 512 512;" xml:space="preserve">
<style type="text/css">
	.st0{fill:#80D6FB;}
	.st1{fill:#46BEE8;}
	.st2{fill:#FFD3B3;}
	.st3{fill:#FCB98B;}
	.st4{fill:#6E83B7;}
	.st5{fill:#EDEFF1;}
	.st6{fill:#466089;}
	.st7{fill:#D3D3D3;}
	.st8{fill:#FFB0AA;}
	.st9{fill:#FF7B7B;}
	.st10{fill:#FFE352;}
	.st11{fill:#FFB236;}
	.st12{fill:#98CA69;}
</style>
<g id="Layer_1">
</g>
<g id="Layer_2">
	<g>
		<g>
			<rect x="10" y="173" class="st8" width="492" height="60"/>
		</g>
		<g>
			<rect x="10" y="253" class="st8" width="492" height="180"/>
		</g>
		<g>
			<rect x="10" y="253" class="st9" width="492" height="10"/>
		</g>
		<g>
			<rect x="386" y="253" class="st4" width="40" height="50"/>
		</g>
		<g>
			<rect x="136" y="153" class="st7" width="60" height="20"/>
		</g>
		<g>
			<path class="st5" d="M146,99v54h40v-34h140v34h40V99c0-11.046-8.954-20-20-20H166C154.954,79,146,87.954,146,99z"/>
		</g>
		<g>
			<rect x="315" y="153" transform="matrix(-1 -4.500501e-11 4.500501e-11 -1 690 326)" class="st7" width="60" height="20"/>
		</g>
		<g>
			<rect x="396" y="253" transform="matrix(-1.836970e-16 1 -1 -1.836970e-16 684 -128)" class="st7" width="20" height="50"/>
		</g>
		<g>
			<rect x="86" y="253" class="st4" width="40" height="50"/>
		</g>
		<g>
			<rect x="86" y="253" class="st6" width="40" height="10"/>
		</g>
		<g>
			<rect x="386" y="253" class="st6" width="40" height="10"/>
		</g>
		<g>
			<rect x="96" y="253" transform="matrix(-3.747154e-11 1 -1 -3.747154e-11 384 172)" class="st7" width="20" height="50"/>
		</g>
		<g>
			<path class="st5" d="M502,253H10c-2.761,0-5-2.239-5-5v-10c0-2.761,2.239-5,5-5h492c2.761,0,5,2.239,5,5v10
				C507,250.761,504.761,253,502,253z"/>
		</g>
	</g>
</g>
</svg>
