<?xml version="1.0" encoding="utf-8"?>
<!-- Generator: Adobe Illustrator 23.0.6, SVG Export Plug-In . SVG Version: 6.00 Build 0)  -->
<svg version="1.1" xmlns="http://www.w3.org/2000/svg" xmlns:xlink="http://www.w3.org/1999/xlink" x="0px" y="0px"
	 viewBox="0 0 512 512" style="enable-background:new 0 0 512 512;" xml:space="preserve">
<style type="text/css">
	.st0{fill:#80D6FB;}
	.st1{fill:#46BEE8;}
	.st2{fill:#FFD3B3;}
	.st3{fill:#FCB98B;}
	.st4{fill:#6E83B7;}
	.st5{fill:#EDEFF1;}
	.st6{fill:#466089;}
	.st7{fill:#D3D3D3;}
	.st8{fill:#FFB0AA;}
	.st9{fill:#FF7B7B;}
	.st10{fill:#FFE352;}
	.st11{fill:#FFB236;}
	.st12{fill:#98CA69;}
</style>
<g id="Layer_1">
</g>
<g id="Layer_2">
	<g>
		<g>
			<rect x="169" y="253" class="st7" width="20" height="59"/>
		</g>
		<g>
			<rect x="87" y="292" class="st6" width="20" height="20"/>
		</g>
		<g>
			<rect x="169" y="302" class="st6" width="20" height="10"/>
		</g>
		<g>
			<rect x="227" y="220" class="st7" width="20" height="92"/>
		</g>
		<g>
			<rect x="159" y="292" class="st4" width="40" height="10"/>
		</g>
		<g>
			<rect x="227" y="302" class="st6" width="20" height="10"/>
		</g>
		<g>
			<rect x="217" y="292" class="st4" width="40" height="10"/>
		</g>
		<g>
			<rect x="57" y="328" class="st4" width="400" height="140"/>
		</g>
		<g>
			<rect x="57" y="312" class="st5" width="200" height="16"/>
		</g>
		<g>
			<circle class="st4" cx="97" cy="254" r="40"/>
		</g>
		<g>
			<circle class="st5" cx="97" cy="254" r="30"/>
		</g>
		<g>
			<path class="st4" d="M103,254c0,3.314-2.686,6-6,6s-6-2.686-6-6c0-3.314,6-18,6-18S103,250.686,103,254z"/>
		</g>
		<g>
			<polygon class="st5" points="422.149,119.004 406.993,93.113 144,245 159,270.981 			"/>
		</g>
		<g>
			<polygon class="st4" points="422.149,119.004 507,70 492,44 406.993,93.113 			"/>
		</g>
		<g>
			<circle class="st7" cx="179" cy="242" r="9"/>
		</g>
		<g>
			<circle class="st7" cx="237" cy="208" r="9"/>
		</g>
		<g>
			<polygon class="st6" points="57,408 17,408 17,178 37,178 37,388 57,388 			"/>
		</g>
		<g>
			<rect x="11" y="118" class="st5" width="32" height="60"/>
		</g>
		<g>
			<rect x="5" y="98" class="st7" width="44" height="20"/>
		</g>
	</g>
</g>
</svg>
