<?xml version="1.0" encoding="utf-8"?>
<!-- Generator: Adobe Illustrator 18.0.0, SVG Export Plug-In . SVG Version: 6.00 Build 0)  -->
<!DOCTYPE svg PUBLIC "-//W3C//DTD SVG 1.1//EN" "http://www.w3.org/Graphics/SVG/1.1/DTD/svg11.dtd">
<svg version="1.1" id="Layer_1" xmlns="http://www.w3.org/2000/svg" xmlns:xlink="http://www.w3.org/1999/xlink" x="0px" y="0px"
	 viewBox="0 0 512 512" style="enable-background:new 0 0 512 512;" xml:space="preserve">
<style type="text/css">
	.st0{fill:#FFD452;}
	.st1{fill:#F58E6F;}
	.st2{fill:#4A555F;}
	.st3{fill:none;}
	.st4{fill:#DFDFDF;}
	.st5{fill:#71CCE0;}
	.st6{fill:#FFFFFF;}
</style>
<g>
	<g>
		<g>
			<g>
				<path class="st2" d="M480.049,65.688H178.211l16.993,6.324c13.47,5.013,22.456,18.04,22.36,32.415
					c-0.02,2.772-0.36,5.475-1.016,8.056c-3.786,15.352-17.495,26.074-33.334,26.074l-0.235-0.001l-73.944,0.007
					c-1.482,0.093-3.239,0.189-4.972,0.19c-1.413-0.021-2.804-0.083-4.176-0.187l-0.122-0.009l-45.395,0.002
					c-0.293,0.01-0.581,0.028-0.867,0.046c-0.293,0.018-0.583,0.039-0.836,0.039c-1.809-0.02-3.559-0.13-5.2-0.326l-3.651-0.435
					v335.505c0,17.618,14.333,31.951,31.95,31.951h404.284c17.618,0,31.951-14.333,31.951-31.951V97.639
					C512,80.021,497.667,65.688,480.049,65.688z M505.471,473.388c0,14.017-11.404,25.422-25.422,25.422H75.765
					c-14.017,0-25.421-11.404-25.421-25.422V145.105c0.748,0.037,1.51,0.06,2.285,0.069c0.428,0,0.856-0.025,1.289-0.053
					l45.602-0.035c1.461,0.108,2.946,0.174,4.496,0.196c1.962,0,3.846-0.102,5.224-0.196h73.719l0.255,0.001
					c18.851,0,35.165-12.764,39.668-31.018c0.78-3.069,1.187-6.297,1.212-9.596c0.085-12.73-5.812-24.57-15.441-32.256h271.395
					c14.018,0,25.422,11.404,25.422,25.422V473.388z"/>
			</g>
		</g>
	</g>
	<g>
		<g>
			<path class="st5" d="M480.049,79.835H225.111c4.134,7.097,6.472,15.264,6.575,23.789h266.167v-5.985
				C497.852,87.822,489.867,79.835,480.049,79.835z"/>
		</g>
	</g>
	<g>
		<g>
			<rect x="219.719" y="110.002" class="st2" width="289.017" height="6.529"/>
		</g>
	</g>
	<g>
		<g>
			<g>
				<path class="st2" d="M212.322,75.495c-7.67-7.772-17.907-12.092-28.826-12.165l-0.275-0.001c-3.493,0-6.968,0.458-10.376,1.364
					c-5.399-33.129-33.928-57.804-67.923-58.032l-0.469-0.002c-24.067,0-46.572,12.67-59.132,33.178
					C19.543,43.56,0.176,65.64,0.001,91.856c-0.094,14.145,5.324,27.479,15.26,37.548c9.935,10.068,23.198,15.665,37.415,15.759
					c0.423,0,0.839-0.023,1.256-0.049l45.593-0.032c1.038,0.063,3.345,0.086,5.063,0.086c1.039,0,3.532-0.009,4.771-0.086h73.591
					l0.276,0.001c0.002,0,0,0,0.001,0c22.387,0,40.724-18.216,40.874-40.604C224.175,93.56,219.991,83.267,212.322,75.495z
					 M183.226,138.554l-73.976-0.001l-0.233,0.008c-0.658,0.047-2.397,0.078-4.429,0.078c-2.395,0-4.188-0.039-4.721-0.078
					l-0.235-0.008l-45.262,0.002c-0.281,0.008-0.56,0.025-0.838,0.042c-0.283,0.018-0.567,0.037-0.883,0.037c0,0-0.001,0-0.002,0
					c-12.4-0.082-24.026-4.989-32.737-13.816c-8.71-8.827-13.462-20.518-13.379-32.918c0.156-23.46,17.847-43.142,41.151-45.782
					l1.631-0.185l0.825-1.42c11.215-19.32,32.028-31.322,54.317-31.322l0.425,0.002c32.003,0.214,58.658,24.345,62.001,56.132
					l0.44,4.186l3.945-1.468c3.892-1.448,7.914-2.182,11.956-2.182l0.232,0.001c9.175,0.061,17.778,3.691,24.222,10.221
					c6.443,6.531,9.959,15.179,9.897,24.354C217.445,123.249,202.039,138.554,183.226,138.554z"/>
			</g>
		</g>
	</g>
	<g>
		<g>
			<path class="st4" d="M202.251,85.432c-5.016-5.082-11.709-7.907-19.029-7.955c-3.133,0-6.262,0.573-9.301,1.704l-13.148,4.891
				l-1.469-13.953c-2.937-27.924-26.356-49.123-54.476-49.31l-0.376-0.002c-19.582,0-37.87,10.549-47.725,27.529l-2.748,4.734
				l-5.439,0.616C29.065,55.893,14.28,72.342,14.148,91.95c-0.07,10.367,3.902,20.138,11.184,27.517
				c7.28,7.379,17,11.48,27.317,11.549l0.406-0.022c0.361-0.022,0.723-0.043,1.088-0.054l45.919,0.002l0.332,0.02
				c0.391,0.024,1.994,0.06,4.193,0.06c2.202,0,3.554-0.036,3.888-0.059l0.387-0.028c0,0,74.364,0.001,74.366,0.001
				c14.638,0,26.628-11.912,26.726-26.551C210.001,97.245,207.265,90.515,202.251,85.432z"/>
		</g>
	</g>
	<g>
		<g>
			<rect x="198.663" y="136.833" class="st2" width="6.529" height="365.242"/>
		</g>
	</g>
	<g>
		<g>
			<rect x="76.623" y="184.624" class="st2" width="21.716" height="6.529"/>
		</g>
	</g>
	<g>
		<g>
			<rect x="112.796" y="184.624" class="st2" width="52.402" height="6.529"/>
		</g>
	</g>
	<g>
		<g>
			<rect x="76.623" y="231.991" class="st2" width="21.716" height="6.529"/>
		</g>
	</g>
	<g>
		<g>
			<rect x="112.796" y="231.991" class="st2" width="52.402" height="6.529"/>
		</g>
	</g>
	<g>
		<g>
			<rect x="76.623" y="279.357" class="st2" width="21.716" height="6.529"/>
		</g>
	</g>
	<g>
		<g>
			<rect x="112.796" y="279.357" class="st2" width="52.402" height="6.529"/>
		</g>
	</g>
	<g>
		<g>
			<rect x="76.623" y="326.723" class="st2" width="21.716" height="6.529"/>
		</g>
	</g>
	<g>
		<g>
			<rect x="112.796" y="326.723" class="st2" width="52.402" height="6.529"/>
		</g>
	</g>
	<g>
		<g>
			<rect x="76.623" y="374.089" class="st2" width="21.716" height="6.529"/>
		</g>
	</g>
	<g>
		<g>
			<rect x="112.796" y="374.089" class="st2" width="52.402" height="6.529"/>
		</g>
	</g>
	<g>
		<g>
			<rect x="76.623" y="421.455" class="st2" width="21.716" height="6.529"/>
		</g>
	</g>
	<g>
		<g>
			<rect x="112.796" y="421.455" class="st2" width="52.402" height="6.529"/>
		</g>
	</g>
	<g>
		<g>
			<g>
				<path class="st2" d="M238.411,171.917v31.945h84.62v-31.945H238.411z M316.501,197.333h-71.561v-18.886h71.561V197.333z"/>
			</g>
		</g>
	</g>
	<g>
		<g>
			<g>
				<path class="st2" d="M316.501,171.917v31.945h84.62v-31.945H316.501z M394.591,197.333h-71.561v-18.886h71.561V197.333z"/>
			</g>
		</g>
	</g>
	<g>
		<g>
			<g>
				<path class="st2" d="M394.591,171.917v31.945h84.619v-31.945H394.591z M472.681,197.333h-71.56v-18.886h71.56V197.333z"/>
			</g>
		</g>
	</g>
	<g>
		<g>
			<g>
				<path class="st2" d="M238.411,220.051v128.084H479.21V220.051H238.411z M472.681,341.606h-227.74V226.58h227.74V341.606z"/>
			</g>
		</g>
	</g>
	<g>
		<g>
			<rect x="252.559" y="234.198" class="st1" width="212.503" height="99.79"/>
		</g>
	</g>
	<g>
		<g>
			<g>
				<path class="st2" d="M238.411,361.468v93.572h113.923v-93.572H238.411z M345.804,448.51H244.941v-80.513h100.864V448.51z"/>
			</g>
		</g>
	</g>
	<g>
		<g>
			<rect x="252.559" y="375.616" class="st0" width="85.627" height="65.277"/>
		</g>
	</g>
	<g>
		<g>
			<g>
				<path class="st2" d="M367.474,361.468v93.572h113.923v-93.572H367.474z M474.867,448.51H374.003v-80.513h100.864V448.51z"/>
			</g>
		</g>
	</g>
	<g>
		<g>
			<rect x="381.62" y="375.616" class="st0" width="85.627" height="65.277"/>
		</g>
	</g>
	<g>
		<g>
			<path class="st2" d="M134.252,91.163c-3.708,11.557-14.354,19.322-26.491,19.322c-12.138,0-22.784-7.765-26.492-19.322
				l-6.217,1.995c4.578,14.269,17.722,23.857,32.709,23.857c14.986,0,28.13-9.588,32.708-23.857L134.252,91.163z"/>
		</g>
	</g>
	<g>
		<g>
			<path class="st2" d="M107.761,48.302c-15.222,0-28.427,9.779-32.863,24.334l6.247,1.903
				c3.591-11.788,14.287-19.708,26.616-19.708c12.328,0,23.024,7.92,26.615,19.708l6.247-1.903
				C136.187,58.081,122.982,48.302,107.761,48.302z"/>
		</g>
	</g>
	<g>
		<g>
			<polygon class="st2" points="140.59,57.668 136.334,70.778 123.648,66.719 121.658,72.938 140.536,78.979 146.801,59.684 			"/>
		</g>
	</g>
	<g>
		<g>
			<polygon class="st2" points="76.294,85.589 68.104,104.514 74.096,107.107 79.748,94.047 92.804,99.364 95.267,93.318 			"/>
		</g>
	</g>
</g>
</svg>
