<?xml version="1.0" encoding="utf-8"?>
<!-- Generator: Adobe Illustrator 18.0.0, SVG Export Plug-In . SVG Version: 6.00 Build 0)  -->
<!DOCTYPE svg PUBLIC "-//W3C//DTD SVG 1.1//EN" "http://www.w3.org/Graphics/SVG/1.1/DTD/svg11.dtd">
<svg version="1.1" id="Layer_1" xmlns="http://www.w3.org/2000/svg" xmlns:xlink="http://www.w3.org/1999/xlink" x="0px" y="0px"
	 viewBox="0 0 512 512" style="enable-background:new 0 0 512 512;" xml:space="preserve">
<style type="text/css">
	.st0{fill:#FFD452;}
	.st1{fill:#F58E6F;}
	.st2{fill:#4A555F;}
	.st3{fill:none;}
	.st4{fill:#DFDFDF;}
	.st5{fill:#71CCE0;}
	.st6{fill:#FFFFFF;}
</style>
<g>
	<g>
		<g>
			<g>
				<path class="st2" d="M73.927,153.109v47.481l133.198,106.224v60.269l99.855,37.028v-97.313l131.143-106.225v-47.466H73.927z
					 M431.443,197.389L300.3,303.613v90.898l-86.495-32.074v-58.839L80.607,197.373v-37.584h350.837V197.389z"/>
			</g>
		</g>
	</g>
	<g>
		<g>
			<polygon class="st5" points="88.4,167.582 88.4,193.62 221.599,299.844 221.599,357.015 292.507,383.309 292.507,299.896 
				423.651,193.672 423.651,167.582 			"/>
		</g>
	</g>
	<g>
		<g>
			<g>
				<path class="st2" d="M170.786,202.321h6.68v-6.68h-6.68V202.321z M237.585,202.321h6.68v-6.68h-6.68V202.321z M157.426,202.321
					h6.68v-6.68h-6.68V202.321z M210.865,202.321h6.68v-6.68h-6.68V202.321z M224.225,202.321h6.68v-6.68h-6.68V202.321z
					 M197.505,202.321h6.68v-6.68h-6.68V202.321z M184.145,202.321h6.68v-6.68h-6.68V202.321z M90.627,202.321h6.68v-6.68h-6.68
					V202.321z M77.267,202.321h6.68v-6.68h-6.68V202.321z M103.986,202.321h6.68v-6.68h-6.68V202.321z M144.066,202.321h6.68v-6.68
					h-6.68V202.321z M117.346,202.321h6.68v-6.68h-6.68V202.321z M130.706,202.321h6.68v-6.68h-6.68V202.321z M357.823,202.321h6.68
					v-6.68h-6.68V202.321z M397.902,202.321h6.68v-6.68h-6.68V202.321z M384.543,202.321h6.68v-6.68h-6.68V202.321z
					 M371.183,202.321h6.68v-6.68h-6.68V202.321z M411.262,202.321h6.68v-6.68h-6.68V202.321z M424.622,195.642v6.68h6.68v-6.68
					H424.622z M344.463,202.321h6.68v-6.68h-6.68V202.321z M304.384,202.321h6.68v-6.68h-6.68V202.321z M277.664,202.321h6.68v-6.68
					h-6.68V202.321z M264.304,202.321h6.68v-6.68h-6.68V202.321z M291.024,202.321h6.68v-6.68h-6.68V202.321z M331.103,202.321h6.68
					v-6.68h-6.68V202.321z M317.743,202.321h6.68v-6.68h-6.68V202.321z M250.944,202.321h6.68v-6.68h-6.68V202.321z"/>
			</g>
		</g>
	</g>
	<g>
		<g>
			<g>
				<path class="st2" d="M140.302,80.325c-22.075,0-40.034,17.97-40.034,40.058v3.34h80.07v-3.34
					C180.338,98.294,162.377,80.325,140.302,80.325z M107.113,117.042c1.679-16.843,15.924-30.038,33.189-30.038
					c17.267,0,31.51,13.195,33.191,30.038H107.113z"/>
			</g>
		</g>
	</g>
	<g>
		<g>
			<path class="st0" d="M140.302,94.798c-10.111,0-18.869,5.905-23.012,14.452h46.024
				C159.171,100.703,150.414,94.798,140.302,94.798z"/>
		</g>
	</g>
	<g>
		<g>
			<g>
				<path class="st2" d="M278.275,61.892c-8.391,0-15.219,6.827-15.219,15.217c0,8.391,6.828,15.217,15.219,15.217
					c8.391,0,15.217-6.826,15.217-15.217C293.492,68.718,286.666,61.892,278.275,61.892z M278.275,85.646
					c-4.708,0-8.539-3.83-8.539-8.537c0-4.708,3.831-8.538,8.539-8.538s8.537,3.83,8.537,8.538
					C286.812,81.816,282.983,85.646,278.275,85.646z"/>
			</g>
		</g>
	</g>
	<g>
		<g>
			<g>
				<path class="st2" d="M364.877,61.892c-17.046,0-30.912,13.867-30.912,30.91c0,17.044,13.866,30.91,30.912,30.91
					c17.043,0,30.91-13.866,30.91-30.91C395.787,75.758,381.92,61.892,364.877,61.892z M364.877,117.032
					c-13.362,0-24.232-10.87-24.232-24.23c0-13.361,10.87-24.231,24.232-24.231c13.36,0,24.23,10.87,24.23,24.231
					C389.107,106.162,378.237,117.032,364.877,117.032z"/>
			</g>
		</g>
	</g>
	<g>
		<g>
			<path class="st0" d="M364.876,76.365c-9.064,0-16.438,7.374-16.438,16.437c0,9.063,7.373,16.437,16.438,16.437
				c9.063,0,16.437-7.374,16.437-16.437C381.313,83.739,373.94,76.365,364.876,76.365z"/>
		</g>
	</g>
	<g>
		<g>
			<g>
				<path class="st2" d="M198.562,0c-13.736,0-24.911,11.174-24.911,24.909c0,13.735,11.175,24.91,24.911,24.91
					c13.734,0,24.908-11.174,24.908-24.91C223.47,11.174,212.296,0,198.562,0z M198.562,43.139c-10.052,0-18.231-8.178-18.231-18.23
					S188.51,6.68,198.562,6.68c10.05,0,18.228,8.178,18.228,18.229S208.612,43.139,198.562,43.139z"/>
			</g>
		</g>
	</g>
	<g>
		<g>
			<path class="st0" d="M198.562,14.473c-5.755,0-10.436,4.681-10.436,10.436s4.681,10.437,10.436,10.437
				c5.755,0,10.436-4.682,10.436-10.437S204.316,14.473,198.562,14.473z"/>
		</g>
	</g>
	<g>
		<g>
			<g>
				<path class="st2" d="M436.195,117.032H75.805c-11.788,0-21.379,9.591-21.379,21.379c0,11.788,9.591,21.378,21.379,21.378
					h360.389c11.788,0,21.379-9.59,21.379-21.378C457.574,126.623,447.982,117.032,436.195,117.032z M436.195,153.109H75.805
					c-8.104,0-14.699-6.593-14.699-14.698s6.595-14.699,14.699-14.699h360.389c8.104,0,14.699,6.594,14.699,14.699
					S444.299,153.109,436.195,153.109z"/>
			</g>
		</g>
	</g>
	<g>
		<g>
			<path class="st4" d="M436.195,131.505H75.805c-3.807,0-6.905,3.098-6.905,6.906c0,3.807,3.097,6.905,6.905,6.905h360.39
				c3.807,0,6.905-3.097,6.905-6.905C443.1,134.603,440.002,131.505,436.195,131.505z"/>
		</g>
	</g>
	<g>
		<g>
			<g>
				<path class="st2" d="M281.337,442.233v-54.761l-50.61-18.752v73.513h-34.154L256.02,512l59.449-69.767H281.337z
					 M211.041,448.913h26.365v-70.594l37.25,13.802v56.792H301l-44.981,52.788L211.041,448.913z"/>
			</g>
		</g>
	</g>
	<g>
		<g>
			<polygon class="st1" points="266.864,456.706 266.864,397.544 245.199,389.517 245.199,456.706 227.92,456.706 256.02,489.685 
				284.122,456.706 			"/>
		</g>
	</g>
</g>
</svg>
