<?xml version="1.0" encoding="utf-8"?>
<!-- Generator: Adobe Illustrator 23.0.3, SVG Export Plug-In . SVG Version: 6.00 Build 0)  -->
<svg version="1.1" id="Layer_1" xmlns="http://www.w3.org/2000/svg" xmlns:xlink="http://www.w3.org/1999/xlink" x="0px" y="0px"
	 viewBox="0 0 256 256" style="enable-background:new 0 0 256 256;" xml:space="preserve">
<style type="text/css">
	.st0{fill:#F87023;}
	.st1{fill:#F8AF23;}
	.st2{fill:#CECECE;}
	.st3{fill:#AFAFAF;}
	.st4{fill:#63BCE7;}
	.st5{fill:#63E2E7;}
	.st6{fill:#9E9E9E;}
	.st7{fill:#707070;}
	.st8{fill:#3F3679;}
	.st9{fill:#E2E2E2;}
	.st10{fill:#6377E7;}
	.st11{fill:#F46275;}
	.st12{fill:#F8D323;}
	.st13{fill:#F43075;}
	.st14{fill:#F48875;}
</style>
<g>
	<path class="st2" d="M74.69,204.187v-87.143c0-11.858,9.613-21.471,21.471-21.471h93.755L175.244,76.25h-45.088l-21.471-23.257
		H58.603c-11.858,0-21.471,9.613-21.471,21.471v129.724c0,9.216,6.645,16.866,15.402,18.459c1.097,0.2,2.222,0.319,3.377,0.319h0
		C66.283,222.965,74.69,214.558,74.69,204.187z"/>
	<g>
		<path class="st3" d="M43.633,204.187V74.463c0-11.858,9.613-21.471,21.471-21.471h-6.5c-11.858,0-21.471,9.613-21.471,21.471
			v129.724c0,9.216,6.645,16.866,15.401,18.459c1.097,0.2,2.222,0.319,3.377,0.319h0c1.112,0,2.196-0.115,3.255-0.301
			c-0.044-0.008-0.089-0.011-0.132-0.019C50.278,221.053,43.633,213.403,43.633,204.187z"/>
	</g>
	<rect x="60.789" y="22.062" class="st1" width="134.423" height="182"/>
	<g>
		<rect x="60.789" y="22.062" class="st0" width="6.5" height="182"/>
	</g>
	<g>
		<rect x="188.711" y="22.062" class="st12" width="6.5" height="182"/>
	</g>
	<path class="st4" d="M189.915,95.573H96.16c-11.858,0-21.471,9.613-21.471,21.471v87.143c0,10.371-8.407,18.778-18.778,18.778
		h144.18c10.37,0,18.776-8.406,18.776-18.776V95.573H189.915z"/>
	<g>
		<path class="st5" d="M212.367,95.573V204.19c0,10.37-8.406,18.776-18.776,18.776h6.5c10.37,0,18.776-8.406,18.776-18.776V95.573
			H212.367z"/>
	</g>
	<g>
		<path class="st8" d="M27.323,232.438H9.32c-0.829,0-1.5,0.671-1.5,1.5s0.671,1.5,1.5,1.5h18.003c0.829,0,1.5-0.671,1.5-1.5
			S28.152,232.438,27.323,232.438z"/>
		<path class="st8" d="M246.68,232.438h-18.003c-0.829,0-1.5,0.671-1.5,1.5s0.671,1.5,1.5,1.5h18.003c0.829,0,1.5-0.671,1.5-1.5
			S247.509,232.438,246.68,232.438z"/>
		<path class="st8" d="M218.479,232.438H37.521c-0.829,0-1.5,0.671-1.5,1.5s0.671,1.5,1.5,1.5h180.959c0.829,0,1.5-0.671,1.5-1.5
			S219.308,232.438,218.479,232.438z"/>
		<path class="st8" d="M9.32,224.465h46.592h144.18h46.589c0.829,0,1.5-0.671,1.5-1.5s-0.671-1.5-1.5-1.5h-36.029
			c5.816-3.568,9.716-9.967,9.716-17.276V95.573c0-0.829-0.671-1.5-1.5-1.5h-22.156V22.062c0-0.829-0.671-1.5-1.5-1.5H60.789
			c-0.829,0-1.5,0.671-1.5,1.5v29.431h-0.685c-12.666,0-22.971,10.304-22.971,22.97v129.724c0,7.233,3.819,13.685,9.691,17.278H9.32
			c-0.829,0-1.5,0.671-1.5,1.5S8.491,224.465,9.32,224.465z M217.367,204.189c0,9.526-7.75,17.276-17.276,17.276H66.517
			c5.8-3.572,9.673-9.981,9.673-17.278v-87.143c0-11.012,8.959-19.971,19.971-19.971h121.207V204.189z M62.289,23.562h131.423
			v70.512H96.161c-12.666,0-22.971,10.305-22.971,22.971v85.518H62.289V23.562z M52.803,221.17
			c-8.21-1.494-14.17-8.636-14.17-16.983V74.463c0-11.012,8.959-19.97,19.971-19.97h0.685v149.569c0,0.829,0.671,1.5,1.5,1.5H73.12
			c-0.705,8.885-8.145,15.904-17.209,15.904h0C54.911,221.465,53.894,221.369,52.803,221.17z"/>
		<path class="st8" d="M178.232,144.857v28.885c0,15.489-11.546,28.867-26.857,31.118c-0.819,0.12-1.386,0.882-1.266,1.702
			c0.109,0.746,0.75,1.282,1.482,1.282c0.073,0,0.146-0.005,0.22-0.016c16.772-2.465,29.42-17.119,29.42-34.086v-28.885
			c0-5.337-1.193-10.457-3.546-15.217c-0.367-0.743-1.268-1.048-2.009-0.68c-0.743,0.367-1.047,1.267-0.68,2.009
			C177.144,135.313,178.232,139.985,178.232,144.857z"/>
		<path class="st8" d="M142.115,207.881c0.069,0.009,0.137,0.014,0.204,0.014c0.739,0,1.382-0.546,1.484-1.298
			c0.112-0.821-0.463-1.577-1.284-1.688c-15.503-2.107-27.194-15.506-27.194-31.166v-28.885c0-17.344,14.11-31.454,31.454-31.454
			c9.647,0,18.633,4.353,24.652,11.941c0.516,0.649,1.458,0.757,2.107,0.243c0.649-0.515,0.758-1.458,0.243-2.107
			c-6.592-8.311-16.435-13.077-27.003-13.077c-18.998,0-34.454,15.456-34.454,34.454v28.885
			C112.325,190.896,125.132,205.573,142.115,207.881z"/>
		<path class="st8" d="M165.718,144.857c0,0.829,0.671,1.5,1.5,1.5s1.5-0.671,1.5-1.5c0-12.098-9.842-21.94-21.939-21.94
			c-12.098,0-21.939,9.842-21.939,21.94v10.584c0,0.829,0.671,1.5,1.5,1.5s1.5-0.671,1.5-1.5v-10.584
			c0-10.443,8.496-18.94,18.939-18.94C157.222,125.917,165.718,134.414,165.718,144.857z"/>
		<path class="st8" d="M124.839,173.743c0,12.097,9.842,21.939,21.939,21.939c12.097,0,21.939-9.842,21.939-21.939v-9.854
			c0-0.829-0.671-1.5-1.5-1.5s-1.5,0.671-1.5,1.5v9.854c0,10.443-8.496,18.939-18.939,18.939c-10.443,0-18.939-8.496-18.939-18.939
			v-6.413c0-0.829-0.671-1.5-1.5-1.5s-1.5,0.671-1.5,1.5V173.743z"/>
		<path class="st8" d="M156.204,144.857c0-5.197-4.228-9.426-9.425-9.426s-9.426,4.229-9.426,9.426v13.557
			c0,0.829,0.671,1.5,1.5,1.5s1.5-0.671,1.5-1.5v-13.557c0-3.543,2.883-6.426,6.426-6.426s6.425,2.883,6.425,6.426v6.205
			c0,0.829,0.671,1.5,1.5,1.5s1.5-0.671,1.5-1.5V144.857z"/>
		<path class="st8" d="M138.853,164.735c-0.829,0-1.5,0.671-1.5,1.5v7.507c0,5.197,4.229,9.425,9.426,9.425s9.425-4.228,9.425-9.425
			v-11.887c0-0.829-0.671-1.5-1.5-1.5s-1.5,0.671-1.5,1.5v11.887c0,3.543-2.882,6.425-6.425,6.425s-6.426-2.882-6.426-6.425v-7.507
			C140.353,165.407,139.682,164.735,138.853,164.735z"/>
		<path class="st8" d="M77.5,40.312h101c0.829,0,1.5-0.671,1.5-1.5s-0.671-1.5-1.5-1.5h-101c-0.829,0-1.5,0.671-1.5,1.5
			S76.671,40.312,77.5,40.312z"/>
		<path class="st8" d="M77.5,54.493h101c0.829,0,1.5-0.671,1.5-1.5s-0.671-1.5-1.5-1.5h-101c-0.829,0-1.5,0.671-1.5,1.5
			S76.671,54.493,77.5,54.493z"/>
		<path class="st8" d="M77.5,68.673h101c0.829,0,1.5-0.671,1.5-1.5s-0.671-1.5-1.5-1.5h-101c-0.829,0-1.5,0.671-1.5,1.5
			S76.671,68.673,77.5,68.673z"/>
		<path class="st8" d="M77.5,82.854h101c0.829,0,1.5-0.671,1.5-1.5s-0.671-1.5-1.5-1.5h-101c-0.829,0-1.5,0.671-1.5,1.5
			S76.671,82.854,77.5,82.854z"/>
	</g>
</g>
</svg>
