<?xml version="1.0" encoding="utf-8"?>
<!-- Generator: Adobe Illustrator 23.0.3, SVG Export Plug-In . SVG Version: 6.00 Build 0)  -->
<svg version="1.1" id="Layer_1" xmlns="http://www.w3.org/2000/svg" xmlns:xlink="http://www.w3.org/1999/xlink" x="0px" y="0px"
	 viewBox="0 0 256 256" style="enable-background:new 0 0 256 256;" xml:space="preserve">
<style type="text/css">
	.st0{fill:#F87023;}
	.st1{fill:#F8AF23;}
	.st2{fill:#CECECE;}
	.st3{fill:#AFAFAF;}
	.st4{fill:#63BCE7;}
	.st5{fill:#63E2E7;}
	.st6{fill:#9E9E9E;}
	.st7{fill:#707070;}
	.st8{fill:#3F3679;}
	.st9{fill:#E2E2E2;}
	.st10{fill:#6377E7;}
	.st11{fill:#F46275;}
	.st12{fill:#F8D323;}
	.st13{fill:#F43075;}
	.st14{fill:#F48875;}
</style>
<g>
	<g>
		<path class="st2" d="M29.619,183.896c-7.724,0-14.009-6.285-14.009-14.009V42.995c0-7.724,6.285-14.009,14.009-14.009h196.762
			c7.724,0,14.009,6.285,14.009,14.009v126.892c0,7.724-6.285,14.009-14.009,14.009H29.619z"/>
		<g>
			<path class="st3" d="M22.11,169.887V42.995c0-7.724,6.285-14.009,14.009-14.009h-6.5c-7.724,0-14.009,6.285-14.009,14.009
				v126.892c0,7.724,6.285,14.009,14.009,14.009h6.5C28.395,183.896,22.11,177.611,22.11,169.887z"/>
		</g>
		<g>
			<path class="st9" d="M233.89,169.887V42.995c0-7.724-6.285-14.009-14.009-14.009h6.5c7.724,0,14.009,6.285,14.009,14.009v126.892
				c0,7.724-6.285,14.009-14.009,14.009h-6.5C227.605,183.896,233.89,177.611,233.89,169.887z"/>
		</g>
		<path class="st4" d="M231.769,157.585c0,2.963-2.425,5.388-5.388,5.388H29.619c-2.963,0-5.388-2.425-5.388-5.388V42.995
			c0-2.963,2.425-5.388,5.388-5.388h196.762c2.963,0,5.388,2.425,5.388,5.388V157.585z"/>
		<g>
			<path class="st10" d="M30.731,157.585V42.995c0-2.963,2.425-5.388,5.388-5.388h-6.5c-2.963,0-5.388,2.425-5.388,5.388v114.59
				c0,2.963,2.425,5.388,5.388,5.388h6.5C33.156,162.973,30.731,160.549,30.731,157.585z"/>
		</g>
		<g>
			<path class="st5" d="M225.269,157.585V42.995c0-2.963-2.425-5.388-5.388-5.388h6.5c2.963,0,5.388,2.425,5.388,5.388v114.59
				c0,2.963-2.425,5.388-5.388,5.388h-6.5C222.844,162.973,225.269,160.549,225.269,157.585z"/>
		</g>
		<rect x="88.847" y="206.612" class="st2" width="78.305" height="9.429"/>
		<g>
			<rect x="88.847" y="206.612" class="st3" width="6.5" height="9.429"/>
		</g>
		<rect x="99.983" y="183.896" class="st6" width="56.035" height="22.716"/>
		<g>
			<rect x="99.983" y="183.896" class="st7" width="6.5" height="22.716"/>
		</g>
		<circle class="st1" cx="128" cy="173.435" r="4.613"/>
		<g>
			<circle class="st11" cx="128" cy="100.29" r="44.904"/>
			<path class="st4" d="M223.357,178.165c4.827,4.827,4.827,12.654,0,17.482l0,0c-4.827,4.827-12.654,4.827-17.482,0l-33.227-33.227
				c-4.827-4.827-4.827-12.654,0-17.482l0,0c4.827-4.827,12.654-4.827,17.482,0L223.357,178.165z"/>
			<circle class="st4" cx="128" cy="100.29" r="27.392"/>
		</g>
	</g>
	<g>
		<path class="st8" d="M128,179.548c3.371,0,6.113-2.742,6.113-6.113s-2.742-6.113-6.113-6.113s-6.113,2.742-6.113,6.113
			S124.629,179.548,128,179.548z M128,170.321c1.717,0,3.113,1.396,3.113,3.113s-1.396,3.113-3.113,3.113s-3.113-1.396-3.113-3.113
			S126.283,170.321,128,170.321z"/>
		<path class="st8" d="M148.429,120.719c5.457-5.457,8.462-12.712,8.462-20.429s-3.005-14.973-8.462-20.429
			c-5.457-5.457-12.712-8.462-20.429-8.462s-14.973,3.005-20.429,8.462c-5.457,5.457-8.462,12.712-8.462,20.429
			s3.005,14.973,8.462,20.429c5.457,5.457,12.712,8.462,20.429,8.462S142.973,126.176,148.429,120.719z M102.108,100.29
			c0-6.916,2.693-13.418,7.583-18.308s11.392-7.583,18.308-7.583s13.418,2.693,18.308,7.583s7.583,11.392,7.583,18.308
			s-2.693,13.418-7.583,18.308s-11.392,7.583-18.308,7.583s-13.418-2.693-18.308-7.583S102.108,107.206,102.108,100.29z"/>
		<path class="st8" d="M42.114,103.49H68.78c0.829,0,1.5-0.671,1.5-1.5s-0.671-1.5-1.5-1.5H42.114c-0.829,0-1.5,0.671-1.5,1.5
			S41.285,103.49,42.114,103.49z"/>
		<path class="st8" d="M213.886,100.49H187.22c-0.829,0-1.5,0.671-1.5,1.5s0.671,1.5,1.5,1.5h26.667c0.829,0,1.5-0.671,1.5-1.5
			S214.715,100.49,213.886,100.49z"/>
		<path class="st8" d="M143.75,100.29c0-0.829-0.671-1.5-1.5-1.5h-28.5c-0.829,0-1.5,0.671-1.5,1.5s0.671,1.5,1.5,1.5h28.5
			C143.079,101.79,143.75,101.119,143.75,100.29z"/>
		<path class="st8" d="M27.323,225.514H9.32c-0.829,0-1.5,0.671-1.5,1.5s0.671,1.5,1.5,1.5h18.003c0.829,0,1.5-0.671,1.5-1.5
			S28.152,225.514,27.323,225.514z"/>
		<path class="st8" d="M246.68,225.514h-18.003c-0.829,0-1.5,0.671-1.5,1.5s0.671,1.5,1.5,1.5h18.003c0.829,0,1.5-0.671,1.5-1.5
			S247.509,225.514,246.68,225.514z"/>
		<path class="st8" d="M218.479,225.514H37.521c-0.829,0-1.5,0.671-1.5,1.5s0.671,1.5,1.5,1.5h180.959c0.829,0,1.5-0.671,1.5-1.5
			S219.308,225.514,218.479,225.514z"/>
		<path class="st8" d="M9.32,217.541h79.527h78.306h79.527c0.829,0,1.5-0.671,1.5-1.5s-0.671-1.5-1.5-1.5h-78.027v-7.929
			c0-0.829-0.671-1.5-1.5-1.5h-9.635v-19.716h35.986l11.312,11.312c2.618,2.618,6.099,4.06,9.801,4.06
			c3.702,0,7.183-1.442,9.801-4.06c3.121-3.121,4.428-7.37,3.945-11.446c7.683-0.974,13.527-7.483,13.527-15.374V42.995
			c0-8.552-6.957-15.509-15.508-15.509H29.619c-8.551,0-15.508,6.957-15.508,15.509v126.892c0,8.552,6.957,15.509,15.508,15.509
			h68.864v19.716h-9.635c-0.829,0-1.5,0.671-1.5,1.5v7.929H9.32c-0.829,0-1.5,0.671-1.5,1.5S8.491,217.541,9.32,217.541z
			 M222.296,194.586c-2.052,2.051-4.779,3.181-7.68,3.181c-2.901,0-5.629-1.13-7.68-3.181l-33.227-33.227
			c-4.234-4.235-4.234-11.126,0-15.361c2.118-2.117,4.898-3.176,7.681-3.176c2.781,0,5.563,1.059,7.68,3.176l33.227,33.227
			c2.051,2.052,3.181,4.779,3.181,7.68C225.478,189.807,224.348,192.535,222.296,194.586z M191.191,143.878
			c-2.183-2.183-4.921-3.468-7.763-3.888h30.458c0.829,0,1.5-0.671,1.5-1.5s-0.671-1.5-1.5-1.5h-47.065l-4.975-4.975
			c2.928-3.119,5.382-6.572,7.317-10.275h44.722c0.829,0,1.5-0.671,1.5-1.5s-0.671-1.5-1.5-1.5h-43.294
			c2.492-5.748,3.812-11.996,3.812-18.45c0-5.201-0.861-10.268-2.495-15.05h41.977c0.829,0,1.5-0.671,1.5-1.5s-0.671-1.5-1.5-1.5
			H170.77c-2.3-5.448-5.65-10.455-9.958-14.763c-0.167-0.167-0.342-0.323-0.512-0.487h53.586c0.829,0,1.5-0.671,1.5-1.5
			s-0.671-1.5-1.5-1.5h-56.97c-0.005,0-0.01,0.001-0.015,0.002c-8.186-6.544-18.267-10.106-28.901-10.106
			c-10.651,0-20.748,3.573-28.941,10.137c-0.1-0.021-0.203-0.033-0.309-0.033H42.114c-0.829,0-1.5,0.671-1.5,1.5s0.671,1.5,1.5,1.5
			H95.7c-0.169,0.164-0.344,0.32-0.512,0.487c-4.307,4.307-7.658,9.315-9.958,14.763H42.114c-0.829,0-1.5,0.671-1.5,1.5
			s0.671,1.5,1.5,1.5h41.977c-1.634,4.781-2.495,9.848-2.495,15.05c0,6.454,1.32,12.702,3.812,18.45H42.114
			c-0.829,0-1.5,0.671-1.5,1.5s0.671,1.5,1.5,1.5h44.722c2.162,4.136,4.958,7.968,8.352,11.362c1.402,1.402,2.885,2.691,4.426,3.888
			h-57.5c-0.829,0-1.5,0.671-1.5,1.5s0.671,1.5,1.5,1.5h61.699c0.041,0,0.08-0.009,0.12-0.012
			c7.182,4.374,15.444,6.716,24.067,6.716c8.649,0,16.933-2.357,24.13-6.755c0.119,0.03,0.242,0.052,0.37,0.052h13.079l5.008,5.008
			c-3.833,4.763-4.048,11.487-0.652,16.475H29.619c-2.144,0-3.888-1.744-3.888-3.888V42.995c0-2.144,1.744-3.888,3.888-3.888
			h196.762c2.144,0,3.888,1.744,3.888,3.888v114.59c0,2.144-1.744,3.888-3.888,3.888h-17.595L191.191,143.878z M172.708,142.877
			l-2.887-2.887h9.529C176.975,140.341,174.674,141.295,172.708,142.877z M97.309,130.981c-8.198-8.198-12.713-19.097-12.713-30.691
			s4.515-22.493,12.713-30.691c8.461-8.461,19.576-12.692,30.691-12.692s22.229,4.23,30.691,12.692
			c8.198,8.198,12.713,19.098,12.713,30.691s-4.515,22.493-12.713,30.691S139.594,143.694,128,143.694
			S105.507,139.179,97.309,130.981z M159.726,134.137l2.853,2.853h-6.193C157.537,136.096,158.651,135.146,159.726,134.137z
			 M17.11,169.887V42.995c0-6.897,5.611-12.509,12.508-12.509h196.763c6.897,0,12.508,5.611,12.508,12.509v126.892
			c0,6.467-4.868,11.778-11.213,12.428c-0.665-1.903-1.741-3.693-3.259-5.211l-12.631-12.631h14.595c3.798,0,6.888-3.09,6.888-6.888
			V42.995c0-3.798-3.09-6.888-6.888-6.888H29.619c-3.798,0-6.888,3.09-6.888,6.888v114.59c0,3.798,3.09,6.888,6.888,6.888H172.58
			l17.923,17.923h-34.486H99.982H29.619C22.722,182.396,17.11,176.785,17.11,169.887z M101.482,185.396h53.035v19.716h-53.035
			V185.396z M90.347,208.112h9.635h56.035h9.635v6.429H90.347V208.112z"/>
	</g>
</g>
</svg>
