<?xml version="1.0" encoding="utf-8"?>
<!-- Generator: Adobe Illustrator 23.0.3, SVG Export Plug-In . SVG Version: 6.00 Build 0)  -->
<svg version="1.1" id="Layer_1" xmlns="http://www.w3.org/2000/svg" xmlns:xlink="http://www.w3.org/1999/xlink" x="0px" y="0px"
	 viewBox="0 0 256 256" style="enable-background:new 0 0 256 256;" xml:space="preserve">
<style type="text/css">
	.st0{fill:#F87023;}
	.st1{fill:#F8AF23;}
	.st2{fill:#CECECE;}
	.st3{fill:#AFAFAF;}
	.st4{fill:#63BCE7;}
	.st5{fill:#63E2E7;}
	.st6{fill:#9E9E9E;}
	.st7{fill:#707070;}
	.st8{fill:#3F3679;}
	.st9{fill:#E2E2E2;}
	.st10{fill:#6377E7;}
	.st11{fill:#F46275;}
	.st12{fill:#F8D323;}
	.st13{fill:#F43075;}
	.st14{fill:#F48875;}
</style>
<g>
	<path class="st2" d="M74.69,204.187v-87.143c0-11.858,9.613-21.471,21.471-21.471h93.755L175.244,76.25h-45.088l-21.471-23.257
		H58.603c-11.858,0-21.471,9.613-21.471,21.471v129.724c0,9.216,6.645,16.866,15.402,18.459c1.097,0.2,2.222,0.319,3.377,0.319h0
		C66.283,222.965,74.69,214.558,74.69,204.187z"/>
	<g>
		<path class="st3" d="M43.633,204.187V74.463c0-11.858,9.613-21.471,21.471-21.471h-6.5c-11.858,0-21.471,9.613-21.471,21.471
			v129.724c0,9.216,6.645,16.866,15.401,18.459c1.097,0.2,2.222,0.319,3.377,0.319h0c1.112,0,2.196-0.115,3.255-0.301
			c-0.044-0.008-0.089-0.011-0.132-0.019C50.278,221.053,43.633,213.403,43.633,204.187z"/>
	</g>
	<rect x="60.789" y="22.062" class="st1" width="134.423" height="182"/>
	<g>
		<rect x="60.789" y="22.062" class="st0" width="6.5" height="182"/>
	</g>
	<g>
		<rect x="188.711" y="22.062" class="st12" width="6.5" height="182"/>
	</g>
	<path class="st4" d="M189.915,95.573H96.16c-11.858,0-21.471,9.613-21.471,21.471v87.143c0,10.371-8.407,18.778-18.778,18.778
		h144.18c10.37,0,18.776-8.406,18.776-18.776V95.573H189.915z"/>
	<g>
		<path class="st5" d="M212.367,95.573V204.19c0,10.37-8.406,18.776-18.776,18.776h6.5c10.37,0,18.776-8.406,18.776-18.776V95.573
			H212.367z"/>
	</g>
	<circle class="st11" cx="146.779" cy="159.269" r="47.583"/>
	<g>
		<rect x="123.195" y="149.144" class="st2" width="47.167" height="27"/>
		<g>
			<rect x="128.224" y="142.394" class="st2" width="11.417" height="6.75"/>
			<rect x="153.64" y="142.394" class="st2" width="11.417" height="6.75"/>
		</g>
	</g>
	<g>
		<path class="st8" d="M77.5,40.312h101c0.828,0,1.5-0.672,1.5-1.5s-0.672-1.5-1.5-1.5h-101c-0.828,0-1.5,0.672-1.5,1.5
			S76.672,40.312,77.5,40.312z"/>
		<path class="st8" d="M77.5,54.492h101c0.828,0,1.5-0.672,1.5-1.5s-0.672-1.5-1.5-1.5h-101c-0.828,0-1.5,0.672-1.5,1.5
			S76.672,54.492,77.5,54.492z"/>
		<path class="st8" d="M77.5,68.674h101c0.828,0,1.5-0.672,1.5-1.5s-0.672-1.5-1.5-1.5h-101c-0.828,0-1.5,0.672-1.5,1.5
			S76.672,68.674,77.5,68.674z"/>
		<path class="st8" d="M77.5,82.854h101c0.828,0,1.5-0.672,1.5-1.5s-0.672-1.5-1.5-1.5h-101c-0.828,0-1.5,0.672-1.5,1.5
			S76.672,82.854,77.5,82.854z"/>
		<path class="st8" d="M27.323,232.438H9.32c-0.828,0-1.5,0.672-1.5,1.5s0.672,1.5,1.5,1.5h18.003c0.828,0,1.5-0.672,1.5-1.5
			S28.151,232.438,27.323,232.438z"/>
		<path class="st8" d="M246.68,232.438h-18.003c-0.828,0-1.5,0.672-1.5,1.5s0.672,1.5,1.5,1.5h18.003c0.828,0,1.5-0.672,1.5-1.5
			S247.508,232.438,246.68,232.438z"/>
		<path class="st8" d="M218.479,232.438H37.521c-0.828,0-1.5,0.672-1.5,1.5s0.672,1.5,1.5,1.5h180.959c0.828,0,1.5-0.672,1.5-1.5
			S219.308,232.438,218.479,232.438z"/>
		<path class="st8" d="M9.32,224.466h46.591h144.18h46.589c0.828,0,1.5-0.672,1.5-1.5s-0.672-1.5-1.5-1.5h-36.029
			c5.816-3.568,9.716-9.967,9.716-17.276V95.573c0-0.828-0.672-1.5-1.5-1.5h-22.156V22.062c0-0.828-0.672-1.5-1.5-1.5H60.789
			c-0.828,0-1.5,0.672-1.5,1.5v29.431h-0.686c-12.666,0-22.971,10.305-22.971,22.971v129.724c0,7.233,3.819,13.686,9.692,17.279
			H9.32c-0.828,0-1.5,0.672-1.5,1.5S8.492,224.466,9.32,224.466z M217.367,204.189c0,9.526-7.75,17.276-17.276,17.276H66.517
			c5.799-3.572,9.673-9.982,9.673-17.279v-87.143c0-11.012,8.959-19.971,19.971-19.971h121.207V204.189z M62.289,23.562h131.422
			v70.512H96.16c-12.666,0-22.971,10.305-22.971,22.971v85.518h-10.9V23.562z M52.803,221.171
			c-8.211-1.493-14.17-8.637-14.17-16.984V74.463c0-11.012,8.959-19.971,19.971-19.971h0.686v149.569c0,0.828,0.672,1.5,1.5,1.5
			H73.12c-0.705,8.886-8.146,15.904-17.209,15.904C54.914,221.466,53.896,221.369,52.803,221.171z"/>
		<path class="st8" d="M146.778,208.353c27.064,0,49.083-22.019,49.083-49.083s-22.019-49.083-49.083-49.083
			c-27.063,0-49.082,22.019-49.082,49.083S119.715,208.353,146.778,208.353z M146.778,113.187c25.41,0,46.083,20.673,46.083,46.083
			s-20.673,46.083-46.083,46.083s-46.082-20.673-46.082-46.083S121.368,113.187,146.778,113.187z"/>
		<path class="st8" d="M123.195,177.645h47.167c0.828,0,1.5-0.672,1.5-1.5v-27c0-0.828-0.672-1.5-1.5-1.5h-3.806v-5.25
			c0-0.828-0.672-1.5-1.5-1.5h-11.416c-0.828,0-1.5,0.672-1.5,1.5v5.25h-11v-5.25c0-0.828-0.672-1.5-1.5-1.5h-11.417
			c-0.828,0-1.5,0.672-1.5,1.5v5.25h-3.528c-0.828,0-1.5,0.672-1.5,1.5v27C121.695,176.973,122.367,177.645,123.195,177.645z
			 M155.141,143.895h8.416v3.75h-8.416V143.895z M129.724,143.895h8.417v3.75h-8.417V143.895z M124.695,150.645h3.528h11.417h14
			h11.416h3.806v24h-44.167V150.645z"/>
	</g>
</g>
</svg>
