<?xml version="1.0" encoding="utf-8"?>
<!-- Generator: Adobe Illustrator 23.0.3, SVG Export Plug-In . SVG Version: 6.00 Build 0)  -->
<svg version="1.1" id="Layer_1" xmlns="http://www.w3.org/2000/svg" xmlns:xlink="http://www.w3.org/1999/xlink" x="0px" y="0px"
	 viewBox="0 0 256 256" style="enable-background:new 0 0 256 256;" xml:space="preserve">
<style type="text/css">
	.st0{fill:#F87023;}
	.st1{fill:#F8AF23;}
	.st2{fill:#CECECE;}
	.st3{fill:#AFAFAF;}
	.st4{fill:#63BCE7;}
	.st5{fill:#63E2E7;}
	.st6{fill:#9E9E9E;}
	.st7{fill:#707070;}
	.st8{fill:#3F3679;}
	.st9{fill:#E2E2E2;}
	.st10{fill:#6377E7;}
	.st11{fill:#F46275;}
	.st12{fill:#F8D323;}
	.st13{fill:#F43075;}
	.st14{fill:#F48875;}
</style>
<g>
	<path class="st2" d="M46.378,194.764V32.267c0-11.416,9.254-20.67,20.67-20.67h142.573v183.167H46.378z"/>
	<g>
		<rect x="203.122" y="11.597" class="st9" width="6.5" height="183.167"/>
	</g>
	<g>
		<path class="st3" d="M73.548,11.597h-6.5c-11.416,0-20.67,9.254-20.67,20.67v162.497h6.5V32.267
			C52.878,20.851,62.133,11.597,73.548,11.597z"/>
	</g>
	<path class="st6" d="M209.622,215.43H67.045c-11.414,0-20.667-9.253-20.667-20.667v0c0-11.414,9.253-20.667,20.667-20.667h142.577
		V215.43z"/>
	<g>
		<rect x="203.122" y="174.097" class="st2" width="6.5" height="41.333"/>
	</g>
	<g>
		<path class="st7" d="M52.878,194.764c0-11.414,9.253-20.667,20.667-20.667h-6.5c-11.414,0-20.667,9.253-20.667,20.667
			s9.253,20.667,20.667,20.667h6.5C62.131,215.43,52.878,206.177,52.878,194.764z"/>
	</g>
	<polygon class="st11" points="93.669,233.43 79.498,221.486 65.327,233.43 65.327,194.764 93.669,194.764 	"/>
	<g>
		<g>
			<g>
				<path class="st4" d="M160.088,70.338c0,8.415,6.822,15.237,15.237,15.237c8.415,0,15.237-6.822,15.237-15.237H160.088z"/>
				<path class="st1" d="M158.643,112.063h-42.336v-1.269c0-8.27,6.704-14.974,14.974-14.974h12.388
					c8.27,0,14.974,6.704,14.974,14.974V112.063z"/>
				<rect x="134.01" y="42.547" class="st6" width="6.929" height="53.273"/>
				<circle class="st1" cx="137.474" cy="42.547" r="9.164"/>
				<circle class="st11" cx="137.474" cy="42.547" r="4.023"/>
				<path class="st4" d="M84.984,70.338c0,8.415,6.822,15.237,15.237,15.237s15.237-6.822,15.237-15.237H84.984z"/>
			</g>
		</g>
		<g>
			<polygon class="st1" points="95.796,125.495 100.165,134.348 109.935,135.767 102.865,142.658 104.534,152.388 95.796,147.794 
				87.058,152.388 88.727,142.658 81.658,135.767 91.427,134.348 			"/>
			<polygon class="st1" points="137.474,125.495 141.844,134.348 151.613,135.767 144.544,142.658 146.213,152.388 137.474,147.794 
				128.736,152.388 130.405,142.658 123.336,135.767 133.105,134.348 			"/>
			<polygon class="st1" points="179.153,125.495 183.522,134.348 193.291,135.767 186.222,142.658 187.891,152.388 179.153,147.794 
				170.415,152.388 172.084,142.658 165.014,135.767 174.784,134.348 			"/>
		</g>
		<g>
			<path class="st8" d="M27.323,242.903H9.32c-0.829,0-1.5,0.671-1.5,1.5s0.671,1.5,1.5,1.5h18.003c0.829,0,1.5-0.671,1.5-1.5
				S28.152,242.903,27.323,242.903z"/>
			<path class="st8" d="M246.68,242.903h-18.003c-0.829,0-1.5,0.671-1.5,1.5s0.671,1.5,1.5,1.5h18.003c0.829,0,1.5-0.671,1.5-1.5
				S247.509,242.903,246.68,242.903z"/>
			<path class="st8" d="M218.479,242.903H37.521c-0.829,0-1.5,0.671-1.5,1.5s0.671,1.5,1.5,1.5h180.959c0.829,0,1.5-0.671,1.5-1.5
				S219.308,242.903,218.479,242.903z"/>
			<path class="st8" d="M9.32,234.93h237.36c0.829,0,1.5-0.671,1.5-1.5s-0.671-1.5-1.5-1.5H95.169v-15h114.452
				c0.829,0,1.5-0.671,1.5-1.5v-20.667v-20.667v-162.5c0-0.829-0.671-1.5-1.5-1.5H67.048c-12.225,0-22.17,9.946-22.17,22.17v162.497
				c0,11.06,8.097,20.334,18.949,21.911v15.255H9.32c-0.829,0-1.5,0.671-1.5,1.5S8.491,234.93,9.32,234.93z M92.169,230.204
				l-11.705-9.865c-0.279-0.235-0.623-0.353-0.967-0.353s-0.688,0.118-0.967,0.353l-11.704,9.865v-33.94h25.342V230.204z
				 M47.878,32.267c0-9.471,6.91-17.339,15.949-18.878v136.457c0,0.829,0.671,1.5,1.5,1.5s1.5-0.671,1.5-1.5V13.108
				c0.074-0.001,0.147-0.011,0.221-0.011h141.073v159.5H67.045c-8.174,0-15.323,4.45-19.167,11.052V32.267z M47.878,194.764
				c0-10.569,8.598-19.167,19.167-19.167h141.077v17.671c-0.013,0-0.025-0.004-0.039-0.004h-101c-0.829,0-1.5,0.671-1.5,1.5
				s0.671,1.5,1.5,1.5h101c0.013,0,0.025-0.004,0.039-0.004v17.67H95.169v-19.167c0-0.829-0.671-1.5-1.5-1.5H65.327
				c-0.829,0-1.5,0.671-1.5,1.5v18.878C54.664,212.097,47.878,204.18,47.878,194.764z M79.498,223.448l10.064,8.482H69.434
				L79.498,223.448z"/>
			<path class="st8" d="M137.475,48.07c3.045,0,5.523-2.478,5.523-5.523s-2.478-5.523-5.523-5.523s-5.523,2.478-5.523,5.523
				S134.429,48.07,137.475,48.07z M137.475,40.023c1.392,0,2.523,1.132,2.523,2.523s-1.132,2.523-2.523,2.523
				s-2.523-1.132-2.523-2.523S136.083,40.023,137.475,40.023z"/>
			<path class="st8" d="M100.221,87.075c9.229,0,16.737-7.508,16.737-16.737c0-0.26-0.072-0.501-0.189-0.714l0.004-0.007
				l-14.019-25.57h24.174c0.488,3.445,2.619,6.365,5.582,7.931V94.32h-1.229c-9.084,0-16.474,7.39-16.474,16.474v1.269
				c0,0.829,0.671,1.5,1.5,1.5h42.336c0.829,0,1.5-0.671,1.5-1.5v-1.269c0-9.084-7.39-16.474-16.474-16.474h-1.229V51.978
				c2.963-1.566,5.094-4.486,5.582-7.931h24.77l-14.019,25.57l0.004,0.007c-0.116,0.213-0.189,0.454-0.189,0.714
				c0,9.229,7.508,16.737,16.737,16.737c9.229,0,16.737-7.508,16.737-16.737c0-0.26-0.072-0.501-0.189-0.714l0.004-0.007
				L176.64,41.826c-0.264-0.48-0.768-0.779-1.315-0.779h-27.303c-0.733-5.171-5.176-9.165-10.546-9.165s-9.813,3.994-10.546,9.165
				h-26.707c-0.548,0-1.052,0.298-1.315,0.779L83.668,69.617l0.004,0.007c-0.116,0.213-0.189,0.454-0.189,0.714
				C83.484,79.567,90.992,87.075,100.221,87.075z M100.221,45.667l12.704,23.171H87.517L100.221,45.667z M100.221,84.075
				c-7.068,0-12.906-5.365-13.655-12.237h27.311C113.127,78.71,107.289,84.075,100.221,84.075z M157.141,110.563h-39.333
				c0.124-7.324,6.12-13.243,13.472-13.243h2.729h6.929h2.729C151.021,97.32,157.017,103.239,157.141,110.563z M139.439,94.32
				h-3.929V53.022c0.638,0.119,1.293,0.189,1.965,0.189c0.672,0,1.327-0.07,1.964-0.189V94.32z M188.028,68.838h-25.408
				l12.704-23.171L188.028,68.838z M175.324,84.075c-7.068,0-12.906-5.365-13.655-12.237h27.311
				C188.23,78.71,182.392,84.075,175.324,84.075z M137.475,34.882c4.226,0,7.665,3.438,7.665,7.665s-3.438,7.665-7.665,7.665
				s-7.665-3.438-7.665-7.665S133.249,34.882,137.475,34.882z"/>
			<path class="st8" d="M87.115,143.182l-1.536,8.953c-0.096,0.563,0.135,1.131,0.597,1.467c0.262,0.19,0.571,0.287,0.882,0.287
				c0.239,0,0.479-0.057,0.698-0.172l8.04-4.227l8.041,4.227c0.505,0.265,1.118,0.222,1.58-0.114
				c0.462-0.335,0.693-0.904,0.597-1.467l-1.536-8.953l6.504-6.34c0.409-0.398,0.556-0.995,0.38-1.538
				c-0.177-0.543-0.646-0.939-1.211-1.021l-8.989-1.307l-4.02-8.146c-0.253-0.512-0.774-0.836-1.345-0.836s-1.092,0.324-1.345,0.836
				l-4.02,8.145l-8.989,1.307c-0.565,0.082-1.034,0.478-1.211,1.021c-0.176,0.543-0.029,1.139,0.38,1.538L87.115,143.182z
				 M91.643,135.832c0.488-0.071,0.911-0.378,1.129-0.821l3.023-6.127l3.024,6.127c0.219,0.442,0.641,0.75,1.129,0.82l6.762,0.983
				l-4.893,4.769c-0.354,0.345-0.515,0.841-0.432,1.328l1.155,6.734l-6.048-3.179c-0.218-0.115-0.458-0.172-0.698-0.172
				s-0.479,0.058-0.698,0.172l-6.047,3.179l1.155-6.734c0.083-0.486-0.078-0.983-0.432-1.328l-4.893-4.769L91.643,135.832z"/>
			<path class="st8" d="M151.829,134.283l-8.989-1.307l-4.02-8.145c-0.253-0.512-0.774-0.836-1.345-0.836s-1.092,0.324-1.345,0.836
				l-4.02,8.146l-8.989,1.307c-0.565,0.082-1.034,0.478-1.211,1.021c-0.176,0.543-0.029,1.139,0.38,1.538l6.504,6.34l-1.536,8.953
				c-0.096,0.563,0.135,1.131,0.597,1.467c0.262,0.19,0.571,0.287,0.882,0.287c0.239,0,0.479-0.057,0.698-0.172l8.041-4.227
				l8.04,4.227c0.506,0.265,1.117,0.222,1.58-0.114c0.462-0.335,0.693-0.904,0.597-1.467l-1.535-8.953l6.504-6.34
				c0.409-0.398,0.556-0.995,0.38-1.538C152.863,134.761,152.394,134.365,151.829,134.283z M143.497,141.584
				c-0.354,0.345-0.515,0.841-0.432,1.328l1.155,6.734l-6.047-3.179c-0.438-0.229-0.959-0.229-1.396,0l-6.048,3.179l1.155-6.734
				c0.083-0.486-0.078-0.983-0.432-1.328l-4.893-4.769l6.762-0.983c0.488-0.071,0.911-0.378,1.129-0.82l3.024-6.127l3.023,6.127
				c0.219,0.443,0.641,0.75,1.129,0.821l6.762,0.983L143.497,141.584z"/>
			<path class="st8" d="M180.498,124.831c-0.253-0.512-0.774-0.836-1.345-0.836s-1.092,0.324-1.345,0.836l-4.02,8.146l-8.989,1.307
				c-0.565,0.082-1.034,0.478-1.211,1.021c-0.176,0.543-0.029,1.139,0.38,1.538l6.504,6.34l-1.536,8.953
				c-0.096,0.563,0.135,1.131,0.597,1.467c0.463,0.336,1.074,0.379,1.58,0.114l8.041-4.227l8.041,4.227
				c0.219,0.115,0.459,0.172,0.698,0.172c0.311,0,0.621-0.097,0.882-0.287c0.462-0.335,0.693-0.904,0.597-1.467l-1.536-8.953
				l6.504-6.34c0.409-0.398,0.556-0.995,0.38-1.538c-0.177-0.543-0.646-0.939-1.211-1.021l-8.989-1.307L180.498,124.831z
				 M185.175,141.584c-0.354,0.345-0.515,0.841-0.432,1.328l1.155,6.734l-6.048-3.179c-0.218-0.115-0.458-0.172-0.698-0.172
				s-0.479,0.058-0.698,0.172l-6.048,3.179l1.155-6.734c0.083-0.486-0.078-0.983-0.432-1.328l-4.893-4.769l6.762-0.983
				c0.488-0.071,0.911-0.378,1.129-0.82l3.024-6.127l3.024,6.127c0.219,0.442,0.641,0.75,1.129,0.82l6.762,0.983L185.175,141.584z"
				/>
		</g>
	</g>
</g>
</svg>
