<?xml version="1.0" encoding="utf-8"?>
<!-- Generator: Adobe Illustrator 23.0.3, SVG Export Plug-In . SVG Version: 6.00 Build 0)  -->
<svg version="1.1" id="Layer_1" xmlns="http://www.w3.org/2000/svg" xmlns:xlink="http://www.w3.org/1999/xlink" x="0px" y="0px"
	 viewBox="0 0 256 256" style="enable-background:new 0 0 256 256;" xml:space="preserve">
<style type="text/css">
	.st0{fill:#F87023;}
	.st1{fill:#F8AF23;}
	.st2{fill:#CECECE;}
	.st3{fill:#AFAFAF;}
	.st4{fill:#63BCE7;}
	.st5{fill:#63E2E7;}
	.st6{fill:#9E9E9E;}
	.st7{fill:#707070;}
	.st8{fill:#3F3679;}
	.st9{fill:#E2E2E2;}
	.st10{fill:#6377E7;}
	.st11{fill:#F46275;}
	.st12{fill:#F8D323;}
	.st13{fill:#F43075;}
	.st14{fill:#F48875;}
</style>
<g>
	<path class="st2" d="M29.619,207.59c-7.724,0-14.009-6.285-14.009-14.009V66.689c0-7.724,6.285-14.009,14.009-14.009h196.762
		c7.724,0,14.009,6.285,14.009,14.009v126.892c0,7.724-6.285,14.009-14.009,14.009H29.619z"/>
	<g>
		<path class="st3" d="M22.11,193.581V66.689c0-7.724,6.285-14.009,14.009-14.009h-6.5c-7.724,0-14.009,6.285-14.009,14.009v126.892
			c0,7.724,6.285,14.009,14.009,14.009h6.5C28.395,207.59,22.11,201.305,22.11,193.581z"/>
	</g>
	<g>
		<path class="st9" d="M233.89,193.581V66.689c0-7.724-6.285-14.009-14.009-14.009h6.5c7.724,0,14.009,6.285,14.009,14.009v126.892
			c0,7.724-6.285,14.009-14.009,14.009h-6.5C227.605,207.59,233.89,201.305,233.89,193.581z"/>
	</g>
	<path class="st4" d="M231.769,181.279c0,2.963-2.425,5.388-5.388,5.388H29.619c-2.963,0-5.388-2.425-5.388-5.388V66.688
		c0-2.963,2.425-5.388,5.388-5.388h196.762c2.963,0,5.388,2.425,5.388,5.388V181.279z"/>
	<g>
		<path class="st10" d="M30.731,181.279V66.688c0-2.963,2.425-5.388,5.388-5.388h-6.5c-2.963,0-5.388,2.425-5.388,5.388v114.59
			c0,2.963,2.425,5.388,5.388,5.388h6.5C33.156,186.667,30.731,184.242,30.731,181.279z"/>
	</g>
	<g>
		<path class="st5" d="M225.269,181.279V66.688c0-2.963-2.425-5.388-5.388-5.388h6.5c2.963,0,5.388,2.425,5.388,5.388v114.59
			c0,2.963-2.425,5.388-5.388,5.388h-6.5C222.844,186.667,225.269,184.242,225.269,181.279z"/>
	</g>
	<rect x="88.847" y="230.305" class="st2" width="78.305" height="9.429"/>
	<g>
		<rect x="88.847" y="230.305" class="st3" width="6.5" height="9.429"/>
	</g>
	<rect x="99.983" y="207.59" class="st6" width="56.035" height="22.716"/>
	<g>
		<rect x="99.983" y="207.59" class="st7" width="6.5" height="22.716"/>
	</g>
	<circle class="st1" cx="128" cy="197.128" r="4.613"/>
	<path class="st6" d="M81.827,170.402V94.925c0-10.27,8.326-18.596,18.596-18.596h81.204l-12.707-16.737h-39.052l-18.596-20.144
		H67.894c-10.27,0-18.596,8.326-18.596,18.596v112.358c0,7.983,5.755,14.608,13.34,15.988c0.95,0.173,1.925,0.277,2.925,0.277h0
		C74.545,186.667,81.827,179.385,81.827,170.402z"/>
	<rect x="69.786" y="12.658" class="st2" width="116.428" height="157.636"/>
	<path class="st1" d="M181.627,76.329h-81.204c-10.27,0-18.596,8.326-18.596,18.596v75.477c0,8.983-7.282,16.265-16.265,16.265
		H190.44c8.981,0,16.262-7.281,16.262-16.262V76.329H181.627z"/>
	<circle class="st2" cx="144.265" cy="131.498" r="46.121"/>
	<circle class="st6" cx="144.265" cy="115.438" r="14.454"/>
	<path class="st11" d="M164.272,162.012h-40.015v-21.999c0-5.59,4.531-10.121,10.121-10.121h19.772
		c5.59,0,10.121,4.531,10.121,10.121V162.012z"/>
	<g>
		<circle class="st11" cx="129.811" cy="36.838" r="31.546"/>
		<path class="st2" d="M122.843,36.838l-5.866-6.696c-1.907-2.177-1.689-5.489,0.488-7.396c2.176-1.907,5.489-1.69,7.396,0.489
			l4.95,5.65l4.95-5.65c1.907-2.177,5.219-2.395,7.396-0.489c2.177,1.907,2.395,5.219,0.488,7.396l-5.866,6.696l5.866,6.696
			c1.907,2.177,1.689,5.489-0.488,7.396c-0.995,0.871-2.226,1.299-3.452,1.299c-1.457,0-2.908-0.605-3.944-1.788l-4.95-5.65
			l-4.95,5.65c-1.036,1.183-2.487,1.788-3.944,1.788c-1.227,0-2.458-0.428-3.452-1.299c-2.177-1.907-2.395-5.219-0.488-7.396
			L122.843,36.838z"/>
		<g>
			<path class="st8" d="M128,203.241c3.371,0,6.113-2.742,6.113-6.113c0-3.371-2.742-6.113-6.113-6.113s-6.113,2.742-6.113,6.113
				C121.887,200.499,124.629,203.241,128,203.241z M128,194.015c1.717,0,3.113,1.396,3.113,3.113c0,1.716-1.396,3.113-3.113,3.113
				s-3.113-1.396-3.113-3.113C124.887,195.412,126.283,194.015,128,194.015z"/>
			<path class="st8" d="M27.323,249.208H9.32c-0.829,0-1.5,0.671-1.5,1.5s0.671,1.5,1.5,1.5h18.003c0.829,0,1.5-0.671,1.5-1.5
				S28.152,249.208,27.323,249.208z"/>
			<path class="st8" d="M246.68,249.208h-18.003c-0.828,0-1.5,0.671-1.5,1.5s0.672,1.5,1.5,1.5h18.003c0.828,0,1.5-0.671,1.5-1.5
				S247.508,249.208,246.68,249.208z"/>
			<path class="st8" d="M218.479,249.208H37.521c-0.829,0-1.5,0.671-1.5,1.5s0.671,1.5,1.5,1.5h180.959c0.828,0,1.5-0.671,1.5-1.5
				S219.308,249.208,218.479,249.208z"/>
			<path class="st8" d="M9.32,241.234h79.527h78.305h79.527c0.828,0,1.5-0.671,1.5-1.5s-0.672-1.5-1.5-1.5h-78.027v-7.929
				c0-0.829-0.672-1.5-1.5-1.5h-9.635v-19.716h68.863c8.552,0,15.509-6.957,15.509-15.508V66.688
				c0-8.551-6.957-15.508-15.509-15.508h-38.667V12.658c0-0.829-0.672-1.5-1.5-1.5h-35.495c-0.043,0-0.084,0.009-0.126,0.013
				c-5.682-4.609-12.913-7.378-20.782-7.378c-7.875,0-15.112,2.773-20.795,7.388c-0.075-0.011-0.15-0.023-0.228-0.023H69.786
				c-0.829,0-1.5,0.671-1.5,1.5v25.291h-0.393c-8.668,0-16.049,5.526-18.863,13.232H29.619c-8.551,0-15.508,6.957-15.508,15.508
				v126.893c0,8.551,6.957,15.508,15.508,15.508h68.864v19.716h-9.635c-0.829,0-1.5,0.671-1.5,1.5v7.929H9.32
				c-0.829,0-1.5,0.671-1.5,1.5S8.491,241.234,9.32,241.234z M83.327,170.402V94.925c0-9.427,7.669-17.096,17.096-17.096h104.78
				v92.576c0,8.14-6.622,14.763-14.763,14.763H75.431C80.189,181.977,83.327,176.549,83.327,170.402z M208.203,170.404V76.329
				c0-0.829-0.672-1.5-1.5-1.5h-18.989V62.8h38.667c2.144,0,3.888,1.744,3.888,3.888v114.59c0,2.144-1.744,3.888-3.888,3.888
				h-26.078C205.062,181.977,208.203,176.552,208.203,170.404z M159.856,36.838c0,16.567-13.479,30.045-30.046,30.045
				S99.765,53.405,99.765,36.838c0-16.567,13.479-30.046,30.046-30.046S159.856,20.271,159.856,36.838z M71.286,14.158h34.524
				c-5.601,5.923-9.046,13.905-9.046,22.681c0,18.221,14.824,33.045,33.046,33.045s33.046-14.824,33.046-33.045
				c0-8.776-3.445-16.757-9.046-22.681h30.903v60.671h-84.291c-11.081,0-20.096,9.015-20.096,20.096v73.869h-9.041V14.158z
				 M67.894,40.948h0.393v129.345c0,0.829,0.671,1.5,1.5,1.5h10.47c-0.704,7.491-7.023,13.374-14.694,13.374
				c-0.853,0-1.722-0.083-2.657-0.252c-7.016-1.276-12.108-7.379-12.108-14.512V58.044C50.797,48.618,58.467,40.948,67.894,40.948z
				 M55.714,185.167H29.619c-2.144,0-3.888-1.744-3.888-3.888V66.688c0-2.144,1.744-3.888,3.888-3.888h18.178v107.602
				C47.797,176.499,50.898,181.958,55.714,185.167z M17.11,193.581V66.688c0-6.897,5.611-12.508,12.508-12.508h18.56
				c-0.245,1.252-0.381,2.542-0.381,3.864V59.8H29.619c-3.798,0-6.888,3.09-6.888,6.888v114.59c0,3.798,3.09,6.888,6.888,6.888
				h35.943H190.44h35.94c3.798,0,6.888-3.09,6.888-6.888V66.688c0-3.798-3.09-6.888-6.888-6.888h-38.667v-5.62h38.667
				c6.897,0,12.509,5.611,12.509,12.508v126.893c0,6.897-5.611,12.508-12.509,12.508h-70.363H99.982H29.619
				C22.722,206.089,17.11,200.478,17.11,193.581z M101.482,209.089h53.035v19.716h-53.035V209.089z M90.347,231.805h9.635h56.035
				h9.635v6.429H90.347V231.805z"/>
			<path class="st8" d="M144.265,179.119c26.259,0,47.621-21.363,47.621-47.622c0-26.258-21.362-47.621-47.621-47.621
				s-47.622,21.363-47.622,47.621C96.643,157.756,118.006,179.119,144.265,179.119z M144.265,86.876
				c24.604,0,44.621,20.017,44.621,44.621c0,24.604-20.017,44.622-44.621,44.622s-44.622-20.017-44.622-44.622
				C99.643,106.894,119.66,86.876,144.265,86.876z"/>
			<path class="st8" d="M124.257,163.512h40.015c0.828,0,1.5-0.671,1.5-1.5v-22c0-6.408-5.214-11.621-11.622-11.621h-0.609
				c4.035-2.898,6.677-7.618,6.677-12.954c0-8.797-7.157-15.954-15.954-15.954s-15.954,7.157-15.954,15.954
				c0,5.336,2.642,10.056,6.677,12.954h-0.609c-6.408,0-11.622,5.213-11.622,11.621v22
				C122.757,162.841,123.429,163.512,124.257,163.512z M131.311,115.438c0-7.143,5.812-12.954,12.954-12.954
				s12.954,5.811,12.954,12.954s-5.812,12.954-12.954,12.954S131.311,122.581,131.311,115.438z M125.757,140.013
				c0-4.754,3.868-8.621,8.622-8.621h19.771c4.754,0,8.622,3.867,8.622,8.621v20.5h-37.015V140.013z"/>
			<path class="st8" d="M114.192,47.432c0.119,1.797,0.93,3.44,2.284,4.627c1.23,1.077,2.807,1.67,4.44,1.67
				c1.944,0,3.792-0.838,5.072-2.299l3.822-4.362l3.821,4.361c1.279,1.461,3.128,2.3,5.072,2.3c1.635,0,3.212-0.593,4.44-1.67
				c1.354-1.187,2.166-2.83,2.284-4.627c0.119-1.796-0.47-3.532-1.656-4.886l-5-5.708l5-5.708c2.45-2.796,2.168-7.064-0.628-9.513
				c-2.798-2.451-7.065-2.167-9.512,0.629l-3.822,4.362l-3.822-4.362c-1.186-1.355-2.83-2.167-4.627-2.285
				c-1.796-0.12-3.532,0.47-4.886,1.656c-2.795,2.45-3.077,6.717-0.627,9.513l5,5.708l-5,5.708
				C114.662,43.9,114.073,45.635,114.192,47.432z M118.105,44.523l5.866-6.696c0.496-0.565,0.496-1.411,0-1.977l-5.866-6.696
				c-1.36-1.551-1.204-3.92,0.348-5.279c0.751-0.658,1.71-0.992,2.712-0.919c0.998,0.065,1.909,0.516,2.567,1.268l4.95,5.65
				c0.57,0.65,1.688,0.65,2.256,0l4.951-5.65c1.357-1.553,3.727-1.707,5.278-0.349c1.552,1.359,1.708,3.728,0.349,5.28l-5.866,6.696
				c-0.496,0.565-0.496,1.411,0,1.977l5.866,6.696c0.658,0.752,0.984,1.715,0.919,2.712s-0.516,1.909-1.269,2.568
				c-0.682,0.598-1.556,0.927-2.463,0.927c-1.079,0-2.105-0.465-2.815-1.276l-4.95-5.65c-0.284-0.325-0.695-0.512-1.128-0.512
				s-0.843,0.187-1.128,0.512l-4.95,5.65c-0.71,0.811-1.736,1.276-2.815,1.276c-0.906,0-1.781-0.329-2.463-0.927
				c-0.752-0.658-1.202-1.57-1.268-2.567C117.12,46.238,117.446,45.275,118.105,44.523z"/>
		</g>
	</g>
</g>
</svg>
