<?xml version="1.0" encoding="utf-8"?>
<!-- Generator: Adobe Illustrator 23.0.0, SVG Export Plug-In . SVG Version: 6.00 Build 0)  -->
<svg version="1.1" id="Layer_1" xmlns="http://www.w3.org/2000/svg" xmlns:xlink="http://www.w3.org/1999/xlink" x="0px" y="0px"
	 viewBox="0 0 64 64" style="enable-background:new 0 0 64 64;" xml:space="preserve">
<style type="text/css">
	.st0{fill:#353744;}
	.st1{fill:#F68820;}
	.st2{fill:#808080;}
	.st3{fill:#5C76B2;}
	.st4{fill:#6FA4D8;}
	.st5{fill:#DBDEE3;}
	.st6{fill:#B3B4B6;}
	.st7{fill:#FBBE18;}
	.st8{fill:#EEC78E;}
	.st9{fill:#DB9E68;}
	.st10{fill:#55525B;}
	.st11{fill:#FFFFFF;}
	.st12{fill:#1C1D28;}
	.st13{fill:#FBD301;}
	.st14{fill:#BE7850;}
	.st15{fill:#4C52A3;}
	.st16{fill:#BF6B1E;}
	.st17{fill:#5F7ABC;}
	.st18{fill:#D4761E;}
	.st19{fill:#5D76B2;}
	.st20{fill:#668DC5;}
</style>
<g>
	<g>
		<path class="st5" d="M29.757,30.778L13.6,12.826c-0.639-0.71-0.687-1.773-0.113-2.538L17.9,4.404c0.378-0.504,0.97-0.8,1.6-0.8h22
			c0.63,0,1.222,0.296,1.6,0.8l4.413,5.884c0.573,0.764,0.526,1.828-0.113,2.538L31.243,30.778
			C30.846,31.22,30.154,31.22,29.757,30.778z"/>
	</g>
	<g>
		<path class="st3" d="M30.9,4.137l5,6.667c0.247,0.33,0.012,0.8-0.4,0.8h-10c-0.412,0-0.647-0.47-0.4-0.8l5-6.667
			C30.3,3.871,30.7,3.871,30.9,4.137z"/>
	</g>
	<g>
		<path class="st4" d="M31.5,3.604h10c0.63,0,1.222,0.296,1.6,0.8l4.2,5.6c0.494,0.659,0.024,1.6-0.8,1.6h-9
			c-0.63,0-1.222-0.296-1.6-0.8l-4.8-6.4C30.853,4.075,31.088,3.604,31.5,3.604z"/>
	</g>
	<g>
		<g>
			<path class="st1" d="M45,34.104H28c3.033,0,5.5,2.467,5.5,5.5s-2.467,5.5-5.5,5.5h17c3.038,0,5.5-2.462,5.5-5.5v0
				C50.5,36.567,48.038,34.104,45,34.104z"/>
		</g>
	</g>
	<g>
		<path class="st3" d="M35,34.104h-2.5c3.038,0,5.5,2.462,5.5,5.5v0c0,3.038-2.462,5.5-5.5,5.5H35c3.038,0,5.5-2.462,5.5-5.5v0
			C40.5,36.567,38.038,34.104,35,34.104z"/>
	</g>
	<g>
		<path class="st5" d="M31.5,39.604c0-1.93-1.57-3.5-3.5-3.5H13.5v7H28C29.93,43.104,31.5,41.534,31.5,39.604z"/>
	</g>
	<g>
		<g>
			<path class="st5" d="M11.5,54.604c-1.654,0-3,1.121-3,2.5s1.346,2.5,3,2.5h28v-5H11.5z"/>
		</g>
		<g>
			<path class="st1" d="M48.5,52.604h-9c0.552,0,1,0.448,1,1s-0.448,1-1,1h9c0.552,0,1-0.448,1-1S49.052,52.604,48.5,52.604z"/>
		</g>
		<g>
			<path class="st1" d="M48.5,59.604h-9c0.552,0,1,0.448,1,1s-0.448,1-1,1h9c0.552,0,1-0.448,1-1S49.052,59.604,48.5,59.604z"/>
		</g>
		<g>
			<path class="st7" d="M39.5,61.604h-28c-2.757,0-5-2.019-5-4.5s2.243-4.5,5-4.5h28c0.552,0,1,0.448,1,1s-0.448,1-1,1h-28
				c-1.654,0-3,1.121-3,2.5s1.346,2.5,3,2.5h28c0.552,0,1,0.448,1,1S40.052,61.604,39.5,61.604z"/>
		</g>
		<g>
			<rect x="39.5" y="54.604" class="st6" width="9" height="5"/>
		</g>
	</g>
	<g>
		<path class="st10" d="M56,52.604H18c-0.828,0-1.5-0.672-1.5-1.5v-4.5c0-0.828,0.672-1.5,1.5-1.5h38c0.828,0,1.5,0.672,1.5,1.5v4.5
			C57.5,51.933,56.828,52.604,56,52.604z"/>
	</g>
	<g>
		<rect x="21" y="45.104" class="st0" width="4" height="7.5"/>
	</g>
	<g>
		<rect x="48.5" y="45.104" class="st0" width="1.5" height="7.5"/>
	</g>
	<g>
		<path class="st7" d="M28,45.104H13.5c-0.552,0-1-0.448-1-1s0.448-1,1-1H28c1.93,0,3.5-1.57,3.5-3.5s-1.57-3.5-3.5-3.5H13.5
			c-0.552,0-1-0.448-1-1s0.448-1,1-1H28c3.033,0,5.5,2.467,5.5,5.5S31.033,45.104,28,45.104z"/>
	</g>
	<g>
		<path class="st4" d="M24.886,12.891l5.455,18.185c0.164,0,0.153,0,0.317,0l5.455-18.185c0.192-0.642-0.288-1.287-0.958-1.287
			h-9.312C25.174,11.604,24.694,12.25,24.886,12.891z"/>
	</g>
	<g>
		<path class="st3" d="M24.714,12.317c-0.127-0.423-0.516-0.713-0.958-0.713h-9.011c-0.866,0-1.322,1.025-0.743,1.669l7.285,8.095
			l8.469,9.41c0.159,0.177,0.369,0.263,0.585,0.298L24.714,12.317z"/>
	</g>
	<g>
		<path class="st4" d="M54.5,12.604h-4c-0.552,0-1-0.447-1-1s0.448-1,1-1h4c0.552,0,1,0.447,1,1S55.052,12.604,54.5,12.604z"/>
	</g>
	<g>
		<path class="st4" d="M49.294,5.764c-0.408,0-0.792-0.252-0.939-0.658c-0.189-0.519,0.079-1.093,0.598-1.281l3.759-1.368
			c0.517-0.188,1.093,0.078,1.281,0.598c0.189,0.519-0.079,1.093-0.598,1.281l-3.759,1.368C49.523,5.744,49.408,5.764,49.294,5.764z
			"/>
	</g>
	<g>
		<path class="st4" d="M53.053,20.812c-0.114,0-0.229-0.02-0.342-0.061l-3.759-1.368c-0.519-0.188-0.787-0.763-0.598-1.281
			c0.188-0.52,0.765-0.787,1.281-0.598l3.759,1.368c0.519,0.188,0.787,0.763,0.598,1.281C53.845,20.56,53.461,20.812,53.053,20.812z
			"/>
	</g>
	<g>
		<path class="st4" d="M10.5,12.604h-4c-0.552,0-1-0.447-1-1s0.448-1,1-1h4c0.552,0,1,0.447,1,1S11.052,12.604,10.5,12.604z"/>
	</g>
	<g>
		<path class="st4" d="M11.706,5.764c-0.114,0-0.229-0.02-0.342-0.061L7.605,4.335C7.086,4.146,6.819,3.572,7.008,3.054
			c0.189-0.52,0.763-0.785,1.281-0.598l3.759,1.368c0.519,0.188,0.787,0.763,0.598,1.281C12.498,5.512,12.114,5.764,11.706,5.764z"
			/>
	</g>
	<g>
		<path class="st4" d="M7.947,20.812c-0.408,0-0.792-0.252-0.939-0.658c-0.189-0.519,0.079-1.093,0.598-1.281l3.759-1.368
			c0.518-0.189,1.093,0.078,1.281,0.598c0.189,0.519-0.079,1.093-0.598,1.281l-3.759,1.368C8.176,20.793,8.061,20.812,7.947,20.812z
			"/>
	</g>
</g>
</svg>
