<?xml version="1.0" encoding="utf-8"?>
<!-- Generator: Adobe Illustrator 23.0.0, SVG Export Plug-In . SVG Version: 6.00 Build 0)  -->
<svg version="1.1" id="Layer_1" xmlns="http://www.w3.org/2000/svg" xmlns:xlink="http://www.w3.org/1999/xlink" x="0px" y="0px"
	 viewBox="0 0 64 64" style="enable-background:new 0 0 64 64;" xml:space="preserve">
<style type="text/css">
	.st0{fill:#353744;}
	.st1{fill:#F68820;}
	.st2{fill:#808080;}
	.st3{fill:#5C76B2;}
	.st4{fill:#6FA4D8;}
	.st5{fill:#DBDEE3;}
	.st6{fill:#B3B4B6;}
	.st7{fill:#FBBE18;}
	.st8{fill:#EEC78E;}
	.st9{fill:#DB9E68;}
	.st10{fill:#55525B;}
	.st11{fill:#FFFFFF;}
	.st12{fill:#1C1D28;}
	.st13{fill:#FBD301;}
	.st14{fill:#BE7850;}
	.st15{fill:#4C52A3;}
	.st16{fill:#BF6B1E;}
	.st17{fill:#5F7ABC;}
	.st18{fill:#D4761E;}
	.st19{fill:#5D76B2;}
	.st20{fill:#668DC5;}
</style>
<g>
	<g>
		<path class="st10" d="M32,37c1.105,0,2-0.895,2-2h-4C30,36.105,30.895,37,32,37z"/>
	</g>
	<g>
		<g>
			<g>
				<path class="st8" d="M17,38c-3.314,0-6,2.686-6,6v12h6.5v-2H21c1.105,0,2-0.895,2-2v-8C23,40.686,20.314,38,17,38z"/>
			</g>
			<g>
				<path class="st9" d="M21.75,50L21.75,50c-0.69,0-1.25-0.56-1.25-1.25V46h0c1.381,0,2.5,1.119,2.5,2.5v0.25
					C23,49.44,22.44,50,21.75,50z"/>
			</g>
			<g>
				<circle class="st10" cx="19" cy="45.5" r="0.5"/>
			</g>
			<g>
				<circle class="st10" cx="22" cy="45.5" r="0.5"/>
			</g>
			<g>
				<path class="st9" d="M17.5,56H11l0,0c0-1.105,0.895-2,2-2h4.5V56z"/>
			</g>
			<g>
				<path class="st10" d="M22,51h-3v0c0,0.552,0.448,1,1,1h1C21.552,52,22,51.552,22,51L22,51z"/>
			</g>
		</g>
		<g>
			<path class="st1" d="M22,36h-7c-3.314,0-6,2.686-6,6v8c0,1.105,0.895,2,2,2h2c1.105,0,2-0.895,2-2v-3h0.5
				c0.828,0,1.5-0.672,1.5-1.5v-2c0-0.828,0.672-1.5,1.5-1.5H22c1.657,0,3-1.343,3-3v0C25,37.343,23.657,36,22,36z"/>
		</g>
		<g>
			<path class="st9" d="M15,46c-1.105,0-2,0.895-2,2c0,1.105,0.895,2,2,2V46z"/>
		</g>
		<g>
			<path class="st3" d="M20,56h-9c-1.657,0-3,1.343-3,3v3h15v-3C23,57.343,21.657,56,20,56z"/>
		</g>
		<g>
			<path class="st4" d="M11,56L11,56c-1.657,0-3,1.343-3,3v3h6v-3C14,57.343,12.657,56,11,56z"/>
		</g>
	</g>
	<g>
		<g>
			<g>
				<path class="st8" d="M47,38c-3.314,0-6,2.686-6,6v8c0,1.105,0.895,2,2,2h3.5v2H53V44C53,40.686,50.314,38,47,38z"/>
			</g>
			<g>
				<path class="st9" d="M42.25,50L42.25,50c0.69,0,1.25-0.56,1.25-1.25V46h0c-1.381,0-2.5,1.119-2.5,2.5v0.25
					C41,49.44,41.56,50,42.25,50z"/>
			</g>
			<g>
				<circle class="st10" cx="45" cy="45.5" r="0.5"/>
			</g>
			<g>
				<circle class="st10" cx="42" cy="45.5" r="0.5"/>
			</g>
			<g>
				<path class="st9" d="M46.5,56H53l0,0c0-1.105-0.895-2-2-2h-4.5V56z"/>
			</g>
			<g>
				<path class="st10" d="M42,51h3v0c0,0.552-0.448,1-1,1h-1C42.448,52,42,51.552,42,51L42,51z"/>
			</g>
		</g>
		<g>
			<path class="st10" d="M49,36h-3c-3.314,0-6,2.686-6,6h5.5c0.828,0,1.5,0.672,1.5,1.5v1c0,0.828,0.672,1.5,1.5,1.5H49v8
				c0,1.105-0.895,2-2,2h6c1.105,0,2-0.895,2-2V42C55,38.686,52.314,36,49,36z"/>
		</g>
		<g>
			<path class="st9" d="M49,46c1.105,0,2,0.895,2,2c0,1.105-0.895,2-2,2V46z"/>
		</g>
		<g>
			<path class="st7" d="M53,56h-9c-1.657,0-3,1.343-3,3v3h15v-3C56,57.343,54.657,56,53,56z"/>
		</g>
		<g>
			<path class="st1" d="M53,56L53,56c1.657,0,3,1.343,3,3v3h-6v-3C50,57.343,51.343,56,53,56z"/>
		</g>
	</g>
	<g>
		<path class="st1" d="M43,13c0-6.501-5.639-11.685-12.293-10.926c-4.918,0.561-8.941,4.489-9.603,9.395
			c-0.547,4.048,1.112,7.735,3.943,10.044C26.974,23.086,28,25.512,28,28v0h8v-0.003c0-2.522,1.09-4.935,3.029-6.547
			C41.455,19.435,43,16.4,43,13z"/>
	</g>
	<g>
		<path class="st6" d="M34,35h-4c-1.105,0-2-0.895-2-2v-5h8v5C36,34.105,35.105,35,34,35z"/>
	</g>
	<g>
		<path class="st7" d="M28.758,2.489c-3.444,1.066-6.207,3.813-7.273,7.263C22.346,11.665,24.265,13,26.5,13
			c3.038,0,5.5-2.462,5.5-5.5C32,5.268,30.668,3.351,28.758,2.489z"/>
	</g>
	<g>
		<path class="st2" d="M32,28v7h2c1.105,0,2-0.895,2-2v-5H32z"/>
	</g>
	<g>
		<rect x="28" y="29.5" class="st5" width="4" height="1"/>
	</g>
	<g>
		<rect x="28" y="32" class="st5" width="4" height="1"/>
	</g>
	<g>
		<rect x="32" y="29.5" class="st6" width="4" height="1"/>
	</g>
	<g>
		<rect x="32" y="32" class="st6" width="4" height="1"/>
	</g>
	<g>
		<g>
			<circle class="st3" cx="44.5" cy="13" r="0.5"/>
		</g>
		<g>
			<circle class="st3" cx="46.25" cy="13" r="0.5"/>
		</g>
		<g>
			<circle class="st3" cx="48" cy="13" r="0.5"/>
		</g>
	</g>
	<g>
		<g>
			<circle class="st3" cx="48" cy="13" r="0.5"/>
		</g>
		<g>
			<circle class="st3" cx="48" cy="15" r="0.5"/>
		</g>
		<g>
			<circle class="st3" cx="48" cy="17" r="0.5"/>
		</g>
		<g>
			<circle class="st3" cx="48" cy="19" r="0.5"/>
		</g>
		<g>
			<circle class="st3" cx="48" cy="21" r="0.5"/>
		</g>
		<g>
			<circle class="st3" cx="48" cy="23" r="0.5"/>
		</g>
		<g>
			<circle class="st3" cx="48" cy="25" r="0.5"/>
		</g>
		<g>
			<circle class="st3" cx="48" cy="27" r="0.5"/>
		</g>
		<g>
			<circle class="st3" cx="48" cy="29" r="0.5"/>
		</g>
		<g>
			<circle class="st3" cx="48" cy="31" r="0.5"/>
		</g>
		<g>
			<circle class="st3" cx="48" cy="33" r="0.5"/>
		</g>
		<g>
			<circle class="st3" cx="48" cy="35" r="0.5"/>
		</g>
	</g>
	<g>
		<g>
			<circle class="st3" cx="19.5" cy="13" r="0.5"/>
		</g>
		<g>
			<circle class="st3" cx="17.75" cy="13" r="0.5"/>
		</g>
		<g>
			<circle class="st3" cx="16" cy="13" r="0.5"/>
		</g>
	</g>
	<g>
		<g>
			<circle class="st3" cx="16" cy="13" r="0.5"/>
		</g>
		<g>
			<circle class="st3" cx="16" cy="15" r="0.5"/>
		</g>
		<g>
			<circle class="st3" cx="16" cy="17" r="0.5"/>
		</g>
		<g>
			<circle class="st3" cx="16" cy="19" r="0.5"/>
		</g>
		<g>
			<circle class="st3" cx="16" cy="21" r="0.5"/>
		</g>
		<g>
			<circle class="st3" cx="16" cy="23" r="0.5"/>
		</g>
		<g>
			<circle class="st3" cx="16" cy="25" r="0.5"/>
		</g>
		<g>
			<circle class="st3" cx="16" cy="27" r="0.5"/>
		</g>
		<g>
			<circle class="st3" cx="16" cy="29" r="0.5"/>
		</g>
		<g>
			<circle class="st3" cx="16" cy="31" r="0.5"/>
		</g>
		<g>
			<circle class="st3" cx="16" cy="33" r="0.5"/>
		</g>
		<g>
			<circle class="st3" cx="16" cy="35" r="0.5"/>
		</g>
	</g>
	<g>
		<path class="st1" d="M37.646,42.646l-1.793-1.793C35.539,40.539,35,40.762,35,41.207V42h-6.5c-0.276,0-0.5,0.224-0.5,0.5v1
			c0,0.276,0.224,0.5,0.5,0.5H35v0.793c0,0.445,0.539,0.668,0.854,0.354l1.793-1.793C37.842,43.158,37.842,42.842,37.646,42.646z"/>
	</g>
	<g>
		<path class="st1" d="M35.5,49H29v-0.793c0-0.445-0.539-0.668-0.854-0.354l-1.793,1.793c-0.195,0.195-0.195,0.512,0,0.707
			l1.793,1.793C28.461,52.461,29,52.238,29,51.793V51h6.5c0.276,0,0.5-0.224,0.5-0.5v-1C36,49.224,35.776,49,35.5,49z"/>
	</g>
</g>
</svg>
