<svg id="Layer_1" data-name="Layer 1" xmlns="http://www.w3.org/2000/svg" viewBox="0 0 128 128"><title>BEVERAGES</title><path d="M86.391,99.281a9.328,9.328,0,0,1-3.8-.782,7.616,7.616,0,0,1-4.53-7.292,1.75,1.75,0,0,1,3.5,0,4.122,4.122,0,0,0,2.46,4.1,6.23,6.23,0,0,0,6.257-.871,3.837,3.837,0,0,0,.92-4.36c-1.257-3.938.573-9.591,2.693-16.138,2.372-7.325,5.061-15.627,2.44-20.342-4.431-7.976-13.406-3.977-13.787-3.8a1.75,1.75,0,0,1-1.471-3.176c4.228-1.967,13.5-3.393,18.318,5.28,3.357,6.045.42,15.116-2.172,23.12-1.771,5.471-3.6,11.128-2.688,13.995a7.336,7.336,0,0,1-1.921,8.034A9.431,9.431,0,0,1,86.391,99.281Z" style="fill:#475a61"/><path d="M33.48,26.745H81.813a0,0,0,0,1,0,0v79.37a3.571,3.571,0,0,1-3.571,3.571H37.05a3.571,3.571,0,0,1-3.571-3.571V26.745A0,0,0,0,1,33.48,26.745Z" style="fill:#fd9025"/><rect x="37.48" y="109.686" width="40.333" height="4.791" style="fill:#ed3a1b"/><rect x="41.021" y="50" width="6" height="47.833" rx="3" ry="3" style="fill:#ed3a1b"/><rect x="54.646" y="50" width="6" height="47.833" rx="3" ry="3" style="fill:#ed3a1b"/><rect x="68.271" y="50" width="6" height="47.833" rx="3" ry="3" style="fill:#ed3a1b"/><path d="M78.279,22.821a8.168,8.168,0,0,0-1.807.208c0-.07.01-.138.01-.208a6.362,6.362,0,0,0-11.6-3.616,8.947,8.947,0,0,0-9.255-.084,8.477,8.477,0,0,0-16.34,1.518,7.009,7.009,0,1,0-.925,12.643,5.856,5.856,0,0,0,8.407,2.086V54.125a3.25,3.25,0,0,0,6.5,0V32.65a8.986,8.986,0,0,0,6.916,3.239c.052,0,.1-.007.153-.008A8.152,8.152,0,0,0,75.3,38.574a8.158,8.158,0,1,0,2.976-15.753Z" style="fill:#fed29a"/></svg>