<svg id="Layer_1" data-name="Layer 1" xmlns="http://www.w3.org/2000/svg" viewBox="0 0 128 128"><title>CLOSE</title><path d="M107.543,61.736,69.508,25.312a5.566,5.566,0,0,0-11.015,0L20.457,61.736a1.75,1.75,0,1,0,2.42,2.527L59.411,29.277a5.564,5.564,0,0,0,9.178,0l36.534,34.987a1.75,1.75,0,0,0,2.42-2.527ZM64,28.194a2.073,2.073,0,1,1,2.073-2.073A2.075,2.075,0,0,1,64,28.194Z" style="fill:#475a61"/><rect x="13.523" y="60.573" width="100.953" height="45.13" style="fill:#fc642b"/><path d="M108.674,95.092V71.183a4.875,4.875,0,0,1-4.875-4.875H24.2a4.875,4.875,0,0,1-4.875,4.875V95.092A4.875,4.875,0,0,1,24.2,99.967h79.6A4.875,4.875,0,0,1,108.674,95.092Z" style="fill:#fff5f5"/><path d="M36.86,86.758a2.867,2.867,0,0,1-3.969-.171,5.393,5.393,0,0,1-.725-3.278,5.157,5.157,0,0,1,.607-2.832,2.809,2.809,0,0,1,3.523-.94,2.563,2.563,0,0,1,.912.785,3.355,3.355,0,0,1,.432.961l3.924-.873a6.453,6.453,0,0,0-2.311-3.375,7.3,7.3,0,0,0-4.273-1.1,7.222,7.222,0,0,0-5.371,1.917,7.465,7.465,0,0,0-1.9,5.485,8.118,8.118,0,0,0,1.08,4.394,6.069,6.069,0,0,0,2.564,2.4,9.241,9.241,0,0,0,3.832.682,7.829,7.829,0,0,0,3.184-.56,5.36,5.36,0,0,0,2.1-1.657A7.191,7.191,0,0,0,41.7,85.854l-3.9-1.177A4.416,4.416,0,0,1,36.86,86.758Z" style="fill:#475a61"/><polygon points="48.306 76.181 43.862 76.181 43.862 90.564 55.243 90.564 55.243 87.022 48.306 87.022 48.306 76.181" style="fill:#475a61"/><path d="M63.79,75.936a6.81,6.81,0,0,0-7.428,7.447,8.151,8.151,0,0,0,.99,4.2,6.075,6.075,0,0,0,2.586,2.452,9.189,9.189,0,0,0,4.027.775,8.093,8.093,0,0,0,4-.9A6.049,6.049,0,0,0,70.417,87.4a8.849,8.849,0,0,0,.85-4.136,7.271,7.271,0,0,0-1.943-5.4A7.518,7.518,0,0,0,63.79,75.936Zm2.246,10.616a3.065,3.065,0,0,1-4.42-.02,4.827,4.827,0,0,1-.809-3.13,4.835,4.835,0,0,1,.814-3.149A2.7,2.7,0,0,1,63.78,79.3,2.8,2.8,0,0,1,66,80.237a4.454,4.454,0,0,1,.818,2.969A5.323,5.323,0,0,1,66.036,86.552Z" style="fill:#475a61"/><path d="M83.524,82.161a18.573,18.573,0,0,0-4.174-1.271,3.666,3.666,0,0,1-1.492-.53.8.8,0,0,1-.322-.618,1.009,1.009,0,0,1,.393-.8,1.778,1.778,0,0,1,1.166-.328,1.96,1.96,0,0,1,2.18,1.854l4.189-.246a4.427,4.427,0,0,0-1.723-3.262,7.236,7.236,0,0,0-4.205-1.025A9.032,9.032,0,0,0,76,76.5a4.267,4.267,0,0,0-1.932,1.551,3.761,3.761,0,0,0-.643,2.095,3.509,3.509,0,0,0,1.256,2.776,9.668,9.668,0,0,0,4.17,1.747,5.668,5.668,0,0,1,2.275.834,1.316,1.316,0,0,1,.49,1,1.339,1.339,0,0,1-.514,1.034,2.175,2.175,0,0,1-1.467.447,2.347,2.347,0,0,1-1.963-.874,3.206,3.206,0,0,1-.559-1.569l-4.23.265a5.577,5.577,0,0,0,1.6,3.591Q75.9,90.81,79.565,90.81a8.645,8.645,0,0,0,3.465-.6,4.784,4.784,0,0,0,2.139-1.771,4.564,4.564,0,0,0,.766-2.551,4.044,4.044,0,0,0-.574-2.13A4.384,4.384,0,0,0,83.524,82.161Z" style="fill:#475a61"/><polygon points="92.616 87.307 92.616 84.472 99.534 84.472 99.534 81.538 92.616 81.538 92.616 79.252 100.073 79.252 100.073 76.181 88.161 76.181 88.161 90.564 100.288 90.564 100.288 87.307 92.616 87.307" style="fill:#475a61"/></svg>