<svg id="Layer_1" data-name="Layer 1" xmlns="http://www.w3.org/2000/svg" viewBox="0 0 128 128"><title>CLOTHES</title><path d="M79.953,34.926l-14.2-9.368V24.106a1.771,1.771,0,0,1,.9-1.571,5.747,5.747,0,0,0,2.908-6.377,5.655,5.655,0,0,0-4.234-4.234,5.713,5.713,0,0,0-7.028,5.556,1.75,1.75,0,1,0,3.5,0,2.214,2.214,0,0,1,2.75-2.144,2.167,2.167,0,0,1,1.6,1.6,2.218,2.218,0,0,1-1.122,2.5,5.237,5.237,0,0,0-2.771,4.671v1.451l-14.2,9.368a1.75,1.75,0,1,0,1.927,2.922L64,28.6l14.025,9.251a1.75,1.75,0,0,0,1.928-2.922Z" style="fill:#475a61"/><path d="M84.1,34.25H43.9a20.87,20.87,0,0,0-16.167,7.672L15.5,56.913,28.723,67.9,37.5,59.4v55.075h53V59.4L99.277,67.9,112.5,56.913l-12.237-14.99A20.87,20.87,0,0,0,84.1,34.25Z" style="fill:#20c8c7"/><path d="M52.25,34.25a11.75,11.75,0,0,0,23.5,0Z" style="fill:#29adb4"/><polygon points="83.25 70 77.625 73.083 72 70 72 58.75 83.25 58.75 83.25 70" style="fill:#fc642b"/><polygon points="19.004 52.62 32.748 64 28.723 67.895 15.5 56.913 19.004 52.62" style="fill:#fd9025"/><polygon points="108.996 52.62 95.252 64 99.277 67.895 112.5 56.913 108.996 52.62" style="fill:#fc642b"/></svg>