<svg id="Layer_1" data-name="Layer 1" xmlns="http://www.w3.org/2000/svg" viewBox="0 0 128 128"><title>COUPON</title><path d="M114.24,45.26l-45.6,45.6-2.47,2.47L45.26,114.24l-8.11-8.11A10.8,10.8,0,0,0,21.87,90.85l-8.11-8.11L34.67,61.83l2.47-2.47,45.6-45.6,8.11,8.11a10.8,10.8,0,0,0,15.28,15.28Z" style="fill:#83e685"/><path d="M41.03,65.72a1.75,1.75,0,0,1-2.47,0l-3.89-3.89,2.47-2.47,3.89,3.88A1.744,1.744,0,0,1,41.03,65.72Z" style="fill:#fff5f5"/><path d="M55.611,82.046a1.744,1.744,0,0,1-1.237-.513l-7.907-7.907a1.75,1.75,0,1,1,2.475-2.475l7.907,7.907a1.75,1.75,0,0,1-1.237,2.987Z" style="fill:#fff5f5"/><path d="M68.64,90.86l-2.47,2.47-3.89-3.89a1.75,1.75,0,0,1,2.48-2.47Z" style="fill:#fff5f5"/><polygon points="51.212 53.074 56.279 54.792 60.566 51.593 60.498 56.942 64.866 60.031 59.757 61.619 58.169 66.728 55.08 62.36 49.731 62.428 52.93 58.141 51.212 53.074" style="fill:#fd9025"/><path d="M63.437,46.475a1.743,1.743,0,0,0,1.237-.513L77.113,33.522a1.75,1.75,0,1,0-2.475-2.475L62.2,43.487a1.75,1.75,0,0,0,1.237,2.987Z" style="fill:#475a61"/><path d="M68.812,52.575a1.749,1.749,0,0,0,2.475,0L83.726,40.136a1.75,1.75,0,0,0-2.475-2.475L68.812,50.1A1.749,1.749,0,0,0,68.812,52.575Z" style="fill:#475a61"/><path d="M90.339,44.274a1.749,1.749,0,0,0-2.475,0L59.292,72.846a1.75,1.75,0,1,0,2.475,2.475L90.339,46.749A1.749,1.749,0,0,0,90.339,44.274Z" style="fill:#475a61"/><path d="M96.952,50.887a1.749,1.749,0,0,0-2.475,0L65.906,79.459a1.75,1.75,0,1,0,2.475,2.475L96.952,53.361A1.749,1.749,0,0,0,96.952,50.887Z" style="fill:#475a61"/></svg>