<svg id="Layer_1" data-name="Layer 1" xmlns="http://www.w3.org/2000/svg" viewBox="0 0 128 128"><title>DRINK</title><rect x="33.5" y="28.25" width="61" height="80.643" rx="8.222" ry="8.222" style="fill:#83e685"/><rect x="41.722" y="108.893" width="44.555" height="5.583" style="fill:#fc642b"/><rect x="41.722" y="22.667" width="44.555" height="5.583" style="fill:#fc642b"/><path d="M73.572,13.523h0A4.572,4.572,0,0,1,78.143,18.1v4.572a0,0,0,0,1,0,0H69a0,0,0,0,1,0,0V18.1a4.572,4.572,0,0,1,4.572-4.572Z" style="fill:#fdb556"/><path d="M94.5,53.655H83.116A23.64,23.64,0,0,1,72.56,51.329a19.258,19.258,0,0,0-17.12,0,23.64,23.64,0,0,1-10.555,2.326H33.5V83.488H44.884A23.64,23.64,0,0,1,55.44,85.815a19.258,19.258,0,0,0,17.12,0,23.64,23.64,0,0,1,10.555-2.326H94.5Z" style="fill:#fd9025"/></svg>