<svg id="Layer_1" data-name="Layer 1" xmlns="http://www.w3.org/2000/svg" viewBox="0 0 128 128"><title>SHOPPING BAG</title><path d="M96.21,108.049,91.6,33H36.4L31.79,108.049a6.057,6.057,0,0,0,6.045,6.428H90.164A6.057,6.057,0,0,0,96.21,108.049ZM47.548,49.574a3.25,3.25,0,1,1,3.25-3.25A3.25,3.25,0,0,1,47.548,49.574Zm32.9,0a3.25,3.25,0,1,1,3.25-3.25A3.25,3.25,0,0,1,80.452,49.574Z" style="fill:#fed29a"/><polygon points="33.312 83.25 94.688 83.25 93.322 61 34.678 61 33.312 83.25" style="fill:#20c8c7"/><path d="M80.453,44.25A1.75,1.75,0,0,1,78.7,42.5V29.976a14.7,14.7,0,0,0-29.405,0V42.5a1.75,1.75,0,0,1-3.5,0V29.976a18.2,18.2,0,0,1,36.405,0V42.5A1.75,1.75,0,0,1,80.453,44.25Z" style="fill:#475a61"/></svg>