<svg id="Layer_1" data-name="Layer 1" xmlns="http://www.w3.org/2000/svg" viewBox="0 0 128 128"><title>VEGETABLES</title><path d="M49.39,101.82A8.784,8.784,0,0,1,39.1,95.85L24.75,49.56l-.52-1.68a12.736,12.736,0,0,1-.41-1.7,12.981,12.981,0,0,1,9.99-14.8,12.845,12.845,0,0,1,2.8-.31A12.983,12.983,0,0,1,49.45,42.3l.81,6,.47,3.47,5.46,40.29A8.779,8.779,0,0,1,49.39,101.82Z" style="fill:#fd9025"/><path d="M31.77,48l-7.02,1.56-.52-1.68a12.736,12.736,0,0,1-.41-1.7.037.037,0,0,1,.03-.01l7.16-1.59A1.752,1.752,0,0,1,31.77,48Z" style="fill:#ed3a1b"/><path d="M50.73,51.77,37.51,54.69a1.584,1.584,0,0,1-.38.05,1.751,1.751,0,0,1-.37-3.46l13.36-2.96a.675.675,0,0,1,.14-.02Z" style="fill:#ed3a1b"/><path d="M38.8,20.9a6.624,6.624,0,1,0-12.689,2.244c-.069.012-.136.009-.2.024A5.292,5.292,0,1,0,31.6,31,6.813,6.813,0,1,0,38.8,20.9Z" style="fill:#83e685"/><path d="M47.609,36.939a18.333,18.333,0,0,0,4.07,8.677A7.485,7.485,0,0,0,58.268,58.9,10.748,10.748,0,1,0,76.492,48.733,18.437,18.437,0,1,0,47.609,36.939Z" style="fill:#20c8c7"/><path d="M68.878,51.944l7.165-12.832A1.75,1.75,0,1,0,72.987,37.4l-5.059,9.061a117.138,117.138,0,0,1-1.456-20.581,1.75,1.75,0,0,0-3.5-.17,95.337,95.337,0,0,0,.218,10.131l-6.368-4.854A1.75,1.75,0,0,0,54.7,33.774L63.6,40.554A126.2,126.2,0,0,0,74.474,80.8a1.75,1.75,0,0,0,3.167-1.49A116.912,116.912,0,0,1,68.878,51.944Z" style="fill:#6ae1db"/><path d="M106.034,38a13.491,13.491,0,0,1-2.995,6.385A5.508,5.508,0,0,1,98.19,54.16a7.909,7.909,0,1,1-13.41-7.48A13.567,13.567,0,1,1,106.034,38Z" style="fill:#83e685"/><path d="M101.424,33.587a1.752,1.752,0,0,0-2.453-.331l-3.882,2.96c.215-3.812.113-6.218.1-6.5a1.75,1.75,0,1,0-3.5.17A83.451,83.451,0,0,1,90.825,43.6l-3.062-5.485a1.75,1.75,0,1,0-3.056,1.707l5.194,9.3a85.513,85.513,0,0,1-6.384,19.857,1.75,1.75,0,0,0,3.167,1.49,93.273,93.273,0,0,0,8.023-29.565l6.387-4.869A1.749,1.749,0,0,0,101.424,33.587Z" style="fill:#bfe9cd"/><path d="M97.806,114.109H30.194A7.285,7.285,0,0,1,23,108L17,71.149h94L105,108A7.285,7.285,0,0,1,97.806,114.109Z" style="fill:#83e685"/><rect x="13.523" y="62.471" width="100.953" height="8.678" style="fill:#fc642b"/><path d="M64,78.542a1.75,1.75,0,0,0-1.75,1.75v24.477a1.75,1.75,0,0,0,3.5,0V80.292A1.75,1.75,0,0,0,64,78.542Z" style="fill:#475a61"/><path d="M49.062,78.548a1.75,1.75,0,0,0-1.6,1.887l2,24.477a1.75,1.75,0,0,0,1.742,1.607c.048,0,.1,0,.145-.006a1.75,1.75,0,0,0,1.6-1.887l-2-24.477A1.753,1.753,0,0,0,49.062,78.548Z" style="fill:#475a61"/><path d="M35.349,80.01a1.75,1.75,0,1,0-3.454.564l4,24.477a1.75,1.75,0,1,0,3.454-.564Z" style="fill:#475a61"/><path d="M78.938,78.548a1.748,1.748,0,0,0-1.887,1.6l-2,24.477a1.75,1.75,0,0,0,1.6,1.887c.048,0,.1.006.145.006a1.75,1.75,0,0,0,1.742-1.607l2-24.477A1.75,1.75,0,0,0,78.938,78.548Z" style="fill:#475a61"/><path d="M94.661,78.564a1.745,1.745,0,0,0-2.009,1.445l-4,24.477a1.75,1.75,0,1,0,3.454.564l4-24.477A1.75,1.75,0,0,0,94.661,78.564Z" style="fill:#475a61"/></svg>