<svg xmlns="http://www.w3.org/2000/svg" viewBox="0 0 256 256"><title>icons_</title><path d="M128,240.025c-31.318,0-55.849-51.617-55.849-117.511S96.682,5,128,5s55.849,51.617,55.849,117.511S159.318,240.025,128,240.025Zm0-226.741c-25.514,0-47.069,50.021-47.069,109.23S102.486,231.743,128,231.743s47.069-50.021,47.069-109.23S153.514,13.284,128,13.284Z" fill="#f8af23"/><path d="M197.308,213.882c-9.785,0-21.179-2.186-33.779-6.571-25.465-8.862-53.3-25.749-78.389-47.549S40.624,113.768,30.427,91.636c-10.716-23.258-10.02-41.8,1.962-52.215s33.318-11.019,60.082-1.7c25.465,8.862,53.3,25.749,78.389,47.549h0c25.085,21.8,44.516,45.994,54.714,68.127,10.716,23.258,10.02,41.8-1.962,52.215C217.27,211.118,208.307,213.881,197.308,213.882ZM58.755,39.454c-8.428,0-15.161,1.94-19.629,5.822-8.983,7.807-8.93,23.582.147,43.281,9.729,21.115,28.412,44.323,52.6,65.349s50.9,37.261,75.195,45.717c22.667,7.888,40.816,7.935,49.8.127s8.93-23.582-.147-43.281c-9.729-21.115-28.412-44.323-52.6-65.349h0C139.93,70.1,113.224,53.859,88.928,45.4,77.532,41.438,67.276,39.454,58.755,39.454Z" fill="#63bce7"/><path d="M58.692,213.881c-11,0-19.961-2.764-26.3-8.275-11.982-10.413-12.679-28.957-1.962-52.215,10.2-22.132,29.628-46.326,54.714-68.127s52.923-38.686,78.389-47.549c26.764-9.312,48.1-8.708,60.082,1.7s12.679,28.957,1.962,52.215c-10.2,22.132-29.628,46.326-54.714,68.127h0c-25.084,21.8-52.923,38.686-78.389,47.549C79.872,211.694,68.476,213.881,58.692,213.881ZM197.245,39.454c-8.523,0-18.776,1.983-30.173,5.95-24.3,8.455-51,24.691-75.195,45.717S49,135.354,39.273,156.469c-9.076,19.7-9.13,35.474-.147,43.281s27.135,7.761,49.8-.127c24.3-8.455,51-24.691,75.195-45.717h0c24.193-21.025,42.876-44.233,52.6-65.349,9.076-19.7,9.13-35.474.147-43.281C212.407,41.394,205.672,39.454,197.245,39.454Z" fill="#f46275"/><rect x="95.687" y="125.264" width="13.556" height="21" fill="#9e9e9e"/><rect x="95.687" y="125.263" width="9.5" height="21" fill="#707070"/><rect x="121.222" y="112.014" width="13.555" height="34.25" fill="#9e9e9e"/><rect x="146.757" y="98.764" width="13.555" height="47.5" fill="#9e9e9e"/><rect x="150.813" y="98.763" width="9.5" height="47.5" fill="#cecece"/><path d="M218.09,89.185c9.375-20.348,9.291-36.765-.231-45.042-4.727-4.107-11.661-6.189-20.613-6.189-8.847,0-19.164,2.03-30.666,6.033-24.474,8.517-51.353,24.854-75.686,46-24.35,21.162-43.167,44.549-52.983,65.854-9.375,20.348-9.291,36.765.232,45.042,4.731,4.112,11.814,6.167,20.643,6.167,8.71,0,19.12-2,30.636-6.011,24.474-8.517,51.353-24.854,75.686-46C189.456,133.876,208.273,110.49,218.09,89.185Zm-42.24,51.841c.469-6.116.719-12.322.719-18.512s-.251-12.4-.719-18.511q3.193,3.14,6.213,6.326c.189,4,.286,8.1.286,12.185s-.1,8.176-.285,12.175C180.047,136.811,177.986,138.926,175.85,141.026ZM136.344,61.24A287.87,287.87,0,0,1,169.875,86.4,270.941,270.941,0,0,1,198.6,115.28c-1.225,1.623-2.479,3.247-3.784,4.871a262.862,262.862,0,0,0-29.712-30.162,280.531,280.531,0,0,0-34.258-25.535Q133.6,62.794,136.344,61.24ZM160.965,49.3a171.5,171.5,0,0,1,9.2,33.4A290.842,290.842,0,0,0,139.3,59.582,196.462,196.462,0,0,1,160.965,49.3Zm31.915,73.2q-3.662,4.43-7.7,8.839c.1-2.929.166-5.879.166-8.833s-.067-5.906-.166-8.835Q189.2,118.064,192.88,122.508Zm23.009-76.1c8.443,7.338,8.252,22.472-.524,41.521a147.569,147.569,0,0,1-14.929,24.884c-5.094-5.96-10.616-11.846-16.534-17.6l-.015-.142c-2-18.341-6.086-35.5-11.829-49.723,9.313-2.878,17.948-4.4,25.187-4.4C205.337,40.954,211.784,42.84,215.89,46.408Zm-48.324.412c.55-.191,1.088-.358,1.634-.54,5.323,13.128,9.211,28.835,11.307,45.693q-3.308-3.112-6.767-6.162a175.4,175.4,0,0,0-9.98-37.6C165.033,47.731,166.3,47.259,167.565,46.82ZM80.15,104c-.468,6.117-.72,12.324-.72,18.513s.251,12.4.719,18.512q-3.194-3.14-6.212-6.327c-.189-4.009-.287-8.106-.287-12.186s.1-8.171.287-12.177C75.954,108.215,78.015,106.1,80.15,104Zm39.5,79.788A287.926,287.926,0,0,1,86.125,158.63,270.906,270.906,0,0,1,57.4,129.747c1.225-1.623,2.479-3.247,3.784-4.872a262.887,262.887,0,0,0,29.711,30.164,280.6,280.6,0,0,0,34.256,25.535Q122.4,182.234,119.652,183.788ZM95.038,195.72a171.447,171.447,0,0,1-9.207-33.4,291.006,291.006,0,0,0,30.87,23.121A196.455,196.455,0,0,1,95.038,195.72Zm-31.918-73.2q3.662-4.43,7.7-8.839c-.1,2.932-.166,5.883-.166,8.835s.067,5.9.166,8.835Q66.8,126.963,63.12,122.518Zm-23.01,76.1c-8.443-7.338-8.252-22.472.524-41.521a147.565,147.565,0,0,1,14.929-24.883c5.1,5.962,10.619,11.849,16.537,17.6,1.995,18.4,6.083,35.6,11.841,49.863C63.919,205.889,48.087,205.551,40.11,198.618Zm48.324-.412c-.552.192-1.088.358-1.635.541-5.323-13.125-9.2-28.826-11.3-45.688q3.306,3.11,6.763,6.158a177.944,177.944,0,0,0,9.984,37.6C90.97,197.294,89.7,197.767,88.435,198.207Zm39.554-19.383a276.873,276.873,0,0,1-35.126-26.049q-4.885-4.245-9.453-8.606v-.01c-.649-7.112-.979-14.395-.979-21.646s.332-14.54.982-21.661q4.57-4.347,9.45-8.6A277.363,277.363,0,0,1,128.008,66.2a276.667,276.667,0,0,1,35.13,26.049q4.884,4.244,9.452,8.6c.65,7.118.98,14.4.98,21.656s-.333,14.541-.983,21.66q-4.57,4.347-9.449,8.6A277.349,277.349,0,0,1,127.988,178.824Z" fill="#3f3679"/><path d="M109.243,123.764H95.687a1.5,1.5,0,0,0-1.5,1.5v21a1.5,1.5,0,0,0,1.5,1.5h13.556a1.5,1.5,0,0,0,1.5-1.5v-21A1.5,1.5,0,0,0,109.243,123.764Zm-1.5,21H97.187v-18h10.556Z" fill="#3f3679"/><path d="M134.777,110.514H121.223a1.5,1.5,0,0,0-1.5,1.5v34.25a1.5,1.5,0,0,0,1.5,1.5h13.555a1.5,1.5,0,0,0,1.5-1.5v-34.25A1.5,1.5,0,0,0,134.777,110.514Zm-1.5,34.25H122.723v-31.25h10.555Z" fill="#3f3679"/><path d="M160.313,97.264H146.757a1.5,1.5,0,0,0-1.5,1.5v47.5a1.5,1.5,0,0,0,1.5,1.5h13.556a1.5,1.5,0,0,0,1.5-1.5v-47.5A1.5,1.5,0,0,0,160.313,97.264Zm-1.5,47.5H148.257v-44.5h10.556Z" fill="#3f3679"/><path d="M27.323,249.5h-18a1.5,1.5,0,0,0,0,3h18a1.5,1.5,0,0,0,0-3Z" fill="#3f3679"/><path d="M246.68,249.5h-18a1.5,1.5,0,1,0,0,3h18a1.5,1.5,0,0,0,0-3Z" fill="#3f3679"/><path d="M218.479,249.5H37.521a1.5,1.5,0,1,0,0,3H218.479a1.5,1.5,0,1,0,0-3Z" fill="#3f3679"/><path d="M9.32,241.524H246.68a1.5,1.5,0,0,0,0-3H141.131c9.817-4.567,18.817-14.262,26.147-28.4,11.022,3.482,21.11,5.253,30.03,5.253,11.509,0,20.689-2.908,27.287-8.643,12.529-10.889,13.36-30.058,2.341-53.976a163.178,163.178,0,0,0-18.647-30.247,163.472,163.472,0,0,0,18.647-30.254c11.02-23.917,10.188-43.086-2.341-53.975-11.754-10.215-32-11.378-57.318-3.391C156.776,14.647,142.849,3.5,128,3.5S99.226,14.647,88.723,34.9c-25.312-7.988-45.562-6.826-57.318,3.391-12.529,10.889-13.36,30.058-2.341,53.975A163.2,163.2,0,0,0,47.71,122.511a163.436,163.436,0,0,0-18.646,30.252c-11.02,23.918-10.188,43.087,2.341,53.976,6.6,5.735,15.779,8.643,27.287,8.643,8.919,0,19.007-1.772,30.03-5.253,7.331,14.135,16.326,23.829,26.143,28.4H9.32a1.5,1.5,0,0,0,0,3Zm214.891-87.5c10.412,22.6,9.85,40.519-1.585,50.455-6.035,5.247-14.554,7.907-25.318,7.907-9.717,0-20.916-2.183-33.285-6.487a201.116,201.116,0,0,1-33.046-15.274q2.725-1.626,5.447-3.339a192.074,192.074,0,0,0,30.156,13.758c11.517,4.008,21.924,6.011,30.635,6.011,8.827,0,15.912-2.057,20.645-6.167,9.522-8.277,9.606-24.694.231-45.042a151.349,151.349,0,0,0-15.666-25.992q2.032-2.441,3.95-4.886A159.271,159.271,0,0,1,224.211,154.02ZM128,192.38a214.776,214.776,0,0,0,28.18,13.777c-8.171,15.533-18.141,24.086-28.179,24.086s-20.012-8.555-28.182-24.09A215.2,215.2,0,0,0,128,192.38Zm72.433-60.167A147.5,147.5,0,0,1,215.365,157.1c8.776,19.049,8.968,34.183.525,41.521-7.982,6.932-23.811,7.271-43.833,1.061,5.708-14.14,9.784-31.179,11.794-49.4a1.482,1.482,0,0,0-.02-.423C189.8,144.064,195.352,138.158,200.432,132.212ZM169.2,198.747c-.546-.183-1.081-.349-1.633-.54q-1.9-.66-3.814-1.386a177.833,177.833,0,0,0,9.975-37.5c.006-.035,0-.07.006-.1q3.456-3.055,6.772-6.163C178.408,169.914,174.521,185.624,169.2,198.747Zm-8.242-3.018A196.592,196.592,0,0,1,139.3,185.439a291.291,291.291,0,0,0,30.866-23.117A171.346,171.346,0,0,1,160.956,195.73ZM128,6.5c13.57,0,26.457,10.41,36.387,29.34-.45.152-.9.3-1.351.457-1.339.466-2.689.967-4.04,1.477-8.744-16.76-19.727-25.992-31-25.992s-22.247,9.23-30.992,25.986Q94.977,37,92.964,36.3c-.453-.158-.9-.305-1.351-.457C101.543,16.912,114.429,6.5,128,6.5Zm0,46.144A214.7,214.7,0,0,0,99.82,38.87c8.171-15.532,18.144-24.086,28.18-24.086s20.011,8.556,28.182,24.09A215.2,215.2,0,0,0,128,52.646ZM31.789,91.008c-10.412-22.6-9.85-40.519,1.585-50.456,11.558-10.046,32.37-10.549,58.6-1.42a201.1,201.1,0,0,1,33.045,15.273q-2.725,1.626-5.447,3.338A192.088,192.088,0,0,0,89.421,43.987c-11.5-4-21.821-6.033-30.666-6.033-8.95,0-15.886,2.083-20.613,6.189-9.522,8.277-9.606,24.693-.231,45.041a151.29,151.29,0,0,0,15.664,25.993q-2.032,2.441-3.95,4.886A159.318,159.318,0,0,1,31.789,91.008Zm23.777,21.807A147.474,147.474,0,0,1,40.635,87.93c-8.776-19.049-8.968-34.183-.525-41.521,4.107-3.568,10.555-5.454,18.646-5.454,7.237,0,15.873,1.517,25.187,4.4C78.181,59.623,74.089,76.824,72.1,95.234,66.158,101.01,60.627,106.893,55.567,112.815ZM86.8,46.281c.545.182,1.084.348,1.633.539q1.9.66,3.814,1.386a177.894,177.894,0,0,0-9.99,37.609q-3.452,3.052-6.763,6.155C77.593,75.106,81.476,59.41,86.8,46.281ZM95.043,49.3A196.682,196.682,0,0,1,116.7,59.588,291.318,291.318,0,0,0,85.832,82.706,171.387,171.387,0,0,1,95.043,49.3ZM33.374,204.474c-11.435-9.937-12-27.855-1.585-50.456C41.9,132.077,61.2,108.061,86.125,86.4s52.608-38.463,77.9-47.264c12.461-4.335,23.694-6.5,33.3-6.5,10.616,0,19.238,2.644,25.306,7.917,11.435,9.937,12,27.855,1.585,50.456C214.1,112.95,194.8,136.965,169.875,158.629s-52.608,38.463-77.9,47.265c-12.371,4.3-23.57,6.487-33.285,6.487C47.929,212.381,39.41,209.721,33.374,204.474Zm58.234,4.7c.454-.153.9-.289,1.356-.448,1.34-.466,2.689-.967,4.041-1.477,8.745,16.76,19.724,25.993,31,25.993s22.245-9.23,30.99-25.987c1.355.511,2.7,1,4.046,1.471.457.159.9.294,1.355.448-9.93,18.934-22.822,29.349-36.392,29.349S101.539,228.112,91.608,209.175Z" fill="#3f3679"/></svg>