<svg xmlns="http://www.w3.org/2000/svg" viewBox="0 0 256 256"><title>icons_</title><circle cx="202.704" cy="149.771" r="16.091" fill="#9e9e9e"/><path d="M202.7,165.863h0A22.333,22.333,0,0,1,225.037,188.2v22.333a0,0,0,0,1,0,0H180.371a0,0,0,0,1,0,0V188.2A22.333,22.333,0,0,1,202.7,165.863Z" fill="#f46275"/><circle cx="202.704" cy="50.589" r="16.091" fill="#9e9e9e"/><path d="M202.7,66.68h0a22.333,22.333,0,0,1,22.333,22.333v22.333a0,0,0,0,1,0,0H180.371a0,0,0,0,1,0,0V89.014A22.333,22.333,0,0,1,202.7,66.68Z" fill="#63bce7"/><path d="M53.3,66.68h0A22.333,22.333,0,0,1,75.629,89.014v22.333a0,0,0,0,1,0,0H30.963a0,0,0,0,1,0,0V89.014A22.333,22.333,0,0,1,53.3,66.68Z" fill="#63bce7"/><path d="M58.046,67.191a22.4,22.4,0,0,0-4.75-.511h0A22.333,22.333,0,0,0,30.963,89.013v22.333h9.5V89.013A22.338,22.338,0,0,1,58.046,67.191Z" fill="#6377e7"/><path d="M197.954,67.191a22.4,22.4,0,0,1,4.75-.511h0a22.333,22.333,0,0,1,22.333,22.333v22.333h-9.5V89.013A22.338,22.338,0,0,0,197.954,67.191Z" fill="#63e2e7"/><circle cx="53.296" cy="50.589" r="16.091" fill="#9e9e9e"/><path d="M46.7,50.589A16.1,16.1,0,0,1,58.046,35.212a16.091,16.091,0,1,0,0,30.754A16.1,16.1,0,0,1,46.7,50.589Z" fill="#707070"/><path d="M209.3,50.589a16.1,16.1,0,0,0-11.341-15.377,16.091,16.091,0,1,1,0,30.754A16.1,16.1,0,0,0,209.3,50.589Z" fill="#cecece"/><path d="M53.3,165.863h0A22.333,22.333,0,0,1,75.629,188.2v22.333a0,0,0,0,1,0,0H30.963a0,0,0,0,1,0,0V188.2A22.333,22.333,0,0,1,53.3,165.863Z" fill="#f46275"/><path d="M58.046,166.374a22.4,22.4,0,0,0-4.75-.511h0A22.333,22.333,0,0,0,30.963,188.2v22.333h9.5V188.2A22.338,22.338,0,0,1,58.046,166.374Z" fill="#f43075"/><path d="M197.954,166.374a22.4,22.4,0,0,1,4.75-.511h0A22.333,22.333,0,0,1,225.037,188.2v22.333h-9.5V188.2A22.338,22.338,0,0,0,197.954,166.374Z" fill="#f48875"/><circle cx="53.296" cy="149.771" r="16.091" fill="#9e9e9e"/><path d="M46.7,149.771a16.1,16.1,0,0,1,11.341-15.377,16.091,16.091,0,1,0,0,30.754A16.1,16.1,0,0,1,46.7,149.771Z" fill="#707070"/><path d="M209.3,149.771a16.1,16.1,0,0,0-11.341-15.377,16.091,16.091,0,1,1,0,30.754A16.1,16.1,0,0,0,209.3,149.771Z" fill="#cecece"/><path d="M128,38.038h0a22.333,22.333,0,0,1,22.333,22.333V82.7a0,0,0,0,1,0,0H105.667a0,0,0,0,1,0,0V60.371A22.333,22.333,0,0,1,128,38.038Z" fill="#63bce7"/><path d="M132.75,38.549a22.4,22.4,0,0,0-4.75-.511h0a22.333,22.333,0,0,0-22.333,22.333V82.7h9.5V60.371A22.338,22.338,0,0,1,132.75,38.549Z" fill="#6377e7"/><circle cx="128" cy="21.947" r="16.091" fill="#9e9e9e"/><path d="M121.409,21.947A16.1,16.1,0,0,1,132.75,6.57a16.091,16.091,0,1,0,0,30.754A16.1,16.1,0,0,1,121.409,21.947Z" fill="#707070"/><path d="M128,194.5h0a22.333,22.333,0,0,1,22.333,22.333v22.333a0,0,0,0,1,0,0H105.667a0,0,0,0,1,0,0V216.838A22.333,22.333,0,0,1,128,194.5Z" fill="#f46275"/><path d="M132.75,195.016A22.4,22.4,0,0,0,128,194.5h0a22.333,22.333,0,0,0-22.333,22.333v22.333h9.5V216.838A22.338,22.338,0,0,1,132.75,195.016Z" fill="#f43075"/><circle cx="128" cy="178.414" r="16.091" fill="#9e9e9e"/><path d="M121.409,178.414a16.1,16.1,0,0,1,11.341-15.377,16.091,16.091,0,1,0,0,30.754A16.1,16.1,0,0,1,121.409,178.414Z" fill="#707070"/><rect x="98.25" y="122.514" width="13.659" height="22.25" fill="#f8af23"/><rect x="120.091" y="113.764" width="13.659" height="31" fill="#f8af23"/><rect x="141.933" y="105.014" width="13.659" height="39.75" fill="#f8af23"/><path d="M46.454,204.916a5.734,5.734,0,0,1-3.921-1.544l-8.251-7.689a5.753,5.753,0,1,1,7.844-8.419l4.189,3.9,18.006-18.006a5.753,5.753,0,0,1,8.136,8.137L50.523,203.231A5.737,5.737,0,0,1,46.454,204.916Z" fill="#f8af23"/><path d="M121.158,233.558a5.734,5.734,0,0,1-3.921-1.544l-8.251-7.689a5.753,5.753,0,1,1,7.844-8.419l4.189,3.9L139.025,201.8a5.753,5.753,0,1,1,8.136,8.137l-21.934,21.933A5.737,5.737,0,0,1,121.158,233.558Z" fill="#f8af23"/><path d="M195.862,204.916a5.734,5.734,0,0,1-3.921-1.544l-8.251-7.689a5.753,5.753,0,1,1,7.844-8.419l4.189,3.9,18.006-18.006a5.753,5.753,0,1,1,8.136,8.137l-21.934,21.933A5.737,5.737,0,0,1,195.862,204.916Z" fill="#f8af23"/><path d="M30.963,112.847H75.629a1.5,1.5,0,0,0,1.5-1.5V89.014A23.87,23.87,0,0,0,60.895,66.43a17.592,17.592,0,1,0-15.2,0A23.87,23.87,0,0,0,29.463,89.014v22.333A1.5,1.5,0,0,0,30.963,112.847ZM38.7,50.589A14.591,14.591,0,1,1,53.3,65.18,14.608,14.608,0,0,1,38.7,50.589ZM32.463,89.014a20.833,20.833,0,1,1,41.666,0v20.833H32.463Z" fill="#3f3679"/><path d="M180.371,112.847h44.666a1.5,1.5,0,0,0,1.5-1.5V89.014A23.87,23.87,0,0,0,210.3,66.43a17.591,17.591,0,1,0-15.2,0,23.87,23.87,0,0,0-16.234,22.584v22.333A1.5,1.5,0,0,0,180.371,112.847Zm7.742-62.258A14.591,14.591,0,1,1,202.7,65.18,14.608,14.608,0,0,1,188.113,50.589Zm-6.242,38.425a20.833,20.833,0,1,1,41.666,0v20.833H181.871Z" fill="#3f3679"/><path d="M30.963,212.029H75.629a1.5,1.5,0,0,0,1.5-1.5V188.2a23.707,23.707,0,0,0-1.761-9,7.28,7.28,0,0,0,.274-1.965,7.239,7.239,0,0,0-6.967-7.24,23.78,23.78,0,0,0-7.8-4.368,17.592,17.592,0,1,0-15.179-.009A23.87,23.87,0,0,0,29.463,188.2v22.333A1.5,1.5,0,0,0,30.963,212.029Zm43.166-3H32.463V195.9a7.337,7.337,0,0,0,.8.883l8.251,7.688a7.252,7.252,0,0,0,10.073-.177l21.755-21.754a20.788,20.788,0,0,1,.791,5.659Zm-1.487-31.8a4.226,4.226,0,0,1-1.246,3.008L49.462,202.17a4.252,4.252,0,0,1-5.906.1L35.3,194.585a4.253,4.253,0,0,1,5.8-6.224l4.189,3.9a1.5,1.5,0,0,0,2.083-.037l18.006-18.006a4.254,4.254,0,0,1,7.261,3.008ZM38.7,149.771A14.591,14.591,0,1,1,53.3,164.363,14.608,14.608,0,0,1,38.7,149.771ZM53.3,167.363a20.84,20.84,0,0,1,11.571,3.527,7.27,7.27,0,0,0-1.607,1.21L46.277,189.083l-3.13-2.916a7.261,7.261,0,0,0-10.251.362c-.132.141-.252.29-.371.439A20.842,20.842,0,0,1,53.3,167.363Z" fill="#3f3679"/><path d="M180.371,212.029h44.666a1.5,1.5,0,0,0,1.5-1.5V188.2a23.7,23.7,0,0,0-1.761-9,7.234,7.234,0,0,0-1.851-7.093,7.2,7.2,0,0,0-4.845-2.111,23.773,23.773,0,0,0-7.8-4.368,17.591,17.591,0,1,0-15.179-.009A23.87,23.87,0,0,0,178.871,188.2v22.333A1.5,1.5,0,0,0,180.371,212.029Zm43.166-3H181.871V195.894a7.256,7.256,0,0,0,.8.886l8.251,7.688a7.252,7.252,0,0,0,10.073-.177l21.755-21.754a20.8,20.8,0,0,1,.791,5.659Zm-1.487-31.8a4.226,4.226,0,0,1-1.246,3.008L198.87,202.17a4.252,4.252,0,0,1-5.906.1l-8.252-7.688a4.253,4.253,0,0,1,5.8-6.224l4.189,3.9a1.5,1.5,0,0,0,2.083-.037l18.006-18.006a4.254,4.254,0,0,1,7.261,3.008Zm-33.937-27.458A14.591,14.591,0,1,1,202.7,164.363,14.608,14.608,0,0,1,188.113,149.771ZM202.7,167.363a20.837,20.837,0,0,1,11.571,3.528,7.273,7.273,0,0,0-1.607,1.21l-16.982,16.982-3.13-2.916a7.261,7.261,0,0,0-10.251.362c-.133.142-.252.292-.371.441A20.842,20.842,0,0,1,202.7,167.363Z" fill="#3f3679"/><path d="M105.667,84.205h44.666a1.5,1.5,0,0,0,1.5-1.5V60.372A23.87,23.87,0,0,0,135.6,37.788a17.591,17.591,0,1,0-15.2,0,23.87,23.87,0,0,0-16.234,22.584V82.705A1.5,1.5,0,0,0,105.667,84.205Zm7.742-62.258A14.591,14.591,0,1,1,128,36.538,14.608,14.608,0,0,1,113.409,21.947Zm-6.242,38.425a20.833,20.833,0,1,1,41.666,0V81.205H107.167Z" fill="#3f3679"/><path d="M98.25,146.264h13.659a1.5,1.5,0,0,0,1.5-1.5v-22.25a1.5,1.5,0,0,0-1.5-1.5H98.25a1.5,1.5,0,0,0-1.5,1.5v22.25A1.5,1.5,0,0,0,98.25,146.264Zm1.5-22.25h10.659v19.25H99.75Z" fill="#3f3679"/><path d="M120.091,112.264a1.5,1.5,0,0,0-1.5,1.5v31a1.5,1.5,0,0,0,1.5,1.5H133.75a1.5,1.5,0,0,0,1.5-1.5v-31a1.5,1.5,0,0,0-1.5-1.5Zm12.159,31H121.591v-28H132.25Z" fill="#3f3679"/><path d="M140.433,105.014v39.75a1.5,1.5,0,0,0,1.5,1.5h13.658a1.5,1.5,0,0,0,1.5-1.5v-39.75a1.5,1.5,0,0,0-1.5-1.5H141.933A1.5,1.5,0,0,0,140.433,105.014Zm3,1.5h10.658v36.75H143.433Z" fill="#3f3679"/><path d="M27.323,248.645h-18a1.5,1.5,0,1,0,0,3h18a1.5,1.5,0,1,0,0-3Z" fill="#3f3679"/><path d="M246.68,248.645h-18a1.5,1.5,0,0,0,0,3h18a1.5,1.5,0,0,0,0-3Z" fill="#3f3679"/><path d="M218.479,248.645H37.521a1.5,1.5,0,0,0,0,3H218.479a1.5,1.5,0,0,0,0-3Z" fill="#3f3679"/><path d="M9.32,240.671H246.68a1.5,1.5,0,0,0,0-3H151.833V216.838a23.7,23.7,0,0,0-1.762-9,7.279,7.279,0,0,0,.274-1.967,7.238,7.238,0,0,0-6.973-7.239,23.776,23.776,0,0,0-7.794-4.368,17.591,17.591,0,1,0-15.178-.01,23.869,23.869,0,0,0-16.234,22.583v20.833H9.32a1.5,1.5,0,0,0,0,3Zm138.025-34.8a4.226,4.226,0,0,1-1.246,3.008l-21.934,21.933a4.252,4.252,0,0,1-5.906.1l-8.252-7.689a4.253,4.253,0,0,1,2.75-7.362l.154,0A4.22,4.22,0,0,1,115.807,217l4.189,3.9a1.5,1.5,0,0,0,2.083-.037l18.006-18.007a4.254,4.254,0,0,1,7.261,3.008Zm-33.937-27.458A14.591,14.591,0,1,1,128,193,14.608,14.608,0,0,1,113.409,178.414ZM128,196a20.836,20.836,0,0,1,11.57,3.528,7.272,7.272,0,0,0-1.606,1.209l-16.982,16.983-3.13-2.916a7.254,7.254,0,0,0-10.251.361c-.132.141-.252.29-.371.439A20.842,20.842,0,0,1,128,196ZM107.167,224.54a7.329,7.329,0,0,0,.8.883l8.252,7.688a7.251,7.251,0,0,0,10.072-.178l21.753-21.752a20.789,20.789,0,0,1,.793,5.656v20.833H107.167Z" fill="#3f3679"/></svg>