<svg xmlns="http://www.w3.org/2000/svg" viewBox="0 0 256 256"><title>icons_</title><rect x="148.835" y="74.653" width="24.755" height="18.667" rx="7.685" ry="7.685" fill="#f8af23"/><rect x="121" y="71.47" width="14" height="10.667" rx="5.333" ry="5.333" fill="#9e9e9e"/><rect x="115" y="76.803" width="26" height="10.667" rx="5.333" ry="5.333" fill="#9e9e9e"/><rect x="82.41" y="74.653" width="24.755" height="18.667" rx="7.685" ry="7.685" fill="#f8af23"/><path d="M91.91,85.634v-3.3a7.683,7.683,0,0,1,7.628-7.682l-.058,0H90.1a7.685,7.685,0,0,0-7.685,7.685v3.3A7.685,7.685,0,0,0,90.1,93.32H99.48l.058,0A7.684,7.684,0,0,1,91.91,85.634Z" fill="#f87023"/><path d="M164.09,85.634v-3.3a7.683,7.683,0,0,0-7.628-7.682l.058,0H165.9a7.685,7.685,0,0,1,7.685,7.685v3.3A7.685,7.685,0,0,1,165.9,93.32H156.52l-.058,0A7.684,7.684,0,0,0,164.09,85.634Z" fill="#f8d323"/><path d="M174.126,83.986H81.874A21.994,21.994,0,0,0,59.88,105.98v58.759c0,11.443,8.711,21.257,20.128,22.021a21.592,21.592,0,0,0,22.306-15.906l5.019-18.562h41.333l4.883,18.058a22.006,22.006,0,0,0,20.871,16.46,21.591,21.591,0,0,0,21.7-21.591V105.98A21.994,21.994,0,0,0,174.126,83.986Z" fill="#63bce7"/><path d="M69.38,164.739V105.98A21.994,21.994,0,0,1,91.374,83.986h-9.5A21.994,21.994,0,0,0,59.88,105.98v58.759c0,11.443,8.711,21.257,20.128,22.021a21.623,21.623,0,0,0,6.239-.5A22.021,22.021,0,0,1,69.38,164.739Z" fill="#6377e7"/><path d="M186.62,164.739V105.98a21.994,21.994,0,0,0-21.994-21.994h9.5A21.994,21.994,0,0,1,196.12,105.98v58.759a21.545,21.545,0,0,1-26.367,21.519A22.021,22.021,0,0,0,186.62,164.739Z" fill="#63e2e7"/><path d="M59.88,107.135v36.454l7.175-8.418a8.363,8.363,0,0,1,11.756-.937h0a8.363,8.363,0,0,1,.937,11.756l-16.323,19.15s4.872,20.56-7.97,32.306h-36.3l3.219-44.166c.386-4.079,2.9-7.529,5.459-10.383Z" fill="#f8af23"/><path d="M37.328,142.9,59.88,117.734v-10.6L27.828,142.9c-2.558,2.854-5.073,6.3-5.459,10.383l-3.219,44.166h9.5l3.219-44.166C32.255,149.2,34.771,145.75,37.328,142.9Z" fill="#f87023"/><rect x="7.979" y="197.446" width="63.534" height="26.204" transform="translate(79.491 421.095) rotate(-180)" fill="#9e9e9e"/><rect x="7.979" y="197.445" width="9.5" height="26.204" fill="#707070"/><rect x="11.743" y="223.65" width="56.004" height="15.949" transform="translate(79.491 463.248) rotate(-180)" fill="#63bce7"/><rect x="11.743" y="223.65" width="9.5" height="15.949" fill="#6377e7"/><path d="M196.12,107.135v36.454l-7.175-8.418a8.363,8.363,0,0,0-11.756-.937h0a8.363,8.363,0,0,0-.937,11.756l16.323,19.15s-4.872,20.56,7.97,32.306h36.3l-3.219-44.166c-.386-4.079-2.9-7.529-5.459-10.383Z" fill="#f8af23"/><path d="M233.631,153.28c-.386-4.079-2.9-7.529-5.459-10.383L196.12,107.135v10.6L218.672,142.9c2.558,2.854,5.073,6.3,5.459,10.383l3.219,44.166h9.5Z" fill="#f8d323"/><rect x="184.487" y="197.446" width="63.534" height="26.204" fill="#9e9e9e"/><rect x="238.521" y="197.445" width="9.5" height="26.204" fill="#cecece"/><rect x="188.252" y="223.65" width="56.004" height="15.949" fill="#63bce7"/><rect x="234.757" y="223.65" width="9.5" height="15.949" fill="#63e2e7"/><path d="M93.45,115.525H90.68a1.191,1.191,0,0,1-1.191-1.191v-2.77a1.191,1.191,0,0,0-1.191-1.191H80.985a1.191,1.191,0,0,0-1.191,1.191v2.77a1.191,1.191,0,0,1-1.191,1.191h-2.77a1.191,1.191,0,0,0-1.191,1.191v7.313a1.191,1.191,0,0,0,1.191,1.191H78.6a1.191,1.191,0,0,1,1.191,1.191v2.77a1.191,1.191,0,0,0,1.191,1.191H88.3a1.191,1.191,0,0,0,1.191-1.191v-2.77a1.191,1.191,0,0,1,1.191-1.191h2.77a1.191,1.191,0,0,0,1.191-1.191v-7.312A1.191,1.191,0,0,0,93.45,115.525Z" fill="#f46275"/><circle cx="156.978" cy="120.372" r="4.708" fill="#f46275"/><circle cx="176.651" cy="120.372" r="4.708" fill="#f46275"/><circle cx="166.814" cy="110.536" r="4.708" fill="#f46275"/><circle cx="166.814" cy="130.209" r="4.708" fill="#f46275"/><rect x="110.167" y="125.5" width="11.667" height="4.872" rx="2.436" ry="2.436" fill="#f8af23"/><rect x="134.167" y="125.5" width="11.667" height="4.872" rx="2.436" ry="2.436" fill="#f8af23"/><path d="M128,83.986H94.788l4.346,6.4a17.193,17.193,0,0,0,14.226,7.538h29.28a17.193,17.193,0,0,0,14.226-7.538l4.346-6.4Z" fill="#9e9e9e"/><circle cx="36.494" cy="56.994" r="27.613" fill="#f46275"/><path d="M18.38,56.994A27.615,27.615,0,0,1,41.244,29.8a27.613,27.613,0,1,0,0,54.4A27.615,27.615,0,0,1,18.38,56.994Z" fill="#f43075"/><circle cx="128" cy="33.041" r="27.613" fill="#f8af23"/><path d="M109.887,33.041a27.615,27.615,0,0,1,22.863-27.2,27.613,27.613,0,1,0,0,54.4A27.615,27.615,0,0,1,109.887,33.041Z" fill="#f87023"/><circle cx="219.506" cy="56.994" r="27.613" fill="#f46275"/><path d="M219.506,29.381a27.76,27.76,0,0,0-4.75.415,27.609,27.609,0,0,1,0,54.4,27.611,27.611,0,1,0,4.75-54.811Z" fill="#f48875"/><path d="M140.062,33.027v8.279a2.272,2.272,0,0,1-.726,1.678,2.375,2.375,0,0,1-1.721.711h-7.283v5.832a2.283,2.283,0,0,1-.711,1.693,2.319,2.319,0,0,1-1.679.7,2.384,2.384,0,0,1-1.735-.7,2.282,2.282,0,0,1-.711-1.693V43.639h-7.226a2.316,2.316,0,0,1-1.678-.7,2.282,2.282,0,0,1-.711-1.693,2.379,2.379,0,0,1,2.39-2.39h16.9V35.417H118.327a2.328,2.328,0,0,1-1.692-.683,2.289,2.289,0,0,1-.7-1.707v-8.25a2.38,2.38,0,0,1,2.39-2.39H125.5V16.555a2.36,2.36,0,0,1,2.475-2.39,2.273,2.273,0,0,1,1.664.7,2.306,2.306,0,0,1,.7,1.693v5.832h7.34a2.377,2.377,0,0,1,1.721.711,2.275,2.275,0,0,1,.726,1.679,2.478,2.478,0,0,1-2.447,2.447h-16.9v3.413h16.842a2.377,2.377,0,0,1,1.721.711A2.274,2.274,0,0,1,140.062,33.027Z" fill="#3f3679"/><path d="M26.646,36.578H46.341a0,0,0,0,1,0,0V58.567a8.25,8.25,0,0,1-8.25,8.25H34.9a8.25,8.25,0,0,1-8.25-8.25V36.578A0,0,0,0,1,26.646,36.578Z" fill="#f8af23"/><polygon points="228.183 75.939 219.506 72.085 210.829 75.939 210.829 58.585 228.183 58.585 228.183 75.939" fill="#f8af23"/><circle cx="219.506" cy="52.049" r="14" fill="#63bce7"/><path d="M19.151,212.047H26.7a1.5,1.5,0,0,0,0-3H19.151a1.5,1.5,0,1,0,0,3Z" fill="#3f3679"/><path d="M229.3,209.047a1.5,1.5,0,0,0,0,3h7.545a1.5,1.5,0,0,0,0-3Z" fill="#3f3679"/><path d="M248.021,195.946h-9.778l-3.12-42.808c-.444-4.689-3.352-8.472-5.835-11.242L197.62,106.561v-.585A23.516,23.516,0,0,0,175.09,82.51v-.172a9.2,9.2,0,0,0-9.185-9.185H156.52a9.2,9.2,0,0,0-9.186,9.185v.148h-4.861c.006-.117.027-.232.027-.35a6.842,6.842,0,0,0-6.168-6.8,6.878,6.878,0,0,0-6.666-5.367h-3.333a6.865,6.865,0,0,0-6.666,5.367,6.842,6.842,0,0,0-6.168,6.8c0,.117.02.233.026.35h-4.861v-.148a9.2,9.2,0,0,0-9.186-9.185H90.1a9.2,9.2,0,0,0-9.185,9.185v.172a23.516,23.516,0,0,0-22.53,23.466v.585L26.711,141.9c-2.483,2.771-5.391,6.553-5.838,11.275l-3.117,42.775H7.979a1.5,1.5,0,0,0-1.5,1.5v26.2a1.5,1.5,0,0,0,1.5,1.5h2.265V238.1H9.32a1.5,1.5,0,1,0,0,3H246.68a1.5,1.5,0,0,0,0-3h-.923v-12.95h2.265a1.5,1.5,0,0,0,1.5-1.5v-26.2A1.5,1.5,0,0,0,248.021,195.946ZM227.055,143.9c2.177,2.429,4.721,5.706,5.08,9.491l3.1,42.557h-34.1c-11.5-11.069-7.149-30.267-7.1-30.462a1.5,1.5,0,0,0-.318-1.318l-16.323-19.15a6.839,6.839,0,0,1,10.41-8.873l7.175,8.418L208.6,160.546a1.5,1.5,0,1,0,2.283-1.946L197.62,143.036v-31.98Zm-44.067,53.548v26.2a1.5,1.5,0,0,0,1.5,1.5h2.265V238.1H69.248v-12.95h2.265a1.5,1.5,0,0,0,1.5-1.5v-26.2a1.5,1.5,0,0,0-1.5-1.5H58.94a30.241,30.241,0,0,0,6.333-14.437,22.786,22.786,0,0,0,14.635,6.747,23.17,23.17,0,0,0,23.854-17.012l4.719-17.454h39.037l4.583,16.95a23.5,23.5,0,0,0,22.312,17.568h.117a22.938,22.938,0,0,0,16.219-6.66,30.186,30.186,0,0,0,6.31,14.3H184.487A1.5,1.5,0,0,0,182.987,197.446ZM150.334,82.338a6.192,6.192,0,0,1,6.186-6.185H165.9a6.192,6.192,0,0,1,6.185,6.185v.148H150.334Zm8.047,3.148-2.756,4.062a15.679,15.679,0,0,1-12.985,6.88H113.36a15.678,15.678,0,0,1-12.985-6.88l-2.756-4.062ZM126.333,72.97h3.333a3.85,3.85,0,0,1,3.51,2.333H122.822A3.843,3.843,0,0,1,126.333,72.97ZM116.5,82.136a3.838,3.838,0,0,1,3.833-3.833h15.333a3.838,3.838,0,0,1,3.833,3.833c0,.118-.016.233-.027.35H116.526C116.515,82.37,116.5,82.254,116.5,82.136ZM90.1,76.153H99.48a6.192,6.192,0,0,1,6.186,6.185v.148H83.91v-.148A6.192,6.192,0,0,1,90.1,76.153ZM61.38,105.976a20.513,20.513,0,0,1,20.49-20.49H93.993l3.9,5.747a18.675,18.675,0,0,0,15.467,8.2h29.28a18.676,18.676,0,0,0,15.467-8.2l3.9-5.747h12.122a20.513,20.513,0,0,1,20.49,20.49v33.54l-4.534-5.319a9.839,9.839,0,0,0-14.976,12.765l15.844,18.588a47.47,47.47,0,0,0-.686,12.154,20.048,20.048,0,0,1-15.84,7.6A20.493,20.493,0,0,1,155,169.957L150.115,151.9a1.5,1.5,0,0,0-1.448-1.108H107.333a1.5,1.5,0,0,0-1.448,1.108l-5.019,18.563a20.166,20.166,0,0,1-20.758,14.8,19.9,19.9,0,0,1-14.362-7.746,47.477,47.477,0,0,0-.7-11.966L80.89,146.962A9.839,9.839,0,0,0,65.914,134.2l-4.534,5.319v-33.54ZM23.862,153.421c.362-3.818,2.906-7.095,5.083-9.523L58.38,111.056v31.98L45.114,158.6a1.5,1.5,0,0,0,2.283,1.946l13.625-15.984,7.175-8.418a6.839,6.839,0,0,1,10.41,8.873l-16.323,19.15a1.5,1.5,0,0,0-.318,1.319c.046.195,4.424,19.37-7.1,30.461h-34.1ZM9.479,198.946H70.013v10.1H34.871a1.5,1.5,0,0,0,0,3H70.013v10.1H9.479ZM13.243,238.1v-12.95h53V238.1Zm229.514,0h-53v-12.95h53Zm3.765-15.95H185.987v-10.1h35.142a1.5,1.5,0,0,0,0-3H185.987v-10.1h60.534Z" fill="#3f3679"/><path d="M75.832,126.72h2.461v2.461a2.694,2.694,0,0,0,2.691,2.691H88.3a2.694,2.694,0,0,0,2.691-2.691V126.72H93.45a2.7,2.7,0,0,0,2.691-2.691v-7.312a2.694,2.694,0,0,0-2.691-2.691H90.988v-2.461a2.694,2.694,0,0,0-2.691-2.691H80.985a2.7,2.7,0,0,0-2.691,2.691v2.461H75.832a2.694,2.694,0,0,0-2.691,2.691v7.313A2.694,2.694,0,0,0,75.832,126.72Zm.309-9.695H78.6a2.694,2.694,0,0,0,2.691-2.691v-2.461h6.695v2.461a2.7,2.7,0,0,0,2.691,2.691h2.461v6.695H90.68a2.694,2.694,0,0,0-2.691,2.691v2.461H81.293v-2.461A2.694,2.694,0,0,0,78.6,123.72H76.141Z" fill="#3f3679"/><path d="M156.978,126.581a6.208,6.208,0,1,0-6.208-6.208A6.216,6.216,0,0,0,156.978,126.581Zm0-9.417a3.208,3.208,0,1,1-3.208,3.208A3.212,3.212,0,0,1,156.978,117.164Z" fill="#3f3679"/><path d="M170.442,120.372a6.208,6.208,0,1,0,6.208-6.208A6.215,6.215,0,0,0,170.442,120.372Zm6.208-3.208a3.208,3.208,0,1,1-3.208,3.208A3.212,3.212,0,0,1,176.65,117.164Z" fill="#3f3679"/><path d="M166.814,116.744a6.208,6.208,0,1,0-6.208-6.208A6.216,6.216,0,0,0,166.814,116.744Zm0-9.417a3.208,3.208,0,1,1-3.208,3.208A3.212,3.212,0,0,1,166.814,107.328Z" fill="#3f3679"/><path d="M166.814,124a6.208,6.208,0,1,0,6.208,6.208A6.215,6.215,0,0,0,166.814,124Zm0,9.417a3.208,3.208,0,1,1,3.208-3.208A3.211,3.211,0,0,1,166.814,133.417Z" fill="#3f3679"/><path d="M112.6,131.872H119.4a3.936,3.936,0,1,0,0-7.872H112.6a3.936,3.936,0,1,0,0,7.872Zm0-4.872H119.4a.936.936,0,1,1,0,1.872H112.6a.936.936,0,1,1,0-1.872Z" fill="#3f3679"/><path d="M136.6,131.872H143.4a3.936,3.936,0,1,0,0-7.872H136.6a3.936,3.936,0,1,0,0,7.872Zm0-4.872H143.4a.936.936,0,1,1,0,1.872H136.6a.936.936,0,1,1,0-1.872Z" fill="#3f3679"/><path d="M36.494,86.107A29.113,29.113,0,1,0,7.38,56.994,29.146,29.146,0,0,0,36.494,86.107Zm0-55.227A26.113,26.113,0,1,1,10.38,56.994,26.143,26.143,0,0,1,36.494,30.881Z" fill="#3f3679"/><path d="M128,62.155A29.113,29.113,0,1,0,98.887,33.042,29.146,29.146,0,0,0,128,62.155Zm0-55.227a26.113,26.113,0,1,1-26.113,26.113A26.143,26.143,0,0,1,128,6.928Z" fill="#3f3679"/><path d="M219.506,86.107a29.113,29.113,0,1,0-29.113-29.113A29.146,29.146,0,0,0,219.506,86.107Zm0-55.227a26.113,26.113,0,1,1-26.113,26.113A26.143,26.143,0,0,1,219.506,30.881Z" fill="#3f3679"/><path d="M19.909,55.126l5.238,2.407v1.034a9.761,9.761,0,0,0,9.75,9.75h.1V75.91H26.97a1.5,1.5,0,1,0,0,3H46.018a1.5,1.5,0,1,0,0-3H37.994V68.316h.1a9.761,9.761,0,0,0,9.75-9.75V57.533l5.238-2.407A4,4,0,0,0,55.4,51.5V45.232a3.991,3.991,0,0,0-3.987-3.986H47.841V36.579a1.5,1.5,0,0,0-1.5-1.5H26.646a1.5,1.5,0,0,0-1.5,1.5v4.667H21.574a3.991,3.991,0,0,0-3.987,3.986V51.5A4,4,0,0,0,19.909,55.126Zm31.5-10.88a.988.988,0,0,1,.987.986V51.5a.99.99,0,0,1-.575.9l-3.985,1.831V44.246ZM28.146,38.079H44.841V58.566a6.757,6.757,0,0,1-6.75,6.75H34.9a6.757,6.757,0,0,1-6.75-6.75Zm-7.56,7.153a.988.988,0,0,1,.987-.986h3.573v9.986L21.162,52.4a.99.99,0,0,1-.575-.9Z" fill="#3f3679"/><path d="M209.329,63.711V75.939a1.5,1.5,0,0,0,2.109,1.371l8.068-3.584,8.068,3.584a1.5,1.5,0,0,0,2.109-1.371V63.711a15.5,15.5,0,1,0-20.354,0Zm17.354,9.92-6.568-2.917a1.5,1.5,0,0,0-1.218,0l-6.568,2.917V65.775a15.4,15.4,0,0,0,14.354,0Zm-7.177-34.082a12.5,12.5,0,1,1-12.5,12.5A12.514,12.514,0,0,1,219.506,39.549Z" fill="#3f3679"/><path d="M27.323,249.072h-18a1.5,1.5,0,1,0,0,3h18a1.5,1.5,0,0,0,0-3Z" fill="#3f3679"/><path d="M246.68,249.072h-18a1.5,1.5,0,0,0,0,3h18a1.5,1.5,0,1,0,0-3Z" fill="#3f3679"/><path d="M218.479,249.072H37.521a1.5,1.5,0,0,0,0,3H218.479a1.5,1.5,0,0,0,0-3Z" fill="#3f3679"/></svg>