<svg xmlns="http://www.w3.org/2000/svg" viewBox="0 0 256 256"><title>icons_</title><rect x="26.364" y="23.991" width="203.273" height="203.273" rx="10" ry="10" fill="#f8af23"/><path d="M219.636,23.991h-9.5a10,10,0,0,1,10,10V217.263a10,10,0,0,1-10,10h9.5a10,10,0,0,0,10-10V33.991A10,10,0,0,0,219.636,23.991Z" fill="#f8d323"/><path d="M224.581,227.263H31.419a8.169,8.169,0,0,1-8.169-8.169V25.933a8.169,8.169,0,1,1,16.339,0V210.925H224.581a8.169,8.169,0,0,1,0,16.339Z" fill="#63bce7"/><path d="M32.75,219.094V25.933A8.152,8.152,0,0,1,36.17,19.3,8.16,8.16,0,0,0,23.25,25.933V219.094a8.169,8.169,0,0,0,8.169,8.169h9.5A8.169,8.169,0,0,1,32.75,219.094Z" fill="#6377e7"/><circle cx="76.223" cy="152.34" r="7.833" fill="#9e9e9e"/><circle cx="87.723" cy="111.756" r="7.833" fill="#9e9e9e"/><circle cx="108.399" cy="178.333" r="7.833" fill="#9e9e9e"/><circle cx="151.23" cy="168.007" r="7.833" fill="#9e9e9e"/><circle cx="152.65" cy="130.347" r="7.833" fill="#9e9e9e"/><circle cx="191.316" cy="122.514" r="7.833" fill="#9e9e9e"/><circle cx="198.243" cy="84.333" r="7.833" fill="#9e9e9e"/><circle cx="116.233" cy="103.923" r="7.833" fill="#9e9e9e"/><circle cx="139.73" cy="58.509" r="7.833" fill="#9e9e9e"/><circle cx="178.828" cy="48.304" r="7.833" fill="#9e9e9e"/><path d="M27.323,236.736h-18a1.5,1.5,0,0,0,0,3h18a1.5,1.5,0,1,0,0-3Z" fill="#3f3679"/><path d="M246.68,236.736h-18a1.5,1.5,0,0,0,0,3h18a1.5,1.5,0,0,0,0-3Z" fill="#3f3679"/><path d="M218.479,236.736H37.521a1.5,1.5,0,0,0,0,3H218.479a1.5,1.5,0,0,0,0-3Z" fill="#3f3679"/><path d="M248.18,227.264a1.5,1.5,0,0,0-1.5-1.5H231.564a9.623,9.623,0,0,0-.427-13.756V33.991a11.513,11.513,0,0,0-11.5-11.5H40.444A9.663,9.663,0,0,0,21.75,25.933V219.094a9.627,9.627,0,0,0,2.686,6.669H9.32a1.5,1.5,0,0,0,0,3H246.68A1.5,1.5,0,0,0,248.18,227.264Zm-20.043-17.152a9.6,9.6,0,0,0-3.557-.687H196.985V192.811a1.5,1.5,0,0,0-3,0v16.614h-18.2V192.811a1.5,1.5,0,1,0-3,0v16.614h-18.2V192.811a1.5,1.5,0,0,0-3,0v16.614H133.4V192.811a1.5,1.5,0,0,0-3,0v16.614H112.2V192.811a1.5,1.5,0,0,0-3,0v16.614H91V192.811a1.5,1.5,0,0,0-3,0v16.614h-18.2V192.811a1.5,1.5,0,1,0-3,0v16.614H43.491L226.545,29.058a8.444,8.444,0,0,1,1.591,4.933Zm-8.5-184.621a8.45,8.45,0,0,1,4.766,1.467L41.089,207.581v-30.6H57.75a1.5,1.5,0,0,0,0-3H41.089v-18.2H57.75a1.5,1.5,0,0,0,0-3H41.089v-18.2H57.75a1.5,1.5,0,0,0,0-3H41.089v-18.2H57.75a1.5,1.5,0,1,0,0-3H41.089V92.2H57.75a1.5,1.5,0,0,0,0-3H41.089V71H57.75a1.5,1.5,0,0,0,0-3H41.089V49.8H57.75a1.5,1.5,0,0,0,0-3H41.089V25.933c0-.149-.016-.295-.022-.442ZM31.42,225.764a6.677,6.677,0,0,1-6.67-6.669V25.933a6.669,6.669,0,1,1,13.339,0V210.925a1.5,1.5,0,0,0,1.5,1.5H224.58a6.669,6.669,0,1,1,0,13.339Z" fill="#3f3679"/><path d="M76.223,161.673a9.333,9.333,0,1,0-9.333-9.333A9.343,9.343,0,0,0,76.223,161.673Zm0-15.667a6.333,6.333,0,1,1-6.333,6.333A6.34,6.34,0,0,1,76.223,146.007Z" fill="#3f3679"/><path d="M87.723,121.089a9.333,9.333,0,1,0-9.333-9.333A9.344,9.344,0,0,0,87.723,121.089Zm0-15.667a6.333,6.333,0,1,1-6.333,6.333A6.34,6.34,0,0,1,87.723,105.423Z" fill="#3f3679"/><path d="M108.4,169a9.333,9.333,0,1,0,9.333,9.333A9.344,9.344,0,0,0,108.4,169Zm0,15.667a6.333,6.333,0,1,1,6.333-6.333A6.34,6.34,0,0,1,108.4,184.667Z" fill="#3f3679"/><path d="M151.23,158.673a9.333,9.333,0,1,0,9.333,9.333A9.345,9.345,0,0,0,151.23,158.673Zm0,15.667a6.333,6.333,0,1,1,6.333-6.333A6.341,6.341,0,0,1,151.23,174.34Z" fill="#3f3679"/><path d="M152.649,121.014a9.333,9.333,0,1,0,9.334,9.333A9.344,9.344,0,0,0,152.649,121.014Zm0,15.667a6.333,6.333,0,1,1,6.334-6.333A6.34,6.34,0,0,1,152.649,136.68Z" fill="#3f3679"/><path d="M191.316,113.18a9.333,9.333,0,1,0,9.333,9.333A9.344,9.344,0,0,0,191.316,113.18Zm0,15.667a6.333,6.333,0,1,1,6.333-6.333A6.34,6.34,0,0,1,191.316,128.847Z" fill="#3f3679"/><path d="M198.243,75a9.333,9.333,0,1,0,9.333,9.333A9.344,9.344,0,0,0,198.243,75Zm0,15.667a6.333,6.333,0,1,1,6.333-6.333A6.34,6.34,0,0,1,198.243,90.667Z" fill="#3f3679"/><path d="M116.232,113.256a9.333,9.333,0,1,0-9.333-9.333A9.344,9.344,0,0,0,116.232,113.256Zm0-15.667a6.333,6.333,0,1,1-6.333,6.333A6.341,6.341,0,0,1,116.232,97.589Z" fill="#3f3679"/><path d="M139.73,67.842a9.333,9.333,0,1,0-9.334-9.333A9.343,9.343,0,0,0,139.73,67.842Zm0-15.667a6.333,6.333,0,1,1-6.334,6.333A6.34,6.34,0,0,1,139.73,52.176Z" fill="#3f3679"/><path d="M178.828,57.637a9.333,9.333,0,1,0-9.334-9.333A9.344,9.344,0,0,0,178.828,57.637Zm0-15.667a6.333,6.333,0,1,1-6.334,6.333A6.34,6.34,0,0,1,178.828,41.971Z" fill="#3f3679"/></svg>