<svg xmlns="http://www.w3.org/2000/svg" viewBox="0 0 256 256"><title>icons_</title><path d="M74.049,15.1H214.222a4.363,4.363,0,0,1,4.363,4.363v55.68a4.363,4.363,0,0,1-4.363,4.363h-3.74a4.363,4.363,0,0,0-4.363,4.363v75.21a4.363,4.363,0,0,0,4.363,4.363h3.74a4.363,4.363,0,0,1,4.363,4.363v57.758a4.363,4.363,0,0,1-4.363,4.363H188.459a4.363,4.363,0,0,1-4.363-4.363v-3.74a4.363,4.363,0,0,0-4.363-4.363H71.281a4.363,4.363,0,0,0-4.363,4.363v3.74a4.363,4.363,0,0,1-4.363,4.363H41.778a4.363,4.363,0,0,1-4.363-4.363V113.787a4.363,4.363,0,0,1,4.363-4.363h0a4.363,4.363,0,0,0,4.363-4.363V93.011a4.363,4.363,0,0,0-4.363-4.363h0a4.363,4.363,0,0,1-4.363-4.363V49.813a4.363,4.363,0,0,1,1.374-3.178l32.27-30.35A4.363,4.363,0,0,1,74.049,15.1Z" fill="#63bce7"/><path d="M210.482,79.506h3.74a4.363,4.363,0,0,0,4.363-4.363V19.463a4.363,4.363,0,0,0-4.363-4.363h-9.5a4.363,4.363,0,0,1,4.363,4.363V75.144a4.363,4.363,0,0,1-4.363,4.363h-3.74a4.363,4.363,0,0,0-4.363,4.363v75.21a4.363,4.363,0,0,0,4.363,4.363h3.74a4.363,4.363,0,0,1,4.363,4.363v57.758a4.363,4.363,0,0,1-4.363,4.363h9.5a4.363,4.363,0,0,0,4.363-4.363V167.806a4.363,4.363,0,0,0-4.363-4.363h-3.74a4.363,4.363,0,0,1-4.363-4.363V83.87A4.363,4.363,0,0,1,210.482,79.506Z" fill="#63e2e7"/><path d="M46.915,225.564V113.788a4.363,4.363,0,0,1,4.363-4.363,4.363,4.363,0,0,0,4.363-4.363V93.011a4.363,4.363,0,0,0-4.363-4.363,4.363,4.363,0,0,1-4.363-4.363V49.813a4.363,4.363,0,0,1,1.374-3.178L80.56,16.285A4.364,4.364,0,0,1,83.549,15.1h-9.5a4.364,4.364,0,0,0-2.989,1.185L38.789,46.634a4.363,4.363,0,0,0-1.374,3.178V84.285a4.363,4.363,0,0,0,4.363,4.363,4.363,4.363,0,0,1,4.363,4.363v12.05a4.363,4.363,0,0,1-4.363,4.363,4.363,4.363,0,0,0-4.363,4.363V225.564a4.363,4.363,0,0,0,4.363,4.363h9.5A4.363,4.363,0,0,1,46.915,225.564Z" fill="#6377e7"/><rect x="68" y="76.687" width="120" height="123.333" rx="10" ry="10" fill="#f46275"/><rect x="68" y="38.103" width="16.765" height="25.75" fill="#f8af23"/><rect x="102.412" y="38.103" width="16.765" height="25.75" fill="#f8af23"/><rect x="136.824" y="38.103" width="16.765" height="25.75" fill="#f8af23"/><rect x="171.235" y="38.103" width="16.765" height="25.75" fill="#f8af23"/><path d="M131.4,118.555v39.9a1,1,0,0,1-1,1H122.2a1,1,0,0,1-1-1V139.2a1,1,0,0,0-1.945-.327l-6.894,19.91a1,1,0,0,1-.945.673H104a1,1,0,0,1-.945-.672l-6.953-20a1,1,0,0,0-1.945.328v19.339a1,1,0,0,1-1,1H84.955a1,1,0,0,1-1-1v-39.9a1,1,0,0,1,1-1H95.746a1,1,0,0,1,.931.636l10.209,26.138a1,1,0,0,0,1.865-.007l9.991-26.124a1,1,0,0,1,.934-.643H130.4A1,1,0,0,1,131.4,118.555Z" fill="#f8af23"/><path d="M169.807,141.427a10.131,10.131,0,0,1,2.238,6.505,10.483,10.483,0,0,1-3.611,8.475q-3.612,3.043-10.354,3.043H139.444a1,1,0,0,1-1-1V118.256a1,1,0,0,1,1-1H157.6q6.446,0,9.967,2.805a9.632,9.632,0,0,1,3.521,8,9.855,9.855,0,0,1-2.029,6.356,9.207,9.207,0,0,1-2.888,2.411.993.993,0,0,0,.083,1.774A10.09,10.09,0,0,1,169.807,141.427ZM148.65,133.5a1,1,0,0,0,1,1h5.684q5.311,0,5.312-4.536t-5.431-4.536H149.65a1,1,0,0,0-1,1Zm12.951,13a4.438,4.438,0,0,0-1.492-3.551,6.312,6.312,0,0,0-4.237-1.283H149.65a1,1,0,0,0-1,1v7.489a1,1,0,0,0,1,1h6.281Q161.6,151.155,161.6,146.5Z" fill="#f8af23"/><path d="M78,201.52H178a11.513,11.513,0,0,0,11.5-11.5V86.687a11.513,11.513,0,0,0-11.5-11.5H78a11.513,11.513,0,0,0-11.5,11.5V190.02A11.513,11.513,0,0,0,78,201.52ZM69.5,86.687a8.51,8.51,0,0,1,8.5-8.5H178a8.51,8.51,0,0,1,8.5,8.5V190.02a8.51,8.51,0,0,1-8.5,8.5H78a8.51,8.51,0,0,1-8.5-8.5Z" fill="#3f3679"/><path d="M68,65.354H84.765a1.5,1.5,0,0,0,1.5-1.5V38.1a1.5,1.5,0,0,0-1.5-1.5H68a1.5,1.5,0,0,0-1.5,1.5v25.75A1.5,1.5,0,0,0,68,65.354ZM69.5,39.6H83.265v22.75H69.5Z" fill="#3f3679"/><path d="M102.412,65.354h16.765a1.5,1.5,0,0,0,1.5-1.5V38.1a1.5,1.5,0,0,0-1.5-1.5H102.412a1.5,1.5,0,0,0-1.5,1.5v25.75A1.5,1.5,0,0,0,102.412,65.354Zm1.5-25.75h13.765v22.75H103.912Z" fill="#3f3679"/><path d="M136.823,65.354h16.765a1.5,1.5,0,0,0,1.5-1.5V38.1a1.5,1.5,0,0,0-1.5-1.5H136.823a1.5,1.5,0,0,0-1.5,1.5v25.75A1.5,1.5,0,0,0,136.823,65.354Zm1.5-25.75h13.765v22.75H138.323Z" fill="#3f3679"/><path d="M171.235,65.354H188a1.5,1.5,0,0,0,1.5-1.5V38.1a1.5,1.5,0,0,0-1.5-1.5H171.235a1.5,1.5,0,0,0-1.5,1.5v25.75A1.5,1.5,0,0,0,171.235,65.354Zm1.5-25.75H186.5v22.75H172.735Z" fill="#3f3679"/><path d="M27.323,239.4h-18a1.5,1.5,0,0,0,0,3h18a1.5,1.5,0,1,0,0-3Z" fill="#3f3679"/><path d="M246.68,239.4h-18a1.5,1.5,0,0,0,0,3h18a1.5,1.5,0,0,0,0-3Z" fill="#3f3679"/><path d="M218.479,239.4H37.521a1.5,1.5,0,0,0,0,3H218.479a1.5,1.5,0,0,0,0-3Z" fill="#3f3679"/><path d="M9.32,231.427H246.68a1.5,1.5,0,0,0,0-3H219.333a5.823,5.823,0,0,0,.752-2.863V167.806a5.869,5.869,0,0,0-5.863-5.863h-3.74a2.866,2.866,0,0,1-2.862-2.862V83.869a2.866,2.866,0,0,1,2.862-2.862h3.74a5.869,5.869,0,0,0,5.863-5.863V19.463a5.869,5.869,0,0,0-5.863-5.863H74.049a5.837,5.837,0,0,0-4.017,1.593L37.762,45.542a5.88,5.88,0,0,0-1.847,4.271V84.285a5.869,5.869,0,0,0,5.863,5.863,2.866,2.866,0,0,1,2.863,2.862v12.051a2.866,2.866,0,0,1-2.863,2.863,5.869,5.869,0,0,0-5.863,5.862V225.563a5.823,5.823,0,0,0,.752,2.863H9.32a1.5,1.5,0,0,0,0,3Zm174.027-3H67.666a5.823,5.823,0,0,0,.752-2.863v-3.739a2.866,2.866,0,0,1,2.862-2.863H179.733a2.866,2.866,0,0,1,2.862,2.863v3.739A5.823,5.823,0,0,0,183.347,228.427ZM38.915,225.563V113.787a2.866,2.866,0,0,1,2.863-2.862,5.869,5.869,0,0,0,5.863-5.863V93.011a5.869,5.869,0,0,0-5.863-5.862,2.866,2.866,0,0,1-2.863-2.863V49.813a2.872,2.872,0,0,1,.9-2.085l32.271-30.35a2.85,2.85,0,0,1,1.961-.778H214.222a2.866,2.866,0,0,1,2.863,2.863V75.144a2.866,2.866,0,0,1-2.863,2.863h-3.74a5.869,5.869,0,0,0-5.862,5.862V159.08a5.869,5.869,0,0,0,5.862,5.862h3.74a2.866,2.866,0,0,1,2.863,2.863v57.758a2.866,2.866,0,0,1-2.863,2.863H188.459a2.866,2.866,0,0,1-2.863-2.863v-3.739a5.869,5.869,0,0,0-5.862-5.863H71.28a5.869,5.869,0,0,0-5.862,5.863v3.739a2.866,2.866,0,0,1-2.863,2.863H41.778A2.866,2.866,0,0,1,38.915,225.563Z" fill="#3f3679"/><path d="M84.955,160.951h8.206a2.5,2.5,0,0,0,2.5-2.5V142.072l5.98,17.2a2.5,2.5,0,0,0,2.361,1.68h7.41a2.5,2.5,0,0,0,2.362-1.682l5.921-17.1v16.281a2.5,2.5,0,0,0,2.5,2.5H130.4a2.5,2.5,0,0,0,2.5-2.5v-39.9a2.5,2.5,0,0,0-2.5-2.5H119.677a2.518,2.518,0,0,0-2.336,1.606l-9.527,24.916-9.739-24.936a2.488,2.488,0,0,0-2.328-1.587H84.955a2.5,2.5,0,0,0-2.5,2.5v39.9A2.5,2.5,0,0,0,84.955,160.951Zm.5-41.9h9.95l10.084,25.818a2.483,2.483,0,0,0,2.329,1.592h.009a2.485,2.485,0,0,0,2.326-1.606l9.867-25.8H129.9v38.9H122.7V139.2a2.5,2.5,0,0,0-4.861-.818l-6.777,19.574h-6.7l-6.836-19.66a2.5,2.5,0,0,0-4.861.82v18.84H85.455Z" fill="#3f3679"/><path d="M149.649,136h5.685c5.927,0,6.812-3.782,6.812-6.036s-.9-6.035-6.931-6.035h-5.565a2.5,2.5,0,0,0-2.5,2.5V133.5A2.5,2.5,0,0,0,149.649,136Zm.5-9.071h5.065c3.454,0,3.931,1.459,3.931,3.035S158.684,133,155.334,133h-5.185Z" fill="#3f3679"/><path d="M139.444,160.951h18.635c4.838,0,8.647-1.143,11.321-3.4a11.96,11.96,0,0,0,4.145-9.621,11.646,11.646,0,0,0-2.565-7.441h0a11.6,11.6,0,0,0-3.283-2.825,10.852,10.852,0,0,0,2.537-2.314,11.357,11.357,0,0,0,2.357-7.293,11.1,11.1,0,0,0-4.087-9.17c-2.609-2.079-6.277-3.133-10.9-3.133H139.444a2.5,2.5,0,0,0-2.5,2.5v40.2A2.5,2.5,0,0,0,139.444,160.951Zm.5-42.2H157.6c3.929,0,6.967.834,9.032,2.479a8.142,8.142,0,0,1,2.956,6.824,8.334,8.334,0,0,1-1.7,5.419,7.792,7.792,0,0,1-2.422,2.024,2.445,2.445,0,0,0-1.3,2.217,2.527,2.527,0,0,0,1.439,2.233,8.715,8.715,0,0,1,4.941,7.98,8.981,8.981,0,0,1-3.078,7.328c-2.118,1.785-5.276,2.69-9.388,2.69H139.944Z" fill="#3f3679"/><path d="M163.1,146.5a5.9,5.9,0,0,0-2.015-4.688,7.768,7.768,0,0,0-5.215-1.646h-6.222a2.5,2.5,0,0,0-2.5,2.5v7.489a2.5,2.5,0,0,0,2.5,2.5h6.281C162.169,152.655,163.1,148.8,163.1,146.5Zm-7.17,3.155h-5.781v-6.489h5.722a4.92,4.92,0,0,1,3.258.92,2.948,2.948,0,0,1,.972,2.414C160.1,148.139,159.6,149.655,155.931,149.655Z" fill="#3f3679"/></svg>