<svg xmlns="http://www.w3.org/2000/svg" viewBox="0 0 256 256"><title>icons_</title><path d="M113.325,240.046H45.767a4,4,0,0,1-4-4V171.48H16.213a4,4,0,0,1,0-8H45.767a4,4,0,0,1,4,4v64.565h59.558V188.1a4,4,0,0,1,4-4h80.481V171.145a4,4,0,1,1,8,0V188.1a4,4,0,0,1-4,4H117.325v43.941A4,4,0,0,1,113.325,240.046Z" fill="#f46275"/><path d="M45.767,81.547H16.213a4,4,0,0,1,0-8H41.767V8.981a4,4,0,0,1,4-4h67.558a4,4,0,0,1,4,4V52.923h80.481a4,4,0,0,1,4,4V73.882a4,4,0,1,1-8,0V60.923H113.325a4,4,0,0,1-4-4V12.981H49.767V77.547A4,4,0,0,1,45.767,81.547Z" fill="#f46275"/><path d="M86.789,201.719H69.6a4,4,0,0,1-4-4V149.928a4,4,0,0,1,4-4H82.789v-5.414H26.841a4,4,0,0,1,0-8H86.789a4,4,0,0,1,4,4v9.414h61.037a4,4,0,0,1,0,8H90.789v43.791A4,4,0,0,1,86.789,201.719Zm-13.187-8h9.188V153.928H73.6Z" fill="#63bce7"/><path d="M86.789,112.514H26.841a4,4,0,1,1,0-8H82.789V99.1H69.6a4,4,0,0,1-4-4V47.308a4,4,0,0,1,4-4H86.789a4,4,0,0,1,4,4V91.1h61.037a4,4,0,0,1,0,8H90.789v9.414A4,4,0,0,1,86.789,112.514ZM73.6,91.1h9.188V51.308H73.6Z" fill="#63bce7"/><rect x="151.826" y="106.835" width="91.962" height="31.358" rx="4.919" ry="4.919" fill="#9e9e9e"/><rect x="151.826" y="138.192" width="91.962" height="31.358" rx="4.919" ry="4.919" fill="#9e9e9e"/><rect x="151.826" y="75.477" width="91.962" height="31.358" rx="4.919" ry="4.919" fill="#9e9e9e"/><path d="M238.869,75.477h-9.5a4.919,4.919,0,0,1,4.919,4.919v21.52a4.919,4.919,0,0,1-4.919,4.919h9.5a4.919,4.919,0,0,0,4.919-4.919V80.4A4.919,4.919,0,0,0,238.869,75.477Z" fill="#cecece"/><path d="M238.869,106.835h-9.5a4.919,4.919,0,0,1,4.919,4.919v21.52a4.919,4.919,0,0,1-4.919,4.919h9.5a4.919,4.919,0,0,0,4.919-4.919v-21.52A4.919,4.919,0,0,0,238.869,106.835Z" fill="#cecece"/><path d="M238.869,138.193h-9.5a4.919,4.919,0,0,1,4.919,4.919v21.52a4.919,4.919,0,0,1-4.919,4.919h9.5a4.919,4.919,0,0,0,4.919-4.919v-21.52A4.919,4.919,0,0,0,238.869,138.193Z" fill="#cecece"/><rect x="161.334" y="87.779" width="48.774" height="6.753" rx="1.994" ry="1.994" fill="#f8af23"/><rect x="161.334" y="119.137" width="48.774" height="6.753" rx="1.994" ry="1.994" fill="#f8af23"/><rect x="161.334" y="150.495" width="48.774" height="6.753" rx="1.994" ry="1.994" fill="#f8af23"/><rect x="224.49" y="87.779" width="6.753" height="6.753" rx="1.994" ry="1.994" fill="#f8af23"/><rect x="224.49" y="119.137" width="6.753" height="6.753" rx="1.994" ry="1.994" fill="#f8af23"/><rect x="224.49" y="150.495" width="6.753" height="6.753" rx="1.994" ry="1.994" fill="#f8af23"/><path d="M82.789,152.428H73.6a1.5,1.5,0,0,0-1.5,1.5v39.791a1.5,1.5,0,0,0,1.5,1.5h9.188a1.5,1.5,0,0,0,1.5-1.5V153.928A1.5,1.5,0,0,0,82.789,152.428Zm-1.5,39.791H75.1V155.428h6.188Z" fill="#3f3679"/><path d="M82.789,49.809H73.6a1.5,1.5,0,0,0-1.5,1.5V91.1a1.5,1.5,0,0,0,1.5,1.5h9.188a1.5,1.5,0,0,0,1.5-1.5V51.309A1.5,1.5,0,0,0,82.789,49.809ZM81.289,89.6H75.1V52.809h6.188Z" fill="#3f3679"/><path d="M208.114,86.279H163.327a3.5,3.5,0,0,0-3.493,3.493v2.767a3.5,3.5,0,0,0,3.493,3.493h44.787a3.5,3.5,0,0,0,3.493-3.493V89.772A3.5,3.5,0,0,0,208.114,86.279Zm.493,6.26a.5.5,0,0,1-.493.493H163.327a.5.5,0,0,1-.493-.493V89.772a.5.5,0,0,1,.493-.493h44.787a.5.5,0,0,1,.493.493Z" fill="#3f3679"/><path d="M208.114,117.637H163.327a3.5,3.5,0,0,0-3.493,3.494V123.9a3.5,3.5,0,0,0,3.493,3.494h44.787a3.5,3.5,0,0,0,3.493-3.494v-2.766A3.5,3.5,0,0,0,208.114,117.637Zm.493,6.26a.5.5,0,0,1-.493.494H163.327a.5.5,0,0,1-.493-.494v-2.766a.5.5,0,0,1,.493-.494h44.787a.5.5,0,0,1,.493.494Z" fill="#3f3679"/><path d="M208.114,149H163.327a3.5,3.5,0,0,0-3.493,3.493v2.767a3.5,3.5,0,0,0,3.493,3.493h44.787a3.5,3.5,0,0,0,3.493-3.493v-2.767A3.5,3.5,0,0,0,208.114,149Zm.493,6.26a.5.5,0,0,1-.493.493H163.327a.5.5,0,0,1-.493-.493v-2.767a.5.5,0,0,1,.493-.493h44.787a.5.5,0,0,1,.493.493Z" fill="#3f3679"/><path d="M229.249,86.279h-2.766a3.5,3.5,0,0,0-3.494,3.493v2.767a3.5,3.5,0,0,0,3.494,3.493h2.766a3.5,3.5,0,0,0,3.494-3.493V89.772A3.5,3.5,0,0,0,229.249,86.279Zm.494,6.26a.5.5,0,0,1-.494.493h-2.766a.5.5,0,0,1-.494-.493V89.772a.5.5,0,0,1,.494-.493h2.766a.5.5,0,0,1,.494.493Z" fill="#3f3679"/><path d="M229.249,117.637h-2.766a3.5,3.5,0,0,0-3.494,3.494V123.9a3.5,3.5,0,0,0,3.494,3.494h2.766a3.5,3.5,0,0,0,3.494-3.494v-2.766A3.5,3.5,0,0,0,229.249,117.637Zm.494,6.26a.5.5,0,0,1-.494.494h-2.766a.5.5,0,0,1-.494-.494v-2.766a.5.5,0,0,1,.494-.494h2.766a.5.5,0,0,1,.494.494Z" fill="#3f3679"/><path d="M229.249,149h-2.766a3.5,3.5,0,0,0-3.494,3.493v2.767a3.5,3.5,0,0,0,3.494,3.493h2.766a3.5,3.5,0,0,0,3.494-3.493v-2.767A3.5,3.5,0,0,0,229.249,149Zm.494,6.26a.5.5,0,0,1-.494.493h-2.766a.5.5,0,0,1-.494-.493v-2.767a.5.5,0,0,1,.494-.493h2.766a.5.5,0,0,1,.494.493Z" fill="#3f3679"/><path d="M27.323,249.519h-18a1.5,1.5,0,1,0,0,3h18a1.5,1.5,0,1,0,0-3Z" fill="#3f3679"/><path d="M246.68,249.519h-18a1.5,1.5,0,0,0,0,3h18a1.5,1.5,0,0,0,0-3Z" fill="#3f3679"/><path d="M218.479,249.519H37.521a1.5,1.5,0,0,0,0,3H218.479a1.5,1.5,0,0,0,0-3Z" fill="#3f3679"/><path d="M9.32,241.546H246.68a1.5,1.5,0,0,0,0-3H118.218a5.46,5.46,0,0,0,.607-2.5V193.6h78.981a5.507,5.507,0,0,0,5.5-5.5V171.146c0-.032-.006-.064-.006-.1h35.569a6.425,6.425,0,0,0,6.418-6.418V143.111a6.406,6.406,0,0,0-2.3-4.919,6.406,6.406,0,0,0,2.3-4.919V111.753a6.405,6.405,0,0,0-2.3-4.918,6.406,6.406,0,0,0,2.3-4.919V80.4a6.426,6.426,0,0,0-6.418-6.419H203.3c0-.032.007-.063.007-.095V56.923a5.507,5.507,0,0,0-5.5-5.5H118.825V8.981a5.506,5.506,0,0,0-5.5-5.5H45.767a5.506,5.506,0,0,0-5.5,5.5V72.047H16.212a5.5,5.5,0,1,0,0,11H45.767a5.507,5.507,0,0,0,5.5-5.5V14.481h56.558V56.923a5.507,5.507,0,0,0,5.5,5.5h78.981V73.882c0,.032.006.063.007.095H156.744a6.426,6.426,0,0,0-6.418,6.419v9.2H92.289V47.309a5.507,5.507,0,0,0-5.5-5.5H69.6a5.507,5.507,0,0,0-5.5,5.5V95.1a5.507,5.507,0,0,0,5.5,5.5H81.289v2.414H26.841a5.5,5.5,0,1,0,0,11H86.789a5.507,5.507,0,0,0,5.5-5.5V100.6h58.038v1.316a6.406,6.406,0,0,0,2.3,4.919,6.405,6.405,0,0,0-2.3,4.918v21.521a6.406,6.406,0,0,0,2.3,4.919,6.406,6.406,0,0,0-2.3,4.919v1.316H92.289v-7.914a5.507,5.507,0,0,0-5.5-5.5H26.841a5.5,5.5,0,0,0,0,11H81.289v2.414H69.6a5.507,5.507,0,0,0-5.5,5.5v47.791a5.507,5.507,0,0,0,5.5,5.5H86.789a5.507,5.507,0,0,0,5.5-5.5V155.428h58.038v9.2a6.425,6.425,0,0,0,6.418,6.418h35.569c0,.032-.006.064-.006.1V182.6H113.325a5.507,5.507,0,0,0-5.5,5.5v42.441H51.267V167.48a5.507,5.507,0,0,0-5.5-5.5H16.212a5.5,5.5,0,0,0,0,11H40.267v63.065a5.46,5.46,0,0,0,.607,2.5H9.32a1.5,1.5,0,1,0,0,3ZM195.307,73.882V60.923a1.5,1.5,0,0,0-1.5-1.5H113.325a2.5,2.5,0,0,1-2.5-2.5V12.981a1.5,1.5,0,0,0-1.5-1.5H49.767a1.5,1.5,0,0,0-1.5,1.5V77.547a2.5,2.5,0,0,1-2.5,2.5H16.212a2.5,2.5,0,1,1,0-5H41.767a1.5,1.5,0,0,0,1.5-1.5V8.981a2.5,2.5,0,0,1,2.5-2.5h67.558a2.5,2.5,0,0,1,2.5,2.5V52.923a1.5,1.5,0,0,0,1.5,1.5h80.481a2.5,2.5,0,0,1,2.5,2.5V73.882c0,.032-.006.063-.007.095H195.32C195.319,73.945,195.307,73.914,195.307,73.882ZM90.789,97.6a1.5,1.5,0,0,0-1.5,1.5v9.414a2.5,2.5,0,0,1-2.5,2.5H26.841a2.5,2.5,0,1,1,0-5H82.789a1.5,1.5,0,0,0,1.5-1.5V99.1a1.5,1.5,0,0,0-1.5-1.5H69.6a2.5,2.5,0,0,1-2.5-2.5V47.309a2.5,2.5,0,0,1,2.5-2.5H86.789a2.5,2.5,0,0,1,2.5,2.5V91.1a1.5,1.5,0,0,0,1.5,1.5h59.538v5Zm62.538,4.316V80.4a3.423,3.423,0,0,1,3.418-3.419h82.125a3.423,3.423,0,0,1,3.418,3.419v21.521a3.423,3.423,0,0,1-3.418,3.419H156.744A3.423,3.423,0,0,1,153.326,101.916Zm0,31.357V111.753a3.422,3.422,0,0,1,3.418-3.418h82.125a3.422,3.422,0,0,1,3.418,3.418v21.521a3.423,3.423,0,0,1-3.418,3.419H156.744A3.423,3.423,0,0,1,153.326,133.273ZM90.789,152.428a1.5,1.5,0,0,0-1.5,1.5v43.791a2.5,2.5,0,0,1-2.5,2.5H69.6a2.5,2.5,0,0,1-2.5-2.5V149.928a2.5,2.5,0,0,1,2.5-2.5H82.789a1.5,1.5,0,0,0,1.5-1.5v-5.414a1.5,1.5,0,0,0-1.5-1.5H26.841a2.5,2.5,0,0,1,0-5H86.789a2.5,2.5,0,0,1,2.5,2.5v9.414a1.5,1.5,0,0,0,1.5,1.5h59.538v5Zm62.538,12.2V143.111a3.423,3.423,0,0,1,3.418-3.419h82.125a3.423,3.423,0,0,1,3.418,3.419v21.521a3.422,3.422,0,0,1-3.418,3.418H156.744A3.422,3.422,0,0,1,153.326,164.632ZM43.267,236.046V171.48a1.5,1.5,0,0,0-1.5-1.5H16.212a2.5,2.5,0,0,1,0-5H45.767a2.5,2.5,0,0,1,2.5,2.5v64.565a1.5,1.5,0,0,0,1.5,1.5h59.558a1.5,1.5,0,0,0,1.5-1.5V188.1a2.5,2.5,0,0,1,2.5-2.5h80.481a1.5,1.5,0,0,0,1.5-1.5V171.146c0-.032.011-.063.012-.1h4.975c0,.032.013.063.013.1V188.1a2.5,2.5,0,0,1-2.5,2.5H117.325a1.5,1.5,0,0,0-1.5,1.5v43.941a2.5,2.5,0,0,1-2.5,2.5H45.767A2.5,2.5,0,0,1,43.267,236.046Z" fill="#3f3679"/></svg>