<svg xmlns="http://www.w3.org/2000/svg" viewBox="0 0 256 256"><title>icons_</title><rect x="183.931" y="165.423" width="38.721" height="38.721" fill="#63bce7"/><rect x="183.931" y="88.203" width="38.721" height="38.721" fill="#63bce7"/><rect x="183.931" y="10.983" width="38.721" height="38.721" fill="#63bce7"/><rect x="27.945" y="165.423" width="38.721" height="38.721" fill="#63bce7"/><rect x="27.945" y="88.203" width="38.721" height="38.721" fill="#63bce7"/><rect x="27.945" y="10.983" width="38.721" height="38.721" fill="#63bce7"/><rect x="27.945" y="10.983" width="9.5" height="38.721" fill="#6377e7"/><rect x="213.152" y="10.983" width="9.5" height="38.721" fill="#63e2e7"/><rect x="213.152" y="88.203" width="9.5" height="38.721" fill="#63e2e7"/><rect x="213.152" y="165.423" width="9.5" height="38.721" fill="#63e2e7"/><rect x="27.945" y="88.203" width="9.5" height="38.721" fill="#6377e7"/><rect x="27.945" y="165.423" width="9.5" height="38.721" fill="#6377e7"/><rect x="108.639" y="10.983" width="38.721" height="38.721" fill="#63bce7"/><rect x="108.639" y="165.423" width="38.721" height="38.721" fill="#63bce7"/><rect x="117.005" y="165.423" width="21.989" height="68.621" rx="10.995" ry="10.995" fill="#f46275"/><circle cx="128" cy="107.564" r="42.167" fill="#f46275"/><circle cx="128" cy="107.564" r="31.51" fill="#f8af23"/><rect x="108.639" y="88.203" width="38.721" height="38.721" fill="#9e9e9e"/><path d="M27.944,51.2H66.666a1.5,1.5,0,0,0,1.5-1.5V10.982a1.5,1.5,0,0,0-1.5-1.5H27.944a1.5,1.5,0,0,0-1.5,1.5V49.7A1.5,1.5,0,0,0,27.944,51.2Zm1.5-38.722H65.166V48.2H29.444Z" fill="#3f3679"/><path d="M108.64,51.2H147.36a1.5,1.5,0,0,0,1.5-1.5V10.982a1.5,1.5,0,0,0-1.5-1.5H108.64a1.5,1.5,0,0,0-1.5,1.5V49.7A1.5,1.5,0,0,0,108.64,51.2Zm1.5-38.722H145.86V48.2H110.14Z" fill="#3f3679"/><path d="M183.931,51.2h38.722a1.5,1.5,0,0,0,1.5-1.5V10.982a1.5,1.5,0,0,0-1.5-1.5H183.931a1.5,1.5,0,0,0-1.5,1.5V49.7A1.5,1.5,0,0,0,183.931,51.2Zm1.5-38.722h35.722V48.2H185.431Z" fill="#3f3679"/><path d="M27.944,128.424H66.666a1.5,1.5,0,0,0,1.5-1.5V88.2a1.5,1.5,0,0,0-1.5-1.5H27.944a1.5,1.5,0,0,0-1.5,1.5v38.721A1.5,1.5,0,0,0,27.944,128.424Zm1.5-38.721H65.166v35.721H29.444Z" fill="#3f3679"/><path d="M183.931,128.424h38.722a1.5,1.5,0,0,0,1.5-1.5V88.2a1.5,1.5,0,0,0-1.5-1.5H183.931a1.5,1.5,0,0,0-1.5,1.5v38.721A1.5,1.5,0,0,0,183.931,128.424Zm1.5-38.721h35.722v35.721H185.431Z" fill="#3f3679"/><path d="M27.944,205.645H66.666a1.5,1.5,0,0,0,1.5-1.5V165.423a1.5,1.5,0,0,0-1.5-1.5H27.944a1.5,1.5,0,0,0-1.5,1.5v38.722A1.5,1.5,0,0,0,27.944,205.645Zm1.5-38.722H65.166v35.722H29.444Z" fill="#3f3679"/><path d="M183.931,205.645h38.722a1.5,1.5,0,0,0,1.5-1.5V165.423a1.5,1.5,0,0,0-1.5-1.5H183.931a1.5,1.5,0,0,0-1.5,1.5v38.722A1.5,1.5,0,0,0,183.931,205.645Zm1.5-38.722h35.722v35.722H185.431Z" fill="#3f3679"/><path d="M161.01,107.563A33.01,33.01,0,1,0,128,140.573,33.048,33.048,0,0,0,161.01,107.563Zm-63.02,0A30.01,30.01,0,1,1,128,137.573,30.043,30.043,0,0,1,97.99,107.563Z" fill="#3f3679"/><path d="M148.86,126.924V88.2a1.5,1.5,0,0,0-1.5-1.5H108.64a1.5,1.5,0,0,0-1.5,1.5v38.721a1.5,1.5,0,0,0,1.5,1.5H147.36A1.5,1.5,0,0,0,148.86,126.924Zm-3-1.5H110.14V89.7H145.86Z" fill="#3f3679"/><path d="M27.323,243.518h-18a1.5,1.5,0,0,0,0,3h18a1.5,1.5,0,1,0,0-3Z" fill="#3f3679"/><path d="M246.68,243.518h-18a1.5,1.5,0,0,0,0,3h18a1.5,1.5,0,0,0,0-3Z" fill="#3f3679"/><path d="M218.479,243.518H37.521a1.5,1.5,0,0,0,0,3H218.479a1.5,1.5,0,0,0,0-3Z" fill="#3f3679"/><path d="M9.32,235.544H246.68a1.5,1.5,0,0,0,0-3H136.1a12.463,12.463,0,0,0,4.393-9.494V205.645h6.866a1.5,1.5,0,0,0,1.5-1.5V165.423a1.5,1.5,0,0,0-1.5-1.5H129.5v-12.73a43.667,43.667,0,1,0-3,0v12.73H108.64a1.5,1.5,0,0,0-1.5,1.5v38.722a1.5,1.5,0,0,0,1.5,1.5h6.866V223.05a12.463,12.463,0,0,0,4.393,9.494H9.32a1.5,1.5,0,0,0,0,3Zm136.54-32.9h-5.366V176.418a12.464,12.464,0,0,0-4.394-9.5h9.76ZM87.333,107.563A40.667,40.667,0,1,1,128,148.23,40.713,40.713,0,0,1,87.333,107.563Zm22.807,95.081V166.923h9.76a12.464,12.464,0,0,0-4.394,9.5v26.227Zm8.366,20.405V176.418a9.494,9.494,0,1,1,18.988,0V223.05a9.494,9.494,0,0,1-18.988,0Z" fill="#3f3679"/></svg>