<svg xmlns="http://www.w3.org/2000/svg" viewBox="0 0 256 256"><title>icons_</title><circle cx="209.986" cy="49.157" r="21.144" fill="#f46275"/><circle cx="46.014" cy="49.157" r="21.144" fill="#f46275"/><path d="M34.37,49.157A21.138,21.138,0,0,1,50.764,28.569a21.144,21.144,0,1,0,0,41.177A21.138,21.138,0,0,1,34.37,49.157Z" fill="#f43075"/><path d="M221.63,49.157a21.138,21.138,0,0,0-16.394-20.588,21.144,21.144,0,1,1,0,41.177A21.138,21.138,0,0,0,221.63,49.157Z" fill="#f48875"/><circle cx="128" cy="49.157" r="21.144" fill="#f8af23"/><circle cx="46.014" cy="122.514" r="21.144" fill="#f8af23"/><circle cx="128" cy="122.514" r="21.144" fill="#f8af23"/><circle cx="209.986" cy="122.514" r="21.144" fill="#f8af23"/><circle cx="46.014" cy="195.87" r="21.144" fill="#63bce7"/><circle cx="128" cy="195.87" r="21.144" fill="#f8af23"/><circle cx="209.986" cy="195.87" r="21.144" fill="#63bce7"/><path d="M34.37,122.513a21.138,21.138,0,0,1,16.394-20.588,21.144,21.144,0,1,0,0,41.177A21.138,21.138,0,0,1,34.37,122.513Z" fill="#f87023"/><path d="M34.37,195.87a21.138,21.138,0,0,1,16.394-20.588,21.144,21.144,0,1,0,0,41.177A21.138,21.138,0,0,1,34.37,195.87Z" fill="#6377e7"/><path d="M221.63,122.513a21.138,21.138,0,0,0-16.394-20.588,21.144,21.144,0,1,1,0,41.177A21.138,21.138,0,0,0,221.63,122.513Z" fill="#f8d323"/><path d="M221.63,195.87a21.138,21.138,0,0,0-16.394-20.588,21.144,21.144,0,1,1,0,41.177A21.138,21.138,0,0,0,221.63,195.87Z" fill="#63e2e7"/><path d="M27.323,226.486h-18a1.5,1.5,0,1,0,0,3h18a1.5,1.5,0,1,0,0-3Z" fill="#3f3679"/><path d="M246.68,226.486h-18a1.5,1.5,0,0,0,0,3h18a1.5,1.5,0,0,0,0-3Z" fill="#3f3679"/><path d="M218.479,226.486H37.521a1.5,1.5,0,0,0,0,3H218.479a1.5,1.5,0,0,0,0-3Z" fill="#3f3679"/><path d="M9.32,218.514H246.68a1.5,1.5,0,0,0,0-3H221.228a22.644,22.644,0,1,0-22.483,0h-59.5a22.6,22.6,0,0,0,6.586-33.581l48.333-43.245a22.644,22.644,0,1,0,0-32.347L145.827,63.094a22.644,22.644,0,1,0-35.653,0L61.84,106.34a22.644,22.644,0,1,0,0,32.347l48.334,43.245a22.6,22.6,0,0,0,6.585,33.582h-59.5a22.644,22.644,0,1,0-22.483,0H9.32a1.5,1.5,0,1,0,0,3ZM190.342,195.87a19.644,19.644,0,1,1,19.644,19.644A19.667,19.667,0,0,1,190.342,195.87ZM112.174,179.7,63.84,136.451a22.57,22.57,0,0,0,0-27.875l48.334-43.245A22.57,22.57,0,0,0,126.5,71.746v28.18a22.638,22.638,0,0,0,0,45.177v28.179A22.569,22.569,0,0,0,112.174,179.7ZM128,142.157a19.644,19.644,0,1,1,19.644-19.644A19.666,19.666,0,0,1,128,142.157Zm1.5,2.945a22.638,22.638,0,0,0,0-45.177V71.746a22.569,22.569,0,0,0,14.326-6.415l48.334,43.246a22.569,22.569,0,0,0,0,27.875L143.827,179.7a22.569,22.569,0,0,0-14.327-6.416Zm80.486-42.232a19.644,19.644,0,1,1-19.644,19.644A19.666,19.666,0,0,1,209.986,102.87ZM128,29.514a19.644,19.644,0,1,1-19.644,19.644A19.666,19.666,0,0,1,128,29.514ZM46.014,142.157a19.644,19.644,0,1,1,19.644-19.644A19.666,19.666,0,0,1,46.014,142.157Zm62.342,53.713A19.644,19.644,0,1,1,128,215.514,19.667,19.667,0,0,1,108.356,195.87Zm-81.986,0a19.644,19.644,0,1,1,19.644,19.644A19.667,19.667,0,0,1,26.37,195.87Z" fill="#3f3679"/><path d="M46.014,71.8A22.644,22.644,0,1,0,23.37,49.157,22.67,22.67,0,0,0,46.014,71.8Zm0-42.287A19.644,19.644,0,1,1,26.37,49.157,19.666,19.666,0,0,1,46.014,29.514Z" fill="#3f3679"/><path d="M209.986,71.8a22.644,22.644,0,1,0-22.644-22.644A22.67,22.67,0,0,0,209.986,71.8Zm0-42.287a19.644,19.644,0,1,1-19.644,19.644A19.666,19.666,0,0,1,209.986,29.514Z" fill="#3f3679"/></svg>