<svg xmlns="http://www.w3.org/2000/svg" viewBox="0 0 256 256"><title>icons_</title><rect x="15.61" y="28.986" width="224.78" height="154.91" rx="14.009" ry="14.009" fill="#63bce7"/><path d="M25.11,169.887V43A14.025,14.025,0,0,1,39.119,28.986h-9.5A14.025,14.025,0,0,0,15.61,43V169.887A14.025,14.025,0,0,0,29.619,183.9h9.5A14.025,14.025,0,0,1,25.11,169.887Z" fill="#6377e7"/><path d="M230.89,169.887V43a14.025,14.025,0,0,0-14.009-14.009h9.5A14.025,14.025,0,0,1,240.39,43V169.887A14.025,14.025,0,0,1,226.381,183.9h-9.5A14.025,14.025,0,0,0,230.89,169.887Z" fill="#63e2e7"/><rect x="24.231" y="37.607" width="207.538" height="125.366" rx="5.388" ry="5.388" fill="#f8af23"/><path d="M33.731,157.585V42.995a5.4,5.4,0,0,1,5.388-5.388h-9.5a5.4,5.4,0,0,0-5.388,5.388v114.59a5.4,5.4,0,0,0,5.388,5.388h9.5A5.4,5.4,0,0,1,33.731,157.585Z" fill="#f87023"/><path d="M222.269,157.585V42.995a5.4,5.4,0,0,0-5.388-5.388h9.5a5.4,5.4,0,0,1,5.388,5.388v114.59a5.4,5.4,0,0,1-5.388,5.388h-9.5A5.4,5.4,0,0,0,222.269,157.585Z" fill="#f8d323"/><rect x="88.847" y="206.612" width="78.305" height="9.429" fill="#f46275"/><rect x="88.847" y="206.612" width="9.5" height="9.429" fill="#f43075"/><rect x="99.983" y="183.896" width="56.035" height="22.716" fill="#9e9e9e"/><rect x="99.983" y="183.896" width="9.5" height="22.716" fill="#707070"/><circle cx="128" cy="173.435" r="4.613" fill="#f46275"/><path d="M177.075,73.159a12.793,12.793,0,0,0-4.552-10.3c-5.716-4.677-15.082-4.381-25.627-.989-4.884-8.8-11.5-14.137-18.9-14.137s-14.012,5.337-18.9,14.138c-10.545-3.393-19.911-3.688-25.627.988a12.793,12.793,0,0,0-4.552,10.3c0,7.418,4.83,17.1,13.079,27.013-8.249,9.913-13.079,19.6-13.079,27.013a12.793,12.793,0,0,0,4.552,10.3c2.985,2.442,6.962,3.53,11.585,3.53a46.873,46.873,0,0,0,14.044-2.539c4.884,8.8,11.5,14.134,18.894,14.134s14.01-5.335,18.894-14.134a46.873,46.873,0,0,0,14.044,2.539c4.622,0,8.6-1.089,11.585-3.53a12.793,12.793,0,0,0,4.552-10.3c0-7.418-4.83-17.1-13.079-27.013C172.245,90.26,177.075,80.577,177.075,73.159Zm-16.012-6.782c3.068,0,5.478.631,7.028,1.9a5.891,5.891,0,0,1,1.983,4.884c0,4.976-3.418,12.772-10.75,21.76q-2.077-2.191-4.355-4.367a81.822,81.822,0,0,0-5.045-22.231A39.909,39.909,0,0,1,161.063,66.377Zm-48.455,4.267c2.729,1.114,5.589,2.459,8.532,4.008a143.431,143.431,0,0,0-12.122,8.86A67.725,67.725,0,0,1,112.608,70.644Zm-3.59,46.19a143.343,143.343,0,0,0,12.133,8.867c-2.947,1.551-5.808,2.885-8.541,4A67.713,67.713,0,0,1,109.018,116.835ZM113.3,111.3q-2.927-2.394-5.516-4.76c-.13-2.063-.205-4.182-.205-6.366s.075-4.3.205-6.365q2.6-2.364,5.516-4.76A135.047,135.047,0,0,1,128,78.567a135.037,135.037,0,0,1,14.7,10.48q2.927,2.394,5.516,4.76c.13,2.063.205,4.182.205,6.365s-.075,4.3-.205,6.366q-2.6,2.364-5.516,4.76A135.207,135.207,0,0,1,128,121.787,135.207,135.207,0,0,1,113.3,111.3Zm33.68-27.787a143.391,143.391,0,0,0-12.123-8.86c2.943-1.548,5.8-2.893,8.532-4.008A67.732,67.732,0,0,1,146.982,83.512Zm0,33.323a67.722,67.722,0,0,1-3.591,12.868c-2.734-1.116-5.594-2.45-8.541-4A143.34,143.34,0,0,0,146.982,116.835ZM128,54.732c4.285,0,8.7,3.451,12.325,9.581A112.757,112.757,0,0,0,128,70.446a112.753,112.753,0,0,0-12.325-6.134C119.3,58.183,123.715,54.732,128,54.732ZM85.925,73.159a5.891,5.891,0,0,1,1.983-4.884c1.551-1.268,3.959-1.9,7.028-1.9a39.909,39.909,0,0,1,11.139,1.945,81.827,81.827,0,0,0-5.045,22.231q-2.276,2.173-4.355,4.367C89.344,85.932,85.925,78.135,85.925,73.159Zm1.983,58.91a5.891,5.891,0,0,1-1.983-4.884c0-4.976,3.418-12.772,10.75-21.76q2.077,2.191,4.356,4.367a81.813,81.813,0,0,0,5.049,22.24C97.626,134.584,91.028,134.62,87.909,132.07ZM128,145.613c-4.284,0-8.7-3.45-12.323-9.577A112.822,112.822,0,0,0,128,129.9a112.751,112.751,0,0,0,12.323,6.136C136.7,142.163,132.284,145.613,128,145.613Zm42.075-18.427a5.891,5.891,0,0,1-1.983,4.884c-3.119,2.55-9.717,2.512-18.171-.039a81.809,81.809,0,0,0,5.049-22.238q2.276-2.173,4.356-4.367C166.656,114.413,170.075,122.21,170.075,127.186Z" fill="#f46275"/><circle cx="128" cy="100.29" r="6.375" fill="#63bce7"/><path d="M233.269,157.585V43a6.9,6.9,0,0,0-6.888-6.889H29.619A6.9,6.9,0,0,0,22.731,43v114.59a6.9,6.9,0,0,0,6.888,6.888H226.381A6.9,6.9,0,0,0,233.269,157.585Zm-207.538,0V43a3.893,3.893,0,0,1,3.888-3.889H226.381A3.893,3.893,0,0,1,230.269,43v114.59a3.892,3.892,0,0,1-3.888,3.888H29.619A3.892,3.892,0,0,1,25.731,157.585Z" fill="#3f3679"/><path d="M128,167.321a6.113,6.113,0,1,0,6.113,6.113A6.12,6.12,0,0,0,128,167.321Zm0,9.227a3.113,3.113,0,1,1,3.113-3.113A3.117,3.117,0,0,1,128,176.548Z" fill="#3f3679"/><path d="M27.323,225.514h-18a1.5,1.5,0,1,0,0,3h18a1.5,1.5,0,1,0,0-3Z" fill="#3f3679"/><path d="M246.68,225.514h-18a1.5,1.5,0,0,0,0,3h18a1.5,1.5,0,0,0,0-3Z" fill="#3f3679"/><path d="M218.479,225.514H37.521a1.5,1.5,0,0,0,0,3H218.479a1.5,1.5,0,0,0,0-3Z" fill="#3f3679"/><path d="M9.32,217.541H246.68a1.5,1.5,0,0,0,0-3H168.653v-7.93a1.5,1.5,0,0,0-1.5-1.5h-9.635V185.4h68.864a15.526,15.526,0,0,0,15.508-15.508V43a15.526,15.526,0,0,0-15.508-15.509H29.619A15.526,15.526,0,0,0,14.11,43V169.888A15.526,15.526,0,0,0,29.619,185.4H98.482v19.716H88.847a1.5,1.5,0,0,0-1.5,1.5v7.93H9.32a1.5,1.5,0,1,0,0,3Zm7.791-47.653V43A12.523,12.523,0,0,1,29.619,30.486H226.381A12.523,12.523,0,0,1,238.89,43V169.888A12.523,12.523,0,0,1,226.381,182.4H29.619A12.523,12.523,0,0,1,17.11,169.888ZM101.482,185.4h53.035v19.716H101.482ZM90.347,208.111h75.306v6.43H90.347Z" fill="#3f3679"/><path d="M133.361,74.582a1.5,1.5,0,0,0,.678,1.326,141.653,141.653,0,0,1,12,8.766,1.5,1.5,0,0,0,2.424-1.43,69.2,69.2,0,0,0-3.673-13.153,1.5,1.5,0,0,0-1.961-.835c-2.76,1.127-5.675,2.5-8.664,4.069A1.5,1.5,0,0,0,133.361,74.582Zm9.181-1.954a63.786,63.786,0,0,1,2.126,7.141c-2.222-1.706-4.512-3.359-6.849-4.946C139.43,74.021,141.008,73.288,142.542,72.628Z" fill="#3f3679"/><path d="M128.786,77.29a1.5,1.5,0,0,0-1.572,0,136.856,136.856,0,0,0-14.861,10.6c-1.906,1.56-3.782,3.179-5.576,4.813a1.5,1.5,0,0,0-.487,1.015c-.14,2.222-.208,4.334-.208,6.459s.068,4.239.208,6.461a1.5,1.5,0,0,0,.487,1.015c1.809,1.646,3.685,3.265,5.576,4.812a136.778,136.778,0,0,0,14.861,10.605,1.5,1.5,0,0,0,1.572,0,136.9,136.9,0,0,0,14.86-10.605c1.891-1.547,3.768-3.166,5.576-4.812a1.5,1.5,0,0,0,.487-1.015c.14-2.222.208-4.335.208-6.461s-.068-4.237-.208-6.459a1.5,1.5,0,0,0-.487-1.015c-1.794-1.634-3.67-3.253-5.576-4.812A136.972,136.972,0,0,0,128.786,77.29Zm18.133,22.882c0,1.868-.054,3.728-.166,5.665-1.63,1.47-3.311,2.914-5.005,4.3A134.268,134.268,0,0,1,128,120.021a134.18,134.18,0,0,1-13.748-9.885c-1.694-1.386-3.375-2.83-5.005-4.3-.112-1.937-.166-3.8-.166-5.665s.054-3.726.166-5.663c1.618-1.46,3.3-2.905,5.005-4.3A134.165,134.165,0,0,1,128,80.333a134.142,134.142,0,0,1,13.748,9.875c1.706,1.4,3.387,2.841,5.005,4.3C146.865,96.446,146.919,98.3,146.919,100.172Z" fill="#3f3679"/><path d="M169.041,67.114c-3.517-2.874-10.406-2.985-19.55-.229a1.5,1.5,0,0,0-.962,1.987,80.9,80.9,0,0,1,4.947,21.819,1.5,1.5,0,0,0,.458.945c1.5,1.431,2.946,2.882,4.3,4.313a1.5,1.5,0,0,0,1.089.469h.056a1.5,1.5,0,0,0,1.107-.551c7.046-8.639,11.087-16.916,11.087-22.709A7.389,7.389,0,0,0,169.041,67.114ZM159.22,92.647c-.908-.932-1.849-1.865-2.811-2.792a85.215,85.215,0,0,0-4.5-20.541c7.187-1.951,12.825-1.851,15.237.122a4.44,4.44,0,0,1,1.433,3.723C168.575,77.919,165.1,85.126,159.22,92.647Z" fill="#3f3679"/><path d="M115.095,65.7a111.025,111.025,0,0,1,12.16,6.052,1.5,1.5,0,0,0,1.49,0,111.066,111.066,0,0,1,12.16-6.052,1.5,1.5,0,0,0,.711-2.147C137.682,56.9,132.846,53.231,128,53.231s-9.682,3.664-13.616,10.317a1.5,1.5,0,0,0,.711,2.147ZM128,56.231c3.358,0,6.993,2.673,10.126,7.394-3.308,1.458-6.7,3.166-10.126,5.1-3.421-1.929-6.818-3.638-10.126-5.095C121.007,58.9,124.642,56.231,128,56.231Z" fill="#3f3679"/><path d="M159.38,103.927a1.443,1.443,0,0,0-1.144.467c-1.37,1.444-2.817,2.9-4.3,4.313a1.5,1.5,0,0,0-.458.945,80.891,80.891,0,0,1-4.95,21.827,1.5,1.5,0,0,0,.962,1.986,41.071,41.071,0,0,0,11.569,2c3.446,0,6.166-.744,7.984-2.23a7.389,7.389,0,0,0,2.534-6.045c0-5.794-4.042-14.07-11.088-22.708A1.5,1.5,0,0,0,159.38,103.927Zm7.762,26.981c-2.482,2.028-8.114,2.063-15.24.13a85.222,85.222,0,0,0,4.507-20.549c.957-.921,1.9-1.855,2.811-2.791,5.881,7.521,9.354,14.727,9.354,19.487A4.441,4.441,0,0,1,167.142,130.908Z" fill="#3f3679"/><path d="M122.649,125.773a1.5,1.5,0,0,0-.678-1.327,141.891,141.891,0,0,1-12.005-8.773,1.5,1.5,0,0,0-2.424,1.43,69.251,69.251,0,0,0,3.673,13.155,1.5,1.5,0,0,0,1.961.835c2.814-1.148,5.732-2.516,8.673-4.063A1.5,1.5,0,0,0,122.649,125.773Zm-9.19,1.948a63.962,63.962,0,0,1-2.127-7.144c2.227,1.71,4.52,3.366,6.857,4.953C116.593,126.322,115.011,127.055,113.459,127.722Z" fill="#3f3679"/><path d="M173.473,61.7c-5.526-4.521-14.456-5.075-25.874-1.618-5.267-8.941-12.192-13.847-19.6-13.847s-14.332,4.905-19.6,13.847c-11.417-3.456-20.346-2.9-25.873,1.618a14.244,14.244,0,0,0-5.1,11.463c0,7.4,4.479,16.959,12.637,27.014-8.159,10.055-12.637,19.613-12.637,27.013a14.244,14.244,0,0,0,5.1,11.463c5.52,4.516,14.461,5.078,25.875,1.621,5.266,8.938,12.192,13.843,19.6,13.843s14.331-4.9,19.6-13.843c11.412,3.457,20.352,2.9,25.875-1.621a14.244,14.244,0,0,0,5.1-11.463c0-7.4-4.479-16.958-12.637-27.013,8.159-10.055,12.637-19.614,12.637-27.014A14.244,14.244,0,0,0,173.473,61.7Zm-10.629,39.436c8.21,9.867,12.731,19.119,12.731,26.054a11.342,11.342,0,0,1-4,9.141c-4.864,3.979-13.346,4.224-24.22.725a1.5,1.5,0,0,0-1.771.7c-4.783,8.616-11.027,13.361-17.582,13.361s-12.8-4.745-17.582-13.361a1.5,1.5,0,0,0-1.771-.7c-10.875,3.5-19.358,3.255-24.22-.725a11.342,11.342,0,0,1-4-9.141c0-6.935,4.521-16.187,12.731-26.054a1.5,1.5,0,0,0,0-1.918c-8.21-9.867-12.731-19.12-12.731-26.055a11.342,11.342,0,0,1,4-9.141C90.6,58.97,101,60.839,108.645,63.3a1.5,1.5,0,0,0,1.771-.7C115.2,53.979,121.444,49.231,128,49.231s12.8,4.747,17.584,13.365a1.5,1.5,0,0,0,1.771.7c7.64-2.458,18.045-4.328,24.218.722a11.342,11.342,0,0,1,4,9.141c0,6.935-4.521,16.188-12.731,26.055A1.5,1.5,0,0,0,162.843,101.132Z" fill="#3f3679"/><path d="M140.9,134.651a110.823,110.823,0,0,1-12.157-6.054,1.5,1.5,0,0,0-1.491,0,111.461,111.461,0,0,1-12.158,6.055,1.5,1.5,0,0,0-.711,2.146c3.935,6.65,8.77,10.313,13.614,10.313s9.681-3.663,13.614-10.313a1.5,1.5,0,0,0-.711-2.147ZM128,144.112c-3.357,0-6.991-2.671-10.124-7.391,3.3-1.454,6.693-3.163,10.124-5.1,3.43,1.935,6.825,3.644,10.124,5.1C134.992,141.44,131.358,144.112,128,144.112Z" fill="#3f3679"/><path d="M102.524,109.652a1.5,1.5,0,0,0-.458-.945c-1.485-1.418-2.933-2.869-4.3-4.313a1.451,1.451,0,0,0-1.144-.467,1.5,1.5,0,0,0-1.106.551c-7.046,8.638-11.088,16.914-11.088,22.708a7.389,7.389,0,0,0,2.534,6.045c1.819,1.487,4.539,2.232,7.987,2.232a41.088,41.088,0,0,0,11.567-2,1.5,1.5,0,0,0,.962-1.986A80.87,80.87,0,0,1,102.524,109.652ZM88.858,130.908a4.44,4.44,0,0,1-1.433-3.723c0-4.761,3.474-11.967,9.354-19.487.914.936,1.854,1.87,2.811,2.791A85.2,85.2,0,0,0,104.1,131.04C96.975,132.971,91.342,132.939,88.858,130.908Z" fill="#3f3679"/><path d="M147.744,115.543a1.5,1.5,0,0,0-1.71.13,141.642,141.642,0,0,1-12,8.772,1.5,1.5,0,0,0,.122,2.583c2.931,1.544,5.849,2.911,8.672,4.063a1.5,1.5,0,0,0,1.961-.835,69.24,69.24,0,0,0,3.673-13.154A1.5,1.5,0,0,0,147.744,115.543Zm-5.2,12.178c-1.556-.668-3.136-1.4-4.729-2.19q3.508-2.382,6.856-4.952A64.048,64.048,0,0,1,142.541,127.721Z" fill="#3f3679"/><path d="M96.62,96.419h.056a1.5,1.5,0,0,0,1.089-.469c1.356-1.432,2.8-2.883,4.3-4.313a1.5,1.5,0,0,0,.458-.945,80.9,80.9,0,0,1,4.947-21.819,1.5,1.5,0,0,0-.962-1.987c-9.144-2.757-16.033-2.646-19.55.229a7.389,7.389,0,0,0-2.534,6.045c0,5.793,4.042,14.07,11.087,22.709A1.5,1.5,0,0,0,96.62,96.419ZM88.858,69.437c1.249-1.021,3.351-1.56,6.079-1.56a36.236,36.236,0,0,1,9.158,1.438,85.215,85.215,0,0,0-4.5,20.541c-.962.927-1.9,1.86-2.811,2.792-5.88-7.521-9.354-14.729-9.354-19.488A4.441,4.441,0,0,1,88.858,69.437Z" fill="#3f3679"/><path d="M108.255,84.8a1.5,1.5,0,0,0,1.71-.13,141.637,141.637,0,0,1,12-8.766,1.5,1.5,0,0,0-.122-2.583c-2.992-1.574-5.907-2.943-8.664-4.069a1.5,1.5,0,0,0-1.961.835,69.241,69.241,0,0,0-3.672,13.153A1.5,1.5,0,0,0,108.255,84.8Zm5.2-12.176c1.533.66,3.112,1.394,4.723,2.194-2.336,1.586-4.626,3.24-6.849,4.946A63.951,63.951,0,0,1,113.458,72.628Z" fill="#3f3679"/><path d="M128,92.415a7.875,7.875,0,1,0,7.875,7.875A7.884,7.884,0,0,0,128,92.415Zm0,12.75a4.875,4.875,0,1,1,4.875-4.875A4.88,4.88,0,0,1,128,105.165Z" fill="#3f3679"/></svg>