<svg xmlns="http://www.w3.org/2000/svg" viewBox="0 0 256 256"><title>icons_</title><rect x="17.5" y="97.389" width="67" height="50.25" rx="5" ry="5" fill="#f8af23"/><path d="M27,142.639v-40.25a5,5,0,0,1,5-5H22.5a5,5,0,0,0-5,5v40.25a5,5,0,0,0,5,5H32A5,5,0,0,1,27,142.639Z" fill="#f87023"/><path d="M84.5,102.389a5,5,0,0,0-5-5h-57a5,5,0,0,0-5,5v9.288h67Z" fill="#9e9e9e"/><path d="M32,97.389H22.5a5,5,0,0,0-5,5v9.288H27v-9.288A5,5,0,0,1,32,97.389Z" fill="#707070"/><rect x="94.5" y="97.389" width="67" height="50.25" rx="5" ry="5" fill="#f8af23"/><path d="M104,142.639v-40.25a5,5,0,0,1,5-5H99.5a5,5,0,0,0-5,5v40.25a5,5,0,0,0,5,5H109A5,5,0,0,1,104,142.639Z" fill="#f87023"/><path d="M161.5,102.389a5,5,0,0,0-5-5h-57a5,5,0,0,0-5,5v9.288h67Z" fill="#9e9e9e"/><path d="M109,97.389H99.5a5,5,0,0,0-5,5v9.288H104v-9.288A5,5,0,0,1,109,97.389Z" fill="#707070"/><rect x="171.5" y="97.389" width="67" height="50.25" rx="5" ry="5" fill="#f8af23"/><path d="M229,142.639v-40.25a5,5,0,0,0-5-5h9.5a5,5,0,0,1,5,5v40.25a5,5,0,0,1-5,5H224A5,5,0,0,0,229,142.639Z" fill="#f8d323"/><path d="M238.5,102.389a5,5,0,0,0-5-5h-57a5,5,0,0,0-5,5v9.288h67Z" fill="#9e9e9e"/><path d="M224,97.389h9.5a5,5,0,0,1,5,5v9.288H229v-9.288A5,5,0,0,0,224,97.389Z" fill="#cecece"/><rect x="94.5" y="23.889" width="67" height="50.25" rx="5" ry="5" fill="#63bce7"/><path d="M104,69.139V28.889a5,5,0,0,1,5-5H99.5a5,5,0,0,0-5,5v40.25a5,5,0,0,0,5,5H109A5,5,0,0,1,104,69.139Z" fill="#6377e7"/><path d="M161.5,28.889a5,5,0,0,0-5-5h-57a5,5,0,0,0-5,5v9.288h67Z" fill="#9e9e9e"/><path d="M109,23.889H99.5a5,5,0,0,0-5,5v9.288H104V28.889A5,5,0,0,1,109,23.889Z" fill="#707070"/><rect x="56" y="170.889" width="67" height="50.25" rx="5" ry="5" fill="#f46275"/><path d="M65.5,216.139v-40.25a5,5,0,0,1,5-5H61a5,5,0,0,0-5,5v40.25a5,5,0,0,0,5,5h9.5A5,5,0,0,1,65.5,216.139Z" fill="#f43075"/><path d="M123,175.889a5,5,0,0,0-5-5H61a5,5,0,0,0-5,5v9.288h67Z" fill="#9e9e9e"/><path d="M70.5,170.889H61a5,5,0,0,0-5,5v9.288h9.5v-9.288A5,5,0,0,1,70.5,170.889Z" fill="#707070"/><rect x="133" y="170.889" width="67" height="50.25" rx="5" ry="5" fill="#f46275"/><path d="M190.5,216.139v-40.25a5,5,0,0,0-5-5H195a5,5,0,0,1,5,5v40.25a5,5,0,0,1-5,5h-9.5A5,5,0,0,0,190.5,216.139Z" fill="#f48875"/><path d="M200,175.889a5,5,0,0,0-5-5H138a5,5,0,0,0-5,5v9.288h67Z" fill="#9e9e9e"/><path d="M185.5,170.889H195a5,5,0,0,1,5,5v9.288h-9.5v-9.288A5,5,0,0,0,185.5,170.889Z" fill="#cecece"/><path d="M27.323,230.611h-18a1.5,1.5,0,1,0,0,3h18a1.5,1.5,0,1,0,0-3Z" fill="#3f3679"/><path d="M246.68,230.611h-18a1.5,1.5,0,0,0,0,3h18a1.5,1.5,0,0,0,0-3Z" fill="#3f3679"/><path d="M218.479,230.611H37.521a1.5,1.5,0,0,0,0,3H218.479a1.5,1.5,0,0,0,0-3Z" fill="#3f3679"/><path d="M9.32,222.639H246.68a1.5,1.5,0,0,0,0-3H200.468a6.455,6.455,0,0,0,1.032-3.5V202.014h17.25a1.5,1.5,0,0,0,1.5-1.5V149.139H233.5a6.508,6.508,0,0,0,6.5-6.5v-40.25a6.508,6.508,0,0,0-6.5-6.5h-57a6.508,6.508,0,0,0-6.5,6.5v24.625h-7V102.389a6.508,6.508,0,0,0-6.5-6.5h-27V75.639h27a6.508,6.508,0,0,0,6.5-6.5V28.889a6.508,6.508,0,0,0-6.5-6.5h-57a6.508,6.508,0,0,0-6.5,6.5v40.25a6.508,6.508,0,0,0,6.5,6.5h27v20.25h-27a6.508,6.508,0,0,0-6.5,6.5v24.625H86V102.389a6.508,6.508,0,0,0-6.5-6.5h-57a6.508,6.508,0,0,0-6.5,6.5v40.25a6.508,6.508,0,0,0,6.5,6.5H35.75v51.375a1.5,1.5,0,0,0,1.5,1.5H54.5v14.125a6.455,6.455,0,0,0,1.032,3.5H9.32a1.5,1.5,0,1,0,0,3ZM96,28.889a3.5,3.5,0,0,1,3.5-3.5h57a3.5,3.5,0,0,1,3.5,3.5v7.788H96Zm0,40.25V39.677h64V69.139a3.5,3.5,0,0,1-3.5,3.5h-57A3.5,3.5,0,0,1,96,69.139Zm25.5,114.538h-64v-7.788a3.5,3.5,0,0,1,3.5-3.5h57a3.5,3.5,0,0,1,3.5,3.5Zm3,32.462V202.014h7v14.125a6.455,6.455,0,0,0,1.032,3.5h-9.063A6.455,6.455,0,0,0,124.5,216.139Zm13.5,3.5a3.5,3.5,0,0,1-3.5-3.5V186.677h64v29.462a3.5,3.5,0,0,1-3.5,3.5Zm60.5-35.962h-64v-7.788a3.5,3.5,0,0,1,3.5-3.5h57a3.5,3.5,0,0,1,3.5,3.5Zm35-37.538h-57a3.5,3.5,0,0,1-3.5-3.5V113.177h64v29.462A3.5,3.5,0,0,1,233.5,146.139ZM173,102.389a3.5,3.5,0,0,1,3.5-3.5h57a3.5,3.5,0,0,1,3.5,3.5v7.788H173ZM96,113.177h64v29.462a3.5,3.5,0,0,1-3.5,3.5h-57a3.5,3.5,0,0,1-3.5-3.5Zm0-10.788a3.5,3.5,0,0,1,3.5-3.5h57a3.5,3.5,0,0,1,3.5,3.5v7.788H96Zm-77,0a3.5,3.5,0,0,1,3.5-3.5h57a3.5,3.5,0,0,1,3.5,3.5v7.788H19Zm0,40.25V113.177H83v29.462a3.5,3.5,0,0,1-3.5,3.5h-57A3.5,3.5,0,0,1,19,142.639Zm19.75,56.375V149.139H79.5a6.508,6.508,0,0,0,6.5-6.5V130.014h7v12.625a6.508,6.508,0,0,0,6.5,6.5h57a6.508,6.508,0,0,0,6.5-6.5V130.014h7v12.625a6.508,6.508,0,0,0,6.5,6.5h40.75v49.875H201.5V175.889a6.508,6.508,0,0,0-6.5-6.5H138a6.508,6.508,0,0,0-6.5,6.5v23.125h-7V175.889a6.508,6.508,0,0,0-6.5-6.5H61a6.508,6.508,0,0,0-6.5,6.5v23.125ZM57.5,216.139V186.677h64v29.462a3.5,3.5,0,0,1-3.5,3.5H61A3.5,3.5,0,0,1,57.5,216.139Z" fill="#3f3679"/></svg>