<svg xmlns="http://www.w3.org/2000/svg" viewBox="0 0 256 256"><title>icons_</title><rect x="15.61" y="47.168" width="224.78" height="154.91" rx="14.009" ry="14.009" fill="#63bce7"/><path d="M25.11,188.069V61.177A14.025,14.025,0,0,1,39.119,47.168h-9.5A14.025,14.025,0,0,0,15.61,61.177V188.069a14.025,14.025,0,0,0,14.009,14.009h9.5A14.025,14.025,0,0,1,25.11,188.069Z" fill="#6377e7"/><path d="M230.89,188.069V61.177a14.025,14.025,0,0,0-14.009-14.009h9.5A14.025,14.025,0,0,1,240.39,61.177V188.069a14.025,14.025,0,0,1-14.009,14.009h-9.5A14.025,14.025,0,0,0,230.89,188.069Z" fill="#63e2e7"/><rect x="24.231" y="55.789" width="207.538" height="125.366" rx="5.388" ry="5.388" fill="#f8af23"/><path d="M33.731,175.767V61.177a5.4,5.4,0,0,1,5.388-5.388h-9.5a5.4,5.4,0,0,0-5.388,5.388v114.59a5.4,5.4,0,0,0,5.388,5.388h9.5A5.4,5.4,0,0,1,33.731,175.767Z" fill="#f87023"/><path d="M222.269,175.767V61.177a5.4,5.4,0,0,0-5.388-5.388h9.5a5.4,5.4,0,0,1,5.388,5.388v114.59a5.4,5.4,0,0,1-5.388,5.388h-9.5A5.4,5.4,0,0,0,222.269,175.767Z" fill="#f8d323"/><rect x="88.847" y="224.794" width="78.305" height="9.429" fill="#f46275"/><rect x="88.847" y="224.794" width="9.5" height="9.429" fill="#f43075"/><rect x="99.983" y="202.078" width="56.035" height="22.716" fill="#9e9e9e"/><rect x="99.983" y="202.078" width="9.5" height="22.716" fill="#707070"/><circle cx="128" cy="191.617" r="4.613" fill="#f46275"/><rect x="46.023" y="33.987" width="163.953" height="131.754" rx="6.86" ry="6.86" fill="#63bce7"/><path d="M209.977,40.843a6.877,6.877,0,0,0-6.856-6.856H52.88a6.877,6.877,0,0,0-6.856,6.856v23.71H209.977Z" fill="#f46275"/><circle cx="65.265" cy="49.27" r="6.392" fill="#f8af23"/><circle cx="84.857" cy="49.27" r="6.392" fill="#f8af23"/><circle cx="104.449" cy="49.27" r="6.392" fill="#f8af23"/><rect x="59.972" y="73.213" width="136.057" height="39.739" fill="#f8af23"/><rect x="59.972" y="120.503" width="39.112" height="20.594" fill="#9e9e9e"/><rect x="108.444" y="120.503" width="39.112" height="20.594" fill="#9e9e9e"/><rect x="156.917" y="120.503" width="39.112" height="20.594" fill="#9e9e9e"/><path d="M157.848,11.4a74.029,74.029,0,0,1-23.914,10.088,3.74,3.74,0,0,0-3,3.647V54.917a31.4,31.4,0,0,0,1.389,9.236h0A31.4,31.4,0,0,0,143.9,80.334l14.658,10.638a2.237,2.237,0,0,0,2.628,0l14.658-10.638a31.4,31.4,0,0,0,11.571-16.181h0a31.4,31.4,0,0,0,1.389-9.236V25.139a3.74,3.74,0,0,0-3-3.647A74.029,74.029,0,0,1,161.889,11.4,3.7,3.7,0,0,0,157.848,11.4Z" fill="#9e9e9e"/><path d="M170.861,33.115l-17.1,19.52-5.6-4.527a5.8,5.8,0,1,0-7.313,9l14.3,11.549,24.463-27.923a5.8,5.8,0,0,0-8.75-7.618Z" fill="#f8af23"/><path d="M128,197.729a6.113,6.113,0,1,0-6.113-6.113A6.12,6.12,0,0,0,128,197.729Zm0-9.227a3.113,3.113,0,1,1-3.113,3.113A3.117,3.117,0,0,1,128,188.5Z" fill="#3f3679"/><path d="M27.323,243.7h-18a1.5,1.5,0,1,0,0,3h18a1.5,1.5,0,0,0,0-3Z" fill="#3f3679"/><path d="M246.68,243.7h-18a1.5,1.5,0,0,0,0,3h18a1.5,1.5,0,0,0,0-3Z" fill="#3f3679"/><path d="M218.479,243.7H37.521a1.5,1.5,0,0,0,0,3H218.479a1.5,1.5,0,0,0,0-3Z" fill="#3f3679"/><path d="M9.32,235.723H246.68a1.5,1.5,0,0,0,0-3H168.652v-7.929a1.5,1.5,0,0,0-1.5-1.5h-9.635V203.578h68.863a15.526,15.526,0,0,0,15.509-15.509V61.177a15.526,15.526,0,0,0-15.509-15.509h-14.9V40.844a8.366,8.366,0,0,0-8.356-8.356H190.3V25.139a5.272,5.272,0,0,0-4.187-5.114,73.13,73.13,0,0,1-23.407-9.878,5.217,5.217,0,0,0-5.675,0h0a73.09,73.09,0,0,1-23.407,9.878,5.273,5.273,0,0,0-4.187,5.114v7.349H52.88a8.366,8.366,0,0,0-8.356,8.356v4.824h-14.9A15.526,15.526,0,0,0,14.11,61.177V188.069a15.526,15.526,0,0,0,15.508,15.509H98.482v19.716H88.847a1.5,1.5,0,0,0-1.5,1.5v7.929H9.32a1.5,1.5,0,1,0,0,3ZM131.408,66.054a32.861,32.861,0,0,0,2.655,5.659H59.972a1.5,1.5,0,0,0-1.5,1.5v39.739a1.5,1.5,0,0,0,1.5,1.5H196.028a1.5,1.5,0,0,0,1.5-1.5V73.213a1.5,1.5,0,0,0-1.5-1.5H185.674a32.876,32.876,0,0,0,2.656-5.659h20.147v92.827a5.366,5.366,0,0,1-5.36,5.359H52.883a5.366,5.366,0,0,1-5.36-5.359V66.054Zm52.23,8.659h10.89v36.739H61.472V74.713H136.1a32.875,32.875,0,0,0,6.916,6.835l14.657,10.637a3.722,3.722,0,0,0,4.391,0l14.658-10.638A32.855,32.855,0,0,0,183.638,74.713ZM44.523,64.554v94.327a8.369,8.369,0,0,0,8.36,8.359H203.116a8.369,8.369,0,0,0,8.36-8.359V57.289h14.9a3.892,3.892,0,0,1,3.888,3.888V175.768a3.892,3.892,0,0,1-3.888,3.888H29.619a3.892,3.892,0,0,1-3.888-3.888V61.177a3.892,3.892,0,0,1,3.888-3.888h14.9ZM203.116,35.487a5.366,5.366,0,0,1,5.36,5.359V63.054H189.257a32.859,32.859,0,0,0,1.043-8.137V35.487Zm-70.68-10.349a2.23,2.23,0,0,1,1.807-2.179,74.92,74.92,0,0,0,24.422-10.3,2.215,2.215,0,0,1,2.407,0,74.96,74.96,0,0,0,24.421,10.3,2.23,2.23,0,0,1,1.808,2.179V54.917a29.9,29.9,0,0,1-12.341,24.2L160.3,89.759a.736.736,0,0,1-.865,0L144.777,79.12a29.913,29.913,0,0,1-12.341-24.2Zm-3,10.349v19.43a32.839,32.839,0,0,0,1.044,8.137H47.523V40.847a5.366,5.366,0,0,1,5.36-5.359ZM17.11,188.069V61.177A12.523,12.523,0,0,1,29.619,48.668h14.9v5.621h-14.9a6.9,6.9,0,0,0-6.888,6.888V175.768a6.9,6.9,0,0,0,6.888,6.888H226.381a6.9,6.9,0,0,0,6.888-6.888V61.177a6.9,6.9,0,0,0-6.888-6.888h-14.9V48.668h14.9A12.523,12.523,0,0,1,238.89,61.177V188.069a12.523,12.523,0,0,1-12.509,12.509H29.619A12.523,12.523,0,0,1,17.11,188.069Zm84.372,15.509h53.035v19.716H101.482ZM90.347,226.294h75.305v6.429H90.347Z" fill="#3f3679"/><path d="M65.265,57.162a7.892,7.892,0,1,0-7.892-7.892A7.9,7.9,0,0,0,65.265,57.162Zm0-12.784a4.892,4.892,0,1,1-4.892,4.893A4.9,4.9,0,0,1,65.265,44.378Z" fill="#3f3679"/><path d="M84.857,57.162a7.892,7.892,0,1,0-7.892-7.892A7.9,7.9,0,0,0,84.857,57.162Zm0-12.784a4.892,4.892,0,1,1-4.892,4.893A4.9,4.9,0,0,1,84.857,44.378Z" fill="#3f3679"/><path d="M104.449,57.162a7.892,7.892,0,1,0-7.892-7.892A7.9,7.9,0,0,0,104.449,57.162Zm0-12.784a4.892,4.892,0,1,1-4.892,4.893A4.9,4.9,0,0,1,104.449,44.378Z" fill="#3f3679"/><path d="M59.972,142.6H99.083a1.5,1.5,0,0,0,1.5-1.5V120.5a1.5,1.5,0,0,0-1.5-1.5H59.972a1.5,1.5,0,0,0-1.5,1.5V141.1A1.5,1.5,0,0,0,59.972,142.6ZM61.472,122H97.583V139.6H61.472Z" fill="#3f3679"/><path d="M108.444,142.6h39.111a1.5,1.5,0,0,0,1.5-1.5V120.5a1.5,1.5,0,0,0-1.5-1.5H108.444a1.5,1.5,0,0,0-1.5,1.5V141.1A1.5,1.5,0,0,0,108.444,142.6Zm1.5-20.594h36.111V139.6H109.944Z" fill="#3f3679"/><path d="M156.917,142.6h39.111a1.5,1.5,0,0,0,1.5-1.5V120.5a1.5,1.5,0,0,0-1.5-1.5H156.917a1.5,1.5,0,0,0-1.5,1.5V141.1A1.5,1.5,0,0,0,156.917,142.6Zm1.5-20.594h36.111V139.6H158.417Z" fill="#3f3679"/><path d="M59.972,150.363H99.083a1.5,1.5,0,0,0,0-3H59.972a1.5,1.5,0,0,0,0,3Z" fill="#3f3679"/><path d="M108.444,150.363h39.111a1.5,1.5,0,0,0,0-3H108.444a1.5,1.5,0,0,0,0,3Z" fill="#3f3679"/><path d="M156.917,150.363h39.111a1.5,1.5,0,0,0,0-3H156.917a1.5,1.5,0,0,0,0,3Z" fill="#3f3679"/><path d="M59.972,158.064H99.083a1.5,1.5,0,0,0,0-3H59.972a1.5,1.5,0,0,0,0,3Z" fill="#3f3679"/><path d="M108.444,158.064h39.111a1.5,1.5,0,0,0,0-3H108.444a1.5,1.5,0,1,0,0,3Z" fill="#3f3679"/><path d="M156.917,158.064h39.111a1.5,1.5,0,0,0,0-3H156.917a1.5,1.5,0,0,0,0,3Z" fill="#3f3679"/><path d="M139.9,58.273l14.3,11.55a1.5,1.5,0,0,0,2.07-.179l24.463-27.923a7.278,7.278,0,0,0-.7-10.291,7.33,7.33,0,0,0-10.308.7l-16.15,18.437L149.1,46.94a7.326,7.326,0,0,0-10.275,1.077A7.278,7.278,0,0,0,139.9,58.273Zm1.252-8.365a4.321,4.321,0,0,1,6.062-.634l5.6,4.527a1.5,1.5,0,0,0,2.07-.179l17.1-19.521h0a4.321,4.321,0,0,1,6.081-.408,4.278,4.278,0,0,1,.412,6.051L154.97,66.584,141.787,55.939a4.276,4.276,0,0,1-.634-6.031Z" fill="#3f3679"/></svg>