<?xml version="1.0" encoding="iso-8859-1"?>
<!-- Generator: Adobe Illustrator 23.0.4, SVG Export Plug-In . SVG Version: 6.00 Build 0)  -->
<svg version="1.1" xmlns="http://www.w3.org/2000/svg" xmlns:xlink="http://www.w3.org/1999/xlink" x="0px" y="0px"
	 viewBox="0 0 64 64" style="enable-background:new 0 0 64 64;" xml:space="preserve">
<g id="front-view-02">
	<path style="fill:#646674;" d="M57.055,45.055V14.813c0-1.436-1.085-2.554-2.479-2.554H9.424c-1.386,0-2.479,1.119-2.479,2.554
		v30.243H0v0.835c0,3.222,2.629,5.852,5.852,5.852h52.297c3.23,0,5.852-2.629,5.852-5.852v-0.835H57.055z M8.615,14.813
		c0-0.501,0.351-0.885,0.81-0.885h45.151c0.467,0,0.81,0.384,0.81,0.885v30.243H38.223v1.586H25.777v-1.586H8.615V14.813z
		 M58.148,50.072H5.852c-2.02,0-3.706-1.444-4.099-3.347h22.363c0.042,0.876,0.768,1.586,1.661,1.586h12.446
		c0.893,0,1.628-0.71,1.669-1.586h22.354C61.863,48.628,60.168,50.072,58.148,50.072z"/>
	<path style="fill:#C4CBD4;" d="M62.247,46.725c-0.384,1.903-2.079,3.347-4.099,3.347H5.852c-2.02,0-3.706-1.444-4.099-3.347h22.363
		c0.042,0.876,0.768,1.586,1.661,1.586h12.446c0.893,0,1.628-0.71,1.669-1.586H62.247z"/>
	<rect x="10.234" y="15.313" style="fill:#91D6F9;" width="43.816" height="28.29"/>
	<polygon style="fill:#62C6F9;" points="10.234,15.313 54.05,43.603 54.05,15.313 	"/>
</g>
<g id="Layer_1">
</g>
</svg>
