<?xml version="1.0" encoding="iso-8859-1"?>
<!-- Generator: Adobe Illustrator 23.0.4, SVG Export Plug-In . SVG Version: 6.00 Build 0)  -->
<svg version="1.1" xmlns="http://www.w3.org/2000/svg" xmlns:xlink="http://www.w3.org/1999/xlink" x="0px" y="0px"
	 viewBox="0 0 64 64" style="enable-background:new 0 0 64 64;" xml:space="preserve">
<g id="screen-sideview">
	<path style="fill:#646674;" d="M59.529,17.123c-0.183-0.216-0.449-0.344-0.732-0.344H26.99c-0.461,0-0.855,0.327-0.938,0.777
		l-5.116,27.162h33.743l5.055-26.812C59.784,17.628,59.712,17.34,59.529,17.123z M53.758,43.608H22.273l4.844-25.719h31.49
		L53.758,43.608z M38.676,47.115v0.555h-4.589v-0.555H38.676z M41.423,47.115v0.555h-1.776v-0.555H41.423z M44.736,47.115v0.555
		h-1.859v-0.555H44.736z M63.596,15.398c-0.333-0.4-0.821-0.633-1.343-0.633H25.581c-0.838,0-1.559,0.599-1.715,1.426l-5.577,30.092
		h-5.26l-0.499-0.66H1.809C0.81,45.623,0,46.433,0,47.426c0,0.999,0.81,1.809,1.809,1.809H33.16c0.006,0,0.006,0,0.006,0h23.638
		c0.993,0,1.803-0.81,1.803-1.809c0-0.305-0.083-0.588-0.216-0.838l5.577-29.753C64.068,16.324,63.929,15.797,63.596,15.398z
		 M24.954,16.391c0.056-0.3,0.322-0.516,0.627-0.516h35.086c0.189,0,0.366,0.083,0.488,0.233c0.122,0.144,0.172,0.333,0.133,0.522
		l-5.46,28.993H19.632l-0.111,0.105L24.954,16.391z M31.501,48.125H1.809c-0.383,0-0.699-0.316-0.699-0.699s0.316-0.694,0.699-0.694
		h10.166l0.499,0.66h6.87l0.721-0.66h11.436c-0.089,0.211-0.139,0.449-0.139,0.694C31.363,47.676,31.413,47.909,31.501,48.125z
		 M56.805,48.125H33.166c-0.383,0-0.694-0.316-0.694-0.699s0.311-0.694,0.694-0.694h23.638c0.383,0,0.694,0.311,0.694,0.699
		C57.498,47.814,57.187,48.125,56.805,48.125z M57.42,45.739c-0.144-0.055-0.305-0.089-0.466-0.105l5.427-28.799
		c0.061-0.327,0.017-0.649-0.1-0.954c0.178,0.011,0.35,0.089,0.461,0.228c0.122,0.144,0.172,0.333,0.139,0.522L57.42,45.739z"/>
	<path style="fill:#C6C6C6;" d="M61.155,16.108c-0.122-0.15-0.3-0.233-0.488-0.233H25.581c-0.305,0-0.572,0.216-0.627,0.516
		l-5.432,29.337l0.111-0.105h36.196l5.46-28.993C61.327,16.441,61.277,16.252,61.155,16.108z M59.734,17.906l-5.055,26.812H20.936
		l5.116-27.162c0.083-0.449,0.477-0.777,0.938-0.777h31.807c0.283,0,0.549,0.128,0.732,0.344
		C59.712,17.34,59.784,17.628,59.734,17.906z M31.501,46.732H20.065l-0.721,0.66h-6.87l-0.499-0.66H1.809
		c-0.383,0-0.699,0.311-0.699,0.694s0.316,0.699,0.699,0.699h29.692c-0.089-0.216-0.139-0.449-0.139-0.699
		C31.363,47.182,31.413,46.943,31.501,46.732z M56.805,46.732H33.166c-0.383,0-0.694,0.311-0.694,0.694s0.311,0.699,0.694,0.699
		h23.638c0.383,0,0.694-0.311,0.694-0.694C57.498,47.043,57.187,46.732,56.805,46.732z M38.676,47.67h-4.589v-0.555h4.589V47.67z
		 M41.423,47.67h-1.776v-0.555h1.776V47.67z M44.736,47.67h-1.859v-0.555h1.859V47.67z"/>
	<polygon style="fill:#98D3ED;" points="58.608,17.889 53.758,43.608 22.273,43.608 27.118,17.889 	"/>
</g>
<g id="Layer_1">
</g>
</svg>
