<svg id="Layer_1" data-name="Layer 1" xmlns="http://www.w3.org/2000/svg" viewBox="0 0 128 128"><title>REEDS</title><rect x="53" y="11" width="22" height="67.5" rx="11" ry="11" style="fill:#ffca28"/><path d="M64,11a10.988,10.988,0,0,0-9.133,4.869A11,11,0,0,1,72,25V70.5a10.947,10.947,0,0,1-1.867,6.131A10.988,10.988,0,0,0,75,67.5V22A11,11,0,0,0,64,11Z" style="fill:#ff8f00"/><path d="M7.5,69.833h0a114.848,114.848,0,0,1,53.525,38.349L75,126.25H51L30.293,95.991A114.848,114.848,0,0,0,18.927,81.907Z" style="fill:#54b88b"/><path d="M120.5,69.833a114.848,114.848,0,0,0-53.525,38.349L64,112.029,75,126.25h2L97.707,95.991a114.843,114.843,0,0,1,11.366-14.084L120.5,69.833Z" style="fill:#54b88b"/><polygon points="66.528 108.76 64 112.029 75 126.25 77 126.25 78.435 124.153 66.528 108.76" style="fill:#4ba57d"/><path d="M64,11a11,11,0,0,1,3.25.489V5A3.25,3.25,0,0,0,64,1.75h0A3.25,3.25,0,0,0,60.75,5v6.489A11,11,0,0,1,64,11Z" style="fill:#9b6e42"/><path d="M61.025,108.182,64,112.029l2.975-3.846c.09-.116.185-.227.275-.343V78.011a11.042,11.042,0,0,1-6.5,0V107.84C60.84,107.956,60.935,108.066,61.025,108.182Z" style="fill:#9b6e42"/><rect x="27.539" y="9.073" width="17.417" height="58.307" rx="8.708" ry="8.708" style="fill:#ffca28"/><path d="M36.248,9.073a8.7,8.7,0,0,0-7.467,4.244,8.7,8.7,0,0,1,13.173,7.467v40.89a8.654,8.654,0,0,1-1.242,4.465,8.7,8.7,0,0,0,4.244-7.467V17.781A8.708,8.708,0,0,0,36.248,9.073Z" style="fill:#ff8f00"/><path d="M36.248,9.073a8.705,8.705,0,0,1,2.573.387V4.323A2.573,2.573,0,0,0,36.248,1.75h0a2.573,2.573,0,0,0-2.573,2.573V9.46A8.705,8.705,0,0,1,36.248,9.073Z" style="fill:#9b6e42"/><path d="M38.821,86.393v-19.4a8.742,8.742,0,0,1-5.146,0V82.749C35.427,83.911,37.135,85.136,38.821,86.393Z" style="fill:#9b6e42"/><rect x="83.044" y="9.073" width="17.417" height="58.307" rx="8.708" ry="8.708" transform="translate(183.505 76.453) rotate(180)" style="fill:#ffca28"/><path d="M91.752,9.073a8.7,8.7,0,0,0-7.467,4.244,8.7,8.7,0,0,1,13.173,7.467v40.89a8.654,8.654,0,0,1-1.242,4.465,8.7,8.7,0,0,0,4.244-7.467V17.781A8.708,8.708,0,0,0,91.752,9.073Z" style="fill:#ff8f00"/><path d="M91.752,9.073a8.705,8.705,0,0,0-2.573.387V4.323A2.573,2.573,0,0,1,91.752,1.75h0a2.573,2.573,0,0,1,2.573,2.573V9.46A8.705,8.705,0,0,0,91.752,9.073Z" style="fill:#9b6e42"/><path d="M89.179,86.393v-19.4a8.742,8.742,0,0,0,5.146,0V82.749C92.573,83.911,90.865,85.136,89.179,86.393Z" style="fill:#9b6e42"/><path d="M33.675,77.992v4.757c1.752,1.162,3.461,2.387,5.146,3.644v-4.97C37.138,80.232,35.418,79.094,33.675,77.992Z" style="fill:#6d4c41"/><path d="M89.179,81.423v4.97c1.685-1.257,3.394-2.481,5.146-3.644V77.992C92.582,79.094,90.862,80.232,89.179,81.423Z" style="fill:#6d4c41"/><path d="M64,112.029l2.975-3.846c.09-.116.185-.227.275-.343v-6.321c-1.107,1.3-2.2,2.626-3.25,3.981-1.054-1.356-2.143-2.677-3.25-3.982v6.321c.09.116.185.227.275.343Z" style="fill:#6d4c41"/><path d="M121.972,68.886a1.752,1.752,0,0,0-2.041-.708A116.7,116.7,0,0,0,96.075,79.543V68.183a10.465,10.465,0,0,0,6.136-9.511V17.781a10.465,10.465,0,0,0-6.136-9.512V4.323a4.323,4.323,0,1,0-8.646,0V8.269a10.465,10.465,0,0,0-6.136,9.512V58.672a10.465,10.465,0,0,0,6.136,9.511V85.5A116.405,116.405,0,0,0,69,102.931v-23.7A12.768,12.768,0,0,0,76.75,67.5V22A12.768,12.768,0,0,0,69,10.274V5A5,5,0,0,0,59,5v5.274A12.768,12.768,0,0,0,51.25,22V67.5A12.768,12.768,0,0,0,59,79.226v23.7A116.405,116.405,0,0,0,40.57,85.5V68.183a10.465,10.465,0,0,0,6.136-9.511V43.815a1.75,1.75,0,0,0-3.5,0V58.672a6.959,6.959,0,0,1-13.917,0V17.781a6.958,6.958,0,0,1,13.917,0v9.052a1.75,1.75,0,0,0,3.5,0V17.781A10.465,10.465,0,0,0,40.57,8.269V4.323a4.323,4.323,0,1,0-8.646,0V8.269a10.465,10.465,0,0,0-6.136,9.512V58.672a10.465,10.465,0,0,0,6.136,9.511V79.543A116.7,116.7,0,0,0,8.069,68.178a1.75,1.75,0,0,0-1.84,2.858L17.656,83.11A113.418,113.418,0,0,1,28.849,96.979l20.707,30.259A1.75,1.75,0,0,0,51,128H77a1.75,1.75,0,0,0,1.444-.762L91.2,108.6a1.75,1.75,0,0,0-2.889-1.977L76.077,124.5h-.218l-.866-1.12-8.78-11.352A137.585,137.585,0,0,1,79.091,97.256,112.853,112.853,0,0,1,113.958,74.2L107.8,80.7A116.918,116.918,0,0,0,96.263,95a1.75,1.75,0,0,0,2.889,1.977A113.388,113.388,0,0,1,110.344,83.11l11.427-12.074A1.751,1.751,0,0,0,121.972,68.886ZM35.425,7.355V4.323a.823.823,0,1,1,1.646,0V7.355c-.273-.021-.548-.032-.823-.032S35.7,7.333,35.425,7.355ZM62.5,9.338V5a1.5,1.5,0,0,1,3,0V9.338c-.03,0-.06,0-.089-.005a12.083,12.083,0,0,0-2.822,0C62.56,9.336,62.53,9.334,62.5,9.338ZM54.75,67.5V22a9.25,9.25,0,0,1,18.5,0V67.5a9.25,9.25,0,0,1-18.5,0ZM64,80.25a12.8,12.8,0,0,0,1.411-.083c.03,0,.06,0,.089-.005v27.067L64,109.168l-.08-.1-1.42-1.836V80.162c.03,0,.06,0,.089.005A12.8,12.8,0,0,0,64,80.25ZM35.425,69.1a10.519,10.519,0,0,0,1.646,0V82.948q-.818-.573-1.646-1.134ZM31.738,95A116.994,116.994,0,0,0,20.2,80.7l-6.156-6.5a112.865,112.865,0,0,1,18.636,9.982c.01.007.018.018.029.025,1.556,1.033,3.213,2.207,5.067,3.588a115.6,115.6,0,0,1,21.868,21.461c2.833,3.624,5.629,7.278,8.444,10.916l3.347,4.328H51.923ZM90.93,7.355V4.323a.823.823,0,1,1,1.646,0V7.355A10.5,10.5,0,0,0,90.93,7.355ZM84.794,58.672V17.781a6.958,6.958,0,0,1,13.917,0V58.672a6.959,6.959,0,0,1-13.917,0ZM90.93,69.1a10.519,10.519,0,0,0,1.646,0V81.814q-.828.559-1.646,1.134Z"/><path d="M44.956,32.732a1.75,1.75,0,0,0-1.75,1.75v1.685a1.75,1.75,0,0,0,3.5,0V34.482A1.75,1.75,0,0,0,44.956,32.732Z"/></svg>