<?xml version="1.0" encoding="utf-8"?>
<!-- Generator: Adobe Illustrator 22.1.0, SVG Export Plug-In . SVG Version: 6.00 Build 0)  -->
<svg version="1.1" id="Layer_1" xmlns="http://www.w3.org/2000/svg" xmlns:xlink="http://www.w3.org/1999/xlink" x="0px" y="0px"
	 viewBox="0 0 256 256" style="enable-background:new 0 0 256 256;" xml:space="preserve">
<style type="text/css">
	.st0{fill:#4671C6;}
	.st1{fill:#F9CFCF;}
	.st2{fill:#F9A7A7;}
	.st3{fill:#A4C9FF;}
	.st4{fill:#3762CC;}
	.st5{fill:#E0EBFC;}
	.st6{fill:#6BDDDD;}
	.st7{fill:#B9BEFC;}
	.st8{fill:#FFEA92;}
	.st9{fill:#EAA97D;}
	.st10{fill:#FFEA94;}
	.st11{fill:#FFE164;}
	.st12{fill:#FFDC85;}
	.st13{fill:#FFFFFF;}
	.st14{fill:#383838;}
</style>
<g>
	<g>
		<path class="st6" d="M126.121,89.635L14.193,153.493c-2.69,1.535-2.69,5.414,0,6.949l111.928,63.859
			c1.229,0.701,2.736,0.701,3.964,0l111.928-63.859c2.69-1.535,2.69-5.414,0-6.949L130.085,89.635
			C128.857,88.934,127.35,88.934,126.121,89.635z"/>
	</g>
	<g>
		<path class="st4" d="M128.103,226.823c-1.028,0-2.056-0.262-2.973-0.785L13.202,162.179c-1.895-1.081-3.026-3.029-3.026-5.211
			s1.131-4.13,3.027-5.211L125.13,87.897h0c1.834-1.045,4.112-1.046,5.946,0l111.929,63.859c1.895,1.081,3.026,3.029,3.026,5.211
			s-1.131,4.13-3.027,5.211l-111.928,63.859C130.16,226.562,129.131,226.823,128.103,226.823z M127.112,91.372L15.184,155.231
			c-0.911,0.519-1.009,1.388-1.009,1.737s0.098,1.218,1.008,1.737l111.929,63.859c0.611,0.349,1.37,0.349,1.982,0l111.928-63.859
			c0.911-0.519,1.009-1.388,1.009-1.737s-0.098-1.218-1.008-1.737L129.094,91.372C128.483,91.023,127.723,91.023,127.112,91.372
			L127.112,91.372z"/>
	</g>
	<g>
		<path class="st0" d="M185.828,166.472c-3.067-1.75-54.808-31.269-57.828-32.993c-3.023,1.725-54.763,31.244-57.828,32.993h0
			c0.296,0.508,0.723,0.939,1.25,1.241c49.689,28.35,38.333,21.871,53.207,30.357c1.045,0.596,2.208,0.894,3.372,0.894
			s2.327-0.298,3.372-0.894c14.873-8.486,3.518-2.007,53.207-30.357C185.106,167.411,185.533,166.98,185.828,166.472
			L185.828,166.472z"/>
	</g>
	<g>
		<path class="st5" d="M185.829,102.551L185.829,102.551c-0.297-0.509-0.725-0.941-1.254-1.243L131.469,71.01
			c-1.075-0.613-2.272-0.92-3.469-0.92v63.389l57.828,32.993c0.298-0.511,0.463-1.1,0.463-1.712v-60.495
			C186.291,103.652,186.126,103.063,185.829,102.551z"/>
	</g>
	<g>
		<path class="st3" d="M185.829,102.551L185.829,102.551c-0.297-0.509-0.725-0.941-1.254-1.243L131.469,71.01
			c-1.075-0.613-2.272-0.92-3.469-0.92v63.389l57.828,32.993c0.298-0.511,0.463-1.1,0.463-1.712v-60.495
			C186.291,103.652,186.126,103.063,185.829,102.551z"/>
	</g>
	<g>
		<path class="st3" d="M70.171,102.551L70.171,102.551c0.297-0.509,0.725-0.941,1.254-1.243l53.105-30.299
			c1.075-0.613,2.272-0.92,3.469-0.92v63.389l-57.828,32.993c-0.298-0.511-0.463-1.1-0.463-1.712v-60.495
			C69.709,103.652,69.873,103.063,70.171,102.551z"/>
	</g>
	<g>
		<path class="st4" d="M185.826,168.473c-0.336,0-0.676-0.085-0.989-0.263l-57.828-32.993c-0.624-0.356-1.009-1.019-1.009-1.737
			V70.09c0-1.104,0.896-2,2-2c1.561,0,3.103,0.409,4.459,1.183l53.106,30.298c0.825,0.471,1.513,1.153,1.991,1.974c0,0,0,0,0,0.001
			c0.48,0.825,0.734,1.765,0.734,2.719v60.495c0,0.953-0.254,1.893-0.734,2.718C187.186,168.116,186.515,168.473,185.826,168.473z
			 M130,132.318l54.291,30.975v-59.028c0-0.248-0.066-0.493-0.191-0.708c-0.124-0.213-0.303-0.39-0.517-0.512l-53.105-30.298
			c-0.155-0.088-0.314-0.168-0.478-0.24V132.318z"/>
	</g>
	<g>
		<path class="st4" d="M70.174,168.473c-0.689,0-1.359-0.356-1.73-0.995c-0.48-0.825-0.734-1.765-0.734-2.718v-60.495
			c0-0.954,0.254-1.895,0.734-2.719c0,0,0,0,0-0.001c0.478-0.82,1.167-1.503,1.991-1.974l53.105-30.298
			c1.357-0.774,2.899-1.183,4.46-1.183c1.104,0,2,0.896,2,2v63.39c0,0.718-0.385,1.381-1.009,1.737l-57.828,32.993
			C70.851,168.388,70.51,168.473,70.174,168.473z M71.9,103.557c-0.125,0.215-0.191,0.459-0.191,0.708v59.028L126,132.318V72.507
			c-0.163,0.071-0.323,0.151-0.478,0.24l-53.105,30.298C72.203,103.167,72.024,103.344,71.9,103.557L71.9,103.557z"/>
	</g>
	<g>
		<path class="st4" d="M128,200.963c-1.526,0-3.034-0.399-4.361-1.156L70.43,169.451c-0.826-0.474-1.513-1.155-1.988-1.974
			c-0.48-0.825-0.733-1.765-0.733-2.717v-60.495c0-0.954,0.254-1.895,0.734-2.719c0.552-0.95,1.764-1.276,2.72-0.731l57.829,32.993
			c0.624,0.356,1.009,1.019,1.009,1.737v63.419C130,200.068,129.104,200.963,128,200.963z M71.709,105.731v59.029
			c0,0.247,0.066,0.491,0.191,0.707c0.124,0.213,0.301,0.389,0.516,0.512l53.204,30.354c0.124,0.071,0.251,0.136,0.38,0.195v-59.821
			L71.709,105.731z"/>
	</g>
	<g>
		<path class="st4" d="M128,200.963c-1.104,0-2-0.896-2-2v-63.419c0-0.718,0.385-1.381,1.009-1.737l57.829-32.993
			c0.953-0.544,2.168-0.218,2.72,0.731c0.48,0.825,0.734,1.765,0.734,2.719v60.495c0,0.953-0.254,1.893-0.734,2.719
			c-0.474,0.816-1.16,1.498-1.983,1.97l-53.21,30.358C131.034,200.564,129.526,200.963,128,200.963z M130,136.706v59.821
			c0.13-0.059,0.257-0.125,0.382-0.195l53.206-30.356c0.211-0.121,0.389-0.297,0.512-0.509c0.125-0.216,0.191-0.46,0.191-0.708
			v-59.029L130,136.706z"/>
	</g>
	<g>
		<path class="st2" d="M139.937,46.362l-8.404-13.103c-1.42-2.606-5.218-2.88-6.9-0.259l-8.569,13.361
			c-1.192,1.86-0.652,4.334,1.208,5.527c1.862,1.193,4.335,0.652,5.527-1.208l1.236-1.928v53.423c0,2.209,1.791,4,4,4
			c2.209,0,4-1.791,4-4V48.86c1.094,1.705,1.965,3.662,4.539,3.662C139.709,52.522,141.649,49.033,139.937,46.362z"/>
	</g>
	<g>
		<path class="st2" d="M199.984,188.42c-2.108,0-3.873-1.649-3.991-3.78c-0.121-2.206,1.568-4.092,3.774-4.214l2.292-0.126
			l-40.996-23.39c-1.918-1.095-2.586-3.538-1.492-5.457c1.095-1.917,3.538-2.587,5.457-1.492l40.589,23.157l-0.681-1.255
			c-2.54-4.685,4.531-8.426,7.032-3.814c0.001,0.001,7.375,13.597,7.375,13.598c0,0,0,0.001,0.001,0.001
			c0.002,0.004,0.004,0.009,0.007,0.013c0,0,0,0,0,0c0.525,0.982,0.575,1.964,0.332,2.936l0,0c-0.159,0.583-0.45,1.134-0.867,1.604
			c0,0,0,0.001-0.001,0.001c0.187,0-1.381,1.221-2.004,1.221c-0.495,0.165-16.084,0.962-16.605,0.99
			C200.133,188.418,200.058,188.42,199.984,188.42z"/>
	</g>
	<g>
		<path class="st2" d="M55.792,188.467c-16.964-0.934-17.124-0.554-18.591-2.191c-0.239-0.119-0.896-1.201-1.005-2.266
			c0,0-0.179-1.116,0.451-2.295c0,0,0,0,0,0c0.001-0.002,0.002-0.004,0.003-0.007l0,0c0.001-0.002,0.002-0.004,0.003-0.006
			c0,0,0.001-0.001,0.001-0.001c0-0.001,7.374-13.597,7.375-13.598c1.054-1.942,3.481-2.661,5.423-1.609
			c1.942,1.054,2.662,3.481,1.609,5.423l-0.681,1.256l40.589-23.157c1.919-1.096,4.362-0.426,5.457,1.492
			c1.095,1.919,0.427,4.362-1.492,5.457L53.94,180.353l2.292,0.126c2.206,0.122,3.896,2.008,3.774,4.214
			C59.886,186.871,58.032,188.584,55.792,188.467z"/>
	</g>
</g>
</svg>
