<?xml version="1.0" encoding="utf-8"?>
<!-- Generator: Adobe Illustrator 22.1.0, SVG Export Plug-In . SVG Version: 6.00 Build 0)  -->
<svg version="1.1" id="Layer_1" xmlns="http://www.w3.org/2000/svg" xmlns:xlink="http://www.w3.org/1999/xlink" x="0px" y="0px"
	 viewBox="0 0 256 256" style="enable-background:new 0 0 256 256;" xml:space="preserve">
<style type="text/css">
	.st0{fill:#4671C6;}
	.st1{fill:#F9CFCF;}
	.st2{fill:#F9A7A7;}
	.st3{fill:#A4C9FF;}
	.st4{fill:#3762CC;}
	.st5{fill:#E0EBFC;}
	.st6{fill:#6BDDDD;}
	.st7{fill:#B9BEFC;}
	.st8{fill:#FFEA92;}
	.st9{fill:#EAA97D;}
	.st10{fill:#FFEA94;}
	.st11{fill:#FFE164;}
	.st12{fill:#FFDC85;}
	.st13{fill:#FFFFFF;}
	.st14{fill:#383838;}
</style>
<g>
	<g>
		<path class="st3" d="M229.742,248.968H22.258c-6.841,0-12.387-5.546-12.387-12.387V54.903c0-6.841,5.546-12.387,12.387-12.387
			h207.484c6.841,0,12.387,5.546,12.387,12.387v181.677C242.129,243.422,236.583,248.968,229.742,248.968z"/>
	</g>
	<g>
		<path class="st2" d="M30.516,222.129V69.355c0-3.421,2.773-6.194,6.194-6.194H215.29c3.421,0,6.194,2.773,6.194,6.194v152.774
			c0,3.421-2.773,6.194-6.194,6.194H36.71C33.289,228.323,30.516,225.55,30.516,222.129z"/>
	</g>
	<g>
		<rect x="30.516" y="100.323" class="st5" width="190.968" height="7.226"/>
	</g>
	<g>
		<path class="st0" d="M42.731,117.527H30.516V90.344h12.215c2.28,0,4.129,1.849,4.129,4.129v18.925
			C46.86,115.678,45.012,117.527,42.731,117.527z"/>
	</g>
	<g>
		<path class="st0" d="M221.484,117.527h-12.215c-2.28,0-4.129-1.849-4.129-4.129V94.473c0-2.28,1.849-4.129,4.129-4.129h12.215
			V117.527z"/>
	</g>
	<g>
		<path class="st4" d="M229.742,250.968H22.258c-7.933,0-14.387-6.454-14.387-14.387V54.903c0-7.933,6.454-14.387,14.387-14.387
			h207.484c7.933,0,14.387,6.454,14.387,14.387v181.677C244.129,244.514,237.675,250.968,229.742,250.968z M22.258,44.516
			c-5.728,0-10.387,4.66-10.387,10.387v181.677c0,5.728,4.659,10.387,10.387,10.387h207.484c5.728,0,10.387-4.66,10.387-10.387
			V54.903c0-5.728-4.659-10.387-10.387-10.387H22.258z"/>
	</g>
	<g>
		<path class="st4" d="M215.29,230.323H36.71c-4.518,0-8.193-3.676-8.193-8.194V69.355c0-4.518,3.676-8.194,8.193-8.194h178.58
			c4.519,0,8.194,3.676,8.194,8.194v152.774C223.484,226.647,219.809,230.323,215.29,230.323z M36.71,65.161
			c-2.313,0-4.193,1.881-4.193,4.194v152.774c0,2.313,1.881,4.194,4.193,4.194h178.58c2.313,0,4.194-1.881,4.194-4.194V69.355
			c0-2.313-1.882-4.194-4.194-4.194H36.71z"/>
	</g>
	<g>
		<path class="st4" d="M42.731,119.527H30.517c-1.104,0-2-0.896-2-2V90.344c0-1.104,0.896-2,2-2h12.215
			c3.38,0,6.129,2.75,6.129,6.129v18.925C48.86,116.777,46.111,119.527,42.731,119.527z M32.517,115.527h10.215
			c1.174,0,2.129-0.955,2.129-2.129V94.473c0-1.174-0.955-2.129-2.129-2.129H32.517V115.527z"/>
	</g>
	<g>
		<path class="st4" d="M221.484,119.527h-12.216c-3.38,0-6.129-2.75-6.129-6.129V94.473c0-3.379,2.749-6.129,6.129-6.129h12.216
			c1.104,0,2,0.896,2,2v27.183C223.484,118.631,222.589,119.527,221.484,119.527z M209.269,92.344c-1.174,0-2.129,0.955-2.129,2.129
			v18.925c0,1.174,0.955,2.129,2.129,2.129h10.216V92.344H209.269z"/>
	</g>
	<g>
		<path class="st1" d="M242.129,22h-41.107c-1.921,0-3.483-1.563-3.483-3.484c0-6.332-5.152-11.484-11.484-11.484h-55.215
			c-4.874,0-8.839,4.11-8.839,9.161V26h8v-9.807c0-0.684,0.442-1.161,0.839-1.161h55.215c1.921,0,3.484,1.563,3.484,3.484
			c0,6.332,5.151,11.484,11.483,11.484h41.107c2.209,0,4-1.791,4-4S244.338,22,242.129,22z"/>
	</g>
	<g>
		<path class="st0" d="M149.226,117.527h-46.452c-1.71,0-3.097-1.386-3.097-3.097V63.161h52.645v51.269
			C152.323,116.14,150.936,117.527,149.226,117.527z"/>
	</g>
	<g>
		<path class="st6" d="M139.649,89.273h-27.298c-1.14,0-2.065-0.924-2.065-2.065V75.853c0-1.14,0.924-2.065,2.065-2.065h27.298
			c1.14,0,2.065,0.924,2.065,2.065v11.355C141.714,88.348,140.789,89.273,139.649,89.273z"/>
	</g>
	<g>
		<path class="st0" d="M152.323,42.516H99.678V32.194c0-3.421,2.773-6.194,6.194-6.194h40.258c3.421,0,6.194,2.773,6.194,6.194
			V42.516z"/>
	</g>
	<g>
		<path class="st4" d="M149.226,119.527h-46.451c-2.811,0-5.097-2.286-5.097-5.097V63.161c0-1.104,0.896-2,2-2h52.645
			c1.104,0,2,0.896,2,2v51.269C154.322,117.241,152.036,119.527,149.226,119.527z M101.678,65.161v49.269
			c0,0.604,0.492,1.097,1.097,1.097h46.451c0.604,0,1.097-0.492,1.097-1.097V65.161H101.678z"/>
	</g>
	<g>
		<path class="st4" d="M139.649,91.272h-27.298c-2.241,0-4.065-1.823-4.065-4.064V75.854c0-2.241,1.824-4.065,4.065-4.065h27.298
			c2.241,0,4.064,1.824,4.064,4.065v11.354C143.714,89.449,141.891,91.272,139.649,91.272z M112.352,75.789l-0.065,11.419
			l27.363,0.064c0.035,0,0.064-0.029,0.064-0.064V75.854L112.352,75.789z"/>
	</g>
	<g>
		<path class="st4" d="M152.322,44.516H99.678c-1.104,0-2-0.896-2-2V32.193c0-4.518,3.676-8.193,8.193-8.193h40.258
			c4.518,0,8.193,3.675,8.193,8.193v10.323C154.322,43.621,153.427,44.516,152.322,44.516z M101.678,40.516h48.645v-8.323
			c0-2.312-1.881-4.193-4.193-4.193h-40.258c-2.313,0-4.193,1.881-4.193,4.193V40.516z"/>
	</g>
	<g>
		<path class="st5" d="M158.683,173.327l-28.31,13.214h0L126,188.582l-3.983-1.859l0,0L98.87,175.918l22.795-10.639
			c8.38-3.91,7.335-12.385,7.335-15.408c0-3.969-6-3.964-6,0c0,3.595,0.61,7.878-3.872,9.972l-27.615,12.889
			c-0.766,0.359-1.421,0.898-1.895,1.559c-0.004,0.006-0.009,0.01-0.013,0.016c-0.541,0.761-0.827,1.646-0.827,2.563v29.056
			c0,1.764,1.084,3.364,2.737,4.137l31.238,14.581c2.007,0.936,4.484,0.945,6.495-0.001l18.017-8.409l13.225-6.172
			c1.653-0.775,2.733-2.369,2.733-4.136v-29.056C163.223,174.185,160.936,172.276,158.683,173.327z M94.777,180.629l23.067,10.767
			l-23.067,10.766V180.629z M123,218.136l-24.13-11.263L123,195.611V218.136z M144.168,211.056L129,218.135v-22.525l24.13,11.262
			L144.168,211.056z M157.223,202.163l-23.067-10.766l23.067-10.767V202.163z"/>
	</g>
	<g>
		<path class="st5" d="M122.713,146.584v-14.605h6.575v14.605C129.287,150.956,122.713,150.963,122.713,146.584z"/>
	</g>
	<g>
		<path class="st4" d="M125.998,151.866c-1.351,0-2.625-0.471-3.587-1.325c-1.095-0.973-1.698-2.378-1.698-3.958v-14.605
			c0-1.104,0.896-2,2-2h6.574c1.104,0,2,0.896,2,2v14.605C131.287,150.014,128.563,151.866,125.998,151.866z M124.713,133.979
			v12.605c0,1.157,0.898,1.282,1.285,1.282c0.388,0,1.289-0.125,1.289-1.282v-12.605H124.713z"/>
	</g>
	<g>
		<path class="st6" d="M107.088,117.527L107.088,117.527c0,5.661,2.598,11.008,7.049,14.507l6.496,5.106c3.884,0,6.85,0,10.734,0
			l6.496-5.106c4.451-3.498,7.049-8.846,7.049-14.507v0C131.225,117.527,120.775,117.527,107.088,117.527z"/>
	</g>
	<g>
		<path class="st4" d="M131.367,139.14h-10.734c-0.448,0-0.884-0.15-1.236-0.428l-6.496-5.106
			c-4.965-3.903-7.813-9.764-7.813-16.079c0-1.104,0.896-2,2-2h37.825c1.104,0,2,0.896,2,2c0,6.315-2.848,12.176-7.813,16.079
			l-6.496,5.106C132.251,138.989,131.815,139.14,131.367,139.14z M121.325,135.14h9.35l5.952-4.678
			c3.465-2.723,5.648-6.631,6.167-10.935h-33.587c0.519,4.303,2.701,8.211,6.166,10.935L121.325,135.14z"/>
	</g>
</g>
</svg>
