<?xml version="1.0" encoding="utf-8"?>
<!-- Generator: Adobe Illustrator 22.1.0, SVG Export Plug-In . SVG Version: 6.00 Build 0)  -->
<svg version="1.1" id="Layer_1" xmlns="http://www.w3.org/2000/svg" xmlns:xlink="http://www.w3.org/1999/xlink" x="0px" y="0px"
	 viewBox="0 0 256 256" style="enable-background:new 0 0 256 256;" xml:space="preserve">
<style type="text/css">
	.st0{fill:#4671C6;}
	.st1{fill:#F9CFCF;}
	.st2{fill:#F9A7A7;}
	.st3{fill:#A4C9FF;}
	.st4{fill:#3762CC;}
	.st5{fill:#E0EBFC;}
	.st6{fill:#6BDDDD;}
	.st7{fill:#B9BEFC;}
	.st8{fill:#FFEA92;}
	.st9{fill:#EAA97D;}
	.st10{fill:#FFEA94;}
	.st11{fill:#FFE164;}
	.st12{fill:#FFDC85;}
	.st13{fill:#FFFFFF;}
	.st14{fill:#383838;}
</style>
<g>
	<g>
		<path class="st6" d="M236.383,68.084L133.737,9.522c-3.556-2.029-7.918-2.029-11.474,0L73.809,37.166l39.474,22.521
			c1.047-2.72,2.998-5.152,5.867-6.79c5.474-3.123,12.19-3.123,17.664,0c8.143,4.646,8.923,15.667,2.389,21.578l42.989,24.526
			l17.635-10.061l0,0l-0.125,7.59c-0.085,5.211,5.525,8.606,10.063,6.044c5.121-2.892,8.325-8.278,8.426-14.153l0.173-10.057h-0.001
			L236.383,68.084z"/>
	</g>
	<g>
		<path class="st0" d="M75.336,143.403c-0.511-0.104-1.019-0.159-1.527-0.214V99.002l-7.844-4.475l0,0.001l-9.791-5.586l0.125,7.59
			c0.085,5.211-5.525,8.606-10.063,6.044c-5.121-2.892-8.325-8.278-8.426-14.153l-0.173-10.057l-18.019-10.28v113.108
			c0,4.157,2.229,7.995,5.84,10.056l48.351,27.586v-43.24c6.882-0.73,12.799-5.82,14.253-12.961
			C89.857,153.808,84.16,145.199,75.336,143.403z"/>
	</g>
	<g>
		<path class="st0" d="M96.268,24.352l4.733,2.451c5.096,2.639,11.189,2.482,16.142-0.415l0,0c3.211-1.878,3.1-6.557-0.197-8.28
			l-5.155-2.695L96.268,24.352z"/>
	</g>
	<g>
		<path class="st2" d="M128,248v-118.08L73.808,99.002v44.187c0.508,0.054,1.017,0.11,1.527,0.214
			c8.824,1.796,14.521,10.405,12.725,19.229c-1.453,7.142-7.371,12.232-14.253,12.961v43.24l48.455,27.645
			C124.041,247.493,126.02,248,128,248z"/>
	</g>
	<g>
		<path class="st2" d="M180.664,143.403c0.511-0.104,1.019-0.159,1.527-0.214V99.002l7.844-4.475l0,0.001l9.791-5.586l-0.124,7.59
			c-0.085,5.211,5.525,8.606,10.063,6.044c5.121-2.892,8.325-8.278,8.426-14.153l0.173-10.057l18.019-10.28v113.108
			c0,4.157-2.229,7.995-5.84,10.056l-48.351,27.586v-43.24c-6.882-0.73-12.799-5.82-14.253-12.961
			C166.143,153.808,171.84,145.199,180.664,143.403z"/>
	</g>
	<g>
		<path class="st6" d="M180.664,143.403c0.511-0.104,1.019-0.159,1.527-0.213V99.003l-17.71,10.104h0v0h0l-9.155-5.183
			c-5.085-2.879-11.311-2.869-16.386,0.027c-4.567,2.606-4.559,9.193,0.015,11.788l6.972,3.955h0L128,129.921V248
			c1.979,0,3.957-0.507,5.735-1.52l48.457-27.646v-43.24c-6.882-0.73-12.799-5.82-14.253-12.961
			C166.143,153.808,171.84,145.199,180.664,143.403z"/>
	</g>
	<g>
		<path class="st3" d="M139.202,74.476c6.534-5.91,5.754-16.932-2.389-21.578c-5.474-3.123-12.19-3.123-17.664,0l0,0
			c-2.869,1.637-4.819,4.07-5.867,6.79L73.809,37.166L19.617,68.085l18.019,10.28h0l0.173,10.057
			c0.101,5.875,3.304,11.261,8.426,14.153c4.538,2.563,10.149-0.833,10.063-6.044l-0.125-7.59l0,0L128,129.92l17.927-10.228
			l-6.972-3.955c-4.574-2.594-4.582-9.181-0.015-11.787c5.076-2.896,11.301-2.906,16.386-0.027l9.156,5.183l17.711-10.104
			L139.202,74.476z"/>
	</g>
	<g>
		<path class="st4" d="M206.479,105.452c-1.536,0-3.073-0.416-4.468-1.245c-2.75-1.636-4.36-4.518-4.309-7.708l0.067-4.081
			l-14.587,8.321c-0.615,0.35-1.367,0.35-1.982,0l-42.989-24.526c-0.557-0.318-0.928-0.884-0.997-1.521
			c-0.069-0.638,0.171-1.27,0.646-1.7c2.683-2.426,4.046-6.06,3.647-9.72c-0.398-3.655-2.471-6.803-5.686-8.637
			c-4.836-2.76-10.846-2.758-15.682,0c-2.321,1.324-4.048,3.319-4.992,5.771c-0.21,0.544-0.646,0.97-1.195,1.165
			c-0.549,0.195-1.155,0.142-1.662-0.146L72.817,38.903c-0.624-0.356-1.009-1.02-1.009-1.737s0.385-1.381,1.009-1.737l48.454-27.645
			c4.15-2.368,9.307-2.366,13.457,0l102.646,58.563c0.624,0.356,1.009,1.02,1.009,1.737s-0.385,1.381-1.009,1.737l-17.03,9.717
			l-0.152,8.918c-0.113,6.559-3.731,12.636-9.442,15.86C209.408,105.074,207.943,105.452,206.479,105.452z M199.826,86.941
			c0.353,0,0.705,0.093,1.019,0.278c0.618,0.366,0.993,1.036,0.981,1.754l-0.124,7.59c-0.028,1.74,0.852,3.313,2.354,4.205
			c1.476,0.88,3.243,0.902,4.727,0.065c4.481-2.53,7.32-7.3,7.409-12.446l0.173-10.057c0.013-0.706,0.396-1.354,1.009-1.703
			l14.974-8.544l-99.601-56.825c-2.929-1.671-6.565-1.669-9.492,0L77.845,37.166l34.559,19.717c1.35-2.372,3.308-4.325,5.755-5.722
			c6.058-3.457,13.585-3.457,19.646,0c4.342,2.478,7.141,6.733,7.68,11.678c0.438,4.02-0.709,8.021-3.113,11.142l39.82,22.719
			l16.644-9.495C199.143,87.029,199.484,86.941,199.826,86.941z"/>
	</g>
	<g>
		<path class="st4" d="M73.809,220.834c-0.342,0-0.684-0.088-0.991-0.263l-48.352-27.586c-4.225-2.41-6.849-6.93-6.849-11.793
			V68.085c0-0.713,0.379-1.371,0.995-1.729c0.616-0.359,1.376-0.36,1.996-0.008l18.019,10.28c0.613,0.35,0.996,0.997,1.009,1.703
			l0.173,10.057c0.088,5.146,2.927,9.915,7.409,12.446c1.484,0.837,3.252,0.813,4.727-0.065c1.502-0.893,2.382-2.465,2.354-4.205
			l-0.125-7.589c-0.012-0.719,0.363-1.389,0.981-1.754c0.617-0.368,1.385-0.372,2.01-0.017L74.8,97.265
			c0.624,0.355,1.009,1.019,1.009,1.737v42.457c9.849,2.046,16.221,11.706,14.213,21.571c-1.479,7.261-7.081,12.806-14.213,14.274
			v41.529c0,0.713-0.379,1.371-0.995,1.729C74.503,220.744,74.155,220.834,73.809,220.834z M21.617,71.528v109.664
			c0,3.431,1.852,6.618,4.831,8.318l45.36,25.88v-39.797c0-1.022,0.771-1.881,1.789-1.989c6.229-0.661,11.254-5.23,12.504-11.372
			c1.573-7.729-3.436-15.296-11.164-16.869c-0.001,0-0.002,0-0.002-0.001c-0.417-0.085-0.864-0.133-1.338-0.184
			c-1.016-0.109-1.789-0.968-1.789-1.989v-43.026L58.23,92.418l0.067,4.08c0.052,3.191-1.559,6.073-4.309,7.709
			c-2.725,1.619-5.992,1.661-8.738,0.109c-5.712-3.225-9.33-9.303-9.442-15.86l-0.153-8.918L21.617,71.528z"/>
	</g>
	<g>
		<path class="st4" d="M108.701,30.691c-2.945,0-5.896-0.702-8.619-2.111l-4.733-2.451c-0.649-0.337-1.063-1.001-1.079-1.731
			c-0.017-0.731,0.367-1.413,1.001-1.778l15.523-8.939c0.593-0.342,1.317-0.357,1.925-0.039l5.155,2.695
			c2.202,1.151,3.553,3.322,3.611,5.807c0.06,2.484-1.187,4.717-3.332,5.973C115.223,29.83,111.965,30.691,108.701,30.691z
			 M100.438,24.26l1.483,0.768c4.514,2.339,9.826,2.2,14.212-0.365c0.871-0.51,1.377-1.416,1.353-2.425
			c-0.023-1.008-0.571-1.889-1.466-2.356l-4.182-2.187L100.438,24.26z"/>
	</g>
	<g>
		<path class="st4" d="M128,250c-2.355,0-4.683-0.617-6.729-1.784l-48.454-27.645c-0.624-0.356-1.009-1.02-1.009-1.737v-43.24
			c0-1.022,0.771-1.881,1.789-1.989c6.229-0.661,11.254-5.23,12.504-11.372c1.573-7.729-3.436-15.296-11.164-16.869
			c-0.419-0.086-0.866-0.134-1.34-0.185c-1.016-0.109-1.789-0.968-1.789-1.989V99.002c0-0.713,0.379-1.371,0.995-1.729
			c0.616-0.359,1.376-0.36,1.996-0.008l54.191,30.919c0.624,0.356,1.009,1.02,1.009,1.737V248C130,249.104,129.104,250,128,250z
			 M75.809,217.673l47.445,27.068c0.857,0.489,1.785,0.842,2.746,1.047V131.082l-50.191-28.637v39.014
			c9.848,2.045,16.221,11.706,14.213,21.571c-1.479,7.261-7.081,12.806-14.213,14.274V217.673z"/>
	</g>
	<g>
		<path class="st4" d="M182.191,220.834c-0.347,0-0.694-0.09-1.005-0.271c-0.616-0.358-0.995-1.017-0.995-1.729v-41.529
			c-7.132-1.469-12.734-7.014-14.213-14.273c-2.008-9.866,4.364-19.526,14.213-21.572V99.002c0-0.718,0.385-1.381,1.009-1.737
			l17.636-10.061c0.626-0.354,1.394-0.351,2.01,0.017c0.618,0.365,0.993,1.035,0.981,1.754l-0.125,7.59
			c-0.028,1.739,0.852,3.312,2.354,4.204c1.475,0.88,3.242,0.902,4.727,0.065c4.481-2.53,7.32-7.3,7.409-12.446l0.173-10.057
			c0.013-0.706,0.396-1.354,1.009-1.703l18.019-10.28c0.619-0.353,1.379-0.352,1.996,0.008c0.616,0.358,0.995,1.017,0.995,1.729
			v113.107c0,4.863-2.624,9.383-6.849,11.793l-48.352,27.586C182.875,220.746,182.533,220.834,182.191,220.834z M184.191,100.164
			v43.025c0,1.021-0.771,1.879-1.786,1.988c-0.477,0.052-0.924,0.1-1.341,0.185c0,0.001-0.001,0.001-0.002,0.001
			c-3.744,0.762-6.967,2.937-9.076,6.122c-2.108,3.187-2.85,7.003-2.088,10.748c1.25,6.141,6.275,10.71,12.504,11.371
			c1.018,0.108,1.789,0.967,1.789,1.989v39.797l45.36-25.88c2.979-1.7,4.831-4.888,4.831-8.318V71.528l-14.038,8.01l-0.153,8.918
			c-0.113,6.559-3.731,12.636-9.442,15.86c-2.748,1.554-6.016,1.51-8.738-0.109c-2.75-1.636-4.36-4.518-4.309-7.708l0.067-4.081
			L184.191,100.164z M180.664,143.403h0.01H180.664z"/>
	</g>
	<g>
		<path class="st4" d="M128,250c-1.104,0-2-0.896-2-2V129.921c0-0.718,0.385-1.381,1.009-1.737l14.873-8.485l-3.914-2.221
			c-2.782-1.577-4.445-4.428-4.449-7.625c-0.004-3.198,1.652-6.054,4.43-7.639c5.659-3.228,12.695-3.239,18.362-0.03l8.166,4.622
			l16.724-9.54c0.619-0.353,1.379-0.352,1.996,0.008c0.616,0.358,0.995,1.017,0.995,1.729v44.187c0,1.021-0.771,1.879-1.786,1.988
			c-0.477,0.052-0.924,0.1-1.341,0.185c0,0.001-0.001,0.001-0.002,0.001c-3.744,0.762-6.968,2.937-9.076,6.122
			c-2.108,3.187-2.85,7.003-2.088,10.748c1.25,6.141,6.275,10.71,12.504,11.371c1.018,0.108,1.789,0.967,1.789,1.989v43.24
			c0,0.718-0.385,1.381-1.009,1.737l-48.457,27.646C132.679,249.384,130.354,250,128,250z M130,131.082v114.706
			c0.96-0.205,1.887-0.557,2.744-1.045l47.447-27.07v-40.368c-7.132-1.469-12.734-7.014-14.213-14.273
			c-0.975-4.792-0.026-9.676,2.673-13.753c2.684-4.057,6.78-6.831,11.54-7.819v-39.013l-14.719,8.398
			c-0.613,0.349-1.363,0.35-1.977,0.003l-9.156-5.184c-4.449-2.519-9.972-2.511-14.409,0.024c-1.513,0.862-2.414,2.417-2.412,4.158
			s0.908,3.293,2.422,4.151l6.973,3.956c0.626,0.354,1.013,1.018,1.014,1.736c0.001,0.72-0.385,1.384-1.009,1.74L130,131.082z
			 M180.664,143.403h0.01H180.664z"/>
	</g>
	<g>
		<path class="st4" d="M128,131.921c-0.342,0-0.684-0.088-0.991-0.263L58.23,92.418l0.067,4.08c0.052,3.192-1.559,6.073-4.309,7.709
			c-2.725,1.619-5.992,1.661-8.738,0.109c-5.712-3.225-9.33-9.303-9.442-15.86l-0.153-8.918l-17.029-9.716
			c-0.624-0.356-1.009-1.02-1.009-1.737s0.385-1.381,1.009-1.737l54.191-30.919c0.615-0.35,1.367-0.35,1.982,0l37.604,21.454
			c1.35-2.372,3.308-4.325,5.755-5.722c6.058-3.457,13.585-3.457,19.646,0c4.342,2.478,7.141,6.733,7.68,11.678
			c0.438,4.02-0.709,8.021-3.113,11.142l40.812,23.284c0.624,0.356,1.009,1.02,1.009,1.737s-0.385,1.381-1.009,1.737l-17.711,10.104
			c-0.613,0.349-1.363,0.35-1.977,0.003l-9.155-5.183c-4.449-2.519-9.972-2.511-14.409,0.024c-1.513,0.862-2.414,2.417-2.412,4.158
			s0.908,3.293,2.422,4.151l6.973,3.956c0.626,0.354,1.013,1.018,1.014,1.736c0.001,0.72-0.385,1.384-1.009,1.74l-17.927,10.228
			C128.684,131.833,128.342,131.921,128,131.921z M56.173,86.941c0.342,0,0.684,0.088,0.991,0.263L128,127.618l13.882-7.92
			l-3.914-2.221c-2.782-1.577-4.445-4.428-4.449-7.625c-0.004-3.198,1.652-6.054,4.43-7.639c5.659-3.228,12.695-3.239,18.362-0.03
			l8.166,4.622l13.679-7.804l-39.944-22.789c-0.557-0.318-0.928-0.884-0.997-1.521c-0.069-0.638,0.171-1.27,0.646-1.7
			c2.683-2.426,4.046-6.06,3.647-9.72c-0.398-3.655-2.471-6.803-5.686-8.637c-4.836-2.76-10.846-2.758-15.682,0
			c-2.321,1.324-4.048,3.319-4.992,5.771c-0.21,0.544-0.646,0.97-1.195,1.165c-0.549,0.195-1.155,0.142-1.662-0.146L73.809,39.469
			L23.653,68.085l14.974,8.543c0.613,0.35,0.996,0.997,1.009,1.703l0.173,10.057c0.088,5.146,2.927,9.915,7.409,12.446
			c1.483,0.836,3.251,0.813,4.727-0.065c1.502-0.893,2.382-2.465,2.354-4.205l-0.125-7.589c-0.012-0.719,0.363-1.389,0.981-1.754
			C55.468,87.034,55.82,86.941,56.173,86.941z"/>
	</g>
</g>
</svg>
