<?xml version="1.0" encoding="utf-8"?>
<!-- Generator: Adobe Illustrator 22.1.0, SVG Export Plug-In . SVG Version: 6.00 Build 0)  -->
<svg version="1.1" id="Layer_1" xmlns="http://www.w3.org/2000/svg" xmlns:xlink="http://www.w3.org/1999/xlink" x="0px" y="0px"
	 viewBox="0 0 256 256" style="enable-background:new 0 0 256 256;" xml:space="preserve">
<style type="text/css">
	.st0{fill:#4671C6;}
	.st1{fill:#F9CFCF;}
	.st2{fill:#F9A7A7;}
	.st3{fill:#A4C9FF;}
	.st4{fill:#3762CC;}
	.st5{fill:#E0EBFC;}
	.st6{fill:#6BDDDD;}
	.st7{fill:#B9BEFC;}
	.st8{fill:#FFEA92;}
	.st9{fill:#EAA97D;}
	.st10{fill:#FFEA94;}
	.st11{fill:#FFE164;}
	.st12{fill:#FFDC85;}
	.st13{fill:#FFFFFF;}
	.st14{fill:#383838;}
</style>
<g>
	<g>
		<path class="st5" d="M58.331,167.676l-34.834-19.909l-0.022,37.431c-0.001,1.795,0.96,3.453,2.519,4.344l32.313,18.465
			L58.331,167.676z"/>
	</g>
	<g>
		<polygon class="st2" points="58.308,127.54 23.497,107.644 23.497,147.767 58.331,167.676 		"/>
	</g>
	<g>
		<polygon class="st2" points="58.331,167.676 93.166,187.585 93.142,227.89 58.308,208.007 		"/>
	</g>
	<g>
		<polygon class="st0" points="93.142,147.449 58.308,127.54 58.331,167.676 93.166,187.585 		"/>
	</g>
	<g>
		<polygon class="st6" points="93.142,107.33 58.308,87.467 58.308,127.54 93.142,147.449 		"/>
	</g>
	<g>
		<polygon class="st5" points="127.976,167.336 93.142,147.426 93.166,187.562 128,207.472 		"/>
	</g>
	<g>
		<polygon class="st2" points="127.976,127.216 93.142,107.353 93.142,147.426 127.976,167.336 		"/>
	</g>
	<g>
		<path class="st6" d="M197.657,167.676l34.834-19.909l0.022,37.431c0.001,1.795-0.96,3.453-2.519,4.344l-32.313,18.465
			L197.657,167.676z"/>
	</g>
	<g>
		<polygon class="st5" points="197.681,127.54 232.491,107.644 232.491,147.767 197.657,167.676 		"/>
	</g>
	<g>
		<polygon class="st2" points="197.657,167.676 162.823,187.585 162.846,227.89 197.68,208.007 		"/>
	</g>
	<g>
		<polygon class="st0" points="162.846,147.449 197.681,127.54 197.657,167.676 162.823,187.585 		"/>
	</g>
	<g>
		<polygon class="st2" points="162.846,107.33 197.681,87.467 197.681,127.54 162.846,147.449 		"/>
	</g>
	<g>
		<polygon class="st3" points="128.012,167.336 162.846,147.426 162.823,187.562 127.988,207.472 		"/>
	</g>
	<g>
		<polygon class="st6" points="128.012,127.216 162.846,107.353 162.846,147.426 128.012,167.336 		"/>
	</g>
	<g>
		<path class="st2" d="M124.047,245.516c1.219,0.695,2.576,1.043,3.933,1.048l0.008-39.092l-34.822-19.909l-0.021,40.333
			L124.047,245.516z"/>
	</g>
	<g>
		<path class="st6" d="M131.937,245.516c-1.219,0.695-2.576,1.043-3.933,1.048l-0.008-39.092l34.822-19.909l0.021,40.333
			L131.937,245.516z"/>
	</g>
	<g>
		<path class="st5" d="M93.166,27.821L128,47.684l34.811-19.863L131.963,10.22c-2.457-1.402-5.471-1.402-7.927-0.001L93.166,27.821z
			"/>
	</g>
	<g>
		<polygon class="st0" points="93.166,27.821 58.331,47.684 93.108,67.604 128,47.684 		"/>
	</g>
	<g>
		<polygon class="st0" points="128.034,87.467 93.142,107.353 128.012,127.216 162.846,107.353 		"/>
	</g>
	<g>
		<polygon class="st3" points="128.034,87.467 162.846,67.545 197.681,87.467 162.846,107.353 		"/>
	</g>
	<g>
		<path class="st3" d="M23.497,70.505v37.139l34.811,19.896V87.467L24.175,67.991C23.739,68.742,23.497,69.606,23.497,70.505z"/>
	</g>
	<g>
		<path class="st5" d="M58.331,47.684L26.015,66.164c-0.777,0.444-1.405,1.079-1.84,1.827l34.132,19.476l34.801-19.863
			L58.331,47.684z"/>
	</g>
	<g>
		<path class="st6" d="M231.813,67.991l-34.132,19.476v40.073l34.811-19.896V70.505C232.491,69.606,232.25,68.742,231.813,67.991z"
			/>
	</g>
	<g>
		<path class="st2" d="M231.813,67.991c-0.435-0.747-1.063-1.383-1.84-1.827l-32.328-18.481l-34.799,19.862l34.834,19.922
			L231.813,67.991z"/>
	</g>
	<g>
		<polygon class="st3" points="93.108,67.604 128.034,87.467 93.142,107.353 58.308,87.467 		"/>
	</g>
	<g>
		<polygon class="st6" points="128,47.684 93.108,67.604 128.034,87.467 162.846,67.545 		"/>
	</g>
	<g>
		<polygon class="st0" points="162.811,27.821 197.645,47.684 162.846,67.545 128,47.684 		"/>
	</g>
	<g>
		<path class="st4" d="M58.308,210.007c-0.343,0-0.685-0.088-0.992-0.264l-32.313-18.465c-2.177-1.244-3.527-3.574-3.526-6.081
			l0.021-37.431c0-0.713,0.38-1.372,0.997-1.729c0.616-0.358,1.377-0.359,1.995-0.006l34.834,19.909
			c0.624,0.356,1.008,1.02,1.008,1.737l-0.023,40.331c0,0.713-0.38,1.372-0.997,1.729C59.001,209.917,58.654,210.007,58.308,210.007
			z M25.495,151.212l-0.02,33.986c-0.001,1.075,0.578,2.073,1.511,2.606l29.323,16.756l0.021-35.726L25.495,151.212z"/>
	</g>
	<g>
		<path class="st4" d="M58.331,169.676c-0.343,0-0.685-0.088-0.992-0.264l-34.834-19.909c-0.623-0.356-1.008-1.019-1.008-1.736
			v-40.123c0-0.713,0.38-1.372,0.996-1.73c0.618-0.357,1.378-0.36,1.996-0.006L59.3,125.804c0.623,0.356,1.008,1.018,1.008,1.735
			l0.023,40.136c0,0.713-0.379,1.373-0.996,1.73C59.025,169.585,58.678,169.676,58.331,169.676z M25.497,146.606l30.832,17.622
			l-0.021-35.527l-30.812-17.61V146.606z"/>
	</g>
	<g>
		<path class="st4" d="M93.142,229.89c-0.342,0-0.685-0.087-0.991-0.263l-34.834-19.883c-0.624-0.356-1.009-1.02-1.009-1.738
			l0.023-40.331c0-0.713,0.38-1.372,0.997-1.729c0.616-0.358,1.377-0.359,1.995-0.006l34.835,19.91
			c0.624,0.356,1.008,1.02,1.008,1.737l-0.024,40.305c0,0.713-0.38,1.371-0.996,1.729C93.835,229.8,93.488,229.89,93.142,229.89z
			 M60.309,206.846l30.835,17.601l0.021-35.701l-30.836-17.625L60.309,206.846z"/>
	</g>
	<g>
		<path class="st4" d="M93.166,189.585c-0.343,0-0.685-0.088-0.992-0.264l-34.835-19.91c-0.623-0.356-1.008-1.018-1.008-1.735
			l-0.023-40.136c0-0.713,0.379-1.373,0.996-1.73c0.616-0.358,1.378-0.36,1.996-0.007l34.834,19.909
			c0.623,0.356,1.008,1.018,1.008,1.735l0.024,40.136c0,0.713-0.379,1.373-0.996,1.73C93.86,189.495,93.513,189.585,93.166,189.585z
			 M60.33,166.515l30.834,17.623l-0.021-35.527L60.31,130.988L60.33,166.515z"/>
	</g>
	<g>
		<path class="st4" d="M93.142,149.449c-0.343,0-0.685-0.088-0.992-0.264l-34.834-19.909c-0.623-0.356-1.008-1.019-1.008-1.736
			V87.467c0-0.712,0.379-1.372,0.995-1.729c0.616-0.358,1.377-0.361,1.995-0.008l34.834,19.863c0.624,0.356,1.01,1.019,1.01,1.737
			v40.12c0,0.713-0.38,1.372-0.996,1.73C93.835,149.359,93.488,149.449,93.142,149.449z M60.308,126.379l30.834,17.623v-35.511
			L60.308,90.91V126.379z"/>
	</g>
	<g>
		<path class="st4" d="M128,209.472c-0.343,0-0.685-0.088-0.992-0.264l-34.834-19.909c-0.623-0.356-1.008-1.018-1.008-1.735
			l-0.024-40.136c0-0.713,0.379-1.373,0.996-1.73c0.616-0.358,1.378-0.36,1.996-0.007l34.835,19.909
			c0.623,0.356,1.008,1.018,1.008,1.735L130,207.471c0,0.713-0.379,1.373-0.996,1.73C128.694,209.381,128.347,209.472,128,209.472z
			 M95.165,186.401l30.833,17.623l-0.021-35.527l-30.834-17.623L95.165,186.401z"/>
	</g>
	<g>
		<path class="st4" d="M127.977,169.335c-0.343,0-0.685-0.088-0.992-0.264l-34.835-19.909c-0.623-0.356-1.008-1.019-1.008-1.736
			v-40.073c0-0.712,0.379-1.372,0.995-1.729c0.616-0.358,1.377-0.361,1.995-0.008l34.835,19.862c0.624,0.356,1.01,1.019,1.01,1.737
			v40.12c0,0.713-0.38,1.372-0.996,1.73C128.67,169.245,128.323,169.335,127.977,169.335z M95.142,146.266l30.835,17.623v-35.511
			l-30.835-17.582V146.266z"/>
	</g>
	<g>
		<path class="st4" d="M127.98,248.564c-0.002,0-0.005,0-0.007,0c-1.724-0.006-3.424-0.459-4.917-1.311l0,0l-30.902-17.621
			c-0.625-0.356-1.01-1.02-1.01-1.738l0.021-40.333c0-0.713,0.38-1.372,0.997-1.729c0.616-0.358,1.378-0.36,1.996-0.006
			l34.822,19.909c0.623,0.356,1.007,1.019,1.007,1.737l-0.008,39.092c0,0.532-0.212,1.041-0.589,1.417
			C129.018,248.354,128.51,248.564,127.98,248.564z M125.037,243.778c0.302,0.172,0.618,0.317,0.943,0.434l0.008-35.58
			l-30.824-17.623l-0.019,35.725L125.037,243.778z"/>
	</g>
	<g>
		<path class="st4" d="M58.308,129.54c-0.343,0-0.685-0.088-0.992-0.264L22.505,109.38c-0.623-0.356-1.008-1.019-1.008-1.736V70.505
			c0-1.236,0.329-2.454,0.951-3.521c0.552-0.947,1.766-1.274,2.719-0.73l34.132,19.476c0.624,0.356,1.009,1.019,1.009,1.737v40.073
			c0,0.713-0.38,1.372-0.996,1.73C59.001,129.45,58.654,129.54,58.308,129.54z M25.497,106.483l30.811,17.61V88.628L25.497,71.048
			V106.483z"/>
	</g>
	<g>
		<path class="st4" d="M197.681,210.007c-0.347,0-0.693-0.09-1.003-0.27c-0.617-0.357-0.997-1.016-0.997-1.729l-0.023-40.331
			c0-0.718,0.384-1.381,1.008-1.737l34.834-19.909c0.618-0.354,1.379-0.352,1.995,0.006c0.617,0.357,0.997,1.016,0.997,1.729
			l0.021,37.431c0.001,2.507-1.35,4.837-3.526,6.081l-32.313,18.465C198.365,209.919,198.023,210.007,197.681,210.007z
			 M199.658,168.836l0.021,35.726l29.323-16.756c0.933-0.533,1.512-1.532,1.511-2.606l-0.02-33.986L199.658,168.836z"/>
	</g>
	<g>
		<path class="st4" d="M197.657,169.676c-0.347,0-0.693-0.09-1.004-0.271c-0.617-0.358-0.996-1.018-0.996-1.73l0.023-40.136
			c0-0.717,0.385-1.379,1.008-1.735l34.811-19.896c0.618-0.354,1.378-0.353,1.996,0.006c0.616,0.358,0.996,1.017,0.996,1.73v40.123
			c0,0.718-0.385,1.38-1.008,1.736l-34.834,19.909C198.342,169.588,198,169.676,197.657,169.676z M199.68,128.701l-0.021,35.527
			l30.832-17.622v-35.515L199.68,128.701z"/>
	</g>
	<g>
		<path class="st4" d="M162.847,229.89c-0.347,0-0.693-0.09-1.004-0.27c-0.616-0.358-0.996-1.016-0.996-1.729l-0.024-40.305
			c0-0.718,0.384-1.381,1.008-1.737l34.835-19.91c0.618-0.354,1.379-0.352,1.995,0.006c0.617,0.357,0.997,1.016,0.997,1.729
			l0.023,40.331c0,0.718-0.385,1.382-1.009,1.738l-34.834,19.883C163.531,229.802,163.188,229.89,162.847,229.89z M164.823,188.746
			l0.021,35.701l30.835-17.601l-0.021-35.725L164.823,188.746z"/>
	</g>
	<g>
		<path class="st4" d="M162.822,189.585c-0.347,0-0.694-0.09-1.004-0.271c-0.617-0.358-0.996-1.018-0.996-1.73l0.024-40.136
			c0-0.717,0.385-1.379,1.008-1.735l34.834-19.909c0.619-0.354,1.379-0.352,1.996,0.007c0.617,0.358,0.996,1.018,0.996,1.73
			l-0.023,40.136c0,0.717-0.385,1.379-1.008,1.735l-34.835,19.91C163.507,189.498,163.165,189.585,162.822,189.585z M164.846,148.61
			l-0.021,35.527l30.834-17.623l0.021-35.527L164.846,148.61z"/>
	</g>
	<g>
		<path class="st4" d="M162.847,149.449c-0.347,0-0.693-0.09-1.004-0.27c-0.616-0.358-0.996-1.017-0.996-1.73v-40.12
			c0-0.718,0.386-1.381,1.01-1.737l34.834-19.863c0.617-0.354,1.378-0.351,1.995,0.008c0.616,0.358,0.995,1.017,0.995,1.729v40.073
			c0,0.718-0.385,1.38-1.008,1.736l-34.834,19.909C163.531,149.361,163.189,149.449,162.847,149.449z M164.847,108.491v35.511
			l30.834-17.623V90.91L164.847,108.491z"/>
	</g>
	<g>
		<path class="st4" d="M127.988,209.472c-0.347,0-0.693-0.09-1.004-0.271c-0.617-0.358-0.996-1.018-0.996-1.73l0.023-40.136
			c0-0.717,0.385-1.379,1.008-1.735l34.835-19.909c0.618-0.354,1.38-0.352,1.996,0.007c0.617,0.358,0.996,1.018,0.996,1.73
			l-0.024,40.136c0,0.717-0.385,1.379-1.008,1.735l-34.834,19.909C128.673,209.384,128.331,209.472,127.988,209.472z
			 M130.011,168.497l-0.021,35.527l30.833-17.623l0.021-35.527L130.011,168.497z"/>
	</g>
	<g>
		<path class="st4" d="M128.012,169.335c-0.347,0-0.693-0.09-1.004-0.27c-0.616-0.358-0.996-1.017-0.996-1.73v-40.12
			c0-0.718,0.386-1.381,1.01-1.737l34.835-19.862c0.617-0.354,1.378-0.351,1.995,0.008c0.616,0.358,0.995,1.017,0.995,1.729v40.073
			c0,0.718-0.385,1.38-1.008,1.736l-34.835,19.909C128.696,169.248,128.354,169.335,128.012,169.335z M130.012,128.378v35.511
			l30.835-17.623v-35.469L130.012,128.378z"/>
	</g>
	<g>
		<path class="st4" d="M128.003,248.564c-0.529,0-1.037-0.209-1.411-0.583c-0.377-0.375-0.589-0.885-0.589-1.417l-0.007-39.092
			c0-0.718,0.385-1.38,1.007-1.737l34.822-19.909c0.618-0.354,1.38-0.352,1.996,0.006c0.617,0.357,0.997,1.016,0.997,1.729
			l0.021,40.333c0,0.719-0.385,1.382-1.01,1.738l-30.902,17.621h0.001c-1.493,0.852-3.193,1.305-4.918,1.311
			C128.008,248.564,128.005,248.564,128.003,248.564z M129.996,208.632l0.007,35.58c0.325-0.117,0.641-0.262,0.942-0.434
			c0,0,0,0,0.001,0l29.892-17.045l-0.018-35.725L129.996,208.632z"/>
	</g>
	<g>
		<path class="st4" d="M197.681,129.54c-0.347,0-0.693-0.09-1.004-0.27c-0.616-0.358-0.996-1.017-0.996-1.73V87.467
			c0-0.718,0.385-1.381,1.009-1.737l34.132-19.476c0.953-0.544,2.167-0.217,2.72,0.73c0.621,1.067,0.95,2.285,0.95,3.521v37.139
			c0,0.718-0.385,1.38-1.008,1.736l-34.811,19.896C198.365,129.452,198.023,129.54,197.681,129.54z M199.681,88.628v35.465
			l30.811-17.61V71.048L199.681,88.628z"/>
	</g>
	<g>
		<path class="st4" d="M128,49.684c-0.342,0-0.684-0.087-0.99-0.263L92.176,29.558c-0.624-0.356-1.01-1.019-1.01-1.737
			s0.386-1.381,1.01-1.737l30.87-17.602c3.056-1.743,6.853-1.744,9.908,0.001l30.848,17.601c0.624,0.356,1.009,1.019,1.009,1.737
			s-0.385,1.381-1.009,1.737l-34.811,19.862C128.684,49.596,128.342,49.684,128,49.684z M97.204,27.821L128,45.381l30.775-17.56
			l-27.804-15.864c-1.833-1.046-4.11-1.046-5.945-0.001L97.204,27.821z"/>
	</g>
	<g>
		<path class="st4" d="M93.108,69.604c-0.343,0-0.687-0.088-0.994-0.265l-34.777-19.92c-0.623-0.356-1.007-1.02-1.006-1.737
			s0.386-1.38,1.01-1.735l34.835-19.863c0.613-0.351,1.367-0.351,1.98,0l34.834,19.863c0.624,0.355,1.01,1.019,1.01,1.737
			s-0.385,1.381-1.009,1.737L94.1,69.341C93.793,69.516,93.45,69.604,93.108,69.604z M62.361,47.688L93.11,65.3l30.854-17.616
			L93.166,30.123L62.361,47.688z"/>
	</g>
	<g>
		<path class="st4" d="M131.091,117.729c-0.257,0-0.513-0.049-0.755-0.148l-37.949-15.465c-0.753-0.307-1.245-1.039-1.245-1.852
			s0.492-1.545,1.245-1.852l37.973-15.482c0.484-0.197,1.025-0.198,1.512,0l37.886,15.482c0.752,0.308,1.243,1.04,1.243,1.852
			s-0.492,1.544-1.244,1.852l-37.909,15.465C131.604,117.68,131.348,117.729,131.091,117.729z M98.44,100.264l32.65,13.306
			l32.618-13.307l-32.596-13.321L98.44,100.264z"/>
	</g>
	<g>
		<path class="st4" d="M162.847,109.354c-0.343,0-0.685-0.088-0.992-0.263l-34.813-19.887c-0.623-0.356-1.008-1.019-1.008-1.736
			c0-0.718,0.384-1.38,1.007-1.737l34.813-19.921c0.615-0.353,1.371-0.352,1.986,0l34.834,19.921
			c0.623,0.356,1.007,1.02,1.007,1.737c0,0.717-0.385,1.38-1.009,1.736l-34.834,19.887
			C163.531,109.266,163.188,109.354,162.847,109.354z M132.063,87.465l30.783,17.585l30.803-17.585L162.847,69.85L132.063,87.465z"
			/>
	</g>
	<g>
		<path class="st4" d="M58.308,89.467c-0.342,0-0.684-0.087-0.991-0.263L23.185,69.729c-0.463-0.265-0.802-0.703-0.94-1.218
			c-0.139-0.515-0.065-1.063,0.202-1.525c0.619-1.063,1.509-1.948,2.576-2.558l32.315-18.481c0.615-0.352,1.372-0.352,1.987,0.001
			l34.777,19.92c0.622,0.356,1.007,1.02,1.006,1.737c-0.001,0.718-0.386,1.38-1.009,1.735L59.299,89.204
			C58.992,89.379,58.649,89.467,58.308,89.467z M27.529,67.602l30.778,17.562l30.771-17.563L58.33,49.988L27.529,67.602z"/>
	</g>
	<g>
		<path class="st4" d="M93.142,109.354c-0.342,0-0.685-0.088-0.991-0.263L57.316,89.204c-0.624-0.356-1.009-1.019-1.009-1.737
			c0-0.718,0.385-1.381,1.009-1.737l34.801-19.863c0.612-0.35,1.367-0.352,1.979-0.001l34.926,19.863
			c0.625,0.355,1.012,1.019,1.012,1.737s-0.385,1.383-1.01,1.739l-34.893,19.887C93.825,109.266,93.483,109.354,93.142,109.354z
			 M62.342,87.467l30.801,17.584l30.85-17.582L93.11,69.906L62.342,87.467z"/>
	</g>
	<g>
		<path class="st4" d="M128.034,89.467c-0.341,0-0.683-0.087-0.988-0.262L92.12,69.342c-0.625-0.355-1.011-1.018-1.012-1.737
			c-0.001-0.718,0.385-1.382,1.009-1.738l34.892-19.92c0.613-0.351,1.368-0.351,1.981-0.001l34.847,19.862
			c0.624,0.355,1.009,1.018,1.01,1.736c0.001,0.718-0.384,1.381-1.007,1.737l-34.813,19.921
			C128.72,89.379,128.377,89.467,128.034,89.467z M97.148,67.601l30.883,17.563l30.782-17.615l-30.813-17.563L97.148,67.601z"/>
	</g>
	<g>
		<path class="st4" d="M162.847,69.545c-0.342,0-0.684-0.087-0.99-0.262L127.01,49.421c-0.624-0.356-1.01-1.019-1.01-1.737
			s0.385-1.382,1.009-1.738l34.811-19.862c0.615-0.351,1.368-0.351,1.981,0l34.834,19.862c0.624,0.355,1.01,1.019,1.01,1.737
			s-0.385,1.381-1.009,1.737l-34.798,19.862C163.531,69.458,163.188,69.545,162.847,69.545z M132.037,47.683l30.809,17.561
			l30.763-17.559l-30.798-17.561L132.037,47.683z"/>
	</g>
	<g>
		<path class="st4" d="M197.681,89.467c-0.343,0-0.686-0.088-0.993-0.264l-34.834-19.921c-0.623-0.356-1.007-1.02-1.007-1.737
			s0.385-1.38,1.009-1.736l34.798-19.862c0.614-0.352,1.371-0.351,1.983,0l32.328,18.481c1.067,0.61,1.959,1.495,2.577,2.558
			c0.268,0.461,0.341,1.01,0.202,1.525c-0.139,0.515-0.478,0.953-0.94,1.218l-34.132,19.476
			C198.364,89.379,198.022,89.467,197.681,89.467z M166.878,67.547l30.804,17.617l30.776-17.561l-30.814-17.616L166.878,67.547z"/>
	</g>
</g>
</svg>
