<?xml version="1.0" encoding="utf-8"?>
<!-- Generator: Adobe Illustrator 22.1.0, SVG Export Plug-In . SVG Version: 6.00 Build 0)  -->
<svg version="1.1" id="Layer_1" xmlns="http://www.w3.org/2000/svg" xmlns:xlink="http://www.w3.org/1999/xlink" x="0px" y="0px"
	 viewBox="0 0 256 256" style="enable-background:new 0 0 256 256;" xml:space="preserve">
<style type="text/css">
	.st0{fill:#4671C6;}
	.st1{fill:#F9CFCF;}
	.st2{fill:#F9A7A7;}
	.st3{fill:#A4C9FF;}
	.st4{fill:#3762CC;}
	.st5{fill:#E0EBFC;}
	.st6{fill:#6BDDDD;}
	.st7{fill:#B9BEFC;}
	.st8{fill:#FFEA92;}
	.st9{fill:#EAA97D;}
	.st10{fill:#FFEA94;}
	.st11{fill:#FFE164;}
	.st12{fill:#FFDC85;}
	.st13{fill:#FFFFFF;}
	.st14{fill:#383838;}
</style>
<g>
	<g>
		<path class="st2" d="M203.584,166.047c0-0.829,0-1.084,0-1.913c15.674-9.91,9.982-32.893-8.728-35.224
			c-0.854-0.106-1.326-0.958-0.928-1.676c9.474-17.106-11.017-35.363-28.657-25.579c-0.888,0.493-1.963-0.33-1.586-1.269
			c1.105-2.756,1.562-5.811,1.188-9.003c-2.013-17.162-25.645-23.47-36.869-9.414c-11.202-14.029-34.853-7.774-36.869,9.414
			c-0.374,3.192,0.083,6.247,1.188,9.003c0.194,0.485-0.002,1.024-0.482,1.278c-0.282,0.172-0.73,0.199-1.104-0.009
			c-3.168-1.757-6.878-2.741-10.84-2.666c-14.864,0.281-24.933,15.398-17.817,28.246c0.398,0.718-0.075,1.57-0.928,1.676
			c-10.064,1.254-17.83,9.354-17.83,19.164c0,6.691,3.613,12.588,9.103,16.059c0,0.829,0,1.084,0,1.913
			c-5.49,3.472-9.103,9.368-9.103,16.06c0,10.679,9.202,19.337,20.554,19.337c0.008,0,0.016,0,0.025,0
			c0.956-0.001,1.554,0.955,1.065,1.727c-7.848,12.394,1.105,28.147,16.162,29.16c5.564,0.374,10.695-1.34,14.608-4.39
			c0.712-0.555,1.8-0.166,1.952,0.692c2.341,13.171,17.942,20.193,30.317,13.655c12.338,6.518,27.97-0.452,30.317-13.655
			c0.152-0.858,1.24-1.247,1.952-0.692c3.913,3.05,9.044,4.764,14.608,4.39c15.072-1.013,24-16.781,16.162-29.16
			c-0.489-0.773,0.109-1.729,1.065-1.727c0.008,0,0.016,0,0.025,0C212.44,201.443,220.319,176.629,203.584,166.047z"/>
	</g>
	<g>
		<path class="st1" d="M118.939,205.738c0.021,0,0.041,0,0.062,0c1.79-0.006,3.237-1.461,3.233-3.252
			c-0.005-1.787-1.456-3.233-3.242-3.233c-0.016,0-0.033,0-0.052,0c-7.317,0-13.282-5.504-13.302-12.287
			c-0.011-3.254,1.338-6.328,3.796-8.655c2.514-2.379,5.876-3.695,9.467-3.705c1.79-0.005,3.237-1.461,3.233-3.252
			c-0.005-1.79-1.469-3.242-3.252-3.233c-5.249,0.015-10.187,1.961-13.904,5.48C92.592,185.324,101.25,205.738,118.939,205.738z"/>
	</g>
	<g>
		<path class="st1" d="M207.777,165.09c14.477-11.975,8.694-34.455-9.783-38.9c6.948-17.777-11.093-35.376-30.015-29.231
			c3.351-20.942-23.467-34.68-39.974-19.665c-4.799-4.369-11.312-6.686-18.097-6.249c-13.214,0.85-24.031,12.478-21.879,25.914
			c-18.98-6.163-36.953,11.524-30.013,29.231c-10.399,2.501-17.936,11.484-17.936,21.884c0,6.583,3,12.755,8.151,17.016
			c-5.151,4.261-8.151,10.433-8.151,17.016c0,11.394,8.939,20.843,20.535,22.365c-6.311,14.537,4.738,30.047,20.295,31.094
			c5.09,0.343,10.084-0.845,14.338-3.373c4.3,13.109,19.797,19.415,32.757,13.691c3.135,1.385,6.574,2.116,10.046,2.116
			c10.562,0,19.654-6.487,22.71-15.807c4.25,2.528,9.247,3.716,14.338,3.373c11.305-0.761,20.733-9.384,21.932-20.06
			c0.427-3.818-0.136-7.575-1.637-11.031C215.575,201.838,223.099,177.764,207.777,165.09z M124.762,240.217
			c-10.169,4.043-22.025-1.694-23.882-12.151c-0.59-3.317-4.546-4.704-7.138-2.684c-3.462,2.699-7.858,4.017-12.398,3.712
			c-11.186-0.753-19.233-11.61-14.803-21.975c0.001-0.002,0.003-0.005,0.005-0.007c3.085-6.257,11.058-8.962,17.765-6.036
			c6.555,2.859,9.482,10.092,6.44,16.265c-1.065,2.161,0.522,4.676,2.905,4.676c1.197,0,2.348-0.664,2.911-1.81
			c2.204-4.47,2.477-9.498,0.771-14.16c-1.787-4.883-5.492-8.759-10.434-10.914c-6.598-2.879-14.039-1.979-19.616,1.726l0.003-0.008
			c-4.349,3.97-20.726-1.232-20.726-14.746c0-5.304,2.81-10.252,7.517-13.264c8.322,3.913,18.431,1.803,24.225-5.061
			c7.571-8.97,1.267-14.845,7.705-21.564c2.487-2.598,5.917-4.07,9.661-4.147c0.098-0.002,0.196-0.003,0.296-0.003
			c7.206,0,13.142,5.355,13.298,12.062c0.099,4.291,6.579,4.133,6.481-0.149c-0.437-19.067-26.887-25.346-36.883-9.036
			c-1.059-1.378-2.309-2.636-3.762-3.721c-3.436-2.564-7.315,2.629-3.882,5.194c5.675,4.239,6.603,11.882,2.131,17.181
			c-8.875,10.514-26.787,1.846-26.787-11.524c0-8.027,6.443-14.882,14.988-15.947c1.488-0.186,2.775-1.08,3.443-2.394
			c1.835-3.615-1.984-4.634-1.988-11.402c-0.006-8.702,7.597-15.925,16.951-16.102c5.277-0.099,8.533,1.966,9.533,2.408
			l-0.001,0.004l5.218,2.8l-0.002-0.02c11.892,7.637,26.721-3.663,22.239-16.246c-0.6-1.687-2.457-2.567-4.141-1.966
			c-1.688,0.601-2.568,2.455-1.966,4.142c1.375,3.862-0.793,8.216-5.224,9.613c-4.284,1.351-9.11-0.651-10.655-4.911
			c-5.188-16.546,17.801-28.048,29.801-14.892V240.217z M192.562,198.179c-1.244-0.202-2.781-0.708-3.939-1.386
			c-5.565-3.651-12.958-4.52-19.519-1.659c-15.588,6.798-12.806,26.884-6.752,26.884c2.38,0,3.971-2.513,2.905-4.676
			c-3.049-6.187-0.1-13.413,6.44-16.265c8.678-3.786,20.224,1.803,18.889,13.704c-1.4,12.456-17.563,18.987-28.321,10.601
			c-2.601-2.029-6.551-0.62-7.136,2.682c-1.385,7.793-8.567,13.449-17.08,13.449c-2.343,0-4.662-0.445-6.804-1.297V83.161
			c12.243-13.424,35.478-1.016,29.78,14.937c-1.452,4.074-6.226,6.256-10.633,4.867c-4.435-1.398-6.598-5.754-5.224-9.613
			c0.602-1.687-0.279-3.541-1.966-4.142c-4.87-1.738-6.327,6.893-3.499,12.577c3.985,8.013,14.681,10.666,22.278,5.189l0.007,0.04
			c5.463-2.843,8.406-4.889,14.061-4.786c9.354,0.177,16.958,7.401,16.951,16.103c-0.004,6.767-3.824,7.785-1.988,11.401
			c0.668,1.313,1.955,2.208,3.443,2.394c15.51,1.932,20.589,20.806,7.48,29.204c-0.154,0.08-0.306,0.163-0.45,0.27
			c-5.796,4.33-14.243,3.43-18.829-2.003c-4.472-5.3-3.544-12.942,2.131-17.182c3.436-2.567-0.449-7.758-3.882-5.194
			c-1.452,1.085-2.703,2.343-3.762,3.721c-3.411-5.565-9.546-9.212-16.675-9.357c-10.825-0.22-19.97,8.028-20.208,18.392
			c-0.041,1.79,1.376,3.275,3.166,3.316c1.741,0.041,3.275-1.376,3.315-3.166c0.157-6.798,6.278-12.201,13.594-12.059
			c7.594,0.155,13.16,6.021,13.009,12.582c-0.004,0.189,0.016,0.371,0.043,0.552c-0.212,4.56,1.282,8.986,4.314,12.577
			c5.797,6.866,15.902,8.974,24.225,5.061C215.709,177.66,209.302,197.779,192.562,198.179z"/>
	</g>
	<g>
		<path class="st1" d="M137.117,168.122c-4.281,0-4.288,6.472-0.01,6.484c7.463,0.021,13.286,5.664,13.263,12.361
			c-0.02,6.66-5.831,12.286-13.355,12.286c-4.269,0-4.326,6.484,0.052,6.484c17.674,0,26.368-20.394,13.962-32.135
			C144.466,167.387,136.117,168.122,137.117,168.122z"/>
	</g>
	<g>
		<path class="st4" d="M117.94,250.001c-3.74,0-7.48-0.775-10.964-2.327c-5.86-2.609-10.329-7.052-12.785-12.65
			c-4.13,1.979-8.723,2.857-13.416,2.536c-8.475-0.57-16.13-5.173-20.479-12.313c-3.597-5.907-4.428-12.792-2.393-19.231
			c-11.46-2.605-19.825-12.494-19.825-23.909c0-6.377,2.59-12.463,7.176-17.017c-4.586-4.553-7.176-10.639-7.176-17.016
			c0-10.569,7.038-19.842,17.363-23.231c-2.371-8.079-0.308-16.498,5.714-22.89c6.362-6.752,15.578-9.563,24.61-7.664
			c-0.179-5.565,1.634-10.977,5.242-15.494c4.568-5.721,11.41-9.272,18.771-9.746c6.614-0.431,13.148,1.611,18.222,5.621
			c8.287-6.61,19.519-7.599,29.098-2.417c8.634,4.669,13.488,12.93,13.15,22.034c9.026-1.89,18.244,0.924,24.616,7.682
			c6.01,6.373,8.067,14.787,5.7,22.874c8.449,2.77,14.768,9.488,16.73,17.962c1.898,8.2-0.539,16.375-6.538,22.287
			c6.28,6.212,8.659,15.021,6.214,23.505c-2.562,8.887-9.678,15.39-18.867,17.43c0.979,3.113,1.286,6.365,0.913,9.7
			c-1.305,11.622-11.53,21.009-23.785,21.833c-4.7,0.321-9.289-0.557-13.417-2.537c-3.986,9.047-13.249,14.976-23.765,14.976
			c-3.421,0-6.875-0.671-10.045-1.945C124.782,249.352,121.361,250.001,117.94,250.001z M95.247,230.191
			c0.237,0,0.475,0.042,0.702,0.127c0.568,0.214,1.009,0.673,1.198,1.25c1.821,5.551,5.889,9.973,11.456,12.451
			c5.907,2.632,12.684,2.643,18.592,0.033c0.515-0.229,1.102-0.229,1.616,0c2.881,1.272,6.076,1.945,9.238,1.945
			c9.616,0,17.979-5.799,20.81-14.43c0.189-0.577,0.63-1.037,1.198-1.25c0.57-0.212,1.203-0.156,1.725,0.154
			c3.936,2.342,8.492,3.413,13.181,3.097c10.354-0.697,18.986-8.56,20.079-18.288c0.389-3.479-0.11-6.848-1.484-10.011
			c-0.25-0.576-0.215-1.236,0.095-1.783c0.31-0.546,0.858-0.915,1.481-0.997c8.762-1.144,15.657-6.893,17.994-15.002
			c2.241-7.774-0.236-15.571-6.626-20.857c-0.459-0.38-0.725-0.945-0.725-1.541c0-0.597,0.266-1.161,0.725-1.541
			c6.038-4.994,8.616-12.412,6.896-19.842c-1.777-7.678-7.859-13.645-15.872-15.572c-0.562-0.135-1.038-0.507-1.305-1.019
			c-0.268-0.513-0.3-1.115-0.09-1.653c2.824-7.226,1.262-14.982-4.176-20.75c-5.982-6.344-14.932-8.584-23.358-5.852
			c-0.663,0.216-1.388,0.071-1.918-0.383c-0.529-0.453-0.785-1.148-0.675-1.836c1.632-10.197-4.513-17.468-10.808-20.871
			c-8.589-4.646-18.734-3.467-25.846,3.002c-0.763,0.694-1.929,0.694-2.692-0.001c-4.434-4.037-10.491-6.141-16.622-5.731
			c-6.239,0.401-12.035,3.408-15.901,8.25c-3.54,4.433-5.007,9.884-4.131,15.352c0.11,0.688-0.145,1.383-0.674,1.836
			s-1.256,0.595-1.918,0.383c-8.429-2.739-17.375-0.501-23.343,5.834c-5.452,5.788-7.019,13.551-4.19,20.766
			c0.211,0.538,0.178,1.142-0.089,1.654c-0.268,0.513-0.744,0.885-1.306,1.02c-9.658,2.323-16.404,10.522-16.404,19.939
			c0,5.931,2.707,11.571,7.426,15.475c0.459,0.38,0.725,0.944,0.725,1.541c0,0.596-0.266,1.161-0.725,1.541
			c-4.72,3.904-7.426,9.545-7.426,15.476c0,10.213,8.081,18.976,18.796,20.381c0.623,0.082,1.17,0.451,1.48,0.998
			c0.31,0.546,0.344,1.206,0.094,1.782c-2.549,5.871-2.088,12.395,1.264,17.898c3.672,6.031,10.151,9.92,17.331,10.403
			c4.683,0.318,9.242-0.756,13.181-3.097C94.538,230.286,94.892,230.191,95.247,230.191z"/>
	</g>
	<g>
		<path class="st3" d="M128.004,7.998c-30.477,0-55.184,24.707-55.184,55.184l0,0c0,26.408,18.555,48.471,43.335,53.895
			l8.239,17.715c1.428,3.07,5.791,3.07,7.219,0l8.239-17.715c24.781-5.424,43.335-27.487,43.335-53.895l0,0
			C183.188,32.734,158.51,7.998,128.004,7.998z"/>
	</g>
	<g>
		<path class="st4" d="M128.004,139.094C128.003,139.094,128.003,139.094,128.004,139.094c-2.354,0-4.431-1.326-5.423-3.46
			l-7.827-16.825C89.237,112.747,70.82,89.514,70.82,63.182c0-31.531,25.653-57.184,57.184-57.184s57.184,25.652,57.184,57.184
			c0,26.332-18.417,49.565-43.935,55.627l-7.826,16.826C132.435,137.769,130.356,139.094,128.004,139.094z M128.004,9.998
			c-29.326,0-53.184,23.858-53.184,53.184c0,24.801,17.563,46.646,41.763,51.941c0.61,0.134,1.123,0.545,1.386,1.11l8.24,17.714
			c0.494,1.063,1.5,1.146,1.795,1.146h0c0.296,0,1.301-0.083,1.796-1.146l8.239-17.714c0.263-0.565,0.776-0.977,1.386-1.11
			c24.199-5.296,41.763-27.141,41.763-51.941C181.187,33.856,157.33,9.998,128.004,9.998z"/>
	</g>
	<g>
		<path class="st10" d="M140.494,51.328c0.043-1.504-0.051-3.019-0.281-4.508l5.472-2.669c0.737-0.359,1.29-0.985,1.557-1.76
			c0.542-1.573,0.146-1.751-4.005-10.264c-0.359-0.737-0.985-1.29-1.76-1.557c-1.543-0.531-2.04-0.005-7.817,2.812
			c-1.033-1.098-2.168-2.105-3.38-2.997c3.422-9.94,3.954-8.319-8.253-12.522c-1.601-0.551-3.351,0.303-3.902,1.903l-1.98,5.751
			c-1.503-0.043-3.018,0.052-4.508,0.281c-4.596-9.425-3.023-8.715-14.692-3.024c-1.529,0.746-2.156,2.583-1.414,4.105l2.669,5.472
			c-1.098,1.032-2.104,2.168-2.997,3.38l-5.751-1.98c-1.601-0.551-3.351,0.303-3.902,1.903c-4.28,12.43-4.991,10.846,4.786,14.212
			c-0.043,1.504,0.051,3.019,0.281,4.508c-5.742,2.801-6.493,2.873-7.029,4.429c-0.267,0.775-0.216,1.609,0.144,2.345
			c5.722,11.731,4.127,11.205,13.439,6.663c1.033,1.098,2.168,2.105,3.38,2.997l-1.98,5.751c-0.551,1.601,0.303,3.351,1.903,3.902
			c12.43,4.28,10.846,4.991,14.212-4.786c1.503,0.043,3.018-0.052,4.508-0.281l2.669,5.472c0.744,1.525,2.58,2.157,4.105,1.414
			l7.918-3.862c1.526-0.744,2.158-2.58,1.414-4.105l-2.669-5.472c1.098-1.032,2.104-2.168,2.997-3.38l5.751,1.98
			c1.601,0.551,3.351-0.303,3.902-1.903C149.56,53.111,150.271,54.695,140.494,51.328z M129.353,55.398
			c-2.646,7.686-11.052,11.786-18.738,9.139s-11.786-11.052-9.139-18.738c2.646-7.686,11.052-11.786,18.738-9.139
			C127.9,39.306,132,47.712,129.353,55.398z"/>
	</g>
	<g>
		<path class="st9" d="M120.572,35.621c-8.258-2.843-17.29,1.562-20.133,9.82C97.594,53.7,102,62.732,110.258,65.576
			c8.259,2.844,17.291-1.561,20.135-9.82C133.236,47.497,128.831,38.465,120.572,35.621z M112.711,58.45
			c-4.33-1.491-6.639-6.226-5.149-10.556s6.226-6.638,10.556-5.148c4.33,1.491,6.64,6.225,5.149,10.555
			C121.776,57.632,117.041,59.941,112.711,58.45z"/>
	</g>
	<g>
		<path class="st10" d="M161.498,77.653l-3.071,1.498c-0.581-0.614-1.219-1.179-1.902-1.679l1.113-3.233
			c0.31-0.901-0.168-1.882-1.069-2.192c-4.277-1.473-4.998-2.017-5.996-1.53c-0.993,0.484-1.061,1.53-1.988,4.222
			c-0.846-0.026-1.697,0.025-2.533,0.152l-1.498-3.071c-0.417-0.855-1.451-1.211-2.306-0.794l-4.448,2.169
			c-0.855,0.417-1.211,1.451-0.794,2.306l1.498,3.071c-0.614,0.58-1.178,1.219-1.679,1.902c-5.622-1.936-4.684-2.196-7.036,4.634
			c-0.741,2.153,2.114,2.552,4.302,3.305c-0.026,0.846,0.025,1.697,0.152,2.533l-3.071,1.498c-0.855,0.417-1.211,1.451-0.794,2.306
			c3.241,6.645,2.332,6.287,7.546,3.744c0.581,0.614,1.219,1.179,1.902,1.679c-1.926,5.594-2.222,4.675,4.635,7.036
			c0.435,0.15,0.903,0.121,1.318-0.081c0.993-0.484,1.061-1.53,1.988-4.222c0.846,0.026,1.697-0.025,2.533-0.152
			c2.581,5.292,1.719,4.882,8.251,1.696c0.855-0.417,1.211-1.451,0.794-2.306l-1.498-3.071c0.614-0.58,1.178-1.219,1.679-1.902
			c2.186,0.753,4.684,2.197,5.425,0.044c2.402-6.976,2.734-6.116-2.691-7.984c0.026-0.846-0.025-1.697-0.152-2.533
			c5.292-2.581,4.882-1.719,1.696-8.251C163.387,77.592,162.353,77.236,161.498,77.653z M155.619,85.192
			c2.002,4.104,0.291,9.071-3.813,11.072s-9.071,0.291-11.072-3.813c-2.002-4.104-0.291-9.071,3.813-11.072
			C148.65,79.378,153.617,81.088,155.619,85.192z"/>
	</g>
	<g>
		<path class="st9" d="M144.276,80.825c-4.409,2.151-6.247,7.488-4.096,11.897c2.151,4.41,7.488,6.247,11.897,4.097
			c4.41-2.151,6.247-7.488,4.097-11.898C154.023,80.512,148.685,78.674,144.276,80.825z M150.221,93.014
			c-2.312,1.128-5.11,0.164-6.238-2.148c-1.128-2.312-0.164-5.109,2.148-6.237s5.11-0.165,6.237,2.147
			S152.533,91.887,150.221,93.014z"/>
	</g>
</g>
</svg>
