<?xml version="1.0" encoding="utf-8"?>
<!-- Generator: Adobe Illustrator 22.1.0, SVG Export Plug-In . SVG Version: 6.00 Build 0)  -->
<svg version="1.1" id="Layer_1" xmlns="http://www.w3.org/2000/svg" xmlns:xlink="http://www.w3.org/1999/xlink" x="0px" y="0px"
	 viewBox="0 0 256 256" style="enable-background:new 0 0 256 256;" xml:space="preserve">
<style type="text/css">
	.st0{fill:#4671C6;}
	.st1{fill:#F9CFCF;}
	.st2{fill:#F9A7A7;}
	.st3{fill:#A4C9FF;}
	.st4{fill:#3762CC;}
	.st5{fill:#E0EBFC;}
	.st6{fill:#6BDDDD;}
	.st7{fill:#B9BEFC;}
	.st8{fill:#FFEA92;}
	.st9{fill:#EAA97D;}
	.st10{fill:#FFEA94;}
	.st11{fill:#FFE164;}
	.st12{fill:#FFDC85;}
	.st13{fill:#FFFFFF;}
	.st14{fill:#383838;}
</style>
<g>
	<g>
		<path class="st1" d="M112.991,90.699l-29.023,0c-24.847,0-44.989,19.302-44.989,43.111l0,33.065c0,1.592-1.347,2.882-3.008,2.882
			h0c-4.394,0-8.318,3.078-8.736,7.27c-0.479,4.809,3.455,8.854,8.374,8.854h3.37l0,7.976c0,23.81,20.142,43.111,44.989,43.111
			l29.023,0c27.453,0,49.708-21.326,49.708-47.633l0-51.004C162.699,112.025,140.444,90.699,112.991,90.699z"/>
	</g>
	<g>
		<path class="st4" d="M112.991,238.97H83.968c-25.91,0-46.989-20.237-46.989-45.111v-5.977h-1.37c-3.003,0-5.861-1.253-7.839-3.438
			c-1.907-2.106-2.803-4.811-2.524-7.614c0.507-5.087,5.218-9.071,10.726-9.071c0.556,0,1.007-0.396,1.007-0.883v-33.064
			c0-24.874,21.079-45.111,46.989-45.111h29.023c28.512,0,51.708,22.266,51.708,49.633v51.004
			C164.699,216.704,141.503,238.97,112.991,238.97z M83.968,92.699c-23.705,0-42.989,18.442-42.989,41.111v33.064
			c0,2.692-2.246,4.883-5.007,4.883c-3.477,0-6.44,2.401-6.746,5.468c-0.166,1.665,0.37,3.275,1.509,4.533
			c1.222,1.349,2.998,2.123,4.874,2.123h3.37c1.104,0,2,0.896,2,2v7.977c0,22.669,19.285,41.111,42.989,41.111h29.023
			c26.306,0,47.708-20.472,47.708-45.634v-51.004c0-25.162-21.401-45.633-47.708-45.633H83.968z"/>
	</g>
	<g>
		<path class="st4" d="M40.116,205.936c-1.104,0-2-0.896-2-2s0.896-2,2-2c8.266,0,11.359,0,16.069-7.626
			c0.581-0.938,1.813-1.233,2.752-0.65c0.94,0.58,1.231,1.813,0.651,2.752C53.706,205.936,48.591,205.936,40.116,205.936z"/>
	</g>
	<g>
		<path class="st4" d="M60.237,163.9c-4.132,0-7.494-3.356-7.494-7.482v-12.471c0-4.126,3.361-7.483,7.494-7.483
			c4.131,0,7.492,3.357,7.492,7.483v12.471C67.729,160.543,64.368,163.9,60.237,163.9z"/>
	</g>
	<g>
		<path class="st0" d="M186.706,114.177l-0.002,0.004c-4.415-17.802-16.494-32.781-32.739-41.616c0.001-0.002,0.01-0.015,0.01-0.015
			c-20.4-12.302-52.04-10.644-69.95-8.379c-4.036,0.377-8.64,1.05-13.554,2.208c-0.004,0.001-0.015,0.003-0.015,0.003l0.001,0
			c-16.145,3.805-35.59,12.828-48.915,33.686c-0.693,1.085,0.131,2.481,1.465,2.481h9.757c0,0-11.137,6.879-12.49,20.67
			c-0.098,0.997,0.856,1.794,1.867,1.575c8.671-1.875,44.253-8.506,78.888,0.344c1.791,0.458,3.049,2.014,3.049,3.805
			c0,11.707-0.021,2.299,0.138,52.979l8.529,24.716c0.813,2.356,2.63,4.362,5.458,5.393c24.532,8.953,22.719,8.339,23.795,8.567
			l0.001,0.006c4.971,2.021,3.592,1.526,6.265,2.296c0,0,23.508-16.814,32.212-37.617
			C191.117,162.94,192.268,136.46,186.706,114.177z"/>
	</g>
	<g>
		<path class="st4" d="M148.261,224.899c-0.186,0-0.372-0.025-0.554-0.078l-0.938-0.267c-1.264-0.355-1.346-0.389-3.438-1.246
			l-1.943-0.793c-0.701-0.139-0.949-0.229-10.783-3.824l-13.091-4.782c-3.229-1.178-5.596-3.529-6.663-6.62l-8.529-24.715
			c-0.072-0.208-0.109-0.426-0.109-0.646l-0.073-23.163c-0.066-21.01-0.066-21.01-0.065-26.375l0-3.446
			c0-0.867-0.635-1.636-1.544-1.868c-33.806-8.637-68.226-2.434-77.97-0.326c-1.115,0.241-2.288-0.066-3.136-0.822
			c-0.835-0.744-1.252-1.802-1.145-2.903c0.862-8.788,5.37-14.919,8.931-18.475h-4.208c-1.371,0-2.625-0.735-3.273-1.919
			c-0.636-1.162-0.59-2.522,0.124-3.639c14.133-22.124,35.068-31.003,50.141-34.556c0.019-0.005,0.037-0.009,0.056-0.013
			c4.471-1.052,9.109-1.807,13.787-2.243c17.498-2.215,50.106-4.044,71.169,8.657c0.052,0.031,0.102,0.064,0.15,0.1
			c16.805,9.223,28.988,24.751,33.461,42.654c0.01,0.033,0.02,0.067,0.028,0.102c6.15,24.64,3.829,51.047-6.368,72.45
			c-8.783,20.996-31.875,37.684-32.854,38.384C149.082,224.771,148.674,224.899,148.261,224.899z M142.882,218.805l1.965,0.803
			c1.962,0.803,1.962,0.803,3.006,1.097l0.007,0.002c4.067-3.075,23.259-18.251,30.768-36.196
			c9.83-20.638,12.061-46.019,6.164-69.743c-0.011-0.034-0.021-0.069-0.029-0.104c-4.202-16.947-15.776-31.65-31.753-40.341
			c-0.103-0.056-0.2-0.12-0.291-0.192c-20.039-11.93-51.458-10.122-68.443-7.974c-4.574,0.428-9.042,1.156-13.347,2.17
			c-0.019,0.005-0.037,0.009-0.055,0.013c-20.623,4.876-36.511,15.71-47.263,32.211h9.151c0.894,0,1.68,0.594,1.924,1.454
			c0.244,0.859-0.112,1.777-0.873,2.247c-0.097,0.062-9.933,6.33-11.471,18.455c10.738-2.267,45.218-8.182,79.18,0.495
			c2.681,0.686,4.553,3.047,4.553,5.743l0,3.447c-0.001,5.362-0.001,5.362,0.065,26.361l0.072,22.831l8.42,24.401
			c0.471,1.365,1.592,3.196,4.252,4.167l13.093,4.783c9.055,3.31,9.794,3.58,10.237,3.667l0.193,0.039
			C142.576,218.676,142.734,218.731,142.882,218.805z"/>
	</g>
	<g>
		<circle class="st1" cx="107.96" cy="156.256" r="21.924"/>
	</g>
	<g>
		<path class="st1" d="M112.991,236.969c-31.308,0-32.747,0.344-39.425-1.171v10.644c0,0.826,0.669,1.495,1.495,1.495h54.982
			c0.826,0,1.495-0.669,1.495-1.495v-12.913C125.805,235.74,119.55,236.969,112.991,236.969z"/>
	</g>
	<g>
		<path class="st4" d="M130.043,249.938H75.061c-1.927,0-3.495-1.568-3.495-3.495v-10.645c0-0.608,0.277-1.184,0.752-1.563
			c0.476-0.38,1.096-0.521,1.691-0.388c5.243,1.189,7.078,1.183,24.655,1.143c3.929-0.009,8.634-0.021,14.327-0.021
			c6.141,0,12.138-1.112,17.827-3.307c0.615-0.237,1.307-0.155,1.851,0.217c0.544,0.373,0.869,0.99,0.869,1.649v12.913
			C133.538,248.369,131.97,249.938,130.043,249.938z M75.566,245.938h53.971v-9.576c-5.33,1.731-10.882,2.608-16.546,2.608
			c-5.689,0-10.391,0.012-14.318,0.021c-14.903,0.038-18.81,0.047-23.107-0.735V245.938z"/>
	</g>
	<g>
		<path class="st3" d="M179.914,8.063l-3.407,0.002c-30.814,0.015-55.781,25.007-55.766,55.821l0,0
			c0.009,18.392,8.921,34.698,22.654,44.855l-1.801,19.094c-0.289,3.064,2.969,5.202,5.666,3.717l22.398-12.338
			c38.798,4.771,66.092-23.314,66.076-55.385l0,0C235.72,33.015,210.728,8.048,179.914,8.063z"/>
	</g>
	<g>
		<path class="st4" d="M145.41,134.029c-1.116,0-2.229-0.321-3.2-0.959c-1.812-1.188-2.811-3.267-2.607-5.424l1.696-17.982
			c-14.138-10.897-22.549-27.923-22.558-45.777c-0.016-31.867,25.897-57.806,57.765-57.822l3.407-0.002l0,0c0.008,0,0.02,0,0.028,0
			c31.857,0,57.778,25.906,57.794,57.766c0.008,16.55-7.05,32.293-19.364,43.19c-12.774,11.305-29.911,16.359-48.31,14.257
			l-21.836,12.028C147.344,133.788,146.375,134.029,145.41,134.029z M179.915,10.063l-3.407,0.002
			c-29.662,0.015-53.781,24.159-53.767,53.82c0.009,16.971,8.174,33.138,21.844,43.247c0.563,0.417,0.868,1.099,0.802,1.796
			l-1.801,19.094c-0.094,0.992,0.542,1.522,0.819,1.705c0.278,0.183,1.018,0.554,1.89,0.073l22.398-12.338
			c0.368-0.202,0.789-0.285,1.209-0.233c17.493,2.151,33.764-2.539,45.817-13.205c11.457-10.139,18.022-24.789,18.015-40.193
			c-0.015-29.652-24.145-53.768-53.794-53.768C179.932,10.063,179.924,10.063,179.915,10.063L179.915,10.063z"/>
	</g>
	<g>
		<path class="st10" d="M195.267,71.592c3.438-3.755,5.536-8.756,5.536-14.248c0-11.658-9.451-21.108-21.108-21.108
			c-18.453,0-27.83,21.967-15.572,35.357h-0.055c3.784,4.48,5.842,10.233,5.574,16.359c2.899,0,1.778,0,8.998,0
			c9.435,0,6.835,0,11.109,0c-0.268-6.116,1.783-11.872,5.574-16.359H195.267z"/>
	</g>
	<g>
		<path class="st1" d="M186.721,87.951V62.766l-5.939-8.61c-0.397-0.576-1.249-0.576-1.646,0l-5.939,8.61l0,25.185H186.721z"/>
	</g>
	<g>
		<path class="st11" d="M202.566,38.4l6.926-6.926c1.234-1.234,1.234-3.236,0-4.47l-0.089-0.089c-1.234-1.234-3.236-1.234-4.47,0
			l-6.926,6.926C195.025,36.825,199.589,41.378,202.566,38.4z"/>
	</g>
	<g>
		<path class="st11" d="M179.753,31.067h-0.117c-1.748,0-3.165-1.417-3.165-3.165v-9.83c0-4.221,6.447-4.171,6.447,0v9.83
			C182.918,29.65,181.501,31.067,179.753,31.067z"/>
	</g>
	<g>
		<path class="st11" d="M161.681,38.312l-0.089,0.089c-1.234,1.234-3.236,1.234-4.47,0l-6.926-6.926
			c-1.234-1.234-1.234-3.236,0-4.47l0.089-0.089c1.234-1.234,3.236-1.234,4.47,0l6.926,6.926
			C162.915,35.076,162.915,37.078,161.681,38.312z"/>
	</g>
	<g>
		<path class="st12" d="M209.419,46.028h9.795c1.746,0,3.161,1.415,3.161,3.161v0.125c0,1.746-1.415,3.161-3.161,3.161h-9.795
			C205.2,52.475,205.208,46.028,209.419,46.028z"/>
	</g>
	<g>
		<path class="st11" d="M137.015,49.314v-0.125c0-1.746,1.415-3.161,3.161-3.161h9.795c1.746,0,3.161,1.415,3.161,3.161v0.125
			c0,1.746-1.415,3.161-3.161,3.161h-9.795C138.43,52.475,137.015,51.06,137.015,49.314z"/>
	</g>
	<g>
		<path class="st0" d="M190.148,94.283h-20.907c-0.639,0-1.156-0.518-1.156-1.156c0-3.623-0.339-5.176,1.156-5.176h20.907
			c0.639,0,1.156,0.518,1.156,1.156C191.305,92.73,191.644,94.283,190.148,94.283z"/>
	</g>
	<g>
		<path class="st0" d="M188.421,100.616h-16.925c-1.01,0-1.828-0.818-1.828-1.828v-4.504h20.581v4.504
			C190.249,99.797,189.431,100.616,188.421,100.616z"/>
	</g>
	<g>
		<path class="st0" d="M181.806,109.059h-4.222c-3.497,0-6.333-2.835-6.333-6.333v-2.111h16.887v2.111
			C188.138,106.224,185.303,109.059,181.806,109.059z"/>
	</g>
	<g>
		<path class="st2" d="M186.721,87.951V62.788c-1.249-0.18-2.299,1.946-3.476,1.946v23.217H186.721z"/>
	</g>
	<g>
		<path class="st2" d="M183.245,87.951V64.734c-0.256,0-0.511-0.073-0.694-0.22l-1.899-1.52c-0.366-0.293-1.022-0.293-1.388,0
			l-1.899,1.52c-0.183,0.147-0.438,0.22-0.694,0.22v23.217H183.245z"/>
	</g>
	<g>
		<path class="st2" d="M176.672,87.951V64.734c-0.256,0-0.511-0.073-0.694-0.22c-1.685-1.349-1.993-1.84-2.782-1.726v25.163H176.672
			z"/>
	</g>
	<g>
		<path class="st2" d="M183.175,57.625l-2.393-3.469c-0.397-0.576-1.249-0.576-1.646,0l-2.393,3.469H183.175z"/>
	</g>
</g>
</svg>
