<?xml version="1.0" encoding="utf-8"?>
<!-- Generator: Adobe Illustrator 22.1.0, SVG Export Plug-In . SVG Version: 6.00 Build 0)  -->
<svg version="1.1" id="Layer_1" xmlns="http://www.w3.org/2000/svg" xmlns:xlink="http://www.w3.org/1999/xlink" x="0px" y="0px"
	 viewBox="0 0 256 256" style="enable-background:new 0 0 256 256;" xml:space="preserve">
<style type="text/css">
	.st0{fill:#4671C6;}
	.st1{fill:#F9CFCF;}
	.st2{fill:#F9A7A7;}
	.st3{fill:#A4C9FF;}
	.st4{fill:#3762CC;}
	.st5{fill:#E0EBFC;}
	.st6{fill:#6BDDDD;}
	.st7{fill:#B9BEFC;}
	.st8{fill:#FFEA92;}
	.st9{fill:#EAA97D;}
	.st10{fill:#FFEA94;}
	.st11{fill:#FFE164;}
	.st12{fill:#FFDC85;}
	.st13{fill:#FFFFFF;}
	.st14{fill:#383838;}
</style>
<g>
	<g>
		<rect x="60.8" y="16" class="st5" width="44.8" height="44.8"/>
	</g>
	<g>
		<rect x="105.6" y="16" class="st5" width="44.8" height="44.8"/>
	</g>
	<g>
		<rect x="150.4" y="16" class="st5" width="44.8" height="44.8"/>
	</g>
	<g>
		<rect x="16" y="60.8" class="st5" width="44.8" height="44.8"/>
	</g>
	<g>
		<rect x="60.8" y="60.8" class="st0" width="44.8" height="44.8"/>
	</g>
	<g>
		<rect x="105.6" y="60.8" class="st5" width="44.8" height="44.8"/>
	</g>
	<g>
		<rect x="150.4" y="60.8" class="st0" width="44.8" height="44.8"/>
	</g>
	<g>
		<rect x="195.2" y="60.8" class="st0" width="44.8" height="44.8"/>
	</g>
	<g>
		<rect x="16" y="105.6" class="st5" width="44.8" height="44.8"/>
	</g>
	<g>
		<rect x="60.8" y="105.6" class="st5" width="44.8" height="44.8"/>
	</g>
	<g>
		<rect x="105.6" y="105.6" class="st5" width="44.8" height="44.8"/>
	</g>
	<g>
		<rect x="150.4" y="105.6" class="st5" width="44.8" height="44.8"/>
	</g>
	<g>
		<rect x="195.2" y="105.6" class="st5" width="44.8" height="44.8"/>
	</g>
	<g>
		<rect x="16" y="150.4" class="st5" width="44.8" height="44.8"/>
	</g>
	<g>
		<rect x="60.8" y="150.4" class="st0" width="44.8" height="44.8"/>
	</g>
	<g>
		<rect x="105.6" y="150.4" class="st5" width="44.8" height="44.8"/>
	</g>
	<g>
		<rect x="150.4" y="150.4" class="st0" width="44.8" height="44.8"/>
	</g>
	<g>
		<rect x="195.2" y="150.4" class="st5" width="44.8" height="44.8"/>
	</g>
	<g>
		<rect x="60.8" y="195.2" class="st5" width="44.8" height="44.8"/>
	</g>
	<g>
		<rect x="105.6" y="195.2" class="st0" width="44.8" height="44.8"/>
	</g>
	<g>
		<rect x="150.4" y="195.2" class="st0" width="44.8" height="44.8"/>
	</g>
	<g>
		<path class="st0" d="M228,16h-32.8v44.8H240V28C240,21.373,234.627,16,228,16z"/>
	</g>
	<g>
		<path class="st0" d="M16,28v32.8h44.8V16H28C21.373,16,16,21.373,16,28z"/>
	</g>
	<g>
		<path class="st5" d="M28,240h32.8v-44.8H16V228C16,234.627,21.373,240,28,240z"/>
	</g>
	<g>
		<path class="st0" d="M240,228v-32.8h-44.8V240H228C234.627,240,240,234.627,240,228z"/>
	</g>
	<g>
		<path class="st0" d="M138.547,26.73c-0.285,0.868-0.265,0.936-3.087,13.517c-3.698-13.652-3.49-13.707-4.885-14.934
			c-1.267-1.115-3.778-1.108-5.082-0.046c-1.523,1.24-1.35,1.528-4.957,14.965c-2.844-12.679-2.861-13.189-3.528-14.427
			c-0.861-1.602-3.468-1.791-4.873-0.421c-1.219,1.188-2.062,0.748,4.127,23.443c1.243,4.604,5.159,3.724,6.369,2.707
			c1.407-1.185,1.181-1.154,5.391-16.572c3.291,12.204,3.655,13.669,4.127,14.924c1.188,3.161,6.032,3.428,7.286-0.118
			c0.367-1.036,5.366-20.697,5.366-22.145C144.801,24.131,139.726,23.128,138.547,26.73z"/>
	</g>
	<g>
		<path class="st0" d="M135.085,70.984c-3.733-2.111-9.083-2.163-12.658-0.739c-10.385,4.129-10.253,21.688-0.042,25.856
			c5.428,2.215,15.084,1.496,18.008-7.336C141.891,84.234,142.094,74.951,135.085,70.984z M125.395,75.487
			c3.014-1.337,9.012-0.54,9.012,7.644c0,7.828-5.54,9.291-8.926,7.79C120.232,88.599,120.257,77.767,125.395,75.487z"/>
	</g>
	<g>
		<path class="st0" d="M133.541,129.322c8.199-2.848,6.633-13.893-1.535-14.874c-1.651-0.197-2.508-0.153-11.409-0.153
			c-2.654,0-3.956,1.297-3.956,3.956c0,21.131-0.291,21.008,0.867,22.371c1.523,1.798,5.887,1.716,5.887-2.858v-7.34
			c4.031,0,3.867,0.111,8.378,7.617c0.904,1.508,1.396,2.421,2.396,3.113c1.96,1.355,5.194,0.128,5.194-2.316
			C139.361,137.184,136.431,131.718,133.541,129.322z M123.394,119.769c5.13,0,8.696-0.539,8.696,2.635
			c0,3.038-3.18,2.721-8.696,2.721V119.769z"/>
	</g>
	<g>
		<path class="st0" d="M135.149,161.804c-3.401-2.977-7.127-2.501-15.097-2.501c-2.661,0-3.956,1.303-3.956,3.956
			c0,25.718-2.353,23.02,10.755,23.02c2.163,0,4.193-0.213,6.08-1.077C141.057,181.486,141.359,167.119,135.149,161.804z
			 M122.848,164.984c5.718,0,9.717-0.503,9.717,7.704c0,8.828-4.548,7.894-9.717,7.894V164.984z"/>
	</g>
	<g>
		<path class="st4" d="M105.6,62.8H60.8c-1.104,0-2-0.896-2-2V16c0-1.104,0.896-2,2-2h44.8c1.104,0,2,0.896,2,2v44.8
			C107.6,61.904,106.705,62.8,105.6,62.8z M62.8,58.8h40.8V18H62.8V58.8z"/>
	</g>
	<g>
		<path class="st4" d="M150.4,62.8h-44.8c-1.104,0-2-0.896-2-2V16c0-1.104,0.896-2,2-2h44.8c1.104,0,2,0.896,2,2v44.8
			C152.4,61.904,151.504,62.8,150.4,62.8z M107.6,58.8h40.8V18h-40.8V58.8z"/>
	</g>
	<g>
		<path class="st4" d="M195.2,62.8h-44.8c-1.104,0-2-0.896-2-2V16c0-1.104,0.896-2,2-2h44.8c1.104,0,2,0.896,2,2v44.8
			C197.2,61.904,196.305,62.8,195.2,62.8z M152.4,58.8h40.8V18h-40.8V58.8z"/>
	</g>
	<g>
		<path class="st4" d="M60.8,107.6H16c-1.104,0-2-0.896-2-2V60.8c0-1.104,0.896-2,2-2h44.8c1.104,0,2,0.896,2,2v44.8
			C62.8,106.704,61.904,107.6,60.8,107.6z M18,103.6h40.8V62.8H18V103.6z"/>
	</g>
	<g>
		<path class="st4" d="M105.6,107.6H60.8c-1.104,0-2-0.896-2-2V60.8c0-1.104,0.896-2,2-2h44.8c1.104,0,2,0.896,2,2v44.8
			C107.6,106.704,106.705,107.6,105.6,107.6z M62.8,103.6h40.8V62.8H62.8V103.6z"/>
	</g>
	<g>
		<path class="st4" d="M150.4,107.6h-44.8c-1.104,0-2-0.896-2-2V60.8c0-1.104,0.896-2,2-2h44.8c1.104,0,2,0.896,2,2v44.8
			C152.4,106.704,151.504,107.6,150.4,107.6z M107.6,103.6h40.8V62.8h-40.8V103.6z"/>
	</g>
	<g>
		<path class="st4" d="M195.2,107.6h-44.8c-1.104,0-2-0.896-2-2V60.8c0-1.104,0.896-2,2-2h44.8c1.104,0,2,0.896,2,2v44.8
			C197.2,106.704,196.305,107.6,195.2,107.6z M152.4,103.6h40.8V62.8h-40.8V103.6z"/>
	</g>
	<g>
		<path class="st4" d="M240,107.6h-44.8c-1.104,0-2-0.896-2-2V60.8c0-1.104,0.896-2,2-2H240c1.104,0,2,0.896,2,2v44.8
			C242,106.704,241.104,107.6,240,107.6z M197.2,103.6H238V62.8h-40.8V103.6z"/>
	</g>
	<g>
		<path class="st4" d="M60.8,152.4H16c-1.104,0-2-0.896-2-2V105.6c0-1.104,0.896-2,2-2h44.8c1.104,0,2,0.896,2,2V150.4
			C62.8,151.505,61.904,152.4,60.8,152.4z M18,148.4h40.8V107.6H18V148.4z"/>
	</g>
	<g>
		<path class="st4" d="M105.6,152.4H60.8c-1.104,0-2-0.896-2-2V105.6c0-1.104,0.896-2,2-2h44.8c1.104,0,2,0.896,2,2V150.4
			C107.6,151.505,106.705,152.4,105.6,152.4z M62.8,148.4h40.8V107.6H62.8V148.4z"/>
	</g>
	<g>
		<path class="st4" d="M150.4,152.4h-44.8c-1.104,0-2-0.896-2-2V105.6c0-1.104,0.896-2,2-2h44.8c1.104,0,2,0.896,2,2V150.4
			C152.4,151.505,151.504,152.4,150.4,152.4z M107.6,148.4h40.8V107.6h-40.8V148.4z"/>
	</g>
	<g>
		<path class="st4" d="M195.2,152.4h-44.8c-1.104,0-2-0.896-2-2V105.6c0-1.104,0.896-2,2-2h44.8c1.104,0,2,0.896,2,2V150.4
			C197.2,151.505,196.305,152.4,195.2,152.4z M152.4,148.4h40.8V107.6h-40.8V148.4z"/>
	</g>
	<g>
		<path class="st4" d="M240,152.4h-44.8c-1.104,0-2-0.896-2-2V105.6c0-1.104,0.896-2,2-2H240c1.104,0,2,0.896,2,2V150.4
			C242,151.505,241.104,152.4,240,152.4z M197.2,148.4H238V107.6h-40.8V148.4z"/>
	</g>
	<g>
		<path class="st4" d="M60.8,197.2H16c-1.104,0-2-0.896-2-2v-44.8c0-1.104,0.896-2,2-2h44.8c1.104,0,2,0.896,2,2v44.8
			C62.8,196.305,61.904,197.2,60.8,197.2z M18,193.2h40.8v-40.8H18V193.2z"/>
	</g>
	<g>
		<path class="st4" d="M105.6,197.2H60.8c-1.104,0-2-0.896-2-2v-44.8c0-1.104,0.896-2,2-2h44.8c1.104,0,2,0.896,2,2v44.8
			C107.6,196.305,106.705,197.2,105.6,197.2z M62.8,193.2h40.8v-40.8H62.8V193.2z"/>
	</g>
	<g>
		<path class="st4" d="M150.4,197.2h-44.8c-1.104,0-2-0.896-2-2v-44.8c0-1.104,0.896-2,2-2h44.8c1.104,0,2,0.896,2,2v44.8
			C152.4,196.305,151.504,197.2,150.4,197.2z M107.6,193.2h40.8v-40.8h-40.8V193.2z"/>
	</g>
	<g>
		<path class="st4" d="M195.2,197.2h-44.8c-1.104,0-2-0.896-2-2v-44.8c0-1.104,0.896-2,2-2h44.8c1.104,0,2,0.896,2,2v44.8
			C197.2,196.305,196.305,197.2,195.2,197.2z M152.4,193.2h40.8v-40.8h-40.8V193.2z"/>
	</g>
	<g>
		<path class="st4" d="M240,197.2h-44.8c-1.104,0-2-0.896-2-2v-44.8c0-1.104,0.896-2,2-2H240c1.104,0,2,0.896,2,2v44.8
			C242,196.305,241.104,197.2,240,197.2z M197.2,193.2H238v-40.8h-40.8V193.2z"/>
	</g>
	<g>
		<path class="st4" d="M105.6,242H60.8c-1.104,0-2-0.896-2-2v-44.8c0-1.104,0.896-2,2-2h44.8c1.104,0,2,0.896,2,2V240
			C107.6,241.104,106.705,242,105.6,242z M62.8,238h40.8v-40.8H62.8V238z"/>
	</g>
	<g>
		<path class="st4" d="M150.4,242h-44.8c-1.104,0-2-0.896-2-2v-44.8c0-1.104,0.896-2,2-2h44.8c1.104,0,2,0.896,2,2V240
			C152.4,241.104,151.504,242,150.4,242z M107.6,238h40.8v-40.8h-40.8V238z"/>
	</g>
	<g>
		<path class="st4" d="M195.2,242h-44.8c-1.104,0-2-0.896-2-2v-44.8c0-1.104,0.896-2,2-2h44.8c1.104,0,2,0.896,2,2V240
			C197.2,241.104,196.305,242,195.2,242z M152.4,238h40.8v-40.8h-40.8V238z"/>
	</g>
	<g>
		<path class="st4" d="M240,62.8h-44.8c-1.104,0-2-0.896-2-2V16c0-1.104,0.896-2,2-2H228c7.72,0,14,6.28,14,14v32.8
			C242,61.904,241.104,62.8,240,62.8z M197.2,58.8H238V28c0-5.514-4.486-10-10-10h-30.8V58.8z"/>
	</g>
	<g>
		<path class="st4" d="M60.8,62.8H16c-1.104,0-2-0.896-2-2V28c0-7.72,6.28-14,14-14h32.8c1.104,0,2,0.896,2,2v44.8
			C62.8,61.904,61.904,62.8,60.8,62.8z M18,58.8h40.8V18H28c-5.514,0-10,4.486-10,10V58.8z"/>
	</g>
	<g>
		<path class="st4" d="M60.8,242H28c-7.72,0-14-6.28-14-14v-32.8c0-1.104,0.896-2,2-2h44.8c1.104,0,2,0.896,2,2V240
			C62.8,241.104,61.904,242,60.8,242z M18,197.2V228c0,5.514,4.486,10,10,10h30.8v-40.8H18z"/>
	</g>
	<g>
		<path class="st4" d="M228,242h-32.8c-1.104,0-2-0.896-2-2v-44.8c0-1.104,0.896-2,2-2H240c1.104,0,2,0.896,2,2V228
			C242,235.72,235.72,242,228,242z M197.2,238H228c5.514,0,10-4.486,10-10v-30.8h-40.8V238z"/>
	</g>
</g>
</svg>
