<?xml version="1.0" encoding="utf-8"?>
<!-- Generator: Adobe Illustrator 22.1.0, SVG Export Plug-In . SVG Version: 6.00 Build 0)  -->
<svg version="1.1" id="Layer_1" xmlns="http://www.w3.org/2000/svg" xmlns:xlink="http://www.w3.org/1999/xlink" x="0px" y="0px"
	 viewBox="0 0 256 256" style="enable-background:new 0 0 256 256;" xml:space="preserve">
<style type="text/css">
	.st0{fill:#4671C6;}
	.st1{fill:#F9CFCF;}
	.st2{fill:#F9A7A7;}
	.st3{fill:#A4C9FF;}
	.st4{fill:#3762CC;}
	.st5{fill:#E0EBFC;}
	.st6{fill:#6BDDDD;}
	.st7{fill:#B9BEFC;}
	.st8{fill:#FFEA92;}
	.st9{fill:#EAA97D;}
	.st10{fill:#FFEA94;}
	.st11{fill:#FFE164;}
	.st12{fill:#FFDC85;}
	.st13{fill:#FFFFFF;}
	.st14{fill:#383838;}
</style>
<g>
	<g>
		<path class="st0" d="M66.085,228.487V27.513c0-1.914,1.551-3.465,3.465-3.465h174.985c1.914,0,3.465,1.551,3.465,3.465v200.973
			c0,1.914-1.551,3.465-3.465,3.465H69.55C67.636,231.952,66.085,230.4,66.085,228.487z"/>
	</g>
	<g>
		
			<rect x="94.383" y="24.048" transform="matrix(-1 -1.224647e-16 1.224647e-16 -1 314.0847 256)" class="st3" width="125.319" height="207.903"/>
	</g>
	<g>
		<path class="st3" d="M226.199,47.871V34.877c0-0.957,0.776-1.733,1.733-1.733h12.994c0.957,0,1.733,0.776,1.733,1.733v12.994
			c0,0.957-0.776,1.733-1.733,1.733h-12.994C226.975,49.603,226.199,48.827,226.199,47.871z"/>
	</g>
	<g>
		<path class="st3" d="M226.199,82.521V69.527c0-0.957,0.776-1.733,1.733-1.733h12.994c0.957,0,1.733,0.776,1.733,1.733v12.994
			c0,0.957-0.776,1.733-1.733,1.733h-12.994C226.975,84.254,226.199,83.478,226.199,82.521z"/>
	</g>
	<g>
		<path class="st3" d="M226.199,117.172v-12.994c0-0.957,0.776-1.733,1.733-1.733h12.994c0.957,0,1.733,0.776,1.733,1.733v12.994
			c0,0.957-0.776,1.733-1.733,1.733h-12.994C226.975,118.904,226.199,118.129,226.199,117.172z"/>
	</g>
	<g>
		<path class="st3" d="M226.199,151.822v-12.994c0-0.957,0.776-1.733,1.733-1.733h12.994c0.957,0,1.733,0.776,1.733,1.733v12.994
			c0,0.957-0.776,1.733-1.733,1.733h-12.994C226.975,153.555,226.199,152.779,226.199,151.822z"/>
	</g>
	<g>
		<path class="st3" d="M226.199,186.473v-12.994c0-0.957,0.776-1.733,1.733-1.733h12.994c0.957,0,1.733,0.776,1.733,1.733v12.994
			c0,0.957-0.776,1.733-1.733,1.733h-12.994C226.975,188.205,226.199,187.43,226.199,186.473z"/>
	</g>
	<g>
		<path class="st3" d="M226.199,221.123v-12.994c0-0.957,0.776-1.733,1.733-1.733h12.994c0.957,0,1.733,0.776,1.733,1.733v12.994
			c0,0.957-0.776,1.733-1.733,1.733h-12.994C226.975,222.856,226.199,222.08,226.199,221.123z"/>
	</g>
	<g>
		<path class="st4" d="M240.925,51.604h-12.994c-2.058,0-3.732-1.675-3.732-3.732V34.877c0-2.058,1.674-3.732,3.732-3.732h12.994
			c2.058,0,3.733,1.675,3.733,3.732v12.994C244.658,49.929,242.983,51.604,240.925,51.604z M228.199,47.604h12.459V35.145h-12.459
			V47.604z"/>
	</g>
	<g>
		<path class="st4" d="M240.925,86.254h-12.994c-2.058,0-3.732-1.675-3.732-3.732V69.527c0-2.058,1.674-3.732,3.732-3.732h12.994
			c2.058,0,3.733,1.675,3.733,3.732v12.994C244.658,84.579,242.983,86.254,240.925,86.254z M228.199,82.254h12.459V69.795h-12.459
			V82.254z"/>
	</g>
	<g>
		<path class="st4" d="M240.925,120.904h-12.994c-2.058,0-3.732-1.675-3.732-3.732v-12.994c0-2.058,1.674-3.732,3.732-3.732h12.994
			c2.058,0,3.733,1.675,3.733,3.732v12.994C244.658,119.229,242.983,120.904,240.925,120.904z M228.199,116.904h12.459v-12.459
			h-12.459V116.904z"/>
	</g>
	<g>
		<path class="st4" d="M240.925,155.555h-12.994c-2.058,0-3.732-1.675-3.732-3.732v-12.994c0-2.058,1.674-3.732,3.732-3.732h12.994
			c2.058,0,3.733,1.675,3.733,3.732v12.994C244.658,153.88,242.983,155.555,240.925,155.555z M228.199,151.555h12.459v-12.459
			h-12.459V151.555z"/>
	</g>
	<g>
		<path class="st4" d="M240.925,190.205h-12.994c-2.058,0-3.732-1.675-3.732-3.732v-12.994c0-2.058,1.674-3.732,3.732-3.732h12.994
			c2.058,0,3.733,1.675,3.733,3.732v12.994C244.658,188.53,242.983,190.205,240.925,190.205z M228.199,186.205h12.459v-12.459
			h-12.459V186.205z"/>
	</g>
	<g>
		<path class="st4" d="M240.925,224.855h-12.994c-2.058,0-3.732-1.675-3.732-3.732v-12.994c0-2.058,1.674-3.732,3.732-3.732h12.994
			c2.058,0,3.733,1.675,3.733,3.732v12.994C244.658,223.181,242.983,224.855,240.925,224.855z M228.199,220.855h12.459v-12.459
			h-12.459V220.855z"/>
	</g>
	<g>
		<path class="st3" d="M72.004,47.871V34.877c0-0.957,0.776-1.733,1.733-1.733h12.994c0.957,0,1.733,0.776,1.733,1.733v12.994
			c0,0.957-0.776,1.733-1.733,1.733H73.737C72.78,49.603,72.004,48.827,72.004,47.871z"/>
	</g>
	<g>
		<path class="st3" d="M72.004,82.521V69.527c0-0.957,0.776-1.733,1.733-1.733h12.994c0.957,0,1.733,0.776,1.733,1.733v12.994
			c0,0.957-0.776,1.733-1.733,1.733H73.737C72.78,84.254,72.004,83.478,72.004,82.521z"/>
	</g>
	<g>
		<path class="st3" d="M72.004,117.172v-12.994c0-0.957,0.776-1.733,1.733-1.733h12.994c0.957,0,1.733,0.776,1.733,1.733v12.994
			c0,0.957-0.776,1.733-1.733,1.733H73.737C72.78,118.904,72.004,118.129,72.004,117.172z"/>
	</g>
	<g>
		<path class="st3" d="M72.004,151.822v-12.994c0-0.957,0.776-1.733,1.733-1.733h12.994c0.957,0,1.733,0.776,1.733,1.733v12.994
			c0,0.957-0.776,1.733-1.733,1.733H73.737C72.78,153.555,72.004,152.779,72.004,151.822z"/>
	</g>
	<g>
		<path class="st3" d="M72.004,186.473v-12.994c0-0.957,0.776-1.733,1.733-1.733h12.994c0.957,0,1.733,0.776,1.733,1.733v12.994
			c0,0.957-0.776,1.733-1.733,1.733H73.737C72.78,188.205,72.004,187.43,72.004,186.473z"/>
	</g>
	<g>
		<path class="st3" d="M72.004,221.123v-12.994c0-0.957,0.776-1.733,1.733-1.733h12.994c0.957,0,1.733,0.776,1.733,1.733v12.994
			c0,0.957-0.776,1.733-1.733,1.733H73.737C72.78,222.856,72.004,222.08,72.004,221.123z"/>
	</g>
	<g>
		<path class="st4" d="M86.73,51.604H73.737c-2.058,0-3.732-1.675-3.732-3.732V34.877c0-2.058,1.674-3.732,3.732-3.732H86.73
			c2.058,0,3.733,1.675,3.733,3.732v12.994C90.463,49.929,88.789,51.604,86.73,51.604z M74.004,47.604h12.459V35.145H74.004V47.604z
			"/>
	</g>
	<g>
		<path class="st4" d="M86.73,86.254H73.737c-2.058,0-3.732-1.675-3.732-3.732V69.527c0-2.058,1.674-3.732,3.732-3.732H86.73
			c2.058,0,3.733,1.675,3.733,3.732v12.994C90.463,84.579,88.789,86.254,86.73,86.254z M74.004,82.254h12.459V69.795H74.004V82.254z
			"/>
	</g>
	<g>
		<path class="st4" d="M86.73,120.904H73.737c-2.058,0-3.732-1.675-3.732-3.732v-12.994c0-2.058,1.674-3.732,3.732-3.732H86.73
			c2.058,0,3.733,1.675,3.733,3.732v12.994C90.463,119.229,88.789,120.904,86.73,120.904z M74.004,116.904h12.459v-12.459H74.004
			V116.904z"/>
	</g>
	<g>
		<path class="st4" d="M86.73,155.555H73.737c-2.058,0-3.732-1.675-3.732-3.732v-12.994c0-2.058,1.674-3.732,3.732-3.732H86.73
			c2.058,0,3.733,1.675,3.733,3.732v12.994C90.463,153.88,88.789,155.555,86.73,155.555z M74.004,151.555h12.459v-12.459H74.004
			V151.555z"/>
	</g>
	<g>
		<path class="st4" d="M86.73,190.205H73.737c-2.058,0-3.732-1.675-3.732-3.732v-12.994c0-2.058,1.674-3.732,3.732-3.732H86.73
			c2.058,0,3.733,1.675,3.733,3.732v12.994C90.463,188.53,88.789,190.205,86.73,190.205z M74.004,186.205h12.459v-12.459H74.004
			V186.205z"/>
	</g>
	<g>
		<path class="st4" d="M86.73,224.855H73.737c-2.058,0-3.732-1.675-3.732-3.732v-12.994c0-2.058,1.674-3.732,3.732-3.732H86.73
			c2.058,0,3.733,1.675,3.733,3.732v12.994C90.463,223.181,88.789,224.855,86.73,224.855z M74.004,220.855h12.459v-12.459H74.004
			V220.855z"/>
	</g>
	<g>
		<path class="st4" d="M219.702,233.951H94.383c-1.104,0-2-0.896-2-2V24.049c0-1.104,0.896-2,2-2h125.319c1.104,0,2,0.896,2,2
			v207.902C221.702,233.056,220.807,233.951,219.702,233.951z M96.383,229.951h121.319V26.049H96.383V229.951z"/>
	</g>
	<g>
		<path class="st4" d="M244.535,233.951H69.55c-3.014,0-5.465-2.451-5.465-5.465V27.514c0-3.014,2.452-5.465,5.465-5.465h174.985
			c3.013,0,5.465,2.451,5.465,5.465v200.973C250,231.5,247.548,233.951,244.535,233.951z M69.55,26.049
			c-0.808,0-1.465,0.657-1.465,1.465v200.973c0,0.808,0.657,1.465,1.465,1.465h174.985c0.808,0,1.465-0.657,1.465-1.465V27.514
			c0-0.808-0.657-1.465-1.465-1.465H69.55z"/>
	</g>
	<g>
		<circle class="st2" cx="110.215" cy="78.491" r="31.033"/>
	</g>
	<g>
		<circle class="st2" cx="54.706" cy="84.76" r="24.763"/>
	</g>
	<g>
		<path class="st6" d="M141.349,198.885H29.842c-3.589,0-6.499-2.91-6.499-6.499v-76.364c0-3.589,2.91-6.499,6.499-6.499h111.507
			c3.589,0,6.499,2.91,6.499,6.499v76.364C147.848,195.976,144.938,198.885,141.349,198.885z"/>
	</g>
	<g>
		<circle class="st1" cx="110.216" cy="78.491" r="10.878"/>
	</g>
	<g>
		<path class="st2" d="M147.848,135.533c0,12.454,0,21.963,0,34.417l31.878,15.428c1.722,0.833,3.68-0.499,3.68-2.504
			c0-1.441,0-61.275,0-60.264c0-2.005-1.958-3.338-3.68-2.504L147.848,135.533z"/>
	</g>
	<g>
		<path class="st2" d="M23.343,186.899h-8.844c-3.589,0-6.499-2.91-6.499-6.499v-52.391c0-3.589,2.91-6.499,6.499-6.499h8.844
			V186.899z"/>
	</g>
	<g>
		<path class="st4" d="M110.215,111.523c-18.214,0-33.033-14.818-33.033-33.033c0-18.214,14.819-33.032,33.033-33.032
			s33.033,14.818,33.033,33.032C143.248,96.705,128.43,111.523,110.215,111.523z M110.215,49.458
			c-16.009,0-29.033,13.023-29.033,29.032s13.024,29.033,29.033,29.033s29.033-13.024,29.033-29.033S126.224,49.458,110.215,49.458z
			"/>
	</g>
	<g>
		<path class="st4" d="M141.349,200.885H29.842c-4.687,0-8.499-3.813-8.499-8.499v-76.363c0-4.687,3.813-8.499,8.499-8.499h111.506
			c4.687,0,8.499,3.813,8.499,8.499v76.363C149.848,197.072,146.035,200.885,141.349,200.885z M29.842,111.523
			c-2.481,0-4.499,2.019-4.499,4.499v76.363c0,2.48,2.018,4.499,4.499,4.499h111.506c2.481,0,4.499-2.019,4.499-4.499v-76.363
			c0-2.48-2.018-4.499-4.499-4.499H29.842z"/>
	</g>
	<g>
		<path class="st4" d="M180.807,187.63c-0.664,0-1.331-0.149-1.953-0.45l-31.878-15.429c-0.69-0.334-1.129-1.033-1.129-1.8v-34.418
			c0-0.767,0.438-1.466,1.129-1.8l31.878-15.428c1.398-0.679,3.019-0.587,4.337,0.24c1.377,0.863,2.203,2.368,2.214,4.03
			c0,0.007,0,0.015,0,0.021v60.276c0,1.676-0.828,3.195-2.214,4.064C182.46,187.397,181.635,187.63,180.807,187.63z
			 M149.848,168.697l30.749,14.882c0.06,0.027,0.24,0.116,0.47-0.029c0.102-0.063,0.339-0.258,0.339-0.676V122.61
			c0-0.418-0.237-0.612-0.339-0.676c-0.23-0.146-0.411-0.058-0.47-0.028l-30.749,14.881V168.697z"/>
	</g>
	<g>
		<path class="st4" d="M23.343,188.899h-8.844C9.812,188.899,6,185.087,6,180.4v-52.392c0-4.687,3.812-8.499,8.499-8.499h8.844
			c1.104,0,2,0.896,2,2v65.39C25.343,188.004,24.448,188.899,23.343,188.899z M14.499,123.51c-2.481,0-4.499,2.019-4.499,4.499
			V180.4c0,2.48,2.018,4.499,4.499,4.499h6.844v-61.39H14.499z"/>
	</g>
	<g>
		<path class="st4" d="M110.216,91.368c-7.101,0-12.878-5.777-12.878-12.878s5.777-12.877,12.878-12.877
			c7.101,0,12.877,5.776,12.877,12.877S117.316,91.368,110.216,91.368z M110.216,69.613c-4.896,0-8.878,3.982-8.878,8.877
			c0,4.896,3.982,8.878,8.878,8.878c4.895,0,8.877-3.982,8.877-8.878C119.093,73.596,115.111,69.613,110.216,69.613z"/>
	</g>
	<g>
		<circle class="st1" cx="54.706" cy="84.76" r="8.68"/>
	</g>
	<g>
		<path class="st4" d="M54.706,111.523c-14.757,0-26.763-12.006-26.763-26.763c0-14.758,12.006-26.764,26.763-26.764
			s26.763,12.006,26.763,26.764C81.469,99.518,69.463,111.523,54.706,111.523z M54.706,61.997
			c-12.552,0-22.763,10.212-22.763,22.764s10.211,22.763,22.763,22.763s22.763-10.211,22.763-22.763S67.258,61.997,54.706,61.997z"
			/>
	</g>
	<g>
		<path class="st4" d="M54.707,95.44c-5.889,0-10.68-4.791-10.68-10.68c0-5.89,4.791-10.681,10.68-10.681
			c5.889,0,10.68,4.791,10.68,10.681C65.386,90.649,60.595,95.44,54.707,95.44z M54.707,78.08c-3.684,0-6.68,2.997-6.68,6.681
			s2.997,6.68,6.68,6.68c3.683,0,6.68-2.996,6.68-6.68S58.39,78.08,54.707,78.08z"/>
	</g>
	<g>
		<path class="st2" d="M42.122,191.486h-7.135c-1.314,0-2.378-1.065-2.378-2.378v-5.946c0-1.314,1.065-2.378,2.378-2.378h7.135
			c1.314,0,2.378,1.065,2.378,2.378v5.946C44.5,190.421,43.436,191.486,42.122,191.486z"/>
	</g>
	<g>
		<path class="st4" d="M42.122,193.485h-7.135c-2.414,0-4.378-1.964-4.378-4.378v-5.946c0-2.414,1.964-4.379,4.378-4.379h7.135
			c2.414,0,4.378,1.965,4.378,4.379v5.946C46.5,191.521,44.536,193.485,42.122,193.485z M34.987,182.782
			c-0.208,0-0.378,0.17-0.378,0.379v5.946c0,0.208,0.17,0.378,0.378,0.378h7.135c0.208,0,0.378-0.17,0.378-0.378v-5.946
			c0-0.209-0.17-0.379-0.378-0.379H34.987z"/>
	</g>
	<g>
		<path class="st10" d="M129.304,173.104v-23.97c0-2.74-4.136-2.742-4.136,0v23.97c-2.776,1.568-2.155,3.904-2.155,10.568
			c0,0.437,0.354,0.791,0.791,0.791c6.932,0,7.654,0.266,7.654-0.791C131.459,176.747,132.015,174.635,129.304,173.104z"/>
	</g>
	<g>
		<path class="st0" d="M81.132,129.775l-43.109,17.293c-2.063,0.828-2.024,3.821,0.059,4.593l43.171,15.998
			c1.083,0.401,2.269,0.401,3.351,0l43.184-16.002c2.079-0.77,2.117-3.757,0.059-4.583
			C81.182,128.355,83.611,128.781,81.132,129.775z"/>
	</g>
	<g>
		<path class="st4" d="M82.928,169.96c-0.803,0-1.606-0.142-2.371-0.426l-43.17-15.998c-1.729-0.64-2.864-2.258-2.889-4.121
			c-0.025-1.865,1.066-3.515,2.78-4.203l43.11-17.293l0,0l0.219-0.091c2.398-1.015,2.402-1.014,23.938,7.697
			c6.061,2.452,13.891,5.619,24.046,9.692c1.711,0.687,2.802,2.333,2.777,4.195s-1.157,3.479-2.886,4.119l-43.184,16.002
			C84.534,169.818,83.731,169.96,82.928,169.96z M81.876,131.632l-43.109,17.293c-0.182,0.073-0.273,0.22-0.271,0.437
			c0.003,0.214,0.097,0.356,0.279,0.424l43.171,15.999c0.633,0.234,1.33,0.234,1.961,0l43.184-16.002
			c0.18-0.067,0.273-0.209,0.276-0.422c0.002-0.213-0.087-0.357-0.267-0.43c-10.16-4.076-17.993-7.244-24.057-9.696
			c-14.323-5.794-19.683-7.958-20.588-7.838c-0.102,0.021-0.188,0.071-0.292,0.115L81.876,131.632z"/>
	</g>
	<g>
		<path class="st0" d="M109.391,153.119c-25.638-4.639-55.712-1.541-55.712,1.181v0.025c0,1.501,0,10.449,0,11.904
			c0,0.542,0.654,1.024,1.65,1.204c6.384,1.155,30.296,4.825,54.151,0.01c0.68-0.137,1.561-0.525,1.561-1.215v-11.903v-0.001
			C111.042,153.782,110.387,153.3,109.391,153.119z"/>
	</g>
	<g>
		<path class="st4" d="M83.551,171.862c-13.442,0-24.35-1.696-28.578-2.462c-2.001-0.36-3.294-1.605-3.294-3.172v-11.904
			c0-0.459,0.13-1.296,0.998-2.021c4.148-3.464,33.915-5.341,57.07-1.151c0,0,0,0,0.001,0c2,0.362,3.293,1.607,3.293,3.172v11.904
			c0,1.563-1.212,2.781-3.164,3.176C100.789,171.238,91.703,171.862,83.551,171.862z M55.679,165.464c0.002,0,0.003,0,0.005,0.001
			c6.614,1.196,29.993,4.731,53.357,0.026v-10.402c-0.002-0.001-0.005-0.001-0.007-0.002c-23.469-4.248-48.971-1.808-53.355,0.057
			V165.464z"/>
	</g>
</g>
</svg>
