<?xml version="1.0" encoding="utf-8"?>
<!-- Generator: Adobe Illustrator 22.1.0, SVG Export Plug-In . SVG Version: 6.00 Build 0)  -->
<svg version="1.1" id="Layer_1" xmlns="http://www.w3.org/2000/svg" xmlns:xlink="http://www.w3.org/1999/xlink" x="0px" y="0px"
	 viewBox="0 0 256 256" style="enable-background:new 0 0 256 256;" xml:space="preserve">
<style type="text/css">
	.st0{fill:#4671C6;}
	.st1{fill:#F9CFCF;}
	.st2{fill:#F9A7A7;}
	.st3{fill:#A4C9FF;}
	.st4{fill:#3762CC;}
	.st5{fill:#E0EBFC;}
	.st6{fill:#6BDDDD;}
	.st7{fill:#B9BEFC;}
	.st8{fill:#FFEA92;}
	.st9{fill:#EAA97D;}
	.st10{fill:#FFEA94;}
	.st11{fill:#FFE164;}
	.st12{fill:#FFDC85;}
	.st13{fill:#FFFFFF;}
	.st14{fill:#383838;}
</style>
<g>
	<g>
		<path class="st3" d="M199.5,248h-166c-6.627,0-12-5.373-12-12V20c0-6.627,5.373-12,12-12h166c6.627,0,12,5.373,12,12v216
			C211.5,242.627,206.127,248,199.5,248z"/>
	</g>
	<g>
		<path class="st6" d="M31.77,216.446V30.22c0-3.251,2.636-5.887,5.887-5.887h157.685c3.251,0,5.887,2.636,5.887,5.887v186.226
			c0,3.251-2.636,5.887-5.887,5.887H37.657C34.406,222.333,31.77,219.698,31.77,216.446z"/>
	</g>
	<g>
		<path class="st4" d="M199.5,250h-166c-7.72,0-14-6.28-14-14V20c0-7.72,6.28-14,14-14h166c7.72,0,14,6.28,14,14v216
			C213.5,243.72,207.22,250,199.5,250z M33.5,10c-5.514,0-10,4.486-10,10v216c0,5.514,4.486,10,10,10h166c5.514,0,10-4.486,10-10V20
			c0-5.514-4.486-10-10-10H33.5z"/>
	</g>
	<g>
		<path class="st4" d="M195.343,224.333H37.657c-4.349,0-7.887-3.538-7.887-7.887V30.22c0-4.349,3.538-7.887,7.887-7.887h157.686
			c4.349,0,7.887,3.538,7.887,7.887v186.226C203.229,220.795,199.691,224.333,195.343,224.333z M37.657,26.333
			c-2.143,0-3.887,1.744-3.887,3.887v186.226c0,2.144,1.744,3.887,3.887,3.887h157.686c2.143,0,3.887-1.744,3.887-3.887V30.22
			c0-2.143-1.744-3.887-3.887-3.887H37.657z"/>
	</g>
	<g>
		<circle class="st5" cx="116.5" cy="235" r="7.19"/>
	</g>
	<g>
		<path class="st0" d="M152.167,185.119H73.264c-1.895,0-3.431-1.536-3.431-3.431V79.972c0-1.895,1.536-3.431,3.431-3.431h72.771
			c3.386,0,6.132,2.745,6.132,6.132V185.119z"/>
	</g>
	<g>
		<path class="st0" d="M152.167,185.119h78.903c1.895,0,3.431-1.536,3.431-3.431V79.972c0-1.895-1.536-3.431-3.431-3.431h-72.771
			c-3.386,0-6.132,2.745-6.132,6.132V185.119z"/>
	</g>
	<g>
		<path class="st4" d="M152.167,187.119H73.264c-2.994,0-5.43-2.436-5.43-5.431V79.972c0-2.995,2.436-5.431,5.43-5.431h72.771
			c4.484,0,8.131,3.648,8.131,8.132v102.445C154.167,186.223,153.271,187.119,152.167,187.119z M73.264,78.542
			c-0.789,0-1.43,0.642-1.43,1.431v101.716c0,0.789,0.642,1.431,1.43,1.431h76.903V82.673c0-2.278-1.854-4.132-4.131-4.132H73.264z"
			/>
	</g>
	<g>
		<path class="st4" d="M231.069,187.119h-78.903c-1.104,0-2-0.896-2-2V82.673c0-4.484,3.648-8.132,8.132-8.132h72.771
			c2.995,0,5.431,2.436,5.431,5.431v101.716C236.5,184.683,234.064,187.119,231.069,187.119z M154.167,183.119h76.903
			c0.789,0,1.431-0.642,1.431-1.431V79.972c0-0.789-0.642-1.431-1.431-1.431h-72.771c-2.278,0-4.132,1.854-4.132,4.132V183.119z"/>
	</g>
	<g>
		<path class="st3" d="M220.778,70.881v5.66h-68.611H83.556v-5.66c-5.26,0.572-5.563,5.66-5.563,5.66v102.917h74.174h74.174V76.542
			C226.341,76.542,226.038,71.453,220.778,70.881z"/>
	</g>
	<g>
		<path class="st4" d="M226.341,181.458H77.993c-1.104,0-2-0.896-2-2V76.542c0-0.04,0.001-0.079,0.003-0.119
			c0.14-2.344,1.854-6.933,7.343-7.53c0.566-0.061,1.129,0.121,1.552,0.5c0.423,0.379,0.665,0.921,0.665,1.489v3.66h133.222v-3.66
			c0-0.568,0.242-1.109,0.665-1.489c0.422-0.379,0.988-0.562,1.552-0.5c5.49,0.597,7.204,5.186,7.343,7.53
			c0.002,0.04,0.003,0.079,0.003,0.119v102.917C228.341,180.563,227.445,181.458,226.341,181.458z M79.993,177.458h144.348V76.62
			c-0.042-0.452-0.279-1.956-1.563-2.927v2.849c0,1.104-0.896,2-2,2H83.556c-1.104,0-2-0.896-2-2v-2.849
			c-1.273,0.964-1.517,2.454-1.563,2.932V177.458z"/>
	</g>
	<g>
		<path class="st5" d="M152.167,179.458H83.556V70.881h62.973c3.114,0,5.638,2.524,5.638,5.638V179.458z"/>
	</g>
	<g>
		<path class="st5" d="M152.167,179.458h68.611V70.881h-62.973c-3.114,0-5.638,2.524-5.638,5.638V179.458z"/>
	</g>
	<g>
		<path class="st7" d="M211.744,91.025H163.03c-1.326,0-2.401-1.075-2.401-2.401l0,0c0-1.326,1.075-2.401,2.401-2.401h48.714
			c1.326,0,2.401,1.075,2.401,2.401l0,0C214.145,89.95,213.07,91.025,211.744,91.025z"/>
	</g>
	<g>
		<path class="st7" d="M211.744,104.747H163.03c-1.326,0-2.401-1.075-2.401-2.401l0,0c0-1.326,1.075-2.401,2.401-2.401h48.714
			c1.326,0,2.401,1.075,2.401,2.401l0,0C214.145,103.672,213.07,104.747,211.744,104.747z"/>
	</g>
	<g>
		<path class="st7" d="M211.744,145.914H163.03c-1.326,0-2.401-1.075-2.401-2.401l0,0c0-1.326,1.075-2.401,2.401-2.401h48.714
			c1.326,0,2.401,1.075,2.401,2.401l0,0C214.145,144.839,213.07,145.914,211.744,145.914z"/>
	</g>
	<g>
		<path class="st7" d="M211.744,159.636H163.03c-1.326,0-2.401-1.075-2.401-2.401l0,0c0-1.326,1.075-2.401,2.401-2.401h48.714
			c1.326,0,2.401,1.075,2.401,2.401l0,0C214.145,158.561,213.07,159.636,211.744,159.636z"/>
	</g>
	<g>
		<path class="st7" d="M142.218,91.025h-22.813c-1.326,0-2.401-1.075-2.401-2.401l0,0c0-1.326,1.075-2.401,2.401-2.401h22.813
			c1.326,0,2.401,1.075,2.401,2.401l0,0C144.619,89.95,143.544,91.025,142.218,91.025z"/>
	</g>
	<g>
		<path class="st7" d="M142.218,104.747h-22.813c-1.326,0-2.401-1.075-2.401-2.401l0,0c0-1.326,1.075-2.401,2.401-2.401h22.813
			c1.326,0,2.401,1.075,2.401,2.401l0,0C144.619,103.672,143.544,104.747,142.218,104.747z"/>
	</g>
	<g>
		<path class="st7" d="M142.218,118.469H93.504c-1.326,0-2.401-1.075-2.401-2.401l0,0c0-1.326,1.075-2.401,2.401-2.401h48.714
			c1.326,0,2.401,1.075,2.401,2.401l0,0C144.619,117.394,143.544,118.469,142.218,118.469z"/>
	</g>
	<g>
		<path class="st7" d="M142.218,132.192H93.504c-1.326,0-2.401-1.075-2.401-2.401l0,0c0-1.326,1.075-2.401,2.401-2.401h48.714
			c1.326,0,2.401,1.075,2.401,2.401l0,0C144.619,131.116,143.544,132.192,142.218,132.192z"/>
	</g>
	<g>
		<path class="st7" d="M143.247,159.636H92.475c-0.758,0-1.372-0.614-1.372-1.372v-15.781c0-0.758,0.614-1.372,1.372-1.372h50.772
			c0.758,0,1.372,0.614,1.372,1.372v15.781C144.619,159.022,144.005,159.636,143.247,159.636z"/>
	</g>
	<g>
		<path class="st4" d="M152.167,181.458H83.556c-1.104,0-2-0.896-2-2V70.881c0-1.104,0.896-2,2-2h62.973
			c4.211,0,7.638,3.426,7.638,7.638v102.939C154.167,180.563,153.271,181.458,152.167,181.458z M85.556,177.458h64.611V76.519
			c0-2.006-1.632-3.638-3.638-3.638H85.556V177.458z"/>
	</g>
	<g>
		<path class="st4" d="M220.778,181.458h-68.611c-1.104,0-2-0.896-2-2V76.519c0-4.211,3.426-7.638,7.638-7.638h62.973
			c1.104,0,2,0.896,2,2v108.577C222.778,180.563,221.882,181.458,220.778,181.458z M154.167,177.458h64.611V72.881h-60.973
			c-2.006,0-3.638,1.632-3.638,3.638V177.458z"/>
	</g>
	<g>
		<path class="st3" d="M146.604,173.798H83.556c-5.26,0.572-5.563,5.66-5.563,5.66h5.563h68.611
			C152.167,179.458,151.864,174.37,146.604,173.798z"/>
	</g>
	<g>
		<path class="st3" d="M220.778,173.798H157.73c-5.26,0.572-5.563,5.66-5.563,5.66h68.611h5.563
			C226.341,179.458,226.038,174.37,220.778,173.798z"/>
	</g>
	<g>
		<path class="st4" d="M152.167,181.458H77.993c-0.551,0-1.078-0.228-1.456-0.628s-0.574-0.94-0.541-1.49
			c0.14-2.344,1.854-6.934,7.343-7.53c0.072-0.008,0.144-0.012,0.216-0.012h63.048c0.072,0,0.145,0.004,0.216,0.012
			c5.49,0.597,7.204,5.187,7.343,7.53c0.033,0.55-0.163,1.089-0.541,1.49S152.718,181.458,152.167,181.458z M80.755,177.458h68.66
			c-0.527-0.761-1.419-1.471-2.928-1.661H83.672C82.173,175.987,81.283,176.701,80.755,177.458z"/>
	</g>
	<g>
		<path class="st4" d="M226.341,181.458h-74.174c-0.551,0-1.078-0.228-1.456-0.628c-0.378-0.401-0.574-0.94-0.541-1.491
			c0.14-2.343,1.854-6.933,7.344-7.53c0.072-0.008,0.144-0.012,0.216-0.012h63.048c0.072,0,0.145,0.004,0.216,0.012
			c5.49,0.597,7.204,5.187,7.343,7.53c0.033,0.55-0.163,1.089-0.541,1.49S226.892,181.458,226.341,181.458z M154.929,177.458h68.661
			c-0.527-0.761-1.419-1.471-2.928-1.661h-62.815C156.348,175.987,155.458,176.701,154.929,177.458z"/>
	</g>
	<g>
		<path class="st7" d="M112.372,104.747H92.475c-0.758,0-1.372-0.614-1.372-1.372V87.594c0-0.758,0.614-1.372,1.372-1.372h19.897
			c0.758,0,1.372,0.614,1.372,1.372v15.781C113.744,104.133,113.13,104.747,112.372,104.747z"/>
	</g>
	<g>
		<path class="st7" d="M212.773,132.192h-50.772c-0.758,0-1.372-0.614-1.372-1.372v-15.781c0-0.758,0.614-1.372,1.372-1.372h50.772
			c0.758,0,1.372,0.614,1.372,1.372v15.781C214.145,131.577,213.531,132.192,212.773,132.192z"/>
	</g>
	<g>
		<circle class="st5" cx="116.572" cy="16" r="4.5"/>
	</g>
	<g>
		<path class="st4" d="M116.5,244.189c-5.067,0-9.189-4.123-9.189-9.189s4.123-9.189,9.189-9.189s9.189,4.123,9.189,9.189
			S121.567,244.189,116.5,244.189z M116.5,229.811c-2.861,0-5.189,2.328-5.189,5.189s2.328,5.189,5.189,5.189
			s5.189-2.328,5.189-5.189S119.361,229.811,116.5,229.811z"/>
	</g>
</g>
</svg>
