<?xml version="1.0" encoding="utf-8"?>
<!-- Generator: Adobe Illustrator 22.1.0, SVG Export Plug-In . SVG Version: 6.00 Build 0)  -->
<svg version="1.1" id="Layer_1" xmlns="http://www.w3.org/2000/svg" xmlns:xlink="http://www.w3.org/1999/xlink" x="0px" y="0px"
	 viewBox="0 0 256 256" style="enable-background:new 0 0 256 256;" xml:space="preserve">
<style type="text/css">
	.st0{fill:#4671C6;}
	.st1{fill:#F9CFCF;}
	.st2{fill:#F9A7A7;}
	.st3{fill:#A4C9FF;}
	.st4{fill:#3762CC;}
	.st5{fill:#E0EBFC;}
	.st6{fill:#6BDDDD;}
	.st7{fill:#B9BEFC;}
	.st8{fill:#FFEA92;}
	.st9{fill:#EAA97D;}
	.st10{fill:#FFEA94;}
	.st11{fill:#FFE164;}
	.st12{fill:#FFDC85;}
	.st13{fill:#FFFFFF;}
	.st14{fill:#383838;}
</style>
<g>
	<g>
		<path class="st1" d="M112.991,90.699l-29.023,0c-24.847,0-44.989,19.302-44.989,43.111l0,33.065c0,1.592-1.347,2.882-3.008,2.882
			c-4.389,0-8.318,3.074-8.736,7.27c-0.479,4.809,3.455,8.854,8.374,8.854h3.37l0,7.976c0,23.81,20.142,43.111,44.989,43.111
			l29.023,0c27.453,0,49.708-21.326,49.708-47.633l0-51.004C162.699,112.025,140.444,90.699,112.991,90.699z"/>
	</g>
	<g>
		<path class="st4" d="M112.991,238.97H83.968c-25.91,0-46.989-20.237-46.989-45.111v-5.977h-1.37c-3.003,0-5.861-1.253-7.839-3.438
			c-1.907-2.106-2.803-4.811-2.524-7.614c0.506-5.087,5.218-9.071,10.726-9.071c0.556,0,1.007-0.396,1.007-0.883v-33.064
			c0-24.874,21.079-45.111,46.989-45.111h29.023c28.512,0,51.708,22.266,51.708,49.633v51.004
			C164.699,216.704,141.503,238.97,112.991,238.97z M83.968,92.699c-23.705,0-42.989,18.442-42.989,41.111v33.064
			c0,2.692-2.246,4.883-5.007,4.883c-3.478,0-6.44,2.401-6.746,5.468c-0.166,1.665,0.37,3.275,1.509,4.533
			c1.222,1.349,2.998,2.123,4.874,2.123h3.37c1.104,0,2,0.896,2,2v7.977c0,22.669,19.285,41.111,42.989,41.111h29.023
			c26.307,0,47.708-20.472,47.708-45.634v-51.004c0-25.162-21.401-45.633-47.708-45.633H83.968z"/>
	</g>
	<g>
		<path class="st4" d="M43.335,205.966c-0.544,0-1.086-0.008-1.626-0.015c-0.526-0.008-1.057-0.016-1.592-0.016
			c-1.104,0-2-0.896-2-2s0.896-2,2-2c0.554,0,1.104,0.008,1.649,0.016c5.375,0.086,9.615,0.137,14.42-7.642
			c0.581-0.939,1.813-1.233,2.753-0.65c0.939,0.58,1.231,1.813,0.65,2.752C54.146,205.222,48.668,205.966,43.335,205.966z"/>
	</g>
	<g>
		<path class="st4" d="M60.237,163.9c-4.132,0-7.494-3.356-7.494-7.482v-12.471c0-4.126,3.361-7.483,7.494-7.483
			c4.131,0,7.492,3.357,7.492,7.483v12.471C67.729,160.543,64.368,163.9,60.237,163.9z"/>
	</g>
	<g>
		<path class="st0" d="M186.706,114.177l-0.002,0.004c-4.415-17.802-16.494-32.781-32.739-41.616c0.001-0.002,0.01-0.015,0.01-0.015
			c-21.593-13.022-58.979-11.314-83.52-6.168l0.001,0c-16.145,3.805-35.59,12.828-48.915,33.686
			c-0.693,1.085,0.131,2.481,1.465,2.481h9.757c0,0-11.137,6.879-12.49,20.67c-0.098,0.997,0.856,1.794,1.867,1.575
			c8.671-1.875,44.253-8.506,78.888,0.344c1.791,0.458,3.049,2.014,3.049,3.805v9.047l0.138,43.932
			c9.263,26.842,8.653,28.164,13.987,30.109c24.532,8.953,22.719,8.339,23.795,8.567l0.001,0.006
			c4.971,2.021,3.592,1.526,6.265,2.296C185.15,196.514,196.795,154.596,186.706,114.177z"/>
	</g>
	<g>
		<path class="st4" d="M148.261,224.899c-0.186,0-0.372-0.025-0.554-0.078l-0.937-0.267c-1.265-0.355-1.347-0.389-3.435-1.244
			l-1.947-0.795c-0.702-0.139-0.95-0.229-10.81-3.834l-13.064-4.772c-5.256-1.916-5.799-3.53-10.992-18.973
			c-1.132-3.367-2.5-7.435-4.2-12.362c-0.072-0.208-0.109-0.426-0.109-0.646l-0.138-43.932v-9.053c0-0.867-0.635-1.636-1.544-1.868
			c-33.805-8.637-68.226-2.434-77.97-0.326c-1.114,0.239-2.288-0.066-3.136-0.822c-0.835-0.744-1.252-1.802-1.145-2.903
			c0.862-8.788,5.37-14.919,8.931-18.475h-4.208c-1.371,0-2.625-0.735-3.273-1.919c-0.636-1.162-0.59-2.522,0.124-3.639
			c14.133-22.123,35.068-31.003,50.141-34.556c25.492-5.345,63.011-6.865,85.012,6.401c0.051,0.031,0.102,0.064,0.149,0.1
			c16.804,9.223,28.987,24.75,33.461,42.654c0.011,0.033,0.02,0.067,0.028,0.102c10.978,43.981-3.685,85.414-39.223,110.834
			C149.081,224.771,148.674,224.899,148.261,224.899z M142.882,218.805l1.97,0.805c1.958,0.802,1.958,0.802,3.002,1.095l0.022,0.007
			c33.558-24.454,47.35-63.979,36.916-105.943c-0.011-0.035-0.021-0.07-0.029-0.105c-4.203-16.947-15.776-31.65-31.754-40.341
			c-0.104-0.057-0.202-0.122-0.292-0.193c-21.04-12.525-57.207-10.956-81.852-5.789c-20.581,4.853-36.491,15.691-47.254,32.21h9.151
			c0.894,0,1.68,0.594,1.924,1.454c0.244,0.859-0.112,1.777-0.873,2.247c-0.097,0.062-9.933,6.33-11.471,18.455
			c10.738-2.267,45.218-8.182,79.18,0.495c2.681,0.686,4.553,3.047,4.553,5.743v9.047l0.137,43.594
			c1.654,4.799,2.991,8.774,4.102,12.078c4.978,14.805,5.218,15.267,8.571,16.489l13.067,4.773c9.079,3.318,9.82,3.59,10.264,3.677
			l0.193,0.039C142.575,218.676,142.734,218.731,142.882,218.805z"/>
	</g>
	<g>
		<circle class="st1" cx="107.96" cy="156.256" r="21.924"/>
	</g>
	<g>
		<path class="st1" d="M112.991,236.969c-31.308,0-32.747,0.344-39.425-1.171v10.644c0,0.826,0.669,1.495,1.495,1.495h54.982
			c0.826,0,1.495-0.669,1.495-1.495v-12.913C125.805,235.74,119.55,236.969,112.991,236.969z"/>
	</g>
	<g>
		<path class="st4" d="M130.043,249.938H75.061c-1.927,0-3.495-1.568-3.495-3.495v-10.645c0-0.608,0.277-1.184,0.752-1.563
			c0.475-0.38,1.096-0.522,1.691-0.388c5.243,1.188,7.077,1.187,24.655,1.143c3.929-0.009,8.634-0.021,14.327-0.021
			c6.14,0,12.138-1.112,17.827-3.307c0.612-0.237,1.308-0.155,1.852,0.217c0.543,0.373,0.868,0.99,0.868,1.649v12.913
			C133.538,248.369,131.97,249.938,130.043,249.938z M75.566,245.938h53.972v-9.576c-5.33,1.731-10.883,2.608-16.547,2.608
			c-5.689,0-10.391,0.012-14.318,0.021c-14.902,0.04-18.81,0.046-23.107-0.735V245.938z"/>
	</g>
	<g>
		<path class="st3" d="M179.914,8.063l-3.407,0.002c-30.814,0.015-55.781,25.007-55.766,55.821l0,0
			c0.009,18.392,8.921,34.698,22.654,44.855l-1.801,19.094c-0.289,3.064,2.969,5.202,5.666,3.717l22.398-12.338
			c38.918,4.786,66.092-23.423,66.076-55.385l0,0C235.72,33.015,210.728,8.048,179.914,8.063z"/>
	</g>
	<g>
		<path class="st4" d="M145.41,134.029c-1.116,0-2.229-0.321-3.2-0.959c-1.812-1.188-2.81-3.267-2.606-5.424l1.696-17.982
			c-14.138-10.897-22.55-27.923-22.559-45.777c-0.016-31.867,25.897-57.806,57.765-57.822l3.407-0.002l0,0c0.01,0,0.019,0,0.028,0
			c15.427,0,29.932,6.004,40.846,16.907c10.921,10.911,16.939,25.421,16.947,40.858c0.009,16.553-7.053,32.301-19.374,43.205
			c-12.765,11.297-29.894,16.344-48.3,14.242l-21.836,12.028C147.344,133.788,146.376,134.029,145.41,134.029z M179.915,10.063
			l-3.407,0.002c-29.661,0.015-53.781,24.159-53.767,53.82c0.009,16.971,8.175,33.138,21.844,43.247
			c0.563,0.417,0.867,1.099,0.802,1.796l-1.801,19.094c-0.094,0.992,0.542,1.522,0.819,1.705s1.02,0.553,1.89,0.073l22.398-12.338
			c0.368-0.202,0.792-0.282,1.209-0.233c17.497,2.149,33.765-2.533,45.807-13.19c11.464-10.146,18.033-24.801,18.025-40.208
			c-0.007-14.369-5.608-27.875-15.774-38.03c-10.158-10.149-23.66-15.737-38.019-15.737
			C179.933,10.063,179.924,10.063,179.915,10.063L179.915,10.063z"/>
	</g>
	<g>
		<path class="st2" d="M130.236,65.52c-0.128,0.002-2.532,0.059-2.657,0.027c-0.325-0.08-0.503-0.373-0.483-0.652
			c0.009-0.13,0.058-0.248,0.146-0.353l6.011-7.166c0.124-0.147,0.296-0.229,0.486-0.229c0.054,0,0.107,0.007,0.162,0.021
			c0.124,0.031,0.234,0.098,0.323,0.195l6.259,6.938c0.379,0.42,0.053,1.033-0.467,1.043l-3.134,0.053l0.271,2.36
			c2.464,21.527,21.525,38.6,44.623,37.561c22.817-1.041,40.995-19.583,40.931-42.499c-0.052-19.422-13.391-36.293-32.437-41.029
			c-3.398-0.846-6.917-1.275-10.456-1.275c-0.262,0-0.523,0.002-0.785,0.007c-10.197,0.185-20.022,3.975-27.666,10.673
			c-3.413,2.997-7.669-2.082-4.437-4.914c8.833-7.749,20.191-12.134,31.983-12.347c0.302-0.006,0.604-0.008,0.906-0.008
			c28.462,0,51.447,23.606,49.445,52.396c-1.725,24.883-22.047,44.479-47.271,45.584C156.292,113.02,133.034,95.066,130.236,65.52z"
			/>
	</g>
	<g>
		<path class="st10" d="M194.686,69.019c3.174-3.467,5.111-8.084,5.111-13.154c0-10.763-8.725-19.488-19.488-19.488
			c-17.037,0-25.694,20.28-14.377,32.642h-0.051c3.493,4.136,5.393,9.448,5.146,15.103c14.24,0,4.155,0,18.563,0
			c-0.247-5.647,1.647-10.96,5.146-15.103H194.686z"/>
	</g>
	<g>
		<path class="st11" d="M199.605,40.768l5.232-5.232c0.932-0.932,0.932-2.444,0-3.377l-0.067-0.067
			c-0.932-0.932-2.444-0.932-3.377,0l-5.232,5.232C193.909,39.578,197.356,43.017,199.605,40.768z"/>
	</g>
	<g>
		<path class="st11" d="M180.354,34.417h-0.088c-1.32,0-2.391-1.07-2.391-2.391v-7.425c0-1.32,1.07-2.391,2.391-2.391h0.088
			c1.32,0,2.391,1.07,2.391,2.391v7.425C182.745,33.347,181.674,34.417,180.354,34.417z"/>
	</g>
	<g>
		<path class="st11" d="M161.265,40.768l-5.232-5.232c-2.253-2.253,1.194-5.692,3.443-3.443l5.232,5.232
			C166.961,39.578,163.514,43.017,161.265,40.768z"/>
	</g>
	<g>
		<path class="st12" d="M203.28,50.405V50.31c0-1.319,1.069-2.388,2.388-2.388h7.399c1.319,0,2.388,1.069,2.388,2.388v0.095
			c0,1.319-1.069,2.388-2.388,2.388h-7.399C204.349,52.792,203.28,51.723,203.28,50.405z"/>
	</g>
	<g>
		<path class="st11" d="M145.165,50.405V50.31c0-1.319,1.069-2.388,2.388-2.388h7.399c1.319,0,2.388,1.069,2.388,2.388
			c0,1.512-1.137,2.482-2.388,2.482h-7.399C146.234,52.792,145.165,51.723,145.165,50.405z"/>
	</g>
	<g>
		<path class="st0" d="M189.961,89.968c-20.396,0-20.369,0.403-20.369-1.067v-3.712c0-0.59,0.478-1.067,1.067-1.067
			c20.396,0,20.369-0.403,20.369,1.067v3.712C191.028,89.49,190.55,89.968,189.961,89.968z"/>
	</g>
	<g>
		<path class="st0" d="M188.366,95.815h-15.625c-0.932,0-1.688-0.756-1.688-1.688v-4.159h19.001v4.159
			C190.054,95.059,189.298,95.815,188.366,95.815z"/>
	</g>
	<g>
		<path class="st0" d="M182.259,103.61h-3.898c-3.229,0-5.846-2.618-5.846-5.846v-1.949h15.59v1.949
			C188.105,100.992,185.487,103.61,182.259,103.61z"/>
	</g>
	<g>
		<path class="st2" d="M188.855,44.624c-20.138,0-19.808-0.292-19.808,0.458v8.035v1.148c0.213-0.065,0.413-0.172,0.576-0.329
			c0.455-0.44,1.049-0.735,1.71-0.819h0.788c1.348,0.178,2.43,1.283,2.582,2.635c0.192,1.708-1.046,3.171-2.669,3.344h-0.644
			c-0.715-0.076-1.354-0.401-1.831-0.888c-0.146-0.149-0.322-0.259-0.512-0.333v1.221v8.483h8.273v0.001h1.221
			c-0.073,0.191-0.184,0.367-0.333,0.512c-2.005,1.961-0.442,5.47,2.456,5.144c1.351-0.152,2.456-1.234,2.635-2.582v-0.788
			c-0.083-0.661-0.379-1.255-0.819-1.71c-0.157-0.163-0.264-0.362-0.329-0.576h1.148v-0.001c7.53,0,8.273,0.292,8.273-0.458V47.34
			C191.572,45.84,190.356,44.624,188.855,44.624z"/>
	</g>
</g>
</svg>
