<?xml version="1.0" encoding="utf-8"?>
<!-- Generator: Adobe Illustrator 22.1.0, SVG Export Plug-In . SVG Version: 6.00 Build 0)  -->
<svg version="1.1" id="Layer_1" xmlns="http://www.w3.org/2000/svg" xmlns:xlink="http://www.w3.org/1999/xlink" x="0px" y="0px"
	 viewBox="0 0 256 256" style="enable-background:new 0 0 256 256;" xml:space="preserve">
<style type="text/css">
	.st0{fill:#4671C6;}
	.st1{fill:#F9CFCF;}
	.st2{fill:#F9A7A7;}
	.st3{fill:#A4C9FF;}
	.st4{fill:#3762CC;}
	.st5{fill:#E0EBFC;}
	.st6{fill:#6BDDDD;}
	.st7{fill:#B9BEFC;}
	.st8{fill:#FFEA92;}
	.st9{fill:#EAA97D;}
	.st10{fill:#FFEA94;}
	.st11{fill:#FFE164;}
	.st12{fill:#FFDC85;}
	.st13{fill:#FFFFFF;}
	.st14{fill:#383838;}
</style>
<g>
	<g>
		<path class="st2" d="M206.209,223.788h-36.418c-2.434,0-4.408-1.973-4.408-4.408v-72.035c0-2.434,1.973-4.408,4.408-4.408h36.418
			c2.434,0,4.408,1.973,4.408,4.408v72.035C210.617,221.814,208.643,223.788,206.209,223.788z"/>
	</g>
	<g>
		<rect x="165.384" y="165.804" class="st0" width="45.233" height="39.479"/>
	</g>
	<g>
		<path class="st8" d="M182.613,210.137c-0.461,0.001-0.93-0.097-1.377-0.302c-1.659-0.761-2.387-2.724-1.625-4.383l8.62-18.784
			h-5.616c-1.129,0-2.179-0.576-2.786-1.527c-0.607-0.951-0.687-2.147-0.212-3.17l10.77-23.21c0.769-1.656,2.735-2.376,4.39-1.607
			c1.656,0.768,2.376,2.734,1.607,4.39l-8.591,18.513h5.592c1.126,0,2.175,0.573,2.783,1.521s0.691,2.14,0.222,3.164l-10.77,23.468
			C185.063,209.422,183.865,210.137,182.613,210.137z"/>
	</g>
	<g>
		<path class="st3" d="M242.848,141.05H57.839c-2.673,0-4.839-2.167-4.839-4.839V12.839C53,10.167,55.167,8,57.839,8h185.009
			c2.673,0,4.839,2.167,4.839,4.839v123.372C247.688,138.884,245.521,141.05,242.848,141.05z"/>
	</g>
	<g>
		<path class="st5" d="M62,131.653V17.398c0-0.535,0.433-0.968,0.968-0.968H237.72c0.535,0,0.968,0.433,0.968,0.968v114.255
			c0,0.535-0.433,0.968-0.968,0.968H62.968C62.433,132.62,62,132.187,62,131.653z"/>
	</g>
	<g>
		<path class="st4" d="M242.849,143.05H57.839c-3.771,0-6.839-3.068-6.839-6.839V12.839C51,9.068,54.068,6,57.839,6h185.01
			c3.771,0,6.839,3.068,6.839,6.839v123.372C249.687,139.982,246.62,143.05,242.849,143.05z M57.839,10
			C56.273,10,55,11.273,55,12.839v123.372c0,1.565,1.273,2.839,2.839,2.839h185.01c1.565,0,2.839-1.274,2.839-2.839V12.839
			c0-1.565-1.273-2.839-2.839-2.839H57.839z"/>
	</g>
	<g>
		<path class="st4" d="M237.72,134.62H62.968c-1.636,0-2.968-1.332-2.968-2.968V17.397c0-1.636,1.332-2.968,2.968-2.968H237.72
			c1.636,0,2.968,1.332,2.968,2.968v114.255C240.687,133.289,239.356,134.62,237.72,134.62z M64,130.62h172.687V18.43H64V130.62z"/>
	</g>
	<g>
		<path class="st5" d="M245,248H11c-1.657,0-3-1.343-3-3v-18.333c0-1.657,1.343-3,3-3h234c1.657,0,3,1.343,3,3V245
			C248,246.657,246.657,248,245,248z"/>
	</g>
	<g>
		<path class="st0" d="M139.587,104.577c-1.612-2.409-2.045-5.451-1.287-9.045c2.277-10.796,14.919-24.857,32.208-35.822
			c30.953-19.632,59.937-19.452,55.912-0.37c-2.277,10.796-14.919,24.857-32.208,35.822
			C170.606,110.134,146.194,114.449,139.587,104.577z M211.619,49.171c-38.249,0-92.958,56.531-58.52,56.531
			c10.453,0,24.959-5.243,38.805-14.024C216.959,75.787,235.042,49.171,211.619,49.171z"/>
	</g>
	<g>
		<path class="st0" d="M139.587,50.296c2.326-3.475,6.961-5.312,13.404-5.312c11.273,0,26.682,5.505,41.221,14.726
			c23.522,14.919,37.568,34.935,30.921,44.867c-2.326,3.475-6.961,5.312-13.403,5.312
			C179.108,109.888,127.698,68.059,139.587,50.296z M153.099,49.171c-34.741,0,20.379,56.531,58.52,56.531
			c4.875,0,8.381-1.228,9.874-3.458c4.44-6.632-6.65-24.501-29.589-39.049C178.059,54.413,163.552,49.171,153.099,49.171z"/>
	</g>
	<g>
		<circle class="st1" cx="182.359" cy="78.294" r="9.11"/>
	</g>
	<g>
		<path class="st0" d="M182.359,127.145c-5.869,0-11.355-5.218-15.448-14.693c-8.367-19.368-8.368-50.663,0-70.032
			c8.453-19.567,22.409-19.647,30.897,0C211.319,73.695,201.655,127.145,182.359,127.145z M170.626,44.523
			c-7.665,18.143-7.664,47.684,0,65.826c12.668,29.984,29.21,0.919,29.21-32.913C199.836,43.113,183.187,14.791,170.626,44.523z"/>
	</g>
	<g>
		<circle class="st2" cx="182.359" cy="29.714" r="7.809"/>
	</g>
	<g>
		<circle class="st6" cx="224.545" cy="102.574" r="7.809"/>
	</g>
	<g>
		<circle class="st8" cx="141.681" cy="102.574" r="7.809"/>
	</g>
	<g>
		<path class="st0" d="M144.025,212.319h-11.357v-82.745c0-1.342,1.088-2.429,2.429-2.429h6.499c1.342,0,2.429,1.088,2.429,2.429
			V212.319z"/>
	</g>
	<g>
		<path class="st0" d="M150.16,223.667H13.674c-3.134,0-5.674-2.54-5.674-5.674v0c0-3.134,2.54-5.674,5.674-5.674H150.16
			c3.134,0,5.674,2.54,5.674,5.674v0C155.834,221.126,153.293,223.667,150.16,223.667z"/>
	</g>
	<g>
		<rect x="31.332" y="132.62" class="st6" width="101.335" height="8.43"/>
	</g>
	<g>
		<path class="st0" d="M31.332,212.319H19.975v-82.745c0-1.342,1.088-2.429,2.429-2.429h6.499c1.342,0,2.429,1.088,2.429,2.429
			V212.319z"/>
	</g>
	<g>
		<path class="st0" d="M73.012,73.361v3.979c6.757,0,8.301-0.409,8.301,1.227c0,1.659-1.498,1.249-8.301,1.249v4.61
			c7.337,0,9.208-0.493,9.208,1.315c0,0.724-0.479,1.293-1.559,1.293c-9.412,0-10.932,0.685-10.932-2.012
			c0-13.301-0.661-14.194,2.012-14.194c8.304,0,9.209-0.222,9.832,0.348c0.52,0.476,0.507,1.371,0,1.835
			C80.948,73.583,79.942,73.361,73.012,73.361z"/>
	</g>
	<g>
		<path class="st0" d="M93.468,78.025h-7.027c-1.914,0-1.915-2.896,0-2.896h7.027C95.394,75.129,95.397,78.025,93.468,78.025z"/>
	</g>
	<g>
		<path class="st0" d="M93.468,82.933h-7.027c-1.914,0-1.915-2.896,0-2.896h7.027C95.394,80.037,95.397,82.933,93.468,82.933z"/>
	</g>
	<g>
		<path class="st0" d="M108.449,86.541c-0.583,0.643-1.726,0.685-2.339,0c-1.146-1.283,0.271-7.949-0.959-9.394
			c-0.238-0.28-0.613-0.42-1.126-0.42c-5.052,0-0.265,10.307-4.125,10.307c-0.893,0-1.621-0.61-1.621-1.976
			c0-8.751-0.505-10.779,1.483-10.779c0.9,0,1.505,0.557,1.505,1.919c2.083-2.492,5.739-2.615,7.251,0
			c2.344-2.853,6.199-2.24,7.32,0.057c0.268,0.567,0.403,1.459,0.403,2.677c0,5.809,0.484,8.101-1.632,8.101
			c-0.893,0-1.621-0.61-1.621-1.976c0-4.619,0.048-5.948-0.086-6.895c-0.28-1.98-2.777-1.85-3.66-0.081
			C108.43,79.951,109.439,85.447,108.449,86.541z"/>
	</g>
	<g>
		<path class="st0" d="M129.116,85.673c-2.838,2.384-10.44,2.178-10.44-4.901c0-5.943,5.174-7.333,8.521-6.159
			c3.683,1.287,3.977,4.654,1.741,4.654c-1.467,0-1.349-2.597-4.022-2.597c-3.793,0-4.004,6.465-1.241,7.739
			c1.28,0.59,3.008,0.377,4.091-1.499c0.191-0.353,0.398-0.628,0.62-0.828C129.698,80.906,132.073,83.189,129.116,85.673z"/>
	</g>
	<g>
		<path class="st0" d="M134.458,76.474c3.215,0,3.896-0.125,4.333,0.216c0.368,0.287,0.359,0.835,0.057,1.149
			c-0.36,0.376-0.866,0.23-5.641,0.23c-1.249,0-1.374-1.283-0.494-2.217c0.547-0.568,2.003-2.032,2.657-2.475
			c4.083-2.884-0.408-5.642-1.484-2.575c-0.291,0.837-0.594,0.939-0.943,0.939c-1.354,0-0.962-2.57,1.105-3.39
			c3.78-1.501,6.61,2.45,3.587,5.172C136.309,74.714,135.125,75.457,134.458,76.474z"/>
	</g>
	<g>
		<path class="st1" d="M200.755,142.937h-25.509v-8.133c0-1.206,0.978-2.184,2.184-2.184h21.14c1.206,0,2.184,0.978,2.184,2.184
			V142.937z"/>
	</g>
	<g>
		<path class="st4" d="M245,250H11c-2.757,0-5-2.243-5-5v-18.333c0-2.757,2.243-5,5-5h234c2.757,0,5,2.243,5,5V245
			C250,247.757,247.757,250,245,250z M11,225.667c-0.551,0-1,0.449-1,1V245c0,0.551,0.449,1,1,1h234c0.551,0,1-0.449,1-1v-18.333
			c0-0.551-0.449-1-1-1H11z"/>
	</g>
	<g>
		<path class="st4" d="M206.209,225.788h-36.418c-3.533,0-6.408-2.875-6.408-6.408v-72.035c0-3.533,2.875-6.408,6.408-6.408h36.418
			c3.533,0,6.408,2.875,6.408,6.408v72.035C212.617,222.913,209.742,225.788,206.209,225.788z M169.791,144.937
			c-1.328,0-2.408,1.08-2.408,2.408v72.035c0,1.328,1.08,2.408,2.408,2.408h36.418c1.328,0,2.408-1.08,2.408-2.408v-72.035
			c0-1.328-1.08-2.408-2.408-2.408H169.791z"/>
	</g>
	<g>
		<path class="st4" d="M200.754,144.937h-25.509c-1.104,0-2-0.896-2-2v-8.132c0-2.308,1.877-4.185,4.184-4.185h21.141
			c2.307,0,4.184,1.877,4.184,4.185v8.132C202.754,144.042,201.859,144.937,200.754,144.937z M177.246,140.937h21.509v-6.132
			c0-0.102-0.083-0.185-0.184-0.185H177.43c-0.102,0-0.184,0.083-0.184,0.185V140.937z"/>
	</g>
	<g>
		<path class="st4" d="M144.025,214.319h-11.357c-1.104,0-2-0.896-2-2v-82.745c0-2.442,1.987-4.429,4.429-4.429h6.499
			c2.442,0,4.429,1.987,4.429,4.429v82.745C146.025,213.424,145.129,214.319,144.025,214.319z M134.667,210.319h7.357v-80.745
			c0-0.237-0.192-0.429-0.429-0.429h-6.499c-0.237,0-0.429,0.192-0.429,0.429V210.319z"/>
	</g>
	<g>
		<path class="st4" d="M150.16,225.667H13.674c-4.231,0-7.674-3.442-7.674-7.674c0-4.231,3.442-7.673,7.674-7.673H150.16
			c4.231,0,7.674,3.442,7.674,7.673C157.833,222.224,154.391,225.667,150.16,225.667z M13.674,214.319
			c-2.026,0-3.674,1.648-3.674,3.673c0,2.026,1.648,3.674,3.674,3.674H150.16c2.026,0,3.674-1.648,3.674-3.674
			c0-2.025-1.648-3.673-3.674-3.673H13.674z"/>
	</g>
	<g>
		<path class="st4" d="M31.333,214.319H19.975c-1.104,0-2-0.896-2-2v-82.745c0-2.442,1.987-4.429,4.429-4.429h6.499
			c2.442,0,4.429,1.987,4.429,4.429v82.745C33.333,213.424,32.437,214.319,31.333,214.319z M21.975,210.319h7.357v-80.745
			c0-0.237-0.192-0.429-0.429-0.429h-6.499c-0.237,0-0.429,0.192-0.429,0.429V210.319z"/>
	</g>
	<g>
		<path class="st4" d="M132.667,143.05H31.333c-1.104,0-2-0.896-2-2v-8.43c0-1.104,0.896-2,2-2h101.335c1.104,0,2,0.896,2,2v8.43
			C134.667,142.155,133.772,143.05,132.667,143.05z M33.333,139.05h97.335v-4.43H33.333V139.05z"/>
	</g>
	<g>
		<path class="st4" d="M49.721,190.644c-1.104,0-2-0.896-2-2V130.07c0-1.104,0.896-2,2-2s2,0.896,2,2v58.574
			C51.721,189.749,50.826,190.644,49.721,190.644z"/>
	</g>
	<g>
		<path class="st4" d="M67.293,190.644c-1.104,0-2-0.896-2-2V130.07c0-1.104,0.896-2,2-2s2,0.896,2,2v58.574
			C69.293,189.749,68.398,190.644,67.293,190.644z"/>
	</g>
	<g>
		<path class="st4" d="M84.866,190.644c-1.104,0-2-0.896-2-2V130.07c0-1.104,0.896-2,2-2s2,0.896,2,2v58.574
			C86.866,189.749,85.971,190.644,84.866,190.644z"/>
	</g>
	<g>
		<path class="st4" d="M114.603,187.513c-0.883,0-1.691-0.589-1.93-1.483l-15.16-56.579c-0.286-1.067,0.347-2.164,1.414-2.449
			c1.064-0.29,2.164,0.347,2.449,1.414l15.16,56.579c0.286,1.067-0.347,2.164-1.414,2.449
			C114.949,187.491,114.774,187.513,114.603,187.513z"/>
	</g>
	<g>
		<circle class="st1" cx="49.721" cy="188.644" r="8.493"/>
	</g>
	<g>
		<circle class="st1" cx="67.294" cy="188.644" r="8.493"/>
	</g>
	<g>
		<circle class="st1" cx="84.866" cy="188.644" r="8.493"/>
	</g>
	<g>
		<circle class="st1" cx="114.604" cy="185.512" r="8.493"/>
	</g>
	<g>
		<path class="st4" d="M49.721,199.137c-5.786,0-10.493-4.707-10.493-10.493s4.707-10.493,10.493-10.493s10.493,4.707,10.493,10.493
			S55.507,199.137,49.721,199.137z M49.721,182.151c-3.581,0-6.493,2.913-6.493,6.493s2.913,6.493,6.493,6.493
			s6.493-2.913,6.493-6.493S53.302,182.151,49.721,182.151z"/>
	</g>
	<g>
		<path class="st4" d="M67.293,199.137c-5.786,0-10.493-4.707-10.493-10.493s4.707-10.493,10.493-10.493s10.494,4.707,10.494,10.493
			S73.08,199.137,67.293,199.137z M67.293,182.151c-3.581,0-6.493,2.913-6.493,6.493s2.913,6.493,6.493,6.493
			s6.494-2.913,6.494-6.493S70.874,182.151,67.293,182.151z"/>
	</g>
	<g>
		<path class="st4" d="M84.866,199.137c-5.786,0-10.494-4.707-10.494-10.493s4.708-10.493,10.494-10.493s10.493,4.707,10.493,10.493
			S90.652,199.137,84.866,199.137z M84.866,182.151c-3.581,0-6.494,2.913-6.494,6.493s2.913,6.493,6.494,6.493
			s6.493-2.913,6.493-6.493S88.447,182.151,84.866,182.151z"/>
	</g>
	<g>
		<path class="st4" d="M114.606,196.007c-4.633,0-8.883-3.095-10.138-7.778c-1.498-5.589,1.831-11.354,7.42-12.852
			c5.59-1.499,11.354,1.831,12.852,7.42l0,0c0.726,2.708,0.353,5.535-1.048,7.962s-3.664,4.164-6.372,4.889
			C116.415,195.891,115.503,196.007,114.606,196.007z M114.603,179.019c-0.555,0-1.118,0.072-1.679,0.222
			c-3.458,0.927-5.518,4.495-4.592,7.953c0.927,3.458,4.495,5.514,7.953,4.591c1.675-0.449,3.076-1.523,3.943-3.025
			s1.098-3.252,0.649-4.927C120.1,180.935,117.469,179.019,114.603,179.019z"/>
	</g>
</g>
</svg>
