<?xml version="1.0" encoding="utf-8"?>
<!-- Generator: Adobe Illustrator 22.1.0, SVG Export Plug-In . SVG Version: 6.00 Build 0)  -->
<svg version="1.1" id="Layer_1" xmlns="http://www.w3.org/2000/svg" xmlns:xlink="http://www.w3.org/1999/xlink" x="0px" y="0px"
	 viewBox="0 0 256 256" style="enable-background:new 0 0 256 256;" xml:space="preserve">
<style type="text/css">
	.st0{fill:#4671C6;}
	.st1{fill:#F9CFCF;}
	.st2{fill:#F9A7A7;}
	.st3{fill:#A4C9FF;}
	.st4{fill:#3762CC;}
	.st5{fill:#E0EBFC;}
	.st6{fill:#6BDDDD;}
	.st7{fill:#B9BEFC;}
	.st8{fill:#FFEA92;}
	.st9{fill:#EAA97D;}
	.st10{fill:#FFEA94;}
	.st11{fill:#FFE164;}
	.st12{fill:#FFDC85;}
	.st13{fill:#FFFFFF;}
	.st14{fill:#383838;}
</style>
<g>
	<g>
		<rect x="25.085" y="161.93" class="st5" width="29.404" height="79.256"/>
	</g>
	<g>
		<rect x="54.49" y="161.93" class="st5" width="29.404" height="79.256"/>
	</g>
	<g>
		<rect x="54.49" y="161.93" class="st5" width="29.404" height="79.256"/>
	</g>
	<g>
		<rect x="83.894" y="161.93" class="st5" width="29.404" height="79.256"/>
	</g>
	<g>
		<rect x="113.298" y="161.93" class="st5" width="29.404" height="79.256"/>
	</g>
	<g>
		<rect x="142.702" y="161.93" class="st5" width="29.404" height="79.256"/>
	</g>
	<g>
		<rect x="172.106" y="161.93" class="st5" width="29.404" height="79.256"/>
	</g>
	<g>
		<rect x="201.51" y="161.93" class="st5" width="29.404" height="79.256"/>
	</g>
	<g>
		<path class="st4" d="M54.489,243.186H25.086c-1.104,0-2-0.896-2-2V161.93c0-1.104,0.896-2,2-2h29.403c1.104,0,2,0.896,2,2v79.256
			C56.489,242.291,55.594,243.186,54.489,243.186z M27.086,239.186h25.403V163.93H27.086V239.186z"/>
	</g>
	<g>
		<path class="st4" d="M83.894,243.186H54.489c-1.104,0-2-0.896-2-2V161.93c0-1.104,0.896-2,2-2h29.404c1.104,0,2,0.896,2,2v79.256
			C85.894,242.291,84.998,243.186,83.894,243.186z M56.489,239.186h25.404V163.93H56.489V239.186z"/>
	</g>
	<g>
		<path class="st4" d="M83.894,243.186H54.489c-1.104,0-2-0.896-2-2V161.93c0-1.104,0.896-2,2-2h29.404c1.104,0,2,0.896,2,2v79.256
			C85.894,242.291,84.998,243.186,83.894,243.186z M56.489,239.186h25.404V163.93H56.489V239.186z"/>
	</g>
	<g>
		<path class="st4" d="M113.298,243.186H83.894c-1.104,0-2-0.896-2-2V161.93c0-1.104,0.896-2,2-2h29.404c1.104,0,2,0.896,2,2v79.256
			C115.298,242.291,114.402,243.186,113.298,243.186z M85.894,239.186h25.404V163.93H85.894V239.186z"/>
	</g>
	<g>
		<path class="st4" d="M142.702,243.186h-29.404c-1.104,0-2-0.896-2-2V161.93c0-1.104,0.896-2,2-2h29.404c1.104,0,2,0.896,2,2
			v79.256C144.702,242.291,143.807,243.186,142.702,243.186z M115.298,239.186h25.404V163.93h-25.404V239.186z"/>
	</g>
	<g>
		<path class="st4" d="M172.106,243.186h-29.404c-1.104,0-2-0.896-2-2V161.93c0-1.104,0.896-2,2-2h29.404c1.104,0,2,0.896,2,2
			v79.256C174.106,242.291,173.211,243.186,172.106,243.186z M144.702,239.186h25.404V163.93h-25.404V239.186z"/>
	</g>
	<g>
		<path class="st4" d="M201.511,243.186h-29.404c-1.104,0-2-0.896-2-2V161.93c0-1.104,0.896-2,2-2h29.404c1.104,0,2,0.896,2,2
			v79.256C203.511,242.291,202.615,243.186,201.511,243.186z M174.106,239.186h25.404V163.93h-25.404V239.186z"/>
	</g>
	<g>
		<path class="st4" d="M230.914,243.186h-29.403c-1.104,0-2-0.896-2-2V161.93c0-1.104,0.896-2,2-2h29.403c1.104,0,2,0.896,2,2
			v79.256C232.914,242.291,232.019,243.186,230.914,243.186z M203.511,239.186h25.403V163.93h-25.403V239.186z"/>
	</g>
	<g>
		<path class="st3" d="M59.608,201.558H49.371c-1.233,0-2.233-1-2.233-2.233V161.93h14.702v37.395
			C61.841,200.559,60.841,201.558,59.608,201.558z"/>
	</g>
	<g>
		<path class="st3" d="M89.012,201.558H78.775c-1.233,0-2.233-1-2.233-2.233V161.93h14.702v37.395
			C91.245,200.559,90.245,201.558,89.012,201.558z"/>
	</g>
	<g>
		<path class="st3" d="M118.416,201.558h-10.237c-1.233,0-2.233-1-2.233-2.233V161.93h14.702v37.395
			C120.649,200.559,119.649,201.558,118.416,201.558z"/>
	</g>
	<g>
		<path class="st3" d="M177.225,201.558h-10.237c-1.233,0-2.233-1-2.233-2.233V161.93h14.702v37.395
			C179.457,200.559,178.458,201.558,177.225,201.558z"/>
	</g>
	<g>
		<path class="st3" d="M206.629,201.558h-10.237c-1.233,0-2.233-1-2.233-2.233V161.93h14.702v37.395
			C208.861,200.559,207.862,201.558,206.629,201.558z"/>
	</g>
	<g>
		<path class="st0" d="M179.457,73.213L179.457,73.213c0-32.253-26.146-58.399-58.399-58.399H66.399C34.146,14.814,8,40.96,8,73.213
			c0,7.468,0,66.872,0,74.438c19.375,0,231.651,0,240,0v-29.163c0-16.569-13.431-30-30-30h-23.267
			C186.296,88.488,179.457,81.649,179.457,73.213z"/>
	</g>
	<g>
		<path class="st0" d="M8,147.651v89.07c0,2.466,1.999,4.465,4.465,4.465h12.62V161.93h205.829v79.256h12.62
			c2.466,0,4.465-1.999,4.465-4.465v-89.07C239.596,147.651,27.285,147.651,8,147.651z"/>
	</g>
	<g>
		<path class="st4" d="M59.608,203.558H49.371c-2.334,0-4.232-1.898-4.232-4.232V161.93c0-1.104,0.896-2,2-2h14.702
			c1.104,0,2,0.896,2,2v37.396C63.841,201.66,61.942,203.558,59.608,203.558z M49.139,163.93v35.396
			c0,0.128,0.104,0.232,0.232,0.232h10.237c0.128,0,0.232-0.104,0.232-0.232V163.93H49.139z"/>
	</g>
	<g>
		<path class="st4" d="M89.013,203.558H78.775c-2.334,0-4.232-1.898-4.232-4.232V161.93c0-1.104,0.896-2,2-2h14.702
			c1.104,0,2,0.896,2,2v37.396C93.245,201.66,91.347,203.558,89.013,203.558z M78.543,163.93v35.396
			c0,0.128,0.104,0.232,0.232,0.232h10.237c0.128,0,0.232-0.104,0.232-0.232V163.93H78.543z"/>
	</g>
	<g>
		<path class="st4" d="M118.416,203.558H108.18c-2.334,0-4.232-1.898-4.232-4.232V161.93c0-1.104,0.896-2,2-2h14.702
			c1.104,0,2,0.896,2,2v37.396C122.649,201.66,120.75,203.558,118.416,203.558z M107.947,163.93v35.396
			c0,0.128,0.104,0.232,0.232,0.232h10.236c0.129,0,0.233-0.104,0.233-0.232V163.93H107.947z"/>
	</g>
	<g>
		<path class="st4" d="M177.225,203.558h-10.237c-2.334,0-4.232-1.898-4.232-4.232V161.93c0-1.104,0.896-2,2-2h14.702
			c1.104,0,2,0.896,2,2v37.396C181.457,201.66,179.559,203.558,177.225,203.558z M166.755,163.93v35.396
			c0,0.128,0.104,0.232,0.232,0.232h10.237c0.128,0,0.232-0.104,0.232-0.232V163.93H166.755z"/>
	</g>
	<g>
		<path class="st4" d="M206.629,203.558h-10.237c-2.334,0-4.232-1.898-4.232-4.232V161.93c0-1.104,0.896-2,2-2h14.702
			c1.104,0,2,0.896,2,2v37.396C210.861,201.66,208.963,203.558,206.629,203.558z M196.159,163.93v35.396
			c0,0.128,0.104,0.232,0.232,0.232h10.237c0.128,0,0.232-0.104,0.232-0.232V163.93H196.159z"/>
	</g>
	<g>
		<path class="st4" d="M248,149.651H8c-1.104,0-2-0.896-2-2V73.213c0-33.304,27.095-60.399,60.399-60.399h54.659
			c33.304,0,60.398,27.095,60.398,60.399v0c0,7.32,5.955,13.275,13.275,13.275H218c17.645,0,32,14.355,32,32v29.163
			C250,148.756,249.104,149.651,248,149.651z M10,145.651h236v-27.163c0-15.439-12.561-28-28-28h-23.268
			c-9.525,0-17.275-7.75-17.275-17.275c0-31.099-25.3-56.399-56.398-56.399H66.399C35.301,16.814,10,42.114,10,73.213V145.651z"/>
	</g>
	<g>
		<path class="st4" d="M243.535,243.186h-12.621c-1.104,0-2-0.896-2-2V163.93H27.086v77.256c0,1.104-0.896,2-2,2H12.465
			c-3.564,0-6.465-2.9-6.465-6.465v-89.07c0-1.104,0.896-2,2-2h240c1.104,0,2,0.896,2,2v89.07
			C250,240.286,247.1,243.186,243.535,243.186z M232.914,239.186h10.621c1.359,0,2.465-1.106,2.465-2.465v-87.07H10v87.07
			c0,1.359,1.105,2.465,2.465,2.465h10.621V161.93c0-1.104,0.896-2,2-2h205.828c1.104,0,2,0.896,2,2V239.186z"/>
	</g>
</g>
</svg>
