<?xml version="1.0" encoding="utf-8"?>
<!-- Generator: Adobe Illustrator 22.1.0, SVG Export Plug-In . SVG Version: 6.00 Build 0)  -->
<svg version="1.1" id="Layer_1" xmlns="http://www.w3.org/2000/svg" xmlns:xlink="http://www.w3.org/1999/xlink" x="0px" y="0px"
	 viewBox="0 0 256 256" style="enable-background:new 0 0 256 256;" xml:space="preserve">
<style type="text/css">
	.st0{fill:#4671C6;}
	.st1{fill:#F9CFCF;}
	.st2{fill:#F9A7A7;}
	.st3{fill:#A4C9FF;}
	.st4{fill:#3762CC;}
	.st5{fill:#E0EBFC;}
	.st6{fill:#6BDDDD;}
	.st7{fill:#B9BEFC;}
	.st8{fill:#FFEA92;}
	.st9{fill:#EAA97D;}
	.st10{fill:#FFEA94;}
	.st11{fill:#FFE164;}
	.st12{fill:#FFDC85;}
	.st13{fill:#FFFFFF;}
	.st14{fill:#383838;}
</style>
<g>
	<g>
		<rect x="59.091" y="73.581" class="st6" width="8" height="54.839"/>
	</g>
	<g>
		<rect x="188.909" y="73.581" class="st6" width="8" height="54.839"/>
	</g>
	<g>
		<path class="st3" d="M128,86.463v137.956h56.478v-91.871C184.478,107.101,159.197,86.463,128,86.463z M177.833,218.998h-43.189
			V92.245c24.348,2.66,43.189,19.72,43.189,40.304V218.998z"/>
	</g>
	<g>
		<path class="st3" d="M71.522,132.549v91.871H128V86.463C96.805,86.463,71.522,107.099,71.522,132.549z M121.356,218.998H78.167
			v-86.449c0-20.584,18.841-37.644,43.189-40.303V218.998z"/>
	</g>
	<g>
		<path class="st3" d="M86.618,104.98v116.734h6.644V99.756C90.868,101.351,88.644,103.097,86.618,104.98z"/>
	</g>
	<g>
		<path class="st3" d="M105.152,92.416v129.298h6.644V90.685C109.521,91.154,107.306,91.738,105.152,92.416z"/>
	</g>
	<g>
		<path class="st3" d="M169.382,104.98v116.734h-6.644V99.756C165.132,101.351,167.356,103.097,169.382,104.98z"/>
	</g>
	<g>
		<path class="st3" d="M150.848,92.416v129.298h-6.644V90.685C146.479,91.154,148.694,91.738,150.848,92.416z"/>
	</g>
	<g>
		<path class="st7" d="M71.522,224.419H16.5c-1.657,0-3-1.343-3-3v-93h58.022V224.419z"/>
	</g>
	<g>
		<path class="st4" d="M184.478,226.419H128c-1.104,0-2-0.896-2-2V86.463c0-1.104,0.896-2,2-2c32.245,0,58.478,21.571,58.478,48.086
			v91.87C186.478,225.523,185.583,226.419,184.478,226.419z M130,222.419h52.478v-89.87c0-23.768-23.361-43.202-52.478-44.057
			V222.419z"/>
	</g>
	<g>
		<path class="st4" d="M128,226.419H71.522c-1.104,0-2-0.896-2-2v-91.87c0-26.515,26.233-48.086,58.478-48.086c1.104,0,2,0.896,2,2
			v137.956C130,225.523,129.104,226.419,128,226.419z M73.522,222.419H126V88.492c-29.117,0.854-52.478,20.289-52.478,44.057
			V222.419z"/>
	</g>
	<g>
		<path class="st4" d="M71.522,226.42H16.5c-2.757,0-5-2.243-5-5v-93.001c0-1.104,0.896-2,2-2h58.022c1.104,0,2,0.896,2,2v96.001
			C73.522,225.524,72.626,226.42,71.522,226.42z M15.5,130.419v91.001c0,0.552,0.449,1,1,1h53.022v-92.001H15.5z"/>
	</g>
	<g>
		<path class="st0" d="M195,73.581H61c-6.627,0-12-5.373-12-12v-18c0-6.627,5.373-12,12-12h134c6.627,0,12,5.373,12,12v18
			C207,68.208,201.627,73.581,195,73.581z"/>
	</g>
	<g>
		<path class="st6" d="M91.742,60.302c14.741-17.546,14.594-16.741,14.594-19.412c0-2.357-1.426-3.709-3.914-3.709
			c-16.73,0-16.826-0.274-18.026,0.821c-1.653,1.508-1.317,5.128,2.513,5.128h10.11c-14.936,17.872-14.421,17.067-14.8,18.067
			c-0.637,1.663-0.021,5.055,4.319,5.055c19.054,0,19.031,0.28,20.231-0.811c0.606-0.552,0.926-1.323,0.926-2.228
			c0-0.895-0.33-1.644-0.953-2.167C105.575,60.065,105.134,60.302,91.742,60.302z"/>
	</g>
	<g>
		<path class="st6" d="M133.595,38.554c-7.407-4.192-21.888-2.163-21.888,13.088c0,2.132,0.306,4.148,0.91,5.991
			c1.23,3.755,3.661,6.5,7.295,7.984c3.651,1.491,8.607,1.443,12.117,0.03C142.968,61.233,142.526,43.606,133.595,38.554z
			 M125.87,42.906c2.694,0,4.891,1.262,6.059,3.908c0.591,1.342,0.891,2.965,0.891,4.827c0,8.707-6.218,9.827-9.552,8.348
			C117.337,57.358,117.177,42.906,125.87,42.906z"/>
	</g>
	<g>
		<path class="st6" d="M167.367,38.554c-4.024-2.277-9.786-2.329-13.638-0.797c-12.274,4.881-11.569,28.959,6.024,28.959
			C177.156,66.716,177.405,44.232,167.367,38.554z M159.641,42.906c9.544,0,9.206,17.619,0.075,17.619
			C150.717,60.525,150.285,42.906,159.641,42.906z"/>
	</g>
	<g>
		<path class="st4" d="M195,75.58H61c-7.72,0-14-6.28-14-14v-18c0-7.72,6.28-14,14-14h134c7.72,0,14,6.28,14,14v18
			C209,69.3,202.72,75.58,195,75.58z M61,33.58c-5.514,0-10,4.486-10,10v18c0,5.514,4.486,10,10,10h134c5.514,0,10-4.486,10-10v-18
			c0-5.514-4.486-10-10-10H61z"/>
	</g>
	<g>
		<path class="st5" d="M71.522,151.532H11c-1.657,0-3-1.343-3-3v-17.113c0-1.657,1.343-3,3-3h60.522V151.532z"/>
	</g>
	<g>
		<path class="st4" d="M71.522,153.532H11c-2.757,0-5-2.243-5-5v-17.113c0-2.757,2.243-5,5-5h60.522c1.104,0,2,0.896,2,2v23.113
			C73.522,152.637,72.626,153.532,71.522,153.532z M11,130.419c-0.551,0-1,0.448-1,1v17.113c0,0.552,0.449,1,1,1h58.522v-19.113H11z
			"/>
	</g>
	<g>
		<path class="st7" d="M184.478,224.419H239.5c1.657,0,3-1.343,3-3v-93h-58.022V224.419z"/>
	</g>
	<g>
		<path class="st4" d="M239.5,226.42h-55.022c-1.104,0-2-0.896-2-2v-96.001c0-1.104,0.896-2,2-2H242.5c1.104,0,2,0.896,2,2v93.001
			C244.5,224.177,242.257,226.42,239.5,226.42z M186.478,222.42H239.5c0.551,0,1-0.448,1-1v-91.001h-54.022V222.42z"/>
	</g>
	<g>
		<path class="st5" d="M184.478,151.532H245c1.657,0,3-1.343,3-3v-17.113c0-1.657-1.343-3-3-3h-60.522V151.532z"/>
	</g>
	<g>
		<path class="st4" d="M245,153.532h-60.522c-1.104,0-2-0.896-2-2v-23.113c0-1.104,0.896-2,2-2H245c2.757,0,5,2.243,5,5v17.113
			C250,151.289,247.757,153.532,245,153.532z M186.478,149.532H245c0.551,0,1-0.448,1-1v-17.113c0-0.552-0.449-1-1-1h-58.522
			V149.532z"/>
	</g>
</g>
</svg>
