<?xml version="1.0" encoding="iso-8859-1"?>
<!-- Generator: Adobe Illustrator 23.0.4, SVG Export Plug-In . SVG Version: 6.00 Build 0)  -->
<svg version="1.1" xmlns="http://www.w3.org/2000/svg" xmlns:xlink="http://www.w3.org/1999/xlink" x="0px" y="0px"
	 viewBox="0 0 64 64" style="enable-background:new 0 0 64 64;" xml:space="preserve">
<g id="front-view-02">
	<path style="fill:#262626;" d="M53.909,15.426H10.091v28.295h43.818V15.426z M53.074,42.886H10.926V16.261h42.149V42.886z
		 M57.056,44.73v-29.6c0-1.429-1.09-2.548-2.481-2.548H9.425c-1.391,0-2.481,1.119-2.481,2.548v29.6H0.835L0,44.733v0.835
		c0,3.227,2.625,5.852,5.852,5.852h52.296c3.227,0,5.852-2.625,5.852-5.855V44.73H57.056z M8.614,15.129
		c0-0.501,0.349-0.879,0.811-0.879h45.15c0.463,0,0.812,0.378,0.812,0.879v29.6H38.223v1.587H25.777V44.73H8.614V15.129z
		 M58.148,49.75H5.852c-2.021,0-3.711-1.44-4.099-3.351H24.11c0.043,0.882,0.775,1.587,1.668,1.587h12.445
		c0.893,0,1.624-0.704,1.668-1.587h22.357C61.861,48.308,60.17,49.75,58.148,49.75z"/>
</g>
<g id="Layer_1">
</g>
</svg>
