<?xml version="1.0" encoding="iso-8859-1"?>
<!-- Generator: Adobe Illustrator 23.0.4, SVG Export Plug-In . SVG Version: 6.00 Build 0)  -->
<svg version="1.1" xmlns="http://www.w3.org/2000/svg" xmlns:xlink="http://www.w3.org/1999/xlink" x="0px" y="0px"
	 viewBox="0 0 64 64" style="enable-background:new 0 0 64 64;" xml:space="preserve">
<g id="screen-sideview">
	<path style="fill:#262626;" d="M59.732,17.906c0.053-0.28-0.021-0.565-0.203-0.785c-0.182-0.218-0.449-0.344-0.733-0.344H26.988
		c-0.457,0-0.851,0.326-0.935,0.775l-5.12,27.164h33.747L59.732,17.906z M22.271,43.608l4.848-25.72h31.488l-4.848,25.72H22.271z
		 M34.087,47.117h4.588v0.555h-4.588V47.117z M39.645,47.117h1.777v0.555h-1.777V47.117z M42.876,47.117h1.858v0.555h-1.858V47.117z
		 M63.598,15.396c-0.333-0.401-0.823-0.631-1.344-0.631h-1.588h-33.5h-1.588c-0.839,0-1.561,0.598-1.716,1.424l-5.577,30.096h-5.258
		l-0.5-0.663H1.807C0.811,45.621,0,46.432,0,47.428c0,0.996,0.811,1.807,1.807,1.807h31.355c0.002,0,0.004,0.001,0.005,0.001v-0.001
		h23.636c0.995,0,1.805-0.81,1.805-1.808c0-0.304-0.083-0.586-0.216-0.837l5.578-29.755C64.066,16.322,63.931,15.798,63.598,15.396z
		 M24.953,16.392c0.056-0.3,0.319-0.518,0.625-0.518h1.588h33.5c0.19,0,0.368,0.084,0.489,0.23c0.121,0.146,0.171,0.337,0.135,0.523
		l-5.465,28.993H19.632l-0.114,0.105L24.953,16.392z M1.11,47.428c0-0.384,0.313-0.697,0.697-0.697h10.167l0.5,0.663h6.868
		l0.722-0.663H31.5c-0.09,0.215-0.14,0.45-0.14,0.697c0,0.247,0.05,0.482,0.14,0.697H1.807C1.423,48.125,1.11,47.812,1.11,47.428z
		 M56.802,48.125H33.164c-0.383-0.002-0.694-0.313-0.694-0.697c0-0.384,0.313-0.697,0.697-0.697h23.636
		c0.383,0,0.695,0.312,0.695,0.699C57.497,47.812,57.185,48.125,56.802,48.125z M62.879,16.629l-5.457,29.109
		c-0.149-0.055-0.306-0.088-0.47-0.101l5.429-28.802c0.061-0.326,0.019-0.652-0.097-0.953c0.178,0.009,0.345,0.085,0.46,0.224
		C62.865,16.251,62.914,16.442,62.879,16.629z"/>
</g>
<g id="Layer_1">
</g>
</svg>
