<?xml version="1.0" encoding="utf-8"?>
<!-- Generator: Adobe Illustrator 22.0.0, SVG Export Plug-In . SVG Version: 6.00 Build 0)  -->
<svg version="1.1" id="Icon_Set" xmlns="http://www.w3.org/2000/svg" xmlns:xlink="http://www.w3.org/1999/xlink" x="0px" y="0px"
	 viewBox="0 0 64 64" style="enable-background:new 0 0 64 64;" xml:space="preserve">
<style type="text/css">
	.st0{fill:#212A41;}
	.st1{fill:#4E4B51;}
	.st2{fill:#6C696F;}
	.st3{fill:#B7C0D7;}
	.st4{fill:#D5DEF5;}
	.st5{fill:#99A2B9;}
	.st6{fill:#E0E0E0;}
	.st7{fill:#D32E5E;}
	.st8{fill:#F9AC2F;}
	.st9{fill:#0079A8;}
	.st10{fill:#BED38E;}
	.st11{fill:#8A878D;}
	.st12{fill:#C2C2C2;}
	.st13{fill:#302D33;}
	.st14{fill:#FEFEFE;}
	.st15{fill:#FFCA4D;}
	.st16{fill:#DB8E11;}
	.st17{fill:#A4A4A4;}
	.st18{fill:#7B849B;}
	.st19{fill:#E0C8A4;}
	.st20{fill:#C2AA86;}
	.st21{fill:#FEE6C2;}
	.st22{fill:#1E97C6;}
	.st23{fill:#005B8A;}
	.st24{fill:#BD7000;}
</style>
<g>
	<g>
		<path class="st12" d="M36,7H24c-0.552,0-1-0.448-1-1V4h14v2C37,6.552,36.552,7,36,7z"/>
		<path class="st0" d="M36,7.5H24c-0.827,0-1.5-0.673-1.5-1.5V4c0-0.276,0.224-0.5,0.5-0.5h14c0.276,0,0.5,0.224,0.5,0.5v2
			C37.5,6.827,36.827,7.5,36,7.5z M23.5,4.5V6c0,0.275,0.224,0.5,0.5,0.5h12c0.276,0,0.5-0.225,0.5-0.5V4.5H23.5z"/>
	</g>
	<g>
		<ellipse class="st8" cx="10" cy="29.5" rx="2" ry="7"/>
		<path class="st0" d="M10,37c-1.718,0-2.5-3.888-2.5-7.5S8.282,22,10,22s2.5,3.888,2.5,7.5S11.718,37,10,37z M10,23
			c-0.449,0-1.5,2.212-1.5,6.5S9.551,36,10,36s1.5-2.212,1.5-6.5S10.449,23,10,23z"/>
	</g>
	<g>
		<ellipse class="st8" cx="54" cy="29.5" rx="2" ry="7"/>
		<path class="st0" d="M54,37c-1.718,0-2.5-3.888-2.5-7.5S52.282,22,54,22s2.5,3.888,2.5,7.5S55.718,37,54,37z M54,23
			c-0.449,0-1.5,2.212-1.5,6.5S53.551,36,54,36s1.5-2.212,1.5-6.5S54.449,23,54,23z"/>
	</g>
	<g>
		<path class="st0" d="M50,52.5c-2.481,0-4.5-2.019-4.5-4.5V38c0-1.93-1.57-3.5-3.5-3.5h-2.5c-0.276,0-0.5-0.224-0.5-0.5
			s0.224-0.5,0.5-0.5H42c2.481,0,4.5,2.019,4.5,4.5v10c0,1.93,1.57,3.5,3.5,3.5s3.5-1.57,3.5-3.5v-4c0-0.276,0.224-0.5,0.5-0.5
			s0.5,0.224,0.5,0.5v4C54.5,50.481,52.481,52.5,50,52.5z"/>
	</g>
	<g>
		<path class="st12" d="M35.5,44h-10V34c0-2.209,1.791-4,4-4h2c2.209,0,4,1.791,4,4V44z"/>
		<path class="st0" d="M35.5,44.5h-10c-0.276,0-0.5-0.224-0.5-0.5V34c0-2.481,2.019-4.5,4.5-4.5h2c2.481,0,4.5,2.019,4.5,4.5v10
			C36,44.276,35.776,44.5,35.5,44.5z M26,43.5h9V34c0-1.93-1.57-3.5-3.5-3.5h-2c-1.93,0-3.5,1.57-3.5,3.5V43.5z"/>
	</g>
	<g>
		<path class="st12" d="M23.5,40h2c1.259,0,2.445,0.593,3.2,1.6l1.8,2.4l1.8-2.4c0.755-1.007,1.941-1.6,3.2-1.6h2v4
			c0,2.209-1.791,4-4,4h-6c-2.209,0-4-1.791-4-4V40z"/>
		<path class="st0" d="M33.5,48.5h-6c-2.481,0-4.5-2.019-4.5-4.5v-4c0-0.276,0.224-0.5,0.5-0.5h2c1.409,0,2.755,0.673,3.6,1.8
			l1.4,1.867l1.4-1.867c0.845-1.127,2.191-1.8,3.6-1.8h2c0.276,0,0.5,0.224,0.5,0.5v4C38,46.481,35.981,48.5,33.5,48.5z M24,40.5V44
			c0,1.93,1.57,3.5,3.5,3.5h6c1.93,0,3.5-1.57,3.5-3.5v-3.5h-1.5c-1.096,0-2.143,0.523-2.8,1.399l-1.8,2.4
			c-0.188,0.252-0.611,0.252-0.8,0l-1.8-2.4c-0.658-0.876-1.705-1.399-2.8-1.399H24z"/>
	</g>
	<g>
		<rect x="31.5" y="48" class="st6" width="3" height="10"/>
		<path class="st0" d="M34.5,58.5h-3c-0.276,0-0.5-0.224-0.5-0.5V48c0-0.276,0.224-0.5,0.5-0.5h3c0.276,0,0.5,0.224,0.5,0.5v10
			C35,58.276,34.776,58.5,34.5,58.5z M32,57.5h2v-9h-2V57.5z"/>
	</g>
	<g>
		<rect x="31.5" y="4" class="st6" width="3" height="26"/>
		<path class="st0" d="M34.5,30.5h-3c-0.276,0-0.5-0.224-0.5-0.5V4c0-0.276,0.224-0.5,0.5-0.5h3C34.776,3.5,35,3.724,35,4v26
			C35,30.276,34.776,30.5,34.5,30.5z M32,29.5h2v-25h-2V29.5z"/>
	</g>
	<g>
		<path class="st6" d="M39.5,44h-10V34c0-2.209,1.791-4,4-4h2c2.209,0,4,1.791,4,4V44z"/>
		<path class="st0" d="M39.5,44.5h-10c-0.276,0-0.5-0.224-0.5-0.5V34c0-2.481,2.019-4.5,4.5-4.5h2c2.481,0,4.5,2.019,4.5,4.5v10
			C40,44.276,39.776,44.5,39.5,44.5z M30,43.5h9V34c0-1.93-1.57-3.5-3.5-3.5h-2c-1.93,0-3.5,1.57-3.5,3.5V43.5z"/>
	</g>
	<g>
		<path class="st6" d="M5,32.5L5,32.5c1.259,0,2.445,0.593,3.2,1.6l1.8,2.4l1.8-2.4c0.755-1.007,1.941-1.6,3.2-1.6h0v4
			c0,2.209-1.791,4-4,4H9c-2.209,0-4-1.791-4-4V32.5z"/>
		<path class="st0" d="M11,41H9c-2.481,0-4.5-2.019-4.5-4.5v-4C4.5,32.224,4.724,32,5,32c1.409,0,2.755,0.673,3.6,1.8l1.4,1.867
			l1.4-1.867c0.845-1.127,2.191-1.8,3.6-1.8c0.276,0,0.5,0.224,0.5,0.5v4C15.5,38.981,13.481,41,11,41z M5.5,33.036V36.5
			C5.5,38.43,7.07,40,9,40h2c1.93,0,3.5-1.57,3.5-3.5v-3.464c-0.908,0.133-1.744,0.622-2.3,1.363l-1.8,2.4
			c-0.188,0.252-0.611,0.252-0.8,0l-1.8-2.4C7.244,33.658,6.408,33.169,5.5,33.036z"/>
	</g>
	<g>
		<path class="st14" d="M9,39c-1.378,0-2.5-1.121-2.5-2.5v-0.667c0-0.276,0.224-0.5,0.5-0.5s0.5,0.224,0.5,0.5V36.5
			C7.5,37.327,8.173,38,9,38c0.276,0,0.5,0.224,0.5,0.5S9.276,39,9,39z"/>
	</g>
	<g>
		<circle class="st6" cx="33" cy="58" r="2"/>
		<path class="st0" d="M33,60.5c-1.378,0-2.5-1.121-2.5-2.5s1.122-2.5,2.5-2.5s2.5,1.121,2.5,2.5S34.378,60.5,33,60.5z M33,56.5
			c-0.827,0-1.5,0.673-1.5,1.5s0.673,1.5,1.5,1.5s1.5-0.673,1.5-1.5S33.827,56.5,33,56.5z"/>
	</g>
	<g>
		<path class="st0" d="M14,52.5c-2.481,0-4.5-2.019-4.5-4.5v-4c0-0.276,0.224-0.5,0.5-0.5s0.5,0.224,0.5,0.5v4
			c0,1.93,1.57,3.5,3.5,3.5s3.5-1.57,3.5-3.5V38c0-2.481,2.019-4.5,4.5-4.5h5.5c0.276,0,0.5,0.224,0.5,0.5s-0.224,0.5-0.5,0.5H22
			c-1.93,0-3.5,1.57-3.5,3.5v10C18.5,50.481,16.481,52.5,14,52.5z"/>
	</g>
	<g>
		<path class="st6" d="M14,43.5H6c-0.552,0-1-0.448-1-1v-1c0-0.552,0.448-1,1-1h8c0.552,0,1,0.448,1,1v1
			C15,43.052,14.552,43.5,14,43.5z"/>
		<path class="st0" d="M14,44H6c-0.827,0-1.5-0.673-1.5-1.5v-1C4.5,40.673,5.173,40,6,40h8c0.827,0,1.5,0.673,1.5,1.5v1
			C15.5,43.327,14.827,44,14,44z M6,41c-0.276,0-0.5,0.225-0.5,0.5v1C5.5,42.775,5.724,43,6,43h8c0.276,0,0.5-0.225,0.5-0.5v-1
			c0-0.275-0.224-0.5-0.5-0.5H6z"/>
	</g>
	<g>
		<path class="st6" d="M59,32.5L59,32.5c-1.259,0-2.445,0.593-3.2,1.6L54,36.5l-1.8-2.4c-0.755-1.007-1.941-1.6-3.2-1.6h0v4
			c0,2.209,1.791,4,4,4h2c2.209,0,4-1.791,4-4V32.5z"/>
		<path class="st0" d="M55,41h-2c-2.481,0-4.5-2.019-4.5-4.5v-4c0-0.276,0.224-0.5,0.5-0.5c1.409,0,2.755,0.673,3.6,1.8l1.4,1.867
			l1.4-1.867c0.845-1.127,2.191-1.8,3.6-1.8c0.276,0,0.5,0.224,0.5,0.5v4C59.5,38.981,57.481,41,55,41z M49.5,33.036V36.5
			c0,1.93,1.57,3.5,3.5,3.5h2c1.93,0,3.5-1.57,3.5-3.5v-3.464c-0.908,0.133-1.744,0.622-2.3,1.363l-1.8,2.4
			c-0.188,0.252-0.611,0.252-0.8,0l-1.8-2.4C51.244,33.658,50.408,33.169,49.5,33.036z"/>
	</g>
	<g>
		<path class="st6" d="M50,43.5h8c0.552,0,1-0.448,1-1v-1c0-0.552-0.448-1-1-1h-8c-0.552,0-1,0.448-1,1v1
			C49,43.052,49.448,43.5,50,43.5z"/>
		<path class="st0" d="M58,44h-8c-0.827,0-1.5-0.673-1.5-1.5v-1c0-0.827,0.673-1.5,1.5-1.5h8c0.827,0,1.5,0.673,1.5,1.5v1
			C59.5,43.327,58.827,44,58,44z M50,41c-0.276,0-0.5,0.225-0.5,0.5v1c0,0.275,0.224,0.5,0.5,0.5h8c0.276,0,0.5-0.225,0.5-0.5v-1
			c0-0.275-0.224-0.5-0.5-0.5H50z"/>
	</g>
	<g>
		<path class="st6" d="M42,7H30c-0.552,0-1-0.448-1-1V4h14v2C43,6.552,42.552,7,42,7z"/>
		<path class="st0" d="M42,7.5H30c-0.827,0-1.5-0.673-1.5-1.5V4c0-0.276,0.224-0.5,0.5-0.5h14c0.276,0,0.5,0.224,0.5,0.5v2
			C43.5,6.827,42.827,7.5,42,7.5z M29.5,4.5V6c0,0.275,0.224,0.5,0.5,0.5h12c0.276,0,0.5-0.225,0.5-0.5V4.5H29.5z"/>
	</g>
	<g>
		<path class="st14" d="M31.5,38.5c-0.276,0-0.5-0.224-0.5-0.5v-4c0-0.276,0.224-0.5,0.5-0.5S32,33.724,32,34v4
			C32,38.276,31.776,38.5,31.5,38.5z"/>
	</g>
	<g>
		<path class="st12" d="M37.5,38.5c-0.276,0-0.5-0.224-0.5-0.5v-4c0-0.276,0.224-0.5,0.5-0.5S38,33.724,38,34v4
			C38,38.276,37.776,38.5,37.5,38.5z"/>
	</g>
	<g>
		<path class="st6" d="M27.5,40h2c1.259,0,2.445,0.593,3.2,1.6l1.8,2.4l1.8-2.4c0.755-1.007,1.941-1.6,3.2-1.6h2v4
			c0,2.209-1.791,4-4,4h-6c-2.209,0-4-1.791-4-4V40z"/>
		<path class="st0" d="M37.5,48.5h-6c-2.481,0-4.5-2.019-4.5-4.5v-4c0-0.276,0.224-0.5,0.5-0.5h2c1.409,0,2.755,0.673,3.6,1.8
			l1.4,1.867l1.4-1.867c0.845-1.127,2.191-1.8,3.6-1.8h2c0.276,0,0.5,0.224,0.5,0.5v4C42,46.481,39.981,48.5,37.5,48.5z M28,40.5V44
			c0,1.93,1.57,3.5,3.5,3.5h6c1.93,0,3.5-1.57,3.5-3.5v-3.5h-1.5c-1.096,0-2.143,0.523-2.8,1.399l-1.8,2.4
			c-0.188,0.252-0.611,0.252-0.8,0l-1.8-2.4c-0.658-0.876-1.705-1.399-2.8-1.399H28z"/>
	</g>
	<g>
		<path class="st14" d="M31.5,46.5c-1.378,0-2.5-1.121-2.5-2.5v-2c0-0.276,0.224-0.5,0.5-0.5S30,41.724,30,42v2
			c0,0.827,0.673,1.5,1.5,1.5c0.276,0,0.5,0.224,0.5,0.5S31.776,46.5,31.5,46.5z"/>
	</g>
	<g>
		<path class="st12" d="M37.5,46.5c-0.276,0-0.5-0.224-0.5-0.5s0.224-0.5,0.5-0.5c0.827,0,1.5-0.673,1.5-1.5v-2
			c0-0.276,0.224-0.5,0.5-0.5S40,41.724,40,42v2C40,45.379,38.878,46.5,37.5,46.5z"/>
	</g>
	<g>
		<path class="st12" d="M55,39c-0.276,0-0.5-0.224-0.5-0.5S54.724,38,55,38c0.827,0,1.5-0.673,1.5-1.5v-0.667
			c0-0.276,0.224-0.5,0.5-0.5s0.5,0.224,0.5,0.5V36.5C57.5,37.879,56.378,39,55,39z"/>
	</g>
</g>
</svg>
