<?xml version="1.0" encoding="utf-8"?>
<!-- Generator: Adobe Illustrator 22.0.0, SVG Export Plug-In . SVG Version: 6.00 Build 0)  -->
<svg version="1.1" id="Icon_Set" xmlns="http://www.w3.org/2000/svg" xmlns:xlink="http://www.w3.org/1999/xlink" x="0px" y="0px"
	 viewBox="0 0 64 64" style="enable-background:new 0 0 64 64;" xml:space="preserve">
<style type="text/css">
	.st0{fill:#212A41;}
	.st1{fill:#4E4B51;}
	.st2{fill:#6C696F;}
	.st3{fill:#B7C0D7;}
	.st4{fill:#D5DEF5;}
	.st5{fill:#99A2B9;}
	.st6{fill:#E0E0E0;}
	.st7{fill:#D32E5E;}
	.st8{fill:#F9AC2F;}
	.st9{fill:#0079A8;}
	.st10{fill:#BED38E;}
	.st11{fill:#8A878D;}
	.st12{fill:#C2C2C2;}
	.st13{fill:#302D33;}
	.st14{fill:#FEFEFE;}
	.st15{fill:#FFCA4D;}
	.st16{fill:#DB8E11;}
	.st17{fill:#A4A4A4;}
	.st18{fill:#7B849B;}
	.st19{fill:#E0C8A4;}
	.st20{fill:#C2AA86;}
	.st21{fill:#FEE6C2;}
	.st22{fill:#1E97C6;}
	.st23{fill:#005B8A;}
	.st24{fill:#BD7000;}
</style>
<g>
	<g>
		<path class="st1" d="M38,48H8v9c0,1.105,0.895,2,2,2h26c1.105,0,2-0.895,2-2V48z"/>
		<path class="st0" d="M36,59.5H10c-1.379,0-2.5-1.122-2.5-2.5v-9c0-0.276,0.224-0.5,0.5-0.5h30c0.276,0,0.5,0.224,0.5,0.5v9
			C38.5,58.378,37.379,59.5,36,59.5z M8.5,48.5V57c0,0.827,0.673,1.5,1.5,1.5h26c0.827,0,1.5-0.673,1.5-1.5v-8.5H8.5z"/>
	</g>
	<g>
		<path class="st2" d="M10,57.5c-0.276,0-0.5-0.224-0.5-0.5v-7c0-0.276,0.224-0.5,0.5-0.5s0.5,0.224,0.5,0.5v7
			C10.5,57.276,10.276,57.5,10,57.5z"/>
	</g>
	<g>
		<path class="st1" d="M38,16H8v-4c0-2.209,1.791-4,4-4h22c2.209,0,4,1.791,4,4V16z"/>
		<path class="st0" d="M38,16.5H8c-0.276,0-0.5-0.224-0.5-0.5v-4c0-2.481,2.019-4.5,4.5-4.5h22c2.481,0,4.5,2.019,4.5,4.5v4
			C38.5,16.276,38.276,16.5,38,16.5z M8.5,15.5h29V12c0-1.93-1.57-3.5-3.5-3.5H12c-1.93,0-3.5,1.57-3.5,3.5V15.5z"/>
	</g>
	<g>
		<path class="st1" d="M51,22h-7c-0.552,0-1-0.448-1-1v-2c0-0.552,0.448-1,1-1h7c0.552,0,1,0.448,1,1v2C52,21.552,51.552,22,51,22z"
			/>
		<path class="st0" d="M51,22.5h-7c-0.827,0-1.5-0.673-1.5-1.5v-2c0-0.827,0.673-1.5,1.5-1.5h7c0.827,0,1.5,0.673,1.5,1.5v2
			C52.5,21.827,51.827,22.5,51,22.5z M44,18.5c-0.275,0-0.5,0.224-0.5,0.5v2c0,0.276,0.225,0.5,0.5,0.5h7c0.275,0,0.5-0.224,0.5-0.5
			v-2c0-0.276-0.225-0.5-0.5-0.5H44z"/>
	</g>
	<g>
		<rect x="8" y="16" class="st12" width="30" height="32"/>
		<path class="st0" d="M38,48.5H8c-0.276,0-0.5-0.224-0.5-0.5V16c0-0.276,0.224-0.5,0.5-0.5h30c0.276,0,0.5,0.224,0.5,0.5v32
			C38.5,48.276,38.276,48.5,38,48.5z M8.5,47.5h29v-31h-29V47.5z"/>
	</g>
	<g>
		<rect x="16" y="16" class="st6" width="30" height="32"/>
		<path class="st0" d="M46,48.5H16c-0.276,0-0.5-0.224-0.5-0.5V16c0-0.276,0.224-0.5,0.5-0.5h30c0.276,0,0.5,0.224,0.5,0.5v32
			C46.5,48.276,46.276,48.5,46,48.5z M16.5,47.5h29v-31h-29V47.5z"/>
	</g>
	<g>
		<path class="st2" d="M46,48H16v9c0,1.105,0.895,2,2,2h26c1.105,0,2-0.895,2-2V48z"/>
		<path class="st0" d="M44,59.5H18c-1.379,0-2.5-1.122-2.5-2.5v-9c0-0.276,0.224-0.5,0.5-0.5h30c0.276,0,0.5,0.224,0.5,0.5v9
			C46.5,58.378,45.379,59.5,44,59.5z M16.5,48.5V57c0,0.827,0.673,1.5,1.5,1.5h26c0.827,0,1.5-0.673,1.5-1.5v-8.5H16.5z"/>
	</g>
	<g>
		<path class="st3" d="M32,34h-2c-0.552,0-1-0.448-1-1V19c0-0.552,0.448-1,1-1h2c0.552,0,1,0.448,1,1v14C33,33.552,32.552,34,32,34z
			"/>
		<path class="st0" d="M32,34.5h-2c-0.827,0-1.5-0.673-1.5-1.5V19c0-0.827,0.673-1.5,1.5-1.5h2c0.827,0,1.5,0.673,1.5,1.5v14
			C33.5,33.827,32.827,34.5,32,34.5z M30,18.5c-0.275,0-0.5,0.224-0.5,0.5v14c0,0.276,0.225,0.5,0.5,0.5h2
			c0.275,0,0.5-0.224,0.5-0.5V19c0-0.276-0.225-0.5-0.5-0.5H30z"/>
	</g>
	<g>
		<path class="st12" d="M44,46.5c-0.276,0-0.5-0.224-0.5-0.5V18c0-0.276,0.224-0.5,0.5-0.5s0.5,0.224,0.5,0.5v28
			C44.5,46.276,44.276,46.5,44,46.5z"/>
	</g>
	<g>
		<path class="st14" d="M18,46.5c-0.276,0-0.5-0.224-0.5-0.5V18c0-0.276,0.224-0.5,0.5-0.5s0.5,0.224,0.5,0.5v28
			C18.5,46.276,18.276,46.5,18,46.5z"/>
	</g>
	<g>
		<path class="st6" d="M10,46.5c-0.276,0-0.5-0.224-0.5-0.5V18c0-0.276,0.224-0.5,0.5-0.5s0.5,0.224,0.5,0.5v28
			C10.5,46.276,10.276,46.5,10,46.5z"/>
	</g>
	<g>
		<path class="st1" d="M44,57.5c-0.276,0-0.5-0.224-0.5-0.5v-7c0-0.276,0.224-0.5,0.5-0.5s0.5,0.224,0.5,0.5v7
			C44.5,57.276,44.276,57.5,44,57.5z"/>
	</g>
	<g>
		<path class="st11" d="M18,57.5c-0.276,0-0.5-0.224-0.5-0.5v-7c0-0.276,0.224-0.5,0.5-0.5s0.5,0.224,0.5,0.5v7
			C18.5,57.276,18.276,57.5,18,57.5z"/>
	</g>
	<g>
		<path class="st0" d="M52,55.5h-6c-0.276,0-0.5-0.224-0.5-0.5s0.224-0.5,0.5-0.5h6c0.276,0,0.5,0.224,0.5,0.5S52.276,55.5,52,55.5z
			"/>
	</g>
	<g>
		<path class="st0" d="M60,57.5h-2c-0.276,0-0.5-0.224-0.5-0.5s0.224-0.5,0.5-0.5h2c0.276,0,0.5,0.224,0.5,0.5S60.276,57.5,60,57.5z
			"/>
	</g>
	<g>
		<path class="st0" d="M60,53.5h-2c-0.276,0-0.5-0.224-0.5-0.5s0.224-0.5,0.5-0.5h2c0.276,0,0.5,0.224,0.5,0.5S60.276,53.5,60,53.5z
			"/>
	</g>
	<g>
		<path class="st2" d="M57.994,58h-3c-1.657,0-3-1.343-3-3v0c0-1.657,1.343-3,3-3h3V58z"/>
		<path class="st0" d="M57.994,58.5h-3c-1.93,0-3.5-1.57-3.5-3.5s1.57-3.5,3.5-3.5h3c0.276,0,0.5,0.224,0.5,0.5v6
			C58.494,58.276,58.271,58.5,57.994,58.5z M54.994,52.5c-1.379,0-2.5,1.122-2.5,2.5s1.121,2.5,2.5,2.5h2.5v-5H54.994z"/>
	</g>
	<g>
		<circle class="st7" cx="31" cy="53.5" r="1.5"/>
		<path class="st0" d="M31,55.5c-1.103,0-2-0.897-2-2s0.897-2,2-2s2,0.897,2,2S32.103,55.5,31,55.5z M31,52.5c-0.552,0-1,0.449-1,1
			s0.448,1,1,1s1-0.449,1-1S31.552,52.5,31,52.5z"/>
	</g>
	<g>
		<path class="st2" d="M46,16H16v-4c0-2.209,1.791-4,4-4h22c2.209,0,4,1.791,4,4V16z"/>
		<path class="st0" d="M46,16.5H16c-0.276,0-0.5-0.224-0.5-0.5v-4c0-2.481,2.019-4.5,4.5-4.5h22c2.481,0,4.5,2.019,4.5,4.5v4
			C46.5,16.276,46.276,16.5,46,16.5z M16.5,15.5h29V12c0-1.93-1.57-3.5-3.5-3.5H20c-1.93,0-3.5,1.57-3.5,3.5V15.5z"/>
	</g>
	<g>
		<path class="st11" d="M18,14.5c-0.276,0-0.5-0.224-0.5-0.5v-2c0-1.378,1.121-2.5,2.5-2.5c0.276,0,0.5,0.224,0.5,0.5
			s-0.224,0.5-0.5,0.5c-0.827,0-1.5,0.673-1.5,1.5v2C18.5,14.276,18.276,14.5,18,14.5z"/>
	</g>
	<g>
		<path class="st2" d="M10,14.5c-0.276,0-0.5-0.224-0.5-0.5v-2c0-1.378,1.121-2.5,2.5-2.5c0.276,0,0.5,0.224,0.5,0.5
			s-0.224,0.5-0.5,0.5c-0.827,0-1.5,0.673-1.5,1.5v2C10.5,14.276,10.276,14.5,10,14.5z"/>
	</g>
	<g>
		<path class="st1" d="M44,14.5c-0.276,0-0.5-0.224-0.5-0.5v-2c0-0.827-0.673-1.5-1.5-1.5c-0.276,0-0.5-0.224-0.5-0.5
			s0.224-0.5,0.5-0.5c1.379,0,2.5,1.122,2.5,2.5v2C44.5,14.276,44.276,14.5,44,14.5z"/>
	</g>
	<g>
		<path class="st1" d="M12,23H5c-0.552,0-1-0.448-1-1v-2c0-0.552,0.448-1,1-1h7c0.552,0,1,0.448,1,1v2C13,22.552,12.552,23,12,23z"
			/>
		<path class="st0" d="M12,23.5H5c-0.827,0-1.5-0.673-1.5-1.5v-2c0-0.827,0.673-1.5,1.5-1.5h7c0.827,0,1.5,0.673,1.5,1.5v2
			C13.5,22.827,12.827,23.5,12,23.5z M5,19.5c-0.275,0-0.5,0.224-0.5,0.5v2c0,0.276,0.225,0.5,0.5,0.5h7c0.275,0,0.5-0.224,0.5-0.5
			v-2c0-0.276-0.225-0.5-0.5-0.5H5z"/>
	</g>
	<g>
		<circle class="st1" cx="31" cy="41" r="3"/>
		<path class="st0" d="M31,44.5c-1.93,0-3.5-1.57-3.5-3.5s1.57-3.5,3.5-3.5s3.5,1.57,3.5,3.5S32.93,44.5,31,44.5z M31,38.5
			c-1.379,0-2.5,1.122-2.5,2.5s1.121,2.5,2.5,2.5s2.5-1.122,2.5-2.5S32.379,38.5,31,38.5z"/>
	</g>
	<g>
		<rect x="31" y="39" class="st2" width="10" height="4"/>
		<path class="st0" d="M41,43.5H31c-0.276,0-0.5-0.224-0.5-0.5v-4c0-0.276,0.224-0.5,0.5-0.5h10c0.276,0,0.5,0.224,0.5,0.5v4
			C41.5,43.276,41.276,43.5,41,43.5z M31.5,42.5h9v-3h-9V42.5z"/>
	</g>
	<g>
		<rect x="37" y="38" class="st2" width="4" height="6"/>
		<path class="st0" d="M41,44.5h-4c-0.276,0-0.5-0.224-0.5-0.5v-6c0-0.276,0.224-0.5,0.5-0.5h4c0.276,0,0.5,0.224,0.5,0.5v6
			C41.5,44.276,41.276,44.5,41,44.5z M37.5,43.5h3v-5h-3V43.5z"/>
	</g>
	<g>
		<polygon class="st2" points="40,38 38,38 37,32 41,32 		"/>
		<path class="st0" d="M40,38.5h-2c-0.244,0-0.453-0.177-0.493-0.418l-1-6c-0.024-0.145,0.017-0.293,0.111-0.405
			C36.714,31.564,36.853,31.5,37,31.5h4c0.147,0,0.286,0.064,0.382,0.177c0.095,0.112,0.136,0.26,0.111,0.405l-1,6
			C40.453,38.323,40.244,38.5,40,38.5z M38.424,37.5h1.152l0.834-5h-2.82L38.424,37.5z"/>
	</g>
	<g>
		<path class="st2" d="M31,5h-8c-0.552,0-1,0.448-1,1v2h10V6C32,5.448,31.552,5,31,5z"/>
		<path class="st0" d="M32,8.5H22c-0.276,0-0.5-0.224-0.5-0.5V6c0-0.827,0.673-1.5,1.5-1.5h8c0.827,0,1.5,0.673,1.5,1.5v2
			C32.5,8.276,32.276,8.5,32,8.5z M22.5,7.5h9V6c0-0.276-0.225-0.5-0.5-0.5h-8c-0.275,0-0.5,0.224-0.5,0.5V7.5z"/>
	</g>
</g>
</svg>
