<?xml version="1.0" encoding="utf-8"?>
<!-- Generator: Adobe Illustrator 22.0.0, SVG Export Plug-In . SVG Version: 6.00 Build 0)  -->
<svg version="1.1" id="Icon_Set" xmlns="http://www.w3.org/2000/svg" xmlns:xlink="http://www.w3.org/1999/xlink" x="0px" y="0px"
	 viewBox="0 0 64 64" style="enable-background:new 0 0 64 64;" xml:space="preserve">
<style type="text/css">
	.st0{fill:#212A41;}
	.st1{fill:#4E4B51;}
	.st2{fill:#6C696F;}
	.st3{fill:#B7C0D7;}
	.st4{fill:#D5DEF5;}
	.st5{fill:#99A2B9;}
	.st6{fill:#E0E0E0;}
	.st7{fill:#D32E5E;}
	.st8{fill:#F9AC2F;}
	.st9{fill:#0079A8;}
	.st10{fill:#BED38E;}
	.st11{fill:#8A878D;}
	.st12{fill:#C2C2C2;}
	.st13{fill:#302D33;}
	.st14{fill:#FEFEFE;}
	.st15{fill:#FFCA4D;}
	.st16{fill:#DB8E11;}
	.st17{fill:#A4A4A4;}
	.st18{fill:#7B849B;}
	.st19{fill:#E0C8A4;}
	.st20{fill:#C2AA86;}
	.st21{fill:#FEE6C2;}
	.st22{fill:#1E97C6;}
	.st23{fill:#005B8A;}
	.st24{fill:#BD7000;}
</style>
<g>
	<g>
		<polygon class="st6" points="43.163,49.5 8.03,16.32 5.97,18.5 38.793,49.5 		"/>
		<path class="st0" d="M43.163,50h-4.37c-0.128,0-0.251-0.049-0.344-0.137l-32.823-31c-0.096-0.091-0.152-0.216-0.156-0.349
			c-0.004-0.132,0.046-0.261,0.137-0.357l2.061-2.181c0.19-0.201,0.506-0.209,0.707-0.02l35.133,33.181
			c0.148,0.141,0.196,0.357,0.121,0.548C43.552,49.875,43.368,50,43.163,50z M38.992,49h2.913L8.051,17.026L6.677,18.48L38.992,49z"
			/>
	</g>
	<g>
		<polygon class="st6" points="11.207,49.5 44.03,18.5 41.97,16.32 6.837,49.5 		"/>
		<path class="st0" d="M11.207,50h-4.37c-0.205,0-0.389-0.125-0.465-0.315c-0.075-0.19-0.027-0.407,0.121-0.548l35.133-33.181
			c0.201-0.189,0.518-0.181,0.707,0.02l2.061,2.181c0.091,0.096,0.141,0.225,0.137,0.357c-0.004,0.133-0.061,0.258-0.156,0.349
			l-32.823,31C11.458,49.951,11.335,50,11.207,50z M8.095,49h2.913l32.315-30.52l-1.374-1.454L8.095,49z"/>
	</g>
	<g>
		<path class="st6" d="M37.5,36h-12c-0.828,0-1.5-0.672-1.5-1.5l0,0c0-0.828,0.672-1.5,1.5-1.5h12c0.828,0,1.5,0.672,1.5,1.5l0,0
			C39,35.329,38.328,36,37.5,36z"/>
		<path class="st0" d="M37.5,36.5h-12c-1.103,0-2-0.897-2-2s0.897-2,2-2h12c1.103,0,2,0.897,2,2S38.603,36.5,37.5,36.5z M25.5,33.5
			c-0.552,0-1,0.449-1,1s0.448,1,1,1h12c0.552,0,1-0.449,1-1s-0.448-1-1-1H25.5z"/>
	</g>
	<g>
		<polygon class="st6" points="25.207,49.5 58.03,18.5 55.97,16.32 20.837,49.5 		"/>
		<path class="st0" d="M25.207,50h-4.37c-0.205,0-0.389-0.125-0.465-0.315c-0.075-0.19-0.027-0.407,0.121-0.548l35.133-33.181
			c0.201-0.189,0.517-0.181,0.707,0.02l2.061,2.181c0.091,0.096,0.141,0.225,0.137,0.357c-0.004,0.133-0.061,0.258-0.156,0.349
			l-32.823,31C25.458,49.951,25.335,50,25.207,50z M22.095,49h2.913l32.315-30.52l-1.374-1.454L22.095,49z"/>
	</g>
	<g>
		<polygon class="st6" points="57.163,49.5 22.03,16.32 19.97,18.5 52.793,49.5 		"/>
		<path class="st0" d="M57.163,50h-4.37c-0.128,0-0.251-0.049-0.344-0.137l-32.823-31c-0.096-0.091-0.152-0.216-0.156-0.349
			c-0.004-0.132,0.046-0.261,0.137-0.357l2.061-2.181c0.189-0.201,0.506-0.209,0.707-0.02l35.133,33.181
			c0.148,0.141,0.196,0.357,0.121,0.548C57.552,49.875,57.368,50,57.163,50z M52.992,49h2.913L22.051,17.026l-1.374,1.454L52.992,49
			z"/>
	</g>
	<g>
		<path class="st9" d="M59,18.5H19c-0.552,0-1-0.448-1-1v-2c0-0.552,0.448-1,1-1h40c0.552,0,1,0.448,1,1v2
			C60,18.052,59.552,18.5,59,18.5z"/>
		<path class="st0" d="M59,19H19c-0.827,0-1.5-0.673-1.5-1.5v-2c0-0.827,0.673-1.5,1.5-1.5h40c0.827,0,1.5,0.673,1.5,1.5v2
			C60.5,18.327,59.827,19,59,19z M19,15c-0.275,0-0.5,0.224-0.5,0.5v2c0,0.276,0.225,0.5,0.5,0.5h40c0.275,0,0.5-0.224,0.5-0.5v-2
			c0-0.276-0.225-0.5-0.5-0.5H19z"/>
	</g>
	<g>
		<path class="st23" d="M45,18.5H5c-0.552,0-1-0.448-1-1v-2c0-0.552,0.448-1,1-1h40c0.552,0,1,0.448,1,1v2
			C46,18.052,45.552,18.5,45,18.5z"/>
		<path class="st0" d="M45,19H5c-0.827,0-1.5-0.673-1.5-1.5v-2C3.5,14.673,4.173,14,5,14h40c0.827,0,1.5,0.673,1.5,1.5v2
			C46.5,18.327,45.827,19,45,19z M5,15c-0.275,0-0.5,0.224-0.5,0.5v2C4.5,17.776,4.725,18,5,18h40c0.275,0,0.5-0.224,0.5-0.5v-2
			c0-0.276-0.225-0.5-0.5-0.5H5z"/>
	</g>
</g>
</svg>
