<?xml version="1.0" encoding="utf-8"?>
<!-- Generator: Adobe Illustrator 22.0.0, SVG Export Plug-In . SVG Version: 6.00 Build 0)  -->
<svg version="1.1" id="Icon_Set" xmlns="http://www.w3.org/2000/svg" xmlns:xlink="http://www.w3.org/1999/xlink" x="0px" y="0px"
	 viewBox="0 0 64 64" style="enable-background:new 0 0 64 64;" xml:space="preserve">
<style type="text/css">
	.st0{fill:#212A41;}
	.st1{fill:#4E4B51;}
	.st2{fill:#6C696F;}
	.st3{fill:#B7C0D7;}
	.st4{fill:#D5DEF5;}
	.st5{fill:#99A2B9;}
	.st6{fill:#E0E0E0;}
	.st7{fill:#D32E5E;}
	.st8{fill:#F9AC2F;}
	.st9{fill:#0079A8;}
	.st10{fill:#BED38E;}
	.st11{fill:#8A878D;}
	.st12{fill:#C2C2C2;}
	.st13{fill:#302D33;}
	.st14{fill:#FEFEFE;}
	.st15{fill:#FFCA4D;}
	.st16{fill:#DB8E11;}
	.st17{fill:#A4A4A4;}
	.st18{fill:#7B849B;}
	.st19{fill:#E0C8A4;}
	.st20{fill:#C2AA86;}
	.st21{fill:#FEE6C2;}
	.st22{fill:#1E97C6;}
	.st23{fill:#005B8A;}
	.st24{fill:#BD7000;}
</style>
<g>
	<g>
		<path class="st1" d="M38,59H21c-2.209,0-4-1.791-4-4V9c0-2.209,1.791-4,4-4h17c2.209,0,4,1.791,4,4v46C42,57.209,40.209,59,38,59z
			"/>
		<path class="st0" d="M38,59.5H21c-2.481,0-4.5-2.019-4.5-4.5V9c0-2.481,2.019-4.5,4.5-4.5h17c2.481,0,4.5,2.019,4.5,4.5v46
			C42.5,57.481,40.481,59.5,38,59.5z M21,5.5c-1.93,0-3.5,1.57-3.5,3.5v46c0,1.93,1.57,3.5,3.5,3.5h17c1.93,0,3.5-1.57,3.5-3.5V9
			c0-1.93-1.57-3.5-3.5-3.5H21z"/>
	</g>
	<g>
		<path class="st2" d="M43,59H26c-2.209,0-4-1.791-4-4V9c0-2.209,1.791-4,4-4h17c2.209,0,4,1.791,4,4v46C47,57.209,45.209,59,43,59z
			"/>
		<path class="st0" d="M43,59.5H26c-2.481,0-4.5-2.019-4.5-4.5V9c0-2.481,2.019-4.5,4.5-4.5h17c2.481,0,4.5,2.019,4.5,4.5v46
			C47.5,57.481,45.481,59.5,43,59.5z M26,5.5c-1.93,0-3.5,1.57-3.5,3.5v46c0,1.93,1.57,3.5,3.5,3.5h17c1.93,0,3.5-1.57,3.5-3.5V9
			c0-1.93-1.57-3.5-3.5-3.5H26z"/>
	</g>
	<g>
		<circle class="st6" cx="34" cy="32" r="7"/>
		<path class="st0" d="M34,39.5c-2.003,0-3.887-0.78-5.303-2.197S26.5,34.003,26.5,32s0.78-3.887,2.197-5.303S31.997,24.5,34,24.5
			c2.003,0,3.887,0.78,5.304,2.197c2.924,2.924,2.924,7.682,0,10.606l0,0C37.887,38.72,36.003,39.5,34,39.5z M34,25.5
			c-1.736,0-3.369,0.676-4.596,1.904S27.5,30.264,27.5,32s0.676,3.369,1.904,4.596S32.264,38.5,34,38.5s3.368-0.676,4.597-1.904
			c2.534-2.534,2.534-6.658,0-9.192C37.368,26.176,35.736,25.5,34,25.5z M38.95,36.95h0.01H38.95z"/>
	</g>
	<g>
		<path class="st0" d="M41,32.5H27c-0.276,0-0.5-0.224-0.5-0.5s0.224-0.5,0.5-0.5h14c0.276,0,0.5,0.224,0.5,0.5S41.276,32.5,41,32.5
			z"/>
	</g>
	<g>
		<path class="st0" d="M34,39.5c-0.276,0-0.5-0.224-0.5-0.5V25c0-0.276,0.224-0.5,0.5-0.5s0.5,0.224,0.5,0.5v14
			C34.5,39.276,34.276,39.5,34,39.5z"/>
	</g>
	<g>
		<circle class="st2" cx="34" cy="32" r="3"/>
		<path class="st0" d="M34,35.5c-0.936,0-1.814-0.364-2.475-1.025C30.864,33.814,30.5,32.935,30.5,32s0.364-1.814,1.025-2.475
			c1.321-1.322,3.629-1.322,4.949,0C37.136,30.186,37.5,31.065,37.5,32c0,0.935-0.364,1.813-1.025,2.475l0,0l0,0l0,0
			C35.813,35.136,34.935,35.5,34,35.5z M34,29.5c-0.668,0-1.295,0.26-1.768,0.732S31.5,31.333,31.5,32s0.26,1.295,0.732,1.768
			c0.944,0.944,2.592,0.944,3.535,0l0,0C36.24,33.295,36.5,32.667,36.5,32s-0.26-1.295-0.732-1.768
			C35.296,29.76,34.668,29.5,34,29.5z"/>
	</g>
	<g>
		<rect x="27" y="10" class="st7" width="6" height="3"/>
		<path class="st0" d="M33,13.5h-6c-0.276,0-0.5-0.224-0.5-0.5v-3c0-0.276,0.224-0.5,0.5-0.5h6c0.276,0,0.5,0.224,0.5,0.5v3
			C33.5,13.276,33.276,13.5,33,13.5z M27.5,12.5h5v-2h-5V12.5z"/>
	</g>
	<g>
		<rect x="36" y="10" class="st8" width="6" height="3"/>
		<path class="st0" d="M42,13.5h-6c-0.276,0-0.5-0.224-0.5-0.5v-3c0-0.276,0.224-0.5,0.5-0.5h6c0.276,0,0.5,0.224,0.5,0.5v3
			C42.5,13.276,42.276,13.5,42,13.5z M36.5,12.5h5v-2h-5V12.5z"/>
	</g>
	<g>
		<rect x="27" y="17" class="st9" width="6" height="3"/>
		<path class="st0" d="M33,20.5h-6c-0.276,0-0.5-0.224-0.5-0.5v-3c0-0.276,0.224-0.5,0.5-0.5h6c0.276,0,0.5,0.224,0.5,0.5v3
			C33.5,20.276,33.276,20.5,33,20.5z M27.5,19.5h5v-2h-5V19.5z"/>
	</g>
	<g>
		<rect x="36" y="17" class="st10" width="6" height="3"/>
		<path class="st0" d="M42,20.5h-6c-0.276,0-0.5-0.224-0.5-0.5v-3c0-0.276,0.224-0.5,0.5-0.5h6c0.276,0,0.5,0.224,0.5,0.5v3
			C42.5,20.276,42.276,20.5,42,20.5z M36.5,19.5h5v-2h-5V19.5z"/>
	</g>
	<g>
		<rect x="27" y="44" class="st2" width="6" height="3"/>
		<path class="st0" d="M33,47.5h-6c-0.276,0-0.5-0.224-0.5-0.5v-3c0-0.276,0.224-0.5,0.5-0.5h6c0.276,0,0.5,0.224,0.5,0.5v3
			C33.5,47.276,33.276,47.5,33,47.5z M27.5,46.5h5v-2h-5V46.5z"/>
	</g>
	<g>
		<rect x="36" y="44" class="st2" width="6" height="3"/>
		<path class="st0" d="M42,47.5h-6c-0.276,0-0.5-0.224-0.5-0.5v-3c0-0.276,0.224-0.5,0.5-0.5h6c0.276,0,0.5,0.224,0.5,0.5v3
			C42.5,47.276,42.276,47.5,42,47.5z M36.5,46.5h5v-2h-5V46.5z"/>
	</g>
	<g>
		<rect x="27" y="51" class="st2" width="6" height="3"/>
		<path class="st0" d="M33,54.5h-6c-0.276,0-0.5-0.224-0.5-0.5v-3c0-0.276,0.224-0.5,0.5-0.5h6c0.276,0,0.5,0.224,0.5,0.5v3
			C33.5,54.276,33.276,54.5,33,54.5z M27.5,53.5h5v-2h-5V53.5z"/>
	</g>
	<g>
		<rect x="36" y="51" class="st2" width="6" height="3"/>
		<path class="st0" d="M42,54.5h-6c-0.276,0-0.5-0.224-0.5-0.5v-3c0-0.276,0.224-0.5,0.5-0.5h6c0.276,0,0.5,0.224,0.5,0.5v3
			C42.5,54.276,42.276,54.5,42,54.5z M36.5,53.5h5v-2h-5V53.5z"/>
	</g>
	<g>
		<path class="st11" d="M24,55.5c-0.276,0-0.5-0.224-0.5-0.5V9c0-0.276,0.224-0.5,0.5-0.5s0.5,0.224,0.5,0.5v46
			C24.5,55.276,24.276,55.5,24,55.5z"/>
	</g>
	<g>
		<path class="st1" d="M45,55.5c-0.276,0-0.5-0.224-0.5-0.5V9c0-0.276,0.224-0.5,0.5-0.5s0.5,0.224,0.5,0.5v46
			C45.5,55.276,45.276,55.5,45,55.5z"/>
	</g>
</g>
</svg>
