<?xml version="1.0" encoding="utf-8"?>
<!-- Generator: Adobe Illustrator 22.0.0, SVG Export Plug-In . SVG Version: 6.00 Build 0)  -->
<svg version="1.1" id="Icon_Set" xmlns="http://www.w3.org/2000/svg" xmlns:xlink="http://www.w3.org/1999/xlink" x="0px" y="0px"
	 viewBox="0 0 64 64" style="enable-background:new 0 0 64 64;" xml:space="preserve">
<style type="text/css">
	.st0{fill:#212A41;}
	.st1{fill:#4E4B51;}
	.st2{fill:#6C696F;}
	.st3{fill:#B7C0D7;}
	.st4{fill:#D5DEF5;}
	.st5{fill:#99A2B9;}
	.st6{fill:#E0E0E0;}
	.st7{fill:#D32E5E;}
	.st8{fill:#F9AC2F;}
	.st9{fill:#0079A8;}
	.st10{fill:#BED38E;}
	.st11{fill:#8A878D;}
	.st12{fill:#C2C2C2;}
	.st13{fill:#302D33;}
	.st14{fill:#FEFEFE;}
	.st15{fill:#FFCA4D;}
	.st16{fill:#DB8E11;}
	.st17{fill:#A4A4A4;}
	.st18{fill:#7B849B;}
	.st19{fill:#E0C8A4;}
	.st20{fill:#C2AA86;}
	.st21{fill:#FEE6C2;}
	.st22{fill:#1E97C6;}
	.st23{fill:#005B8A;}
	.st24{fill:#BD7000;}
</style>
<g>
	<g>
		<path class="st12" d="M40,26V12c0-2.209,1.791-4,4-4H8c-2.209,0-4,1.791-4,4v36h17V30h23C41.791,30,40,28.209,40,26z"/>
		<path class="st0" d="M21,48.5H4c-0.276,0-0.5-0.224-0.5-0.5V12c0-2.481,2.019-4.5,4.5-4.5h36c0.276,0,0.5,0.224,0.5,0.5
			S44.276,8.5,44,8.5c-1.93,0-3.5,1.57-3.5,3.5v14c0,1.93,1.57,3.5,3.5,3.5c0.276,0,0.5,0.224,0.5,0.5s-0.224,0.5-0.5,0.5H21.5V48
			C21.5,48.276,21.276,48.5,21,48.5z M4.5,47.5h16V30c0-0.276,0.224-0.5,0.5-0.5h20.174C40.154,28.674,39.5,27.412,39.5,26V12
			c0-1.412,0.654-2.674,1.674-3.5H8c-1.93,0-3.5,1.57-3.5,3.5V47.5z"/>
	</g>
	<g>
		<path class="st6" d="M56,56H26c-2.209,0-4-1.791-4-4v-4h38v4C60,54.209,58.209,56,56,56z"/>
		<path class="st0" d="M56,56.5H26c-2.481,0-4.5-2.019-4.5-4.5v-4c0-0.276,0.224-0.5,0.5-0.5h38c0.276,0,0.5,0.224,0.5,0.5v4
			C60.5,54.481,58.481,56.5,56,56.5z M22.5,48.5V52c0,1.93,1.57,3.5,3.5,3.5h30c1.93,0,3.5-1.57,3.5-3.5v-3.5H22.5z"/>
	</g>
	<g>
		<path class="st12" d="M56,54.5c-0.276,0-0.5-0.224-0.5-0.5s0.224-0.5,0.5-0.5c0.827,0,1.5-0.673,1.5-1.5v-2
			c0-0.276,0.224-0.5,0.5-0.5s0.5,0.224,0.5,0.5v2C58.5,53.378,57.378,54.5,56,54.5z"/>
	</g>
	<g>
		<path class="st12" d="M36,56H8c-2.209,0-4-1.791-4-4v-4h36v4C40,54.209,38.209,56,36,56z"/>
		<path class="st0" d="M36,56.5H8c-2.481,0-4.5-2.019-4.5-4.5v-4c0-0.276,0.224-0.5,0.5-0.5h36c0.276,0,0.5,0.224,0.5,0.5v4
			C40.5,54.481,38.481,56.5,36,56.5z M4.5,48.5V52c0,1.93,1.57,3.5,3.5,3.5h28c1.93,0,3.5-1.57,3.5-3.5v-3.5H4.5z"/>
	</g>
	<g>
		<rect x="21" y="30" class="st6" width="14" height="18"/>
		<path class="st0" d="M35,48.5H21c-0.276,0-0.5-0.224-0.5-0.5V30c0-0.276,0.224-0.5,0.5-0.5h14c0.276,0,0.5,0.224,0.5,0.5v18
			C35.5,48.276,35.276,48.5,35,48.5z M21.5,47.5h13v-17h-13V47.5z"/>
	</g>
	<g>
		<path class="st1" d="M40,12c0-2.209,1.791-4,4-4H8c-2.209,0-4,1.791-4,4v2h36V12z"/>
		<path class="st0" d="M40,14.5H4c-0.276,0-0.5-0.224-0.5-0.5v-2c0-2.481,2.019-4.5,4.5-4.5h36c0.276,0,0.5,0.224,0.5,0.5
			S44.276,8.5,44,8.5c-1.93,0-3.5,1.57-3.5,3.5v2C40.5,14.276,40.276,14.5,40,14.5z M4.5,13.5h35V12c0-1.412,0.654-2.674,1.674-3.5
			H8c-1.93,0-3.5,1.57-3.5,3.5V13.5z"/>
	</g>
	<g>
		<path class="st2" d="M52,34h-4c-0.552,0-1-0.448-1-1v-3h6v3C53,33.552,52.552,34,52,34z"/>
		<path class="st0" d="M52,34.5h-4c-0.827,0-1.5-0.673-1.5-1.5v-3c0-0.276,0.224-0.5,0.5-0.5h6c0.276,0,0.5,0.224,0.5,0.5v3
			C53.5,33.827,52.827,34.5,52,34.5z M47.5,30.5V33c0,0.276,0.224,0.5,0.5,0.5h4c0.276,0,0.5-0.224,0.5-0.5v-2.5H47.5z"/>
	</g>
	<g>
		<path class="st6" d="M56,30H44c-2.209,0-4-1.791-4-4V12c0-2.209,1.791-4,4-4h12c2.209,0,4,1.791,4,4v14C60,28.209,58.209,30,56,30
			z"/>
		<path class="st0" d="M56,30.5H44c-2.481,0-4.5-2.019-4.5-4.5V12c0-2.481,2.019-4.5,4.5-4.5h12c2.481,0,4.5,2.019,4.5,4.5v14
			C60.5,28.481,58.481,30.5,56,30.5z M44,8.5c-1.93,0-3.5,1.57-3.5,3.5v14c0,1.93,1.57,3.5,3.5,3.5h12c1.93,0,3.5-1.57,3.5-3.5V12
			c0-1.93-1.57-3.5-3.5-3.5H44z"/>
	</g>
	<g>
		<path class="st2" d="M40,12v2h20v-2c0-2.209-1.791-4-4-4H44C41.791,8,40,9.791,40,12z"/>
		<path class="st0" d="M60,14.5H40c-0.276,0-0.5-0.224-0.5-0.5v-2c0-2.481,2.019-4.5,4.5-4.5h12c2.481,0,4.5,2.019,4.5,4.5v2
			C60.5,14.276,60.276,14.5,60,14.5z M40.5,13.5h19V12c0-1.93-1.57-3.5-3.5-3.5H44c-1.93,0-3.5,1.57-3.5,3.5V13.5z"/>
	</g>
	<g>
		<path class="st6" d="M14,34h-3v8h3c2.209,0,4-1.791,4-4S16.209,34,14,34z"/>
		<path class="st0" d="M14,42.5h-3c-0.276,0-0.5-0.224-0.5-0.5v-8c0-0.276,0.224-0.5,0.5-0.5h3c2.481,0,4.5,2.019,4.5,4.5
			S16.481,42.5,14,42.5z M11.5,41.5H14c1.93,0,3.5-1.57,3.5-3.5s-1.57-3.5-3.5-3.5h-2.5V41.5z"/>
	</g>
	<g>
		<circle class="st12" cx="11" cy="38" r="4"/>
		<path class="st0" d="M11,42.5c-2.481,0-4.5-2.019-4.5-4.5s2.019-4.5,4.5-4.5s4.5,2.019,4.5,4.5S13.481,42.5,11,42.5z M11,34.5
			c-1.93,0-3.5,1.57-3.5,3.5s1.57,3.5,3.5,3.5s3.5-1.57,3.5-3.5S12.93,34.5,11,34.5z"/>
	</g>
	<g>
		<path class="st0" d="M36,20H26c-0.276,0-0.5-0.224-0.5-0.5S25.724,19,26,19h10c0.276,0,0.5,0.224,0.5,0.5S36.276,20,36,20z"/>
	</g>
	<g>
		<rect x="29.5" y="18" class="st1" width="3" height="3"/>
		<path class="st0" d="M32.5,21.5h-3c-0.276,0-0.5-0.224-0.5-0.5v-3c0-0.276,0.224-0.5,0.5-0.5h3c0.276,0,0.5,0.224,0.5,0.5v3
			C33,21.276,32.776,21.5,32.5,21.5z M30,20.5h2v-2h-2V20.5z"/>
	</g>
	<g>
		<path class="st0" d="M50,45.5c-0.276,0-0.5-0.224-0.5-0.5V34c0-0.276,0.224-0.5,0.5-0.5s0.5,0.224,0.5,0.5v11
			C50.5,45.276,50.276,45.5,50,45.5z"/>
	</g>
	<g>
		<path class="st0" d="M52,45.5h-4c-0.276,0-0.5-0.224-0.5-0.5s0.224-0.5,0.5-0.5h4c0.276,0,0.5,0.224,0.5,0.5S52.276,45.5,52,45.5z
			"/>
	</g>
	<g>
		<path class="st0" d="M21,30.5c-0.276,0-0.5-0.224-0.5-0.5c0-2.481,2.019-4.5,4.5-4.5h35c0.276,0,0.5,0.224,0.5,0.5
			s-0.224,0.5-0.5,0.5H25c-1.93,0-3.5,1.57-3.5,3.5C21.5,30.276,21.276,30.5,21,30.5z"/>
	</g>
	<g>
		<path class="st6" d="M10,25H9c-0.552,0-1-0.448-1-1v-5c0-0.552,0.448-1,1-1h1c0.552,0,1,0.448,1,1v5C11,24.552,10.552,25,10,25z"
			/>
		<path class="st0" d="M10,25.5H9c-0.827,0-1.5-0.673-1.5-1.5v-5c0-0.827,0.673-1.5,1.5-1.5h1c0.827,0,1.5,0.673,1.5,1.5v5
			C11.5,24.827,10.827,25.5,10,25.5z M9,18.5c-0.276,0-0.5,0.224-0.5,0.5v5c0,0.276,0.224,0.5,0.5,0.5h1c0.276,0,0.5-0.224,0.5-0.5
			v-5c0-0.276-0.224-0.5-0.5-0.5H9z"/>
	</g>
	<g>
		<path class="st6" d="M16,25h-1c-0.552,0-1-0.448-1-1v-5c0-0.552,0.448-1,1-1h1c0.552,0,1,0.448,1,1v5C17,24.552,16.552,25,16,25z"
			/>
		<path class="st0" d="M16,25.5h-1c-0.827,0-1.5-0.673-1.5-1.5v-5c0-0.827,0.673-1.5,1.5-1.5h1c0.827,0,1.5,0.673,1.5,1.5v5
			C17.5,24.827,16.827,25.5,16,25.5z M15,18.5c-0.276,0-0.5,0.224-0.5,0.5v5c0,0.276,0.224,0.5,0.5,0.5h1c0.276,0,0.5-0.224,0.5-0.5
			v-5c0-0.276-0.224-0.5-0.5-0.5H15z"/>
	</g>
	<g>
		<path class="st12" d="M58,24.5c-0.276,0-0.5-0.224-0.5-0.5v-8c0-0.276,0.224-0.5,0.5-0.5s0.5,0.224,0.5,0.5v8
			C58.5,24.276,58.276,24.5,58,24.5z"/>
	</g>
	<g>
		<path class="st14" d="M42,24.5c-0.276,0-0.5-0.224-0.5-0.5v-8c0-0.276,0.224-0.5,0.5-0.5s0.5,0.224,0.5,0.5v8
			C42.5,24.276,42.276,24.5,42,24.5z"/>
	</g>
	<g>
		<path class="st17" d="M38,24.5c-0.276,0-0.5-0.224-0.5-0.5v-8c0-0.276,0.224-0.5,0.5-0.5s0.5,0.224,0.5,0.5v8
			C38.5,24.276,38.276,24.5,38,24.5z"/>
	</g>
	<g>
		<path class="st6" d="M6,46.5c-0.276,0-0.5-0.224-0.5-0.5V16c0-0.276,0.224-0.5,0.5-0.5s0.5,0.224,0.5,0.5v30
			C6.5,46.276,6.276,46.5,6,46.5z"/>
	</g>
	<g>
		<path class="st14" d="M23,46.5c-0.276,0-0.5-0.224-0.5-0.5V32c0-0.276,0.224-0.5,0.5-0.5s0.5,0.224,0.5,0.5v14
			C23.5,46.276,23.276,46.5,23,46.5z"/>
	</g>
	<g>
		<path class="st12" d="M33,46.5c-0.276,0-0.5-0.224-0.5-0.5V32c0-0.276,0.224-0.5,0.5-0.5s0.5,0.224,0.5,0.5v14
			C33.5,46.276,33.276,46.5,33,46.5z"/>
	</g>
	<g>
		<path class="st17" d="M36,54.5c-0.276,0-0.5-0.224-0.5-0.5s0.224-0.5,0.5-0.5c0.827,0,1.5-0.673,1.5-1.5v-2
			c0-0.276,0.224-0.5,0.5-0.5s0.5,0.224,0.5,0.5v2C38.5,53.378,37.378,54.5,36,54.5z"/>
	</g>
	<g>
		<path class="st6" d="M8,54.5c-1.378,0-2.5-1.122-2.5-2.5v-2c0-0.276,0.224-0.5,0.5-0.5s0.5,0.224,0.5,0.5v2
			c0,0.827,0.673,1.5,1.5,1.5c0.276,0,0.5,0.224,0.5,0.5S8.276,54.5,8,54.5z"/>
	</g>
</g>
</svg>
