<?xml version="1.0" encoding="utf-8"?>
<!-- Generator: Adobe Illustrator 22.0.0, SVG Export Plug-In . SVG Version: 6.00 Build 0)  -->
<svg version="1.1" id="Icon_Set" xmlns="http://www.w3.org/2000/svg" xmlns:xlink="http://www.w3.org/1999/xlink" x="0px" y="0px"
	 viewBox="0 0 64 64" style="enable-background:new 0 0 64 64;" xml:space="preserve">
<style type="text/css">
	.st0{fill:#212A41;}
	.st1{fill:#4E4B51;}
	.st2{fill:#6C696F;}
	.st3{fill:#B7C0D7;}
	.st4{fill:#D5DEF5;}
	.st5{fill:#99A2B9;}
	.st6{fill:#E0E0E0;}
	.st7{fill:#D32E5E;}
	.st8{fill:#F9AC2F;}
	.st9{fill:#0079A8;}
	.st10{fill:#BED38E;}
	.st11{fill:#8A878D;}
	.st12{fill:#C2C2C2;}
	.st13{fill:#302D33;}
	.st14{fill:#FEFEFE;}
	.st15{fill:#FFCA4D;}
	.st16{fill:#DB8E11;}
	.st17{fill:#A4A4A4;}
	.st18{fill:#7B849B;}
	.st19{fill:#E0C8A4;}
	.st20{fill:#C2AA86;}
	.st21{fill:#FEE6C2;}
	.st22{fill:#1E97C6;}
	.st23{fill:#005B8A;}
	.st24{fill:#BD7000;}
</style>
<g>
	<g>
		<path class="st1" d="M48,51H8c-2.209,0-4-1.791-4-4V9c0-2.209,1.791-4,4-4h40c2.209,0,4,1.791,4,4v38C52,49.209,50.209,51,48,51z"
			/>
		<path class="st0" d="M48,51.5H8c-2.481,0-4.5-2.019-4.5-4.5V9c0-2.481,2.019-4.5,4.5-4.5h40c2.481,0,4.5,2.019,4.5,4.5v38
			C52.5,49.481,50.481,51.5,48,51.5z M8,5.5C6.07,5.5,4.5,7.07,4.5,9v38c0,1.93,1.57,3.5,3.5,3.5h40c1.93,0,3.5-1.57,3.5-3.5V9
			c0-1.93-1.57-3.5-3.5-3.5H8z"/>
	</g>
	<g>
		<path class="st2" d="M56,51H16c-2.209,0-4-1.791-4-4V9c0-2.209,1.791-4,4-4h40c2.209,0,4,1.791,4,4v38C60,49.209,58.209,51,56,51z
			"/>
		<path class="st0" d="M56,51.5H16c-2.481,0-4.5-2.019-4.5-4.5V9c0-2.481,2.019-4.5,4.5-4.5h40c2.481,0,4.5,2.019,4.5,4.5v38
			C60.5,49.481,58.481,51.5,56,51.5z M16,5.5c-1.93,0-3.5,1.57-3.5,3.5v38c0,1.93,1.57,3.5,3.5,3.5h40c1.93,0,3.5-1.57,3.5-3.5V9
			c0-1.93-1.57-3.5-3.5-3.5H16z"/>
	</g>
	<g>
		<path class="st2" d="M6,47.5c-0.276,0-0.5-0.224-0.5-0.5V9c0-0.276,0.224-0.5,0.5-0.5S6.5,8.724,6.5,9v38
			C6.5,47.276,6.276,47.5,6,47.5z"/>
	</g>
	<g>
		<path class="st3" d="M54,19H38c-0.552,0-1-0.448-1-1v-6c0-0.552,0.448-1,1-1h16c0.552,0,1,0.448,1,1v6C55,18.552,54.552,19,54,19z
			"/>
		<path class="st0" d="M54,19.5H38c-0.827,0-1.5-0.673-1.5-1.5v-6c0-0.827,0.673-1.5,1.5-1.5h16c0.827,0,1.5,0.673,1.5,1.5v6
			C55.5,18.827,54.827,19.5,54,19.5z M38,11.5c-0.275,0-0.5,0.225-0.5,0.5v6c0,0.275,0.225,0.5,0.5,0.5h16
			c0.275,0,0.5-0.225,0.5-0.5v-6c0-0.275-0.225-0.5-0.5-0.5H38z"/>
	</g>
	<g>
		<path class="st6" d="M54,43H38c-0.552,0-1-0.448-1-1V26c0-0.552,0.448-1,1-1h16c0.552,0,1,0.448,1,1v16C55,42.552,54.552,43,54,43
			z"/>
		<path class="st0" d="M54,43.5H38c-0.827,0-1.5-0.673-1.5-1.5V26c0-0.827,0.673-1.5,1.5-1.5h16c0.827,0,1.5,0.673,1.5,1.5v16
			C55.5,42.827,54.827,43.5,54,43.5z M38,25.5c-0.275,0-0.5,0.225-0.5,0.5v16c0,0.275,0.225,0.5,0.5,0.5h16
			c0.275,0,0.5-0.225,0.5-0.5V26c0-0.275-0.225-0.5-0.5-0.5H38z"/>
	</g>
	<g>
		<path class="st1" d="M58,47.5c-0.276,0-0.5-0.224-0.5-0.5V9c0-0.276,0.224-0.5,0.5-0.5s0.5,0.224,0.5,0.5v38
			C58.5,47.276,58.276,47.5,58,47.5z"/>
	</g>
	<g>
		<path class="st5" d="M53,17.5c-0.276,0-0.5-0.224-0.5-0.5v-4c0-0.276,0.224-0.5,0.5-0.5s0.5,0.224,0.5,0.5v4
			C53.5,17.276,53.276,17.5,53,17.5z"/>
	</g>
	<g>
		<path class="st4" d="M39,17.5c-0.276,0-0.5-0.224-0.5-0.5v-4c0-0.276,0.224-0.5,0.5-0.5s0.5,0.224,0.5,0.5v4
			C39.5,17.276,39.276,17.5,39,17.5z"/>
	</g>
	<g>
		<path class="st12" d="M53,41.5c-0.276,0-0.5-0.224-0.5-0.5V27c0-0.276,0.224-0.5,0.5-0.5s0.5,0.224,0.5,0.5v14
			C53.5,41.276,53.276,41.5,53,41.5z"/>
	</g>
	<g>
		<path class="st14" d="M39,41.5c-0.276,0-0.5-0.224-0.5-0.5V27c0-0.276,0.224-0.5,0.5-0.5s0.5,0.224,0.5,0.5v14
			C39.5,41.276,39.276,41.5,39,41.5z"/>
	</g>
	<g>
		<path class="st0" d="M43,43.5c-0.276,0-0.5-0.224-0.5-0.5V25c0-0.276,0.224-0.5,0.5-0.5s0.5,0.224,0.5,0.5v18
			C43.5,43.276,43.276,43.5,43,43.5z"/>
	</g>
	<g>
		<path class="st0" d="M49,43.5c-0.276,0-0.5-0.224-0.5-0.5V25c0-0.276,0.224-0.5,0.5-0.5s0.5,0.224,0.5,0.5v18
			C49.5,43.276,49.276,43.5,49,43.5z"/>
	</g>
	<g>
		<path class="st0" d="M55,31.5H37c-0.276,0-0.5-0.224-0.5-0.5s0.224-0.5,0.5-0.5h18c0.276,0,0.5,0.224,0.5,0.5S55.276,31.5,55,31.5
			z"/>
	</g>
	<g>
		<path class="st0" d="M55,37.5H37c-0.276,0-0.5-0.224-0.5-0.5s0.224-0.5,0.5-0.5h18c0.276,0,0.5,0.224,0.5,0.5S55.276,37.5,55,37.5
			z"/>
	</g>
	<g>
		<path class="st1" d="M26,48h-7c-2.209,0-4-1.791-4-4V12c0-2.209,1.791-4,4-4h7c2.209,0,4,1.791,4,4v32C30,46.209,28.209,48,26,48z
			"/>
		<path class="st0" d="M26,48.5h-7c-2.481,0-4.5-2.019-4.5-4.5V12c0-2.481,2.019-4.5,4.5-4.5h7c2.481,0,4.5,2.019,4.5,4.5v32
			C30.5,46.481,28.481,48.5,26,48.5z M19,8.5c-1.93,0-3.5,1.57-3.5,3.5v32c0,1.93,1.57,3.5,3.5,3.5h7c1.93,0,3.5-1.57,3.5-3.5V12
			c0-1.93-1.57-3.5-3.5-3.5H19z"/>
	</g>
	<g>
		<path class="st2" d="M30,48h-6c-2.209,0-4-1.791-4-4V12c0-2.209,1.791-4,4-4h6c2.209,0,4,1.791,4,4v32C34,46.209,32.209,48,30,48z
			"/>
		<path class="st0" d="M30,48.5h-6c-2.481,0-4.5-2.019-4.5-4.5V12c0-2.481,2.019-4.5,4.5-4.5h6c2.481,0,4.5,2.019,4.5,4.5v32
			C34.5,46.481,32.481,48.5,30,48.5z M24,8.5c-1.93,0-3.5,1.57-3.5,3.5v32c0,1.93,1.57,3.5,3.5,3.5h6c1.93,0,3.5-1.57,3.5-3.5V12
			c0-1.93-1.57-3.5-3.5-3.5H24z"/>
	</g>
	<g>
		<path class="st2" d="M23,59h-2.5c-3.033,0-5.5-2.468-5.5-5.5V51h3v2.5c0,1.379,1.122,2.5,2.5,2.5H23c1.378,0,2.5-1.121,2.5-2.5V48
			h3v5.5C28.5,56.532,26.033,59,23,59z"/>
		<path class="st0" d="M23,59.5h-2.5c-3.309,0-6-2.691-6-6V51c0-0.276,0.224-0.5,0.5-0.5h3c0.276,0,0.5,0.224,0.5,0.5v2.5
			c0,1.103,0.897,2,2,2H23c1.103,0,2-0.897,2-2V48c0-0.276,0.224-0.5,0.5-0.5h3c0.276,0,0.5,0.224,0.5,0.5v5.5
			C29,56.809,26.309,59.5,23,59.5z M15.5,51.5v2c0,2.757,2.243,5,5,5H23c2.757,0,5-2.243,5-5v-5h-2v5c0,1.654-1.346,3-3,3h-2.5
			c-1.654,0-3-1.346-3-3v-2H15.5z"/>
	</g>
	<g>
		<path class="st11" d="M22,44.5c-0.276,0-0.5-0.224-0.5-0.5V12c0-0.276,0.224-0.5,0.5-0.5s0.5,0.224,0.5,0.5v32
			C22.5,44.276,22.276,44.5,22,44.5z"/>
	</g>
	<g>
		<path class="st1" d="M32,44.5c-0.276,0-0.5-0.224-0.5-0.5V12c0-0.276,0.224-0.5,0.5-0.5s0.5,0.224,0.5,0.5v32
			C32.5,44.276,32.276,44.5,32,44.5z"/>
	</g>
</g>
</svg>
