<?xml version="1.0" encoding="utf-8"?>
<!-- Generator: Adobe Illustrator 22.0.0, SVG Export Plug-In . SVG Version: 6.00 Build 0)  -->
<svg version="1.1" id="Icon_Set" xmlns="http://www.w3.org/2000/svg" xmlns:xlink="http://www.w3.org/1999/xlink" x="0px" y="0px"
	 viewBox="0 0 64 64" style="enable-background:new 0 0 64 64;" xml:space="preserve">
<style type="text/css">
	.st0{fill:#212A41;}
	.st1{fill:#4E4B51;}
	.st2{fill:#6C696F;}
	.st3{fill:#B7C0D7;}
	.st4{fill:#D5DEF5;}
	.st5{fill:#99A2B9;}
	.st6{fill:#E0E0E0;}
	.st7{fill:#D32E5E;}
	.st8{fill:#F9AC2F;}
	.st9{fill:#0079A8;}
	.st10{fill:#BED38E;}
	.st11{fill:#8A878D;}
	.st12{fill:#C2C2C2;}
	.st13{fill:#302D33;}
	.st14{fill:#FEFEFE;}
	.st15{fill:#FFCA4D;}
	.st16{fill:#DB8E11;}
	.st17{fill:#A4A4A4;}
	.st18{fill:#7B849B;}
	.st19{fill:#E0C8A4;}
	.st20{fill:#C2AA86;}
	.st21{fill:#FEE6C2;}
	.st22{fill:#1E97C6;}
	.st23{fill:#005B8A;}
	.st24{fill:#BD7000;}
</style>
<g>
	<g>
		<rect x="14" y="35" class="st1" width="20" height="4"/>
		<path class="st0" d="M34,39.5H14c-0.276,0-0.5-0.224-0.5-0.5v-4c0-0.276,0.224-0.5,0.5-0.5h20c0.276,0,0.5,0.224,0.5,0.5v4
			C34.5,39.276,34.276,39.5,34,39.5z M14.5,38.5h19v-3h-19V38.5z"/>
	</g>
	<g>
		<path class="st12" d="M38,35H10c-2.209,0-4-1.791-4-4V12c0-2.209,1.791-4,4-4h28c2.209,0,4,1.791,4,4v19
			C42,33.209,40.209,35,38,35z"/>
		<path class="st0" d="M38,35.5H10c-2.481,0-4.5-2.019-4.5-4.5V12c0-2.481,2.019-4.5,4.5-4.5h28c2.481,0,4.5,2.019,4.5,4.5v19
			C42.5,33.481,40.481,35.5,38,35.5z M10,8.5c-1.93,0-3.5,1.57-3.5,3.5v19c0,1.93,1.57,3.5,3.5,3.5h28c1.93,0,3.5-1.57,3.5-3.5V12
			c0-1.93-1.57-3.5-3.5-3.5H10z"/>
	</g>
	<g>
		<path class="st12" d="M38,53H8c-1.105,0-2-0.895-2-2v-8h34v8C40,52.105,39.105,53,38,53z"/>
		<path class="st0" d="M38,53.5H8c-1.378,0-2.5-1.122-2.5-2.5v-8c0-0.276,0.224-0.5,0.5-0.5h34c0.276,0,0.5,0.224,0.5,0.5v8
			C40.5,52.378,39.379,53.5,38,53.5z M6.5,43.5V51c0,0.827,0.673,1.5,1.5,1.5h30c0.827,0,1.5-0.673,1.5-1.5v-7.5H6.5z"/>
	</g>
	<g>
		<path class="st1" d="M41,43H5c-0.552,0-1-0.448-1-1v-2c0-0.552,0.448-1,1-1h36c0.552,0,1,0.448,1,1v2C42,42.552,41.552,43,41,43z"
			/>
		<path class="st0" d="M41,43.5H5c-0.827,0-1.5-0.673-1.5-1.5v-2c0-0.827,0.673-1.5,1.5-1.5h36c0.827,0,1.5,0.673,1.5,1.5v2
			C42.5,42.827,41.827,43.5,41,43.5z M5,39.5c-0.276,0-0.5,0.224-0.5,0.5v2c0,0.276,0.224,0.5,0.5,0.5h36c0.275,0,0.5-0.224,0.5-0.5
			v-2c0-0.276-0.225-0.5-0.5-0.5H5z"/>
	</g>
	<g>
		<path class="st2" d="M42,35H14c-2.209,0-4-1.791-4-4V12c0-2.209,1.791-4,4-4h28c2.209,0,4,1.791,4,4v19C46,33.209,44.209,35,42,35
			z"/>
		<path class="st0" d="M42,35.5H14c-2.481,0-4.5-2.019-4.5-4.5V12c0-2.481,2.019-4.5,4.5-4.5h28c2.481,0,4.5,2.019,4.5,4.5v19
			C46.5,33.481,44.481,35.5,42,35.5z M14,8.5c-1.93,0-3.5,1.57-3.5,3.5v19c0,1.93,1.57,3.5,3.5,3.5h28c1.93,0,3.5-1.57,3.5-3.5V12
			c0-1.93-1.57-3.5-3.5-3.5H14z"/>
	</g>
	<g>
		<path class="st0" d="M42,32.5H14c-0.827,0-1.5-0.673-1.5-1.5V12c0-0.827,0.673-1.5,1.5-1.5h28c0.827,0,1.5,0.673,1.5,1.5v19
			C43.5,31.827,42.827,32.5,42,32.5z M14,11.5c-0.276,0-0.5,0.224-0.5,0.5v19c0,0.276,0.224,0.5,0.5,0.5h28
			c0.275,0,0.5-0.224,0.5-0.5V12c0-0.276-0.225-0.5-0.5-0.5H14z"/>
	</g>
	<g>
		<path class="st6" d="M56,53H26c-1.105,0-2-0.895-2-2v-8h34v8C58,52.105,57.105,53,56,53z"/>
		<path class="st0" d="M56,53.5H26c-1.378,0-2.5-1.122-2.5-2.5v-8c0-0.276,0.224-0.5,0.5-0.5h34c0.276,0,0.5,0.224,0.5,0.5v8
			C58.5,52.378,57.379,53.5,56,53.5z M24.5,43.5V51c0,0.827,0.673,1.5,1.5,1.5h30c0.827,0,1.5-0.673,1.5-1.5v-7.5H24.5z"/>
	</g>
	<g>
		<path class="st2" d="M59,43H23c-0.552,0-1-0.448-1-1v-2c0-0.552,0.448-1,1-1h36c0.552,0,1,0.448,1,1v2C60,42.552,59.552,43,59,43z
			"/>
		<path class="st0" d="M59,43.5H23c-0.827,0-1.5-0.673-1.5-1.5v-2c0-0.827,0.673-1.5,1.5-1.5h36c0.827,0,1.5,0.673,1.5,1.5v2
			C60.5,42.827,59.827,43.5,59,43.5z M23,39.5c-0.276,0-0.5,0.224-0.5,0.5v2c0,0.276,0.224,0.5,0.5,0.5h36
			c0.275,0,0.5-0.224,0.5-0.5v-2c0-0.276-0.225-0.5-0.5-0.5H23z"/>
	</g>
	<g>
		<rect x="18" y="35" class="st2" width="20" height="4"/>
		<path class="st0" d="M38,39.5H18c-0.276,0-0.5-0.224-0.5-0.5v-4c0-0.276,0.224-0.5,0.5-0.5h20c0.276,0,0.5,0.224,0.5,0.5v4
			C38.5,39.276,38.276,39.5,38,39.5z M18.5,38.5h19v-3h-19V38.5z"/>
	</g>
	<g>
		<path class="st0" d="M19,17.5h-3c-0.276,0-0.5-0.224-0.5-0.5v-3c0-0.276,0.224-0.5,0.5-0.5h3c0.276,0,0.5,0.224,0.5,0.5v3
			C19.5,17.276,19.276,17.5,19,17.5z M16.5,16.5h2v-2h-2V16.5z"/>
	</g>
	<g>
		<path class="st0" d="M25,17.5h-3c-0.276,0-0.5-0.224-0.5-0.5v-3c0-0.276,0.224-0.5,0.5-0.5h3c0.276,0,0.5,0.224,0.5,0.5v3
			C25.5,17.276,25.276,17.5,25,17.5z M22.5,16.5h2v-2h-2V16.5z"/>
	</g>
	<g>
		<path class="st0" d="M34,17.5h-3c-0.276,0-0.5-0.224-0.5-0.5v-3c0-0.276,0.224-0.5,0.5-0.5h3c0.276,0,0.5,0.224,0.5,0.5v3
			C34.5,17.276,34.276,17.5,34,17.5z M31.5,16.5h2v-2h-2V16.5z"/>
	</g>
	<g>
		<path class="st0" d="M40,17.5h-3c-0.276,0-0.5-0.224-0.5-0.5v-3c0-0.276,0.224-0.5,0.5-0.5h3c0.276,0,0.5,0.224,0.5,0.5v3
			C40.5,17.276,40.276,17.5,40,17.5z M37.5,16.5h2v-2h-2V16.5z"/>
	</g>
	<g>
		<path class="st0" d="M19,23.5h-3c-0.276,0-0.5-0.224-0.5-0.5v-3c0-0.276,0.224-0.5,0.5-0.5h3c0.276,0,0.5,0.224,0.5,0.5v3
			C19.5,23.276,19.276,23.5,19,23.5z M16.5,22.5h2v-2h-2V22.5z"/>
	</g>
	<g>
		<path class="st0" d="M25,23.5h-3c-0.276,0-0.5-0.224-0.5-0.5v-3c0-0.276,0.224-0.5,0.5-0.5h3c0.276,0,0.5,0.224,0.5,0.5v3
			C25.5,23.276,25.276,23.5,25,23.5z M22.5,22.5h2v-2h-2V22.5z"/>
	</g>
	<g>
		<path class="st0" d="M34,23.5h-3c-0.276,0-0.5-0.224-0.5-0.5v-3c0-0.276,0.224-0.5,0.5-0.5h3c0.276,0,0.5,0.224,0.5,0.5v3
			C34.5,23.276,34.276,23.5,34,23.5z M31.5,22.5h2v-2h-2V22.5z"/>
	</g>
	<g>
		<path class="st0" d="M40,23.5h-3c-0.276,0-0.5-0.224-0.5-0.5v-3c0-0.276,0.224-0.5,0.5-0.5h3c0.276,0,0.5,0.224,0.5,0.5v3
			C40.5,23.276,40.276,23.5,40,23.5z M37.5,22.5h2v-2h-2V22.5z"/>
	</g>
	<g>
		<path class="st0" d="M19,29.5h-3c-0.276,0-0.5-0.224-0.5-0.5v-3c0-0.276,0.224-0.5,0.5-0.5h3c0.276,0,0.5,0.224,0.5,0.5v3
			C19.5,29.276,19.276,29.5,19,29.5z M16.5,28.5h2v-2h-2V28.5z"/>
	</g>
	<g>
		<path class="st0" d="M25,29.5h-3c-0.276,0-0.5-0.224-0.5-0.5v-3c0-0.276,0.224-0.5,0.5-0.5h3c0.276,0,0.5,0.224,0.5,0.5v3
			C25.5,29.276,25.276,29.5,25,29.5z M22.5,28.5h2v-2h-2V28.5z"/>
	</g>
	<g>
		<path class="st0" d="M34,29.5h-3c-0.276,0-0.5-0.224-0.5-0.5v-3c0-0.276,0.224-0.5,0.5-0.5h3c0.276,0,0.5,0.224,0.5,0.5v3
			C34.5,29.276,34.276,29.5,34,29.5z M31.5,28.5h2v-2h-2V28.5z"/>
	</g>
	<g>
		<path class="st0" d="M40,29.5h-3c-0.276,0-0.5-0.224-0.5-0.5v-3c0-0.276,0.224-0.5,0.5-0.5h3c0.276,0,0.5,0.224,0.5,0.5v3
			C40.5,29.276,40.276,29.5,40,29.5z M37.5,28.5h2v-2h-2V28.5z"/>
	</g>
	<g>
		<path class="st0" d="M28,32.5c-0.276,0-0.5-0.224-0.5-0.5V11c0-0.276,0.224-0.5,0.5-0.5s0.5,0.224,0.5,0.5v21
			C28.5,32.276,28.276,32.5,28,32.5z"/>
	</g>
	<g>
		<path class="st2" d="M46,56H36c-0.552,0-1-0.448-1-1v-7c0-1.105,0.895-2,2-2h8c1.105,0,2,0.895,2,2v7C47,55.552,46.552,56,46,56z"
			/>
		<path class="st0" d="M46,56.5H36c-0.827,0-1.5-0.673-1.5-1.5v-7c0-1.378,1.121-2.5,2.5-2.5h8c1.379,0,2.5,1.122,2.5,2.5v7
			C47.5,55.827,46.827,56.5,46,56.5z M37,46.5c-0.827,0-1.5,0.673-1.5,1.5v7c0,0.276,0.225,0.5,0.5,0.5h10
			c0.275,0,0.5-0.224,0.5-0.5v-7c0-0.827-0.673-1.5-1.5-1.5H37z"/>
	</g>
	<g>
		<path class="st1" d="M15,56c-0.552,0-1-0.448-1-1v-2h21v2c0,0.552,0.448,1,1,1H15z"/>
		<path class="st0" d="M36,56.5H15c-0.827,0-1.5-0.673-1.5-1.5v-2c0-0.276,0.224-0.5,0.5-0.5h21c0.276,0,0.5,0.224,0.5,0.5v2
			c0,0.276,0.225,0.5,0.5,0.5c0.276,0,0.5,0.224,0.5,0.5S36.276,56.5,36,56.5z M14.5,53.5V55c0,0.276,0.224,0.5,0.5,0.5h19.586
			C34.53,55.344,34.5,55.175,34.5,55v-1.5H14.5z"/>
	</g>
	<g>
		<circle class="st7" cx="41" cy="51" r="1.5"/>
		<path class="st0" d="M41,53c-1.103,0-2-0.897-2-2s0.897-2,2-2s2,0.897,2,2S42.103,53,41,53z M41,50c-0.552,0-1,0.449-1,1
			s0.448,1,1,1s1-0.449,1-1S41.552,50,41,50z"/>
	</g>
	<g>
		<path class="st14" d="M26,51.5c-0.276,0-0.5-0.224-0.5-0.5v-6c0-0.276,0.224-0.5,0.5-0.5s0.5,0.224,0.5,0.5v6
			C26.5,51.276,26.276,51.5,26,51.5z"/>
	</g>
	<g>
		<path class="st6" d="M8,51.5c-0.276,0-0.5-0.224-0.5-0.5v-6c0-0.276,0.224-0.5,0.5-0.5s0.5,0.224,0.5,0.5v6
			C8.5,51.276,8.276,51.5,8,51.5z"/>
	</g>
	<g>
		<path class="st17" d="M22,51.5c-0.276,0-0.5-0.224-0.5-0.5v-6c0-0.276,0.224-0.5,0.5-0.5s0.5,0.224,0.5,0.5v6
			C22.5,51.276,22.276,51.5,22,51.5z"/>
	</g>
	<g>
		<path class="st12" d="M56,51.5c-0.276,0-0.5-0.224-0.5-0.5v-6c0-0.276,0.224-0.5,0.5-0.5s0.5,0.224,0.5,0.5v6
			C56.5,51.276,56.276,51.5,56,51.5z"/>
	</g>
	<g>
		<path class="st11" d="M37,54.5c-0.276,0-0.5-0.224-0.5-0.5v-6c0-0.276,0.224-0.5,0.5-0.5s0.5,0.224,0.5,0.5v6
			C37.5,54.276,37.276,54.5,37,54.5z"/>
	</g>
	<g>
		<path class="st1" d="M45,54.5c-0.276,0-0.5-0.224-0.5-0.5v-6c0-0.276,0.224-0.5,0.5-0.5s0.5,0.224,0.5,0.5v6
			C45.5,54.276,45.276,54.5,45,54.5z"/>
	</g>
</g>
</svg>
