<?xml version="1.0" encoding="utf-8"?>
<!-- Generator: Adobe Illustrator 18.0.0, SVG Export Plug-In . SVG Version: 6.00 Build 0)  -->
<!DOCTYPE svg PUBLIC "-//W3C//DTD SVG 1.1//EN" "http://www.w3.org/Graphics/SVG/1.1/DTD/svg11.dtd">
<svg version="1.1" id="Layer_1" xmlns="http://www.w3.org/2000/svg" xmlns:xlink="http://www.w3.org/1999/xlink" x="0px" y="0px"
	 viewBox="0 0 256 256" style="enable-background:new 0 0 256 256;" xml:space="preserve">
<style type="text/css">
	.st0{fill:#1C868E;}
	.st1{fill:#40C4DF;}
	.st2{fill:#F85252;}
	.st3{fill:#491352;}
	.st4{fill:#7BEFE4;}
	.st5{fill:none;stroke:#491352;stroke-width:4;stroke-linecap:round;stroke-linejoin:round;stroke-miterlimit:10;}
	.st6{fill:#FFFFFF;}
	.st7{fill:#56C1B3;}
	.st8{fill:#D73735;}
	.st9{fill:#D8D6D7;}
	.st10{fill:#EDAF85;}
	.st11{fill:#F7C09A;}
	.st12{fill:none;stroke:#491352;stroke-width:4;stroke-miterlimit:10;}
</style>
<g id="XMLID_448_">
	<path id="XMLID_1480_" class="st0" d="M172.8,38.13v49.22c0,2.76-2.23,5-5,5H88.2c-2.77,0-5-2.24-5-5V38.13c0-2.76,2.23-5,5-5h79.6
		C170.57,33.13,172.8,35.37,172.8,38.13z"/>
	<path id="XMLID_1485_" class="st0" d="M76.74,180.46v37.41c0,2.76-2.24,5-5,5H10c-2.76,0-5-2.24-5-5v-37.41c0-2.76,2.24-5,5-5
		h61.74C74.5,175.46,76.74,177.7,76.74,180.46z"/>
	<path id="XMLID_1482_" class="st0" d="M163.87,180.46v37.41c0,2.76-2.24,5-5,5H97.13c-2.76,0-5-2.24-5-5v-37.41c0-2.76,2.24-5,5-5
		h61.74C161.63,175.46,163.87,177.7,163.87,180.46z"/>
	<path id="XMLID_1484_" class="st0" d="M251,180.46v37.41c0,2.76-2.24,5-5,5h-61.74c-2.76,0-5-2.24-5-5v-37.41c0-2.76,2.24-5,5-5
		H246C248.76,175.46,251,177.7,251,180.46z"/>
	<path id="XMLID_1477_" class="st1" d="M172.8,38.13v49.22c0,2.76-2.23,5-5,5h-59.6c-2.77,0-5-2.24-5-5V38.13c0-2.76,2.23-5,5-5
		h59.6C170.57,33.13,172.8,35.37,172.8,38.13z"/>
	<path id="XMLID_1483_" class="st1" d="M76.74,180.46v37.41c0,2.76-2.24,5-5,5H30c-2.76,0-5-2.24-5-5v-37.41c0-2.76,2.24-5,5-5
		h41.74C74.5,175.46,76.74,177.7,76.74,180.46z"/>
	<path id="XMLID_1479_" class="st1" d="M163.87,180.46v37.41c0,2.76-2.24,5-5,5h-41.74c-2.76,0-5-2.24-5-5v-37.41c0-2.76,2.24-5,5-5
		h41.74C161.63,175.46,163.87,177.7,163.87,180.46z"/>
	<path id="XMLID_1481_" class="st1" d="M251,180.46v37.41c0,2.76-2.24,5-5,5h-41.74c-2.76,0-5-2.24-5-5v-37.41c0-2.76,2.24-5,5-5
		H246C248.76,175.46,251,177.7,251,180.46z"/>
	<path id="XMLID_564_" class="st3" d="M246.001,173.463h-28.869v-34.612c0-3.86-3.141-7-7-7H130V94.345h37.804c3.859,0,7-3.14,7-7
		V38.13c0-3.86-3.141-7-7-7H88.196c-3.859,0-7,3.14-7,7v49.215c0,3.86,3.141,7,7,7H126v37.506H45.868c-3.859,0-7,3.14-7,7v34.612
		H9.999c-3.859,0-7,3.14-7,7v37.407c0,3.86,3.141,7,7,7h61.738c3.859,0,7-3.14,7-7v-37.407c0-3.86-3.141-7-7-7H42.868v-34.612
		c0-1.654,1.346-3,3-3H126v37.612H97.131c-3.859,0-7,3.14-7,7v37.407c0,3.86,3.141,7,7,7h61.738c3.859,0,7-3.14,7-7v-37.407
		c0-3.86-3.141-7-7-7H130v-37.612h80.132c1.654,0,3,1.346,3,3v34.612h-28.869c-3.859,0-7,3.14-7,7v37.407c0,3.86,3.141,7,7,7h61.738
		c3.859,0,7-3.14,7-7v-37.407C253.001,176.604,249.86,173.463,246.001,173.463z M85.196,87.345V38.13c0-1.654,1.346-3,3-3h79.607
		c1.654,0,3,1.346,3,3v49.215c0,1.654-1.346,3-3,3H88.196C86.542,90.345,85.196,89,85.196,87.345z M74.737,180.463v37.407
		c0,1.654-1.346,3-3,3H9.999c-1.654,0-3-1.346-3-3v-37.407c0-1.654,1.346-3,3-3h61.738
		C73.392,177.463,74.737,178.809,74.737,180.463z M161.869,180.463v37.407c0,1.654-1.346,3-3,3H97.131c-1.654,0-3-1.346-3-3v-37.407
		c0-1.654,1.346-3,3-3h61.738C160.523,177.463,161.869,178.809,161.869,180.463z M249.001,217.87c0,1.654-1.346,3-3,3h-61.738
		c-1.654,0-3-1.346-3-3v-37.407c0-1.654,1.346-3,3-3h61.738c1.654,0,3,1.346,3,3V217.87z"/>
</g>
</svg>
