<?xml version="1.0" encoding="utf-8"?>
<!-- Generator: Adobe Illustrator 22.1.0, SVG Export Plug-In . SVG Version: 6.00 Build 0)  -->
<svg version="1.1" id="Layer_1" xmlns="http://www.w3.org/2000/svg" xmlns:xlink="http://www.w3.org/1999/xlink" x="0px" y="0px"
	 viewBox="0 0 256 256" style="enable-background:new 0 0 256 256;" xml:space="preserve">
<style type="text/css">
	.st0{fill:#1C868E;}
	.st1{fill:#40C4DF;}
	.st2{fill:#F85252;}
	.st3{fill:#491352;}
	.st4{fill:#FFFFFF;}
	.st5{fill:#56C1B3;}
	.st6{fill:#7BEFE4;}
	.st7{fill:#D73735;}
	.st8{fill:#D8D6D7;}
	.st9{fill:#EDAF85;}
	.st10{fill:#F7C09A;}
	.st11{fill:none;stroke:#491352;stroke-width:4;stroke-miterlimit:10;}
</style>
<g>
	<path class="st2" d="M212.089,115.1v29.87H8.419c-2.76,0-5-2.24-5-5V120.1c0-2.76,2.24-5,5-5H212.089z"/>
	<path class="st7" d="M212.089,129.17v15.8H8.419c-2.76,0-5-2.24-5-5v-5.8c0-2.76,2.24-5,5-5H212.089z"/>
	<path class="st6" d="M206.599,198.5v18.09c0,3.34-2.71,6.04-6.05,6.04h-91.48c-1.75,0-3.37-0.91-4.27-2.39L60.769,66.03
		c-0.9-1.49-2.52-2.4-4.27-2.4H8.419c-2.76,0-5-2.24-5-5V38.45c0-2.76,2.24-5,5-5h72.26c1.75,0,3.36,0.91,4.27,2.4l44.03,154.21
		c0.9,1.48,2.52,2.39,4.26,2.39h67.31C203.889,192.45,206.599,195.16,206.599,198.5z"/>
	<path class="st5" d="M194.099,212.5v10.13h-85.03c-1.75,0-3.37-0.91-4.27-2.39L60.769,66.03c-0.9-1.49-2.52-2.4-4.27-2.4H8.419
		c-2.76,0-5-2.24-5-5V47.46h64.76c1.75,0,3.36,0.91,4.27,2.39l44.03,154.21c0.9,1.49,2.52,2.4,4.26,2.4h67.31
		C191.389,206.46,194.099,209.16,194.099,212.5z"/>
	<path class="st1" d="M206.599,39.41V57.5c0,3.34-2.71,6.05-6.05,6.05h-67.31c-1.74,0-3.36,0.91-4.26,2.39l-44.03,154.21
		c-0.91,1.49-2.52,2.4-4.27,2.4H8.419c-2.76,0-5-2.24-5-5v-20.18c0-2.76,2.24-5,5-5h48.08c1.75,0,3.37-0.91,4.27-2.4l44.03-154.21
		c0.9-1.48,2.52-2.39,4.27-2.39h91.48C203.889,33.37,206.599,36.07,206.599,39.41z"/>
	<path class="st0" d="M206.599,50.38v7.12c0,3.34-2.71,6.05-6.05,6.05h-67.31c-1.74,0-3.36,0.91-4.26,2.39l-44.03,154.21
		c-0.91,1.49-2.52,2.4-4.27,2.4H8.419c-2.76,0-5-2.24-5-5v-8.17h64.42c1.74,0,3.36-0.91,4.27-2.4l44.02-154.21
		c0.91-1.48,2.52-2.39,4.27-2.39H206.599z"/>
	<path class="st7" d="M249.559,135.27l-47.35,27.34c-4.03,2.32-9.07-0.58-9.07-5.24V102.7c0-4.66,5.04-7.56,9.07-5.24l43.17,24.92
		l4.18,2.42C253.589,127.13,253.589,132.94,249.559,135.27z"/>
	<path class="st5" d="M249.559,213.78l-47.35,27.33c-4.03,2.33-9.07-0.58-9.07-5.23V181.2c0-4.65,5.04-7.56,9.07-5.23l43.16,24.92
		l4.19,2.42C253.589,205.63,253.589,211.45,249.559,213.78z"/>
	<path class="st0" d="M249.559,52.69l-47.35,27.34c-4.03,2.33-9.07-0.58-9.07-5.23V20.12c0-4.65,5.04-7.56,9.07-5.23l43.17,24.92
		l4.18,2.41C253.589,44.55,253.589,50.37,249.559,52.69z"/>
	<path class="st2" d="M245.379,122.38l-43.17,24.92c-4.03,2.33-9.07-0.58-9.07-5.23V102.7c0-4.66,5.04-7.56,9.07-5.24
		L245.379,122.38z"/>
	<path class="st6" d="M245.369,200.89l-43.16,24.92c-4.03,2.33-9.07-0.58-9.07-5.23V181.2c0-4.65,5.04-7.56,9.07-5.23
		L245.369,200.89z"/>
	<path class="st1" d="M245.379,39.81l-43.17,24.92c-4.03,2.32-9.07-0.58-9.07-5.24V20.12c0-4.65,5.04-7.56,9.07-5.23L245.379,39.81z
		"/>
	<path class="st3" d="M199.189,165.43c2.938,0-0.141,1.312,51.37-28.43c5.364-3.086,5.36-10.846,0-13.93l-47.35-27.34
		c-5.383-3.097-12.07,0.79-12.07,6.97v10.4h-73.55l13.22-46.31c0.56-0.77,1.47-1.24,2.43-1.24h57.9v9.25
		c0,6.17,6.706,10.067,12.07,6.96l47.35-27.34c5.355-3.081,5.371-10.818,0-13.93l-47.35-27.34c-5.392-3.103-12.07,0.805-12.07,6.97
		v11.25h-82.07c-2.357,0-4.714,1.182-6.12,3.59l-8.08,28.32l-7.99-27.98l-0.08-0.26l-0.14-0.23c-1.26-2.07-3.55-3.36-5.98-3.36
		H8.419c-3.86,0-7,3.14-7,7v20.18c0,3.86,3.14,7,7,7h48.08c0.96,0,1.88,0.47,2.43,1.24l13.2,46.23H8.419c-3.85,0-7,3.14-7,7v19.87
		c0,3.86,3.15,7,7,7h62.55l-12.04,42.16c-0.55,0.77-1.47,1.24-2.43,1.24H8.419c-3.86,0-7,3.14-7,7v20.18c0,3.86,3.14,7,7,7h72.26
		c2.314,0,4.611-1.113,6.12-3.59l8.06-28.24l8.01,28.06c0.392,1.274,2.708,3.85,6.2,3.85h82.07v11.25
		c0,6.115,6.614,10.088,12.07,6.97l47.35-27.34c2.52-1.46,4.02-4.06,4.02-6.97c0-2.91-1.5-5.51-4.02-6.96l-47.35-27.34
		c-5.389-3.122-12.07,0.815-12.07,6.96v9.25h-57.9c-0.96,0-1.87-0.47-2.43-1.24l-12.06-42.24h72.39v10.4
		C191.139,162.039,194.972,165.43,199.189,165.43z M195.139,102.7c0-3.108,3.362-5.057,6.07-3.51l47.35,27.34
		c2.69,1.546,2.701,5.458,0,7.01l-47.35,27.34c-1.26,0.73-2.78,0.73-4.04,0C194.328,159.225,195.139,161.734,195.139,102.7z
		 M195.139,20.12c0-3.119,3.407-5.064,6.07-3.5l47.35,27.34c2.694,1.548,2.696,5.45,0,7l-47.35,27.34c-1.26,0.73-2.78,0.73-4.04,0
		C194.407,76.712,195.139,79.434,195.139,20.12z M195.139,181.2c0-3.072,3.328-5.067,6.07-3.5l47.35,27.34
		c1.27,0.73,2.02,2.04,2.02,3.5c0,1.46-0.75,2.77-2.02,3.5l-47.35,27.34c-2.685,1.556-6.07-0.389-6.07-3.5
		C195.139,227.229,195.139,187.16,195.139,181.2z M62.479,64.99c-1.26-2.07-3.55-3.36-5.98-3.36H8.419c-1.66,0-3-1.34-3-3V38.45
		c0-1.65,1.34-3,3-3h72.26c0.96,0,1.87,0.47,2.43,1.25l9.67,33.87c-15.437,54.079-12.921,45.284-14.32,50.14
		C78.329,120.254,62.725,65.395,62.479,64.99z M8.419,142.97c-1.65,0-3-1.35-3-3V120.1c0-1.65,1.35-3,3-3h64.85l3.11,10.9
		l-4.27,14.97H8.419z M83.109,219.3c-0.56,0.78-1.47,1.25-2.43,1.25H8.419c-1.66,0-3-1.35-3-3v-20.18c0-1.66,1.34-3,3-3h48.08
		c2.43,0,4.72-1.29,5.98-3.36l0.14-0.23c30.083-105.351-7.429,25.997,44.01-154.17c0.57-0.77,1.48-1.24,2.44-1.24h82.07v26.18h-57.9
		c-2.42,0-4.71,1.28-5.97,3.35l-0.14,0.23C97.571,168.624,101.977,153.234,83.109,219.3z M127.049,190.6l0.08,0.27l0.14,0.23
		c1.26,2.07,3.55,3.35,5.97,3.35h57.9v26.18h-82.07c-0.96,0-1.87-0.47-2.44-1.24l-9.69-33.95
		c14.737-51.632,11.393-39.93,14.32-50.15C116.226,152.709,111.992,137.877,127.049,190.6z M117.609,142.97l-4.27-14.97l3.11-10.9
		h74.69v25.87H117.609z"/>
</g>
</svg>
