<?xml version="1.0" encoding="utf-8"?>
<!-- Generator: Adobe Illustrator 18.0.0, SVG Export Plug-In . SVG Version: 6.00 Build 0)  -->
<!DOCTYPE svg PUBLIC "-//W3C//DTD SVG 1.1//EN" "http://www.w3.org/Graphics/SVG/1.1/DTD/svg11.dtd">
<svg version="1.1" id="Layer_1" xmlns="http://www.w3.org/2000/svg" xmlns:xlink="http://www.w3.org/1999/xlink" x="0px" y="0px"
	 viewBox="0 0 256 256" style="enable-background:new 0 0 256 256;" xml:space="preserve">
<style type="text/css">
	.st0{fill:#1C868E;}
	.st1{fill:#40C4DF;}
	.st2{fill:#F85252;}
	.st3{fill:#491352;}
	.st4{fill:#7BEFE4;}
	.st5{fill:none;stroke:#491352;stroke-width:4;stroke-linecap:round;stroke-linejoin:round;stroke-miterlimit:10;}
	.st6{fill:#FFFFFF;}
	.st7{fill:#56C1B3;}
	.st8{fill:#D73735;}
	.st9{fill:#D8D6D7;}
	.st10{fill:#EDAF85;}
	.st11{fill:#F7C09A;}
	.st12{fill:none;stroke:#491352;stroke-width:4;stroke-miterlimit:10;}
</style>
<g id="XMLID_2275_">
	<circle id="XMLID_2179_" class="st4" cx="35.688" cy="128" r="31.07"/>
	<path id="XMLID_1605_" class="st0" d="M50.53,128c0,6.45-4.1,11.93-9.83,13.99c-0.81,0.28-1.65,0.5-2.51,0.65
		c-0.81,0.14-1.65,0.21-2.5,0.21c-8.2,0-14.85-6.65-14.85-14.85s6.65-14.85,14.85-14.85c0.85,0,1.69,0.07,2.5,0.21
		c0.86,0.15,1.7,0.37,2.51,0.65C46.43,116.07,50.53,121.55,50.53,128z"/>
	<circle id="XMLID_2176_" class="st4" cx="117.671" cy="128" r="31.07"/>
	<path id="XMLID_1569_" class="st9" d="M130.33,142.09h-25.32c-3.6,0-5.86-3.91-4.06-7.04l12.66-21.92
		c1.41-2.42,4.44-2.96,6.57-1.62c0.61,0.38,1.15,0.92,1.55,1.62l0.94,1.63l11.72,20.29C136.19,138.18,133.94,142.09,130.33,142.09z"
		/>
	<circle id="XMLID_2167_" class="st4" cx="117.671" cy="39.913" r="31.07"/>
	<path id="XMLID_1638_" class="st0" d="M132.52,39.91c0,6.45-4.11,11.93-9.84,13.99c-0.81,0.28-1.65,0.5-2.51,0.65
		c-0.81,0.14-1.65,0.21-2.5,0.21c-8.2,0-14.84-6.65-14.84-14.85s6.64-14.84,14.84-14.84c0.85,0,1.69,0.07,2.5,0.21
		c0.86,0.15,1.7,0.37,2.51,0.65C128.41,27.99,132.52,33.46,132.52,39.91z"/>
	<circle id="XMLID_2165_" class="st4" cx="35.688" cy="39.913" r="31.07"/>
	<path id="XMLID_1637_" class="st9" d="M48.34,54H23.03c-3.61,0-5.86-3.91-4.06-7.03l12.66-21.92c1.4-2.43,4.43-2.97,6.56-1.62
		c0.61,0.38,1.15,0.92,1.56,1.62l0.94,1.63L52.4,46.97C54.21,50.09,51.95,54,48.34,54z"/>
	<circle id="XMLID_2182_" class="st4" cx="35.685" cy="216.087" r="31.07"/>
	<path id="XMLID_2071_" class="st9" d="M48.34,230.17H23.03c-3.61,0-5.86-3.9-4.06-7.03l12.66-21.92c1.4-2.43,4.43-2.97,6.56-1.62
		c0.61,0.38,1.15,0.92,1.56,1.62l0.94,1.63l11.71,20.29C54.21,226.27,51.95,230.17,48.34,230.17z"/>
	<circle id="XMLID_2164_" class="st4" cx="117.671" cy="216.087" r="31.07"/>
	<path id="XMLID_66_" class="st8" d="M113.27,221.37c-2.36,2.36-2.5,6.13-0.42,8.66l-0.46,0.46c-0.61,0.61-1.31,1.06-2.06,1.37
		c-2.34,0.98-5.16,0.52-7.06-1.37c-2.51-2.51-2.51-6.61,0-9.12l5.28-5.28l-5.28-5.29c-2.51-2.5-2.51-6.61,0-9.11
		c1.9-1.9,4.72-2.36,7.06-1.38c0.75,0.31,1.45,0.77,2.06,1.38l0.46,0.46c-2.08,2.52-1.94,6.3,0.42,8.65l5.28,5.29L113.27,221.37z"/>
	<path id="XMLID_195_" class="st1" d="M50.53,128c0,6.45-4.1,11.93-9.83,13.99c-5.75-2.05-9.86-7.54-9.86-13.99
		s4.11-11.94,9.86-13.99C46.43,116.07,50.53,121.55,50.53,128z"/>
	<path id="XMLID_79_" class="st6" d="M130.33,142.09h-15.32c-3.6,0-5.86-3.91-4.06-7.04l11.72-20.29l11.72,20.29
		C136.19,138.18,133.94,142.09,130.33,142.09z"/>
	<path id="XMLID_1602_" class="st1" d="M132.52,39.91c0,6.45-4.11,11.93-9.84,13.99c-5.75-2.05-9.85-7.54-9.85-13.99
		s4.1-11.93,9.85-13.98C128.41,27.99,132.52,33.46,132.52,39.91z"/>
	<path id="XMLID_1600_" class="st6" d="M48.34,54H33.03c-3.61,0-5.86-3.91-4.06-7.03l11.72-20.29L52.4,46.97
		C54.21,50.09,51.95,54,48.34,54z"/>
	<path id="XMLID_2067_" class="st6" d="M48.34,230.17H33.03c-3.61,0-5.86-3.9-4.06-7.03l11.72-20.29l11.71,20.29
		C54.21,226.27,51.95,230.17,48.34,230.17z"/>
	<path id="XMLID_1609_" class="st2" d="M132.07,221.37c2.36,2.36,2.5,6.13,0.42,8.66c-0.14,0.16-0.27,0.31-0.42,0.46
		c-0.61,0.61-1.31,1.06-2.06,1.37c-2.34,0.98-5.16,0.52-7.06-1.37l-0.28-0.28l-2.5-2.51l-2.5-2.5l-4.82,4.83
		c-2.08-2.53-1.94-6.3,0.42-8.66l5.28-5.28l-5.28-5.29c-2.36-2.35-2.5-6.13-0.42-8.65l4.82,4.82l5-5l0.28-0.28
		c1.9-1.9,4.72-2.36,7.06-1.38c0.75,0.31,1.45,0.77,2.06,1.38c0.15,0.15,0.28,0.3,0.42,0.46c2.08,2.52,1.94,6.3-0.42,8.65
		l-5.28,5.29L132.07,221.37z"/>
	<path id="XMLID_1339_" class="st0" d="M229.63,183.15v6.52c0,2.86-2.32,5.18-5.18,5.18h-16.57c-2.86,0-5.17-2.32-5.17-5.18v-6.52
		c0-2.86,2.31-5.18,5.17-5.18h16.57C227.31,177.97,229.63,180.29,229.63,183.15z"/>
	<path id="XMLID_1338_" class="st7" d="M251.38,111.26c0,17.57-8.98,40-21.75,49.94v9.22c0,4.16-3.37,7.55-7.55,7.55h-11.82
		c-4.18,0-7.55-3.39-7.55-7.55v-9.22c-12.77-9.94-21.75-32.37-21.75-49.94c0-23.27,15.76-42.14,35.21-42.14
		c0.84,0,1.68,0.04,2.5,0.1c0.85,0.07,1.69,0.18,2.51,0.33h0.03C238.27,72.48,251.38,90.04,251.38,111.26z"/>
	<path id="XMLID_1336_" class="st1" d="M229.63,183.15v6.52c0,2.86-2.32,5.18-5.18,5.18h-6.57c-2.86,0-5.17-2.32-5.17-5.18v-6.52
		c0-2.86,2.31-5.18,5.17-5.18h6.57C227.31,177.97,229.63,180.29,229.63,183.15z"/>
	<path id="XMLID_1335_" class="st4" d="M251.38,111.26c0,17.57-8.98,40-21.75,49.94v9.22c0,4.16-3.37,7.55-7.55,7.55h-1.82
		c-4.18,0-7.55-3.39-7.55-7.55v-9.22c-12.77-9.94-21.75-32.37-21.75-49.94c0-21.25,13.14-38.82,30.22-41.71h0.03
		C238.27,72.48,251.38,90.04,251.38,111.26z"/>
	<g id="XMLID_35_">
		<path id="XMLID_2304_" class="st3" d="M35.688,111.154c-9.289,0-16.846,7.557-16.846,16.846s7.557,16.846,16.846,16.846
			S52.534,137.289,52.534,128S44.977,111.154,35.688,111.154z M35.688,140.846c-7.083,0-12.846-5.763-12.846-12.846
			s5.763-12.846,12.846-12.846c7.084,0,12.847,5.763,12.847,12.846S42.771,140.846,35.688,140.846z"/>
		<path id="XMLID_2307_" class="st3" d="M136.12,140.742c1.209-2.094,1.209-4.595,0-6.688l-12.656-21.921
			c-1.209-2.094-3.375-3.344-5.793-3.344c-2.417,0-4.583,1.25-5.792,3.344l-12.656,21.921c-1.209,2.094-1.209,4.594,0,6.688
			s3.374,3.344,5.792,3.344h25.313C132.746,144.086,134.911,142.836,136.12,140.742z M102.688,138.742
			c-0.486-0.842-0.486-1.847,0-2.688l12.656-21.921c0.485-0.842,1.355-1.344,2.327-1.344c0.973,0,1.843,0.502,2.328,1.344
			l12.656,21.921c0.486,0.842,0.486,1.847,0,2.688c-0.485,0.842-1.355,1.344-2.327,1.344h-25.313
			C104.043,140.086,103.173,139.584,102.688,138.742z"/>
		<path id="XMLID_2310_" class="st3" d="M117.671,56.759c9.289,0,16.847-7.557,16.847-16.846c0-9.289-7.558-16.846-16.847-16.846
			s-16.846,7.557-16.846,16.846C100.825,49.202,108.382,56.759,117.671,56.759z M117.671,27.067c7.084,0,12.847,5.763,12.847,12.846
			c0,7.083-5.763,12.846-12.847,12.846c-7.083,0-12.846-5.763-12.846-12.846C104.825,32.83,110.588,27.067,117.671,27.067z"/>
		<path id="XMLID_2313_" class="st3" d="M41.48,24.045c-1.21-2.094-3.375-3.344-5.793-3.344h-0.001c-2.418,0-4.582,1.25-5.791,3.344
			L17.239,45.967c-1.209,2.094-1.209,4.594,0,6.688c1.209,2.094,3.374,3.344,5.792,3.344h25.313c2.418,0,4.584-1.25,5.793-3.344
			c1.209-2.094,1.209-4.594,0-6.688L41.48,24.045z M50.673,50.655c-0.486,0.842-1.357,1.344-2.329,1.344H23.031
			c-0.986,0-1.835-0.49-2.328-1.344c-0.485-0.842-0.485-1.847,0.001-2.688L33.36,26.045c0.485-0.841,1.355-1.344,2.327-1.344
			s1.843,0.502,2.328,1.344l12.656,21.921C51.158,48.809,51.158,49.813,50.673,50.655z"/>
		<path id="XMLID_2316_" class="st3" d="M41.48,200.22c-1.21-2.094-3.375-3.344-5.793-3.344h-0.001c-2.418,0-4.582,1.25-5.791,3.344
			l-12.656,21.921c-1.209,2.094-1.209,4.594,0,6.688c1.209,2.094,3.374,3.344,5.792,3.344h25.313c2.418,0,4.584-1.25,5.793-3.344
			c1.209-2.094,1.209-4.594,0-6.688L41.48,200.22z M50.673,226.829c-0.486,0.842-1.357,1.344-2.329,1.344H23.031
			c-0.986,0-1.835-0.49-2.328-1.344c-0.485-0.842-0.485-1.847,0.001-2.688l12.656-21.922c0.485-0.841,1.355-1.344,2.327-1.344
			s1.843,0.502,2.328,1.344l12.656,21.921C51.158,224.983,51.158,225.987,50.673,226.829z"/>
		<path id="XMLID_2319_" class="st3" d="M133.485,200.272c-3.294-3.292-8.652-3.292-11.944,0l-3.87,3.869l-3.869-3.87
			c-3.293-3.292-8.651-3.292-11.944,0c-3.293,3.293-3.293,8.652,0,11.945l3.869,3.869l-3.869,3.869
			c-3.293,3.293-3.293,8.652,0,11.945c1.646,1.646,3.81,2.47,5.973,2.47c2.162,0,4.325-0.824,5.972-2.47l3.869-3.869l3.87,3.869
			c3.294,3.294,8.652,3.292,11.944,0c3.293-3.293,3.293-8.652,0-11.945l-3.869-3.869l3.869-3.869
			C136.778,208.925,136.778,203.566,133.485,200.272z M130.657,209.39l-5.283,5.283c-0.781,0.781-0.781,2.047,0,2.828l5.283,5.283
			c1.733,1.734,1.733,4.555,0,6.289c-0.835,0.834-1.951,1.294-3.144,1.294c-1.193,0-2.31-0.46-3.145-1.295l-5.284-5.283
			c-0.391-0.39-0.902-0.585-1.414-0.585s-1.023,0.195-1.414,0.586l-5.283,5.283c-0.835,0.834-1.951,1.294-3.145,1.294
			c-1.192,0-2.309-0.46-3.144-1.294c-1.733-1.734-1.733-4.555,0-6.289l5.283-5.283c0.781-0.781,0.781-2.047,0-2.828l-5.283-5.283
			c-1.733-1.734-1.733-4.555,0-6.288c1.733-1.734,4.553-1.733,6.288,0l5.283,5.284c0.375,0.375,0.884,0.586,1.414,0.586
			s1.039-0.21,1.414-0.586l5.284-5.283c1.733-1.734,4.553-1.733,6.288,0C132.391,204.835,132.391,207.656,130.657,209.39z"/>
		<path id="XMLID_2323_" class="st3" d="M216.17,67.122c-20.52,0-37.213,19.802-37.213,44.142c0,18.667,9.491,40.762,21.749,50.899
			v8.258c0,2.721,1.15,5.174,2.982,6.915c-1.803,1.305-2.982,3.421-2.982,5.813v6.524c0,3.958,3.22,7.179,7.178,7.179h6.286v30.335
			c0,1.752-1.426,3.178-3.179,3.178h-36.249c-1.752,0-3.178-1.426-3.178-3.178V45.094c0-3.958-3.221-7.178-7.179-7.178h-13.71
			c-1.037-17.308-15.44-31.073-33.005-31.073c-17.563,0-31.966,13.764-33.004,31.07H68.692c-1.038-17.307-15.441-31.07-33.004-31.07
			c-18.235,0-33.07,14.835-33.07,33.07s14.835,33.07,33.07,33.07c7.975,0,15.3-2.838,21.018-7.556l17.24,18.528l-17.244,18.528
			c-5.717-4.717-13.04-7.553-21.014-7.553c-18.235,0-33.07,14.835-33.07,33.07s14.835,33.07,33.07,33.07
			c7.973,0,15.296-2.837,21.014-7.553l17.244,18.528l-17.24,18.528c-5.718-4.718-13.042-7.556-21.018-7.556
			c-18.235,0-33.07,14.835-33.07,33.07s14.835,33.07,33.07,33.07c17.563,0,31.966-13.764,33.004-31.07h15.975
			c1.038,17.307,15.441,31.07,33.004,31.07s31.966-13.764,33.004-31.07h16.889v9.1c0,3.958,3.22,7.178,7.178,7.178h36.249
			c3.958,0,7.179-3.22,7.179-7.178v-30.335h6.285c3.958,0,7.179-3.22,7.179-7.179v-6.524c0-2.391-1.18-4.507-2.982-5.812
			c1.833-1.741,2.982-4.194,2.982-6.915v-8.258c12.258-10.137,21.749-32.232,21.749-50.899
			C253.383,86.924,236.689,67.122,216.17,67.122z M167.564,45.094V126h-16.889c-1.038-17.307-15.441-31.07-33.004-31.07
			c-7.976,0-15.301,2.838-21.019,7.557L79.409,83.956l17.245-18.528c5.718,4.718,13.042,7.555,21.017,7.555
			c17.562,0,31.964-13.762,33.004-31.067h13.711C166.139,41.916,167.564,43.342,167.564,45.094z M88.601,128
			c0-16.029,13.041-29.07,29.07-29.07s29.07,13.041,29.07,29.07s-13.041,29.07-29.07,29.07S88.601,144.029,88.601,128z
			 M117.671,10.843c16.017,0,29.05,13.021,29.069,29.034c0,0.013-0.004,0.026-0.004,0.039c0,0.013,0.004,0.025,0.004,0.038
			c-0.022,16.01-13.054,29.029-29.069,29.029c-16.029,0-29.07-13.041-29.07-29.07S101.642,10.843,117.671,10.843z M6.617,39.913
			c0-16.029,13.041-29.07,29.07-29.07s29.07,13.041,29.07,29.07s-13.041,29.07-29.07,29.07S6.617,55.942,6.617,39.913z
			 M59.625,62.694c5.221-5.484,8.585-12.748,9.067-20.781h15.975c0.482,8.033,3.845,15.297,9.067,20.781L76.677,81.02L59.625,62.694
			z M93.732,105.22c-5.221,5.484-8.584,12.748-9.066,20.78H68.692c-0.482-8.035-3.847-15.301-9.07-20.785l17.055-18.324
			L93.732,105.22z M6.617,128c0-16.029,13.041-29.07,29.07-29.07s29.07,13.041,29.07,29.07s-13.041,29.07-29.07,29.07
			S6.617,144.029,6.617,128z M59.622,150.785c5.223-5.484,8.588-12.75,9.07-20.785h15.975c0.482,8.032,3.845,15.296,9.066,20.78
			l-17.055,18.329L59.622,150.785z M84.667,214.087H68.692c-0.482-8.033-3.845-15.297-9.067-20.781l17.052-18.326l17.056,18.326
			C88.512,198.79,85.148,206.054,84.667,214.087z M35.688,245.157c-16.029,0-29.07-13.041-29.07-29.07s13.041-29.07,29.07-29.07
			s29.07,13.041,29.07,29.07S51.717,245.157,35.688,245.157z M117.671,245.157c-16.029,0-29.07-13.041-29.07-29.07
			s13.041-29.07,29.07-29.07s29.07,13.041,29.07,29.07S133.7,245.157,117.671,245.157z M150.675,214.087
			c-1.038-17.307-15.441-31.07-33.004-31.07c-7.975,0-15.299,2.837-21.017,7.555l-17.245-18.528l17.243-18.531
			c5.718,4.719,13.043,7.557,21.019,7.557c17.563,0,31.966-13.764,33.004-31.07h16.889v84.087H150.675z M224.455,179.97
			c1.753,0,3.179,1.426,3.179,3.179v6.524c0,1.753-1.426,3.179-3.179,3.179h-16.571c-1.752,0-3.178-1.426-3.178-3.179v-6.524
			c0-1.753,1.426-3.179,3.178-3.179h2.343c0.01,0,0.019,0.001,0.029,0.001h11.827c0.01,0,0.019-0.001,0.029-0.001H224.455z
			 M228.405,159.625c-0.487,0.379-0.771,0.961-0.771,1.578v9.217c0,3.051-2.475,5.533-5.522,5.549h-11.885
			c-3.047-0.016-5.521-2.498-5.521-5.549v-9.217c0-0.617-0.284-1.199-0.771-1.578c-11.763-9.158-20.978-30.401-20.978-48.362
			c0-22.134,14.899-40.142,33.213-40.142s33.213,18.007,33.213,40.142C249.383,129.224,240.168,150.467,228.405,159.625z"/>
		<path id="XMLID_2337_" class="st3" d="M216.17,62.85c1.104,0,2-0.896,2-2V44.279c0-1.104-0.896-2-2-2s-2,0.896-2,2V60.85
			C214.17,61.955,215.065,62.85,216.17,62.85z"/>
		<path id="XMLID_2338_" class="st3" d="M237.656,66.282c0.512,0,1.023-0.195,1.414-0.586l11.718-11.717
			c0.781-0.781,0.781-2.047,0-2.828c-0.781-0.781-2.047-0.781-2.828,0l-11.718,11.717c-0.781,0.781-0.781,2.047,0,2.828
			C236.633,66.087,237.145,66.282,237.656,66.282z"/>
		<path id="XMLID_2339_" class="st3" d="M193.269,65.696c0.391,0.391,0.902,0.586,1.414,0.586s1.023-0.195,1.414-0.586
			c0.781-0.781,0.781-2.047,0-2.828l-11.718-11.717c-0.781-0.781-2.047-0.781-2.828,0c-0.781,0.781-0.781,2.047,0,2.828
			L193.269,65.696z"/>
	</g>
</g>
</svg>
