<?xml version="1.0" encoding="utf-8"?>
<!-- Generator: Adobe Illustrator 18.0.0, SVG Export Plug-In . SVG Version: 6.00 Build 0)  -->
<!DOCTYPE svg PUBLIC "-//W3C//DTD SVG 1.1//EN" "http://www.w3.org/Graphics/SVG/1.1/DTD/svg11.dtd">
<svg version="1.1" id="Layer_1" xmlns="http://www.w3.org/2000/svg" xmlns:xlink="http://www.w3.org/1999/xlink" x="0px" y="0px"
	 viewBox="0 0 256 256" style="enable-background:new 0 0 256 256;" xml:space="preserve">
<style type="text/css">
	.st0{fill:#1C868E;}
	.st1{fill:#40C4DF;}
	.st2{fill:#F85252;}
	.st3{fill:#491352;}
	.st4{fill:#7BEFE4;}
	.st5{fill:none;stroke:#491352;stroke-width:4;stroke-linecap:round;stroke-linejoin:round;stroke-miterlimit:10;}
	.st6{fill:#FFFFFF;}
	.st7{fill:#56C1B3;}
	.st8{fill:#D73735;}
	.st9{fill:#D8D6D7;}
	.st10{fill:#EDAF85;}
	.st11{fill:#F7C09A;}
	.st12{fill:none;stroke:#491352;stroke-width:4;stroke-miterlimit:10;}
</style>
<g id="XMLID_3638_">
	<path id="XMLID_3593_" class="st7" d="M234.6,199.11c-2.73,6.25-4.83,10.55-4.83,17.94c0,3.53,0.57,7.01,1.67,10.32
		c1.11,3.31,2.74,6.43,4.86,9.26l7.28,9.7c1.47,1.96,0.07,4.76-2.38,4.76h-51.91c-1.64,0-2.97-1.33-2.97-2.98
		c0-12.48,0-23.92,0-23.92c0-1.64-1.33-2.98-2.97-2.98h-10.21c-2.74,0-5.29-1.4-6.75-3.72c-1.71-3.36-10.84-13.7-11.96-31.58
		l-0.1-3.45h-6.96c-3.07,0-4.86-3.47-3.07-5.97l9.47-13.24c0.36-0.51,0.56-1.11,0.56-1.73c0-2.25-0.01-7.72-0.01-7.72
		c0-26.83,21.46-49.06,48.28-49.26c3.57-0.03,7.04,0.33,10.39,1.04c22.06,4.61,38.62,24.18,38.62,47.6c0,8.62-2.23,16.64-6.15,23.63
		C241.42,184.02,237.91,191.53,234.6,199.11z"/>
	<path id="XMLID_3594_" class="st0" d="M108.63,182.46h-6.96l-0.1,3.45c-1.12,17.88-10.25,28.22-11.96,31.58
		c-1.46,2.32-4.01,3.72-6.75,3.72H72.65c-1.64,0-2.97,1.34-2.97,2.98c0,0,0,11.44,0,23.92c0,1.65-1.33,2.98-2.97,2.98H14.8
		c-2.45,0-3.85-2.8-2.38-4.76l7.28-9.7c2.12-2.83,3.75-5.95,4.86-9.26c1.1-3.31,1.67-6.79,1.67-10.32c0-7.39-2.1-11.69-4.83-17.94
		c-3.31-7.58-6.82-15.09-10.86-22.3c-3.92-6.99-6.15-15.01-6.15-23.63c0-26.98,21.97-48.84,49.01-48.64
		c3.3,0.02,6.51,0.38,9.61,1.04c22.16,4.69,38.67,24.69,38.67,48.22c0,0-0.01,5.47-0.01,7.72c0,0.62,0.2,1.22,0.56,1.73l9.47,13.24
		C113.49,178.99,111.7,182.46,108.63,182.46z"/>
	<path id="XMLID_3590_" class="st4" d="M234.6,199.11c-2.73,6.25-4.83,10.55-4.83,17.94c0,3.53,0.57,7.01,1.67,10.32
		c1.11,3.31,2.74,6.43,4.86,9.26l7.28,9.7c1.47,1.96,0.07,4.76-2.38,4.76h-31.91c-1.64,0-2.97-1.33-2.97-2.98
		c0-12.48,0-23.92,0-23.92c0-1.64-1.33-2.98-2.97-2.98h-10.21c-2.74,0-5.29-1.4-6.75-3.72c-1.71-3.36-10.84-13.7-11.96-31.58
		l-0.1-3.45h-6.96c-3.07,0-4.86-3.47-3.07-5.97l9.47-13.24c0.36-0.51,0.56-1.11,0.56-1.73c0-2.25-0.01-7.72-0.01-7.72
		c0-23.53,16.51-43.53,38.67-48.22c22.06,4.61,38.62,24.18,38.62,47.6c0,8.62-2.23,16.64-6.15,23.63
		C241.42,184.02,237.91,191.53,234.6,199.11z"/>
	<path id="XMLID_3592_" class="st1" d="M108.63,182.46h-6.96l-0.1,3.45c-1.12,17.88-10.25,28.22-11.96,31.58
		c-1.46,2.32-4.01,3.72-6.75,3.72H72.65c-1.64,0-2.97,1.34-2.97,2.98c0,0,0,11.44,0,23.92c0,1.65-1.33,2.98-2.97,2.98H34.8
		c-2.45,0-3.85-2.8-2.38-4.76l7.28-9.7c2.12-2.83,3.75-5.95,4.86-9.26c1.1-3.31,1.67-6.79,1.67-10.32c0-7.39-2.1-11.69-4.83-17.94
		c-3.31-7.58-6.82-15.09-10.86-22.3c-3.92-6.99-6.15-15.01-6.15-23.63c0-23.42,16.56-42.99,38.62-47.6
		c22.16,4.69,38.67,24.69,38.67,48.22c0,0-0.01,5.47-0.01,7.72c0,0.62,0.2,1.22,0.56,1.73l9.47,13.24
		C113.49,178.99,111.7,182.46,108.63,182.46z"/>
	<circle id="XMLID_2865_" class="st0" cx="83.89" cy="152.747" r="5.508"/>
	<circle id="XMLID_2864_" class="st2" cx="39.218" cy="172.467" r="5.816"/>
	<circle id="XMLID_2861_" class="st2" cx="54.675" cy="208.213" r="5.816"/>
	<circle id="XMLID_1926_" class="st0" cx="172.11" cy="152.747" r="5.508"/>
	<circle id="XMLID_1925_" class="st2" cx="216.782" cy="172.467" r="5.816"/>
	<circle id="XMLID_1922_" class="st2" cx="201.325" cy="208.213" r="5.816"/>
	<path id="XMLID_1686_" class="st6" d="M42.965,123.046l6-10.392c0.855-1.482,2.994-1.482,3.849,0l6,10.392
		c0.855,1.482-0.214,3.334-1.925,3.334h-12C43.179,126.38,42.109,124.528,42.965,123.046z"/>
	<path id="XMLID_1716_" class="st6" d="M42.965,143.67l6-10.392c0.855-1.482,2.994-1.482,3.849,0l6,10.392
		c0.855,1.482-0.214,3.334-1.925,3.334h-12C43.179,147.004,42.109,145.152,42.965,143.67z"/>
	<path id="XMLID_97_" class="st6" d="M174.759,130.465l6-10.392c0.855-1.482,2.994-1.482,3.849,0l6,10.392
		c0.855,1.482-0.214,3.334-1.925,3.334h-12C174.972,133.799,173.903,131.947,174.759,130.465z"/>
	<path id="XMLID_1583_" class="st6" d="M197.247,130.465l6-10.392c0.855-1.482,2.994-1.482,3.849,0l6,10.392
		c0.855,1.482-0.214,3.334-1.925,3.334h-12C197.461,133.799,196.391,131.947,197.247,130.465z"/>
	<path id="XMLID_1657_" class="st6" d="M219.614,130.465l6-10.392c0.855-1.482,2.994-1.482,3.849,0l6,10.392
		c0.855,1.482-0.214,3.334-1.925,3.334h-12C219.828,133.799,218.758,131.947,219.614,130.465z"/>
	<g id="XMLID_1582_">
		<path id="XMLID_2095_" class="st3" d="M56.676,177.05v-4.583c0-2.644-4-2.648-4,0v17.46h-5.573c-2.644,0-2.648,4,0,4h5.573v6.739
			c-3.342,0.887-5.816,3.93-5.816,7.547c0,4.31,3.507,7.816,7.816,7.816s7.815-3.506,7.815-7.816c0-3.617-2.473-6.66-5.815-7.547
			V181.05h21.777c2.644,0,2.648-4,0-4h-8.372v-21.866h6.715c1.015,2.945,3.808,5.07,7.094,5.07c4.14,0,7.508-3.368,7.508-7.508
			s-3.368-7.508-7.508-7.508c-3.604,0-6.62,2.553-7.342,5.945h-6.467v-4.069c0-2.644-4-2.648-4,0v29.935H56.676z M58.491,208.212
			c0,2.104-1.712,3.816-3.815,3.816c-2.104,0-3.816-1.712-3.816-3.816s1.712-3.816,3.816-3.816
			C56.779,204.396,58.491,206.108,58.491,208.212z M83.89,149.239c1.935,0,3.508,1.574,3.508,3.508s-1.573,3.508-3.508,3.508
			c-1.739,0-3.175-1.275-3.45-2.936c0.003-0.045,0.014-0.088,0.014-0.134c0-0.168-0.027-0.33-0.066-0.486
			C80.413,150.787,81.972,149.239,83.89,149.239z"/>
		<path id="XMLID_2102_" class="st3" d="M208.897,189.927h-5.573v-17.46c0-2.644-4-2.648-4,0v4.583h-9.405v-29.935
			c0-2.644-4-2.648-4,0v4.069h-6.467c-0.721-3.392-3.738-5.945-7.342-5.945c-4.14,0-7.508,3.368-7.508,7.508
			s3.368,7.508,7.508,7.508c3.286,0,6.078-2.125,7.094-5.07h6.715v21.866h-8.372c-2.644,0-2.648,4,0,4h21.777v19.616
			c-3.342,0.887-5.815,3.93-5.815,7.547c0,4.31,3.506,7.816,7.815,7.816s7.816-3.506,7.816-7.816c0-3.617-2.474-6.66-5.816-7.547
			v-6.739h5.573C211.542,193.927,211.545,189.927,208.897,189.927z M172.11,156.254c-1.935,0-3.508-1.574-3.508-3.508
			s1.573-3.508,3.508-3.508c1.918,0,3.476,1.548,3.503,3.459c-0.039,0.156-0.066,0.318-0.066,0.486c0,0.046,0.01,0.089,0.014,0.134
			C175.285,154.98,173.849,156.254,172.11,156.254z M205.141,208.212c0,2.104-1.712,3.816-3.816,3.816
			c-2.104,0-3.815-1.712-3.815-3.816s1.712-3.816,3.815-3.816C203.429,204.396,205.141,206.108,205.141,208.212z"/>
		<path id="XMLID_2106_" class="st3" d="M236.435,199.908c3.963-9.083,7.284-15.906,10.771-22.123
			c0.769-1.372,1.448-2.789,2.083-4.225c0.113-0.172,0.194-0.364,0.249-0.567c2.661-6.229,4.072-12.978,4.072-19.809
			c0-13.6-5.315-26.367-14.968-35.948c-9.473-9.404-21.956-14.599-35.317-14.685V32.638c0-3.86-3.141-7-7-7h-57.215L117.854,4.381
			c-1.873-1.873-4.698,0.96-2.828,2.828l18.428,18.428H58.396c-3.859,0-7,3.14-7,7v69.938c-12.872,0.413-24.867,5.557-34.038,14.661
			C2.171,132.312-1.456,154.454,6.463,172.993c0.699,2.554,1.656,1.892,13.613,28.081c2.41,5.496,4.151,9.467,4.151,15.972
			c0,6.586-2.177,13.115-6.128,18.384l-7.275,9.701c-1.138,1.517-1.317,3.512-0.47,5.207c0.848,1.696,2.552,2.749,4.447,2.749
			h51.903c2.742,0,4.973-2.231,4.973-4.974l-0.002-21.945c0-0.757,0-1.423-0.057-1.982h0.057c0-0.537,0.437-0.974,0.973-0.974
			h10.213c3.448,0,6.604-1.742,8.441-4.661c0.033-0.052,0.063-0.105,0.091-0.16c0.255-0.501,0.799-1.328,1.429-2.285
			c3.177-4.824,9.787-14.863,10.744-30.139l0.047-1.507h5.016c2.175,0,4.143-1.202,5.137-3.135c0.994-1.934,0.826-4.233-0.438-6.001
			c-9.836-13.86-9.653-13.23-9.653-13.804c0-0.104,0.001-7.83,0.001-7.729c-0.531-29.416-22.964-49.999-48.278-51.188V32.638
			c0-1.654,1.346-3,3-3h75.057l-18.428,18.429c-1.877,1.876,0.982,4.674,2.828,2.828l21.256-21.257h57.215c1.654,0,3,1.346,3,3
			v70.045c-26.786,1.946-46.999,25.014-46.999,50.501c0,0.101,0,0.712,0,0.611c0.002,0.1,0.048,7.969-0.181,8.289l-9.472,13.242
			c-1.265,1.768-1.433,4.067-0.438,6.001c0.994,1.934,2.962,3.135,5.137,3.135h5.017l0.049,1.57
			c0.954,15.213,7.564,25.252,10.741,30.076c0.63,0.957,1.174,1.783,1.429,2.285c0.027,0.055,0.058,0.108,0.091,0.16
			c1.837,2.918,4.993,4.661,8.441,4.661h10.213c0.536,0,0.973,0.437,0.973,0.974h0.057c-0.057,0.56-0.057,1.225-0.057,1.982
			l-0.002,21.945c0,2.743,2.23,4.974,4.973,4.974h51.903c1.896,0,3.6-1.053,4.447-2.749c0.848-1.695,0.668-3.69-0.47-5.207
			l-7.275-9.702c-3.951-5.269-6.128-11.798-6.128-18.384c0-6.505,1.741-10.476,4.151-15.972L236.435,199.908z M99.675,153.793
			c0,0.197-0.001,8.78-0.001,8.679c0,0.575,0.246,1.09,0.635,1.455c0.377,0.677-0.435-0.574,9.764,13.726
			c0.569,0.795,0.284,1.556,0.136,1.845c-0.149,0.29-0.602,0.964-1.58,0.964h-6.955c-1.08,0-1.966,0.858-1.999,1.938l-0.104,3.381
			c-0.288,4.593-1.118,8.644-2.211,12.2c-6.541,2.571-13.914,1.056-18.903-3.931c-0.781-0.781-2.047-0.781-2.828,0
			c-0.781,0.781-0.781,2.047,0,2.828c4.15,4.15,9.648,6.346,15.26,6.346c1.594,0,3.195-0.198,4.779-0.557
			c-2.071,4.973-4.505,8.688-6.186,11.241c-0.693,1.053-1.247,1.895-1.606,2.58c-1.106,1.708-2.975,2.725-5.014,2.725H72.648
			c-2.742,0-4.973,2.231-4.973,4.974l0.002,23.927c0,0.537-0.437,0.974-0.973,0.974H14.802c-0.542,0-0.789-0.376-0.87-0.538
			c-0.08-0.162-0.233-0.584,0.092-1.019l7.275-9.701c4.468-5.958,6.929-13.339,6.929-20.785c0-7.343-1.98-11.86-4.488-17.579
			l-0.508-1.16c-6.341-14.537-9.277-19.253-11.657-23.842h10.387v11.166c0,2.644,4,2.648,4,0v-11.166h5.709
			c0.887,3.343,3.93,5.816,7.547,5.816c4.31,0,7.815-3.506,7.815-7.816c0-4.31-3.506-7.816-7.815-7.816
			c-3.617,0-6.66,2.474-7.547,5.816H9.708c-6.574-16.287-3.57-36.457,10.469-50.392c8.803-8.738,20.455-13.537,32.85-13.537
			c0.118,0,0.237,0,0.355,0.001C78.907,106.728,99.673,127.925,99.675,153.793z M35.402,172.467c0-2.104,1.712-3.816,3.816-3.816
			c2.104,0,3.815,1.712,3.815,3.816c0,2.104-1.712,3.816-3.815,3.816C37.114,176.283,35.402,174.571,35.402,172.467z
			 M232.261,199.468c-2.508,5.718-4.488,10.235-4.488,17.579c0,7.446,2.461,14.827,6.929,20.785l7.275,9.701
			c0.325,0.434,0.172,0.856,0.092,1.018c-0.081,0.162-0.328,0.538-0.87,0.538h-51.903c-0.536,0-0.973-0.437-0.973-0.974
			l0.002-23.927c0-2.743-2.23-4.974-4.973-4.974h-10.213c-2.039,0-3.907-1.017-5.014-2.725c-0.359-0.686-0.913-1.527-1.606-2.58
			c-1.682-2.555-4.118-6.272-6.189-11.242c1.585,0.36,3.187,0.558,4.782,0.558c5.611,0,11.11-2.196,15.26-6.346
			c1.872-1.871-0.957-4.699-2.828-2.828c-4.99,4.989-12.368,6.501-18.91,3.928c-1.089-3.541-1.915-7.571-2.202-12.134l-0.106-3.444
			c-0.033-1.08-0.919-1.938-1.999-1.938h-6.955c-0.979,0-1.431-0.674-1.58-0.964c-0.148-0.29-0.434-1.05,0.136-1.845
			c10.202-14.304,9.387-13.05,9.764-13.726c0.389-0.365,0.635-0.88,0.635-1.455c0-0.267-0.001-8.78-0.001-8.679
			c0.001-25.868,20.767-47.065,46.293-47.253c0.118-0.001,0.236-0.001,0.355-0.001c12.394,0,24.048,4.799,32.85,13.537
			c8.891,8.824,13.786,20.583,13.786,33.109c0,6.034-1.114,11.824-3.317,17.283h-21.964c-0.887-3.342-3.93-5.816-7.547-5.816
			c-4.31,0-7.815,3.506-7.815,7.816c0,4.31,3.506,7.816,7.815,7.816c3.617,0,6.66-2.474,7.547-5.816h5.709v11.166
			c0,2.644,4,2.648,4,0v-11.166h10.387c-0.236,0.454-0.457,0.913-0.708,1.362c-3.554,6.337-6.931,13.271-10.948,22.48
			L232.261,199.468z M220.598,172.467c0,2.104-1.712,3.816-3.816,3.816c-2.104,0-3.815-1.712-3.815-3.816
			c0-2.104,1.712-3.816,3.815-3.816C218.886,168.651,220.598,170.363,220.598,172.467z"/>
		<path id="XMLID_2112_" class="st3" d="M47.232,111.654l-6,10.392c-1.624,2.815,0.404,6.333,3.657,6.333h11.999
			c3.25,0,5.283-3.516,3.657-6.333l-6-10.392C52.923,108.842,48.86,108.837,47.232,111.654z M51.081,113.654l6,10.392
			c0.086,0.147-0.017,0.333-0.192,0.333H44.89c-0.176,0-0.279-0.187-0.192-0.333l6-10.392
			C50.779,113.509,50.992,113.5,51.081,113.654z"/>
		<path id="XMLID_2124_" class="st3" d="M60.546,142.67l-6-10.392c-1.623-2.813-5.686-2.818-7.313,0l-6,10.392
			c-1.625,2.815,0.404,6.334,3.657,6.334h11.999C60.139,149.004,62.172,145.488,60.546,142.67z M44.697,144.67l6-10.392
			c0.081-0.146,0.295-0.154,0.384,0l6,10.392c0.088,0.149-0.019,0.334-0.192,0.334H44.89
			C44.717,145.004,44.61,144.819,44.697,144.67z"/>
		<path id="XMLID_2127_" class="st3" d="M176.684,135.799c10.129-0.537,13.647,1.367,15.656-2.111c0.763-1.322,0.763-2.901,0-4.223
			l-6-10.392c-1.625-2.813-5.686-2.817-7.313,0l-6,10.392C171.402,132.28,173.431,135.799,176.684,135.799z M176.491,131.465
			l6-10.392c0.084-0.15,0.3-0.149,0.384,0l6,10.392c0.088,0.149-0.019,0.334-0.192,0.334h-11.999
			C176.511,131.799,176.404,131.614,176.491,131.465z"/>
		<path id="XMLID_2130_" class="st3" d="M199.172,135.799h11.999c3.25,0,5.283-3.516,3.657-6.334l-6-10.392
			c-1.626-2.816-5.69-2.813-7.313,0l-6,10.392C193.89,132.28,195.919,135.799,199.172,135.799z M198.979,131.465l6-10.393
			c0.09-0.153,0.302-0.146,0.384,0l6,10.392c0.088,0.149-0.019,0.334-0.192,0.334h-11.999
			C198.999,131.799,198.892,131.614,198.979,131.465z"/>
		<path id="XMLID_2133_" class="st3" d="M221.539,135.799h11.999c3.25,0,5.283-3.516,3.657-6.334l-6-10.392
			c-1.626-2.814-5.687-2.817-7.314,0l-5.999,10.392C216.257,132.28,218.286,135.799,221.539,135.799z M221.347,131.465l5.999-10.392
			c0.084-0.149,0.301-0.15,0.385,0l6,10.392c0.088,0.149-0.019,0.334-0.192,0.334h-11.999
			C221.366,131.799,221.259,131.614,221.347,131.465z"/>
	</g>
</g>
</svg>
