<?xml version="1.0" encoding="utf-8"?>
<!-- Generator: Adobe Illustrator 23.0.0, SVG Export Plug-In . SVG Version: 6.00 Build 0)  -->
<svg version="1.1" id="Layer_1" xmlns="http://www.w3.org/2000/svg" xmlns:xlink="http://www.w3.org/1999/xlink" x="0px" y="0px"
	 viewBox="0 0 64 64" style="enable-background:new 0 0 64 64;" xml:space="preserve">
<style type="text/css">
	.st0{fill:#353744;}
	.st1{fill:#F68820;}
	.st2{fill:#808080;}
	.st3{fill:#5C76B2;}
	.st4{fill:#6FA4D8;}
	.st5{fill:#DBDEE3;}
	.st6{fill:#B3B4B6;}
	.st7{fill:#FBBE18;}
	.st8{fill:#EEC78E;}
	.st9{fill:#DB9E68;}
	.st10{fill:#55525B;}
	.st11{fill:#FFFFFF;}
	.st12{fill:#1C1D28;}
	.st13{fill:#FBD301;}
	.st14{fill:#BE7850;}
	.st15{fill:#4C52A3;}
	.st16{fill:#BF6B1E;}
	.st17{fill:#5F7ABC;}
	.st18{fill:#D4761E;}
	.st19{fill:#5D76B2;}
	.st20{fill:#668DC5;}
</style>
<g>
	<g>
		<path class="st4" d="M44.078,26.098c-0.266-8.603-7.307-15.5-15.975-15.5s-15.708,6.897-15.975,15.5H44.078z"/>
	</g>
	<g>
		<path class="st0" d="M44.079,26.098c-0.26-8.398-6.973-15.166-15.355-15.48c-0.21-0.01-0.41-0.02-0.62-0.02s-0.41,0.01-0.62,0.02
			c-6.215,0.422-11.168,7.151-11.362,15.48H44.079z"/>
	</g>
	<g>
		
			<rect x="17.559" y="11.418" transform="matrix(0.8235 0.5673 -0.5673 0.8235 13.8679 -11.7433)" class="st7" width="16.5" height="10"/>
	</g>
	<g>
		
			<rect x="16.141" y="15.977" transform="matrix(0.8235 0.5673 -0.5673 0.8235 14.7856 -10.5755)" class="st1" width="16.5" height="5"/>
	</g>
	<g>
		<path class="st3" d="M52.079,26.098c-0.26-8.398-6.973-15.166-15.355-15.48c-0.21-0.01-0.41-0.02-0.62-0.02s-0.41,0.01-0.62,0.02
			c-6.215,0.422-11.168,7.151-11.362,15.48H52.079z"/>
	</g>
	<g>
		<path class="st4" d="M12.103,32.098v28c0,1.105,0.895,2,2,2h36c1.105,0,2-0.895,2-2v-28H12.103z"/>
	</g>
	<g>
		<path class="st4" d="M54.103,26.098h-44c-1.105,0-2,0.895-2,2v2c0,1.105,0.895,2,2,2h44c1.105,0,2-0.895,2-2v-2
			C56.103,26.994,55.208,26.098,54.103,26.098z"/>
	</g>
	<g>
		<path class="st3" d="M44.103,26.098L44.103,26.098c0,0.828-0.672,1.5-1.5,1.5h-14.5c-1.105,0-2,0.895-2,2v2.5h28
			c1.105,0,2-0.895,2-2v-2c0-1.105-0.895-2-2-2H44.103z"/>
	</g>
	<g>
		<path class="st3" d="M12.103,32.098v4h12c1.105,0,2,0.895,2,2v24h24c1.105,0,2-0.895,2-2v-28H12.103z"/>
	</g>
	<g>
		<path class="st7" d="M32.103,42.098h-14v20h16v-18C34.103,42.994,33.208,42.098,32.103,42.098z"/>
	</g>
	<path class="st1" d="M32.103,42.098h-14v2h8v18h8v-18C34.103,42.994,33.208,42.098,32.103,42.098z"/>
	<g>
		<circle class="st4" cx="24.103" cy="52.098" r="1"/>
	</g>
	<g>
		<circle class="st3" cx="28.103" cy="52.098" r="1"/>
	</g>
	<g>
		<path class="st15" d="M40.103,46.098L40.103,46.098c-1.105,0-2-0.895-2-2v0c0-1.105,0.895-2,2-2h0c1.105,0,2,0.895,2,2v0
			C42.103,45.203,41.208,46.098,40.103,46.098z"/>
	</g>
	<g>
		<path class="st15" d="M46.103,46.098L46.103,46.098c-1.105,0-2-0.895-2-2v0c0-1.105,0.895-2,2-2h0c1.105,0,2,0.895,2,2v0
			C48.103,45.203,47.208,46.098,46.103,46.098z"/>
	</g>
	<g>
		<path class="st1" d="M21.339,4.839l-2.471-1.702c-3.184-2.193-7.543-1.39-9.736,1.794c-2.193,3.184-1.39,7.543,1.794,9.736
			l2.471,1.702c3.184,2.193,7.543,1.39,9.736-1.794C25.326,11.391,24.523,7.032,21.339,4.839z"/>
	</g>
	<g>
		<circle class="st7" cx="14.897" cy="8.902" r="7"/>
	</g>
	<g>
		<circle class="st0" cx="14.897" cy="8.902" r="4"/>
	</g>
	<g>
		<circle class="st10" cx="14.513" cy="6.816" r="1"/>
	</g>
	<g>
		<path class="st3" d="M20.103,42.098h-2c-1.105,0-2,0.895-2,2v18h2v-18C18.103,42.994,18.999,42.098,20.103,42.098z"/>
	</g>
</g>
</svg>
