<?xml version="1.0" encoding="utf-8"?>
<!-- Generator: Adobe Illustrator 23.0.0, SVG Export Plug-In . SVG Version: 6.00 Build 0)  -->
<svg version="1.1" id="Layer_1" xmlns="http://www.w3.org/2000/svg" xmlns:xlink="http://www.w3.org/1999/xlink" x="0px" y="0px"
	 viewBox="0 0 64 64" style="enable-background:new 0 0 64 64;" xml:space="preserve">
<style type="text/css">
	.st0{fill:#353744;}
	.st1{fill:#F68820;}
	.st2{fill:#808080;}
	.st3{fill:#5C76B2;}
	.st4{fill:#6FA4D8;}
	.st5{fill:#DBDEE3;}
	.st6{fill:#B3B4B6;}
	.st7{fill:#FBBE18;}
	.st8{fill:#EEC78E;}
	.st9{fill:#DB9E68;}
	.st10{fill:#55525B;}
	.st11{fill:#FFFFFF;}
	.st12{fill:#1C1D28;}
	.st13{fill:#FBD301;}
	.st14{fill:#BE7850;}
	.st15{fill:#4C52A3;}
	.st16{fill:#BF6B1E;}
	.st17{fill:#5F7ABC;}
	.st18{fill:#D4761E;}
	.st19{fill:#5D76B2;}
	.st20{fill:#668DC5;}
</style>
<g>
	<g>
		<path class="st6" d="M58.25,55.25h-38c-2.209,0-4.5-1.791-4.5-4v-37.5c0-2.209,2.291-4,4.5-4h38c2.209,0,4,1.791,4,4v37.5
			C62.25,53.459,60.459,55.25,58.25,55.25z"/>
	</g>
	<g>
		<path class="st5" d="M54.25,55.25h-38.5c-2.209,0-4-1.791-4-4v-37.5c0-2.209,1.791-4,4-4h38.5c2.209,0,4,1.791,4,4v37.5
			C58.25,53.459,56.459,55.25,54.25,55.25z"/>
	</g>
	<g>
		<path class="st3" d="M62.25,14.75v-1c0-2.209-1.791-4-4-4h-38c-2.209,0-4.5,1.791-4.5,4v1H62.25z"/>
	</g>
	<g>
		<path class="st4" d="M58.25,14.75v-1c0-2.209-1.791-4-4-4h-38.5c-2.209,0-4,1.791-4,4v1H58.25z"/>
	</g>
	<g>
		<g>
			<path class="st7" d="M53.25,23.75h-36.5c-1.105,0-2-0.895-2-2v-1.5c0-1.105,0.895-2,2-2h36.5c1.105,0,2,0.895,2,2v1.5
				C55.25,22.855,54.355,23.75,53.25,23.75z"/>
		</g>
		<g>
			<g>
				<path class="st6" d="M18.25,30.75h-1.5c-1.105,0-2-0.895-2-2v-1.5c0-1.105,0.895-2,2-2h1.5c1.105,0,2,0.895,2,2v1.5
					C20.25,29.855,19.355,30.75,18.25,30.75z"/>
			</g>
			<g>
				<path class="st6" d="M18.25,37.75h-1.5c-1.105,0-2-0.895-2-2v-1.5c0-1.105,0.895-2,2-2h1.5c1.105,0,2,0.895,2,2v1.5
					C20.25,36.855,19.355,37.75,18.25,37.75z"/>
			</g>
			<g>
				<path class="st6" d="M18.25,44.75h-1.5c-1.105,0-2-0.895-2-2v-1.5c0-1.105,0.895-2,2-2h1.5c1.105,0,2,0.895,2,2v1.5
					C20.25,43.855,19.355,44.75,18.25,44.75z"/>
			</g>
			<g>
				<path class="st6" d="M18.25,51.75h-1.5c-1.105,0-2-0.895-2-2v-1.5c0-1.105,0.895-2,2-2h1.5c1.105,0,2,0.895,2,2v1.5
					C20.25,50.855,19.355,51.75,18.25,51.75z"/>
			</g>
		</g>
		<g>
			<g>
				<path class="st6" d="M25.25,30.75h-1.5c-1.105,0-2-0.895-2-2v-1.5c0-1.105,0.895-2,2-2h1.5c1.105,0,2,0.895,2,2v1.5
					C27.25,29.855,26.355,30.75,25.25,30.75z"/>
			</g>
			<g>
				<path class="st6" d="M25.25,37.75h-1.5c-1.105,0-2-0.895-2-2v-1.5c0-1.105,0.895-2,2-2h1.5c1.105,0,2,0.895,2,2v1.5
					C27.25,36.855,26.355,37.75,25.25,37.75z"/>
			</g>
			<g>
				<path class="st6" d="M25.25,44.75h-1.5c-1.105,0-2-0.895-2-2v-1.5c0-1.105,0.895-2,2-2h1.5c1.105,0,2,0.895,2,2v1.5
					C27.25,43.855,26.355,44.75,25.25,44.75z"/>
			</g>
			<g>
				<path class="st6" d="M25.25,51.75h-1.5c-1.105,0-2-0.895-2-2v-1.5c0-1.105,0.895-2,2-2h1.5c1.105,0,2,0.895,2,2v1.5
					C27.25,50.855,26.355,51.75,25.25,51.75z"/>
			</g>
		</g>
		<g>
			<g>
				<path class="st6" d="M32.25,30.75h-1.5c-1.105,0-2-0.895-2-2v-1.5c0-1.105,0.895-2,2-2h1.5c1.105,0,2,0.895,2,2v1.5
					C34.25,29.855,33.355,30.75,32.25,30.75z"/>
			</g>
			<g>
				<path class="st6" d="M32.25,37.75h-1.5c-1.105,0-2-0.895-2-2v-1.5c0-1.105,0.895-2,2-2h1.5c1.105,0,2,0.895,2,2v1.5
					C34.25,36.855,33.355,37.75,32.25,37.75z"/>
			</g>
			<g>
				<path class="st6" d="M32.25,44.75h-1.5c-1.105,0-2-0.895-2-2v-1.5c0-1.105,0.895-2,2-2h1.5c1.105,0,2,0.895,2,2v1.5
					C34.25,43.855,33.355,44.75,32.25,44.75z"/>
			</g>
			<g>
				<path class="st6" d="M32.25,51.75h-1.5c-1.105,0-2-0.895-2-2v-1.5c0-1.105,0.895-2,2-2h1.5c1.105,0,2,0.895,2,2v1.5
					C34.25,50.855,33.355,51.75,32.25,51.75z"/>
			</g>
		</g>
		<g>
			<g>
				<path class="st6" d="M39.25,30.75h-1.5c-1.105,0-2-0.895-2-2v-1.5c0-1.105,0.895-2,2-2h1.5c1.105,0,2,0.895,2,2v1.5
					C41.25,29.855,40.355,30.75,39.25,30.75z"/>
			</g>
			<g>
				<path class="st6" d="M39.25,37.75h-1.5c-1.105,0-2-0.895-2-2v-1.5c0-1.105,0.895-2,2-2h1.5c1.105,0,2,0.895,2,2v1.5
					C41.25,36.855,40.355,37.75,39.25,37.75z"/>
			</g>
			<g>
				<path class="st6" d="M39.25,44.75h-1.5c-1.105,0-2-0.895-2-2v-1.5c0-1.105,0.895-2,2-2h1.5c1.105,0,2,0.895,2,2v1.5
					C41.25,43.855,40.355,44.75,39.25,44.75z"/>
			</g>
			<g>
				<path class="st6" d="M39.25,51.75h-1.5c-1.105,0-2-0.895-2-2v-1.5c0-1.105,0.895-2,2-2h1.5c1.105,0,2,0.895,2,2v1.5
					C41.25,50.855,40.355,51.75,39.25,51.75z"/>
			</g>
		</g>
		<g>
			<g>
				<path class="st6" d="M46.25,30.75h-1.5c-1.105,0-2-0.895-2-2v-1.5c0-1.105,0.895-2,2-2h1.5c1.105,0,2,0.895,2,2v1.5
					C48.25,29.855,47.355,30.75,46.25,30.75z"/>
			</g>
			<g>
				<path class="st6" d="M46.25,37.75h-1.5c-1.105,0-2-0.895-2-2v-1.5c0-1.105,0.895-2,2-2h1.5c1.105,0,2,0.895,2,2v1.5
					C48.25,36.855,47.355,37.75,46.25,37.75z"/>
			</g>
			<g>
				<path class="st6" d="M46.25,44.75h-1.5c-1.105,0-2-0.895-2-2v-1.5c0-1.105,0.895-2,2-2h1.5c1.105,0,2,0.895,2,2v1.5
					C48.25,43.855,47.355,44.75,46.25,44.75z"/>
			</g>
			<g>
				<path class="st6" d="M46.25,51.75h-1.5c-1.105,0-2-0.895-2-2v-1.5c0-1.105,0.895-2,2-2h1.5c1.105,0,2,0.895,2,2v1.5
					C48.25,50.855,47.355,51.75,46.25,51.75z"/>
			</g>
		</g>
		<g>
			<g>
				<path class="st1" d="M53.25,30.75h-1.5c-1.105,0-2-0.895-2-2v-1.5c0-1.105,0.895-2,2-2h1.5c1.105,0,2,0.895,2,2v1.5
					C55.25,29.855,54.355,30.75,53.25,30.75z"/>
			</g>
			<g>
				<path class="st1" d="M53.25,37.75h-1.5c-1.105,0-2-0.895-2-2v-1.5c0-1.105,0.895-2,2-2h1.5c1.105,0,2,0.895,2,2v1.5
					C55.25,36.855,54.355,37.75,53.25,37.75z"/>
			</g>
			<g>
				<path class="st1" d="M53.25,44.75h-1.5c-1.105,0-2-0.895-2-2v-1.5c0-1.105,0.895-2,2-2h1.5c1.105,0,2,0.895,2,2v1.5
					C55.25,43.855,54.355,44.75,53.25,44.75z"/>
			</g>
			<g>
				<path class="st1" d="M53.25,51.75h-1.5c-1.105,0-2-0.895-2-2v-1.5c0-1.105,0.895-2,2-2h1.5c1.105,0,2,0.895,2,2v1.5
					C55.25,50.855,54.355,51.75,53.25,51.75z"/>
			</g>
		</g>
	</g>
	<g>
		<path class="st3" d="M16.75,36.25h-3c-6.627,0-12,5.373-12,12c0,6.627,5.373,12,12,12h3c6.627,0,12-5.373,12-12
			S23.377,36.25,16.75,36.25z"/>
	</g>
	<g>
		<circle class="st4" cx="13.75" cy="48.25" r="12"/>
	</g>
	<g>
		<circle class="st10" cx="13.75" cy="48.25" r="10"/>
	</g>
	<g>
		<path class="st4" d="M13.75,48.75c-0.276,0-0.5-0.224-0.5-0.5v-8c0-0.276,0.224-0.5,0.5-0.5s0.5,0.224,0.5,0.5v8
			C14.25,48.526,14.026,48.75,13.75,48.75z"/>
	</g>
	<g>
		<path class="st4" d="M9.507,52.993c-0.128,0-0.256-0.049-0.354-0.146c-0.195-0.195-0.195-0.512,0-0.707l4.243-4.243
			c0.195-0.195,0.512-0.195,0.707,0s0.195,0.512,0,0.707l-4.243,4.243C9.763,52.944,9.635,52.993,9.507,52.993z"/>
	</g>
	<g>
		<circle class="st1" cx="13.75" cy="48.25" r="2"/>
	</g>
	<g>
		<circle class="st5" cx="13.75" cy="48.25" r="1"/>
	</g>
	<g>
		<path class="st1" d="M6.75,48.75h-1c-0.276,0-0.5-0.224-0.5-0.5s0.224-0.5,0.5-0.5h1c0.276,0,0.5,0.224,0.5,0.5
			S7.026,48.75,6.75,48.75z"/>
	</g>
	<g>
		<path class="st1" d="M13.75,56.75c-0.276,0-0.5-0.224-0.5-0.5v-1c0-0.276,0.224-0.5,0.5-0.5s0.5,0.224,0.5,0.5v1
			C14.25,56.526,14.026,56.75,13.75,56.75z"/>
	</g>
	<g>
		<path class="st1" d="M21.75,48.75h-1c-0.276,0-0.5-0.224-0.5-0.5s0.224-0.5,0.5-0.5h1c0.276,0,0.5,0.224,0.5,0.5
			S22.026,48.75,21.75,48.75z"/>
	</g>
	<g>
		<path class="st5" d="M56.25,9.75v-2.5c0-1.933-1.567-3.5-3.5-3.5s-3.5,1.567-3.5,3.5v2.5c0,1.933,1.567,3.5,3.5,3.5h2v-2h-2
			c-0.828,0-1.5-0.672-1.5-1.5v-2.5c0-0.828,0.672-1.5,1.5-1.5s1.5,0.672,1.5,1.5v2.5H56.25z"/>
	</g>
	<g>
		<path class="st5" d="M22.75,9.75v-2.5c0-1.933-1.567-3.5-3.5-3.5s-3.5,1.567-3.5,3.5v2.5c0,1.933,1.567,3.5,3.5,3.5h2v-2h-2
			c-0.828,0-1.5-0.672-1.5-1.5v-2.5c0-0.828,0.672-1.5,1.5-1.5s1.5,0.672,1.5,1.5v2.5H22.75z"/>
	</g>
	<g>
		<path class="st5" d="M39.75,9.75v-2.5c0-1.933-1.567-3.5-3.5-3.5s-3.5,1.567-3.5,3.5v2.5c0,1.933,1.567,3.5,3.5,3.5h2v-2h-2
			c-0.828,0-1.5-0.672-1.5-1.5v-2.5c0-0.828,0.672-1.5,1.5-1.5s1.5,0.672,1.5,1.5v2.5H39.75z"/>
	</g>
	<g>
		<path class="st6" d="M21.25,3.75c-1.933,0-3.5,1.567-3.5,3.5v2.5c0,1.933,1.567,3.5,3.5,3.5c0.552,0,1-0.448,1-1
			c0-0.552-0.448-1-1-1c-0.828,0-1.5-0.672-1.5-1.5v-2.5c0-0.828,0.672-1.5,1.5-1.5s1.5,0.672,1.5,1.5v2.5h2v-2.5
			C24.75,5.317,23.183,3.75,21.25,3.75z"/>
	</g>
	<g>
		<path class="st6" d="M38.25,3.75c-1.933,0-3.5,1.567-3.5,3.5v2.5c0,1.933,1.567,3.5,3.5,3.5c0.552,0,1-0.448,1-1
			c0-0.552-0.448-1-1-1c-0.828,0-1.5-0.672-1.5-1.5v-2.5c0-0.828,0.672-1.5,1.5-1.5s1.5,0.672,1.5,1.5v2.5h2v-2.5
			C41.75,5.317,40.183,3.75,38.25,3.75z"/>
	</g>
	<g>
		<path class="st6" d="M54.75,3.75c-1.933,0-3.5,1.567-3.5,3.5v2.5c0,1.933,1.567,3.5,3.5,3.5c0.552,0,1-0.448,1-1
			c0-0.552-0.448-1-1-1c-0.828,0-1.5-0.672-1.5-1.5v-2.5c0-0.828,0.672-1.5,1.5-1.5s1.5,0.672,1.5,1.5v2.5h2v-2.5
			C58.25,5.317,56.683,3.75,54.75,3.75z"/>
	</g>
</g>
</svg>
