<?xml version="1.0" encoding="utf-8"?>
<!-- Generator: Adobe Illustrator 23.0.0, SVG Export Plug-In . SVG Version: 6.00 Build 0)  -->
<svg version="1.1" id="Layer_1" xmlns="http://www.w3.org/2000/svg" xmlns:xlink="http://www.w3.org/1999/xlink" x="0px" y="0px"
	 viewBox="0 0 64 64" style="enable-background:new 0 0 64 64;" xml:space="preserve">
<style type="text/css">
	.st0{fill:#353744;}
	.st1{fill:#F68820;}
	.st2{fill:#808080;}
	.st3{fill:#5C76B2;}
	.st4{fill:#6FA4D8;}
	.st5{fill:#DBDEE3;}
	.st6{fill:#B3B4B6;}
	.st7{fill:#FBBE18;}
	.st8{fill:#EEC78E;}
	.st9{fill:#DB9E68;}
	.st10{fill:#55525B;}
	.st11{fill:#FFFFFF;}
	.st12{fill:#1C1D28;}
	.st13{fill:#FBD301;}
	.st14{fill:#BE7850;}
	.st15{fill:#4C52A3;}
	.st16{fill:#BF6B1E;}
	.st17{fill:#5F7ABC;}
	.st18{fill:#D4761E;}
	.st19{fill:#5D76B2;}
	.st20{fill:#668DC5;}
</style>
<g>
	<g>
		<path class="st8" d="M51,30H15.5v32H32c0.828,0,1.5-0.672,1.5-1.5V56h15c2.209,0,4-1.791,4-4V31.5C52.5,30.672,51.828,30,51,30z"
			/>
	</g>
	<g>
		<path class="st9" d="M32,62H15.5v0c0-3.314,2.686-6,6-6h12v4.5C33.5,61.328,32.828,62,32,62z"/>
	</g>
	<g>
		<path class="st10" d="M13,30c-0.828,0-1.5,0.672-1.5,1.5V48v0c0,2.209,1.791,4,4,4h10c2.209,0,4-1.791,4-4v-8h3
			c0.828,0,1.5-0.672,1.5-1.5V30H13z"/>
	</g>
	<g>
		<path class="st9" d="M29.5,34c-3.314,0-6,2.686-6,6c0,3.314,2.686,6,6,6V34z"/>
	</g>
	<g>
		<circle class="st10" cx="39.5" cy="34" r="2"/>
	</g>
	<g>
		<circle class="st10" cx="48.5" cy="34" r="2"/>
	</g>
	<g>
		<path class="st9" d="M46,48L46,48c-1.381,0-2.5-1.119-2.5-2.5V36h0c2.761,0,5,2.239,5,5v4.5C48.5,46.881,47.381,48,46,48z"/>
	</g>
	<g>
		<path class="st10" d="M43.5,52h3c1.105,0,2-0.895,2-2v0h-7v0C41.5,51.105,42.395,52,43.5,52z"/>
	</g>
	<g>
		<path class="st6" d="M43,2H20c-2.209,0-4,1.791-4,4v24h31V6v0C47,3.791,45.209,2,43,2z"/>
	</g>
	<g>
		<path class="st5" d="M39,2H20c-2.209,0-4,1.791-4,4v24h27V6v0C43,3.791,41.209,2,39,2z"/>
	</g>
	<g>
		<path class="st3" d="M39,30H20V9.5C20,8.672,20.672,8,21.5,8h16C38.328,8,39,8.672,39,9.5V30z"/>
	</g>
	<g>
		<path class="st4" d="M29.5,30H20V9.5C20,8.672,20.672,8,21.5,8h8V30z"/>
	</g>
	<g>
		<path class="st6" d="M32.5,6h-6c-0.552,0-1-0.448-1-1v0c0-0.552,0.448-1,1-1h6c0.552,0,1,0.448,1,1v0C33.5,5.552,33.052,6,32.5,6z
			"/>
	</g>
	<g>
		<g>
			<path class="st7" d="M34.5,16c0-2.869-2.416-5.173-5.324-4.99c-2.469,0.155-4.484,2.15-4.663,4.617
				c-0.107,1.472,0.424,2.82,1.345,3.798c1.083,1.15,1.642,2.698,1.642,4.278V24h4v-0.311c0-1.618,0.645-3.15,1.725-4.355
				C34.018,18.45,34.5,17.281,34.5,16z"/>
		</g>
		<g>
			<path class="st6" d="M30,27h-1c-0.828,0-1.5-0.672-1.5-1.5V24h4v1.5C31.5,26.328,30.828,27,30,27z"/>
		</g>
		<g>
			<path class="st13" d="M28.027,11.223c-1.567,0.487-2.818,1.735-3.305,3.304C25.114,15.395,25.985,16,27,16
				c1.381,0,2.5-1.119,2.5-2.5C29.5,12.486,28.895,11.615,28.027,11.223z"/>
		</g>
		<g>
			<path class="st5" d="M29.5,24h-2v1.5c0,0.828,0.672,1.5,1.5,1.5h0.5V24z"/>
		</g>
	</g>
</g>
</svg>
