<?xml version="1.0" encoding="utf-8"?>
<!-- Generator: Adobe Illustrator 23.0.0, SVG Export Plug-In . SVG Version: 6.00 Build 0)  -->
<svg version="1.1" id="Layer_1" xmlns="http://www.w3.org/2000/svg" xmlns:xlink="http://www.w3.org/1999/xlink" x="0px" y="0px"
	 viewBox="0 0 64 64" style="enable-background:new 0 0 64 64;" xml:space="preserve">
<style type="text/css">
	.st0{fill:#353744;}
	.st1{fill:#F68820;}
	.st2{fill:#808080;}
	.st3{fill:#5C76B2;}
	.st4{fill:#6FA4D8;}
	.st5{fill:#DBDEE3;}
	.st6{fill:#B3B4B6;}
	.st7{fill:#FBBE18;}
	.st8{fill:#EEC78E;}
	.st9{fill:#DB9E68;}
	.st10{fill:#55525B;}
	.st11{fill:#FFFFFF;}
	.st12{fill:#1C1D28;}
	.st13{fill:#FBD301;}
	.st14{fill:#BE7850;}
	.st15{fill:#4C52A3;}
	.st16{fill:#BF6B1E;}
	.st17{fill:#5F7ABC;}
	.st18{fill:#D4761E;}
	.st19{fill:#5D76B2;}
	.st20{fill:#668DC5;}
</style>
<g>
	<g>
		<path class="st7" d="M12.5,32.085c0.624,0.603,1.292,1.138,2,1.594V30.5h4v4.791c0.339,0.065,0.681,0.117,1.028,0.149
			c0.327-0.037,0.651-0.087,0.972-0.149V30.5h4v3.18c0.708-0.456,1.376-0.992,2-1.594V30.5h1.416c0.481-0.624,0.929-1.287,1.324-2
			H26.5v-3h4.043c0.213-0.646,0.385-1.316,0.529-2H26.5v-3h4.959c0.017-0.332,0.041-0.662,0.041-1s-0.024-0.668-0.041-1H26.5v-3
			h4.572c-0.144-0.684-0.316-1.354-0.529-2H26.5v-3h2.74c-0.395-0.713-0.843-1.376-1.324-2H26.5V6.915
			c-0.624-0.603-1.292-1.138-2-1.594V8.5h-4V3.709c-0.321-0.061-0.645-0.112-0.972-0.149c-0.347,0.032-0.689,0.084-1.028,0.149V8.5
			h-4V5.32c-0.708,0.456-1.376,0.992-2,1.594V8.5h-1.416c-0.481,0.624-0.929,1.287-1.324,2h2.74v3H8.457
			c-0.213,0.646-0.385,1.316-0.529,2H12.5v3H7.541c-0.017,0.332-0.041,0.662-0.041,1s0.024,0.668,0.041,1H12.5v3H7.928
			c0.144,0.684,0.316,1.354,0.529,2H12.5v3H9.76c0.395,0.713,0.843,1.376,1.324,2H12.5V32.085z M20.5,10.5h4v3h-4V10.5z M20.5,15.5
			h4v3h-4V15.5z M20.5,20.5h4v3h-4V20.5z M20.5,25.5h4v3h-4V25.5z M14.5,10.5h4v3h-4V10.5z M14.5,15.5h4v3h-4V15.5z M14.5,20.5h4v3
			h-4V20.5z M14.5,25.5h4v3h-4V25.5z"/>
	</g>
	<path class="st0" d="M35.5,19.5c0-9.925-6.729-18-15-18s-15,8.075-15,18c0,5.929,2.412,11.182,6.109,14.463l-0.019,0.022
		C14.367,36.482,18.5,42.142,18.5,47.5h2c0-3.637-1.641-7.463-3.785-10.603c1.212,0.38,2.475,0.603,3.785,0.603
		s2.573-0.223,3.785-0.603C22.141,40.037,20.5,43.863,20.5,47.5h2c0-5.358,4.133-11.018,6.911-13.515l-0.019-0.022
		C33.088,30.682,35.5,25.429,35.5,19.5z M7.5,19.5c0-8.822,5.832-16,13-16s13,7.178,13,16s-5.832,16-13,16S7.5,28.322,7.5,19.5z"/>
	<g>
		<path class="st4" d="M17,62.5h5c0.828,0,1.5-0.672,1.5-1.5V48.5c0-0.552-0.448-1-1-1h-6c-0.552,0-1,0.448-1,1V61
			C15.5,61.828,16.172,62.5,17,62.5z"/>
	</g>
	<g>
		<path class="st3" d="M22,62.5L22,62.5c0.828,0,1.5-0.672,1.5-1.5V48.5c0-0.552-0.448-1-1-1h-1c-0.552,0-1,0.448-1,1V61
			C20.5,61.828,21.172,62.5,22,62.5z"/>
	</g>
	<path class="st10" d="M33.5,19.5c0-9.925-6.729-18-15-18s-15,8.075-15,18c0,5.929,2.412,11.182,6.109,14.463l-0.019,0.022
		C12.367,36.482,16.5,42.142,16.5,47.5h2c0-3.637-1.641-7.463-3.785-10.603c1.212,0.38,2.475,0.603,3.785,0.603
		s2.573-0.223,3.785-0.603C20.141,40.037,18.5,43.863,18.5,47.5h2c0-5.358,4.133-11.018,6.911-13.515l-0.019-0.022
		C31.088,30.682,33.5,25.429,33.5,19.5z M5.5,19.5c0-8.822,5.832-16,13-16s13,7.178,13,16s-5.832,16-13,16S5.5,28.322,5.5,19.5z"/>
	<g>
		<circle class="st4" cx="46.5" cy="28.5" r="8"/>
	</g>
	<g>
		<path class="st3" d="M46.5,20.5c-0.363,0-0.718,0.033-1.068,0.08c2.87,0.449,5.068,2.924,5.068,5.92c0,3.314-2.686,6-6,6
			c-2.996,0-5.472-2.198-5.92-5.068c-0.047,0.35-0.08,0.705-0.08,1.068c0,4.418,3.582,8,8,8s8-3.582,8-8S50.918,20.5,46.5,20.5z"/>
	</g>
	<g>
		<path class="st0" d="M57.5,60.5H33c-1.105,0-2-0.895-2-2v-16c0-1.105,0.895-2,2-2h24.5c1.105,0,2,0.895,2,2v16
			C59.5,59.605,58.605,60.5,57.5,60.5z"/>
	</g>
	<g>
		<path class="st10" d="M55.5,60.5H29c-1.105,0-2-0.895-2-2v-16c0-1.105,0.895-2,2-2h26.5c1.105,0,2,0.895,2,2v16
			C57.5,59.605,56.605,60.5,55.5,60.5z"/>
	</g>
	<g>
		<path class="st1" d="M57.5,40.5H42v4h17.5v-2C59.5,41.395,58.605,40.5,57.5,40.5z"/>
	</g>
	<g>
		<path class="st7" d="M55.5,40.5H42v4h15.5v-2C57.5,41.395,56.605,40.5,55.5,40.5z"/>
	</g>
	<g>
		<path class="st4" d="M29,40.5h13v4H27v-2C27,41.395,27.895,40.5,29,40.5z"/>
	</g>
	<g>
		<g>
			<circle class="st7" cx="37" cy="49.5" r="0.5"/>
		</g>
		<g>
			<circle class="st7" cx="37" cy="51" r="0.5"/>
		</g>
		<g>
			<circle class="st7" cx="35.5" cy="48" r="0.5"/>
		</g>
		<g>
			<circle class="st7" cx="34" cy="48" r="0.5"/>
		</g>
		<g>
			<circle class="st7" cx="35.5" cy="57" r="0.5"/>
		</g>
		<g>
			<circle class="st7" cx="34" cy="57" r="0.5"/>
		</g>
		<g>
			<circle class="st7" cx="37" cy="52.5" r="0.5"/>
		</g>
		<g>
			<circle class="st7" cx="37" cy="54" r="0.5"/>
		</g>
		<g>
			<circle class="st7" cx="37" cy="55.5" r="0.5"/>
		</g>
		<g>
			<circle class="st7" cx="32.5" cy="49.5" r="0.5"/>
		</g>
		<g>
			<circle class="st7" cx="32.5" cy="51" r="0.5"/>
		</g>
		<g>
			<circle class="st7" cx="32.5" cy="52.5" r="0.5"/>
		</g>
		<g>
			<circle class="st7" cx="32.5" cy="54" r="0.5"/>
		</g>
		<g>
			<circle class="st7" cx="32.5" cy="55.5" r="0.5"/>
		</g>
	</g>
	<g>
		<g>
			<circle class="st7" cx="47.5" cy="48" r="0.5"/>
		</g>
		<g>
			<circle class="st7" cx="47.5" cy="49.5" r="0.5"/>
		</g>
		<g>
			<circle class="st7" cx="46" cy="49.5" r="0.5"/>
		</g>
		<g>
			<circle class="st7" cx="47.5" cy="51" r="0.5"/>
		</g>
		<g>
			<circle class="st7" cx="45" cy="51" r="0.5"/>
		</g>
		<g>
			<circle class="st7" cx="47.5" cy="52.5" r="0.5"/>
		</g>
		<g>
			<circle class="st7" cx="47.5" cy="54" r="0.5"/>
		</g>
		<g>
			<circle class="st7" cx="47.5" cy="55.5" r="0.5"/>
		</g>
		<g>
			<circle class="st7" cx="47.5" cy="57" r="0.5"/>
		</g>
		<g>
			<circle class="st7" cx="50.5" cy="48" r="0.5"/>
		</g>
		<g>
			<circle class="st7" cx="52" cy="48" r="0.5"/>
		</g>
		<g>
			<circle class="st7" cx="53.5" cy="48" r="0.5"/>
		</g>
		<g>
			<circle class="st7" cx="55" cy="48" r="0.5"/>
		</g>
		<g>
			<circle class="st7" cx="50.5" cy="49.5" r="0.5"/>
		</g>
		<g>
			<circle class="st7" cx="50.5" cy="51" r="0.5"/>
		</g>
		<g>
			<circle class="st7" cx="52" cy="51" r="0.5"/>
		</g>
		<g>
			<circle class="st7" cx="53.5" cy="51" r="0.5"/>
		</g>
		<g>
			<circle class="st7" cx="50.5" cy="55.5" r="0.5"/>
		</g>
		<g>
			<circle class="st7" cx="52" cy="57" r="0.5"/>
		</g>
		<g>
			<circle class="st7" cx="53.5" cy="57" r="0.5"/>
		</g>
		<g>
			<circle class="st7" cx="55" cy="52.5" r="0.5"/>
		</g>
		<g>
			<circle class="st7" cx="55" cy="54" r="0.5"/>
		</g>
		<g>
			<circle class="st7" cx="55" cy="55.5" r="0.5"/>
		</g>
	</g>
	<g>
		<rect x="42" y="44.5" class="st0" width="0.5" height="16"/>
	</g>
	<g>
		<rect x="42" y="40.5" class="st3" width="0.5" height="4"/>
	</g>
	<g>
		<g>
			<path class="st5" d="M46.5,30.5c-2.512,0-4.664,1.553-5.557,3.747c0.26,0.251,0.538,0.482,0.83,0.696
				C42.432,32.951,44.29,31.5,46.5,31.5s4.068,1.451,4.727,3.444c0.292-0.214,0.57-0.445,0.83-0.696
				C51.164,32.053,49.012,30.5,46.5,30.5z"/>
		</g>
		<g>
			<path class="st5" d="M46.5,26.5c2.512,0,4.664-1.553,5.557-3.747c-0.26-0.251-0.538-0.482-0.83-0.696
				C50.568,24.049,48.71,25.5,46.5,25.5s-4.068-1.451-4.727-3.444c-0.292,0.214-0.57,0.445-0.83,0.696
				C41.836,24.947,43.988,26.5,46.5,26.5z"/>
		</g>
	</g>
</g>
</svg>
