<?xml version="1.0" encoding="utf-8"?>
<!-- Generator: Adobe Illustrator 22.0.0, SVG Export Plug-In . SVG Version: 6.00 Build 0)  -->
<svg version="1.1" id="Layer_1" xmlns="http://www.w3.org/2000/svg" xmlns:xlink="http://www.w3.org/1999/xlink" x="0px" y="0px"
	 viewBox="0 0 512 512" style="enable-background:new 0 0 512 512;" xml:space="preserve">
<style type="text/css">
	.st0{fill:#FF7B7B;}
	.st1{fill:#FFB236;}
	.st2{fill:#FFD3B3;}
	.st3{fill:#FCB98B;}
	.st4{fill:#6E83B7;}
	.st5{fill:#FFB0AA;}
	.st6{fill:#EDEFF1;}
	.st7{fill:#FFE352;}
	.st8{fill:#46BEE8;}
	.st9{fill:#9CE5FF;}
	.st10{fill:#80D6FB;}
	.st11{fill:#FFE67B;}
	.st12{fill:#F76161;}
	.st13{fill:#98CA69;}
	.st14{fill:#75AA40;}
	.st15{fill:#BFEA8C;}
	.st16{fill:#D3D3D3;}
	.st17{fill:#466089;}
	.st18{fill:#7C93BF;}
	.st19{fill:#FFC69F;}
	.st20{fill:#859CC1;}
	.st21{fill:#EFA470;}
	.st22{fill:#C1C1C1;}
	.st23{fill:#E2935D;}
	.st24{fill:#99E5FF;}
</style>
<g>
	<g>
		<g>
			<path class="st17" d="M256,118.696c0,0-75.5-0.523-107,18.391c0,0,31.734,19.308,107.2,19.308S363,137.087,363,137.087
				C331.5,118.173,256,118.696,256,118.696z"/>
		</g>
	</g>
	<g>
		<g>
			<path class="st4" d="M357.378,286.409l-73.919-24.98H256.2h-27.258l-73.919,24.98c-24.38,8.239-40.791,31.108-40.791,56.842
				v57.943H164.2v105.9h233.968V343.251C398.169,317.516,381.758,294.648,357.378,286.409z"/>
		</g>
	</g>
	<g>
		<g>
			<rect x="340.653" y="366" class="st17" width="6" height="141"/>
		</g>
	</g>
	<g>
		<g>
			<path class="st4" d="M176.216,507.094h-74v-90c0-11.046,8.954-20,20-20h34c11.046,0,20,8.954,20,20V507.094z"/>
		</g>
	</g>
	<g>
		<g>
			<path class="st17" d="M179.216,507.094h-6v-90c0-9.374-7.626-17-17-17h-9.046v-6h9.046c12.682,0,23,10.318,23,23V507.094z"/>
		</g>
	</g>
	<g>
		<g>
			<path class="st17" d="M112.216,507v-89.906c0-5.514,4.486-10,10-10h34c5.514,0,10,4.486,10,10V507H112.216z"/>
		</g>
	</g>
	<g>
		<g>
			<path class="st2" d="M314.123,175.587c0,31.933-25.99,57.82-57.923,57.82s-57.923-25.887-57.923-57.82v-56.891h115.846V175.587z"
				/>
		</g>
	</g>
	<g>
		<g>
			<path class="st4" d="M246.2,145.094c0,0-18.857-7.061-34,6c0,0,19.625-5,31,2L246.2,145.094z"/>
		</g>
	</g>
	<g>
		<g>
			<circle class="st4" cx="234.2" cy="164.094" r="6"/>
		</g>
	</g>
	<g>
		<g>
			<circle class="st4" cx="278.2" cy="164.094" r="6"/>
		</g>
	</g>
	<g>
		<g>
			<path class="st4" d="M266.2,145.094c0,0,18.857-7.061,34,6c0,0-19.625-5-31,2L266.2,145.094z"/>
		</g>
	</g>
	<g>
		<g>
			<path class="st2" d="M314.123,137.087h4.264c6.799,0,12.074,5.933,11.28,12.684l-1.591,13.523
				c-0.832,7.075-6.829,12.408-13.953,12.408l0,0V137.087z"/>
		</g>
	</g>
	<g>
		<g>
			<path class="st2" d="M198.277,136.868h-4.264c-6.798,0-12.074,5.933-11.28,12.684l1.591,13.523
				c0.832,7.075,6.829,12.408,13.953,12.408h0V136.868z"/>
		</g>
	</g>
	<g>
		<g>
			<polygon class="st3" points="261.879,190.977 248.397,190.977 249.803,174.099 255.783,174.597 254.917,184.977 261.879,184.977 
							"/>
		</g>
	</g>
	<g>
		<g>
			<g>
				<path class="st3" d="M156.337,454.785H120.68v-35.186h41.167v29.676C161.847,452.318,159.38,454.785,156.337,454.785z"/>
			</g>
		</g>
		<g>
			<g>
				<path class="st3" d="M156.337,454.785H120.68v32.258h28.445c7.026,0,12.722-5.696,12.722-12.722v-14.027
					C161.847,457.252,159.38,454.785,156.337,454.785z"/>
			</g>
		</g>
		<g>
			<g>
				<path class="st2" d="M147.661,438.884v-17.443c0-5.018,4.068-9.086,9.086-9.086h0c5.018,0,9.086,4.068,9.086,9.086v17.443
					c0,5.018-4.068,9.086-9.086,9.086h0C151.729,447.97,147.661,443.903,147.661,438.884z"/>
			</g>
		</g>
		<g>
			<g>
				<path class="st3" d="M154.973,431.752c2.308-2.033,3.774-5.001,3.774-8.311c0-4.405-2.589-8.208-6.321-9.994
					c-2.838,1.537-4.765,4.54-4.765,7.994v17.443c0,5.018,4.068,9.086,9.086,9.086c0.865,0,1.699-0.129,2.492-0.354
					c1.121-1.732,1.78-3.79,1.78-6.003C161.018,437.316,158.556,433.591,154.973,431.752z"/>
			</g>
		</g>
		<g>
			<g>
				<rect x="121.17" y="270" class="st21" width="26" height="237"/>
			</g>
		</g>
		<g>
			<g>
				<g>
					<path class="st2" d="M147.661,432.527h-29.258c-5.018,0-9.086-4.068-9.086-9.086v0c0-5.018,4.068-9.086,9.086-9.086h29.258
						c5.018,0,9.086,4.068,9.086,9.086v0C156.747,428.459,152.679,432.527,147.661,432.527z"/>
				</g>
			</g>
			<g>
				<g>
					<path class="st2" d="M145.389,468.871h-29.258c-5.018,0-9.086-4.068-9.086-9.086l0,0c0-5.018,4.068-9.086,9.086-9.086h29.258
						c5.018,0,9.086,4.068,9.086,9.086l0,0C154.475,464.803,150.407,468.871,145.389,468.871z"/>
				</g>
			</g>
			<g>
				<g>
					<path class="st2" d="M141.982,487.043h-22.443c-5.018,0-9.086-4.068-9.086-9.086v0c0-5.018,4.068-9.086,9.086-9.086h22.443
						c5.018,0,9.086,4.068,9.086,9.086v0C151.068,482.975,147,487.043,141.982,487.043z"/>
				</g>
			</g>
			<g>
				<g>
					<path class="st2" d="M149.932,450.699h-33.801c-5.018,0-9.086-4.068-9.086-9.086l0,0c0-5.018,4.068-9.086,9.086-9.086h33.801
						c5.018,0,9.086,4.068,9.086,9.086l0,0C159.018,446.631,154.95,450.699,149.932,450.699z"/>
				</g>
			</g>
		</g>
	</g>
	<g>
		<g>
			<rect x="165.347" y="366" class="st17" width="6" height="35.194"/>
		</g>
	</g>
	<g>
		<g>
			<path class="st6" d="M314.2,164.59v-27.5h4V118.7h-11v45.89v4.708c0,13.176-9.626,24.357-22.651,26.343
				c-3.229,0.492-6.895,0.917-11.041,1.236c-8.78-3.41-17.508-3.409-17.508-3.409s-8.727-0.001-17.508,3.409
				c-4.146-0.319-7.812-0.744-11.041-1.236c-13.025-1.985-22.651-13.167-22.651-26.343v-4.708V118.7h-11v18.39h4v27.5v11v67.66
				c0,0-0.55,23,3.7,42.25c0-7,6-11.5,6-11.5c0,18,4.7,28,4.7,28c0-12,7.8-15.5,7.8-15.5c0,26,14.2,37,14.2,37
				c0-7.5,8.3-12.5,8.3-12.5c0,11.5,13.5,26.5,13.5,26.5s13.5-15,13.5-26.5c0,0,8.3,5,8.3,12.5c0,0,14.2-11,14.2-37
				c0,0,7.8,3.5,7.8,15.5c0,0,4.7-10,4.7-28c0,0,6,4.5,6,11.5c4.25-19.25,3.7-42.25,3.7-42.25v-67.66V164.59z"/>
		</g>
	</g>
	<g>
		<g>
			<path class="st4" d="M256,113.333c36.667,0,62.2,6.083,62.2,6.083C318.2,20.617,256,5,256,5s-62.2,15.617-62.2,114.417
				C193.8,119.417,219.333,113.333,256,113.333z"/>
		</g>
	</g>
	<g>
		<g>
			<path class="st17" d="M195.773,90.601c-1.261,8.719-1.973,18.291-1.973,28.816c0,0,25.533-6.083,62.2-6.083
				s62.2,6.083,62.2,6.083c0-10.525-0.711-20.097-1.973-28.816C299.475,82.692,278.616,78,256,78S212.525,82.692,195.773,90.601z"/>
		</g>
	</g>
	<g>
		<g>
			<path class="st4" d="M256,92.333c66.333,0,107,44.753,107,44.753c-31.5-18.913-107-18.391-107-18.391s-75.5-0.523-107,18.391
				C149,137.087,189.667,92.333,256,92.333z"/>
		</g>
	</g>
	<g>
		<g>
			<path class="st16" d="M246.2,210.094h20l-0.106,0.425c-1.113,4.452-5.113,7.575-9.701,7.575h-0.384
				c-4.589,0-8.589-3.123-9.701-7.575L246.2,210.094z"/>
		</g>
	</g>
	<g>
		<g>
			<polygon class="st10" points="134.17,270 147.17,270 167.341,233.406 134.17,151 101,233.406 121.17,270 			"/>
		</g>
	</g>
	<g>
		<g>
			<polygon class="st24" points="101,233.406 114.232,233.406 134.17,151 			"/>
		</g>
	</g>
	<g>
		<g>
			<polygon class="st8" points="167.341,233.406 154.109,233.406 134.17,151 			"/>
		</g>
	</g>
	<g>
		<g>
			<polygon class="st24" points="154.109,233.406 139.841,270 134.17,270 128.5,270 114.232,233.406 			"/>
		</g>
	</g>
	<g>
		<g>
			<polygon class="st21" points="134.17,254 112.351,254 121.17,270 134.17,270 147.17,270 155.99,254 			"/>
		</g>
	</g>
	<g>
		<g>
			<rect x="121.17" y="270" class="st23" width="26" height="5.667"/>
		</g>
	</g>
</g>
</svg>
