<?xml version="1.0" encoding="utf-8"?>
<!-- Generator: Adobe Illustrator 22.0.0, SVG Export Plug-In . SVG Version: 6.00 Build 0)  -->
<svg version="1.1" id="Layer_1" xmlns="http://www.w3.org/2000/svg" xmlns:xlink="http://www.w3.org/1999/xlink" x="0px" y="0px"
	 viewBox="0 0 512 512" style="enable-background:new 0 0 512 512;" xml:space="preserve">
<style type="text/css">
	.st0{fill:#FF7B7B;}
	.st1{fill:#FFB236;}
	.st2{fill:#FFD3B3;}
	.st3{fill:#FCB98B;}
	.st4{fill:#6E83B7;}
	.st5{fill:#FFB0AA;}
	.st6{fill:#EDEFF1;}
	.st7{fill:#FFE352;}
	.st8{fill:#46BEE8;}
	.st9{fill:#9CE5FF;}
	.st10{fill:#80D6FB;}
	.st11{fill:#FFE67B;}
	.st12{fill:#F76161;}
	.st13{fill:#98CA69;}
	.st14{fill:#75AA40;}
	.st15{fill:#BFEA8C;}
	.st16{fill:#D3D3D3;}
	.st17{fill:#466089;}
	.st18{fill:#7C93BF;}
	.st19{fill:#FFC69F;}
	.st20{fill:#859CC1;}
	.st21{fill:#EFA470;}
	.st22{fill:#C1C1C1;}
	.st23{fill:#E2935D;}
	.st24{fill:#99E5FF;}
</style>
<g>
	<g>
		<g>
			<path class="st21" d="M352.651,249.911l-68.251-16.976H228l-68.25,16.976c-26.744,6.652-45.517,30.667-45.517,58.226v34.87
				v88.782c0,16.569,13.431,30,30,30h21.109V507H347.06v-45.211h21.109c16.569,0,30-13.431,30-30v-88.782v-34.87
				C398.169,280.579,379.395,256.563,352.651,249.911z"/>
		</g>
	</g>
	<g>
		<g>
			<path class="st23" d="M383.7,382.003h-6c0-6.702-1.797-11.856-5.341-15.321c-5.184-5.067-12.384-4.963-12.454-4.963l-0.136-5.998
				c0.391-0.013,9.815-0.144,16.784,6.67C381.296,367.027,383.7,373.625,383.7,382.003z"/>
		</g>
	</g>
	<g>
		<g>
			<path class="st6" d="M347.06,506.984V344.83c0-5.079-2.614-9.801-6.919-12.497h0c-4.305-2.696-6.919-7.418-6.919-12.497v-86.901
				h-31.038c-3.314,0-6,2.686-6,6v15.08c0,22.083-17.902,39.985-39.985,39.985h0h0c-22.083,0-39.985-17.902-39.985-39.985v-15.08
				c0-3.314-2.686-6-6-6h-31.038v86.901c0,5.079-2.614,9.801-6.919,12.497h0c-4.305,2.696-6.919,7.418-6.919,12.497v162.154H347.06z
				"/>
		</g>
	</g>
	<g>
		<g>
			<polygon class="st16" points="247.657,358.667 192.01,358.667 176.144,342.801 181.801,337.144 195.323,350.667 244.343,350.667 
				252,343.01 252,310 260,310 260,346.323 			"/>
		</g>
	</g>
	<g>
		<g>
			<polygon class="st16" points="319.99,358.667 264.343,358.667 252,346.323 252,310 260,310 260,343.01 267.657,350.667 
				316.677,350.667 330.199,337.144 335.856,342.801 			"/>
		</g>
	</g>
	<g>
		<g>
			<path class="st23" d="M134.7,382.003h-6c0-8.377,2.404-14.976,7.146-19.611c6.969-6.812,16.396-6.677,16.785-6.67l-0.136,5.998
				l0.068-2.999l-0.056,3c-0.061,0.007-7.384-0.048-12.511,5.006C136.482,370.19,134.7,375.33,134.7,382.003z"/>
		</g>
	</g>
	<g>
		<g>
			<path class="st2" d="M256,201.5h-28v31.435c0,15.5,12.565,28.065,28.065,28.065h0c15.527,0,28.104-12.608,28.064-28.136
				L284,201.5H256z"/>
		</g>
	</g>
	<g>
		<g>
			<path class="st3" d="M228,215.5c8.334,3.721,18.296,6,28,6c9.704,0,19.666-2.279,28-6v-14h-56V215.5z"/>
		</g>
	</g>
	<g>
		<g>
			<path class="st2" d="M256,69.667h-60V153.5c0,33.137,26.863,60,60,60s60-26.863,60-60V69.667H256z"/>
		</g>
	</g>
	<g>
		<g>
			<circle class="st4" cx="234.2" cy="120.094" r="6"/>
		</g>
	</g>
	<g>
		<g>
			<circle class="st4" cx="278.2" cy="120.094" r="6"/>
		</g>
	</g>
	<g>
		<g>
			<polygon class="st3" points="261,149.463 248.312,149.463 251.035,131.769 256.965,132.681 255.306,143.463 261,143.463 			"/>
		</g>
	</g>
	<g>
		<g>
			<path class="st4" d="M245.876,97.915c0,0-18.589-7.713-34.41,5.933c0,0,18.392-4.746,30.85,1.187L245.876,97.915z"/>
		</g>
	</g>
	<g>
		<g>
			<path class="st4" d="M263.926,97.915c0,0,18.589-7.713,34.41,5.933c0,0-18.392-4.746-30.85,1.187L263.926,97.915z"/>
		</g>
	</g>
	<g>
		<g>
			<path class="st3" d="M256.583,176.022c-7.921,0-13.811-3.666-14.179-3.899l3.214-5.067c0.43,0.27,10.664,6.526,21.165-0.01
				l3.171,5.094C265.277,175.051,260.661,176.022,256.583,176.022z"/>
		</g>
	</g>
	<g>
		<g>
			<path class="st6" d="M332.951,81.951V196H284v-33l20.243-23.497c5.004-5.808,7.757-13.22,7.757-20.887v-18.265
				C312,84.694,299.306,72,283.648,72h0c-7.581,0-14.847,3.036-20.174,8.431L256,88l-7.474-7.569
				C243.199,75.036,235.933,72,228.352,72h0C212.694,72,200,84.694,200,100.352v18.265c0,7.667,2.752,15.078,7.757,20.887L228,163
				v33h-48.951V81.951C179.049,39.452,213.501,5,256,5h0C298.499,5,332.951,39.452,332.951,81.951z"/>
		</g>
	</g>
	<g>
		<g>
			<path class="st16" d="M332.667,69.667h-152c-2.209,0-4-1.791-4-4v-8c0-2.209,1.791-4,4-4h152c2.209,0,4,1.791,4,4v8
				C336.667,67.876,334.876,69.667,332.667,69.667z"/>
		</g>
	</g>
	<g>
		<g>
			<path class="st16" d="M191.728,232.935V310h-99v-9.065c0-37.555,30.445-68,68-68H191.728z"/>
		</g>
	</g>
	<g>
		<g>
			<path class="st4" d="M160.728,232.936c-36.506,0-66.285,28.769-67.921,64.871h86.371v-64.871H160.728z"/>
		</g>
	</g>
	<g>
		<g>
			<path class="st7" d="M256.056,507h90.86l4.402-7.172c1.937-3.157,2.96-6.789,2.955-10.493l-0.248-160.309h-97.896h-97.896
				l-0.248,160.309c-0.006,3.704,1.017,7.336,2.955,10.493l4.402,7.172h90.86H256.056z"/>
		</g>
	</g>
	<g>
		<g>
			<path class="st1" d="M178.034,487.231l0.163-138.204h155.792l-0.163,138.251C333.813,498.174,324.976,507,314.08,507h-116.3
				C186.866,507,178.021,498.145,178.034,487.231z"/>
		</g>
	</g>
	<g>
		<g>
			<path class="st16" d="M320.401,232.935V310h99v-9.065c0-37.555-30.445-68-68-68H320.401z"/>
		</g>
	</g>
	<g>
		<g>
			<path class="st4" d="M351.401,232.936c36.506,0,66.285,28.769,67.921,64.871h-86.371v-64.871H351.401z"/>
		</g>
	</g>
	<g>
		<g>
			<g>
				<path class="st2" d="M174.205,398.533h-27.258c-5.018,0-9.086-4.068-9.086-9.086l0,0c0-5.018,4.068-9.086,9.086-9.086h27.258
					c5.018,0,9.086,4.068,9.086,9.086l0,0C183.291,394.465,179.223,398.533,174.205,398.533z"/>
			</g>
		</g>
		<g>
			<g>
				<path class="st2" d="M171.933,434.877h-27.258c-5.018,0-9.086-4.068-9.086-9.086v0c0-5.018,4.068-9.086,9.086-9.086h27.258
					c5.018,0,9.086,4.068,9.086,9.086v0C181.019,430.809,176.951,434.877,171.933,434.877z"/>
			</g>
		</g>
		<g>
			<g>
				<path class="st2" d="M168.526,453.049h-20.443c-5.018,0-9.086-4.068-9.086-9.086l0,0c0-5.018,4.068-9.086,9.086-9.086h20.443
					c5.018,0,9.086,4.068,9.086,9.086l0,0C177.612,448.981,173.544,453.049,168.526,453.049z"/>
			</g>
		</g>
		<g>
			<g>
				<path class="st2" d="M176.817,416.705h-32.482c-4.83,0-8.745-3.915-8.745-8.745v-0.681c0-4.83,3.915-8.745,8.745-8.745h32.482
					c4.83,0,8.745,3.915,8.745,8.745v0.681C185.562,412.79,181.647,416.705,176.817,416.705z"/>
			</g>
		</g>
	</g>
	<g>
		<g>
			<g>
				<path class="st2" d="M338.196,398.533h27.258c5.018,0,9.086-4.068,9.086-9.086l0,0c0-5.018-4.068-9.086-9.086-9.086h-27.258
					c-5.018,0-9.086,4.068-9.086,9.086l0,0C329.11,394.465,333.178,398.533,338.196,398.533z"/>
			</g>
		</g>
		<g>
			<g>
				<path class="st2" d="M340.467,434.877h27.258c5.018,0,9.086-4.068,9.086-9.086v0c0-5.018-4.068-9.086-9.086-9.086h-27.258
					c-5.018,0-9.086,4.068-9.086,9.086v0C331.381,430.809,335.449,434.877,340.467,434.877z"/>
			</g>
		</g>
		<g>
			<g>
				<path class="st2" d="M343.875,453.049h20.443c5.018,0,9.086-4.068,9.086-9.086l0,0c0-5.018-4.068-9.086-9.086-9.086h-20.443
					c-5.018,0-9.086,4.068-9.086,9.086l0,0C334.789,448.981,338.857,453.049,343.875,453.049z"/>
			</g>
		</g>
		<g>
			<g>
				<path class="st2" d="M335.584,416.705h32.482c4.83,0,8.745-3.915,8.745-8.745v-0.681c0-4.83-3.915-8.745-8.745-8.745h-32.482
					c-4.83,0-8.745,3.915-8.745,8.745v0.681C326.838,412.79,330.754,416.705,335.584,416.705z"/>
			</g>
		</g>
	</g>
</g>
</svg>
