<?xml version="1.0" encoding="utf-8"?>
<!-- Generator: Adobe Illustrator 22.0.0, SVG Export Plug-In . SVG Version: 6.00 Build 0)  -->
<svg version="1.1" id="Layer_1" xmlns="http://www.w3.org/2000/svg" xmlns:xlink="http://www.w3.org/1999/xlink" x="0px" y="0px"
	 viewBox="0 0 512 512" style="enable-background:new 0 0 512 512;" xml:space="preserve">
<style type="text/css">
	.st0{fill:#FF7B7B;}
	.st1{fill:#FFB236;}
	.st2{fill:#FFD3B3;}
	.st3{fill:#FCB98B;}
	.st4{fill:#6E83B7;}
	.st5{fill:#FFB0AA;}
	.st6{fill:#EDEFF1;}
	.st7{fill:#FFE352;}
	.st8{fill:#46BEE8;}
	.st9{fill:#9CE5FF;}
	.st10{fill:#80D6FB;}
	.st11{fill:#FFE67B;}
	.st12{fill:#F76161;}
	.st13{fill:#98CA69;}
	.st14{fill:#75AA40;}
	.st15{fill:#BFEA8C;}
	.st16{fill:#D3D3D3;}
	.st17{fill:#466089;}
	.st18{fill:#7C93BF;}
	.st19{fill:#FFC69F;}
	.st20{fill:#859CC1;}
	.st21{fill:#EFA470;}
	.st22{fill:#C1C1C1;}
	.st23{fill:#E2935D;}
	.st24{fill:#99E5FF;}
</style>
<g>
	<g>
		<g>
			<path class="st4" d="M313.674,131c0,0,17.663,15.86,0,53.349S332.419,255,332.419,255H256h-76.419
				c0,0,36.407-33.163,18.744-70.651s0-53.349,0-53.349H313.674z"/>
		</g>
	</g>
	<g>
		<g>
			<path class="st17" d="M190.749,158.944c6.726-0.551,12.935-3.768,17.27-9.032l0.097-0.119l1.962-2.793h11.155
				c1.84,0,3.627-0.757,4.905-2.077c1.254-1.295,1.913-2.989,1.855-4.769c-0.133-4.09-2.555-7.533-6.018-9.154h-23.651
				C198.326,131,188.821,139.563,190.749,158.944z"/>
		</g>
	</g>
	<g>
		<g>
			<path class="st17" d="M290.766,147h11.155l1.962,2.793l0.097,0.119c4.336,5.264,10.544,8.481,17.27,9.032
				c1.928-19.38-7.577-27.944-7.577-27.944h-23.651c-3.463,1.621-5.885,5.064-6.018,9.155c-0.058,1.779,0.602,3.473,1.855,4.768
				C287.139,146.243,288.926,147,290.766,147z"/>
		</g>
	</g>
	<g>
		<g>
			<rect x="208" y="243" class="st6" width="96" height="264"/>
		</g>
	</g>
	<g>
		<g>
			<path class="st4" d="M464.574,202.872l-86.966-80.647L337,167l66,58l-55-4l-42-3l-34,155v134h72l-12-97l12.209-61.807
				c2.521-12.765,3.791-25.746,3.791-38.757V281h85.924C458.819,281,479,260.819,479,235.924l0,0
				C479,223.379,473.772,211.402,464.574,202.872z"/>
		</g>
	</g>
	<g>
		<g>
			<path class="st4" d="M206,218l-42,3l-55,4l66-58l-40.609-44.775l-86.966,80.647C38.228,211.402,33,223.379,33,235.924l0,0
				C33,260.819,53.181,281,78.076,281H164v28.436c0,13.012,1.27,25.992,3.791,38.757L180,410l-12,97h72V373L206,218z"/>
		</g>
	</g>
	<g>
		<g>
			<polygon class="st20" points="314,279 338.061,220.29 306,218 272,373 319,332 			"/>
		</g>
	</g>
	<g>
		<g>
			<polygon class="st20" points="198,279 173.939,220.29 206,218 240,373 193,332 			"/>
		</g>
	</g>
	<g>
		<g>
			<polygon class="st2" points="256,286 289.1,217 284,211 284,175 256,175 228,175 228,211 222.9,217 			"/>
		</g>
	</g>
	<g>
		<g>
			<path class="st16" d="M256,286l-13.227-5.595c-3.532-1.472-7.593-0.799-10.462,1.732L213.2,299l-7.2-81l22-24v17l-5,6L256,286z"
				/>
		</g>
	</g>
	<g>
		<g>
			<path class="st2" d="M198.2,92h-6.598c-6.041,0-10.703,5.315-9.915,11.305l2.597,19.739c0.524,3.981,3.917,6.956,7.932,6.956
				h5.984V92z"/>
		</g>
	</g>
	<g>
		<g>
			<path class="st3" d="M228,175v18.852c8.598,3.936,18.143,6.148,28.2,6.148c9.902,0,19.306-2.145,27.8-5.967V175h-28H228z"/>
		</g>
	</g>
	<g>
		<g>
			<path class="st2" d="M314.2,132c0,32.033-25.967,58-58,58s-58-25.967-58-58V56h116V132z"/>
		</g>
	</g>
	<g>
		<g>
			<path class="st4" d="M321.2,70v22h-26.29l-5.71-15l-5.71,15h-21.58l-5.71-15l-5.71,15h-21.58l-5.71-15l-5.71,15H191.2V70
				c0-35.898,29.101-65,65-65h0C292.099,5,321.2,34.101,321.2,70z"/>
		</g>
	</g>
	<g>
		<g>
			<polygon class="st4" points="198.2,131 208.2,92 198.2,92 			"/>
		</g>
	</g>
	<g>
		<g>
			<polygon class="st3" points="259.2,149 249.358,149 253.29,133.272 259.111,134.728 257.042,143 259.2,143 			"/>
		</g>
	</g>
	<g>
		<g>
			<path class="st3" d="M256.2,168c-6.188,0-10.306-2.292-10.479-2.39l2.957-5.221c0.011,0.006,2.996,1.61,7.521,1.61
				c4.551,0,7.493-1.595,7.521-1.61l2.957,5.221C266.506,165.708,262.388,168,256.2,168z"/>
		</g>
	</g>
	<g>
		<g>
			<path class="st19" d="M284.2,142h-10c-2.209,0-4-1.791-4-4l0,0c0-2.209,1.791-4,4-4h10c2.209,0,4,1.791,4,4l0,0
				C288.2,140.209,286.409,142,284.2,142z"/>
		</g>
	</g>
	<g>
		<g>
			<path class="st19" d="M228.2,142h10c2.209,0,4-1.791,4-4l0,0c0-2.209-1.791-4-4-4h-10c-2.209,0-4,1.791-4,4l0,0
				C224.2,140.209,225.991,142,228.2,142z"/>
		</g>
	</g>
	<g>
		<g>
			<path class="st2" d="M314.2,92h6.598c6.041,0,10.703,5.315,9.915,11.305l-2.597,19.739c-0.524,3.981-3.917,6.956-7.932,6.956
				H314.2V92z"/>
		</g>
	</g>
	<g>
		<g>
			<polygon class="st4" points="314.2,131 304.2,92 314.2,92 			"/>
		</g>
	</g>
	<g>
		<g>
			<path class="st16" d="M256,286l13.227-5.595c3.532-1.472,7.593-0.799,10.462,1.732L298.8,299l7.2-81l-22-24v17l5,6L256,286z"/>
		</g>
	</g>
	<g>
		<g>
			<g>
				<path class="st2" d="M196,83h-6.95c-5.916,0-10.539,5.108-9.95,10.995l2,20c0.511,5.112,4.813,9.005,9.95,9.005H196V83z"/>
			</g>
		</g>
		<g>
			<g>
				<path class="st2" d="M316,83h6.95c5.916,0,10.539,5.108,9.95,10.995l-2,20c-0.511,5.112-4.813,9.005-9.95,9.005H316V83z"/>
			</g>
		</g>
		<g>
			<g>
				<g>
					<path class="st3" d="M314.2,119.655L309.028,130H294.5c-5.699,0-10.309,4.46-10.495,10.155
						c-0.058,1.779,0.602,3.473,1.855,4.768c1.278,1.32,3.065,2.077,4.905,2.077h11.155l1.962,2.793l0.097,0.119
						c1.606,1.95,3.473,3.612,5.523,4.97c3.018-7.021,4.696-14.755,4.696-22.882V119.655z"/>
				</g>
			</g>
		</g>
		<g>
			<g>
				<path class="st17" d="M318.808,74.42c-3.729-2.237-7.999-3.42-12.348-3.42h-19.336c-2.862,0-5.618,0.861-7.969,2.489
					l-5.332,3.691c-2.265,1.568-3.78,4.032-4.158,6.761c-0.377,2.728,0.413,5.512,2.168,7.638c0.122,0.148,0.259,0.281,0.389,0.42
					h11.268l5.71-15l5.71,15h26.29V75.855L318.808,74.42z"/>
			</g>
		</g>
		<g>
			<g>
				<path class="st2" d="M276.1,80.469l5.332-3.691C283.104,75.62,285.09,75,287.124,75h19.337c3.625,0,7.181,0.985,10.29,2.85
					l12.102,7.262c2.081,1.249,3.917,2.866,5.419,4.772L358,120l-22,33l-8.744,1.666c-7.557,1.439-15.297-1.358-20.187-7.296
					L304,143h-13.234c-1.507,0-2.812-1.209-2.763-2.715c0.114-3.49,2.979-6.285,6.496-6.285h17l8.5-17l-3.202-13.448
					c-1.118-4.696-4.584-8.481-9.163-10.007l-13.772-4.591c-3.721-1.24-7.799-0.793-11.162,1.225l0,0
					c-2.536,1.521-5.9,1.134-7.783-1.147C272.72,86.371,273.282,82.42,276.1,80.469z"/>
			</g>
		</g>
		<g>
			<g>
				<polygon class="st6" points="327.344,154.177 339.265,164.502 374.097,126.097 361.361,115.123 				"/>
			</g>
		</g>
		<g>
			<g>
				<g>
					<path class="st3" d="M226.139,144.923c1.254-1.295,1.913-2.989,1.855-4.769C227.809,134.46,223.199,130,217.5,130h-14.528
						l-4.772-9.543V132c0,8.049,1.642,15.713,4.605,22.68c1.93-1.32,3.688-2.916,5.214-4.768l0.097-0.119l1.962-2.793h11.155
						C223.074,147,224.861,146.243,226.139,144.923z"/>
				</g>
			</g>
		</g>
		<g>
			<g>
				<path class="st17" d="M238.177,77.18l-5.332-3.69c-2.352-1.629-5.108-2.49-7.97-2.49H205.54c-4.349,0-8.618,1.183-12.348,3.42
					l-1.991,1.195V92h26.29l5.71-15l5.71,15h10.867c0.13-0.14,0.267-0.272,0.389-0.42c1.756-2.126,2.546-4.91,2.168-7.638
					C241.957,81.212,240.442,78.749,238.177,77.18z"/>
			</g>
		</g>
		<g>
			<g>
				<path class="st2" d="M235.9,80.469l-5.332-3.691C228.896,75.62,226.91,75,224.876,75h-19.337c-3.625,0-7.181,0.985-10.29,2.85
					l-12.102,7.262c-2.081,1.249-3.917,2.866-5.419,4.772L154,120l22,33l8.744,1.666c7.557,1.439,15.297-1.358,20.187-7.296L208,143
					h13.234c1.507,0,2.812-1.209,2.763-2.715c-0.114-3.49-2.979-6.285-6.497-6.285h-17l-8.5-17l3.202-13.448
					c1.118-4.696,4.584-8.481,9.163-10.007l13.772-4.591c3.721-1.24,7.799-0.793,11.162,1.225v0c2.536,1.521,5.9,1.134,7.783-1.147
					C239.28,86.371,238.718,82.42,235.9,80.469z"/>
			</g>
		</g>
		<g>
			<g>
				<polygon class="st6" points="184.656,154.177 172.735,164.502 137.903,126.097 150.639,115.123 				"/>
			</g>
		</g>
		<g>
			<g>
				<g>
					<polygon class="st17" points="256,92 231,92 231,117 247,117 256,111 265,117 281,117 281,92 					"/>
				</g>
			</g>
			<g>
				<g>
					<circle class="st4" cx="292" cy="117" r="30"/>
				</g>
			</g>
			<g>
				<g>
					<circle class="st10" cx="292" cy="117" r="22"/>
				</g>
			</g>
			<g>
				<g>
					<circle class="st4" cx="256" cy="97" r="7"/>
				</g>
			</g>
			<g>
				<g>
					<circle class="st4" cx="220" cy="117" r="30"/>
				</g>
			</g>
			<g>
				<g>
					<circle class="st10" cx="220" cy="117" r="22"/>
				</g>
			</g>
		</g>
	</g>
</g>
</svg>
