<svg id="Layer_1" data-name="Layer 1" xmlns="http://www.w3.org/2000/svg" viewBox="0 0 128 128"><title>BBQ</title><rect x="18.743" y="26.513" width="90.514" height="9.068" style="fill:#596675"/><path d="M25.761,35.581h76.478a0,0,0,0,1,0,0V51.83a15,15,0,0,1-15,15H40.761a15,15,0,0,1-15-15V35.581A0,0,0,0,1,25.761,35.581Z" style="fill:#596675"/><polygon points="83.796 126.25 95.499 126.25 85.948 66.83 74.244 66.83 83.796 126.25" style="fill:#596675"/><polygon points="76.949 83.654 51.051 83.654 49.805 91.409 78.195 91.409 76.949 83.654" style="fill:#ffca28"/><path d="M39.619,102.148A12.051,12.051,0,1,0,51.671,114.2,12.051,12.051,0,0,0,39.619,102.148Zm0,15.583a3.532,3.532,0,1,1,3.532-3.532A3.532,3.532,0,0,1,39.619,117.731Z" style="fill:#373f47"/><polygon points="55.103 83.654 51.052 83.654 49.805 91.409 53.856 91.409 55.103 83.654" style="fill:#ff8f00"/><polygon points="72.897 83.654 76.948 83.654 78.195 91.409 74.144 91.409 72.897 83.654" style="fill:#ff8f00"/><path d="M39.619,102.148a11.991,11.991,0,0,1,7.972,3.03L53.756,66.83h-11.7L36.3,102.622A12.033,12.033,0,0,1,39.619,102.148Z" style="fill:#596675"/><path d="M36.724,20.083a1.75,1.75,0,0,1-1.75-1.75,5.865,5.865,0,0,1,1.333-3.791,2.6,2.6,0,0,0,0-3.477,5.863,5.863,0,0,1-1.332-3.79,5.861,5.861,0,0,1,1.333-3.789,2.461,2.461,0,0,0,.667-1.736,1.75,1.75,0,0,1,3.5,0,5.861,5.861,0,0,1-1.333,3.789,2.461,2.461,0,0,0-.667,1.736,2.467,2.467,0,0,0,.668,1.739,5.863,5.863,0,0,1,1.332,3.79,5.862,5.862,0,0,1-1.332,3.789,2.467,2.467,0,0,0-.668,1.739A1.75,1.75,0,0,1,36.724,20.083Z" style="fill:#eaeaea"/><path d="M49.862,20.083a1.75,1.75,0,0,1-1.75-1.75,5.865,5.865,0,0,1,1.333-3.791,2.6,2.6,0,0,0,0-3.477,5.863,5.863,0,0,1-1.332-3.79,5.861,5.861,0,0,1,1.333-3.789,2.461,2.461,0,0,0,.667-1.736,1.75,1.75,0,0,1,3.5,0,5.861,5.861,0,0,1-1.333,3.789,2.461,2.461,0,0,0-.667,1.736,2.467,2.467,0,0,0,.668,1.739,5.863,5.863,0,0,1,1.332,3.79,5.862,5.862,0,0,1-1.332,3.789,2.467,2.467,0,0,0-.668,1.739A1.75,1.75,0,0,1,49.862,20.083Z" style="fill:#eaeaea"/><path d="M63,20.083a1.75,1.75,0,0,1-1.75-1.75,5.865,5.865,0,0,1,1.333-3.791,2.6,2.6,0,0,0,0-3.477,5.863,5.863,0,0,1-1.332-3.79,5.861,5.861,0,0,1,1.333-3.789A2.461,2.461,0,0,0,63.25,1.75a1.75,1.75,0,0,1,3.5,0,5.861,5.861,0,0,1-1.333,3.789,2.461,2.461,0,0,0-.667,1.736,2.467,2.467,0,0,0,.668,1.739A5.863,5.863,0,0,1,66.75,12.8a5.862,5.862,0,0,1-1.332,3.789,2.467,2.467,0,0,0-.668,1.739A1.75,1.75,0,0,1,63,20.083Z" style="fill:#eaeaea"/><path d="M76.138,20.083a1.75,1.75,0,0,1-1.75-1.75,5.865,5.865,0,0,1,1.333-3.791,2.6,2.6,0,0,0,0-3.477,5.863,5.863,0,0,1-1.332-3.79,5.861,5.861,0,0,1,1.333-3.789,2.461,2.461,0,0,0,.667-1.736,1.75,1.75,0,0,1,3.5,0,5.861,5.861,0,0,1-1.333,3.789,2.461,2.461,0,0,0-.667,1.736,2.467,2.467,0,0,0,.668,1.739,5.863,5.863,0,0,1,1.332,3.79,5.862,5.862,0,0,1-1.332,3.789,2.467,2.467,0,0,0-.668,1.739A1.75,1.75,0,0,1,76.138,20.083Z" style="fill:#eaeaea"/><path d="M89.276,20.083a1.75,1.75,0,0,1-1.75-1.75,5.865,5.865,0,0,1,1.333-3.791,2.6,2.6,0,0,0,0-3.477,5.863,5.863,0,0,1-1.332-3.79,5.861,5.861,0,0,1,1.333-3.789,2.461,2.461,0,0,0,.667-1.736,1.75,1.75,0,0,1,3.5,0,5.861,5.861,0,0,1-1.333,3.789,2.461,2.461,0,0,0-.667,1.736,2.467,2.467,0,0,0,.668,1.739,5.863,5.863,0,0,1,1.332,3.79,5.862,5.862,0,0,1-1.332,3.789,2.467,2.467,0,0,0-.668,1.739A1.75,1.75,0,0,1,89.276,20.083Z" style="fill:#eaeaea"/><rect x="41.374" y="35.581" width="45.252" height="18.419" style="fill:#ffca28"/><path d="M78.2,46.54H51a1.75,1.75,0,0,1,0-3.5H78.2a1.75,1.75,0,0,1,0,3.5Z" style="fill:#ff8f00"/><polygon points="85.948 66.83 74.244 66.83 74.887 70.83 86.591 70.83 85.948 66.83" style="fill:#373f47"/><polygon points="42.052 66.83 53.756 66.83 53.113 70.83 41.409 70.83 42.052 66.83" style="fill:#373f47"/><rect x="25.761" y="35.581" width="76.478" height="4" style="fill:#373f47"/><rect x="41.409" y="35.581" width="45.182" height="4" style="fill:#ff8f00"/><path d="M109.257,24.763H47.582a1.75,1.75,0,0,0,0,3.5h59.925v5.568H20.493V28.263H28a1.75,1.75,0,0,0,0-3.5H18.743a1.75,1.75,0,0,0-1.75,1.75v9.068a1.75,1.75,0,0,0,1.75,1.75h5.268v14.5A16.756,16.756,0,0,0,40,68.542l-5.267,32.764a13.8,13.8,0,1,0,14.728,3.24L51.3,93.159H76.7l5.364,33.368A1.751,1.751,0,0,0,83.8,128H95.5a1.75,1.75,0,0,0,1.728-2.027L92.1,94.1a1.75,1.75,0,0,0-3.456.555l4.8,29.841H85.287L79.924,91.136v0l-1.247-7.756,0-.006L76.3,68.58h8.159l2.3,14.295a1.75,1.75,0,0,0,3.456-.555L88,68.542A16.756,16.756,0,0,0,103.989,51.83v-14.5h5.268a1.75,1.75,0,0,0,1.75-1.75V26.513A1.75,1.75,0,0,0,109.257,24.763ZM84.876,37.331V52.25H43.124V37.331ZM38.42,100.451,43.543,68.58H51.7L49.324,83.372v0l-1.247,7.756h0l-1.769,11A13.9,13.9,0,0,0,38.42,100.451Zm1.2,24.049a10.3,10.3,0,1,1,2.28-20.34A10.423,10.423,0,0,1,49.92,114.2,10.313,10.313,0,0,1,39.62,124.5ZM51.859,89.659l.684-4.256H75.457l.684,4.256ZM74.894,81.9H53.105L55.247,68.58H72.753ZM100.489,51.83a13.265,13.265,0,0,1-13.25,13.25H40.761a13.265,13.265,0,0,1-13.25-13.25v-14.5H39.624V54a1.75,1.75,0,0,0,1.75,1.75H86.626A1.75,1.75,0,0,0,88.376,54V37.331h12.113Z"/><path d="M36.333,28.263H39.25a1.75,1.75,0,0,0,0-3.5H36.333a1.75,1.75,0,0,0,0,3.5Z"/><path d="M39.62,108.917A5.282,5.282,0,1,0,44.9,114.2,5.288,5.288,0,0,0,39.62,108.917Zm0,7.064A1.782,1.782,0,1,1,41.4,114.2,1.784,1.784,0,0,1,39.62,115.981Z"/><path d="M34.974,18.333a1.75,1.75,0,0,0,3.5,0,2.467,2.467,0,0,1,.668-1.739A5.862,5.862,0,0,0,40.474,12.8a5.863,5.863,0,0,0-1.332-3.79,2.467,2.467,0,0,1-.668-1.739,2.461,2.461,0,0,1,.667-1.736A5.861,5.861,0,0,0,40.474,1.75a1.75,1.75,0,0,0-3.5,0,2.461,2.461,0,0,1-.667,1.736,5.861,5.861,0,0,0-1.333,3.789,5.863,5.863,0,0,0,1.332,3.79,2.6,2.6,0,0,1,0,3.477A5.865,5.865,0,0,0,34.974,18.333Z"/><path d="M48.112,18.333a1.75,1.75,0,0,0,3.5,0,2.467,2.467,0,0,1,.668-1.739A5.862,5.862,0,0,0,53.612,12.8a5.863,5.863,0,0,0-1.332-3.79,2.467,2.467,0,0,1-.668-1.739,2.461,2.461,0,0,1,.667-1.736A5.861,5.861,0,0,0,53.612,1.75a1.75,1.75,0,0,0-3.5,0,2.461,2.461,0,0,1-.667,1.736,5.861,5.861,0,0,0-1.333,3.789,5.863,5.863,0,0,0,1.332,3.79,2.6,2.6,0,0,1,0,3.477A5.865,5.865,0,0,0,48.112,18.333Z"/><path d="M61.25,18.333a1.75,1.75,0,0,0,3.5,0,2.467,2.467,0,0,1,.668-1.739A5.862,5.862,0,0,0,66.75,12.8a5.863,5.863,0,0,0-1.332-3.79,2.467,2.467,0,0,1-.668-1.739,2.461,2.461,0,0,1,.667-1.736A5.861,5.861,0,0,0,66.75,1.75a1.75,1.75,0,0,0-3.5,0,2.461,2.461,0,0,1-.667,1.736A5.861,5.861,0,0,0,61.25,7.275a5.863,5.863,0,0,0,1.332,3.79,2.6,2.6,0,0,1,0,3.477A5.865,5.865,0,0,0,61.25,18.333Z"/><path d="M74.388,18.333a1.75,1.75,0,0,0,3.5,0,2.467,2.467,0,0,1,.668-1.739A5.862,5.862,0,0,0,79.888,12.8a5.863,5.863,0,0,0-1.332-3.79,2.467,2.467,0,0,1-.668-1.739,2.461,2.461,0,0,1,.667-1.736A5.861,5.861,0,0,0,79.888,1.75a1.75,1.75,0,0,0-3.5,0,2.461,2.461,0,0,1-.667,1.736,5.861,5.861,0,0,0-1.333,3.789,5.863,5.863,0,0,0,1.332,3.79,2.6,2.6,0,0,1,0,3.477A5.865,5.865,0,0,0,74.388,18.333Z"/><path d="M87.526,18.333a1.75,1.75,0,0,0,3.5,0,2.467,2.467,0,0,1,.668-1.739A5.862,5.862,0,0,0,93.026,12.8a5.863,5.863,0,0,0-1.332-3.79,2.467,2.467,0,0,1-.668-1.739,2.461,2.461,0,0,1,.667-1.736A5.861,5.861,0,0,0,93.026,1.75a1.75,1.75,0,0,0-3.5,0,2.461,2.461,0,0,1-.667,1.736,5.861,5.861,0,0,0-1.333,3.789,5.863,5.863,0,0,0,1.332,3.79,2.6,2.6,0,0,1,0,3.477A5.865,5.865,0,0,0,87.526,18.333Z"/><path d="M51,46.54H78.2a1.75,1.75,0,0,0,0-3.5H51a1.75,1.75,0,0,0,0,3.5Z"/></svg>