<svg id="Layer_1" data-name="Layer 1" xmlns="http://www.w3.org/2000/svg" viewBox="0 0 128 128"><title>BEE</title><path d="M27.625,88.493a1.75,1.75,0,0,1-.617-3.388l6.1-2.295L35.717,75.1a1.75,1.75,0,0,1,.794-.961L52.538,65.04a1.75,1.75,0,1,1,1.728,3.044L38.819,76.849l-2.661,7.868a1.749,1.749,0,0,1-1.042,1.077l-6.875,2.586A1.74,1.74,0,0,1,27.625,88.493Z" style="fill:#596675"/><path d="M37.5,106.549a1.75,1.75,0,0,1-1.186-3.038L40.2,99.937l-.568-8.413a1.749,1.749,0,0,1,.406-1.243L51.346,76.808a1.75,1.75,0,1,1,2.681,2.25L43.168,91.992l.578,8.546a1.75,1.75,0,0,1-.561,1.406l-4.5,4.143A1.742,1.742,0,0,1,37.5,106.549Z" style="fill:#596675"/><path d="M45.712,84.766c-.01-.246-.012-.5-.012-.744,0-.171.017-.342.02-.513l5.871-6.993a1.75,1.75,0,0,1,2.681,2.25L46.06,88.548A31.2,31.2,0,0,1,45.712,84.766Z" style="fill:#373f47"/><path d="M49.506,67.837c-.154-.272-.3-.55-.434-.83l3.465-1.966a1.75,1.75,0,0,1,1.728,3.044L48.248,71.5Z" style="fill:#373f47"/><path d="M100.375,88.493a1.74,1.74,0,0,1-.616-.113l-6.875-2.586a1.749,1.749,0,0,1-1.042-1.077l-2.661-7.868L73.734,68.084a1.75,1.75,0,0,1,1.728-3.044l16.027,9.094a1.75,1.75,0,0,1,.794.961l2.609,7.714,6.1,2.295a1.75,1.75,0,0,1-.617,3.388Z" style="fill:#596675"/><path d="M90.5,106.549a1.742,1.742,0,0,1-1.185-.462l-4.5-4.143a1.75,1.75,0,0,1-.561-1.406l.578-8.546-11.1-13.226a1.75,1.75,0,1,1,2.681-2.25L87.965,90.281a1.749,1.749,0,0,1,.406,1.243L87.8,99.937l3.882,3.574a1.75,1.75,0,0,1-1.186,3.038Z" style="fill:#596675"/><path d="M82.288,84.766c.01-.246.012-.5.012-.744,0-.171-.017-.342-.02-.513l-5.871-6.993a1.75,1.75,0,1,0-2.681,2.25l8.212,9.782A31.2,31.2,0,0,0,82.288,84.766Z" style="fill:#373f47"/><path d="M78.494,67.837c.154-.272.3-.55.434-.83L75.462,65.04a1.75,1.75,0,0,0-1.728,3.044L79.752,71.5Z" style="fill:#373f47"/><path d="M69.317,45.34a1.75,1.75,0,0,1-1.032-3.164L83.609,31.007l1.28-10.071a1.748,1.748,0,0,1,.591-1.1l4.625-4a1.75,1.75,0,1,1,2.289,2.647l-4.118,3.562L86.986,32.2a1.749,1.749,0,0,1-.705,1.193L70.346,45A1.74,1.74,0,0,1,69.317,45.34Z" style="fill:#596675"/><path d="M58.683,45.34A1.74,1.74,0,0,1,57.654,45L41.719,33.391a1.749,1.749,0,0,1-.705-1.193L39.724,22.042,35.605,18.48a1.75,1.75,0,1,1,2.289-2.647l4.625,4a1.748,1.748,0,0,1,.591,1.1l1.28,10.071L59.715,42.176a1.75,1.75,0,0,1-1.032,3.164Z" style="fill:#596675"/><path d="M57.654,45a1.75,1.75,0,0,0,2.062-2.828L53.7,37.795a15.352,15.352,0,0,0-2.63,2.414Z" style="fill:#373f47"/><path d="M74.3,37.795l-6.012,4.381A1.75,1.75,0,1,0,70.346,45l6.581-4.8A15.352,15.352,0,0,0,74.3,37.795Z" style="fill:#373f47"/><path d="M58.873,32.746A1.75,1.75,0,0,1,57.123,31v-7.51a12.46,12.46,0,0,0-4.09-9.221,1.75,1.75,0,0,1,2.35-2.595,15.969,15.969,0,0,1,5.241,11.815V31A1.75,1.75,0,0,1,58.873,32.746Z" style="fill:#596675"/><path d="M69.127,32.746A1.75,1.75,0,0,1,67.377,31v-7.51a15.969,15.969,0,0,1,5.241-11.815,1.75,1.75,0,0,1,2.35,2.595,12.46,12.46,0,0,0-4.09,9.221V31A1.75,1.75,0,0,1,69.127,32.746Z" style="fill:#596675"/><path d="M64,116.781a1.75,1.75,0,0,1-1.75-1.75V104.8a1.75,1.75,0,0,1,3.5,0v10.232A1.75,1.75,0,0,1,64,116.781Z" style="fill:#596675"/><path d="M119.864,34.807,73.411,42.27a11.2,11.2,0,0,1,3.214,7.863v4.524h9.949a75.56,75.56,0,0,0,36.852-9.6,5.511,5.511,0,0,0-3.562-10.253Z" style="fill:#eaeaea"/><path d="M115.606,54.656H76.625V59.7a12.579,12.579,0,0,1-.721,4.131l24.5,3.191A25.592,25.592,0,0,0,118.115,62.8a4.456,4.456,0,0,0-2.509-8.139Z" style="fill:#eaeaea"/><path d="M8.136,34.807,54.589,42.27a11.2,11.2,0,0,0-3.214,7.863v4.524H41.425a75.56,75.56,0,0,1-36.852-9.6A5.511,5.511,0,0,1,8.136,34.807Z" style="fill:#eaeaea"/><path d="M12.394,54.656H51.375V59.7a12.579,12.579,0,0,0,.721,4.131L27.6,67.023A25.592,25.592,0,0,1,9.885,62.8a4.456,4.456,0,0,1,2.509-8.139Z" style="fill:#eaeaea"/><path d="M41.425,58.656h9.949v-4H16.533A79.7,79.7,0,0,0,41.425,58.656Z" style="fill:#d2d2d2"/><path d="M86.575,58.656H76.625v-4h34.842A79.7,79.7,0,0,1,86.575,58.656Z" style="fill:#d2d2d2"/><path d="M69.731,38.891H58.269c-2,0-3.614-2.186-3.614-4.883h0a5.339,5.339,0,0,1,1.879-4.283l5.282-3.907a3.537,3.537,0,0,1,4.369,0l5.282,3.907a5.339,5.339,0,0,1,1.879,4.283h0C73.345,36.7,71.727,38.891,69.731,38.891Z" style="fill:#596675"/><path d="M70.562,70.487h0a12.625,12.625,0,0,1-13.124,0h0A12.625,12.625,0,0,1,51.375,59.7V50.132A11.241,11.241,0,0,1,62.616,38.891h2.768A11.241,11.241,0,0,1,76.625,50.132V59.7A12.625,12.625,0,0,1,70.562,70.487Z" style="fill:#596675"/><path d="M78.3,84.021c0,.2,0,.41-.01.61a26.493,26.493,0,0,1-1.94,9.41c-.33.8-.69,1.59-1.09,2.36-.37.71-.77,1.4-1.2,2.06a26.627,26.627,0,0,1-5.02,5.78L64,108.591l-5.04-4.35a26.627,26.627,0,0,1-5.02-5.78c-.43-.66-.83-1.35-1.2-2.06-.4-.77-.76-1.56-1.09-2.36a26.493,26.493,0,0,1-1.94-9.41,27.432,27.432,0,0,1,.32-4.78,25.673,25.673,0,0,1,.9-3.81c.07-.23.14-.45.22-.68l2.77-8.06a12.819,12.819,0,0,0,3.52,3.19,12.614,12.614,0,0,0,13.12,0,12.819,12.819,0,0,0,3.52-3.19l2.77,8.06c.08.23.15.45.22.68a25.673,25.673,0,0,1,.9,3.81A26.537,26.537,0,0,1,78.3,84.021Z" style="fill:#ffca28"/><path d="M76.35,94.041c-.33.8-.69,1.59-1.09,2.36-.37.71-.77,1.4-1.2,2.06a38.994,38.994,0,0,1-20.12,0c-.43-.66-.83-1.35-1.2-2.06-.4-.77-.76-1.56-1.09-2.36l1.58.57a35.665,35.665,0,0,0,21.54,0Z" style="fill:#ff8f00"/><path d="M78.29,84.631a27.317,27.317,0,0,1-.43,4.23,31.264,31.264,0,0,1-27.72,0,27.317,27.317,0,0,1-.43-4.23l.98.58a27.824,27.824,0,0,0,26.62,0Z" style="fill:#ff8f00"/><path d="M77.97,79.851a23.637,23.637,0,0,1-27.94,0,25.673,25.673,0,0,1,.9-3.81l.6.55a20.121,20.121,0,0,0,24.94,0l.6-.55A25.673,25.673,0,0,1,77.97,79.851Z" style="fill:#ff8f00"/><path d="M64,76.326A16.629,16.629,0,0,0,72.641,73.9a16.414,16.414,0,0,0,2.924-2.281L74.08,67.3a12.819,12.819,0,0,1-3.52,3.19,12.614,12.614,0,0,1-13.12,0,12.819,12.819,0,0,1-3.52-3.19l-1.485,4.322A16.414,16.414,0,0,0,55.359,73.9,16.626,16.626,0,0,0,64,76.326Z" style="fill:#ff8f00"/><path d="M65.384,34.891H62.616a15.142,15.142,0,0,0-7.323,1.881,3.474,3.474,0,0,0,2.976,2.119H69.731a3.474,3.474,0,0,0,2.976-2.119A15.142,15.142,0,0,0,65.384,34.891Z" style="fill:#373f47"/><path d="M92.714,39.169a1.75,1.75,0,0,0,1.726,1.473,1.7,1.7,0,0,0,.28-.023l1.308-.21a1.75,1.75,0,0,0-.556-3.455l-1.308.21A1.749,1.749,0,0,0,92.714,39.169Z"/><path d="M125.448,34.722a7.251,7.251,0,0,0-5.861-1.642l-17.1,2.748a1.75,1.75,0,1,0,.555,3.456l17.105-2.748a3.761,3.761,0,0,1,2.431,7,73.98,73.98,0,0,1-36,9.374h-8.2c0-3.295-.056-6.429-1.8-9.373l10.565-1.7a1.75,1.75,0,1,0-.555-3.456l-9.173,1.473,8.868-6.464a1.749,1.749,0,0,0,.705-1.193l1.291-10.155,4.118-3.562a1.75,1.75,0,1,0-2.289-2.647l-4.625,4a1.748,1.748,0,0,0-.591,1.1l-1.28,10.071-9.558,6.966A7.744,7.744,0,0,0,75.1,34.008a7.1,7.1,0,0,0-2.588-5.69l-1.629-1.205V23.487a12.46,12.46,0,0,1,4.09-9.221,1.75,1.75,0,0,0-2.35-2.595,15.969,15.969,0,0,0-5.241,11.816v1.036l-.152-.113a5.263,5.263,0,0,0-6.45,0l-.153.113V23.487a15.969,15.969,0,0,0-5.241-11.816,1.75,1.75,0,1,0-2.35,2.595,12.46,12.46,0,0,1,4.09,9.221v3.625l-1.629,1.205a7.1,7.1,0,0,0-2.588,5.69,7.744,7.744,0,0,0,1.044,3.965l-9.558-6.966-1.28-10.071a1.748,1.748,0,0,0-.591-1.1l-4.625-4a1.75,1.75,0,1,0-2.289,2.647l4.118,3.562L41.014,32.2a1.749,1.749,0,0,0,.705,1.193l8.868,6.464L8.413,33.08A7.262,7.262,0,0,0,3.72,46.588a77.251,77.251,0,0,0,14.759,6.318H12.394A6.206,6.206,0,0,0,8.9,64.242a27.321,27.321,0,0,0,18.926,4.516,1.75,1.75,0,1,0-.452-3.471,23.8,23.8,0,0,1-16.5-3.938,2.706,2.706,0,0,1,1.523-4.943H49.625a31.793,31.793,0,0,0,.255,5.949L35.2,64.269a1.75,1.75,0,1,0,.452,3.471l15.326-2c.023.049.042.1.065.147L36.511,74.135a1.75,1.75,0,0,0-.794.961l-2.609,7.714-6.1,2.294a1.751,1.751,0,0,0-1.022,2.254,1.771,1.771,0,0,0,2.254,1.022l6.875-2.586a1.751,1.751,0,0,0,1.042-1.078l2.661-7.868L51.2,69.822,49.5,74.793a28.26,28.26,0,0,0-1.323,5.794l-8.139,9.7a1.749,1.749,0,0,0-.406,1.243l.568,8.413-3.882,3.574a1.75,1.75,0,0,0-.1,2.473,1.773,1.773,0,0,0,2.473.1l4.5-4.142a1.75,1.75,0,0,0,.561-1.406l-.578-8.546,4.878-5.811a28.382,28.382,0,0,0,9.766,19.384l4.437,3.83v5.636a1.75,1.75,0,0,0,3.5,0V109.4l4.437-3.83a28.382,28.382,0,0,0,9.766-19.384l4.878,5.811-.578,8.546a1.75,1.75,0,0,0,.561,1.406l4.5,4.142a1.773,1.773,0,0,0,2.473-.1,1.75,1.75,0,0,0-.1-2.473L87.8,99.938l.568-8.413a1.749,1.749,0,0,0-.406-1.243l-8.139-9.7a28.356,28.356,0,0,0-.552-3.116h0c-.213-.9-.468-1.8-.77-2.678L76.8,69.822,89.181,76.85l2.661,7.868a1.751,1.751,0,0,0,1.042,1.078l6.875,2.586a1.771,1.771,0,0,0,2.254-1.022,1.751,1.751,0,0,0-1.022-2.254l-6.1-2.294L92.283,75.1a1.75,1.75,0,0,0-.794-.961L76.96,65.89c.023-.048.043-.1.065-.147l23.149,3.015A27.321,27.321,0,0,0,119.1,64.242a6.206,6.206,0,0,0-3.494-11.335h-6.085a77.251,77.251,0,0,0,14.759-6.318,7.262,7.262,0,0,0,1.167-11.867ZM74.094,94.8a35.68,35.68,0,0,1-20.188,0,24.857,24.857,0,0,1-1.777-5.047,31.147,31.147,0,0,0,23.742,0A24.857,24.857,0,0,1,74.094,94.8Zm2.385-9.168a27.679,27.679,0,0,1-24.958,0,25.1,25.1,0,0,1,.135-4.706,23.533,23.533,0,0,0,24.689,0A25.1,25.1,0,0,1,76.479,85.63ZM64,80.922a19.876,19.876,0,0,1-11.6-3.694c.123-.435.256-.869.4-1.3l1.827-5.323a14.5,14.5,0,0,0,18.731,0l1.827,5.323c.148.43.281.863.4,1.3A19.876,19.876,0,0,1,64,80.922ZM53.125,50.132a9.6,9.6,0,0,1,9.491-9.491h2.769a9.583,9.583,0,0,1,8.121,4.6c1.357,2.249,1.37,4.634,1.37,7.153v4.29c0,2.3.116,4.569-.7,6.77a10.827,10.827,0,0,1-19.112,2.413,12.214,12.214,0,0,1-1.939-7.111Zm4.45-19,5.283-3.907a1.8,1.8,0,0,1,2.287,0l5.282,3.908A3.637,3.637,0,0,1,71.6,34.008c0,1.793-.984,3.133-1.865,3.133H58.27c-.88,0-1.865-1.34-1.865-3.133A3.639,3.639,0,0,1,57.574,31.131ZM41.425,52.907a73.98,73.98,0,0,1-36-9.374,3.76,3.76,0,0,1,2.431-7h0l43.566,7c-1.744,2.943-1.8,6.079-1.8,9.373ZM67.9,102.916,64,106.283l-3.9-3.367a24.885,24.885,0,0,1-3.585-3.854,39.189,39.189,0,0,0,14.97,0A24.885,24.885,0,0,1,67.9,102.916Zm47.707-46.509a2.706,2.706,0,0,1,1.523,4.943,23.828,23.828,0,0,1-16.5,3.938L78.121,62.356a31.793,31.793,0,0,0,.255-5.949h37.231Z"/></svg>