<svg id="Layer_1" data-name="Layer 1" xmlns="http://www.w3.org/2000/svg" viewBox="0 0 128 128"><title>BIRD</title><path d="M105.257,24.521a12.952,12.952,0,0,0-9.456-3.8L87.667,10.25v9.333l-7-.417,5.78,5.78L72.8,38.6l-.3-1.345A30,30,0,0,0,43.2,13.684H1.75L3.094,19.8A50.218,50.218,0,0,0,52.143,59.25h0l-12.1,12.1L1.75,78.917l38.3,38.833,9.707-38.816a34.955,34.955,0,0,0,41.792-6.712,19.308,19.308,0,0,0,.343-26.263l7.78-7.78a40.557,40.557,0,0,0,15.556,7.095l11.025,2.414Z" style="fill:#eaeaea"/><path d="M88.806,49.043a19.293,19.293,0,0,1,.383,25.424c.81-.707,1.6-1.449,2.358-2.244a19.308,19.308,0,0,0,.343-26.263Z" style="fill:#d2d2d2"/><path d="M40.117,16.768a30,30,0,0,1,29.3,23.566l.3,1.345L72.8,38.6l-.3-1.345A30,30,0,0,0,43.2,13.684H1.75l.677,3.083Z" style="fill:#d2d2d2"/><path d="M115.225,45.274l11.025,2.414L114.157,34.342l-7.24-.426-1.567,7.8A40.547,40.547,0,0,0,115.225,45.274Z" style="fill:#ffca28"/><path d="M94.113,22.413a12.952,12.952,0,0,1,9.456,3.8l18.668,20.6,4.013.878L105.257,24.521a12.952,12.952,0,0,0-9.456-3.8L87.667,10.25v3.861Z" style="fill:#d2d2d2"/><polygon points="112.469 36.03 122.237 46.809 126.25 47.688 114.157 34.342 106.917 33.917 106.562 35.682 112.469 36.03" style="fill:#ff8f00"/><path d="M64.983,43.455a1.751,1.751,0,0,0,.172-1.2l-.712-3.239a21.463,21.463,0,0,0-2.8-6.827l-.007-.012A21.9,21.9,0,0,0,43.2,21.935H14.185a1.75,1.75,0,0,0,0,3.5H43.2A18.307,18.307,0,0,1,56.658,31.41H33.375a1.75,1.75,0,0,0,0,3.5h25.8a17.957,17.957,0,0,1,1.852,4.86l.245,1.114H46.753a1.75,1.75,0,0,0,0,3.5H63.446A1.767,1.767,0,0,0,64.983,43.455Z" style="fill:#d2d2d2"/><path d="M65.178,42.455l-.023-.2-.712-3.239a21.463,21.463,0,0,0-2.8-6.827l-.007-.012A21.9,21.9,0,0,0,43.2,21.935H14.185a1.75,1.75,0,0,0,0,3.5H43.2A18.307,18.307,0,0,1,56.658,31.41H33.375a1.75,1.75,0,0,0,0,3.5h25.8a17.957,17.957,0,0,1,1.852,4.86l.245,1.114H46.753a1.75,1.75,0,0,0,0,3.5H63.446A1.765,1.765,0,0,0,65.178,42.455Z"/><path d="M96.841,60.971a1.753,1.753,0,0,0-2.058,1.376c-.107.542-.243,1.088-.4,1.623a1.75,1.75,0,1,0,3.352,1.006c.192-.642.355-1.3.485-1.947A1.752,1.752,0,0,0,96.841,60.971Z"/><path d="M90.278,71.016a33.274,33.274,0,0,1-39.7,6.375,1.75,1.75,0,0,0-2.523,1.118L39.105,114.3,5.279,80l35.107-6.94a1.751,1.751,0,0,0,.9-.479l12.1-12.1A1.75,1.75,0,0,0,52.143,57.5,48.763,48.763,0,0,1,4.8,19.429l-.877-3.994h11.7a1.75,1.75,0,0,0,0-3.5H1.75A1.75,1.75,0,0,0,.041,14.06l1.344,6.119a52.324,52.324,0,0,0,46.694,40.66l-8.894,8.894L1.41,77.2A1.75,1.75,0,0,0,.5,80.146l38.3,38.833a1.77,1.77,0,0,0,1.707.46,1.751,1.751,0,0,0,1.236-1.264l9.18-36.706a36.8,36.8,0,0,0,41.89-8.039,1.75,1.75,0,0,0-2.535-2.414Z"/><path d="M127.547,46.513,106.494,23.283a14.591,14.591,0,0,0-9.83-4.3L89.049,9.177a1.75,1.75,0,0,0-3.132,1.073v7.476l-5.146-.306a1.769,1.769,0,0,0-1.7,1.029A1.751,1.751,0,0,0,79.43,20.4l4.542,4.542L73.778,35.141A31.962,31.962,0,0,0,43.2,11.935H27.625a1.75,1.75,0,0,0,0,3.5H43.2A28.422,28.422,0,0,1,70.793,37.626l.3,1.346a1.75,1.75,0,0,0,2.946.861L87.684,26.184a1.749,1.749,0,0,0,0-2.475l-2.521-2.521,2.4.143a1.75,1.75,0,0,0,1.854-1.747V15.357l5,6.441a1.782,1.782,0,0,0,1.417.677,10.975,10.975,0,0,1,8.124,3.22l6.025,6.649-2.965-.174a1.747,1.747,0,0,0-1.818,1.4l-1.1,5.464a39.151,39.151,0,0,1-3.388-2.26,1.751,1.751,0,0,0-2.283.166l-7.78,7.779a1.75,1.75,0,0,0-.062,2.411A17.581,17.581,0,0,1,94.6,54.657a1.75,1.75,0,1,0,3.4-.844,21.081,21.081,0,0,0-3.744-7.746l5.6-5.6A42.885,42.885,0,0,0,114.922,47c2.629.585,5.261,1.152,7.892,1.728l3.063.671a1.814,1.814,0,0,0,1.889-.833A1.751,1.751,0,0,0,127.547,46.513ZM113.5,43.042c-.065-.018-.129-.04-.195-.059a38.937,38.937,0,0,1-5.978-2.241l1-4.989,5.007.294,7.938,8.76L115.6,43.563Q114.544,43.333,113.5,43.042Z"/></svg>