<svg id="Layer_1" data-name="Layer 1" xmlns="http://www.w3.org/2000/svg" viewBox="0 0 128 128"><title>FENCE</title><polygon points="32.033 114.063 1.75 114.063 1.75 24.85 16.892 13.938 32.033 24.85 32.033 114.063" style="fill:#9b6e42"/><polygon points="16.892 13.938 12.307 17.241 27.03 27.852 27.03 114.063 32.033 114.063 32.033 24.85 16.892 13.938" style="fill:#6d4c41"/><rect x="10.162" y="41.993" width="13.459" height="8.003" style="fill:#eaeaea"/><polygon points="10.162 41.992 10.162 43.994 21.62 43.994 21.62 49.995 23.621 49.995 23.621 41.992 10.162 41.992" style="fill:#d2d2d2"/><rect x="10.162" y="78.641" width="13.459" height="8.003" style="fill:#eaeaea"/><polygon points="79.142 114.063 48.858 114.063 48.858 24.85 64 13.938 79.142 24.85 79.142 114.063" style="fill:#9b6e42"/><rect x="57.27" y="41.993" width="13.459" height="8.003" style="fill:#eaeaea"/><rect x="57.27" y="78.641" width="13.459" height="8.003" style="fill:#eaeaea"/><polygon points="126.25 114.063 95.967 114.063 95.967 24.85 111.108 13.938 126.25 24.85 126.25 114.063" style="fill:#9b6e42"/><rect x="104.379" y="41.993" width="13.459" height="8.003" style="fill:#eaeaea"/><rect x="104.379" y="78.641" width="13.459" height="8.003" style="fill:#eaeaea"/><rect x="32.033" y="41.993" width="16.825" height="8.003" style="fill:#596675"/><rect x="32.033" y="78.641" width="16.825" height="8.003" style="fill:#596675"/><rect x="79.142" y="41.993" width="16.825" height="8.003" style="fill:#596675"/><rect x="79.142" y="78.641" width="16.825" height="8.003" style="fill:#596675"/><rect x="44.858" y="41.993" width="4" height="8.003" style="fill:#373f47"/><rect x="44.858" y="78.641" width="4" height="8.003" style="fill:#373f47"/><rect x="79.142" y="41.993" width="4" height="8.003" style="fill:#373f47"/><rect x="79.142" y="78.641" width="4" height="8.003" style="fill:#373f47"/><polygon points="64 13.938 59.416 17.241 74.138 27.852 74.138 114.063 79.142 114.063 79.142 24.85 64 13.938" style="fill:#6d4c41"/><polygon points="111.109 13.938 106.524 17.241 121.247 27.852 121.247 114.063 126.25 114.063 126.25 24.85 111.109 13.938" style="fill:#6d4c41"/><polygon points="10.162 78.641 10.162 80.643 21.62 80.643 21.62 86.644 23.621 86.644 23.621 78.641 10.162 78.641" style="fill:#d2d2d2"/><polygon points="57.27 41.992 57.27 43.994 68.728 43.994 68.728 49.995 70.73 49.995 70.73 41.992 57.27 41.992" style="fill:#d2d2d2"/><polygon points="57.27 78.641 57.27 80.643 68.728 80.643 68.728 86.644 70.73 86.644 70.73 78.641 57.27 78.641" style="fill:#d2d2d2"/><polygon points="104.379 41.992 104.379 43.994 115.837 43.994 115.837 49.995 117.838 49.995 117.838 41.992 104.379 41.992" style="fill:#d2d2d2"/><polygon points="104.379 78.641 104.379 80.643 115.837 80.643 115.837 86.644 117.838 86.644 117.838 78.641 104.379 78.641" style="fill:#d2d2d2"/><path d="M25.371,41.992a1.75,1.75,0,0,0-1.75-1.75H10.162a1.75,1.75,0,0,0-1.75,1.75v8a1.75,1.75,0,0,0,1.75,1.75H23.621A1.75,1.75,0,0,0,25.371,50Zm-3.5,6.253H11.912v-4.5h9.959Z"/><path d="M23.621,76.892H10.162a1.75,1.75,0,0,0-1.75,1.75v8a1.75,1.75,0,0,0,1.75,1.75H23.621a1.75,1.75,0,0,0,1.75-1.75v-8A1.75,1.75,0,0,0,23.621,76.892Zm-1.75,8H11.912v-4.5h9.959Z"/><path d="M70.729,40.242H57.271a1.75,1.75,0,0,0-1.75,1.75v8a1.75,1.75,0,0,0,1.75,1.75H70.729A1.75,1.75,0,0,0,72.479,50v-8A1.75,1.75,0,0,0,70.729,40.242Zm-1.75,8H59.021v-4.5h9.959Z"/><path d="M70.729,76.892H57.271a1.75,1.75,0,0,0-1.75,1.75v8a1.75,1.75,0,0,0,1.75,1.75H70.729a1.75,1.75,0,0,0,1.75-1.75v-8A1.75,1.75,0,0,0,70.729,76.892Zm-1.75,8H59.021v-4.5h9.959Z"/><path d="M127.273,23.431,112.132,12.518a1.754,1.754,0,0,0-2.047,0L94.943,23.431a1.751,1.751,0,0,0-.727,1.42V40.242H80.892V24.851a1.751,1.751,0,0,0-.727-1.42L65.023,12.518a1.754,1.754,0,0,0-2.047,0L47.835,23.431a1.751,1.751,0,0,0-.727,1.42V40.242H33.783V24.851a1.75,1.75,0,0,0-3.5,0v87.462H3.5V25.746l13.392-9.651,6.082,4.384a1.75,1.75,0,0,0,2.047-2.84l-7.1-5.121a1.754,1.754,0,0,0-2.047,0L.727,23.431A1.751,1.751,0,0,0,0,24.851v89.212a1.75,1.75,0,0,0,1.75,1.75H32.033a1.75,1.75,0,0,0,1.75-1.75V88.395H47.108v25.668a1.75,1.75,0,0,0,1.75,1.75H79.142a1.75,1.75,0,0,0,1.75-1.75V88.395H94.217v25.668a1.75,1.75,0,0,0,1.75,1.75H126.25a1.75,1.75,0,0,0,1.75-1.75v-13.4a1.75,1.75,0,1,0-3.5,0v11.646H97.717V25.746l13.392-9.651L124.5,25.746V77.667a1.75,1.75,0,0,0,3.5,0V24.851A1.751,1.751,0,0,0,127.273,23.431ZM80.892,51.745H94.217V76.892H80.892Zm13.325-8v4.5H80.892v-4.5Zm-60.434,8H47.108V76.892H33.783Zm13.325-8v4.5H33.783v-4.5ZM33.783,84.895v-4.5H47.108v4.5Zm43.608,27.418H50.608V25.746L64,16.095l13.392,9.651Zm3.5-27.418v-4.5H94.217v4.5Z"/><path d="M126.25,85.917a1.75,1.75,0,0,0-1.75,1.75v3a1.75,1.75,0,0,0,3.5,0v-3A1.75,1.75,0,0,0,126.25,85.917Z"/><path d="M119.588,41.992a1.75,1.75,0,0,0-1.75-1.75H104.379a1.75,1.75,0,0,0-1.75,1.75v8a1.75,1.75,0,0,0,1.75,1.75h13.459a1.75,1.75,0,0,0,1.75-1.75Zm-3.5,6.253h-9.959v-4.5h9.959Z"/><path d="M117.838,76.892H104.379a1.75,1.75,0,0,0-1.75,1.75v8a1.75,1.75,0,0,0,1.75,1.75h13.459a1.75,1.75,0,0,0,1.75-1.75v-8A1.75,1.75,0,0,0,117.838,76.892Zm-1.75,8h-9.959v-4.5h9.959Z"/></svg>