<svg id="Layer_1" data-name="Layer 1" xmlns="http://www.w3.org/2000/svg" viewBox="0 0 128 128"><title>FOUNTAIN</title><path d="M101.909,58.735h-.376a1.042,1.042,0,0,1-.415,0H99.994V30.4A10.9,10.9,0,0,0,89.11,19.517H85.985V11.867A11.855,11.855,0,0,0,64,5.7a11.855,11.855,0,0,0-21.985,6.171v7.649H38.89A10.9,10.9,0,0,0,28.006,30.4V58.735H26.882a1.735,1.735,0,0,0-.208.021,1.735,1.735,0,0,0-.208-.021h-.376A10.519,10.519,0,0,0,15.583,69.242v30.31a1.75,1.75,0,0,0,3.5,0V69.242a7.015,7.015,0,0,1,7.007-7.007h.376a1.735,1.735,0,0,0,.208-.021,1.735,1.735,0,0,0,.208.021h2.874a1.75,1.75,0,0,0,1.75-1.75V30.4a7.392,7.392,0,0,1,7.384-7.384h4.875a1.75,1.75,0,0,0,1.75-1.75v-9.4a8.367,8.367,0,0,1,16.735,0v2.509a1.75,1.75,0,1,0,3.5,0V11.867a8.367,8.367,0,0,1,16.735,0v9.4a1.75,1.75,0,0,0,1.75,1.75H89.11A7.392,7.392,0,0,1,96.494,30.4V60.485a1.75,1.75,0,0,0,1.75,1.75h2.874a1.042,1.042,0,0,1,.415,0h.376a7.015,7.015,0,0,1,7.007,7.007v30.31a1.75,1.75,0,0,0,3.5,0V69.242A10.519,10.519,0,0,0,101.909,58.735Z" style="fill:#65aafc"/><path d="M92.147,126.25H35.853a10,10,0,0,1-8.889-5.419l-7.214-14h88.5l-7.214,14A10,10,0,0,1,92.147,126.25Z" style="fill:#8090a0"/><path d="M80.652,84h-33.3a10,10,0,0,1-8.513-4.754L31.758,67.767H96.242L89.166,79.251A10,10,0,0,1,80.652,84Z" style="fill:#8090a0"/><polygon points="77.5 99.552 50.5 99.552 54.503 84.004 73.497 84.004 77.5 99.552" style="fill:#8090a0"/><polygon points="74.527 88.005 73.497 84.004 54.503 84.004 53.473 88.005 74.527 88.005" style="fill:#596675"/><polygon points="77.5 60.485 50.5 60.485 54.503 44.786 73.497 44.786 77.5 60.485" style="fill:#8090a0"/><path d="M69.437,21.267H58.562a9.98,9.98,0,0,1,5.157-8.737L64,12.375l.281.155a9.98,9.98,0,0,1,5.157,8.737Z" style="fill:#8090a0"/><rect x="36.89" y="21.267" width="54.22" height="7.281" rx="2" ry="2" style="fill:#596675"/><rect x="24.883" y="60.485" width="78.235" height="7.281" rx="2" ry="2" style="fill:#596675"/><rect x="12.875" y="99.552" width="102.25" height="7.281" rx="2" ry="2" style="fill:#596675"/><polygon points="73.497 44.786 54.503 44.786 53.483 48.786 74.517 48.786 73.497 44.786" style="fill:#596675"/><polygon points="73.497 44.786 54.503 44.786 43.765 28.548 84.235 28.548 73.497 44.786" style="fill:#8090a0"/><polygon points="46.41 32.548 81.59 32.548 84.235 28.548 43.765 28.548 46.41 32.548" style="fill:#373f47"/><polygon points="34.223 71.767 93.777 71.767 96.242 67.767 31.758 67.767 34.223 71.767" style="fill:#373f47"/><polygon points="21.811 110.833 106.189 110.833 108.25 106.833 19.75 106.833 21.811 110.833" style="fill:#373f47"/><path d="M113.125,97.8h-.708V69.242a10.519,10.519,0,0,0-10.507-10.507c-.634-.026-1.279,0-1.916,0V30.4A10.9,10.9,0,0,0,89.11,19.517H85.985V11.867A11.855,11.855,0,0,0,64,5.7a11.855,11.855,0,0,0-21.985,6.171v7.649H38.89A10.9,10.9,0,0,0,28.006,30.4V58.735c-.637,0-1.281-.026-1.916,0A10.519,10.519,0,0,0,15.583,69.242V97.8h-.708a3.754,3.754,0,0,0-3.75,3.75v3.281a3.754,3.754,0,0,0,3.75,3.75h3.808l6.725,13.05A11.706,11.706,0,0,0,35.853,128H92.147a11.706,11.706,0,0,0,10.445-6.367l6.725-13.05h3.808a3.754,3.754,0,0,0,3.75-3.75v-3.281A3.754,3.754,0,0,0,113.125,97.8ZM57.918,66.017a1.75,1.75,0,0,0,0,3.5H93.109l-5.433,8.816a8.306,8.306,0,0,1-7.023,3.922h-33.3a8.306,8.306,0,0,1-7.023-3.922l-5.433-8.816h5.525a1.75,1.75,0,1,0,0-3.5H26.882a.25.25,0,0,1-.25-.25V62.485a.25.25,0,0,1,.25-.25h74.235a.25.25,0,0,1,.25.25v3.281a.25.25,0,0,1-.25.25ZM75.242,97.8H52.758l3.1-12.047H72.141ZM38.89,26.8a.25.25,0,0,1-.25-.25V23.267a.25.25,0,0,1,.25-.25H89.11a.25.25,0,0,1,.25.25v3.281a.25.25,0,0,1-.25.25ZM64,14.4a8.232,8.232,0,0,1,3.5,5.112h-7A8.232,8.232,0,0,1,64,14.4ZM80.979,30.3,72.557,43.036H55.443L47.021,30.3ZM55.862,46.536H72.138l3.11,12.2h-22.5ZM96.494,30.4V58.735H78.86L75.385,45.1,85.176,30.3H89.11a3.754,3.754,0,0,0,3.75-3.75v-2.5A7.381,7.381,0,0,1,96.494,30.4ZM74.118,3.5a8.377,8.377,0,0,1,8.367,8.367v7.649H71.046a11.707,11.707,0,0,0-5.273-8.1A8.371,8.371,0,0,1,74.118,3.5Zm-28.6,8.367a8.362,8.362,0,0,1,16.712-.453,11.708,11.708,0,0,0-5.273,8.1H45.515ZM31.506,30.4a7.381,7.381,0,0,1,3.634-6.349v2.5a3.754,3.754,0,0,0,3.75,3.75h3.934L52.615,45.1,49.14,58.735H31.506ZM19.083,69.242A7.01,7.01,0,0,1,23.132,62.9v2.867a3.754,3.754,0,0,0,3.75,3.75h3.9l6.564,10.652a11.829,11.829,0,0,0,10,5.586h4.9L49.143,97.8H19.083Zm80.4,50.787a8.219,8.219,0,0,1-7.333,4.471H35.853a8.219,8.219,0,0,1-7.333-4.471l-5.9-11.446h82.759Zm13.894-15.2a.25.25,0,0,1-.25.25H14.875a.25.25,0,0,1-.25-.25v-3.281a.25.25,0,0,1,.25-.25H89.833a1.75,1.75,0,1,0,0-3.5H78.857l-3.1-12.047h4.9a11.829,11.829,0,0,0,10-5.586L97.22,69.517h3.9a3.754,3.754,0,0,0,3.75-3.75V62.9a7.01,7.01,0,0,1,4.049,6.343V97.8H100.25a1.75,1.75,0,0,0,0,3.5h12.875a.25.25,0,0,1,.25.25Z"/><path d="M49.917,66.017h-1.5a1.75,1.75,0,0,0,0,3.5h1.5a1.75,1.75,0,0,0,0-3.5Z"/></svg>