<svg id="Layer_1" data-name="Layer 1" xmlns="http://www.w3.org/2000/svg" viewBox="0 0 128 128"><title>LADYBUG</title><path d="M5.251,121.75a1.75,1.75,0,0,1-.877-3.266l4.969-2.872,1.665-17.529a1.75,1.75,0,0,1,.851-1.341L31.441,85.158a1.75,1.75,0,1,1,1.782,3.013L14.408,99.3l-1.666,17.54a1.75,1.75,0,0,1-.867,1.35l-5.75,3.323A1.743,1.743,0,0,1,5.251,121.75Z" style="fill:#596675"/><path d="M44.5,40.912a1.741,1.741,0,0,1-.833-.212l-21.5-11.661a1.75,1.75,0,0,1-.9-1.28l-1.65-11.079-4.329-3.521A1.75,1.75,0,0,1,17.5,10.443l4.855,3.949a1.749,1.749,0,0,1,.627,1.1L24.6,26.378,45.334,37.623a1.75,1.75,0,0,1-.836,3.289Z" style="fill:#596675"/><path d="M30.883,64.251a1.747,1.747,0,0,1-.81-.2L12.451,54.83,8.343,58.117A1.751,1.751,0,0,1,7.25,58.5H1.75a1.75,1.75,0,0,1,0-3.5H6.636l4.521-3.617a1.751,1.751,0,0,1,1.9-.184L31.7,60.95a1.75,1.75,0,0,1-.813,3.3Z" style="fill:#596675"/><path d="M122.749,121.75a1.75,1.75,0,0,0,.877-3.266l-4.969-2.872-1.665-17.529a1.75,1.75,0,0,0-.851-1.341L96.559,85.158a1.75,1.75,0,0,0-1.782,3.013L113.592,99.3l1.666,17.54a1.75,1.75,0,0,0,.867,1.35l5.75,3.323A1.743,1.743,0,0,0,122.749,121.75Z" style="fill:#596675"/><path d="M83.5,40.912a1.741,1.741,0,0,0,.833-.212l21.5-11.661a1.75,1.75,0,0,0,.9-1.28l1.65-11.079,4.329-3.521a1.75,1.75,0,0,0-2.208-2.715l-4.855,3.949a1.749,1.749,0,0,0-.627,1.1L103.4,26.378,82.666,37.623a1.75,1.75,0,0,0,.836,3.289Z" style="fill:#596675"/><path d="M97.117,64.251a1.747,1.747,0,0,0,.81-.2l17.622-9.221,4.108,3.287a1.751,1.751,0,0,0,1.093.383h5.5a1.75,1.75,0,1,0,0-3.5h-4.886l-4.521-3.617a1.751,1.751,0,0,0-1.9-.184L96.3,60.95a1.75,1.75,0,0,0,.813,3.3Z" style="fill:#596675"/><path d="M33.838,85.773a1.751,1.751,0,0,0-2.4-.615l-7.9,4.675V93.9l9.684-5.729A1.75,1.75,0,0,0,33.838,85.773Z" style="fill:#373f47"/><path d="M31.7,60.95,24.148,57a11.934,11.934,0,0,0-.6,3.635l6.528,3.416a1.75,1.75,0,1,0,1.623-3.1Z" style="fill:#373f47"/><path d="M104.461,89.833l-7.9-4.675a1.75,1.75,0,1,0-1.782,3.013l9.684,5.729Z" style="fill:#373f47"/><path d="M103.852,57,96.3,60.95a1.75,1.75,0,1,0,1.623,3.1l6.528-3.416A11.934,11.934,0,0,0,103.852,57Z" style="fill:#373f47"/><path d="M58.245,21.189A1.75,1.75,0,0,1,56.5,19.576l-.535-6.8a8.254,8.254,0,0,0-4.8-6.857l-5.647-2.58A1.75,1.75,0,0,1,46.977.158l5.647,2.58A11.757,11.757,0,0,1,59.456,12.5l.535,6.8a1.75,1.75,0,0,1-1.607,1.882C58.337,21.187,58.291,21.189,58.245,21.189Z" style="fill:#596675"/><path d="M69.755,21.189c-.046,0-.093,0-.139-.005A1.75,1.75,0,0,1,68.009,19.3l.535-6.8a11.756,11.756,0,0,1,6.831-9.766L81.023.158a1.75,1.75,0,1,1,1.454,3.184l-5.648,2.58a8.255,8.255,0,0,0-4.8,6.857l-.535,6.8A1.75,1.75,0,0,1,69.755,21.189Z" style="fill:#596675"/><path d="M78.5,33.25h-29v-.5A14.5,14.5,0,0,1,64,18.25h0a14.5,14.5,0,0,1,14.5,14.5Z" style="fill:#596675"/><path d="M70.461,126.25H57.539a30,30,0,0,1-30-30V60.75a8,8,0,0,1,8-8H92.461a8,8,0,0,1,8,8v35.5A30,30,0,0,1,70.461,126.25Z" style="fill:#ff6e6e"/><path d="M92.461,52.75H35.539a7.992,7.992,0,0,0-6.952,4.05,7.955,7.955,0,0,1,3.95-1.048H89.459a8,8,0,0,1,8,8v35.5a29.874,29.874,0,0,1-7.345,19.653A29.922,29.922,0,0,0,100.461,96.25V60.75A8,8,0,0,0,92.461,52.75Z" style="fill:#e56363"/><path d="M78.5,32.75a14.486,14.486,0,0,0-.439-3.484c-.1,0-.206-.016-.311-.016H50.25c-.1,0-.206.014-.311.016A14.486,14.486,0,0,0,49.5,32.75v.5h29Z" style="fill:#373f47"/><path d="M43.665,40.7a1.75,1.75,0,1,0,1.669-3.076l-7.262-3.939a19.163,19.163,0,0,0-2.558,2.594Z" style="fill:#373f47"/><path d="M89.928,33.684l-7.262,3.939A1.75,1.75,0,1,0,84.335,40.7l8.151-4.421A19.163,19.163,0,0,0,89.928,33.684Z" style="fill:#373f47"/><path d="M92.75,52.75H35.25v-4.5a15,15,0,0,1,15-15h27.5a15,15,0,0,1,15,15Z" style="fill:#596675"/><path d="M92.75,48.765c-.1,0-.191-.015-.289-.015H35.539c-.1,0-.192.012-.289.015V52.75h57.5Z" style="fill:#373f47"/><path d="M61.235,64H62.25v62.25h3.5V64h1.64a6,6,0,0,0,5.8-4.454L75,52.75H53l2.581,7.26A6,6,0,0,0,61.235,64Z" style="fill:#596675"/><path d="M73.411,52.75l-1.812,6.8A6,6,0,0,1,65.8,64H67.39a6,6,0,0,0,5.8-4.454L75,52.75Z" style="fill:#373f47"/><circle cx="42.656" cy="67.656" r="4.906" style="fill:#596675"/><path d="M42.656,62.75a4.922,4.922,0,0,0-1,.1,4.906,4.906,0,0,1,0,9.606,4.906,4.906,0,1,0,1-9.709Z" style="fill:#373f47"/><path d="M27.539,76.345V95.516a9.586,9.586,0,0,0,0-19.171Z" style="fill:#596675"/><path d="M27.539,76.345v.213a9.584,9.584,0,0,1,0,18.746v.213a9.586,9.586,0,0,0,0-19.171Z" style="fill:#373f47"/><circle cx="51.74" cy="85.931" r="6.287" style="fill:#596675"/><circle cx="49.5" cy="108.463" r="8.213" style="fill:#596675"/><circle cx="85.344" cy="67.656" r="4.906" style="fill:#596675"/><path d="M85.344,62.75a4.922,4.922,0,0,0-1,.1,4.906,4.906,0,0,1,0,9.606,4.906,4.906,0,1,0,1-9.709Z" style="fill:#373f47"/><path d="M90.875,85.931a9.586,9.586,0,0,0,9.586,9.586V76.345A9.586,9.586,0,0,0,90.875,85.931Z" style="fill:#596675"/><path d="M97.459,95.03a9.562,9.562,0,0,0,3,.486V76.345a9.562,9.562,0,0,0-3,.486Z" style="fill:#373f47"/><circle cx="76.26" cy="85.931" r="6.287" style="fill:#596675"/><path d="M76.26,79.644a6.3,6.3,0,0,0-1,.087,6.279,6.279,0,0,1,0,12.4,6.284,6.284,0,1,0,1-12.486Z" style="fill:#373f47"/><path d="M51.74,79.644a6.3,6.3,0,0,0-1,.087,6.279,6.279,0,0,1,0,12.4,6.284,6.284,0,1,0,1-12.486Z" style="fill:#373f47"/><circle cx="78.5" cy="108.463" r="8.213" style="fill:#596675"/><path d="M78.5,100.25a8.262,8.262,0,0,0-1,.067,8.207,8.207,0,0,1,0,16.293,8.211,8.211,0,1,0,1-16.36Z" style="fill:#373f47"/><path d="M49.5,100.25a8.262,8.262,0,0,0-1,.067,8.207,8.207,0,0,1,0,16.293,8.211,8.211,0,1,0,1-16.36Z" style="fill:#373f47"/><path d="M64,81a1.75,1.75,0,0,0-1.75,1.75v1.375a1.75,1.75,0,0,0,3.5,0V82.75A1.75,1.75,0,0,0,64,81Z"/><path d="M49.313,67.656a6.656,6.656,0,1,0-6.656,6.656A6.664,6.664,0,0,0,49.313,67.656Zm-9.812,0a3.156,3.156,0,1,1,3.156,3.156A3.16,3.16,0,0,1,39.5,67.656Z"/><path d="M51.74,77.894a8.037,8.037,0,1,0,8.037,8.037A8.045,8.045,0,0,0,51.74,77.894Zm0,12.573a4.537,4.537,0,1,1,4.537-4.537A4.542,4.542,0,0,1,51.74,90.467Z"/><path d="M49.5,98.5a9.963,9.963,0,1,0,9.963,9.963A9.975,9.975,0,0,0,49.5,98.5Zm0,16.427a6.463,6.463,0,1,1,6.463-6.463A6.471,6.471,0,0,1,49.5,114.927Z"/><path d="M85.344,74.313a6.656,6.656,0,1,0-6.656-6.656A6.664,6.664,0,0,0,85.344,74.313Zm0-9.812a3.156,3.156,0,1,1-3.156,3.156A3.16,3.16,0,0,1,85.344,64.5Z"/><path d="M76.26,93.967a8.037,8.037,0,1,0-8.037-8.037A8.045,8.045,0,0,0,76.26,93.967Zm0-12.573a4.537,4.537,0,1,1-4.537,4.537A4.542,4.542,0,0,1,76.26,81.394Z"/><path d="M78.5,98.5a9.963,9.963,0,1,0,9.963,9.963A9.975,9.975,0,0,0,78.5,98.5Zm0,16.427a6.463,6.463,0,1,1,6.463-6.463A6.471,6.471,0,0,1,78.5,114.927Z"/><path d="M126.25,55h-4.886l-4.521-3.617a1.752,1.752,0,0,0-1.9-.184l-13.113,6.862A9.777,9.777,0,0,0,94.5,51.218V48.25a16.664,16.664,0,0,0-4.036-10.875l15.37-8.337a1.75,1.75,0,0,0,.9-1.28l1.65-11.079,4.329-3.521a1.75,1.75,0,0,0-2.208-2.715l-4.855,3.949a1.749,1.749,0,0,0-.627,1.1L103.4,26.378,87.766,34.857A16.64,16.64,0,0,0,80.2,31.7a16.257,16.257,0,0,0-8.606-13.307l.442-5.614a8.255,8.255,0,0,1,4.8-6.857l5.648-2.58A1.75,1.75,0,1,0,81.023.158l-5.648,2.58A11.756,11.756,0,0,0,68.544,12.5l-.359,4.562a15.975,15.975,0,0,0-8.371-.016L59.456,12.5a11.757,11.757,0,0,0-6.832-9.766L46.977.158a1.75,1.75,0,0,0-1.454,3.184l5.647,2.58a8.254,8.254,0,0,1,4.8,6.857l.441,5.6a16.382,16.382,0,0,0-2.216,1.416,1.75,1.75,0,0,0,2.114,2.789A12.636,12.636,0,0,1,64,20,12.769,12.769,0,0,1,76.689,31.5H51.31a12.654,12.654,0,0,1,.719-3.15,1.75,1.75,0,1,0-3.285-1.208A16.147,16.147,0,0,0,47.8,31.7a16.64,16.64,0,0,0-7.562,3.156L24.6,26.378,22.981,15.492a1.749,1.749,0,0,0-.627-1.1L17.5,10.443a1.75,1.75,0,0,0-2.208,2.715l4.329,3.521,1.65,11.079a1.75,1.75,0,0,0,.9,1.28l15.37,8.337A16.664,16.664,0,0,0,33.5,48.25v2.968a9.777,9.777,0,0,0-7.325,6.843L13.062,51.2a1.751,1.751,0,0,0-1.9.184L6.636,55H1.75a1.75,1.75,0,0,0,0,3.5h5.5a1.751,1.751,0,0,0,1.093-.383l4.108-3.287,13.338,6.98V88.5l-13.93,8.242a1.75,1.75,0,0,0-.851,1.341L9.343,115.613l-4.969,2.872a1.75,1.75,0,1,0,1.751,3.03l5.75-3.323a1.75,1.75,0,0,0,.867-1.35L14.408,99.3l11.381-6.733V96.25A31.786,31.786,0,0,0,57.539,128H70.461a32.081,32.081,0,0,0,31.36-26.769,55.141,55.141,0,0,0,.39-8.662L113.592,99.3l1.666,17.54a1.75,1.75,0,0,0,.867,1.35l5.75,3.323a1.75,1.75,0,1,0,1.751-3.03l-4.969-2.872-1.665-17.529a1.75,1.75,0,0,0-.851-1.341L102.211,88.5V61.81l13.338-6.98,4.108,3.287a1.751,1.751,0,0,0,1.093.383h5.5a1.75,1.75,0,0,0,0-3.5ZM92.625,85.931a7.85,7.85,0,0,1,6.086-7.639V93.569A7.849,7.849,0,0,1,92.625,85.931ZM37,48.25A13.265,13.265,0,0,1,50.25,35h27.5A13.265,13.265,0,0,1,91,48.25V51H37Zm24.235,14a4.257,4.257,0,0,1-4-2.826L55.479,54.5H72.722L71.5,59.1A4.255,4.255,0,0,1,67.39,62.25ZM29.289,78.292a7.837,7.837,0,0,1,0,15.278ZM70.461,124.5H65.75v-33a1.75,1.75,0,0,0-3.5,0v33H57.539A28.278,28.278,0,0,1,29.311,97.113a11.32,11.32,0,0,0-.022-22.369V60.75a6.257,6.257,0,0,1,6.25-6.25H51.765l2.168,6.1a7.763,7.763,0,0,0,7.3,5.154H62.25v9.625a1.75,1.75,0,0,0,3.5,0V65.75h1.64A7.759,7.759,0,0,0,74.878,60l1.466-5.5H92.461a6.257,6.257,0,0,1,6.25,6.25V74.744a11.32,11.32,0,0,0-.022,22.369A28.278,28.278,0,0,1,70.461,124.5Z"/></svg>