<svg id="Layer_1" data-name="Layer 1" xmlns="http://www.w3.org/2000/svg" viewBox="0 0 128 128"><title>RABBIT</title><path d="M102.634,78.933a52.029,52.029,0,0,1-3.448-9.192,26.167,26.167,0,0,0-2.344-5.9,101.39,101.39,0,0,0,13.465-18.484c11.356-19.67,14.94-38.861,8.005-42.865s-21.763,8.7-33.12,28.365A105.891,105.891,0,0,0,77.06,48.28a43.035,43.035,0,0,0-26.119,0,105.891,105.891,0,0,0-8.133-17.427C31.451,11.183,16.623-1.516,9.687,2.488s-3.351,23.2,8.005,42.865A101.39,101.39,0,0,0,31.158,63.838a26.167,26.167,0,0,0-2.344,5.9,52.029,52.029,0,0,1-3.448,9.192L9.689,99.146l11.333-1-8.086,12.125,13.091-3.415C32.766,118.321,47.233,126.25,64,126.25s31.234-7.93,37.972-19.394l13.091,3.415-8.086-12.125,11.333,1Z" style="fill:#eaeaea"/><path d="M41.38,28.455a101.991,101.991,0,0,0-9.833-13.632c-3.763-4.356-8.066-8.715-13.223-11.4-2.291-1.192-5.172-2.239-7.743-1.336C18.284,4.12,29.427,15.3,38.4,30.853a118.583,118.583,0,0,1,8.564,18.493c1.3-.419,2.642-.772,4.011-1.066A112.253,112.253,0,0,0,41.38,28.455Z" style="fill:#d2d2d2"/><path d="M99.186,69.741a26.167,26.167,0,0,0-2.344-5.9,101.39,101.39,0,0,0,13.465-18.484c11.356-19.67,14.94-38.861,8.005-42.865a6.875,6.875,0,0,0-5.3-.4,5.261,5.261,0,0,1,.894.4c6.935,4,3.351,23.2-8.005,42.865A101.39,101.39,0,0,1,92.439,63.838a26.167,26.167,0,0,1,2.344,5.9,52.029,52.029,0,0,0,3.448,9.192l15.353,19.8,4.726.417L102.634,78.933A52.029,52.029,0,0,1,99.186,69.741Z" style="fill:#d2d2d2"/><polygon points="102.574 98.146 109.733 108.881 115.063 110.271 107.253 98.559 102.574 98.146" style="fill:#d2d2d2"/><path d="M75.167,109.667H72a6.257,6.257,0,0,1-6.25-6.25V100.5a1.75,1.75,0,0,0-3.5,0v2.917a6.257,6.257,0,0,1-6.25,6.25H52.833a1.75,1.75,0,0,0,0,3.5H56a9.741,9.741,0,0,0,8-4.192,9.741,9.741,0,0,0,8,4.192h3.167a1.75,1.75,0,0,0,0-3.5Z" style="fill:#d2d2d2"/><path d="M41.832,52.575a93.546,93.546,0,0,0-7.685-16.722c-6.54-11.327-13.415-18.567-17.86-21.935.693,5.533,3.525,15.107,10.065,26.435A92.655,92.655,0,0,0,37.469,55.906,34.575,34.575,0,0,1,41.832,52.575Z" style="fill:#9b6e42"/><path d="M32.022,37.978A94.014,94.014,0,0,1,39.531,54.2q1.11-.849,2.3-1.622a93.546,93.546,0,0,0-7.685-16.722c-6.54-11.327-13.415-18.567-17.86-21.935a41.181,41.181,0,0,0,.906,4.7A84.624,84.624,0,0,1,32.022,37.978Z" style="fill:#6d4c41"/><path d="M93.853,35.853a93.546,93.546,0,0,0-7.685,16.722,34.575,34.575,0,0,1,4.363,3.331,92.655,92.655,0,0,0,11.117-15.552c6.54-11.327,9.372-20.9,10.065-26.435C107.268,17.286,100.393,24.526,93.853,35.853Z" style="fill:#9b6e42"/><path d="M108.6,16.577c-1.15,5.692-4.026,14.088-9.619,23.777a94.584,94.584,0,0,1-10,14.271c.526.419,1.053.837,1.547,1.282a92.655,92.655,0,0,0,11.117-15.552c6.54-11.327,9.372-20.9,10.065-26.435A39.777,39.777,0,0,0,108.6,16.577Z" style="fill:#6d4c41"/><circle cx="48.812" cy="85.407" r="4.313" style="fill:#596675"/><circle cx="79.188" cy="85.407" r="4.313" style="fill:#596675"/><path d="M79.187,81.094a4.3,4.3,0,0,0-3.5,1.811,4.3,4.3,0,0,1,6,6,4.3,4.3,0,0,0-2.5-7.814Z" style="fill:#373f47"/><path d="M48.813,81.094a4.3,4.3,0,0,0-3.5,1.811,4.3,4.3,0,0,1,6,6,4.3,4.3,0,0,0-2.5-7.814Z" style="fill:#373f47"/><path d="M70.5,96.584c0,3.36-2.91,3.917-6.5,3.917s-6.5-.557-6.5-3.917a6.514,6.514,0,0,1,13,0Z" style="fill:#596675"/><path d="M64,90.5a6.75,6.75,0,0,0-4,1.3,6.894,6.894,0,0,1,2-.3,6.3,6.3,0,0,1,6.5,6.083,3.37,3.37,0,0,1-.981,2.589c1.792-.444,2.982-1.444,2.982-3.59A6.3,6.3,0,0,0,64,90.5Z" style="fill:#373f47"/><path d="M52.833,113.167H56a9.741,9.741,0,0,0,8-4.192,9.741,9.741,0,0,0,8,4.192h3.167a1.75,1.75,0,0,0,0-3.5H72a6.257,6.257,0,0,1-6.25-6.25V102.2c2.689-.185,6.5-1.1,6.5-5.617a8.261,8.261,0,0,0-16.5,0c0,4.521,3.811,5.432,6.5,5.617v1.216a6.257,6.257,0,0,1-6.25,6.25H52.833a1.75,1.75,0,1,0,0,3.5ZM59.25,96.583a4.77,4.77,0,0,1,9.5,0c0,1.016,0,2.167-4.75,2.167S59.25,97.6,59.25,96.583Z"/><path d="M43.49,52.016a94.993,94.993,0,0,0-7.827-17.038C27.5,20.832,19.576,14.214,17.344,12.523a1.75,1.75,0,0,0-2.793,1.613c.349,2.779,2.119,12.947,10.286,27.092a94.154,94.154,0,0,0,11.33,15.847,1.752,1.752,0,0,0,1.21.578l.092,0a1.75,1.75,0,0,0,1.172-.45,33.044,33.044,0,0,1,4.143-3.162A1.749,1.749,0,0,0,43.49,52.016Zm-5.845,1.437a94.064,94.064,0,0,1-9.777-13.975A83.913,83.913,0,0,1,19,18.624a83.926,83.926,0,0,1,13.628,18.1,92.991,92.991,0,0,1,7.105,15.148Q38.652,52.635,37.646,53.453Z"/><path d="M90.531,57.655l.092,0a1.752,1.752,0,0,0,1.21-.578,94.154,94.154,0,0,0,11.33-15.847c8.167-14.145,9.938-24.312,10.286-27.092a1.75,1.75,0,0,0-2.793-1.613c-2.232,1.691-10.151,8.308-18.319,22.455A94.993,94.993,0,0,0,84.51,52.016a1.749,1.749,0,0,0,.707,2.027,33.044,33.044,0,0,1,4.143,3.162A1.75,1.75,0,0,0,90.531,57.655Zm4.837-20.927A83.926,83.926,0,0,1,109,18.624a83.913,83.913,0,0,1-8.864,20.854,94.064,94.064,0,0,1-9.777,13.975q-1-.815-2.092-1.577A92.991,92.991,0,0,1,95.368,36.728Z"/><path d="M48.812,91.469a6.063,6.063,0,1,0-6.062-6.062A6.069,6.069,0,0,0,48.812,91.469Zm0-8.625a2.563,2.563,0,1,1-2.562,2.563A2.565,2.565,0,0,1,48.812,82.844Z"/><path d="M85.25,85.406a6.063,6.063,0,1,0-6.063,6.063A6.069,6.069,0,0,0,85.25,85.406Zm-8.625,0a2.563,2.563,0,1,1,2.562,2.563A2.565,2.565,0,0,1,76.625,85.406Z"/><path d="M113.209,40.051a1.747,1.747,0,0,0,2.34-.8l.185-.378a1.75,1.75,0,0,0-3.145-1.536l-.185.378A1.749,1.749,0,0,0,113.209,40.051Z"/><path d="M104.135,78.011A49.845,49.845,0,0,1,100.88,69.3a27.813,27.813,0,0,0-1.921-5.175,104.914,104.914,0,0,0,12.864-17.9,1.75,1.75,0,0,0-3.031-1.75A99.76,99.76,0,0,1,95.566,62.639a1.748,1.748,0,0,0-.262,2.034,24.481,24.481,0,0,1,2.188,5.509,53.458,53.458,0,0,0,3.562,9.5,1.732,1.732,0,0,0,.2.321L114.471,97.05l-7.339-.647a1.75,1.75,0,0,0-1.61,2.714l5.535,8.3-8.643-2.254a1.75,1.75,0,0,0-1.95.807C93.848,117.226,79.534,124.5,64,124.5s-29.848-7.274-36.464-18.531a1.754,1.754,0,0,0-1.95-.807l-8.643,2.254,5.535-8.3a1.75,1.75,0,0,0-1.61-2.714l-7.339.647L19.4,89.477a1.75,1.75,0,0,0-2.766-2.145L8.307,98.073a1.75,1.75,0,0,0,1.537,2.816l7.7-.679L11.48,109.3a1.75,1.75,0,0,0,1.9,2.665l11.838-3.088C32.715,120.534,47.77,128,64,128s31.285-7.466,38.784-19.124l11.838,3.088a1.75,1.75,0,0,0,1.9-2.665l-6.062-9.09,7.7.679a1.75,1.75,0,0,0,1.537-2.815Z"/><path d="M29.041,64.125A27.813,27.813,0,0,0,27.12,69.3a49.845,49.845,0,0,1-3.255,8.711l-2.508,3.235a1.75,1.75,0,1,0,2.766,2.145l2.625-3.386a1.732,1.732,0,0,0,.2-.321,53.46,53.46,0,0,0,3.562-9.5A24.481,24.481,0,0,1,32.7,64.673a1.748,1.748,0,0,0-.262-2.034A99.76,99.76,0,0,1,19.208,44.478C7.605,24.382,5.34,7.019,10.562,4s19.128,7.631,30.73,27.725a104.843,104.843,0,0,1,8,17.134,1.749,1.749,0,0,0,2.188,1.083,41.471,41.471,0,0,1,25.045,0,1.75,1.75,0,0,0,2.188-1.083,104.843,104.843,0,0,1,8-17.134C98.31,11.634,112.217.987,117.437,4c3.993,2.306,3.434,12.708-1.362,25.3a1.75,1.75,0,0,0,3.271,1.246c5.764-15.132,5.7-26.188-.159-29.574-9.148-5.277-25.119,11.008-35.511,29.006a110.175,110.175,0,0,0-7.7,16.149,45.094,45.094,0,0,0-23.963,0,110.175,110.175,0,0,0-7.7-16.149C33.931,11.979,17.955-4.3,8.812.972S5.784,28.228,16.177,46.228A104.948,104.948,0,0,0,29.041,64.125Z"/></svg>