<svg id="Layer_3" data-name="Layer 3" xmlns="http://www.w3.org/2000/svg" viewBox="0 0 128 128"><title>Artboard 102</title><polygon points="108.222 53.224 98.931 36.397 29.067 36.397 19.778 53.224 108.222 53.224" style="fill:#ce9f36"/><rect x="19.778" y="53.224" width="88.444" height="38.38" style="fill:#e5c439"/><rect x="52.48" y="53.224" width="23.04" height="13.006" style="fill:#ce9f36"/><path d="M19.778,93.285h88.444A1.681,1.681,0,0,0,109.9,91.6V53.224c0-.03-.015-.054-.017-.084a3.142,3.142,0,0,0-.167-.647c-.013-.027-.011-.056-.026-.082L100.4,35.584a1.683,1.683,0,0,0-.279-.37c-.01-.01-.022-.016-.032-.025a1.668,1.668,0,0,0-.441-.3c-.046-.022-.091-.041-.139-.059a1.66,1.66,0,0,0-.581-.117H29.067a1.662,1.662,0,0,0-.581.117c-.048.018-.092.037-.138.058a1.668,1.668,0,0,0-.445.3c-.009.009-.02.014-.029.023a1.671,1.671,0,0,0-.279.37L18.306,52.411c-.015.026-.013.056-.026.082a3.133,3.133,0,0,0-.167.647c0,.029-.017.054-.017.083V91.6A1.681,1.681,0,0,0,19.778,93.285ZM100.612,42.92l4.761,8.622h-4.761ZM97.25,51.542h-66.5V38.078h66.5ZM54.161,54.9H73.839v9.644H54.161ZM27.386,51.542H22.626l4.759-8.622Zm79.155,38.38H21.459V54.9H50.8V66.23a1.681,1.681,0,0,0,1.681,1.681H75.52A1.681,1.681,0,0,0,77.2,66.23V54.9h29.34Z" style="fill:#562b00"/></svg>