<svg id="Layer_3" data-name="Layer 3" xmlns="http://www.w3.org/2000/svg" viewBox="0 0 128 128"><title>Artboard 109</title><rect x="24.187" y="40.2" width="79.626" height="45.919" style="fill:#ce9f36"/><rect x="19.395" y="20.5" width="89.211" height="21.38" style="fill:#e5c439"/><rect x="19.395" y="53.309" width="89.211" height="21.382" style="fill:#e5c439"/><rect x="19.395" y="86.119" width="89.211" height="21.38" style="fill:#e5c439"/><path d="M108.605,18.819H19.395A1.681,1.681,0,0,0,17.714,20.5v21.38a1.681,1.681,0,0,0,1.681,1.681h3.111v8.066H19.395a1.681,1.681,0,0,0-1.681,1.681V74.691a1.681,1.681,0,0,0,1.681,1.681h3.111v8.066H19.395a1.681,1.681,0,0,0-1.681,1.681V107.5a1.681,1.681,0,0,0,1.681,1.681h89.211a1.681,1.681,0,0,0,1.681-1.681V86.119a1.681,1.681,0,0,0-1.681-1.681h-3.111V76.372h3.111a1.681,1.681,0,0,0,1.681-1.681V53.309a1.681,1.681,0,0,0-1.681-1.681h-3.111V43.562h3.111a1.681,1.681,0,0,0,1.681-1.681V20.5A1.681,1.681,0,0,0,108.605,18.819ZM32.689,40.2V22.182H95.313V40.2ZM21.076,22.182h8.251V40.2H21.076Zm0,32.809h8.251V73.01H21.076Zm74.237,0V73.01H32.689V54.99ZM21.076,87.8h8.251v18.018H21.076Zm74.237,0v18.018H32.689V87.8Zm11.611,18.018H98.675V87.8h8.249Zm-4.792-21.381H25.868V76.372h76.264Zm4.792-11.428H98.675V54.99h8.249Zm-4.792-21.382H25.868V43.562h76.264ZM106.924,40.2H98.675V22.182h8.249Z" style="fill:#562b00"/></svg>