<svg id="Layer_3" data-name="Layer 3" xmlns="http://www.w3.org/2000/svg" viewBox="0 0 128 128"><title>Artboard 98</title><rect x="20.003" y="32.095" width="87.994" height="63.811" style="fill:#e5c439"/><rect x="50.452" y="32.095" width="27.767" height="15.672" style="fill:#ce9f36"/><path d="M20,97.587H108a1.681,1.681,0,0,0,1.681-1.681V32.094A1.681,1.681,0,0,0,108,30.413H20a1.681,1.681,0,0,0-1.681,1.681V95.906A1.681,1.681,0,0,0,20,97.587Zm32.13-63.811h24.4v12.31h-24.4Zm-30.449,0H48.771V47.767a1.681,1.681,0,0,0,1.681,1.681H78.219A1.681,1.681,0,0,0,79.9,47.767V33.776h26.416V94.224H21.684Z" style="fill:#562b00"/><path d="M50.452,83.254H30.3a1.681,1.681,0,0,0,0,3.362H50.452a1.681,1.681,0,1,0,0-3.362Z" style="fill:#562b00"/></svg>