<?xml version="1.0" encoding="utf-8"?>
<!-- Generator: Adobe Illustrator 22.1.0, SVG Export Plug-In . SVG Version: 6.00 Build 0)  -->
<svg version="1.1" id="Layer_1" xmlns="http://www.w3.org/2000/svg" xmlns:xlink="http://www.w3.org/1999/xlink" x="0px" y="0px"
	 viewBox="0 0 256 256" style="enable-background:new 0 0 256 256;" xml:space="preserve">
<style type="text/css">
	.st0{fill:#FCC24C;}
	.st1{fill:#FCE06A;}
	.st2{fill:#DEA42E;}
	.st3{fill:#690589;}
	.st4{fill:#7BAC51;}
	.st5{fill:#5D8E33;}
	.st6{fill:#99CA6F;}
	.st7{fill:#F4EFED;}
	.st8{fill:#FF4397;}
	.st9{fill:#D6D1CF;}
	.st10{fill:#FFFFFF;}
	.st11{fill:#FF9F70;}
	.st12{fill:#FFBD8E;}
	.st13{fill:#E18152;}
	.st14{fill:#E12579;}
	.st15{fill:#FF61B5;}
</style>
<g>
	<g>
		<path class="st4" d="M24.487,29v37h207.026V29c0-13.807-11.193-25-25-25H49.487C35.68,4,24.487,15.193,24.487,29z"/>
	</g>
	<g>
		<path class="st7" d="M24.487,66v62v62v37c0,13.807,11.193,25,25,25h157.026c13.807,0,25-11.193,25-25v-37v-62V66H24.487z"/>
	</g>
	<g>
		<path class="st5" d="M206.513,4h-10c13.807,0,25,11.193,25,25v37h10V29C231.513,15.193,220.32,4,206.513,4z"/>
	</g>
	<g>
		<path class="st6" d="M49.487,4h10c-13.807,0-25,11.193-25,25v37h-10V29C24.487,15.193,35.68,4,49.487,4z"/>
	</g>
	<g>
		<path class="st9" d="M221.513,66v62v62v37c0,13.807-11.193,25-25,25h10c13.807,0,25-11.193,25-25v-37v-62V66H221.513z"/>
	</g>
	<g>
		<path class="st10" d="M34.487,66v62v62v37c0,13.807,11.193,25,25,25h-10c-13.807,0-25-11.193-25-25v-37v-62V66H34.487z"/>
	</g>
	<g>
		<path class="st3" d="M231.513,68H24.487c-1.104,0-2-0.895-2-2V29c0-14.888,12.112-27,27-27h157.026c14.888,0,27,12.112,27,27v37
			C233.513,67.105,232.617,68,231.513,68z M26.487,64h203.026V29c0-12.682-10.317-23-23-23H49.487c-12.682,0-23,10.318-23,23V64z"/>
	</g>
	<g>
		<path class="st3" d="M206.513,254H49.487c-14.888,0-27-12.112-27-27V66c0-1.104,0.896-2,2-2h207.026c1.105,0,2,0.896,2,2v161
			C233.513,241.888,221.4,254,206.513,254z M26.487,68v159c0,12.682,10.318,23,23,23h157.026c12.683,0,23-10.318,23-23V68H26.487z"
			/>
	</g>
	<g>
		<path class="st3" d="M32.487,97.444c-1.104,0-2-0.896-2-2v-12c0-1.104,0.896-2,2-2s2,0.896,2,2v12
			C34.487,96.548,33.591,97.444,32.487,97.444z"/>
	</g>
	<g>
		<path class="st3" d="M162.504,254H93.496c-1.104,0-2-0.895-2-2V66c0-1.104,0.896-2,2-2h69.008c1.105,0,2,0.896,2,2v186
			C164.504,253.105,163.608,254,162.504,254z M95.496,250h65.008V68H95.496V250z"/>
	</g>
	<g>
		<path class="st3" d="M231.513,195.504H24.487c-1.104,0-2-0.895-2-2v-69.009c0-1.104,0.896-2,2-2h207.026c1.105,0,2,0.896,2,2
			v69.009C233.513,194.609,232.617,195.504,231.513,195.504z M26.487,191.504h203.026v-65.009H26.487V191.504z"/>
	</g>
	<g>
		<path class="st3" d="M56.102,48.579V21.004c0-1.449,1.169-2.57,2.571-2.57c0.047,0,0.047,0,0.14,0c0,0,0,0,0.047,0h6.45
			c4.907,0,8.88,3.973,8.88,8.88c0,2.01-0.654,3.832-1.776,5.328c2.805,1.776,4.721,4.908,4.721,8.459
			c0,5.562-4.486,10.049-10.002,10.049h-8.272c-0.047,0-0.047-0.047-0.047-0.047c-0.093,0-0.093,0.047-0.14,0.047
			C57.27,51.15,56.102,49.981,56.102,48.579z M61.29,31.1h4.02c2.056,0,3.692-1.729,3.692-3.786c0-2.056-1.637-3.692-3.692-3.692
			h-4.02V31.1z M61.29,45.962h5.842c2.664-0.046,4.814-2.15,4.814-4.861c0-2.664-2.15-4.767-4.814-4.814H61.29V45.962z"/>
	</g>
	<g>
		<path class="st3" d="M83.72,21.004c0-1.449,1.122-2.57,2.571-2.57c1.401,0,2.617,1.122,2.617,2.57v27.575
			c0,1.449-1.216,2.571-2.617,2.571c-1.449,0-2.571-1.122-2.571-2.571V21.004z"/>
	</g>
	<g>
		<path class="st3" d="M102.787,48.579c0,1.402-1.169,2.571-2.524,2.571c-1.448,0-2.57-1.169-2.57-2.571V21.425c0,0,0,0,0-0.047
			c-0.047-0.794,0.327-1.636,1.028-2.15c1.169-0.794,2.758-0.561,3.552,0.561l15.097,20.892V21.425c0-1.355,1.122-2.524,2.524-2.524
			c1.402,0,2.571,1.168,2.571,2.524v27.154c0,1.402-1.169,2.571-2.571,2.571c-0.747,0-1.448-0.374-1.916-0.935
			c-0.094-0.094-0.187-0.187-0.233-0.281l-14.956-20.751V48.579z"/>
	</g>
	<g>
		<path class="st3" d="M129.891,34.371c0-9.394,7.758-16.873,17.246-16.873c3.973,0,7.759,1.355,10.656,3.646
			c1.215,0.888,1.402,2.617,0.514,3.786c-0.888,1.122-2.617,1.355-3.785,0.42c-2.01-1.542-4.581-2.524-7.385-2.524
			c-3.365,0-6.31,1.262-8.413,3.412c-2.196,2.103-3.505,4.954-3.505,8.132c0,3.084,1.309,5.936,3.505,8.039
			c2.104,2.15,5.048,3.412,8.413,3.412c2.337,0,4.533-0.701,6.403-1.776v-6.403h-6.684c-1.449,0-2.664-1.215-2.664-2.664
			c0-1.496,1.215-2.617,2.664-2.617h9.207c0.047,0,0.047,0,0.047,0c0.047,0,0.047,0,0.047,0c1.495,0,2.711,1.122,2.711,2.617v10.329
			c0,0.327-0.094,0.514-0.141,0.794c-0.047,0.094-0.047,0.141-0.094,0.234v0.047c-0.14,0.42-0.42,0.794-0.888,1.122
			c-2.944,2.29-6.637,3.646-10.609,3.646C137.648,51.15,129.891,43.719,129.891,34.371z"/>
	</g>
	<g>
		<path class="st3" d="M195.178,22.5c2.897,3.085,4.721,7.198,4.721,11.825c0,4.627-1.823,8.787-4.721,11.825
			c-2.758,3.038-6.871,5.001-11.171,5.001c-4.486,0-8.6-1.963-11.45-5.001c-2.897-3.038-4.627-7.198-4.627-11.825
			c0-4.627,1.729-8.74,4.627-11.825c2.851-3.085,6.964-5.001,11.45-5.001C188.307,17.499,192.42,19.415,195.178,22.5z
			 M194.57,34.324c0-3.178-1.263-6.122-3.179-8.179c-1.963-2.103-4.58-3.318-7.385-3.318c-2.991,0-5.608,1.215-7.571,3.318
			c-1.963,2.057-3.178,5.001-3.178,8.179c0,3.178,1.215,6.123,3.178,8.132c1.963,2.104,4.58,3.365,7.571,3.365
			c2.805,0,5.422-1.262,7.385-3.365C193.308,40.447,194.57,37.502,194.57,34.324z"/>
	</g>
	<g>
		<polygon class="st0" points="128,175.339 111.873,183.817 114.953,165.859 101.906,153.141 119.936,150.521 128,134.183 
			136.063,150.521 154.094,153.141 141.047,165.859 144.127,183.817 		"/>
	</g>
	<g>
		<path class="st3" d="M144.127,185.817c-0.318,0-0.638-0.076-0.931-0.23L128,177.598l-15.196,7.989
			c-0.673,0.355-1.49,0.295-2.106-0.152c-0.616-0.448-0.924-1.206-0.795-1.956l2.902-16.921l-12.294-11.984
			c-0.545-0.531-0.741-1.326-0.506-2.05c0.235-0.724,0.861-1.251,1.615-1.361l16.99-2.469l7.598-15.396
			c0.337-0.683,1.032-1.115,1.794-1.115c0.761,0,1.457,0.432,1.794,1.115l7.598,15.396l16.99,2.469
			c0.753,0.109,1.379,0.637,1.614,1.361c0.235,0.724,0.039,1.519-0.506,2.05l-12.294,11.984l2.902,16.921
			c0.128,0.75-0.181,1.508-0.796,1.956C144.954,185.688,144.541,185.817,144.127,185.817z M128,173.338
			c0.32,0,0.639,0.077,0.931,0.23l12.54,6.592l-2.396-13.963c-0.11-0.648,0.105-1.311,0.575-1.77l10.146-9.889l-14.021-2.038
			c-0.651-0.094-1.214-0.503-1.506-1.094L128,138.702l-6.27,12.705c-0.292,0.59-0.855,1-1.506,1.094l-14.021,2.038l10.146,9.889
			c0.471,0.46,0.687,1.122,0.575,1.77l-2.395,13.963l12.54-6.592C127.361,173.415,127.68,173.338,128,173.338z"/>
	</g>
	<g>
		
			<ellipse transform="matrix(0.7071 -0.7071 0.7071 0.7071 -50.1871 69.3333)" class="st8" cx="58.599" cy="95.248" rx="9.218" ry="9.218"/>
	</g>
	<g>
		<path class="st3" d="M58.599,106.466c-6.185,0-11.218-5.032-11.218-11.218c0-6.186,5.032-11.218,11.218-11.218
			c6.186,0,11.218,5.032,11.218,11.218C69.817,101.434,64.785,106.466,58.599,106.466z M58.599,88.03
			c-3.98,0-7.218,3.238-7.218,7.218c0,3.98,3.238,7.218,7.218,7.218s7.218-3.238,7.218-7.218
			C65.817,91.268,62.579,88.03,58.599,88.03z"/>
	</g>
	<g>
		
			<ellipse transform="matrix(0.2298 -0.9732 0.9732 0.2298 61.2715 267.9154)" class="st8" cx="199.898" cy="95.248" rx="9.218" ry="9.218"/>
	</g>
	<g>
		<path class="st3" d="M199.898,106.466c-6.186,0-11.218-5.032-11.218-11.218c0-6.186,5.032-11.218,11.218-11.218
			c6.186,0,11.218,5.032,11.218,11.218C211.116,101.434,206.084,106.466,199.898,106.466z M199.898,88.03
			c-3.979,0-7.218,3.238-7.218,7.218c0,3.98,3.238,7.218,7.218,7.218c3.98,0,7.218-3.238,7.218-7.218
			C207.116,91.268,203.878,88.03,199.898,88.03z"/>
	</g>
	<g>
		
			<ellipse transform="matrix(0.9872 -0.1593 0.1593 0.9872 -32.9254 34.6804)" class="st8" cx="199.898" cy="222.752" rx="9.218" ry="9.218"/>
	</g>
	<g>
		<path class="st3" d="M199.898,233.97c-6.186,0-11.218-5.032-11.218-11.217c0-6.186,5.032-11.218,11.218-11.218
			c6.186,0,11.218,5.033,11.218,11.218C211.116,228.938,206.084,233.97,199.898,233.97z M199.898,215.534
			c-3.979,0-7.218,3.238-7.218,7.218c0,3.98,3.238,7.217,7.218,7.217c3.98,0,7.218-3.238,7.218-7.217
			C207.116,218.773,203.878,215.534,199.898,215.534z"/>
	</g>
</g>
</svg>
