<?xml version="1.0" encoding="utf-8"?>
<!-- Generator: Adobe Illustrator 22.1.0, SVG Export Plug-In . SVG Version: 6.00 Build 0)  -->
<svg version="1.1" id="Layer_1" xmlns="http://www.w3.org/2000/svg" xmlns:xlink="http://www.w3.org/1999/xlink" x="0px" y="0px"
	 viewBox="0 0 256 256" style="enable-background:new 0 0 256 256;" xml:space="preserve">
<style type="text/css">
	.st0{fill:#FCC24C;}
	.st1{fill:#FCE06A;}
	.st2{fill:#DEA42E;}
	.st3{fill:#690589;}
	.st4{fill:#7BAC51;}
	.st5{fill:#5D8E33;}
	.st6{fill:#99CA6F;}
	.st7{fill:#F4EFED;}
	.st8{fill:#FF4397;}
	.st9{fill:#D6D1CF;}
	.st10{fill:#FFFFFF;}
	.st11{fill:#FF9F70;}
	.st12{fill:#FFBD8E;}
	.st13{fill:#E18152;}
	.st14{fill:#E12579;}
	.st15{fill:#FF61B5;}
</style>
<g>
	<g>
		<polygon class="st7" points="122.262,25.084 108.505,4.303 94.747,25.084 73.024,4.303 83.182,67.75 108.505,67.75 133.827,67.75 
			143.985,4.303 		"/>
	</g>
	<g>
		<g>
			<polygon class="st9" points="132.177,15.6 123.827,67.75 133.827,67.75 143.985,4.303 			"/>
		</g>
	</g>
	<g>
		<g>
			<polygon class="st10" points="84.833,15.6 93.182,67.75 83.182,67.75 73.024,4.303 			"/>
		</g>
	</g>
	<g>
		<path class="st3" d="M133.827,69.75H83.183c-0.982,0-1.819-0.714-1.975-1.684L71.05,4.619c-0.136-0.849,0.285-1.688,1.045-2.088
			c0.762-0.397,1.692-0.267,2.312,0.326l19.994,19.127l12.437-18.786c0.37-0.559,0.997-0.895,1.667-0.895
			c0.671,0,1.297,0.337,1.668,0.895l12.437,18.786l19.994-19.127c0.62-0.594,1.551-0.724,2.312-0.326
			c0.761,0.399,1.182,1.239,1.045,2.088l-10.158,63.447C135.646,69.036,134.81,69.75,133.827,69.75z M84.888,65.75h47.234
			l8.948-55.891l-17.426,16.67c-0.428,0.408-1.015,0.61-1.604,0.542c-0.589-0.065-1.119-0.39-1.445-0.883l-12.09-18.263
			l-12.09,18.263c-0.327,0.493-0.856,0.817-1.445,0.883c-0.589,0.068-1.176-0.134-1.604-0.542L75.939,9.859L84.888,65.75z"/>
	</g>
	<g>
		<path class="st7" d="M204.494,181.99c0,53.013-42.976,70.01-95.99,70.01s-95.989-16.997-95.989-70.01
			c0-53.014,42.976-121.969,95.989-121.969S204.494,128.976,204.494,181.99z"/>
	</g>
	<g>
		<path class="st9" d="M108.505,60.021c-2.183,0-4.348,0.128-6.495,0.356c49.984,5.308,89.495,70.783,89.495,121.613
			c0,50.829-39.513,68.536-89.495,69.911c2.149,0.059,4.31,0.099,6.495,0.099c53.014,0,95.99-16.997,95.99-70.01
			C204.494,128.976,161.518,60.021,108.505,60.021z"/>
	</g>
	<g>
		<path class="st10" d="M108.505,60.021c2.183,0,4.348,0.128,6.495,0.356C65.016,65.685,25.505,131.16,25.505,181.99
			c0,50.829,39.513,68.536,89.495,69.911c-2.149,0.059-4.31,0.099-6.495,0.099c-53.014,0-95.99-16.997-95.99-70.01
			C12.515,128.976,55.491,60.021,108.505,60.021z"/>
	</g>
	<g>
		<path class="st3" d="M108.505,254c-29.39,0-52.583-5.191-68.936-15.43c-19.278-12.07-29.053-31.106-29.053-56.58
			c0-26.855,10.653-57.525,28.498-82.042c19.68-27.037,44.359-41.928,69.492-41.928s49.813,14.891,69.492,41.928
			c17.844,24.517,28.497,55.187,28.497,82.042c0,25.474-9.775,44.51-29.053,56.58C161.088,248.809,137.895,254,108.505,254z
			 M108.505,62.021c-23.82,0-47.351,14.306-66.258,40.281c-17.365,23.858-27.732,53.647-27.732,79.688
			c0,24.004,9.144,41.899,27.176,53.189C57.398,245.014,79.877,250,108.505,250c28.627,0,51.107-4.986,66.813-14.82
			c18.033-11.29,27.176-29.186,27.176-53.189c0-26.041-10.367-55.83-27.732-79.688C155.856,76.326,132.325,62.021,108.505,62.021z"
			/>
	</g>
	<g>
		<path class="st3" d="M48.384,110.029c-0.408,0-0.82-0.124-1.176-0.383c-0.893-0.65-1.09-1.901-0.44-2.794
			c3.283-4.511,6.794-8.795,10.436-12.735c0.748-0.812,2.014-0.862,2.826-0.111c0.811,0.75,0.861,2.015,0.111,2.826
			c-3.536,3.826-6.947,7.989-10.139,12.374C49.611,109.744,49.001,110.029,48.384,110.029z"/>
	</g>
	<g>
		<g>
			<path class="st3" d="M111.431,116.149c2.149,0,3.849,1.701,3.849,3.85v1.97c5.282,0.627,9.759,2.328,13.877,4.924
				c1.433,0.806,2.686,2.149,2.686,4.297c0,2.775-2.239,4.924-5.014,4.924c-0.896,0-1.79-0.269-2.686-0.806
				c-3.134-1.88-6.177-3.223-9.221-3.939v17.189c13.607,3.402,19.427,8.863,19.427,18.443c0,9.848-7.699,16.383-19.07,17.458v5.371
				c0,2.149-1.701,3.85-3.849,3.85c-2.149,0-3.939-1.702-3.939-3.85v-5.55c-6.714-0.717-12.891-3.133-18.353-6.984
				c-1.522-0.985-2.418-2.416-2.418-4.297c0-2.775,2.149-4.924,4.924-4.924c1.074,0,2.149,0.359,2.955,0.985
				c4.208,3.044,8.326,5.104,13.25,5.999v-17.637c-13.071-3.402-19.159-8.326-19.159-18.443c0-9.58,7.61-16.205,18.801-17.1v-1.88
				C107.491,117.851,109.282,116.149,111.431,116.149z M107.85,146.678v-15.846c-5.73,0.537-8.594,3.581-8.594,7.52
				C99.255,142.113,100.956,144.441,107.85,146.678z M114.923,159.122v16.294c5.73-0.627,8.863-3.492,8.863-7.789
				C123.786,163.689,121.816,161.271,114.923,159.122z"/>
		</g>
	</g>
	<g>
		<path class="st0" d="M156.979,236.568h52.701c2.058,0,3.727,1.669,3.727,3.727v7.979c0,2.058-1.669,3.727-3.727,3.727h-52.701
			c-2.058,0-3.727-1.669-3.727-3.727v-7.979C153.252,238.236,154.921,236.568,156.979,236.568z"/>
	</g>
	<g>
		<path class="st2" d="M209.68,236.568h-7.454c2.058,0,3.727,1.669,3.727,3.727v7.979c0,2.058-1.668,3.727-3.727,3.727h7.454
			c2.058,0,3.727-1.669,3.727-3.727v-7.979C213.407,238.236,211.739,236.568,209.68,236.568z"/>
	</g>
	<g>
		<path class="st1" d="M156.979,252h7.454c-2.058,0-3.727-1.669-3.727-3.727v-7.979c0-2.058,1.668-3.727,3.727-3.727h-7.454
			c-2.058,0-3.727,1.669-3.727,3.727v7.979C153.252,250.331,154.921,252,156.979,252z"/>
	</g>
	<g>
		<path class="st3" d="M209.68,254h-52.701c-3.158,0-5.727-2.569-5.727-5.727v-7.98c0-3.157,2.569-5.727,5.727-5.727h52.701
			c3.158,0,5.727,2.569,5.727,5.727v7.98C215.407,251.431,212.838,254,209.68,254z M156.979,238.567
			c-0.952,0-1.727,0.774-1.727,1.727v7.98c0,0.952,0.775,1.727,1.727,1.727h52.701c0.952,0,1.727-0.774,1.727-1.727v-7.98
			c0-0.952-0.775-1.727-1.727-1.727H156.979z"/>
	</g>
	<g>
		<path class="st0" d="M156.979,221.046h52.701c2.058,0,3.727,1.668,3.727,3.727v7.979c0,2.058-1.669,3.727-3.727,3.727h-52.701
			c-2.058,0-3.727-1.669-3.727-3.727v-7.979C153.252,222.714,154.921,221.046,156.979,221.046z"/>
	</g>
	<g>
		<path class="st2" d="M209.68,221.046h-7.454c2.058,0,3.727,1.669,3.727,3.727v7.979c0,2.058-1.668,3.727-3.727,3.727h7.454
			c2.058,0,3.727-1.669,3.727-3.727v-7.979C213.407,222.714,211.739,221.046,209.68,221.046z"/>
	</g>
	<g>
		<path class="st1" d="M156.979,236.478h7.454c-2.058,0-3.727-1.669-3.727-3.727v-7.979c0-2.058,1.668-3.727,3.727-3.727h-7.454
			c-2.058,0-3.727,1.669-3.727,3.727v7.979C153.252,234.809,154.921,236.478,156.979,236.478z"/>
	</g>
	<g>
		<path class="st3" d="M209.68,238.479h-52.701c-3.158,0-5.727-2.569-5.727-5.727v-7.979c0-3.157,2.569-5.727,5.727-5.727h52.701
			c3.158,0,5.727,2.569,5.727,5.727v7.979C215.407,235.909,212.838,238.479,209.68,238.479z M156.979,223.046
			c-0.952,0-1.727,0.774-1.727,1.727v7.979c0,0.952,0.775,1.727,1.727,1.727h52.701c0.952,0,1.727-0.775,1.727-1.727v-7.979
			c0-0.952-0.775-1.727-1.727-1.727H156.979z"/>
	</g>
	<g>
		<path class="st0" d="M156.979,205.524h52.701c2.058,0,3.727,1.669,3.727,3.727v7.979c0,2.058-1.669,3.727-3.727,3.727h-52.701
			c-2.058,0-3.727-1.669-3.727-3.727v-7.979C153.252,207.192,154.921,205.524,156.979,205.524z"/>
	</g>
	<g>
		<path class="st2" d="M209.68,205.524h-7.454c2.058,0,3.727,1.669,3.727,3.727v7.979c0,2.058-1.668,3.727-3.727,3.727h7.454
			c2.058,0,3.727-1.669,3.727-3.727v-7.979C213.407,207.192,211.739,205.524,209.68,205.524z"/>
	</g>
	<g>
		<path class="st1" d="M156.979,220.956h7.454c-2.058,0-3.727-1.669-3.727-3.727v-7.979c0-2.058,1.668-3.727,3.727-3.727h-7.454
			c-2.058,0-3.727,1.669-3.727,3.727v7.979C153.252,219.288,154.921,220.956,156.979,220.956z"/>
	</g>
	<g>
		<path class="st3" d="M209.68,222.956h-52.701c-3.158,0-5.727-2.569-5.727-5.727v-7.979c0-3.158,2.569-5.728,5.727-5.728h52.701
			c3.158,0,5.727,2.569,5.727,5.728v7.979C215.407,220.387,212.838,222.956,209.68,222.956z M156.979,207.523
			c-0.952,0-1.727,0.775-1.727,1.728v7.979c0,0.952,0.775,1.727,1.727,1.727h52.701c0.952,0,1.727-0.775,1.727-1.727v-7.979
			c0-0.952-0.775-1.728-1.727-1.728H156.979z"/>
	</g>
	<g>
		<path class="st0" d="M187.056,236.568h52.701c2.058,0,3.727,1.669,3.727,3.727v7.979c0,2.058-1.668,3.727-3.727,3.727h-52.701
			c-2.058,0-3.727-1.669-3.727-3.727v-7.979C183.33,238.236,184.998,236.568,187.056,236.568z"/>
	</g>
	<g>
		<path class="st2" d="M239.758,236.568h-7.454c2.058,0,3.727,1.669,3.727,3.727v7.979c0,2.058-1.669,3.727-3.727,3.727h7.454
			c2.058,0,3.727-1.669,3.727-3.727v-7.979C243.485,238.236,241.816,236.568,239.758,236.568z"/>
	</g>
	<g>
		<path class="st1" d="M187.056,252h7.454c-2.058,0-3.727-1.669-3.727-3.727v-7.979c0-2.058,1.669-3.727,3.727-3.727h-7.454
			c-2.058,0-3.727,1.669-3.727,3.727v7.979C183.33,250.331,184.998,252,187.056,252z"/>
	</g>
	<g>
		<path class="st3" d="M239.758,254h-52.701c-3.158,0-5.727-2.569-5.727-5.727v-7.98c0-3.157,2.569-5.727,5.727-5.727h52.701
			c3.158,0,5.727,2.569,5.727,5.727v7.98C245.485,251.431,242.915,254,239.758,254z M187.057,238.567
			c-0.952,0-1.727,0.774-1.727,1.727v7.98c0,0.952,0.775,1.727,1.727,1.727h52.701c0.952,0,1.727-0.774,1.727-1.727v-7.98
			c0-0.952-0.775-1.727-1.727-1.727H187.057z"/>
	</g>
	<g>
		<path class="st0" d="M187.056,221.046h52.701c2.058,0,3.727,1.668,3.727,3.727v7.979c0,2.058-1.668,3.727-3.727,3.727h-52.701
			c-2.058,0-3.727-1.669-3.727-3.727v-7.979C183.33,222.714,184.998,221.046,187.056,221.046z"/>
	</g>
	<g>
		<path class="st2" d="M239.758,221.046h-7.454c2.058,0,3.727,1.669,3.727,3.727v7.979c0,2.058-1.669,3.727-3.727,3.727h7.454
			c2.058,0,3.727-1.669,3.727-3.727v-7.979C243.485,222.714,241.816,221.046,239.758,221.046z"/>
	</g>
	<g>
		<path class="st1" d="M187.056,236.478h7.454c-2.058,0-3.727-1.669-3.727-3.727v-7.979c0-2.058,1.669-3.727,3.727-3.727h-7.454
			c-2.058,0-3.727,1.669-3.727,3.727v7.979C183.33,234.809,184.998,236.478,187.056,236.478z"/>
	</g>
	<g>
		<path class="st3" d="M239.758,238.479h-52.701c-3.158,0-5.727-2.569-5.727-5.727v-7.979c0-3.157,2.569-5.727,5.727-5.727h52.701
			c3.158,0,5.727,2.569,5.727,5.727v7.979C245.485,235.909,242.915,238.479,239.758,238.479z M187.057,223.046
			c-0.952,0-1.727,0.774-1.727,1.727v7.979c0,0.952,0.775,1.727,1.727,1.727h52.701c0.952,0,1.727-0.775,1.727-1.727v-7.979
			c0-0.952-0.775-1.727-1.727-1.727H187.057z"/>
	</g>
	<g>
		<path class="st0" d="M187.056,205.524h52.701c2.058,0,3.727,1.669,3.727,3.727v7.979c0,2.058-1.668,3.727-3.727,3.727h-52.701
			c-2.058,0-3.727-1.669-3.727-3.727v-7.979C183.33,207.192,184.998,205.524,187.056,205.524z"/>
	</g>
	<g>
		<path class="st2" d="M239.758,205.524h-7.454c2.058,0,3.727,1.669,3.727,3.727v7.979c0,2.058-1.669,3.727-3.727,3.727h7.454
			c2.058,0,3.727-1.669,3.727-3.727v-7.979C243.485,207.192,241.816,205.524,239.758,205.524z"/>
	</g>
	<g>
		<path class="st1" d="M187.056,220.956h7.454c-2.058,0-3.727-1.669-3.727-3.727v-7.979c0-2.058,1.669-3.727,3.727-3.727h-7.454
			c-2.058,0-3.727,1.669-3.727,3.727v7.979C183.33,219.288,184.998,220.956,187.056,220.956z"/>
	</g>
	<g>
		<path class="st3" d="M239.758,222.956h-52.701c-3.158,0-5.727-2.569-5.727-5.727v-7.979c0-3.158,2.569-5.728,5.727-5.728h52.701
			c3.158,0,5.727,2.569,5.727,5.728v7.979C245.485,220.387,242.915,222.956,239.758,222.956z M187.057,207.523
			c-0.952,0-1.727,0.775-1.727,1.728v7.979c0,0.952,0.775,1.727,1.727,1.727h52.701c0.952,0,1.727-0.775,1.727-1.727v-7.979
			c0-0.952-0.775-1.728-1.727-1.728H187.057z"/>
	</g>
	<g>
		<path class="st0" d="M156.979,190.002h52.701c2.058,0,3.727,1.668,3.727,3.727v7.979c0,2.058-1.669,3.727-3.727,3.727h-52.701
			c-2.058,0-3.727-1.669-3.727-3.727v-7.979C153.252,191.67,154.921,190.002,156.979,190.002z"/>
	</g>
	<g>
		<path class="st2" d="M209.68,190.002h-7.454c2.058,0,3.727,1.668,3.727,3.727v7.979c0,2.058-1.668,3.727-3.727,3.727h7.454
			c2.058,0,3.727-1.669,3.727-3.727v-7.979C213.407,191.67,211.739,190.002,209.68,190.002z"/>
	</g>
	<g>
		<path class="st1" d="M156.979,205.434h7.454c-2.058,0-3.727-1.669-3.727-3.727v-7.979c0-2.058,1.668-3.727,3.727-3.727h-7.454
			c-2.058,0-3.727,1.668-3.727,3.727v7.979C153.252,203.766,154.921,205.434,156.979,205.434z"/>
	</g>
	<g>
		<path class="st3" d="M209.68,207.435h-52.701c-3.158,0-5.727-2.569-5.727-5.728v-7.979c0-3.157,2.569-5.727,5.727-5.727h52.701
			c3.158,0,5.727,2.569,5.727,5.727v7.979C215.407,204.865,212.838,207.435,209.68,207.435z M156.979,192.002
			c-0.952,0-1.727,0.774-1.727,1.727v7.979c0,0.952,0.775,1.728,1.727,1.728h52.701c0.952,0,1.727-0.775,1.727-1.728v-7.979
			c0-0.952-0.775-1.727-1.727-1.727H156.979z"/>
	</g>
	<g>
		<path class="st0" d="M156.979,174.48h52.701c2.058,0,3.727,1.669,3.727,3.727v7.979c0,2.058-1.669,3.727-3.727,3.727h-52.701
			c-2.058,0-3.727-1.668-3.727-3.727v-7.979C153.252,176.148,154.921,174.48,156.979,174.48z"/>
	</g>
	<g>
		<path class="st2" d="M209.68,174.48h-7.454c2.058,0,3.727,1.669,3.727,3.727v7.979c0,2.058-1.668,3.727-3.727,3.727h7.454
			c2.058,0,3.727-1.669,3.727-3.727v-7.979C213.407,176.148,211.739,174.48,209.68,174.48z"/>
	</g>
	<g>
		<path class="st1" d="M156.979,189.912h7.454c-2.058,0-3.727-1.669-3.727-3.727v-7.979c0-2.058,1.668-3.727,3.727-3.727h-7.454
			c-2.058,0-3.727,1.669-3.727,3.727v7.979C153.252,188.244,154.921,189.912,156.979,189.912z"/>
	</g>
	<g>
		<path class="st3" d="M209.68,191.912h-52.701c-3.158,0-5.727-2.569-5.727-5.727v-7.979c0-3.158,2.569-5.727,5.727-5.727h52.701
			c3.158,0,5.727,2.569,5.727,5.727v7.979C215.407,189.343,212.838,191.912,209.68,191.912z M156.979,176.48
			c-0.952,0-1.727,0.775-1.727,1.727v7.979c0,0.952,0.775,1.727,1.727,1.727h52.701c0.952,0,1.727-0.774,1.727-1.727v-7.979
			c0-0.952-0.775-1.727-1.727-1.727H156.979z"/>
	</g>
	<g>
		<path class="st8" d="M133.827,51.467H83.182c-4.496,0-8.141,3.645-8.141,8.141l0,0c0,4.496,3.645,8.141,8.141,8.141h50.645
			c4.496,0,8.141-3.645,8.141-8.141l0,0C141.968,55.112,138.323,51.467,133.827,51.467z"/>
	</g>
	<g>
		<path class="st14" d="M133.827,51.467h-10c4.496,0,8.141,3.645,8.141,8.141s-3.645,8.141-8.141,8.141h10
			c4.496,0,8.141-3.645,8.141-8.141S138.323,51.467,133.827,51.467z"/>
	</g>
	<g>
		<path class="st15" d="M83.182,67.75h10c-4.496,0-8.141-3.645-8.141-8.141s3.645-8.141,8.141-8.141h-10
			c-4.496,0-8.141,3.645-8.141,8.141S78.686,67.75,83.182,67.75z"/>
	</g>
	<g>
		<path class="st3" d="M133.827,69.75H83.183c-5.592,0-10.142-4.55-10.142-10.142c0-5.592,4.549-10.142,10.142-10.142h50.644
			c5.592,0,10.141,4.55,10.141,10.142C143.968,65.2,139.419,69.75,133.827,69.75z M83.183,53.467c-3.387,0-6.142,2.755-6.142,6.142
			s2.755,6.142,6.142,6.142h50.644c3.386,0,6.141-2.755,6.141-6.142s-2.755-6.142-6.141-6.142H83.183z"/>
	</g>
</g>
</svg>
