<?xml version="1.0" encoding="utf-8"?>
<!-- Generator: Adobe Illustrator 22.1.0, SVG Export Plug-In . SVG Version: 6.00 Build 0)  -->
<svg version="1.1" id="Layer_1" xmlns="http://www.w3.org/2000/svg" xmlns:xlink="http://www.w3.org/1999/xlink" x="0px" y="0px"
	 viewBox="0 0 256 256" style="enable-background:new 0 0 256 256;" xml:space="preserve">
<style type="text/css">
	.st0{fill:#FCC24C;}
	.st1{fill:#FCE06A;}
	.st2{fill:#DEA42E;}
	.st3{fill:#690589;}
	.st4{fill:#7BAC51;}
	.st5{fill:#5D8E33;}
	.st6{fill:#99CA6F;}
	.st7{fill:#F4EFED;}
	.st8{fill:#FF4397;}
	.st9{fill:#D6D1CF;}
	.st10{fill:#FFFFFF;}
	.st11{fill:#FF9F70;}
	.st12{fill:#FFBD8E;}
	.st13{fill:#E18152;}
	.st14{fill:#E12579;}
	.st15{fill:#FF61B5;}
</style>
<g>
	<g>
		<path class="st0" d="M11.88,150.744h136.275c4.352,0,7.881,3.528,7.881,7.881v14.401c0,4.352-3.528,7.881-7.881,7.881H11.88
			c-4.352,0-7.88-3.528-7.88-7.881v-14.401C4,154.272,7.528,150.744,11.88,150.744z"/>
	</g>
	<g>
		<path class="st2" d="M148.155,150.744h-8.87c4.352,0,7.881,3.528,7.881,7.881v14.401c0,4.352-3.528,7.881-7.881,7.881h8.87
			c4.352,0,7.881-3.528,7.881-7.881v-14.401C156.036,154.272,152.508,150.744,148.155,150.744z"/>
	</g>
	<g>
		<path class="st1" d="M11.88,180.906h8.87c-4.352,0-7.88-3.528-7.88-7.881v-14.401c0-4.352,3.528-7.881,7.88-7.881h-8.87
			c-4.352,0-7.88,3.528-7.88,7.881v14.401C4,177.378,7.528,180.906,11.88,180.906z"/>
	</g>
	<g>
		<rect x="23.747" y="150.744" class="st7" width="22.508" height="30.163"/>
	</g>
	<g>
		<path class="st3" d="M46.255,182.906H23.747c-1.104,0-2-0.896-2-2v-30.163c0-1.104,0.896-2,2-2h22.508c1.104,0,2,0.896,2,2v30.163
			C48.255,182.011,47.36,182.906,46.255,182.906z M25.747,178.906h18.508v-26.163H25.747V178.906z"/>
	</g>
	<g>
		<rect x="68.764" y="150.744" class="st7" width="22.508" height="30.163"/>
	</g>
	<g>
		<path class="st3" d="M91.272,182.906H68.764c-1.104,0-2-0.896-2-2v-30.163c0-1.104,0.896-2,2-2h22.508c1.104,0,2,0.896,2,2v30.163
			C93.272,182.011,92.376,182.906,91.272,182.906z M70.764,178.906h18.508v-26.163H70.764V178.906z"/>
	</g>
	<g>
		<rect x="113.78" y="150.744" class="st7" width="22.508" height="30.163"/>
	</g>
	<g>
		<path class="st3" d="M136.289,182.906H113.78c-1.104,0-2-0.896-2-2v-30.163c0-1.104,0.896-2,2-2h22.509c1.104,0,2,0.896,2,2
			v30.163C138.289,182.011,137.394,182.906,136.289,182.906z M115.78,178.906h18.509v-26.163H115.78V178.906z"/>
	</g>
	<g>
		<path class="st3" d="M148.156,182.906H11.88c-5.448,0-9.88-4.432-9.88-9.88v-14.402c0-5.448,4.432-9.88,9.88-9.88h136.275
			c5.448,0,9.88,4.432,9.88,9.88v14.402C158.036,178.474,153.604,182.906,148.156,182.906z M11.88,152.744
			c-3.243,0-5.88,2.638-5.88,5.88v14.402c0,3.243,2.638,5.88,5.88,5.88h136.275c3.243,0,5.88-2.638,5.88-5.88v-14.402
			c0-3.243-2.638-5.88-5.88-5.88H11.88z"/>
	</g>
	<g>
		<path class="st8" d="M11.88,120.581h136.275c4.352,0,7.881,3.528,7.881,7.881v14.402c0,4.352-3.528,7.88-7.881,7.88H11.88
			c-4.352,0-7.88-3.528-7.88-7.88v-14.402C4,124.109,7.528,120.581,11.88,120.581z"/>
	</g>
	<g>
		<path class="st14" d="M148.155,120.581h-8.87c4.352,0,7.881,3.528,7.881,7.881v14.402c0,4.352-3.528,7.88-7.881,7.88h8.87
			c4.352,0,7.881-3.528,7.881-7.88v-14.402C156.036,124.109,152.508,120.581,148.155,120.581z"/>
	</g>
	<g>
		<path class="st15" d="M11.88,150.744h8.87c-4.352,0-7.88-3.528-7.88-7.88v-14.401c0-4.352,3.528-7.881,7.88-7.881h-8.87
			c-4.352,0-7.88,3.528-7.88,7.881v14.401C4,147.215,7.528,150.744,11.88,150.744z"/>
	</g>
	<g>
		<rect x="23.747" y="120.581" class="st7" width="22.508" height="30.163"/>
	</g>
	<g>
		<path class="st3" d="M46.255,152.744H23.747c-1.104,0-2-0.896-2-2v-30.163c0-1.104,0.896-2,2-2h22.508c1.104,0,2,0.896,2,2v30.163
			C48.255,151.848,47.36,152.744,46.255,152.744z M25.747,148.744h18.508v-26.163H25.747V148.744z"/>
	</g>
	<g>
		<rect x="68.764" y="120.581" class="st7" width="22.508" height="30.163"/>
	</g>
	<g>
		<path class="st3" d="M91.272,152.744H68.764c-1.104,0-2-0.896-2-2v-30.163c0-1.104,0.896-2,2-2h22.508c1.104,0,2,0.896,2,2v30.163
			C93.272,151.848,92.376,152.744,91.272,152.744z M70.764,148.744h18.508v-26.163H70.764V148.744z"/>
	</g>
	<g>
		<rect x="113.78" y="120.581" class="st7" width="22.508" height="30.163"/>
	</g>
	<g>
		<path class="st3" d="M136.289,152.744H113.78c-1.104,0-2-0.896-2-2v-30.163c0-1.104,0.896-2,2-2h22.509c1.104,0,2,0.896,2,2
			v30.163C138.289,151.848,137.394,152.744,136.289,152.744z M115.78,148.744h18.509v-26.163H115.78V148.744z"/>
	</g>
	<g>
		<path class="st3" d="M148.156,152.744H11.88c-5.448,0-9.88-4.432-9.88-9.88v-14.401c0-5.448,4.432-9.881,9.88-9.881h136.275
			c5.448,0,9.88,4.433,9.88,9.881v14.401C158.036,148.311,153.604,152.744,148.156,152.744z M11.88,122.581
			c-3.243,0-5.88,2.638-5.88,5.881v14.401c0,3.243,2.638,5.88,5.88,5.88h136.275c3.243,0,5.88-2.638,5.88-5.88v-14.401
			c0-3.243-2.638-5.881-5.88-5.881H11.88z"/>
	</g>
	<g>
		<path class="st0" d="M11.88,90.419h136.275c4.352,0,7.881,3.528,7.881,7.88v14.401c0,4.352-3.528,7.881-7.881,7.881H11.88
			c-4.352,0-7.88-3.528-7.88-7.881V98.299C4,93.947,7.528,90.419,11.88,90.419z"/>
	</g>
	<g>
		<path class="st2" d="M148.155,90.419h-8.87c4.352,0,7.881,3.528,7.881,7.88v14.401c0,4.352-3.528,7.881-7.881,7.881h8.87
			c4.352,0,7.881-3.528,7.881-7.881V98.299C156.036,93.947,152.508,90.419,148.155,90.419z"/>
	</g>
	<g>
		<path class="st1" d="M11.88,120.581h8.87c-4.352,0-7.88-3.528-7.88-7.881V98.299c0-4.352,3.528-7.881,7.88-7.881h-8.87
			c-4.352,0-7.88,3.528-7.88,7.881v14.401C4,117.053,7.528,120.581,11.88,120.581z"/>
	</g>
	<g>
		<rect x="23.747" y="90.419" class="st7" width="22.508" height="30.162"/>
	</g>
	<g>
		<path class="st3" d="M46.255,122.581H23.747c-1.104,0-2-0.896-2-2V90.419c0-1.104,0.896-2,2-2h22.508c1.104,0,2,0.896,2,2v30.162
			C48.255,121.686,47.36,122.581,46.255,122.581z M25.747,118.581h18.508V92.419H25.747V118.581z"/>
	</g>
	<g>
		<rect x="68.764" y="90.419" class="st7" width="22.508" height="30.162"/>
	</g>
	<g>
		<path class="st3" d="M91.272,122.581H68.764c-1.104,0-2-0.896-2-2V90.419c0-1.104,0.896-2,2-2h22.508c1.104,0,2,0.896,2,2v30.162
			C93.272,121.686,92.376,122.581,91.272,122.581z M70.764,118.581h18.508V92.419H70.764V118.581z"/>
	</g>
	<g>
		<rect x="113.78" y="90.419" class="st7" width="22.508" height="30.162"/>
	</g>
	<g>
		<path class="st3" d="M136.289,122.581H113.78c-1.104,0-2-0.896-2-2V90.419c0-1.104,0.896-2,2-2h22.509c1.104,0,2,0.896,2,2v30.162
			C138.289,121.686,137.394,122.581,136.289,122.581z M115.78,118.581h18.509V92.419H115.78V118.581z"/>
	</g>
	<g>
		<path class="st3" d="M148.156,122.581H11.88c-5.448,0-9.88-4.432-9.88-9.88V98.299c0-5.448,4.432-9.88,9.88-9.88h136.275
			c5.448,0,9.88,4.432,9.88,9.88v14.401C158.036,118.149,153.604,122.581,148.156,122.581z M11.88,92.419
			c-3.243,0-5.88,2.638-5.88,5.88v14.401c0,3.243,2.638,5.88,5.88,5.88h136.275c3.243,0,5.88-2.638,5.88-5.88V98.299
			c0-3.243-2.638-5.88-5.88-5.88H11.88z"/>
	</g>
	<g>
		<path class="st4" d="M11.88,60.256h136.275c4.352,0,7.881,3.528,7.881,7.88v14.401c0,4.352-3.528,7.881-7.881,7.881H11.88
			c-4.352,0-7.88-3.528-7.88-7.881V68.137C4,63.785,7.528,60.256,11.88,60.256z"/>
	</g>
	<g>
		<path class="st5" d="M148.155,60.256h-8.87c4.352,0,7.881,3.528,7.881,7.88v14.401c0,4.352-3.528,7.881-7.881,7.881h8.87
			c4.352,0,7.881-3.528,7.881-7.881V68.137C156.036,63.785,152.508,60.256,148.155,60.256z"/>
	</g>
	<g>
		<path class="st6" d="M11.88,90.419h8.87c-4.352,0-7.88-3.528-7.88-7.881V68.137c0-4.352,3.528-7.881,7.88-7.881h-8.87
			c-4.352,0-7.88,3.528-7.88,7.881v14.401C4,86.891,7.528,90.419,11.88,90.419z"/>
	</g>
	<g>
		<rect x="23.747" y="60.256" class="st7" width="22.508" height="30.163"/>
	</g>
	<g>
		<path class="st3" d="M46.255,92.419H23.747c-1.104,0-2-0.896-2-2V60.256c0-1.104,0.896-2,2-2h22.508c1.104,0,2,0.896,2,2v30.163
			C48.255,91.523,47.36,92.419,46.255,92.419z M25.747,88.419h18.508V62.256H25.747V88.419z"/>
	</g>
	<g>
		<rect x="68.764" y="60.256" class="st7" width="22.508" height="30.163"/>
	</g>
	<g>
		<path class="st3" d="M91.272,92.419H68.764c-1.104,0-2-0.896-2-2V60.256c0-1.104,0.896-2,2-2h22.508c1.104,0,2,0.896,2,2v30.163
			C93.272,91.523,92.376,92.419,91.272,92.419z M70.764,88.419h18.508V62.256H70.764V88.419z"/>
	</g>
	<g>
		<rect x="113.78" y="60.256" class="st7" width="22.508" height="30.163"/>
	</g>
	<g>
		<path class="st3" d="M136.289,92.419H113.78c-1.104,0-2-0.896-2-2V60.256c0-1.104,0.896-2,2-2h22.509c1.104,0,2,0.896,2,2v30.163
			C138.289,91.523,137.394,92.419,136.289,92.419z M115.78,88.419h18.509V62.256H115.78V88.419z"/>
	</g>
	<g>
		<path class="st3" d="M148.156,92.419H11.88c-5.448,0-9.88-4.433-9.88-9.881V68.137c0-5.448,4.432-9.88,9.88-9.88h136.275
			c5.448,0,9.88,4.432,9.88,9.88v14.401C158.036,87.986,153.604,92.419,148.156,92.419z M11.88,62.256
			c-3.243,0-5.88,2.638-5.88,5.88v14.401c0,3.243,2.638,5.881,5.88,5.881h136.275c3.243,0,5.88-2.638,5.88-5.881V68.137
			c0-3.243-2.638-5.88-5.88-5.88H11.88z"/>
	</g>
	<g>
		<path class="st8" d="M11.88,30.094h136.275c4.352,0,7.881,3.528,7.881,7.881v14.402c0,4.352-3.528,7.881-7.881,7.881H11.88
			c-4.352,0-7.88-3.528-7.88-7.881V37.974C4,33.622,7.528,30.094,11.88,30.094z"/>
	</g>
	<g>
		<path class="st14" d="M148.155,30.094h-8.87c4.352,0,7.881,3.528,7.881,7.881v14.402c0,4.352-3.528,7.881-7.881,7.881h8.87
			c4.352,0,7.881-3.528,7.881-7.881V37.974C156.036,33.622,152.508,30.094,148.155,30.094z"/>
	</g>
	<g>
		<path class="st15" d="M11.88,60.256h8.87c-4.352,0-7.88-3.528-7.88-7.881V37.974c0-4.352,3.528-7.881,7.88-7.881h-8.87
			c-4.352,0-7.88,3.528-7.88,7.881v14.401C4,56.728,7.528,60.256,11.88,60.256z"/>
	</g>
	<g>
		<rect x="23.747" y="30.094" class="st7" width="22.508" height="30.163"/>
	</g>
	<g>
		<path class="st3" d="M46.255,62.256H23.747c-1.104,0-2-0.896-2-2V30.094c0-1.104,0.896-2,2-2h22.508c1.104,0,2,0.896,2,2v30.163
			C48.255,61.361,47.36,62.256,46.255,62.256z M25.747,58.256h18.508V32.094H25.747V58.256z"/>
	</g>
	<g>
		<rect x="68.764" y="30.094" class="st7" width="22.508" height="30.163"/>
	</g>
	<g>
		<path class="st3" d="M91.272,62.256H68.764c-1.104,0-2-0.896-2-2V30.094c0-1.104,0.896-2,2-2h22.508c1.104,0,2,0.896,2,2v30.163
			C93.272,61.361,92.376,62.256,91.272,62.256z M70.764,58.256h18.508V32.094H70.764V58.256z"/>
	</g>
	<g>
		<rect x="113.78" y="30.094" class="st7" width="22.508" height="30.163"/>
	</g>
	<g>
		<path class="st3" d="M136.289,62.256H113.78c-1.104,0-2-0.896-2-2V30.094c0-1.104,0.896-2,2-2h22.509c1.104,0,2,0.896,2,2v30.163
			C138.289,61.361,137.394,62.256,136.289,62.256z M115.78,58.256h18.509V32.094H115.78V58.256z"/>
	</g>
	<g>
		<path class="st3" d="M148.156,62.256H11.88c-5.448,0-9.88-4.432-9.88-9.88V37.974c0-5.448,4.432-9.88,9.88-9.88h136.275
			c5.448,0,9.88,4.432,9.88,9.88v14.402C158.036,57.824,153.604,62.256,148.156,62.256z M11.88,32.094
			c-3.243,0-5.88,2.638-5.88,5.88v14.402c0,3.243,2.638,5.88,5.88,5.88h136.275c3.243,0,5.88-2.638,5.88-5.88V37.974
			c0-3.243-2.638-5.88-5.88-5.88H11.88z"/>
	</g>
	<g>
		
			<ellipse transform="matrix(0.1234 -0.9924 0.9924 0.1234 5.5226 306.0281)" class="st0" cx="175.982" cy="149.888" rx="76.018" ry="76.018"/>
	</g>
	<g>
		<path class="st2" d="M175.982,73.87c-3.035,0-6.022,0.198-8.964,0.544c37.756,4.438,67.054,36.525,67.054,75.474
			c0,38.949-29.298,71.036-67.054,75.474c2.942,0.346,5.929,0.544,8.964,0.544c41.983,0,76.018-34.034,76.018-76.018
			C252,107.905,217.965,73.87,175.982,73.87z"/>
	</g>
	<g>
		<path class="st1" d="M175.982,225.906c3.035,0,6.021-0.198,8.963-0.544c-37.757-4.438-67.055-36.525-67.055-75.474
			s29.298-71.036,67.055-75.474c-2.942-0.346-5.929-0.544-8.963-0.544c-41.984,0-76.018,34.035-76.018,76.018
			C99.964,191.872,133.998,225.906,175.982,225.906z"/>
	</g>
	<g>
		<path class="st7" d="M239.023,107.395c-4.483-6.638-10.001-12.513-16.3-17.434l-34.815,34.815V74.809
			c-3.886-0.613-7.868-0.938-11.927-0.938c-4.059,0-8.04,0.326-11.927,0.938v49.968L129.24,89.961
			c-6.299,4.92-11.817,10.796-16.3,17.434l34.248,34.248h-46.772c-0.292,2.709-0.453,5.458-0.453,8.245
			c0,5.351,0.559,10.57,1.611,15.609h45.613l-31.133,31.133c4.921,6.3,10.796,11.817,17.434,16.3l30.566-30.566v42.604
			c3.886,0.613,7.868,0.938,11.927,0.938c4.059,0,8.04-0.326,11.927-0.938v-42.604l30.566,30.566c6.638-4.483,12.513-10,17.434-16.3
			l-31.133-31.133h45.613c1.052-5.039,1.611-10.258,1.611-15.609c0-2.787-0.16-5.536-0.453-8.245h-46.772L239.023,107.395z"/>
	</g>
	<g>
		<path class="st3" d="M175.982,227.906c-4.069,0-8.186-0.324-12.238-0.963c-0.972-0.153-1.688-0.991-1.688-1.976v-37.776
			l-27.152,27.152c-0.678,0.678-1.74,0.78-2.534,0.243c-6.778-4.578-12.797-10.206-17.89-16.726
			c-0.622-0.796-0.552-1.931,0.162-2.645l27.718-27.719h-40.784c-0.947,0-1.764-0.664-1.958-1.591
			c-1.097-5.256-1.653-10.645-1.653-16.017c0-2.76,0.156-5.607,0.464-8.46c0.109-1.016,0.967-1.785,1.988-1.785h41.943
			l-30.834-30.833c-0.677-0.677-0.779-1.74-0.243-2.533c4.577-6.778,10.204-12.797,16.726-17.891
			c0.796-0.622,1.932-0.552,2.645,0.162l31.401,31.4V74.809c0-0.984,0.716-1.822,1.688-1.976c8.103-1.278,16.372-1.278,24.477,0
			c0.972,0.153,1.689,0.991,1.689,1.976v45.139l31.4-31.4c0.714-0.714,1.849-0.784,2.645-0.162
			c6.521,5.094,12.149,11.113,16.727,17.891c0.536,0.793,0.434,1.856-0.243,2.533l-30.833,30.834h41.943
			c1.021,0,1.879,0.77,1.988,1.785c0.308,2.853,0.464,5.7,0.464,8.46c0,5.371-0.556,10.76-1.653,16.017
			c-0.194,0.927-1.011,1.591-1.958,1.591h-40.785l27.719,27.719c0.714,0.714,0.784,1.849,0.162,2.645
			c-5.093,6.521-11.113,12.148-17.891,16.726c-0.794,0.537-1.855,0.435-2.534-0.243l-27.152-27.151v37.775
			c0,0.984-0.716,1.822-1.689,1.976C184.168,227.583,180.05,227.906,175.982,227.906z M166.055,223.239
			c6.596,0.887,13.255,0.887,19.854,0v-40.875c0-0.809,0.487-1.538,1.235-1.848c0.747-0.31,1.608-0.139,2.179,0.434l29.386,29.386
			c5.405-3.829,10.278-8.379,14.52-13.557l-29.868-29.868c-0.572-0.572-0.743-1.432-0.434-2.179c0.31-0.747,1.039-1.235,1.848-1.235
			h43.97c0.833-4.482,1.255-9.052,1.255-13.608c0-2.042-0.09-4.136-0.269-6.245h-44.956c-0.809,0-1.538-0.487-1.848-1.235
			c-0.309-0.747-0.139-1.607,0.434-2.179l33.068-33.068c-3.829-5.405-8.379-10.277-13.558-14.52l-33.549,33.549
			c-0.572,0.572-1.434,0.742-2.179,0.434c-0.748-0.31-1.235-1.039-1.235-1.848V76.538c-6.598-0.887-13.257-0.887-19.854,0v48.239
			c0,0.809-0.487,1.538-1.235,1.848c-0.747,0.31-1.607,0.138-2.179-0.434l-33.549-33.549c-5.179,4.242-9.729,9.115-13.558,14.52
			l33.068,33.068c0.572,0.572,0.743,1.432,0.434,2.179c-0.309,0.748-1.038,1.235-1.848,1.235h-44.956
			c-0.179,2.109-0.269,4.203-0.269,6.245c0,4.557,0.422,9.127,1.255,13.608h43.969c0.809,0,1.538,0.487,1.848,1.235
			c0.31,0.747,0.139,1.607-0.433,2.179l-29.867,29.868c4.242,5.178,9.114,9.728,14.52,13.557l29.387-29.386
			c0.571-0.573,1.433-0.744,2.179-0.434c0.748,0.31,1.235,1.039,1.235,1.848V223.239z"/>
	</g>
	<g>
		<path class="st3" d="M175.982,227.906c-43.02,0-78.018-34.999-78.018-78.018s34.998-78.018,78.018-78.018
			c43.02,0,78.018,34.999,78.018,78.018S219.001,227.906,175.982,227.906z M175.982,75.87c-40.813,0-74.018,33.205-74.018,74.018
			s33.205,74.018,74.018,74.018c40.814,0,74.018-33.205,74.018-74.018S216.795,75.87,175.982,75.87z"/>
	</g>
	<g>
		
			<ellipse transform="matrix(0.2243 -0.9745 0.9745 0.2243 -9.5645 287.7599)" class="st4" cx="175.982" cy="149.888" rx="56.331" ry="56.331"/>
	</g>
	<g>
		<path class="st3" d="M175.982,208.219c-32.164,0-58.331-26.167-58.331-58.331c0-32.164,26.167-58.331,58.331-58.331
			c32.164,0,58.331,26.167,58.331,58.331C234.313,182.052,208.146,208.219,175.982,208.219z M175.982,95.557
			c-29.958,0-54.331,24.373-54.331,54.331s24.373,54.331,54.331,54.331s54.331-24.373,54.331-54.331S205.94,95.557,175.982,95.557z"
			/>
	</g>
	<g>
		<path class="st3" d="M127.499,150.943c-1.105,0-2-0.896-2-2c0-4.275,0.614-8.505,1.824-12.571
			c0.315-1.059,1.429-1.662,2.488-1.346c1.059,0.315,1.661,1.429,1.346,2.488c-1.1,3.695-1.658,7.54-1.658,11.429
			C129.499,150.048,128.603,150.943,127.499,150.943z"/>
	</g>
	<g>
		<path class="st7" d="M186.417,184.639l-4.109-13.355c6.832,3.774,15.594,2.778,21.389-3.018l0,0
			c7.019-7.019,7.019-18.399,0-25.418l-27.71-27.71l-27.709,27.71c-7.019,7.019-7.019,18.399,0,25.418
			c5.795,5.795,14.557,6.792,21.389,3.018l-4.109,13.355H186.417z"/>
	</g>
	<g>
		<path class="st3" d="M186.417,186.64h-20.859c-0.635,0-1.232-0.301-1.609-0.812c-0.377-0.51-0.489-1.169-0.303-1.776l2.866-9.314
			c-6.86,1.962-14.464,0.128-19.648-5.056c-7.788-7.788-7.788-20.458,0-28.246l27.709-27.71c0.78-0.781,2.048-0.781,2.828,0
			l27.709,27.71c7.788,7.788,7.788,20.458,0,28.246c-5.183,5.183-12.788,7.016-19.648,5.056l2.866,9.314
			c0.187,0.607,0.074,1.266-0.303,1.776C187.649,186.338,187.052,186.64,186.417,186.64z M168.266,182.64h15.443l-3.313-10.767
			c-0.24-0.78,0.018-1.627,0.65-2.141c0.633-0.515,1.514-0.594,2.229-0.198c6.191,3.421,14.008,2.318,19.008-2.681
			c6.228-6.228,6.228-16.362,0-22.59l-26.295-26.295l-26.295,26.295c-6.228,6.228-6.228,16.362,0,22.59
			c4.999,5,12.816,6.102,19.008,2.681c0.715-0.395,1.595-0.316,2.229,0.198c0.633,0.514,0.89,1.361,0.65,2.141L168.266,182.64z"/>
	</g>
</g>
</svg>
