<?xml version="1.0" encoding="utf-8"?>
<!-- Generator: Adobe Illustrator 22.1.0, SVG Export Plug-In . SVG Version: 6.00 Build 0)  -->
<svg version="1.1" id="Layer_1" xmlns="http://www.w3.org/2000/svg" xmlns:xlink="http://www.w3.org/1999/xlink" x="0px" y="0px"
	 viewBox="0 0 256 256" style="enable-background:new 0 0 256 256;" xml:space="preserve">
<style type="text/css">
	.st0{fill:#FCC24C;}
	.st1{fill:#FCE06A;}
	.st2{fill:#DEA42E;}
	.st3{fill:#690589;}
	.st4{fill:#7BAC51;}
	.st5{fill:#5D8E33;}
	.st6{fill:#99CA6F;}
	.st7{fill:#F4EFED;}
	.st8{fill:#FF4397;}
	.st9{fill:#D6D1CF;}
	.st10{fill:#FFFFFF;}
	.st11{fill:#FF9F70;}
	.st12{fill:#FFBD8E;}
	.st13{fill:#E18152;}
	.st14{fill:#E12579;}
	.st15{fill:#FF61B5;}
</style>
<g>
	<g>
		<path class="st0" d="M242,252H14c-5.523,0-10-4.477-10-10V14C4,8.477,8.477,4,14,4h228c5.523,0,10,4.477,10,10v228
			C252,247.523,247.523,252,242,252z"/>
	</g>
	<g>
		<path class="st2" d="M242,4h-10c5.523,0,10,4.477,10,10v228c0,5.523-4.477,10-10,10h10c5.523,0,10-4.477,10-10V14
			C252,8.477,247.523,4,242,4z"/>
	</g>
	<g>
		<path class="st1" d="M14,252h10c-5.523,0-10-4.477-10-10V14c0-5.523,4.477-10,10-10H14C8.477,4,4,8.477,4,14v228
			C4,247.523,8.477,252,14,252z"/>
	</g>
	<g>
		<path class="st8" d="M191.183,61.171L191.183,61.171c-2.587,0-4.683,2.097-4.683,4.683v18.249h9.367V65.854
			C195.866,63.268,193.769,61.171,191.183,61.171z"/>
	</g>
	<g>
		<path class="st3" d="M195.866,86.103H186.5c-1.105,0-2-0.896-2-2V65.854c0-3.685,2.998-6.683,6.683-6.683
			c3.686,0,6.684,2.998,6.684,6.683v18.249C197.866,85.207,196.971,86.103,195.866,86.103z M188.5,82.103h5.366V65.854
			c0-1.479-1.204-2.683-2.684-2.683c-1.48,0-2.683,1.204-2.683,2.683V82.103z"/>
	</g>
	<g>
		<path class="st7" d="M235.799,118.04c0-24.641-19.975-44.617-44.617-44.617s-44.617,19.976-44.617,44.617H235.799z"/>
	</g>
	<g>
		<path class="st7" d="M239.91,128h-97.453c-2.75,0-4.98-2.23-4.98-4.98l0,0c0-2.75,2.23-4.98,4.98-4.98h97.453
			c2.75,0,4.98,2.23,4.98,4.98l0,0C244.889,125.77,242.66,128,239.91,128z"/>
	</g>
	<g>
		<path class="st3" d="M235.8,120.04h-89.233c-1.105,0-2-0.896-2-2c0-25.705,20.912-46.617,46.616-46.617
			c25.705,0,46.617,20.912,46.617,46.617C237.8,119.145,236.904,120.04,235.8,120.04z M148.612,116.04h85.142
			c-1.048-22.575-19.742-40.617-42.571-40.617S149.66,93.465,148.612,116.04z"/>
	</g>
	<g>
		<path class="st3" d="M239.909,130h-97.453c-3.849,0-6.98-3.131-6.98-6.98c0-3.849,3.131-6.98,6.98-6.98h97.453
			c3.849,0,6.98,3.131,6.98,6.98C246.89,126.869,243.758,130,239.909,130z M142.456,120.04c-1.643,0-2.98,1.337-2.98,2.98
			c0,1.643,1.337,2.98,2.98,2.98h97.453c1.644,0,2.98-1.337,2.98-2.98c0-1.643-1.337-2.98-2.98-2.98H142.456z"/>
	</g>
	<g>
		<path class="st8" d="M109.724,83.947h-9.322c-1.212,0-2.194,0.982-2.194,2.194v3.414h13.71v-3.414
			C111.918,84.929,110.936,83.947,109.724,83.947z"/>
	</g>
	<g>
		<polygon class="st8" points="110.929,55.07 99.197,55.07 96.308,69.51 113.818,69.51 		"/>
	</g>
	<g>
		<path class="st4" d="M73.507,65.914H19.779c-1.212,0-2.194,0.982-2.194,2.194v21.446H75.7V68.108
			C75.7,66.897,74.718,65.914,73.507,65.914z"/>
	</g>
	<g>
		<polygon class="st4" points="74.615,108.777 18.67,108.777 11.16,108.777 11.16,116.919 11.16,128 18.67,128 18.67,116.919 
			74.615,116.919 74.615,128 82.126,128 82.126,116.919 82.126,108.777 		"/>
	</g>
	<g>
		<path class="st7" d="M82.126,108.777H11.16V93.942c0-2.423,1.964-4.388,4.388-4.388h62.19c2.423,0,4.388,1.965,4.388,4.388
			V108.777z"/>
	</g>
	<g>
		<rect x="89.149" y="89.554" class="st4" width="31.827" height="38.446"/>
	</g>
	<g>
		<path class="st3" d="M82.126,110.777H11.16c-1.104,0-2-0.896-2-2V93.942c0-3.522,2.865-6.388,6.388-6.388h62.19
			c3.522,0,6.388,2.866,6.388,6.388v14.835C84.126,109.882,83.23,110.777,82.126,110.777z M13.16,106.777h66.966V93.942
			c0-1.317-1.071-2.388-2.388-2.388h-62.19c-1.317,0-2.388,1.071-2.388,2.388V106.777z"/>
	</g>
	<g>
		<path class="st3" d="M82.126,130h-7.511c-1.104,0-2-0.895-2-2v-9.081H20.67V128c0,1.105-0.896,2-2,2h-7.51c-1.104,0-2-0.895-2-2
			v-19.223c0-1.104,0.896-2,2-2h70.966c1.104,0,2,0.896,2,2V128C84.126,129.105,83.23,130,82.126,130z M76.615,126h3.511v-15.223
			H13.16V126h3.51v-9.081c0-1.104,0.895-2,2-2h55.945c1.105,0,2,0.896,2,2V126z"/>
	</g>
	<g>
		<path class="st3" d="M75.7,91.554H17.585c-1.104,0-2-0.896-2-2V68.108c0-2.312,1.882-4.194,4.194-4.194h53.727
			c2.312,0,4.193,1.881,4.193,4.194v21.446C77.7,90.659,76.805,91.554,75.7,91.554z M19.585,87.554H73.7V68.108
			c0-0.107-0.087-0.194-0.193-0.194H19.779c-0.107,0-0.194,0.087-0.194,0.194V87.554z"/>
	</g>
	<g>
		<path class="st3" d="M120.977,130H89.149c-1.104,0-2-0.895-2-2V89.554c0-1.104,0.896-2,2-2h31.827c1.104,0,2,0.896,2,2V128
			C122.977,129.105,122.081,130,120.977,130z M91.149,126h27.827V91.554H91.149V126z"/>
	</g>
	<g>
		<path class="st3" d="M120.977,110.777H89.149c-1.104,0-2-0.896-2-2c0-1.104,0.896-2,2-2h31.827c1.104,0,2,0.896,2,2
			C122.977,109.882,122.081,110.777,120.977,110.777z"/>
	</g>
	<g>
		<path class="st3" d="M113.817,71.51h-17.51c-0.6,0-1.167-0.269-1.547-0.732c-0.38-0.463-0.532-1.073-0.414-1.661l2.89-14.44
			c0.187-0.935,1.008-1.607,1.961-1.607h11.731c0.953,0,1.774,0.673,1.961,1.608l2.889,14.44c0.118,0.587-0.034,1.197-0.414,1.66
			C114.984,71.242,114.417,71.51,113.817,71.51z M98.747,67.51h12.631l-2.089-10.44h-8.452L98.747,67.51z"/>
	</g>
	<g>
		<path class="st3" d="M111.918,91.554h-13.71c-1.104,0-2-0.896-2-2v-3.414c0-2.312,1.882-4.194,4.194-4.194h9.321
			c2.312,0,4.194,1.881,4.194,4.194v3.414C113.918,90.659,113.022,91.554,111.918,91.554z M100.208,87.554h9.71v-1.414
			c0-0.107-0.087-0.194-0.194-0.194h-9.321c-0.107,0-0.194,0.087-0.194,0.194V87.554z"/>
	</g>
	<g>
		<path class="st3" d="M105.062,85.947c-1.104,0-2-0.896-2-2V69.51c0-1.104,0.896-2,2-2s2,0.896,2,2v14.437
			C107.062,85.051,106.167,85.947,105.062,85.947z"/>
	</g>
	<g>
		<path class="st3" d="M107.944,102.753h-5.763c-1.104,0-2-0.896-2-2s0.896-2,2-2h5.763c1.104,0,2,0.896,2,2
			S109.049,102.753,107.944,102.753z"/>
	</g>
	<g>
		<path class="st3" d="M107.944,121.976h-5.763c-1.104,0-2-0.896-2-2s0.896-2,2-2h5.763c1.104,0,2,0.896,2,2
			S109.049,121.976,107.944,121.976z"/>
	</g>
	<g>
		<path class="st7" d="M64.879,74.837H28.406c-2.423,0-4.388,1.964-4.388,4.388v10.33h45.248v-10.33
			C69.267,76.801,67.302,74.837,64.879,74.837z"/>
	</g>
	<g>
		<path class="st3" d="M69.267,91.554H24.019c-1.104,0-2-0.896-2-2v-10.33c0-3.522,2.865-6.388,6.388-6.388h36.473
			c3.522,0,6.388,2.866,6.388,6.388v10.33C71.267,90.659,70.371,91.554,69.267,91.554z M26.019,87.554h41.248v-8.33
			c0-1.316-1.071-2.388-2.388-2.388H28.406c-1.316,0-2.388,1.071-2.388,2.388V87.554z"/>
	</g>
	<g>
		<path class="st3" d="M46.643,91.054c-1.104,0-2-0.896-2-2V75.439c0-1.104,0.896-2,2-2s2,0.896,2,2v13.615
			C48.643,90.158,47.747,91.054,46.643,91.054z"/>
	</g>
	<g>
		<path class="st3" d="M242,254H14c-6.617,0-12-5.383-12-12V14C2,7.383,7.383,2,14,2h228c6.617,0,12,5.383,12,12v228
			C254,248.617,248.617,254,242,254z M14,6c-4.411,0-8,3.589-8,8v228c0,4.411,3.589,8,8,8h228c4.411,0,8-3.589,8-8V14
			c0-4.411-3.589-8-8-8H14z"/>
	</g>
	<g>
		<path class="st3" d="M12,45.946c-1.104,0-2-0.896-2-2v-12c0-1.104,0.896-2,2-2s2,0.896,2,2v12C14,45.051,13.104,45.946,12,45.946z
			"/>
	</g>
	<g>
		<path class="st3" d="M128,253c-1.104,0-2-0.895-2-2V5c0-1.105,0.896-2,2-2c1.105,0,2,0.895,2,2v246
			C130,252.105,129.105,253,128,253z"/>
	</g>
	<g>
		<path class="st3" d="M251,130H5c-1.105,0-2-0.895-2-2c0-1.104,0.895-2,2-2h246c1.105,0,2,0.896,2,2
			C253,129.105,252.105,130,251,130z"/>
	</g>
	<g>
		
			<ellipse transform="matrix(0.2298 -0.9732 0.9732 0.2298 -143.4933 171.5053)" class="st8" cx="36.607" cy="176.408" rx="11.588" ry="11.588"/>
	</g>
	<g>
		<path class="st3" d="M36.606,189.997c-7.492,0-13.588-6.096-13.588-13.588c0-7.493,6.096-13.588,13.588-13.588
			c7.492,0,13.588,6.096,13.588,13.588C50.194,183.901,44.099,189.997,36.606,189.997z M36.606,166.82
			c-5.287,0-9.588,4.301-9.588,9.588c0,5.287,4.301,9.588,9.588,9.588c5.287,0,9.588-4.301,9.588-9.588
			C46.194,171.122,41.894,166.82,36.606,166.82z"/>
	</g>
	<g>
		<polygon class="st7" points="86.619,252 44.476,252 36.607,176.408 94.489,176.408 		"/>
	</g>
	<g>
		<polygon class="st8" points="38.05,190.273 44.476,252 86.619,252 93.045,190.273 		"/>
	</g>
	<g>
		<path class="st3" d="M86.619,254H44.477c-1.025,0-1.883-0.774-1.989-1.793l-7.87-75.591c-0.059-0.564,0.124-1.125,0.504-1.546
			c0.379-0.421,0.919-0.661,1.485-0.661h57.882c0.566,0,1.106,0.24,1.485,0.661c0.38,0.42,0.562,0.982,0.504,1.546l-7.869,75.591
			C88.502,253.226,87.644,254,86.619,254z M46.279,250h38.537l7.453-71.591H38.825L46.279,250z"/>
	</g>
	<g>
		<path class="st3" d="M86.619,254H44.477c-1.025,0-1.883-0.774-1.989-1.793l-6.427-61.727c-0.059-0.563,0.124-1.125,0.504-1.546
			c0.379-0.421,0.919-0.661,1.485-0.661h54.995c0.566,0,1.106,0.24,1.485,0.661c0.38,0.42,0.562,0.982,0.504,1.546l-6.426,61.727
			C88.502,253.226,87.644,254,86.619,254z M46.279,250h38.537l6.01-57.727H40.269L46.279,250z"/>
	</g>
	<g>
		<path class="st3" d="M69.482,242.014c-0.13,0-0.263-0.013-0.395-0.04c-1.083-0.217-1.785-1.271-1.568-2.354l14.136-70.544
			c1.068-5.327,5.786-9.193,11.219-9.193h11.065c1.104,0,2,0.895,2,2c0,1.104-0.896,2-2,2H92.874c-3.533,0-6.602,2.515-7.297,5.979
			l-14.136,70.544C71.251,241.357,70.416,242.014,69.482,242.014z"/>
	</g>
	<g>
		<g>
			<polygon class="st4" points="177.578,228.281 140.792,191.494 154.934,177.351 177.578,199.996 223.783,153.79 237.926,167.932 
							"/>
		</g>
	</g>
	<g>
		<g>
			<path class="st3" d="M177.578,230.281c-0.53,0-1.039-0.211-1.414-0.586l-36.786-36.787c-0.781-0.781-0.781-2.047,0-2.828
				l14.143-14.143c0.75-0.75,2.078-0.75,2.828,0l21.229,21.23l44.791-44.791c0.75-0.75,2.078-0.75,2.828,0l14.143,14.143
				c0.781,0.781,0.781,2.047,0,2.828l-60.348,60.348C178.617,230.07,178.108,230.281,177.578,230.281z M143.62,191.494
				l33.958,33.958l57.52-57.52l-11.314-11.314l-44.791,44.791c-0.75,0.75-2.078,0.75-2.828,0l-21.229-21.23L143.62,191.494z"/>
		</g>
	</g>
</g>
</svg>
