<?xml version="1.0" encoding="utf-8"?>
<!-- Generator: Adobe Illustrator 22.1.0, SVG Export Plug-In . SVG Version: 6.00 Build 0)  -->
<svg version="1.1" id="Layer_1" xmlns="http://www.w3.org/2000/svg" xmlns:xlink="http://www.w3.org/1999/xlink" x="0px" y="0px"
	 viewBox="0 0 256 256" style="enable-background:new 0 0 256 256;" xml:space="preserve">
<style type="text/css">
	.st0{fill:#FCC24C;}
	.st1{fill:#FCE06A;}
	.st2{fill:#DEA42E;}
	.st3{fill:#690589;}
	.st4{fill:#7BAC51;}
	.st5{fill:#5D8E33;}
	.st6{fill:#99CA6F;}
	.st7{fill:#F4EFED;}
	.st8{fill:#FF4397;}
	.st9{fill:#D6D1CF;}
	.st10{fill:#FFFFFF;}
	.st11{fill:#FF9F70;}
	.st12{fill:#FFBD8E;}
	.st13{fill:#E18152;}
	.st14{fill:#E12579;}
	.st15{fill:#FF61B5;}
</style>
<g>
	<g>
		<path class="st4" d="M166.305,167.574l-14.151-0.018l-25.312-0.033c0.024-0.407-0.001-0.809,0-1.222v-39.827l-43.707-0.056v39.827
			c-0.001,0.413-0.023,0.816,0,1.222l-25.366-0.033l-14.151-0.018c-15.287-0.02-27.695,12.357-27.715,27.644l-0.073,56.711
			L193.876,252l0.073-56.711C193.969,180.002,181.592,167.594,166.305,167.574z"/>
	</g>
	<g>
		<path class="st13" d="M126.842,167.524v-41.049l-43.707-0.056v41.049l-15.493-0.02l-0.002,1.652
			c-0.026,20.611,16.661,37.341,37.272,37.368h0c20.611,0.026,37.341-16.661,37.368-37.272l0.002-1.652L126.842,167.524z"/>
	</g>
	<g>
		<g>
			<path class="st5" d="M166.305,167.574l-9.71-0.012c15.287,0.02,27.663,12.428,27.644,27.715l-0.073,56.711l9.71,0.012
				l0.073-56.711C193.969,180.002,181.592,167.594,166.305,167.574z"/>
		</g>
	</g>
	<g>
		<g>
			<path class="st6" d="M43.618,167.417l9.71,0.012c-15.287-0.02-27.695,12.357-27.715,27.644l-0.073,56.711l-9.71-0.012
				l0.073-56.711C15.923,179.774,28.331,167.398,43.618,167.417z"/>
		</g>
	</g>
	<g>
		<path class="st3" d="M193.877,254c-0.001,0-0.002,0-0.003,0l-178.046-0.228c-0.531-0.001-1.039-0.212-1.413-0.587
			c-0.375-0.376-0.585-0.885-0.584-1.415l0.073-56.711c0.01-7.928,3.107-15.377,8.72-20.976c5.604-5.589,13.045-8.666,20.958-8.666
			c0.013,0,0.026,0,0.039,0l37.515,0.048v-39.047c0-0.531,0.211-1.04,0.587-1.415c0.375-0.375,0.883-0.585,1.413-0.585
			c0.001,0,0.001,0,0.002,0l43.707,0.056c1.104,0.001,1.998,0.896,1.998,2v39.051l37.466,0.048
			c16.364,0.021,29.661,13.352,29.641,29.717l-0.072,56.711c-0.001,0.531-0.212,1.039-0.588,1.414
			C194.914,253.79,194.406,254,193.877,254z M17.833,249.774l174.047,0.223l0.069-54.712c0.019-14.16-11.486-25.694-25.646-25.712
			l-39.463-0.051c-0.55-0.001-1.076-0.228-1.454-0.629c-0.377-0.401-0.573-0.939-0.541-1.489c0.013-0.215,0.006-0.43,0.002-0.646
			l-0.006-0.462v-37.827l-39.708-0.051l-0.005,38.265c-0.004,0.224-0.01,0.446,0.002,0.669c0.031,0.55-0.166,1.088-0.544,1.487
			c-0.378,0.399-0.903,0.626-1.453,0.626c-0.001,0-0.002,0-0.002,0l-39.517-0.051c-0.011,0-0.023,0-0.034,0
			c-6.847,0-13.285,2.662-18.134,7.498c-4.857,4.844-7.536,11.289-7.545,18.149L17.833,249.774z"/>
	</g>
	<g>
		<path class="st3" d="M23.664,208.896c-1.104,0-2-0.895-2-2v-12c0-1.104,0.896-2,2-2s2,0.896,2,2v12
			C25.664,208.001,24.768,208.896,23.664,208.896z"/>
	</g>
	<g>
		<path class="st3" d="M104.962,208.468c-0.018,0-0.035,0-0.053,0c-10.503-0.014-20.372-4.116-27.789-11.552
			c-7.417-7.436-11.495-17.315-11.481-27.818l0.002-1.652c0-0.53,0.212-1.039,0.587-1.414c0.375-0.374,0.883-0.584,1.413-0.584
			c0.001,0,0.002,0,0.002,0l13.491,0.018v-39.046c0-0.531,0.211-1.04,0.587-1.415c0.375-0.374,0.883-0.585,1.413-0.585
			c0.001,0,0.001,0,0.002,0l43.707,0.056c1.104,0.001,1.998,0.896,1.998,2v39.051l13.442,0.018c1.105,0.001,1.998,0.898,1.997,2.002
			l-0.002,1.652c-0.014,10.503-4.116,20.372-11.552,27.789C125.304,204.392,115.444,208.467,104.962,208.468z M69.641,169.45
			c0.077,9.305,3.731,18.044,10.312,24.641c6.662,6.68,15.527,10.365,24.962,10.377c0.016,0,0.032,0,0.047,0
			c9.417,0,18.273-3.661,24.941-10.312c6.598-6.581,10.275-15.31,10.375-24.614l-13.438-0.018c-1.104-0.001-1.997-0.896-1.997-2
			v-39.051l-39.708-0.051v39.046c0,0.531-0.211,1.04-0.587,1.415c-0.375,0.375-0.901,0.553-1.416,0.585L69.641,169.45z"/>
	</g>
	<g>
		<path class="st0" d="M47.259,82.037l-3.058-38.949c-0.819-10.438,7.429-19.36,17.899-19.36l0,0v-1.774
			C62.101,12.038,70.139,4,80.055,4h82.739l-7.137,30.91l0,0c6.677,3.706,10.365,11.155,9.265,18.712l-4.136,28.416H47.259z"/>
	</g>
	<g>
		<path class="st1" d="M71.213,23.728v-1.774C71.213,12.038,79.251,4,89.167,4h-9.112c-9.916,0-17.954,8.038-17.954,17.954v1.774
			c-10.47,0-18.719,8.922-17.899,19.36l3.058,38.949h9.112l-3.058-38.949C52.494,32.65,60.743,23.728,71.213,23.728z"/>
	</g>
	<g>
		<path class="st2" d="M155.657,34.91L155.657,34.91L162.794,4h-9.112l-7.137,30.91l0,0c6.677,3.706,10.365,11.155,9.265,18.712
			l-4.136,28.416h9.112l4.136-28.416C166.022,46.064,162.333,38.615,155.657,34.91z"/>
	</g>
	<g>
		<path class="st3" d="M160.786,84.037H47.259c-1.044,0-1.912-0.803-1.994-1.843l-3.058-38.949
			c-0.434-5.53,1.476-11.037,5.242-15.109c3.31-3.58,7.837-5.818,12.652-6.307C60.168,10.884,69.094,2,80.055,2h82.739
			c0.609,0,1.186,0.278,1.565,0.755c0.379,0.477,0.521,1.101,0.383,1.695l-6.812,29.5c6.536,4.306,10.109,12.137,8.971,19.958
			l-4.136,28.416C162.622,83.308,161.779,84.037,160.786,84.037z M49.108,80.037h109.947l3.887-26.704
			c0.975-6.692-2.344-13.393-8.257-16.675c-0.779-0.433-1.179-1.33-0.977-2.199L160.279,6H80.055
			c-8.797,0-15.955,7.157-15.955,15.955v1.774c0,1.104-0.896,2-2,2c-4.5,0-8.66,1.819-11.714,5.124
			c-3.055,3.304-4.543,7.594-4.191,12.079L49.108,80.037z"/>
	</g>
	<g>
		<path class="st12" d="M57.741,74.444h-3.369c-8.71,0-15.771,7.061-15.771,15.771c0,8.71,7.061,15.771,15.771,15.771h3.369V74.444z
			"/>
	</g>
	<g>
		<path class="st13" d="M155.496,74.444h-3.37v31.542h3.37c8.71,0,15.771-7.061,15.771-15.771
			C171.267,81.505,164.206,74.444,155.496,74.444z"/>
	</g>
	<g>
		<path class="st11" d="M104.934,154.616L104.934,154.616c-26.064,0-47.193-21.403-47.193-47.806V73.714
			c0-26.403,21.129-47.806,47.193-47.806l0,0c26.064,0,47.193,21.403,47.193,47.806v33.096
			C152.127,133.213,130.998,154.616,104.934,154.616z"/>
	</g>
	<g>
		<path class="st13" d="M104.934,25.908c-1.814,0-3.602,0.114-5.363,0.316c23.537,2.698,41.83,22.925,41.83,47.49v33.096
			c0,24.565-18.293,44.791-41.83,47.49c1.761,0.202,3.548,0.316,5.363,0.316c26.064,0,47.193-21.403,47.193-47.806V73.714
			C152.127,47.312,130.998,25.908,104.934,25.908z"/>
	</g>
	<g>
		<path class="st12" d="M104.934,25.908c1.814,0,3.602,0.114,5.363,0.316c-23.537,2.698-41.83,22.925-41.83,47.49v33.096
			c0,24.565,18.293,44.791,41.83,47.49c-1.761,0.202-3.548,0.316-5.363,0.316c-26.064,0-47.193-21.403-47.193-47.806V73.714
			C57.741,47.312,78.87,25.908,104.934,25.908z"/>
	</g>
	<g>
		<path class="st3" d="M104.934,156.616c-27.125,0-49.193-22.343-49.193-49.806V73.714c0-27.463,22.068-49.806,49.193-49.806
			s49.193,22.343,49.193,49.806v33.096C154.127,134.273,132.059,156.616,104.934,156.616z M104.934,27.908
			c-24.919,0-45.193,20.548-45.193,45.806v33.096c0,25.257,20.273,45.806,45.193,45.806c24.92,0,45.193-20.548,45.193-45.806V73.714
			C150.127,48.457,129.853,27.908,104.934,27.908z"/>
	</g>
	<g>
		<path class="st3" d="M57.741,107.986h-3.369c-9.799,0-17.771-7.972-17.771-17.771c0-9.799,7.972-17.771,17.771-17.771h3.369
			c1.104,0,2,0.896,2,2v31.542C59.741,107.091,58.845,107.986,57.741,107.986z M54.372,76.444c-7.593,0-13.771,6.178-13.771,13.771
			c0,7.593,6.178,13.771,13.771,13.771h1.369V76.444H54.372z"/>
	</g>
	<g>
		<path class="st3" d="M155.496,107.986h-3.369c-1.105,0-2-0.896-2-2V74.444c0-1.104,0.895-2,2-2h3.369
			c9.799,0,17.771,7.972,17.771,17.771C173.268,100.014,165.295,107.986,155.496,107.986z M154.127,103.986h1.369
			c7.594,0,13.771-6.178,13.771-13.771c0-7.593-6.178-13.771-13.771-13.771h-1.369V103.986z"/>
	</g>
	<g>
		<circle class="st7" cx="193.949" cy="205.78" r="46.22"/>
	</g>
	<g>
		<path class="st0" d="M193.949,252c25.527,0,46.22-20.694,46.22-46.22h-92.441C147.729,231.306,168.422,252,193.949,252z"/>
	</g>
	<g>
		<path class="st9" d="M193.949,159.559c-1.349,0-2.68,0.07-4,0.184c23.652,2.029,42.22,21.859,42.22,46.037
			c0,24.178-18.568,44.008-42.22,46.037c1.32,0.113,2.651,0.184,4,0.184c25.527,0,46.22-20.694,46.22-46.22
			C240.169,180.253,219.476,159.559,193.949,159.559z"/>
	</g>
	<g>
		<path class="st10" d="M193.949,159.559c1.349,0,2.68,0.07,4,0.184c-23.652,2.029-42.22,21.859-42.22,46.037
			c0,24.178,18.568,44.008,42.22,46.037c-1.32,0.113-2.651,0.184-4,0.184c-25.527,0-46.22-20.694-46.22-46.22
			C147.729,180.253,168.422,159.559,193.949,159.559z"/>
	</g>
	<g>
		<path class="st3" d="M193.949,254c-26.589,0-48.221-21.631-48.221-48.22s21.632-48.22,48.221-48.22
			c26.589,0,48.22,21.631,48.22,48.22S220.538,254,193.949,254z M193.949,161.56c-24.384,0-44.221,19.837-44.221,44.22
			S169.565,250,193.949,250c24.383,0,44.22-19.837,44.22-44.22S218.332,161.56,193.949,161.56z"/>
	</g>
	<g>
		<g>
			<path class="st3" d="M194.268,217.874c0.765,0,1.371,0.605,1.371,1.371v0.701c1.881,0.223,3.475,0.829,4.941,1.753
				c0.51,0.287,0.956,0.765,0.956,1.53c0,0.988-0.797,1.753-1.785,1.753c-0.319,0-0.637-0.096-0.956-0.287
				c-1.116-0.67-2.199-1.148-3.283-1.403v6.12c4.845,1.211,6.917,3.156,6.917,6.566c0,3.506-2.742,5.833-6.79,6.216v1.913
				c0,0.765-0.606,1.371-1.371,1.371s-1.403-0.606-1.403-1.371v-1.976c-2.391-0.255-4.59-1.116-6.535-2.486
				c-0.542-0.351-0.861-0.861-0.861-1.53c0-0.988,0.765-1.753,1.753-1.753c0.382,0,0.765,0.128,1.052,0.351
				c1.498,1.084,2.964,1.817,4.718,2.136v-6.279c-4.654-1.211-6.822-2.964-6.822-6.567c0-3.411,2.71-5.77,6.694-6.088v-0.67
				C192.865,218.479,193.503,217.874,194.268,217.874z M192.993,228.743v-5.642c-2.04,0.191-3.06,1.275-3.06,2.678
				C189.933,227.117,190.538,227.947,192.993,228.743z M195.511,233.174v5.801c2.04-0.223,3.156-1.243,3.156-2.773
				C198.667,234.8,197.965,233.939,195.511,233.174z"/>
		</g>
	</g>
	<g>
		<path class="st3" d="M227.166,188.885c-0.695,0-1.37-0.363-1.739-1.01c-6.44-11.296-18.502-18.313-31.478-18.313
			c-12.976,0-25.037,7.017-31.478,18.313c-0.548,0.959-1.769,1.292-2.728,0.747c-0.96-0.547-1.294-1.768-0.747-2.728
			c7.149-12.541,20.543-20.332,34.952-20.332s27.803,7.79,34.952,20.332c0.547,0.96,0.213,2.181-0.747,2.728
			C227.842,188.8,227.502,188.885,227.166,188.885z"/>
	</g>
	<g>
		<path class="st2" d="M232.169,205.78c0,24.178-18.568,44.008-42.22,46.037c0.648,0.056,1.299,0.1,1.953,0.132
			c0.679,0.03,1.36,0.052,2.047,0.052c6.382,0,12.461-1.293,17.991-3.632c1.382-0.585,2.731-1.235,4.04-1.946
			c1.965-1.067,3.843-2.273,5.623-3.604c11.271-8.429,18.566-21.881,18.566-37.038H232.169z"/>
	</g>
	<g>
		<path class="st1" d="M195.996,251.948c0.654-0.032,1.305-0.076,1.953-0.132c-23.652-2.029-42.22-21.859-42.22-46.037h-8
			c0,3.989,0.505,7.859,1.455,11.551c0.38,1.477,0.831,2.925,1.349,4.341c1.555,4.247,3.716,8.203,6.378,11.762
			c0.887,1.186,1.83,2.329,2.825,3.423c0.497,0.547,1.008,1.082,1.53,1.605c8.364,8.364,19.919,13.538,32.683,13.538
			C194.636,252,195.317,251.978,195.996,251.948z"/>
	</g>
	<g>
		<path class="st3" d="M193.949,254c-26.589,0-48.221-21.631-48.221-48.22c0-1.105,0.896-2,2-2h92.44c1.104,0,2,0.895,2,2
			C242.169,232.369,220.538,254,193.949,254z M149.773,207.78c1.048,23.46,20.462,42.22,44.176,42.22
			c23.713,0,43.127-18.761,44.175-42.22H149.773z"/>
	</g>
	<g>
		<path class="st3" d="M193.951,207.78c-0.659,0-1.304-0.326-1.686-0.921c-0.597-0.93-0.325-2.167,0.605-2.763l25.62-16.416
			c0.929-0.597,2.167-0.325,2.763,0.605c0.597,0.93,0.325,2.167-0.605,2.763l-25.62,16.416
			C194.694,207.678,194.32,207.78,193.951,207.78z"/>
	</g>
	<g>
		<path class="st8" d="M200.125,205.78c0-3.411-2.765-6.175-6.176-6.175c-3.411,0-6.176,2.765-6.176,6.175
			c0,3.411,2.765,6.176,6.176,6.176C197.36,211.955,200.125,209.19,200.125,205.78z"/>
	</g>
	<g>
		<path class="st3" d="M193.949,213.955c-4.508,0-8.176-3.667-8.176-8.175c0-4.508,3.668-8.176,8.176-8.176s8.176,3.667,8.176,8.176
			C202.125,210.288,198.457,213.955,193.949,213.955z M193.949,201.604c-2.303,0-4.176,1.873-4.176,4.176
			c0,2.302,1.873,4.175,4.176,4.175c2.303,0,4.176-1.873,4.176-4.175C198.125,203.477,196.252,201.604,193.949,201.604z"/>
	</g>
</g>
</svg>
