<?xml version="1.0" encoding="utf-8"?>
<!-- Generator: Adobe Illustrator 23.0.3, SVG Export Plug-In . SVG Version: 6.00 Build 0)  -->
<svg version="1.1" id="FLAT" xmlns="http://www.w3.org/2000/svg" xmlns:xlink="http://www.w3.org/1999/xlink" x="0px" y="0px"
	 viewBox="0 0 256 256" style="enable-background:new 0 0 256 256;" xml:space="preserve">
<style type="text/css">
	.st0{fill:#E2E0E0;}
	.st1{fill:#7C7C7C;}
	.st2{fill:#8FCAE2;}
	.st3{fill:#6AAEC4;}
	.st4{fill:#FFE70D;}
	.st5{fill:#6D372E;}
	.st6{fill:#BABABA;}
	.st7{fill:#CE9367;}
	.st8{fill:#A05A4A;}
	.st9{fill:#5B2C25;}
	.st10{fill:#D83030;}
	.st11{fill:#36F282;}
	.st12{fill:#E56533;}
	.st13{fill:#3D809B;}
	.st14{fill:#51A3BC;}
	.st15{fill:#FFD55F;}
	.st16{fill:#E2A554;}
	.st17{fill:#A01A1A;}
	.st18{fill:#469FCC;}
	.st19{fill:#B356DB;}
	.st20{fill:#58AA44;}
	.st21{fill:#257DA0;}
	.st22{fill:#83CFED;}
	.st23{fill:#D7EFF7;}
	.st24{fill:#224415;}
	.st25{fill:#212947;}
	.st26{fill:#FFF75C;}
	.st27{fill:#397224;}
	.st28{fill:#515151;}
	.st29{fill:#FFC476;}
	.st30{fill:#EDBE9D;}
	.st31{fill:#656666;}
	.st32{fill:#FFF297;}
	.st33{fill:#FFFFFF;}
	.st34{fill:#F4BD98;}
	.st35{fill:none;stroke:#000000;stroke-miterlimit:10;}
	.st36{fill:#F4C653;}
	.st37{fill:#CCF3FF;}
	.st38{fill:#FCE8B6;}
	.st39{fill:#81FCB3;}
	.st40{fill:#020001;}
	.st41{fill:#020202;}
	.st42{fill:#F77B54;}
	.st43{fill:#F2A55F;}
</style>
<g>
	<circle class="st2" cx="130" cy="124" r="58.5"/>
</g>
<g>
	<path class="st23" d="M84.9,136c0,1.3-1.1,2.4-2.4,2.4l0,0c-1.3,0-2.4-1.1-2.4-2.4l0,0c0-1.3,1.1-2.4,2.4-2.4l0,0
		C83.8,133.6,84.9,134.7,84.9,136L84.9,136z"/>
</g>
<g>
	<path class="st6" d="M157.5,219.5c0,3.9-3.1,7-7,7h-37.8c-3.9,0-7-3.1-7-7v-33.3c0-3.9,3.1-7,7-7h37.8c3.9,0,7,3.1,7,7V219.5z"/>
</g>
<g>
	<g>
		<g>
			<path class="st1" d="M114.7,199c11.1,0,22.2,0,33.3,0c3.2,0,3.2-5,0-5c-11.1,0-22.2,0-33.3,0C111.5,194,111.5,199,114.7,199
				L114.7,199z"/>
		</g>
	</g>
</g>
<g>
	<g>
		<g>
			<path class="st1" d="M114.7,212.5c11.1,0,22.2,0,33.3,0c3.2,0,3.2-5,0-5c-11.1,0-22.2,0-33.3,0
				C111.5,207.5,111.5,212.5,114.7,212.5L114.7,212.5z"/>
		</g>
	</g>
</g>
<g>
	<g>
		<path class="st23" d="M85,127c0.4-27.6,22.6-49.8,50.2-50.2c3.2,0,3.2-5,0-5C104.8,72.2,80.4,96.7,80,127
			C80,130.2,85,130.2,85,127L85,127z"/>
	</g>
</g>
<g>
	<path class="st26" d="M157,142.6c-3.8-7.3-7.6-14.5-11.3-21.8c-0.9-1.7-3.4-1.6-4.3,0c-3.3,6-6.5,11.9-9.8,17.9
		c-3.3-6-6.6-11.9-9.9-17.9c-0.9-1.7-3.3-1.5-4.3,0c-4.6,7.3-9.2,14.5-13.8,21.8c-1.7,2.7,2.6,5.2,4.3,2.5c3.8-6,7.7-12.1,11.5-18.1
		c3.4,6,6.7,12.1,10.1,18.1c0.9,1.6,3.4,1.6,4.3,0c3.2-5.9,6.5-11.8,9.7-17.7c3.1,5.9,6.2,11.8,9.2,17.7
		C154.2,147.9,158.5,145.4,157,142.6z"/>
</g>
</svg>
