<?xml version="1.0" encoding="utf-8"?>
<!-- Generator: Adobe Illustrator 23.0.3, SVG Export Plug-In . SVG Version: 6.00 Build 0)  -->
<svg version="1.1" id="FLAT" xmlns="http://www.w3.org/2000/svg" xmlns:xlink="http://www.w3.org/1999/xlink" x="0px" y="0px"
	 viewBox="0 0 256 256" style="enable-background:new 0 0 256 256;" xml:space="preserve">
<style type="text/css">
	.st0{fill:#E2E0E0;}
	.st1{fill:#7C7C7C;}
	.st2{fill:#8FCAE2;}
	.st3{fill:#6AAEC4;}
	.st4{fill:#FFE70D;}
	.st5{fill:#6D372E;}
	.st6{fill:#BABABA;}
	.st7{fill:#CE9367;}
	.st8{fill:#A05A4A;}
	.st9{fill:#5B2C25;}
	.st10{fill:#D83030;}
	.st11{fill:#36F282;}
	.st12{fill:#E56533;}
	.st13{fill:#3D809B;}
	.st14{fill:#51A3BC;}
	.st15{fill:#FFD55F;}
	.st16{fill:#E2A554;}
	.st17{fill:#A01A1A;}
	.st18{fill:#469FCC;}
	.st19{fill:#B356DB;}
	.st20{fill:#58AA44;}
	.st21{fill:#257DA0;}
	.st22{fill:#83CFED;}
	.st23{fill:#D7EFF7;}
	.st24{fill:#224415;}
	.st25{fill:#212947;}
	.st26{fill:#FFF75C;}
	.st27{fill:#397224;}
	.st28{fill:#515151;}
	.st29{fill:#FFC476;}
	.st30{fill:#EDBE9D;}
	.st31{fill:#656666;}
	.st32{fill:#FFF297;}
	.st33{fill:#FFFFFF;}
	.st34{fill:#F4BD98;}
	.st35{fill:none;stroke:#000000;stroke-miterlimit:10;}
	.st36{fill:#F4C653;}
	.st37{fill:#CCF3FF;}
	.st38{fill:#FCE8B6;}
	.st39{fill:#81FCB3;}
	.st40{fill:#020001;}
	.st41{fill:#020202;}
	.st42{fill:#F77B54;}
	.st43{fill:#F2A55F;}
</style>
<g>
	<path d="M144.9,217.3c0,1.3-1.1,2.4-2.4,2.4l0,0c-1.3,0-2.4-1.1-2.4-2.4l0,0c0-1.3,1.1-2.4,2.4-2.4l0,0
		C143.8,214.8,144.9,215.9,144.9,217.3L144.9,217.3z"/>
</g>
<g>
	<g>
		<path d="M71.7,219.8c20.9,0,41.7,0,62.6,0c3.2,0,3.2-5,0-5c-20.9,0-41.7,0-62.6,0C68.4,214.8,68.4,219.8,71.7,219.8L71.7,219.8z"
			/>
	</g>
</g>
<g>
	<path class="st5" d="M169,225c0,3.3-2.7,6-6,6H45.7c-3.3,0-6-2.7-6-6V38.3c0-3.3,2.7-6,6-6H163c3.3,0,6,2.7,6,6V225z"/>
</g>
<g>
	<path class="st7" d="M150,121c0,3.3-2.7,6-6,6H64.7c-3.3,0-6-2.7-6-6V63.3c0-3.3,2.7-6,6-6H144c3.3,0,6,2.7,6,6V121z"/>
</g>
<g>
	<g>
		<path class="st5" d="M72.7,86.7c20.9,0,41.7,0,62.6,0c3.2,0,3.2-5,0-5c-20.9,0-41.7,0-62.6,0C69.4,81.7,69.4,86.7,72.7,86.7
			L72.7,86.7z"/>
	</g>
</g>
<g>
	<g>
		<path class="st5" d="M72.7,108.2c20.9,0,41.7,0,62.6,0c3.2,0,3.2-5,0-5c-20.9,0-41.7,0-62.6,0C69.4,103.2,69.4,108.2,72.7,108.2
			L72.7,108.2z"/>
	</g>
</g>
<g>
	<path class="st18" d="M204,72c0-3.3-2.7-6-6-6h-3c-3.3,0-6,2.7-6,6v123.6c0,1.1,0.3,2.1,0.8,3l6.7,24.3l6.7-24.3
		c0.5-0.9,0.8-1.9,0.8-3V72z"/>
</g>
<g>
	<rect x="189" y="80.5" class="st0" width="15" height="11.3"/>
</g>
<g>
	<rect x="204" y="80.5" class="st25" width="9.8" height="51.2"/>
</g>
</svg>
