<?xml version="1.0" encoding="utf-8"?>
<!-- Generator: Adobe Illustrator 23.0.3, SVG Export Plug-In . SVG Version: 6.00 Build 0)  -->
<svg version="1.1" id="FLAT" xmlns="http://www.w3.org/2000/svg" xmlns:xlink="http://www.w3.org/1999/xlink" x="0px" y="0px"
	 viewBox="0 0 256 256" style="enable-background:new 0 0 256 256;" xml:space="preserve">
<style type="text/css">
	.st0{fill:#E2E0E0;}
	.st1{fill:#7C7C7C;}
	.st2{fill:#8FCAE2;}
	.st3{fill:#6AAEC4;}
	.st4{fill:#FFE70D;}
	.st5{fill:#6D372E;}
	.st6{fill:#BABABA;}
	.st7{fill:#CE9367;}
	.st8{fill:#A05A4A;}
	.st9{fill:#5B2C25;}
	.st10{fill:#D83030;}
	.st11{fill:#36F282;}
	.st12{fill:#E56533;}
	.st13{fill:#3D809B;}
	.st14{fill:#51A3BC;}
	.st15{fill:#FFD55F;}
	.st16{fill:#E2A554;}
	.st17{fill:#A01A1A;}
	.st18{fill:#469FCC;}
	.st19{fill:#B356DB;}
	.st20{fill:#58AA44;}
	.st21{fill:#257DA0;}
	.st22{fill:#83CFED;}
	.st23{fill:#D7EFF7;}
	.st24{fill:#224415;}
	.st25{fill:#212947;}
	.st26{fill:#FFF75C;}
	.st27{fill:#397224;}
	.st28{fill:#515151;}
	.st29{fill:#FFC476;}
	.st30{fill:#EDBE9D;}
	.st31{fill:#656666;}
	.st32{fill:#FFF297;}
	.st33{fill:#FFFFFF;}
	.st34{fill:#F4BD98;}
	.st35{fill:none;stroke:#000000;stroke-miterlimit:10;}
	.st36{fill:#F4C653;}
	.st37{fill:#CCF3FF;}
	.st38{fill:#FCE8B6;}
	.st39{fill:#81FCB3;}
	.st40{fill:#020001;}
	.st41{fill:#020202;}
	.st42{fill:#F77B54;}
	.st43{fill:#F2A55F;}
</style>
<g>
	<g>
		<path class="st1" d="M188.6,224c0,5.5-4.5,10-10,10h-105c-5.5,0-10-4.5-10-10V41.4c0-5.5,4.5-10,10-10h105c5.5,0,10,4.5,10,10V224
			z"/>
	</g>
	<g>
		<path class="st2" d="M172.6,208.5c0,5.5-4.5,10-10,10h-72c-5.5,0-10-4.5-10-10V57.8c0-5.5,4.5-10,10-10h72c5.5,0,10,4.5,10,10
			V208.5z"/>
	</g>
	<g>
		<path class="st0" d="M136.7,225.9c0,4.1-3.3,7.4-7.4,7.4c-4.1,0-7.4-3.3-7.4-7.4c0-4.1,3.3-7.4,7.4-7.4
			C133.4,218.5,136.7,221.8,136.7,225.9z"/>
	</g>
	<g>
		<path class="st3" d="M172.6,64v-6.2c0-5.5-4.5-10-10-10h-72c-5.5,0-10,4.5-10,10V64h91L172.6,64z"/>
	</g>
</g>
<g>
	<path class="st10" d="M167.2,136.6c0,1.3-1.1,2.4-2.4,2.4l0,0c-1.3,0-2.4-1.1-2.4-2.4l0,0c0-1.3,1.1-2.4,2.4-2.4l0,0
		C166.1,134.2,167.2,135.3,167.2,136.6L167.2,136.6z"/>
</g>
<g>
	<g>
		<path class="st10" d="M96.1,159.9c6.6-12.6,13.1-25.1,19.7-37.7c-1.4,0-2.9,0-4.3,0c4.1,7.7,8.2,15.3,12.3,23
			c0.9,1.7,3.4,1.6,4.3,0c7.9-13.8,15.8-27.7,23.7-41.5c-1.4,0-2.9,0-4.3,0c3.9,8.2,7.8,16.3,11.7,24.5c1.4,2.9,5.7,0.4,4.3-2.5
			c-3.9-8.2-7.8-16.3-11.7-24.5c-0.8-1.7-3.4-1.5-4.3,0c-7.9,13.8-15.8,27.7-23.7,41.5c1.4,0,2.9,0,4.3,0c-4.1-7.7-8.2-15.3-12.3-23
			c-0.9-1.6-3.5-1.6-4.3,0c-6.6,12.6-13.1,25.1-19.7,37.7C90.3,160.2,94.6,162.8,96.1,159.9L96.1,159.9z"/>
	</g>
</g>
</svg>
