<?xml version="1.0" encoding="utf-8"?>
<!-- Generator: Adobe Illustrator 23.0.3, SVG Export Plug-In . SVG Version: 6.00 Build 0)  -->
<svg version="1.1" id="FLAT" xmlns="http://www.w3.org/2000/svg" xmlns:xlink="http://www.w3.org/1999/xlink" x="0px" y="0px"
	 viewBox="0 0 256 256" style="enable-background:new 0 0 256 256;" xml:space="preserve">
<style type="text/css">
	.st0{fill:#E2E0E0;}
	.st1{fill:#7C7C7C;}
	.st2{fill:#8FCAE2;}
	.st3{fill:#6AAEC4;}
	.st4{fill:#FFE70D;}
	.st5{fill:#6D372E;}
	.st6{fill:#BABABA;}
	.st7{fill:#CE9367;}
	.st8{fill:#A05A4A;}
	.st9{fill:#5B2C25;}
	.st10{fill:#D83030;}
	.st11{fill:#36F282;}
	.st12{fill:#E56533;}
	.st13{fill:#3D809B;}
	.st14{fill:#51A3BC;}
	.st15{fill:#FFD55F;}
	.st16{fill:#E2A554;}
	.st17{fill:#A01A1A;}
	.st18{fill:#469FCC;}
	.st19{fill:#B356DB;}
	.st20{fill:#58AA44;}
	.st21{fill:#257DA0;}
	.st22{fill:#83CFED;}
	.st23{fill:#D7EFF7;}
	.st24{fill:#224415;}
	.st25{fill:#212947;}
	.st26{fill:#FFF75C;}
	.st27{fill:#397224;}
	.st28{fill:#515151;}
	.st29{fill:#FFC476;}
	.st30{fill:#EDBE9D;}
	.st31{fill:#656666;}
	.st32{fill:#FFF297;}
	.st33{fill:#FFFFFF;}
	.st34{fill:#F4BD98;}
	.st35{fill:none;stroke:#000000;stroke-miterlimit:10;}
	.st36{fill:#F4C653;}
	.st37{fill:#CCF3FF;}
	.st38{fill:#FCE8B6;}
	.st39{fill:#81FCB3;}
	.st40{fill:#020001;}
	.st41{fill:#020202;}
	.st42{fill:#F77B54;}
	.st43{fill:#F2A55F;}
</style>
<g>
	<g>
		<path d="M31.2,120.8c20.6,0.1,41.2,0.2,61.9,0.3c3.2,0,3.2-5,0-5c-20.6-0.1-41.2-0.2-61.9-0.3C28,115.8,28,120.8,31.2,120.8
			L31.2,120.8z"/>
	</g>
</g>
<g>
	<path d="M104.7,118.7c0,1.3-1.1,2.4-2.4,2.4l0,0c-1.3,0-2.4-1.1-2.4-2.4l0,0c0-1.3,1.1-2.4,2.4-2.4l0,0
		C103.6,116.2,104.7,117.3,104.7,118.7L104.7,118.7z"/>
</g>
<g>
	<polygon class="st39" points="69.8,231.5 11,129.6 69.8,27.7 187.5,27.7 246.3,129.6 187.5,231.5 	"/>
</g>
<g>
	<path class="st18" d="M69.8,27.7l12.5,22.9l2.7,2.2c9.8-5.9,22.1-3.4,27.4,5.5s1.7,20.8-8.2,26.7l-0.6,1.4l24.6,43.6h-1.9L11,129.6
		L69.8,27.7z"/>
</g>
<g>
	<path class="st12" d="M187.5,27.7l-59.8,103.6l-24.2,45.9c10,5.5,14,17.4,9,26.4c-5,9.1-18.9,9.6-28.9,4l-1,1.7l-12.8,22.2h117.7
		l-59.8-100.3"/>
</g>
<g>
	<path class="st10" d="M246.3,129.6H207V128c0-11.4-8.4-20.7-18.8-20.7s-18.8,9.3-18.8,20.7v1.6h-40.8l58.8-101.9L246.3,129.6z"/>
</g>
</svg>
