<svg xmlns="http://www.w3.org/2000/svg" viewBox="0 0 512 512"><title>50 Astrology Icons - Expanded</title><path d="M256,496h0C149.961,496,64,410.039,64,304V144A128,128,0,0,1,192,16h32a32,32,0,0,1,32,32h0a32,32,0,0,1,32-32h32A128,128,0,0,1,448,144V304C448,410.039,362.039,496,256,496Z" fill="#a05523"/><path d="M368,94.059h0A33.941,33.941,0,0,1,401.941,128v33.941a0,0,0,0,1,0,0H334.059a0,0,0,0,1,0,0V128A33.941,33.941,0,0,1,368,94.059Z" transform="translate(198.294 -222.725) rotate(45)" fill="#f06423"/><path d="M110.059,94.059h67.882a0,0,0,0,1,0,0V128A33.941,33.941,0,0,1,144,161.941h0A33.941,33.941,0,0,1,110.059,128V94.059a0,0,0,0,1,0,0Z" transform="translate(336.333 116.686) rotate(135)" fill="#f06423"/><path d="M144,459.955A191.122,191.122,0,0,0,256,496h0a191.122,191.122,0,0,0,112-36.045V232H144Z" fill="#784119"/><path d="M224,336h64a0,0,0,0,1,0,0v32a16,16,0,0,1-16,16H240a16,16,0,0,1-16-16V336A0,0,0,0,1,224,336Z" fill="#facda0"/><path d="M320,176a32,32,0,0,0-32,32v96a32,32,0,1,0,32,32V296a24,24,0,0,1,24-24,24,24,0,0,0,24-24V176Z" fill="#f06423"/><path d="M224,304V208a32,32,0,0,0-32-32H144v72a24,24,0,0,0,24,24,24,24,0,0,1,24,24v40a32,32,0,1,0,32-32Z" fill="#f06423"/><circle cx="192" cy="208" r="16" fill="#32283c"/><circle cx="320" cy="208" r="16" fill="#32283c"/><path d="M176,128H336a32,32,0,0,1,32,32v16H320a32,32,0,0,0-32,32v80H224V208a32,32,0,0,0-32-32H144V160A32,32,0,0,1,176,128Z" fill="#facda0"/><path d="M288,304V288H224v16a32,32,0,0,1,32,32A32,32,0,0,1,288,304Z" fill="#32283c"/></svg>