<svg xmlns="http://www.w3.org/2000/svg" viewBox="0 0 512 512"><title>50 Astrology Icons - Expanded</title><path d="M128,320h64a0,0,0,0,1,0,0v48a32,32,0,0,1-32,32h0a32,32,0,0,1-32-32V320A0,0,0,0,1,128,320Z" fill="#d73228"/><path d="M320,320h64a0,0,0,0,1,0,0v48a32,32,0,0,1-32,32h0a32,32,0,0,1-32-32V320A0,0,0,0,1,320,320Z" fill="#d73228"/><path d="M256,112h0A128,128,0,0,0,128,240v80a32,32,0,0,0,64,0H320a32,32,0,0,0,64,0V240A128,128,0,0,0,256,112Z" fill="#d7e6f0"/><path d="M304,16a16,16,0,0,0-16,16,60.818,60.818,0,0,1-16,41.276V32a16,16,0,0,0-32,0V256a16,16,0,0,0,32,0V118.627l20.688-20.686A92.652,92.652,0,0,0,320,32,16,16,0,0,0,304,16Z" fill="#d73228"/><path d="M256,272a16,16,0,0,1-16-16V118.627L219.313,97.941A92.649,92.649,0,0,1,192,32a16,16,0,0,1,32,0,60.859,60.859,0,0,0,17.941,43.314l25.372,25.372A16,16,0,0,1,272,112V256A16,16,0,0,1,256,272Z" fill="#f05a4b"/><path d="M192,320h64a0,0,0,0,1,0,0V464a32,32,0,0,1-32,32h0a32,32,0,0,1-32-32V320a0,0,0,0,1,0,0Z" fill="#f05a4b"/><path d="M256,320h64a0,0,0,0,1,0,0V464a32,32,0,0,1-32,32h0a32,32,0,0,1-32-32V320A0,0,0,0,1,256,320Z" fill="#d73228"/><path d="M256,384h0a19.315,19.315,0,0,0,13.657-5.657l44.686-44.686A19.315,19.315,0,0,0,320,320h0a64,64,0,0,0-64-64h0a64,64,0,0,0-64,64h0a19.315,19.315,0,0,0,5.657,13.657l44.686,44.686A19.315,19.315,0,0,0,256,384Z" fill="#faa519"/><circle cx="208" cy="224" r="16" fill="#32283c"/><circle cx="304" cy="224" r="16" fill="#32283c"/><path d="M256,256h0V384a19.315,19.315,0,0,0,13.657-5.657l44.686-44.686A19.315,19.315,0,0,0,320,320h0A64,64,0,0,0,256,256Z" fill="#f5871e"/><rect x="224" y="288" width="16" height="32" rx="8" ry="8" fill="#96321e"/><rect x="272" y="288" width="16" height="32" rx="8" ry="8" fill="#96321e"/></svg>