<?xml version="1.0" encoding="utf-8"?>
<!-- Generator: Adobe Illustrator 24.0.0, SVG Export Plug-In . SVG Version: 6.00 Build 0)  -->
<svg version="1.1" id="Layer_1" xmlns="http://www.w3.org/2000/svg" xmlns:xlink="http://www.w3.org/1999/xlink" x="0px" y="0px"
	 viewBox="0 0 512 512" enable-background="new 0 0 512 512" xml:space="preserve">
<g>
	<g>
		<g>
			<path fill="#5AD7FF" d="M214.948,304h35.797c8.487,0,16.626,3.371,22.627,9.373l72.971,72.971
				c5.04,5.04,1.47,13.657-5.657,13.657h-68.123c-5.35,0-10.345-2.674-13.313-7.125l-50.958-76.438
				C204.747,311.121,208.559,304,214.948,304z"/>
		</g>
		<g>
			<path fill="#D7E6F0" d="M456,400c0-17.673-14.327-32-32-32H80c-4.418,0-8,3.582-8,8v19.056c0,3.03,1.712,5.8,4.422,7.155
				l57.889,28.944c1.111,0.555,2.336,0.845,3.578,0.845h317.66c8.616,0,16.029-6.621,16.433-15.227
				C472.414,407.584,465.093,400,456,400z"/>
		</g>
		<g>
			<path fill="#A5C3DC" d="M76.422,402.211l57.889,28.944c1.111,0.556,2.336,0.845,3.578,0.845h317.66
				c8.616,0,16.029-6.621,16.433-15.228C472.414,407.584,465.093,400,456,400H73.724C74.44,400.909,75.349,401.674,76.422,402.211z"
				/>
		</g>
		<g>
			<path fill="#555A6E" d="M408,392L408,392c0,4.418,3.582,8,8,8h40l0,0c0-5.831-1.567-11.292-4.292-16H416
				C411.582,384,408,387.582,408,392z"/>
		</g>
		<g>
			<path fill="#23AAE6" d="M88,368v-72c0-4.418,3.582-8,8-8h14.941c5.62,0,10.828,2.949,13.72,7.768L168,368H88z"/>
		</g>
		<g>
			<path fill="#23AAE6" d="M160,384H48c-4.418,0-8,3.582-8,8l0,0c0,4.418,3.582,8,8,8h112c4.418,0,8-3.582,8-8l0,0
				C168,387.582,164.418,384,160,384z"/>
		</g>
		<g>
			<path fill="#23AAE6" d="M214.948,496h35.797c8.487,0,16.626-3.371,22.627-9.373l72.971-72.971
				c5.04-5.04,1.47-13.657-5.657-13.657h-68.123c-5.35,0-10.345,2.674-13.313,7.125l-50.958,76.438
				C204.747,488.879,208.559,496,214.948,496z"/>
		</g>
		<g>
			<circle fill="#5AD7FF" cx="116" cy="336" r="12"/>
		</g>
	</g>
	<g>
		<g>
			<path fill="#F06423" d="M352,112c0-53.019-42.981-96-96-96s-96,42.981-96,96c0,17.461,4.663,33.832,12.81,47.938h-0.002
				l69.327,120.051h0.017c2.766,4.783,7.925,8.01,13.848,8.01s11.082-3.227,13.848-8.01h0.017l69.327-120.051h-0.002
				C347.337,145.832,352,129.461,352,112z"/>
		</g>
		<g>
			<path fill="#FAA019" d="M176,128c-8.837,0-16-7.163-16-16c0-52.935,43.065-96,96-96c8.837,0,16,7.163,16,16s-7.163,16-16,16
				c-35.29,0-64,28.71-64,64C192,120.837,184.837,128,176,128z"/>
		</g>
		<g>
			<circle fill="#D7E6F0" cx="256" cy="112" r="64"/>
		</g>
		<g>
			<circle fill="#D7E6F0" cx="256" cy="112" r="64"/>
		</g>
		<g>
			<path fill="#F04B37" d="M248,144c-4.095,0-8.189-1.563-11.313-4.687l-16-16c-6.249-6.248-6.249-16.379,0-22.627
				c6.248-6.248,16.379-6.248,22.627,0l4.687,4.686l28.687-28.686c6.248-6.248,16.379-6.248,22.627,0
				c6.249,6.248,6.249,16.379,0,22.627l-40,40C256.189,142.438,252.095,144,248,144z"/>
		</g>
	</g>
</g>
</svg>
