<?xml version="1.0" encoding="utf-8"?>
<!-- Generator: Adobe Illustrator 24.0.0, SVG Export Plug-In . SVG Version: 6.00 Build 0)  -->
<svg version="1.1" id="Layer_1" xmlns="http://www.w3.org/2000/svg" xmlns:xlink="http://www.w3.org/1999/xlink" x="0px" y="0px"
	 viewBox="0 0 512 512" enable-background="new 0 0 512 512" xml:space="preserve">
<g>
	<g>
		<g>
			<path fill="#E1322D" d="M256,384c-6.142,0-12.284-2.343-16.971-7.029l-40-40C194.529,332.47,192,326.365,192,320v-24
				c0-9.707,5.848-18.458,14.815-22.173c8.969-3.719,19.291-1.662,26.155,5.202L256,302.059l23.029-23.029
				c6.865-6.862,17.187-8.918,26.155-5.202C314.152,277.542,320,286.293,320,296v24c0,6.365-2.529,12.47-7.029,16.971l-40,40
				C268.284,381.657,262.142,384,256,384z"/>
		</g>
		<g>
			<path fill="#F04B37" d="M256,360c-6.142,0-12.284-2.343-16.971-7.029l-40-40c-9.373-9.373-9.373-24.568,0-33.941
				c9.373-9.373,24.568-9.373,33.941,0L256,302.059l23.029-23.029c9.373-9.373,24.568-9.373,33.941,0
				c9.373,9.373,9.373,24.568,0,33.941l-40,40C268.284,357.657,262.142,360,256,360z"/>
		</g>
	</g>
	<g>
		<g>
			<path fill="#5AD7FF" d="M239.123,56.374l34.577,9.265c8.198,2.197,15.187,7.56,19.431,14.91l51.598,89.37
				c3.564,6.172-2.114,13.572-8.999,11.727l-65.802-17.632c-5.167-1.385-9.301-5.26-11.015-10.328l-29.439-87.022
				C227.427,60.612,232.951,54.72,239.123,56.374z"/>
		</g>
		<g>
			<path fill="#D7E6F0" d="M447.115,211.491c4.574-17.071-5.557-34.618-22.627-39.192L92.209,83.266
				c-4.268-1.144-8.654,1.389-9.798,5.657l-4.932,18.406c-0.784,2.927,0.152,6.046,2.42,8.056l48.425,42.941
				c0.929,0.824,2.038,1.42,3.237,1.742l306.836,82.216c8.322,2.23,17.196-2.247,19.815-10.455
				C461.006,223.065,455.897,213.845,447.115,211.491z"/>
		</g>
		<g>
			<path fill="#A5C3DC" d="M79.898,115.385l48.425,42.941c0.929,0.824,2.038,1.42,3.237,1.742l306.836,82.216
				c8.322,2.23,17.196-2.247,19.815-10.455c2.795-8.764-2.313-17.984-11.096-20.337l-369.25-98.94
				C78.321,113.614,79,114.588,79.898,115.385z"/>
		</g>
		<g>
			<path fill="#555A6E" d="M402.821,191.34L402.821,191.34c-1.144,4.268,1.389,8.654,5.657,9.798l38.637,10.353l0,0
				c1.509-5.632,1.409-11.313-0.004-16.566l-34.492-9.242C408.351,184.54,403.964,187.073,402.821,191.34z"/>
		</g>
		<g>
			<path fill="#23AAE6" d="M99.936,85.336l18.635-69.547c1.144-4.268,5.53-6.8,9.798-5.657L142.801,14
				c5.429,1.455,9.696,5.651,11.242,11.054l23.167,80.988L99.936,85.336z"/>
		</g>
		<g>
			<path fill="#23AAE6" d="M165.342,119.426L57.158,90.438c-4.268-1.144-8.654,1.389-9.798,5.657l0,0
				c-1.144,4.268,1.389,8.654,5.657,9.798l108.184,28.988c4.268,1.144,8.654-1.389,9.798-5.657l0,0
				C172.142,124.956,169.609,120.57,165.342,119.426z"/>
		</g>
		<g>
			<path fill="#23AAE6" d="M189.43,241.831l34.577,9.265c8.198,2.197,16.932,1.047,24.282-3.197l89.37-51.598
				c6.172-3.564,4.955-12.811-1.929-14.656l-65.802-17.632c-5.167-1.385-10.685-0.095-14.703,3.436l-69.006,60.644
				C181.42,232.313,183.258,240.178,189.43,241.831z"/>
		</g>
		<g>
			<circle fill="#5AD7FF" cx="135.264" cy="61.673" r="12"/>
		</g>
	</g>
	<g>
		<path fill="#91C83C" d="M480,480H32c-8.837,0-16-7.163-16-16v-48c0-8.837,7.163-16,16-16h448c8.837,0,16,7.163,16,16v48
			C496,472.837,488.837,480,480,480z"/>
	</g>
	<g>
		<path fill="#555A6E" d="M496,448H16v-32c0-8.837,7.163-16,16-16h448c8.837,0,16,7.163,16,16V448z"/>
	</g>
</g>
</svg>
