<?xml version="1.0" encoding="utf-8"?>
<!-- Generator: Adobe Illustrator 24.0.0, SVG Export Plug-In . SVG Version: 6.00 Build 0)  -->
<svg version="1.1" id="Layer_1" xmlns="http://www.w3.org/2000/svg" xmlns:xlink="http://www.w3.org/1999/xlink" x="0px" y="0px"
	 viewBox="0 0 512 512" enable-background="new 0 0 512 512" xml:space="preserve">
<g>
	<g>
		<g>
			<path fill="#463C4B" d="M448,496h-32c-17.673,0-32-14.327-32-32v0c0-17.673,14.327-32,32-32h32c17.673,0,32,14.327,32,32v0
				C480,481.673,465.673,496,448,496z"/>
		</g>
		<g>
			<circle fill="#555A6E" cx="416" cy="464" r="32"/>
		</g>
		<g>
			<circle fill="#D7E6F0" cx="416" cy="464" r="16"/>
		</g>
		<g>
			<path fill="#463C4B" d="M288,496h-32c-17.673,0-32-14.327-32-32v0c0-17.673,14.327-32,32-32h32c17.673,0,32,14.327,32,32v0
				C320,481.673,305.673,496,288,496z"/>
		</g>
		<g>
			<path fill="#463C4B" d="M96,496H64c-17.673,0-32-14.327-32-32v0c0-17.673,14.327-32,32-32h32c17.673,0,32,14.327,32,32v0
				C128,481.673,113.673,496,96,496z"/>
		</g>
		<g>
			<path fill="#23AAE6" d="M480,464H32c-8.837,0-16-7.163-16-16V272c0-17.673,14.327-32,32-32h416c17.673,0,32,14.327,32,32v176
				C496,456.837,488.837,464,480,464z"/>
		</g>
		<g>
			<path fill="#5AD7FF" d="M320,464H32c-8.837,0-16-7.163-16-16V272c0-17.673,14.327-32,32-32h256c17.673,0,32,14.327,32,32v176
				C336,456.837,328.837,464,320,464z"/>
		</g>
		<g>
			<rect x="336" y="272" fill="#463C4B" width="160" height="128"/>
		</g>
		<g>
			<path fill="#555A6E" d="M16,272v80h248c13.255,0,24,10.745,24,24v0c0,13.255,10.745,24,24,24h24V272H16z"/>
		</g>
		<g>
			<circle fill="#555A6E" cx="64" cy="464" r="32"/>
		</g>
		<g>
			<circle fill="#D7E6F0" cx="64" cy="464" r="16"/>
		</g>
		<g>
			<circle fill="#555A6E" cx="256" cy="464" r="32"/>
		</g>
		<g>
			<circle fill="#D7E6F0" cx="256" cy="464" r="16"/>
		</g>
		<g>
			<path fill="#2387C3" d="M84,376H44c-2.209,0-4,1.791-4,4l0,0c0,2.209,1.791,4,4,4h40c2.209,0,4-1.791,4-4l0,0
				C88,377.791,86.209,376,84,376z"/>
		</g>
		<g>
			<path fill="#2387C3" d="M84,392H44c-2.209,0-4,1.791-4,4l0,0c0,2.209,1.791,4,4,4h40c2.209,0,4-1.791,4-4l0,0
				C88,393.791,86.209,392,84,392z"/>
		</g>
		<g>
			<path fill="#2387C3" d="M84,408H44c-2.209,0-4,1.791-4,4l0,0c0,2.209,1.791,4,4,4h40c2.209,0,4-1.791,4-4l0,0
				C88,409.791,86.209,408,84,408z"/>
		</g>
		<g>
			<path fill="#FAA019" d="M372,440h-36v-24h24c8.837,0,16,7.163,16,16v4C376,438.209,374.209,440,372,440z"/>
		</g>
		<g>
			<path fill="#FAA019" d="M460,440h36v-24h-24c-8.837,0-16,7.163-16,16v4C456,438.209,457.791,440,460,440z"/>
		</g>
	</g>
	<g>
		<g>
			<path fill="#E1322D" d="M352,112c0-53.019-42.981-96-96-96s-96,42.981-96,96c0,17.461,4.663,33.832,12.81,47.938h-0.002
				l69.327,120.051h0.017c2.766,4.783,7.925,8.01,13.848,8.01s11.082-3.227,13.848-8.01h0.017l69.327-120.051h-0.002
				C347.337,145.832,352,129.461,352,112z"/>
		</g>
		<g>
			<path fill="#F5826E" d="M176,128c-8.837,0-16-7.163-16-16c0-52.935,43.065-96,96-96c8.837,0,16,7.163,16,16s-7.163,16-16,16
				c-35.29,0-64,28.71-64,64C192,120.837,184.837,128,176,128z"/>
		</g>
		<g>
			<circle fill="#D7E6F0" cx="256" cy="112" r="64"/>
		</g>
		<g>
			<circle fill="#D7E6F0" cx="256" cy="112" r="64"/>
		</g>
		<g>
			<path fill="#F04B37" d="M248,144c-4.095,0-8.189-1.563-11.313-4.687l-16-16c-6.249-6.248-6.249-16.379,0-22.627
				c6.248-6.248,16.379-6.248,22.627,0l4.687,4.686l28.687-28.686c6.248-6.248,16.379-6.248,22.627,0
				c6.249,6.248,6.249,16.379,0,22.627l-40,40C256.189,142.438,252.095,144,248,144z"/>
		</g>
	</g>
</g>
</svg>
