<?xml version="1.0" encoding="utf-8"?>
<!-- Generator: Adobe Illustrator 24.0.0, SVG Export Plug-In . SVG Version: 6.00 Build 0)  -->
<svg version="1.1" id="Layer_1" xmlns="http://www.w3.org/2000/svg" xmlns:xlink="http://www.w3.org/1999/xlink" x="0px" y="0px"
	 viewBox="0 0 512 512" enable-background="new 0 0 512 512" xml:space="preserve">
<g>
	<g>
		<path fill="#2387C3" d="M296,432c-8.189,0-16.379-3.124-22.628-9.373l-96-96c-12.496-12.497-12.496-32.758,0-45.255
			c12.498-12.497,32.758-12.497,45.256,0l96,96c12.496,12.497,12.496,32.758,0,45.255C312.379,428.876,304.189,432,296,432z"/>
	</g>
	<g>
		<g>
			<path fill="#FAB991" d="M192,248h-56v24H64V152c0-44.183,35.817-80,80-80h80v144C224,233.673,209.673,248,192,248z"/>
		</g>
		<g>
			<path fill="#F0915A" d="M136,272H64v0c0-13.255,10.745-24,24-24h48V272z"/>
		</g>
		<g>
			<circle fill="#463C4B" cx="176" cy="160" r="8"/>
		</g>
		<g>
			<circle fill="#463C4B" cx="208" cy="160" r="8"/>
		</g>
		<g>
			<path fill="#F0915A" d="M200,200L200,200c-4.418,0-8-3.582-8-8v-21.333h0c8.837,0,16,7.163,16,16V192
				C208,196.418,204.418,200,200,200z"/>
		</g>
		<g>
			<path fill="#463C4B" d="M192,224h8c4.418,0,8-3.582,8-8v0h-24v0C184,220.418,187.582,224,192,224z"/>
		</g>
		<g>
			<path fill="#463C4B" d="M56,216c0,8.836,7.164,16,16,16h32c8.836,0,16-7.164,16-16v-32c8.836,0,16-7.164,16-16v-24
				c0-8.836,7.164-16,16-16H56V216z"/>
		</g>
		<g>
			<path fill="#F0915A" d="M120,160c-13.255,0-24,10.745-24,24s10.745,24,24,24V160z"/>
		</g>
		<g>
			<path fill="#23AAE6" d="M232,400H32v-96c0-17.673,14.327-32,32-32h136c17.673,0,32,14.327,32,32V400z"/>
		</g>
		<g>
			<path fill="#555A6E" d="M144,272h-16c17.673,0,32,14.327,32,32v96h16v-96C176,286.327,161.673,272,144,272z"/>
		</g>
		<g>
			<path fill="#5AD7FF" d="M96,400H32v-96c0-17.673,14.327-32,32-32h0c17.673,0,32,14.327,32,32V400z"/>
		</g>
	</g>
	<g>
		<path fill="#F06423" d="M482.667,426.667H29.333c-7.364,0-13.333-5.97-13.333-13.333v0C16,405.97,21.97,400,29.333,400h453.333
			c7.364,0,13.333,5.97,13.333,13.333v0C496,420.697,490.03,426.667,482.667,426.667z"/>
	</g>
	<g>
		<path fill="#FAA019" d="M242.667,426.667H29.333c-7.364,0-13.333-5.97-13.333-13.333v0C16,405.97,21.97,400,29.333,400h213.333
			c7.364,0,13.333,5.97,13.333,13.333v0C256,420.697,250.03,426.667,242.667,426.667z"/>
	</g>
	<g>
		<rect x="32" y="426.667" fill="#A5C3DC" width="448" height="37.333"/>
	</g>
	<g>
		<rect x="32" y="426.667" fill="#D7E6F0" width="208" height="37.333"/>
	</g>
	<g>
		<path fill="#23AAE6" d="M56,128v-16l-4.232-4.232c-6.499-6.499-6.499-17.037,0-23.536l0,0c2.736-2.736,6.339-4.433,10.19-4.799
			L213.181,65.03c6.851-0.653,13.636,1.788,18.503,6.654l0,0c9.011,9.011,9.011,23.62,0,32.631L224,112v16H56z"/>
	</g>
	<g>
		<path fill="#5AD7FF" d="M136,128h24v-16h-24c-4.418,0-8,3.582-8,8v0C128,124.418,131.582,128,136,128z"/>
	</g>
	<g>
		<path fill="#555A6E" d="M184,144h40c8.837,0,16-7.163,16-16v0c0-8.837-7.163-16-16-16h-72v0C152,129.673,166.327,144,184,144z"/>
	</g>
	<g>
		<g>
			<path fill="#463C4B" d="M464,352H280c-4.418,0-8,3.582-8,8v24c0,8.837,7.163,16,16,16h160c8.837,0,16-7.163,16-16V352z"/>
		</g>
		<g>
			<path fill="#555A6E" d="M400,352H280c-4.418,0-8,3.582-8,8v24c0,8.837,7.163,16,16,16h96c8.837,0,16-7.163,16-16V352z"/>
		</g>
		<g>
			<path fill="#463C4B" d="M480,224h-72c-4.418,0-8,3.582-8,8v120h80c8.837,0,16-7.163,16-16v-96C496,231.163,488.837,224,480,224z"
				/>
		</g>
		<g>
			<path fill="#555A6E" d="M416,224h-8c-4.418,0-8,3.582-8,8v120h16c8.837,0,16-7.163,16-16v-96C432,231.163,424.837,224,416,224z"
				/>
		</g>
	</g>
	<g>
		<g>
			<circle fill="#D7E6F0" cx="352" cy="144" r="80"/>
		</g>
		<g>
			<path fill="#FAA019" d="M336,192c-4.243,0-8.313-1.686-11.313-4.687l-24-24c-6.249-6.248-6.249-16.379,0-22.627
				c6.248-6.249,16.379-6.249,22.627,0L336,153.373l46.02-46.02c6.248-6.249,16.379-6.249,22.627,0
				c6.249,6.249,6.249,16.379,0,22.627l-57.333,57.333C344.313,190.314,340.243,192,336,192z"/>
		</g>
	</g>
</g>
</svg>
