<?xml version="1.0" encoding="utf-8"?>
<!-- Generator: Adobe Illustrator 24.0.0, SVG Export Plug-In . SVG Version: 6.00 Build 0)  -->
<svg version="1.1" id="Layer_1" xmlns="http://www.w3.org/2000/svg" xmlns:xlink="http://www.w3.org/1999/xlink" x="0px" y="0px"
	 viewBox="0 0 512 512" enable-background="new 0 0 512 512" xml:space="preserve">
<g>
	<path fill="#E1322D" d="M412.347,333.631C404.917,315.695,387.414,304,368,304h-32c-5.504,0-10.908,0.949-16,2.75V208
		c0-26.51-21.49-48-48-48h-32c-26.51,0-48,21.49-48,48v98.75c-5.092-1.8-10.496-2.75-16-2.75h-32
		c-19.414,0-36.917,11.695-44.346,29.631c-7.43,17.937-3.323,38.582,10.405,52.31l96,96C215.061,490.943,227.27,496,240,496h32
		c12.73,0,24.939-5.057,33.941-14.059l96-96C415.669,372.213,419.775,351.568,412.347,333.631z"/>
	<g>
		<path fill="#F06423" d="M272,16h-32c-26.51,0-48,21.49-48,48v32c0,26.51,21.49,48,48,48h32c26.51,0,48-21.49,48-48V64
			C320,37.49,298.51,16,272,16z"/>
	</g>
	<path fill="#F04B37" d="M369.941,318.059c-18.746-18.745-49.137-18.745-67.883,0L288,332.117V208c0-26.51-21.49-48-48-48l0,0
		c-26.51,0-48,21.49-48,48v124.118l-14.059-14.059c-18.745-18.745-49.137-18.745-67.882,0c-18.746,18.745-18.746,49.137,0,67.882
		l96,96C215.432,491.314,227.716,496,240,496s24.568-4.686,33.941-14.059l96-96C388.687,367.196,388.687,336.804,369.941,318.059z"
		/>
	<g>
		<path fill="#FAA019" d="M240,16L240,16c-26.51,0-48,21.49-48,48v32c0,26.51,21.49,48,48,48h0c26.51,0,48-21.49,48-48V64
			C288,37.49,266.51,16,240,16z"/>
	</g>
</g>
</svg>
