<?xml version="1.0" encoding="utf-8"?>
<!-- Generator: Adobe Illustrator 24.0.0, SVG Export Plug-In . SVG Version: 6.00 Build 0)  -->
<svg version="1.1" id="Layer_1" xmlns="http://www.w3.org/2000/svg" xmlns:xlink="http://www.w3.org/1999/xlink" x="0px" y="0px"
	 viewBox="0 0 512 512" enable-background="new 0 0 512 512" xml:space="preserve">
<g>
	<g>
		<path fill="#A5C3DC" d="M304,80v64c0,8.837-7.163,16-16,16h-64c-8.837,0-16,7.163-16,16v64c0,8.837-7.163,16-16,16h-64
			c-8.837,0-16,7.163-16,16v64c0,8.837-7.163,16-16,16H32c-8.837,0-16,7.163-16,16v64c0,8.837,7.163,16,16,16h448
			c8.837,0,16-7.163,16-16V80c0-8.837-7.163-16-16-16H320C311.163,64,304,71.163,304,80z"/>
	</g>
	<g>
		<path fill="#D7E6F0" d="M304,80v64c0,8.837-7.163,16-16,16h-64c-8.837,0-16,7.163-16,16v64c0,8.837-7.163,16-16,16h-64
			c-8.837,0-16,7.163-16,16v64c0,8.837-7.163,16-16,16H32c-8.837,0-16,7.163-16,16v64c0,8.837,7.163,16,16,16h416
			c8.837,0,16-7.163,16-16V80c0-8.837-7.163-16-16-16H320C311.163,64,304,71.163,304,80z"/>
	</g>
	<g>
		<path fill="#F06423" d="M445.564,211.754C440.611,199.796,428.942,192,416,192h-32c-8.487,0-16.626,3.371-22.627,9.373
			l-65.419,65.419C290.091,260.175,281.535,256,272,256h-32c-17.673,0-32,14.327-32,32v80c0,17.673,14.327,32,32,32h112
			c17.673,0,32-14.327,32-32s-14.327-32-32-32h-2.746l89.373-89.373C447.779,237.476,450.518,223.712,445.564,211.754z"/>
		<path fill="#FAA019" d="M406.628,201.373c-12.498-12.497-32.758-12.497-45.256,0L272,290.745V288c0-17.673-14.327-32-32-32
			s-32,14.327-32,32v80c0,17.673,14.327,32,32,32h80c17.673,0,32-14.327,32-32s-14.327-32-32-32h-2.745l89.373-89.373
			C419.124,234.131,419.124,213.869,406.628,201.373z"/>
	</g>
</g>
</svg>
