<?xml version="1.0" encoding="utf-8"?>
<!-- Generator: Adobe Illustrator 24.0.0, SVG Export Plug-In . SVG Version: 6.00 Build 0)  -->
<svg version="1.1" id="Layer_1" xmlns="http://www.w3.org/2000/svg" xmlns:xlink="http://www.w3.org/1999/xlink" x="0px" y="0px"
	 viewBox="0 0 512 512" enable-background="new 0 0 512 512" xml:space="preserve">
<g>
	<g>
		<path fill="#A5C3DC" d="M400,176h-32c-19.414,0-36.917-11.695-44.347-29.631c-7.429-17.936-3.322-38.582,10.405-52.31l16-16
			C359.061,69.057,371.27,64,384,64h32c19.414,0,36.917,11.695,44.347,29.631c7.429,17.936,3.322,38.582-10.405,52.31l-16,16
			C424.939,170.943,412.73,176,400,176z"/>
	</g>
	<path fill="#23AAE6" d="M364.347,189.631C356.917,171.695,339.414,160,320,160h-32c-12.73,0-24.939,5.057-33.941,14.059
		l-81.103,81.103C166.135,236.96,148.584,224,128,224H96c-26.51,0-48,21.49-48,48v128c0,26.51,21.49,48,48,48h160
		c26.51,0,48-21.49,48-48s-21.49-48-48-48h-12.118l110.059-110.059C367.669,228.213,371.775,207.568,364.347,189.631z"/>
	<g>
		<path fill="#D7E6F0" d="M368,176c-12.284,0-24.568-4.686-33.941-14.059c-18.745-18.745-18.745-49.137,0-67.882l16-16
			c18.746-18.745,49.137-18.745,67.883,0c18.745,18.745,18.745,49.137,0,67.882l-16,16C392.568,171.314,380.284,176,368,176z"/>
	</g>
	<path fill="#5AD7FF" d="M321.941,174.059c-18.746-18.745-49.137-18.745-67.882,0L144,284.118V272c0-26.51-21.49-48-48-48
		s-48,21.49-48,48v128c0,26.51,21.49,48,48,48h128c26.51,0,48-21.49,48-48s-21.49-48-48-48h-12.118l110.059-110.059
		C340.687,223.196,340.687,192.804,321.941,174.059z"/>
</g>
</svg>
