<?xml version="1.0" encoding="utf-8"?>
<!-- Generator: Adobe Illustrator 24.0.0, SVG Export Plug-In . SVG Version: 6.00 Build 0)  -->
<svg version="1.1" id="Layer_1" xmlns="http://www.w3.org/2000/svg" xmlns:xlink="http://www.w3.org/1999/xlink" x="0px" y="0px"
	 viewBox="0 0 512 512" enable-background="new 0 0 512 512" xml:space="preserve">
<g>
	<g>
		<path fill="#F06423" d="M24,240h96c3.075,0,5.878-1.763,7.21-4.535c1.332-2.771,0.958-6.062-0.963-8.463l-32-40
			C92.729,185.104,90.43,184,88,184H56c-2.43,0-4.729,1.104-6.247,3.002l-32,40c-1.921,2.401-2.295,5.691-0.963,8.463
			C18.122,238.237,20.925,240,24,240z"/>
		<path fill="#F06423" d="M120,272H24c-3.075,0-5.878,1.763-7.21,4.535c-1.332,2.771-0.958,6.062,0.963,8.463l32,40
			C51.271,326.896,53.57,328,56,328h32c2.43,0,4.729-1.104,6.247-3.002l32-40c1.921-2.401,2.295-5.691,0.963-8.463
			C125.878,273.763,123.075,272,120,272z"/>
	</g>
	<g>
		<path fill="#FAA019" d="M24,240h64c3.075,0,5.878-1.763,7.21-4.535c1.332-2.771,0.958-6.062-0.963-8.463l-32-40
			C60.729,185.104,58.43,184,56,184s-4.729,1.104-6.247,3.002l-32,40c-1.921,2.401-2.295,5.691-0.963,8.463
			C18.122,238.237,20.925,240,24,240z"/>
		<path fill="#FAA019" d="M88,272H24c-3.075,0-5.878,1.763-7.21,4.535c-1.332,2.771-0.958,6.062,0.963,8.463l32,40
			C51.271,326.896,53.57,328,56,328s4.729-1.104,6.247-3.002l32-40c1.921-2.401,2.295-5.691,0.963-8.463
			C93.878,273.763,91.075,272,88,272z"/>
	</g>
	<g>
		<path fill="#23AAE6" d="M464,480H176c-17.645,0-32-14.355-32-32V64c0-17.645,14.355-32,32-32h288c17.645,0,32,14.355,32,32v384
			C496,465.645,481.645,480,464,480z M176,64v384h288c0.014,0,0.02-0.001,0.02-0.001L464,64H176z"/>
	</g>
	<g>
		<g>
			<path fill="#463C4B" d="M240,448h-60c-2.209,0-4-1.791-4-4v-4c0-8.837,7.163-16,16-16h48V448z"/>
		</g>
		<g>
			<path fill="#555A6E" d="M280,448h-52c-2.209,0-4-1.791-4-4v-4c0-8.837,7.163-16,16-16h48v16C288,444.418,284.418,448,280,448z"/>
		</g>
		<g>
			<rect x="192" y="272" fill="#463C4B" width="96" height="152"/>
		</g>
		<g>
			<rect x="240" y="272" fill="#555A6E" width="48" height="152"/>
		</g>
		<g>
			<path fill="#A5C3DC" d="M288,272h-96v-96c0-8.837,7.163-16,16-16h64c8.837,0,16,7.163,16,16V272z"/>
		</g>
		<g>
			<path fill="#F0915A" d="M256,160h-32c-8.837,0-16,7.163-16,16v0c0,8.837,7.163,16,16,16h0c8.837,0,16-7.163,16-16v0
				C240,167.164,247.163,160,256,160z"/>
		</g>
		<g>
			<path fill="#F0915A" d="M256,160h-40c-13.255,0-24-10.745-24-24V96h64V160z"/>
		</g>
		<g>
			<path fill="#FAB991" d="M216,160L216,160c-13.255,0-24-10.745-24-24V96h48v40C240,149.255,229.255,160,216,160z"/>
		</g>
		<g>
			<path fill="#D7E6F0" d="M288,208v-32c0-8.837-7.163-16-16-16h0c-8.836,0-16,7.163-16,16v32H288z"/>
		</g>
		<g>
			<path fill="#F0915A" d="M288,208v96c4.418,0,8,3.582,8,8s-3.582,8-8,8h-16c-8.837,0-16-7.164-16-16v-96H288z"/>
		</g>
		<g>
			<path fill="#F04B37" d="M200,80h40c13.255,0,24,10.745,24,24v40c0,4.418-3.582,8-8,8h-8c-4.418,0-8-3.582-8-8v-16
				c-4.418,0-8-3.582-8-8s-3.582-8-8-8h-24c-8.837,0-16-7.164-16-16l0,0C184,87.163,191.163,80,200,80z"/>
		</g>
		<g>
			<path fill="#F0915A" d="M248,136h-8v-16h8c4.418,0,8,3.582,8,8v0C256,132.418,252.418,136,248,136z"/>
		</g>
	</g>
	<g>
		<g>
			<path fill="#463C4B" d="M368,448h-60c-2.209,0-4-1.791-4-4v-4c0-8.837,7.163-16,16-16h48V448z"/>
		</g>
		<g>
			<path fill="#555A6E" d="M408,448h-52c-2.209,0-4-1.791-4-4v-4c0-8.837,7.163-16,16-16h48v16C416,444.418,412.418,448,408,448z"/>
		</g>
		<g>
			<rect x="320" y="272" fill="#F0915A" width="96" height="152"/>
		</g>
		<g>
			<rect x="368" y="272" fill="#FAB991" width="48" height="152"/>
		</g>
		<g>
			<rect x="320" y="272" fill="#F04B37" width="96" height="80"/>
		</g>
		<g>
			<path fill="#A5C3DC" d="M416,272h-96v-96c0-8.837,7.163-16,16-16h64c8.837,0,16,7.163,16,16V272z"/>
		</g>
		<g>
			<path fill="#F0915A" d="M384,160h-32c-8.837,0-16,7.163-16,16v0c0,8.837,7.163,16,16,16h0c8.837,0,16-7.163,16-16v0
				C368,167.164,375.163,160,384,160z"/>
		</g>
		<g>
			<path fill="#F0915A" d="M384,160h-40c-13.255,0-24-10.745-24-24V96h64V160z"/>
		</g>
		<g>
			<path fill="#FAB991" d="M344,160L344,160c-13.255,0-24-10.745-24-24V96h48v40C368,149.255,357.255,160,344,160z"/>
		</g>
		<g>
			<path fill="#F0915A" d="M416,176v128c4.595,0,8.284,3.873,7.983,8.533c-0.275,4.252-3.996,7.467-8.257,7.467H400
				c-8.837,0-16-7.163-16-16V176c0-8.837,7.163-16,16-16h0C408.837,160,416,167.163,416,176z"/>
		</g>
		<g>
			<path fill="#555A6E" d="M328,80h40c17.673,0,32,14.327,32,32v48h-32v-32c-4.364,0-7.912-3.494-7.998-7.837
				c-0.09-4.481-3.518-8.163-8-8.163H328c-8.837,0-16-7.164-16-16l0,0C312,87.163,319.163,80,328,80z"/>
		</g>
	</g>
	<g>
		<path fill="#5AD7FF" d="M432,480H144c-17.645,0-32-14.355-32-32V64c0-17.645,14.355-32,32-32h288c17.645,0,32,14.355,32,32v384
			C464,465.645,449.645,480,432,480z M144,64v384h288c0.014,0,0.02-0.001,0.02-0.001L432,64H144z"/>
	</g>
</g>
</svg>
