<?xml version="1.0" encoding="utf-8"?>
<!-- Generator: Adobe Illustrator 24.0.0, SVG Export Plug-In . SVG Version: 6.00 Build 0)  -->
<svg version="1.1" id="Layer_1" xmlns="http://www.w3.org/2000/svg" xmlns:xlink="http://www.w3.org/1999/xlink" x="0px" y="0px"
	 viewBox="0 0 512 512" enable-background="new 0 0 512 512" xml:space="preserve">
<g>
	<g>
		<path fill="#463C4B" d="M448,448h-64c-12.73,0-24.939-5.057-33.941-14.059L140.117,224H96c-26.51,0-48-21.49-48-48s21.49-48,48-48
			h64c12.73,0,24.939,5.057,33.941,14.059L403.883,352H448c26.51,0,48,21.49,48,48S474.51,448,448,448z"/>
	</g>
	<g>
		<g>
			<path fill="#463C4B" d="M272,384h60c2.209,0,4-1.791,4-4v-4c0-8.837-7.163-16-16-16h-48V384z"/>
		</g>
		<g>
			<path fill="#555A6E" d="M224,384h60c2.209,0,4-1.791,4-4v-4c0-8.837-7.163-16-16-16h-48V384z"/>
		</g>
		<g>
			<rect x="224" y="208" fill="#463C4B" width="96" height="152"/>
		</g>
		<g>
			<path fill="#A5C3DC" d="M224,208h96v-96c0-8.837-7.163-16-16-16h-64c-8.837,0-16,7.163-16,16V208z"/>
		</g>
		<g>
			<path fill="#F0915A" d="M256,96h32c8.837,0,16,7.163,16,16v0c0,8.837-7.163,16-16,16h0c-8.837,0-16-7.163-16-16v0
				C272,103.164,264.837,96,256,96z"/>
		</g>
		<g>
			<path fill="#F0915A" d="M256,96h40c13.255,0,24-10.745,24-24V32h-64V96z"/>
		</g>
		<g>
			<path fill="#FAB991" d="M296,96L296,96c13.255,0,24-10.745,24-24V32h-48v40C272,85.255,282.745,96,296,96z"/>
		</g>
		<g>
			<path fill="#D7E6F0" d="M224,144v-32c0-8.837,7.163-16,16-16h0c8.836,0,16,7.163,16,16v32H224z"/>
		</g>
		<g>
			<path fill="#F0915A" d="M224,144v96c-4.418,0-8,3.582-8,8s3.582,8,8,8h16c8.837,0,16-7.164,16-16v-96H224z"/>
		</g>
		<g>
			<path fill="#F04B37" d="M312,16h-40c-13.255,0-24,10.745-24,24v40c0,4.418,3.582,8,8,8h8c4.418,0,8-3.582,8-8V64
				c4.418,0,8-3.582,8-8s3.582-8,8-8h24c8.837,0,16-7.164,16-16l0,0C328,23.163,320.837,16,312,16z"/>
		</g>
		<g>
			<path fill="#F0915A" d="M264,72h8V56h-8c-4.418,0-8,3.582-8,8v0C256,68.418,259.582,72,264,72z"/>
		</g>
	</g>
	<g>
		<g>
			<path fill="#A5C3DC" d="M32,448h384L184,224H32c-8.837,0-16,7.163-16,16v192C16,440.837,23.163,448,32,448z"/>
		</g>
		<g>
			<path fill="#D7E6F0" d="M32,448h384L184,224H32c-8.837,0-16,7.163-16,16v192C16,440.837,23.163,448,32,448z"/>
		</g>
	</g>
	<g>
		<path fill="#555A6E" d="M416,448h-64c-12.73,0-24.939-5.057-33.941-14.059L108.117,224H64c-26.51,0-48-21.49-48-48s21.49-48,48-48
			h64c12.73,0,24.939,5.057,33.941,14.059L371.883,352H416c26.51,0,48,21.49,48,48S442.51,448,416,448z"/>
	</g>
	<g>
		<path fill="#F06423" d="M240,352h-32c-9.535,0-18.091,4.175-23.954,10.792l-65.419-65.419C112.626,291.372,104.487,288,96,288H64
			c-12.942,0-24.611,7.796-29.564,19.754c-4.953,11.958-2.215,25.722,6.938,34.874L130.746,432H128c-17.673,0-32,14.327-32,32
			s14.327,32,32,32h112c17.673,0,32-14.327,32-32v-80C272,366.327,257.673,352,240,352z"/>
		<path fill="#FAA019" d="M208,352c-17.673,0-32,14.327-32,32v2.745l-89.372-89.372c-12.498-12.497-32.758-12.497-45.256,0
			c-12.496,12.497-12.496,32.758,0,45.255L130.745,432H128c-17.673,0-32,14.327-32,32s14.327,32,32,32h80c17.673,0,32-14.327,32-32
			v-80C240,366.327,225.673,352,208,352z"/>
	</g>
</g>
</svg>
