<?xml version="1.0" encoding="utf-8"?>
<!-- Generator: Adobe Illustrator 24.0.0, SVG Export Plug-In . SVG Version: 6.00 Build 0)  -->
<svg version="1.1" id="Layer_1" xmlns="http://www.w3.org/2000/svg" xmlns:xlink="http://www.w3.org/1999/xlink" x="0px" y="0px"
	 viewBox="0 0 512 512" enable-background="new 0 0 512 512" xml:space="preserve">
<g>
	<g>
		<rect x="216" y="56" fill="#F04B37" width="112" height="432"/>
	</g>
	<g>
		<rect x="216" y="56" fill="#E1322D" width="112" height="32"/>
	</g>
	<g>
		<rect x="152" y="56" fill="#23AAE6" width="64" height="432"/>
	</g>
	<g>
		<path fill="#5AD7FF" d="M184,488h-32V40c0-8.836,7.163-16,16-16h104v32h-88V488z"/>
	</g>
	<g>
		<path fill="#87A5BE" d="M304,200h-34.746l-30.627-30.627c-12.496-12.497-32.758-12.497-45.254,0
			c-12.497,12.497-12.497,32.758,0,45.255l40,40C239.621,260.876,247.811,264,256,264h48c4.418,0,8-3.582,8-8v-48
			C312,203.582,308.418,200,304,200z"/>
		<path fill="#463C4B" d="M272,440v-64c0-8.487-3.371-16.626-9.373-22.627l-38.629-38.629v-18.745h-128v32h52.287
			c1.369,2.369,3.062,4.602,5.088,6.628L208,389.255V472c0,8.836,7.164,16,16,16h64c8.836,0,16-7.164,16-16l0,0
			C304,454.327,289.673,440,272,440z"/>
		<path fill="#555A6E" d="M96.016,295.998c-0.005,0.223-0.016,0.444-0.016,0.668V352H32c-8.837,0-16,7.164-16,16v64
			c0,8.837,7.164,16,16,16c17.673,0,32-14.327,32-32h64c17.673,0,32-14.327,32-32v-88c0,0,0-0.001,0-0.002H96.016z"/>
		<g>
			<path fill="#A5C3DC" d="M112,312h96c8.837,0,16-7.163,16-16V184c0-17.673-14.327-32-32-32H96v144C96,304.837,103.163,312,112,312
				z"/>
		</g>
		<g>
			<path fill="#F0915A" d="M176,200L176,200c-8.837,0-16-7.163-16-16v0c0-17.673-14.327-32-32-32h0h32c17.673,0,32,14.327,32,32v0
				C192,192.837,184.837,200,176,200z"/>
		</g>
		<g>
			<path fill="#F0915A" d="M360,216v48h-32c-8.837,0-16-7.163-16-16v-32H360z"/>
		</g>
		<g>
			<path fill="#FAB991" d="M376,264v-32c0-8.837-7.163-16-16-16h0v48c0,4.418,3.582,8,8,8l0,0C372.418,272,376,268.418,376,264z"/>
		</g>
		<g>
			<path fill="#FAB991" d="M344,224v20c0,2.209-1.791,4-4,4h0c-6.627,0-12-5.373-12-12v-4c-8.837,0-16-7.164-16-16h24
				C340.418,216,344,219.582,344,224z"/>
		</g>
		<g>
			<path fill="#F0915A" d="M224,168h-56c-8.837,0-16-7.163-16-16V88c0-17.673,14.327-32,32-32h24c17.673,0,32,14.327,32,32v64
				C240,160.837,232.837,168,224,168z"/>
		</g>
		<g>
			<path fill="#FAB991" d="M192,168h32c8.837,0,16-7.163,16-16V88c0-17.673-14.327-32-32-32h0c-17.673,0-32,14.327-32,32v64
				C176,160.837,183.163,168,192,168z"/>
		</g>
		<g>
			<path fill="#463C4B" d="M184,128L184,128c4.418,0,8-3.582,8-8V96c0-4.418,3.582-8,8-8h40v0c0-17.673-14.327-32-32-32h-32
				c-17.673,0-32,14.327-32,32v52c0,6.627,5.373,12,12,12h0c6.627,0,12-5.373,12-12v-12L184,128z"/>
		</g>
		<g>
			<path fill="#F0915A" d="M176,136L176,136c4.418,0,8-3.582,8-8v-16c0-4.418-3.582-8-8-8h0c-8.837,0-16,7.163-16,16v0
				C160,128.837,167.163,136,176,136z"/>
		</g>
		<g>
			<g>
				<path fill="#F0915A" d="M40.081,328.081v-32c0-8.837,7.163-16,16-16h32v48c0,8.836-7.163,16-16,16h-32c-4.418,0-8-3.582-8-8
					S35.663,328.081,40.081,328.081z"/>
			</g>
			<g>
				<g>
					<g>
						<g>
							<path fill="#D7E6F0" d="M88.081,280.081h-48c-4.418,0-8-3.582-8-8v-56c0-8.487,3.372-16.626,9.373-22.627l32.081-32.081
								c12.708-12.708,33.445-12.493,45.882,0.644c11.987,12.662,11.232,32.751-1.097,45.081l-22.238,22.238v42.745
								C96.081,276.499,92.499,280.081,88.081,280.081z"/>
						</g>
					</g>
				</g>
			</g>
		</g>
	</g>
	<g>
		<path fill="#23AAE6" d="M424,488h-64V24h48c8.837,0,16,7.163,16,16V488z"/>
	</g>
	<g>
		<path fill="#5AD7FF" d="M392,488h-32V56h-88V24h104c8.837,0,16,7.164,16,16V488z"/>
	</g>
	<g>
		<g>
			<path fill="#E1322D" d="M424,320h-24c-9.707,0-18.458-5.848-22.173-14.815c-3.715-8.968-1.662-19.291,5.202-26.155L406.059,256
				l-23.029-23.029c-6.864-6.864-8.917-17.187-5.202-26.155C381.542,197.848,390.293,192,400,192h24
				c6.365,0,12.47,2.529,16.971,7.029l40,40c9.372,9.373,9.372,24.569,0,33.941l-40,40C436.47,317.471,430.365,320,424,320z"/>
		</g>
		<g>
			<path fill="#F04B37" d="M400,320c-6.143,0-12.284-2.343-16.971-7.029c-9.372-9.373-9.372-24.569,0-33.941L406.059,256
				l-23.029-23.029c-9.372-9.373-9.372-24.569,0-33.941c9.373-9.372,24.568-9.372,33.941,0l40,40c9.372,9.373,9.372,24.569,0,33.941
				l-40,40C412.284,317.657,406.143,320,400,320z"/>
		</g>
	</g>
</g>
</svg>
