<?xml version="1.0" encoding="utf-8"?>
<!-- Generator: Adobe Illustrator 24.0.0, SVG Export Plug-In . SVG Version: 6.00 Build 0)  -->
<svg version="1.1" id="Layer_1" xmlns="http://www.w3.org/2000/svg" xmlns:xlink="http://www.w3.org/1999/xlink" x="0px" y="0px"
	 viewBox="0 0 512 512" enable-background="new 0 0 512 512" xml:space="preserve">
<g>
	<g>
		<rect x="288" y="56" fill="#F04B37" width="112" height="432"/>
	</g>
	<g>
		<rect x="288" y="56" fill="#E1322D" width="112" height="32"/>
	</g>
	<g>
		<rect x="224" y="56" fill="#23AAE6" width="64" height="432"/>
	</g>
	<g>
		<path fill="#23AAE6" d="M496,488h-64V24h48c8.837,0,16,7.163,16,16V488z"/>
	</g>
	<g>
		<path fill="#5AD7FF" d="M256,488h-32V40c0-8.836,7.164-16,16-16h104v32h-88V488z"/>
	</g>
	<g>
		<path fill="#87A5BE" d="M376,200h-34.746l-30.627-30.627c-12.496-12.497-32.758-12.497-45.254,0
			c-12.497,12.497-12.497,32.758,0,45.255l40,40C311.621,260.876,319.811,264,328,264h48c4.418,0,8-3.582,8-8v-48
			C384,203.582,380.418,200,376,200z"/>
		<path fill="#463C4B" d="M344,440v-64c0-8.487-3.371-16.626-9.373-22.627L296,314.746V296H168v32h52.285
			c1.369,2.368,3.061,4.601,5.088,6.627L280,389.255V472c0,8.836,7.163,16,16,16h64c8.837,0,16-7.164,16-16l0,0
			C376,454.327,361.673,440,344,440z"/>
		<path fill="#555A6E" d="M168,362.745l-54.627,54.627C107.125,423.621,104,431.811,104,440h0v32c0,8.836,7.163,16,16,16h80
			c8.837,0,16-7.164,16-16c0-17.673-14.327-32-32-32h-2.746l41.373-41.373C228.629,392.626,232,384.487,232,376v-80h-64V362.745z"/>
		<g>
			<path fill="#A5C3DC" d="M184,312h96c8.837,0,16-7.163,16-16V184c0-17.673-14.327-32-32-32h-96v144
				C168,304.837,175.163,312,184,312z"/>
		</g>
		<g>
			<path fill="#F0915A" d="M248,200L248,200c-8.837,0-16-7.163-16-16v0c0-17.673-14.327-32-32-32h0h32c17.673,0,32,14.327,32,32v0
				C264,192.837,256.837,200,248,200z"/>
		</g>
		<g>
			<path fill="#F0915A" d="M432,216v48h-32c-8.837,0-16-7.163-16-16v-32H432z"/>
		</g>
		<g>
			<path fill="#FAB991" d="M448,264v-32c0-8.837-7.163-16-16-16h0v48c0,4.418,3.582,8,8,8l0,0C444.418,272,448,268.418,448,264z"/>
		</g>
		<g>
			<path fill="#FAB991" d="M416,224v20c0,2.209-1.791,4-4,4h0c-6.627,0-12-5.373-12-12v-4c-8.837,0-16-7.164-16-16h24
				C412.418,216,416,219.582,416,224z"/>
		</g>
		<g>
			<path fill="#F0915A" d="M296,168h-56c-8.837,0-16-7.163-16-16V88c0-17.673,14.327-32,32-32h24c17.673,0,32,14.327,32,32v64
				C312,160.837,304.837,168,296,168z"/>
		</g>
		<g>
			<path fill="#FAB991" d="M264,168h32c8.837,0,16-7.163,16-16V88c0-17.673-14.327-32-32-32h0c-17.673,0-32,14.327-32,32v64
				C248,160.837,255.163,168,264,168z"/>
		</g>
		<g>
			<path fill="#463C4B" d="M256,128L256,128c4.418,0,8-3.582,8-8V96c0-4.418,3.582-8,8-8h40v0c0-17.673-14.327-32-32-32h-32
				c-17.673,0-32,14.327-32,32v52c0,6.627,5.373,12,12,12h0c6.627,0,12-5.373,12-12v-12L256,128z"/>
		</g>
		<g>
			<path fill="#F0915A" d="M248,136L248,136c4.418,0,8-3.582,8-8v-16c0-4.418-3.582-8-8-8h0c-8.837,0-16,7.163-16,16v0
				C232,128.837,239.163,136,248,136z"/>
		</g>
		<g>
			<g>
				<path fill="#F0915A" d="M112.081,328.081v-32c0-8.837,7.163-16,16-16h32v48c0,8.836-7.163,16-16,16h-32c-4.418,0-8-3.582-8-8
					S107.663,328.081,112.081,328.081z"/>
			</g>
			<g>
				<g>
					<g>
						<g>
							<path fill="#D7E6F0" d="M160.081,280.081h-48c-4.418,0-8-3.582-8-8v-56c0-8.487,3.372-16.626,9.373-22.627l32.081-32.081
								c12.708-12.708,33.445-12.493,45.882,0.644c11.987,12.662,11.232,32.751-1.097,45.081l-22.238,22.238v42.745
								C168.081,276.499,164.499,280.081,160.081,280.081z"/>
						</g>
					</g>
				</g>
			</g>
		</g>
	</g>
	<g>
		<path fill="#F04B37" d="M192,440c-8.924,0-15.94-7.3-16.001-16.224C175.879,406.206,161.598,392,144,392v32
			c-17.673,0-32-14.327-32-32v-16c-17.673,0-32,14.327-32,32h-8c-13.242,0-23.958-10.836-24-24.078
			C47.958,370.703,37.229,360,24,360h-8v128h208v-16C224,454.327,209.673,440,192,440L192,440z"/>
	</g>
	<g>
		<path fill="#FAA019" d="M144,448L144,448v32l0,0c-17.673,0-32-14.327-32-32v-16l0,0c-17.673,0-32,14.327-32,32l0,0h-8
			c-13.255,0-24-10.745-24-24l0,0c0-13.255-10.745-24-24-24h-8v72h160v-8C176,462.327,161.673,448,144,448z"/>
	</g>
	<g>
		<path fill="#F04B37" d="M80,360L80,360c-8.837,0-16-7.163-16-16v0c0-8.837,7.163-16,16-16h16v16C96,352.837,88.837,360,80,360z"/>
	</g>
	<g>
		<path fill="#F04B37" d="M32,312L32,312c8.837,0,16-7.163,16-16v0c0-8.837-7.163-16-16-16H16v16C16,304.837,23.163,312,32,312z"/>
	</g>
	<g>
		<path fill="#5AD7FF" d="M464,488h-32V56h-88V24h104c8.837,0,16,7.164,16,16V488z"/>
	</g>
</g>
</svg>
