<?xml version="1.0" encoding="utf-8"?>
<!-- Generator: Adobe Illustrator 24.0.0, SVG Export Plug-In . SVG Version: 6.00 Build 0)  -->
<svg version="1.1" id="Layer_1" xmlns="http://www.w3.org/2000/svg" xmlns:xlink="http://www.w3.org/1999/xlink" x="0px" y="0px"
	 viewBox="0 0 512 512" enable-background="new 0 0 512 512" xml:space="preserve">
<g>
	<path fill="#463C4B" d="M336,104H160c-22.056,0-40,17.944-40,40v16c0,4.418,3.582,8,8,8h64c4.418,0,8-3.582,8-8v-16
		c0-13.233,10.766-24,24-24h48c13.233,0,24,10.767,24,24v16c0,4.418,3.582,8,8,8h64c4.418,0,8-3.582,8-8v-16
		C376,121.944,358.056,104,336,104z"/>
	<g>
		<path fill="#F04B37" d="M32,160h432c8.837,0,16,7.163,16,16v256c0,8.837-7.163,16-16,16H32c-8.837,0-16-7.163-16-16V176
			C16,167.163,23.163,160,32,160z"/>
	</g>
	<g>
		<rect x="16" y="208" fill="#E1322D" width="368" height="16"/>
	</g>
	<g>
		<g>
			<path fill="#D7E6F0" d="M312,224v208c0,8.837,7.163,16,16,16h32h0c-8.837,0-16-7.163-16-16V224H312z"/>
		</g>
	</g>
	<g>
		<g>
			<path fill="#D7E6F0" d="M56,224v208c0,8.837,7.163,16,16,16h32h0c-8.837,0-16-7.163-16-16V224H56z"/>
		</g>
	</g>
	<g>
		<path fill="#E1322D" d="M400,160h64c8.837,0,16,7.163,16,16v256c0,8.837-7.163,16-16,16h-64c-8.837,0-16-7.163-16-16V176
			C384,167.163,391.163,160,400,160z"/>
	</g>
	<g>
		<rect x="56" y="208" fill="#A5C3DC" width="32" height="16"/>
	</g>
	<g>
		<rect x="312" y="208" fill="#A5C3DC" width="32" height="16"/>
	</g>
	<g>
		<path fill="#555A6E" d="M312,160h-16v-16c0-13.233-10.767-24-24-24H160c-13.233,0-24,10.767-24,24v16h-16v-16
			c0-22.056,17.944-40,40-40h112c22.056,0,40,17.944,40,40V160z"/>
	</g>
	<g>
		<circle fill="#23AAE6" cx="200" cy="328" r="88"/>
	</g>
	<g>
		<path fill="#D7E6F0" d="M248,312h-32v-32c0-4.418-3.582-8-8-8h-16c-4.418,0-8,3.582-8,8v32h-32c-4.418,0-8,3.582-8,8v16
			c0,4.418,3.582,8,8,8h32v32c0,4.418,3.582,8,8,8h16c4.418,0,8-3.582,8-8v-32h32c4.418,0,8-3.582,8-8v-16
			C256,315.582,252.418,312,248,312z"/>
	</g>
</g>
</svg>
