<?xml version="1.0" encoding="utf-8"?>
<!-- Generator: Adobe Illustrator 24.0.0, SVG Export Plug-In . SVG Version: 6.00 Build 0)  -->
<svg version="1.1" id="Layer_1" xmlns="http://www.w3.org/2000/svg" xmlns:xlink="http://www.w3.org/1999/xlink" x="0px" y="0px"
	 viewBox="0 0 512 512" enable-background="new 0 0 512 512" xml:space="preserve">
<g>
	<g>
		<g>
			<path fill="#5AD7FF" d="M128,288H48c-17.673,0-32,14.327-32,32v80c0,8.837,7.163,16,16,16h128v-96
				C160,302.327,145.673,288,128,288z M108,336H68c-6.627,0-12-5.373-12-12l0,0c0-6.627,5.373-12,12-12h40c6.627,0,12,5.373,12,12
				l0,0C120,330.627,114.627,336,108,336z"/>
		</g>
		<g>
			<path fill="#23AAE6" d="M144,288H80c-17.673,0-32,14.327-32,32v96h128v-96C176,302.327,161.673,288,144,288z M140,336H84
				c-6.627,0-12-5.373-12-12l0,0c0-6.627,5.373-12,12-12h56c6.627,0,12,5.373,12,12l0,0C152,330.627,146.627,336,140,336z"/>
		</g>
		<g>
			<path fill="#5AD7FF" d="M448,288h-80c-17.673,0-32,14.327-32,32v96h128c8.837,0,16-7.163,16-16v-80
				C480,302.327,465.673,288,448,288z M428,336h-40c-6.627,0-12-5.373-12-12l0,0c0-6.627,5.373-12,12-12h40c6.627,0,12,5.373,12,12
				l0,0C440,330.627,434.627,336,428,336z"/>
		</g>
		<g>
			<path fill="#23AAE6" d="M464,288h-64c-17.673,0-32,14.327-32,32v80c0,8.837-7.163,16-16,16h0h128c8.837,0,16-7.163,16-16v-80
				C496,302.327,481.673,288,464,288z M460,336h-56c-6.627,0-12-5.373-12-12l0,0c0-6.627,5.373-12,12-12h56c6.627,0,12,5.373,12,12
				l0,0C472,330.627,466.627,336,460,336z"/>
		</g>
		<g>
			<rect x="32" y="376" fill="#5AD7FF" width="320" height="40"/>
		</g>
		<g>
			<rect x="48" y="416" fill="#463C4B" width="32" height="48"/>
		</g>
		<g>
			<rect x="176" y="416" fill="#463C4B" width="32" height="48"/>
		</g>
		<g>
			<path fill="#463C4B" d="M464,440H48c-8.837,0-16-7.163-16-16v-8h448v8C480,432.837,472.837,440,464,440z"/>
		</g>
		<g>
			<g>
				<path fill="#463C4B" d="M72,496H56c-13.255,0-24-10.745-24-24v0c0-13.255,10.745-24,24-24h16c13.255,0,24,10.745,24,24v0
					C96,485.255,85.255,496,72,496z"/>
			</g>
			<g>
				<circle fill="#555A6E" cx="56" cy="472" r="24"/>
			</g>
			<g>
				<circle fill="#D7E6F0" cx="56" cy="472" r="8"/>
			</g>
		</g>
		<g>
			<g>
				<path fill="#463C4B" d="M200,496h-16c-13.255,0-24-10.745-24-24v0c0-13.255,10.745-24,24-24h16c13.255,0,24,10.745,24,24v0
					C224,485.255,213.255,496,200,496z"/>
			</g>
			<g>
				<circle fill="#555A6E" cx="184" cy="472" r="24"/>
			</g>
			<g>
				<circle fill="#D7E6F0" cx="184" cy="472" r="8"/>
			</g>
		</g>
		<g>
			<rect x="304" y="416" fill="#463C4B" width="32" height="48"/>
		</g>
		<g>
			<rect x="432" y="416" fill="#463C4B" width="32" height="48"/>
		</g>
		<g>
			<g>
				<path fill="#463C4B" d="M328,496h-16c-13.255,0-24-10.745-24-24v0c0-13.255,10.745-24,24-24h16c13.255,0,24,10.745,24,24v0
					C352,485.255,341.255,496,328,496z"/>
			</g>
			<g>
				<circle fill="#555A6E" cx="312" cy="472" r="24"/>
			</g>
			<g>
				<circle fill="#D7E6F0" cx="312" cy="472" r="8"/>
			</g>
		</g>
		<g>
			<g>
				<path fill="#463C4B" d="M456,496h-16c-13.255,0-24-10.745-24-24v0c0-13.255,10.745-24,24-24h16c13.255,0,24,10.745,24,24v0
					C480,485.255,469.255,496,456,496z"/>
			</g>
			<g>
				<circle fill="#555A6E" cx="440" cy="472" r="24"/>
			</g>
			<g>
				<circle fill="#D7E6F0" cx="440" cy="472" r="8"/>
			</g>
		</g>
		<g>
			<path fill="#D7E6F0" d="M336,376H48v-10.788C48,349.079,61.079,336,77.212,336H336V376z"/>
		</g>
	</g>
	<g>
		<g>
			<polygon fill="#E1322D" points="384,272 288,272 256,312 224,272 128,272 128,32 384,32 			"/>
			<path fill="#F04B37" d="M256,328c-4.86,0-9.458-2.209-12.494-6.005L216.31,288H128c-8.836,0-16-7.163-16-16V32
				c0-8.837,7.164-16,16-16h256c8.836,0,16,7.163,16,16v240c0,8.837-7.164,16-16,16h-88.31l-27.196,33.995
				C265.458,325.791,260.86,328,256,328z M144,256h80c4.86,0,9.458,2.209,12.494,6.005L256,286.388l19.506-24.383
				C278.542,258.209,283.14,256,288,256h80V48H144V256z"/>
		</g>
		<g>
			<path fill="#F5826E" d="M128,288c-8.836,0-16-7.163-16-16V32c0-8.837,7.164-16,16-16h256c8.836,0,16,7.163,16,16s-7.164,16-16,16
				H144v224C144,280.837,136.836,288,128,288z"/>
		</g>
	</g>
	<g>
		<path fill="#D7E6F0" d="M288,88v48h-64V88c0-4.418-3.582-8-8-8h-16c-4.418,0-8,3.582-8,8v128c0,4.418,3.582,8,8,8h16
			c4.418,0,8-3.582,8-8v-48h64v48c0,4.418,3.582,8,8,8h16c4.418,0,8-3.582,8-8V88c0-4.418-3.582-8-8-8h-16
			C291.582,80,288,83.582,288,88z"/>
	</g>
</g>
</svg>
