<?xml version="1.0" encoding="utf-8"?>
<!-- Generator: Adobe Illustrator 24.0.0, SVG Export Plug-In . SVG Version: 6.00 Build 0)  -->
<svg version="1.1" id="Layer_1" xmlns="http://www.w3.org/2000/svg" xmlns:xlink="http://www.w3.org/1999/xlink" x="0px" y="0px"
	 viewBox="0 0 512 512" enable-background="new 0 0 512 512" xml:space="preserve">
<g>
	<g>
		<path fill="#23AAE6" d="M272,480h-32C116.288,480,16,379.712,16,256v0C16,132.288,116.288,32,240,32h32
			c123.712,0,224,100.288,224,224v0C496,379.712,395.712,480,272,480z"/>
	</g>
	<g>
		<circle fill="#5AD7FF" cx="240" cy="256" r="224"/>
	</g>
	<g>
		<circle fill="#2387C3" cx="240" cy="256" r="176"/>
	</g>
	<g>
		<circle fill="#D7E6F0" cx="240" cy="160" r="32"/>
	</g>
	<g>
		<path fill="#D7E6F0" d="M272,360V213.582c0-3.083-2.499-5.582-5.582-5.582H192c-4.418,0-8,3.582-8,8v0c0,4.418,3.582,8,8,8h10.418
			c3.083,0,5.582,2.499,5.582,5.582V360c0,4.418-3.582,8-8,8h-8c-4.418,0-8,3.582-8,8l0,0c0,4.418,3.582,8,8,8h96
			c4.418,0,8-3.582,8-8l0,0c0-4.418-3.582-8-8-8h-8C275.582,368,272,364.418,272,360z"/>
	</g>
</g>
</svg>
