<?xml version="1.0" encoding="utf-8"?>
<!-- Generator: Adobe Illustrator 24.0.0, SVG Export Plug-In . SVG Version: 6.00 Build 0)  -->
<svg version="1.1" id="Layer_1" xmlns="http://www.w3.org/2000/svg" xmlns:xlink="http://www.w3.org/1999/xlink" x="0px" y="0px"
	 viewBox="0 0 512 512" enable-background="new 0 0 512 512" xml:space="preserve">
<g>
	<g>
		<rect x="96" y="32" fill="#2387C3" width="320" height="448"/>
		<path fill="#23AAE6" d="M416,496H96c-8.837,0-16-7.164-16-16V32c0-8.836,7.163-16,16-16h320c8.837,0,16,7.164,16,16v448
			C432,488.836,424.837,496,416,496z M112,464h288V48H112V464z"/>
	</g>
	<g>
		<path fill="#5AD7FF" d="M96,496c-8.837,0-16-7.164-16-16V32c0-8.836,7.163-16,16-16h320c8.837,0,16,7.164,16,16s-7.163,16-16,16
			H112v432C112,488.836,104.837,496,96,496z"/>
	</g>
	<g>
		<g>
			<g>
				<path fill="#A5C3DC" d="M320,288c-8.837,0-16-7.164-16-16v-16H192c-8.837,0-16-7.164-16-16s7.163-16,16-16h128
					c8.837,0,16,7.164,16,16v32C336,280.836,328.837,288,320,288z"/>
			</g>
			<g>
				<path fill="#D7E6F0" d="M192,288c-8.837,0-16-7.164-16-16v-32c0-8.836,7.163-16,16-16s16,7.164,16,16v32
					C208,280.836,200.837,288,192,288z"/>
			</g>
		</g>
		<g>
			<path fill="#FAA019" d="M96,272h320c8.837,0,16,7.163,16,16v192c0,8.837-7.163,16-16,16H96c-8.837,0-16-7.163-16-16V288
				C80,279.163,87.163,272,96,272z"/>
		</g>
		<g>
			<path fill="#F06423" d="M160,272h256c8.837,0,16,7.163,16,16v192c0,8.837-7.163,16-16,16H160c-8.837,0-16-7.163-16-16V288
				C144,279.163,151.163,272,160,272z"/>
		</g>
		<g>
			<rect x="336" y="272" transform="matrix(-1 -1.224647e-16 1.224647e-16 -1 704 768)" fill="#E1322D" width="32" height="224"/>
		</g>
		<g>
			<rect x="208" y="272" transform="matrix(-1 -1.224647e-16 1.224647e-16 -1 448 768)" fill="#E1322D" width="32" height="224"/>
		</g>
		<g>
			<path fill="#D7E6F0" d="M240,384h-32c-8.837,0-16-7.163-16-16v-32c0-8.837,7.163-16,16-16h32c8.837,0,16,7.163,16,16v32
				C256,376.837,248.837,384,240,384z"/>
		</g>
		<g>
			<rect x="208" y="336" fill="#E1322D" width="32" height="32"/>
		</g>
		<g>
			<path fill="#D7E6F0" d="M368,384h-32c-8.837,0-16-7.163-16-16v-32c0-8.837,7.163-16,16-16h32c8.837,0,16,7.163,16,16v32
				C384,376.837,376.837,384,368,384z"/>
		</g>
		<g>
			<rect x="336" y="336" fill="#E1322D" width="32" height="32"/>
		</g>
	</g>
	<g>
		<g>
			<path fill="#F06423" d="M344,184c-8.837,0-16-7.164-16-16v-32c0-8.836,7.163-16,16-16s16,7.164,16,16v32
				C360,176.836,352.837,184,344,184z"/>
		</g>
		<g>
			<path fill="#F06423" d="M304,184c-8.837,0-16-7.164-16-16v-32c0-8.836,7.163-16,16-16s16,7.164,16,16v32
				C320,176.836,312.837,184,304,184z"/>
		</g>
		<g>
			<path fill="#F06423" d="M192,192c-30.879,0-56-25.122-56-56s25.121-56,56-56s56,25.122,56,56S222.879,192,192,192z M192,112
				c-13.233,0-24,10.766-24,24s10.767,24,24,24s24-10.766,24-24S205.233,112,192,112z"/>
		</g>
		<g>
			<path fill="#FAA019" d="M232,152c-8.837,0-16-7.164-16-16c0-13.234-10.767-24-24-24s-24,10.766-24,24c0,8.836-7.163,16-16,16
				s-16-7.164-16-16c0-30.878,25.121-56,56-56s56,25.122,56,56C248,144.836,240.837,152,232,152z"/>
		</g>
		<g>
			<path fill="#FAA019" d="M360,152H232c-8.837,0-16-7.164-16-16s7.163-16,16-16h128c8.837,0,16,7.164,16,16S368.837,152,360,152z"
				/>
		</g>
	</g>
</g>
</svg>
