<?xml version="1.0" encoding="utf-8"?>
<!-- Generator: Adobe Illustrator 24.0.0, SVG Export Plug-In . SVG Version: 6.00 Build 0)  -->
<svg version="1.1" id="Layer_1" xmlns="http://www.w3.org/2000/svg" xmlns:xlink="http://www.w3.org/1999/xlink" x="0px" y="0px"
	 viewBox="0 0 512 512" enable-background="new 0 0 512 512" xml:space="preserve">
<g>
	<g>
		<polygon fill="#2387C3" points="256,32 80,144 80,464 432,464 432,144 		"/>
		<path fill="#23AAE6" d="M432,480H80c-8.837,0-16-7.164-16-16V144c0-5.47,2.795-10.562,7.41-13.499l176-112
			c5.24-3.335,11.939-3.335,17.18,0l176,112c4.615,2.937,7.41,8.028,7.41,13.499v320C448,472.836,440.837,480,432,480z M96,448h320
			V152.783L256,50.965L96,152.783V448z"/>
	</g>
	<g>
		<path fill="#5AD7FF" d="M80,480c-8.837,0-16-7.164-16-16V144c0-5.47,2.795-10.562,7.41-13.499l176-112
			c7.455-4.744,17.344-2.547,22.089,4.909c4.744,7.455,2.546,17.344-4.909,22.088L96,152.783V464C96,472.836,88.837,480,80,480z"/>
	</g>
	<g>
		<g>
			<path fill="#FAB991" d="M152,208h-16c-26.51,0-48,21.49-48,48v96h56v-16h28c15.464,0,28-12.536,28-28v-52
				C200,229.49,178.51,208,152,208z"/>
			<g>
				<path fill="#463C4B" d="M80,256v56c0,4.418,3.582,8,8,8h32c4.418,0,8-3.582,8-8v-24h8c4.418,0,8-3.582,8-8v-16
					c0-8.837,7.163-16,16-16h20c11.046,0,20-8.954,20-20v0c0-11.046-8.954-20-20-20h-52C101.49,208,80,229.49,80,256z"/>
			</g>
			<g>
				<path fill="#F0915A" d="M128,304L128,304l0-32h0c-8.837,0-16,7.163-16,16v0C112,296.837,119.163,304,128,304z"/>
			</g>
			<g>
				<path fill="#F0915A" d="M144,336h-40c-8.837,0-16,7.163-16,16v0h56V336z"/>
			</g>
			<g>
				<path fill="#463C4B" d="M176,352H88c-13.255,0-24,10.745-24,24v72h136v-72C200,362.745,189.255,352,176,352z"/>
			</g>
			<g>
				<path fill="#23AAE6" d="M144,352h-24c13.255,0,24,10.745,24,24v12c0,6.627,5.373,12,12,12h0c6.627,0,12-5.373,12-12v-12
					C168,362.745,157.255,352,144,352z"/>
			</g>
			<g>
				<path fill="#555A6E" d="M88,352L88,352c-13.255,0-24,10.745-24,24v72h48v-72C112,362.745,101.255,352,88,352z"/>
			</g>
		</g>
		<g>
			<circle fill="#353744" cx="165.333" cy="269.333" r="5.333"/>
		</g>
		<g>
			<circle fill="#353744" cx="186.667" cy="269.333" r="5.333"/>
		</g>
		<g>
			<path fill="#F0915A" d="M178.667,304L178.667,304c-4.418,0-8-3.582-8-8v-16h0c8.837,0,16,7.163,16,16v0
				C186.667,300.418,183.085,304,178.667,304z"/>
		</g>
		<g>
			<path fill="#353744" d="M178.667,320L178.667,320c-4.418,0-8-3.582-8-8l0,0h16l0,0C186.667,316.418,183.085,320,178.667,320z"/>
		</g>
	</g>
	<g>
		<path fill="#E1322D" d="M432,480H80c-8.837,0-16-7.163-16-16v-16h384v16C448,472.837,440.837,480,432,480z"/>
	</g>
	<g>
		<path fill="#F04B37" d="M216,480H80c-8.837,0-16-7.163-16-16v-16h152c4.418,0,8,3.582,8,8v16C224,476.418,220.418,480,216,480z"/>
	</g>
	<g>
		<g>
			<g>
				<path fill="#FAB991" d="M340,336h84v-80c0-26.51-21.49-48-48-48h-16c-26.51,0-48,21.49-48,48v52
					C312,323.464,324.536,336,340,336z"/>
			</g>
			<g>
				<path fill="#463C4B" d="M432,256v88c0,4.418-3.582,8-8,8h-72c-4.418,0-8-3.582-8-8v-84c0-6.627-5.373-12-12-12h0
					c-11.046,0-20-8.954-20-20v0c0-11.046,8.954-20,20-20h52C410.51,208,432,229.49,432,256z"/>
			</g>
			<g>
				<path fill="#F06423" d="M424,352h-88c-13.255,0-24,10.745-24,24v104h120c8.837,0,16-7.163,16-16v-88
					C448,362.745,437.255,352,424,352z"/>
			</g>
			<g>
				<path fill="#FAA019" d="M336,352L336,352c-13.255,0-24,10.745-24,24v104h48V376C360,362.745,349.255,352,336,352z"/>
			</g>
		</g>
	</g>
	<g>
		<g>
			<circle fill="#D7E6F0" cx="256" cy="128" r="80"/>
		</g>
		<g>
			<path fill="#FAA019" d="M240,176c-4.243,0-8.313-1.686-11.313-4.687l-24-24c-6.249-6.248-6.249-16.379,0-22.627
				c6.248-6.249,16.379-6.249,22.627,0L240,137.373l46.02-46.02c6.248-6.249,16.379-6.249,22.627,0
				c6.249,6.249,6.249,16.379,0,22.627l-57.333,57.333C248.313,174.314,244.243,176,240,176z"/>
		</g>
	</g>
</g>
</svg>
