<?xml version="1.0" encoding="utf-8"?>
<!-- Generator: Adobe Illustrator 24.0.0, SVG Export Plug-In . SVG Version: 6.00 Build 0)  -->
<svg version="1.1" id="Layer_1" xmlns="http://www.w3.org/2000/svg" xmlns:xlink="http://www.w3.org/1999/xlink" x="0px" y="0px"
	 viewBox="0 0 512 512" enable-background="new 0 0 512 512" xml:space="preserve">
<g>
	<g>
		<path fill="#FAB991" d="M192,16L192,16C130.144,16,80,66.144,80,128v192h112v-32h64c26.51,0,48-21.49,48-48V128
			C304,66.144,253.856,16,192,16z"/>
	</g>
	<g>
		<path fill="#463C4B" d="M224,16h-48C114.144,16,64,66.144,64,128v68.292c-5.392-3.121-11.773-4.723-18.565-4.191
			c-15.68,1.227-28.307,13.997-29.361,29.69C14.82,240.463,29.596,256,48,256c5.831,0,11.292-1.567,16-4.292V256
			c0,8.837,7.163,16,16,16h48c17.673,0,32-14.327,32-32v-80h8c13.255,0,24-10.745,24-24v0h112c8.837,0,16-7.163,16-16v-8
			C320,58.981,277.019,16,224,16z"/>
	</g>
	<g>
		<path fill="#F0915A" d="M192,288h-80c-17.673,0-32,14.327-32,32v0h112V288z"/>
	</g>
	<g>
		<path fill="#463C4B" d="M272,240h-32v0c0,8.837,7.163,16,16,16h0C264.837,256,272,248.837,272,240L272,240z"/>
	</g>
	<g>
		<path fill="#F0915A" d="M266.667,224L266.667,224c-8.837,0-16-7.163-16-16v-34.667h0c17.673,0,32,14.327,32,32V208
			C282.667,216.837,275.503,224,266.667,224z"/>
	</g>
	<g>
		<circle fill="#463C4B" cx="230.667" cy="160" r="12"/>
	</g>
	<g>
		<circle fill="#463C4B" cx="270.667" cy="160" r="12"/>
	</g>
	<g>
		<path fill="#E1322D" d="M256,320H80c-26.51,0-48,21.49-48,48v128h272V368C304,341.49,282.51,320,256,320z"/>
	</g>
	<g>
		<path fill="#F04B37" d="M80,320L80,320c-26.51,0-48,21.49-48,48v128h96V368C128,341.49,106.51,320,80,320z"/>
	</g>
	<g>
		<path fill="#F0915A" d="M144,320L144,320c26.51,0,48,21.49,48,48v8c0,13.255,10.745,24,24,24h0c13.255,0,24-10.745,24-24v-8
			c0-26.51-21.49-48-48-48H144z"/>
	</g>
	<g>
		<g>
			<path fill="#5AD7FF" d="M472.1,496h-208V368c0-57.438,46.562-104,104-104h0c57.438,0,104,46.562,104,104V496z"/>
		</g>
		<g>
			<path fill="#23AAE6" d="M368,264c-56.311,0.053-102.761,45.585-103.879,101.885c-0.068,3.411,0.029,6.785,0.282,10.115H264.1v120
				v0c0-13.255,10.745-24,24-24h78.746c57.521,0,105.085-46.167,105.254-103.688C472.269,310.698,425.587,263.946,368,264z"/>
		</g>
		<g>
			<path fill="#F0915A" d="M288.1,392h-8c-13.255,0-24-10.745-24-24v0c0-13.255,10.745-24,24-24h8V392z"/>
		</g>
		<g>
			<path fill="#F0915A" d="M448.1,392h8c13.255,0,24-10.745,24-24v0c0-13.255-10.745-24-24-24h-8V392z"/>
		</g>
		<g>
			<circle fill="#FAB991" cx="368.1" cy="368" r="88"/>
		</g>
		<g>
			<path fill="#FAA019" d="M368.1,324c-2.209,0-4-1.791-4-4s1.791-4,4-4c6.617,0,12-5.383,12-12s-5.383-12-12-12
				c-2.209,0-4-1.791-4-4s1.791-4,4-4c11.028,0,20,8.972,20,20S379.128,324,368.1,324z"/>
		</g>
		<g>
			<path fill="#463C4B" d="M336.1,372c-11.028,0-20-8.972-20-20c0-2.209,1.791-4,4-4s4,1.791,4,4c0,6.617,5.383,12,12,12
				s12-5.383,12-12c0-2.209,1.791-4,4-4s4,1.791,4,4C356.1,363.028,347.128,372,336.1,372z"/>
		</g>
		<g>
			<path fill="#463C4B" d="M400.1,372c-11.028,0-20-8.972-20-20c0-2.209,1.791-4,4-4s4,1.791,4,4c0,6.617,5.383,12,12,12
				s12-5.383,12-12c0-2.209,1.791-4,4-4s4,1.791,4,4C420.1,363.028,411.128,372,400.1,372z"/>
		</g>
	</g>
	<g>
		<path fill="#FAB991" d="M464,448L464,448c-8.837,0-16,7.163-16,16v32h32v-32C480,455.163,472.837,448,464,448z"/>
	</g>
	<g>
		<path fill="#F0915A" d="M160,160v80c-22.091,0-40-17.909-40-40C120,177.909,137.909,160,160,160z"/>
	</g>
</g>
</svg>
