<?xml version="1.0" encoding="utf-8"?>
<!-- Generator: Adobe Illustrator 24.0.0, SVG Export Plug-In . SVG Version: 6.00 Build 0)  -->
<svg version="1.1" id="Layer_1" xmlns="http://www.w3.org/2000/svg" xmlns:xlink="http://www.w3.org/1999/xlink" x="0px" y="0px"
	 viewBox="0 0 512 512" enable-background="new 0 0 512 512" xml:space="preserve">
<g>
	<g>
		<rect x="96" y="32" fill="#2387C3" width="320" height="448"/>
		<path fill="#23AAE6" d="M416,496H96c-8.836,0-16-7.163-16-16V32c0-8.837,7.164-16,16-16h320c8.836,0,16,7.163,16,16v448
			C432,488.837,424.836,496,416,496z M112,464h288V48H112V464z"/>
	</g>
	<g>
		<path fill="#5AD7FF" d="M96,496c-8.836,0-16-7.163-16-16V32c0-8.837,7.164-16,16-16h320c8.836,0,16,7.163,16,16s-7.164,16-16,16
			H112v432C112,488.837,104.836,496,96,496z"/>
	</g>
	<path fill="#463C4B" d="M256,368c-8.836,0-16,7.163-16,16v64c0,8.822-7.178,16-16,16H64c-8.822,0-16-7.178-16-16v-80h16
		c8.836,0,16-7.163,16-16s-7.164-16-16-16H48c-17.645,0-32,14.355-32,32v80c0,26.467,21.533,48,48,48h160c26.467,0,48-21.533,48-48
		v-64C272,375.163,264.836,368,256,368z"/>
	<g>
		<path fill="#555A6E" d="M224,480H64c-4.418,0-8-3.582-8-8s3.582-8,8-8h160c8.822,0,16-7.178,16-16v-48c0-4.418,3.582-8,8-8
			s8,3.582,8,8v48C256,465.645,241.645,480,224,480z"/>
	</g>
	<g>
		<circle fill="#E1322D" cx="256" cy="144" r="64"/>
	</g>
	<g>
		<path fill="#F04B37" d="M200,152c-4.418,0-8-3.582-8-8c0-35.29,28.71-64,64-64c4.418,0,8,3.582,8,8s-3.582,8-8,8
			c-26.467,0-48,21.532-48,48C208,148.418,204.418,152,200,152z"/>
	</g>
	<g>
		<circle fill="#E1322D" cx="256" cy="352" r="64"/>
	</g>
	<g>
		<path fill="#F04B37" d="M200,360c-4.418,0-8-3.582-8-8c0-35.29,28.71-64,64-64c4.418,0,8,3.582,8,8s-3.582,8-8,8
			c-26.467,0-48,21.532-48,48C208,356.418,204.418,360,200,360z"/>
	</g>
	<g>
		<path fill="#F04B37" d="M256,384L256,384c-17.673,0-32-14.327-32-32V154.667c0-17.673,14.327-32,32-32h0c17.673,0,32,14.327,32,32
			V352C288,369.673,273.673,384,256,384z"/>
	</g>
	<g>
		<path fill="#F5826E" d="M232,360c-4.418,0-8-3.582-8-8V154.667c0-17.645,14.355-32,32-32c4.418,0,8,3.582,8,8s-3.582,8-8,8
			c-8.822,0-16,7.178-16,16V352C240,356.418,236.418,360,232,360z"/>
	</g>
	<g>
		<path fill="#555A6E" d="M24,456c-4.418,0-8-3.582-8-8v-80c0-17.645,14.355-32,32-32c4.418,0,8,3.582,8,8s-3.582,8-8,8
			c-8.822,0-16,7.178-16,16v80C32,452.418,28.418,456,24,456z"/>
	</g>
	<g>
		<path fill="#F04B37" d="M80,400h-9.373C58.131,400,48,389.869,48,377.373v-50.745C48,314.131,58.131,304,70.627,304H80V400z"/>
	</g>
</g>
</svg>
