<?xml version="1.0" encoding="utf-8"?>
<!-- Generator: Adobe Illustrator 24.0.0, SVG Export Plug-In . SVG Version: 6.00 Build 0)  -->
<svg version="1.1" id="Layer_1" xmlns="http://www.w3.org/2000/svg" xmlns:xlink="http://www.w3.org/1999/xlink" x="0px" y="0px"
	 viewBox="0 0 512 512" enable-background="new 0 0 512 512" xml:space="preserve">
<g>
	<path fill="#2387C3" d="M320,272H96c-26.51,0-48,21.49-48,48l0,0c0,26.51,21.49,48,48,48h16v112h192V368h16c26.51,0,48-21.49,48-48
		l0,0C368,293.49,346.51,272,320,272z"/>
	<g>
		<circle fill="#5AD7FF" cx="72" cy="72" r="56"/>
	</g>
	<g>
		<circle fill="#2387C3" cx="72" cy="72" r="32"/>
	</g>
	<g>
		<circle fill="#5AD7FF" cx="344" cy="72" r="56"/>
	</g>
	<g>
		<circle fill="#2387C3" cx="344" cy="72" r="32"/>
	</g>
	<g>
		<circle fill="#23AAE6" cx="208" cy="176" r="160"/>
	</g>
	<path fill="#5AD7FF" d="M48.008,175.334c0.181,43.959,35.388,80.338,79.385,80.664C171.854,256.327,208,220.385,208,176V16
		C119.857,16,48.368,87.275,48.008,175.334z"/>
	<g>
		<g>
			<g>
				<circle fill="#463C4B" cx="144" cy="144" r="24"/>
			</g>
		</g>
		<g>
			<g>
				<circle fill="#555A6E" cx="136" cy="136" r="8"/>
			</g>
		</g>
	</g>
	<g>
		<circle fill="#A5C3DC" cx="208" cy="240" r="64"/>
	</g>
	<g>
		<path fill="#D7E6F0" d="M144,240h32c17.673,0,32-14.327,32-32v-32h0C172.654,176,144,204.654,144,240L144,240z"/>
	</g>
	<g>
		<path fill="#463C4B" d="M216,208h-16c-8.837,0-16-7.163-16-16v0c0-8.837,7.163-16,16-16h16c8.837,0,16,7.163,16,16v0
			C232,200.837,224.837,208,216,208z"/>
	</g>
	<g>
		<path fill="#555A6E" d="M184,192h16c4.418,0,8-3.582,8-8v-8h-8C191.163,176,184,183.163,184,192L184,192z"/>
	</g>
	<g>
		<g>
			<g>
				<circle fill="#463C4B" cx="272" cy="144" r="24"/>
			</g>
		</g>
		<g>
			<g>
				<circle fill="#555A6E" cx="264" cy="136" r="8"/>
			</g>
		</g>
	</g>
	<g>
		<g>
			<circle fill="#23AAE6" cx="112" cy="432" r="64"/>
		</g>
		<g>
			<path fill="#5AD7FF" d="M64,448c-8.836,0-16-7.164-16-16c0-35.29,28.71-64,64-64c8.836,0,16,7.164,16,16s-7.164,16-16,16
				c-17.645,0-32,14.355-32,32C80,440.836,72.836,448,64,448z"/>
		</g>
		<g>
			<circle fill="#2387C3" cx="112" cy="432" r="32"/>
		</g>
	</g>
	<g>
		<circle fill="#23AAE6" cx="304" cy="432" r="64"/>
	</g>
	<g>
		<path fill="#5AD7FF" d="M256,448c-8.836,0-16-7.164-16-16c0-35.29,28.71-64,64-64c8.837,0,16,7.164,16,16s-7.163,16-16,16
			c-17.645,0-32,14.355-32,32C272,440.836,264.837,448,256,448z"/>
	</g>
	<g>
		<circle fill="#2387C3" cx="304" cy="432" r="32"/>
	</g>
	<g>
		<path fill="#E1322D" d="M424,381.333h-24c-9.707,0-18.458-5.848-22.173-14.815c-3.715-8.968-1.662-19.291,5.202-26.155
			l23.029-23.029l-23.029-23.029c-6.864-6.864-8.917-17.187-5.202-26.155c3.715-8.968,12.466-14.815,22.173-14.815h24
			c6.365,0,12.47,2.529,16.971,7.029l40,40c9.372,9.373,9.372,24.569,0,33.941l-40,40C436.47,378.805,430.365,381.333,424,381.333z"
			/>
	</g>
	<g>
		<path fill="#F04B37" d="M400,381.333c-6.143,0-12.284-2.343-16.971-7.029c-9.372-9.373-9.372-24.569,0-33.941l23.029-23.029
			l-23.029-23.029c-9.372-9.373-9.372-24.569,0-33.941c9.373-9.372,24.568-9.372,33.941,0l40,40c9.372,9.373,9.372,24.569,0,33.941
			l-40,40C412.284,378.99,406.143,381.333,400,381.333z"/>
	</g>
</g>
</svg>
