<?xml version="1.0" encoding="utf-8"?>
<!-- Generator: Adobe Illustrator 24.0.0, SVG Export Plug-In . SVG Version: 6.00 Build 0)  -->
<svg version="1.1" id="Layer_1" xmlns="http://www.w3.org/2000/svg" xmlns:xlink="http://www.w3.org/1999/xlink" x="0px" y="0px"
	 viewBox="0 0 512 512" enable-background="new 0 0 512 512" xml:space="preserve">
<g>
	<g>
		<path fill="#5AD7FF" d="M240,496h-32V32c0-8.837,7.164-16,16-16h104v32h-88V496z"/>
	</g>
	<g>
		<path fill="#E1322D" d="M168,48h80c4.418,0,8,3.582,8,8v432c0,4.418-3.582,8-8,8h-80c-4.418,0-8-3.582-8-8V56
			C160,51.582,163.582,48,168,48z"/>
	</g>
	<g>
		<path fill="#F04B37" d="M168,48h16c4.418,0,8,3.582,8,8v432c0,4.418-3.582,8-8,8h-16c-4.418,0-8-3.582-8-8V56
			C160,51.582,163.582,48,168,48z"/>
	</g>
	<g>
		<path fill="#23AAE6" d="M480,496h-64V16h48c8.837,0,16,7.163,16,16V496z"/>
	</g>
	<g>
		<path fill="#5AD7FF" d="M448,496h-32V48h-88V16h104c8.836,0,16,7.163,16,16V496z"/>
	</g>
	<path fill="#F06423" d="M328,216H129.941l7.029-7.029C141.471,204.47,144,198.365,144,192v-32c0-9.707-5.848-18.458-14.815-22.173
		c-8.969-3.716-19.291-1.66-26.155,5.202l-80,80C18.529,227.53,16,233.635,16,240v32c0,6.365,2.529,12.47,7.029,16.971l80,80
		c4.592,4.592,10.729,7.03,16.976,7.03c3.091,0,6.21-0.598,9.179-1.828C138.152,370.458,144,361.707,144,352v-32
		c0-6.365-2.529-12.47-7.029-16.971L129.941,296H328c13.255,0,24-10.745,24-24v-32C352,226.745,341.255,216,328,216z"/>
	<path fill="#FAA019" d="M328,216H97.941l39.029-39.029c9.373-9.373,9.373-24.568,0-33.941c-9.373-9.373-24.568-9.373-33.941,0
		l-80,80c-9.373,9.373-9.373,24.568,0,33.941l80,80C107.716,341.657,113.858,344,120,344s12.284-2.343,16.971-7.029
		c9.373-9.373,9.373-24.568,0-33.941L97.941,264H328c13.255,0,24-10.745,24-24l0,0C352,226.745,341.255,216,328,216z"/>
</g>
</svg>
