<?xml version="1.0" encoding="utf-8"?>
<!-- Generator: Adobe Illustrator 24.0.0, SVG Export Plug-In . SVG Version: 6.00 Build 0)  -->
<svg version="1.1" id="Layer_1" xmlns="http://www.w3.org/2000/svg" xmlns:xlink="http://www.w3.org/1999/xlink" x="0px" y="0px"
	 viewBox="0 0 512 512" enable-background="new 0 0 512 512" xml:space="preserve">
<g>
	<g>
		<path fill="#23AAE6" d="M240,448H32c-8.837,0-16-7.163-16-16V80c0-8.837,7.163-16,16-16h208c8.837,0,16,7.163,16,16v352
			C256,440.837,248.837,448,240,448z"/>
	</g>
	<g>
		<path fill="#5AD7FF" d="M208,448H32c-8.837,0-16-7.163-16-16V80c0-8.837,7.163-16,16-16h176c8.837,0,16,7.163,16,16v352
			C224,440.837,216.837,448,208,448z"/>
	</g>
	<g>
		<path fill="#E1322D" d="M480,448H272c-8.837,0-16-7.163-16-16V80c0-8.837,7.163-16,16-16h208c8.837,0,16,7.163,16,16v352
			C496,440.837,488.837,448,480,448z"/>
	</g>
	<g>
		<path fill="#F04B37" d="M448,448H272c-8.837,0-16-7.163-16-16V80c0-8.837,7.163-16,16-16h176c8.837,0,16,7.163,16,16v352
			C464,440.837,456.837,448,448,448z"/>
	</g>
	<g>
		<circle fill="#D7E6F0" cx="360" cy="160" r="32"/>
		<path fill="#D7E6F0" d="M423.589,269.47l-24-72c-1.117-3.352-4.24-5.466-7.589-5.466V192h-0.147c-0.006,0-0.012,0-0.018,0h-63.673
			c-0.005,0-0.01,0-0.015,0H328v0.004c-3.35,0-6.472,2.114-7.589,5.466l-24,72c-1.397,4.191,0.868,8.722,5.06,10.119
			c0.839,0.28,1.692,0.413,2.531,0.413c3.35,0,6.471-2.12,7.588-5.472L328,225.298V264l-20.49,61.47
			c-1.727,5.18,2.129,10.53,7.589,10.53H328v34c0,7.732,6.268,14,14,14s14-6.268,14-14v-34h8v34c0,7.732,6.268,14,14,14
			s14-6.268,14-14v-34h12.901c5.461,0,9.316-5.35,7.589-10.53L392,264v-38.702l16.411,49.232c1.117,3.353,4.239,5.472,7.588,5.472
			c0.838,0,1.692-0.133,2.531-0.413C422.721,278.192,424.987,273.662,423.589,269.47z"/>
	</g>
	<g>
		<g>
			<circle fill="#555A6E" cx="120" cy="160" r="32"/>
		</g>
		<g>
			<path fill="#555A6E" d="M160,192H80c-8.837,0-16,7.163-16,16l0,71.726c0,4.261,3.215,7.981,7.467,8.257
				C76.127,288.284,80,284.595,80,280l0-51.828c0-2.089,1.527-3.955,3.607-4.153C85.993,223.791,88,225.661,88,228v142
				c0,7.732,6.268,14,14,14h0c7.732,0,14-6.268,14-14v-78c0-2.209,1.791-4,4-4h0c2.209,0,4,1.791,4,4v78c0,7.732,6.268,14,14,14h0
				c7.732,0,14-6.268,14-14l0-141.828c0-2.089,1.527-3.955,3.607-4.153c2.386-0.227,4.393,1.643,4.393,3.981l0,51.726
				c0,4.261,3.215,7.981,7.467,8.257c4.659,0.302,8.533-3.388,8.533-7.983v-72C176,199.163,168.837,192,160,192z"/>
		</g>
	</g>
	<g>
		<g>
			<circle fill="#FAA019" cx="32" cy="256" r="16"/>
		</g>
		<g>
			<path fill="#FFD205" d="M16,256h12c2.209,0,4-1.791,4-4v-12h0C23.163,240,16,247.163,16,256L16,256z"/>
		</g>
	</g>
	<g>
		<g>
			<circle fill="#FAA019" cx="273.333" cy="256" r="16"/>
		</g>
		<g>
			<path fill="#FFD205" d="M257.333,256h12c2.209,0,4-1.791,4-4v-12h0C264.497,240,257.333,247.163,257.333,256L257.333,256z"/>
		</g>
	</g>
</g>
</svg>
