<?xml version="1.0" encoding="utf-8"?>
<!-- Generator: Adobe Illustrator 24.0.0, SVG Export Plug-In . SVG Version: 6.00 Build 0)  -->
<svg version="1.1" id="Layer_1" xmlns="http://www.w3.org/2000/svg" xmlns:xlink="http://www.w3.org/1999/xlink" x="0px" y="0px"
	 viewBox="0 0 512 512" enable-background="new 0 0 512 512" xml:space="preserve">
<g>
	<g>
		<polygon fill="#281E2D" points="256,32 64,160 64,464 448,464 448,160 		"/>
		<path fill="#463C4B" d="M448,480H64c-8.837,0-16-7.163-16-16V160c0-5.35,2.674-10.346,7.125-13.313l192-128
			c5.373-3.584,12.377-3.584,17.75,0l192,128C461.326,149.654,464,154.65,464,160v304C464,472.837,456.837,480,448,480z M80,448h352
			V168.563L256,51.229L80,168.563V448z"/>
	</g>
	<g>
		<path fill="#555A6E" d="M64,480c-8.837,0-16-7.163-16-16V160c0-5.35,2.674-10.346,7.125-13.313l192-128
			c7.353-4.902,17.286-2.915,22.188,4.438c4.902,7.353,2.915,17.286-4.438,22.188L80,168.563V464C80,472.837,72.837,480,64,480z"/>
	</g>
	<g>
		<g>
			<g>
				<path fill="#A5C3DC" d="M320,288c-8.837,0-16-7.163-16-16v-16H192c-8.837,0-16-7.163-16-16s7.163-16,16-16h128
					c8.837,0,16,7.163,16,16v32C336,280.837,328.837,288,320,288z"/>
			</g>
			<g>
				<path fill="#D7E6F0" d="M192,288c-8.837,0-16-7.163-16-16v-32c0-8.837,7.163-16,16-16s16,7.163,16,16v32
					C208,280.837,200.837,288,192,288z"/>
			</g>
		</g>
		<g>
			<path fill="#FAA019" d="M96,272h320c8.837,0,16,7.163,16,16v192c0,8.837-7.163,16-16,16H96c-8.837,0-16-7.163-16-16V288
				C80,279.163,87.163,272,96,272z"/>
		</g>
		<g>
			<path fill="#F06423" d="M160,272h256c8.837,0,16,7.163,16,16v192c0,8.837-7.163,16-16,16H160c-8.837,0-16-7.163-16-16V288
				C144,279.163,151.163,272,160,272z"/>
		</g>
		<g>
			<rect x="336" y="272" transform="matrix(-1 -1.224647e-16 1.224647e-16 -1 704 768)" fill="#E1322D" width="32" height="224"/>
		</g>
		<g>
			<rect x="208" y="272" transform="matrix(-1 -1.224647e-16 1.224647e-16 -1 448 768)" fill="#E1322D" width="32" height="224"/>
		</g>
		<g>
			<path fill="#D7E6F0" d="M240,384h-32c-8.837,0-16-7.163-16-16v-32c0-8.837,7.163-16,16-16h32c8.837,0,16,7.163,16,16v32
				C256,376.837,248.837,384,240,384z"/>
		</g>
		<g>
			<rect x="208" y="336" fill="#E1322D" width="32" height="32"/>
		</g>
		<g>
			<path fill="#D7E6F0" d="M368,384h-32c-8.837,0-16-7.163-16-16v-32c0-8.837,7.163-16,16-16h32c8.837,0,16,7.163,16,16v32
				C384,376.837,376.837,384,368,384z"/>
		</g>
		<g>
			<rect x="336" y="336" fill="#E1322D" width="32" height="32"/>
		</g>
	</g>
	<g>
		<circle fill="#23AAE6" cx="256" cy="112" r="96"/>
	</g>
	<g>
		<path fill="#D7E6F0" d="M256,148.8c-8.837,0-16-7.163-16-16v-0.452c0-13.173,8.497-24.902,21.144-29.188
			c6.87-2.328,11.318-9.043,10.816-16.329c-0.535-7.758-7.033-14.256-14.792-14.791c-4.516-0.313-8.805,1.201-12.081,4.259
			C241.807,79.361,240,83.517,240,88c0,8.837-7.163,16-16,16s-16-7.163-16-16c0-13.255,5.559-26.046,15.252-35.094
			c9.688-9.042,22.86-13.712,36.118-12.79c23.739,1.638,42.876,20.774,44.514,44.513c1.487,21.563-11.601,41.472-31.891,48.638
			C271.746,141.888,264.68,148.8,256,148.8z"/>
	</g>
	<g>
		<circle fill="#D7E6F0" cx="256" cy="176" r="16"/>
	</g>
</g>
</svg>
