<?xml version="1.0" encoding="utf-8"?>
<!-- Generator: Adobe Illustrator 24.0.0, SVG Export Plug-In . SVG Version: 6.00 Build 0)  -->
<svg version="1.1" id="Layer_1" xmlns="http://www.w3.org/2000/svg" xmlns:xlink="http://www.w3.org/1999/xlink" x="0px" y="0px"
	 viewBox="0 0 512 512" enable-background="new 0 0 512 512" xml:space="preserve">
<g>
	<path fill="#23AAE6" d="M112,16c-26.467,0-48,21.533-48,48v384c0,26.467,21.533,48,48,48h96v-32c-8.822,0-16-7.178-16-16V64
		c0-8.822,7.178-16,16-16V16H112z"/>
	<g>
		<path fill="#5AD7FF" d="M208,496h-96c-26.467,0-48-21.533-48-48V64c0-26.467,21.533-48,48-48h96v32h-96c-8.822,0-16,7.178-16,16
			v384c0,8.822,7.178,16,16,16h96V496z"/>
	</g>
	<g>
		<g>
			<path fill="#555A6E" d="M416,440H96c-17.673,0-32-14.327-32-32V216c0-17.673,14.327-32,32-32h320c17.673,0,32,14.327,32,32v192
				C448,425.673,433.673,440,416,440z"/>
		</g>
		<g>
			<path fill="#463C4B" d="M416,440H128c-17.673,0-32-14.327-32-32V216c0-17.673,14.327-32,32-32h288c17.673,0,32,14.327,32,32v192
				C448,425.673,433.673,440,416,440z"/>
		</g>
		<g>
			<path fill="#D7E6F0" d="M408,408H136c-4.418,0-8-3.582-8-8V224c0-4.418,3.582-8,8-8h272c4.418,0,8,3.582,8,8v176
				C416,404.418,412.418,408,408,408z"/>
		</g>
		<g>
			<circle fill="#F04B37" cx="256" cy="280" r="48"/>
		</g>
		<g>
			<path fill="#F04B37" d="M304,328h-96c-26.51,0-48,21.49-48,48v32h32v-24c0-4.418,3.582-8,8-8s8,3.582,8,8v24h96v-24
				c0-4.418,3.582-8,8-8s8,3.582,8,8v24h32v-32C352,349.49,330.51,328,304,328z"/>
		</g>
	</g>
	<path fill="#23AAE6" d="M400,16h-96v32c8.822,0,16,7.178,16,16v384c0,8.822-7.178,16-16,16v32h96c26.467,0,48-21.533,48-48V64
		C448,37.533,426.467,16,400,16z"/>
	<g>
		<path fill="#5AD7FF" d="M304,496h-96v-32h96c8.822,0,16-7.178,16-16V64c0-8.822-7.178-16-16-16h-96V16h96
			c26.467,0,48,21.533,48,48v384C352,474.467,330.467,496,304,496z"/>
	</g>
	<g>
		<g>
			<path fill="#FAA019" d="M278.627,169.373c-4.095,0-8.189-1.562-11.313-4.687c-6.239-6.238-16.389-6.238-22.628,0
				c-6.248,6.249-16.379,6.249-22.627,0c-6.249-6.248-6.249-16.379,0-22.627c18.715-18.716,49.167-18.716,67.882,0
				c6.249,6.248,6.249,16.379,0,22.627C286.817,167.811,282.722,169.373,278.627,169.373z"/>
		</g>
		<g>
			<path fill="#FAA019" d="M318.226,129.774c-4.095,0-8.189-1.562-11.313-4.686c-28.073-28.073-73.751-28.073-101.824,0
				c-6.248,6.248-16.379,6.248-22.627,0c-6.248-6.248-6.248-16.379,0-22.627c40.55-40.549,106.528-40.549,147.078,0
				c6.249,6.249,6.249,16.379,0,22.627C326.415,128.212,322.32,129.774,318.226,129.774z"/>
		</g>
		<g>
			<path fill="#FAA019" d="M357.823,90.177c-4.095,0-8.189-1.562-11.314-4.687C322.333,61.314,290.19,48,256,48
				s-66.333,13.314-90.509,37.49c-6.249,6.249-16.379,6.249-22.627,0c-6.249-6.249-6.249-16.379,0-22.627
				C173.083,32.643,213.263,16,256,16s82.917,16.643,113.137,46.863c6.248,6.248,6.248,16.379,0,22.627
				C366.013,88.614,361.917,90.176,357.823,90.177z"/>
		</g>
	</g>
</g>
</svg>
