<?xml version="1.0" encoding="utf-8"?>
<!-- Generator: Adobe Illustrator 24.0.0, SVG Export Plug-In . SVG Version: 6.00 Build 0)  -->
<svg version="1.1" id="Layer_1" xmlns="http://www.w3.org/2000/svg" xmlns:xlink="http://www.w3.org/1999/xlink" x="0px" y="0px"
	 viewBox="0 0 512 512" enable-background="new 0 0 512 512" xml:space="preserve">
<g>
	<g>
		<path fill="#23AAE6" d="M400,464H112c-44.183,0-80-35.817-80-80V128c0-44.183,35.817-80,80-80h288c44.183,0,80,35.817,80,80v256
			C480,428.183,444.183,464,400,464z"/>
	</g>
	<g>
		<path fill="#5AD7FF" d="M368,464H112c-44.183,0-80-35.817-80-80V128c0-44.183,35.817-80,80-80h256c44.183,0,80,35.817,80,80v256
			C448,428.183,412.183,464,368,464z"/>
	</g>
	<g>
		<path fill="#2387C3" d="M112,416c-17.673,0-32-14.327-32-32V128c0-17.673,14.327-32,32-32h256c17.673,0,32,14.327,32,32v256
			c0,17.673-14.327,32-32,32H112z"/>
	</g>
	<g>
		<path fill="#D7E6F0" d="M200,360c-30.878,0-56-25.122-56-56c0-25.459,17.084-46.989,40.385-53.768l-8.426-30.894
			C139.084,229.824,112,263.808,112,304c0,48.523,39.477,88,88,88c41.646,0,76.626-29.08,85.706-68h-33.412
			C244.224,345.028,223.833,360,200,360z"/>
		<path fill="#D7E6F0" d="M360,344h-12.468l-20.354-61.06C325.001,276.407,318.887,272,312,272h-67.779l-8.727-32H304
			c8.837,0,16-7.164,16-16s-7.163-16-16-16h-77.234l-3.33-12.21c-2.325-8.525-11.119-13.551-19.646-11.226
			c-8.525,2.325-13.551,11.121-11.226,19.646l24,88C218.462,299.171,224.785,304,232,304h68.468l20.354,61.06
			C322.999,371.593,329.113,376,336,376h24c8.837,0,16-7.164,16-16S368.837,344,360,344z"/>
		<circle fill="#D7E6F0" cx="196" cy="148" r="28"/>
	</g>
	<g>
		<circle fill="#D7E6F0" cx="368" cy="128" r="80"/>
	</g>
	<g>
		<path fill="#FAA019" d="M352,176c-4.243,0-8.313-1.686-11.313-4.687l-24-24c-6.249-6.248-6.249-16.379,0-22.627
			c6.248-6.249,16.379-6.249,22.627,0L352,137.373l46.02-46.02c6.248-6.249,16.379-6.249,22.627,0
			c6.249,6.249,6.249,16.379,0,22.627l-57.333,57.333C360.313,174.314,356.243,176,352,176z"/>
	</g>
</g>
</svg>
