<?xml version="1.0" encoding="utf-8"?>
<!-- Generator: Adobe Illustrator 24.0.0, SVG Export Plug-In . SVG Version: 6.00 Build 0)  -->
<svg version="1.1" id="Layer_1" xmlns="http://www.w3.org/2000/svg" xmlns:xlink="http://www.w3.org/1999/xlink" x="0px" y="0px"
	 viewBox="0 0 512 512" enable-background="new 0 0 512 512" xml:space="preserve">
<g>
	<g>
		<path fill="#23AAE6" d="M320,384c0-35.346-28.654-64-64-64s-64,28.654-64,64c0,12.67,3.682,24.48,10.034,34.419h0l47.22,73.883h0
			c1.421,2.224,3.911,3.698,6.746,3.698s5.325-1.474,6.746-3.698h0l47.22-73.883h0C316.318,408.48,320,396.67,320,384z"/>
	</g>
	<g>
		<circle fill="#D7E6F0" cx="256" cy="384" r="32"/>
	</g>
	<g>
		<g>
			<path fill="#E1322D" d="M482.274,181.726c-6.142,0-12.284-2.343-16.971-7.029c-115.41-115.41-303.197-115.41-418.607,0
				c-9.374,9.372-24.569,9.372-33.941,0c-9.373-9.373-9.373-24.569,0-33.941c32.831-32.83,71.122-58.253,113.81-75.564
				C167.784,48.476,211.333,40,256,40s88.216,8.476,129.436,25.19c42.688,17.311,80.979,42.734,113.81,75.564
				c9.373,9.373,9.373,24.568,0,33.941C494.559,179.382,488.417,181.726,482.274,181.726z"/>
		</g>
		<g>
			<path fill="#F06423" d="M414.392,249.608c-6.142,0-12.284-2.343-16.971-7.029c-77.979-77.979-204.863-77.979-282.843,0
				c-9.374,9.372-24.569,9.372-33.941,0c-9.373-9.373-9.373-24.569,0-33.941C127.479,161.796,189.757,136,256,136
				s128.521,25.796,175.363,72.637c9.373,9.373,9.373,24.569,0,33.941C426.676,247.265,420.534,249.608,414.392,249.608z"/>
		</g>
		<g>
			<path fill="#E1322D" d="M346.51,317.49c-6.142,0-12.284-2.343-16.971-7.029c-40.549-40.55-106.529-40.55-147.078,0
				c-9.374,9.372-24.569,9.372-33.941,0c-9.373-9.373-9.373-24.569,0-33.941c59.266-59.265,155.695-59.265,214.961,0
				c9.373,9.373,9.373,24.568,0,33.941C358.794,315.147,352.652,317.49,346.51,317.49z"/>
		</g>
	</g>
	<g>
		<g>
			<path fill="#F04B37" d="M29.726,181.726c-6.143,0-12.284-2.343-16.971-7.029c-9.373-9.373-9.373-24.569,0-33.941
				c32.831-32.83,71.122-58.253,113.81-75.564C167.784,48.475,211.333,40,256,40c13.255,0,24,10.745,24,24s-10.745,24-24,24
				c-79.064,0-153.396,30.79-209.304,86.696C42.01,179.382,35.867,181.726,29.726,181.726z"/>
		</g>
		<g>
			<path fill="#FAA019" d="M97.608,249.608c-6.142,0-12.284-2.343-16.971-7.029c-9.373-9.373-9.373-24.569,0-33.941
				C127.478,161.796,189.756,136,256,136c13.255,0,24,10.745,24,24s-10.745,24-24,24c-53.422,0-103.646,20.804-141.421,58.579
				C109.892,247.265,103.75,249.608,97.608,249.608z"/>
		</g>
		<g>
			<path fill="#F04B37" d="M165.49,317.49c-6.142,0-12.284-2.343-16.971-7.029c-9.373-9.373-9.373-24.569,0-33.941
				C177.229,247.811,215.399,232,256,232c13.255,0,24,10.745,24,24s-10.745,24-24,24c-27.779,0-53.896,10.818-73.539,30.461
				C177.774,315.147,171.632,317.49,165.49,317.49z"/>
		</g>
	</g>
	<g>
		<path fill="#5AD7FF" d="M304,400c-8.836,0-16-7.164-16-16c0-17.645-14.355-32-32-32s-32,14.355-32,32c0,8.836-7.164,16-16,16
			s-16-7.164-16-16c0-35.29,28.71-64,64-64s64,28.71,64,64C320,392.836,312.836,400,304,400z"/>
	</g>
</g>
</svg>
