<?xml version="1.0" encoding="utf-8"?>
<!-- Generator: Adobe Illustrator 22.1.0, SVG Export Plug-In . SVG Version: 6.00 Build 0)  -->
<svg version="1.1" id="Layer_1" xmlns="http://www.w3.org/2000/svg" xmlns:xlink="http://www.w3.org/1999/xlink" x="0px" y="0px"
	 viewBox="0 0 256 256" style="enable-background:new 0 0 256 256;" xml:space="preserve">
<style type="text/css">
	.st0{fill:#4671C6;}
	.st1{fill:#F9CFCF;}
	.st2{fill:#F9A7A7;}
	.st3{fill:#A4C9FF;}
	.st4{fill:#3762CC;}
	.st5{fill:#E0EBFC;}
	.st6{fill:#6BDDDD;}
	.st7{fill:#B9BEFC;}
	.st8{fill:#FFEA92;}
	.st9{fill:#EAA97D;}
	.st10{fill:#FFEA94;}
	.st11{fill:#FFE164;}
	.st12{fill:#FFDC85;}
	.st13{fill:#FFFFFF;}
	.st14{fill:#383838;}
</style>
<g>
	<g>
		<path class="st2" d="M128.012,186.89v59.674c1.354-0.006,2.708-0.354,3.925-1.048l48.321-27.583v-60.485L128.012,186.89z"/>
	</g>
	<g>
		<path class="st0" d="M180.258,157.447v60.485l49.736-28.391c1.559-0.891,2.52-2.549,2.519-4.344
			c-0.019-32.48-0.022-30.92-0.022-57.185L180.258,157.447z"/>
	</g>
	<g>
		<path class="st5" d="M180.258,97.406v60.041l52.233-29.435c0-11.752,0-29.068,0-57.507c0-0.899-0.242-1.763-0.678-2.514
			L180.258,97.406z"/>
	</g>
	<g>
		<polygon class="st6" points="128.009,173.878 128.012,186.89 180.258,157.447 180.258,97.406 128.012,127.216 		"/>
	</g>
	<g>
		<path class="st6" d="M127.988,186.89v59.674c-1.354-0.006-2.708-0.354-3.925-1.048l-48.321-27.583v-60.485L127.988,186.89z"/>
	</g>
	<g>
		<path class="st5" d="M75.742,157.447v60.485l-49.736-28.391c-1.559-0.891-2.52-2.549-2.519-4.344
			c0.019-32.48,0.022-30.92,0.022-57.185L75.742,157.447z"/>
	</g>
	<g>
		<path class="st2" d="M75.742,97.406v60.041l-52.233-29.435c0-11.752,0-29.068,0-57.507c0-0.899,0.242-1.763,0.678-2.514
			L75.742,97.406z"/>
	</g>
	<g>
		<polygon class="st0" points="127.991,173.878 127.988,186.89 75.742,157.447 75.742,97.406 127.988,127.216 		"/>
	</g>
	<g>
		<path class="st5" d="M180.258,97.413c0-0.001,0.001-0.006,0.001-0.006l-52.251-29.818L75.742,97.406l-0.01,0.008
			c23.75,13.558,11.699,6.686,52.281,29.802C177.187,99.176,159.382,109.33,180.258,97.413z"/>
	</g>
	<g>
		<path class="st6" d="M229.973,66.164c-39.571-22.622-29.327-16.769-49.711-28.393l-0.011,0.011l-52.243,29.805l52.251,29.818
			l0.006,0.002c8.47-4.835,23.302-13.3,51.548-29.417C231.378,67.244,230.75,66.609,229.973,66.164z"/>
	</g>
	<g>
		<path class="st2" d="M131.963,10.22c-2.457-1.402-5.471-1.402-7.927-0.001L75.76,37.772l0,0l52.247,29.816l52.243-29.805
			l0.011-0.011C171.65,32.862,157.573,24.832,131.963,10.22z"/>
	</g>
	<g>
		<path class="st0" d="M75.76,37.772L75.76,37.772L26.015,66.164c-0.777,0.444-1.405,1.079-1.84,1.827
			c26.755,15.266,42.03,23.985,51.556,29.423l0.01-0.008l52.266-29.818L75.76,37.772z"/>
	</g>
	<g>
		<path class="st4" d="M128.012,248.563c-0.528,0-1.036-0.209-1.411-0.583c-0.377-0.375-0.589-0.885-0.589-1.417V186.89
			c0-0.722,0.389-1.388,1.019-1.742l52.246-29.443c0.618-0.348,1.376-0.343,1.99,0.015c0.614,0.359,0.991,1.016,0.991,1.727v60.485
			c0,0.718-0.385,1.381-1.009,1.737l-48.321,27.583c-1.49,0.85-3.187,1.303-4.906,1.311
			C128.018,248.563,128.015,248.563,128.012,248.563z M130.012,188.059v56.15c0.322-0.116,0.636-0.26,0.935-0.43l47.312-27.007
			V160.87L130.012,188.059z"/>
	</g>
	<g>
		<path class="st4" d="M180.258,219.932c-0.347,0-0.693-0.09-1.004-0.271c-0.617-0.358-0.996-1.017-0.996-1.729v-60.485
			c0-0.722,0.389-1.388,1.019-1.742l52.232-29.435c0.618-0.349,1.376-0.343,1.99,0.015c0.614,0.359,0.991,1.016,0.991,1.727
			c0.001,20.833,0.003,24.16,0.013,40.855l0.01,16.328c0.001,2.508-1.35,4.838-3.526,6.082l-49.737,28.391
			C180.942,219.844,180.6,219.932,180.258,219.932z M182.258,158.616v55.872l46.745-26.683c0.932-0.533,1.511-1.531,1.51-2.606
			l-0.01-16.328c-0.01-15.738-0.012-19.597-0.013-37.435L182.258,158.616z"/>
	</g>
	<g>
		<path class="st4" d="M180.258,159.447c-0.349,0-0.697-0.091-1.009-0.273c-0.614-0.358-0.991-1.016-0.991-1.727V97.406
			c0-0.718,0.385-1.381,1.009-1.737l51.555-29.415c0.954-0.544,2.167-0.217,2.72,0.73c0.621,1.067,0.95,2.285,0.95,3.521
			l-0.001,57.507c0,0.722-0.389,1.388-1.019,1.742l-52.232,29.435C180.935,159.361,180.597,159.447,180.258,159.447z
			 M182.258,98.568v55.457l48.232-27.18l0.001-55.796L182.258,98.568z"/>
	</g>
	<g>
		<path class="st4" d="M128.012,188.89c-0.349,0-0.697-0.091-1.009-0.273c-0.613-0.358-0.991-1.016-0.991-1.727l-0.003-13.012v0
			l0.003-46.662c0-0.718,0.385-1.381,1.009-1.737l52.246-29.81c0.619-0.354,1.379-0.351,1.996,0.008
			c0.616,0.358,0.995,1.017,0.995,1.729v60.041c0,0.722-0.389,1.388-1.019,1.742l-52.246,29.443
			C128.688,188.804,128.351,188.89,128.012,188.89z M130.009,173.877l0.002,9.59l48.247-27.189V100.85l-48.246,27.527
			L130.009,173.877L130.009,173.877z"/>
	</g>
	<g>
		<path class="st4" d="M127.988,248.563c-0.003,0-0.006,0-0.01,0c-1.72-0.008-3.416-0.461-4.905-1.311l-48.322-27.584
			c-0.624-0.356-1.009-1.019-1.009-1.737v-60.485c0-0.711,0.377-1.368,0.991-1.727c0.614-0.358,1.372-0.364,1.99-0.015
			l52.246,29.443c0.63,0.354,1.019,1.02,1.019,1.742v59.673c0,0.532-0.212,1.042-0.589,1.417
			C129.024,248.354,128.517,248.563,127.988,248.563z M77.742,216.771l47.313,27.008c0.299,0.17,0.611,0.313,0.934,0.43v-56.15
			L77.742,160.87V216.771z"/>
	</g>
	<g>
		<path class="st4" d="M75.742,219.932c-0.342,0-0.685-0.087-0.991-0.263l-49.736-28.391c-2.178-1.244-3.528-3.574-3.527-6.082
			l0.01-16.328c0.01-16.696,0.012-20.022,0.013-40.855c0-0.711,0.377-1.368,0.991-1.727c0.614-0.358,1.372-0.364,1.99-0.015
			l52.232,29.435c0.63,0.354,1.019,1.02,1.019,1.742v60.485c0,0.713-0.379,1.372-0.996,1.729
			C76.437,219.842,76.089,219.932,75.742,219.932z M25.51,131.436c-0.001,17.838-0.003,21.697-0.013,37.435l-0.01,16.328
			c-0.001,1.075,0.578,2.074,1.511,2.607l46.744,26.683v-55.872L25.51,131.436z"/>
	</g>
	<g>
		<path class="st4" d="M75.742,159.447c-0.339,0-0.677-0.086-0.981-0.258l-52.232-29.435c-0.63-0.354-1.019-1.02-1.019-1.742
			l-0.001-57.507c0-1.233,0.328-2.451,0.949-3.519c0.552-0.95,1.767-1.276,2.721-0.732l51.555,29.415
			c0.624,0.356,1.009,1.019,1.009,1.737v60.041c0,0.711-0.377,1.368-0.991,1.727C76.439,159.356,76.091,159.447,75.742,159.447z
			 M25.51,126.844l48.232,27.18V98.568l-48.233-27.52L25.51,126.844z"/>
	</g>
	<g>
		<path class="st4" d="M127.988,188.89c-0.339,0-0.677-0.086-0.981-0.258l-52.246-29.443c-0.63-0.354-1.019-1.02-1.019-1.742V97.406
			c0-0.713,0.379-1.372,0.995-1.729c0.616-0.358,1.376-0.361,1.996-0.008l52.246,29.81c0.624,0.356,1.009,1.019,1.009,1.737
			l0.003,46.662v0l-0.003,13.012c0,0.711-0.378,1.368-0.991,1.727C128.686,188.799,128.337,188.89,127.988,188.89z M77.742,156.279
			l48.247,27.189l0.002-9.59l-0.003-45.5L77.742,100.85V156.279z"/>
	</g>
	<g>
		<path class="st4" d="M128.012,129.216c-0.342,0-0.683-0.087-0.99-0.262l-19.09-10.874c-14.955-8.517-14.955-8.517-25.243-14.391
			l-7.948-4.538c-0.59-0.336-0.969-0.949-1.006-1.627s0.271-1.328,0.82-1.728c0.06-0.043,0.133-0.091,0.196-0.127l52.266-29.818
			c0.615-0.351,1.369-0.351,1.982,0l52.25,29.818c0.624,0.355,1.009,1.019,1.009,1.737s-0.385,1.387-1.009,1.743l-10.113,5.775
			c-5.438,3.105-5.438,3.105-32.188,18.358l-9.946,5.671C128.695,129.128,128.354,129.216,128.012,129.216z M79.765,97.414
			l4.907,2.801c10.287,5.873,10.287,5.873,25.239,14.389l18.1,10.31l8.956-5.107c26.748-15.251,26.748-15.251,32.185-18.356
			l7.078-4.041l-48.222-27.519L79.765,97.414z M180.258,97.413h0.01H180.258z"/>
	</g>
	<g>
		<path class="st4" d="M180.265,99.409c-0.227,0-0.454-0.039-0.673-0.117c-0.11-0.039-0.224-0.091-0.325-0.149l-52.25-29.818
			c-0.624-0.356-1.009-1.019-1.009-1.737s0.385-1.381,1.009-1.737l52.205-29.783c0.611-0.368,1.393-0.397,2.03-0.033l7.788,4.44
			c8.995,5.127,8.995,5.127,29.139,16.644l12.786,7.31c1.067,0.61,1.959,1.495,2.577,2.558c0.268,0.461,0.341,1.01,0.202,1.525
			c-0.139,0.515-0.478,0.953-0.94,1.218c-28.245,16.117-43.078,24.582-51.548,29.417C180.951,99.32,180.608,99.409,180.265,99.409z
			 M132.043,67.588l48.221,27.518c8.369-4.777,22.521-12.854,48.194-27.504l-12.265-7.011
			c-20.141-11.515-20.141-11.515-29.134-16.642l-6.794-3.873L132.043,67.588z"/>
	</g>
	<g>
		<path class="st4" d="M128.008,69.588c-0.342,0-0.684-0.087-0.991-0.263L74.77,39.509c-0.624-0.355-1.009-1.019-1.009-1.737
			s0.385-1.381,1.009-1.737l48.275-27.553c3.056-1.745,6.854-1.744,9.909,0.001c25.609,14.612,39.688,22.641,48.299,27.552
			c0.541,0.309,0.908,0.853,0.991,1.471c0.083,0.618-0.127,1.239-0.568,1.68c-0.126,0.126-0.279,0.246-0.434,0.334l-52.243,29.805
			C128.691,69.5,128.35,69.588,128.008,69.588z M79.796,37.772l48.212,27.513l48.222-27.511c-8.8-5.018-22.46-12.809-45.258-25.817
			c0,0,0,0,0,0c-1.833-1.045-4.111-1.047-5.944,0L79.796,37.772z"/>
	</g>
	<g>
		<path class="st4" d="M75.726,99.411c-0.34,0-0.681-0.085-0.985-0.26L23.185,69.729c-0.463-0.265-0.802-0.703-0.94-1.218
			c-0.139-0.515-0.065-1.063,0.202-1.525c0.619-1.063,1.509-1.948,2.576-2.558L74.77,36.035c0.613-0.351,1.369-0.352,1.982,0
			l52.247,29.816c0.624,0.356,1.009,1.019,1.009,1.737s-0.385,1.381-1.009,1.737L76.746,99.136
			C76.433,99.318,76.079,99.411,75.726,99.411z M27.53,67.603l48.2,27.508l48.242-27.522L75.761,40.075L27.53,67.603z"/>
	</g>
</g>
</svg>
