<?xml version="1.0" encoding="utf-8"?>
<!-- Generator: Adobe Illustrator 22.1.0, SVG Export Plug-In . SVG Version: 6.00 Build 0)  -->
<svg version="1.1" id="Layer_1" xmlns="http://www.w3.org/2000/svg" xmlns:xlink="http://www.w3.org/1999/xlink" x="0px" y="0px"
	 viewBox="0 0 256 256" style="enable-background:new 0 0 256 256;" xml:space="preserve">
<style type="text/css">
	.st0{fill:#4671C6;}
	.st1{fill:#F9CFCF;}
	.st2{fill:#F9A7A7;}
	.st3{fill:#A4C9FF;}
	.st4{fill:#3762CC;}
	.st5{fill:#E0EBFC;}
	.st6{fill:#6BDDDD;}
	.st7{fill:#B9BEFC;}
	.st8{fill:#FFEA92;}
	.st9{fill:#EAA97D;}
	.st10{fill:#FFEA94;}
	.st11{fill:#FFE164;}
	.st12{fill:#FFDC85;}
	.st13{fill:#FFFFFF;}
	.st14{fill:#383838;}
</style>
<g>
	<g>
		<path class="st6" d="M108.581,172.651c-0.001-0.002-0.003-0.004-0.005-0.007c-0.485-0.829-1.182-1.52-2.019-1.999l-28.089-16.025
			v-0.554h5.519c2.206,0,4-1.794,4-4v-7.777c0-1.657-1.343-3-3-3s-3,1.343-3,3v5.777h-4.519c-2.757,0-5,2.243-5,5v2.134
			c0,1.791,0.966,3.455,2.522,4.343l25.283,14.424l-36.627,20.897l-36.627-20.897l35.573-20.295c1.439-0.821,1.94-2.653,1.119-4.093
			c-0.821-1.439-2.652-1.94-4.093-1.119l-38.887,22.186c-0.836,0.478-1.534,1.17-2.02,2.002c-0.001,0.001-0.001,0.003-0.002,0.004
			c0,0,0,0-0.001,0.001c-0.487,0.838-0.745,1.793-0.745,2.762v44.295c0,0.969,0.258,1.924,0.746,2.764
			c0.484,0.832,1.182,1.523,2.021,2.004l38.96,22.229c1.203,0.686,2.57,1.048,3.954,1.048c1.384,0,2.751-0.362,3.956-1.048
			l38.962-22.23c0.838-0.48,1.536-1.174,2.016-2.001c0.489-0.839,0.748-1.795,0.748-2.765v-44.295
			C109.328,174.446,109.07,173.49,108.581,172.651z M23.965,219.417v-40.282c24.259,13.84,16.215,9.251,36.682,20.928v40.282
			L23.965,219.417z M103.328,219.416l-36.682,20.929v-40.283l36.682-20.928V219.416z"/>
	</g>
	<g>
		<path class="st1" d="M100.669,109.094c-9.734,8.268-9.385,10.292-13.149,24.646l4.55,5.422c15.355-1.26,17.082-0.803,26.555-8.669
			C112.082,122.696,107.375,117.086,100.669,109.094z"/>
	</g>
	<g>
		<path class="st0" d="M232.744,43.758c6.488-4.923,7.098-14.763,1.342-21.623l-6.656-7.932c-5.756-6.86-15.553-7.967-21.528-2.433
			l-105.244,96.568c-0.197,0.181-0.217,0.485-0.045,0.69l18.11,21.583c0.172,0.205,0.475,0.238,0.687,0.075L232.744,43.758z"/>
	</g>
	<g>
		<path class="st3" d="M142.867,81.947l44.729-40.373c1.326-1.197,3.381-1.055,4.529,0.314l8.565,10.208
			c1.148,1.369,0.932,3.417-0.477,4.515l-47.527,37.038c-1.004,0.783-2.448,0.63-3.266-0.345l-6.78-8.08
			C141.822,84.248,141.922,82.8,142.867,81.947z"/>
	</g>
	<g>
		<path class="st5" d="M138.728,95.391L138.728,95.391c-2.54-3.027-7.053-3.422-10.081-0.882l-8.668,7.273
			c-3.027,2.54-3.422,7.053-0.882,10.081c2.541,3.028,7.054,3.421,10.081,0.882l8.668-7.273
			C140.874,102.931,141.269,98.418,138.728,95.391z"/>
	</g>
	<g>
		<path class="st4" d="M151.23,96.155c-1.245,0-2.478-0.534-3.343-1.565l-6.779-8.08c-1.518-1.808-1.334-4.464,0.418-6.046
			c0,0,0.001,0,0.001,0l44.729-40.374c1.049-0.945,2.406-1.415,3.811-1.315c1.408,0.098,2.684,0.747,3.592,1.828l8.564,10.208
			c0.907,1.082,1.325,2.451,1.177,3.855c-0.148,1.404-0.844,2.655-1.957,3.523l-47.526,37.039
			C153.115,95.851,152.169,96.155,151.23,96.155z M144.207,83.432c-0.146,0.132-0.161,0.354-0.034,0.506l6.779,8.08
			c0.127,0.151,0.348,0.176,0.505,0.054l47.526-37.039c0.337-0.262,0.419-0.607,0.438-0.789s0.011-0.536-0.264-0.863l-8.564-10.208
			c-0.273-0.327-0.621-0.396-0.804-0.409c-0.184-0.015-0.537,0.009-0.854,0.295L144.207,83.432z"/>
	</g>
	<g>
		<path class="st4" d="M124.586,116.415c-2.615,0-5.212-1.111-7.021-3.266c-1.572-1.874-2.32-4.247-2.107-6.683
			c0.213-2.436,1.363-4.644,3.236-6.215l8.668-7.273c1.874-1.572,4.245-2.322,6.683-2.107c2.437,0.213,4.644,1.362,6.216,3.235
			c1.571,1.874,2.32,4.247,2.107,6.683c-0.214,2.436-1.362,4.644-3.236,6.215l-8.668,7.273
			C128.752,115.713,126.664,116.415,124.586,116.415z M133.238,94.834c-1.209,0-2.368,0.42-3.305,1.207l-8.668,7.273
			c-1.055,0.885-1.702,2.128-1.822,3.5c-0.12,1.372,0.301,2.708,1.187,3.763c1.828,2.178,5.087,2.463,7.263,0.635l8.668-7.273
			c2.177-1.827,2.462-5.085,0.635-7.263c-0.885-1.055-2.128-1.702-3.5-1.822C133.543,94.841,133.391,94.834,133.238,94.834z"/>
	</g>
	<g>
		<path class="st4" d="M92.07,141.162c-0.588,0-1.15-0.26-1.532-0.714l-4.55-5.422c-0.417-0.497-0.567-1.166-0.402-1.793
			c0.383-1.459,0.723-2.791,1.035-4.015c2.779-10.885,3.526-13.811,12.753-21.648c0.405-0.345,0.931-0.515,1.463-0.468
			c0.531,0.044,1.021,0.299,1.364,0.707l17.956,21.399c0.342,0.408,0.507,0.935,0.459,1.465c-0.047,0.53-0.305,1.019-0.714,1.359
			c-9.233,7.666-11.839,7.872-24.365,8.859c-1.027,0.081-2.125,0.167-3.304,0.264C92.179,141.159,92.124,141.162,92.07,141.162z
			 M89.716,133.245l3.222,3.839c0.799-0.064,1.561-0.124,2.286-0.182c11.476-0.904,13.611-1.072,20.568-6.674l-15.352-18.296
			c-6.806,5.986-7.401,8.315-9.944,18.275C90.255,131.153,89.997,132.163,89.716,133.245z"/>
	</g>
	<g>
		<path class="st4" d="M119.106,132.79c-0.715,0-1.421-0.306-1.916-0.896l-18.11-21.582c-0.862-1.026-0.764-2.541,0.225-3.448
			L204.55,10.296c3.093-2.864,7.21-4.297,11.58-4.019c4.871,0.306,9.548,2.727,12.832,6.64l6.656,7.933
			c3.284,3.914,4.855,8.94,4.311,13.79c-0.488,4.353-2.609,8.155-5.973,10.709l-113.328,86.924
			C120.173,132.621,119.637,132.79,119.106,132.79z M103.067,108.841l16.265,19.384l112.195-86.054
			c0.002-0.002,0.005-0.004,0.008-0.006c2.484-1.885,4.054-4.716,4.419-7.971c0.423-3.767-0.816-7.693-3.4-10.772l-6.656-7.933
			c-2.583-3.079-6.235-4.981-10.019-5.219c-3.254-0.208-6.329,0.848-8.617,2.968L103.067,108.841z"/>
	</g>
	<g>
		<path class="st5" d="M92.07,139.162l-4.55-5.422l-4.126,3.463c-3.582,3.005,0.962,8.433,4.55,5.422L92.07,139.162
			C92.07,139.162,92.07,139.162,92.07,139.162z"/>
	</g>
	<g>
		<path class="st4" d="M85.721,145.497c-1.681,0-3.253-0.826-4.271-2.04c-1.727-2.058-2.083-5.486,0.659-7.787l4.126-3.462
			c0.847-0.71,2.107-0.599,2.818,0.247l4.55,5.422c0.71,0.846,0.6,2.107-0.247,2.818l-4.126,3.463
			C88.106,145.099,86.887,145.497,85.721,145.497z M87.273,136.557l-2.594,2.177c-1.073,0.9-0.398,1.874-0.166,2.151
			c0.296,0.354,1.101,1.082,2.144,0.207l2.594-2.177L87.273,136.557z"/>
	</g>
</g>
</svg>
