<?xml version="1.0" encoding="utf-8"?>
<!-- Generator: Adobe Illustrator 22.1.0, SVG Export Plug-In . SVG Version: 6.00 Build 0)  -->
<svg version="1.1" id="Layer_1" xmlns="http://www.w3.org/2000/svg" xmlns:xlink="http://www.w3.org/1999/xlink" x="0px" y="0px"
	 viewBox="0 0 256 256" style="enable-background:new 0 0 256 256;" xml:space="preserve">
<style type="text/css">
	.st0{fill:#4671C6;}
	.st1{fill:#F9CFCF;}
	.st2{fill:#F9A7A7;}
	.st3{fill:#A4C9FF;}
	.st4{fill:#3762CC;}
	.st5{fill:#E0EBFC;}
	.st6{fill:#6BDDDD;}
	.st7{fill:#B9BEFC;}
	.st8{fill:#FFEA92;}
	.st9{fill:#EAA97D;}
	.st10{fill:#FFEA94;}
	.st11{fill:#FFE164;}
	.st12{fill:#FFDC85;}
	.st13{fill:#FFFFFF;}
	.st14{fill:#383838;}
</style>
<g>
	<g>
		<path class="st0" d="M221.108,248H39.127c-4.385,0-7.94-3.555-7.94-7.94v-16.028c0-4.385,3.555-7.94,7.94-7.94h185.686v28.202
			C224.813,246.341,223.154,248,221.108,248z"/>
	</g>
	<g>
		<path class="st4" d="M221.107,250H39.127c-5.48,0-9.939-4.459-9.939-9.939v-16.028c0-5.48,4.459-9.939,9.939-9.939h185.686
			c1.104,0,2,0.896,2,2v28.202C226.813,247.44,224.253,250,221.107,250z M39.127,218.093c-3.275,0-5.939,2.664-5.939,5.939v16.028
			c0,3.275,2.664,5.939,5.939,5.939h181.98c0.94,0,1.705-0.765,1.705-1.705v-26.202H39.127z"/>
	</g>
	<g>
		<path class="st5" d="M42.997,238.106h173.518v-16.597H42.997c-1.939,0-3.511,1.572-3.511,3.511v9.574
			C39.485,236.534,41.057,238.106,42.997,238.106z"/>
	</g>
	<g>
		<path class="st4" d="M216.515,240.106H42.996c-3.039,0-5.511-2.473-5.511-5.512v-9.574c0-3.039,2.472-5.511,5.511-5.511h173.519
			c1.104,0,2,0.896,2,2v16.597C218.515,239.211,217.619,240.106,216.515,240.106z M42.996,223.51c-0.833,0-1.511,0.678-1.511,1.511
			v9.574c0,0.834,0.678,1.512,1.511,1.512h171.519V223.51H42.996z"/>
	</g>
	<g>
		<path class="st6" d="M219.281,226.866H58.848V8h160.433c3.055,0,5.532,2.477,5.532,5.532v207.802
			C224.813,224.39,222.336,226.866,219.281,226.866z"/>
	</g>
	<g>
		<path class="st0" d="M58.848,226.866H31.187V14.915c0-3.819,3.096-6.915,6.915-6.915h20.746V226.866z"/>
	</g>
	<g>
		<path class="st4" d="M219.281,228.866H58.848c-1.104,0-2-0.896-2-2V8c0-1.104,0.896-2,2-2h160.434
			c4.152,0,7.531,3.379,7.531,7.532v207.802C226.813,225.487,223.434,228.866,219.281,228.866z M60.848,224.866h158.434
			c1.947,0,3.531-1.585,3.531-3.532V13.532c0-1.947-1.584-3.532-3.531-3.532H60.848V224.866z"/>
	</g>
	<g>
		<path class="st4" d="M58.848,228.866h-27.66c-1.104,0-2-0.896-2-2V14.915C29.187,9.999,33.187,6,38.103,6h20.745
			c1.104,0,2,0.896,2,2v218.866C60.848,227.971,59.952,228.866,58.848,228.866z M33.187,224.866h23.66V10H38.103
			c-2.71,0-4.915,2.205-4.915,4.915V224.866z"/>
	</g>
	<g>
		<path class="st0" d="M210.902,120.547h-9.088c-12.501,0-22.635-10.134-22.635-22.635V78.401h9.088
			c12.501,0,22.635,10.134,22.635,22.635V120.547z"/>
	</g>
	<g>
		<path class="st0" d="M71.701,120.547h9.088c12.501,0,22.635-10.134,22.635-22.635V78.401h-9.088
			c-12.501,0-22.635,10.134-22.635,22.635V120.547z"/>
	</g>
	<g>
		<path class="st8" d="M196.101,198.667h-108c-6.627,0-12-5.373-12-12V153c0-6.627,5.373-12,12-12h108c6.627,0,12,5.373,12,12
			v33.667C208.101,193.294,202.729,198.667,196.101,198.667z"/>
	</g>
	<g>
		<path class="st2" d="M108.446,155.461c-1.449-3.811-2.607-7.819-7.575-7.819c-4.928,0-5.95,3.848-7.518,7.862
			c-11.237,28.526-12.615,29.422-9.614,32.282c2.1,2.002,5.194,1.534,6.382-0.042c1.023-1.356,1.912-3.997,3.576-8.467h14.404
			c2.697,7.089,3.349,9.824,6.942,9.824c2.696,0,4.671-2.256,4.671-4.436C119.714,182.812,119.401,182.519,108.446,155.461z
			 M96.375,171.689l4.452-12.409l4.533,12.409H96.375z"/>
	</g>
	<g>
		<path class="st0" d="M152.54,167.1c6.555-4.206,5.767-13.329-0.428-17.027c-3.639-2.204-7.272-1.776-21.278-1.776
			c-3.933,0-5.588,1.921-5.588,5.641v28.868c0,1.883,0.447,3.306,1.329,4.23c1.737,1.825,3.677,1.411,15.995,1.411
			c5.949,0,11.362-0.584,14.54-5.55c1.186-1.855,1.788-3.966,1.788-6.272C158.899,172.175,156.762,168.979,152.54,167.1z
			 M145.232,163.565c-1.821,0.63-4.116,0.501-10.459,0.501v-8.181c5.66,0,9.114-0.174,11.386,0.875
			c0.671,0.31,1.563,0.967,1.563,3.072C147.722,161.393,146.809,163.015,145.232,163.565z M134.773,171.393
			c7.353,0,10.598-0.274,12.853,1.172c1.104,0.708,1.642,1.847,1.642,3.482c0,5.946-7.179,4.811-14.494,4.811V171.393z"/>
	</g>
	<g>
		<path class="st7" d="M192.665,172.489c-1.646,2.15-1.453,4.966-4.544,7.182c-3.024,2.171-10.457,2.888-13.317-3.874
			c-2.255-5.334-2.326-20.227,8.416-20.227c8.625,0,6.784,8.828,12.547,8.828c1.139,0,2.122-0.438,2.92-1.302
			c5.135-5.562-7.321-20.366-23.05-14.03c-4.606,1.857-8.32,5.502-10.251,10.751c-4.011,10.902,0.1,25.87,12.266,28.684
			c12.855,2.973,22.315-4.862,22.315-13.058C199.968,171.206,194.626,169.933,192.665,172.489z"/>
	</g>
	<g>
		<ellipse class="st1" cx="141.483" cy="83.899" rx="43.726" ry="37.564"/>
	</g>
	<g>
		<path class="st0" d="M142.101,39.476c-0.206-0.002-0.411-0.013-0.618-0.013c-25.553,0-46.414,17.253-47.664,38.939h16.215
			c17.71,0,32.067-14.357,32.067-32.067V39.476z"/>
	</g>
	<g>
		<path class="st0" d="M142.101,39.476v6.858c0,17.71,14.357,32.067,32.067,32.067h14.979
			C187.907,56.891,167.371,39.753,142.101,39.476z"/>
	</g>
	<g>
		<path class="st0" d="M123.159,94.435c-2.843,0-5.154-2.304-5.154-5.154v-2.52c0-2.846,2.307-5.154,5.154-5.154h0
			c2.846,0,5.154,2.307,5.154,5.154v2.52C128.313,92.128,126.006,94.435,123.159,94.435z"/>
	</g>
	<g>
		<path class="st0" d="M159.807,94.435L159.807,94.435c-2.846,0-5.154-2.307-5.154-5.154v-2.52c0-2.846,2.307-5.154,5.154-5.154
			c2.843,0,5.154,2.304,5.154,5.154v2.52C164.961,92.128,162.654,94.435,159.807,94.435z"/>
	</g>
	<g>
		<path class="st2" d="M141.483,110.468L141.483,110.468c-5.484,0-10.597-4.236-10.597-10.994h21.194v0.397
			C152.08,105.724,147.336,110.468,141.483,110.468z"/>
	</g>
	<g>
		<path class="st2" d="M172.549,103.139h-4.79c-3.631,0-3.638-5.497,0-5.497h4.79C176.205,97.642,176.211,103.139,172.549,103.139z"
			/>
	</g>
	<g>
		<path class="st2" d="M115.814,103.139h-4.79c-1.518,0-2.749-1.231-2.749-2.749c0-1.518,1.23-2.749,2.749-2.749h4.79
			c1.518,0,2.749,1.231,2.749,2.749v0C118.562,101.908,117.332,103.139,115.814,103.139z"/>
	</g>
</g>
</svg>
