<?xml version="1.0" encoding="utf-8"?>
<!-- Generator: Adobe Illustrator 22.1.0, SVG Export Plug-In . SVG Version: 6.00 Build 0)  -->
<svg version="1.1" id="Layer_1" xmlns="http://www.w3.org/2000/svg" xmlns:xlink="http://www.w3.org/1999/xlink" x="0px" y="0px"
	 viewBox="0 0 256 256" style="enable-background:new 0 0 256 256;" xml:space="preserve">
<style type="text/css">
	.st0{fill:#4671C6;}
	.st1{fill:#F9CFCF;}
	.st2{fill:#F9A7A7;}
	.st3{fill:#A4C9FF;}
	.st4{fill:#3762CC;}
	.st5{fill:#E0EBFC;}
	.st6{fill:#6BDDDD;}
	.st7{fill:#B9BEFC;}
	.st8{fill:#FFEA92;}
	.st9{fill:#EAA97D;}
	.st10{fill:#FFEA94;}
	.st11{fill:#FFE164;}
	.st12{fill:#FFDC85;}
	.st13{fill:#FFFFFF;}
	.st14{fill:#383838;}
</style>
<g>
	<g>
		<path class="st1" d="M177.827,69.051H78.173V57.827C78.173,30.308,100.481,8,128,8h0c27.519,0,49.827,22.308,49.827,49.827V69.051
			z"/>
	</g>
	<g>
		<path class="st2" d="M86.173,58.569L86.173,58.569c0-23.405,19.153-42.963,42.554-42.563c22.73,0.389,41.1,19,41.1,41.821v0.742
			c0,1.371-1.111,2.482-2.482,2.482H88.655C87.284,61.051,86.173,59.939,86.173,58.569z"/>
	</g>
	<g>
		<path class="st5" d="M161.628,248H94.372c-2.28,0-4.129-1.849-4.129-4.129v-31.736h75.514v31.736
			C165.757,246.151,163.909,248,161.628,248z"/>
	</g>
	<g>
		<rect x="90.243" y="176.271" class="st1" width="75.514" height="35.865"/>
	</g>
	<g>
		<path class="st6" d="M128,176.271H54.627c-2.28,0-4.129-1.849-4.129-4.129V144.63c0-2.28,1.849-4.129,4.129-4.129H128V176.271z"/>
	</g>
	<g>
		<path class="st6" d="M201.373,176.271H128v-35.77h73.373c2.28,0,4.129,1.849,4.129,4.129v27.512
			C205.502,174.422,203.653,176.271,201.373,176.271z"/>
	</g>
	<g>
		<rect x="90.243" y="104.804" class="st3" width="75.514" height="35.697"/>
	</g>
	<g>
		<path class="st7" d="M128,104.821H54.627c-2.28,0-4.129-1.849-4.129-4.129V73.18c0-2.28,1.849-4.129,4.129-4.129H128V104.821z"/>
	</g>
	<g>
		<path class="st7" d="M201.373,104.821H128v-35.77h73.373c2.28,0,4.129,1.849,4.129,4.129v27.512
			C205.502,102.972,203.653,104.821,201.373,104.821z"/>
	</g>
	<g>
		<path class="st0" d="M125.924,226.73c-3.975,3.052-5.299,3.431-6.268,2.431c-0.734-0.757-0.577-1.869-0.008-2.295
			c1.438-1.078,4.072-1.415,6.547-4.862c1.022-1.424,1.062-1.716,2.062-1.716c1.217,0,1.761,1.087,1.761,2.318v17.233
			c0,3.672-2.635,3.408-3.537,2.408C125.578,241.247,125.924,240.06,125.924,226.73z"/>
	</g>
	<g>
		<path class="st0" d="M124.302,201.751c7.017,0,10.265-0.649,10.265,1.791c0,0.977-0.641,1.761-1.971,1.761
			c-10.759,0-11.838,0.364-12.839-0.625c-3.556-3.512,8.262-9.89,9.881-13.38c2.217-4.786-4.69-7.647-6.607-2.175
			c-0.658,1.875-1.326,2.092-2.1,2.092c-0.502,0-0.918-0.166-1.249-0.497c-1.481-1.481,0.234-7.616,7.044-7.616
			c8.026,0,9.6,7.63,4.651,12.078c-2.191,1.969-5.049,4.028-6.337,5.592C124.799,201.044,124.553,201.37,124.302,201.751z"/>
	</g>
	<g>
		<path class="st0" d="M89.579,149.378c-4.01,0-2.396,3.895-5.054,3.895c-0.396,0-0.76-0.161-1.092-0.483
			c-2.245-2.174,2.85-7.957,9.194-5.857c0.793,0.263,1.481,0.642,2.067,1.137c2.094,1.775,2.949,5.372-0.729,8.458
			c5.715,3.076,4.011,9.758-1.092,11.721c-8.533,3.282-13.509-7.276-8.629-7.276c1.726,0,1.237,1.942,2.966,3.902
			c1.813,2.057,6.236,0.91,6.236-2.861c0-4.588-4.322-3.597-5.322-3.597c-2.272,0-2.484-3.136,0.416-3.136
			C94.012,155.28,93.349,149.378,89.579,149.378z"/>
	</g>
	<g>
		<path class="st0" d="M166.786,163.76h-7.462c-0.942,0-1.648-0.213-2.118-0.639c-0.471-0.426-0.706-1.006-0.706-1.739
			c0-1.012,0.522-1.356,9.276-13.066c0.674-0.907,1.37-1.977,2.468-1.977c1.506,0,2.259,0.862,2.259,2.587v11.506
			c1.813,0,3.167,0.003,3.167,1.68c0,1.797-1.818,1.65-3.167,1.65c0,2.324,0.479,5.024-1.858,5.024
			C166.382,168.785,166.786,166.216,166.786,163.76z M160.394,160.43h6.392v-8.637L160.394,160.43z"/>
	</g>
	<g>
		<path class="st0" d="M126.387,114.96l-0.848,4.816c7.361-3.939,13.197,3.571,9.781,9.826c-2.94,5.381-11.416,4.734-13.654,0.617
			c-1.576-2.897,0.003-3.843,1.003-3.843c2.473,0,1.689,4.237,5.723,4.237c4.399,0,4.927-6.788,1.948-8.54
			c-4.111-2.415-5.853,3.443-8.295,1.16c-0.76-0.709-0.573-1.227-0.402-2.208c1.456-8.304,1.157-9.558,3.865-9.558
			c8.129,0,10.168-0.516,10.168,1.769C135.678,115.57,132.647,114.96,126.387,114.96z"/>
	</g>
	<g>
		<path class="st0" d="M86.344,85.491c4.019-4.788,11.446-1.929,11.446,4.727c0,4.217-3.038,7.433-7.522,7.433
			c-5.8,0-8.042-4.783-8.042-10.658c0-16.062,14.672-12.62,14.672-6.942c0,1.867-2.781,2.336-3.583,0.119
			c-0.941-2.457-4.039-2.688-5.693-0.297C86.899,80.923,86.473,82.796,86.344,85.491z M92.841,93.496
			c2.658-3.322-0.136-9.471-4.274-7.054c-1.073,0.627-1.866,1.873-1.866,3.597C86.701,94.596,90.823,96.016,92.841,93.496z"/>
	</g>
	<g>
		<path class="st0" d="M161.082,76.288c9.17,0,10.966-0.252,11.966,0.446c1.8,1.256-0.504,3.684-1.821,5.389
			c-6.682,8.652-3.191,16.121-7.396,16.121c-4.529,0-0.262-9.744,1.97-13.683c0.907-1.6,1.985-3.194,3.233-4.779h-7.953
			c-1.44,0-2.482-0.428-2.482-1.873C158.6,76.948,158.91,76.288,161.082,76.288z"/>
	</g>
	<g>
		<path class="st0" d="M119.824,33.975c0-9.537,17.429-9.551,17.429,0.037c0,2.594-1.426,4.462-3.735,5.593
			c7.605,2.954,6.224,15.125-4.906,15.125c-11.174,0-12.661-12.101-4.98-15.125C121.094,38.416,119.824,36.539,119.824,33.975z
			 M128.464,41.519c-6.043,0-5.935,9.662,0.111,9.662C134.559,51.181,134.904,41.519,128.464,41.519z M125.687,31.494
			c-2.176,2.212-1.055,6.476,2.852,6.476c3.56,0,4.646-3.458,3.391-5.686C130.622,29.968,127.269,29.885,125.687,31.494z"/>
	</g>
	<g>
		<path class="st4" d="M177.827,71.051H78.173c-1.104,0-2-0.896-2-2V57.827C76.173,29.25,99.422,6,128,6s51.827,23.25,51.827,51.827
			v11.224C179.827,70.155,178.932,71.051,177.827,71.051z M80.173,67.051h95.654v-9.224C175.827,31.455,154.372,10,128,10
			S80.173,31.455,80.173,57.827V67.051z"/>
	</g>
	<g>
		<path class="st4" d="M161.628,250H94.372c-3.379,0-6.129-2.75-6.129-6.129v-31.736c0-1.104,0.896-2,2-2h75.515
			c1.104,0,2,0.896,2,2v31.736C167.757,247.25,165.008,250,161.628,250z M92.243,214.135v29.736c0,1.174,0.955,2.129,2.129,2.129
			h67.257c1.174,0,2.129-0.955,2.129-2.129v-29.736H92.243z"/>
	</g>
	<g>
		<path class="st4" d="M165.757,214.135H90.243c-1.104,0-2-0.896-2-2v-35.864c0-1.104,0.896-2,2-2h75.515c1.104,0,2,0.896,2,2
			v35.864C167.757,213.24,166.862,214.135,165.757,214.135z M92.243,210.135h71.515v-31.864H92.243V210.135z"/>
	</g>
	<g>
		<path class="st4" d="M128,178.271H54.627c-3.379,0-6.129-2.75-6.129-6.129V144.63c0-3.379,2.75-6.129,6.129-6.129H128
			c1.104,0,2,0.896,2,2v35.77C130,177.375,129.104,178.271,128,178.271z M54.627,142.501c-1.174,0-2.129,0.955-2.129,2.129v27.512
			c0,1.174,0.955,2.129,2.129,2.129H126v-31.77H54.627z"/>
	</g>
	<g>
		<path class="st4" d="M201.373,178.271H128c-1.104,0-2-0.896-2-2v-35.77c0-1.104,0.896-2,2-2h73.373
			c3.379,0,6.129,2.75,6.129,6.129v27.512C207.501,175.521,204.752,178.271,201.373,178.271z M130,174.271h71.373
			c1.174,0,2.129-0.955,2.129-2.129V144.63c0-1.174-0.955-2.129-2.129-2.129H130V174.271z"/>
	</g>
	<g>
		<path class="st4" d="M165.757,142.501H90.243c-1.104,0-2-0.896-2-2v-35.697c0-1.104,0.896-2,2-2h75.515c1.104,0,2,0.896,2,2
			v35.697C167.757,141.605,166.862,142.501,165.757,142.501z M92.243,138.501h71.515v-31.697H92.243V138.501z"/>
	</g>
	<g>
		<path class="st4" d="M128,106.821H54.627c-3.379,0-6.129-2.75-6.129-6.129V73.18c0-3.379,2.75-6.129,6.129-6.129H128
			c1.104,0,2,0.896,2,2v35.77C130,105.925,129.104,106.821,128,106.821z M54.627,71.051c-1.174,0-2.129,0.955-2.129,2.129v27.512
			c0,1.174,0.955,2.129,2.129,2.129H126v-31.77H54.627z"/>
	</g>
	<g>
		<path class="st4" d="M201.373,106.821H128c-1.104,0-2-0.896-2-2v-35.77c0-1.104,0.896-2,2-2h73.373
			c3.379,0,6.129,2.75,6.129,6.129v27.512C207.501,104.071,204.752,106.821,201.373,106.821z M130,102.821h71.373
			c1.174,0,2.129-0.955,2.129-2.129V73.18c0-1.174-0.955-2.129-2.129-2.129H130V102.821z"/>
	</g>
</g>
</svg>
