<?xml version="1.0" encoding="utf-8"?>
<!-- Generator: Adobe Illustrator 22.1.0, SVG Export Plug-In . SVG Version: 6.00 Build 0)  -->
<svg version="1.1" id="Layer_1" xmlns="http://www.w3.org/2000/svg" xmlns:xlink="http://www.w3.org/1999/xlink" x="0px" y="0px"
	 viewBox="0 0 256 256" style="enable-background:new 0 0 256 256;" xml:space="preserve">
<style type="text/css">
	.st0{fill:#4671C6;}
	.st1{fill:#F9CFCF;}
	.st2{fill:#F9A7A7;}
	.st3{fill:#A4C9FF;}
	.st4{fill:#3762CC;}
	.st5{fill:#E0EBFC;}
	.st6{fill:#6BDDDD;}
	.st7{fill:#B9BEFC;}
	.st8{fill:#FFEA92;}
	.st9{fill:#EAA97D;}
	.st10{fill:#FFEA94;}
	.st11{fill:#FFE164;}
	.st12{fill:#FFDC85;}
	.st13{fill:#FFFFFF;}
	.st14{fill:#383838;}
</style>
<g>
	<g>
		<circle class="st1" cx="167.025" cy="87.118" r="73.286"/>
	</g>
	<g>
		<path class="st2" d="M225.855,43.415c-26.996-20.691-66.472-1.593-66.472,32.348c0,5.111,1.254,8.933,1.008,15.297
			c-1.703,28.392-36.384,42.415-59.203,24.213l-2.858-2.573c1.319,3.236,4.759,12.7,13.743,22.88
			c18.307,12.946,43.574,8.833,56.937-8.828c10.826-10.479,11.839-26.264,10.779-37.672c-2.51-27.032,26.191-46.373,55.11-29.609
			C232.553,53.719,229.51,48.328,225.855,43.415z"/>
	</g>
	<g>
		<path class="st4" d="M167.025,162.404c-41.513,0-75.286-33.773-75.286-75.286s33.773-75.286,75.286-75.286
			s75.285,33.773,75.285,75.286S208.538,162.404,167.025,162.404z M167.025,15.832c-39.308,0-71.286,31.979-71.286,71.286
			s31.979,71.286,71.286,71.286c39.307,0,71.285-31.979,71.285-71.286S206.332,15.832,167.025,15.832z"/>
	</g>
	<g>
		<circle class="st5" cx="85.311" cy="172.546" r="69.621"/>
	</g>
	<g>
		<path class="st6" d="M122.96,170.659c-13.128-13.554-34.242-10.103-38.733-10.101c-12.583,0-23.763-7.31-28.482-18.625
			c-1.824-4.374-2.749-9.019-2.749-13.806c0-8.233,2.44-13.835,6.049-20.061c-5.463,2.228-10.585,5.118-15.251,8.59
			c-5.222,6.813-8.132,15.213-8.132,23.939c0,21.621,17.433,39.211,38.861,39.211c5.479,0,5.53-0.973,12.589-0.996l-0.001-0.263
			l0.079,0.263c27.921,0,42.505,34.167,24.866,56.282l-2.972,2.909c0,0,3.485-1.265,3.981-1.602
			c6.712-2.922,12.869-6.871,18.282-11.648C143.606,207.419,139.763,183.371,122.96,170.659z"/>
	</g>
	<g>
		<path class="st4" d="M85.311,244.168c-39.492,0-71.621-32.129-71.621-71.622s32.129-71.622,71.621-71.622
			s71.622,32.129,71.622,71.622S124.803,244.168,85.311,244.168z M85.311,104.925c-37.286,0-67.621,30.335-67.621,67.622
			s30.335,67.622,67.621,67.622c37.287,0,67.622-30.335,67.622-67.622S122.598,104.925,85.311,104.925z"/>
	</g>
</g>
</svg>
