<?xml version="1.0" encoding="utf-8"?>
<!-- Generator: Adobe Illustrator 23.0.0, SVG Export Plug-In . SVG Version: 6.00 Build 0)  -->
<svg version="1.1" id="Layer_1" xmlns="http://www.w3.org/2000/svg" xmlns:xlink="http://www.w3.org/1999/xlink" x="0px" y="0px"
	 viewBox="0 0 512 512" style="enable-background:new 0 0 512 512;" xml:space="preserve">
<style type="text/css">
	.st0{fill:#32283C;}
	.st1{fill:#463C4B;}
	.st2{fill:#E6E6EB;}
	.st3{fill:#A5C3DC;}
	.st4{fill:#FF4646;}
	.st5{fill:#CD3232;}
	.st6{fill:#F0915A;}
	.st7{fill:#FAB991;}
	.st8{fill:#F5732D;}
	.st9{fill:#FAA037;}
	.st10{fill:#78AF41;}
	.st11{fill:#788CB4;}
	.st12{fill:#466932;}
	.st13{fill:#FBB993;}
	.st14{fill:#F1905B;}
	.st15{fill:#23192D;}
	.st16{fill:#32293C;}
	.st17{fill:#B92323;}
</style>
<g>
	<g>
		<path class="st5" d="M493.014,164.384l-63.956-93.027C425.892,66.751,420.661,64,415.073,64H96.927
			c-5.589,0-10.819,2.751-13.985,7.356l-63.956,93.027c-1.945,2.829-2.986,6.181-2.986,9.615v6.086c0,3.941,1.372,7.76,3.88,10.8
			l207.029,250.944C230.133,445.737,234.934,448,240,448h32c5.066,0,9.867-2.263,13.091-6.171L492.12,190.885
			c2.508-3.04,3.88-6.859,3.88-10.8v-6.086C496,170.565,494.959,167.213,493.014,164.384z"/>
	</g>
	<g>
		<g>
			<path class="st0" d="M240,432c-0.291,0-0.563-0.128-0.749-0.353L32.222,180.703C32.079,180.53,32,180.31,32,180.085v-6.086
				c0-0.197,0.059-0.387,0.17-0.549l63.957-93.029c0.181-0.264,0.48-0.421,0.8-0.421h286.145c0.32,0,0.619,0.157,0.801,0.421
				l63.956,93.028c0.112,0.163,0.171,0.353,0.171,0.55v6.086c0,0.225-0.079,0.445-0.223,0.619L240.75,431.647
				C240.564,431.871,240.291,432,240,432z"/>
		</g>
		<g>
			<path class="st4" d="M375.167,96l55.34,80.495L240,407.413L49.493,176.495L104.833,96H375.167 M383.073,64H96.927
				c-5.588,0-10.819,2.751-13.985,7.356l-63.956,93.027c-1.945,2.829-2.986,6.181-2.986,9.615v6.086c0,3.941,1.372,7.76,3.88,10.8
				l207.029,250.944C230.133,445.737,234.934,448,240,448s9.867-2.263,13.091-6.171L460.12,190.885c2.508-3.04,3.88-6.859,3.88-10.8
				v-6.086c0-3.433-1.041-6.786-2.986-9.615l-63.956-93.027C393.891,66.751,388.661,64,383.073,64L383.073,64z"/>
		</g>
	</g>
	<g>
		<path class="st2" d="M126.5,120h-2.334c-12.59,0-22.833,10.243-22.833,22.833c0,8.704,4.836,16.53,12.622,20.422l15.601,7.801
			c2.33,1.165,3.777,3.507,3.777,6.111c0,3.768-3.065,6.833-6.833,6.833h-2.334c-3.768,0-6.833-3.065-6.833-6.833V176
			c0-4.418-3.582-8-8-8s-8,3.582-8,8v1.167c0,12.59,10.243,22.833,22.833,22.833h2.334c12.59,0,22.833-10.243,22.833-22.833
			c0-8.705-4.836-16.53-12.622-20.422l-15.601-7.801c-2.33-1.165-3.777-3.507-3.777-6.111c0-3.768,3.065-6.833,6.833-6.833h2.334
			c3.768,0,6.833,3.065,6.833,6.833V144c0,4.418,3.582,8,8,8s8-3.582,8-8v-1.167C149.333,130.243,139.091,120,126.5,120z"/>
		<path class="st2" d="M200,120c-4.418,0-8,3.582-8,8v48c0,4.411-3.589,8-8,8s-8-3.589-8-8v-48c0-4.418-3.582-8-8-8s-8,3.582-8,8v48
			c0,13.234,10.767,24,24,24s24-10.766,24-24v-48C208,123.582,204.418,120,200,120z"/>
		<path class="st2" d="M242.667,120h-16c-4.418,0-8,3.582-8,8v64c0,4.418,3.582,8,8,8s8-3.582,8-8v-24h8c13.234,0,24-10.766,24-24
			S255.9,120,242.667,120z M242.667,152h-8v-16h8c4.412,0,8,3.589,8,8S247.078,152,242.667,152z"/>
		<path class="st2" d="M314.667,136c4.418,0,8-3.582,8-8c0-4.418-3.582-8-8-8h-32c-4.418,0-8,3.582-8,8v64c0,4.418,3.582,8,8,8h32
			c4.418,0,8-3.582,8-8s-3.582-8-8-8h-24v-16h10.666c4.418,0,8-3.582,8-8s-3.582-8-8-8h-10.666v-16H314.667z"/>
		<path class="st2" d="M366.146,165.071c7.454-4.077,12.521-11.993,12.521-21.071c0-13.234-10.767-24-24-24h-16
			c-4.418,0-8,3.582-8,8v64c0,4.418,3.582,8,8,8s8-3.582,8-8v-24h3.056l13.789,27.578c1.401,2.803,4.227,4.424,7.161,4.424
			c1.202,0,2.424-0.272,3.572-0.846c3.951-1.976,5.553-6.781,3.577-10.733L366.146,165.071z M346.667,136h8c4.411,0,8,3.589,8,8
			s-3.589,8-8,8h-8V136z"/>
	</g>
	<g>
		<g>
			<path class="st3" d="M195.373,416H480c8.837,0,16-7.163,16-16V240c0-8.837-7.163-16-16-16H195.373
				c-7.198,0-14.017,3.231-18.575,8.802l-59.732,73.006C113.79,309.812,112,314.827,112,320l0,0c0,5.173,1.79,10.188,5.066,14.192
				l59.732,73.006C181.356,412.769,188.175,416,195.373,416z"/>
		</g>
		<g>
			<path class="st2" d="M195.373,416H456c8.837,0,16-7.163,16-16V240c0-8.837-7.163-16-16-16H195.373
				c-7.198,0-14.017,3.231-18.575,8.802l-59.732,73.006C113.79,309.812,112,314.827,112,320l0,0c0,5.173,1.79,10.188,5.066,14.192
				l59.732,73.006C181.356,412.769,188.175,416,195.373,416z"/>
		</g>
		<g>
			<circle class="st0" cx="152" cy="320" r="24"/>
		</g>
		<g>
			<path class="st4" d="M220,256c-15.439,0-28,12.561-28,28v14.459c0,11.516,6.909,21.721,17.601,25.997l14.855,5.943
				c4.583,1.833,7.543,6.206,7.543,11.141V356c0,6.617-5.383,12-12,12s-12-5.383-12-12v-4c0-4.418-3.582-8-8-8s-8,3.582-8,8v4
				c0,15.439,12.561,28,28,28s28-12.561,28-28v-14.459c0-11.516-6.909-21.72-17.601-25.997l-14.855-5.943
				c-4.583-1.833-7.543-6.206-7.543-11.142V284c0-6.617,5.383-12,12-12s12,5.383,12,12v4c0,4.418,3.582,8,8,8s8-3.582,8-8v-4
				C248,268.561,235.439,256,220,256z"/>
			<path class="st4" d="M292,256c-15.439,0-28,12.561-28,28v92c0,4.418,3.582,8,8,8s8-3.582,8-8v-48h24v48c0,4.418,3.582,8,8,8
				s8-3.582,8-8v-92C320,268.561,307.439,256,292,256z M280,312v-28c0-6.617,5.383-12,12-12s12,5.383,12,12v28H280z"/>
			<path class="st4" d="M384,368h-24c-4.411,0-8-3.589-8-8v-96c0-4.418-3.582-8-8-8s-8,3.582-8,8v96c0,13.234,10.767,24,24,24h24
				c4.418,0,8-3.582,8-8S388.418,368,384,368z"/>
			<path class="st4" d="M448,368h-24c-4.411,0-8-3.589-8-8v-32h16c4.418,0,8-3.582,8-8s-3.582-8-8-8h-16v-32c0-4.411,3.589-8,8-8h24
				c4.418,0,8-3.582,8-8s-3.582-8-8-8h-24c-13.233,0-24,10.766-24,24v80c0,13.234,10.767,24,24,24h24c4.418,0,8-3.582,8-8
				S452.418,368,448,368z"/>
		</g>
	</g>
	<path class="st5" d="M152,312H80c-13.233,0-24-10.766-24-24v-53.334l-16-19.394V288c0,22.056,17.944,40,40,40h72
		c4.418,0,8-3.582,8-8S156.418,312,152,312z"/>
</g>
</svg>
