<?xml version="1.0" encoding="utf-8"?>
<!-- Generator: Adobe Illustrator 23.0.3, SVG Export Plug-In . SVG Version: 6.00 Build 0)  -->
<svg version="1.1" id="Layer_1" xmlns="http://www.w3.org/2000/svg" xmlns:xlink="http://www.w3.org/1999/xlink" x="0px" y="0px"
	 viewBox="0 0 256 256" style="enable-background:new 0 0 256 256;" xml:space="preserve">
<style type="text/css">
	.st0{fill:#F87023;}
	.st1{fill:#F8AF23;}
	.st2{fill:#CECECE;}
	.st3{fill:#AFAFAF;}
	.st4{fill:#63BCE7;}
	.st5{fill:#63E2E7;}
	.st6{fill:#9E9E9E;}
	.st7{fill:#707070;}
	.st8{fill:#3F3679;}
	.st9{fill:#E2E2E2;}
	.st10{fill:#6377E7;}
	.st11{fill:#F46275;}
	.st12{fill:#F8D323;}
	.st13{fill:#F43075;}
	.st14{fill:#F48875;}
</style>
<g>
	<path class="st11" d="M41.698,108.645V56.482c0-7.098,5.754-12.852,12.852-12.852h56.12l-8.782-11.567H74.898L62.047,18.142H32.068
		c-7.098,0-12.852,5.754-12.852,12.852v77.651c0,5.517,3.977,10.096,9.219,11.049c0.657,0.119,1.33,0.191,2.021,0.191h0
		C36.665,119.885,41.698,114.853,41.698,108.645z"/>
	<g>
		<path class="st13" d="M25.716,108.645V30.994c0-7.098,5.754-12.852,12.852-12.852h-6.5c-7.098,0-12.852,5.754-12.852,12.852
			v77.651c0,5.517,3.977,10.096,9.219,11.049c0.657,0.12,1.33,0.191,2.021,0.191c1.14,0,2.239-0.173,3.275-0.488
			C29.099,118.01,25.716,113.729,25.716,108.645z"/>
	</g>
	<path class="st2" d="M110.67,43.63h-56.12c-7.098,0-12.852,5.754-12.852,12.852v52.163c0,6.208-5.033,11.241-11.241,11.241h86.304
		c6.207,0,11.239-5.032,11.239-11.239V43.63H110.67z"/>
	<path class="st1" d="M150.481,215.645v-52.163c0-7.098,5.754-12.852,12.852-12.852h56.12l-8.782-11.567h-26.989l-12.852-13.921
		h-29.978c-7.098,0-12.852,5.754-12.852,12.852v77.651c0,5.517,3.977,10.096,9.219,11.049c0.657,0.119,1.33,0.191,2.021,0.191h0
		C145.449,226.885,150.481,221.853,150.481,215.645z"/>
	<path class="st4" d="M219.453,150.63h-56.12c-7.098,0-12.852,5.754-12.852,12.852v52.163c0,6.208-5.033,11.241-11.241,11.241
		h86.304c6.207,0,11.239-5.032,11.239-11.239V150.63H219.453z"/>
	<g>
		<path class="st5" d="M230.284,150.63v65.016c0,6.207-5.032,11.239-11.239,11.239h6.5c6.207,0,11.239-5.032,11.239-11.239V150.63
			H230.284z"/>
	</g>
	<path class="st4" d="M100.602,183.758H76.497v-24.326l4.766,4.766c0.977,0.976,2.256,1.464,3.536,1.464s2.559-0.488,3.536-1.464
		c1.953-1.953,1.953-5.119,0-7.071l-13.301-13.301c-1.953-1.952-5.118-1.952-7.071,0L54.66,157.126
		c-1.953,1.953-1.953,5.119,0,7.071c1.953,1.952,5.118,1.952,7.071,0l4.766-4.766v29.326c0,2.761,2.239,5,5,5h29.105
		c2.761,0,5-2.239,5-5S103.363,183.758,100.602,183.758z"/>
	<path class="st2" d="M201.34,100.971c-1.953-1.952-5.118-1.952-7.071,0l-4.766,4.766V76.411c0-2.761-2.239-5-5-5h-29.105
		c-2.761,0-5,2.239-5,5s2.239,5,5,5h24.105v24.326l-4.766-4.766c-1.953-1.952-5.118-1.952-7.071,0c-1.953,1.953-1.953,5.119,0,7.071
		l13.301,13.301c0.977,0.976,2.256,1.464,3.536,1.464s2.559-0.488,3.536-1.464l13.301-13.301
		C203.293,106.089,203.293,102.923,201.34,100.971z"/>
	<g>
		<path class="st8" d="M28.167,121.169c0.797,0.146,1.546,0.216,2.291,0.216h86.304c7.024,0,12.739-5.714,12.739-12.739V43.63
			c0-0.829-0.671-1.5-1.5-1.5h-16.585l-8.332-10.974c-0.284-0.374-0.726-0.593-1.195-0.593H75.555L63.148,17.124
			c-0.284-0.308-0.684-0.482-1.102-0.482H32.068c-7.914,0-14.352,6.438-14.352,14.352v77.651
			C17.716,114.801,22.111,120.068,28.167,121.169z M126.5,108.646c0,5.37-4.369,9.739-9.739,9.739h-78.1
			c2.772-2.339,4.537-5.838,4.537-9.741V56.482c0-6.26,5.092-11.352,11.352-11.352H126.5V108.646z M20.716,30.994
			c0-6.26,5.092-11.352,11.352-11.352H61.39l12.407,13.439c0.284,0.308,0.684,0.482,1.102,0.482h26.245l6.504,8.566H54.549
			c-7.914,0-14.352,6.438-14.352,14.352v52.163c0,5.371-4.37,9.741-9.741,9.741c-0.562,0-1.135-0.055-1.753-0.167
			c-4.628-0.842-7.988-4.868-7.988-9.574V30.994z"/>
		<path class="st8" d="M71.497,195.258h29.105c3.584,0,6.5-2.916,6.5-6.5s-2.916-6.5-6.5-6.5H77.997v-19.205l2.205,2.206
			c1.228,1.228,2.86,1.903,4.596,1.903s3.368-0.676,4.596-1.904c2.535-2.534,2.535-6.658,0-9.192l-13.301-13.302
			c-2.534-2.533-6.658-2.533-9.192,0l-13.301,13.301c-2.535,2.534-2.535,6.658,0,9.193c2.534,2.533,6.658,2.533,9.192,0l2.205-2.205
			v25.705C64.997,192.342,67.913,195.258,71.497,195.258z M60.67,163.137c-1.364,1.364-3.586,1.364-4.95,0
			c-0.661-0.661-1.025-1.54-1.025-2.475s0.364-1.814,1.025-2.475l13.301-13.301c1.364-1.364,3.586-1.364,4.95,0l13.301,13.301
			c0.661,0.661,1.025,1.54,1.025,2.475s-0.364,1.814-1.025,2.475c-1.322,1.322-3.628,1.322-4.95,0l-4.766-4.766
			c-0.429-0.429-1.073-0.559-1.635-0.325c-0.561,0.232-0.926,0.779-0.926,1.386v24.326c0,0.829,0.671,1.5,1.5,1.5h24.105
			c1.93,0,3.5,1.57,3.5,3.5s-1.57,3.5-3.5,3.5H71.497c-1.93,0-3.5-1.57-3.5-3.5v-29.326c0-0.606-0.365-1.154-0.926-1.386
			c-0.186-0.077-0.381-0.114-0.574-0.114c-0.391,0-0.774,0.152-1.061,0.439L60.67,163.137z"/>
		<path class="st8" d="M155.398,82.911h22.605v19.205l-2.205-2.206c-2.534-2.533-6.658-2.533-9.192,0
			c-2.535,2.534-2.535,6.658,0,9.192l13.301,13.302c1.228,1.228,2.86,1.903,4.596,1.903s3.368-0.676,4.596-1.904l13.301-13.301
			c2.535-2.534,2.535-6.658,0-9.192v0c-2.534-2.533-6.658-2.533-9.192,0l-2.205,2.205V76.411c0-3.584-2.916-6.5-6.5-6.5h-29.105
			c-3.584,0-6.5,2.916-6.5,6.5S151.814,82.911,155.398,82.911z M155.398,72.911h29.105c1.93,0,3.5,1.57,3.5,3.5v29.326
			c0,0.607,0.365,1.154,0.926,1.386c0.561,0.233,1.207,0.104,1.635-0.325l4.766-4.765c1.364-1.364,3.586-1.364,4.95,0
			c1.364,1.365,1.365,3.585,0,4.95l-13.301,13.301c-1.322,1.322-3.628,1.322-4.95,0l-13.301-13.301
			c-0.661-0.661-1.025-1.54-1.025-2.475s0.364-1.814,1.025-2.475c0.682-0.682,1.579-1.023,2.475-1.023s1.793,0.341,2.475,1.023
			l4.766,4.766c0.429,0.429,1.073,0.559,1.635,0.325c0.561-0.232,0.926-0.779,0.926-1.386V81.411c0-0.829-0.671-1.5-1.5-1.5h-24.105
			c-1.93,0-3.5-1.57-3.5-3.5S153.469,72.911,155.398,72.911z"/>
		<path class="st8" d="M27.323,236.358H9.32c-0.829,0-1.5,0.671-1.5,1.5s0.671,1.5,1.5,1.5h18.003c0.829,0,1.5-0.671,1.5-1.5
			S28.152,236.358,27.323,236.358z"/>
		<path class="st8" d="M246.68,236.358h-18.003c-0.829,0-1.5,0.671-1.5,1.5s0.671,1.5,1.5,1.5h18.003c0.829,0,1.5-0.671,1.5-1.5
			S247.509,236.358,246.68,236.358z"/>
		<path class="st8" d="M218.479,236.358H37.521c-0.829,0-1.5,0.671-1.5,1.5s0.671,1.5,1.5,1.5h180.959c0.829,0,1.5-0.671,1.5-1.5
			S219.308,236.358,218.479,236.358z"/>
		<path class="st8" d="M248.18,226.885c0-0.829-0.671-1.5-1.5-1.5h-12.941c2.775-2.339,4.544-5.834,4.544-9.739V150.63
			c0-0.829-0.671-1.5-1.5-1.5h-16.585l-8.332-10.974c-0.284-0.374-0.726-0.593-1.195-0.593h-26.333l-12.407-13.439
			c-0.284-0.308-0.684-0.482-1.102-0.482h-29.978c-7.914,0-14.352,6.438-14.352,14.352v77.651c0,3.87,1.739,7.387,4.533,9.741H9.32
			c-0.829,0-1.5,0.671-1.5,1.5s0.671,1.5,1.5,1.5h129.921h86.304h21.136C247.509,228.385,248.18,227.714,248.18,226.885z
			 M137.488,225.218c-4.628-0.842-7.988-4.868-7.988-9.574v-77.651c0-6.26,5.092-11.352,11.352-11.352h29.321l12.407,13.439
			c0.284,0.308,0.684,0.482,1.102,0.482h26.245l6.504,8.566h-53.098c-7.914,0-14.352,6.438-14.352,14.352v52.163
			c0,5.371-4.37,9.741-9.74,9.741C138.679,225.385,138.105,225.331,137.488,225.218z M147.444,225.385
			c2.772-2.339,4.537-5.838,4.537-9.741v-52.163c0-6.26,5.092-11.352,11.352-11.352h71.951v63.517c0,5.37-4.369,9.739-9.739,9.739
			H147.444z"/>
	</g>
</g>
</svg>
