<?xml version="1.0" encoding="utf-8"?>
<!-- Generator: Adobe Illustrator 23.0.3, SVG Export Plug-In . SVG Version: 6.00 Build 0)  -->
<svg version="1.1" id="Layer_1" xmlns="http://www.w3.org/2000/svg" xmlns:xlink="http://www.w3.org/1999/xlink" x="0px" y="0px"
	 viewBox="0 0 256 256" style="enable-background:new 0 0 256 256;" xml:space="preserve">
<style type="text/css">
	.st0{fill:#F87023;}
	.st1{fill:#F8AF23;}
	.st2{fill:#CECECE;}
	.st3{fill:#AFAFAF;}
	.st4{fill:#63BCE7;}
	.st5{fill:#63E2E7;}
	.st6{fill:#9E9E9E;}
	.st7{fill:#707070;}
	.st8{fill:#3F3679;}
	.st9{fill:#E2E2E2;}
	.st10{fill:#6377E7;}
	.st11{fill:#F46275;}
	.st12{fill:#F8D323;}
	.st13{fill:#F43075;}
	.st14{fill:#F48875;}
</style>
<g>
	<path class="st4" d="M176.327,108.756c0,18.224,14.774,32.998,32.998,32.998s32.998-14.774,32.998-32.998H176.327z"/>
	<g>
		<path class="st5" d="M235.822,108.756c0,17.127-13.049,31.204-29.748,32.837c1.069,0.104,2.153,0.161,3.25,0.161
			c18.224,0,32.998-14.774,32.998-32.998H235.822z"/>
	</g>
	<path class="st4" d="M13.678,95.162c0,18.224,14.774,32.998,32.998,32.998s32.998-14.774,32.998-32.998H13.678z"/>
	<g>
		<path class="st10" d="M20.178,95.162h-6.5c0,18.224,14.774,32.998,32.998,32.998c1.097,0,2.181-0.056,3.25-0.161
			C33.227,126.366,20.178,112.289,20.178,95.162z"/>
	</g>
	<path class="st2" d="M173.843,205.213H82.157v-20.202c0-8.27,6.704-14.974,14.974-14.974h61.738c8.27,0,14.974,6.704,14.974,14.974
		V205.213z"/>
	<g>
		<path class="st3" d="M103.631,170.037h-6.5c-8.27,0-14.974,6.704-14.974,14.974v20.202h6.5v-20.202
			C88.657,176.741,95.361,170.037,103.631,170.037z"/>
	</g>
	<g>
		<path class="st9" d="M152.369,170.037h6.5c8.27,0,14.974,6.704,14.974,14.974v20.202h-6.5v-20.202
			C167.343,176.741,160.639,170.037,152.369,170.037z"/>
	</g>
	<rect x="120.497" y="41.604" class="st6" width="15.006" height="128.433"/>
	<g>
		<rect x="120.497" y="41.604" class="st7" width="6.5" height="128.433"/>
	</g>
	<circle class="st1" cx="128" cy="41.604" r="19.847"/>
	<g>
		<path class="st0" d="M114.653,41.604c0-9.852,7.186-18.004,16.597-19.558c-1.06-0.175-2.141-0.289-3.25-0.289
			c-10.961,0-19.847,8.886-19.847,19.847c0,10.961,8.886,19.847,19.847,19.847c1.109,0,2.19-0.114,3.25-0.289
			C121.839,59.608,114.653,51.456,114.653,41.604z"/>
	</g>
	<circle class="st11" cx="128" cy="41.604" r="8.713"/>
	<path class="st6" d="M180.971,223.27H75.029c-4.986,0-9.029-4.042-9.029-9.029v0c0-4.986,4.042-9.029,9.029-9.029h105.942
		c4.986,0,9.029,4.042,9.029,9.029v0C190,219.228,185.958,223.27,180.971,223.27z"/>
	<g>
		<path class="st7" d="M72.5,214.242L72.5,214.242c0-4.986,4.042-9.029,9.029-9.029h-6.5c-4.986,0-9.029,4.042-9.029,9.029v0
			c0,4.986,4.042,9.029,9.029,9.029h6.5C76.542,223.27,72.5,219.228,72.5,214.242z"/>
	</g>
	<g>
		<path class="st2" d="M183.5,214.242L183.5,214.242c0-4.986-4.042-9.029-9.029-9.029h6.5c4.986,0,9.029,4.042,9.029,9.029v0
			c0,4.986-4.042,9.029-9.029,9.029h-6.5C179.458,223.27,183.5,219.228,183.5,214.242z"/>
	</g>
	<path class="st1" d="M154.938,192.5h-53.875c-2.681,0-4.875-2.194-4.875-4.875l0,0c0-2.681,2.194-4.875,4.875-4.875h53.875
		c2.681,0,4.875,2.194,4.875,4.875l0,0C159.812,190.306,157.619,192.5,154.938,192.5z"/>
	<path class="st11" d="M195.552,175.772l13.385,13.385c0.214,0.214,0.56,0.214,0.774,0l13.385-13.385
		c0.345-0.345,0.101-0.934-0.387-0.934h-4.582c-0.302,0-0.547-0.245-0.547-0.547v-22.987c0-0.302-0.245-0.547-0.547-0.547h-15.416
		c-0.302,0-0.547,0.245-0.547,0.547v22.987c0,0.302-0.245,0.547-0.547,0.547h-4.582
		C195.452,174.838,195.208,175.427,195.552,175.772z"/>
	<g>
		<path class="st14" d="M222.709,174.838h-4.582c-0.302,0-0.547-0.245-0.547-0.547v-22.987c0-0.302-0.245-0.547-0.547-0.547h-6.5
			c0.302,0,0.547,0.245,0.547,0.547v22.987c0,0.302,0.245,0.547,0.547,0.547h4.582c0.488,0,0.732,0.589,0.387,0.934l-10.522,10.522
			l2.863,2.863c0.214,0.214,0.56,0.214,0.774,0l13.385-13.385C223.441,175.427,223.197,174.838,222.709,174.838z"/>
	</g>
	<g>
		<path class="st8" d="M138.213,41.604c0-5.631-4.582-10.213-10.213-10.213s-10.213,4.582-10.213,10.213
			c0,5.632,4.582,10.213,10.213,10.213S138.213,47.235,138.213,41.604z M120.787,41.604c0-3.977,3.236-7.213,7.213-7.213
			s7.213,3.236,7.213,7.213c0,3.978-3.236,7.213-7.213,7.213S120.787,45.581,120.787,41.604z"/>
		<path class="st8" d="M27.323,232.743H9.32c-0.829,0-1.5,0.671-1.5,1.5s0.671,1.5,1.5,1.5h18.003c0.829,0,1.5-0.671,1.5-1.5
			S28.152,232.743,27.323,232.743z"/>
		<path class="st8" d="M246.68,232.743h-18.003c-0.829,0-1.5,0.671-1.5,1.5s0.671,1.5,1.5,1.5h18.003c0.829,0,1.5-0.671,1.5-1.5
			S247.509,232.743,246.68,232.743z"/>
		<path class="st8" d="M218.479,232.743H37.521c-0.829,0-1.5,0.671-1.5,1.5s0.671,1.5,1.5,1.5h180.959c0.829,0,1.5-0.671,1.5-1.5
			S219.308,232.743,218.479,232.743z"/>
		<path class="st8" d="M9.32,224.771h65.709h105.942h65.709c0.829,0,1.5-0.671,1.5-1.5s-0.671-1.5-1.5-1.5h-58.363
			c1.961-1.913,3.183-4.579,3.183-7.529c0-5.806-4.723-10.529-10.529-10.529h-5.628v-18.702c0-9.084-7.39-16.474-16.474-16.474
			h-21.866V60.932c6.281-2.938,10.893-8.835,12.042-15.896l57.855,4.836l-31.888,58.163l0.004,0.007
			c-0.116,0.213-0.189,0.454-0.189,0.714c0,19.022,15.476,34.498,34.498,34.498c19.022,0,34.498-15.476,34.498-34.498
			c0-0.26-0.072-0.501-0.189-0.714l0.004-0.007L210.64,47.848c-0.242-0.441-0.689-0.731-1.19-0.773l-60.125-5.025
			c0.003-0.15,0.023-0.296,0.023-0.446c0-11.771-9.576-21.347-21.347-21.347c-10.716,0-19.587,7.944-21.096,18.247L46.8,33.48
			c-0.592-0.058-1.156,0.253-1.44,0.773L12.362,94.44l0.004,0.007c-0.116,0.213-0.189,0.454-0.189,0.714
			c0,19.022,15.476,34.498,34.498,34.498c19.022,0,34.498-15.476,34.498-34.498c0-0.26-0.072-0.501-0.189-0.714l0.004-0.007
			L49.333,36.703l57.325,4.791c0,0.037-0.006,0.073-0.006,0.11c0,8.552,5.066,15.924,12.344,19.329v107.604H97.131
			c-9.084,0-16.474,7.39-16.474,16.474v18.702h-5.628c-5.806,0-10.529,4.723-10.529,10.529c0,2.949,1.223,5.615,3.183,7.529H9.32
			c-0.829,0-1.5,0.671-1.5,1.5S8.491,224.771,9.32,224.771z M239.789,107.256H178.86l30.465-55.566L239.789,107.256z
			 M209.325,140.254c-16.866,0-30.678-13.323-31.463-29.998h62.925C240.002,126.931,226.19,140.254,209.325,140.254z M46.675,38.095
			L77.14,93.662H16.211L46.675,38.095z M46.675,126.659c-16.865,0-30.677-13.323-31.462-29.998h62.925
			C77.353,113.336,63.541,126.659,46.675,126.659z M109.653,41.604c0-10.116,8.23-18.347,18.347-18.347s18.347,8.23,18.347,18.347
			c0,10.117-8.23,18.347-18.347,18.347S109.653,51.72,109.653,41.604z M121.997,62.077c1.907,0.56,3.918,0.874,6.003,0.874
			s4.096-0.314,6.003-0.874v106.46h-12.006V62.077z M83.657,185.011c0-7.43,6.044-13.474,13.474-13.474h23.366h15.006h23.366
			c7.43,0,13.474,6.044,13.474,13.474v18.702H83.657V185.011z M67.5,214.242c0-4.151,3.377-7.529,7.529-7.529h7.128h91.686h7.128
			c4.151,0,7.529,3.377,7.529,7.529s-3.377,7.529-7.529,7.529H75.029C70.877,221.771,67.5,218.393,67.5,214.242z"/>
		<path class="st8" d="M154.937,181.25h-53.875c-3.515,0-6.375,2.86-6.375,6.375c0,3.515,2.86,6.375,6.375,6.375h53.875
			c3.515,0,6.375-2.86,6.375-6.375S158.453,181.25,154.937,181.25z M154.937,191h-53.875c-1.861,0-3.375-1.514-3.375-3.375
			s1.514-3.375,3.375-3.375h53.875c1.861,0,3.375,1.514,3.375,3.375C158.312,189.486,156.798,191,154.937,191z"/>
		<path class="st8" d="M217.032,149.256h-15.416c-1.129,0-2.047,0.918-2.047,2.047v22.035h-3.63c-0.831,0-1.574,0.496-1.892,1.264
			c-0.318,0.768-0.144,1.644,0.444,2.231l13.386,13.387c0.399,0.397,0.922,0.597,1.446,0.597s1.048-0.199,1.448-0.598l13.385-13.385
			c0.588-0.587,0.762-1.463,0.444-2.231c-0.318-0.768-1.061-1.264-1.892-1.264h-3.63v-22.035
			C219.08,150.174,218.161,149.256,217.032,149.256z M220.41,176.338l-11.085,11.085l-11.085-11.085h2.283
			c1.129,0,2.047-0.918,2.047-2.047v-22.035h13.51v22.035c0,1.129,0.918,2.047,2.047,2.047H220.41z"/>
	</g>
</g>
</svg>
