<?xml version="1.0" encoding="utf-8"?>
<!-- Generator: Adobe Illustrator 23.0.3, SVG Export Plug-In . SVG Version: 6.00 Build 0)  -->
<svg version="1.1" id="Layer_1" xmlns="http://www.w3.org/2000/svg" xmlns:xlink="http://www.w3.org/1999/xlink" x="0px" y="0px"
	 viewBox="0 0 256 256" style="enable-background:new 0 0 256 256;" xml:space="preserve">
<style type="text/css">
	.st0{fill:#F87023;}
	.st1{fill:#F8AF23;}
	.st2{fill:#CECECE;}
	.st3{fill:#AFAFAF;}
	.st4{fill:#63BCE7;}
	.st5{fill:#63E2E7;}
	.st6{fill:#9E9E9E;}
	.st7{fill:#707070;}
	.st8{fill:#3F3679;}
	.st9{fill:#E2E2E2;}
	.st10{fill:#6377E7;}
	.st11{fill:#F46275;}
	.st12{fill:#F8D323;}
	.st13{fill:#F43075;}
	.st14{fill:#F48875;}
</style>
<g>
	<circle class="st6" cx="53.477" cy="167.388" r="20.871"/>
	<g>
		<path class="st7" d="M39.106,167.388c0-10.418,7.642-19.029,17.621-20.593c-1.062-0.166-2.142-0.278-3.25-0.278
			c-11.527,0-20.871,9.344-20.871,20.871c0,11.527,9.344,20.871,20.871,20.871c1.108,0,2.188-0.112,3.25-0.278
			C46.748,186.417,39.106,177.807,39.106,167.388z"/>
	</g>
	<path class="st11" d="M81.183,234.64H25.772v-20.728c0-14.167,11.485-25.652,25.652-25.652h4.107
		c14.167,0,25.652,11.485,25.652,25.652V234.64z"/>
	<g>
		<path class="st13" d="M56.727,188.29c-0.397-0.018-0.795-0.03-1.197-0.03h-4.107c-14.167,0-25.652,11.485-25.652,25.652v20.728
			h6.5v-20.728C32.272,200.146,43.116,188.915,56.727,188.29z"/>
	</g>
	<circle class="st6" cx="128" cy="167.388" r="20.871"/>
	<path class="st4" d="M155.705,234.64h-55.411v-20.728c0-14.167,11.485-25.652,25.652-25.652h4.107
		c14.167,0,25.652,11.485,25.652,25.652V234.64z"/>
	<circle class="st6" cx="202.523" cy="167.388" r="20.871"/>
	<g>
		<path class="st2" d="M202.523,146.517c-1.108,0-2.188,0.112-3.25,0.278c9.979,1.564,17.621,10.175,17.621,20.593
			c0,10.418-7.642,19.029-17.621,20.593c1.062,0.166,2.142,0.278,3.25,0.278c11.527,0,20.871-9.344,20.871-20.871
			C223.394,155.862,214.05,146.517,202.523,146.517z"/>
	</g>
	<path class="st1" d="M230.228,234.64h-55.411v-20.728c0-14.167,11.485-25.652,25.652-25.652h4.107
		c14.167,0,25.652,11.485,25.652,25.652V234.64z"/>
	<g>
		<path class="st12" d="M204.576,188.26h-4.107c-0.401,0-0.8,0.012-1.197,0.03c13.611,0.625,24.455,11.856,24.455,25.622v20.728h6.5
			v-20.728C230.228,199.744,218.743,188.26,204.576,188.26z"/>
	</g>
	<polygon class="st2" points="169.451,29.008 150.83,10.388 86.549,10.388 86.549,123.946 169.451,123.946 	"/>
	<g>
		<polygon class="st9" points="150.83,10.387 144.33,10.387 162.951,29.008 162.951,123.946 169.451,123.946 169.451,29.008 		"/>
	</g>
	<g>
		<rect x="86.549" y="10.387" class="st3" width="6.5" height="113.558"/>
	</g>
	<g>
		<rect x="97.521" y="39.798" class="st1" width="8.962" height="8.962"/>
		<rect x="114.479" y="39.798" class="st1" width="44" height="8.962"/>
	</g>
	<g>
		<rect x="97.521" y="58.204" class="st1" width="8.962" height="8.962"/>
		<rect x="114.479" y="58.204" class="st1" width="44" height="8.962"/>
	</g>
	<g>
		<rect x="97.521" y="76.611" class="st1" width="8.962" height="8.962"/>
		<rect x="114.479" y="76.611" class="st1" width="44" height="8.962"/>
	</g>
	<g>
		<rect x="97.521" y="95.017" class="st1" width="8.962" height="8.962"/>
		<rect x="114.479" y="95.017" class="st1" width="44" height="8.962"/>
	</g>
	<g>
		<path class="st8" d="M27.323,244.112H9.32c-0.828,0-1.5,0.671-1.5,1.5s0.672,1.5,1.5,1.5h18.003c0.828,0,1.5-0.671,1.5-1.5
			S28.151,244.112,27.323,244.112z"/>
		<path class="st8" d="M246.68,244.112h-18.003c-0.828,0-1.5,0.671-1.5,1.5s0.672,1.5,1.5,1.5h18.003c0.828,0,1.5-0.671,1.5-1.5
			S247.508,244.112,246.68,244.112z"/>
		<path class="st8" d="M218.479,244.112H37.521c-0.828,0-1.5,0.671-1.5,1.5s0.672,1.5,1.5,1.5h180.959c0.828,0,1.5-0.671,1.5-1.5
			S219.308,244.112,218.479,244.112z"/>
		<path class="st8" d="M9.32,236.14h16.451h55.411h19.112h55.41h19.112h55.411h16.451c0.828,0,1.5-0.671,1.5-1.5s-0.672-1.5-1.5-1.5
			h-14.951v-19.228c0-12.473-8.457-23.002-19.936-26.171c7.721-3.531,13.101-11.322,13.101-20.352
			c0-11.831-9.233-21.54-20.871-22.315V77.167c0-6.341-5.159-11.5-11.5-11.5h-21.571V29.008c0-0.398-0.158-0.779-0.439-1.061
			L151.891,9.327c-0.281-0.281-0.663-0.439-1.061-0.439H86.549c-0.828,0-1.5,0.671-1.5,1.5v55.279H63.478
			c-6.341,0-11.5,5.159-11.5,11.5v67.907c-11.638,0.775-20.871,10.484-20.871,22.315c0,9.029,5.38,16.821,13.101,20.352
			c-11.479,3.169-19.936,13.698-19.936,26.171v19.228H9.32c-0.828,0-1.5,0.671-1.5,1.5S8.492,236.14,9.32,236.14z M101.795,233.14
			v-19.228c0-13.318,10.834-24.152,24.151-24.152h4.107c13.317,0,24.151,10.834,24.151,24.152v19.228H101.795z M128,148.018
			c10.682,0,19.371,8.69,19.371,19.371s-8.689,19.371-19.371,19.371s-19.371-8.689-19.371-19.371S117.318,148.018,128,148.018z
			 M204.576,189.759c13.317,0,24.152,10.834,24.152,24.152v19.228h-52.411v-19.228c0-13.318,10.835-24.152,24.152-24.152H204.576z
			 M221.894,167.389c0,10.681-8.689,19.371-19.371,19.371s-19.371-8.689-19.371-19.371s8.689-19.371,19.371-19.371
			S221.894,156.708,221.894,167.389z M192.522,68.667c4.687,0,8.5,3.813,8.5,8.5v67.907c-11.638,0.775-20.871,10.484-20.871,22.315
			c0,9.03,5.381,16.821,13.102,20.352c-11.479,3.169-19.936,13.698-19.936,26.171v19.228h-16.112v-19.228
			c0-12.473-8.457-23.002-19.935-26.171c7.721-3.531,13.101-11.322,13.101-20.352c0-11.831-9.233-21.54-20.871-22.315v-19.628
			h39.951c0.828,0,1.5-0.671,1.5-1.5V68.667H192.522z M152.33,14.009l13.5,13.5h-13.5V14.009z M88.049,11.888h61.281v17.121
			c0,0.829,0.672,1.5,1.5,1.5h17.121v91.938H88.049V11.888z M63.478,68.667h21.571v55.279c0,0.829,0.672,1.5,1.5,1.5H126.5v19.628
			c-11.638,0.775-20.871,10.484-20.871,22.315c0,9.029,5.38,16.821,13.101,20.352c-11.479,3.169-19.935,13.698-19.935,26.171v19.228
			H82.683v-19.228c0-12.473-8.457-23.002-19.936-26.171c7.721-3.531,13.102-11.322,13.102-20.352
			c0-11.831-9.233-21.54-20.871-22.315V77.167C54.978,72.479,58.791,68.667,63.478,68.667z M34.106,167.389
			c0-10.681,8.689-19.371,19.371-19.371s19.371,8.69,19.371,19.371s-8.689,19.371-19.371,19.371S34.106,178.07,34.106,167.389z
			 M27.271,213.912c0-13.318,10.835-24.152,24.152-24.152h4.106c13.317,0,24.152,10.834,24.152,24.152v19.228H27.271V213.912z"/>
		<path class="st8" d="M97.521,50.26h8.963c0.828,0,1.5-0.671,1.5-1.5v-8.962c0-0.829-0.672-1.5-1.5-1.5h-8.963
			c-0.828,0-1.5,0.671-1.5,1.5v8.962C96.021,49.589,96.692,50.26,97.521,50.26z M99.021,41.298h5.963v5.962h-5.963V41.298z"/>
		<path class="st8" d="M114.479,50.26h44c0.828,0,1.5-0.671,1.5-1.5v-8.962c0-0.829-0.672-1.5-1.5-1.5h-44
			c-0.828,0-1.5,0.671-1.5,1.5v8.962C112.979,49.589,113.651,50.26,114.479,50.26z M115.979,41.298h41v5.962h-41V41.298z"/>
		<path class="st8" d="M97.521,68.667h8.963c0.828,0,1.5-0.671,1.5-1.5v-8.962c0-0.829-0.672-1.5-1.5-1.5h-8.963
			c-0.828,0-1.5,0.671-1.5,1.5v8.962C96.021,67.995,96.692,68.667,97.521,68.667z M99.021,59.705h5.963v5.962h-5.963V59.705z"/>
		<path class="st8" d="M114.479,68.667h44c0.828,0,1.5-0.671,1.5-1.5v-8.962c0-0.829-0.672-1.5-1.5-1.5h-44
			c-0.828,0-1.5,0.671-1.5,1.5v8.962C112.979,67.995,113.651,68.667,114.479,68.667z M115.979,59.705h41v5.962h-41V59.705z"/>
		<path class="st8" d="M97.521,87.073h8.963c0.828,0,1.5-0.671,1.5-1.5v-8.962c0-0.829-0.672-1.5-1.5-1.5h-8.963
			c-0.828,0-1.5,0.671-1.5,1.5v8.962C96.021,86.402,96.692,87.073,97.521,87.073z M99.021,78.111h5.963v5.962h-5.963V78.111z"/>
		<path class="st8" d="M114.479,87.073h44c0.828,0,1.5-0.671,1.5-1.5v-8.962c0-0.829-0.672-1.5-1.5-1.5h-44
			c-0.828,0-1.5,0.671-1.5,1.5v8.962C112.979,86.402,113.651,87.073,114.479,87.073z M115.979,78.111h41v5.962h-41V78.111z"/>
		<path class="st8" d="M97.521,105.479h8.963c0.828,0,1.5-0.671,1.5-1.5v-8.962c0-0.829-0.672-1.5-1.5-1.5h-8.963
			c-0.828,0-1.5,0.671-1.5,1.5v8.962C96.021,104.808,96.692,105.479,97.521,105.479z M99.021,96.517h5.963v5.962h-5.963V96.517z"/>
		<path class="st8" d="M114.479,105.479h44c0.828,0,1.5-0.671,1.5-1.5v-8.962c0-0.829-0.672-1.5-1.5-1.5h-44
			c-0.828,0-1.5,0.671-1.5,1.5v8.962C112.979,104.808,113.651,105.479,114.479,105.479z M115.979,96.517h41v5.962h-41V96.517z"/>
	</g>
</g>
</svg>
