<?xml version="1.0" encoding="utf-8"?>
<!-- Generator: Adobe Illustrator 23.0.3, SVG Export Plug-In . SVG Version: 6.00 Build 0)  -->
<svg version="1.1" id="Layer_1" xmlns="http://www.w3.org/2000/svg" xmlns:xlink="http://www.w3.org/1999/xlink" x="0px" y="0px"
	 viewBox="0 0 256 256" style="enable-background:new 0 0 256 256;" xml:space="preserve">
<style type="text/css">
	.st0{fill:#F87023;}
	.st1{fill:#F8AF23;}
	.st2{fill:#CECECE;}
	.st3{fill:#AFAFAF;}
	.st4{fill:#63BCE7;}
	.st5{fill:#63E2E7;}
	.st6{fill:#9E9E9E;}
	.st7{fill:#707070;}
	.st8{fill:#3F3679;}
	.st9{fill:#E2E2E2;}
	.st10{fill:#6377E7;}
	.st11{fill:#F46275;}
	.st12{fill:#F8D323;}
	.st13{fill:#F43075;}
	.st14{fill:#F48875;}
</style>
<g>
	<g>
		<path class="st4" d="M96.763,17.755c-10.566,6.861-35.277,21.237-65.455,27.612c-4.754,1.004-8.202,5.122-8.202,9.981l0,81.504
			c0,8.568,1.281,17.089,3.801,25.278v0c5.478,17.804,16.592,33.347,31.669,44.289l40.121,29.116c2.145,1.557,5.048,1.557,7.193,0
			l40.121-29.116c15.076-10.941,26.191-26.484,31.669-44.289v0c2.52-8.19,3.801-16.71,3.801-25.278V55.348
			c0-4.859-3.448-8.976-8.202-9.981c-30.178-6.375-54.889-20.751-65.455-27.612C104.452,15.566,100.134,15.566,96.763,17.755z"/>
		<g>
			<path class="st10" d="M65.076,206.418c-15.076-10.941-26.191-26.484-31.669-44.289l0,0c-2.52-8.19-3.801-16.71-3.801-25.278
				V45.88c-3.853,1.524-6.5,5.211-6.5,9.468v81.504c0,8.568,1.281,17.089,3.801,25.278l0,0
				c5.478,17.804,16.592,33.347,31.669,44.289l40.12,29.116c2.034,1.476,4.761,1.546,6.866,0.222
				c-0.115-0.072-0.254-0.142-0.366-0.222L65.076,206.418z"/>
		</g>
		<g>
			<path class="st5" d="M139.51,206.418c15.076-10.941,26.191-26.484,31.669-44.289l0,0c2.52-8.19,3.801-16.71,3.801-25.278V45.88
				c3.853,1.524,6.5,5.211,6.5,9.468v81.504c0,8.568-1.281,17.089-3.801,25.278l0,0c-5.478,17.804-16.592,33.347-31.669,44.289
				l-40.12,29.116c-2.034,1.476-4.763,1.544-6.868,0.221c0.115-0.072,0.256-0.14,0.368-0.221L139.51,206.418z"/>
		</g>
		<g>
			<g>
				<path class="st2" d="M144.181,141.774H60.405c-2.717,0-4.919-2.202-4.919-4.919v-27.126c0-2.717,2.202-4.919,4.919-4.919h83.776
					c2.717,0,4.919,2.202,4.919,4.919v27.126C149.1,139.571,146.898,141.774,144.181,141.774z"/>
			</g>
			<g>
				<path class="st2" d="M144.181,178.737H60.405c-2.717,0-4.919-2.202-4.919-4.919v-27.126c0-2.717,2.202-4.919,4.919-4.919h83.776
					c2.717,0,4.919,2.202,4.919,4.919v27.126C149.1,176.535,146.898,178.737,144.181,178.737z"/>
			</g>
			<g>
				<path class="st2" d="M144.181,104.81H60.405c-2.717,0-4.919-2.202-4.919-4.919V72.766c0-2.717,2.202-4.919,4.919-4.919h83.776
					c2.717,0,4.919,2.202,4.919,4.919v27.126C149.1,102.608,146.898,104.81,144.181,104.81z"/>
			</g>
			<g>
				<path class="st1" d="M108.724,91.946H67.37c-0.372,0-0.676-0.304-0.676-0.676v-9.882c0-0.372,0.304-0.676,0.676-0.676h41.354
					c0.372,0,0.676,0.304,0.676,0.676v9.882C109.399,91.642,109.095,91.946,108.724,91.946z"/>
				<rect x="122.549" y="80.712" class="st1" width="15.051" height="11.234"/>
			</g>
			<g>
				<path class="st1" d="M108.724,128.909H67.37c-0.372,0-0.676-0.304-0.676-0.676v-9.882c0-0.372,0.304-0.676,0.676-0.676h41.354
					c0.372,0,0.676,0.304,0.676,0.676v9.882C109.399,128.605,109.095,128.909,108.724,128.909z"/>
				<rect x="122.549" y="117.675" class="st1" width="15.051" height="11.234"/>
			</g>
			<g>
				<path class="st1" d="M108.724,165.872H67.37c-0.372,0-0.676-0.304-0.676-0.676v-9.882c0-0.372,0.304-0.676,0.676-0.676h41.354
					c0.372,0,0.676,0.304,0.676,0.676v9.882C109.399,165.568,109.095,165.872,108.724,165.872z"/>
				<rect x="122.549" y="154.638" class="st1" width="15.051" height="11.234"/>
			</g>
		</g>
		<circle class="st1" cx="181.48" cy="59.739" r="51.414"/>
		<g>
			<path class="st12" d="M181.48,8.325c-1.093,0-2.174,0.046-3.25,0.113c26.879,1.678,48.164,23.999,48.164,51.301
				c0,27.302-21.284,49.623-48.164,51.301c1.076,0.067,2.157,0.113,3.25,0.113c28.395,0,51.414-23.019,51.414-51.414
				S209.875,8.325,181.48,8.325z"/>
		</g>
		<g>
			<rect x="158.691" y="46.09" class="st2" width="45.578" height="45.856"/>
			<path class="st2" d="M198.653,43.486c0-9.469-7.704-17.173-17.173-17.173c-9.469,0-17.172,7.703-17.172,17.173v2.604h5.25v-2.604
				c0-6.584,5.338-11.922,11.922-11.922c6.585,0,11.922,5.338,11.922,11.922v2.604h5.25V43.486z"/>
			<g>
				<path class="st11" d="M186.543,53.401l-10.125,0c-4.483,0-8.117,3.634-8.117,8.117v22.737h26.36V61.518
					C194.66,57.035,191.026,53.401,186.543,53.401z"/>
				<path class="st7" d="M186.085,75.233l-1.648-6.807l0,0c0.66-0.693,1.066-1.631,1.066-2.664c0-2.134-1.73-3.864-3.864-3.864
					s-3.864,1.73-3.864,3.864c0,1.033,0.406,1.97,1.066,2.664l-1.648,6.807c-0.44,1.818,0.937,3.568,2.807,3.568h1.639h1.639
					C185.148,78.802,186.525,77.051,186.085,75.233z"/>
			</g>
		</g>
	</g>
	<g>
		<path class="st8" d="M108.724,79.212H67.37c-1.2,0-2.176,0.976-2.176,2.176v9.882c0,1.2,0.976,2.176,2.176,2.176h41.354
			c1.2,0,2.176-0.976,2.176-2.176v-9.882C110.899,80.188,109.924,79.212,108.724,79.212z M107.899,90.446H68.194v-8.234h39.705
			V90.446z"/>
		<path class="st8" d="M67.37,130.409h41.354c1.2,0,2.176-0.976,2.176-2.176v-9.882c0-1.2-0.976-2.176-2.176-2.176H67.37
			c-1.2,0-2.176,0.976-2.176,2.176v9.882C65.194,129.433,66.17,130.409,67.37,130.409z M68.194,119.175h39.705v8.233H68.194V119.175
			z"/>
		<path class="st8" d="M122.549,130.409H137.6c0.828,0,1.5-0.671,1.5-1.5v-11.233c0-0.829-0.672-1.5-1.5-1.5h-15.051
			c-0.828,0-1.5,0.671-1.5,1.5v11.233C121.049,129.737,121.721,130.409,122.549,130.409z M124.049,119.175H136.1v8.233h-12.051
			V119.175z"/>
		<path class="st8" d="M67.37,167.372h41.354c1.2,0,2.176-0.976,2.176-2.176v-9.882c0-1.2-0.976-2.176-2.176-2.176H67.37
			c-1.2,0-2.176,0.976-2.176,2.176v9.882C65.194,166.396,66.17,167.372,67.37,167.372z M68.194,156.138h39.705v8.234H68.194V156.138
			z"/>
		<path class="st8" d="M122.549,167.372H137.6c0.828,0,1.5-0.671,1.5-1.5v-11.234c0-0.829-0.672-1.5-1.5-1.5h-15.051
			c-0.828,0-1.5,0.671-1.5,1.5v11.234C121.049,166.701,121.721,167.372,122.549,167.372z M124.049,156.138H136.1v8.234h-12.051
			V156.138z"/>
		<path class="st8" d="M158.691,93.446h45.578c0.828,0,1.5-0.671,1.5-1.5V46.09c0-0.829-0.672-1.5-1.5-1.5h-4.117v-1.104
			c0-10.296-8.376-18.673-18.672-18.673s-18.673,8.376-18.673,18.673v1.104h-4.116c-0.828,0-1.5,0.671-1.5,1.5v45.856
			C157.191,92.774,157.863,93.446,158.691,93.446z M165.808,43.486c0-8.642,7.031-15.673,15.673-15.673s15.672,7.031,15.672,15.673
			v1.104h-2.25v-1.104c0-7.401-6.021-13.422-13.422-13.422c-7.401,0-13.423,6.021-13.423,13.422v1.104h-2.25V43.486z M171.058,44.59
			v-1.104c0-5.747,4.676-10.422,10.423-10.422s10.422,4.675,10.422,10.422v1.104H171.058z M160.191,47.59h4.116h5.25h23.845h5.25
			h4.117v42.856h-42.578V47.59z"/>
		<path class="st8" d="M186.543,51.9h-10.125c-5.303,0-9.617,4.314-9.617,9.618v22.737c0,0.829,0.672,1.5,1.5,1.5h26.359
			c0.828,0,1.5-0.671,1.5-1.5V61.518C196.16,56.215,191.846,51.9,186.543,51.9z M193.16,82.755h-23.359V61.518
			c0-3.649,2.969-6.618,6.617-6.618h10.125c3.648,0,6.617,2.969,6.617,6.618V82.755z"/>
		<path class="st8" d="M186.067,68.789c0.608-0.886,0.936-1.935,0.936-3.026c0-2.958-2.406-5.364-5.364-5.364
			s-5.364,2.406-5.364,5.364c0,1.092,0.327,2.14,0.935,3.026l-1.476,6.092c-0.318,1.317-0.021,2.682,0.817,3.747
			c0.838,1.064,2.095,1.674,3.448,1.674h3.278c1.354,0,2.612-0.611,3.449-1.675c0.838-1.064,1.135-2.43,0.816-3.746L186.067,68.789z
			 M184.369,76.771c-0.266,0.337-0.663,0.53-1.092,0.53h-3.278c-0.429,0-0.826-0.193-1.091-0.53
			c-0.266-0.337-0.359-0.769-0.259-1.186l1.648-6.807c0.12-0.496-0.021-1.018-0.372-1.387c-0.42-0.441-0.651-1.021-0.651-1.63
			c0-1.304,1.061-2.364,2.364-2.364s2.364,1.061,2.364,2.364c0,0.609-0.231,1.188-0.652,1.63c-0.352,0.369-0.492,0.892-0.372,1.387
			l1.648,6.807C184.728,76.003,184.634,76.435,184.369,76.771z"/>
		<path class="st8" d="M27.323,246.175H9.32c-0.828,0-1.5,0.671-1.5,1.5s0.672,1.5,1.5,1.5h18.003c0.828,0,1.5-0.671,1.5-1.5
			S28.151,246.175,27.323,246.175z"/>
		<path class="st8" d="M246.68,246.175h-18.003c-0.828,0-1.5,0.671-1.5,1.5s0.672,1.5,1.5,1.5h18.003c0.828,0,1.5-0.671,1.5-1.5
			S247.508,246.175,246.68,246.175z"/>
		<path class="st8" d="M218.479,246.175H37.521c-0.828,0-1.5,0.671-1.5,1.5s0.672,1.5,1.5,1.5h180.959c0.828,0,1.5-0.671,1.5-1.5
			S219.308,246.175,218.479,246.175z"/>
		<path class="st8" d="M9.32,238.202H246.68c0.828,0,1.5-0.671,1.5-1.5s-0.672-1.5-1.5-1.5H108.901l37.991-27.57
			c15.24-11.061,26.684-27.063,32.222-45.062c2.566-8.341,3.867-16.994,3.867-25.719v-24.237
			c28.484-0.799,51.413-24.202,51.413-52.876c0-29.177-23.736-52.914-52.913-52.914c-18.871,0-35.456,9.937-44.825,24.846
			c-12.325-5.519-22.013-11.276-28.015-15.173c-3.857-2.505-8.84-2.505-12.695,0c-9.389,6.097-34.512,20.973-64.946,27.402
			c-5.53,1.168-9.393,5.875-9.393,11.448v81.504c0,8.729,1.301,17.382,3.867,25.719c5.538,17.999,16.981,34.002,32.222,45.062
			l37.99,27.57H9.32c-0.828,0-1.5,0.671-1.5,1.5S8.492,238.202,9.32,238.202z M181.48,9.825c27.522,0,49.913,22.391,49.913,49.914
			s-22.391,49.914-49.913,49.914s-49.914-22.392-49.914-49.914S153.958,9.825,181.48,9.825z M144.181,103.311H60.405
			c-1.885,0-3.419-1.534-3.419-3.419V72.766c0-1.885,1.534-3.419,3.419-3.419h69.052c0.629,3.414,1.586,6.712,2.839,9.865h-9.746
			c-0.828,0-1.5,0.671-1.5,1.5v11.234c0,0.829,0.672,1.5,1.5,1.5H137.6c0.828,0,1.5-0.671,1.5-1.5v-0.559
			c2.465,3.292,5.309,6.283,8.458,8.921C147.349,101.995,145.923,103.311,144.181,103.311z M147.6,109.729v27.126
			c0,1.885-1.534,3.418-3.419,3.418H60.405c-1.885,0-3.419-1.534-3.419-3.418v-27.126c0-1.885,1.534-3.418,3.419-3.418h83.775
			C146.065,106.311,147.6,107.844,147.6,109.729z M147.6,146.692v27.125c0,1.885-1.534,3.419-3.419,3.419H60.405
			c-1.885,0-3.419-1.534-3.419-3.419v-27.125c0-1.885,1.534-3.419,3.419-3.419h83.775C146.065,143.273,147.6,144.807,147.6,146.692z
			 M136.1,86.916v3.53h-12.051v-8.234h9.541C134.35,83.825,135.186,85.396,136.1,86.916z M99.577,234.32l-40.12-29.116
			c-14.717-10.68-25.768-26.135-31.116-43.516c-2.478-8.052-3.734-16.408-3.734-24.837V55.348c0-4.141,2.884-7.641,7.012-8.513
			C61.434,40.537,85.743,26.7,97.58,19.013c2.863-1.859,6.563-1.859,9.426,0c6.041,3.922,15.76,9.7,28.112,15.255
			c-4.171,7.561-6.551,16.242-6.551,25.471c0,2.239,0.156,4.441,0.427,6.608H60.405c-3.539,0-6.419,2.879-6.419,6.419v27.125
			c0,1.974,0.897,3.74,2.303,4.919c-1.406,1.178-2.303,2.945-2.303,4.918v27.126c0,1.973,0.897,3.74,2.303,4.918
			c-1.406,1.178-2.303,2.945-2.303,4.919v27.125c0,3.54,2.88,6.419,6.419,6.419h83.775c3.539,0,6.419-2.879,6.419-6.419v-27.125
			c0-1.974-0.897-3.74-2.303-4.919c1.406-1.178,2.303-2.945,2.303-4.918v-27.126c0-1.973-0.897-3.74-2.303-4.918
			c0.793-0.665,1.422-1.516,1.821-2.487c8.407,6.208,18.708,9.978,29.863,10.291v24.237c0,8.426-1.257,16.782-3.734,24.837
			c-5.349,17.38-16.398,32.834-31.116,43.516l-40.121,29.116c-0.804,0.583-1.745,0.876-2.688,0.882h-0.057
			C101.323,235.196,100.382,234.904,99.577,234.32z"/>
	</g>
</g>
</svg>
