<?xml version="1.0" encoding="utf-8"?>
<!-- Generator: Adobe Illustrator 23.0.3, SVG Export Plug-In . SVG Version: 6.00 Build 0)  -->
<svg version="1.1" id="Layer_1" xmlns="http://www.w3.org/2000/svg" xmlns:xlink="http://www.w3.org/1999/xlink" x="0px" y="0px"
	 viewBox="0 0 256 256" style="enable-background:new 0 0 256 256;" xml:space="preserve">
<style type="text/css">
	.st0{fill:#F87023;}
	.st1{fill:#F8AF23;}
	.st2{fill:#CECECE;}
	.st3{fill:#AFAFAF;}
	.st4{fill:#63BCE7;}
	.st5{fill:#63E2E7;}
	.st6{fill:#9E9E9E;}
	.st7{fill:#707070;}
	.st8{fill:#3F3679;}
	.st9{fill:#E2E2E2;}
	.st10{fill:#6377E7;}
	.st11{fill:#F46275;}
	.st12{fill:#F8D323;}
	.st13{fill:#F43075;}
	.st14{fill:#F48875;}
</style>
<g>
	<path class="st2" d="M29.619,194.168c-7.724,0-14.009-6.285-14.009-14.009V53.267c0-7.724,6.285-14.009,14.009-14.009h196.762
		c7.724,0,14.009,6.285,14.009,14.009v126.892c0,7.724-6.285,14.009-14.009,14.009H29.619z"/>
	<g>
		<path class="st3" d="M22.11,180.159V53.267c0-7.724,6.285-14.009,14.009-14.009h-6.5c-7.724,0-14.009,6.285-14.009,14.009v126.892
			c0,7.724,6.285,14.009,14.009,14.009h6.5C28.395,194.168,22.11,187.883,22.11,180.159z"/>
	</g>
	<g>
		<path class="st9" d="M233.89,180.159V53.267c0-7.724-6.285-14.009-14.009-14.009h6.5c7.724,0,14.009,6.285,14.009,14.009v126.892
			c0,7.724-6.285,14.009-14.009,14.009h-6.5C227.605,194.168,233.89,187.883,233.89,180.159z"/>
	</g>
	<path class="st4" d="M231.769,167.857c0,2.963-2.425,5.388-5.388,5.388H29.619c-2.963,0-5.388-2.425-5.388-5.388V53.267
		c0-2.963,2.425-5.388,5.388-5.388h196.762c2.963,0,5.388,2.425,5.388,5.388V167.857z"/>
	<g>
		<path class="st10" d="M30.731,167.857V53.267c0-2.963,2.425-5.388,5.388-5.388h-6.5c-2.963,0-5.388,2.425-5.388,5.388v114.59
			c0,2.963,2.425,5.388,5.388,5.388h6.5C33.156,173.245,30.731,170.82,30.731,167.857z"/>
	</g>
	<g>
		<path class="st5" d="M225.269,167.857V53.267c0-2.963-2.425-5.388-5.388-5.388h6.5c2.963,0,5.388,2.425,5.388,5.388v114.59
			c0,2.963-2.425,5.388-5.388,5.388h-6.5C222.844,173.245,225.269,170.82,225.269,167.857z"/>
	</g>
	<rect x="88.847" y="216.884" class="st2" width="78.305" height="9.429"/>
	<g>
		<rect x="88.847" y="216.884" class="st3" width="6.5" height="9.429"/>
	</g>
	<rect x="99.983" y="194.168" class="st6" width="56.035" height="22.716"/>
	<g>
		<rect x="99.983" y="194.168" class="st7" width="6.5" height="22.716"/>
	</g>
	<circle class="st1" cx="128" cy="183.706" r="4.613"/>
	<g>
		<circle class="st1" cx="207.95" cy="53.761" r="35.046"/>
		<g>
			<path class="st12" d="M207.95,18.715c-1.096,0-2.179,0.057-3.25,0.156c17.831,1.641,31.797,16.632,31.797,34.891
				s-13.965,33.25-31.797,34.891c1.071,0.098,2.154,0.156,3.25,0.156c19.356,0,35.047-15.691,35.047-35.046
				C242.997,34.405,227.306,18.715,207.95,18.715z"/>
		</g>
		<path class="st11" d="M218.114,38.246l-15.81,18.048l-5.182-4.186c-2.308-1.862-5.688-1.507-7.552,0.792
			c-1.867,2.295-1.513,5.666,0.79,7.529l13.226,10.678l22.618-25.817c1.951-2.227,1.722-5.609-0.513-7.554
			C223.459,35.793,220.062,36.019,218.114,38.246z"/>
	</g>
	<g>
		<rect x="38" y="63.906" class="st1" width="38" height="8.665"/>
		<rect x="38" y="85.067" class="st1" width="38" height="8.665"/>
		<rect x="38" y="106.229" class="st1" width="38" height="8.665"/>
		<rect x="38" y="127.391" class="st1" width="38" height="8.665"/>
		<rect x="38" y="148.553" class="st1" width="38" height="8.665"/>
	</g>
	<g>
		<circle class="st11" cx="128" cy="110.562" r="44.904"/>
		<path class="st4" d="M223.357,188.437c4.827,4.827,4.827,12.654,0,17.482l0,0c-4.827,4.827-12.654,4.827-17.482,0l-33.227-33.227
			c-4.827-4.827-4.827-12.654,0-17.482l0,0c4.827-4.827,12.654-4.827,17.482,0L223.357,188.437z"/>
		<circle class="st4" cx="128" cy="110.562" r="27.392"/>
	</g>
	<circle class="st6" cx="128" cy="100.934" r="8.665"/>
	<path class="st1" d="M139.994,128.855h-23.989v-10.937c0-4.594,3.724-8.319,8.319-8.319h7.351c4.594,0,8.319,3.724,8.319,8.319
		V128.855z"/>
	<g>
		<path class="st8" d="M128,189.82c3.371,0,6.113-2.742,6.113-6.113s-2.742-6.113-6.113-6.113s-6.113,2.742-6.113,6.113
			S124.629,189.82,128,189.82z M128,180.593c1.717,0,3.113,1.396,3.113,3.113s-1.396,3.113-3.113,3.113s-3.113-1.396-3.113-3.113
			S126.283,180.593,128,180.593z"/>
		<path class="st8" d="M27.323,235.786H9.32c-0.829,0-1.5,0.671-1.5,1.5s0.671,1.5,1.5,1.5h18.003c0.829,0,1.5-0.671,1.5-1.5
			S28.152,235.786,27.323,235.786z"/>
		<path class="st8" d="M246.68,235.786h-18.003c-0.829,0-1.5,0.671-1.5,1.5s0.671,1.5,1.5,1.5h18.003c0.829,0,1.5-0.671,1.5-1.5
			S247.509,235.786,246.68,235.786z"/>
		<path class="st8" d="M218.479,235.786H37.521c-0.829,0-1.5,0.671-1.5,1.5s0.671,1.5,1.5,1.5h180.959c0.829,0,1.5-0.671,1.5-1.5
			S219.308,235.786,218.479,235.786z"/>
		<path class="st8" d="M9.32,227.813h79.527h78.306h79.527c0.829,0,1.5-0.671,1.5-1.5s-0.671-1.5-1.5-1.5h-78.027v-7.929
			c0-0.829-0.671-1.5-1.5-1.5h-9.635v-19.716h35.986l11.312,11.312c2.702,2.703,6.251,4.053,9.801,4.053
			c3.549,0,7.099-1.351,9.801-4.053c3.121-3.121,4.428-7.37,3.945-11.446c7.684-0.974,13.527-7.483,13.527-15.374V67.5
			c0-0.057-0.011-0.111-0.017-0.167c1.686-4.199,2.624-8.777,2.624-13.572c0-20.152-16.395-36.547-36.546-36.547
			c-14.415,0-26.904,8.391-32.849,20.544H29.619c-8.551,0-15.508,6.957-15.508,15.509v126.892c0,8.552,6.957,15.509,15.508,15.509
			h68.864v19.716h-9.635c-0.829,0-1.5,0.671-1.5,1.5v7.929H9.32c-0.829,0-1.5,0.671-1.5,1.5S8.491,227.813,9.32,227.813z
			 M222.296,204.858c-4.234,4.234-11.125,4.234-15.36,0l-33.227-33.227c-4.235-4.235-4.235-11.125,0-15.36
			c2.052-2.051,4.779-3.181,7.681-3.181c2.901,0,5.628,1.13,7.68,3.181l33.227,33.227c2.051,2.052,3.181,4.779,3.181,7.68
			C225.478,200.079,224.348,202.807,222.296,204.858z M207.95,90.308c8.399,0,16.14-2.855,22.319-7.637v85.186
			c0,2.144-1.744,3.888-3.888,3.888h-17.595l-17.595-17.595c-5.045-5.046-13.044-5.378-18.483-1.001l-10.863-10.863
			c17.04-18.166,16.703-46.8-1.034-64.537c-8.764-8.765-20.417-13.592-32.812-13.592s-24.048,4.827-32.812,13.592
			c-18.093,18.093-18.093,47.532,0,65.625c8.764,8.765,20.417,13.591,32.812,13.591c11.893,0,23.095-4.454,31.726-12.557
			l10.862,10.862c-1.98,2.454-3.06,5.483-3.06,8.681c0,2.823,0.843,5.513,2.401,7.794H29.619c-2.144,0-3.888-1.744-3.888-3.888
			V53.267c0-2.144,1.744-3.888,3.888-3.888h142.057c-0.173,1.438-0.272,2.899-0.272,4.383
			C171.404,73.913,187.798,90.308,207.95,90.308z M128,153.965c-11.594,0-22.493-4.515-30.691-12.712
			c-16.923-16.923-16.923-44.459,0-61.382c8.198-8.198,19.097-12.713,30.691-12.713s22.493,4.515,30.691,12.713
			c16.923,16.923,16.923,44.459,0,61.382C150.493,149.451,139.594,153.965,128,153.965z M238.89,180.159
			c0,6.467-4.868,11.777-11.213,12.428c-0.665-1.903-1.741-3.693-3.259-5.211l-12.631-12.631h14.595c3.798,0,6.888-3.09,6.888-6.888
			V80.079c2.14-2.06,4.03-4.375,5.621-6.9V180.159z M207.95,20.214c18.498,0,33.546,15.049,33.546,33.547
			c0,18.498-15.049,33.546-33.546,33.546s-33.546-15.049-33.546-33.546C174.404,35.263,189.453,20.214,207.95,20.214z
			 M17.11,180.159V53.267c0-6.897,5.611-12.509,12.508-12.509h144.184c-0.692,1.81-1.251,3.686-1.649,5.62H29.619
			c-3.798,0-6.888,3.09-6.888,6.888v114.59c0,3.798,3.09,6.888,6.888,6.888h142.961l17.923,17.923h-34.486H99.982H29.619
			C22.722,192.668,17.11,187.057,17.11,180.159z M101.482,195.668h53.035v19.716h-53.035V195.668z M90.347,218.384h9.635h56.035
			h9.635v6.429H90.347V218.384z"/>
		<path class="st8" d="M189.417,61.596l13.226,10.678c0.277,0.224,0.61,0.333,0.942,0.333c0.418,0,0.833-0.174,1.129-0.512
			l22.618-25.816c1.208-1.379,1.806-3.145,1.682-4.972c-0.124-1.828-0.954-3.499-2.338-4.703c-2.854-2.485-7.201-2.191-9.69,0.654
			l-14.86,16.963l-4.061-3.28c-2.945-2.377-7.278-1.922-9.658,1.013c-1.156,1.42-1.688,3.205-1.497,5.025
			C187.099,58.802,187.989,60.441,189.417,61.596z M190.734,53.845c0.763-0.941,1.881-1.429,3.01-1.429
			c0.856,0,1.718,0.281,2.435,0.859l5.182,4.186c0.626,0.505,1.54,0.428,2.071-0.179l15.811-18.047l0,0
			c1.402-1.604,3.853-1.769,5.463-0.366c0.778,0.677,1.245,1.615,1.314,2.642c0.07,1.026-0.266,2.017-0.945,2.792l-21.668,24.732
			l-12.104-9.772c-0.803-0.649-1.304-1.571-1.411-2.595C189.786,55.646,190.084,54.644,190.734,53.845z"/>
		<path class="st8" d="M76,62.406H38c-0.829,0-1.5,0.671-1.5,1.5v8.665c0,0.829,0.671,1.5,1.5,1.5h38c0.829,0,1.5-0.671,1.5-1.5
			v-8.665C77.5,63.077,76.829,62.406,76,62.406z M74.5,71.071h-35v-5.665h35V71.071z"/>
		<path class="st8" d="M76,83.567H38c-0.829,0-1.5,0.671-1.5,1.5v8.665c0,0.829,0.671,1.5,1.5,1.5h38c0.829,0,1.5-0.671,1.5-1.5
			v-8.665C77.5,84.239,76.829,83.567,76,83.567z M74.5,92.232h-35v-5.665h35V92.232z"/>
		<path class="st8" d="M76,104.729H38c-0.829,0-1.5,0.671-1.5,1.5v8.666c0,0.829,0.671,1.5,1.5,1.5h38c0.829,0,1.5-0.671,1.5-1.5
			v-8.666C77.5,105.4,76.829,104.729,76,104.729z M74.5,113.395h-35v-5.666h35V113.395z"/>
		<path class="st8" d="M76,125.891H38c-0.829,0-1.5,0.671-1.5,1.5v8.665c0,0.829,0.671,1.5,1.5,1.5h38c0.829,0,1.5-0.671,1.5-1.5
			v-8.665C77.5,126.563,76.829,125.891,76,125.891z M74.5,134.556h-35v-5.665h35V134.556z"/>
		<path class="st8" d="M76,147.053H38c-0.829,0-1.5,0.671-1.5,1.5v8.665c0,0.829,0.671,1.5,1.5,1.5h38c0.829,0,1.5-0.671,1.5-1.5
			v-8.665C77.5,147.724,76.829,147.053,76,147.053z M74.5,155.718h-35v-5.665h35V155.718z"/>
		<path class="st8" d="M107.571,90.132c-5.457,5.457-8.462,12.712-8.462,20.43c0,7.717,3.005,14.972,8.462,20.429
			c5.632,5.632,13.031,8.449,20.429,8.449s14.797-2.816,20.429-8.449c5.457-5.457,8.462-12.712,8.462-20.429
			c0-7.717-3.005-14.973-8.462-20.43C137.165,78.868,118.835,78.868,107.571,90.132z M146.308,128.87
			c-10.096,10.095-26.521,10.095-36.616,0c-4.89-4.891-7.583-11.393-7.583-18.308c0-6.916,2.693-13.418,7.583-18.309
			c5.048-5.047,11.678-7.571,18.308-7.571s13.26,2.524,18.308,7.571c4.89,4.891,7.583,11.393,7.583,18.309
			C153.892,117.478,151.198,123.979,146.308,128.87z"/>
		<path class="st8" d="M134.683,108.574c2.129-1.865,3.482-4.595,3.482-7.641c0-5.605-4.56-10.165-10.165-10.165
			s-10.165,4.56-10.165,10.165c0,3.046,1.353,5.776,3.482,7.641c-3.947,1.273-6.812,4.979-6.812,9.344v10.937
			c0,0.829,0.671,1.5,1.5,1.5h23.989c0.829,0,1.5-0.671,1.5-1.5v-10.937C141.495,113.553,138.63,109.848,134.683,108.574z
			 M128,93.769c3.951,0,7.165,3.214,7.165,7.165c0,3.951-3.214,7.166-7.165,7.166s-7.165-3.214-7.165-7.166
			C120.835,96.983,124.049,93.769,128,93.769z M138.495,127.355h-20.989v-9.437c0-3.76,3.059-6.819,6.819-6.819h7.352
			c3.76,0,6.819,3.059,6.819,6.819V127.355z"/>
	</g>
</g>
</svg>
