<?xml version="1.0" encoding="utf-8"?>
<!-- Generator: Adobe Illustrator 23.0.3, SVG Export Plug-In . SVG Version: 6.00 Build 0)  -->
<svg version="1.1" id="Layer_1" xmlns="http://www.w3.org/2000/svg" xmlns:xlink="http://www.w3.org/1999/xlink" x="0px" y="0px"
	 viewBox="0 0 256 256" style="enable-background:new 0 0 256 256;" xml:space="preserve">
<style type="text/css">
	.st0{fill:#F87023;}
	.st1{fill:#F8AF23;}
	.st2{fill:#CECECE;}
	.st3{fill:#AFAFAF;}
	.st4{fill:#63BCE7;}
	.st5{fill:#63E2E7;}
	.st6{fill:#9E9E9E;}
	.st7{fill:#707070;}
	.st8{fill:#3F3679;}
	.st9{fill:#E2E2E2;}
	.st10{fill:#6377E7;}
	.st11{fill:#F46275;}
	.st12{fill:#F8D323;}
	.st13{fill:#F43075;}
	.st14{fill:#F48875;}
</style>
<g>
	<path class="st2" d="M133.024,232.311H18.847v-65.307c0-15.862,12.859-28.72,28.72-28.72h56.736c15.862,0,28.72,12.859,28.72,28.72
		V232.311z"/>
	<g>
		<path class="st3" d="M54.067,138.284h-6.5c-15.862,0-28.72,12.859-28.72,28.72v65.307h6.5v-65.307
			C25.347,151.142,38.206,138.284,54.067,138.284z"/>
	</g>
	<g>
		<path class="st9" d="M97.803,138.284h6.5c15.862,0,28.72,12.859,28.72,28.72v65.307h-6.5v-65.307
			C126.524,151.142,113.665,138.284,97.803,138.284z"/>
	</g>
	<circle class="st0" cx="40.861" cy="80.948" r="8.5"/>
	<circle class="st1" cx="109.009" cy="80.948" r="8.5"/>
	<path class="st1" d="M77.607,148.918h-3.343c-7.732,0-14-6.268-14-14v-23.491c0-7.732,6.268-14,14-14h3.343c7.732,0,14,6.268,14,14
		v23.491C91.607,142.65,85.339,148.918,77.607,148.918z"/>
	<g>
		<path class="st0" d="M66.764,134.918v-23.491c0-7.198,5.434-13.12,12.421-13.905c-0.519-0.058-1.044-0.095-1.579-0.095h-3.343
			c-7.732,0-14,6.268-14,14v23.491c0,7.732,6.268,14,14,14h3.343c0.534,0,1.06-0.036,1.579-0.095
			C72.198,148.038,66.764,142.115,66.764,134.918z"/>
	</g>
	<path class="st1" d="M75.935,124.826L75.935,124.826c-19.371,0-35.074-15.703-35.074-35.074V73.719
		c0-19.371,15.703-35.074,35.074-35.074h0c19.371,0,35.074,15.703,35.074,35.074v16.034
		C111.009,109.123,95.306,124.826,75.935,124.826z"/>
	<g>
		<path class="st0" d="M47.361,89.752V73.719c0-18.274,13.978-33.278,31.824-34.918c-1.071-0.098-2.154-0.156-3.25-0.156h0
			c-19.371,0-35.074,15.703-35.074,35.074v16.034c0,19.371,15.703,35.074,35.074,35.074h0c1.096,0,2.179-0.057,3.25-0.156
			C61.339,123.03,47.361,108.027,47.361,89.752z"/>
	</g>
	<polygon class="st4" points="60.264,130.914 75.935,148.918 62.969,157.033 55.973,138.284 	"/>
	<polygon class="st4" points="91.607,130.914 75.935,148.918 88.901,157.033 95.898,138.284 	"/>
	<polygon class="st2" points="55.973,138.284 75.935,172.425 75.935,208.525 58.305,178.022 65.954,178.022 53.268,166.828 
		54.412,138.29 	"/>
	<polygon class="st2" points="95.898,138.284 75.935,172.425 75.935,208.525 93.566,178.022 85.916,178.022 98.603,166.828 
		97.458,138.29 	"/>
	<polygon class="st6" points="111.009,81.735 107.796,81.735 104.582,64.413 111.009,62.413 	"/>
	<path class="st6" d="M40.861,81.735h4.595l5.375-16.072c0,0,36.125,24.125,65.875-4.25c22.888-21.83-14.228-32.415-32.567-36.136
		c-5.783-1.173-11.769-0.804-17.374,1.043l-21.46,7.07c-3.59,1.183-6.015,4.535-6.015,8.315v0l0,0
		c-5.026,5.026-6.868,12.415-4.791,19.212L40.861,81.735z"/>
	<g>
		<path class="st7" d="M45.79,41.705c0-3.78,2.426-7.132,6.015-8.315l21.46-7.07c2.416-0.796,4.904-1.3,7.415-1.542
			c-4.683-0.452-9.421,0.061-13.915,1.542l-21.46,7.07c-3.59,1.183-6.015,4.535-6.015,8.315c-5.026,5.026-6.868,12.415-4.791,19.212
			l6.362,20.819h4.595l0.995-2.976l-5.453-17.843C38.922,54.12,40.764,46.731,45.79,41.705z"/>
	</g>
	<g>
		<circle class="st8" cx="66.029" cy="87.557" r="3.125"/>
		<circle class="st8" cx="92.341" cy="87.557" r="3.125"/>
	</g>
	<path class="st2" d="M133.021,232.311L133.021,232.311c8.284,0,15-6.716,15-15v-87.679h-30v87.679
		C118.021,225.596,124.737,232.311,133.021,232.311z"/>
	<g>
		<path class="st9" d="M141.521,129.632v87.679c0,7.167-5.03,13.151-11.75,14.637c1.048,0.232,2.133,0.363,3.25,0.363h0
			c8.284,0,15-6.716,15-15v-87.679H141.521z"/>
	</g>
	<path class="st1" d="M118.021,129.632v-6.853c0-6.46,5.237-11.696,11.696-11.696h9.686c2.133,0,3.862,1.729,3.862,3.862v0h11.387
		c2.724,0,5.43-0.439,8.015-1.301l3.945-1.315c3.027-1.009,6.153,1.244,6.153,4.435v0c0,1.925-1.18,3.653-2.972,4.354l-21.773,8.515
		H118.021z"/>
	<g>
		<path class="st12" d="M166.266,116.764c0-1.545-0.737-2.866-1.836-3.707l2.183-0.728c3.027-1.009,6.153,1.244,6.153,4.435
			c0,1.925-1.18,3.653-2.972,4.354l-21.773,8.515h-6.5l21.773-8.515C165.086,120.416,166.266,118.688,166.266,116.764z"/>
	</g>
	<path class="st1" d="M161.053,92.519V46.523c0-6.259,5.074-11.333,11.333-11.333h49.486l-7.744-10.199h-23.798l-11.333-12.276
		h-26.434c-6.259,0-11.333,5.074-11.333,11.333v68.471c0,4.865,3.507,8.902,8.129,9.743c0.579,0.105,1.173,0.169,1.782,0.169h0
		C156.616,102.431,161.053,97.993,161.053,92.519z"/>
	<g>
		<path class="st0" d="M147.73,92.519V24.048c0-6.259,5.074-11.333,11.333-11.333h-6.5c-6.259,0-11.333,5.074-11.333,11.333v68.471
			c0,4.865,3.507,8.902,8.129,9.743c0.579,0.105,1.173,0.168,1.782,0.168h0c1.143,0,2.236-0.203,3.258-0.559
			C150.52,100.528,147.73,96.856,147.73,92.519z"/>
	</g>
	<path class="st4" d="M221.872,35.191h-49.486c-6.259,0-11.333,5.074-11.333,11.333v45.996c0,5.474-4.438,9.912-9.912,9.912h76.101
		c5.473,0,9.91-4.437,9.91-9.91v-57.33H221.872z"/>
	<g>
		<path class="st5" d="M230.653,35.191v57.33c0,5.473-4.437,9.91-9.91,9.91h6.5c5.473,0,9.91-4.437,9.91-9.91v-57.33H230.653z"/>
	</g>
	<g>
		<rect x="180.241" y="57.143" class="st2" width="37.725" height="37.955"/>
		<path class="st8" d="M213.317,54.988c0-7.838-6.376-14.214-14.214-14.214c-7.837,0-14.214,6.376-14.214,14.214v2.155h4.346v-2.155
			c0-5.45,4.418-9.868,9.868-9.868c5.45,0,9.868,4.418,9.868,9.868v2.155h4.346V54.988z"/>
		<g>
			<path class="st11" d="M201.895,63.194h-5.583c-4.483,0-8.117,3.634-8.117,8.117v17.421h21.818V71.311
				C210.012,66.828,206.378,63.194,201.895,63.194z"/>
			<g>
				<path class="st7" d="M202.914,81.265l-1.364-5.634l0,0c0.546-0.574,0.883-1.35,0.883-2.205c0-1.766-1.432-3.198-3.199-3.198
					c-1.766,0-3.198,1.432-3.198,3.198c0,0.855,0.336,1.631,0.883,2.205l-1.364,5.634c-0.364,1.505,0.776,2.954,2.324,2.954h1.357
					h1.357C202.139,84.218,203.279,82.769,202.914,81.265z"/>
				<g>
					<path class="st8" d="M27.323,241.784H9.32c-0.829,0-1.5,0.672-1.5,1.5s0.671,1.5,1.5,1.5h18.003c0.829,0,1.5-0.672,1.5-1.5
						S28.152,241.784,27.323,241.784z"/>
					<path class="st8" d="M246.68,241.784h-18.003c-0.829,0-1.5,0.672-1.5,1.5s0.671,1.5,1.5,1.5h18.003c0.829,0,1.5-0.672,1.5-1.5
						S247.509,241.784,246.68,241.784z"/>
					<path class="st8" d="M218.479,241.784H37.521c-0.829,0-1.5,0.672-1.5,1.5s0.671,1.5,1.5,1.5h180.959c0.829,0,1.5-0.672,1.5-1.5
						S219.308,241.784,218.479,241.784z"/>
					<path class="st8" d="M9.32,233.812h9.527h114.176H246.68c0.829,0,1.5-0.672,1.5-1.5s-0.671-1.5-1.5-1.5H142.478
						c4.252-2.988,7.043-7.92,7.043-13.5v-86.655l20.819-8.143c2.385-0.933,3.926-3.189,3.926-5.75c0-2.009-0.935-3.834-2.564-5.009
						c-1.629-1.176-3.657-1.483-5.563-0.849l-3.946,1.314c-2.434,0.812-4.971,1.224-7.54,1.224h-10.101
						c-0.65-2.229-2.712-3.862-5.149-3.862h-9.686c-7.277,0-13.197,5.92-13.197,13.196v6.854v9.729
						c-3.826-1.689-8.01-2.578-12.218-2.578H96.76l-3.654-6.274v-8.476c11.377-6.076,19.178-17.989,19.388-31.713
						c3.878-1.441,6.514-5.166,6.514-9.371c0-4.167-2.64-7.919-6.5-9.366v-4.645c0-0.003-0.001-0.006-0.001-0.009
						c1.761-1.315,3.509-2.784,5.234-4.429c6.367-6.073,8.804-11.898,7.242-17.313c-1.837-6.372-10.363-15.253-40.545-21.378
						c-6.007-1.218-12.28-0.843-18.142,1.088l-21.46,7.07c-4.015,1.321-6.775,4.936-7.028,9.111
						c-5.111,5.414-6.93,13.126-4.745,20.278L36.33,72.04c-3.306,1.69-5.468,5.15-5.468,8.909c0,4.948,3.697,9.161,8.527,9.881
						c0.394,13.509,8.14,25.202,19.375,31.203v8.477l-3.654,6.274h-7.543c-16.664,0-30.22,13.557-30.22,30.221v63.808H9.32
						c-0.829,0-1.5,0.672-1.5,1.5S8.491,233.812,9.32,233.812z M66.946,176.896l-12.151-10.721l1.011-25.206l18.629,31.861v30.101
						l-13.531-23.41h5.049c0.624,0,1.183-0.386,1.403-0.97C67.578,177.969,67.414,177.31,66.946,176.896z M60.507,133.478
						l13.144,15.101l-7.263,4.545l-8.678-14.842L60.507,133.478z M75.936,150.688l8.033,5.027l-8.033,13.738l-8.033-13.738
						L75.936,150.688z M91.364,133.478l2.797,4.804l-8.678,14.842l-7.263-4.546L91.364,133.478z M84.514,178.552
						c0.22,0.584,0.779,0.97,1.403,0.97h5.049l-13.53,23.41v-30.101l18.629-31.861l1.011,25.206l-12.151,10.721
						C84.457,177.31,84.293,177.969,84.514,178.552z M146.521,217.312c0,7.444-6.056,13.5-13.5,13.5s-13.5-6.056-13.5-13.5v-86.18
						h27V217.312z M119.521,122.778c0-5.622,4.574-10.196,10.197-10.196h9.686c0.73,0,1.376,0.34,1.81,0.862h-10.531
						c-0.829,0-1.5,0.672-1.5,1.5s0.671,1.5,1.5,1.5h12.583h1.208h10.179c2.893,0,5.749-0.464,8.489-1.378l3.945-1.314
						c0.98-0.326,2.023-0.166,2.86,0.437c0.838,0.604,1.318,1.543,1.318,2.575c0,1.316-0.792,2.477-2.019,2.956l-21.509,8.412
						h-28.217V122.778z M116.521,142.682v74.629c0,5.58,2.791,10.512,7.043,13.5H77.436v-21.884l17.429-30.155
						c0.268-0.465,0.268-1.036,0-1.501c-0.268-0.464-0.763-0.75-1.299-0.75h-3.682l9.711-8.568c0.339-0.299,0.525-0.734,0.507-1.186
						l-1.082-26.984h5.284C108.545,139.783,112.758,140.79,116.521,142.682z M116.009,80.948c0,2.538-1.383,4.809-3.5,6.038v-5.251
						v-6.823C114.621,76.147,116.009,78.431,116.009,80.948z M109.509,73.719v6.517h-0.467l-1.826-9.84
						c0.766-0.436,1.53-0.9,2.292-1.39V73.719z M45.775,34.815l21.46-7.07c5.367-1.769,11.109-2.114,16.606-0.998
						c10.444,2.12,35.079,8.24,38.26,19.27c1.227,4.256-0.936,9.071-6.43,14.312C103.732,71.715,89.376,75.888,73,72.726
						c-11.037-2.131-19.317-7.045-21.002-8.098L40.813,41.41C40.936,38.395,42.888,35.766,45.775,34.815z M38.919,44.393
						l10.297,21.373l-4.839,14.469h-2.406l-6.038-19.757C34.227,54.895,35.381,48.916,38.919,44.393z M33.861,80.948
						c0-2.451,1.318-4.714,3.366-5.97l2.138,6.997c0,0.015-0.005,0.03-0.005,0.046v5.757C36.214,87.084,33.861,84.251,33.861,80.948
						z M42.361,89.752v-6.517h3.096c0.645,0,1.218-0.412,1.422-1.024l4.782-14.299c6.331,3.612,29.714,15.165,52.776,3.948
						l1.883,10.148c0.132,0.711,0.752,1.227,1.475,1.227h1.714v6.517c0,18.513-15.062,33.574-33.574,33.574
						S42.361,108.265,42.361,89.752z M75.936,126.326c5.022,0,9.81-1.019,14.171-2.858v6.885l-14.171,16.281l-14.171-16.281v-6.885
						C66.125,125.308,70.913,126.326,75.936,126.326z M20.347,167.004c0-15.01,12.211-27.221,27.22-27.221h5.284l-1.082,26.984
						c-0.018,0.451,0.168,0.887,0.507,1.186l9.711,8.568h-3.682c-0.536,0-1.031,0.286-1.299,0.75c-0.268,0.465-0.268,1.036,0,1.501
						l17.429,30.155v21.884H41.82v-60.367c0-0.828-0.671-1.5-1.5-1.5s-1.5,0.672-1.5,1.5v60.367H20.347V167.004z"/>
					<path class="st8" d="M72.217,79.448H59.842c-0.829,0-1.5,0.672-1.5,1.5s0.671,1.5,1.5,1.5h12.375c0.829,0,1.5-0.672,1.5-1.5
						S73.045,79.448,72.217,79.448z"/>
					<path class="st8" d="M86.154,82.448h12.375c0.829,0,1.5-0.672,1.5-1.5s-0.671-1.5-1.5-1.5H86.154c-0.829,0-1.5,0.672-1.5,1.5
						S85.325,82.448,86.154,82.448z"/>
					<path class="st8" d="M78.332,103.288h3.718c0.464,0,0.902-0.215,1.186-0.581c0.284-0.367,0.383-0.845,0.267-1.294
						l-2.865-11.106c-0.208-0.802-1.025-1.288-1.827-1.077c-0.802,0.207-1.285,1.024-1.078,1.827l2.381,9.231h-1.782
						c-0.829,0-1.5,0.672-1.5,1.5S77.503,103.288,78.332,103.288z"/>
					<path class="st8" d="M84.415,112.188c0.611-0.56,0.652-1.509,0.092-2.119c-0.561-0.61-1.509-0.651-2.119-0.092
						c-1.761,1.616-4.643,1.615-6.403,0c-0.61-0.558-1.559-0.52-2.12,0.092c-0.56,0.61-0.519,1.559,0.091,2.119
						c1.435,1.316,3.292,2.041,5.229,2.041C81.123,114.229,82.979,113.504,84.415,112.188z"/>
					<path class="st8" d="M149.093,103.739c0.715,0.129,1.386,0.191,2.049,0.191h76.101c6.292,0,11.41-5.118,11.41-11.41V35.19
						c0-0.828-0.671-1.5-1.5-1.5h-14.536l-7.294-9.606c-0.284-0.373-0.726-0.593-1.195-0.593h-23.142l-10.887-11.793
						c-0.284-0.308-0.684-0.482-1.102-0.482h-26.434c-7.076,0-12.833,5.757-12.833,12.833V92.52
						C139.73,98.033,143.667,102.752,149.093,103.739z M235.653,92.521c0,4.638-3.773,8.41-8.41,8.41h-68.397
						c2.278-2.088,3.708-5.085,3.708-8.411V46.523c0-5.422,4.411-9.833,9.833-9.833h63.267V92.521z M142.73,24.049
						c0-5.422,4.411-9.833,9.833-9.833h25.777l10.887,11.793c0.284,0.308,0.684,0.482,1.102,0.482h23.054l5.466,7.199h-46.463
						c-7.076,0-12.833,5.757-12.833,12.833V92.52c0,4.638-3.773,8.411-8.412,8.411c-0.482,0-0.979-0.047-1.514-0.144
						c-3.997-0.728-6.898-4.204-6.898-8.268V24.049z"/>
					<path class="st8" d="M180.241,96.598h37.725c0.829,0,1.5-0.672,1.5-1.5V57.143c0-0.828-0.671-1.5-1.5-1.5h-37.725
						c-0.829,0-1.5,0.672-1.5,1.5v37.955C178.741,95.926,179.412,96.598,180.241,96.598z M181.741,58.643h34.725v34.955h-34.725
						V58.643z"/>
					<path class="st8" d="M201.895,61.694h-5.583c-5.303,0-9.617,4.314-9.617,9.617v17.421c0,0.828,0.671,1.5,1.5,1.5h21.818
						c0.829,0,1.5-0.672,1.5-1.5V71.312C211.512,66.009,207.198,61.694,201.895,61.694z M208.512,87.232h-18.818V71.312
						c0-3.648,2.968-6.617,6.617-6.617h5.583c3.649,0,6.617,2.969,6.617,6.617V87.232z"/>
					<path class="st8" d="M204.373,80.911l-1.195-4.932c0.491-0.755,0.755-1.638,0.755-2.554c0-2.591-2.108-4.698-4.699-4.698
						s-4.698,2.107-4.698,4.698c0,0.917,0.264,1.799,0.754,2.554l-1.194,4.933c-0.282,1.167-0.019,2.378,0.724,3.322
						c0.742,0.943,1.857,1.484,3.058,1.484h2.713c1.201,0,2.315-0.541,3.058-1.485C204.391,83.29,204.655,82.079,204.373,80.911
						L204.373,80.911z M201.291,82.379c-0.1,0.127-0.324,0.34-0.7,0.34h-2.713c-0.376,0-0.6-0.213-0.7-0.34
						c-0.1-0.127-0.254-0.396-0.166-0.761l1.364-5.635c0.12-0.495-0.02-1.018-0.372-1.387c-0.302-0.317-0.469-0.733-0.469-1.171
						c0-0.937,0.762-1.698,1.698-1.698s1.699,0.762,1.699,1.698c0,0.438-0.167,0.853-0.469,1.171
						c-0.352,0.369-0.491,0.892-0.372,1.388l1.365,5.634C201.545,81.983,201.391,82.252,201.291,82.379z"/>
				</g>
			</g>
		</g>
	</g>
</g>
</svg>
