<svg xmlns="http://www.w3.org/2000/svg" viewBox="0 0 256 256"><title>icons_</title><rect x="15.61" y="28.986" width="224.78" height="154.91" rx="14.009" ry="14.009" fill="#63bce7"/><path d="M25.11,169.887V43A14.025,14.025,0,0,1,39.119,28.986h-9.5A14.025,14.025,0,0,0,15.61,43V169.887A14.025,14.025,0,0,0,29.619,183.9h9.5A14.025,14.025,0,0,1,25.11,169.887Z" fill="#6377e7"/><path d="M230.89,169.887V43a14.025,14.025,0,0,0-14.009-14.009h9.5A14.025,14.025,0,0,1,240.39,43V169.887A14.025,14.025,0,0,1,226.381,183.9h-9.5A14.025,14.025,0,0,0,230.89,169.887Z" fill="#63e2e7"/><rect x="24.231" y="37.607" width="207.538" height="125.366" rx="5.388" ry="5.388" fill="#f8af23"/><path d="M33.731,157.585V42.995a5.4,5.4,0,0,1,5.388-5.388h-9.5a5.4,5.4,0,0,0-5.388,5.388v114.59a5.4,5.4,0,0,0,5.388,5.388h9.5A5.4,5.4,0,0,1,33.731,157.585Z" fill="#f87023"/><path d="M222.269,157.585V42.995a5.4,5.4,0,0,0-5.388-5.388h9.5a5.4,5.4,0,0,1,5.388,5.388v114.59a5.4,5.4,0,0,1-5.388,5.388h-9.5A5.4,5.4,0,0,0,222.269,157.585Z" fill="#f8d323"/><rect x="88.847" y="206.612" width="78.305" height="9.429" fill="#f46275"/><rect x="88.847" y="206.612" width="9.5" height="9.429" fill="#f43075"/><rect x="99.983" y="183.896" width="56.035" height="22.716" fill="#9e9e9e"/><rect x="99.983" y="183.896" width="9.5" height="22.716" fill="#707070"/><circle cx="128" cy="173.435" r="4.613" fill="#f46275"/><rect x="41.226" y="50.457" width="173.548" height="99.667" fill="#f46275"/><path d="M196.456,100.29l7.307-7.307a7.5,7.5,0,0,0-10.606-10.606l-7.307,7.307-7.307-7.307a7.5,7.5,0,0,0-10.606,10.606l7.307,7.307-7.307,7.307A7.5,7.5,0,1,0,178.542,118.2l7.307-7.307,7.307,7.307A7.5,7.5,0,0,0,203.763,107.6Z" fill="#f8af23"/><path d="M233.269,157.585V43a6.9,6.9,0,0,0-6.888-6.889H29.619A6.9,6.9,0,0,0,22.731,43v114.59a6.9,6.9,0,0,0,6.888,6.888H226.381A6.9,6.9,0,0,0,233.269,157.585Zm-207.538,0V43a3.893,3.893,0,0,1,3.888-3.889H226.381A3.893,3.893,0,0,1,230.269,43v114.59a3.892,3.892,0,0,1-3.888,3.888H29.619A3.892,3.892,0,0,1,25.731,157.585Z" fill="#3f3679"/><path d="M128,167.321a6.113,6.113,0,1,0,6.113,6.113A6.12,6.12,0,0,0,128,167.321Zm0,9.227a3.113,3.113,0,1,1,3.113-3.113A3.117,3.117,0,0,1,128,176.548Z" fill="#3f3679"/><path d="M27.323,225.514h-18a1.5,1.5,0,1,0,0,3h18a1.5,1.5,0,1,0,0-3Z" fill="#3f3679"/><path d="M246.68,225.514h-18a1.5,1.5,0,0,0,0,3h18a1.5,1.5,0,0,0,0-3Z" fill="#3f3679"/><path d="M218.479,225.514H37.521a1.5,1.5,0,0,0,0,3H218.479a1.5,1.5,0,0,0,0-3Z" fill="#3f3679"/><path d="M9.32,217.541H246.68a1.5,1.5,0,0,0,0-3H168.653v-7.93a1.5,1.5,0,0,0-1.5-1.5h-9.635V185.4h68.864a15.526,15.526,0,0,0,15.508-15.508V43a15.526,15.526,0,0,0-15.508-15.509H29.619A15.526,15.526,0,0,0,14.11,43V169.888A15.526,15.526,0,0,0,29.619,185.4H98.482v19.716H88.847a1.5,1.5,0,0,0-1.5,1.5v7.93H9.32a1.5,1.5,0,1,0,0,3Zm7.791-47.653V43A12.523,12.523,0,0,1,29.619,30.486H226.381A12.523,12.523,0,0,1,238.89,43V169.888A12.523,12.523,0,0,1,226.381,182.4H29.619A12.523,12.523,0,0,1,17.11,169.888ZM101.482,185.4h53.035v19.716H101.482ZM90.347,208.111h75.306v6.43H90.347Z" fill="#3f3679"/><path d="M214.774,48.957H41.226a1.5,1.5,0,0,0-1.5,1.5v99.666a1.5,1.5,0,0,0,1.5,1.5H214.774a1.5,1.5,0,0,0,1.5-1.5V50.457A1.5,1.5,0,0,0,214.774,48.957Zm-1.5,49.833h-13.2l4.746-4.746A9,9,0,0,0,192.1,81.316l-6.247,6.246L179.6,81.316a9,9,0,1,0-12.728,12.728l4.746,4.746h-13.2V76.873h54.849ZM176.3,101.351a1.5,1.5,0,0,0,0-2.121L169,91.923a6,6,0,0,1,8.485-8.485l7.307,7.307a1.5,1.5,0,0,0,2.121,0l7.307-7.307a6,6,0,0,1,8.485,8.485L195.4,99.229a1.5,1.5,0,0,0,0,2.121l7.307,7.307a6,6,0,1,1-8.485,8.485l-7.307-7.307a1.5,1.5,0,0,0-2.121,0l-7.307,7.307A6,6,0,0,1,169,108.657ZM155.425,98.79h-54.85V76.873h54.85Zm-57.85,0H42.726V76.873H97.575Zm-54.849,3H97.575v21.917H42.726Zm57.849,0h54.85v21.917h-54.85Zm57.85,0h13.2l-4.746,4.746A9,9,0,1,0,179.6,119.264l6.246-6.246,6.246,6.246a9,9,0,1,0,12.728-12.728l-4.746-4.746h13.2v21.917H158.425Zm54.849-27.917H158.425V51.957h54.849Zm-57.849,0h-54.85V51.957h54.85ZM42.726,51.957H97.575V73.873H42.726Zm0,74.75H97.575v21.916H42.726Zm57.849,0h54.85v21.916h-54.85Zm112.7,21.916H158.425V126.707h54.849Z" fill="#3f3679"/></svg>