<?xml version="1.0" encoding="utf-8"?>
<!-- Generator: Adobe Illustrator 23.0.0, SVG Export Plug-In . SVG Version: 6.00 Build 0)  -->
<svg version="1.1" id="Layer_1" xmlns="http://www.w3.org/2000/svg" xmlns:xlink="http://www.w3.org/1999/xlink" x="0px" y="0px"
	 viewBox="0 0 512 512" style="enable-background:new 0 0 512 512;" xml:space="preserve">
<style type="text/css">
	.st0{fill:#32283C;}
	.st1{fill:#463C4B;}
	.st2{fill:#E6E6EB;}
	.st3{fill:#A5C3DC;}
	.st4{fill:#FF4646;}
	.st5{fill:#CD3232;}
	.st6{fill:#F0915A;}
	.st7{fill:#FAB991;}
	.st8{fill:#F5732D;}
	.st9{fill:#FAA037;}
	.st10{fill:#78AF41;}
	.st11{fill:#788CB4;}
	.st12{fill:#466932;}
	.st13{fill:#FBB993;}
	.st14{fill:#F1905B;}
	.st15{fill:#23192D;}
	.st16{fill:#32293C;}
	.st17{fill:#B92323;}
</style>
<g>
	<g>
		<path class="st0" d="M272,60.457h-16c-13.255,0-24,10.745-24,24v0c0,13.255,10.745,24,24,24h16c13.255,0,24-10.745,24-24v0
			C296,71.202,285.255,60.457,272,60.457z"/>
	</g>
	<g>
		<path class="st1" d="M96,228.457c-17.645,0-32-14.355-32-32s14.355-32,32-32s32,14.355,32,32S113.645,228.457,96,228.457z
			 M96,180.457c-8.822,0-16,7.178-16,16s7.178,16,16,16s16-7.178,16-16S104.822,180.457,96,180.457z"/>
	</g>
	<g>
		<path class="st1" d="M416,228.457c-17.645,0-32-14.355-32-32s14.355-32,32-32s32,14.355,32,32S433.645,228.457,416,228.457z
			 M416,180.457c-8.822,0-16,7.178-16,16s7.178,16,16,16s16-7.178,16-16S424.822,180.457,416,180.457z"/>
	</g>
	<g>
		<path class="st3" d="M464,468.457H48c-17.673,0-32-14.327-32-32v-192c0-17.673,14.327-32,32-32h416c17.673,0,32,14.327,32,32v192
			C496,454.13,481.673,468.457,464,468.457z"/>
	</g>
	<g>
		<path class="st2" d="M432,468.457H48c-17.673,0-32-14.327-32-32v-192c0-17.673,14.327-32,32-32h384c17.673,0,32,14.327,32,32v192
			C464,454.13,449.673,468.457,432,468.457z"/>
	</g>
	<g>
		<path class="st1" d="M424,436.457H56c-4.418,0-8-3.582-8-8v-176c0-4.418,3.582-8,8-8h368c4.418,0,8,3.582,8,8v176
			C432,432.875,428.418,436.457,424,436.457z"/>
	</g>
	<g>
		<path class="st4" d="M410.667,200.037c-2.281,0-4.563-0.871-6.303-2.611L277.011,70.073c-5.612-5.612-13.074-8.703-21.011-8.703
			s-15.398,3.091-21.011,8.703L107.636,197.426c-3.48,3.48-9.125,3.481-12.605,0c-3.48-3.481-3.48-9.125,0-12.605L222.384,57.468
			c8.979-8.979,20.918-13.924,33.616-13.924s24.637,4.945,33.616,13.924L416.97,184.821c3.48,3.481,3.48,9.125,0,12.605
			C415.229,199.166,412.948,200.037,410.667,200.037z"/>
	</g>
	<g>
		<circle class="st1" cx="256" cy="84.457" r="24"/>
	</g>
	<g>
		<path class="st4" d="M90.667,284.457c4.411,0,8,3.589,8,8c0,4.418,3.582,8,8,8s8-3.582,8-8c0-13.234-10.767-24-24-24
			s-24,10.766-24,24v96c0,13.234,10.767,24,24,24s24-10.766,24-24c0-4.418-3.582-8-8-8s-8,3.582-8,8c0,4.411-3.589,8-8,8
			s-8-3.589-8-8v-96C82.667,288.046,86.256,284.457,90.667,284.457z"/>
		<path class="st4" d="M165.333,396.457h-16c-4.411,0-8-3.589-8-8v-112c0-4.418-3.582-8-8-8s-8,3.582-8,8v112
			c0,13.234,10.767,24,24,24h16c4.418,0,8-3.582,8-8S169.751,396.457,165.333,396.457z"/>
		<path class="st4" d="M202.667,268.457c-13.233,0-24,10.766-24,24v96c0,13.234,10.767,24,24,24s24-10.766,24-24v-96
			C226.667,279.223,215.9,268.457,202.667,268.457z M210.667,388.457c0,4.411-3.589,8-8,8s-8-3.589-8-8v-96c0-4.411,3.589-8,8-8
			s8,3.589,8,8V388.457z"/>
		<path class="st4" d="M266.667,284.457c4.411,0,8,3.589,8,8c0,4.418,3.582,8,8,8s8-3.582,8-8c0-13.234-10.767-24-24-24
			s-24,10.766-24,24v25.373c0,6.41,2.496,12.437,7.029,16.971l22.627,22.627c1.512,1.511,2.344,3.521,2.344,5.657v25.373
			c0,4.411-3.589,8-8,8s-8-3.589-8-8c0-4.418-3.582-8-8-8s-8,3.582-8,8c0,13.234,10.767,24,24,24s24-10.766,24-24v-25.373
			c0-6.411-2.496-12.438-7.03-16.971l-22.626-22.626c-1.512-1.512-2.344-3.521-2.344-5.658v-25.373
			C258.667,288.046,262.256,284.457,266.667,284.457z"/>
		<path class="st4" d="M330.667,284.457h16c4.418,0,8-3.582,8-8s-3.582-8-8-8h-16c-13.233,0-24,10.766-24,24v96
			c0,13.234,10.767,24,24,24h16c4.418,0,8-3.582,8-8s-3.582-8-8-8h-16c-4.411,0-8-3.589-8-8v-40h8c4.418,0,8-3.582,8-8s-3.582-8-8-8
			h-8v-40C322.667,288.046,326.256,284.457,330.667,284.457z"/>
		<path class="st4" d="M389.333,268.457h-16c-4.418,0-8,3.582-8,8v128c0,4.418,3.582,8,8,8h16c13.233,0,24-10.766,24-24v-96
			C413.333,279.223,402.566,268.457,389.333,268.457z M397.333,388.457c0,4.411-3.589,8-8,8h-8v-112h8c4.411,0,8,3.589,8,8V388.457z
			"/>
	</g>
</g>
</svg>
