<?xml version="1.0" encoding="utf-8"?>
<!-- Generator: Adobe Illustrator 23.0.0, SVG Export Plug-In . SVG Version: 6.00 Build 0)  -->
<svg version="1.1" id="Layer_1" xmlns="http://www.w3.org/2000/svg" xmlns:xlink="http://www.w3.org/1999/xlink" x="0px" y="0px"
	 viewBox="0 0 512 512" style="enable-background:new 0 0 512 512;" xml:space="preserve">
<style type="text/css">
	.st0{fill:#32283C;}
	.st1{fill:#463C4B;}
	.st2{fill:#E6E6EB;}
	.st3{fill:#A5C3DC;}
	.st4{fill:#FF4646;}
	.st5{fill:#CD3232;}
	.st6{fill:#F0915A;}
	.st7{fill:#FAB991;}
	.st8{fill:#F5732D;}
	.st9{fill:#FAA037;}
	.st10{fill:#78AF41;}
	.st11{fill:#788CB4;}
	.st12{fill:#466932;}
	.st13{fill:#FBB993;}
	.st14{fill:#F1905B;}
	.st15{fill:#23192D;}
	.st16{fill:#32293C;}
	.st17{fill:#B92323;}
</style>
<g>
	<g>
		<path class="st0" d="M464,432H112c0-17.673-14.327-32-32-32V176c17.673,0,32-14.327,32-32h352c0,17.673,14.327,32,32,32v224
			C478.327,400,464,414.327,464,432z"/>
	</g>
	<g>
		<path class="st4" d="M400,368H48c0-17.673-14.327-32-32-32V112c17.673,0,32-14.327,32-32h352c0,17.673,14.327,32,32,32v224
			C414.327,336,400,350.327,400,368z"/>
	</g>
	<g>
		<g>
			<path class="st3" d="M200,328H88c-8.837,0-16-7.163-16-16V200h144v112C216,320.837,208.837,328,200,328z"/>
		</g>
		<g>
			<path class="st2" d="M120,328H72c-8.837,0-16-7.163-16-16V200h80v112C136,320.837,128.837,328,120,328z"/>
		</g>
		<g>
			<rect x="56" y="200" class="st3" width="80" height="16"/>
		</g>
		<g>
			<path class="st3" d="M48,160h176c4.418,0,8,3.582,8,8v24c0,4.418-3.582,8-8,8H48c-4.418,0-8-3.582-8-8v-24
				C40,163.582,43.582,160,48,160z"/>
		</g>
		<g>
			<path class="st2" d="M48,160h88c4.418,0,8,3.582,8,8v24c0,4.418-3.582,8-8,8H48c-4.418,0-8-3.582-8-8v-24
				C40,163.582,43.582,160,48,160z"/>
		</g>
		<g>
			<rect x="88" y="200" class="st1" width="16" height="128"/>
		</g>
		<g>
			<rect x="88" y="200" class="st0" width="16" height="16"/>
		</g>
		<g>
			<rect x="80" y="160" class="st1" width="16" height="40"/>
		</g>
		<g>
			<rect x="176" y="160" class="st0" width="16" height="40"/>
		</g>
		<g>
			<rect x="168" y="200" class="st0" width="16" height="128"/>
		</g>
		<path class="st0" d="M196,104c-15.033,0-29.168,5.854-39.8,16.485L136,140.686l-20.201-20.201C105.168,109.854,91.033,104,76,104
			c-15.439,0-28,12.561-28,28s12.561,28,28,28h120c15.439,0,28-12.561,28-28S211.439,104,196,104z M76,144c-6.617,0-12-5.383-12-12
			s5.383-12,12-12c10.76,0,20.877,4.19,28.485,11.799L116.687,144H76z M196,144h-40.687l12.2-12.201
			C175.123,124.19,185.24,120,196,120c6.617,0,12,5.383,12,12S202.617,144,196,144z"/>
	</g>
	<g>
		<g>
			<rect x="256" y="112" class="st2" width="16" height="32"/>
		</g>
		<g>
			<rect x="256" y="80" class="st2" width="16" height="16"/>
		</g>
		<g>
			<rect x="256" y="352" class="st2" width="16" height="16"/>
		</g>
		<g>
			<rect x="256" y="160" class="st2" width="16" height="32"/>
		</g>
		<g>
			<rect x="256" y="208" class="st2" width="16" height="32"/>
		</g>
		<g>
			<rect x="256" y="256" class="st2" width="16" height="32"/>
		</g>
		<g>
			<rect x="256" y="304" class="st2" width="16" height="32"/>
		</g>
	</g>
	<g>
		<path class="st2" d="M320,200c-13.233,0-24-10.766-24-24s10.767-24,24-24s24,10.766,24,24S333.233,200,320,200z M320,168
			c-4.411,0-8,3.589-8,8s3.589,8,8,8s8-3.589,8-8S324.411,168,320,168z"/>
	</g>
	<g>
		<path class="st2" d="M384,296c-13.233,0-24-10.766-24-24s10.767-24,24-24s24,10.766,24,24S397.233,296,384,296z M384,264
			c-4.411,0-8,3.589-8,8s3.589,8,8,8s8-3.589,8-8S388.411,264,384,264z"/>
	</g>
	<g>
		<path class="st2" d="M319.994,296.002c-1.203,0-2.423-0.272-3.572-0.846c-3.951-1.976-5.553-6.781-3.577-10.733l64-128
			c1.977-3.952,6.78-5.552,10.733-3.578c3.951,1.976,5.553,6.781,3.577,10.733l-64,128
			C325.754,294.381,322.929,296.002,319.994,296.002z"/>
	</g>
</g>
</svg>
