<?xml version="1.0" encoding="utf-8"?>
<!-- Generator: Adobe Illustrator 23.0.0, SVG Export Plug-In . SVG Version: 6.00 Build 0)  -->
<svg version="1.1" id="Layer_1" xmlns="http://www.w3.org/2000/svg" xmlns:xlink="http://www.w3.org/1999/xlink" x="0px" y="0px"
	 viewBox="0 0 512 512" style="enable-background:new 0 0 512 512;" xml:space="preserve">
<style type="text/css">
	.st0{fill:#32283C;}
	.st1{fill:#463C4B;}
	.st2{fill:#E6E6EB;}
	.st3{fill:#A5C3DC;}
	.st4{fill:#FF4646;}
	.st5{fill:#CD3232;}
	.st6{fill:#F0915A;}
	.st7{fill:#FAB991;}
	.st8{fill:#F5732D;}
	.st9{fill:#FAA037;}
	.st10{fill:#78AF41;}
	.st11{fill:#788CB4;}
	.st12{fill:#466932;}
	.st13{fill:#FBB993;}
	.st14{fill:#F1905B;}
	.st15{fill:#23192D;}
	.st16{fill:#32293C;}
	.st17{fill:#B92323;}
</style>
<g>
	<g>
		<g>
			<path class="st1" d="M368,384H128c-8.837,0-16-7.163-16-16V96h160l80,0c8.837,0,16,7.163,16,16V384z"/>
		</g>
		<g>
			<path class="st0" d="M160,352h-32c-8.837,0-16,7.163-16,16l0,0v-48h48c8.837,0,16,7.163,16,16v0C176,344.837,168.837,352,160,352
				z"/>
		</g>
		<g>
			<path class="st1" d="M160,320H48V32h112c8.837,0,16,7.163,16,16v288l0,0C176,327.163,168.837,320,160,320z"/>
		</g>
	</g>
	<g>
		<rect x="176" y="240" class="st2" width="64" height="72"/>
	</g>
	<g>
		<rect x="176" y="96" class="st2" width="64" height="72"/>
	</g>
	<g>
		<rect x="176" y="96" class="st3" width="16" height="72"/>
	</g>
	<g>
		<rect x="176" y="168" class="st0" width="16" height="72"/>
	</g>
	<g>
		<rect x="176" y="240" class="st3" width="16" height="72"/>
	</g>
	<g>
		<rect x="176" y="312" class="st0" width="16" height="72"/>
	</g>
	<g>
		<path class="st2" d="M368,168h-64V96h48c8.837,0,16,7.163,16,16V168z"/>
	</g>
	<g>
		<rect x="240" y="168" class="st2" width="64" height="72"/>
	</g>
	<g>
		<g>
			<path class="st5" d="M368,488h-32c-70.692,0-128-57.307-128-128v0c0-70.692,57.307-128,128-128h32c70.692,0,128,57.307,128,128v0
				C496,430.693,438.693,488,368,488z"/>
		</g>
		<g>
			<circle class="st4" cx="336" cy="360" r="128"/>
		</g>
		<g>
			<circle class="st2" cx="336" cy="360" r="96"/>
		</g>
		<g>
			<path class="st4" d="M336,368c-4.418,0-8-3.582-8-8v-72c0-4.418,3.582-8,8-8s8,3.582,8,8v72C344,364.418,340.418,368,336,368z"/>
		</g>
		<g>
			<circle class="st1" cx="336" cy="360" r="24"/>
		</g>
		<g>
			<circle class="st4" cx="336" cy="360" r="10.667"/>
		</g>
		<g>
			<path class="st1" d="M408,368h-8c-4.418,0-8-3.582-8-8v0c0-4.418,3.582-8,8-8h8c4.418,0,8,3.582,8,8v0
				C416,364.418,412.418,368,408,368z"/>
		</g>
		<g>
			<path class="st1" d="M328,432v-8c0-4.418,3.582-8,8-8l0,0c4.418,0,8,3.582,8,8v8c0,4.418-3.582,8-8,8l0,0
				C331.582,440,328,436.418,328,432z"/>
		</g>
		<g>
			<path class="st1" d="M264,352h8c4.418,0,8,3.582,8,8v0c0,4.418-3.582,8-8,8h-8c-4.418,0-8-3.582-8-8v0
				C256,355.582,259.582,352,264,352z"/>
		</g>
	</g>
	<g>
		<path class="st4" d="M24,488h16c4.418,0,8-3.582,8-8V32c0-4.418-3.582-8-8-8H24c-4.418,0-8,3.582-8,8v448
			C16,484.418,19.582,488,24,488z"/>
	</g>
	<g>
		<rect x="48" y="104" class="st2" width="64" height="72"/>
	</g>
	<g>
		<path class="st2" d="M160,104h-48V32h48c8.837,0,16,7.163,16,16v72v0C176,111.163,168.837,104,160,104z"/>
	</g>
	<g>
		<path class="st2" d="M160,248h-48v-72h48c8.837,0,16,7.163,16,16v72l0,0C176,255.163,168.837,248,160,248z"/>
	</g>
	<g>
		<rect x="48" y="248" class="st2" width="64" height="72"/>
	</g>
	<g>
		<path class="st3" d="M160,352h-32c-8.837,0-16,7.163-16,16v0c0,8.837,7.163,16,16,16h48v-48v0C176,344.837,168.837,352,160,352z"
			/>
	</g>
	<g>
		<path class="st5" d="M32,488h8c4.418,0,8-3.582,8-8V32h-8c-4.418,0-8,3.582-8,8V488z"/>
	</g>
</g>
</svg>
