<?xml version="1.0" encoding="utf-8"?>
<!-- Generator: Adobe Illustrator 23.0.0, SVG Export Plug-In . SVG Version: 6.00 Build 0)  -->
<svg version="1.1" id="Layer_1" xmlns="http://www.w3.org/2000/svg" xmlns:xlink="http://www.w3.org/1999/xlink" x="0px" y="0px"
	 viewBox="0 0 512 512" style="enable-background:new 0 0 512 512;" xml:space="preserve">
<style type="text/css">
	.st0{fill:#32283C;}
	.st1{fill:#463C4B;}
	.st2{fill:#E6E6EB;}
	.st3{fill:#A5C3DC;}
	.st4{fill:#FF4646;}
	.st5{fill:#CD3232;}
	.st6{fill:#F0915A;}
	.st7{fill:#FAB991;}
	.st8{fill:#F5732D;}
	.st9{fill:#FAA037;}
	.st10{fill:#78AF41;}
	.st11{fill:#788CB4;}
	.st12{fill:#466932;}
	.st13{fill:#FBB993;}
	.st14{fill:#F1905B;}
	.st15{fill:#23192D;}
	.st16{fill:#32293C;}
	.st17{fill:#B92323;}
</style>
<g>
	<g>
		<path class="st0" d="M254.745,288H172c-4.418,0-8-3.582-8-8s3.582-8,8-8h82.745c6.41,0,12.438-2.497,16.972-7.03l22.626-22.627
			c3.125-3.124,8.189-3.125,11.314,0c3.124,3.124,3.124,8.189,0,11.313l-22.627,22.627C275.474,283.839,265.429,288,254.745,288z"/>
	</g>
	<g>
		<g>
			<path class="st0" d="M246.617,496H444c8.837,0,16-7.163,16-16V320c0-8.837-7.163-16-16-16H246.617
				c-6.762,0-13.21,2.852-17.759,7.856l-67.477,74.225C157.919,389.889,156,394.852,156,400l0,0c0,5.148,1.919,10.111,5.381,13.92
				l67.477,74.225C233.407,493.148,239.855,496,246.617,496z"/>
		</g>
		<g>
			<path class="st1" d="M246.617,496H420c8.837,0,16-7.163,16-16V320c0-8.837-7.163-16-16-16H246.617
				c-6.762,0-13.21,2.852-17.759,7.856l-67.477,74.225C157.919,389.889,156,394.852,156,400l0,0c0,5.148,1.919,10.111,5.381,13.92
				l67.477,74.225C233.407,493.148,239.855,496,246.617,496z"/>
		</g>
		<g>
			<circle class="st0" cx="196" cy="400" r="24"/>
		</g>
	</g>
	<path class="st2" d="M356,384c4.418,0,8-3.582,8-8v-1.538C364,357.665,350.335,344,333.538,344H332v-16c0-4.418-3.582-8-8-8
		s-8,3.582-8,8v16h-1.538C297.665,344,284,357.665,284,374.462c0,14.004,9.488,26.157,23.074,29.553l29.972,7.493
		c6.449,1.612,10.954,7.382,10.954,14.03c0,7.974-6.487,14.462-14.462,14.462h-19.076c-7.975,0-14.462-6.488-14.462-14.462V424
		c0-4.418-3.582-8-8-8s-8,3.582-8,8v1.538C284,442.335,297.665,456,314.462,456H316v16c0,4.418,3.582,8,8,8s8-3.582,8-8v-16h1.538
		C350.335,456,364,442.335,364,425.538c0-14.004-9.488-26.157-23.074-29.553l-29.972-7.493C304.505,386.88,300,381.11,300,374.462
		c0-7.974,6.487-14.462,14.462-14.462h19.076c7.975,0,14.462,6.488,14.462,14.462V376C348,380.418,351.582,384,356,384z"/>
	<path class="st1" d="M241.657,242.343c-3.125-3.125-8.189-3.124-11.314,0l-22.626,22.627c-4.534,4.533-10.562,7.03-16.972,7.03
		h-12.121c-3.302-9.311-12.195-16-22.624-16h-8c-4.418,0-8,3.582-8,8s3.582,8,8,8h8c4.411,0,8,3.589,8,8s-3.589,8-8,8h-8
		c-4.418,0-8,3.582-8,8s3.582,8,8,8h8c10.429,0,19.321-6.689,22.624-16h12.121c10.684,0,20.729-4.161,28.285-11.716l22.627-22.627
		C244.781,250.533,244.781,245.467,241.657,242.343z"/>
	<g>
		<path class="st2" d="M196,408h-76c-37.495,0-68-30.505-68-68s30.505-68,68-68h36c4.418,0,8,3.582,8,8s-3.582,8-8,8h-36
			c-28.673,0-52,23.327-52,52s23.327,52,52,52h76c4.418,0,8,3.582,8,8S200.418,408,196,408z"/>
	</g>
	<g>
		<path class="st0" d="M300,208L300,208c-35.346,0-64-28.654-64-64V32c0-8.836,7.163-16,16-16h0c61.856,0,112,50.144,112,112v16
			C364,179.346,335.346,208,300,208z"/>
	</g>
	<g>
		<path class="st4" d="M332,256h-80c-61.856,0-112-50.144-112-112V96h192c35.346,0,64,28.654,64,64v32
			C396,227.346,367.346,256,332,256z"/>
	</g>
	<g>
		<path class="st13" d="M436,192h-40v-32h24c13.255,0,24,10.745,24,24v0C444,188.418,440.418,192,436,192z"/>
	</g>
	<g>
		<path class="st1" d="M252,208L252,208c-35.346,0-64-28.654-64-64V32c0-8.836,7.163-16,16-16h0c61.856,0,112,50.144,112,112v16
			C316,179.346,287.346,208,252,208z"/>
	</g>
	<g>
		<circle class="st1" cx="364" cy="148" r="12"/>
	</g>
	<g>
		<path class="st1" d="M76,16L76,16c35.346,0,64,28.654,64,64v48h0c-35.346,0-64-28.654-64-64V16z"/>
	</g>
</g>
</svg>
