<?xml version="1.0" encoding="utf-8"?>
<!-- Generator: Adobe Illustrator 23.0.0, SVG Export Plug-In . SVG Version: 6.00 Build 0)  -->
<svg version="1.1" id="Layer_1" xmlns="http://www.w3.org/2000/svg" xmlns:xlink="http://www.w3.org/1999/xlink" x="0px" y="0px"
	 viewBox="0 0 512 512" style="enable-background:new 0 0 512 512;" xml:space="preserve">
<style type="text/css">
	.st0{fill:#32283C;}
	.st1{fill:#463C4B;}
	.st2{fill:#E6E6EB;}
	.st3{fill:#A5C3DC;}
	.st4{fill:#FF4646;}
	.st5{fill:#CD3232;}
	.st6{fill:#F0915A;}
	.st7{fill:#FAB991;}
	.st8{fill:#F5732D;}
	.st9{fill:#FAA037;}
	.st10{fill:#78AF41;}
	.st11{fill:#788CB4;}
	.st12{fill:#466932;}
	.st13{fill:#FBB993;}
	.st14{fill:#F1905B;}
	.st15{fill:#23192D;}
	.st16{fill:#32293C;}
	.st17{fill:#B92323;}
</style>
<g>
	<g>
		<g>
			<path class="st0" d="M224,336v50.177c0,19.096-7.586,37.409-21.088,50.912l-42.343,42.343C149.96,490.04,135.571,496,120.569,496
				h0C89.327,496,64,470.673,64,439.432V336H224z"/>
		</g>
		<g>
			<path class="st0" d="M288,336v50.177c0,19.096,7.586,37.409,21.088,50.912l42.343,42.343c10.609,10.609,24.997,16.569,40,16.569
				h0C422.673,496,448,470.673,448,439.432V336H288z"/>
		</g>
		<g>
			<path class="st1" d="M368,256c-26.172,0-49.406,12.57-64.001,32h-95.998c-14.595-19.43-37.829-32-64.001-32
				c-44.183,0-80,35.817-80,80s35.817,80,80,80c5.784,0,11.42-0.628,16.856-1.794C170.814,429.715,188.2,440,208,440
				c20.373,0,38.202-10.882,48-27.148C265.798,429.118,283.627,440,304,440c19.8,0,37.186-10.285,47.144-25.794
				C356.58,415.372,362.216,416,368,416c44.183,0,80-35.817,80-80S412.183,256,368,256z"/>
		</g>
		<g>
			<circle class="st0" cx="208" cy="384" r="32"/>
		</g>
		<g>
			<circle class="st0" cx="304" cy="384" r="32"/>
		</g>
		<g>
			<circle class="st3" cx="368" cy="304" r="16"/>
		</g>
		<g>
			<circle class="st3" cx="368" cy="368" r="16"/>
		</g>
		<g>
			<circle class="st3" cx="336" cy="336" r="16"/>
		</g>
		<g>
			<circle class="st3" cx="400" cy="336" r="16"/>
		</g>
		<g>
			<path class="st4" d="M144,384L144,384c-4.418,0-8-3.582-8-8v-80c0-4.418,3.582-8,8-8h0c4.418,0,8,3.582,8,8v80
				C152,380.418,148.418,384,144,384z"/>
		</g>
		<g>
			<path class="st4" d="M192,336L192,336c0,4.418-3.582,8-8,8h-80c-4.418,0-8-3.582-8-8l0,0c0-4.418,3.582-8,8-8h80
				C188.418,328,192,331.582,192,336z"/>
		</g>
		<g>
			<path class="st0" d="M288,336h-64c-8.837,0-16-7.163-16-16v-32h96v32C304,328.837,296.837,336,288,336z"/>
		</g>
	</g>
	<g>
		<g>
			<g>
				<path class="st3" d="M234.617,208H432c8.837,0,16-7.163,16-16V32c0-8.837-7.163-16-16-16H234.617
					c-6.762,0-13.21,2.852-17.759,7.856L149.381,98.08C145.919,101.889,144,106.852,144,112v0c0,5.148,1.919,10.111,5.381,13.92
					l67.477,74.225C221.407,205.148,227.855,208,234.617,208z"/>
			</g>
			<g>
				<path class="st2" d="M234.617,208H408c8.837,0,16-7.163,16-16V32c0-8.837-7.163-16-16-16H234.617
					c-6.762,0-13.21,2.852-17.759,7.856L149.381,98.08C145.919,101.889,144,106.852,144,112v0c0,5.148,1.919,10.111,5.381,13.92
					l67.477,74.225C221.407,205.148,227.855,208,234.617,208z"/>
			</g>
			<g>
				<circle class="st3" cx="184" cy="112" r="24"/>
			</g>
		</g>
		<path class="st1" d="M344,96c4.418,0,8-3.582,8-8v-1.538C352,69.665,338.335,56,321.538,56H320V40c0-4.418-3.582-8-8-8
			s-8,3.582-8,8v16h-1.538C285.665,56,272,69.665,272,86.462c0,14.004,9.488,26.156,23.074,29.553l29.971,7.492
			c6.45,1.613,10.955,7.383,10.955,14.031c0,7.975-6.488,14.462-14.462,14.462h-19.076c-7.974,0-14.462-6.487-14.462-14.462V136
			c0-4.418-3.582-8-8-8s-8,3.582-8,8v1.538C272,154.335,285.665,168,302.462,168H304v16c0,4.418,3.582,8,8,8s8-3.582,8-8v-16h1.538
			C338.335,168,352,154.335,352,137.538c0-14.004-9.488-26.156-23.074-29.553l-29.971-7.492C292.505,98.88,288,93.11,288,86.462
			C288,78.487,294.488,72,302.462,72h19.076C329.512,72,336,78.487,336,86.462V88C336,92.418,339.582,96,344,96z"/>
	</g>
	<path class="st4" d="M120,259.668V144c0-13.233,10.766-24,24-24h40c4.418,0,8-3.582,8-8s-3.582-8-8-8h-40
		c-22.056,0-40,17.944-40,40v122.729C109.018,263.825,114.369,261.437,120,259.668z"/>
</g>
</svg>
