<?xml version="1.0" encoding="utf-8"?>
<!-- Generator: Adobe Illustrator 23.0.0, SVG Export Plug-In . SVG Version: 6.00 Build 0)  -->
<svg version="1.1" id="Layer_1" xmlns="http://www.w3.org/2000/svg" xmlns:xlink="http://www.w3.org/1999/xlink" x="0px" y="0px"
	 viewBox="0 0 512 512" style="enable-background:new 0 0 512 512;" xml:space="preserve">
<style type="text/css">
	.st0{fill:#32283C;}
	.st1{fill:#463C4B;}
	.st2{fill:#E6E6EB;}
	.st3{fill:#A5C3DC;}
	.st4{fill:#FF4646;}
	.st5{fill:#CD3232;}
	.st6{fill:#F0915A;}
	.st7{fill:#FAB991;}
	.st8{fill:#F5732D;}
	.st9{fill:#FAA037;}
	.st10{fill:#78AF41;}
	.st11{fill:#788CB4;}
	.st12{fill:#466932;}
	.st13{fill:#FBB993;}
	.st14{fill:#F1905B;}
	.st15{fill:#23192D;}
	.st16{fill:#32293C;}
	.st17{fill:#B92323;}
</style>
<g>
	<g>
		<path class="st5" d="M328,148c-4.418,0-8-3.582-8-8v-32c0-35.29-28.71-64-64-64s-64,28.71-64,64v32c0,4.418-3.582,8-8,8
			s-8-3.582-8-8v-32c0-44.112,35.888-80,80-80s80,35.888,80,80v32C336,144.418,332.418,148,328,148z"/>
	</g>
	<g>
		<g>
			<path class="st0" d="M320,108h64c8.837,0,16,7.163,16,16v344c0,8.837-7.163,16-16,16h-96h0c8.837,0,16-7.163,16-16V124
				C304,115.163,311.163,108,320,108z"/>
		</g>
		<g>
			<path class="st1" d="M288,108H32c-8.837,0-16,7.163-16,16v344c0,8.837,7.163,16,16,16h256c8.837,0,16-7.163,16-16V124
				C304,115.163,296.837,108,288,108z"/>
		</g>
	</g>
	<g>
		<circle class="st0" cx="88" cy="164" r="24"/>
	</g>
	<g>
		<circle class="st0" cx="232" cy="164" r="24"/>
	</g>
	<g>
		<path class="st5" d="M202.617,428H480c8.837,0,16-7.163,16-16V252c0-8.837-7.163-16-16-16H202.617
			c-6.762,0-13.21,2.852-17.759,7.856l-67.477,74.225C113.919,321.889,112,326.852,112,332l0,0c0,5.148,1.919,10.111,5.381,13.92
			l67.477,74.225C189.407,425.148,195.855,428,202.617,428z"/>
	</g>
	<g>
		<path class="st4" d="M202.617,428H456c8.837,0,16-7.163,16-16V252c0-8.837-7.163-16-16-16H202.617
			c-6.762,0-13.21,2.852-17.759,7.856l-67.477,74.225C113.919,321.889,112,326.852,112,332l0,0c0,5.148,1.919,10.111,5.381,13.92
			l67.477,74.225C189.407,425.148,195.855,428,202.617,428z"/>
	</g>
	<g>
		<circle class="st0" cx="152" cy="332" r="24"/>
	</g>
	<path class="st2" d="M152,324h-32c-13.233,0-24-10.766-24-24v-96.805c18.235-3.717,32-19.878,32-39.195c0-22.056-17.944-40-40-40
		s-40,17.944-40,40c0,19.317,13.765,35.479,32,39.195V300c0,22.056,17.944,40,40,40h32c4.418,0,8-3.582,8-8S156.418,324,152,324z
		 M64,164c0-13.234,10.767-24,24-24s24,10.766,24,24s-10.767,24-24,24S64,177.234,64,164z"/>
	<g>
		<path class="st4" d="M232,172c-4.418,0-8-3.582-8-8v-56c0-35.29-28.71-64-64-64s-64,28.71-64,64v56c0,4.418-3.582,8-8,8
			s-8-3.582-8-8v-56c0-44.112,35.888-80,80-80s80,35.888,80,80v56C240,168.418,236.418,172,232,172z"/>
	</g>
	<g>
		<path class="st2" d="M220,268c-15.439,0-28,12.561-28,28v14.459c0,11.516,6.909,21.72,17.601,25.997l14.856,5.942
			c4.582,1.833,7.543,6.206,7.543,11.142V368c0,6.617-5.383,12-12,12s-12-5.383-12-12v-4c0-4.418-3.582-8-8-8s-8,3.582-8,8v4
			c0,15.439,12.561,28,28,28s28-12.561,28-28v-14.459c0-11.516-6.909-21.72-17.601-25.997l-14.856-5.942
			c-4.582-1.833-7.543-6.206-7.543-11.142V296c0-6.617,5.383-12,12-12s12,5.383,12,12v4c0,4.418,3.582,8,8,8s8-3.582,8-8v-4
			C248,280.561,235.439,268,220,268z"/>
		<path class="st2" d="M292,268c-15.439,0-28,12.561-28,28v92c0,4.418,3.582,8,8,8s8-3.582,8-8v-48h24v48c0,4.418,3.582,8,8,8
			s8-3.582,8-8v-92C320,280.561,307.439,268,292,268z M280,324v-28c0-6.617,5.383-12,12-12s12,5.383,12,12v28H280z"/>
		<path class="st2" d="M384,380h-24c-4.411,0-8-3.589-8-8v-96c0-4.418-3.582-8-8-8s-8,3.582-8,8v96c0,13.234,10.767,24,24,24h24
			c4.418,0,8-3.582,8-8S388.418,380,384,380z"/>
		<path class="st2" d="M448,380h-24c-4.411,0-8-3.589-8-8v-32h16c4.418,0,8-3.582,8-8s-3.582-8-8-8h-16v-32c0-4.411,3.589-8,8-8h24
			c4.418,0,8-3.582,8-8s-3.582-8-8-8h-24c-13.233,0-24,10.766-24,24v80c0,13.234,10.767,24,24,24h24c4.418,0,8-3.582,8-8
			S452.418,380,448,380z"/>
	</g>
</g>
</svg>
