<?xml version="1.0" encoding="utf-8"?>
<!-- Generator: Adobe Illustrator 23.0.0, SVG Export Plug-In . SVG Version: 6.00 Build 0)  -->
<svg version="1.1" id="Layer_1" xmlns="http://www.w3.org/2000/svg" xmlns:xlink="http://www.w3.org/1999/xlink" x="0px" y="0px"
	 viewBox="0 0 512 512" style="enable-background:new 0 0 512 512;" xml:space="preserve">
<style type="text/css">
	.st0{fill:#32283C;}
	.st1{fill:#463C4B;}
	.st2{fill:#E6E6EB;}
	.st3{fill:#A5C3DC;}
	.st4{fill:#FF4646;}
	.st5{fill:#CD3232;}
	.st6{fill:#F0915A;}
	.st7{fill:#FAB991;}
	.st8{fill:#F5732D;}
	.st9{fill:#FAA037;}
	.st10{fill:#78AF41;}
	.st11{fill:#788CB4;}
	.st12{fill:#466932;}
	.st13{fill:#FBB993;}
	.st14{fill:#F1905B;}
	.st15{fill:#23192D;}
	.st16{fill:#32293C;}
	.st17{fill:#B92323;}
</style>
<g>
	<g>
		<path class="st5" d="M384,96h-16c0-35.29-28.71-64-64-64s-64,28.71-64,64h-16c0-44.112,35.888-80,80-80S384,51.888,384,96z"/>
	</g>
	<g>
		<g>
			<path class="st0" d="M368,96h64c8.837,0,16,7.163,16,16v368c0,8.837-7.163,16-16,16h-96h0c8.837,0,16-7.163,16-16V112
				C352,103.163,359.163,96,368,96z"/>
		</g>
		<g>
			<path class="st15" d="M400,96h-32c-8.837,0-16,7.163-16,16v368c0,8.837-7.164,16-16,16h48c8.837,0,16-7.163,16-16V96z"/>
		</g>
		<g>
			<path class="st1" d="M336,96H80c-8.837,0-16,7.163-16,16v368c0,8.837,7.163,16,16,16h256c8.837,0,16-7.163,16-16V112
				C352,103.163,344.837,96,336,96z"/>
		</g>
	</g>
	<g>
		<circle class="st0" cx="136" cy="152" r="24"/>
	</g>
	<g>
		<circle class="st0" cx="280" cy="152" r="24"/>
	</g>
	<g>
		<path class="st4" d="M280,160c-4.418,0-8-3.582-8-8V96c0-35.29-28.71-64-64-64s-64,28.71-64,64v56c0,4.418-3.582,8-8,8
			s-8-3.582-8-8V96c0-44.112,35.888-80,80-80s80,35.888,80,80v56C288,156.418,284.418,160,280,160z"/>
	</g>
</g>
</svg>
