<?xml version="1.0" encoding="iso-8859-1"?>
<!-- Generator: Adobe Illustrator 23.0.4, SVG Export Plug-In . SVG Version: 6.00 Build 0)  -->
<svg version="1.1" xmlns="http://www.w3.org/2000/svg" xmlns:xlink="http://www.w3.org/1999/xlink" x="0px" y="0px"
	 viewBox="0 0 64 64" style="enable-background:new 0 0 64 64;" xml:space="preserve">
<g id="front-view-04">
	<path style="fill:#262626;" d="M54.502,7.859H9.782c-0.253,0-0.458,0.205-0.458,0.458v28.998c0,0.253,0.205,0.458,0.458,0.458
		h44.721c0.253,0,0.458-0.205,0.458-0.458V8.317C54.96,8.064,54.756,7.859,54.502,7.859z M54.045,36.858H10.24V8.775h43.805V36.858z
		 M57.775,48.283l-1.816-5.166c-0.064-0.183-0.238-0.306-0.432-0.306H8.381c-0.198,0-0.374,0.127-0.436,0.316l-1.689,5.166
		c-0.046,0.14-0.021,0.292,0.064,0.411c0.087,0.119,0.224,0.189,0.371,0.189h50.652c0.148,0,0.288-0.072,0.374-0.193
		S57.824,48.424,57.775,48.283z M11.61,45.359h2.566l-0.242,0.964h-2.566L11.61,45.359z M10.423,46.323h-2.56l0.315-0.964h2.486
		L10.423,46.323z M48.808,44.443h-2.566l-0.179-0.715h2.566L48.808,44.443z M49.574,43.728h2.566l0.179,0.715h-2.566L49.574,43.728z
		 M18.632,45.359h2.566l-0.242,0.964H18.39L18.632,45.359z M17.445,46.323h-2.566l0.242-0.964h2.566L17.445,46.323z M22.143,45.359
		h2.566l-0.242,0.964h-2.566L22.143,45.359z M25.654,45.359h2.228l-0.133,0.964h-2.337L25.654,45.359z M28.806,45.359h2.879v0.964
		h-3.011L28.806,45.359z M32.6,45.359h2.753l0.133,0.964H32.6V45.359z M36.277,45.359h2.587l0.133,0.964H36.41L36.277,45.359z
		 M39.788,45.359h2.228l0.242,0.964h-2.337L39.788,45.359z M42.961,45.359h2.566l0.242,0.964h-2.566L42.961,45.359z M46.472,45.359
		h2.566l0.242,0.964h-2.566L46.472,45.359z M45.297,44.443h-2.566l-0.179-0.715h2.566L45.297,44.443z M41.786,44.443h-2.124
		l-0.098-0.715h2.043L41.786,44.443z M38.738,44.443h-2.587l-0.098-0.715h2.587L38.738,44.443z M35.227,44.443H32.6v-0.715h2.529
		L35.227,44.443z M31.684,44.443h-2.753l0.098-0.715h2.654V44.443z M28.008,44.443h-2.124l0.179-0.715h2.043L28.008,44.443z
		 M24.938,44.443h-2.566l0.179-0.715h2.566L24.938,44.443z M21.427,44.443h-2.566l0.179-0.715h2.566L21.427,44.443z M17.916,44.443
		h-2.566l0.179-0.715h2.565L17.916,44.443z M14.406,44.443H11.84l0.179-0.715h2.566L14.406,44.443z M13.705,47.239l-0.185,0.739
		h-2.566l0.185-0.739H13.705z M14.649,47.239h2.566l-0.185,0.739h-2.566L14.649,47.239z M18.16,47.239h2.566l-0.185,0.739h-2.566
		L18.16,47.239z M21.671,47.239h2.566l-0.185,0.739h-2.566L21.671,47.239z M25.182,47.239h2.44l-0.102,0.739h-2.524L25.182,47.239z
		 M28.547,47.239h3.137v0.739h-3.239L28.547,47.239z M32.6,47.239h3.012l0.102,0.739H32.6V47.239z M36.536,47.239h2.587l0.102,0.739
		h-2.587L36.536,47.239z M40.047,47.239h2.441l0.185,0.739h-2.525L40.047,47.239z M43.432,47.239h2.566l0.185,0.739h-2.566
		L43.432,47.239z M46.943,47.239h2.566l0.185,0.739h-2.566L46.943,47.239z M50.454,47.239h2.566l0.185,0.739H50.64L50.454,47.239z
		 M50.225,46.323l-0.242-0.964h2.566l0.242,0.964H50.225z M53.494,45.359h2.281l0.339,0.964h-2.379L53.494,45.359z M55.453,44.443
		h-2.189l-0.179-0.715h2.117L55.453,44.443z M11.074,43.728l-0.179,0.715H8.478l0.234-0.715H11.074z M7.564,47.239h2.63
		l-0.185,0.739H7.323L7.564,47.239z M54.151,47.977l-0.185-0.739h2.471l0.26,0.739H54.151z M38.555,50.498
		c-0.069-0.177-0.238-0.293-0.427-0.293H25.872c-0.19,0-0.359,0.116-0.427,0.293l-1.124,2.91c-0.054,0.141-0.036,0.3,0.05,0.424
		c0.085,0.125,0.226,0.199,0.377,0.199h14.503c0.151,0,0.292-0.074,0.377-0.199c0.086-0.124,0.104-0.283,0.05-0.424L38.555,50.498z
		 M25.416,53.115l0.77-1.994h11.628l0.77,1.994H25.416z M63.994,55.453c0-0.109-0.013-0.218-0.053-0.323l-5.825-15.425V7.543
		c0-1.513-1.155-2.699-2.629-2.699H8.512c-1.474,0-2.628,1.185-2.628,2.699v32.162L0.059,55.13c-0.04,0.105-0.053,0.214-0.053,0.323
		H0v2.786c0,0.506,0.41,0.916,0.916,0.916h62.168c0.506,0,0.916-0.41,0.916-0.916v-2.786H63.994z M7.715,7.543
		c0-0.494,0.343-0.867,0.797-0.867h46.975c0.462,0,0.798,0.364,0.798,0.867v31.413H7.715V7.543z M7.433,40.788h49.135l5.192,13.75
		H2.24L7.433,40.788z M1.832,57.324v-0.955h60.337v0.955H1.832z"/>
</g>
<g id="Layer_1">
</g>
</svg>
