<?xml version="1.0" encoding="iso-8859-1"?>
<!-- Generator: Adobe Illustrator 23.0.4, SVG Export Plug-In . SVG Version: 6.00 Build 0)  -->
<svg version="1.1" xmlns="http://www.w3.org/2000/svg" xmlns:xlink="http://www.w3.org/1999/xlink" x="0px" y="0px"
	 viewBox="0 0 64 64" style="enable-background:new 0 0 64 64;" xml:space="preserve">
<g id="front-view-01">
	<path style="fill:#262626;" d="M57.056,45.864V15.621c0-1.429-1.09-2.548-2.481-2.548H9.425c-1.391,0-2.481,1.119-2.481,2.548
		v30.243H0v2.516c0,1.404,1.112,2.547,2.479,2.547h59.041c1.367,0,2.479-1.143,2.479-2.547v-2.516H57.056z M8.613,15.621
		c0-0.501,0.349-0.879,0.811-0.879h45.15c0.463,0,0.812,0.378,0.812,0.879v30.238H8.613V15.621z M62.33,48.38
		c0,0.484-0.363,0.877-0.81,0.877H2.479c-0.446,0-0.81-0.393-0.81-0.877v-0.847H62.33V48.38z M10.228,45.048h43.817V15.919H10.228
		V45.048z M11.063,16.753h42.148v27.46H11.063V16.753z"/>
</g>
<g id="Layer_1">
</g>
</svg>
