<?xml version="1.0" encoding="iso-8859-1"?>
<!-- Generator: Adobe Illustrator 23.0.4, SVG Export Plug-In . SVG Version: 6.00 Build 0)  -->
<svg version="1.1" xmlns="http://www.w3.org/2000/svg" xmlns:xlink="http://www.w3.org/1999/xlink" x="0px" y="0px"
	 viewBox="0 0 64 64" style="enable-background:new 0 0 64 64;" xml:space="preserve">
<g id="front-view-03">
	<path style="fill:#262626;" d="M63.997,51.762c0-0.142-0.03-0.285-0.098-0.416l-4.017-7.764c-0.143-0.278-0.42-0.452-0.728-0.479
		v-32.1c0-1.549-1.181-2.762-2.689-2.762H7.534c-1.507,0-2.688,1.213-2.688,2.762v32.1c-0.308,0.026-0.585,0.201-0.729,0.479
		l-4.016,7.764c-0.067,0.131-0.098,0.273-0.098,0.416H0v2.187c0,0.998,0.812,1.809,1.809,1.809h60.381
		c0.997,0,1.809-0.811,1.809-1.809v-2.187H63.997z M6.655,11.004c0-0.543,0.378-0.952,0.879-0.952h48.93
		c0.502,0,0.88,0.409,0.88,0.952v32.089H6.655V11.004z M5.471,44.902h53.057l3.081,5.955H36.805l-0.675-2.499
		c-0.107-0.394-0.465-0.669-0.874-0.669h-7.417c-0.409,0-0.767,0.274-0.874,0.669l-0.675,2.499h-23.9L5.471,44.902z M34.931,50.857
		h-6.765l0.367-1.358h6.032L34.931,50.857z M62.191,53.949H1.809v-1.282h25.175h9.128h26.079V53.949z M8.257,41.989h47.486V11.326
		H8.257V41.989z M9.161,12.23h45.676v28.854H9.161V12.23z"/>
</g>
<g id="Layer_1">
</g>
</svg>
