<?xml version="1.0" encoding="iso-8859-1"?>
<!-- Generator: Adobe Illustrator 23.0.4, SVG Export Plug-In . SVG Version: 6.00 Build 0)  -->
<svg version="1.1" xmlns="http://www.w3.org/2000/svg" xmlns:xlink="http://www.w3.org/1999/xlink" x="0px" y="0px"
	 viewBox="0 0 64 64" style="enable-background:new 0 0 64 64;" xml:space="preserve">
<g id="top-view">
	<path style="fill:#262626;" d="M58.078,31.453l5.575-27.32c0.208-1.018-0.05-2.063-0.707-2.867S61.317,0,60.279,0H3.721
		C2.704,0,1.746,0.446,1.09,1.222c-0.656,0.777-0.934,1.797-0.764,2.8l4.647,27.32c0.128,0.75,0.497,1.398,1.009,1.893
		c-0.801,0.631-1.326,1.599-1.326,2.696v24.625C4.656,62.455,6.201,64,8.1,64h46.801c1.9,0,3.444-1.545,3.444-3.444V35.93
		c0-1.081-0.511-2.036-1.292-2.668C57.559,32.788,57.932,32.169,58.078,31.453z M2.024,3.733c-0.086-0.502,0.054-1.012,0.382-1.4
		c0.328-0.388,0.807-0.611,1.315-0.611h56.558c0.519,0,1.005,0.23,1.334,0.633s0.457,0.925,0.354,1.434l-5.575,27.32
		c-0.163,0.798-0.873,1.378-1.688,1.378h-2.161H9.151H8.368c-0.843,0-1.556-0.602-1.697-1.433L2.024,3.733z M54.901,34.208
		c0.949,0,1.722,0.772,1.722,1.722v24.625c0,0.949-0.773,1.722-1.722,1.722H8.1c-0.949,0-1.722-0.773-1.722-1.722V35.93
		c0-0.95,0.773-1.722,1.722-1.722h0.268h0.783h43.392h2.161H54.901z M9.425,30.407h44.323c0.639,0,1.188-0.456,1.306-1.083
		l4.509-24.014c0.073-0.389-0.03-0.788-0.283-1.093c-0.253-0.305-0.626-0.48-1.022-0.48H5.809c-0.387,0-0.754,0.168-1.007,0.462
		C4.549,4.491,4.437,4.879,4.495,5.263l3.617,24.013C8.208,29.92,8.773,30.407,9.425,30.407z M5.455,4.76
		c0.09-0.105,0.216-0.162,0.354-0.162h52.45c0.139,0,0.27,0.061,0.359,0.169c0.089,0.108,0.125,0.248,0.1,0.385l-4.509,24.014
		c-0.042,0.221-0.235,0.381-0.46,0.381H9.425c-0.23,0-0.427-0.171-0.462-0.398L5.346,5.134C5.326,4.998,5.364,4.864,5.455,4.76z
		 M11.193,36.192c-0.712,0-1.292,0.579-1.292,1.292V53.22c0,0.712,0.579,1.292,1.292,1.292h40.616c0.712,0,1.292-0.579,1.292-1.292
		V37.484c0-0.712-0.579-1.292-1.292-1.292H11.193z M36.236,37.053h3.444v2.702h-3.444V37.053z M36.236,40.616h3.444v2.583h-3.444
		V40.616z M36.236,44.06h3.444v2.583h-3.444V44.06z M36.236,47.504h3.444v2.583h-3.444V47.504z M31.931,37.053h3.444v2.702h-3.444
		V37.053z M31.931,40.616h3.444v2.583h-3.444V40.616z M31.931,44.06h3.444v2.583h-3.444V44.06z M31.931,47.504h3.444v2.583h-3.444
		V47.504z M27.626,37.053h3.444v2.702h-3.444V37.053z M27.626,40.616h3.444v2.583h-3.444V40.616z M27.626,44.06h3.444v2.583h-3.444
		V44.06z M27.626,47.504h3.444v2.583h-3.444V47.504z M23.32,37.053h3.444v2.702H23.32V37.053z M23.32,40.616h3.444v2.583H23.32
		V40.616z M23.32,44.06h3.444v2.583H23.32V44.06z M23.32,47.504h3.444v2.583H23.32V47.504z M19.015,37.053h3.444v2.702h-3.444
		V37.053z M19.015,40.616h3.444v2.583h-3.444V40.616z M19.015,44.06h3.444v2.583h-3.444V44.06z M19.015,47.504h3.444v2.583h-3.444
		V47.504z M13.849,53.651h-2.656c-0.237,0-0.431-0.193-0.431-0.431v-2.272h3.087V53.651z M13.849,50.088h-3.087v-2.583h3.087V50.088
		z M13.849,46.643h-3.087V44.06h3.087V46.643z M13.849,43.199h-3.087v-2.583h3.087V43.199z M13.849,39.755h-3.087v-2.271
		c0-0.238,0.193-0.431,0.431-0.431h2.656V39.755z M18.154,53.651H14.71v-2.702h3.444V53.651z M18.154,50.088H14.71v-2.583h3.444
		V50.088z M18.154,46.643H14.71V44.06h3.444V46.643z M18.154,43.199H14.71v-2.583h3.444V43.199z M18.154,39.755H14.71v-2.702h3.444
		V39.755z M43.985,53.651h-24.97v-2.702h24.97V53.651z M43.985,50.088h-3.444v-2.583h3.444V50.088z M43.985,46.643h-3.444V44.06
		h3.444V46.643z M43.985,43.199h-3.444v-2.583h3.444V43.199z M43.985,39.755h-3.444v-2.702h3.444V39.755z M48.291,53.651h-3.444
		v-2.702h3.444V53.651z M48.291,50.088h-3.444v-2.583h3.444V50.088z M48.291,46.643h-3.444V44.06h3.444V46.643z M48.291,43.199
		h-3.444v-2.583h3.444V43.199z M48.291,39.755h-3.444v-2.702h3.444V39.755z M52.239,53.22c0,0.238-0.193,0.431-0.431,0.431h-2.657
		v-2.702h3.088V53.22z M52.239,50.088h-3.088v-2.583h3.088V50.088z M52.239,46.643h-3.088V44.06h3.088V46.643z M52.239,43.199
		h-3.088v-2.583h3.088V43.199z M52.239,37.484v2.271h-3.088v-2.702h2.657C52.046,37.053,52.239,37.246,52.239,37.484z
		 M35.579,55.204H24.895c-0.712,0-1.292,0.579-1.292,1.292v3.376c0,0.712,0.579,1.292,1.292,1.292h10.684
		c0.712,0,1.292-0.579,1.292-1.292v-3.376C36.871,55.783,36.292,55.204,35.579,55.204z M36.01,59.871
		c0,0.237-0.193,0.431-0.431,0.431H24.895c-0.237,0-0.431-0.193-0.431-0.431v-3.376c0-0.238,0.193-0.431,0.431-0.431h10.684
		c0.237,0,0.431,0.193,0.431,0.431V59.871z"/>
</g>
<g id="Layer_1">
</g>
</svg>
