<?xml version="1.0" encoding="iso-8859-1"?>
<!-- Generator: Adobe Illustrator 23.0.4, SVG Export Plug-In . SVG Version: 6.00 Build 0)  -->
<svg version="1.1" xmlns="http://www.w3.org/2000/svg" xmlns:xlink="http://www.w3.org/1999/xlink" x="0px" y="0px"
	 viewBox="0 0 64 64" style="enable-background:new 0 0 64 64;" xml:space="preserve">
<g id="user-and-laptop">
	<path style="fill:#262626;" d="M31.876,49.412c-3.28,0-5.754,1.391-5.754,3.236c0,1.844,2.474,3.236,5.754,3.236
		s5.754-1.391,5.754-3.236C37.63,50.803,35.157,49.412,31.876,49.412z M31.876,54.426c-2.623,0-4.296-1.053-4.296-1.778
		c0-0.725,1.674-1.778,4.296-1.778s4.296,1.053,4.296,1.778C36.172,53.373,34.499,54.426,31.876,54.426z"/>
	<path style="fill:#262626;" d="M61.755,47.143c-1.506-12.046-6.715-15.353-6.936-15.487l-12.045-5.414
		c-0.512-0.255-1.106-0.275-1.632-0.054c-0.373,0.157-0.679,0.427-0.89,0.764L39.8,26.006c1.065-1.199,1.201-1.796,1.26-2.063
		c0.352-1.624,2.037-6.779,2.545-8.321c0.212-0.644,0.323-1.31,0.33-1.98c0.041-4.101-1.365-7.996-3.764-10.418
		C38.053,1.085,35.219,0,31.748,0c-3.36,0-6.082,1.039-8.091,3.088c-3.364,3.432-3.631,8.558-3.589,10.603
		c0.014,0.651,0.125,1.296,0.329,1.916c0.654,1.986,2.21,6.775,2.55,8.335c0.053,0.246,0.171,0.771,1.025,1.793l-0.196,0.943
		c-0.225-0.278-0.518-0.494-0.865-0.616c-0.501-0.175-1.041-0.142-1.491,0.084L9.261,31.613l-0.08,0.043
		c-0.221,0.135-5.43,3.441-6.936,15.487c-0.533,4.263,0.179,7.245,2.116,8.86c1.72,1.434,3.924,1.381,5.197,1.188l0.92,2.652
		c0.13,0.376,0.345,0.706,0.617,0.974c-0.245,0.316-0.397,0.707-0.397,1.137v0.179c0,1.029,0.837,1.867,1.866,1.867H51.19
		c1.029,0,1.866-0.837,1.866-1.867v-0.179c0-0.372-0.112-0.717-0.301-1.008c0.342-0.288,0.614-0.661,0.767-1.102l0.92-2.652
		c0.367,0.056,0.81,0.1,1.299,0.1c1.205,0,2.674-0.267,3.898-1.288C61.577,54.388,62.289,51.407,61.755,47.143z M27.889,29.338
		c1.166,0.921,2.628,1.428,4.113,1.428h0.002c1.486,0,2.947-0.508,4.113-1.428c1.096-0.865,1.94-1.597,2.599-2.222l0.855,1.785
		c-0.903,2.806-2.414,6.353-6.812,6.353c-4.464,0-6.627-3.65-7.939-6.443l0.372-1.788C25.864,27.667,26.74,28.431,27.889,29.338z
		 M24.699,4.108c1.723-1.758,4.095-2.65,7.049-2.65c3.068,0,5.553,0.939,7.387,2.792c2.131,2.152,3.38,5.657,3.342,9.378
		c-0.006,0.519-0.092,1.037-0.258,1.538c-0.239,0.726-0.599,1.827-0.977,3.012l-0.596-0.118c-0.128-1.847-0.716-7.564-3.166-10.172
		c-0.193-0.207-0.488-0.28-0.76-0.194c-0.269,0.089-0.462,0.326-0.495,0.607c-0.263,2.235-5.717,4.567-10.448,5.261
		c-2.151,0.315-3.32,0.951-3.964,1.687c-0.011-0.032-0.022-0.067-0.032-0.098c-0.159-0.483-0.245-0.985-0.256-1.49
		C21.488,11.801,21.723,7.146,24.699,4.108z M22.496,17.343l0.003-0.025c0.057-0.638,0.164-1.826,3.491-2.314
		c3.701-0.543,9.39-2.35,11.159-5.126c1.837,3.108,2.071,8.751,2.074,8.814c0.013,0.337,0.256,0.623,0.587,0.688l0.991,0.196
		c-0.514,1.645-0.988,3.24-1.166,4.056c-0.136,0.625-1.369,2.151-4.421,4.56c-0.91,0.719-2.05,1.115-3.209,1.115h-0.002
		c-1.16,0-2.299-0.396-3.21-1.115c-3.841-3.033-4.355-4.256-4.42-4.56C24.117,22.462,23.257,19.704,22.496,17.343z M51.19,61.546
		c0.225,0,0.408,0.183,0.408,0.408v0.179c0,0.226-0.183,0.409-0.408,0.409H12.562c-0.225,0-0.408-0.183-0.408-0.409v-0.179
		c0-0.225,0.183-0.408,0.408-0.408h0.308h38.26H51.19z M52.145,59.366c-0.149,0.432-0.557,0.723-1.015,0.723H12.87
		c-0.458,0-0.866-0.29-1.017-0.723L6.817,44.847c-0.151-0.434-0.084-0.898,0.182-1.273c0.267-0.375,0.683-0.59,1.144-0.59h47.713
		c0.46,0,0.877,0.215,1.143,0.589c0.267,0.375,0.333,0.839,0.183,1.274L52.145,59.366z M55.857,41.148
		c0.46,0,0.877,0.215,1.143,0.589c0.011,0.016,0.017,0.034,0.028,0.05c-0.362-0.163-0.755-0.262-1.171-0.262H8.143
		c-0.416,0-0.809,0.099-1.171,0.262c0.01-0.016,0.016-0.034,0.027-0.05c0.267-0.375,0.683-0.59,1.144-0.59H55.857z M58.712,54.878
		c-1.176,0.986-2.747,1.022-3.781,0.904l3.628-10.456c0.214-0.617,0.672-2.66-0.372-4.433c-0.476-0.808-1.394-1.202-2.331-1.202
		h-4.11v-2.153h-1.458v2.153h-35.87v-2.153h-1.458v2.153H8.143c-0.938,0-1.782,0.443-2.332,1.203
		c-0.869,1.2-0.586,3.815-0.371,4.432l3.628,10.457c-1.034,0.117-2.605,0.081-3.781-0.904c-1.526-1.279-2.063-3.82-1.596-7.554
		c1.351-10.81,5.822-14.13,6.22-14.404l12.132-5.456c0.121-0.061,0.257-0.069,0.384-0.025c0.127,0.045,0.229,0.137,0.286,0.262
		c0.089,0.191,0.183,0.402,0.284,0.629c1.309,2.929,3.747,8.382,9.761,8.382c5.944,0,7.592-5.368,8.479-8.253
		c0.068-0.221,0.132-0.43,0.194-0.624c0.061-0.188,0.2-0.271,0.278-0.303c0.078-0.033,0.235-0.075,0.441,0.027l11.938,5.36
		c0.417,0.289,4.873,3.616,6.221,14.405C60.776,51.058,60.238,53.599,58.712,54.878z"/>
</g>
<g id="Layer_1">
</g>
</svg>
