<svg id="Layer_1" data-name="Layer 1" xmlns="http://www.w3.org/2000/svg" viewBox="0 0 128 128"><title>ELECTRIC CAR</title><polygon points="119.333 92.5 64 92.5 8.667 92.5 8.667 27.333 119.333 27.333 119.333 92.5" style="fill:#d1d3d4"/><polygon points="119.333 30.5 64 30.5 8.667 30.5 8.667 27.333 119.333 27.333 119.333 30.5" style="fill:#cccdce"/><path d="M65.75,103.42V92.5h-3.5v10.92L48.518,114.645a1.75,1.75,0,1,0,2.215,2.71l11.518-9.414V116a1.75,1.75,0,0,0,3.5,0v-8.059l11.518,9.414a1.75,1.75,0,0,0,2.215-2.71Z" style="fill:#a7a9ac"/><polygon points="62.25 92.5 62.25 95.938 64 95.938 65.75 95.938 65.75 92.5 64 92.5 62.25 92.5" style="fill:#939598"/><rect x="8.667" y="18.75" width="110.667" height="8.583" style="fill:#e6e7e8"/><rect x="84.75" y="68.708" width="25" height="15" style="fill:#7f2626"/><rect x="91.75" y="65.708" width="11" height="21" transform="translate(173.458 -21.042) rotate(90)" style="fill:#661e1e"/><rect x="51.5" y="68.708" width="25" height="15" style="fill:#cb2027"/><rect x="58.5" y="65.708" width="11" height="21" transform="translate(140.208 12.208) rotate(90)" style="fill:#b71a25"/><rect x="51.5" y="36.125" width="25" height="15" style="fill:#d94527"/><rect x="58.5" y="33.125" width="11" height="21" transform="translate(107.625 -20.375) rotate(90)" style="fill:#c63628"/><rect x="18.25" y="68.708" width="25" height="15" style="fill:#f92333"/><rect x="25.25" y="65.708" width="11" height="21" transform="translate(106.958 45.458) rotate(90)" style="fill:#ef1b34"/><path d="M32.5,68.708V63.125H62.25v5.583h3.5V63.125H95.5v5.583H99V61.375a1.75,1.75,0,0,0-1.75-1.75H65.75v-8.5h-3.5v8.5H30.75A1.75,1.75,0,0,0,29,61.375v7.333Z" style="fill:#58595b"/></svg>