<svg id="Layer_1" data-name="Layer 1" xmlns="http://www.w3.org/2000/svg" viewBox="0 0 128 128"><title>GREEN ENERGY</title><polygon points="100.782 116 27.218 116 27.218 12 74.282 12 100.782 38.5 100.782 116" style="fill:#d1d3d4"/><polygon points="100.782 38.5 74.282 38.5 74.282 12 100.782 38.5" style="fill:#f1f2f2"/><polygon points="76.688 38.5 76.688 44 100.782 38.5 76.688 38.5" style="fill:#c2c5c6"/><circle cx="86.581" cy="59.581" r="3.536" style="fill:#f92333"/><circle cx="71.618" cy="66.236" r="3.536" style="fill:#cb2027"/><circle cx="56.656" cy="73.604" r="3.536" style="fill:#7f2626"/><path d="M91,88.081H88.331V70.333a1.75,1.75,0,0,0-3.5,0V88.081H73.368v-11a1.75,1.75,0,0,0-3.5,0v11H58.406v-4.6a1.75,1.75,0,0,0-3.5,0v4.6H47.169V44.25a1.75,1.75,0,0,0-3.5,0V88.081H37a1.75,1.75,0,0,0,0,3.5h6.669V98.25a1.75,1.75,0,0,0,3.5,0V91.581H91a1.75,1.75,0,0,0,0-3.5Z" style="fill:#58595b"/></svg>