<svg id="Layer_1" data-name="Layer 1" xmlns="http://www.w3.org/2000/svg" viewBox="0 0 128 128"><title>HOME ASSISTANT</title><path d="M94.936,38.688H33.064A10.064,10.064,0,0,0,23,48.752v62.742L50.209,97.579H94.936A10.064,10.064,0,0,0,105,87.515V48.752A10.064,10.064,0,0,0,94.936,38.688Z" style="fill:#54c3f0"/><path d="M82.228,87.854h-.895a1.75,1.75,0,0,0,0,3.5h.895a1.75,1.75,0,0,0,0-3.5Z" style="fill:#f1f2f2"/><path d="M91.25,87.854h-.894a1.75,1.75,0,0,0,0,3.5h.894a1.75,1.75,0,0,0,0-3.5Z" style="fill:#f1f2f2"/><path d="M76.433,87.854h-16a1.75,1.75,0,1,0,0,3.5h16a1.75,1.75,0,0,0,0-3.5Z" style="fill:#f1f2f2"/><path d="M35.6,77.257H34.7a1.75,1.75,0,0,0,0,3.5H35.6a1.75,1.75,0,0,0,0-3.5Z" style="fill:#f1f2f2"/><path d="M54.922,77.257H41.446a1.75,1.75,0,0,0,0,3.5H54.922a1.75,1.75,0,0,0,0-3.5Z" style="fill:#f1f2f2"/><path d="M97.213,19.441a1.75,1.75,0,0,0,1.75-1.75V15.016a1.75,1.75,0,0,0-3.5,0v2.675A1.75,1.75,0,0,0,97.213,19.441Z" style="fill:#e6e7e8"/><path d="M93.954,19.395H91.279a1.75,1.75,0,0,0,0,3.5h2.675a1.75,1.75,0,0,0,0-3.5Z" style="fill:#e6e7e8"/><path d="M97.408,22.653a1.75,1.75,0,0,0-1.75,1.75v2.675a1.75,1.75,0,0,0,3.5,0V24.4A1.75,1.75,0,0,0,97.408,22.653Z" style="fill:#e6e7e8"/><path d="M103.342,19.2h-2.675a1.75,1.75,0,1,0,0,3.5h2.675a1.75,1.75,0,0,0,0-3.5Z" style="fill:#e6e7e8"/><path d="M86.868,39.374A22.868,22.868,0,1,0,46.731,54.336a22.227,22.227,0,0,1,5.321,14.616v5.077h23.9V68.953a23.262,23.262,0,0,1,5.586-14.928A22.7,22.7,0,0,0,86.868,39.374Z" style="fill:#fcc938"/><path d="M86.608,42.682a22.856,22.856,0,0,0-45.217.091,22.72,22.72,0,0,0,5.34,11.563,22.227,22.227,0,0,1,5.321,14.616v5.077h23.9V68.953a23.262,23.262,0,0,1,5.586-14.928A22.706,22.706,0,0,0,86.608,42.682Z" style="fill:#f2c333"/><path d="M54.922,74.029H73.078a0,0,0,0,1,0,0v5.728a4.229,4.229,0,0,1-4.229,4.229h-9.7a4.229,4.229,0,0,1-4.229-4.229V74.029A0,0,0,0,1,54.922,74.029Z" style="fill:#dbad2e"/><path d="M54.922,77.257a32.954,32.954,0,0,1,18.155,0V74.029H54.922Z" style="fill:#c6972e"/><path d="M64.019,68.1c4.738-5.722,8.8-13.566,12.414-22.813q-6.207,4.661-12.414,0-6.207,4.661-12.414,0C55.22,54.534,59.281,62.378,64.019,68.1" style="fill:#f2e74f"/></svg>