<svg id="Layer_1" data-name="Layer 1" xmlns="http://www.w3.org/2000/svg" viewBox="0 0 128 128"><title>SMART KEY</title><path d="M51.064,66.953A15.783,15.783,0,0,1,39.83,62.3L29.237,51.706a15.888,15.888,0,0,1,22.47-22.469L62.3,39.83A15.889,15.889,0,0,1,51.064,66.953ZM40.472,28.084a12.388,12.388,0,0,0-8.76,21.147L42.3,59.824h0A12.388,12.388,0,1,0,59.825,42.3L49.232,31.712A12.308,12.308,0,0,0,40.472,28.084Z" style="fill:#cb2027"/><path d="M87.528,103.416a15.784,15.784,0,0,1-11.235-4.653L65.7,88.17A15.888,15.888,0,1,1,88.17,65.7L98.763,76.294a15.888,15.888,0,0,1-11.235,27.122ZM76.936,64.547A12.389,12.389,0,0,0,68.175,85.7L78.768,96.288a12.389,12.389,0,0,0,17.521-17.52L85.7,68.176A12.307,12.307,0,0,0,76.936,64.547Z" style="fill:#7f2626"/><path d="M73.911,71.436,56.564,54.09a1.75,1.75,0,0,0-2.475,2.475L71.436,73.91a1.75,1.75,0,0,0,2.475-2.475Z" style="fill:#f92333"/></svg>