<svg id="Layer_1" data-name="Layer 1" xmlns="http://www.w3.org/2000/svg" viewBox="0 0 128 128"><title>VIRTUAL REALITY</title><polygon points="79.476 99.475 77.821 103.691 50.179 103.691 48.524 99.475 9 99.475 11.215 111.015 116.785 111.015 119 99.475 79.476 99.475" style="fill:#c2c5c6"/><path d="M48.524,99.475l1.656,4.216H77.821l1.656-4.216h33.987V47.123a5.168,5.168,0,0,0-5.168-5.168H19.7a5.168,5.168,0,0,0-5.168,5.168V99.475Z" style="fill:#e6e7e8"/><polygon points="14.537 94.475 14.537 99.475 48.524 99.475 50.18 103.691 77.82 103.691 79.476 99.475 113.463 99.475 113.463 94.475 14.537 94.475" style="fill:#ddd"/><path d="M102.995,85.322V59.851a4.25,4.25,0,0,0-4.25-4.25h-32.6V41.955H19.7a5.118,5.118,0,0,0-1.71.313V62.281a4.25,4.25,0,0,0,4.25,4.25h32.6V85.322a4.25,4.25,0,0,0,4.25,4.25H98.745A4.25,4.25,0,0,0,102.995,85.322Z" style="fill:#ddd"/><rect x="21.5" y="29.055" width="48.149" height="33.97" rx="4.25" ry="4.25" style="fill:#3a99d5"/><path d="M63.465,34.5a1.749,1.749,0,0,0-2.475,0L49.784,45.708a5.9,5.9,0,0,1-8.344,0L29.827,34.095a1.75,1.75,0,0,0-2.475,2.475l8.4,8.4-6.96,6.96A1.75,1.75,0,1,0,31.267,54.4l6.96-6.96.738.738a9.4,9.4,0,0,0,13.293,0l.784-.784L60.049,54.4a1.75,1.75,0,1,0,2.475-2.475l-7.006-7.006,7.948-7.948A1.749,1.749,0,0,0,63.465,34.5Z" style="fill:#2b8bba"/><rect x="58.351" y="52.096" width="48.149" height="33.97" rx="4.25" ry="4.25" style="fill:#54c3f0"/><path d="M100.315,57.542a1.749,1.749,0,0,0-2.475,0L86.635,68.748a5.907,5.907,0,0,1-8.345,0L66.678,57.136A1.75,1.75,0,1,0,64.2,59.61l8.4,8.4-6.96,6.96a1.75,1.75,0,1,0,2.475,2.475l6.96-6.96.738.738a9.412,9.412,0,0,0,13.294,0l.784-.784L96.9,77.445a1.75,1.75,0,0,0,2.475-2.475l-7.006-7.006,7.947-7.948A1.749,1.749,0,0,0,100.315,57.542Z" style="fill:#3fb4d8"/><path d="M83.425,32.4h-.72a1.75,1.75,0,0,0,0,3.5h.72a1.75,1.75,0,0,0,0-3.5Z" style="fill:#3cb3ef"/><path d="M90.4,32.4h-.721a1.75,1.75,0,0,0,0,3.5H90.4a1.75,1.75,0,0,0,0-3.5Z" style="fill:#3cb3ef"/><path d="M77.994,32.4H67.139a1.75,1.75,0,0,0,0,3.5H77.994a1.75,1.75,0,0,0,0-3.5Z" style="fill:#3cb3ef"/><path d="M83.455,24.809a1.75,1.75,0,0,0-1.75-1.75H65.366a1.75,1.75,0,0,0,0,3.5H81.705A1.75,1.75,0,0,0,83.455,24.809Z" style="fill:#3cb3ef"/><path d="M45.941,72.456h.72a1.75,1.75,0,0,0,0-3.5h-.72a1.75,1.75,0,0,0,0,3.5Z" style="fill:#88d3e3"/><path d="M38.962,72.456h.72a1.75,1.75,0,0,0,0-3.5h-.72a1.75,1.75,0,0,0,0,3.5Z" style="fill:#88d3e3"/><path d="M62.228,68.956H51.372a1.75,1.75,0,0,0,0,3.5H62.228a1.75,1.75,0,0,0,0-3.5Z" style="fill:#88d3e3"/><path d="M48.206,76.636H31.867a1.75,1.75,0,0,0,0,3.5H48.206a1.75,1.75,0,0,0,0-3.5Z" style="fill:#88d3e3"/></svg>