<?xml version="1.0" encoding="utf-8"?>
<!-- Generator: Adobe Illustrator 22.0.1, SVG Export Plug-In . SVG Version: 6.00 Build 0)  -->
<svg version="1.1" id="Layer_1" xmlns="http://www.w3.org/2000/svg" xmlns:xlink="http://www.w3.org/1999/xlink" x="0px" y="0px"
	 viewBox="0 0 128 128" style="enable-background:new 0 0 128 128;" xml:space="preserve">
<style type="text/css">
	.st0{fill:#263238;}
	.st1{fill:#E6E7E8;}
	.st2{fill:#FFD7E5;}
	.st3{fill:#0089EF;}
	.st4{fill:#6DC9F7;}
	.st5{fill:#FA759E;}
	.st6{fill:#FFFFFF;}
	.st7{fill:#3A2C60;}
	.st8{fill:#D4FBFF;}
</style>
<g>
	<path class="st1" d="M114.517,63.41H92.975c0.748-2.558,1.157-5.259,1.157-8.055c0-15.853-12.896-28.749-28.749-28.749
		c-15.852,0-28.749,12.896-28.749,28.749c0,2.796,0.409,5.497,1.157,8.055H17.484c-3.223,0-5.845,2.622-5.845,5.846v26.509
		c0,3.224,2.622,5.846,5.845,5.846h0.692v0.485c0,1.818,1.479,3.298,3.298,3.298h7.149c1.818,0,3.298-1.479,3.298-3.298v-0.485
		h28.387h5.693h34.079v0.485c0,1.818,1.479,3.298,3.298,3.298h7.149c1.818,0,3.298-1.479,3.298-3.298v-0.485h0.692
		c3.223,0,5.845-2.622,5.845-5.846V69.256C120.362,66.032,117.74,63.41,114.517,63.41z M62.132,55.355
		c0-1.793,1.458-3.251,3.251-3.251c1.793,0,3.251,1.458,3.251,3.251s-1.458,3.251-3.251,3.251
		C63.591,58.606,62.132,57.148,62.132,55.355z"/>
	<g>
		<g>
			<path class="st2" d="M87.613,60.41c0.98-2.839,1.519-5.883,1.519-9.055c0-15.325-12.424-27.749-27.749-27.749
				S33.634,36.03,33.634,51.355c0,3.172,0.539,6.216,1.519,9.055H87.613z M61.383,47.104c2.348,0,4.251,1.903,4.251,4.251
				s-1.903,4.251-4.251,4.251c-2.348,0-4.251-1.903-4.251-4.251S59.035,47.104,61.383,47.104z"/>
			<path class="st5" d="M52.797,60.41h17.172c2.4-2.276,3.904-5.487,3.904-9.055c0-6.898-5.592-12.49-12.49-12.49
				s-12.49,5.592-12.49,12.49C48.893,54.924,50.398,58.134,52.797,60.41z M61.383,46.154c2.872,0,5.201,2.329,5.201,5.201
				s-2.329,5.201-5.201,5.201c-2.873,0-5.201-2.329-5.201-5.201S58.511,46.154,61.383,46.154z"/>
		</g>
		<g>
			<g>
				<path class="st4" d="M15.176,96.61v1.485c0,1.269,1.029,2.298,2.298,2.298h7.149c1.269,0,2.298-1.029,2.298-2.298V96.61H15.176z
					"/>
				<path class="st4" d="M97.08,96.61v1.485c0,1.269,1.029,2.298,2.298,2.298h7.149c1.269,0,2.298-1.029,2.298-2.298V96.61H97.08z"
					/>
			</g>
			<path class="st4" d="M110.517,96.61H13.484c-2.676,0-4.845-2.169-4.845-4.845V65.256c0-2.676,2.169-4.845,4.845-4.845h97.033
				c2.676,0,4.845,2.169,4.845,4.845v26.509C115.362,94.441,113.193,96.61,110.517,96.61z"/>
			<path class="st8" d="M66.192,86.506H17.696c-0.737,0-1.334-0.597-1.334-1.334V71.849c0-0.737,0.597-1.334,1.334-1.334h48.496
				c0.737,0,1.334,0.597,1.334,1.334v13.323C67.526,85.909,66.929,86.506,66.192,86.506z"/>
		</g>
		<path class="st5" d="M101.675,83.106L101.675,83.106c-2.538,0-4.596-2.058-4.596-4.596v0c0-2.538,2.058-4.596,4.596-4.596h0
			c2.538,0,4.596,2.058,4.596,4.596v0C106.271,81.048,104.213,83.106,101.675,83.106z"/>
		<path class="st6" d="M87.454,83.106L87.454,83.106c-2.538,0-4.596-2.058-4.596-4.596v0c0-2.538,2.058-4.596,4.596-4.596h0
			c2.538,0,4.596,2.058,4.596,4.596v0C92.05,81.048,89.992,83.106,87.454,83.106z"/>
		<path class="st5" d="M88.954,74.186c-1.797,0.624-3.096,2.314-3.096,4.324c0,2.01,1.298,3.7,3.096,4.324
			c1.797-0.624,3.096-2.314,3.096-4.324C92.05,76.5,90.751,74.81,88.954,74.186z"/>
		<g>
			<path class="st7" d="M61.383,46.104c-2.896,0-5.251,2.355-5.251,5.251s2.355,5.251,5.251,5.251c2.896,0,5.251-2.355,5.251-5.251
				S64.279,46.104,61.383,46.104z M61.383,54.606c-1.792,0-3.251-1.458-3.251-3.251s1.458-3.251,3.251-3.251
				c1.793,0,3.251,1.458,3.251,3.251S63.176,54.606,61.383,54.606z"/>
			<path class="st7" d="M110.517,59.41H88.955c0.766-2.618,1.177-5.317,1.177-8.055c0-15.853-12.896-28.749-28.749-28.749
				c-15.852,0-28.749,12.896-28.749,28.749c0,2.736,0.411,5.435,1.177,8.055H13.484c-3.223,0-5.845,2.622-5.845,5.846v26.509
				c0,3.224,2.622,5.846,5.845,5.846h0.692v0.485c0,1.818,1.479,3.298,3.298,3.298h7.149c1.818,0,3.298-1.479,3.298-3.298V97.61
				h23.913c0.552,0,1-0.447,1-1s-0.448-1-1-1H26.921H15.176h-1.692c-2.12,0-3.845-1.726-3.845-3.846V65.256
				c0-2.12,1.725-3.846,3.845-3.846h21.67h52.459h22.904c2.12,0,3.845,1.726,3.845,3.846v26.509c0,2.12-1.725,3.846-3.845,3.846
				h-1.692H97.079H66.645c-0.553,0-1,0.447-1,1s0.447,1,1,1h29.435v0.485c0,1.818,1.479,3.298,3.298,3.298h7.149
				c1.818,0,3.298-1.479,3.298-3.298V97.61h0.692c3.223,0,5.845-2.622,5.845-5.846V65.256
				C116.362,62.032,113.739,59.41,110.517,59.41z M25.921,97.61v0.485c0,0.716-0.582,1.298-1.298,1.298h-7.149
				c-0.716,0-1.298-0.582-1.298-1.298V97.61H25.921z M35.876,59.41c-0.824-2.609-1.242-5.315-1.242-8.055
				c0-14.749,12-26.749,26.749-26.749s26.749,12,26.749,26.749c0,2.74-0.418,5.447-1.242,8.055H35.876z M107.824,98.096
				c0,0.716-0.582,1.298-1.298,1.298h-7.149c-0.716,0-1.298-0.582-1.298-1.298V97.61h9.745V98.096z"/>
			<path class="st7" d="M62.001,95.61h-5.693c-0.552,0-1,0.447-1,1s0.448,1,1,1h5.693c0.552,0,1-0.447,1-1
				S62.553,95.61,62.001,95.61z"/>
			<path class="st7" d="M101.675,84.106c3.086,0,5.596-2.51,5.596-5.596s-2.51-5.597-5.596-5.597s-5.596,2.511-5.596,5.597
				S98.589,84.106,101.675,84.106z M101.675,74.914c1.982,0,3.596,1.613,3.596,3.597c0,1.982-1.613,3.596-3.596,3.596
				s-3.596-1.613-3.596-3.596C98.079,76.527,99.693,74.914,101.675,74.914z"/>
			<path class="st7" d="M93.05,78.511c0-3.086-2.511-5.597-5.597-5.597s-5.596,2.511-5.596,5.597s2.51,5.596,5.596,5.596
				S93.05,81.597,93.05,78.511z M83.858,78.511c0-1.983,1.613-3.597,3.596-3.597c1.983,0,3.597,1.613,3.597,3.597
				c0,1.982-1.613,3.596-3.597,3.596C85.471,82.106,83.858,80.493,83.858,78.511z"/>
		</g>
	</g>
</g>
</svg>
