<?xml version="1.0" encoding="utf-8"?>
<!-- Generator: Adobe Illustrator 22.0.1, SVG Export Plug-In . SVG Version: 6.00 Build 0)  -->
<svg version="1.1" id="Layer_1" xmlns="http://www.w3.org/2000/svg" xmlns:xlink="http://www.w3.org/1999/xlink" x="0px" y="0px"
	 viewBox="0 0 128 128" style="enable-background:new 0 0 128 128;" xml:space="preserve">
<style type="text/css">
	.st0{fill:#263238;}
	.st1{fill:#E6E7E8;}
	.st2{fill:#FFD7E5;}
	.st3{fill:#0089EF;}
	.st4{fill:#6DC9F7;}
	.st5{fill:#FA759E;}
	.st6{fill:#FFFFFF;}
	.st7{fill:#3A2C60;}
	.st8{fill:#D4FBFF;}
</style>
<g>
	<path class="st1" d="M97.056,13.17c0-3.128-2.545-5.673-5.674-5.673H40.618c-3.128,0-5.673,2.545-5.673,5.673v102.355
		c0,3.052,2.424,5.542,5.448,5.661c0.449,1.897,2.147,3.317,4.18,3.317c2.028,0,3.723-1.414,4.176-3.306h34.505
		c0.453,1.891,2.147,3.306,4.176,3.306c2.033,0,3.731-1.42,4.18-3.317c3.024-0.12,5.448-2.61,5.448-5.661V13.17z"/>
	<g>
		<g>
			<g>
				<g>
					<g>
						<path class="st4" d="M87.382,116.199H36.618c-2.581,0-4.674-2.092-4.674-4.674V9.17c0-2.581,2.092-4.674,4.674-4.674h50.765
							c2.581,0,4.674,2.092,4.674,4.674v102.355C92.056,114.106,89.964,116.199,87.382,116.199z"/>
						<path class="st4" d="M87.382,116.199H36.618c-2.581,0-4.674-2.092-4.674-4.674V9.17c0-2.581,2.092-4.674,4.674-4.674h50.765
							c2.581,0,4.674,2.092,4.674,4.674v102.355C92.056,114.106,89.964,116.199,87.382,116.199z"/>
						<path class="st4" d="M40.572,119.504c1.825,0,3.305-1.48,3.305-3.305h-6.61C37.266,118.024,38.746,119.504,40.572,119.504z"/>
						<path class="st4" d="M83.429,119.504c1.825,0,3.305-1.48,3.305-3.305h-6.61C80.123,118.024,81.603,119.504,83.429,119.504z"/>
						<g>
							<g>
								<path class="st3" d="M44.743,81.161H31.944v-5.091h12.799c1.406,0,2.546,1.14,2.546,2.546v0
									C47.289,80.021,46.149,81.161,44.743,81.161z"/>
								<path class="st3" d="M44.743,90.777H31.944v-5.091h12.799c1.406,0,2.546,1.14,2.546,2.546v0
									C47.289,89.638,46.149,90.777,44.743,90.777z"/>
								<path class="st3" d="M44.743,100.394H31.944v-5.091h12.799c1.406,0,2.546,1.14,2.546,2.546l0,0
									C47.289,99.255,46.149,100.394,44.743,100.394z"/>
							</g>
							<g>
								<path class="st3" d="M79.257,81.161h12.799v-5.091H79.257c-1.406,0-2.546,1.14-2.546,2.546v0
									C76.711,80.021,77.851,81.161,79.257,81.161z"/>
								<path class="st3" d="M79.257,90.777h12.799v-5.091H79.257c-1.406,0-2.546,1.14-2.546,2.546v0
									C76.711,89.638,77.851,90.777,79.257,90.777z"/>
								<path class="st3" d="M79.257,100.394h12.799v-5.091H79.257c-1.406,0-2.546,1.14-2.546,2.546l0,0
									C76.711,99.255,77.851,100.394,79.257,100.394z"/>
							</g>
						</g>
					</g>
				</g>
				<g>
					<path class="st6" d="M81.249,31.229H42.766c-1.785,0-3.231-1.447-3.231-3.231V16.835c0-1.785,1.447-3.231,3.231-3.231h38.484
						c1.785,0,3.231,1.447,3.231,3.231v11.163C84.481,29.783,83.034,31.229,81.249,31.229z"/>
					<path class="st8" d="M81.249,16.603H42.766c-1.785,0-3.232,1.447-3.232,3.231v8.163c0,1.785,1.447,3.232,3.232,3.232h38.484
						c1.785,0,3.232-1.447,3.232-3.232v-8.163C84.481,18.05,83.034,16.603,81.249,16.603z"/>
					<g>
						<path class="st8" d="M81.249,53.519H42.766c-1.785,0-3.231-1.447-3.231-3.231V39.125c0-1.785,1.447-3.231,3.231-3.231h38.484
							c1.785,0,3.231,1.447,3.231,3.231v11.163C84.481,52.072,83.034,53.519,81.249,53.519z"/>
						<g>
							<path class="st7" d="M87.382,3.496H36.618c-3.128,0-5.674,2.545-5.674,5.674v102.354c0,3.053,2.425,5.542,5.448,5.662
								c0.449,1.897,2.147,3.317,4.18,3.317c2.028,0,3.722-1.415,4.176-3.306h34.505c0.454,1.891,2.148,3.306,4.177,3.306
								c2.032,0,3.73-1.42,4.179-3.317c3.024-0.12,5.448-2.61,5.448-5.662V51.348c0-0.553-0.447-1-1-1s-1,0.447-1,1v60.177
								c0,2.025-1.648,3.674-3.674,3.674h-0.648h-6.61H43.877h-6.61h-0.648c-2.026,0-3.674-1.648-3.674-3.674V9.17
								c0-2.025,1.648-3.674,3.674-3.674h50.764c2.025,0,3.674,1.648,3.674,3.674v28.344c0,0.553,0.447,1,1,1s1-0.447,1-1V9.17
								C93.056,6.041,90.511,3.496,87.382,3.496z M85.505,117.198c-0.373,0.771-1.163,1.306-2.076,1.306s-1.704-0.534-2.077-1.306
								H85.505z M42.648,117.198c-0.373,0.771-1.164,1.306-2.077,1.306s-1.704-0.534-2.077-1.306H42.648z"/>
							<path class="st7" d="M92.056,40.348c-0.553,0-1,0.447-1,1v6.166c0,0.553,0.447,1,1,1s1-0.447,1-1v-6.166
								C93.056,40.795,92.608,40.348,92.056,40.348z"/>
							<path class="st7" d="M85.481,16.835c0-2.333-1.898-4.231-4.231-4.231H42.766c-2.333,0-4.231,1.898-4.231,4.231v11.163
								c0,2.333,1.898,4.231,4.231,4.231h38.483c2.333,0,4.231-1.898,4.231-4.231V16.835z M83.481,27.998
								c0,1.23-1.001,2.231-2.231,2.231H42.766c-1.23,0-2.231-1.001-2.231-2.231V16.835c0-1.23,1.001-2.231,2.231-2.231h38.483
								c1.23,0,2.231,1.001,2.231,2.231V27.998z"/>
							<path class="st7" d="M81.249,34.893H42.766c-2.333,0-4.231,1.898-4.231,4.231v11.164c0,2.333,1.898,4.231,4.231,4.231h38.483
								c2.333,0,4.231-1.898,4.231-4.231V39.124C85.481,36.791,83.582,34.893,81.249,34.893z M83.481,50.288
								c0,1.23-1.001,2.231-2.231,2.231H42.766c-1.23,0-2.231-1.001-2.231-2.231V39.124c0-1.23,1.001-2.231,2.231-2.231h38.483
								c1.23,0,2.231,1.001,2.231,2.231V50.288z"/>
						</g>
					</g>
				</g>
			</g>
		</g>
		<g>
			<circle class="st6" cx="62.014" cy="103.778" r="8"/>
			<g>
				<path class="st5" d="M62.014,109.372c-3.033,0-5.5-2.468-5.5-5.5c0-1.586,0.685-3.096,1.88-4.142
					c0.416-0.364,1.047-0.322,1.411,0.095c0.364,0.415,0.322,1.047-0.094,1.411c-0.761,0.665-1.197,1.626-1.197,2.636
					c0,1.93,1.57,3.5,3.5,3.5s3.5-1.57,3.5-3.5c0-0.964-0.383-1.861-1.079-2.527c-0.399-0.382-0.413-1.016-0.031-1.414
					c0.382-0.399,1.014-0.414,1.414-0.031c1.093,1.047,1.695,2.458,1.695,3.973C67.515,106.904,65.047,109.372,62.014,109.372z"/>
				<path class="st5" d="M62.014,103.084c-0.552,0-1-0.447-1-1v-3.447c0-0.553,0.448-1,1-1s1,0.447,1,1v3.447
					C63.014,102.637,62.566,103.084,62.014,103.084z"/>
			</g>
		</g>
	</g>
</g>
</svg>
