<?xml version="1.0" encoding="utf-8"?>
<!-- Generator: Adobe Illustrator 22.0.1, SVG Export Plug-In . SVG Version: 6.00 Build 0)  -->
<svg version="1.1" id="Layer_1" xmlns="http://www.w3.org/2000/svg" xmlns:xlink="http://www.w3.org/1999/xlink" x="0px" y="0px"
	 viewBox="0 0 128 128" style="enable-background:new 0 0 128 128;" xml:space="preserve">
<style type="text/css">
	.st0{fill:#263238;}
	.st1{fill:#E6E7E8;}
	.st2{fill:#FFD7E5;}
	.st3{fill:#0089EF;}
	.st4{fill:#6DC9F7;}
	.st5{fill:#FA759E;}
	.st6{fill:#FFFFFF;}
	.st7{fill:#3A2C60;}
	.st8{fill:#D4FBFF;}
</style>
<g>
	<path class="st1" d="M99.392,12.191h-3.269c-0.001,0-0.002,0-0.002,0H82.333c-0.001,0-0.002,0-0.002,0H32.608
		c-3.184,0-5.773,2.59-5.773,5.773v96.072c0,3.184,2.59,5.773,5.773,5.773h66.783c3.184,0,5.773-2.59,5.773-5.773V41.298v-4.425
		V17.964C105.165,14.781,102.575,12.191,99.392,12.191z"/>
	<g>
		<g>
			<g>
				<path class="st4" d="M95.392,114.809H28.608c-2.636,0-4.773-2.137-4.773-4.773V13.964c0-2.636,2.137-4.773,4.773-4.773h66.784
					c2.636,0,4.773,2.137,4.773,4.773v96.072C100.165,112.672,98.028,114.809,95.392,114.809z"/>
				<path class="st8" d="M93.042,103.074H30.958c-1.456,0-2.636-1.18-2.636-2.636V19.562c0-1.456,1.18-2.636,2.636-2.636h62.084
					c1.456,0,2.636,1.18,2.636,2.636v80.877C95.678,101.894,94.498,103.074,93.042,103.074z"/>
				<path class="st2" d="M60.72,59.383H40.301c-0.883,0-1.599-0.716-1.599-1.599v-19.95c0-0.883,0.716-1.599,1.599-1.599H60.72
					c0.883,0,1.599,0.716,1.599,1.599v19.95C62.319,58.667,61.603,59.383,60.72,59.383z"/>
				<circle class="st5" cx="62.319" cy="108.218" r="2.412"/>
			</g>
			<path class="st3" d="M66.442,15.08h-8.884c-0.707,0-1.279-0.573-1.279-1.279v0c0-0.707,0.573-1.279,1.279-1.279h8.884
				c0.707,0,1.279,0.573,1.279,1.279v0C67.721,14.508,67.148,15.08,66.442,15.08z"/>
		</g>
		<polygon class="st6" points="85.227,9.191 78.333,9.191 78.333,32.021 85.227,27.425 92.121,32.021 92.121,9.191 		"/>
		<polygon class="st5" points="81.333,9.191 81.333,30.021 85.227,27.425 92.121,32.021 92.121,9.191 85.227,9.191 		"/>
		<g>
			<path class="st7" d="M100.165,30.872c-0.553,0-1,0.448-1,1v8.426c0,0.552,0.447,1,1,1s1-0.448,1-1v-8.426
				C101.165,31.32,100.718,30.872,100.165,30.872z"/>
			<path class="st7" d="M95.392,8.19H92.12H78.333H28.608c-3.184,0-5.773,2.59-5.773,5.773v96.072c0,3.184,2.59,5.773,5.773,5.773
				h66.783c3.184,0,5.773-2.59,5.773-5.773v-65.76c0-0.552-0.447-1-1-1s-1,0.448-1,1v65.76c0,2.081-1.692,3.773-3.773,3.773H28.608
				c-2.081,0-3.773-1.692-3.773-3.773V13.964c0-2.081,1.692-3.773,3.773-3.773h48.725v21.831c0,0.369,0.203,0.708,0.528,0.882
				c0.324,0.173,0.721,0.154,1.026-0.05l6.339-4.226l6.339,4.226c0.167,0.112,0.36,0.168,0.555,0.168
				c0.162,0,0.324-0.039,0.472-0.118c0.325-0.174,0.528-0.513,0.528-0.882V10.19h2.271c2.081,0,3.773,1.693,3.773,3.773v13.802
				c0,0.552,0.447,1,1,1s1-0.448,1-1V13.964C101.165,10.78,98.575,8.19,95.392,8.19z M91.12,30.152l-5.339-3.559
				c-0.168-0.112-0.361-0.168-0.555-0.168s-0.387,0.056-0.555,0.168l-5.339,3.559V10.19H91.12V30.152z"/>
			<path class="st7" d="M85.298,39.234H68.702c-0.553,0-1,0.448-1,1s0.447,1,1,1h16.596c0.553,0,1-0.448,1-1
				S85.851,39.234,85.298,39.234z"/>
			<path class="st7" d="M85.298,47.809H68.702c-0.553,0-1,0.448-1,1s0.447,1,1,1h16.596c0.553,0,1-0.448,1-1
				S85.851,47.809,85.298,47.809z"/>
			<path class="st7" d="M85.298,56.383H68.702c-0.553,0-1,0.448-1,1s0.447,1,1,1h16.596c0.553,0,1-0.448,1-1
				S85.851,56.383,85.298,56.383z"/>
			<path class="st7" d="M85.298,64.957H38.702c-0.553,0-1,0.448-1,1c0,0.553,0.447,1,1,1h46.596c0.553,0,1-0.447,1-1
				C86.298,65.405,85.851,64.957,85.298,64.957z"/>
			<path class="st7" d="M85.298,73.532H38.702c-0.553,0-1,0.447-1,1s0.447,1,1,1h46.596c0.553,0,1-0.447,1-1
				S85.851,73.532,85.298,73.532z"/>
			<path class="st7" d="M85.298,82.106H38.702c-0.553,0-1,0.447-1,1s0.447,1,1,1h46.596c0.553,0,1-0.447,1-1
				S85.851,82.106,85.298,82.106z"/>
			<path class="st7" d="M85.298,90.681H38.702c-0.553,0-1,0.447-1,1s0.447,1,1,1h46.596c0.553,0,1-0.447,1-1
				S85.851,90.681,85.298,90.681z"/>
		</g>
	</g>
</g>
</svg>
