<?xml version="1.0" encoding="utf-8"?>
<!-- Generator: Adobe Illustrator 22.0.1, SVG Export Plug-In . SVG Version: 6.00 Build 0)  -->
<svg version="1.1" id="Layer_1" xmlns="http://www.w3.org/2000/svg" xmlns:xlink="http://www.w3.org/1999/xlink" x="0px" y="0px"
	 viewBox="0 0 128 128" style="enable-background:new 0 0 128 128;" xml:space="preserve">
<style type="text/css">
	.st0{fill:#263238;}
	.st1{fill:#E6E7E8;}
	.st2{fill:#FFD7E5;}
	.st3{fill:#0089EF;}
	.st4{fill:#6DC9F7;}
	.st5{fill:#FA759E;}
	.st6{fill:#FFFFFF;}
	.st7{fill:#3A2C60;}
	.st8{fill:#D4FBFF;}
</style>
<g>
	<g>
		<path class="st1" d="M20.812,30.457c1.902,0,3.449-1.547,3.449-3.449V14.653c0-0.533,0.435-0.968,0.968-0.968h12.146
			c1.901,0,3.448-1.547,3.448-3.449s-1.547-3.449-3.448-3.449H25.229c-4.338,0-7.866,3.528-7.866,7.866v12.354
			C17.362,28.91,18.909,30.457,20.812,30.457z"/>
		<path class="st1" d="M106.771,6.787H94.626c-1.901,0-3.448,1.547-3.448,3.449s1.547,3.449,3.448,3.449h12.146
			c0.533,0,0.968,0.435,0.968,0.968v12.354c0,1.902,1.547,3.449,3.449,3.449s3.449-1.547,3.449-3.449V14.653
			C114.638,10.315,111.109,6.787,106.771,6.787z"/>
		<path class="st1" d="M111.188,68.318c-1.902,0-3.449,1.547-3.449,3.449v12.354c0,0.446-0.309,0.806-0.719,0.918l-0.061-7.562
			c-0.029-3.644-2.775-6.729-6.251-7.023c-1.588-0.144-3.12,0.274-4.39,1.133c-0.114-2-1.046-3.81-2.442-5.053
			c0.924-2.847,1.43-5.88,1.43-9.031V41.27c0-16.159-13.146-29.306-29.306-29.306c-16.16,0-29.308,13.146-29.308,29.306v16.232
			c0,9.174,4.24,17.374,10.86,22.752l0.107,13.224c0.07,8.739,2.875,16.724,7.896,22.484c5.278,6.056,12.489,9.25,20.868,9.25
			c0.089,0,0.178,0,0.267-0.001c8.188-0.066,15.859-3.316,21.602-9.152c5.742-5.835,8.868-13.558,8.803-21.745l-0.019-2.343
			c4.196-0.162,7.562-3.616,7.562-7.851V71.768C114.638,69.865,113.091,68.318,111.188,68.318z"/>
		<path class="st1" d="M37.374,85.09H25.229c-0.533,0-0.968-0.435-0.968-0.969V71.768c0-1.902-1.547-3.449-3.449-3.449
			s-3.449,1.547-3.449,3.449v12.354c0,4.338,3.528,7.866,7.866,7.866h12.146c1.901,0,3.448-1.547,3.448-3.448
			C40.822,86.637,39.275,85.09,37.374,85.09z"/>
	</g>
	<g>
		<g>
			<path class="st8" d="M47.529,73.122c-0.022-2.782,1.863-5.133,4.432-5.816c0.214,0.057,0.42,0.13,0.622,0.212v-0.007
				c1.888,0.753,3.291,2.49,3.732,4.537l-0.278-34.556c-0.027-3.404,2.799-6.165,6.243-6.013c3.23,0.143,5.674,3.021,5.7,6.254
				l0.229,28.444c0.69-2.433,2.892-4.234,5.548-4.256l0,0c3.226-0.026,5.862,2.568,5.888,5.794c-0.027-3.33,2.738-6.031,6.108-5.882
				c1.103,0.049,2.108,0.429,2.956,1.031c1.031-2.932,1.597-6.081,1.597-9.36V37.271c0-15.608-12.698-28.306-28.306-28.306
				c-15.609,0-28.307,12.698-28.307,28.306v16.232c0,10.339,5.574,19.398,13.873,24.338L47.529,73.122z"/>
			<g>
				<g>
					<path class="st5" d="M16.811,25.457c-1.352,0-2.449-1.097-2.449-2.449V10.654c0-3.786,3.08-6.866,6.866-6.866h12.145
						c1.352,0,2.449,1.097,2.449,2.449s-1.097,2.449-2.449,2.449H21.229c-1.086,0-1.968,0.883-1.968,1.968v12.354
						C19.26,24.36,18.164,25.457,16.811,25.457z"/>
					<path class="st5" d="M107.189,25.457c1.352,0,2.449-1.097,2.449-2.449V10.654c0-3.786-3.08-6.866-6.866-6.866H90.626
						c-1.352,0-2.449,1.097-2.449,2.449s1.097,2.449,2.449,2.449h12.145c1.086,0,1.968,0.883,1.968,1.968v12.354
						C104.74,24.36,105.836,25.457,107.189,25.457z"/>
				</g>
				<g>
					<path class="st5" d="M107.188,65.318c-1.352,0-2.449,1.097-2.449,2.449v12.354c0,1.086-0.883,1.968-1.968,1.968h-0.743
						l0.039,4.898h0.703c3.786,0,6.866-3.08,6.866-6.866V67.767C109.638,66.415,108.541,65.318,107.188,65.318z"/>
					<path class="st5" d="M16.811,65.318c-1.352,0-2.449,1.097-2.449,2.449v12.354c0,3.786,3.08,6.866,6.866,6.866h12.145
						c1.352,0,2.449-1.097,2.449-2.449s-1.097-2.449-2.449-2.449H21.229c-1.086,0-1.968-0.883-1.968-1.968V67.767
						C19.26,66.415,18.164,65.318,16.811,65.318z"/>
				</g>
			</g>
			<g>
				<g>
					<path class="st6" d="M96.623,67.45c-2.167-0.184-4.091,0.825-5.241,2.426l-0.037,0l-0.015-1.925
						c-0.025-3.163-2.417-5.979-5.576-6.119c-3.37-0.149-6.135,2.552-6.108,5.882c-0.026-3.226-2.662-5.82-5.888-5.794h0
						c-2.656,0.021-4.858,1.823-5.548,4.256l-0.229-28.444c-0.026-3.233-2.47-6.111-5.7-6.254c-3.445-0.153-6.271,2.609-6.243,6.013
						l0.278,34.556c-0.574-2.659-2.763-4.814-5.544-4.938c-3.445-0.153-6.271,2.609-6.243,6.013L44.66,89.47
						c0.138,17.101,10.921,30.879,28.022,30.741c16.376-0.132,29.544-13.514,29.412-29.89l-0.135-16.837
						C101.935,70.425,99.673,67.709,96.623,67.45z"/>
					<path class="st2" d="M96.624,67.45c-2.167-0.184-4.092,0.825-5.241,2.426l-0.037,0l-0.016-1.925
						c-0.026-3.163-2.417-5.979-5.576-6.119c-3.37-0.149-6.135,2.552-6.108,5.882c-0.026-3.226-2.662-5.82-5.888-5.794h0
						c-2.656,0.021-4.858,1.823-5.548,4.256l-0.229-28.444c-0.026-3.233-2.47-6.111-5.7-6.254c-3.444-0.153-6.271,2.609-6.243,6.013
						l0.278,34.556c-0.441-2.046-1.844-3.784-3.732-4.537v0.007c-0.202-0.082-0.409-0.155-0.622-0.212
						c-2.57,0.683-4.455,3.034-4.432,5.816L47.66,89.47c0.105,13.089,6.452,24.22,17.09,28.666v1.046
						c0.918,0.257,1.87,0.452,2.839,0.615l0.019,0.018c1.623,0.27,3.313,0.411,5.074,0.396
						c16.376-0.132,29.544-13.514,29.412-29.889l-0.135-16.837C101.935,70.425,99.673,67.709,96.624,67.45z"/>
					<g>
						<path class="st7" d="M85.634,37.271v16.232c0,0.553,0.447,1,1,1s1-0.447,1-1V37.271c0-4.294-1.088-8.546-3.146-12.296
							c-0.267-0.483-0.871-0.659-1.358-0.396c-0.484,0.267-0.661,0.874-0.396,1.358C84.631,29.394,85.634,33.313,85.634,37.271z"/>
						<path class="st7" d="M62.001,13.638c6.64,0,13.017,2.83,17.496,7.764c0.373,0.41,1.005,0.439,1.412,0.068
							c0.409-0.371,0.439-1.004,0.068-1.412c-4.857-5.352-11.774-8.42-18.977-8.42c-14.135,0-25.635,11.499-25.635,25.633v6.465
							c0,0.553,0.447,1,1,1s1-0.447,1-1v-6.465C38.366,24.239,48.969,13.638,62.001,13.638z"/>
						<path class="st7" d="M62.001,15.312c-5.492,0-10.753,2.045-14.811,5.76c-0.408,0.372-0.436,1.005-0.063,1.412
							c0.373,0.408,1.006,0.436,1.412,0.063c3.688-3.375,8.47-5.234,13.461-5.234c11.006,0,19.959,8.953,19.959,19.959v11.526
							c0,0.553,0.447,1,1,1s1-0.447,1-1V37.271C83.96,25.162,74.109,15.312,62.001,15.312z"/>
						<path class="st7" d="M45.714,53.503V40.985c0-0.553-0.447-1-1-1s-1,0.447-1,1v12.518c0,2.287,0.418,4.518,1.243,6.63
							c0.154,0.396,0.532,0.637,0.932,0.637c0.121,0,0.244-0.021,0.363-0.068c0.515-0.201,0.77-0.781,0.568-1.295
							C46.086,57.525,45.714,55.54,45.714,53.503z"/>
						<path class="st7" d="M79.507,58.791c0.518-1.71,0.779-3.489,0.779-5.288V37.271c0-0.553-0.447-1-1-1s-1,0.447-1,1v16.232
							c0,1.603-0.233,3.188-0.693,4.71c-0.16,0.528,0.139,1.087,0.668,1.246c0.096,0.029,0.193,0.043,0.289,0.043
							C78.98,59.502,79.376,59.224,79.507,58.791z"/>
						<path class="st7" d="M77.759,28.001c-3.284-5.561-9.321-9.016-15.758-9.016c-10.084,0-18.287,8.203-18.287,18.285
							c0,0.553,0.447,1,1,1s1-0.447,1-1c0-8.979,7.307-16.285,16.287-16.285c5.731,0,11.11,3.078,14.035,8.033
							c0.281,0.476,0.895,0.633,1.37,0.353C77.882,29.09,78.039,28.477,77.759,28.001z"/>
						<path class="st7" d="M61.093,28.378c0.299-0.03,0.602-0.046,0.908-0.046c4.929,0,8.938,4.01,8.938,8.938v7.444
							c0,0.553,0.447,1,1,1s1-0.447,1-1v-7.444c0-6.031-4.907-10.938-10.938-10.938c-0.373,0-0.742,0.02-1.107,0.056
							c-0.55,0.055-0.95,0.545-0.896,1.095C60.054,28.031,60.541,28.427,61.093,28.378z"/>
						<path class="st7" d="M16.812,26.457c1.902,0,3.449-1.547,3.449-3.449V10.653c0-0.533,0.435-0.968,0.968-0.968h12.146
							c1.901,0,3.448-1.547,3.448-3.449s-1.547-3.449-3.448-3.449H21.229c-4.338,0-7.866,3.528-7.866,7.866v12.354
							C13.362,24.91,14.909,26.457,16.812,26.457z M15.362,10.653c0-3.234,2.632-5.866,5.866-5.866h12.146
							c0.799,0,1.448,0.65,1.448,1.449s-0.649,1.449-1.448,1.449H21.229c-1.637,0-2.968,1.331-2.968,2.968v12.354
							c0,0.799-0.65,1.449-1.449,1.449s-1.449-0.65-1.449-1.449V10.653z"/>
						<path class="st7" d="M102.771,2.787H90.626c-1.901,0-3.448,1.547-3.448,3.449s1.547,3.449,3.448,3.449h12.146
							c0.533,0,0.968,0.435,0.968,0.968v12.354c0,1.902,1.547,3.449,3.449,3.449s3.449-1.547,3.449-3.449V10.653
							C110.638,6.315,107.109,2.787,102.771,2.787z M108.638,23.008c0,0.799-0.65,1.449-1.449,1.449s-1.449-0.65-1.449-1.449V10.653
							c0-1.637-1.331-2.968-2.968-2.968H90.626c-0.799,0-1.448-0.65-1.448-1.449s0.649-1.449,1.448-1.449h12.146
							c3.234,0,5.866,2.632,5.866,5.866V23.008z"/>
						<path class="st7" d="M107.188,64.318c-1.902,0-3.449,1.547-3.449,3.449v12.354c0,0.446-0.309,0.806-0.719,0.918l-0.061-7.562
							c-0.029-3.644-2.775-6.729-6.251-7.023c-1.588-0.143-3.12,0.274-4.39,1.133c-0.114-1.999-1.045-3.807-2.439-5.051
							c0.925-2.847,1.427-5.882,1.427-9.033V37.271c0-16.159-13.146-29.306-29.306-29.306c-16.16,0-29.308,13.146-29.308,29.306
							v16.232c0,9.169,4.245,17.353,10.86,22.729l0.107,13.247c0.148,18.431,12.235,31.735,28.781,31.734
							c0.082,0,0.167,0,0.249-0.001c8.505-0.068,16.672-3.714,22.407-10.002c0.372-0.408,0.343-1.04-0.065-1.413
							c-0.407-0.372-1.041-0.345-1.413,0.065c-5.36,5.878-12.995,9.285-20.944,9.35c-0.082,0.001-0.161,0.001-0.243,0.001
							c-15.634,0-26.63-12.199-26.771-29.75l-0.132-16.349c-0.011-1.377,0.529-2.662,1.521-3.618
							c0.992-0.956,2.291-1.45,3.679-1.388c2.186,0.097,4.059,1.771,4.589,4.079l0.148,18.381c0.005,0.55,0.451,0.992,1,0.992
							c0.003,0,0.005,0,0.008,0c0.553-0.005,0.997-0.456,0.992-1.008L57.315,72.04l-0.277-34.558
							c-0.012-1.376,0.528-2.66,1.52-3.617s2.287-1.44,3.68-1.388c2.593,0.115,4.722,2.477,4.744,5.263l0.229,28.444
							c0,0.008,0.004,0.016,0.005,0.024l0.088,10.913c0.005,0.55,0.451,0.992,1,0.992c0.003,0,0.005,0,0.008,0
							c0.553-0.005,0.997-0.456,0.992-1.008l-0.087-10.775c0.63-2.026,2.438-3.393,4.55-3.411c1.323-0.03,2.513,0.483,3.435,1.39
							c0.922,0.907,1.435,2.119,1.445,3.412l0.075,9.308c0.005,0.55,0.451,0.992,1,0.992c0.003,0,0.005,0,0.008,0
							c0.553-0.005,0.997-0.456,0.992-1.008l-0.075-9.308c0-0.001,0-0.001,0-0.002c-0.011-1.341,0.516-2.592,1.481-3.523
							c0.966-0.931,2.247-1.399,3.582-1.351c2.526,0.112,4.6,2.413,4.621,5.128l0.01,1.213c0,0,0,0,0,0l0.063,7.784
							c0.005,0.55,0.451,0.992,1,0.992c0.003,0,0.005,0,0.008,0c0.553-0.005,0.997-0.456,0.992-1.008l-0.053-6.67
							c1.018-1.279,2.569-1.957,4.189-1.826c2.458,0.209,4.4,2.426,4.421,5.047l0.136,16.837c0.026,3.331-0.513,6.598-1.604,9.71
							c-0.183,0.521,0.092,1.092,0.612,1.274c0.523,0.187,1.093-0.092,1.274-0.612c1.168-3.331,1.745-6.826,1.717-10.388
							l-0.019-2.343c4.196-0.162,7.562-3.616,7.562-7.851V67.768C110.638,65.865,109.091,64.318,107.188,64.318z M77.99,62.356
							c0.157-0.277,0.309-0.559,0.449-0.847c0.242-0.496,0.037-1.096-0.459-1.338c-0.496-0.243-1.094-0.036-1.338,0.459
							c-0.124,0.253-0.258,0.5-0.396,0.744c-0.544-0.208-1.114-0.348-1.701-0.411c1.307-2.185,2.067-4.733,2.067-7.46V37.271
							c0-8.058-6.555-14.612-14.611-14.612c-8.058,0-14.613,6.555-14.613,14.612v13.106c0,0.553,0.447,1,1,1s1-0.447,1-1V37.271
							c0-6.954,5.658-12.612,12.613-12.612c6.954,0,12.611,5.658,12.611,12.612v16.232c0,2.888-0.98,5.547-2.62,7.673
							c-1.052,0.296-2.016,0.839-2.81,1.576l-0.008-1.005c2.304-2.006,3.765-4.956,3.765-8.244v-3.126c0-0.553-0.447-1-1-1
							s-1,0.447-1,1v3.126c0,2.002-0.672,3.843-1.788,5.333l-0.17-21.111c-0.031-3.833-3.017-7.083-6.656-7.245
							c-1.927-0.087-3.766,0.605-5.156,1.946c-1.39,1.342-2.146,3.144-2.131,5.073l0.175,21.79
							c-1.335-1.561-2.153-3.576-2.153-5.786V37.271c0-2.8,1.28-5.387,3.514-7.098c0.438-0.336,0.521-0.964,0.186-1.402
							c-0.336-0.438-0.963-0.521-1.402-0.186c-2.73,2.093-4.297,5.258-4.297,8.686v16.232c0,3.475,1.639,6.563,4.175,8.567
							l0.017,2.058c-2.849-1.81-4.958-4.724-5.636-8.223c-0.105-0.541-0.624-0.902-1.172-0.791c-0.542,0.104-0.896,0.63-0.791,1.172
							c0.869,4.485,3.77,8.135,7.617,10.142l0.014,1.688c-0.937-0.937-2.115-1.591-3.408-1.865c-1.459-1.162-2.736-2.58-3.754-4.233
							c-0.291-0.47-0.907-0.617-1.376-0.327c-0.471,0.29-0.616,0.906-0.327,1.376c0.729,1.182,1.577,2.255,2.518,3.219
							c-0.585,0.134-1.148,0.34-1.679,0.62c-3.229-3.547-5.219-8.24-5.219-13.403V37.271c0-3.302,0.826-6.573,2.391-9.463
							c0.263-0.485,0.082-1.092-0.404-1.355c-0.485-0.26-1.092-0.082-1.355,0.404c-1.721,3.18-2.631,6.781-2.631,10.414v16.232
							c0,5.6,2.128,10.699,5.593,14.582c-0.419,0.409-0.773,0.864-1.072,1.348c-3.844-4.205-6.194-9.797-6.194-15.93v-3.399
							c0-0.553-0.447-1-1-1s-1,0.447-1,1v3.399c0,6.984,2.812,13.32,7.358,17.948c-0.129,0.543-0.201,1.104-0.196,1.679l0.004,0.448
							c-5.426-4.992-8.839-12.138-8.839-20.075V37.271c0-15.057,12.25-27.306,27.308-27.306c15.057,0,27.306,12.249,27.306,27.306
							v16.232c0,2.746-0.434,5.387-1.192,7.888c-0.508-0.227-1.044-0.392-1.603-0.482c0.23-0.736,0.442-1.48,0.6-2.247
							c0.111-0.541-0.237-1.069-0.778-1.181c-0.548-0.11-1.07,0.238-1.181,0.778c-0.187,0.909-0.445,1.787-0.734,2.651
							c-0.7,0.109-1.372,0.324-1.999,0.639c0.988-2.494,1.541-5.205,1.541-8.047c0-0.553-0.447-1-1-1s-1,0.447-1,1
							c0,3.674-1.011,7.111-2.751,10.07c-0.187-0.24-0.386-0.471-0.606-0.688C78.408,62.694,78.202,62.521,77.99,62.356z
							 M108.638,80.121c0,3.137-2.478,5.7-5.578,5.852l-0.023-2.91c1.511-0.136,2.703-1.396,2.703-2.942V67.768
							c0-0.799,0.65-1.449,1.449-1.449s1.449,0.65,1.449,1.449V80.121z"/>
						<path class="st7" d="M33.374,81.09H21.229c-0.533,0-0.968-0.435-0.968-0.969V67.768c0-1.902-1.547-3.449-3.449-3.449
							s-3.449,1.547-3.449,3.449v12.354c0,4.338,3.528,7.866,7.866,7.866h12.146c1.901,0,3.448-1.547,3.448-3.448
							C36.822,82.637,35.275,81.09,33.374,81.09z M33.374,85.987H21.229c-3.234,0-5.866-2.632-5.866-5.866V67.768
							c0-0.799,0.65-1.449,1.449-1.449s1.449,0.65,1.449,1.449v12.354c0,1.637,1.331,2.969,2.968,2.969h12.146
							c0.799,0,1.448,0.65,1.448,1.449S34.173,85.987,33.374,85.987z"/>
						<path class="st7" d="M99.125,103.549c-0.484-0.259-1.093-0.073-1.352,0.416c-0.488,0.921-1.035,1.829-1.627,2.698
							c-0.312,0.456-0.193,1.078,0.264,1.389c0.172,0.118,0.368,0.174,0.562,0.174c0.32,0,0.634-0.153,0.827-0.438
							c0.634-0.93,1.22-1.901,1.742-2.888C99.8,104.413,99.613,103.808,99.125,103.549z"/>
					</g>
				</g>
			</g>
		</g>
	</g>
</g>
</svg>
