<?xml version="1.0" encoding="utf-8"?>
<!-- Generator: Adobe Illustrator 22.0.1, SVG Export Plug-In . SVG Version: 6.00 Build 0)  -->
<svg version="1.1" id="Layer_1" xmlns="http://www.w3.org/2000/svg" xmlns:xlink="http://www.w3.org/1999/xlink" x="0px" y="0px"
	 viewBox="0 0 128 128" style="enable-background:new 0 0 128 128;" xml:space="preserve">
<style type="text/css">
	.st0{fill:#263238;}
	.st1{fill:#E6E7E8;}
	.st2{fill:#FFD7E5;}
	.st3{fill:#0089EF;}
	.st4{fill:#6DC9F7;}
	.st5{fill:#FA759E;}
	.st6{fill:#FFFFFF;}
	.st7{fill:#3A2C60;}
	.st8{fill:#D4FBFF;}
</style>
<g>
	<g>
		<path class="st1" d="M109.963,77.142h-2.414c0.186-0.519,0.306-1.069,0.306-1.651c0-2.713-2.207-4.92-4.921-4.92
			c-2.713,0-4.92,2.208-4.92,4.92c0,0.582,0.119,1.133,0.306,1.651h-2.414c-3.173,0-5.755,2.582-5.755,5.754v22.146
			c0,3.173,2.582,5.755,5.755,5.755h14.058c3.173,0,5.755-2.582,5.755-5.755V82.896C115.718,79.723,113.136,77.142,109.963,77.142z"
			/>
		<path class="st1" d="M93.731,68.164c0.573,0.759,1.442,1.164,2.344,1.164c0.509,0,1.028-0.129,1.511-0.397
			c1.649-0.917,3.454-1.397,5.333-1.428c1.911,0.03,3.716,0.511,5.364,1.428c1.336,0.744,2.957,0.421,3.907-0.836
			c0.513-0.679,0.707-1.546,0.532-2.378c-0.177-0.847-0.715-1.578-1.476-2.004c-2.486-1.395-5.206-2.137-8.096-2.207l-0.41-0.005
			c-0.046-0.002-0.091,0.001-0.136,0.008c-2.839,0.084-5.524,0.826-7.983,2.204c-0.76,0.426-1.298,1.156-1.475,2.003
			c-0.175,0.833,0.02,1.7,0.53,2.377l0.052,0.069C93.73,68.163,93.73,68.163,93.731,68.164z"/>
		<path class="st1" d="M116.001,56.487c-3.876-2.294-8.317-3.544-12.854-3.617l-0.41-0.003c-0.032-0.001-0.072,0.001-0.107,0.005
			c-4.501,0.086-8.912,1.335-12.763,3.615c-0.7,0.415-1.199,1.112-1.369,1.914c-0.173,0.811,0.003,1.664,0.533,2.411
			c0.895,1.259,2.582,1.611,3.924,0.82c3.011-1.774,6.464-2.73,9.969-2.764c3.523,0.034,6.978,0.989,9.989,2.764
			c0.482,0.285,1.009,0.421,1.527,0.421c0.925,0,1.823-0.435,2.396-1.241l0.051-0.071c0.479-0.675,0.655-1.527,0.483-2.338
			C117.201,57.6,116.701,56.902,116.001,56.487z"/>
		<path class="st1" d="M122.264,51.667c-0.158-0.799-0.646-1.505-1.336-1.936c-5.32-3.322-11.468-5.118-17.783-5.194l-0.41-0.002
			c-0.03-0.002-0.059,0-0.088,0.003c-6.284,0.088-12.405,1.883-17.706,5.193c-0.69,0.431-1.178,1.136-1.336,1.935
			c-0.159,0.799,0.021,1.637,0.492,2.299l0.051,0.071c0,0,0,0,0,0.001c0.572,0.802,1.48,1.234,2.405,1.234
			c0.534,0,1.074-0.145,1.557-0.447c4.437-2.77,9.564-4.253,14.817-4.29c5.268,0.036,10.396,1.52,14.831,4.29
			c1.316,0.823,3.057,0.478,4.012-0.858C122.243,53.305,122.423,52.467,122.264,51.667z M84.962,53.457
			C84.962,53.457,84.962,53.457,84.962,53.457L84.962,53.457L84.962,53.457z"/>
		<path class="st1" d="M84.292,91.24v-9.575c0-2.378-1.152-4.486-2.922-5.814h1.358c2.067,0,3.75-1.682,3.75-3.75
			s-1.683-3.75-3.75-3.75h-4.349c-1.038,0-1.978,0.425-2.658,1.108l-1.539-7.604c-0.855-4.229-4.608-7.299-8.924-7.299H50.083
			V41.561c2.138-0.461,3.746-2.362,3.746-4.635c0-2.617-2.129-4.746-4.746-4.746c-2.616,0-4.745,2.129-4.745,4.746
			c0,2.273,1.608,4.174,3.745,4.635v12.995H32.907c-4.315,0-8.068,3.07-8.924,7.299l-1.539,7.604
			c-0.68-0.684-1.62-1.108-2.658-1.108h-4.349c-2.067,0-3.75,1.682-3.75,3.75s1.683,3.75,3.75,3.75h1.358
			c-1.77,1.328-2.923,3.436-2.923,5.814v9.575c-2.404,0.585-4.195,2.751-4.195,5.332c0,3.029,2.464,5.493,5.493,5.493h4.843v5.437
			c0,1.267,1.027,2.295,2.295,2.295h6.885c1.267,0,2.295-1.027,2.295-2.295v-5.437h35.188v5.437c0,1.267,1.027,2.295,2.295,2.295
			h6.885c1.267,0,2.295-1.027,2.295-2.295v-5.437h4.843c3.029,0,5.493-2.464,5.493-5.493C88.488,93.991,86.696,91.825,84.292,91.24z
			"/>
		<path class="st1" d="M48.895,28.845c1.654,0,3-1.346,3-3v-1.642c0-1.654-1.346-3-3-3s-3,1.346-3,3v1.642
			C45.895,27.5,47.24,28.845,48.895,28.845z"/>
		<path class="st1" d="M56.894,32.002c0.801,0,1.555-0.312,2.121-0.879l1.161-1.161c0.566-0.566,0.878-1.32,0.878-2.122
			s-0.312-1.555-0.878-2.121c-1.133-1.134-3.109-1.134-4.242,0l-1.161,1.161c-0.566,0.566-0.878,1.32-0.878,2.122
			s0.312,1.555,0.878,2.121C55.339,31.69,56.093,32.002,56.894,32.002z"/>
		<path class="st1" d="M57.318,36.89c0,1.654,1.346,3,3,3h1.643c1.654,0,3-1.346,3-3s-1.346-3-3-3h-1.643
			C58.663,33.89,57.318,35.235,57.318,36.89z"/>
		<path class="st1" d="M38.885,31.391c0.566,0.567,1.32,0.879,2.121,0.879s1.555-0.312,2.121-0.878s0.878-1.32,0.878-2.122
			s-0.312-1.555-0.878-2.121l-1.161-1.162c-1.133-1.134-3.109-1.133-4.242,0c-0.566,0.566-0.878,1.32-0.878,2.122
			s0.312,1.555,0.878,2.121L38.885,31.391z"/>
		<path class="st1" d="M36.207,40.269h1.643c1.654,0,3-1.346,3-3s-1.346-3-3-3h-1.643c-1.654,0-3,1.346-3,3
			S34.553,40.269,36.207,40.269z"/>
	</g>
	<g>
		<g>
			<g>
				<path class="st4" d="M105.963,105.797H91.905c-2.626,0-4.755-2.129-4.755-4.755V78.896c0-2.626,2.129-4.755,4.755-4.755h14.058
					c2.626,0,4.755,2.129,4.755,4.755v22.146C110.718,103.668,108.589,105.797,105.963,105.797z"/>
				<circle class="st5" cx="98.934" cy="83.556" r="5.456"/>
				<circle class="st5" cx="93.478" cy="93.365" r="1.711"/>
				<circle class="st5" cx="104.39" cy="93.365" r="1.711"/>
				<circle class="st5" cx="93.478" cy="99.896" r="1.711"/>
				<circle class="st5" cx="104.39" cy="99.896" r="1.711"/>
				<g>
					<g>
						<path class="st4" d="M90.528,63.561l-0.052-0.069c-0.724-0.958-0.413-2.32,0.634-2.907c2.324-1.303,4.915-2.014,7.618-2.079
							v-0.005l0.41,0.005c2.703,0.065,5.295,0.776,7.618,2.078c1.047,0.587,1.358,1.95,0.634,2.908l-0.052,0.069
							c-0.604,0.799-1.696,0.982-2.57,0.495c-1.779-0.989-3.764-1.521-5.835-1.554c-2.07,0.033-4.056,0.565-5.835,1.554
							C92.224,64.543,91.132,64.36,90.528,63.561z"/>
						<path class="st4" d="M112.022,56.233c-0.592,0.834-1.72,1.057-2.601,0.538c-3.174-1.87-6.762-2.867-10.487-2.902
							c-3.726,0.035-7.314,1.032-10.486,2.902c-0.881,0.519-2.008,0.296-2.601-0.538l-0.051-0.071
							c-0.659-0.928-0.398-2.234,0.581-2.814c3.739-2.214,7.963-3.407,12.352-3.477v-0.003l0.41,0.003
							c4.388,0.07,8.612,1.263,12.352,3.477c0.979,0.58,1.24,1.886,0.581,2.814L112.022,56.233z"/>
						<path class="st4" d="M80.962,49.457l-0.051-0.071c-0.656-0.92-0.4-2.207,0.558-2.805c5.181-3.235,11.099-4.968,17.26-5.042
							v-0.002l0.41,0.002c6.161,0.074,12.079,1.807,17.259,5.042c0.959,0.599,1.215,1.886,0.558,2.806l-0.051,0.072
							c-0.599,0.839-1.745,1.066-2.619,0.52c-4.603-2.876-9.871-4.404-15.353-4.441c-5.481,0.037-10.749,1.566-15.353,4.441
							C82.707,50.523,81.561,50.296,80.962,49.457z"/>
					</g>
					<circle class="st6" cx="98.934" cy="71.49" r="3.92"/>
					<path class="st5" d="M100.434,67.87c-1.42,0.589-2.42,1.987-2.42,3.62c0,1.633,1,3.031,2.42,3.62
						c1.42-0.589,2.42-1.987,2.42-3.62C102.855,69.857,101.855,68.459,100.434,67.87z"/>
				</g>
			</g>
		</g>
		<g>
			<g>
				<path class="st5" d="M78.456,88.079h0.539c0.102,0,0.198,0.023,0.298,0.03V77.665c0-3.464-2.808-6.272-6.272-6.272H17.146
					c-3.464,0-6.272,2.808-6.272,6.272v10.414h0.298H78.456z"/>
				<path class="st2" d="M78.994,97.065H11.172c-2.482,0-4.493-2.012-4.493-4.493v0c0-2.482,2.012-4.493,4.493-4.493h67.822
					c2.482,0,4.493,2.012,4.493,4.493v0C83.488,95.053,81.476,97.065,78.994,97.065z"/>
				<g>
					<path class="st6" d="M61.452,82.447c1.64-1.619,5.383-4.205,12.635-4.332c0.351-0.006,0.669,0.214,0.792,0.542
						c0.455,1.215,1.191,4.09-1.637,4.876c-2.681,0.745-8.454,0.495-11.26,0.317C61.275,83.805,60.948,82.946,61.452,82.447z"/>
					<path class="st6" d="M28.714,82.447c-1.64-1.619-5.383-4.205-12.635-4.332c-0.351-0.006-0.669,0.214-0.792,0.542
						c-0.455,1.215-1.191,4.09,1.637,4.876c2.681,0.745,8.454,0.495,11.26,0.317C28.891,83.805,29.219,82.946,28.714,82.447z"/>
				</g>
				<path class="st5" d="M69.202,58.053c-0.765-3.78-4.087-6.497-7.943-6.497H45.083H28.907c-3.856,0-7.178,2.717-7.943,6.497
					l-2.7,13.34h26.819h26.819L69.202,58.053z"/>
				<path class="st8" d="M22.524,66.946l1.667-8.24c0.454-2.244,2.427-3.858,4.717-3.858h32.351c2.289,0,4.262,1.613,4.716,3.857
					l1.668,8.24c0.121,0.597-0.336,1.155-0.945,1.155H23.469C22.859,68.101,22.403,67.543,22.524,66.946z"/>
				<g>
					<path class="st6" d="M57.004,54.849l-7.398,13.252h4.387l7.368-13.198c-0.206-0.027-0.412-0.055-0.624-0.055H57.004z"/>
					<polygon class="st6" points="42.417,68.101 46.804,68.101 54.202,54.849 49.815,54.849 					"/>
					<polygon class="st6" points="28.806,68.101 33.193,68.101 40.591,54.849 36.204,54.849 					"/>
				</g>
				<g>
					<path class="st5" d="M15.787,70.851h-4.349c-1.519,0-2.75-1.231-2.75-2.75v0c0-1.519,1.231-2.75,2.75-2.75h4.349
						c1.519,0,2.75,1.231,2.75,2.75v0C18.537,69.62,17.306,70.851,15.787,70.851z"/>
					<path class="st5" d="M78.728,70.851h-4.349c-1.519,0-2.75-1.231-2.75-2.75v0c0-1.519,1.231-2.75,2.75-2.75h4.349
						c1.519,0,2.75,1.231,2.75,2.75v0C81.478,69.62,80.247,70.851,78.728,70.851z"/>
				</g>
			</g>
			<g>
				<path class="st5" d="M45.083,29.181c-2.068,0-3.745,1.677-3.745,3.745s1.677,3.745,3.745,3.745c2.069,0,3.746-1.677,3.746-3.745
					S47.152,29.181,45.083,29.181z"/>
				<path class="st4" d="M44.894,23.845c-1.103,0-2-0.897-2-2v-1.642c0-1.103,0.897-2,2-2s2,0.897,2,2v1.642
					C46.894,22.948,45.997,23.845,44.894,23.845z"/>
				<path class="st4" d="M52.893,27.002c-0.534,0-1.036-0.208-1.414-0.586c-0.78-0.78-0.78-2.048,0-2.828l1.161-1.162
					c0.378-0.378,0.88-0.586,1.414-0.586s1.036,0.208,1.414,0.586c0.78,0.78,0.78,2.048,0,2.828l-1.161,1.162
					C53.929,26.794,53.428,27.002,52.893,27.002z"/>
				<path class="st4" d="M56.317,34.889c-1.103,0-2-0.897-2-2s0.897-2,2-2h1.643c1.103,0,2,0.897,2,2s-0.897,2-2,2H56.317z"/>
				<path class="st4" d="M37.006,27.269c-0.534,0-1.036-0.208-1.414-0.586l-1.161-1.162c-0.78-0.78-0.78-2.048,0-2.828
					c0.378-0.378,0.88-0.586,1.414-0.586s1.036,0.208,1.414,0.586l1.161,1.162c0.78,0.78,0.78,2.048,0,2.828
					C38.042,27.061,37.54,27.269,37.006,27.269z"/>
				<g>
					<path class="st4" d="M32.207,35.268c-1.103,0-2-0.897-2-2s0.897-2,2-2h1.643c1.103,0,2,0.897,2,2s-0.897,2-2,2H32.207z"/>
					<g>
						<path class="st7" d="M105.963,73.142h-2.414c0.186-0.519,0.306-1.069,0.306-1.651c0-2.713-2.207-4.92-4.92-4.92
							c-2.714,0-4.921,2.208-4.921,4.92c0,0.582,0.119,1.133,0.306,1.651h-2.414c-3.173,0-5.755,2.582-5.755,5.754v22.146
							c0,3.173,2.582,5.755,5.755,5.755h14.058c3.173,0,5.755-2.582,5.755-5.755V78.896
							C111.718,75.723,109.136,73.142,105.963,73.142z M98.934,68.57c1.61,0,2.92,1.31,2.92,2.92s-1.31,2.92-2.92,2.92
							s-2.921-1.31-2.921-2.92S97.324,68.57,98.934,68.57z M109.718,101.042c0,2.07-1.685,3.755-3.755,3.755H91.905
							c-2.07,0-3.755-1.685-3.755-3.755V78.896c0-2.07,1.685-3.754,3.755-3.754h3.762c0.871,0.78,2.009,1.269,3.268,1.269
							c1.258,0,2.396-0.489,3.267-1.269h3.762c2.07,0,3.755,1.684,3.755,3.754V101.042z"/>
						<path class="st7" d="M105.39,83.556c0-3.56-2.896-6.457-6.456-6.457s-6.456,2.896-6.456,6.457s2.896,6.456,6.456,6.456
							S105.39,87.116,105.39,83.556z M98.934,88.012c-2.457,0-4.456-1.999-4.456-4.456c0-2.458,1.999-4.457,4.456-4.457
							s4.456,1.999,4.456,4.457C103.39,86.013,101.391,88.012,98.934,88.012z"/>
						<path class="st7" d="M93.478,90.654c-1.495,0-2.711,1.216-2.711,2.711s1.216,2.71,2.711,2.71c1.494,0,2.71-1.216,2.71-2.71
							S94.972,90.654,93.478,90.654z M93.478,94.076c-0.392,0-0.711-0.319-0.711-0.71c0-0.392,0.319-0.711,0.711-0.711
							s0.71,0.319,0.71,0.711C94.188,93.757,93.87,94.076,93.478,94.076z"/>
						<path class="st7" d="M104.39,90.654c-1.495,0-2.711,1.216-2.711,2.711s1.216,2.71,2.711,2.71s2.711-1.216,2.711-2.71
							S105.886,90.654,104.39,90.654z M104.39,94.076c-0.392,0-0.711-0.319-0.711-0.71c0-0.392,0.319-0.711,0.711-0.711
							s0.711,0.319,0.711,0.711C105.101,93.757,104.782,94.076,104.39,94.076z"/>
						<path class="st7" d="M93.478,97.185c-1.495,0-2.711,1.216-2.711,2.711s1.216,2.71,2.711,2.71c1.494,0,2.71-1.216,2.71-2.71
							S94.972,97.185,93.478,97.185z M93.478,100.606c-0.392,0-0.711-0.319-0.711-0.71c0-0.392,0.319-0.711,0.711-0.711
							s0.71,0.319,0.71,0.711C94.188,100.288,93.87,100.606,93.478,100.606z"/>
						<path class="st7" d="M104.39,97.185c-1.495,0-2.711,1.216-2.711,2.711s1.216,2.71,2.711,2.71s2.711-1.216,2.711-2.71
							S105.886,97.185,104.39,97.185z M104.39,100.606c-0.392,0-0.711-0.319-0.711-0.71c0-0.392,0.319-0.711,0.711-0.711
							s0.711,0.319,0.711,0.711C105.101,100.288,104.782,100.606,104.39,100.606z"/>
						<path class="st7" d="M89.73,64.164c0.573,0.759,1.442,1.165,2.344,1.165c0.509,0,1.028-0.13,1.51-0.398
							c1.651-0.917,3.456-1.398,5.335-1.428c1.91,0.03,3.715,0.511,5.364,1.428c1.335,0.744,2.958,0.421,3.906-0.836
							c0.513-0.679,0.707-1.545,0.533-2.378c-0.178-0.847-0.716-1.578-1.476-2.004c-2.486-1.395-5.206-2.137-8.096-2.207
							l-0.41-0.005c-0.05-0.002-0.091,0.001-0.136,0.008c-2.84,0.084-5.526,0.826-7.983,2.204c-0.761,0.426-1.298,1.157-1.476,2.004
							c-0.175,0.833,0.02,1.7,0.53,2.376l0.052,0.069C89.729,64.163,89.729,64.163,89.73,64.164z M91.274,62.89
							c-0.167-0.221-0.228-0.492-0.171-0.763c0.06-0.282,0.24-0.526,0.497-0.67c2.198-1.233,4.605-1.89,7.153-1.952
							c0.021,0,0.042-0.001,0.063-0.003l0.299,0.003c2.548,0.062,4.954,0.718,7.153,1.951c0.256,0.144,0.438,0.388,0.496,0.669
							c0.057,0.271-0.004,0.542-0.223,0.832c-0.289,0.383-0.832,0.478-1.286,0.225c-1.94-1.079-4.063-1.644-6.337-1.68
							c-2.243,0.036-4.364,0.602-6.307,1.68c-0.454,0.254-0.996,0.158-1.286-0.225L91.274,62.89z"/>
						<path class="st7" d="M112.001,52.487c-3.875-2.294-8.316-3.544-12.853-3.617l-0.41-0.003
							c-0.038-0.001-0.072,0.001-0.107,0.005c-4.502,0.086-8.913,1.335-12.762,3.615c-0.701,0.415-1.201,1.112-1.371,1.914
							c-0.173,0.812,0.004,1.665,0.534,2.411c0.572,0.807,1.471,1.242,2.396,1.242c0.519,0,1.046-0.137,1.528-0.421
							c3.011-1.774,6.464-2.73,9.969-2.764c3.524,0.034,6.978,0.989,9.988,2.764c1.342,0.791,3.03,0.438,3.924-0.821l0.051-0.071
							c0.479-0.675,0.656-1.528,0.483-2.34C113.201,53.599,112.701,52.902,112.001,52.487z M111.258,55.582l-0.051,0.071
							c0,0-0.001,0.001-0.001,0.001c-0.287,0.406-0.836,0.514-1.277,0.255c-3.313-1.953-7.11-3.004-11.004-3.041
							c-3.874,0.037-7.672,1.088-10.984,3.041c-0.439,0.258-0.989,0.151-1.328-0.327c-0.159-0.224-0.216-0.496-0.158-0.766
							c0.056-0.26,0.209-0.476,0.434-0.609c3.574-2.117,7.675-3.271,11.857-3.337c0.02,0,0.04-0.001,0.059-0.003l0.32,0.003
							c4.182,0.066,8.282,1.221,11.858,3.338c0.224,0.132,0.377,0.349,0.433,0.608C111.472,55.086,111.416,55.358,111.258,55.582z"
							/>
						<path class="st7" d="M118.263,47.667c-0.158-0.799-0.646-1.504-1.336-1.935c-5.32-3.322-11.467-5.118-17.782-5.194
							l-0.41-0.002c-0.033-0.002-0.059,0-0.088,0.003c-6.285,0.088-12.406,1.883-17.707,5.193c-0.69,0.431-1.178,1.136-1.336,1.935
							c-0.159,0.799,0.021,1.637,0.492,2.299l0.051,0.071c0,0,0,0,0,0.001c0.572,0.802,1.48,1.234,2.405,1.234
							c0.534,0,1.074-0.145,1.558-0.447c4.437-2.77,9.564-4.253,14.817-4.29c5.267,0.036,10.395,1.52,14.83,4.29
							c1.315,0.823,3.059,0.477,4.014-0.859C118.243,49.304,118.423,48.466,118.263,47.667z M116.093,48.875
							c-0.292,0.408-0.853,0.517-1.276,0.254c-4.748-2.966-10.238-4.555-15.889-4.593c-5.637,0.039-11.127,1.627-15.876,4.593
							c-0.428,0.265-0.986,0.153-1.275-0.253l-0.051-0.071c-0.156-0.218-0.213-0.484-0.16-0.748
							c0.053-0.264,0.207-0.487,0.434-0.629c5.01-3.128,10.8-4.819,16.742-4.89c0.018,0,0.035-0.001,0.053-0.002l0.334,0.002
							c5.942,0.071,11.731,1.762,16.741,4.89c0.227,0.142,0.381,0.365,0.434,0.629C116.355,48.321,116.299,48.587,116.093,48.875z"
							/>
						<path class="st7" d="M80.292,87.24v-9.575c0-2.378-1.152-4.486-2.922-5.814h1.359c2.067,0,3.75-1.682,3.75-3.75
							s-1.683-3.75-3.75-3.75h-4.35c-1.038,0-1.977,0.424-2.657,1.108l-1.539-7.604c-0.855-4.229-4.608-7.299-8.923-7.299H46.084
							V37.561c2.137-0.461,3.745-2.362,3.745-4.634c0-2.617-2.129-4.746-4.746-4.746c-2.616,0-4.745,2.129-4.745,4.746
							c0,2.273,1.609,4.174,3.746,4.635v12.995H28.907c-4.314,0-8.067,3.07-8.923,7.299l-1.539,7.604
							c-0.68-0.683-1.62-1.108-2.657-1.108h-4.35c-2.067,0-3.75,1.682-3.75,3.75s1.683,3.75,3.75,3.75h1.359
							c-1.77,1.328-2.922,3.436-2.922,5.814v9.575c-2.404,0.585-4.195,2.751-4.195,5.332c0,3.029,2.464,5.493,5.493,5.493h4.843
							v5.437c0,1.267,1.028,2.295,2.295,2.295h6.885c1.268,0,2.295-1.027,2.295-2.295v-5.437h35.188v5.437
							c0,1.267,1.027,2.295,2.295,2.295h6.885c1.267,0,2.295-1.027,2.295-2.295v-5.437h4.843c3.029,0,5.494-2.464,5.494-5.493
							C84.488,89.991,82.696,87.825,80.292,87.24z M42.338,32.926c0-1.514,1.231-2.746,2.745-2.746c1.515,0,2.746,1.231,2.746,2.746
							c0,1.514-1.231,2.745-2.746,2.745C43.569,35.671,42.338,34.44,42.338,32.926z M74.379,66.351h4.35
							c0.965,0,1.75,0.785,1.75,1.75s-0.785,1.75-1.75,1.75h-4.35c-0.965,0-1.75-0.785-1.75-1.75S73.414,66.351,74.379,66.351z
							 M21.945,58.251c0.667-3.3,3.596-5.695,6.962-5.695H61.26c3.366,0,6.295,2.395,6.962,5.695l2.458,12.142H19.487L21.945,58.251
							z M9.688,68.101c0-0.965,0.785-1.75,1.75-1.75h4.35c0.965,0,1.75,0.785,1.75,1.75s-0.785,1.75-1.75,1.75h-4.35
							C10.473,69.851,9.688,69.066,9.688,68.101z M78.994,96.065H11.173c-1.926,0-3.493-1.567-3.493-3.493s1.567-3.493,3.493-3.493
							h4.048c0.553,0,1-0.448,1-1s-0.447-1-1-1h-3.346v-9.414c0-2.907,2.365-5.272,5.271-5.272h1.118h53.638h1.118
							c2.906,0,5.271,2.365,5.271,5.272v9.414H27.49c-0.553,0-1,0.448-1,1s0.447,1,1,1h51.404c0.122,0.053,0.256,0.084,0.398,0.084
							c0.064,0,0.119-0.025,0.179-0.036c1.7,0.235,3.017,1.682,3.017,3.445C82.488,94.498,80.921,96.065,78.994,96.065z"/>
						<path class="st7" d="M23.126,87.079h-3.588c-0.553,0-1,0.448-1,1s0.447,1,1,1h3.588c0.553,0,1-0.448,1-1
							S23.678,87.079,23.126,87.079z"/>
						<path class="st7" d="M37.957,83.446c0.152,0.21,0.395,0.334,0.654,0.334h5.123c0.446,0,0.807-0.361,0.807-0.807v-3.488
							c0-0.446-0.361-0.807-0.807-0.807h-7.642c-0.658,0-1.039,0.746-0.654,1.279L37.957,83.446z"/>
						<path class="st7" d="M46.433,83.781h5.123c0.259,0,0.502-0.124,0.654-0.334l2.519-3.488c0.385-0.534,0.004-1.279-0.654-1.279
							h-7.642c-0.446,0-0.807,0.361-0.807,0.807v3.488C45.626,83.42,45.987,83.781,46.433,83.781z"/>
						<path class="st7" d="M51.203,90.503h-12.24c-0.252,0-0.457,0.204-0.457,0.457v3.224c0,0.252,0.205,0.457,0.457,0.457h12.24
							c0.252,0,0.457-0.204,0.457-0.457V90.96C51.66,90.708,51.455,90.503,51.203,90.503z"/>
						<path class="st7" d="M44.894,24.845c1.654,0,3-1.346,3-3v-1.642c0-1.654-1.346-3-3-3s-3,1.346-3,3v1.642
							C41.894,23.5,43.24,24.845,44.894,24.845z M43.894,20.203c0-0.551,0.448-1,1-1s1,0.449,1,1v1.642c0,0.551-0.448,1-1,1
							s-1-0.449-1-1V20.203z"/>
						<path class="st7" d="M52.893,28.002c0.801,0,1.555-0.312,2.121-0.879l1.161-1.161c0.566-0.566,0.878-1.32,0.878-2.122
							s-0.312-1.555-0.878-2.121c-1.133-1.134-3.109-1.134-4.242,0l-1.161,1.161c-0.566,0.566-0.878,1.32-0.878,2.122
							s0.312,1.555,0.878,2.121C51.339,27.69,52.093,28.002,52.893,28.002z M52.186,24.295l1.161-1.162
							c0.191-0.191,0.437-0.293,0.707-0.293s0.516,0.102,0.707,0.293c0.188,0.188,0.292,0.439,0.292,0.707s-0.104,0.519-0.292,0.707
							L53.6,25.709c-0.383,0.383-1.031,0.383-1.414,0c-0.188-0.188-0.292-0.439-0.292-0.707S51.998,24.483,52.186,24.295z"/>
						<path class="st7" d="M53.317,32.89c0,1.654,1.346,3,3,3h1.643c1.654,0,3-1.346,3-3s-1.346-3-3-3h-1.643
							C54.663,29.89,53.317,31.235,53.317,32.89z M58.96,32.89c0,0.551-0.448,1-1,1h-1.643c-0.552,0-1-0.449-1-1s0.448-1,1-1h1.643
							C58.511,31.89,58.96,32.338,58.96,32.89z"/>
						<path class="st7" d="M34.885,27.391c0.566,0.567,1.32,0.879,2.121,0.879s1.555-0.312,2.121-0.878s0.878-1.32,0.878-2.122
							s-0.312-1.555-0.878-2.121l-1.161-1.162c-1.133-1.134-3.109-1.133-4.242,0c-0.566,0.566-0.878,1.32-0.878,2.122
							s0.312,1.555,0.878,2.121L34.885,27.391z M35.137,23.401c0.191-0.191,0.437-0.293,0.707-0.293s0.516,0.102,0.707,0.293
							l1.161,1.162c0.188,0.188,0.292,0.439,0.292,0.707s-0.104,0.519-0.292,0.707c-0.383,0.383-1.031,0.383-1.414,0l-1.161-1.162
							c-0.188-0.188-0.292-0.439-0.292-0.707S34.949,23.589,35.137,23.401z"/>
						<path class="st7" d="M32.207,36.269h1.643c1.654,0,3-1.346,3-3s-1.346-3-3-3h-1.643c-1.654,0-3,1.346-3,3
							S30.552,36.269,32.207,36.269z M32.207,32.269h1.643c0.552,0,1,0.449,1,1s-0.448,1-1,1h-1.643c-0.552,0-1-0.449-1-1
							S31.655,32.269,32.207,32.269z"/>
					</g>
				</g>
			</g>
		</g>
	</g>
</g>
</svg>
