<?xml version="1.0" encoding="utf-8"?>
<!-- Generator: Adobe Illustrator 22.0.1, SVG Export Plug-In . SVG Version: 6.00 Build 0)  -->
<svg version="1.1" id="Layer_1" xmlns="http://www.w3.org/2000/svg" xmlns:xlink="http://www.w3.org/1999/xlink" x="0px" y="0px"
	 viewBox="0 0 128 128" style="enable-background:new 0 0 128 128;" xml:space="preserve">
<style type="text/css">
	.st0{fill:#263238;}
	.st1{fill:#E6E7E8;}
	.st2{fill:#FFD7E5;}
	.st3{fill:#0089EF;}
	.st4{fill:#6DC9F7;}
	.st5{fill:#FA759E;}
	.st6{fill:#FFFFFF;}
	.st7{fill:#3A2C60;}
	.st8{fill:#D4FBFF;}
</style>
<g>
	<path class="st1" d="M120.547,100.095L115.43,94.5c-1.296-1.417-3.47-1.653-4.945-0.536v0c-0.446,0.337-0.798,0.761-1.042,1.237
		c-1.017-0.66-2.272-0.796-3.359-0.376V61.331l1.344,1.065c1.607,1.273,3.539,1.947,5.585,1.947c2.792,0,5.379-1.261,7.099-3.46
		c3.034-3.883,2.256-9.614-1.735-12.777l-47.952-38c-3.291-2.608-7.888-2.608-11.179,0L11.277,48.118
		c-3.828,3.033-4.723,8.451-2.036,12.334c1.436,2.075,3.596,3.422,6.082,3.792c2.454,0.369,4.974-0.308,6.917-1.848l1.344-1.065
		v51.22c0,4.021,3.271,7.292,7.292,7.292h67.917c0.666,0,1.307-0.097,1.92-0.265c3.047,2.822,6.647,4.272,10.166,4.272
		c3.137,0,6.209-1.146,8.761-3.479c2.829-2.586,4.481-6.12,4.652-9.95C124.464,106.591,123.134,102.924,120.547,100.095z"/>
	<g>
		<path class="st4" d="M96.327,113.782l-4.968-5.432c-1.034-1.131-0.92-2.906,0.279-3.893c0.968-0.796,2.35-0.734,3.343-0.017
			L84.481,92.957c-1.034-1.131-0.92-2.907,0.279-3.893c1.124-0.925,2.809-0.698,3.792,0.377l8.643,9.452
			c-0.502-1.022-0.307-2.288,0.575-3.095l0,0c0.936-0.856,2.324-0.907,3.314-0.192v-0.247c-0.373-0.748-0.376-1.627,0-2.365V55.263
			l2.965,2.35c1.47,1.165,3.223,1.73,4.963,1.73c2.377,0,4.731-1.055,6.31-3.076c2.737-3.503,1.917-8.616-1.568-11.377l-47.952-38
			c-2.911-2.307-7.026-2.307-9.938,0L7.898,44.902c-3.34,2.647-4.26,7.478-1.835,10.982c2.656,3.839,7.954,4.582,11.556,1.729
			l2.965-2.35v53.288c0,3.475,2.817,6.292,6.292,6.292h67.917c0.771,0,1.507-0.146,2.189-0.399
			C96.762,114.227,96.539,114.014,96.327,113.782z"/>
		<g>
			<path class="st7" d="M40.195,113.843h-13.32c-2.918,0-5.292-2.374-5.292-5.292V55.263c0-0.384-0.219-0.733-0.565-0.9
				c-0.344-0.166-0.755-0.122-1.056,0.117l-2.965,2.35c-1.534,1.215-3.442,1.727-5.381,1.438c-1.933-0.288-3.613-1.335-4.731-2.951
				c-2.088-3.019-1.371-7.249,1.634-9.629L56.486,7.673c2.559-2.028,6.136-2.028,8.696,0l47.952,38
				c3.132,2.482,3.76,6.958,1.4,9.978c-1.337,1.71-3.35,2.691-5.522,2.691c-1.591,0-3.092-0.523-4.342-1.514l-2.965-2.35
				c-0.303-0.24-0.712-0.284-1.057-0.117c-0.345,0.167-0.564,0.517-0.564,0.9v39.908c0.521,0.109,1.015,0.37,1.401,0.793
				c-1.012-1.107-0.9-2.844,0.273-3.808c0.103-0.085,0.214-0.149,0.326-0.215V57.331l1.344,1.065
				c1.606,1.273,3.537,1.947,5.584,1.947c2.792,0,5.38-1.261,7.099-3.459c3.034-3.883,2.256-9.614-1.734-12.777l-47.952-38
				c-3.292-2.608-7.889-2.607-11.18,0L7.277,44.118c-3.829,3.034-4.723,8.452-2.036,12.334c1.436,2.075,3.596,3.422,6.082,3.792
				c2.45,0.364,4.974-0.309,6.917-1.849l1.344-1.065v51.22c0,4.021,3.271,7.292,7.292,7.292h13.32c0.552,0,1-0.448,1-1
				S40.748,113.843,40.195,113.843z"/>
			<path class="st7" d="M96.327,113.782l-0.138-0.151c-0.448,0.124-0.911,0.211-1.398,0.211h-39.42c-0.552,0-1,0.448-1,1
				s0.448,1,1,1h39.42c1.069,0,2.081-0.237,2.997-0.652C97.285,114.753,96.793,114.292,96.327,113.782z"/>
			<path class="st7" d="M50.266,113.843h-5.106c-0.552,0-1,0.448-1,1s0.448,1,1,1h5.106c0.552,0,1-0.448,1-1
				S50.818,113.843,50.266,113.843z"/>
		</g>
		<g>
			<g>
				<path class="st6" d="M81.04,54.701H67.41v-13.63c0-1.887-1.53-3.417-3.417-3.417H57.66c-1.887,0-3.417,1.53-3.417,3.417v13.63
					h-13.63c-1.887,0-3.417,1.53-3.417,3.417v6.333c0,1.887,1.53,3.417,3.417,3.417h13.63v13.63c0,1.887,1.53,3.417,3.417,3.417
					h6.333c1.887,0,3.417-1.53,3.417-3.417v-13.63h13.63c1.887,0,3.417-1.53,3.417-3.417v-6.333
					C84.457,56.231,82.927,54.701,81.04,54.701z"/>
				<path class="st5" d="M84.456,58.12v6.33c0,1.889-1.531,3.42-3.42,3.42h-13.63V81.5c0,1.883-1.527,3.41-3.41,3.41h-3.34
					c-1.883,0-3.41-1.527-3.41-3.41V71.124c0-1.797-1.457-3.253-3.253-3.253H43.616c-1.889,0-3.42-1.531-3.42-3.42v-6.33
					c0-1.889,1.531-3.42,3.42-3.42h10.377c1.797,0,3.253-1.457,3.253-3.253V41.07c0-1.89,1.53-3.42,3.41-3.42h3.34
					c1.88,0,3.41,1.53,3.41,3.42V54.7h13.63C82.924,54.7,84.456,56.232,84.456,58.12z"/>
				<path class="st7" d="M63.996,85.911h-6.34c-2.432,0-4.41-1.979-4.41-4.41v-12.63h-12.63c-2.437,0-4.42-1.983-4.42-4.42v-6.33
					c0-2.438,1.983-4.42,4.42-4.42h12.63V41.07c0-2.437,1.978-4.42,4.41-4.42h6.34c2.431,0,4.41,1.983,4.41,4.42V53.7h12.63
					c2.438,0,4.42,1.983,4.42,4.42v6.33c0,2.438-1.982,4.42-4.42,4.42h-12.63v12.63C68.405,83.932,66.427,85.911,63.996,85.911z
					 M40.615,55.7c-1.334,0-2.42,1.086-2.42,2.42v6.33c0,1.334,1.085,2.42,2.42,2.42h13.63c0.552,0,1,0.448,1,1v13.63
					c0,1.329,1.081,2.41,2.41,2.41h6.34c1.329,0,2.41-1.081,2.41-2.41v-13.63c0-0.552,0.447-1,1-1h13.63
					c1.334,0,2.42-1.086,2.42-2.42v-6.33c0-1.334-1.086-2.42-2.42-2.42h-13.63c-0.553,0-1-0.448-1-1V41.07
					c0-1.334-1.081-2.42-2.41-2.42h-6.34c-1.329,0-2.41,1.085-2.41,2.42V54.7c0,0.552-0.448,1-1,1H40.615z"/>
			</g>
			<g>
				<path class="st5" d="M84.481,92.957c-1.034-1.131-0.92-2.907,0.279-3.893c1.124-0.925,2.809-0.698,3.792,0.377l0.469,0.513
					c0.012-0.131,0.04-0.258,0.04-0.392c0-2.485-2.015-4.5-4.5-4.5c-2.485,0-4.5,2.015-4.5,4.5s2.015,4.5,4.5,4.5
					c0.292,0,0.576-0.033,0.852-0.086L84.481,92.957z"/>
				<path class="st7" d="M84.575,93.06c-0.005,0-0.01,0.002-0.015,0.002c-1.93,0-3.5-1.57-3.5-3.5s1.57-3.5,3.5-3.5
					c1.732,0,3.164,1.268,3.442,2.923c0.197,0.131,0.386,0.277,0.55,0.457l1.336,1.461c0.108-0.43,0.172-0.878,0.172-1.341
					c0-3.033-2.468-5.5-5.5-5.5s-5.5,2.467-5.5,5.5s2.468,5.5,5.5,5.5c0.564,0,1.109-0.086,1.622-0.245L84.575,93.06z"/>
			</g>
			<g>
				<g>
					<path class="st7" d="M83.209,99.967c-0.033,0-0.066-0.001-0.1-0.005c-2.778-0.275-5.283-1.615-7.054-3.774
						c-1.77-2.159-2.593-4.878-2.317-7.657s1.616-5.283,3.775-7.053c2.159-1.771,4.876-2.593,7.656-2.318
						c2.778,0.275,5.283,1.615,7.053,3.774c1.771,2.159,2.594,4.878,2.318,7.657c-0.054,0.55-0.554,0.957-1.094,0.896
						c-0.55-0.054-0.951-0.544-0.896-1.094c0.223-2.247-0.443-4.445-1.875-6.191c-1.431-1.746-3.456-2.83-5.703-3.052
						c-2.251-0.227-4.445,0.443-6.191,1.875s-2.83,3.457-3.053,5.703s0.443,4.445,1.874,6.191c1.432,1.746,3.457,2.83,5.704,3.052
						c0.55,0.054,0.951,0.544,0.896,1.094C84.152,99.582,83.717,99.967,83.209,99.967z"/>
					<g>
						<path class="st7" d="M79.806,77.823c3.138-1.157,6.534-1.024,9.569,0.373c3.036,1.398,5.346,3.896,6.503,7.031
							c1.394,3.775,0.834,7.794-1.15,10.969l1.393,1.523c2.544-3.748,3.319-8.621,1.634-13.184
							c-1.343-3.637-4.021-6.533-7.543-8.155c-3.521-1.622-7.461-1.775-11.1-0.433c-0.518,0.191-0.783,0.766-0.592,1.284
							C78.713,77.751,79.288,78.015,79.806,77.823z"/>
						<path class="st7" d="M90.96,100.042c-0.766,0.499-1.593,0.928-2.486,1.258c-3.134,1.157-6.534,1.025-9.569-0.374
							c-3.036-1.398-5.346-3.896-6.503-7.031c-0.191-0.519-0.768-0.784-1.285-0.592c-0.518,0.191-0.782,0.766-0.592,1.284
							c1.343,3.637,4.021,6.533,7.543,8.155c1.935,0.892,3.996,1.339,6.064,1.339c1.696,0,3.396-0.301,5.035-0.906
							c1.143-0.422,2.19-0.987,3.153-1.646L90.96,100.042z"/>
					</g>
				</g>
				<g>
					<g>
						<g>
							<path class="st2" d="M107.089,90.762c-0.781,0.591-1.121,1.509-1.024,2.39l-0.012,0.011l-0.585-0.64
								c-0.961-1.051-2.61-1.273-3.709-0.369c-1.173,0.965-1.285,2.702-0.273,3.808c-0.98-1.072-2.644-1.146-3.716-0.166l0,0
								c-0.883,0.807-1.077,2.073-0.575,3.095l-8.643-9.452c-0.982-1.074-2.667-1.302-3.792-0.377
								c-1.199,0.986-1.313,2.762-0.279,3.893l10.501,11.483c-0.993-0.717-2.375-0.78-3.343,0.017
								c-1.199,0.986-1.313,2.762-0.279,3.893l4.968,5.432c5.197,5.683,12.955,7.047,18.638,1.85
								c5.442-4.976,5.819-13.421,0.843-18.863l-5.116-5.595C109.762,90.158,108.187,89.93,107.089,90.762z"/>
							<path class="st7" d="M106.88,119.85c-3.962,0-8.029-1.826-11.291-5.393l-4.968-5.432c-0.68-0.744-1.028-1.746-0.957-2.751
								c0.072-1.019,0.548-1.938,1.34-2.589c0.392-0.322,0.839-0.548,1.313-0.676l-8.574-9.376c-0.68-0.744-1.028-1.746-0.957-2.751
								c0.072-1.019,0.548-1.938,1.34-2.589c1.514-1.246,3.783-1.038,5.165,0.474l6.916,7.564c0.196-0.475,0.495-0.911,0.889-1.271
								c0.763-0.697,1.738-1.011,2.702-0.94c0.001-0.063,0.004-0.126,0.009-0.188c0.071-1.003,0.539-1.908,1.318-2.548
								c1.236-1.018,2.984-1.049,4.319-0.181c0.244-0.477,0.596-0.9,1.042-1.237c1.479-1.118,3.647-0.882,4.945,0.536l5.116,5.595
								c5.34,5.84,4.933,14.936-0.906,20.275C113.089,118.704,110.017,119.85,106.88,119.85z M93.28,104.88
								c-0.368,0-0.723,0.116-1.006,0.349c-0.363,0.299-0.582,0.72-0.615,1.187c-0.033,0.467,0.122,0.915,0.438,1.26l4.968,5.432
								c5.144,5.624,12.227,6.358,17.226,1.787c5.025-4.596,5.375-12.424,0.779-17.45l-5.116-5.595
								c-0.607-0.664-1.601-0.791-2.262-0.291l0,0c-0.461,0.349-0.697,0.903-0.634,1.484c0.034,0.316-0.084,0.631-0.318,0.846
								c-0.195,0.179-0.459,0.283-0.726,0.267c-0.265-0.012-0.521-0.123-0.699-0.318l-0.585-0.639
								c-0.632-0.69-1.678-0.811-2.336-0.272c-0.352,0.289-0.563,0.695-0.594,1.146c-0.032,0.451,0.117,0.882,0.423,1.216
								c0.372,0.408,0.344,1.04-0.063,1.413c-0.406,0.373-1.039,0.345-1.413-0.063c-0.606-0.664-1.64-0.709-2.303-0.103
								c-0.534,0.488-0.676,1.258-0.353,1.917c0.22,0.447,0.077,0.987-0.334,1.267s-0.965,0.216-1.302-0.151l-8.643-9.452
								c-0.652-0.714-1.738-0.838-2.418-0.279c-0.363,0.298-0.582,0.72-0.615,1.186c-0.033,0.467,0.122,0.915,0.438,1.26
								l10.501,11.483c0.346,0.378,0.35,0.958,0.008,1.34s-0.916,0.445-1.332,0.145C94.054,105.004,93.66,104.88,93.28,104.88z
								 M107.089,90.762h0.01H107.089z"/>
						</g>
						<path class="st7" d="M104.314,100.057c-0.271,0-0.541-0.109-0.738-0.325l-2.828-3.093c-0.372-0.408-0.344-1.04,0.063-1.413
							c0.406-0.373,1.04-0.345,1.413,0.063l2.828,3.093c0.372,0.408,0.344,1.04-0.063,1.413
							C104.797,99.97,104.555,100.057,104.314,100.057z"/>
						<path class="st7" d="M100.52,103.526c-0.271,0-0.541-0.109-0.738-0.325l-3.966-4.337c-0.372-0.408-0.344-1.04,0.063-1.413
							c0.406-0.373,1.039-0.345,1.413,0.063l3.966,4.337c0.372,0.408,0.344,1.04-0.063,1.413
							C101.003,103.44,100.761,103.526,100.52,103.526z"/>
						<path class="st7" d="M108.202,96.514c-0.271,0-0.541-0.109-0.738-0.325l-2.365-2.587c-0.372-0.408-0.344-1.04,0.063-1.413
							c0.406-0.373,1.04-0.345,1.413,0.063l2.365,2.587c0.372,0.408,0.344,1.04-0.063,1.413
							C108.686,96.427,108.443,96.514,108.202,96.514z"/>
						<path class="st7" d="M100.608,111.592c-0.271,0-0.541-0.109-0.738-0.325l-5.626-6.152c-0.372-0.408-0.344-1.04,0.063-1.413
							c0.405-0.373,1.039-0.345,1.413,0.063l5.626,6.152c0.372,0.408,0.344,1.04-0.063,1.413
							C101.091,111.506,100.849,111.592,100.608,111.592z"/>
					</g>
				</g>
			</g>
		</g>
	</g>
</g>
</svg>
