<?xml version="1.0" encoding="utf-8"?>
<!-- Generator: Adobe Illustrator 22.0.1, SVG Export Plug-In . SVG Version: 6.00 Build 0)  -->
<svg version="1.1" id="Layer_1" xmlns="http://www.w3.org/2000/svg" xmlns:xlink="http://www.w3.org/1999/xlink" x="0px" y="0px"
	 viewBox="0 0 128 128" style="enable-background:new 0 0 128 128;" xml:space="preserve">
<style type="text/css">
	.st0{fill:#263238;}
	.st1{fill:#E6E7E8;}
	.st2{fill:#FFD7E5;}
	.st3{fill:#0089EF;}
	.st4{fill:#6DC9F7;}
	.st5{fill:#FA759E;}
	.st6{fill:#FFFFFF;}
	.st7{fill:#3A2C60;}
	.st8{fill:#D4FBFF;}
</style>
<g>
	<path class="st1" d="M103.616,85.753c-3.524,0-6.871,1.069-9.734,3.1l-8.344-8.344c0.624-0.843,1.198-1.732,1.718-2.665
		c0.086-0.153,0.17-0.307,0.253-0.462c0.082-0.156,0.174-0.305,0.253-0.462c0.011-0.021,0.009-0.044,0.018-0.066
		c0.806-1.61,1.437-3.32,1.872-5.107c0.005-0.017,0.016-0.03,0.021-0.048c0.033-0.136,0.056-0.275,0.086-0.412
		c0.051-0.229,0.099-0.459,0.144-0.691c0.037-0.194,0.072-0.388,0.104-0.583c0.044-0.265,0.082-0.531,0.118-0.799
		c0.023-0.172,0.047-0.343,0.066-0.516c0.034-0.305,0.059-0.613,0.081-0.922c0.01-0.141,0.024-0.281,0.032-0.421
		c0.025-0.449,0.04-0.9,0.04-1.355c0-1.938-0.234-3.821-0.664-5.63c-0.003-0.016,0.002-0.03-0.002-0.046
		c-0.014-0.058-0.034-0.113-0.049-0.172c-0.133-0.538-0.284-1.07-0.453-1.593c-0.066-0.207-0.137-0.41-0.208-0.614
		c-0.122-0.347-0.252-0.689-0.389-1.028c-0.174-0.436-0.362-0.864-0.56-1.286c-0.048-0.102-0.096-0.204-0.146-0.305
		c-0.661-1.363-1.435-2.651-2.322-3.848l8.332-8.332c2.863,2.031,6.21,3.1,9.734,3.1c9.316,0,16.896-7.579,16.896-16.895
		s-7.579-16.895-16.896-16.895c-9.315,0-16.895,7.579-16.895,16.895c0,3.022,0.806,5.965,2.337,8.562l-8.539,8.539
		c-2.111-1.566-4.475-2.789-7.018-3.606c-0.253-0.082-0.508-0.158-0.764-0.232c-0.319-0.091-0.639-0.18-0.963-0.258
		c-0.427-0.104-0.858-0.196-1.294-0.277c-0.182-0.034-0.362-0.068-0.545-0.098c-0.555-0.091-1.116-0.162-1.683-0.215
		c-0.127-0.012-0.254-0.019-0.381-0.029c-0.619-0.047-1.242-0.079-1.873-0.079c-5.431,0-10.452,1.789-14.506,4.807l-8.553-8.552
		c1.531-2.596,2.337-5.539,2.337-8.562c0-9.316-7.579-16.895-16.895-16.895c-9.316,0-16.896,7.579-16.896,16.895
		s7.579,16.895,16.896,16.895c3.524,0,6.871-1.069,9.734-3.1l8.347,8.347c-3.018,4.054-4.807,9.075-4.807,14.506
		s1.789,10.452,4.807,14.506l-8.347,8.347c-2.863-2.031-6.21-3.1-9.734-3.1c-9.316,0-16.896,7.579-16.896,16.895
		s7.579,16.895,16.896,16.895c9.315,0,16.895-7.579,16.895-16.895c0-3.022-0.806-5.965-2.337-8.562l8.553-8.552
		c4.054,3.018,9.075,4.807,14.506,4.807c0.514,0,1.023-0.021,1.529-0.053c0.162-0.01,0.323-0.024,0.484-0.037
		c0.353-0.029,0.703-0.066,1.051-0.11c0.177-0.022,0.355-0.042,0.531-0.068c0.441-0.066,0.878-0.141,1.311-0.23
		c0.276-0.056,0.547-0.124,0.82-0.19c0.168-0.041,0.336-0.08,0.503-0.125c0.328-0.086,0.654-0.179,0.978-0.278
		c0.026-0.008,0.051-0.017,0.077-0.025c2.614-0.814,5.057-2.057,7.237-3.679l8.538,8.538c-1.531,2.596-2.337,5.539-2.337,8.562
		c0,9.316,7.579,16.895,16.895,16.895c9.316,0,16.896-7.579,16.896-16.895S112.933,85.753,103.616,85.753z"/>
	<g>
		<g>
			<path class="st3" d="M47.405,80.209c-1.333-1.069-2.545-2.281-3.614-3.614l-9.578,9.577c-2.706-2.135-6.115-3.419-9.83-3.419
				c-8.779,0-15.895,7.116-15.895,15.895v0c0,8.779,7.116,15.895,15.895,15.895s15.895-7.116,15.895-15.895v0
				c0-3.217-0.963-6.205-2.605-8.707L47.405,80.209z"/>
			<path class="st3" d="M24.383,41.247c3.715,0,7.124-1.284,9.83-3.419l9.578,9.577c1.069-1.333,2.281-2.545,3.614-3.614
				l-9.732-9.732c1.643-2.502,2.605-5.491,2.605-8.707v0c0-8.779-7.116-15.895-15.895-15.895S8.489,16.573,8.489,25.352v0
				C8.489,34.13,15.605,41.247,24.383,41.247z"/>
			<path class="st3" d="M99.616,82.753c-3.715,0-7.124,1.284-9.83,3.419l-9.577-9.577c-1.07,1.333-2.281,2.545-3.614,3.614
				l9.731,9.732c-1.643,2.502-2.605,5.491-2.605,8.707v0c0,8.779,7.116,15.895,15.895,15.895s15.895-7.116,15.895-15.895v0
				C115.511,89.869,108.395,82.753,99.616,82.753z"/>
			<path class="st3" d="M99.616,9.457c-8.779,0-15.895,7.116-15.895,15.895v0c0,3.217,0.963,6.205,2.605,8.707l-9.731,9.732
				c1.333,1.069,2.544,2.281,3.614,3.614l9.577-9.577c2.706,2.135,6.115,3.419,9.83,3.419c8.779,0,15.895-7.116,15.895-15.895v0
				C115.511,16.573,108.395,9.457,99.616,9.457z"/>
		</g>
		<g>
			<circle class="st8" cx="62" cy="62" r="23.341"/>
			<g>
				<g>
					<g>
						<g>
							<path class="st4" d="M54.4,67.021l-0.047-0.062c-0.654-0.866-0.373-2.098,0.574-2.629c2.101-1.178,4.444-1.821,6.888-1.88
								v-0.004l0.371,0.004c2.444,0.059,4.788,0.701,6.888,1.879c0.947,0.531,1.228,1.763,0.573,2.629L69.6,67.021
								c-0.546,0.722-1.533,0.888-2.324,0.448c-1.608-0.895-3.403-1.375-5.276-1.405c-1.872,0.03-3.667,0.511-5.276,1.405
								C55.932,67.909,54.945,67.743,54.4,67.021z"/>
							<path class="st4" d="M73.834,60.395c-0.536,0.754-1.555,0.956-2.351,0.486c-2.869-1.691-6.114-2.592-9.482-2.624
								c-3.369,0.032-6.613,0.933-9.482,2.624c-0.797,0.47-1.816,0.268-2.352-0.486l-0.046-0.065
								c-0.596-0.839-0.36-2.02,0.525-2.544c3.38-2.002,7.2-3.081,11.168-3.144v-0.003l0.371,0.003
								c3.968,0.063,7.787,1.142,11.168,3.144c0.885,0.524,1.121,1.706,0.526,2.544L73.834,60.395z"/>
							<path class="st4" d="M45.75,54.268l-0.046-0.064c-0.593-0.832-0.362-1.995,0.505-2.537
								c4.685-2.925,10.036-4.492,15.606-4.559v-0.002l0.371,0.002c5.57,0.067,10.921,1.634,15.606,4.559
								c0.867,0.541,1.098,1.705,0.504,2.537l-0.046,0.065c-0.541,0.758-1.577,0.964-2.368,0.47
								c-4.162-2.6-8.925-3.982-13.882-4.016c-4.956,0.034-9.719,1.416-13.883,4.016C47.327,55.232,46.291,55.026,45.75,54.268z"/>
						</g>
						<circle class="st6" cx="62" cy="75.646" r="4.501"/>
						<ellipse class="st5" cx="63.5" cy="75.646" rx="3.001" ry="4.225"/>
						<g>
							<path class="st7" d="M99.616,81.753c-3.524,0-6.871,1.069-9.734,3.1l-8.344-8.344c0.829-1.12,1.581-2.313,2.223-3.59
								c0.248-0.494,0.049-1.095-0.444-1.343c-0.496-0.248-1.095-0.048-1.343,0.444c-3.82,7.6-11.475,12.32-19.974,12.32
								c-12.319,0-22.342-10.022-22.342-22.341S49.681,39.659,62,39.659c10.386,0,19.321,7.044,21.73,17.13
								c0.128,0.538,0.672,0.87,1.205,0.74c0.537-0.128,0.868-0.668,0.74-1.205c-0.785-3.287-2.217-6.268-4.126-8.845l8.332-8.332
								c2.863,2.031,6.21,3.1,9.734,3.1c9.315,0,16.895-7.579,16.895-16.895S108.932,8.457,99.616,8.457
								s-16.895,7.579-16.895,16.895c0,3.022,0.806,5.965,2.337,8.562l-8.539,8.539c-4.081-3.027-9.115-4.794-14.519-4.794
								c-5.431,0-10.452,1.789-14.506,4.807l-8.553-8.552c1.531-2.596,2.337-5.539,2.337-8.562c0-9.316-7.579-16.895-16.895-16.895
								c-9.316,0-16.896,7.579-16.896,16.895s7.579,16.895,16.896,16.895c3.524,0,6.871-1.069,9.734-3.1l8.347,8.347
								c-3.018,4.054-4.807,9.075-4.807,14.506s1.789,10.452,4.807,14.506l-8.348,8.347c-2.863-2.031-6.21-3.1-9.734-3.1
								c-9.316,0-16.896,7.579-16.896,16.895s7.579,16.895,16.896,16.895c9.315,0,16.895-7.579,16.895-16.895
								c0-3.022-0.806-5.965-2.337-8.562l8.552-8.553c4.054,3.018,9.075,4.807,14.506,4.807c5.362,0,10.408-1.734,14.521-4.793
								l8.538,8.538c-1.531,2.596-2.337,5.539-2.337,8.562c0,9.316,7.579,16.895,16.895,16.895s16.895-7.579,16.895-16.895
								S108.932,81.753,99.616,81.753z M87.034,34.766c0.335-0.335,0.389-0.859,0.129-1.256c-1.598-2.433-2.441-5.254-2.441-8.158
								c0-8.213,6.682-14.895,14.895-14.895s14.895,6.682,14.895,14.895s-6.682,14.895-14.895,14.895
								c-3.368,0-6.553-1.108-9.21-3.205c-0.398-0.314-0.968-0.281-1.326,0.078l-8.794,8.794c-0.687-0.782-1.424-1.512-2.203-2.197
								L87.034,34.766z M34.92,37.12c-0.358-0.359-0.928-0.392-1.326-0.078c-2.657,2.097-5.842,3.205-9.21,3.205
								c-8.214,0-14.896-6.682-14.896-14.895s6.682-14.895,14.896-14.895c8.213,0,14.895,6.682,14.895,14.895
								c0,2.904-0.844,5.726-2.441,8.158c-0.26,0.396-0.206,0.921,0.129,1.256l8.969,8.969c-0.779,0.686-1.514,1.421-2.2,2.2
								L34.92,37.12z M36.966,89.234c-0.335,0.335-0.389,0.859-0.129,1.256c1.598,2.433,2.441,5.254,2.441,8.158
								c0,8.213-6.682,14.895-14.895,14.895c-8.214,0-14.896-6.682-14.896-14.895s6.682-14.895,14.896-14.895
								c3.367,0,6.553,1.108,9.21,3.205c0.397,0.313,0.967,0.28,1.326-0.078l8.815-8.815c0.686,0.779,1.421,1.514,2.2,2.2
								L36.966,89.234z M99.616,113.543c-8.213,0-14.895-6.682-14.895-14.895c0-2.904,0.844-5.726,2.441-8.158
								c0.26-0.396,0.206-0.921-0.129-1.256L78.08,80.28c0.775-0.684,1.51-1.418,2.197-2.203l8.803,8.803
								c0.359,0.359,0.929,0.393,1.326,0.078c2.657-2.097,5.843-3.205,9.21-3.205c8.213,0,14.895,6.682,14.895,14.895
								S107.829,113.543,99.616,113.543z"/>
							<path class="st7" d="M84.341,62c0,1.77-0.207,3.53-0.616,5.232c-0.129,0.537,0.202,1.077,0.739,1.206
								c0.078,0.019,0.157,0.028,0.234,0.028c0.451,0,0.861-0.308,0.972-0.767c0.445-1.855,0.671-3.773,0.671-5.699
								c0-0.552-0.447-1-1-1S84.341,61.448,84.341,62z"/>
							<path class="st7" d="M70.445,67.561c0.48-0.636,0.662-1.447,0.499-2.228c-0.166-0.793-0.67-1.477-1.382-1.876
								c-2.263-1.269-4.736-1.944-7.365-2.007l-0.371-0.004c-0.044,0.001-0.087,0.002-0.131,0.007
								c-2.581,0.077-5.022,0.75-7.259,2.004c-0.711,0.399-1.215,1.083-1.381,1.876c-0.163,0.78,0.019,1.592,0.499,2.228
								l0.047,0.062c0.537,0.711,1.352,1.092,2.195,1.092c0.477,0,0.962-0.121,1.413-0.372c1.477-0.822,3.094-1.252,4.773-1.28
								c1.713,0.027,3.329,0.458,4.806,1.279C68.04,69.037,69.558,68.735,70.445,67.561z M61.983,65.063
								c-2.044,0.033-3.978,0.548-5.746,1.532c-0.368,0.206-0.807,0.131-1.04-0.177l-0.047-0.062
								c-0.181-0.239-0.163-0.487-0.137-0.613c0.048-0.228,0.193-0.425,0.401-0.542c1.976-1.107,4.137-1.697,6.424-1.752
								c0.02,0,0.038-0.001,0.058-0.003l0.265,0.003c2.287,0.055,4.448,0.645,6.423,1.751c0.208,0.117,0.354,0.314,0.402,0.542
								c0.026,0.126,0.044,0.373-0.185,0.674c-0.232,0.308-0.671,0.383-1.04,0.177C65.994,65.612,64.062,65.097,61.983,65.063z"/>
							<path class="st7" d="M74.649,60.974l0.046-0.065c0.449-0.632,0.613-1.431,0.452-2.19c-0.159-0.751-0.628-1.405-1.284-1.794
								c-3.518-2.083-7.551-3.218-11.67-3.283l-0.371-0.003c-0.034,0.001-0.067,0.001-0.101,0.004
								c-4.086,0.078-8.09,1.212-11.585,3.282c-0.656,0.389-1.124,1.042-1.284,1.793c-0.161,0.76,0.004,1.558,0.499,2.255
								c0.836,1.179,2.415,1.51,3.675,0.769c2.707-1.596,5.813-2.456,8.964-2.485c3.168,0.03,6.275,0.889,8.984,2.485
								c0.451,0.266,0.944,0.395,1.43,0.395C73.271,62.137,74.111,61.729,74.649,60.974z M71.99,60.019
								c-3.012-1.774-6.463-2.729-10-2.762c-3.521,0.033-6.971,0.988-9.979,2.762c-0.354,0.209-0.797,0.123-1.074-0.268
								c-0.128-0.18-0.174-0.399-0.127-0.617c0.025-0.121,0.104-0.344,0.347-0.488c3.218-1.905,6.909-2.944,10.674-3.004
								c0.018,0,0.036-0.001,0.054-0.002l0.286,0.002c3.764,0.06,7.455,1.099,10.674,3.004c0.242,0.144,0.322,0.368,0.348,0.489
								c0.046,0.217,0.001,0.436-0.126,0.615l-0.046,0.064c0,0,0,0-0.001,0C72.788,60.14,72.347,60.23,71.99,60.019z"/>
							<path class="st7" d="M79.11,54.785c0.442-0.621,0.61-1.406,0.462-2.154c-0.149-0.749-0.605-1.409-1.252-1.812
								c-4.826-3.013-10.401-4.642-16.128-4.71l-0.371-0.002c-0.045-0.004-0.06,0.001-0.089,0.003
								c-5.698,0.081-11.247,1.708-16.055,4.709c-0.646,0.404-1.102,1.065-1.25,1.813c-0.148,0.748,0.02,1.533,0.462,2.151
								l0.046,0.064v0c0.536,0.751,1.387,1.157,2.253,1.157c0.5,0,1.006-0.136,1.458-0.418c3.997-2.496,8.617-3.832,13.347-3.864
								c4.744,0.032,9.363,1.369,13.358,3.864C76.587,56.357,78.217,56.034,79.11,54.785z M47.587,53.891
								c-0.34,0.214-0.79,0.123-1.022-0.204l-0.047-0.065c-0.125-0.175-0.17-0.389-0.128-0.601s0.166-0.393,0.348-0.506
								c4.516-2.819,9.733-4.343,15.089-4.407c0.018,0,0.035-0.001,0.052-0.002l0.296,0.002c5.354,0.064,10.572,1.588,15.088,4.407
								c0.183,0.114,0.307,0.293,0.349,0.506c0.043,0.212-0.003,0.426-0.174,0.666c-0.235,0.328-0.688,0.416-1.024,0.204
								c-4.31-2.692-9.291-4.133-14.419-4.168C56.88,49.757,51.899,51.199,47.587,53.891z"/>
							<path class="st7" d="M62,70.145c-3.032,0-5.5,2.468-5.5,5.501s2.468,5.501,5.5,5.501c3.033,0,5.501-2.468,5.501-5.501
								S65.033,70.145,62,70.145z M62,79.147c-1.93,0-3.5-1.57-3.5-3.501s1.57-3.501,3.5-3.501c1.931,0,3.501,1.57,3.501,3.501
								S63.931,79.147,62,79.147z"/>
						</g>
					</g>
				</g>
			</g>
		</g>
	</g>
</g>
</svg>
