<?xml version="1.0" encoding="utf-8"?>
<!-- Generator: Adobe Illustrator 18.0.0, SVG Export Plug-In . SVG Version: 6.00 Build 0)  -->
<!DOCTYPE svg PUBLIC "-//W3C//DTD SVG 1.1//EN" "http://www.w3.org/Graphics/SVG/1.1/DTD/svg11.dtd">
<svg version="1.1" id="Layer_1" xmlns="http://www.w3.org/2000/svg" xmlns:xlink="http://www.w3.org/1999/xlink" x="0px" y="0px"
	 viewBox="0 0 512 512" style="enable-background:new 0 0 512 512;" xml:space="preserve">
<style type="text/css">
	.st0{fill:#FFD452;}
	.st1{fill:#F58E6F;}
	.st2{fill:#4A555F;}
	.st3{fill:none;}
	.st4{fill:#DFDFDF;}
	.st5{fill:#71CCE0;}
	.st6{fill:#FFFFFF;}
</style>
<g>
	<g>
		<g>
			<path class="st1" d="M184.02,404.104v65.954c0,1.782,1.45,3.231,3.233,3.231h22.315c12.441,0,23.472,8.365,26.83,20.342
				c0.39,1.389,1.669,2.358,3.11,2.358h31.934c1.443,0,2.723-0.969,3.112-2.359c3.358-11.977,14.389-20.341,26.827-20.341h22.317
				c1.782,0,3.23-1.449,3.23-3.231v-65.954H184.02z"/>
		</g>
	</g>
	<g>
		<g>
			<g>
				<path class="st2" d="M79.453,180.274l0.395,4.053c3.789,38.831,20.746,75.841,47.754,104.211
					c26.058,27.365,40.408,64.03,40.408,103.244v3.695h174.932v-3.695c0-19.231,3.68-38.16,10.942-56.262
					c7.163-17.863,17.552-34.177,30.878-48.491c26.553-28.563,42.578-64.076,46.342-102.702l0.395-4.053H79.453z M379.352,281.996
					c-13.947,14.981-24.824,32.064-32.328,50.773c-7.146,17.822-10.985,36.413-11.428,55.319H175.358
					c-0.876-39.724-15.856-76.763-42.405-104.644c-24.934-26.192-40.928-60.066-45.305-95.78h335.657
					C419.005,223.093,403.858,255.634,379.352,281.996z"/>
			</g>
		</g>
	</g>
	<g>
		<g>
			<path class="st5" d="M97.698,196.284c5.641,30.296,20.102,58.737,41.498,81.214c26.149,27.461,41.671,63.295,44.394,101.968
				h143.799c1.265-17.037,5.164-33.773,11.635-49.906c7.902-19.7,19.346-37.68,34.012-53.432
				c21.011-22.604,34.772-49.983,40.242-79.845H97.698z"/>
		</g>
	</g>
	<g>
		<g>
			<g>
				<path class="st2" d="M168.01,388.094v75.218h174.929v-75.218H168.01z M335.55,455.922H175.399v-60.439H335.55V455.922z"/>
			</g>
		</g>
	</g>
	<g>
		<g>
			<g>
				<path class="st2" d="M168.01,455.922v14.137c0,10.61,8.633,19.242,19.243,19.242h22.315c5.292,0,9.985,3.558,11.414,8.652
					C223.3,506.224,230.918,512,239.507,512h31.934c8.592,0,16.21-5.776,18.528-14.047c1.429-5.095,6.119-8.652,11.411-8.652h22.317
					c10.61,0,19.241-8.632,19.241-19.242v-14.137H168.01z M335.55,470.059c0,6.535-5.316,11.853-11.851,11.853h-22.317
					c-8.59,0-16.208,5.776-18.526,14.047c-1.429,5.095-6.122,8.652-11.413,8.652h-31.934c-5.292,0-9.982-3.558-11.411-8.652
					c-2.319-8.271-9.937-14.047-18.529-14.047h-22.315c-6.536,0-11.854-5.317-11.854-11.853v-6.747H335.55V470.059z"/>
			</g>
		</g>
	</g>
	<g>
		<g>
			<g>
				<path class="st2" d="M168.01,388.094v81.965c0,10.61,8.633,19.242,19.243,19.242h22.315c5.292,0,9.985,3.558,11.414,8.652
					C223.3,506.224,230.918,512,239.507,512h31.934c8.592,0,16.21-5.776,18.528-14.047c1.429-5.095,6.119-8.652,11.411-8.652h22.317
					c10.61,0,19.241-8.632,19.241-19.242v-81.965H168.01z M335.55,470.059c0,6.535-5.316,11.853-11.851,11.853h-22.317
					c-8.59,0-16.208,5.776-18.526,14.047c-1.429,5.095-6.122,8.652-11.413,8.652h-31.934c-5.292,0-9.982-3.558-11.411-8.652
					c-2.319-8.271-9.937-14.047-18.529-14.047h-22.315c-6.536,0-11.854-5.317-11.854-11.853v-74.576H335.55V470.059z"/>
			</g>
		</g>
	</g>
	<g>
		<g>
			<rect x="171.704" y="409.362" class="st2" width="167.54" height="7.389"/>
		</g>
	</g>
	<g>
		<g>
			<rect x="171.704" y="432.734" class="st2" width="167.54" height="7.389"/>
		</g>
	</g>
	<g>
		<g>
			<path class="st2" d="M204.74,238.1c-11.279-11.278-17.49-26.272-17.49-42.222v-10.665h-7.389v10.665
				c0,17.924,6.98,34.774,19.655,47.446c11.276,11.279,17.487,26.273,17.487,42.222v106.242h7.389V285.546
				C224.392,267.624,217.414,250.773,204.74,238.1z"/>
		</g>
	</g>
	<g>
		<g>
			<path class="st2" d="M323.698,185.212v10.665c0,15.949-6.211,30.943-17.487,42.222c-12.674,12.673-19.655,29.522-19.655,47.446
				v106.242h7.389V285.546c0-15.95,6.211-30.944,17.49-42.222c12.674-12.674,19.652-29.524,19.652-47.446v-10.665H323.698z"/>
		</g>
	</g>
	<g>
		<g>
			<g>
				<path class="st2" d="M259.246,285.189l13.559-64.93c1.092-5.242-0.217-10.632-3.596-14.787
					c-3.377-4.156-8.385-6.539-13.74-6.539c-5.354,0-10.363,2.383-13.742,6.538c-3.377,4.155-4.686,9.546-3.594,14.79l13.564,64.928
					l-22.103,105.844l7.235,1.51l18.642-89.283l18.649,89.283l7.235-1.51L259.246,285.189z M245.37,218.751
					c-0.638-3.056,0.125-6.198,2.093-8.62c1.968-2.421,4.888-3.809,8.008-3.809s6.038,1.389,8.008,3.81
					c1.968,2.422,2.73,5.562,2.093,8.616l-10.098,48.367L245.37,218.751z"/>
			</g>
		</g>
	</g>
	<g>
		<g>
			<g>
				<path class="st2" d="M401.482,98.474c-2.225-1.135-4.525-2.147-6.867-3.022c0.921-4.379,1.388-8.856,1.388-13.354
					c0-36.166-29.423-65.589-65.588-65.589c-0.089,0-0.178,0-0.267,0.001C323.27,5.624,311-0.75,297.91,0.072
					c-18.553,1.176-33.084,17.122-33.084,36.302v88.797c0,23.759,19.33,43.088,43.088,43.088h86.382
					c7.517,0,14.536-2.371,19.76-6.68c5.809-4.79,9.434-11.375,10.779-19.574C427.693,124.568,418.307,107.073,401.482,98.474z
					 M417.542,140.81c-1.046,6.38-3.801,11.451-8.186,15.069c-3.904,3.218-9.253,4.991-15.06,4.991h-86.382
					c-19.683,0-35.698-16.014-35.698-35.698V36.374c0-15.291,11.49-27.998,26.163-28.927c0.62-0.04,1.236-0.06,1.847-0.06
					c10.254,0,19.681,5.615,24.602,14.654l1.106,2.03l2.309-0.106c0.702-0.032,1.436-0.066,2.17-0.066
					c32.09,0,58.198,26.108,58.198,58.199c0,5.009-0.652,9.99-1.939,14.803l-0.914,3.418l3.377,1.061
					c3.079,0.968,6.102,2.204,8.981,3.674C412.073,112.186,419.878,126.556,417.542,140.81z"/>
			</g>
		</g>
	</g>
	<g>
		<g>
			<path class="st0" d="M394.332,112.468c-2.465-1.259-5.052-2.317-7.693-3.147l-10.982-3.451l2.975-11.121
				c1.099-4.115,1.657-8.371,1.657-12.652c0-27.501-22.374-49.874-49.876-49.874c-0.608,0-1.216,0.03-1.798,0.057l-7.503,0.338
				l-3.594-6.598c-3.463-6.358-10.087-10.309-17.292-10.309c-0.435,0-0.874,0.014-1.322,0.043
				c-10.299,0.651-18.365,9.708-18.365,20.618v88.798c0,15.094,12.28,27.374,27.375,27.374h86.382c3.881,0,7.346-1.098,9.764-3.091
				c2.824-2.329,4.547-5.597,5.268-9.989C411.077,128.794,405.048,117.945,394.332,112.468z"/>
		</g>
	</g>
	<g>
		<g>
			<polygon class="st2" points="303.909,89.86 303.909,3.701 296.52,3.701 296.52,97.25 331.076,97.25 331.076,127.752 
				338.465,127.752 338.465,89.86 			"/>
		</g>
	</g>
	<g>
		<g>
			<rect x="354.579" y="26.833" class="st2" width="7.389" height="46.136"/>
		</g>
	</g>
	<g>
		<g>
			
				<rect x="360.104" y="146.852" transform="matrix(4.369775e-04 -1 1 4.369775e-04 223.221 524.4128)" class="st2" width="27.655" height="7.389"/>
		</g>
	</g>
	<g>
		<g>
			<g>
				<path class="st2" d="M334.771,124.058c-6.997,0-12.691,5.694-12.691,12.692c0,6.998,5.694,12.693,12.691,12.693
					c7,0,12.693-5.695,12.693-12.693C347.464,129.751,341.77,124.058,334.771,124.058z M334.771,142.054
					c-2.922,0-5.302-2.379-5.302-5.304c0-2.924,2.379-5.303,5.302-5.303c2.925,0,5.304,2.379,5.304,5.303
					C340.074,139.675,337.696,142.054,334.771,142.054z"/>
			</g>
		</g>
	</g>
	<g>
		<g>
			<g>
				<path class="st2" d="M358.286,69.275c-6.997,0-12.691,5.695-12.691,12.693c0,6.998,5.693,12.692,12.691,12.692
					c7,0,12.693-5.694,12.693-12.692C370.979,74.97,365.285,69.275,358.286,69.275z M358.286,87.271
					c-2.923,0-5.302-2.379-5.302-5.303c0-2.925,2.379-5.304,5.302-5.304c2.925,0,5.304,2.379,5.304,5.304
					C363.589,84.892,361.211,87.271,358.286,87.271z"/>
			</g>
		</g>
	</g>
	<g>
		<g>
			<g>
				<path class="st2" d="M328.064,43.516c-7,0-12.693,5.695-12.693,12.693c0,6.998,5.693,12.693,12.693,12.693
					s12.693-5.695,12.693-12.693C340.758,49.21,335.064,43.516,328.064,43.516z M328.064,61.513c-2.925,0-5.304-2.379-5.304-5.304
					c0-2.925,2.379-5.304,5.304-5.304c2.925,0,5.304,2.379,5.304,5.304C333.368,59.134,330.989,61.513,328.064,61.513z"/>
			</g>
		</g>
	</g>
	<g>
		<g>
			<g>
				<path class="st2" d="M300.215,108.489c-7,0-12.693,5.694-12.693,12.692c0,6.999,5.694,12.693,12.693,12.693
					s12.693-5.695,12.693-12.693C312.908,114.183,307.214,108.489,300.215,108.489z M300.215,126.485
					c-2.925,0-5.304-2.379-5.304-5.304c0-2.924,2.379-5.303,5.304-5.303s5.304,2.379,5.304,5.303
					C305.519,124.106,303.14,126.485,300.215,126.485z"/>
			</g>
		</g>
	</g>
	<g>
		<g>
			<g>
				<path class="st2" d="M373.938,115.029c-6.997,0-12.691,5.695-12.691,12.693c0,6.999,5.693,12.692,12.691,12.692
					c7,0,12.693-5.694,12.693-12.692C386.631,120.724,380.937,115.029,373.938,115.029z M373.938,133.025
					c-2.923,0-5.302-2.379-5.302-5.303c0-2.925,2.379-5.304,5.302-5.304c2.925,0,5.304,2.379,5.304,5.304
					C379.241,130.646,376.863,133.025,373.938,133.025z"/>
			</g>
		</g>
	</g>
	<g>
		<g>
			<rect x="324.37" y="20.259" class="st2" width="7.389" height="26.951"/>
		</g>
	</g>
	<g>
		<g>
			<rect x="296.52" y="130.18" class="st2" width="7.389" height="33.632"/>
		</g>
	</g>
	<g>
		<g>
			<g>
				<path class="st2" d="M213.043,0.072c-13.126-0.829-25.365,5.552-32.242,16.438c-0.086-0.001-0.176-0.001-0.265-0.001
					c-36.165,0-65.588,29.423-65.588,65.589c0,4.497,0.466,8.973,1.388,13.352c-2.345,0.877-4.645,1.888-6.867,3.025
					c-16.828,8.599-26.214,26.094-23.354,43.531c1.345,8.2,4.97,14.786,10.779,19.574c5.222,4.308,12.239,6.68,19.76,6.68h86.382
					c23.758,0,43.088-19.328,43.088-43.088V36.374C246.125,17.195,231.594,1.248,213.043,0.072z M238.735,125.171
					c0,19.685-16.015,35.698-35.698,35.698h-86.382c-5.809,0-11.156-1.773-15.06-4.991c-4.385-3.616-7.139-8.686-8.185-15.069
					c-2.338-14.254,5.467-28.623,19.423-35.756c2.877-1.47,5.9-2.706,8.982-3.674l3.377-1.061l-0.914-3.418
					c-1.287-4.813-1.939-9.793-1.939-14.803c0-32.091,26.108-58.199,58.198-58.199c0.734,0,1.467,0.033,2.167,0.066l2.309,0.106
					l1.106-2.03c5.215-9.577,15.385-15.286,26.454-14.594c14.671,0.929,26.161,13.636,26.161,28.927V125.171z"/>
			</g>
		</g>
	</g>
	<g>
		<g>
			<path class="st0" d="M212.041,15.754c-0.441-0.028-0.881-0.042-1.315-0.042c-7.205,0-13.832,3.951-17.297,10.312l-3.592,6.594
				l-7.503-0.337c-0.582-0.027-1.19-0.057-1.798-0.057c-27.501,0-49.873,22.373-49.873,49.874c0,4.287,0.556,8.543,1.655,12.652
				l2.972,11.118l-10.977,3.452c-2.646,0.832-5.235,1.891-7.693,3.147c-10.719,5.478-16.748,16.327-14.996,27
				c0.718,4.391,2.442,7.659,5.268,9.989c2.416,1.992,5.883,3.089,9.764,3.089h86.382c15.092,0,27.372-12.28,27.372-27.374V36.374
				C230.41,25.464,222.344,16.407,212.041,15.754z"/>
		</g>
	</g>
	<g>
		<g>
			<polygon class="st2" points="207.042,3.701 207.042,89.86 172.484,89.86 172.484,127.752 179.873,127.752 179.873,97.25 
				214.431,97.25 214.431,3.701 			"/>
		</g>
	</g>
	<g>
		<g>
			<rect x="148.983" y="26.833" class="st2" width="7.389" height="46.136"/>
		</g>
	</g>
	<g>
		<g>
			<rect x="133.331" y="136.72" class="st2" width="7.389" height="27.655"/>
		</g>
	</g>
	<g>
		<g>
			<g>
				<path class="st2" d="M176.178,124.058c-7,0-12.693,5.694-12.693,12.692c0,6.998,5.693,12.693,12.693,12.693
					s12.693-5.695,12.693-12.693C188.872,129.751,183.178,124.058,176.178,124.058z M176.178,142.054
					c-2.925,0-5.304-2.379-5.304-5.304c0-2.924,2.379-5.303,5.304-5.303c2.925,0,5.304,2.379,5.304,5.303
					C181.482,139.675,179.104,142.054,176.178,142.054z"/>
			</g>
		</g>
	</g>
	<g>
		<g>
			<g>
				<path class="st2" d="M152.663,69.275c-6.997,0-12.691,5.695-12.691,12.693c0,6.998,5.693,12.692,12.691,12.692
					c7,0,12.693-5.694,12.693-12.692C165.356,74.97,159.663,69.275,152.663,69.275z M152.663,87.271
					c-2.922,0-5.301-2.379-5.301-5.303c0-2.925,2.379-5.304,5.301-5.304c2.925,0,5.304,2.379,5.304,5.304
					C157.967,84.892,155.588,87.271,152.663,87.271z"/>
			</g>
		</g>
	</g>
	<g>
		<g>
			<g>
				<path class="st2" d="M182.887,43.516c-7,0-12.693,5.695-12.693,12.693c0,6.998,5.694,12.693,12.693,12.693
					c7,0,12.693-5.695,12.693-12.693C195.58,49.21,189.887,43.516,182.887,43.516z M182.887,61.513
					c-2.925,0-5.304-2.379-5.304-5.304c0-2.925,2.379-5.304,5.304-5.304c2.925,0,5.304,2.379,5.304,5.304
					C188.191,59.134,185.812,61.513,182.887,61.513z"/>
			</g>
		</g>
	</g>
	<g>
		<g>
			<g>
				<path class="st2" d="M210.737,108.489c-7,0-12.693,5.694-12.693,12.692c0,6.999,5.693,12.693,12.693,12.693
					c6.997,0,12.691-5.695,12.691-12.693C223.427,114.183,217.734,108.489,210.737,108.489z M210.737,126.485
					c-2.925,0-5.304-2.379-5.304-5.304c0-2.924,2.379-5.303,5.304-5.303c2.923,0,5.302,2.379,5.302,5.303
					C216.038,124.106,213.659,126.485,210.737,126.485z"/>
			</g>
		</g>
	</g>
	<g>
		<g>
			<g>
				<path class="st2" d="M137.011,115.029c-7,0-12.693,5.695-12.693,12.693c0,6.999,5.693,12.692,12.693,12.692
					c7,0,12.693-5.694,12.693-12.692C149.705,120.724,144.011,115.029,137.011,115.029z M137.011,133.025
					c-2.925,0-5.304-2.379-5.304-5.303c0-2.925,2.379-5.304,5.304-5.304c2.925,0,5.304,2.379,5.304,5.304
					C142.315,130.646,139.936,133.025,137.011,133.025z"/>
			</g>
		</g>
	</g>
	<g>
		<g>
			<rect x="179.192" y="20.259" class="st2" width="7.389" height="26.951"/>
		</g>
	</g>
	<g>
		<g>
			<rect x="207.042" y="130.18" class="st2" width="7.389" height="33.631"/>
		</g>
	</g>
	<g>
		<g>
			<path class="st2" d="M106.908,327.725l-3.702-4.685c-16.029-20.255-31.172-39.386-40.11-63.055
				c-1.638-4.339-5.975-6.788-10.533-5.957c-4.565,0.832-7.755,4.656-7.755,9.296v200.953h7.389V263.324
				c0-1.55,1.183-1.934,1.691-2.027c0.503-0.097,1.749-0.15,2.295,1.298c9.345,24.744,25.552,45.225,41.228,65.031l3.695,4.674
				c15.094,19.143,22.748,43.127,22.748,71.287c0,21.197-0.279,60.893-0.37,73.107h-19.953v-67.649h-7.389v75.038h34.676
				l0.029-3.666c0.005-0.514,0.397-51.672,0.397-76.831C131.243,373.726,123.055,348.203,106.908,327.725z"/>
		</g>
	</g>
	<g>
		<g>
			<rect x="72.436" y="347.988" class="st2" width="7.389" height="135.855"/>
		</g>
	</g>
	<g>
		<g>
			<g>
				<path class="st2" d="M100.118,389.892c-6.48,0-11.75,5.271-11.75,11.75c0,6.479,5.27,11.75,11.75,11.75
					c6.48,0,11.75-5.271,11.75-11.75C111.868,395.163,106.598,389.892,100.118,389.892z M100.118,406.003
					c-2.406,0-4.361-1.957-4.361-4.361c0-2.404,1.955-4.361,4.361-4.361s4.361,1.957,4.361,4.361
					C104.479,404.046,102.523,406.003,100.118,406.003z"/>
			</g>
		</g>
	</g>
	<g>
		<g>
			<g>
				<path class="st2" d="M76.131,328.183c-6.48,0-11.75,5.271-11.75,11.75c0,6.479,5.27,11.75,11.75,11.75s11.75-5.271,11.75-11.75
					C87.881,333.454,82.611,328.183,76.131,328.183z M76.131,344.294c-2.406,0-4.361-1.957-4.361-4.361
					c0-2.404,1.955-4.361,4.361-4.361s4.361,1.957,4.361,4.361C80.492,342.337,78.537,344.294,76.131,344.294z"/>
			</g>
		</g>
	</g>
	<g>
		<g>
			<g>
				<path class="st2" d="M48.503,460.583c-6.48,0-11.75,5.271-11.75,11.75s5.27,11.75,11.75,11.75c6.48,0,11.75-5.271,11.75-11.75
					S54.983,460.583,48.503,460.583z M48.503,476.694c-2.405,0-4.361-1.957-4.361-4.361s1.955-4.361,4.361-4.361
					c2.406,0,4.361,1.957,4.361,4.361S50.908,476.694,48.503,476.694z"/>
			</g>
		</g>
	</g>
	<g>
		<g>
			<path class="st2" d="M459.439,254.028c-4.536-0.829-8.895,1.614-10.535,5.957c-8.941,23.679-24.09,42.816-40.127,63.076
				l-3.685,4.663c-16.147,20.48-24.335,46.004-24.335,75.862c0,25.159,0.395,76.317,0.399,76.831l0.029,3.666h34.676v-75.038h-7.389
				v67.649h-19.955c-0.089-12.213-0.37-51.909-0.37-73.107c0-28.158,7.654-52.142,22.748-71.287l3.678-4.652
				c15.681-19.812,31.898-40.299,41.245-65.052c0.544-1.449,1.785-1.398,2.295-1.299c0.51,0.093,1.691,0.476,1.691,2.027v200.953
				h7.389V263.324C467.192,258.684,464.005,254.862,459.439,254.028z"/>
		</g>
	</g>
	<g>
		<g>
			<rect x="432.177" y="347.988" class="st2" width="7.389" height="135.855"/>
		</g>
	</g>
	<g>
		<g>
			<g>
				<path class="st2" d="M411.885,389.892c-6.48,0-11.75,5.271-11.75,11.75c0,6.479,5.27,11.75,11.75,11.75s11.75-5.271,11.75-11.75
					C423.635,395.163,418.365,389.892,411.885,389.892z M411.885,406.003c-2.405,0-4.361-1.957-4.361-4.361
					c0-2.404,1.955-4.361,4.361-4.361c2.406,0,4.361,1.957,4.361,4.361C416.246,404.046,414.29,406.003,411.885,406.003z"/>
			</g>
		</g>
	</g>
	<g>
		<g>
			<g>
				<path class="st2" d="M435.871,328.183c-6.48,0-11.75,5.271-11.75,11.75c0,6.479,5.27,11.75,11.75,11.75
					c6.48,0,11.75-5.271,11.75-11.75C447.622,333.454,442.351,328.183,435.871,328.183z M435.871,344.294
					c-2.405,0-4.361-1.957-4.361-4.361c0-2.404,1.955-4.361,4.361-4.361c2.406,0,4.361,1.957,4.361,4.361
					C440.232,342.337,438.277,344.294,435.871,344.294z"/>
			</g>
		</g>
	</g>
	<g>
		<g>
			<g>
				<path class="st2" d="M463.497,460.583c-6.48,0-11.75,5.271-11.75,11.75s5.27,11.75,11.75,11.75c6.48,0,11.75-5.271,11.75-11.75
					S469.978,460.583,463.497,460.583z M463.497,476.694c-2.406,0-4.361-1.957-4.361-4.361s1.956-4.361,4.361-4.361
					s4.361,1.957,4.361,4.361S465.903,476.694,463.497,476.694z"/>
			</g>
		</g>
	</g>
</g>
</svg>
