<?xml version="1.0" encoding="utf-8"?>
<!-- Generator: Adobe Illustrator 18.0.0, SVG Export Plug-In . SVG Version: 6.00 Build 0)  -->
<!DOCTYPE svg PUBLIC "-//W3C//DTD SVG 1.1//EN" "http://www.w3.org/Graphics/SVG/1.1/DTD/svg11.dtd">
<svg version="1.1" id="Layer_1" xmlns="http://www.w3.org/2000/svg" xmlns:xlink="http://www.w3.org/1999/xlink" x="0px" y="0px"
	 viewBox="0 0 512 512" style="enable-background:new 0 0 512 512;" xml:space="preserve">
<style type="text/css">
	.st0{fill:#FFD452;}
	.st1{fill:#F58E6F;}
	.st2{fill:#4A555F;}
	.st3{fill:none;}
	.st4{fill:#DFDFDF;}
	.st5{fill:#71CCE0;}
	.st6{fill:#FFFFFF;}
</style>
<g>
	<g>
		<g>
			<path class="st0" d="M332.713,242.058c0,0,12.864,14.996,0,45.658l-26.944,56.663h-84.103c0,0-17.673,17.277-17.673,58.796
				v108.816h164.662V242.058H332.713z"/>
		</g>
	</g>
	<g>
		<g>
			<path class="st0" d="M319.695,129.844h-9.717c-1.289,20.226-18.095,36.239-38.643,36.239c-21.416,0-38.767-17.351-38.767-38.767
				c0-21.392,17.351-38.743,38.767-38.743c12.146,0,23.003,5.602,30.116,14.377l12.617-11.898c0.694-10.708,3.198-20.92,7.188-30.34
				c-13.311-11.452-28.753-20.524-45.633-26.473l-43.625,53.813h-54.036l-9.171,9.196c13.658,11.179,21.961,27.588,22.11,45.137
				c0.446,5.627,7.486,70.668,89.779,73.717l29.67-39.56h25.679l8.279-10.287C333.427,156.342,324.925,143.898,319.695,129.844z"/>
		</g>
	</g>
	<g>
		<g>
			<path class="st1" d="M272.897,129.844l15.294-14.401c-0.273-0.446-0.595-0.843-0.917-1.264c-0.421-0.496-0.868-0.992-1.339-1.463
				c-0.471-0.471-0.967-0.917-1.462-1.338c-1.289-1.041-2.702-1.933-4.189-2.677c-1.215-0.57-2.479-1.041-3.792-1.388
				c-1.636-0.421-3.371-0.645-5.156-0.645s-3.52,0.223-5.156,0.645c-1.314,0.347-2.578,0.818-3.792,1.388
				c-1.512,0.744-2.9,1.636-4.189,2.677c-0.496,0.421-0.991,0.867-1.462,1.338c-3.743,3.743-6.048,8.899-6.048,14.6
				c0,11.402,9.246,20.648,20.648,20.648c5.701,0,10.857-2.305,14.6-6.048c0.471-0.471,0.917-0.967,1.339-1.462
				c1.041-1.289,1.933-2.677,2.677-4.189c0.57-1.215,1.041-2.479,1.388-3.792c0.223-0.843,0.372-1.735,0.496-2.627H272.897z"/>
		</g>
	</g>
	<g>
		<g>
			<path class="st2" d="M228.405,10.122c-87.598,0-158.863,71.277-158.863,158.886v62.154L7.433,347.872h62.108v115.534h115.808
				v48.583h7.436v-56.02H76.978V340.436H19.812l57.166-107.417v-64.011c0-83.51,67.93-151.45,151.427-151.45
				c35.075,0,69.278,12.286,96.309,34.594l4.735-5.734C301.087,23.012,265.203,10.122,228.405,10.122z"/>
		</g>
	</g>
	<g>
		<g>
			<rect x="379.854" y="187.648" class="st2" width="7.436" height="324.341"/>
		</g>
	</g>
	<g>
		<g>
			<g>
				<path class="st2" d="M282.269,126.125l8.47-7.977l-2.551-2.71l3.113-2.099c-0.198-0.293-0.395-0.559-0.613-0.821
					c-0.116-0.16-0.249-0.332-0.431-0.56l-0.155-0.195c-0.484-0.568-0.995-1.134-1.539-1.68c-0.545-0.542-1.114-1.056-1.753-1.598
					c-1.619-1.309-3.231-2.337-4.948-3.152c-1.45-0.681-2.938-1.225-4.444-1.623c-3.926-1.009-8.216-1.015-12.19,0.006
					c-1.489,0.395-2.975,0.939-4.435,1.625c-1.695,0.806-3.306,1.833-5.001,3.201c-0.574,0.486-1.145,1.003-1.685,1.544
					c-4.604,4.603-7.139,10.721-7.139,17.228c0,13.436,10.932,24.366,24.366,24.366c6.507,0,12.626-2.534,17.235-7.141
					c0.535-0.538,1.046-1.104,1.598-1.751c1.31-1.622,2.338-3.235,3.147-4.943c0.685-1.457,1.229-2.947,1.619-4.425
					c0.232-0.88,0.414-1.826,0.586-3.068l0.583-4.228H282.269z M286.589,134.672c-0.55,1.159-1.271,2.286-2.14,3.365
					c-0.363,0.424-0.743,0.85-1.143,1.249c-3.2,3.199-7.45,4.96-11.972,4.96c-9.336,0-16.93-7.595-16.93-16.93
					c0-4.521,1.762-8.771,4.965-11.974c0.395-0.397,0.816-0.773,1.162-1.07c1.164-0.938,2.292-1.662,3.437-2.206
					c1.041-0.489,2.106-0.879,3.137-1.152c1.358-0.35,2.779-0.526,4.229-0.526c1.45,0,2.871,0.177,4.207,0.521
					c1.051,0.278,2.116,0.668,3.147,1.152c1.162,0.552,2.287,1.275,3.377,2.153c0.346,0.294,0.694,0.604,1.026,0.922l-19.568,18.427
					h23.548C286.923,133.933,286.761,134.304,286.589,134.672z"/>
			</g>
		</g>
	</g>
	<g>
		<g>
			<path class="st2" d="M282.269,126.125l8.47-7.977l-5.098-5.413l-22.117,20.826h42.267c-2.948,16.437-17.38,28.803-34.455,28.803
				c-19.326,0-35.048-15.723-35.048-35.049c0-19.312,15.722-35.024,35.048-35.024c9.452,0,18.365,3.765,24.935,10.434l-10.602,9.986
				l5.098,5.413l15.749-14.834l-2.174-2.682c-8.116-10.012-20.147-15.754-33.005-15.754c-23.427,0-42.485,19.048-42.485,42.46
				c0,23.427,19.058,42.485,42.485,42.485c22.333,0,40.935-17.448,42.354-39.721l0.252-3.954H282.269z"/>
		</g>
	</g>
	<g>
		<g>
			<polygon class="st2" points="248.646,383.586 248.646,430.373 186.349,474.718 190.662,480.776 256.082,434.207 256.082,383.586 
							"/>
		</g>
	</g>
	<g>
		<g>
			<g>
				<path class="st2" d="M252.364,354.433c-8.615,0-15.625,7.009-15.625,15.624c0,8.615,7.01,15.624,15.625,15.624
					c8.615,0,15.623-7.009,15.623-15.624C267.987,361.442,260.979,354.433,252.364,354.433z M252.364,378.245
					c-4.514,0-8.189-3.673-8.189-8.188c0-4.515,3.675-8.188,8.189-8.188c4.515,0,8.187,3.673,8.187,8.188
					C260.551,374.572,256.879,378.245,252.364,378.245z"/>
			</g>
		</g>
	</g>
	<g>
		<g>
			<g>
				<path class="st2" d="M317.77,462.124c-8.615,0-15.623,7.009-15.623,15.623c0,8.615,7.008,15.624,15.623,15.624
					s15.623-7.009,15.623-15.624C333.392,469.133,326.385,462.124,317.77,462.124z M317.77,485.935
					c-4.514,0-8.187-3.673-8.187-8.188c0-4.515,3.672-8.187,8.187-8.187c4.515,0,8.187,3.672,8.187,8.187
					C325.956,482.261,322.284,485.935,317.77,485.935z"/>
			</g>
		</g>
	</g>
	<g>
		<g>
			<g>
				<path class="st2" d="M271.327,52.068c-7.528,0-13.652,6.124-13.652,13.652c0,7.528,6.124,13.652,13.652,13.652
					c7.528,0,13.652-6.124,13.652-13.652C284.979,58.192,278.855,52.068,271.327,52.068z M271.327,71.936
					c-3.427,0-6.216-2.789-6.216-6.216c0-3.428,2.789-6.216,6.216-6.216c3.428,0,6.216,2.789,6.216,6.216
					C277.543,69.148,274.755,71.936,271.327,71.936z"/>
			</g>
		</g>
	</g>
	<g>
		<g>
			<path class="st2" d="M314.787,278.76c-1.873,2.514-14.708,31.225-21.134,45.71h-76.804v7.436h81.643l0.978-2.213
				c7.397-16.694,19.728-44.098,21.33-46.561L314.787,278.76z"/>
		</g>
	</g>
	<g>
		<g>
			<polygon class="st2" points="355.834,358.865 387.036,277.02 380.089,274.372 348.398,357.495 348.398,451.81 381.609,472.313 
				385.516,465.985 355.834,447.661 			"/>
		</g>
	</g>
	<g>
		<g>
			<rect x="267.609" y="75.654" class="st2" width="7.436" height="12.919"/>
		</g>
	</g>
	<g>
		<g>
			<g>
				<path class="st2" d="M271.327,175.281c-7.528,0-13.652,6.125-13.652,13.654c0,7.527,6.124,13.651,13.652,13.651
					c7.528,0,13.652-6.125,13.652-13.654C284.979,181.406,278.855,175.281,271.327,175.281z M271.327,195.15
					c-3.427,0-6.216-2.788-6.216-6.215c0-3.429,2.789-6.217,6.216-6.217c3.428,0,6.216,2.789,6.216,6.215
					C277.543,192.361,274.755,195.15,271.327,195.15z"/>
			</g>
		</g>
	</g>
	<g>
		<g>
			<rect x="267.609" y="166.081" class="st2" width="7.436" height="12.919"/>
		</g>
	</g>
	<g>
		<g>
			<g>
				<path class="st2" d="M209.72,113.674c-7.528,0-13.652,6.124-13.652,13.652c0,7.528,6.124,13.652,13.652,13.652
					c7.528,0,13.652-6.124,13.652-13.652C223.372,119.798,217.248,113.674,209.72,113.674z M209.72,133.542
					c-3.428,0-6.216-2.789-6.216-6.216c0-3.427,2.789-6.216,6.216-6.216c3.428,0,6.216,2.789,6.216,6.216
					C215.936,130.754,213.148,133.542,209.72,133.542z"/>
			</g>
		</g>
	</g>
	<g>
		<g>
			<rect x="219.654" y="123.608" class="st2" width="12.919" height="7.436"/>
		</g>
	</g>
	<g>
		<g>
			<polygon class="st2" points="362.72,227.245 314.32,347.77 314.052,348.437 314.052,465.842 321.488,465.842 321.488,349.875 
				369.619,230.016 			"/>
		</g>
	</g>
	<g>
		<g>
			<polygon class="st2" points="281.603,389.498 281.603,446.825 236.739,477.38 236.739,512 244.175,512 244.175,481.314 
				289.039,450.758 289.039,389.498 			"/>
		</g>
	</g>
	<g>
		<g>
			<polygon class="st2" points="268.439,17.525 224.341,71.936 171.288,71.936 146.346,96.921 151.608,102.173 174.372,79.372 
				227.884,79.372 274.215,22.207 			"/>
		</g>
	</g>
	<g>
		<g>
			<polygon class="st2" points="294.236,224.903 318.406,192.655 343.76,192.655 356.899,176.32 351.104,171.66 340.197,185.219 
				314.688,185.219 279.369,232.339 383.572,232.339 383.572,224.903 			"/>
		</g>
	</g>
	<g>
		<path class="st3" d="M73.257,232.1L13.622,344.163h59.635v115.519h115.818l0.276-63.868c0-89.586,97.461-98.856,97.461-98.856
			c20.2,0,36.575-15.296,36.575-34.163c0-18.869-16.375-34.165-36.575-34.165c-103.444,0-108.302-85.78-108.302-85.78
			c0-26.387-22.9-47.778-51.15-47.778c-22.483,0-41.575,13.552-48.433,32.385c-3.669,13.227-5.671,27.147-5.671,41.544
			C73.257,173.61,73.257,232.1,73.257,232.1z"/>
	</g>
	<g>
		<g>
			<g>
				<path class="st2" d="M286.812,224.913c-98.577,0-104.39-78.917-104.583-82.062c0-28.396-24.613-51.497-54.868-51.497
					c-23.473,0-44.339,13.997-51.925,34.832l-0.089,0.278c-3.854,13.888-5.807,28.2-5.807,42.538v62.17L7.433,347.882h62.106v115.52
					h123.237l0.293-67.586c0-35.617,15.681-62.418,46.612-79.657c22.422-12.499,45.229-15.251,47.331-15.481
					c22.127-0.102,40.095-17.055,40.095-37.881C327.106,241.907,309.031,224.913,286.812,224.913z M286.812,293.241l-0.351,0.017
					c-1.009,0.096-100.829,10.653-100.829,102.541l-0.259,60.166H76.975v-115.52H19.812l57.163-107.418v-64.025
					c0-13.616,1.849-27.21,5.497-40.407c6.562-17.833,24.582-29.804,44.888-29.804c26.155,0,47.432,19.766,47.437,44.271
					c0.051,0.892,6.282,89.287,112.014,89.287c18.119,0,32.858,13.658,32.858,30.447S304.931,293.241,286.812,293.241z"/>
			</g>
		</g>
	</g>
	<g>
		<g>
			<path class="st4" d="M286.812,241.024c-113.84,0-120.62-96.498-120.676-97.472l-0.019-0.35v-0.351
				c0-19.511-17.386-35.384-38.757-35.384c-16.558,0-31.215,9.545-36.627,23.802c-3.372,12.333-5.082,25.024-5.082,37.734v66.191
				L34.256,331.77h51.395v115.519h91.083l0.224-51.475c0-41.404,19.058-73.861,55.112-93.86
				c26.325-14.603,52.469-17.229,53.568-17.333l0.586-0.056h0.588c13.334,0,24.182-9.766,24.182-21.77
				C310.994,250.79,300.146,241.024,286.812,241.024z"/>
		</g>
	</g>
	<g>
		<g>
			<g>
				<path class="st2" d="M407.343,0c-50.577,0-92.851,39.125-96.886,89.346l-46.939,44.226h53.636
					c14.739,36.518,50.654,60.876,90.188,60.876c53.609,0,97.224-43.615,97.224-97.224C504.567,43.615,460.952,0,407.343,0z
					 M407.343,187.013c-37.314,0-71.135-23.492-84.16-58.456l-0.901-2.421h-40.027l35.421-33.373l0.097-1.461
					c3.065-47.028,42.41-83.866,89.571-83.866c49.509,0,89.788,40.279,89.788,89.789
					C497.131,146.734,456.851,187.013,407.343,187.013z"/>
			</g>
		</g>
	</g>
	<g>
		<g>
			<polygon class="st2" points="285.689,112.691 290.69,118.193 290.717,118.169 			"/>
		</g>
	</g>
	<g>
		<g>
			<rect x="374.271" y="64.784" class="st1" width="64.881" height="64.881"/>
		</g>
	</g>
	<g>
		<g>
			<rect x="385.135" y="43.004" class="st2" width="7.436" height="21.781"/>
		</g>
	</g>
	<g>
		<g>
			<rect x="402.993" y="43.004" class="st2" width="7.436" height="21.781"/>
		</g>
	</g>
	<g>
		<g>
			<rect x="420.852" y="43.004" class="st2" width="7.436" height="21.781"/>
		</g>
	</g>
	<g>
		<g>
			<rect x="385.135" y="129.666" class="st2" width="7.436" height="21.78"/>
		</g>
	</g>
	<g>
		<g>
			<rect x="402.993" y="129.666" class="st2" width="7.436" height="21.78"/>
		</g>
	</g>
	<g>
		<g>
			<rect x="420.852" y="129.666" class="st2" width="7.436" height="21.78"/>
		</g>
	</g>
	<g>
		<g>
			<rect x="439.152" y="75.648" class="st2" width="21.781" height="7.436"/>
		</g>
	</g>
	<g>
		<g>
			<rect x="439.152" y="93.507" class="st2" width="21.781" height="7.436"/>
		</g>
	</g>
	<g>
		<g>
			<rect x="439.152" y="111.364" class="st2" width="21.781" height="7.436"/>
		</g>
	</g>
	<g>
		<g>
			<rect x="352.491" y="75.648" class="st2" width="21.778" height="7.436"/>
		</g>
	</g>
	<g>
		<g>
			<rect x="352.491" y="93.507" class="st2" width="21.778" height="7.436"/>
		</g>
	</g>
	<g>
		<g>
			<rect x="352.491" y="111.364" class="st2" width="21.778" height="7.436"/>
		</g>
	</g>
	<g>
		<g>
			<g>
				<path class="st2" d="M370.551,61.066v72.317h72.319V61.066H370.551z M435.434,125.948h-57.446V68.502h57.446V125.948z"/>
			</g>
		</g>
	</g>
	<g>
		<g>
			<g>
				<path class="st2" d="M424.57,26.404c-5.601,0-10.16,4.558-10.16,10.159c0,5.602,4.558,10.158,10.16,10.158
					c5.601,0,10.157-4.557,10.157-10.158C434.727,30.962,430.171,26.404,424.57,26.404z M424.57,39.285
					c-1.501,0-2.723-1.221-2.723-2.722c0-1.502,1.223-2.723,2.723-2.723c1.501,0,2.721,1.221,2.721,2.723
					C427.291,38.064,426.071,39.285,424.57,39.285z"/>
			</g>
		</g>
	</g>
	<g>
		<g>
			<g>
				<path class="st2" d="M467.372,87.066c-5.601,0-10.157,4.557-10.157,10.158c0,5.601,4.556,10.159,10.157,10.159
					c5.601,0,10.159-4.558,10.159-10.159C477.531,91.623,472.973,87.066,467.372,87.066z M467.372,99.948
					c-1.501,0-2.721-1.221-2.721-2.723c0-1.501,1.22-2.722,2.721-2.722s2.723,1.221,2.723,2.722
					C470.095,98.727,468.872,99.948,467.372,99.948z"/>
			</g>
		</g>
	</g>
	<g>
		<g>
			<g>
				<path class="st2" d="M346.05,87.066c-5.601,0-10.159,4.557-10.159,10.158c0,5.601,4.558,10.159,10.159,10.159
					c5.601,0,10.16-4.558,10.16-10.159C356.209,91.623,351.651,87.066,346.05,87.066z M346.05,99.948
					c-1.5,0-2.723-1.221-2.723-2.723c0-1.501,1.223-2.722,2.723-2.722c1.501,0,2.723,1.221,2.723,2.722
					C348.773,98.727,347.551,99.948,346.05,99.948z"/>
			</g>
		</g>
	</g>
	<g>
		<g>
			<g>
				<path class="st2" d="M388.854,147.727c-5.601,0-10.159,4.558-10.159,10.159c0,5.601,4.558,10.158,10.159,10.158
					s10.157-4.557,10.157-10.158C399.011,152.285,394.455,147.727,388.854,147.727z M388.854,160.608
					c-1.501,0-2.723-1.221-2.723-2.722c0-1.502,1.222-2.723,2.723-2.723s2.721,1.221,2.721,2.723
					C391.574,159.387,390.354,160.608,388.854,160.608z"/>
			</g>
		</g>
	</g>
</g>
</svg>
