<?xml version="1.0" encoding="utf-8"?>
<!-- Generator: Adobe Illustrator 18.0.0, SVG Export Plug-In . SVG Version: 6.00 Build 0)  -->
<!DOCTYPE svg PUBLIC "-//W3C//DTD SVG 1.1//EN" "http://www.w3.org/Graphics/SVG/1.1/DTD/svg11.dtd">
<svg version="1.1" id="Layer_1" xmlns="http://www.w3.org/2000/svg" xmlns:xlink="http://www.w3.org/1999/xlink" x="0px" y="0px"
	 viewBox="0 0 512 512" style="enable-background:new 0 0 512 512;" xml:space="preserve">
<style type="text/css">
	.st0{fill:#FFD452;}
	.st1{fill:#F58E6F;}
	.st2{fill:#4A555F;}
	.st3{fill:none;}
	.st4{fill:#DFDFDF;}
	.st5{fill:#71CCE0;}
	.st6{fill:#FFFFFF;}
</style>
<g>
	<g>
		<g>
			<circle class="st0" cx="255.867" cy="444.281" r="46.476"/>
		</g>
	</g>
	<g>
		<g>
			<g>
				<path class="st2" d="M72.128,0C34.787,0,4.408,30.379,4.408,67.719s30.379,67.719,67.719,67.719s67.719-30.379,67.719-67.719
					S109.468,0,72.128,0z M72.128,128.145c-33.318,0-60.426-27.107-60.426-60.426S38.81,7.294,72.128,7.294
					c33.318,0,60.426,27.107,60.426,60.426S105.446,128.145,72.128,128.145z"/>
			</g>
		</g>
	</g>
	<g>
		<g>
			<g>
				<path class="st2" d="M255.866,0c-37.34,0-67.719,30.379-67.719,67.719s30.379,67.719,67.719,67.719
					c37.34,0,67.719-30.379,67.719-67.719S293.207,0,255.866,0z M255.866,128.145c-33.318,0-60.425-27.107-60.425-60.426
					s27.107-60.426,60.425-60.426c33.319,0,60.426,27.107,60.426,60.426S289.185,128.145,255.866,128.145z"/>
			</g>
		</g>
	</g>
	<g>
		<g>
			<g>
				<path class="st2" d="M70.432,183.414c-37.34,0-67.719,30.379-67.719,67.72c0,37.341,30.379,67.719,67.719,67.719
					c37.343,0,67.722-30.379,67.722-67.719C138.154,213.792,107.775,183.414,70.432,183.414z M70.432,311.559
					c-33.318,0-60.426-27.107-60.426-60.426c0-33.319,27.107-60.427,60.426-60.427c33.321,0,60.428,27.107,60.428,60.427
					C130.86,284.452,103.753,311.559,70.432,311.559z"/>
			</g>
		</g>
	</g>
	<g>
		<g>
			<path class="st1" d="M70.433,199.216c-28.627,0-51.916,23.291-51.916,51.917c0,28.626,23.289,51.916,51.916,51.916
				s51.916-23.29,51.916-51.916C122.349,222.507,99.06,199.216,70.433,199.216z"/>
		</g>
	</g>
	<g>
		<g>
			<g>
				<path class="st2" d="M255.866,183.414c-37.34,0-67.719,30.379-67.719,67.72c0,37.341,30.379,67.719,67.719,67.719
					c37.34,0,67.719-30.379,67.719-67.719C323.586,213.792,293.207,183.414,255.866,183.414z M255.866,311.559
					c-33.318,0-60.425-27.107-60.425-60.426c0-33.319,27.107-60.427,60.425-60.427c33.319,0,60.426,27.107,60.426,60.427
					C316.292,284.452,289.185,311.559,255.866,311.559z"/>
			</g>
		</g>
	</g>
	<g>
		<g>
			<path class="st1" d="M255.867,199.216c-28.627,0-51.916,23.291-51.916,51.917c0,28.626,23.289,51.916,51.916,51.916
				s51.916-23.29,51.916-51.916C307.783,222.507,284.494,199.216,255.867,199.216z"/>
		</g>
	</g>
	<g>
		<g>
			<g>
				<path class="st2" d="M509.067,62.232c-2.585-32.77-29.246-59.432-62.016-62.015c-20.718-1.643-41.208,6.382-55.228,21.55
					c-12.964,14.026-19.272,32.294-17.762,51.439c2.586,32.771,29.246,59.433,62.016,62.015c1.823,0.145,3.671,0.217,5.487,0.217
					c18.825,0,36.956-7.934,49.741-21.768C504.269,99.645,510.577,81.377,509.067,62.232z M485.949,108.721
					c-12.513,13.538-30.802,20.696-49.297,19.229c-29.232-2.303-53.013-26.085-55.321-55.317
					c-1.346-17.094,4.281-33.4,15.848-45.915c11.408-12.344,27.587-19.424,44.385-19.424c1.626,0,3.279,0.065,4.912,0.194
					c29.232,2.306,53.013,26.087,55.321,55.318C503.143,79.899,497.516,96.206,485.949,108.721z"/>
			</g>
		</g>
	</g>
	<g>
		<g>
			<g>
				<path class="st2" d="M439.871,183.414c-37.34,0-67.719,30.379-67.719,67.72c0,37.341,30.379,67.719,67.719,67.719
					s67.719-30.379,67.719-67.719C507.59,213.792,477.211,183.414,439.871,183.414z M439.871,311.559
					c-33.318,0-60.426-27.107-60.426-60.426c0-33.319,27.107-60.427,60.426-60.427s60.425,27.107,60.425,60.427
					C500.296,284.452,473.189,311.559,439.871,311.559z"/>
			</g>
		</g>
	</g>
	<g>
		<g>
			<path class="st1" d="M439.869,199.216c-28.627,0-51.916,23.291-51.916,51.917c0,28.626,23.289,51.916,51.916,51.916
				c28.629,0,51.918-23.29,51.918-51.916C491.788,222.507,468.499,199.216,439.869,199.216z"/>
		</g>
	</g>
	<g>
		<g>
			<g>
				<path class="st2" d="M255.866,376.561c-37.34,0-67.719,30.379-67.719,67.719S218.526,512,255.866,512
					c37.34,0,67.719-30.379,67.719-67.719S293.207,376.561,255.866,376.561z M255.866,504.706
					c-33.318,0-60.425-27.107-60.425-60.425s27.107-60.426,60.425-60.426c33.319,0,60.426,27.107,60.426,60.426
					S289.185,504.706,255.866,504.706z"/>
			</g>
		</g>
	</g>
	<g>
		<g>
			<g>
				<path class="st2" d="M225.428,414.149l-5.18-5.133c-1.843,1.859-3.55,3.876-5.076,5.996l5.921,4.262
					C222.396,417.462,223.856,415.737,225.428,414.149z M217.605,425.014l-6.51-3.288c-1.182,2.339-2.184,4.788-2.98,7.278
					l6.947,2.22C215.741,429.101,216.596,427.011,217.605,425.014z M213.037,444.281c0-2.183,0.166-4.379,0.492-6.527l-7.208-1.097
					c-0.382,2.508-0.577,5.074-0.575,7.747l1.484,0.027L213.037,444.281z M220.53,479.825c1.852,1.845,3.865,3.557,5.986,5.089
					l4.274-5.909c-1.812-1.311-3.533-2.773-5.117-4.349L220.53,479.825z M213.581,451.147l-7.199,1.164
					c0.418,2.587,1.042,5.156,1.859,7.637l6.928-2.282C214.473,455.549,213.939,453.356,213.581,451.147z M217.759,463.854
					l-6.482,3.343c1.199,2.326,2.588,4.572,4.131,6.678l5.883-4.312C219.975,467.763,218.785,465.843,217.759,463.854z
					 M236.212,406.216l-3.353-6.477c-2.317,1.199-4.561,2.594-6.669,4.143l4.321,5.876
					C232.313,408.434,234.232,407.242,236.212,406.216z M293.888,424.548l6.472-3.364c-1.204-2.312-2.602-4.554-4.157-6.661
					l-5.869,4.333C291.666,420.658,292.862,422.573,293.888,424.548z M298.124,437.24l7.194-1.189
					c-0.427-2.587-1.063-5.153-1.89-7.631l-6.919,2.31C297.215,432.843,297.758,435.033,298.124,437.24z M248.912,402.012
					l-1.173-7.199c-2.581,0.42-5.15,1.051-7.636,1.873l2.293,6.923C244.517,402.909,246.709,402.371,248.912,402.012z
					 M286.179,474.537l5.162,5.155c1.843-1.847,3.559-3.857,5.097-5.975l-5.897-4.288
					C289.223,471.24,287.755,472.96,286.179,474.537z M233.223,489.009c2.336,1.185,4.782,2.191,7.27,2.991l2.237-6.942
					c-2.125-0.684-4.212-1.543-6.206-2.555L233.223,489.009z M285.056,403.528l-4.255,5.926c1.814,1.301,3.542,2.759,5.138,4.331
					l5.119-5.195C289.194,406.754,287.176,405.05,285.056,403.528z M275.366,482.425l3.329,6.491
					c2.322-1.19,4.571-2.576,6.684-4.117l-4.298-5.893C279.274,480.224,277.351,481.407,275.366,482.425z M305.988,443.902h-7.294
					l0.002,0.379c0,2.25-0.176,4.501-0.52,6.694l7.203,1.135c0.406-2.567,0.61-5.201,0.61-7.897L305.988,443.902z M294.05,463.706
					l6.501,3.31c1.189-2.339,2.203-4.783,3.006-7.264l-6.938-2.249C295.932,459.621,295.068,461.708,294.05,463.706z
					 M271.045,396.497l-2.203,6.952c2.125,0.675,4.217,1.526,6.216,2.529l3.272-6.518
					C275.988,398.284,273.538,397.287,271.045,396.497z M255.866,394.157h-0.285v7.294h0.285c2.154,0,4.321,0.162,6.442,0.48
					l1.083-7.213C260.912,394.346,258.381,394.157,255.866,394.157z M249.254,486.604l-1.111,7.208
					c2.531,0.392,5.121,0.59,7.781,0.59h0.021l0.005-0.896l-0.083-6.396C253.651,487.109,251.427,486.939,249.254,486.604z
					 M262.647,486.576l1.144,7.204c2.583-0.409,5.155-1.03,7.643-1.842l-2.265-6.933
					C267.047,485.698,264.853,486.226,262.647,486.576z"/>
			</g>
		</g>
	</g>
	<g>
		<g>
			<g>
				<path class="st2" d="M76.9,377.939l-7.009,2.011c0.705,2.458,1.531,4.892,2.455,7.236l6.786-2.676
					C78.292,382.383,77.541,380.173,76.9,377.939z M81.976,390.845l-6.501,3.305c1.151,2.269,2.424,4.502,3.782,6.636l6.154-3.91
					C84.182,394.937,83.026,392.908,81.976,390.845z M83.646,407.032c1.555,2.003,3.224,3.956,4.962,5.804l5.314-4.995
					c-1.581-1.682-3.098-3.458-4.511-5.279L83.646,407.032z M74.369,364.308l-7.265,0.643c0.226,2.542,0.572,5.088,1.035,7.567
					l7.17-1.337C74.889,368.93,74.573,366.618,74.369,364.308z M74.079,335.467h-7.294v7.294h7.294V335.467z M74.079,350.055h-7.294
					v7.294h7.294V350.055z M150.145,438.194h7.294V430.9h-7.294V438.194z M94.092,418.145c1.899,1.672,3.903,3.275,5.957,4.768
					l4.288-5.902c-1.871-1.358-3.697-2.818-5.425-4.34L94.092,418.145z M164.732,430.9v7.294h7.294V430.9H164.732z M135.056,437.276
					c2.505,0.381,5.06,0.646,7.593,0.788l0.408-7.282c-2.305-0.129-4.627-0.37-6.904-0.717L135.056,437.276z M120.259,433.558
					c2.396,0.854,4.858,1.598,7.315,2.214l1.771-7.075c-2.229-0.558-4.464-1.235-6.641-2.01L120.259,433.558z M106.441,427.097
					c2.187,1.291,4.459,2.488,6.755,3.56l3.086-6.607c-2.084-0.975-4.15-2.062-6.137-3.235L106.441,427.097z"/>
			</g>
		</g>
	</g>
	<g>
		<g>
			<g>
				<path class="st2" d="M370.684,430.783l0.408,7.282c2.533-0.142,5.088-0.407,7.593-0.788l-1.097-7.21
					C375.312,430.413,372.99,430.654,370.684,430.783z M397.459,424.049l3.087,6.607c2.296-1.072,4.568-2.27,6.755-3.56
					l-3.704-6.282C401.609,421.987,399.544,423.075,397.459,424.049z M341.716,438.194h7.294V430.9h-7.294V438.194z M409.404,417.01
					l4.288,5.902c2.054-1.492,4.057-3.096,5.957-4.768l-4.82-5.475C413.101,414.191,411.275,415.652,409.404,417.01z
					 M356.303,438.194h7.294V430.9h-7.294V438.194z M384.396,428.697l1.771,7.075c2.457-0.616,4.919-1.36,7.315-2.214l-2.446-6.871
					C388.859,427.462,386.625,428.139,384.396,428.697z M439.662,357.349h7.294v-7.294h-7.294V357.349z M438.432,371.181l7.17,1.337
					c0.463-2.479,0.81-5.025,1.035-7.567l-7.265-0.643C439.168,366.618,438.852,368.93,438.432,371.181z M419.82,407.84l5.314,4.995
					c1.738-1.848,3.407-3.801,4.962-5.804l-5.765-4.471C422.918,404.382,421.401,406.158,419.82,407.84z M439.662,335.467v7.294
					h7.294v-7.294H439.662z M428.33,396.876l6.154,3.91c1.358-2.134,2.631-4.368,3.782-6.636l-6.501-3.305
					C430.716,392.908,429.56,394.937,428.33,396.876z M434.609,384.51l6.786,2.676c0.924-2.344,1.75-4.777,2.455-7.236l-7.009-2.011
					C436.2,380.173,435.45,382.383,434.609,384.51z"/>
			</g>
		</g>
	</g>
	<g>
		<g>
			
				<rect x="100.429" y="159.274" transform="matrix(0.7071 -0.7071 0.7071 0.7071 -66.2467 165.9084)" class="st2" width="133.433" height="7.293"/>
		</g>
	</g>
	<g>
		<g>
			
				<rect x="158.449" y="96.204" transform="matrix(0.7071 -0.7071 0.7071 0.7071 -67.7259 162.3425)" class="st2" width="7.293" height="133.433"/>
		</g>
	</g>
	<g>
		<g>
			
				<rect x="285.694" y="159.274" transform="matrix(0.7071 -0.7071 0.7071 0.7071 -11.9836 296.9109)" class="st2" width="133.433" height="7.293"/>
		</g>
	</g>
	<g>
		<g>
			
				<rect x="343.714" y="96.204" transform="matrix(0.7071 -0.7071 0.7071 0.7071 -13.4599 293.3478)" class="st2" width="7.293" height="133.433"/>
		</g>
	</g>
	<g>
		<g>
			<g>
				<path class="st2" d="M66.786,177.291h7.294v-7.294h-7.294V177.291z M66.786,140.822v7.294h7.294v-7.294H66.786z M66.786,162.704
					h7.294v-7.294h-7.294V162.704z"/>
			</g>
		</g>
	</g>
	<g>
		<g>
			<g>
				<path class="st2" d="M439.662,177.291h7.294v-7.294h-7.294V177.291z M439.662,140.822v7.294h7.294v-7.294H439.662z
					 M439.662,162.704h7.294v-7.294h-7.294V162.704z"/>
			</g>
		</g>
	</g>
	<g>
		<g>
			<g>
				<path class="st2" d="M252.219,162.704h7.294v-7.294h-7.294V162.704z M252.219,177.291h7.294v-7.294h-7.294V177.291z
					 M252.219,140.822v7.294h7.294v-7.294H252.219z"/>
			</g>
		</g>
	</g>
	<g>
		<g>
			<g>
				<path class="st2" d="M252.219,328.59v7.294h7.294v-7.294H252.219z M252.219,365.059h7.294v-7.294h-7.294V365.059z
					 M252.219,350.472h7.294v-7.294h-7.294V350.472z"/>
			</g>
		</g>
	</g>
	<g>
		<g>
			<g>
				<path class="st2" d="M303.877,64.468c-0.563-1.286-14.155-31.47-47.877-31.47c-33.722,0-47.315,30.184-47.877,31.47
					l-0.641,1.461l0.641,1.461c0.562,1.286,14.155,31.471,47.877,31.47c33.722,0,47.315-30.184,47.877-31.47l0.641-1.461
					L303.877,64.468z M255.999,91.566c-25.274,0.001-37.492-19.917-40.472-25.623c2.989-5.619,15.409-25.652,40.472-25.652
					c25.274,0,37.492,19.917,40.472,25.624C293.482,71.534,281.062,91.566,255.999,91.566z"/>
			</g>
		</g>
	</g>
	<g>
		<g>
			<path class="st1" d="M273.93,63.538c-1.653,1.483-3.842,2.383-6.249,2.383c-5.178,0-9.36-4.182-9.36-9.36
				c0-3.137,1.532-5.933,3.915-7.61c-1.945-0.73-4.036-1.118-6.249-1.118c-9.968,0-18.089,8.096-18.089,18.088
				c0,9.993,8.12,18.089,18.089,18.089c9.993,0,18.113-8.096,18.113-18.089C274.1,65.119,274.052,64.316,273.93,63.538z"/>
		</g>
	</g>
	<g>
		<g>
			<rect x="34.766" y="40.151" class="st4" width="37.362" height="51.557"/>
		</g>
	</g>
	<g>
		<g>
			<rect x="72.127" y="40.151" class="st4" width="37.362" height="51.557"/>
		</g>
	</g>
	<g>
		<g>
			<g>
				<path class="st2" d="M31.119,36.503v58.851h44.656V36.503H31.119z M68.481,88.061H38.413V43.797h30.068V88.061z"/>
			</g>
		</g>
	</g>
	<g>
		<g>
			<g>
				<path class="st2" d="M68.481,36.503v58.851h44.656V36.503H68.481z M105.843,88.061H75.775V43.797h30.068V88.061z"/>
			</g>
		</g>
	</g>
	<g>
		<g>
			<g>
				<path class="st2" d="M31.119,88.061v17.854h82.017V88.061H31.119z M105.843,98.622h-67.43v-3.267h67.43V98.622z"/>
			</g>
		</g>
	</g>
	<g>
		<g>
			<path class="st2" d="M70.535,213.48c-15.613,0-29.778,9.848-35.251,24.506l6.833,2.55c4.414-11.82,15.834-19.762,28.418-19.762
				c12.586,0,24.004,7.942,28.415,19.762l6.833-2.55C100.315,223.329,86.148,213.48,70.535,213.48z"/>
		</g>
	</g>
	<g>
		<g>
			<path class="st2" d="M98.812,262.108c-4.575,11.776-15.675,19.385-28.278,19.385c-12.605,0-23.705-7.608-28.278-19.384l-6.8,2.64
				c5.672,14.602,19.441,24.037,35.078,24.037c15.635,0,29.403-9.434,35.078-24.036L98.812,262.108z"/>
		</g>
	</g>
	<g>
		<g>
			<polygon class="st2" points="105.019,224.92 101.322,236.942 90.039,233.848 88.111,240.883 106.213,245.845 111.99,227.065 			
				"/>
		</g>
	</g>
	<g>
		<g>
			<polygon class="st2" points="36.516,258.991 31.103,276.962 38.088,279.066 41.459,267.867 53.611,271.119 55.496,264.073 			"/>
		</g>
	</g>
	<g>
		<g>
			<path class="st2" d="M254.85,213.48c-15.613,0-29.781,9.848-35.249,24.506l6.833,2.55c4.411-11.82,15.829-19.762,28.415-19.762
				s24.004,7.942,28.416,19.762l6.833-2.55C284.631,223.329,270.464,213.48,254.85,213.48z"/>
		</g>
	</g>
	<g>
		<g>
			<path class="st2" d="M283.128,262.109c-4.573,11.775-15.673,19.384-28.278,19.384c-12.605,0-23.705-7.608-28.278-19.384
				l-6.8,2.64c5.672,14.602,19.441,24.037,35.078,24.037c15.637,0,29.406-9.435,35.078-24.037L283.128,262.109z"/>
		</g>
	</g>
	<g>
		<g>
			<polygon class="st2" points="289.337,224.92 285.638,236.942 274.357,233.848 272.429,240.883 290.529,245.845 296.307,227.066 
							"/>
		</g>
	</g>
	<g>
		<g>
			<polygon class="st2" points="220.832,258.991 215.418,276.962 222.403,279.066 225.775,267.867 237.926,271.119 239.812,264.073 
							"/>
		</g>
	</g>
	<g>
		<g>
			<path class="st2" d="M439.166,213.48c-15.611,0-29.776,9.848-35.249,24.506l6.833,2.55c4.414-11.82,15.832-19.762,28.416-19.762
				s24.004,7.942,28.418,19.762l6.833-2.55C468.944,223.329,454.779,213.48,439.166,213.48z"/>
		</g>
	</g>
	<g>
		<g>
			<path class="st2" d="M467.446,262.108c-4.575,11.776-15.677,19.385-28.28,19.385s-23.702-7.608-28.278-19.385l-6.8,2.643
				c5.675,14.602,19.443,24.036,35.078,24.036s29.406-9.434,35.08-24.036L467.446,262.108z"/>
		</g>
	</g>
	<g>
		<g>
			<polygon class="st2" points="473.652,224.92 469.953,236.942 458.673,233.848 456.745,240.883 474.844,245.845 480.623,227.066 
							"/>
		</g>
	</g>
	<g>
		<g>
			<polygon class="st2" points="405.145,258.991 399.736,276.964 406.721,279.065 410.093,267.867 422.242,271.119 424.127,264.073 
							"/>
		</g>
	</g>
	<g>
		<g>
			<rect x="44.593" y="51.389" class="st2" width="17.707" height="7.294"/>
		</g>
	</g>
	<g>
		<g>
			<rect x="44.593" y="62.282" class="st2" width="17.707" height="7.294"/>
		</g>
	</g>
	<g>
		<g>
			<rect x="44.593" y="73.175" class="st2" width="17.707" height="7.294"/>
		</g>
	</g>
	<g>
		<g>
			<rect x="81.955" y="51.389" class="st2" width="17.708" height="7.294"/>
		</g>
	</g>
	<g>
		<g>
			<rect x="81.955" y="62.282" class="st2" width="17.708" height="7.294"/>
		</g>
	</g>
	<g>
		<g>
			<rect x="81.955" y="73.175" class="st2" width="17.708" height="7.294"/>
		</g>
	</g>
	<g>
		<g>
			<polygon class="st2" points="280.656,427.525 246.459,458.532 233.961,444.536 228.52,449.394 245.913,468.872 285.557,432.929 
							"/>
		</g>
	</g>
	<g>
		<g>
			<path class="st2" d="M449.097,22.285h-11.577c-14.417,0-26.146,11.728-26.146,26.145h7.294c0-10.395,8.457-18.851,18.852-18.851
				h11.577c10.395,0,18.849,8.456,18.849,18.851v16.399c0,4.986-2.431,9.681-6.503,12.559l-2.771,1.96
				c-4.772,3.372-8.022,8.385-9.157,14.115l-0.601,3.036c-1.071,5.424-5.865,9.362-11.394,9.362
				c-10.395,0-18.852-8.456-18.852-18.851h-7.294c0,14.417,11.729,26.144,26.146,26.144c9.003,0,16.805-6.411,18.55-15.24
				l0.601-3.034c0.769-3.888,2.975-7.288,6.211-9.574l2.773-1.96c6.002-4.243,9.585-11.165,9.585-18.516V48.43
				C475.241,34.013,463.512,22.285,449.097,22.285z"/>
		</g>
	</g>
	<g>
		<g>
			<path class="st0" d="M449.096,38.088h-11.577c-5.701,0-10.34,4.639-10.34,10.341v38.58c0,5.702,4.639,10.341,10.34,10.341
				c1.479,0,2.761-1.054,3.049-2.506l0.603-3.034c1.553-7.876,6.026-14.772,12.591-19.412l2.766-1.956
				c1.823-1.29,2.911-3.386,2.911-5.613V48.429C459.438,42.728,454.799,38.088,449.096,38.088z"/>
		</g>
	</g>
	<g>
		<g>
			<path class="st2" d="M443.689,39.274c-8.011,0-14.528,6.516-14.528,14.527v23.275h7.294V53.801c0-3.989,3.246-7.233,7.235-7.233
				c3.989,0,7.232,3.245,7.232,7.233v13.918h7.294V53.801C458.215,45.791,451.697,39.274,443.689,39.274z"/>
		</g>
	</g>
	<g>
		<g>
			<path class="st2" d="M433.437,62.584h-0.629v7.294h0.629c3.642,0,6.605,2.963,6.605,6.604c0,1.983-0.878,3.842-2.412,5.101
				l-7.137,5.865l4.63,5.637l7.137-5.865c3.227-2.651,5.076-6.565,5.076-10.738C447.336,68.819,441.101,62.584,433.437,62.584z"/>
		</g>
	</g>
</g>
</svg>
