<?xml version="1.0" encoding="utf-8"?>
<!-- Generator: Adobe Illustrator 18.0.0, SVG Export Plug-In . SVG Version: 6.00 Build 0)  -->
<!DOCTYPE svg PUBLIC "-//W3C//DTD SVG 1.1//EN" "http://www.w3.org/Graphics/SVG/1.1/DTD/svg11.dtd">
<svg version="1.1" id="Layer_1" xmlns="http://www.w3.org/2000/svg" xmlns:xlink="http://www.w3.org/1999/xlink" x="0px" y="0px"
	 viewBox="0 0 512 512" style="enable-background:new 0 0 512 512;" xml:space="preserve">
<style type="text/css">
	.st0{fill:#FFD452;}
	.st1{fill:#F58E6F;}
	.st2{fill:#4A555F;}
	.st3{fill:none;}
	.st4{fill:#DFDFDF;}
	.st5{fill:#71CCE0;}
	.st6{fill:#FFFFFF;}
</style>
<g>
	<g>
		<g>
			<g>
				<path class="st2" d="M350.425,140.122c-1.262-0.645-2.561-1.23-3.886-1.754c0.518-2.712,0.779-5.475,0.779-8.247
					c0-24.418-19.769-44.305-44.142-44.495c-4.802-7.245-13.133-11.471-21.984-10.906c-12.822,0.812-22.864,11.821-22.864,25.06
					v58.924c0,16.302,13.263,29.564,29.565,29.564h57.321c5.215,0,10.092-1.653,13.731-4.655c4.041-3.332,6.562-7.901,7.494-13.581
					C368.404,158.041,361.968,146.021,350.425,140.122z M359.68,168.924c-0.654,3.995-2.368,7.159-5.091,9.405
					c-2.417,1.993-5.747,3.09-9.375,3.09h-57.321c-12.525,0-22.716-10.19-22.716-22.715V99.78c0-9.635,7.225-17.64,16.45-18.225
					c0.39-0.026,0.779-0.038,1.164-0.038c6.449,0,12.377,3.531,15.473,9.215l1.032,1.878l2.137-0.095
					c0.45-0.02,0.921-0.042,1.391-0.042c20.758,0,37.646,16.888,37.646,37.647c0,3.238-0.421,6.459-1.254,9.572l-0.846,3.168
					l3.128,0.983c2,0.628,3.954,1.427,5.81,2.377C356.189,150.759,361.161,159.883,359.68,168.924z"/>
			</g>
		</g>
	</g>
	<g>
		<g>
			<path class="st0" d="M343.669,153.334c-1.457-0.745-2.993-1.373-4.566-1.867l-10.424-3.276l2.817-10.556
				c0.652-2.445,0.983-4.972,0.983-7.513c0-16.352-13.303-29.656-29.655-29.656c-0.351,0-0.701,0.019-1.048,0.034l-7.121,0.315
				l-3.409-6.26c-1.696-3.112-4.935-5.046-8.454-5.046c-0.216,0-0.434,0.007-0.66,0.021c-4.943,0.314-8.965,4.913-8.965,10.251
				v58.923c0,8.119,6.606,14.725,14.726,14.725h57.321c1.752,0,3.318-0.46,4.291-1.263c0.768-0.633,1.842-1.793,2.291-4.533
				C352.712,162.033,349.447,156.288,343.669,153.334z"/>
		</g>
	</g>
	<g>
		<g>
			<polygon class="st2" points="286.209,134.299 286.209,78.099 279.36,78.099 279.36,141.148 302.291,141.148 302.291,160.416 
				309.14,160.416 309.14,134.299 			"/>
		</g>
	</g>
	<g>
		<g>
			<rect x="317.886" y="93.448" class="st2" width="6.849" height="30.615"/>
		</g>
	</g>
	<g>
		<g>
			
				<rect x="322.463" y="172.18" transform="matrix(4.889528e-04 -1 1 4.889528e-04 155.934 507.2202)" class="st2" width="18.477" height="6.849"/>
		</g>
	</g>
	<g>
		<g>
			<g>
				<path class="st2" d="M305.715,156.992c-5.181,0-9.396,4.215-9.396,9.395s4.215,9.395,9.396,9.395
					c5.18,0,9.395-4.215,9.395-9.395S310.896,156.992,305.715,156.992z M305.715,168.933c-1.404,0-2.547-1.143-2.547-2.546
					c0-1.404,1.143-2.546,2.547-2.546c1.404,0,2.546,1.143,2.546,2.546C308.262,167.79,307.119,168.933,305.715,168.933z"/>
			</g>
		</g>
	</g>
	<g>
		<g>
			<g>
				<path class="st2" d="M321.318,120.639c-5.18,0-9.395,4.215-9.395,9.395c0,5.181,4.215,9.396,9.395,9.396
					c5.181,0,9.396-4.215,9.396-9.396C330.714,124.854,326.5,120.639,321.318,120.639z M321.318,132.581
					c-1.403,0-2.546-1.143-2.546-2.547c0-1.404,1.143-2.546,2.546-2.546c1.405,0,2.547,1.143,2.547,2.546
					C323.865,131.438,322.723,132.581,321.318,132.581z"/>
			</g>
		</g>
	</g>
	<g>
		<g>
			<g>
				<path class="st2" d="M301.264,103.546c-5.181,0-9.396,4.215-9.396,9.396c0,5.18,4.215,9.395,9.396,9.395
					c5.18,0,9.395-4.215,9.395-9.395C310.659,107.76,306.445,103.546,301.264,103.546z M301.264,115.488
					c-1.404,0-2.547-1.143-2.547-2.546c0-1.405,1.143-2.547,2.547-2.547c1.404,0,2.546,1.143,2.546,2.547
					C303.811,114.345,302.668,115.488,301.264,115.488z"/>
			</g>
		</g>
	</g>
	<g>
		<g>
			<g>
				<path class="st2" d="M282.784,146.66c-5.18,0-9.395,4.215-9.395,9.395s4.215,9.395,9.395,9.395c5.18,0,9.395-4.215,9.395-9.395
					S287.964,146.66,282.784,146.66z M282.784,158.601c-1.403,0-2.546-1.143-2.546-2.546c0-1.403,1.143-2.546,2.546-2.546
					s2.546,1.143,2.546,2.546C285.33,157.459,284.188,158.601,282.784,158.601z"/>
			</g>
		</g>
	</g>
	<g>
		<g>
			<g>
				<path class="st2" d="M331.706,151c-5.181,0-9.396,4.215-9.396,9.396c0,5.18,4.215,9.395,9.396,9.395
					c5.18,0,9.395-4.215,9.395-9.395C341.1,155.215,336.886,151,331.706,151z M331.706,162.942c-1.405,0-2.547-1.143-2.547-2.546
					c0-1.404,1.143-2.547,2.547-2.547c1.403,0,2.546,1.143,2.546,2.547C334.251,161.799,333.109,162.942,331.706,162.942z"/>
			</g>
		</g>
	</g>
	<g>
		<g>
			<rect x="297.84" y="89.086" class="st2" width="6.849" height="17.884"/>
		</g>
	</g>
	<g>
		<g>
			<rect x="279.36" y="162.026" class="st2" width="6.849" height="22.318"/>
		</g>
	</g>
	<g>
		<g>
			<g>
				<path class="st2" d="M225.002,74.72c-8.894-0.566-17.183,3.662-21.986,10.906c-24.374,0.189-44.142,20.076-44.142,44.495
					c0,2.772,0.261,5.535,0.779,8.247c-1.325,0.523-2.624,1.109-3.885,1.753c-11.544,5.899-17.979,17.92-16.015,29.911
					c0.932,5.678,3.452,10.248,7.494,13.581c3.64,3.002,8.517,4.655,13.731,4.655h57.321c16.302,0,29.565-13.262,29.565-29.564
					V99.78C247.864,86.541,237.822,75.532,225.002,74.72z M241.015,158.704c0,12.525-10.191,22.715-22.716,22.715h-57.321
					c-3.628,0-6.958-1.097-9.374-3.09c-2.724-2.246-4.438-5.411-5.092-9.405c-1.482-9.04,3.49-18.164,12.374-22.704
					c1.855-0.948,3.809-1.748,5.809-2.375l3.128-0.983l-0.846-3.168c-0.833-3.113-1.254-6.334-1.254-9.572
					c0-20.759,16.888-37.647,37.646-37.647c0.47,0,0.941,0.022,1.401,0.042l2.136,0.095l1.023-1.878
					c3.281-6.022,9.682-9.633,16.639-9.177c9.223,0.585,16.448,8.59,16.448,18.225V158.704z"/>
			</g>
		</g>
	</g>
	<g>
		<g>
			<path class="st0" d="M224.061,89.529c-0.227-0.014-0.444-0.021-0.66-0.021c-3.519,0-6.759,1.934-8.454,5.046l-3.409,6.26
				l-7.121-0.315c-0.347-0.016-0.697-0.034-1.048-0.034c-16.352,0-29.655,13.304-29.655,29.656c0,2.542,0.331,5.069,0.983,7.513
				l2.817,10.556l-10.424,3.276c-1.573,0.494-3.109,1.123-4.566,1.867c-5.779,2.954-9.044,8.699-8.126,14.298
				c0.449,2.741,1.523,3.9,2.291,4.533c0.973,0.802,2.538,1.263,4.291,1.263h57.321c8.12,0,14.726-6.606,14.726-14.725V99.78
				C233.025,94.442,229.003,89.843,224.061,89.529z"/>
		</g>
	</g>
	<g>
		<g>
			<polygon class="st2" points="219.984,78.099 219.984,134.299 197.054,134.299 197.054,160.416 203.903,160.416 203.903,141.148 
				226.833,141.148 226.833,78.099 			"/>
		</g>
	</g>
	<g>
		<g>
			<rect x="181.457" y="93.448" class="st2" width="6.849" height="30.615"/>
		</g>
	</g>
	<g>
		<g>
			<rect x="171.071" y="166.367" class="st2" width="6.849" height="18.477"/>
		</g>
	</g>
	<g>
		<g>
			<g>
				<path class="st2" d="M200.478,156.992c-5.181,0-9.396,4.215-9.396,9.395s4.215,9.395,9.396,9.395
					c5.18,0,9.395-4.215,9.395-9.395S205.658,156.992,200.478,156.992z M200.478,168.933c-1.405,0-2.547-1.143-2.547-2.546
					c0-1.404,1.143-2.546,2.547-2.546c1.403,0,2.546,1.143,2.546,2.546C203.024,167.79,201.881,168.933,200.478,168.933z"/>
			</g>
		</g>
	</g>
	<g>
		<g>
			<g>
				<path class="st2" d="M184.874,120.639c-5.181,0-9.396,4.215-9.396,9.395c0,5.181,4.215,9.396,9.396,9.396
					c5.18,0,9.395-4.215,9.395-9.396C194.269,124.854,190.054,120.639,184.874,120.639z M184.874,132.581
					c-1.405,0-2.547-1.143-2.547-2.547c0-1.404,1.143-2.546,2.547-2.546c1.403,0,2.546,1.143,2.546,2.546
					C187.42,131.438,186.277,132.581,184.874,132.581z"/>
			</g>
		</g>
	</g>
	<g>
		<g>
			<g>
				<path class="st2" d="M204.928,103.546c-5.18,0-9.395,4.215-9.395,9.396c0,5.18,4.215,9.395,9.395,9.395
					c5.181,0,9.396-4.215,9.396-9.395C214.324,107.76,210.109,103.546,204.928,103.546z M204.928,115.488
					c-1.404,0-2.546-1.143-2.546-2.546c0-1.405,1.143-2.547,2.546-2.547c1.405,0,2.547,1.143,2.547,2.547
					C207.475,114.345,206.333,115.488,204.928,115.488z"/>
			</g>
		</g>
	</g>
	<g>
		<g>
			<g>
				<path class="st2" d="M223.408,146.66c-5.18,0-9.395,4.215-9.395,9.395s4.215,9.395,9.395,9.395c5.181,0,9.396-4.215,9.396-9.395
					S228.589,146.66,223.408,146.66z M223.408,158.601c-1.403,0-2.546-1.143-2.546-2.546c0-1.403,1.143-2.546,2.546-2.546
					c1.405,0,2.547,1.143,2.547,2.546C225.955,157.459,224.812,158.601,223.408,158.601z"/>
			</g>
		</g>
	</g>
	<g>
		<g>
			<g>
				<path class="st2" d="M174.487,151c-5.18,0-9.395,4.215-9.395,9.396c0,5.18,4.215,9.395,9.395,9.395
					c5.181,0,9.396-4.215,9.396-9.395C183.883,155.215,179.668,151,174.487,151z M174.487,162.942c-1.404,0-2.546-1.143-2.546-2.546
					c0-1.404,1.142-2.547,2.546-2.547c1.405,0,2.547,1.143,2.547,2.547C177.034,161.799,175.891,162.942,174.487,162.942z"/>
			</g>
		</g>
	</g>
	<g>
		<g>
			<rect x="201.504" y="89.086" class="st2" width="6.849" height="17.884"/>
		</g>
	</g>
	<g>
		<g>
			<rect x="219.984" y="162.026" class="st2" width="6.849" height="22.318"/>
		</g>
	</g>
	<g>
		<g>
			<path class="st2" d="M252.916,11.01c-47.137,0-89.344,26.333-110.148,68.723l6.149,3.017
				c19.644-40.026,59.494-64.891,103.999-64.891c44.506,0,84.356,24.865,104,64.891l6.149-3.017
				C342.261,37.343,300.054,11.01,252.916,11.01z"/>
		</g>
	</g>
	<g>
		<g>
			<polygon class="st2" points="361.793,56.535 356.941,76.213 338.355,72.451 336.997,79.165 362.017,84.228 368.444,58.176 			"/>
		</g>
	</g>
	<g>
		<g>
			<polygon class="st2" points="152.359,205.948 150.825,232.059 157.663,232.46 158.789,213.292 177.506,214.678 178.012,207.847 
							"/>
		</g>
	</g>
	<g>
		<g>
			<path class="st2" d="M206.219,246.621l-0.127-0.051c-19.385-8.592-36.062-22.367-48.24-39.848l-5.62,3.915
				c12.942,18.578,30.687,33.205,51.317,42.296l0.658,0.289c4.065,1.93,28.476,14.983,28.476,49.873h6.849
				C239.53,260.674,206.552,246.755,206.219,246.621z"/>
		</g>
	</g>
	<g>
		<g>
			<path class="st2" d="M346.207,206.721c-12.177,17.48-28.854,31.254-48.238,39.846l-0.131,0.053
				c-0.346,0.141-8.576,3.554-16.786,12.243c-7.538,7.978-16.524,22.128-16.524,44.23h6.849c0-34.571,23.451-47.491,28.236-49.766
				l0.896-0.396c20.629-9.092,38.375-23.718,51.318-42.296L346.207,206.721z"/>
		</g>
	</g>
	<g>
		<g>
			<polygon class="st2" points="282.945,285.237 268.391,298.13 256.888,283.599 251.517,287.85 267.515,308.058 287.486,290.363 
							"/>
		</g>
	</g>
	<g>
		<g>
			<polygon class="st1" points="58.21,345.574 49.101,345.574 49.101,486.159 58.233,486.159 58.233,460.453 			"/>
		</g>
	</g>
	<g>
		<g>
			<path class="st1" d="M132.818,469.622c-1.986-0.32-3.972-0.616-6.004-0.913c-0.114-0.023-0.228-0.046-0.32-0.046
				c-2.671-0.388-5.388-0.73-8.127-1.073c-0.365-0.046-0.753-0.091-1.119-0.114c-2.511-0.296-5.068-0.571-7.648-0.822
				c-0.502-0.046-1.005-0.115-1.484-0.16c-2.557-0.229-5.114-0.434-7.717-0.639c-0.502-0.023-1.005-0.068-1.507-0.114
				c-2.192-0.137-15.703-0.296-17.941-0.411l0.16,20.821h117.113C180.989,479.941,159.004,473.731,132.818,469.622z"/>
		</g>
	</g>
	<g>
		<g>
			<rect x="440.882" y="345.574" class="st1" width="9.086" height="140.585"/>
		</g>
	</g>
	<g>
		<g>
			<path class="st1" d="M400.189,465.741c-0.502,0.046-1.004,0.092-1.507,0.114c-2.603,0.206-5.16,0.411-7.717,0.639
				c-0.479,0.045-0.982,0.114-1.484,0.16c-2.58,0.251-5.137,0.525-7.648,0.822c-0.365,0.023-0.753,0.069-1.119,0.114
				c-2.74,0.343-5.456,0.685-8.127,1.073c-0.091,0-0.205,0.023-0.32,0.046c-2.032,0.297-4.018,0.594-6.004,0.913
				c-26.186,4.109-48.171,10.319-65.407,16.529h117.259V465.33C415.879,465.445,402.381,465.604,400.189,465.741z"/>
		</g>
	</g>
	<g>
		<g>
			<g>
				<path class="st2" d="M251.414,337.667c-0.686-0.461-17.137-11.432-47.885-22.515c-28.268-10.19-74.448-22.337-133.912-22.337
					c-1.892,0-3.424,1.533-3.424,3.425v157.049c0,1.892,1.533,3.425,3.424,3.425c58.339,0,103.615,11.876,131.323,21.84
					c30.037,10.801,46.485,21.745,46.648,21.854c0.575,0.387,1.243,0.582,1.912,0.582c0.552,0,1.105-0.133,1.61-0.401
					c1.116-0.595,1.815-1.757,1.815-3.022V340.508C252.925,339.369,252.359,338.304,251.414,337.667z M246.076,491.504
					c-17.793-10.163-79.275-40.89-173.035-41.626v-150.2c56.688,0.452,100.735,12.057,127.899,21.822
					c24.875,8.942,40.43,17.984,45.135,20.889V491.504z"/>
			</g>
		</g>
	</g>
	<g>
		<g>
			<path class="st4" d="M81.032,307.807v134.21c76.993,1.94,130.951,23.119,157.054,36.099V346.939
				C221.771,337.648,166.483,310.103,81.032,307.807z"/>
		</g>
	</g>
	<g>
		<g>
			<g>
				<path class="st2" d="M429.384,292.815c-59.464,0-105.643,12.147-133.912,22.337c-30.748,11.084-47.199,22.054-47.885,22.515
					c-0.945,0.636-1.511,1.701-1.511,2.84v157.058c0,1.266,0.698,2.429,1.816,3.023c0.505,0.269,1.057,0.401,1.608,0.401
					c0.67,0,1.338-0.196,1.913-0.584c0.162-0.108,16.427-10.957,46.382-21.757c27.754-10.007,73.114-21.936,131.589-21.936
					c1.892,0,3.425-1.533,3.425-3.425V296.24C432.809,294.348,431.276,292.815,429.384,292.815z M425.959,449.878
					c-93.759,0.736-155.241,31.463-173.034,41.626V342.388c4.705-2.905,20.26-11.947,45.135-20.889
					c27.164-9.765,71.211-21.37,127.899-21.822V449.878z"/>
			</g>
		</g>
	</g>
	<g>
		<g>
			<path class="st4" d="M260.916,346.96v131.155c26.103-12.98,80.06-34.159,157.054-36.099V307.809
				C332.868,310.117,277.289,337.692,260.916,346.96z"/>
		</g>
	</g>
	<g>
		<g>
			<g>
				<path class="st2" d="M251.414,494.726c-0.686-0.461-17.138-11.432-47.883-22.514c-27.722-9.994-72.672-21.869-130.48-22.324
					V330.726H34.258V500.99h226.458L251.414,494.726z M41.107,494.142V337.575h25.094v119.148h3.425
					c85.452,0,143.969,25.335,167.015,37.418H41.107z"/>
			</g>
		</g>
	</g>
	<g>
		<g>
			<g>
				<path class="st2" d="M425.952,330.726v119.162c-111.799,0.876-177.705,44.394-178.364,44.838l-9.302,6.265h226.458V330.726
					H425.952z M457.894,494.142H262.339c23.008-12.084,81.46-37.418,167.037-37.418h3.425V337.575h25.094V494.142z"/>
			</g>
		</g>
	</g>
	<g>
		<g>
			<path class="st2" d="M269.528,356.646l3.603,5.826c0.553-0.342,56.125-34.176,131.523-34.176v-6.849
				C327.33,321.447,270.098,356.295,269.528,356.646z"/>
		</g>
	</g>
	<g>
		<g>
			<path class="st2" d="M269.528,389.42l3.603,5.825c0.553-0.342,56.125-34.175,131.523-34.175v-6.849
				C327.33,354.221,270.098,389.069,269.528,389.42z"/>
		</g>
	</g>
	<g>
		<g>
			<path class="st2" d="M269.528,422.196l3.603,5.826c0.553-0.342,56.125-34.176,131.523-34.176v-6.849
				C327.33,386.997,270.098,421.844,269.528,422.196z"/>
		</g>
	</g>
	<g>
		<g>
			<path class="st2" d="M269.528,454.97l3.603,5.826c0.553-0.342,56.125-34.176,131.523-34.176v-6.849
				C327.33,419.771,270.098,454.618,269.528,454.97z"/>
		</g>
	</g>
	<g>
		<g>
			<path class="st2" d="M94.98,321.447v6.849c75.298,0,130.972,33.834,131.525,34.176l3.602-5.826
				C229.537,356.295,172.303,321.447,94.98,321.447z"/>
		</g>
	</g>
	<g>
		<g>
			<path class="st2" d="M94.98,354.221v6.849c75.298,0,130.972,33.834,131.525,34.175l3.602-5.825
				C229.537,389.069,172.303,354.221,94.98,354.221z"/>
		</g>
	</g>
	<g>
		<g>
			<path class="st2" d="M94.98,386.997v6.849c75.298,0,130.972,33.834,131.525,34.176l3.602-5.826
				C229.537,421.844,172.303,386.997,94.98,386.997z"/>
		</g>
	</g>
	<g>
		<g>
			<path class="st2" d="M94.98,419.771v6.849c75.298,0,130.972,33.834,131.525,34.176l3.602-5.826
				C229.537,454.618,172.303,419.771,94.98,419.771z"/>
		</g>
	</g>
	<g>
		<g>
			<g>
				<path class="st2" d="M251.216,494.597l-0.124-0.086c-6.816-4.43-69.665-43.316-176.102-44.614
					c-1.774-0.023-3.568-0.023-5.365-0.023h-3.425v51.116h183.346l14.104-0.023L251.216,494.597z M73.05,494.142V456.73
					c0.619,0.003,1.237,0.008,1.854,0.017c83.564,1.019,139.501,25.462,161.917,37.395H73.05z"/>
			</g>
		</g>
	</g>
	<g>
		<g>
			<g>
				<path class="st2" d="M429.376,449.874c-1.819,0-3.615,0-5.407,0.023c-96.442,1.184-156.93,33.087-173.051,42.768l-2.843,1.75
					l-12.768,6.575h197.494v-51.116H429.376z M425.952,494.142H262.322c21.781-11.438,78.629-36.375,161.733-37.395
					c0.632-0.009,1.263-0.013,1.896-0.018V494.142z"/>
			</g>
		</g>
	</g>
	<g>
		<g>
			<rect x="44.243" y="117.92" class="st1" width="50.749" height="50.75"/>
		</g>
	</g>
	<g>
		<g>
			<rect x="52.224" y="104.199" class="st2" width="6.849" height="13.721"/>
		</g>
	</g>
	<g>
		<g>
			<rect x="66.193" y="104.199" class="st2" width="6.849" height="13.721"/>
		</g>
	</g>
	<g>
		<g>
			<rect x="80.161" y="104.199" class="st2" width="6.849" height="13.721"/>
		</g>
	</g>
	<g>
		<g>
			<rect x="52.224" y="168.669" class="st2" width="6.849" height="13.72"/>
		</g>
	</g>
	<g>
		<g>
			<rect x="66.193" y="168.669" class="st2" width="6.849" height="13.72"/>
		</g>
	</g>
	<g>
		<g>
			<rect x="80.161" y="168.669" class="st2" width="6.849" height="13.72"/>
		</g>
	</g>
	<g>
		<g>
			<rect x="94.992" y="125.902" class="st2" width="13.721" height="6.849"/>
		</g>
	</g>
	<g>
		<g>
			<rect x="94.992" y="139.87" class="st2" width="13.721" height="6.849"/>
		</g>
	</g>
	<g>
		<g>
			<rect x="94.992" y="153.839" class="st2" width="13.721" height="6.849"/>
		</g>
	</g>
	<g>
		<g>
			<rect x="30.522" y="125.902" class="st2" width="13.72" height="6.849"/>
		</g>
	</g>
	<g>
		<g>
			<rect x="30.522" y="139.87" class="st2" width="13.72" height="6.849"/>
		</g>
	</g>
	<g>
		<g>
			<rect x="30.522" y="153.839" class="st2" width="13.72" height="6.849"/>
		</g>
	</g>
	<g>
		<g>
			<g>
				<path class="st2" d="M40.818,114.496v57.598h57.598v-57.598H40.818z M91.567,165.245h-43.9v-43.9h43.9V165.245z"/>
			</g>
		</g>
	</g>
	<g>
		<g>
			<g>
				<path class="st5" d="M468.351,142.796c0-4.018,6.849-9.109,10.182-11.963c-0.594-1.689-1.324-3.311-2.146-4.863
					c-4.361,0.297-12.671,1.712-15.456-1.096c-2.716-2.694-1.415-10.958-1.21-15.181c-1.667-0.822-3.402-1.53-5.205-2.123
					c-2.831,3.104-7.648,9.908-11.484,9.908c-3.835,0-8.675-6.803-11.506-9.908c-1.803,0.593-3.538,1.301-5.205,2.123
					c0.206,4.223,1.53,12.488-1.187,15.204c-2.785,2.785-11.118,1.393-15.456,1.073c-0.822,1.552-1.553,3.174-2.146,4.863
					c3.333,2.854,10.205,7.945,10.205,11.963c0,4.132-7.031,9.223-10.616,12.076c0.502,1.599,1.119,3.128,1.826,4.612
					c4.566-0.547,13.241-1.758,16.187,1.21c3.036,3.037,1.712,11.781,1.05,16.461c1.392,0.707,2.854,1.323,4.36,1.849
					c2.831-3.812,8.196-10.913,12.488-10.913c4.315,0,9.657,7.1,12.488,10.913c1.507-0.525,2.968-1.142,4.361-1.849
					c-0.685-4.68-1.986-13.424,1.05-16.461c2.945-2.968,11.598-1.757,16.186-1.21c0.708-1.484,1.324-3.013,1.826-4.612
					C475.36,152.019,468.351,146.927,468.351,142.796z M443.033,154.21c-6.346,0-11.506-5.159-11.506-11.506
					c0-6.37,5.159-11.506,11.506-11.506c6.37,0,11.506,5.137,11.506,11.506C454.539,149.051,449.403,154.21,443.033,154.21z"/>
			</g>
		</g>
	</g>
	<g>
		<g>
			<g>
				<path class="st2" d="M480,151.347c-2.037-1.596-8.231-6.457-8.231-8.561c0-1.868,5.642-6.547,7.495-8.084
					c0.548-0.454,1.057-0.876,1.505-1.259l1.781-1.526l-0.778-2.213c-0.619-1.756-1.409-3.548-2.35-5.327l-1.04-1.965l-2.219,0.15
					c-0.757,0.051-1.627,0.135-2.567,0.225c-1.885,0.182-4.023,0.388-5.973,0.388c-3.521,0-4.265-0.696-4.277-0.709
					c-1.099-1.213-0.585-7.512-0.391-9.884c0.082-1.001,0.156-1.925,0.194-2.714l0.109-2.243l-2.013-0.995
					c-1.796-0.886-3.696-1.662-5.649-2.305l-2.107-0.693l-1.495,1.639c-0.569,0.623-1.214,1.388-1.913,2.217
					c-1.494,1.771-5.459,6.477-7.036,6.571c-1.594-0.081-5.578-4.807-7.078-6.586c-0.695-0.824-1.336-1.583-1.902-2.203l-1.495-1.64
					l-2.107,0.695c-1.955,0.644-3.856,1.42-5.651,2.305l-2.013,0.995l0.109,2.243c0.038,0.792,0.113,1.719,0.195,2.723
					c0.195,2.378,0.712,8.694-0.385,9.892c-0.008,0.007-0.758,0.703-4.286,0.703c-1.998,0-4.176-0.215-6.099-0.405
					c-0.876-0.086-1.688-0.166-2.397-0.219l-2.232-0.164l-1.047,1.978c-0.941,1.778-1.731,3.57-2.35,5.327l-0.778,2.213l1.781,1.526
					c0.448,0.382,0.956,0.805,1.505,1.259c1.854,1.537,7.496,6.216,7.496,8.084c0,2.106-6.198,6.966-8.235,8.563l-2.923,2.317
					l0.707,2.243c0.534,1.697,1.189,3.351,2.002,5.058l1.058,2.219l3.119-0.376c2.123-0.259,5.029-0.613,7.644-0.613
					c4.009,0,4.941,0.817,5.034,0.909c1.167,1.167,1.211,5.624,0.128,13.246l-0.389,2.752l2.181,1.109
					c1.506,0.766,3.116,1.449,4.786,2.031l2.376,0.828l1.501-2.021c6.162-8.302,8.746-9.541,9.737-9.541s3.574,1.24,9.739,9.542
					l1.499,2.019l2.377-0.827c1.665-0.581,3.276-1.263,4.784-2.03l2.174-1.26l-0.357-2.434c-1.131-7.713-1.103-12.227,0.086-13.415
					c0.094-0.092,1.025-0.909,5.035-0.909c2.61,0,5.518,0.353,7.642,0.611l3.139,0.377l1.058-2.218
					c0.815-1.709,1.469-3.364,2.002-5.06l0.704-2.241L480,151.347z M468.378,155.349c-4.75,0-7.889,0.927-9.878,2.916
					c-3.281,3.28-3.26,9.289-2.494,15.73c-3.892-4.918-8.277-9.332-12.967-9.332c-4.695,0-9.084,4.421-12.977,9.345
					c0.747-6.386,0.788-12.454-2.501-15.743c-1.989-1.989-5.127-2.916-9.877-2.916c-2.088,0-4.231,0.183-6.113,0.387
					c5.191-4.149,9.59-8.301,9.59-12.95c0-4.575-4.273-8.604-9.527-12.984c0.029-0.066,0.058-0.132,0.087-0.197
					c1.966,0.194,4.4,0.431,6.711,0.431c2.755,0,6.7-0.281,9.137-2.718c3.335-3.36,2.795-9.972,2.36-15.285
					c-0.005-0.067-0.011-0.134-0.017-0.2c0.189-0.079,0.381-0.157,0.573-0.233c0.08,0.095,0.162,0.191,0.243,0.289
					c3.389,4.019,7.606,9.019,12.31,9.019c4.686,0,8.896-4.994,12.278-9.006c0.086-0.103,0.171-0.203,0.254-0.302
					c0.192,0.076,0.382,0.154,0.572,0.233c-0.004,0.064-0.01,0.127-0.015,0.192c-0.434,5.318-0.974,11.937,2.363,15.273
					c2.426,2.444,6.373,2.727,9.132,2.727c2.28,0,4.59-0.223,6.629-0.419c0.034-0.003,0.068-0.007,0.101-0.01
					c0.031,0.069,0.062,0.137,0.091,0.206c-5.254,4.38-9.526,8.409-9.526,12.984c0,4.649,4.4,8.801,9.59,12.952
					C472.622,155.532,470.471,155.349,468.378,155.349z"/>
			</g>
		</g>
	</g>
	<g>
		<g>
			<g>
				<path class="st2" d="M443.041,127.763c-8.233,0-14.932,6.698-14.932,14.932c0,8.233,6.698,14.932,14.932,14.932
					s14.932-6.698,14.932-14.932C457.972,134.462,451.274,127.763,443.041,127.763z M443.041,150.778
					c-4.457,0-8.083-3.626-8.083-8.083c0-4.457,3.626-8.083,8.083-8.083c4.457,0,8.083,3.626,8.083,8.083
					C451.124,147.152,447.497,150.778,443.041,150.778z"/>
			</g>
		</g>
	</g>
	<g>
		<g>
			<path class="st2" d="M71.628,208.074c-35.719,0-64.779-29.06-64.779-64.779c0-35.719,29.06-64.779,64.779-64.779
				c19.087,0,37.117,8.375,49.469,22.978l5.228-4.423C112.67,80.926,92.733,71.667,71.628,71.667C32.132,71.667,0,103.799,0,143.295
				s32.132,71.628,71.628,71.628c21.105,0,41.042-9.259,54.698-25.404l-5.228-4.423C108.746,199.699,90.715,208.074,71.628,208.074z
				"/>
		</g>
	</g>
	<g>
		<g>
			<polygon class="st2" points="121.958,80.589 120.481,97.358 104.425,97.358 104.425,104.207 126.753,104.207 128.781,81.191 			
				"/>
		</g>
	</g>
	<g>
		<g>
			<path class="st2" d="M440.372,71.667c-21.105,0-41.042,9.259-54.698,25.404l5.228,4.423
				c12.353-14.603,30.385-22.978,49.47-22.978c35.719,0,64.78,29.06,64.78,64.779c0,35.719-29.06,64.779-64.78,64.779
				c-19.085,0-37.117-8.375-49.47-22.978l-5.228,4.423c13.656,16.145,33.594,25.404,54.698,25.404
				c39.496,0,71.628-32.132,71.628-71.628S479.868,71.667,440.372,71.667z"/>
		</g>
	</g>
	<g>
		<g>
			<polygon class="st2" points="391.519,97.358 390.041,80.589 383.219,81.191 385.247,104.207 407.575,104.207 407.575,97.358 			
				"/>
		</g>
	</g>
</g>
</svg>
