<svg id="Layer_1" data-name="Layer 1" xmlns="http://www.w3.org/2000/svg" viewBox="0 0 128 128"><title>GOOGLE HOME</title><polygon points="83.514 61.344 68.461 61.344 74.789 38.487 45.604 66.141 60.657 66.141 54.329 88.998 83.514 61.344" style="fill:#fcc434"/><path d="M53.428,90.5a1.75,1.75,0,0,0,2.1-.229L84.718,62.614a1.75,1.75,0,0,0-1.2-3.021H70.761l5.714-20.641a1.75,1.75,0,0,0-2.891-1.737L44.4,64.87a1.75,1.75,0,0,0,1.2,3.021H58.356L52.643,88.531A1.75,1.75,0,0,0,53.428,90.5Zm8.916-23.891a1.75,1.75,0,0,0-1.687-2.217H50l21.427-20.3-4.647,16.79a1.75,1.75,0,0,0,1.687,2.217H79.122L57.7,83.4Z" style="fill:#1f2632"/><path d="M27.536,63.295A36.607,36.607,0,0,1,88.142,35.644h-5.06a1.75,1.75,0,0,0,0,3.5h9.211a1.75,1.75,0,0,0,1.75-1.75V28.183a1.75,1.75,0,0,0-3.5,0v4.911A40.116,40.116,0,0,0,29.888,84.17a1.75,1.75,0,1,0,2.987-1.824A36.546,36.546,0,0,1,27.536,63.295Z" style="fill:#1f2632"/><path d="M98.112,43.83a1.751,1.751,0,1,0-2.988,1.824,36.613,36.613,0,0,1-55.266,46.7h5.06a1.75,1.75,0,0,0,0-3.5H35.707a1.75,1.75,0,0,0-1.75,1.75v9.211a1.75,1.75,0,0,0,3.5,0V94.906A40.116,40.116,0,0,0,98.112,43.83Z" style="fill:#1f2632"/></svg>