<svg id="Layer_1" data-name="Layer 1" xmlns="http://www.w3.org/2000/svg" viewBox="0 0 128 128"><title>SMOKE DETECTOR</title><path d="M115.019,6.494h-57.8A3.006,3.006,0,0,0,54.217,9.5V20.013a3.631,3.631,0,0,1,2.063.642L96.08,48.09a3.634,3.634,0,1,1-4.125,5.984l-5.528-3.81V95.111a6.389,6.389,0,0,1-6.389,6.389H54.217v17a3.006,3.006,0,0,0,3.006,3.006h57.8a3.006,3.006,0,0,0,3.006-3.006V9.5A3.006,3.006,0,0,0,115.019,6.494Z" style="fill:#6f6571"/><rect x="76.899" y="109.376" width="19.606" height="5.828" rx="2.914" ry="2.914" style="fill:#8bb3ea"/><path d="M94.014,54.716a3.62,3.62,0,0,1-2.059-.642L54.218,28.06,16.479,54.074a3.634,3.634,0,1,1-4.124-5.984l39.8-27.435a3.633,3.633,0,0,1,4.125,0L96.08,48.09a3.634,3.634,0,0,1-2.066,6.626Z" style="fill:#4b3f4e"/><path d="M80.039,101.5a6.389,6.389,0,0,0,6.389-6.389V50.264l-32.21-22.2-32.21,22.2V95.111A6.389,6.389,0,0,0,28.4,101.5Z" style="fill:#6f6571"/><circle cx="54.218" cy="83.31" r="3.945" style="fill:#e04955"/><path d="M54.217,9.5v4.647H73.156a3.507,3.507,0,0,1,3.28,2.267h0a3.507,3.507,0,0,0,3.28,2.267H92.526a3.507,3.507,0,0,0,3.28-2.267h0a3.507,3.507,0,0,1,3.28-2.267h18.939V9.5a3.006,3.006,0,0,0-3.006-3.006h-57.8A3.006,3.006,0,0,0,54.217,9.5Z" style="fill:#8bb3ea"/><polygon points="35.669 32.019 25.462 39.043 25.462 22.017 35.669 22.017 35.669 32.019" style="fill:#fc8427"/><rect x="23.168" y="15.697" width="14.795" height="6.319" style="fill:#fcc434"/><path d="M75.163,63.458a1.75,1.75,0,0,0,2.352-2.593,35.546,35.546,0,0,0-46.594,0,1.75,1.75,0,1,0,2.352,2.593,32.049,32.049,0,0,1,41.891,0Z" style="fill:#1f2632"/><path d="M69.739,70.963a1.75,1.75,0,0,0,2.352-2.593,26.64,26.64,0,0,0-35.747,0A1.75,1.75,0,0,0,38.7,70.963a23.138,23.138,0,0,1,31.043,0Z" style="fill:#1f2632"/><path d="M64.315,78.467a1.75,1.75,0,0,0,2.352-2.592A19.2,19.2,0,0,0,54.218,70.8a19.2,19.2,0,0,0-12.45,5.073,1.75,1.75,0,0,0,2.352,2.593c1.077-.978,4.989-4.166,10.1-4.166S63.238,77.49,64.315,78.467Z" style="fill:#1f2632"/><path d="M59.912,83.31A5.695,5.695,0,1,0,54.218,89,5.7,5.7,0,0,0,59.912,83.31Zm-7.889,0A2.195,2.195,0,1,1,54.218,85.5,2.2,2.2,0,0,1,52.023,83.31Z" style="fill:#1f2632"/><path d="M119.678,8.543a4.764,4.764,0,0,0-4.659-3.8h-57.8A4.753,4.753,0,0,0,52.467,9.5v9.069a5.3,5.3,0,0,0-1.305.645L37.419,28.687V23.767h.544a1.75,1.75,0,0,0,1.75-1.75V15.7a1.75,1.75,0,0,0-1.75-1.75h-14.8a1.75,1.75,0,0,0-1.75,1.75v6.319a1.75,1.75,0,0,0,1.75,1.75h.544v14.37l-12.35,8.513a5.384,5.384,0,1,0,6.11,8.866l2.786-1.92V95.111A8.148,8.148,0,0,0,28.4,103.25H52.467V118.5a4.761,4.761,0,0,0,4.756,4.756h57.8a4.761,4.761,0,0,0,4.756-4.756V9.5A4.759,4.759,0,0,0,119.678,8.543Zm-94.76,8.9h11.3v2.819h-11.3Zm9,6.319V31.1l-6.708,4.615V23.767ZM116.274,12.4H99.086a5.283,5.283,0,0,0-4.917,3.4,1.766,1.766,0,0,1-1.644,1.136H79.716A1.766,1.766,0,0,1,78.073,15.8a5.282,5.282,0,0,0-4.917-3.4H55.967V9.5a1.257,1.257,0,0,1,1.256-1.256h57.8A1.257,1.257,0,0,1,116.274,9.5ZM15.485,52.633a1.883,1.883,0,0,1-2.619-.482,1.885,1.885,0,0,1,.482-2.62L35.987,33.926l.675-.464,0,0L53.149,22.1a1.892,1.892,0,0,1,2.138,0l39.8,27.435a1.886,1.886,0,0,1,.288.245c.021.022.037.048.057.071a1.878,1.878,0,0,1,.173.22c.013.021.022.045.034.066a1.89,1.89,0,0,1,.132.259c.012.031.017.065.028.1a1.887,1.887,0,0,1,.085.406,1.92,1.92,0,0,1,.018.21,1.892,1.892,0,0,1-.021.2c-.007.055-.007.112-.019.166s-.032.1-.047.15a1.862,1.862,0,0,1-.066.205c-.006.013-.015.025-.021.038a1.866,1.866,0,0,1-2.779.77L55.211,26.62a1.75,1.75,0,0,0-1.986,0Zm8.272,42.479V51.182l30.46-21,30.46,21V95.111a4.644,4.644,0,0,1-4.639,4.639H28.4A4.644,4.644,0,0,1,23.758,95.111Zm91.261,24.645h-57.8a1.257,1.257,0,0,1-1.256-1.256V103.25H80.039a8.148,8.148,0,0,0,8.139-8.139V53.6l2.784,1.919a5.413,5.413,0,0,0,7.489-1.377c.072-.105.116-.22.18-.328a5.47,5.47,0,0,0,.338-.615c.043-.1.062-.206.1-.309a5.319,5.319,0,0,0,.22-.706c.013-.065.011-.131.022-.2a5.319,5.319,0,0,0,.09-.845c0-.005,0-.01,0-.016a5.43,5.43,0,0,0-.086-1.014,5.37,5.37,0,0,0-.724-1.86c-.013-.021-.02-.044-.033-.064a5.318,5.318,0,0,0-.548-.7c-.039-.043-.068-.094-.108-.136a5.432,5.432,0,0,0-.825-.7l-39.8-27.436a5.451,5.451,0,0,0-.687-.4c-.05-.024-.1-.042-.153-.065-.154-.07-.307-.142-.466-.2V15.9H73.156A1.766,1.766,0,0,1,74.8,17.033a5.283,5.283,0,0,0,4.916,3.4h12.81a5.283,5.283,0,0,0,4.917-3.4A1.766,1.766,0,0,1,99.086,15.9h17.188V118.5A1.257,1.257,0,0,1,115.019,119.756Z" style="fill:#1f2632"/><path d="M93.591,107.626H79.812a4.664,4.664,0,1,0,0,9.328H93.591a4.664,4.664,0,1,0,0-9.328Zm0,5.828H79.812a1.164,1.164,0,1,1,0-2.328H93.591a1.164,1.164,0,1,1,0,2.328Z" style="fill:#1f2632"/><path d="M88.963,11.091H83.279a1.75,1.75,0,0,0,0,3.5h5.684a1.75,1.75,0,0,0,0-3.5Z" style="fill:#1f2632"/></svg>