<svg id="Layer_1" data-name="Layer 1" xmlns="http://www.w3.org/2000/svg" viewBox="0 0 128 128"><title>VOICE CONTROL</title><path d="M87.884,73.685H39.613A2.877,2.877,0,0,1,36.752,70.5l4.574-42.433a7.048,7.048,0,0,1,7.008-6.293H79.163a7.048,7.048,0,0,1,7.008,6.293L90.745,70.5A2.877,2.877,0,0,1,87.884,73.685Z" style="fill:#e04955"/><rect x="36.409" y="80.499" width="54.68" height="25.728" rx="2.877" ry="2.877" style="fill:#8bb3ea"/><rect x="39.557" y="73.685" width="48.383" height="6.814" style="fill:#6f6571"/><path d="M81.05,94.809c.106-.041.208-.088.31-.137s.211-.109.313-.17.23-.141.339-.221c.06-.045.116-.1.174-.144a4.085,4.085,0,0,0-2.6-7.251H47.909a4.085,4.085,0,0,0-2.6,7.251c.058.048.113.1.173.143.109.08.222.151.339.221s.206.118.313.17.2.1.31.137a4.018,4.018,0,0,0,.443.137c.087.022.17.05.259.066a4.062,4.062,0,0,0,.76.077h31.68a4.062,4.062,0,0,0,.76-.077c.089-.017.172-.044.259-.066A4.018,4.018,0,0,0,81.05,94.809Z" style="fill:#6f6571"/><path d="M58.817,99.163H52.31a1.5,1.5,0,0,0,0,3h6.508a1.5,1.5,0,0,0,0-3Z" style="fill:#6f6571"/><path d="M75.188,99.163H68.681a1.5,1.5,0,0,0,0,3h6.508a1.5,1.5,0,0,0,0-3Z" style="fill:#6f6571"/><path d="M7.587,64a32.835,32.835,0,0,1,8.029-21.584,1.75,1.75,0,1,0-2.592-2.352,36.52,36.52,0,0,0,0,47.871,1.75,1.75,0,1,0,2.592-2.352A32.835,32.835,0,0,1,7.587,64Z" style="fill:#1f2632"/><path d="M17.174,64a24.433,24.433,0,0,1,6.163-16,1.75,1.75,0,1,0-2.592-2.352,27.359,27.359,0,0,0,0,36.711A1.75,1.75,0,1,0,23.337,80,24.433,24.433,0,0,1,17.174,64Z" style="fill:#1f2632"/><path d="M30.938,51.1a1.749,1.749,0,0,0-2.472.12A19.7,19.7,0,0,0,23.261,64a19.7,19.7,0,0,0,5.206,12.775,1.75,1.75,0,0,0,2.592-2.352c-1.008-1.111-4.3-5.148-4.3-10.424s3.29-9.312,4.3-10.424A1.75,1.75,0,0,0,30.938,51.1Z" style="fill:#1f2632"/><path d="M114.976,40.064a1.75,1.75,0,1,0-2.592,2.352,33.025,33.025,0,0,1,0,43.168,1.75,1.75,0,1,0,2.592,2.352,36.52,36.52,0,0,0,0-47.871Z" style="fill:#1f2632"/><path d="M107.255,45.645A1.75,1.75,0,1,0,104.663,48a23.861,23.861,0,0,1,0,32.008,1.75,1.75,0,1,0,2.592,2.352,27.359,27.359,0,0,0,0-36.711Z" style="fill:#1f2632"/><path d="M99.533,51.225a1.75,1.75,0,1,0-2.592,2.352c1.008,1.111,4.3,5.148,4.3,10.424s-3.29,9.313-4.3,10.424a1.75,1.75,0,1,0,2.592,2.352A19.7,19.7,0,0,0,104.739,64,19.7,19.7,0,0,0,99.533,51.225Z" style="fill:#1f2632"/><path d="M89.69,79.014V75.059a4.6,4.6,0,0,0,2.795-4.747L87.911,27.879a8.783,8.783,0,0,0-8.748-7.855H48.334a8.783,8.783,0,0,0-8.748,7.855L35.012,70.312a4.6,4.6,0,0,0,2.8,4.746v3.955a4.618,4.618,0,0,0-3.148,4.363V103.35a4.632,4.632,0,0,0,4.627,4.627H88.211a4.633,4.633,0,0,0,4.628-4.627V83.376A4.619,4.619,0,0,0,89.69,79.014ZM41.308,75.435H86.19v3.314H41.308Zm1.759-47.181a5.289,5.289,0,0,1,5.268-4.73H79.163a5.289,5.289,0,0,1,5.268,4.73L89,70.687a1.126,1.126,0,0,1-1.12,1.248H39.613a1.127,1.127,0,0,1-1.121-1.248Zm46.272,75.1a1.129,1.129,0,0,1-1.128,1.127H39.286a1.128,1.128,0,0,1-1.127-1.127V83.376a1.129,1.129,0,0,1,1.127-1.127H88.211a1.129,1.129,0,0,1,1.128,1.127Z" style="fill:#1f2632"/><path d="M63.749,65.967a1.75,1.75,0,0,0,1.75-1.75V30.624a1.75,1.75,0,0,0-3.5,0V64.217A1.75,1.75,0,0,0,63.749,65.967Z" style="fill:#1f2632"/><path d="M54.488,65.965h.07a1.751,1.751,0,0,0,1.748-1.681l1.254-31.727a1.75,1.75,0,0,0-3.5-.139L52.809,64.147A1.75,1.75,0,0,0,54.488,65.965Z" style="fill:#1f2632"/><path d="M45.219,65.96c.05,0,.1.006.148.006a1.751,1.751,0,0,0,1.742-1.6L49.618,34.5a1.75,1.75,0,0,0-3.488-.293L43.621,64.07A1.75,1.75,0,0,0,45.219,65.96Z" style="fill:#1f2632"/><path d="M72.939,65.967h.07a1.75,1.75,0,0,0,1.68-1.818L73.436,32.42a1.75,1.75,0,0,0-3.5.139l1.254,31.727A1.751,1.751,0,0,0,72.939,65.967Z" style="fill:#1f2632"/><path d="M82.13,65.967c.049,0,.1,0,.148-.006a1.75,1.75,0,0,0,1.6-1.89L81.368,34.21a1.75,1.75,0,0,0-3.488.293l2.508,29.86A1.751,1.751,0,0,0,82.13,65.967Z" style="fill:#1f2632"/><path d="M79.589,85.137H47.909a5.851,5.851,0,1,0,0,11.7h31.68a5.851,5.851,0,0,0,0-11.7Zm0,8.2H47.909a2.351,2.351,0,1,1,0-4.7h31.68a2.351,2.351,0,0,1,0,4.7Z" style="fill:#1f2632"/><path d="M58.817,98.913H52.31a1.75,1.75,0,0,0,0,3.5h6.508a1.75,1.75,0,0,0,0-3.5Z" style="fill:#1f2632"/><path d="M75.188,98.913H68.681a1.75,1.75,0,0,0,0,3.5h6.508a1.75,1.75,0,0,0,0-3.5Z" style="fill:#1f2632"/></svg>