<?xml version="1.0" encoding="utf-8"?>
<!-- Generator: Adobe Illustrator 18.0.0, SVG Export Plug-In . SVG Version: 6.00 Build 0)  -->
<!DOCTYPE svg PUBLIC "-//W3C//DTD SVG 1.1//EN" "http://www.w3.org/Graphics/SVG/1.1/DTD/svg11.dtd">
<svg version="1.1" id="Layer_1" xmlns="http://www.w3.org/2000/svg" xmlns:xlink="http://www.w3.org/1999/xlink" x="0px" y="0px"
	 viewBox="0 0 512 512" style="enable-background:new 0 0 512 512;" xml:space="preserve">
<style type="text/css">
	.st0{fill:#FFD452;}
	.st1{fill:#F58E6F;}
	.st2{fill:#4A555F;}
	.st3{fill:none;}
	.st4{fill:#DFDFDF;}
	.st5{fill:#71CCE0;}
	.st6{fill:#FFFFFF;}
</style>
<g>
	<g>
		<g>
			<polygon class="st0" points="372.402,124.339 254.442,56.457 136.661,124.689 136.844,260.804 254.803,328.685 372.586,260.453 
							"/>
		</g>
	</g>
	<g>
		<g>
			<polygon class="st1" points="254.823,192.953 254.803,328.685 372.402,260.453 372.402,124.339 			"/>
		</g>
	</g>
	<g>
		<g>
			<g>
				<path class="st2" d="M386.763,116.021L254.418,39.862l-132.138,76.551l0.204,152.709l132.345,76.159l132.138-76.551
					L386.763,116.021z M254.818,337.621l-125.706-72.338l-0.195-145.05l125.511-72.711l125.706,72.338l0.196,145.05L254.818,337.621
					z"/>
			</g>
		</g>
	</g>
	<g>
		<g>
			<polygon class="st2" points="381.585,115.453 254.423,189.12 127.26,115.453 123.935,121.192 254.423,196.786 384.911,121.192 
							"/>
		</g>
	</g>
	<g>
		<g>
			<rect x="251.507" y="192.953" class="st2" width="6.633" height="148.498"/>
		</g>
	</g>
	<g>
		<g>
			<g>
				<path class="st2" d="M116.28,58.652l4.763,4.616c1.512-1.559,3.051-3.093,4.616-4.599l-4.601-4.778
					C119.439,55.45,117.845,57.037,116.28,58.652z M170.586,19.31l2.9,5.966c1.945-0.946,3.909-1.858,5.892-2.737l-2.688-6.064
					C174.636,17.386,172.601,18.331,170.586,19.31z M147.256,32.741l3.703,5.504c1.798-1.21,3.618-2.389,5.46-3.537l-3.509-5.629
					C151.003,30.268,149.118,31.489,147.256,32.741z M136.342,40.649l4.077,5.233c1.711-1.333,3.447-2.637,5.205-3.912l-3.893-5.37
					C139.91,37.919,138.114,39.269,136.342,40.649z M158.688,25.616l3.31,5.748c1.876-1.081,3.774-2.129,5.691-3.146l-3.109-5.86
					C162.597,23.412,160.632,24.497,158.688,25.616z M221.764,2.821l1.129,6.536c2.135-0.368,4.28-0.701,6.438-0.996l-0.901-6.572
					C226.197,2.096,223.974,2.439,221.764,2.821z M235.132,0.993l0.669,6.6c2.154-0.219,4.318-0.401,6.492-0.545l-0.438-6.619
					C239.603,0.578,237.361,0.766,235.132,0.993z M208.557,5.583l1.585,6.441c2.103-0.518,4.221-1,6.352-1.446l-1.358-6.493
					C212.928,4.548,210.735,5.048,208.557,5.583z M195.576,9.267l2.036,6.313c2.062-0.665,4.141-1.295,6.234-1.889l-1.812-6.381
					C199.866,7.926,197.713,8.578,195.576,9.267z M182.887,13.856l2.475,6.155c2.011-0.809,4.041-1.584,6.085-2.323l-2.256-6.238
					C187.073,12.216,184.972,13.019,182.887,13.856z M73.502,126.821l6.231,2.274c0.748-2.05,1.531-4.083,2.347-6.098l-6.149-2.488
					C75.087,122.595,74.277,124.699,73.502,126.821z M63.73,166.055l6.568,0.918c0.302-2.159,0.64-4.305,1.013-6.439l-6.534-1.14
					C64.392,161.601,64.041,163.822,63.73,166.055z M66.062,152.767l6.489,1.373c0.451-2.129,0.939-4.246,1.462-6.348l-6.437-1.601
					C67.034,148.369,66.528,150.561,66.062,152.767z M107.229,68.66l5.072,4.274c1.4-1.661,2.829-3.298,4.286-4.909l-4.919-4.45
					C110.159,65.244,108.679,66.939,107.229,68.66z M62.333,179.474l6.618,0.456c0.149-2.175,0.337-4.339,0.56-6.493l-6.599-0.682
					C62.683,174.983,62.488,177.224,62.333,179.474z M61.87,192.953h6.633c0-2.181,0.037-4.353,0.111-6.516l-6.629-0.228
					C61.909,188.448,61.87,190.696,61.87,192.953z M69.321,139.673l6.376,1.827c0.599-2.092,1.235-4.168,1.904-6.229l-6.307-2.051
					C70.6,135.354,69.942,137.505,69.321,139.673z M248.591,0.098l0.212,6.63c1.998-0.064,3.967-0.132,6.021-0.095l0.493,0
					L255.339,0l-0.514,0C252.727-0.002,250.661,0.032,248.591,0.098z M91.314,90.457l5.616,3.528
					c1.157-1.843,2.347-3.664,3.566-5.462l-5.491-3.721C93.744,86.663,92.513,88.549,91.314,90.457z M98.893,79.277l5.357,3.912
					c1.282-1.756,2.594-3.489,3.936-5.198l-5.217-4.096C101.58,75.665,100.221,77.459,98.893,79.277z M78.584,114.284l6.054,2.709
					c0.891-1.989,1.812-3.961,2.77-5.913l-5.957-2.919C80.461,110.182,79.505,112.224,78.584,114.284z M84.532,102.143l5.849,3.128
					c1.027-1.921,2.086-3.822,3.176-5.702l-5.737-3.327C86.692,98.187,85.596,100.155,84.532,102.143z M126,49.299l4.431,4.937
					c1.615-1.45,3.256-2.872,4.922-4.265l-4.256-5.087C129.373,46.326,127.674,47.799,126,49.299z M425.656,103.165l-5.869,3.091
					c1.008,1.915,1.984,3.849,2.927,5.803l5.974-2.883C427.712,107.153,426.701,105.149,425.656,103.165z M394.24,59.559
					l-4.791,4.586c1.5,1.568,2.974,3.163,4.419,4.783l4.951-4.414C397.323,62.835,395.795,61.183,394.24,59.559z M431.507,115.288
					l-6.072,2.672c0.871,1.978,1.709,3.974,2.511,5.989l6.162-2.456C433.276,119.406,432.408,117.337,431.507,115.288z
					 M403.221,69.621l-5.1,4.242c1.388,1.669,2.748,3.361,4.078,5.078l5.242-4.064C406.064,73.1,404.657,71.348,403.221,69.621z
					 M411.475,80.276l-5.381,3.878c1.268,1.759,2.505,3.54,3.711,5.345l5.514-3.686C414.07,83.945,412.788,82.099,411.475,80.276z
					 M418.967,91.476l-5.638,3.495c1.141,1.841,2.25,3.704,3.327,5.587l5.759-3.294C421.299,95.313,420.149,93.383,418.967,91.476z
					 M446.054,167.069l-6.575,0.881c0.287,2.146,0.539,4.303,0.754,6.472l6.6-0.652
					C446.612,171.524,446.351,169.291,446.054,167.069z M447.38,180.493l-6.62,0.422c0.138,2.16,0.239,4.329,0.301,6.509l6.631-0.19
					C447.627,184.977,447.522,182.729,447.38,180.493z M440.604,140.656l-6.385,1.795c0.586,2.086,1.137,4.186,1.651,6.301
					l6.445-1.568C441.782,144.993,441.212,142.818,440.604,140.656z M443.796,153.767l-6.497,1.341c0.438,2.12,0.84,4.254,1.204,6.4
					l6.54-1.108C444.666,158.176,444.249,155.965,443.796,153.767z M436.5,127.803l-6.244,2.239c0.732,2.04,1.429,4.097,2.091,6.17
					l6.318-2.018C437.979,132.047,437.258,129.916,436.5,127.803z M325.236,20.397c2.019,0.824,4.018,1.683,5.999,2.575l2.725-6.048
					c-2.052-0.925-4.125-1.814-6.215-2.668L325.236,20.397z M312.977,15.887c2.074,0.68,4.131,1.396,6.171,2.147l2.291-6.225
					c-2.114-0.778-4.246-1.519-6.393-2.224L312.977,15.887z M300.464,12.263c2.111,0.531,4.207,1.099,6.288,1.702l1.846-6.371
					c-2.156-0.624-4.328-1.212-6.514-1.763L300.464,12.263z M287.728,9.528c2.144,0.382,4.274,0.8,6.392,1.255l1.393-6.485
					c-2.194-0.471-4.401-0.904-6.621-1.3L287.728,9.528z M384.579,50.143l-4.463,4.908c1.607,1.461,3.189,2.951,4.744,4.467
					l4.632-4.749C387.88,53.198,386.243,51.656,384.579,50.143z M261.833,6.762c2.178,0.08,4.346,0.198,6.505,0.353l0.475-6.616
					c-2.235-0.16-4.48-0.282-6.734-0.366L261.833,6.762z M274.831,7.694c2.166,0.232,4.322,0.5,6.464,0.805l0.935-6.567
					c-2.221-0.316-4.452-0.594-6.696-0.833L274.831,7.694z M359.662,38.906c1.797,1.225,3.572,2.481,5.324,3.768l3.925-5.346
					c-1.813-1.332-3.65-2.632-5.511-3.902L359.662,38.906z M337.141,25.757c1.953,0.964,3.887,1.961,5.8,2.989l3.144-5.841
					c-1.981-1.066-3.985-2.099-6.009-3.097L337.141,25.757z M370.173,46.624c1.707,1.347,3.389,2.723,5.046,4.127l4.288-5.06
					c-1.715-1.454-3.458-2.88-5.225-4.274L370.173,46.624z M348.635,31.937c1.88,1.097,3.738,2.227,5.575,3.388l3.543-5.607
					c-1.902-1.202-3.827-2.372-5.774-3.509L348.635,31.937z"/>
			</g>
		</g>
	</g>
	<g>
		<g>
			<polygon class="st2" points="464.081,173.137 444.995,196.444 423.224,177.04 418.811,181.993 445.744,205.998 469.214,177.34 
							"/>
		</g>
	</g>
	<g>
		<g>
			<path class="st2" d="M266.68,384.312l-98.705-51.499H7.771v6.633h158.578l97.262,50.746c7.511,3.918,12.177,11.615,12.177,20.087
				c0,7.822-3.949,14.985-10.564,19.16c-6.616,4.176-14.78,4.658-21.841,1.293l-83.817-39.946l-2.855,5.987l83.817,39.946
				c4.028,1.92,8.332,2.871,12.62,2.871c5.432-0.001,10.837-1.526,15.615-4.542c8.552-5.397,13.657-14.657,13.657-24.77
				C282.421,399.328,276.389,389.377,266.68,384.312z"/>
		</g>
	</g>
	<g>
		<g>
			<path class="st2" d="M501.551,382.02c-6.719-14.911-23.785-21.614-38.858-15.258L325.198,424.75
				c-39.086,16.486-68.991,15.691-99.986-2.662l-3.379,5.708c21.928,12.984,53.786,25.064,105.943,3.066l137.494-57.988
				c11.728-4.944,25.004,0.27,30.231,11.872c5.199,11.54,0.356,24.919-11.026,30.456l-160.219,77.953
				c-31.768,15.457-68.584,16.279-101.009,2.261L89.138,437.432H7.771v6.633h79.994l132.852,57.437
				c16.208,7.007,33.452,10.499,50.68,10.498c19.127-0.001,38.234-4.305,55.862-12.882l160.219-77.953
				C502.008,414.048,508.233,396.853,501.551,382.02z"/>
		</g>
	</g>
	<g>
		<g>
			<path class="st4" d="M487.225,388.473c-2.373-5.263-7.465-8.37-12.862-8.37c-1.852,0-3.738,0.366-5.564,1.136l-137.495,57.989
				c-23.347,9.847-42.785,13.522-59.031,13.522c-25.524,0-43.165-9.074-55.691-17.536l-63.778-30.244l10.667-22.381l83.817,39.946
				c1.898,0.905,3.893,1.354,5.874,1.354c2.496,0,4.971-0.713,7.213-2.129c4.024-2.539,6.331-6.724,6.331-11.482
				c0-5.076-2.797-9.688-7.298-12.036l-95.288-49.717l-73.309-0.001H7.771v80.846h83.042l136.04,57.707
				c14.213,6.146,29.338,9.208,44.444,9.208c16.776,0,33.526-3.774,48.988-11.298l160.22-77.952
				C487.44,403.661,490.392,395.507,487.225,388.473z"/>
		</g>
	</g>
</g>
</svg>
