<?xml version="1.0" encoding="utf-8"?>
<!-- Generator: Adobe Illustrator 18.0.0, SVG Export Plug-In . SVG Version: 6.00 Build 0)  -->
<!DOCTYPE svg PUBLIC "-//W3C//DTD SVG 1.1//EN" "http://www.w3.org/Graphics/SVG/1.1/DTD/svg11.dtd">
<svg version="1.1" id="Layer_1" xmlns="http://www.w3.org/2000/svg" xmlns:xlink="http://www.w3.org/1999/xlink" x="0px" y="0px"
	 viewBox="0 0 512 512" style="enable-background:new 0 0 512 512;" xml:space="preserve">
<style type="text/css">
	.st0{fill:#FFD452;}
	.st1{fill:#F58E6F;}
	.st2{fill:#4A555F;}
	.st3{fill:none;}
	.st4{fill:#DFDFDF;}
	.st5{fill:#71CCE0;}
	.st6{fill:#FFFFFF;}
</style>
<g>
	<g>
		<g>
			<g>
				<path class="st4" d="M346.163,167.145c2.534,2.845,4.925,5.834,7.149,8.918V85.063c0-7.675-5.978-14.346-13.652-14.489
					c-7.938-0.167-14.37,6.145-14.37,13.939v63.815C332.964,153.755,339.994,160.092,346.163,167.145z M496.125,194.45
					c-0.263-0.263-0.622-0.406-0.957-0.406c-0.167,0-0.382,0.024-0.717,0.239c-4.184,2.773-8.918,6.623-11.5,11.118
					c-2.415,4.208-7.03,6.647-11.883,6.647c-0.694,0-1.363-0.048-2.009-0.167c-6.719-0.98-11.931-6.767-11.931-13.772
					c0-0.024,0-0.024,0-0.048l0.024-104.198c0-3.754-1.458-7.269-4.089-9.923c-2.654-2.654-6.169-4.113-9.923-4.113
					c-7.747,0-14.035,6.288-14.035,14.011l-0.048,108.574c0,6.599-5.356,11.955-11.955,11.955c-3.3,0-6.288-1.339-8.464-3.491
					c-2.152-2.176-3.491-5.165-3.491-8.464l-0.024-143.769c0-8.297-7.269-14.92-15.781-13.82c-7.03,0.884-12.122,7.22-12.122,14.298
					v143.267c0,4.4-2.367,8.249-5.906,10.305c3.132,10.712,4.806,22.045,4.806,33.784c0,49.876-30.389,92.65-73.666,110.822
					l13.963,19.63l141.378,0.072l11.142-14.106l21.877-28.453l0.12-0.144l0.096-0.143l0.239-0.287
					c3.276-4.017,5.117-9.253,5.141-14.633l0.048-123.924C496.459,194.904,496.364,194.665,496.125,194.45z M295.641,110.981
					c-4.567-0.885-8.583,2.606-8.583,7.029v12.385c4.901,1.315,9.684,2.917,14.322,4.83v-16.927
					C301.38,114.831,299.06,111.651,295.641,110.981z"/>
			</g>
		</g>
	</g>
	<g>
		<g>
			<g>
				<path class="st2" d="M286.073,385.372l-0.04,97.379l204.975,0.087l0.04-97.466H286.073z M483.837,475.663l-190.629-0.083
					l0.035-83.035h190.629L483.837,475.663z"/>
			</g>
		</g>
	</g>
	<g>
		<g>
			<polygon class="st0" points="301.608,400.91 301.58,467.215 475.472,467.292 475.5,400.91 			"/>
		</g>
	</g>
	<g>
		<g>
			<g>
				<path class="st2" d="M448.328,413.95c-11.1,0-20.134,9.03-20.139,20.131c-0.005,11.104,9.026,20.141,20.131,20.147h0.008
					c0,0,0,0,0.001,0c11.099,0,20.133-9.031,20.138-20.131C468.471,422.993,459.441,413.955,448.328,413.95z M448.328,447.054v3.586
					l-0.005-3.586c-7.149-0.004-12.963-5.822-12.961-12.972c0.002-7.146,5.82-12.96,12.971-12.96
					c7.149,0.003,12.964,5.822,12.961,12.972C461.291,441.241,455.474,447.056,448.328,447.054z"/>
			</g>
		</g>
	</g>
	<g>
		<g>
			<path class="st2" d="M503.168,180.534c-5.561-2.988-12.029-2.682-17.296,0.813c-5.488,3.635-9.914,7.577-13.221,11.745
				l0.042-99.278c0-16.299-13.281-29.594-29.598-29.528c-7.872,0-15.276,3.064-20.853,8.632c-0.549,0.549-1.074,1.114-1.574,1.696
				l-0.002-15.972c0-7.88-3.064-15.286-8.63-20.85c-5.565-5.566-12.971-8.631-20.851-8.631c-16.269,0-29.504,13.225-29.504,29.481
				v6.63c-5.424-6.267-13.453-10.24-22.428-10.24c-16.269,0-29.504,13.225-29.504,29.481v16.94
				c-4.233-3.976-9.716-6.157-15.517-6.157c-12.524,0-22.714,10.19-22.714,22.714v9.851h7.173v-9.851
				c0-8.569,6.972-15.541,15.541-15.541c4.129,0,8.027,1.623,10.964,4.559c2.936,2.957,4.553,6.858,4.553,10.982v22.881h7.173
				V84.514c0-12.301,10.018-22.308,22.451-22.308c12.301,0,22.308,10.007,22.308,22.308V196.53h7.173V58.642
				c0-12.301,10.018-22.308,22.331-22.308c5.965,0,11.568,2.318,15.78,6.53c4.21,4.21,6.529,9.814,6.529,15.778l0.023,155.748
				l7.173-0.047l0.048-120.506c0-5.986,2.334-11.612,6.573-15.844c4.223-4.216,9.827-6.536,15.791-6.536h0.04
				c12.34,0,22.379,10.029,22.379,22.401l-0.048,178.276h7.173v-60.234c0.094-8.814,5.877-17.083,17.19-24.576
				c3.032-2.007,6.746-2.186,9.941-0.472c3.163,1.699,5.052,4.86,5.052,8.456l-0.048,123.915
				c-0.021,7.201-2.472,14.213-6.908,19.781l-22.347,29.075l-13.677,17.291H312.103l-18.413-25.963l-5.852,4.149l20.559,28.987
				h156.922l15.863-20.056l21.778-28.373c0.147-0.156,0.266-0.307,0.363-0.442c5.541-6.861,8.604-15.531,8.63-24.437L512,195.311
				C512,189.026,508.699,183.503,503.168,180.534z"/>
		</g>
	</g>
	<g>
		<g>
			<g>
				<path class="st4" d="M186.711,148.328V84.513c0-7.795-6.432-14.107-14.37-13.939c-7.675,0.143-13.653,6.814-13.653,14.489
					v91.001c2.224-3.085,4.615-6.073,7.149-8.918C172.007,160.092,179.036,153.755,186.711,148.328z M135.879,246.478
					c0-11.74,1.674-23.073,4.806-33.784c-3.539-2.057-5.906-5.906-5.906-10.305V59.121c0-7.078-5.093-13.414-12.122-14.298
					c-8.512-1.1-15.78,5.523-15.78,13.82l-0.024,143.769c0,3.299-1.339,6.288-3.491,8.464c-2.176,2.152-5.164,3.491-8.464,3.491
					c-6.599,0-11.955-5.356-11.955-11.955L82.895,93.838c0-7.723-6.288-14.011-14.035-14.011c-3.754,0-7.269,1.459-9.923,4.113
					c-2.63,2.654-4.088,6.169-4.088,9.923l0.024,104.198c0,0.024,0,0.024,0,0.048c0,7.005-5.212,12.792-11.931,13.772
					c-0.646,0.119-1.315,0.167-2.008,0.167c-4.854,0-9.468-2.439-11.883-6.647c-2.582-4.495-7.316-8.345-11.5-11.118
					c-0.335-0.215-0.55-0.239-0.718-0.239c-0.334,0-0.693,0.144-0.956,0.406c-0.239,0.215-0.334,0.454-0.334,0.861l0.048,123.924
					c0.024,5.38,1.865,10.616,5.14,14.633l0.239,0.287l0.096,0.143l0.119,0.144l21.878,28.453l11.142,14.106l141.378-0.072
					l13.964-19.63C166.268,339.128,135.879,296.353,135.879,246.478z M216.359,110.981c-3.419,0.669-5.738,3.85-5.738,7.317v16.927
					c4.638-1.912,9.42-3.515,14.322-4.83v-12.385C224.943,113.588,220.926,110.097,216.359,110.981z"/>
			</g>
		</g>
	</g>
	<g>
		<g>
			<g>
				<path class="st2" d="M225.927,385.372H20.952l0.04,97.466l204.975-0.087L225.927,385.372z M28.163,475.663l-0.035-83.118
					h190.629l0.035,83.035L28.163,475.663z"/>
			</g>
		</g>
	</g>
	<g>
		<g>
			<polygon class="st0" points="210.392,400.91 36.5,400.91 36.528,467.292 210.42,467.215 			"/>
		</g>
	</g>
	<g>
		<g>
			<g>
				<path class="st2" d="M63.664,413.95c-5.378,0.002-10.436,2.1-14.237,5.905c-3.802,3.805-5.895,8.863-5.892,14.242
					c0.005,11.1,9.038,20.131,20.137,20.131h0.009c5.379-0.002,10.436-2.1,14.237-5.905c3.803-3.805,5.895-8.863,5.892-14.242
					C83.807,422.98,74.773,413.95,63.664,413.95z M72.845,443.252c-2.448,2.451-5.704,3.8-9.167,3.803l-0.006,3.586v-3.586
					c-7.146,0-12.962-5.814-12.965-12.961c-0.002-3.463,1.345-6.719,3.793-9.168c2.448-2.451,5.704-3.8,9.173-3.802
					c7.146,0,12.962,5.814,12.965,12.961C76.641,437.546,75.293,440.802,72.845,443.252z"/>
			</g>
		</g>
	</g>
	<g>
		<g>
			<path class="st2" d="M217.77,95.296c-5.8,0-11.279,2.179-15.518,6.16V84.514c0-16.256-13.236-29.481-29.623-29.481
				c-8.904,0-16.898,3.967-22.308,10.227v-6.617c0-16.256-13.236-29.481-29.505-29.481c-7.879,0-15.284,3.065-20.85,8.631
				c-5.565,5.564-8.63,12.969-8.63,20.849l-0.002,15.974c-0.501-0.582-1.026-1.149-1.575-1.697
				c-5.578-5.568-12.981-8.632-20.847-8.632H68.86c-16.296,0-29.552,13.246-29.552,29.577l0.042,99.225
				c-3.308-4.164-7.732-8.106-13.218-11.74c-5.272-3.495-11.736-3.799-17.3-0.814C3.302,183.503,0,189.028,0,195.312l0.048,123.934
				c0.026,8.898,3.089,17.567,8.631,24.428c0.096,0.134,0.214,0.282,0.358,0.437l21.814,28.421l15.83,20.014h156.922l20.559-28.987
				l-5.852-4.149l-18.413,25.963H50.153L36.51,368.123l-22.307-29.062l-0.064-0.043c-4.442-5.57-6.897-12.586-6.918-19.784
				L7.173,195.311c0-3.597,1.889-6.758,5.052-8.456c3.191-1.716,6.91-1.54,9.943,0.472c11.319,7.497,17.101,15.771,17.188,24.554
				v60.255h7.173L46.48,93.813c0-12.326,10.039-22.355,22.385-22.355h0.04c5.958,0,11.562,2.32,15.785,6.536
				c4.239,4.232,6.573,9.858,6.573,15.845l0.048,120.552l7.173-0.047l0.024-155.702c0-5.965,2.319-11.568,6.529-15.778
				c4.211-4.211,9.815-6.53,15.778-6.53c12.314,0,22.333,10.007,22.333,22.308V196.53h7.173V84.514
				c0-12.301,10.008-22.308,22.427-22.308c12.313,0,22.331,10.007,22.331,22.308v56.378h7.173V118.01
				c0-4.123,1.617-8.024,4.546-10.973c2.944-2.946,6.841-4.568,10.972-4.568c8.569,0,15.542,6.972,15.542,15.541v9.851h7.173v-9.851
				C240.484,105.486,230.295,95.296,217.77,95.296z"/>
		</g>
	</g>
	<g>
		<g>
			<g>
				<path class="st2" d="M256.001,122.976c-68.101,0-123.504,55.403-123.504,123.504S187.9,369.984,256.001,369.984
					s123.504-55.403,123.504-123.504S324.102,122.976,256.001,122.976z M256.001,363.229c-64.375,0-116.749-52.374-116.749-116.749
					s52.374-116.749,116.749-116.749S372.75,182.104,372.75,246.48S320.376,363.229,256.001,363.229z"/>
			</g>
		</g>
	</g>
	<g>
		<g>
			<path class="st5" d="M256.001,138.309c-59.646,0-108.173,48.526-108.173,108.172c0,59.646,48.527,108.171,108.173,108.171
				c59.646,0,108.171-48.525,108.171-108.171C364.172,186.834,315.647,138.309,256.001,138.309z"/>
		</g>
	</g>
	<g>
		<g>
			<g>
				<path class="st2" d="M256.001,123.01c-37.65,0-68.28,55.388-68.28,123.47c0,68.082,30.63,123.471,68.28,123.471
					c37.649,0,68.278-55.389,68.278-123.471C324.279,178.398,293.65,123.01,256.001,123.01z M256.001,363.196
					c-33.926,0-61.524-52.359-61.524-116.716c0-64.357,27.599-116.715,61.524-116.715c33.924,0,61.523,52.359,61.523,116.715
					C317.524,310.838,289.926,363.196,256.001,363.196z"/>
			</g>
		</g>
	</g>
	<g>
		<g>
			<rect x="135.875" y="243.102" class="st2" width="240.253" height="6.755"/>
		</g>
	</g>
	<g>
		<g>
			<path class="st2" d="M343.842,164.703c-0.37,0.353-37.602,35.227-88.804,35.227c-51.047,0-86.465-34.816-86.816-35.168
				l-4.781,4.772c1.513,1.516,37.671,37.151,91.597,37.151c53.875,0,91.869-35.576,93.459-37.09L343.842,164.703z"/>
		</g>
	</g>
	<g>
		<g>
			<path class="st2" d="M256.964,284.302c-53.876,0-91.87,35.577-93.46,37.092l4.656,4.892c0.37-0.353,37.602-35.229,88.805-35.229
				c51.046,0,86.464,34.817,86.815,35.169l4.781-4.771C347.047,319.938,310.89,284.302,256.964,284.302z"/>
		</g>
	</g>
	<g>
		<g>
			<rect x="252.624" y="126.387" class="st2" width="6.755" height="240.187"/>
		</g>
	</g>
	<g>
		<g>
			<path class="st2" d="M177.007,172.198l-4.077,5.387c4.363,3.302,8.688,6.244,13.223,8.993l3.502-5.774
				C185.32,178.175,181.183,175.36,177.007,172.198z"/>
		</g>
	</g>
	<g>
		<g>
			<path class="st2" d="M312.535,185.742c-0.546,0.133-1.059,0.378-1.525,0.731l2.512,3.323L312.535,185.742z"/>
		</g>
	</g>
	<g>
		<g>
			<path class="st2" d="M340.167,314.236l-4.173,5.312c4.985,3.914,7.754,6.663,7.781,6.691l4.774-4.777
				C348.428,321.339,345.5,318.425,340.167,314.236z"/>
		</g>
	</g>
</g>
</svg>
