<?xml version="1.0" encoding="utf-8"?>
<!-- Generator: Adobe Illustrator 18.0.0, SVG Export Plug-In . SVG Version: 6.00 Build 0)  -->
<!DOCTYPE svg PUBLIC "-//W3C//DTD SVG 1.1//EN" "http://www.w3.org/Graphics/SVG/1.1/DTD/svg11.dtd">
<svg version="1.1" id="Layer_1" xmlns="http://www.w3.org/2000/svg" xmlns:xlink="http://www.w3.org/1999/xlink" x="0px" y="0px"
	 viewBox="0 0 512 512" style="enable-background:new 0 0 512 512;" xml:space="preserve">
<style type="text/css">
	.st0{fill:#FFD452;}
	.st1{fill:#F58E6F;}
	.st2{fill:#4A555F;}
	.st3{fill:none;}
	.st4{fill:#DFDFDF;}
	.st5{fill:#71CCE0;}
	.st6{fill:#FFFFFF;}
</style>
<g>
	<g>
		<g>
			<rect x="21.453" y="360.562" class="st1" width="119.384" height="83.621"/>
		</g>
	</g>
	<g>
		<g>
			<g>
				<g>
					<path class="st2" d="M147.227,337.741H14.39c-7.935,0-14.39,6.452-14.39,14.381v105.172c0,7.934,6.455,14.389,14.39,14.389
						h132.775c7.934,0,14.389-6.455,14.389-14.389V352.061C161.555,344.165,155.128,337.741,147.227,337.741z M154.361,457.294
						c0,3.967-3.228,7.195-7.195,7.195H14.39c-3.968,0-7.196-3.228-7.196-7.195V352.122c0-3.963,3.228-7.187,7.196-7.187h132.836
						c3.934,0,7.134,3.197,7.134,7.126V457.294z"/>
				</g>
			</g>
		</g>
		<g>
			<g>
				<g>
					<path class="st2" d="M17.856,356.965v90.816h126.577v-90.816H17.856z M137.239,440.587H25.05v-76.428h112.189V440.587z"/>
				</g>
			</g>
		</g>
	</g>
	<g>
		<g>
			<g>
				<path class="st2" d="M99.106,464.485H63.925l-10.714,25.701h56.607L99.106,464.485z M64.005,482.993l4.716-11.313H94.31
					l4.715,11.313H64.005z"/>
			</g>
		</g>
	</g>
	<g>
		<g>
			<g>
				<path class="st2" d="M34.502,482.993v22.486h94.027v-22.486H34.502z M121.335,498.285H41.696v-8.098h79.639V498.285z"/>
			</g>
		</g>
	</g>
	<g>
		<g>
			<rect x="5.586" y="498.285" class="st2" width="147.719" height="7.194"/>
		</g>
	</g>
	<g>
		<g>
			<g>
				<path class="st2" d="M190.912,405.696h7.194v-7.194h-7.194V405.696z M176.524,405.696h7.194v-7.194h-7.194V405.696z
					 M219.688,405.696h7.194v-7.194h-7.194V405.696z M234.076,398.502v7.194h7.194v-7.194H234.076z M205.3,405.696h7.194v-7.194
					H205.3V405.696z"/>
			</g>
		</g>
	</g>
	<g>
		<g>
			<g>
				<path class="st2" d="M241.02,153.79h-7.194v7.194h7.194V153.79z M241.02,182.566h-7.194v7.194h7.194V182.566z M241.02,168.178
					h-7.194v7.194h7.194V168.178z M241.02,211.342h-7.194v7.194h7.194V211.342z M241.02,196.954h-7.194v7.194h7.194V196.954z
					 M241.02,225.73h-7.194v7.194h7.194V225.73z M241.02,96.238h-7.194v7.194h7.194V96.238z M241.02,139.402h-7.194v7.194h7.194
					V139.402z M241.02,110.626h-7.194v7.194h7.194V110.626z M241.02,125.014h-7.194v7.194h7.194V125.014z M233.827,304.865h7.194
					v-7.194h-7.194V304.865z M233.827,290.477h7.194v-7.194h-7.194V290.477z M241.021,247.312l-0.001-7.194h-7.194l0.001,7.194
					H241.021z M233.827,276.088h7.194v-7.194h-7.194V276.088z M233.827,333.641h7.194v-7.194h-7.194V333.641z M233.827,261.7h7.194
					v-7.194h-7.194V261.7z M233.827,319.252h7.194v-7.194h-7.194V319.252z M233.827,376.805h7.194v-7.194h-7.194V376.805z
					 M233.827,391.193h7.194v-7.194h-7.194V391.193z M233.827,362.417h7.194v-7.194h-7.194V362.417z M233.827,348.029h7.194v-7.194
					h-7.194V348.029z"/>
			</g>
		</g>
	</g>
	<g>
		<g>
			<g>
				<path class="st2" d="M262.599,103.418h7.194v-7.194h-7.194V103.418z M248.211,103.418h7.194v-7.194h-7.194V103.418z
					 M291.375,96.224v7.194h7.194v-7.194H291.375z M276.987,103.418h7.194v-7.194h-7.194V103.418z"/>
			</g>
		</g>
	</g>
	<g>
		<g>
			<g>
				<path class="st2" d="M483.952,428.226V369.91l-40.641-42.128h-90.443v178.414h131.083v-27.611h-41.308v-50.359H483.952z
					 M476.758,485.78v13.223H360.063V334.977h80.193l36.503,37.838v48.218H435.45v64.747H476.758z"/>
			</g>
		</g>
	</g>
	<g>
		<g>
			<g>
				<path class="st2" d="M482.951,368.853l-38.581-39.966c-1.016-1.052-2.571-1.389-3.935-0.836
					c-1.359,0.549-2.249,1.869-2.249,3.335v39.966c0,1.987,1.61,3.597,3.597,3.597h38.581c1.444,0,2.747-0.863,3.311-2.191
					C484.238,371.429,483.953,369.892,482.951,368.853z M445.379,367.755V340.29l26.513,27.465H445.379z"/>
			</g>
		</g>
	</g>
	<g>
		<g>
			<polygon class="st4" points="330.944,309.597 330.944,481.39 356.464,481.39 356.464,331.386 441.782,331.386 461.073,351.369 
				461.073,309.597 			"/>
		</g>
	</g>
	<g>
		<g>
			<g>
				<path class="st2" d="M327.347,306v178.986h32.715V334.982h80.194l24.414,25.291V306H327.347z M457.476,342.463l-14.167-14.675
					h-90.442v150.004h-18.327V313.194h122.935V342.463z"/>
			</g>
		</g>
	</g>
	<g>
		<g>
			<rect x="439.046" y="424.639" class="st0" width="69.357" height="57.543"/>
		</g>
	</g>
	<g>
		<g>
			<g>
				<path class="st2" d="M435.449,421.042v64.738H512v-64.738H435.449z M504.806,478.585h-62.163v-50.35h62.163V478.585z"/>
			</g>
		</g>
	</g>
	<g>
		<g>
			<g>
				<path class="st2" d="M147.347,116.621V63.589l-36.817-38.163H28.55v161.433h118.797v-25.586h-56.41v-44.651H147.347z
					 M140.153,168.466v11.198H35.744V32.62h71.731l32.679,33.873v42.935h-56.41v59.039H140.153z"/>
			</g>
		</g>
	</g>
	<g>
		<g>
			<g>
				<path class="st2" d="M146.345,62.531L111.591,26.53c-1.017-1.053-2.574-1.386-3.936-0.836c-1.359,0.549-2.249,1.869-2.249,3.335
					V65.03c0,1.987,1.61,3.597,3.597,3.597h34.755c1.444,0,2.747-0.863,3.311-2.191C147.632,65.107,147.347,63.57,146.345,62.531z
					 M112.6,61.433v-23.5l22.686,23.5H112.6z"/>
			</g>
		</g>
	</g>
	<g>
		<g>
			<polygon class="st4" points="11.556,9.401 11.556,164.156 32.146,164.156 32.146,29.028 109.002,29.028 126.38,47.029 
				126.38,9.401 			"/>
		</g>
	</g>
	<g>
		<g>
			<g>
				<path class="st2" d="M7.96,5.803v161.948h27.783V32.625h71.733l22.501,23.308V5.803H7.96z M122.783,38.124L110.53,25.431H28.549
					v135.127H15.154V12.998h107.629V38.124z"/>
			</g>
		</g>
	</g>
	<g>
		<g>
			<rect x="87.338" y="113.033" class="st5" width="117.677" height="51.836"/>
		</g>
	</g>
	<g>
		<g>
			<g>
				<path class="st2" d="M83.742,109.436v59.031h124.871v-59.031H83.742z M201.418,161.272H90.936v-44.643h110.483V161.272z"/>
			</g>
		</g>
	</g>
	<g>
		<g>
			<g>
				<path class="st2" d="M77.181,281.898h7.194v-7.194h-7.194V281.898z M77.181,296.287h7.194v-7.194h-7.194V296.287z
					 M77.181,310.675h7.194v-7.194h-7.194V310.675z M77.181,267.51h7.194v-7.194h-7.194V267.51z M77.181,224.346h7.194v-7.194
					h-7.194V224.346z M77.181,202.764v7.194h7.194v-7.194H77.181z M77.181,253.123h7.194v-7.194h-7.194V253.123z M77.181,238.734
					h7.194v-7.194h-7.194V238.734z"/>
			</g>
		</g>
	</g>
	<g>
		<g>
			<g>
				<path class="st2" d="M113.344,141.692h0.371c5.44,0,9.866-4.426,9.866-9.866c0-5.441-4.426-9.867-9.866-9.867h-12.295
					c-1.987,0-3.597,1.61-3.597,3.597v29.362h7.194v-10.817l14.852,12.446l4.62-5.515L113.344,141.692z M105.018,129.153h8.698
					c1.473,0,2.672,1.199,2.672,2.673c0,1.473-1.199,2.672-2.672,2.672h-8.698V129.153z"/>
			</g>
		</g>
	</g>
	<g>
		<g>
			<path class="st2" d="M140.276,121.959c-6.88,0-12.477,5.598-12.477,12.478v20.48h7.194v-20.48c0-2.913,2.37-5.284,5.283-5.284
				c2.913,0,5.283,2.371,5.283,5.284v20.48h7.194v-20.48C152.753,127.557,147.157,121.959,140.276,121.959z"/>
		</g>
	</g>
	<g>
		<g>
			<path class="st2" d="M194.461,122.971l-7.194,0.026l0.068,19.762c0.006,1.621-0.621,3.144-1.765,4.292
				c-1.143,1.147-2.665,1.78-4.285,1.78h-9.522c-3.336,0-6.05-2.714-6.05-6.05v-19.715h-7.194v19.715
				c0,7.303,5.941,13.244,13.244,13.244h9.522c3.547,0,6.878-1.383,9.381-3.896c2.504-2.512,3.876-5.849,3.863-9.396
				L194.461,122.971z"/>
		</g>
	</g>
	<g>
		<g>
			<rect x="172.927" y="128.839" class="st2" width="7.194" height="23.588"/>
		</g>
	</g>
	<g>
		<g>
			<rect x="131.396" y="138.005" class="st2" width="17.76" height="7.194"/>
		</g>
	</g>
	<g>
		<g>
			<polygon class="st2" points="96.811,303.728 80.792,319.14 64.974,303.743 59.956,308.897 80.764,329.152 101.799,308.912 			"/>
		</g>
	</g>
	<g>
		<g>
			<g>
				<path class="st2" d="M405.203,246.048h7.194v-7.194h-7.194V246.048z M405.203,260.436h7.194v-7.194h-7.194V260.436z
					 M405.203,274.824h7.194v-7.194h-7.194V274.824z M405.203,181.302v7.194h7.194v-7.194H405.203z M405.203,202.884h7.194v-7.194
					h-7.194V202.884z M405.203,231.66h7.194v-7.194h-7.194V231.66z M405.203,217.272h7.194v-7.194h-7.194V217.272z"/>
			</g>
		</g>
	</g>
	<g>
		<g>
			<polygon class="st2" points="424.833,267.878 408.815,283.291 392.997,267.894 387.978,273.048 408.786,293.302 429.822,273.063 
							"/>
		</g>
	</g>
	<g>
		<g>
			<polygon class="st2" points="297.419,78.908 292.235,83.896 307.647,99.915 292.25,115.731 297.404,120.75 317.659,99.943 			"/>
		</g>
	</g>
	<g>
		<g>
			<g>
				<path class="st2" d="M408.908,18.349c-41.384,0-75.054,33.668-75.054,75.052c0,41.385,33.669,75.052,75.054,75.052
					c41.384,0,75.053-33.668,75.053-75.052C483.961,52.017,450.292,18.349,408.908,18.349z M408.908,161.26
					c-37.417,0-67.859-30.441-67.859-67.859c0-37.417,30.442-67.858,67.859-67.858s67.859,30.441,67.859,67.858
					C476.767,130.818,446.325,161.26,408.908,161.26z"/>
			</g>
		</g>
	</g>
	<g>
		<g>
			<path class="st5" d="M408.908,33.935c-32.79,0-59.466,26.677-59.466,59.465c0,32.789,26.677,59.466,59.466,59.466
				c32.789,0,59.466-26.677,59.466-59.466C468.374,60.612,441.697,33.935,408.908,33.935z"/>
		</g>
	</g>
	<g>
		<g>
			<polygon class="st2" points="439.451,74.052 439.451,53.89 373.986,53.89 408.875,93.401 373.986,132.912 439.451,132.912 
				439.451,112.75 423.506,125.718 389.936,125.718 418.472,93.401 389.936,61.084 423.506,61.084 			"/>
		</g>
	</g>
	<g>
		<g>
			<polygon class="st2" points="490.241,437.589 467.021,458.905 457.518,447.705 452.034,452.358 466.375,469.263 495.105,442.888 
							"/>
		</g>
	</g>
</g>
</svg>
