<?xml version="1.0" encoding="utf-8"?>
<!-- Generator: Adobe Illustrator 23.0.3, SVG Export Plug-In . SVG Version: 6.00 Build 0)  -->
<svg version="1.1" id="Layer_1" xmlns="http://www.w3.org/2000/svg" xmlns:xlink="http://www.w3.org/1999/xlink" x="0px" y="0px"
	 viewBox="0 0 256 256" style="enable-background:new 0 0 256 256;" xml:space="preserve">
<style type="text/css">
	.st0{fill:#F87023;}
	.st1{fill:#F8AF23;}
	.st2{fill:#CECECE;}
	.st3{fill:#AFAFAF;}
	.st4{fill:#63BCE7;}
	.st5{fill:#63E2E7;}
	.st6{fill:#9E9E9E;}
	.st7{fill:#707070;}
	.st8{fill:#3F3679;}
	.st9{fill:#E2E2E2;}
	.st10{fill:#6377E7;}
	.st11{fill:#F46275;}
	.st12{fill:#F8D323;}
	.st13{fill:#F43075;}
	.st14{fill:#F48875;}
</style>
<g>
	<polygon class="st2" points="198.999,57.154 167.104,25.259 57.001,25.259 57.001,219.768 198.999,219.768 	"/>
	<g>
		<polygon class="st9" points="167.104,25.259 160.604,25.259 192.499,57.154 192.499,219.768 198.999,219.768 198.999,57.154 		"/>
	</g>
	<g>
		<rect x="57.001" y="25.259" class="st3" width="6.5" height="194.509"/>
	</g>
	<g>
		<path class="st4" d="M150.091,178.463c0,8.331,6.753,15.084,15.084,15.084c8.331,0,15.084-6.753,15.084-15.084H150.091z"/>
		<path class="st1" d="M148.66,219.768h-41.911v-2.057c0-7.744,6.278-14.022,14.022-14.022h13.867
			c7.744,0,14.022,6.278,14.022,14.022V219.768z"/>
		<rect x="124.275" y="150.951" class="st6" width="6.86" height="52.738"/>
		<circle class="st1" cx="127.705" cy="150.951" r="9.072"/>
		<circle class="st11" cx="127.705" cy="150.951" r="3.983"/>
		<path class="st4" d="M75.742,178.463c0,8.331,6.753,15.084,15.084,15.084s15.084-6.753,15.084-15.084H75.742z"/>
	</g>
	<path class="st1" d="M129.338,33.79l4.774,9.672c0.217,0.44,0.637,0.745,1.123,0.816l10.674,1.551
		c1.224,0.178,1.712,1.681,0.827,2.545l-7.724,7.529c-0.352,0.343-0.512,0.836-0.429,1.32l1.823,10.631
		c0.209,1.219-1.07,2.148-2.164,1.573l-9.547-5.019c-0.435-0.228-0.954-0.228-1.388,0l-9.547,5.019
		c-1.094,0.575-2.374-0.354-2.164-1.573l1.823-10.631c0.083-0.484-0.077-0.978-0.429-1.32l-7.724-7.529
		c-0.885-0.863-0.397-2.367,0.827-2.545l10.674-1.551c0.486-0.071,0.906-0.376,1.123-0.816l4.774-9.672
		C127.209,32.681,128.791,32.681,129.338,33.79z"/>
	<g>
		<path class="st8" d="M127.705,145.468c-3.023,0-5.483,2.46-5.483,5.483s2.46,5.482,5.483,5.482s5.482-2.459,5.482-5.482
			S130.729,145.468,127.705,145.468z M127.705,153.434c-1.369,0-2.483-1.113-2.483-2.482s1.114-2.483,2.483-2.483
			s2.482,1.114,2.482,2.483S129.074,153.434,127.705,153.434z"/>
		<path class="st8" d="M77.799,110.835c2.277,1.295,4.939,1.943,7.986,1.943c2.504,0,4.733-0.47,6.683-1.41
			c1.95-0.939,3.552-2.163,4.805-3.673c1.204-1.451,2.093-3.021,2.667-4.71c0.045-0.132,0.066-0.272,0.066-0.412v-5.852
			c0-0.638-0.517-1.156-1.156-1.156H85.83c-0.638,0-1.156,0.517-1.156,1.156v2.942c0,0.638,0.517,1.156,1.156,1.156h8.068
			c-0.541,1.765-1.466,3.125-2.776,4.079s-2.833,1.431-4.57,1.431c-2.705,0-4.79-0.769-6.256-2.307
			c-1.468-1.537-2.199-3.743-2.199-6.619c0-2.647,0.697-4.748,2.092-6.3c1.395-1.552,3.245-2.328,5.552-2.328
			c1.48,0,2.747,0.321,3.801,0.961c0.852,0.519,1.528,1.182,2.026,1.989c0.219,0.355,0.58,0.595,0.997,0.595h5.58
			c0.75,0,1.342-0.717,1.127-1.436c-0.749-2.493-2.156-4.519-4.221-6.081c-2.449-1.85-5.566-2.776-9.352-2.776
			c-3.018,0-5.659,0.648-7.923,1.943c-2.263,1.295-4.014,3.11-5.252,5.445c-1.239,2.334-1.858,4.997-1.858,7.986
			s0.619,5.652,1.858,7.986C73.762,107.724,75.521,109.539,77.799,110.835z"/>
		<path class="st8" d="M105.261,112.521h10.247c3.218,0,6.014-0.641,8.393-1.921c2.376-1.281,4.199-3.068,5.466-5.361
			c1.267-2.291,1.9-4.917,1.9-7.879c0-2.96-0.634-5.58-1.9-7.858c-1.267-2.278-3.082-4.042-5.445-5.296
			c-2.364-1.252-5.168-1.879-8.414-1.879h-10.247c-0.638,0-1.156,0.518-1.156,1.156v27.882
			C104.105,112.004,104.622,112.521,105.261,112.521z M111.408,89.889c0-0.638,0.517-1.156,1.156-1.156h2.305
			c2.846,0,5.061,0.755,6.64,2.264c1.581,1.509,2.37,3.63,2.37,6.363s-0.79,4.855-2.37,6.363c-1.58,1.51-3.794,2.264-6.64,2.264
			h-2.305c-0.638,0-1.156-0.518-1.156-1.156V89.889z"/>
		<path class="st8" d="M136.564,82.328c-0.638,0-1.156,0.518-1.156,1.156v27.882c0,0.638,0.517,1.156,1.156,1.156h4.991
			c0.638,0,1.156-0.517,1.156-1.156v-8.28c0-0.638,0.517-1.156,1.156-1.156h3.371c2.364,0,4.37-0.42,6.022-1.26
			c1.651-0.839,2.897-1.993,3.736-3.459c0.839-1.466,1.26-3.139,1.26-5.019c0-3.017-0.939-5.416-2.818-7.196
			c-1.879-1.779-4.613-2.669-8.2-2.669H136.564z M150.826,92.193c0,2.592-1.466,3.886-4.399,3.886h-2.56
			c-0.638,0-1.156-0.518-1.156-1.156v-5.547c0-0.638,0.517-1.156,1.156-1.156h2.56C149.359,88.221,150.826,89.545,150.826,92.193z"
			/>
		<path class="st8" d="M163,112.521h4.991c0.638,0,1.156-0.517,1.156-1.156v-10.247h1.666l6.201,10.822
			c0.206,0.359,0.589,0.581,1.003,0.581h5.353c0.9,0,1.455-0.983,0.989-1.753l-5.336-8.83c-0.369-0.61-0.131-1.445,0.538-1.689
			c1.669-0.61,2.989-1.53,3.957-2.76c1.21-1.538,1.815-3.401,1.815-5.595c0-1.85-0.413-3.494-1.239-4.932
			c-0.826-1.438-2.064-2.569-3.716-3.395c-1.651-0.826-3.673-1.239-6.064-1.239H163c-0.638,0-1.156,0.518-1.156,1.156v27.882
			C161.844,112.004,162.362,112.521,163,112.521z M169.147,89.633c0-0.638,0.518-1.156,1.156-1.156h3.371
			c1.424,0,2.484,0.342,3.182,1.025c0.698,0.684,1.046,1.623,1.046,2.818c0,1.254-0.342,2.199-1.025,2.84
			c-0.682,0.641-1.75,0.96-3.203,0.96h-3.371c-0.638,0-1.156-0.517-1.156-1.156V89.633z"/>
		<path class="st8" d="M115.939,56.969L114.115,67.6c-0.193,1.132,0.263,2.253,1.191,2.927c0.523,0.381,1.138,0.574,1.755,0.574
			c0.476,0,0.954-0.114,1.396-0.347l9.539-5.019l9.547,5.018c1.015,0.534,2.224,0.447,3.15-0.227
			c0.929-0.674,1.385-1.795,1.191-2.927l-1.826-10.623l7.723-7.528c0.822-0.801,1.112-1.976,0.759-3.066
			c-0.354-1.092-1.28-1.872-2.416-2.037l-10.668-1.547l-4.773-9.672c-0.508-1.029-1.536-1.668-2.683-1.668s-2.175,0.639-2.683,1.668
			l-4.768,9.668l-10.674,1.551c-1.136,0.165-2.062,0.945-2.416,2.037c-0.354,1.091-0.063,2.266,0.758,3.065L115.939,56.969z
			 M120.983,45.763c0.976-0.144,1.816-0.756,2.25-1.637l4.755-9.68l4.777,9.678c0.435,0.883,1.275,1.495,2.253,1.639l10.67,1.536
			l-7.724,7.529c-0.706,0.688-1.027,1.678-0.861,2.648l1.836,10.621l-9.547-5.019c-0.873-0.457-1.912-0.457-2.785,0l-9.535,5.028
			l1.824-10.632c0.166-0.97-0.155-1.96-0.861-2.647l-7.728-7.515L120.983,45.763z"/>
		<path class="st8" d="M71.833,124.737h112.334c0.828,0,1.5-0.672,1.5-1.5s-0.672-1.5-1.5-1.5H71.833c-0.828,0-1.5,0.672-1.5,1.5
			S71.005,124.737,71.833,124.737z"/>
		<path class="st8" d="M185.667,133.696c0-0.828-0.672-1.5-1.5-1.5H71.833c-0.828,0-1.5,0.672-1.5,1.5s0.672,1.5,1.5,1.5h112.334
			C184.995,135.196,185.667,134.524,185.667,133.696z"/>
		<path class="st8" d="M27.323,229.241H9.32c-0.828,0-1.5,0.672-1.5,1.5s0.672,1.5,1.5,1.5h18.003c0.828,0,1.5-0.672,1.5-1.5
			S28.151,229.241,27.323,229.241z"/>
		<path class="st8" d="M246.68,229.241h-18.003c-0.828,0-1.5,0.672-1.5,1.5s0.672,1.5,1.5,1.5h18.003c0.828,0,1.5-0.672,1.5-1.5
			S247.508,229.241,246.68,229.241z"/>
		<path class="st8" d="M218.479,229.241H37.521c-0.828,0-1.5,0.672-1.5,1.5s0.672,1.5,1.5,1.5h180.959c0.828,0,1.5-0.672,1.5-1.5
			S219.308,229.241,218.479,229.241z"/>
		<path class="st8" d="M9.32,221.268h47.681h49.748h41.911h50.339h47.681c0.828,0,1.5-0.672,1.5-1.5s-0.672-1.5-1.5-1.5h-46.181
			V57.154c0-0.397-0.158-0.779-0.439-1.061l-31.895-31.896c-0.281-0.281-0.663-0.439-1.061-0.439H57.001c-0.828,0-1.5,0.672-1.5,1.5
			v193.009H9.32c-0.828,0-1.5,0.672-1.5,1.5S8.492,221.268,9.32,221.268z M108.249,218.268v-0.557
			c0-6.905,5.617-12.522,12.522-12.522h3.504h6.859h3.504c6.904,0,12.521,5.617,12.521,12.522v0.557H108.249z M127.705,158.523
			c-4.176,0-7.572-3.396-7.572-7.572s3.396-7.573,7.572-7.573s7.572,3.397,7.572,7.573S131.881,158.523,127.705,158.523z
			 M125.775,161.339c0.627,0.116,1.27,0.185,1.93,0.185s1.303-0.069,1.93-0.185v40.85h-3.859V161.339z M168.604,28.88l26.773,26.774
			h-26.773V28.88z M58.501,26.759h107.104v30.396c0,0.828,0.672,1.5,1.5,1.5h30.395v159.613H150.16v-0.557
			c0-8.56-6.963-15.522-15.521-15.522h-2.004v-41.892c2.929-1.552,5.036-4.439,5.523-7.845h24.484l-13.866,25.291l0.004,0.007
			c-0.116,0.213-0.189,0.454-0.189,0.714c0,9.145,7.439,16.584,16.584,16.584c9.144,0,16.583-7.439,16.583-16.584
			c0-0.26-0.072-0.501-0.189-0.714l0.004-0.007L166.49,150.23c-0.264-0.48-0.768-0.779-1.315-0.779h-27.017
			c-0.732-5.12-5.134-9.073-10.453-9.073s-9.721,3.953-10.453,9.073H90.825c-0.548,0-1.052,0.299-1.315,0.779l-15.083,27.512
			l0.004,0.007c-0.116,0.213-0.189,0.454-0.189,0.714c0,9.145,7.439,16.584,16.583,16.584c9.145,0,16.584-7.439,16.584-16.584
			c0-0.26-0.072-0.501-0.189-0.714l0.004-0.007l-13.866-25.291h23.894c0.487,3.406,2.594,6.293,5.523,7.845v41.892h-2.004
			c-8.56,0-15.522,6.963-15.522,15.522v0.557H58.501V26.759z M152.624,176.963l12.551-22.891l12.55,22.891H152.624z
			 M178.676,179.963c-0.749,6.787-6.519,12.084-13.501,12.084c-6.983,0-12.753-5.297-13.502-12.084H178.676z M78.275,176.963
			l12.55-22.891l12.551,22.891H78.275z M104.327,179.963c-0.749,6.787-6.519,12.084-13.502,12.084
			c-6.982,0-12.752-5.297-13.501-12.084H104.327z"/>
	</g>
</g>
</svg>
