<?xml version="1.0" encoding="utf-8"?>
<!-- Generator: Adobe Illustrator 23.0.3, SVG Export Plug-In . SVG Version: 6.00 Build 0)  -->
<svg version="1.1" id="Layer_1" xmlns="http://www.w3.org/2000/svg" xmlns:xlink="http://www.w3.org/1999/xlink" x="0px" y="0px"
	 viewBox="0 0 256 256" style="enable-background:new 0 0 256 256;" xml:space="preserve">
<style type="text/css">
	.st0{fill:#F87023;}
	.st1{fill:#F8AF23;}
	.st2{fill:#CECECE;}
	.st3{fill:#AFAFAF;}
	.st4{fill:#63BCE7;}
	.st5{fill:#63E2E7;}
	.st6{fill:#9E9E9E;}
	.st7{fill:#707070;}
	.st8{fill:#3F3679;}
	.st9{fill:#E2E2E2;}
	.st10{fill:#6377E7;}
	.st11{fill:#F46275;}
	.st12{fill:#F8D323;}
	.st13{fill:#F43075;}
	.st14{fill:#F48875;}
</style>
<g>
	<path class="st2" d="M29.619,183.896c-7.724,0-14.009-6.285-14.009-14.009V42.995c0-7.724,6.285-14.009,14.009-14.009h196.762
		c7.724,0,14.009,6.285,14.009,14.009v126.892c0,7.724-6.285,14.009-14.009,14.009H29.619z"/>
	<g>
		<path class="st3" d="M22.11,169.887V42.995c0-7.724,6.285-14.009,14.009-14.009h-6.5c-7.724,0-14.009,6.285-14.009,14.009v126.892
			c0,7.724,6.285,14.009,14.009,14.009h6.5C28.395,183.896,22.11,177.611,22.11,169.887z"/>
	</g>
	<g>
		<path class="st9" d="M233.89,169.887V42.995c0-7.724-6.285-14.009-14.009-14.009h6.5c7.724,0,14.009,6.285,14.009,14.009v126.892
			c0,7.724-6.285,14.009-14.009,14.009h-6.5C227.605,183.896,233.89,177.611,233.89,169.887z"/>
	</g>
	<path class="st4" d="M231.769,157.585c0,2.963-2.425,5.388-5.388,5.388H29.619c-2.963,0-5.388-2.425-5.388-5.388V42.995
		c0-2.963,2.425-5.388,5.388-5.388h196.762c2.963,0,5.388,2.425,5.388,5.388V157.585z"/>
	<g>
		<path class="st10" d="M30.731,157.585V42.995c0-2.963,2.425-5.388,5.388-5.388h-6.5c-2.963,0-5.388,2.425-5.388,5.388v114.59
			c0,2.963,2.425,5.388,5.388,5.388h6.5C33.156,162.973,30.731,160.549,30.731,157.585z"/>
	</g>
	<g>
		<path class="st5" d="M225.269,157.585V42.995c0-2.963-2.425-5.388-5.388-5.388h6.5c2.963,0,5.388,2.425,5.388,5.388v114.59
			c0,2.963-2.425,5.388-5.388,5.388h-6.5C222.844,162.973,225.269,160.549,225.269,157.585z"/>
	</g>
	<rect x="88.847" y="206.612" class="st2" width="78.305" height="9.429"/>
	<g>
		<rect x="88.847" y="206.612" class="st3" width="6.5" height="9.429"/>
	</g>
	<rect x="99.983" y="183.896" class="st6" width="56.035" height="22.716"/>
	<g>
		<rect x="99.983" y="183.896" class="st7" width="6.5" height="22.716"/>
	</g>
	<circle class="st1" cx="128" cy="173.435" r="4.613"/>
	<g>
		<g>
			<path class="st8" d="M95.052,96.291c2.066,1.562,3.472,3.588,4.221,6.081c0.216,0.719-0.376,1.436-1.127,1.436h-5.58
				c-0.417,0-0.778-0.24-0.997-0.595c-0.498-0.808-1.174-1.471-2.026-1.989c-1.054-0.64-2.321-0.961-3.801-0.961
				c-2.307,0-4.158,0.776-5.552,2.328s-2.092,3.652-2.092,6.299c0,2.876,0.732,5.083,2.2,6.619c1.465,1.538,3.55,2.307,6.256,2.307
				c1.737,0,3.261-0.477,4.57-1.431c1.309-0.954,2.235-2.314,2.776-4.079H85.83c-0.638,0-1.156-0.517-1.156-1.156v-2.942
				c0-0.638,0.517-1.156,1.156-1.156h13.02c0.638,0,1.156,0.517,1.156,1.156v5.852c0,0.14-0.022,0.28-0.066,0.412
				c-0.574,1.689-1.462,3.259-2.666,4.71c-1.254,1.51-2.855,2.734-4.805,3.673c-1.95,0.94-4.178,1.41-6.683,1.41
				c-3.047,0-5.709-0.648-7.986-1.943c-2.278-1.295-4.036-3.11-5.274-5.445c-1.239-2.335-1.858-4.997-1.858-7.986
				c0-2.989,0.619-5.652,1.858-7.986c1.238-2.335,2.989-4.15,5.252-5.445c2.264-1.295,4.905-1.943,7.923-1.943
				C89.485,93.515,92.603,94.441,95.052,96.291z"/>
			<path class="st8" d="M129.366,116.726c-1.267,2.293-3.09,4.079-5.466,5.361c-2.378,1.28-5.175,1.921-8.393,1.921h-10.247
				c-0.638,0-1.156-0.517-1.156-1.156V94.97c0-0.638,0.517-1.156,1.156-1.156h10.247c3.246,0,6.05,0.627,8.414,1.879
				c2.363,1.254,4.178,3.018,5.445,5.296c1.267,2.278,1.9,4.898,1.9,7.858C131.267,111.809,130.633,114.435,129.366,116.726z
				 M121.508,115.21c1.581-1.508,2.37-3.63,2.37-6.363s-0.79-4.854-2.37-6.363c-1.579-1.509-3.794-2.264-6.64-2.264h-2.305
				c-0.638,0-1.156,0.517-1.156,1.156v14.943c0,0.638,0.517,1.156,1.156,1.156h2.305C117.714,117.474,119.929,116.72,121.508,115.21
				z"/>
			<path class="st8" d="M142.711,114.573v8.28c0,0.638-0.517,1.156-1.156,1.156h-4.991c-0.638,0-1.156-0.517-1.156-1.156V94.97
				c0-0.638,0.517-1.156,1.156-1.156h10.674c3.587,0,6.321,0.89,8.2,2.669c1.88,1.779,2.818,4.178,2.818,7.195
				c0,1.88-0.42,3.553-1.26,5.019c-0.839,1.466-2.085,2.62-3.736,3.459c-1.652,0.839-3.659,1.26-6.022,1.26h-3.371
				C143.229,113.417,142.711,113.934,142.711,114.573z M150.826,103.679c0-2.647-1.466-3.972-4.399-3.972h-2.56
				c-0.638,0-1.156,0.517-1.156,1.156v5.547c0,0.638,0.517,1.156,1.156,1.156h2.56C149.359,107.565,150.826,106.271,150.826,103.679
				z"/>
			<path class="st8" d="M178.017,124.008c-0.414,0-0.797-0.222-1.003-0.581l-6.201-10.822h-1.666v10.247
				c0,0.638-0.517,1.156-1.156,1.156H163c-0.638,0-1.156-0.517-1.156-1.156V94.97c0-0.638,0.517-1.156,1.156-1.156h11.315
				c2.391,0,4.413,0.413,6.064,1.239s2.89,1.957,3.715,3.395c0.826,1.439,1.239,3.083,1.239,4.932c0,2.194-0.605,4.057-1.815,5.595
				c-0.968,1.23-2.287,2.15-3.956,2.761c-0.669,0.245-0.907,1.079-0.538,1.689l5.336,8.83c0.465,0.77-0.089,1.754-0.989,1.754
				H178.017z M169.147,106.452c0,0.638,0.517,1.156,1.156,1.156h3.371c1.452,0,2.52-0.32,3.203-0.961
				c0.684-0.641,1.025-1.586,1.025-2.84c0-1.195-0.349-2.135-1.046-2.818c-0.699-0.684-1.758-1.025-3.182-1.025h-3.371
				c-0.638,0-1.156,0.517-1.156,1.156V106.452z"/>
		</g>
		<path class="st1" d="M129.338,45.276l4.774,9.672c0.217,0.44,0.637,0.745,1.123,0.816l10.674,1.551
			c1.224,0.178,1.712,1.681,0.827,2.545l-7.724,7.529c-0.352,0.343-0.512,0.836-0.429,1.32l1.823,10.631
			c0.209,1.219-1.07,2.148-2.164,1.573l-9.547-5.019c-0.435-0.228-0.954-0.228-1.388,0l-9.547,5.019
			c-1.094,0.575-2.374-0.354-2.164-1.573l1.823-10.631c0.083-0.484-0.077-0.978-0.429-1.32l-7.724-7.529
			c-0.885-0.863-0.397-2.367,0.827-2.545l10.674-1.551c0.486-0.071,0.906-0.376,1.123-0.816l4.774-9.672
			C127.209,44.167,128.791,44.167,129.338,45.276z"/>
	</g>
	<path class="st2" d="M199.692,124.693c-4.408,2.863-14.718,8.86-27.309,11.52c-1.983,0.419-3.422,2.137-3.422,4.164v34.004
		c0,3.575,0.535,7.13,1.586,10.546v0c2.286,7.428,6.923,13.913,13.213,18.478l16.739,12.148c0.895,0.65,2.106,0.65,3.001,0
		l16.739-12.148c6.29-4.565,10.927-11.05,13.213-18.478v0c1.051-3.417,1.586-6.972,1.586-10.546v-34.004
		c0-2.027-1.439-3.745-3.422-4.164c-12.591-2.66-22.9-8.657-27.309-11.52C202.9,123.78,201.098,123.78,199.692,124.693z"/>
	<g>
		<path class="st9" d="M231.615,136.213c-1.045-0.221-2.067-0.471-3.078-0.734v38.903c0,3.575-0.534,7.13-1.586,10.546
			c-2.286,7.428-6.923,13.913-13.213,18.478l-14.989,10.878l1.749,1.27c0.895,0.649,2.106,0.649,3.001,0l16.739-12.147
			c6.29-4.565,10.927-11.05,13.213-18.478c1.051-3.417,1.586-6.971,1.586-10.546v-34.004
			C235.037,138.35,233.598,136.632,231.615,136.213z"/>
	</g>
	<g>
		<rect x="183.232" y="154.568" class="st4" width="37.535" height="37.764"/>
		<path class="st8" d="M216.141,152.424c0-7.798-6.344-14.142-14.142-14.142c-7.798,0-14.142,6.344-14.142,14.142v2.144h4.324
			v-2.144c0-5.422,4.396-9.818,9.818-9.818c5.423,0,9.818,4.396,9.818,9.818v2.144h4.324V152.424z"/>
		<g>
			<path class="st1" d="M204.735,160.589h-5.473c-4.483,0-8.117,3.634-8.117,8.117v17.292h21.708v-17.292
				C212.853,164.223,209.218,160.589,204.735,160.589z"/>
			<g>
				<path class="st7" d="M205.791,178.568l-1.358-5.606l0,0c0.544-0.571,0.878-1.343,0.878-2.194c0-1.758-1.425-3.182-3.182-3.182
					s-3.182,1.425-3.182,3.182c0,0.851,0.334,1.623,0.878,2.194l-1.358,5.606c-0.363,1.497,0.772,2.939,2.312,2.939h1.35h1.35
					C205.019,181.507,206.153,180.065,205.791,178.568z"/>
				<g>
					<path class="st8" d="M128,179.548c3.371,0,6.113-2.742,6.113-6.113s-2.742-6.113-6.113-6.113s-6.113,2.742-6.113,6.113
						S124.629,179.548,128,179.548z M128,170.321c1.717,0,3.113,1.396,3.113,3.113s-1.396,3.113-3.113,3.113
						s-3.113-1.396-3.113-3.113S126.283,170.321,128,170.321z"/>
					<path class="st8" d="M27.323,225.514H9.32c-0.829,0-1.5,0.672-1.5,1.5s0.671,1.5,1.5,1.5h18.003c0.829,0,1.5-0.672,1.5-1.5
						S28.152,225.514,27.323,225.514z"/>
					<path class="st8" d="M246.68,225.514h-18.003c-0.828,0-1.5,0.672-1.5,1.5s0.672,1.5,1.5,1.5h18.003c0.828,0,1.5-0.672,1.5-1.5
						S247.508,225.514,246.68,225.514z"/>
					<path class="st8" d="M218.479,225.514H37.521c-0.829,0-1.5,0.672-1.5,1.5s0.671,1.5,1.5,1.5h180.959c0.828,0,1.5-0.672,1.5-1.5
						S219.308,225.514,218.479,225.514z"/>
					<path class="st8" d="M9.32,217.541h79.527h78.305h79.527c0.828,0,1.5-0.672,1.5-1.5s-0.672-1.5-1.5-1.5h-39.232l13.671-9.921
						c6.511-4.726,11.399-11.563,13.766-19.251c0.314-1.021,0.571-2.055,0.796-3.095c0.041-0.025,0.084-0.046,0.123-0.076
						c3.867-2.966,6.086-7.453,6.086-12.311V42.995c0-8.552-6.957-15.509-15.509-15.509H29.619c-8.551,0-15.508,6.957-15.508,15.509
						v126.893c0,8.551,6.957,15.508,15.508,15.508h68.864v19.716h-9.635c-0.829,0-1.5,0.672-1.5,1.5v7.93H9.32
						c-0.829,0-1.5,0.672-1.5,1.5S8.491,217.541,9.32,217.541z M167.152,205.111h-9.635v-19.716h11.604
						c2.368,7.677,7.253,14.503,13.757,19.225l13.67,9.921h-27.897v-7.93C168.652,205.783,167.98,205.111,167.152,205.111z
						 M230.269,134.364c-11.799-2.816-21.44-8.522-25.145-10.928c-1.9-1.234-4.352-1.232-6.25,0
						c-3.878,2.518-14.25,8.659-26.801,11.31c-2.673,0.564-4.612,2.933-4.612,5.632v21.096H29.619c-2.144,0-3.888-1.744-3.888-3.888
						V42.995c0-2.145,1.744-3.889,3.888-3.889h196.762c2.144,0,3.888,1.744,3.888,3.889V134.364z M219.357,202.192l-16.739,12.147
						c-0.185,0.135-0.402,0.201-0.618,0.201h-0.003c-0.216-0.001-0.433-0.068-0.618-0.201l-16.738-12.147
						c-5.989-4.347-10.485-10.635-12.66-17.706c-1.008-3.274-1.52-6.675-1.52-10.104v-34.005c0-1.31,0.918-2.419,2.231-2.696
						c12.575-2.656,22.825-8.488,27.815-11.729c0.001,0,0.001,0,0.001,0c0.452-0.294,0.971-0.441,1.49-0.441
						c0.519,0,1.038,0.147,1.491,0.441c4.99,3.241,15.24,9.073,27.814,11.729c1.314,0.277,2.232,1.387,2.232,2.696v34.005
						c0,3.427-0.512,6.827-1.52,10.104C229.841,191.559,225.345,197.846,219.357,202.192z M17.11,169.888V42.995
						c0-6.897,5.611-12.509,12.508-12.509h196.762c6.897,0,12.509,5.611,12.509,12.509v126.893c0,2.732-0.888,5.308-2.474,7.436
						c0.077-0.977,0.121-1.958,0.121-2.942v-34.005c0-2.216-1.32-4.193-3.269-5.148V42.995c0-3.799-3.09-6.889-6.888-6.889H29.619
						c-3.798,0-6.888,3.09-6.888,6.889v114.59c0,3.798,3.09,6.888,6.888,6.888h137.842v9.909c0,2.702,0.301,5.385,0.879,8.014
						h-12.322H99.982H29.619C22.722,182.396,17.11,176.784,17.11,169.888z M101.482,185.396h53.035v19.716h-53.035V185.396z
						 M90.347,208.111h9.635h56.035h9.635v6.43H90.347V208.111z"/>
					<path class="st8" d="M146.124,55.831l-10.668-1.547l-4.773-9.672c-0.508-1.028-1.535-1.668-2.683-1.668
						s-2.175,0.64-2.683,1.668l-4.767,9.668l-10.674,1.551c-1.135,0.165-2.06,0.945-2.415,2.036s-0.065,2.267,0.757,3.067
						l7.721,7.521l-1.823,10.631c-0.194,1.131,0.262,2.252,1.19,2.927c0.927,0.674,2.134,0.762,3.151,0.229l9.539-5.02l9.548,5.02
						c0.441,0.231,0.919,0.347,1.395,0.347c0.617,0,1.231-0.194,1.756-0.575c0.928-0.675,1.384-1.796,1.19-2.927l-1.826-10.623
						l7.724-7.528c0.821-0.801,1.111-1.976,0.757-3.067C148.185,56.776,147.259,55.996,146.124,55.831z M137.965,66.314
						c-0.706,0.688-1.027,1.678-0.861,2.648l1.836,10.622l-9.547-5.02c-0.872-0.456-1.913-0.458-2.785,0l-9.535,5.028l1.823-10.631
						c0.166-0.972-0.155-1.962-0.861-2.648l-7.728-7.515l10.676-1.551c0.974-0.144,1.815-0.755,2.25-1.637l4.754-9.681l0.004,0.009
						l4.773,9.67c0.435,0.883,1.275,1.495,2.253,1.639l10.67,1.537L137.965,66.314z"/>
					<path class="st8" d="M220.767,153.067h-37.535c-0.828,0-1.5,0.672-1.5,1.5v37.764c0,0.828,0.672,1.5,1.5,1.5h37.535
						c0.828,0,1.5-0.672,1.5-1.5v-37.764C222.267,153.739,221.595,153.067,220.767,153.067z M219.267,190.831h-34.535v-34.764
						h34.535V190.831z"/>
					<path class="st8" d="M191.146,187.498h21.707c0.828,0,1.5-0.672,1.5-1.5v-17.292c0-5.303-4.314-9.617-9.617-9.617h-5.473
						c-5.303,0-9.617,4.314-9.617,9.617v17.292C189.646,186.826,190.317,187.498,191.146,187.498z M192.646,168.706
						c0-3.648,2.969-6.617,6.617-6.617h5.473c3.648,0,6.617,2.969,6.617,6.617v15.792h-18.707V168.706z"/>
					<path class="st8" d="M207.249,178.215l-1.188-4.903c0.487-0.753,0.75-1.631,0.75-2.543c0-2.581-2.101-4.682-4.683-4.682
						s-4.683,2.101-4.683,4.682c0,0.912,0.263,1.791,0.751,2.543l-1.188,4.904c-0.281,1.163-0.019,2.37,0.722,3.311
						s1.852,1.48,3.049,1.48h2.699c1.197,0,2.309-0.539,3.049-1.48C207.268,180.586,207.53,179.379,207.249,178.215
						C207.249,178.216,207.249,178.216,207.249,178.215z M204.17,179.672c-0.099,0.125-0.319,0.335-0.691,0.335h-2.699
						c-0.371,0-0.593-0.21-0.691-0.336c-0.099-0.125-0.25-0.389-0.163-0.749l1.358-5.605c0.12-0.496-0.02-1.019-0.372-1.388
						c-0.3-0.315-0.465-0.728-0.465-1.16c0-0.928,0.755-1.682,1.683-1.682s1.683,0.754,1.683,1.682c0,0.433-0.165,0.846-0.465,1.161
						c-0.352,0.369-0.491,0.892-0.371,1.387l1.357,5.605C204.421,179.282,204.269,179.546,204.17,179.672z"/>
				</g>
			</g>
		</g>
	</g>
</g>
</svg>
