<?xml version="1.0" encoding="utf-8"?>
<!-- Generator: Adobe Illustrator 23.0.3, SVG Export Plug-In . SVG Version: 6.00 Build 0)  -->
<svg version="1.1" id="Layer_1" xmlns="http://www.w3.org/2000/svg" xmlns:xlink="http://www.w3.org/1999/xlink" x="0px" y="0px"
	 viewBox="0 0 256 256" style="enable-background:new 0 0 256 256;" xml:space="preserve">
<style type="text/css">
	.st0{fill:#F87023;}
	.st1{fill:#F8AF23;}
	.st2{fill:#CECECE;}
	.st3{fill:#AFAFAF;}
	.st4{fill:#63BCE7;}
	.st5{fill:#63E2E7;}
	.st6{fill:#9E9E9E;}
	.st7{fill:#707070;}
	.st8{fill:#3F3679;}
	.st9{fill:#E2E2E2;}
	.st10{fill:#6377E7;}
	.st11{fill:#F46275;}
	.st12{fill:#F8D323;}
	.st13{fill:#F43075;}
	.st14{fill:#F48875;}
</style>
<g>
	<polygon class="st2" points="167.081,53.857 133.577,20.353 17.919,20.353 17.919,224.674 167.081,224.674 	"/>
	<g>
		<polygon class="st9" points="133.577,20.353 127.077,20.353 160.581,53.857 160.581,224.674 167.081,224.674 167.081,53.857 		"/>
	</g>
	<g>
		<rect x="17.919" y="20.353" class="st3" width="6.5" height="204.321"/>
	</g>
	<g>
		<g>
			<rect x="37.66" y="122.514" class="st1" width="16.126" height="16.126"/>
			<rect x="68.172" y="122.514" class="st1" width="79.168" height="16.126"/>
		</g>
		<g>
			<rect x="37.66" y="155.631" class="st1" width="16.126" height="16.126"/>
			<rect x="68.172" y="155.631" class="st1" width="79.168" height="16.126"/>
		</g>
		<g>
			<rect x="37.66" y="188.749" class="st1" width="16.126" height="16.126"/>
			<rect x="68.172" y="188.749" class="st1" width="79.168" height="16.126"/>
		</g>
	</g>
	<g>
		<circle class="st6" cx="92.5" cy="59.592" r="12.722"/>
		<path class="st4" d="M109.388,100.585H75.612V84.641c0-6.808,5.519-12.327,12.327-12.327h9.122
			c6.808,0,12.327,5.519,12.327,12.327V100.585z"/>
	</g>
	<circle class="st11" cx="172.919" cy="159.512" r="65.162"/>
	<g>
		<path class="st14" d="M172.919,94.349c-1.09,0-2.173,0.029-3.25,0.082c34.478,1.694,61.912,30.182,61.912,65.08
			s-27.434,63.386-61.912,65.08c1.077,0.053,2.16,0.082,3.25,0.082c35.988,0,65.162-29.174,65.162-65.162
			S208.907,94.349,172.919,94.349z"/>
	</g>
	<polygon class="st2" points="195.668,197.76 150.169,197.76 139.75,121.264 206.087,121.264 	"/>
	<g>
		<path class="st8" d="M27.323,234.147H9.32c-0.829,0-1.5,0.671-1.5,1.5s0.671,1.5,1.5,1.5h18.003c0.829,0,1.5-0.671,1.5-1.5
			S28.152,234.147,27.323,234.147z"/>
		<path class="st8" d="M246.68,234.147h-18.003c-0.829,0-1.5,0.671-1.5,1.5s0.671,1.5,1.5,1.5h18.003c0.829,0,1.5-0.671,1.5-1.5
			S247.509,234.147,246.68,234.147z"/>
		<path class="st8" d="M218.479,234.147H37.521c-0.829,0-1.5,0.671-1.5,1.5s0.671,1.5,1.5,1.5h180.959c0.829,0,1.5-0.671,1.5-1.5
			S219.308,234.147,218.479,234.147z"/>
		<path class="st8" d="M9.32,226.174h8.599h149.162h79.599c0.829,0,1.5-0.671,1.5-1.5s-0.671-1.5-1.5-1.5h-53.967
			c27.123-8.451,46.868-33.794,46.868-63.663c0-36.758-29.905-66.663-66.663-66.663c-1.459,0-2.902,0.064-4.337,0.156V53.857
			c0-0.398-0.158-0.779-0.439-1.061l-33.504-33.504c-0.281-0.281-0.663-0.439-1.061-0.439H17.919c-0.829,0-1.5,0.671-1.5,1.5
			v202.821H9.32c-0.829,0-1.5,0.671-1.5,1.5S8.491,226.174,9.32,226.174z M236.581,159.512c0,35.104-28.559,63.663-63.663,63.663
			s-63.662-28.559-63.662-63.663s28.559-63.663,63.662-63.663S236.581,124.408,236.581,159.512z M122.784,203.375H69.672v-13.126
			h44.123C116.268,194.986,119.292,199.388,122.784,203.375z M107.134,170.257H69.672v-13.125h36.644
			c-0.028,0.792-0.06,1.582-0.06,2.38C106.256,163.17,106.565,166.757,107.134,170.257z M110.13,137.139H69.672v-13.125h46.863
			C113.946,128.112,111.786,132.505,110.13,137.139z M135.077,23.974l28.383,28.383h-28.383V23.974z M19.419,21.853h112.658v32.004
			c0,0.829,0.671,1.5,1.5,1.5h32.004v37.905c-19.384,2.133-36.281,12.611-47.033,27.752H68.172c-0.829,0-1.5,0.671-1.5,1.5v16.125
			c0,0.829,0.671,1.5,1.5,1.5h40.964c-1.364,4.483-2.256,9.167-2.644,13.992h-38.32c-0.829,0-1.5,0.671-1.5,1.5v16.125
			c0,0.829,0.671,1.5,1.5,1.5h39.516c1.028,4.883,2.601,9.564,4.636,13.992H68.172c-0.829,0-1.5,0.671-1.5,1.5v16.126
			c0,0.829,0.671,1.5,1.5,1.5h57.39c7.589,7.668,17.015,13.513,27.561,16.799H19.419V21.853z"/>
		<path class="st8" d="M53.786,121.014H37.66c-0.829,0-1.5,0.671-1.5,1.5v16.125c0,0.829,0.671,1.5,1.5,1.5h16.126
			c0.829,0,1.5-0.671,1.5-1.5v-16.125C55.286,121.685,54.614,121.014,53.786,121.014z M52.286,137.139H39.16v-13.125h13.126V137.139
			z"/>
		<path class="st8" d="M53.786,154.131H37.66c-0.829,0-1.5,0.671-1.5,1.5v16.125c0,0.829,0.671,1.5,1.5,1.5h16.126
			c0.829,0,1.5-0.671,1.5-1.5v-16.125C55.286,154.803,54.614,154.131,53.786,154.131z M52.286,170.257H39.16v-13.125h13.126V170.257
			z"/>
		<path class="st8" d="M53.786,187.249H37.66c-0.829,0-1.5,0.671-1.5,1.5v16.126c0,0.829,0.671,1.5,1.5,1.5h16.126
			c0.829,0,1.5-0.671,1.5-1.5v-16.126C55.286,187.92,54.614,187.249,53.786,187.249z M52.286,203.375H39.16v-13.126h13.126V203.375z
			"/>
		<path class="st8" d="M75.612,102.085h33.775c0.829,0,1.5-0.671,1.5-1.5V84.641c0-6.407-4.387-11.795-10.311-13.356
			c3.708-2.569,6.145-6.849,6.145-11.692c0-7.842-6.38-14.222-14.222-14.222s-14.222,6.38-14.222,14.222
			c0,4.843,2.437,9.123,6.145,11.692c-5.924,1.561-10.311,6.949-10.311,13.356v15.944C74.112,101.414,74.784,102.085,75.612,102.085
			z M81.278,59.592c0-6.188,5.034-11.222,11.222-11.222c6.187,0,11.222,5.034,11.222,11.222c0,6.188-5.034,11.222-11.222,11.222
			C86.312,70.814,81.278,65.78,81.278,59.592z M77.112,84.641c0-5.97,4.857-10.827,10.827-10.827h9.122
			c5.97,0,10.827,4.857,10.827,10.827v14.444H77.112V84.641z"/>
		<path class="st8" d="M131.111,122.764h7.33l10.243,75.199c0.101,0.743,0.736,1.297,1.486,1.297h45.499
			c0.75,0,1.385-0.554,1.486-1.297l10.243-75.199h7.33c0.829,0,1.5-0.671,1.5-1.5s-0.671-1.5-1.5-1.5h-8.639h-22.933v-3.619
			c0-3.665-2.981-6.646-6.646-6.646h-7.18c-3.665,0-6.646,2.981-6.646,6.646v3.619H139.75h-8.639c-0.829,0-1.5,0.671-1.5,1.5
			S130.282,122.764,131.111,122.764z M165.682,116.145c0-2.011,1.636-3.646,3.646-3.646h7.18c2.01,0,3.646,1.636,3.646,3.646v3.619
			h-14.473V116.145z M164.182,122.764h17.473h22.714l-10.011,73.496h-42.879l-10.011-73.496H164.182z"/>
		<path class="st8" d="M158.099,182.809c0.829,0,1.5-0.671,1.5-1.5v-43.595c0-0.829-0.671-1.5-1.5-1.5s-1.5,0.671-1.5,1.5v43.595
			C156.599,182.138,157.27,182.809,158.099,182.809z"/>
		<path class="st8" d="M172.918,182.809c0.829,0,1.5-0.671,1.5-1.5v-43.595c0-0.829-0.671-1.5-1.5-1.5s-1.5,0.671-1.5,1.5v43.595
			C171.418,182.138,172.09,182.809,172.918,182.809z"/>
		<path class="st8" d="M187.739,182.809c0.829,0,1.5-0.671,1.5-1.5v-43.595c0-0.829-0.671-1.5-1.5-1.5s-1.5,0.671-1.5,1.5v43.595
			C186.239,182.138,186.91,182.809,187.739,182.809z"/>
	</g>
</g>
</svg>
