<?xml version="1.0" encoding="utf-8"?>
<!-- Generator: Adobe Illustrator 18.0.0, SVG Export Plug-In . SVG Version: 6.00 Build 0)  -->
<!DOCTYPE svg PUBLIC "-//W3C//DTD SVG 1.1//EN" "http://www.w3.org/Graphics/SVG/1.1/DTD/svg11.dtd">
<svg version="1.1" id="Layer_1" xmlns="http://www.w3.org/2000/svg" xmlns:xlink="http://www.w3.org/1999/xlink" x="0px" y="0px"
	 viewBox="0 0 512 512" style="enable-background:new 0 0 512 512;" xml:space="preserve">
<style type="text/css">
	.st0{fill:#FFD452;}
	.st1{fill:#F58E6F;}
	.st2{fill:#4A555F;}
	.st3{fill:none;}
	.st4{fill:#DFDFDF;}
	.st5{fill:#71CCE0;}
	.st6{fill:#FFFFFF;}
</style>
<g>
	<g>
		<g>
			<g>
				<path class="st2" d="M507.83,257.184c0-14.557-6.376-28.002-17.576-37.24c0.899-4.995,1.353-10.051,1.353-15.06
					c0-36.141-22.43-67.847-56.167-79.956c1.317-5.999,1.984-12.136,1.984-18.292c0-46.85-38.115-84.966-84.966-84.966
					c-0.329,0-0.658,0.004-0.987,0.01c-8.215-13.43-22.826-21.68-38.667-21.68c-24.984,0-45.31,20.326-45.31,45.311v421.377
					c0,24.985,20.326,45.311,45.31,45.311c14.878,0,28.586-7.192,37.088-19.345c0.852,0.028,1.707,0.042,2.566,0.042
					c46.85,0,84.966-38.115,84.966-84.966c0-6.156-0.667-12.295-1.984-18.293c33.737-12.109,56.167-43.816,56.167-79.955
					c0-5.009-0.454-10.064-1.353-15.059C501.454,285.185,507.83,271.741,507.83,257.184z M483.988,289.963l-1.875,1.407l0.476,2.296
					c1.086,5.233,1.636,10.555,1.636,15.817c0,34.056-21.81,63.801-54.273,74.015l-3.355,1.056l0.894,3.402
					c1.693,6.444,2.551,13.097,2.551,19.775c0,42.78-34.804,77.584-77.584,77.584c-1.438,0-2.865-0.046-4.283-0.123l-2.164-0.118
					l-1.157,1.831c-7.015,11.091-18.996,17.713-32.051,17.713c-20.914,0-37.929-17.015-37.929-37.93V45.312
					c0-20.914,17.015-37.929,37.929-37.929c13.905,0,26.678,7.595,33.335,19.822l1.136,2.008l2.286-0.086
					c0.964-0.036,1.926-0.073,2.896-0.073c42.78,0,77.584,34.804,77.584,77.584c0,6.677-0.858,13.329-2.551,19.774l-0.894,3.402
					l3.355,1.056c32.463,10.214,54.273,39.958,54.273,74.015c0,5.262-0.55,10.584-1.636,15.818l-0.476,2.296l1.875,1.407
					c10.461,7.843,16.46,19.791,16.46,32.78C500.448,270.173,494.449,282.121,483.988,289.963z"/>
			</g>
		</g>
	</g>
	<g>
		<g>
			<path class="st4" d="M478.822,231.294l-6.253-4.689l1.587-7.653c0.966-4.655,1.456-9.389,1.456-14.068
				c0-30.279-19.388-56.722-48.244-65.802l-11.185-3.519l2.978-11.341c1.505-5.731,2.268-11.647,2.268-17.586
				c0-38.031-30.94-68.973-68.973-68.973c-0.848,0-1.689,0.034-2.619,0.069l-7.618,0.284l-3.645-6.694
				c-5.149-9.455-15.024-15.328-25.772-15.328c-16.166,0-29.317,13.152-29.317,29.318v421.377c0,16.166,13.151,29.318,29.317,29.318
				c10.085,0,19.345-5.123,24.773-13.705l3.859-6.101l7.208,0.393c1.263,0.069,2.534,0.11,3.814,0.11
				c38.032,0,68.973-30.941,68.973-68.973c0-5.94-0.763-11.857-2.268-17.587l-2.98-11.341l11.186-3.52
				c28.856-9.079,48.244-35.523,48.244-65.8c0-4.68-0.49-9.413-1.455-14.068l-1.588-7.653l6.253-4.689
				c8.272-6.201,13.015-15.637,13.015-25.889C491.837,246.932,487.094,237.495,478.822,231.294z"/>
		</g>
	</g>
	<g>
		<g>
			<g>
				<path class="st2" d="M199.197,0c-14.878,0-28.586,7.191-37.087,19.345c-0.853-0.028-1.708-0.042-2.567-0.042
					c-46.85,0-84.966,38.115-84.966,84.965c0,6.157,0.667,12.296,1.985,18.293c-33.737,12.109-56.167,43.815-56.167,79.955
					c0,5.012,0.454,10.068,1.352,15.059c-11.2,9.239-17.576,22.684-17.576,37.241c0,14.558,6.376,28.002,17.576,37.24
					c-0.897,4.992-1.352,10.048-1.352,15.059c0,36.141,22.43,67.848,56.167,79.957c-1.318,5.997-1.985,12.135-1.985,18.291
					c0,46.85,38.115,84.966,84.966,84.966c0.329,0,0.657-0.003,0.988-0.01c8.216,13.43,22.827,21.68,38.667,21.68
					c24.985,0,45.311-20.326,45.311-45.311V45.311C244.509,20.326,224.182,0,199.197,0z M237.127,466.688
					c0,20.914-17.015,37.93-37.93,37.93c-13.904,0-26.677-7.595-33.335-19.822l-1.218-2.003l-2.285,0.085
					c-0.935,0.035-1.872,0.07-2.816,0.07c-42.78,0-77.584-34.805-77.584-77.585c0-6.678,0.859-13.331,2.552-19.773l0.895-3.403
					l-3.357-1.056c-32.463-10.214-54.273-39.959-54.273-74.017c0-5.266,0.55-10.587,1.635-15.817l0.476-2.296l-1.875-1.407
					c-10.461-7.842-16.46-19.79-16.46-32.779c0-12.989,6-24.937,16.46-32.78l1.875-1.407l-0.476-2.296
					c-1.085-5.228-1.635-10.55-1.635-15.817c0-34.057,21.81-63.801,54.273-74.014l3.357-1.056l-0.895-3.403
					c-1.693-6.442-2.552-13.095-2.552-19.774c0-42.78,34.804-77.584,77.584-77.584c1.438,0,2.865,0.045,4.285,0.123l2.162,0.118
					l1.158-1.83c7.013-11.092,18.993-17.713,32.048-17.713c20.915,0,37.93,17.015,37.93,37.929V466.688z"/>
			</g>
		</g>
	</g>
	<g>
		<g>
			<path class="st1" d="M199.197,15.993c-10.085,0-19.345,5.123-24.77,13.703l-3.858,6.101l-7.207-0.391
				c-1.265-0.069-2.537-0.11-3.819-0.11h-0.001c-18.422,0-35.744,7.175-48.77,20.201c-13.027,13.027-20.201,30.348-20.201,48.771
				c0,5.94,0.763,11.857,2.269,17.585l2.981,11.343l-11.187,3.52c-28.857,9.079-48.245,35.522-48.245,65.8
				c0,4.681,0.49,9.413,1.455,14.068l1.588,7.653l-6.253,4.689c-8.271,6.201-13.015,15.637-13.015,25.89
				c0,10.253,4.743,19.689,13.013,25.889l6.254,4.688l-1.587,7.653c-0.966,4.656-1.456,9.389-1.456,14.068
				c0,30.279,19.388,56.722,48.245,65.802l11.187,3.52l-2.981,11.342c-1.507,5.728-2.269,11.644-2.269,17.584
				c0,38.032,30.941,68.973,68.973,68.973c0.836,0,1.666-0.033,2.623-0.069l7.616-0.282l3.644,6.692
				c5.149,9.455,15.024,15.329,25.772,15.329c16.166,0,29.319-13.152,29.319-29.318V45.311
				C228.516,29.145,215.363,15.993,199.197,15.993z"/>
		</g>
	</g>
	<g>
		<g>
			<path class="st2" d="M102.9,118.031c-0.002,0-0.001,0-0.004,0c-43.199,0-79.388,35.118-82.38,79.947l7.365,0.491
				c2.736-40.968,35.687-73.059,75.019-73.057c40.15,0.002,72.816,32.669,72.816,72.818h7.381
				C183.097,154.01,147.121,118.033,102.9,118.031z"/>
		</g>
	</g>
	<g>
		<g>
			<path class="st2" d="M204.284,105.969c0,23.332-18.982,42.315-42.314,42.315v7.381c27.402,0,49.695-22.294,49.695-49.696H204.284
				z"/>
		</g>
	</g>
	<g>
		<g>
			<path class="st2" d="M118.192,257.693c-9.909-9.91-15.366-23.085-15.366-37.099h-7.381c-0.001,15.986,6.224,31.014,17.528,42.318
				c11.303,11.303,26.332,17.528,42.318,17.528v-7.381C141.277,273.06,128.102,267.603,118.192,257.693z"/>
		</g>
	</g>
	<g>
		<g>
			<path class="st2" d="M137.691,393.023v7.381c24.917,0,45.189,20.272,45.189,45.189h7.381
				C190.261,416.606,166.678,393.023,137.691,393.023z"/>
		</g>
	</g>
	<g>
		<g>
			<path class="st2" d="M53.962,295.879c-0.26,0.008-0.518,0.025-0.776,0.043c-0.201,0.014-0.4,0.031-0.604,0.031
				c-22.623,0-41.03-18.406-41.03-41.03H4.17c0,26.694,21.717,48.411,48.411,48.411c0.376,0,0.746-0.023,1.116-0.049l0.495-0.029
				L53.962,295.879z"/>
		</g>
	</g>
	<g>
		<g>
			<path class="st2" d="M183.97,473.139c-6.325,6.325-14.735,9.808-23.679,9.808v7.381c10.916,0,21.179-4.251,28.898-11.971
				L183.97,473.139z"/>
		</g>
	</g>
	<g>
		<g>
			<path class="st2" d="M154.946,323.856c-44.443,0-79.74,35.188-80.357,80.108l7.381,0.101
				c0.56-40.838,32.615-72.828,72.976-72.828c18.918,0,36.842,7.224,50.469,20.341l5.119-5.317
				C195.526,331.813,175.783,323.856,154.946,323.856z"/>
		</g>
	</g>
	<g>
		<g>
			<polygon class="st2" points="316.493,193.796 316.493,3.692 309.112,3.692 309.112,201.177 349.976,201.177 349.976,311.805 
				357.357,311.805 357.357,193.796 			"/>
		</g>
	</g>
	<g>
		<g>
			<rect x="385.364" y="34.074" class="st2" width="7.381" height="119.148"/>
		</g>
	</g>
	<g>
		<g>
			<rect x="309.112" y="252.617" class="st2" width="7.381" height="255.692"/>
		</g>
	</g>
	<g>
		<g>
			<polygon class="st2" points="385.364,222.091 385.364,362.227 348.766,362.227 348.766,489.007 356.147,489.007 356.147,369.608 
				392.745,369.608 392.745,222.091 			"/>
		</g>
	</g>
	<g>
		<g>
			<rect x="385.364" y="409.878" class="st2" width="7.381" height="71.315"/>
		</g>
	</g>
	<g>
		<g>
			<g>
				<path class="st2" d="M389.071,382.552c-8.55,0-15.507,6.957-15.507,15.508c0,8.551,6.957,15.509,15.507,15.509
					c8.552,0,15.509-6.957,15.509-15.509C404.58,389.509,397.623,382.552,389.071,382.552z M389.071,406.187
					c-4.481,0-8.126-3.646-8.126-8.128c0-4.481,3.645-8.127,8.126-8.127s8.127,3.646,8.127,8.127
					C397.199,402.541,393.553,406.187,389.071,406.187z"/>
			</g>
		</g>
	</g>
	<g>
		<g>
			<g>
				<path class="st2" d="M353.667,308.115c-8.551,0-15.509,6.957-15.509,15.508s6.957,15.508,15.509,15.508
					c8.55,0,15.508-6.957,15.508-15.508S362.217,308.115,353.667,308.115z M353.667,331.75c-4.481,0-8.127-3.646-8.127-8.127
					s3.646-8.127,8.127-8.127c4.481,0,8.126,3.646,8.126,8.127S358.148,331.75,353.667,331.75z"/>
			</g>
		</g>
	</g>
	<g>
		<g>
			<g>
				<path class="st2" d="M389.071,149.531c-8.55,0-15.507,6.957-15.507,15.509c0,8.551,6.957,15.508,15.507,15.508
					c8.552,0,15.509-6.957,15.509-15.508C404.58,156.488,397.623,149.531,389.071,149.531z M389.071,173.166
					c-4.481,0-8.126-3.646-8.126-8.127c0-4.481,3.645-8.128,8.126-8.128s8.127,3.646,8.127,8.128
					C397.199,169.521,393.553,173.166,389.071,173.166z"/>
			</g>
		</g>
	</g>
	<g>
		<g>
			<g>
				<path class="st2" d="M349.379,115.7c-8.552,0-15.509,6.957-15.509,15.509c0,8.551,6.957,15.508,15.509,15.508
					c8.551,0,15.509-6.957,15.509-15.508C364.888,122.657,357.93,115.7,349.379,115.7z M349.379,139.335
					c-4.481,0-8.128-3.646-8.128-8.127c0-4.481,3.646-8.128,8.128-8.128c4.481,0,8.127,3.646,8.127,8.128
					C357.506,135.69,353.86,139.335,349.379,139.335z"/>
			</g>
		</g>
	</g>
	<g>
		<g>
			<g>
				<path class="st2" d="M389.071,194.765c-8.55,0-15.507,6.957-15.507,15.509c0,8.551,6.957,15.508,15.507,15.508
					c8.552,0,15.509-6.957,15.509-15.508C404.58,201.722,397.623,194.765,389.071,194.765z M389.071,218.401
					c-4.481,0-8.126-3.646-8.126-8.127s3.645-8.127,8.126-8.127s8.127,3.646,8.127,8.127S393.553,218.401,389.071,218.401z"/>
			</g>
		</g>
	</g>
	<g>
		<g>
			<g>
				<path class="st2" d="M424.69,233.165c-8.552,0-15.509,6.957-15.509,15.508s6.957,15.509,15.509,15.509
					c8.55,0,15.507-6.957,15.507-15.509S433.24,233.165,424.69,233.165z M424.69,256.8c-4.481,0-8.128-3.646-8.128-8.127
					s3.646-8.127,8.128-8.127c4.481,0,8.126,3.646,8.126,8.127S429.171,256.8,424.69,256.8z"/>
			</g>
		</g>
	</g>
	<g>
		<g>
			<g>
				<path class="st2" d="M458.167,280.202c-8.552,0-15.509,6.957-15.509,15.508c0,8.551,6.957,15.508,15.509,15.508
					c8.551,0,15.509-6.957,15.509-15.508C473.675,287.158,466.718,280.202,458.167,280.202z M458.167,303.836
					c-4.481,0-8.127-3.646-8.127-8.127c0-4.481,3.646-8.127,8.127-8.127s8.127,3.646,8.127,8.127
					C466.294,300.191,462.648,303.836,458.167,303.836z"/>
			</g>
		</g>
	</g>
	<g>
		<g>
			<g>
				<path class="st2" d="M312.803,225.292c-8.551,0-15.509,6.957-15.509,15.508c0,8.552,6.957,15.508,15.509,15.508
					c8.552,0,15.509-6.957,15.509-15.508C328.311,232.248,321.354,225.292,312.803,225.292z M312.803,248.926
					c-4.481,0-8.127-3.646-8.127-8.127s3.646-8.127,8.127-8.127c4.481,0,8.128,3.646,8.128,8.127S317.284,248.926,312.803,248.926z"
					/>
			</g>
		</g>
	</g>
	<g>
		<g>
			<rect x="345.688" y="25.439" class="st2" width="7.381" height="93.951"/>
		</g>
	</g>
	<g>
		<g>
			<polygon class="st2" points="434.75,178.611 434.75,127.348 427.369,127.348 427.369,185.992 454.476,185.992 454.476,283.892 
				461.857,283.892 461.857,178.611 			"/>
		</g>
	</g>
	<g>
		<g>
			<polygon class="st2" points="428.381,335.212 428.381,261.167 421,261.167 421,342.593 482.419,342.593 482.419,335.212 			"/>
		</g>
	</g>
</g>
</svg>
