<?xml version="1.0" encoding="utf-8"?>
<!-- Generator: Adobe Illustrator 18.0.0, SVG Export Plug-In . SVG Version: 6.00 Build 0)  -->
<!DOCTYPE svg PUBLIC "-//W3C//DTD SVG 1.1//EN" "http://www.w3.org/Graphics/SVG/1.1/DTD/svg11.dtd">
<svg version="1.1" id="Layer_1" xmlns="http://www.w3.org/2000/svg" xmlns:xlink="http://www.w3.org/1999/xlink" x="0px" y="0px"
	 viewBox="0 0 512 512" style="enable-background:new 0 0 512 512;" xml:space="preserve">
<style type="text/css">
	.st0{fill:#FFD452;}
	.st1{fill:#F58E6F;}
	.st2{fill:#4A555F;}
	.st3{fill:none;}
	.st4{fill:#DFDFDF;}
	.st5{fill:#71CCE0;}
	.st6{fill:#FFFFFF;}
</style>
<g>
	<g>
		<g>
			<path class="st2" d="M259.371,0.376c-81.894,0-148.518,66.626-148.518,148.52v57.87L52.684,316.071h58.169v107.706h107.986
				v87.841h7.717V416.06H118.57V308.354H65.533l53.037-99.663v-59.795c0-77.639,63.163-140.802,140.801-140.802
				c77.638,0,140.802,63.163,140.802,140.802v362.723h7.717V148.895C407.89,67.002,341.264,0.376,259.371,0.376z"/>
		</g>
	</g>
	<g>
		<g>
			<g>
				<path class="st4" d="M259.381,17.098c-72.672,0-131.812,59.115-131.812,131.786v62.047l-1.492,2.83l-45.558,85.585h47.05
					v107.708H235.56v104.57h155.607v-362.74C391.167,76.213,332.052,17.098,259.381,17.098z M374.241,197.761
					c-0.952,3.01-2.109,5.917-3.524,8.901l-3.961,8.335l-10.29-1.235c-3.293-0.385-7.409-0.9-11.062-0.9
					c-0.695,0-1.286,0.026-1.801,0.052c-0.103,2.83,0.283,7.434,1.209,13.788l1.363,9.132l-8.232,4.424
					c-2.649,1.338-5.479,2.547-8.412,3.575l-8.926,3.113l-5.634-7.589c-4.528-6.122-7.409-9.286-9.209-10.881
					c-1.801,1.595-4.682,4.759-9.209,10.881l-5.634,7.589l-8.926-3.113c-2.933-1.029-5.762-2.238-8.412-3.575l-8.206-4.167
					l1.363-9.621c0.36-2.598,1.338-9.415,1.158-13.556c-0.515-0.026-1.106-0.052-1.827-0.052c-3.627,0-7.743,0.515-11.062,0.9
					l-10.212,1.235l-3.987-8.335c-1.415-2.984-2.573-5.891-3.524-8.901l-2.649-8.412l6.92-5.505l1.749-1.363
					c1.904-1.492,6.2-4.863,8.695-7.461c-2.238-2.366-5.891-5.402-7.717-6.92c-0.9-0.72-1.723-1.415-2.444-2.032l-6.688-5.736
					l1.801-5.119l-3.73,1.981c-2.058,1.055-4.244,1.981-6.508,2.778l-8.926,3.113l-5.634-7.589
					c-1.543-2.084-2.778-3.627-3.756-4.785c-0.978,1.157-2.187,2.701-3.73,4.785l-5.634,7.589l-8.927-3.113
					c-2.264-0.798-4.45-1.724-6.508-2.778l-8.206-4.167l1.338-9.467c0.154-1.08,0.489-3.396,0.695-5.582
					c-1.749,0.103-3.55,0.334-5.119,0.515l-9.93,1.209l-3.987-8.334c-1.106-2.315-1.981-4.553-2.701-6.868l-2.65-8.438l8.18-6.508
					c0.746-0.592,1.981-1.543,3.19-2.573c-0.978-0.849-1.929-1.646-2.573-2.161c-0.643-0.541-1.26-1.055-1.801-1.518l-6.688-5.71
					l2.933-8.309c0.823-2.393,1.904-4.836,3.19-7.229l3.91-7.434l8.386,0.617c0.875,0.051,1.852,0.154,2.933,0.257
					c0.772,0.077,1.595,0.154,2.418,0.232c-0.051-0.772-0.103-1.467-0.154-2.007c-0.103-1.26-0.18-2.392-0.231-3.37l-0.412-8.438
					l7.563-3.73c2.392-1.183,4.939-2.212,7.537-3.061l7.923-2.624l5.608,6.174c0.695,0.772,1.518,1.698,2.367,2.727
					c0.309,0.36,0.669,0.798,1.08,1.286c0.412-0.488,0.772-0.926,1.055-1.26c0.875-1.029,1.698-1.981,2.392-2.753l5.608-6.174
					l7.923,2.624c2.598,0.849,5.145,1.877,7.537,3.061l7.563,3.73l-0.412,8.438c-0.051,0.978-0.129,2.109-0.231,3.344
					c-0.052,0.54-0.103,1.26-0.154,2.032c0.772-0.077,1.543-0.155,2.289-0.232c1.158-0.103,2.238-0.206,3.164-0.257l8.334-0.566
					l3.885,7.383c1.286,2.392,2.341,4.811,3.19,7.229l2.933,8.309l-6.688,5.71c-0.54,0.463-1.158,0.977-1.801,1.518
					c-0.643,0.515-1.595,1.312-2.573,2.161c1.209,1.029,2.444,1.981,3.19,2.573l8.18,6.508l10.135-4.399
					c3.138-1.544,6.431-2.881,9.827-3.987l7.897-2.624l5.608,6.174c0.952,1.029,2.032,2.29,3.19,3.653
					c1.26,1.518,3.447,4.116,5.299,5.994c1.878-1.878,4.039-4.45,5.299-5.968c1.183-1.389,2.238-2.65,3.19-3.679l5.608-6.174
					l7.923,2.624c3.37,1.106,6.688,2.443,9.801,3.987l7.589,3.756l-0.412,8.412c-0.077,1.312-0.206,2.83-0.334,4.502
					c-0.155,2.084-0.463,5.685-0.438,8.463h0.283c2.676,0,5.84-0.309,8.618-0.566c1.544-0.155,2.984-0.283,4.219-0.386l8.334-0.566
					l3.91,7.383c1.646,3.112,3.036,6.277,4.116,9.364l2.933,8.309l-6.688,5.736c-0.72,0.617-1.569,1.312-2.444,2.032
					c-1.827,1.518-5.479,4.553-7.717,6.92c2.495,2.598,6.791,5.968,8.695,7.461l1.749,1.363l6.894,5.505L374.241,197.761z"/>
			</g>
		</g>
	</g>
	<g>
		<g>
			<g>
				<path class="st5" d="M236.928,107.01c0-4.527,7.717-10.264,11.473-13.479c-0.669-1.904-1.492-3.731-2.418-5.48
					c-4.914,0.335-14.277,1.929-17.416-1.235c-3.061-3.035-1.595-12.348-1.363-17.106c-1.878-0.927-3.833-1.724-5.865-2.392
					c-3.19,3.498-8.618,11.164-12.94,11.164c-4.322,0-9.775-7.666-12.965-11.164c-2.032,0.668-3.987,1.466-5.865,2.392
					c0.231,4.759,1.724,14.071-1.337,17.132c-3.138,3.138-12.528,1.57-17.415,1.209c-0.927,1.749-1.75,3.576-2.418,5.48
					c3.756,3.216,11.499,8.952,11.499,13.479c0,4.656-7.923,10.392-11.962,13.608c0.566,1.801,1.26,3.525,2.058,5.196
					c5.145-0.616,14.92-1.981,18.239,1.364c3.421,3.421,1.929,13.274,1.183,18.548c1.569,0.797,3.216,1.491,4.913,2.083
					c3.189-4.296,9.235-12.296,14.071-12.296c4.863,0,10.881,8,14.072,12.296c1.698-0.592,3.344-1.286,4.914-2.083
					c-0.772-5.274-2.239-15.126,1.183-18.548c3.319-3.344,13.068-1.98,18.239-1.364c0.797-1.672,1.492-3.395,2.058-5.196
					C244.825,117.402,236.928,111.666,236.928,107.01z M208.399,119.872c-7.151,0-12.965-5.814-12.965-12.965
					c0-7.177,5.814-12.965,12.965-12.965c7.177,0,12.965,5.788,12.965,12.965C221.365,114.059,215.577,119.872,208.399,119.872z"/>
			</g>
		</g>
	</g>
	<g>
		<g>
			<g>
				<path class="st2" d="M250.053,116.646c-2.295-1.799-9.275-7.275-9.275-9.647c0-2.106,6.357-7.377,8.447-9.11
					c0.615-0.51,1.189-0.986,1.693-1.417l2.006-1.718l-0.875-2.492c-0.696-1.981-1.586-4.002-2.648-6.007l-1.173-2.213l-2.498,0.17
					c-0.852,0.058-1.832,0.152-2.889,0.253c-2.125,0.205-4.533,0.436-6.731,0.436c-3.969,0-4.807-0.784-4.821-0.798
					c-1.239-1.367-0.66-8.465-0.441-11.138c0.092-1.128,0.176-2.169,0.219-3.059l0.123-2.527l-2.268-1.12
					c-2.022-0.997-4.164-1.872-6.367-2.598l-2.374-0.782l-1.684,1.848c-0.639,0.701-1.365,1.56-2.152,2.493
					c-1.682,1.997-6.152,7.3-7.931,7.408c-1.796-0.091-6.284-5.414-7.974-7.417c-0.785-0.929-1.508-1.786-2.146-2.484l-1.684-1.846
					l-2.374,0.781c-2.201,0.725-4.342,1.599-6.366,2.598l-2.269,1.12l0.123,2.527c0.043,0.891,0.127,1.934,0.22,3.066
					c0.219,2.679,0.802,9.799-0.435,11.149c-0.009,0.007-0.855,0.791-4.831,0.791c-2.251,0-4.705-0.241-6.871-0.455
					c-0.987-0.097-1.901-0.187-2.699-0.246l-2.513-0.185l-1.181,2.227c-1.061,2.005-1.952,4.026-2.648,6.007l-0.875,2.492
					l2.006,1.718c0.505,0.431,1.078,0.907,1.696,1.418c2.089,1.732,8.446,7.004,8.446,9.109c0,2.372-6.98,7.847-9.273,9.646
					l-3.296,2.615l0.792,2.525c0.6,1.911,1.338,3.776,2.256,5.701l1.192,2.501l3.518-0.423c2.392-0.292,5.665-0.691,8.612-0.691
					c4.514,0,5.564,0.919,5.67,1.025c1.315,1.316,1.364,6.339,0.146,14.931l-0.438,3.096l2.458,1.25
					c1.696,0.863,3.509,1.633,5.391,2.289l2.677,0.933l1.69-2.276c6.947-9.355,9.858-10.752,10.975-10.752
					c1.116,0,4.027,1.397,10.974,10.752l1.691,2.276l2.677-0.933c1.882-0.656,3.696-1.426,5.391-2.289l2.446-1.428l-0.401-2.742
					c-1.271-8.686-1.239-13.769,0.1-15.106c0.104-0.106,1.154-1.025,5.67-1.025c2.939,0,6.215,0.398,8.607,0.688l3.546,0.425
					l1.191-2.502c0.916-1.925,1.653-3.787,2.253-5.697l0.795-2.526L250.053,116.646z M236.956,121.155
					c-5.351,0-8.888,1.044-11.127,3.286c-3.695,3.694-3.673,10.463-2.81,17.723c-4.385-5.541-9.326-10.513-14.61-10.513
					c-5.29,0-10.235,4.981-14.622,10.53c0.84-7.196,0.887-14.033-2.819-17.74c-2.241-2.242-5.778-3.286-11.128-3.286
					c-2.354,0-4.768,0.205-6.889,0.436c5.848-4.675,10.806-9.354,10.806-14.592c0-5.155-4.814-9.696-10.736-14.632
					c0.033-0.074,0.065-0.147,0.099-0.221c2.214,0.217,4.956,0.485,7.559,0.485c4.936,0,8.205-0.969,10.297-3.061
					c3.759-3.786,3.149-11.238,2.66-17.226c-0.006-0.075-0.013-0.149-0.019-0.223c0.214-0.088,0.428-0.176,0.644-0.261
					c0.092,0.108,0.183,0.217,0.278,0.328c3.817,4.525,8.568,10.159,13.869,10.159c5.28,0,10.024-5.628,13.837-10.152
					c0.095-0.113,0.189-0.225,0.282-0.335c0.217,0.085,0.432,0.173,0.646,0.263c-0.005,0.072-0.011,0.144-0.018,0.216
					c-0.489,5.993-1.098,13.45,2.663,17.211c2.735,2.752,7.182,3.07,10.291,3.07c2.569,0,5.173-0.25,7.47-0.471
					c0.038-0.003,0.075-0.007,0.113-0.011c0.035,0.076,0.069,0.154,0.103,0.231c-5.92,4.935-10.734,9.477-10.734,14.632
					c0,5.238,4.958,9.917,10.806,14.593C241.739,121.361,239.315,121.155,236.956,121.155z"/>
			</g>
		</g>
	</g>
	<g>
		<g>
			<g>
				<path class="st5" d="M345.373,175.001c0-6.288,10.718-14.255,15.935-18.721c-0.929-2.644-2.072-5.181-3.358-7.611
					c-6.824,0.465-19.829,2.68-24.188-1.715c-4.251-4.216-2.215-17.15-1.894-23.759c-2.608-1.287-5.323-2.395-8.146-3.323
					c-4.43,4.859-11.969,15.506-17.972,15.506c-6.002,0-13.576-10.647-18.007-15.506c-2.823,0.928-5.538,2.036-8.146,3.323
					c0.322,6.609,2.394,19.543-1.858,23.795c-4.359,4.359-17.4,2.18-24.188,1.679c-1.287,2.429-2.43,4.967-3.359,7.611
					c5.217,4.466,15.971,12.433,15.971,18.721c0,6.466-11.004,14.434-16.614,18.9c0.786,2.501,1.751,4.895,2.859,7.217
					c7.146-0.857,20.722-2.751,25.332,1.894c4.751,4.752,2.68,18.437,1.644,25.761c2.179,1.107,4.466,2.072,6.824,2.894
					c4.43-5.967,12.827-17.079,19.543-17.079c6.753,0,15.113,11.112,19.544,17.079c2.358-0.822,4.645-1.787,6.824-2.894
					c-1.072-7.324-3.109-21.009,1.644-25.761c4.609-4.645,18.15-2.75,25.331-1.894c1.107-2.322,2.072-4.716,2.858-7.217
					C356.341,189.435,345.373,181.467,345.373,175.001z M305.749,192.865c-9.932,0-18.007-8.074-18.007-18.007
					c0-9.968,8.075-18.007,18.007-18.007c9.969,0,18.007,8.039,18.007,18.007C323.756,184.791,315.718,192.865,305.749,192.865z"/>
			</g>
		</g>
	</g>
	<g>
		<g>
			<g>
				<path class="st2" d="M362.67,189.561c-4.026-3.158-13.451-10.552-13.451-14.575c0-3.628,8.286-10.5,12.27-13.802
					c0.851-0.707,1.644-1.364,2.34-1.961l2.006-1.717l-0.874-2.492c-0.94-2.675-2.147-5.414-3.589-8.137l-1.172-2.214l-2.501,0.17
					c-1.169,0.08-2.516,0.208-3.969,0.349c-2.986,0.288-6.371,0.613-9.496,0.613c-5.614,0-7.289-1.078-7.76-1.551
					c-2.221-2.221-1.425-11.967-1.043-16.65c0.127-1.549,0.242-2.976,0.302-4.197l0.123-2.527l-2.268-1.121
					c-2.749-1.356-5.657-2.543-8.647-3.528l-2.374-0.781l-1.684,1.846c-0.877,0.961-1.87,2.139-2.949,3.419
					c-2.96,3.513-9.123,10.823-12.171,10.823c-3.079,0-9.254-7.322-12.22-10.841c-1.073-1.272-2.063-2.444-2.935-3.402l-1.685-1.846
					l-2.374,0.781c-2.99,0.985-5.898,2.172-8.647,3.528l-2.269,1.121l0.123,2.527c0.059,1.222,0.176,2.654,0.303,4.205
					c0.383,4.685,1.181,14.436-1.04,16.672c-0.462,0.462-2.144,1.539-7.765,1.539c-3.2,0-6.651-0.34-9.695-0.639
					c-1.356-0.134-2.614-0.258-3.712-0.339l-2.514-0.186l-1.18,2.229c-1.441,2.721-2.648,5.458-3.588,8.135l-0.877,2.492
					l2.007,1.719c0.696,0.596,1.487,1.252,2.337,1.958c3.984,3.303,12.273,10.176,12.273,13.804c0,4.024-9.428,11.419-13.455,14.578
					l-3.763,2.983l0.792,2.525c0.81,2.581,1.81,5.106,3.056,7.72l1.192,2.502l3.814-0.459c3.358-0.408,7.957-0.969,12.139-0.969
					c6.387,0,8.379,1.302,8.939,1.864c3.283,3.282,1.353,16.884,0.627,22.005l-0.459,3.242l2.458,1.249
					c2.296,1.168,4.753,2.21,7.303,3.099l2.678,0.933l1.689-2.277c2.854-3.843,11.538-15.538,16.446-15.538
					s13.592,11.695,16.446,15.538l1.689,2.276l2.677-0.932c2.547-0.887,5.005-1.929,7.304-3.099l2.436-1.496l-0.401-2.742
					c-0.759-5.176-2.771-18.927,0.563-22.259c0.559-0.56,2.551-1.863,8.939-1.863c4.172,0,8.774,0.558,12.134,0.966l3.849,0.461
					l1.191-2.501c1.242-2.606,2.241-5.13,3.055-7.717l0.795-2.526L362.67,189.561z M356.744,196.962
					c-3.318-0.392-7.407-0.814-11.33-0.814c-6.913,0-11.624,1.349-14.397,4.122c-5.136,5.136-4.515,15.83-3.107,26.243
					c-0.417,0.183-0.838,0.362-1.262,0.535c-6.689-8.749-13.787-16.324-20.887-16.324c-7.101,0-14.198,7.575-20.887,16.324
					c-0.427-0.175-0.85-0.354-1.269-0.538c1.419-10.634,2.041-21.071-3.129-26.239c-2.774-2.775-7.484-4.124-14.397-4.124
					c-3.918,0-7.99,0.421-11.301,0.813c-0.239-0.572-0.465-1.141-0.677-1.708c8.448-6.652,15.921-13.218,15.921-20.267
					c0-7.255-8.707-14.474-15.064-19.746c-0.055-0.045-0.112-0.092-0.166-0.137c0.323-0.779,0.671-1.561,1.042-2.346
					c0.315,0.031,0.638,0.063,0.966,0.095c3.221,0.318,6.871,0.677,10.452,0.677c6.43,0,10.632-1.207,13.233-3.808
					c4.734-4.77,3.919-14.739,3.263-22.749c-0.039-0.475-0.077-0.937-0.112-1.384c0.961-0.421,1.939-0.821,2.933-1.195
					c0.345,0.407,0.702,0.832,1.071,1.269c5.102,6.052,11.454,13.583,18.12,13.583c6.637,0,12.978-7.523,18.073-13.568
					c0.373-0.442,0.735-0.872,1.084-1.282c0.993,0.373,1.972,0.772,2.933,1.193c-0.035,0.446-0.073,0.904-0.111,1.376
					c-0.655,8.014-1.47,17.99,3.267,22.725c2.589,2.608,6.792,3.822,13.227,3.822c3.497,0,7.076-0.344,10.236-0.649
					c0.414-0.039,0.82-0.078,1.214-0.115c0.373,0.789,0.724,1.574,1.048,2.355c-0.057,0.048-0.113,0.094-0.17,0.141
					c-6.356,5.272-15.06,12.489-15.06,19.743c0,7.048,7.471,13.615,15.919,20.265C357.208,195.82,356.983,196.39,356.744,196.962z"
					/>
			</g>
		</g>
	</g>
	<g>
		<g>
			<g>
				<path class="st2" d="M305.749,152.993c-12.057,0-21.866,9.809-21.866,21.866c0,12.057,9.809,21.866,21.866,21.866
					c12.057,0,21.866-9.809,21.866-21.866C327.615,162.802,317.806,152.993,305.749,152.993z M305.749,189.007
					c-7.802,0-14.148-6.347-14.148-14.148c0-7.801,6.347-14.148,14.148-14.148s14.148,6.347,14.148,14.148
					C319.897,182.66,313.55,189.007,305.749,189.007z"/>
			</g>
		</g>
	</g>
	<g>
		<g>
			<g>
				<path class="st2" d="M208.399,90.083c-9.276,0-16.824,7.548-16.824,16.824c0,9.276,7.548,16.824,16.824,16.824
					c9.276,0,16.824-7.548,16.824-16.824C225.223,97.631,217.675,90.083,208.399,90.083z M208.399,116.014
					c-5.022,0-9.106-4.085-9.106-9.107c0-5.022,4.085-9.106,9.106-9.106c5.022,0,9.107,4.085,9.107,9.106
					C217.506,111.929,213.421,116.014,208.399,116.014z"/>
			</g>
		</g>
	</g>
	<g>
		<g>
			<g>
				<path class="st2" d="M366.902,182.944h7.717v-7.717h-7.717V182.944z M382.337,175.226v7.717h7.717v-7.717H382.337z"/>
			</g>
		</g>
	</g>
	<g>
		<g>
			<g>
				<path class="st2" d="M451.106,29.041c-2.625-0.584-5.317-1.036-8.001-1.345l-0.882,7.667c2.418,0.278,4.844,0.686,7.207,1.212
					L451.106,29.041z M365.511,34.899h7.718v-7.717h-7.718V34.899z M419.533,27.182h-7.717v7.717h7.717V27.182z M380.946,34.899
					h7.717v-7.717h-7.717V34.899z M466.476,34.202c-2.457-1.123-4.997-2.128-7.551-2.985l-2.457,7.315
					c2.299,0.772,4.586,1.676,6.797,2.688L466.476,34.202z M480.434,42.443c-2.166-1.603-4.442-3.113-6.763-4.484l-3.926,6.645
					c2.094,1.236,4.144,2.596,6.094,4.042L480.434,42.443z M503.936,98.032l7.68-0.766c-0.269-2.688-0.679-5.386-1.222-8.019
					l-7.559,1.559C503.324,93.177,503.695,95.609,503.936,98.032z M500.984,83.736l7.353-2.341
					c-0.816-2.566-1.781-5.123-2.866-7.596l-7.067,3.103C499.382,79.126,500.25,81.427,500.984,83.736z M495.122,70.373l6.705-3.821
					c-1.333-2.34-2.807-4.637-4.38-6.83l-6.271,4.499C492.594,66.195,493.921,68.266,495.122,70.373z M486.614,58.507l5.771-5.122
					c-1.787-2.013-3.702-3.958-5.69-5.779l-5.212,5.69C483.275,54.938,485.002,56.692,486.614,58.507z M396.381,34.899h7.717v-7.717
					h-7.717V34.899z M418.955,182.944h7.717v-7.717h-7.717V182.944z M494.845,140.231l6.675,3.876
					c1.354-2.333,2.6-4.762,3.703-7.224l-7.042-3.158C497.187,135.943,496.064,138.132,494.845,140.231z M475.391,161.81
					l4.547,6.235c2.177-1.586,4.296-3.306,6.298-5.108l-5.165-5.735C479.266,158.828,477.354,160.378,475.391,161.81z
					 M504.283,105.336c-0.009,2.434-0.146,4.891-0.403,7.304l7.673,0.821c0.286-2.674,0.437-5.397,0.447-8.095L504.283,105.336z
					 M500.815,126.912l7.336,2.396c0.839-2.566,1.55-5.201,2.116-7.834l-7.546-1.62C502.212,122.225,501.57,124.599,500.815,126.912
					z M486.242,152.032l5.73,5.17c1.806-2.003,3.527-4.122,5.115-6.3l-6.235-4.547C489.42,148.318,487.87,150.228,486.242,152.032z
					 M462.766,169.131l3.153,7.044c2.456-1.099,4.885-2.344,7.222-3.699l-3.874-6.675
					C467.163,167.022,464.977,168.142,462.766,169.131z M435.019,27.187l-7.769-0.005v7.717l7.666,0.005L435.019,27.187z
					 M434.376,175.225l0.025,7.717c2.703-0.009,5.428-0.16,8.098-0.445l-0.822-7.673
					C439.27,175.082,436.813,175.216,434.376,175.225z M448.895,173.667l1.618,7.546c2.636-0.565,5.273-1.276,7.834-2.114
					l-2.396-7.335C453.643,172.517,451.269,173.158,448.895,173.667z"/>
			</g>
		</g>
	</g>
	<g>
		<g>
			<g>
				<path class="st2" d="M230.838,34.899h7.717v-7.717h-7.717V34.899z M215.403,34.899h7.718v-7.717h-7.718V34.899z M246.272,34.899
					h7.717v-7.717h-7.717V34.899z M199.969,34.899h7.717v-7.717h-7.717V34.899z M261.707,34.899h7.717v-7.717h-7.717V34.899z
					 M308.011,27.182v7.717h7.718v-7.717H308.011z M292.576,34.899h7.717v-7.717h-7.717V34.899z M277.142,34.899h7.718v-7.717
					h-7.718V34.899z"/>
			</g>
		</g>
	</g>
	<g>
		<g>
			<g>
				<path class="st2" d="M8.783,117.314l-7.602,1.336c0.466,2.653,1.08,5.314,1.824,7.908l7.418-2.125
					C9.753,122.097,9.202,119.702,8.783,117.314z M7.717,105.062c0-0.776,0.013-1.549,0.038-2.32l-7.712-0.251
					C0.015,103.345,0,104.203,0,105.064c0.001,1.852,0.067,3.713,0.195,5.533l7.698-0.54C7.778,108.415,7.719,106.733,7.717,105.062
					z M12.803,131.341l-7.155,2.894c1.013,2.503,2.167,4.977,3.432,7.354l6.813-3.625C14.755,135.823,13.715,133.595,12.803,131.341
					z M19.658,144.23l-6.401,4.311c1.502,2.231,3.144,4.413,4.88,6.484l5.916-4.954C22.49,148.203,21.01,146.239,19.658,144.23z
					 M9.737,88.278l-7.497-1.839c-0.642,2.618-1.152,5.3-1.518,7.971l7.647,1.048C8.698,93.05,9.158,90.635,9.737,88.278z
					 M36.395,170.987c2.282,1.438,4.664,2.772,7.08,3.964l3.414-6.921c-2.176-1.074-4.323-2.276-6.38-3.573L36.395,170.987z
					 M32.468,51.576l-4.997-5.881c-2.049,1.74-4.034,3.613-5.901,5.566l5.577,5.333C28.832,54.833,30.622,53.145,32.468,51.576z
					 M44.514,43.324l-3.675-6.785c-2.369,1.284-4.698,2.707-6.922,4.229l4.361,6.368C40.282,45.763,42.381,44.48,44.514,43.324z
					 M14.684,74.544l-6.948-3.361c-1.176,2.433-2.235,4.951-3.147,7.484l7.26,2.615C12.67,79.001,13.624,76.735,14.684,74.544z
					 M22.376,62.135l-6.1-4.725c-1.654,2.134-3.212,4.376-4.63,6.665l6.559,4.064C19.483,66.079,20.886,64.059,22.376,62.135z
					 M23.658,160.968c1.935,1.877,3.991,3.673,6.108,5.34l4.771-6.067c-1.909-1.501-3.762-3.12-5.505-4.812L23.658,160.968z
					 M57.999,37.755l-2.183-7.403c-2.586,0.762-5.161,1.672-7.653,2.702l2.947,7.132C53.353,39.259,55.672,38.441,57.999,37.755z
					 M98.029,182.944h7.717v-7.717h-7.717V182.944z M110.636,34.899h7.718v-7.717h-7.718V34.899z M141.506,27.182v7.717h7.717
					v-7.717H141.506z M126.071,34.899h7.717v-7.717h-7.717V34.899z M102.919,27.182h-7.717v7.717h7.717V27.182z M50.933,178.156
					c2.527,0.933,5.137,1.742,7.756,2.406l1.894-7.481c-2.356-0.597-4.704-1.325-6.978-2.164L50.933,178.156z M71.759,27.418
					c-2.698,0.211-5.404,0.564-8.045,1.05l1.397,7.589c2.378-0.437,4.817-0.755,7.249-0.944L71.759,27.418z M66.647,182.139
					c2.666,0.386,5.384,0.634,8.078,0.742l0.306-7.712c-2.429-0.095-4.879-0.32-7.282-0.667L66.647,182.139z M82.595,182.944h7.717
					v-7.717h-7.717V182.944z M87.484,27.182h-7.717v7.717h7.717V27.182z"/>
			</g>
		</g>
	</g>
	<g>
		<g>
			<g>
				<path class="st2" d="M154.107,182.944h7.718v-7.717h-7.718V182.944z M138.672,182.944h7.717v-7.717h-7.717V182.944z
					 M123.237,182.944h7.718v-7.717h-7.718V182.944z M169.542,182.944h7.717v-7.717h-7.717V182.944z M215.845,182.944h7.718v-7.717
					h-7.718V182.944z M231.28,175.226v7.717h7.717v-7.717H231.28z M184.976,182.944h7.717v-7.717h-7.717V182.944z M200.411,182.944
					h7.717v-7.717h-7.717V182.944z"/>
			</g>
		</g>
	</g>
</g>
</svg>
