<?xml version="1.0" encoding="utf-8"?>
<!-- Generator: Adobe Illustrator 18.0.0, SVG Export Plug-In . SVG Version: 6.00 Build 0)  -->
<!DOCTYPE svg PUBLIC "-//W3C//DTD SVG 1.1//EN" "http://www.w3.org/Graphics/SVG/1.1/DTD/svg11.dtd">
<svg version="1.1" id="Layer_1" xmlns="http://www.w3.org/2000/svg" xmlns:xlink="http://www.w3.org/1999/xlink" x="0px" y="0px"
	 viewBox="0 0 512 512" style="enable-background:new 0 0 512 512;" xml:space="preserve">
<style type="text/css">
	.st0{fill:#FFD452;}
	.st1{fill:#F58E6F;}
	.st2{fill:#4A555F;}
	.st3{fill:none;}
	.st4{fill:#DFDFDF;}
	.st5{fill:#71CCE0;}
	.st6{fill:#FFFFFF;}
</style>
<g>
	<g>
		<g>
			<path class="st4" d="M438.382,158.195h-66.579V180.5h58.913v230.715H81.289V180.5h58.889v-22.304H73.623
				c-7.188,0-13.033,5.822-13.033,13.009v246.791c0,7.211,5.846,13.033,13.033,13.033h364.76c7.163,0,13.009-5.822,13.009-13.033
				V171.204C451.391,164.017,445.545,158.195,438.382,158.195z"/>
		</g>
	</g>
	<g>
		<g>
			<g>
				<path class="st2" d="M0,439.678v16.756c0,21.919,17.833,39.75,39.75,39.75h432.497c21.92,0,39.753-17.832,39.753-39.75v-16.756
					H0z M504.812,456.434c0,17.956-14.608,32.563-32.565,32.563H39.75c-17.955,0-32.563-14.607-32.563-32.563v-9.569h497.625
					V456.434z"/>
			</g>
		</g>
	</g>
	<g>
		<g>
			<path class="st4" d="M15.822,455.5v0.684c0,13.353,10.825,24.178,24.178,24.178h432c13.353,0,24.178-10.825,24.178-24.178V455.5
				H15.822z"/>
		</g>
	</g>
	<g>
		<g>
			<g>
				<path class="st2" d="M210.474,439.678v9.892c0,11.523,9.373,20.896,20.895,20.896h49.261c11.523,0,20.896-9.374,20.896-20.896
					v-9.892H210.474z M294.338,449.57c0,7.559-6.148,13.709-13.708,13.709h-49.261c-7.559,0-13.708-6.15-13.708-13.709v-2.705
					h76.677V449.57z"/>
			</g>
		</g>
	</g>
	<g>
		<g>
			<g>
				<path class="st2" d="M438.383,142.383h-70.175v41.71h58.915v223.528H84.906V184.093h58.865v-41.71H73.622
					c-15.905,0-28.846,12.929-28.846,28.821v246.791c0,15.905,12.941,28.845,28.846,28.845h364.761
					c15.905,0,28.843-12.94,28.843-28.845V171.204C467.226,155.312,454.288,142.383,438.383,142.383z M460.039,417.995
					c0,11.943-9.714,21.658-21.656,21.658H73.622c-11.942,0-21.658-9.715-21.658-21.658V171.204
					c0-11.929,9.717-21.633,21.658-21.633h62.962v27.335H77.718v237.903H434.31V176.905h-58.915V149.57h62.988
					c11.942,0,21.656,9.705,21.656,21.633V417.995z"/>
			</g>
		</g>
	</g>
	<g>
		<g>
			<polygon class="st5" points="371.803,192.742 371.803,220.557 255.99,287.424 140.178,220.557 140.178,192.742 93.532,192.742 
				93.532,398.972 418.473,398.972 418.473,192.742 			"/>
		</g>
	</g>
	<g>
		<g>
			<g>
				<path class="st2" d="M255.996,15.815L136.591,84.753v137.879l119.406,68.939l119.406-68.938V84.754L255.996,15.815z
					 M368.215,218.482l-112.219,64.79l-112.218-64.791V88.903l112.218-64.789l112.219,64.791V218.482z"/>
			</g>
		</g>
	</g>
	<g>
		<g>
			<g>
				<path class="st0" d="M255.99,33.805L152.157,93.748v119.885L255.99,273.6l103.834-59.967V93.748L255.99,33.805z
					 M314.999,207.309l-65.908,35.793v-26.545h-39.243v-39.124h-20.196l20.196-37.973c0,0,0-19.837,0-21.394
					c0-29.037,23.551-52.564,52.588-52.564c29.037,0,52.563,23.527,52.563,52.564V207.309z"/>
			</g>
		</g>
	</g>
	<g>
		<g>
			<g>
				<path class="st2" d="M262.431,61.899c-30.972,0-56.168,25.197-56.168,56.169v20.484l-22.596,42.464h22.596v39.145h39.245v28.987
					l73.09-39.706v-91.374C318.598,87.096,293.403,61.899,262.431,61.899z M311.411,205.167l-58.716,31.896v-24.09H213.45v-39.145
					h-17.819l17.819-33.484v-22.277c0-27.009,21.972-48.981,48.981-48.981c27.009,0,48.98,21.973,48.98,48.981V205.167z"/>
			</g>
		</g>
	</g>
	<g>
		<g>
			<rect x="243.743" y="100.983" class="st1" width="36.696" height="36.696"/>
		</g>
	</g>
	<g>
		<g>
			<rect x="248.397" y="88.664" class="st2" width="7.187" height="12.319"/>
		</g>
	</g>
	<g>
		<g>
			<rect x="258.498" y="88.664" class="st2" width="7.188" height="12.319"/>
		</g>
	</g>
	<g>
		<g>
			<rect x="268.598" y="88.664" class="st2" width="7.187" height="12.319"/>
		</g>
	</g>
	<g>
		<g>
			<rect x="248.397" y="137.679" class="st2" width="7.187" height="12.318"/>
		</g>
	</g>
	<g>
		<g>
			<rect x="258.498" y="137.679" class="st2" width="7.188" height="12.318"/>
		</g>
	</g>
	<g>
		<g>
			<rect x="268.598" y="137.679" class="st2" width="7.187" height="12.318"/>
		</g>
	</g>
	<g>
		<g>
			<rect x="280.439" y="105.637" class="st2" width="12.321" height="7.187"/>
		</g>
	</g>
	<g>
		<g>
			<rect x="280.439" y="115.737" class="st2" width="12.321" height="7.187"/>
		</g>
	</g>
	<g>
		<g>
			<rect x="280.439" y="125.837" class="st2" width="12.321" height="7.188"/>
		</g>
	</g>
	<g>
		<g>
			<rect x="231.426" y="105.637" class="st2" width="12.318" height="7.187"/>
		</g>
	</g>
	<g>
		<g>
			<rect x="231.426" y="115.737" class="st2" width="12.318" height="7.187"/>
		</g>
	</g>
	<g>
		<g>
			<rect x="231.426" y="125.837" class="st2" width="12.318" height="7.188"/>
		</g>
	</g>
	<g>
		<g>
			<g>
				<path class="st2" d="M240.15,97.389v43.883h43.882V97.389H240.15z M276.845,134.085h-29.508v-29.509h29.508V134.085z"/>
			</g>
		</g>
	</g>
	<g>
		<g>
			<g>
				<path class="st2" d="M188.657,319.343h7.187v-7.188h-7.187V319.343z M203.032,319.343h7.187v-7.188h-7.187V319.343z
					 M246.156,319.343h7.187v-7.188h-7.187V319.343z M231.781,319.343h7.187v-7.188h-7.187V319.343z M217.406,319.343h7.187v-7.188
					h-7.187V319.343z M145.533,319.343h7.187v-7.188h-7.187V319.343z M159.907,319.343h7.187v-7.188h-7.187V319.343z
					 M174.282,319.343h7.187v-7.188h-7.187V319.343z M361.154,312.155v7.188h7.187v-7.188H361.154z M318.03,319.343h7.187v-7.188
					h-7.187V319.343z M332.405,319.343h7.187v-7.188h-7.187V319.343z M346.779,319.343h7.188v-7.188h-7.188V319.343z
					 M303.655,319.343h7.187v-7.188h-7.187V319.343z M274.906,319.343h7.187v-7.188h-7.187V319.343z M289.28,319.343h7.187v-7.188
					h-7.187V319.343z M260.531,319.343h7.187v-7.188h-7.187V319.343z"/>
			</g>
		</g>
	</g>
	<g>
		<g>
			<rect x="145.533" y="339.494" class="st2" width="222.626" height="7.188"/>
		</g>
	</g>
	<g>
		<g>
			<rect x="145.533" y="366.834" class="st2" width="222.626" height="7.187"/>
		</g>
	</g>
</g>
</svg>
