<?xml version="1.0" encoding="utf-8"?>
<!-- Generator: Adobe Illustrator 22.0.1, SVG Export Plug-In . SVG Version: 6.00 Build 0)  -->
<svg version="1.1" id="Layer_1" xmlns="http://www.w3.org/2000/svg" xmlns:xlink="http://www.w3.org/1999/xlink" x="0px" y="0px"
	 viewBox="0 0 128 128" style="enable-background:new 0 0 128 128;" xml:space="preserve">
<style type="text/css">
	.st0{fill:#263238;}
	.st1{fill:#E6E7E8;}
	.st2{fill:#FFD7E5;}
	.st3{fill:#0089EF;}
	.st4{fill:#6DC9F7;}
	.st5{fill:#FA759E;}
	.st6{fill:#FFFFFF;}
	.st7{fill:#3A2C60;}
	.st8{fill:#D4FBFF;}
</style>
<g>
	<path class="st1" d="M78.345,88.585c9.015-3.905,15.728-11.958,17.823-21.75c0.472,0.179,0.957,0.27,1.452,0.27
		c3.006,0,5.451-3.268,5.451-7.284c0-2.809-1.198-5.247-2.945-6.462V40.084c0-17.065-13.829-31.894-30.894-31.894h-5.807v0.022
		l-2.294-0.022c-17.065,0-30.894,14.83-30.894,31.894v14.998c-0.82,1.275-1.32,2.929-1.32,4.739c0,4.017,2.445,7.284,5.451,7.284
		c0.493,0,0.982-0.11,1.46-0.297c2.086,9.635,8.683,17.606,17.46,21.589c0.002,0.081,0.009,0.161,0.012,0.242
		c-0.188,0.022-0.375,0.045-0.563,0.07c-0.159,0.021-0.319,0.037-0.478,0.059c-0.409,0.059-0.815,0.13-1.223,0.202
		c-0.375,0.065-0.749,0.135-1.121,0.211c-0.181,0.037-0.364,0.063-0.545,0.103c-0.026,0.006-0.046,0.022-0.071,0.03
		c-3.386,0.747-6.64,1.925-9.713,3.543c-11.362,5.981-19.118,17.132-20.746,29.828c-0.037,0.285,0.051,0.572,0.241,0.787
		c0.19,0.216,0.463,0.34,0.751,0.34l92.334-0.002c0.288,0,0.561-0.124,0.75-0.34c0.19-0.215,0.278-0.502,0.241-0.787
		C110.835,104.555,96.353,90.52,78.345,88.585z"/>
	<g>
		<g>
			<g>
				<path class="st6" d="M32.125,56.27v-4.53c0-0.551,0.034-1.099,0.057-1.648c-0.555-0.351-1.166-0.556-1.814-0.556
					c-2.458,0-4.451,2.814-4.451,6.284c0,3.471,1.993,6.284,4.451,6.284c0.797,0,1.534-0.32,2.181-0.838
					C32.275,59.641,32.125,57.973,32.125,56.27z"/>
				<path class="st6" d="M50.368,85.526c-5.129,0.468-9.971,1.927-14.315,4.214c-10.827,5.7-18.597,16.423-20.22,29.07H63.1v-23.04
					c-0.365,0.034-0.733,0.056-1.106,0.056C56.003,95.826,51.07,91.328,50.368,85.526z"/>
				<g>
					<path class="st5" d="M63.1,100.886c-0.367,0.024-0.733,0.052-1.106,0.052c-7.48,0-13.789-4.977-15.819-11.798
						c-3.579,0.73-6.981,1.945-10.12,3.6c-9.96,5.24-17.34,14.74-19.71,26.07h46.76L63.1,100.886z"/>
				</g>
				<path class="st4" d="M61.994,95.826c-5.996,0-10.931-4.505-11.628-10.312c-1.625,0.148-3.219,0.4-4.779,0.745
					c0.914,8.256,7.907,14.68,16.407,14.68c0.373,0,0.739-0.028,1.106-0.052v-5.111C62.736,95.808,62.367,95.826,61.994,95.826z"/>
				<path class="st6" d="M61.994,86.139L61.994,86.139c-4.161,0-8.122-0.853-11.721-2.39v0.356c0,6.473,5.248,11.721,11.721,11.721
					c0.373,0,0.742-0.022,1.106-0.056v-9.659C62.733,86.124,62.365,86.139,61.994,86.139z"/>
				<path class="st6" d="M50.772,29.94c0,0-2.756,5.338-7.614,8.226c-4.322,2.555-8.836,3.556-9.797,3.749
					c-0.125,0.497-0.259,0.992-0.364,1.493c-0.286,2.447-0.831,7.086-0.815,6.684c-0.022,0.549-0.057,1.097-0.057,1.648v4.53
					c0,16.496,13.373,29.869,29.869,29.869h0c0.371,0,0.739-0.014,1.106-0.028V38.418C55.089,34.631,50.772,29.94,50.772,29.94z"/>
			</g>
		</g>
		<g>
			<path class="st7" d="M74.345,84.585c9.015-3.905,15.728-11.958,17.823-21.75c0.472,0.179,0.957,0.27,1.452,0.27
				c3.006,0,5.451-3.268,5.451-7.284c0-2.809-1.198-5.247-2.945-6.462V36.084c0-17.065-13.829-31.894-30.894-31.894h-5.807v0.022
				l-2.294-0.022c-17.065,0-30.894,14.83-30.894,31.894v14.998c-0.82,1.275-1.32,2.929-1.32,4.739c0,4.017,2.445,7.284,5.451,7.284
				c0.493,0,0.982-0.11,1.46-0.297c2.086,9.635,8.683,17.606,17.46,21.589c0.002,0.081,0.009,0.161,0.012,0.242
				c-0.188,0.022-0.375,0.045-0.563,0.07c-0.159,0.021-0.319,0.037-0.478,0.059c-0.409,0.059-0.815,0.13-1.223,0.202
				c-0.375,0.065-0.749,0.135-1.121,0.211c-0.181,0.037-0.364,0.063-0.545,0.103c-0.026,0.006-0.046,0.022-0.071,0.03
				c-3.386,0.747-6.64,1.925-9.713,3.543c-11.362,5.981-19.118,17.132-20.746,29.828c-0.037,0.285,0.051,0.572,0.241,0.787
				c0.19,0.216,0.463,0.34,0.751,0.34h18.287c0.552,0,1-0.447,1-1s-0.448-1-1-1H16.987c1.848-11.58,9.083-21.685,19.532-27.186
				c2.622-1.38,5.384-2.426,8.251-3.139c1.462,8.311,8.667,14.452,17.224,14.452c0.036,0,0.071-0.004,0.106-0.005v15.878H49.869
				c-0.552,0-1,0.447-1,1s0.448,1,1,1H63.1c0.003,0,0.006-0.002,0.01-0.002h45.057c0.288,0,0.561-0.124,0.75-0.34
				c0.19-0.215,0.278-0.502,0.241-0.787C106.835,100.555,92.353,86.52,74.345,84.585z M26.917,55.82
				c0-2.864,1.581-5.284,3.451-5.284c0.262,0,0.525,0.051,0.786,0.15c-0.016,0.351-0.029,0.701-0.029,1.053v4.53
				c0,0.703,0.032,1.398,0.079,2.09c0.008,0.116,0.017,0.232,0.027,0.348c0.055,0.704,0.128,1.402,0.23,2.092
				C29.231,62.041,26.917,59.242,26.917,55.82z M62.1,99.937c-0.036,0.001-0.071,0.001-0.106,0.001
				c-7.61,0-14.026-5.477-15.285-12.883c0.118-0.023,0.237-0.042,0.356-0.063c0.628-0.116,1.259-0.211,1.889-0.295
				c0.19-0.025,0.382-0.044,0.573-0.066c0.058,0.289,0.138,0.569,0.215,0.85c0.022,0.081,0.039,0.164,0.063,0.244
				c0.068,0.229,0.149,0.45,0.229,0.673c0.055,0.154,0.108,0.309,0.168,0.459c0.075,0.186,0.159,0.368,0.243,0.55
				c0.083,0.181,0.168,0.362,0.26,0.538c0.081,0.156,0.166,0.31,0.254,0.463c0.112,0.196,0.229,0.387,0.35,0.576
				c0.084,0.131,0.169,0.26,0.258,0.387c0.144,0.207,0.296,0.406,0.452,0.604c0.081,0.103,0.16,0.207,0.244,0.308
				c0.188,0.223,0.385,0.436,0.587,0.646c0.065,0.068,0.127,0.139,0.193,0.205c0.553,0.549,1.155,1.046,1.8,1.486
				c0.087,0.059,0.179,0.111,0.267,0.168c0.234,0.151,0.47,0.299,0.714,0.434c0.127,0.071,0.259,0.135,0.389,0.201
				c0.214,0.11,0.43,0.216,0.65,0.314c0.147,0.065,0.296,0.125,0.445,0.185c0.214,0.085,0.43,0.165,0.65,0.238
				c0.157,0.052,0.313,0.103,0.473,0.15c0.226,0.066,0.456,0.123,0.687,0.177c0.156,0.036,0.31,0.074,0.468,0.104
				c0.258,0.05,0.52,0.086,0.782,0.12c0.136,0.017,0.269,0.041,0.406,0.054c0.402,0.039,0.809,0.062,1.22,0.062
				c0.035,0,0.071,0,0.106,0V99.937z M62.1,94.821c-0.017,0-0.034,0.002-0.051,0.002c-0.116,0.001-0.23-0.009-0.345-0.011
				c-5.289-0.143-9.712-4.138-10.346-9.418c0-0.004-0.003-0.008-0.004-0.012c-0.005-0.046-0.016-0.09-0.021-0.136
				c3.409,1.257,6.988,1.894,10.661,1.894c0.035,0,0.071,0,0.106,0V94.821z M62.1,64.375c-0.036,0.001-0.07,0.008-0.106,0.008
				c-1.322,0-2.397-1.075-2.397-2.396v-1.991c0-0.553-0.448-1-1-1s-1,0.447-1,1v1.991c0,2.424,1.973,4.396,4.397,4.396
				c0.036,0,0.07-0.008,0.106-0.008v7.737c-0.104-0.037-0.213-0.067-0.33-0.067c-2.56,0-3.86-1.688-3.926-1.777
				c-0.324-0.443-0.946-0.543-1.393-0.221c-0.448,0.322-0.549,0.947-0.226,1.396c0.077,0.106,1.919,2.603,5.545,2.603
				c0.117,0,0.226-0.03,0.33-0.067v9.16c-0.036,0-0.071,0-0.106,0c-15.918,0-28.869-12.951-28.869-28.87v-3.189l2.774-0.7v0.504
				c0,4.57,3.718,8.289,8.289,8.289h6.986c4.57,0,8.289-3.719,8.289-8.289v-2.778l2.638-0.006V64.375z M37.899,52.885v-4.284
				c0-2.91,2.368-5.278,5.278-5.278H54.16c1.821,0,3.302,1.481,3.302,3.303v6.26c0,3.468-2.821,6.289-6.289,6.289h-6.986
				C40.72,59.174,37.899,56.353,37.899,52.885z M62.1,48.101l-2.638,0.006v-1.482c0-2.924-2.378-5.303-5.302-5.303H43.177
				c-4.013,0-7.278,3.265-7.278,7.278v1.717l-2.75,0.694c0.06-3.17,0.497-6.305,1.301-9.345c1.825-0.454,5.326-1.501,8.709-3.501
				c4.858-2.888,7.614-8.226,7.614-8.226s3.964,4.296,11.328,7.985V48.101z"/>
			<path class="st7" d="M45.657,117.811h-7.125c-0.552,0-1,0.447-1,1s0.448,1,1,1h7.125c0.552,0,1-0.447,1-1
				S46.209,117.811,45.657,117.811z"/>
			<circle class="st7" cx="48.817" cy="52.089" r="2.987"/>
			<path class="st7" d="M45.012,47.021c0.057,0,0.115-0.005,0.172-0.015l5.849-1.019c0.544-0.095,0.909-0.613,0.814-1.157
				c-0.095-0.543-0.614-0.9-1.157-0.813l-5.849,1.019c-0.544,0.095-0.909,0.613-0.814,1.157
				C44.113,46.679,44.535,47.021,45.012,47.021z"/>
		</g>
		<path class="st3" d="M97.973,109.569v-6.589c0-3.086-2.51-5.596-5.596-5.596h-4.34c-1.983,0-3.596-1.613-3.596-3.596v-4.583
			c-0.657-0.273-1.325-0.525-2-0.761v5.345c0,3.086,2.51,5.596,5.596,5.596h4.34c1.983,0,3.596,1.613,3.596,3.596v6.589
			c-1.048,0.403-1.795,1.413-1.795,2.603c0,1.544,1.251,2.795,2.795,2.795s2.795-1.251,2.795-2.795
			C99.768,110.982,99.021,109.973,97.973,109.569z"/>
		<path class="st3" d="M77.058,96.329c1.544,0,2.795-1.251,2.795-2.795c0-1.19-0.747-2.199-1.795-2.603V87.21
			c-0.661-0.143-1.327-0.27-2-0.378v4.099c-1.048,0.403-1.795,1.413-1.795,2.603C74.263,95.077,75.514,96.329,77.058,96.329z"/>
		<path class="st3" d="M89.432,113.014l0.322-2.034c0.022-0.139-0.073-0.27-0.212-0.292l-0.575-0.091
			c-0.11-0.017-0.198-0.104-0.213-0.215c-0.047-0.358-0.131-0.707-0.25-1.041c-0.037-0.105,0.002-0.222,0.092-0.288l0.471-0.342
			c0.114-0.083,0.139-0.243,0.056-0.357l-1.21-1.666c-0.083-0.114-0.243-0.139-0.357-0.056l-0.471,0.342
			c-0.09,0.066-0.214,0.066-0.302-0.002c-0.281-0.216-0.587-0.404-0.913-0.559c-0.101-0.048-0.156-0.158-0.138-0.268l0.091-0.575
			c0.022-0.139-0.073-0.27-0.212-0.292l-2.034-0.322c-0.139-0.022-0.27,0.073-0.292,0.212l-0.091,0.575
			c-0.017,0.11-0.104,0.198-0.215,0.213c-0.358,0.047-0.707,0.131-1.041,0.25c-0.105,0.037-0.222-0.002-0.288-0.092l-0.342-0.471
			c-0.083-0.114-0.243-0.139-0.357-0.056l-1.666,1.21c-0.114,0.083-0.139,0.243-0.056,0.357l0.342,0.471
			c0.066,0.09,0.066,0.214-0.002,0.302c-0.216,0.281-0.404,0.587-0.559,0.913c-0.048,0.101-0.158,0.156-0.268,0.138l-0.575-0.091
			c-0.139-0.022-0.27,0.073-0.292,0.212l-0.322,2.034c-0.022,0.139,0.073,0.27,0.212,0.292l0.575,0.091
			c0.11,0.017,0.198,0.104,0.213,0.215c0.047,0.358,0.131,0.707,0.25,1.041c0.037,0.105-0.002,0.222-0.092,0.288l-0.471,0.342
			c-0.114,0.083-0.139,0.243-0.056,0.357l1.21,1.666c0.083,0.114,0.243,0.139,0.357,0.056l0.471-0.342
			c0.09-0.066,0.214-0.066,0.302,0.002c0.281,0.216,0.587,0.404,0.913,0.559c0.101,0.048,0.156,0.158,0.138,0.268l-0.091,0.575
			c-0.022,0.139,0.073,0.27,0.212,0.292l2.034,0.322c0.139,0.022,0.27-0.073,0.292-0.212l0.091-0.575
			c0.017-0.11,0.104-0.198,0.215-0.213c0.358-0.047,0.707-0.131,1.041-0.25c0.105-0.037,0.222,0.002,0.288,0.092l0.342,0.471
			c0.083,0.114,0.243,0.139,0.357,0.056l1.666-1.21c0.114-0.083,0.139-0.243,0.056-0.357l-0.342-0.471
			c-0.066-0.09-0.066-0.214,0.002-0.302c0.216-0.281,0.404-0.587,0.559-0.913c0.048-0.101,0.158-0.156,0.268-0.138l0.575,0.091
			C89.279,113.248,89.41,113.153,89.432,113.014z M83.291,114.575c-2.088-0.223-3.519-2.194-3.086-4.248
			c0.371-1.759,2.04-2.972,3.827-2.781c2.088,0.223,3.519,2.194,3.086,4.248C86.747,113.554,85.078,114.766,83.291,114.575z"/>
		<path class="st3" d="M68.971,104.286c0.142-2.809-2.092-5.124-4.868-5.128v9.744c0.083,0,0.164,0.009,0.248,0.004
			C66.83,108.781,68.845,106.765,68.971,104.286z"/>
		<path class="st3" d="M64.29,112.858c-0.064,0.003-0.124-0.006-0.187-0.005v3.855h1.856c0.292,0,0.529-0.237,0.529-0.529v-1.208
			c0-0.231,0.149-0.439,0.371-0.505c0.719-0.213,1.405-0.498,2.052-0.849c0.203-0.11,0.456-0.069,0.619,0.095l0.853,0.853
			c0.207,0.207,0.542,0.207,0.749,0l3.02-3.02c0.207-0.207,0.207-0.542,0-0.749l-0.853-0.854c-0.164-0.164-0.205-0.416-0.095-0.619
			c0.351-0.646,0.636-1.333,0.849-2.052c0.066-0.222,0.274-0.371,0.505-0.371h1.208c0.292,0,0.529-0.237,0.529-0.53v-4.271
			c0-0.292-0.237-0.53-0.529-0.53h-1.208c-0.231,0-0.439-0.149-0.505-0.371c-0.213-0.719-0.498-1.405-0.849-2.052
			c-0.11-0.203-0.069-0.456,0.095-0.619l0.853-0.854c0.207-0.207,0.207-0.542,0-0.749l-3.02-3.02c-0.207-0.207-0.542-0.207-0.749,0
			l-0.853,0.854c-0.164,0.164-0.416,0.205-0.619,0.095c-0.647-0.351-1.333-0.636-2.052-0.849c-0.222-0.066-0.371-0.274-0.371-0.505
			v-1.208c0-0.292-0.237-0.529-0.529-0.529h-1.856v3.866c4.789,0.144,8.599,4.182,8.352,9.061
			C72.233,109.075,68.672,112.636,64.29,112.858z"/>
		<g>
			<path class="st3" d="M78.36,14.145c-1.457,0-2.638,1.181-2.638,2.638c0,1.457,1.181,2.638,2.638,2.638
				c1.103,0,2.045-0.677,2.439-1.638h5.92c-0.493-0.699-1.016-1.361-1.556-2h-4.363C80.405,14.823,79.463,14.145,78.36,14.145z"/>
			<path class="st3" d="M75.416,61.087c-4.634,0-8.404-3.771-8.404-8.404s3.77-8.404,8.404-8.404s8.404,3.771,8.404,8.404
				S80.051,61.087,75.416,61.087z M75.416,46.278c-3.531,0-6.404,2.873-6.404,6.404s2.873,6.404,6.404,6.404
				s6.404-2.873,6.404-6.404S78.948,46.278,75.416,46.278z"/>
			<circle class="st5" cx="75.416" cy="52.683" r="3.574"/>
			<path class="st3" d="M73.207,78.3v-4.125c1.055-0.4,1.809-1.412,1.809-2.607c0-1.543-1.251-2.795-2.795-2.795
				s-2.795,1.251-2.795,2.795c0,1.185,0.74,2.192,1.781,2.598V78.3c0,1.887,1.099,3.504,2.682,4.295
				c0.975-0.438,1.922-0.926,2.834-1.465h-0.687C74.476,81.13,73.207,79.86,73.207,78.3z"/>
			<path class="st3" d="M83.696,74.661c-0.99,0-1.795-0.806-1.795-1.795v-4.568c1.048-0.403,1.795-1.413,1.795-2.603
				c0-1.543-1.251-2.795-2.795-2.795c-1.544,0-2.795,1.251-2.795,2.795c0,1.19,0.747,2.199,1.795,2.603v4.568
				c0,1.724,1.162,3.166,2.739,3.627c0.575-0.587,1.125-1.198,1.648-1.832H83.696z"/>
			<path class="st3" d="M87.073,43.061c-1.51-2.818-4.435-4.569-7.632-4.569h-5.573c-0.396-0.957-1.337-1.63-2.437-1.63
				c-1.457,0-2.638,1.181-2.638,2.638s1.181,2.638,2.638,2.638c1.106,0,2.05-0.682,2.442-1.646h5.568
				c2.459,0,4.708,1.347,5.869,3.514l2.26,4.222c0.174,0.325,0.513,0.528,0.882,0.528h4.449v-2h-3.85L87.073,43.061z"/>
			<path class="st3" d="M92.901,36.853h-5.932c-0.69,0-1.251-0.562-1.251-1.251c0-1.793-1.458-3.251-3.251-3.251h-3.49
				c-0.394-0.961-1.337-1.638-2.439-1.638c-1.457,0-2.638,1.181-2.638,2.638s1.181,2.638,2.638,2.638
				c1.103,0,2.045-0.677,2.439-1.638h3.49c0.69,0,1.251,0.562,1.251,1.251c0,1.793,1.458,3.251,3.251,3.251h5.932V36.853z"/>
			<path class="st3" d="M81.899,21.542c-1.457,0-2.638,1.181-2.638,2.638c0,1.457,1.181,2.638,2.638,2.638
				c1.103,0,2.045-0.677,2.439-1.638h6.221c-0.26-0.684-0.535-1.35-0.823-2h-5.398C83.944,22.22,83.002,21.542,81.899,21.542z"/>
			<g>
				<path class="st5" d="M64.124,29.74h4.076c1.05,0,1.905-0.854,1.905-1.905V15.249c0-1.05-0.854-1.905-1.905-1.905h-4.069l0-0.471
					h0l-0.007,17.337h0L64.124,29.74z"/>
				<path class="st2" d="M68.905,27.064V16.021c0-0.815-0.661-1.476-1.476-1.476h-3.298L64.125,28.54h3.304
					C68.244,28.54,68.905,27.879,68.905,27.064z"/>
				<g>
					<path class="st3" d="M68.201,13.344c1.05,0,1.905,0.854,1.905,1.905v12.586c0,1.051-0.854,1.905-1.905,1.905h-4.076l0,0.941
						h0.658v1.114c0,0.26,0.21,0.47,0.47,0.47c0.26,0,0.47-0.21,0.47-0.47v-1.114h1.219v1.718c0,0.26,0.21,0.47,0.47,0.47h1.118
						c0.26,0,0.47-0.21,0.47-0.47s-0.21-0.47-0.47-0.47h-0.647v-1.248h0.318c1.569,0,2.846-1.277,2.846-2.846v-0.529h1.248v0.858
						c0,0.26,0.21,0.47,0.47,0.47c0.26,0,0.47-0.21,0.47-0.47v-1.329c0-0.26-0.21-0.47-0.47-0.47h-1.719v-1.219h1.115
						c0.26,0,0.47-0.21,0.47-0.47c0-0.26-0.21-0.471-0.47-0.471h-1.115v-1.219h1.115c0.26,0,0.47-0.21,0.47-0.47
						s-0.21-0.47-0.47-0.47h-1.115v-1.218h1.115c0.26,0,0.47-0.21,0.47-0.47s-0.21-0.47-0.47-0.47h-1.115v-1.219h1.115
						c0.26,0,0.47-0.21,0.47-0.47s-0.21-0.47-0.47-0.47h-1.115v-1.219h1.719c0.26,0,0.47-0.21,0.47-0.47V14.92
						c0-0.26-0.21-0.47-0.47-0.47c-0.26,0-0.47,0.21-0.47,0.47v0.647h-1.248v-0.318c0-1.569-1.277-2.846-2.846-2.846h-0.318v-1.248
						h0.647c0.26,0,0.47-0.21,0.47-0.47c0-0.26-0.21-0.47-0.47-0.47h-1.118c-0.26,0-0.47,0.21-0.47,0.47v1.719h-1.219v-1.115
						c0-0.26-0.21-0.47-0.47-0.47c-0.26,0-0.47,0.21-0.47,0.47v1.115h-0.65l0,0.941H68.201z"/>
				</g>
			</g>
		</g>
	</g>
</g>
</svg>
