<?xml version="1.0" encoding="utf-8"?>
<!-- Generator: Adobe Illustrator 22.0.1, SVG Export Plug-In . SVG Version: 6.00 Build 0)  -->
<svg version="1.1" id="Layer_1" xmlns="http://www.w3.org/2000/svg" xmlns:xlink="http://www.w3.org/1999/xlink" x="0px" y="0px"
	 viewBox="0 0 128 128" style="enable-background:new 0 0 128 128;" xml:space="preserve">
<style type="text/css">
	.st0{fill:#263238;}
	.st1{fill:#E6E7E8;}
	.st2{fill:#FFD7E5;}
	.st3{fill:#0089EF;}
	.st4{fill:#6DC9F7;}
	.st5{fill:#FA759E;}
	.st6{fill:#FFFFFF;}
	.st7{fill:#3A2C60;}
	.st8{fill:#D4FBFF;}
</style>
<g>
	<g>
		<path class="st1" d="M109.928,92.983V80.771c0-3.193-1.701-5.988-4.239-7.551h2.531c2.454,0,4.45-1.997,4.45-4.451
			c0-2.454-1.996-4.451-4.45-4.451h-5.458c-1.415,0-2.663,0.676-3.479,1.709l-2.037-10.065c-1.05-5.188-5.653-8.954-10.947-8.954
			H70.908c0.001-0.042,0.013-0.082,0.013-0.125c0-2.713-2.207-4.92-4.92-4.92c-2.713,0-4.92,2.208-4.92,4.92
			c0,0.043,0.011,0.082,0.013,0.125H45.702c-5.294,0-9.898,3.766-10.947,8.954l-2.037,10.065c-0.816-1.033-2.064-1.709-3.479-1.709
			h-5.457c-2.455,0-4.451,1.997-4.451,4.451c0,2.455,1.997,4.451,4.451,4.451h2.53c-2.538,1.563-4.239,4.358-4.239,7.551v12.212
			c-3.003,0.635-5.264,3.304-5.264,6.494c0,3.66,2.978,6.638,6.638,6.638h6.077v7.077c0,1.59,1.289,2.88,2.88,2.88h8.639
			c1.59,0,2.88-1.289,2.88-2.88v-7.077h44.155v7.077c0,1.59,1.289,2.88,2.88,2.88h8.639c1.59,0,2.88-1.289,2.88-2.88v-7.077h6.077
			c3.66,0,6.638-2.978,6.638-6.638C115.191,96.287,112.93,93.618,109.928,92.983z"/>
		<path class="st1" d="M74.313,35.106c-2.486-1.395-5.206-2.137-8.096-2.207l-0.41-0.005c-0.045-0.002-0.09,0.002-0.135,0.008
			c-2.84,0.084-5.525,0.825-7.984,2.204c-0.76,0.426-1.298,1.157-1.476,2.004c-0.174,0.833,0.02,1.7,0.531,2.377l0.052,0.069
			c0,0,0.001,0.001,0.001,0.002c0.573,0.759,1.442,1.164,2.343,1.164c0.509,0,1.029-0.129,1.511-0.397
			c1.649-0.917,3.455-1.397,5.333-1.428c1.911,0.03,3.716,0.511,5.364,1.428c1.336,0.743,2.957,0.42,3.907-0.836
			c0.513-0.679,0.707-1.546,0.532-2.379C75.611,36.262,75.073,35.532,74.313,35.106z M57.595,38.955L57.595,38.955L57.595,38.955
			L57.595,38.955z"/>
		<path class="st1" d="M79.954,32.135c0.479-0.675,0.655-1.527,0.483-2.338c-0.17-0.802-0.67-1.5-1.37-1.915
			c-3.876-2.294-8.317-3.544-12.854-3.617l-0.41-0.003c-0.035,0.003-0.072,0.001-0.107,0.005c-4.501,0.086-8.913,1.335-12.762,3.615
			c-0.701,0.415-1.201,1.113-1.371,1.915c-0.172,0.812,0.004,1.664,0.535,2.41c0.894,1.259,2.581,1.612,3.923,0.82
			c3.011-1.775,6.464-2.73,9.969-2.764c3.522,0.033,6.977,0.989,9.988,2.764c0.482,0.285,1.01,0.421,1.528,0.421
			c0.925,0,1.823-0.435,2.396-1.242L79.954,32.135z"/>
		<path class="st1" d="M47.214,25.43C47.214,25.431,47.214,25.431,47.214,25.43c0.573,0.803,1.481,1.235,2.405,1.235
			c0.535,0,1.074-0.145,1.558-0.446c4.436-2.77,9.564-4.253,14.817-4.29c5.267,0.036,10.395,1.52,14.831,4.29
			c1.317,0.823,3.057,0.478,4.012-0.858c0.474-0.663,0.653-1.501,0.494-2.301c-0.158-0.799-0.646-1.504-1.336-1.935
			c-5.32-3.322-11.468-5.118-17.783-5.194l-0.41-0.002c-0.028-0.003-0.059,0-0.088,0.003c-6.284,0.088-12.406,1.883-17.708,5.193
			c-0.69,0.431-1.177,1.136-1.335,1.936c-0.159,0.799,0.021,1.637,0.493,2.298L47.214,25.43z"/>
	</g>
	<g>
		<g>
			<path class="st5" d="M103.878,89.838h0.676c0.126,0,0.25,0.011,0.374,0.019V76.771c0-4.347-3.524-7.87-7.87-7.87H26.944
				c-4.347,0-7.87,3.524-7.87,7.87v13.067h0.374H103.878z"/>
			<path class="st2" d="M104.554,101.115H19.447c-3.114,0-5.638-2.524-5.638-5.638v0c0-3.114,2.524-5.638,5.638-5.638h85.106
				c3.114,0,5.638,2.524,5.638,5.638v0C110.192,98.591,107.667,101.115,104.554,101.115z"/>
			<g>
				<path class="st6" d="M82.541,82.772c2.058-2.032,6.754-5.276,15.856-5.436c0.44-0.008,0.84,0.268,0.994,0.681
					c0.571,1.524,1.495,5.133-2.054,6.119c-3.364,0.934-10.609,0.622-14.129,0.398C82.319,84.476,81.908,83.397,82.541,82.772z"/>
				<path class="st6" d="M41.459,82.772c-2.058-2.032-6.754-5.276-15.856-5.436c-0.44-0.008-0.84,0.268-0.994,0.681
					c-0.571,1.524-1.495,5.133,2.054,6.119c3.364,0.934,10.609,0.622,14.129,0.398C41.682,84.476,42.093,83.397,41.459,82.772z"/>
			</g>
			<path class="st5" d="M92.266,52.161c-0.96-4.743-5.129-8.152-9.967-8.152H62H41.702c-4.839,0-9.008,3.41-9.967,8.152
				l-3.387,16.74H62h33.653L92.266,52.161z"/>
			<path class="st8" d="M33.692,63.32l2.092-10.34c0.57-2.816,3.045-4.841,5.919-4.841h40.596c2.873,0,5.348,2.024,5.918,4.84
				l2.092,10.34c0.152,0.749-0.421,1.449-1.185,1.449H34.877C34.113,64.77,33.54,64.069,33.692,63.32z"/>
			<g>
				<path class="st6" d="M76.959,48.14l-9.284,16.63h5.505l9.246-16.561c-0.258-0.034-0.516-0.069-0.783-0.069H76.959z"/>
				<polygon class="st6" points="58.654,64.769 64.159,64.769 73.443,48.14 67.938,48.14 				"/>
				<polygon class="st6" points="41.574,64.769 47.08,64.769 56.363,48.14 50.858,48.14 				"/>
			</g>
			<g>
				<path class="st5" d="M25.239,68.22h-5.457c-1.906,0-3.451-1.545-3.451-3.451v0c0-1.906,1.545-3.451,3.451-3.451h5.457
					c1.906,0,3.451,1.545,3.451,3.451v0C28.689,66.675,27.144,68.22,25.239,68.22z"/>
				<path class="st5" d="M104.219,68.22h-5.457c-1.906,0-3.451-1.545-3.451-3.451v0c0-1.906,1.545-3.451,3.451-3.451h5.457
					c1.906,0,3.451,1.545,3.451,3.451v0C107.67,66.675,106.125,68.22,104.219,68.22z"/>
			</g>
		</g>
		<g>
			<g>
				<g>
					<g>
						<path class="st4" d="M53.595,34.955l-0.052-0.069c-0.724-0.958-0.413-2.32,0.634-2.907c2.324-1.303,4.915-2.014,7.618-2.079
							v-0.005l0.41,0.005c2.703,0.065,5.295,0.776,7.618,2.078c1.047,0.587,1.358,1.95,0.634,2.908l-0.052,0.069
							c-0.604,0.799-1.696,0.982-2.57,0.495c-1.779-0.989-3.764-1.521-5.835-1.554c-2.07,0.033-4.056,0.565-5.835,1.554
							C55.29,35.937,54.198,35.753,53.595,34.955z"/>
						<path class="st4" d="M75.088,27.627c-0.592,0.834-1.72,1.057-2.601,0.538c-3.174-1.87-6.762-2.867-10.487-2.902
							c-3.726,0.035-7.314,1.032-10.486,2.902c-0.881,0.519-2.008,0.296-2.601-0.538l-0.051-0.071
							c-0.659-0.928-0.398-2.234,0.581-2.814c3.739-2.214,7.963-3.407,12.352-3.477v-0.003l0.41,0.003
							c4.388,0.07,8.612,1.263,12.352,3.477c0.979,0.58,1.24,1.886,0.581,2.814L75.088,27.627z"/>
						<path class="st4" d="M44.028,20.851l-0.051-0.071c-0.656-0.92-0.4-2.207,0.558-2.805c5.181-3.235,11.099-4.968,17.26-5.042
							V12.93l0.41,0.002c6.161,0.074,12.079,1.807,17.259,5.042c0.959,0.599,1.215,1.886,0.558,2.806l-0.051,0.072
							c-0.599,0.839-1.745,1.066-2.619,0.52C72.75,18.496,67.482,16.967,62,16.93c-5.481,0.037-10.749,1.566-15.353,4.441
							C45.773,21.917,44.627,21.689,44.028,20.851z"/>
					</g>
					<circle class="st6" cx="62" cy="42.884" r="3.92"/>
					<path class="st5" d="M63.5,39.264c-1.42,0.589-2.42,1.987-2.42,3.62c0,1.633,1,3.031,2.42,3.62
						c1.42-0.589,2.42-1.987,2.42-3.62C65.921,41.251,64.921,39.853,63.5,39.264z"/>
					<g>
						<path class="st7" d="M65.103,100.115h-6.489c-0.552,0-1,0.448-1,1s0.448,1,1,1h6.489c0.553,0,1-0.448,1-1
							S65.655,100.115,65.103,100.115z"/>
						<path class="st7" d="M105.928,88.983V76.771c0-3.193-1.701-5.988-4.239-7.551h2.53c2.454,0,4.451-1.997,4.451-4.451
							c0-2.454-1.997-4.451-4.451-4.451h-5.457c-1.415,0-2.663,0.676-3.479,1.709l-2.037-10.065
							c-1.051-5.188-5.654-8.954-10.947-8.954H66.908c0.001-0.042,0.013-0.082,0.013-0.125c0-2.713-2.208-4.92-4.92-4.92
							s-4.92,2.208-4.92,4.92c0,0.043,0.011,0.082,0.013,0.125H41.702c-5.293,0-9.898,3.766-10.948,8.954l-2.037,10.065
							c-0.816-1.033-2.064-1.709-3.479-1.709h-5.457c-2.454,0-4.451,1.997-4.451,4.451c0,2.455,1.997,4.451,4.451,4.451h2.53
							c-2.538,1.563-4.238,4.358-4.238,7.551v12.212c-3.003,0.635-5.265,3.304-5.265,6.494c0,3.66,2.978,6.638,6.638,6.638h6.078
							v7.077c0,1.59,1.289,2.88,2.88,2.88h8.639c1.59,0,2.88-1.289,2.88-2.88v-7.077h14.002c0.552,0,1-0.448,1-1s-0.448-1-1-1
							H19.447c-2.558,0-4.638-2.081-4.638-4.638s2.081-4.639,4.638-4.639h85.107c2.558,0,4.638,2.081,4.638,4.639
							s-2.08,4.638-4.638,4.638H70.065c-0.553,0-1,0.448-1,1s0.447,1,1,1h14.013v7.077c0,1.59,1.289,2.88,2.88,2.88h8.639
							c1.59,0,2.88-1.289,2.88-2.88v-7.077h6.078c3.66,0,6.638-2.978,6.638-6.638C111.191,92.287,108.931,89.618,105.928,88.983z
							 M98.762,62.319h5.457c1.352,0,2.451,1.1,2.451,2.451c0,1.352-1.1,2.451-2.451,2.451h-5.457c-1.351,0-2.45-1.1-2.45-2.451
							C96.312,63.418,97.411,62.319,98.762,62.319z M62.001,39.964c1.61,0,2.92,1.31,2.92,2.92s-1.31,2.92-2.92,2.92
							s-2.92-1.31-2.92-2.92S60.39,39.964,62.001,39.964z M32.714,52.359c0.862-4.259,4.642-7.351,8.988-7.351h15.88
							c0.796,1.648,2.469,2.796,4.418,2.796s3.622-1.148,4.418-2.796h15.88c4.345,0,8.125,3.091,8.986,7.351l3.146,15.542H29.57
							L32.714,52.359z M17.331,64.769c0-1.351,1.1-2.451,2.451-2.451h5.457c1.352,0,2.451,1.1,2.451,2.451
							c0,1.352-1.1,2.451-2.451,2.451h-5.457C18.43,67.221,17.331,66.121,17.331,64.769z M26.943,69.901h1.404h67.306h1.403
							c3.789,0,6.871,3.082,6.871,6.871v12.067H20.073V76.771C20.073,72.983,23.155,69.901,26.943,69.901z"/>
						<path class="st7" d="M53.058,84.026c0.19,0.264,0.496,0.42,0.821,0.42h6.428c0.559,0,1.012-0.453,1.012-1.012v-4.377
							c0-0.559-0.453-1.012-1.012-1.012h-9.589c-0.826,0-1.304,0.936-0.821,1.605L53.058,84.026z"/>
						<path class="st7" d="M63.694,84.445h6.428c0.325,0,0.63-0.156,0.821-0.42l3.161-4.377c0.484-0.67,0.005-1.605-0.821-1.605
							h-9.589c-0.559,0-1.012,0.453-1.012,1.012v4.377C62.681,83.992,63.135,84.445,63.694,84.445z"/>
						<path class="st7" d="M70.253,97.499v-4.046c0-0.316-0.257-0.573-0.573-0.573H54.321c-0.317,0-0.573,0.257-0.573,0.573v4.046
							c0,0.316,0.257,0.573,0.573,0.573H69.68C69.996,98.073,70.253,97.816,70.253,97.499z"/>
						<path class="st7" d="M70.313,31.106c-2.486-1.395-5.206-2.137-8.095-2.207l-0.41-0.005c-0.052,0.001-0.091,0.002-0.135,0.008
							c-2.839,0.083-5.524,0.825-7.984,2.204c-0.76,0.426-1.298,1.157-1.476,2.004c-0.174,0.833,0.02,1.699,0.536,2.383l0.05,0.065
							c0.573,0.758,1.442,1.164,2.343,1.164c0.509,0,1.028-0.129,1.51-0.397c1.649-0.917,3.455-1.397,5.333-1.428
							c1.911,0.031,3.716,0.511,5.365,1.428c1.333,0.742,2.955,0.421,3.906-0.836c0.513-0.679,0.707-1.546,0.532-2.379
							C71.61,32.262,71.072,31.532,70.313,31.106z M69.607,34.352c-0.289,0.383-0.831,0.478-1.286,0.225
							c-1.939-1.079-4.061-1.644-6.337-1.68c-2.244,0.036-4.365,0.602-6.306,1.68c-0.455,0.254-0.996,0.159-1.286-0.225
							l-0.052-0.068c-0.167-0.221-0.228-0.492-0.17-0.763c0.059-0.282,0.24-0.526,0.497-0.67c2.2-1.233,4.607-1.89,7.153-1.951
							c0.021,0,0.042-0.001,0.063-0.003l0.299,0.003c2.547,0.062,4.953,0.718,7.153,1.952c0.256,0.144,0.437,0.387,0.496,0.669
							C69.888,33.791,69.827,34.062,69.607,34.352z"/>
						<path class="st7" d="M73.507,29.447c0.924,0,1.822-0.434,2.396-1.24c0.001,0,0.052-0.072,0.052-0.072
							c0.479-0.675,0.655-1.527,0.483-2.338c-0.17-0.802-0.67-1.5-1.37-1.915c-3.876-2.294-8.317-3.544-12.854-3.617l-0.41-0.003
							c-0.037,0-0.072,0.001-0.107,0.005c-4.502,0.086-8.913,1.335-12.762,3.615c-0.701,0.415-1.201,1.113-1.371,1.915
							c-0.172,0.812,0.004,1.664,0.534,2.411c0.895,1.259,2.582,1.612,3.924,0.819c3.011-1.774,6.464-2.73,9.969-2.763
							c3.522,0.033,6.977,0.989,9.988,2.764C72.462,29.31,72.988,29.447,73.507,29.447z M51.006,27.303
							c-0.441,0.26-0.99,0.15-1.329-0.327c-0.159-0.223-0.215-0.495-0.158-0.764c0.055-0.26,0.209-0.477,0.434-0.609
							c3.574-2.117,7.674-3.271,11.858-3.337c0.02,0,0.039-0.001,0.059-0.003l0.319,0.003c4.182,0.066,8.282,1.221,11.858,3.337
							c0.225,0.133,0.378,0.349,0.434,0.609c0.057,0.27,0.001,0.542-0.157,0.764l-0.051,0.071v0
							c-0.288,0.406-0.837,0.516-1.278,0.256c-3.314-1.953-7.112-3.004-11.004-3.041C58.117,24.299,54.319,25.35,51.006,27.303z"/>
						<path class="st7" d="M43.214,21.43C43.214,21.431,43.214,21.431,43.214,21.43c0.573,0.803,1.481,1.235,2.405,1.235
							c0.535,0,1.074-0.145,1.558-0.446c4.437-2.771,9.565-4.254,14.817-4.29c5.266,0.036,10.394,1.519,14.831,4.29
							c1.316,0.822,3.057,0.478,4.012-0.858c0.474-0.663,0.653-1.501,0.494-2.301c-0.158-0.799-0.646-1.504-1.336-1.935
							c-5.32-3.322-11.468-5.118-17.783-5.194l-0.41-0.002c-0.031-0.004-0.059,0-0.088,0.003
							c-6.285,0.088-12.407,1.883-17.708,5.193c-0.69,0.431-1.177,1.136-1.335,1.935c-0.159,0.799,0.021,1.637,0.493,2.298
							L43.214,21.43z M44.632,19.451c0.053-0.264,0.207-0.487,0.434-0.629c5.01-3.128,10.799-4.819,16.742-4.89
							c0.017,0,0.035-0.001,0.052-0.002l0.334,0.002c5.943,0.071,11.732,1.762,16.742,4.891c0.227,0.142,0.381,0.365,0.434,0.628
							s-0.005,0.529-0.212,0.819c-0.29,0.407-0.848,0.519-1.274,0.253c-4.749-2.967-10.239-4.555-15.889-4.593
							c-5.636,0.038-11.126,1.626-15.876,4.593c-0.423,0.266-0.984,0.153-1.275-0.254l-0.051-0.071
							C44.636,19.98,44.58,19.715,44.632,19.451z"/>
					</g>
				</g>
			</g>
		</g>
	</g>
</g>
</svg>
