<?xml version="1.0" encoding="utf-8"?>
<!-- Generator: Adobe Illustrator 22.0.1, SVG Export Plug-In . SVG Version: 6.00 Build 0)  -->
<svg version="1.1" id="Layer_1" xmlns="http://www.w3.org/2000/svg" xmlns:xlink="http://www.w3.org/1999/xlink" x="0px" y="0px"
	 viewBox="0 0 128 128" style="enable-background:new 0 0 128 128;" xml:space="preserve">
<style type="text/css">
	.st0{fill:#263238;}
	.st1{fill:#E6E7E8;}
	.st2{fill:#FFD7E5;}
	.st3{fill:#0089EF;}
	.st4{fill:#6DC9F7;}
	.st5{fill:#FA759E;}
	.st6{fill:#FFFFFF;}
	.st7{fill:#3A2C60;}
	.st8{fill:#D4FBFF;}
</style>
<g>
	<g>
		<path class="st1" d="M118.225,54.455h-8.45c-0.649,0-1.23-0.426-1.411-1.034c-0.864-2.913-2.044-5.76-3.51-8.463
			c-0.306-0.564-0.198-1.276,0.268-1.736l5.981-5.979c1.359-1.361,1.359-3.575-0.001-4.935l-11.41-11.399
			c-0.109-0.109-0.218-0.205-0.351-0.309c-1.38-1.053-3.347-0.92-4.573,0.309l-5.98,5.979c-0.038,0.038-0.079,0.073-0.121,0.107
			c-0.045,0.026-0.089,0.058-0.131,0.094l-0.098,0.052c-0.164,0.092-0.321,0.144-0.558,0.17c-0.294,0.049-0.584-0.02-0.827-0.153
			c-2.67-1.453-5.518-2.635-8.465-3.512c-0.618-0.183-1.033-0.749-1.033-1.411v-8.46c0-1.924-1.565-3.489-3.49-3.489h-16.13
			c-1.919,0-3.48,1.565-3.48,3.489v8.46c0,0.649-0.426,1.23-1.035,1.411c-2.835,0.843-5.556,1.956-8.117,3.324l-0.14,0.075
			c-0.08,0.041-0.159,0.083-0.205,0.11c-0.562,0.305-1.276,0.193-1.737-0.268l-5.98-5.979c-0.125-0.125-0.268-0.248-0.36-0.309
			c-1.38-1.053-3.346-0.92-4.574,0.309l-11.4,11.399c-1.36,1.359-1.36,3.573,0,4.935l5.979,5.979
			c0.462,0.462,0.572,1.176,0.27,1.733c-1.453,2.662-2.634,5.511-3.51,8.464c-0.182,0.61-0.762,1.036-1.412,1.036h-8.46
			c-1.924,0-3.49,1.565-3.49,3.489v16.12c0,1.925,1.566,3.49,3.49,3.49h8.46c0.651,0,1.231,0.425,1.412,1.035
			c0.877,2.946,2.058,5.794,3.509,8.46c0.304,0.562,0.194,1.276-0.268,1.737l-5.98,5.98c-1.354,1.354-1.355,3.565,0,4.934
			l11.399,11.4c1.227,1.228,3.193,1.362,4.527,0.343c0.14-0.095,0.283-0.218,0.408-0.343l5.98-5.979
			c0.461-0.461,1.175-0.572,1.706-0.285c0.075,0.044,0.153,0.085,0.23,0.125l0.178,0.097c2.577,1.365,5.297,2.477,8.082,3.304
			c0.61,0.183,1.036,0.763,1.036,1.412v8.45c0,1.925,1.562,3.49,3.48,3.49h16.13c1.924,0,3.49-1.565,3.49-3.49v-8.45
			c0-0.661,0.416-1.229,1.035-1.411c2.902-0.863,5.749-2.044,8.471-3.515c0.232-0.13,0.519-0.209,0.811-0.15
			c0.061,0.011,0.05,0.012,0.111,0.012c0.022,0.004,0.079,0.014,0.101,0.016l0.144,0.045c0.028,0.008,0.092,0.03,0.289,0.135
			c0.043,0.037,0.089,0.07,0.138,0.099c0.045,0.036,0.09,0.074,0.134,0.118l5.98,5.979c1.227,1.229,3.193,1.363,4.583,0.301
			c0.123-0.096,0.231-0.191,0.341-0.301l11.414-11.404c1.352-1.364,1.35-3.576-0.003-4.93l-5.985-5.985
			c-0.461-0.454-0.569-1.167-0.262-1.732c1.464-2.71,2.644-5.557,3.509-8.462c0.183-0.618,0.75-1.033,1.411-1.033h8.45
			c1.924,0,3.49-1.565,3.49-3.49v-16.12C121.715,56.021,120.149,54.455,118.225,54.455z M98.505,66.005
			c0,17.436-13.636,31.698-31.04,32.471c-0.477,0.019-0.973,0.029-1.46,0.029c-17.92,0-32.5-14.579-32.5-32.5s14.58-32.5,32.5-32.5
			c0.486,0,0.981,0.01,1.456,0.029C84.869,34.306,98.505,48.568,98.505,66.005z"/>
		<path class="st1" d="M87.425,76.351L87.425,76.351c-1.478-0.951-3.454-0.522-4.405,0.953c-3.7,5.744-9.982,9.174-16.805,9.174
			c-9.819,0-18.04-7.016-19.68-16.541l1.44,0.356c0.345,0.086,0.713-0.021,0.961-0.277c0.248-0.257,0.339-0.627,0.24-0.971
			l-2.948-10.217c-0.099-0.343-0.374-0.607-0.721-0.693c-0.346-0.086-0.713,0.02-0.96,0.277l-7.375,7.661
			c-0.248,0.257-0.34,0.627-0.241,0.971c0.099,0.343,0.374,0.607,0.721,0.693l2.281,0.564c0.929,13.826,12.331,24.549,26.281,24.549
			c8.999,0,17.284-4.521,22.164-12.095C89.33,79.278,88.903,77.303,87.425,76.351z"/>
		<path class="st1" d="M66.215,39.155c-9.426,0-18.194,5.087-22.881,13.276c-0.422,0.739-0.532,1.599-0.309,2.42
			c0.223,0.821,0.753,1.507,1.494,1.931c1.525,0.868,3.474,0.337,4.347-1.184c3.555-6.212,10.203-10.07,17.35-10.07
			c10.105,0,18.551,7.548,19.81,17.426l-1.928-0.517c-0.344-0.095-0.713,0.006-0.966,0.259c-0.253,0.253-0.352,0.621-0.259,0.966
			l2.752,10.271c0.092,0.345,0.362,0.614,0.707,0.707c0.085,0.023,0.172,0.034,0.259,0.034c0.262,0,0.517-0.103,0.707-0.293
			l7.519-7.52c0.253-0.253,0.352-0.621,0.259-0.966c-0.092-0.345-0.362-0.614-0.707-0.707l-1.818-0.487
			C92.124,50.546,80.468,39.155,66.215,39.155z"/>
	</g>
	<g>
		<g>
			<path class="st6" d="M114.225,51.455h-8.45c-1.09,0-2.06-0.71-2.37-1.75c-0.86-2.9-2.02-5.67-3.43-8.27
				c-0.52-0.96-0.34-2.15,0.44-2.92l5.98-5.98c0.97-0.97,0.97-2.55,0-3.52l-11.41-11.4c-0.08-0.08-0.16-0.15-0.25-0.22
				c-0.97-0.74-2.37-0.67-3.26,0.22l-5.98,5.98c-0.09,0.09-0.19,0.17-0.29,0.25c-0.01,0.01-0.03,0.02-0.04,0.02
				c-0.07,0.06-0.16,0.11-0.24,0.15c-0.27,0.15-0.56,0.25-0.87,0.28c-0.11,0.02-0.22,0.03-0.33,0.03c-0.39,0-0.79-0.09-1.15-0.29
				c-2.61-1.42-5.38-2.57-8.27-3.43c-1.05-0.31-1.75-1.28-1.75-2.37v-8.46c0-1.37-1.12-2.49-2.49-2.49h-16.13
				c-1.37,0-2.48,1.12-2.48,2.49v8.46c0,1.09-0.71,2.06-1.75,2.37c-2.76,0.82-5.41,1.9-7.9,3.23c-0.12,0.07-0.25,0.13-0.37,0.2
				c-0.96,0.52-2.15,0.33-2.92-0.44l-5.98-5.98c-0.08-0.08-0.17-0.16-0.26-0.22c-0.97-0.74-2.37-0.67-3.26,0.22l-11.4,11.4
				c-0.97,0.97-0.97,2.55,0,3.52l5.98,5.98c0.77,0.77,0.96,1.96,0.44,2.92c-1.42,2.6-2.57,5.37-3.43,8.27
				c-0.31,1.04-1.29,1.75-2.37,1.75h-8.46c-1.37,0-2.49,1.11-2.49,2.49v16.12c0,1.37,1.12,2.49,2.49,2.49h8.46
				c1.08,0,2.06,0.7,2.37,1.75c0.86,2.89,2.01,5.66,3.43,8.27c0.52,0.96,0.33,2.15-0.44,2.92l-5.98,5.98
				c-0.97,0.97-0.97,2.54,0,3.52l11.4,11.4c0.89,0.89,2.29,0.96,3.26,0.22c0.09-0.06,0.18-0.14,0.26-0.22l5.98-5.98
				c0.77-0.77,1.96-0.96,2.92-0.44c0.12,0.07,0.25,0.13,0.37,0.2c2.49,1.32,5.14,2.41,7.9,3.23c1.04,0.31,1.75,1.28,1.75,2.37v8.45
				c0,1.38,1.11,2.49,2.48,2.49h16.13c1.37,0,2.49-1.11,2.49-2.49v-8.45c0-1.09,0.7-2.06,1.75-2.37c2.89-0.86,5.66-2.02,8.27-3.43
				c0.36-0.2,0.76-0.29,1.15-0.29c0.11,0,0.22,0.01,0.33,0.03c0.05,0,0.1,0.01,0.15,0.02c0.1,0.01,0.19,0.04,0.28,0.07
				c0.15,0.04,0.3,0.11,0.44,0.19c0.08,0.04,0.17,0.09,0.24,0.15c0.01,0,0.03,0.01,0.04,0.02c0.1,0.08,0.2,0.16,0.29,0.25l5.98,5.98
				c0.89,0.89,2.29,0.96,3.26,0.22c0.09-0.07,0.17-0.14,0.25-0.22l11.41-11.4c0.97-0.98,0.97-2.55,0-3.52l-5.98-5.98
				c-0.78-0.77-0.96-1.96-0.44-2.92c1.41-2.61,2.57-5.38,3.43-8.27c0.31-1.05,1.28-1.75,2.37-1.75h8.45c1.38,0,2.49-1.12,2.49-2.49
				v-16.12C116.715,52.565,115.605,51.455,114.225,51.455z M63.505,95.475c-0.49,0.02-1,0.03-1.5,0.03c-18.5,0-33.5-15-33.5-33.5
				s15-33.5,33.5-33.5c0.5,0,1.01,0.01,1.5,0.03c0,0,0.01,0,0.02,0c17.8,0.8,31.98,15.48,31.98,33.47s-14.18,32.67-31.98,33.47
				C63.515,95.475,63.505,95.475,63.505,95.475z"/>
			<path class="st5" d="M114.225,51.455h-8.45c-1.09,0-2.06-0.71-2.37-1.75c-0.86-2.9-2.02-5.67-3.43-8.27
				c-0.52-0.96-0.34-2.15,0.44-2.92l5.98-5.98c0.97-0.97,0.97-2.55,0-3.52l-6.389-6.383l0,0l-5.021-5.017
				c-0.08-0.08-0.16-0.15-0.25-0.22c-0.97-0.74-2.37-0.67-3.26,0.22l-5.98,5.98c-0.09,0.09-0.19,0.17-0.29,0.25
				c-0.01,0.01-0.03,0.02-0.04,0.02c-0.07,0.06-0.16,0.11-0.24,0.15c-0.27,0.15-0.56,0.25-0.87,0.28c-0.11,0.02-0.22,0.03-0.33,0.03
				c-0.39,0-0.79-0.09-1.15-0.29c-2.61-1.42-5.38-2.57-8.27-3.43c-1.05-0.31-1.75-1.28-1.75-2.37v-8.46c0-1.37-1.12-2.49-2.49-2.49
				h-16.13c-1.37,0-2.48,1.12-2.48,2.49v8.46c0,1.09-0.71,2.06-1.75,2.37c-2.76,0.82-5.41,1.9-7.9,3.23
				c-0.12,0.07-0.25,0.13-0.37,0.2c-0.96,0.52-2.15,0.33-2.92-0.44l-5.98-5.98c-0.08-0.08-0.17-0.16-0.26-0.22
				c-0.09,0.06-0.18,0.14-0.26,0.22l-11.4,11.4c-0.97,0.97-0.97,2.55,0,3.52l5.98,5.98c0.77,0.77,0.96,1.96,0.44,2.92
				c-1.42,2.6-2.57,5.37-3.43,8.27c-0.31,1.04-1.29,1.75-2.37,1.75h-3h-5.46c-1.37,0-2.49,1.11-2.49,2.49v16.12
				c0,1.37,1.12,2.49,2.49,2.49h5.46h3c1.08,0,2.06,0.7,2.37,1.75c0.86,2.89,2.01,5.66,3.43,8.27c0.52,0.96,0.33,2.15-0.44,2.92
				l-5.98,5.98c-0.97,0.97-0.97,2.54,0,3.52l11.4,11.4c0.08,0.08,0.17,0.16,0.26,0.22c0.09-0.06,0.18-0.14,0.26-0.22l5.98-5.98
				c0.133-0.133,0.281-0.241,0.435-0.339c0.034-0.021,0.067-0.042,0.102-0.062c0.159-0.09,0.324-0.167,0.497-0.22
				c0.001,0,0.003-0.001,0.004-0.001c0.177-0.054,0.361-0.083,0.545-0.096c0.023-0.002,0.046-0.004,0.069-0.005
				c0.19-0.009,0.38,0.002,0.569,0.038c0,0,0,0,0,0l0,0c0.239,0.046,0.475,0.124,0.698,0.245c0.12,0.07,0.25,0.13,0.37,0.2
				c2.49,1.32,5.14,2.41,7.9,3.23c1.04,0.31,1.75,1.28,1.75,2.37v8.45c0,1.38,1.11,2.49,2.48,2.49h16.13c1.37,0,2.49-1.11,2.49-2.49
				v-8.45c0-1.09,0.7-2.06,1.75-2.37c2.89-0.86,5.66-2.02,8.27-3.43c0.36-0.2,0.76-0.29,1.15-0.29c0.11,0,0.22,0.01,0.33,0.03
				c0.05,0,0.1,0.01,0.15,0.02c0.1,0.01,0.19,0.04,0.28,0.07c0.15,0.04,0.3,0.11,0.44,0.19c0.08,0.04,0.17,0.09,0.24,0.15
				c0.01,0,0.03,0.01,0.04,0.02c0.1,0.08,0.2,0.16,0.29,0.25l5.98,5.98c0.89,0.89,2.29,0.96,3.26,0.22
				c0.09-0.07,0.17-0.14,0.25-0.22l3.072-3.069l0,0l8.338-8.331c0.97-0.98,0.97-2.55,0-3.52l-5.98-5.98
				c-0.78-0.77-0.96-1.96-0.44-2.92c1.41-2.61,2.57-5.38,3.43-8.27c0.31-1.05,1.28-1.75,2.37-1.75h8.45c1.38,0,2.49-1.12,2.49-2.49
				v-16.12C116.715,52.565,115.605,51.455,114.225,51.455z M63.525,95.475c-0.01,0-0.02,0-0.02,0c-0.49,0.02-1,0.03-1.5,0.03
				c-18.5,0-33.5-15-33.5-33.5s15-33.5,33.5-33.5c0.5,0,1.01,0.01,1.5,0.03c0,0,0.01,0,0.02,0c17.8,0.8,31.98,15.48,31.98,33.47
				S81.325,94.675,63.525,95.475z"/>
			<g>
				<path class="st4" d="M82.884,73.191c-1.016-0.653-2.368-0.361-3.023,0.654c-3.885,6.031-10.482,9.632-17.646,9.632
					c-10.853,0-19.807-8.287-20.868-18.866l2.868,0.71l-2.948-10.217l-7.374,7.661l3,0.743
					c0.531,13.512,11.683,24.342,25.322,24.342c8.658,0,16.628-4.35,21.323-11.637C84.192,75.199,83.899,73.846,82.884,73.191z"/>
				<g>
					<path class="st4" d="M87.562,61.473c-0.017-13.963-11.38-25.318-25.347-25.318c-9.069,0-17.503,4.894-22.013,12.773
						c-0.6,1.048-0.236,2.385,0.812,2.985c1.048,0.597,2.383,0.237,2.984-0.811c3.732-6.522,10.713-10.573,18.217-10.573
						c11.158,0,20.306,8.759,20.936,19.762l-3.314-0.888l2.752,10.271l7.519-7.519L87.562,61.473z"/>
					<g>
						<path class="st7" d="M30.824,71.2c-0.458-1.554-0.8-3.156-1.02-4.763c-0.075-0.548-0.583-0.931-1.126-0.856
							c-0.547,0.075-0.93,0.579-0.855,1.126c0.232,1.707,0.597,3.408,1.082,5.058c0.128,0.436,0.527,0.718,0.959,0.718
							c0.094,0,0.188-0.013,0.283-0.041C30.677,72.286,30.98,71.729,30.824,71.2z"/>
						<path class="st7" d="M63.547,27.536c-0.503-0.021-1.028-0.031-1.542-0.031c-19.023,0-34.5,15.477-34.5,34.5
							c0,0.553,0.448,1,1,1s1-0.447,1-1c0-17.921,14.58-32.5,32.5-32.5c0.486,0,0.982,0.01,1.456,0.029
							c17.408,0.772,31.044,15.035,31.044,32.471S80.869,93.703,63.463,94.475c-0.476,0.02-0.972,0.029-1.458,0.029
							c-12.61,0-24.189-7.396-29.498-18.841c-0.233-0.501-0.829-0.722-1.328-0.486c-0.501,0.232-0.719,0.827-0.486,1.328
							c5.636,12.148,17.927,19.999,31.313,19.999c0.514,0,1.039-0.01,1.544-0.031c18.479-0.819,32.956-15.96,32.956-34.469
							S82.029,28.355,63.547,27.536z"/>
						<path class="st7" d="M114.225,50.455h-8.45c-0.649,0-1.23-0.426-1.411-1.034c-0.864-2.913-2.044-5.76-3.509-8.463
							c-0.306-0.564-0.198-1.276,0.268-1.736l5.98-5.979c1.359-1.361,1.359-3.575-0.001-4.935l-11.41-11.399
							c-0.11-0.11-0.219-0.206-0.351-0.309c-1.381-1.053-3.347-0.92-4.573,0.309l-5.978,5.978c-0.035,0.035-0.072,0.067-0.121,0.107
							c-0.046,0.027-0.09,0.059-0.132,0.095l-0.099,0.053c-0.164,0.092-0.32,0.144-0.557,0.17c-0.297,0.05-0.583-0.019-0.828-0.154
							c-2.671-1.452-5.518-2.634-8.465-3.511c-0.618-0.183-1.033-0.749-1.033-1.411v-8.46c0-1.924-1.566-3.489-3.49-3.489h-16.13
							c-1.919,0-3.48,1.565-3.48,3.489v8.46c0,0.649-0.426,1.23-1.035,1.411c-2.835,0.843-5.556,1.956-8.121,3.326l-0.141,0.076
							c-0.078,0.04-0.155,0.081-0.2,0.107c-0.562,0.306-1.276,0.193-1.737-0.268l-5.98-5.979c-0.125-0.125-0.268-0.248-0.361-0.309
							c-1.381-1.053-3.346-0.92-4.573,0.309l-11.4,11.399c-1.36,1.359-1.36,3.573,0,4.935l5.98,5.979
							c0.461,0.462,0.572,1.176,0.27,1.733c-1.454,2.661-2.635,5.51-3.511,8.464c-0.182,0.61-0.762,1.036-1.412,1.036h-8.46
							c-1.924,0-3.49,1.565-3.49,3.49v16.119c0,1.925,1.565,3.49,3.49,3.49h8.46c0.651,0,1.231,0.425,1.412,1.035
							c0.876,2.945,2.057,5.793,3.509,8.462c0.304,0.561,0.193,1.274-0.268,1.736l-5.981,5.979c-1.352,1.354-1.354,3.565,0,4.935
							l11.4,11.399c1.227,1.227,3.192,1.36,4.526,0.343c0.14-0.095,0.283-0.218,0.408-0.343l5.98-5.979
							c0.46-0.462,1.175-0.573,1.707-0.284c0.075,0.043,0.152,0.084,0.229,0.124l0.178,0.097c2.571,1.363,5.291,2.476,8.083,3.305
							c0.609,0.182,1.035,0.762,1.035,1.411v8.45c0,1.925,1.561,3.49,3.48,3.49h16.13c1.924,0,3.49-1.565,3.49-3.49v-8.45
							c0-0.661,0.415-1.228,1.035-1.411c2.903-0.864,5.75-2.045,8.471-3.515c0.233-0.13,0.521-0.201,0.819-0.149
							c0.058,0.011,0.043,0.011,0.102,0.011l0.244,0.061c0.022,0.007,0.088,0.027,0.289,0.135c0.042,0.036,0.087,0.068,0.135,0.097
							c0.048,0.039,0.095,0.078,0.137,0.12l5.979,5.979c1.227,1.229,3.194,1.36,4.582,0.303c0.124-0.097,0.233-0.192,0.342-0.303
							l11.415-11.403c1.35-1.365,1.349-3.577-0.004-4.931l-5.984-5.984c-0.461-0.455-0.569-1.167-0.263-1.732
							c1.465-2.713,2.645-5.56,3.509-8.463c0.183-0.618,0.75-1.033,1.411-1.033h8.45c1.924,0,3.49-1.565,3.49-3.49V53.945
							C117.715,52.02,116.149,50.455,114.225,50.455z M115.715,70.064c0,0.821-0.668,1.49-1.49,1.49h-8.45
							c-1.556,0-2.894,0.991-3.329,2.465c-0.824,2.771-1.952,5.488-3.351,8.079c-0.727,1.343-0.473,3.031,0.612,4.104l5.979,5.979
							c0.578,0.578,0.576,1.524,0.001,2.106l-11.411,11.399c-0.05,0.05-0.101,0.095-0.149,0.133
							c-0.587,0.445-1.425,0.391-1.946-0.133L86.2,99.706c-0.116-0.115-0.242-0.219-0.306-0.266c-0.053-0.05-0.113-0.096-0.18-0.135
							c-0.125-0.092-0.242-0.154-0.292-0.178c-0.236-0.136-0.458-0.23-0.618-0.271c-0.104-0.035-0.279-0.095-0.41-0.105
							c-0.076-0.015-0.152-0.026-0.229-0.032c-0.73-0.115-1.466,0.042-2.065,0.375c-2.59,1.399-5.309,2.526-8.078,3.352
							c-1.476,0.435-2.467,1.772-2.467,3.328v8.45c0,0.821-0.668,1.49-1.49,1.49h-16.13c-0.816,0-1.48-0.669-1.48-1.49v-8.45
							c0-1.527-1.014-2.896-2.465-3.328c-2.666-0.792-5.262-1.854-7.679-3.135c-0.075-0.043-0.152-0.084-0.229-0.124l-0.17-0.093
							c-0.509-0.274-1.068-0.408-1.627-0.408c-0.906,0-1.807,0.352-2.476,1.021l-5.98,5.979c-0.035,0.035-0.073,0.072-0.16,0.133
							c-0.586,0.445-1.424,0.391-1.946-0.133L18.326,94.292c-0.579-0.586-0.581-1.532-0.004-2.11l5.981-5.979
							c1.082-1.084,1.333-2.771,0.611-4.104c-1.387-2.549-2.514-5.267-3.35-8.076c-0.429-1.452-1.798-2.467-3.329-2.467h-8.46
							c-0.821,0-1.49-0.669-1.49-1.49V53.945c0-0.821,0.668-1.49,1.49-1.49h8.46c1.527,0,2.896-1.014,3.329-2.466
							c0.836-2.821,1.963-5.538,3.351-8.078c0.722-1.333,0.47-3.02-0.612-4.104l-5.98-5.979c-0.581-0.581-0.581-1.526,0-2.106
							l11.401-11.399c0.522-0.523,1.359-0.579,1.993-0.099c0.04,0.026,0.077,0.063,0.112,0.099l5.979,5.979
							c1.083,1.083,2.77,1.337,4.133,0.597l0.141-0.076c0.078-0.04,0.155-0.081,0.195-0.105c2.412-1.288,5.007-2.35,7.714-3.154
							c1.451-0.432,2.465-1.8,2.465-3.328v-8.46c0-0.821,0.664-1.489,1.48-1.489h16.13c0.822,0,1.49,0.668,1.49,1.489v8.46
							c0,1.557,0.992,2.895,2.465,3.328c2.811,0.838,5.529,1.965,8.071,3.348c0.491,0.271,1.056,0.415,1.634,0.415
							c0.168,0,0.336-0.016,0.427-0.035c0.433-0.042,0.856-0.178,1.22-0.381c0.09-0.045,0.214-0.111,0.34-0.203
							c0.042-0.024,0.082-0.052,0.118-0.08c0.128-0.103,0.255-0.207,0.373-0.324l5.98-5.979c0.522-0.523,1.359-0.579,1.938-0.139
							c0.057,0.044,0.107,0.089,0.158,0.139l11.41,11.399c0.581,0.58,0.58,1.525,0,2.106l-5.976,5.975
							c-1.09,1.077-1.344,2.766-0.616,4.108c1.398,2.581,2.526,5.299,3.35,8.08c0.433,1.45,1.801,2.464,3.329,2.464h8.45
							c0.821,0,1.49,0.669,1.49,1.49V70.064z"/>
						<path class="st7" d="M32.933,63.044c0.099,0.343,0.374,0.607,0.721,0.693l2.281,0.564
							C36.863,78.128,48.266,88.85,62.215,88.85c8.999,0,17.285-4.521,22.163-12.095c0.461-0.716,0.616-1.567,0.436-2.399
							c-0.18-0.832-0.673-1.545-1.388-2.006c0,0-0.001,0-0.001,0c-1.477-0.952-3.454-0.523-4.404,0.953
							c-3.7,5.744-9.982,9.174-16.806,9.174c-9.818,0-18.04-7.016-19.679-16.541l1.439,0.356c0.345,0.084,0.713-0.021,0.961-0.277
							s0.339-0.627,0.24-0.971l-2.947-10.217c-0.099-0.343-0.374-0.607-0.721-0.693c-0.347-0.085-0.713,0.021-0.96,0.277
							l-7.375,7.661C32.926,62.33,32.834,62.7,32.933,63.044z M40.788,57.047l1.987,6.889l-1.187-0.294
							c-0.314-0.077-0.65,0.003-0.895,0.215c-0.246,0.213-0.373,0.532-0.34,0.855c1.13,11.269,10.529,19.766,21.863,19.766
							c7.506,0,14.417-3.772,18.487-10.09c0.354-0.55,1.09-0.71,1.641-0.355c0.266,0.172,0.45,0.438,0.517,0.747
							s0.009,0.627-0.163,0.893c-4.509,7-12.166,11.179-20.482,11.179c-13.124,0-23.808-10.271-24.323-23.381
							c-0.017-0.445-0.327-0.825-0.759-0.932l-1.318-0.326L40.788,57.047z"/>
						<path class="st7" d="M79.131,58.696c-0.253,0.253-0.352,0.621-0.259,0.966l2.752,10.271c0.092,0.345,0.362,0.614,0.707,0.707
							c0.085,0.023,0.172,0.034,0.259,0.034c0.262,0,0.517-0.103,0.707-0.293l7.52-7.52c0.253-0.253,0.352-0.621,0.259-0.966
							c-0.092-0.345-0.362-0.614-0.707-0.707l-1.819-0.487c-0.426-14.156-12.082-25.547-26.334-25.547
							c-9.426,0-18.194,5.087-22.881,13.276c-0.873,1.525-0.342,3.477,1.185,4.35c1.525,0.871,3.475,0.339,4.348-1.183
							c3.554-6.212,10.202-10.07,17.349-10.07c10.105,0,18.551,7.548,19.81,17.426l-1.928-0.517
							C79.753,58.343,79.384,58.442,79.131,58.696z M82.893,61.257c0.311,0.085,0.641,0.013,0.89-0.19
							c0.249-0.202,0.385-0.512,0.367-0.833c-0.666-11.61-10.3-20.705-21.935-20.705c-7.862,0-15.175,4.244-19.084,11.075
							c-0.326,0.567-1.053,0.766-1.621,0.441c-0.568-0.325-0.766-1.052-0.441-1.619c4.333-7.568,12.435-12.271,21.146-12.271
							c13.409,0,24.331,10.909,24.347,24.318c0,0.452,0.304,0.848,0.741,0.965l0.875,0.234l-5.07,5.07l-1.855-6.926L82.893,61.257z"
							/>
					</g>
				</g>
			</g>
		</g>
	</g>
</g>
</svg>
