<?xml version="1.0" encoding="utf-8"?>
<!-- Generator: Adobe Illustrator 22.0.1, SVG Export Plug-In . SVG Version: 6.00 Build 0)  -->
<svg version="1.1" id="Layer_1" xmlns="http://www.w3.org/2000/svg" xmlns:xlink="http://www.w3.org/1999/xlink" x="0px" y="0px"
	 viewBox="0 0 128 128" style="enable-background:new 0 0 128 128;" xml:space="preserve">
<style type="text/css">
	.st0{fill:#263238;}
	.st1{fill:#E6E7E8;}
	.st2{fill:#FFD7E5;}
	.st3{fill:#0089EF;}
	.st4{fill:#6DC9F7;}
	.st5{fill:#FA759E;}
	.st6{fill:#FFFFFF;}
	.st7{fill:#3A2C60;}
	.st8{fill:#D4FBFF;}
</style>
<g>
	<g>
		<path class="st1" d="M20.238,31.923h2.163c0.553,0,1-0.448,1-1s-0.447-1-1-1h-2.163c-0.553,0-1,0.448-1,1
			S19.686,31.923,20.238,31.923z"/>
		<path class="st1" d="M47.688,31.923h2.163c0.553,0,1-0.448,1-1s-0.447-1-1-1h-2.163c-0.553,0-1,0.448-1,1
			S47.135,31.923,47.688,31.923z"/>
		<path class="st1" d="M25.398,22.69c0.195,0.195,0.451,0.293,0.707,0.293s0.512-0.098,0.707-0.293c0.391-0.391,0.391-1.023,0-1.414
			l-1.529-1.529c-0.391-0.391-1.023-0.391-1.414,0s-0.391,1.023,0,1.414L25.398,22.69z"/>
		<path class="st1" d="M44.692,39.157c-0.391-0.391-1.023-0.391-1.414,0s-0.391,1.023,0,1.414l1.529,1.529
			c0.195,0.195,0.451,0.293,0.707,0.293s0.512-0.098,0.707-0.293c0.391-0.391,0.391-1.023,0-1.414L44.692,39.157z"/>
		<path class="st1" d="M24.575,42.393c0.256,0,0.512-0.098,0.707-0.293l1.529-1.529c0.391-0.391,0.391-1.023,0-1.414
			s-1.023-0.391-1.414,0l-1.529,1.529c-0.391,0.391-0.391,1.023,0,1.414C24.064,42.295,24.319,42.393,24.575,42.393z"/>
		<path class="st1" d="M43.984,22.983c0.256,0,0.512-0.098,0.707-0.293l1.529-1.529c0.391-0.391,0.391-1.023,0-1.414
			s-1.023-0.391-1.414,0l-1.529,1.529c-0.391,0.391-0.391,1.023,0,1.414C43.473,22.886,43.729,22.983,43.984,22.983z"/>
		<path class="st1" d="M35.045,19.28c0.553,0,1-0.448,1-1v-2.163c0-0.552-0.447-1-1-1s-1,0.448-1,1v2.163
			C34.045,18.832,34.492,19.28,35.045,19.28z"/>
		<path class="st1" d="M125.756,114.883h-5.605v-1.401c0-2.619-2.131-4.749-4.749-4.749h-2.889V28.644
			c0-2.406-1.958-4.364-4.364-4.364H85.266c-2.406,0-4.364,1.958-4.364,4.364v31.32H50.851v-9.949c0-3.641-2.962-6.602-6.602-6.602
			h-4.504v-0.76c0-0.366-0.136-0.698-0.354-0.96l0.025-0.083c0.387-1.276,1.107-2.372,2.085-3.169
			c2.395-1.952,3.768-4.84,3.768-7.925c0-5.549-4.512-10.135-10.059-10.223c-2.731-0.056-5.318,1.007-7.304,2.958
			c-1.984,1.95-3.081,4.523-3.086,7.247c-0.005,3.067,1.35,5.947,3.718,7.902c1.008,0.832,1.753,1.971,2.159,3.294
			c-0.217,0.262-0.354,0.593-0.354,0.959v0.76h-4.503c-3.641,0-6.603,2.961-6.603,6.602v58.718h-3.671
			c-2.618,0-4.749,2.13-4.749,4.749v1.401H6.244c-0.553,0-1,0.448-1,1s0.447,1,1,1h5.574h1.031h106.301h6.605c0.553,0,1-0.448,1-1
			S126.309,114.883,125.756,114.883z"/>
	</g>
	<g>
		<g>
			<path class="st3" d="M37.49,92.677c0-1.28-0.378-2.469-1.021-3.472V61.761c0-2.649,2.148-4.797,4.797-4.797h4.584V46.015
				c0-3.094-2.508-5.602-5.602-5.602h-5.503v0.484c0,1.335-0.951,2.447-2.212,2.698v0.28c0,0.556-0.451,1.007-1.007,1.007h-0.964
				c-0.556,0-1.007-0.451-1.007-1.007v-0.28c-1.261-0.252-2.212-1.364-2.212-2.699v-0.484h-5.503c-3.094,0-5.602,2.508-5.602,5.602
				v59.718h20.231v-9.583C37.113,95.147,37.49,93.957,37.49,92.677z"/>
			<path class="st4" d="M24.599,92.677c0-1.262,0.368-2.435,0.994-3.429V48.91c0-0.325-0.264-0.589-0.589-0.589H23.93
				c-0.325,0-0.589,0.264-0.589,0.589v51.203c0,0.325,0.264,0.589,0.589,0.589h1.075c0.325,0,0.589-0.264,0.589-0.589v-4.007
				C24.967,95.112,24.599,93.939,24.599,92.677z"/>
			<g>
				<path class="st4" d="M31.045,99.123c-0.385,0-0.76-0.04-1.127-0.105v1.095c0,0.325,0.264,0.589,0.589,0.589h1.075
					c0.325,0,0.589-0.264,0.589-0.589v-1.095C31.805,99.083,31.43,99.123,31.045,99.123z"/>
				<path class="st4" d="M31.045,86.232c0.385,0,0.76,0.04,1.126,0.105V48.91c0-0.325-0.264-0.589-0.589-0.589h-1.075
					c-0.325,0-0.589,0.264-0.589,0.589v37.426C30.285,86.272,30.66,86.232,31.045,86.232z"/>
			</g>
			<path class="st4" d="M38.749,57.694V48.91c0-0.325-0.264-0.589-0.589-0.589h-1.075c-0.325,0-0.589,0.264-0.589,0.589v12.589
				C36.584,59.888,37.456,58.495,38.749,57.694z"/>
			<path class="st3" d="M104.149,21.28H81.265c-1.858,0-3.364,1.506-3.364,3.364v32.32h0.911c2.649,0,4.797,2.148,4.797,4.797
				v43.972h23.904V24.644C107.513,22.786,106.007,21.28,104.149,21.28z"/>
			<g>
				<path class="st4" d="M86.566,26.923h-2.527c-0.434,0-0.786,0.352-0.786,0.785v5.566c0,0.434,0.352,0.785,0.786,0.785h2.527
					c0.434,0,0.786-0.352,0.786-0.785v-5.566C87.351,27.275,86.999,26.923,86.566,26.923z"/>
				<path class="st4" d="M93.971,26.923h-2.527c-0.434,0-0.785,0.352-0.785,0.785v5.566c0,0.434,0.352,0.785,0.785,0.785h2.527
					c0.434,0,0.785-0.352,0.785-0.785v-5.566C94.756,27.275,94.404,26.923,93.971,26.923z"/>
				<path class="st4" d="M101.375,26.923h-2.527c-0.434,0-0.785,0.352-0.785,0.785v5.566c0,0.434,0.352,0.785,0.785,0.785h2.527
					c0.434,0,0.785-0.352,0.785-0.785v-5.566C102.161,27.275,101.809,26.923,101.375,26.923z"/>
				<path class="st4" d="M86.566,38.23h-2.527c-0.434,0-0.786,0.352-0.786,0.785v5.566c0,0.434,0.352,0.785,0.786,0.785h2.527
					c0.434,0,0.786-0.352,0.786-0.785v-5.566C87.351,38.582,86.999,38.23,86.566,38.23z"/>
				<path class="st4" d="M93.971,38.23h-2.527c-0.434,0-0.785,0.352-0.785,0.785v5.566c0,0.434,0.352,0.785,0.785,0.785h2.527
					c0.434,0,0.785-0.352,0.785-0.785v-5.566C94.756,38.582,94.404,38.23,93.971,38.23z"/>
				<path class="st4" d="M101.375,38.23h-2.527c-0.434,0-0.785,0.352-0.785,0.785v5.566c0,0.434,0.352,0.785,0.785,0.785h2.527
					c0.434,0,0.785-0.352,0.785-0.785v-5.566C102.161,38.582,101.809,38.23,101.375,38.23z"/>
				<path class="st4" d="M86.566,49.537h-2.527c-0.434,0-0.786,0.352-0.786,0.785v5.566c0,0.434,0.352,0.785,0.786,0.785h2.527
					c0.434,0,0.786-0.352,0.786-0.785v-5.566C87.351,49.889,86.999,49.537,86.566,49.537z"/>
				<path class="st4" d="M93.971,49.537h-2.527c-0.434,0-0.785,0.352-0.785,0.785v5.566c0,0.434,0.352,0.785,0.785,0.785h2.527
					c0.434,0,0.785-0.352,0.785-0.785v-5.566C94.756,49.889,94.404,49.537,93.971,49.537z"/>
				<path class="st4" d="M101.375,49.537h-2.527c-0.434,0-0.785,0.352-0.785,0.785v5.566c0,0.434,0.352,0.785,0.785,0.785h2.527
					c0.434,0,0.785-0.352,0.785-0.785v-5.566C102.161,49.889,101.809,49.537,101.375,49.537z"/>
				<path class="st4" d="M93.971,60.844h-2.527c-0.434,0-0.785,0.352-0.785,0.785v5.566c0,0.434,0.352,0.785,0.785,0.785h2.527
					c0.434,0,0.785-0.352,0.785-0.785V61.63C94.756,61.196,94.404,60.844,93.971,60.844z"/>
				<path class="st4" d="M101.375,60.844h-2.527c-0.434,0-0.785,0.352-0.785,0.785v5.566c0,0.434,0.352,0.785,0.785,0.785h2.527
					c0.434,0,0.785-0.352,0.785-0.785V61.63C102.161,61.196,101.809,60.844,101.375,60.844z"/>
				<path class="st4" d="M93.971,72.151h-2.527c-0.434,0-0.785,0.352-0.785,0.785v5.566c0,0.434,0.352,0.785,0.785,0.785h2.527
					c0.434,0,0.785-0.352,0.785-0.785v-5.566C94.756,72.503,94.404,72.151,93.971,72.151z"/>
				<path class="st4" d="M101.375,72.151h-2.527c-0.434,0-0.785,0.352-0.785,0.785v5.566c0,0.434,0.352,0.785,0.785,0.785h2.527
					c0.434,0,0.785-0.352,0.785-0.785v-5.566C102.161,72.503,101.809,72.151,101.375,72.151z"/>
				<path class="st4" d="M92.707,86.232c0.717,0,1.405,0.122,2.049,0.338v-2.327c0-0.434-0.352-0.785-0.785-0.785h-2.527
					c-0.434,0-0.785,0.352-0.785,0.785v2.327C91.303,86.354,91.99,86.232,92.707,86.232z"/>
				<path class="st4" d="M101.375,83.458h-2.527c-0.434,0-0.785,0.352-0.785,0.785v4.849c0.308,0.458,0.553,0.961,0.735,1.492
					c0.017,0.001,0.032,0.01,0.05,0.01h2.527c0.434,0,0.785-0.352,0.785-0.785v-5.566C102.161,83.81,101.809,83.458,101.375,83.458z
					"/>
			</g>
			<g>
				<g>
					<g>
						<path class="st8" d="M40.269,26.516c0-5.044-4.049-9.143-9.075-9.223c-5.073-0.081-9.365,4.132-9.374,9.206
							c-0.005,2.871,1.302,5.435,3.354,7.13c1.192,0.984,2.041,2.322,2.489,3.801l0.216,0.714h6.329l0.249-0.823
							c0.432-1.426,1.255-2.713,2.41-3.654C38.944,31.975,40.269,29.401,40.269,26.516z"/>
						<path class="st5" d="M31.825,21.802l0.725,2.23c0.11,0.338,0.425,0.567,0.78,0.567h2.345c0.794,0,1.125,1.017,0.482,1.484
							l-1.897,1.378c-0.287,0.209-0.408,0.579-0.298,0.917l0.725,2.23c0.245,0.756-0.619,1.384-1.262,0.917l-1.897-1.378
							c-0.287-0.209-0.677-0.209-0.964,0l-1.897,1.378c-0.643,0.467-1.508-0.161-1.262-0.917l0.725-2.23
							c0.11-0.338-0.01-0.708-0.298-0.917l-1.897-1.378c-0.643-0.467-0.312-1.484,0.482-1.484h2.345c0.355,0,0.67-0.229,0.78-0.567
							l0.725-2.23C30.51,21.047,31.579,21.047,31.825,21.802z"/>
						<path class="st5" d="M27.853,38.143c-0.281,0-0.509,0.228-0.509,0.509v2.244c0,1.335,0.951,2.447,2.212,2.699v0.28
							c0,0.556,0.451,1.007,1.007,1.007h0.964c0.556,0,1.007-0.451,1.007-1.007v-0.28c1.261-0.252,2.212-1.363,2.212-2.698v-2.244
							c0-0.281-0.228-0.509-0.509-0.509H27.853z"/>
					</g>
				</g>
			</g>
			<path class="st6" d="M78.813,56.964H41.266c-2.649,0-4.797,2.148-4.797,4.797v27.445c0.643,1.003,1.021,2.192,1.021,3.472
				s-0.378,2.469-1.021,3.472v9.583h47.14V61.761C83.609,59.111,81.462,56.964,78.813,56.964z"/>
			<path class="st4" d="M78.813,59.964H41.266c-2.649,0-4.797,2.148-4.797,4.797v24.445c0.643,1.003,1.021,2.192,1.021,3.472
				s-0.378,2.469-1.021,3.472v9.583h47.14V64.761C83.609,62.111,81.462,59.964,78.813,59.964z"/>
			<path class="st5" d="M115.15,111.883H7.819v-2.401c0-2.071,1.678-3.749,3.749-3.749h99.834c2.071,0,3.749,1.678,3.749,3.749
				V111.883z"/>
		</g>
		<path class="st8" d="M31.045,86.232c-3.56,0-6.446,2.886-6.446,6.445c0,3.56,2.886,6.446,6.446,6.446
			c3.56,0,6.445-2.886,6.445-6.446C37.49,89.118,34.604,86.232,31.045,86.232z"/>
		<g>
			<circle class="st8" cx="92.707" cy="92.677" r="6.446"/>
			<g>
				<path class="st7" d="M16.238,27.923h2.163c0.553,0,1-0.448,1-1s-0.447-1-1-1h-2.163c-0.553,0-1,0.448-1,1
					S15.685,27.923,16.238,27.923z"/>
				<path class="st7" d="M43.688,27.923h2.162c0.553,0,1-0.448,1-1s-0.447-1-1-1h-2.162c-0.553,0-1,0.448-1,1
					S43.136,27.923,43.688,27.923z"/>
				<path class="st7" d="M21.397,18.69c0.195,0.195,0.451,0.293,0.707,0.293s0.512-0.098,0.707-0.293
					c0.391-0.391,0.391-1.023,0-1.414l-1.529-1.529c-0.391-0.391-1.023-0.391-1.414,0s-0.391,1.023,0,1.414L21.397,18.69z"/>
				<path class="st7" d="M40.692,35.156c-0.391-0.391-1.023-0.391-1.414,0c-0.391,0.39-0.391,1.023,0,1.414l1.529,1.53
					c0.195,0.195,0.451,0.293,0.707,0.293s0.512-0.098,0.707-0.293c0.391-0.39,0.391-1.023,0-1.414L40.692,35.156z"/>
				<path class="st7" d="M20.575,38.393c0.256,0,0.512-0.098,0.707-0.293l1.529-1.53c0.391-0.391,0.391-1.024,0-1.414
					c-0.391-0.391-1.023-0.391-1.414,0l-1.529,1.53c-0.391,0.391-0.391,1.024,0,1.414C20.063,38.295,20.319,38.393,20.575,38.393z"
					/>
				<path class="st7" d="M39.985,18.983c0.256,0,0.512-0.098,0.707-0.293l1.529-1.529c0.391-0.391,0.391-1.023,0-1.414
					s-1.023-0.391-1.414,0l-1.529,1.529c-0.391,0.391-0.391,1.023,0,1.414C39.474,18.886,39.729,18.983,39.985,18.983z"/>
				<path class="st7" d="M31.045,15.28c0.553,0,1-0.448,1-1v-2.163c0-0.552-0.447-1-1-1s-1,0.448-1,1v2.163
					C30.045,14.833,30.492,15.28,31.045,15.28z"/>
				<path class="st7" d="M51.427,106.733h5.825c0.553,0,1-0.448,1-1s-0.447-1-1-1h-5.825c-0.553,0-1,0.448-1,1
					S50.874,106.733,51.427,106.733z"/>
				<path class="st7" d="M121.757,110.882h-5.606v-1.4c0-2.619-2.131-4.749-4.749-4.749h-2.888V24.644
					c0-2.406-1.958-4.364-4.364-4.364H81.266c-2.406,0-4.364,1.958-4.364,4.364v31.32H46.85v-9.949c0-3.641-2.962-6.602-6.602-6.602
					h-4.503v-0.76c0-0.367-0.137-0.699-0.355-0.96l0.025-0.083c0.387-1.276,1.107-2.372,2.085-3.169
					c2.395-1.952,3.769-4.841,3.769-7.925c0-5.549-4.513-10.135-10.06-10.223c-2.728-0.052-5.318,1.007-7.304,2.958
					c-1.984,1.95-3.081,4.523-3.086,7.247c-0.005,3.066,1.35,5.946,3.718,7.903c1.008,0.831,1.753,1.971,2.159,3.294
					c-0.217,0.262-0.354,0.593-0.354,0.959v0.76h-4.503c-3.641,0-6.603,2.961-6.603,6.602v58.718h-3.67
					c-2.618,0-4.749,2.13-4.749,4.749v1.4H2.244c-0.553,0-1,0.448-1,1s0.447,1,1,1h5.575h1.03H115.15h6.606c0.553,0,1-0.448,1-1
					S122.309,110.882,121.757,110.882z M81.266,22.279h22.884c1.304,0,2.364,1.061,2.364,2.364v80.089H93.707v-4.685
					c3.633-0.491,6.445-3.605,6.445-7.371c0-4.105-3.34-7.445-7.445-7.445s-7.445,3.34-7.445,7.445c0,3.766,2.812,6.879,6.445,7.371
					v4.685h-7.098V61.761c0-3.167-2.553-5.745-5.708-5.793V24.644C78.901,23.34,79.962,22.279,81.266,22.279z M92.707,98.123
					c-3.003,0-5.445-2.443-5.445-5.446c0-3.002,2.442-5.445,5.445-5.445s5.445,2.443,5.445,5.445
					C98.152,95.68,95.71,98.123,92.707,98.123z M29.751,42.614c-0.815-0.163-1.407-0.885-1.407-1.718v-1.753h5.402v1.753
					c0,0.832-0.592,1.555-1.408,1.718c-0.467,0.093-0.804,0.504-0.804,0.98l-0.007,0.288l-0.972-0.007v-0.28
					C30.556,43.118,30.219,42.708,29.751,42.614z M22.82,26.501c0.004-2.184,0.888-4.251,2.487-5.823
					c1.601-1.572,3.634-2.424,5.871-2.385c4.461,0.071,8.091,3.76,8.091,8.223c0,2.48-1.105,4.804-3.032,6.375
					c-1.287,1.049-2.233,2.481-2.735,4.139l-0.034,0.114h-4.846l-0.001-0.003c-0.52-1.713-1.49-3.194-2.81-4.282
					C23.906,31.284,22.816,28.966,22.82,26.501z M17.238,46.015c0-2.538,2.064-4.602,4.603-4.602h4.542
					c0.181,1.3,1.034,2.413,2.228,2.929c0.211,0.882,1.006,1.541,1.952,1.541h0.965c0.946,0,1.741-0.658,1.952-1.541
					c1.194-0.516,2.046-1.63,2.228-2.929h4.542c2.537,0,4.602,2.064,4.602,4.602v9.949h-3.584c-3.196,0-5.797,2.601-5.797,5.797
					v24.943c-1.239-0.92-2.767-1.471-4.425-1.471c-4.105,0-7.445,3.34-7.445,7.445c0,3.766,2.812,6.879,6.445,7.371v4.685H17.238
					V46.015z M31.045,98.123c-3.003,0-5.445-2.443-5.445-5.446c0-3.002,2.442-5.445,5.445-5.445s5.445,2.443,5.445,5.445
					C36.49,95.68,34.048,98.123,31.045,98.123z M32.045,100.048c1.272-0.172,2.44-0.665,3.425-1.396v6.081h-3.425V100.048z
					 M8.819,110.882v-1.4c0-1.516,1.233-2.749,2.749-2.749h4.67H45.85c0.553,0,1-0.448,1-1v0l0,0c0-0.552-0.447-1-1-1H37.47v-8.311
					c0.645-1.102,1.021-2.379,1.021-3.744s-0.376-2.643-1.021-3.744V61.761c0-2.094,1.703-3.797,3.797-3.797h37.546
					c2.094,0,3.797,1.704,3.797,3.797v42.972H62.827c-0.553,0-1,0.448-1,1s0.447,1,1,1h15.074h29.612h3.888
					c1.516,0,2.749,1.233,2.749,2.749v1.4H8.849H8.819z"/>
			</g>
		</g>
		<g>
			<path class="st8" d="M50.317,70.997H46.96c-0.613,0-1.109,0.497-1.109,1.109v3.357c0,0.613,0.497,1.109,1.109,1.109h3.357
				c0.613,0,1.109-0.497,1.109-1.109v-3.357C51.427,71.493,50.93,70.997,50.317,70.997z"/>
			<path class="st8" d="M61.718,70.997h-3.357c-0.613,0-1.109,0.497-1.109,1.109v3.357c0,0.613,0.497,1.109,1.109,1.109h3.357
				c0.613,0,1.109-0.497,1.109-1.109v-3.357C62.827,71.493,62.331,70.997,61.718,70.997z"/>
			<path class="st8" d="M73.119,70.997h-3.357c-0.613,0-1.109,0.497-1.109,1.109v3.357c0,0.613,0.497,1.109,1.109,1.109h3.357
				c0.613,0,1.109-0.497,1.109-1.109v-3.357C74.228,71.493,73.732,70.997,73.119,70.997z"/>
			<path class="st8" d="M50.317,80.67H46.96c-0.613,0-1.109,0.497-1.109,1.109v3.357c0,0.613,0.497,1.109,1.109,1.109h3.357
				c0.613,0,1.109-0.497,1.109-1.109v-3.357C51.427,81.167,50.93,80.67,50.317,80.67z"/>
			<path class="st8" d="M61.718,80.67h-3.357c-0.613,0-1.109,0.497-1.109,1.109v3.357c0,0.613,0.497,1.109,1.109,1.109h3.357
				c0.613,0,1.109-0.497,1.109-1.109v-3.357C62.827,81.167,62.331,80.67,61.718,80.67z"/>
			<path class="st8" d="M73.119,80.67h-3.357c-0.613,0-1.109,0.497-1.109,1.109v3.357c0,0.613,0.497,1.109,1.109,1.109h3.357
				c0.613,0,1.109-0.497,1.109-1.109v-3.357C74.228,81.167,73.732,80.67,73.119,80.67z"/>
			<path class="st8" d="M50.317,90.343H46.96c-0.613,0-1.109,0.497-1.109,1.109v3.357c0,0.613,0.497,1.109,1.109,1.109h3.357
				c0.613,0,1.109-0.497,1.109-1.109v-3.357C51.427,90.84,50.93,90.343,50.317,90.343z"/>
			<path class="st8" d="M61.718,90.343h-3.357c-0.613,0-1.109,0.497-1.109,1.109v3.357c0,0.613,0.497,1.109,1.109,1.109h3.357
				c0.613,0,1.109-0.497,1.109-1.109v-3.357C62.827,90.84,62.331,90.343,61.718,90.343z"/>
			<path class="st8" d="M73.119,90.343h-3.357c-0.613,0-1.109,0.497-1.109,1.109v3.357c0,0.613,0.497,1.109,1.109,1.109h3.357
				c0.613,0,1.109-0.497,1.109-1.109v-3.357C74.228,90.84,73.732,90.343,73.119,90.343z"/>
		</g>
	</g>
</g>
</svg>
