<?xml version="1.0" encoding="utf-8"?>
<!-- Generator: Adobe Illustrator 22.0.1, SVG Export Plug-In . SVG Version: 6.00 Build 0)  -->
<svg version="1.1" id="Layer_1" xmlns="http://www.w3.org/2000/svg" xmlns:xlink="http://www.w3.org/1999/xlink" x="0px" y="0px"
	 viewBox="0 0 128 128" style="enable-background:new 0 0 128 128;" xml:space="preserve">
<style type="text/css">
	.st0{fill:#263238;}
	.st1{fill:#E6E7E8;}
	.st2{fill:#FFD7E5;}
	.st3{fill:#0089EF;}
	.st4{fill:#6DC9F7;}
	.st5{fill:#FA759E;}
	.st6{fill:#FFFFFF;}
	.st7{fill:#3A2C60;}
	.st8{fill:#D4FBFF;}
</style>
<g>
	<path class="st1" d="M105.84,13.795H58.584c-2.155-1.985-5.022-3.208-8.177-3.208h-18.44c-6.661,0-12.08,5.419-12.08,12.08v9.58
		c0,6.667,5.419,12.09,12.08,12.09h8.496l7.429,5.174v65.63c0,3.458,2.813,6.272,6.272,6.272h51.676
		c3.459,0,6.272-2.814,6.272-6.272V20.067C112.113,16.608,109.299,13.795,105.84,13.795z"/>
	<g>
		<g>
			<g>
				<g>
					<g>
						<path class="st4" d="M101.84,10.795H54.209c2.028,2.009,3.285,4.794,3.285,7.873v7.987c0,6.897-5.51,12.495-12.366,12.663
							l1.594,6.949l-1.831-1.276v66.151c0,2.912,2.361,5.272,5.272,5.272h51.676c2.912,0,5.272-2.361,5.272-5.272V16.067
							C107.113,13.155,104.752,10.795,101.84,10.795z"/>
						<path class="st8" d="M99.245,18.234H57.472c0.006,0.145,0.022,0.287,0.022,0.433v7.987c0,5.212-3.149,9.678-7.646,11.624
							v61.156c0,1.608,1.303,2.911,2.911,2.911h46.485c1.608,0,2.911-1.303,2.911-2.911V21.146
							C102.156,19.538,100.853,18.234,99.245,18.234z"/>
					</g>
					<path class="st3" d="M80.909,13.922h-9.813c-0.781,0-1.413,0.633-1.413,1.413s0.633,1.413,1.413,1.413h9.813
						c0.78,0,1.413-0.633,1.413-1.413S81.689,13.922,80.909,13.922z"/>
					<circle class="st5" cx="85.459" cy="15.335" r="1.413"/>
				</g>
				<path class="st5" d="M79.423,106.433h-6.842c-1.482,0-2.683,1.201-2.683,2.683s1.201,2.683,2.683,2.683h6.842
					c1.482,0,2.683-1.201,2.683-2.683S80.905,106.433,79.423,106.433z"/>
			</g>
		</g>
		<path class="st4" d="M91.067,64.767h-30.13c-1,0-1.81,0.81-1.81,1.81v8.38c0,1,0.81,1.81,1.81,1.81h30.13c1,0,1.81-0.81,1.81-1.81
			v-8.38C92.877,65.577,92.067,64.767,91.067,64.767z"/>
		<path class="st2" d="M86.505,83.017H65.5c-1.103,0-1.998,0.894-1.998,1.997v7.005c0,1.103,0.894,1.997,1.998,1.997h21.005
			c1.103,0,1.997-0.894,1.997-1.997v-7.005C88.502,83.911,87.608,83.017,86.505,83.017z"/>
		<path class="st4" d="M91.067,24.767h-30.13c-1,0-1.81,0.81-1.81,1.81v30.13c0,1,0.81,1.81,1.81,1.81h30.13
			c1,0,1.81-0.81,1.81-1.81v-30.13C92.877,25.577,92.067,24.767,91.067,24.767z"/>
		<g>
			<path class="st6" d="M27.968,7.583h18.441c6.122,0,11.085,4.963,11.085,11.085v7.987c0,6.897-5.509,12.495-12.366,12.663
				l1.594,6.949l-9.944-6.933h-8.81c-6.122,0-11.085-4.963-11.085-11.085v-9.581C16.883,12.546,21.846,7.583,27.968,7.583z"/>
		</g>
		<g>
			<path class="st5" d="M57.497,21.667v4.99c0,6.89-5.51,12.49-12.37,12.66l0.68,2.97c-0.23,0.01-0.45,0.02-0.68,0.03l0.78,3.38
				l-9.13-6.36h-8.81c-6.12,0-11.08-4.97-11.08-11.09v-6.58c0-6.12,4.96-11.08,11.08-11.08h18.44
				C52.527,10.587,57.497,15.547,57.497,21.667z"/>
		</g>
		<g>
			<path class="st7" d="M101.84,9.795H54.585c-2.155-1.984-5.023-3.208-8.178-3.208h-5.083c-0.553,0-1,0.448-1,1s0.447,1,1,1h5.083
				c5.564,0,10.091,4.521,10.091,10.08v7.99c0,6.38-5.005,11.502-11.395,11.661c-0.301,0.007-0.581,0.149-0.766,0.386
				c-0.184,0.237-0.252,0.544-0.185,0.837l1.016,4.424l-7.82-5.447c-0.167-0.117-0.367-0.18-0.571-0.18h-8.81
				c-5.559,0-10.08-4.526-10.08-10.09v-9.58c0-5.558,4.521-10.08,10.08-10.08c0.553,0,1-0.448,1-1s-0.447-1-1-1
				c-6.661,0-12.08,5.419-12.08,12.08v9.58c0,6.667,5.419,12.09,12.08,12.09h8.496l7.428,5.173v65.631
				c0,3.458,2.813,6.272,6.272,6.272h51.677c3.459,0,6.272-2.814,6.272-6.272V16.067C108.113,12.609,105.299,9.795,101.84,9.795z
				 M106.113,111.141c0,2.356-1.917,4.272-4.272,4.272H50.164c-2.355,0-4.272-1.917-4.272-4.272V46.903l0.266,0.185
				c0.171,0.119,0.371,0.179,0.57,0.179c0.195,0,0.392-0.057,0.561-0.172c0.343-0.232,0.507-0.65,0.414-1.053l-1.338-5.807
				c6.895-0.764,12.134-6.512,12.134-13.578v-7.99c0-2.553-0.802-4.919-2.159-6.872h45.502c2.355,0,4.272,1.917,4.272,4.272V111.141
				z"/>
			<path class="st7" d="M32.757,8.587h4.108c0.553,0,1-0.448,1-1s-0.447-1-1-1h-4.108c-0.553,0-1,0.448-1,1
				S32.205,8.587,32.757,8.587z"/>
			<path class="st7" d="M79.026,85.016l-4.648,4.648l-1.231-2.224c-0.268-0.483-0.878-0.658-1.359-0.391
				c-0.483,0.268-0.658,0.876-0.391,1.359l1.875,3.385c0.152,0.275,0.425,0.462,0.735,0.506c0.047,0.006,0.094,0.01,0.14,0.01
				c0.264,0,0.519-0.104,0.707-0.293l5.587-5.587c0.391-0.391,0.391-1.023,0-1.414S79.417,84.625,79.026,85.016z"/>
			<path class="st7" d="M24.732,16.92v5.172c0,0.552,0.447,1,1,1s1-0.448,1-1v-2.785l6.127,6.029
				c0.267,0.263,0.656,0.355,1.013,0.237l7.386-2.417l6.059,7.052c-0.044,0.157-0.076,0.319-0.076,0.491
				c0,1.003,0.813,1.816,1.816,1.816c1.003,0,1.816-0.813,1.816-1.816c0-1.003-0.813-1.816-1.816-1.816
				c-0.076,0-0.149,0.013-0.223,0.022l-6.495-7.559c-0.264-0.307-0.684-0.424-1.07-0.298l-7.441,2.436l-5.654-5.563h2.699
				c0.553,0,1-0.448,1-1s-0.447-1-1-1h-5.141C25.179,15.92,24.732,16.368,24.732,16.92z"/>
		</g>
	</g>
</g>
</svg>
