<?xml version="1.0" encoding="utf-8"?>
<!-- Generator: Adobe Illustrator 22.0.1, SVG Export Plug-In . SVG Version: 6.00 Build 0)  -->
<svg version="1.1" id="Layer_1" xmlns="http://www.w3.org/2000/svg" xmlns:xlink="http://www.w3.org/1999/xlink" x="0px" y="0px"
	 viewBox="0 0 128 128" style="enable-background:new 0 0 128 128;" xml:space="preserve">
<style type="text/css">
	.st0{fill:#263238;}
	.st1{fill:#E6E7E8;}
	.st2{fill:#FFD7E5;}
	.st3{fill:#0089EF;}
	.st4{fill:#6DC9F7;}
	.st5{fill:#FA759E;}
	.st6{fill:#FFFFFF;}
	.st7{fill:#3A2C60;}
	.st8{fill:#D4FBFF;}
</style>
<g>
	<path class="st1" d="M93.542,8.709H38.458c-3.65,0-6.62,2.97-6.62,6.62v101.343c0,3.65,2.97,6.62,6.62,6.62h55.084
		c3.65,0,6.62-2.97,6.62-6.62V64.133v-6.791V15.329C100.162,11.679,97.192,8.709,93.542,8.709z"/>
	<g>
		<g>
			<g>
				<g>
					<g>
						<g>
							<path class="st4" d="M89.542,118.291H34.458c-3.104,0-5.62-2.516-5.62-5.62V11.329c0-3.104,2.516-5.62,5.62-5.62h55.083
								c3.104,0,5.62,2.516,5.62,5.62v101.342C95.162,115.775,92.645,118.291,89.542,118.291z"/>
							<path class="st8" d="M86.775,103.296h-49.55c-1.714,0-3.103-1.389-3.103-3.103V16.742c0-1.714,1.389-3.103,3.103-3.103h49.55
								c1.714,0,3.103,1.389,3.103,3.103v83.451C89.878,101.907,88.489,103.296,86.775,103.296z"/>
						</g>
						<path class="st3" d="M67.23,12.055H56.77c-0.832,0-1.506-0.674-1.506-1.506v0c0-0.832,0.674-1.506,1.506-1.506h10.46
							c0.832,0,1.506,0.674,1.506,1.506v0C68.736,11.38,68.062,12.055,67.23,12.055z"/>
						<circle class="st5" cx="72.081" cy="10.548" r="1.506"/>
					</g>
					<path class="st5" d="M65.646,113.373h-7.293c-1.579,0-2.86-1.28-2.86-2.86v0c0-1.579,1.28-2.86,2.86-2.86h7.293
						c1.579,0,2.86,1.28,2.86,2.86v0C68.506,112.092,67.226,113.373,65.646,113.373z"/>
				</g>
			</g>
			<g>
				<path class="st5" d="M54.661,35.679c0-4.425,3.587-8.012,8.012-8.012s8.012,3.587,8.012,8.012s-8.012,14.576-8.012,14.576
					S54.661,40.104,54.661,35.679z"/>
				<circle class="st6" cx="62.671" cy="35.242" r="3.719"/>
			</g>
		</g>
		<g>
			<path class="st6" d="M69.689,81.605H55.657c-1.495,0-2.831-0.936-3.341-2.342l-6.422-17.696
				c-0.503-1.387,0.524-2.852,1.999-2.852h29.558c1.475,0,2.503,1.466,1.999,2.852L73.03,79.264
				C72.52,80.669,71.184,81.605,69.689,81.605z"/>
			<path class="st4" d="M73.03,79.264l6.422-17.696c0.503-1.387-0.524-2.852-1.999-2.852H50.894c-1.475,0-2.502,1.466-1.999,2.852
				l6.422,17.696c0.51,1.406,1.845,2.341,3.341,2.341h11.032C71.184,81.605,72.52,80.669,73.03,79.264z"/>
			<g>
				<circle class="st5" cx="56.471" cy="91.46" r="3.252"/>
				<circle class="st5" cx="70.324" cy="91.46" r="3.252"/>
			</g>
			<g>
				<path class="st7" d="M95.161,52.342c-0.553,0-1,0.448-1,1v6.791c0,0.552,0.447,1,1,1s1-0.448,1-1v-6.791
					C96.161,52.79,95.714,52.342,95.161,52.342z"/>
				<path class="st7" d="M89.542,4.709H34.458c-3.65,0-6.62,2.97-6.62,6.62v101.342c0,3.65,2.97,6.62,6.62,6.62h55.084
					c3.649,0,6.619-2.97,6.619-6.62V65.979c0-0.552-0.447-1-1-1s-1,0.448-1,1v46.692c0,2.547-2.072,4.62-4.619,4.62H34.458
					c-2.548,0-4.62-2.073-4.62-4.62V11.329c0-2.547,2.072-4.62,4.62-4.62h55.084c2.547,0,4.619,2.073,4.619,4.62v36.407
					c0,0.552,0.447,1,1,1s1-0.448,1-1V11.329C96.161,7.678,93.191,4.709,89.542,4.709z"/>
				<path class="st7" d="M63.458,50.875c0.842-1.067,8.227-10.558,8.227-15.196c0-4.969-4.043-9.012-9.012-9.012
					s-9.012,4.042-9.012,9.012c0,4.638,7.385,14.129,8.227,15.196c0.189,0.24,0.479,0.38,0.785,0.38S63.269,51.115,63.458,50.875z
					 M55.661,35.679c0-3.866,3.146-7.012,7.012-7.012s7.012,3.146,7.012,7.012c0,2.993-4.511,9.61-7.012,12.936
					C60.172,45.29,55.661,38.673,55.661,35.679z"/>
				<path class="st7" d="M54.328,82.451h0.21c0.362,0.093,0.735,0.154,1.119,0.154H69.69c1.909,0,3.629-1.206,4.28-3l6.423-17.697
					c0.347-0.958,0.205-2.027-0.38-2.861c-0.585-0.834-1.542-1.332-2.561-1.332H47.894c-0.805,0-1.563,0.32-2.137,0.862
					l-2.145-5.593c-0.148-0.387-0.52-0.642-0.934-0.642h-4.529c-0.553,0-1,0.448-1,1s0.447,1,1,1h3.842l4.059,10.584l5.328,14.679
					c0.171,0.472,0.42,0.9,0.723,1.279c-2.21,0.887-3.777,3.048-3.777,5.571c0,2.592,1.654,4.795,3.959,5.633
					c0.307,2.045,2.06,3.623,4.189,3.623c1.999,0,3.668-1.391,4.121-3.252h5.611c0.453,1.861,2.122,3.252,4.121,3.252
					c2.345,0,4.252-1.907,4.252-4.252s-1.907-4.252-4.252-4.252c-1.999,0-3.668,1.391-4.121,3.252h-5.611
					c-0.453-1.861-2.122-3.252-4.121-3.252c-1.826,0-3.375,1.163-3.976,2.783c-1.285-0.666-2.173-1.992-2.173-3.536
					C50.323,84.248,52.12,82.451,54.328,82.451z M74.349,72.696h-3.72l0.789-5.453h4.91L74.349,72.696z M68.609,72.696h-4.936
					v-5.453h5.725L68.609,72.696z M63.673,74.696h4.647l-0.855,5.909h-3.792V74.696z M61.673,80.605h-3.791l-0.855-5.909h4.646
					V80.605z M63.673,65.243v-5.528h6.814l-0.8,5.528H63.673z M61.673,65.243h-6.014l-0.8-5.528h6.814V65.243z M61.673,67.243v5.453
					h-4.935l-0.789-5.453H61.673z M54.718,72.696h-3.72l-1.979-5.453h4.91L54.718,72.696z M55.007,74.696l0.855,5.909h-0.205
					c-1.07,0-2.035-0.676-2.4-1.683l-1.534-4.227H55.007z M72.089,78.923c-0.364,1.006-1.329,1.682-2.399,1.682h-0.205l0.855-5.909
					h3.284L72.089,78.923z M78.375,60.195c0.214,0.305,0.264,0.681,0.137,1.031l-1.458,4.017h-5.347l0.8-5.528h4.945
					C77.825,59.715,78.161,59.89,78.375,60.195z M46.835,61.227c-0.127-0.351-0.077-0.727,0.137-1.032s0.55-0.48,0.922-0.48h4.945
					l0.8,5.528h-5.326l-0.374-0.974L46.835,61.227z M70.324,89.208c1.242,0,2.252,1.01,2.252,2.252s-1.01,2.252-2.252,2.252
					s-2.252-1.01-2.252-2.252S69.082,89.208,70.324,89.208z M56.472,89.208c1.242,0,2.252,1.01,2.252,2.252s-1.01,2.252-2.252,2.252
					s-2.253-1.01-2.253-2.252S55.23,89.208,56.472,89.208z"/>
			</g>
		</g>
	</g>
</g>
</svg>
