<?xml version="1.0" encoding="utf-8"?>
<!-- Generator: Adobe Illustrator 22.0.1, SVG Export Plug-In . SVG Version: 6.00 Build 0)  -->
<svg version="1.1" id="Layer_1" xmlns="http://www.w3.org/2000/svg" xmlns:xlink="http://www.w3.org/1999/xlink" x="0px" y="0px"
	 viewBox="0 0 128 128" style="enable-background:new 0 0 128 128;" xml:space="preserve">
<style type="text/css">
	.st0{fill:#263238;}
	.st1{fill:#E6E7E8;}
	.st2{fill:#FFD7E5;}
	.st3{fill:#0089EF;}
	.st4{fill:#6DC9F7;}
	.st5{fill:#FA759E;}
	.st6{fill:#FFFFFF;}
	.st7{fill:#3A2C60;}
	.st8{fill:#D4FBFF;}
</style>
<g>
	<path class="st1" d="M94.034,81.769c-0.042-0.052-0.083-0.099-0.134-0.141c-2.988-3.143-6.646-5.641-10.744-7.264
		c-0.014-0.006-0.025-0.017-0.04-0.023c-0.076-0.03-0.155-0.055-0.231-0.084c-0.338-0.13-0.678-0.253-1.022-0.371
		c-0.139-0.047-0.277-0.096-0.416-0.141c-0.371-0.121-0.746-0.234-1.123-0.341c-0.118-0.033-0.236-0.069-0.354-0.101
		c-0.401-0.109-0.807-0.207-1.215-0.299c-0.098-0.022-0.196-0.047-0.294-0.068c-0.443-0.096-0.891-0.179-1.341-0.255
		c-0.04-0.007-0.08-0.016-0.12-0.023c-0.009-0.002-0.015-0.007-0.024-0.008c-0.031-0.005-0.064-0.007-0.095-0.011
		c-0.176-0.028-0.354-0.052-0.531-0.077c6.696-3.074,11.739-9.14,13.413-16.478c0.315,0.095,0.635,0.156,0.958,0.156
		c2.482,0,4.427-2.564,4.427-5.838c0-1.667-0.506-3.147-1.328-4.201v-0.015c0-0.478-0.019-0.95-0.047-1.421l0.587-1.954
		c1.147-0.811,1.928-2.294,1.928-4.015c0-1.414-0.523-2.727-1.389-3.602c0.631-1.062,0.97-2.285,0.97-3.532
		c0-2.662-1.494-5.025-3.811-6.181c0.419-1.142,0.632-2.333,0.632-3.554c0-5.739-4.668-10.407-10.407-10.407
		c-1.712,0-3.382,0.419-4.881,1.217c-1.58-2.152-5.419-6.231-11.792-6.231c-3.782,0-6.296,1.512-8.726,2.974
		c-2.422,1.456-4.709,2.832-8.306,2.832c-3.76,0-7.068-5.271-7.101-5.324c-0.2-0.321-0.544-0.499-0.939-0.479
		c-0.377,0.028-0.709,0.262-0.86,0.609c-0.173,0.4-3.933,9.304,1.098,16.597c-2.908,0.815-5.046,3.491-5.046,6.655
		c0,1.667,0.61,3.267,1.681,4.51c-1.067,0.838-1.76,2.287-1.76,3.915c0,1.835,0.883,3.408,2.158,4.171v1.084
		c0,0.906,0.402,1.713,1.029,2.275c-0.767,1.045-1.234,2.474-1.234,4.076c0,3.273,1.944,5.838,4.426,5.838
		c0.322,0,0.643-0.061,0.958-0.156c1.651,7.241,6.583,13.246,13.147,16.357c0,0.02,0.003,0.038,0.003,0.058
		c-0.341,0.042-0.683,0.086-1.021,0.14c-0.031,0.005-0.062,0.006-0.092,0.011c-0.009,0.001-0.015,0.007-0.024,0.008
		c-0.035,0.006-0.07,0.014-0.105,0.02c-0.456,0.076-0.91,0.162-1.359,0.258c-0.096,0.021-0.191,0.045-0.287,0.066
		c-0.41,0.093-0.817,0.191-1.22,0.3c-0.119,0.032-0.236,0.067-0.355,0.101c-0.377,0.107-0.751,0.22-1.122,0.341
		c-0.139,0.046-0.278,0.094-0.417,0.141c-0.345,0.118-0.687,0.242-1.026,0.372c-0.075,0.029-0.152,0.053-0.227,0.083
		c-0.014,0.006-0.025,0.016-0.039,0.023c-4.099,1.623-7.757,4.121-10.745,7.265c-0.022,0.018-0.049,0.027-0.07,0.047
		c-0.033,0.032-0.052,0.074-0.08,0.109c-5.04,5.379-8.136,12.6-8.136,20.535v22.172c0,0.553,0.448,1,1,1h24.372h21.63h24.371
		c0.553,0,1-0.447,1-1v-22.172C102.186,94.378,99.084,87.149,94.034,81.769z"/>
	<g>
		<path class="st5" d="M68.125,69.262h-1.061c-1.514,0.314-3.082,0.48-4.689,0.48h0c-1.607,0-3.175-0.166-4.689-0.48h-1.811
			c-8.34,0-15.85,3.51-21.14,9.13c5.49,2.35,9.05,7.73,9.05,13.7v28.4h36.43v-28.4c0-5.97,3.56-11.35,9.05-13.7
			C83.975,72.772,76.465,69.262,68.125,69.262z"/>
		<path class="st2" d="M43.785,92.092v28.4h-16.97v-22.17c0-7.72,3-14.73,7.92-19.93C40.225,80.742,43.785,86.122,43.785,92.092z"/>
		<path class="st6" d="M36.775,79.461c-0.646-0.403-1.326-0.763-2.04-1.069c-4.92,5.2-7.92,12.21-7.92,19.93v22.17h3v-22.17
			C29.815,91.118,32.428,84.534,36.775,79.461z"/>
		<path class="st2" d="M97.185,98.322v22.17h-16.97v-28.4c0-5.97,3.56-11.35,9.05-13.7C94.185,83.592,97.185,90.602,97.185,98.322z"
			/>
		<g>
			<path class="st4" d="M70.801,69.392c-0.53,4.393-4.265,7.8-8.801,7.8c-4.536,0-8.271-3.406-8.801-7.8
				c-0.677,0.062-1.351,0.137-2.014,0.245v50.856h21.63V69.637C72.152,69.53,71.478,69.455,70.801,69.392z"/>
		</g>
		<path class="st6" d="M62.375,69.742L62.375,69.742c-3.29,0-6.417-0.696-9.247-1.941v0.52c0,4.9,3.972,8.872,8.872,8.872
			c4.9,0,8.872-3.972,8.872-8.872v-0.207C68.242,69.16,65.377,69.742,62.375,69.742z"/>
		<path class="st5" d="M78.75,71.272c-1.89-0.743-3.875-1.297-5.935-1.631v14.443h0.768c2.853,0,5.167-2.313,5.167-5.167V71.272z"/>
		<path class="st5" d="M51.185,69.641c-2.06,0.334-4.045,0.888-5.935,1.631v7.645c0,2.853,2.313,5.167,5.167,5.167h0.768V69.641z"/>
		<g>
			<g>
				<g>
					<g>
						<g>
							<path class="st6" d="M87.878,41.868l-1.771,5.892c-0.187,0.619-0.509,1.167-0.912,1.635c-0.047,0.401-0.086,0.805-0.153,1.2
								c0.498,0.399,1.066,0.645,1.679,0.645c1.892,0,3.426-2.166,3.426-4.838C90.147,44.307,89.198,42.54,87.878,41.868z"/>
							<path class="st6" d="M38.698,47.759l-1.777-5.913c-1.345,0.653-2.317,2.435-2.317,4.556c0,2.672,1.534,4.838,3.426,4.838
								c0.614,0,1.181-0.246,1.679-0.645c-0.07-0.413-0.112-0.834-0.16-1.253C39.17,48.886,38.877,48.352,38.698,47.759z"/>
						</g>
						<path class="st6" d="M84.536,34.796c0-0.078,0.002-0.157,0.005-0.235c-3.395-0.202-6.138-2.867-6.463-6.228
							c-2.539-0.049-4.921-1.001-6.791-2.706c-5.117,1.506-16.365,4.019-25.738,0.529c0.002,0.072,0.003,0.144,0.003,0.216
							c0,3.56-2.707,6.494-6.17,6.865v8.722v4.789c0,12.699,10.294,22.993,22.993,22.993h0c12.699,0,22.993-10.294,22.993-22.993
							v-4.789v-4.295C84.855,36.869,84.536,35.881,84.536,34.796z"/>
					</g>
				</g>
				<g>
					<g>
						<g>
							<g>
								<g>
									<g>
										<path class="st8" d="M48.38,36.879v3.376c0,1.141-0.925,2.067-2.067,2.067h-9.25l1.635,5.438
											c0.477,1.573,1.749,2.735,3.297,3.097c0.338,0.081,0.681,0.124,1.039,0.124h12.59c1.997,0,3.755-1.306,4.332-3.212
											l1.792-5.909c0.195-0.648,1.115-0.648,1.31,0l1.792,5.909c0.562,1.868,2.263,3.159,4.208,3.207
											c0.043,0.005,0.081,0.005,0.124,0.005h12.59c1.997,0,3.76-1.31,4.336-3.221l3.271-10.88H48.38z"/>
										<g>
											<path class="st6" d="M48.38,36.879v3.376c0,1.141-0.925,2.067-2.067,2.067h-0.724l-3.594,8.535
												c0.338,0.081,0.681,0.124,1.039,0.124h2.516l5.938-14.102H48.38z"/>
											<polygon class="st6" points="55.558,36.879 49.624,50.98 53.236,50.98 59.17,36.879 											"/>
											<polygon class="st6" points="52.536,36.879 46.598,50.98 48.4,50.98 54.338,36.879 											"/>
										</g>
										<g>
											<path class="st6" d="M74.99,36.879l-5.933,14.097c0.043,0.005,0.081,0.005,0.124,0.005h3.479l5.943-14.102H74.99z"/>
											<polygon class="st6" points="82.667,36.879 76.734,50.98 80.346,50.98 86.279,36.879 											"/>
											<polygon class="st6" points="79.646,36.879 73.708,50.98 75.509,50.98 81.452,36.879 											"/>
										</g>
									</g>
								</g>
							</g>
						</g>
						<g>
							<path class="st3" d="M46.313,42.322h-9.875c-1.141,0-2.067-0.925-2.067-2.067v-3.988c0-1.141,0.925-2.067,2.067-2.067h9.875
								c1.141,0,2.067,0.925,2.067,2.067v3.988C48.38,41.396,47.454,42.322,46.313,42.322z"/>
							<g>
								<circle class="st4" cx="43.842" cy="38.384" r="2.536"/>
								<circle class="st8" cx="43.842" cy="38.384" r="1.571"/>
								<circle class="st4" cx="43.842" cy="38.384" r="0.82"/>
							</g>
							<path class="st2" d="M39.079,37.327h-1.912c-0.341,0-0.617-0.276-0.617-0.617v-0.216c0-0.341,0.276-0.617,0.617-0.617h1.912
								c0.341,0,0.617,0.276,0.617,0.617v0.216C39.696,37.051,39.42,37.327,39.079,37.327z"/>
						</g>
					</g>
				</g>
			</g>
		</g>
		<g>
			<path class="st7" d="M72.815,102.538c0.553,0,1-0.447,1-1v-5.25c0-0.553-0.447-1-1-1s-1,0.447-1,1v5.25
				C71.815,102.091,72.262,102.538,72.815,102.538z"/>
			<path class="st7" d="M62.381,56.748c2.071,0,3.756-1.686,3.756-3.757c0-0.553-0.447-1-1-1s-1,0.447-1,1
				c0,0.969-0.788,1.757-1.757,1.757s-1.757-0.788-1.757-1.757c0-0.553-0.448-1-1-1s-1,0.447-1,1
				C58.624,55.062,60.309,56.748,62.381,56.748z"/>
			<path class="st7" d="M62.381,63.084c3.943,0,6.08-2.76,6.168-2.878c0.332-0.438,0.246-1.061-0.19-1.395
				c-0.435-0.333-1.063-0.255-1.4,0.183c-0.066,0.085-1.654,2.09-4.578,2.09c-2.983,0-4.491-1.974-4.564-2.071
				c-0.324-0.442-0.947-0.545-1.393-0.221c-0.448,0.323-0.549,0.948-0.226,1.396C56.284,60.306,58.335,63.084,62.381,63.084z"/>
			<path class="st7" d="M90.036,77.772c-0.044-0.055-0.088-0.104-0.142-0.148c-2.989-3.141-6.644-5.641-10.742-7.262
				c-0.013-0.006-0.023-0.016-0.037-0.021c-0.369-0.145-0.743-0.275-1.116-0.405c-0.084-0.029-0.166-0.062-0.25-0.09
				c-0.268-0.091-0.539-0.171-0.81-0.254c-0.21-0.064-0.418-0.131-0.63-0.191c-0.263-0.074-0.527-0.141-0.792-0.208
				c-0.218-0.055-0.435-0.111-0.654-0.161c-0.273-0.063-0.547-0.12-0.821-0.175c-0.211-0.042-0.421-0.083-0.634-0.121
				c-0.145-0.026-0.289-0.059-0.434-0.083c-0.018-0.003-0.036,0.005-0.054,0.003c-0.026-0.004-0.051-0.009-0.077-0.013
				c-0.01,0-0.019-0.006-0.029-0.006c-0.001,0-0.002,0.001-0.003,0.001c-0.155-0.024-0.308-0.054-0.464-0.076
				c6.696-3.074,11.739-9.14,13.412-16.479c0.316,0.095,0.637,0.156,0.96,0.156c2.482,0,4.427-2.564,4.427-5.838
				c0-1.664-0.507-3.137-1.328-4.19v-0.026c0-0.936-0.067-1.855-0.161-2.766l0.074-0.247c1.484-0.657,2.555-2.357,2.555-4.376
				c0-1.414-0.523-2.727-1.389-3.602c0.631-1.062,0.97-2.285,0.97-3.532c0-2.662-1.494-5.025-3.811-6.181
				c0.419-1.142,0.632-2.333,0.632-3.554c0-5.739-4.668-10.407-10.407-10.407c-1.712,0-3.382,0.419-4.881,1.217
				c-1.58-2.152-5.419-6.231-11.792-6.231c-3.782,0-6.296,1.512-8.726,2.974c-2.422,1.456-4.709,2.832-8.306,2.832
				c-3.76,0-7.068-5.271-7.101-5.324c-0.2-0.321-0.544-0.499-0.939-0.479c-0.377,0.028-0.709,0.262-0.86,0.609
				c-0.173,0.4-3.933,9.304,1.098,16.597c-2.908,0.815-5.046,3.491-5.046,6.655c0,1.667,0.61,3.267,1.681,4.51
				c-1.067,0.838-1.76,2.287-1.76,3.915c0,1.616,0.686,3.027,1.72,3.863v1.596c0,1.001,0.489,1.883,1.234,2.443
				c-0.624,0.999-1.002,2.278-1.002,3.704c0,3.273,1.944,5.838,4.426,5.838c0.323,0,0.643-0.061,0.958-0.156
				c1.651,7.241,6.583,13.246,13.147,16.357c0,0.021,0.003,0.041,0.003,0.062c-0.318,0.04-0.634,0.085-0.949,0.135
				c-0.001,0-0.002-0.001-0.003-0.001c-0.011,0-0.02,0.006-0.031,0.006c-0.025,0.004-0.05,0.008-0.075,0.012
				c-0.018,0.002-0.036-0.006-0.055-0.003c-0.147,0.024-0.293,0.058-0.44,0.084c-0.207,0.037-0.412,0.077-0.617,0.118
				c-0.28,0.056-0.56,0.114-0.839,0.178c-0.21,0.048-0.419,0.102-0.628,0.155c-0.273,0.069-0.547,0.138-0.818,0.215
				c-0.198,0.056-0.392,0.119-0.588,0.179c-0.284,0.087-0.569,0.171-0.851,0.267c-0.043,0.015-0.085,0.031-0.127,0.046
				c-0.413,0.142-0.825,0.287-1.231,0.446c-0.014,0.005-0.024,0.016-0.038,0.022c-4.097,1.621-7.751,4.12-10.739,7.26
				c-0.025,0.02-0.056,0.032-0.079,0.054c-0.033,0.033-0.053,0.076-0.082,0.113c-5.039,5.376-8.133,12.597-8.133,20.53v22.173
				c0,0.553,0.448,1,1,1h24.371h21.63h24.371c0.553,0,1-0.447,1-1V98.32C98.186,90.378,95.086,83.15,90.036,77.772z M73.815,70.854
				c0.111,0.023,0.222,0.046,0.333,0.07c0.46,0.101,0.917,0.213,1.372,0.337c0.164,0.045,0.328,0.089,0.49,0.137
				c0.479,0.14,0.954,0.297,1.425,0.463c0.105,0.037,0.209,0.076,0.314,0.114v6.943c0,2.22-1.745,4.04-3.935,4.16V70.854z
				 M69.772,69.573c-0.602,3.747-3.858,6.618-7.772,6.618c-4.007,0-7.325-3.01-7.811-6.887c0.028,0.01,0.058,0.017,0.086,0.027
				c0.542,0.195,1.094,0.367,1.654,0.524c0.078,0.021,0.155,0.045,0.233,0.066c0.581,0.156,1.172,0.289,1.77,0.401
				c0.059,0.011,0.119,0.021,0.178,0.032c1.229,0.222,2.49,0.349,3.777,0.375c0.036,0.001,0.071,0.002,0.107,0.003
				c0.127,0.002,0.253,0.01,0.381,0.01c0.516,0,1.027-0.022,1.535-0.054c0.021-0.001,0.042-0.003,0.063-0.005
				c1.287-0.085,2.546-0.273,3.771-0.554c0.069-0.016,0.137-0.031,0.206-0.047c0.594-0.142,1.18-0.304,1.757-0.49
				C69.728,69.585,69.75,69.58,69.772,69.573z M35.371,36.267c0-0.588,0.479-1.066,1.067-1.066h9.875
				c0.588,0,1.066,0.479,1.066,1.066v3.988c0,0.588-0.479,1.066-1.066,1.066h-9.875c-0.588,0-1.067-0.479-1.067-1.066V36.267z
				 M39.659,47.469l-1.247-4.147h7.901c1.691,0,3.066-1.376,3.066-3.066v-3.376h35.584h3.37l-3.184,10.59
				c-0.451,1.503-1.809,2.512-3.377,2.512H69.181c-1.564,0-2.921-1.006-3.375-2.504l-1.791-5.909
				c-0.217-0.715-0.864-1.195-1.612-1.195c-0.747,0-1.395,0.48-1.611,1.195l-1.791,5.909c-0.454,1.498-1.81,2.504-3.375,2.504
				H43.036C41.467,49.98,40.111,48.972,39.659,47.469z M86.13,50.104c0.011-0.075,0.014-0.15,0.024-0.226
				c0.003-0.027,0.007-0.054,0.011-0.08c0.391-0.516,0.705-1.101,0.901-1.753l1.313-4.367c0.465,0.698,0.769,1.661,0.769,2.725
				C89.147,48.791,87.663,50.808,86.13,50.104z M45.551,26.372c0-0.072-0.001-0.144-0.003-0.216
				c9.374,3.49,20.621,0.977,25.738-0.529c1.87,1.705,4.253,2.658,6.791,2.706c0.192,1.99,1.237,3.732,2.759,4.867H46.313h-6.694
				C42.967,32.722,45.551,29.849,45.551,26.372z M38.62,50.104c-1.529,0.703-3.018-1.313-3.018-3.702c0-1.1,0.317-2.097,0.806-2.801
				l1.336,4.443c0.184,0.613,0.469,1.17,0.827,1.665c0.015,0.119,0.029,0.239,0.046,0.358C38.618,50.08,38.619,50.092,38.62,50.104z
				 M40.935,51.554c0.652,0.267,1.358,0.427,2.101,0.427h12.591c2.452,0,4.578-1.577,5.289-3.924l1.488-4.911l1.488,4.911
				c0.711,2.347,2.837,3.924,5.289,3.924h12.591c0.718,0,1.401-0.149,2.035-0.399c-1.618,7.176-6.737,13.034-13.475,15.661
				c-0.419,0.163-0.844,0.301-1.269,0.437c-0.213,0.068-0.421,0.147-0.636,0.208c-0.455,0.131-0.917,0.232-1.379,0.333
				c-0.2,0.044-0.395,0.1-0.597,0.138c-0.49,0.092-0.986,0.153-1.482,0.212c-0.181,0.021-0.357,0.057-0.538,0.074
				c-0.68,0.063-1.366,0.097-2.055,0.097c-0.633,0-1.258-0.033-1.878-0.086c-0.074-0.006-0.149-0.01-0.223-0.017
				c-0.593-0.057-1.178-0.139-1.756-0.242c-0.091-0.016-0.181-0.032-0.271-0.05c-0.575-0.11-1.142-0.24-1.7-0.393
				c-0.077-0.021-0.153-0.045-0.229-0.067c-0.571-0.164-1.135-0.345-1.686-0.553c-0.006-0.002-0.012-0.004-0.018-0.006
				C47.768,64.737,42.562,58.814,40.935,51.554z M50.185,85.072v34.421h-5.396v-27.4c0-5.89-3.237-11.226-8.352-13.98
				c2.272-2.185,4.909-3.993,7.812-5.319v6.123C44.25,82.239,46.892,84.949,50.185,85.072z M50.185,83.077
				c-2.19-0.12-3.935-1.94-3.935-4.16v-6.943c0.107-0.039,0.214-0.079,0.321-0.117c0.47-0.165,0.944-0.321,1.422-0.461
				c0.159-0.047,0.32-0.09,0.481-0.134c0.456-0.125,0.916-0.237,1.377-0.338c0.111-0.024,0.223-0.047,0.335-0.071V83.077z
				 M27.814,98.32c0-7.182,2.717-13.738,7.172-18.705c4.761,2.321,7.804,7.138,7.804,12.477v27.4H27.814V98.32z M52.185,119.493
				V84.084V70.51c0.063-0.008,0.128-0.014,0.191-0.021c0.992,4.402,4.926,7.702,9.624,7.702s8.632-3.3,9.624-7.702
				c0.063,0.008,0.128,0.013,0.191,0.021v13.573v8.204c0,0.553,0.447,1,1,1s1-0.447,1-1v-7.216c3.293-0.123,5.935-2.833,5.935-6.155
				v-6.124c2.903,1.326,5.54,3.134,7.813,5.319c-5.115,2.754-8.352,8.089-8.352,13.98v27.4h-5.396v-13.788c0-0.553-0.447-1-1-1
				s-1,0.447-1,1v13.788H52.185z M96.186,119.493H81.211v-27.4c0-5.34,3.043-10.157,7.804-12.477
				c4.455,4.967,7.172,11.522,7.172,18.705V119.493z"/>
		</g>
	</g>
</g>
</svg>
