<?xml version="1.0" encoding="utf-8"?>
<!-- Generator: Adobe Illustrator 22.0.1, SVG Export Plug-In . SVG Version: 6.00 Build 0)  -->
<svg version="1.1" id="Layer_1" xmlns="http://www.w3.org/2000/svg" xmlns:xlink="http://www.w3.org/1999/xlink" x="0px" y="0px"
	 viewBox="0 0 128 128" style="enable-background:new 0 0 128 128;" xml:space="preserve">
<style type="text/css">
	.st0{fill:#263238;}
	.st1{fill:#E6E7E8;}
	.st2{fill:#FFD7E5;}
	.st3{fill:#0089EF;}
	.st4{fill:#6DC9F7;}
	.st5{fill:#FA759E;}
	.st6{fill:#FFFFFF;}
	.st7{fill:#3A2C60;}
	.st8{fill:#D4FBFF;}
</style>
<g>
	<path class="st1" d="M122.903,75.551h-1.493v-9.177c0-3.717-2.317-6.897-5.58-8.189c-0.003-0.001-0.005-0.004-0.008-0.005
		c-0.004-0.002-0.008-0.002-0.012-0.004c-0.389-0.153-0.793-0.276-1.207-0.373c-0.055-0.013-0.11-0.024-0.165-0.036
		c-0.401-0.086-0.809-0.154-1.229-0.182l-7.507-14.021c-1.1-2.051-3.228-3.326-5.554-3.326h-54.03c-2.609,0-4.784,1.831-5.264,4.374
		c-0.003,0.013-0.01,0.021-0.012,0.034c-0.012,0.04-0.028,0.116-0.034,0.157l-2.325,15.294c-0.008,0.05-0.012,0.1-0.012,0.15v15.302
		h-1.019c-1.935,0-3.509,1.574-3.509,3.509v0.5c0,1.935,1.574,3.509,3.509,3.509h2.019h1.768h2.146v1.32h-7.234
		c-0.008,0-0.017,0-0.025,0l-3.022,0.08l-0.454-0.028c-0.922-0.055-1.479-0.088-2.3-0.341l-2.981-1.052
		c-3.679-1.976-4.874-5.875-4.81-9.028c0.238,0.024,0.476,0.051,0.714,0.051c1.405,0,2.804-0.423,4.071-1.25l-0.001,0
		c9.543-6.222,4.915-17.667,2.481-22.3c-0.94-1.788-1.717-2.906-1.749-2.953c-0.259-0.371-0.734-0.521-1.158-0.369
		c-0.426,0.153-0.695,0.572-0.659,1.022c0.231,2.84-3.391,5.458-3.412,5.474c-7.448,5.091-8.446,11.631-6.241,16.032
		c-1.84-0.164-4.01,0.363-6.328,1.959c-0.511,0.338-2.202,1.186-3.254,0.678c-0.405-0.195-0.895-0.095-1.19,0.247
		s-0.326,0.839-0.073,1.214c0.151,0.225,3.768,5.508,8.59,6.368c0.445,0.079,0.886,0.119,1.321,0.119
		c1.56,0,3.052-0.508,4.451-1.516c0.365-0.263,0.662-0.571,0.928-0.897c0.747,2.707,2.408,5.351,5.449,6.954
		c0.043,0.022,0.087,0.042,0.133,0.058l3.09,1.09c1.089,0.336,1.848,0.381,2.809,0.439l0.533,0.029l3.094-0.078h8.229
		c0.553,0,1-0.448,1-1v-2.32h1.276c0.502,4.876,4.634,8.691,9.64,8.691s9.137-3.815,9.639-8.691h26.588
		c0.502,4.876,4.634,8.691,9.64,8.691s9.137-3.815,9.64-8.691h6.022h2.58h2.493c1.935,0,3.509-1.574,3.509-3.509v-0.5
		C126.412,77.126,124.838,75.551,122.903,75.551z"/>
	<g>
		<g>
			<g>
				<g>
					<g>
						<path class="st8" d="M111.407,75.647v-0.673c0-1.338,1.085-2.423,2.423-2.423h2.58V62.374c0-4.313-3.496-7.81-7.81-7.81
							l-7.779-14.527c-0.922-1.723-2.718-2.798-4.672-2.798H79.978H42.119c-2.161,0-3.998,1.579-4.323,3.715l-1.457,9.582
							c-0.578,3.803-0.868,7.645-0.868,11.491v10.523h1.768c1.524,0,2.759,1.235,2.759,2.759s-1.235,2.759-2.759,2.759h6.371
							c0-4.8,3.891-8.691,8.691-8.691c4.8,0,8.691,3.891,8.691,8.691h18.985h9.499c0-4.8,3.891-8.691,8.691-8.691
							c4.8,0,8.691,3.891,8.691,8.691h1.741h5.23C112.492,78.07,111.407,76.985,111.407,75.647z"/>
						<path class="st4" d="M118.903,78.07h-5.073c-1.338,0-2.423-1.085-2.423-2.423v-0.673c0-1.338,1.085-2.423,2.423-2.423h5.073
							c1.386,0,2.509,1.123,2.509,2.509v0.5C121.412,76.946,120.289,78.07,118.903,78.07z"/>
						<path class="st4" d="M33.454,78.07h3.786c1.524,0,2.759-1.235,2.759-2.759v0c0-1.524-1.235-2.759-2.759-2.759h-3.786
							c-1.386,0-2.509,1.123-2.509,2.509v0.5C30.944,76.946,32.068,78.07,33.454,78.07z"/>
						<circle class="st5" cx="52.301" cy="78.07" r="8.691"/>
						<circle class="st5" cx="98.168" cy="78.07" r="8.691"/>
						<circle class="st2" cx="98.168" cy="78.07" r="4.041"/>
						<circle class="st2" cx="52.301" cy="78.07" r="4.041"/>
					</g>
					<path class="st6" d="M108.6,54.564c0,0-7.296-13.298-8.014-14.03H89.484c-1.922,0-3.479,1.558-3.479,3.479v7.618
						c0,1.922,1.558,3.479,3.479,3.479h21.972C110.571,54.762,109.609,54.564,108.6,54.564z"/>
					<path class="st4" d="M99.425,43.033c-0.498-0.93-1.121-1.767-1.839-2.499h-8.102c-1.922,0-3.479,1.558-3.479,3.479v7.618
						c0,1.922,1.558,3.479,3.479,3.479h18.972c-0.885-0.349-1.847-0.547-2.856-0.547L99.425,43.033z"/>
				</g>
			</g>
		</g>
		<path class="st4" d="M57.826,54.754h15.958c1.191,0,2.157-0.966,2.157-2.157v-9.553c0-1.191-0.966-2.157-2.157-2.157H57.826
			c-1.191,0-2.157,0.966-2.157,2.157v9.553C55.669,53.789,56.635,54.754,57.826,54.754z"/>
		<path class="st4" d="M35.832,54.754h7.084c1.191,0,2.157-0.966,2.157-2.157v-9.553c0-1.191-0.965-2.157-2.157-2.157h-5.103
			c-0.004,0.023-0.013,0.043-0.016,0.066L36.34,50.54C36.127,51.94,35.967,53.346,35.832,54.754z"/>
		<g>
			<path class="st3" d="M22.799,67.986c-3.155,2.057-6.878,1.045-8.78-1.798c-2.469-3.691-2.352-10.374,5.392-15.665
				c0,0,4.124-2.928,3.846-6.38C23.257,44.143,34.533,60.333,22.799,67.986z"/>
			<path class="st3" d="M15.538,73.984c1.766-1.272,1.996-3.49,0.859-5.108c-1.476-2.1-5.103-3.429-9.568-0.355
				c0,0-2.437,1.614-4.24,0.745C2.588,69.265,8.968,78.716,15.538,73.984z"/>
			<g>
				<path class="st7" d="M118.903,71.551h-1.493v-9.177c0-3.717-2.318-6.899-5.581-8.19c-0.002-0.001-0.004-0.003-0.006-0.004
					c-0.003-0.001-0.007-0.002-0.01-0.003c-0.391-0.154-0.795-0.277-1.21-0.374c-0.053-0.013-0.107-0.023-0.161-0.035
					c-0.402-0.086-0.81-0.154-1.23-0.183l-7.508-14.021c-1.1-2.051-3.228-3.326-5.554-3.326h-54.03
					c-2.607,0-4.781,1.829-5.263,4.369c-0.003,0.013-0.011,0.023-0.014,0.037c-0.011,0.041-0.028,0.117-0.034,0.159l-1.457,9.582
					c-0.002,0.015-0.004,0.029-0.006,0.044c-0.109,0.717-0.207,1.465-0.3,2.263c-0.077,0.636-0.142,1.274-0.203,1.912
					c-0.002,0.018-0.004,0.035-0.005,0.053c0,0.001,0,0.001,0,0.002c-0.234,2.451-0.365,4.914-0.365,7.367v9.523h-1.019
					c-1.935,0-3.509,1.574-3.509,3.509v0.5c0,1.935,1.574,3.509,3.509,3.509h2.019h1.769h2.146v1.32h-7.234c-0.553,0-1,0.448-1,1
					s0.447,1,1,1h8.234c0.553,0,1-0.448,1-1v-2.32h1.276c0.502,4.876,4.634,8.691,9.64,8.691s9.137-3.816,9.639-8.691h26.588
					c0.502,4.876,4.634,8.691,9.64,8.691s9.137-3.816,9.64-8.691h6.022h2.58h2.493c1.935,0,3.509-1.574,3.509-3.509v-0.5
					C122.412,73.125,120.838,71.551,118.903,71.551z M107.223,54.111H89.484c-1.367,0-2.479-1.112-2.479-2.479v-7.618
					c0-1.506,1.331-2.479,3.391-2.479h10.093l4.546,8.49L107.223,54.111z M37.057,52.735c0.082-0.66,0.163-1.32,0.262-1.975
					c0.003-0.023,0.006-0.047,0.01-0.07l1.338-8.802h4.25c0.638,0,1.156,0.519,1.156,1.156v9.553c0,0.638-0.519,1.157-1.156,1.157
					h-5.979C36.976,53.396,37.017,53.07,37.057,52.735z M36.472,62.028c0-2.088,0.096-4.185,0.271-6.273h6.174
					c1.74,0,3.156-1.416,3.156-3.157v-9.553c0-1.74-1.416-3.156-3.156-3.156h-3.694c0.59-0.999,1.666-1.649,2.897-1.649h54.03
					c1.176,0,2.276,0.479,3.073,1.295h-8.827c-3.174,0-5.391,1.842-5.391,4.479v7.618c0,2.47,2.01,4.479,4.479,4.479h21.786
					c2.431,1.04,4.14,3.456,4.14,6.263v9.177h-1.58c-1.888,0-3.423,1.536-3.423,3.423v0.673c0,0.509,0.119,0.988,0.319,1.423h-2.919
					c-0.502-4.876-4.634-8.691-9.64-8.691s-9.137,3.815-9.64,8.691H61.94c-0.502-4.876-4.633-8.691-9.639-8.691
					s-9.137,3.815-9.64,8.691h-2.121c0.282-0.527,0.458-1.12,0.458-1.759c0-2.073-1.687-3.759-3.759-3.759h-0.769V62.028z
					 M31.944,75.56v-0.5c0-0.832,0.677-1.509,1.509-1.509h3.787c0.97,0,1.759,0.789,1.759,1.759S38.21,77.07,37.24,77.07h-3.787
					C32.621,77.07,31.944,76.393,31.944,75.56z M52.302,85.761c-4.241,0-7.691-3.45-7.691-7.691c0-4.241,3.45-7.691,7.691-7.691
					c4.24,0,7.69,3.45,7.69,7.691C59.992,82.311,56.542,85.761,52.302,85.761z M98.168,85.761c-4.241,0-7.691-3.45-7.691-7.691
					c0-4.241,3.45-7.691,7.691-7.691s7.691,3.45,7.691,7.691C105.859,82.311,102.409,85.761,98.168,85.761z M120.412,75.56
					c0,0.832-0.677,1.509-1.509,1.509h-5.073c-0.784,0-1.423-0.638-1.423-1.423v-0.673c0-0.785,0.639-1.423,1.423-1.423h5.073
					c0.832,0,1.509,0.677,1.509,1.509V75.56z"/>
				<path class="st7" d="M98.168,73.029c-2.779,0-5.041,2.261-5.041,5.041c0,2.78,2.262,5.041,5.041,5.041s5.041-2.261,5.041-5.041
					C103.209,75.29,100.947,73.029,98.168,73.029z M98.168,81.111c-1.677,0-3.041-1.364-3.041-3.041s1.364-3.041,3.041-3.041
					s3.041,1.364,3.041,3.041S99.845,81.111,98.168,81.111z"/>
				<path class="st7" d="M52.302,73.029c-2.779,0-5.041,2.261-5.041,5.041c0,2.78,2.262,5.041,5.041,5.041s5.04-2.261,5.04-5.041
					C57.342,75.29,55.081,73.029,52.302,73.029z M52.302,81.111c-1.677,0-3.041-1.364-3.041-3.041s1.364-3.041,3.041-3.041
					s3.04,1.364,3.04,3.041S53.979,81.111,52.302,81.111z"/>
				<path class="st7" d="M57.826,55.754h15.958c1.74,0,3.156-1.416,3.156-3.157v-9.553c0-1.74-1.416-3.156-3.156-3.156H57.826
					c-1.741,0-3.157,1.416-3.157,3.156v9.553C54.669,54.338,56.085,55.754,57.826,55.754z M56.669,43.045
					c0-0.638,0.52-1.156,1.157-1.156h15.958c0.638,0,1.156,0.519,1.156,1.156v9.553c0,0.638-0.519,1.157-1.156,1.157H57.826
					c-0.638,0-1.157-0.519-1.157-1.157V43.045z"/>
				<path class="st7" d="M29.105,80.47l-0.454-0.028c-0.923-0.055-1.479-0.088-2.339-0.354c-0.531-0.165-1.088,0.133-1.251,0.661
					c-0.162,0.527,0.134,1.087,0.661,1.25c1.089,0.336,1.849,0.381,2.81,0.439l0.442,0.027c0.022,0.001,0.045,0.002,0.066,0.002
					c0.522,0,0.963-0.406,0.997-0.935C30.073,80.982,29.655,80.506,29.105,80.47z"/>
				<path class="st7" d="M23.431,79.082c-3.728-1.965-4.937-5.89-4.872-9.061c0.238,0.024,0.475,0.051,0.713,0.051
					c1.405,0,2.804-0.423,4.071-1.25c9.543-6.222,4.915-17.668,2.481-22.301c-0.94-1.788-1.717-2.906-1.749-2.953
					c-0.259-0.37-0.735-0.522-1.158-0.369c-0.426,0.153-0.695,0.572-0.659,1.022c0.231,2.84-3.391,5.458-3.412,5.474
					c-7.448,5.091-8.446,11.631-6.241,16.032c-1.84-0.164-4.009,0.363-6.326,1.958c-0.551,0.36-2.208,1.184-3.256,0.68
					c-0.407-0.195-0.895-0.095-1.191,0.247c-0.295,0.342-0.325,0.839-0.072,1.214c0.151,0.225,3.768,5.508,8.59,6.367
					c0.445,0.079,0.886,0.119,1.321,0.119c1.559,0,3.052-0.508,4.451-1.516c0.365-0.263,0.662-0.571,0.928-0.897
					c0.747,2.707,2.408,5.351,5.449,6.954c0.148,0.078,0.308,0.115,0.465,0.115c0.359,0,0.706-0.194,0.886-0.534
					C24.107,79.945,23.92,79.34,23.431,79.082z M19.988,51.337c0.141-0.1,2.641-1.898,3.753-4.465
					c0.102,0.184,0.206,0.378,0.313,0.581c2.706,5.152,6.07,14.562-1.803,19.694c0,0,0,0,0,0c-1.121,0.73-2.371,1.026-3.592,0.878
					c0.112-2.125,0.702-7.901,3.816-10.685c0.412-0.368,0.447-1,0.08-1.412c-0.369-0.412-1.002-0.447-1.412-0.079
					c-3.443,3.077-4.257,8.791-4.449,11.501c-0.72-0.419-1.36-0.995-1.846-1.718C12.466,62.069,13.054,56.078,19.988,51.337z
					 M14.953,73.172C14.953,73.172,14.953,73.172,14.953,73.172c-1.353,0.974-2.744,1.319-4.248,1.052
					c-2.417-0.428-4.57-2.348-5.898-3.804c1.321-0.265,2.397-0.949,2.589-1.076c3.755-2.584,6.873-1.756,8.183,0.106
					c0.096,0.137,0.18,0.283,0.251,0.435c-1.446-0.196-3.739-0.335-5.393,0.391c-0.506,0.222-0.735,0.813-0.513,1.318
					c0.164,0.375,0.531,0.598,0.916,0.598c0.134,0,0.271-0.027,0.401-0.085c1.278-0.561,3.387-0.392,4.69-0.186
					C15.76,72.38,15.45,72.814,14.953,73.172z"/>
			</g>
		</g>
	</g>
</g>
</svg>
