<?xml version="1.0" encoding="utf-8"?>
<!-- Generator: Adobe Illustrator 22.0.0, SVG Export Plug-In . SVG Version: 6.00 Build 0)  -->
<svg version="1.1" id="Icon_Set" xmlns="http://www.w3.org/2000/svg" xmlns:xlink="http://www.w3.org/1999/xlink" x="0px" y="0px"
	 viewBox="0 0 64 64" style="enable-background:new 0 0 64 64;" xml:space="preserve">
<style type="text/css">
	.st0{fill:#212A41;}
	.st1{fill:#4E4B51;}
	.st2{fill:#6C696F;}
	.st3{fill:#B7C0D7;}
	.st4{fill:#D5DEF5;}
	.st5{fill:#99A2B9;}
	.st6{fill:#E0E0E0;}
	.st7{fill:#D32E5E;}
	.st8{fill:#F9AC2F;}
	.st9{fill:#0079A8;}
	.st10{fill:#BED38E;}
	.st11{fill:#8A878D;}
	.st12{fill:#C2C2C2;}
	.st13{fill:#302D33;}
	.st14{fill:#FEFEFE;}
	.st15{fill:#FFCA4D;}
	.st16{fill:#DB8E11;}
	.st17{fill:#A4A4A4;}
	.st18{fill:#7B849B;}
	.st19{fill:#E0C8A4;}
	.st20{fill:#C2AA86;}
	.st21{fill:#FEE6C2;}
	.st22{fill:#1E97C6;}
	.st23{fill:#005B8A;}
	.st24{fill:#BD7000;}
</style>
<g>
	<g>
		<path class="st12" d="M48,34H8c-2.209,0-4-1.791-4-4V14c0-2.209,1.791-4,4-4h40c2.209,0,4,1.791,4,4v16C52,32.209,50.209,34,48,34
			z"/>
		<path class="st0" d="M48,34.5H8c-2.481,0-4.5-2.019-4.5-4.5V14c0-2.481,2.019-4.5,4.5-4.5h40c2.481,0,4.5,2.019,4.5,4.5v16
			C52.5,32.481,50.481,34.5,48,34.5z M8,10.5c-1.93,0-3.5,1.57-3.5,3.5v16c0,1.93,1.57,3.5,3.5,3.5h40c1.93,0,3.5-1.57,3.5-3.5V14
			c0-1.93-1.57-3.5-3.5-3.5H8z"/>
	</g>
	<g>
		<path class="st6" d="M56,34H16c-2.209,0-4-1.791-4-4V14c0-2.209,1.791-4,4-4h40c2.209,0,4,1.791,4,4v16C60,32.209,58.209,34,56,34
			z"/>
		<path class="st0" d="M56,34.5H16c-2.481,0-4.5-2.019-4.5-4.5V14c0-2.481,2.019-4.5,4.5-4.5h40c2.481,0,4.5,2.019,4.5,4.5v16
			C60.5,32.481,58.481,34.5,56,34.5z M16,10.5c-1.93,0-3.5,1.57-3.5,3.5v16c0,1.93,1.57,3.5,3.5,3.5h40c1.93,0,3.5-1.57,3.5-3.5V14
			c0-1.93-1.57-3.5-3.5-3.5H16z"/>
	</g>
	<g>
		<path class="st12" d="M50,28H22c-0.552,0-1,0.448-1,1v5h30v-5C51,28.448,50.552,28,50,28z"/>
		<path class="st0" d="M51,34.5H21c-0.276,0-0.5-0.224-0.5-0.5v-5c0-0.827,0.673-1.5,1.5-1.5h28c0.827,0,1.5,0.673,1.5,1.5v5
			C51.5,34.276,51.276,34.5,51,34.5z M21.5,33.5h29V29c0-0.276-0.224-0.5-0.5-0.5H22c-0.276,0-0.5,0.224-0.5,0.5V33.5z"/>
	</g>
	<g>
		<path class="st3" d="M39,22h-6c-0.552,0-1-0.448-1-1v-1c0-0.552,0.448-1,1-1h6c0.552,0,1,0.448,1,1v1C40,21.552,39.552,22,39,22z"
			/>
		<path class="st0" d="M39,22.5h-6c-0.827,0-1.5-0.673-1.5-1.5v-1c0-0.827,0.673-1.5,1.5-1.5h6c0.827,0,1.5,0.673,1.5,1.5v1
			C40.5,21.827,39.827,22.5,39,22.5z M33,19.5c-0.276,0-0.5,0.224-0.5,0.5v1c0,0.276,0.224,0.5,0.5,0.5h6c0.276,0,0.5-0.224,0.5-0.5
			v-1c0-0.276-0.224-0.5-0.5-0.5H33z"/>
	</g>
	<g>
		<circle class="st10" cx="55.352" cy="29.648" r="1.352"/>
		<path class="st0" d="M55.353,31.5c-1.021,0-1.853-0.831-1.853-1.853c0-1.021,0.831-1.852,1.853-1.852
			c1.021,0,1.852,0.831,1.852,1.852C57.205,30.669,56.374,31.5,55.353,31.5z M55.353,28.795c-0.47,0-0.853,0.382-0.853,0.852
			c0,0.47,0.382,0.853,0.853,0.853c0.47,0,0.852-0.382,0.852-0.853C56.205,29.178,55.822,28.795,55.353,28.795z"/>
	</g>
	<g>
		<path class="st3" d="M21.999,54c-0.226,0-0.455-0.051-0.67-0.159c-0.741-0.371-1.041-1.271-0.671-2.013l1.355-2.711
			c0.096-0.192,0.059-0.424-0.094-0.577l-1.961-1.961c-1.066-1.066-1.331-2.689-0.656-4.04l1.355-2.711
			c0.372-0.74,1.272-1.04,2.013-0.671c0.741,0.371,1.041,1.272,0.671,2.013l-1.355,2.71c-0.096,0.192-0.059,0.424,0.093,0.577
			l1.962,1.962c1.066,1.067,1.33,2.69,0.656,4.04l-1.355,2.711C23.079,53.696,22.549,54,21.999,54z"/>
		<path class="st0" d="M21.999,54.5c-0.307,0-0.616-0.073-0.893-0.211c-0.986-0.493-1.388-1.697-0.895-2.683l1.355-2.711
			l-1.961-1.961c-1.219-1.219-1.521-3.074-0.75-4.617l1.355-2.711c0.495-0.984,1.697-1.386,2.683-0.895
			c0.987,0.494,1.388,1.698,0.895,2.684l-1.355,2.71l1.961,1.961c1.219,1.219,1.52,3.075,0.75,4.617l-1.355,2.711
			C23.447,54.076,22.761,54.5,21.999,54.5z M22.003,39.5c-0.367,0-0.723,0.203-0.898,0.553l-1.355,2.71
			c-0.578,1.157-0.353,2.548,0.562,3.462l1.961,1.961c0.305,0.306,0.38,0.77,0.188,1.154l-1.355,2.711
			c-0.246,0.493-0.046,1.095,0.447,1.342c0.486,0.244,1.102,0.033,1.342-0.448l1.355-2.711c0.578-1.156,0.352-2.548-0.562-3.462
			l-1.962-1.962c-0.305-0.305-0.38-0.768-0.187-1.154l1.355-2.71c0.247-0.493,0.046-1.095-0.447-1.342
			C22.305,39.534,22.153,39.5,22.003,39.5z"/>
	</g>
	<g>
		<path class="st3" d="M31.999,54c-0.226,0-0.455-0.051-0.67-0.159c-0.741-0.371-1.041-1.271-0.671-2.013l1.355-2.711
			c0.096-0.192,0.059-0.424-0.094-0.577l-1.961-1.961c-1.066-1.066-1.331-2.689-0.656-4.04l1.355-2.711
			c0.372-0.74,1.272-1.04,2.013-0.671c0.741,0.371,1.041,1.272,0.671,2.013l-1.355,2.71c-0.096,0.192-0.059,0.424,0.093,0.577
			l1.962,1.962c1.066,1.067,1.33,2.69,0.656,4.04l-1.355,2.711C33.079,53.696,32.549,54,31.999,54z"/>
		<path class="st0" d="M31.999,54.5c-0.307,0-0.616-0.073-0.893-0.211c-0.986-0.493-1.388-1.697-0.895-2.683l1.355-2.711
			l-1.961-1.961c-1.219-1.219-1.521-3.074-0.75-4.617l1.355-2.711c0.495-0.984,1.697-1.386,2.683-0.895
			c0.987,0.494,1.388,1.698,0.895,2.684l-1.355,2.71l1.961,1.961c1.219,1.219,1.52,3.075,0.75,4.617l-1.355,2.711
			C33.447,54.076,32.761,54.5,31.999,54.5z M32.003,39.5c-0.367,0-0.723,0.203-0.898,0.553l-1.355,2.71
			c-0.578,1.157-0.353,2.548,0.562,3.462l1.961,1.961c0.305,0.306,0.38,0.77,0.188,1.154l-1.355,2.711
			c-0.246,0.493-0.046,1.095,0.447,1.342c0.486,0.244,1.102,0.033,1.342-0.448l1.355-2.711c0.578-1.156,0.352-2.548-0.562-3.462
			l-1.962-1.962c-0.305-0.305-0.38-0.768-0.187-1.154l1.355-2.71c0.247-0.493,0.046-1.095-0.447-1.342
			C32.305,39.534,32.153,39.5,32.003,39.5z"/>
	</g>
	<g>
		<path class="st3" d="M41.999,54c-0.226,0-0.455-0.051-0.67-0.159c-0.741-0.371-1.041-1.271-0.671-2.013l1.355-2.711
			c0.096-0.192,0.059-0.424-0.094-0.577l-1.961-1.961c-1.066-1.066-1.331-2.689-0.656-4.04l1.355-2.711
			c0.372-0.74,1.272-1.04,2.013-0.671c0.741,0.371,1.041,1.272,0.671,2.013l-1.355,2.71c-0.096,0.192-0.059,0.424,0.093,0.577
			l1.962,1.962c1.066,1.067,1.33,2.69,0.656,4.04l-1.355,2.711C43.079,53.696,42.549,54,41.999,54z"/>
		<path class="st0" d="M41.999,54.5c-0.307,0-0.616-0.073-0.893-0.211c-0.986-0.493-1.388-1.697-0.895-2.683l1.355-2.711
			l-1.961-1.961c-1.219-1.219-1.521-3.074-0.75-4.617l1.355-2.711c0.495-0.984,1.697-1.386,2.683-0.895
			c0.987,0.494,1.388,1.698,0.895,2.684l-1.355,2.71l1.961,1.961c1.219,1.219,1.52,3.075,0.75,4.617l-1.355,2.711
			C43.447,54.076,42.761,54.5,41.999,54.5z M42.003,39.5c-0.367,0-0.723,0.203-0.898,0.553l-1.355,2.71
			c-0.578,1.157-0.353,2.548,0.562,3.462l1.961,1.961c0.305,0.306,0.38,0.77,0.188,1.154l-1.355,2.711
			c-0.246,0.493-0.046,1.095,0.447,1.342c0.486,0.244,1.102,0.033,1.342-0.448l1.355-2.711c0.578-1.156,0.352-2.548-0.562-3.462
			l-1.962-1.962c-0.305-0.305-0.38-0.768-0.187-1.154l1.355-2.71c0.247-0.493,0.046-1.095-0.447-1.342
			C42.305,39.534,42.153,39.5,42.003,39.5z"/>
	</g>
	<g>
		<path class="st14" d="M14,30.5c-0.276,0-0.5-0.224-0.5-0.5V14c0-0.276,0.224-0.5,0.5-0.5s0.5,0.224,0.5,0.5v16
			C14.5,30.276,14.276,30.5,14,30.5z"/>
	</g>
	<g>
		<path class="st6" d="M6,30.5c-0.276,0-0.5-0.224-0.5-0.5V14c0-0.276,0.224-0.5,0.5-0.5s0.5,0.224,0.5,0.5v16
			C6.5,30.276,6.276,30.5,6,30.5z"/>
	</g>
	<g>
		<path class="st12" d="M58,30.5c-0.276,0-0.5-0.224-0.5-0.5V14c0-0.276,0.224-0.5,0.5-0.5s0.5,0.224,0.5,0.5v16
			C58.5,30.276,58.276,30.5,58,30.5z"/>
	</g>
</g>
</svg>
