<?xml version="1.0" encoding="utf-8"?>
<!-- Generator: Adobe Illustrator 22.0.0, SVG Export Plug-In . SVG Version: 6.00 Build 0)  -->
<svg version="1.1" id="Icon_Set" xmlns="http://www.w3.org/2000/svg" xmlns:xlink="http://www.w3.org/1999/xlink" x="0px" y="0px"
	 viewBox="0 0 64 64" style="enable-background:new 0 0 64 64;" xml:space="preserve">
<style type="text/css">
	.st0{fill:#212A41;}
	.st1{fill:#4E4B51;}
	.st2{fill:#6C696F;}
	.st3{fill:#B7C0D7;}
	.st4{fill:#D5DEF5;}
	.st5{fill:#99A2B9;}
	.st6{fill:#E0E0E0;}
	.st7{fill:#D32E5E;}
	.st8{fill:#F9AC2F;}
	.st9{fill:#0079A8;}
	.st10{fill:#BED38E;}
	.st11{fill:#8A878D;}
	.st12{fill:#C2C2C2;}
	.st13{fill:#302D33;}
	.st14{fill:#FEFEFE;}
	.st15{fill:#FFCA4D;}
	.st16{fill:#DB8E11;}
	.st17{fill:#A4A4A4;}
	.st18{fill:#7B849B;}
	.st19{fill:#E0C8A4;}
	.st20{fill:#C2AA86;}
	.st21{fill:#FEE6C2;}
	.st22{fill:#1E97C6;}
	.st23{fill:#005B8A;}
	.st24{fill:#BD7000;}
</style>
<g>
	<g>
		<path class="st9" d="M55,26H39c-1.105,0-2-0.895-2-2v-8c0-5.523,4.477-10,10-10h0c5.523,0,10,4.477,10,10v8
			C57,25.105,56.105,26,55,26z"/>
		<path class="st0" d="M55,26.5H39c-1.378,0-2.5-1.122-2.5-2.5v-8c0-5.79,4.71-10.5,10.5-10.5S57.5,10.21,57.5,16v8
			C57.5,25.378,56.378,26.5,55,26.5z M47,6.5c-5.238,0-9.5,4.262-9.5,9.5v8c0,0.827,0.673,1.5,1.5,1.5h16c0.827,0,1.5-0.673,1.5-1.5
			v-8C56.5,10.762,52.238,6.5,47,6.5z"/>
	</g>
	<g>
		<path class="st22" d="M39,24.5c-0.276,0-0.5-0.224-0.5-0.5v-8c0-4.687,3.813-8.5,8.5-8.5c0.276,0,0.5,0.224,0.5,0.5
			S47.276,8.5,47,8.5c-4.136,0-7.5,3.364-7.5,7.5v8C39.5,24.276,39.276,24.5,39,24.5z"/>
	</g>
	<g>
		<path class="st23" d="M37,24v-8c0-5.523,4.477-10,10-10H16C9.373,6,4,11.373,4,18v4c0,2.518,1.186,4.889,3.2,6.4l0.98,0.735
			c2.353,1.765,3.548,4.678,3.112,7.587L9,52h16l-2.937-19.088C21.504,29.278,24.316,26,27.994,26H39C37.895,26,37,25.105,37,24z"/>
		<path class="st0" d="M25,52.5H9c-0.146,0-0.284-0.063-0.379-0.174c-0.095-0.11-0.137-0.256-0.116-0.4l2.292-15.278
			c0.41-2.73-0.708-5.456-2.917-7.112L6.9,28.8c-2.129-1.597-3.4-4.139-3.4-6.8v-4C3.5,11.107,9.107,5.5,16,5.5h31
			c0.276,0,0.5,0.224,0.5,0.5S47.276,6.5,47,6.5c-5.238,0-9.5,4.262-9.5,9.5v8c0,0.827,0.673,1.5,1.5,1.5c0.276,0,0.5,0.224,0.5,0.5
			s-0.224,0.5-0.5,0.5H27.994c-1.606,0-3.128,0.699-4.174,1.919c-1.046,1.219-1.506,2.829-1.262,4.417l2.937,19.088
			c0.022,0.145-0.02,0.291-0.115,0.402C25.285,52.437,25.146,52.5,25,52.5z M9.581,51.5h14.836l-2.848-18.512
			c-0.289-1.877,0.255-3.78,1.491-5.221s3.034-2.268,4.933-2.268h9.007C36.687,25.082,36.5,24.562,36.5,24v-8
			c0-4.192,2.469-7.818,6.029-9.5H16C9.659,6.5,4.5,11.659,4.5,18v4c0,2.348,1.122,4.591,3,6l0.98,0.735
			c2.503,1.877,3.77,4.966,3.306,8.061L9.581,51.5z"/>
	</g>
	<g>
		<path class="st9" d="M11.323,50.5c-0.024,0-0.049-0.002-0.075-0.005c-0.273-0.041-0.461-0.296-0.42-0.569l1.947-12.981
			c0.519-3.458-0.896-6.911-3.694-9.009L8.1,27.2c-1.628-1.221-2.6-3.165-2.6-5.2v-4c0-5.79,4.71-10.5,10.5-10.5
			c0.276,0,0.5,0.224,0.5,0.5S16.276,8.5,16,8.5c-5.238,0-9.5,4.262-9.5,9.5v4c0,1.722,0.822,3.367,2.2,4.4l0.981,0.736
			c3.092,2.319,4.657,6.134,4.083,9.957l-1.947,12.981C11.78,50.322,11.566,50.5,11.323,50.5z"/>
	</g>
	<g>
		<path class="st6" d="M60,58H20v-2c0-2.209,1.791-4,4-4h32c2.209,0,4,1.791,4,4V58z"/>
		<path class="st0" d="M60,58.5H20c-0.276,0-0.5-0.224-0.5-0.5v-2c0-2.481,2.019-4.5,4.5-4.5h32c2.481,0,4.5,2.019,4.5,4.5v2
			C60.5,58.276,60.276,58.5,60,58.5z M20.5,57.5h39V56c0-1.93-1.57-3.5-3.5-3.5H24c-1.93,0-3.5,1.57-3.5,3.5V57.5z"/>
	</g>
	<g>
		<path class="st12" d="M44,58H4v-2c0-2.209,1.791-4,4-4h32c2.209,0,4,1.791,4,4V58z"/>
		<path class="st0" d="M44,58.5H4c-0.276,0-0.5-0.224-0.5-0.5v-2c0-2.481,2.019-4.5,4.5-4.5h32c2.481,0,4.5,2.019,4.5,4.5v2
			C44.5,58.276,44.276,58.5,44,58.5z M4.5,57.5h39V56c0-1.93-1.57-3.5-3.5-3.5H8c-1.93,0-3.5,1.57-3.5,3.5V57.5z"/>
	</g>
	<g>
		<path class="st9" d="M35,52H25l-2.937-19.088C21.504,29.278,24.316,26,27.994,26H31L35,52z"/>
		<path class="st0" d="M35,52.5H25c-0.247,0-0.457-0.18-0.494-0.424l-2.937-19.088c-0.289-1.877,0.255-3.78,1.491-5.221
			s3.034-2.268,4.933-2.268H31c0.247,0,0.457,0.18,0.494,0.424l4,26c0.022,0.145-0.02,0.291-0.115,0.402
			C35.285,52.437,35.146,52.5,35,52.5z M25.429,51.5h8.988l-3.846-25h-2.577c-1.606,0-3.128,0.699-4.174,1.919
			c-1.046,1.219-1.506,2.829-1.262,4.417L25.429,51.5z"/>
	</g>
	<g>
		<path class="st23" d="M32.668,50.5c-0.243,0-0.456-0.177-0.494-0.424l-3.385-22c-0.042-0.273,0.145-0.528,0.418-0.57
			c0.277-0.044,0.528,0.146,0.57,0.418l3.385,22c0.042,0.273-0.145,0.528-0.418,0.57C32.719,50.498,32.693,50.5,32.668,50.5z"/>
	</g>
	<g>
		<circle class="st6" cx="55" cy="18" r="5"/>
		<path class="st0" d="M55,23.5c-3.033,0-5.5-2.467-5.5-5.5s2.467-5.5,5.5-5.5s5.5,2.467,5.5,5.5S58.033,23.5,55,23.5z M55,13.5
			c-2.481,0-4.5,2.019-4.5,4.5s2.019,4.5,4.5,4.5s4.5-2.019,4.5-4.5S57.481,13.5,55,13.5z"/>
	</g>
	<g>
		<path class="st12" d="M55,21.5c-0.276,0-0.5-0.224-0.5-0.5s0.224-0.5,0.5-0.5c1.378,0,2.5-1.122,2.5-2.5
			c0-0.276,0.224-0.5,0.5-0.5s0.5,0.224,0.5,0.5C58.5,19.93,56.93,21.5,55,21.5z"/>
	</g>
	<g>
		<path class="st14" d="M52,18.5c-0.276,0-0.5-0.224-0.5-0.5c0-1.93,1.57-3.5,3.5-3.5c0.276,0,0.5,0.224,0.5,0.5s-0.224,0.5-0.5,0.5
			c-1.378,0-2.5,1.122-2.5,2.5C52.5,18.276,52.276,18.5,52,18.5z"/>
	</g>
	<g>
		<path class="st12" d="M37,20H15c-0.552,0-1-0.448-1-1v-2c0-0.552,0.448-1,1-1h22V20z"/>
		<path class="st0" d="M37,20.5H15c-0.827,0-1.5-0.673-1.5-1.5v-2c0-0.827,0.673-1.5,1.5-1.5h22c0.276,0,0.5,0.224,0.5,0.5v4
			C37.5,20.276,37.276,20.5,37,20.5z M15,16.5c-0.276,0-0.5,0.224-0.5,0.5v2c0,0.276,0.224,0.5,0.5,0.5h21.5v-3H15z"/>
	</g>
	<g>
		<path class="st6" d="M52,30H42c-0.552,0-1-0.448-1-1v-3h12v3C53,29.552,52.552,30,52,30z"/>
		<path class="st0" d="M52,30.5H42c-0.827,0-1.5-0.673-1.5-1.5v-3c0-0.276,0.224-0.5,0.5-0.5h12c0.276,0,0.5,0.224,0.5,0.5v3
			C53.5,29.827,52.827,30.5,52,30.5z M41.5,26.5V29c0,0.276,0.224,0.5,0.5,0.5h10c0.276,0,0.5-0.224,0.5-0.5v-2.5H41.5z"/>
	</g>
	<g>
		<path class="st0" d="M47,48.5c-0.276,0-0.5-0.224-0.5-0.5V30c0-0.276,0.224-0.5,0.5-0.5s0.5,0.224,0.5,0.5v18
			C47.5,48.276,47.276,48.5,47,48.5z"/>
	</g>
	<g>
		<path class="st0" d="M48,48.5h-2c-2.481,0-4.5-2.019-4.5-4.5v-4c0-2.481,2.019-4.5,4.5-4.5h2c2.481,0,4.5,2.019,4.5,4.5v4
			C52.5,46.481,50.481,48.5,48,48.5z M46,36.5c-1.93,0-3.5,1.57-3.5,3.5v4c0,1.93,1.57,3.5,3.5,3.5h2c1.93,0,3.5-1.57,3.5-3.5v-4
			c0-1.93-1.57-3.5-3.5-3.5H46z"/>
	</g>
	<g>
		<path class="st0" d="M47,48.5c-1.93,0-3.5-1.57-3.5-3.5v-6c0-1.93,1.57-3.5,3.5-3.5s3.5,1.57,3.5,3.5v6
			C50.5,46.93,48.93,48.5,47,48.5z M47,36.5c-1.378,0-2.5,1.122-2.5,2.5v6c0,1.378,1.122,2.5,2.5,2.5s2.5-1.122,2.5-2.5v-6
			C49.5,37.622,48.378,36.5,47,36.5z"/>
	</g>
	<g>
		<path class="st12" d="M50,18c0-2.761,2.239-5,5-5h-4c-2.761,0-5,2.239-5,5s2.239,5,5,5h4C52.239,23,50,20.761,50,18z"/>
		<path class="st0" d="M55,23.5h-4c-3.033,0-5.5-2.467-5.5-5.5s2.467-5.5,5.5-5.5h4c0.276,0,0.5,0.224,0.5,0.5s-0.224,0.5-0.5,0.5
			c-2.481,0-4.5,2.019-4.5,4.5s2.019,4.5,4.5,4.5c0.276,0,0.5,0.224,0.5,0.5S55.276,23.5,55,23.5z M51,13.5
			c-2.481,0-4.5,2.019-4.5,4.5s2.019,4.5,4.5,4.5h0.841C50.426,21.504,49.5,19.858,49.5,18s0.926-3.504,2.341-4.5H51z"/>
	</g>
	<g>
		<rect x="46" y="16" class="st2" width="4" height="4"/>
		<path class="st0" d="M50,20.5h-4c-0.276,0-0.5-0.224-0.5-0.5v-4c0-0.276,0.224-0.5,0.5-0.5h4c0.276,0,0.5,0.224,0.5,0.5v4
			C50.5,20.276,50.276,20.5,50,20.5z M46.5,19.5h3v-3h-3V19.5z"/>
	</g>
	<g>
		<rect x="42" y="16" class="st1" width="4" height="4"/>
		<path class="st0" d="M46,20.5h-4c-0.276,0-0.5-0.224-0.5-0.5v-4c0-0.276,0.224-0.5,0.5-0.5h4c0.276,0,0.5,0.224,0.5,0.5v4
			C46.5,20.276,46.276,20.5,46,20.5z M42.5,19.5h3v-3h-3V19.5z"/>
	</g>
	<g>
		<path class="st10" d="M17,27h-2c-0.552,0-1-0.448-1-1v-2c0-0.552,0.448-1,1-1h2c0.552,0,1,0.448,1,1v2C18,26.552,17.552,27,17,27z
			"/>
		<path class="st0" d="M17,27.5h-2c-0.827,0-1.5-0.673-1.5-1.5v-2c0-0.827,0.673-1.5,1.5-1.5h2c0.827,0,1.5,0.673,1.5,1.5v2
			C18.5,26.827,17.827,27.5,17,27.5z M15,23.5c-0.276,0-0.5,0.224-0.5,0.5v2c0,0.276,0.224,0.5,0.5,0.5h2c0.276,0,0.5-0.224,0.5-0.5
			v-2c0-0.276-0.224-0.5-0.5-0.5H15z"/>
	</g>
</g>
</svg>
