<?xml version="1.0" encoding="utf-8"?>
<!-- Generator: Adobe Illustrator 22.0.0, SVG Export Plug-In . SVG Version: 6.00 Build 0)  -->
<svg version="1.1" id="Icon_Set" xmlns="http://www.w3.org/2000/svg" xmlns:xlink="http://www.w3.org/1999/xlink" x="0px" y="0px"
	 viewBox="0 0 64 64" style="enable-background:new 0 0 64 64;" xml:space="preserve">
<style type="text/css">
	.st0{fill:#212A41;}
	.st1{fill:#4E4B51;}
	.st2{fill:#6C696F;}
	.st3{fill:#B7C0D7;}
	.st4{fill:#D5DEF5;}
	.st5{fill:#99A2B9;}
	.st6{fill:#E0E0E0;}
	.st7{fill:#D32E5E;}
	.st8{fill:#F9AC2F;}
	.st9{fill:#0079A8;}
	.st10{fill:#BED38E;}
	.st11{fill:#8A878D;}
	.st12{fill:#C2C2C2;}
	.st13{fill:#302D33;}
	.st14{fill:#FEFEFE;}
	.st15{fill:#FFCA4D;}
	.st16{fill:#DB8E11;}
	.st17{fill:#A4A4A4;}
	.st18{fill:#7B849B;}
	.st19{fill:#E0C8A4;}
	.st20{fill:#C2AA86;}
	.st21{fill:#FEE6C2;}
	.st22{fill:#1E97C6;}
	.st23{fill:#005B8A;}
	.st24{fill:#BD7000;}
</style>
<g>
	<g>
		<path class="st1" d="M42,4H14c-1.105,0-2,0.895-2,2v52c0,1.105,0.895,2,2,2h26c1.105,0,2-0.895,2-2V4z"/>
		<path class="st0" d="M40,60.5H14c-1.379,0-2.5-1.122-2.5-2.5V6c0-1.378,1.121-2.5,2.5-2.5h28c0.276,0,0.5,0.224,0.5,0.5v54
			C42.5,59.378,41.379,60.5,40,60.5z M14,4.5c-0.827,0-1.5,0.673-1.5,1.5v52c0,0.827,0.673,1.5,1.5,1.5h26
			c0.827,0,1.5-0.673,1.5-1.5V4.5H14z"/>
	</g>
	<g>
		<path class="st2" d="M14,58.5c-0.276,0-0.5-0.224-0.5-0.5V6c0-0.276,0.224-0.5,0.5-0.5s0.5,0.224,0.5,0.5v52
			C14.5,58.276,14.276,58.5,14,58.5z"/>
	</g>
	<g>
		<rect x="22" y="16" class="st5" width="30" height="19"/>
		<path class="st0" d="M52,35.5H22c-0.276,0-0.5-0.224-0.5-0.5V16c0-0.276,0.224-0.5,0.5-0.5h30c0.276,0,0.5,0.224,0.5,0.5v19
			C52.5,35.276,52.276,35.5,52,35.5z M22.5,34.5h29v-18h-29V34.5z"/>
	</g>
	<g>
		<rect x="22" y="16" class="st3" width="27" height="19"/>
		<path class="st0" d="M49,35.5H22c-0.276,0-0.5-0.224-0.5-0.5V16c0-0.276,0.224-0.5,0.5-0.5h27c0.276,0,0.5,0.224,0.5,0.5v19
			C49.5,35.276,49.276,35.5,49,35.5z M22.5,34.5h26v-18h-26V34.5z"/>
	</g>
	<g>
		<path class="st2" d="M52,35H22v23c0,1.105,0.895,2,2,2h26c1.105,0,2-0.895,2-2V35z"/>
		<path class="st0" d="M50,60.5H24c-1.379,0-2.5-1.122-2.5-2.5V35c0-0.276,0.224-0.5,0.5-0.5h30c0.276,0,0.5,0.224,0.5,0.5v23
			C52.5,59.378,51.379,60.5,50,60.5z M22.5,35.5V58c0,0.827,0.673,1.5,1.5,1.5h26c0.827,0,1.5-0.673,1.5-1.5V35.5H22.5z"/>
	</g>
	<g>
		<path class="st4" d="M24,33.5c-0.276,0-0.5-0.224-0.5-0.5V18c0-0.276,0.224-0.5,0.5-0.5s0.5,0.224,0.5,0.5v15
			C24.5,33.276,24.276,33.5,24,33.5z"/>
	</g>
	<g>
		<path class="st1" d="M50,58.5c-0.276,0-0.5-0.224-0.5-0.5V37c0-0.276,0.224-0.5,0.5-0.5s0.5,0.224,0.5,0.5v21
			C50.5,58.276,50.276,58.5,50,58.5z"/>
	</g>
	<g>
		<path class="st11" d="M24,58.5c-0.276,0-0.5-0.224-0.5-0.5V37c0-0.276,0.224-0.5,0.5-0.5s0.5,0.224,0.5,0.5v21
			C24.5,58.276,24.276,58.5,24,58.5z"/>
	</g>
	<g>
		<path class="st2" d="M52,12H22V6c0-1.105,0.895-2,2-2h26c1.105,0,2,0.895,2,2V12z"/>
		<path class="st0" d="M52,12.5H22c-0.276,0-0.5-0.224-0.5-0.5V6c0-1.378,1.121-2.5,2.5-2.5h26c1.379,0,2.5,1.122,2.5,2.5v6
			C52.5,12.276,52.276,12.5,52,12.5z M22.5,11.5h29V6c0-0.827-0.673-1.5-1.5-1.5H24c-0.827,0-1.5,0.673-1.5,1.5V11.5z"/>
	</g>
	<g>
		<rect x="22" y="12" class="st6" width="30" height="4"/>
		<path class="st0" d="M52,16.5H22c-0.276,0-0.5-0.224-0.5-0.5v-4c0-0.276,0.224-0.5,0.5-0.5h30c0.276,0,0.5,0.224,0.5,0.5v4
			C52.5,16.276,52.276,16.5,52,16.5z M22.5,15.5h29v-3h-29V15.5z"/>
	</g>
	<g>
		<path class="st11" d="M24,10.5c-0.276,0-0.5-0.224-0.5-0.5V6c0-0.276,0.224-0.5,0.5-0.5s0.5,0.224,0.5,0.5v4
			C24.5,10.276,24.276,10.5,24,10.5z"/>
	</g>
	<g>
		<path class="st1" d="M50,10.5c-0.276,0-0.5-0.224-0.5-0.5V6c0-0.276,0.224-0.5,0.5-0.5s0.5,0.224,0.5,0.5v4
			C50.5,10.276,50.276,10.5,50,10.5z"/>
	</g>
	<g>
		<rect x="28" y="16" class="st6" width="4" height="3"/>
		<path class="st0" d="M32,19.5h-4c-0.276,0-0.5-0.224-0.5-0.5v-3c0-0.276,0.224-0.5,0.5-0.5h4c0.276,0,0.5,0.224,0.5,0.5v3
			C32.5,19.276,32.276,19.5,32,19.5z M28.5,18.5h3v-2h-3V18.5z"/>
	</g>
	<g>
		<rect x="35" y="16" class="st6" width="4" height="3"/>
		<path class="st0" d="M39,19.5h-4c-0.276,0-0.5-0.224-0.5-0.5v-3c0-0.276,0.224-0.5,0.5-0.5h4c0.276,0,0.5,0.224,0.5,0.5v3
			C39.5,19.276,39.276,19.5,39,19.5z M35.5,18.5h3v-2h-3V18.5z"/>
	</g>
	<g>
		<rect x="42" y="16" class="st6" width="4" height="3"/>
		<path class="st0" d="M46,19.5h-4c-0.276,0-0.5-0.224-0.5-0.5v-3c0-0.276,0.224-0.5,0.5-0.5h4c0.276,0,0.5,0.224,0.5,0.5v3
			C46.5,19.276,46.276,19.5,46,19.5z M42.5,18.5h3v-2h-3V18.5z"/>
	</g>
	<g>
		<polygon class="st3" points="40,35 34,35 33,25 41,25 		"/>
		<path class="st0" d="M40,35.5h-6c-0.257,0-0.472-0.195-0.497-0.45l-1-10c-0.015-0.141,0.031-0.281,0.126-0.385
			C32.724,24.56,32.858,24.5,33,24.5h8c0.142,0,0.276,0.06,0.371,0.165c0.095,0.104,0.141,0.245,0.126,0.385l-1,10
			C40.472,35.305,40.257,35.5,40,35.5z M34.452,34.5h5.096l0.899-9h-6.895L34.452,34.5z"/>
	</g>
	<g>
		<rect x="33" y="8" class="st3" width="8" height="4"/>
		<path class="st0" d="M41,12.5h-8c-0.276,0-0.5-0.224-0.5-0.5V8c0-0.276,0.224-0.5,0.5-0.5h8c0.276,0,0.5,0.224,0.5,0.5v4
			C41.5,12.276,41.276,12.5,41,12.5z M33.5,11.5h7v-3h-7V11.5z"/>
	</g>
</g>
</svg>
