<svg xmlns="http://www.w3.org/2000/svg" viewBox="0 0 512 512"><title>50 Astrology Icons - Expanded</title><path d="M476.618,308.485h0a95.367,95.367,0,0,0-46.41-25.718c21.688-64.231,7-138.146-44.1-189.242A182.8,182.8,0,0,0,256,39.633v64a120,120,0,0,1,84.852,204.852,96,96,0,1,0,135.766,0ZM431.363,399a32,32,0,0,1-45.255-45.255h0l.007-.007A32,32,0,0,1,431.363,399Z" fill="#5a6eb9"/><path d="M256,39.633A182.8,182.8,0,0,0,125.892,93.525c-51.1,51.1-65.787,125.011-44.1,189.242a96.039,96.039,0,1,0,89.354,25.718A120,120,0,0,1,256,103.633a32,32,0,0,0,0-64ZM125.892,399a32,32,0,1,1-.007-45.262l.007.007.01.01a32,32,0,0,1-.01,45.245Z" fill="#878ce6"/><path d="M96.07,231.633a8,8,0,0,1-8-8A167.922,167.922,0,0,1,230.819,57.5a8,8,0,0,1,2.362,15.824A151.925,151.925,0,0,0,104.07,223.633,8,8,0,0,1,96.07,231.633Z" fill="#a5aaff"/><path d="M31.265,384.367a8,8,0,0,1-8-8,80.09,80.09,0,0,1,80-80,8,8,0,0,1,0,16,64.073,64.073,0,0,0-64,64A8,8,0,0,1,31.265,384.367Z" fill="#a5aaff"/></svg>