<svg xmlns="http://www.w3.org/2000/svg" viewBox="0 0 512 512"><title>50 Astrology Icons - Expanded</title><path d="M128,16h0a64,64,0,0,1,64,64v32a0,0,0,0,1,0,0H160a32,32,0,0,1-32-32V16A0,0,0,0,1,128,16Z" fill="#96321e"/><path d="M352,16h32a0,0,0,0,1,0,0V48a64,64,0,0,1-64,64h0a0,0,0,0,1,0,0V48A32,32,0,0,1,352,16Z" transform="translate(704 128) rotate(180)" fill="#96321e"/><path d="M128,144v98.745A109.256,109.256,0,0,0,160,320h0a109.256,109.256,0,0,1,32,77.255V448a16,16,0,0,0,16,16h96a16,16,0,0,0,16-16V397.255A109.256,109.256,0,0,1,352,320h0a109.256,109.256,0,0,0,32-77.255V144a32,32,0,0,0-32-32H160A32,32,0,0,0,128,144Z" fill="#96321e"/><circle cx="192" cy="208" r="16" fill="#32283c"/><circle cx="320" cy="208" r="16" fill="#32283c"/><path d="M128,144v16a16,16,0,0,0,16,16h48a32,32,0,0,1,32,32V384h0a32,32,0,0,0-32,32v32a16,16,0,0,0,16,16h96a16,16,0,0,0,16-16V416a32,32,0,0,0-32-32h0V208a32,32,0,0,1,32-32h48a16,16,0,0,0,16-16V144a32,32,0,0,0-32-32H160A32,32,0,0,0,128,144Z" fill="#b4503c"/><path d="M208,464h96a0,0,0,0,1,0,0v8a24,24,0,0,1-24,24H232a24,24,0,0,1-24-24v-8A0,0,0,0,1,208,464Z" fill="#96321e"/><path d="M236,416h0a12,12,0,0,1,12,12v36a0,0,0,0,1,0,0H224a0,0,0,0,1,0,0V428A12,12,0,0,1,236,416Z" fill="#32283c"/><path d="M276,416h0a12,12,0,0,1,12,12v36a0,0,0,0,1,0,0H264a0,0,0,0,1,0,0V428A12,12,0,0,1,276,416Z" fill="#32283c"/><path d="M224,80h32a0,0,0,0,1,0,0v32a32,32,0,0,1-32,32h0a0,0,0,0,1,0,0V80A0,0,0,0,1,224,80Z" fill="#32283c"/><path d="M208,80h16a0,0,0,0,1,0,0v32a32,32,0,0,1-32,32h0a0,0,0,0,1,0,0V96A16,16,0,0,1,208,80Z" fill="#32283c"/><path d="M256,80h0a32,32,0,0,1,32,32v32a0,0,0,0,1,0,0H256a0,0,0,0,1,0,0V80A0,0,0,0,1,256,80Z" transform="translate(544 224) rotate(180)" fill="#32283c"/><path d="M288,80h0a32,32,0,0,1,32,32v32a0,0,0,0,1,0,0H304a16,16,0,0,1-16-16V80A0,0,0,0,1,288,80Z" transform="translate(608 224) rotate(180)" fill="#32283c"/></svg>