<svg xmlns="http://www.w3.org/2000/svg" viewBox="0 0 512 512"><title>50 Astrology Icons - Expanded</title><circle cx="256" cy="256" r="224" fill="#6478b9"/><path d="M256,32V480c123.712,0,224-100.288,224-224S379.712,32,256,32Z" fill="#465a9b"/><path d="M128,128H72.168a223.077,223.077,0,0,0-30.874,64H128a32,32,0,0,0,32-32h0A32,32,0,0,0,128,128Z" fill="#6ea5d7"/><path d="M352,224h0a32,32,0,0,0,32,32h96a223.98,223.98,0,0,0-9.294-64H384A32,32,0,0,0,352,224Z" fill="#6478b9"/><path d="M320,448h51.426a225.163,225.163,0,0,0,68.406-64H320a32,32,0,0,0-32,32h0A32,32,0,0,0,320,448Z" fill="#6478b9"/><path d="M256,256H32a223.98,223.98,0,0,0,9.294,64H256a32,32,0,0,0,32-32h0A32,32,0,0,0,256,256Z" fill="#6ea5d7"/><path d="M344,128H320V104a8,8,0,0,0-16,0v24H280a8,8,0,0,0,0,16h24v24a8,8,0,0,0,16,0V144h24a8,8,0,0,0,0-16Z" fill="#a5c3dc"/><path d="M216,400H200V384a8,8,0,0,0-16,0v16H168a8,8,0,0,0,0,16h16v16a8,8,0,0,0,16,0V416h16a8,8,0,0,0,0-16Z" fill="#d7e6f0"/><path d="M256,256h0a32,32,0,0,1,32,32v0a32,32,0,0,1-32,32h0a0,0,0,0,1,0,0V256A0,0,0,0,1,256,256Z" fill="#6478b9"/></svg>