<svg xmlns="http://www.w3.org/2000/svg" viewBox="0 0 512 512"><title>50 Astrology Icons - Expanded</title><path d="M272,48H176A160,160,0,0,0,16,208H304V80A32,32,0,0,0,272,48Z" fill="#f05a4b"/><path d="M304,80h16a64,64,0,0,1,64,64v0a64,64,0,0,1-64,64H304a0,0,0,0,1,0,0V80A0,0,0,0,1,304,80Z" fill="#f05a4b"/><path d="M304,80H176A128,128,0,0,0,48,208v48H80a48,48,0,0,1,48-48H304Z" fill="#d73228"/><path d="M112,288v26.078A5.923,5.923,0,0,1,106.078,320h0a5.923,5.923,0,0,1-3.7-1.3L64,288,25.622,318.7a5.923,5.923,0,0,1-3.7,1.3h0A5.923,5.923,0,0,1,16,314.078V288a32,32,0,0,1,32-32H80A32,32,0,0,1,112,288Z" fill="#f05a4b"/><path d="M256,208h48a0,0,0,0,1,0,0v0a48,48,0,0,1-48,48h0a0,0,0,0,1,0,0V208A0,0,0,0,1,256,208Z" fill="#f05a4b"/><circle cx="336" cy="128" r="16" fill="#32283c"/><path d="M256,104v80a40,40,0,0,1,0-80Z" fill="#f05a4b"/><path d="M240,464h96A160,160,0,0,0,496,304H208V432A32,32,0,0,0,240,464Z" fill="#6ea5d7"/><path d="M128,304h16a64,64,0,0,1,64,64v0a64,64,0,0,1-64,64H128a0,0,0,0,1,0,0V304A0,0,0,0,1,128,304Z" transform="translate(336 736) rotate(-180)" fill="#6ea5d7"/><path d="M208,432H336A128,128,0,0,0,464,304V256H432a48,48,0,0,1-48,48H208Z" fill="#647dbe"/><path d="M400,224V197.922A5.923,5.923,0,0,1,405.922,192h0a5.923,5.923,0,0,1,3.7,1.3L448,224l38.378-30.7a5.923,5.923,0,0,1,3.7-1.3h0A5.923,5.923,0,0,1,496,197.922V224a32,32,0,0,1-32,32H432A32,32,0,0,1,400,224Z" fill="#6ea5d7"/><path d="M208,256h48a0,0,0,0,1,0,0v0a48,48,0,0,1-48,48h0a0,0,0,0,1,0,0V256A0,0,0,0,1,208,256Z" transform="translate(464 560) rotate(-180)" fill="#6ea5d7"/><circle cx="176" cy="384" r="16" fill="#32283c"/><path d="M256,408V328a40,40,0,0,1,0,80Z" fill="#6ea5d7"/></svg>