<svg xmlns="http://www.w3.org/2000/svg" viewBox="0 0 512 512"><title>50 Astrology Icons - Expanded</title><path d="M192,24h0a48,48,0,0,1,48,48V304a0,0,0,0,1,0,0H144a0,0,0,0,1,0,0V72a48,48,0,0,1,48-48Z" fill="#c39b69"/><path d="M192,48h0a24,24,0,0,1,24,24V304a0,0,0,0,1,0,0H168a0,0,0,0,1,0,0V72A24,24,0,0,1,192,48Z" fill="#f05a4b"/><path d="M320,24h0a48,48,0,0,1,48,48V304a0,0,0,0,1,0,0H272a0,0,0,0,1,0,0V72a48,48,0,0,1,48-48Z" fill="#c39b69"/><path d="M320,48h0a24,24,0,0,1,24,24V304a0,0,0,0,1,0,0H296a0,0,0,0,1,0,0V72a24,24,0,0,1,24-24Z" fill="#f05a4b"/><path d="M144,304h0a38.628,38.628,0,0,1-11.314,27.314l-14.059,14.059A77.254,77.254,0,0,0,96,400h0a64,64,0,0,0,64,64H352a64,64,0,0,0,64-64h0a77.254,77.254,0,0,0-22.627-54.627l-14.059-14.059A38.628,38.628,0,0,1,368,304h0a64,64,0,0,0-64-64H208A64,64,0,0,0,144,304Z" fill="#c39b69"/><path d="M224,368h64a0,0,0,0,1,0,0V480a8,8,0,0,1-8,8H232a8,8,0,0,1-8-8V368A0,0,0,0,1,224,368Z" fill="#d7e6f0"/><path d="M250.667,368h10.667a0,0,0,0,1,0,0V474.667A5.333,5.333,0,0,1,256,480h0a5.333,5.333,0,0,1-5.333-5.333V368a0,0,0,0,1,0,0Z" fill="#a5c3dc"/><circle cx="192" cy="336" r="16" fill="#32283c"/><circle cx="320" cy="336" r="16" fill="#32283c"/><path d="M320,304h48a64,64,0,0,0-64-64H208a64,64,0,0,0-64,64h48a32,32,0,0,1,32,32v32a48,48,0,1,0,32,83.768A48,48,0,1,0,288,368V336A32,32,0,0,1,320,304Z" fill="#facda0"/><path d="M288,400V368H224v32a32,32,0,0,1,32,32A32,32,0,0,1,288,400Z" fill="#32283c"/></svg>