<?xml version="1.0" encoding="utf-8"?>
<!-- Generator: Adobe Illustrator 22.1.0, SVG Export Plug-In . SVG Version: 6.00 Build 0)  -->
<svg version="1.1" id="Layer_1" xmlns="http://www.w3.org/2000/svg" xmlns:xlink="http://www.w3.org/1999/xlink" x="0px" y="0px"
	 viewBox="0 0 256 256" style="enable-background:new 0 0 256 256;" xml:space="preserve">
<style type="text/css">
	.st0{fill:#FCC24C;}
	.st1{fill:#FCE06A;}
	.st2{fill:#DEA42E;}
	.st3{fill:#690589;}
	.st4{fill:#7BAC51;}
	.st5{fill:#5D8E33;}
	.st6{fill:#99CA6F;}
	.st7{fill:#F4EFED;}
	.st8{fill:#FF4397;}
	.st9{fill:#D6D1CF;}
	.st10{fill:#FFFFFF;}
	.st11{fill:#FF9F70;}
	.st12{fill:#FFBD8E;}
	.st13{fill:#E18152;}
	.st14{fill:#E12579;}
	.st15{fill:#FF61B5;}
</style>
<g>
	<g>
		<path class="st4" d="M242,189.019H14c-5.523,0-10-4.477-10-10V76.981c0-5.523,4.477-10,10-10h228c5.523,0,10,4.477,10,10v102.037
			C252,184.542,247.523,189.019,242,189.019z"/>
	</g>
	<g>
		<path class="st5" d="M242,66.981h-10c5.523,0,10,4.477,10,10v102.037c0,5.523-4.477,10-10,10h10c5.523,0,10-4.477,10-10V76.981
			C252,71.459,247.523,66.981,242,66.981z"/>
	</g>
	<g>
		<path class="st6" d="M14,189.019h10c-5.523,0-10-4.477-10-10V76.981c0-5.523,4.477-10,10-10H14c-5.523,0-10,4.477-10,10v102.037
			C4,184.542,8.477,189.019,14,189.019z"/>
	</g>
	<g>
		<path class="st0" d="M231.393,176.572H24.607c-4.396,0-7.96-3.564-7.96-7.96V87.388c0-4.396,3.564-7.96,7.96-7.96h206.786
			c4.396,0,7.96,3.564,7.96,7.96v81.224C239.353,173.008,235.789,176.572,231.393,176.572z"/>
	</g>
	<g>
		<path class="st8" d="M41.615,152.432v-48.863c0-2.567,2.071-4.555,4.555-4.555c0.083,0,0.083,0,0.249,0c0,0,0,0,0.082,0h11.43
			c8.695,0,15.736,7.04,15.736,15.736c0,3.562-1.16,6.791-3.147,9.441c4.969,3.147,8.364,8.697,8.364,14.99
			c0,9.856-7.951,17.806-17.723,17.806H46.501c-0.082,0-0.082-0.083-0.082-0.083c-0.166,0-0.166,0.083-0.249,0.083
			C43.686,156.986,41.615,154.916,41.615,152.432z M50.809,121.457h7.122c3.644,0,6.542-3.064,6.542-6.708
			c0-3.644-2.898-6.543-6.542-6.543h-7.122V121.457z M50.809,147.793h10.352c4.72-0.082,8.53-3.809,8.53-8.613
			c0-4.72-3.809-8.447-8.53-8.53H50.809V147.793z"/>
	</g>
	<g>
		<path class="st8" d="M135.289,143.322h-20.125l-4.058,10.766c-0.745,1.822-2.484,2.898-4.306,2.898
			c-0.58,0-1.076-0.083-1.573-0.249c-2.402-0.911-3.562-3.561-2.733-5.962l18.302-48.78c0.745-1.822,2.567-2.982,4.389-2.898
			c1.905-0.083,3.644,1.076,4.389,2.898l18.303,48.78c0.829,2.402-0.331,5.051-2.733,5.962c-0.414,0.165-0.993,0.249-1.573,0.249
			c-1.822,0-3.562-1.076-4.224-2.898L135.289,143.322z M131.894,134.212l-6.709-17.806l-6.708,17.806H131.894z"/>
	</g>
	<g>
		<path class="st8" d="M214.137,150.113c0.829,2.401-0.497,4.968-2.898,5.797c-0.331,0.082-0.994,0.249-1.822,0.249c0,0,0,0-0.083,0
			c-0.828,0-2.07-0.167-3.23-0.911c-1.077-0.663-1.988-1.74-2.65-2.9c-1.16-2.401-1.74-5.383-1.74-9.938
			c-0.082-1.574-0.414-2.651-0.994-3.562c-0.497-0.911-1.49-1.739-2.484-2.402c-1.739-1.159-3.893-1.822-4.638-1.988h-9.772v17.972
			c0,2.484-2.071,4.555-4.638,4.555c-2.567,0-4.555-2.071-4.555-4.555v-48.863c0-2.567,1.988-4.555,4.555-4.555c0,0,0,0,0.083,0
			h14.741c9.855,0,17.723,7.951,17.723,17.806c0,5.466-2.484,10.27-6.459,13.581c1.077,0.829,2.07,1.822,2.898,3.065
			c1.657,2.402,2.733,5.466,2.733,8.944c-0.083,2.484,0.166,4.058,0.331,4.886C212.564,147.711,213.64,148.704,214.137,150.113z
			 M202.543,116.82c0-4.804-3.811-8.613-8.531-8.613h-10.186v17.061h10.186C198.732,125.268,202.543,121.457,202.543,116.82z"/>
	</g>
	<g>
		<path class="st3" d="M242,191.019H14c-6.617,0-12-5.383-12-12V76.981c0-6.617,5.383-12,12-12h228c6.617,0,12,5.383,12,12v102.037
			C254,185.636,248.617,191.019,242,191.019z M14,68.981c-4.411,0-8,3.589-8,8v102.037c0,4.411,3.589,8,8,8h228c4.411,0,8-3.589,8-8
			V76.981c0-4.411-3.589-8-8-8H14z"/>
	</g>
	<g>
		<path class="st3" d="M231.394,178.572H24.607c-5.492,0-9.96-4.468-9.96-9.96V87.388c0-5.492,4.468-9.96,9.96-9.96h206.787
			c5.492,0,9.96,4.468,9.96,9.96v81.225C241.353,174.105,236.886,178.572,231.394,178.572z M24.607,81.428
			c-3.287,0-5.96,2.674-5.96,5.96v81.225c0,3.286,2.674,5.96,5.96,5.96h206.787c3.286,0,5.96-2.674,5.96-5.96V87.388
			c0-3.286-2.674-5.96-5.96-5.96H24.607z"/>
	</g>
	<g>
		<path class="st3" d="M24.646,109.097c-1.104,0-2-0.896-2-2v-12c0-1.104,0.896-2,2-2c1.105,0,2,0.896,2,2v12
			C26.646,108.201,25.751,109.097,24.646,109.097z"/>
	</g>
	<g>
		<path class="st3" d="M61.161,158.986H46.501c-0.059,0-0.117-0.003-0.174-0.007c-0.053,0.004-0.105,0.007-0.157,0.007
			c-3.614,0-6.555-2.94-6.555-6.555v-48.863c0-3.614,2.941-6.555,6.555-6.555h11.761c9.779,0,17.735,7.956,17.735,17.735
			c0,3.176-0.827,6.225-2.408,8.928c4.809,3.757,7.625,9.418,7.625,15.503C80.884,150.102,72.036,158.986,61.161,158.986z
			 M47.4,158.591 M46.992,154.986h14.169c8.67,0,15.723-7.091,15.723-15.807c0-5.38-2.779-10.352-7.435-13.3
			c-0.471-0.298-0.797-0.78-0.897-1.328c-0.101-0.549,0.033-1.115,0.367-1.562c1.797-2.396,2.748-5.246,2.748-8.241
			c0-7.573-6.162-13.735-13.735-13.735H46.17c-1.433,0-2.555,1.122-2.555,2.555v48.863c0,1.283,1.004,2.382,2.253,2.536
			C46.231,154.88,46.637,154.882,46.992,154.986z M50.809,149.793c-1.104,0-2-0.895-2-2V130.65c0-1.105,0.896-2,2-2h10.352
			c5.92,0.104,10.53,4.729,10.53,10.529c0,5.849-4.61,10.511-10.495,10.613H50.809z M52.809,145.793h8.352
			c3.646-0.063,6.53-2.969,6.53-6.613c0-3.597-2.884-6.465-6.565-6.529h-8.317V145.793z M57.931,123.457h-7.123
			c-1.104,0-2-0.896-2-2v-13.25c0-1.104,0.896-2,2-2h7.123c4.71,0,8.542,3.832,8.542,8.542
			C66.474,119.551,62.642,123.457,57.931,123.457z M52.809,119.457h5.123c2.505,0,4.542-2.112,4.542-4.708
			c0-2.547-1.995-4.542-4.542-4.542h-5.123V119.457z"/>
	</g>
	<g>
		<path class="st3" d="M143.571,158.986c-2.734,0-5.188-1.694-6.104-4.216l-3.562-9.448h-17.358l-3.57,9.471
			c-1.05,2.568-3.467,4.193-6.178,4.193c-0.776,0-1.498-0.115-2.207-0.352c-3.468-1.312-5.187-5.039-3.989-8.511l18.32-48.83
			c1.056-2.586,3.61-4.296,6.264-4.197c2.69-0.089,5.19,1.576,6.239,4.143l18.323,48.835c1.217,3.521-0.502,7.248-3.896,8.534
			C145.079,158.918,144.182,158.986,143.571,158.986z M115.164,141.322h20.125c0.832,0,1.578,0.516,1.871,1.295l4.059,10.766
			c0.357,0.982,1.277,1.604,2.353,1.604c0.415,0,0.724-0.063,0.829-0.105c1.393-0.528,2.074-2.039,1.586-3.453l-18.285-48.73
			c-0.409-0.998-1.357-1.668-2.43-1.603c-0.059,0.002-0.118,0.002-0.178,0c-1.02-0.054-2.036,0.651-2.448,1.658l-18.28,48.725
			c-0.47,1.364,0.211,2.875,1.569,3.39c0.231,0.075,0.512,0.119,0.865,0.119c1.08,0,2.044-0.65,2.455-1.656l4.038-10.713
			C113.586,141.838,114.331,141.322,115.164,141.322z M131.894,136.212h-13.417c-0.656,0-1.271-0.322-1.645-0.862
			c-0.373-0.54-0.458-1.229-0.227-1.843l6.708-17.807c0.293-0.779,1.039-1.295,1.872-1.295c0.833,0,1.578,0.516,1.871,1.295
			l6.709,17.807c0.232,0.614,0.148,1.303-0.227,1.843C133.166,135.89,132.551,136.212,131.894,136.212z M121.368,132.212h7.636
			l-3.819-10.134L121.368,132.212z"/>
	</g>
	<g>
		<path class="st3" d="M179.187,158.986c-3.614,0-6.555-2.94-6.555-6.555v-48.863c0-3.676,2.879-6.555,6.555-6.555h14.824
			c10.876,0,19.724,8.885,19.724,19.807c0,5.132-1.935,9.867-5.493,13.553c0.595,0.618,1.124,1.275,1.597,1.984
			c2.001,2.901,3.068,6.387,3.068,10.054c-0.043,1.302,0.001,2.461,0.131,3.488c1.383,0.762,2.441,2.006,2.985,3.55
			c0.001,0.004,0.002,0.008,0.004,0.011c0.577,1.672,0.455,3.462-0.343,5.043c-0.784,1.553-2.132,2.725-3.794,3.298
			c-0.057,0.02-0.113,0.036-0.171,0.051c-0.412,0.102-1.242,0.308-2.303,0.308c-1.177,0-2.812-0.213-4.394-1.228
			c-1.595-0.982-2.681-2.497-3.306-3.591c-0.023-0.04-0.045-0.081-0.064-0.122c-1.336-2.766-1.934-6.084-1.939-10.753
			c-0.08-1.423-0.389-2.084-0.682-2.543c-0.023-0.038-0.047-0.077-0.068-0.117c-0.15-0.275-0.589-0.861-1.837-1.694
			c-1.362-0.908-3.052-1.464-3.769-1.651h-7.533v15.972C185.825,156.046,182.848,158.986,179.187,158.986z M179.27,101.014
			c-1.539,0-2.638,1.099-2.638,2.555v48.863c0,1.433,1.122,2.555,2.555,2.555c1.454,0,2.638-1.146,2.638-2.555V134.46
			c0-1.105,0.896-2,2-2h9.773c0.145,0,0.29,0.016,0.433,0.047c0.984,0.219,3.362,0.975,5.315,2.276
			c1.489,0.993,2.503,1.99,3.096,3.047c0.771,1.233,1.175,2.658,1.27,4.477c0.002,0.035,0.003,0.069,0.003,0.105
			c0,4.026,0.467,6.809,1.511,9.005c0.552,0.947,1.234,1.702,1.928,2.129c0.838,0.537,1.724,0.614,2.181,0.614
			c0.595,0,1.039-0.096,1.327-0.166c0.639-0.24,1.152-0.697,1.454-1.294c0.306-0.605,0.353-1.289,0.134-1.928
			c-0.273-0.771-0.844-1.327-1.606-1.565c-0.698-0.219-1.222-0.801-1.365-1.519c-0.314-1.582-0.436-3.329-0.368-5.343
			c-0.001-2.786-0.823-5.486-2.38-7.742c-0.663-0.994-1.466-1.842-2.473-2.617c-0.48-0.37-0.768-0.938-0.779-1.546
			c-0.011-0.607,0.254-1.187,0.72-1.574c3.701-3.084,5.739-7.361,5.739-12.045c0-8.716-7.054-15.807-15.724-15.807H179.27z
			 M194.012,127.268h-10.187c-1.104,0-2-0.896-2-2v-17.061c0-1.104,0.896-2,2-2h10.187c5.807,0,10.531,4.761,10.531,10.613
			C204.543,122.581,199.818,127.268,194.012,127.268z M185.825,123.268h8.187c3.602,0,6.531-2.893,6.531-6.447
			c0-3.708-2.869-6.613-6.531-6.613h-8.187V123.268z"/>
	</g>
</g>
</svg>
