<?xml version="1.0" encoding="utf-8"?>
<!-- Generator: Adobe Illustrator 22.1.0, SVG Export Plug-In . SVG Version: 6.00 Build 0)  -->
<svg version="1.1" id="Layer_1" xmlns="http://www.w3.org/2000/svg" xmlns:xlink="http://www.w3.org/1999/xlink" x="0px" y="0px"
	 viewBox="0 0 256 256" style="enable-background:new 0 0 256 256;" xml:space="preserve">
<style type="text/css">
	.st0{fill:#FCC24C;}
	.st1{fill:#FCE06A;}
	.st2{fill:#DEA42E;}
	.st3{fill:#690589;}
	.st4{fill:#7BAC51;}
	.st5{fill:#5D8E33;}
	.st6{fill:#99CA6F;}
	.st7{fill:#F4EFED;}
	.st8{fill:#FF4397;}
	.st9{fill:#D6D1CF;}
	.st10{fill:#FFFFFF;}
	.st11{fill:#FF9F70;}
	.st12{fill:#FFBD8E;}
	.st13{fill:#E18152;}
	.st14{fill:#E12579;}
	.st15{fill:#FF61B5;}
</style>
<g>
	<g>
		<rect x="4" y="58.623" class="st7" width="248" height="138.755"/>
	</g>
	<g>
		<rect x="242" y="58.623" class="st9" width="10" height="138.755"/>
	</g>
	<g>
		<rect x="4" y="58.623" class="st10" width="10" height="138.755"/>
	</g>
	<g>
		<path class="st4" d="M32.661,197.377c0-15.829-12.832-28.661-28.661-28.661v28.661H32.661z"/>
	</g>
	<g>
		<path class="st6" d="M4,168.716v28.661h10v-26.865C10.886,169.353,7.518,168.716,4,168.716z"/>
	</g>
	<g>
		<path class="st4" d="M4,87.284c15.829,0,28.661-12.832,28.661-28.661H4V87.284z"/>
	</g>
	<g>
		<path class="st6" d="M14,58.623H4v28.661c3.518,0,6.886-0.637,10-1.796V58.623z"/>
	</g>
	<g>
		
			<ellipse transform="matrix(0.7071 -0.7071 0.7071 0.7071 -74.1775 76.9198)" class="st0" cx="55.762" cy="128" rx="8.701" ry="8.701"/>
	</g>
	<g>
		
			<ellipse transform="matrix(0.2289 -0.9735 0.9735 0.2289 29.8023 293.623)" class="st0" cx="200.238" cy="128" rx="8.701" ry="8.701"/>
	</g>
	<g>
		<circle class="st4" cx="128" cy="128" r="40.716"/>
	</g>
	<g>
		<path class="st4" d="M252,87.284c-15.829,0-28.661-12.832-28.661-28.661H252V87.284z"/>
	</g>
	<g>
		<path class="st4" d="M223.339,197.377c0-15.829,12.832-28.661,28.661-28.661v28.661H223.339z"/>
	</g>
	<g>
		<g>
			<path class="st3" d="M128.621,101.091c1.492,0,2.672,1.181,2.672,2.672v1.367c3.667,0.435,6.774,1.616,9.633,3.418
				c0.994,0.559,1.865,1.492,1.865,2.983c0,1.926-1.554,3.418-3.48,3.418c-0.622,0-1.243-0.186-1.865-0.56
				c-2.175-1.305-4.288-2.237-6.401-2.735v11.932c9.446,2.362,13.486,6.153,13.486,12.802c0,6.836-5.345,11.373-13.237,12.118v3.729
				c0,1.492-1.181,2.672-2.672,2.672c-1.491,0-2.734-1.181-2.734-2.672v-3.853c-4.661-0.497-8.949-2.175-12.74-4.847
				c-1.057-0.684-1.678-1.678-1.678-2.983c0-1.926,1.492-3.418,3.418-3.418c0.746,0,1.491,0.248,2.051,0.683
				c2.921,2.113,5.78,3.542,9.198,4.164V129.74c-9.074-2.362-13.3-5.78-13.3-12.803c0-6.649,5.283-11.249,13.051-11.87v-1.305
				C125.887,102.271,127.13,101.091,128.621,101.091z M126.136,122.283v-11c-3.977,0.373-5.966,2.486-5.966,5.22
				C120.17,119.113,121.35,120.729,126.136,122.283z M131.045,130.921v11.31c3.977-0.435,6.152-2.424,6.152-5.407
				C137.197,134.09,135.831,132.413,131.045,130.921z"/>
		</g>
	</g>
	<g>
		<path class="st3" d="M128,170.716c-23.554,0-42.716-19.162-42.716-42.716S104.446,85.284,128,85.284s42.716,19.162,42.716,42.716
			S151.554,170.716,128,170.716z M128,89.284c-21.348,0-38.716,17.368-38.716,38.716s17.368,38.716,38.716,38.716
			c21.348,0,38.716-17.368,38.716-38.716S149.348,89.284,128,89.284z"/>
	</g>
	<g>
		<path class="st3" d="M55.762,138.701c-5.901,0-10.701-4.801-10.701-10.701c0-5.9,4.8-10.701,10.701-10.701
			S66.463,122.1,66.463,128C66.463,133.9,61.663,138.701,55.762,138.701z M55.762,121.299c-3.695,0-6.701,3.006-6.701,6.701
			s3.006,6.701,6.701,6.701c3.695,0,6.701-3.006,6.701-6.701S59.456,121.299,55.762,121.299z"/>
	</g>
	<g>
		<path class="st3" d="M200.238,138.701c-5.901,0-10.701-4.801-10.701-10.701c0-5.9,4.8-10.701,10.701-10.701
			c5.901,0,10.701,4.801,10.701,10.701C210.939,133.9,206.139,138.701,200.238,138.701z M200.238,121.299
			c-3.695,0-6.701,3.006-6.701,6.701s3.006,6.701,6.701,6.701c3.695,0,6.701-3.006,6.701-6.701S203.933,121.299,200.238,121.299z"/>
	</g>
	<g>
		<path class="st3" d="M4,89.284c-1.105,0-2-0.896-2-2V58.623c0-1.104,0.895-2,2-2h28.662c1.104,0,2,0.896,2,2
			C34.662,75.529,20.907,89.284,4,89.284z M6,60.623V85.21c13.11-0.978,23.61-11.478,24.587-24.587H6z"/>
	</g>
	<g>
		<path class="st3" d="M32.662,199.377H4c-1.105,0-2-0.896-2-2v-28.661c0-1.105,0.895-2,2-2c16.907,0,30.662,13.755,30.662,30.661
			C34.662,198.481,33.766,199.377,32.662,199.377z M6,195.377h24.587C29.61,182.268,19.11,171.768,6,170.79V195.377z"/>
	</g>
	<g>
		<path class="st3" d="M12.645,113.269c-1.105,0-2-0.896-2-2v-12c0-1.104,0.895-2,2-2c1.104,0,2,0.896,2,2v12
			C14.645,112.373,13.749,113.269,12.645,113.269z"/>
	</g>
	<g>
		<path class="st5" d="M252,168.716v28.661h-10v-26.865C245.114,169.353,248.482,168.716,252,168.716z"/>
	</g>
	<g>
		<path class="st5" d="M242,58.623h10v28.661c-3.518,0-6.886-0.637-10-1.796V58.623z"/>
	</g>
	<g>
		<path class="st3" d="M252,89.284c-16.907,0-30.662-13.755-30.662-30.661c0-1.104,0.895-2,2-2H252c1.104,0,2,0.896,2,2v28.661
			C254,88.389,253.104,89.284,252,89.284z M225.413,60.623C226.39,73.732,236.89,84.232,250,85.21V60.623H225.413z"/>
	</g>
	<g>
		<path class="st3" d="M252,199.377h-28.662c-1.105,0-2-0.896-2-2c0-16.906,13.755-30.661,30.662-30.661c1.104,0,2,0.895,2,2v28.661
			C254,198.481,253.104,199.377,252,199.377z M225.413,195.377H250V170.79C236.89,171.768,226.39,182.268,225.413,195.377z"/>
	</g>
	<g>
		<path class="st3" d="M252,199.377H4c-1.105,0-2-0.896-2-2V58.623c0-1.104,0.895-2,2-2h248c1.104,0,2,0.896,2,2v138.754
			C254,198.481,253.104,199.377,252,199.377z M6,195.377h244V60.623H6V195.377z"/>
	</g>
	<g>
		<path class="st8" d="M187.334,63.625l-0.631-13.217l-8.301,8.301c-14.74-14.731-34.334-22.845-55.175-22.845
			c-20.849,0-40.45,8.119-55.192,22.861l8.936,8.936c12.355-12.356,28.782-19.16,46.256-19.16c17.465,0,33.885,6.798,46.239,19.143
			l-7.935,7.935l13.217,0.631l13.217,0.631L187.334,63.625z"/>
	</g>
	<g>
		<path class="st8" d="M68.666,192.375l0.631,13.217l8.301-8.301c14.74,14.731,34.334,22.845,55.175,22.845
			c20.849,0,40.45-8.119,55.192-22.861l-8.936-8.936c-12.355,12.356-28.782,19.16-46.256,19.16
			c-17.465,0-33.885-6.798-46.239-19.143l7.935-7.935l-13.217-0.631l-13.217-0.631L68.666,192.375z"/>
	</g>
	<g>
		<path class="st3" d="M187.965,78.842c-0.032,0-0.063-0.001-0.095-0.002l-26.435-1.262c-0.791-0.038-1.485-0.539-1.77-1.277
			c-0.285-0.738-0.108-1.575,0.452-2.135l6.499-6.499c-11.798-11.085-27.127-17.165-43.389-17.165
			c-16.939,0-32.864,6.596-44.841,18.573c-0.78,0.781-2.047,0.781-2.828,0l-8.937-8.936c-0.375-0.375-0.586-0.884-0.586-1.414
			s0.211-1.039,0.586-1.414c15.121-15.12,35.224-23.447,56.606-23.447c20.706,0,40.214,7.81,55.158,22.034l6.905-6.905
			c0.559-0.56,1.396-0.737,2.135-0.451c0.738,0.285,1.239,0.979,1.276,1.77l1.262,26.435c0.027,0.563-0.185,1.111-0.583,1.51
			C189.003,78.632,188.495,78.842,187.965,78.842z M166.141,73.798l19.722,0.941l-0.526-11.019l0,0l-0.416-8.703l-5.105,5.105
			c-0.78,0.781-2.047,0.78-2.828,0.001c-14.363-14.354-33.456-22.26-53.762-22.26c-19.646,0-38.155,7.399-52.345,20.879l6.11,6.11
			c12.555-11.85,28.895-18.352,46.235-18.352c17.998,0,34.922,7.006,47.653,19.728c0.375,0.375,0.586,0.884,0.586,1.415
			c0,0.53-0.21,1.039-0.586,1.414L166.141,73.798z"/>
	</g>
	<g>
		<path class="st3" d="M132.773,222.136c-20.706,0-40.214-7.809-55.158-22.034l-6.905,6.905c-0.56,0.559-1.397,0.737-2.135,0.451
			c-0.738-0.285-1.239-0.979-1.276-1.769l-1.262-26.435c-0.027-0.564,0.185-1.111,0.583-1.51c0.398-0.398,0.952-0.606,1.509-0.584
			l26.435,1.262c0.791,0.038,1.485,0.539,1.771,1.277c0.285,0.738,0.108,1.575-0.452,2.135l-6.499,6.499
			c11.798,11.085,27.127,17.165,43.389,17.165c16.939,0,32.864-6.596,44.841-18.573c0.78-0.781,2.047-0.781,2.828,0l8.937,8.936
			c0.375,0.375,0.586,0.884,0.586,1.414s-0.211,1.039-0.586,1.414C174.259,213.809,154.156,222.136,132.773,222.136z
			 M77.598,195.291c0.512,0,1.023,0.195,1.414,0.585c14.363,14.354,33.456,22.26,53.762,22.26c19.645,0,38.155-7.399,52.345-20.879
			l-6.11-6.11c-12.555,11.85-28.895,18.352-46.235,18.352c-17.998,0-34.922-7.006-47.653-19.728
			c-0.375-0.375-0.586-0.884-0.586-1.415c0-0.53,0.21-1.039,0.586-1.414l4.739-4.739l-19.722-0.941l0.526,11.019l0,0l0.416,8.703
			l5.105-5.105C76.574,195.486,77.086,195.291,77.598,195.291z"/>
	</g>
</g>
</svg>
