<?xml version="1.0" encoding="utf-8"?>
<!-- Generator: Adobe Illustrator 22.1.0, SVG Export Plug-In . SVG Version: 6.00 Build 0)  -->
<svg version="1.1" id="Layer_1" xmlns="http://www.w3.org/2000/svg" xmlns:xlink="http://www.w3.org/1999/xlink" x="0px" y="0px"
	 viewBox="0 0 256 256" style="enable-background:new 0 0 256 256;" xml:space="preserve">
<style type="text/css">
	.st0{fill:#FCC24C;}
	.st1{fill:#FCE06A;}
	.st2{fill:#DEA42E;}
	.st3{fill:#690589;}
	.st4{fill:#7BAC51;}
	.st5{fill:#5D8E33;}
	.st6{fill:#99CA6F;}
	.st7{fill:#F4EFED;}
	.st8{fill:#FF4397;}
	.st9{fill:#D6D1CF;}
	.st10{fill:#FFFFFF;}
	.st11{fill:#FF9F70;}
	.st12{fill:#FFBD8E;}
	.st13{fill:#E18152;}
	.st14{fill:#E12579;}
	.st15{fill:#FF61B5;}
</style>
<g>
	<g>
		<path class="st7" d="M236.343,143.571H97.945L114.02,87.9c1.234-4.275,5.148-7.218,9.598-7.218h87.052
			c4.45,0,8.364,2.943,9.598,7.218L236.343,143.571z"/>
	</g>
	<g>
		<path class="st9" d="M220.268,87.9c-1.235-4.275-5.148-7.218-9.598-7.218h-10.863c4.45,0,8.363,2.943,9.598,7.218l16.075,55.671
			h10.863L220.268,87.9z"/>
	</g>
	<g>
		<path class="st10" d="M114.02,87.9c1.234-4.275,5.148-7.218,9.598-7.218h10.863c-4.45,0-8.363,2.943-9.598,7.218l-16.075,55.671
			H97.945L114.02,87.9z"/>
	</g>
	<g>
		<path class="st3" d="M236.343,145.571H97.945c-0.629,0-1.221-0.295-1.599-0.798c-0.378-0.502-0.497-1.153-0.323-1.757
			l16.075-55.67c1.474-5.101,6.21-8.664,11.52-8.664h87.052c5.311,0,10.047,3.563,11.52,8.664l16.074,55.67
			c0.174,0.604,0.055,1.254-0.323,1.757C237.564,145.275,236.972,145.571,236.343,145.571z M100.604,141.571h133.079l-15.337-53.116
			c-0.981-3.399-4.138-5.773-7.677-5.773h-87.052c-3.538,0-6.694,2.374-7.676,5.773L100.604,141.571z"/>
	</g>
	<g>
		<path class="st3" d="M117.198,117.007c-0.184,0-0.37-0.025-0.556-0.079c-1.062-0.306-1.673-1.415-1.367-2.476l3.465-12
			c0.307-1.062,1.412-1.676,2.477-1.367c1.062,0.306,1.673,1.415,1.367,2.476l-3.465,12
			C118.866,116.438,118.066,117.007,117.198,117.007z"/>
	</g>
	<g>
		<path class="st3" d="M114.537,145.571c-0.958,0-1.805-0.69-1.97-1.666c-0.185-1.089,0.549-2.122,1.638-2.306l45.138-7.652
			c1.097-0.188,2.121,0.549,2.306,1.637c0.185,1.089-0.549,2.122-1.638,2.306l-45.138,7.652
			C114.76,145.562,114.647,145.571,114.537,145.571z"/>
	</g>
	<g>
		<path class="st4" d="M242.01,196.069H92.279c-5.518,0-9.99-4.473-9.99-9.99v-32.518c0-5.517,4.473-9.99,9.99-9.99H242.01
			c5.517,0,9.99,4.473,9.99,9.99v32.518C252,191.596,247.527,196.069,242.01,196.069z"/>
	</g>
	<g>
		<path class="st5" d="M242.01,143.571h-10.863c5.517,0,9.99,4.473,9.99,9.99v32.518c0,5.517-4.473,9.99-9.99,9.99h10.863
			c5.517,0,9.99-4.473,9.99-9.99v-32.518C252,148.044,247.527,143.571,242.01,143.571z"/>
	</g>
	<g>
		<path class="st6" d="M92.279,143.571h10.863c-5.517,0-9.99,4.473-9.99,9.99v32.518c0,5.517,4.473,9.99,9.99,9.99H92.279
			c-5.518,0-9.99-4.473-9.99-9.99v-32.518C82.288,148.044,86.761,143.571,92.279,143.571z"/>
	</g>
	<g>
		<path class="st8" d="M123.779,221.559h-21.978c-2.759,0-4.995-2.236-4.995-4.995v-20.494h31.968v20.494
			C128.774,219.322,126.537,221.559,123.779,221.559z"/>
	</g>
	<g>
		<path class="st8" d="M232.488,221.559H210.51c-2.759,0-4.995-2.236-4.995-4.995v-20.494h31.968v20.494
			C237.483,219.322,235.246,221.559,232.488,221.559z"/>
	</g>
	<g>
		<path class="st3" d="M123.778,223.559h-21.978c-3.857,0-6.995-3.138-6.995-6.995v-20.494c0-1.105,0.896-2,2-2h31.968
			c1.104,0,2,0.895,2,2v20.494C130.773,220.42,127.636,223.559,123.778,223.559z M98.806,198.069v18.494
			c0,1.651,1.344,2.995,2.995,2.995h21.978c1.651,0,2.995-1.344,2.995-2.995v-18.494H98.806z"/>
	</g>
	<g>
		<path class="st3" d="M232.487,223.559H210.51c-3.857,0-6.995-3.138-6.995-6.995v-20.494c0-1.105,0.896-2,2-2h31.968
			c1.104,0,2,0.895,2,2v20.494C239.482,220.42,236.345,223.559,232.487,223.559z M207.515,198.069v18.494
			c0,1.651,1.344,2.995,2.995,2.995h21.978c1.651,0,2.995-1.344,2.995-2.995v-18.494H207.515z"/>
	</g>
	<g>
		<path class="st3" d="M242.01,198.069H92.278c-6.611,0-11.99-5.379-11.99-11.99v-32.518c0-6.611,5.379-11.99,11.99-11.99H242.01
			c6.611,0,11.99,5.379,11.99,11.99v32.518C254,192.69,248.621,198.069,242.01,198.069z M92.278,145.571
			c-4.406,0-7.99,3.585-7.99,7.99v32.518c0,4.406,3.584,7.99,7.99,7.99H242.01c4.406,0,7.99-3.584,7.99-7.99v-32.518
			c0-4.406-3.584-7.99-7.99-7.99H92.278z"/>
	</g>
	<g>
		<path class="st0" d="M211.652,182.819H242c5.523,0,10-4.477,10-10v-15.999h-14.35
			C223.292,156.821,211.652,168.461,211.652,182.819L211.652,182.819z"/>
	</g>
	<g>
		<path class="st2" d="M241.137,182.819H242c5.523,0,10-4.477,10-10v-15.999h-10.863V182.819z"/>
	</g>
	<g>
		<path class="st3" d="M242,184.819h-30.349c-1.104,0-2-0.896-2-2c0-15.438,12.561-27.999,27.999-27.999H252c1.105,0,2,0.895,2,2
			v15.999C254,179.436,248.617,184.819,242,184.819z M213.734,180.819H242c4.411,0,8-3.589,8-8v-13.999h-12.35
			C225.091,158.821,214.754,168.519,213.734,180.819z"/>
	</g>
	<g>
		<path class="st0" d="M122.637,182.819l-30.348,0c-5.523,0-10-4.477-10-10v-15.999h14.35
			C110.997,156.821,122.637,168.461,122.637,182.819L122.637,182.819z"/>
	</g>
	<g>
		<path class="st1" d="M93.152,182.819h-0.863c-5.523,0-10-4.477-10-10v-15.999h10.863V182.819z"/>
	</g>
	<g>
		<path class="st3" d="M122.637,184.819H92.288c-6.617,0-12-5.383-12-12v-15.999c0-1.105,0.896-2,2-2h14.35
			c15.438,0,27.999,12.56,27.999,27.999C124.637,183.924,123.741,184.819,122.637,184.819z M84.288,158.821v13.999
			c0,4.411,3.589,8,8,8h28.266c-1.02-12.3-11.356-21.999-23.916-21.999H84.288z"/>
	</g>
	<g>
		<path class="st0" d="M157.144,92.339H71.257c-5.523,0-10-4.477-10-10v-17.28c0-5.523,4.477-10,10-10h85.887
			c5.523,0,10,4.477,10,10v17.28C167.144,87.862,162.667,92.339,157.144,92.339z"/>
	</g>
	<g>
		<path class="st2" d="M157.144,55.059h-7c5.523,0,10,4.477,10,10v17.28c0,5.523-4.477,10-10,10h7c5.523,0,10-4.477,10-10v-17.28
			C167.144,59.536,162.667,55.059,157.144,55.059z"/>
	</g>
	<g>
		<path class="st3" d="M157.145,94.339H71.257c-6.617,0-12-5.383-12-12v-17.28c0-6.617,5.383-12,12-12h85.888
			c6.617,0,12,5.383,12,12v17.28C169.145,88.956,163.762,94.339,157.145,94.339z M71.257,57.059c-4.411,0-8,3.589-8,8v17.28
			c0,4.411,3.589,8,8,8h85.888c4.411,0,8-3.589,8-8v-17.28c0-4.411-3.589-8-8-8H71.257z"/>
	</g>
	<g>
		<rect x="36.722" y="106.827" class="st7" width="13.071" height="114.732"/>
	</g>
	<g>
		<path class="st3" d="M49.793,223.559H36.722c-1.104,0-2-0.895-2-2V106.827c0-1.104,0.896-2,2-2h13.071c1.104,0,2,0.896,2,2
			v114.732C51.793,222.663,50.897,223.559,49.793,223.559z M38.722,219.559h9.071V108.827h-9.071V219.559z"/>
	</g>
	<g>
		<path class="st3" d="M93.657,81.684V66.027c0-0.796,0.637-1.459,1.459-1.459h0.027c0,0,0,0,0.053,0h8.598
			c0.77,0,1.459,0.663,1.459,1.459c0,0.822-0.689,1.486-1.459,1.486h-7.191v4.855h6.183c0.796,0,1.459,0.69,1.459,1.46
			c0,0.822-0.663,1.485-1.459,1.485h-6.183v6.369c0,0.796-0.663,1.459-1.486,1.459C94.294,83.143,93.657,82.479,93.657,81.684z"/>
	</g>
	<g>
		<path class="st3" d="M121.991,80.94c0.266,0.77-0.159,1.592-0.929,1.857c-0.105,0.026-0.318,0.079-0.583,0.079c0,0,0,0-0.027,0
			c-0.265,0-0.663-0.053-1.034-0.292c-0.345-0.212-0.637-0.557-0.85-0.929c-0.371-0.77-0.557-1.725-0.557-3.184
			c-0.026-0.505-0.133-0.85-0.318-1.142c-0.159-0.292-0.478-0.557-0.797-0.77c-0.557-0.371-1.247-0.583-1.485-0.637h-3.131v5.759
			c0,0.796-0.664,1.459-1.486,1.459c-0.822,0-1.46-0.663-1.46-1.459V66.027c0-0.822,0.638-1.459,1.46-1.459c0,0,0,0,0.026,0h4.724
			c3.157,0,5.678,2.547,5.678,5.705c0,1.751-0.796,3.29-2.069,4.352c0.345,0.266,0.663,0.584,0.929,0.981
			c0.531,0.77,0.876,1.752,0.876,2.866c-0.026,0.796,0.053,1.3,0.105,1.565C121.487,80.171,121.832,80.489,121.991,80.94z
			 M118.276,70.273c0-1.539-1.221-2.76-2.732-2.76h-3.264v5.466h3.264C117.056,72.979,118.276,71.759,118.276,70.273z"/>
	</g>
	<g>
		<path class="st3" d="M126.286,81.684V66.027c0-0.822,0.637-1.459,1.459-1.459h0.027c0,0,0,0,0.053,0h8.598
			c0.77,0,1.459,0.637,1.459,1.459c0,0.822-0.689,1.486-1.459,1.486h-7.191v4.855h6.183c0.796,0,1.459,0.69,1.459,1.46
			c0,0.822-0.663,1.485-1.459,1.485h-6.183v4.883h7.191c0.77,0,1.459,0.663,1.459,1.486c0,0.796-0.689,1.459-1.459,1.459h-8.598
			c-0.053,0-0.053-0.026-0.053-0.026l-0.027,0.026C126.923,83.143,126.286,82.479,126.286,81.684z"/>
	</g>
	<g>
		<path class="st3" d="M142.018,81.684V66.027c0-0.822,0.637-1.459,1.459-1.459h0.026c0,0,0,0,0.054,0h8.598
			c0.77,0,1.459,0.637,1.459,1.459c0,0.822-0.689,1.486-1.459,1.486h-7.191v4.855h6.183c0.796,0,1.459,0.69,1.459,1.46
			c0,0.822-0.663,1.485-1.459,1.485h-6.183v4.883h7.191c0.77,0,1.459,0.663,1.459,1.486c0,0.796-0.689,1.459-1.459,1.459h-8.598
			c-0.054,0-0.054-0.026-0.054-0.026l-0.026,0.026C142.654,83.143,142.018,82.479,142.018,81.684z"/>
	</g>
	<g>
		<path class="st8" d="M206.93,124.645h-3.402h-6.113c0.006-0.098,0.015-0.195,0.015-0.294v-9.574h-10.495v9.574
			c0,0.099,0.01,0.196,0.015,0.294h-6.113h-3.402c-3.675,0-6.654,2.979-6.654,6.654v12.272h42.801v-12.272
			C213.584,127.623,210.605,124.645,206.93,124.645z"/>
	</g>
	<g>
		<g>
			<path class="st14" d="M206.93,124.645h-3.402h-1.973c3.675,0,6.654,2.979,6.654,6.654v12.272h5.375v-12.272
				C213.584,127.623,210.605,124.645,206.93,124.645z"/>
		</g>
	</g>
	<g>
		<g>
			<path class="st15" d="M177.436,124.645h3.402h1.973c-3.675,0-6.654,2.979-6.654,6.654v12.272h-5.375v-12.272
				C170.782,127.623,173.761,124.645,177.436,124.645z"/>
		</g>
	</g>
	<g>
		<path class="st13" d="M197.421,124.622l0.01-9.845h-10.495l0.01,9.845c0.003,2.89,2.347,5.232,5.238,5.232l0,0
			C195.074,129.854,197.418,127.512,197.421,124.622z"/>
	</g>
	<g>
		<path class="st3" d="M213.584,145.571h-42.802c-1.104,0-2-0.896-2-2v-12.273c0-4.771,3.882-8.654,8.654-8.654h7.499v-7.868
			c0-1.104,0.896-2,2-2h10.495c1.105,0,2,0.896,2,2v7.868h7.499c4.772,0,8.654,3.882,8.654,8.654v12.273
			C215.584,144.675,214.689,145.571,213.584,145.571z M172.782,141.571h38.802v-10.273c0-2.566-2.088-4.654-4.654-4.654h-9.515
			c-0.551,0-1.078-0.228-1.456-0.629c-0.378-0.401-0.573-0.94-0.54-1.491c0-0.008,0.006-0.099,0.007-0.106l0.004-7.642h-6.494v7.574
			c0.001,0.008,0.012,0.166,0.012,0.174c0.033,0.55-0.162,1.089-0.54,1.491c-0.378,0.401-0.905,0.629-1.456,0.629h-9.515
			c-2.566,0-4.654,2.088-4.654,4.654V141.571z"/>
	</g>
	<g>
		<path class="st3" d="M192.183,131.854c-3.986,0-7.233-3.244-7.237-7.231l-0.01-9.845c-0.001-0.531,0.21-1.04,0.585-1.415
			c0.375-0.376,0.884-0.586,1.415-0.586h10.495c0.531,0,1.04,0.211,1.415,0.586c0.375,0.375,0.586,0.885,0.585,1.415l-0.01,9.845
			l0,0C199.417,128.61,196.17,131.854,192.183,131.854z M188.938,116.776l0.008,7.843c0.002,1.783,1.454,3.234,3.237,3.234
			c1.784,0,3.236-1.451,3.238-3.234l0.008-7.843H188.938z M197.421,124.622h0.01H197.421z"/>
	</g>
	<g>
		<path class="st11" d="M192.183,121.548L192.183,121.548c-6.266,0-11.345-5.145-11.345-11.492V102.1
			c0-6.347,5.079-11.492,11.345-11.492l0,0c6.266,0,11.345,5.145,11.345,11.492v7.956
			C203.528,116.403,198.449,121.548,192.183,121.548z"/>
	</g>
	<g>
		<path class="st3" d="M192.183,123.548c-7.358,0-13.345-6.053-13.345-13.492V102.1c0-7.439,5.986-13.492,13.345-13.492
			s13.346,6.053,13.346,13.492v7.957C205.528,117.496,199.541,123.548,192.183,123.548z M192.183,92.607
			c-5.152,0-9.345,4.258-9.345,9.492v7.957c0,5.234,4.192,9.492,9.345,9.492c5.153,0,9.346-4.258,9.346-9.492V102.1
			C201.528,96.866,197.336,92.607,192.183,92.607z"/>
	</g>
	<g>
		<path class="st3" d="M202.127,171.82h-62.689c-1.105,0-2-0.895-2-2c0-1.104,0.895-2,2-2h62.689c1.104,0,2,0.896,2,2
			C204.127,170.924,203.231,171.82,202.127,171.82z"/>
	</g>
	<g>
		<path class="st3" d="M139.438,198.069c-1.105,0-2-0.896-2-2v-9.319c0-1.105,0.895-2,2-2s2,0.895,2,2v9.319
			C141.438,197.174,140.542,198.069,139.438,198.069z"/>
	</g>
	<g>
		<path class="st3" d="M202.127,198.069c-1.104,0-2-0.896-2-2v-9.319c0-1.105,0.896-2,2-2c1.104,0,2,0.895,2,2v9.319
			C204.127,197.174,203.231,198.069,202.127,198.069z"/>
	</g>
	<g>
		<rect x="4" y="34.441" class="st4" width="78.288" height="78.288"/>
	</g>
	<g>
		<rect x="72.288" y="34.441" class="st5" width="10" height="78.288"/>
	</g>
	<g>
		<rect x="4" y="34.441" class="st6" width="10" height="78.288"/>
	</g>
	<g>
		<path class="st3" d="M82.288,114.73H4c-1.105,0-2-0.896-2-2V34.441c0-1.104,0.895-2,2-2h78.288c1.104,0,2,0.896,2,2v78.289
			C84.288,113.835,83.393,114.73,82.288,114.73z M6,110.73h74.288V36.441H6V110.73z"/>
	</g>
	<g>
		<g>
			<path class="st3" d="M44.855,77.89h-6.608v11.658c0,1.612-1.343,2.954-3.009,2.954c-1.611,0-2.955-1.343-2.955-2.954V57.851
				c0-1.666,1.343-2.955,2.955-2.955h0.053h9.564c6.393,0,11.55,5.158,11.55,11.551C56.404,72.732,51.248,77.89,44.855,77.89z
				 M38.246,71.926h6.608c3.116,0,5.534-2.471,5.587-5.479c-0.053-3.116-2.471-5.588-5.587-5.588h-6.608V71.926z"/>
		</g>
	</g>
</g>
</svg>
