<?xml version="1.0" encoding="utf-8"?>
<!-- Generator: Adobe Illustrator 22.1.0, SVG Export Plug-In . SVG Version: 6.00 Build 0)  -->
<svg version="1.1" id="Layer_1" xmlns="http://www.w3.org/2000/svg" xmlns:xlink="http://www.w3.org/1999/xlink" x="0px" y="0px"
	 viewBox="0 0 256 256" style="enable-background:new 0 0 256 256;" xml:space="preserve">
<style type="text/css">
	.st0{fill:#FCC24C;}
	.st1{fill:#FCE06A;}
	.st2{fill:#DEA42E;}
	.st3{fill:#690589;}
	.st4{fill:#7BAC51;}
	.st5{fill:#5D8E33;}
	.st6{fill:#99CA6F;}
	.st7{fill:#F4EFED;}
	.st8{fill:#FF4397;}
	.st9{fill:#D6D1CF;}
	.st10{fill:#FFFFFF;}
	.st11{fill:#FF9F70;}
	.st12{fill:#FFBD8E;}
	.st13{fill:#E18152;}
	.st14{fill:#E12579;}
	.st15{fill:#FF61B5;}
</style>
<g>
	<g>
		<path class="st7" d="M245.604,181.818H135.492c-3.532,0-6.396-2.863-6.396-6.396V10.456c0-3.532,2.863-6.396,6.396-6.396h110.113
			c3.532,0,6.396,2.863,6.396,6.396v164.966C252,178.955,249.137,181.818,245.604,181.818z"/>
	</g>
	<g>
		<polygon class="st8" points="190.548,123.77 169.038,92.649 190.548,61.527 212.058,92.649 		"/>
	</g>
	<g>
		<path class="st3" d="M190.548,125.771c-0.657,0-1.271-0.323-1.646-0.863l-21.51-31.122c-0.473-0.685-0.473-1.59,0-2.274
			l21.51-31.122c0.374-0.54,0.988-0.863,1.646-0.863c0.657,0,1.271,0.323,1.646,0.863l21.51,31.122c0.473,0.685,0.473,1.59,0,2.274
			l-21.51,31.122C191.819,125.448,191.205,125.771,190.548,125.771z M171.47,92.649l19.078,27.604l19.078-27.604l-19.078-27.604
			L171.47,92.649z"/>
	</g>
	<g>
		<path class="st9" d="M245.604,4.061h-10.233c3.532,0,6.396,2.863,6.396,6.396v164.967c0,3.532-2.863,6.396-6.396,6.396h10.233
			c3.532,0,6.396-2.863,6.396-6.396V10.456C252,6.924,249.137,4.061,245.604,4.061z"/>
	</g>
	<g>
		<path class="st10" d="M135.492,181.818h10.233c-3.532,0-6.395-2.863-6.395-6.396V10.456c0-3.532,2.863-6.396,6.395-6.396h-10.233
			c-3.532,0-6.396,2.863-6.396,6.396v164.967C129.096,178.955,131.96,181.818,135.492,181.818z"/>
	</g>
	<g>
		<path class="st3" d="M245.605,183.818H135.492c-4.63,0-8.396-3.766-8.396-8.396V10.456c0-4.629,3.767-8.396,8.396-8.396h110.112
			c4.629,0,8.395,3.766,8.395,8.396v164.967C254,180.052,250.233,183.818,245.605,183.818z M135.492,6.061
			c-2.424,0-4.396,1.972-4.396,4.396v164.967c0,2.424,1.973,4.396,4.396,4.396h110.112c2.424,0,4.395-1.972,4.395-4.396V10.456
			c0-2.424-1.972-4.396-4.395-4.396H135.492z"/>
	</g>
	<g>
		<g>
			<path class="st3" d="M148.754,27.565h-6.931l-1.397,3.708c-0.257,0.628-0.856,0.998-1.483,0.998c-0.2,0-0.372-0.029-0.542-0.086
				c-0.827-0.314-1.227-1.227-0.942-2.054l6.304-16.8c0.257-0.628,0.885-1.027,1.512-0.998c0.656-0.029,1.255,0.371,1.511,0.998
				l6.304,16.8c0.285,0.827-0.115,1.74-0.942,2.054c-0.142,0.057-0.342,0.086-0.542,0.086c-0.628,0-1.226-0.371-1.455-0.998
				L148.754,27.565z M147.585,24.427l-2.31-6.132l-2.31,6.132H147.585z"/>
		</g>
	</g>
	<g>
		<path class="st7" d="M182.992,181.818H72.879c-3.532,0-6.396-2.863-6.396-6.396V10.456c0-3.532,2.863-6.396,6.396-6.396h110.113
			c3.532,0,6.395,2.863,6.395,6.396v164.966C189.387,178.955,186.524,181.818,182.992,181.818z"/>
	</g>
	<g>
		<path class="st4" d="M150.747,82.482c-1.73-0.269-3.411-0.216-4.994,0.108c2.495-2.858,3.844-6.742,3.282-10.947
			c-0.824-6.167-5.906-11.131-12.09-11.818c-8.324-0.924-15.371,5.568-15.371,13.706c0,3.471,1.292,6.634,3.408,9.059
			c-1.583-0.324-3.264-0.377-4.994-0.108c-6.039,0.941-10.837,6-11.497,12.076c-0.903,8.31,5.583,15.339,13.71,15.339
			c2.372,0,4.601-0.602,6.548-1.658c0.672-0.365,1.443,0.302,1.218,1.033l-3.588,11.659h8.389h1.198h8.389l-3.587-11.659
			c-0.225-0.731,0.546-1.398,1.218-1.033c1.948,1.056,4.176,1.658,6.548,1.658c8.127,0,14.613-7.029,13.71-15.339
			C161.584,88.483,156.786,83.423,150.747,82.482z"/>
	</g>
	<g>
		<path class="st3" d="M144.355,122.931h-17.977c-0.635,0-1.231-0.301-1.608-0.812c-0.378-0.51-0.49-1.169-0.303-1.776l2.863-9.305
			c-1.646,0.565-3.383,0.859-5.13,0.859c-4.48,0-8.767-1.914-11.76-5.25c-2.99-3.334-4.426-7.818-3.938-12.305
			c0.755-6.945,6.297-12.765,13.178-13.836c0.482-0.075,0.965-0.129,1.446-0.161c-1.015-2.114-1.554-4.44-1.554-6.813
			c0-4.486,1.918-8.777,5.264-11.771c3.343-2.992,7.843-4.422,12.329-3.923c7.082,0.786,12.908,6.48,13.852,13.54
			c0.42,3.147-0.072,6.224-1.397,8.968c0.478,0.032,0.955,0.085,1.435,0.16l0,0c6.881,1.072,12.423,6.892,13.178,13.837
			c0.487,4.486-0.949,8.972-3.939,12.305c-2.994,3.336-7.279,5.25-11.759,5.25c-1.747,0-3.485-0.294-5.13-0.859l2.862,9.305
			c0.188,0.606,0.074,1.266-0.303,1.776C145.587,122.63,144.99,122.931,144.355,122.931z M129.087,118.931h12.561l-2.79-9.071
			c-0.346-1.12,0.019-2.328,0.93-3.074c0.898-0.736,2.134-0.856,3.152-0.305c1.709,0.927,3.643,1.417,5.595,1.417
			c3.345,0,6.546-1.429,8.781-3.921c2.267-2.525,3.311-5.793,2.941-9.202c-0.562-5.179-4.691-9.517-9.816-10.316l0,0
			c-1.446-0.226-2.89-0.195-4.285,0.092c-0.838,0.173-1.697-0.211-2.13-0.953c-0.432-0.741-0.343-1.676,0.222-2.322
			c2.27-2.599,3.267-5.926,2.807-9.367c-0.703-5.263-5.047-9.508-10.328-10.094c-3.409-0.374-6.688,0.66-9.221,2.928
			c-2.498,2.236-3.931,5.44-3.931,8.79c0,2.839,1.035,5.59,2.915,7.744c0.564,0.646,0.653,1.581,0.221,2.322
			c-0.431,0.741-1.287,1.125-2.129,0.952c-1.395-0.287-2.837-0.318-4.284-0.092c-5.125,0.799-9.254,5.137-9.816,10.316
			c-0.37,3.408,0.674,6.676,2.939,9.201c2.235,2.492,5.437,3.921,8.782,3.921c1.951,0,3.886-0.49,5.595-1.417
			c1.015-0.55,2.252-0.432,3.149,0.304c0.912,0.746,1.278,1.953,0.934,3.075L129.087,118.931z"/>
	</g>
	<g>
		<g>
			<path class="st3" d="M232.342,159.298h6.931l1.397-3.708c0.257-0.628,0.856-0.998,1.483-0.998c0.201,0,0.372,0.029,0.542,0.086
				c0.827,0.314,1.227,1.226,0.942,2.054l-6.304,16.8c-0.257,0.628-0.885,1.027-1.512,0.998c-0.656,0.029-1.255-0.371-1.511-0.998
				l-6.304-16.8c-0.285-0.827,0.115-1.74,0.942-2.054c0.142-0.057,0.342-0.086,0.542-0.086c0.628,0,1.226,0.371,1.455,0.998
				L232.342,159.298z M233.511,162.436l2.31,6.132l2.31-6.132H233.511z"/>
		</g>
	</g>
	<g>
		<path class="st9" d="M182.992,4.061h-10.233c3.532,0,6.396,2.863,6.396,6.396v164.967c0,3.532-2.863,6.396-6.396,6.396h10.233
			c3.532,0,6.395-2.863,6.395-6.396V10.456C189.387,6.924,186.524,4.061,182.992,4.061z"/>
	</g>
	<g>
		<path class="st10" d="M72.879,181.818h10.233c-3.532,0-6.396-2.863-6.396-6.396V10.456c0-3.532,2.863-6.396,6.396-6.396H72.879
			c-3.532,0-6.396,2.863-6.396,6.396v164.967C66.483,178.955,69.347,181.818,72.879,181.818z"/>
	</g>
	<g>
		<path class="st3" d="M182.992,183.818H72.879c-4.629,0-8.396-3.766-8.396-8.396V10.456c0-4.629,3.767-8.396,8.396-8.396h110.113
			c4.629,0,8.395,3.766,8.395,8.396v164.967C191.388,180.052,187.621,183.818,182.992,183.818z M72.879,6.061
			c-2.424,0-4.396,1.972-4.396,4.396v164.967c0,2.424,1.972,4.396,4.396,4.396h110.113c2.424,0,4.395-1.972,4.395-4.396V10.456
			c0-2.424-1.972-4.396-4.395-4.396H72.879z"/>
	</g>
	<g>
		<g>
			<path class="st3" d="M86.142,27.565h-6.931l-1.397,3.708c-0.257,0.628-0.856,0.998-1.483,0.998c-0.2,0-0.372-0.029-0.542-0.086
				c-0.827-0.314-1.227-1.227-0.942-2.054l6.304-16.8c0.257-0.628,0.884-1.027,1.512-0.998c0.656-0.029,1.255,0.371,1.511,0.998
				l6.304,16.8c0.285,0.827-0.115,1.74-0.942,2.054c-0.142,0.057-0.342,0.086-0.542,0.086c-0.628,0-1.226-0.371-1.455-0.998
				L86.142,27.565z M84.972,24.427l-2.31-6.132l-2.31,6.132H84.972z"/>
		</g>
	</g>
	<g>
		<g>
			<path class="st3" d="M169.729,159.298h6.931l1.397-3.708c0.257-0.628,0.856-0.998,1.483-0.998c0.2,0,0.372,0.029,0.542,0.086
				c0.827,0.314,1.227,1.226,0.942,2.054l-6.304,16.8c-0.257,0.628-0.885,1.027-1.512,0.998c-0.656,0.029-1.255-0.371-1.511-0.998
				l-6.304-16.8c-0.285-0.827,0.115-1.74,0.942-2.054c0.142-0.057,0.342-0.086,0.542-0.086c0.628,0,1.226,0.371,1.455,0.998
				L169.729,159.298z M170.899,162.436l2.31,6.132l2.31-6.132H170.899z"/>
		</g>
	</g>
	<g>
		<path class="st7" d="M120.508,181.818H10.396c-3.532,0-6.396-2.863-6.396-6.396V10.456c0-3.532,2.863-6.396,6.396-6.396h110.113
			c3.532,0,6.396,2.863,6.396,6.396v164.966C126.904,178.955,124.04,181.818,120.508,181.818z"/>
	</g>
	<g>
		<path class="st9" d="M120.508,4.061h-10.233c3.532,0,6.396,2.863,6.396,6.396v164.967c0,3.532-2.863,6.396-6.396,6.396h10.233
			c3.532,0,6.396-2.863,6.396-6.396V10.456C126.904,6.924,124.04,4.061,120.508,4.061z"/>
	</g>
	<g>
		<path class="st10" d="M10.396,181.818h10.233c-3.532,0-6.396-2.863-6.396-6.396V10.456c0-3.532,2.863-6.396,6.396-6.396H10.396
			C6.863,4.061,4,6.924,4,10.456v164.967C4,178.955,6.863,181.818,10.396,181.818z"/>
	</g>
	<g>
		<path class="st3" d="M120.508,183.818H10.396c-4.629,0-8.396-3.766-8.396-8.396V10.456C2,5.827,5.767,2.06,10.396,2.06h110.112
			c4.629,0,8.396,3.766,8.396,8.396v164.967C128.903,180.052,125.137,183.818,120.508,183.818z M10.396,6.061
			C7.972,6.061,6,8.032,6,10.456v164.967c0,2.424,1.972,4.396,4.396,4.396h110.112c2.424,0,4.396-1.972,4.396-4.396V10.456
			c0-2.424-1.972-4.396-4.396-4.396H10.396z"/>
	</g>
	<g>
		<path class="st3" d="M14.602,61.247c-1.104,0-2-0.896-2-2v-12c0-1.104,0.896-2,2-2s2,0.896,2,2v12
			C16.603,60.351,15.707,61.247,14.602,61.247z"/>
	</g>
	<g>
		<g>
			<path class="st3" d="M23.658,27.565h-6.931l-1.397,3.708c-0.257,0.628-0.856,0.998-1.483,0.998c-0.2,0-0.372-0.029-0.542-0.086
				c-0.827-0.314-1.227-1.227-0.942-2.054l6.304-16.8c0.257-0.628,0.884-1.027,1.512-0.998c0.656-0.029,1.255,0.371,1.511,0.998
				l6.305,16.8c0.285,0.827-0.115,1.74-0.942,2.054c-0.142,0.057-0.342,0.086-0.542,0.086c-0.628,0-1.226-0.371-1.455-0.998
				L23.658,27.565z M22.489,24.427l-2.31-6.132l-2.31,6.132H22.489z"/>
		</g>
	</g>
	<g>
		<g>
			<path class="st3" d="M107.246,159.298h6.931l1.397-3.708c0.257-0.628,0.856-0.998,1.483-0.998c0.2,0,0.372,0.029,0.542,0.086
				c0.827,0.314,1.227,1.226,0.942,2.054l-6.304,16.8c-0.257,0.628-0.884,1.027-1.512,0.998c-0.656,0.029-1.255-0.371-1.511-0.998
				l-6.304-16.8c-0.285-0.827,0.115-1.74,0.942-2.054c0.142-0.057,0.342-0.086,0.542-0.086c0.628,0,1.226,0.371,1.455,0.998
				L107.246,159.298z M108.415,162.436l2.31,6.132l2.31-6.132H108.415z"/>
		</g>
	</g>
	<g>
		
			<ellipse transform="matrix(0.2298 -0.9732 0.9732 0.2298 -79.6192 265.6068)" class="st0" cx="127.995" cy="183.105" rx="68.834" ry="68.834"/>
	</g>
	<g>
		<path class="st2" d="M127.995,114.271c-2.748,0-5.453,0.179-8.117,0.492c34.188,4.019,60.718,33.074,60.718,68.342
			c0,35.268-26.53,64.323-60.718,68.342c2.664,0.313,5.368,0.493,8.117,0.493c38.016,0,68.834-30.818,68.834-68.834
			C196.829,145.089,166.011,114.271,127.995,114.271z"/>
	</g>
	<g>
		<path class="st1" d="M127.995,251.939c2.748,0,5.452-0.18,8.116-0.493c-34.188-4.019-60.718-33.074-60.718-68.342
			c0-35.268,26.529-64.323,60.718-68.342c-2.664-0.313-5.368-0.492-8.116-0.492c-38.016,0-68.835,30.818-68.835,68.834
			C59.16,221.121,89.979,251.939,127.995,251.939z"/>
	</g>
	<g>
		<path class="st7" d="M185.079,144.628c-4.059-6.011-9.055-11.331-14.76-15.786l-31.525,31.525V115.12
			c-3.519-0.555-7.125-0.85-10.8-0.85c-3.675,0-7.28,0.295-10.799,0.85v45.246L85.67,128.841c-5.704,4.456-10.7,9.776-14.759,15.786
			l31.011,31.011H59.57c-0.265,2.453-0.41,4.942-0.41,7.466c0,4.845,0.507,9.571,1.459,14.134h41.303L73.731,225.43
			c4.455,5.704,9.776,10.7,15.786,14.76l27.678-27.678v38.578c3.519,0.555,7.125,0.85,10.799,0.85c3.675,0,7.281-0.295,10.8-0.85
			v-38.578l27.678,27.678c6.011-4.059,11.331-9.055,15.786-14.76l-28.191-28.191h41.303c0.952-4.562,1.459-9.288,1.459-14.134
			c0-2.523-0.145-5.012-0.41-7.466h-42.352L185.079,144.628z"/>
	</g>
	<g>
		<path class="st3" d="M127.994,253.939c-3.693,0-7.432-0.294-11.11-0.874c-0.973-0.153-1.688-0.991-1.688-1.976v-33.75
			l-24.264,24.263c-0.676,0.677-1.737,0.781-2.533,0.243c-6.154-4.155-11.619-9.265-16.243-15.186
			c-0.622-0.796-0.553-1.931,0.162-2.645l24.776-24.777H60.619c-0.947,0-1.765-0.664-1.958-1.591
			c-0.996-4.773-1.501-9.666-1.501-14.542c0-2.503,0.142-5.086,0.422-7.68c0.109-1.016,0.967-1.786,1.988-1.786h37.524
			l-27.597-27.597c-0.678-0.677-0.779-1.739-0.243-2.533c4.154-6.153,9.264-11.618,15.185-16.244
			c0.798-0.622,1.933-0.552,2.646,0.162l28.111,28.111v-40.418c0-0.984,0.716-1.822,1.688-1.976c7.358-1.16,14.865-1.16,22.222,0
			c0.973,0.153,1.688,0.991,1.688,1.976v40.418l28.111-28.111c0.714-0.714,1.848-0.784,2.645-0.162
			c5.92,4.625,11.029,10.09,15.186,16.243c0.536,0.794,0.435,1.856-0.243,2.534l-27.598,27.597h37.523
			c1.021,0,1.879,0.77,1.988,1.785c0.28,2.585,0.422,5.169,0.422,7.681c0,4.876-0.505,9.77-1.501,14.542
			c-0.193,0.927-1.011,1.591-1.958,1.591h-36.475l24.777,24.777c0.715,0.714,0.784,1.849,0.162,2.646
			c-4.626,5.921-10.091,11.03-16.244,15.185c-0.795,0.538-1.856,0.434-2.533-0.243l-24.264-24.263v33.75
			c0,0.984-0.716,1.822-1.688,1.976C135.427,253.645,131.689,253.939,127.994,253.939z M119.195,249.358
			c5.852,0.772,11.751,0.772,17.599,0v-36.847c0-0.809,0.487-1.538,1.234-1.848c0.749-0.311,1.606-0.139,2.18,0.434l26.497,26.496
			c4.781-3.405,9.101-7.438,12.872-12.017l-26.924-26.924c-0.572-0.572-0.743-1.432-0.434-2.179c0.31-0.747,1.039-1.235,1.848-1.235
			h39.657c0.733-3.998,1.105-8.071,1.105-12.133c0-1.791-0.077-3.623-0.229-5.466h-40.533c-0.809,0-1.538-0.487-1.848-1.235
			c-0.309-0.747-0.139-1.607,0.434-2.179l29.83-29.83c-3.405-4.783-7.438-9.102-12.018-12.872l-30.258,30.257
			c-0.573,0.573-1.431,0.742-2.18,0.434c-0.747-0.31-1.234-1.039-1.234-1.848v-43.514c-5.849-0.771-11.748-0.771-17.599,0v43.514
			c0,0.809-0.487,1.538-1.234,1.848c-0.75,0.309-1.607,0.139-2.18-0.434l-30.258-30.257c-4.58,3.771-8.612,8.09-12.017,12.872
			l29.829,29.83c0.572,0.572,0.743,1.432,0.434,2.179c-0.31,0.748-1.039,1.235-1.848,1.235H61.389
			c-0.151,1.848-0.229,3.68-0.229,5.466c0,4.062,0.371,8.136,1.104,12.133h39.657c0.809,0,1.538,0.487,1.848,1.235
			c0.31,0.747,0.139,1.607-0.434,2.179l-26.923,26.924c3.771,4.58,8.089,8.611,12.871,12.017l26.497-26.497
			c0.572-0.573,1.43-0.744,2.18-0.434c0.747,0.309,1.234,1.038,1.234,1.848V249.358z"/>
	</g>
	<g>
		<path class="st3" d="M127.994,253.939c-39.058,0-70.834-31.776-70.834-70.835s31.776-70.834,70.834-70.834
			c39.059,0,70.835,31.776,70.835,70.834S167.053,253.939,127.994,253.939z M127.994,116.271c-36.853,0-66.834,29.982-66.834,66.834
			c0,36.853,29.981,66.835,66.834,66.835c36.853,0,66.835-29.982,66.835-66.835C194.829,146.252,164.847,116.271,127.994,116.271z"
			/>
	</g>
	<g>
		
			<ellipse transform="matrix(0.2898 -0.9571 0.9571 0.2898 -84.3445 252.5469)" class="st4" cx="127.995" cy="183.105" rx="51.008" ry="51.008"/>
	</g>
	<g>
		<path class="st3" d="M127.994,236.113c-29.229,0-53.007-23.779-53.007-53.008s23.778-53.007,53.007-53.007
			c29.229,0,53.008,23.779,53.008,53.007S157.223,236.113,127.994,236.113z M127.994,134.098c-27.022,0-49.007,21.984-49.007,49.007
			c0,27.023,21.984,49.008,49.007,49.008c27.023,0,49.008-21.985,49.008-49.008C177.002,156.082,155.018,134.098,127.994,134.098z"
			/>
	</g>
	<g>
		<path class="st7" d="M137.444,214.572l-3.721-12.093c6.186,3.418,14.12,2.515,19.368-2.732l0,0c6.356-6.356,6.356-16.66,0-23.016
			L128,151.64l-25.091,25.091c-6.356,6.355-6.356,16.66,0,23.016c5.248,5.248,13.182,6.15,19.368,2.732l-3.721,12.093H137.444z"/>
	</g>
	<g>
		<path class="st3" d="M137.443,216.572h-18.888c-0.635,0-1.231-0.301-1.608-0.812c-0.377-0.51-0.49-1.169-0.303-1.776l2.493-8.105
			c-6.187,1.643-12.983-0.059-17.643-4.719c-3.452-3.451-5.354-8.04-5.354-12.922c0-4.881,1.901-9.471,5.354-12.922l25.091-25.09
			c0.781-0.781,2.047-0.781,2.828,0l25.091,25.091c7.125,7.125,7.125,18.719,0,25.844c-4.658,4.659-11.454,6.361-17.644,4.719
			l2.493,8.105c0.188,0.606,0.075,1.266-0.303,1.776C138.675,216.271,138.078,216.572,137.443,216.572z M121.264,212.572h13.472
			l-2.924-9.505c-0.24-0.779,0.018-1.626,0.65-2.14c0.634-0.515,1.516-0.592,2.228-0.198c5.534,3.058,12.518,2.072,16.987-2.396
			c5.565-5.566,5.565-14.622,0-20.188L128,154.469l-23.677,23.676c-2.696,2.696-4.182,6.281-4.182,10.094s1.485,7.397,4.182,10.093
			c4.467,4.468,11.451,5.454,16.986,2.397c0.712-0.394,1.594-0.317,2.228,0.198c0.633,0.514,0.891,1.361,0.65,2.141L121.264,212.572
			z"/>
	</g>
	<g>
		<path class="st8" d="M66.483,76.599l-2.126-2.126c-6.513-6.513-17.073-6.513-23.586,0h0c-6.513,6.513-6.513,17.073,0,23.586
			l25.712,25.712l25.712-25.712c6.513-6.513,6.513-17.073,0-23.586l0,0c-6.513-6.513-17.072-6.513-23.585,0L66.483,76.599z"/>
	</g>
	<g>
		<path class="st3" d="M66.483,125.771c-0.512,0-1.023-0.195-1.414-0.586L39.357,99.473c-7.282-7.282-7.282-19.132,0-26.414
			c7.28-7.281,19.13-7.282,26.414-0.001l0.712,0.712l0.713-0.712c3.527-3.527,8.218-5.47,13.206-5.47
			c4.989,0,9.68,1.942,13.207,5.47c3.528,3.528,5.471,8.218,5.471,13.207c0,4.989-1.942,9.679-5.471,13.207l-25.712,25.712
			C67.507,125.575,66.995,125.771,66.483,125.771z M52.564,71.595c-3.76,0-7.518,1.43-10.379,4.292
			c-5.723,5.723-5.723,15.035,0,20.758l24.298,24.297l24.298-24.297c2.772-2.772,4.299-6.459,4.299-10.379
			c0-3.92-1.526-7.606-4.299-10.379c-2.773-2.772-6.458-4.298-10.379-4.298c-3.92,0-7.605,1.526-10.378,4.298l-2.127,2.127
			c-0.375,0.375-0.884,0.585-1.414,0.585l0,0c-0.53,0-1.039-0.211-1.414-0.586l-2.126-2.126
			C60.082,73.026,56.322,71.595,52.564,71.595z"/>
	</g>
</g>
</svg>
