<svg xmlns="http://www.w3.org/2000/svg" viewBox="0 0 256 256"><title>icons_</title><rect x="25.708" y="74.999" width="23.333" height="130.333" fill="#63bce7"/><rect x="25.708" y="74.999" width="9.5" height="130.333" fill="#6377e7"/><rect x="67.208" y="140.166" width="23.333" height="65.167" fill="#f46275"/><rect x="108.708" y="74.999" width="23.333" height="130.333" fill="#f8af23"/><rect x="150.208" y="140.166" width="23.333" height="65.167" fill="#f46275"/><circle cx="37.375" cy="52.361" r="12.667" fill="#9e9e9e"/><path d="M34.208,52.361a12.664,12.664,0,0,1,7.917-11.737,12.667,12.667,0,1,0,0,23.475A12.664,12.664,0,0,1,34.208,52.361Z" fill="#707070"/><circle cx="120.375" cy="52.361" r="12.667" fill="#9e9e9e"/><circle cx="78.875" cy="115.028" r="12.667" fill="#9e9e9e"/><circle cx="161.875" cy="115.028" r="12.667" fill="#9e9e9e"/><rect x="191.617" y="151.539" width="17.238" height="53.794" rx="8.619" ry="8.619" fill="#f46275"/><path d="M200.236,151.539a8.574,8.574,0,0,0-4.75,1.43,8.607,8.607,0,0,1,3.869,7.189v36.556a8.607,8.607,0,0,1-3.869,7.189,8.615,8.615,0,0,0,13.369-7.189V160.158A8.619,8.619,0,0,0,200.236,151.539Z" fill="#f48875"/><circle cx="200.236" cy="105.142" r="33.056" fill="#f46275"/><circle cx="200.236" cy="105.142" r="24.701" fill="#f8af23"/><path d="M200.236,80.441a24.81,24.81,0,0,0-4.75.461,24.7,24.7,0,0,1,0,48.48,24.7,24.7,0,1,0,4.75-48.941Z" fill="#f8d323"/><path d="M195.115,117.657a4.292,4.292,0,0,1-2.934-1.156L186,110.746a4.306,4.306,0,1,1,5.871-6.3l3.135,2.921,13.477-13.477a4.306,4.306,0,1,1,6.089,6.09L198.16,116.4A4.294,4.294,0,0,1,195.115,117.657Z" fill="#63bce7"/><path d="M37.375,66.528A14.167,14.167,0,1,0,23.208,52.361,14.183,14.183,0,0,0,37.375,66.528Zm0-25.333A11.167,11.167,0,1,1,26.208,52.361,11.179,11.179,0,0,1,37.375,41.195Z" fill="#3f3679"/><path d="M120.375,66.528a14.167,14.167,0,1,0-14.167-14.167A14.182,14.182,0,0,0,120.375,66.528Zm0-25.333a11.167,11.167,0,1,1-11.167,11.167A11.179,11.179,0,0,1,120.375,41.195Z" fill="#3f3679"/><path d="M78.875,129.195a14.167,14.167,0,1,0-14.167-14.167A14.183,14.183,0,0,0,78.875,129.195Zm0-25.333a11.167,11.167,0,1,1-11.167,11.167A11.179,11.179,0,0,1,78.875,103.861Z" fill="#3f3679"/><path d="M226.437,105.143a26.2,26.2,0,1,0-26.2,26.2A26.231,26.231,0,0,0,226.437,105.143Zm-49.4,0a23.2,23.2,0,1,1,23.2,23.2A23.228,23.228,0,0,1,177.035,105.143Z" fill="#3f3679"/><path d="M215.638,92.829a5.807,5.807,0,0,0-8.211,0l-12.453,12.453-2.076-1.934a5.806,5.806,0,1,0-7.915,8.5l6.175,5.755a5.805,5.805,0,0,0,8.063-.142l16.417-16.417A5.813,5.813,0,0,0,215.638,92.829Zm-2.121,6.09L197.1,115.335a2.874,2.874,0,0,1-3.9.069l-6.176-5.755a2.806,2.806,0,0,1,3.825-4.106l3.136,2.921a1.5,1.5,0,0,0,2.083-.037L209.548,94.95a2.875,2.875,0,0,1,3.969,0A2.81,2.81,0,0,1,213.517,98.918Z" fill="#3f3679"/><path d="M27.323,214.805h-18a1.5,1.5,0,1,0,0,3h18a1.5,1.5,0,1,0,0-3Z" fill="#3f3679"/><path d="M246.68,214.805h-18a1.5,1.5,0,0,0,0,3h18a1.5,1.5,0,0,0,0-3Z" fill="#3f3679"/><path d="M218.479,214.805H37.521a1.5,1.5,0,0,0,0,3H218.479a1.5,1.5,0,0,0,0-3Z" fill="#3f3679"/><path d="M9.32,206.833H246.68a1.5,1.5,0,0,0,0-3H207.418a10.085,10.085,0,0,0,2.937-7.119V160.158a10.126,10.126,0,0,0-8.619-10v-10.5a34.553,34.553,0,1,0-35.855-38.221,14.168,14.168,0,1,0,6.08,23.532,34.541,34.541,0,0,0,26.775,14.689v10.5a10.126,10.126,0,0,0-8.619,10v36.556a10.085,10.085,0,0,0,2.937,7.119H175.041V140.166a1.5,1.5,0,0,0-1.5-1.5H150.208a1.5,1.5,0,0,0-1.5,1.5v63.667H133.541V75a1.5,1.5,0,0,0-1.5-1.5H108.708a1.5,1.5,0,0,0-1.5,1.5V203.833H92.042V140.166a1.5,1.5,0,0,0-1.5-1.5H67.208a1.5,1.5,0,0,0-1.5,1.5v63.667H50.542V75a1.5,1.5,0,0,0-1.5-1.5H25.708a1.5,1.5,0,0,0-1.5,1.5V203.833H9.32a1.5,1.5,0,1,0,0,3Zm152.555-80.638a11.167,11.167,0,1,1,3.821-21.65c0,.2-.015.4-.015.6a34.331,34.331,0,0,0,4.606,17.2A11.076,11.076,0,0,1,161.875,126.195Zm6.806-21.052A31.556,31.556,0,1,1,200.236,136.7,31.592,31.592,0,0,1,168.681,105.143Zm24.437,91.571V160.158a7.119,7.119,0,0,1,14.238,0v36.556a7.119,7.119,0,0,1-14.238,0Zm-41.409-55.048h20.333v62.167H151.708ZM110.208,76.5h20.333V203.833H110.208Zm-41.5,65.167H89.042v62.167H68.708ZM27.208,76.5H47.542V203.833H27.208Z" fill="#3f3679"/></svg>