<svg xmlns="http://www.w3.org/2000/svg" viewBox="0 0 256 256"><title>icons_</title><path d="M94.9,106.5H161.1a2.81,2.81,0,0,1,2.81,2.81V175.1a5,5,0,0,1-5,5H97.087a5,5,0,0,1-5-5V109.31a2.81,2.81,0,0,1,2.81-2.81Z" fill="#63bce7"/><path d="M94.9,15.971H161.1a2.81,2.81,0,0,1,2.81,2.81V84.572a5,5,0,0,1-5,5H97.087a5,5,0,0,1-5-5V18.781A2.81,2.81,0,0,1,94.9,15.971Z" fill="#f46275"/><path d="M101.587,84.572V18.78a2.81,2.81,0,0,1,2.81-2.81H94.9a2.81,2.81,0,0,0-2.81,2.81V84.572a5,5,0,0,0,5,5h9.5A5,5,0,0,1,101.587,84.572Z" fill="#f43075"/><path d="M101.587,175.1V109.31a2.81,2.81,0,0,1,2.81-2.81H94.9a2.81,2.81,0,0,0-2.81,2.81V175.1a5,5,0,0,0,5,5h9.5A5,5,0,0,1,101.587,175.1Z" fill="#6377e7"/><path d="M163.913,18.782a2.812,2.812,0,0,0-2.812-2.812H94.9a2.812,2.812,0,0,0-2.812,2.812V29.128h71.826Z" fill="#9e9e9e"/><path d="M104.4,15.97H94.9a2.812,2.812,0,0,0-2.812,2.812V29.128h9.5V18.782A2.812,2.812,0,0,1,104.4,15.97Z" fill="#707070"/><rect x="175.212" y="196.807" width="50.685" height="32.25" transform="translate(401.109 425.863) rotate(-180)" fill="#63bce7"/><rect x="170.679" y="182.002" width="59.75" height="14.804" transform="translate(401.109 378.809) rotate(-180)" fill="#9e9e9e"/><path d="M207.3,113.3a10.843,10.843,0,0,1,15.122-.2l.073-.047V84.973a10.85,10.85,0,0,1,10.85-10.85h0a10.85,10.85,0,0,1,10.85,10.85v64.269a3,3,0,0,1-.864,2.107l-21.387,21.678a3,3,0,0,0-.864,2.107V182H180.029V141.81a3,3,0,0,1,.879-2.121Z" fill="#f8af23"/><path d="M48.7,113.3a10.843,10.843,0,0,0-15.122-.2l-.073-.047V84.973a10.85,10.85,0,0,0-10.85-10.85h0A10.85,10.85,0,0,0,11.8,84.973v64.269a3,3,0,0,0,.864,2.107l21.387,21.678a3,3,0,0,1,.864,2.107V182H75.971V141.81a3,3,0,0,0-.879-2.121Z" fill="#f8af23"/><path d="M43.556,173.027,22.169,151.35a3,3,0,0,1-.864-2.107V84.973a10.84,10.84,0,0,1,6.1-9.744,10.789,10.789,0,0,0-4.75-1.106h0A10.85,10.85,0,0,0,11.8,84.973v64.269a3,3,0,0,0,.864,2.107l21.387,21.678a3,3,0,0,1,.864,2.107V182h9.5v-6.868A3,3,0,0,0,43.556,173.027Z" fill="#f87023"/><path d="M212.444,173.027l21.387-21.678a3,3,0,0,0,.864-2.107V84.973a10.84,10.84,0,0,0-6.1-9.744,10.789,10.789,0,0,1,4.75-1.106h0a10.85,10.85,0,0,1,10.85,10.85v64.269a3,3,0,0,1-.864,2.107l-21.387,21.678a3,3,0,0,0-.864,2.107V182h-9.5v-6.868A3,3,0,0,1,212.444,173.027Z" fill="#f8d323"/><rect x="25.571" y="182.002" width="59.75" height="14.804" fill="#9e9e9e"/><rect x="25.571" y="182.002" width="9.5" height="14.804" fill="#707070"/><rect x="220.929" y="182.002" width="9.5" height="14.804" fill="#cecece"/><rect x="30.103" y="196.807" width="50.685" height="32.25" fill="#63bce7"/><rect x="30.103" y="196.807" width="9.5" height="32.25" fill="#6377e7"/><rect x="216.397" y="196.807" width="9.5" height="32.25" fill="#63e2e7"/><path d="M163.913,109.311A2.812,2.812,0,0,0,161.1,106.5H94.9a2.812,2.812,0,0,0-2.812,2.812v10.345h71.826Z" fill="#9e9e9e"/><path d="M104.4,106.5H94.9a2.812,2.812,0,0,0-2.812,2.812v10.345h9.5V109.311A2.812,2.812,0,0,1,104.4,106.5Z" fill="#707070"/><path d="M97.087,91.072h61.826a6.508,6.508,0,0,0,6.5-6.5V18.78a4.315,4.315,0,0,0-4.311-4.31H94.9a4.315,4.315,0,0,0-4.311,4.31V84.572A6.508,6.508,0,0,0,97.087,91.072Zm61.826-3H97.087a3.5,3.5,0,0,1-3.5-3.5V30.628h68.826V84.572A3.5,3.5,0,0,1,158.913,88.072Zm2.188-70.6a1.313,1.313,0,0,1,1.313,1.312v8.846H93.587V18.782A1.313,1.313,0,0,1,94.9,17.471Z" fill="#3f3679"/><path d="M63.954,190.9h9.375a1.5,1.5,0,0,0,0-3H63.954a1.5,1.5,0,0,0,0,3Z" fill="#3f3679"/><path d="M182.671,190.9h9.375a1.5,1.5,0,0,0,0-3h-9.375a1.5,1.5,0,0,0,0,3Z" fill="#3f3679"/><path d="M27.323,238.529h-18a1.5,1.5,0,0,0,0,3h18a1.5,1.5,0,1,0,0-3Z" fill="#3f3679"/><path d="M246.68,238.529h-18a1.5,1.5,0,0,0,0,3h18a1.5,1.5,0,0,0,0-3Z" fill="#3f3679"/><path d="M218.479,238.529H37.521a1.5,1.5,0,0,0,0,3H218.479a1.5,1.5,0,0,0,0-3Z" fill="#3f3679"/><path d="M248.18,229.057a1.5,1.5,0,0,0-1.5-1.5H227.4v-29.25h3.033a1.5,1.5,0,0,0,1.5-1.5V182a1.5,1.5,0,0,0-1.5-1.5h-7.85v-5.367a1.491,1.491,0,0,1,.432-1.054L244.4,152.4a4.473,4.473,0,0,0,1.3-3.16V84.974a12.35,12.35,0,1,0-24.7,0v25.214a12.267,12.267,0,0,0-14.756,2.049l-26.392,26.392a4.467,4.467,0,0,0-1.318,3.182V180.5h-7.85a1.5,1.5,0,0,0-1.5,1.5v14.8a1.5,1.5,0,0,0,1.5,1.5h3.032v29.25H82.288v-29.25H85.32a1.5,1.5,0,0,0,1.5-1.5V182a1.5,1.5,0,0,0-1.5-1.5h-7.85V141.81a4.467,4.467,0,0,0-1.318-3.182L49.761,112.236A12.266,12.266,0,0,0,35,110.188V84.974a12.35,12.35,0,1,0-24.7,0v64.269a4.474,4.474,0,0,0,1.3,3.161L32.987,174.08a1.492,1.492,0,0,1,.433,1.055V180.5H25.57a1.5,1.5,0,0,0-1.5,1.5v14.8a1.5,1.5,0,0,0,1.5,1.5H28.6v29.25H9.32a1.5,1.5,0,0,0,0,3H246.68A1.5,1.5,0,0,0,248.18,229.057Zm-66.65-87.247a1.491,1.491,0,0,1,.439-1.061l26.392-26.392a9.3,9.3,0,0,1,13.03-.173c.04.038.168.147.193.173a9.35,9.35,0,0,1,0,13.223L201.7,147.462a1.5,1.5,0,1,0,2.121,2.121L223.705,129.7a12.354,12.354,0,0,0,.29-17.144V84.974a9.35,9.35,0,1,1,18.7,0v64.269a1.491,1.491,0,0,1-.432,1.054l-21.388,21.679a4.473,4.473,0,0,0-1.3,3.16V180.5H181.529ZM172.18,183.5h56.75v4.4H201.546a1.5,1.5,0,0,0,0,3H228.93v4.4H172.18ZM35.123,171.974,13.737,150.3a1.492,1.492,0,0,1-.433-1.055V84.974a9.35,9.35,0,1,1,18.7,0v27.584a12.354,12.354,0,0,0,.29,17.144l19.882,19.882a1.5,1.5,0,0,0,2.121-2.121L34.416,127.58a9.35,9.35,0,0,1,0-13.223c.023-.023.151-.133.193-.173a9.3,9.3,0,0,1,13.03.173l26.392,26.392a1.491,1.491,0,0,1,.439,1.061V180.5H36.42v-5.367A4.474,4.474,0,0,0,35.123,171.974ZM27.07,190.9H54.454a1.5,1.5,0,0,0,0-3H27.07v-4.4H83.82v11.8H27.07ZM31.6,227.557v-21.03H68.642a1.5,1.5,0,0,0,0-3H31.6v-5.22H79.288v29.25Zm145.108,0v-29.25H224.4v5.22H187.358a1.5,1.5,0,0,0,0,3H224.4v21.03Z" fill="#3f3679"/><path d="M152.375,36.711H142a1.5,1.5,0,0,0,0,3h10.375a1.5,1.5,0,0,0,0-3Z" fill="#3f3679"/><path d="M103.625,39.711h27.708a1.5,1.5,0,0,0,0-3H103.625a1.5,1.5,0,0,0,0,3Z" fill="#3f3679"/><path d="M152.375,46.377H132.75a1.5,1.5,0,0,0,0,3h19.625a1.5,1.5,0,0,0,0-3Z" fill="#3f3679"/><path d="M103.625,49.377H123.5a1.5,1.5,0,0,0,0-3H103.625a1.5,1.5,0,0,0,0,3Z" fill="#3f3679"/><path d="M103.625,59.044h10.75a1.5,1.5,0,0,0,0-3h-10.75a1.5,1.5,0,0,0,0,3Z" fill="#3f3679"/><path d="M152.375,56.044H124.75a1.5,1.5,0,0,0,0,3h27.625a1.5,1.5,0,0,0,0-3Z" fill="#3f3679"/><path d="M152.375,65.711H140a1.5,1.5,0,0,0,0,3h12.375a1.5,1.5,0,0,0,0-3Z" fill="#3f3679"/><path d="M152.375,75.377h-48.75a1.5,1.5,0,0,0,0,3h48.75a1.5,1.5,0,0,0,0-3Z" fill="#3f3679"/><path d="M103.625,68.711h30.75a1.5,1.5,0,0,0,0-3h-30.75a1.5,1.5,0,0,0,0,3Z" fill="#3f3679"/><path d="M97.087,181.6h61.826a6.508,6.508,0,0,0,6.5-6.5V109.31A4.315,4.315,0,0,0,161.1,105H94.9a4.315,4.315,0,0,0-4.311,4.31V175.1A6.508,6.508,0,0,0,97.087,181.6Zm61.826-3H97.087a3.5,3.5,0,0,1-3.5-3.5V121.157h68.826V175.1A3.5,3.5,0,0,1,158.913,178.6ZM161.1,108a1.313,1.313,0,0,1,1.313,1.312v8.846H93.587v-8.846A1.313,1.313,0,0,1,94.9,108Z" fill="#3f3679"/><path d="M152.375,127.239H142a1.5,1.5,0,0,0,0,3h10.375a1.5,1.5,0,1,0,0-3Z" fill="#3f3679"/><path d="M103.625,130.239h27.708a1.5,1.5,0,1,0,0-3H103.625a1.5,1.5,0,1,0,0,3Z" fill="#3f3679"/><path d="M152.375,136.906H132.75a1.5,1.5,0,0,0,0,3h19.625a1.5,1.5,0,0,0,0-3Z" fill="#3f3679"/><path d="M103.625,139.906H123.5a1.5,1.5,0,0,0,0-3H103.625a1.5,1.5,0,0,0,0,3Z" fill="#3f3679"/><path d="M103.625,149.573h10.75a1.5,1.5,0,0,0,0-3h-10.75a1.5,1.5,0,0,0,0,3Z" fill="#3f3679"/><path d="M152.375,146.573H124.75a1.5,1.5,0,1,0,0,3h27.625a1.5,1.5,0,0,0,0-3Z" fill="#3f3679"/><path d="M152.375,156.239H140a1.5,1.5,0,0,0,0,3h12.375a1.5,1.5,0,0,0,0-3Z" fill="#3f3679"/><path d="M152.375,165.906h-48.75a1.5,1.5,0,0,0,0,3h48.75a1.5,1.5,0,0,0,0-3Z" fill="#3f3679"/><path d="M103.625,159.239h30.75a1.5,1.5,0,0,0,0-3h-30.75a1.5,1.5,0,0,0,0,3Z" fill="#3f3679"/><path d="M69.905,114.578h7.588L74.271,117.8a1.5,1.5,0,1,0,2.121,2.121l5.783-5.783a1.5,1.5,0,0,0,0-2.121l-5.783-5.783a1.5,1.5,0,1,0-2.121,2.121l3.223,3.223H71.405V54.271h12.82a1.5,1.5,0,0,0,0-3H69.905a1.5,1.5,0,0,0-1.5,1.5v60.307A1.5,1.5,0,0,0,69.905,114.578Z" fill="#3f3679"/><path d="M171.774,114.578h14.32a1.5,1.5,0,0,0,1.5-1.5V52.771a1.5,1.5,0,0,0-1.5-1.5h-7.588l3.223-3.223a1.5,1.5,0,1,0-2.121-2.121l-5.783,5.783a1.5,1.5,0,0,0,0,2.121l5.783,5.783a1.5,1.5,0,1,0,2.121-2.121l-3.223-3.223h6.088v57.307h-12.82a1.5,1.5,0,0,0,0,3Z" fill="#3f3679"/></svg>