<svg xmlns="http://www.w3.org/2000/svg" viewBox="0 0 256 256"><title>icons_</title><rect x="15.61" y="37.473" width="224.78" height="154.91" rx="14.009" ry="14.009" fill="#63bce7"/><path d="M25.11,178.373V51.481A14.025,14.025,0,0,1,39.119,37.473h-9.5A14.025,14.025,0,0,0,15.61,51.481V178.373a14.025,14.025,0,0,0,14.009,14.009h9.5A14.025,14.025,0,0,1,25.11,178.373Z" fill="#6377e7"/><path d="M230.89,178.373V51.481a14.025,14.025,0,0,0-14.009-14.009h9.5A14.025,14.025,0,0,1,240.39,51.481V178.373a14.025,14.025,0,0,1-14.009,14.009h-9.5A14.025,14.025,0,0,0,230.89,178.373Z" fill="#63e2e7"/><rect x="24.231" y="46.093" width="207.538" height="125.366" rx="5.388" ry="5.388" fill="#f8af23"/><path d="M33.731,166.071V51.481a5.4,5.4,0,0,1,5.388-5.388h-9.5a5.4,5.4,0,0,0-5.388,5.388v114.59a5.4,5.4,0,0,0,5.388,5.388h9.5A5.4,5.4,0,0,1,33.731,166.071Z" fill="#f87023"/><path d="M222.269,166.071V51.481a5.4,5.4,0,0,0-5.388-5.388h9.5a5.4,5.4,0,0,1,5.388,5.388v114.59a5.4,5.4,0,0,1-5.388,5.388h-9.5A5.4,5.4,0,0,0,222.269,166.071Z" fill="#f8d323"/><rect x="88.847" y="215.098" width="78.305" height="9.429" fill="#f46275"/><rect x="88.847" y="215.098" width="9.5" height="9.429" fill="#f43075"/><rect x="99.983" y="192.382" width="56.035" height="22.716" fill="#9e9e9e"/><rect x="99.983" y="192.382" width="9.5" height="22.716" fill="#707070"/><circle cx="128" cy="181.921" r="4.613" fill="#f46275"/><rect x="152.713" y="60.798" width="67" height="50.25" rx="5" ry="5" fill="#63bce7"/><path d="M219.713,65.8a5,5,0,0,0-5-5h-57a5,5,0,0,0-5,5v9.288h67Z" fill="#9e9e9e"/><rect x="134.787" y="136.284" width="67" height="50.25" rx="5" ry="5" fill="#f46275"/><path d="M201.787,141.284a5,5,0,0,0-5-5h-57a5,5,0,0,0-5,5v9.288h67Z" fill="#9e9e9e"/><rect x="54.213" y="20.5" width="67" height="50.25" rx="5" ry="5" fill="#f46275"/><path d="M121.213,25.5a5,5,0,0,0-5-5h-57a5,5,0,0,0-5,5v9.288h67Z" fill="#9e9e9e"/><rect x="36.287" y="95.986" width="67" height="50.25" rx="5" ry="5" fill="#9e9e9e"/><path d="M103.287,100.986a5,5,0,0,0-5-5h-57a5,5,0,0,0-5,5v9.288h67Z" fill="#63bce7"/><path d="M27.323,234h-18a1.5,1.5,0,0,0,0,3h18a1.5,1.5,0,0,0,0-3Z" fill="#3f3679"/><path d="M246.68,234h-18a1.5,1.5,0,0,0,0,3h18a1.5,1.5,0,0,0,0-3Z" fill="#3f3679"/><path d="M218.479,234H37.521a1.5,1.5,0,0,0,0,3H218.479a1.5,1.5,0,0,0,0-3Z" fill="#3f3679"/><path d="M9.32,226.027H246.68a1.5,1.5,0,0,0,0-3H168.652V215.1a1.5,1.5,0,0,0-1.5-1.5h-9.635V193.882h68.863a15.526,15.526,0,0,0,15.509-15.509V51.481a15.526,15.526,0,0,0-15.509-15.509H122.714V25.5a6.508,6.508,0,0,0-6.5-6.5h-57a6.508,6.508,0,0,0-6.5,6.5V35.973H29.619A15.526,15.526,0,0,0,14.11,51.481V178.373a15.526,15.526,0,0,0,15.509,15.509H98.482V213.6H88.848a1.5,1.5,0,0,0-1.5,1.5v7.93H9.32a1.5,1.5,0,0,0,0,3Zm126.966-73.955h64v29.462a3.5,3.5,0,0,1-3.5,3.5h-57a3.5,3.5,0,0,1-3.5-3.5Zm0-3v-7.788a3.5,3.5,0,0,1,3.5-3.5h57a3.5,3.5,0,0,1,3.5,3.5v7.788Zm67,1.5v-9.288a6.508,6.508,0,0,0-6.5-6.5h-57a6.508,6.508,0,0,0-6.5,6.5v28.675H29.619a3.892,3.892,0,0,1-3.888-3.888V51.481a3.892,3.892,0,0,1,3.888-3.889H52.714V65.75a6.508,6.508,0,0,0,6.5,6.5h57a6.508,6.508,0,0,0,6.5-6.5V47.593H226.381a3.892,3.892,0,0,1,3.888,3.889v114.59a3.892,3.892,0,0,1-3.888,3.888H203.286ZM55.714,36.288h64V65.75a3.5,3.5,0,0,1-3.5,3.5h-57a3.5,3.5,0,0,1-3.5-3.5Zm0-10.788a3.5,3.5,0,0,1,3.5-3.5h57a3.5,3.5,0,0,1,3.5,3.5v7.788h-64ZM17.11,178.373V51.481A12.523,12.523,0,0,1,29.619,38.973H52.714v5.62H29.619a6.9,6.9,0,0,0-6.888,6.889v114.59a6.9,6.9,0,0,0,6.888,6.888H133.286v5.905a6.112,6.112,0,1,0,.472,5.09,6.507,6.507,0,0,0,6.028,4.08h57a6.508,6.508,0,0,0,6.5-6.5v-8.575h23.095a6.9,6.9,0,0,0,6.888-6.888V51.481a6.9,6.9,0,0,0-6.888-6.889H122.714v-5.62H226.381A12.523,12.523,0,0,1,238.89,51.481V178.373a12.523,12.523,0,0,1-12.509,12.509H29.619A12.523,12.523,0,0,1,17.11,178.373Zm114,3.548A3.113,3.113,0,1,1,128,178.808,3.117,3.117,0,0,1,131.113,181.921Zm-29.631,11.961h53.035V213.6H101.482ZM90.348,216.6h75.3v6.43h-75.3Z" fill="#3f3679"/><path d="M214.714,59.3h-57a6.508,6.508,0,0,0-6.5,6.5v40.25a6.508,6.508,0,0,0,6.5,6.5h57a6.508,6.508,0,0,0,6.5-6.5V65.8A6.508,6.508,0,0,0,214.714,59.3Zm-60.5,6.5a3.5,3.5,0,0,1,3.5-3.5h57a3.5,3.5,0,0,1,3.5,3.5v7.789h-64Zm60.5,43.75h-57a3.5,3.5,0,0,1-3.5-3.5V76.587h64v29.461A3.5,3.5,0,0,1,214.714,109.548Z" fill="#3f3679"/><path d="M98.286,94.486h-57a6.508,6.508,0,0,0-6.5,6.5v40.25a6.508,6.508,0,0,0,6.5,6.5h57a6.508,6.508,0,0,0,6.5-6.5v-40.25A6.508,6.508,0,0,0,98.286,94.486Zm-60.5,6.5a3.5,3.5,0,0,1,3.5-3.5h57a3.5,3.5,0,0,1,3.5,3.5v7.788h-64Zm60.5,43.75h-57a3.5,3.5,0,0,1-3.5-3.5V111.774h64v29.462A3.5,3.5,0,0,1,98.286,144.736Z" fill="#3f3679"/></svg>