<svg xmlns="http://www.w3.org/2000/svg" viewBox="0 0 256 256"><title>icons_</title><rect x="187.667" y="19.639" width="27.333" height="11.75" fill="#f8af23"/><rect x="187.667" y="213.639" width="27.333" height="11.75" fill="#f8af23"/><rect x="41" y="213.639" width="27.333" height="11.75" fill="#f8af23"/><rect x="187.667" y="175.847" width="27.333" height="27.333" fill="#63bce7"/><rect x="187.667" y="131.18" width="27.333" height="27.333" fill="#63bce7"/><rect x="187.667" y="86.514" width="27.333" height="27.333" fill="#63bce7"/><rect x="187.667" y="41.847" width="27.333" height="27.333" fill="#63bce7"/><rect x="41" y="175.847" width="27.333" height="27.333" fill="#63bce7"/><rect x="41" y="131.18" width="27.333" height="27.333" fill="#63bce7"/><rect x="41" y="86.514" width="27.333" height="27.333" fill="#63bce7"/><rect x="41" y="41.847" width="27.333" height="27.333" fill="#63bce7"/><rect x="41" y="41.847" width="9.5" height="27.333" fill="#6377e7"/><rect x="205.5" y="41.847" width="9.5" height="27.333" fill="#63e2e7"/><rect x="205.5" y="86.514" width="9.5" height="27.333" fill="#63e2e7"/><rect x="205.5" y="131.181" width="9.5" height="27.333" fill="#63e2e7"/><rect x="205.5" y="175.847" width="9.5" height="27.333" fill="#63e2e7"/><rect x="41" y="86.514" width="9.5" height="27.333" fill="#6377e7"/><rect x="41" y="131.181" width="9.5" height="27.333" fill="#6377e7"/><rect x="41" y="175.847" width="9.5" height="27.333" fill="#6377e7"/><rect x="77.667" y="41.847" width="27.333" height="27.333" fill="#63bce7"/><rect x="114.333" y="41.847" width="27.333" height="27.333" fill="#63bce7"/><rect x="151" y="41.847" width="27.333" height="27.333" fill="#63bce7"/><rect x="77.667" y="86.514" width="27.333" height="27.333" fill="#63bce7"/><rect x="114.333" y="86.514" width="27.333" height="27.333" fill="#63bce7"/><rect x="151" y="86.514" width="27.333" height="27.333" fill="#63bce7"/><rect x="77.667" y="131.18" width="27.333" height="27.333" fill="#63bce7"/><rect x="114.333" y="131.18" width="27.333" height="27.333" fill="#63bce7"/><rect x="151" y="131.18" width="27.333" height="27.333" fill="#63bce7"/><rect x="77.667" y="175.847" width="27.333" height="27.333" fill="#63bce7"/><rect x="114.333" y="175.847" width="27.333" height="27.333" fill="#63bce7"/><rect x="151" y="175.847" width="27.333" height="27.333" fill="#63bce7"/><rect x="41" y="19.639" width="27.333" height="11.75" fill="#f8af23"/><rect x="41" y="19.639" width="9.5" height="11.75" fill="#f87023"/><rect x="205.5" y="19.639" width="9.5" height="11.75" fill="#f8d323"/><rect x="41" y="213.639" width="9.5" height="11.75" fill="#f87023"/><rect x="205.5" y="213.639" width="9.5" height="11.75" fill="#f8d323"/><rect x="77.667" y="19.639" width="27.333" height="11.75" fill="#f8af23"/><rect x="114.333" y="19.639" width="27.333" height="11.75" fill="#f8af23"/><rect x="151" y="19.639" width="27.333" height="11.75" fill="#f8af23"/><rect x="77.667" y="213.639" width="27.333" height="11.75" fill="#f8af23"/><rect x="114.333" y="213.639" width="27.333" height="11.75" fill="#f8af23"/><rect x="151" y="213.639" width="27.333" height="11.75" fill="#f8af23"/><rect x="216.943" y="49.639" width="27.333" height="11.75" transform="translate(286.123 -175.096) rotate(90)" fill="#f48875"/><rect x="216.943" y="94.305" width="27.333" height="11.75" transform="translate(330.79 -130.429) rotate(90)" fill="#f48875"/><rect x="216.943" y="138.972" width="27.333" height="11.75" transform="translate(375.456 -85.763) rotate(90)" fill="#f48875"/><rect x="216.943" y="183.639" width="27.333" height="11.75" transform="translate(420.123 -41.096) rotate(90)" fill="#f48875"/><rect x="11.724" y="49.639" width="27.333" height="11.75" transform="translate(80.904 30.123) rotate(90)" fill="#f43075"/><rect x="11.724" y="94.305" width="27.333" height="11.75" transform="translate(125.571 74.79) rotate(90)" fill="#f43075"/><rect x="11.724" y="138.972" width="27.333" height="11.75" transform="translate(170.237 119.456) rotate(90)" fill="#f43075"/><rect x="11.724" y="183.639" width="27.333" height="11.75" transform="translate(214.904 164.123) rotate(90)" fill="#f43075"/><path d="M41,70.681H68.333a1.5,1.5,0,0,0,1.5-1.5V41.847a1.5,1.5,0,0,0-1.5-1.5H41a1.5,1.5,0,0,0-1.5,1.5V69.181A1.5,1.5,0,0,0,41,70.681Zm1.5-27.334H66.833V67.681H42.5Z" fill="#3f3679"/><path d="M77.667,70.681H105a1.5,1.5,0,0,0,1.5-1.5V41.847a1.5,1.5,0,0,0-1.5-1.5H77.667a1.5,1.5,0,0,0-1.5,1.5V69.181A1.5,1.5,0,0,0,77.667,70.681Zm1.5-27.334H103.5V67.681H79.167Z" fill="#3f3679"/><path d="M114.333,70.681h27.334a1.5,1.5,0,0,0,1.5-1.5V41.847a1.5,1.5,0,0,0-1.5-1.5H114.333a1.5,1.5,0,0,0-1.5,1.5V69.181A1.5,1.5,0,0,0,114.333,70.681Zm1.5-27.334h24.334V67.681H115.833Z" fill="#3f3679"/><path d="M151,70.681h27.333a1.5,1.5,0,0,0,1.5-1.5V41.847a1.5,1.5,0,0,0-1.5-1.5H151a1.5,1.5,0,0,0-1.5,1.5V69.181A1.5,1.5,0,0,0,151,70.681Zm1.5-27.334h24.333V67.681H152.5Z" fill="#3f3679"/><path d="M187.667,70.681H215a1.5,1.5,0,0,0,1.5-1.5V41.847a1.5,1.5,0,0,0-1.5-1.5H187.667a1.5,1.5,0,0,0-1.5,1.5V69.181A1.5,1.5,0,0,0,187.667,70.681Zm1.5-27.334H213.5V67.681H189.167Z" fill="#3f3679"/><path d="M41,115.347H68.333a1.5,1.5,0,0,0,1.5-1.5V86.514a1.5,1.5,0,0,0-1.5-1.5H41a1.5,1.5,0,0,0-1.5,1.5v27.333A1.5,1.5,0,0,0,41,115.347Zm1.5-27.333H66.833v24.333H42.5Z" fill="#3f3679"/><path d="M77.667,115.347H105a1.5,1.5,0,0,0,1.5-1.5V86.514a1.5,1.5,0,0,0-1.5-1.5H77.667a1.5,1.5,0,0,0-1.5,1.5v27.333A1.5,1.5,0,0,0,77.667,115.347Zm1.5-27.333H103.5v24.333H79.167Z" fill="#3f3679"/><path d="M114.333,115.347h27.334a1.5,1.5,0,0,0,1.5-1.5V86.514a1.5,1.5,0,0,0-1.5-1.5H114.333a1.5,1.5,0,0,0-1.5,1.5v27.333A1.5,1.5,0,0,0,114.333,115.347Zm1.5-27.333h24.334v24.333H115.833Z" fill="#3f3679"/><path d="M151,115.347h27.333a1.5,1.5,0,0,0,1.5-1.5V86.514a1.5,1.5,0,0,0-1.5-1.5H151a1.5,1.5,0,0,0-1.5,1.5v27.333A1.5,1.5,0,0,0,151,115.347Zm1.5-27.333h24.333v24.333H152.5Z" fill="#3f3679"/><path d="M187.667,115.347H215a1.5,1.5,0,0,0,1.5-1.5V86.514a1.5,1.5,0,0,0-1.5-1.5H187.667a1.5,1.5,0,0,0-1.5,1.5v27.333A1.5,1.5,0,0,0,187.667,115.347Zm1.5-27.333H213.5v24.333H189.167Z" fill="#3f3679"/><path d="M41,160.014H68.333a1.5,1.5,0,0,0,1.5-1.5V131.181a1.5,1.5,0,0,0-1.5-1.5H41a1.5,1.5,0,0,0-1.5,1.5v27.333A1.5,1.5,0,0,0,41,160.014Zm1.5-27.333H66.833v24.333H42.5Z" fill="#3f3679"/><path d="M77.667,160.014H105a1.5,1.5,0,0,0,1.5-1.5V131.181a1.5,1.5,0,0,0-1.5-1.5H77.667a1.5,1.5,0,0,0-1.5,1.5v27.333A1.5,1.5,0,0,0,77.667,160.014Zm1.5-27.333H103.5v24.333H79.167Z" fill="#3f3679"/><path d="M114.333,160.014h27.334a1.5,1.5,0,0,0,1.5-1.5V131.181a1.5,1.5,0,0,0-1.5-1.5H114.333a1.5,1.5,0,0,0-1.5,1.5v27.333A1.5,1.5,0,0,0,114.333,160.014Zm1.5-27.333h24.334v24.333H115.833Z" fill="#3f3679"/><path d="M151,160.014h27.333a1.5,1.5,0,0,0,1.5-1.5V131.181a1.5,1.5,0,0,0-1.5-1.5H151a1.5,1.5,0,0,0-1.5,1.5v27.333A1.5,1.5,0,0,0,151,160.014Zm1.5-27.333h24.333v24.333H152.5Z" fill="#3f3679"/><path d="M187.667,160.014H215a1.5,1.5,0,0,0,1.5-1.5V131.181a1.5,1.5,0,0,0-1.5-1.5H187.667a1.5,1.5,0,0,0-1.5,1.5v27.333A1.5,1.5,0,0,0,187.667,160.014Zm1.5-27.333H213.5v24.333H189.167Z" fill="#3f3679"/><path d="M41,204.681H68.333a1.5,1.5,0,0,0,1.5-1.5V175.847a1.5,1.5,0,0,0-1.5-1.5H41a1.5,1.5,0,0,0-1.5,1.5v27.334A1.5,1.5,0,0,0,41,204.681Zm1.5-27.334H66.833v24.334H42.5Z" fill="#3f3679"/><path d="M77.667,204.681H105a1.5,1.5,0,0,0,1.5-1.5V175.847a1.5,1.5,0,0,0-1.5-1.5H77.667a1.5,1.5,0,0,0-1.5,1.5v27.334A1.5,1.5,0,0,0,77.667,204.681Zm1.5-27.334H103.5v24.334H79.167Z" fill="#3f3679"/><path d="M114.333,204.681h27.334a1.5,1.5,0,0,0,1.5-1.5V175.847a1.5,1.5,0,0,0-1.5-1.5H114.333a1.5,1.5,0,0,0-1.5,1.5v27.334A1.5,1.5,0,0,0,114.333,204.681Zm1.5-27.334h24.334v24.334H115.833Z" fill="#3f3679"/><path d="M151,204.681h27.333a1.5,1.5,0,0,0,1.5-1.5V175.847a1.5,1.5,0,0,0-1.5-1.5H151a1.5,1.5,0,0,0-1.5,1.5v27.334A1.5,1.5,0,0,0,151,204.681Zm1.5-27.334h24.333v24.334H152.5Z" fill="#3f3679"/><path d="M187.667,204.681H215a1.5,1.5,0,0,0,1.5-1.5V175.847a1.5,1.5,0,0,0-1.5-1.5H187.667a1.5,1.5,0,0,0-1.5,1.5v27.334A1.5,1.5,0,0,0,187.667,204.681Zm1.5-27.334H213.5v24.334H189.167Z" fill="#3f3679"/><path d="M41,32.889H68.333a1.5,1.5,0,0,0,1.5-1.5V19.639a1.5,1.5,0,0,0-1.5-1.5H41a1.5,1.5,0,0,0-1.5,1.5v11.75A1.5,1.5,0,0,0,41,32.889Zm1.5-11.75H66.833v8.75H42.5Z" fill="#3f3679"/><path d="M77.667,32.889H105a1.5,1.5,0,0,0,1.5-1.5V19.639a1.5,1.5,0,0,0-1.5-1.5H77.667a1.5,1.5,0,0,0-1.5,1.5v11.75A1.5,1.5,0,0,0,77.667,32.889Zm1.5-11.75H103.5v8.75H79.167Z" fill="#3f3679"/><path d="M114.333,32.889h27.334a1.5,1.5,0,0,0,1.5-1.5V19.639a1.5,1.5,0,0,0-1.5-1.5H114.333a1.5,1.5,0,0,0-1.5,1.5v11.75A1.5,1.5,0,0,0,114.333,32.889Zm1.5-11.75h24.334v8.75H115.833Z" fill="#3f3679"/><path d="M151,32.889h27.333a1.5,1.5,0,0,0,1.5-1.5V19.639a1.5,1.5,0,0,0-1.5-1.5H151a1.5,1.5,0,0,0-1.5,1.5v11.75A1.5,1.5,0,0,0,151,32.889Zm1.5-11.75h24.333v8.75H152.5Z" fill="#3f3679"/><path d="M224.734,70.681h11.75a1.5,1.5,0,0,0,1.5-1.5V41.847a1.5,1.5,0,0,0-1.5-1.5h-11.75a1.5,1.5,0,0,0-1.5,1.5V69.181A1.5,1.5,0,0,0,224.734,70.681Zm1.5-27.334h8.75V67.681h-8.75Z" fill="#3f3679"/><path d="M224.734,115.347h11.75a1.5,1.5,0,0,0,1.5-1.5V86.514a1.5,1.5,0,0,0-1.5-1.5h-11.75a1.5,1.5,0,0,0-1.5,1.5v27.333A1.5,1.5,0,0,0,224.734,115.347Zm1.5-27.333h8.75v24.333h-8.75Z" fill="#3f3679"/><path d="M224.734,160.014h11.75a1.5,1.5,0,0,0,1.5-1.5V131.181a1.5,1.5,0,0,0-1.5-1.5h-11.75a1.5,1.5,0,0,0-1.5,1.5v27.333A1.5,1.5,0,0,0,224.734,160.014Zm1.5-27.333h8.75v24.333h-8.75Z" fill="#3f3679"/><path d="M224.734,204.681h11.75a1.5,1.5,0,0,0,1.5-1.5V175.847a1.5,1.5,0,0,0-1.5-1.5h-11.75a1.5,1.5,0,0,0-1.5,1.5v27.334A1.5,1.5,0,0,0,224.734,204.681Zm1.5-27.334h8.75v24.334h-8.75Z" fill="#3f3679"/><path d="M19.516,70.681h11.75a1.5,1.5,0,0,0,1.5-1.5V41.847a1.5,1.5,0,0,0-1.5-1.5H19.516a1.5,1.5,0,0,0-1.5,1.5V69.181A1.5,1.5,0,0,0,19.516,70.681Zm1.5-27.334h8.75V67.681h-8.75Z" fill="#3f3679"/><path d="M19.516,115.347h11.75a1.5,1.5,0,0,0,1.5-1.5V86.514a1.5,1.5,0,0,0-1.5-1.5H19.516a1.5,1.5,0,0,0-1.5,1.5v27.333A1.5,1.5,0,0,0,19.516,115.347Zm1.5-27.333h8.75v24.333h-8.75Z" fill="#3f3679"/><path d="M19.516,160.014h11.75a1.5,1.5,0,0,0,1.5-1.5V131.181a1.5,1.5,0,0,0-1.5-1.5H19.516a1.5,1.5,0,0,0-1.5,1.5v27.333A1.5,1.5,0,0,0,19.516,160.014Zm1.5-27.333h8.75v24.333h-8.75Z" fill="#3f3679"/><path d="M19.516,204.681h11.75a1.5,1.5,0,0,0,1.5-1.5V175.847a1.5,1.5,0,0,0-1.5-1.5H19.516a1.5,1.5,0,0,0-1.5,1.5v27.334A1.5,1.5,0,0,0,19.516,204.681Zm1.5-27.334h8.75v24.334h-8.75Z" fill="#3f3679"/><path d="M187.667,32.889H215a1.5,1.5,0,0,0,1.5-1.5V19.639a1.5,1.5,0,0,0-1.5-1.5H187.667a1.5,1.5,0,0,0-1.5,1.5v11.75A1.5,1.5,0,0,0,187.667,32.889Zm1.5-11.75H213.5v8.75H189.167Z" fill="#3f3679"/><path d="M27.323,234.861h-18a1.5,1.5,0,0,0,0,3h18a1.5,1.5,0,1,0,0-3Z" fill="#3f3679"/><path d="M246.68,234.861h-18a1.5,1.5,0,0,0,0,3h18a1.5,1.5,0,0,0,0-3Z" fill="#3f3679"/><path d="M218.479,234.861H37.521a1.5,1.5,0,0,0,0,3H218.479a1.5,1.5,0,0,0,0-3Z" fill="#3f3679"/><path d="M9.32,226.889H246.68a1.5,1.5,0,0,0,0-3H216.5v-10.25a1.5,1.5,0,0,0-1.5-1.5H187.667a1.5,1.5,0,0,0-1.5,1.5v10.25h-6.334v-10.25a1.5,1.5,0,0,0-1.5-1.5H151a1.5,1.5,0,0,0-1.5,1.5v10.25h-6.333v-10.25a1.5,1.5,0,0,0-1.5-1.5H114.333a1.5,1.5,0,0,0-1.5,1.5v10.25H106.5v-10.25a1.5,1.5,0,0,0-1.5-1.5H77.667a1.5,1.5,0,0,0-1.5,1.5v10.25H69.833v-10.25a1.5,1.5,0,0,0-1.5-1.5H41a1.5,1.5,0,0,0-1.5,1.5v10.25H9.32a1.5,1.5,0,0,0,0,3Zm179.847-11.75H213.5v8.75H189.167Zm-36.667,0h24.333v8.75H152.5Zm-36.667,0h24.334v8.75H115.833Zm-36.666,0H103.5v8.75H79.167Zm-36.667,0H66.833v8.75H42.5Z" fill="#3f3679"/></svg>