<?xml version="1.0" encoding="utf-8"?>
<!-- Generator: Adobe Illustrator 22.1.0, SVG Export Plug-In . SVG Version: 6.00 Build 0)  -->
<svg version="1.1" id="Layer_1" xmlns="http://www.w3.org/2000/svg" xmlns:xlink="http://www.w3.org/1999/xlink" x="0px" y="0px"
	 viewBox="0 0 256 256" style="enable-background:new 0 0 256 256;" xml:space="preserve">
<style type="text/css">
	.st0{fill:#FCC24C;}
	.st1{fill:#FCE06A;}
	.st2{fill:#DEA42E;}
	.st3{fill:#690589;}
	.st4{fill:#7BAC51;}
	.st5{fill:#5D8E33;}
	.st6{fill:#99CA6F;}
	.st7{fill:#F4EFED;}
	.st8{fill:#FF4397;}
	.st9{fill:#D6D1CF;}
	.st10{fill:#FFFFFF;}
	.st11{fill:#FF9F70;}
	.st12{fill:#FFBD8E;}
	.st13{fill:#E18152;}
	.st14{fill:#E12579;}
	.st15{fill:#FF61B5;}
</style>
<g>
	<g>
		<path class="st4" d="M180.695,225.786H75.305C35.924,225.786,4,193.862,4,154.482v0c0-39.381,31.924-71.305,71.305-71.305h105.39
			c39.381,0,71.305,31.924,71.305,71.305v0C252,193.862,220.076,225.786,180.695,225.786z"/>
	</g>
	<g>
		<path class="st6" d="M75.305,225.787h10C45.924,225.787,14,193.862,14,154.482v0c0-39.381,31.924-71.305,71.305-71.305h-10
			C35.924,83.177,4,115.101,4,154.482v0C4,193.862,35.924,225.787,75.305,225.787z"/>
	</g>
	<g>
		<path class="st5" d="M180.695,83.177h-10c39.381,0,71.305,31.924,71.305,71.305v0c0,39.381-31.924,71.305-71.305,71.305h10
			c39.381,0,71.305-31.924,71.305-71.305v0C252,115.101,220.076,83.177,180.695,83.177z"/>
	</g>
	<g>
		<path class="st7" d="M13.334,119.227l218.34,85.089c4.257-4.355,7.955-9.253,10.992-14.58l-218.34-85.089
			C20.069,109.002,16.371,113.9,13.334,119.227z"/>
	</g>
	<g>
		<path class="st9" d="M234.396,186.513c-2.726,5.411-6.119,10.424-10.075,14.937l7.353,2.866c0.001-0.001,0.001-0.001,0.002-0.002
			c0.979-1.002,1.925-2.035,2.844-3.093c0.129-0.148,0.258-0.295,0.385-0.444c1.406-1.646,2.74-3.357,3.993-5.128
			c0.041-0.058,0.082-0.115,0.123-0.172c1.302-1.851,2.519-3.766,3.645-5.74c0,0,0,0,0,0L234.396,186.513z"/>
	</g>
	<g>
		<path class="st7" d="M4,154.482L4,154.482c0,2.978,0.204,5.906,0.558,8.788h246.883c0.355-2.882,0.558-5.81,0.558-8.788v0
			c0-2.978-0.204-5.906-0.558-8.788H4.558C4.204,148.575,4,151.504,4,154.482z"/>
	</g>
	<g>
		<path class="st9" d="M251.924,151.475c-0.019-0.42-0.036-0.841-0.062-1.26c-0.024-0.413-0.062-0.821-0.094-1.232
			c-0.088-1.102-0.193-2.2-0.326-3.289c0,0,0-0.001,0-0.001h-10c0.355,2.882,0.558,5.81,0.558,8.788v0
			c0,2.978-0.204,5.906-0.558,8.788h10c0,0,0-0.001,0-0.001c0.134-1.089,0.238-2.187,0.326-3.289
			c0.031-0.411,0.069-0.819,0.094-1.232c0.026-0.418,0.043-0.839,0.062-1.26c0.042-0.998,0.076-1.998,0.076-3.007v0
			C252,153.473,251.965,152.473,251.924,151.475z"/>
	</g>
	<g>
		<path class="st7" d="M24.326,204.316l218.34-85.089c-3.037-5.327-6.735-10.226-10.992-14.58l-218.34,85.089
			C16.371,195.063,20.069,199.961,24.326,204.316z"/>
	</g>
	<g>
		<path class="st9" d="M242.666,119.227c-1.126-1.974-2.343-3.889-3.645-5.74c-0.04-0.058-0.082-0.115-0.122-0.172
			c-1.254-1.772-2.588-3.483-3.995-5.13c-0.126-0.148-0.254-0.294-0.381-0.44c-0.92-1.059-1.867-2.094-2.848-3.097l-7.353,2.866
			c3.956,4.513,7.349,9.526,10.075,14.937L242.666,119.227C242.666,119.227,242.666,119.227,242.666,119.227z"/>
	</g>
	<g>
		<path class="st10" d="M21.604,186.513c2.726,5.411,6.119,10.424,10.075,14.937l-7.353,2.866c-0.001-0.001-0.001-0.001-0.002-0.002
			c-0.979-1.002-1.925-2.035-2.844-3.093c-0.129-0.148-0.258-0.295-0.385-0.444c-1.406-1.646-2.74-3.357-3.993-5.128
			c-0.041-0.058-0.082-0.115-0.123-0.172c-1.302-1.851-2.519-3.766-3.645-5.74c0,0,0,0,0,0L21.604,186.513z"/>
	</g>
	<g>
		<path class="st10" d="M4.076,151.475c0.019-0.42,0.036-0.841,0.062-1.26c0.024-0.413,0.062-0.821,0.094-1.232
			c0.088-1.102,0.193-2.2,0.326-3.289c0,0,0-0.001,0-0.001h10c-0.354,2.882-0.558,5.81-0.558,8.788v0
			c0,2.978,0.204,5.906,0.558,8.788h-10c0,0,0-0.001,0-0.001c-0.134-1.089-0.238-2.187-0.326-3.289
			c-0.031-0.411-0.069-0.819-0.094-1.232c-0.026-0.418-0.043-0.839-0.062-1.26C4.035,156.49,4,155.49,4,154.482v0
			C4,153.473,4.035,152.473,4.076,151.475z"/>
	</g>
	<g>
		<path class="st10" d="M13.334,119.227c1.126-1.974,2.343-3.889,3.645-5.74c0.041-0.058,0.082-0.115,0.122-0.172
			c1.254-1.772,2.588-3.483,3.995-5.13c0.126-0.148,0.254-0.294,0.381-0.44c0.92-1.059,1.867-2.094,2.848-3.097l7.353,2.866
			c-3.956,4.513-7.349,9.526-10.075,14.937L13.334,119.227C13.334,119.227,13.334,119.227,13.334,119.227z"/>
	</g>
	<g>
		<path class="st3" d="M180.695,227.787H75.305C34.884,227.787,2,194.902,2,154.481c0-40.42,32.884-73.305,73.305-73.305h105.391
			c40.42,0,73.305,32.884,73.305,73.305C254,194.902,221.116,227.787,180.695,227.787z M75.305,85.177
			C37.09,85.177,6,116.267,6,154.481c0,38.215,31.09,69.305,69.305,69.305h105.391c38.215,0,69.305-31.09,69.305-69.305
			c0-38.215-31.09-69.305-69.305-69.305H75.305z"/>
	</g>
	<g>
		<rect x="119.212" y="98.13" class="st7" width="17.576" height="127.657"/>
	</g>
	<g>
		<path class="st3" d="M136.788,227.787h-17.576c-1.104,0-2-0.896-2-2V98.129c0-1.104,0.896-2,2-2h17.576c1.104,0,2,0.896,2,2
			v127.657C138.788,226.891,137.893,227.787,136.788,227.787z M121.212,223.787h13.576V100.129h-13.576V223.787z"/>
	</g>
	<g>
		<path class="st3" d="M24.327,206.316c-0.529,0-1.047-0.21-1.431-0.602c-4.385-4.485-8.186-9.527-11.299-14.987
			c-0.288-0.505-0.342-1.111-0.148-1.659c0.194-0.548,0.617-0.984,1.159-1.195l218.34-85.088c0.746-0.293,1.595-0.108,2.156,0.465
			c4.385,4.484,8.186,9.527,11.299,14.987c0.288,0.505,0.342,1.111,0.148,1.659c-0.194,0.548-0.617,0.984-1.159,1.195
			l-218.34,85.089C24.816,206.271,24.57,206.316,24.327,206.316z M16.255,190.744c2.476,4.024,5.356,7.788,8.589,11.224
			l214.9-83.748c-2.476-4.025-5.356-7.788-8.589-11.223L16.255,190.744z"/>
	</g>
	<g>
		<path class="st3" d="M251.441,165.27H4.559c-1.01,0-1.862-0.753-1.985-1.756C2.188,160.376,2,157.422,2,154.481
			c0-2.94,0.188-5.895,0.574-9.032c0.123-1.002,0.975-1.756,1.985-1.756h246.883c1.01,0,1.862,0.753,1.985,1.756
			c0.386,3.138,0.574,6.092,0.574,9.032c0,2.941-0.188,5.895-0.574,9.032C253.303,164.516,252.452,165.27,251.441,165.27z
			 M6.348,161.27h243.305c0.233-2.33,0.348-4.565,0.348-6.788c0-2.223-0.114-4.458-0.348-6.788H6.348
			C6.114,150.023,6,152.258,6,154.481C6,156.705,6.114,158.939,6.348,161.27z"/>
	</g>
	<g>
		<path class="st3" d="M231.673,206.316c-0.244,0-0.49-0.044-0.725-0.137L12.608,121.09c-0.542-0.211-0.965-0.647-1.159-1.195
			c-0.194-0.548-0.14-1.153,0.148-1.659c3.113-5.46,6.915-10.503,11.299-14.987c0.561-0.573,1.409-0.756,2.156-0.465l218.34,85.088
			c0.542,0.211,0.965,0.647,1.159,1.195c0.194,0.548,0.14,1.153-0.148,1.659c-3.113,5.46-6.914,10.502-11.299,14.987
			C232.72,206.106,232.202,206.316,231.673,206.316z M16.255,118.219l214.9,83.748c3.233-3.436,6.113-7.199,8.589-11.224
			l-214.9-83.748C21.611,110.431,18.731,114.194,16.255,118.219z"/>
	</g>
	<g>
		<path class="st0" d="M179.645,210.833H76.355c-31.122,0-56.352-25.23-56.352-56.352v0c0-31.122,25.23-56.352,56.352-56.352
			h103.289c31.122,0,56.352,25.23,56.352,56.352v0C235.996,185.604,210.767,210.833,179.645,210.833z"/>
	</g>
	<g>
		<path class="st7" d="M137.856,126.456h-19.711c-15.644,0-28.326-12.682-28.326-28.326v0h76.363v0
			C166.182,113.774,153.5,126.456,137.856,126.456z"/>
	</g>
	<g>
		<path class="st3" d="M179.645,212.833H76.355c-32.175,0-58.352-26.177-58.352-58.352c0-32.175,26.177-58.352,58.352-58.352
			h103.289c32.175,0,58.352,26.177,58.352,58.352C237.997,186.657,211.82,212.833,179.645,212.833z M76.355,100.129
			c-29.97,0-54.352,24.382-54.352,54.352c0,29.97,24.382,54.352,54.352,54.352h103.289c29.97,0,54.352-24.382,54.352-54.352
			c0-29.97-24.382-54.352-54.352-54.352H76.355z"/>
	</g>
	<g>
		<path class="st3" d="M39.315,126.03c-0.35,0-0.705-0.092-1.028-0.286c-0.947-0.569-1.253-1.797-0.684-2.745
			c2.312-3.847,5.573-6.872,9.185-8.519c1.002-0.458,2.191-0.016,2.649,0.99c0.458,1.005,0.015,2.191-0.99,2.649
			c-2.841,1.295-5.543,3.824-7.415,6.939C40.656,125.684,39.994,126.03,39.315,126.03z"/>
	</g>
	<g>
		<path class="st3" d="M137.855,128.456h-19.711c-16.722,0-30.326-13.604-30.326-30.326c0-1.104,0.896-2,2-2l76.363,0
			c0.53,0,1.039,0.211,1.414,0.586s0.586,0.884,0.586,1.414C168.182,114.851,154.577,128.456,137.855,128.456z M91.894,100.129
			c1.025,13.586,12.407,24.326,26.25,24.326h19.711c13.844,0,25.226-10.74,26.251-24.326L91.894,100.129z"/>
	</g>
	<g>
		<path class="st8" d="M76.887,149.971c-0.994-0.155-1.959-0.124-2.869,0.062c1.433-1.642,2.208-3.873,1.885-6.288
			c-0.473-3.543-3.393-6.395-6.945-6.789c-4.782-0.531-8.83,3.199-8.83,7.873c0,1.994,0.742,3.811,1.958,5.204
			c-0.909-0.186-1.875-0.217-2.869-0.062c-3.469,0.54-6.225,3.447-6.604,6.937c-0.519,4.774,3.207,8.811,7.875,8.811
			c1.362,0,2.643-0.346,3.762-0.953c0.386-0.209,0.829,0.174,0.7,0.593l-2.061,6.698h4.819h0.688h4.819l-2.061-6.698
			c-0.129-0.42,0.314-0.803,0.7-0.593c1.119,0.607,2.399,0.953,3.761,0.953c4.669,0,8.394-4.037,7.875-8.811
			C83.113,153.418,80.356,150.511,76.887,149.971z"/>
	</g>
	<g>
		<path class="st8" d="M110.147,142.947l-1.221-1.221c-3.741-3.741-9.807-3.741-13.549,0h0c-3.741,3.741-3.741,9.807,0,13.549
			l14.77,14.77l14.77-14.77c3.741-3.741,3.741-9.807,0-13.549h0c-3.741-3.741-9.807-3.741-13.549,0L110.147,142.947z"/>
	</g>
	<g>
		<polygon class="st8" points="148.901,172.058 136.753,154.482 148.901,136.906 161.049,154.482 		"/>
	</g>
	<g>
		<path class="st8" d="M192.032,172.058l-2.078-6.755c3.455,1.909,7.887,1.405,10.818-1.526l0,0c3.55-3.55,3.55-9.306,0-12.856
			l-14.015-14.015l-14.015,14.015c-3.55,3.55-3.55,9.306,0,12.856c2.931,2.931,7.363,3.435,10.818,1.526l-2.079,6.755H192.032z"/>
	</g>
	<g>
		<path class="st3" d="M73.216,174.058H62.89c-0.635,0-1.232-0.301-1.609-0.812c-0.377-0.51-0.489-1.169-0.303-1.776l1.199-3.895
			c-3.319,0.574-6.816-0.635-9.076-3.153c-1.879-2.095-2.782-4.912-2.476-7.729c0.465-4.283,3.827-7.885,8.039-8.656
			c-0.352-1.025-0.535-2.108-0.535-3.207c0-2.819,1.206-5.515,3.307-7.396c2.1-1.88,4.924-2.779,7.743-2.465
			c4.452,0.494,8.114,4.073,8.706,8.512c0.207,1.552,0.046,3.11-0.449,4.556c4.214,0.771,7.578,4.373,8.043,8.657
			c0.306,2.817-0.596,5.634-2.475,7.729c-2.259,2.518-5.756,3.728-9.076,3.153l1.199,3.895c0.187,0.607,0.074,1.266-0.303,1.776
			C74.448,173.756,73.851,174.058,73.216,174.058z M65.598,170.058h4.911l-1.265-4.109c-0.301-0.976,0.017-2.026,0.809-2.675
			c0.786-0.643,1.868-0.747,2.756-0.265c0.87,0.472,1.814,0.711,2.808,0.711c1.68,0,3.288-0.718,4.411-1.97
			c1.138-1.268,1.662-2.911,1.476-4.625c-0.282-2.6-2.353-4.777-4.924-5.178l0,0c-0.73-0.114-1.457-0.099-2.159,0.045
			c-0.838,0.172-1.697-0.211-2.129-0.953c-0.432-0.742-0.343-1.676,0.221-2.322c1.14-1.306,1.641-2.978,1.409-4.708
			c-0.353-2.641-2.532-4.771-5.183-5.065c-1.711-0.189-3.362,0.331-4.634,1.47c-1.255,1.123-1.975,2.733-1.975,4.415
			c0,1.426,0.52,2.807,1.464,3.888c0.564,0.646,0.654,1.581,0.222,2.322c-0.432,0.741-1.293,1.122-2.129,0.953
			c-0.703-0.144-1.429-0.16-2.16-0.045c-2.57,0.401-4.641,2.578-4.924,5.178c-0.186,1.714,0.338,3.357,1.476,4.625
			c1.124,1.252,2.731,1.97,4.411,1.97c0.994,0,1.938-0.239,2.809-0.711c0.888-0.481,1.969-0.377,2.754,0.264
			c0.792,0.648,1.11,1.698,0.811,2.674L65.598,170.058z"/>
	</g>
	<g>
		<path class="st3" d="M110.146,172.044c-0.512,0-1.024-0.195-1.414-0.586l-14.77-14.77c-4.515-4.515-4.515-11.861-0.001-16.377
			c4.453-4.452,11.655-4.514,16.185-0.188c4.529-4.326,11.733-4.263,16.184,0.188c2.188,2.188,3.392,5.095,3.392,8.188
			c0,3.093-1.205,6.002-3.392,8.189l-14.77,14.77C111.17,171.849,110.658,172.044,110.146,172.044z M102.151,140.923
			c-1.941,0-3.883,0.739-5.361,2.216c-2.955,2.956-2.955,7.765,0,10.721l13.356,13.355l13.356-13.355
			c1.432-1.432,2.22-3.335,2.22-5.36c0-2.024-0.789-3.928-2.22-5.36c-2.956-2.956-7.764-2.955-10.72,0l-1.222,1.222
			c-0.375,0.375-0.884,0.586-1.414,0.586l0,0c-0.531,0-1.04-0.211-1.415-0.586l-1.221-1.222
			C106.033,141.662,104.092,140.923,102.151,140.923z"/>
	</g>
	<g>
		<path class="st3" d="M148.901,174.058c-0.657,0-1.272-0.323-1.645-0.863l-12.148-17.576c-0.473-0.685-0.473-1.59,0-2.275
			l12.148-17.576c0.374-0.54,0.989-0.863,1.645-0.863c0.657,0,1.272,0.323,1.646,0.863l12.148,17.576
			c0.473,0.685,0.473,1.59,0,2.275l-12.148,17.576C150.173,173.735,149.558,174.058,148.901,174.058z M139.184,154.481l9.717,14.059
			l9.717-14.059l-9.717-14.059L139.184,154.481z"/>
	</g>
	<g>
		<path class="st3" d="M192.032,174.058h-10.55c-0.635,0-1.232-0.301-1.609-0.812c-0.377-0.51-0.489-1.169-0.303-1.776l0.962-3.125
			c-3.32,0.401-6.75-0.699-9.204-3.153c-4.324-4.324-4.324-11.36-0.001-15.684l14.016-14.015c0.78-0.781,2.048-0.781,2.828,0
			l14.015,14.015c4.324,4.324,4.324,11.36,0,15.684c-2.455,2.454-5.888,3.554-9.205,3.153l0.962,3.126
			c0.186,0.607,0.074,1.266-0.303,1.776C193.263,173.756,192.667,174.058,192.032,174.058z M184.189,170.058h5.134l-1.282-4.167
			c-0.24-0.779,0.018-1.626,0.65-2.14c0.632-0.515,1.514-0.594,2.229-0.198c2.748,1.517,6.218,1.029,8.437-1.19
			c2.764-2.765,2.764-7.263,0-10.028l-12.601-12.601l-12.601,12.601c-2.764,2.765-2.764,7.263,0,10.028
			c2.219,2.218,5.688,2.707,8.437,1.19c0.714-0.395,1.595-0.316,2.229,0.198c0.633,0.514,0.89,1.361,0.65,2.141L184.189,170.058z"/>
	</g>
	<g>
		<path class="st7" d="M142.747,64.25h-3.402h-6.113c0.006-0.098,0.015-0.195,0.015-0.294v-9.574h-10.495v9.574
			c0,0.099,0.009,0.196,0.015,0.294h-6.113h-3.402c-3.675,0-6.654,2.979-6.654,6.654v12.272h42.801V70.904
			C149.401,67.229,146.422,64.25,142.747,64.25z"/>
	</g>
	<g>
		<g>
			<path class="st9" d="M142.747,64.25h-3.402h-1.973c3.675,0,6.654,2.979,6.654,6.654v12.272h5.375V70.904
				C149.401,67.229,146.422,64.25,142.747,64.25z"/>
		</g>
	</g>
	<g>
		<g>
			<path class="st9" d="M113.253,64.25h3.402h1.973c-3.675,0-6.654,2.979-6.654,6.654v12.272h-5.375V70.904
				C106.599,67.229,109.578,64.25,113.253,64.25z"/>
		</g>
	</g>
	<g>
		<path class="st13" d="M133.238,64.228l0.01-9.845h-10.495l0.01,9.845c0.003,2.891,2.347,5.232,5.238,5.232l0,0
			C130.891,69.46,133.235,67.118,133.238,64.228z"/>
	</g>
	<g>
		<path class="st3" d="M149.401,85.177h-42.802c-1.104,0-2-0.896-2-2V70.904c0-4.771,3.882-8.654,8.654-8.654h7.499v-7.868
			c0-1.104,0.896-2,2-2h10.495c1.104,0,2,0.896,2,2v7.868h7.499c4.772,0,8.654,3.882,8.654,8.654v12.273
			C151.401,84.281,150.505,85.177,149.401,85.177z M108.599,81.177h38.802V70.904c0-2.566-2.088-4.654-4.654-4.654h-9.514
			c-0.549,0-1.075-0.226-1.452-0.625c-0.378-0.399-0.575-0.936-0.545-1.484c0-0.008,0.006-0.104,0.007-0.111l0.004-7.647h-6.494
			v7.574c0,0.009,0.012,0.175,0.012,0.185c0.03,0.549-0.167,1.086-0.545,1.484c-0.377,0.399-0.903,0.625-1.452,0.625h-9.514
			c-2.566,0-4.654,2.088-4.654,4.654V81.177z"/>
	</g>
	<g>
		<path class="st3" d="M128,71.46c-3.986,0-7.233-3.243-7.238-7.23l-0.01-9.846c0-0.531,0.21-1.04,0.585-1.416
			c0.375-0.375,0.884-0.586,1.415-0.586h10.495c0.531,0,1.04,0.211,1.415,0.586c0.375,0.375,0.586,0.885,0.585,1.416l-0.01,9.845
			C135.234,68.216,131.987,71.46,128,71.46z M124.754,56.382l0.008,7.843c0.002,1.783,1.455,3.234,3.238,3.234
			c1.784,0,3.236-1.451,3.237-3.234c0,0,0,0,0,0l0.008-7.843H124.754z"/>
	</g>
	<g>
		<path class="st11" d="M128,61.154L128,61.154c-6.266,0-11.345-5.145-11.345-11.492v-7.956c0-6.347,5.079-11.492,11.345-11.492l0,0
			c6.266,0,11.345,5.145,11.345,11.492v7.956C139.345,56.009,134.266,61.154,128,61.154z"/>
	</g>
	<g>
		<path class="st3" d="M128,63.154c-7.358,0-13.345-6.053-13.345-13.493v-7.956c0-7.439,5.987-13.492,13.345-13.492
			s13.345,6.053,13.345,13.492v7.956C141.345,57.102,135.358,63.154,128,63.154z M128,32.213c-5.153,0-9.345,4.258-9.345,9.492
			v7.956c0,5.234,4.192,9.493,9.345,9.493c5.153,0,9.345-4.258,9.345-9.493v-7.956C137.345,36.472,133.153,32.213,128,32.213z"/>
	</g>
	<g>
		<path class="st3" d="M116.237,85.177c-1.104,0-2-0.896-2-2V65.251c0-1.104,0.896-2,2-2c1.104,0,2,0.896,2,2v17.926
			C118.237,84.281,117.341,85.177,116.237,85.177z"/>
	</g>
	<g>
		<path class="st3" d="M139.763,85.177c-1.104,0-2-0.896-2-2V65.251c0-1.104,0.896-2,2-2c1.105,0,2,0.896,2,2v17.926
			C141.763,84.281,140.868,85.177,139.763,85.177z"/>
	</g>
</g>
</svg>
