<?xml version="1.0" encoding="utf-8"?>
<!-- Generator: Adobe Illustrator 22.1.0, SVG Export Plug-In . SVG Version: 6.00 Build 0)  -->
<svg version="1.1" id="Layer_1" xmlns="http://www.w3.org/2000/svg" xmlns:xlink="http://www.w3.org/1999/xlink" x="0px" y="0px"
	 viewBox="0 0 256 256" style="enable-background:new 0 0 256 256;" xml:space="preserve">
<style type="text/css">
	.st0{fill:#FCC24C;}
	.st1{fill:#FCE06A;}
	.st2{fill:#DEA42E;}
	.st3{fill:#690589;}
	.st4{fill:#7BAC51;}
	.st5{fill:#5D8E33;}
	.st6{fill:#99CA6F;}
	.st7{fill:#F4EFED;}
	.st8{fill:#FF4397;}
	.st9{fill:#D6D1CF;}
	.st10{fill:#FFFFFF;}
	.st11{fill:#FF9F70;}
	.st12{fill:#FFBD8E;}
	.st13{fill:#E18152;}
	.st14{fill:#E12579;}
	.st15{fill:#FF61B5;}
</style>
<g>
	<g>
		<path class="st4" d="M96.826,34.738L63.904,67.66c-2.097,2.096-2.097,5.496,0,7.592l23.214,23.214l40.515-40.515l-23.214-23.214
			C102.322,32.642,98.923,32.642,96.826,34.738z"/>
	</g>
	<g>
		<path class="st3" d="M87.117,100.466c-0.53,0-1.039-0.211-1.414-0.586L62.49,76.667c-1.392-1.392-2.158-3.242-2.158-5.211
			c0-1.968,0.767-3.819,2.158-5.21l32.922-32.922c2.873-2.873,7.547-2.873,10.42,0l23.214,23.213
			c0.375,0.375,0.586,0.884,0.586,1.414c0,0.53-0.211,1.039-0.586,1.414L88.531,99.88C88.156,100.255,87.647,100.466,87.117,100.466
			z M100.622,35.166c-0.899,0-1.745,0.35-2.382,0.986L65.318,69.074c-1.313,1.313-1.313,3.451,0,4.765l21.799,21.799l37.687-37.686
			l-21.8-21.799C102.367,35.516,101.521,35.166,100.622,35.166z"/>
	</g>
	<g>
		<path class="st3" d="M26.546,116.45c-0.512,0-1.023-0.195-1.414-0.586c-0.781-0.781-0.781-2.047,0-2.828l15.593-15.593
			c1.515-1.515,2.349-3.529,2.349-5.671c0-2.143-0.834-4.156-2.349-5.671l-8.347-8.347c-9.289-9.289-9.289-24.403,0-33.692
			l4.993-4.993c4.499-4.5,10.482-6.978,16.846-6.978s12.347,2.478,16.846,6.978l10.717,10.716c0.781,0.781,0.781,2.047,0,2.828
			c-0.781,0.781-2.047,0.781-2.828,0L68.234,41.897c-3.744-3.744-8.723-5.806-14.018-5.806s-10.273,2.062-14.018,5.806l-4.993,4.993
			c-7.729,7.729-7.729,20.306,0,28.036l8.347,8.347c4.687,4.687,4.687,12.312,0,16.999L27.96,115.864
			C27.569,116.255,27.058,116.45,26.546,116.45z"/>
	</g>
	<g>
		<circle class="st4" cx="158.628" cy="129.462" r="93.372"/>
	</g>
	<g>
		<path class="st6" d="M102.603,195.486c-36.464-36.464-36.464-95.584,0-132.048c16.96-16.96,38.821-26.021,61.024-27.204
			c-25.534-1.361-51.52,7.7-71.024,27.204c-36.464,36.464-36.464,95.584,0,132.048c19.504,19.504,45.49,28.565,71.024,27.204
			C141.425,221.507,119.563,212.446,102.603,195.486z"/>
	</g>
	<g>
		<path class="st5" d="M214.652,63.438c36.464,36.464,36.464,95.584,0,132.048c-16.96,16.96-38.821,26.021-61.024,27.204
			c25.534,1.361,51.52-7.7,71.024-27.204c36.464-36.464,36.464-95.584,0-132.048c-19.504-19.504-45.49-28.565-71.024-27.204
			C175.831,37.417,197.692,46.478,214.652,63.438z"/>
	</g>
	<g>
		<g>
			<path class="st0" d="M123.045,92.257c1.947-1.947,5.031-1.948,6.978,0l1.785,1.785c5.356-4.219,10.955-6.735,17.04-8.114
				c2.028-0.569,4.382-0.487,6.33,1.46c2.515,2.515,2.434,6.492-0.081,9.007c-0.812,0.812-1.866,1.38-3.165,1.704
				c-4.544,1.135-8.52,2.677-11.928,4.787l15.579,15.579c15.417-9.25,25.642-9.574,34.324-0.892
				c8.925,8.925,7.87,21.828-1.461,33.106l4.868,4.869c1.947,1.947,1.947,5.03,0,6.978s-5.112,2.029-7.059,0.081l-5.031-5.031
				c-6.735,5.436-14.524,8.845-22.963,10.306c-2.272,0.487-4.381,0-6.085-1.704c-2.515-2.515-2.515-6.41,0-8.925
				c0.974-0.974,2.272-1.623,3.57-1.786c6.572-1.055,12.172-2.921,17.445-6.573l-15.984-15.984
				c-14.931,8.763-24.911,9.818-34.081,0.649c-8.682-8.682-7.79-21.584,1.542-32.538l-1.704-1.704
				C121.016,97.368,121.098,94.204,123.045,92.257z M147.469,123.172l-14.362-14.362c-4.707,5.68-4.544,11.035-0.974,14.606
				C135.541,126.823,139.192,127.392,147.469,123.172z M165.158,128.04l14.768,14.768c4.625-5.761,4.868-11.197,0.974-15.092
				C177.329,124.146,173.354,123.74,165.158,128.04z"/>
		</g>
	</g>
	<g>
		<g>
			<path class="st3" d="M156.613,170.07c-2.203,0-4.211-0.836-5.853-2.479c-3.295-3.295-3.295-8.458,0-11.753
				c1.28-1.281,3.007-2.14,4.735-2.356c5.812-0.934,10.407-2.481,14.526-4.928l-13.146-13.146
				c-15.727,8.904-25.985,8.745-35.164-0.436c-8.866-8.865-8.69-22.274,0.266-33.814l-0.428-0.429
				c-2.703-2.703-2.667-7.139,0.081-9.887l0,0c2.747-2.748,7.056-2.751,9.807-0.001l0.552,0.553
				c4.938-3.598,10.311-6.027,16.369-7.407c3.16-0.87,6.083-0.165,8.233,1.986c3.295,3.295,3.26,8.494-0.081,11.835
				c-1.069,1.069-2.447,1.819-4.096,2.23c-3.497,0.874-6.51,1.96-9.134,3.296l12.621,12.621c15.624-9.027,26.273-8.942,35.418,0.203
				c9.041,9.04,8.904,22.379-0.2,34.366l3.608,3.608c2.749,2.75,2.749,7.058,0,9.807c-2.748,2.749-7.186,2.785-9.888,0.081
				l-3.782-3.782c-6.566,4.936-14.112,8.168-22.457,9.613C157.926,169.998,157.261,170.07,156.613,170.07z M157.205,130.909
				c0.518,0,1.03,0.2,1.415,0.586l15.984,15.984c0.42,0.419,0.631,1.003,0.578,1.594c-0.054,0.59-0.366,1.127-0.854,1.464
				c-5.162,3.575-10.796,5.704-18.267,6.903c-0.92,0.117-1.819,0.571-2.474,1.225c-1.737,1.738-1.737,4.359,0,6.097
				c1.149,1.148,2.538,1.531,4.253,1.163c8.352-1.448,15.77-4.775,22.126-9.906c0.794-0.642,1.945-0.582,2.67,0.142l5.031,5.031
				c1.144,1.143,3.042,1.108,4.232-0.082c1.163-1.163,1.163-2.986,0-4.15l-4.869-4.868c-0.729-0.729-0.784-1.895-0.127-2.689
				c8.939-10.804,9.547-22.459,1.588-30.417c-7.961-7.961-17.198-7.615-31.88,1.193c-0.787,0.474-1.795,0.348-2.443-0.301
				l-15.58-15.58c-0.433-0.432-0.643-1.038-0.572-1.645c0.07-0.607,0.414-1.148,0.934-1.47c3.471-2.148,7.558-3.792,12.495-5.027
				c0.949-0.237,1.681-0.622,2.237-1.178c1.755-1.755,1.79-4.469,0.081-6.178c-1.144-1.143-2.573-1.454-4.376-0.948
				c-0.032,0.009-0.065,0.017-0.098,0.025c-6.071,1.375-11.385,3.906-16.245,7.734c-0.795,0.628-1.935,0.56-2.652-0.157
				l-1.784-1.785c-1.163-1.164-2.986-1.162-4.149,0c-1.188,1.189-1.225,3.087-0.081,4.231l1.704,1.705
				c0.737,0.737,0.784,1.917,0.108,2.711c-8.797,10.325-9.444,22.033-1.65,29.827c8.094,8.093,16.674,7.833,31.653-0.96
				C156.509,130.999,156.858,130.909,157.205,130.909z M179.926,144.808c-0.529,0-1.038-0.21-1.414-0.586l-14.768-14.768
				c-0.45-0.45-0.659-1.086-0.563-1.715c0.096-0.629,0.485-1.175,1.048-1.47c8.52-4.472,13.592-4.462,18.085,0.032
				c4.664,4.664,4.354,11.303-0.828,17.758c-0.355,0.443-0.883,0.714-1.45,0.745C179.998,144.807,179.962,144.808,179.926,144.808z
				 M168.554,128.607l11.121,11.122c1.862-2.95,3.281-7.127-0.189-10.599C177.443,127.088,175.155,125.654,168.554,128.607z
				 M138.102,128.163c-2.841,0-5.16-1.11-7.384-3.333c-4.548-4.548-4.224-11.176,0.848-17.296c0.359-0.434,0.885-0.696,1.446-0.722
				c0.562-0.025,1.109,0.186,1.508,0.584l14.362,14.362c0.453,0.453,0.661,1.094,0.562,1.727c-0.101,0.632-0.497,1.179-1.067,1.469
				C144.184,127.092,140.892,128.163,138.102,128.163z M133.336,111.867c-2.482,3.867-2.435,7.488,0.211,10.134
				c2.016,2.016,4.137,3.34,10.503,0.58L133.336,111.867z"/>
		</g>
	</g>
	<g>
		<path class="st3" d="M158.628,224.79c-24.426,0-48.844-9.294-67.438-27.889c-18.014-18.013-27.935-41.963-27.935-67.439
			s9.921-49.425,27.935-67.438c37.186-37.186,97.691-37.186,134.877,0l0,0c37.186,37.186,37.186,97.691,0,134.877
			C207.476,215.491,183.048,224.79,158.628,224.79z M158.628,38.132c-23.398,0-46.797,8.907-64.61,26.719
			c-17.258,17.258-26.763,40.204-26.763,64.61c0,24.406,9.505,47.352,26.763,64.61c35.627,35.625,93.594,35.625,129.221,0
			c35.626-35.626,35.626-93.594,0-129.221C205.425,47.039,182.026,38.132,158.628,38.132z"/>
	</g>
	<g>
		<path class="st3" d="M73.518,129.956c-1.104,0-2-0.895-2-2c0-4.145,0.361-8.299,1.075-12.347c0.191-1.088,1.223-1.814,2.317-1.623
			c1.087,0.192,1.813,1.229,1.622,2.317c-0.673,3.819-1.015,7.74-1.015,11.653C75.518,129.06,74.622,129.956,73.518,129.956z"/>
	</g>
	<g>
		<polygon class="st8" points="26.546,103.177 37.819,94.925 36.309,108.814 49.092,114.45 36.309,120.087 37.819,133.976 
			26.546,125.723 15.273,133.976 16.783,120.087 4,114.45 16.783,108.814 15.273,94.925 		"/>
	</g>
	<g>
		<path class="st3" d="M15.273,135.976c-0.345,0-0.689-0.089-1-0.268c-0.687-0.396-1.074-1.16-0.988-1.948l1.351-12.434
			L3.193,116.28C2.468,115.96,2,115.243,2,114.45c0-0.793,0.468-1.51,1.193-1.83l11.443-5.046l-1.351-12.433
			c-0.086-0.788,0.302-1.552,0.988-1.948c0.686-0.395,1.541-0.351,2.182,0.118l10.091,7.388l10.092-7.388
			c0.641-0.469,1.495-0.514,2.182-0.118c0.687,0.396,1.074,1.16,0.988,1.948l-1.352,12.433l11.443,5.046
			c0.726,0.32,1.193,1.038,1.193,1.83c0,0.792-0.468,1.51-1.193,1.83l-11.443,5.045l1.352,12.434
			c0.086,0.788-0.302,1.552-0.988,1.948c-0.685,0.396-1.54,0.351-2.182-0.118l-10.092-7.388l-10.091,7.388
			C16.104,135.846,15.689,135.976,15.273,135.976z M26.546,123.723c0.415,0,0.83,0.129,1.182,0.386l7.613,5.573l-1.021-9.38
			c-0.095-0.867,0.384-1.695,1.182-2.046l8.633-3.806l-8.633-3.807c-0.798-0.352-1.276-1.18-1.182-2.046l1.021-9.379l-7.613,5.573
			c-0.703,0.515-1.66,0.515-2.363,0l-7.612-5.573l1.019,9.379c0.094,0.867-0.384,1.695-1.182,2.046l-8.633,3.807l8.633,3.806
			c0.798,0.352,1.275,1.18,1.182,2.046l-1.019,9.38l7.612-5.573C25.716,123.852,26.131,123.723,26.546,123.723z"/>
	</g>
</g>
</svg>
