<?xml version="1.0" encoding="utf-8"?>
<!-- Generator: Adobe Illustrator 22.1.0, SVG Export Plug-In . SVG Version: 6.00 Build 0)  -->
<svg version="1.1" id="Layer_1" xmlns="http://www.w3.org/2000/svg" xmlns:xlink="http://www.w3.org/1999/xlink" x="0px" y="0px"
	 viewBox="0 0 256 256" style="enable-background:new 0 0 256 256;" xml:space="preserve">
<style type="text/css">
	.st0{fill:#FCC24C;}
	.st1{fill:#FCE06A;}
	.st2{fill:#DEA42E;}
	.st3{fill:#690589;}
	.st4{fill:#7BAC51;}
	.st5{fill:#5D8E33;}
	.st6{fill:#99CA6F;}
	.st7{fill:#F4EFED;}
	.st8{fill:#FF4397;}
	.st9{fill:#D6D1CF;}
	.st10{fill:#FFFFFF;}
	.st11{fill:#FF9F70;}
	.st12{fill:#FFBD8E;}
	.st13{fill:#E18152;}
	.st14{fill:#E12579;}
	.st15{fill:#FF61B5;}
</style>
<g>
	<g>
		<rect x="22.507" y="73.054" class="st14" width="229.493" height="128.4"/>
	</g>
	<g>
		<path class="st3" d="M252,203.454H22.507c-1.104,0-2-0.895-2-2v-128.4c0-1.104,0.896-2,2-2H252c1.104,0,2,0.896,2,2v128.4
			C254,202.558,253.104,203.454,252,203.454z M24.507,199.454H250v-124.4H24.507V199.454z"/>
	</g>
	<g>
		<rect x="13.254" y="63.8" class="st8" width="229.493" height="128.4"/>
	</g>
	<g>
		<path class="st3" d="M242.746,194.2H13.254c-1.104,0-2-0.895-2-2V63.8c0-1.104,0.895-2,2-2h229.492c1.105,0,2,0.896,2,2v128.4
			C244.746,193.305,243.851,194.2,242.746,194.2z M15.254,190.2h225.492V65.8H15.254V190.2z"/>
	</g>
	<g>
		<rect x="4" y="54.546" class="st7" width="229.492" height="128.4"/>
	</g>
	<g>
		<rect x="224.239" y="54.546" class="st9" width="9.254" height="128.4"/>
	</g>
	<g>
		<rect x="4" y="54.546" class="st10" width="9.254" height="128.4"/>
	</g>
	<g>
		<path class="st4" d="M30.522,182.946c0-14.648-11.874-26.523-26.522-26.523v26.523H30.522z"/>
	</g>
	<g>
		<path class="st6" d="M4,156.424v26.522h9.254v-24.86C10.372,157.013,7.255,156.424,4,156.424z"/>
	</g>
	<g>
		<path class="st4" d="M4,81.069c14.648,0,26.522-11.875,26.522-26.523H4V81.069z"/>
	</g>
	<g>
		<path class="st6" d="M13.254,54.546H4v26.523c3.255,0,6.372-0.589,9.254-1.662V54.546z"/>
	</g>
	<g>
		<circle class="st0" cx="51.899" cy="118.746" r="8.052"/>
	</g>
	<g>
		<circle class="st0" cx="185.594" cy="118.746" r="8.052"/>
	</g>
	<g>
		<circle class="st4" cx="118.746" cy="118.746" r="37.677"/>
	</g>
	<g>
		<path class="st4" d="M233.492,81.069c-14.648,0-26.522-11.875-26.522-26.523h26.522V81.069z"/>
	</g>
	<g>
		<path class="st4" d="M206.97,182.946c0-14.648,11.875-26.523,26.522-26.523v26.523H206.97z"/>
	</g>
	<g>
		<g>
			<path class="st3" d="M119.321,93.845c1.38,0,2.473,1.092,2.473,2.473v1.265c3.393,0.403,6.269,1.495,8.914,3.163
				c0.92,0.517,1.726,1.38,1.726,2.76c0,1.783-1.438,3.163-3.221,3.163c-0.575,0-1.15-0.173-1.725-0.518
				c-2.013-1.208-3.968-2.07-5.923-2.53v11.042c8.741,2.186,12.48,5.694,12.48,11.847c0,6.326-4.946,10.524-12.25,11.214v3.451
				c0,1.38-1.093,2.473-2.473,2.473c-1.38,0-2.53-1.093-2.53-2.473v-3.566c-4.313-0.46-8.281-2.013-11.79-4.485
				c-0.978-0.632-1.553-1.553-1.553-2.76c0-1.783,1.38-3.163,3.163-3.163c0.69,0,1.38,0.23,1.898,0.632
				c2.703,1.955,5.348,3.278,8.511,3.853v-11.329c-8.397-2.186-12.307-5.348-12.307-11.847c0-6.153,4.888-10.409,12.077-10.984
				v-1.208C116.791,94.938,117.941,93.845,119.321,93.845z M117.021,113.456v-10.179c-3.681,0.345-5.521,2.3-5.521,4.831
				C111.5,110.522,112.593,112.018,117.021,113.456z M121.564,121.449v10.466c3.681-0.402,5.693-2.243,5.693-5.003
				C127.257,124.382,125.992,122.829,121.564,121.449z"/>
		</g>
	</g>
	<g>
		<path class="st3" d="M118.746,158.424c-21.878,0-39.677-17.799-39.677-39.678c0-21.878,17.799-39.677,39.677-39.677
			s39.678,17.799,39.678,39.677C158.424,140.624,140.624,158.424,118.746,158.424z M118.746,83.069
			c-19.672,0-35.677,16.005-35.677,35.677c0,19.673,16.005,35.678,35.677,35.678c19.673,0,35.678-16.005,35.678-35.678
			C154.424,99.074,138.419,83.069,118.746,83.069z"/>
	</g>
	<g>
		<path class="st3" d="M51.899,128.798c-5.542,0-10.052-4.509-10.052-10.052c0-5.543,4.509-10.052,10.052-10.052
			s10.052,4.509,10.052,10.052C61.951,124.289,57.441,128.798,51.899,128.798z M51.899,112.694c-3.337,0-6.052,2.715-6.052,6.052
			c0,3.337,2.715,6.052,6.052,6.052c3.337,0,6.052-2.715,6.052-6.052C57.951,115.409,55.236,112.694,51.899,112.694z"/>
	</g>
	<g>
		<path class="st3" d="M185.594,128.798c-5.543,0-10.052-4.509-10.052-10.052c0-5.543,4.509-10.052,10.052-10.052
			c5.543,0,10.052,4.509,10.052,10.052C195.645,124.289,191.137,128.798,185.594,128.798z M185.594,112.694
			c-3.337,0-6.052,2.715-6.052,6.052c0,3.337,2.715,6.052,6.052,6.052c3.337,0,6.052-2.715,6.052-6.052
			C191.645,115.409,188.931,112.694,185.594,112.694z"/>
	</g>
	<g>
		<path class="st3" d="M4,83.069c-1.105,0-2-0.896-2-2V54.546c0-1.104,0.895-2,2-2h26.522c1.105,0,2,0.896,2,2
			C32.522,70.274,19.727,83.069,4,83.069z M6,56.546v22.442c11.93-0.968,21.474-10.512,22.442-22.442H6z"/>
	</g>
	<g>
		<path class="st3" d="M30.522,184.946H4c-1.105,0-2-0.896-2-2v-26.523c0-1.104,0.895-2,2-2c15.727,0,28.522,12.795,28.522,28.523
			C32.522,184.051,31.627,184.946,30.522,184.946z M6,180.946h22.442C27.474,169.017,17.93,159.472,6,158.504V180.946z"/>
	</g>
	<g>
		<path class="st3" d="M233.492,184.946H4c-1.105,0-2-0.896-2-2v-128.4c0-1.104,0.895-2,2-2h229.492c1.104,0,2,0.896,2,2v128.4
			C235.492,184.051,234.597,184.946,233.492,184.946z M6,180.946h225.492v-124.4H6V180.946z"/>
	</g>
	<g>
		<path class="st3" d="M12,105.711c-1.105,0-2-0.896-2-2v-12c0-1.104,0.895-2,2-2c1.104,0,2,0.896,2,2v12
			C14,104.816,13.104,105.711,12,105.711z"/>
	</g>
	<g>
		<path class="st5" d="M233.492,156.424v26.522h-9.254v-24.86C227.12,157.013,230.237,156.424,233.492,156.424z"/>
	</g>
	<g>
		<path class="st5" d="M224.239,54.546h9.254v26.523c-3.255,0-6.372-0.589-9.254-1.662V54.546z"/>
	</g>
	<g>
		<path class="st3" d="M233.492,83.069c-15.728,0-28.523-12.795-28.523-28.522c0-1.104,0.895-2,2-2h26.523c1.104,0,2,0.896,2,2
			v26.522C235.492,82.173,234.597,83.069,233.492,83.069z M209.051,56.546c0.968,11.93,10.512,21.474,22.441,22.442V56.546H209.051z
			"/>
	</g>
	<g>
		<path class="st3" d="M233.492,184.946H206.97c-1.105,0-2-0.896-2-2c0-15.728,12.795-28.523,28.523-28.523c1.104,0,2,0.896,2,2
			v26.523C235.492,184.051,234.597,184.946,233.492,184.946z M209.051,180.946h22.441v-22.442
			C219.562,159.472,210.019,169.017,209.051,180.946z"/>
	</g>
</g>
</svg>
