<?xml version="1.0" encoding="utf-8"?>
<!-- Generator: Adobe Illustrator 22.1.0, SVG Export Plug-In . SVG Version: 6.00 Build 0)  -->
<svg version="1.1" id="Layer_1" xmlns="http://www.w3.org/2000/svg" xmlns:xlink="http://www.w3.org/1999/xlink" x="0px" y="0px"
	 viewBox="0 0 256 256" style="enable-background:new 0 0 256 256;" xml:space="preserve">
<style type="text/css">
	.st0{fill:#FCC24C;}
	.st1{fill:#FCE06A;}
	.st2{fill:#DEA42E;}
	.st3{fill:#690589;}
	.st4{fill:#7BAC51;}
	.st5{fill:#5D8E33;}
	.st6{fill:#99CA6F;}
	.st7{fill:#F4EFED;}
	.st8{fill:#FF4397;}
	.st9{fill:#D6D1CF;}
	.st10{fill:#FFFFFF;}
	.st11{fill:#FF9F70;}
	.st12{fill:#FFBD8E;}
	.st13{fill:#E18152;}
	.st14{fill:#E12579;}
	.st15{fill:#FF61B5;}
</style>
<g>
	<g>
		<polygon class="st4" points="26.417,239.058 34.923,232.587 43.43,226.115 43.43,239.058 43.43,252 34.923,245.529 		"/>
	</g>
	<g>
		<circle class="st4" cx="128" cy="128" r="111.058"/>
	</g>
	<g>
		<path class="st0" d="M214.345,58.161c-4.91-6.063-10.444-11.597-16.507-16.507l-58.166,58.167V17.552
			c-3.836-0.401-7.73-0.61-11.672-0.61c-3.943,0-7.836,0.209-11.672,0.61v82.269L58.161,41.654
			c-6.063,4.91-11.597,10.444-16.507,16.507l58.166,58.166H17.552c-0.401,3.837-0.61,7.73-0.61,11.672
			c0,3.943,0.209,7.836,0.61,11.672h82.269l-58.166,58.166c4.91,6.063,10.444,11.597,16.507,16.507l58.166-58.166v82.269
			c3.836,0.401,7.73,0.61,11.672,0.61c3.942,0,7.836-0.209,11.672-0.61v-82.269l58.166,58.166
			c6.063-4.91,11.597-10.444,16.507-16.507l-58.166-58.166h82.269c0.401-3.837,0.61-7.73,0.61-11.672
			c0-3.942-0.209-7.836-0.61-11.672h-82.269L214.345,58.161z"/>
	</g>
	<g>
		<path class="st8" d="M149.697,149.437l76.205,31.029c3.658-6.812,6.626-14.048,8.81-21.618L158.5,127.816l75.831-31.947
			c-2.275-7.54-5.329-14.741-9.071-21.51l-75.823,31.944l31.029-76.205c-6.812-3.658-14.048-6.626-21.618-8.81L127.816,97.5
			L95.87,21.669c-7.54,2.275-14.741,5.329-21.51,9.071l31.944,75.823L30.098,75.534c-3.658,6.812-6.626,14.048-8.81,21.618
			L97.5,128.184L21.669,160.13c2.275,7.54,5.329,14.741,9.071,21.51l75.823-31.944l-31.029,76.205
			c6.812,3.658,14.048,6.626,21.618,8.81l31.031-76.212l31.947,75.831c7.54-2.275,14.741-5.329,21.51-9.071L149.697,149.437z"/>
	</g>
	<g>
		<path class="st3" d="M97.153,236.713c-0.184,0-0.371-0.025-0.555-0.078c-7.611-2.197-15.016-5.215-22.01-8.971
			c-0.901-0.483-1.291-1.569-0.906-2.516l29.208-71.733l-71.374,30.068c-0.942,0.398-2.033,0.019-2.527-0.875
			c-3.838-6.945-6.945-14.313-9.235-21.899c-0.296-0.979,0.195-2.024,1.138-2.421l71.381-30.073l-71.74-29.21
			c-0.947-0.386-1.451-1.424-1.167-2.407c2.195-7.609,5.213-15.014,8.969-22.01c0.484-0.901,1.566-1.29,2.517-0.906l71.733,29.208
			L72.516,31.517c-0.397-0.942-0.019-2.032,0.876-2.526c6.944-3.839,14.312-6.946,21.9-9.236c0.976-0.295,2.023,0.195,2.421,1.139
			l30.072,71.381l29.21-71.74c0.386-0.948,1.426-1.448,2.407-1.168c7.612,2.197,15.018,5.215,22.01,8.971
			c0.901,0.483,1.291,1.569,0.906,2.516l-29.208,71.733l71.373-30.068c0.942-0.396,2.033-0.019,2.527,0.875
			c3.838,6.945,6.945,14.313,9.235,21.899c0.296,0.979-0.195,2.024-1.138,2.421l-71.381,30.073l71.74,29.21
			c0.947,0.386,1.451,1.424,1.167,2.407c-2.195,7.609-5.213,15.015-8.97,22.01c-0.483,0.9-1.567,1.291-2.516,0.906l-71.733-29.208
			l30.069,71.373c0.397,0.942,0.019,2.032-0.876,2.526c-6.944,3.839-14.312,6.946-21.9,9.236c-0.978,0.291-2.024-0.196-2.421-1.139
			l-30.072-71.381l-29.21,71.74C98.691,236.236,97.948,236.713,97.153,236.713z M78.07,224.977c5.739,2.96,11.751,5.41,17.914,7.301
			l30.347-74.532c0.305-0.749,1.032-1.241,1.84-1.246c0.826-0.032,1.542,0.477,1.855,1.224l31.242,74.159
			c6.143-1.967,12.124-4.489,17.825-7.518l-31.24-74.151c-0.314-0.745-0.148-1.606,0.42-2.182c0.569-0.576,1.427-0.752,2.177-0.447
			l74.525,30.345c2.961-5.74,5.411-11.752,7.302-17.914l-74.532-30.347c-0.749-0.306-1.241-1.031-1.246-1.841
			c-0.005-0.809,0.478-1.541,1.224-1.854l74.159-31.243c-1.966-6.142-4.488-12.122-7.517-17.824l-74.152,31.239
			c-0.745,0.314-1.607,0.148-2.182-0.42c-0.575-0.568-0.752-1.428-0.447-2.177l30.345-74.526c-5.739-2.96-11.75-5.41-17.914-7.301
			l-30.347,74.532c-0.305,0.749-1.032,1.241-1.84,1.246c-0.852-0.003-1.541-0.479-1.855-1.224L94.731,24.117
			c-6.143,1.967-12.124,4.489-17.825,7.518l31.24,74.151c0.314,0.745,0.148,1.606-0.42,2.182c-0.569,0.576-1.427,0.752-2.177,0.447
			L31.023,78.07c-2.961,5.741-5.411,11.752-7.301,17.914l74.532,30.347c0.749,0.306,1.241,1.031,1.246,1.841
			c0.005,0.809-0.478,1.541-1.224,1.854L24.117,161.27c1.966,6.142,4.488,12.122,7.517,17.824l74.152-31.239
			c0.745-0.314,1.607-0.148,2.182,0.42c0.575,0.568,0.751,1.428,0.447,2.177L78.07,224.977z"/>
	</g>
	<g>
		<path class="st3" d="M128,241.058c-3.94,0-7.937-0.209-11.88-0.62c-1.019-0.106-1.793-0.965-1.793-1.989v-77.441L59.576,215.76
			c-0.724,0.725-1.877,0.783-2.673,0.141c-6.16-4.989-11.813-10.643-16.803-16.803c-0.645-0.796-0.584-1.949,0.14-2.673
			l54.752-54.753h-77.44c-1.024,0-1.883-0.773-1.989-1.792c-0.412-3.943-0.62-7.939-0.62-11.88s0.208-7.937,0.62-11.88
			c0.106-1.019,0.965-1.792,1.989-1.792h77.44L40.24,59.575c-0.724-0.724-0.785-1.877-0.14-2.673
			c4.989-6.16,10.643-11.813,16.803-16.803c0.795-0.644,1.949-0.584,2.673,0.141l54.751,54.753V17.552
			c0-1.024,0.774-1.883,1.793-1.989c7.886-0.822,15.874-0.822,23.76,0c1.018,0.106,1.792,0.965,1.792,1.989v77.441l54.752-54.753
			c0.723-0.725,1.878-0.784,2.673-0.141c6.16,4.989,11.813,10.643,16.803,16.803c0.645,0.796,0.584,1.949-0.14,2.673l-54.752,54.753
			h77.44c1.025,0,1.883,0.773,1.989,1.792c0.412,3.943,0.62,7.939,0.62,11.88s-0.208,7.936-0.62,11.88
			c-0.106,1.019-0.965,1.792-1.989,1.792h-77.44l54.752,54.753c0.724,0.724,0.785,1.877,0.14,2.673
			c-4.989,6.16-10.643,11.813-16.803,16.803c-0.796,0.643-1.95,0.583-2.673-0.141l-54.752-54.753v77.441
			c0,1.025-0.774,1.883-1.792,1.989C135.937,240.849,131.94,241.058,128,241.058z M118.328,236.631
			c6.441,0.566,12.903,0.566,19.345,0v-80.452c0-0.809,0.487-1.538,1.235-1.848c0.747-0.31,1.608-0.138,2.179,0.434l56.882,56.883
			c4.945-4.143,9.536-8.733,13.679-13.679l-56.882-56.883c-0.572-0.572-0.743-1.432-0.434-2.18c0.31-0.747,1.039-1.234,1.848-1.234
			h80.452c0.283-3.221,0.426-6.466,0.426-9.672s-0.143-6.451-0.426-9.672h-80.452c-0.809,0-1.538-0.487-1.848-1.234
			c-0.309-0.748-0.139-1.608,0.434-2.18l56.882-56.883c-4.143-4.946-8.733-9.536-13.679-13.679l-56.882,56.883
			c-0.572,0.572-1.434,0.743-2.179,0.434c-0.747-0.31-1.235-1.039-1.235-1.848V19.369c-6.441-0.566-12.903-0.566-19.345,0v80.452
			c0,0.809-0.487,1.538-1.235,1.848c-0.748,0.311-1.608,0.139-2.179-0.434L58.031,44.353c-4.946,4.143-9.536,8.732-13.679,13.679
			l56.882,56.883c0.572,0.572,0.743,1.432,0.434,2.18c-0.31,0.747-1.039,1.234-1.848,1.234H19.369
			c-0.283,3.221-0.426,6.466-0.426,9.672s0.143,6.451,0.426,9.672h80.452c0.809,0,1.538,0.487,1.848,1.234
			c0.31,0.748,0.139,1.607-0.434,2.18l-56.882,56.883c4.143,4.946,8.733,9.536,13.679,13.679l56.882-56.883
			c0.572-0.572,1.432-0.743,2.179-0.434c0.748,0.309,1.235,1.039,1.235,1.848V236.631z"/>
	</g>
	<g>
		<path class="st3" d="M128,241.058C65.66,241.058,14.942,190.34,14.942,128S65.66,14.942,128,14.942S241.058,65.66,241.058,128
			S190.34,241.058,128,241.058z M128,18.942C67.865,18.942,18.942,67.865,18.942,128S67.865,237.058,128,237.058
			S237.058,188.135,237.058,128S188.135,18.942,128,18.942z"/>
	</g>
	<g>
		<circle class="st0" cx="128" cy="128" r="91.91"/>
	</g>
	<g>
		<path class="st3" d="M128,221.91c-51.783,0-93.911-42.128-93.911-93.91S76.217,34.09,128,34.09c51.782,0,93.91,42.128,93.91,93.91
			S179.782,221.91,128,221.91z M128,38.09c-49.577,0-89.911,40.334-89.911,89.91S78.423,217.91,128,217.91s89.91-40.334,89.91-89.91
			S177.577,38.09,128,38.09z"/>
	</g>
	<g>
		<circle class="st7" cx="128" cy="128" r="81.029"/>
	</g>
	<g>
		<path class="st9" d="M128,46.972c-1.503,0-2.995,0.044-4.478,0.125c42.668,2.325,76.55,37.656,76.55,80.904
			s-33.883,78.579-76.55,80.904c1.483,0.081,2.975,0.125,4.478,0.125c44.751,0,81.028-36.278,81.028-81.029
			C209.028,83.249,172.751,46.972,128,46.972z"/>
	</g>
	<g>
		<path class="st10" d="M128,209.029c1.503,0,2.995-0.044,4.478-0.125c-42.667-2.325-76.55-37.656-76.55-80.904
			s33.883-78.579,76.55-80.904c-1.483-0.081-2.975-0.125-4.478-0.125c-44.751,0-81.029,36.278-81.029,81.029
			C46.971,172.751,83.249,209.029,128,209.029z"/>
	</g>
	<g>
		<circle class="st4" cx="128" cy="128" r="38.915"/>
	</g>
	<g>
		<path class="st3" d="M128,211.028c-45.782,0-83.028-37.246-83.028-83.028S82.218,44.972,128,44.972S211.028,82.218,211.028,128
			S173.782,211.028,128,211.028z M128,48.972c-43.576,0-79.028,35.452-79.028,79.028S84.424,207.028,128,207.028
			s79.028-35.452,79.028-79.028S171.576,48.972,128,48.972z"/>
	</g>
	<g>
		<path class="st3" d="M59.337,105.118c-0.226,0-0.456-0.039-0.681-0.12c-1.039-0.376-1.576-1.523-1.2-2.562
			c1.536-4.244,3.46-8.388,5.716-12.315c0.551-0.957,1.772-1.289,2.73-0.738c0.958,0.551,1.288,1.772,0.738,2.73
			c-2.142,3.728-3.966,7.659-5.424,11.685C60.923,104.611,60.155,105.118,59.337,105.118z"/>
	</g>
	<g>
		<path class="st3" d="M128,168.915c-22.561,0-40.915-18.354-40.915-40.915S105.439,87.085,128,87.085
			c22.56,0,40.915,18.354,40.915,40.915S150.56,168.915,128,168.915z M128,91.085c-20.355,0-36.915,16.56-36.915,36.915
			s16.56,36.915,36.915,36.915s36.915-16.559,36.915-36.915S148.355,91.085,128,91.085z"/>
	</g>
	<g>
		<path class="st3" d="M114.43,143.57c-0.512,0-1.024-0.195-1.414-0.586c-0.781-0.781-0.781-2.047,0-2.828l27.141-27.141
			c0.78-0.781,2.048-0.781,2.828,0c0.781,0.781,0.781,2.047,0,2.828l-27.141,27.141C115.454,143.375,114.941,143.57,114.43,143.57z"
			/>
	</g>
	<g>
		<path class="st3" d="M141.57,143.57c-0.512,0-1.024-0.195-1.414-0.586l-27.141-27.141c-0.781-0.781-0.781-2.047,0-2.828
			c0.78-0.781,2.048-0.781,2.828,0l27.141,27.141c0.781,0.781,0.781,2.047,0,2.828C142.594,143.375,142.082,143.57,141.57,143.57z"
			/>
	</g>
	<g>
		<path class="st3" d="M128,91.085c-1.105,0-2-0.896-2-2V46.972c0-1.104,0.895-2,2-2c1.104,0,2,0.896,2,2v42.113
			C130,90.189,129.104,91.085,128,91.085z"/>
	</g>
	<g>
		<path class="st3" d="M128,211.028c-1.105,0-2-0.896-2-2v-42.113c0-1.104,0.895-2,2-2c1.104,0,2,0.896,2,2v42.113
			C130,210.133,129.104,211.028,128,211.028z"/>
	</g>
	<g>
		<path class="st3" d="M209.028,130h-42.113c-1.105,0-2-0.895-2-2c0-1.104,0.895-2,2-2h42.113c1.104,0,2,0.896,2,2
			C211.028,129.105,210.133,130,209.028,130z"/>
	</g>
	<g>
		<path class="st3" d="M89.085,130H46.972c-1.104,0-2-0.895-2-2c0-1.104,0.896-2,2-2h42.113c1.104,0,2,0.896,2,2
			C91.085,129.105,90.189,130,89.085,130z"/>
	</g>
	<g>
		<path class="st3" d="M100.483,102.482c-0.512,0-1.023-0.195-1.414-0.586L69.29,72.118c-0.781-0.781-0.781-2.047,0-2.828
			c0.78-0.781,2.047-0.781,2.828,0l29.779,29.778c0.781,0.781,0.781,2.047,0,2.828C101.507,102.287,100.995,102.482,100.483,102.482
			z"/>
	</g>
	<g>
		<path class="st3" d="M185.296,187.296c-0.512,0-1.023-0.195-1.414-0.586l-29.779-29.778c-0.781-0.781-0.781-2.047,0-2.828
			c0.78-0.781,2.047-0.781,2.828,0l29.779,29.778c0.781,0.781,0.781,2.047,0,2.828C186.32,187.101,185.808,187.296,185.296,187.296z
			"/>
	</g>
	<g>
		<path class="st3" d="M155.517,102.482c-0.512,0-1.023-0.195-1.414-0.586c-0.781-0.781-0.781-2.047,0-2.828l29.779-29.778
			c0.78-0.781,2.047-0.781,2.828,0c0.781,0.781,0.781,2.047,0,2.828l-29.779,29.778
			C156.541,102.287,156.029,102.482,155.517,102.482z"/>
	</g>
	<g>
		<path class="st3" d="M70.704,187.296c-0.512,0-1.023-0.195-1.414-0.586c-0.781-0.781-0.781-2.047,0-2.828l29.779-29.778
			c0.78-0.781,2.047-0.781,2.828,0c0.781,0.781,0.781,2.047,0,2.828L72.118,186.71C71.728,187.101,71.216,187.296,70.704,187.296z"
			/>
	</g>
	<g>
		<path class="st0" d="M150.737,114.429c-2.531,2.531-6.635,2.531-9.166,0c-2.531-2.531-2.531-6.635,0-9.166
			c2.531-2.531,6.635-2.531,9.166,0C153.268,107.795,153.268,111.898,150.737,114.429z"/>
	</g>
	<g>
		<path class="st0" d="M114.429,150.737c-2.531,2.531-6.635,2.531-9.166,0c-2.531-2.531-2.531-6.635,0-9.166
			c2.531-2.531,6.635-2.531,9.166,0C116.961,144.102,116.961,148.206,114.429,150.737z"/>
	</g>
	<g>
		<path class="st0" d="M141.57,150.737c-2.531-2.531-2.531-6.635,0-9.166c2.531-2.531,6.635-2.531,9.166,0
			c2.531,2.531,2.531,6.635,0,9.166C148.205,153.268,144.102,153.268,141.57,150.737z"/>
	</g>
	<g>
		<circle class="st0" cx="128" cy="128" r="6.481"/>
	</g>
	<g>
		<path class="st0" d="M105.263,114.429c-2.531-2.531-2.531-6.635,0-9.166c2.531-2.531,6.635-2.531,9.166,0
			c2.531,2.531,2.531,6.635,0,9.166C111.898,116.961,107.794,116.961,105.263,114.429z"/>
	</g>
	<g>
		<path class="st3" d="M146.153,118.324c-2.172,0-4.344-0.827-5.997-2.48c-3.307-3.307-3.307-8.688-0.001-11.994
			c3.307-3.306,8.688-3.308,11.995,0c3.307,3.307,3.307,8.688,0,11.994C150.498,117.497,148.326,118.324,146.153,118.324z
			 M146.153,105.367c-1.147,0-2.295,0.437-3.169,1.31c-1.747,1.747-1.747,4.591,0.001,6.338c1.747,1.747,4.59,1.747,6.338,0
			c1.747-1.747,1.747-4.591,0-6.338C148.449,105.804,147.301,105.367,146.153,105.367z"/>
	</g>
	<g>
		<path class="st3" d="M109.847,154.631c-2.172,0-4.344-0.827-5.998-2.48c-3.307-3.307-3.307-8.688,0-11.994
			c3.306-3.307,8.688-3.307,11.995,0c3.307,3.307,3.307,8.688,0,11.994c0,0,0,0,0,0C114.19,153.804,112.019,154.631,109.847,154.631
			z M114.43,150.736h0.01H114.43z M109.847,141.674c-1.148,0-2.295,0.437-3.17,1.311c-1.747,1.747-1.747,4.591,0,6.338
			c1.748,1.747,4.59,1.749,6.338,0c1.747-1.747,1.747-4.591-0.001-6.338C112.142,142.111,110.994,141.674,109.847,141.674z"/>
	</g>
	<g>
		<path class="st3" d="M146.153,154.631c-2.172,0-4.344-0.827-5.997-2.48c0,0,0,0-0.001,0c-3.306-3.307-3.306-8.688,0-11.994
			c3.307-3.307,8.688-3.307,11.995,0c3.307,3.307,3.307,8.688,0,11.994C150.498,153.804,148.326,154.631,146.153,154.631z
			 M142.984,149.322c1.749,1.749,4.591,1.747,6.338,0c1.747-1.747,1.747-4.591,0-6.338c-1.748-1.748-4.59-1.748-6.338,0
			C141.238,144.731,141.238,147.575,142.984,149.322L142.984,149.322z"/>
	</g>
	<g>
		<path class="st3" d="M128,136.477c-2.172,0-4.344-0.827-5.997-2.48c-3.307-3.307-3.307-8.688,0-11.994
			c3.307-3.307,8.687-3.307,11.994,0c3.307,3.307,3.307,8.688,0,11.994C132.344,135.65,130.172,136.477,128,136.477z M128,123.521
			c-1.148,0-2.295,0.438-3.169,1.311c-1.747,1.747-1.747,4.591,0,6.338c1.748,1.746,4.59,1.746,6.338,0
			c1.747-1.747,1.747-4.591,0-6.338C130.295,123.958,129.147,123.521,128,123.521z"/>
	</g>
	<g>
		<path class="st3" d="M109.846,118.324c-2.172,0-4.344-0.827-5.997-2.48c-3.307-3.307-3.307-8.688,0-11.994
			c3.306-3.306,8.688-3.308,11.995,0c3.307,3.307,3.307,8.688,0,11.994C114.19,117.497,112.019,118.324,109.846,118.324z
			 M109.847,105.367c-1.148,0-2.295,0.437-3.17,1.31c-1.747,1.747-1.747,4.591,0,6.338c1.748,1.748,4.59,1.748,6.338,0
			c1.747-1.747,1.747-4.591-0.001-6.338C112.142,105.805,110.994,105.367,109.847,105.367z"/>
	</g>
	<g>
		<path class="st3" d="M128,241.058H43.43c-1.104,0-2-0.896-2-2c0-1.105,0.896-2,2-2H128c1.104,0,2,0.895,2,2
			C130,240.162,129.104,241.058,128,241.058z"/>
	</g>
	<g>
		<path class="st3" d="M43.43,254c-0.43,0-0.857-0.139-1.211-0.408l-17.012-12.942c-0.497-0.378-0.789-0.967-0.789-1.592
			s0.292-1.214,0.789-1.592l17.012-12.942c0.604-0.46,1.417-0.539,2.099-0.2c0.681,0.338,1.112,1.032,1.112,1.792V252
			c0,0.76-0.431,1.454-1.112,1.792C44.037,253.932,43.732,254,43.43,254z M29.721,239.058l11.709,8.908v-17.816L29.721,239.058z"/>
	</g>
	<g>
		<polygon class="st4" points="229.583,16.942 221.076,10.471 212.57,4 212.57,16.942 212.57,29.885 221.076,23.413 		"/>
	</g>
	<g>
		<path class="st3" d="M212.57,18.942H128c-1.105,0-2-0.896-2-2s0.895-2,2-2h84.57c1.105,0,2,0.896,2,2
			S213.675,18.942,212.57,18.942z"/>
	</g>
	<g>
		<path class="st3" d="M212.57,31.885c-0.302,0-0.606-0.068-0.888-0.208c-0.681-0.338-1.112-1.032-1.112-1.792V4
			c0-0.76,0.431-1.454,1.112-1.792c0.682-0.337,1.495-0.259,2.099,0.2l17.012,12.942c0.497,0.378,0.789,0.967,0.789,1.592
			s-0.292,1.214-0.789,1.592l-17.012,12.942C213.426,31.746,212.999,31.885,212.57,31.885z M214.57,8.034v17.816l11.709-8.908
			L214.57,8.034z"/>
	</g>
	<g>
		<path class="st0" d="M229.028,239.058h-93.526c-5.54,0-10.03-4.491-10.03-10.03v-33.702c0-5.539,4.49-10.03,10.03-10.03h93.526
			c5.539,0,10.03,4.491,10.03,10.03v33.702C239.058,234.567,234.567,239.058,229.028,239.058z"/>
	</g>
	<g>
		<path class="st2" d="M229.028,185.296h-8.03c5.539,0,10.03,4.49,10.03,10.03v33.702c0,5.54-4.49,10.03-10.03,10.03h8.03
			c5.539,0,10.03-4.49,10.03-10.03v-33.702C239.058,189.786,234.567,185.296,229.028,185.296z"/>
	</g>
	<g>
		<path class="st1" d="M135.502,239.058h8.03c-5.54,0-10.03-4.49-10.03-10.03v-33.702c0-5.54,4.49-10.03,10.03-10.03h-8.03
			c-5.54,0-10.03,4.49-10.03,10.03v33.702C125.472,234.567,129.963,239.058,135.502,239.058z"/>
	</g>
	<g>
		<path class="st3" d="M229.028,241.058h-93.526c-6.633,0-12.03-5.396-12.03-12.03v-33.701c0-6.634,5.397-12.03,12.03-12.03h93.526
			c6.633,0,12.03,5.396,12.03,12.03v33.701C241.058,235.661,235.661,241.058,229.028,241.058z M135.502,187.296
			c-4.428,0-8.03,3.603-8.03,8.03v33.701c0,4.428,3.602,8.03,8.03,8.03h93.526c4.428,0,8.03-3.603,8.03-8.03v-33.701
			c0-4.428-3.602-8.03-8.03-8.03H135.502z"/>
	</g>
	<g>
		<path class="st3" d="M136.914,224.019v-23.685c0-1.204,0.963-2.207,2.207-2.207h0.042c0,0,0,0,0.08,0h13.006
			c1.164,0,2.207,1.003,2.207,2.207c0,1.244-1.043,2.249-2.207,2.249H141.37v7.345h9.353c1.204,0,2.207,1.045,2.207,2.209
			c0,1.244-1.003,2.247-2.207,2.247h-9.353v9.635c0,1.204-1.003,2.207-2.249,2.207C137.878,226.226,136.914,225.223,136.914,224.019
			z"/>
	</g>
	<g>
		<path class="st3" d="M179.778,222.895c0.402,1.164-0.241,2.408-1.405,2.81c-0.16,0.04-0.482,0.12-0.882,0.12c0,0,0,0-0.041,0
			c-0.4,0-1.003-0.08-1.564-0.442c-0.522-0.321-0.963-0.842-1.285-1.405c-0.561-1.164-0.842-2.609-0.842-4.816
			c-0.04-0.764-0.201-1.285-0.482-1.727c-0.241-0.442-0.722-0.842-1.206-1.164c-0.842-0.561-1.886-0.882-2.247-0.963h-4.736v8.712
			c0,1.204-1.005,2.207-2.249,2.207c-1.244,0-2.208-1.003-2.208-2.207v-23.685c0-1.244,0.965-2.207,2.208-2.207c0,0,0,0,0.04,0
			h7.146c4.776,0,8.589,3.853,8.589,8.63c0,2.649-1.204,4.977-3.131,6.583c0.522,0.402,1.003,0.884,1.405,1.485
			c0.804,1.164,1.325,2.65,1.325,4.336c-0.04,1.204,0.08,1.966,0.16,2.368C179.016,221.731,179.537,222.212,179.778,222.895z
			 M174.158,206.758c0-2.328-1.847-4.175-4.134-4.175h-4.937v8.269h4.937C172.311,210.852,174.158,209.005,174.158,206.758z"/>
	</g>
	<g>
		<path class="st3" d="M186.275,224.019v-23.685c0-1.244,0.963-2.207,2.207-2.207h0.041c0,0,0,0,0.08,0h13.007
			c1.164,0,2.207,0.963,2.207,2.207c0,1.244-1.043,2.249-2.207,2.249h-10.879v7.345h9.353c1.204,0,2.207,1.045,2.207,2.209
			c0,1.244-1.003,2.247-2.207,2.247h-9.353v7.387h10.879c1.164,0,2.207,1.003,2.207,2.249c0,1.204-1.043,2.207-2.207,2.207h-13.007
			c-0.08,0-0.08-0.04-0.08-0.04l-0.041,0.04C187.238,226.226,186.275,225.223,186.275,224.019z"/>
	</g>
	<g>
		<path class="st3" d="M210.074,224.019v-23.685c0-1.244,0.963-2.207,2.207-2.207h0.04c0,0,0,0,0.081,0h13.007
			c1.164,0,2.207,0.963,2.207,2.207c0,1.244-1.043,2.249-2.207,2.249h-10.879v7.345h9.353c1.204,0,2.207,1.045,2.207,2.209
			c0,1.244-1.003,2.247-2.207,2.247h-9.353v7.387h10.879c1.164,0,2.207,1.003,2.207,2.249c0,1.204-1.043,2.207-2.207,2.207h-13.007
			c-0.081,0-0.081-0.04-0.081-0.04l-0.04,0.04C211.037,226.226,210.074,225.223,210.074,224.019z"/>
	</g>
</g>
</svg>
