<?xml version="1.0" encoding="utf-8"?>
<!-- Generator: Adobe Illustrator 22.1.0, SVG Export Plug-In . SVG Version: 6.00 Build 0)  -->
<svg version="1.1" id="Layer_1" xmlns="http://www.w3.org/2000/svg" xmlns:xlink="http://www.w3.org/1999/xlink" x="0px" y="0px"
	 viewBox="0 0 256 256" style="enable-background:new 0 0 256 256;" xml:space="preserve">
<style type="text/css">
	.st0{fill:#FCC24C;}
	.st1{fill:#FCE06A;}
	.st2{fill:#DEA42E;}
	.st3{fill:#690589;}
	.st4{fill:#7BAC51;}
	.st5{fill:#5D8E33;}
	.st6{fill:#99CA6F;}
	.st7{fill:#F4EFED;}
	.st8{fill:#FF4397;}
	.st9{fill:#D6D1CF;}
	.st10{fill:#FFFFFF;}
	.st11{fill:#FF9F70;}
	.st12{fill:#FFBD8E;}
	.st13{fill:#E18152;}
	.st14{fill:#E12579;}
	.st15{fill:#FF61B5;}
</style>
<g>
	<g>
		<path class="st0" d="M50.305,86.797L47.06,45.473c-0.869-11.075,7.883-20.541,18.991-20.541l0,0V23.05
			C66.052,12.529,74.581,4,85.101,4h87.786l-7.573,32.795l0,0c7.084,3.932,10.998,11.836,9.831,19.853l-4.388,30.149H50.305z"/>
	</g>
	<g>
		<path class="st1" d="M75.719,24.932V23.05C75.719,12.529,84.248,4,94.769,4h-9.668c-10.521,0-19.05,8.529-19.05,19.05v1.882
			c-11.109,0-19.861,9.466-18.991,20.541l3.245,41.325h9.668l-3.245-41.325C55.859,34.398,64.611,24.932,75.719,24.932z"/>
	</g>
	<g>
		<path class="st2" d="M165.315,36.795L165.315,36.795L172.887,4h-9.668l-7.573,32.795l0,0c7.084,3.932,10.998,11.836,9.831,19.853
			l-4.388,30.149h9.668l4.388-30.149C176.312,48.631,172.399,40.727,165.315,36.795z"/>
	</g>
	<g>
		<path class="st3" d="M170.757,88.797H50.305c-1.044,0-1.912-0.803-1.994-1.843l-3.244-41.325
			c-0.458-5.833,1.557-11.641,5.528-15.937c3.518-3.804,8.337-6.172,13.457-6.664C64.063,11.431,73.502,2,85.102,2h87.785
			c0.609,0,1.186,0.278,1.565,0.755c0.379,0.477,0.521,1.101,0.384,1.695l-7.247,31.382c6.94,4.533,10.741,12.824,9.536,21.103
			l-4.389,30.149C172.593,88.068,171.75,88.797,170.757,88.797z M52.154,84.797h116.873l4.139-28.437
			c1.041-7.15-2.505-14.31-8.822-17.816c-0.779-0.433-1.179-1.33-0.978-2.199L170.372,6H85.102c-9.401,0-17.05,7.648-17.05,17.05
			v1.882c0,1.104-0.896,2-2,2c-4.809,0-9.255,1.945-12.52,5.476c-3.265,3.531-4.854,8.115-4.478,12.908L52.154,84.797z"/>
	</g>
	<g>
		<path class="st7" d="M173.622,166.092h-14.405h-25.885c0.024-0.414,0.064-0.824,0.064-1.244v-40.543H88.954v40.543
			c0,0.42,0.04,0.83,0.064,1.244H63.134H48.729c-15.562,0-28.177,12.615-28.177,28.177V252h181.247v-57.731
			C201.798,178.708,189.183,166.092,173.622,166.092z"/>
	</g>
	<g>
		<polygon class="st11" points="88.954,124.306 89.018,166.092 111.175,181.401 133.331,166.092 133.395,124.306 		"/>
	</g>
	<g>
		<g>
			<path class="st9" d="M173.622,166.092h-9.884c15.562,0,28.177,12.615,28.177,28.177V252h9.884v-57.731
				C201.798,178.708,189.183,166.092,173.622,166.092z"/>
		</g>
	</g>
	<g>
		<g>
			<path class="st10" d="M48.729,166.092h9.884c-15.562,0-28.177,12.615-28.177,28.177V252h-9.884v-57.731
				C20.552,178.708,33.167,166.092,48.729,166.092z"/>
		</g>
	</g>
	<g>
		<path class="st3" d="M201.799,254H20.552c-1.104,0-2-0.895-2-2v-57.731c0-16.64,13.537-30.177,30.177-30.177h38.226v-39.787
			c0-1.104,0.896-2,2-2h44.441c1.105,0,2,0.896,2,2v39.787h38.227c16.64,0,30.177,13.537,30.177,30.177V252
			C203.799,253.105,202.903,254,201.799,254z M22.552,250h177.247v-55.731c0-14.434-11.743-26.177-26.177-26.177h-40.29
			c-0.55,0-1.076-0.227-1.454-0.626c-0.377-0.4-0.574-0.938-0.543-1.487l0.025-0.386c0.017-0.247,0.035-0.494,0.035-0.745v-38.542
			H90.954v38.542c0,0.256,0.02,0.507,0.037,0.758l0.023,0.369c0.033,0.55-0.163,1.089-0.541,1.49
			c-0.378,0.401-0.904,0.628-1.455,0.628h-40.29c-14.434,0-26.177,11.743-26.177,26.177V250z"/>
	</g>
	<g>
		<path class="st3" d="M28.459,208.2c-1.104,0-2-0.895-2-2v-12c0-1.104,0.896-2,2-2s2,0.896,2,2v12
			C30.459,207.305,29.563,208.2,28.459,208.2z"/>
	</g>
	<g>
		<path class="st3" d="M89.862,205.572c-0.023,0-0.047,0-0.07-0.001c-0.568-0.02-1.102-0.281-1.466-0.718l-31.249-37.479
			c-0.497-0.596-0.604-1.426-0.275-2.129c0.329-0.703,1.035-1.152,1.812-1.152h30.405c0.406,0,0.803,0.124,1.137,0.354
			l22.156,15.308c0.482,0.333,0.795,0.862,0.854,1.445c0.059,0.584-0.142,1.164-0.549,1.586l-21.312,22.171
			C90.927,205.351,90.405,205.572,89.862,205.572z M62.885,168.092l27.083,32.483l18.136-18.866l-19.709-13.617H62.885z"/>
	</g>
	<g>
		<path class="st3" d="M132.487,205.572c-0.543,0-1.064-0.221-1.441-0.614l-21.312-22.171c-0.407-0.423-0.607-1.003-0.549-1.586
			c0.059-0.583,0.371-1.112,0.854-1.445l22.156-15.308c0.334-0.231,0.73-0.354,1.137-0.354h30.406c0.776,0,1.482,0.449,1.811,1.152
			c0.329,0.703,0.222,1.533-0.275,2.129l-31.25,37.479c-0.364,0.437-0.897,0.698-1.466,0.718
			C132.534,205.571,132.511,205.572,132.487,205.572z M114.246,181.71l18.136,18.866l27.084-32.483h-25.511L114.246,181.71z"/>
	</g>
	<g>
		<polygon class="st8" points="123.748,194.48 111.175,181.401 98.603,194.48 105.716,203.572 100.097,226.827 111.175,252 
			122.253,226.827 116.634,203.572 		"/>
	</g>
	<g>
		<path class="st3" d="M111.175,254c-0.793,0-1.511-0.469-1.831-1.194l-11.078-25.173c-0.176-0.401-0.216-0.849-0.113-1.275
			l5.393-22.314l-6.518-8.331c-0.613-0.784-0.557-1.9,0.134-2.619l12.572-13.079c0.754-0.784,2.129-0.784,2.883,0l12.573,13.079
			c0.69,0.718,0.747,1.834,0.134,2.619l-6.517,8.331l5.392,22.314c0.102,0.426,0.062,0.874-0.113,1.275l-11.078,25.173
			C112.686,253.531,111.968,254,111.175,254z M102.199,226.64l8.976,20.395l8.976-20.395l-5.46-22.598
			c-0.144-0.594-0.008-1.221,0.369-1.702l6.044-7.725l-9.929-10.328l-9.928,10.328l6.044,7.725c0.377,0.481,0.513,1.108,0.369,1.702
			L102.199,226.64z"/>
	</g>
	<g>
		<path class="st12" d="M63.222,71.702h-3.424c-8.851,0-16.025,7.175-16.025,16.025s7.174,16.025,16.025,16.025h3.424V71.702z"/>
	</g>
	<g>
		<path class="st13" d="M162.551,71.702h-3.424v32.05h3.424c8.85,0,16.025-7.174,16.025-16.025S171.402,71.702,162.551,71.702z"/>
	</g>
	<g>
		<path class="st11" d="M111.175,153.165L111.175,153.165c-26.484,0-47.953-21.748-47.953-48.576V70.96
			c0-26.828,21.469-48.575,47.953-48.575l0,0c26.484,0,47.953,21.748,47.953,48.575v33.629
			C159.128,131.417,137.659,153.165,111.175,153.165z"/>
	</g>
	<g>
		<path class="st13" d="M111.175,22.385c-1.844,0-3.66,0.116-5.449,0.321C129.642,25.448,148.229,46,148.229,70.96v33.629
			c0,24.96-18.587,45.512-42.504,48.254c1.789,0.205,3.605,0.321,5.449,0.321c26.484,0,47.953-21.748,47.953-48.575V70.96
			C159.128,44.133,137.659,22.385,111.175,22.385z"/>
	</g>
	<g>
		<path class="st12" d="M111.175,22.385c1.844,0,3.66,0.116,5.449,0.321C92.708,25.448,74.121,46,74.121,70.96v33.629
			c0,24.96,18.587,45.512,42.504,48.254c-1.789,0.205-3.605,0.321-5.449,0.321c-26.484,0-47.953-21.748-47.953-48.575V70.96
			C63.222,44.133,84.691,22.385,111.175,22.385z"/>
	</g>
	<g>
		<path class="st3" d="M111.175,155.165c-27.544,0-49.952-22.688-49.952-50.576V70.96c0-27.888,22.408-50.576,49.952-50.576
			c27.544,0,49.953,22.688,49.953,50.576v33.629C161.128,132.477,138.719,155.165,111.175,155.165z M111.175,24.385
			c-25.338,0-45.952,20.893-45.952,46.576v33.629c0,25.682,20.614,46.576,45.952,46.576c25.339,0,45.953-20.894,45.953-46.576V70.96
			C157.128,45.278,136.514,24.385,111.175,24.385z"/>
	</g>
	<g>
		<path class="st3" d="M63.223,105.752h-3.424c-9.939,0-18.025-8.086-18.025-18.025c0-9.939,8.086-18.025,18.025-18.025h3.424
			c1.104,0,2,0.896,2,2v32.05C65.223,104.856,64.327,105.752,63.223,105.752z M59.799,73.702c-7.733,0-14.025,6.292-14.025,14.025
			c0,7.733,6.292,14.025,14.025,14.025h1.424v-28.05H59.799z"/>
	</g>
	<g>
		<path class="st3" d="M162.552,105.752h-3.424c-1.104,0-2-0.896-2-2v-32.05c0-1.104,0.896-2,2-2h3.424
			c9.938,0,18.024,8.086,18.024,18.025C180.576,97.666,172.49,105.752,162.552,105.752z M161.128,101.752h1.424
			c7.733,0,14.024-6.292,14.024-14.025c0-7.733-6.291-14.025-14.024-14.025h-1.424V101.752z"/>
	</g>
	<g>
		<path class="st8" d="M169.915,236.639h38.743c2.049,0,3.71,1.661,3.71,3.71v7.942c0,2.049-1.661,3.71-3.71,3.71h-38.743
			c-2.049,0-3.71-1.661-3.71-3.71v-7.942C166.206,238.3,167.867,236.639,169.915,236.639z"/>
	</g>
	<g>
		<path class="st14" d="M208.658,236.639h-7.419c2.049,0,3.71,1.661,3.71,3.71v7.942c0,2.049-1.661,3.71-3.71,3.71h7.419
			c2.049,0,3.71-1.661,3.71-3.71v-7.942C212.367,238.3,210.707,236.639,208.658,236.639z"/>
	</g>
	<g>
		<path class="st15" d="M169.915,252h7.419c-2.049,0-3.71-1.661-3.71-3.71v-7.942c0-2.049,1.661-3.71,3.71-3.71h-7.419
			c-2.049,0-3.71,1.661-3.71,3.71v7.942C166.206,250.339,167.867,252,169.915,252z"/>
	</g>
	<g>
		<path class="st3" d="M208.658,254h-38.743c-3.147,0-5.709-2.561-5.709-5.71v-7.942c0-3.148,2.561-5.709,5.709-5.709h38.743
			c3.147,0,5.709,2.561,5.709,5.709v7.942C214.367,251.439,211.806,254,208.658,254z M169.915,238.639
			c-0.942,0-1.709,0.767-1.709,1.709v7.942c0,0.942,0.767,1.71,1.709,1.71h38.743c0.942,0,1.709-0.767,1.709-1.71v-7.942
			c0-0.942-0.767-1.709-1.709-1.709H169.915z"/>
	</g>
	<g>
		<path class="st4" d="M169.915,221.278h38.743c2.049,0,3.71,1.661,3.71,3.709v7.942c0,2.049-1.661,3.71-3.71,3.71h-38.743
			c-2.049,0-3.71-1.661-3.71-3.71v-7.942C166.206,222.939,167.867,221.278,169.915,221.278z"/>
	</g>
	<g>
		<path class="st5" d="M208.658,221.278h-7.419c2.049,0,3.71,1.661,3.71,3.71v7.942c0,2.049-1.661,3.71-3.71,3.71h7.419
			c2.049,0,3.71-1.661,3.71-3.71v-7.942C212.367,222.939,210.707,221.278,208.658,221.278z"/>
	</g>
	<g>
		<path class="st6" d="M169.915,236.639h7.419c-2.049,0-3.71-1.661-3.71-3.71v-7.942c0-2.049,1.661-3.71,3.71-3.71h-7.419
			c-2.049,0-3.71,1.661-3.71,3.71v7.942C166.206,234.978,167.867,236.639,169.915,236.639z"/>
	</g>
	<g>
		<path class="st3" d="M208.658,238.639h-38.743c-3.147,0-5.709-2.561-5.709-5.709v-7.942c0-3.148,2.561-5.709,5.709-5.709h38.743
			c3.147,0,5.709,2.561,5.709,5.709v7.942C214.367,236.078,211.806,238.639,208.658,238.639z M169.915,223.278
			c-0.942,0-1.709,0.767-1.709,1.709v7.942c0,0.942,0.767,1.709,1.709,1.709h38.743c0.942,0,1.709-0.767,1.709-1.709v-7.942
			c0-0.942-0.767-1.709-1.709-1.709H169.915z"/>
	</g>
	<g>
		<path class="st0" d="M169.915,205.917h38.743c2.049,0,3.71,1.661,3.71,3.71v7.942c0,2.049-1.661,3.71-3.71,3.71h-38.743
			c-2.049,0-3.71-1.661-3.71-3.71v-7.942C166.206,207.578,167.867,205.917,169.915,205.917z"/>
	</g>
	<g>
		<path class="st2" d="M208.658,205.917h-7.419c2.049,0,3.71,1.661,3.71,3.71v7.942c0,2.049-1.661,3.71-3.71,3.71h7.419
			c2.049,0,3.71-1.661,3.71-3.71v-7.942C212.367,207.578,210.707,205.917,208.658,205.917z"/>
	</g>
	<g>
		<path class="st1" d="M169.915,221.278h7.419c-2.049,0-3.71-1.661-3.71-3.71v-7.942c0-2.049,1.661-3.71,3.71-3.71h-7.419
			c-2.049,0-3.71,1.661-3.71,3.71v7.942C166.206,219.617,167.867,221.278,169.915,221.278z"/>
	</g>
	<g>
		<path class="st3" d="M208.658,223.278h-38.743c-3.147,0-5.709-2.561-5.709-5.71v-7.942c0-3.148,2.561-5.71,5.709-5.71h38.743
			c3.147,0,5.709,2.561,5.709,5.71v7.942C214.367,220.717,211.806,223.278,208.658,223.278z M169.915,207.917
			c-0.942,0-1.709,0.767-1.709,1.71v7.942c0,0.942,0.767,1.71,1.709,1.71h38.743c0.942,0,1.709-0.767,1.709-1.71v-7.942
			c0-0.942-0.767-1.71-1.709-1.71H169.915z"/>
	</g>
	<g>
		<path class="st8" d="M231.739,221.278h-38.743c-2.049,0-3.71-1.661-3.71-3.71v-7.942c0-2.049,1.661-3.71,3.71-3.71h38.743
			c2.049,0,3.71,1.661,3.71,3.71v7.942C235.448,219.617,233.787,221.278,231.739,221.278z"/>
	</g>
	<g>
		<path class="st15" d="M192.996,221.278h7.419c-2.049,0-3.71-1.661-3.71-3.71v-7.942c0-2.049,1.661-3.71,3.71-3.71h-7.419
			c-2.049,0-3.71,1.661-3.71,3.71v7.942C189.286,219.617,190.947,221.278,192.996,221.278z"/>
	</g>
	<g>
		<path class="st14" d="M231.739,205.917h-7.419c2.049,0,3.71,1.661,3.71,3.71v7.942c0,2.049-1.661,3.71-3.71,3.71h7.419
			c2.049,0,3.71-1.661,3.71-3.71v-7.942C235.448,207.578,233.787,205.917,231.739,205.917z"/>
	</g>
	<g>
		<path class="st3" d="M231.738,223.278h-38.742c-3.148,0-5.71-2.561-5.71-5.71v-7.942c0-3.148,2.562-5.71,5.71-5.71h38.742
			c3.148,0,5.71,2.561,5.71,5.71v7.942C237.448,220.717,234.887,223.278,231.738,223.278z M192.996,207.917
			c-0.943,0-1.71,0.767-1.71,1.71v7.942c0,0.942,0.767,1.71,1.71,1.71h38.742c0.943,0,1.71-0.767,1.71-1.71v-7.942
			c0-0.942-0.767-1.71-1.71-1.71H192.996z"/>
	</g>
	<g>
		<path class="st4" d="M231.739,236.639h-38.743c-2.049,0-3.71-1.661-3.71-3.709v-7.942c0-2.049,1.661-3.71,3.71-3.71h38.743
			c2.049,0,3.71,1.661,3.71,3.71v7.942C235.448,234.978,233.787,236.639,231.739,236.639z"/>
	</g>
	<g>
		<path class="st6" d="M192.996,236.639h7.419c-2.049,0-3.71-1.661-3.71-3.71v-7.942c0-2.049,1.661-3.71,3.71-3.71h-7.419
			c-2.049,0-3.71,1.661-3.71,3.71v7.942C189.286,234.978,190.947,236.639,192.996,236.639z"/>
	</g>
	<g>
		<path class="st5" d="M231.739,221.278h-7.419c2.049,0,3.71,1.661,3.71,3.71v7.942c0,2.049-1.661,3.71-3.71,3.71h7.419
			c2.049,0,3.71-1.661,3.71-3.71v-7.942C235.448,222.939,233.787,221.278,231.739,221.278z"/>
	</g>
	<g>
		<path class="st3" d="M231.738,238.639h-38.742c-3.148,0-5.71-2.561-5.71-5.709v-7.942c0-3.148,2.562-5.709,5.71-5.709h38.742
			c3.148,0,5.71,2.561,5.71,5.709v7.942C237.448,236.078,234.887,238.639,231.738,238.639z M192.996,223.278
			c-0.943,0-1.71,0.767-1.71,1.709v7.942c0,0.942,0.767,1.709,1.71,1.709h38.742c0.943,0,1.71-0.767,1.71-1.709v-7.942
			c0-0.942-0.767-1.709-1.71-1.709H192.996z"/>
	</g>
	<g>
		<path class="st0" d="M231.739,252h-38.743c-2.049,0-3.71-1.661-3.71-3.71v-7.942c0-2.049,1.661-3.709,3.71-3.709h38.743
			c2.049,0,3.71,1.661,3.71,3.709v7.942C235.448,250.339,233.787,252,231.739,252z"/>
	</g>
	<g>
		<path class="st1" d="M192.996,252h7.419c-2.049,0-3.71-1.661-3.71-3.71v-7.942c0-2.049,1.661-3.71,3.71-3.71h-7.419
			c-2.049,0-3.71,1.661-3.71,3.71v7.942C189.286,250.339,190.947,252,192.996,252z"/>
	</g>
	<g>
		<path class="st2" d="M231.739,236.639h-7.419c2.049,0,3.71,1.661,3.71,3.71v7.942c0,2.049-1.661,3.71-3.71,3.71h7.419
			c2.049,0,3.71-1.661,3.71-3.71v-7.942C235.448,238.3,233.787,236.639,231.739,236.639z"/>
	</g>
	<g>
		<path class="st3" d="M231.738,254h-38.742c-3.148,0-5.71-2.561-5.71-5.71v-7.942c0-3.148,2.562-5.709,5.71-5.709h38.742
			c3.148,0,5.71,2.561,5.71,5.709v7.942C237.448,251.439,234.887,254,231.738,254z M192.996,238.639c-0.943,0-1.71,0.767-1.71,1.709
			v7.942c0,0.942,0.767,1.71,1.71,1.71h38.742c0.943,0,1.71-0.767,1.71-1.71v-7.942c0-0.942-0.767-1.709-1.71-1.709H192.996z"/>
	</g>
	<g>
		<path class="st4" d="M169.915,190.556h38.743c2.049,0,3.71,1.661,3.71,3.71v7.942c0,2.049-1.661,3.71-3.71,3.71h-38.743
			c-2.049,0-3.71-1.661-3.71-3.71v-7.942C166.206,192.217,167.867,190.556,169.915,190.556z"/>
	</g>
	<g>
		<path class="st5" d="M208.658,190.556h-7.419c2.049,0,3.71,1.661,3.71,3.71v7.942c0,2.049-1.661,3.71-3.71,3.71h7.419
			c2.049,0,3.71-1.661,3.71-3.71v-7.942C212.367,192.217,210.707,190.556,208.658,190.556z"/>
	</g>
	<g>
		<path class="st6" d="M169.915,205.917h7.419c-2.049,0-3.71-1.661-3.71-3.71v-7.942c0-2.049,1.661-3.71,3.71-3.71h-7.419
			c-2.049,0-3.71,1.661-3.71,3.71v7.942C166.206,204.257,167.867,205.917,169.915,205.917z"/>
	</g>
	<g>
		<path class="st3" d="M208.658,207.917h-38.743c-3.147,0-5.709-2.561-5.709-5.71v-7.942c0-3.148,2.561-5.71,5.709-5.71h38.743
			c3.147,0,5.709,2.561,5.709,5.71v7.942C214.367,205.356,211.806,207.917,208.658,207.917z M169.915,192.557
			c-0.942,0-1.709,0.767-1.709,1.71v7.942c0,0.942,0.767,1.71,1.709,1.71h38.743c0.942,0,1.709-0.767,1.709-1.71v-7.942
			c0-0.942-0.767-1.71-1.709-1.71H169.915z"/>
	</g>
	<g>
		<path class="st8" d="M169.915,175.196h38.743c2.049,0,3.71,1.661,3.71,3.71v7.942c0,2.049-1.661,3.71-3.71,3.71h-38.743
			c-2.049,0-3.71-1.661-3.71-3.71v-7.942C166.206,176.856,167.867,175.196,169.915,175.196z"/>
	</g>
	<g>
		<path class="st14" d="M208.658,175.196h-7.419c2.049,0,3.71,1.661,3.71,3.71v7.942c0,2.049-1.661,3.71-3.71,3.71h7.419
			c2.049,0,3.71-1.661,3.71-3.71v-7.942C212.367,176.856,210.707,175.196,208.658,175.196z"/>
	</g>
	<g>
		<path class="st15" d="M169.915,190.556h7.419c-2.049,0-3.71-1.661-3.71-3.71v-7.942c0-2.049,1.661-3.71,3.71-3.71h-7.419
			c-2.049,0-3.71,1.661-3.71,3.71v7.942C166.206,188.896,167.867,190.556,169.915,190.556z"/>
	</g>
	<g>
		<path class="st3" d="M208.658,192.557h-38.743c-3.147,0-5.709-2.561-5.709-5.71v-7.941c0-3.148,2.561-5.71,5.709-5.71h38.743
			c3.147,0,5.709,2.561,5.709,5.71v7.941C214.367,189.995,211.806,192.557,208.658,192.557z M169.915,177.196
			c-0.942,0-1.709,0.767-1.709,1.71v7.941c0,0.943,0.767,1.71,1.709,1.71h38.743c0.942,0,1.709-0.767,1.709-1.71v-7.941
			c0-0.942-0.767-1.71-1.709-1.71H169.915z"/>
	</g>
</g>
</svg>
