<?xml version="1.0" encoding="utf-8"?>
<!-- Generator: Adobe Illustrator 22.1.0, SVG Export Plug-In . SVG Version: 6.00 Build 0)  -->
<svg version="1.1" id="Layer_1" xmlns="http://www.w3.org/2000/svg" xmlns:xlink="http://www.w3.org/1999/xlink" x="0px" y="0px"
	 viewBox="0 0 256 256" style="enable-background:new 0 0 256 256;" xml:space="preserve">
<style type="text/css">
	.st0{fill:#FCC24C;}
	.st1{fill:#FCE06A;}
	.st2{fill:#DEA42E;}
	.st3{fill:#690589;}
	.st4{fill:#7BAC51;}
	.st5{fill:#5D8E33;}
	.st6{fill:#99CA6F;}
	.st7{fill:#F4EFED;}
	.st8{fill:#FF4397;}
	.st9{fill:#D6D1CF;}
	.st10{fill:#FFFFFF;}
	.st11{fill:#FF9F70;}
	.st12{fill:#FFBD8E;}
	.st13{fill:#E18152;}
	.st14{fill:#E12579;}
	.st15{fill:#FF61B5;}
</style>
<g>
	<g>
		<path class="st8" d="M128,46.621l-8.618-8.618c-26.395-26.395-69.19-26.395-95.586,0l0,0c-26.395,26.395-26.395,69.19,0,95.586
			L128,237.793l104.203-104.204c26.396-26.395,26.396-69.19,0-95.586l0,0c-26.395-26.395-69.19-26.395-95.585,0L128,46.621z"/>
	</g>
	<g>
		<g>
			<path class="st14" d="M232.203,38.003c-14.47-14.47-33.869-20.989-52.793-19.593c15.595,1.15,30.868,7.668,42.793,19.593
				c26.396,26.395,26.97,67.177,0,95.585L128,237.793l104.203-104.204C258.599,107.194,258.599,64.398,232.203,38.003z"/>
		</g>
	</g>
	<g>
		<g>
			<path class="st15" d="M23.797,38.003c14.47-14.47,33.869-20.989,52.793-19.593c-15.595,1.15-30.868,7.668-42.793,19.593
				c-26.396,26.395-26.97,67.177,0,95.585L128,237.793L23.797,133.589C-2.599,107.194-2.599,64.398,23.797,38.003z"/>
		</g>
	</g>
	<g>
		<path class="st3" d="M128,239.793c-0.53,0-1.039-0.211-1.414-0.586L22.382,135.003C9.239,121.859,2,104.385,2,85.797
			C2,67.208,9.239,49.733,22.382,36.59c13.144-13.144,30.619-20.383,49.207-20.383c18.588,0,36.063,7.239,49.207,20.383L128,43.793
			l7.204-7.203c13.144-13.144,30.619-20.383,49.207-20.383c18.588,0,36.063,7.239,49.207,20.383
			C246.761,49.733,254,67.208,254,85.797c0,18.588-7.239,36.062-20.383,49.206L129.414,239.207
			C129.039,239.582,128.53,239.793,128,239.793z M71.589,20.207c-17.52,0-33.991,6.823-46.379,19.211
			C12.823,51.806,6,68.276,6,85.797c0,17.52,6.823,33.99,19.21,46.378L128,234.965l102.789-102.79
			C243.177,119.787,250,103.316,250,85.797c0-17.521-6.823-33.991-19.211-46.379C218.401,27.03,201.93,20.207,184.41,20.207
			c-17.52,0-33.99,6.823-46.379,19.211l-8.618,8.617c-0.781,0.781-2.047,0.781-2.828,0l-8.618-8.617
			C105.58,27.03,89.109,20.207,71.589,20.207z"/>
	</g>
	<g>
		<path class="st3" d="M12.325,86.477c-1.105,0-2-0.896-2-2c0-4.23,0.517-8.432,1.537-12.487c0.269-1.071,1.357-1.721,2.427-1.452
			c1.071,0.27,1.721,1.355,1.452,2.427c-0.939,3.737-1.416,7.611-1.416,11.513C14.325,85.581,13.429,86.477,12.325,86.477z"/>
	</g>
</g>
</svg>
