<?xml version="1.0" encoding="utf-8"?>
<!-- Generator: Adobe Illustrator 22.1.0, SVG Export Plug-In . SVG Version: 6.00 Build 0)  -->
<svg version="1.1" id="Layer_1" xmlns="http://www.w3.org/2000/svg" xmlns:xlink="http://www.w3.org/1999/xlink" x="0px" y="0px"
	 viewBox="0 0 256 256" style="enable-background:new 0 0 256 256;" xml:space="preserve">
<style type="text/css">
	.st0{fill:#FCC24C;}
	.st1{fill:#FCE06A;}
	.st2{fill:#DEA42E;}
	.st3{fill:#690589;}
	.st4{fill:#7BAC51;}
	.st5{fill:#5D8E33;}
	.st6{fill:#99CA6F;}
	.st7{fill:#F4EFED;}
	.st8{fill:#FF4397;}
	.st9{fill:#D6D1CF;}
	.st10{fill:#FFFFFF;}
	.st11{fill:#FF9F70;}
	.st12{fill:#FFBD8E;}
	.st13{fill:#E18152;}
	.st14{fill:#E12579;}
	.st15{fill:#FF61B5;}
</style>
<g>
	<g>
		<path class="st7" d="M243.15,189.318H12.85c-4.888,0-8.85-3.962-8.85-8.85V38.672c0-4.888,3.962-8.85,8.85-8.85h230.3
			c4.888,0,8.85,3.962,8.85,8.85v141.796C252,185.356,248.038,189.318,243.15,189.318z"/>
	</g>
	<g>
		<path class="st9" d="M243.15,29.822h-10c4.888,0,8.85,3.962,8.85,8.85v141.796c0,4.888-3.962,8.85-8.85,8.85h10
			c4.888,0,8.85-3.962,8.85-8.85V38.672C252,33.784,248.038,29.822,243.15,29.822z"/>
	</g>
	<g>
		<path class="st10" d="M12.85,189.318h10c-4.888,0-8.85-3.962-8.85-8.85V38.672c0-4.888,3.962-8.85,8.85-8.85h-10
			c-4.888,0-8.85,3.962-8.85,8.85v141.796C4,185.356,7.962,189.318,12.85,189.318z"/>
	</g>
	<g>
		<path class="st4" d="M208.901,226.178H47.099v-11.854c0-4.888,3.962-8.85,8.85-8.85h144.102c4.888,0,8.85,3.962,8.85,8.85V226.178
			z"/>
	</g>
	<g>
		<path class="st5" d="M200.051,205.474h-10c4.888,0,8.85,3.962,8.85,8.85v11.855h10v-11.855
			C208.901,209.436,204.939,205.474,200.051,205.474z"/>
	</g>
	<g>
		<path class="st6" d="M55.949,205.474h10c-4.888,0-8.85,3.962-8.85,8.85v11.855h-10v-11.855
			C47.099,209.436,51.061,205.474,55.949,205.474z"/>
	</g>
	<g>
		<rect x="80.503" y="189.318" class="st5" width="94.993" height="16.156"/>
	</g>
	<g>
		<path class="st3" d="M12,67.026c-1.105,0-2-0.896-2-2v-12c0-1.105,0.895-2,2-2c1.104,0,2,0.895,2,2v12
			C14,66.13,13.104,67.026,12,67.026z"/>
	</g>
	<g>
		<path class="st3" d="M208.901,228.178H47.099c-1.104,0-2-0.896-2-2v-11.855c0-5.983,4.867-10.85,10.85-10.85h144.102
			c5.983,0,10.85,4.867,10.85,10.85v11.855C210.901,227.283,210.005,228.178,208.901,228.178z M49.099,224.178h157.802v-9.855
			c0-3.777-3.073-6.85-6.85-6.85H55.949c-3.777,0-6.85,3.073-6.85,6.85V224.178z"/>
	</g>
	<g>
		<path class="st3" d="M175.497,207.474H80.503c-1.104,0-2-0.896-2-2v-16.155c0-1.105,0.896-2,2-2h94.993c1.104,0,2,0.895,2,2
			v16.155C177.497,206.578,176.601,207.474,175.497,207.474z M82.503,203.474h90.993v-12.155H82.503V203.474z"/>
	</g>
	<g>
		<path class="st3" d="M243.15,191.318H12.85c-5.983,0-10.85-4.867-10.85-10.85V38.672c0-5.983,4.867-10.85,10.85-10.85h230.3
			c5.983,0,10.85,4.867,10.85,10.85v141.796C254,186.451,249.133,191.318,243.15,191.318z M12.85,31.822
			c-3.777,0-6.85,3.073-6.85,6.85v141.796c0,3.777,3.073,6.85,6.85,6.85h230.3c3.777,0,6.85-3.073,6.85-6.85V38.672
			c0-3.777-3.073-6.85-6.85-6.85H12.85z"/>
	</g>
	<g>
		<path class="st8" d="M67.894,82.791c0,0-11.3-10.349-21.681,2.378c-10.382,12.726,6.086,41.757-29.469,39.479
			c14.774,13.975,46.799,11.616,51.15-18.748C70.648,90.309,67.894,82.791,67.894,82.791z"/>
	</g>
	<g>
		<g>
			<path class="st15" d="M52.057,86.004c3.563-4.368,7.235-6.017,10.52-6.3c-4.251-1.545-10.455-1.779-16.365,5.465
				c-10.382,12.726,6.086,41.757-29.469,39.479C58.148,134.716,41.675,98.73,52.057,86.004z"/>
		</g>
	</g>
	<g>
		<path class="st3" d="M38.489,134.836c-8.552,0-17.156-3.095-23.12-8.736c-0.612-0.579-0.795-1.479-0.459-2.252
			c0.336-0.772,1.117-1.248,1.961-1.197c21.455,1.38,22.158-8.913,22.965-20.827c0.436-6.437,0.888-13.093,4.826-17.92
			c3.548-4.349,7.615-6.719,12.088-7.044c6.975-0.501,12.272,4.253,12.493,4.456c0.236,0.216,0.417,0.486,0.527,0.787
			c0.12,0.328,2.907,8.206,0.092,24.144c-1.907,13.315-9.191,22.855-20.499,26.797C45.896,134.254,42.196,134.836,38.489,134.836z
			 M22.848,126.721c7.356,4.304,17,5.405,25.2,2.547c9.827-3.426,16.172-11.826,17.866-23.652
			c2.238-12.675,0.733-19.83,0.239-21.668c-1.17-0.914-4.813-3.424-9.146-3.094c-3.319,0.252-6.43,2.129-9.245,5.58
			c-3.132,3.84-3.522,9.583-3.934,15.662C43.07,113.272,42.218,125.808,22.848,126.721z"/>
	</g>
	<g>
		<path class="st4" d="M187.206,47.562c2.615-0.554,4.929-3.708,4.813-6.621v0H175.62l-35.559,38.245H81.302
			c-14.753,0-26.713,11.96-26.713,26.713c0,7.394,3.004,14.085,7.858,18.922l-3.63,19.129c-0.131,0.692,0.06,1.407,0.519,1.941
			l16.202,18.863l-11.526,2.723l11.185,10.722l9.93-9.93c1.713-1.713,1.817-4.457,0.239-6.295l-14.13-16.451l12.911-12.911h59.254
			l15.56,21.782l-7.13,9.319l-5.401-5.991l-6.882,15.471l11.303,4.397c0.933,0.363,1.994,0.086,2.629-0.688l15.852-19.284
			c0.994-1.21,1.31-2.84,0.84-4.334l-9.556-30.332c1.603-1.931,2.941-4.091,3.955-6.425l0.002,0.003l0.026-0.064
			c0.205-0.475,0.398-0.955,0.575-1.443l17.728-44.464l16.318,17.086l13.221-2.476l0,0C208.974,69.83,199.906,56.476,187.206,47.562
			z"/>
	</g>
	<g>
		<g>
			<path class="st6" d="M77.486,160.217L65.18,145.891c-0.459-0.535-0.65-1.249-0.519-1.941l3.237-17.059
				c0.24-1.267-0.132-2.562-0.976-3.539c-4.044-4.681-6.49-10.781-6.49-17.452c0-14.753,11.96-26.713,26.713-26.713H81.84
				c-14.613,0-26.928,11.51-27.245,26.119c-0.166,7.629,2.868,14.549,7.852,19.515l-3.63,19.129
				c-0.131,0.692,0.06,1.407,0.519,1.941l16.068,18.706l0,0C77.704,164.657,78.985,161.962,77.486,160.217z"/>
		</g>
	</g>
	<g>
		<path class="st5" d="M187.206,47.562c2.615-0.554,4.929-3.708,4.813-6.621l0,0h-6.679l0,0c0.058,1.457-0.491,2.973-1.382,4.195
			c-1.26,1.728-1.111,4.114,0.499,5.522c9.997,8.743,18.39,22.79,22.15,35.603l5.835-1.093v0
			C208.974,69.83,199.906,56.476,187.206,47.562z"/>
	</g>
	<g>
		<path class="st5" d="M160.616,122.952c1.603-1.931,2.941-4.091,3.955-6.425l0.002,0.003l0.026-0.064
			c0.205-0.475,0.398-0.955,0.575-1.443l17.728-44.464l0,0c-2.092-2.403-5.985-1.741-7.165,1.219l-17.242,43.245
			c-0.177,0.488-0.371,0.969-0.575,1.443l-0.026,0.064l-0.002-0.003c-0.733,1.687-1.635,3.284-2.685,4.768
			c-0.774,1.095-1.011,2.479-0.608,3.759l8.894,28.23c0.471,1.494,0.155,3.124-0.84,4.334l-15.299,18.611l3.497,1.36
			c0.933,0.363,1.994,0.085,2.629-0.688l15.852-19.284c0.994-1.21,1.31-2.84,0.84-4.334L160.616,122.952z"/>
	</g>
	<g>
		<path class="st0" d="M88.76,100.745h47.121c2.309,0,4.181-1.872,4.181-4.181V79.186H84.579v17.378
			C84.579,98.873,86.451,100.745,88.76,100.745z"/>
	</g>
	<g>
		<path class="st3" d="M75.197,180.199c-0.499,0-0.997-0.185-1.384-0.556L62.628,168.92c-0.529-0.507-0.738-1.263-0.545-1.97
			c0.193-0.707,0.757-1.252,1.47-1.42l8.327-1.967l-14.06-16.369c-0.86-1.001-1.213-2.32-0.966-3.617l3.437-18.11
			c-4.974-5.331-7.7-12.238-7.7-19.567c0-15.832,12.88-28.713,28.713-28.713h57.888l34.966-37.606
			c0.378-0.407,0.909-0.638,1.465-0.638h16.398c1.073,0,1.956,0.847,1.999,1.92c0.103,2.573-1.192,5.23-3.124,6.938
			c11.877,9.221,20.175,22.222,23.498,36.929c0.12,0.53,0.019,1.086-0.28,1.54c-0.298,0.454-0.768,0.767-1.303,0.867l-13.221,2.476
			c-0.666,0.124-1.348-0.096-1.814-0.584l-14.168-14.834l-16.575,41.571c-0.169,0.468-0.377,0.984-0.597,1.494
			c-0.009,0.022-0.02,0.044-0.03,0.066l0.001,0.001c-0.934,2.149-2.129,4.177-3.562,6.043l9.236,29.316
			c0.676,2.147,0.226,4.466-1.202,6.205l-15.852,19.284c-1.188,1.445-3.156,1.96-4.9,1.282l-11.303-4.397
			c-0.51-0.198-0.916-0.597-1.124-1.102c-0.208-0.506-0.201-1.075,0.022-1.575l6.882-15.471c0.275-0.619,0.845-1.056,1.513-1.162
			c0.672-0.106,1.346,0.134,1.799,0.636l3.79,4.204l4.77-6.233l-14.102-19.741H84.975L73.96,145.626l12.922,15.044
			c2.247,2.616,2.097,6.575-0.342,9.013l-9.93,9.93C76.221,180.003,75.709,180.199,75.197,180.199z M142.227,172.09l9.349,3.637
			c0.129,0.05,0.272,0.012,0.359-0.094l15.852-19.284c0.567-0.69,0.746-1.611,0.477-2.463l-9.556-30.332
			c-0.204-0.648-0.065-1.356,0.369-1.878c1.5-1.807,2.731-3.807,3.66-5.945c0.008-0.017,0.016-0.035,0.023-0.052
			c0-0.002,0.001-0.003,0.002-0.004c0.189-0.439,0.368-0.884,0.533-1.336l17.749-44.521c0.253-0.632,0.809-1.093,1.477-1.223
			c0.671-0.128,1.358,0.09,1.827,0.582l15.569,16.302l10.081-1.888c-3.648-13.921-12.091-26.075-23.941-34.393
			c-0.652-0.458-0.97-1.258-0.81-2.038c0.16-0.78,0.767-1.391,1.545-1.556c1.129-0.239,2.237-1.368,2.816-2.664h-13.116
			l-34.966,37.606c-0.378,0.407-0.909,0.638-1.465,0.638H81.302c-13.627,0-24.713,11.087-24.713,24.713
			c0,6.616,2.582,12.833,7.27,17.505c0.47,0.468,0.677,1.138,0.553,1.79l-3.63,19.129c-0.018,0.095,0.008,0.191,0.071,0.264
			l16.202,18.863c0.455,0.53,0.601,1.258,0.385,1.922c-0.216,0.664-0.763,1.167-1.442,1.328l-7.947,1.878l7.117,6.822l8.545-8.545
			c0.968-0.968,1.027-2.54,0.136-3.578l-14.13-16.45c-0.682-0.794-0.637-1.978,0.103-2.717l12.911-12.911
			c0.375-0.375,0.884-0.586,1.414-0.586h59.254c0.646,0,1.252,0.312,1.627,0.837l15.56,21.782c0.511,0.715,0.495,1.68-0.039,2.378
			l-7.13,9.319c-0.361,0.472-0.914,0.759-1.508,0.783c-0.599,0.019-1.168-0.218-1.566-0.659l-3.339-3.704L142.227,172.09z"/>
	</g>
	<g>
		<path class="st3" d="M135.88,102.745H88.76c-3.408,0-6.181-2.772-6.181-6.181V79.186c0-1.104,0.896-2,2-2h55.482
			c1.104,0,2,0.896,2,2v17.379C142.061,99.973,139.289,102.745,135.88,102.745z M86.579,81.186v15.379
			c0,1.203,0.978,2.181,2.181,2.181h47.121c1.203,0,2.181-0.978,2.181-2.181V81.186H86.579z"/>
	</g>
	<g>
		<rect x="107.908" y="100.745" class="st8" width="8.824" height="31.867"/>
	</g>
	<g>
		<path class="st3" d="M116.732,134.612h-8.824c-1.105,0-2-0.896-2-2v-31.867c0-1.104,0.895-2,2-2h8.824c1.105,0,2,0.896,2,2v31.867
			C118.732,133.717,117.836,134.612,116.732,134.612z M109.908,130.612h4.824v-27.867h-4.824V130.612z"/>
	</g>
	<g>
		<path class="st8" d="M96.27,93.242h32.101c2.305,0,4.174-1.869,4.174-4.175v-9.881h-40.45v9.881
			C92.095,91.373,93.964,93.242,96.27,93.242z"/>
	</g>
	<g>
		<path class="st3" d="M128.371,95.242H96.269c-3.404,0-6.174-2.77-6.174-6.175v-9.881c0-1.104,0.896-2,2-2h40.45
			c1.104,0,2,0.896,2,2v9.881C134.545,92.472,131.775,95.242,128.371,95.242z M94.095,81.186v7.881c0,1.199,0.976,2.175,2.174,2.175
			h32.101c1.199,0,2.174-0.976,2.174-2.175v-7.881H94.095z"/>
	</g>
	<g>
		<path class="st0" d="M181.765,137.502h34.215c1.809,0,3.276,1.467,3.276,3.276v7.014c0,1.809-1.467,3.276-3.276,3.276h-34.215
			c-1.809,0-3.276-1.467-3.276-3.276v-7.014C178.489,138.968,179.956,137.502,181.765,137.502z"/>
	</g>
	<g>
		<path class="st0" d="M181.765,164.633h34.215c1.809,0,3.276,1.467,3.276,3.276v7.014c0,1.809-1.467,3.276-3.276,3.276h-34.215
			c-1.809,0-3.276-1.467-3.276-3.276v-7.014C178.489,166.1,179.956,164.633,181.765,164.633z"/>
	</g>
	<g>
		<path class="st0" d="M181.765,151.067h34.215c1.809,0,3.276,1.467,3.276,3.276v7.014c0,1.809-1.467,3.276-3.276,3.276h-34.215
			c-1.809,0-3.276-1.467-3.276-3.276v-7.014C178.489,152.534,179.956,151.067,181.765,151.067z"/>
	</g>
	<g>
		<path class="st2" d="M215.98,137.502h-6c1.809,0,3.276,1.467,3.276,3.276v7.014c0,1.809-1.467,3.276-3.276,3.276h6
			c1.809,0,3.276-1.467,3.276-3.276v-7.014C219.256,138.968,217.789,137.502,215.98,137.502z"/>
	</g>
	<g>
		<path class="st2" d="M215.98,151.067h-6c1.809,0,3.276,1.467,3.276,3.276v7.014c0,1.809-1.467,3.276-3.276,3.276h6
			c1.809,0,3.276-1.467,3.276-3.276v-7.014C219.256,152.534,217.789,151.067,215.98,151.067z"/>
	</g>
	<g>
		<path class="st2" d="M215.98,164.633h-6c1.809,0,3.276,1.467,3.276,3.276v7.014c0,1.809-1.467,3.276-3.276,3.276h6
			c1.809,0,3.276-1.467,3.276-3.276v-7.014C219.256,166.1,217.789,164.633,215.98,164.633z"/>
	</g>
	<g>
		<path class="st1" d="M181.765,178.199h6c-1.809,0-3.276-1.467-3.276-3.276v-7.014c0-1.809,1.467-3.276,3.276-3.276h-6
			c-1.809,0-3.276,1.467-3.276,3.276v7.014C178.489,176.732,179.956,178.199,181.765,178.199z"/>
	</g>
	<g>
		<path class="st1" d="M181.765,164.633h6c-1.809,0-3.276-1.467-3.276-3.276v-7.014c0-1.809,1.467-3.276,3.276-3.276h-6
			c-1.809,0-3.276,1.467-3.276,3.276v7.014C178.489,163.166,179.956,164.633,181.765,164.633z"/>
	</g>
	<g>
		<path class="st1" d="M181.765,151.067h6c-1.809,0-3.276-1.467-3.276-3.276v-7.014c0-1.809,1.467-3.276,3.276-3.276h-6
			c-1.809,0-3.276,1.467-3.276,3.276v7.014C178.489,149.6,179.956,151.067,181.765,151.067z"/>
	</g>
	<g>
		<path class="st3" d="M215.98,153.067h-34.215c-2.909,0-5.276-2.367-5.276-5.276v-7.014c0-2.909,2.367-5.276,5.276-5.276h34.215
			c2.909,0,5.276,2.367,5.276,5.276v7.014C221.256,150.701,218.889,153.067,215.98,153.067z M181.765,139.501
			c-0.704,0-1.276,0.573-1.276,1.276v7.014c0,0.704,0.572,1.276,1.276,1.276h34.215c0.704,0,1.276-0.572,1.276-1.276v-7.014
			c0-0.704-0.573-1.276-1.276-1.276H181.765z"/>
	</g>
	<g>
		<path class="st3" d="M215.98,180.199h-34.215c-2.909,0-5.276-2.367-5.276-5.276v-7.014c0-2.909,2.367-5.276,5.276-5.276h34.215
			c2.909,0,5.276,2.367,5.276,5.276v7.014C221.256,177.832,218.889,180.199,215.98,180.199z M181.765,166.633
			c-0.704,0-1.276,0.573-1.276,1.276v7.014c0,0.704,0.572,1.276,1.276,1.276h34.215c0.704,0,1.276-0.572,1.276-1.276v-7.014
			c0-0.704-0.573-1.276-1.276-1.276H181.765z"/>
	</g>
	<g>
		<path class="st3" d="M215.98,166.633h-34.215c-2.909,0-5.276-2.367-5.276-5.276v-7.014c0-2.909,2.367-5.276,5.276-5.276h34.215
			c2.909,0,5.276,2.367,5.276,5.276v7.014C221.256,164.266,218.889,166.633,215.98,166.633z M181.765,153.067
			c-0.704,0-1.276,0.572-1.276,1.276v7.014c0,0.704,0.572,1.276,1.276,1.276h34.215c0.704,0,1.276-0.572,1.276-1.276v-7.014
			c0-0.704-0.573-1.276-1.276-1.276H181.765z"/>
	</g>
	<g>
		<circle class="st0" cx="198.873" cy="117.133" r="20.383"/>
	</g>
	<g>
		<path class="st2" d="M213.286,102.72c-4.618-4.618-10.898-6.538-16.913-5.798c4.354,0.535,8.571,2.456,11.913,5.798
			c7.96,7.96,7.96,20.866,0,28.827c-3.342,3.342-7.559,5.263-11.913,5.798c6.015,0.74,12.296-1.18,16.913-5.798
			C221.246,123.587,221.246,110.68,213.286,102.72z"/>
	</g>
	<g>
		<path class="st1" d="M184.459,131.547c4.618,4.618,10.898,6.538,16.913,5.798c-4.354-0.536-8.571-2.456-11.913-5.798
			c-7.96-7.96-7.96-20.866,0-28.827c3.343-3.342,7.559-5.263,11.913-5.798c-6.016-0.74-12.296,1.18-16.913,5.798
			C176.499,110.68,176.499,123.587,184.459,131.547z"/>
	</g>
	<g>
		<path class="st3" d="M198.873,139.506c-5.732,0-11.463-2.182-15.827-6.545c-4.228-4.228-6.556-9.849-6.556-15.828
			c0-5.979,2.328-11.6,6.556-15.827c8.727-8.728,22.928-8.727,31.655,0c8.727,8.727,8.727,22.927,0,31.655
			C210.337,137.325,204.604,139.506,198.873,139.506z M198.873,98.759c-4.708,0-9.415,1.792-12.999,5.376
			c-3.472,3.472-5.384,8.089-5.384,12.999c0,4.911,1.912,9.527,5.384,12.999c7.168,7.167,18.831,7.167,25.999,0
			c7.168-7.168,7.168-18.831,0-25.998C208.288,100.551,203.581,98.759,198.873,98.759z"/>
	</g>
	<g>
		<g>
			<path class="st3" d="M199.196,103.144c0.775,0,1.389,0.614,1.389,1.389v0.711c1.906,0.226,3.522,0.84,5.008,1.777
				c0.517,0.29,0.969,0.775,0.969,1.551c0,1.002-0.808,1.777-1.809,1.777c-0.323,0-0.646-0.097-0.969-0.291
				c-1.131-0.678-2.229-1.163-3.328-1.422v6.203c4.911,1.228,7.011,3.199,7.011,6.656c0,3.554-2.778,5.912-6.881,6.3v1.938
				c0,0.775-0.614,1.389-1.389,1.389c-0.775,0-1.421-0.614-1.421-1.389v-2.003c-2.423-0.258-4.652-1.131-6.623-2.52
				c-0.549-0.355-0.872-0.872-0.872-1.551c0-1.002,0.775-1.777,1.777-1.777c0.388,0,0.775,0.129,1.066,0.355
				c1.518,1.098,3.005,1.842,4.781,2.165v-6.364c-4.717-1.228-6.914-3.005-6.914-6.656c0-3.457,2.746-5.848,6.785-6.171v-0.679
				C197.774,103.758,198.42,103.144,199.196,103.144z M197.903,114.161v-5.718c-2.068,0.194-3.101,1.292-3.101,2.714
				C194.802,112.513,195.416,113.354,197.903,114.161z M200.456,118.652v5.88c2.068-0.226,3.198-1.26,3.198-2.811
				C203.654,120.3,202.943,119.427,200.456,118.652z"/>
		</g>
	</g>
</g>
</svg>
