<?xml version="1.0" encoding="utf-8"?>
<!-- Generator: Adobe Illustrator 22.1.0, SVG Export Plug-In . SVG Version: 6.00 Build 0)  -->
<svg version="1.1" id="Layer_1" xmlns="http://www.w3.org/2000/svg" xmlns:xlink="http://www.w3.org/1999/xlink" x="0px" y="0px"
	 viewBox="0 0 256 256" style="enable-background:new 0 0 256 256;" xml:space="preserve">
<style type="text/css">
	.st0{fill:#FCC24C;}
	.st1{fill:#FCE06A;}
	.st2{fill:#DEA42E;}
	.st3{fill:#690589;}
	.st4{fill:#7BAC51;}
	.st5{fill:#5D8E33;}
	.st6{fill:#99CA6F;}
	.st7{fill:#F4EFED;}
	.st8{fill:#FF4397;}
	.st9{fill:#D6D1CF;}
	.st10{fill:#FFFFFF;}
	.st11{fill:#FF9F70;}
	.st12{fill:#FFBD8E;}
	.st13{fill:#E18152;}
	.st14{fill:#E12579;}
	.st15{fill:#FF61B5;}
</style>
<g>
	<g>
		<polygon class="st4" points="154.579,233.107 101.421,233.107 111.689,162.387 144.311,162.387 		"/>
	</g>
	<g>
		<path class="st4" d="M175.884,252H80.115v-8.624c0-5.671,4.597-10.268,10.268-10.268h75.232c5.671,0,10.268,4.597,10.268,10.268
			V252z"/>
	</g>
	<g>
		<polygon class="st5" points="144.311,162.387 136.89,162.387 147.158,233.107 154.579,233.107 		"/>
	</g>
	<g>
		<polygon class="st6" points="111.689,162.387 119.11,162.387 108.842,233.107 101.421,233.107 		"/>
	</g>
	<g>
		<path class="st5" d="M165.616,233.107H155.5c5.671,0,10.268,4.597,10.268,10.268V252h10.116v-8.624
			C175.884,237.705,171.287,233.107,165.616,233.107z"/>
	</g>
	<g>
		<path class="st6" d="M90.384,233.107h10.115c-5.671,0-10.268,4.597-10.268,10.268V252H80.115v-8.624
			C80.115,237.705,84.713,233.107,90.384,233.107z"/>
	</g>
	<g>
		<path class="st3" d="M154.579,235.107h-53.158c-0.581,0-1.132-0.252-1.512-0.691s-0.55-1.021-0.467-1.596l10.268-70.721
			c0.143-0.983,0.985-1.712,1.979-1.712h32.621c0.994,0,1.837,0.729,1.979,1.712l10.268,70.721c0.083,0.575-0.087,1.157-0.467,1.596
			S155.16,235.107,154.579,235.107z M103.732,231.107h48.535l-9.688-66.721h-29.16L103.732,231.107z"/>
	</g>
	<g>
		<path class="st3" d="M175.884,254H80.116c-1.104,0-2-0.895-2-2v-8.624c0-6.765,5.503-12.269,12.268-12.269h75.232
			c6.765,0,12.268,5.503,12.268,12.269V252C177.884,253.105,176.989,254,175.884,254z M82.116,250h91.769v-6.624
			c0-4.559-3.709-8.269-8.268-8.269H90.384c-4.559,0-8.268,3.709-8.268,8.269V250z"/>
	</g>
	<g>
		<circle class="st8" cx="128" cy="116.62" r="98.728"/>
	</g>
	<g>
		<path class="st15" d="M128,215.348c1.723,0,3.435-0.045,5.136-0.132c-52.138-2.672-93.591-45.793-93.591-98.596
			c0-52.803,41.453-95.923,93.591-98.596c-1.701-0.087-3.413-0.132-5.136-0.132c-54.526,0-98.728,44.202-98.728,98.728
			C29.272,171.146,73.474,215.348,128,215.348z"/>
	</g>
	<g>
		<path class="st14" d="M128,17.893c-1.723,0-3.435,0.045-5.136,0.132c52.138,2.672,93.591,45.793,93.591,98.596
			c0,52.803-41.453,95.923-93.591,98.596c1.701,0.087,3.413,0.132,5.136,0.132c54.526,0,98.728-44.202,98.728-98.728
			C226.728,62.094,182.526,17.893,128,17.893z"/>
	</g>
	<g>
		<path class="st3" d="M128,217.348c-55.542,0-100.728-45.186-100.728-100.728S72.458,15.893,128,15.893
			S228.727,61.079,228.727,116.62S183.541,217.348,128,217.348z M128,19.893c-53.336,0-96.728,43.392-96.728,96.727
			c0,53.336,43.392,96.728,96.728,96.728s96.727-43.392,96.727-96.728C224.727,63.284,181.336,19.893,128,19.893z"/>
	</g>
	<g>
		<path class="st4" d="M128,116.836h82.944c0.039-21.251-8.024-42.511-24.187-58.757L128,116.836z"/>
	</g>
	<g>
		<path class="st4" d="M69.087,57.923L128,116.836V33.587C106.682,33.548,85.352,41.657,69.087,57.923L69.087,57.923z"/>
	</g>
	<g>
		<path class="st4" d="M44.751,116.836c0.039,21.216,8.148,42.421,24.336,58.608c0.051,0.051,0.105,0.098,0.156,0.149L128,116.836
			H44.751z"/>
	</g>
	<g>
		<path class="st0" d="M128,116.836l58.608,58.608c16.188-16.188,24.297-37.392,24.336-58.608H128z"/>
	</g>
	<g>
		<path class="st0" d="M186.608,57.923C170.421,41.735,149.216,33.625,128,33.587v83.249l58.757-58.757
			C186.706,58.028,186.659,57.974,186.608,57.923z"/>
	</g>
	<g>
		<path class="st0" d="M69.087,57.923c-16.265,16.265-24.375,37.595-24.336,58.913H128L69.087,57.923z"/>
	</g>
	<g>
		<path class="st0" d="M128,199.78v-82.944l-58.757,58.757C85.489,191.755,106.749,199.818,128,199.78z"/>
	</g>
	<g>
		<path class="st4" d="M186.608,175.444L128,116.836v82.944C149.216,199.741,170.421,191.631,186.608,175.444z"/>
	</g>
	<g>
		<path class="st3" d="M51.448,70.934c-0.33,0-0.664-0.081-0.972-0.253c-0.965-0.538-1.311-1.756-0.773-2.721
			c1.688-3.028,3.543-6.013,5.513-8.872c0.626-0.91,1.873-1.139,2.782-0.512c0.91,0.627,1.139,1.873,0.512,2.782
			c-1.899,2.755-3.687,5.632-5.313,8.55C52.831,70.564,52.15,70.934,51.448,70.934z"/>
	</g>
	<g>
		<path class="st3" d="M128,201.78c-0.53,0-1.038-0.21-1.413-0.585c-0.376-0.375-0.587-0.884-0.587-1.415v-82.944
			c0-0.809,0.487-1.538,1.235-1.848c0.747-0.31,1.607-0.138,2.179,0.434l58.608,58.608c0.781,0.781,0.781,2.047,0,2.828
			c-16.03,16.03-37.345,24.881-60.019,24.922C128.002,201.78,128.001,201.78,128,201.78z M130,121.664v76.088
			c20.192-0.523,39.143-8.393,53.763-22.325L130,121.664z"/>
	</g>
	<g>
		<path class="st3" d="M186.608,177.444c-0.512,0-1.024-0.195-1.414-0.586l-58.608-58.608c-0.572-0.572-0.743-1.432-0.434-2.179
			c0.31-0.748,1.039-1.235,1.848-1.235h82.944c0.531,0,1.041,0.212,1.416,0.587c0.375,0.376,0.585,0.886,0.584,1.417
			c-0.041,22.675-8.892,43.99-24.921,60.019C187.632,177.249,187.12,177.444,186.608,177.444z M132.829,118.835l53.763,53.763
			c13.932-14.62,21.802-33.57,22.325-53.763H132.829z"/>
	</g>
	<g>
		<path class="st3" d="M210.944,118.835H128c-0.809,0-1.538-0.487-1.848-1.235c-0.31-0.747-0.139-1.607,0.434-2.179l58.757-58.757
			c0.375-0.375,0.884-0.586,1.414-0.586c0.001,0,0.001,0,0.003,0c0.531,0,1.04,0.213,1.415,0.589
			c16.014,16.097,24.811,37.466,24.769,60.171C212.942,117.942,212.047,118.835,210.944,118.835z M132.829,114.835h76.095
			c-0.449-20.225-8.269-39.227-22.188-53.908L132.829,114.835z"/>
	</g>
	<g>
		<path class="st3" d="M127.999,118.835c-0.258,0-0.518-0.05-0.765-0.152c-0.748-0.31-1.235-1.039-1.235-1.848V33.587
			c0-0.531,0.211-1.041,0.587-1.416s0.876-0.562,1.416-0.585c22.675,0.041,43.99,8.892,60.019,24.921
			c0.002,0.002,0.005,0.004,0.007,0.007l0.117,0.123c0.732,0.788,0.786,2.095,0.025,2.855l-58.757,58.757
			C129.032,118.632,128.52,118.835,127.999,118.835z M130,35.615v76.392l53.919-53.918C169.278,44.063,150.265,36.14,130,35.615z
			 M186.604,57.926l0.004-0.004L186.604,57.926z"/>
	</g>
	<g>
		<path class="st3" d="M128,118.835c-0.52,0-1.032-0.203-1.415-0.586L67.673,59.336c-0.781-0.781-0.781-2.047,0-2.828
			c16.074-16.074,37.438-24.921,60.17-24.921c0.054,0,0.106,0,0.161,0c1.103,0.002,1.996,0.897,1.996,2v83.248
			c0,0.809-0.487,1.538-1.235,1.848C128.518,118.786,128.258,118.835,128,118.835z M71.932,57.94L126,112.007v-76.4
			C105.69,36.056,86.634,43.928,71.932,57.94z"/>
	</g>
	<g>
		<path class="st3" d="M128,118.835H44.751c-1.103,0-1.998-0.893-2-1.996C42.71,94.046,51.56,72.621,67.673,56.508
			c0.78-0.781,2.048-0.781,2.828,0l58.913,58.913c0.572,0.572,0.743,1.432,0.434,2.179C129.538,118.348,128.809,118.835,128,118.835
			z M46.771,114.835h76.4L69.104,60.768C55.094,75.468,47.221,94.527,46.771,114.835z"/>
	</g>
	<g>
		<path class="st3" d="M69.243,177.592c-0.509,0-1.018-0.193-1.407-0.579l-0.163-0.155c-16.03-16.03-24.881-37.345-24.922-60.019
			c-0.001-0.531,0.209-1.041,0.584-1.417c0.375-0.375,0.884-0.587,1.416-0.587H128c0.809,0,1.538,0.487,1.848,1.235
			c0.31,0.747,0.139,1.607-0.434,2.179l-58.757,58.757C70.267,177.397,69.755,177.592,69.243,177.592z M46.779,118.835
			c0.525,20.265,8.448,39.278,22.474,53.919l53.919-53.919H46.779z"/>
	</g>
	<g>
		<path class="st3" d="M127.845,201.78c-22.647,0-43.954-8.792-60.012-24.77c-0.376-0.375-0.589-0.884-0.589-1.416
			c-0.001-0.531,0.21-1.041,0.586-1.416l58.757-58.757c0.571-0.572,1.433-0.744,2.179-0.434c0.748,0.31,1.235,1.039,1.235,1.848
			v82.944c0,1.103-0.893,1.998-1.997,2C127.951,201.78,127.897,201.78,127.845,201.78z M128,199.78h0.01H128z M72.092,175.572
			c14.679,13.917,33.684,21.738,53.908,22.188v-76.095L72.092,175.572z"/>
	</g>
	<g>
		<path class="st3" d="M127.848,178.08c-15.73,0-31.46-5.987-43.435-17.962c-23.95-23.95-23.95-62.919,0-86.869
			c23.949-23.95,62.918-23.951,86.869,0l0,0c23.95,23.95,23.95,62.919,0,86.869C159.307,172.093,143.577,178.08,127.848,178.08z
			 M127.848,59.284c-14.706,0-29.411,5.598-40.606,16.793c-22.39,22.391-22.39,58.823,0,81.213c22.39,22.389,58.821,22.39,81.213,0
			c22.39-22.39,22.39-58.822,0-81.213C157.259,64.882,142.553,59.284,127.848,59.284z"/>
	</g>
	<g>
		<path class="st0" d="M128,4L128,4c11.269,0,18.782,11.632,14.147,21.904l-2.132,4.725L128,57.257l-12.015-26.629l-2.132-4.725
			C109.218,15.632,116.73,4,128,4L128,4z"/>
	</g>
	<g>
		<path class="st3" d="M128,59.257c-0.786,0-1.5-0.461-1.823-1.177L112.03,26.727c-2.457-5.445-1.989-11.693,1.252-16.711
			C116.523,4.996,122.025,2,128,2c5.975,0,11.477,2.996,14.718,8.015c3.241,5.019,3.709,11.266,1.252,16.712L129.823,58.08
			C129.499,58.796,128.786,59.257,128,59.257z M128,6c-4.61,0-8.856,2.312-11.358,6.185c-2.501,3.873-2.862,8.694-0.966,12.896
			L128,52.395l12.324-27.313c1.896-4.203,1.535-9.024-0.966-12.897C136.856,8.312,132.61,6,128,6z"/>
	</g>
	<g>
		<circle class="st7" cx="128" cy="19.72" r="6.469"/>
	</g>
	<g>
		<path class="st3" d="M128,28.189c-4.67,0-8.469-3.799-8.469-8.469s3.799-8.469,8.469-8.469c4.67,0,8.469,3.799,8.469,8.469
			S132.67,28.189,128,28.189z M128,15.251c-2.464,0-4.469,2.005-4.469,4.469c0,2.464,2.005,4.469,4.469,4.469
			c2.464,0,4.469-2.005,4.469-4.469C132.469,17.256,130.464,15.251,128,15.251z"/>
	</g>
	<g>
		
			<ellipse transform="matrix(0.9047 -0.4261 0.4261 0.9047 -37.4886 65.6518)" class="st8" cx="128" cy="116.62" rx="17.31" ry="17.31"/>
	</g>
	<g>
		<path class="st3" d="M128,135.93c-10.648,0-19.31-8.663-19.31-19.31c0-10.647,8.663-19.31,19.31-19.31
			c10.647,0,19.31,8.663,19.31,19.31C147.31,127.268,138.647,135.93,128,135.93z M128,101.31c-8.442,0-15.31,6.868-15.31,15.31
			s6.868,15.31,15.31,15.31c8.442,0,15.31-6.868,15.31-15.31S136.442,101.31,128,101.31z"/>
	</g>
	<g>
		<path class="st3" d="M128,125.845c-5.087,0-9.225-4.138-9.225-9.225s4.138-9.225,9.225-9.225c5.087,0,9.225,4.138,9.225,9.225
			S133.087,125.845,128,125.845z M128,111.395c-2.881,0-5.225,2.344-5.225,5.225c0,2.881,2.344,5.225,5.225,5.225
			c2.881,0,5.225-2.344,5.225-5.225C133.225,113.739,130.881,111.395,128,111.395z"/>
	</g>
</g>
</svg>
