<svg id="Layer_1" data-name="Layer 1" xmlns="http://www.w3.org/2000/svg" viewBox="0 0 128 128"><title>AUTUMN LEAF-12</title><path d="M107.5,71.91s-15.067.013-15.672-4.059c-.684-4.6,15.293-11.624,15.293-11.624s-15.711,5.684-18.4,1.881c-2.376-3.363,7.838-13.484,7.838-13.484L70.666,61.667,80.625,26.7s-6.377,14.4-10.907,13.324C64.6,38.807,64,20.5,64,20.5s-.6,18.307-5.718,19.527C53.752,41.106,47.375,26.7,47.375,26.7l9.958,34.964L31.438,44.624s10.214,10.121,7.838,13.484c-2.686,3.8-18.4-1.881-18.4-1.881s15.977,7.02,15.293,11.624C35.567,71.923,20.5,71.91,20.5,71.91l34,4.257-15.667,10L64,83.353l25.167,2.814-15.667-10Z" style="fill:#ee730f"/><path d="M89.166,86.167l-15.667-10,34-4.257s-15.067.013-15.672-4.059c-.684-4.6,15.293-11.624,15.293-11.624s-15.711,5.684-18.4,1.881c-2.376-3.363,7.838-13.484,7.838-13.484L70.666,61.667,80.625,26.7s-6.377,14.4-10.907,13.324C64.6,38.807,64,20.5,64,20.5V83.353Z" style="fill:#db5d01"/><path d="M87.156,63.524a1.255,1.255,0,0,0-1.632-.681L65.25,71.183V51.417a1.25,1.25,0,0,0-2.5,0V71.183L42.476,62.844a1.25,1.25,0,0,0-.951,2.313l21.226,8.73V107.5a1.25,1.25,0,0,0,2.5,0V73.887l21.226-8.73A1.25,1.25,0,0,0,87.156,63.524Z" style="fill:#913509"/></svg>