<svg id="Layer_1" data-name="Layer 1" xmlns="http://www.w3.org/2000/svg" viewBox="0 0 128 128"><title>AUTUMN LEAF-2</title><path d="M39.46,59.243c.753-5.971,10.137-34.887,68.113-21.906,0,0-9.344,6.506-10.854,16.328S95.146,81.675,82.567,89.494C68.562,98.2,36.3,84.348,39.46,59.243Z" style="fill:#dc2a13"/><path d="M82.567,89.494C95.146,81.675,95.21,63.487,96.719,53.665s10.854-16.328,10.854-16.328S63.3,50.645,41.328,72.693C48.332,88.927,71.325,96.482,82.567,89.494Z" style="fill:#b12704"/><path d="M81.644,47.71a1.25,1.25,0,0,0-1.612-.726,120.945,120.945,0,0,0-11.983,5.667l.64-7.908a1.25,1.25,0,0,0-2.492-.2l-.771,9.535c-4.119,2.288-8.843,5.144-13.838,8.6a1.233,1.233,0,0,0-.475.33,136.291,136.291,0,0,0-31.69,30.226,1.25,1.25,0,1,0,2.011,1.485A133.618,133.618,0,0,1,52.313,65.213l22.615,7.264a1.25,1.25,0,0,0,.765-2.38L54.918,63.425a146.051,146.051,0,0,1,26-14.1A1.25,1.25,0,0,0,81.644,47.71Z" style="fill:#913509"/></svg>