<svg id="Layer_1" data-name="Layer 1" xmlns="http://www.w3.org/2000/svg" viewBox="0 0 128 128"><title>AUTUMN LEAF-6</title><path d="M70.573,36.639A42.357,42.357,0,0,1,64,20.5a42.357,42.357,0,0,1-6.574,16.139c-7.257,10.87-24.741,27.347-24.741,39.446C32.685,95.4,52.952,99.223,64,88.176,75.047,99.223,95.315,95.4,95.315,76.084,95.315,63.986,77.831,47.509,70.573,36.639Z" style="fill:#f8ce2a"/><path d="M95.315,76.084c0-12.1-17.484-28.575-24.741-39.445A42.355,42.355,0,0,1,64,20.5V88.176C75.047,99.223,95.315,95.4,95.315,76.084Z" style="fill:#f2ac16"/><path d="M76.172,55.132a1.249,1.249,0,0,0-1.766-.08l-9.157,8.364v-12a1.25,1.25,0,1,0-2.5,0V77.241L51.5,68.752a1.25,1.25,0,0,0-1.506,2l12.753,9.625V107.5a1.25,1.25,0,1,0,2.5,0V66.8l10.843-9.9A1.249,1.249,0,0,0,76.172,55.132Z" style="fill:#913509"/></svg>