<?xml version="1.0" encoding="utf-8"?>
<!-- Generator: Adobe Illustrator 18.0.0, SVG Export Plug-In . SVG Version: 6.00 Build 0)  -->
<!DOCTYPE svg PUBLIC "-//W3C//DTD SVG 1.1//EN" "http://www.w3.org/Graphics/SVG/1.1/DTD/svg11.dtd">
<svg version="1.1" id="Layer_1" xmlns="http://www.w3.org/2000/svg" xmlns:xlink="http://www.w3.org/1999/xlink" x="0px" y="0px"
	 viewBox="0 0 256 256" style="enable-background:new 0 0 256 256;" xml:space="preserve">
<style type="text/css">
	.st0{fill:#1C868E;}
	.st1{fill:#40C4DF;}
	.st2{fill:#F85252;}
	.st3{fill:#491352;}
	.st4{fill:#7BEFE4;}
	.st5{fill:none;stroke:#491352;stroke-width:4;stroke-linecap:round;stroke-linejoin:round;stroke-miterlimit:10;}
	.st6{fill:#FFFFFF;}
	.st7{fill:#56C1B3;}
	.st8{fill:#D73735;}
	.st9{fill:#D8D6D7;}
	.st10{fill:#EDAF85;}
	.st11{fill:#F7C09A;}
	.st12{fill:none;stroke:#491352;stroke-width:4;stroke-miterlimit:10;}
</style>
<g id="XMLID_3209_">
	<path id="XMLID_2519_" class="st9" d="M81.13,95.86v64.28c0,2.87-2.33,5.2-5.21,5.2H11.65c-2.88,0-5.21-2.33-5.21-5.2V95.86
		c0-2.87,2.33-5.2,5.21-5.2h64.27C78.8,90.66,81.13,92.99,81.13,95.86z"/>
	<path id="XMLID_2518_" class="st9" d="M81.13,179.25v64.27c0,2.88-2.33,5.21-5.21,5.21H11.65c-2.87,0-5.21-2.33-5.21-5.21v-64.27
		c0-2.88,2.34-5.21,5.21-5.21h64.27C78.8,174.04,81.13,176.37,81.13,179.25z"/>
	<path id="XMLID_3172_" class="st9" d="M81.13,12.48v64.27c0,2.88-2.33,5.21-5.21,5.21H11.65c-2.88,0-5.21-2.33-5.21-5.21V12.48
		c0-2.88,2.33-5.21,5.21-5.21h64.27C78.8,7.27,81.13,9.6,81.13,12.48z"/>
	<path id="XMLID_2517_" class="st9" d="M165.34,179.25v64.27c0,2.88-2.33,5.21-5.2,5.21H95.86c-2.87,0-5.2-2.33-5.2-5.21v-64.27
		c0-2.88,2.33-5.21,5.2-5.21h64.28C163.01,174.04,165.34,176.37,165.34,179.25z"/>
	<path id="XMLID_3173_" class="st9" d="M165.34,12.48v64.27c0,2.88-2.33,5.21-5.2,5.21H95.86c-2.87,0-5.2-2.33-5.2-5.21V12.48
		c0-2.88,2.33-5.21,5.2-5.21h64.28C163.01,7.27,165.34,9.6,165.34,12.48z"/>
	<path id="XMLID_3168_" class="st9" d="M249.56,95.86v64.28c0,2.87-2.33,5.2-5.21,5.2h-64.27c-2.88,0-5.21-2.33-5.21-5.2V95.86
		c0-2.87,2.33-5.2,5.21-5.2h64.27C247.23,90.66,249.56,92.99,249.56,95.86z"/>
	<path id="XMLID_3166_" class="st9" d="M249.56,179.25v64.27c0,2.88-2.33,5.21-5.21,5.21h-64.27c-2.88,0-5.21-2.33-5.21-5.21v-64.27
		c0-2.88,2.33-5.21,5.21-5.21h64.27C247.23,174.04,249.56,176.37,249.56,179.25z"/>
	<path id="XMLID_3171_" class="st9" d="M249.56,12.48v64.27c0,2.88-2.33,5.21-5.21,5.21h-64.27c-2.88,0-5.21-2.33-5.21-5.21V12.48
		c0-2.88,2.33-5.21,5.21-5.21h64.27C247.23,7.27,249.56,9.6,249.56,12.48z"/>
	<path id="XMLID_1699_" class="st6" d="M81.13,95.86v58.88H22.25c-2.87,0-5.2-2.33-5.2-5.21V90.66h58.87
		C78.8,90.66,81.13,92.99,81.13,95.86z"/>
	<path id="XMLID_2514_" class="st6" d="M81.13,179.25v58.87H22.26c-2.88,0-5.21-2.33-5.21-5.21v-58.87h58.87
		C78.8,174.04,81.13,176.37,81.13,179.25z"/>
	<path id="XMLID_3170_" class="st6" d="M81.13,12.48v58.87H22.25c-2.87,0-5.2-2.33-5.2-5.21V7.27h58.87
		C78.8,7.27,81.13,9.6,81.13,12.48z"/>
	<path id="XMLID_2515_" class="st6" d="M165.34,179.25v58.87h-58.87c-2.88,0-5.21-2.33-5.21-5.2v-58.88h58.88
		C163.01,174.04,165.34,176.37,165.34,179.25z"/>
	<path id="XMLID_3169_" class="st6" d="M165.34,12.48v58.87h-58.87c-2.88,0-5.21-2.33-5.21-5.21V7.27h58.88
		C163.01,7.27,165.34,9.6,165.34,12.48z"/>
	<path id="XMLID_3165_" class="st6" d="M249.56,95.86v58.88h-58.87c-2.88,0-5.21-2.33-5.21-5.21V90.66h58.87
		C247.23,90.66,249.56,92.99,249.56,95.86z"/>
	<path id="XMLID_3160_" class="st6" d="M249.56,179.25v58.87h-58.87c-2.88,0-5.21-2.33-5.21-5.2v-58.88h58.87
		C247.23,174.04,249.56,176.37,249.56,179.25z"/>
	<path id="XMLID_3167_" class="st6" d="M249.56,12.48v58.87h-58.87c-2.88,0-5.21-2.33-5.21-5.21V7.27h58.87
		C247.23,7.27,249.56,9.6,249.56,12.48z"/>
	<path id="XMLID_2521_" class="st7" d="M185.16,73.77v108.46c0,1.62-1.31,2.93-2.93,2.93H73.77c-1.62,0-2.93-1.31-2.93-2.93V73.77
		c0-1.62,1.31-2.93,2.93-2.93h108.46C183.85,70.84,185.16,72.15,185.16,73.77z"/>
	<path id="XMLID_2516_" class="st4" d="M185.16,73.77v97.25H87.91c-1.62,0-2.93-1.31-2.93-2.93V70.84h97.25
		C183.85,70.84,185.16,72.15,185.16,73.77z"/>
	<path id="XMLID_120_" class="st0" d="M160.91,131.05h-4.56l-0.07,2.25c-0.73,11.72-6.71,18.49-7.83,20.69
		c-0.96,1.52-2.63,2.45-4.42,2.45h-6.7c-1.07,0-1.94,0.87-1.94,1.94c0,0,0,7.5,0,15.68c0,1.08-0.87,1.95-1.95,1.95H99.43
		c-1.6,0-2.52-1.83-1.55-3.12l4.76-6.35c1.39-1.85,2.46-3.9,3.18-6.07c0.72-2.17,1.1-4.45,1.1-6.76c0-4.85-1.38-7.66-3.16-11.76
		c-2.17-4.97-4.47-9.88-7.12-14.61c-2.57-4.58-4.03-9.83-4.03-15.48c0-17.68,14.4-32,32.11-31.87c2.49,0.02,4.92,0.33,7.24,0.9
		c14.04,3.42,24.39,16.29,24.39,31.37c0,0,0,3.59,0,5.06c0,0.41,0.13,0.81,0.37,1.14l6.2,8.67
		C164.09,128.77,162.92,131.05,160.91,131.05z"/>
	<path id="XMLID_118_" class="st1" d="M160.91,131.05h-4.56l-0.07,2.25c-0.73,11.72-6.71,18.49-7.83,20.69
		c-0.96,1.52-2.63,2.45-4.42,2.45h-6.7c-1.07,0-1.94,0.87-1.94,1.94c0,0,0,7.5,0,15.68c0,1.08-0.87,1.95-1.95,1.95h-19.01
		c-1.6,0-2.52-1.83-1.55-3.12l4.76-6.35c1.39-1.85,2.46-3.9,3.18-6.07c0.72-2.17,1.1-4.45,1.1-6.76c0-4.85-1.38-7.66-3.16-11.76
		c-2.17-4.97-4.47-9.88-7.12-14.61c-2.57-4.58-4.03-9.83-4.03-15.48c0-15.01,10.38-27.6,24.35-30.97
		c14.04,3.42,24.39,16.29,24.39,31.37c0,0,0,3.59,0,5.06c0,0.41,0.13,0.81,0.37,1.14l6.2,8.67
		C164.09,128.77,162.92,131.05,160.91,131.05z"/>
	<circle id="XMLID_3313_" class="st0" cx="144.7" cy="111.577" r="3.609"/>
	<circle id="XMLID_3312_" class="st2" cx="115.432" cy="124.497" r="3.811"/>
	<circle id="XMLID_3311_" class="st2" cx="133.348" cy="88.753" r="3.811"/>
	<circle id="XMLID_3310_" class="st2" cx="105.436" cy="115.387" r="3.811"/>
	<circle id="XMLID_3309_" class="st2" cx="125.559" cy="147.917" r="3.811"/>
	<g id="XMLID_2033_">
		<path id="XMLID_2685_" class="st3" d="M144.7,105.97c-2.49,0-4.61,1.63-5.34,3.89h-3.02v-1.97c0-2.653-4-2.642-4,0v18.92h-4.78
			v-2.31c0-2.643-4-2.652-4,0v10.75h-2.96c-2.653,0-2.642,4,0,4h2.96v3.22c-2.23,0.81-3.81,2.94-3.81,5.45c0,3.2,2.6,5.81,5.81,5.81
			c3.2,0,5.81-2.61,5.81-5.81c0-2.5-1.59-4.64-3.81-5.45v-11.66h13.58c2.644,0,2.645-4,0-4h-4.8v-12.95h3.24
			c0.87,1.96,2.84,3.33,5.12,3.33c3.09,0,5.61-2.52,5.61-5.61C150.31,108.48,147.79,105.97,144.7,105.97z M125.56,149.73
			c-1,0-1.81-0.81-1.81-1.81s0.81-1.81,1.81-1.81s1.81,0.81,1.81,1.81S126.56,149.73,125.56,149.73z M144.7,113.19
			c-0.76,0-1.4-0.53-1.56-1.24v-0.03v-0.06c0-0.13-0.01-0.27-0.04-0.39c0-0.01,0-0.01,0-0.01c0.06-0.84,0.75-1.49,1.6-1.49
			c0.89,0,1.61,0.72,1.61,1.61C146.31,112.46,145.59,113.19,144.7,113.19z"/>
		<path id="XMLID_3334_" class="st3" d="M158.35,117.33c-0.346-1.564,2.864-21.124-14.82-33.37c-2.38-1.65-4.98-3-7.74-4
			c-11.779-4.256-25.637-1.608-35.17,7.86c-1.72,1.71-3.24,3.58-4.53,5.57c-0.04,0.06-0.07,0.11-0.1,0.17
			c-3.51,5.41-5.38,11.71-5.38,18.3c0,4.59,0.94,9.13,2.73,13.31c0.01,0.01,0.01,0.03,0.02,0.04c0.02,0.05,0.04,0.1,0.06,0.15
			c0.01,0.01,0.01,0.03,0.02,0.04c2.903,5.805,4.223,7.583,8.48,17.35l0.34,0.77c1.6,3.65,2.66,6.07,2.66,10.19
			c0,4.16-1.38,8.29-3.88,11.63l-4.76,6.35c-2.001,2.446-0.134,6.32,3.15,6.32h34.01c2.226,0,3.95-1.827,3.95-3.95
			c0.001-0.647,0.023-14.976-0.04-15.62h6.68c4.279,0,5.808-2.999,7.1-4.97c2.11-3.21,6.51-9.89,7.15-20.11l0.01-0.31h2.62
			c3.638,0,5.757-4.121,3.64-7.08L158.35,117.33z M127.9,86.75h-5.3v-2.79v-1.9c0.62-0.05,1.25-0.07,1.88-0.07
			c0.139,0.01,3.601-0.115,7.81,1.05c-0.82,0.15-1.58,0.47-2.23,0.92C129.08,84.64,128.31,85.61,127.9,86.75z M133.35,86.94
			c1,0,1.81,0.81,1.81,1.81s-0.81,1.81-1.81,1.81s-1.81-0.81-1.81-1.81S132.35,86.94,133.35,86.94z M160.91,129.05h-4.56
			c-1.08,0-1.96,0.85-2,1.93l-0.06,2.2c-0.18,2.8-0.67,5.3-1.32,7.51c-3.95,1.42-8.35,0.46-11.34-2.54
			c-1.873-1.873-4.7,0.96-2.83,2.83c2.85,2.85,6.63,4.36,10.49,4.36c0.65,0,1.31-0.04,1.97-0.13c-1.796,3.921-3.705,6.21-4.54,7.78
			c-1.537,2.331-4.016,1.12-9.39,1.45c-2.17,0-3.94,1.77-3.94,3.94c0.005,1.598-0.018-5.789,0.05,15.63l-33.96,0.08l1.54-2.05
			l3.22-4.3c3.02-4.03,4.68-9.01,4.68-14.03c0-4.96-1.32-7.98-3-11.8l-0.33-0.76c-2.61-5.97-4.81-10.5-7.12-14.65h4.97v6.62
			c0,2.653,4,2.642,4,0v-6.62h2.54c0.82,2.22,2.95,3.81,5.45,3.81c3.21,0,5.81-2.61,5.81-5.81c0-3.21-2.6-5.81-5.81-5.81
			c-2.5,0-4.64,1.58-5.45,3.81H96.57c-1.3-3.37-1.96-6.93-1.96-10.64c0-5.49,1.47-10.76,4.23-15.35h4.6v13.43
			c-2.23,0.81-3.82,2.94-3.82,5.45c0,3.2,2.61,5.81,5.82,5.81c3.2,0,5.81-2.61,5.81-5.81c0-2.5-1.59-4.64-3.81-5.45V96.51h1.62
			c2.651,0,2.644-4,0-4h-7.33c0.54-0.64,1.11-1.26,1.71-1.85c3-2.98,6.51-5.24,10.34-6.7c1.55-0.6,3.17-1.07,4.82-1.39v1.39v29.74
			c0,2.642,4,2.646,4,0V90.75h5.3c0.81,2.22,2.94,3.81,5.45,3.81c3.2,0,5.81-2.6,5.81-5.81c0-1.29-0.42-2.48-1.14-3.44
			c19.414,10.048,16.013,31.324,16.33,32.64c0,0.747-0.299,0.318,6.94,10.35C161.517,128.609,161.301,129.05,160.91,129.05z
			 M113.62,124.5c0-1,0.81-1.81,1.81-1.81s1.81,0.81,1.81,1.81s-0.81,1.81-1.81,1.81S113.62,125.5,113.62,124.5z M105.44,113.58
			c0.99,0,1.81,0.81,1.81,1.81s-0.82,1.81-1.81,1.81c-1,0-1.82-0.81-1.82-1.81S104.44,113.58,105.44,113.58z"/>
		<path id="XMLID_3341_" class="st3" d="M244.35,83.96c3.98,0,7.21-3.24,7.21-7.21V12.48c0-3.98-3.23-7.21-7.21-7.21h-64.27
			c-3.97,0-7.21,3.23-7.21,7.21v56.36h-5.53V12.48c0-3.98-3.23-7.21-7.2-7.21H95.86c-3.97,0-7.2,3.23-7.2,7.21v56.36h-5.53V12.48
			c0-3.98-3.24-7.21-7.21-7.21H11.65c-3.98,0-7.21,3.23-7.21,7.21v64.27c0,3.97,3.23,7.21,7.21,7.21h57.19v4.7H11.65
			c-3.98,0-7.21,3.23-7.21,7.2v64.28c0,3.97,3.23,7.2,7.21,7.2h57.19v4.7H11.65c-3.98,0-7.21,3.24-7.21,7.21v64.27
			c0,3.98,3.23,7.21,7.21,7.21h64.27c3.97,0,7.21-3.23,7.21-7.21v-56.36h5.53v56.36c0,3.98,3.23,7.21,7.2,7.21h64.28
			c3.97,0,7.2-3.23,7.2-7.21v-56.36h5.53v56.36c0,3.98,3.24,7.21,7.21,7.21h64.27c3.98,0,7.21-3.23,7.21-7.21v-64.27
			c0-3.97-3.23-7.21-7.21-7.21h-57.19v-4.7h57.19c3.98,0,7.21-3.23,7.21-7.2V95.86c0-3.97-3.23-7.2-7.21-7.2h-57.19v-4.7H244.35z
			 M176.87,12.48c0-1.77,1.44-3.21,3.21-3.21h64.27c1.77,0,3.21,1.44,3.21,3.21v64.27c0,1.77-1.44,3.21-3.21,3.21h-57.19v-6.19
			c0-2.72-2.21-4.93-4.93-4.93h-5.36V12.48z M92.66,12.48c0-1.77,1.44-3.21,3.2-3.21h64.28c1.76,0,3.2,1.44,3.2,3.21v56.36H92.66
			V12.48z M11.65,79.96c-1.77,0-3.21-1.44-3.21-3.21V12.48c0-1.77,1.44-3.21,3.21-3.21h64.27c1.77,0,3.21,1.44,3.21,3.21v56.36
			h-5.36c-2.72,0-4.93,2.21-4.93,4.93v6.19H11.65z M11.65,163.34c-1.77,0-3.21-1.44-3.21-3.2V95.86c0-1.76,1.44-3.2,3.21-3.2h57.19
			v70.68H11.65z M79.13,243.52c0,1.77-1.44,3.21-3.21,3.21H11.65c-1.77,0-3.21-1.44-3.21-3.21v-64.27c0-1.77,1.44-3.21,3.21-3.21
			h57.19v6.19c0,2.72,2.21,4.93,4.93,4.93h5.36V243.52z M163.34,243.52c0,1.77-1.44,3.21-3.2,3.21H95.86c-1.76,0-3.2-1.44-3.2-3.21
			v-56.36h70.68V243.52z M244.35,176.04c1.77,0,3.21,1.44,3.21,3.21v64.27c0,1.77-1.44,3.21-3.21,3.21h-64.27
			c-1.77,0-3.21-1.44-3.21-3.21v-56.36h5.36c2.72,0,4.93-2.21,4.93-4.93v-6.19H244.35z M244.35,92.66c1.77,0,3.21,1.44,3.21,3.2
			v64.28c0,1.76-1.44,3.2-3.21,3.2h-57.19V92.66H244.35z M183.16,182.23c0,0.52-0.41,0.93-0.93,0.93c-36.193,0-72.328,0-108.46,0
			c-0.52,0-0.93-0.41-0.93-0.93c0-23.335,0-86.833,0-108.46c0-0.52,0.41-0.93,0.93-0.93c52.521,0,63.317,0,108.46,0
			c0.52,0,0.93,0.41,0.93,0.93C183.16,104.406,183.16,151.561,183.16,182.23z"/>
	</g>
</g>
</svg>
