<?xml version="1.0" encoding="utf-8"?>
<!-- Generator: Adobe Illustrator 18.0.0, SVG Export Plug-In . SVG Version: 6.00 Build 0)  -->
<!DOCTYPE svg PUBLIC "-//W3C//DTD SVG 1.1//EN" "http://www.w3.org/Graphics/SVG/1.1/DTD/svg11.dtd">
<svg version="1.1" id="Layer_1" xmlns="http://www.w3.org/2000/svg" xmlns:xlink="http://www.w3.org/1999/xlink" x="0px" y="0px"
	 viewBox="0 0 256 256" style="enable-background:new 0 0 256 256;" xml:space="preserve">
<style type="text/css">
	.st0{fill:#1C868E;}
	.st1{fill:#40C4DF;}
	.st2{fill:#56C1B3;}
	.st3{fill:#7BEFE4;}
	.st4{fill:#D8D6D7;}
	.st5{fill:#FFFFFF;}
	.st6{fill:#D73735;}
	.st7{fill:#F85252;}
	.st8{fill:#491352;}
</style>
<g id="XMLID_2177_">
	<path id="XMLID_2691_" class="st0" d="M164,14.05v213.5c0,2.7-2.2,4.9-4.9,4.9H9.3c-2.7,0-4.9-2.2-4.9-4.9V14.05
		c0-2.7,2.2-4.9,4.9-4.9h149.8C161.8,9.15,164,11.35,164,14.05z"/>
	<path id="XMLID_2687_" class="st1" d="M164,14.05v211.4H16.4c-2.7,0-4.9-2.2-4.9-4.9V9.15h147.6C161.8,9.15,164,11.35,164,14.05z"
		/>
	<path id="XMLID_2363_" class="st2" d="M145.3,28.35c2.7,0,4.9,2.2,4.9,4.9v175c0,2.7-2.2,4.9-4.9,4.9H23c-2.7,0-4.9-2.2-4.9-4.9
		v-175c0-2.7,2.2-4.9,4.9-4.9H145.3z"/>
	<path id="XMLID_2361_" class="st3" d="M145.3,28.35c2.7,0,4.9,2.2,4.9,4.9v165.8h-113c-2.7,0-4.9-2.2-4.9-4.9V28.35H145.3z"/>
	<path id="XMLID_2366_" class="st4" d="M116.6,9.75v20.5c0,3-2.4,5.4-5.4,5.4H59.3c-3,0-5.4-2.4-5.4-5.4V9.75c0-3,2.4-5.4,5.4-5.4
		h51.9C114.1,4.35,116.6,6.85,116.6,9.75z"/>
	<path id="XMLID_2360_" class="st5" d="M116.6,9.75v18.9H66.4c-3,0-5.4-2.4-5.4-5.4V4.35h50.2C114.1,4.35,116.6,6.85,116.6,9.75z"/>
	<path id="XMLID_2362_" class="st6" d="M98.4,29.25v1.4c0,0.5-0.1,1-0.2,1.5c-0.6,2-2.5,3.5-4.8,3.5H76.9c-2.8,0-5-2.2-5-5v-1.4
		c0-2.3,1.5-4.2,3.5-4.8c0.5-0.1,0.9-0.2,1.5-0.2h16.5C96.2,24.25,98.4,26.55,98.4,29.25z"/>
	<path id="XMLID_2357_" class="st7" d="M98.4,29.25v1.4c0,0.5-0.1,1-0.2,1.5H80.5c-2.8,0-5-2.2-5-5v-2.7c0.5-0.1,0.9-0.2,1.5-0.2
		h16.5C96.2,24.25,98.4,26.55,98.4,29.25z"/>
	<g id="XMLID_2063_">
		<path id="XMLID_2065_" class="st6" d="M251.4,182.35v17.4c0,2.6-2.1,4.7-4.7,4.7h-10.6c-0.9,3.1-2.2,6.2-3.8,9.1l7.5,7.5
			c1.8,1.8,1.8,4.8,0,6.6l-10.5,10.5l-1.8,1.8c-1.8,1.8-4.8,1.8-6.6,0l-4.4-4.4l-3.1-3.1c-2.9,1.6-6,2.8-9.1,3.8v10.6
			c0,2.6-2.1,4.7-4.7,4.7h-17.3c-2.6,0-4.7-2.1-4.7-4.7v-10.6h-0.1c-0.6-0.2-1.2-0.4-1.8-0.6c-2.4-0.8-4.8-1.9-7.1-3.1l-5.7,5.7
			l-1.8,1.8c-1.8,1.8-4.8,1.8-6.6,0l-12.3-12.3c-1.8-1.8-1.8-4.8,0-6.6l7.5-7.5c-1.5-2.7-2.6-5.4-3.5-8.3h-10.9
			c-2.6,0-4.7-2.1-4.7-4.7v-17.4c0-2.6,2.1-4.7,4.7-4.7h10.4c0.9-3.4,2.3-6.7,4-9.9l-7.5-7.5c-1.8-1.8-1.8-4.8,0-6.6l12.3-12.3
			c1.8-1.8,4.8-1.8,6.6,0l1.8,1.8l5.7,5.7c2.9-1.6,5.9-2.8,9-3.7h0.1v-10.6c0-2.6,2.1-4.7,4.7-4.7h17.4c2.6,0,4.7,2.1,4.7,4.7v10.5
			c3.1,0.9,6.2,2.2,9.1,3.8l3.1-3.1l4.4-4.4c1.8-1.8,4.8-1.8,6.6,0l1.8,1.8l10.5,10.4c1.8,1.8,1.8,4.8,0,6.6l-7.5,7.5
			c1.6,2.9,2.8,5.9,3.8,9.1h10.6C249.3,177.65,251.4,179.75,251.4,182.35z"/>
	</g>
	<path id="XMLID_1672_" class="st7" d="M251.4,182.35v17.4c0,2.6-2.1,4.7-4.7,4.7h-10.6c-0.9,3.1-2.2,6.2-3.8,9.1l7.5,7.5
		c1.8,1.8,1.8,4.8,0,6.6l-10.5,10.5l-1.8,1.8c-1.8,1.8-4.8,1.8-6.6,0l-4.4-4.4l-3.1-3.1c-2.9,1.6-6,2.8-9.1,3.8v10.6
		c0,2.6-2.1,4.7-4.7,4.7h-5.2c-3.6,0-6.6-2.9-6.6-6.6v-5c0-0.8-0.5-1.5-1.3-1.8c-2.2-0.7-4.5-1.7-6.6-2.8c-0.7-0.4-1.5-0.2-2.1,0.4
		l-0.4,0.4c-0.6-0.2-1.2-0.4-1.8-0.6c-2.4-0.8-4.8-1.9-7.1-3.1l-5.7,5.7l-10.5-10.5c-1.8-1.8-1.8-4.8,0-6.6l6.5-6.5
		c0.6-0.6,0.7-1.4,0.4-2.1c-1-1.9-1.8-3.9-2.5-5.9c-0.3-0.7-1-1.2-1.8-1.2h-7.7c-3.6,0-6.6-2.9-6.6-6.6v-15.5c0-2.6,2.1-4.7,4.7-4.7
		h9c0.8,0,1.5-0.6,1.8-1.3c0.8-2.5,1.8-5,3-7.3c0.4-0.7,0.2-1.6-0.3-2.2l-6.5-6.5c-1.8-1.8-1.8-4.8,0-6.6l10.5-10.4l5.7,5.7
		c2.9-1.6,5.9-2.8,9-3.7l0.5,0.5c0.5,0.5,1.2,0.6,1.8,0.3c2.2-1.1,4.5-2.1,6.8-2.8c0.8-0.3,1.3-1,1.3-1.8v-7.4c0-1.6,0.6-3,1.5-4.1
		h10.3c2.6,0,4.7,2.1,4.7,4.7v10.3c3.1,0.9,6.2,2.2,9.1,3.8l3.1-3.1l4.4-4.4c1.8-1.8,4.8-1.8,6.6,0l1.8,1.8l10.5,10.4
		c1.8,1.8,1.8,4.8,0,6.6l-7.5,7.5c1.6,2.9,2.8,5.9,3.8,9.1h10.6C249.3,177.65,251.4,179.75,251.4,182.35z"/>
	<path id="XMLID_2162_" class="st6" d="M206.2,206.35c-8.4,8.4-22.1,8.4-30.5,0c-8.4-8.4-8.5-22,0-30.5c8.4-8.4,22-8.5,30.5,0
		C214.6,184.25,214.6,197.85,206.2,206.35z"/>
	<g id="XMLID_2046_">
		<path id="XMLID_2096_" class="st8" d="M172.9,172.95c-10,10-10,26.2,0,36.2s26.2,10,36.1,0c10-10,10-26.2,0-36.2
			S182.9,162.95,172.9,172.95z M206.2,206.35c-8.4,8.4-22.1,8.4-30.5,0c-8.4-8.4-8.5-22,0-30.5c8.4-8.4,22-8.5,30.5,0
			C214.6,184.25,214.6,197.85,206.2,206.35z"/>
		<path id="XMLID_2161_" class="st8" d="M246.7,175.65h-9.2c-0.8-2.3-1.7-4.5-2.8-6.7l6.5-6.5c2.6-2.6,2.6-6.8,0-9.5l-12.3-12.3
			c-2.6-2.6-6.9-2.6-9.5,0l-6.5,6.5c-2.1-1.1-4.4-2-6.7-2.8v-9.1c0-3.7-3-6.7-6.7-6.7h-17.2c-3.7,0-6.7,3-6.7,6.7v9.1
			c-2.3,0.8-4.5,1.7-6.7,2.8l-2.9-2.9V14.05c0-3.8-3.1-6.9-6.9-6.9h-40.9c-0.9-2.8-3.6-4.7-6.6-4.7H58.9c-3.1,0-5.7,2-6.6,4.7h-43
			c-3.8,0-6.9,3.1-6.9,6.9v213.5c0,3.8,3.1,6.9,6.9,6.9h136.8l6.9,6.9c1.3,1.3,2.9,2,4.7,2s3.5-0.7,4.7-2l6.5-6.5
			c2.1,1.1,4.4,2,6.7,2.8v9.2c0,3.7,3,6.7,6.7,6.7h17.4c3.7,0,6.7-3,6.7-6.7v-9.2c2.3-0.8,4.6-1.7,6.7-2.8l6.5,6.5
			c2.6,2.6,6.9,2.6,9.5,0l12.3-12.3c2.6-2.6,2.6-6.9,0-9.5l-6.5-6.5c1.1-2.2,2-4.4,2.8-6.7h9.2c3.7,0,6.7-3,6.7-6.7v-17.4
			C253.4,178.65,250.4,175.65,246.7,175.65z M118.6,11.15h40.5c1.6,0,2.9,1.3,2.9,2.9v126.3c-1.2-1-2.7-1.6-4.3-1.6
			c-3.5,0-5.1,2.4-5.5,2.7V33.25c0-3.8-3.1-6.9-6.9-6.9h-26.8v-15.2H118.6z M55.9,9.35c0-1.6,1.4-3,3-3h52.7c1.7,0,3,1.4,3,3v21.3
			c0,1.7-1.3,3-3,3H99.8c0.3-0.6,0.5-1.3,0.6-2h7c2.5,0,4.5-2,4.5-4.5v-14.2c0-2.5-2-4.5-4.5-4.5H63.2c-2.5,0-4.5,2-4.5,4.5v14.2
			c0,2.5,2,4.5,4.5,4.5h7c0.1,0.7,0.3,1.4,0.6,2H58.9c-1.6,0-3-1.3-3-3C55.9,30.65,55.9,9.35,55.9,9.35z M93.4,22.25H77
			c-3.3,0-6.1,2.3-6.8,5.4h-7.1c-0.3,0-0.5-0.2-0.5-0.5v-14.2c0-0.3,0.2-0.5,0.5-0.5h44.2c0.3,0,0.5,0.2,0.5,0.5v14.2
			c0,0.3-0.2,0.5-0.5,0.5h-7.1C99.5,24.55,96.7,22.25,93.4,22.25z M96.4,29.25v1.4c0,0.3-0.1,0.7-0.2,1c-0.4,1.2-1.5,2-2.8,2H77
			c-1.3,0-2.4-0.8-2.8-2c-0.1-0.3-0.2-0.6-0.2-1v-1.4c0-0.6,0.2-1.1,0.5-1.6c0.5-0.8,1.5-1.4,2.5-1.4h16.4c1.1,0,2,0.5,2.5,1.4
			C96.3,28.15,96.4,28.75,96.4,29.25z M58.9,37.75H77h16.4h18.1c3.9,0,7-3.1,7-7v-0.3h26.8c1.6,0,2.9,1.3,2.9,2.9v112.2l-7.6,7.6
			c-2.6,2.6-2.6,6.8,0,9.4l6.5,6.5c-1.2,2.4-2.2,4.9-3,7.5h-8.9c-3.2,0-5.9,2.3-6.5,5.3H65.4c-1.1,0-2,0.9-2,2s0.9,2,2,2h63.1v4.9
			l0,0c0,5.1,0,8.9,0,11.6c0,2.8,2.2,5,5,5h11.1c0.4,1.3,1,2.6,1.5,3.8c-0.7,0.2,4.9,0.1-123.1,0.1c-1.6,0-2.9-1.3-2.9-2.9v-175
			c0-1.6,1.3-2.9,2.9-2.9h28.8v0.3C51.9,34.55,55,37.75,58.9,37.75z M9.3,230.45c-1.6,0-2.9-1.3-2.9-2.9V14.05
			c0-1.6,1.3-2.9,2.9-2.9h42.6v15.3H23.1c-3.8,0-6.9,3.1-6.9,6.9v175c0,3.8,3.1,6.9,6.9,6.9h122l-4.4,4.4c-2.6,2.6-2.6,6.9,0,9.5
			l1.4,1.4L9.3,230.45L9.3,230.45z M249.4,199.75c0,1.5-1.2,2.7-2.7,2.7h-12.1c-0.3,1-1.3,5.1-4,10.1l-0.7,1.3l8.6,8.6
			c1.1,1.1,1.1,2.8,0,3.8l-12.3,12.3c-1,1-2.8,1-3.8,0l-8.6-8.6c-1,0.5-4.5,2.7-10,4.3l-1.4,0.4v12.1c0,1.5-1.2,2.7-2.7,2.7h-17.4
			c-1.5,0-2.7-1.2-2.7-2.7v-12.1c-0.9-0.3-5.1-1.3-10.1-4l-1.3-0.7l-8.6,8.6c-1,1-2.8,1-3.8,0c-1.5-1.5-11.8-11.8-12.3-12.3
			c-1-1-1-2.8,0-3.8l8.6-8.6c-0.5-1.1-2.6-4.4-4.1-9.2l-0.4-1.4h-12.4c-1.1,0-2.1-0.7-2.5-1.7c-0.1-0.3-0.2-0.7-0.2-1
			c0.1-18-0.2-17.4,0.2-18.4c0.4-1,1.4-1.6,2.5-1.6h11.9c0.3-0.8,1.2-5.4,4.2-10.9l0.7-1.3c-6.3-6.3-8.1-8-8.5-8.5l-0.1-0.1
			c-1-1.1-1-2.8,0-3.8c5.9-5.9-1.3,1.3,12.3-12.3c1-1,2.8-1,3.8,0c0.1,0.1,8.5,8.5,8.6,8.6c0.9-0.4,4.5-2.7,10-4.3l1.4-0.4v-12.1
			c0-1.5,1.2-2.7,2.7-2.7h17.4c1.5,0,2.7,1.2,2.7,2.7v12.1c0.9,0.3,5,1.2,10.1,4l1.3,0.7l8.6-8.5c1.1-1,2.8-1.1,3.8,0l12.3,12.3
			c1.1,1.1,1.1,2.8,0,3.8l-8.6,8.6c0.4,0.8,2.6,4.4,4.3,10l0.4,1.4h12.1c1.5,0,2.7,1.2,2.7,2.7L249.4,199.75L249.4,199.75z"/>
		<path id="XMLID_2246_" class="st8" d="M33.9,54.05c0,1.1,0.9,2,2,2h16.7c1.1,0,2-0.9,2-2s-0.9-2-2-2H35.9
			C34.8,52.05,33.9,52.95,33.9,54.05z"/>
		<path id="XMLID_2247_" class="st8" d="M65.4,56.05h69.1c1.1,0,2-0.9,2-2s-0.9-2-2-2H65.4c-1.1,0-2,0.9-2,2S64.3,56.05,65.4,56.05z
			"/>
		<path id="XMLID_2248_" class="st8" d="M65.4,68.95h69.1c1.1,0,2-0.9,2-2s-0.9-2-2-2H65.4c-1.1,0-2,0.9-2,2S64.3,68.95,65.4,68.95z
			"/>
		<path id="XMLID_2249_" class="st8" d="M52.5,81.25H35.9c-1.1,0-2,0.9-2,2s0.9,2,2,2h16.7c1.1,0,2-0.9,2-2
			C54.5,82.15,53.6,81.25,52.5,81.25z"/>
		<path id="XMLID_2252_" class="st8" d="M65.4,85.25h69.1c1.1,0,2-0.9,2-2s-0.9-2-2-2H65.4c-1.1,0-2,0.9-2,2S64.3,85.25,65.4,85.25z
			"/>
		<path id="XMLID_2256_" class="st8" d="M65.4,98.15h69.1c1.1,0,2-0.9,2-2s-0.9-2-2-2H65.4c-1.1,0-2,0.9-2,2S64.3,98.15,65.4,98.15z
			"/>
		<path id="XMLID_2262_" class="st8" d="M52.5,110.45H35.9c-1.1,0-2,0.9-2,2s0.9,2,2,2h16.7c1.1,0,2-0.9,2-2
			S53.6,110.45,52.5,110.45z"/>
		<path id="XMLID_2263_" class="st8" d="M65.4,114.45h69.1c1.1,0,2-0.9,2-2s-0.9-2-2-2H65.4c-1.1,0-2,0.9-2,2
			S64.3,114.45,65.4,114.45z"/>
		<path id="XMLID_2264_" class="st8" d="M65.4,127.35h69.1c1.1,0,2-0.9,2-2s-0.9-2-2-2H65.4c-1.1,0-2,0.9-2,2
			S64.3,127.35,65.4,127.35z"/>
		<path id="XMLID_2265_" class="st8" d="M52.5,139.65H35.9c-1.1,0-2,0.9-2,2s0.9,2,2,2h16.7c1.1,0,2-0.9,2-2
			C54.5,140.55,53.6,139.65,52.5,139.65z"/>
		<path id="XMLID_2266_" class="st8" d="M65.4,143.65h69.1c1.1,0,2-0.9,2-2s-0.9-2-2-2H65.4c-1.1,0-2,0.9-2,2
			S64.3,143.65,65.4,143.65z"/>
		<path id="XMLID_2270_" class="st8" d="M65.4,156.55h69.1c1.1,0,2-0.9,2-2s-0.9-2-2-2H65.4c-1.1,0-2,0.9-2,2
			S64.3,156.55,65.4,156.55z"/>
		<path id="XMLID_2297_" class="st8" d="M52.5,168.85H35.9c-1.1,0-2,0.9-2,2s0.9,2,2,2h16.7c1.1,0,2-0.9,2-2
			C54.5,169.75,53.6,168.85,52.5,168.85z"/>
		<path id="XMLID_2300_" class="st8" d="M65.4,172.85h69.1c1.1,0,2-0.9,2-2s-0.9-2-2-2H65.4c-1.1,0-2,0.9-2,2
			S64.3,172.85,65.4,172.85z"/>
	</g>
</g>
</svg>
