<?xml version="1.0" encoding="utf-8"?>
<!-- Generator: Adobe Illustrator 22.1.0, SVG Export Plug-In . SVG Version: 6.00 Build 0)  -->
<svg version="1.1" id="Layer_1" xmlns="http://www.w3.org/2000/svg" xmlns:xlink="http://www.w3.org/1999/xlink" x="0px" y="0px"
	 viewBox="0 0 256 256" style="enable-background:new 0 0 256 256;" xml:space="preserve">
<style type="text/css">
	.st0{fill:#1C868E;}
	.st1{fill:#40C4DF;}
	.st2{fill:#F85252;}
	.st3{fill:#491352;}
	.st4{fill:#FFFFFF;}
	.st5{fill:#56C1B3;}
	.st6{fill:#7BEFE4;}
	.st7{fill:#D73735;}
	.st8{fill:#D8D6D7;}
	.st9{fill:#EDAF85;}
	.st10{fill:#F7C09A;}
	.st11{fill:none;stroke:#491352;stroke-width:4;stroke-miterlimit:10;}
</style>
<g>
	<path id="XMLID_1424_" class="st0" d="M125.33,28.611c-2.96-4.89-8.15-8.27-14.2-8.5c-6.22-0.24-11.75,2.77-15.04,7.46
		c-0.46,0.66-1.38,0.77-1.98,0.24c-4.4-3.84-10.61-5.65-17.2-3.93c-8.07,2.11-13.57,9.59-13.57,17.94c0,0.79-0.64,1.36-1.36,1.36
		c-0.16,0-0.31-0.03-0.47-0.08c-3-1.03-6.26-1.49-9.66-1.24c-10.74,0.79-19.8,8.77-21.96,19.33c-0.64,3.17-0.63,6.25-0.11,9.15
		c0.13,0.71-0.36,1.38-1.07,1.53c-14.21,2.99-24.88,15.59-24.88,30.7c0,9.85,4.55,18.65,11.66,24.4c0.66,0.53,0.66,1.53,0,2.06
		c-3.47,2.8-6.34,6.34-8.36,10.38c-2.11,4.22-3.3,8.98-3.3,14.02c0,15.11,10.67,27.71,24.88,30.7c0.71,0.15,1.2,0.82,1.07,1.53
		c-0.52,2.9-0.53,5.98,0.11,9.15c2.16,10.56,11.22,18.54,21.96,19.33c3.55,0.26,6.96-0.26,10.06-1.38c0.7-0.26,1.43,0.25,1.43,0.99
		c0,0.01,0,0.01,0,0.02c0,10.29,8.2,18.96,18.49,19c4.7,0.02,9-1.72,12.28-4.58c0.6-0.53,1.52-0.42,1.98,0.24
		c3.29,4.69,8.82,7.7,15.04,7.46c6.55-0.25,12.08-4.19,14.88-9.73c1.28-2.5,1.99-5.33,1.99-8.29V38.131
		C128,34.681,127.03,31.401,125.33,28.611z"/>
	<path id="XMLID_1377_" class="st0" d="M240.51,129.031c-0.66-0.53-0.66-1.53,0-2.06c7.11-5.75,11.66-14.55,11.66-24.4
		c0-15.11-10.67-27.71-24.88-30.7c-0.71-0.15-1.2-0.82-1.07-1.53c0.52-2.9,0.53-5.98-0.11-9.15c-2.16-10.56-11.22-18.54-21.96-19.33
		c-3.55-0.26-6.96,0.26-10.06,1.38c-0.7,0.26-1.43-0.25-1.43-0.99c0-0.01,0-0.01,0-0.02c0-10.29-8.2-18.96-18.49-19
		c-4.7-0.02-9,1.72-12.28,4.58c-0.6,0.53-1.52,0.42-1.98-0.24c-3.29-4.69-8.82-7.7-15.04-7.46c-9.51,0.36-16.87,8.51-16.87,18.02
		v179.74c0,9.51,7.36,17.66,16.87,18.02c6.22,0.24,11.75-2.77,15.04-7.46c0.46-0.66,1.38-0.77,1.98-0.24
		c4.4,3.84,10.61,5.65,17.2,3.93c8.07-2.11,13.57-9.59,13.57-17.94c0-0.79,0.64-1.36,1.36-1.36c0.16,0,0.31,0.03,0.47,0.08
		c3,1.03,6.26,1.49,9.66,1.24c10.74-0.79,19.8-8.77,21.96-19.33c0.64-3.17,0.63-6.25,0.11-9.15c-0.13-0.71,0.36-1.38,1.07-1.53
		c14.21-2.99,24.88-15.59,24.88-30.7c0-5.04-1.19-9.8-3.3-14.02C246.85,135.371,243.98,131.831,240.51,129.031z"/>
	<path id="XMLID_1532_" class="st1" d="M125.33,28.611c-2.96-4.89-8.15-8.27-14.2-8.5c-6.22-0.24-11.75,2.77-15.04,7.46
		c-0.46,0.66-1.38,0.77-1.98,0.24c-4.4-3.84-10.61-5.65-17.2-3.93c-8.07,2.11-13.57,9.59-13.57,17.94c0,0.79-0.64,1.36-1.36,1.36
		c-0.16,0-0.31-0.03-0.47-0.08c-3-1.03-6.26-1.49-9.66-1.24c-10.74,0.79-19.8,8.77-21.96,19.33c-0.64,3.17-0.63,6.25-0.11,9.15
		c0.13,0.71-0.36,1.38-1.07,1.53c-14.21,2.99-24.88,15.59-24.88,30.7c0,9.85,4.55,18.65,11.66,24.4c0.66,0.53,0.66,1.53,0,2.06
		c-3.47,2.8-6.34,6.34-8.36,10.38c4.22,8.43,12.11,14.69,21.58,16.68c0.71,0.15,1.2,0.82,1.07,1.53c-0.52,2.9-0.53,5.98,0.11,9.15
		c2.16,10.56,11.22,18.54,21.96,19.33c3.55,0.26,6.96-0.26,10.06-1.38c0.7-0.26,1.43,0.25,1.43,0.99c0,0.01,0,0.01,0,0.02
		c0,10.29,8.2,18.96,18.49,19c4.7,0.02,9-1.72,12.28-4.58c0.6-0.53,1.52-0.42,1.98,0.24c3.29,4.69,8.82,7.7,15.04,7.46
		c6.55-0.25,12.08-4.19,14.88-9.73c1.28-2.5,1.99-5.33,1.99-8.29v-151.7C128,34.681,127.03,31.401,125.33,28.611z"/>
	<path id="XMLID_1_" class="st1" d="M240.51,129.031c-0.66-0.53-0.66-1.53,0-2.06c7.11-5.75,11.66-14.55,11.66-24.4
		c0-15.11-10.67-27.71-24.88-30.7c-0.71-0.15-1.2-0.82-1.07-1.53c0.52-2.9,0.53-5.98-0.11-9.15c-2.16-10.56-11.22-18.54-21.96-19.33
		c-3.55-0.26-6.96,0.26-10.06,1.38c-0.7,0.26-1.43-0.25-1.43-0.99c0-0.01,0-0.01,0-0.02c0-10.29-8.2-18.96-18.49-19
		c-4.7-0.02-9,1.72-12.28,4.58c-0.6,0.53-1.52,0.42-1.98-0.24c-3.29-4.69-8.82-7.7-15.04-7.46c-9.51,0.36-16.87,8.51-16.87,18.02
		v151.7c0,9.51,7.36,17.66,16.87,18.02c6.22,0.24,11.75-2.77,15.04-7.46c0.46-0.66,1.38-0.77,1.98-0.24
		c4.4,3.84,10.61,5.65,17.2,3.93c8.07-2.11,13.57-9.59,13.57-17.94c0-0.79,0.64-1.36,1.36-1.36c0.16,0,0.31,0.03,0.47,0.08
		c3,1.03,6.26,1.49,9.66,1.24c10.74-0.79,19.8-8.77,21.96-19.33c0.64-3.17,0.63-6.25,0.11-9.15c-0.13-0.71,0.36-1.38,1.07-1.53
		c9.47-1.99,17.36-8.25,21.58-16.68C246.85,135.371,243.98,131.831,240.51,129.031z"/>
	<circle id="XMLID_46_" class="st2" cx="107.674" cy="81.65" r="8.405"/>
	<circle id="XMLID_45_" class="st2" cx="54.853" cy="92.396" r="8.405"/>
	<circle id="XMLID_43_" class="st2" cx="49.258" cy="144.591" r="8.405"/>
	<circle id="XMLID_39_" class="st2" cx="50.449" cy="182.055" r="8.405"/>
	<circle id="XMLID_38_" class="st2" cx="108.359" cy="200.988" r="8.405"/>
	<g>
		<path class="st1" d="M27.63,72.121c0.12,0.7-0.37,1.36-1.07,1.51c-4.54,0.95-8.71,2.89-12.3,5.58
			C18.01,75.841,22.57,73.371,27.63,72.121z"/>
	</g>
	<g>
		<path class="st3" d="M242.398,128.001c20.989-17.827,12.39-51.868-14.102-57.958c2.949-19.133-15.244-34.774-33.675-29.085
			c-1.004-16.976-20.457-25.732-33.496-15.113c-8.638-11.402-26.511-10.205-33.125,3.597c-6.567-13.703-24.4-15.116-33.125-3.597
			c-12.731-10.392-32.812-2.368-33.518,15.108c-18.421-5.664-36.604,9.955-33.654,29.091c-26.489,6.09-35.093,40.127-14.102,57.958
			c-20.989,17.827-12.39,51.868,14.102,57.958c-2.949,19.133,15.244,34.774,33.675,29.085c1.004,16.97,20.45,25.734,33.496,15.113
			c8.631,11.393,26.509,10.209,33.125-3.597c6.563,13.695,24.4,15.115,33.125,3.597c12.729,10.391,32.812,2.369,33.518-15.108
			c18.54,5.702,36.585-10.077,33.654-29.091C254.785,179.87,263.388,145.833,242.398,128.001z M52.854,43.84v19.595H31.565
			C32.843,52.687,41.72,44.229,52.854,43.84z M54.854,85.991c3.532,0,6.405,2.873,6.405,6.405s-2.873,6.405-6.405,6.405
			s-6.405-2.873-6.405-6.405S51.322,85.991,54.854,85.991z M126,217.867c0,15.437-19.442,21.99-28.275,9.412
			c-1.143-1.629-3.435-1.906-4.93-0.598c-4.402,3.848-10.785,5.297-16.74,2.973v-26.667h22.097
			c0.936,4.783,5.154,8.405,10.207,8.405c5.737,0,10.405-4.667,10.405-10.405s-4.667-10.405-10.405-10.405
			c-5.053,0-9.272,3.622-10.207,8.405H76.055v-35.833h11.44v14.9c0,2.642,4,2.646,4,0v-14.9h34.358c0.05,0,0.097-0.011,0.146-0.015
			V217.867z M101.954,200.988c0-3.532,2.873-6.405,6.405-6.405s6.405,2.873,6.405,6.405s-2.873,6.405-6.405,6.405
			S101.954,204.52,101.954,200.988z M126,117.645c-0.049-0.004-0.096-0.015-0.146-0.015h-16.179V91.858
			c4.783-0.936,8.405-5.154,8.405-10.207c0-5.737-4.667-10.405-10.405-10.405S97.27,75.913,97.27,81.65
			c0,5.053,3.622,9.272,8.405,10.207v27.773c0,1.104,0.896,2,2,2h18.179c0.05,0,0.097-0.011,0.146-0.015v37.554
			c-0.049-0.004-0.096-0.015-0.146-0.015H74.055c-1.104,0-2,0.896-2,2v18.9H60.656c-0.936-4.783-5.155-8.405-10.207-8.405
			c-5.737,0-10.405,4.667-10.405,10.405s4.668,10.405,10.405,10.405c5.053,0,9.272-3.622,10.207-8.405h11.398v43.347
			c-4.066-3.107-6.717-8.063-6.713-13.645c0-0.999-0.486-1.937-1.303-2.509c-2.58-1.811-4.061,1.478-12.043,0.896
			c-12.979-0.948-22.599-13.026-20.246-26.127c0.319-1.776-0.833-3.462-2.625-3.839c-23.908-5.033-31.738-35.929-12.376-51.589
			c1.65-1.334,1.647-3.842,0-5.174c-3.911-3.163-6.881-7.188-8.729-11.692h19.476v49.667c0,2.642,4,2.646,4,0v-16.798h7.555
			c0.936,4.783,5.154,8.405,10.207,8.405c5.737,0,10.405-4.667,10.405-10.405s-4.667-10.405-10.405-10.405
			c-5.053,0-9.272,3.622-10.207,8.405h-7.555v-28.869h39.167c2.642,0,2.646-4,0-4H6.718c-4.122-16.484,6.546-32.557,22.407-35.896
			c3.627-0.762,2.454-4.461,2.334-6.391h21.395v14.753c-4.783,0.936-8.405,5.155-8.405,10.207c0,5.737,4.667,10.405,10.405,10.405
			s10.405-4.667,10.405-10.405c0-5.053-3.622-9.272-8.405-10.207V44.043c4.044,0.585,5.093,1.929,7.084,0.507
			c0.879-0.628,1.403-1.649,1.403-2.732c-0.004-5.458,2.594-10.396,6.714-13.425v68.214c0,2.642,4,2.646,4,0V26.244
			c3.496-1.261,7.621-1.42,11.44-0.049v108.698c0,1.104,0.896,2,2,2s2-0.896,2-2V54.389c0.31,0,34.196,0.008,34.505-0.015V117.645z
			 M107.674,88.055c-3.532,0-6.405-2.873-6.405-6.405s2.873-6.405,6.405-6.405s6.405,2.873,6.405,6.405
			S111.206,88.055,107.674,88.055z M56.854,182.055c0,3.532-2.873,6.405-6.405,6.405s-6.405-2.873-6.405-6.405
			s2.874-6.405,6.405-6.405S56.854,178.523,56.854,182.055z M42.854,144.591c0-3.532,2.873-6.405,6.405-6.405
			s6.405,2.873,6.405,6.405s-2.873,6.405-6.405,6.405S42.854,148.123,42.854,144.591z M126,50.403
			c-0.309-0.023-34.195-0.015-34.505-0.015V28.302c1.348,0.965,2.113,2.043,3.894,1.823c0.938-0.113,1.789-0.623,2.336-1.401
			C106.551,16.152,126,22.682,126,38.136V50.403z M226.875,182.177c-1.792,0.376-2.944,2.063-2.625,3.839
			c0.924,5.144,0.047,10.643-2.889,15.466c-2.876-0.748-17.194,2.162-17.127-16.69c0.009-2.642-3.991-2.661-4-0.014
			c-0.046,12.951,5.763,19.834,18.167,20.561c-6.2,6.461-15.314,8.392-23.264,5.667c-2.2-0.752-4.48,0.865-4.479,3.178
			c0.01,14.793-17.093,21.556-27.453,12.497c-0.137-0.12-0.289-0.216-0.441-0.311c0.421-11.306,5.931-14.995,16.588-15.103
			c2.602,0,2.75-4-0.146-4c-13.368,0-20.124,6.255-20.447,19.466c-1,0.914-4.796,7.507-13.812,7.164
			c-8.242-0.313-14.948-7.504-14.948-16.029v-26.844c8.71,7.319,17.491,6.879,26.638-2.344c1.86-1.876-0.976-4.697-2.84-2.816
			c-8.375,8.443-15.366,8.19-23.501-0.001c-0.092-0.093-0.193-0.174-0.297-0.245V114.3c5.955,0.857,11.707-0.897,16.089-4.544
			c8.154,6.775,20.208,6.26,27.749-1.282c1.873-1.871-0.962-4.697-2.828-2.828c-6.029,6.028-15.569,6.442-22.09,1.258
			c6.586-8.097,6.114-20.064-1.418-27.596c-1.867-1.869-4.7,0.958-2.828,2.828c11.393,11.394,1.374,30.981-14.674,28.114V38.136
			c0-15.437,19.442-21.99,28.275-9.412c1.139,1.623,3.429,1.911,4.93,0.598c10.753-9.399,27.463-1.624,27.453,12.924
			c0,0.999,0.486,1.937,1.303,2.509c2.572,1.806,4.104-1.48,12.043-0.896c2.222,0.162,4.357,0.673,6.364,1.453
			c-0.185,11.523-5.503,15.859-16.458,15.859c-2.856,0-2.859,4-0.001,4c12.256,0,19.546-5.272,20.389-17.878
			c7.625,4.875,11.549,13.805,9.952,22.693c-0.319,1.776,0.833,3.462,2.625,3.839c23.908,5.033,31.738,35.929,12.376,51.589
			c-1.65,1.334-1.647,3.842,0,5.174C258.632,146.263,250.763,177.148,226.875,182.177z"/>
		<path class="st3" d="M178.75,147.438c0-2.642-4-2.646-4,0c0,6.6-5.369,11.969-11.969,11.969s-11.969-5.369-11.969-11.969
			c0-2.642-4-2.646-4,0c0,8.168,6.168,14.914,14.089,15.848c0.934,7.921,7.68,14.089,15.848,14.089c2.642,0,2.646-4,0-4
			c-5.973,0-10.924-4.403-11.813-10.132C172.723,162.186,178.75,155.511,178.75,147.438z"/>
		<path class="st3" d="M170.147,35.704c0-2.642-4-2.646-4,0c0,6.6-5.369,11.969-11.969,11.969s-11.969-5.369-11.969-11.969
			c0-2.642-4-2.646-4,0c0,8.168,6.168,14.914,14.089,15.848c0.934,7.921,7.68,14.089,15.848,14.089c2.642,0,2.646-4,0-4
			c-5.973,0-10.924-4.403-11.813-10.132C164.121,50.451,170.147,43.776,170.147,35.704z"/>
		<path class="st3" d="M229.198,124.342c2.642,0,2.646-4,0-4c-8.168,0-14.914,6.168-15.848,14.089
			c-13.164,1.553-16.991,17.848-12.089,17.848c1.104,0,2-0.896,2-2c0-5.973,4.403-10.924,10.132-11.813
			c1.058,7.787,7.734,13.813,15.806,13.813c2.642,0,2.646-4,0-4c-6.6,0-11.969-5.369-11.969-11.969S222.599,124.342,229.198,124.342
			z"/>
		<path class="st3" d="M239.685,94.543c1.86-1.876-0.976-4.697-2.84-2.816c-8.375,8.443-15.366,8.19-23.501-0.001
			c-1.859-1.876-4.703,0.941-2.838,2.818C220.201,104.307,229.736,104.575,239.685,94.543z"/>
		<path class="st3" d="M203.083,98.475c-13.61,0-20.691,6.312-20.632,20.633c0.011,2.646,4.01,2.627,4-0.017
			c-0.049-11.923,5.136-16.617,16.477-16.617C205.828,102.474,205.673,98.484,203.083,98.475z"/>
	</g>
</g>
</svg>
