<?xml version="1.0" encoding="utf-8"?>
<!-- Generator: Adobe Illustrator 18.0.0, SVG Export Plug-In . SVG Version: 6.00 Build 0)  -->
<!DOCTYPE svg PUBLIC "-//W3C//DTD SVG 1.1//EN" "http://www.w3.org/Graphics/SVG/1.1/DTD/svg11.dtd">
<svg version="1.1" id="Layer_1" xmlns="http://www.w3.org/2000/svg" xmlns:xlink="http://www.w3.org/1999/xlink" x="0px" y="0px"
	 viewBox="0 0 256 256" style="enable-background:new 0 0 256 256;" xml:space="preserve">
<style type="text/css">
	.st0{fill:#1C868E;}
	.st1{fill:#40C4DF;}
	.st2{fill:#56C1B3;}
	.st3{fill:#7BEFE4;}
	.st4{fill:#D73735;}
	.st5{fill:#F85252;}
	.st6{fill:#491352;}
</style>
<g>
	<g id="XMLID_1984_">
		<path id="XMLID_2426_" class="st0" d="M230.47,130.77V248c0,0.45-0.06,0.88-0.18,1.29c-0.56,2.13-2.51,3.71-4.82,3.71H30.53
			c-2.76,0-5-2.24-5-5V130.77c0-2.31,1.58-4.26,3.71-4.82c0.41-0.12,0.84-0.18,1.29-0.18h194.94
			C228.23,125.77,230.47,128.01,230.47,130.77z"/>
		<path id="XMLID_2379_" class="st1" d="M230.47,115.45v130.48H37.6c-2.761,0-5-2.239-5-5V115.45H230.47z"/>
		<path id="XMLID_2121_" class="st2" d="M128,120.45v115.5c0,0.51-0.08,1-0.21,1.47c-0.64,2.04-2.54,3.53-4.79,3.53H40.65
			c-2.76,0-5-2.24-5-5v-115.5c0-2.37,1.65-4.35,3.86-4.87c0.37-0.08,0.75-0.13,1.14-0.13H123C125.76,115.45,128,117.69,128,120.45z"
			/>
		<path id="XMLID_2117_" class="st2" d="M220.35,120.45v115.5c0,0.45-0.06,0.88-0.18,1.3c-0.56,2.13-2.51,3.7-4.82,3.7H133
			c-2.25,0-4.15-1.49-4.78-3.53c-0.14-0.47-0.22-0.96-0.22-1.47v-115.5c0-2.76,2.24-5,5-5h82.35
			C218.11,115.45,220.35,117.69,220.35,120.45z"/>
		<path id="XMLID_2120_" class="st3" d="M220.35,120.45v106.36H61.25c-6.32,0-11.46-2.24-11.46-5V115.45H123c2.76,0,5,2.24,5,5
			c0-2.76,2.24-5,5-5h82.35C218.11,115.45,220.35,117.69,220.35,120.45z"/>
		<g id="XMLID_2014_">
			<path id="XMLID_2016_" class="st4" d="M109.249,97.042v14.989c0,2.24-1.816,4.055-4.049,4.055h-9.164
				c-0.802,2.698-1.879,5.332-3.253,7.847l6.484,6.472c1.581,1.587,1.581,4.147,0,5.728l-9.032,9.038l-1.575,1.575
				c-1.581,1.575-4.141,1.575-5.728,0l-3.769-3.78l-2.703-2.709c-2.52,1.369-5.155,2.446-7.853,3.253v9.164
				c0,2.24-1.816,4.055-4.049,4.055H49.567c-2.24,0-4.055-1.816-4.055-4.055v-9.164c-0.04-0.011-0.08-0.023-0.12-0.04
				c-0.521-0.149-1.037-0.315-1.546-0.498c-2.113-0.727-4.175-1.632-6.169-2.715l-4.909,4.909l-1.575,1.581
				c-1.575,1.575-4.147,1.575-5.722,0l-10.608-10.613c-1.581-1.581-1.581-4.141,0-5.728l6.484-6.484
				c-1.254-2.291-2.268-4.685-3.024-7.137H8.935c-2.24,0-4.055-1.816-4.055-4.055V97.736c0-2.228,1.816-4.044,4.055-4.044h8.969
				c0.813-2.944,1.953-5.808,3.442-8.534l-6.484-6.489c-1.581-1.575-1.581-4.147,0-5.728L25.47,62.345
				c1.575-1.581,4.147-1.581,5.722,0l1.575,1.575l4.909,4.903c2.486-1.352,5.075-2.423,7.738-3.219
				c0.034-0.011,0.063-0.017,0.097-0.029v-9.164c0-2.234,1.816-4.049,4.055-4.049h14.989c2.234,0,4.049,1.816,4.049,4.049v9.164
				c2.698,0.796,5.327,1.873,7.841,3.248l2.715-2.709l3.769-3.769c1.587-1.581,4.147-1.581,5.728,0l1.575,1.575l9.032,9.021
				c1.581,1.581,1.581,4.153,0,5.728l-6.484,6.489c1.375,2.509,2.451,5.132,3.253,7.83h9.164
				C107.433,92.987,109.249,94.803,109.249,97.042z"/>
		</g>
		<path id="XMLID_2013_" class="st5" d="M109.249,97.042v14.989c0,2.24-1.816,4.055-4.049,4.055h-9.164
			c-0.802,2.698-1.879,5.332-3.253,7.847l6.484,6.472c1.581,1.587,1.581,4.147,0,5.728l-9.032,9.038l-1.575,1.575
			c-1.581,1.575-4.141,1.575-5.728,0l-3.769-3.78l-2.703-2.709c-2.52,1.369-5.155,2.446-7.853,3.253v9.164
			c0,2.24-1.816,4.055-4.049,4.055H60.05c-3.127,0-5.659-2.532-5.659-5.659v-4.342c0-0.699-0.458-1.306-1.123-1.529
			c-1.936-0.636-3.878-1.443-5.716-2.377c-0.63-0.315-1.335-0.183-1.827,0.315l-0.332,0.332c-0.521-0.149-1.037-0.315-1.546-0.498
			c-2.113-0.727-4.175-1.632-6.169-2.715l-4.909,4.909l-9.027-9.032c-1.581-1.581-1.581-4.141,0-5.728l5.647-5.647
			c0.487-0.487,0.613-1.232,0.304-1.844c-0.842-1.644-1.558-3.339-2.148-5.063c-0.218-0.642-0.831-1.065-1.512-1.065h-6.615
			c-3.127,0-5.659-2.532-5.659-5.659V97.736c0-2.228,1.816-4.044,4.055-4.044h7.767c0.716,0,1.329-0.475,1.541-1.157
			c0.664-2.165,1.518-4.284,2.554-6.335c0.315-0.63,0.212-1.38-0.281-1.879l-5.653-5.653c-1.581-1.575-1.581-4.147,0-5.728
			l9.027-9.021l4.909,4.903c2.486-1.352,5.075-2.423,7.738-3.219l0.464,0.464c0.401,0.401,1.019,0.487,1.524,0.229
			c1.902-0.979,3.86-1.793,5.859-2.451c0.67-0.218,1.128-0.825,1.128-1.529v-6.381c0-1.357,0.475-2.6,1.266-3.574h8.901
			c2.234,0,4.049,1.816,4.049,4.049v9.164c2.698,0.796,5.327,1.873,7.841,3.248l2.715-2.709l3.769-3.769
			c1.587-1.581,4.147-1.581,5.728,0l1.575,1.575l9.032,9.021c1.581,1.581,1.581,4.153,0,5.728l-6.484,6.489
			c1.375,2.509,2.451,5.132,3.253,7.83h9.164C107.433,92.987,109.249,94.803,109.249,97.042z"/>
		<g id="XMLID_2020_">
			<path id="XMLID_2021_" class="st4" d="M252.155,83.938v13.399c0,2.002-1.623,3.625-3.62,3.625h-8.192
				c-0.717,2.412-1.679,4.767-2.908,7.015l5.796,5.786c1.413,1.418,1.413,3.707,0,5.12l-8.074,8.08l-1.408,1.408
				c-1.413,1.408-3.702,1.408-5.12,0l-3.369-3.379l-2.417-2.422c-2.253,1.224-4.608,2.186-7.02,2.908v8.192
				c0,2.002-1.623,3.625-3.62,3.625h-13.399c-2.002,0-3.625-1.623-3.625-3.625v-8.192c-0.036-0.01-0.072-0.02-0.108-0.036
				c-0.466-0.133-0.927-0.282-1.382-0.446c-1.889-0.65-3.733-1.459-5.514-2.427l-4.388,4.388l-1.408,1.413
				c-1.408,1.408-3.707,1.408-5.115,0l-9.483-9.488c-1.413-1.413-1.413-3.702,0-5.12l5.796-5.796
				c-1.121-2.048-2.028-4.188-2.703-6.38h-8.392c-2.002,0-3.625-1.623-3.625-3.625V84.557c0-1.992,1.623-3.615,3.625-3.615h8.018
				c0.727-2.632,1.746-5.192,3.077-7.629l-5.796-5.801c-1.413-1.408-1.413-3.707,0-5.12l9.483-9.472
				c1.408-1.413,3.707-1.413,5.115,0l1.408,1.408l4.388,4.383c2.222-1.208,4.536-2.166,6.917-2.877
				c0.031-0.01,0.056-0.015,0.087-0.026v-8.192c0-1.997,1.623-3.62,3.625-3.62h13.399c1.997,0,3.62,1.623,3.62,3.62v8.192
				c2.412,0.712,4.762,1.674,7.009,2.903l2.427-2.422l3.369-3.369c1.418-1.413,3.707-1.413,5.12,0l1.408,1.408l8.074,8.064
				c1.413,1.413,1.413,3.712,0,5.12l-5.796,5.801c1.229,2.243,2.191,4.588,2.908,6.999h8.192
				C250.532,80.312,252.155,81.936,252.155,83.938z"/>
		</g>
		<path id="XMLID_2018_" class="st5" d="M252.155,83.938v13.399c0,2.002-1.623,3.625-3.62,3.625h-8.192
			c-0.717,2.412-1.679,4.767-2.908,7.015l5.796,5.786c1.413,1.418,1.413,3.707,0,5.12l-8.074,8.08l-1.408,1.408
			c-1.413,1.408-3.702,1.408-5.12,0l-3.369-3.379l-2.417-2.422c-2.253,1.224-4.608,2.186-7.02,2.908v8.192
			c0,2.002-1.623,3.625-3.62,3.625h-4.03c-2.796,0-5.059-2.263-5.059-5.059v-3.881c0-0.625-0.41-1.167-1.004-1.367
			c-1.731-0.568-3.466-1.29-5.11-2.125c-0.563-0.282-1.193-0.164-1.633,0.282l-0.297,0.297c-0.466-0.133-0.927-0.282-1.382-0.446
			c-1.889-0.65-3.733-1.459-5.514-2.427l-4.388,4.388l-8.069-8.074c-1.413-1.413-1.413-3.702,0-5.12l5.048-5.048
			c0.435-0.435,0.548-1.101,0.271-1.649c-0.753-1.469-1.393-2.985-1.92-4.526c-0.195-0.574-0.742-0.952-1.352-0.952h-5.914
			c-2.796,0-5.059-2.263-5.059-5.059V84.557c0-1.992,1.623-3.615,3.625-3.615h6.943c0.64,0,1.188-0.425,1.377-1.034
			c0.594-1.935,1.357-3.83,2.284-5.663c0.282-0.563,0.189-1.234-0.251-1.679l-5.054-5.054c-1.413-1.408-1.413-3.707,0-5.12
			l8.069-8.064l4.388,4.383c2.222-1.208,4.536-2.166,6.917-2.877l0.415,0.415c0.358,0.359,0.911,0.435,1.362,0.205
			c1.7-0.876,3.451-1.603,5.238-2.191c0.599-0.195,1.009-0.737,1.009-1.367V47.19c0-1.213,0.425-2.325,1.132-3.195h7.957
			c1.997,0,3.62,1.623,3.62,3.62v8.192c2.412,0.712,4.762,1.674,7.009,2.903l2.427-2.422l3.369-3.369
			c1.418-1.413,3.707-1.413,5.12,0l1.408,1.408l8.074,8.064c1.413,1.413,1.413,3.712,0,5.12l-5.796,5.801
			c1.229,2.243,2.191,4.588,2.908,6.999h8.192C250.532,80.312,252.155,81.936,252.155,83.938z"/>
		<g id="XMLID_2023_">
			<path id="XMLID_2027_" class="st4" d="M165.367,35.394v10.38c0,1.551-1.257,2.808-2.804,2.808h-6.346
				c-0.555,1.868-1.301,3.693-2.253,5.434l4.49,4.482c1.095,1.099,1.095,2.872,0,3.966l-6.255,6.259l-1.091,1.091
				c-1.095,1.091-2.868,1.091-3.966,0l-2.61-2.618l-1.872-1.876c-1.745,0.948-3.57,1.694-5.438,2.253v6.346
				c0,1.551-1.257,2.808-2.804,2.808h-10.38c-1.551,0-2.808-1.257-2.808-2.808v-6.346c-0.028-0.008-0.056-0.016-0.083-0.028
				c-0.361-0.103-0.718-0.218-1.071-0.345c-1.464-0.504-2.891-1.13-4.272-1.88l-3.399,3.399l-1.091,1.095
				c-1.091,1.091-2.872,1.091-3.962,0l-7.346-7.35c-1.095-1.095-1.095-2.868,0-3.966l4.49-4.49
				c-0.869-1.587-1.571-3.244-2.094-4.942h-6.501c-1.551,0-2.808-1.257-2.808-2.808V35.874c0-1.543,1.257-2.8,2.808-2.8h6.211
				c0.563-2.039,1.353-4.022,2.384-5.91l-4.49-4.494c-1.095-1.091-1.095-2.871,0-3.966l7.346-7.338c1.091-1.095,2.872-1.095,3.962,0
				l1.091,1.091l3.399,3.395c1.721-0.936,3.514-1.678,5.358-2.229c0.024-0.008,0.044-0.012,0.067-0.02V7.257
				c0-1.547,1.257-2.804,2.808-2.804h10.38c1.547,0,2.804,1.257,2.804,2.804v6.346c1.868,0.551,3.689,1.297,5.43,2.249l1.88-1.876
				l2.61-2.61c1.099-1.095,2.872-1.095,3.966,0l1.091,1.091l6.255,6.247c1.095,1.095,1.095,2.876,0,3.966l-4.49,4.494
				c0.952,1.737,1.698,3.554,2.253,5.422h6.346C164.109,32.586,165.367,33.843,165.367,35.394z"/>
		</g>
		<path id="XMLID_2022_" class="st5" d="M165.367,35.394v10.38c0,1.551-1.257,2.808-2.804,2.808h-6.346
			c-0.555,1.868-1.301,3.693-2.253,5.434l4.49,4.482c1.095,1.099,1.095,2.872,0,3.966l-6.255,6.259l-1.091,1.091
			c-1.095,1.091-2.868,1.091-3.966,0l-2.61-2.618l-1.872-1.876c-1.745,0.948-3.57,1.694-5.438,2.253v6.346
			c0,1.551-1.257,2.808-2.804,2.808h-3.121c-2.166,0-3.919-1.753-3.919-3.919v-3.006c0-0.484-0.317-0.904-0.777-1.059
			c-1.341-0.44-2.685-1-3.958-1.646c-0.436-0.218-0.924-0.127-1.265,0.218l-0.23,0.23c-0.361-0.103-0.718-0.218-1.071-0.345
			c-1.464-0.504-2.891-1.13-4.272-1.88l-3.399,3.399l-6.251-6.255c-1.095-1.095-1.095-2.868,0-3.966l3.911-3.911
			c0.337-0.337,0.424-0.853,0.21-1.277c-0.583-1.138-1.079-2.312-1.487-3.506c-0.151-0.444-0.575-0.738-1.047-0.738h-4.581
			c-2.166,0-3.919-1.753-3.919-3.919v-9.273c0-1.543,1.257-2.8,2.808-2.8h5.378c0.496,0,0.92-0.329,1.067-0.801
			c0.46-1.499,1.051-2.967,1.769-4.387c0.218-0.436,0.147-0.956-0.194-1.301l-3.915-3.915c-1.095-1.091-1.095-2.871,0-3.966
			l6.251-6.247l3.399,3.395c1.721-0.936,3.514-1.678,5.358-2.229l0.321,0.321c0.278,0.278,0.706,0.337,1.055,0.159
			c1.317-0.678,2.673-1.241,4.057-1.698c0.464-0.151,0.781-0.571,0.781-1.059V6.928c0-0.94,0.329-1.801,0.877-2.475h6.164
			c1.547,0,2.804,1.257,2.804,2.804v6.346c1.868,0.551,3.689,1.297,5.43,2.249l1.88-1.876l2.61-2.61
			c1.099-1.095,2.872-1.095,3.966,0l1.091,1.091l6.255,6.247c1.095,1.095,1.095,2.876,0,3.966l-4.49,4.494
			c0.952,1.737,1.698,3.554,2.253,5.422h6.346C164.109,32.586,165.367,33.843,165.367,35.394z"/>
		<g id="XMLID_1550_">
			<path id="XMLID_1707_" class="st6" d="M95.87,51.07h5.07c0.32,0.87,0.68,1.73,1.09,2.57l-3.46,3.46
				c-1.919,1.898-1.863,4.957-0.01,6.79l7.36,7.36c1.86,1.87,4.91,1.87,6.8,0l3.46-3.47c0.99,0.48,2,0.9,3.04,1.27v4.9
				c0,2.65,2.16,4.81,4.81,4.81h10.39c2.65,0,4.81-2.16,4.81-4.81v-4.9c1.04-0.37,2.06-0.79,3.05-1.27l3.46,3.48
				c1.88,1.86,4.93,1.86,6.79-0.01l7.36-7.36c1.87-1.86,1.87-4.91,0-6.8l-3.47-3.45c0.48-0.99,0.9-2.01,1.27-3.05h4.9
				c2.65,0,4.81-2.16,4.81-4.81V35.39c0-2.65-2.16-4.81-4.81-4.81h-4.9c-0.37-1.04-0.79-2.05-1.27-3.04l3.48-3.47
				c1.86-1.88,1.86-4.93-0.01-6.8l-7.35-7.34c-1.669-1.687-4.725-2.098-6.8,0l-3.46,3.46c-0.99-0.48-2.01-0.9-3.05-1.27V7.23
				c0-2.65-2.16-4.81-4.81-4.81h-10.39c-2.65,0-4.81,2.16-4.81,4.81v4.89c-1.04,0.37-2.06,0.79-3.05,1.27l-3.46-3.46
				c-1.904-1.904-4.973-1.858-6.79,0l-7.35,7.34c-0.91,0.9-1.41,2.11-1.42,3.39c0,1.29,0.5,2.5,1.42,3.41l3.46,3.47
				c-0.55,1.13-1.02,2.31-1.43,3.52h-4.73c-2.65,0-4.81,2.16-4.81,4.81v10.39C91.06,48.91,93.22,51.07,95.87,51.07z M95.06,35.87
				c0-0.45,0.36-0.81,0.81-0.81h7.73l0.41-1.46c0.54-1.94,1.29-3.79,2.22-5.49l0.71-1.32l-5.55-5.54
				c-0.329-0.346-0.301-0.834,0-1.15l7.36-7.35c0.309-0.309,0.82-0.305,1.14,0l5.54,5.55l1.32-0.71c1.59-0.88,3.29-1.58,5.03-2.09
				l1.44-0.42V7.23c0-0.45,0.36-0.81,0.81-0.81h10.39c0.45,0,0.81,0.36,0.81,0.81v7.85l1.44,0.42c1.74,0.51,3.44,1.21,5.03,2.09
				l1.32,0.71l5.54-5.55c0.318-0.303,0.824-0.31,1.15,0l7.36,7.35c0.31,0.32,0.31,0.83,0,1.14l-5.56,5.55
				c0.467,0.94,1.812,2.971,2.8,6.36l0.42,1.43h7.86c0.45,0,0.81,0.36,0.81,0.81v10.39c0,0.45-0.36,0.81-0.81,0.81h-7.86l-0.42,1.43
				c-0.51,1.75-1.21,3.45-2.09,5.06l-0.71,1.31l5.55,5.53c0.32,0.32,0.32,0.83,0.01,1.15l-7.36,7.36c-0.32,0.31-0.83,0.31-1.14,0
				l-5.54-5.56l-1.31,0.71c-1.61,0.88-3.31,1.58-5.05,2.09l-1.44,0.42v7.86c0,0.45-0.36,0.81-0.81,0.81h-10.39
				c-0.45,0-0.81-0.36-0.81-0.81v-7.86l-1.44-0.42c-1.74-0.51-3.44-1.21-5.03-2.09l-1.32-0.71l-5.54,5.55
				c-0.32,0.32-0.83,0.32-1.14,0.01l-7.36-7.37c-0.292-0.292-0.336-0.788,0-1.14l5.55-5.54l-0.72-1.32c-0.79-1.46-1.45-3-1.94-4.58
				l-0.44-1.41h-7.97c-0.45,0-0.81-0.36-0.81-0.81V35.87z"/>
			<path id="XMLID_1712_" class="st6" d="M129.23,56.63c8.887,0,16.04-7.208,16.04-16.04c0-8.896-7.216-16.05-16.04-16.05
				c-8.861,0-16.05,7.19-16.05,16.05C113.18,49.415,120.335,56.63,129.23,56.63z M129.23,28.54c6.651,0,12.04,5.407,12.04,12.05
				c0,6.737-5.487,12.04-12.04,12.04c-6.645,0-12.05-5.39-12.05-12.04C117.18,33.973,122.54,28.54,129.23,28.54z"/>
			<path id="XMLID_1722_" class="st6" d="M248.78,78.27H242c-0.54-1.6-1.19-3.16-1.93-4.67l4.79-4.8c2.2-2.2,2.2-5.77,0-7.97
				l-9.54-9.53c-2.19-2.2-5.76-2.2-7.97,0l-4.8,4.79c-1.49-0.75-3.05-1.4-4.66-1.94v-6.78c0-3.11-2.53-5.64-5.65-5.64h-13.48
				c-3.11,0-5.64,2.53-5.64,5.64v6.78c-1.59,0.54-3.15,1.19-4.67,1.94l-4.8-4.79c-2.19-2.2-5.77-2.2-7.97,0l-9.53,9.53
				c-2.2,2.2-2.2,5.77,0,7.97l4.79,4.8c-0.84,1.7-1.56,3.47-2.14,5.29h-6.57c-3.11,0-5.65,2.53-5.65,5.65v13.48
				c0,3.11,2.54,5.64,5.65,5.64h6.99c0.49,1.38,1.07,2.73,1.72,4.04c-4.762,4.816-5.036,4.901-5.56,5.75H133
				c-1.96,0-3.73,0.81-5,2.11c-1.27-1.3-3.04-2.11-5-2.11h-11.88c0.06-0.36,0.1-0.73,0.1-1.11V97.37c0-3.34-2.71-6.05-6.05-6.05
				h-7.69c-0.62-1.86-1.38-3.68-2.25-5.44l5.43-5.44c2.36-2.36,2.36-6.19,0-8.56L90.07,61.31c-2.35-2.36-6.19-2.36-8.54-0.01
				l-5.45,5.44c-1.75-0.88-3.58-1.64-5.44-2.26V56.8c0-3.34-2.71-6.05-6.05-6.05H49.62c-3.34,0-6.05,2.71-6.05,6.05v7.68
				c-1.84,0.62-3.67,1.37-5.44,2.26l-5.44-5.43c-2.36-2.36-6.19-2.36-8.55,0L13.56,71.89c-2.36,2.36-2.36,6.19,0,8.55l5.43,5.44
				c-0.99,1.97-1.82,4.03-2.48,6.14H9.05C5.71,92.02,3,94.73,3,98.07v14.97c0,3.33,2.71,6.04,6.05,6.04h7.92
				c0.57,1.62,1.24,3.21,2.02,4.75l-5.43,5.45c-2.36,2.35-2.36,6.19-0.01,8.54l9.98,9.98V248c0,3.86,3.14,7,7,7h194.94
				c3.86,0,7-3.14,7-7V131.55c1.05-0.22,2.04-0.73,2.85-1.54l9.54-9.54c2.2-2.19,2.2-5.76,0-7.98l-4.79-4.78
				c0.74-1.51,1.39-3.07,1.93-4.68h6.78c3.12,0,5.65-2.53,5.65-5.64V83.91C254.43,80.8,251.9,78.27,248.78,78.27z M133,117.45h31.58
				c0.467,2.729,2.344,3.514,4.86,6.32l0,0c0.233,0.233,6.34,6.34,6.24,6.24c2.2,2.2,5.78,2.2,7.97,0l2.24-2.24l2.56-2.55
				c1.51,0.74,3.07,1.39,4.67,1.93v0.62v6.16c0,0.57,0.08,1.12,0.24,1.64h-51.52c-1.11,0-2,0.9-2,2c0,1.11,0.89,2,2,2
				c26.034,0,44.074,0,70.4,0c3.12,0,5.65-2.53,5.65-5.64c0-0.18,0-7.038,0-6.78c0.15-0.05,0.31-0.1,0.46-0.16
				c0,16.24,0,92.776,0,108.96c0,1.66-1.35,3-3,3H133c-1.65,0-3-1.34-3-3c0-2.317,0-117.812,0-115.5
				C130,118.8,131.35,117.45,133,117.45z M123,117.45c1.65,0,3,1.35,3,3c0,3.559,0,110.759,0,115.5c0,1.66-1.35,3-3,3H40.65
				c-1.65,0-3-1.34-3-3v-92.49l0.48-0.48c1.76,0.87,3.58,1.63,5.44,2.25v7.69c0,3.34,2.71,6.05,6.05,6.05h14.97
				c3.07,0,5.6-2.28,5.99-5.24H113c1.1,0,2-0.9,2-2s-0.9-2-2-2H88.1c0.72-0.3,1.39-0.74,1.97-1.32l8.84-8.84H113c1.1,0,2-0.89,2-2
				c0-1.1-0.9-2-2-2h-10.92c0.76-2.12,0.28-4.59-1.42-6.29l-1.51-1.51l-3.92-3.93c0.01-0.02,0.02-0.05,0.03-0.07
				c0.86-1.74,1.61-3.53,2.22-5.38h7.69c1.19,0,2.29-0.34,3.23-0.94H123z M70.64,149.73v-4.5c1.87-0.62,3.69-1.38,5.45-2.25
				l5.44,5.43c0.58,0.58,1.25,1.02,1.97,1.32H70.64z M16.38,135c-0.79-0.8-0.79-2.1,0-2.9l7.53-7.54l-0.71-1.31
				c-1.19-2.17-2.15-4.44-2.87-6.76l-0.43-1.41H9.05c-1.13,0-2.05-0.91-2.05-2.04V98.07c0-1.13,0.92-2.05,2.05-2.05h10.47l0.41-1.47
				c0.78-2.82,1.88-5.54,3.27-8.09l0.71-1.32l-7.53-7.52c-0.8-0.8-0.8-2.11,0-2.91l10.58-10.58c0.8-0.8,2.11-0.8,2.91,0l7.52,7.53
				l1.31-0.71c2.4-1.3,4.9-2.34,7.43-3.08l1.44-0.42V56.8c0-1.13,0.92-2.05,2.05-2.05h14.97c1.13,0,2.05,0.92,2.05,2.05v10.65
				l1.44,0.42c2.57,0.75,5.06,1.79,7.42,3.08l1.31,0.71l7.54-7.53c0.8-0.79,2.1-0.79,2.9,0l10.59,10.58c0.8,0.8,0.8,2.11,0,2.91
				l-7.53,7.52l0.71,1.31c1.28,2.36,2.32,4.86,3.08,7.44l0.43,1.43h10.64c1.13,0,2.05,0.92,2.05,2.05v14.97
				c0,0.4-0.12,0.79-0.33,1.11c-0.36,0.56-1,0.94-1.72,0.94H94.53c-0.263,0.74-1.145,4.547-3.51,8.88
				c-0.055,0.101-0.765,1.411-0.71,1.31l3.19,3.19l4.34,4.33c0.79,0.8,0.79,2.1,0,2.9l-4.57,4.57l-6.02,6.02
				c-0.8,0.79-2.1,0.79-2.9,0l-6.01-6.02l-1.51-1.51l-1.31,0.71c-0.51,0.28-1.03,0.55-1.56,0.8c-1.89,0.92-3.86,1.68-5.89,2.28
				l-1.43,0.43v7.45v3.19c0,0.28-0.06,0.56-0.16,0.81c-0.32,0.73-1.05,1.24-1.89,1.24H49.62c-1.13,0-2.05-0.92-2.05-2.05v-0.26
				v-1.86v-8.52l-1.43-0.43c-2.58-0.76-5.08-1.8-7.44-3.08l-1.05-0.57l-0.26-0.14l-3.74,3.74l-3.78,3.79
				c-0.63,0.63-1.58,0.76-2.34,0.39c-0.21-0.09-0.4-0.22-0.57-0.39l-3.43-3.43L16.38,135z M228.47,248c0,1.65-1.35,3-3,3H30.53
				c-1.65,0-3-1.35-3-3v-97.89c1.83,0.27,3.75-0.29,5.16-1.7l0.96-0.96v88.5c0,3.86,3.14,7,7,7H123c1.96,0,3.73-0.81,5-2.11
				c1.27,1.3,3.04,2.11,5,2.11h82.35c3.86,0,7-3.14,7-7V127.77v-2.45c0.07-0.03,0.14-0.07,0.21-0.1
				c4.62,4.552,4.871,5.078,5.91,5.65L228.47,248L228.47,248z M250.43,97.39c0,0.9-0.74,1.64-1.65,1.64h-9.73l-0.43,1.43
				c-0.69,2.33-1.62,4.58-2.76,6.67l-0.71,1.32l6.88,6.87c0.64,0.64,0.64,1.69,0.01,2.33l-9.54,9.54
				c-0.558,0.558-1.629,0.684-2.33,0l-3.26-3.27l-3.61-3.62c-1.596,0.719-1.99,1.569-9.41,3.9v3.57v6.16c0,0.9-0.74,1.64-1.65,1.64
				c-4.715,0-8.765,0-13.48,0c-0.9,0-1.64-0.74-1.64-1.64v-6.16v-3.57l-1.43-0.43c-2.32-0.69-4.56-1.61-6.66-2.76l-1.32-0.71
				l-3.46,3.47l-3.42,3.42c-0.65,0.64-1.69,0.64-2.33,0l-3.42-3.42l-6.11-6.12c-0.06-0.06-0.11-0.13-0.15-0.2
				c-0.47-0.64-0.42-1.55,0.15-2.13c0.119-0.119,6.993-6.993,6.89-6.89l-0.72-1.31c-1.05-1.92-1.92-3.96-2.57-6.06l-0.44-1.4h-9.9
				c-0.91,0-1.65-0.74-1.65-1.64V84.54c0-0.91,0.74-1.65,1.65-1.65h9.58l0.41-1.47c0.7-2.53,1.68-4.97,2.92-7.24l0.72-1.32
				l-6.89-6.88c-0.64-0.64-0.64-1.69,0-2.33l9.53-9.53c0.64-0.64,1.69-0.64,2.33,0l6.88,6.89l1.32-0.71
				c2.12-1.16,4.36-2.09,6.66-2.77l1.43-0.43v-9.73c0-0.9,0.74-1.64,1.64-1.64h13.48c0.91,0,1.65,0.74,1.65,1.64v9.73l1.43,0.43
				c2.33,0.69,4.57,1.62,6.65,2.76l1.31,0.73l6.89-6.89c0.64-0.64,1.69-0.64,2.33-0.01l9.54,9.53c0.64,0.64,0.64,1.69,0,2.33
				l-6.89,6.88l0.71,1.32c1.15,2.1,2.08,4.34,2.76,6.66l0.43,1.43h9.73c0.91,0,1.65,0.74,1.65,1.64L250.43,97.39L250.43,97.39z"/>
			<path id="XMLID_1760_" class="st6" d="M205.51,70.43c-5.4,0-10.48,2.11-14.3,5.93s-5.92,8.89-5.92,14.29s2.1,10.48,5.92,14.3
				c3.94,3.94,9.12,5.91,14.3,5.91c2.59,0,5.17-0.49,7.61-1.48c2.43-0.98,4.71-2.46,6.68-4.43c7.88-7.89,7.88-20.71,0-28.59
				C215.98,72.54,210.91,70.43,205.51,70.43z M216.97,102.12c-6.32,6.32-16.61,6.32-22.93,0c-3.07-3.06-4.75-7.14-4.75-11.47
				s1.68-8.4,4.75-11.46c3.06-3.07,7.13-4.76,11.47-4.76c4.33,0,8.4,1.69,11.46,4.76C223.29,85.51,223.29,95.8,216.97,102.12z"/>
			<path id="XMLID_1892_" class="st6" d="M41.39,120.58c7.551,7.49,18.927,8.444,27.39,3.19c12.039-7.356,14.277-24.403,4.05-34.63
				c-8.683-8.683-22.749-8.692-31.44,0C32.707,97.822,32.703,111.892,41.39,120.58z M44.22,91.97c7.092-7.112,18.662-7.138,25.78,0
				c7.075,7.075,7.143,18.628,0,25.78c-6.749,6.749-18.196,7.578-26.07-0.3C37.125,110.352,37.164,99.006,44.22,91.97z"/>
			<path id="XMLID_1893_" class="st6" d="M113,224.33H49.33c-1.1,0-2,0.9-2,2c0,1.11,0.9,2,2,2H113c1.1,0,2-0.89,2-2
				C115,225.23,114.1,224.33,113,224.33z"/>
			<path id="XMLID_1894_" class="st6" d="M113,209.41H49.33c-1.1,0-2,0.9-2,2c0,1.11,0.9,2,2,2H113c1.1,0,2-0.89,2-2
				C115,210.31,114.1,209.41,113,209.41z"/>
			<path id="XMLID_1895_" class="st6" d="M113,194.49H71.17c-1.11,0-2,0.9-2,2c0,1.11,0.89,2,2,2H113c1.1,0,2-0.89,2-2
				C115,195.39,114.1,194.49,113,194.49z"/>
			<path id="XMLID_1896_" class="st6" d="M49.33,198.49H61c1.1,0,2-0.89,2-2c0-1.1-0.9-2-2-2H49.33c-1.1,0-2,0.9-2,2
				C47.33,197.6,48.23,198.49,49.33,198.49z"/>
			<path id="XMLID_1897_" class="st6" d="M113,179.57H49.33c-1.1,0-2,0.9-2,2c0,1.11,0.9,2,2,2H113c1.1,0,2-0.89,2-2
				C115,180.47,114.1,179.57,113,179.57z"/>
			<path id="XMLID_1898_" class="st6" d="M113,164.65h-13c-1.1,0-2,0.9-2,2s0.9,2,2,2h13c1.1,0,2-0.9,2-2
				C115,165.55,114.1,164.65,113,164.65z"/>
			<path id="XMLID_1899_" class="st6" d="M49.33,168.65h41.34c1.1,0,2-0.9,2-2s-0.9-2-2-2H49.33c-1.1,0-2,0.9-2,2
				S48.23,168.65,49.33,168.65z"/>
			<path id="XMLID_1900_" class="st6" d="M141.84,153.73h63.66c1.11,0,2-0.9,2-2s-0.89-2-2-2h-63.66c-1.11,0-2,0.9-2,2
				S140.73,153.73,141.84,153.73z"/>
			<path id="XMLID_1901_" class="st6" d="M141.84,168.65h63.66c1.11,0,2-0.9,2-2s-0.89-2-2-2h-63.66c-1.11,0-2,0.9-2,2
				S140.73,168.65,141.84,168.65z"/>
			<path id="XMLID_1902_" class="st6" d="M141.84,183.57h41.83c1.1,0,2-0.89,2-2c0-1.1-0.9-2-2-2h-41.83c-1.11,0-2,0.9-2,2
				C139.84,182.68,140.73,183.57,141.84,183.57z"/>
			<path id="XMLID_1987_" class="st6" d="M205.5,179.57h-11.66c-1.11,0-2,0.9-2,2c0,1.11,0.89,2,2,2h11.66c1.11,0,2-0.89,2-2
				C207.5,180.47,206.61,179.57,205.5,179.57z"/>
			<path id="XMLID_1995_" class="st6" d="M141.84,198.49h63.66c1.11,0,2-0.89,2-2c0-1.1-0.89-2-2-2h-63.66c-1.11,0-2,0.9-2,2
				C139.84,197.6,140.73,198.49,141.84,198.49z"/>
			<path id="XMLID_1997_" class="st6" d="M141.84,213.41h13c1.1,0,2-0.89,2-2c0-1.1-0.9-2-2-2h-13c-1.11,0-2,0.9-2,2
				C139.84,212.52,140.73,213.41,141.84,213.41z"/>
			<path id="XMLID_1998_" class="st6" d="M205.5,209.41h-41.33c-1.11,0-2,0.9-2,2c0,1.11,0.89,2,2,2h41.33c1.11,0,2-0.89,2-2
				C207.5,210.31,206.61,209.41,205.5,209.41z"/>
			<path id="XMLID_1999_" class="st6" d="M141.84,228.33h63.66c1.11,0,2-0.89,2-2c0-1.1-0.89-2-2-2h-63.66c-1.11,0-2,0.9-2,2
				C139.84,227.44,140.73,228.33,141.84,228.33z"/>
		</g>
	</g>
	<path id="XMLID_2301_" class="st4" d="M129.23,28.54c6.651,0,12.04,5.407,12.04,12.05c0,6.737-5.487,12.04-12.04,12.04
		c-6.645,0-12.05-5.39-12.05-12.04C117.18,33.973,122.54,28.54,129.23,28.54z"/>
	<path id="XMLID_2298_" class="st4" d="M216.97,102.12c-6.32,6.32-16.61,6.32-22.93,0c-3.07-3.06-4.75-7.14-4.75-11.47
		s1.68-8.4,4.75-11.46c3.06-3.07,7.13-4.76,11.47-4.76c4.33,0,8.4,1.69,11.46,4.76C223.29,85.51,223.29,95.8,216.97,102.12z"/>
	<path id="XMLID_2251_" class="st4" d="M44.22,91.97c7.092-7.112,18.662-7.138,25.78,0c7.075,7.075,7.143,18.628,0,25.78
		c-6.749,6.749-18.196,7.578-26.07-0.3C37.125,110.352,37.164,99.006,44.22,91.97z"/>
</g>
</svg>
