<?xml version="1.0" encoding="utf-8"?>
<!-- Generator: Adobe Illustrator 18.0.0, SVG Export Plug-In . SVG Version: 6.00 Build 0)  -->
<!DOCTYPE svg PUBLIC "-//W3C//DTD SVG 1.1//EN" "http://www.w3.org/Graphics/SVG/1.1/DTD/svg11.dtd">
<svg version="1.1" id="Layer_1" xmlns="http://www.w3.org/2000/svg" xmlns:xlink="http://www.w3.org/1999/xlink" x="0px" y="0px"
	 viewBox="0 0 256 256" style="enable-background:new 0 0 256 256;" xml:space="preserve">
<style type="text/css">
	.st0{fill:#1C868E;}
	.st1{fill:#40C4DF;}
	.st2{fill:#F85252;}
	.st3{fill:#491352;}
	.st4{fill:#7BEFE4;}
	.st5{fill:none;stroke:#491352;stroke-width:4;stroke-linecap:round;stroke-linejoin:round;stroke-miterlimit:10;}
	.st6{fill:#FFFFFF;}
	.st7{fill:#56C1B3;}
	.st8{fill:#D73735;}
	.st9{fill:#D8D6D7;}
	.st10{fill:#EDAF85;}
	.st11{fill:#F7C09A;}
	.st12{fill:none;stroke:#491352;stroke-width:4;stroke-miterlimit:10;}
</style>
<g id="XMLID_2875_">
	<path id="XMLID_1870_" class="st9" d="M66.26,250.43H14.83c-7.33,0-11.91-7.93-8.25-14.28l25.72-44.54c3.66-6.35,12.83-6.35,16.5,0
		l1.75,3.03l23.96,41.51C78.17,242.5,73.59,250.43,66.26,250.43z"/>
	<path id="XMLID_1871_" class="st9" d="M153.71,250.43h-51.42c-7.34,0-11.92-7.93-8.25-14.28l25.71-44.54
		c3.67-6.35,12.83-6.35,16.5,0l1.75,3.03l23.96,41.51C165.63,242.5,161.05,250.43,153.71,250.43z"/>
	<path id="XMLID_1872_" class="st9" d="M241.17,250.43h-51.43c-7.33,0-11.91-7.93-8.25-14.28l25.71-44.54
		c3.67-6.35,12.84-6.35,16.5,0l1.75,3.03l23.97,41.51C253.08,242.5,248.5,250.43,241.17,250.43z"/>
	<path id="XMLID_1928_" class="st9" d="M66.26,69.15H14.83c-7.33,0-11.91-7.93-8.25-14.28L32.3,10.33c3.66-6.35,12.83-6.35,16.5,0
		l1.75,3.03l23.96,41.51C78.17,61.22,73.59,69.15,66.26,69.15z"/>
	<path id="XMLID_1927_" class="st9" d="M153.71,69.15h-51.42c-7.34,0-11.92-7.93-8.25-14.28l25.71-44.54
		c3.67-6.35,12.83-6.35,16.5,0l1.75,3.03l23.96,41.51C165.63,61.22,161.05,69.15,153.71,69.15z"/>
	<path id="XMLID_1921_" class="st9" d="M241.17,69.15h-51.43c-7.33,0-11.91-7.93-8.25-14.28l25.71-44.54
		c3.67-6.35,12.84-6.35,16.5,0l1.75,3.03l23.97,41.51C253.08,61.22,248.5,69.15,241.17,69.15z"/>
	<path id="XMLID_1935_" class="st9" d="M66.26,159.79H14.83c-7.33,0-11.91-7.93-8.25-14.28l25.72-44.54c3.66-6.35,12.83-6.35,16.5,0
		l1.75,3.03l23.96,41.51C78.17,151.86,73.59,159.79,66.26,159.79z"/>
	<path id="XMLID_1874_" class="st9" d="M241.17,159.79h-51.43c-7.33,0-11.91-7.93-8.25-14.28l25.71-44.54
		c3.67-6.35,12.84-6.35,16.5,0l1.75,3.03l23.97,41.51C253.08,151.86,248.5,159.79,241.17,159.79z"/>
	<path id="XMLID_1792_" class="st6" d="M66.26,250.43H34.83c-7.33,0-11.91-7.93-8.25-14.28l23.97-41.51l23.96,41.51
		C78.17,242.5,73.59,250.43,66.26,250.43z"/>
	<path id="XMLID_1790_" class="st6" d="M153.71,250.43h-31.42c-7.34,0-11.92-7.93-8.25-14.28L138,194.64l23.96,41.51
		C165.63,242.5,161.05,250.43,153.71,250.43z"/>
	<path id="XMLID_1667_" class="st6" d="M241.17,250.43h-31.43c-7.33,0-11.91-7.93-8.25-14.28l23.96-41.51l23.97,41.51
		C253.08,242.5,248.5,250.43,241.17,250.43z"/>
	<path id="XMLID_1598_" class="st6" d="M66.26,69.15H34.83c-7.33,0-11.91-7.93-8.25-14.28l23.97-41.51l23.96,41.51
		C78.17,61.22,73.59,69.15,66.26,69.15z"/>
	<path id="XMLID_1662_" class="st6" d="M153.71,69.15h-31.42c-7.34,0-11.92-7.93-8.25-14.28L138,13.36l23.96,41.51
		C165.63,61.22,161.05,69.15,153.71,69.15z"/>
	<path id="XMLID_1664_" class="st6" d="M241.17,69.15h-31.43c-7.33,0-11.91-7.93-8.25-14.28l23.96-41.51l23.97,41.51
		C253.08,61.22,248.5,69.15,241.17,69.15z"/>
	<path id="XMLID_1578_" class="st6" d="M66.26,159.79H34.83c-7.33,0-11.91-7.93-8.25-14.28L50.55,104l23.96,41.51
		C78.17,151.86,73.59,159.79,66.26,159.79z"/>
	<path id="XMLID_1665_" class="st6" d="M241.17,159.79h-31.43c-7.33,0-11.91-7.93-8.25-14.28L225.45,104l23.97,41.51
		C253.08,151.86,248.5,159.79,241.17,159.79z"/>
	<path id="XMLID_1854_" class="st8" d="M138,103.01l-1.46,2.97c-1.56,3.15-4.57,5.34-8.05,5.84l-4.21,0.62
		c-8.76,1.27-12.26,12.04-5.92,18.22l3.05,2.97c2.52,2.45,3.66,5.99,3.07,9.45l-0.72,4.2c-0.55,3.18,0.32,6.09,2.03,8.29
		c-0.95,0.19-1.88,0.53-2.76,0.99l-3.77,1.98c-7.84,4.12-17-2.53-15.5-11.26l0.72-4.2c0.59-3.46-0.55-7-3.07-9.45l-3.05-2.97
		c-6.34-6.18-2.84-16.95,5.92-18.22l4.21-0.62c3.48-0.5,6.49-2.69,8.05-5.84l1.88-3.82c3.92-7.94,15.24-7.94,19.16,0L138,103.01z"/>
	<path id="XMLID_1939_" class="st2" d="M157.64,130.66l-3.05,2.97c-2.52,2.45-3.66,5.99-3.07,9.45l0.72,4.2
		c0.55,3.18-0.32,6.09-2.03,8.29c-2.72,3.53-7.58,5.28-12.21,3.54c-0.42-0.16-0.84-0.35-1.26-0.57l-3.77-1.98
		c-2.23-1.18-4.77-1.51-7.18-0.99c-1.71-2.2-2.58-5.11-2.03-8.29l0.72-4.2c0.59-3.46-0.55-7-3.07-9.45l-3.05-2.97
		c-6.34-6.18-2.84-16.95,5.92-18.22l4.21-0.62c3.48-0.5,6.49-2.69,8.05-5.84l1.46-2.97l1.46,2.97c1.56,3.15,4.57,5.34,8.05,5.84
		l4.21,0.62C160.48,113.71,163.98,124.48,157.64,130.66z"/>
	<g id="XMLID_2833_">
		<path id="XMLID_2834_" class="st3" d="M50.528,190.608c-4.436-7.682-15.523-7.689-19.963,0L4.852,235.146
			c-4.434,7.681,1.101,17.287,9.981,17.287H66.26c8.869,0,14.421-9.596,9.981-17.287L50.528,190.608z M66.26,248.433H14.833
			c-5.789,0-9.416-6.265-6.517-11.287l25.714-44.537c2.895-5.016,10.134-5.021,13.033,0l25.713,44.537
			C75.672,242.161,72.058,248.433,66.26,248.433z"/>
		<path id="XMLID_2897_" class="st3" d="M137.981,190.608c-4.436-7.681-15.521-7.69-19.963,0l-25.713,44.537
			c-4.434,7.681,1.1,17.287,9.98,17.287h51.428c8.869,0,14.42-9.596,9.98-17.287L137.981,190.608z M153.714,248.433h-51.428
			c-5.79,0-9.415-6.265-6.516-11.287l25.713-44.537c2.895-5.017,10.136-5.021,13.033,0l25.713,44.537
			C163.124,242.16,159.513,248.433,153.714,248.433z"/>
		<path id="XMLID_2901_" class="st3" d="M225.435,190.608c-4.453-7.711-15.543-7.652-19.963,0l-25.713,44.537
			c-4.434,7.682,1.101,17.287,9.981,17.287h51.427c8.868,0,14.421-9.596,9.981-17.287L225.435,190.608z M241.167,248.433H189.74
			c-5.791,0-9.416-6.265-6.517-11.287l25.712-44.537c2.898-5.015,10.136-5.021,13.034,0l25.714,44.537
			C250.578,242.16,246.966,248.433,241.167,248.433z"/>
		<path id="XMLID_2905_" class="st3" d="M50.528,9.329c-4.436-7.682-15.523-7.689-19.963,0L4.852,53.866
			c-4.434,7.681,1.102,17.287,9.981,17.287H66.26c8.868,0,14.422-9.595,9.981-17.287L50.528,9.329z M66.26,67.153H14.833
			c-5.789,0-9.417-6.266-6.517-11.287L34.03,11.329c2.895-5.016,10.134-5.021,13.033,0l25.713,44.537
			C75.672,60.88,72.059,67.153,66.26,67.153z"/>
		<path id="XMLID_2908_" class="st3" d="M137.981,9.329c-4.436-7.681-15.521-7.691-19.963,0L92.306,53.866
			c-4.434,7.681,1.1,17.287,9.98,17.287h51.428c8.869,0,14.42-9.596,9.98-17.287L137.981,9.329z M153.714,67.153h-51.428
			c-5.791,0-9.415-6.267-6.516-11.287l25.713-44.537c2.895-5.016,10.136-5.021,13.033,0l25.713,44.537
			C163.125,60.88,159.511,67.153,153.714,67.153z"/>
		<path id="XMLID_2922_" class="st3" d="M189.74,71.153h51.427c8.869,0,14.421-9.597,9.981-17.287L225.435,9.329
			c-4.453-7.711-15.543-7.652-19.963,0l-25.713,44.537C175.325,61.547,180.859,71.153,189.74,71.153z M183.224,55.866l25.712-44.537
			c2.898-5.015,10.136-5.021,13.034,0l25.714,44.537c2.896,5.014-0.719,11.287-6.517,11.287H189.74
			C183.95,67.153,180.324,60.887,183.224,55.866z"/>
		<path id="XMLID_2925_" class="st3" d="M50.528,99.969c-4.436-7.682-15.523-7.689-19.963,0L4.852,144.506
			c-4.434,7.681,1.101,17.287,9.981,17.287H66.26c8.869,0,14.421-9.596,9.981-17.287L50.528,99.969z M66.26,157.793H14.833
			c-5.789,0-9.416-6.265-6.517-11.287l25.714-44.537c2.895-5.016,10.134-5.021,13.033,0l25.713,44.537
			C75.672,151.521,72.058,157.793,66.26,157.793z"/>
		<path id="XMLID_2956_" class="st3" d="M225.435,99.969c-4.453-7.711-15.543-7.652-19.963,0l-25.713,44.537
			c-4.434,7.681,1.101,17.287,9.981,17.287h51.427c8.868,0,14.421-9.596,9.981-17.287L225.435,99.969z M241.167,157.793H189.74
			c-5.791,0-9.416-6.265-6.517-11.287l25.712-44.537c2.898-5.015,10.136-5.021,13.034,0l25.714,44.537
			C250.578,151.52,246.966,157.793,241.167,157.793z"/>
		<path id="XMLID_2959_" class="st3" d="M159.038,132.089c7.524-7.336,3.366-20.122-7.029-21.632l-4.214-0.612
			c-2.829-0.411-5.272-2.187-6.537-4.749l-1.885-3.819h-0.001c-4.65-9.422-18.094-9.421-22.745,0l-1.885,3.819
			c-1.265,2.563-3.708,4.338-6.536,4.749l-4.216,0.612c-10.398,1.511-14.55,14.299-7.027,21.632l3.049,2.973
			c2.048,1.995,2.981,4.868,2.497,7.685l-0.72,4.198c-1.775,10.356,9.1,18.255,18.4,13.369l3.771-1.982
			c2.529-1.33,5.551-1.33,8.08,0l3.771,1.982c9.295,4.882,20.174-3.023,18.4-13.369l-0.721-4.198
			c-0.483-2.816,0.45-5.689,2.497-7.685L159.038,132.089z M153.195,132.196c-2.989,2.915-4.354,7.111-3.647,11.226l0.72,4.198
			c1.216,7.078-6.195,12.521-12.596,9.152l-3.771-1.982c-3.702-1.945-8.115-1.938-11.803,0l-3.771,1.982
			c-6.375,3.353-13.818-2.041-12.596-9.152l0.719-4.198c0.707-4.114-0.657-8.311-3.647-11.226l-3.049-2.973
			c-5.159-5.028-2.33-13.771,4.811-14.808l4.216-0.612c4.131-0.601,7.701-3.194,9.549-6.938l1.884-3.819
			c3.18-6.441,12.371-6.485,15.572,0l1.884,3.819c1.848,3.744,5.418,6.338,9.55,6.938l4.214,0.612
			c7.109,1.031,9.99,9.76,4.813,14.808L153.195,132.196z"/>
	</g>
</g>
</svg>
