<?xml version="1.0" encoding="utf-8"?>
<!-- Generator: Adobe Illustrator 18.0.0, SVG Export Plug-In . SVG Version: 6.00 Build 0)  -->
<!DOCTYPE svg PUBLIC "-//W3C//DTD SVG 1.1//EN" "http://www.w3.org/Graphics/SVG/1.1/DTD/svg11.dtd">
<svg version="1.1" id="Layer_1" xmlns="http://www.w3.org/2000/svg" xmlns:xlink="http://www.w3.org/1999/xlink" x="0px" y="0px"
	 viewBox="0 0 256 256" style="enable-background:new 0 0 256 256;" xml:space="preserve">
<style type="text/css">
	.st0{fill:#1C868E;}
	.st1{fill:#40C4DF;}
	.st2{fill:#F85252;}
	.st3{fill:#491352;}
	.st4{fill:#7BEFE4;}
	.st5{fill:none;stroke:#491352;stroke-width:4;stroke-linecap:round;stroke-linejoin:round;stroke-miterlimit:10;}
	.st6{fill:#FFFFFF;}
	.st7{fill:#56C1B3;}
	.st8{fill:#D73735;}
	.st9{fill:#D8D6D7;}
	.st10{fill:#EDAF85;}
	.st11{fill:#F7C09A;}
	.st12{fill:none;stroke:#491352;stroke-width:4;stroke-miterlimit:10;}
</style>
<g id="XMLID_220_">
	<path id="XMLID_843_" class="st0" d="M195,56H61c-2.761,0-5,2.239-5,5v134c0,2.761,2.239,5,5,5h134c2.761,0,5-2.239,5-5V61
		C200,58.239,197.761,56,195,56z"/>
	<path id="XMLID_827_" class="st0" d="M185.33,75.67v104.66c0,2.76-2.24,5-5,5H75.67c-2.76,0-5-2.24-5-5V75.67c0-2.76,2.24-5,5-5
		h104.66C183.09,70.67,185.33,72.91,185.33,75.67z"/>
	<path id="XMLID_825_" class="st1" d="M185.33,75.67v104.66c0,2.76-2.24,5-5,5h-91.7c-2.77,0-5-2.24-5-5V75.67c0-2.76,2.23-5,5-5
		h91.7C183.09,70.67,185.33,72.91,185.33,75.67z"/>
	<g id="XMLID_1010_">
		<path id="XMLID_1036_" class="st3" d="M248,130c1.104,0,2-0.896,2-2s-0.896-2-2-2h-46V94.667h46c1.104,0,2-0.896,2-2s-0.896-2-2-2
			h-46V61c0-3.86-3.141-7-7-7h-29.667V8c0-1.104-0.896-2-2-2s-2,0.896-2,2v46H130V8c0-1.104-0.896-2-2-2s-2,0.896-2,2v46H94.667V8
			c0-1.104-0.896-2-2-2s-2,0.896-2,2v46H61c-3.859,0-7,3.14-7,7v29.667H8c-1.104,0-2,0.896-2,2s0.896,2,2,2h46V126H8
			c-1.104,0-2,0.896-2,2s0.896,2,2,2h46v31.333H8c-1.104,0-2,0.896-2,2s0.896,2,2,2h46V195c0,3.86,3.141,7,7,7h29.667v46
			c0,1.104,0.896,2,2,2s2-0.896,2-2v-46H126v46c0,1.104,0.896,2,2,2s2-0.896,2-2v-46h31.333v46c0,1.104,0.896,2,2,2s2-0.896,2-2v-46
			H195c3.859,0,7-3.14,7-7v-29.667h46c1.104,0,2-0.896,2-2s-0.896-2-2-2h-46V130H248z M198,195c0,1.654-1.346,3-3,3H61
			c-1.654,0-3-1.346-3-3V61c0-1.654,1.346-3,3-3h134c1.654,0,3,1.346,3,3V195z"/>
		<path id="XMLID_1040_" class="st3" d="M180.333,68.667H75.667c-3.859,0-7,3.14-7,7v104.667c0,3.86,3.141,7,7,7h104.666
			c3.859,0,7-3.14,7-7V75.667C187.333,71.807,184.192,68.667,180.333,68.667z M183.333,180.333c0,1.654-1.346,3-3,3H75.667
			c-1.654,0-3-1.346-3-3V75.667c0-1.654,1.346-3,3-3h104.666c1.654,0,3,1.346,3,3V180.333z"/>
		<path id="XMLID_1041_" class="st3" d="M96.942,113.828c5.229,0,9.021,2.409,10.969,6.714h5.587
			c-2.665-6.919-8.815-10.814-16.556-10.814c-9.994,0-17.836,7.585-17.836,18.298c0,10.712,7.842,18.195,17.836,18.195
			c7.74,0,13.891-3.844,16.556-10.712h-5.587c-1.947,4.254-5.74,6.663-10.969,6.663c-7.482,0-13.069-5.433-13.069-14.146
			C83.873,119.261,89.46,113.828,96.942,113.828z"/>
		<path id="XMLID_1044_" class="st3" d="M131.945,110.189h-11.532v35.724h4.664v-14.915h6.868c8.867,0,12.353-4.92,12.353-10.354
			C144.298,114.802,140.352,110.189,131.945,110.189z M131.945,127.154h-6.868v-13.121h6.868c5.331,0,7.586,2.46,7.586,6.612
			C139.531,124.643,137.276,127.154,131.945,127.154z"/>
		<path id="XMLID_1045_" class="st3" d="M172.229,132.792c0,6.561-3.485,9.379-8.765,9.379s-8.816-2.819-8.816-9.379v-22.603h-4.664
			v22.552c0,9.277,6.048,13.531,13.429,13.531s13.48-4.254,13.48-13.531v-22.552h-4.664V132.792z"/>
	</g>
</g>
</svg>
