<?xml version="1.0" encoding="utf-8"?>
<!-- Generator: Adobe Illustrator 22.1.0, SVG Export Plug-In . SVG Version: 6.00 Build 0)  -->
<svg version="1.1" id="Layer_1" xmlns="http://www.w3.org/2000/svg" xmlns:xlink="http://www.w3.org/1999/xlink" x="0px" y="0px"
	 viewBox="0 0 256 256" style="enable-background:new 0 0 256 256;" xml:space="preserve">
<style type="text/css">
	.st0{fill:#1C868E;}
	.st1{fill:#40C4DF;}
	.st2{fill:#F85252;}
	.st3{fill:#491352;}
	.st4{fill:#FFFFFF;}
	.st5{fill:#56C1B3;}
	.st6{fill:#7BEFE4;}
	.st7{fill:#D73735;}
	.st8{fill:#D8D6D7;}
	.st9{fill:#EDAF85;}
	.st10{fill:#F7C09A;}
	.st11{fill:none;stroke:#491352;stroke-width:4;stroke-miterlimit:10;}
</style>
<g>
	<path id="XMLID_1531_" class="st1" d="M195,56.083H61c-2.761,0-5,2.239-5,5v134c0,2.761,2.239,5,5,5h134c2.761,0,5-2.239,5-5v-134
		C200,58.322,197.761,56.083,195,56.083z"/>
	<path class="st8" d="M185.33,75.75v104.67c0,2.76-2.24,5-5,5H75.67c-2.76,0-5-2.24-5-5V75.75c0-2.76,2.24-5,5-5h104.66
		C183.09,70.75,185.33,72.99,185.33,75.75z"/>
	<path class="st4" d="M185.33,75.75v104.67c0,2.76-2.24,5-5,5H91c-2.76,0-5-2.24-5-5V75.75c0-2.76,2.24-5,5-5h89.33
		C183.09,70.75,185.33,72.99,185.33,75.75z"/>
	<circle id="XMLID_720_" class="st2" cx="128" cy="13.583" r="8"/>
	<circle id="XMLID_719_" class="st2" cx="92.667" cy="242.417" r="8"/>
	<circle id="XMLID_718_" class="st2" cx="29.5" cy="163.417" r="8"/>
	<circle id="XMLID_717_" class="st2" cx="226" cy="92.75" r="8"/>
	<path id="XMLID_715_" class="st0" d="M176.92,134.56c-0.32-0.22-0.37-0.67-0.12-0.96c1.88-2.14,2.76-5.17,1.92-8.38
		c-1.03-3.93-4.67-6.61-8.74-6.61c-0.38,0-0.66-0.31-0.66-0.67c0-0.07,0.01-0.15,0.04-0.22c0.5-1.46,0.72-3.05,0.6-4.71
		c-0.38-5.23-4.27-9.65-9.41-10.7c-1.55-0.31-3.05-0.3-4.46-0.05c-0.35,0.06-0.67-0.17-0.75-0.52c-1.45-6.92-7.59-12.12-14.95-12.12
		c-4.8,0-9.09,2.21-11.89,5.68c-0.26,0.32-0.74,0.32-1,0c-1.72-2.13-3.99-3.78-6.61-4.74c-1.64-0.61-3.42-0.94-5.28-0.94
		c-7.36,0-13.5,5.2-14.95,12.12c-0.08,0.35-0.4,0.58-0.75,0.52c-1.41-0.25-2.91-0.26-4.46,0.05c-5.14,1.05-9.03,5.47-9.41,10.7
		c-0.13,1.73,0.12,3.39,0.67,4.9c0.13,0.34-0.12,0.7-0.48,0.7c-2.51,0-4.82,1-6.51,2.62c-1.69,1.63-2.75,3.87-2.76,6.38
		c-0.01,2.3,0.84,4.39,2.24,5.99c0.25,0.29,0.2,0.74-0.12,0.96c-2.29,1.61-3.75,4.3-3.64,7.33c0.18,4.63,4.15,8.22,8.78,8.22h87.56
		c4.63,0,8.6-3.59,8.78-8.22C180.67,138.86,179.21,136.17,176.92,134.56z"/>
	<path id="XMLID_3_" class="st1" d="M176.92,134.56c-0.32-0.22-0.37-0.67-0.12-0.96c1.88-2.14,2.76-5.17,1.92-8.38
		c-1.03-3.93-4.67-6.61-8.74-6.61c-0.38,0-0.66-0.31-0.66-0.67c0-0.07,0.01-0.15,0.04-0.22c0.5-1.46,0.72-3.05,0.6-4.71
		c-0.38-5.23-4.27-9.65-9.41-10.7c-1.55-0.31-3.05-0.3-4.46-0.05c-0.35,0.06-0.67-0.17-0.75-0.52c-1.45-6.92-7.59-12.12-14.95-12.12
		c-4.8,0-9.09,2.21-11.89,5.68c-0.26,0.32-0.74,0.32-1,0c-1.72-2.13-3.99-3.78-6.61-4.74c-4.87,1.8-8.58,6.01-9.67,11.18
		c-0.07,0.35-0.4,0.58-0.74,0.52c-1.42-0.25-2.92-0.26-4.46,0.05c-5.14,1.05-9.03,5.47-9.42,10.7c-0.12,1.73,0.13,3.39,0.68,4.9
		c0.12,0.34-0.13,0.7-0.49,0.7c-2.51,0-4.82,1-6.51,2.62c-1.68,1.63-2.74,3.87-2.75,6.38c-0.01,2.3,0.83,4.39,2.23,5.99
		c0.26,0.29,0.2,0.74-0.12,0.96c-2.28,1.61-3.75,4.3-3.63,7.33c0.17,4.63,4.14,8.22,8.78,8.22h76.99c4.63,0,8.6-3.59,8.78-8.22
		C180.67,138.86,179.21,136.17,176.92,134.56z"/>
	<g>
		<path class="st3" d="M248,126.083h-46V94.75h14.202c0.929,4.559,4.969,8,9.798,8c5.514,0,10-4.486,10-10s-4.486-10-10-10
			c-4.829,0-8.869,3.441-9.798,8H202V61.083c0-3.86-3.141-7-7-7h-29.667v-22c0-2.642-4-2.646-4,0v22H130V23.382
			c4.559-0.929,8-4.969,8-9.798c0-5.514-4.486-10-10-10c-5.514,0-10,4.486-10,10c0,4.829,3.441,8.869,8,9.798v30.702H94.667v-46
			c0-2.642-4-2.646-4,0v46H61c-3.86,0-7,3.14-7,7V90.75H19c-2.642,0-2.646,4,0,4h35v31.333H8c-2.642,0-2.646,4,0,4h46v31.333H39.298
			c-0.929-4.559-4.969-8-9.798-8c-5.514,0-10,4.486-10,10s4.486,10,10,10c4.829,0,8.869-3.441,9.798-8H54v29.667c0,3.86,3.14,7,7,7
			h29.667v30.535c-4.559,0.929-8,4.969-8,9.798c0,5.514,4.486,10,10,10s10-4.486,10-10c0-4.829-3.441-8.869-8-9.798v-30.535H126
			v15.167c0,2.642,4,2.646,4,0v-15.167h31.333v46c0,2.642,4,2.646,4,0v-46H195c3.859,0,7-3.14,7-7v-29.667h28c2.642,0,2.646-4,0-4
			h-28v-31.333h46C250.642,130.083,250.646,126.083,248,126.083z M226,86.75c3.309,0,6,2.691,6,6s-2.691,6-6,6s-6-2.691-6-6
			S222.691,86.75,226,86.75z M29.5,169.417c-3.309,0-6-2.691-6-6s2.691-6,6-6s6,2.691,6,6S32.809,169.417,29.5,169.417z M122,13.583
			c0-3.309,2.691-6,6-6s6,2.691,6,6s-2.691,6-6,6S122,16.892,122,13.583z M98.667,242.417c0,3.309-2.691,6-6,6s-6-2.691-6-6
			s2.691-6,6-6S98.667,239.108,98.667,242.417z M198,195.083c0,1.654-1.346,3-3,3H61c-1.654,0-3-1.346-3-3v-134c0-1.654,1.346-3,3-3
			h134c1.654,0,3,1.346,3,3V195.083z"/>
		<path class="st3" d="M180.333,68.75H75.667c-3.86,0-7,3.14-7,7v104.667c0,3.86,3.14,7,7,7h104.667c3.859,0,7-3.14,7-7V75.75
			C187.333,71.89,184.192,68.75,180.333,68.75z M183.333,180.417c0,1.654-1.346,3-3,3H75.667c-1.654,0-3-1.346-3-3V75.75
			c0-1.654,1.346-3,3-3h104.667c1.654,0,3,1.346,3,3V180.417z"/>
		<path class="st3" d="M179.165,133.804c4.368-6.455,0.806-15.801-7.468-17.066c1.914-9.071-5.506-17.393-14.695-16.615
			c-3.635-12.631-19.724-16.83-29.002-7.27c-9.299-9.58-25.374-5.34-29.002,7.271c-9.225-0.795-16.619,7.601-14.69,16.644
			c-7.994,1.35-11.956,10.361-7.472,17.035c-7.148,6.571-2.273,18.304,7.387,18.304h87.554
			C181.443,152.106,186.302,140.368,179.165,133.804z M171.777,148.106h-11.061c2.822-4.548,1.395-8.88-2.435-12.679
			c-1.877-1.862-4.695,0.977-2.816,2.84c3.653,3.624,3.569,6.359,0.145,9.839h-33.181c0.092-2.438-0.618-4.819-2.038-6.807
			c5.259-7.375-0.972-17.28-4.007-14.248c-0.781,0.781-0.781,2.047,0,2.829c2.324,2.324,2.681,5.872,1.089,8.583
			c-4.297-2.829-10.145-2.355-13.919,1.419c-1.873,1.871,0.962,4.697,2.828,2.828c4.597-4.599,12.424-1.043,12.052,5.397H84.223
			c-6.164,0-9.571-7.707-3.928-11.968c0.069-0.028,0.139-0.05,0.206-0.086c3.746-2.024,8.054,1.487,6.905,5.538
			c-0.301,1.063,0.316,2.168,1.379,2.47c2.784,0.791,3.282-3.447,2.438-6.279c3.103-2.615,4.091-7.147,2.061-10.905
			c-1.254-2.326-4.777-0.428-3.52,1.9c0.918,1.7,0.769,3.848-0.613,5.432c-2.225-2.341-5.611-3.317-8.815-2.383
			c-3.458-4.685-0.029-11.216,5.88-11.216c0.857,0,1.613-0.421,2.069-1.071c1.497-2.132-1.375-3.521,0.152-8.511
			c9.057,0.561,3.686,9.029,7.972,9.044c1.123,0,2.003-0.902,2.007-1.993c0.02-5.724-2.182-9.706-7.85-10.787
			c2.31-2.538,5.698-3.654,8.989-3.062c1.418,0.251,2.757-0.659,3.055-2.077c0.892-4.236,3.799-7.662,7.581-9.364
			c6.359,7.013-3.694,9.087-0.597,12.205c0.774,0.78,2.042,0.791,2.828,0.01c4.155-4.126,5.307-8.568,1.981-13.328
			c4.413-0.406,8.719,1.399,11.536,4.881c1.061,1.312,3.057,1.31,4.116,0c7.073-8.743,21.052-5.227,23.329,5.592
			c0.297,1.421,1.641,2.336,3.056,2.08c2.088-0.373,4.28-0.08,6.284,0.973c-0.071,4.696-1.948,6.859-7.066,6.742
			c-2.64,0-2.646,3.991-0.007,4c5.575,0,9.522-2.069,10.717-7.443c1.731,2.623,2.047,5.784,1.093,8.568
			c-0.592,1.73,0.684,3.539,2.52,3.539c6.219,0,9.098,7.072,5.442,11.508c-8.93-0.682-3.498-9.01-7.831-9.025
			c-1.104-0.004-2.003,0.888-2.007,1.993c-0.024,7.056,3.4,10.747,10.112,11.05C181.185,140.3,178.193,148.106,171.777,148.106z"/>
		<path class="st3" d="M149.078,126.358c0,2.056-1.305,3.801-3.125,4.485c-1.8-6.572-10.484-8.322-10.484-4.485c0,1.104,0.896,2,2,2
			c2.649,0,4.805,2.155,4.805,4.805s-2.155,4.805-4.805,4.805c-2.642,0-2.646,4,0,4c4.234,0,7.778-3.005,8.616-6.994
			c3.989-0.838,6.994-4.381,6.994-8.615C153.078,123.716,149.078,123.712,149.078,126.358z"/>
		<path class="st3" d="M140.853,114.418c0-1.104-0.896-2-2-2c-2.056,0-3.801-1.305-4.485-3.125c3.731-1.022,6.485-4.433,6.485-8.484
			c0-2.642-4-2.646-4,0c0,2.649-2.155,4.805-4.805,4.805s-4.805-2.155-4.805-4.805c0-2.642-4-2.646-4,0
			c0,4.234,3.005,7.778,6.994,8.616C131.702,116.403,140.853,118.359,140.853,114.418z"/>
		<path class="st3" d="M123.664,120.607c-0.002,0-0.005,0-0.008,0c-10.465,0.099-4.687-9.057-9.058-9.073
			c-1.104-0.004-2.003,0.888-2.007,1.993c-0.026,7.406,3.732,11.08,11.081,11.08C126.31,124.596,126.302,120.607,123.664,120.607z"
			/>
	</g>
</g>
</svg>
