<?xml version="1.0" encoding="utf-8"?>
<!-- Generator: Adobe Illustrator 18.0.0, SVG Export Plug-In . SVG Version: 6.00 Build 0)  -->
<!DOCTYPE svg PUBLIC "-//W3C//DTD SVG 1.1//EN" "http://www.w3.org/Graphics/SVG/1.1/DTD/svg11.dtd">
<svg version="1.1" id="Layer_1" xmlns="http://www.w3.org/2000/svg" xmlns:xlink="http://www.w3.org/1999/xlink" x="0px" y="0px"
	 viewBox="0 0 512 512" style="enable-background:new 0 0 512 512;" xml:space="preserve">
<style type="text/css">
	.st0{fill:#DFDFDE;}
	.st1{fill:#4B555F;}
	.st2{fill:#FFFFFF;}
	.st3{fill:#F58E70;}
	.st4{fill:#FFD351;}
	.st5{fill:#71CBDF;}
</style>
<g>
	<g>
		<path class="st0" d="M489.464,21.652c-3.638-3.663-8.695-5.93-14.276-5.93H39.752c-12.781,0-23.146,10.364-23.146,23.146v342.578
			c0,12.782,10.365,23.146,23.146,23.146h432.496c12.781,0,23.146-10.364,23.146-23.146V35.928
			C495.393,30.347,493.126,25.289,489.464,21.652z M482.064,350.726H133.88l-21.676,21.676l-13.08,13.08
			c-3.986,3.987-10.439,3.987-14.426,0l-17.391-17.366c-3.986-3.986-3.986-10.464,0-14.451l2.94-2.94h-37.92V35.928h449.737V350.726
			z"/>
	</g>
	<g>
		<path class="st1" d="M472.247,420.338H39.752c-21.445,0-38.892-17.448-38.892-38.893V38.867C0.86,17.435,18.307,0,39.752,0
			h432.695c21.336,0,38.693,17.347,38.693,38.668v342.778C511.14,402.891,493.692,420.338,472.247,420.338z M39.752,7.474
			c-17.324,0-31.417,14.083-31.417,31.393v342.578c0,17.324,14.094,31.418,31.417,31.418h432.495
			c17.325,0,31.418-14.095,31.418-31.418V38.668c0-17.201-14.005-31.193-31.219-31.193H39.752z"/>
	</g>
	<g>
		<path class="st1" d="M91.911,392.21c-3.721,0-7.221-1.453-9.855-4.085l-17.389-17.362c-5.442-5.445-5.442-14.297-0.002-19.74
			l8.558-8.543H40.598V44.199h433.194v298.28H147.411l-45.645,45.645C99.132,390.757,95.632,392.21,91.911,392.21z M48.073,335.005
			h43.205L69.95,356.307c-2.527,2.528-2.527,6.64,0.001,9.168l17.388,17.362c2.448,2.448,6.697,2.445,9.142,0.002l47.834-47.834
			h322.002V51.674H48.073V335.005z"/>
	</g>
	<g>
		<path class="st1" d="M338.626,480.608H178.18l28.244-67.759h103.957L338.626,480.608z M189.394,473.134h138.018l-22.013-52.81
			h-93.991L189.394,473.134z"/>
	</g>
	<g>
		<polygon class="st0" points="201.798,464.866 216.918,428.593 299.887,428.593 315.009,464.866 		"/>
	</g>
	<g>
		<path class="st1" d="M403.564,512H113.242v-38.866h290.322V512z M120.716,504.526h275.373v-23.917H120.716V504.526z"/>
	</g>
	<g>
		<rect x="128.985" y="488.877" class="st0" width="258.836" height="7.381"/>
	</g>
	<g>
		<rect x="17.817" y="504.526" class="st1" width="481.17" height="7.474"/>
	</g>
	<g>
		<circle class="st2" cx="258.781" cy="378.141" r="18.944"/>
	</g>
	<g>
		<path class="st1" d="M258.78,400.823c-12.506,0-22.681-10.175-22.681-22.681c0-12.506,10.175-22.681,22.681-22.681
			c12.506,0,22.681,10.175,22.681,22.681C281.462,390.647,271.286,400.823,258.78,400.823z M258.78,362.935
			c-8.386,0-15.207,6.822-15.207,15.207c0,8.384,6.821,15.207,15.207,15.207c8.386,0,15.207-6.822,15.207-15.207
			C273.987,369.757,267.166,362.935,258.78,362.935z"/>
	</g>
	<g>
		<path class="st3" d="M324.874,206.619l-48.086,44.049l-60.144-59.92l-27.68,24.566c-2.566-9.243-3.164-18.911-1.819-28.353
			l30.396-26.982l59.895,59.696l45.544-41.707C325.597,187.285,326.22,197.052,324.874,206.619z"/>
	</g>
	<g>
		<path class="st1" d="M366.764,158.334l-5.112-5.453l5.453-5.112l5.112,5.453L366.764,158.334z M377.669,148.109l-5.112-5.453
			l5.453-5.112l5.112,5.453L377.669,148.109z M388.574,137.884l-5.112-5.453l5.453-5.112l5.112,5.453L388.574,137.884z
			 M399.48,127.66l-5.112-5.453l5.453-5.113l5.112,5.453L399.48,127.66z"/>
	</g>
	<g>
		<path class="st1" d="M97.068,286.862l-4.961-5.591l5.591-4.961l4.961,5.591L97.068,286.862z M108.249,276.94l-4.961-5.591
			l5.591-4.961l4.961,5.591L108.249,276.94z M119.43,267.018l-4.961-5.591l5.591-4.961l4.961,5.591L119.43,267.018z
			 M130.613,257.097l-4.961-5.591l5.59-4.961l4.961,5.591L130.613,257.097z M141.794,247.175l-4.961-5.591l5.59-4.961l4.961,5.591
			L141.794,247.175z"/>
	</g>
	<g>
		<polygon class="st1" points="419.403,135.192 411.928,135.192 411.928,111.098 386.753,111.098 386.753,103.624 419.403,103.624 
					"/>
	</g>
	<g>
		<path class="st1" d="M256.005,270.085c-19.575,0-37.983-7.62-51.832-21.46c-28.568-28.588-28.567-75.085,0-103.652
			c13.848-13.849,32.255-21.476,51.832-21.476s37.98,7.628,51.82,21.477c13.847,13.837,21.474,32.241,21.474,51.817
			s-7.627,37.984-21.476,51.832C293.985,262.463,275.582,270.085,256.005,270.085z M256.005,130.972
			c-17.579,0-34.111,6.849-46.547,19.286c-25.653,25.654-25.653,67.41,0.001,93.083c12.436,12.426,28.966,19.27,46.546,19.27
			s34.106-6.844,46.534-19.271c12.437-12.437,19.286-28.968,19.286-46.547s-6.849-34.105-19.286-46.533
			C290.11,137.821,273.585,130.972,256.005,130.972z"/>
	</g>
	<g>
		<path class="st1" d="M149.322,204.173c-0.33-4.887-0.33-9.843,0-14.731l7.466,0.252v14.227L149.322,204.173z"/>
	</g>
	<g>
		<polygon class="st1" points="108.25,381.655 108.25,363.721 117.619,372.283 		"/>
	</g>
	<g>
		<polygon class="st1" points="108.25,381.655 108.25,362.57 117.363,372.543 		"/>
	</g>
	<g>
		<polygon class="st4" points="112.195,372.425 111.988,372.633 111.988,372.199 		"/>
	</g>
	<g>
		<polygon class="st1" points="108.247,381.112 108.247,363.721 115.947,370.759 115.947,374.054 		"/>
	</g>
	<g>
		<polygon class="st1" points="108.247,381.112 108.247,363.178 117.617,372.548 		"/>
	</g>
	<g>
		<polygon class="st4" points="112.21,372.425 111.984,372.633 111.984,372.199 		"/>
	</g>
	<g>
		<path class="st1" d="M256.004,303.716c-28.561,0-55.411-11.122-75.604-31.314c-20.202-20.192-31.328-47.042-31.328-75.604
			s11.126-55.418,31.33-75.62c20.192-20.193,47.042-31.315,75.604-31.315c28.561,0,55.417,11.122,75.619,31.314
			c41.682,41.703,41.682,109.542,0,151.226C311.421,292.594,284.566,303.716,256.004,303.716z M256.005,97.337
			c-26.566,0-51.539,10.344-70.32,29.125c-18.791,18.791-29.14,43.77-29.14,70.336c0,26.564,10.348,51.538,29.139,70.319
			c18.782,18.782,43.755,29.125,70.32,29.125c26.566,0,51.545-10.343,70.336-29.125c38.769-38.769,38.768-101.867-0.001-140.654
			C307.549,107.681,282.571,97.337,256.005,97.337z"/>
	</g>
	<g>
		<path class="st4" d="M256.005,287.522c-24.238-0.003-47.022-9.438-64.153-26.571c-17.145-17.136-26.586-39.919-26.586-64.154
			c0-24.235,9.442-47.024,26.586-64.168c17.135-17.135,39.918-26.572,64.154-26.572c24.237,0,47.025,9.437,64.17,26.573
			c35.366,35.384,35.366,92.951-0.004,128.32c-17.141,17.134-39.928,26.572-64.159,26.572
			C256.011,287.522,256.009,287.522,256.005,287.522z M256.011,114.786c-21.905,0-42.501,8.532-57.995,24.026
			c-15.493,15.482-24.027,36.074-24.027,57.98c0,21.905,8.532,42.501,24.026,57.995c15.496,15.485,36.091,24.011,57.995,24.011
			c21.904,0,42.495-8.527,57.98-24.011c15.494-15.494,24.027-36.09,24.027-57.995c0-21.906-8.534-42.499-24.03-57.983
			C298.509,123.319,277.916,114.786,256.011,114.786z"/>
	</g>
	<g>
		<path class="st1" d="M112.204,377.699l-37.1-37.1l73.475-73.478c4.955-4.955,11.543-7.685,18.55-7.685
			c7.008,0,13.596,2.73,18.551,7.685c10.229,10.227,10.227,26.87-0.001,37.098L112.204,377.699z M85.674,340.599l26.53,26.53
			l68.191-68.194c7.314-7.314,7.315-19.214,0.001-26.528c-3.544-3.544-8.254-5.496-13.266-5.496c-5.011,0-9.721,1.953-13.265,5.496
			L85.674,340.599z"/>
	</g>
	<g>
		<path class="st3" d="M98.007,340.6l62.024-62.028c1.897-1.897,4.417-2.942,7.1-2.942c2.681,0,5.202,1.045,7.098,2.942
			c3.914,3.914,3.914,10.283,0,14.198l-62.025,62.025L98.007,340.6z"/>
	</g>
	<g>
		
			<rect x="84.253" y="356.617" transform="matrix(-0.7071 0.7071 -0.7071 -0.7071 406.3297 565.005)" class="st4" width="3.79" height="20.078"/>
	</g>
	<g>
		<polygon class="st1" points="108.249,381.652 108.249,363.18 117.485,372.416 		"/>
	</g>
	<g>
		<polygon class="st4" points="112.201,372.417 111.986,372.631 111.986,372.202 		"/>
	</g>
	<g>
		<path class="st1" d="M149.322,204.173c-0.33-4.887-0.33-9.843,0-14.731l7.466,0.252v14.227L149.322,204.173z"/>
	</g>
	<g>
		<polygon class="st1" points="108.25,381.655 108.25,363.721 117.619,372.283 		"/>
	</g>
	<g>
		<polygon class="st1" points="108.25,381.655 108.25,362.57 117.363,372.543 		"/>
	</g>
	<g>
		<polygon class="st4" points="112.195,372.425 111.988,372.633 111.988,372.199 		"/>
	</g>
	<g>
		<polygon class="st1" points="108.247,381.112 108.247,363.721 115.947,370.759 115.947,374.054 		"/>
	</g>
	<g>
		<polygon class="st1" points="108.247,381.112 108.247,363.178 117.617,372.548 		"/>
	</g>
	<g>
		<polygon class="st4" points="112.21,372.425 111.984,372.633 111.984,372.199 		"/>
	</g>
	<g>
		<polygon class="st1" points="108.249,381.652 108.249,363.18 117.485,372.416 		"/>
	</g>
	<g>
		<polygon class="st4" points="112.201,372.417 111.986,372.631 111.986,372.202 		"/>
	</g>
</g>
</svg>
