<?xml version="1.0" encoding="utf-8"?>
<!-- Generator: Adobe Illustrator 18.0.0, SVG Export Plug-In . SVG Version: 6.00 Build 0)  -->
<!DOCTYPE svg PUBLIC "-//W3C//DTD SVG 1.1//EN" "http://www.w3.org/Graphics/SVG/1.1/DTD/svg11.dtd">
<svg version="1.1" id="Layer_1" xmlns="http://www.w3.org/2000/svg" xmlns:xlink="http://www.w3.org/1999/xlink" x="0px" y="0px"
	 viewBox="0 0 512 512" style="enable-background:new 0 0 512 512;" xml:space="preserve">
<style type="text/css">
	.st0{fill:#FFD452;}
	.st1{fill:#F58E6F;}
	.st2{fill:#4A555F;}
	.st3{fill:none;}
	.st4{fill:#DFDFDF;}
	.st5{fill:#71CCE0;}
	.st6{fill:#FFFFFF;}
</style>
<g>
	<g>
		<g>
			<g>
				<path class="st2" d="M173.681,32.495L123.996,3.813L74.314,32.5l0.003,57.369L124,118.552l49.683-28.687L173.681,32.495z
					 M124,109.521L82.138,85.353l-0.003-48.338l41.861-24.17l41.863,24.168l0.001,48.337L124,109.521z"/>
			</g>
		</g>
	</g>
	<g>
		<g>
			<polygon class="st1" points="156.735,42.28 123.998,23.382 91.261,42.284 91.262,80.085 123.999,98.984 156.736,80.081 			"/>
		</g>
	</g>
	<g>
		<g>
			<g>
				<path class="st2" d="M140.943,180.7L70.47,140.012L0,180.697l0.003,81.377l70.473,40.688l70.47-40.686L140.943,180.7z
					 M70.476,293.73L7.824,257.556l-0.002-72.343l62.648-36.17l62.651,36.174l0.003,72.342L70.476,293.73z"/>
			</g>
		</g>
	</g>
	<g>
		<g>
			<polygon class="st5" points="123.996,190.485 70.47,159.58 16.947,190.482 16.949,252.288 70.475,283.193 123.999,252.291 			"/>
		</g>
	</g>
	<g>
		<g>
			<g>
				<path class="st2" d="M303.692,381.116l-27.332-15.779l-27.33,15.781l0.001,31.558l27.33,15.779l27.331-15.779L303.692,381.116z
					 M276.361,419.425l-19.508-11.265l-0.001-22.527l19.508-11.264l19.51,11.264l0.001,22.527L276.361,419.425z"/>
			</g>
		</g>
	</g>
	<g>
		<g>
			<polygon class="st1" points="276.361,384.906 265.978,390.902 265.978,402.893 276.362,408.887 286.745,402.891 286.745,390.902 
							"/>
		</g>
	</g>
	<g>
		<g>
			<g>
				<path class="st2" d="M104.506,365.625l-47.07-27.177l-47.07,27.175l0.001,54.355l47.071,27.176l47.07-27.175L104.506,365.625z
					 M57.438,438.122l-39.25-22.662l-0.001-45.321l39.249-22.66l39.249,22.663l0.002,45.32L57.438,438.122z"/>
			</g>
		</g>
	</g>
	<g>
		<g>
			<polygon class="st1" points="87.559,375.409 57.435,358.017 27.313,375.408 27.314,410.193 57.438,427.586 87.561,410.194 			"/>
		</g>
	</g>
	<g>
		<g>
			<g>
				<path class="st2" d="M408.25,49.117L337.776,8.428l-70.47,40.686l0.002,81.375l70.473,40.688l70.47-40.686L408.25,49.117z
					 M337.782,162.146l-62.651-36.174l-0.002-72.342l62.648-36.172l62.651,36.174l0.002,72.342L337.782,162.146z"/>
			</g>
		</g>
	</g>
	<g>
		<g>
			<polygon class="st5" points="391.303,58.901 337.777,27.996 284.253,58.899 284.256,120.704 337.782,151.609 391.304,120.707 			
				"/>
		</g>
	</g>
	<g>
		<g>
			<g>
				<path class="st2" d="M511.999,234.942l-50.146-28.952l-50.144,28.95l0.001,57.904l50.146,28.952L512,292.845L511.999,234.942z
					 M461.857,312.764l-42.324-24.438l-0.001-48.87l42.322-24.435l42.324,24.438l0.001,48.87L461.857,312.764z"/>
			</g>
		</g>
	</g>
	<g>
		<g>
			<polygon class="st1" points="495.052,244.726 461.853,225.557 428.656,244.723 428.658,283.058 461.855,302.226 495.053,283.06 
							"/>
		</g>
	</g>
	<g>
		<g>
			<g>
				<path class="st2" d="M263.681,131.221l-50.145-28.952l-50.144,28.948l0.001,57.904l50.145,28.952l50.145-28.949L263.681,131.221
					z M213.538,209.042l-42.323-24.438l-0.001-48.87l42.322-24.434l42.323,24.438l0.002,48.869L213.538,209.042z"/>
			</g>
		</g>
	</g>
	<g>
		<g>
			<polygon class="st5" points="246.734,141.006 213.536,121.837 180.338,141.002 180.341,179.337 213.539,198.505 246.735,179.34 
							"/>
		</g>
	</g>
	<g>
		<g>
			<g>
				<path class="st2" d="M408.636,421.333l-50.146-28.952l-50.143,28.949l0.001,57.904l50.146,28.952l50.143-28.949L408.636,421.333
					z M358.494,499.156l-42.324-24.438l-0.001-48.87l42.322-24.435l42.324,24.438l0.001,48.87L358.494,499.156z"/>
			</g>
		</g>
	</g>
	<g>
		<g>
			<polygon class="st5" points="391.688,431.118 358.491,411.949 325.293,431.115 325.296,469.449 358.493,488.618 391.691,469.452 
							"/>
		</g>
	</g>
	<g>
		<g>
			<g>
				<path class="st2" d="M362.4,228.59l-70.472-40.688l-70.47,40.685l0.002,81.377l70.472,40.688l70.47-40.686L362.4,228.59z
					 M291.932,341.62l-62.65-36.174l-0.002-72.343l62.648-36.17l62.65,36.174l0.003,72.342L291.932,341.62z"/>
			</g>
		</g>
	</g>
	<g>
		<g>
			<polygon class="st5" points="345.454,238.375 291.928,207.47 238.405,238.371 238.407,300.179 291.933,331.083 345.455,300.181 
							"/>
		</g>
	</g>
	<g>
		<g>
			<g>
				<path class="st2" d="M241.649,388.234l-54.263-31.329l-54.261,31.328l0.001,62.659l54.263,31.329l54.262-31.328L241.649,388.234
					z M187.388,473.189l-46.442-26.814l-0.001-53.625l46.44-26.813l46.441,26.815l0.001,53.625L187.388,473.189z"/>
			</g>
		</g>
	</g>
	<g>
		<g>
			<polygon class="st5" points="224.701,398.019 187.385,376.474 150.07,398.016 150.073,441.107 187.389,462.652 224.703,441.108 
							"/>
		</g>
	</g>
	<g>
		<g>
			<g>
				<path class="st2" d="M495.828,373.187l-33.974-19.613l-33.973,19.612v39.228l33.974,19.614l33.974-19.613L495.828,373.187z
					 M461.855,422.997l-26.152-15.1v-30.195l26.151-15.097l26.153,15.098l0.001,30.194L461.855,422.997z"/>
			</g>
		</g>
	</g>
	<g>
		<g>
			<polygon class="st1" points="478.88,382.973 461.853,373.143 444.827,382.972 444.829,402.63 461.856,412.459 478.882,402.632 
							"/>
		</g>
	</g>
	<g>
		<g>
			<polygon class="st2" points="457.943,97.63 457.943,165.8 356.457,227.507 360.521,234.191 465.765,170.198 465.765,97.63 			"/>
		</g>
	</g>
	<g>
		<g>
			<g>
				<path class="st2" d="M461.854,69.758c-8.129,0-14.744,6.615-14.744,14.745c0,8.13,6.615,14.744,14.744,14.744
					c8.13,0,14.745-6.615,14.745-14.744C476.599,76.373,469.984,69.758,461.854,69.758z M461.854,91.425
					c-3.818,0-6.923-3.105-6.923-6.923c0-3.818,3.105-6.923,6.923-6.923c3.818,0,6.923,3.105,6.923,6.923
					C468.777,88.321,465.672,91.425,461.854,91.425z"/>
			</g>
		</g>
	</g>
	<g>
		<g>
			<g>
				<path class="st2" d="M27.312,24.086c-8.13,0-14.745,6.615-14.745,14.745c0,8.13,6.615,14.745,14.745,14.745
					c8.13,0,14.744-6.615,14.744-14.745C42.057,30.7,35.442,24.086,27.312,24.086z M27.312,45.753c-3.818,0-6.923-3.105-6.923-6.923
					c0-3.818,3.105-6.923,6.923-6.923c3.818,0,6.923,3.105,6.923,6.923C34.235,42.648,31.13,45.753,27.312,45.753z"/>
			</g>
		</g>
	</g>
	<g>
		<g>
			<g>
				<path class="st2" d="M137.035,331.391c-8.13,0-14.745,6.615-14.745,14.745c0,8.13,6.615,14.744,14.745,14.744
					c8.129,0,14.744-6.615,14.744-14.744C151.779,338.006,145.165,331.391,137.035,331.391z M137.035,353.059
					c-3.818,0-6.923-3.105-6.923-6.923c0-3.818,3.105-6.923,6.923-6.923c3.818,0,6.923,3.105,6.923,6.923
					C143.958,349.954,140.853,353.059,137.035,353.059z"/>
			</g>
		</g>
	</g>
	<g>
		<g>
			<g>
				<path class="st2" d="M391.691,347.564c-8.13,0-14.745,6.615-14.745,14.745c0,8.13,6.615,14.745,14.745,14.745
					s14.745-6.615,14.745-14.745C406.435,354.179,399.821,347.564,391.691,347.564z M391.691,369.232
					c-3.818,0-6.923-3.105-6.923-6.923c0-3.818,3.105-6.923,6.923-6.923c3.818,0,6.923,3.105,6.923,6.923
					C398.614,366.127,395.509,369.232,391.691,369.232z"/>
			</g>
		</g>
	</g>
	<g>
		<g>
			<polygon class="st2" points="223.312,244.274 133.124,300.047 133.124,337.79 140.946,337.79 140.946,304.406 227.426,250.927 
							"/>
		</g>
	</g>
	<g>
		<g>
			<polygon class="st2" points="31.223,87.5 31.223,48.474 23.401,48.474 23.401,92.105 165.408,170.829 169.199,163.988 			"/>
		</g>
	</g>
	<g>
		<g>
			
				<rect x="350.298" y="308.999" transform="matrix(0.4847 -0.8747 0.8747 0.4847 -116.6653 486.0968)" class="st2" width="7.822" height="66.123"/>
		</g>
	</g>
</g>
</svg>
