<?xml version="1.0" encoding="utf-8"?>
<!-- Generator: Adobe Illustrator 22.0.1, SVG Export Plug-In . SVG Version: 6.00 Build 0)  -->
<svg version="1.1" id="Layer_1" xmlns="http://www.w3.org/2000/svg" xmlns:xlink="http://www.w3.org/1999/xlink" x="0px" y="0px"
	 viewBox="0 0 512 512" style="enable-background:new 0 0 512 512;" xml:space="preserve">
<style type="text/css">
	.st0{fill:#330D84;}
	.st1{fill:#EDF3FC;}
	.st2{fill:#5932AE;}
	.st3{fill:#FFFFFF;}
	.st4{fill:#FFE37B;}
	.st5{fill:#5D8EF9;}
	.st6{fill:#8C7BFD;}
	.st7{fill:#8AC9F9;}
	.st8{fill:#FFBE1B;}
	.st9{fill:#6857E5;}
</style>
<g>
	<g>
		<g>
			<path class="st1" d="M255.999,40.928c-118.778,0-215.071,96.294-215.071,215.074c0,118.776,96.293,215.068,215.071,215.068
				c118.778,0,215.071-96.292,215.071-215.068C471.07,137.222,374.777,40.928,255.999,40.928z"/>
		</g>
	</g>
	<g>
		<g>
			<path class="st1" d="M255.999,1C115.391,1,1,115.392,1,256.002C1,396.609,115.391,511,255.999,511
				C396.607,511,511,396.609,511,256.002C511,115.392,396.607,1,255.999,1z M255.999,502.832
				c-136.103,0-246.83-110.728-246.83-246.83c0-136.104,110.727-246.833,246.83-246.833c136.102,0,246.832,110.729,246.832,246.833
				C502.831,392.104,392.101,502.832,255.999,502.832z"/>
		</g>
	</g>
	<g>
		<g>
			<path class="st0" d="M308.166,100.512H200.372c-9.709,0-17.581,7.872-17.581,17.576v221.626c0,9.712,7.871,17.581,17.581,17.581
				h107.793c9.709,0,17.578-7.869,17.578-17.581V118.088C325.743,108.384,317.874,100.512,308.166,100.512z"/>
		</g>
	</g>
	<g>
		<g>
			<path class="st2" d="M268.613,329.745h-28.69c-2.733,0-4.95,2.217-4.95,4.948v10.008c0,2.733,2.217,4.95,4.95,4.95h28.69
				c2.734,0,4.95-2.217,4.95-4.95v-10.008C273.563,331.962,271.347,329.745,268.613,329.745z"/>
		</g>
	</g>
	<g>
		<g>
			<path class="st2" d="M270.841,105.748h-33.146c-0.961,0-1.74,0.78-1.74,1.739v3.521c0,0.962,0.779,1.74,1.74,1.74h33.146
				c0.961,0,1.74-0.779,1.74-1.74v-3.521C272.581,106.528,271.802,105.748,270.841,105.748z"/>
		</g>
	</g>
	<g>
		<g>
			<path class="st7" d="M298.061,118.42h-87.584c-9.71,0-17.582,7.87-17.582,17.576v170.662c0,9.71,7.872,17.583,17.582,17.583
				h87.584c9.708,0,17.578-7.873,17.578-17.583V135.996C315.639,126.291,307.769,118.42,298.061,118.42z"/>
		</g>
	</g>
	<g>
		<g>
			<path class="st8" d="M295.729,191.671h-28.36l-8.764-26.972c-1.365-4.202-7.309-4.202-8.675,0l-8.764,26.972h-28.36
				c-4.418,0-6.255,5.653-2.681,8.25l22.944,16.67l-8.764,26.972c-1.365,4.202,3.444,7.696,7.018,5.099l22.944-16.67l22.944,16.67
				c3.574,2.597,8.383-0.897,7.018-5.099l-8.764-26.972l22.944-16.67C301.984,197.324,300.147,191.671,295.729,191.671z"/>
		</g>
	</g>
	<g>
		<g>
			<path class="st8" d="M368.36,277.958c-7.284-19.349-25.273-59.133-36.396-73.167c-2.039-2.573-4.158-4.347-6.221-5.56v111.488
				c-2.332-6.476-5.181-13.69-8.297-20.089c-8.161-16.757-10.922-24.429-12.548-27.629c-1.626-3.199-6.865-9.801-13.294-7.497
				c-7.062,2.53-5.568,12.261-5.568,12.261s3.811,19.051,3.697,29.68c-0.115,10.629-4.166,22.279-0.524,36.488
				c3.162,12.338,16.822,26.843,20.367,30.45l0.029,11.601h53.086c-0.541-7.381-0.788-17.469,0.416-28.212
				C366.238,319.854,374.255,293.614,368.36,277.958z"/>
		</g>
	</g>
	<g>
		<g>
			<path class="st2" d="M373.726,375.984h-75.092c-3.963,0-7.187,3.224-7.187,7.187v21.458c0,3.971,3.224,7.186,7.187,7.186h75.092
				c3.971,0,7.186-3.215,7.186-7.186v-21.458C380.912,379.208,377.697,375.984,373.726,375.984z"/>
		</g>
	</g>
	<g>
		<g>
			<path class="st3" d="M305.282,383.875c-3.042,0-5.501,2.459-5.501,5.501s2.459,5.501,5.501,5.501s5.5-2.459,5.5-5.501
				S308.323,383.875,305.282,383.875z"/>
		</g>
	</g>
	<g>
		<g>
			<path class="st0" d="M161.81,169.748c-15.004-3.602-26.715-14.829-30.484-29.194l-0.643-2.455l-0.637,2.455
				c-3.766,14.365-15.483,25.592-30.492,29.194L97,170.359l2.555,0.613c15.009,3.601,26.726,14.824,30.492,29.193l0.637,2.454
				l0.643-2.454c3.769-14.369,15.48-25.592,30.484-29.193l2.566-0.613L161.81,169.748z"/>
		</g>
	</g>
	<g>
		<g>
			<path class="st8" d="M393.114,188.981c-10.918-2.621-19.44-10.791-22.182-21.244l-0.468-1.787l-0.463,1.787
				c-2.74,10.453-11.266,18.623-22.188,21.244l-1.859,0.445l1.859,0.447c10.922,2.62,19.448,10.787,22.188,21.243l0.463,1.786
				l0.468-1.786c2.743-10.456,11.264-18.623,22.182-21.243l1.867-0.447L393.114,188.981z"/>
		</g>
	</g>
	<g>
		<g>
			<path class="st8" d="M446.34,253.806c-15.147-3.636-26.969-14.97-30.774-29.472l-0.649-2.479l-0.643,2.479
				c-3.801,14.502-15.63,25.835-30.782,29.472l-2.58,0.617l2.58,0.619c15.152,3.635,26.981,14.965,30.782,29.471l0.643,2.477
				l0.649-2.477c3.805-14.506,15.627-25.836,30.774-29.471l2.591-0.619L446.34,253.806z"/>
		</g>
	</g>
	<g>
		<g>
			<path class="st5" d="M200.104,378.152c-17.738-4.258-31.582-17.531-36.038-34.513l-0.76-2.903l-0.753,2.903
				c-4.452,16.982-18.304,30.254-36.047,34.513l-3.021,0.722l3.021,0.725c17.744,4.257,31.596,17.525,36.047,34.512l0.753,2.901
				l0.76-2.901c4.456-16.987,18.3-30.255,36.038-34.512l3.034-0.725L200.104,378.152z"/>
		</g>
	</g>
	<g>
		<g>
			<path class="st5" d="M265.514,387.455c-8.685-2.085-15.463-8.583-17.645-16.899l-0.372-1.421l-0.368,1.421
				c-2.18,8.315-8.962,14.814-17.65,16.899L228,387.808l1.479,0.355c8.688,2.084,15.47,8.581,17.65,16.898l0.368,1.42l0.372-1.42
				c2.182-8.317,8.96-14.814,17.645-16.898l1.486-0.355L265.514,387.455z"/>
		</g>
	</g>
</g>
</svg>
