<?xml version="1.0" encoding="utf-8"?>
<!-- Generator: Adobe Illustrator 22.0.1, SVG Export Plug-In . SVG Version: 6.00 Build 0)  -->
<svg version="1.1" id="Layer_1" xmlns="http://www.w3.org/2000/svg" xmlns:xlink="http://www.w3.org/1999/xlink" x="0px" y="0px"
	 viewBox="0 0 512 512" style="enable-background:new 0 0 512 512;" xml:space="preserve">
<style type="text/css">
	.st0{fill:#330D84;}
	.st1{fill:#EDF3FC;}
	.st2{fill:#5932AE;}
	.st3{fill:#FFFFFF;}
	.st4{fill:#FFE37B;}
	.st5{fill:#5D8EF9;}
	.st6{fill:#8C7BFD;}
	.st7{fill:#8AC9F9;}
	.st8{fill:#FFBE1B;}
	.st9{fill:#6857E5;}
</style>
<g>
	<g>
		<g>
			<path class="st1" d="M255.999,40.928c-118.778,0-215.071,96.294-215.071,215.074c0,118.776,96.292,215.068,215.071,215.068
				S471.07,374.778,471.07,256.002C471.07,137.222,374.777,40.928,255.999,40.928z"/>
		</g>
	</g>
	<g>
		<g>
			<path class="st1" d="M255.999,1C115.391,1,1,115.392,1,256.002C1,396.609,115.391,511,255.999,511S511,396.609,511,256.002
				C511,115.392,396.607,1,255.999,1z M255.999,502.832c-136.103,0-246.83-110.728-246.83-246.83
				c0-136.104,110.727-246.833,246.83-246.833c136.102,0,246.832,110.729,246.832,246.833
				C502.831,392.104,392.101,502.832,255.999,502.832z"/>
		</g>
	</g>
	<g>
		<g>
			<path class="st0" d="M348.733,173.832H163.269c-23.29,0-42.174,18.891-42.174,42.181v100.542
				c0,23.289,18.884,42.176,42.174,42.176h65.49l27.24,41.604l30.654-41.604h62.08c23.283,0,42.173-18.886,42.173-42.176V216.012
				C390.906,192.723,372.015,173.832,348.733,173.832z"/>
		</g>
	</g>
	<g>
		<g>
			<path class="st8" d="M332.641,243.377l-4.091-0.414c17.232-4.909,11.552-26.927-0.819-28.226l-3.087-0.056
				c16.559-4.188,11.126-27.188-1.822-28.583l-3.669,0.129c13.526-2.214,13.296-27.951-7.161-27.951c0,0-64.369-0.048-78.579-0.048
				c-10.441,0-18.084,5.58-22.99,10.876v83.481c8.088,9.812,19.91,27.466,25.083,38.814c11.583,25.408,8.656,43.941,16.938,43.941
				c13.356,0,21.285-17.363,21.285-30.935c0-10.834-2.483-14.316-4.84-21.276c-2.391-7.057-1.139-12.357,5.553-12.357
				c13.293,0,58.203,0,58.203,0C350.021,270.723,351.018,243.634,332.641,243.377z"/>
		</g>
	</g>
	<g>
		<g>
			<path class="st2" d="M201.502,158.228h-26.635c-4.929,0-8.92,3.991-8.92,8.92v87c0,4.918,3.991,8.921,8.92,8.921h26.635
				c4.919,0,8.921-4.002,8.921-8.921v-87C210.422,162.219,206.421,158.228,201.502,158.228z"/>
		</g>
	</g>
	<g>
		<g>
			<path class="st3" d="M193.801,239.07c-3.775,0-6.827,3.052-6.827,6.828c0,3.775,3.052,6.827,6.827,6.827s6.828-3.052,6.828-6.827
				C200.628,242.122,197.576,239.07,193.801,239.07z"/>
		</g>
	</g>
	<g>
		<g>
			<path class="st5" d="M232.672,405.656c-15.452-3.871-27.511-15.937-31.383-31.382l-0.666-2.635l-0.659,2.635
				c-3.871,15.445-15.935,27.511-31.388,31.382l-2.63,0.661l2.63,0.662c15.453,3.871,27.518,15.934,31.388,31.386l0.659,2.634
				l0.666-2.634c3.872-15.453,15.932-27.515,31.383-31.386l2.639-0.662L232.672,405.656z"/>
		</g>
	</g>
	<g>
		<g>
			<path class="st5" d="M305.808,419.635c-8.768-2.196-15.611-9.043-17.808-17.807l-0.378-1.495l-0.374,1.495
				c-2.196,8.764-9.042,15.61-17.811,17.807l-1.492,0.375l1.492,0.376c8.769,2.196,15.614,9.041,17.811,17.809l0.374,1.495
				l0.378-1.495c2.197-8.768,9.04-15.613,17.808-17.809l1.497-0.376L305.808,419.635z"/>
		</g>
	</g>
	<g>
		<g>
			<path class="st8" d="M404.101,126.771c-16.975-4.253-30.224-17.507-34.487-34.483l-0.722-2.895l-0.726,2.895
				c-4.244,16.976-17.509,30.23-34.49,34.483l-2.884,0.729l2.884,0.732c16.981,4.25,30.246,17.5,34.49,34.476l0.726,2.897
				l0.722-2.897c4.262-16.976,17.512-30.226,34.487-34.476L407,127.5L404.101,126.771z"/>
		</g>
	</g>
	<g>
		<g>
			<path class="st8" d="M316.902,118.03c-9.55-2.393-17.005-9.85-19.403-19.401L297.093,97l-0.408,1.628
				c-2.388,9.551-9.851,17.009-19.405,19.401l-1.622,0.41l1.622,0.412c9.554,2.391,17.017,9.846,19.405,19.397l0.408,1.63
				l0.406-1.63c2.398-9.551,9.853-17.006,19.403-19.397l1.631-0.412L316.902,118.03z"/>
		</g>
	</g>
	<g>
		<g>
			<path class="st0" d="M133.609,165.152c-10.626-2.664-18.921-10.967-21.59-21.591l-0.455-1.815l-0.451,1.815
				c-2.667,10.624-10.967,18.927-21.596,21.591l-1.811,0.453l1.811,0.453c10.629,2.663,18.929,10.963,21.596,21.591l0.451,1.814
				l0.455-1.814c2.669-10.628,10.964-18.928,21.59-21.591l1.818-0.453L133.609,165.152z"/>
		</g>
	</g>
</g>
</svg>
