<?xml version="1.0" encoding="utf-8"?>
<!-- Generator: Adobe Illustrator 22.0.1, SVG Export Plug-In . SVG Version: 6.00 Build 0)  -->
<svg version="1.1" id="Layer_1" xmlns="http://www.w3.org/2000/svg" xmlns:xlink="http://www.w3.org/1999/xlink" x="0px" y="0px"
	 viewBox="0 0 512 512" style="enable-background:new 0 0 512 512;" xml:space="preserve">
<style type="text/css">
	.st0{fill:#330D84;}
	.st1{fill:#EDF3FC;}
	.st2{fill:#5932AE;}
	.st3{fill:#FFFFFF;}
	.st4{fill:#FFE37B;}
	.st5{fill:#5D8EF9;}
	.st6{fill:#8C7BFD;}
	.st7{fill:#8AC9F9;}
	.st8{fill:#FFBE1B;}
	.st9{fill:#6857E5;}
</style>
<g>
	<g>
		<g>
			<path class="st1" d="M255.999,40.958c-118.778,0-215.071,96.294-215.071,215.074c0,118.776,96.293,215.068,215.071,215.068
				c118.778,0,215.071-96.292,215.071-215.068C471.07,137.252,374.777,40.958,255.999,40.958z"/>
		</g>
	</g>
	<g>
		<g>
			<path class="st1" d="M255.999,1.03C115.391,1.03,1,115.422,1,256.032C1,396.639,115.391,511.03,255.999,511.03
				C396.607,511.03,511,396.639,511,256.032C511,115.422,396.607,1.03,255.999,1.03z M255.999,502.861
				c-136.103,0-246.83-110.728-246.83-246.83c0-136.104,110.727-246.833,246.83-246.833c136.102,0,246.832,110.729,246.832,246.833
				C502.831,392.134,392.101,502.861,255.999,502.861z"/>
		</g>
	</g>
	<g>
		<g>
			<path class="st8" d="M228.395,249.948c-0.351-0.286-0.721-0.474-1.099-0.597c-1.531,9.905-3.68,13.756-3.68,13.756
				s0.118,5.702,0.183,8.045c0.641,0.123,1.319,0.106,1.951-0.202c2.117-1.034,4.055-9.357,4.764-12.046
				C231.222,256.216,231.439,252.424,228.395,249.948z"/>
		</g>
	</g>
	<g>
		<g>
			<path class="st8" d="M138.97,269.233c0,0-2.11-8.272-2.86-13.735c-0.15-1.091-1.227-2.996-2.435-6.297
				c-0.611,0.069-1.212,0.292-1.769,0.746c-3.044,2.477-2.825,6.268-2.12,8.956c0.707,2.689,2.648,11.012,4.766,12.046
				c1.667,0.813,3.658-0.377,4.431-0.919c0.002-0.308,0.003-0.605,0.005-0.918c0.002-0.01,0.005-0.034,0.007-0.046
				C138.979,269.172,138.97,269.233,138.97,269.233z"/>
		</g>
	</g>
	<g>
		<g>
			<path class="st8" d="M201.467,311.81c-0.744-2.32-1.124-4.71-1.278-7.004c-3.371,2.004-6.679,3.552-9.968,5.074
				c-2.807,1.298-13.057,1.611-16.544-0.009c-2.681-1.248-6.187-3.077-9.706-5.143c-0.151,2.317-0.532,4.737-1.284,7.082
				c-0.87,2.712-6.288,4.937-12.254,7.142c1.152,1.59,12.211,16.112,31.857,16.112c20.468,0,31.039-14.999,31.794-16.112
				C207.694,316.945,202.485,314.985,201.467,311.81z"/>
		</g>
	</g>
	<g>
		<g>
			<path class="st4" d="M223.528,262.776c-0.42-1.598-2.211-8.974-2.039-17.748c0.094-4.776,0.596-10.287,0.045-13.775
				c-0.551-3.49-2.389-9.186-6.611-9.552c0,0-18.814,21.084-59.161,18.435c-3.914-0.258-7.39-0.875-10.495-1.765
				c-3.845,2.997-5.23,6.773-5.121,9.866c0.357,10.408-0.985,19.73-1.159,20.875c-0.012,1.697-0.019,3.323-0.019,4.831
				c0,10.72,6.604,17.652,16.398,25.124c5.464,4.169,13.32,8.481,18.309,10.803c3.487,1.62,13.737,1.307,16.544,0.009
				c5.271-2.438,10.591-4.948,16.138-9.288c9.089-7.109,17.541-15.159,17.541-24.203
				C223.899,274.108,223.752,269.074,223.528,262.776z"/>
		</g>
	</g>
	<g>
		<g>
			<path class="st5" d="M223.466,203.27c-4.655-5.67-10.471-8.558-16.904-7.771c-4.896-6.37-12.652-11.205-24.97-10.496
				c-19.356,1.114-52.249,13.982-51.502,44.456c0.724,17.122,5.684,23.602,6.019,26.039c0.75,5.462,2.86,13.735,2.86,13.735
				s1.559-9.882,1.177-20.996c-0.109-3.093,1.276-6.869,5.121-9.866c3.104,0.89,6.581,1.507,10.495,1.765
				c40.347,2.649,59.161-18.435,59.161-18.435c4.222,0.366,6.06,6.062,6.611,9.552c0.551,3.488,0.049,8.999-0.045,13.775
				c-0.193,9.927,2.128,18.078,2.128,18.078s2.459-4.402,3.989-15.908C228.481,240.622,235.807,218.299,223.466,203.27z"/>
		</g>
	</g>
	<g>
		<g>
			<path class="st2" d="M234.983,325.167l-20.851-6.286c0,0-10.587,16.182-31.842,16.182c-20.786,0-31.964-16.262-31.964-16.262
				L128.6,325.23c-11.562,3.424-19.495,14.043-19.495,26.103v29.649h145.24v-29.755C254.346,339.22,246.48,328.629,234.983,325.167z
				"/>
		</g>
	</g>
	<g>
		<g>
			<g>
				<path class="st0" d="M303.917,299.067c-4.871-3.716-8.951-7.299-11.824-11.281c-0.009,0.259-0.02,0.519-0.026,0.777
					c-0.38,16.398,6.982,24.274,12.984,27.962c3.219-1.455,5.631-2.986,6.186-4.716c0.752-2.343,1.132-4.76,1.284-7.076
					C309.487,302.954,306.445,300.997,303.917,299.067z"/>
			</g>
		</g>
		<g>
			<g>
				<path class="st0" d="M354.907,300.592c-2.182,1.707-4.328,3.125-6.45,4.372c0.094-0.055,0.186-0.103,0.28-0.158
					c0.154,2.293,0.534,4.684,1.278,7.004c0.512,1.597,2.098,2.883,4.348,4.025c4.951-4.572,11.962-13.532,14.357-28.84
					C365.408,291.862,360.276,296.393,354.907,300.592z"/>
			</g>
		</g>
	</g>
	<g>
		<g>
			<path class="st8" d="M350.016,311.81c-0.744-2.32-1.124-4.71-1.278-7.004c-3.371,2.004-6.679,3.552-9.968,5.074
				c-2.807,1.298-13.057,1.611-16.544-0.009c-2.681-1.248-6.187-3.077-9.706-5.143c-0.151,2.317-0.532,4.737-1.284,7.082
				c-0.87,2.712-6.288,4.937-12.254,7.142c1.152,1.59,12.211,16.112,31.857,16.112c20.468,0,31.039-14.999,31.794-16.112
				C356.242,316.945,351.034,314.985,350.016,311.81z"/>
		</g>
	</g>
	<g>
		<g>
			<path class="st4" d="M362.255,231.846c0,0-16.361,9.928-33.367,15.108c-1.318,0.4,3.012-7.909,1.685-7.049
				c-12.37,8.018-31.596,12.518-31.596,12.518s-6.311,18.227-6.885,35.364c2.873,3.981,6.953,7.565,11.824,11.281
				c5.464,4.169,13.32,8.481,18.309,10.803c3.487,1.62,13.737,1.307,16.544,0.009c5.271-2.438,10.591-4.948,16.138-9.288
				c5.369-4.199,10.5-8.73,13.814-13.597c0.466-2.979,0.768-6.183,0.834-9.657C370.172,244.962,362.255,231.846,362.255,231.846z"/>
		</g>
	</g>
	<g>
		<g>
			<path class="st5" d="M383.531,325.167l-20.851-6.286c0,0-10.587,16.182-31.842,16.182c-20.786,0-31.964-16.262-31.964-16.262
				l-21.726,6.429c-11.562,3.424-19.495,14.043-19.495,26.103v29.649h145.24v-29.755
				C402.894,339.22,395.029,328.629,383.531,325.167z"/>
		</g>
	</g>
	<g>
		<g>
			<path class="st2" d="M389.997,274.518c-1.671-38.817-6.429-86.682-59.391-86.682c-48.034,0-56.178,35.354-61.873,72.311
				c-9.036,58.66,43.81,59.453,43.81,59.453s-21.113-3.554-20.476-31.037c0.404-17.358,6.911-36.141,6.911-36.141
				s19.226-4.5,31.596-12.518c1.327-0.86-3.004,7.449-1.685,7.049c17.006-5.18,33.367-15.108,33.367-15.108s7.917,13.116,7.3,45.492
				c-0.61,32.115-20.419,42.43-20.419,42.43S392.271,327.358,389.997,274.518z"/>
		</g>
	</g>
	<g>
		<g>
			<path class="st6" d="M330.233,200.438c-28.264,0-45.719,21.141-44.045,40.453c5.14-14.358,19.675-28.292,44.045-28.333
				c25.611-0.044,38.56,13.975,44.054,28.337C376.54,220.129,357.889,200.438,330.233,200.438z"/>
		</g>
	</g>
	<g>
		<g>
			<path class="st8" d="M290.219,269.05c-0.476-0.388-0.991-0.566-1.513-0.625c-0.007,0.053-0.016,0.112-0.023,0.163
				c-1.307,9.815-2.462,16.106-2.462,16.106l-0.001-0.003c0.028,0.875,0.053,1.713,0.074,2.472c0.548,0.105,1.127,0.09,1.666-0.172
				c1.808-0.884,3.464-7.993,4.07-10.29C292.633,274.404,292.819,271.166,290.219,269.05z"/>
		</g>
	</g>
	<g>
		<g>
			<path class="st8" d="M211.773,275.669c-0.126-0.921-1.03-3.536-1.952-7.271c-0.695-0.031-1.393,0.139-2.025,0.653
				c-2.6,2.116-2.413,5.354-1.81,7.65c0.604,2.297,2.262,9.406,4.071,10.29c1.31,0.639,2.845-0.166,3.597-0.661
				C213.252,284.323,212.273,279.317,211.773,275.669z"/>
		</g>
	</g>
	<g>
		<g>
			<path class="st8" d="M267.216,321.894c-0.636-1.982-0.96-4.024-1.092-5.983c-2.88,1.711-5.706,3.034-8.515,4.334
				c-2.398,1.108-11.154,1.376-14.132-0.008c-2.29-1.066-5.285-2.629-8.291-4.394c-0.129,1.979-0.454,4.046-1.097,6.05
				c-0.743,2.316-5.372,4.216-10.468,6.101c0.984,1.358,10.43,13.763,27.213,13.763c17.484,0,26.514-12.812,27.159-13.763
				C272.535,326.28,268.086,324.606,267.216,321.894z"/>
		</g>
	</g>
	<g>
		<g>
			<path class="st4" d="M286.219,284.692c-0.006-0.033-1.76-9.5-1.595-17.958c0.08-4.074-0.864-6.268-2.224-8.96
				c-1.323-2.612-10.776-9.379-10.776-9.379s1.353,2.556,3.066,4.711c1.979,2.49,4.336,4.628,3.993,4.647
				c0,0-5.76-0.34-10.062-1.613c-4.818-1.427-9.094-4.12-9.094-4.12s0.932,2.199,3.062,4.813s4.84,4.356,4.84,4.356
				s-15.369-0.151-24.976-2.856c-10.363-2.919-20.694-10.249-20.694-10.249s-2.573,4.532-4.136,7.77
				c-1.361,2.822-2.589,8.426-2.409,13.617c0.327,9.47-1.375,17.728-1.38,17.751c-0.004,0.801-0.006,1.582-0.006,2.324
				c0,9.157,5.641,15.079,14.008,21.461c4.667,3.561,11.378,7.244,15.64,9.229c2.978,1.384,11.734,1.116,14.132,0.008
				c4.503-2.083,9.047-4.227,13.786-7.934c7.764-6.072,14.984-12.949,14.984-20.674
				C286.379,290.299,286.318,287.835,286.219,284.692z"/>
		</g>
	</g>
	<g>
		<g>
			<path class="st7" d="M295.846,333.303l-17.811-5.369c0,0-9.044,13.823-27.2,13.823c-17.756,0-27.304-13.891-27.304-13.891
				l-18.559,5.491c-9.876,2.925-16.653,11.996-16.653,22.297v25.327h124.067v-25.418
				C312.386,345.308,305.667,336.261,295.846,333.303z"/>
		</g>
	</g>
	<g>
		<g>
			<path class="st0" d="M285.863,234.424c-8.072-13.165-26.685-20.287-38.291-19.353c-11.605,0.934-34.627,8.16-38.712,26.429
				c-3.653,16.342,2.565,31.638,2.913,34.168c0.64,4.66,2.062,11.557,2.062,11.557s1.708-8.27,1.381-17.753
				c-0.18-5.19,1.047-10.794,2.409-13.617c1.562-3.238,4.136-7.77,4.136-7.77s10.33,7.329,20.694,10.249
				c9.606,2.704,24.976,2.856,24.976,2.856s-2.711-1.742-4.84-4.356s-3.062-4.813-3.062-4.813s4.276,2.693,9.094,4.12
				c4.302,1.273,10.062,1.613,10.062,1.613c0.343-0.019-2.015-2.157-3.993-4.647c-1.713-2.155-3.066-4.711-3.066-4.711
				s9.453,6.767,10.776,9.379c1.36,2.692,2.305,4.886,2.224,8.96c-0.166,8.472,1.595,17.96,1.595,17.96s1.156-6.291,2.462-16.106
				C289.429,262.974,293.465,246.821,285.863,234.424z"/>
		</g>
	</g>
	<g>
		<g>
			<path class="st8" d="M320.31,93.933H197.824c-10.359,0-18.757,8.402-18.757,18.76v44.717c0,10.358,8.399,18.758,18.757,18.758
				h47.648l12.336,17.311l13.412-17.311h49.09c10.355,0,18.757-8.4,18.757-18.758v-44.717
				C339.067,102.335,330.665,93.933,320.31,93.933z"/>
		</g>
	</g>
	<g>
		<g>
			<path class="st3" d="M319.894,113.289H198.239c-1.941,0-3.514,1.573-3.514,3.514s1.573,3.514,3.514,3.514h121.655
				c1.941,0,3.514-1.573,3.514-3.514S321.835,113.289,319.894,113.289z"/>
		</g>
	</g>
	<g>
		<g>
			<path class="st3" d="M319.894,132.478H198.239c-1.941,0-3.514,1.573-3.514,3.514s1.573,3.514,3.514,3.514h121.655
				c1.941,0,3.514-1.573,3.514-3.514S321.835,132.478,319.894,132.478z"/>
		</g>
	</g>
	<g>
		<g>
			<path class="st3" d="M289.894,151.668h-91.655c-1.941,0-3.514,1.573-3.514,3.514s1.573,3.514,3.514,3.514h91.655
				c1.941,0,3.514-1.573,3.514-3.514S291.835,151.668,289.894,151.668z"/>
		</g>
	</g>
	<g>
		<g>
			<path class="st0" d="M201.238,406.391c-10.085-2.421-17.957-9.968-20.491-19.624l-0.432-1.651l-0.428,1.651
				c-2.531,9.656-10.407,17.203-20.496,19.624l-1.718,0.411l1.718,0.412c10.089,2.42,17.965,9.965,20.496,19.624l0.428,1.649
				l0.432-1.649c2.534-9.659,10.405-17.203,20.491-19.624l1.725-0.412L201.238,406.391z"/>
		</g>
	</g>
	<g>
		<g>
			<path class="st0" d="M242.946,414.8c-6.551-1.573-11.664-6.475-13.31-12.747l-0.281-1.072l-0.278,1.072
				c-1.644,6.272-6.76,11.174-13.313,12.747l-1.116,0.267l1.116,0.268c6.553,1.572,11.669,6.473,13.313,12.746l0.278,1.071
				l0.281-1.071c1.646-6.273,6.759-11.174,13.31-12.746l1.12-0.268L242.946,414.8z"/>
		</g>
	</g>
	<g>
		<g>
			<path class="st8" d="M416.892,181.961c-13-3.121-21.259-9.589-25.033-23.974l-0.528-2.016l-0.523,2.016
				c-3.092,11.797-12.715,21.016-25.04,23.974l-2.099,0.502l2.099,0.504c12.326,2.957,21.948,12.174,25.04,23.974l0.523,2.015
				l0.528-2.015c3.095-11.8,12.712-21.017,25.033-23.974l2.108-0.504L416.892,181.961z"/>
		</g>
	</g>
	<g>
		<g>
			<path class="st5" d="M147.53,174.211c-8.948-2.148-15.932-8.844-18.18-17.411l-0.383-1.465l-0.38,1.465
				c-2.246,8.567-9.234,15.263-18.185,17.411l-1.524,0.365l1.524,0.366c8.951,2.147,15.939,8.841,18.185,17.41l0.38,1.464
				l0.383-1.464c2.248-8.569,9.232-15.263,18.18-17.41l1.53-0.366L147.53,174.211z"/>
		</g>
	</g>
	<g>
		<g>
			<path class="st5" d="M169.462,145.865c-5.67-1.361-10.096-5.604-11.52-11.033l-0.243-0.928l-0.24,0.928
				c-1.423,5.429-5.851,9.672-11.523,11.033l-0.966,0.231l0.966,0.232c5.672,1.361,10.1,5.602,11.523,11.033l0.24,0.927l0.243-0.927
				c1.424-5.43,5.85-9.672,11.52-11.033l0.97-0.232L169.462,145.865z"/>
		</g>
	</g>
</g>
</svg>
