<?xml version="1.0" encoding="utf-8"?>
<!-- Generator: Adobe Illustrator 22.0.1, SVG Export Plug-In . SVG Version: 6.00 Build 0)  -->
<svg version="1.1" id="Layer_1" xmlns="http://www.w3.org/2000/svg" xmlns:xlink="http://www.w3.org/1999/xlink" x="0px" y="0px"
	 viewBox="0 0 512 512" style="enable-background:new 0 0 512 512;" xml:space="preserve">
<style type="text/css">
	.st0{fill:#330D84;}
	.st1{fill:#EDF3FC;}
	.st2{fill:#5932AE;}
	.st3{fill:#FFFFFF;}
	.st4{fill:#FFE37B;}
	.st5{fill:#5D8EF9;}
	.st6{fill:#8C7BFD;}
	.st7{fill:#8AC9F9;}
	.st8{fill:#FFBE1B;}
	.st9{fill:#6857E5;}
</style>
<g>
	<g>
		<g>
			<path class="st1" d="M255.999,40.928c-118.778,0-215.071,96.294-215.071,215.074c0,118.776,96.293,215.068,215.071,215.068
				S471.07,374.778,471.07,256.002C471.07,137.222,374.777,40.928,255.999,40.928z"/>
		</g>
	</g>
	<g>
		<g>
			<path class="st1" d="M255.999,1C115.391,1,1,115.392,1,256.002C1,396.609,115.391,511,255.999,511S511,396.609,511,256.002
				C511,115.392,396.607,1,255.999,1z M255.999,502.832c-136.103,0-246.83-110.728-246.83-246.83
				c0-136.104,110.727-246.833,246.83-246.833c136.102,0,246.832,110.729,246.832,246.833
				C502.831,392.104,392.101,502.832,255.999,502.832z"/>
		</g>
	</g>
	<g>
		<g>
			<path class="st0" d="M243.675,387.329c-4.213-1.88-8.049-4.046-11.487-6.396c0.052,0.412,0.137,0.824,0.298,1.228
				c0.049,0.123,4.772,12.327-4.435,18.366c-1.64,1.076-3.698,1.646-5.954,1.839c-0.125-1.336-0.327-2.687-0.609-4.042
				c-2.114-10.157-8.119-17.347-16.063-19.234c-6.55-1.556-13.037,1.486-15.777,7.395c-2.221,4.787-1.99,12.459,5.969,18.33
				c3.295,2.431,9.218,5.208,15.813,6.658c-0.88,3.128-2.463,5.747-4.618,7.364c-4.067,3.05-9.815,2.169-12.879,1.372
				c-7.782-2.025-15.547-7.823-18.062-13.485c-1.119-2.523-4.075-3.661-6.599-2.541c-2.523,1.121-3.661,4.075-2.54,6.599
				c3.748,8.441,13.897,16.297,24.682,19.104c2.792,0.727,5.505,1.086,8.085,1.086c5.089,0,9.663-1.398,13.313-4.136
				c4.422-3.317,7.427-8.438,8.72-14.392c4.285-0.181,8.452-1.226,12.004-3.556C242.131,403.25,244.122,394.525,243.675,387.329z
				 M201.552,396.768c-2.637-1.945-3.695-4.215-2.833-6.074c0.5-1.079,1.672-2.007,3.299-2.007c0.346,0,0.712,0.042,1.097,0.133
				c4.794,1.139,7.578,6.709,8.584,11.542c0.062,0.298,0.118,0.597,0.169,0.895C207.626,400.14,203.762,398.398,201.552,396.768z"/>
		</g>
	</g>
	<g>
		<g>
			<path class="st2" d="M429.721,196.351c-4.46-32.783-42.679-53.319-55.821-54.393c-15.205-1.245-34.391,26.843-35.024,36.604
				c-0.835,12.567,6.332,22.962,11.307,27.564c10.421,9.626,22.729,14.912,21.897,27.648c-1.201,18.661-50.417,87.247-69.044,94.94
				c-17.885,7.386-25.719,1.002-32.209-4.923c-6.216-5.675-16.719-13.624-27.911-12.129c-14.18,2.469-33.178,25.759-32.886,38.815
				c0.297,13.051,21.203,40.352,60.076,43.531c5.346,0.442,10.863,0.312,16.425-0.416
				C341.452,386.522,435.1,235.887,429.721,196.351z"/>
		</g>
	</g>
	<g>
		<g>
			<path class="st5" d="M297.054,148.665H179.688c-14.734,0-26.688,11.955-26.688,26.693v63.625
				c0,14.738,11.954,26.689,26.688,26.689h61.434l36.637,36.014v-36.014h19.295c14.739,0,26.689-11.951,26.689-26.689v-63.625
				C323.742,160.62,311.792,148.665,297.054,148.665z"/>
		</g>
	</g>
	<g>
		<g>
			<path class="st3" d="M296.462,176.206H210.28c-2.762,0-5,2.239-5,5s2.238,5,5,5h86.182c2.762,0,5-2.239,5-5
				S299.224,176.206,296.462,176.206z"/>
		</g>
	</g>
	<g>
		<g>
			<path class="st3" d="M296.462,203.51H180.28c-2.762,0-5,2.239-5,5s2.238,5,5,5h116.182c2.762,0,5-2.239,5-5
				S299.224,203.51,296.462,203.51z"/>
		</g>
	</g>
	<g>
		<g>
			<path class="st3" d="M268.21,230.813h-87.93c-2.762,0-5,2.239-5,5s2.238,5,5,5h87.93c2.762,0,5-2.239,5-5
				S270.972,230.813,268.21,230.813z"/>
		</g>
	</g>
	<g>
		<g>
			<path class="st8" d="M201.527,138.439c-7.81-12.567-23.849-14.354-34.141-10.161c-7.953,3.24-13.838,13.297-14.386,14.259
				c-0.549-0.962-6.433-11.019-14.386-14.259c-10.292-4.193-26.331-2.406-34.141,10.161c-7.816,12.575-0.591,31.744,12.546,46.475
				c14.403,16.152,34.442,27.098,35.935,27.902l0.046,0.025l0.046-0.025c1.494-0.804,21.532-11.751,35.935-27.902
				C202.118,170.183,209.343,151.015,201.527,138.439z"/>
		</g>
	</g>
	<g>
		<g>
			<path class="st0" d="M397.519,382.328c-14.766-3.545-26.292-14.594-30.001-28.732l-0.633-2.417l-0.626,2.417
				c-3.706,14.138-15.238,25.187-30.009,28.732l-2.515,0.601l2.515,0.604c14.771,3.544,26.303,14.59,30.009,28.731l0.626,2.415
				l0.633-2.415c3.709-14.142,15.235-25.188,30.001-28.731l2.526-0.604L397.519,382.328z"/>
		</g>
	</g>
	<g>
		<g>
			<path class="st0" d="M421.284,321.065c-7.981-1.916-14.211-7.888-16.216-15.53l-0.342-1.306l-0.339,1.306
				c-2.003,7.642-8.236,13.614-16.22,15.53l-1.359,0.325l1.359,0.326c7.984,1.916,14.217,7.886,16.22,15.53l0.339,1.305l0.342-1.305
				c2.005-7.644,8.235-13.614,16.216-15.53l1.365-0.326L421.284,321.065z"/>
		</g>
	</g>
	<g>
		<g>
			<path class="st8" d="M253.099,93.052c-13.299-3.193-23.679-13.144-27.02-25.876l-0.57-2.177l-0.564,2.177
				c-3.338,12.733-13.724,22.684-27.027,25.876l-2.265,0.542l2.265,0.544c13.304,3.192,23.689,13.14,27.027,25.876l0.564,2.175
				l0.57-2.175c3.341-12.736,13.721-22.684,27.02-25.876l2.275-0.544L253.099,93.052z"/>
		</g>
	</g>
	<g>
		<g>
			<path class="st8" d="M306.044,112.07c-8.759-2.103-15.595-8.657-17.796-17.042l-0.375-1.434l-0.372,1.434
				c-2.198,8.386-9.038,14.94-17.8,17.042l-1.492,0.357l1.492,0.358c8.762,2.102,15.602,8.654,17.8,17.042l0.372,1.433l0.375-1.433
				c2.2-8.388,9.037-14.94,17.796-17.042l1.498-0.358L306.044,112.07z"/>
		</g>
	</g>
	<g>
		<g>
			<path class="st5" d="M173.049,300.875c-19.928-4.784-35.482-19.695-40.488-38.774l-0.854-3.261l-0.845,3.261
				c-5.001,19.079-20.564,33.99-40.498,38.774l-3.394,0.812l3.394,0.815c19.935,4.782,35.497,19.689,40.498,38.773l0.845,3.259
				l0.854-3.259c5.006-19.084,20.56-33.991,40.488-38.773l3.408-0.815L173.049,300.875z"/>
		</g>
	</g>
</g>
</svg>
