<?xml version="1.0" encoding="utf-8"?>
<!-- Generator: Adobe Illustrator 22.0.1, SVG Export Plug-In . SVG Version: 6.00 Build 0)  -->
<svg version="1.1" id="Layer_1" xmlns="http://www.w3.org/2000/svg" xmlns:xlink="http://www.w3.org/1999/xlink" x="0px" y="0px"
	 viewBox="0 0 512 512" style="enable-background:new 0 0 512 512;" xml:space="preserve">
<style type="text/css">
	.st0{fill:#330D84;}
	.st1{fill:#EDF3FC;}
	.st2{fill:#5932AE;}
	.st3{fill:#FFFFFF;}
	.st4{fill:#FFE37B;}
	.st5{fill:#5D8EF9;}
	.st6{fill:#8C7BFD;}
	.st7{fill:#8AC9F9;}
	.st8{fill:#FFBE1B;}
	.st9{fill:#6857E5;}
</style>
<g>
	<g>
		<g>
			<g>
				<path class="st1" d="M255.999,40.928c-118.778,0-215.071,96.294-215.071,215.074c0,118.776,96.293,215.068,215.071,215.068
					c118.778,0,215.071-96.292,215.071-215.068C471.07,137.222,374.777,40.928,255.999,40.928z"/>
			</g>
		</g>
		<g>
			<g>
				<path class="st1" d="M255.999,1C115.391,1,1,115.392,1,256.002C1,396.609,115.391,511,255.999,511S511,396.609,511,256.002
					C511,115.392,396.607,1,255.999,1z M255.999,502.832c-136.103,0-246.83-110.728-246.83-246.83
					c0-136.104,110.727-246.833,246.83-246.833c136.102,0,246.832,110.729,246.832,246.833
					C502.831,392.104,392.101,502.832,255.999,502.832z"/>
			</g>
		</g>
	</g>
	<g>
		<g>
			<path class="st0" d="M422.021,151.797c-10.577-2.539-18.832-10.453-21.489-20.58l-0.453-1.731l-0.449,1.731
				c-2.654,10.126-10.914,18.041-21.495,20.58l-1.801,0.431l1.801,0.432c10.58,2.539,18.84,10.45,21.495,20.58l0.449,1.73
				l0.453-1.73c2.657-10.129,10.912-18.041,21.489-20.58l1.809-0.432L422.021,151.797z"/>
		</g>
	</g>
	<g>
		<g>
			<path class="st5" d="M110.073,255.521c-11.723-2.814-20.873-11.586-23.818-22.81l-0.502-1.919l-0.497,1.919
				c-2.942,11.224-12.097,19.996-23.824,22.81l-1.997,0.478l1.997,0.479c11.727,2.813,20.882,11.583,23.824,22.81l0.497,1.917
				l0.502-1.917c2.945-11.227,12.095-19.996,23.818-22.81l2.005-0.479L110.073,255.521z"/>
		</g>
	</g>
	<g>
		<g>
			<path class="st8" d="M319.647,421.195c-13.3-3.193-23.681-13.145-27.022-25.878l-0.57-2.177l-0.564,2.177
				c-3.338,12.733-13.724,22.685-27.029,25.878l-2.265,0.542l2.265,0.544c13.305,3.192,23.691,13.141,27.029,25.878l0.564,2.175
				l0.57-2.175c3.341-12.737,13.722-22.686,27.022-25.878l2.275-0.544L319.647,421.195z"/>
		</g>
	</g>
	<g>
		<g>
			<path class="st8" d="M253.553,409.309c-7.123-1.71-12.682-7.04-14.471-13.859l-0.305-1.166l-0.302,1.166
				c-1.788,6.819-7.35,12.149-14.475,13.859l-1.213,0.29l1.213,0.291c7.125,1.709,12.688,7.037,14.475,13.859l0.302,1.165
				l0.305-1.165c1.789-6.821,7.349-12.149,14.471-13.859l1.218-0.291L253.553,409.309z"/>
		</g>
	</g>
	<g>
		<g>
			<path class="st7" d="M349.442,129.486h-167.34c-11.397,0-20.634,9.24-20.634,20.63v211.76c0,11.399,9.237,20.637,20.634,20.637
				h167.34c11.396,0,20.632-9.237,20.632-20.637v-211.76C370.074,138.727,360.838,129.486,349.442,129.486z"/>
		</g>
	</g>
	<g>
		<g>
			<path class="st5" d="M170.474,168.747h-18.01c-5.82,0-10.538,4.718-10.538,10.538s4.718,10.538,10.538,10.538h18.01
				c5.82,0,10.538-4.718,10.538-10.538S176.294,168.747,170.474,168.747z"/>
		</g>
	</g>
	<g>
		<g>
			<path class="st5" d="M170.474,219.154h-18.01c-5.82,0-10.538,4.718-10.538,10.538c0,5.82,4.718,10.538,10.538,10.538h18.01
				c5.82,0,10.538-4.718,10.538-10.538C181.011,223.872,176.294,219.154,170.474,219.154z"/>
		</g>
	</g>
	<g>
		<g>
			<path class="st5" d="M170.474,269.562h-18.01c-5.82,0-10.538,4.718-10.538,10.538c0,5.82,4.718,10.538,10.538,10.538h18.01
				c5.82,0,10.538-4.718,10.538-10.538C181.011,274.28,176.294,269.562,170.474,269.562z"/>
		</g>
	</g>
	<g>
		<g>
			<path class="st5" d="M170.474,319.969h-18.01c-5.82,0-10.538,4.718-10.538,10.538s4.718,10.538,10.538,10.538h18.01
				c5.82,0,10.538-4.718,10.538-10.538S176.294,319.969,170.474,319.969z"/>
		</g>
	</g>
	<g>
		<g>
			<circle class="st2" cx="238.976" cy="208.265" r="42.5"/>
		</g>
	</g>
	<g>
		<g>
			<path class="st3" d="M223.182,192.938c-3.128,0-5.663,2.536-5.663,5.663s2.536,5.663,5.663,5.663
				c3.128,0,5.663-2.536,5.663-5.663S226.309,192.938,223.182,192.938z"/>
		</g>
	</g>
	<g>
		<g>
			<path class="st3" d="M254.771,192.938c-3.128,0-5.663,2.536-5.663,5.663s2.536,5.663,5.663,5.663
				c3.128,0,5.663-2.536,5.663-5.663S257.899,192.938,254.771,192.938z"/>
		</g>
	</g>
	<g>
		<g>
			<path class="st3" d="M257.332,216.527c-2.233-1.622-5.36-1.128-6.984,1.106c-2.675,3.682-6.82,5.794-11.372,5.794
				c-4.551,0-8.696-2.112-11.371-5.794c-1.624-2.235-4.75-2.728-6.984-1.106c-2.234,1.623-2.729,4.75-1.106,6.984
				c4.579,6.302,11.672,9.916,19.461,9.916c7.79,0,14.883-3.614,19.461-9.916C260.061,221.277,259.565,218.15,257.332,216.527z"/>
		</g>
	</g>
	<g>
		<g>
			<circle class="st8" cx="238.976" cy="303.57" r="42.5"/>
		</g>
	</g>
	<g>
		<g>
			<path class="st3" d="M223.182,288.243c-3.128,0-5.663,2.536-5.663,5.663s2.536,5.663,5.663,5.663
				c3.128,0,5.663-2.536,5.663-5.663S226.309,288.243,223.182,288.243z"/>
		</g>
	</g>
	<g>
		<g>
			<path class="st3" d="M254.771,288.243c-3.128,0-5.663,2.536-5.663,5.663s2.536,5.663,5.663,5.663
				c3.128,0,5.663-2.536,5.663-5.663S257.899,288.243,254.771,288.243z"/>
		</g>
	</g>
	<g>
		<g>
			<path class="st3" d="M258.438,317.824c-4.579-6.302-11.672-9.917-19.462-9.917c-7.789,0-14.883,3.614-19.461,9.917
				c-1.623,2.234-1.127,5.361,1.106,6.984c2.234,1.622,5.361,1.127,6.984-1.106c2.675-3.683,6.82-5.794,11.371-5.794
				c4.551,0,8.696,2.112,11.371,5.794c0.979,1.347,2.503,2.062,4.049,2.062c1.019,0,2.047-0.311,2.935-0.955
				C259.565,323.185,260.061,320.058,258.438,317.824z"/>
		</g>
	</g>
	<g>
		<g>
			<path class="st3" d="M344.178,181.01h-44.511c-2.761,0-5,2.239-5,5v44.511c0,2.761,2.239,5,5,5h44.511c2.761,0,5-2.239,5-5
				V186.01C349.178,183.248,346.939,181.01,344.178,181.01z M339.178,225.521h-34.511V191.01h34.511V225.521z"/>
		</g>
	</g>
	<g>
		<g>
			<path class="st3" d="M344.178,276.314h-44.511c-2.761,0-5,2.239-5,5v44.511c0,2.761,2.239,5,5,5h44.511c2.761,0,5-2.239,5-5
				v-44.511C349.178,278.553,346.939,276.314,344.178,276.314z M339.178,320.825h-34.511v-34.511h34.511V320.825z"/>
		</g>
	</g>
	<g>
		<g>
			<path class="st2" d="M358.782,171.089c-2.144-1.741-5.292-1.415-7.034,0.728l-28.087,34.574l-6.528-6.996
				c-1.884-2.019-5.047-2.129-7.067-0.245c-2.019,1.884-2.128,5.048-0.245,7.067l10.444,11.193c0.947,1.015,2.272,1.589,3.655,1.589
				c0.057,0,0.115-0.001,0.172-0.003c1.445-0.05,2.798-0.722,3.709-1.844l31.707-39.03
				C361.251,175.979,360.925,172.83,358.782,171.089z"/>
		</g>
	</g>
</g>
</svg>
