<?xml version="1.0" encoding="utf-8"?>
<!-- Generator: Adobe Illustrator 22.0.1, SVG Export Plug-In . SVG Version: 6.00 Build 0)  -->
<svg version="1.1" id="Layer_1" xmlns="http://www.w3.org/2000/svg" xmlns:xlink="http://www.w3.org/1999/xlink" x="0px" y="0px"
	 viewBox="0 0 512 512" style="enable-background:new 0 0 512 512;" xml:space="preserve">
<style type="text/css">
	.st0{fill:#330D84;}
	.st1{fill:#EDF3FC;}
	.st2{fill:#5932AE;}
	.st3{fill:#FFFFFF;}
	.st4{fill:#FFE37B;}
	.st5{fill:#5D8EF9;}
	.st6{fill:#8C7BFD;}
	.st7{fill:#8AC9F9;}
	.st8{fill:#FFBE1B;}
	.st9{fill:#6857E5;}
</style>
<g>
	<g>
		<g>
			<path class="st1" d="M255.999,40.928c-118.778,0-215.071,96.294-215.071,215.074c0,118.776,96.293,215.068,215.071,215.068
				c118.778,0,215.071-96.292,215.071-215.068C471.07,137.222,374.777,40.928,255.999,40.928z"/>
		</g>
	</g>
	<g>
		<g>
			<path class="st1" d="M255.999,1C115.391,1,1,115.392,1,256.002C1,396.609,115.391,511,255.999,511S511,396.609,511,256.002
				C511,115.392,396.607,1,255.999,1z M255.999,502.832c-136.103,0-246.83-110.728-246.83-246.83
				c0-136.104,110.727-246.833,246.83-246.833c136.102,0,246.832,110.729,246.832,246.833
				C502.831,392.104,392.101,502.832,255.999,502.832z"/>
		</g>
	</g>
	<g>
		<g>
			<path class="st2" d="M412.702,205.354h-51.502l-15.915-48.981c-2.479-7.63-13.274-7.63-15.753,0l-15.915,48.981h-51.502
				c-8.023,0-11.358,10.266-4.868,14.982l41.666,30.272l-15.915,48.981c-2.479,7.63,6.254,13.975,12.744,9.259l41.666-30.272
				l41.666,30.272c6.49,4.716,15.223-1.629,12.744-9.259l-15.915-48.981l41.666-30.272
				C424.061,215.621,420.725,205.354,412.702,205.354z"/>
		</g>
	</g>
	<g>
		<g>
			<path class="st5" d="M175.469,292.691h-23.246l-7.184-22.108c-1.119-3.444-5.991-3.444-7.11,0l-7.183,22.108h-23.246
				c-3.621,0-5.127,4.634-2.197,6.762l18.807,13.664l-7.184,22.109c-1.119,3.444,2.823,6.308,5.752,4.179l18.807-13.664
				l18.807,13.664c2.93,2.128,6.871-0.735,5.752-4.179l-7.183-22.109l18.807-13.664C180.596,297.325,179.09,292.691,175.469,292.691
				z"/>
		</g>
	</g>
	<g>
		<g>
			<path class="st8" d="M343.907,226.573h-60.13l-18.581-57.187c-2.894-8.908-15.497-8.908-18.392,0l-18.581,57.187h-60.13
				c-9.367,0-13.261,11.986-5.683,17.492l48.646,35.344l-18.581,57.187c-2.895,8.908,7.302,16.316,14.879,10.81L256,312.062
				l48.646,35.343c7.578,5.506,17.774-1.902,14.879-10.81l-18.581-57.187l48.646-35.344
				C357.168,238.559,353.274,226.573,343.907,226.573z"/>
		</g>
	</g>
	<g>
		<g>
			<path class="st0" d="M203.028,158.811c-18.198-4.369-32.401-17.985-36.973-35.408l-0.78-2.978l-0.772,2.978
				c-4.567,17.423-18.778,31.039-36.982,35.408l-3.099,0.741l3.099,0.744c18.204,4.367,32.415,17.98,36.982,35.407l0.772,2.976
				l0.78-2.976c4.571-17.428,18.775-31.04,36.973-35.407l3.113-0.744L203.028,158.811z"/>
		</g>
	</g>
	<g>
		<g>
			<path class="st0" d="M137.9,201.577c-9.813-2.356-17.472-9.698-19.937-19.094l-0.42-1.606l-0.416,1.606
				c-2.463,9.395-10.126,16.738-19.942,19.094l-1.671,0.4l1.671,0.401c9.816,2.355,17.479,9.695,19.942,19.093l0.416,1.605
				l0.42-1.605c2.465-9.398,10.124-16.738,19.937-19.093l1.679-0.401L137.9,201.577z"/>
		</g>
	</g>
	<g>
		<g>
			<path class="st8" d="M416.654,162.273c-10.586-2.541-18.848-10.462-21.507-20.597l-0.453-1.732l-0.449,1.732
				c-2.657,10.135-10.923,18.055-21.513,20.597l-1.803,0.431l1.803,0.433c10.589,2.541,18.856,10.459,21.513,20.596l0.449,1.731
				l0.453-1.731c2.659-10.138,10.921-18.056,21.507-20.596l1.811-0.433L416.654,162.273z"/>
		</g>
	</g>
	<g>
		<g>
			<path class="st5" d="M315.468,399.085c-17.68-4.244-31.479-17.474-35.921-34.401l-0.758-2.894l-0.75,2.894
				c-4.437,16.927-18.244,30.156-35.93,34.401l-3.011,0.72l3.011,0.723c17.686,4.243,31.493,17.468,35.93,34.4l0.75,2.891
				l0.758-2.891c4.441-16.932,18.241-30.157,35.921-34.4l3.024-0.723L315.468,399.085z"/>
		</g>
	</g>
	<g>
		<g>
			<path class="st5" d="M387.997,370.495c-11.711-2.812-20.852-11.575-23.794-22.787l-0.502-1.917l-0.497,1.917
				c-2.939,11.213-12.085,19.976-23.8,22.787l-1.995,0.477l1.995,0.479c11.715,2.811,20.861,11.571,23.8,22.787l0.497,1.915
				l0.502-1.915c2.942-11.216,12.083-19.976,23.794-22.787l2.003-0.479L387.997,370.495z"/>
		</g>
	</g>
</g>
</svg>
