<?xml version="1.0" encoding="utf-8"?>
<!-- Generator: Adobe Illustrator 22.0.1, SVG Export Plug-In . SVG Version: 6.00 Build 0)  -->
<svg version="1.1" id="Layer_1" xmlns="http://www.w3.org/2000/svg" xmlns:xlink="http://www.w3.org/1999/xlink" x="0px" y="0px"
	 viewBox="0 0 512 512" style="enable-background:new 0 0 512 512;" xml:space="preserve">
<style type="text/css">
	.st0{fill:#330D84;}
	.st1{fill:#EDF3FC;}
	.st2{fill:#5932AE;}
	.st3{fill:#FFFFFF;}
	.st4{fill:#FFE37B;}
	.st5{fill:#5D8EF9;}
	.st6{fill:#8C7BFD;}
	.st7{fill:#8AC9F9;}
	.st8{fill:#FFBE1B;}
	.st9{fill:#6857E5;}
</style>
<g>
	<g>
		<g>
			<g>
				<path class="st1" d="M261.999,40.929c-118.778,0-215.071,96.294-215.071,215.074c0,118.776,96.293,215.068,215.071,215.068
					c118.778,0,215.071-96.292,215.071-215.068C477.07,137.223,380.777,40.929,261.999,40.929z"/>
			</g>
		</g>
		<g>
			<g>
				<path class="st1" d="M255.999,1C115.391,1,1,115.392,1,256.002C1,396.609,115.391,511,255.999,511S511,396.609,511,256.002
					C511,115.392,396.607,1,255.999,1z M255.999,502.832c-136.103,0-246.83-110.728-246.83-246.83
					c0-136.104,110.727-246.833,246.83-246.833c136.102,0,246.832,110.729,246.832,246.833
					C502.831,392.104,392.101,502.832,255.999,502.832z"/>
			</g>
		</g>
	</g>
	<g>
		<g>
			<g>
				<path class="st2" d="M366.508,137.988H145.493c-8.109,0-14.679,6.574-14.679,14.677v58.356c0,8.11,6.571,14.682,14.679,14.682
					h19.343l14.136,25.685l14.607-25.685h172.928c8.107,0,14.678-6.572,14.678-14.682v-58.356
					C381.186,144.562,374.614,137.988,366.508,137.988z"/>
			</g>
		</g>
		<g>
			<g>
				<path class="st3" d="M350.812,161.617H216.989c-2.485,0-4.5,2.015-4.5,4.5s2.015,4.5,4.5,4.5h133.823c2.485,0,4.5-2.015,4.5-4.5
					S353.297,161.617,350.812,161.617z"/>
			</g>
		</g>
		<g>
			<g>
				<path class="st3" d="M330.812,191.896H216.989c-2.485,0-4.5,2.015-4.5,4.5s2.015,4.5,4.5,4.5h113.823c2.485,0,4.5-2.015,4.5-4.5
					S333.297,191.896,330.812,191.896z"/>
			</g>
		</g>
	</g>
	<g>
		<g>
			<g>
				<path class="st5" d="M366.507,275.988H145.492c-8.107,0-14.678,6.574-14.678,14.677v58.356c0,8.11,6.572,14.682,14.678,14.682
					h172.928l14.607,25.685l14.136-25.685h19.343c8.109,0,14.679-6.572,14.679-14.682v-58.356
					C381.186,282.562,374.615,275.988,366.507,275.988z"/>
			</g>
		</g>
		<g>
			<g>
				<path class="st3" d="M295.011,299.617H161.188c-2.485,0-4.5,2.015-4.5,4.5s2.015,4.5,4.5,4.5h133.823c2.485,0,4.5-2.015,4.5-4.5
					S297.496,299.617,295.011,299.617z"/>
			</g>
		</g>
		<g>
			<g>
				<path class="st3" d="M295.011,329.896H181.188c-2.485,0-4.5,2.015-4.5,4.5s2.015,4.5,4.5,4.5h113.823c2.485,0,4.5-2.015,4.5-4.5
					S297.496,329.896,295.011,329.896z"/>
			</g>
		</g>
	</g>
	<g>
		<g>
			<path class="st8" d="M205.13,132.721c-6.474-10.417-19.77-11.899-28.301-8.423c-6.593,2.686-11.471,11.023-11.926,11.82
				c-0.455-0.797-5.333-9.134-11.926-11.82c-8.531-3.476-21.827-1.994-28.301,8.423c-6.479,10.425-0.49,26.314,10.4,38.526
				c11.939,13.389,28.55,22.463,29.788,23.13l0.038,0.021l0.038-0.021c1.238-0.667,17.849-9.741,29.788-23.13
				C205.619,159.035,211.609,143.145,205.13,132.721z"/>
		</g>
	</g>
	<g>
		<g>
			<path class="st8" d="M403.547,270.738h-26.433l-8.168-25.139c-1.272-3.916-6.813-3.916-8.085,0l-8.168,25.139h-26.433
				c-4.118,0-5.83,5.269-2.499,7.689l21.385,15.537l-8.168,25.14c-1.272,3.916,3.21,7.173,6.541,4.752l21.385-15.537l21.385,15.537
				c3.331,2.42,7.813-0.836,6.541-4.752l-8.168-25.14l21.385-15.537C409.377,276.007,407.665,270.738,403.547,270.738z"/>
		</g>
	</g>
	<g>
		<g>
			<path class="st0" d="M434.267,202.805c-8.879-2.132-15.809-8.775-18.039-17.276l-0.38-1.453l-0.377,1.453
				c-2.228,8.5-9.162,15.144-18.044,17.276l-1.512,0.362l1.512,0.363c8.882,2.131,15.815,8.772,18.044,17.275l0.377,1.452
				l0.38-1.452c2.23-8.503,9.16-15.145,18.039-17.275l1.519-0.363L434.267,202.805z"/>
		</g>
	</g>
	<g>
		<g>
			<path class="st8" d="M307.662,89.902c-11.455-2.75-20.397-11.322-23.274-22.29l-0.491-1.875l-0.486,1.875
				c-2.875,10.968-11.821,19.54-23.281,22.29l-1.951,0.467l1.951,0.468c11.459,2.749,20.406,11.318,23.281,22.289l0.486,1.874
				l0.491-1.874c2.878-10.971,11.819-19.54,23.274-22.289l1.959-0.468L307.662,89.902z"/>
		</g>
	</g>
	<g>
		<g>
			<path class="st8" d="M363.605,103.633c-7.592-1.823-13.517-7.503-15.424-14.771l-0.325-1.243l-0.322,1.243
				c-1.905,7.268-7.834,12.949-15.428,14.771l-1.293,0.309l1.293,0.31c7.594,1.822,13.523,7.501,15.428,14.771l0.322,1.241
				l0.325-1.241c1.907-7.27,7.833-12.949,15.424-14.771l1.298-0.31L363.605,103.633z"/>
		</g>
	</g>
	<g>
		<g>
			<path class="st5" d="M225.222,409.141c-16.824-4.039-29.956-16.628-34.182-32.736l-0.721-2.753l-0.714,2.753
				c-4.222,16.108-17.361,28.697-34.191,32.736l-2.865,0.685l2.865,0.688c16.83,4.038,29.969,16.623,34.191,32.735l0.714,2.751
				l0.721-2.751c4.226-16.112,17.358-28.697,34.182-32.735l2.878-0.688L225.222,409.141z"/>
		</g>
	</g>
	<g>
		<g>
			<path class="st5" d="M139.136,373.315c-8.261-1.983-14.709-8.165-16.784-16.074l-0.354-1.352l-0.351,1.352
				c-2.073,7.909-8.525,14.091-16.789,16.074l-1.407,0.336l1.407,0.338c8.264,1.983,14.716,8.162,16.789,16.074l0.351,1.351
				l0.354-1.351c2.075-7.912,8.523-14.091,16.784-16.074l1.413-0.338L139.136,373.315z"/>
		</g>
	</g>
</g>
</svg>
