<?xml version="1.0" encoding="utf-8"?>
<!-- Generator: Adobe Illustrator 22.0.0, SVG Export Plug-In . SVG Version: 6.00 Build 0)  -->
<svg version="1.1" id="Icon_Set" xmlns="http://www.w3.org/2000/svg" xmlns:xlink="http://www.w3.org/1999/xlink" x="0px" y="0px"
	 viewBox="0 0 64 64" style="enable-background:new 0 0 64 64;" xml:space="preserve">
<style type="text/css">
	.st0{fill:#212A41;}
	.st1{fill:#4E4B51;}
	.st2{fill:#6C696F;}
	.st3{fill:#B7C0D7;}
	.st4{fill:#D5DEF5;}
	.st5{fill:#99A2B9;}
	.st6{fill:#E0E0E0;}
	.st7{fill:#D32E5E;}
	.st8{fill:#F9AC2F;}
	.st9{fill:#0079A8;}
	.st10{fill:#BED38E;}
	.st11{fill:#8A878D;}
	.st12{fill:#C2C2C2;}
	.st13{fill:#302D33;}
	.st14{fill:#FEFEFE;}
	.st15{fill:#FFCA4D;}
	.st16{fill:#DB8E11;}
	.st17{fill:#A4A4A4;}
	.st18{fill:#7B849B;}
	.st19{fill:#E0C8A4;}
	.st20{fill:#C2AA86;}
	.st21{fill:#FEE6C2;}
	.st22{fill:#1E97C6;}
	.st23{fill:#005B8A;}
	.st24{fill:#BD7000;}
</style>
<g>
	<g>
		<path class="st2" d="M52.117,25.5H31c-1.105,0-2-0.895-2-2v-12c0-1.105,0.895-2,2-2h26c1.105,0,2,0.895,2,2v1.351
			c0,0.43-0.069,0.857-0.205,1.265l-2.883,8.649C55.367,24.398,53.839,25.5,52.117,25.5z"/>
		<path class="st0" d="M52.117,26H31c-1.379,0-2.5-1.122-2.5-2.5v-12c0-1.378,1.121-2.5,2.5-2.5h26c1.379,0,2.5,1.122,2.5,2.5v1.351
			c0,0.484-0.077,0.963-0.23,1.422l-2.883,8.65C55.772,24.764,54.057,26,52.117,26z M31,10c-0.827,0-1.5,0.673-1.5,1.5v12
			c0,0.827,0.673,1.5,1.5,1.5h21.117c1.509,0,2.843-0.962,3.32-2.393l2.883-8.649c0.119-0.357,0.18-0.73,0.18-1.106V11.5
			c0-0.827-0.673-1.5-1.5-1.5H31z"/>
	</g>
	<g>
		<path class="st2" d="M52,35.5H30c-2.209,0-4-1.791-4-4v-12c0-2.209,1.791-4,4-4h22c2.209,0,4,1.791,4,4v12
			C56,33.709,54.209,35.5,52,35.5z"/>
		<path class="st0" d="M52,36H30c-2.481,0-4.5-2.019-4.5-4.5v-12c0-2.481,2.019-4.5,4.5-4.5h22c2.481,0,4.5,2.019,4.5,4.5v12
			C56.5,33.981,54.481,36,52,36z M30,16c-1.93,0-3.5,1.57-3.5,3.5v12c0,1.93,1.57,3.5,3.5,3.5h22c1.93,0,3.5-1.57,3.5-3.5v-12
			c0-1.93-1.57-3.5-3.5-3.5H30z"/>
	</g>
	<g>
		<path class="st1" d="M32,35.5H10c-2.209,0-4-1.791-4-4v-12c0-2.209,1.791-4,4-4h22c2.209,0,4,1.791,4,4v12
			C36,33.709,34.209,35.5,32,35.5z"/>
		<path class="st0" d="M32,36H10c-2.481,0-4.5-2.019-4.5-4.5v-12c0-2.481,2.019-4.5,4.5-4.5h22c2.481,0,4.5,2.019,4.5,4.5v12
			C36.5,33.981,34.481,36,32,36z M10,16c-1.93,0-3.5,1.57-3.5,3.5v12c0,1.93,1.57,3.5,3.5,3.5h22c1.93,0,3.5-1.57,3.5-3.5v-12
			c0-1.93-1.57-3.5-3.5-3.5H10z"/>
	</g>
	<g>
		<g>
			<path class="st2" d="M10,34c-1.379,0-2.5-1.122-2.5-2.5v-4C7.5,27.224,7.724,27,8,27s0.5,0.224,0.5,0.5v4
				c0,0.827,0.673,1.5,1.5,1.5c0.276,0,0.5,0.224,0.5,0.5S10.276,34,10,34z"/>
		</g>
	</g>
	<g>
		<path class="st1" d="M54,32c-0.276,0-0.5-0.224-0.5-0.5v-12c0-0.276,0.224-0.5,0.5-0.5s0.5,0.224,0.5,0.5v12
			C54.5,31.776,54.276,32,54,32z"/>
	</g>
	<g>
		<path class="st11" d="M38,32c-0.276,0-0.5-0.224-0.5-0.5v-12c0-0.276,0.224-0.5,0.5-0.5s0.5,0.224,0.5,0.5v12
			C38.5,31.776,38.276,32,38,32z"/>
	</g>
	<g>
		<path class="st2" d="M32,35.5v11H22v4h12c1.105,0,2-0.895,2-2v-13H32z"/>
		<path class="st0" d="M34,51H22c-0.276,0-0.5-0.224-0.5-0.5v-4c0-0.276,0.224-0.5,0.5-0.5h9.5V35.5c0-0.276,0.224-0.5,0.5-0.5h4
			c0.276,0,0.5,0.224,0.5,0.5v13C36.5,49.878,35.379,51,34,51z M22.5,50H34c0.827,0,1.5-0.673,1.5-1.5V36h-3v10.5
			c0,0.276-0.224,0.5-0.5,0.5h-9.5V50z"/>
	</g>
	<g>
		<path class="st1" d="M17,54.5h-4c-1.105,0-2-0.895-2-2v-8c0-1.105,0.895-2,2-2h4c1.105,0,2,0.895,2,2v8
			C19,53.605,18.105,54.5,17,54.5z"/>
		<path class="st0" d="M17,55h-4c-1.379,0-2.5-1.122-2.5-2.5v-8c0-1.378,1.121-2.5,2.5-2.5h4c1.379,0,2.5,1.122,2.5,2.5v8
			C19.5,53.878,18.379,55,17,55z M13,43c-0.827,0-1.5,0.673-1.5,1.5v8c0,0.827,0.673,1.5,1.5,1.5h4c0.827,0,1.5-0.673,1.5-1.5v-8
			c0-0.827-0.673-1.5-1.5-1.5H13z"/>
	</g>
	<g>
		<path class="st2" d="M20,54.5h-4c-1.105,0-2-0.895-2-2v-8c0-1.105,0.895-2,2-2h4c1.105,0,2,0.895,2,2v8
			C22,53.605,21.105,54.5,20,54.5z"/>
		<path class="st0" d="M20,55h-4c-1.379,0-2.5-1.122-2.5-2.5v-8c0-1.378,1.121-2.5,2.5-2.5h4c1.379,0,2.5,1.122,2.5,2.5v8
			C22.5,53.878,21.379,55,20,55z M16,43c-0.827,0-1.5,0.673-1.5,1.5v8c0,0.827,0.673,1.5,1.5,1.5h4c0.827,0,1.5-0.673,1.5-1.5v-8
			c0-0.827-0.673-1.5-1.5-1.5H16z"/>
	</g>
	<g>
		<circle class="st3" cx="46" cy="25.5" r="7"/>
		<path class="st0" d="M46,33c-4.136,0-7.5-3.364-7.5-7.5S41.864,18,46,18s7.5,3.364,7.5,7.5S50.136,33,46,33z M46,19
			c-3.584,0-6.5,2.916-6.5,6.5S42.416,32,46,32s6.5-2.916,6.5-6.5S49.584,19,46,19z"/>
	</g>
	<g>
		<path class="st4" d="M43,26c-0.276,0-0.5-0.224-0.5-0.5c0-1.93,1.57-3.5,3.5-3.5c0.276,0,0.5,0.224,0.5,0.5S46.276,23,46,23
			c-1.379,0-2.5,1.122-2.5,2.5C43.5,25.776,43.276,26,43,26z"/>
	</g>
	<g>
		<path class="st5" d="M46,29c-0.276,0-0.5-0.224-0.5-0.5S45.724,28,46,28c1.379,0,2.5-1.122,2.5-2.5c0-0.276,0.224-0.5,0.5-0.5
			s0.5,0.224,0.5,0.5C49.5,27.43,47.93,29,46,29z"/>
	</g>
	<g>
		<path class="st0" d="M46,28c-1.379,0-2.5-1.122-2.5-2.5S44.621,23,46,23s2.5,1.122,2.5,2.5S47.379,28,46,28z M46,24
			c-0.827,0-1.5,0.673-1.5,1.5S45.173,27,46,27s1.5-0.673,1.5-1.5S46.827,24,46,24z"/>
	</g>
	<g>
		<path class="st0" d="M46,31c-3.032,0-5.5-2.467-5.5-5.5S42.968,20,46,20s5.5,2.467,5.5,5.5S49.032,31,46,31z M46,21
			c-2.481,0-4.5,2.019-4.5,4.5S43.519,30,46,30s4.5-2.019,4.5-4.5S48.481,21,46,21z"/>
	</g>
	<g>
		<path class="st1" d="M28.117,25.5H7c-1.105,0-2-0.895-2-2v-12c0-1.105,0.895-2,2-2h26c1.105,0,2,0.895,2,2v1.351
			c0,0.43-0.069,0.857-0.205,1.265l-2.883,8.649C31.367,24.398,29.839,25.5,28.117,25.5z"/>
		<path class="st0" d="M28.117,26H7c-1.379,0-2.5-1.122-2.5-2.5v-12C4.5,10.122,5.621,9,7,9h26c1.379,0,2.5,1.122,2.5,2.5v1.351
			c0,0.484-0.077,0.963-0.23,1.422l-2.883,8.65C31.772,24.764,30.057,26,28.117,26z M7,10c-0.827,0-1.5,0.673-1.5,1.5v12
			C5.5,24.327,6.173,25,7,25h21.117c1.509,0,2.843-0.962,3.32-2.393l2.883-8.649c0.119-0.357,0.18-0.73,0.18-1.106V11.5
			c0-0.827-0.673-1.5-1.5-1.5H7z"/>
	</g>
	<g>
		<path class="st1" d="M28,35.5v11H18v4h12c1.105,0,2-0.895,2-2v-13H28z"/>
		<path class="st0" d="M30,51H18c-0.276,0-0.5-0.224-0.5-0.5v-4c0-0.276,0.224-0.5,0.5-0.5h9.5V35.5c0-0.276,0.224-0.5,0.5-0.5h4
			c0.276,0,0.5,0.224,0.5,0.5v13C32.5,49.878,31.379,51,30,51z M18.5,50H30c0.827,0,1.5-0.673,1.5-1.5V36h-3v10.5
			c0,0.276-0.224,0.5-0.5,0.5h-9.5V50z"/>
	</g>
	<g>
		<path class="st2" d="M7,24c-0.276,0-0.5-0.224-0.5-0.5v-12C6.5,11.224,6.724,11,7,11s0.5,0.224,0.5,0.5v12
			C7.5,23.776,7.276,24,7,24z"/>
	</g>
	<g>
		<path class="st0" d="M32,22H5c-0.276,0-0.5-0.224-0.5-0.5S4.724,21,5,21h27c0.276,0,0.5,0.224,0.5,0.5S32.276,22,32,22z"/>
	</g>
</g>
</svg>
