<?xml version="1.0" encoding="utf-8"?>
<!-- Generator: Adobe Illustrator 22.0.0, SVG Export Plug-In . SVG Version: 6.00 Build 0)  -->
<svg version="1.1" id="Icon_Set" xmlns="http://www.w3.org/2000/svg" xmlns:xlink="http://www.w3.org/1999/xlink" x="0px" y="0px"
	 viewBox="0 0 64 64" style="enable-background:new 0 0 64 64;" xml:space="preserve">
<style type="text/css">
	.st0{fill:#212A41;}
	.st1{fill:#4E4B51;}
	.st2{fill:#6C696F;}
	.st3{fill:#B7C0D7;}
	.st4{fill:#D5DEF5;}
	.st5{fill:#99A2B9;}
	.st6{fill:#E0E0E0;}
	.st7{fill:#D32E5E;}
	.st8{fill:#F9AC2F;}
	.st9{fill:#0079A8;}
	.st10{fill:#BED38E;}
	.st11{fill:#8A878D;}
	.st12{fill:#C2C2C2;}
	.st13{fill:#302D33;}
	.st14{fill:#FEFEFE;}
	.st15{fill:#FFCA4D;}
	.st16{fill:#DB8E11;}
	.st17{fill:#A4A4A4;}
	.st18{fill:#7B849B;}
	.st19{fill:#E0C8A4;}
	.st20{fill:#C2AA86;}
	.st21{fill:#FEE6C2;}
	.st22{fill:#1E97C6;}
	.st23{fill:#005B8A;}
	.st24{fill:#BD7000;}
</style>
<g>
	<g>
		<path class="st12" d="M42,56H6c-1.105,0-2-0.895-2-2V14c0-1.105,0.895-2,2-2h36c1.105,0,2,0.895,2,2v40C44,55.105,43.105,56,42,56
			z"/>
		<path class="st0" d="M42,56.5H6c-1.378,0-2.5-1.122-2.5-2.5V14c0-1.378,1.122-2.5,2.5-2.5h36c1.379,0,2.5,1.122,2.5,2.5v40
			C44.5,55.378,43.379,56.5,42,56.5z M6,12.5c-0.827,0-1.5,0.673-1.5,1.5v40c0,0.827,0.673,1.5,1.5,1.5h36
			c0.827,0,1.5-0.673,1.5-1.5V14c0-0.827-0.673-1.5-1.5-1.5H6z"/>
	</g>
	<g>
		<path class="st1" d="M42,56H6c-1.105,0-2-0.895-2-2V22h40v32C44,55.105,43.105,56,42,56z"/>
		<path class="st0" d="M42,56.5H6c-1.378,0-2.5-1.122-2.5-2.5V22c0-0.276,0.224-0.5,0.5-0.5h40c0.276,0,0.5,0.224,0.5,0.5v32
			C44.5,55.378,43.379,56.5,42,56.5z M4.5,22.5V54c0,0.827,0.673,1.5,1.5,1.5h36c0.827,0,1.5-0.673,1.5-1.5V22.5H4.5z"/>
	</g>
	<g>
		<path class="st6" d="M58,56H22c-1.105,0-2-0.895-2-2V14c0-1.105,0.895-2,2-2h36c1.105,0,2,0.895,2,2v40C60,55.105,59.105,56,58,56
			z"/>
		<path class="st0" d="M58,56.5H22c-1.378,0-2.5-1.122-2.5-2.5V14c0-1.378,1.122-2.5,2.5-2.5h36c1.379,0,2.5,1.122,2.5,2.5v40
			C60.5,55.378,59.379,56.5,58,56.5z M22,12.5c-0.827,0-1.5,0.673-1.5,1.5v40c0,0.827,0.673,1.5,1.5,1.5h36
			c0.827,0,1.5-0.673,1.5-1.5V14c0-0.827-0.673-1.5-1.5-1.5H22z"/>
	</g>
	<g>
		<path class="st2" d="M58,56H22c-1.105,0-2-0.895-2-2V22h40v32C60,55.105,59.105,56,58,56z"/>
		<path class="st0" d="M58,56.5H22c-1.378,0-2.5-1.122-2.5-2.5V22c0-0.276,0.224-0.5,0.5-0.5h40c0.276,0,0.5,0.224,0.5,0.5v32
			C60.5,55.378,59.379,56.5,58,56.5z M20.5,22.5V54c0,0.827,0.673,1.5,1.5,1.5h36c0.827,0,1.5-0.673,1.5-1.5V22.5H20.5z"/>
	</g>
	<g>
		<rect x="20" y="28" class="st3" width="40" height="25"/>
		<path class="st0" d="M60,53.5H20c-0.276,0-0.5-0.224-0.5-0.5V28c0-0.276,0.224-0.5,0.5-0.5h40c0.276,0,0.5,0.224,0.5,0.5v25
			C60.5,53.276,60.276,53.5,60,53.5z M20.5,52.5h39v-24h-39V52.5z"/>
	</g>
	<g>
		<path class="st2" d="M52,12H36v-2c0-0.552,0.448-1,1-1h14c0.552,0,1,0.448,1,1V12z"/>
		<path class="st0" d="M52,12.5H36c-0.276,0-0.5-0.224-0.5-0.5v-2c0-0.827,0.673-1.5,1.5-1.5h14c0.827,0,1.5,0.673,1.5,1.5v2
			C52.5,12.276,52.276,12.5,52,12.5z M36.5,11.5h15V10c0-0.276-0.225-0.5-0.5-0.5H37c-0.275,0-0.5,0.224-0.5,0.5V11.5z"/>
	</g>
	<g>
		<path class="st0" d="M30,19.5c-1.378,0-2.5-1.122-2.5-2.5s1.122-2.5,2.5-2.5s2.5,1.122,2.5,2.5S31.378,19.5,30,19.5z M30,15.5
			c-0.827,0-1.5,0.673-1.5,1.5s0.673,1.5,1.5,1.5s1.5-0.673,1.5-1.5S30.827,15.5,30,15.5z"/>
	</g>
	<g>
		<path class="st0" d="M40,19.5c-1.379,0-2.5-1.122-2.5-2.5s1.121-2.5,2.5-2.5s2.5,1.122,2.5,2.5S41.379,19.5,40,19.5z M40,15.5
			c-0.827,0-1.5,0.673-1.5,1.5s0.673,1.5,1.5,1.5s1.5-0.673,1.5-1.5S40.827,15.5,40,15.5z"/>
	</g>
	<g>
		<path class="st0" d="M50,19.5c-1.379,0-2.5-1.122-2.5-2.5s1.121-2.5,2.5-2.5s2.5,1.122,2.5,2.5S51.379,19.5,50,19.5z M50,15.5
			c-0.827,0-1.5,0.673-1.5,1.5s0.673,1.5,1.5,1.5s1.5-0.673,1.5-1.5S50.827,15.5,50,15.5z"/>
	</g>
	<g>
		<path class="st0" d="M48,12.5c-0.276,0-0.5-0.224-0.5-0.5V8c0-0.276,0.224-0.5,0.5-0.5s0.5,0.224,0.5,0.5v4
			C48.5,12.276,48.276,12.5,48,12.5z"/>
	</g>
	<g>
		<path class="st0" d="M40,12.5c-0.276,0-0.5-0.224-0.5-0.5V8c0-0.276,0.224-0.5,0.5-0.5s0.5,0.224,0.5,0.5v4
			C40.5,12.276,40.276,12.5,40,12.5z"/>
	</g>
	<g>
		<path class="st2" d="M28,12H12v-2c0-0.552,0.448-1,1-1h14c0.552,0,1,0.448,1,1V12z"/>
		<path class="st0" d="M28,12.5H12c-0.276,0-0.5-0.224-0.5-0.5v-2c0-0.827,0.673-1.5,1.5-1.5h14c0.827,0,1.5,0.673,1.5,1.5v2
			C28.5,12.276,28.276,12.5,28,12.5z M12.5,11.5h15V10c0-0.276-0.224-0.5-0.5-0.5H13c-0.276,0-0.5,0.224-0.5,0.5V11.5z"/>
	</g>
	<g>
		<path class="st0" d="M24,12.5c-0.276,0-0.5-0.224-0.5-0.5V8c0-0.276,0.224-0.5,0.5-0.5s0.5,0.224,0.5,0.5v4
			C24.5,12.276,24.276,12.5,24,12.5z"/>
	</g>
	<g>
		<path class="st0" d="M16,12.5c-0.276,0-0.5-0.224-0.5-0.5V8c0-0.276,0.224-0.5,0.5-0.5s0.5,0.224,0.5,0.5v4
			C16.5,12.276,16.276,12.5,16,12.5z"/>
	</g>
	<g>
		<path class="st0" d="M48,25.5H32c-0.276,0-0.5-0.224-0.5-0.5v-3c0-0.276,0.224-0.5,0.5-0.5h16c0.276,0,0.5,0.224,0.5,0.5v3
			C48.5,25.276,48.276,25.5,48,25.5z M32.5,24.5h15v-2h-15V24.5z"/>
	</g>
	<g>
		<path class="st4" d="M22,51.5c-0.276,0-0.5-0.224-0.5-0.5V30c0-0.276,0.224-0.5,0.5-0.5s0.5,0.224,0.5,0.5v21
			C22.5,51.276,22.276,51.5,22,51.5z"/>
	</g>
	<g>
		<path class="st5" d="M58,51.5c-0.276,0-0.5-0.224-0.5-0.5V30c0-0.276,0.224-0.5,0.5-0.5s0.5,0.224,0.5,0.5v21
			C58.5,51.276,58.276,51.5,58,51.5z"/>
	</g>
	<g>
		<path class="st14" d="M22,20.5c-0.276,0-0.5-0.224-0.5-0.5v-6c0-0.276,0.224-0.5,0.5-0.5s0.5,0.224,0.5,0.5v6
			C22.5,20.276,22.276,20.5,22,20.5z"/>
	</g>
	<g>
		<path class="st6" d="M6,20.5c-0.276,0-0.5-0.224-0.5-0.5v-6c0-0.276,0.224-0.5,0.5-0.5s0.5,0.224,0.5,0.5v6
			C6.5,20.276,6.276,20.5,6,20.5z"/>
	</g>
	<g>
		<path class="st12" d="M58,20.5c-0.276,0-0.5-0.224-0.5-0.5v-6c0-0.276,0.224-0.5,0.5-0.5s0.5,0.224,0.5,0.5v6
			C58.5,20.276,58.276,20.5,58,20.5z"/>
	</g>
	<g>
		<path class="st2" d="M6,54.5c-0.276,0-0.5-0.224-0.5-0.5V24c0-0.276,0.224-0.5,0.5-0.5s0.5,0.224,0.5,0.5v30
			C6.5,54.276,6.276,54.5,6,54.5z"/>
	</g>
	<g>
		<path class="st17" d="M18,20.5c-0.276,0-0.5-0.224-0.5-0.5v-6c0-0.276,0.224-0.5,0.5-0.5s0.5,0.224,0.5,0.5v6
			C18.5,20.276,18.276,20.5,18,20.5z"/>
	</g>
	<g>
		<path class="st13" d="M18,54.5c-0.276,0-0.5-0.224-0.5-0.5V24c0-0.276,0.224-0.5,0.5-0.5s0.5,0.224,0.5,0.5v30
			C18.5,54.276,18.276,54.5,18,54.5z"/>
	</g>
</g>
</svg>
