<?xml version="1.0" encoding="utf-8"?>
<!-- Generator: Adobe Illustrator 22.0.0, SVG Export Plug-In . SVG Version: 6.00 Build 0)  -->
<svg version="1.1" id="Icon_Set" xmlns="http://www.w3.org/2000/svg" xmlns:xlink="http://www.w3.org/1999/xlink" x="0px" y="0px"
	 viewBox="0 0 64 64" style="enable-background:new 0 0 64 64;" xml:space="preserve">
<style type="text/css">
	.st0{fill:#212A41;}
	.st1{fill:#4E4B51;}
	.st2{fill:#6C696F;}
	.st3{fill:#B7C0D7;}
	.st4{fill:#D5DEF5;}
	.st5{fill:#99A2B9;}
	.st6{fill:#E0E0E0;}
	.st7{fill:#D32E5E;}
	.st8{fill:#F9AC2F;}
	.st9{fill:#0079A8;}
	.st10{fill:#BED38E;}
	.st11{fill:#8A878D;}
	.st12{fill:#C2C2C2;}
	.st13{fill:#302D33;}
	.st14{fill:#FEFEFE;}
	.st15{fill:#FFCA4D;}
	.st16{fill:#DB8E11;}
	.st17{fill:#A4A4A4;}
	.st18{fill:#7B849B;}
	.st19{fill:#E0C8A4;}
	.st20{fill:#C2AA86;}
	.st21{fill:#FEE6C2;}
	.st22{fill:#1E97C6;}
	.st23{fill:#005B8A;}
	.st24{fill:#BD7000;}
</style>
<g>
	<g>
		<path class="st1" d="M35,5h-6C14.762,5,3.106,16.023,2.082,30H5v4H2.082C3.106,47.977,14.762,59,29,59h6V5z"/>
		<path class="st0" d="M35,59.5h-6c-14.327,0-26.37-11.185-27.417-25.464c-0.01-0.138,0.038-0.274,0.133-0.377
			C1.811,33.558,1.943,33.5,2.082,33.5H4.5v-3H2.082c-0.139,0-0.271-0.058-0.366-0.159c-0.095-0.103-0.143-0.239-0.133-0.377
			C2.63,15.685,14.673,4.5,29,4.5h6c0.276,0,0.5,0.224,0.5,0.5v54C35.5,59.276,35.276,59.5,35,59.5z M2.626,34.5
			c1.267,13.501,12.748,24,26.374,24h5.5v-53H29c-13.626,0-25.107,10.499-26.374,24H5c0.276,0,0.5,0.224,0.5,0.5v4
			c0,0.276-0.224,0.5-0.5,0.5H2.626z"/>
	</g>
	<g>
		<path class="st2" d="M59,34v-4h2.918C60.894,16.023,49.238,5,35,5S9.106,16.023,8.082,30H11v4H8.082C9.106,47.977,20.762,59,35,59
			s25.894-11.023,26.918-25H59z"/>
		<path class="st0" d="M35,59.5c-14.327,0-26.37-11.185-27.417-25.464c-0.01-0.138,0.038-0.274,0.133-0.377
			C7.811,33.558,7.943,33.5,8.082,33.5H10.5v-3H8.082c-0.139,0-0.271-0.058-0.366-0.159c-0.095-0.103-0.143-0.239-0.133-0.377
			C8.63,15.685,20.673,4.5,35,4.5s26.37,11.185,27.417,25.464c0.01,0.138-0.038,0.274-0.133,0.377
			c-0.095,0.102-0.228,0.159-0.366,0.159H59.5v3h2.418c0.139,0,0.271,0.058,0.366,0.159c0.095,0.103,0.143,0.239,0.133,0.377
			C61.37,48.315,49.327,59.5,35,59.5z M8.626,34.5c1.267,13.501,12.748,24,26.374,24s25.107-10.499,26.374-24H59
			c-0.276,0-0.5-0.224-0.5-0.5v-4c0-0.276,0.224-0.5,0.5-0.5h2.374C60.107,15.999,48.626,5.5,35,5.5S9.893,15.999,8.626,29.5H11
			c0.276,0,0.5,0.224,0.5,0.5v4c0,0.276-0.224,0.5-0.5,0.5H8.626z"/>
	</g>
	<g>
		<circle class="st2" cx="35" cy="32" r="16"/>
		<path class="st0" d="M35,48.5c-9.098,0-16.5-7.402-16.5-16.5S25.902,15.5,35,15.5S51.5,22.902,51.5,32S44.098,48.5,35,48.5z
			 M35,16.5c-8.547,0-15.5,6.953-15.5,15.5S26.453,47.5,35,47.5S50.5,40.547,50.5,32S43.547,16.5,35,16.5z"/>
	</g>
	<g>
		<path class="st0" d="M35,48.5c-9.098,0-16.5-7.402-16.5-16.5S25.902,15.5,35,15.5S51.5,22.902,51.5,32S44.098,48.5,35,48.5z
			 M35,16.5c-8.547,0-15.5,6.953-15.5,15.5S26.453,47.5,35,47.5S50.5,40.547,50.5,32S43.547,16.5,35,16.5z"/>
	</g>
	<g>
		<path class="st0" d="M35,56.5c-13.51,0-24.5-10.99-24.5-24.5S21.49,7.5,35,7.5S59.5,18.49,59.5,32S48.51,56.5,35,56.5z M35,8.5
			C22.042,8.5,11.5,19.042,11.5,32S22.042,55.5,35,55.5S58.5,44.958,58.5,32S47.958,8.5,35,8.5z"/>
	</g>
	<g>
		<path class="st11" d="M13,32.5c-0.276,0-0.5-0.224-0.5-0.5C12.5,19.594,22.594,9.5,35,9.5c0.276,0,0.5,0.224,0.5,0.5
			s-0.224,0.5-0.5,0.5c-11.855,0-21.5,9.645-21.5,21.5C13.5,32.276,13.276,32.5,13,32.5z"/>
	</g>
	<g>
		<path class="st1" d="M35,54.5c-0.276,0-0.5-0.224-0.5-0.5s0.224-0.5,0.5-0.5c11.855,0,21.5-9.645,21.5-21.5
			c0-0.276,0.224-0.5,0.5-0.5s0.5,0.224,0.5,0.5C57.5,44.406,47.406,54.5,35,54.5z"/>
	</g>
	<g>
		<path class="st2" d="M20.174,26C19.423,27.854,19,29.876,19,32c0,8.837,7.163,16,16,16s16-7.163,16-16
			c0-2.124-0.423-4.146-1.174-6H20.174z"/>
		<path class="st0" d="M35,48.5c-9.098,0-16.5-7.402-16.5-16.5c0-2.122,0.407-4.204,1.21-6.188c0.077-0.188,0.26-0.312,0.464-0.312
			h29.652c0.204,0,0.387,0.124,0.464,0.312c0.803,1.983,1.21,4.065,1.21,6.188C51.5,41.098,44.098,48.5,35,48.5z M20.515,26.5
			C19.841,28.27,19.5,30.118,19.5,32c0,8.547,6.953,15.5,15.5,15.5S50.5,40.547,50.5,32c0-1.882-0.341-3.73-1.015-5.5H20.515z"/>
	</g>
	<g>
		<circle class="st10" cx="35" cy="21" r="2"/>
		<path class="st0" d="M35,23.5c-1.379,0-2.5-1.121-2.5-2.5s1.121-2.5,2.5-2.5s2.5,1.121,2.5,2.5S36.379,23.5,35,23.5z M35,19.5
			c-0.827,0-1.5,0.673-1.5,1.5s0.673,1.5,1.5,1.5s1.5-0.673,1.5-1.5S35.827,19.5,35,19.5z"/>
	</g>
	<g>
		<rect x="31" y="30" class="st3" width="8" height="4"/>
		<path class="st0" d="M39,34.5h-8c-0.276,0-0.5-0.224-0.5-0.5v-4c0-0.276,0.224-0.5,0.5-0.5h8c0.276,0,0.5,0.224,0.5,0.5v4
			C39.5,34.276,39.276,34.5,39,34.5z M31.5,33.5h7v-3h-7V33.5z"/>
	</g>
</g>
</svg>
