<?xml version="1.0" encoding="utf-8"?>
<!-- Generator: Adobe Illustrator 22.0.0, SVG Export Plug-In . SVG Version: 6.00 Build 0)  -->
<svg version="1.1" id="Icon_Set" xmlns="http://www.w3.org/2000/svg" xmlns:xlink="http://www.w3.org/1999/xlink" x="0px" y="0px"
	 viewBox="0 0 64 64" style="enable-background:new 0 0 64 64;" xml:space="preserve">
<style type="text/css">
	.st0{fill:#212A41;}
	.st1{fill:#4E4B51;}
	.st2{fill:#6C696F;}
	.st3{fill:#B7C0D7;}
	.st4{fill:#D5DEF5;}
	.st5{fill:#99A2B9;}
	.st6{fill:#E0E0E0;}
	.st7{fill:#D32E5E;}
	.st8{fill:#F9AC2F;}
	.st9{fill:#0079A8;}
	.st10{fill:#BED38E;}
	.st11{fill:#8A878D;}
	.st12{fill:#C2C2C2;}
	.st13{fill:#302D33;}
	.st14{fill:#FEFEFE;}
	.st15{fill:#FFCA4D;}
	.st16{fill:#DB8E11;}
	.st17{fill:#A4A4A4;}
	.st18{fill:#7B849B;}
	.st19{fill:#E0C8A4;}
	.st20{fill:#C2AA86;}
	.st21{fill:#FEE6C2;}
	.st22{fill:#1E97C6;}
	.st23{fill:#005B8A;}
	.st24{fill:#BD7000;}
</style>
<g>
	<g>
		<path class="st12" d="M30,49H14c-4.418,0-8-3.582-8-8v-6h32v6C38,45.418,34.418,49,30,49z"/>
		<path class="st0" d="M30,49.5H14c-4.687,0-8.5-3.813-8.5-8.5v-6c0-0.276,0.224-0.5,0.5-0.5h32c0.276,0,0.5,0.224,0.5,0.5v6
			C38.5,45.687,34.687,49.5,30,49.5z M6.5,35.5V41c0,4.136,3.364,7.5,7.5,7.5h16c4.136,0,7.5-3.364,7.5-7.5v-5.5H6.5z"/>
	</g>
	<g>
		<path class="st12" d="M39,35H5c-0.552,0-1-0.448-1-1v-2c0-0.552,0.448-1,1-1h34c0.552,0,1,0.448,1,1v2C40,34.552,39.552,35,39,35z
			"/>
		<path class="st0" d="M39,35.5H5c-0.827,0-1.5-0.673-1.5-1.5v-2c0-0.827,0.673-1.5,1.5-1.5h34c0.827,0,1.5,0.673,1.5,1.5v2
			C40.5,34.827,39.827,35.5,39,35.5z M5,31.5c-0.276,0-0.5,0.225-0.5,0.5v2c0,0.275,0.224,0.5,0.5,0.5h34c0.276,0,0.5-0.225,0.5-0.5
			v-2c0-0.275-0.224-0.5-0.5-0.5H5z"/>
	</g>
	<g>
		<path class="st6" d="M59,35H25c-0.552,0-1-0.448-1-1v-2c0-0.552,0.448-1,1-1h34c0.552,0,1,0.448,1,1v2C60,34.552,59.552,35,59,35z
			"/>
		<path class="st0" d="M59,35.5H25c-0.827,0-1.5-0.673-1.5-1.5v-2c0-0.827,0.673-1.5,1.5-1.5h34c0.827,0,1.5,0.673,1.5,1.5v2
			C60.5,34.827,59.827,35.5,59,35.5z M25,31.5c-0.276,0-0.5,0.225-0.5,0.5v2c0,0.275,0.224,0.5,0.5,0.5h34
			c0.276,0,0.5-0.225,0.5-0.5v-2c0-0.275-0.224-0.5-0.5-0.5H25z"/>
	</g>
	<g>
		<path class="st6" d="M50,49H34c-4.418,0-8-3.582-8-8v-6h32v6C58,45.418,54.418,49,50,49z"/>
		<path class="st0" d="M50,49.5H34c-4.687,0-8.5-3.813-8.5-8.5v-6c0-0.276,0.224-0.5,0.5-0.5h32c0.276,0,0.5,0.224,0.5,0.5v6
			C58.5,45.687,54.687,49.5,50,49.5z M26.5,35.5V41c0,4.136,3.364,7.5,7.5,7.5h16c4.136,0,7.5-3.364,7.5-7.5v-5.5H26.5z"/>
	</g>
	<g>
		<path class="st14" d="M34,47.5c-3.584,0-6.5-2.916-6.5-6.5v-4c0-0.276,0.224-0.5,0.5-0.5s0.5,0.224,0.5,0.5v4
			c0,3.032,2.467,5.5,5.5,5.5c0.276,0,0.5,0.224,0.5,0.5S34.276,47.5,34,47.5z"/>
	</g>
	<g>
		<path class="st6" d="M14,47.5c-3.584,0-6.5-2.916-6.5-6.5v-4c0-0.276,0.224-0.5,0.5-0.5s0.5,0.224,0.5,0.5v4
			c0,3.032,2.467,5.5,5.5,5.5c0.276,0,0.5,0.224,0.5,0.5S14.276,47.5,14,47.5z"/>
	</g>
	<g>
		<path class="st12" d="M50,47.5c-0.276,0-0.5-0.224-0.5-0.5s0.224-0.5,0.5-0.5c3.033,0,5.5-2.468,5.5-5.5v-4
			c0-0.276,0.224-0.5,0.5-0.5s0.5,0.224,0.5,0.5v4C56.5,44.584,53.584,47.5,50,47.5z"/>
	</g>
	<g>
		<path class="st6" d="M33,21h-3v6h3c1.657,0,3-1.343,3-3S34.657,21,33,21z"/>
		<path class="st0" d="M33,27.5h-3c-0.276,0-0.5-0.224-0.5-0.5v-6c0-0.276,0.224-0.5,0.5-0.5h3c1.93,0,3.5,1.57,3.5,3.5
			S34.93,27.5,33,27.5z M30.5,26.5H33c1.378,0,2.5-1.121,2.5-2.5s-1.122-2.5-2.5-2.5h-2.5V26.5z"/>
	</g>
	<g>
		<circle class="st12" cx="30" cy="24" r="3"/>
		<path class="st0" d="M30,27.5c-1.93,0-3.5-1.57-3.5-3.5s1.57-3.5,3.5-3.5s3.5,1.57,3.5,3.5S31.93,27.5,30,27.5z M30,21.5
			c-1.378,0-2.5,1.121-2.5,2.5s1.122,2.5,2.5,2.5s2.5-1.121,2.5-2.5S31.378,21.5,30,21.5z"/>
	</g>
	<g>
		<path class="st6" d="M30,31h-4V13c0-4.418,3.582-8,8-8h3c4.418,0,8,3.582,8,8v6h-4v-6c0-2.209-1.791-4-4-4h-3
			c-2.209,0-4,1.791-4,4V31z"/>
		<path class="st0" d="M30,31.5h-4c-0.276,0-0.5-0.224-0.5-0.5V13c0-4.687,3.813-8.5,8.5-8.5h3c4.687,0,8.5,3.813,8.5,8.5v6
			c0,0.276-0.224,0.5-0.5,0.5h-4c-0.276,0-0.5-0.224-0.5-0.5v-6c0-1.93-1.57-3.5-3.5-3.5h-3c-1.93,0-3.5,1.57-3.5,3.5v18
			C30.5,31.276,30.276,31.5,30,31.5z M26.5,30.5h3V13c0-2.481,2.019-4.5,4.5-4.5h3c2.481,0,4.5,2.019,4.5,4.5v5.5h3V13
			c0-4.136-3.364-7.5-7.5-7.5h-3c-4.136,0-7.5,3.364-7.5,7.5V30.5z"/>
	</g>
	<g>
		<path class="st6" d="M25,21h-3v6h3c1.657,0,3-1.343,3-3S26.657,21,25,21z"/>
		<path class="st0" d="M25,27.5h-3c-0.276,0-0.5-0.224-0.5-0.5v-6c0-0.276,0.224-0.5,0.5-0.5h3c1.93,0,3.5,1.57,3.5,3.5
			S26.93,27.5,25,27.5z M22.5,26.5H25c1.378,0,2.5-1.121,2.5-2.5s-1.122-2.5-2.5-2.5h-2.5V26.5z"/>
	</g>
	<g>
		<circle class="st12" cx="22" cy="24" r="3"/>
		<path class="st0" d="M22,27.5c-1.93,0-3.5-1.57-3.5-3.5s1.57-3.5,3.5-3.5s3.5,1.57,3.5,3.5S23.93,27.5,22,27.5z M22,21.5
			c-1.378,0-2.5,1.121-2.5,2.5s1.122,2.5,2.5,2.5s2.5-1.121,2.5-2.5S23.378,21.5,22,21.5z"/>
	</g>
	<g>
		<rect x="41" y="19" class="st6" width="4" height="4"/>
		<path class="st0" d="M45,23.5h-4c-0.276,0-0.5-0.224-0.5-0.5v-4c0-0.276,0.224-0.5,0.5-0.5h4c0.276,0,0.5,0.224,0.5,0.5v4
			C45.5,23.276,45.276,23.5,45,23.5z M41.5,22.5h3v-3h-3V22.5z"/>
	</g>
	<g>
		<rect x="29" y="49" class="st6" width="6" height="10"/>
		<path class="st0" d="M35,59.5h-6c-0.276,0-0.5-0.224-0.5-0.5V49c0-0.276,0.224-0.5,0.5-0.5h6c0.276,0,0.5,0.224,0.5,0.5v10
			C35.5,59.276,35.276,59.5,35,59.5z M29.5,58.5h5v-9h-5V58.5z"/>
	</g>
	<g>
		<rect x="26" y="49" class="st12" width="12" height="3"/>
		<path class="st0" d="M38,52.5H26c-0.276,0-0.5-0.224-0.5-0.5v-3c0-0.276,0.224-0.5,0.5-0.5h12c0.276,0,0.5,0.224,0.5,0.5v3
			C38.5,52.276,38.276,52.5,38,52.5z M26.5,51.5h11v-2h-11V51.5z"/>
	</g>
</g>
</svg>
