<?xml version="1.0" encoding="utf-8"?>
<!-- Generator: Adobe Illustrator 22.0.0, SVG Export Plug-In . SVG Version: 6.00 Build 0)  -->
<svg version="1.1" id="Icon_Set" xmlns="http://www.w3.org/2000/svg" xmlns:xlink="http://www.w3.org/1999/xlink" x="0px" y="0px"
	 viewBox="0 0 64 64" style="enable-background:new 0 0 64 64;" xml:space="preserve">
<style type="text/css">
	.st0{fill:#212A41;}
	.st1{fill:#4E4B51;}
	.st2{fill:#6C696F;}
	.st3{fill:#B7C0D7;}
	.st4{fill:#D5DEF5;}
	.st5{fill:#99A2B9;}
	.st6{fill:#E0E0E0;}
	.st7{fill:#D32E5E;}
	.st8{fill:#F9AC2F;}
	.st9{fill:#0079A8;}
	.st10{fill:#BED38E;}
	.st11{fill:#8A878D;}
	.st12{fill:#C2C2C2;}
	.st13{fill:#302D33;}
	.st14{fill:#FEFEFE;}
	.st15{fill:#FFCA4D;}
	.st16{fill:#DB8E11;}
	.st17{fill:#A4A4A4;}
	.st18{fill:#7B849B;}
	.st19{fill:#E0C8A4;}
	.st20{fill:#C2AA86;}
	.st21{fill:#FEE6C2;}
	.st22{fill:#1E97C6;}
	.st23{fill:#005B8A;}
	.st24{fill:#BD7000;}
</style>
<g>
	<g>
		<path class="st1" d="M44,48H6c-1.105,0-2-0.895-2-2V36c0-1.105,0.895-2,2-2h38V48z"/>
		<path class="st0" d="M44,48.5H6c-1.378,0-2.5-1.122-2.5-2.5V36c0-1.378,1.122-2.5,2.5-2.5h38c0.276,0,0.5,0.224,0.5,0.5v14
			C44.5,48.276,44.276,48.5,44,48.5z M6,34.5c-0.827,0-1.5,0.673-1.5,1.5v10c0,0.827,0.673,1.5,1.5,1.5h37.5v-13H6z"/>
	</g>
	<g>
		<path class="st2" d="M58,48H22c-1.105,0-2-0.895-2-2V36c0-1.105,0.895-2,2-2h36c1.105,0,2,0.895,2,2v10C60,47.105,59.105,48,58,48
			z"/>
		<path class="st0" d="M58,48.5H22c-1.378,0-2.5-1.122-2.5-2.5V36c0-1.378,1.122-2.5,2.5-2.5h36c1.378,0,2.5,1.122,2.5,2.5v10
			C60.5,47.378,59.378,48.5,58,48.5z M22,34.5c-0.827,0-1.5,0.673-1.5,1.5v10c0,0.827,0.673,1.5,1.5,1.5h36
			c0.827,0,1.5-0.673,1.5-1.5V36c0-0.827-0.673-1.5-1.5-1.5H22z"/>
	</g>
	<g>
		<path class="st2" d="M52,34H36v-2c0-0.552,0.448-1,1-1h14c0.552,0,1,0.448,1,1V34z"/>
		<path class="st0" d="M52,34.5H36c-0.276,0-0.5-0.224-0.5-0.5v-2c0-0.827,0.673-1.5,1.5-1.5h14c0.827,0,1.5,0.673,1.5,1.5v2
			C52.5,34.276,52.276,34.5,52,34.5z M36.5,33.5h15V32c0-0.276-0.224-0.5-0.5-0.5H37c-0.276,0-0.5,0.224-0.5,0.5V33.5z"/>
	</g>
	<g>
		<path class="st0" d="M48,34.5c-0.276,0-0.5-0.224-0.5-0.5v-4c0-0.276,0.224-0.5,0.5-0.5s0.5,0.224,0.5,0.5v4
			C48.5,34.276,48.276,34.5,48,34.5z"/>
	</g>
	<g>
		<path class="st0" d="M40,34.5c-0.276,0-0.5-0.224-0.5-0.5v-4c0-0.276,0.224-0.5,0.5-0.5s0.5,0.224,0.5,0.5v4
			C40.5,34.276,40.276,34.5,40,34.5z"/>
	</g>
	<g>
		<path class="st2" d="M28,34H12v-2c0-0.552,0.448-1,1-1h14c0.552,0,1,0.448,1,1V34z"/>
		<path class="st0" d="M28,34.5H12c-0.276,0-0.5-0.224-0.5-0.5v-2c0-0.827,0.673-1.5,1.5-1.5h14c0.827,0,1.5,0.673,1.5,1.5v2
			C28.5,34.276,28.276,34.5,28,34.5z M12.5,33.5h15V32c0-0.276-0.224-0.5-0.5-0.5H13c-0.276,0-0.5,0.224-0.5,0.5V33.5z"/>
	</g>
	<g>
		<path class="st0" d="M24,34.5c-0.276,0-0.5-0.224-0.5-0.5v-4c0-0.276,0.224-0.5,0.5-0.5s0.5,0.224,0.5,0.5v4
			C24.5,34.276,24.276,34.5,24,34.5z"/>
	</g>
	<g>
		<path class="st0" d="M16,34.5c-0.276,0-0.5-0.224-0.5-0.5v-4c0-0.276,0.224-0.5,0.5-0.5s0.5,0.224,0.5,0.5v4
			C16.5,34.276,16.276,34.5,16,34.5z"/>
	</g>
	<g>
		<path class="st11" d="M22,46.5c-0.276,0-0.5-0.224-0.5-0.5V36c0-0.276,0.224-0.5,0.5-0.5s0.5,0.224,0.5,0.5v10
			C22.5,46.276,22.276,46.5,22,46.5z"/>
	</g>
	<g>
		<path class="st2" d="M6,46.5c-0.276,0-0.5-0.224-0.5-0.5V36c0-0.276,0.224-0.5,0.5-0.5s0.5,0.224,0.5,0.5v10
			C6.5,46.276,6.276,46.5,6,46.5z"/>
	</g>
	<g>
		<path class="st1" d="M58,46.5c-0.276,0-0.5-0.224-0.5-0.5V36c0-0.276,0.224-0.5,0.5-0.5s0.5,0.224,0.5,0.5v10
			C58.5,46.276,58.276,46.5,58,46.5z"/>
	</g>
	<g>
		<path class="st13" d="M18,46.5c-0.276,0-0.5-0.224-0.5-0.5V36c0-0.276,0.224-0.5,0.5-0.5s0.5,0.224,0.5,0.5v10
			C18.5,46.276,18.276,46.5,18,46.5z"/>
	</g>
	<g>
		<rect x="39" y="39.5" class="st8" width="4" height="3"/>
		<path class="st0" d="M43,43h-4c-0.276,0-0.5-0.224-0.5-0.5v-3c0-0.276,0.224-0.5,0.5-0.5h4c0.276,0,0.5,0.224,0.5,0.5v3
			C43.5,42.776,43.276,43,43,43z M39.5,42h3v-2h-3V42z"/>
	</g>
	<g>
		<path class="st8" d="M48.394,20l-3.75,8h4.354c1.465,0,2.433-1.523,1.811-2.849L48.394,20z"/>
		<path class="st0" d="M48.998,28.5h-4.354c-0.171,0-0.33-0.087-0.422-0.232c-0.092-0.144-0.104-0.325-0.031-0.48l3.75-8
			c0.164-0.351,0.741-0.351,0.905,0l2.415,5.151c0.365,0.779,0.308,1.677-0.154,2.402S49.857,28.5,48.998,28.5z M45.431,27.5h3.567
			c0.516,0,0.989-0.26,1.266-0.695c0.276-0.435,0.311-0.974,0.092-1.441l-1.962-4.186L45.431,27.5z"/>
	</g>
	<g>
		<path class="st16" d="M39.606,20l-2.415,5.151C36.57,26.477,37.538,28,39.003,28h4.354L39.606,20z"/>
		<path class="st0" d="M43.356,28.5h-4.354c-0.86,0-1.648-0.433-2.11-1.159s-0.519-1.624-0.154-2.402l2.415-5.151
			c0.164-0.351,0.741-0.351,0.905,0l3.75,8c0.073,0.155,0.061,0.336-0.031,0.48C43.686,28.413,43.527,28.5,43.356,28.5z
			 M39.606,21.178l-1.962,4.186c-0.219,0.467-0.184,1.006,0.092,1.441c0.277,0.436,0.75,0.695,1.266,0.695h3.567L39.606,21.178z"/>
	</g>
	<g>
		<path class="st8" d="M44,16l-3.667,9.264C39.813,26.577,40.781,28,42.193,28h3.615c1.412,0,2.379-1.423,1.86-2.736L44,16z"/>
		<path class="st0" d="M45.807,28.5h-3.614c-0.829,0-1.602-0.409-2.068-1.095s-0.562-1.555-0.257-2.326l3.667-9.264
			c0.15-0.381,0.779-0.381,0.93,0l3.667,9.264c0.305,0.771,0.209,1.64-0.257,2.326S46.636,28.5,45.807,28.5z M44,17.358
			l-3.202,8.089c-0.186,0.469-0.129,0.978,0.154,1.396s0.736,0.657,1.241,0.657h3.614c0.505,0,0.957-0.239,1.241-0.657
			s0.34-0.926,0.154-1.396L44,17.358z"/>
	</g>
	<g>
		<path class="st15" d="M42.192,26.5c-0.062,0-0.124-0.011-0.184-0.035c-0.257-0.102-0.382-0.392-0.281-0.649l1.808-4.566
			c0.102-0.257,0.394-0.383,0.649-0.281c0.257,0.102,0.382,0.392,0.281,0.649l-1.808,4.566C42.58,26.38,42.391,26.5,42.192,26.5z"/>
	</g>
	<g>
		<path class="st8" d="M24.394,20l-3.75,8h4.354c1.465,0,2.433-1.523,1.811-2.849L24.394,20z"/>
		<path class="st0" d="M24.998,28.5h-4.354c-0.171,0-0.33-0.087-0.422-0.232c-0.092-0.144-0.104-0.325-0.031-0.48l3.75-8
			c0.164-0.351,0.741-0.351,0.905,0l2.415,5.151c0.365,0.779,0.308,1.677-0.154,2.402S25.857,28.5,24.998,28.5z M21.431,27.5h3.567
			c0.516,0,0.989-0.26,1.266-0.695c0.276-0.435,0.311-0.974,0.092-1.441l-1.962-4.186L21.431,27.5z"/>
	</g>
	<g>
		<path class="st16" d="M15.606,20l-2.415,5.151C12.57,26.477,13.538,28,15.003,28h4.354L15.606,20z"/>
		<path class="st0" d="M19.356,28.5h-4.354c-0.86,0-1.648-0.433-2.11-1.159s-0.519-1.624-0.154-2.402l2.415-5.151
			c0.164-0.351,0.741-0.351,0.905,0l3.75,8c0.073,0.155,0.061,0.336-0.031,0.48C19.686,28.413,19.527,28.5,19.356,28.5z
			 M15.606,21.178l-1.962,4.186c-0.219,0.467-0.184,1.006,0.092,1.441c0.277,0.436,0.75,0.695,1.266,0.695h3.567L15.606,21.178z"/>
	</g>
	<g>
		<path class="st8" d="M20,16l-3.667,9.264C15.813,26.577,16.781,28,18.193,28h3.615c1.412,0,2.379-1.423,1.86-2.736L20,16z"/>
		<path class="st0" d="M21.807,28.5h-3.614c-0.829,0-1.602-0.409-2.068-1.095s-0.562-1.555-0.257-2.326l3.667-9.264
			c0.15-0.381,0.779-0.381,0.93,0l3.667,9.264c0.305,0.771,0.209,1.64-0.257,2.326S22.636,28.5,21.807,28.5z M20,17.358
			l-3.202,8.089c-0.186,0.469-0.129,0.978,0.154,1.396s0.736,0.657,1.241,0.657h3.614c0.505,0,0.957-0.239,1.241-0.657
			s0.34-0.926,0.154-1.396L20,17.358z"/>
	</g>
	<g>
		<path class="st15" d="M18.192,26.5c-0.062,0-0.124-0.011-0.184-0.035c-0.257-0.102-0.382-0.392-0.281-0.649l1.808-4.566
			c0.102-0.257,0.392-0.383,0.649-0.281c0.257,0.102,0.382,0.392,0.281,0.649l-1.808,4.566C18.58,26.38,18.391,26.5,18.192,26.5z"/>
	</g>
	<g>
		<path class="st12" d="M30,44h2v-6h-2c-1.657,0-3,1.343-3,3S28.343,44,30,44z"/>
		<path class="st0" d="M32,44.5h-2c-1.93,0-3.5-1.57-3.5-3.5s1.57-3.5,3.5-3.5h2c0.276,0,0.5,0.224,0.5,0.5v6
			C32.5,44.276,32.276,44.5,32,44.5z M30,38.5c-1.378,0-2.5,1.122-2.5,2.5s1.122,2.5,2.5,2.5h1.5v-5H30z"/>
	</g>
	<g>
		<circle class="st6" cx="32" cy="41" r="3"/>
		<path class="st0" d="M32,44.5c-1.93,0-3.5-1.57-3.5-3.5s1.57-3.5,3.5-3.5s3.5,1.57,3.5,3.5S33.93,44.5,32,44.5z M32,38.5
			c-1.378,0-2.5,1.122-2.5,2.5s1.122,2.5,2.5,2.5s2.5-1.122,2.5-2.5S33.378,38.5,32,38.5z"/>
	</g>
	<g>
		<path class="st12" d="M50,44h2v-6h-2c-1.657,0-3,1.343-3,3S48.343,44,50,44z"/>
		<path class="st0" d="M52,44.5h-2c-1.93,0-3.5-1.57-3.5-3.5s1.57-3.5,3.5-3.5h2c0.276,0,0.5,0.224,0.5,0.5v6
			C52.5,44.276,52.276,44.5,52,44.5z M50,38.5c-1.378,0-2.5,1.122-2.5,2.5s1.122,2.5,2.5,2.5h1.5v-5H50z"/>
	</g>
	<g>
		<circle class="st6" cx="52" cy="41" r="3"/>
		<path class="st0" d="M52,44.5c-1.93,0-3.5-1.57-3.5-3.5s1.57-3.5,3.5-3.5s3.5,1.57,3.5,3.5S53.93,44.5,52,44.5z M52,38.5
			c-1.378,0-2.5,1.122-2.5,2.5s1.122,2.5,2.5,2.5s2.5-1.122,2.5-2.5S53.378,38.5,52,38.5z"/>
	</g>
</g>
</svg>
