<?xml version="1.0" encoding="utf-8"?>
<!-- Generator: Adobe Illustrator 22.0.0, SVG Export Plug-In . SVG Version: 6.00 Build 0)  -->
<svg version="1.1" id="Icon_Set" xmlns="http://www.w3.org/2000/svg" xmlns:xlink="http://www.w3.org/1999/xlink" x="0px" y="0px"
	 viewBox="0 0 64 64" style="enable-background:new 0 0 64 64;" xml:space="preserve">
<style type="text/css">
	.st0{fill:#212A41;}
	.st1{fill:#4E4B51;}
	.st2{fill:#6C696F;}
	.st3{fill:#B7C0D7;}
	.st4{fill:#D5DEF5;}
	.st5{fill:#99A2B9;}
	.st6{fill:#E0E0E0;}
	.st7{fill:#D32E5E;}
	.st8{fill:#F9AC2F;}
	.st9{fill:#0079A8;}
	.st10{fill:#BED38E;}
	.st11{fill:#8A878D;}
	.st12{fill:#C2C2C2;}
	.st13{fill:#302D33;}
	.st14{fill:#FEFEFE;}
	.st15{fill:#FFCA4D;}
	.st16{fill:#DB8E11;}
	.st17{fill:#A4A4A4;}
	.st18{fill:#7B849B;}
	.st19{fill:#E0C8A4;}
	.st20{fill:#C2AA86;}
	.st21{fill:#FEE6C2;}
	.st22{fill:#1E97C6;}
	.st23{fill:#005B8A;}
	.st24{fill:#BD7000;}
</style>
<g>
	<g>
		<path class="st12" d="M21.941,60C21.421,60,21,59.552,21,59V47h17.059v12c0,0.552,0.421,1,0.941,1H21.941z"/>
		<path class="st0" d="M39,60.5H21.941c-0.795,0-1.441-0.673-1.441-1.5V47c0-0.276,0.224-0.5,0.5-0.5h17.059
			c0.276,0,0.5,0.224,0.5,0.5v12c0,0.275,0.198,0.5,0.441,0.5c0.276,0,0.5,0.224,0.5,0.5S39.276,60.5,39,60.5z M21.5,47.5V59
			c0,0.275,0.198,0.5,0.441,0.5h15.7c-0.054-0.156-0.083-0.325-0.083-0.5V47.5H21.5z"/>
	</g>
	<g>
		<path class="st12" d="M31.917,10H8.083C7.485,10,7,9.552,7,9V5c0-0.552,0.485-1,1.083-1h23.833C32.515,4,33,4.448,33,5v4
			C33,9.552,32.515,10,31.917,10z"/>
		<path class="st0" d="M31.917,10.5H8.083C7.21,10.5,6.5,9.827,6.5,9V5c0-0.827,0.71-1.5,1.583-1.5h23.833
			C32.79,3.5,33.5,4.173,33.5,5v4C33.5,9.827,32.79,10.5,31.917,10.5z M8.083,4.5C7.762,4.5,7.5,4.725,7.5,5v4
			c0,0.275,0.262,0.5,0.583,0.5h23.833C32.238,9.5,32.5,9.275,32.5,9V5c0-0.275-0.262-0.5-0.583-0.5H8.083z"/>
	</g>
	<g>
		<path class="st12" d="M32,35H12c-2.209,0-4-1.791-4-4V10h24V35z"/>
		<path class="st0" d="M32,35.5H12c-2.481,0-4.5-2.019-4.5-4.5V10c0-0.276,0.224-0.5,0.5-0.5h24c0.276,0,0.5,0.224,0.5,0.5v25
			C32.5,35.276,32.276,35.5,32,35.5z M8.5,10.5V31c0,1.93,1.57,3.5,3.5,3.5h19.5v-24H8.5z"/>
	</g>
	<g>
		<rect x="14" y="10" class="st6" width="24" height="22"/>
		<path class="st0" d="M38,32.5H14c-0.276,0-0.5-0.224-0.5-0.5V10c0-0.276,0.224-0.5,0.5-0.5h24c0.276,0,0.5,0.224,0.5,0.5v22
			C38.5,32.276,38.276,32.5,38,32.5z M14.5,31.5h23v-21h-23V31.5z"/>
	</g>
	<g>
		<path class="st12" d="M31,47H21c-5.523,0-10-4.477-10-10v-1c0-0.552,0.448-1,1-1h28c0.552,0,1,0.448,1,1v1
			C41,42.523,36.523,47,31,47z"/>
		<path class="st0" d="M31,47.5H21c-5.79,0-10.5-4.71-10.5-10.5v-1c0-0.827,0.673-1.5,1.5-1.5h28c0.827,0,1.5,0.673,1.5,1.5v1
			C41.5,42.79,36.79,47.5,31,47.5z M12,35.5c-0.276,0-0.5,0.225-0.5,0.5v1c0,5.238,4.262,9.5,9.5,9.5h10c5.238,0,9.5-4.262,9.5-9.5
			v-1c0-0.275-0.224-0.5-0.5-0.5H12z"/>
	</g>
	<g>
		<path class="st12" d="M40,35H12v-2c0-0.552,0.448-1,1-1h26c0.552,0,1,0.448,1,1V35z"/>
		<path class="st0" d="M40,35.5H12c-0.276,0-0.5-0.224-0.5-0.5v-2c0-0.827,0.673-1.5,1.5-1.5h26c0.827,0,1.5,0.673,1.5,1.5v2
			C40.5,35.276,40.276,35.5,40,35.5z M12.5,34.5h27V33c0-0.275-0.224-0.5-0.5-0.5H13c-0.276,0-0.5,0.225-0.5,0.5V34.5z"/>
	</g>
	<g>
		<path class="st6" d="M56,35H30v-2c0-0.552,0.448-1,1-1h24c0.552,0,1,0.448,1,1V35z"/>
		<path class="st0" d="M56,35.5H30c-0.276,0-0.5-0.224-0.5-0.5v-2c0-0.827,0.673-1.5,1.5-1.5h24c0.827,0,1.5,0.673,1.5,1.5v2
			C56.5,35.276,56.276,35.5,56,35.5z M30.5,34.5h25V33c0-0.275-0.224-0.5-0.5-0.5H31c-0.276,0-0.5,0.225-0.5,0.5V34.5z"/>
	</g>
	<g>
		<path class="st6" d="M47,47h-8c-5.523,0-10-4.477-10-10v-1c0-0.552,0.448-1,1-1h26c0.552,0,1,0.448,1,1v1
			C57,42.523,52.523,47,47,47z"/>
		<path class="st0" d="M47,47.5h-8c-5.79,0-10.5-4.71-10.5-10.5v-1c0-0.827,0.673-1.5,1.5-1.5h26c0.827,0,1.5,0.673,1.5,1.5v1
			C57.5,42.79,52.79,47.5,47,47.5z M30,35.5c-0.276,0-0.5,0.225-0.5,0.5v1c0,5.238,4.262,9.5,9.5,9.5h8c5.238,0,9.5-4.262,9.5-9.5
			v-1c0-0.275-0.224-0.5-0.5-0.5H30z"/>
	</g>
	<g>
		<path class="st6" d="M47,60h-8c-0.552,0-1-0.448-1-1V47h10v12C48,59.552,47.552,60,47,60z"/>
		<path class="st0" d="M47,60.5h-8c-0.827,0-1.5-0.673-1.5-1.5V47c0-0.276,0.224-0.5,0.5-0.5h10c0.276,0,0.5,0.224,0.5,0.5v12
			C48.5,59.827,47.827,60.5,47,60.5z M38.5,47.5V59c0,0.275,0.224,0.5,0.5,0.5h8c0.276,0,0.5-0.225,0.5-0.5V47.5H38.5z"/>
	</g>
	<g>
		<path class="st14" d="M39,45.5c-4.687,0-8.5-3.813-8.5-8.5c0-0.276,0.224-0.5,0.5-0.5s0.5,0.224,0.5,0.5
			c0,4.136,3.364,7.5,7.5,7.5c0.276,0,0.5,0.224,0.5,0.5S39.276,45.5,39,45.5z"/>
	</g>
	<g>
		<path class="st6" d="M21,45.5c-4.687,0-8.5-3.813-8.5-8.5c0-0.276,0.224-0.5,0.5-0.5s0.5,0.224,0.5,0.5c0,4.136,3.364,7.5,7.5,7.5
			c0.276,0,0.5,0.224,0.5,0.5S21.276,45.5,21,45.5z"/>
	</g>
	<g>
		<path class="st12" d="M47,45.5c-0.276,0-0.5-0.224-0.5-0.5s0.224-0.5,0.5-0.5c4.136,0,7.5-3.364,7.5-7.5
			c0-0.276,0.224-0.5,0.5-0.5s0.5,0.224,0.5,0.5C55.5,41.687,51.687,45.5,47,45.5z"/>
	</g>
	<g>
		<path class="st12" d="M46,58.5c-0.276,0-0.5-0.224-0.5-0.5v-9c0-0.276,0.224-0.5,0.5-0.5s0.5,0.224,0.5,0.5v9
			C46.5,58.276,46.276,58.5,46,58.5z"/>
	</g>
	<g>
		<path class="st14" d="M40,58.5c-0.276,0-0.5-0.224-0.5-0.5v-9c0-0.276,0.224-0.5,0.5-0.5s0.5,0.224,0.5,0.5v9
			C40.5,58.276,40.276,58.5,40,58.5z"/>
	</g>
	<g>
		<path class="st6" d="M23,58.5c-0.276,0-0.5-0.224-0.5-0.5v-9c0-0.276,0.224-0.5,0.5-0.5s0.5,0.224,0.5,0.5v9
			C23.5,58.276,23.276,58.5,23,58.5z"/>
	</g>
	<g>
		<path class="st6" d="M37.917,10H14.083C13.485,10,13,9.552,13,9V5c0-0.552,0.485-1,1.083-1h23.833C38.515,4,39,4.448,39,5v4
			C39,9.552,38.515,10,37.917,10z"/>
		<path class="st0" d="M37.917,10.5H14.083C13.21,10.5,12.5,9.827,12.5,9V5c0-0.827,0.71-1.5,1.583-1.5h23.833
			C38.79,3.5,39.5,4.173,39.5,5v4C39.5,9.827,38.79,10.5,37.917,10.5z M14.083,4.5C13.762,4.5,13.5,4.725,13.5,5v4
			c0,0.275,0.262,0.5,0.583,0.5h23.833C38.238,9.5,38.5,9.275,38.5,9V5c0-0.275-0.262-0.5-0.583-0.5H14.083z"/>
	</g>
	<g>
		<path class="st12" d="M35.917,30.5c-0.276,0-0.5-0.224-0.5-0.5V12c0-0.276,0.224-0.5,0.5-0.5s0.5,0.224,0.5,0.5v18
			C36.417,30.276,36.193,30.5,35.917,30.5z"/>
	</g>
	<g>
		<path class="st14" d="M15.917,30.5c-0.276,0-0.5-0.224-0.5-0.5V12c0-0.276,0.224-0.5,0.5-0.5s0.5,0.224,0.5,0.5v18
			C16.417,30.276,16.193,30.5,15.917,30.5z"/>
	</g>
</g>
</svg>
