<?xml version="1.0" encoding="utf-8"?>
<!-- Generator: Adobe Illustrator 22.0.0, SVG Export Plug-In . SVG Version: 6.00 Build 0)  -->
<svg version="1.1" id="Icon_Set" xmlns="http://www.w3.org/2000/svg" xmlns:xlink="http://www.w3.org/1999/xlink" x="0px" y="0px"
	 viewBox="0 0 64 64" style="enable-background:new 0 0 64 64;" xml:space="preserve">
<style type="text/css">
	.st0{fill:#212A41;}
	.st1{fill:#4E4B51;}
	.st2{fill:#6C696F;}
	.st3{fill:#B7C0D7;}
	.st4{fill:#D5DEF5;}
	.st5{fill:#99A2B9;}
	.st6{fill:#E0E0E0;}
	.st7{fill:#D32E5E;}
	.st8{fill:#F9AC2F;}
	.st9{fill:#0079A8;}
	.st10{fill:#BED38E;}
	.st11{fill:#8A878D;}
	.st12{fill:#C2C2C2;}
	.st13{fill:#302D33;}
	.st14{fill:#FEFEFE;}
	.st15{fill:#FFCA4D;}
	.st16{fill:#DB8E11;}
	.st17{fill:#A4A4A4;}
	.st18{fill:#7B849B;}
	.st19{fill:#E0C8A4;}
	.st20{fill:#C2AA86;}
	.st21{fill:#FEE6C2;}
	.st22{fill:#1E97C6;}
	.st23{fill:#005B8A;}
	.st24{fill:#BD7000;}
</style>
<g>
	<g>
		<path class="st1" d="M46,58H8c-2.209,0-4-1.791-4-4V10c0-2.209,1.791-4,4-4h38c2.209,0,4,1.791,4,4v44C50,56.209,48.209,58,46,58z
			"/>
		<path class="st0" d="M46,58.5H8c-2.481,0-4.5-2.019-4.5-4.5V10c0-2.481,2.019-4.5,4.5-4.5h38c2.481,0,4.5,2.019,4.5,4.5v44
			C50.5,56.481,48.481,58.5,46,58.5z M8,6.5c-1.93,0-3.5,1.57-3.5,3.5v44c0,1.93,1.57,3.5,3.5,3.5h38c1.93,0,3.5-1.57,3.5-3.5V10
			c0-1.93-1.57-3.5-3.5-3.5H8z"/>
	</g>
	<g>
		<path class="st2" d="M56,58H18c-2.209,0-4-1.791-4-4V10c0-2.209,1.791-4,4-4h38c2.209,0,4,1.791,4,4v44C60,56.209,58.209,58,56,58
			z"/>
		<path class="st0" d="M56,58.5H18c-2.481,0-4.5-2.019-4.5-4.5V10c0-2.481,2.019-4.5,4.5-4.5h38c2.481,0,4.5,2.019,4.5,4.5v44
			C60.5,56.481,58.481,58.5,56,58.5z M18,6.5c-1.93,0-3.5,1.57-3.5,3.5v44c0,1.93,1.57,3.5,3.5,3.5h38c1.93,0,3.5-1.57,3.5-3.5V10
			c0-1.93-1.57-3.5-3.5-3.5H18z"/>
	</g>
	<g>
		<path class="st8" d="M47,44H27c-1.105,0-2-0.895-2-2V22c0-1.105,0.895-2,2-2h20c1.105,0,2,0.895,2,2v20C49,43.105,48.105,44,47,44
			z"/>
		<path class="st0" d="M47,44.5H27c-1.378,0-2.5-1.122-2.5-2.5V22c0-1.378,1.122-2.5,2.5-2.5h20c1.378,0,2.5,1.122,2.5,2.5v20
			C49.5,43.378,48.378,44.5,47,44.5z M27,20.5c-0.827,0-1.5,0.673-1.5,1.5v20c0,0.827,0.673,1.5,1.5,1.5h20
			c0.827,0,1.5-0.673,1.5-1.5V22c0-0.827-0.673-1.5-1.5-1.5H27z"/>
	</g>
	<g>
		<path class="st1" d="M58,54.5c-0.276,0-0.5-0.224-0.5-0.5V10c0-0.276,0.224-0.5,0.5-0.5s0.5,0.224,0.5,0.5v44
			C58.5,54.276,58.276,54.5,58,54.5z"/>
	</g>
	<g>
		<path class="st11" d="M16,54.5c-0.276,0-0.5-0.224-0.5-0.5V10c0-0.276,0.224-0.5,0.5-0.5s0.5,0.224,0.5,0.5v44
			C16.5,54.276,16.276,54.5,16,54.5z"/>
	</g>
	<g>
		<path class="st2" d="M6,54.5c-0.276,0-0.5-0.224-0.5-0.5V10c0-0.276,0.224-0.5,0.5-0.5S6.5,9.724,6.5,10v44
			C6.5,54.276,6.276,54.5,6,54.5z"/>
	</g>
	<g>
		<path class="st6" d="M45.557,25.607c-0.768-0.308-1.643,0.066-1.95,0.835L41,32.961l-2.607-6.518
			C38.165,25.874,37.613,25.5,37,25.5h-8c-0.829,0-1.5,0.671-1.5,1.5s0.671,1.5,1.5,1.5h2.371V37c0,0.829,0.671,1.5,1.5,1.5
			s1.5-0.671,1.5-1.5v-8.5h1.614l3.623,9.057C39.835,38.126,40.387,38.5,41,38.5s1.165-0.374,1.393-0.943l4-10
			C46.7,26.788,46.326,25.915,45.557,25.607z"/>
		<path class="st0" d="M41,39c-0.823,0-1.552-0.494-1.857-1.257L35.646,29h-0.775v8c0,1.103-0.897,2-2,2s-2-0.897-2-2v-8H29
			c-1.103,0-2-0.897-2-2s0.897-2,2-2h8c0.823,0,1.552,0.494,1.857,1.257L41,31.615l2.143-5.357c0.198-0.496,0.578-0.885,1.069-1.096
			c0.491-0.21,1.036-0.218,1.531-0.018c1.023,0.41,1.523,1.576,1.114,2.599l-4,10C42.552,38.506,41.823,39,41,39z M34.371,28h1.614
			c0.205,0,0.388,0.125,0.464,0.314l3.623,9.057C40.224,37.753,40.589,38,41,38s0.776-0.247,0.928-0.628l4-10
			c0.205-0.512-0.045-1.095-0.557-1.3c0,0,0,0,0,0c-0.249-0.099-0.519-0.096-0.765,0.009c-0.246,0.105-0.435,0.3-0.534,0.548
			l-2.607,6.518c-0.152,0.38-0.776,0.38-0.929,0l-2.607-6.518C37.776,26.247,37.411,26,37,26h-8c-0.551,0-1,0.449-1,1s0.449,1,1,1
			h2.371c0.276,0,0.5,0.224,0.5,0.5V37c0,0.551,0.449,1,1,1s1-0.449,1-1v-8.5C33.871,28.224,34.094,28,34.371,28z"/>
	</g>
	<g>
		<rect x="7" y="48" class="st1" width="4" height="2"/>
		<path class="st0" d="M11,50.5H7c-0.276,0-0.5-0.224-0.5-0.5v-2c0-0.276,0.224-0.5,0.5-0.5h4c0.276,0,0.5,0.224,0.5,0.5v2
			C11.5,50.276,11.276,50.5,11,50.5z M7.5,49.5h3v-1h-3V49.5z"/>
	</g>
	<g>
		<rect x="7" y="43" class="st1" width="4" height="2"/>
		<path class="st0" d="M11,45.5H7c-0.276,0-0.5-0.224-0.5-0.5v-2c0-0.276,0.224-0.5,0.5-0.5h4c0.276,0,0.5,0.224,0.5,0.5v2
			C11.5,45.276,11.276,45.5,11,45.5z M7.5,44.5h3v-1h-3V44.5z"/>
	</g>
	<g>
		<rect x="7" y="38" class="st1" width="4" height="2"/>
		<path class="st0" d="M11,40.5H7c-0.276,0-0.5-0.224-0.5-0.5v-2c0-0.276,0.224-0.5,0.5-0.5h4c0.276,0,0.5,0.224,0.5,0.5v2
			C11.5,40.276,11.276,40.5,11,40.5z M7.5,39.5h3v-1h-3V39.5z"/>
	</g>
	<g>
		<path class="st0" d="M60,10.5H4c-0.276,0-0.5-0.224-0.5-0.5S3.724,9.5,4,9.5h56c0.276,0,0.5,0.224,0.5,0.5S60.276,10.5,60,10.5z"
			/>
	</g>
	<g>
		<path class="st0" d="M60,54.5H4c-0.276,0-0.5-0.224-0.5-0.5s0.224-0.5,0.5-0.5h56c0.276,0,0.5,0.224,0.5,0.5S60.276,54.5,60,54.5z
			"/>
	</g>
</g>
</svg>
