<?xml version="1.0" encoding="utf-8"?>
<!-- Generator: Adobe Illustrator 22.0.0, SVG Export Plug-In . SVG Version: 6.00 Build 0)  -->
<svg version="1.1" id="Icon_Set" xmlns="http://www.w3.org/2000/svg" xmlns:xlink="http://www.w3.org/1999/xlink" x="0px" y="0px"
	 viewBox="0 0 64 64" style="enable-background:new 0 0 64 64;" xml:space="preserve">
<style type="text/css">
	.st0{fill:#212A41;}
	.st1{fill:#4E4B51;}
	.st2{fill:#6C696F;}
	.st3{fill:#B7C0D7;}
	.st4{fill:#D5DEF5;}
	.st5{fill:#99A2B9;}
	.st6{fill:#E0E0E0;}
	.st7{fill:#D32E5E;}
	.st8{fill:#F9AC2F;}
	.st9{fill:#0079A8;}
	.st10{fill:#BED38E;}
	.st11{fill:#8A878D;}
	.st12{fill:#C2C2C2;}
	.st13{fill:#302D33;}
	.st14{fill:#FEFEFE;}
	.st15{fill:#FFCA4D;}
	.st16{fill:#DB8E11;}
	.st17{fill:#A4A4A4;}
	.st18{fill:#7B849B;}
	.st19{fill:#E0C8A4;}
	.st20{fill:#C2AA86;}
	.st21{fill:#FEE6C2;}
	.st22{fill:#1E97C6;}
	.st23{fill:#005B8A;}
	.st24{fill:#BD7000;}
</style>
<g>
	<g>
		<path class="st12" d="M45,59H7c-1.105,0-2-0.895-2-2V7c0-1.105,0.895-2,2-2h38c1.105,0,2,0.895,2,2v50C47,58.105,46.105,59,45,59z
			"/>
		<path class="st0" d="M45,59.5H7c-1.378,0-2.5-1.122-2.5-2.5V7c0-1.378,1.122-2.5,2.5-2.5h38c1.378,0,2.5,1.122,2.5,2.5v50
			C47.5,58.378,46.378,59.5,45,59.5z M7,5.5C6.173,5.5,5.5,6.173,5.5,7v50c0,0.827,0.673,1.5,1.5,1.5h38c0.827,0,1.5-0.673,1.5-1.5
			V7c0-0.827-0.673-1.5-1.5-1.5H7z"/>
	</g>
	<g>
		<path class="st6" d="M57,59H19c-1.105,0-2-0.895-2-2V7c0-1.105,0.895-2,2-2h38c1.105,0,2,0.895,2,2v50C59,58.105,58.105,59,57,59z
			"/>
		<path class="st0" d="M57,59.5H19c-1.378,0-2.5-1.122-2.5-2.5V7c0-1.378,1.122-2.5,2.5-2.5h38c1.378,0,2.5,1.122,2.5,2.5v50
			C59.5,58.378,58.378,59.5,57,59.5z M19,5.5c-0.827,0-1.5,0.673-1.5,1.5v50c0,0.827,0.673,1.5,1.5,1.5h38
			c0.827,0,1.5-0.673,1.5-1.5V7c0-0.827-0.673-1.5-1.5-1.5H19z"/>
	</g>
	<g>
		<path class="st0" d="M27,12.5c-1.378,0-2.5-1.122-2.5-2.5s1.122-2.5,2.5-2.5s2.5,1.122,2.5,2.5S28.378,12.5,27,12.5z M27,8.5
			c-0.827,0-1.5,0.673-1.5,1.5s0.673,1.5,1.5,1.5s1.5-0.673,1.5-1.5S27.827,8.5,27,8.5z"/>
	</g>
	<g>
		<path class="st0" d="M49,12.5c-1.378,0-2.5-1.122-2.5-2.5s1.122-2.5,2.5-2.5s2.5,1.122,2.5,2.5S50.378,12.5,49,12.5z M49,8.5
			c-0.827,0-1.5,0.673-1.5,1.5s0.673,1.5,1.5,1.5s1.5-0.673,1.5-1.5S49.827,8.5,49,8.5z"/>
	</g>
	<g>
		<path class="st14" d="M19,57.5c-0.276,0-0.5-0.224-0.5-0.5V7c0-0.276,0.224-0.5,0.5-0.5s0.5,0.224,0.5,0.5v50
			C19.5,57.276,19.276,57.5,19,57.5z"/>
	</g>
	<g>
		<path class="st6" d="M7,57.5c-0.276,0-0.5-0.224-0.5-0.5V7c0-0.276,0.224-0.5,0.5-0.5S7.5,6.724,7.5,7v50
			C7.5,57.276,7.276,57.5,7,57.5z"/>
	</g>
	<g>
		<path class="st12" d="M57,57.5c-0.276,0-0.5-0.224-0.5-0.5V7c0-0.276,0.224-0.5,0.5-0.5s0.5,0.224,0.5,0.5v50
			C57.5,57.276,57.276,57.5,57,57.5z"/>
	</g>
	<g>
		<path class="st17" d="M15,57.5c-0.276,0-0.5-0.224-0.5-0.5V7c0-0.276,0.224-0.5,0.5-0.5s0.5,0.224,0.5,0.5v50
			C15.5,57.276,15.276,57.5,15,57.5z"/>
	</g>
	<g>
		<circle class="st3" cx="38" cy="35" r="11"/>
		<path class="st0" d="M38,46.5c-6.341,0-11.5-5.159-11.5-11.5S31.659,23.5,38,23.5S49.5,28.659,49.5,35S44.341,46.5,38,46.5z
			 M38,24.5c-5.79,0-10.5,4.71-10.5,10.5S32.21,45.5,38,45.5S48.5,40.79,48.5,35S43.79,24.5,38,24.5z"/>
	</g>
	<g>
		<path class="st5" d="M38,44.5c-0.276,0-0.5-0.224-0.5-0.5s0.224-0.5,0.5-0.5c4.687,0,8.5-3.813,8.5-8.5c0-0.276,0.224-0.5,0.5-0.5
			s0.5,0.224,0.5,0.5C47.5,40.238,43.238,44.5,38,44.5z"/>
	</g>
	<g>
		<path class="st4" d="M29,35.5c-0.276,0-0.5-0.224-0.5-0.5c0-5.238,4.262-9.5,9.5-9.5c0.276,0,0.5,0.224,0.5,0.5
			s-0.224,0.5-0.5,0.5c-4.687,0-8.5,3.813-8.5,8.5C29.5,35.276,29.276,35.5,29,35.5z"/>
	</g>
	<g>
		<path class="st0" d="M38,49.5c-7.995,0-14.5-6.505-14.5-14.5S30.005,20.5,38,20.5S52.5,27.005,52.5,35S45.995,49.5,38,49.5z
			 M38,21.5c-7.444,0-13.5,6.056-13.5,13.5S30.556,48.5,38,48.5S51.5,42.444,51.5,35S45.444,21.5,38,21.5z"/>
	</g>
	<g>
		<path class="st0" d="M59,15.5H5c-0.276,0-0.5-0.224-0.5-0.5s0.224-0.5,0.5-0.5h54c0.276,0,0.5,0.224,0.5,0.5S59.276,15.5,59,15.5z
			"/>
	</g>
	<g>
		<path class="st0" d="M59,53.5H5c-0.276,0-0.5-0.224-0.5-0.5s0.224-0.5,0.5-0.5h54c0.276,0,0.5,0.224,0.5,0.5S59.276,53.5,59,53.5z
			"/>
	</g>
	<g>
		<rect x="34" y="8" class="st3" width="8" height="4"/>
		<path class="st0" d="M42,12.5h-8c-0.276,0-0.5-0.224-0.5-0.5V8c0-0.276,0.224-0.5,0.5-0.5h8c0.276,0,0.5,0.224,0.5,0.5v4
			C42.5,12.276,42.276,12.5,42,12.5z M34.5,11.5h7v-3h-7V11.5z"/>
	</g>
	<g>
		<path class="st0" d="M51.413,39.5h-3.174c-0.165,0-0.32-0.082-0.413-0.218c-0.093-0.136-0.113-0.31-0.053-0.464
			C48.255,37.584,48.5,36.3,48.5,35s-0.245-2.584-0.727-3.818c-0.06-0.154-0.04-0.328,0.053-0.464
			c0.093-0.137,0.248-0.218,0.413-0.218h3.174c0.221,0,0.416,0.145,0.479,0.357C52.295,32.211,52.5,33.605,52.5,35
			s-0.205,2.789-0.608,4.143C51.829,39.355,51.634,39.5,51.413,39.5z M48.947,38.5h2.087c0.309-1.148,0.465-2.324,0.465-3.5
			s-0.156-2.352-0.465-3.5h-2.087c0.367,1.139,0.553,2.313,0.553,3.5S49.314,37.361,48.947,38.5z"/>
	</g>
	<g>
		<path class="st0" d="M54,59.5h-9c-0.276,0-0.5-0.224-0.5-0.5v-6c0-0.276,0.224-0.5,0.5-0.5h9c0.276,0,0.5,0.224,0.5,0.5v6
			C54.5,59.276,54.276,59.5,54,59.5z M45.5,58.5h8v-5h-8V58.5z"/>
	</g>
</g>
</svg>
