<svg id="Layer_1" data-name="Layer 1" xmlns="http://www.w3.org/2000/svg" viewBox="0 0 128 128"><title>BEACH BALL</title><circle cx="64" cy="64" r="51.421" style="fill:#1fca74"/><path d="M64,12.579S73.292,19,57.75,41.5s-14.786,65.984,19.9,72.075A51.42,51.42,0,0,0,64,12.579Z" style="fill:#1ab250"/><ellipse cx="64" cy="64" rx="21.794" ry="51.421" style="fill:#fed943"/><path d="M64,12.579S73.292,19,57.75,41.5c-14.605,21.142-14.812,60.8,13.991,70.57C79.955,104.7,85.794,85.964,85.794,64,85.794,35.6,76.036,12.58,64,12.579Z" style="fill:#fbbe2c"/><path d="M64,115.421a51.437,51.437,0,0,0,13.648-1.845C76.61,107.919,70.9,103.587,64,103.587s-12.61,4.332-13.648,9.988A51.437,51.437,0,0,0,64,115.421Z" style="fill:#fc3e81"/><path d="M64,12.579a51.437,51.437,0,0,0-13.648,1.845C51.39,20.081,57.1,24.413,64,24.413s12.61-4.331,13.648-9.988A51.437,51.437,0,0,0,64,12.579Z" style="fill:#fc3e81"/><path d="M66.215,24.252c5.878-.812,10.508-4.79,11.433-9.827A51.437,51.437,0,0,0,64,12.579S68.2,15.5,66.215,24.252Z" style="fill:#e0176d"/><path d="M64,103.587a15.852,15.852,0,0,0-4.885.761,34.039,34.039,0,0,0,18.533,9.227C76.61,107.919,70.9,103.587,64,103.587Z" style="fill:#e0176d"/><path d="M101.627,96.426q-.451.524-.917,1.034a1.75,1.75,0,1,0,2.585,2.359q.5-.548.984-1.11a1.75,1.75,0,1,0-2.652-2.283Z" style="fill:#630000"/><path d="M64,10.829A53.171,53.171,0,1,0,77.951,115.3h.013a1.754,1.754,0,0,0,.35-.1,53.143,53.143,0,0,0,19.62-10.257,1.75,1.75,0,0,0-2.235-2.693,49.614,49.614,0,0,1-16.842,9.15,12.768,12.768,0,0,0-1.64-3.156C83.7,98.439,87.543,82.065,87.543,64c0-14.564-2.62-28.615-7.187-38.55a1.75,1.75,0,0,0-3.18,1.463C81.541,36.4,84.043,49.922,84.043,64c0,16.7-3.522,32.357-9.274,41.6A16.783,16.783,0,0,0,64,101.837c-6.947,0-12.878,3.925-14.859,9.562a49.674,49.674,0,0,1,0-94.8,12.764,12.764,0,0,0,1.639,3.158C44.312,29.559,40.457,46.024,40.457,64c0,14.055,2.342,27.271,6.6,37.216a1.75,1.75,0,1,0,3.218-1.377C46.2,90.32,43.957,77.593,43.957,64c0-16.621,3.54-32.354,9.285-41.589A16.785,16.785,0,0,0,64,26.163c6.947,0,12.878-3.925,14.859-9.562a49.684,49.684,0,0,1,26.735,74.56,1.75,1.75,0,0,0,2.929,1.916A53.179,53.179,0,0,0,64,10.829Zm0,94.508c5.248,0,9.874,2.908,11.468,6.978a49.253,49.253,0,0,1-22.939,0C54.122,108.247,58.75,105.337,64,105.337Zm0-82.674c-5.25,0-9.878-2.91-11.47-6.982a49.347,49.347,0,0,1,22.94,0C73.878,19.753,69.25,22.663,64,22.663Z" style="fill:#630000"/><path d="M41.333,24.5a1.748,1.748,0,0,0-2.413-.553q-.612.384-1.211.785a1.75,1.75,0,1,0,1.95,2.906q.554-.372,1.12-.727A1.75,1.75,0,0,0,41.333,24.5Z" style="fill:#630000"/><path d="M33.7,27.735A47.187,47.187,0,0,0,22.082,42.168a1.75,1.75,0,1,0,3.1,1.619A43.692,43.692,0,0,1,35.948,30.421,1.75,1.75,0,0,0,33.7,27.735Z" style="fill:#630000"/></svg>