<svg id="Layer_1" data-name="Layer 1" xmlns="http://www.w3.org/2000/svg" viewBox="0 0 128 128"><title>FOOD</title><polygon points="31.373 110.729 21.976 105.972 21.976 85.278 31.373 85.278 31.373 110.729" style="fill:#fed943"/><path d="M68.393,78.619h0a3.16,3.16,0,0,1-1.613,3.928l-18,8.573L69.07,93l18.483-7.729a2.96,2.96,0,0,1,3.6,1.089h0a2.96,2.96,0,0,1-.754,4.059l-22,15.551H31.373V88.759L47.014,79.02l17.979-2.458A3.16,3.16,0,0,1,68.393,78.619Z" style="fill:#fecec0"/><rect x="31.136" y="58.658" width="84.284" height="9.837" style="fill:#daf2fe"/><path d="M73.278,23.146A35.512,35.512,0,0,0,37.767,58.658H108.79A35.512,35.512,0,0,0,73.278,23.146Z" style="fill:#fc3e81"/><rect x="12.579" y="85.278" width="9.397" height="20.695" style="fill:#475a61"/><path d="M73.278,23.146a35.72,35.72,0,0,1,5.85.488c.013-.161.025-.323.025-.488a5.875,5.875,0,1,0-11.75,0c0,.165.011.327.025.488A35.72,35.72,0,0,1,73.278,23.146Z" style="fill:#fed943"/><path d="M79.129,23.634S87.5,29.554,76,40.9c-6.017,5.937-6.56,12.48-4.413,17.756h37.2A35.515,35.515,0,0,0,79.129,23.634Z" style="fill:#e0176d"/><path d="M115.421,58.658H71.587a17.149,17.149,0,0,0,10.484,9.837h33.35Z" style="fill:#cddefe"/><path d="M90.4,90.422a2.96,2.96,0,0,0-2.851-5.148L69.07,93,48.784,91.12a8.172,8.172,0,0,0-4.034,4.505c-1,3.125,1,9.695,8,10.347H68.409Z" style="fill:#febfad"/><path d="M38.75,104.222h-.983a1.75,1.75,0,1,0,0,3.5h.983a1.75,1.75,0,1,0,0-3.5Z" style="fill:#630000"/><path d="M86.879,83.659,68.8,91.22,55.277,89.965l12.256-5.839a4.91,4.91,0,0,0-2.777-9.3L46.776,77.287a1.743,1.743,0,0,0-.687.249L33.123,85.608v-.33a1.75,1.75,0,0,0-1.75-1.75h-9.4a1.75,1.75,0,0,0-1.75,1.75v18.944H12.579a1.75,1.75,0,1,0,0,3.5h8.98l9.024,4.568a1.75,1.75,0,0,0,2.54-1.562v-21l14.5-9.027L65.23,78.3a1.41,1.41,0,0,1,.8,2.67l-18,8.573a1.75,1.75,0,0,0,.591,3.323l20.286,1.883a1.737,1.737,0,0,0,.837-.128l18.484-7.729a1.21,1.21,0,0,1,1.164,2.1l-21.54,15.229H44.167a1.75,1.75,0,1,0,0,3.5H68.409a1.751,1.751,0,0,0,1.011-.321l22-15.551a4.71,4.71,0,0,0-4.536-8.191ZM29.623,107.882l-5.9-2.985V87.028h5.9Z" style="fill:#630000"/><path d="M115.421,56.908H39.562a33.765,33.765,0,0,1,66.884-4.589,1.75,1.75,0,0,0,3.439-.653,37.27,37.27,0,0,0-29.05-29.49,7.617,7.617,0,0,0-15.111-.009A37.332,37.332,0,0,0,36.061,56.908H31.136a1.75,1.75,0,0,0-1.75,1.75v9.837a1.75,1.75,0,0,0,1.75,1.75H82.25a1.75,1.75,0,0,0,0-3.5H32.886V60.408h80.785v6.337H97.25a1.75,1.75,0,0,0,0,3.5h18.171a1.75,1.75,0,0,0,1.75-1.75V58.658A1.75,1.75,0,0,0,115.421,56.908ZM73.278,19.021A4.127,4.127,0,0,1,77.1,21.6a36.816,36.816,0,0,0-7.633-.008A4.128,4.128,0,0,1,73.278,19.021Z" style="fill:#630000"/><path d="M90,70.245a1.75,1.75,0,0,0,0-3.5H88.75a1.75,1.75,0,0,0,0,3.5Z" style="fill:#630000"/><path d="M12.579,87.028h3.7a1.75,1.75,0,0,0,0-3.5h-3.7a1.75,1.75,0,1,0,0,3.5Z" style="fill:#630000"/><path d="M60.827,29.876q-.882.376-1.736.8a1.75,1.75,0,1,0,1.563,3.132q.76-.379,1.547-.714a1.75,1.75,0,1,0-1.373-3.22Z" style="fill:#630000"/><path d="M54,33.855A32.081,32.081,0,0,0,44.88,44.823,1.75,1.75,0,1,0,48,46.4a28.574,28.574,0,0,1,8.119-9.764A1.75,1.75,0,0,0,54,33.855Z" style="fill:#630000"/></svg>