<svg id="Layer_1" data-name="Layer 1" xmlns="http://www.w3.org/2000/svg" viewBox="0 0 128 128"><title>LIFE GUARD</title><path d="M109.38,102.73v12.69H18.62V102.73A14.937,14.937,0,0,1,33.55,87.8l9.33-1.07a12.362,12.362,0,0,0,10.7-9.87l1.41-7.08H73.01l1.41,7.08a12.362,12.362,0,0,0,10.7,9.87l9.33,1.07A14.937,14.937,0,0,1,109.38,102.73Z" style="fill:#fc3e81"/><path d="M109.38,102.73A14.937,14.937,0,0,0,94.45,87.8l-9.33-1.07a12.362,12.362,0,0,1-10.7-9.87l-1.41-7.08H67.192A14.913,14.913,0,0,0,64,78.128s10.689,8.8,4.469,23.046-22.8,14.246-22.8,14.246H109.38Z" style="fill:#e0176d"/><path d="M40.625,37.764H87.375a0,0,0,0,1,0,0v16.99A23.375,23.375,0,0,1,64,78.128h0A23.375,23.375,0,0,1,40.625,54.754V37.764A0,0,0,0,1,40.625,37.764Z" style="fill:#fecec0"/><path d="M87.375,54.753V37.764H69.09C57.889,51.552,53.857,70.274,64,78.128A23.375,23.375,0,0,0,87.375,54.753Z" style="fill:#febfad"/><path d="M92.61,101.61v13.81h-3.5V101.61a1.75,1.75,0,1,1,3.5,0Z" style="fill:#fc3e81"/><path d="M38.89,101.61v13.81h-3.5V101.61a1.75,1.75,0,1,1,3.5,0Z" style="fill:#e0176d"/><path d="M64,12.579h0A23.375,23.375,0,0,1,87.375,35.954v1.81a0,0,0,0,1,0,0H40.625a0,0,0,0,1,0,0v-1.81A23.375,23.375,0,0,1,64,12.579Z" style="fill:#fc3e81"/><rect x="40.625" y="37.764" width="46.749" height="8.232" style="fill:#fbbe2c"/><path d="M35.208,52.167a5.417,5.417,0,0,0,5.417,5.417V46.75A5.417,5.417,0,0,0,35.208,52.167Z" style="fill:#fecec0"/><path d="M92.791,52.167a5.417,5.417,0,0,0-5.417-5.417V57.583A5.417,5.417,0,0,0,92.791,52.167Z" style="fill:#febfad"/><polygon points="69.875 23.853 66.522 23.853 66.522 20.5 61.478 20.5 61.478 23.853 58.125 23.853 58.125 28.897 61.478 28.897 61.478 32.25 66.522 32.25 66.522 28.897 69.875 28.897 69.875 23.853" style="fill:#daf2fe"/><path d="M56.6,53.152a1.746,1.746,0,0,0-.439-3.438h-7.25a1.75,1.75,0,0,0,0,3.5h2.407a3.145,3.145,0,0,0,5.281-.062Z" style="fill:#475a61"/><path d="M79.094,49.714h-7.25a1.746,1.746,0,0,0-.439,3.438,3.145,3.145,0,0,0,5.281.062h2.407a1.75,1.75,0,0,0,0-3.5Z" style="fill:#475a61"/><path d="M70.859,60.319a1.75,1.75,0,0,0-1.75,1.75,5.109,5.109,0,0,1-10.219,0,1.75,1.75,0,0,0-3.5,0,8.609,8.609,0,0,0,17.219,0A1.75,1.75,0,0,0,70.859,60.319Z" style="fill:#475a61"/><path d="M68.469,13.011c.045.041,11.937,10.884.7,24.655-.026.032-.051.065-.077.1H87.375v-1.81A23.379,23.379,0,0,0,68.469,13.011Z" style="fill:#e0176d"/><path d="M63.559,46H87.375V37.764H69.09A54.7,54.7,0,0,0,63.559,46Z" style="fill:#fd9025"/><path d="M94.556,86.055l-9.232-1.065a10.6,10.6,0,0,1-7.545-4.561A1.75,1.75,0,0,0,74.887,82.4a14.1,14.1,0,0,0,10.035,6.064l9.33,1.077a1.722,1.722,0,0,0,.2.012,13.187,13.187,0,0,1,13.172,13.172v12.694a1.75,1.75,0,0,0,3.5,0V102.727A16.691,16.691,0,0,0,94.556,86.055Z" style="fill:#630000"/><path d="M90.864,99.86a1.75,1.75,0,0,0-1.75,1.75v13.811a1.75,1.75,0,0,0,3.5,0V101.61A1.75,1.75,0,0,0,90.864,99.86Z" style="fill:#630000"/><path d="M37.136,99.86a1.75,1.75,0,0,0-1.75,1.75v13.811a1.75,1.75,0,0,0,3.5,0V101.61A1.75,1.75,0,0,0,37.136,99.86Z" style="fill:#630000"/><path d="M88.722,59.2a7.159,7.159,0,0,0,.4-13.977V35.954a25.125,25.125,0,1,0-50.249,0v9.271a7.159,7.159,0,0,0,.4,13.977A25.189,25.189,0,0,0,51.814,76.715a10.571,10.571,0,0,1-9.138,8.275l-9.232,1.065a16.691,16.691,0,0,0-16.569,16.672v12.694a1.75,1.75,0,0,0,3.5,0V102.727A13.187,13.187,0,0,1,33.547,89.555a1.722,1.722,0,0,0,.2-.012l9.33-1.077a14.058,14.058,0,0,0,11.97-10.242,24.935,24.935,0,0,0,7.2,1.586V95.6a1.75,1.75,0,0,0,3.5,0V79.81A25.164,25.164,0,0,0,88.722,59.2Zm2.319-7.035a3.654,3.654,0,0,1-1.933,3.21c.005-.208.016-.414.016-.623V48.965A3.655,3.655,0,0,1,91.042,52.167Zm-54.083,0a3.655,3.655,0,0,1,1.917-3.2v5.789c0,.209.011.415.016.623A3.654,3.654,0,0,1,36.958,52.167Zm5.417,2.587V47.746h37.25a1.75,1.75,0,0,0,0-3.5H42.375V39.514h6.53a1.75,1.75,0,0,0,0-3.5h-6.53v-.06a21.625,21.625,0,1,1,43.249,0v.06H62.083a1.75,1.75,0,0,0,0,3.5H85.625v15.24a21.625,21.625,0,0,1-43.249,0Z" style="fill:#630000"/><path d="M56.156,36.014H55.5a1.75,1.75,0,0,0,0,3.5h.657a1.75,1.75,0,0,0,0-3.5Z" style="fill:#630000"/><path d="M66.521,34a1.75,1.75,0,0,0,1.75-1.75v-1.6h1.6a1.75,1.75,0,0,0,1.75-1.75V23.854a1.75,1.75,0,0,0-1.75-1.75h-1.6V20.5a1.75,1.75,0,0,0-1.75-1.75H61.479a1.75,1.75,0,0,0-1.75,1.75v1.6h-1.6a1.75,1.75,0,0,0-1.75,1.75V28.9a1.75,1.75,0,0,0,1.75,1.75h1.6v1.6A1.75,1.75,0,0,0,61.479,34Zm-6.646-6.854V25.6h1.6a1.75,1.75,0,0,0,1.75-1.75v-1.6h1.543v1.6a1.75,1.75,0,0,0,1.75,1.75h1.6v1.543h-1.6a1.75,1.75,0,0,0-1.75,1.75v1.6H63.229V28.9a1.75,1.75,0,0,0-1.75-1.75Z" style="fill:#630000"/><path d="M64,106.766a1.75,1.75,0,0,0-1.75,1.75v6.905a1.75,1.75,0,0,0,3.5,0v-6.905A1.75,1.75,0,0,0,64,106.766Z" style="fill:#630000"/><path d="M64,99.521a1.75,1.75,0,0,0-1.75,1.75v.34a1.75,1.75,0,0,0,3.5,0v-.34A1.75,1.75,0,0,0,64,99.521Z" style="fill:#630000"/><path d="M56.6,53.152a1.746,1.746,0,0,0-.439-3.438h-7.25a1.75,1.75,0,0,0,0,3.5h2.407a3.145,3.145,0,0,0,5.281-.062Z" style="fill:#630000"/><path d="M71.4,53.152a3.145,3.145,0,0,0,5.281.062h2.407a1.75,1.75,0,0,0,0-3.5h-7.25a1.746,1.746,0,0,0-.439,3.438Z" style="fill:#630000"/><path d="M72.609,62.069a1.75,1.75,0,0,0-3.5,0,5.109,5.109,0,0,1-10.219,0,1.75,1.75,0,0,0-3.5,0,8.609,8.609,0,0,0,17.219,0Z" style="fill:#630000"/></svg>