<svg id="Layer_1" data-name="Layer 1" xmlns="http://www.w3.org/2000/svg" viewBox="0 0 128 128"><title>SNORKEL</title><path d="M76.585,31.381H40.495a25.288,25.288,0,1,0,0,50.577h9.059a11.436,11.436,0,0,1-.465-3.21c0-6.324,3.126-11.45,9.45-11.45s9.45,5.126,9.45,11.45a11.436,11.436,0,0,1-.465,3.21h9.06a25.288,25.288,0,0,0,0-50.577Z" style="fill:#1997fc"/><path d="M76.585,37.858H40.495a18.812,18.812,0,0,0,0,37.623h8.074C49.976,70.75,53.352,67.3,58.54,67.3s8.564,3.453,9.971,8.184h8.074a18.812,18.812,0,0,0,0-37.623Z" style="fill:#7be2f6"/><path d="M30.639,72.67a18.664,18.664,0,0,0,7.113,2.588l16.434-37.4h-8.25Z" style="fill:#fff"/><path d="M59.06,37.858,42.529,75.481h6.04c.542-1.824.08-2.282,1.381-3.6L64.834,37.858Z" style="fill:#fff"/><path d="M58.54,67.3h0A10.985,10.985,0,0,1,69.525,78.283V94a0,0,0,0,1,0,0H47.554a0,0,0,0,1,0,0V78.283A10.985,10.985,0,0,1,58.54,67.3Z" style="fill:#fbbe2c"/><path d="M101.873,12.579v89.866a4.726,4.726,0,0,1-4.726,4.726H66.954a4.29,4.29,0,0,1-4.29-4.29V94h-8.25v9.356a12.064,12.064,0,0,0,12.064,12.064H98.772a11.351,11.351,0,0,0,11.351-11.351V12.579Z" style="fill:#daf2fe"/><path d="M52.96,79.167a1.751,1.751,0,0,1-1.642-2.356c.083-.225,2.092-5.526,7.036-6.051a1.75,1.75,0,1,1,.37,3.48c-2.762.293-4.109,3.747-4.122,3.782A1.751,1.751,0,0,1,52.96,79.167Z" style="fill:#fff"/><path d="M73.125,46.25c-13.5,9.479-6.872,29.218,5.623,35.609a25.285,25.285,0,0,0-2.162-50.478S86.625,36.77,73.125,46.25Z" style="fill:#0048d5"/><path d="M76.585,75.481a18.805,18.805,0,0,0,3.429-37.3c-.513,2.2-2.389,4.905-6.889,8.065-10.341,7.262-8.864,20.54-1.992,29.231Z" style="fill:#51baea"/><path d="M58.54,67.3s6.46,2.662,3.71,11.87S63.3,94,69.525,94V78.283A10.985,10.985,0,0,0,58.54,67.3Z" style="fill:#fd9025"/><rect x="98.96" y="26.5" width="13.833" height="32" rx="2.19" ry="2.19" style="fill:#fbbe2c"/><path d="M112.794,56.31V28.69a2.19,2.19,0,0,0-2.19-2.19s2.229,2.833-3.6,8.667-6.626,19.5,3.6,23.333A2.19,2.19,0,0,0,112.794,56.31Z" style="fill:#fd9025"/><path d="M47,33.131h.554a1.75,1.75,0,1,0,0-3.5H47a1.75,1.75,0,0,0,0,3.5Z" style="fill:#630000"/><path d="M110.123,89.167a1.75,1.75,0,0,0-1.75,1.75V91.5a1.75,1.75,0,0,0,3.5,0v-.583A1.75,1.75,0,0,0,110.123,89.167Z" style="fill:#630000"/><path d="M110.123,95.917a1.75,1.75,0,0,0-1.75,1.75v6.4a9.613,9.613,0,0,1-9.6,9.6H66.479a10.326,10.326,0,0,1-10.315-10.314v-3.231a1.75,1.75,0,0,0-3.5,0v3.231A13.83,13.83,0,0,0,66.479,117.17H98.771a13.116,13.116,0,0,0,13.1-13.1v-6.4A1.75,1.75,0,0,0,110.123,95.917Z" style="fill:#630000"/><path d="M60.915,102.881a6.047,6.047,0,0,0,6.04,6.04H97.147a6.483,6.483,0,0,0,6.476-6.476V74.125a1.75,1.75,0,0,0-3.5,0v28.32a2.979,2.979,0,0,1-2.976,2.976H66.954a2.542,2.542,0,0,1-2.54-2.54V95.75h5.111A1.75,1.75,0,0,0,71.275,94V78.283c0-.355-.025-.7-.053-1.052h5.363a20.562,20.562,0,1,0,0-41.123H40.495A20.541,20.541,0,0,0,29.6,74.076a1.757,1.757,0,0,0,.178.108,20.392,20.392,0,0,0,7.612,2.786l.026,0a20.526,20.526,0,0,0,3.078.256h5.363c-.029.348-.053.7-.053,1.052v1.925H40.5a23.538,23.538,0,1,1,0-47.077,1.75,1.75,0,1,0,0-3.5,27.038,27.038,0,1,0,0,54.077H45.8V94a1.75,1.75,0,0,0,1.75,1.75h13.36ZM93.646,56.669A17.081,17.081,0,0,1,76.585,73.73H70.42a12.67,12.67,0,0,0-16.176-7.422l11.732-26.7H76.585A17.081,17.081,0,0,1,93.646,56.669Zm-70.213,0A17.081,17.081,0,0,1,40.495,39.607h2.76L29.894,70.014A17.028,17.028,0,0,1,23.433,56.669ZM40.495,73.73c-.053,0-.1-.007-.157-.008L53.065,44.758a1.75,1.75,0,0,0-3.2-1.408L36.7,73.291a16.908,16.908,0,0,1-3.823-1.376l14.2-32.308h9.3l-12.6,28.674a1.75,1.75,0,1,0,3.2,1.408L60.2,39.607h1.95L48.8,70c-.021.048-.031.1-.047.146a12.74,12.74,0,0,0-2.09,3.582Zm8.81,4.552a9.236,9.236,0,1,1,18.471,0V92.25H49.3Z" style="fill:#630000"/><path d="M110.6,24.75h-6.98V14.33h4.75V20.5a1.75,1.75,0,1,0,3.5,0V12.58a1.75,1.75,0,0,0-1.75-1.75h-8.25a1.75,1.75,0,0,0-1.75,1.75V24.9A3.935,3.935,0,0,0,97.21,28.69V39.205a26.966,26.966,0,0,0-20.625-9.574H54.208a1.75,1.75,0,0,0,0,3.5H76.585A23.507,23.507,0,0,1,97.21,45.356V56.31a3.933,3.933,0,0,0,2.654,3.706A23.611,23.611,0,0,1,76.585,80.208a1.75,1.75,0,0,0,0,3.5,27.133,27.133,0,0,0,26.8-23.458h4.993V85.875a1.75,1.75,0,0,0,3.5,0V60.022a3.933,3.933,0,0,0,2.671-3.712V28.69A3.945,3.945,0,0,0,110.6,24.75Zm.44,3.94V56.31a.44.44,0,0,1-.44.44H101.15a.44.44,0,0,1-.44-.44V28.69a.44.44,0,0,1,.44-.44H110.6A.44.44,0,0,1,111.044,28.69Z" style="fill:#630000"/><path d="M58.354,70.76c-4.944.525-6.953,5.826-7.036,6.051A1.75,1.75,0,1,0,54.6,78.022c.013-.035,1.36-3.488,4.122-3.782a1.75,1.75,0,1,0-.37-3.48Z" style="fill:#630000"/></svg>