<svg id="Layer_1" data-name="Layer 1" xmlns="http://www.w3.org/2000/svg" viewBox="0 0 128 128"><title>SUNBED</title><rect x="61.25" y="28.333" width="5.5" height="14.667" style="fill:#fd9025"/><polygon points="24.495 115.421 19.662 115.421 24.662 93.623 29.495 93.623 24.495 115.421" style="fill:#a24f41"/><polygon points="103.505 115.421 108.338 115.421 103.338 93.623 98.505 93.623 103.505 115.421" style="fill:#a24f41"/><path d="M41.955,36.623a12.6,12.6,0,0,1,11.022,6.49,12.605,12.605,0,0,1,22.045,0,12.6,12.6,0,0,1,23.46,4.123h.173a34.656,34.656,0,0,0-69.312,0h.173A12.6,12.6,0,0,1,41.955,36.623Z" style="fill:#fc3e81"/><path d="M111.494,86.28H36.8a3.927,3.927,0,0,1-3.365-1.9L13.142,50.672a3.927,3.927,0,1,1,6.729-4.051l19.144,31.8h72.478a3.927,3.927,0,0,1,0,7.854Z" style="fill:#fed943"/><rect x="19.75" y="86.28" width="88.5" height="7.343" style="fill:#1fca74"/><path d="M64,36.623a12.6,12.6,0,0,1,11.022,6.49h0S80,21.158,64,12.579C48,21.159,52.978,43.113,52.978,43.113A12.6,12.6,0,0,1,64,36.623Z" style="fill:#daf2fe"/><path d="M52.978,43.113a12.605,12.605,0,0,1,22.045,0,12.6,12.6,0,0,1,23.46,4.122h.173A34.656,34.656,0,0,0,64,12.579s3.167,5.754-6.333,9.254-15.712,9.413-15.712,14.79A12.6,12.6,0,0,1,52.978,43.113Z" style="fill:#e0176d"/><path d="M57.667,21.833c-1.107.408-2.165.852-3.178,1.32-3.909,9.351-1.511,19.959-1.511,19.959a12.605,12.605,0,0,1,22.045,0h0S80,21.158,64,12.579C64,12.579,67.167,18.333,57.667,21.833Z" style="fill:#cddefe"/><path d="M111.494,86.28a3.927,3.927,0,1,0,0-7.854H39.016S52.47,80.031,58.9,86.28Z" style="fill:#fbbe2c"/><path d="M108.25,86.28H58.9a10.056,10.056,0,0,1,3.35,7.344h46Z" style="fill:#1ab250"/><path d="M115.42,113.67h-5.688l-4.2-18.3h2.715a1.75,1.75,0,0,0,1.75-1.75V88.03h1.494a5.677,5.677,0,0,0,0-11.354H99.125a1.75,1.75,0,0,0,0,3.5h12.369a2.177,2.177,0,0,1,0,4.354H36.8a2.187,2.187,0,0,1-1.865-1.054L14.642,49.77a2.177,2.177,0,0,1,3.73-2.246l19.145,31.8a1.751,1.751,0,0,0,1.5.848H87.583a1.75,1.75,0,0,0,0-3.5H65.75V48.75a1.75,1.75,0,0,0-3.5,0V76.676H40.005L21.371,45.719a5.677,5.677,0,0,0-9.728,5.856L31.933,85.28A5.7,5.7,0,0,0,36.8,88.03h69.7v3.844h-85V88.03H27a1.75,1.75,0,1,0,0-3.5H19.75A1.75,1.75,0,0,0,18,86.28v7.344a1.75,1.75,0,0,0,1.75,1.75H27.3l-4.2,18.3H21.858l3.153-13.747a1.75,1.75,0,0,0-3.411-.782L18.268,113.67H12.58a1.75,1.75,0,1,0,0,3.5H24.495a1.748,1.748,0,0,0,1.7-1.344c0-.006.007-.008.008-.015l1.451-6.326c3.355.071,11.2.1,20.853.1,4.308,0,8.971-.005,13.745-.014v4.1H32.167a1.75,1.75,0,0,0,0,3.5H115.42a1.75,1.75,0,0,0,0-3.5Zm-9.279,0H104.9l-1.452-6.328,0-.013-1.878-8.188a1.75,1.75,0,0,0-3.411.782l1.384,6.031c-10.419.041-22.491.08-33.788.1V95.374h36.195Zm-77.694-7.652,2.442-10.644H62.25v10.692C46.82,106.093,33.383,106.088,28.447,106.018Zm37.3,3.544c12.651-.027,25.655-.074,34.59-.11l.968,4.218H65.75Z" style="fill:#630000"/><path d="M29.344,48.986h.173a1.75,1.75,0,0,0,1.728-1.474,10.849,10.849,0,0,1,20.2-3.547,1.75,1.75,0,0,0,3.059,0A10.877,10.877,0,0,1,59.5,39.37V43a1.75,1.75,0,0,0,1.75,1.75h5.5A1.75,1.75,0,0,0,68.5,43V39.37a10.877,10.877,0,0,1,4.993,4.594,1.75,1.75,0,0,0,3.059,0,10.849,10.849,0,0,1,20.2,3.547,1.75,1.75,0,0,0,1.728,1.474h.173a1.75,1.75,0,0,0,1.75-1.75A36.426,36.426,0,0,0,49.829,13.691a1.75,1.75,0,0,0,1.363,3.224A32.585,32.585,0,0,1,57.919,14.9c-6.905,6.807-7.694,16.65-7.359,22.858a14.358,14.358,0,0,0-18.314.879,33.011,33.011,0,0,1,9.41-15.554,1.75,1.75,0,0,0-2.377-2.568A36.523,36.523,0,0,0,27.594,47.236,1.75,1.75,0,0,0,29.344,48.986ZM65,41.25H63V38.441c.332-.031.663-.068,1-.068s.668.037,1,.068ZM64,14.59c5.913,3.526,9.24,9.553,9.893,17.929a1.75,1.75,0,1,0,3.489-.272c-.567-7.27-3.073-13.154-7.317-17.349a33.007,33.007,0,0,1,25.7,23.749,14.38,14.38,0,0,0-20.747,1.39,14.394,14.394,0,0,0-7.886-4.814c-.034-.008-.069-.012-.1-.017a14.079,14.079,0,0,0-6.094,0c-.02,0-.041.006-.061.01a14.386,14.386,0,0,0-6.739,3.589C53.6,32.521,54.057,20.535,64,14.59Z" style="fill:#630000"/><path d="M44.836,20.106a1.744,1.744,0,0,0,.969-.294l.413-.271A1.75,1.75,0,0,0,44.325,16.6l-.461.3a1.75,1.75,0,0,0,.972,3.206Z" style="fill:#630000"/><path d="M92.75,76.676a1.75,1.75,0,0,0,0,3.5h1a1.75,1.75,0,0,0,0-3.5Z" style="fill:#630000"/></svg>