<svg id="Layer_1" data-name="Layer 1" xmlns="http://www.w3.org/2000/svg" viewBox="0 0 128 128"><title>WATERFALL</title><rect x="12.579" y="35.748" width="102.841" height="40.25" style="fill:#fecec0"/><rect x="62.25" y="35.748" width="53.171" height="40.25" style="fill:#febfad"/><polygon points="81.625 78.748 46.375 78.748 49.375 32.581 78.625 32.581 81.625 78.748" style="fill:#1997fc"/><path d="M68.125,46.875C57.429,53.511,59,64.861,64,70.743c1.563,1.839,1.286,5.057,1.25,8H81.625l-3-46.167H74.861S78.821,40.239,68.125,46.875Z" style="fill:#0048d5"/><path d="M30.162,43.915h0a7.25,7.25,0,0,1,7.25,7.25V76.748a0,0,0,0,1,0,0h-14.5a0,0,0,0,1,0,0V51.165A7.25,7.25,0,0,1,30.162,43.915Z" style="fill:#b95d4f"/><path d="M97.838,43.915h0a7.25,7.25,0,0,1,7.25,7.25V76.748a0,0,0,0,1,0,0h-14.5a0,0,0,0,1,0,0V51.165A7.25,7.25,0,0,1,97.838,43.915Z" style="fill:#a24f41"/><path d="M12.579,65.827a9.688,9.688,0,0,0,18.04,4.916,9.676,9.676,0,0,0,16.69,0,9.676,9.676,0,0,0,16.69,0,9.676,9.676,0,0,0,16.69,0,9.676,9.676,0,0,0,16.69,0,9.688,9.688,0,0,0,18.04-4.916v45.342H12.579Z" style="fill:#7be2f6"/><path d="M12.579,79.913a9.688,9.688,0,0,0,18.04,4.916,9.676,9.676,0,0,0,16.69,0,9.676,9.676,0,0,0,16.69,0,9.676,9.676,0,0,0,16.69,0,9.676,9.676,0,0,0,16.69,0,9.688,9.688,0,0,0,18.04-4.916v31.256H12.579Z" style="fill:#51baea"/><path d="M12.579,93.258a9.688,9.688,0,0,0,18.04,4.916,9.676,9.676,0,0,0,16.69,0,9.676,9.676,0,0,0,16.69,0,9.676,9.676,0,0,0,16.69,0,9.676,9.676,0,0,0,16.69,0,9.688,9.688,0,0,0,18.04-4.916v17.911H12.579Z" style="fill:#1997fc"/><path d="M64,38.623a1.75,1.75,0,0,0-1.75,1.75v9.5a1.75,1.75,0,1,0,3.5,0v-9.5A1.75,1.75,0,0,0,64,38.623Z" style="fill:#fff"/><path d="M64,53.915a1.75,1.75,0,0,0-1.75,1.75v5.083a1.75,1.75,0,1,0,3.5,0V55.665A1.75,1.75,0,0,0,64,53.915Z" style="fill:#fff"/><path d="M73.232,40.262a1.75,1.75,0,0,0-3.492.223l1.625,25.454a1.75,1.75,0,0,0,1.744,1.639c.038,0,.075,0,.113,0a1.749,1.749,0,0,0,1.635-1.857Z" style="fill:#fff"/><path d="M56.055,47.564A1.74,1.74,0,0,0,54.2,49.2L53.143,65.716a1.749,1.749,0,0,0,1.635,1.857c.038,0,.076,0,.113,0a1.75,1.75,0,0,0,1.745-1.639L57.69,49.422A1.749,1.749,0,0,0,56.055,47.564Z" style="fill:#fff"/><path d="M56.626,38.627a1.738,1.738,0,0,0-1.858,1.635l-.247,3.859a1.75,1.75,0,0,0,1.635,1.857c.038,0,.076,0,.113,0a1.751,1.751,0,0,0,1.745-1.639l.247-3.859A1.75,1.75,0,0,0,56.626,38.627Z" style="fill:#fff"/><rect x="12.579" y="18.581" width="33.796" height="5.167" style="fill:#fc3e81"/><rect x="81.625" y="18.581" width="33.796" height="5.167" style="fill:#e0176d"/><path d="M12.58,59.956a1.75,1.75,0,0,0,1.75-1.75V37.5H43.25a1.75,1.75,0,0,0,0-3.5H41.583V25.5h4.792a1.75,1.75,0,0,0,1.75-1.75V18.581a1.75,1.75,0,0,0-1.75-1.75H29.75a1.75,1.75,0,0,0,0,3.5H44.625V22H14.33V20.331h3.754a1.75,1.75,0,1,0,0-3.5h-5.5a1.75,1.75,0,0,0-1.75,1.75v5.167a1.75,1.75,0,0,0,1.75,1.75h3.754V34H12.58a1.75,1.75,0,0,0-1.75,1.75V58.206A1.75,1.75,0,0,0,12.58,59.956ZM38.083,34h-3.75V29.184a1.75,1.75,0,0,0-3.5,0V34h-3.75V25.5h11Zm-18.25-8.5h3.75V34h-3.75Z" style="fill:#630000"/><path d="M115.421,78.162a1.75,1.75,0,0,0-1.75,1.75,7.938,7.938,0,0,1-14.783,4.026,1.75,1.75,0,1,0-3.014,1.779,11.438,11.438,0,0,0,21.3-5.806A1.75,1.75,0,0,0,115.421,78.162Z" style="fill:#630000"/><path d="M90.953,91.166a1.753,1.753,0,0,0,.347-.034c.259-.052.514-.113.767-.183a1.75,1.75,0,1,0-.926-3.375q-.262.072-.53.126a1.75,1.75,0,0,0,.343,3.466Z" style="fill:#630000"/><path d="M22.274,91.357a11.485,11.485,0,0,0,8.345-3.631,11.406,11.406,0,0,0,16.69,0,11.406,11.406,0,0,0,16.69,0,11.406,11.406,0,0,0,16.687,0,11.421,11.421,0,0,0,4.756,3.051,1.75,1.75,0,0,0,1.1-3.322A7.96,7.96,0,0,1,82.2,83.939a1.75,1.75,0,0,0-3.014,0,7.927,7.927,0,0,1-13.677,0,1.75,1.75,0,0,0-3.014,0,7.927,7.927,0,0,1-13.677,0,1.75,1.75,0,0,0-3.014,0,7.927,7.927,0,0,1-13.677,0,1.75,1.75,0,0,0-3.014,0A7.938,7.938,0,0,1,14.33,79.912a1.75,1.75,0,0,0-3.5,0A11.457,11.457,0,0,0,22.274,91.357Z" style="fill:#630000"/><path d="M115.421,91.508a1.75,1.75,0,0,0-1.75,1.75,7.938,7.938,0,0,1-14.783,4.026,1.75,1.75,0,0,0-3.014,0,7.927,7.927,0,0,1-13.677,0,1.75,1.75,0,0,0-3.014,0,7.927,7.927,0,0,1-13.677,0,1.75,1.75,0,0,0-3.014,0,7.927,7.927,0,0,1-13.677,0,1.75,1.75,0,0,0-3.014,0,7.981,7.981,0,0,1-6.838,3.918,7.871,7.871,0,0,1-2.733-.484A1.75,1.75,0,0,0,35.02,104a11.366,11.366,0,0,0,3.945.7,11.485,11.485,0,0,0,8.345-3.631,11.406,11.406,0,0,0,16.69,0,11.406,11.406,0,0,0,16.69,0,11.406,11.406,0,0,0,16.69,0,11.433,11.433,0,0,0,19.79-7.813A1.75,1.75,0,0,0,115.421,91.508Z" style="fill:#630000"/><path d="M31.509,96.667a1.749,1.749,0,0,0-2.4.617A7.938,7.938,0,0,1,14.33,93.258a1.75,1.75,0,0,0-3.5,0,11.438,11.438,0,0,0,21.3,5.806A1.749,1.749,0,0,0,31.509,96.667Z" style="fill:#630000"/><path d="M23.625,20.331h.707a1.75,1.75,0,0,0,0-3.5h-.707a1.75,1.75,0,0,0,0,3.5Z" style="fill:#630000"/><path d="M115.421,25.5a1.75,1.75,0,0,0,1.75-1.75V18.581a1.75,1.75,0,0,0-1.75-1.75h-33.8a1.75,1.75,0,0,0-1.75,1.75v5.167a1.75,1.75,0,0,0,1.75,1.75h11V34h-3.75V29.184a1.75,1.75,0,0,0-3.5,0V34H80.471l-.1-1.53a1.749,1.749,0,0,0-1.746-1.637H49.375a1.75,1.75,0,0,0-1.746,1.637L45.521,64.9a1.75,1.75,0,1,0,3.492.227l2-30.791h25.97l2.3,35.392c-.032.045-.073.082-.1.13a7.926,7.926,0,0,1-13.677,0,1.75,1.75,0,0,0-3.014,0,7.926,7.926,0,0,1-13.677,0,1.75,1.75,0,0,0-3.014,0,7.978,7.978,0,0,1-6.641,3.906V51.164a9,9,0,1,0-18,0v22.52a7.951,7.951,0,0,1-6.833-7.858,1.75,1.75,0,0,0-3.5,0A11.458,11.458,0,0,0,22.274,77.272c.185,0,.368-.02.552-.029.029,0,.056.009.086.009a1.754,1.754,0,0,0,.274-.028,11.5,11.5,0,0,0,7.433-3.584,11.523,11.523,0,0,0,6.352,3.441,1.747,1.747,0,0,0,.321.051,11.227,11.227,0,0,0,1.672.14A11.483,11.483,0,0,0,47.31,73.64a11.4,11.4,0,0,0,16.69,0,11.406,11.406,0,0,0,16.69,0,11.485,11.485,0,0,0,8.345,3.631,11.234,11.234,0,0,0,1.639-.135,1.737,1.737,0,0,0,.367-.058,11.521,11.521,0,0,0,6.339-3.438,11.433,11.433,0,0,0,19.79-7.814V35.748a1.75,1.75,0,0,0-1.75-1.75h-4.792V25.5ZM32.126,69.853a1.75,1.75,0,0,0-3.014,0,7.993,7.993,0,0,1-4.45,3.53V51.164a5.5,5.5,0,1,1,11,0V73.027A7.988,7.988,0,0,1,32.126,69.853ZM83.375,20.331h30.3V22h-30.3ZM96.129,25.5h3.75V34h-3.75Zm17.542,40.328a7.938,7.938,0,0,1-14.783,4.026,1.75,1.75,0,0,0-3.014,0,7.987,7.987,0,0,1-3.536,3.174V51.164a5.5,5.5,0,1,1,11,0v15.77a1.75,1.75,0,0,0,3.5,0V51.164a9,9,0,1,0-18,0V73.759A7.97,7.97,0,0,1,82.862,70.8L80.7,37.5h32.973ZM107.129,34h-3.75V25.5h3.75Z" style="fill:#630000"/></svg>