<svg xmlns="http://www.w3.org/2000/svg" viewBox="0 0 256 256"><title>icons_</title><path d="M189.115,132.355a23.7,23.7,0,0,0-18.815-9.289H85.7a23.7,23.7,0,0,0-23.7,23.7v15.3H85.333v69.577h85.333V162.066H194v-15.3A23.7,23.7,0,0,0,189.115,132.355Z" fill="#63bce7"/><path d="M76.385,132.355A23.7,23.7,0,0,1,95.2,123.066H85.7a23.7,23.7,0,0,0-23.7,23.7v15.3h9.5v-15.3A23.7,23.7,0,0,1,76.385,132.355Z" fill="#6377e7"/><rect x="85.333" y="162.066" width="9.5" height="69.577" fill="#6377e7"/><path d="M179.615,132.355a23.7,23.7,0,0,0-18.815-9.289h9.5a23.7,23.7,0,0,1,23.7,23.7v15.3h-9.5v-15.3A23.7,23.7,0,0,0,179.615,132.355Z" fill="#63e2e7"/><rect x="161.167" y="162.066" width="9.5" height="69.577" fill="#63e2e7"/><circle cx="97" cy="75.307" r="8.375" fill="#f87023"/><circle cx="159" cy="75.307" r="8.375" fill="#f8af23"/><path d="M117.333,90.733h21.333a0,0,0,0,1,0,0V128.15A10.667,10.667,0,0,1,128,138.816h0a10.667,10.667,0,0,1-10.667-10.667V90.733A0,0,0,0,1,117.333,90.733Z" fill="#f8af23"/><path d="M117.333,90.733V128.15a10.664,10.664,0,0,0,7.75,10.253V90.733Z" fill="#f87023"/><rect x="97" y="32.176" width="62" height="80.117" rx="31" ry="31" fill="#f8af23"/><path d="M106.5,81.293V63.176a31.007,31.007,0,0,1,26.25-30.638,31.232,31.232,0,0,0-4.75-.362h0a31,31,0,0,0-31,31V81.293a31,31,0,0,0,31,31h0a31.232,31.232,0,0,0,4.75-.362A31.007,31.007,0,0,1,106.5,81.293Z" fill="#f87023"/><polygon points="153.5 63.053 155.75 75.307 159 75.307 159 54.066 153.5 54.066 153.5 63.053" fill="#9e9e9e"/><path d="M97,75.307h3.75l3.088-14.239a3.134,3.134,0,0,1,3.924-2.792l28.112,7.415c5.824,1.825,12.82-.753,17.874-4.174l7.144-4.835A11.056,11.056,0,0,0,164.3,42.046l-1.32-2.313A28.587,28.587,0,0,0,138.15,25.316H113.3a15.468,15.468,0,0,0-12.55,6.426L97,36.941l-1.191,1.287a17.688,17.688,0,0,0-4.143,16.439Z" fill="#9e9e9e"/><path d="M105.309,38.228l1.191-1.287,3.745-5.2a15.468,15.468,0,0,1,12.55-6.427h-9.5a15.468,15.468,0,0,0-12.55,6.427L97,36.941l-1.191,1.287a17.688,17.688,0,0,0-4.143,16.439L97,75.307h3.75l2.624-12.1-2.207-8.542A17.688,17.688,0,0,1,105.309,38.228Z" fill="#707070"/><rect x="66.333" y="162.066" width="19" height="69.577" fill="#f8af23"/><rect x="66.333" y="162.066" width="9.5" height="69.577" fill="#f87023"/><rect x="170.667" y="162.066" width="19" height="69.577" fill="#f8af23"/><path d="M47.25,55.311a5,5,0,0,1-5-5V18.384a5,5,0,0,1,5-5H79.177a5,5,0,0,1,0,10H52.25V50.311A5,5,0,0,1,47.25,55.311Z" fill="#f46275"/><path d="M208.75,55.311a5,5,0,0,1-5-5V23.384H176.822a5,5,0,1,1,0-10H208.75a5,5,0,0,1,5,5V50.311A5,5,0,0,1,208.75,55.311Z" fill="#f46275"/><path d="M79.177,150.313H47.25a5,5,0,0,1-5-5V113.386a5,5,0,0,1,10,0v26.927H79.177a5,5,0,0,1,0,10Z" fill="#f46275"/><path d="M208.75,150.313H176.822a5,5,0,0,1,0-10H203.75V113.386a5,5,0,0,1,10,0v31.927A5,5,0,0,1,208.75,150.313Z" fill="#f46275"/><path d="M65.916,86.837H28.583a5,5,0,0,1,0-10H65.916a5,5,0,0,1,0,10Z" fill="#f46275"/><path d="M227.417,86.837H190.083a5,5,0,0,1,0-10h37.334a5,5,0,0,1,0,10Z" fill="#f46275"/><rect x="180.167" y="162.066" width="9.5" height="69.577" fill="#f8d323"/><path d="M47.25,56.812a6.508,6.508,0,0,0,6.5-6.5V24.884H79.178a6.5,6.5,0,0,0,0-13H47.25a6.508,6.508,0,0,0-6.5,6.5V50.312A6.508,6.508,0,0,0,47.25,56.812Zm-3.5-38.427a3.5,3.5,0,0,1,3.5-3.5H79.178a3.5,3.5,0,0,1,0,7H52.25a1.5,1.5,0,0,0-1.5,1.5V50.312a3.5,3.5,0,0,1-7,0Z" fill="#3f3679"/><path d="M176.822,24.884H202.25V50.312a6.5,6.5,0,0,0,13,0V18.384a6.508,6.508,0,0,0-6.5-6.5H176.822a6.5,6.5,0,0,0,0,13Zm0-10H208.75a3.5,3.5,0,0,1,3.5,3.5V50.312a3.5,3.5,0,0,1-7,0V23.384a1.5,1.5,0,0,0-1.5-1.5H176.822a3.5,3.5,0,0,1,0-7Z" fill="#3f3679"/><path d="M28.583,88.337H65.916a6.5,6.5,0,0,0,0-13H28.583a6.5,6.5,0,1,0,0,13Zm0-10H65.916a3.5,3.5,0,0,1,0,7H28.583a3.5,3.5,0,1,1,0-7Z" fill="#3f3679"/><path d="M183.583,81.837a6.508,6.508,0,0,0,6.5,6.5h37.334a6.5,6.5,0,0,0,0-13H190.083A6.508,6.508,0,0,0,183.583,81.837Zm47.334,0a3.5,3.5,0,0,1-3.5,3.5H190.083a3.5,3.5,0,0,1,0-7h37.334A3.5,3.5,0,0,1,230.917,81.837Z" fill="#3f3679"/><path d="M76.594,80.337a1.5,1.5,0,0,0,0,3h5a1.5,1.5,0,0,0,0-3Z" fill="#3f3679"/><path d="M122.844,80.337H112.531a1.5,1.5,0,0,0,0,3h10.313a1.5,1.5,0,0,0,0-3Z" fill="#3f3679"/><path d="M133.156,83.337h10.313a1.5,1.5,0,0,0,0-3H133.156a1.5,1.5,0,0,0,0,3Z" fill="#3f3679"/><path d="M174.406,80.337a1.5,1.5,0,0,0,0,3h5a1.5,1.5,0,0,0,0-3Z" fill="#3f3679"/><path d="M27.323,241.116h-18a1.5,1.5,0,1,0,0,3h18a1.5,1.5,0,0,0,0-3Z" fill="#3f3679"/><path d="M246.68,241.116h-18a1.5,1.5,0,0,0,0,3h18a1.5,1.5,0,0,0,0-3Z" fill="#3f3679"/><path d="M218.479,241.116H37.521a1.5,1.5,0,0,0,0,3H218.479a1.5,1.5,0,0,0,0-3Z" fill="#3f3679"/><path d="M9.32,233.143H246.68a1.5,1.5,0,0,0,0-3H191.167V163.566H194a1.5,1.5,0,0,0,1.5-1.5V151.813h13.25a6.508,6.508,0,0,0,6.5-6.5V113.386a6.5,6.5,0,1,0-13,0v25.427h-8.061A25.1,25.1,0,0,0,170.3,121.566H140.167V111.421a32.576,32.576,0,0,0,20.1-26.33,9.87,9.87,0,0,0,.229-19.545V58.76l1.234-.835A12.612,12.612,0,0,0,165.6,41.3l-1.319-2.313A30.151,30.151,0,0,0,138.15,23.816H113.3a17.011,17.011,0,0,0-13.768,7.049L95.836,35.99l-1.128,1.219a19.107,19.107,0,0,0-4.494,17.833l2.892,11.193A9.87,9.87,0,0,0,95.73,85.1a32.577,32.577,0,0,0,20.1,26.325v10.145H85.7a25.352,25.352,0,0,0-20.006,9.876,25.07,25.07,0,0,0-3.879,7.37H53.75V113.386a6.5,6.5,0,1,0-13,0v31.927a6.508,6.508,0,0,0,6.5,6.5H60.5v10.253a1.5,1.5,0,0,0,1.5,1.5h2.833v66.577H9.32a1.5,1.5,0,1,0,0,3Zm178.847-3h-16V163.566h16Zm15.583-88.33a1.5,1.5,0,0,0,1.5-1.5V113.386a3.5,3.5,0,1,1,7,0v31.927a3.5,3.5,0,0,1-3.5,3.5H176.822a3.5,3.5,0,0,1,0-7ZM165.875,75.307a6.85,6.85,0,0,1-2.2,5.03H160.5V68.6A6.872,6.872,0,0,1,165.875,75.307ZM157.5,70.25v3.557H157l-2-10.891v-.434l2.5-1.692Zm-60.589-31L98.1,37.96a1.613,1.613,0,0,0,.116-.142l3.745-5.2a14,14,0,0,1,11.333-5.8H138.15a27.145,27.145,0,0,1,23.525,13.66L163,42.79a9.6,9.6,0,0,1-2.942,12.65l-7.145,4.835c-5.806,3.929-12.007,5.418-16.65,3.966l-28.112-7.416a4.634,4.634,0,0,0-5.793,4.015L99.541,73.807H98.162L93.119,54.292A16.12,16.12,0,0,1,96.911,39.247ZM93.871,69.194,95.5,75.5v4.84H92.312a6.849,6.849,0,0,1-2.187-5.03A6.927,6.927,0,0,1,93.871,69.194Zm4.708,14.143h3.64a1.5,1.5,0,0,0,0-3H98.5v-3.53h2.25a1.5,1.5,0,0,0,1.466-1.182l3.088-14.24a1.5,1.5,0,0,0,.03-.2,1.634,1.634,0,0,1,2.046-1.456l28.047,7.4c4.786,1.5,10.9.419,16.766-2.881l2.082,11.337a1.5,1.5,0,0,0,1.476,1.229h1.75v3.53h-3.719a1.5,1.5,0,0,0,0,3h3.64a29.492,29.492,0,0,1-58.842,0ZM128,113.793a32.388,32.388,0,0,0,9.167-1.325V128.15a9.167,9.167,0,0,1-18.333,0V112.468A32.388,32.388,0,0,0,128,113.793Zm-84.25,31.52V113.386a3.5,3.5,0,1,1,7,0v26.927a1.5,1.5,0,0,0,1.5,1.5H79.178a3.5,3.5,0,0,1,0,7H47.25A3.5,3.5,0,0,1,43.75,145.313Zm19.75,6.5H79.178a6.5,6.5,0,0,0,0-13H64.983a22.1,22.1,0,0,1,3.093-5.546,22.333,22.333,0,0,1,17.625-8.7h30.133v3.583a12.167,12.167,0,0,0,24.333,0v-3.583H170.3a22.127,22.127,0,0,1,20.713,14.247h-14.19a6.5,6.5,0,0,0,0,13H192.5v8.753H170.667a1.5,1.5,0,0,0-1.5,1.5v68.077H86.833V162.066a1.5,1.5,0,0,0-1.5-1.5H63.5Zm4.333,11.753h16v66.577h-16Z" fill="#3f3679"/></svg>