<svg xmlns="http://www.w3.org/2000/svg" viewBox="0 0 256 256"><title>icons_</title><rect x="74.273" y="58.753" width="107.454" height="36.64" rx="4.919" ry="4.919" fill="#9e9e9e"/><rect x="74.273" y="95.393" width="107.454" height="36.64" rx="4.919" ry="4.919" fill="#9e9e9e"/><rect x="74.273" y="22.112" width="107.454" height="36.64" rx="4.919" ry="4.919" fill="#9e9e9e"/><path d="M83.773,53.834v-26.8a4.919,4.919,0,0,1,4.919-4.919h-9.5a4.919,4.919,0,0,0-4.919,4.919v26.8a4.919,4.919,0,0,0,4.919,4.919h9.5A4.919,4.919,0,0,1,83.773,53.834Z" fill="#707070"/><path d="M83.773,90.474v-26.8a4.919,4.919,0,0,1,4.919-4.919h-9.5a4.919,4.919,0,0,0-4.919,4.919v26.8a4.919,4.919,0,0,0,4.919,4.919h9.5A4.919,4.919,0,0,1,83.773,90.474Z" fill="#707070"/><path d="M83.773,127.115v-26.8a4.919,4.919,0,0,1,4.919-4.919h-9.5a4.919,4.919,0,0,0-4.919,4.919v26.8a4.919,4.919,0,0,0,4.919,4.919h9.5A4.919,4.919,0,0,1,83.773,127.115Z" fill="#707070"/><rect x="85.383" y="36.487" width="56.99" height="7.891" rx="2.265" ry="2.265" fill="#f8af23"/><rect x="85.383" y="73.127" width="56.99" height="7.891" rx="2.265" ry="2.265" fill="#f8af23"/><rect x="85.383" y="109.768" width="56.99" height="7.891" rx="2.265" ry="2.265" fill="#f8af23"/><rect x="159.178" y="36.487" width="7.891" height="7.891" rx="2.265" ry="2.265" fill="#f8af23"/><rect x="159.178" y="73.127" width="7.891" height="7.891" rx="2.265" ry="2.265" fill="#f8af23"/><rect x="159.178" y="109.768" width="7.891" height="7.891" rx="2.265" ry="2.265" fill="#f8af23"/><rect x="13.275" y="201.876" width="61.7" height="21.039" rx="4.919" ry="4.919" transform="translate(88.249 424.791) rotate(-180)" fill="#63bce7"/><path d="M18.193,201.876h9.5a4.919,4.919,0,0,0-4.919,4.919V218a4.919,4.919,0,0,0,4.919,4.919h-9.5A4.919,4.919,0,0,1,13.275,218v-11.2A4.919,4.919,0,0,1,18.193,201.876Z" fill="#6377e7"/><rect x="181.026" y="201.876" width="61.7" height="21.039" rx="4.919" ry="4.919" fill="#f46275"/><path d="M237.807,201.876h-9.5a4.919,4.919,0,0,1,4.919,4.919V218a4.919,4.919,0,0,1-4.919,4.919h9.5A4.919,4.919,0,0,0,242.725,218v-11.2A4.919,4.919,0,0,0,237.807,201.876Z" fill="#f48875"/><rect x="97.15" y="201.876" width="61.7" height="21.039" rx="4.919" ry="4.919" fill="#63bce7"/><path d="M190.5,184.407l18.2-31.061a3.689,3.689,0,0,1,6.365,0l18.2,31.061a3.689,3.689,0,0,1-3.183,5.553H193.68A3.689,3.689,0,0,1,190.5,184.407Z" fill="#f8af23"/><path d="M214.511,161.635l-.473,11.02a1.566,1.566,0,0,1-1.565,1.5h-1.194a1.566,1.566,0,0,1-1.565-1.5l-.473-11.02A1.566,1.566,0,0,1,210.805,160h2.14A1.566,1.566,0,0,1,214.511,161.635Zm-.045,16.461v1.816a1.566,1.566,0,0,1-1.566,1.566H210.88a1.566,1.566,0,0,1-1.566-1.566V178.1a1.566,1.566,0,0,1,1.566-1.566H212.9A1.566,1.566,0,0,1,214.466,178.1Z" fill="#3f3679"/><rect x="195.514" y="208.787" width="32.724" height="7.217" rx="2.265" ry="2.265" fill="#f8af23"/><rect x="111.638" y="208.787" width="32.724" height="7.217" rx="2.265" ry="2.265" fill="#f8af23"/><rect x="27.763" y="208.787" width="32.724" height="7.217" rx="2.265" ry="2.265" fill="#f8af23"/><path d="M140.107,34.987H87.648a3.77,3.77,0,0,0-3.766,3.766v3.36a3.77,3.77,0,0,0,3.766,3.766h52.459a3.77,3.77,0,0,0,3.766-3.766v-3.36A3.77,3.77,0,0,0,140.107,34.987Zm.766,7.125a.776.776,0,0,1-.766.766H87.648a.776.776,0,0,1-.766-.766v-3.36a.776.776,0,0,1,.766-.766h52.459a.776.776,0,0,1,.766.766Z" fill="#3f3679"/><path d="M140.107,71.627H87.648a3.77,3.77,0,0,0-3.766,3.765v3.36a3.77,3.77,0,0,0,3.766,3.765h52.459a3.77,3.77,0,0,0,3.766-3.765v-3.36A3.77,3.77,0,0,0,140.107,71.627Zm.766,7.125a.776.776,0,0,1-.766.765H87.648a.776.776,0,0,1-.766-.765v-3.36a.776.776,0,0,1,.766-.765h52.459a.776.776,0,0,1,.766.765Z" fill="#3f3679"/><path d="M140.107,108.268H87.648a3.77,3.77,0,0,0-3.766,3.766v3.36a3.77,3.77,0,0,0,3.766,3.766h52.459a3.77,3.77,0,0,0,3.766-3.766v-3.36A3.77,3.77,0,0,0,140.107,108.268Zm.766,7.125a.776.776,0,0,1-.766.766H87.648a.776.776,0,0,1-.766-.766v-3.36a.776.776,0,0,1,.766-.766h52.459a.776.776,0,0,1,.766.766Z" fill="#3f3679"/><path d="M164.8,34.987h-3.36a3.77,3.77,0,0,0-3.766,3.766v3.36a3.77,3.77,0,0,0,3.766,3.766h3.36a3.77,3.77,0,0,0,3.766-3.766v-3.36A3.77,3.77,0,0,0,164.8,34.987Zm.766,7.125a.776.776,0,0,1-.766.766h-3.36a.776.776,0,0,1-.766-.766v-3.36a.776.776,0,0,1,.766-.766h3.36a.776.776,0,0,1,.766.766Z" fill="#3f3679"/><path d="M164.8,71.627h-3.36a3.77,3.77,0,0,0-3.766,3.765v3.36a3.77,3.77,0,0,0,3.766,3.765h3.36a3.77,3.77,0,0,0,3.766-3.765v-3.36A3.77,3.77,0,0,0,164.8,71.627Zm.766,7.125a.776.776,0,0,1-.766.765h-3.36a.776.776,0,0,1-.766-.765v-3.36a.776.776,0,0,1,.766-.765h3.36a.776.776,0,0,1,.766.765Z" fill="#3f3679"/><path d="M164.8,108.268h-3.36a3.77,3.77,0,0,0-3.766,3.766v3.36a3.77,3.77,0,0,0,3.766,3.766h3.36a3.77,3.77,0,0,0,3.766-3.766v-3.36A3.77,3.77,0,0,0,164.8,108.268Zm.766,7.125a.776.776,0,0,1-.766.766h-3.36a.776.776,0,0,1-.766-.766v-3.36a.776.776,0,0,1,.766-.766h3.36a.776.776,0,0,1,.766.766Z" fill="#3f3679"/><path d="M27.323,232.388h-18a1.5,1.5,0,0,0,0,3h18a1.5,1.5,0,1,0,0-3Z" fill="#3f3679"/><path d="M246.68,232.388h-18a1.5,1.5,0,0,0,0,3h18a1.5,1.5,0,0,0,0-3Z" fill="#3f3679"/><path d="M218.479,232.388H37.521a1.5,1.5,0,0,0,0,3H218.479a1.5,1.5,0,0,0,0-3Z" fill="#3f3679"/><path d="M9.32,224.415H246.68a1.5,1.5,0,0,0,0-3h-3.45a6.373,6.373,0,0,0,1-3.419v-11.2a6.426,6.426,0,0,0-6.419-6.419H213.376v-8.917h16.7a5.188,5.188,0,0,0,4.477-7.811l-18.2-31.062a5.188,5.188,0,0,0-8.953,0l-6.177,10.543a15.8,15.8,0,0,0-3.6-.421H129.5V133.534h47.309a6.426,6.426,0,0,0,6.418-6.419v-26.8a6.406,6.406,0,0,0-2.3-4.919,6.406,6.406,0,0,0,2.3-4.919v-26.8a6.406,6.406,0,0,0-2.3-4.919,6.406,6.406,0,0,0,2.3-4.918v-26.8a6.425,6.425,0,0,0-6.418-6.418H79.191a6.425,6.425,0,0,0-6.418,6.418v26.8a6.406,6.406,0,0,0,2.3,4.918,6.406,6.406,0,0,0-2.3,4.919v26.8a6.406,6.406,0,0,0,2.3,4.919,6.406,6.406,0,0,0-2.3,4.919v26.8a6.426,6.426,0,0,0,6.418,6.419H126.5v29.176H58.374a15.768,15.768,0,0,0-15.75,15.75v21.917H18.193a6.426,6.426,0,0,0-6.419,6.419V218a6.373,6.373,0,0,0,1,3.419H9.32a1.5,1.5,0,0,0,0,3ZM75.773,53.834v-26.8a3.422,3.422,0,0,1,3.418-3.418h97.617a3.422,3.422,0,0,1,3.418,3.418v26.8a3.422,3.422,0,0,1-3.418,3.418H79.191A3.422,3.422,0,0,1,75.773,53.834Zm0,36.64v-26.8a3.422,3.422,0,0,1,3.418-3.419h97.617a3.422,3.422,0,0,1,3.418,3.419v26.8a3.422,3.422,0,0,1-3.418,3.419H79.191A3.422,3.422,0,0,1,75.773,90.474Zm0,36.641v-26.8a3.422,3.422,0,0,1,3.418-3.418h97.617a3.422,3.422,0,0,1,3.418,3.418v26.8a3.422,3.422,0,0,1-3.418,3.419H79.191A3.422,3.422,0,0,1,75.773,127.115Zm.7,90.881v-4.1H95.65V218a6.373,6.373,0,0,0,1,3.419H75.479A6.373,6.373,0,0,0,76.475,218Zm25.595,3.419A3.423,3.423,0,0,1,98.65,218v-11.2a3.423,3.423,0,0,1,3.419-3.419h51.861a3.423,3.423,0,0,1,3.419,3.419V218a3.423,3.423,0,0,1-3.419,3.419ZM160.35,218v-4.1h19.176V218a6.373,6.373,0,0,0,1,3.419H159.354A6.373,6.373,0,0,0,160.35,218Zm80.876-11.2V218a3.423,3.423,0,0,1-3.419,3.419H185.944A3.423,3.423,0,0,1,182.525,218v-11.2a3.423,3.423,0,0,1,3.419-3.419h51.862A3.423,3.423,0,0,1,241.226,206.795ZM209.987,154.1a2.189,2.189,0,0,1,3.777,0l18.2,31.062a2.189,2.189,0,0,1-1.889,3.294H193.681a2.189,2.189,0,0,1-1.89-3.294Zm-12.361,11.606a12.861,12.861,0,0,1,1.992.16L189.2,183.648a5.188,5.188,0,0,0,4.478,7.811h16.7v8.917H185.944a6.426,6.426,0,0,0-6.419,6.419v4.1H160.35v-4.1a6.426,6.426,0,0,0-6.419-6.419H129.5V165.709Zm-152,12.75a12.765,12.765,0,0,1,12.75-12.75H126.5v34.667H102.069a6.426,6.426,0,0,0-6.419,6.419v4.1H76.475v-4.1a6.426,6.426,0,0,0-6.419-6.419H45.624ZM14.774,218v-11.2a3.423,3.423,0,0,1,3.419-3.419H70.056a3.423,3.423,0,0,1,3.419,3.419V218a3.423,3.423,0,0,1-3.419,3.419H18.193A3.423,3.423,0,0,1,14.774,218Z" fill="#3f3679"/><path d="M194.014,211.053v2.686a3.77,3.77,0,0,0,3.766,3.766h28.192a3.77,3.77,0,0,0,3.766-3.766v-2.686a3.77,3.77,0,0,0-3.766-3.766H197.779A3.77,3.77,0,0,0,194.014,211.053Zm32.724,0v2.686a.776.776,0,0,1-.766.766H197.779a.776.776,0,0,1-.766-.766v-2.686a.776.776,0,0,1,.766-.766h28.192A.776.776,0,0,1,226.737,211.053Z" fill="#3f3679"/><path d="M142.1,207.287H113.9a3.77,3.77,0,0,0-3.766,3.766v2.686A3.77,3.77,0,0,0,113.9,217.5H142.1a3.77,3.77,0,0,0,3.766-3.766v-2.686A3.77,3.77,0,0,0,142.1,207.287Zm.766,6.451a.776.776,0,0,1-.766.766H113.9a.776.776,0,0,1-.766-.766v-2.686a.776.776,0,0,1,.766-.766H142.1a.776.776,0,0,1,.766.766Z" fill="#3f3679"/><path d="M58.221,207.287H30.028a3.77,3.77,0,0,0-3.766,3.766v2.686a3.77,3.77,0,0,0,3.766,3.766H58.221a3.77,3.77,0,0,0,3.766-3.766v-2.686A3.77,3.77,0,0,0,58.221,207.287Zm.766,6.451a.776.776,0,0,1-.766.766H30.028a.776.776,0,0,1-.766-.766v-2.686a.776.776,0,0,1,.766-.766H58.221a.776.776,0,0,1,.766.766Z" fill="#3f3679"/></svg>