<svg xmlns="http://www.w3.org/2000/svg" viewBox="0 0 256 256"><title>icons_</title><rect x="175.212" y="198.096" width="50.685" height="32.25" transform="translate(401.109 428.442) rotate(-180)" fill="#63bce7"/><rect x="170.679" y="183.292" width="59.75" height="14.804" transform="translate(401.109 381.388) rotate(-180)" fill="#9e9e9e"/><path d="M207.3,114.586a10.843,10.843,0,0,1,15.122-.2l.073-.047V86.263a10.85,10.85,0,0,1,10.85-10.85h0a10.85,10.85,0,0,1,10.85,10.85v64.269a3,3,0,0,1-.864,2.107l-21.387,21.678a3,3,0,0,0-.864,2.107v6.868H180.029V143.1a3,3,0,0,1,.879-2.121Z" fill="#f8af23"/><path d="M48.7,114.586a10.843,10.843,0,0,0-15.122-.2l-.073-.047V86.263a10.85,10.85,0,0,0-10.85-10.85h0A10.85,10.85,0,0,0,11.8,86.263v64.269a3,3,0,0,0,.864,2.107l21.387,21.678a3,3,0,0,1,.864,2.107v6.868H75.971V143.1a3,3,0,0,0-.879-2.121Z" fill="#f8af23"/><path d="M43.556,174.317,22.169,152.639a3,3,0,0,1-.864-2.107V86.263a10.84,10.84,0,0,1,6.1-9.744,10.789,10.789,0,0,0-4.75-1.106h0A10.85,10.85,0,0,0,11.8,86.263v64.269a3,3,0,0,0,.864,2.107l21.387,21.678a3,3,0,0,1,.864,2.107v6.868h9.5v-6.868A3,3,0,0,0,43.556,174.317Z" fill="#f87023"/><path d="M212.444,174.317l21.387-21.678a3,3,0,0,0,.864-2.107V86.263a10.84,10.84,0,0,0-6.1-9.744,10.789,10.789,0,0,1,4.75-1.106h0a10.85,10.85,0,0,1,10.85,10.85v64.269a3,3,0,0,1-.864,2.107l-21.387,21.678a3,3,0,0,0-.864,2.107v6.868h-9.5v-6.868A3,3,0,0,1,212.444,174.317Z" fill="#f8d323"/><rect x="25.571" y="183.292" width="59.75" height="14.804" fill="#9e9e9e"/><rect x="25.571" y="183.292" width="9.5" height="14.804" fill="#707070"/><rect x="220.929" y="183.292" width="9.5" height="14.804" fill="#cecece"/><rect x="30.103" y="198.096" width="50.685" height="32.25" fill="#63bce7"/><rect x="30.103" y="198.096" width="9.5" height="32.25" fill="#6377e7"/><rect x="216.397" y="198.096" width="9.5" height="32.25" fill="#63e2e7"/><path d="M160.228,80.817a88.344,88.344,0,0,1-29.575,66.069,66.122,66.122,0,0,0,0-132.138A88.344,88.344,0,0,1,160.228,80.817Z" fill="#63bce7"/><path d="M95.772,80.817a88.344,88.344,0,0,1,29.575-66.069,66.122,66.122,0,0,0,0,132.138A88.344,88.344,0,0,1,95.772,80.817Z" fill="#63bce7"/><path d="M71.364,80.817a66.131,66.131,0,0,1,52.479-64.69q.745-.7,1.5-1.379a66.122,66.122,0,0,0,0,132.138q-.761-.68-1.5-1.379A66.131,66.131,0,0,1,71.364,80.817Z" fill="#6377e7"/><path d="M184.636,80.817a66.131,66.131,0,0,0-52.479-64.69q-.745-.7-1.5-1.379a66.122,66.122,0,0,1,0,132.138q.761-.68,1.5-1.379A66.131,66.131,0,0,0,184.636,80.817Z" fill="#63e2e7"/><path d="M125.347,14.748a88.584,88.584,0,0,0,0,132.138c.881.035,1.763.067,2.653.067s1.772-.032,2.653-.067a88.584,88.584,0,0,0,0-132.138c-.881-.035-1.763-.067-2.653-.067S126.228,14.713,125.347,14.748Z" fill="#63bce7"/><rect x="87.252" y="66.923" width="81.496" height="27.789" rx="4.919" ry="4.919" fill="#9e9e9e"/><rect x="101.144" y="77.041" width="43.02" height="7.552" rx="0.137" ry="0.137" fill="#f8af23"/><rect x="152.61" y="77.041" width="7.552" height="7.552" rx="0.476" ry="0.476" fill="#f8af23"/><path d="M63.954,192.194h9.375a1.5,1.5,0,1,0,0-3H63.954a1.5,1.5,0,0,0,0,3Z" fill="#3f3679"/><path d="M182.671,192.194h9.375a1.5,1.5,0,0,0,0-3h-9.375a1.5,1.5,0,0,0,0,3Z" fill="#3f3679"/><path d="M125.287,148.385h0c.9.035,1.8.068,2.71.068s1.809-.033,2.71-.068h0a67.622,67.622,0,0,0,0-135.136h0c-1.8-.07-3.621-.07-5.424,0h0a67.622,67.622,0,0,0,0,135.136ZM68.518,106.212h29.4a90.37,90.37,0,0,0,23.318,38.878A64.366,64.366,0,0,1,68.518,106.212ZM130.051,145.4c-1.365.043-2.736.043-4.1,0a87.353,87.353,0,0,1-24.9-39.186h53.9A87.375,87.375,0,0,1,130.051,145.4Zm33.779-76.976a3.423,3.423,0,0,1,3.419,3.419V89.793a3.423,3.423,0,0,1-3.419,3.419H92.171a3.423,3.423,0,0,1-3.419-3.419V71.841a3.423,3.423,0,0,1,3.419-3.419Zm-65.181-3q.632-3.538,1.554-7h55.6q.922,3.461,1.553,7Zm58.706,30.79q-.632,3.538-1.553,7H100.2q-.922-3.46-1.554-7Zm-22.591,48.879a90.392,90.392,0,0,0,23.32-38.878h29.4A64.366,64.366,0,0,1,134.763,145.091Zm53.9-41.878H158.9q.89-3.463,1.5-7h3.425a6.426,6.426,0,0,0,6.419-6.419V71.841a6.426,6.426,0,0,0-6.419-6.419h-3.422q-.609-3.535-1.5-7h29.76a65.176,65.176,0,0,1,0,44.791Zm-1.185-47.791h-29.4a90.431,90.431,0,0,0-23.325-38.878A64.366,64.366,0,0,1,187.482,55.422ZM125.95,16.236c1.365-.043,2.736-.043,4.1,0a87.417,87.417,0,0,1,24.9,39.186h-53.9A87.359,87.359,0,0,1,125.95,16.236Zm-4.712.307A90.392,90.392,0,0,0,97.919,55.422h-29.4A64.366,64.366,0,0,1,121.237,16.543Zm-53.9,41.878H97.1q-.89,3.463-1.5,7H92.171a6.426,6.426,0,0,0-6.419,6.419V89.793a6.426,6.426,0,0,0,6.419,6.419H95.6q.61,3.536,1.5,7H67.333a65.177,65.177,0,0,1,0-44.791Z" fill="#3f3679"/><path d="M101.282,86.093h42.745a1.639,1.639,0,0,0,1.637-1.638V77.179a1.639,1.639,0,0,0-1.637-1.637H101.282a1.639,1.639,0,0,0-1.638,1.637v7.277A1.639,1.639,0,0,0,101.282,86.093Zm1.362-7.552h40.02v4.552h-40.02Z" fill="#3f3679"/><path d="M153.086,86.093h6.6a1.978,1.978,0,0,0,1.976-1.976v-6.6a1.978,1.978,0,0,0-1.976-1.976h-6.6a1.978,1.978,0,0,0-1.977,1.976v6.6A1.978,1.978,0,0,0,153.086,86.093Zm1.023-7.552h4.552v4.552h-4.552Z" fill="#3f3679"/><path d="M27.323,239.819h-18a1.5,1.5,0,0,0,0,3h18a1.5,1.5,0,0,0,0-3Z" fill="#3f3679"/><path d="M246.68,239.819h-18a1.5,1.5,0,0,0,0,3h18a1.5,1.5,0,0,0,0-3Z" fill="#3f3679"/><path d="M218.479,239.819H37.521a1.5,1.5,0,0,0,0,3H218.479a1.5,1.5,0,0,0,0-3Z" fill="#3f3679"/><path d="M248.18,230.346a1.5,1.5,0,0,0-1.5-1.5H227.4V199.6h3.033a1.5,1.5,0,0,0,1.5-1.5v-14.8a1.5,1.5,0,0,0-1.5-1.5h-7.85v-5.368a1.493,1.493,0,0,1,.432-1.054L244.4,153.692a4.474,4.474,0,0,0,1.3-3.161V86.263a12.35,12.35,0,1,0-24.7,0v25.214a12.266,12.266,0,0,0-14.756,2.049l-26.393,26.392a4.473,4.473,0,0,0-1.317,3.182v38.692h-7.85a1.5,1.5,0,0,0-1.5,1.5v14.8a1.5,1.5,0,0,0,1.5,1.5h3.032v29.25H82.288V199.6H85.32a1.5,1.5,0,0,0,1.5-1.5v-14.8a1.5,1.5,0,0,0-1.5-1.5h-7.85V143.1a4.472,4.472,0,0,0-1.318-3.182L49.761,113.525A12.266,12.266,0,0,0,35,111.477V86.263a12.35,12.35,0,1,0-24.7,0v64.269a4.472,4.472,0,0,0,1.3,3.16l21.387,21.679a1.491,1.491,0,0,1,.432,1.053v5.368H25.57a1.5,1.5,0,0,0-1.5,1.5v14.8a1.5,1.5,0,0,0,1.5,1.5H28.6v29.25H9.32a1.5,1.5,0,0,0,0,3H246.68A1.5,1.5,0,0,0,248.18,230.346ZM181.529,143.1a1.493,1.493,0,0,1,.439-1.061l26.392-26.392a9.3,9.3,0,0,1,13.03-.172c.04.038.168.147.193.172a9.351,9.351,0,0,1,0,13.223L201.7,148.751a1.5,1.5,0,1,0,2.121,2.121l19.882-19.882a12.355,12.355,0,0,0,.29-17.144V86.263a9.35,9.35,0,1,1,18.7,0v64.269a1.493,1.493,0,0,1-.432,1.054l-21.387,21.678a4.474,4.474,0,0,0-1.3,3.161v5.368H181.529Zm-9.35,41.692h56.75v4.4H201.546a1.5,1.5,0,0,0,0,3H228.93v4.4H172.18ZM35.123,173.264,13.736,151.585a1.491,1.491,0,0,1-.432-1.053V86.263a9.35,9.35,0,1,1,18.7,0v27.584a12.355,12.355,0,0,0,.29,17.144l19.882,19.882a1.5,1.5,0,0,0,2.121-2.121L34.416,128.87a9.351,9.351,0,0,1,0-13.223c.023-.023.151-.132.193-.172a9.294,9.294,0,0,1,13.03.172L74.03,142.038a1.492,1.492,0,0,1,.44,1.062v38.692H36.42v-5.368A4.472,4.472,0,0,0,35.123,173.264Zm-8.053,18.93H54.454a1.5,1.5,0,0,0,0-3H27.07v-4.4H83.82v11.8H27.07ZM31.6,228.846V207.815H68.642a1.5,1.5,0,0,0,0-3H31.6V199.6H79.288v29.25Zm145.108,0V199.6H224.4v5.219H187.358a1.5,1.5,0,0,0,0,3H224.4v21.031Z" fill="#3f3679"/></svg>