<svg xmlns="http://www.w3.org/2000/svg" viewBox="0 0 256 256"><title>icons_</title><path d="M27.981,214.254a12.5,12.5,0,0,1-12.5-12.5V165.6a12.5,12.5,0,0,1,25,0v36.15A12.5,12.5,0,0,1,27.981,214.254Z" fill="#f8af23"/><path d="M162.894,158.787h-34.5a12.5,12.5,0,0,1,0-25h26.82l15.529-30.649a12.5,12.5,0,0,1,11.15-6.851h15.25a12.5,12.5,0,1,1,0,25h-7.57l-15.529,30.649A12.5,12.5,0,0,1,162.894,158.787Z" fill="#f8af23"/><path d="M197.144,96.287h-9.5a12.5,12.5,0,1,1,0,25h-7.57l-15.529,30.649a12.5,12.5,0,0,1-11.15,6.851h9.5a12.5,12.5,0,0,0,11.15-6.851l15.529-30.649h7.57a12.5,12.5,0,1,0,0-25Z" fill="#f8d323"/><path d="M150.9,126.6H36.788a23.7,23.7,0,0,0-23.7,23.7v15.3H36.421V235.18h85.333V165.6H150.9Z" fill="#63bce7"/><rect x="112.254" y="165.604" width="9.5" height="69.577" fill="#63e2e7"/><rect x="141.398" y="126.604" width="9.5" height="39" fill="#63e2e7"/><rect x="36.421" y="165.604" width="9.5" height="69.577" fill="#6377e7"/><path d="M27.473,135.893A23.7,23.7,0,0,1,46.288,126.6h-9.5a23.7,23.7,0,0,0-23.7,23.7v15.3h9.5V150.3A23.7,23.7,0,0,1,27.473,135.893Z" fill="#6377e7"/><circle cx="110.088" cy="78.844" r="8.375" fill="#f8af23"/><circle cx="48.088" cy="78.844" r="8.375" fill="#f87023"/><path d="M68.421,94.27H89.754a0,0,0,0,1,0,0v37.417a10.667,10.667,0,0,1-10.667,10.667h0a10.667,10.667,0,0,1-10.667-10.667V94.27A0,0,0,0,1,68.421,94.27Z" fill="#f8af23"/><path d="M68.421,94.27v37.417a10.664,10.664,0,0,0,7.75,10.253V94.27Z" fill="#f87023"/><rect x="48.088" y="35.713" width="62" height="80.117" rx="31" ry="31" fill="#f8af23"/><path d="M57.588,84.83V66.713a31.007,31.007,0,0,1,26.25-30.638,31.232,31.232,0,0,0-4.75-.362h0a31,31,0,0,0-31,31V84.83a31,31,0,0,0,31,31h0a31.232,31.232,0,0,0,4.75-.362A31.007,31.007,0,0,1,57.588,84.83Z" fill="#f87023"/><polygon points="104.588 66.591 106.838 78.844 110.088 78.844 110.088 57.604 104.588 57.604 104.588 66.591" fill="#9e9e9e"/><path d="M48.088,78.844h3.75L54.926,64.6a3.134,3.134,0,0,1,3.924-2.792l28.112,7.415c5.824,1.825,12.82-.753,17.874-4.174l7.144-4.835a11.056,11.056,0,0,0,3.405-14.636l-1.32-2.313A28.587,28.587,0,0,0,89.238,28.854H64.383a15.468,15.468,0,0,0-12.55,6.426l-3.745,5.2L46.9,41.765A17.688,17.688,0,0,0,42.754,58.2Z" fill="#9e9e9e"/><path d="M56.4,41.765l1.191-1.287,3.745-5.2a15.468,15.468,0,0,1,12.55-6.427h-9.5a15.468,15.468,0,0,0-12.55,6.427l-3.745,5.2L46.9,41.765A17.688,17.688,0,0,0,42.754,58.2l5.334,20.64h3.75l2.624-12.1L52.254,58.2A17.688,17.688,0,0,1,56.4,41.765Z" fill="#707070"/><polygon points="68.421 121.704 79.088 142.354 69.754 151.204 59.921 126.604 68.421 121.704" fill="#f46275"/><polygon points="89.754 121.704 79.088 142.354 88.421 151.204 98.254 126.604 89.754 121.704" fill="#f46275"/><circle cx="69.504" cy="82.33" r="3.486" fill="#3f3679"/><circle cx="92.157" cy="82.33" r="3.486" fill="#3f3679"/><path d="M27.992,214.255a12.5,12.5,0,0,1-6.532-23.167l57.7-35.281a12.5,12.5,0,1,1,13.041,21.329L34.5,212.418A12.445,12.445,0,0,1,27.992,214.255Z" fill="#f8af23"/><path d="M15.481,165.6v36.15a12.49,12.49,0,0,0,17.247,11.559,12.5,12.5,0,0,1-7.747-11.559V165.6Z" fill="#f87023"/><path d="M198.836,32.48c-.137.381-.291.749-.461,1.112l3.419,3.419-6.722,6.722-3.419-3.419c-.363.169-.734.324-1.112.461v4.837h-9.5V40.775c-.378-.137-.749-.292-1.112-.461l-3.419,3.419-6.722-6.722,3.419-3.419c-.169-.363-.324-.731-.461-1.112h-4.837v-9.5h4.837c.137-.378.291-.749.461-1.112l-3.419-3.419,6.722-6.722,3.419,3.422c.363-.169.734-.327,1.112-.464V9.848h9.5v4.833c.378.137.749.3,1.112.464l3.419-3.422,6.722,6.722-3.419,3.419c.169.363.324.734.461,1.112h4.833v9.5Z" fill="#63bce7"/><circle cx="185.789" cy="27.729" r="6.052" fill="#f46275"/><path d="M159.6,71.72c-.137.381-.291.749-.461,1.112l3.419,3.419-6.722,6.722-3.419-3.419c-.363.169-.734.324-1.112.461v4.837h-9.5V80.015c-.378-.137-.749-.292-1.112-.461l-3.419,3.419-6.722-6.722,3.419-3.419c-.169-.363-.324-.731-.461-1.112h-4.837v-9.5H133.5c.137-.378.291-.749.461-1.112l-3.419-3.419,6.722-6.722,3.419,3.422c.363-.169.734-.327,1.112-.464V49.088h9.5v4.833c.378.137.749.3,1.112.464l3.419-3.422,6.722,6.722L159.136,61.1c.169.363.324.734.461,1.112h4.833v9.5Z" fill="#f46275"/><circle cx="146.55" cy="66.969" r="6.052" fill="#f8af23"/><path d="M238.078,71.72c-.137.381-.291.749-.461,1.112l3.419,3.419-6.722,6.722-3.419-3.419c-.363.169-.734.324-1.112.461v4.837h-9.5V80.015c-.378-.137-.749-.292-1.112-.461l-3.419,3.419-6.722-6.722,3.419-3.419c-.169-.363-.324-.731-.461-1.112h-4.837v-9.5h4.837c.137-.378.291-.749.461-1.112l-3.419-3.419,6.722-6.722,3.419,3.422c.363-.169.734-.327,1.112-.464V49.088h9.5v4.833c.378.137.749.3,1.112.464l3.419-3.422,6.722,6.722L237.617,61.1c.169.363.324.734.461,1.112h4.833v9.5Z" fill="#9e9e9e"/><circle cx="225.03" cy="66.969" r="6.052" fill="#63bce7"/><path d="M27.323,244.653h-18a1.5,1.5,0,0,0,0,3h18a1.5,1.5,0,1,0,0-3Z" fill="#3f3679"/><path d="M246.68,244.653h-18a1.5,1.5,0,0,0,0,3h18a1.5,1.5,0,0,0,0-3Z" fill="#3f3679"/><path d="M218.479,244.653H37.521a1.5,1.5,0,0,0,0,3H218.479a1.5,1.5,0,0,0,0-3Z" fill="#3f3679"/><path d="M9.32,236.68H246.68a1.5,1.5,0,0,0,0-3H123.254V167.1H150.9a1.5,1.5,0,0,0,1.5-1.5v-5.316h10.5a13.933,13.933,0,0,0,12.488-7.673L190.5,122.788h6.648a14,14,0,0,0,0-28h-15.25a13.933,13.933,0,0,0-12.488,7.673l-15.113,29.827H152.4V126.6a1.5,1.5,0,0,0-1.5-1.5H98.655l-7.4-4.266v-5.879a32.576,32.576,0,0,0,20.1-26.332,9.865,9.865,0,0,0,.229-19.535V62.3l1.233-.835a12.613,12.613,0,0,0,3.867-16.622l-1.32-2.313a30.148,30.148,0,0,0-26.13-15.173H64.383A17.008,17.008,0,0,0,50.616,34.4l-3.691,5.125L45.8,40.746A19.109,19.109,0,0,0,41.3,58.58l2.893,11.2a9.866,9.866,0,0,0,2.622,18.855,32.576,32.576,0,0,0,20.1,26.328v5.879l-7.4,4.266H36.788a25.2,25.2,0,0,0-25.2,25.2v15.3a1.5,1.5,0,0,0,1.5,1.5h.893v34.649a13.972,13.972,0,0,0,20.94,12.138V233.68H9.32a1.5,1.5,0,0,0,0,3ZM155.214,135.288a1.5,1.5,0,0,0,1.338-.822l15.529-30.649a10.948,10.948,0,0,1,9.813-6.028h15.25a11,11,0,0,1,0,22h-7.57a1.5,1.5,0,0,0-1.338.822l-15.529,30.649a10.948,10.948,0,0,1-9.812,6.028H152.4v-22Zm-64.848-11.5,6.013,3.466-8.53,21.34-6.911-6.553Zm26.6-44.944a6.907,6.907,0,0,1-5.393,6.707c.005-.24.018-.479.018-.721V72.142A6.906,6.906,0,0,1,116.963,78.844Zm-8.375-12.131V77.344h-.5l-2-10.891V66.02l2.5-1.692ZM48,42.784s1.271-1.379,1.307-1.428l3.745-5.2a14,14,0,0,1,11.333-5.8H89.238a27.142,27.142,0,0,1,23.524,13.66l1.32,2.313a9.6,9.6,0,0,1-2.943,12.65L104,63.813c-5.806,3.929-12.007,5.418-16.65,3.966L59.233,60.363a4.634,4.634,0,0,0-5.793,4.015L50.628,77.344H49.25L44.206,57.83A16.122,16.122,0,0,1,48,42.784Zm-6.785,36.06a6.918,6.918,0,0,1,3.746-6.111l1.629,6.3v5.8c0,.243.013.482.018.723A6.863,6.863,0,0,1,41.213,78.844Zm8.375,5.986V80.344h2.25A1.5,1.5,0,0,0,53.3,79.162l3.088-14.239a1.574,1.574,0,0,0,.03-.2,1.629,1.629,0,0,1,.682-1.207,1.612,1.612,0,0,1,1.364-.249l28.047,7.4c4.786,1.5,10.9.418,16.766-2.881l2.082,11.336a1.5,1.5,0,0,0,1.476,1.229h1.75V84.83a29.5,29.5,0,0,1-59,0Zm29.5,32.5a32.384,32.384,0,0,0,9.166-1.325v5.333l-9.166,17.746-9.167-17.746v-5.334A32.39,32.39,0,0,0,79.088,117.33ZM67.81,123.788l9.429,18.253-6.912,6.553-8.53-21.34Zm-34.1,87.34a10.981,10.981,0,0,1-16.729-9.375V167.1h17.94v14l-6.708,4.1a1.5,1.5,0,0,0,1.564,2.56l50.169-30.674a11,11,0,0,1,11.477,18.77L33.886,211.036A1.513,1.513,0,0,0,33.71,211.128Zm4.211.957,55.066-33.668a14,14,0,1,0-14.605-23.889L37.921,179.267V165.6a1.5,1.5,0,0,0-1.5-1.5H14.588V150.3a22.2,22.2,0,0,1,22.2-22.2H58.905l9.456,23.657a1.5,1.5,0,0,0,2.425.532l8.3-7.871,8.3,7.871a1.5,1.5,0,0,0,2.425-.532L99.269,128.1H149.4v36H121.754a1.5,1.5,0,0,0-1.5,1.5V233.68H37.921Z" fill="#3f3679"/><path d="M81.272,98.288a1.5,1.5,0,0,0,1.5-1.5V88.663a1.5,1.5,0,1,0-3,0v8.125A1.5,1.5,0,0,0,81.272,98.288Z" fill="#3f3679"/><path d="M76.963,74.621a1.5,1.5,0,0,0-1.5-1.5H63.546a1.5,1.5,0,0,0,0,3H75.463A1.5,1.5,0,0,0,76.963,74.621Z" fill="#3f3679"/><path d="M86.2,76.121H98.115a1.5,1.5,0,0,0,0-3H86.2a1.5,1.5,0,0,0,0,3Z" fill="#3f3679"/><path d="M89.723,101.455a1.5,1.5,0,0,0-2.687-1.335,6.424,6.424,0,0,1-11.524,0,1.5,1.5,0,1,0-2.687,1.334,9.425,9.425,0,0,0,16.9,0Z" fill="#3f3679"/><path d="M185.789,35.281a7.552,7.552,0,1,0-7.552-7.553A7.561,7.561,0,0,0,185.789,35.281Zm0-12.1a4.552,4.552,0,1,1-4.552,4.552A4.557,4.557,0,0,1,185.789,23.176Z" fill="#3f3679"/><path d="M128.668,73.221h2.786l-1.97,1.971a1.5,1.5,0,0,0,0,2.121l6.721,6.721a1.5,1.5,0,0,0,2.121,0l1.971-1.97v2.787a1.5,1.5,0,0,0,1.5,1.5H151.3a1.5,1.5,0,0,0,1.5-1.5V82.064l1.97,1.97a1.5,1.5,0,0,0,2.121,0l6.722-6.721a1.5,1.5,0,0,0,0-2.121l-1.97-1.971h2.786a1.5,1.5,0,0,0,1.5-1.5V62.216a1.5,1.5,0,0,0-1.5-1.5h-2.786l1.97-1.971a1.5,1.5,0,0,0,0-2.121l-2.3-2.3,11.829-11.83,2.3,2.3a1.5,1.5,0,0,0,2.121,0l1.971-1.97v2.787a1.5,1.5,0,0,0,1.5,1.5h9.506a1.5,1.5,0,0,0,1.5-1.5V42.824l1.971,1.97a1.5,1.5,0,0,0,2.121,0l2.3-2.3,11.83,11.83-2.3,2.3a1.5,1.5,0,0,0,0,2.121l1.97,1.971h-2.786a1.5,1.5,0,0,0-1.5,1.5v9.505a1.5,1.5,0,0,0,1.5,1.5h2.786l-1.97,1.971a1.5,1.5,0,0,0,0,2.121l6.722,6.721a1.544,1.544,0,0,0,2.121,0l1.97-1.97v2.786a1.5,1.5,0,0,0,1.5,1.5h9.506a1.5,1.5,0,0,0,1.5-1.5V82.064l1.971,1.97a1.5,1.5,0,0,0,2.121,0l6.721-6.721a1.5,1.5,0,0,0,0-2.121l-1.97-1.971h2.786a1.5,1.5,0,0,0,1.5-1.5V62.216a1.5,1.5,0,0,0-1.5-1.5h-2.786l1.97-1.971a1.5,1.5,0,0,0,0-2.121L235.375,49.9a1.5,1.5,0,0,0-2.121,0l-1.971,1.97V49.086a1.5,1.5,0,0,0-1.5-1.5h-9.506a1.5,1.5,0,0,0-1.5,1.5v2.786l-1.97-1.97a1.5,1.5,0,0,0-2.121,0l-2.3,2.3L200.555,40.373l2.3-2.3a1.5,1.5,0,0,0,0-2.121l-1.97-1.971h2.786a1.5,1.5,0,0,0,1.5-1.5V22.976a1.5,1.5,0,0,0-1.5-1.5h-2.786l1.97-1.971a1.5,1.5,0,0,0,0-2.121l-6.721-6.721a1.5,1.5,0,0,0-2.121,0l-1.971,1.97V9.847a1.5,1.5,0,0,0-1.5-1.5h-9.506a1.5,1.5,0,0,0-1.5,1.5v2.787l-1.971-1.97a1.5,1.5,0,0,0-2.121,0l-6.721,6.721a1.5,1.5,0,0,0,0,2.121l1.97,1.971h-2.786a1.5,1.5,0,0,0-1.5,1.5v9.505a1.5,1.5,0,0,0,1.5,1.5h2.786l-1.97,1.971a1.5,1.5,0,0,0,0,2.121l2.3,2.3L159.194,52.2l-2.3-2.3a1.544,1.544,0,0,0-2.121,0l-1.97,1.97V49.086a1.5,1.5,0,0,0-1.5-1.5H141.8a1.5,1.5,0,0,0-1.5,1.5v2.787l-1.971-1.97a1.5,1.5,0,0,0-2.121,0l-6.721,6.721a1.5,1.5,0,0,0,0,2.121l1.97,1.971h-2.786a1.5,1.5,0,0,0-1.5,1.5v9.505A1.5,1.5,0,0,0,128.668,73.221Zm87.079-20.136,2.359,2.359a1.5,1.5,0,0,0,1.7.3c.322-.151.651-.291.988-.413a1.5,1.5,0,0,0,.986-1.409V50.586h6.506V53.92a1.5,1.5,0,0,0,.987,1.41c.337.123.665.262.987.413a1.5,1.5,0,0,0,1.7-.3l2.36-2.36,4.6,4.6-2.359,2.36a1.5,1.5,0,0,0-.3,1.694c.151.324.291.655.415.993a1.5,1.5,0,0,0,1.408.984h3.333v6.505h-3.333a1.5,1.5,0,0,0-1.408.984c-.124.339-.265.669-.415.993a1.5,1.5,0,0,0,.3,1.694l2.359,2.36-4.6,4.6-2.36-2.36a1.5,1.5,0,0,0-1.7-.3c-.322.151-.65.29-.987.413a1.5,1.5,0,0,0-.987,1.41v3.334h-6.506V80.017a1.5,1.5,0,0,0-.986-1.409c-.337-.123-.666-.262-.988-.413a1.5,1.5,0,0,0-1.7.3l-2.359,2.359-4.6-4.6,2.359-2.36a1.5,1.5,0,0,0,.3-1.694c-.15-.323-.29-.652-.412-.989a1.5,1.5,0,0,0-1.41-.988h-3.334V63.716h3.334a1.5,1.5,0,0,0,1.409-.987c.123-.337.263-.667.413-.99a1.5,1.5,0,0,0-.3-1.694l-2.359-2.36Zm-46.34-22.1V24.476h3.334a1.5,1.5,0,0,0,1.41-.988c.122-.337.262-.667.412-.989a1.5,1.5,0,0,0-.3-1.694l-2.359-2.36,4.6-4.6,2.36,2.36a1.5,1.5,0,0,0,1.7.3c.322-.151.651-.291.988-.413a1.5,1.5,0,0,0,.986-1.409V11.347h6.506v3.334a1.5,1.5,0,0,0,.987,1.41c.337.123.665.262.987.413a1.5,1.5,0,0,0,1.7-.3l2.36-2.36,4.6,4.6-2.359,2.36a1.5,1.5,0,0,0-.3,1.694c.15.323.29.652.412.989a1.5,1.5,0,0,0,1.41.988h3.334v6.505h-3.334a1.5,1.5,0,0,0-1.41.988c-.122.337-.262.667-.412.989a1.5,1.5,0,0,0,.3,1.694l2.359,2.36-4.6,4.6-2.36-2.36a1.5,1.5,0,0,0-1.7-.3c-.322.151-.65.29-.987.413a1.5,1.5,0,0,0-.987,1.41v3.334h-6.506V40.777a1.5,1.5,0,0,0-.986-1.409c-.337-.123-.666-.262-.988-.413a1.5,1.5,0,0,0-1.7.3l-2.36,2.36-4.6-4.6,2.359-2.36a1.5,1.5,0,0,0,.3-1.694c-.15-.323-.29-.652-.412-.989a1.5,1.5,0,0,0-1.41-.988ZM130.168,63.716H133.5a1.5,1.5,0,0,0,1.408-.984c.124-.338.264-.669.415-.993a1.5,1.5,0,0,0-.3-1.694l-2.359-2.36,4.6-4.6,2.36,2.36a1.5,1.5,0,0,0,1.7.3c.322-.151.65-.29.987-.413a1.5,1.5,0,0,0,.987-1.41V50.586H149.8V53.92a1.5,1.5,0,0,0,.986,1.409c.337.123.666.262.988.413a1.5,1.5,0,0,0,1.7-.3l2.359-2.359,4.6,4.6-2.359,2.36a1.5,1.5,0,0,0-.3,1.694c.15.323.29.653.413.99a1.5,1.5,0,0,0,1.409.987h3.334v6.505H159.6a1.5,1.5,0,0,0-1.41.988c-.122.337-.262.667-.412.989a1.5,1.5,0,0,0,.3,1.694l2.359,2.36-4.6,4.6-2.359-2.359a1.5,1.5,0,0,0-1.7-.3c-.322.151-.651.291-.988.413a1.5,1.5,0,0,0-.986,1.409v3.334H143.3V80.017a1.5,1.5,0,0,0-.987-1.41c-.337-.123-.665-.262-.987-.413a1.5,1.5,0,0,0-1.7.3l-2.36,2.36-4.6-4.6,2.359-2.36a1.5,1.5,0,0,0,.3-1.694c-.15-.324-.291-.654-.415-.993a1.5,1.5,0,0,0-1.408-.984h-3.333Z" fill="#3f3679"/><path d="M146.55,74.521A7.552,7.552,0,1,0,139,66.969,7.56,7.56,0,0,0,146.55,74.521Zm0-12.1A4.552,4.552,0,1,1,142,66.969,4.558,4.558,0,0,1,146.55,62.416Z" fill="#3f3679"/><path d="M225.03,74.521a7.552,7.552,0,1,0-7.552-7.552A7.561,7.561,0,0,0,225.03,74.521Zm0-12.1a4.552,4.552,0,1,1-4.552,4.553A4.558,4.558,0,0,1,225.03,62.416Z" fill="#3f3679"/></svg>