<svg xmlns="http://www.w3.org/2000/svg" viewBox="0 0 256 256"><title>icons_</title><rect x="125.713" y="145.206" width="20.11" height="80.187" transform="translate(271.536 370.598) rotate(-180)" fill="#63bce7"/><rect x="91.691" y="117.18" width="20.11" height="108.212" transform="translate(203.491 342.573) rotate(-180)" fill="#f46275"/><rect x="57.668" y="89.155" width="20.11" height="136.238" transform="translate(135.446 314.547) rotate(-180)" fill="#63bce7"/><rect x="23.645" y="61.129" width="20.11" height="164.263" transform="translate(67.4 286.522) rotate(-180)" fill="#f46275"/><rect x="23.645" y="61.129" width="9.5" height="164.263" fill="#f43075"/><path d="M187.418,168.361l-8.894-7.886a13.352,13.352,0,0,1-4.115-6.832l-2.734-11.229a8.5,8.5,0,0,1,2.806-8.532l12.936-10.818H194.4v45.3Z" fill="#f8af23"/><rect x="181.965" y="112.502" width="15.045" height="46.952" rx="7.523" ry="7.523" transform="translate(-40.652 173.816) rotate(-45)" fill="#f46275"/><circle cx="144.253" cy="90.744" r="28.852" transform="translate(-21.915 128.581) rotate(-45)" fill="#f46275"/><circle cx="144.253" cy="90.744" r="21.56" transform="translate(-21.915 128.581) rotate(-45)" fill="#63bce7"/><path d="M225.668,179.374V167.3l6.448-28.031a9.316,9.316,0,0,0-6.42-11.017l-32.611-9.712a4.409,4.409,0,0,0-5.667,4.225v56.613Z" fill="#f8af23"/><path d="M225.7,128.247l-.443-.132-9.084,39.18v12.079h9.5V167.3l6.448-28.031A9.316,9.316,0,0,0,225.7,128.247Z" fill="#f8d323"/><rect x="183.544" y="177.201" width="45.718" height="16.121" transform="translate(412.807 370.524) rotate(-180)" fill="#f46275"/><rect x="219.763" y="177.201" width="9.5" height="16.121" fill="#f48875"/><rect x="183.544" y="193.323" width="45.718" height="32.07" transform="translate(412.807 418.715) rotate(-180)" fill="#63bce7"/><rect x="219.763" y="193.323" width="9.5" height="32.07" fill="#63e2e7"/><path d="M144.253,75.282V90.744H128.791a15.462,15.462,0,1,0,15.462-15.462Z" fill="#f8af23"/><path d="M144.253,75.282a15.462,15.462,0,0,0-15.462,15.462h15.462Z" fill="#f46275"/><rect x="188.883" y="182.387" width="15.417" height="5.75" fill="#f8af23"/><polygon points="50.537 36.82 67.723 19.635 84.909 36.82 74.921 36.82 74.921 69.184 60.524 69.184 60.524 36.82 50.537 36.82" fill="#9e9e9e"/><rect x="60.524" y="36.821" width="9.5" height="32.364" fill="#707070"/><polygon points="67.723 19.635 50.537 36.821 60.037 36.821 72.473 24.385 67.723 19.635" fill="#707070"/><polygon points="171.091 36.82 188.277 19.635 205.463 36.82 195.476 36.82 195.476 69.184 181.079 69.184 181.079 36.82 171.091 36.82" fill="#9e9e9e"/><polygon points="188.277 19.635 183.527 24.385 195.963 36.821 205.463 36.821 188.277 19.635" fill="#cecece"/><rect x="185.975" y="36.821" width="9.5" height="32.364" fill="#cecece"/><path d="M27.323,234.865h-18a1.5,1.5,0,0,0,0,3h18a1.5,1.5,0,1,0,0-3Z" fill="#3f3679"/><path d="M246.68,234.865h-18a1.5,1.5,0,0,0,0,3h18a1.5,1.5,0,0,0,0-3Z" fill="#3f3679"/><path d="M218.479,234.865H37.521a1.5,1.5,0,0,0,0,3H218.479a1.5,1.5,0,0,0,0-3Z" fill="#3f3679"/><path d="M9.32,226.893H246.68a1.5,1.5,0,0,0,0-3H230.763V177.2a1.5,1.5,0,0,0-1.5-1.5h-2.095v-8.236l6.41-27.864a10.839,10.839,0,0,0-7.455-12.791l-32.61-9.712a5.909,5.909,0,0,0-7.022,3.124l-1.9-1.9a9,9,0,0,0-11.605-.967l-6.232-6.233a30.349,30.349,0,1,0-2.121,2.121l6.234,6.235a9.03,9.03,0,0,0,.965,11.6l1.673,1.672a9.936,9.936,0,0,0-3.281,10.018L172.953,154a14.78,14.78,0,0,0,4.576,7.6l8.389,7.439V175.7h-2.373a1.5,1.5,0,0,0-1.5,1.5v46.691H147.323V145.206a1.5,1.5,0,0,0-1.5-1.5H125.714a1.5,1.5,0,0,0-1.5,1.5v78.687H113.3V117.18a1.5,1.5,0,0,0-1.5-1.5H91.69a1.5,1.5,0,0,0-1.5,1.5V223.893H79.277V89.154a1.5,1.5,0,0,0-1.5-1.5H57.668a1.5,1.5,0,0,0-1.5,1.5V223.893H45.255V61.129a1.5,1.5,0,0,0-1.5-1.5H23.646a1.5,1.5,0,0,0-1.5,1.5V223.893H9.32a1.5,1.5,0,0,0,0,3ZM124.912,110.084a27.353,27.353,0,1,1,19.341,8.011A27.383,27.383,0,0,1,124.912,110.084Zm49.036,10.355a6.021,6.021,0,0,1,8.518,0l3.452,3.451v17.035l-11.97-11.969A6.031,6.031,0,0,1,173.948,120.439Zm14.465,46.8-8.894-7.887a11.8,11.8,0,0,1-3.652-6.063l-2.734-11.23a6.957,6.957,0,0,1,2.312-7.026l.184-.154,10.29,10.289v3.927a1.5,1.5,0,0,0,3,0V122.761a2.909,2.909,0,0,1,3.739-2.788l32.61,9.712a7.833,7.833,0,0,1,5.387,9.244l-6.448,28.03a1.5,1.5,0,0,0-.038.336V175.7h-35.25v-7.34A1.5,1.5,0,0,0,188.413,167.239ZM185.045,178.7h42.718v5.061H205.8v-1.375a1.5,1.5,0,0,0-1.5-1.5H188.883a1.5,1.5,0,0,0-1.5,1.5v5.75a1.5,1.5,0,0,0,1.5,1.5H204.3a1.5,1.5,0,0,0,1.5-1.5v-1.375h21.963v5.061H185.045Zm17.755,7.936H190.383v-2.75H202.8Zm-17.755,8.186h42.718v29.07H185.045Zm-57.831-48.116h17.109v77.187H127.214ZM93.19,118.68H110.3V223.893H93.19ZM59.168,90.654H76.277V223.893H59.168ZM25.146,62.629H42.255V223.893H25.146Z" fill="#3f3679"/><path d="M160.559,74.438a23.059,23.059,0,1,0,6.754,16.3A22.907,22.907,0,0,0,160.559,74.438Zm-2.121,30.489a20.06,20.06,0,1,1,5.875-14.185A19.927,19.927,0,0,1,158.438,104.928Z" fill="#3f3679"/><path d="M144.253,73.782a16.961,16.961,0,1,0,16.962,16.961A16.981,16.981,0,0,0,144.253,73.782Zm-1.5,3.08V89.243H130.371A13.987,13.987,0,0,1,142.753,76.862Zm1.5,27.843a13.981,13.981,0,0,1-13.882-12.462h13.882a1.5,1.5,0,0,0,1.5-1.5V76.862a13.962,13.962,0,0,1-1.5,27.843Z" fill="#3f3679"/><path d="M50.537,38.32h8.487V69.185a1.5,1.5,0,0,0,1.5,1.5h14.4a1.5,1.5,0,0,0,1.5-1.5V38.32h8.488A1.5,1.5,0,0,0,85.97,35.76L68.783,18.574a1.5,1.5,0,0,0-2.121,0L49.477,35.76a1.5,1.5,0,0,0,1.061,2.561ZM67.723,21.756,81.288,35.32H74.921a1.5,1.5,0,0,0-1.5,1.5V67.685h-11.4V36.82a1.5,1.5,0,0,0-1.5-1.5H54.158Z" fill="#3f3679"/><path d="M171.091,38.32h8.488V69.185a1.5,1.5,0,0,0,1.5,1.5h14.4a1.5,1.5,0,0,0,1.5-1.5V38.32h8.487a1.5,1.5,0,0,0,1.061-2.561L189.338,18.574a1.5,1.5,0,0,0-2.121,0L170.03,35.76a1.5,1.5,0,0,0,1.061,2.561Zm17.187-16.564L201.842,35.32h-6.366a1.5,1.5,0,0,0-1.5,1.5V67.685h-11.4V36.82a1.5,1.5,0,0,0-1.5-1.5h-6.367Z" fill="#3f3679"/></svg>