<svg xmlns="http://www.w3.org/2000/svg" viewBox="0 0 256 256"><title>icons_</title><circle cx="167.097" cy="31.371" r="15.047" fill="#9e9e9e"/><circle cx="88.903" cy="213.657" r="15.047" fill="#9e9e9e"/><circle cx="36.658" cy="161.809" r="15.047" fill="#9e9e9e"/><rect x="65.367" y="60.079" width="125.267" height="125.267" fill="#63bce7"/><rect x="65.367" y="60.079" width="9.5" height="125.267" fill="#6377e7"/><rect x="181.133" y="60.079" width="9.5" height="125.267" fill="#63e2e7"/><rect x="88.904" y="83.616" width="78.193" height="78.194" transform="translate(250.713 -5.288) rotate(90)" fill="#f46275"/><circle cx="88.903" cy="31.371" r="15.047" fill="#9e9e9e"/><path d="M83.356,31.371a15.045,15.045,0,0,1,10.3-14.27,15.047,15.047,0,1,0,0,28.539A15.045,15.045,0,0,1,83.356,31.371Z" fill="#707070"/><path d="M172.644,31.371a15.045,15.045,0,0,0-10.3-14.27,15.047,15.047,0,1,1,0,28.539A15.045,15.045,0,0,0,172.644,31.371Z" fill="#cecece"/><path d="M83.356,213.657a15.045,15.045,0,0,1,10.3-14.27,15.047,15.047,0,1,0,0,28.539A15.045,15.045,0,0,1,83.356,213.657Z" fill="#707070"/><circle cx="167.097" cy="213.657" r="15.047" fill="#9e9e9e"/><circle cx="219.342" cy="83.616" r="15.047" fill="#9e9e9e"/><circle cx="219.342" cy="161.809" r="15.047" fill="#9e9e9e"/><circle cx="36.658" cy="83.616" r="15.047" fill="#9e9e9e"/><path d="M31.111,83.616a15.045,15.045,0,0,1,10.3-14.27,15.047,15.047,0,1,0,0,28.539A15.045,15.045,0,0,1,31.111,83.616Z" fill="#707070"/><path d="M224.889,83.616a15.045,15.045,0,0,0-10.3-14.27,15.047,15.047,0,1,1,0,28.539A15.045,15.045,0,0,0,224.889,83.616Z" fill="#cecece"/><path d="M224.889,161.809a15.045,15.045,0,0,0-10.3-14.27,15.047,15.047,0,1,1,0,28.539A15.045,15.045,0,0,0,224.889,161.809Z" fill="#cecece"/><path d="M31.111,161.809a15.045,15.045,0,0,1,10.3-14.27,15.047,15.047,0,1,0,0,28.539A15.045,15.045,0,0,1,31.111,161.809Z" fill="#707070"/><rect x="98.708" y="93.492" width="58.585" height="8.007" fill="#f8af23"/><rect x="98.708" y="110.171" width="58.585" height="8.007" fill="#f8af23"/><rect x="98.708" y="126.849" width="58.585" height="8.007" fill="#f8af23"/><rect x="98.708" y="143.527" width="58.585" height="8.007" fill="#f8af23"/><path d="M172.644,213.657a15.045,15.045,0,0,0-10.3-14.27,15.047,15.047,0,1,1,0,28.539A15.045,15.045,0,0,0,172.644,213.657Z" fill="#cecece"/><path d="M27.323,238.177h-18a1.5,1.5,0,1,0,0,3h18a1.5,1.5,0,1,0,0-3Z" fill="#3f3679"/><path d="M246.68,238.177h-18a1.5,1.5,0,0,0,0,3h18a1.5,1.5,0,0,0,0-3Z" fill="#3f3679"/><path d="M218.479,238.177H37.521a1.5,1.5,0,0,0,0,3H218.479a1.5,1.5,0,0,0,0-3Z" fill="#3f3679"/><path d="M9.32,230.2H246.68a1.5,1.5,0,0,0,0-3h-70.11a16.527,16.527,0,0,0-7.973-30.018v-10.34h22.037a1.5,1.5,0,0,0,1.5-1.5V163.309h10.737a16.547,16.547,0,1,0,0-3H192.134V85.116h10.737a16.547,16.547,0,1,0,0-3H192.134V60.079a1.5,1.5,0,0,0-1.5-1.5H168.6V47.842a16.547,16.547,0,1,0-3,0V58.579H90.4V47.842a16.547,16.547,0,1,0-3,0V58.579H65.367a1.5,1.5,0,0,0-1.5,1.5V82.116H53.129a16.547,16.547,0,1,0,0,3H63.867v75.192H53.129a16.548,16.548,0,1,0,0,3H63.867v22.037a1.5,1.5,0,0,0,1.5,1.5H87.4v10.34A16.527,16.527,0,0,0,79.431,227.2H9.32a1.5,1.5,0,1,0,0,3Zm210.022-81.941a13.547,13.547,0,1,1-13.547,13.547A13.562,13.562,0,0,1,219.342,148.262Zm0-78.192a13.547,13.547,0,1,1-13.547,13.547A13.562,13.562,0,0,1,219.342,70.069ZM153.55,31.37A13.547,13.547,0,1,1,167.1,44.918,13.562,13.562,0,0,1,153.55,31.37Zm-78.194,0A13.547,13.547,0,1,1,88.9,44.918,13.562,13.562,0,0,1,75.356,31.37Zm-38.7,65.793A13.547,13.547,0,1,1,50.205,83.616,13.562,13.562,0,0,1,36.658,97.163Zm0,78.193a13.547,13.547,0,1,1,13.547-13.548A13.562,13.562,0,0,1,36.658,175.356Zm143.985,38.3A13.547,13.547,0,1,1,167.1,200.109,13.562,13.562,0,0,1,180.644,213.656ZM66.867,61.579H189.134V183.846H66.867ZM165.6,186.846v10.34a16.527,16.527,0,0,0-7.973,30.018H98.376A16.527,16.527,0,0,0,90.4,197.185v-10.34ZM75.356,213.656A13.547,13.547,0,1,1,88.9,227.2,13.562,13.562,0,0,1,75.356,213.656Z" fill="#3f3679"/><path d="M167.1,163.309a1.5,1.5,0,0,0,1.5-1.5V83.616a1.5,1.5,0,0,0-1.5-1.5H88.9a1.5,1.5,0,0,0-1.5,1.5v78.192a1.5,1.5,0,0,0,1.5,1.5ZM90.4,85.116H165.6v75.192H90.4Z" fill="#3f3679"/><path d="M157.292,91.992H98.708a1.5,1.5,0,0,0-1.5,1.5V101.5a1.5,1.5,0,0,0,1.5,1.5h58.584a1.5,1.5,0,0,0,1.5-1.5V93.492A1.5,1.5,0,0,0,157.292,91.992Zm-1.5,8.008H100.208V94.992h55.584Z" fill="#3f3679"/><path d="M157.292,108.671H98.708a1.5,1.5,0,0,0-1.5,1.5v8.007a1.5,1.5,0,0,0,1.5,1.5h58.584a1.5,1.5,0,0,0,1.5-1.5v-8.007A1.5,1.5,0,0,0,157.292,108.671Zm-1.5,8.007H100.208v-5.007h55.584Z" fill="#3f3679"/><path d="M157.292,125.349H98.708a1.5,1.5,0,0,0-1.5,1.5v8.008a1.5,1.5,0,0,0,1.5,1.5h58.584a1.5,1.5,0,0,0,1.5-1.5v-8.008A1.5,1.5,0,0,0,157.292,125.349Zm-1.5,8.008H100.208v-5.008h55.584Z" fill="#3f3679"/><path d="M157.292,142.027H98.708a1.5,1.5,0,0,0-1.5,1.5v8.007a1.5,1.5,0,0,0,1.5,1.5h58.584a1.5,1.5,0,0,0,1.5-1.5v-8.007A1.5,1.5,0,0,0,157.292,142.027Zm-1.5,8.007H100.208v-5.007h55.584Z" fill="#3f3679"/></svg>