<svg xmlns="http://www.w3.org/2000/svg" viewBox="0 0 256 256"><title>icons_</title><circle cx="201.257" cy="133.489" r="30.289" fill="#9e9e9e"/><circle cx="54.743" cy="133.489" r="30.289" fill="#9e9e9e"/><path d="M33.954,133.488a30.294,30.294,0,0,1,25.539-29.915,30.289,30.289,0,1,0,0,59.83A30.294,30.294,0,0,1,33.954,133.488Z" fill="#707070"/><path d="M222.046,133.488a30.294,30.294,0,0,0-25.539-29.915,30.289,30.289,0,1,1,0,59.83A30.294,30.294,0,0,0,222.046,133.488Z" fill="#cecece"/><path d="M199.413,163.777H203.1a41.5,41.5,0,0,1,41.5,41.5v29.7a0,0,0,0,1,0,0H157.913a0,0,0,0,1,0,0v-29.7A41.5,41.5,0,0,1,199.413,163.777Z" fill="#f46275"/><path d="M52.9,163.777h3.688a41.5,41.5,0,0,1,41.5,41.5v29.7a0,0,0,0,1,0,0H11.4a0,0,0,0,1,0,0v-29.7A41.5,41.5,0,0,1,52.9,163.777Z" fill="#63bce7"/><path d="M59.493,163.89c-.961-.066-1.928-.113-2.906-.113H52.9a41.5,41.5,0,0,0-41.5,41.5v29.7h9.5v-29.7A41.5,41.5,0,0,1,59.493,163.89Z" fill="#6377e7"/><path d="M196.507,163.89c.961-.066,1.928-.113,2.906-.113H203.1a41.5,41.5,0,0,1,41.5,41.5v29.7h-9.5v-29.7A41.5,41.5,0,0,0,196.507,163.89Z" fill="#f48875"/><rect x="92.447" y="24.465" width="71.106" height="79.099" transform="translate(256 128.03) rotate(-180)" fill="#f8af23"/><rect x="92.447" y="24.465" width="9.5" height="79.099" fill="#f87023"/><rect x="154.053" y="24.465" width="9.5" height="79.099" fill="#f8d323"/><polygon points="128 24.465 135.217 24.465 135.217 40.088 128 34.928 120.783 40.088 120.783 24.465 128 24.465" fill="#63bce7"/><polygon points="135.61 121.564 152.843 138.798 135.61 156.031 135.61 146.016 103.157 146.016 103.157 131.579 135.61 131.579 135.61 121.564" fill="#63bce7"/><polygon points="74.862 76.269 74.862 51.898 50.49 51.898 57.572 58.979 34.624 81.927 44.832 92.135 67.78 69.188 74.862 76.269" fill="#63bce7"/><polygon points="181.138 76.269 181.138 51.898 205.51 51.898 198.428 58.979 221.376 81.927 211.168 92.135 188.22 69.188 181.138 76.269" fill="#f46275"/><polygon points="120.39 165.985 103.157 183.218 120.39 200.452 120.39 190.437 152.843 190.437 152.843 176 120.39 176 120.39 165.985" fill="#f46275"/><path d="M92.447,105.064h71.105a1.5,1.5,0,0,0,1.5-1.5v-79.1a1.5,1.5,0,0,0-1.5-1.5H143.838a15.9,15.9,0,0,0-31.669,0H92.447a1.5,1.5,0,0,0-1.5,1.5v79.1A1.5,1.5,0,0,0,92.447,105.064ZM128,11.555a12.929,12.929,0,0,1,12.823,11.411H115.18A12.929,12.929,0,0,1,128,11.555Zm-5.718,14.411h11.435V37.171l-4.845-3.463a1.5,1.5,0,0,0-1.744,0l-4.846,3.465Zm-28.339,0h25.339V40.088a1.5,1.5,0,0,0,2.372,1.221L128,36.771l6.345,4.536a1.5,1.5,0,0,0,2.372-1.22V25.966h25.332v76.1H93.947Z" fill="#3f3679"/><path d="M27.323,244.445h-18a1.5,1.5,0,0,0,0,3h18a1.5,1.5,0,0,0,0-3Z" fill="#3f3679"/><path d="M246.68,244.445h-18a1.5,1.5,0,0,0,0,3h18a1.5,1.5,0,0,0,0-3Z" fill="#3f3679"/><path d="M218.479,244.445H37.521a1.5,1.5,0,0,0,0,3H218.479a1.5,1.5,0,0,0,0-3Z" fill="#3f3679"/><path d="M9.32,236.473H246.68a1.5,1.5,0,0,0,0-3H246.1v-28.2a43.067,43.067,0,0,0-33.773-41.992,31.788,31.788,0,1,0-22.143,0,43.068,43.068,0,0,0-33.773,41.992v28.2H99.587v-28.2a43.068,43.068,0,0,0-33.773-41.992,31.789,31.789,0,1,0-22.143,0A43.067,43.067,0,0,0,9.9,205.277v28.2H9.32a1.5,1.5,0,0,0,0,3ZM172.469,133.488a28.789,28.789,0,1,1,28.788,28.789A28.82,28.82,0,0,1,172.469,133.488Zm-13.056,71.789a40.046,40.046,0,0,1,40-40H203.1a40.046,40.046,0,0,1,40,40v28.2H159.413ZM25.954,133.488a28.789,28.789,0,1,1,28.789,28.789A28.821,28.821,0,0,1,25.954,133.488ZM12.9,205.277a40.046,40.046,0,0,1,40-40h3.688a40.046,40.046,0,0,1,40,40v28.2H12.9Z" fill="#3f3679"/><path d="M153.9,137.737,136.67,120.5a1.5,1.5,0,0,0-2.561,1.061v8.515H103.157a1.5,1.5,0,0,0-1.5,1.5v14.437a1.5,1.5,0,0,0,1.5,1.5h30.952v8.516a1.5,1.5,0,0,0,2.561,1.061L153.9,139.858A1.5,1.5,0,0,0,153.9,137.737ZM137.109,152.41v-6.395a1.5,1.5,0,0,0-1.5-1.5H104.657V133.079h30.952a1.5,1.5,0,0,0,1.5-1.5v-6.394L150.722,138.8Z" fill="#3f3679"/><path d="M43.771,93.2a1.5,1.5,0,0,0,2.121,0L67.78,71.309,73.8,77.33a1.5,1.5,0,0,0,2.561-1.061V51.9a1.5,1.5,0,0,0-1.5-1.5H50.49a1.5,1.5,0,0,0-1.061,2.561l6.021,6.021L33.563,80.866a1.5,1.5,0,0,0,0,2.121ZM58.632,60.04a1.5,1.5,0,0,0,0-2.121L54.111,53.4h19.25v19.25l-4.521-4.521a1.5,1.5,0,0,0-2.121,0L44.832,90.015l-8.087-8.088Z" fill="#3f3679"/><path d="M180.564,77.655a1.5,1.5,0,0,0,1.635-.325l6.021-6.021L210.107,93.2a1.5,1.5,0,0,0,2.121,0l10.208-10.209a1.5,1.5,0,0,0,0-2.121L200.55,58.979l6.021-6.021A1.5,1.5,0,0,0,205.51,50.4H181.139a1.5,1.5,0,0,0-1.5,1.5V76.27A1.5,1.5,0,0,0,180.564,77.655ZM182.639,53.4h19.25l-4.521,4.521a1.5,1.5,0,0,0,0,2.121l21.887,21.887-8.087,8.088L189.28,68.127a1.5,1.5,0,0,0-2.121,0l-4.521,4.521Z" fill="#3f3679"/><path d="M120.965,164.6a1.5,1.5,0,0,0-1.635.325L102.1,182.158a1.5,1.5,0,0,0,0,2.121l17.233,17.232a1.5,1.5,0,0,0,2.561-1.061v-8.515h30.952a1.5,1.5,0,0,0,1.5-1.5V176a1.5,1.5,0,0,0-1.5-1.5H121.891v-8.515A1.5,1.5,0,0,0,120.965,164.6Zm30.378,12.9v11.437H120.391a1.5,1.5,0,0,0-1.5,1.5v6.394l-13.612-13.611,13.612-13.612V176a1.5,1.5,0,0,0,1.5,1.5Z" fill="#3f3679"/></svg>