<svg xmlns="http://www.w3.org/2000/svg" viewBox="0 0 256 256"><title>icons_</title><rect x="15.61" y="44.928" width="224.78" height="154.91" rx="14.009" ry="14.009" fill="#63bce7"/><path d="M25.11,185.829V58.936A14.025,14.025,0,0,1,39.119,44.928h-9.5A14.025,14.025,0,0,0,15.61,58.936V185.829a14.025,14.025,0,0,0,14.009,14.009h9.5A14.025,14.025,0,0,1,25.11,185.829Z" fill="#6377e7"/><path d="M230.89,185.829V58.936a14.025,14.025,0,0,0-14.009-14.009h9.5A14.025,14.025,0,0,1,240.39,58.936V185.829a14.025,14.025,0,0,1-14.009,14.009h-9.5A14.025,14.025,0,0,0,230.89,185.829Z" fill="#63e2e7"/><rect x="24.231" y="53.548" width="207.538" height="125.366" rx="5.388" ry="5.388" fill="#f8af23"/><path d="M33.731,173.527V58.936a5.4,5.4,0,0,1,5.388-5.388h-9.5a5.4,5.4,0,0,0-5.388,5.388v114.59a5.4,5.4,0,0,0,5.388,5.388h9.5A5.4,5.4,0,0,1,33.731,173.527Z" fill="#f87023"/><path d="M222.269,173.527V58.936a5.4,5.4,0,0,0-5.388-5.388h9.5a5.4,5.4,0,0,1,5.388,5.388v114.59a5.4,5.4,0,0,1-5.388,5.388h-9.5A5.4,5.4,0,0,0,222.269,173.527Z" fill="#f8d323"/><rect x="88.847" y="222.553" width="78.305" height="9.429" fill="#f46275"/><rect x="88.847" y="222.553" width="9.5" height="9.429" fill="#f43075"/><rect x="99.983" y="199.837" width="56.035" height="22.716" fill="#9e9e9e"/><rect x="99.983" y="199.837" width="9.5" height="22.716" fill="#707070"/><circle cx="128" cy="189.376" r="4.613" fill="#f46275"/><path d="M119.95,97.525h16.1a41.5,41.5,0,0,1,41.5,41.5v39.889a0,0,0,0,1,0,0H78.45a0,0,0,0,1,0,0V139.025a41.5,41.5,0,0,1,41.5-41.5Z" fill="#f46275"/><rect x="115.5" y="69.948" width="25" height="44" rx="12.5" ry="12.5" fill="#f8af23"/><path d="M163.9,48.943a35.9,35.9,0,1,0-61.016,25.637V89.689h50.237V74.579A35.783,35.783,0,0,0,163.9,48.943Z" fill="#9e9e9e"/><circle cx="115.842" cy="48.206" r="6.747" fill="#4c4c4c"/><circle cx="140.158" cy="48.206" r="6.747" fill="#4c4c4c"/><path d="M108.651,73.221a8.053,8.053,0,0,1-16.105,0c0-4.447,8.053-18.124,8.053-18.124S108.651,68.774,108.651,73.221Z" fill="#1caee4"/><path d="M163.454,73.221a8.053,8.053,0,1,1-16.105,0c0-4.447,8.053-18.124,8.053-18.124S163.454,68.774,163.454,73.221Z" fill="#1caee4"/><path d="M54.215,102.4a4.321,4.321,0,0,0-.643-.528L73.016,82.428a4.307,4.307,0,1,0,.528-5.449,4.314,4.314,0,1,0-5.449.528L48.651,96.949a4.307,4.307,0,1,0-.528,5.449,4.308,4.308,0,1,0,6.092,0Z" fill="#63bce7"/><path d="M67.451,102.4a4.321,4.321,0,0,1,.643-.528L48.651,82.428a4.307,4.307,0,1,1-.528-5.449,4.314,4.314,0,1,1,5.449.528L73.016,96.949a4.307,4.307,0,1,1,.528,5.449,4.308,4.308,0,1,1-6.092,0Z" fill="#63bce7"/><path d="M188.549,102.4a4.321,4.321,0,0,0-.643-.528l19.443-19.443a4.307,4.307,0,1,0,.528-5.449,4.314,4.314,0,1,0-5.449.528L182.984,96.949a4.307,4.307,0,1,0-.528,5.449,4.308,4.308,0,1,0,6.092,0Z" fill="#63bce7"/><path d="M201.785,102.4a4.321,4.321,0,0,1,.643-.528L182.984,82.428a4.307,4.307,0,1,1-.528-5.449,4.314,4.314,0,1,1,5.449.528l19.443,19.443a4.307,4.307,0,1,1,.528,5.449,4.308,4.308,0,1,1-6.092,0Z" fill="#63bce7"/><path d="M128,195.489a6.113,6.113,0,1,0-6.113-6.113A6.12,6.12,0,0,0,128,195.489Zm0-9.227a3.113,3.113,0,1,1-3.113,3.113A3.117,3.117,0,0,1,128,186.263Z" fill="#3f3679"/><path d="M27.323,241.455h-18a1.5,1.5,0,1,0,0,3h18a1.5,1.5,0,1,0,0-3Z" fill="#3f3679"/><path d="M246.68,241.455h-18a1.5,1.5,0,0,0,0,3h18a1.5,1.5,0,0,0,0-3Z" fill="#3f3679"/><path d="M218.479,241.455H37.521a1.5,1.5,0,0,0,0,3H218.479a1.5,1.5,0,0,0,0-3Z" fill="#3f3679"/><path d="M9.32,233.482H246.68a1.5,1.5,0,0,0,0-3H168.653v-7.93a1.5,1.5,0,0,0-1.5-1.5h-9.635V201.337h68.864a15.526,15.526,0,0,0,15.508-15.508V58.937a15.526,15.526,0,0,0-15.508-15.509H164.988a37.4,37.4,0,0,0-73.977,0H29.619A15.526,15.526,0,0,0,14.11,58.937V185.829a15.526,15.526,0,0,0,15.508,15.508H98.482v19.716H88.847a1.5,1.5,0,0,0-1.5,1.5v7.93H9.32a1.5,1.5,0,1,0,0,3ZM160.944,130.115a1.5,1.5,0,0,0-1.5,1.5v45.8H96.556v-45.8a1.5,1.5,0,0,0-3,0v45.8H79.95V139.025A39.992,39.992,0,0,1,114,99.475v1.974a14,14,0,0,0,28,0V99.475a39.961,39.961,0,0,1,34.05,39.551v38.389H162.444v-45.8A1.5,1.5,0,0,0,160.944,130.115Zm-131.325,47.3a3.892,3.892,0,0,1-3.888-3.888V58.937a3.893,3.893,0,0,1,3.888-3.889H91.1a36.956,36.956,0,0,0,2.819,9.3c.011.024.027.044.039.067-1.59,3.394-2.912,6.812-2.912,8.8a9.563,9.563,0,0,0,9.553,9.553c.265,0,.525-.019.784-.04v6.954a1.5,1.5,0,0,0,1.5,1.5H114v5.257a42.992,42.992,0,0,0-37.05,42.58v38.389ZM100.6,79.774a6.56,6.56,0,0,1-6.553-6.553c0-2.548,3.614-9.851,6.553-15.107,2.938,5.257,6.553,12.56,6.553,15.107A6.56,6.56,0,0,1,100.6,79.774ZM117,91.188h22v10.26a11,11,0,0,1-22,0Zm25,5.257V91.188h11.118a1.5,1.5,0,0,0,1.5-1.5V82.735c.259.021.519.04.784.04a9.563,9.563,0,0,0,9.553-9.553c0-1.991-1.321-5.409-2.911-8.8a36.939,36.939,0,0,0,2.86-9.372h61.477a3.893,3.893,0,0,1,3.888,3.889v114.59a3.892,3.892,0,0,1-3.888,3.888H179.05V139.025A42.96,42.96,0,0,0,142,96.446Zm19.955-23.224a6.553,6.553,0,1,1-13.105,0c0-2.548,3.614-9.851,6.553-15.107C158.34,63.371,161.955,70.674,161.955,73.222ZM128,14.545a34.388,34.388,0,0,1,32.273,46.289c-1.664-3.22-3.218-5.885-3.579-6.5a1.5,1.5,0,0,0-2.585,0c-.846,1.436-8.26,14.165-8.26,18.885a9.564,9.564,0,0,0,5.769,8.768v6.2H142V81.274a1.5,1.5,0,0,0-3,0v6.914H117V81.274a1.5,1.5,0,0,0-3,0v6.914h-9.618v-6.2a9.564,9.564,0,0,0,5.769-8.768c0-4.72-7.415-17.449-8.26-18.885a1.5,1.5,0,0,0-2.585,0c-.36.612-1.915,3.278-3.579,6.5A34.392,34.392,0,0,1,128,14.545ZM17.11,185.829V58.937A12.523,12.523,0,0,1,29.619,46.428H90.7c-.056.832-.094,1.669-.094,2.515,0,1.043.055,2.077.139,3.105H29.619a6.9,6.9,0,0,0-6.888,6.889v114.59a6.9,6.9,0,0,0,6.888,6.888H226.381a6.9,6.9,0,0,0,6.888-6.888V58.937a6.9,6.9,0,0,0-6.888-6.889H165.258c.084-1.028.14-2.062.14-3.105,0-.846-.038-1.683-.094-2.515h61.077A12.523,12.523,0,0,1,238.89,58.937V185.829a12.523,12.523,0,0,1-12.508,12.508H29.619A12.523,12.523,0,0,1,17.11,185.829Zm84.372,15.508h53.035v19.716H101.482ZM90.347,224.053h75.306v6.43H90.347Z" fill="#3f3679"/><path d="M115.842,56.453a8.247,8.247,0,1,0-8.248-8.247A8.256,8.256,0,0,0,115.842,56.453Zm0-13.494a5.247,5.247,0,1,1-5.248,5.247A5.253,5.253,0,0,1,115.842,42.959Z" fill="#3f3679"/><path d="M140.158,56.453a8.247,8.247,0,1,0-8.247-8.247A8.256,8.256,0,0,0,140.158,56.453Zm0-13.494a5.247,5.247,0,1,1-5.247,5.247A5.253,5.253,0,0,1,140.158,42.959Z" fill="#3f3679"/><path d="M80.7,103.459a5.808,5.808,0,0,0-7.71-8.661l-5.109-5.109,5.109-5.109a5.808,5.808,0,1,0,3.309-10.353,5.806,5.806,0,1,0-10.352,3.311l-5.109,5.109-5.109-5.109a5.808,5.808,0,1,0-10.352-3.31,5.806,5.806,0,1,0,3.31,10.353l5.109,5.108L48.681,94.8a5.808,5.808,0,1,0-3.312,10.355c0,.1-.007.193-.007.291a5.808,5.808,0,1,0,10.362-3.6l5.109-5.109,5.109,5.109a5.808,5.808,0,1,0,10.363,3.6c0-.1,0-.194-.007-.291A5.782,5.782,0,0,0,80.7,103.459ZM69.155,78.567a1.5,1.5,0,0,0-.22-2.3,2.928,2.928,0,0,1-.423-.347,2.808,2.808,0,1,1,3.971,0A1.5,1.5,0,0,0,74.6,78.039a2.807,2.807,0,1,1,3.97,3.971,2.874,2.874,0,0,1-3.971,0,2.829,2.829,0,0,1-.344-.42,1.5,1.5,0,0,0-2.3-.222l-6.2,6.2-2.8-2.8ZM52.512,100.811a1.5,1.5,0,0,0,.224,2.306,2.8,2.8,0,0,1,.419,4.313,2.875,2.875,0,0,1-3.97,0,2.807,2.807,0,0,1,0-3.971,1.5,1.5,0,0,0-2.122-2.121,2.875,2.875,0,0,1-3.971,0,2.808,2.808,0,1,1,3.971-3.971,2.835,2.835,0,0,1,.343.419,1.5,1.5,0,0,0,1.1.656,1.481,1.481,0,0,0,1.206-.433l6.2-6.2,2.8,2.8Zm19.971.527a1.5,1.5,0,0,0,0,2.121,2.807,2.807,0,0,1,0,3.971,2.876,2.876,0,0,1-3.971,0,2.8,2.8,0,0,1,.419-4.313,1.5,1.5,0,0,0,.224-2.306L49.711,81.367a1.5,1.5,0,0,0-1.061-.439,1.448,1.448,0,0,0-.145.007,1.5,1.5,0,0,0-1.1.656,2.807,2.807,0,0,1-.344.419,2.875,2.875,0,0,1-3.97,0,2.808,2.808,0,0,1,3.971-3.971,1.5,1.5,0,1,0,2.121-2.121,2.811,2.811,0,0,1,0-3.971,2.874,2.874,0,0,1,3.97,0,2.807,2.807,0,0,1,0,3.971,2.9,2.9,0,0,1-.424.348,1.5,1.5,0,0,0-.219,2.3L71.955,98.01a1.5,1.5,0,0,0,2.305-.224,2.751,2.751,0,0,1,.344-.419,2.874,2.874,0,0,1,3.97,0,2.807,2.807,0,0,1,0,3.971,2.874,2.874,0,0,1-3.97,0A1.5,1.5,0,0,0,72.483,101.338Z" fill="#3f3679"/><path d="M179.695,105.444a5.808,5.808,0,1,0,10.363-3.6l5.109-5.11,5.109,5.109a5.808,5.808,0,1,0,10.362,3.6c0-.1,0-.194-.007-.291A5.808,5.808,0,1,0,207.318,94.8l-5.109-5.109,5.109-5.108a5.808,5.808,0,1,0,3.31-10.353,5.806,5.806,0,1,0-10.352,3.31l-5.109,5.109-5.109-5.109a5.808,5.808,0,1,0-10.352-3.311,5.806,5.806,0,1,0,3.309,10.353l5.109,5.109L183.015,94.8a5.808,5.808,0,1,0-3.312,10.355C179.7,105.25,179.695,105.348,179.695,105.444Zm23.793-26.877a1.5,1.5,0,0,0-.219-2.3,2.9,2.9,0,0,1-.424-.348,2.807,2.807,0,0,1,0-3.971,2.874,2.874,0,0,1,3.97,0,2.811,2.811,0,0,1,0,3.971,1.5,1.5,0,1,0,2.121,2.121,2.808,2.808,0,1,1,3.97,3.971,2.875,2.875,0,0,1-3.97,0,2.834,2.834,0,0,1-.343-.419,1.5,1.5,0,0,0-2.305-.224l-6.2,6.2-2.8-2.8Zm-20.647,2.367a1.5,1.5,0,0,0-1.1.654,2.8,2.8,0,0,1-.345.421,2.875,2.875,0,0,1-3.97,0,2.808,2.808,0,0,1,3.97-3.971,1.5,1.5,0,0,0,2.122-2.121,2.808,2.808,0,1,1,3.972,0,2.931,2.931,0,0,1-.424.348,1.5,1.5,0,0,0-.22,2.3L206.289,98.01a1.5,1.5,0,0,0,2.305-.224,2.8,2.8,0,0,1,4.314-.419,2.807,2.807,0,0,1,0,3.971,2.875,2.875,0,0,1-3.971,0,1.5,1.5,0,0,0-2.122,2.121,2.807,2.807,0,0,1,0,3.971,2.875,2.875,0,0,1-3.97,0,2.8,2.8,0,0,1,.419-4.313,1.5,1.5,0,0,0,.224-2.306L184.045,81.367A1.51,1.51,0,0,0,182.841,80.935Zm-5.416,20.4a2.807,2.807,0,0,1,0-3.971,2.874,2.874,0,0,1,3.971,0,2.774,2.774,0,0,1,.343.418,1.5,1.5,0,0,0,1.1.656,1.483,1.483,0,0,0,1.206-.433l6.2-6.2,2.8,2.8-6.2,6.2a1.5,1.5,0,0,0,.224,2.306,2.805,2.805,0,0,1,.418,4.313,2.873,2.873,0,0,1-3.97,0,2.807,2.807,0,0,1,0-3.971,1.5,1.5,0,0,0-2.122-2.121A2.875,2.875,0,0,1,177.425,101.338Z" fill="#3f3679"/></svg>