<?xml version="1.0" encoding="utf-8"?>
<!-- Generator: Adobe Illustrator 23.0.0, SVG Export Plug-In . SVG Version: 6.00 Build 0)  -->
<svg version="1.1" id="Layer_1" xmlns="http://www.w3.org/2000/svg" xmlns:xlink="http://www.w3.org/1999/xlink" x="0px" y="0px"
	 viewBox="0 0 512 512" style="enable-background:new 0 0 512 512;" xml:space="preserve">
<style type="text/css">
	.st0{fill:#323232;}
	.st1{fill:#646464;}
	.st2{fill:#464646;}
	.st3{fill:#FAA51E;}
	.st4{fill:#5A6E82;}
	.st5{fill:#788C9B;}
	.st6{fill:#AAC3D7;}
	.st7{fill:#7DC8AA;}
	.st8{fill:#147864;}
	.st9{fill:#329682;}
	.st10{fill:#FFFFFF;}
	.st11{fill:#9B5FAA;}
	.st12{fill:#463C4B;}
	.st13{fill:#32283C;}
	.st14{fill:#D76E28;}
	.st15{fill:#784687;}
	.st16{fill:#F0915A;}
	.st17{fill:#FAB991;}
	.st18{fill:#D7E6F0;}
	.st19{fill:#82AA41;}
	.st20{fill:#4B8C41;}
	.st21{fill:#A5CD3C;}
	.st22{fill:#FAD241;}
	.st23{fill:#AA5A28;}
	.st24{fill:#F04B37;}
	.st25{fill:#6EA5D7;}
	.st26{fill:#8CAAC8;}
	.st27{fill:#F0697D;}
	.st28{fill:#5A5A6E;}
	.st29{fill:#647DBE;}
	.st30{fill:#2D6E23;}
	.st31{fill:#F58CAA;}
	.st32{fill:#B98C3C;}
	.st33{fill:#C3A050;}
	.st34{fill:#D2C36E;}
	.st35{fill:#64412D;}
	.st36{fill:#DC7846;}
	.st37{fill:#96461E;}
	.st38{fill:#F06423;}
	.st39{fill:#E6AAFA;}
	.st40{fill:#BE82D2;}
	.st41{fill:#FAA037;}
	.st42{fill:#D73228;}
	.st43{fill:#BE281E;}
	.st44{fill:#5064A0;}
	.st45{fill:#8C1E14;}
	.st46{fill:#F5732D;}
	.st47{fill:#FAD7A0;}
	.st48{fill:#964628;}
	.st49{fill:#D24614;}
	.st50{fill:#F5D7A5;}
	.st51{fill:#F58723;}
	.st52{fill:#E65A78;}
	.st53{fill:#643773;}
	.st54{fill:#9B64AA;}
	.st55{fill:#555555;}
	.st56{fill:#FAD2B4;}
</style>
<g>
	<g>
		<path class="st14" d="M207.179,385.6v-40h-64c-8.836,0-16,7.164-16,16v56c0,15.464,12.536,28,28,28l0,0c15.464,0,28-12.536,28-28
			l0,0h-16v-32H207.179z"/>
	</g>
	<g>
		<g>
			<path class="st23" d="M431.175,385.602h-56c0,8.83,7.17,16,16,16v61.66c0,18.97-15.37,34.34-34.33,34.34h-29.67
				c0-6.63,2.69-12.63,7.03-16.97c4.35-4.34,10.35-7.03,16.97-7.03v-40c-22.09,0-40-17.91-40-40v-8h-104c-26.51,0-48-21.49-48-48
				v-112h208c35.35,0,64,28.65,64,64V385.602z"/>
		</g>
	</g>
	<g>
		<path class="st29" d="M255.179,65.6h-8c-4.418,0-8-3.582-8-8v-20c0-2.209,1.791-4,4-4h0c2.209,0,4,1.791,4,4v0
			c0,2.209,1.791,4,4,4h0c2.209,0,4-1.791,4-4v0c0-2.209,1.791-4,4-4l0,0c2.209,0,4,1.791,4,4v20
			C263.179,62.018,259.598,65.6,255.179,65.6z"/>
	</g>
	<g>
		<path class="st16" d="M23.179,145.6h136v-32h-136c-4.418,0-8,3.582-8,8v16C15.179,142.018,18.761,145.6,23.179,145.6z"/>
	</g>
	<g>
		<path class="st18" d="M87.179,245.6c-2.209,0-4-1.791-4-4v-224c0-2.209,1.791-4,4-4s4,1.791,4,4v224
			C91.179,243.809,89.388,245.6,87.179,245.6z"/>
	</g>
	<g>
		<path class="st35" d="M399.179,289.6v-32c0-26.51,21.49-48,48-48h0c26.51,0,48,21.49,48,48v112h0c-26.51,0-48-21.49-48-48v-64
			c0-8.837-7.163-16-16-16h0c-8.837,0-16,7.163-16,16v32H399.179z"/>
	</g>
	<g>
		<path class="st17" d="M223.179,97.6h-64v-56c0-13.255,10.745-24,24-24h16c13.255,0,24,10.745,24,24V97.6z"/>
	</g>
	<g>
		<path class="st16" d="M271.179,113.6h-112v96l0,0v16l0,0v96c8.837,0,16-7.163,16-16c0-44.183,35.817-80,80-80l0,0v-16
			c10.245-10.245,16-24.139,16-38.627V113.6z"/>
	</g>
	<g>
		<path class="st17" d="M215.179,193.6h-56c-8.837,0-16-7.163-16-16v-56c0-4.418,3.582-8,8-8h88c4.418,0,8,3.582,8,8v40
			C247.179,179.273,232.853,193.6,215.179,193.6z"/>
	</g>
	<g>
		<rect x="191.179" y="97.6" class="st16" width="32" height="16"/>
	</g>
	<g>
		<path class="st35" d="M151.179,25.6v8c0,4.418,3.582,8,8,8h24c4.418,0,8,3.582,8,8v0c0,4.418,3.582,8,8,8h0v40
			c0,8.837,7.163,16,16,16h24v-62c0-18.778-15.222-34-34-34h-46C154.761,17.6,151.179,21.181,151.179,25.6z"/>
	</g>
	<g>
		<path class="st16" d="M209.846,41.6L209.846,41.6c-5.891,0-10.667,4.776-10.667,10.667V65.6l0,0
			c5.891,0,10.667-4.776,10.667-10.667V41.6z"/>
	</g>
	<g>
		<path class="st35" d="M175.179,105.6h-8c-4.418,0-8-3.582-8-8v-16c0-4.418,3.582-8,8-8h8c4.418,0,8,3.582,8,8v16
			C183.179,102.018,179.598,105.6,175.179,105.6z"/>
	</g>
	<g>
		<path class="st17" d="M175.179,89.6h-8v-4c0-2.209,1.791-4,4-4h0c2.209,0,4,1.791,4,4V89.6z"/>
	</g>
	<g>
		<polygon class="st35" points="159.179,225.6 271.179,113.6 247.179,113.6 159.179,201.6 		"/>
	</g>
	<g>
		<path class="st16" d="M303.18,145.6h-88v-32h88c8.837,0,16,7.163,16,16v0C319.179,138.436,312.016,145.6,303.18,145.6z"/>
	</g>
	<g>
		<path class="st56" d="M207.179,145.6h8v-32h-8c-8.837,0-16,7.163-16,16v0C191.179,138.436,198.343,145.6,207.179,145.6z"/>
	</g>
	<g>
		<rect x="239.179" y="89.6" class="st14" width="32" height="24"/>
	</g>
	<g>
		<rect x="263.179" y="65.6" class="st17" width="8" height="24"/>
	</g>
	<g>
		<rect x="247.179" y="65.6" class="st17" width="8" height="24"/>
	</g>
	<path class="st35" d="M63.179,213.6c-15.439,0-28-12.561-28-28v-112c0-15.439,12.561-28,28-28s28-12.561,28-28c0-2.209-1.791-4-4-4
		s-4,1.791-4,4c0,11.028-8.972,20-20,20c-19.851,0-36,16.15-36,36v112c0,19.85,16.149,36,36,36c11.028,0,20,8.972,20,20
		c0,2.209,1.791,4,4,4s4-1.791,4-4C91.179,226.16,78.619,213.6,63.179,213.6z"/>
	<g>
		<path class="st14" d="M35.179,161.6h-8c-2.209,0-4-1.791-4-4v-56c0-2.209,1.791-4,4-4h8c2.209,0,4,1.791,4,4v56
			C39.179,159.809,37.389,161.6,35.179,161.6z"/>
	</g>
	<g>
		<path class="st56" d="M23.18,145.6L23.18,145.6c-4.418,0-8-3.582-8-8v-16c0-4.418,3.582-8,8-8h0c8.837,0,16,7.163,16,16v0
			C39.179,138.436,32.016,145.6,23.18,145.6z"/>
	</g>
	<g>
		<path class="st25" d="M271.179,65.6h-8c-4.418,0-8-3.582-8-8v-20c0-2.209,1.791-4,4-4l0,0c2.209,0,4,1.791,4,4v0
			c0,2.209,1.791,4,4,4l0,0c2.209,0,4-1.791,4-4v0c0-2.209,1.791-4,4-4l0,0c2.209,0,4,1.791,4,4v20
			C279.179,62.018,275.598,65.6,271.179,65.6z"/>
	</g>
	<g>
		<g>
			<path class="st14" d="M447.175,401.602v61.66c0,18.97-15.37,34.34-34.33,34.34h-29.67c0-6.63,2.69-12.63,7.03-16.97
				c4.35-4.34,10.35-7.03,16.97-7.03v-40c-22.09,0-40-17.91-40-40v-168c35.35,0,64,28.65,64,64v96
				C431.175,394.432,438.345,401.602,447.175,401.602z"/>
		</g>
	</g>
	<g>
		<path class="st14" d="M247.179,305.6c-22.091,0-40,17.909-40,40v128l0,0c-13.255,0-24,10.745-24,24h24c22.092,0,40-17.909,40-40
			v-72c22.091,0,40-17.909,40-40S269.271,305.6,247.179,305.6z"/>
	</g>
</g>
</svg>
