<?xml version="1.0" encoding="utf-8"?>
<!-- Generator: Adobe Illustrator 23.0.0, SVG Export Plug-In . SVG Version: 6.00 Build 0)  -->
<svg version="1.1" id="Layer_1" xmlns="http://www.w3.org/2000/svg" xmlns:xlink="http://www.w3.org/1999/xlink" x="0px" y="0px"
	 viewBox="0 0 512 512" style="enable-background:new 0 0 512 512;" xml:space="preserve">
<style type="text/css">
	.st0{fill:#323232;}
	.st1{fill:#646464;}
	.st2{fill:#464646;}
	.st3{fill:#FAA51E;}
	.st4{fill:#5A6E82;}
	.st5{fill:#788C9B;}
	.st6{fill:#AAC3D7;}
	.st7{fill:#7DC8AA;}
	.st8{fill:#147864;}
	.st9{fill:#329682;}
	.st10{fill:#FFFFFF;}
	.st11{fill:#9B5FAA;}
	.st12{fill:#463C4B;}
	.st13{fill:#32283C;}
	.st14{fill:#D76E28;}
	.st15{fill:#784687;}
	.st16{fill:#F0915A;}
	.st17{fill:#FAB991;}
	.st18{fill:#D7E6F0;}
	.st19{fill:#82AA41;}
	.st20{fill:#4B8C41;}
	.st21{fill:#A5CD3C;}
	.st22{fill:#FAD241;}
	.st23{fill:#AA5A28;}
	.st24{fill:#F04B37;}
	.st25{fill:#6EA5D7;}
	.st26{fill:#8CAAC8;}
	.st27{fill:#F0697D;}
	.st28{fill:#5A5A6E;}
	.st29{fill:#647DBE;}
	.st30{fill:#2D6E23;}
	.st31{fill:#F58CAA;}
	.st32{fill:#B98C3C;}
	.st33{fill:#C3A050;}
	.st34{fill:#D2C36E;}
	.st35{fill:#64412D;}
	.st36{fill:#DC7846;}
	.st37{fill:#96461E;}
	.st38{fill:#F06423;}
	.st39{fill:#E6AAFA;}
	.st40{fill:#BE82D2;}
	.st41{fill:#FAA037;}
	.st42{fill:#D73228;}
	.st43{fill:#BE281E;}
	.st44{fill:#5064A0;}
	.st45{fill:#8C1E14;}
	.st46{fill:#F5732D;}
	.st47{fill:#FAD7A0;}
	.st48{fill:#964628;}
	.st49{fill:#D24614;}
	.st50{fill:#F5D7A5;}
	.st51{fill:#F58723;}
	.st52{fill:#E65A78;}
	.st53{fill:#643773;}
	.st54{fill:#9B64AA;}
	.st55{fill:#555555;}
	.st56{fill:#FAD2B4;}
</style>
<g>
	<g>
		<path class="st26" d="M428.241,448c0-8.189-3.124-16.379-9.373-22.627l-54.627-54.627V320h-112c-8.837,0-16-7.163-16-16v0v18.746
			l-38.627,38.627c-6.002,6.001-9.373,14.141-9.373,22.627v64c-17.673,0-32,14.327-32,32l0,0c0,8.837,7.163,16,16,16h240
			c8.837,0,16-7.163,16-16L428.241,448L428.241,448z"/>
	</g>
	<g>
		<path class="st26" d="M188.241,160v-56c0-4.418-3.582-8-8-8h-48c-4.418,0-8,3.582-8,8v88c0,17.673,14.327,32,32,32h112v-64
			H188.241z"/>
	</g>
	<g>
		<path class="st17" d="M124.241,16h32c8.837,0,16,7.163,16,16v0h-48c-4.418,0-8-3.582-8-8v0C116.241,19.582,119.823,16,124.241,16z
			"/>
	</g>
	<g>
		<path class="st16" d="M124.241,32v32c0,8.837,7.163,16,16,16v16h32V32H124.241z"/>
	</g>
	<g>
		<path class="st17" d="M164.241,48h-20c-2.209,0-4,1.791-4,4v0c0,6.627,5.373,12,12,12h4c0,8.837,7.164,16,16,16V56
			C172.241,51.582,168.659,48,164.241,48z"/>
	</g>
	<g>
		<path class="st2" d="M260.241,224h-61.333c-8.837,0-16-7.163-16-16V96h77.333V224z"/>
	</g>
	<g>
		<path class="st6" d="M364.241,320h-112c-8.837,0-16-7.163-16-16V192c0-17.673,14.327-32,32-32h96V320z"/>
	</g>
	<g>
		<path class="st18" d="M436.241,96h-64c-4.418,0-8,3.582-8,8v56c-17.673,0-32,14.327-32,32c0,17.673,14.327,32,32,32h48
			c17.673,0,32-14.327,32-32v-88C444.241,99.582,440.659,96,436.241,96z"/>
	</g>
	<g>
		<path class="st6" d="M428.241,448c0-8.189-3.124-16.379-9.373-22.627l-54.627-54.627V304c0-17.673-14.327-32-32-32
			s-32,14.327-32,32v80c0,8.487,3.371,16.626,9.373,22.627L350.987,448h-2.746c-17.673,0-32,14.327-32,32l0,0
			c0,8.837,7.163,16,16,16h80c8.837,0,16-7.163,16-16L428.241,448L428.241,448z"/>
	</g>
	<g>
		<path class="st16" d="M364.241,32v16h-12c-2.209,0-4,1.791-4,4l0,0c0,6.627,5.373,12,12,12h4c0,8.837,7.163,16,16,16v16h32V32
			H364.241z"/>
	</g>
	<g>
		<path class="st17" d="M396.241,16h-32c-4.418,0-8,3.582-8,8s3.582,8,8,8h32v32c0,8.837,7.164,16,16,16V32
			C412.241,23.163,405.078,16,396.241,16z"/>
	</g>
	<g>
		<path class="st17" d="M260.241,176h-32c-17.673,0-32-14.327-32-32V88c0-13.255,10.745-24,24-24h16c13.255,0,24,10.745,24,24V176z"
			/>
	</g>
	<g>
		<rect x="196.241" y="112" class="st16" width="64" height="24"/>
	</g>
	<path class="st2" d="M324.241,120c-8.822,0-16-7.177-16-16v-8c0-20.332-12.648-37.699-30.5-44.695
		c4.076-5.37,6.5-12.059,6.5-19.305c0-4.418-3.582-8-8-8s-8,3.582-8,8c0,8.823-7.178,16-16,16h-37.333c-17.673,0-32,14.327-32,32v24
		c0,4.418,3.582,8,8,8h69.333v96c0,8.837,7.163,16,16,16h16c8.837,0,16-7.163,16-16v-76.305c4.711,2.732,10.173,4.305,16,4.305
		c4.418,0,8-3.582,8-8S328.66,120,324.241,120z"/>
	<g>
		<path class="st24" d="M236.241,144h-48c-17.673,0-32,14.327-32,32v0c0,17.673-14.327,32-32,32h-8c-30.928,0-56,25.072-56,56v16
			c0,30.928,25.072,56,56,56h0c30.928,0,56-25.072,56-56V176c0-8.837,7.163-16,16-16h48c4.418,0,8-3.582,8-8v0
			C244.241,147.582,240.66,144,236.241,144z"/>
	</g>
	<g>
		<g>
			<path class="st18" d="M153.575,264c0-20.619-16.715-37.333-37.333-37.333S78.908,243.381,78.908,264
				c0,11.478,5.184,21.741,13.333,28.589V304c0,2.946,2.388,5.333,5.333,5.333h37.333c2.945,0,5.333-2.388,5.333-5.333v-11.411
				C148.391,285.741,153.575,275.478,153.575,264z"/>
		</g>
		<g>
			<circle class="st24" cx="129.575" cy="266.667" r="10.667"/>
		</g>
		<g>
			<circle class="st24" cx="102.908" cy="266.667" r="10.667"/>
		</g>
	</g>
</g>
</svg>
