<?xml version="1.0" encoding="utf-8"?>
<!-- Generator: Adobe Illustrator 23.0.0, SVG Export Plug-In . SVG Version: 6.00 Build 0)  -->
<svg version="1.1" id="Layer_1" xmlns="http://www.w3.org/2000/svg" xmlns:xlink="http://www.w3.org/1999/xlink" x="0px" y="0px"
	 viewBox="0 0 512 512" style="enable-background:new 0 0 512 512;" xml:space="preserve">
<style type="text/css">
	.st0{fill:#323232;}
	.st1{fill:#646464;}
	.st2{fill:#464646;}
	.st3{fill:#FAA51E;}
	.st4{fill:#5A6E82;}
	.st5{fill:#788C9B;}
	.st6{fill:#AAC3D7;}
	.st7{fill:#7DC8AA;}
	.st8{fill:#147864;}
	.st9{fill:#329682;}
	.st10{fill:#FFFFFF;}
	.st11{fill:#9B5FAA;}
	.st12{fill:#463C4B;}
	.st13{fill:#32283C;}
	.st14{fill:#D76E28;}
	.st15{fill:#784687;}
	.st16{fill:#F0915A;}
	.st17{fill:#FAB991;}
	.st18{fill:#D7E6F0;}
	.st19{fill:#82AA41;}
	.st20{fill:#4B8C41;}
	.st21{fill:#A5CD3C;}
	.st22{fill:#FAD241;}
	.st23{fill:#AA5A28;}
	.st24{fill:#F04B37;}
	.st25{fill:#6EA5D7;}
	.st26{fill:#8CAAC8;}
	.st27{fill:#F0697D;}
	.st28{fill:#5A5A6E;}
	.st29{fill:#647DBE;}
	.st30{fill:#2D6E23;}
	.st31{fill:#F58CAA;}
	.st32{fill:#B98C3C;}
	.st33{fill:#C3A050;}
	.st34{fill:#D2C36E;}
	.st35{fill:#64412D;}
	.st36{fill:#DC7846;}
	.st37{fill:#96461E;}
	.st38{fill:#F06423;}
	.st39{fill:#E6AAFA;}
	.st40{fill:#BE82D2;}
	.st41{fill:#FAA037;}
	.st42{fill:#D73228;}
	.st43{fill:#BE281E;}
	.st44{fill:#5064A0;}
	.st45{fill:#8C1E14;}
	.st46{fill:#F5732D;}
	.st47{fill:#FAD7A0;}
	.st48{fill:#964628;}
	.st49{fill:#D24614;}
	.st50{fill:#F5D7A5;}
	.st51{fill:#F58723;}
	.st52{fill:#E65A78;}
	.st53{fill:#643773;}
	.st54{fill:#9B64AA;}
	.st55{fill:#555555;}
	.st56{fill:#FAD2B4;}
</style>
<g>
	<g>
		<path class="st29" d="M192.241,266.133h-24c-2.122,0-4.157-0.843-5.657-2.343l-8-8c-3.125-3.124-3.125-8.189,0-11.313
			c3.124-3.125,8.189-3.125,11.313,0l5.657,5.657h20.687c4.418,0,8,3.582,8,8S196.66,266.133,192.241,266.133z"/>
	</g>
	<g>
		<path class="st29" d="M216.241,298.133h32v-64h-32c-4.418,0-8,3.582-8,8v48C208.241,294.552,211.823,298.133,216.241,298.133z"/>
	</g>
	<g>
		<path class="st25" d="M184.241,258.133h-16c-4.418,0-8,3.582-8,8h-12.687l-13.657-13.657c-3.124-3.125-8.189-3.125-11.313,0
			c-3.125,3.124-3.125,8.189,0,11.313l16,16c1.5,1.5,3.535,2.343,5.657,2.343h48v-16
			C192.241,261.715,188.66,258.133,184.241,258.133z"/>
	</g>
	<g>
		<g>
			<path class="st3" d="M120.241,58.133h-16v-8c0-4.418,3.582-8,8-8h0c4.418,0,8,3.582,8,8V58.133z"/>
		</g>
		<g>
			<path class="st3" d="M112.241,90.133L112.241,90.133c-4.418,0-8-3.582-8-8v-8h16v8C120.241,86.552,116.66,90.133,112.241,90.133z
				"/>
		</g>
		<g>
			<path class="st3" d="M104.241,58.133v16h-8c-4.418,0-8-3.582-8-8v0c0-4.418,3.582-8,8-8H104.241z"/>
		</g>
		<g>
			<path class="st3" d="M136.241,66.133L136.241,66.133c0,4.418-3.582,8-8,8h-8v-16h8C132.66,58.133,136.241,61.715,136.241,66.133z
				"/>
		</g>
	</g>
	<g>
		<g>
			<path class="st3" d="M216.241,90.133h-16v-8c0-4.418,3.582-8,8-8h0c4.418,0,8,3.582,8,8V90.133z"/>
		</g>
		<g>
			<path class="st3" d="M208.241,122.133L208.241,122.133c-4.418,0-8-3.582-8-8v-8h16v8
				C216.241,118.552,212.66,122.133,208.241,122.133z"/>
		</g>
		<g>
			<path class="st3" d="M200.241,90.133v16h-8c-4.418,0-8-3.582-8-8v0c0-4.418,3.582-8,8-8H200.241z"/>
		</g>
		<g>
			<path class="st3" d="M232.241,98.133L232.241,98.133c0,4.418-3.582,8-8,8h-8v-16h8C228.66,90.133,232.241,93.715,232.241,98.133z
				"/>
		</g>
	</g>
	<g>
		<path class="st29" d="M376.241,290.133h-128v-104c0-17.673,14.327-32,32-32h112v63.778c0,15.794-4.675,31.235-13.436,44.376
			l-2.564,3.846V290.133z"/>
	</g>
	<g>
		<path class="st29" d="M376.241,26.133v16h-12c-2.209,0-4,1.791-4,4l0,0c0,6.627,5.373,12,12,12h4c0,8.836,7.163,16,16,16h32v-48
			H376.241z"/>
	</g>
	<g>
		<rect x="392.241" y="74.133" class="st29" width="32" height="16"/>
	</g>
	<g>
		<path class="st25" d="M408.241,10.133h-32c-4.418,0-8,3.582-8,8s3.582,8,8,8h32v32c0,8.837,7.164,16,16,16v-48
			C424.241,17.297,417.078,10.133,408.241,10.133z"/>
	</g>
	<g>
		<path class="st25" d="M432.241,90.133h-48c-4.418,0-8,3.582-8,8v56c-17.673,0-32,14.327-32,32c0,17.673,14.327,32,32,32h32
			c17.673,0,32-14.327,32-32v-88C440.241,93.715,436.659,90.133,432.241,90.133z"/>
	</g>
	<g>
		<path class="st25" d="M232.241,194.133v40c0,8.837,7.163,16,16,16h8c8.837,0,16-7.163,16-16v-40c0-4.418-3.582-8-8-8h-24
			C235.823,186.133,232.241,189.715,232.241,194.133z"/>
	</g>
	<g>
		<path class="st25" d="M288.241,194.133v40c0,8.837,7.163,16,16,16h8c8.837,0,16-7.163,16-16v-40c0-4.418-3.582-8-8-8h-24
			C291.823,186.133,288.241,189.715,288.241,194.133z"/>
	</g>
	<g>
		<path class="st29" d="M264.241,170.133h56c8.837,0,16-7.163,16-16v-88c0-13.255-10.745-24-24-24h-40c-13.255,0-24,10.745-24,24v88
			C248.241,162.97,255.405,170.133,264.241,170.133z"/>
	</g>
	<g>
		<path class="st25" d="M296.241,170.133h-32c-8.837,0-16-7.163-16-16v-88c0-13.255,10.745-24,24-24h16c13.255,0,24,10.745,24,24v88
			C312.241,162.97,305.078,170.133,296.241,170.133z"/>
	</g>
	<g>
		<rect x="392.241" y="74.133" class="st3" width="32" height="16"/>
	</g>
	<g>
		<rect x="248.241" y="290.133" class="st46" width="128" height="32"/>
	</g>
	<g>
		<rect x="192.241" y="250.133" class="st46" width="16" height="32"/>
	</g>
	<g>
		<path class="st0" d="M264.241,170.133v16c-4.418,0-8,3.582-8,8s3.582,8,8,8h8c8.837,0,16-7.164,16-16v-16H264.241z"/>
	</g>
	<g>
		<path class="st26" d="M248.241,98.133L248.241,98.133c26.51,0,48-21.49,48-48v-8h-32c-13.255,0-24,10.745-24,24v24
			C240.241,94.552,243.823,98.133,248.241,98.133L248.241,98.133z"/>
	</g>
	<g>
		<path class="st18" d="M312.241,98.133L312.241,98.133c-26.51,0-48-21.49-48-48v-8h56c17.673,0,32,14.327,32,32v16
			c0,4.418-3.582,8-8,8H312.241z"/>
	</g>
	<g>
		<path class="st25" d="M328.241,122.133h-16v-24c0-8.837,7.163-16,16-16h16v24C344.241,114.97,337.078,122.133,328.241,122.133z"/>
	</g>
	<g>
		<path class="st3" d="M276.241,90.133L276.241,90.133c-6.627,0-12-5.373-12-12v-40c0-6.627,5.373-12,12-12h0
			c6.627,0,12,5.373,12,12v40C288.241,84.761,282.869,90.133,276.241,90.133z"/>
	</g>
	<g>
		<circle class="st24" cx="276.241" cy="78.133" r="12"/>
	</g>
	<g>
		<path class="st29" d="M248.241,322.133L248.241,322.133c0,26.51,21.49,48,48,48h0c8.837,0,16,7.163,16,16v0
			c0,8.837-7.163,16-16,16h0c-17.673,0-32,14.327-32,32v16h64c8.836,0,16-7.163,16-16v0c0-8.837,7.164-16,16-16l48.952,0.005
			c17.147,0.001,31.048-13.899,31.048-31.046v-1.61c0-17.457-13.897-31.353-31.039-31.351c-0.32,0-0.64,0-0.96,0
			c-17.673,0.001-32.001-14.326-32.001-31.999v0H248.241z"/>
	</g>
	<g>
		<path class="st19" d="M200.241,178.133h-96v48c0,4.418,3.582,8,8,8h80c4.418,0,8-3.582,8-8V178.133z"/>
	</g>
	<g>
		<path class="st21" d="M168.241,178.133h-64v48c0,4.418,3.582,8,8,8h48c4.418,0,8-3.582,8-8V178.133z"/>
	</g>
	<g>
		<rect x="104.241" y="178.133" class="st19" width="64" height="8"/>
	</g>
	<g>
		<path class="st19" d="M200.241,178.133h-96c-4.418,0-8-3.582-8-8v-8c0-4.418,3.582-8,8-8h96c4.418,0,8,3.582,8,8v8
			C208.241,174.552,204.66,178.133,200.241,178.133z"/>
	</g>
	<g>
		<path class="st21" d="M168.241,178.133h-64c-4.418,0-8-3.582-8-8v-8c0-4.418,3.582-8,8-8h64c4.418,0,8,3.582,8,8v8
			C176.241,174.552,172.66,178.133,168.241,178.133z"/>
	</g>
	<g>
		<rect x="128.241" y="178.133" class="st3" width="16" height="56"/>
	</g>
	<g>
		<rect x="128.241" y="178.133" class="st46" width="16" height="8"/>
	</g>
	<g>
		<rect x="128.241" y="154.133" class="st3" width="16" height="24"/>
	</g>
	<path class="st46" d="M178.908,111.467c-10.712,0-20.302,4.885-26.667,12.543c-6.364-7.657-15.955-12.543-26.667-12.543
		c-11.763,0-21.333,9.57-21.333,21.333c0,11.763,9.57,21.333,21.333,21.333h53.333c11.763,0,21.333-9.57,21.333-21.333
		C200.241,121.037,190.671,111.467,178.908,111.467z M125.575,138.133c-2.941,0-5.333-2.393-5.333-5.333
		c0-2.941,2.393-5.333,5.333-5.333c7.432,0,13.863,4.365,16.864,10.667H125.575z M178.908,138.133h-16.864
		c3.001-6.302,9.433-10.667,16.864-10.667c2.941,0,5.333,2.393,5.333,5.333C184.241,135.741,181.849,138.133,178.908,138.133z"/>
	<g>
		<g>
			<path class="st3" d="M96.241,202.133h-16v-8c0-4.418,3.582-8,8-8h0c4.418,0,8,3.582,8,8V202.133z"/>
		</g>
		<g>
			<path class="st3" d="M88.241,234.133L88.241,234.133c-4.418,0-8-3.582-8-8v-8h16v8C96.241,230.552,92.66,234.133,88.241,234.133z
				"/>
		</g>
		<g>
			<path class="st3" d="M80.241,202.133v16h-8c-4.418,0-8-3.582-8-8v0c0-4.418,3.582-8,8-8H80.241z"/>
		</g>
		<g>
			<path class="st3" d="M112.241,210.133L112.241,210.133c0,4.418-3.582,8-8,8h-8v-16h8
				C108.66,202.133,112.241,205.715,112.241,210.133z"/>
		</g>
	</g>
	<g>
		<g>
			<path class="st46" d="M208.241,506.133h-32c-4.418,0-8-3.582-8-8l0,0c0-4.418,3.582-8,8-8h32c4.418,0,8,3.582,8,8l0,0
				C216.241,502.552,212.66,506.133,208.241,506.133z"/>
		</g>
		<path class="st3" d="M140.241,450.133c-11.028,0-20,8.972-20,20s8.972,20,20,20h4c4.418,0,8-3.582,8-8s-3.582-8-8-8h-4
			c-2.206,0-4-1.794-4-4s1.794-4,4-4h12c0,13.255,10.745,24,24,24h32c13.255,0,24-10.745,24-24h16c8.837,0,16-7.164,16-16H140.241z"
			/>
		<path class="st46" d="M208.241,442.133h-8c0-4.418-3.582-8-8-8s-8,3.582-8,8h-8c-4.418,0-8,3.582-8,8h48
			C216.241,445.715,212.66,442.133,208.241,442.133z"/>
	</g>
</g>
</svg>
