<?xml version="1.0" encoding="utf-8"?>
<!-- Generator: Adobe Illustrator 23.0.0, SVG Export Plug-In . SVG Version: 6.00 Build 0)  -->
<svg version="1.1" id="Layer_1" xmlns="http://www.w3.org/2000/svg" xmlns:xlink="http://www.w3.org/1999/xlink" x="0px" y="0px"
	 viewBox="0 0 512 512" style="enable-background:new 0 0 512 512;" xml:space="preserve">
<style type="text/css">
	.st0{fill:#323232;}
	.st1{fill:#646464;}
	.st2{fill:#464646;}
	.st3{fill:#FAA51E;}
	.st4{fill:#5A6E82;}
	.st5{fill:#788C9B;}
	.st6{fill:#AAC3D7;}
	.st7{fill:#7DC8AA;}
	.st8{fill:#147864;}
	.st9{fill:#329682;}
	.st10{fill:#FFFFFF;}
	.st11{fill:#9B5FAA;}
	.st12{fill:#463C4B;}
	.st13{fill:#32283C;}
	.st14{fill:#D76E28;}
	.st15{fill:#784687;}
	.st16{fill:#F0915A;}
	.st17{fill:#FAB991;}
	.st18{fill:#D7E6F0;}
	.st19{fill:#82AA41;}
	.st20{fill:#4B8C41;}
	.st21{fill:#A5CD3C;}
	.st22{fill:#FAD241;}
	.st23{fill:#AA5A28;}
	.st24{fill:#F04B37;}
	.st25{fill:#6EA5D7;}
	.st26{fill:#8CAAC8;}
	.st27{fill:#F0697D;}
	.st28{fill:#5A5A6E;}
	.st29{fill:#647DBE;}
	.st30{fill:#2D6E23;}
	.st31{fill:#F58CAA;}
	.st32{fill:#B98C3C;}
	.st33{fill:#C3A050;}
	.st34{fill:#D2C36E;}
	.st35{fill:#64412D;}
	.st36{fill:#DC7846;}
	.st37{fill:#96461E;}
	.st38{fill:#F06423;}
	.st39{fill:#E6AAFA;}
	.st40{fill:#BE82D2;}
	.st41{fill:#FAA037;}
	.st42{fill:#D73228;}
	.st43{fill:#BE281E;}
	.st44{fill:#5064A0;}
	.st45{fill:#8C1E14;}
	.st46{fill:#F5732D;}
	.st47{fill:#FAD7A0;}
	.st48{fill:#964628;}
	.st49{fill:#D24614;}
	.st50{fill:#F5D7A5;}
	.st51{fill:#F58723;}
	.st52{fill:#E65A78;}
	.st53{fill:#643773;}
	.st54{fill:#9B64AA;}
	.st55{fill:#555555;}
	.st56{fill:#FAD2B4;}
</style>
<g>
	<g>
		<path class="st37" d="M470.821,275.2h-56c-17.645,0-32-14.355-32-32c0-8.822-7.178-16-16-16h-80v-16h80c17.645,0,32,14.355,32,32
			c0,8.822,7.178,16,16,16h56V275.2z"/>
	</g>
	<g>
		<path class="st37" d="M206.821,83.2v80c0,13.255-10.745,24-24,24h0c-13.255,0-24,10.745-24,24v14.667c0,6.627,5.373,12,12,12h0
			c6.627,0,12-5.373,12-12V211.2h0c26.51,0,48-21.49,48-48v-80h208c13.255,0,24-10.745,24-24v0h-232
			C217.566,59.2,206.821,69.945,206.821,83.2z"/>
	</g>
	<g>
		<path class="st37" d="M230.821,83.2v120h24c13.255,0,24-10.745,24-24h16c13.255,0,24-10.745,24-24h16c13.255,0,24-10.745,24-24h16
			c13.255,0,24-10.745,24-24h16c13.255,0,24-10.745,24-24H230.821z"/>
	</g>
	<g>
		<g>
			<g>
				<path class="st37" d="M142.821,115.2v96h0c-35.346,0-64,28.654-64,64v80c-22.09,0-40-17.91-40-40v-104
					c0-22.09,8.96-42.09,23.43-56.57c14.48-14.47,34.48-23.43,56.57-23.43v0c0-8.837,7.163-16,16-16H142.821z"/>
			</g>
		</g>
		<g>
			<path class="st35" d="M310.821,323.2c-22.091,0-40-17.908-40-40v-72h-80v112c0,35.346,28.654,64,64,64h16v32h0
				c-17.673,0-32,14.327-32,32l0,0h32c22.091,0,40-17.909,40-40V323.2L310.821,323.2z"/>
		</g>
		<g>
			<path class="st3" d="M366.821,323.2H216.762c-6.365,0-12.47,2.529-16.971,7.029l-17.941,17.941
				c-4.501,4.501-10.605,7.029-16.971,7.029H78.821v-80c0-35.346,28.654-64,64-64h144c44.183,0,80,35.817,80,80V323.2z"/>
		</g>
		<g>
			<path class="st35" d="M54.821,355.2c-17.673,0-32,14.327-32,32l0,0c0,13.255,10.745,24,24,24v-24h13.333c0,4.418,3.582,8,8,8
				h10.667v-40H54.821z"/>
		</g>
		<g>
			<path class="st38" d="M366.821,299.2v-8c0-44.183-35.817-80-80-80h0v112c0,35.346,28.654,64,64,64h16v64h0
				c22.091,0,40-17.909,40-40v-72h0C384.73,339.2,366.821,321.291,366.821,299.2z"/>
		</g>
		<g>
			<path class="st35" d="M366.821,451.2h-32v0c0-17.673,14.327-32,32-32h0V451.2z"/>
		</g>
		<g>
			<path class="st14" d="M142.821,211.2L142.821,211.2c-35.346,0-64,28.653-64,64v40c0,0.001,0,0.002,0,0.002V403.2
				c0,4.418,3.582,8,8,8h24c4.418,0,8-3.582,8-8v-48c22.091,0,40-17.908,40-40v-88C158.821,218.363,151.658,211.2,142.821,211.2z"/>
		</g>
	</g>
	<g>
		<g>
			<path class="st3" d="M110.821,411.2v16c0,13.25-10.75,24-24,24h-40c0-13.25,10.75-24,24-24h16v-16H110.821z"/>
		</g>
	</g>
	<g>
		<path class="st14" d="M54.821,91.2c-8.836,0-16,7.163-16,16v40h72c17.673,0,32-14.327,32-32v-8h21.333c8.836,0,16-7.163,16-16
			H54.821z"/>
	</g>
	<g>
		<path class="st3" d="M70.821,131.2h-16c-8.836,0-16-7.163-16-16l0,0c-17.673,0-32,14.327-32,32l0,0c0,4.418,3.582,8,8,8v-8h56
			c4.418,0,8-3.582,8-8S75.239,131.2,70.821,131.2z"/>
	</g>
	<g>
		<path class="st14" d="M230.821,83.2v80c0,13.255-10.745,24-24,24h0c-13.255,0-24,10.745-24,24v14.667c0,6.627,5.373,12,12,12h0
			c6.627,0,12-5.373,12-12V211.2h0c26.51,0,48-21.49,48-48v-80h208c13.255,0,24-10.745,24-24v0h-232
			C241.566,59.2,230.821,69.945,230.821,83.2z"/>
	</g>
	<g>
		<path class="st38" d="M502.821,267.2c0,0-32.954,20-44,20c-11.046,0-20-8.954-20-20c0-11.046,8.954-20,20-20
			C469.867,247.2,502.821,267.2,502.821,267.2z"/>
	</g>
</g>
</svg>
