<?xml version="1.0" encoding="utf-8"?>
<!-- Generator: Adobe Illustrator 23.0.0, SVG Export Plug-In . SVG Version: 6.00 Build 0)  -->
<svg version="1.1" id="Layer_1" xmlns="http://www.w3.org/2000/svg" xmlns:xlink="http://www.w3.org/1999/xlink" x="0px" y="0px"
	 viewBox="0 0 512 512" style="enable-background:new 0 0 512 512;" xml:space="preserve">
<style type="text/css">
	.st0{fill:#323232;}
	.st1{fill:#646464;}
	.st2{fill:#464646;}
	.st3{fill:#FAA51E;}
	.st4{fill:#5A6E82;}
	.st5{fill:#788C9B;}
	.st6{fill:#AAC3D7;}
	.st7{fill:#7DC8AA;}
	.st8{fill:#147864;}
	.st9{fill:#329682;}
	.st10{fill:#FFFFFF;}
	.st11{fill:#9B5FAA;}
	.st12{fill:#463C4B;}
	.st13{fill:#32283C;}
	.st14{fill:#D76E28;}
	.st15{fill:#784687;}
	.st16{fill:#F0915A;}
	.st17{fill:#FAB991;}
	.st18{fill:#D7E6F0;}
	.st19{fill:#82AA41;}
	.st20{fill:#4B8C41;}
	.st21{fill:#A5CD3C;}
	.st22{fill:#FAD241;}
	.st23{fill:#AA5A28;}
	.st24{fill:#F04B37;}
	.st25{fill:#6EA5D7;}
	.st26{fill:#8CAAC8;}
	.st27{fill:#F0697D;}
	.st28{fill:#5A5A6E;}
	.st29{fill:#647DBE;}
	.st30{fill:#2D6E23;}
	.st31{fill:#F58CAA;}
	.st32{fill:#B98C3C;}
	.st33{fill:#C3A050;}
	.st34{fill:#D2C36E;}
	.st35{fill:#64412D;}
	.st36{fill:#DC7846;}
	.st37{fill:#96461E;}
	.st38{fill:#F06423;}
	.st39{fill:#E6AAFA;}
	.st40{fill:#BE82D2;}
	.st41{fill:#FAA037;}
	.st42{fill:#D73228;}
	.st43{fill:#BE281E;}
	.st44{fill:#5064A0;}
	.st45{fill:#8C1E14;}
	.st46{fill:#F5732D;}
	.st47{fill:#FAD7A0;}
	.st48{fill:#964628;}
	.st49{fill:#D24614;}
	.st50{fill:#F5D7A5;}
	.st51{fill:#F58723;}
	.st52{fill:#E65A78;}
	.st53{fill:#643773;}
	.st54{fill:#9B64AA;}
	.st55{fill:#555555;}
	.st56{fill:#FAD2B4;}
</style>
<g>
	<g>
		<path class="st35" d="M135.179,376v-40h-64c-8.837,0-16,7.163-16,16v56c0,15.464,12.536,28,28,28s28-12.536,28-28h-16v-32H135.179
			z"/>
	</g>
	<g>
		<path class="st35" d="M359.179,280v-32c0-26.51,21.49-48,48-48h0c26.51,0,48,21.49,48,48v112h0c-26.51,0-48-21.49-48-48v-64
			c0-8.837-7.163-16-16-16h0c-8.837,0-16,7.163-16,16v32H359.179z"/>
	</g>
	<g>
		<path class="st23" d="M327.179,216h-112c-17.673,0-32-14.327-32-32v-16h-96v160c0,26.51,21.49,48,48,48h256v-96
			C391.179,244.653,362.526,216,327.179,216z"/>
	</g>
	<g>
		<g>
			<path class="st35" d="M351.179,392v61.66c0,18.97-15.37,34.34-34.34,34.34h-29.66c0-13.25,10.75-24,24-24v-40
				c-22.09,0-40-17.91-40-40v-8h64C335.179,384.84,342.339,392,351.179,392z"/>
		</g>
	</g>
	<g>
		<path class="st35" d="M135.179,464L135.179,464c-13.255,0-24,10.745-24,24v0h24V464z"/>
	</g>
	<path class="st14" d="M175.179,296c-22.091,0-40,17.908-40,40v152h0c22.091,0,40-17.908,40-40v-72c22.091,0,40-17.908,40-40
		S197.271,296,175.179,296z"/>
	<g>
		<g>
			<path class="st3" d="M159.179,61.333L159.179,61.333l7.515,7.515c5.433,5.433,8.485,12.802,8.485,20.485c0,6.627-5.373,12-12,12
				h-1.333c-5.891,0-10.667-4.776-10.667-10.667l0,0c0-30.928-25.072-56-56-56l0,0l11.124,11.125
				c4.829,4.829,7.542,11.379,7.542,18.209s-2.713,13.38-7.542,18.209L93.807,94.706c-14.488,14.488-22.627,34.138-22.627,54.627
				c0,35.347,28.654,64,64,64s64-28.653,64-64v-48C199.179,79.242,181.271,61.333,159.179,61.333z"/>
		</g>
		<g>
			<path class="st3" d="M151.179,16v25.333c0,6.627,5.373,12,12,12h0c6.627,0,12-5.373,12-12V40
				C175.179,26.745,164.434,16,151.179,16L151.179,16z"/>
		</g>
	</g>
	<g>
		<path class="st22" d="M135.18,117.333L135.18,117.333c-1.592,0-3.128,0.548-4.367,1.548c-6.372,5.149-25.42,23.224-25.735,55.536
			c-0.164,16.84,13.544,31.069,30.384,30.914c16.497-0.152,29.823-13.571,29.823-30.103c0-32.828-19.322-51.164-25.743-56.35
			C138.305,117.879,136.77,117.333,135.18,117.333z"/>
	</g>
	<g>
		<circle class="st10" cx="135.179" cy="189.333" r="16"/>
	</g>
	<g>
		<path class="st35" d="M367.179,464L367.179,464c-13.255,0-24,10.745-24,24v0h24V464z"/>
	</g>
	<path class="st14" d="M407.179,392c-8.837,0-16-7.163-16-16v-96c0-35.347-28.654-64-64-64h0v168c0,22.092,17.909,40,40,40h0v64
		h5.664c18.963,0,34.336-15.373,34.336-34.336V392L407.179,392z"/>
</g>
</svg>
