<svg id="Layer_3" data-name="Layer 3" xmlns="http://www.w3.org/2000/svg" viewBox="0 0 128 128"><title>Artboard 105</title><rect x="45.028" y="39.506" width="37.944" height="65.762" rx="6.673" ry="6.673" style="fill:#ffd834"/><path d="M51.22,98.595V46.179a6.692,6.692,0,0,1,6.673-6.673H51.7a6.693,6.693,0,0,0-6.673,6.673V98.595a6.693,6.693,0,0,0,6.673,6.673h6.192A6.692,6.692,0,0,1,51.22,98.595Z" style="fill:#fff74f"/><rect x="51.22" y="50.235" width="25.56" height="44.304" rx="6.673" ry="6.673" style="fill:#ededed"/><path d="M57.412,87.866V56.907a6.693,6.693,0,0,1,6.673-6.673H57.893a6.692,6.692,0,0,0-6.673,6.673V87.866a6.692,6.692,0,0,0,6.673,6.673h6.192A6.692,6.692,0,0,1,57.412,87.866Z" style="fill:#fff"/><polygon points="82.972 22.732 72.524 22.732 55.476 22.732 55.476 29.882 55.476 39.506 72.524 39.506 72.524 29.882 82.972 29.882 82.972 22.732" style="fill:#ededed"/><rect x="55.476" y="22.732" width="5.91" height="16.774" style="fill:#fff"/><path d="M57.893,48.9a8.016,8.016,0,0,0-8.007,8.008V87.866a8.016,8.016,0,0,0,8.007,8.007H70.107a8.016,8.016,0,0,0,8.007-8.007V56.907A8.016,8.016,0,0,0,70.107,48.9Zm17.553,8.008V87.866A5.344,5.344,0,0,1,70.107,93.2H57.893a5.344,5.344,0,0,1-5.338-5.338V56.907a5.344,5.344,0,0,1,5.338-5.338H70.107A5.344,5.344,0,0,1,75.446,56.907Z" style="fill:#001a2d"/><path d="M82.972,31.217a1.334,1.334,0,0,0,1.335-1.335v-7.15A1.334,1.334,0,0,0,82.972,21.4h-27.5a1.334,1.334,0,0,0-1.335,1.335V38.171H51.7a8.016,8.016,0,0,0-8.007,8.007V98.595A8.016,8.016,0,0,0,51.7,106.6H76.3a8.016,8.016,0,0,0,8.008-8.007V46.179A8.016,8.016,0,0,0,76.3,38.171H73.858V31.217Zm-1.335-2.669H73.858V24.067h7.779ZM71.189,24.067v4.481H56.811V24.067ZM81.638,46.179V98.595a5.344,5.344,0,0,1-5.338,5.338H51.7a5.344,5.344,0,0,1-5.338-5.338V46.179A5.344,5.344,0,0,1,51.7,40.84H76.3A5.344,5.344,0,0,1,81.638,46.179ZM71.189,38.171H56.811V31.217H71.189Z" style="fill:#001a2d"/></svg>