<svg id="Layer_3" data-name="Layer 3" xmlns="http://www.w3.org/2000/svg" viewBox="0 0 128 128"><title>Artboard 107</title><path d="M28.455,33.032h0a5.04,5.04,0,0,1,5.038-5.039H82.737a5.038,5.038,0,0,1,5.039,5.039h0l-.159,1.315-4.439,65.845a5.565,5.565,0,0,1-5.55,5.548H38.605a5.565,5.565,0,0,1-5.549-5.548L28.617,34.347Z" style="fill:#3bb7d6"/><path d="M40.088,100.193,35.649,34.348l-.162-1.315a5.04,5.04,0,0,1,5.038-5.039H33.494a5.04,5.04,0,0,0-5.038,5.039l.162,1.315,4.439,65.845a5.564,5.564,0,0,0,5.549,5.548h7.032A5.564,5.564,0,0,1,40.088,100.193Z" style="fill:#7ccbd8"/><path d="M64.058,70.189a.919.919,0,0,0,.782-.435l2.969-4.774a.922.922,0,0,0-1.123-1.344l-.519.206-2.534-5.621a.92.92,0,0,0-.839-.543H54.034a.925.925,0,0,0-.709.334l-4.94,5.952a.922.922,0,0,0,.159,1.328L53.5,68.98a.92.92,0,0,0,1.288-.188l2.891-3.867,1.048,1.869-.613.306a.923.923,0,0,0,.2,1.722l5.534,1.341A.865.865,0,0,0,64.058,70.189Zm-10.2-3.239-3.435-2.557,4.043-4.87h.28l1.949,3.63Zm6.991.59c.01-.027.021-.056.029-.082a.918.918,0,0,0-.076-.722L58.6,62.792l-1.754-3.269H62.2L64.848,65.4a.921.921,0,0,0,.3.366l-1.522,2.442Z" style="fill:#001a2d"/><path d="M55.8,77.408l-4.827-.224.962-1.916.594.335a.92.92,0,0,0,1.316-1.123L51.86,69.144a.919.919,0,0,0-.9-.6l-5.617.218a.921.921,0,0,0-.479,1.684l.456.313-3.232,5.248a.917.917,0,0,0,.021,1l3.756,5.549,1.428,2.2a.922.922,0,0,0,.772.418h7.689a.921.921,0,0,0,.923-.92l.005-5.926A.924.924,0,0,0,55.8,77.408Zm-11.834-.94,3.386-5.493a.961.961,0,0,0,.138-.45l2.872-.112,1,2.676a.788.788,0,0,0-.083.021.912.912,0,0,0-.555.469l-2.03,4.046h0l-1.735,3.306Zm10.864,6.864H48.562l-.441-.659,1.936-3.688,4.776.223Z" style="fill:#001a2d"/><path d="M70.648,68.916a.912.912,0,0,0-.553-.475.944.944,0,0,0-.725.073l-5.4,3a.922.922,0,0,0-.357,1.252L65.959,77l-2.135.188L63.8,76.5a.922.922,0,0,0-1.647-.529l-3.5,4.5a.922.922,0,0,0-.039,1.081l3.138,4.667a.922.922,0,0,0,1.686-.474l.024-.556,6.167-.005a.92.92,0,0,0,.839-.544l3.594-7.986a.925.925,0,0,0-.013-.783Zm-4.973,3.766L69.418,70.6,72.2,76.286l-.114.253-4.118.288Zm3.357,10.652-6.454,0a.915.915,0,0,0-.456.121l-1.6-2.388,1.752-2.255c.021.022.042.042.063.061a.9.9,0,0,0,.688.227l4.512-.4h0l3.694-.26Z" style="fill:#001a2d"/><polygon points="53.862 66.951 50.426 64.394 54.469 59.523 54.749 59.523 56.698 63.154 53.862 66.951" style="fill:#ededed"/><path d="M60.852,67.541c.01-.027.021-.056.029-.082a.918.918,0,0,0-.076-.722L58.6,62.792l-1.754-3.269H62.2L64.848,65.4a.921.921,0,0,0,.3.366l-1.522,2.442Z" style="fill:#ededed"/><polygon points="65.675 72.683 69.418 70.6 72.204 76.286 72.09 76.54 67.972 76.828 65.675 72.683" style="fill:#ededed"/><path d="M69.032,83.335l-6.454,0a.915.915,0,0,0-.456.121l-1.6-2.388,1.752-2.255c.021.022.042.042.063.061a.9.9,0,0,0,.688.227l4.512-.4h0l3.694-.26Z" style="fill:#ededed"/><path d="M43.967,76.469l3.386-5.493a.961.961,0,0,0,.138-.45l2.872-.112,1,2.676a.788.788,0,0,0-.083.021.912.912,0,0,0-.555.469l-2.03,4.046h0l-1.735,3.306Z" style="fill:#ededed"/><polygon points="54.831 83.333 48.562 83.333 48.121 82.675 50.057 78.987 54.834 79.21 54.831 83.333" style="fill:#ededed"/><path d="M31.59,98.249l.131,1.944a6.891,6.891,0,0,0,6.884,6.883H77.628a6.868,6.868,0,0,0,6.881-6.793l4.432-65.775.159-1.315a1.3,1.3,0,0,0,.009-.16,6.381,6.381,0,0,0-6.373-6.373H72.247a7.074,7.074,0,0,0-6.934-5.735H52.1a7.074,7.074,0,0,0-6.934,5.735H33.494a6.381,6.381,0,0,0-6.373,6.373,1.37,1.37,0,0,0,.01.163l.154,1.242,4.3,63.8v0Zm46.038,6.158H38.605a4.243,4.243,0,0,1-4.217-4.3l-.036-.529H81.789c.035,0,.064-.017.1-.02l-.043.639A4.219,4.219,0,0,1,77.628,104.406Zm4.433-7.447a1.281,1.281,0,0,0-.272-.055H34.172L30.623,44.292H85.609ZM52.1,23.594H65.312a4.39,4.39,0,0,1,4.171,3.065H47.934A4.39,4.39,0,0,1,52.1,23.594ZM33.494,29.328H82.737a3.708,3.708,0,0,1,3.7,3.631l-.155,1.3-.5,7.365H30.443l-.5-7.438-.15-1.228A3.707,3.707,0,0,1,33.494,29.328Z" style="fill:#001a2d"/></svg>