<svg id="Layer_3" data-name="Layer 3" xmlns="http://www.w3.org/2000/svg" viewBox="0 0 128 128"><title>Artboard 106</title><path d="M87.742,96a8.356,8.356,0,0,1-8.332,8.331H48.586A8.355,8.355,0,0,1,40.255,96V41.015a8.355,8.355,0,0,1,8.331-8.331H64c3.262,0,15.441,14.064,20.548,19.916,3.362,3.85,3.2,11.95,3.2,11.95Z" style="fill:#3bb7d6"/><path d="M47.271,104.216V32.8a8.354,8.354,0,0,0-7.016,8.216V96A8.354,8.354,0,0,0,47.271,104.216Z" style="fill:#7ccbd8"/><rect x="40.255" y="60.177" width="47.487" height="16.66" style="fill:#ededed"/><rect x="40.255" y="60.177" width="7.016" height="16.66" style="fill:#fff"/><path d="M60.506,22.335H50.763a4.831,4.831,0,0,0-4.826,4.826v4.567a9.676,9.676,0,0,0-7.016,9.287V96a9.676,9.676,0,0,0,9.665,9.665H79.41A9.677,9.677,0,0,0,89.077,96V64.577c.007-.352.135-8.664-3.525-12.854l-.413-.474c-10.9-12.5-16.655-18.218-19.806-19.567V28.176a1.329,1.329,0,0,0-.1-.508,1.327,1.327,0,0,0,.1-.508A4.832,4.832,0,0,0,60.506,22.335ZM50.763,25h9.743a2.16,2.16,0,0,1,2.158,2.157,1.327,1.327,0,0,0,.1.508,1.329,1.329,0,0,0-.1.508V31.35H48.606V27.161A2.159,2.159,0,0,1,50.763,25ZM86.408,64.55V75.5H41.59V61.512H86.247A28.82,28.82,0,0,1,86.408,64.55ZM79.41,103H48.586a7,7,0,0,1-7-7V78.172H86.408V96A7,7,0,0,1,79.41,103ZM83.127,53l.414.476a12.029,12.029,0,0,1,2.3,5.364H41.59V41.015a7,7,0,0,1,7-7H63.991C65.816,34.151,72.255,40.538,83.127,53Z" style="fill:#001a2d"/><path d="M62.664,28.176a1.329,1.329,0,0,1,.1-.508,1.327,1.327,0,0,1-.1-.508A2.16,2.16,0,0,0,60.506,25H50.763a2.159,2.159,0,0,0-2.157,2.157V31.35H62.664Z" style="fill:#ffd834"/><path d="M54.016,25H50.763a2.159,2.159,0,0,0-2.157,2.157V31.35h3.253V27.161A2.159,2.159,0,0,1,54.016,25Z" style="fill:#fff74f"/></svg>