<svg id="Layer_3" data-name="Layer 3" xmlns="http://www.w3.org/2000/svg" viewBox="0 0 128 128"><title>Artboard 100</title><path d="M38.943,78.218l2.825,8.123c5.974.471,11.909.68,17.626.708l4.262-10.9,3.766,10.82c6.519-.154,12.6-.512,17.949-.944l3-7.67,2.5,7.18c9.785-.955,16-2.01,16-2.01s-9.983-10.571-9.983-23.492H31.112c0,12.921-9.983,23.492-9.983,23.492,4.864.988,9.848,1.73,14.844,2.27Z" style="fill:#ffd834"/><path d="M27.691,83.53s9.983-10.571,9.983-23.492H31.112c0,12.921-9.983,23.492-9.983,23.492,4.864.988,9.848,1.73,14.844,2.27l.312-.8C33.395,84.587,30.521,84.1,27.691,83.53Z" style="fill:#fff74f"/><path d="M64,48.293H86.63l2.036,11.745h8.221l-2.057-15.71h-.112a5,5,0,0,0-5.025-3.377H38.306a5,5,0,0,0-5.025,3.377h-.112l-2.057,15.71h8.221l2.036-11.745Z" style="fill:#d59326"/><path d="M37.618,44.328a5,5,0,0,1,5.025-3.377H38.306a5,5,0,0,0-5.025,3.377h-.112l-2.057,15.71H35.45l2.057-15.71Z" style="fill:#dda64e"/><polygon points="86.63 48.293 88.666 60.038 92.082 60.038 90.046 48.293 86.63 48.293" style="fill:#dda64e"/><path d="M107.841,82.614c-.1-.1-9.62-10.357-9.62-22.576,0-.032-.016-.06-.018-.091s.01-.054.007-.082l-2.057-15.71a1.2,1.2,0,0,0-.285-.625,6.389,6.389,0,0,0-6.175-3.913H38.306a6.407,6.407,0,0,0-6.149,3.84,1.331,1.331,0,0,0-.311.7l-2.057,15.71c0,.028.009.054.007.082s-.018.059-.018.092c0,12.22-9.523,22.474-9.62,22.576a1.335,1.335,0,0,0,.705,2.223c4.681.951,9.717,1.721,14.967,2.289a1.342,1.342,0,0,0,1.387-.84l1.651-4.22,1.64,4.713a1.333,1.333,0,0,0,1.156.892c5.624.442,11.588.682,17.723.712h.007a1.336,1.336,0,0,0,1.243-.848L63.583,80l2.579,7.409a1.288,1.288,0,0,0,1.292.9c5.891-.139,11.955-.457,18.025-.948a1.335,1.335,0,0,0,1.136-.844L88.3,82.21l1.312,3.769A1.345,1.345,0,0,0,91,86.868c9.72-.949,16.031-2.012,16.093-2.022a1.334,1.334,0,0,0,.748-2.231Zm-73.416-37.6a1.348,1.348,0,0,0,.149-.359,3.7,3.7,0,0,1,3.733-2.371H89.693a3.7,3.7,0,0,1,3.732,2.371,1.12,1.12,0,0,0,.146.333L95.366,58.7H89.789L87.945,48.065a1.335,1.335,0,0,0-1.315-1.106H41.369a1.335,1.335,0,0,0-1.315,1.106L38.21,58.7H32.633ZM87.08,58.7H40.919l1.573-9.076H85.507Zm4.706,25.4-2.154-6.187a1.336,1.336,0,0,0-1.236-.9,1.315,1.315,0,0,0-1.268.848l-2.7,6.892c-5.409.422-10.806.708-16.071.849l-3.446-9.9a1.335,1.335,0,0,0-2.5-.047L58.486,85.708c-5.435-.045-10.722-.257-15.744-.631l-2.539-7.3a1.335,1.335,0,0,0-1.234-.9h-.026a1.335,1.335,0,0,0-1.243.848L35.1,84.361c-3.982-.453-7.83-1.025-11.479-1.7,2.76-3.468,8.311-11.584,8.789-21.283H95.585c.476,9.625,5.944,17.692,8.726,21.2C101.812,82.943,97.435,83.538,91.786,84.108Z" style="fill:#001a2d"/></svg>