<svg id="Layer_3" data-name="Layer 3" xmlns="http://www.w3.org/2000/svg" viewBox="0 0 128 128"><title>Artboard 98</title><path d="M68.171,93.028V26.8c0-3.041-1.866-5.505-4.171-5.505h0c-2.3,0-4.171,2.465-4.171,5.505V93.028Z" style="fill:#d59326"/><path d="M66.086,22.058A3.414,3.414,0,0,0,64,21.294c-2.3,0-4.171,2.465-4.171,5.505V93.028H64V26.8A5.963,5.963,0,0,1,66.086,22.058Z" style="fill:#dda64e"/><path d="M62.732,93.394H41.982a7.992,7.992,0,0,0-7.993,7.994v5.317H94.011v-5.317a7.993,7.993,0,0,0-7.993-7.994H62.732Z" style="fill:#a3a3a3"/><path d="M46.505,93.394H41.982a7.992,7.992,0,0,0-7.993,7.994v5.317h4.523v-5.317A7.992,7.992,0,0,1,46.505,93.394Z" style="fill:#ededed"/><polygon points="34.512 98.552 39.443 93.394 88.377 93.394 94.011 98.552 34.512 98.552" style="fill:#ededed"/><path d="M34.518,98.547l0,.006h4.523a7.987,7.987,0,0,1,7.466-5.158H41.982a7.964,7.964,0,0,0-3.163.653Z" style="fill:#fff"/><path d="M33.989,108.041H94.011a1.335,1.335,0,0,0,1.334-1.335v-5.317a9.266,9.266,0,0,0-.627-3.337l-.011-.029a9.335,9.335,0,0,0-8.689-5.963H69.505V26.8c0-3.772-2.47-6.84-5.505-6.84s-5.505,3.068-5.505,6.84v65.26H41.982a9.336,9.336,0,0,0-8.69,5.964l-.01.027a9.266,9.266,0,0,0-.628,3.338v5.317A1.335,1.335,0,0,0,33.989,108.041Zm58.688-2.669H35.323v-3.983a6.616,6.616,0,0,1,.186-1.5H92.491a6.616,6.616,0,0,1,.186,1.5ZM64,22.629c1.537,0,2.836,1.909,2.836,4.171v6.907H61.164V26.8C61.164,24.538,62.463,22.629,64,22.629ZM61.164,36.376h5.672V92.059H61.164ZM41.982,94.729H86.018a6.619,6.619,0,0,1,5.149,2.489H36.833A6.62,6.62,0,0,1,41.982,94.729Z" style="fill:#001a2d"/></svg>