<svg id="Layer_3" data-name="Layer 3" xmlns="http://www.w3.org/2000/svg" viewBox="0 0 128 128"><title>Artboard 97</title><path d="M67.81,80.418v-60.5c0-2.777-1.706-5.028-3.81-5.028h0c-2.1,0-3.81,2.251-3.81,5.028v60.5Z" style="fill:#d59326"/><path d="M65.627,15.387a3.047,3.047,0,0,0-1.626-.5c-2.1,0-3.809,2.251-3.809,5.028v60.5h3.253v-60.5A5.307,5.307,0,0,1,65.627,15.387Z" style="fill:#dda64e"/><path d="M86.655,105.114V91.324a10.938,10.938,0,0,0-10.9-10.906H52.25a10.938,10.938,0,0,0-10.9,10.906v13.79s.558,7.923-5.538,7.923c0,0,5.976.669,10.574-2.063,8.324-4.947,8.855-14.949,8.855-14.949l3.048,17.085h11.43l3.048-17.085s.532,10,8.855,14.949c4.6,2.732,10.575,2.063,10.575,2.063C86.1,113.037,86.655,105.114,86.655,105.114Z" style="fill:#ffd834"/><path d="M45.154,105.114V91.324a10.938,10.938,0,0,1,10.9-10.906H52.25a10.938,10.938,0,0,0-10.9,10.906v13.79s.558,7.923-5.538,7.923a21.457,21.457,0,0,0,5.564-.277C45.584,111.387,45.154,105.114,45.154,105.114Z" style="fill:#fff74f"/><path d="M35.659,114.363c.262.029,6.479.683,11.4-2.243a19.151,19.151,0,0,0,7.976-9.608l1.933,10.832a1.335,1.335,0,0,0,1.314,1.1h5.308A1.308,1.308,0,0,0,64,114.38a1.308,1.308,0,0,0,.407.064h5.308a1.335,1.335,0,0,0,1.314-1.1l1.933-10.832A17.773,17.773,0,0,0,90.5,114.445a18,18,0,0,0,1.837-.082,1.335,1.335,0,0,0-.148-2.661,3.5,3.5,0,0,1-2.708-1.06c-1.423-1.52-1.564-4.44-1.495-5.529V91.324a12.254,12.254,0,0,0-12.239-12.24H69.144V19.917c0-3.509-2.307-6.363-5.144-6.363s-5.144,2.854-5.144,6.363V79.083H52.25A12.254,12.254,0,0,0,40.01,91.324l0,13.882c.066,1-.075,3.918-1.5,5.437a3.5,3.5,0,0,1-2.708,1.06,1.335,1.335,0,0,0-.149,2.661ZM64,16.224c1.342,0,2.475,1.692,2.475,3.694v6.195h-4.95V19.917C61.525,17.916,62.658,16.224,64,16.224ZM61.525,28.781h4.95v50.3h-4.95ZM75.751,81.752a9.528,9.528,0,0,1,6.6,2.656h-36.7a9.528,9.528,0,0,1,6.6-2.656ZM42.679,105.114V91.324a9.5,9.5,0,0,1,1.006-4.246H84.315a9.5,9.5,0,0,1,1.006,4.246l0,13.7a12.082,12.082,0,0,0,1.421,6.407,13.715,13.715,0,0,1-4.446-1.6c-7.587-4.508-8.2-13.781-8.2-13.874a1.335,1.335,0,0,0-2.646-.162L68.6,111.775H64.407a1.357,1.357,0,0,0-.407.062,1.357,1.357,0,0,0-.407-.062H59.4L56.55,95.79a1.335,1.335,0,0,0-2.646.162c-.005.093-.617,9.365-8.2,13.874a13.741,13.741,0,0,1-4.445,1.6A11.973,11.973,0,0,0,42.679,105.114Z" style="fill:#001a2d"/></svg>