<svg id="Layer_1" data-name="Layer 1" xmlns="http://www.w3.org/2000/svg" viewBox="0 0 128 128"><title>DOMOTICS</title><path d="M84.509,115.736H97.036a8.174,8.174,0,0,0,8.174-8.174V53.336L64,24.929,22.79,53.335v54.227a8.174,8.174,0,0,0,8.174,8.174H43.491" style="fill:#6f6571"/><rect x="43.491" y="47.727" width="41.018" height="73.934" rx="3.006" ry="3.006" style="fill:#6f6571"/><path d="M43.491,49.659V54.5H55.666a2.254,2.254,0,0,1,2.109,1.457h0a2.254,2.254,0,0,0,2.109,1.457h8.234a2.254,2.254,0,0,0,2.109-1.457h0A2.254,2.254,0,0,1,72.334,54.5H84.509V49.659a1.932,1.932,0,0,0-1.932-1.932H45.423A1.932,1.932,0,0,0,43.491,49.659Z" style="fill:#8bb3ea"/><circle cx="64" cy="92.874" r="2.536" style="fill:#e04955"/><polygon points="40.269 29.994 27.21 38.981 27.21 17.197 40.269 17.197 40.269 29.994" style="fill:#fc8427"/><rect x="24.275" y="9.112" width="18.929" height="8.085" style="fill:#fcc434"/><path d="M114.917,59.033a4.632,4.632,0,0,1-2.634-.822L64,24.929,15.718,58.211a4.649,4.649,0,0,1-5.277-7.656l50.921-35.1a4.649,4.649,0,0,1,5.277,0l50.921,35.1a4.65,4.65,0,0,1-2.643,8.478Z" style="fill:#4b3f4e"/><path d="M118.553,49.115l-50.921-35.1a6.435,6.435,0,0,0-7.263,0L42.019,26.663V18.947H43.2a1.75,1.75,0,0,0,1.75-1.75V9.111a1.75,1.75,0,0,0-1.75-1.75H24.275a1.75,1.75,0,0,0-1.75,1.75V17.2a1.75,1.75,0,0,0,1.75,1.75H25.46v19.13L9.448,49.114a6.4,6.4,0,0,0,2.475,11.563,6.428,6.428,0,0,0,1.17.107,6.349,6.349,0,0,0,3.618-1.133l4.329-2.984v50.9a9.935,9.935,0,0,0,9.924,9.924H41.741v1.169a4.761,4.761,0,0,0,4.756,4.756H81.5a4.761,4.761,0,0,0,4.756-4.756v-1.169H97.036a9.935,9.935,0,0,0,9.924-9.924v-50.9l4.33,2.985a6.4,6.4,0,0,0,7.263-10.537ZM26.025,10.861H41.454v4.586H26.025Zm12.494,8.086V29.074L28.96,35.652V18.947Zm44.24,31.785V52.75H72.334a4.025,4.025,0,0,0-3.746,2.589.506.506,0,0,1-.471.325H59.883a.506.506,0,0,1-.472-.326,4.024,4.024,0,0,0-3.746-2.588H45.241V50.732A1.257,1.257,0,0,1,46.5,49.477H81.5A1.257,1.257,0,0,1,82.759,50.732Zm0,67.923a1.257,1.257,0,0,1-1.256,1.256H46.5a1.257,1.257,0,0,1-1.256-1.256V56.25H55.666a.506.506,0,0,1,.472.325,4.023,4.023,0,0,0,3.746,2.589h8.234a4.022,4.022,0,0,0,3.745-2.588.507.507,0,0,1,.472-.326H82.759Zm20.7-11.093a6.431,6.431,0,0,1-6.424,6.424H86.259V49.659a3.687,3.687,0,0,0-3.682-3.683H45.423a3.687,3.687,0,0,0-3.682,3.683v64.327H30.964a6.431,6.431,0,0,1-6.424-6.424V54.255L64,27.054l39.46,27.2Zm13.847-51.534a2.969,2.969,0,0,1-4.032.742L64.994,23.488a1.748,1.748,0,0,0-1.987,0L21.8,51.895l0,0-7.068,4.872A2.9,2.9,0,0,1,11.434,52l29.7-20.471.13-.09h0l21.094-14.54a2.919,2.919,0,0,1,3.291,0L116.567,52A2.9,2.9,0,0,1,117.307,56.028Z" style="fill:#1f2632"/><path d="M64,72.229a23.426,23.426,0,0,0-15.4,5.755,1.75,1.75,0,1,0,2.352,2.592,19.977,19.977,0,0,1,26.089,0A1.75,1.75,0,1,0,79.4,77.983,23.426,23.426,0,0,0,64,72.229Z" style="fill:#1f2632"/><path d="M64,78.219a18.184,18.184,0,0,0-11.91,4.589A1.75,1.75,0,1,0,54.442,85.4a14.251,14.251,0,0,1,19.116,0,1.75,1.75,0,1,0,2.352-2.592A18.184,18.184,0,0,0,64,78.219Z" style="fill:#1f2632"/><path d="M64,84.208a12.975,12.975,0,0,0-8.423,3.424,1.75,1.75,0,1,0,2.352,2.592A9.6,9.6,0,0,1,64,87.708a9.6,9.6,0,0,1,6.072,2.516,1.75,1.75,0,1,0,2.352-2.592A12.975,12.975,0,0,0,64,84.208Z" style="fill:#1f2632"/><path d="M64,97.159a4.286,4.286,0,1,0-4.286-4.285A4.29,4.29,0,0,0,64,97.159Zm0-5.071a.786.786,0,1,1-.786.786A.787.787,0,0,1,64,92.088Z" style="fill:#1f2632"/><path d="M61.19,54.32H66.81a1.75,1.75,0,0,0,0-3.5H61.19a1.75,1.75,0,0,0,0,3.5Z" style="fill:#1f2632"/><path d="M66.81,111.583H61.19a1.75,1.75,0,1,0,0,3.5H66.81a1.75,1.75,0,0,0,0-3.5Z" style="fill:#1f2632"/></svg>