<svg id="Layer_1" data-name="Layer 1" xmlns="http://www.w3.org/2000/svg" viewBox="0 0 128 128"><title>PASSWORD</title><rect x="22.333" y="13.43" width="83.333" height="101.141" rx="6.404" ry="6.404" style="fill:#6f6571"/><circle cx="64" cy="72.103" r="29.167" style="fill:#fcc434"/><path d="M99.263,13.43H28.737a6.4,6.4,0,0,0-6.4,6.4v11.5h83.333v-11.5A6.4,6.4,0,0,0,99.263,13.43Z" style="fill:#8bb3ea"/><rect x="28.939" y="19.461" width="19.606" height="5.828" rx="2.914" ry="2.914" style="fill:#6f6571"/><circle cx="64" cy="72.103" r="21.911" style="fill:#6f6571"/><circle cx="64" cy="72.103" r="21.911" style="fill:#6f6571"/><path d="M72.115,20.833h-5.4a1.5,1.5,0,0,0,0,3h5.4a1.5,1.5,0,0,0,0-3Z" style="fill:#6f6571"/><path d="M84.615,20.833h-5.4a1.5,1.5,0,0,0,0,3h5.4a1.5,1.5,0,0,0,0-3Z" style="fill:#6f6571"/><path d="M97.115,20.833h-5.4a1.5,1.5,0,0,0,0,3h5.4a1.5,1.5,0,0,0,0-3Z" style="fill:#6f6571"/><path d="M85.2,77.641c-8.833-.1-14.264-4.646-23.2-9.391-7.284-3.866-15.315-.792-19.8,1.637a22.176,22.176,0,0,0-.111,2.216A21.914,21.914,0,0,0,85.2,77.641Z" style="fill:#8bb3ea"/><path d="M64,103.021A30.917,30.917,0,1,0,33.083,72.1,30.952,30.952,0,0,0,64,103.021Zm0-58.334A27.417,27.417,0,1,1,36.583,72.1,27.448,27.448,0,0,1,64,44.687Z" style="fill:#1f2632"/><path d="M99.263,11.68H28.737a8.163,8.163,0,0,0-8.154,8.153v88.334a8.163,8.163,0,0,0,8.154,8.153H99.263a8.163,8.163,0,0,0,8.154-8.153V19.833A8.163,8.163,0,0,0,99.263,11.68Zm-75.18,8.153a4.659,4.659,0,0,1,4.654-4.653H99.263a4.659,4.659,0,0,1,4.654,4.653v9.75H24.083Zm79.834,88.334a4.659,4.659,0,0,1-4.654,4.653H28.737a4.659,4.659,0,0,1-4.654-4.653V33.083h79.834Z" style="fill:#1f2632"/><path d="M45.632,17.711H31.853a4.664,4.664,0,0,0,0,9.328H45.632a4.664,4.664,0,0,0,0-9.328Zm0,5.828H31.853a1.164,1.164,0,0,1,0-2.328H45.632a1.164,1.164,0,0,1,0,2.328Z" style="fill:#1f2632"/><path d="M72.115,20.583h-5.4a1.75,1.75,0,0,0,0,3.5h5.4a1.75,1.75,0,0,0,0-3.5Z" style="fill:#1f2632"/><path d="M84.615,20.583h-5.4a1.75,1.75,0,0,0,0,3.5h5.4a1.75,1.75,0,0,0,0-3.5Z" style="fill:#1f2632"/><path d="M97.115,20.583h-5.4a1.75,1.75,0,0,0,0,3.5h5.4a1.75,1.75,0,0,0,0-3.5Z" style="fill:#1f2632"/><path d="M40.339,72.1A23.688,23.688,0,0,0,64,95.765c.609,0,1.211-.031,1.809-.076.108-.008.216-.015.324-.025q.868-.078,1.717-.218c.1-.016.2-.035.294-.052.577-.1,1.148-.22,1.709-.363l.034-.008c.556-.143,1.1-.312,1.642-.493.121-.041.242-.08.363-.123q.749-.266,1.474-.579c.151-.065.3-.135.448-.2q.576-.264,1.136-.557c.226-.118.449-.241.671-.366q.455-.257.9-.533c.223-.139.444-.279.662-.425q.5-.336.981-.7c.259-.193.511-.4.762-.6.116-.095.23-.192.344-.289q.686-.58,1.326-1.21c.066-.065.133-.13.2-.2a23.6,23.6,0,0,0,2.129-2.46c.047-.063.092-.127.139-.191q.537-.73,1.019-1.5.144-.23.282-.463c.2-.344.4-.693.586-1.048.159-.3.313-.606.459-.916.1-.218.2-.437.3-.658.2-.448.379-.9.547-1.365.052-.144.1-.291.148-.437.167-.489.32-.984.455-1.486.013-.049.031-.1.044-.145l0-.021a23.662,23.662,0,1,0-46.441-8.35v0c-.013.128-.018.258-.029.386-.023.267-.047.533-.061.8C40.349,71.3,40.339,71.7,40.339,72.1Zm3.5,0c0-.38.036-.752.057-1.127C48,68.914,54.981,66.507,61.18,69.8c1.953,1.037,3.729,2.06,5.446,3.049,5.357,3.085,10.064,5.8,16.2,6.414-.066.173-.121.352-.192.523-.044.107-.089.213-.135.318-.234.539-.485,1.069-.763,1.582l-.017.033a20.3,20.3,0,0,1-7.974,8.026q-.156.086-.315.17-.666.354-1.362.657c-.111.048-.219.1-.331.148-.558.233-1.127.444-1.708.626-.08.025-.163.043-.244.067q-.736.221-1.5.385c-.19.042-.383.076-.575.112q-.64.12-1.293.2c-.188.023-.375.048-.565.066-.612.056-1.23.094-1.857.094A20.184,20.184,0,0,1,43.839,72.1ZM64,51.942A20.1,20.1,0,0,1,83.8,75.827c-5.7-.416-10.041-2.911-15.429-6.015-1.743-1-3.546-2.042-5.553-3.107-6.481-3.441-13.417-1.895-18.256.12A20.179,20.179,0,0,1,64,51.942Z" style="fill:#1f2632"/></svg>