<svg id="Layer_1" data-name="Layer 1" xmlns="http://www.w3.org/2000/svg" viewBox="0 0 128 128"><title>SMART VACUUM CLEANER</title><path d="M79.472,6.494H47.242c-.284,0-.566.011-.848.021A23.169,23.169,0,0,0,24.1,29.261c0,.127-.01.253-.01.381v74.117h6.569V29.642a16.6,16.6,0,0,1,16.58-16.579h32.23a16.6,16.6,0,0,1,16.58,16.579v7.332h6.569V29.642A23.175,23.175,0,0,0,79.472,6.494Z" style="fill:#fcc434"/><path d="M107.776,59.2v40.921a10.693,10.693,0,0,1-10.693,10.693H74.592A10.693,10.693,0,0,1,63.9,100.124V76.216A32.315,32.315,0,0,1,89.878,44.529h0A14.964,14.964,0,0,1,107.776,59.2Z" style="fill:#6f6571"/><path d="M105.313,50.993V36.974H93.359v7.271A14.987,14.987,0,0,1,105.313,50.993Z" style="fill:#e04955"/><path d="M88.16,62.642V44.926A32.312,32.312,0,0,0,63.9,76.216v7.105H67.48A20.68,20.68,0,0,0,88.16,62.642Z" style="fill:#8bb3ea"/><rect x="95.407" y="54.953" width="5.619" height="30.733" rx="2.81" ry="2.81" style="fill:#8bb3ea"/><rect x="107.708" y="57.822" width="6.56" height="25.5" style="fill:#4b3f4e"/><rect x="114.268" y="53.463" width="7.934" height="34.216" rx="3.967" ry="3.967" style="fill:#6f6571"/><rect x="19.668" y="103.759" width="15.419" height="5.076" style="fill:#8bb3ea"/><rect x="19.668" y="103.759" width="15.419" height="5.076" style="fill:#6f6571"/><path d="M43.593,108.835H11.162A5.364,5.364,0,0,0,5.8,114.2v1.323H48.957V114.2A5.364,5.364,0,0,0,43.593,108.835Z" style="fill:#4b3f4e"/><circle cx="73.579" cy="101.059" r="3.348" style="fill:#8bb3ea"/><circle cx="85.838" cy="101.059" r="3.348" style="fill:#8bb3ea"/><circle cx="61.66" cy="49.698" r="3.945" style="fill:#e04955"/><circle cx="104.066" cy="110.817" r="10.689" style="fill:#4b3f4e"/><circle cx="104.066" cy="110.817" r="3.71" style="fill:#6f6571"/><path d="M98.216,53.2a4.565,4.565,0,0,0-4.56,4.56V82.876a4.56,4.56,0,1,0,9.119,0V57.762A4.565,4.565,0,0,0,98.216,53.2Zm1.06,29.674a1.06,1.06,0,1,1-2.119,0V57.762a1.06,1.06,0,0,1,2.119,0Z" style="fill:#1f2632"/><path d="M118.234,51.713a5.722,5.722,0,0,0-5.547,4.358h-3.477a16.6,16.6,0,0,0-2.148-5.611V36.974a1.75,1.75,0,0,0-1.75-1.75h-.942V29.642a24.927,24.927,0,0,0-24.9-24.9H47.242c-.227,0-.452.011-.678.017a1.708,1.708,0,0,0-.17-.017,1.74,1.74,0,0,0-.285.029,24.823,24.823,0,0,0-16.679,7.5l-.015.012c-.008.008-.013.017-.02.025a24.807,24.807,0,0,0-7.038,16.826c0,.043-.013.084-.013.128,0,.026.007.051.008.077,0,.1-.008.2-.008.3v72.367H19.668a1.75,1.75,0,0,0-1.75,1.75v3.326H11.163A7.122,7.122,0,0,0,4.048,114.2v1.323a1.75,1.75,0,0,0,1.75,1.75H48.957a1.75,1.75,0,0,0,1.75-1.75V114.2a7.122,7.122,0,0,0-7.114-7.114H36.837v-3.326a1.75,1.75,0,0,0-1.75-1.75H32.412V29.642a14.846,14.846,0,0,1,14.83-14.829h32.23A14.846,14.846,0,0,1,94.3,29.642v5.582h-.942a1.75,1.75,0,0,0-1.75,1.75v5.567a16.819,16.819,0,0,0-2.075.272,34.156,34.156,0,0,0-27.386,33.4v23.908a12.457,12.457,0,0,0,12.443,12.443H91.765a12.432,12.432,0,1,0,17.761-12.91V85.072h3.162a5.714,5.714,0,0,0,11.264-1.359V57.431A5.724,5.724,0,0,0,118.234,51.713ZM95.109,42.643V38.724h8.454v7.694h0c-.054-.045-.1-.1-.155-.142a16.665,16.665,0,0,0-8.3-3.633ZM35.339,15.731l-2.169-2.169A21.293,21.293,0,0,1,44.644,8.418v3.1A18.243,18.243,0,0,0,35.339,15.731ZM29.047,27.511h-3.1a21.3,21.3,0,0,1,4.768-11.45l2.189,2.189A18.228,18.228,0,0,0,29.047,27.511Zm18.135,86.261H7.573a3.62,3.62,0,0,1,3.589-3.187h32.43A3.62,3.62,0,0,1,47.182,113.772Zm-13.845-6.687H21.418v-1.576H33.337Zm-7.494-5.076v-71h3.069v71Zm53.629-90.7H48.144V8.244H79.472a21.413,21.413,0,0,1,21.38,21.033H97.783A18.341,18.341,0,0,0,79.472,11.313ZM97.8,35.224V32.777h3.069v2.447ZM65.649,76.216A30.663,30.663,0,0,1,86.41,47.269h0V62.642a18.951,18.951,0,0,1-18.93,18.93H65.649Zm47.357,34.6a8.939,8.939,0,1,1-8.939-8.939A8.95,8.95,0,0,1,113.006,110.817Zm-8.939-12.439a12.448,12.448,0,0,0-12.3,10.689H74.592a8.953,8.953,0,0,1-8.943-8.943V85.072H67.48a22.455,22.455,0,0,0,22.43-22.43V46.314c.1-.022.206-.048.311-.069a13.317,13.317,0,0,1,2.608-.259,13.219,13.219,0,0,1,13.2,13.217V98.547A12.419,12.419,0,0,0,104.066,98.377Zm5.459-38.806h2.992v22h-2.992Zm10.926,24.141a2.217,2.217,0,0,1-4.434,0V57.431a2.217,2.217,0,1,1,4.434,0Z" style="fill:#1f2632"/><path d="M73.579,95.961a5.1,5.1,0,1,0,5.1,5.1A5.1,5.1,0,0,0,73.579,95.961Zm0,6.7a1.6,1.6,0,1,1,1.6-1.6A1.6,1.6,0,0,1,73.579,102.657Z" style="fill:#1f2632"/><path d="M85.837,95.961a5.1,5.1,0,1,0,5.1,5.1A5.1,5.1,0,0,0,85.837,95.961Zm0,6.7a1.6,1.6,0,1,1,1.6-1.6A1.6,1.6,0,0,1,85.837,102.657Z" style="fill:#1f2632"/><path d="M82.6,29.847a1.75,1.75,0,1,0,2.352-2.592,35.542,35.542,0,0,0-46.593,0,1.75,1.75,0,1,0,2.352,2.592,32.048,32.048,0,0,1,41.89,0Z" style="fill:#1f2632"/><path d="M46.138,37.352a23.138,23.138,0,0,1,31.043,0,1.75,1.75,0,0,0,2.352-2.593,26.64,26.64,0,0,0-35.747,0,1.75,1.75,0,0,0,2.352,2.593Z" style="fill:#1f2632"/><path d="M51.562,44.856c1.077-.977,4.989-4.165,10.1-4.165s9.021,3.188,10.1,4.165a1.75,1.75,0,1,0,2.352-2.593,19.2,19.2,0,0,0-12.45-5.072,19.2,19.2,0,0,0-12.45,5.072,1.75,1.75,0,0,0,2.352,2.593Z" style="fill:#1f2632"/><path d="M67.354,49.7a5.695,5.695,0,1,0-5.694,5.695A5.7,5.7,0,0,0,67.354,49.7ZM61.66,51.893A2.195,2.195,0,1,1,63.854,49.7,2.2,2.2,0,0,1,61.66,51.893Z" style="fill:#1f2632"/><path d="M98.607,110.817a5.459,5.459,0,1,0,5.459-5.459A5.466,5.466,0,0,0,98.607,110.817Zm7.419,0a1.959,1.959,0,1,1-1.959-1.959A1.962,1.962,0,0,1,106.026,110.817Z" style="fill:#1f2632"/></svg>