<svg id="Layer_1" data-name="Layer 1" xmlns="http://www.w3.org/2000/svg" viewBox="0 0 128 128"><title>WARNING</title><circle cx="64" cy="44.668" r="4.643" style="fill:#e04955"/><rect x="67.212" y="52.928" width="51.25" height="65" rx="5.735" ry="5.735" style="fill:#8bb3ea"/><path d="M107.739,112.633h-29.8a4.988,4.988,0,0,0-4.988,4.988v.306h39.781v-.306A4.988,4.988,0,0,0,107.739,112.633Z" style="fill:#8bb3ea"/><circle cx="92.837" cy="90.63" r="15.25" style="fill:#6f6571"/><circle cx="92.837" cy="90.63" r="7.375" style="fill:#e04955"/><circle cx="92.837" cy="64.415" r="4.212" style="fill:#fcc434"/><rect x="9.538" y="52.928" width="51.25" height="65" rx="5.735" ry="5.735" style="fill:#8bb3ea"/><path d="M50.065,112.633h-29.8a4.988,4.988,0,0,0-4.988,4.988v.306H55.053v-.306A4.988,4.988,0,0,0,50.065,112.633Z" style="fill:#8bb3ea"/><circle cx="35.163" cy="90.63" r="15.25" style="fill:#6f6571"/><circle cx="35.163" cy="90.63" r="7.375" style="fill:#e04955"/><circle cx="35.163" cy="64.415" r="4.212" style="fill:#fcc434"/><path d="M90.036,19.777a39.778,39.778,0,0,0-52.073,0" style="fill:#fff"/><path d="M83.653,28.61a29.294,29.294,0,0,0-39.306,0" style="fill:#fff"/><path d="M77.27,37.443A20.5,20.5,0,0,0,64,32.007a20.5,20.5,0,0,0-13.27,5.436" style="fill:#fff"/><path d="M55.053,51.178H15.272a7.493,7.493,0,0,0-7.484,7.484v53.53a7.494,7.494,0,0,0,7.484,7.485h39.78a7.494,7.494,0,0,0,7.485-7.485V58.662A7.494,7.494,0,0,0,55.053,51.178Zm-37.69,65a3.241,3.241,0,0,1,2.9-1.795h29.8a3.241,3.241,0,0,1,2.9,1.795Zm41.676-3.985a3.989,3.989,0,0,1-2.473,3.683,6.744,6.744,0,0,0-6.5-4.993h-29.8a6.744,6.744,0,0,0-6.5,4.993,3.989,3.989,0,0,1-2.472-3.683V58.662a3.989,3.989,0,0,1,3.984-3.984h39.78a3.989,3.989,0,0,1,3.985,3.984Z" style="fill:#1f2632"/><path d="M35.163,73.63a17,17,0,1,0,17,17A17.019,17.019,0,0,0,35.163,73.63Zm0,30.5a13.5,13.5,0,1,1,13.5-13.5A13.515,13.515,0,0,1,35.163,104.13Z" style="fill:#1f2632"/><path d="M35.163,81.5a9.125,9.125,0,1,0,9.125,9.125A9.136,9.136,0,0,0,35.163,81.5Zm0,14.75a5.625,5.625,0,1,1,5.625-5.625A5.631,5.631,0,0,1,35.163,96.255Z" style="fill:#1f2632"/><path d="M35.163,70.378A5.962,5.962,0,1,0,29.2,64.415,5.969,5.969,0,0,0,35.163,70.378Zm0-8.425A2.462,2.462,0,1,1,32.7,64.415,2.465,2.465,0,0,1,35.163,61.953Z" style="fill:#1f2632"/><path d="M112.728,51.178H72.947a7.494,7.494,0,0,0-7.485,7.484v53.53a7.494,7.494,0,0,0,7.485,7.485h39.78a7.494,7.494,0,0,0,7.484-7.485V58.662A7.493,7.493,0,0,0,112.728,51.178Zm-37.69,65a3.241,3.241,0,0,1,2.9-1.795h29.8a3.241,3.241,0,0,1,2.9,1.795Zm41.675-3.985a3.988,3.988,0,0,1-2.472,3.683,6.744,6.744,0,0,0-6.5-4.993h-29.8a6.744,6.744,0,0,0-6.5,4.993,3.989,3.989,0,0,1-2.473-3.683V58.662a3.989,3.989,0,0,1,3.985-3.984h39.78a3.989,3.989,0,0,1,3.984,3.984Z" style="fill:#1f2632"/><path d="M92.837,73.63a17,17,0,1,0,17,17A17.019,17.019,0,0,0,92.837,73.63Zm0,30.5a13.5,13.5,0,1,1,13.5-13.5A13.515,13.515,0,0,1,92.837,104.13Z" style="fill:#1f2632"/><path d="M92.837,81.5a9.125,9.125,0,1,0,9.125,9.125A9.136,9.136,0,0,0,92.837,81.5Zm0,14.75a5.625,5.625,0,1,1,5.625-5.625A5.631,5.631,0,0,1,92.837,96.255Z" style="fill:#1f2632"/><path d="M92.837,70.378a5.962,5.962,0,1,0-5.962-5.963A5.969,5.969,0,0,0,92.837,70.378Zm0-8.425a2.462,2.462,0,1,1-2.462,2.462A2.465,2.465,0,0,1,92.837,61.953Z" style="fill:#1f2632"/><path d="M39.14,21.073a38.029,38.029,0,0,1,49.721,0,1.75,1.75,0,1,0,2.352-2.592,41.524,41.524,0,0,0-54.424,0,1.75,1.75,0,1,0,2.352,2.592Z" style="fill:#1f2632"/><path d="M83.652,30.36a1.75,1.75,0,0,0,1.177-3.046,31.043,31.043,0,0,0-41.658,0,1.75,1.75,0,1,0,2.352,2.592,27.544,27.544,0,0,1,36.955,0A1.74,1.74,0,0,0,83.652,30.36Z" style="fill:#1f2632"/><path d="M49.555,36.147a1.75,1.75,0,1,0,2.352,2.592C53.194,37.57,57.874,33.757,64,33.757s10.806,3.813,12.094,4.982a1.75,1.75,0,1,0,2.352-2.592A22.263,22.263,0,0,0,64,30.257,22.263,22.263,0,0,0,49.555,36.147Z" style="fill:#1f2632"/><path d="M70.393,44.668A6.393,6.393,0,1,0,64,51.061,6.4,6.4,0,0,0,70.393,44.668ZM64,47.561a2.893,2.893,0,1,1,2.893-2.893A2.9,2.9,0,0,1,64,47.561Z" style="fill:#1f2632"/></svg>