<svg id="Layer_3" data-name="Layer 3" xmlns="http://www.w3.org/2000/svg" viewBox="0 0 128 128"><title>Artboard 102</title><path d="M39.342,20.5a9.332,9.332,0,0,0-9.3,9.3v68.39a9.332,9.332,0,0,0,9.3,9.3H88.657a9.332,9.332,0,0,0,9.3-9.3V39.575L80.981,20.5Z" style="fill:#f4f4f4"/><polygon points="81.019 39.575 97.923 39.575 81.019 20.501 81.019 39.575" style="fill:#c6c6c6"/><circle cx="63.944" cy="66.638" r="15.664" style="fill:#1babea"/><circle cx="63.944" cy="66.638" r="9.916" style="fill:#f4f4f4"/><path d="M63.944,55.636a11,11,0,1,0,11,11A11.014,11.014,0,0,0,63.944,55.636Zm0,18.527a7.525,7.525,0,1,1,7.526-7.524A7.532,7.532,0,0,1,63.944,74.163Z" style="fill:#363636"/><path d="M77.678,77.491a17.414,17.414,0,1,0-2.6,2.667l9.5,9.311a1.861,1.861,0,1,0,2.6-2.659Zm-13.735,2.95a13.8,13.8,0,1,1,13.8-13.8A13.818,13.818,0,0,1,63.943,80.441Z" style="fill:#363636"/><path d="M99.547,38.658a1.82,1.82,0,0,0-.195-.321L82.371,19.263c-.012-.013-.03-.018-.043-.031a1.842,1.842,0,0,0-1.347-.592H39.342A11.178,11.178,0,0,0,28.177,29.805v68.39A11.178,11.178,0,0,0,39.342,109.36H88.657A11.178,11.178,0,0,0,99.823,98.195V39.575a1.854,1.854,0,0,0-.14-.692A1.8,1.8,0,0,0,99.547,38.658ZM82.842,25.39,93.814,37.714H82.842ZM96.1,98.195a7.452,7.452,0,0,1-7.444,7.444H39.342A7.452,7.452,0,0,1,31.9,98.195V29.805a7.452,7.452,0,0,1,7.444-7.444H79.12V39.575a1.861,1.861,0,0,0,1.861,1.861H96.1Z" style="fill:#363636"/></svg>