<svg id="Layer_3" data-name="Layer 3" xmlns="http://www.w3.org/2000/svg" viewBox="0 0 128 128"><title>Artboard 98</title><path d="M93.93,14.991H44.615a9.332,9.332,0,0,0-9.3,9.3V101.99H93.93a9.332,9.332,0,0,0,9.3-9.3V24.3A9.332,9.332,0,0,0,93.93,14.991Z" style="fill:#f4f4f4"/><path d="M34.07,26.01a9.332,9.332,0,0,0-9.3,9.3V103.7a9.332,9.332,0,0,0,9.3,9.3H83.384a9.332,9.332,0,0,0,9.3-9.3V45.084L75.708,26.01Z" style="fill:#f4f4f4"/><polygon points="75.746 45.084 92.65 45.084 75.746 26.01 75.746 45.084" style="fill:#c6c6c6"/><path d="M93.93,13.131H44.615A11.174,11.174,0,0,0,33.456,24.18,11.17,11.17,0,0,0,22.9,35.314V103.7A11.178,11.178,0,0,0,34.07,114.87H83.384a11.175,11.175,0,0,0,11.16-11.049A11.17,11.17,0,0,0,105.1,92.686V24.3A11.178,11.178,0,0,0,93.93,13.131Zm-3.1,90.573a7.452,7.452,0,0,1-7.444,7.444H34.07a7.452,7.452,0,0,1-7.444-7.444V35.314a7.452,7.452,0,0,1,7.444-7.444H73.847V45.084a1.861,1.861,0,0,0,1.861,1.861h15.12ZM77.569,43.223V30.9L88.541,43.223Zm23.805,49.462a7.429,7.429,0,0,1-6.824,7.381V45.084a1.853,1.853,0,0,0-.14-.692,1.8,1.8,0,0,0-.137-.227,1.822,1.822,0,0,0-.194-.319L77.1,24.772c-.012-.013-.03-.018-.043-.031a1.842,1.842,0,0,0-1.348-.592H37.187a7.444,7.444,0,0,1,7.429-7.3H93.93a7.452,7.452,0,0,1,7.444,7.444Z" style="fill:#363636"/><path d="M52.679,43.223H36.241a1.861,1.861,0,1,0,0,3.722H52.679a1.861,1.861,0,0,0,0-3.722Z" style="fill:#363636"/><path d="M52.679,92.229H36.241a1.861,1.861,0,1,0,0,3.722H52.679a1.861,1.861,0,0,0,0-3.722Z" style="fill:#363636"/><path d="M80.282,55.63H36.241a1.861,1.861,0,1,0,0,3.722H80.282a1.861,1.861,0,1,0,0-3.722Z" style="fill:#363636"/><path d="M80.282,64.831H36.241a1.861,1.861,0,1,0,0,3.722H80.282a1.861,1.861,0,1,0,0-3.722Z" style="fill:#363636"/><path d="M80.282,74.034H36.241a1.861,1.861,0,1,0,0,3.722H80.282a1.861,1.861,0,1,0,0-3.722Z" style="fill:#363636"/><path d="M80.282,83.235H36.241a1.861,1.861,0,1,0,0,3.722H80.282a1.861,1.861,0,1,0,0-3.722Z" style="fill:#363636"/></svg>