<svg id="Layer_3" data-name="Layer 3" xmlns="http://www.w3.org/2000/svg" viewBox="0 0 128 128"><title>Artboard 106</title><path d="M39.342,20.5a9.332,9.332,0,0,0-9.3,9.3v68.39a9.332,9.332,0,0,0,9.3,9.3H88.657a9.332,9.332,0,0,0,9.3-9.3V39.575L80.981,20.5Z" style="fill:#f4f4f4"/><polygon points="41.051 57.817 50.348 50.684 59.646 57.817 59.646 20.501 41.051 20.501 41.051 57.817" style="fill:#f40b32"/><polygon points="81.02 39.575 97.924 39.575 81.02 20.501 81.02 39.575" style="fill:#c6c6c6"/><path d="M99.543,38.652a1.827,1.827,0,0,0-.191-.315L82.371,19.263c-.012-.013-.03-.018-.042-.031a1.85,1.85,0,0,0-.447-.328,1.873,1.873,0,0,0-.157-.105,1.848,1.848,0,0,0-.744-.159H39.342A11.178,11.178,0,0,0,28.177,29.805v68.39A11.178,11.178,0,0,0,39.342,109.36H88.657A11.178,11.178,0,0,0,99.823,98.195V39.575a1.851,1.851,0,0,0-.14-.692A1.77,1.77,0,0,0,99.543,38.652ZM82.842,25.39,93.814,37.714H82.842ZM52.209,22.362h5.576V54.045l-5.576-4.277Zm-9.3,0h5.575V49.767l-5.575,4.278ZM96.1,98.195a7.452,7.452,0,0,1-7.444,7.444H39.342A7.452,7.452,0,0,1,31.9,98.195V29.805a7.443,7.443,0,0,1,7.291-7.428v35.44a1.861,1.861,0,0,0,2.994,1.476l8.164-6.263,8.164,6.263a1.861,1.861,0,0,0,2.994-1.476V22.362H79.12V39.575a1.861,1.861,0,0,0,1.861,1.861H96.1Z" style="fill:#363636"/></svg>