<svg id="Layer_3" data-name="Layer 3" xmlns="http://www.w3.org/2000/svg" viewBox="0 0 128 128"><title>Artboard 108</title><path d="M39.342,20.5a9.332,9.332,0,0,0-9.3,9.3v68.39a9.332,9.332,0,0,0,9.3,9.3H88.657a9.332,9.332,0,0,0,9.3-9.3V39.575L80.981,20.5Z" style="fill:#f4f4f4"/><polygon points="81.021 39.575 97.924 39.575 81.021 20.501 81.021 39.575" style="fill:#c6c6c6"/><polygon points="73.099 49.023 64 58.121 60.921 55.04 54.902 49.023 53.289 50.637 49.022 54.902 58.121 64 55.042 67.078 49.025 73.097 50.639 74.711 54.904 78.977 64 69.881 73.097 78.977 78.975 73.097 69.881 64 78.978 54.902 73.099 49.023" style="fill:#f40b32"/><path d="M99.541,38.65a1.82,1.82,0,0,0-.189-.312L82.371,19.263c-.012-.013-.03-.018-.042-.03a1.848,1.848,0,0,0-.449-.329c-.055-.031-.1-.08-.156-.1a1.849,1.849,0,0,0-.744-.159H39.342A11.178,11.178,0,0,0,28.177,29.805v68.39A11.178,11.178,0,0,0,39.342,109.36H88.657A11.178,11.178,0,0,0,99.823,98.195V39.575a1.851,1.851,0,0,0-.139-.691A1.794,1.794,0,0,0,99.541,38.65Zm-16.7-13.261L93.814,37.714H82.842ZM96.1,98.195a7.451,7.451,0,0,1-7.444,7.444H39.342A7.451,7.451,0,0,1,31.9,98.195V29.805a7.451,7.451,0,0,1,7.444-7.444H79.12V39.575a1.86,1.86,0,0,0,1.861,1.861H96.1Z" style="fill:#363636"/><path d="M80.294,53.587l-5.879-5.879a1.861,1.861,0,0,0-2.631,0L64,55.49l-7.782-7.782a1.861,1.861,0,0,0-2.631,0l-5.881,5.879a1.861,1.861,0,0,0,0,2.632L55.489,64l-7.78,7.782a1.86,1.86,0,0,0,0,2.632l5.879,5.879a1.86,1.86,0,0,0,2.631,0L64,72.512l7.782,7.78a1.86,1.86,0,0,0,2.632,0l5.877-5.879a1.861,1.861,0,0,0,0-2.632L72.512,64l7.782-7.782A1.86,1.86,0,0,0,80.294,53.587Zm-11.729,9.1a1.86,1.86,0,0,0,0,2.631L76.343,73.1,73.1,76.345l-7.782-7.78a1.86,1.86,0,0,0-2.631,0l-7.78,7.78L51.657,73.1l7.78-7.782a1.861,1.861,0,0,0,0-2.631L51.653,54.9,54.9,51.655l7.782,7.782a1.86,1.86,0,0,0,2.631,0L73.1,51.655,76.347,54.9Z" style="fill:#363636"/></svg>