<?xml version="1.0" encoding="utf-8"?>
<!-- Generator: Adobe Illustrator 22.0.0, SVG Export Plug-In . SVG Version: 6.00 Build 0)  -->
<svg version="1.1" id="Layer_1" xmlns="http://www.w3.org/2000/svg" xmlns:xlink="http://www.w3.org/1999/xlink" x="0px" y="0px"
	 viewBox="0 0 128 128" style="enable-background:new 0 0 128 128;" xml:space="preserve">
<style type="text/css">
	.st0{fill:#746887;}
	.st1{fill:#FFCFB8;}
	.st2{fill:#E6B9A0;}
	.st3{fill:#D29997;}
	.st4{fill:#F98770;}
	.st5{fill:#DCA98B;}
	.st6{fill:#FFDDCF;}
	.st7{fill:#E8E8E8;}
	.st8{fill:#FFBF9E;}
	.st9{fill:#B0BACC;}
	.st10{fill:#9BA7BC;}
	.st11{fill:#B6B4ED;}
	.st12{fill:#FFBC99;}
	.st13{fill:#F8F8F8;}
	.st14{fill:#B2A7BF;}
	.st15{fill:#9B9B9B;}
	.st16{fill:#968AA0;}
	.st17{fill:#C6BBD3;}
	.st18{fill:#D8D8D8;}
	.st19{fill:#D29976;}
	.st20{fill:#FFA77B;}
	.st21{fill:#CCD3DD;}
	.st22{fill-rule:evenodd;clip-rule:evenodd;fill:#F8F8F8;}
	.st23{fill-rule:evenodd;clip-rule:evenodd;fill:#9B9B9B;}
	.st24{fill-rule:evenodd;clip-rule:evenodd;fill:#777777;}
	.st25{fill:#91DEF5;}
	.st26{fill:#B0E7F8;}
	.st27{fill-rule:evenodd;clip-rule:evenodd;fill:#DCA98B;}
	.st28{fill-rule:evenodd;clip-rule:evenodd;fill:#D29997;}
	.st29{fill-rule:evenodd;clip-rule:evenodd;fill:#FFCBBE;}
	.st30{fill-rule:evenodd;clip-rule:evenodd;fill:#E6B9A0;}
	.st31{fill-rule:evenodd;clip-rule:evenodd;fill:#746887;}
	.st32{fill-rule:evenodd;clip-rule:evenodd;fill:#FFBC99;}
	.st33{fill-rule:evenodd;clip-rule:evenodd;fill:#FFA77B;}
	.st34{fill-rule:evenodd;clip-rule:evenodd;fill:#FFCFB8;}
	.st35{fill-rule:evenodd;clip-rule:evenodd;fill:#E8E8E8;}
	.st36{fill-rule:evenodd;clip-rule:evenodd;fill:#CCD3DD;}
	.st37{fill:#E6B9C1;}
	.st38{fill:#FFCBBE;}
	.st39{fill-rule:evenodd;clip-rule:evenodd;fill:#F98770;}
	.st40{fill-rule:evenodd;clip-rule:evenodd;fill:#F2BB88;}
	.st41{fill:#F2D1A5;}
	.st42{fill-rule:evenodd;clip-rule:evenodd;fill:#F2D1A5;}
	.st43{fill:#F2BB88;}
	.st44{fill-rule:evenodd;clip-rule:evenodd;fill:#9BA7BC;}
	.st45{fill-rule:evenodd;clip-rule:evenodd;fill:#B0BACC;}
	.st46{fill-rule:evenodd;clip-rule:evenodd;fill:#FFFFFF;}
	.st47{fill-rule:evenodd;clip-rule:evenodd;fill:#FFDDCF;}
	.st48{fill-rule:evenodd;clip-rule:evenodd;fill:#B0E7F8;}
	.st49{fill-rule:evenodd;clip-rule:evenodd;fill:#968AA0;}
	.st50{fill:#9D9BE6;}
	.st51{fill:#CFCEF3;}
	.st52{fill-rule:evenodd;clip-rule:evenodd;fill:#D8D8D8;}
	.st53{fill-rule:evenodd;clip-rule:evenodd;fill:#B6B4ED;}
	.st54{fill-rule:evenodd;clip-rule:evenodd;fill:#FFD4BE;}
</style>
<g>
	<g>
		<g>
			<path class="st45" d="M92.501,74.505c-2.84,0-5.9-0.67-8.34-2.23c-0.01,0-0.01,0-0.01,0l-20.51-7.94c-1.3-0.51-2.2-1.72-2.3-3.12
				l-0.53-7.79c-0.05-0.74-0.07-1.47-0.07-2.2c0-17.38,14.11-31.72,31.76-31.72c3.37,0,6.62,0.52,9.66,1.49
				c-5.02-3.99-11.21-7.49-18.66-7.49h-2c-6.85-0.14-13.88,1.1-20.53,2.78l-12.7,3.19c-2.17,0.55-4.38,0.91-6.6,1.08l-1.79,0.14
				c-22.49,1.75-38.18,14.81-38.38,41.81c-0.1,13.47,4,52,4,52h14l9.8-16.15c2.36-3.91,6.64-6.85,11.2-6.85h29l4,22h13l4.82-19.51
				c0.42-1.9,2.23-3.49,4.18-3.49c13.85,0,21.83-14.68,21.99-24.67l-16.64,6.44C98.411,73.835,95.341,74.505,92.501,74.505z"/>
		</g>
	</g>
	<g>
		<g>
			<path class="st44" d="M95.501,90.505c2.33,0,4.35,1.63,4.85,3.91l4.15,19.09h13v-47.67h-0.01
				C117.331,75.825,109.351,90.505,95.501,90.505z"/>
		</g>
	</g>
	<g>
		<g>
			<path class="st44" d="M29.301,98.355l-9.8,16.15h13l14-23h-6C35.941,91.505,31.661,94.445,29.301,98.355z"/>
		</g>
	</g>
	<g>
		<g>
			<path class="st45" d="M102.161,20.995c-3.04-0.97-6.29-1.49-9.66-1.49c-17.65,0-31.76,14.34-31.76,31.72
				c0,0.73,0.02,1.46,0.07,2.2l0.53,7.79c0.1,1.4,1,2.61,2.3,3.12l20.51,7.94c-2.71-1.74-4.65-4.56-4.65-8.77c0-8,8-16,13-16
				s13,8,13,16c0,4.21-1.94,7.03-4.65,8.77l16.64-6.44h0.01l3.86-1.5c1.3-0.51,2.2-1.72,2.3-3.12l0.53-7.79
				C125.211,38.445,115.701,25.315,102.161,20.995z"/>
		</g>
	</g>
	<g>
		<g>
			<path class="st44" d="M67.501,22.505c-4.97,0-9,4.48-9,10c0,3.47,1.59,6.52,4,8.31l0.01-0.01c2.15-6.19,6.18-11.52,11.42-15.3
				v-0.01C72.281,23.655,70.021,22.505,67.501,22.505z"/>
		</g>
	</g>
	<g>
		<g>
			<path class="st44" d="M117.501,22.505c-2.52,0-4.78,1.15-6.43,2.99v0.01c5.24,3.78,9.27,9.11,11.42,15.3l0.01,0.01
				c2.41-1.79,4-4.84,4-8.31C126.501,26.985,122.471,22.505,117.501,22.505z"/>
		</g>
	</g>
	<g>
		<g>
			<path class="st52" d="M92.501,47.505c-5,0-13,8-13,16c0,4.21,1.94,7.03,4.65,8.77c0,0,0,0,0.01,0c2.44,1.56,5.5,2.23,8.34,2.23
				s5.91-0.67,8.35-2.23c2.71-1.74,4.65-4.56,4.65-8.77C105.501,55.505,97.501,47.505,92.501,47.505z"/>
		</g>
	</g>
	<g>
		<g>
			<path class="st16" d="M95.501,55.505h-6c-0.552,0-1,0.448-1,1c0,2.209,1.791,4,4,4s4-1.791,4-4
				C96.501,55.953,96.053,55.505,95.501,55.505z"/>
		</g>
	</g>
	<g>
		<g>
			<circle class="st0" cx="106.001" cy="42.005" r="2.5"/>
		</g>
	</g>
	<g>
		<g>
			<circle class="st0" cx="79.006" cy="42.005" r="2.5"/>
		</g>
	</g>
	<g>
		<g>
			<path class="st4" d="M69.499,93.006c-0.7,0-1.326-0.493-1.469-1.207l-0.698-3.492c-0.614-3.072-3.335-5.302-6.468-5.302h-2.363
				c-0.829,0-1.5-0.671-1.5-1.5s0.671-1.5,1.5-1.5h2.363c4.558,0,8.516,3.244,9.41,7.714l0.698,3.492
				c0.163,0.812-0.364,1.603-1.177,1.765C69.696,92.996,69.597,93.006,69.499,93.006z"/>
		</g>
	</g>
	<g>
		<g>
			<path class="st0" d="M117.501,115.005h-13c-0.706,0-1.315-0.492-1.466-1.181l-4.15-19.09c-0.347-1.58-1.77-2.729-3.384-2.729
				c-0.828,0-1.5-0.671-1.5-1.5s0.672-1.5,1.5-1.5c12.465,0,20.335-13.509,20.49-23.194c0.014-0.819,0.681-1.476,1.5-1.476
				c0.828,0,1.51,0.671,1.51,1.5v31.026c0,0.829-0.672,1.5-1.5,1.5s-1.5-0.671-1.5-1.5V77.649c-3.03,6.269-8.298,11.916-15.5,13.741
				c0.631,0.769,1.092,1.688,1.314,2.704l3.895,17.911h10.291v-7.163c0-0.829,0.672-1.5,1.5-1.5s1.5,0.671,1.5,1.5v8.663
				C119.001,114.334,118.329,115.005,117.501,115.005z"/>
		</g>
	</g>
	<g>
		<g>
			<path class="st0" d="M32.501,116.005h-13c-0.542,0-1.042-0.292-1.307-0.764s-0.256-1.051,0.025-1.514l9.8-16.15
				c2.775-4.599,7.676-7.572,12.482-7.572h6c0.542,0,1.042,0.292,1.308,0.765s0.255,1.052-0.026,1.515l-14,23
				C33.51,115.732,33.024,116.005,32.501,116.005z M22.166,113.005h9.493l12.174-20h-3.331c-3.778,0-7.67,2.404-9.916,6.125
				L22.166,113.005z"/>
		</g>
	</g>
	<g>
		<g>
			<path class="st0" d="M84.151,73.776c-0.181,0-0.364-0.033-0.542-0.102l-20.51-7.94c-1.84-0.722-3.115-2.453-3.255-4.412
				l-0.53-7.795c-0.05-0.73-0.074-1.483-0.074-2.301c0-18.318,14.92-33.22,33.26-33.22c3.467,0,6.87,0.525,10.116,1.561
				c14.627,4.667,24.114,18.632,23.069,33.961l-0.529,7.79c-0.141,1.965-1.416,3.696-3.248,4.415l-3.865,1.501
				c-0.032,0.013-0.065,0.024-0.099,0.035l-16.554,6.406c-0.715,0.278-1.53-0.033-1.878-0.72c-0.35-0.687-0.121-1.525,0.526-1.941
				c2.628-1.688,3.961-4.214,3.961-7.508c0-7.191-7.378-14.5-11.5-14.5s-11.5,7.309-11.5,14.5c0,3.294,1.333,5.821,3.961,7.508
				c0.647,0.416,0.876,1.255,0.526,1.941C85.227,73.472,84.701,73.775,84.151,73.776z M92.501,46.005c6.063,0,14.5,8.818,14.5,17.5
				c0,1.908-0.36,3.649-1.063,5.193l11.013-4.262c0.031-0.012,0.062-0.023,0.095-0.033l3.773-1.466
				c0.758-0.298,1.288-1.017,1.347-1.83l0.529-7.784v0c0.949-13.947-7.682-26.653-20.989-30.898
				c-2.951-0.942-6.048-1.419-9.204-1.419c-16.686,0-30.26,13.557-30.26,30.22c0,0.75,0.022,1.436,0.067,2.098l0.53,7.79
				c0.058,0.807,0.588,1.526,1.352,1.825l14.875,5.758c-0.703-1.543-1.062-3.285-1.062-5.192
				C78.001,54.824,86.438,46.005,92.501,46.005z M117.501,65.835h0.01H117.501z"/>
		</g>
	</g>
	<g>
		<g>
			<path class="st4" d="M92.501,76.005c-3.366,0-6.572-0.852-9.046-2.402c-0.039-0.02-0.077-0.042-0.114-0.066
				c-3.493-2.243-5.34-5.711-5.34-10.032c0-8.682,8.437-17.5,14.5-17.5s14.5,8.818,14.5,17.5c0,4.32-1.847,7.789-5.34,10.032
				C99.172,75.129,95.92,76.005,92.501,76.005z M84.871,70.955c0.033,0.018,0.066,0.037,0.099,0.057
				c2.01,1.286,4.685,1.994,7.531,1.994c2.853,0,5.531-0.708,7.541-1.994c2.626-1.686,3.959-4.212,3.959-7.506
				c0-7.191-7.378-14.5-11.5-14.5s-11.5,7.309-11.5,14.5C81.001,66.762,82.303,69.268,84.871,70.955z"/>
		</g>
	</g>
	<g>
		<g>
			<path class="st0" d="M62.494,42.312c-0.311,0-0.623-0.096-0.887-0.292c-2.884-2.142-4.605-5.699-4.605-9.514
				c0-6.341,4.71-11.5,10.5-11.5c2.85,0,5.53,1.239,7.547,3.489c0.246,0.275,0.383,0.631,0.383,1.001v0.01
				c0,0.482-0.231,0.935-0.622,1.217c-5.079,3.663-8.842,8.703-10.881,14.575c-0.07,0.202-0.183,0.387-0.331,0.542
				C63.301,42.15,62.898,42.312,62.494,42.312z M67.501,24.005c-4.136,0-7.5,3.813-7.5,8.5c0,2.125,0.695,4.132,1.918,5.671
				c2.127-4.992,5.433-9.355,9.687-12.784C70.386,24.49,68.971,24.005,67.501,24.005z"/>
		</g>
	</g>
	<g>
		<g>
			<path class="st0" d="M92.501,62.005c-3.032,0-5.5-2.467-5.5-5.5c0-1.378,1.121-2.5,2.5-2.5h6c1.379,0,2.5,1.122,2.5,2.5
				C98.001,59.538,95.533,62.005,92.501,62.005z M90.051,57.005c0.232,1.14,1.243,2,2.45,2s2.218-0.86,2.45-2H90.051z"/>
		</g>
	</g>
	<g>
		<g>
			<path class="st0" d="M86.501,68.005c-0.828,0-1.5-0.671-1.5-1.5s0.672-1.5,1.5-1.5c0.744-0.009,4.5-0.266,4.5-4.5
				c0-0.829,0.672-1.5,1.5-1.5s1.5,0.671,1.5,1.5C94.001,66.438,89.095,68.005,86.501,68.005z"/>
		</g>
	</g>
	<g>
		<g>
			<path class="st0" d="M98.501,68.005c-2.594,0-7.5-1.567-7.5-7.5c0-0.829,0.672-1.5,1.5-1.5s1.5,0.671,1.5,1.5
				c0,4.374,4.039,4.5,4.5,4.5c0.828,0,1.5,0.671,1.5,1.5S99.329,68.005,98.501,68.005z"/>
		</g>
	</g>
	<g>
		<g>
			<path class="st0" d="M122.502,42.315c-0.398,0-0.794-0.158-1.087-0.465c-0.148-0.155-0.271-0.351-0.341-0.553
				c-2.04-5.872-5.802-10.912-10.881-14.576c-0.391-0.282-0.622-0.734-0.622-1.216c0-0.37,0.137-0.736,0.383-1.011
				c2.017-2.25,4.697-3.489,7.547-3.489c5.79,0,10.5,5.159,10.5,11.5c0,3.815-1.722,7.373-4.605,9.514
				C123.128,42.218,122.813,42.315,122.502,42.315z M113.396,25.393c4.253,3.429,7.559,7.793,9.687,12.784
				c1.223-1.54,1.918-3.547,1.918-5.671c0-4.687-3.364-8.5-7.5-8.5C116.031,24.005,114.616,24.49,113.396,25.393z"/>
		</g>
	</g>
	<g>
		<g>
			<path class="st0" d="M19.501,116.005h-14c-0.767,0-1.411-0.579-1.492-1.341c-0.029-0.273-2.917-27.518-3.77-44.042
				c-0.042-0.827,0.593-1.533,1.421-1.575c0.792-0.057,1.532,0.593,1.575,1.421c0.74,14.343,3.026,36.845,3.617,42.538h11.805
				l9.362-15.428c2.775-4.599,7.676-7.572,12.482-7.572h29c0.725,0,1.346,0.519,1.476,1.231l3.776,20.769h10.573l4.539-18.37
				c0.569-2.581,3.049-4.63,5.636-4.63c11.513,0,19.106-11.524,20.321-20.916l-14.295,5.532c-2.469,1.538-5.668,2.384-9.026,2.384
				c-3.346,0-6.534-0.842-9.001-2.374l-20.4-7.897c-1.84-0.722-3.115-2.453-3.255-4.412l-0.53-7.795
				c-0.05-0.73-0.074-1.483-0.074-2.301c0-18.318,14.92-33.22,33.26-33.22c0.877,0,1.751,0.034,2.619,0.101
				c-3.909-2.08-7.75-3.101-11.619-3.101h-2c-5.83-0.114-12.409,0.776-20.163,2.734L48.637,20.93
				c-2.236,0.567-4.542,0.944-6.852,1.121l-1.787,0.14C16.318,24.033,3.18,38.354,3.001,62.517c-0.006,0.825-0.677,1.489-1.5,1.489
				c-0.003,0-0.007,0-0.011,0c-0.828-0.006-1.495-0.683-1.489-1.511C0.193,36.556,14.314,21.18,39.765,19.2l1.789-0.14
				c2.141-0.164,4.276-0.513,6.349-1.038l12.703-3.191c8.017-2.025,14.871-2.952,20.926-2.825l1.97,0
				c6.567,0,12.977,2.557,19.594,7.816c0.566,0.451,0.73,1.242,0.39,1.88c-0.341,0.64-1.09,0.943-1.779,0.723
				c-2.951-0.942-6.048-1.419-9.204-1.419c-16.686,0-30.26,13.557-30.26,30.22c0,0.75,0.022,1.436,0.067,2.098l0.53,7.79
				c0.058,0.807,0.588,1.526,1.352,1.825l20.436,7.911c0.121,0.039,0.237,0.093,0.345,0.162c2.01,1.286,4.685,1.994,7.531,1.994
				c2.853,0,5.531-0.708,7.541-1.994c0.085-0.054,0.174-0.099,0.268-0.135l16.641-6.44c0.465-0.18,0.99-0.117,1.398,0.168
				c0.41,0.285,0.65,0.755,0.643,1.254c-0.172,10.687-8.635,26.146-23.49,26.146c-1.194,0-2.438,1.06-2.715,2.314l-4.829,19.546
				c-0.165,0.669-0.767,1.14-1.456,1.14h-13c-0.725,0-1.346-0.519-1.476-1.231l-3.776-20.769H40.501
				c-3.778,0-7.67,2.404-9.916,6.125l-9.802,16.153C20.511,115.732,20.025,116.005,19.501,116.005z"/>
		</g>
	</g>
</g>
</svg>
