<?xml version="1.0" encoding="utf-8"?>
<!-- Generator: Adobe Illustrator 22.0.0, SVG Export Plug-In . SVG Version: 6.00 Build 0)  -->
<svg version="1.1" id="Layer_1" xmlns="http://www.w3.org/2000/svg" xmlns:xlink="http://www.w3.org/1999/xlink" x="0px" y="0px"
	 viewBox="0 0 128 128" style="enable-background:new 0 0 128 128;" xml:space="preserve">
<style type="text/css">
	.st0{fill:#746887;}
	.st1{fill:#FFCFB8;}
	.st2{fill:#E6B9A0;}
	.st3{fill:#D29997;}
	.st4{fill:#F98770;}
	.st5{fill:#DCA98B;}
	.st6{fill:#FFDDCF;}
	.st7{fill:#E8E8E8;}
	.st8{fill:#FFBF9E;}
	.st9{fill:#B0BACC;}
	.st10{fill:#9BA7BC;}
	.st11{fill:#B6B4ED;}
	.st12{fill:#FFBC99;}
	.st13{fill:#F8F8F8;}
	.st14{fill:#B2A7BF;}
	.st15{fill:#9B9B9B;}
	.st16{fill:#968AA0;}
	.st17{fill:#C6BBD3;}
	.st18{fill:#D8D8D8;}
	.st19{fill:#D29976;}
	.st20{fill:#FFA77B;}
	.st21{fill:#CCD3DD;}
	.st22{fill-rule:evenodd;clip-rule:evenodd;fill:#F8F8F8;}
	.st23{fill-rule:evenodd;clip-rule:evenodd;fill:#9B9B9B;}
	.st24{fill-rule:evenodd;clip-rule:evenodd;fill:#777777;}
	.st25{fill:#91DEF5;}
	.st26{fill:#B0E7F8;}
	.st27{fill-rule:evenodd;clip-rule:evenodd;fill:#DCA98B;}
	.st28{fill-rule:evenodd;clip-rule:evenodd;fill:#D29997;}
	.st29{fill-rule:evenodd;clip-rule:evenodd;fill:#FFCBBE;}
	.st30{fill-rule:evenodd;clip-rule:evenodd;fill:#E6B9A0;}
	.st31{fill-rule:evenodd;clip-rule:evenodd;fill:#746887;}
	.st32{fill-rule:evenodd;clip-rule:evenodd;fill:#FFBC99;}
	.st33{fill-rule:evenodd;clip-rule:evenodd;fill:#FFA77B;}
	.st34{fill-rule:evenodd;clip-rule:evenodd;fill:#FFCFB8;}
	.st35{fill-rule:evenodd;clip-rule:evenodd;fill:#E8E8E8;}
	.st36{fill-rule:evenodd;clip-rule:evenodd;fill:#CCD3DD;}
	.st37{fill:#E6B9C1;}
	.st38{fill:#FFCBBE;}
	.st39{fill-rule:evenodd;clip-rule:evenodd;fill:#F98770;}
	.st40{fill-rule:evenodd;clip-rule:evenodd;fill:#F2BB88;}
	.st41{fill:#F2D1A5;}
	.st42{fill-rule:evenodd;clip-rule:evenodd;fill:#F2D1A5;}
	.st43{fill:#F2BB88;}
	.st44{fill-rule:evenodd;clip-rule:evenodd;fill:#9BA7BC;}
	.st45{fill-rule:evenodd;clip-rule:evenodd;fill:#B0BACC;}
	.st46{fill-rule:evenodd;clip-rule:evenodd;fill:#FFFFFF;}
	.st47{fill-rule:evenodd;clip-rule:evenodd;fill:#FFDDCF;}
	.st48{fill-rule:evenodd;clip-rule:evenodd;fill:#B0E7F8;}
	.st49{fill-rule:evenodd;clip-rule:evenodd;fill:#968AA0;}
	.st50{fill:#9D9BE6;}
	.st51{fill:#CFCEF3;}
	.st52{fill-rule:evenodd;clip-rule:evenodd;fill:#D8D8D8;}
	.st53{fill-rule:evenodd;clip-rule:evenodd;fill:#B6B4ED;}
	.st54{fill-rule:evenodd;clip-rule:evenodd;fill:#FFD4BE;}
</style>
<g>
	<g>
		<g>
			<path class="st9" d="M79.528,77.433c-7.73-0.01-13.992-6.287-13.983-14.017c0.007-5.67,3.393-10.546,8.246-12.74
				c-0.09,0.05-0.19,0.08-0.28,0.12c-1.727-2.722-2.693-5.843-2.689-9.233c0.003-2.34,0.726-4.569,2.028-6.597
				c-0.01,0.02-0.03,0.05-0.05,0.07c-1.367-1.972-2.214-4.653-2.211-7.613c0.003-2.17,0.465-4.189,1.257-5.888
				c-4.579-0.716-9.379-1.122-14.249-1.128c-43-0.053-55.031,24.932-56.056,44.93c-1.076,20.999,7.943,46.01,7.943,46.01l14,0.017
				c0,0,3.024-18.996,19.024-18.976s28,0.035,28,0.035l3.976,19.005l27,0.034c0,0,7.345-19.961,11.432-33.996
				c-0.13,0.01-0.26,0.01-0.39,0.01L79.528,77.433z"/>
		</g>
	</g>
	<g>
		<g>
			<path class="st10" d="M23.486,111.363l12,0.015c0,0,3.024-18.996,10.024-18.988l-3-0.004
				C26.51,92.367,23.486,111.363,23.486,111.363z"/>
		</g>
	</g>
	<g>
		<g>
			<path class="st9" d="M97.094,24.455c-14.5-0.018-26.26,7.647-26.271,17.107c-0.004,3.39,0.962,6.511,2.689,9.233
				c1.841-0.878,3.892-1.365,6.052-1.363l33,0.041c2.95,0.004,5.679,0.917,7.937,2.49c1.804-2.818,2.818-6.256,2.823-10.337
				C123.335,32.167,111.594,24.473,97.094,24.455z"/>
		</g>
	</g>
	<g>
		<g>
			<path class="st10" d="M112.563,49.474l-33-0.041c-7.732-0.01-14.008,6.251-14.017,13.983c-0.01,7.732,6.251,14.008,13.983,14.017
				l33,0.041c7.732,0.01,14.008-6.251,14.017-13.983v0C126.555,55.759,120.295,49.483,112.563,49.474z"/>
		</g>
	</g>
	<g>
		<g>
			<path class="st21" d="M115.604,16.478c-4.04-0.005-7.385,4.101-7.932,9.44c6.178,1.788,11.104,5.084,13.689,9.177
				c1.372-1.968,2.226-4.647,2.229-7.607C123.598,21.407,120.024,16.483,115.604,16.478z"/>
		</g>
	</g>
	<g>
		<g>
			<path class="st21" d="M78.604,16.432c-4.42-0.005-8.006,4.91-8.014,10.99c-0.004,2.96,0.843,5.641,2.211,7.613
				c2.595-4.087,7.529-7.371,13.711-9.143C85.979,20.551,82.644,16.437,78.604,16.432z"/>
		</g>
	</g>
	<g>
		<g>
			<path class="st0" d="M84.08,35.938c-1.657-0.002-3.002,1.339-3.004,2.996c-0.002,1.657,1.339,3.002,2.996,3.004
				s3.002-1.339,3.004-2.996C87.078,37.285,85.737,35.941,84.08,35.938z"/>
		</g>
	</g>
	<g>
		<g>
			<path class="st0" d="M110.08,35.971c-1.657-0.002-3.002,1.339-3.004,2.996c-0.002,1.657,1.339,3.002,2.996,3.004
				s3.002-1.339,3.004-2.996C113.078,37.318,111.737,35.973,110.08,35.971z"/>
		</g>
	</g>
	<g>
		<g>
			<path class="st21" d="M80.046,59.453c-1.657,0-3,1.343-3,3v2c0,1.657,1.343,3,3,3s3-1.343,3-3v-2
				C83.046,60.796,81.703,59.453,80.046,59.453z"/>
		</g>
	</g>
	<g>
		<g>
			<path class="st21" d="M112.046,59.453c-1.657,0-3,1.343-3,3v2c0,1.657,1.343,3,3,3s3-1.343,3-3v-2
				C115.046,60.796,113.703,59.453,112.046,59.453z"/>
		</g>
	</g>
	<g>
		<g>
			<path class="st0" d="M84.08,35.938c-1.657-0.002-3.002,1.339-3.004,2.996c-0.002,1.657,1.339,3.002,2.996,3.004
				s3.002-1.339,3.004-2.996C87.078,37.285,85.737,35.941,84.08,35.938z"/>
		</g>
	</g>
	<g>
		<g>
			<path class="st0" d="M110.08,35.971c-1.657-0.002-3.002,1.339-3.004,2.996c-0.002,1.657,1.339,3.002,2.996,3.004
				s3.002-1.339,3.004-2.996C113.078,37.318,111.737,35.973,110.08,35.971z"/>
		</g>
	</g>
	<g>
		<g>
			<path class="st4" d="M87.988,113.068c-0.069,0-0.138-0.004-0.208-0.014c-0.821-0.114-1.394-0.871-1.28-1.691l3.226-23.291
				c0.114-0.821,0.873-1.397,1.691-1.28c0.821,0.114,1.394,0.871,1.28,1.691l-3.226,23.291
				C89.368,112.525,88.725,113.068,87.988,113.068z"/>
		</g>
	</g>
	<g>
		<g>
			<path class="st4" d="M70.509,93.922c-0.673,0-1.285-0.456-1.455-1.138l-0.03-0.12c-0.402-1.617-1.846-2.747-3.512-2.749
				c-0.828-0.001-1.499-0.673-1.498-1.502c0.001-0.828,0.672-1.498,1.5-1.498c0,0,0.001,0,0.002,0
				c3.044,0.004,5.684,2.07,6.419,5.025l0.03,0.119c0.2,0.804-0.289,1.618-1.093,1.818C70.75,93.908,70.628,93.922,70.509,93.922z"
				/>
		</g>
	</g>
	<g>
		<g>
			<path class="st0" d="M101.486,112.96c0,0-0.001,0-0.002,0l-27-0.033c-0.709-0.001-1.321-0.499-1.466-1.193L69.291,93.92
				l-26.783-0.033c-0.008,0-0.016,0-0.023,0c-6.024,0-10.784,2.914-14.146,8.661c-2.606,4.453-3.363,9.007-3.371,9.053
				c-0.117,0.727-0.745,1.263-1.481,1.263c0,0-0.001,0-0.002,0l-14-0.018c-0.631-0.001-1.195-0.397-1.409-0.991
				c-0.372-1.032-9.098-25.507-8.031-46.558c0.042-0.828,0.754-1.468,1.574-1.422c0.827,0.042,1.464,0.747,1.422,1.574
				c-0.918,18.116,5.894,39.582,7.517,44.399l11.717,0.015c1.067-4.433,5.678-18.975,20.211-18.975c0.009,0,0.018,0,0.027,0
				l28,0.035c0.709,0.001,1.321,0.499,1.466,1.193l3.727,17.814l24.733,0.03c0.458-1.257,1.319-3.64,2.396-6.684
				c0.276-0.781,1.135-1.191,1.914-0.914c0.781,0.276,1.19,1.133,0.914,1.914c-1.629,4.606-2.769,7.703-2.769,7.703
				C102.677,112.568,102.115,112.96,101.486,112.96z"/>
		</g>
	</g>
	<g>
		<g>
			<path class="st0" d="M106.878,97.725c-0.161,0-0.325-0.026-0.486-0.082c-0.784-0.269-1.201-1.122-0.933-1.905
				c2.224-6.491,4.053-12.119,5.449-16.766l-31.382-0.039c-4.139-0.005-8.029-1.622-10.954-4.554
				c-2.924-2.932-4.532-6.826-4.527-10.965c0.006-5.409,2.857-10.398,7.402-13.189c-1.415-2.689-2.129-5.596-2.125-8.664
				c0.003-2.245,0.582-4.425,1.722-6.494c-1.269-2.18-1.958-4.856-1.955-7.646c0.002-1.612,0.238-3.197,0.69-4.672
				c-4.07-0.554-8.16-0.836-12.184-0.842c-0.039,0-0.08,0-0.119,0c-17.345,0-47.225,4.679-53.483,35.86
				c-0.163,0.812-0.945,1.342-1.766,1.175c-0.812-0.163-1.338-0.954-1.175-1.766c2.87-14.299,14.016-38.269,56.408-38.269
				c0.047,0,0.093,0,0.14,0c4.783,0.006,9.654,0.392,14.478,1.146c0.466,0.073,0.871,0.36,1.092,0.776s0.235,0.912,0.036,1.339
				c-0.728,1.562-1.114,3.38-1.117,5.256c-0.003,2.362,0.591,4.599,1.681,6.356c0.553,0.429,0.744,1.196,0.428,1.843
				c-0.023,0.047-0.053,0.099-0.087,0.152l0.001,0.001c-1.186,1.847-1.788,3.794-1.791,5.789c-0.003,2.745,0.68,5.338,2.031,7.721
				c0.327,0.132,0.608,0.379,0.778,0.717c0.361,0.719,0.091,1.595-0.613,1.985c-0.081,0.045-0.165,0.084-0.25,0.12
				c-4.387,2.049-7.217,6.471-7.223,11.31c-0.004,3.338,1.292,6.478,3.651,8.842c2.358,2.365,5.496,3.669,8.833,3.673l33,0.041
				c0.092,0,0.184,0.001,0.276-0.005c0.498-0.033,0.969,0.169,1.277,0.551c0.31,0.382,0.413,0.892,0.275,1.364
				c-1.465,5.032-3.504,11.366-6.061,18.827C108.084,97.333,107.502,97.725,106.878,97.725z"/>
		</g>
	</g>
	<g>
		<g>
			<path class="st0" d="M35.486,112.878c0,0-0.001,0-0.002,0l-12-0.015c-0.438,0-0.855-0.193-1.14-0.527s-0.409-0.776-0.34-1.209
				c0.032-0.203,3.42-20.241,20.48-20.241c0.009,0,0.018,0,0.027,0l3,0.004c0.829,0.001,1.499,0.673,1.498,1.502
				c-0.001,0.828-0.672,1.498-1.5,1.498c0,0-0.001,0-0.002,0l0,0c0,0-0.002,0-0.003,0c-4.313,0-7.614,11.939-8.537,17.724
				C36.852,112.342,36.224,112.878,35.486,112.878z M25.354,109.866l8.878,0.011c0.338-1.759,1.061-5.101,2.223-8.483
				c1.084-3.156,2.302-5.608,3.645-7.346c-4.931,0.686-8.895,3.562-11.804,8.573C26.694,105.379,25.803,108.147,25.354,109.866z"/>
		</g>
	</g>
	<g>
		<g>
			<path class="st0" d="M120.5,53.464c-0.304,0-0.604-0.093-0.857-0.27c-2.081-1.449-4.529-2.217-7.082-2.22l-33-0.041
				c-0.006,0-0.012,0-0.018,0c-1.882,0-3.694,0.409-5.386,1.216c-0.686,0.327-1.506,0.09-1.912-0.55
				c-1.943-3.063-2.926-6.44-2.922-10.039c0.013-10.266,12.444-18.605,27.721-18.605c0.018,0,0.034,0,0.052,0
				c15.301,0.019,27.739,8.396,27.727,18.675c-0.005,4.23-1.034,7.979-3.06,11.143c-0.22,0.344-0.57,0.583-0.97,0.663
				C120.696,53.455,120.598,53.464,120.5,53.464z M79.543,47.933c0.007,0,0.014,0,0.021,0l33,0.041
				c2.617,0.003,5.148,0.655,7.408,1.898c1.225-2.397,1.846-5.164,1.85-8.247l0,0c0.011-8.624-11.083-15.654-24.73-15.671
				c-0.016,0-0.034,0-0.049,0c-13.625,0-24.709,6.995-24.72,15.609c-0.003,2.598,0.608,5.06,1.82,7.336
				C75.867,48.258,77.678,47.933,79.543,47.933z"/>
		</g>
	</g>
	<g>
		<g>
			<path class="st4" d="M80.046,68.954c-2.481,0-4.5-2.019-4.5-4.5v-2c0-2.481,2.019-4.5,4.5-4.5s4.5,2.019,4.5,4.5v2
				C84.546,66.935,82.527,68.954,80.046,68.954z M80.046,60.954c-0.827,0-1.5,0.673-1.5,1.5v2c0,0.827,0.673,1.5,1.5,1.5
				s1.5-0.673,1.5-1.5v-2C81.546,61.626,80.873,60.954,80.046,60.954z"/>
		</g>
	</g>
	<g>
		<g>
			<path class="st4" d="M112.046,68.954c-2.481,0-4.5-2.019-4.5-4.5v-2c0-2.481,2.019-4.5,4.5-4.5s4.5,2.019,4.5,4.5v2
				C116.546,66.935,114.527,68.954,112.046,68.954z M112.046,60.954c-0.827,0-1.5,0.673-1.5,1.5v2c0,0.827,0.673,1.5,1.5,1.5
				s1.5-0.673,1.5-1.5v-2C113.546,61.626,112.873,60.954,112.046,60.954z"/>
		</g>
	</g>
	<g>
		<g>
			<path class="st0" d="M112.546,78.974c-0.007,0-0.013,0-0.02,0l-33-0.041c-4.14-0.005-8.03-1.622-10.955-4.553
				c-2.924-2.931-4.531-6.826-4.526-10.966c0.005-4.14,1.622-8.03,4.553-10.955c2.926-2.919,6.813-4.526,10.946-4.526
				c0.007,0,0.013,0,0.02,0l33,0.041c4.14,0.005,8.03,1.622,10.955,4.553c2.924,2.931,4.531,6.826,4.526,10.966
				c-0.005,4.14-1.623,8.03-4.554,10.955C120.566,77.367,116.679,78.974,112.546,78.974z M79.545,50.933
				c-3.333,0-6.467,1.296-8.827,3.65c-2.364,2.358-3.668,5.496-3.672,8.834c-0.004,3.339,1.292,6.479,3.65,8.843
				s5.496,3.668,8.834,3.672l33,0.041l0,0c0.005,0,0.011,0,0.016,0c6.885,0,12.491-5.597,12.5-12.484
				c0.008-6.893-5.592-12.507-12.485-12.515l-33-0.041C79.556,50.933,79.55,50.933,79.545,50.933z"/>
		</g>
	</g>
	<g>
		<g>
			<path class="st0" d="M121.361,36.595c-0.011,0-0.023,0-0.034,0c-0.502-0.011-0.966-0.274-1.234-0.699
				c-2.367-3.75-7.046-6.861-12.837-8.537c-0.696-0.202-1.149-0.873-1.075-1.594c0.63-6.151,4.678-10.788,9.417-10.788
				c0.003,0,0.005,0,0.009,0c2.63,0.003,5.069,1.369,6.866,3.846c1.693,2.333,2.623,5.411,2.619,8.666
				c-0.003,3.151-0.891,6.157-2.499,8.463C122.311,36.355,121.851,36.595,121.361,36.595z M109.344,24.865
				c4.997,1.646,9.09,4.231,11.827,7.451c0.598-1.451,0.917-3.106,0.919-4.83l0,0c0.003-2.625-0.724-5.076-2.047-6.9
				c-1.219-1.68-2.796-2.606-4.441-2.608c-0.001,0-0.003,0-0.005,0C112.687,17.978,110.134,20.863,109.344,24.865z"/>
		</g>
	</g>
	<g>
		<g>
			<path class="st0" d="M72.801,36.535c-0.491,0-0.952-0.241-1.232-0.645c-1.602-2.31-2.482-5.317-2.479-8.47l0,0
				c0.009-6.888,4.273-12.488,9.506-12.488c0.003,0,0.006,0,0.009,0c4.744,0.006,8.784,4.653,9.399,10.811
				c0.072,0.721-0.382,1.391-1.08,1.591c-5.794,1.661-10.48,4.761-12.858,8.505c-0.269,0.424-0.733,0.685-1.235,0.695
				C72.822,36.535,72.812,36.535,72.801,36.535z M72.09,27.424c-0.002,1.724,0.314,3.38,0.908,4.833
				c2.745-3.214,6.844-5.79,11.845-7.422c-0.779-4.006-3.328-6.899-6.241-6.903c-0.001,0-0.003,0-0.005,0
				C75.015,17.932,72.097,22.188,72.09,27.424L72.09,27.424z"/>
		</g>
	</g>
</g>
</svg>
