<?xml version="1.0" encoding="utf-8"?>
<!-- Generator: Adobe Illustrator 22.0.0, SVG Export Plug-In . SVG Version: 6.00 Build 0)  -->
<svg version="1.1" id="Layer_1" xmlns="http://www.w3.org/2000/svg" xmlns:xlink="http://www.w3.org/1999/xlink" x="0px" y="0px"
	 viewBox="0 0 128 128" style="enable-background:new 0 0 128 128;" xml:space="preserve">
<style type="text/css">
	.st0{fill:#746887;}
	.st1{fill:#FFCFB8;}
	.st2{fill:#E6B9A0;}
	.st3{fill:#D29997;}
	.st4{fill:#F98770;}
	.st5{fill:#DCA98B;}
	.st6{fill:#FFDDCF;}
	.st7{fill:#E8E8E8;}
	.st8{fill:#FFBF9E;}
	.st9{fill:#B0BACC;}
	.st10{fill:#9BA7BC;}
	.st11{fill:#B6B4ED;}
	.st12{fill:#FFBC99;}
	.st13{fill:#F8F8F8;}
	.st14{fill:#B2A7BF;}
	.st15{fill:#9B9B9B;}
	.st16{fill:#968AA0;}
	.st17{fill:#C6BBD3;}
	.st18{fill:#D8D8D8;}
	.st19{fill:#D29976;}
	.st20{fill:#FFA77B;}
	.st21{fill:#CCD3DD;}
	.st22{fill-rule:evenodd;clip-rule:evenodd;fill:#F8F8F8;}
	.st23{fill-rule:evenodd;clip-rule:evenodd;fill:#9B9B9B;}
	.st24{fill-rule:evenodd;clip-rule:evenodd;fill:#777777;}
	.st25{fill:#91DEF5;}
	.st26{fill:#B0E7F8;}
	.st27{fill-rule:evenodd;clip-rule:evenodd;fill:#DCA98B;}
	.st28{fill-rule:evenodd;clip-rule:evenodd;fill:#D29997;}
	.st29{fill-rule:evenodd;clip-rule:evenodd;fill:#FFCBBE;}
	.st30{fill-rule:evenodd;clip-rule:evenodd;fill:#E6B9A0;}
	.st31{fill-rule:evenodd;clip-rule:evenodd;fill:#746887;}
	.st32{fill-rule:evenodd;clip-rule:evenodd;fill:#FFBC99;}
	.st33{fill-rule:evenodd;clip-rule:evenodd;fill:#FFA77B;}
	.st34{fill-rule:evenodd;clip-rule:evenodd;fill:#FFCFB8;}
	.st35{fill-rule:evenodd;clip-rule:evenodd;fill:#E8E8E8;}
	.st36{fill-rule:evenodd;clip-rule:evenodd;fill:#CCD3DD;}
	.st37{fill:#E6B9C1;}
	.st38{fill:#FFCBBE;}
	.st39{fill-rule:evenodd;clip-rule:evenodd;fill:#F98770;}
	.st40{fill-rule:evenodd;clip-rule:evenodd;fill:#F2BB88;}
	.st41{fill:#F2D1A5;}
	.st42{fill-rule:evenodd;clip-rule:evenodd;fill:#F2D1A5;}
	.st43{fill:#F2BB88;}
	.st44{fill-rule:evenodd;clip-rule:evenodd;fill:#9BA7BC;}
	.st45{fill-rule:evenodd;clip-rule:evenodd;fill:#B0BACC;}
	.st46{fill-rule:evenodd;clip-rule:evenodd;fill:#FFFFFF;}
	.st47{fill-rule:evenodd;clip-rule:evenodd;fill:#FFDDCF;}
	.st48{fill-rule:evenodd;clip-rule:evenodd;fill:#B0E7F8;}
	.st49{fill-rule:evenodd;clip-rule:evenodd;fill:#968AA0;}
	.st50{fill:#9D9BE6;}
	.st51{fill:#CFCEF3;}
	.st52{fill-rule:evenodd;clip-rule:evenodd;fill:#D8D8D8;}
	.st53{fill-rule:evenodd;clip-rule:evenodd;fill:#B6B4ED;}
	.st54{fill-rule:evenodd;clip-rule:evenodd;fill:#FFD4BE;}
</style>
<g>
	<g>
		<path class="st30" d="M109.465,63.184c-0.02-0.23-0.01-0.45-0.03-0.68c-0.27-3.5-0.47-6.81-0.62-9.84
			c-1.9,1.2-4.15,1.88-6.57,1.84c-6.63-0.1-11.81-5.81-11.81-12.43v-0.3c0-1.33-0.55-2.58-1.44-3.57c-0.24-0.26-0.47-0.53-0.68-0.81
			c-1.15,4.13-3.43,7.78-7.88,11.11c-7.38,5.53-42,3-44,41c-1.26,23.97,13,37,13,37h30.35c1.46,0,2.65-1.19,2.65-2.65
			c0-1.34-1-2.47-2.33-2.63l-22.67-2.72c0,0,20-8,20-21c0,0,25.23-8.04,31-25c2.42,1.32,4,3.4,4,6v2.5c0,1.93,1.57,3.5,3.5,3.5
			s3.5-1.57,3.5-3.5v-3.5C119.435,74.634,116.685,68.124,109.465,63.184z"/>
	</g>
	<g>
		<path class="st28" d="M113.435,57.504c-1.62-1.01-3.12-1.7-4.48-2.12c0.13,2.26,0.29,4.64,0.48,7.12
			c0.02,0.23,0.01,0.45,0.03,0.68c7.22,4.94,9.97,11.45,9.97,14.32v1.65c0.45,0.23,0.96,0.35,1.5,0.35c0.96,0,1.84-0.39,2.47-1.03
			c0.64-0.63,1.03-1.51,1.03-2.47v-3.5C124.435,69.504,121.435,62.504,113.435,57.504z"/>
	</g>
	<g>
		<path class="st28" d="M94.105,121.224l-21.67-5.72c0,0,15.55-4.23,16.9-23.32c-6.43,3.58-11.9,5.32-11.9,5.32c0,13-20,21-20,21
			l22.67,2.72c1.33,0.16,2.33,1.29,2.33,2.63c0,1.46-1.19,2.65-2.65,2.65h14c1.46,0,2.65-1.19,2.65-2.65
			C96.435,122.514,95.435,121.384,94.105,121.224z"/>
	</g>
	<g>
		<path class="st30" d="M109.455,18.504c2.65,0.79,4.94,2.06,6.65,3.69c4.75-1.09,10.33-5.66,10.33-20.69
			C126.435,1.504,110.035,0.545,109.455,18.504z"/>
	</g>
	<g>
		<path class="st30" d="M109.455,18.504c-2.14-0.65-4.51-1-7.02-1c-9.39,0-17,4.87-17,12.19c0,3.06,1.33,6.05,3.56,8.51
			c0.89,0.99,1.44,2.24,1.44,3.57v0.3c0,6.62,5.18,12.33,11.81,12.43c6.71,0.1,12.19-5.31,12.19-12v-0.73
			c0-1.33,0.55-2.58,1.44-3.57c2.23-2.46,3.56-5.45,3.56-8.51c0-2.95-1.23-5.5-3.33-7.5
			C114.395,20.565,112.105,19.295,109.455,18.504z"/>
	</g>
	<g>
		<path class="st30" d="M78.435,1.504c0,15.03,5.58,19.6,10.33,20.69c1.71-1.63,4-2.9,6.65-3.69
			C94.835,0.545,78.435,1.504,78.435,1.504z"/>
	</g>
	<g>
		<path class="st3" d="M105.435,41.504h-6c-0.552,0-1,0.448-1,1c0,2.209,1.791,4,4,4s4-1.791,4-4
			C106.435,41.952,105.987,41.504,105.435,41.504z"/>
	</g>
	<g>
		<path class="st28" d="M43.095,67.874c-12.28,9.62-9.61,50.63-25.66,50.63c-8.59,0-11.69-4.87-12.64-7.01
			c-0.27-0.61-0.87-0.99-1.54-0.99c-0.94,0-1.69,0.76-1.69,1.69c0,0.06,0,0.13,0.01,0.2c0.5,4.23,4.86,14.11,15.86,14.11
			c11.06,0,18.6-5.87,23.57-12.42c-2.81-6.08-5.11-14.33-4.57-24.58C36.935,80.024,39.465,73.065,43.095,67.874z"/>
	</g>
	<g>
		<g>
			<circle class="st0" cx="95.435" cy="32.504" r="2.5"/>
		</g>
		<g>
			<circle class="st0" cx="109.435" cy="32.504" r="2.5"/>
		</g>
	</g>
	<g>
		<path class="st4" d="M77.435,99.004c-0.829,0-1.5-0.671-1.5-1.5c0-7.705-4.945-14.94-12.027-17.596
			c-0.775-0.291-1.168-1.155-0.877-1.931c0.291-0.775,1.156-1.168,1.931-0.877c8.227,3.085,13.973,11.476,13.973,20.404
			C78.935,98.333,78.264,99.004,77.435,99.004z"/>
	</g>
	<g>
		<path class="st4" d="M108.434,74.005c-0.243,0-0.49-0.06-0.719-0.185c-1.958-1.072-4.779-2.496-7.545-3.809
			c-0.749-0.355-1.067-1.25-0.712-1.998c0.354-0.75,1.25-1.068,1.998-0.712c2.815,1.336,5.693,2.789,7.699,3.887
			c0.727,0.398,0.993,1.31,0.596,2.036C109.478,73.723,108.964,74.005,108.434,74.005z"/>
	</g>
	<g>
		<path class="st4" d="M96.05,89.397c-0.196,0-0.395-0.039-0.587-0.121c-0.221-0.094-4.975-2.152-8.981-6.43l-2.875,3.595
			c-0.517,0.646-1.461,0.752-2.108,0.234c-0.647-0.518-0.752-1.461-0.234-2.108l4-5c0.569-0.712,1.773-0.712,2.343,0
			c3.702,4.627,8.981,6.928,9.035,6.95c0.76,0.327,1.114,1.208,0.789,1.969C97.186,89.056,96.632,89.397,96.05,89.397z"/>
	</g>
	<g>
		<path class="st0" d="M79.785,128.004h-30.35c-0.375,0-0.735-0.14-1.012-0.393c-0.604-0.552-14.769-13.789-13.486-38.186
			c0.804-15.279,6.727-25.909,18.107-32.499c0.716-0.415,1.634-0.17,2.05,0.547c0.415,0.717,0.17,1.634-0.547,2.05
			C44.114,65.564,38.68,75.397,37.933,89.583c-1.091,20.755,9.869,33.117,12.117,35.421h29.735c0.634,0,1.15-0.516,1.15-1.15
			c0-0.581-0.434-1.072-1.009-1.141l-22.67-2.72c-0.68-0.082-1.219-0.614-1.308-1.293s0.293-1.333,0.929-1.588
			c0.19-0.076,19.058-7.78,19.058-19.607c0-0.652,0.422-1.23,1.044-1.429c0.245-0.078,24.58-8.017,30.036-24.054
			c0.143-0.419,0.463-0.754,0.875-0.915c0.413-0.161,0.875-0.131,1.263,0.081c3.039,1.658,4.782,4.325,4.782,7.317v2.5
			c0,1.103,0.897,2,2,2s2-0.897,2-2v-3.5c0-2.188-2.277-8.265-9.317-13.082c-0.371-0.253-0.608-0.66-0.647-1.108
			c-0.013-0.148-0.017-0.292-0.021-0.438c-0.001-0.08-0.002-0.161-0.009-0.243c-0.192-2.482-0.36-5.023-0.503-7.589
			c-1.648,0.661-3.413,0.976-5.218,0.959c-7.324-0.111-13.285-6.359-13.285-13.93v-0.3c0-0.37-0.063-0.743-0.186-1.105
			c-1.517,3.504-3.923,6.423-7.415,9.037c-1.98,1.483-5.313,2.357-9.534,3.464c-3.169,0.832-6.761,1.773-10.402,3.15
			c-0.777,0.293-1.641-0.098-1.934-0.873c-0.292-0.775,0.098-1.641,0.873-1.934c3.789-1.432,7.461-2.395,10.702-3.245
			c3.749-0.983,6.986-1.832,8.497-2.964c3.847-2.879,6.177-6.155,7.334-10.312c0.153-0.55,0.606-0.966,1.167-1.072
			c0.562-0.107,1.135,0.117,1.477,0.574c0.18,0.24,0.377,0.47,0.583,0.693c1.19,1.324,1.838,2.948,1.838,4.587v0.3
			c0,5.941,4.635,10.844,10.333,10.93c2.051,0.033,4.027-0.522,5.747-1.608c0.451-0.284,1.02-0.308,1.492-0.063
			c0.473,0.246,0.78,0.724,0.807,1.257c0.164,3.317,0.372,6.611,0.617,9.79c7.274,5.241,10.005,12.006,10.005,15.124v3.5
			c0,2.757-2.243,5-5,5s-5-2.243-5-5v-2.5c0-1.659-0.856-2.866-1.785-3.687c-6.257,14.521-25.56,22.114-30.257,23.775
			c-0.705,9.222-10.227,15.797-16.181,19.034l17.571,2.108c2.082,0.25,3.651,2.021,3.651,4.119
			C83.935,126.143,82.073,128.004,79.785,128.004z"/>
	</g>
	<g>
		<path class="st0" d="M120.935,81.004c-0.781,0-1.515-0.173-2.183-0.515c-0.501-0.256-0.817-0.772-0.817-1.335v-1.65
			c0-2.188-2.277-8.265-9.317-13.082c-0.371-0.253-0.608-0.66-0.647-1.108c-0.013-0.148-0.017-0.292-0.021-0.438
			c-0.001-0.08-0.002-0.161-0.009-0.243c-0.19-2.482-0.353-4.887-0.483-7.164c-0.028-0.491,0.186-0.964,0.573-1.267
			c0.387-0.303,0.898-0.397,1.368-0.252c1.543,0.477,3.168,1.244,4.831,2.28c8.529,5.331,11.707,12.81,11.707,16.273v3.5
			c0,1.344-0.525,2.601-1.478,3.539C123.536,80.479,122.279,81.004,120.935,81.004z M110.93,62.38
			c7.274,5.241,10.005,12.006,10.005,15.124v0.5c0.534,0,1.031-0.207,1.401-0.582c0.392-0.387,0.599-0.884,0.599-1.418v-3.5
			c0-2.285-2.592-8.914-10.295-13.728c-0.695-0.433-1.378-0.811-2.044-1.131C110.695,59.184,110.807,60.769,110.93,62.38z"/>
	</g>
	<g>
		<path class="st0" d="M93.785,128.004h-14c-0.829,0-1.5-0.671-1.5-1.5s0.671-1.5,1.5-1.5c0.634,0,1.15-0.516,1.15-1.15
			c0-0.581-0.434-1.072-1.009-1.141l-22.67-2.72c-0.68-0.082-1.219-0.614-1.308-1.293s0.293-1.333,0.929-1.588
			c0.19-0.076,19.058-7.78,19.058-19.607c0-0.653,0.423-1.231,1.045-1.429c0.053-0.017,5.416-1.744,11.625-5.201
			c0.481-0.268,1.069-0.251,1.535,0.045c0.465,0.296,0.73,0.822,0.691,1.372c-0.264,3.728-1.083,7.197-2.434,10.312
			c-0.329,0.76-1.212,1.111-1.973,0.779c-0.76-0.33-1.108-1.213-0.779-1.973c0.877-2.023,1.506-4.221,1.878-6.562
			c-3.847,1.955-7.068,3.188-8.63,3.744c-0.704,9.223-10.226,15.799-16.181,19.036l17.571,2.108c2.082,0.25,3.651,2.021,3.651,4.119
			c0,0.399-0.057,0.785-0.162,1.15h10.012c0.634,0,1.15-0.516,1.15-1.15c0-0.581-0.434-1.072-1.009-1.141
			c-0.069-0.008-0.137-0.021-0.204-0.039l-21.67-5.72c-0.656-0.173-1.115-0.766-1.117-1.444s0.451-1.275,1.106-1.453
			c0.047-0.013,5.175-1.479,9.543-6.307c0.555-0.614,1.504-0.662,2.119-0.106c0.614,0.556,0.662,1.504,0.106,2.119
			c-2.316,2.561-4.799,4.28-6.817,5.393l17.407,4.595c2.024,0.3,3.537,2.044,3.537,4.104
			C97.935,126.143,96.073,128.004,93.785,128.004z"/>
	</g>
	<g>
		<path class="st0" d="M116.105,23.694c-0.381,0-0.753-0.146-1.035-0.414c-1.534-1.463-3.624-2.617-6.043-3.338
			c-0.653-0.195-1.092-0.805-1.07-1.486c0.193-5.995,2.082-10.669,5.611-13.892c5.407-4.938,12.645-4.577,12.956-4.557
			c0.793,0.046,1.412,0.703,1.412,1.498c0,16.129-6.251,20.949-11.495,22.152C116.329,23.682,116.217,23.694,116.105,23.694z
			 M111.013,17.438c2.096,0.755,3.964,1.809,5.487,3.096c5.254-1.652,8.146-7.665,8.415-17.492
			c-2.124,0.161-6.189,0.861-9.346,3.757C112.886,9.26,111.356,12.836,111.013,17.438z"/>
	</g>
	<g>
		<path class="st0" d="M102.431,56.006c-0.069,0-0.139,0-0.208-0.001c-7.327-0.111-13.288-6.359-13.288-13.93v-0.3
			c0-0.898-0.375-1.81-1.056-2.567c-2.542-2.805-3.944-6.185-3.944-9.513c0-7.933,7.78-13.69,18.5-13.69
			c2.621,0,5.129,0.358,7.456,1.065c2.864,0.854,5.373,2.251,7.249,4.039c2.482,2.364,3.795,5.333,3.795,8.586
			c0,3.329-1.402,6.708-3.949,9.518c-0.676,0.752-1.051,1.664-1.051,2.562v0.73c0,3.643-1.43,7.057-4.026,9.615
			C109.36,54.63,106.001,56.006,102.431,56.006z M102.435,19.004c-8.981,0-15.5,4.496-15.5,10.69c0,2.582,1.126,5.247,3.171,7.503
			c1.181,1.313,1.829,2.938,1.829,4.577v0.3c0,5.941,4.635,10.844,10.333,10.93c2.869,0.069,5.515-1.03,7.536-3.022
			c2.02-1.99,3.132-4.646,3.132-7.478v-0.73c0-1.641,0.648-3.265,1.825-4.573c2.049-2.261,3.175-4.925,3.175-7.507
			c0-2.446-0.964-4.604-2.865-6.414c-1.535-1.463-3.625-2.618-6.044-3.339C106.976,19.319,104.76,19.004,102.435,19.004z"/>
	</g>
	<g>
		<path class="st0" d="M88.765,23.694c-0.112,0-0.224-0.013-0.335-0.038c-5.244-1.203-11.495-6.023-11.495-22.152
			c0-0.794,0.619-1.451,1.412-1.498c0.306-0.019,7.549-0.38,12.956,4.557c3.53,3.223,5.418,7.897,5.611,13.892
			c0.022,0.681-0.417,1.291-1.07,1.486c-2.419,0.721-4.509,1.875-6.043,3.338C89.518,23.549,89.146,23.694,88.765,23.694z
			 M79.956,3.042c0.269,9.828,3.161,15.84,8.415,17.492c1.522-1.287,3.391-2.341,5.487-3.096c-0.343-4.603-1.873-8.178-4.555-10.64
			C86.145,3.903,82.079,3.203,79.956,3.042z"/>
	</g>
	<g>
		<path class="st0" d="M102.435,48.004c-3.033,0-5.5-2.467-5.5-5.5c0-1.378,1.122-2.5,2.5-2.5h6c1.378,0,2.5,1.122,2.5,2.5
			C107.935,45.537,105.468,48.004,102.435,48.004z M99.985,43.004c0.232,1.14,1.242,2,2.45,2s2.217-0.86,2.45-2H99.985z"/>
	</g>
	<g>
		<path class="st0" d="M102.435,56.004c-0.829,0-1.5-0.671-1.5-1.5v-8c0-0.829,0.671-1.5,1.5-1.5s1.5,0.671,1.5,1.5v8
			C103.935,55.333,103.264,56.004,102.435,56.004z"/>
	</g>
	<g>
		<path class="st0" d="M17.435,128.004c-11.73,0-16.754-10.398-17.35-15.434c-0.016-0.104-0.021-0.251-0.021-0.376
			c0-1.759,1.431-3.19,3.19-3.19c1.263,0,2.406,0.739,2.912,1.883c0.816,1.838,3.55,6.117,11.269,6.117
			c7.802,0,10.851-12.553,13.8-24.692c2.515-10.354,5.116-21.061,10.935-25.619c0.584-0.459,1.417-0.419,1.957,0.092
			c0.539,0.511,0.624,1.34,0.197,1.949c-3.797,5.429-5.947,12.444-6.391,20.849c-0.448,8.505,1.043,16.537,4.434,23.872
			c0.232,0.503,0.168,1.094-0.167,1.536C35.648,123.626,27.316,128.004,17.435,128.004z M3.255,112.004
			c-0.106,0-0.19,0.083-0.19,0.19c0.319,2.725,3.693,12.81,14.37,12.81c8.624,0,15.964-3.743,21.831-11.126
			c-3.27-7.418-4.733-15.478-4.352-23.982c-0.257,1.04-0.511,2.084-0.764,3.125c-3.223,13.266-6.555,26.983-16.715,26.983
			c-9.479,0-12.956-5.525-14.011-7.901C3.386,112.017,3.302,112.004,3.255,112.004z"/>
	</g>
</g>
</svg>
