<?xml version="1.0" encoding="utf-8"?>
<!-- Generator: Adobe Illustrator 22.0.0, SVG Export Plug-In . SVG Version: 6.00 Build 0)  -->
<svg version="1.1" id="Layer_1" xmlns="http://www.w3.org/2000/svg" xmlns:xlink="http://www.w3.org/1999/xlink" x="0px" y="0px"
	 viewBox="0 0 128 128" style="enable-background:new 0 0 128 128;" xml:space="preserve">
<style type="text/css">
	.st0{fill:#746887;}
	.st1{fill:#FFCFB8;}
	.st2{fill:#E6B9A0;}
	.st3{fill:#D29997;}
	.st4{fill:#F98770;}
	.st5{fill:#DCA98B;}
	.st6{fill:#FFDDCF;}
	.st7{fill:#E8E8E8;}
	.st8{fill:#FFBF9E;}
	.st9{fill:#B0BACC;}
	.st10{fill:#9BA7BC;}
	.st11{fill:#B6B4ED;}
	.st12{fill:#FFBC99;}
	.st13{fill:#F8F8F8;}
	.st14{fill:#B2A7BF;}
	.st15{fill:#9B9B9B;}
	.st16{fill:#968AA0;}
	.st17{fill:#C6BBD3;}
	.st18{fill:#D8D8D8;}
	.st19{fill:#D29976;}
	.st20{fill:#FFA77B;}
	.st21{fill:#CCD3DD;}
	.st22{fill-rule:evenodd;clip-rule:evenodd;fill:#F8F8F8;}
	.st23{fill-rule:evenodd;clip-rule:evenodd;fill:#9B9B9B;}
	.st24{fill-rule:evenodd;clip-rule:evenodd;fill:#777777;}
	.st25{fill:#91DEF5;}
	.st26{fill:#B0E7F8;}
	.st27{fill-rule:evenodd;clip-rule:evenodd;fill:#DCA98B;}
	.st28{fill-rule:evenodd;clip-rule:evenodd;fill:#D29997;}
	.st29{fill-rule:evenodd;clip-rule:evenodd;fill:#FFCBBE;}
	.st30{fill-rule:evenodd;clip-rule:evenodd;fill:#E6B9A0;}
	.st31{fill-rule:evenodd;clip-rule:evenodd;fill:#746887;}
	.st32{fill-rule:evenodd;clip-rule:evenodd;fill:#FFBC99;}
	.st33{fill-rule:evenodd;clip-rule:evenodd;fill:#FFA77B;}
	.st34{fill-rule:evenodd;clip-rule:evenodd;fill:#FFCFB8;}
	.st35{fill-rule:evenodd;clip-rule:evenodd;fill:#E8E8E8;}
	.st36{fill-rule:evenodd;clip-rule:evenodd;fill:#CCD3DD;}
	.st37{fill:#E6B9C1;}
	.st38{fill:#FFCBBE;}
	.st39{fill-rule:evenodd;clip-rule:evenodd;fill:#F98770;}
	.st40{fill-rule:evenodd;clip-rule:evenodd;fill:#F2BB88;}
	.st41{fill:#F2D1A5;}
	.st42{fill-rule:evenodd;clip-rule:evenodd;fill:#F2D1A5;}
	.st43{fill:#F2BB88;}
	.st44{fill-rule:evenodd;clip-rule:evenodd;fill:#9BA7BC;}
	.st45{fill-rule:evenodd;clip-rule:evenodd;fill:#B0BACC;}
	.st46{fill-rule:evenodd;clip-rule:evenodd;fill:#FFFFFF;}
	.st47{fill-rule:evenodd;clip-rule:evenodd;fill:#FFDDCF;}
	.st48{fill-rule:evenodd;clip-rule:evenodd;fill:#B0E7F8;}
	.st49{fill-rule:evenodd;clip-rule:evenodd;fill:#968AA0;}
	.st50{fill:#9D9BE6;}
	.st51{fill:#CFCEF3;}
	.st52{fill-rule:evenodd;clip-rule:evenodd;fill:#D8D8D8;}
	.st53{fill-rule:evenodd;clip-rule:evenodd;fill:#B6B4ED;}
	.st54{fill-rule:evenodd;clip-rule:evenodd;fill:#FFD4BE;}
</style>
<g>
	<g>
		<g>
			<path class="st36" d="M110.5,34.5c-5.559-9.015-8-17-22-17s-16.441,7.985-22,17c-3.633,5.891-8,12.257-8,17c0,12,14,21,30,21
				s30-9,30-21C118.5,46.757,114.133,40.391,110.5,34.5z"/>
		</g>
	</g>
	<g>
		<g>
			<path class="st0" d="M88.5,74C71.131,74,57,63.907,57,51.5c0-4.625,3.532-10.276,6.949-15.74c0.429-0.687,0.856-1.37,1.274-2.047
				c0.741-1.203,1.427-2.388,2.092-3.537C71.719,22.569,75.522,16,88.5,16s16.781,6.569,21.185,14.176
				c0.665,1.149,1.351,2.333,2.092,3.537c0.418,0.677,0.846,1.361,1.274,2.047C116.468,41.224,120,46.875,120,51.5
				C120,63.907,105.869,74,88.5,74z M88.5,19c-11.248,0-14.327,5.318-18.588,12.679c-0.679,1.172-1.379,2.381-2.136,3.608
				c-0.421,0.683-0.852,1.372-1.284,2.063C63.301,42.456,60,47.735,60,51.5C60,62.252,72.785,71,88.5,71S117,62.252,117,51.5
				c0-3.765-3.301-9.044-6.492-14.149c-0.433-0.692-0.863-1.381-1.284-2.063l0,0c-0.757-1.227-1.457-2.436-2.136-3.608
				C102.827,24.318,99.748,19,88.5,19z"/>
		</g>
	</g>
	<g>
		<g>
			<g>
				<path class="st36" d="M58.5,51.5c0-2.04,0.81-4.38,2.02-6.85c-1.7-1.71-4.19-4.52-6.27-8c-1.24-0.1-2.49-0.15-3.75-0.15
					c-22.64,0-45,15-45,33.5s21,47.5,21,47.5h16.68c0.64,0,1.22-0.26,1.64-0.68c0.42-0.42,0.68-1,0.68-1.64
					c0-1.01-0.64-1.89-1.59-2.21L32.5,109.5c0,0,7-5,13-9h17c4.98,0.16,9.25,4.79,9.58,9.76l0.42,6.24h19c0,0,8.4-24.16,8.97-45.76
					c-3.71,1.14-7.77,1.76-11.97,1.76C72.5,72.5,58.5,63.5,58.5,51.5z"/>
			</g>
		</g>
	</g>
	<g>
		<g>
			<path class="st44" d="M56.95,112.94L46.5,108.5c0,0,5-8,9-8h-10c-6,4-13,9-13,9l11.41,3.47c0.95,0.32,1.59,1.2,1.59,2.21
				c0,0.64-0.26,1.22-0.68,1.64c-0.42,0.42-1,0.68-1.64,0.68h12.97c1.3,0,2.35-1.05,2.35-2.35
				C58.5,114.16,57.88,113.27,56.95,112.94z"/>
		</g>
	</g>
	<g>
		<g>
			<path class="st44" d="M112.5,10.5c-4,0-11.19,3.2-13.91,9.08c5.71,2.95,8.07,8.69,11.91,14.92c2.07,3.36,4.38,6.87,5.98,10.15
				c3.4-3.43,10.02-11.24,10.02-20.15C126.5,12.5,117.5,10.5,112.5,10.5z"/>
		</g>
	</g>
	<g>
		<g>
			<path class="st44" d="M64.5,10.5c-5,0-14,2-14,14c0,8.91,6.62,16.72,10.02,20.15c1.6-3.28,3.91-6.79,5.98-10.15
				c3.84-6.23,6.2-11.97,11.91-14.92C75.69,13.7,68.5,10.5,64.5,10.5z"/>
		</g>
	</g>
	<g>
		<g>
			<path class="st44" d="M88,41.5c-3.59,0-6.5,2.91-6.5,6.5v8c0,3.59,2.91,6.5,6.5,6.5s6.5-2.91,6.5-6.5v-8
				C94.5,44.41,91.59,41.5,88,41.5z"/>
		</g>
	</g>
	<g>
		<g>
			<path class="st44" d="M7.5,50.5c-3.31,0-6,2.69-6,6c0,3.06,2.3,5.6,5.27,5.95c1.14-3.41,3.04-6.62,5.53-9.54
				C11.21,51.45,9.47,50.5,7.5,50.5z"/>
		</g>
	</g>
	<g>
		<g>
			<circle class="st31" cx="75" cy="44" r="3"/>
		</g>
	</g>
	<g>
		<g>
			<circle class="st31" cx="101" cy="44" r="3"/>
		</g>
	</g>
	<g>
		<g>
			<path class="st4" d="M82.5,118c-0.828,0-1.5-0.671-1.5-1.5v-21c0-0.829,0.672-1.5,1.5-1.5s1.5,0.671,1.5,1.5v21
				C84,117.329,83.328,118,82.5,118z"/>
		</g>
	</g>
	<g>
		<g>
			<path class="st4" d="M45.501,102c-0.484,0-0.96-0.234-1.249-0.668c-0.46-0.689-0.273-1.621,0.416-2.08
				C50.194,95.568,53,92.12,53,83.5C53,73.433,46.045,68,39.5,68c-0.828,0-1.5-0.671-1.5-1.5s0.672-1.5,1.5-1.5
				C48.752,65,56,73.126,56,83.5c0,9.872-3.545,14.166-9.668,18.248C46.076,101.918,45.787,102,45.501,102z"/>
		</g>
	</g>
	<g>
		<g>
			<path class="st0" d="M43.18,119H26.5c-0.481,0-0.933-0.23-1.215-0.62C24.416,117.18,4,88.77,4,70
				c0-8.692,4.661-17.133,13.124-23.768c0.653-0.51,1.595-0.397,2.106,0.255c0.511,0.652,0.396,1.595-0.255,2.106
				C11.253,54.646,7,62.249,7,70c0,16.337,17.278,41.721,20.276,46H43.18c0.219,0,0.425-0.085,0.579-0.24
				c0.156-0.156,0.241-0.361,0.241-0.58c0-0.363-0.223-0.672-0.568-0.789l-11.368-3.457c-0.547-0.166-0.951-0.628-1.044-1.192
				c-0.092-0.564,0.144-1.131,0.608-1.463c0.07-0.05,7.089-5.06,13.04-9.027C44.914,99.088,45.204,99,45.5,99h17
				c5.637,0.181,10.687,5.291,11.077,11.161L73.902,115H90.42c0.427-1.299,1.219-3.786,2.146-7.065
				c0.227-0.798,1.062-1.259,1.852-1.035c0.798,0.226,1.261,1.055,1.035,1.852c-1.416,5-2.491,8.109-2.536,8.239
				C92.708,117.595,92.139,118,91.5,118h-19c-0.789,0-1.443-0.612-1.497-1.399l-0.42-6.24c-0.287-4.325-4.087-8.231-8.131-8.362
				L45.955,102c-3.633,2.43-7.602,5.201-10.091,6.956l8.482,2.58C45.95,112.074,47,113.534,47,115.18c0,1.02-0.397,1.979-1.119,2.7
				C45.16,118.602,44.2,119,43.18,119z"/>
		</g>
	</g>
	<g>
		<g>
			<path class="st0" d="M96.043,102.111c-0.117,0-0.235-0.014-0.354-0.043c-0.806-0.195-1.3-1.006-1.104-1.811
				c2.476-10.202,3.923-19.448,4.311-27.521C95.554,73.576,92.066,74,88.5,74C71.131,74,57,63.907,57,51.5
				c0-1.871,0.549-3.972,1.72-6.551c-1.572-1.659-3.56-4.005-5.347-6.858c-9.56-0.61-19.723,1.758-28.192,6.419
				c-0.725,0.4-1.638,0.136-2.038-0.591c-0.399-0.726-0.135-1.638,0.591-2.037c9.201-5.063,20.337-7.555,30.638-6.727
				c0.483,0.039,0.918,0.309,1.166,0.726c2.019,3.376,4.402,6.058,6.047,7.712c0.45,0.453,0.563,1.143,0.282,1.717
				C60.61,47.874,60,49.899,60,51.5C60,62.252,72.785,71,88.5,71c3.992,0,7.871-0.57,11.529-1.694
				c0.461-0.14,0.962-0.053,1.348,0.24c0.385,0.292,0.604,0.751,0.592,1.234c-0.229,8.754-1.733,18.909-4.469,30.185
				C97.333,101.651,96.72,102.111,96.043,102.111z"/>
		</g>
	</g>
	<g>
		<g>
			<path class="st0" d="M56.15,119H43.18c-0.828,0-1.5-0.671-1.5-1.5s0.672-1.5,1.5-1.5c0.219,0,0.425-0.085,0.579-0.24
				c0.156-0.156,0.241-0.361,0.241-0.58c0-0.363-0.223-0.672-0.568-0.788l-11.368-3.457c-0.547-0.166-0.951-0.628-1.044-1.192
				c-0.092-0.564,0.144-1.131,0.608-1.463c0.07-0.05,7.089-5.06,13.04-9.027C44.914,99.088,45.204,99,45.5,99h10
				c0.828,0,1.5,0.671,1.5,1.5s-0.672,1.5-1.5,1.5c-1.85,0-4.747,3.055-6.741,5.83l8.778,3.73c1.438,0.508,2.463,1.964,2.463,3.59
				C60,117.273,58.273,119,56.15,119z M46.912,116h9.238c0.469,0,0.85-0.381,0.85-0.85c0-0.359-0.222-0.679-0.552-0.796
				l-10.535-4.473c-0.403-0.171-0.712-0.511-0.844-0.93s-0.074-0.874,0.158-1.246c0.518-0.827,2.281-3.528,4.552-5.705h-3.824
				c-3.634,2.431-7.602,5.202-10.091,6.956l8.482,2.58C45.95,112.074,47,113.534,47,115.18C47,115.459,46.971,115.734,46.912,116z"
				/>
		</g>
	</g>
	<g>
		<g>
			<path class="st0" d="M116.48,46.15c-0.081,0-0.163-0.006-0.244-0.02c-0.479-0.079-0.891-0.385-1.104-0.822
				c-1.239-2.538-2.954-5.282-4.612-7.936c-0.438-0.699-0.872-1.396-1.298-2.085c-0.752-1.221-1.449-2.424-2.125-3.591
				c-2.675-4.619-4.984-8.608-9.196-10.784c-0.714-0.368-1.01-1.233-0.673-1.962C100.231,12.458,108.027,9,112.5,9
				c3.636,0,15.5,1.118,15.5,15.5c0,9.274-6.55,17.267-10.454,21.206C117.262,45.992,116.877,46.15,116.48,46.15z M100.6,19.009
				c4.156,2.657,6.562,6.811,9.095,11.184c0.662,1.144,1.345,2.323,2.083,3.52c0.422,0.685,0.854,1.375,1.287,2.069
				c1.3,2.08,2.634,4.214,3.774,6.302C120.061,38.496,125,31.802,125,24.5c0-10.876-7.832-12.5-12.5-12.5
				C109.204,12,103.403,14.482,100.6,19.009z"/>
		</g>
	</g>
	<g>
		<g>
			<path class="st0" d="M118.035,29.536c-0.384,0-0.768-0.146-1.061-0.439c-0.586-0.586-0.586-1.536,0-2.122
				c0.661-0.661,1.025-1.54,1.025-2.475s-0.364-1.814-1.025-2.475c-1.322-1.323-3.627-1.323-4.949,0
				c-0.586,0.586-1.535,0.585-2.121,0c-0.586-0.586-0.586-1.536,0-2.122C111.132,18.676,112.764,18,114.5,18
				s3.368,0.676,4.596,1.904S121,22.764,121,24.5s-0.677,3.369-1.904,4.597C118.803,29.389,118.419,29.536,118.035,29.536z"/>
		</g>
	</g>
	<g>
		<g>
			<path class="st0" d="M60.52,46.15c-0.396,0-0.781-0.158-1.065-0.444C55.55,41.766,49,33.772,49,24.5C49,10.118,60.864,9,64.5,9
				c4.473,0,12.269,3.458,15.271,9.95c0.337,0.729,0.041,1.594-0.673,1.962c-4.212,2.176-6.521,6.165-9.196,10.784
				c-0.676,1.167-1.373,2.37-2.125,3.591c-0.426,0.689-0.86,1.386-1.298,2.085c-1.658,2.654-3.373,5.397-4.612,7.936
				c-0.213,0.437-0.624,0.743-1.104,0.822C60.683,46.144,60.601,46.15,60.52,46.15z M64.5,12C59.832,12,52,13.624,52,24.5
				c0,7.3,4.939,13.995,8.161,17.583c1.141-2.087,2.475-4.222,3.774-6.301c0.434-0.694,0.865-1.385,1.287-2.069
				c0.738-1.197,1.421-2.376,2.083-3.52c2.533-4.374,4.938-8.527,9.095-11.184C73.597,14.482,67.796,12,64.5,12z"/>
		</g>
	</g>
	<g>
		<g>
			<path class="st0" d="M58.965,29.536c-0.384,0-0.768-0.146-1.061-0.439C56.677,27.869,56,26.236,56,24.5s0.677-3.369,1.904-4.596
				S60.764,18,62.5,18s3.368,0.676,4.596,1.904c0.586,0.586,0.586,1.536,0,2.122c-0.586,0.585-1.535,0.585-2.121,0
				c-1.322-1.322-3.627-1.322-4.949,0C59.364,22.686,59,23.565,59,24.5s0.364,1.814,1.025,2.475c0.586,0.586,0.586,1.536,0,2.122
				C59.732,29.389,59.349,29.536,58.965,29.536z"/>
		</g>
	</g>
	<g>
		<g>
			<path class="st0" d="M88,64c-4.411,0-8-3.589-8-8v-8c0-4.411,3.589-8,8-8s8,3.589,8,8v8C96,60.411,92.411,64,88,64z M88,43
				c-2.757,0-5,2.243-5,5v8c0,2.757,2.243,5,5,5s5-2.243,5-5v-8C93,45.243,90.757,43,88,43z"/>
		</g>
	</g>
	<g>
		<g>
			<path class="st0" d="M6.771,63.95c-0.059,0-0.117-0.003-0.177-0.01C2.835,63.497,0,60.298,0,56.5C0,52.364,3.364,49,7.5,49
				c2.385,0,4.572,1.098,6.002,3.013c0.419,0.562,0.394,1.338-0.061,1.871c-2.429,2.848-4.195,5.89-5.249,9.042
				C7.985,63.543,7.408,63.95,6.771,63.95z M7.5,52C5.019,52,3,54.019,3,56.5c0,1.878,1.153,3.512,2.819,4.176
				c1.049-2.669,2.552-5.249,4.482-7.695C9.517,52.349,8.539,52,7.5,52z"/>
		</g>
	</g>
</g>
</svg>
