<?xml version="1.0" encoding="utf-8"?>
<!-- Generator: Adobe Illustrator 22.0.0, SVG Export Plug-In . SVG Version: 6.00 Build 0)  -->
<svg version="1.1" id="Layer_1" xmlns="http://www.w3.org/2000/svg" xmlns:xlink="http://www.w3.org/1999/xlink" x="0px" y="0px"
	 viewBox="0 0 128 128" style="enable-background:new 0 0 128 128;" xml:space="preserve">
<style type="text/css">
	.st0{fill:#746887;}
	.st1{fill:#FFCFB8;}
	.st2{fill:#E6B9A0;}
	.st3{fill:#D29997;}
	.st4{fill:#F98770;}
	.st5{fill:#DCA98B;}
	.st6{fill:#FFDDCF;}
	.st7{fill:#E8E8E8;}
	.st8{fill:#FFBF9E;}
	.st9{fill:#B0BACC;}
	.st10{fill:#9BA7BC;}
	.st11{fill:#B6B4ED;}
	.st12{fill:#FFBC99;}
	.st13{fill:#F8F8F8;}
	.st14{fill:#B2A7BF;}
	.st15{fill:#9B9B9B;}
	.st16{fill:#968AA0;}
	.st17{fill:#C6BBD3;}
	.st18{fill:#D8D8D8;}
	.st19{fill:#D29976;}
	.st20{fill:#FFA77B;}
	.st21{fill:#CCD3DD;}
	.st22{fill-rule:evenodd;clip-rule:evenodd;fill:#F8F8F8;}
	.st23{fill-rule:evenodd;clip-rule:evenodd;fill:#9B9B9B;}
	.st24{fill-rule:evenodd;clip-rule:evenodd;fill:#777777;}
	.st25{fill:#91DEF5;}
	.st26{fill:#B0E7F8;}
	.st27{fill-rule:evenodd;clip-rule:evenodd;fill:#DCA98B;}
	.st28{fill-rule:evenodd;clip-rule:evenodd;fill:#D29997;}
	.st29{fill-rule:evenodd;clip-rule:evenodd;fill:#FFCBBE;}
	.st30{fill-rule:evenodd;clip-rule:evenodd;fill:#E6B9A0;}
	.st31{fill-rule:evenodd;clip-rule:evenodd;fill:#746887;}
	.st32{fill-rule:evenodd;clip-rule:evenodd;fill:#FFBC99;}
	.st33{fill-rule:evenodd;clip-rule:evenodd;fill:#FFA77B;}
	.st34{fill-rule:evenodd;clip-rule:evenodd;fill:#FFCFB8;}
	.st35{fill-rule:evenodd;clip-rule:evenodd;fill:#E8E8E8;}
	.st36{fill-rule:evenodd;clip-rule:evenodd;fill:#CCD3DD;}
	.st37{fill:#E6B9C1;}
	.st38{fill:#FFCBBE;}
	.st39{fill-rule:evenodd;clip-rule:evenodd;fill:#F98770;}
	.st40{fill-rule:evenodd;clip-rule:evenodd;fill:#F2BB88;}
	.st41{fill:#F2D1A5;}
	.st42{fill-rule:evenodd;clip-rule:evenodd;fill:#F2D1A5;}
	.st43{fill:#F2BB88;}
	.st44{fill-rule:evenodd;clip-rule:evenodd;fill:#9BA7BC;}
	.st45{fill-rule:evenodd;clip-rule:evenodd;fill:#B0BACC;}
	.st46{fill-rule:evenodd;clip-rule:evenodd;fill:#FFFFFF;}
	.st47{fill-rule:evenodd;clip-rule:evenodd;fill:#FFDDCF;}
	.st48{fill-rule:evenodd;clip-rule:evenodd;fill:#B0E7F8;}
	.st49{fill-rule:evenodd;clip-rule:evenodd;fill:#968AA0;}
	.st50{fill:#9D9BE6;}
	.st51{fill:#CFCEF3;}
	.st52{fill-rule:evenodd;clip-rule:evenodd;fill:#D8D8D8;}
	.st53{fill-rule:evenodd;clip-rule:evenodd;fill:#B6B4ED;}
	.st54{fill-rule:evenodd;clip-rule:evenodd;fill:#FFD4BE;}
</style>
<g>
	<g>
		<path class="st12" d="M111.556,16.634H90.168c-5.972,0-10.817,4.845-10.817,10.817v7.877c0,5.101,1.373,9.834,3.852,13.685
			c3.729,5.818,9.946,9.619,17.66,9.619c7.703,0,13.921-3.79,17.66-9.608c2.469-3.852,3.852-8.594,3.852-13.696v-7.877
			C122.373,21.479,117.528,16.634,111.556,16.634z"/>
	</g>
	<g>
		<path class="st20" d="M111.556,16.634H90.168c-5.972,0-10.817,4.845-10.817,10.817v0.522c15.447,1.219,17.414,7.232,17.414,13.245
			h8.195c0-6.146,1.024-12.292,17.414-13.317v-0.451C122.373,21.479,117.528,16.634,111.556,16.634z"/>
	</g>
	<g>
		<path class="st20" d="M23.81,89.343l-13.091,32.8h9.219l13.091-32.8c0.912-2.458,2.837-4.292,5.193-5.132
			c-2.028-0.164-3.923-0.318-5.654-0.461C28.727,83.442,25.152,85.727,23.81,89.343z"/>
	</g>
	<g>
		<path class="st20" d="M116.155,55.754c-0.799,19.688-7.437,27.196-16.236,29.993l6.064,36.395h9.219
			c0,0,1.024-66.316,1.024-67.587c-0.01,0.287-0.031,0.563-0.051,0.84C116.176,55.519,116.166,55.641,116.155,55.754z"/>
	</g>
	<g>
		<g>
			<path class="st12" d="M18.084,32.46c2.213-5.87,5.152-11.872,3.903-17.865c0,0,0-0.01-0.01,0l0.01-0.01v-0.01
				c-0.471-2.223-1.977-4.866-3.657-6.904c-1.752-2.12-4.886-2.428-7.017-0.676c-2.131,1.741-2.438,4.886-0.686,7.017
				c2.397,2.909,0.891,7.59-1.875,14.935c-1.772,4.712-4.169,10.11-4.179,15.345c0,4.097,1.024,8.195,4.097,11.268
				c1.731,1.731,3.985,3.421,6.146,4.405c1.618-2.827,3.729-5.316,6.208-7.365c0.768-0.635,1.567-1.229,2.397-1.772l0.602-0.389
				c-2.837,0-5.345-0.215-7.158-2.049C13.639,45.121,14.786,41.208,18.084,32.46z"/>
		</g>
	</g>
	<g>
		<path class="st12" d="M100.862,58.633c-7.713,0-13.931-3.8-17.66-9.619c-1.107-1.728-2.002-3.624-2.611-5.586
			c-0.078-0.25-0.782-2.746-0.718-2.763c-12.569,2.131-34.244,5.675-41.496,5.675c-6.535,0-12.61,2.325-17.352,6.259
			c-4.743,3.923-8.154,9.465-9.373,15.888L1.5,122.142h9.219l13.091-32.8c1.342-3.616,4.917-5.9,8.758-5.593
			c11.002,0.881,29.071,2.54,39.612,2.54l-2.049,35.852h10.243l6.146-34.828c15.058,0,29.153-2.786,29.706-33.804
			c0.01-0.461,0-1.004,0-1.516C112.468,56.102,107.162,58.633,100.862,58.633z"/>
	</g>
	<g>
		<path class="st1" d="M104.959,41.219h-8.195c-4.261,0-11.247,2.786-13.562,7.795c3.729,5.818,9.946,9.619,17.66,9.619
			c7.703,0,13.921-3.79,17.66-9.608C116.196,44.066,109.221,41.219,104.959,41.219z"/>
	</g>
	<g>
		<path class="st12" d="M96.499,16.634H89.86c-0.147,0-0.266,0.119-0.266,0.266v2.295c0,1.98,1.605,3.585,3.585,3.585
			c1.98,0,3.585-1.605,3.585-3.585V16.9C96.765,16.753,96.645,16.634,96.499,16.634z"/>
	</g>
	<g>
		<path class="st12" d="M111.864,16.634h-6.639c-0.147,0-0.266,0.119-0.266,0.266v2.295c0,1.98,1.605,3.585,3.585,3.585
			s3.585-1.605,3.585-3.585V16.9C112.13,16.753,112.011,16.634,111.864,16.634z"/>
	</g>
	<g>
		<path class="st1" d="M122.061,9.895c-3.555,2.237-8.487,4.84-10.75,6.739h0.246c5.974,0,10.817,4.843,10.817,10.817v0.451
			c3.073,0,3.964-4.384,4.097-8.195c0.102-3.033-0.075-5.738-0.309-7.833C125.941,9.897,123.745,8.835,122.061,9.895z"/>
	</g>
	<g>
		<path class="st1" d="M75.562,11.875c-0.234,2.095-0.411,4.8-0.309,7.833c0.133,3.811,1.024,8.195,4.097,8.195v-0.451
			c0-5.974,4.843-10.817,10.817-10.817h0.246c-2.263-1.9-7.195-4.502-10.75-6.739C77.979,8.835,75.783,9.897,75.562,11.875z"/>
	</g>
	<g>
		<path class="st20" d="M96.765,42.243c0,2.263,1.834,4.097,4.097,4.097c2.263,0,4.097-1.834,4.097-4.097v-1.024h-8.195V42.243z"/>
	</g>
	<g>
		<path class="st20" d="M70.131,48.389c-3.394,0-9.219,3.073-9.219,7.17c0,3.394,0.703,6.146,4.097,6.146
			c2.015,0,3.787-0.67,5.118-1.889l2.421-4.573C73.223,52.22,73.067,48.389,70.131,48.389z"/>
	</g>
	<g>
		<path class="st20" d="M46.571,61.706c-2.263,0-4.097,1.834-4.097,4.097l2.11,3.779c0.927,0.8,2.026,1.343,3.012,1.343
			c2.263,0,3.073-2.859,3.073-5.122C50.669,63.54,48.834,61.706,46.571,61.706z"/>
	</g>
	<g>
		<path class="st20" d="M82.424,68.876c-2.263,0-4.097,1.834-4.097,4.097c0,2.263,2.859,5.122,5.122,5.122l2.875-3.189
			c0.136-0.641,0.198-1.31,0.198-1.933C86.521,70.71,84.687,68.876,82.424,68.876z"/>
	</g>
	<g>
		<path class="st20" d="M31.373,67.277c-0.758-1.53-2.089-2.499-4.264-2.499c-1.627,0-9.219,1.024-9.219,7.17
			c0,3.96,1.162,7.17,5.122,7.17l7.044-2.87c1.303-1.198,2.176-2.687,2.176-4.301c0-0.288-0.006-0.573-0.019-0.852L31.373,67.277z"
			/>
	</g>
	<g>
		<g>
			<path class="st20" d="M108.998,69.967l-5.265,0.886c-3.195,1.376-5.945,4.102-5.945,7.242c0,2.96,1.567,5.552,3.923,6.996
				c4.61-1.895,8.512-5.327,11.104-11.514C111.534,71.633,111.021,70.276,108.998,69.967z"/>
		</g>
	</g>
	<g>
		<circle class="st4" cx="16.288" cy="31.422" r="2.049"/>
	</g>
	<g>
		<circle class="st4" cx="20.23" cy="17.146" r="2.049"/>
	</g>
	<g>
		<circle class="st4" cx="7.218" cy="39.682" r="2.049"/>
	</g>
	<g>
		<circle class="st0" cx="88.058" cy="35.585" r="2.049"/>
	</g>
	<g>
		<circle class="st0" cx="113.666" cy="35.585" r="2.049"/>
	</g>
	<g>
		<path class="st0" d="M72.18,87.79c-0.828,0-1.5-0.671-1.5-1.5c0-3.691-3.003-6.695-6.694-6.695h-1.024c-0.828,0-1.5-0.671-1.5-1.5
			s0.672-1.5,1.5-1.5h1.024c5.346,0,9.694,4.349,9.694,9.695C73.68,87.119,73.008,87.79,72.18,87.79z"/>
	</g>
	<g>
		<path class="st4" d="M100.862,60.132c-7.827,0-14.725-3.758-18.923-10.31c-0.276-0.431-0.313-0.974-0.099-1.438
			c2.732-5.912,10.521-8.666,14.924-8.666h8.194c4.551,0,12.268,3.012,14.921,8.668c0.219,0.467,0.183,1.014-0.097,1.448
			C115.579,56.379,108.683,60.132,100.862,60.132z M84.945,48.92c3.67,5.231,9.423,8.212,15.917,8.212
			c6.486,0,12.237-2.977,15.912-8.198c-2.416-4.01-8.361-6.215-11.815-6.215h-8.194C93.29,42.719,87.332,44.919,84.945,48.92z"/>
	</g>
	<g>
		<path class="st4" d="M93.265,24.28h-0.171c-2.757,0-5-2.243-5-5v-2.386c0-0.97,0.789-1.76,1.76-1.76h6.651
			c0.971,0,1.76,0.79,1.76,1.76v2.386C98.265,22.037,96.021,24.28,93.265,24.28z M91.094,18.134v1.146c0,1.103,0.897,2,2,2h0.171
			c1.103,0,2-0.897,2-2v-1.146H91.094z"/>
	</g>
	<g>
		<path class="st4" d="M108.63,24.28h-0.171c-2.757,0-5-2.243-5-5v-2.386c0-0.97,0.789-1.76,1.76-1.76h6.651
			c0.971,0,1.76,0.79,1.76,1.76v2.386C113.63,22.037,111.387,24.28,108.63,24.28z M106.459,18.134v1.146c0,1.103,0.897,2,2,2h0.171
			c1.103,0,2-0.897,2-2v-1.146H106.459z"/>
	</g>
	<g>
		<path class="st4" d="M65.01,63.206c-5.598,0-5.598-5.755-5.598-7.646c0-4.947,6.503-8.67,10.72-8.67
			c1.267,0,2.332,0.494,3.081,1.428c1.707,2.13,1.129,5.782,0.801,7.253c-0.18,0.808-0.981,1.322-1.79,1.138
			c-0.809-0.18-1.318-0.981-1.138-1.79c0.457-2.054,0.369-3.996-0.214-4.724c-0.127-0.158-0.305-0.304-0.74-0.304
			c-2.904,0-7.72,2.747-7.72,5.67c0,4.291,1.229,4.646,2.598,4.646c1.617,0,3.037-0.517,4.105-1.496
			c0.608-0.557,1.559-0.518,2.119,0.093c0.56,0.611,0.518,1.56-0.094,2.12C69.51,62.416,67.39,63.206,65.01,63.206z"/>
	</g>
	<g>
		<path class="st4" d="M47.596,72.425c-1.3,0-2.718-0.606-3.992-1.708c-0.627-0.542-0.696-1.489-0.154-2.116
			c0.54-0.626,1.489-0.696,2.115-0.155c0.698,0.604,1.477,0.978,2.031,0.978c1.085,0,1.573-2.118,1.573-3.622
			c0-1.432-1.165-2.598-2.598-2.598s-2.598,1.166-2.598,2.598c0,0.829-0.672,1.5-1.5,1.5s-1.5-0.671-1.5-1.5
			c0-3.086,2.511-5.598,5.598-5.598s5.598,2.511,5.598,5.598C52.169,69.099,50.755,72.425,47.596,72.425z"/>
	</g>
	<g>
		<path class="st4" d="M83.448,79.595c-3.095,0-6.622-3.527-6.622-6.622c0-3.086,2.511-5.598,5.598-5.598s5.598,2.511,5.598,5.598
			c0,0.76-0.08,1.536-0.231,2.246c-0.173,0.812-0.974,1.328-1.779,1.154c-0.811-0.172-1.327-0.969-1.154-1.78
			c0.107-0.507,0.165-1.067,0.165-1.62c0-1.432-1.165-2.598-2.598-2.598s-2.598,1.166-2.598,2.598c0,1.421,2.2,3.622,3.622,3.622
			c0.828,0,1.5,0.671,1.5,1.5S84.276,79.595,83.448,79.595z"/>
	</g>
	<g>
		<path class="st4" d="M23.012,80.62c-2.473,0-6.622-1.126-6.622-8.67c0-7.078,7.938-8.67,10.719-8.67
			c2.589,0,4.528,1.152,5.608,3.333c0.055,0.11,0.096,0.225,0.121,0.345l0.838,3.819c0.019,0.082,0.029,0.165,0.033,0.248
			c0.015,0.304,0.021,0.612,0.021,0.926c0,1.935-0.92,3.804-2.66,5.405c-0.608,0.561-1.558,0.522-2.12-0.088
			c-0.561-0.61-0.521-1.559,0.089-2.12c0.771-0.709,1.691-1.84,1.691-3.197c0-0.222-0.004-0.441-0.013-0.657l-0.768-3.5
			c-0.573-1.045-1.457-1.514-2.842-1.514c-0.077,0-7.719,0.333-7.719,5.67c0,5.67,2.538,5.67,3.622,5.67c0.828,0,1.5,0.671,1.5,1.5
			S23.84,80.62,23.012,80.62z"/>
	</g>
	<g>
		<path class="st4" d="M101.712,86.591c-0.273,0-0.545-0.075-0.784-0.221c-2.904-1.781-4.639-4.875-4.639-8.275
			c0-3.444,2.689-6.828,6.851-8.62c0.764-0.328,1.644,0.024,1.972,0.785c0.327,0.761-0.023,1.643-0.784,1.971
			c-2.508,1.08-5.038,3.312-5.038,5.864c0,2.096,0.955,4.023,2.587,5.289c4.127-1.898,7.161-5.073,9.245-9.671
			c-0.043-0.069-0.086-0.137-0.128-0.205c-0.926-1.476-1.236-1.909-2.222-2.059c-0.818-0.125-1.381-0.89-1.256-1.709
			c0.124-0.818,0.888-1.379,1.709-1.257c2.387,0.364,3.321,1.854,4.31,3.431c0.166,0.264,0.341,0.543,0.534,0.837
			c0.275,0.417,0.324,0.944,0.132,1.405c-2.527,6.033-6.426,10.063-11.918,12.321C102.099,86.554,101.905,86.591,101.712,86.591z"/>
	</g>
	<g>
		<path class="st0" d="M19.938,123.642h-9.22c-0.497,0-0.963-0.247-1.242-0.659c-0.278-0.412-0.335-0.935-0.151-1.397l13.092-32.799
			c1.555-4.191,5.789-6.893,10.271-6.532c1.735,0.144,3.629,0.297,5.655,0.461c0.705,0.057,1.274,0.598,1.367,1.299
			c0.092,0.701-0.317,1.371-0.983,1.609c-1.99,0.709-3.555,2.255-4.291,4.241l-13.104,32.833
			C21.104,123.268,20.553,123.642,19.938,123.642z M12.933,120.642h5.989l12.714-31.855c0.479-1.291,1.213-2.454,2.144-3.432
			c-0.455-0.037-0.9-0.074-1.335-0.11c-3.152-0.242-6.125,1.648-7.228,4.621L12.933,120.642z"/>
	</g>
	<g>
		<path class="st0" d="M115.203,123.642h-9.22c-0.733,0-1.359-0.53-1.479-1.253L98.44,85.994c-0.123-0.736,0.314-1.45,1.025-1.676
			c6.102-1.939,14.313-7.016,15.19-28.625c0.013-0.149,0.02-0.223,0.02-0.297c0-0.037,0.001-0.074,0.004-0.111
			c0.02-0.258,0.039-0.517,0.049-0.785c0.031-0.817,0.694-1.498,1.527-1.443c0.817,0.015,1.472,0.682,1.472,1.5
			c0,1-0.596,39.75-0.778,51.602c-0.013,0.821-0.682,1.477-1.5,1.477c-0.008,0-0.016,0-0.023,0
			c-0.828-0.013-1.489-0.695-1.477-1.523c0.175-11.347,0.355-23.114,0.498-32.539c-2.621,6.613-6.854,10.923-12.84,13.177
			l5.646,33.893h6.472l0.1-6.473c0.013-0.82,0.682-1.477,1.5-1.477c0.008,0,0.015,0,0.022,0c0.829,0.013,1.49,0.695,1.478,1.523
			l-0.122,7.95C116.69,122.984,116.022,123.642,115.203,123.642z"/>
	</g>
	<g>
		<path class="st0" d="M14.815,61.464c-0.208,0-0.419-0.043-0.62-0.135c-2.188-0.996-4.589-2.712-6.585-4.709
			C4.6,53.61,3.073,49.462,3.073,44.292c0.009-4.812,1.884-9.667,3.539-13.951c0.251-0.651,0.499-1.293,0.735-1.922
			c2.503-6.645,4.003-11.17,2.122-13.453c-1.105-1.344-1.619-3.034-1.447-4.762c0.17-1.723,1.002-3.275,2.342-4.37
			c2.755-2.263,6.848-1.87,9.122,0.882c1.996,2.422,3.479,5.243,3.969,7.548c0.008,0.04,0.015,0.08,0.02,0.12
			c1.124,5.566-0.995,10.958-3.044,16.174c-0.319,0.813-0.639,1.624-0.943,2.432c-3.418,9.066-3.996,11.873-1.555,14.346
			c1.326,1.34,3.237,1.603,6.09,1.603c0.665,0,1.25,0.438,1.438,1.075s-0.065,1.323-0.624,1.684l-0.602,0.389
			c-0.758,0.497-1.52,1.06-2.255,1.668c-2.369,1.958-4.342,4.297-5.862,6.955C15.843,61.19,15.339,61.464,14.815,61.464z
			 M14.479,7.362c-0.78,0-1.565,0.259-2.214,0.792c-0.721,0.589-1.167,1.421-1.258,2.346c-0.093,0.928,0.184,1.837,0.777,2.56
			c2.916,3.537,1.329,8.562-1.63,16.417c-0.239,0.636-0.49,1.286-0.745,1.946c-1.561,4.04-3.329,8.62-3.337,12.873
			c0,4.343,1.23,7.777,3.658,10.205c1.369,1.369,2.993,2.616,4.527,3.493c1.539-2.399,3.425-4.544,5.62-6.391
			c-1.484-0.323-2.887-0.95-4.08-2.157c-3.956-4.006-2.418-8.76,0.882-17.513c0.31-0.821,0.633-1.645,0.957-2.471
			c1.879-4.779,3.82-9.72,2.914-14.394c-0.037-0.115-0.062-0.233-0.07-0.352c-0.43-1.804-1.685-4.118-3.309-6.089
			C16.484,7.793,15.486,7.362,14.479,7.362z"/>
	</g>
	<g>
		<path class="st0" d="M21.977,16.096c-0.396,0-0.79-0.156-1.085-0.464c-0.569-0.596-0.55-1.539,0.04-2.112c0,0,0.001,0,0.001-0.001
			c0.003-0.002,0.006-0.005,0.008-0.008c0.373-0.356,0.905-0.495,1.394-0.378c0.082,0.019,0.162,0.046,0.241,0.08
			c0.142,0.06,0.27,0.141,0.383,0.237c0.329,0.279,0.529,0.69,0.529,1.136c0,0.002,0,0.003,0,0.005c0,0.001,0,0.003,0,0.005
			c0,0.829-0.672,1.5-1.5,1.5C21.983,16.096,21.98,16.096,21.977,16.096z"/>
	</g>
	<g>
		<path class="st0" d="M100.862,60.132c-7.827,0-14.725-3.758-18.923-10.31c-2.675-4.156-4.089-9.168-4.089-14.494v-7.877
			c0-6.792,5.525-12.317,12.317-12.317h21.388c6.792,0,12.317,5.525,12.317,12.317v7.877c0,5.316-1.414,10.332-4.089,14.505
			C115.579,56.379,108.683,60.132,100.862,60.132z M90.168,18.134c-5.138,0-9.317,4.18-9.317,9.317v7.877
			c0,4.749,1.249,9.2,3.613,12.874c3.637,5.676,9.613,8.93,16.398,8.93c6.778,0,12.755-3.251,16.397-8.919
			c2.363-3.688,3.613-8.143,3.613-12.884v-7.877c0-5.137-4.18-9.317-9.317-9.317H90.168z"/>
	</g>
	<g>
		<path class="st0" d="M80.375,123.642H70.132c-0.413,0-0.807-0.17-1.091-0.47c-0.283-0.3-0.431-0.703-0.407-1.115l1.958-34.278
			c-9.005-0.125-22.487-1.242-32.486-2.07c-2.022-0.167-3.927-0.325-5.657-0.464c-3.162-0.247-6.129,1.648-7.231,4.62
			l-13.104,32.833c-0.228,0.57-0.78,0.944-1.394,0.944H1.5c-0.446,0-0.87-0.199-1.155-0.543s-0.401-0.797-0.318-1.236l8.668-45.816
			c0.153-0.814,0.937-1.352,1.753-1.195c0.813,0.154,1.349,0.938,1.194,1.752l-8.331,44.037h6.392l12.715-31.855
			c1.555-4.191,5.789-6.893,10.271-6.532c1.732,0.139,3.64,0.296,5.665,0.464c10.554,0.874,25.007,2.071,33.827,2.071
			c0.413,0,0.807,0.17,1.091,0.47c0.283,0.3,0.431,0.703,0.407,1.115l-1.958,34.267h7.396l5.928-33.588
			c0.127-0.717,0.75-1.239,1.478-1.239c14.229,0,27.077-2.364,28.15-30.341c-3.864,3.025-8.654,4.659-13.81,4.659
			c-7.827,0-14.725-3.758-18.923-10.31c-1.201-1.873-2.137-3.875-2.781-5.95c-0.184-0.59-0.33-1.081-0.443-1.49
			c-21.771,3.671-34.969,5.458-40.326,5.458c-0.007,0-0.017,0-0.025,0c-5.961,0-11.778,2.1-16.382,5.914
			c-4.536,3.757-7.665,9.022-8.812,14.824c-0.161,0.814-0.949,1.34-1.763,1.181c-0.812-0.161-1.341-0.95-1.181-1.762
			c1.28-6.479,4.774-12.357,9.841-16.554c5.141-4.258,11.638-6.604,18.296-6.604c0.009,0,0.017,0,0.026,0
			c5.228,0,19.1-1.902,41.232-5.654c0.789-0.132,1.551,0.379,1.718,1.167c0.016,0.072,0.025,0.145,0.03,0.217
			c0.103,0.47,0.577,2.17,0.652,2.412c0.565,1.82,1.387,3.577,2.442,5.223c3.636,5.674,9.612,8.928,16.397,8.928
			c5.646,0,10.576-2.127,14.259-6.15c0.419-0.457,1.074-0.608,1.649-0.385c0.577,0.224,0.957,0.779,0.957,1.398l0.002,0.511
			c0.003,0.36,0.005,0.717-0.002,1.037c-0.564,31.624-15.527,35.094-29.946,35.265l-5.929,33.596
			C81.726,123.12,81.103,123.642,80.375,123.642z"/>
	</g>
	<g>
		<path class="st0" d="M122.373,29.402c-0.828,0-1.5-0.671-1.5-1.5v-0.451c0-5.137-4.18-9.317-9.317-9.317h-0.245
			c-0.631,0-1.194-0.395-1.409-0.987c-0.216-0.593-0.038-1.257,0.445-1.662c1.593-1.337,4.23-2.886,7.023-4.525
			c1.331-0.781,2.706-1.589,3.892-2.334c1.229-0.774,2.741-0.86,4.046-0.232c1.307,0.629,2.183,1.869,2.345,3.315
			c0.3,2.682,0.406,5.391,0.317,8.05c0,0,0,0.001,0,0.002C127.678,28.149,124.338,29.402,122.373,29.402z M115.275,15.708
			c4.379,1.39,7.705,5.167,8.443,9.795c0.798-1.246,1.175-3.599,1.253-5.847c0.084-2.514-0.018-5.076-0.301-7.615
			c-0.067-0.597-0.487-0.86-0.665-0.946c-0.178-0.085-0.642-0.25-1.146,0.069c-1.224,0.771-2.62,1.59-3.97,2.382
			C117.655,14.271,116.4,15.008,115.275,15.708z M126.471,19.708h0.01H126.471z"/>
	</g>
	<g>
		<path class="st0" d="M79.351,29.402c-1.964,0-5.302-1.252-5.597-9.642c0-0.001,0-0.002,0-0.002
			c-0.089-2.659,0.018-5.368,0.318-8.05c0.161-1.446,1.037-2.685,2.344-3.314c1.306-0.629,2.818-0.541,4.046,0.232
			c1.185,0.746,2.561,1.553,3.892,2.334c2.793,1.64,5.432,3.188,7.024,4.525c0.482,0.405,0.66,1.07,0.444,1.662
			s-0.778,0.987-1.409,0.987h-0.245c-5.138,0-9.317,4.18-9.317,9.317v0.451C80.851,28.73,80.179,29.402,79.351,29.402z
			 M76.752,19.655c0.079,2.248,0.456,4.601,1.253,5.848c0.738-4.628,4.065-8.404,8.443-9.794c-1.125-0.7-2.38-1.437-3.614-2.161
			c-1.35-0.792-2.746-1.612-3.97-2.382c-0.506-0.318-0.97-0.153-1.146-0.069c-0.178,0.086-0.598,0.349-0.664,0.945
			C76.77,14.58,76.668,17.141,76.752,19.655L76.752,19.655z"/>
	</g>
	<g>
		<path class="st0" d="M94.716,53.986c-0.828,0-1.5-0.671-1.5-1.5s0.672-1.5,1.5-1.5c0.77-0.009,4.646-0.273,4.646-4.646
			c0-0.829,0.672-1.5,1.5-1.5s1.5,0.671,1.5,1.5C102.362,52.388,97.36,53.986,94.716,53.986z"/>
	</g>
	<g>
		<path class="st0" d="M107.008,53.986c-2.645,0-7.646-1.598-7.646-7.646c0-0.829,0.672-1.5,1.5-1.5s1.5,0.671,1.5,1.5
			c0,0.767,0.225,4.597,4.653,4.646c0.825,0.009,1.492,0.683,1.488,1.508C108.499,53.32,107.833,53.986,107.008,53.986z"/>
	</g>
	<g>
		<path class="st0" d="M100.959,47.84h-0.194c-3.032,0-5.5-2.467-5.5-5.5v-1.122c0-0.829,0.672-1.5,1.5-1.5h8.194
			c0.828,0,1.5,0.671,1.5,1.5v1.122C106.459,45.373,103.991,47.84,100.959,47.84z M98.293,42.719c0.184,1.2,1.222,2.122,2.472,2.122
			h0.194c1.25,0,2.288-0.922,2.472-2.122H98.293z"/>
	</g>
	<g>
		<path class="st0" d="M104.959,42.719h-8.194c-0.828,0-1.5-0.671-1.5-1.5c0-5.073-1.239-10.582-16.032-11.75
			c-0.78-0.062-1.382-0.712-1.382-1.495v-0.522c0-6.792,5.525-12.317,12.317-12.317h21.388c6.792,0,12.317,5.525,12.317,12.317
			v0.451c0,0.792-0.616,1.448-1.406,1.497c-16.008,1-16.008,6.749-16.008,11.82C106.459,42.047,105.787,42.719,104.959,42.719z
			 M98.221,39.719h5.275c0.378-7.305,3.82-12.064,17.33-13.208c-0.473-4.697-4.45-8.377-9.271-8.377H90.168
			c-4.854,0-8.852,3.729-9.279,8.473C94.964,28.064,97.854,33.841,98.221,39.719z M122.373,27.902h0.01H122.373z"/>
	</g>
</g>
</svg>
