<?xml version="1.0" encoding="utf-8"?>
<!-- Generator: Adobe Illustrator 22.0.0, SVG Export Plug-In . SVG Version: 6.00 Build 0)  -->
<svg version="1.1" id="Layer_1" xmlns="http://www.w3.org/2000/svg" xmlns:xlink="http://www.w3.org/1999/xlink" x="0px" y="0px"
	 viewBox="0 0 128 128" style="enable-background:new 0 0 128 128;" xml:space="preserve">
<style type="text/css">
	.st0{fill:#746887;}
	.st1{fill:#FFCFB8;}
	.st2{fill:#E6B9A0;}
	.st3{fill:#D29997;}
	.st4{fill:#F98770;}
	.st5{fill:#DCA98B;}
	.st6{fill:#FFDDCF;}
	.st7{fill:#E8E8E8;}
	.st8{fill:#FFBF9E;}
	.st9{fill:#B0BACC;}
	.st10{fill:#9BA7BC;}
	.st11{fill:#B6B4ED;}
	.st12{fill:#FFBC99;}
	.st13{fill:#F8F8F8;}
	.st14{fill:#B2A7BF;}
	.st15{fill:#9B9B9B;}
	.st16{fill:#968AA0;}
	.st17{fill:#C6BBD3;}
	.st18{fill:#D8D8D8;}
	.st19{fill:#D29976;}
	.st20{fill:#FFA77B;}
	.st21{fill:#CCD3DD;}
	.st22{fill-rule:evenodd;clip-rule:evenodd;fill:#F8F8F8;}
	.st23{fill-rule:evenodd;clip-rule:evenodd;fill:#9B9B9B;}
	.st24{fill-rule:evenodd;clip-rule:evenodd;fill:#777777;}
	.st25{fill:#91DEF5;}
	.st26{fill:#B0E7F8;}
	.st27{fill-rule:evenodd;clip-rule:evenodd;fill:#DCA98B;}
	.st28{fill-rule:evenodd;clip-rule:evenodd;fill:#D29997;}
	.st29{fill-rule:evenodd;clip-rule:evenodd;fill:#FFCBBE;}
	.st30{fill-rule:evenodd;clip-rule:evenodd;fill:#E6B9A0;}
	.st31{fill-rule:evenodd;clip-rule:evenodd;fill:#746887;}
	.st32{fill-rule:evenodd;clip-rule:evenodd;fill:#FFBC99;}
	.st33{fill-rule:evenodd;clip-rule:evenodd;fill:#FFA77B;}
	.st34{fill-rule:evenodd;clip-rule:evenodd;fill:#FFCFB8;}
	.st35{fill-rule:evenodd;clip-rule:evenodd;fill:#E8E8E8;}
	.st36{fill-rule:evenodd;clip-rule:evenodd;fill:#CCD3DD;}
	.st37{fill:#E6B9C1;}
	.st38{fill:#FFCBBE;}
	.st39{fill-rule:evenodd;clip-rule:evenodd;fill:#F98770;}
	.st40{fill-rule:evenodd;clip-rule:evenodd;fill:#F2BB88;}
	.st41{fill:#F2D1A5;}
	.st42{fill-rule:evenodd;clip-rule:evenodd;fill:#F2D1A5;}
	.st43{fill:#F2BB88;}
	.st44{fill-rule:evenodd;clip-rule:evenodd;fill:#9BA7BC;}
	.st45{fill-rule:evenodd;clip-rule:evenodd;fill:#B0BACC;}
	.st46{fill-rule:evenodd;clip-rule:evenodd;fill:#FFFFFF;}
	.st47{fill-rule:evenodd;clip-rule:evenodd;fill:#FFDDCF;}
	.st48{fill-rule:evenodd;clip-rule:evenodd;fill:#B0E7F8;}
	.st49{fill-rule:evenodd;clip-rule:evenodd;fill:#968AA0;}
	.st50{fill:#9D9BE6;}
	.st51{fill:#CFCEF3;}
	.st52{fill-rule:evenodd;clip-rule:evenodd;fill:#D8D8D8;}
	.st53{fill-rule:evenodd;clip-rule:evenodd;fill:#B6B4ED;}
	.st54{fill-rule:evenodd;clip-rule:evenodd;fill:#FFD4BE;}
</style>
<g>
	<g>
		<path class="st2" d="M76.5,45.992c0-1.979,0.375-3.877,1.004-5.754c-5.081-1.455-10.557-1.218-15.564,0.786L27.47,54.821
			l-0.77,0.31c-8.33,2.07-14.2,7.86-17.2,15.86c-0.7,1.86-1.03,4.91-1,7c0.02,1.94,0.4,3.87,0.93,5.73
			c0.31,1.13,0.69,2.22,1.07,3.27l13,36h8l0.02-24.65l1.12-0.42c7.28-2.68,12.79-6.05,13.86-13.93c2.46,0.96,3.73,2,21,2
			c3.83,0,6.54,3.43,7.09,7.23l3.91,29.77h9v-34c0,0,18-8,18-21v-3.396c-1.583,0.255-3.249,0.396-5,0.396
			C85.5,64.992,76.5,54.992,76.5,45.992z"/>
	</g>
	<g>
		<path class="st38" d="M9.5,70.992c-0.7,1.86-1.03,4.91-1,7c0.02,1.94,0.4,3.87,0.93,5.73c15.89-2.29,17.81-18.63,18.04-28.9
			l-0.77,0.31C18.37,57.201,12.5,62.992,9.5,70.992z"/>
	</g>
	<g>
		<path class="st2" d="M10.5,5.992c-2.08,1.7-1.8,4.36-0.09,6.44c2.34,2.84,0.87,7.41-1.83,14.58c-1.73,4.6-7.08,9.98-7.08,25.98
			c0,7.75,7.51,29.58,7.98,30.93c-0.55-1.92-0.95-3.92-0.98-5.93c-0.03-2.09,0.3-5.14,1-7c1.17-3.12,2.78-5.9,4.8-8.25
			c-1.3-2.94-2.8-7.71-2.8-10.75c0-6,2.44-13.23,6.19-21.55c2.34-5.2,3.81-8.45,3.81-15.45c0-3-1.36-6.01-3-8
			C16.79,4.922,12.58,4.282,10.5,5.992z"/>
	</g>
	<g>
		<path class="st3" d="M92.53,86.212l3.97,36.78h9v-55C105.5,76.462,97.85,82.812,92.53,86.212z"/>
	</g>
	<g>
		<g>
			<path class="st3" d="M32.64,97.922l-1.12,0.42l-0.02,24.65h8l6.73-37.48C44.69,92.321,39.43,95.422,32.64,97.922z"/>
		</g>
	</g>
	<g>
		<path class="st30" d="M100.5,14.992c-9,0-12,5.125-16,12s-8,12.5-8,19c0,9,9,19,24,19s24-10,24-19c0-6.5-4-12.125-8-19
			S109.5,14.992,100.5,14.992z"/>
	</g>
	<g>
		<path class="st30" d="M117.5,17.992c-2.18,0-4.19,0.7-5.74,1.84c1.72,1.97,3.15,4.42,4.74,7.16c1.34,2.31,2.69,4.48,3.88,6.58
			c3.56-1.07,6.12-4.06,6.12-7.58C126.5,21.571,122.47,17.992,117.5,17.992z"/>
	</g>
	<g>
		<path class="st30" d="M74.5,25.992c0,3.52,2.56,6.51,6.12,7.58c1.19-2.1,2.54-4.27,3.88-6.58c1.59-2.74,3.02-5.19,4.74-7.16
			c-1.55-1.14-3.56-1.84-5.74-1.84C78.53,17.992,74.5,21.571,74.5,25.992z"/>
	</g>
	<g>
		<path class="st29" d="M108.5,28.992c-1.009-0.114-2.764,0.027-3.662,0.289c-1.396,0.408-2.908,0.681-4.338,0.711
			c-1.43-0.03-2.942-0.303-4.338-0.711c-0.898-0.262-2.653-0.403-3.662-0.289c-3.27,0.37-5.675,2.784-6,6
			c-0.201,1.99,0.815,4.617,2,6c2.337,2.728,3,5.435,3,9c0,3.673,2.258,7,6,7h6c3.742,0,6-3.327,6-7c0-3.565,0.663-6.272,3-9
			c1.185-1.383,2.201-4.01,2-6C114.175,31.775,111.77,29.361,108.5,28.992z"/>
	</g>
	<g>
		<circle class="st0" cx="107" cy="36.492" r="2"/>
	</g>
	<g>
		<circle class="st0" cx="94" cy="36.492" r="2"/>
	</g>
	<g>
		<circle class="st0" cx="98" cy="43.492" r="1"/>
	</g>
	<g>
		<circle class="st0" cx="103" cy="43.492" r="1"/>
	</g>
	<g>
		<path class="st4" d="M46.502,85.492c-0.082,0-0.165-0.006-0.249-0.021c-0.816-0.136-1.369-0.909-1.232-1.726
			c0.943-5.663,0.019-10.412,0.009-10.459c-0.163-0.812,0.364-1.603,1.177-1.765c0.806-0.164,1.603,0.364,1.765,1.177
			c0.043,0.215,1.042,5.341,0.009,11.541C47.857,84.972,47.222,85.492,46.502,85.492z"/>
	</g>
	<g>
		<path class="st0" d="M9.48,85.422c-0.622,0-1.201-0.389-1.416-1.007C7.734,83.471,0,61.191,0,52.992
			c0-12.77,3.393-19.134,5.638-23.345c0.635-1.19,1.183-2.218,1.538-3.164c2.438-6.475,3.9-10.884,2.077-13.098
			c-1.257-1.528-1.857-3.282-1.693-4.938C7.699,7.031,8.389,5.78,9.551,4.83c2.634-2.164,7.83-1.548,10.105,1.207
			C21.751,8.578,23,11.925,23,14.992c0,7.306-1.562,10.776-3.926,16.03l-0.017,0.036C14.868,40.354,13,46.81,13,51.992
			c0,2.664,1.377,7.214,2.672,10.144c0.233,0.529,0.143,1.146-0.234,1.584c-1.894,2.203-3.419,4.827-4.533,7.799
			C10.28,73.177,9.973,76.08,10,77.97c0.024,1.649,0.326,3.46,0.922,5.538c0.225,0.78-0.214,1.598-0.987,1.843
			C9.783,85.399,9.631,85.422,9.48,85.422z M13.679,6.5c-0.87,0-1.686,0.207-2.227,0.651c-0.542,0.443-0.847,0.979-0.907,1.592
			c-0.084,0.845,0.289,1.843,1.024,2.736c2.856,3.468,1.307,8.381-1.586,16.062c-0.424,1.127-1.015,2.235-1.698,3.518
			C6.055,35.242,3,40.972,3,52.992c0,4.011,2.247,12.5,4.464,19.823c0.164-0.854,0.373-1.664,0.632-2.352
			c1.119-2.984,2.62-5.663,4.467-7.975C11.268,59.325,10,54.964,10,51.992c0-5.628,1.95-12.464,6.323-22.167
			c0.002-0.005,0.016-0.035,0.016-0.035C18.622,24.716,20,21.654,20,14.992c0-2.817-1.373-5.487-2.657-7.046
			C16.579,7.022,15.062,6.5,13.679,6.5z M17.69,30.441h0.01H17.69z"/>
	</g>
	<g>
		<path class="st4" d="M9.429,85.222c-0.661,0-1.256-0.438-1.441-1.089C7.342,81.864,7.019,79.86,7,78.007
			c-0.031-2.145,0.299-5.425,1.096-7.543c3.255-8.679,9.694-14.628,18.14-16.762l0.674-0.271c0.467-0.189,0.999-0.13,1.414,0.157
			c0.414,0.287,0.657,0.763,0.646,1.268c-0.153,6.84-0.618,27.655-19.326,30.352C9.571,85.217,9.5,85.222,9.429,85.222z
			 M25.899,56.906c-7.024,2.114-12.194,7.143-14.995,14.612C10.28,73.177,9.973,76.08,10,77.97c0.013,1.234,0.188,2.563,0.533,4.036
			C22.971,79.426,25.438,67.041,25.899,56.906z"/>
	</g>
	<g>
		<path class="st0" d="M87.5,124.492h-9c-0.753,0-1.39-0.558-1.487-1.305l-3.91-29.77c-0.425-2.935-2.487-5.925-5.603-5.925
			c-13.752,0-17.559-0.655-19.858-1.447c-1.827,7.616-8.003,10.899-14.483,13.284l-0.14,0.052L33,122.993
			c-0.001,0.828-0.672,1.499-1.5,1.499h-8c-0.632,0-1.196-0.396-1.411-0.991l-3.012-8.34c-0.281-0.779,0.122-1.639,0.901-1.92
			c0.782-0.284,1.64,0.122,1.921,0.901l2.653,7.35h5.448L30.02,98.34c0.001-0.625,0.389-1.184,0.974-1.404l1.12-0.42
			c7.263-2.673,11.95-5.733,12.9-12.727c0.062-0.456,0.329-0.858,0.726-1.091c0.396-0.233,0.879-0.27,1.306-0.104l0.521,0.208
			c2.044,0.831,4.157,1.689,19.934,1.689c4.82,0,7.962,4.284,8.574,8.515l3.741,28.485H86v-32.5c0-0.592,0.35-1.129,0.89-1.371
			C87.062,87.545,104,79.855,104,67.992v-1.684c-1.156,0.123-2.328,0.184-3.5,0.184c-15.751,0-25.5-10.641-25.5-20.5
			c0-1.533,0.204-3.076,0.62-4.68c-4.373-0.937-8.976-0.557-13.123,1.104L27.261,56.522c-0.064,0.026-0.131,0.048-0.199,0.064
			c-7.617,1.893-13.204,7.057-16.157,14.932C10.28,73.177,9.973,76.08,10,77.97c0.016,1.588,0.301,3.333,0.872,5.341
			c0.303,1.101,0.678,2.173,1.038,3.17l7.271,20.134c0.281,0.779-0.122,1.639-0.901,1.92c-0.783,0.283-1.64-0.122-1.921-0.901
			L9.089,87.501c-0.381-1.054-0.779-2.194-1.105-3.382C7.342,81.864,7.019,79.86,7,78.007c-0.031-2.145,0.299-5.425,1.096-7.543
			c3.255-8.679,9.694-14.628,18.14-16.762l0.674-0.271l34.473-13.8c5.231-2.094,11.102-2.391,16.535-0.835
			c0.394,0.113,0.724,0.381,0.914,0.744c0.191,0.362,0.226,0.787,0.095,1.175C78.303,42.574,78,44.3,78,45.992
			c0,8.416,8.603,17.5,22.5,17.5c1.604,0,3.206-0.127,4.762-0.377c0.431-0.071,0.876,0.055,1.211,0.339
			c0.335,0.285,0.527,0.703,0.527,1.142v3.396c0,12.237-14.216,20.078-18,21.948v33.052C89,123.82,88.328,124.492,87.5,124.492z"/>
	</g>
	<g>
		<path class="st0" d="M105.5,124.492h-9c-0.767,0-1.409-0.577-1.491-1.339l-3.97-36.78c-0.062-0.566,0.203-1.118,0.684-1.425
			C96.308,82.017,104,75.917,104,67.992c0-0.829,0.672-1.5,1.5-1.5s1.5,0.671,1.5,1.5v17.428c0,0.408-0.166,0.798-0.46,1.081
			c-0.295,0.283-0.687,0.427-1.098,0.418c-0.042-0.002-0.127-0.01-0.187-0.017c-0.782-0.051-1.401-0.702-1.401-1.497
			c0-0.231,0.052-0.45,0.146-0.646V77.52c-2.549,3.925-6.346,7.095-9.88,9.445l3.727,34.526H104V93.391c0-0.829,0.672-1.5,1.5-1.5
			s1.5,0.671,1.5,1.5v29.601C107,123.82,106.328,124.492,105.5,124.492z M105.354,86.905h0.01H105.354z"/>
	</g>
	<g>
		<g>
			<path class="st0" d="M39.5,124.492h-8c-0.398,0-0.779-0.158-1.062-0.44c-0.281-0.281-0.438-0.663-0.438-1.061l0.02-24.65
				c0.001-0.625,0.389-1.184,0.974-1.404l1.12-0.42c6.61-2.434,11.287-5.291,12.654-11.336c0.18-0.794,0.958-1.301,1.761-1.139
				c0.799,0.162,1.322,0.933,1.179,1.735l-6.73,37.48C40.848,123.972,40.227,124.492,39.5,124.492z M33.001,121.492h5.244
				l4.988-27.776c-2.76,2.602-6.378,4.252-10.075,5.614l-0.14,0.052L33.001,121.492z"/>
		</g>
	</g>
	<g>
		<path class="st4" d="M92.004,53.992c-0.41,0-0.818-0.167-1.114-0.496c-0.555-0.615-0.505-1.564,0.11-2.118
			c1.967-1.773,5.213-3.886,9.5-3.886c4.28,0,7.523,2.107,9.49,3.875c0.616,0.554,0.666,1.502,0.112,2.119
			c-0.554,0.617-1.501,0.666-2.118,0.113c-1.576-1.417-4.154-3.107-7.484-3.107c-3.335,0-5.915,1.694-7.492,3.114
			C92.722,53.864,92.362,53.992,92.004,53.992z"/>
	</g>
	<g>
		<path class="st0" d="M100.5,66.492c-15.751,0-25.5-10.641-25.5-20.5c0-5.993,3.023-11.055,6.523-16.916
			c0.553-0.925,1.116-1.869,1.68-2.838c3.979-6.839,7.416-12.746,17.297-12.746s13.317,5.907,17.297,12.746
			c0.563,0.969,1.127,1.913,1.68,2.838c3.5,5.861,6.523,10.923,6.523,16.916C126,55.851,116.251,66.492,100.5,66.492z M100.5,16.492
			c-8.155,0-10.761,4.477-14.703,11.254c-0.57,0.979-1.14,1.933-1.698,2.868C80.826,36.094,78,40.826,78,45.992
			c0,8.416,8.603,17.5,22.5,17.5s22.5-9.084,22.5-17.5c0-5.166-2.826-9.898-6.099-15.378c-0.559-0.935-1.128-1.889-1.698-2.868
			C111.261,20.969,108.655,16.492,100.5,16.492z"/>
	</g>
	<g>
		<path class="st0" d="M120.38,35.071c-0.529,0-1.033-0.281-1.305-0.761c-0.658-1.16-1.365-2.342-2.092-3.558
			c-0.586-0.979-1.185-1.98-1.781-3.009c-1.502-2.59-2.922-5.036-4.572-6.926c-0.276-0.316-0.407-0.733-0.361-1.15
			s0.265-0.796,0.603-1.045c1.868-1.375,4.223-2.131,6.629-2.131c5.79,0,10.5,4.262,10.5,9.5c0,4.101-2.889,7.724-7.188,9.016
			C120.669,35.051,120.523,35.071,120.38,35.071z M114.014,20.24c1.351,1.805,2.54,3.855,3.784,5.999
			c0.589,1.017,1.181,2.006,1.76,2.974c0.509,0.85,1.007,1.684,1.486,2.505c2.406-1.12,3.956-3.31,3.956-5.727
			c0-3.584-3.364-6.5-7.5-6.5C116.28,19.492,115.084,19.752,114.014,20.24z"/>
	</g>
	<g>
		<path class="st0" d="M80.62,35.071c-0.144,0-0.289-0.021-0.432-0.063C75.889,33.716,73,30.093,73,25.992
			c0-5.238,4.71-9.5,10.5-9.5c2.406,0,4.761,0.757,6.629,2.131c0.338,0.249,0.557,0.628,0.603,1.045s-0.085,0.834-0.361,1.15
			c-1.65,1.89-3.07,4.336-4.572,6.926c-0.597,1.028-1.195,2.029-1.781,3.008c-0.727,1.215-1.434,2.397-2.092,3.558
			C81.653,34.79,81.149,35.071,80.62,35.071z M83.5,19.492c-4.136,0-7.5,2.916-7.5,6.5c0,2.417,1.55,4.606,3.956,5.727
			c0.479-0.822,0.978-1.655,1.486-2.505c0.579-0.968,1.171-1.957,1.76-2.974c1.244-2.144,2.434-4.194,3.784-5.999
			C85.916,19.752,84.72,19.492,83.5,19.492z"/>
	</g>
	<g>
		<path class="st0" d="M103.5,58.492h-6c-4.275,0-7.5-3.654-7.5-8.5c0-3.557-0.74-5.807-2.64-8.024
			c-1.332-1.555-2.61-4.582-2.353-7.127c0.398-3.94,3.342-6.89,7.323-7.34c1.211-0.136,3.154,0.02,4.252,0.34
			c1.372,0.401,2.737,0.626,3.948,0.651c1.148-0.025,2.514-0.25,3.887-0.651c1.097-0.32,3.045-0.479,4.251-0.339
			c3.975,0.449,6.917,3.393,7.321,7.324c0.085,0.824-0.515,1.561-1.339,1.646c-0.815,0.084-1.561-0.514-1.646-1.339
			c-0.257-2.494-2.135-4.363-4.675-4.65c-0.804-0.093-2.356,0.029-3.072,0.238c-1.623,0.474-3.257,0.74-4.728,0.771
			c-1.533-0.03-3.167-0.297-4.789-0.771c-0.718-0.209-2.266-0.33-3.073-0.239c-2.545,0.288-4.424,2.161-4.677,4.661
			c-0.159,1.58,0.723,3.795,1.646,4.873C92.026,42.803,93,45.693,93,49.992c0,2.733,1.546,5.5,4.5,5.5h6c2.954,0,4.5-2.767,4.5-5.5
			c0-4.299,0.974-7.189,3.36-9.976c0.54-0.628,1.487-0.702,2.115-0.163c0.63,0.539,0.702,1.486,0.164,2.115
			c-1.899,2.217-2.64,4.467-2.64,8.024C111,54.837,107.775,58.492,103.5,58.492z"/>
	</g>
</g>
</svg>
