<?xml version="1.0" encoding="utf-8"?>
<!-- Generator: Adobe Illustrator 22.0.0, SVG Export Plug-In . SVG Version: 6.00 Build 0)  -->
<svg version="1.1" id="Layer_1" xmlns="http://www.w3.org/2000/svg" xmlns:xlink="http://www.w3.org/1999/xlink" x="0px" y="0px"
	 viewBox="0 0 128 128" style="enable-background:new 0 0 128 128;" xml:space="preserve">
<style type="text/css">
	.st0{fill:#746887;}
	.st1{fill:#FFCFB8;}
	.st2{fill:#E6B9A0;}
	.st3{fill:#D29997;}
	.st4{fill:#F98770;}
	.st5{fill:#DCA98B;}
	.st6{fill:#FFDDCF;}
	.st7{fill:#E8E8E8;}
	.st8{fill:#FFBF9E;}
	.st9{fill:#B0BACC;}
	.st10{fill:#9BA7BC;}
	.st11{fill:#B6B4ED;}
	.st12{fill:#FFBC99;}
	.st13{fill:#F8F8F8;}
	.st14{fill:#B2A7BF;}
	.st15{fill:#9B9B9B;}
	.st16{fill:#968AA0;}
	.st17{fill:#C6BBD3;}
	.st18{fill:#D8D8D8;}
	.st19{fill:#D29976;}
	.st20{fill:#FFA77B;}
	.st21{fill:#CCD3DD;}
	.st22{fill-rule:evenodd;clip-rule:evenodd;fill:#F8F8F8;}
	.st23{fill-rule:evenodd;clip-rule:evenodd;fill:#9B9B9B;}
	.st24{fill-rule:evenodd;clip-rule:evenodd;fill:#777777;}
	.st25{fill:#91DEF5;}
	.st26{fill:#B0E7F8;}
	.st27{fill-rule:evenodd;clip-rule:evenodd;fill:#DCA98B;}
	.st28{fill-rule:evenodd;clip-rule:evenodd;fill:#D29997;}
	.st29{fill-rule:evenodd;clip-rule:evenodd;fill:#FFCBBE;}
	.st30{fill-rule:evenodd;clip-rule:evenodd;fill:#E6B9A0;}
	.st31{fill-rule:evenodd;clip-rule:evenodd;fill:#746887;}
	.st32{fill-rule:evenodd;clip-rule:evenodd;fill:#FFBC99;}
	.st33{fill-rule:evenodd;clip-rule:evenodd;fill:#FFA77B;}
	.st34{fill-rule:evenodd;clip-rule:evenodd;fill:#FFCFB8;}
	.st35{fill-rule:evenodd;clip-rule:evenodd;fill:#E8E8E8;}
	.st36{fill-rule:evenodd;clip-rule:evenodd;fill:#CCD3DD;}
	.st37{fill:#E6B9C1;}
	.st38{fill:#FFCBBE;}
	.st39{fill-rule:evenodd;clip-rule:evenodd;fill:#F98770;}
	.st40{fill-rule:evenodd;clip-rule:evenodd;fill:#F2BB88;}
	.st41{fill:#F2D1A5;}
	.st42{fill-rule:evenodd;clip-rule:evenodd;fill:#F2D1A5;}
	.st43{fill:#F2BB88;}
	.st44{fill-rule:evenodd;clip-rule:evenodd;fill:#9BA7BC;}
	.st45{fill-rule:evenodd;clip-rule:evenodd;fill:#B0BACC;}
	.st46{fill-rule:evenodd;clip-rule:evenodd;fill:#FFFFFF;}
	.st47{fill-rule:evenodd;clip-rule:evenodd;fill:#FFDDCF;}
	.st48{fill-rule:evenodd;clip-rule:evenodd;fill:#B0E7F8;}
	.st49{fill-rule:evenodd;clip-rule:evenodd;fill:#968AA0;}
	.st50{fill:#9D9BE6;}
	.st51{fill:#CFCEF3;}
	.st52{fill-rule:evenodd;clip-rule:evenodd;fill:#D8D8D8;}
	.st53{fill-rule:evenodd;clip-rule:evenodd;fill:#B6B4ED;}
	.st54{fill-rule:evenodd;clip-rule:evenodd;fill:#FFD4BE;}
</style>
<g>
	<g>
		<g>
			<path class="st3" d="M104.25,69.56v53.31h-9.53l-2.93-30.15c1.87-3.65,4.12-7.12,6.74-10.34c1.308-1.748,2.724-3.293,3.753-5.247
				c0.979-1.86,1.779-4.022,1.897-6.143c0.02-0.23,0.04-0.47,0.05-0.71S104.25,69.8,104.25,69.56z"/>
		</g>
		<g>
			<g>
				<path class="st3" d="M27.074,96.312l-1.186,0.445l-0.021,26.112h8.474l7.129-39.703C39.838,90.38,34.266,93.664,27.074,96.312z"
					/>
			</g>
		</g>
		<g>
			<path class="st12" d="M92.041,56.826C81.647,53.74,75.653,45.525,75.653,37.969c0-3.784,1.283-7.288,3.139-10.885l-0.002-0.003
				c-28.829,0-30.959,21.758-53.878,23.733c-8.05,0.693-15.554,4.787-19.78,11.674c-1.005,1.638-1.863,3.409-2.571,5.297
				C1.82,69.756,1.47,72.986,1.502,75.2c0.021,2.055,0.424,4.1,0.985,6.07c0.328,1.197,0.731,2.352,1.133,3.464l13.771,38.135h8.474
				l0.021-26.112l1.186-0.445c7.712-2.839,13.549-6.409,14.682-14.756c2.606,1.017,3.951,2.119,22.245,2.119
				c4.057,0,6.928,3.633,7.51,7.659l4.142,31.536h9.534v-2.714c0-14.202,4.993-27.975,14.194-38.793
				c2.79-3.28,4.873-7.254,4.873-11.806v-8.283h-6.356C94.991,61.274,92.933,59.374,92.041,56.826z"/>
		</g>
		<g>
			<path class="st32" d="M123.363,27.081c2.43-2.035,3.432-5.238,2.249-7.997c-1.384-3.228-5.265-4.705-8.939-3.541
				c-3.65-6.095-7.099-10.413-15.597-10.413S89.13,9.449,85.48,15.544c-3.674-1.164-7.555,0.313-8.939,3.541
				c-1.183,2.759-0.181,5.962,2.249,7.997c0.002-0.001,0.003-0.002,0.005-0.004c-1.857,3.599-3.142,7.105-3.142,10.891
				c0,7.556,5.993,15.772,16.388,18.858c0.892,2.547,2.95,4.447,5.858,4.447h6.356c2.908,0,4.965-1.9,5.858-4.447
				C120.507,53.74,126.5,45.525,126.5,37.969c0-3.786-1.285-7.292-3.142-10.891C123.359,27.079,123.361,27.08,123.363,27.081z"/>
		</g>
		<g>
			<path class="st47" d="M115.871,15.839c-1.708,0.733-3.048,1.957-3.88,3.371c2.01,0.966,3.954,2.405,6.121,4.018
				c1.826,1.36,3.613,2.607,5.252,3.853c2.43-2.035,3.432-5.238,2.249-7.997C124.127,15.621,119.766,14.169,115.871,15.839z"/>
		</g>
		<g>
			<path class="st47" d="M86.283,15.839c-3.895-1.67-8.256-0.219-9.741,3.245c-1.183,2.759-0.181,5.962,2.249,7.997
				c1.638-1.246,3.425-2.493,5.252-3.853c2.167-1.613,4.111-3.052,6.121-4.018C89.331,17.796,87.991,16.572,86.283,15.839z"/>
		</g>
		<g>
			<path class="st47" d="M109.551,24.737c-1.068-0.121-2.928,0.029-3.879,0.306c-1.479,0.432-3.08,0.722-4.595,0.753
				c-1.515-0.031-3.116-0.321-4.595-0.753c-0.951-0.278-2.811-0.427-3.879-0.306c-3.464,0.392-6.012,2.949-6.356,6.356
				c-0.213,2.108,0.863,4.891,2.119,6.356c2.476,2.89,3.178,12.634,3.178,16.41c0,3.891,2.392,7.415,6.356,7.415h6.356
				c3.963,0,6.356-3.524,6.356-7.415c0-3.776,0.702-13.52,3.178-16.41c1.255-1.465,2.332-4.248,2.119-6.356
				C115.563,27.685,113.015,25.128,109.551,24.737z"/>
		</g>
		<g>
			<path class="st0" d="M107.962,27.999c-1.17,0-2.119,0.948-2.119,2.119c0,1.17,0.948,2.119,2.119,2.119s2.119-0.948,2.119-2.119
				C110.081,28.948,109.132,27.999,107.962,27.999z"/>
		</g>
		<g>
			<path class="st0" d="M94.191,27.999c-1.17,0-2.119,0.948-2.119,2.119c0,1.17,0.949,2.119,2.119,2.119
				c1.17,0,2.119-0.948,2.119-2.119C96.31,28.948,95.361,27.999,94.191,27.999z"/>
		</g>
		<g>
			<circle class="st0" cx="98.428" cy="36.991" r="1.059"/>
		</g>
		<g>
			<path class="st0" d="M103.725,35.932c-0.585,0-1.059,0.474-1.059,1.059c0,0.585,0.474,1.059,1.059,1.059
				c0.585,0,1.059-0.474,1.059-1.059C104.784,36.406,104.31,35.932,103.725,35.932z"/>
		</g>
	</g>
	<g>
		<path class="st4" d="M101.125,50.464c-3.867,0-7.604-1.284-11.105-3.817c-0.672-0.485-0.822-1.423-0.337-2.094
			c0.487-0.671,1.425-0.822,2.095-0.336c5.924,4.286,12.659,4.312,18.595,0.072c0.675-0.48,1.611-0.325,2.093,0.349
			c0.481,0.674,0.325,1.611-0.349,2.092C108.646,49.207,104.948,50.464,101.125,50.464z"/>
	</g>
	<g>
		<path class="st4" d="M41.757,83.057c-0.138,0-0.277-0.019-0.416-0.059c-12.975-3.735-13.137-19.544-13.137-19.703
			c-0.001-0.828,0.671-1.5,1.499-1.501h0.001c0.827,0,1.498,0.67,1.5,1.497l0,0c0,0.035,0.029,3.558,1.449,7.402
			c1.834,4.962,5.036,8.132,9.518,9.422c0.796,0.229,1.256,1.06,1.026,1.856C43.008,82.628,42.408,83.057,41.757,83.057z"/>
	</g>
	<g>
		<path class="st0" d="M85.188,124.369h-9.534c-0.753,0-1.39-0.558-1.487-1.305l-4.142-31.536c-0.456-3.147-2.673-6.354-6.023-6.354
			c-14.741,0-18.68-0.71-21.1-1.561c-1.898,8.096-8.442,11.577-15.31,14.105l-0.206,0.077l-0.02,25.073
			c-0.001,0.828-0.672,1.499-1.5,1.499h-8.475c-0.632,0-1.196-0.396-1.411-0.991L2.209,85.243c-0.403-1.115-0.824-2.322-1.168-3.577
			c-0.678-2.375-1.019-4.49-1.039-6.451c-0.033-2.265,0.314-5.727,1.156-7.959c0.677-1.808,1.527-3.575,2.528-5.248
			c0.425-0.712,1.347-0.942,2.057-0.518c0.711,0.425,0.943,1.346,0.518,2.057c-0.907,1.519-1.68,3.121-2.295,4.764
			c-0.666,1.768-0.993,4.856-0.964,6.867c0.018,1.695,0.321,3.552,0.928,5.681c0.32,1.168,0.719,2.307,1.101,3.365l13.414,37.146
			h5.923l0.02-24.613c0-0.625,0.388-1.184,0.973-1.403l1.187-0.445c7.726-2.844,12.711-6.102,13.724-13.553
			c0.062-0.456,0.329-0.858,0.726-1.091c0.397-0.232,0.879-0.271,1.306-0.104l0.551,0.221c2.174,0.883,4.421,1.795,21.149,1.795
			c5.055,0,8.352,4.499,8.995,8.944l3.973,30.25h6.719v-1.214c0-14.61,5.168-28.732,14.551-39.765
			c2.997-3.524,4.517-7.169,4.517-10.834v-6.783h-4.856c-3.063,0-5.681-1.792-6.986-4.728c-9.904-3.216-16.759-11.383-16.759-20.077
			c0-2.95,0.695-5.898,2.227-9.333c-13.515,0.625-20.649,6.493-27.561,12.179c-6.306,5.187-12.826,10.551-23.778,11.494
			c-5.199,0.447-10.15,2.429-13.942,5.58c-0.637,0.53-1.585,0.441-2.112-0.195c-0.53-0.637-0.442-1.583,0.194-2.112
			c4.259-3.538,9.8-5.761,15.603-6.261c10.024-0.863,15.904-5.701,22.131-10.822c7.719-6.35,15.701-12.917,31.876-12.917
			c0.502,0,0.97,0.25,1.248,0.668c0.303,0.454,0.337,1.038,0.087,1.522c-2.055,3.984-2.972,7.129-2.972,10.197
			c0,6.2,4.792,14.295,15.314,17.419c0.462,0.137,0.83,0.487,0.989,0.942c0.362,1.035,1.521,3.443,4.441,3.443h6.356
			c0.828,0,1.5,0.671,1.5,1.5v8.283c0,4.397-1.76,8.696-5.231,12.777c-8.922,10.491-13.836,23.922-13.836,37.821v2.714
			C86.688,123.698,86.016,124.369,85.188,124.369z"/>
	</g>
	<g>
		<path class="st0" d="M104.25,124.37h-9.53c-0.772,0-1.418-0.586-1.493-1.355l-2.93-30.15c-0.08-0.825,0.523-1.558,1.348-1.638
			c0.827-0.075,1.559,0.523,1.639,1.348l2.798,28.795h6.669v-6.67c0-0.829,0.672-1.5,1.5-1.5s1.5,0.671,1.5,1.5v8.17
			C105.75,123.698,105.078,124.37,104.25,124.37z"/>
	</g>
	<g>
		<path class="st0" d="M104.25,108.209c-0.828,0-1.5-0.671-1.5-1.5v-27.43c-0.622,0.943-1.302,1.803-1.966,2.644
			c-0.353,0.446-0.707,0.894-1.054,1.356c-0.497,0.664-1.437,0.797-2.1,0.3c-0.663-0.497-0.798-1.437-0.301-2.1
			c0.362-0.483,0.732-0.952,1.101-1.417c0.945-1.197,1.839-2.327,2.525-3.63c1.038-1.973,1.635-3.884,1.726-5.526
			c0.022-0.259,0.041-0.477,0.051-0.694c0.008-0.214,0.018-0.434,0.018-0.653c0-0.829,0.672-1.5,1.5-1.5s1.5,0.671,1.5,1.5v37.15
			C105.75,107.538,105.078,108.209,104.25,108.209z"/>
	</g>
	<g>
		<g>
			<path class="st0" d="M34.341,124.369h-8.475c-0.398,0-0.779-0.158-1.062-0.44c-0.281-0.281-0.438-0.663-0.438-1.061l0.021-26.112
				c0.001-0.625,0.389-1.184,0.974-1.404l1.187-0.445c7.028-2.587,12.002-5.629,13.46-12.073c0.18-0.795,0.96-1.301,1.761-1.139
				c0.8,0.162,1.322,0.933,1.179,1.735l-7.129,39.703C35.688,123.849,35.067,124.369,34.341,124.369z M27.367,121.369h5.719
				l5.345-29.768c-2.937,2.857-6.845,4.648-10.839,6.119l-0.206,0.077L27.367,121.369z"/>
		</g>
	</g>
	<g>
		<path class="st0" d="M104.255,62.773h-6.356c-3.063,0-5.681-1.792-6.986-4.728c-9.904-3.216-16.759-11.383-16.759-20.077
			c0-3.298,0.869-6.593,2.801-10.564c-2.332-2.499-3.062-5.95-1.792-8.911c1.531-3.572,5.523-5.452,9.609-4.674
			C88.259,8.159,92.131,3.63,101.077,3.63c8.945,0,12.817,4.529,16.305,10.189c4.089-0.777,8.077,1.102,9.609,4.673
			c1.27,2.961,0.54,6.413-1.792,8.911c1.932,3.972,2.801,7.267,2.801,10.564c0,8.694-6.854,16.861-16.759,20.077
			C109.936,60.982,107.318,62.773,104.255,62.773z M79.658,25.851c0.072,0.051,0.142,0.108,0.205,0.173
			c0.456,0.462,0.563,1.165,0.266,1.742c-2.058,3.986-2.976,7.133-2.976,10.203c0,6.2,4.792,14.295,15.314,17.419
			c0.462,0.137,0.83,0.487,0.989,0.942c0.362,1.035,1.521,3.443,4.441,3.443h6.356c2.92,0,4.079-2.408,4.441-3.443
			c0.159-0.455,0.527-0.805,0.989-0.942C120.208,52.264,125,44.168,125,37.969c0-3.07-0.918-6.217-2.976-10.203
			c-0.298-0.577-0.19-1.28,0.266-1.742c0.063-0.065,0.133-0.123,0.205-0.173c1.916-1.664,2.615-4.131,1.738-6.175
			c-1.066-2.486-4.12-3.649-7.106-2.702c-0.662,0.213-1.384-0.062-1.74-0.659c-3.396-5.67-6.41-9.684-14.31-9.684
			c-7.9,0-10.915,4.014-14.311,9.684c-0.357,0.598-1.08,0.87-1.74,0.659c-2.988-0.945-6.041,0.215-7.106,2.702
			C77.043,21.72,77.743,24.187,79.658,25.851z"/>
	</g>
	<g>
		<path class="st0" d="M123.363,28.581c-0.319,0-0.639-0.102-0.908-0.306c-0.902-0.687-1.851-1.373-2.826-2.08
			c-0.79-0.572-1.598-1.157-2.413-1.764c-2.04-1.519-3.967-2.953-5.874-3.87c-0.379-0.182-0.663-0.514-0.785-0.915
			c-0.123-0.401-0.071-0.835,0.142-1.197c1.025-1.746,2.653-3.163,4.582-3.989c4.649-1.994,9.902-0.184,11.711,4.033v0
			c1.416,3.304,0.345,7.217-2.665,9.737C124.048,28.464,123.706,28.581,123.363,28.581z M114.247,18.723
			c1.589,0.942,3.141,2.097,4.76,3.303c0.805,0.599,1.602,1.176,2.382,1.741c0.625,0.453,1.24,0.898,1.839,1.34
			c1.349-1.604,1.76-3.673,1.006-5.431c-1.157-2.697-4.645-3.798-7.771-2.458C115.622,17.578,114.867,18.094,114.247,18.723z"/>
	</g>
	<g>
		<path class="st0" d="M78.79,28.581c-0.343,0-0.685-0.117-0.963-0.35c-3.01-2.521-4.081-6.434-2.665-9.737v0
			c1.809-4.215,7.062-6.028,11.711-4.032c1.928,0.826,3.556,2.243,4.583,3.988c0.213,0.362,0.265,0.796,0.142,1.198
			c-0.122,0.401-0.407,0.733-0.785,0.915c-1.908,0.917-3.835,2.351-5.875,3.87c-0.815,0.607-1.623,1.192-2.413,1.764
			c-0.976,0.707-1.924,1.393-2.826,2.08C79.429,28.479,79.109,28.581,78.79,28.581z M77.92,19.675
			c-0.754,1.758-0.343,3.828,1.006,5.431c0.599-0.442,1.214-0.887,1.839-1.34c0.78-0.564,1.577-1.142,2.382-1.741
			c1.619-1.206,3.171-2.361,4.761-3.303c-0.621-0.628-1.377-1.145-2.216-1.504C82.561,15.875,79.076,16.979,77.92,19.675
			L77.92,19.675z"/>
	</g>
	<g>
		<path class="st0" d="M104.255,62.773h-6.356c-4.479,0-7.855-3.833-7.855-8.915c0-5.092-0.979-13.289-2.816-15.434
			c-1.4-1.633-2.742-4.811-2.473-7.483c0.418-4.13,3.504-7.223,7.68-7.696c1.271-0.143,3.315,0.021,4.469,0.357
			c1.462,0.427,2.916,0.667,4.206,0.693c1.227-0.027,2.681-0.267,4.144-0.693c1.152-0.337,3.199-0.5,4.467-0.357
			c4.177,0.473,7.263,3.565,7.681,7.696l0,0c0.27,2.672-1.072,5.85-2.473,7.483c-1.838,2.145-2.816,10.342-2.816,15.434
			C112.11,58.941,108.733,62.773,104.255,62.773z M93.473,26.194c-0.263,0-0.503,0.011-0.702,0.033
			c-2.737,0.31-4.76,2.326-5.032,5.016c-0.171,1.696,0.775,4.073,1.766,5.229c3.442,4.018,3.539,17.254,3.539,17.386
			c0,2.939,1.668,5.915,4.855,5.915h6.356c3.188,0,4.855-2.976,4.855-5.915c0-0.132,0.097-13.368,3.539-17.386
			c0.99-1.156,1.937-3.533,1.766-5.229c-0.272-2.69-2.295-4.707-5.033-5.017c-0.864-0.097-2.522,0.032-3.289,0.256
			c-1.712,0.5-3.436,0.781-4.984,0.812c-1.611-0.032-3.336-0.313-5.047-0.812C95.471,26.311,94.351,26.194,93.473,26.194z"/>
	</g>
</g>
</svg>
