<?xml version="1.0" encoding="utf-8"?>
<!-- Generator: Adobe Illustrator 22.0.0, SVG Export Plug-In . SVG Version: 6.00 Build 0)  -->
<svg version="1.1" id="Layer_1" xmlns="http://www.w3.org/2000/svg" xmlns:xlink="http://www.w3.org/1999/xlink" x="0px" y="0px"
	 viewBox="0 0 128 128" style="enable-background:new 0 0 128 128;" xml:space="preserve">
<style type="text/css">
	.st0{fill:#746887;}
	.st1{fill:#FFCFB8;}
	.st2{fill:#E6B9A0;}
	.st3{fill:#D29997;}
	.st4{fill:#F98770;}
	.st5{fill:#DCA98B;}
	.st6{fill:#FFDDCF;}
	.st7{fill:#E8E8E8;}
	.st8{fill:#FFBF9E;}
	.st9{fill:#B0BACC;}
	.st10{fill:#9BA7BC;}
	.st11{fill:#B6B4ED;}
	.st12{fill:#FFBC99;}
	.st13{fill:#F8F8F8;}
	.st14{fill:#B2A7BF;}
	.st15{fill:#9B9B9B;}
	.st16{fill:#968AA0;}
	.st17{fill:#C6BBD3;}
	.st18{fill:#D8D8D8;}
	.st19{fill:#D29976;}
	.st20{fill:#FFA77B;}
	.st21{fill:#CCD3DD;}
	.st22{fill-rule:evenodd;clip-rule:evenodd;fill:#F8F8F8;}
	.st23{fill-rule:evenodd;clip-rule:evenodd;fill:#9B9B9B;}
	.st24{fill-rule:evenodd;clip-rule:evenodd;fill:#777777;}
	.st25{fill:#91DEF5;}
	.st26{fill:#B0E7F8;}
	.st27{fill-rule:evenodd;clip-rule:evenodd;fill:#DCA98B;}
	.st28{fill-rule:evenodd;clip-rule:evenodd;fill:#D29997;}
	.st29{fill-rule:evenodd;clip-rule:evenodd;fill:#FFCBBE;}
	.st30{fill-rule:evenodd;clip-rule:evenodd;fill:#E6B9A0;}
	.st31{fill-rule:evenodd;clip-rule:evenodd;fill:#746887;}
	.st32{fill-rule:evenodd;clip-rule:evenodd;fill:#FFBC99;}
	.st33{fill-rule:evenodd;clip-rule:evenodd;fill:#FFA77B;}
	.st34{fill-rule:evenodd;clip-rule:evenodd;fill:#FFCFB8;}
	.st35{fill-rule:evenodd;clip-rule:evenodd;fill:#E8E8E8;}
	.st36{fill-rule:evenodd;clip-rule:evenodd;fill:#CCD3DD;}
	.st37{fill:#E6B9C1;}
	.st38{fill:#FFCBBE;}
	.st39{fill-rule:evenodd;clip-rule:evenodd;fill:#F98770;}
	.st40{fill-rule:evenodd;clip-rule:evenodd;fill:#F2BB88;}
	.st41{fill:#F2D1A5;}
	.st42{fill-rule:evenodd;clip-rule:evenodd;fill:#F2D1A5;}
	.st43{fill:#F2BB88;}
	.st44{fill-rule:evenodd;clip-rule:evenodd;fill:#9BA7BC;}
	.st45{fill-rule:evenodd;clip-rule:evenodd;fill:#B0BACC;}
	.st46{fill-rule:evenodd;clip-rule:evenodd;fill:#FFFFFF;}
	.st47{fill-rule:evenodd;clip-rule:evenodd;fill:#FFDDCF;}
	.st48{fill-rule:evenodd;clip-rule:evenodd;fill:#B0E7F8;}
	.st49{fill-rule:evenodd;clip-rule:evenodd;fill:#968AA0;}
	.st50{fill:#9D9BE6;}
	.st51{fill:#CFCEF3;}
	.st52{fill-rule:evenodd;clip-rule:evenodd;fill:#D8D8D8;}
	.st53{fill-rule:evenodd;clip-rule:evenodd;fill:#B6B4ED;}
	.st54{fill-rule:evenodd;clip-rule:evenodd;fill:#FFD4BE;}
</style>
<g>
	<g>
		<g>
			<path class="st7" d="M10.808,38.309C3.278,38.934-2.14,56.844,4.647,64.097c-7.255,7.348-0.719,25.819,7.029,25.938
				c5.282,0.081,11.99-5.078,15.601-10.946c-1.942-4.658-3.007-9.678-3.007-14.912c0-5.373,1.118-10.52,3.159-15.281
				C23.625,42.973,16.298,37.853,10.808,38.309z"/>
		</g>
	</g>
	<g>
		<g>
			<path class="st1" d="M117.594,39.32l3.067-11.865l-11.262,3.831C112.491,33.665,115.247,36.361,117.594,39.32z"/>
		</g>
	</g>
	<g>
		<g>
			<path class="st1" d="M86.54,21.166c4.745,0.911,9.243,2.382,13.389,4.344l-2.663-14.571L86.54,21.166z"/>
		</g>
	</g>
	<g>
		<g>
			<path class="st1" d="M62.759,21.458c4.039-0.885,8.269-1.358,12.627-1.358c0.21,0,0.418,0.011,0.628,0.014L68.002,8.524
				L62.759,21.458z"/>
		</g>
	</g>
	<g>
		<g>
			<path class="st1" d="M43.412,29.799c2.845-1.97,5.937-3.682,9.234-5.097l-9.009-6.173L43.412,29.799z"/>
		</g>
	</g>
	<g>
		<g>
			<path class="st1" d="M30.845,42.561c1.773-2.711,3.867-5.243,6.241-7.559l-9.405-2.73L30.845,42.561z"/>
		</g>
	</g>
	<g>
		<g>
			<path class="st1" d="M103.45,101.01l17.211,6.837l-3.707-18.037C113.291,94.219,108.712,98.022,103.45,101.01z"/>
		</g>
	</g>
	<g>
		<g>
			<path class="st1" d="M74.945,108.244l6.493,11.232l6.297-12.526c-3.956,0.847-8.09,1.303-12.35,1.303
				C75.238,108.253,75.093,108.245,74.945,108.244z"/>
		</g>
	</g>
	<g>
		<g>
			<path class="st1" d="M34.816,90.976l-4.435,12.737l15.115-3.791C41.451,97.402,37.851,94.387,34.816,90.976z"/>
		</g>
	</g>
	<g>
		<g>
			<path class="st1" d="M56.643,114.052l7.815-6.819c-3.149-0.592-6.192-1.426-9.095-2.493L56.643,114.052z"/>
		</g>
	</g>
	<g>
		<g>
			<ellipse class="st9" cx="75.385" cy="64.177" rx="51.115" ry="44.077"/>
		</g>
	</g>
	<g>
		<g>
			<path class="st1" d="M58.467,34.275l-9.818,1.404l6.772,7.677C59.267,43.215,61.728,36.25,58.467,34.275z"/>
		</g>
	</g>
	<g>
		<g>
			<path class="st1" d="M67.653,95.345l-0.114,7.813l6.806-4.327C74.709,95.821,69.591,93.05,67.653,95.345z"/>
		</g>
	</g>
	<g>
		<g>
			<path class="st1" d="M93.22,94.232L99.5,97l-1.097-6.557C96.479,88.76,92.529,91.746,93.22,94.232z"/>
		</g>
	</g>
	<g>
		<g>
			<path class="st7" d="M93.558,27.341c-18.193,0-32.927,16.492-32.942,36.836c-0.01,14.085,9.99,17.377,15.307,16.617
				c8.834-1.262,14.618-8.82,23.379-8.82c10.234,0,9.79,7.174,19.412,6.921c3.463-0.091,7.786-5.818,7.786-14.718
				c0-11.134-4.798-21.296-12.694-29.054C108.219,30.248,101.193,27.341,93.558,27.341z"/>
		</g>
	</g>
	<g>
		<g>
			<ellipse class="st1" cx="115.001" cy="57.221" rx="4.895" ry="8.271"/>
		</g>
	</g>
	<g>
		<g>
			<ellipse class="st1" cx="81.518" cy="57.221" rx="4.895" ry="8.271"/>
		</g>
	</g>
	<g>
		<g>
			<ellipse class="st1" cx="98.259" cy="62.453" rx="5.134" ry="3.038"/>
		</g>
	</g>
	<g>
		<g>
			<path class="st7" d="M38.018,52.942c-5.086,3.418-4.667,22.397,2.034,25.636c6.548,3.165,15.109-8.198,15.109-14.402
				C55.161,55.758,43.609,49.184,38.018,52.942z"/>
		</g>
	</g>
	<g>
		<g>
			<path class="st4" d="M74.429,82.396c-2.887,0-6.541-0.936-9.621-3.609c-2.6-2.255-5.696-6.621-5.69-14.61
				c0.007-10.715,4.079-21.015,11.173-28.259c0.578-0.592,1.529-0.601,2.121-0.021s0.602,1.529,0.021,2.121
				c-6.549,6.688-10.31,16.224-10.315,26.161c-0.004,5.428,1.606,9.696,4.656,12.343c2.969,2.576,6.671,3.112,8.938,2.788
				c3.825-0.546,7.027-2.354,10.417-4.268c3.977-2.245,8.089-4.566,13.173-4.566c5.647,0,8.427,2.064,10.879,3.887
				c2.271,1.688,4.235,3.141,8.493,3.034c2.208-0.059,6.326-4.649,6.326-13.219c0-10.287-4.349-20.226-12.246-27.984
				c-5.491-4.789-12.151-7.352-19.195-7.352c-5.324,0-10.593,1.531-15.234,4.43c-0.701,0.439-1.628,0.225-2.066-0.479
				c-0.438-0.702-0.225-1.628,0.479-2.066c5.118-3.195,10.936-4.885,16.822-4.885c7.779,0,15.122,2.818,21.233,8.151
				C123.332,42.38,128,53.078,128,64.177c0,9.556-4.781,16.101-9.247,16.217c-5.291,0.155-7.987-1.859-10.362-3.624
				c-2.28-1.694-4.434-3.295-9.089-3.295c-4.296,0-7.892,2.03-11.698,4.179c-3.482,1.966-7.083,3.999-11.468,4.626
				C75.609,82.354,75.036,82.396,74.429,82.396z"/>
		</g>
	</g>
	<g>
		<g>
			<path class="st0" d="M75.386,109.753c-29.012,0-52.615-20.445-52.615-45.576S46.374,18.6,75.386,18.6S128,39.046,128,64.177
				c0,17.447-11.223,33.102-29.287,40.854c-0.764,0.323-1.644-0.026-1.971-0.787c-0.326-0.762,0.026-1.644,0.787-1.971
				C114.474,95.003,125,80.404,125,64.177C125,40.699,102.743,21.6,75.386,21.6c-27.358,0-49.615,19.1-49.615,42.577
				c0,23.477,22.257,42.576,49.615,42.576c5.118,0,10.175-0.671,15.028-1.993c0.798-0.218,1.624,0.254,1.842,1.053
				c0.218,0.8-0.254,1.624-1.053,1.842C86.092,109.047,80.771,109.753,75.386,109.753z"/>
		</g>
	</g>
	<g>
		<g>
			<path class="st0" d="M42.45,80.629c-1.061,0-2.083-0.233-3.05-0.7c-3.432-1.658-5.769-6.703-6.25-13.493
				c-0.375-5.297,0.455-12.335,4.031-14.738c2.854-1.918,7.183-1.745,11.3,0.448c4.969,2.646,8.18,7.369,8.18,12.031
				c0,4.842-4.262,11.762-9.12,14.81C45.801,80.078,44.081,80.629,42.45,80.629z M41.92,53.354c-1.181,0-2.235,0.275-3.064,0.833
				c-1.94,1.304-3.106,6.478-2.712,12.035c0.393,5.536,2.183,9.855,4.562,11.005c1.497,0.724,3.261,0.46,5.242-0.782
				c4.344-2.726,7.714-8.833,7.714-12.269c0-4.335-3.55-7.765-6.59-9.384C45.281,53.84,43.489,53.354,41.92,53.354z"/>
		</g>
	</g>
	<g>
		<g>
			<path class="st0" d="M11.799,91.536c-0.049,0-0.097,0-0.146-0.001c-3.75-0.058-7.491-3.548-9.766-9.108
				c-2.369-5.794-2.934-13.484,0.798-18.357c-1.974-2.728-2.882-6.56-2.571-10.962c0.058-0.826,0.787-1.459,1.602-1.391
				c0.826,0.058,1.449,0.775,1.391,1.602c-0.293,4.16,0.643,7.624,2.636,9.754c0.55,0.588,0.537,1.505-0.028,2.078
				c-3.717,3.765-3.149,11.006-1.049,16.141c1.783,4.362,4.545,7.206,7.034,7.244c0.032,0.001,0.065,0.001,0.099,0.001
				c4.275,0,10.198-4.147,13.799-9.601c-1.876-4.748-2.826-9.709-2.826-14.759c0-5.186,0.998-10.268,2.966-15.117
				c-3.831-5.522-10.333-9.62-14.805-9.256c-2.17,0.18-4.499,2.582-6.079,6.269c-0.327,0.761-1.211,1.112-1.97,0.788
				c-0.762-0.326-1.114-1.208-0.788-1.97c2.08-4.853,5.211-7.797,8.589-8.077c6.389-0.523,14.18,5.313,18.009,11.271
				c0.27,0.419,0.313,0.944,0.117,1.401c-2.017,4.701-3.039,9.644-3.039,14.69c0,4.911,0.973,9.733,2.892,14.335
				c0.186,0.445,0.146,0.952-0.107,1.363C25.06,85.554,18.021,91.535,11.799,91.536z"/>
		</g>
	</g>
	<g>
		<g>
			<path class="st0" d="M115.001,66.992c-3.586,0-6.396-4.292-6.396-9.771s2.81-9.771,6.396-9.771s6.395,4.292,6.395,9.771
				S118.587,66.992,115.001,66.992z M115.001,50.449c-1.603,0-3.396,2.896-3.396,6.771s1.793,6.771,3.396,6.771
				s3.395-2.896,3.395-6.771S116.604,50.449,115.001,50.449z"/>
		</g>
	</g>
	<g>
		<g>
			<path class="st0" d="M81.518,66.992c-3.586,0-6.395-4.292-6.395-9.771s2.809-9.771,6.395-9.771s6.396,4.292,6.396,9.771
				S85.104,66.992,81.518,66.992z M81.518,50.449c-1.603,0-3.395,2.896-3.395,6.771s1.792,6.771,3.395,6.771
				s3.396-2.896,3.396-6.771S83.12,50.449,81.518,50.449z"/>
		</g>
	</g>
	<g>
		<g>
			<path class="st4" d="M98.259,66.992c-3.72,0-6.634-1.994-6.634-4.539s2.914-4.538,6.634-4.538s6.634,1.993,6.634,4.538
				S101.979,66.992,98.259,66.992z M98.259,60.915c-2.254,0-3.634,0.996-3.634,1.538c0,0.543,1.38,1.539,3.634,1.539
				s3.634-0.996,3.634-1.539C101.893,61.911,100.513,60.915,98.259,60.915z"/>
		</g>
	</g>
	<g>
		<g>
			<path class="st4" d="M19.706,52.882c-0.222,0-0.447-0.049-0.66-0.153l-9.235-4.533c-0.743-0.365-1.051-1.264-0.686-2.008
				s1.264-1.05,2.008-0.686l9.235,4.533c0.743,0.365,1.051,1.264,0.686,2.008C20.793,52.574,20.26,52.882,19.706,52.882z"/>
		</g>
	</g>
	<g>
		<g>
			<path class="st4" d="M19.707,65.677h-9.235c-0.828,0-1.5-0.672-1.5-1.5s0.672-1.5,1.5-1.5h9.235c0.828,0,1.5,0.672,1.5,1.5
				S20.535,65.677,19.707,65.677z"/>
		</g>
	</g>
	<g>
		<g>
			<path class="st4" d="M10.473,83.235c-0.51,0-1.007-0.26-1.288-0.729c-0.426-0.711-0.194-1.633,0.517-2.058l8.775-5.25
				c0.709-0.425,1.632-0.195,2.058,0.517c0.426,0.711,0.194,1.633-0.517,2.058l-8.775,5.25
				C11.001,83.167,10.735,83.235,10.473,83.235z"/>
		</g>
	</g>
	<g>
		<g>
			<path class="st0" d="M117.595,40.819c-0.452,0-0.887-0.205-1.175-0.567c-2.261-2.848-4.93-5.465-7.936-7.778
				c-0.438-0.337-0.655-0.888-0.564-1.434c0.09-0.546,0.473-0.997,0.996-1.175l11.262-3.83c0.521-0.177,1.099-0.056,1.504,0.32
				c0.403,0.375,0.569,0.941,0.432,1.475l-3.066,11.864c-0.143,0.552-0.584,0.975-1.141,1.093
				C117.803,40.809,117.698,40.819,117.595,40.819z M112.448,31.833c1.577,1.355,3.054,2.795,4.419,4.308l1.646-6.371
				L112.448,31.833z"/>
		</g>
	</g>
	<g>
		<g>
			<path class="st0" d="M99.93,27.009c-0.218,0-0.438-0.048-0.642-0.144c-4.073-1.927-8.458-3.349-13.03-4.227
				c-0.552-0.105-0.998-0.511-1.157-1.05c-0.158-0.538-0.002-1.121,0.404-1.509L96.231,9.852c0.399-0.38,0.974-0.509,1.499-0.341
				c0.524,0.171,0.912,0.615,1.012,1.157l2.663,14.571c0.102,0.553-0.116,1.116-0.562,1.459
				C100.576,26.903,100.254,27.009,99.93,27.009z M89.622,20.3c2.864,0.693,5.648,1.595,8.323,2.694l-1.654-9.054L89.622,20.3z"/>
		</g>
	</g>
	<g>
		<g>
			<path class="st0" d="M62.759,22.959c-0.437,0-0.858-0.19-1.146-0.533c-0.359-0.425-0.453-1.015-0.243-1.53l5.243-12.935
				c0.207-0.511,0.678-0.867,1.226-0.928c0.545-0.059,1.085,0.185,1.398,0.639l8.011,11.589c0.318,0.461,0.354,1.061,0.091,1.556
				c-0.264,0.494-0.762,0.798-1.339,0.797L75.386,21.6c-4.157,0-8.298,0.445-12.306,1.324
				C62.974,22.947,62.865,22.959,62.759,22.959z M68.349,11.663l-3.16,7.795c2.628-0.447,5.298-0.721,7.982-0.818L68.349,11.663z"/>
		</g>
	</g>
	<g>
		<g>
			<path class="st0" d="M43.412,31.299c-0.243,0-0.487-0.059-0.709-0.179c-0.497-0.266-0.802-0.788-0.791-1.352l0.225-11.27
				c0.012-0.551,0.323-1.052,0.813-1.304c0.492-0.253,1.08-0.215,1.534,0.097l9.009,6.173c0.451,0.309,0.698,0.839,0.646,1.384
				c-0.054,0.544-0.398,1.016-0.901,1.231c-3.179,1.365-6.197,3.031-8.972,4.952C44.011,31.209,43.712,31.299,43.412,31.299z
				 M45.081,21.337l-0.112,5.656c1.496-0.92,3.047-1.771,4.644-2.551L45.081,21.337z"/>
		</g>
	</g>
	<g>
		<g>
			<path class="st0" d="M55.42,44.855c-0.43,0-0.84-0.185-1.125-0.508l-6.771-7.677c-0.364-0.413-0.473-0.993-0.282-1.511
				s0.649-0.889,1.195-0.967l9.818-1.404c0.344-0.049,0.692,0.022,0.989,0.202c1.934,1.172,2.69,3.607,1.977,6.356
				c-0.669,2.575-2.752,5.397-5.746,5.507C55.456,44.855,55.438,44.855,55.42,44.855z M51.611,36.771l4.371,4.955
				c1.104-0.428,1.995-1.824,2.335-3.132c0.234-0.903,0.27-2.076-0.286-2.742L51.611,36.771z"/>
		</g>
	</g>
	<g>
		<g>
			<path class="st0" d="M67.539,104.658c-0.252,0-0.504-0.063-0.731-0.19c-0.481-0.27-0.776-0.78-0.769-1.331l0.114-7.812
				c0.005-0.347,0.13-0.682,0.354-0.946c1.242-1.472,3.374-1.798,5.56-0.844c2.027,0.882,4.07,2.973,3.769,5.478
				c-0.054,0.446-0.306,0.845-0.685,1.086l-6.807,4.326C68.099,104.58,67.819,104.658,67.539,104.658z M69.143,96.08l-0.063,4.321
				l3.692-2.346c-0.249-0.666-0.978-1.368-1.902-1.771C70.294,96.034,69.611,95.908,69.143,96.08z"/>
		</g>
	</g>
	<g>
		<g>
			<path class="st0" d="M99.5,98.5c-0.205,0-0.411-0.042-0.604-0.127l-6.28-2.768c-0.412-0.182-0.721-0.538-0.841-0.972
				c-0.605-2.18,0.906-4.296,2.566-5.341c1.805-1.136,3.74-1.127,5.05,0.021c0.261,0.229,0.435,0.54,0.492,0.882l1.097,6.558
				c0.091,0.543-0.124,1.093-0.559,1.432C100.152,98.393,99.828,98.5,99.5,98.5z M94.715,93.252l2.848,1.255l-0.512-3.056
				c-0.313-0.029-0.766,0.163-1.112,0.382C95.35,92.203,94.888,92.761,94.715,93.252z"/>
		</g>
	</g>
	<g>
		<g>
			<path class="st0" d="M30.845,44.061c-0.069,0-0.14-0.005-0.21-0.015c-0.576-0.082-1.053-0.488-1.224-1.045l-3.164-10.289
				c-0.162-0.526-0.022-1.1,0.364-1.493c0.387-0.392,0.96-0.54,1.487-0.388l9.405,2.73c0.513,0.148,0.907,0.559,1.037,1.076
				s-0.025,1.065-0.407,1.438c-2.301,2.245-4.331,4.703-6.034,7.307C31.82,43.809,31.347,44.061,30.845,44.061z M29.932,34.486
				l1.449,4.713c0.9-1.188,1.865-2.342,2.89-3.453L29.932,34.486z"/>
		</g>
	</g>
	<g>
		<g>
			<path class="st0" d="M120.661,109.347c-0.187,0-0.375-0.035-0.554-0.106l-17.211-6.837c-0.536-0.213-0.903-0.714-0.942-1.29
				c-0.04-0.575,0.254-1.123,0.756-1.408c5.117-2.905,9.521-6.557,13.09-10.854c0.369-0.445,0.957-0.638,1.519-0.497
				c0.56,0.14,0.989,0.588,1.105,1.153l3.707,18.037c0.11,0.54-0.084,1.097-0.506,1.451
				C121.351,109.227,121.008,109.347,120.661,109.347z M106.808,100.729l11.825,4.697l-2.545-12.38
				C113.362,95.933,110.256,98.504,106.808,100.729z"/>
		</g>
	</g>
	<g>
		<g>
			<path class="st0" d="M81.438,120.976c-0.534,0-1.03-0.285-1.299-0.749l-6.492-11.232c-0.269-0.466-0.269-1.04,0.002-1.505
				c0.269-0.462,0.763-0.746,1.297-0.746c0.003,0,0.007,0,0.01,0l0.431,0.01c4.05,0,8.1-0.427,12.036-1.27
				c0.565-0.119,1.147,0.094,1.5,0.55c0.354,0.456,0.413,1.075,0.153,1.591l-6.298,12.525c-0.247,0.492-0.745,0.81-1.296,0.825
				C81.467,120.976,81.452,120.976,81.438,120.976z M77.528,109.715l3.817,6.604l3.689-7.338
				C82.556,109.381,80.046,109.626,77.528,109.715z"/>
		</g>
	</g>
	<g>
		<g>
			<path class="st0" d="M30.381,105.213c-0.416,0-0.819-0.173-1.107-0.487c-0.371-0.407-0.49-0.985-0.31-1.506l4.435-12.736
				c0.176-0.502,0.604-0.874,1.125-0.979c0.521-0.101,1.059,0.077,1.413,0.475c2.94,3.305,6.424,6.222,10.353,8.669
				c0.511,0.318,0.782,0.911,0.688,1.506c-0.093,0.595-0.532,1.076-1.116,1.223l-15.115,3.791
				C30.625,105.198,30.502,105.213,30.381,105.213z M35.417,93.81l-2.706,7.772l9.142-2.293
				C39.529,97.624,37.378,95.792,35.417,93.81z"/>
		</g>
	</g>
	<g>
		<g>
			<path class="st0" d="M56.643,115.552c-0.177,0-0.355-0.031-0.526-0.096c-0.516-0.193-0.885-0.654-0.96-1.2l-1.279-9.312
				c-0.071-0.521,0.136-1.043,0.546-1.373c0.411-0.33,0.962-0.42,1.458-0.239c2.819,1.036,5.799,1.853,8.854,2.427
				c0.564,0.106,1.019,0.526,1.17,1.081c0.151,0.554-0.028,1.146-0.461,1.523l-7.815,6.818
				C57.351,115.425,56.999,115.552,56.643,115.552z M57.181,106.947l0.569,4.147l3.465-3.022
				C59.848,107.743,58.501,107.368,57.181,106.947z"/>
		</g>
	</g>
</g>
</svg>
