<?xml version="1.0" encoding="utf-8"?>
<!-- Generator: Adobe Illustrator 22.0.0, SVG Export Plug-In . SVG Version: 6.00 Build 0)  -->
<svg version="1.1" id="Layer_1" xmlns="http://www.w3.org/2000/svg" xmlns:xlink="http://www.w3.org/1999/xlink" x="0px" y="0px"
	 viewBox="0 0 128 128" style="enable-background:new 0 0 128 128;" xml:space="preserve">
<style type="text/css">
	.st0{fill:#746887;}
	.st1{fill:#FFCFB8;}
	.st2{fill:#E6B9A0;}
	.st3{fill:#D29997;}
	.st4{fill:#F98770;}
	.st5{fill:#DCA98B;}
	.st6{fill:#FFDDCF;}
	.st7{fill:#E8E8E8;}
	.st8{fill:#FFBF9E;}
	.st9{fill:#B0BACC;}
	.st10{fill:#9BA7BC;}
	.st11{fill:#B6B4ED;}
	.st12{fill:#FFBC99;}
	.st13{fill:#F8F8F8;}
	.st14{fill:#B2A7BF;}
	.st15{fill:#9B9B9B;}
	.st16{fill:#968AA0;}
	.st17{fill:#C6BBD3;}
	.st18{fill:#D8D8D8;}
	.st19{fill:#D29976;}
	.st20{fill:#FFA77B;}
	.st21{fill:#CCD3DD;}
	.st22{fill-rule:evenodd;clip-rule:evenodd;fill:#F8F8F8;}
	.st23{fill-rule:evenodd;clip-rule:evenodd;fill:#9B9B9B;}
	.st24{fill-rule:evenodd;clip-rule:evenodd;fill:#777777;}
	.st25{fill:#91DEF5;}
	.st26{fill:#B0E7F8;}
	.st27{fill-rule:evenodd;clip-rule:evenodd;fill:#DCA98B;}
	.st28{fill-rule:evenodd;clip-rule:evenodd;fill:#D29997;}
	.st29{fill-rule:evenodd;clip-rule:evenodd;fill:#FFCBBE;}
	.st30{fill-rule:evenodd;clip-rule:evenodd;fill:#E6B9A0;}
	.st31{fill-rule:evenodd;clip-rule:evenodd;fill:#746887;}
	.st32{fill-rule:evenodd;clip-rule:evenodd;fill:#FFBC99;}
	.st33{fill-rule:evenodd;clip-rule:evenodd;fill:#FFA77B;}
	.st34{fill-rule:evenodd;clip-rule:evenodd;fill:#FFCFB8;}
	.st35{fill-rule:evenodd;clip-rule:evenodd;fill:#E8E8E8;}
	.st36{fill-rule:evenodd;clip-rule:evenodd;fill:#CCD3DD;}
	.st37{fill:#E6B9C1;}
	.st38{fill:#FFCBBE;}
	.st39{fill-rule:evenodd;clip-rule:evenodd;fill:#F98770;}
	.st40{fill-rule:evenodd;clip-rule:evenodd;fill:#F2BB88;}
	.st41{fill:#F2D1A5;}
	.st42{fill-rule:evenodd;clip-rule:evenodd;fill:#F2D1A5;}
	.st43{fill:#F2BB88;}
	.st44{fill-rule:evenodd;clip-rule:evenodd;fill:#9BA7BC;}
	.st45{fill-rule:evenodd;clip-rule:evenodd;fill:#B0BACC;}
	.st46{fill-rule:evenodd;clip-rule:evenodd;fill:#FFFFFF;}
	.st47{fill-rule:evenodd;clip-rule:evenodd;fill:#FFDDCF;}
	.st48{fill-rule:evenodd;clip-rule:evenodd;fill:#B0E7F8;}
	.st49{fill-rule:evenodd;clip-rule:evenodd;fill:#968AA0;}
	.st50{fill:#9D9BE6;}
	.st51{fill:#CFCEF3;}
	.st52{fill-rule:evenodd;clip-rule:evenodd;fill:#D8D8D8;}
	.st53{fill-rule:evenodd;clip-rule:evenodd;fill:#B6B4ED;}
	.st54{fill-rule:evenodd;clip-rule:evenodd;fill:#FFD4BE;}
</style>
<g>
	<g>
		<ellipse class="st11" cx="100.5" cy="66.5" rx="26" ry="22"/>
	</g>
	<g>
		<path class="st50" d="M35.5,126.5h7c0,0,1-15,7-15h-8C34.5,111.5,35.5,126.5,35.5,126.5z"/>
	</g>
	<g>
		<path class="st51" d="M83.5,37.5c-3.87,0-7,3.13-7,7c0,3.23,2.18,5.94,5.14,6.75c2.3-2.12,5.18-3.93,8.67-5.13
			c0.13-0.52,0.19-1.06,0.19-1.62C90.5,40.63,87.37,37.5,83.5,37.5z"/>
	</g>
	<g>
		<path class="st11" d="M88.51,111.49c2.98-6-6.01-11-6.01-20.99c0-3.8,1.88-6.45,4.21-8.26C80.32,77.69,74.5,71.48,74.5,66.5
			c0-3.58,1.26-7.79,3.92-11.56c-7.85-1.3-16.93-1.73-26.92-1.44c-16.99,0.49-35,11-35,28s11,45,11,45h8c0,0-1-15,6-15s34,0,34,0
			l2,15h11c0,0,17.32-9.47,23.15-30.25C105.01,104.9,89.01,111.3,88.51,111.49z"/>
	</g>
	<g>
		<path class="st51" d="M117.5,37.5c-3.87,0-7,3.13-7,7c0,0.56,0.06,1.1,0.19,1.62c3.49,1.2,6.37,3.01,8.67,5.13
			c2.96-0.81,5.14-3.52,5.14-6.75C124.5,40.63,121.37,37.5,117.5,37.5z"/>
	</g>
	<g>
		<path class="st13" d="M83.24,79.55c2.63-3.84,8.27-10.05,17.26-10.05v-12c-13.81,0-21.99,5.62-25.98,9.47
			C74.8,70.93,78.55,75.58,83.24,79.55z"/>
	</g>
	<g>
		<path class="st13" d="M100.5,69.5c8.99,0,14.63,6.21,17.26,10.05c4.69-3.97,8.44-8.62,8.72-12.58
			c-3.99-3.85-12.17-9.47-25.98-9.47V69.5z"/>
	</g>
	<g>
		<path class="st13" d="M113.52,82.77c-4.91,3.39-10.05,5.73-13.02,5.73c-3.13,0-8.64-2.59-13.79-6.26
			c-2.33,1.81-4.21,4.46-4.21,8.26c0,10,9,15,6,21c0,0,16.4-6.46,23.15-15.25c1.64-2.13,2.72-4.4,2.85-6.75
			c0.16-2.83-0.21-5.05-0.93-6.76C113.55,82.75,113.54,82.76,113.52,82.77z"/>
	</g>
	<g>
		<path class="st11" d="M46.5,1.5c0,7-2,27-22,31s-23,15-23,24c0,15,15,21,15,21s0.14-0.1,0.4-0.28
			c2.33-12.42,14.72-20.66,27.99-23.03C52.1,47.01,57.98,39.44,58.5,33.5C60.5,10.5,46.5,1.5,46.5,1.5z"/>
	</g>
	<g>
		<path class="st13" d="M34.71,28.24l16.03,19.65c2.59-3.08,4.74-6.13,6.11-8.99L42.36,19.39C40.62,22.68,38.17,25.8,34.71,28.24z"
			/>
	</g>
	<g>
		<path class="st13" d="M16.06,34.95c-4.45,1.81-7.58,4.11-9.75,6.67L24.49,63.9c2.5-2.35,5.45-4.33,8.69-5.91L16.07,34.95H16.06z"
			/>
	</g>
	<g>
		<circle class="st31" cx="89" cy="66" r="2"/>
	</g>
	<g>
		<circle class="st31" cx="112" cy="66" r="2"/>
	</g>
	<g>
		<path class="st0" d="M100.5,81c-3.032,0-5.5-2.467-5.5-5.5c0-1.378,1.121-2.5,2.5-2.5h6c1.379,0,2.5,1.122,2.5,2.5
			C106,78.533,103.532,81,100.5,81z M98.05,76c0.232,1.14,1.243,2,2.45,2s2.218-0.86,2.45-2H98.05z"/>
	</g>
	<g>
		<path class="st0" d="M75.485,112.97c-0.74,0-1.379-0.527-1.474-1.282l-0.008-0.062C73.532,107.848,70.307,105,66.5,105
			c-0.828,0-1.5-0.671-1.5-1.5s0.672-1.5,1.5-1.5c5.316,0,9.822,3.978,10.48,9.252c0.103,0.822-0.476,1.603-1.298,1.706
			C75.616,112.966,75.551,112.97,75.485,112.97z"/>
	</g>
	<g>
		<path class="st0" d="M42.5,128h-7c-0.79,0-1.444-0.612-1.497-1.4c-0.071-1.077-0.591-10.637,3.231-14.722
			C38.384,110.649,39.858,110,41.5,110h8c0.828,0,1.5,0.671,1.5,1.5s-0.672,1.5-1.5,1.5c-3.466,0-5.204,9.163-5.503,13.6
			C43.943,127.388,43.289,128,42.5,128z M36.947,125h4.181c0.292-2.74,1.163-8.469,3.532-12H41.5c-0.823,0-1.482,0.294-2.074,0.926
			C37.3,116.196,36.91,121.808,36.947,125z"/>
	</g>
	<g>
		<path class="st0" d="M81.64,52.75c-0.132,0-0.266-0.018-0.396-0.053C77.567,51.691,75,48.32,75,44.5c0-4.687,3.813-8.5,8.5-8.5
			s8.5,3.813,8.5,8.5c0,0.696-0.079,1.364-0.235,1.986c-0.124,0.492-0.488,0.887-0.968,1.052c-3.087,1.062-5.826,2.681-8.141,4.814
			C82.376,52.611,82.012,52.75,81.64,52.75z M83.5,39c-3.032,0-5.5,2.467-5.5,5.5c0,2.208,1.324,4.185,3.301,5.044
			c2.253-1.931,4.828-3.454,7.678-4.538C88.993,44.844,89,44.675,89,44.5C89,41.467,86.532,39,83.5,39z M90.31,46.12h0.01H90.31z"/>
	</g>
	<g>
		<path class="st0" d="M82.834,127.959c-0.143,0-0.286-0.021-0.429-0.063c-0.794-0.236-1.246-1.072-1.01-1.866
			c0.11-0.371,2.739-9.153,5.763-15.201c0.37-0.741,1.271-1.04,2.013-0.671c0.741,0.371,1.041,1.271,0.671,2.013
			c-2.905,5.811-5.545,14.627-5.571,14.716C84.077,127.538,83.479,127.959,82.834,127.959z"/>
	</g>
	<g>
		<path class="st4" d="M50.74,49.39c-0.004,0-0.008,0-0.011,0c-0.447-0.003-0.869-0.206-1.151-0.552l-16.03-19.65
			c-0.264-0.322-0.381-0.74-0.324-1.152s0.282-0.782,0.622-1.022c2.947-2.08,5.366-4.881,7.188-8.326
			c0.241-0.456,0.698-0.755,1.212-0.794c0.505-0.039,1.011,0.188,1.318,0.601l14.489,19.51c0.332,0.447,0.389,1.041,0.148,1.542
			c-1.326,2.771-3.45,5.902-6.313,9.308C51.604,49.194,51.183,49.39,50.74,49.39z M36.856,28.499L50.742,45.52
			c1.863-2.338,3.322-4.506,4.353-6.467l-12.581-16.94C40.938,24.596,39.044,26.734,36.856,28.499z"/>
	</g>
	<g>
		<path class="st4" d="M24.49,65.4c-0.033,0-0.065-0.001-0.099-0.003c-0.415-0.027-0.801-0.226-1.063-0.548L5.147,42.568
			c-0.457-0.56-0.449-1.367,0.019-1.918c2.48-2.925,5.955-5.311,10.328-7.089c0.619-0.252,1.381-0.042,1.78,0.496l17.109,23.04
			c0.267,0.358,0.359,0.816,0.253,1.25c-0.105,0.433-0.398,0.797-0.8,0.993c-3.177,1.549-5.977,3.452-8.319,5.654
			C25.238,65.255,24.871,65.4,24.49,65.4z M8.289,41.674L24.66,61.736c1.871-1.594,3.968-3.023,6.262-4.27L15.568,36.791
			C12.607,38.117,10.167,39.754,8.289,41.674z"/>
	</g>
	<g>
		<path class="st0" d="M88.5,128h-11c-0.752,0-1.388-0.557-1.487-1.302L74.187,113H41.5c-0.823,0-1.482,0.294-2.074,0.926
			c-2.49,2.66-2.598,9.907-2.429,12.475c0.027,0.414-0.118,0.821-0.402,1.124C36.312,127.828,35.915,128,35.5,128h-8
			c-0.617,0-1.171-0.377-1.396-0.952c-0.059-0.149-5.875-15.038-9.042-29.58c-0.176-0.81,0.337-1.609,1.146-1.785
			c0.809-0.178,1.608,0.337,1.785,1.146c2.66,12.215,7.224,24.688,8.539,28.17h5.412c-0.044-3.15,0.248-9.871,3.29-13.122
			C38.384,110.649,39.858,110,41.5,110h34c0.752,0,1.388,0.557,1.487,1.302L78.813,125h9.283c0.786-0.469,2.949-1.828,5.644-4.091
			c0.635-0.534,1.58-0.45,2.113,0.184c0.533,0.634,0.45,1.581-0.184,2.113c-3.635,3.053-6.335,4.547-6.448,4.609
			C89.001,127.937,88.752,128,88.5,128z"/>
	</g>
	<g>
		<path class="st0" d="M100.381,118.051c-0.355,0-0.713-0.126-0.999-0.382c-0.617-0.553-0.67-1.501-0.118-2.118
			c3.696-4.128,6.617-8.648,8.729-13.495c-7.883,6.502-18.815,10.785-18.949,10.836c-0.576,0.218-1.23,0.063-1.646-0.394
			c-0.414-0.457-0.507-1.122-0.232-1.675c1.119-2.252,0.027-4.345-1.998-7.851C83.311,99.758,81,95.759,81,90.5
			c0-3.116,1.147-5.901,3.338-8.15C80.416,79.336,73,72.802,73,66.5c0-3.413,1.05-7.108,2.927-10.423
			C68.922,55.095,60.732,54.732,51.544,55C35.055,55.475,18,65.518,18,81.5c0,2.206,0.201,4.774,0.599,7.633
			c0.114,0.82-0.458,1.578-1.278,1.692c-0.826,0.117-1.579-0.459-1.692-1.279C15.211,86.551,15,83.844,15,81.5
			C15,63.693,33.536,52.518,51.457,52c10.379-0.301,19.539,0.19,27.208,1.459c0.51,0.084,0.939,0.425,1.139,0.901
			c0.199,0.476,0.14,1.021-0.158,1.443C77.329,59.088,76,62.986,76,66.5c0,3.81,4.546,9.509,11.58,14.519
			c0.387,0.275,0.62,0.716,0.63,1.19s-0.205,0.925-0.58,1.216C85.222,85.295,84,87.676,84,90.5c0,4.455,2,7.917,3.765,10.971
			c1.453,2.513,2.848,4.927,2.858,7.478c4.829-2.188,15.009-7.322,19.838-13.612c0.438-0.569,1.217-0.75,1.861-0.428
			c0.643,0.322,0.967,1.054,0.772,1.747c-2.153,7.675-6.055,14.706-11.595,20.896C101.203,117.882,100.793,118.051,100.381,118.051z
			"/>
	</g>
	<g>
		<path class="st0" d="M119.36,52.75c-0.372,0-0.736-0.139-1.017-0.397c-2.314-2.133-5.054-3.753-8.141-4.814
			c-0.479-0.165-0.844-0.561-0.968-1.052C109.079,45.864,109,45.196,109,44.5c0-4.687,3.813-8.5,8.5-8.5s8.5,3.813,8.5,8.5
			c0,3.82-2.567,7.191-6.244,8.197C119.626,52.732,119.492,52.75,119.36,52.75z M112.021,45.007c2.85,1.084,5.425,2.606,7.678,4.538
			c1.977-0.86,3.301-2.836,3.301-5.044c0-3.033-2.468-5.5-5.5-5.5s-5.5,2.467-5.5,5.5C112,44.675,112.007,44.844,112.021,45.007z"/>
	</g>
	<g>
		<path class="st4" d="M83.24,81.05c-0.353,0-0.696-0.125-0.969-0.355c-3.291-2.785-8.869-8.258-9.248-13.619
			c-0.031-0.443,0.135-0.877,0.455-1.186C77.307,62.196,85.908,56,100.5,56c0.828,0,1.5,0.671,1.5,1.5v12c0,0.829-0.672,1.5-1.5,1.5
			c-8.341,0-13.618,5.888-16.022,9.397c-0.239,0.35-0.616,0.582-1.037,0.639C83.374,81.045,83.307,81.05,83.24,81.05z
			 M76.104,67.541c0.514,2.758,2.965,6.242,6.89,9.8c2.898-3.756,8.161-8.716,16.007-9.286v-9.031
			C87.015,59.402,79.698,64.266,76.104,67.541z"/>
	</g>
	<g>
		<path class="st4" d="M117.76,81.05c-0.066,0-0.134-0.004-0.2-0.014c-0.421-0.057-0.798-0.289-1.037-0.639
			C114.118,76.888,108.841,71,100.5,71c-0.828,0-1.5-0.671-1.5-1.5v-12c0-0.829,0.672-1.5,1.5-1.5
			c14.594,0,23.193,6.197,27.021,9.891c0.319,0.308,0.485,0.742,0.454,1.185c-0.378,5.36-5.956,10.833-9.247,13.619
			C118.456,80.925,118.112,81.05,117.76,81.05z M102,68.054c7.846,0.57,13.108,5.53,16.007,9.286
			c3.925-3.559,6.376-7.042,6.889-9.799c-3.594-3.275-10.908-8.139-22.896-8.518V68.054z"/>
	</g>
	<g>
		<path class="st0" d="M100.5,81c-3.032,0-5.5-2.467-5.5-5.5c0-1.378,1.121-2.5,2.5-2.5h6c1.379,0,2.5,1.122,2.5,2.5
			C106,78.533,103.532,81,100.5,81z M98.05,76c0.232,1.14,1.243,2,2.45,2s2.218-0.86,2.45-2H98.05z"/>
	</g>
	<g>
		<path class="st0" d="M100.5,85c-0.828,0-1.5-0.671-1.5-1.5v-4c0-0.829,0.672-1.5,1.5-1.5s1.5,0.671,1.5,1.5v4
			C102,84.329,101.328,85,100.5,85z"/>
	</g>
	<g>
		<path class="st0" d="M88.5,113c-0.412,0-0.816-0.17-1.106-0.487c-0.42-0.458-0.513-1.128-0.235-1.684
			c1.127-2.252,0.035-4.347-1.991-7.854C83.311,99.761,81,95.761,81,90.5c0-3.745,1.656-7.011,4.79-9.444
			c0.524-0.406,1.252-0.421,1.79-0.037C92.602,84.596,97.793,87,100.5,87c2.545,0,7.435-2.196,12.167-5.464
			c0.035-0.024,0.07-0.046,0.106-0.067c0.05-0.03,0.107-0.062,0.152-0.083c0.369-0.176,0.795-0.193,1.179-0.047
			c0.383,0.146,0.689,0.442,0.849,0.82c0.856,2.036,1.208,4.534,1.045,7.426c-0.138,2.486-1.201,5.037-3.159,7.581
			c-6.922,9.015-23.104,15.46-23.789,15.73C88.871,112.966,88.685,113,88.5,113z M86.802,84.132C84.941,85.883,84,88.021,84,90.5
			c0,4.457,2,7.919,3.765,10.974c1.451,2.513,2.847,4.928,2.855,7.477c4.845-2.201,15.025-7.343,19.841-13.614
			c1.583-2.057,2.438-4.048,2.541-5.919c0,0,0-0.001,0-0.002c0.092-1.616,0.002-3.063-0.269-4.325
			C108.749,87.626,103.85,90,100.5,90C96.741,90,91.136,87.082,86.802,84.132z"/>
	</g>
	<g>
		<path class="st0" d="M100.5,90C93.138,90,73,76.677,73,66.5c0-9.758,8.532-23.5,27.5-23.5S128,56.742,128,66.5
			C128,76.677,107.862,90,100.5,90z M100.5,46C83.602,46,76,57.988,76,66.5C76,74.292,93.897,87,100.5,87S125,74.292,125,66.5
			C125,57.988,117.398,46,100.5,46z"/>
	</g>
	<g>
		<path class="st0" d="M16.5,79c-0.188,0-0.377-0.035-0.557-0.107C15.292,78.632,0,72.333,0,56.5c0-5.103,0-20.63,24.206-25.471
			C43.5,27.17,45,7.452,45,1.5c0-0.549,0.3-1.054,0.781-1.317c0.482-0.261,1.07-0.241,1.53,0.056
			c0.365,0.235,8.978,5.915,11.921,19.532c0.176,0.81-0.339,1.608-1.149,1.783c-0.812,0.174-1.608-0.34-1.782-1.149
			c-1.787-8.267-5.865-13.325-8.414-15.797c-0.271,3.789-1.122,9.041-3.529,14.156c-3.894,8.273-10.476,13.39-19.563,15.207
			C5.478,37.834,3,48.04,3,56.5c0,11.276,9.259,17.165,12.749,18.983c2.838-11.143,13.784-19.929,28.41-22.684
			c7.996-8.023,12.437-14.737,12.847-19.43c0.155-1.791,0.211-3.537,0.169-5.336c-0.019-0.828,0.638-1.515,1.466-1.534
			c0.859-0.018,1.515,0.637,1.534,1.465c0.044,1.911-0.016,3.764-0.181,5.667c-0.485,5.55-5.211,12.824-14.046,21.623
			c-0.217,0.215-0.494,0.36-0.795,0.414C27.83,58.761,19.901,69.36,18.375,77.496c-0.073,0.389-0.297,0.733-0.622,0.958
			l-0.379,0.266C17.115,78.905,16.809,79,16.5,79z"/>
	</g>
</g>
</svg>
