<?xml version="1.0" encoding="utf-8"?>
<!-- Generator: Adobe Illustrator 22.0.0, SVG Export Plug-In . SVG Version: 6.00 Build 0)  -->
<svg version="1.1" id="Layer_1" xmlns="http://www.w3.org/2000/svg" xmlns:xlink="http://www.w3.org/1999/xlink" x="0px" y="0px"
	 viewBox="0 0 128 128" style="enable-background:new 0 0 128 128;" xml:space="preserve">
<style type="text/css">
	.st0{fill:#746887;}
	.st1{fill:#FFCFB8;}
	.st2{fill:#E6B9A0;}
	.st3{fill:#D29997;}
	.st4{fill:#F98770;}
	.st5{fill:#DCA98B;}
	.st6{fill:#FFDDCF;}
	.st7{fill:#E8E8E8;}
	.st8{fill:#FFBF9E;}
	.st9{fill:#B0BACC;}
	.st10{fill:#9BA7BC;}
	.st11{fill:#B6B4ED;}
	.st12{fill:#FFBC99;}
	.st13{fill:#F8F8F8;}
	.st14{fill:#B2A7BF;}
	.st15{fill:#9B9B9B;}
	.st16{fill:#968AA0;}
	.st17{fill:#C6BBD3;}
	.st18{fill:#D8D8D8;}
	.st19{fill:#D29976;}
	.st20{fill:#FFA77B;}
	.st21{fill:#CCD3DD;}
	.st22{fill-rule:evenodd;clip-rule:evenodd;fill:#F8F8F8;}
	.st23{fill-rule:evenodd;clip-rule:evenodd;fill:#9B9B9B;}
	.st24{fill-rule:evenodd;clip-rule:evenodd;fill:#777777;}
	.st25{fill:#91DEF5;}
	.st26{fill:#B0E7F8;}
	.st27{fill-rule:evenodd;clip-rule:evenodd;fill:#DCA98B;}
	.st28{fill-rule:evenodd;clip-rule:evenodd;fill:#D29997;}
	.st29{fill-rule:evenodd;clip-rule:evenodd;fill:#FFCBBE;}
	.st30{fill-rule:evenodd;clip-rule:evenodd;fill:#E6B9A0;}
	.st31{fill-rule:evenodd;clip-rule:evenodd;fill:#746887;}
	.st32{fill-rule:evenodd;clip-rule:evenodd;fill:#FFBC99;}
	.st33{fill-rule:evenodd;clip-rule:evenodd;fill:#FFA77B;}
	.st34{fill-rule:evenodd;clip-rule:evenodd;fill:#FFCFB8;}
	.st35{fill-rule:evenodd;clip-rule:evenodd;fill:#E8E8E8;}
	.st36{fill-rule:evenodd;clip-rule:evenodd;fill:#CCD3DD;}
	.st37{fill:#E6B9C1;}
	.st38{fill:#FFCBBE;}
	.st39{fill-rule:evenodd;clip-rule:evenodd;fill:#F98770;}
	.st40{fill-rule:evenodd;clip-rule:evenodd;fill:#F2BB88;}
	.st41{fill:#F2D1A5;}
	.st42{fill-rule:evenodd;clip-rule:evenodd;fill:#F2D1A5;}
	.st43{fill:#F2BB88;}
	.st44{fill-rule:evenodd;clip-rule:evenodd;fill:#9BA7BC;}
	.st45{fill-rule:evenodd;clip-rule:evenodd;fill:#B0BACC;}
	.st46{fill-rule:evenodd;clip-rule:evenodd;fill:#FFFFFF;}
	.st47{fill-rule:evenodd;clip-rule:evenodd;fill:#FFDDCF;}
	.st48{fill-rule:evenodd;clip-rule:evenodd;fill:#B0E7F8;}
	.st49{fill-rule:evenodd;clip-rule:evenodd;fill:#968AA0;}
	.st50{fill:#9D9BE6;}
	.st51{fill:#CFCEF3;}
	.st52{fill-rule:evenodd;clip-rule:evenodd;fill:#D8D8D8;}
	.st53{fill-rule:evenodd;clip-rule:evenodd;fill:#B6B4ED;}
	.st54{fill-rule:evenodd;clip-rule:evenodd;fill:#FFD4BE;}
</style>
<g>
	<g>
		<path class="st12" d="M36.341,4c-2.25,0-4.37,0.72-6.09,1.98c-1.73,1.26-3.07,3.04-3.75,5.18c-2.35,7.37-7.1,17.78-10.89,22.84
			c-6,8-13,12-13,24s10,24,20,24c1.46,0,2.82-0.11,4.07-0.29c1.75-5.47,5.51-9.04,10.04-10.96c-11.61,1.72-18.99-12.8-5.11-25.75
			c8.21-7.66,12.52-19.21,14.75-28.1C48.001,10.35,43.091,4,36.341,4z"/>
	</g>
	<g>
		<path class="st20" d="M14.561,35.36c-2.4,2.97-4.87,5.44-6.94,8.13c3.77,2.77,9.57,5.94,17.05,6.72c0.83,0.09,1.62,0.16,2.36,0.21
			c1.15-1.81,2.66-3.63,4.58-5.42c1.29-1.21,2.49-2.51,3.6-3.89c-1.54-0.09-3.37-0.23-5.53-0.43
			C22.871,40.05,17.771,37.67,14.561,35.36z"/>
	</g>
	<g>
		<path class="st20" d="M24.231,17.38c-1.27,3.18-2.77,6.48-4.3,9.45c3.73,2.14,9.03,4.17,15.68,4.17h5.81
			c1.6-3.37,2.85-6.81,3.82-10.05c-1.54,0.01-3.39,0.02-5.63,0.05C32.911,21.08,27.661,19.3,24.231,17.38z"/>
	</g>
	<g>
		<path class="st33" d="M24.321,57h-5.71c-7.09,0-12.52-2.5-15.48-4.26c-0.34,1.58-0.52,3.31-0.52,5.26c0,1.62,0.18,3.25,0.53,4.84
			c3.04,1.05,7.26,2.16,11.47,2.16h10.64C24.151,62.75,23.751,60,24.321,57z"/>
	</g>
	<g>
		<path class="st32" d="M74.611,74c0-0.99,0.21-2.05,0.57-3.16c-0.84,0.1-1.7,0.16-2.57,0.16c-15,0-17-2-27-2s-20,6-20,20
			s11,35,11,35h10l1-11h28.064c3.659,0,7.026,1.999,8.778,5.211L87.611,124h9l1-12c0,0,22-5,22-23v-4.81
			c-4.59,4.14-11.88,6.81-20,6.81C85.931,91,74.611,83.44,74.611,74z"/>
	</g>
	<g>
		<polygon class="st28" points="46.611,124 54.611,124 56.048,113 47.611,113 		"/>
	</g>
	<g>
		<path class="st28" d="M106.451,108.52l5.16,15.48h8V90.17l-0.04,0.03C119.051,99.66,112.321,105.34,106.451,108.52z"/>
	</g>
	<g>
		<path class="st3" d="M116.979,44.163c-3.715,0-6.861,2.411-7.975,5.752c4.264,2.271,6.164,6.336,9.264,10.96
			c4.031-0.622,7.121-4.096,7.121-8.301C125.389,47.928,121.624,44.163,116.979,44.163z"/>
	</g>
	<g>
		<path class="st3" d="M90.211,49.88c-4.4,2.25-6.44,6.31-9.54,10.93c-3.89-0.72-6.84-4.13-6.84-8.24c0-4.64,3.77-8.41,8.41-8.41
			C85.951,44.16,89.081,46.56,90.211,49.88z"/>
	</g>
	<g>
		<path class="st32" d="M99.611,48c-11.974,0-14.221,5.782-18.976,12.875c-3.107,4.635-6.024,9.394-6.024,13.125
			c0,9.441,11.315,17,25,17s25-7.559,25-17c0-3.731-3.235-8.491-6.342-13.125C113.514,53.782,111.585,48,99.611,48z"/>
	</g>
	<g>
		<path class="st7" d="M111.629,68.989C106.218,71.444,108.605,80,99.626,80c-8.979,0-6.592-8.556-12.003-11.011
			c-2.691-1.221-5.106-0.146-6.595,1.745c-1.226,1.558-1.582,3.547-1.291,5.456c1.275,8.388,9.774,14.802,19.889,14.809
			c10.115-0.007,18.614-6.42,19.889-14.809c0.29-1.908-0.065-3.898-1.291-5.456C116.736,68.843,114.321,67.768,111.629,68.989z"/>
	</g>
	<g>
		<path class="st7" d="M99.643,91c-0.006,0-0.011-0.001-0.016-0.001S99.615,91,99.61,91H99.643z"/>
	</g>
	<g>
		<path class="st12" d="M99.611,80.077c0,2.477-1,4.732-5,4.732h-1c0,0,0.517,6.191,6,6.191s5-6.191,5-6.191
			C100.611,84.809,99.611,82.554,99.611,80.077z"/>
	</g>
	<g>
		<path class="st3" d="M102.652,75.025l-6-0.049c-0.552-0.005-1.004,0.439-1.008,0.992c-0.018,2.209,1.758,4.015,3.967,4.033
			s4.015-1.758,4.033-3.967C103.648,75.481,103.204,75.029,102.652,75.025z"/>
	</g>
	<g>
		<circle class="st31" cx="92.111" cy="66.5" r="2"/>
	</g>
	<g>
		<circle class="st31" cx="107.111" cy="66.5" r="2"/>
	</g>
	<g>
		<path class="st4" d="M27.03,51.92c-0.033,0-0.067-0.001-0.101-0.003c-0.759-0.051-1.569-0.123-2.421-0.215
			c-7.942-0.828-14.051-4.265-17.776-7.002c-0.325-0.239-0.54-0.599-0.597-0.998c-0.057-0.4,0.051-0.805,0.297-1.125
			c1.144-1.486,2.373-2.871,3.675-4.336c1.08-1.216,2.197-2.474,3.286-3.822c0.501-0.618,1.396-0.739,2.043-0.274
			c2.212,1.591,7.021,4.363,14.382,5.044c2.066,0.191,3.91,0.334,5.479,0.426c0.562,0.033,1.057,0.376,1.284,0.889
			c0.228,0.514,0.149,1.111-0.202,1.548c-1.159,1.441-2.419,2.802-3.743,4.044c-1.76,1.64-3.219,3.365-4.341,5.13
			C28.02,51.659,27.541,51.92,27.03,51.92z M9.79,43.18c3.471,2.321,8.602,4.868,15.036,5.539c0.497,0.054,0.978,0.1,1.439,0.139
			c1.178-1.712,2.629-3.376,4.322-4.955c0.515-0.483,1.021-0.987,1.513-1.508c-0.81-0.064-1.664-0.139-2.558-0.221
			c-6.969-0.645-11.896-3.03-14.693-4.809c-0.842,0.999-1.681,1.944-2.499,2.866C11.456,41.238,10.598,42.204,9.79,43.18z"/>
	</g>
	<g>
		<path class="st4" d="M41.421,32.5H35.61c-5.766,0-11.445-1.511-16.426-4.369c-0.696-0.399-0.955-1.275-0.587-1.988
			c1.51-2.932,2.977-6.154,4.239-9.319c0.16-0.401,0.485-0.714,0.893-0.858c0.408-0.144,0.857-0.106,1.233,0.105
			c2.354,1.318,7.367,3.547,14.63,3.429c2.065-0.027,3.802-0.038,5.268-0.047l0.37-0.002c0.463,0.022,0.925,0.22,1.21,0.601
			c0.285,0.38,0.373,0.874,0.236,1.33c-1.099,3.671-2.411,7.124-3.9,10.263C42.527,32.167,42,32.5,41.421,32.5z M21.926,26.208
			c4.249,2.185,8.846,3.292,13.685,3.292h4.854c1.003-2.202,1.917-4.559,2.729-7.036c-1.062,0.008-2.245,0.019-3.563,0.036
			c-6.654,0.061-11.647-1.622-14.629-3.037C24.047,21.75,23.004,24.04,21.926,26.208z"/>
	</g>
	<g>
		<path class="st4" d="M25.251,66.5H14.61c-4.521,0-8.999-1.219-11.96-2.242c-0.493-0.171-0.862-0.586-0.975-1.096
			C1.301,61.456,1.11,59.72,1.11,58c0-2.018,0.182-3.842,0.554-5.575c0.102-0.472,0.425-0.866,0.867-1.06
			c0.441-0.193,0.95-0.161,1.366,0.085C7.005,53.298,12.079,55.5,18.61,55.5h5.71c0.447,0,0.87,0.199,1.155,0.543
			c0.285,0.344,0.401,0.797,0.318,1.236c-0.484,2.553-0.206,4.995,0.805,7.061c0.228,0.465,0.199,1.014-0.075,1.453
			C26.249,66.233,25.769,66.5,25.251,66.5z M4.441,61.693C7.152,62.573,10.893,63.5,14.61,63.5h8.469
			c-0.446-1.579-0.605-3.264-0.471-5H18.61c-6.005,0-10.894-1.685-14.343-3.426C4.162,56,4.11,56.97,4.11,58
			C4.11,59.228,4.222,60.467,4.441,61.693z"/>
	</g>
	<g>
		<path class="st0" d="M99.61,92.5c-5.428,0-7.276-4.949-7.495-7.566c-0.034-0.418,0.107-0.832,0.392-1.141
			c0.283-0.309,0.684-0.484,1.104-0.484h1c2.905,0,3.5-1.292,3.5-3.232c0-0.829,0.672-1.539,1.5-1.539s1.5,0.633,1.5,1.462v0.077
			c0,1.94,0.595,3.232,3.5,3.232c0.783,0,1.435,0.603,1.495,1.383c0.029,0.372,0.225,3.698-1.85,5.939
			C103.126,91.854,101.52,92.5,99.61,92.5z M95.458,86.277c0.482,1.412,1.598,3.223,4.152,3.223c1.081,0,1.88-0.296,2.443-0.905
			c0.601-0.649,0.879-1.604,0.995-2.4c-1.458-0.229-2.613-0.795-3.438-1.674C98.655,85.538,97.258,86.137,95.458,86.277z"/>
	</g>
	<g>
		<path class="st0" d="M96.61,125.5h-9c-0.549,0-1.054-0.3-1.316-0.782l-3.157-5.789c-1.49-2.732-4.35-4.429-7.462-4.429H48.98
			l-0.876,9.636c-0.07,0.772-0.719,1.364-1.494,1.364h-10c-0.559,0-1.07-0.31-1.329-0.804c-0.311-0.594-7.643-14.692-10.261-27.638
			c-0.164-0.812,0.361-1.604,1.174-1.768c0.807-0.165,1.603,0.361,1.768,1.173c2.186,10.809,7.979,22.855,9.569,26.037h7.709
			l0.876-9.636c0.07-0.772,0.719-1.364,1.494-1.364h28.064c4.211,0,8.079,2.296,10.095,5.993l2.731,5.007h6.729l0.885-10.625
			c0.055-0.651,0.524-1.192,1.161-1.338c0.209-0.048,20.834-4.964,20.834-21.538v-1.734c-4.925,3.353-11.489,5.234-18.5,5.234
			c-14.612,0-26.5-8.299-26.5-18.5c0-0.485,0.041-0.987,0.123-1.509c-0.21,0.006-0.418,0.009-0.623,0.009
			c-8.362,0-12.773-0.619-16.666-1.166C52.755,70.887,50,70.5,45.61,70.5c-8.348,0-18.098,4.65-18.484,17.693
			c0.092,0.194,0.143,0.411,0.143,0.64c0,0.795-0.618,1.445-1.4,1.497c-0.072,0.01-0.141,0.016-0.213,0.018
			c-0.409,0.015-0.8-0.144-1.09-0.427c-0.291-0.284-0.453-0.674-0.451-1.08C24.192,74.099,34.967,67.5,45.61,67.5
			c4.6,0,7.588,0.419,10.751,0.864c3.795,0.532,8.096,1.136,16.249,1.136c0.755,0,1.56-0.05,2.393-0.149
			c0.514-0.062,1.012,0.142,1.337,0.537c0.324,0.395,0.426,0.929,0.268,1.415c-0.33,1.017-0.497,1.924-0.497,2.697
			c0,8.547,10.542,15.5,23.5,15.5c7.435,0,14.536-2.401,18.995-6.424c0.44-0.397,1.073-0.498,1.614-0.257
			c0.542,0.241,0.891,0.778,0.891,1.371V89c0,7.898-4.044,14.647-11.694,19.516c-4.258,2.709-8.475,4.113-10.398,4.664
			l-0.912,10.945C98.04,124.902,97.391,125.5,96.61,125.5z"/>
	</g>
	<g>
		<path class="st4" d="M47.61,114.5c-0.828,0-1.5-0.671-1.5-1.5s0.672-1.5,1.5-1.5c4.293,0,7.5-4.488,7.5-8.5
			c0-3.828-2.095-8.617-7.975-10.577c-0.786-0.262-1.21-1.111-0.948-1.897c0.261-0.787,1.11-1.214,1.897-0.949
			c6.09,2.03,10.025,7.299,10.025,13.423C58.11,109.126,53.204,114.5,47.61,114.5z"/>
	</g>
	<g>
		<path class="st0" d="M54.61,125.5h-8c-0.422,0-0.823-0.177-1.107-0.488c-0.284-0.312-0.425-0.728-0.387-1.147l1-11
			c0.07-0.772,0.719-1.364,1.494-1.364h8.438c0.432,0,0.843,0.186,1.127,0.51c0.285,0.325,0.416,0.756,0.36,1.184l-1.438,11
			C56,124.941,55.363,125.5,54.61,125.5z M48.253,122.5h5.041l1.045-8H48.98L48.253,122.5z"/>
	</g>
	<g>
		<path class="st0" d="M119.61,125.5h-8c-0.646,0-1.219-0.413-1.423-1.026l-5.159-15.48c-0.23-0.69,0.068-1.446,0.708-1.793
			c5.359-2.904,11.85-8.225,12.336-17.083c0.024-0.441,0.241-0.848,0.594-1.114c0.453-0.343,1.081-0.416,1.593-0.162
			c0.51,0.253,0.852,0.758,0.852,1.328v17.926c0,0.829-0.672,1.5-1.5,1.5s-1.5-0.671-1.5-1.5v-8.146
			c-2.54,4.205-6.322,7.206-9.845,9.27l4.426,13.281h5.419v-6.419c0-0.829,0.672-1.5,1.5-1.5s1.5,0.671,1.5,1.5V124
			C121.11,124.829,120.438,125.5,119.61,125.5z"/>
	</g>
	<g>
		<path class="st4" d="M99.643,92.5h-0.033c-0.004,0-0.007,0-0.011,0c-10.78-0.019-19.953-6.927-21.346-16.084
			c-0.376-2.476,0.191-4.822,1.597-6.609c2.142-2.724,5.359-3.561,8.393-2.184c2.732,1.239,3.825,3.677,4.789,5.828
			c1.313,2.931,2.263,5.049,6.595,5.049s5.281-2.118,6.595-5.049c0.964-2.151,2.057-4.589,4.788-5.828
			c3.037-1.375,6.252-0.54,8.394,2.184c1.405,1.786,1.973,4.133,1.597,6.609c-1.393,9.157-10.565,16.065-21.346,16.084
			C99.649,92.5,99.646,92.5,99.643,92.5z M85.341,69.971c-1.592,0-2.673,1.105-3.134,1.691c-0.887,1.128-1.238,2.656-0.987,4.303
			c1.172,7.711,9.084,13.528,18.406,13.535c9.322-0.007,17.234-5.824,18.406-13.535c0.251-1.647-0.1-3.176-0.987-4.303
			c-0.606-0.771-2.287-2.445-4.797-1.307c-1.697,0.77-2.436,2.417-3.29,4.323c-1.361,3.04-3.057,6.822-9.332,6.822
			s-7.971-3.782-9.332-6.822c-0.854-1.906-1.593-3.553-3.291-4.323C86.4,70.082,85.845,69.971,85.341,69.971z"/>
	</g>
	<g>
		<path class="st0" d="M99.61,92.5c-14.612,0-26.5-8.299-26.5-18.5c0-4.241,3.102-9.223,6.278-13.961
			c0.519-0.772,1.006-1.529,1.48-2.265C84.769,51.725,88.137,46.5,99.61,46.5c11.279,0,14.497,5.071,18.224,10.942
			c0.533,0.839,1.084,1.708,1.681,2.597v0l0.163,0.244C122.84,65,126.11,69.877,126.11,74C126.11,84.201,114.223,92.5,99.61,92.5z
			 M99.61,49.5c-9.839,0-12.377,3.938-16.22,9.9c-0.483,0.75-0.981,1.522-1.51,2.31C79.089,65.874,76.11,70.601,76.11,74
			c0,8.547,10.542,15.5,23.5,15.5s23.5-6.953,23.5-15.5c0-3.21-3.012-7.702-5.924-12.046l-0.164-0.244
			c-0.61-0.911-1.176-1.801-1.721-2.66C111.651,53.299,109.24,49.5,99.61,49.5z"/>
	</g>
	<g>
		<path class="st0" d="M99.644,81.5c-0.015,0-0.03,0-0.046,0c-1.469-0.012-2.845-0.596-3.875-1.643s-1.592-2.433-1.579-3.902
			c0.012-1.371,1.132-2.479,2.5-2.479c0.007,0,0.013,0,0.02,0l6.001,0.049c1.377,0.011,2.489,1.141,2.479,2.519
			C105.118,79.062,102.655,81.5,99.644,81.5z M97.188,76.48c0.093,0.478,0.323,0.918,0.673,1.273
			c0.468,0.476,1.094,0.741,1.762,0.747c1.187,0.023,2.225-0.842,2.466-1.979L97.188,76.48z"/>
	</g>
	<g>
		<path class="st0" d="M22.61,83.5C11.76,83.5,1.11,70.869,1.11,58c0-9.642,4.335-14.518,8.924-19.68
			c1.45-1.631,2.949-3.318,4.376-5.22c3.785-5.054,8.481-15.56,10.662-22.396c0.759-2.39,2.244-4.443,4.296-5.937
			C31.392,3.285,33.804,2.5,36.341,2.5c4.349,0,8.338,2.393,10.41,6.246c0.393,0.729,0.119,1.639-0.61,2.031
			c-0.729,0.393-1.639,0.12-2.032-0.61C42.561,7.289,39.584,5.5,36.341,5.5c-1.895,0-3.694,0.584-5.203,1.69
			c-1.535,1.118-2.643,2.646-3.207,4.424c-2.305,7.226-7.094,17.91-11.12,23.285c-1.502,2.003-3.044,3.737-4.534,5.414
			C7.714,45.445,4.11,49.499,4.11,58c0,11.145,9.337,22.5,18.5,22.5c0.989,0,1.98-0.054,2.957-0.161
			c1.262-3.399,3.324-6.225,6.082-8.362c-3.381-0.876-6.209-3.125-7.782-6.392c-2.477-5.141-2.012-13.536,6.72-21.683
			c7.997-7.461,12.174-18.898,14.27-27.179c0.203-0.803,1.019-1.286,1.822-1.086c0.803,0.203,1.289,1.019,1.086,1.822
			c-2.194,8.671-6.601,20.677-15.131,28.636c-7.541,7.036-8.077,14.008-6.063,18.188c1.789,3.716,5.595,5.625,9.931,4.982
			c0.745-0.11,1.459,0.351,1.664,1.078c0.204,0.727-0.164,1.492-0.859,1.787c-3.158,1.339-7.318,4.167-9.196,10.036
			c-0.175,0.547-0.646,0.946-1.215,1.028C25.489,83.397,24.048,83.5,22.61,83.5z"/>
	</g>
	<g>
		<path class="st0" d="M118.269,62.375c-0.495,0-0.965-0.246-1.246-0.665c-0.609-0.909-1.173-1.796-1.717-2.653
			c-2.19-3.45-3.92-6.175-7.007-7.819c-0.646-0.344-0.949-1.104-0.718-1.798c1.353-4.053,5.129-6.777,9.397-6.777
			c5.465,0,9.911,4.446,9.911,9.91c0,4.919-3.529,9.034-8.393,9.784C118.421,62.369,118.344,62.375,118.269,62.375z M110.897,49.298
			c3.044,2.013,4.866,4.884,6.941,8.151c0.359,0.567,0.729,1.148,1.114,1.74c2.909-0.854,4.937-3.503,4.937-6.616
			c0-3.81-3.101-6.91-6.911-6.91C114.404,45.663,112.087,47.084,110.897,49.298z"/>
	</g>
	<g>
		<path class="st0" d="M80.671,62.31c-0.091,0-0.182-0.008-0.273-0.025c-4.674-0.865-8.066-4.951-8.066-9.715
			c0-5.464,4.445-9.91,9.909-9.91c4.245,0,8.02,2.707,9.391,6.736c0.24,0.705-0.074,1.48-0.737,1.819
			c-3.315,1.695-5.161,4.554-7.499,8.172c-0.474,0.733-0.961,1.488-1.478,2.258C81.635,62.065,81.165,62.31,80.671,62.31z
			 M82.24,45.66c-3.81,0-6.909,3.1-6.909,6.91c0,2.991,1.918,5.597,4.678,6.523c0.296-0.451,0.583-0.896,0.866-1.333
			c2.215-3.429,4.159-6.44,7.424-8.513C87.096,47.062,84.79,45.66,82.24,45.66z"/>
	</g>
	<g>
		<path class="st4" d="M95.103,62.375c-0.314,0-0.631-0.098-0.9-0.301c-2.193-1.65-4.105-0.11-4.186-0.043
			c-0.638,0.527-1.584,0.439-2.112-0.2c-0.527-0.638-0.438-1.584,0.2-2.112c1.311-1.085,4.649-2.489,7.9-0.043
			c0.662,0.498,0.795,1.438,0.297,2.101C96.008,62.168,95.558,62.375,95.103,62.375z"/>
	</g>
	<g>
		<path class="st4" d="M110.131,62.375c-0.314,0-0.631-0.098-0.9-0.301c-2.193-1.65-4.104-0.11-4.186-0.043
			c-0.637,0.527-1.583,0.439-2.112-0.2c-0.527-0.638-0.438-1.584,0.2-2.112c1.311-1.085,4.649-2.489,7.9-0.043
			c0.662,0.498,0.795,1.438,0.297,2.101C111.036,62.168,110.586,62.375,110.131,62.375z"/>
	</g>
</g>
</svg>
