<?xml version="1.0" encoding="utf-8"?>
<!-- Generator: Adobe Illustrator 22.0.0, SVG Export Plug-In . SVG Version: 6.00 Build 0)  -->
<svg version="1.1" id="Layer_1" xmlns="http://www.w3.org/2000/svg" xmlns:xlink="http://www.w3.org/1999/xlink" x="0px" y="0px"
	 viewBox="0 0 128 128" style="enable-background:new 0 0 128 128;" xml:space="preserve">
<style type="text/css">
	.st0{fill:#746887;}
	.st1{fill:#FFCFB8;}
	.st2{fill:#E6B9A0;}
	.st3{fill:#D29997;}
	.st4{fill:#F98770;}
	.st5{fill:#DCA98B;}
	.st6{fill:#FFDDCF;}
	.st7{fill:#E8E8E8;}
	.st8{fill:#FFBF9E;}
	.st9{fill:#B0BACC;}
	.st10{fill:#9BA7BC;}
	.st11{fill:#B6B4ED;}
	.st12{fill:#FFBC99;}
	.st13{fill:#F8F8F8;}
	.st14{fill:#B2A7BF;}
	.st15{fill:#9B9B9B;}
	.st16{fill:#968AA0;}
	.st17{fill:#C6BBD3;}
	.st18{fill:#D8D8D8;}
	.st19{fill:#D29976;}
	.st20{fill:#FFA77B;}
	.st21{fill:#CCD3DD;}
	.st22{fill-rule:evenodd;clip-rule:evenodd;fill:#F8F8F8;}
	.st23{fill-rule:evenodd;clip-rule:evenodd;fill:#9B9B9B;}
	.st24{fill-rule:evenodd;clip-rule:evenodd;fill:#777777;}
	.st25{fill:#91DEF5;}
	.st26{fill:#B0E7F8;}
	.st27{fill-rule:evenodd;clip-rule:evenodd;fill:#DCA98B;}
	.st28{fill-rule:evenodd;clip-rule:evenodd;fill:#D29997;}
	.st29{fill-rule:evenodd;clip-rule:evenodd;fill:#FFCBBE;}
	.st30{fill-rule:evenodd;clip-rule:evenodd;fill:#E6B9A0;}
	.st31{fill-rule:evenodd;clip-rule:evenodd;fill:#746887;}
	.st32{fill-rule:evenodd;clip-rule:evenodd;fill:#FFBC99;}
	.st33{fill-rule:evenodd;clip-rule:evenodd;fill:#FFA77B;}
	.st34{fill-rule:evenodd;clip-rule:evenodd;fill:#FFCFB8;}
	.st35{fill-rule:evenodd;clip-rule:evenodd;fill:#E8E8E8;}
	.st36{fill-rule:evenodd;clip-rule:evenodd;fill:#CCD3DD;}
	.st37{fill:#E6B9C1;}
	.st38{fill:#FFCBBE;}
	.st39{fill-rule:evenodd;clip-rule:evenodd;fill:#F98770;}
	.st40{fill-rule:evenodd;clip-rule:evenodd;fill:#F2BB88;}
	.st41{fill:#F2D1A5;}
	.st42{fill-rule:evenodd;clip-rule:evenodd;fill:#F2D1A5;}
	.st43{fill:#F2BB88;}
	.st44{fill-rule:evenodd;clip-rule:evenodd;fill:#9BA7BC;}
	.st45{fill-rule:evenodd;clip-rule:evenodd;fill:#B0BACC;}
	.st46{fill-rule:evenodd;clip-rule:evenodd;fill:#FFFFFF;}
	.st47{fill-rule:evenodd;clip-rule:evenodd;fill:#FFDDCF;}
	.st48{fill-rule:evenodd;clip-rule:evenodd;fill:#B0E7F8;}
	.st49{fill-rule:evenodd;clip-rule:evenodd;fill:#968AA0;}
	.st50{fill:#9D9BE6;}
	.st51{fill:#CFCEF3;}
	.st52{fill-rule:evenodd;clip-rule:evenodd;fill:#D8D8D8;}
	.st53{fill-rule:evenodd;clip-rule:evenodd;fill:#B6B4ED;}
	.st54{fill-rule:evenodd;clip-rule:evenodd;fill:#FFD4BE;}
</style>
<g>
	<g>
		<g>
			<path class="st9" d="M119.5,1.5c-3.86,0-16.02,2.9-30.06,11.38c2.8,13.62,11.84,23.97,25.48,26.18
				C125.56,22.12,126.5,7.5,126.5,7.5l-8,6C118.5,6.5,119.5,1.5,119.5,1.5z"/>
		</g>
	</g>
	<g>
		<g>
			<path class="st9" d="M30.21,101.64c-0.74-0.49-1.16-1.31-1.16-2.15c0-0.31,0.06-0.62,0.17-0.92c0.45-1.19,1.11-2.89,1.95-5
				C14.31,94.52,1.5,105.5,1.5,105.5c20,0,29,21,29,21c5.92-13.82,6-19.84,6-26.73c-1.55,0.87-2.78,1.54-3.63,2
				C32.03,102.22,31.01,102.17,30.21,101.64z"/>
		</g>
	</g>
	<g>
		<g>
			<path class="st9" d="M61.5,97.5c0,0,4.29-6.87,4.92-15.83c-6.21,4.05-12.01,7.64-17.03,10.64L61.5,97.5z"/>
		</g>
	</g>
	<g>
		<g>
			<path class="st9" d="M92.06,63.61L97.5,74.5c0,0,2.69-6.27,2.98-17.95c-2.14,2.01-4.47,4-6.98,5.95
				C93.02,62.87,92.54,63.24,92.06,63.61z"/>
		</g>
	</g>
	<g>
		<g>
			<path class="st9" d="M48.5,40.5c0,0-2.01,6.02,4.92,8.21c3.78-5.98,7.84-11.59,12.08-16.21c1-1.09,2.01-2.15,3.02-3.17
				C57.84,28.55,52.5,25.5,52.5,25.5L48.5,40.5z"/>
		</g>
	</g>
	<g>
		<g>
			<path class="st21" d="M89.44,12.88c-7.76,4.68-16.1,11.07-23.94,19.62C47.47,52.17,32.6,89.66,29.22,98.57
				c-0.11,0.3-0.17,0.61-0.17,0.92c0,0.84,0.42,1.66,1.16,2.15c0.8,0.53,1.82,0.58,2.66,0.13C39.31,98.28,67.3,82.78,93.5,62.5
				c9.71-7.52,16.57-15.72,21.42-23.44C101.28,36.85,92.24,26.5,89.44,12.88z"/>
		</g>
	</g>
	<g>
		<g>
			<circle class="st31" cx="103" cy="15" r="2"/>
		</g>
	</g>
	<g>
		<g>
			<path class="st4" d="M31.168,95.07c-0.303,0-0.61-0.092-0.875-0.283c-0.672-0.484-0.825-1.421-0.341-2.094
				C31.4,90.683,65.561,43.33,78.585,33.311c0.658-0.504,1.599-0.382,2.104,0.274c0.506,0.657,0.383,1.598-0.273,2.104
				c-12.68,9.753-47.676,58.269-48.028,58.757C32.094,94.854,31.635,95.07,31.168,95.07z"/>
		</g>
	</g>
	<g>
		<g>
			<path class="st0" d="M114.92,40.56c-0.079,0-0.159-0.006-0.24-0.02c-13.657-2.212-23.642-12.44-26.709-27.358
				c-0.128-0.623,0.15-1.258,0.694-1.586C102.651,3.148,115.001,0,119.5,0c0.449,0,0.875,0.202,1.159,0.549
				c0.285,0.347,0.399,0.804,0.312,1.245c-0.008,0.041-0.69,3.527-0.906,8.658L125.6,6.3c0.47-0.351,1.1-0.397,1.614-0.119
				s0.82,0.831,0.783,1.416c-0.04,0.613-1.088,15.196-11.807,32.262C115.913,40.299,115.431,40.56,114.92,40.56z M91.137,13.614
				c2.961,12.729,11.479,21.521,23.045,23.79c6.882-11.258,9.431-21.439,10.342-26.547L119.4,14.7
				c-0.455,0.34-1.064,0.395-1.571,0.142C117.321,14.587,117,14.068,117,13.5c0-4.542,0.408-8.237,0.71-10.354
				C112.982,3.793,102.888,6.678,91.137,13.614z"/>
		</g>
	</g>
	<g>
		<g>
			<path class="st0" d="M30.5,128c-0.599,0-1.141-0.357-1.378-0.907C29.035,126.891,20.251,107,1.5,107
				c-0.628,0-1.189-0.391-1.407-0.98c-0.217-0.589-0.045-1.251,0.432-1.66c0.218-0.187,5.431-4.608,13.624-8.133
				c0.763-0.327,1.644,0.024,1.971,0.785c0.327,0.761-0.024,1.644-0.785,1.971c-4.101,1.764-7.438,3.784-9.684,5.306
				c13.693,1.94,21.608,13.15,24.709,18.632c3.992-9.991,4.55-15.369,4.628-20.597c-0.543,0.298-1.013,0.553-1.403,0.765
				c-1.334,0.714-2.941,0.638-4.203-0.199c-1.147-0.76-1.832-2.031-1.832-3.4c0-0.479,0.088-0.962,0.261-1.436
				c0.282-0.746,0.642-1.68,1.074-2.783c-2.165,0.25-4.364,0.674-6.567,1.269c-0.801,0.213-1.623-0.258-1.839-1.058
				s0.258-1.623,1.058-1.839c3.212-0.866,6.425-1.395,9.549-1.571c0.517-0.031,1.002,0.205,1.302,0.621
				c0.299,0.416,0.366,0.955,0.176,1.431c-0.836,2.1-1.493,3.792-1.941,4.976c-0.046,0.127-0.073,0.264-0.073,0.39
				c0,0.355,0.187,0.7,0.488,0.899c0.34,0.225,0.771,0.247,1.124,0.058c0.839-0.454,2.062-1.121,3.604-1.986
				c0.465-0.26,1.033-0.255,1.492,0.014C37.717,98.745,38,99.237,38,99.77c0,6.701,0,13.031-6.121,27.321
				c-0.236,0.551-0.778,0.908-1.378,0.909C30.501,128,30.5,128,30.5,128z"/>
		</g>
	</g>
	<g>
		<g>
			<path class="st0" d="M61.5,99c-0.198,0-0.398-0.039-0.59-0.121l-12.11-5.19c-0.518-0.222-0.868-0.716-0.906-1.279
				s0.243-1.099,0.727-1.388c5.65-3.376,11.363-6.946,16.98-10.609c0.477-0.312,1.089-0.325,1.58-0.037
				c0.49,0.289,0.775,0.83,0.735,1.398c-0.648,9.227-4.96,16.226-5.144,16.52C62.491,98.745,62.003,99,61.5,99z M52.673,92.085
				l8.176,3.503c0.976-1.864,2.843-5.905,3.699-10.919C60.606,87.206,56.63,89.688,52.673,92.085z"/>
		</g>
	</g>
	<g>
		<g>
			<path class="st0" d="M97.5,76c-0.567,0-1.087-0.32-1.342-0.83l-5.44-10.89c-0.321-0.642-0.142-1.421,0.427-1.859l1.44-1.109
				c2.436-1.893,4.748-3.864,6.869-5.855c0.439-0.415,1.088-0.523,1.639-0.276c0.553,0.247,0.902,0.802,0.888,1.406
				c-0.294,11.833-2.987,18.238-3.102,18.504c-0.23,0.537-0.752,0.891-1.335,0.908C97.529,76,97.515,76,97.5,76z M93.953,64.044
				l3.23,6.465c0.6-2.336,1.293-5.845,1.625-10.43c-1.405,1.222-2.873,2.427-4.389,3.604L93.953,64.044z"/>
		</g>
	</g>
	<g>
		<g>
			<path class="st0" d="M53.42,50.21c-0.15,0-0.303-0.022-0.452-0.07c-2.604-0.823-4.43-2.232-5.427-4.189
				c-1.459-2.863-0.505-5.802-0.464-5.926l3.974-14.912c0.12-0.45,0.442-0.818,0.871-0.998c0.431-0.178,0.918-0.148,1.322,0.082
				c0.047,0.027,5.241,2.896,15.385,3.637c0.584,0.043,1.09,0.421,1.295,0.969c0.206,0.548,0.073,1.166-0.338,1.582
				c-0.994,1.003-1.996,2.056-2.98,3.129c-3.848,4.192-7.857,9.575-11.917,15.997C54.407,49.955,53.924,50.21,53.42,50.21z
				 M53.488,27.618l-3.539,13.269c-0.029,0.098-0.618,2,0.278,3.729c0.491,0.947,1.357,1.705,2.583,2.261
				c3.932-6.121,7.826-11.294,11.585-15.39c0.296-0.323,0.595-0.645,0.894-0.964C59.49,29.81,55.561,28.48,53.488,27.618z"/>
		</g>
	</g>
	<g>
		<g>
			<path class="st0" d="M31.649,103.576c-0.792,0-1.581-0.23-2.268-0.685c-1.147-0.76-1.832-2.031-1.832-3.4
				c0-0.479,0.088-0.962,0.261-1.436c4.053-10.683,18.65-47.005,36.583-66.568c7.152-7.799,15.318-14.491,24.272-19.891
				c0.416-0.252,0.93-0.286,1.376-0.089c0.446,0.195,0.77,0.595,0.868,1.072c2.806,13.65,11.871,22.996,24.25,25.002
				c0.496,0.08,0.919,0.404,1.127,0.862c0.207,0.458,0.171,0.99-0.097,1.416c-1.594,2.538-3.349,5.036-5.216,7.423
				c-0.511,0.653-1.453,0.768-2.105,0.258c-0.652-0.51-0.769-1.453-0.258-2.105c1.35-1.727,2.64-3.513,3.849-5.331
				c-11.894-2.77-20.68-11.855-24.011-24.85c-8.019,5.053-15.359,11.189-21.844,18.26C48.582,53.177,33.469,91.599,30.622,99.102
				c-0.046,0.125-0.072,0.262-0.072,0.388c0,0.355,0.187,0.7,0.488,0.899c0.34,0.225,0.771,0.247,1.124,0.058
				c7.711-4.179,34.877-19.363,60.42-39.134c4.1-3.175,7.92-6.671,11.356-10.391c0.562-0.608,1.512-0.645,2.119-0.084
				c0.608,0.562,0.646,1.511,0.084,2.12c-3.548,3.841-7.492,7.45-11.723,10.727c-25.723,19.91-53.066,35.193-60.834,39.403
				C32.977,103.414,32.312,103.575,31.649,103.576z"/>
		</g>
	</g>
</g>
</svg>
