<?xml version="1.0" encoding="utf-8"?>
<!-- Generator: Adobe Illustrator 22.0.0, SVG Export Plug-In . SVG Version: 6.00 Build 0)  -->
<svg version="1.1" id="Layer_1" xmlns="http://www.w3.org/2000/svg" xmlns:xlink="http://www.w3.org/1999/xlink" x="0px" y="0px"
	 viewBox="0 0 128 128" style="enable-background:new 0 0 128 128;" xml:space="preserve">
<style type="text/css">
	.st0{fill:#746887;}
	.st1{fill:#FFCFB8;}
	.st2{fill:#E6B9A0;}
	.st3{fill:#D29997;}
	.st4{fill:#F98770;}
	.st5{fill:#DCA98B;}
	.st6{fill:#FFDDCF;}
	.st7{fill:#E8E8E8;}
	.st8{fill:#FFBF9E;}
	.st9{fill:#B0BACC;}
	.st10{fill:#9BA7BC;}
	.st11{fill:#B6B4ED;}
	.st12{fill:#FFBC99;}
	.st13{fill:#F8F8F8;}
	.st14{fill:#B2A7BF;}
	.st15{fill:#9B9B9B;}
	.st16{fill:#968AA0;}
	.st17{fill:#C6BBD3;}
	.st18{fill:#D8D8D8;}
	.st19{fill:#D29976;}
	.st20{fill:#FFA77B;}
	.st21{fill:#CCD3DD;}
	.st22{fill-rule:evenodd;clip-rule:evenodd;fill:#F8F8F8;}
	.st23{fill-rule:evenodd;clip-rule:evenodd;fill:#9B9B9B;}
	.st24{fill-rule:evenodd;clip-rule:evenodd;fill:#777777;}
	.st25{fill:#91DEF5;}
	.st26{fill:#B0E7F8;}
	.st27{fill-rule:evenodd;clip-rule:evenodd;fill:#DCA98B;}
	.st28{fill-rule:evenodd;clip-rule:evenodd;fill:#D29997;}
	.st29{fill-rule:evenodd;clip-rule:evenodd;fill:#FFCBBE;}
	.st30{fill-rule:evenodd;clip-rule:evenodd;fill:#E6B9A0;}
	.st31{fill-rule:evenodd;clip-rule:evenodd;fill:#746887;}
	.st32{fill-rule:evenodd;clip-rule:evenodd;fill:#FFBC99;}
	.st33{fill-rule:evenodd;clip-rule:evenodd;fill:#FFA77B;}
	.st34{fill-rule:evenodd;clip-rule:evenodd;fill:#FFCFB8;}
	.st35{fill-rule:evenodd;clip-rule:evenodd;fill:#E8E8E8;}
	.st36{fill-rule:evenodd;clip-rule:evenodd;fill:#CCD3DD;}
	.st37{fill:#E6B9C1;}
	.st38{fill:#FFCBBE;}
	.st39{fill-rule:evenodd;clip-rule:evenodd;fill:#F98770;}
	.st40{fill-rule:evenodd;clip-rule:evenodd;fill:#F2BB88;}
	.st41{fill:#F2D1A5;}
	.st42{fill-rule:evenodd;clip-rule:evenodd;fill:#F2D1A5;}
	.st43{fill:#F2BB88;}
	.st44{fill-rule:evenodd;clip-rule:evenodd;fill:#9BA7BC;}
	.st45{fill-rule:evenodd;clip-rule:evenodd;fill:#B0BACC;}
	.st46{fill-rule:evenodd;clip-rule:evenodd;fill:#FFFFFF;}
	.st47{fill-rule:evenodd;clip-rule:evenodd;fill:#FFDDCF;}
	.st48{fill-rule:evenodd;clip-rule:evenodd;fill:#B0E7F8;}
	.st49{fill-rule:evenodd;clip-rule:evenodd;fill:#968AA0;}
	.st50{fill:#9D9BE6;}
	.st51{fill:#CFCEF3;}
	.st52{fill-rule:evenodd;clip-rule:evenodd;fill:#D8D8D8;}
	.st53{fill-rule:evenodd;clip-rule:evenodd;fill:#B6B4ED;}
	.st54{fill-rule:evenodd;clip-rule:evenodd;fill:#FFD4BE;}
</style>
<g>
	<g>
		<g>
			<polygon class="st10" points="39.121,116.739 47.277,116.739 49.534,67.912 33.843,66.83 			"/>
		</g>
	</g>
	<g>
		<g>
			<path class="st9" d="M94.298,70.998c0,0-30.979-12.479-32.147-34.967c-0.034-0.43-0.056-0.862-0.056-1.298
				c0-8.649,6.831-16.169,16.889-20.018l0,0c0,0-42.503-12.529-67.093,10.142c-31.643,29.173,19.072,91.882,19.072,91.882h8.157
				L33.843,66.83l15.691,1.082c12.136,0.837,22.17,9.774,24.399,21.732l5.051,27.095h13.394
				c10.694-22.114,13.951-52.248,13.951-52.248l-0.005-0.009C99.842,68.758,94.298,70.998,94.298,70.998z"/>
		</g>
	</g>
	<g>
		<g>
			<path class="st18" d="M33.85,55.315c-0.371,3.059-0.497,6.885-0.008,11.515l0,0v0l15.691,1.082
				c12.136,0.837,22.17,9.774,24.399,21.732C68.103,51.681,34.013,55.297,33.85,55.315z"/>
		</g>
	</g>
	<g>
		<g>
			<path class="st9" d="M94.298,11.982c-17.785,0-32.202,10.186-32.202,22.751c0,0.436,0.021,0.868,0.056,1.298
				c1.167,22.488,32.147,34.967,32.147,34.967s30.979-12.479,32.147-34.967c0.034-0.43,0.056-0.862,0.056-1.298
				C126.5,22.168,112.083,11.982,94.298,11.982z"/>
		</g>
	</g>
	<g>
		<g>
			<path class="st10" d="M104.69,27.36c-2.848,2.151-6.458,3.445-10.393,3.445c-3.935,0-7.545-1.294-10.393-3.445
				C74.155,29.722,67.3,35.304,67.3,41.818c0,5.884,5.594,11.008,13.862,13.685c0.146,0.046,0.29,0.095,0.438,0.14
				c0.118,0.037,0.239,0.071,0.359,0.107c2.343,0.687,4.823,1.187,7.407,1.468c0.025,0.003,0.049,0.005,0.074,0.008
				c0.461,0.049,0.927,0.09,1.395,0.125c0.103,0.008,0.205,0.016,0.308,0.023c0.402,0.028,0.807,0.048,1.214,0.065
				c0.13,0.005,0.259,0.013,0.39,0.017c0.501,0.017,1.004,0.027,1.51,0.027c0.014,0,0.028,0.001,0.042,0.001
				c0.014,0,0.028-0.001,0.043-0.001c0.506,0,1.009-0.01,1.509-0.027c0.131-0.004,0.26-0.012,0.391-0.017
				c0.406-0.017,0.811-0.038,1.212-0.065c0.103-0.007,0.206-0.015,0.309-0.023c0.467-0.035,0.932-0.076,1.393-0.125
				c0.025-0.003,0.051-0.005,0.076-0.008c2.583-0.28,5.062-0.78,7.404-1.467c0.121-0.036,0.243-0.071,0.363-0.108
				c0.146-0.044,0.289-0.093,0.433-0.138c8.269-2.677,13.865-7.801,13.865-13.686C121.295,35.304,114.44,29.722,104.69,27.36z"/>
		</g>
	</g>
	<g>
		<g>
			<path class="st18" d="M111.761,34.912c-5.917-1.251-11.047-0.424-11.784,3.02c-0.53,2.476,2.537,7.196,9.146,9.458
				c5.488,1.878,11.05,0.885,12.033-3.974C121.855,39.964,117.678,36.163,111.761,34.912z"/>
		</g>
	</g>
	<g>
		<g>
			<path class="st18" d="M76.834,34.912c-5.917,1.251-10.094,5.052-9.395,8.504c0.983,4.859,6.545,5.852,12.033,3.974
				c6.609-2.262,9.676-6.982,9.146-9.458C87.881,34.488,82.752,33.661,76.834,34.912z"/>
		</g>
	</g>
	<g>
		<g>
			<path class="st18" d="M94.298,57.483c-17.167,0-31.192-9.491-32.146-21.45c1.169,22.487,32.146,34.965,32.146,34.965
				s30.977-12.478,32.146-34.965C125.49,47.992,111.465,57.483,94.298,57.483z"/>
		</g>
	</g>
	<g>
		<g>
			<circle class="st0" cx="80.389" cy="40.443" r="2.369"/>
		</g>
	</g>
	<g>
		<g>
			<circle class="st0" cx="110.576" cy="40.443" r="2.369"/>
		</g>
	</g>
	<g>
		<g>
			<path class="st4" d="M94.301,58.982c-0.055,0-0.084,0-0.106,0c-0.483,0-0.994-0.011-1.501-0.028L92.3,58.938
				c-0.428-0.019-0.845-0.04-1.259-0.068l-0.31-0.022c-0.492-0.036-0.973-0.079-1.449-0.13c-2.704-0.294-5.283-0.805-7.746-1.527
				l-0.833-0.259C71.51,53.954,65.8,48.164,65.8,41.818c0-7.057,6.968-13.304,17.752-15.917c0.438-0.107,0.898-0.01,1.257,0.261
				c2.721,2.056,6.002,3.143,9.488,3.143c3.486,0,6.767-1.087,9.488-3.143c0.36-0.271,0.822-0.366,1.257-0.261
				c10.784,2.613,17.752,8.86,17.752,15.917c0,6.346-5.71,12.137-14.903,15.112l-0.827,0.256c-2.47,0.726-5.048,1.236-7.672,1.522
				c-0.557,0.059-1.037,0.101-1.52,0.138l-0.323,0.023c-0.41,0.027-0.828,0.049-1.246,0.067l-0.411,0.017
				c-0.51,0.019-1.03,0.028-1.554,0.028C94.334,58.982,94.318,58.982,94.301,58.982z M83.592,28.985
				C74.716,31.311,68.8,36.416,68.8,41.818c0,5,4.914,9.696,12.824,12.258l0.77,0.238c2.28,0.669,4.684,1.146,7.133,1.412
				c0.516,0.055,0.967,0.094,1.419,0.128l0.294,0.021c0.393,0.027,0.785,0.047,1.18,0.063l0.37,0.017
				c1.066,0.036,2.113,0.03,3.006,0l0.387-0.017c0.385-0.017,0.777-0.036,1.167-0.062l0.312-0.023
				c0.438-0.032,0.888-0.072,1.334-0.119c0.015-0.002,0.105-0.011,0.119-0.012c2.401-0.263,4.805-0.739,7.097-1.412l0.764-0.236
				c7.904-2.559,12.819-7.256,12.819-12.256c0-5.402-5.916-10.508-14.792-12.833c-3.125,2.174-6.81,3.319-10.706,3.319
				C90.402,32.305,86.717,31.159,83.592,28.985z"/>
		</g>
	</g>
	<g>
		<g>
			<path class="st4" d="M94.298,58.983c-0.829,0-1.5-0.672-1.5-1.5v-6.9c0-0.828,0.671-1.5,1.5-1.5s1.5,0.672,1.5,1.5v6.9
				C95.798,58.312,95.126,58.983,94.298,58.983z"/>
		</g>
	</g>
	<g>
		<g>
			<path class="st0" d="M114.11,49.783c-1.714,0-3.572-0.324-5.473-0.975c-6.979-2.388-10.871-7.714-10.127-11.19
				c0.875-4.093,6.199-5.731,13.561-4.174c6.793,1.437,11.43,5.947,10.555,10.27l0,0c-0.431,2.128-1.625,3.807-3.452,4.855
				C117.765,49.378,116.028,49.783,114.11,49.783z M106.858,35.854c-3.022,0-5.083,0.845-5.414,2.392
				c-0.343,1.604,2.159,5.67,8.165,7.726c3.162,1.081,6.18,1.081,8.072-0.004c1.072-0.614,1.747-1.573,2.004-2.849l0,0
				c0.459-2.267-2.811-5.592-8.235-6.738C109.772,36.024,108.217,35.854,106.858,35.854z"/>
		</g>
	</g>
	<g>
		<g>
			<path class="st0" d="M74.485,49.783c-1.918,0-3.654-0.405-5.064-1.214c-1.828-1.049-3.021-2.728-3.452-4.855l0,0
				c-0.874-4.322,3.762-8.833,10.556-10.27c7.362-1.557,12.685,0.082,13.561,4.173c0.744,3.477-3.148,8.804-10.127,11.191
				C78.058,49.459,76.199,49.783,74.485,49.783z M68.909,43.118c0.258,1.275,0.932,2.233,2.004,2.849
				c1.893,1.085,4.911,1.087,8.073,0.004c6.006-2.056,8.508-6.122,8.165-7.726c-0.48-2.242-4.595-3.011-10.007-1.865
				C71.72,37.526,68.451,40.852,68.909,43.118L68.909,43.118z"/>
		</g>
	</g>
	<g>
		<g>
			<path class="st0" d="M94.298,72.498c-0.19,0-0.381-0.036-0.561-0.108c-0.324-0.131-8.02-3.263-15.976-9.243
				C67.07,55.111,61.154,45.762,60.653,36.109c-0.035-0.429-0.058-0.9-0.058-1.377c0-13.371,15.119-24.25,33.702-24.25
				S128,21.361,128,34.732c0,0.477-0.023,0.947-0.061,1.418c-0.498,9.611-6.414,18.961-17.105,26.996
				c-7.957,5.98-15.652,9.112-15.976,9.243C94.679,72.462,94.488,72.498,94.298,72.498z M94.298,13.482
				c-16.929,0-30.702,9.532-30.702,21.25c0,0.396,0.02,0.788,0.051,1.179c1.021,19.674,26.52,31.645,30.651,33.456
				c4.131-1.812,29.629-13.779,30.648-33.414c0.034-0.432,0.054-0.824,0.054-1.221C125,23.015,111.227,13.482,94.298,13.482z"/>
		</g>
	</g>
	<g>
		<g>
			<path class="st0" d="M94.298,72.498c-0.19,0-0.381-0.036-0.561-0.108c-0.324-0.131-8.019-3.263-15.976-9.243
				c-10.69-8.034-16.606-17.384-17.108-27.036c-0.042-0.819,0.581-1.521,1.399-1.575c0.816-0.059,1.528,0.56,1.594,1.378
				c0.898,11.254,14.362,20.07,30.651,20.07s29.753-8.816,30.651-20.07c0.065-0.818,0.764-1.437,1.594-1.378
				c0.818,0.055,1.442,0.756,1.399,1.575c-0.502,9.652-6.418,19.002-17.108,27.036c-7.957,5.98-15.652,9.112-15.976,9.243
				C94.679,72.462,94.488,72.498,94.298,72.498z M69.923,51.479c8.105,10.382,21.48,16.622,24.374,17.889
				c2.891-1.268,16.249-7.511,24.356-17.875c-6.153,4.624-14.817,7.491-24.355,7.491C84.749,58.983,76.078,56.111,69.923,51.479z"/>
		</g>
	</g>
	<g>
		<g>
			<path class="st0" d="M85.683,118.238c-0.092,0-0.185-0.008-0.279-0.026c-0.814-0.153-1.35-0.938-1.196-1.751l6.531-34.673
				c0.153-0.814,0.933-1.355,1.752-1.196c0.814,0.153,1.35,0.938,1.196,1.751l-6.531,34.673
				C87.02,117.736,86.391,118.238,85.683,118.238z"/>
		</g>
	</g>
	<g>
		<g>
			<path class="st0" d="M47.277,118.238h-8.157c-0.768,0-1.411-0.579-1.492-1.342l-5.278-49.908
				c-0.046-0.441,0.104-0.88,0.412-1.199c0.307-0.319,0.739-0.495,1.183-0.455l15.691,1.082c0.813,0.056,1.433,0.751,1.396,1.565
				l-2.256,48.826C48.739,117.608,48.079,118.238,47.277,118.238z M40.47,115.238h5.375l2.123-45.931l-12.445-0.858L40.47,115.238z"
				/>
		</g>
	</g>
	<g>
		<g>
			<path class="st4" d="M73.932,91.145c-0.709,0-1.339-0.505-1.473-1.225c-2.104-11.288-11.574-19.723-23.028-20.512l0,0
				L33.74,68.326c-0.727-0.05-1.312-0.614-1.389-1.338c-0.441-4.174-0.438-8.162,0.01-11.854c0.084-0.692,0.635-1.236,1.329-1.311
				c0.356-0.039,35.739-3.394,41.726,35.594c0.125,0.81-0.423,1.569-1.231,1.706C74.1,91.138,74.015,91.145,73.932,91.145z
				 M49.637,66.416c6.983,0.48,13.308,3.501,17.999,8.193C58.28,56.988,40.105,56.515,35.209,56.724
				c-0.251,2.746-0.249,5.662,0.007,8.697L49.637,66.416z"/>
		</g>
	</g>
	<g>
		<g>
			<path class="st0" d="M92.378,118.238H78.984c-0.722,0-1.342-0.515-1.475-1.225L72.458,89.92
				c-2.104-11.288-11.574-19.723-23.028-20.512l-13.908-0.959l5.09,48.131c0.045,0.424-0.092,0.846-0.376,1.161
				c-0.285,0.316-0.69,0.497-1.115,0.497h-8.157c-0.453,0-0.882-0.205-1.167-0.557c-0.11-0.137-11.156-13.877-19.678-31.255
				C-1.303,63.138-3.031,43.869,5.121,30.705c0.437-0.704,1.361-0.921,2.065-0.485c0.705,0.437,0.922,1.36,0.486,2.065
				c-17.444,28.169,19.52,77.176,24.02,82.953h5.762l-5.103-48.25c-0.046-0.441,0.104-0.88,0.412-1.199
				c0.307-0.319,0.739-0.495,1.183-0.455l15.691,1.082c12.819,0.883,23.416,10.321,25.771,22.953l4.823,25.869h11.201
				c0.974-2.071,1.934-4.326,2.86-6.718c0.3-0.771,1.168-1.157,1.941-0.856c0.772,0.299,1.156,1.168,0.857,1.94
				c-1.083,2.796-2.214,5.416-3.36,7.787C93.479,117.909,92.954,118.238,92.378,118.238z"/>
		</g>
	</g>
	<g>
		<g>
			<path class="st0" d="M98.596,102.262c-0.15,0-0.302-0.022-0.452-0.069c-0.79-0.25-1.228-1.093-0.979-1.883
				c4.271-13.524,6.447-26.958,7.271-32.862c-5.284,3.192-9.377,4.861-9.577,4.941c-0.36,0.146-0.763,0.145-1.123,0.001
				c-0.324-0.131-8.02-3.263-15.976-9.243C67.07,55.111,61.154,45.762,60.653,36.109c-0.035-0.429-0.058-0.9-0.058-1.377
				c0-7.832,5.183-15.065,13.79-19.587c-11.181-2.387-42.239-6.922-61.477,10.813c-0.608,0.562-1.558,0.524-2.12-0.086
				c-0.562-0.609-0.523-1.558,0.086-2.119C21.22,14.216,36.363,9.396,54.692,9.784c13.741,0.3,24.275,3.361,24.717,3.492
				c0.617,0.182,1.049,0.736,1.075,1.38c0.025,0.643-0.362,1.229-0.963,1.46c-9.823,3.759-15.925,10.892-15.925,18.616
				c0,0.396,0.02,0.788,0.051,1.179c1.021,19.675,26.523,31.646,30.652,33.456c1.55-0.677,6.102-2.774,11.2-6.138
				c0.349-0.229,0.779-0.303,1.183-0.205c0.406,0.1,0.751,0.363,0.954,0.729c0.151,0.271,0.218,0.591,0.185,0.898
				c-0.02,0.181-2.024,18.286-7.795,36.562C99.824,101.854,99.232,102.262,98.596,102.262z"/>
		</g>
	</g>
	<g>
		<g>
			<path class="st0" d="M33.841,68.33c-0.757,0-1.408-0.572-1.49-1.342c-1.475-13.953,2.417-21.06,2.583-21.355
				c0.406-0.722,1.319-0.98,2.043-0.572c0.72,0.406,0.977,1.317,0.574,2.039c-0.064,0.117-3.576,6.721-2.217,19.572
				c0.087,0.824-0.51,1.562-1.334,1.649C33.947,68.327,33.894,68.33,33.841,68.33z"/>
		</g>
	</g>
	<g>
		<g>
			<path class="st0" d="M94.298,44.047c-3.365,0-6.093,1.463-6.093,3.268c0,1.805,2.728,3.269,6.093,3.269s6.093-1.463,6.093-3.269
				C100.39,45.51,97.663,44.047,94.298,44.047z"/>
		</g>
	</g>
</g>
</svg>
