<?xml version="1.0" encoding="utf-8"?>
<!-- Generator: Adobe Illustrator 22.0.0, SVG Export Plug-In . SVG Version: 6.00 Build 0)  -->
<svg version="1.1" id="Layer_1" xmlns="http://www.w3.org/2000/svg" xmlns:xlink="http://www.w3.org/1999/xlink" x="0px" y="0px"
	 viewBox="0 0 128 128" style="enable-background:new 0 0 128 128;" xml:space="preserve">
<style type="text/css">
	.st0{fill:#746887;}
	.st1{fill:#FFCFB8;}
	.st2{fill:#E6B9A0;}
	.st3{fill:#D29997;}
	.st4{fill:#F98770;}
	.st5{fill:#DCA98B;}
	.st6{fill:#FFDDCF;}
	.st7{fill:#E8E8E8;}
	.st8{fill:#FFBF9E;}
	.st9{fill:#B0BACC;}
	.st10{fill:#9BA7BC;}
	.st11{fill:#B6B4ED;}
	.st12{fill:#FFBC99;}
	.st13{fill:#F8F8F8;}
	.st14{fill:#B2A7BF;}
	.st15{fill:#9B9B9B;}
	.st16{fill:#968AA0;}
	.st17{fill:#C6BBD3;}
	.st18{fill:#D8D8D8;}
	.st19{fill:#D29976;}
	.st20{fill:#FFA77B;}
	.st21{fill:#CCD3DD;}
	.st22{fill-rule:evenodd;clip-rule:evenodd;fill:#F8F8F8;}
	.st23{fill-rule:evenodd;clip-rule:evenodd;fill:#9B9B9B;}
	.st24{fill-rule:evenodd;clip-rule:evenodd;fill:#777777;}
	.st25{fill:#91DEF5;}
	.st26{fill:#B0E7F8;}
	.st27{fill-rule:evenodd;clip-rule:evenodd;fill:#DCA98B;}
	.st28{fill-rule:evenodd;clip-rule:evenodd;fill:#D29997;}
	.st29{fill-rule:evenodd;clip-rule:evenodd;fill:#FFCBBE;}
	.st30{fill-rule:evenodd;clip-rule:evenodd;fill:#E6B9A0;}
	.st31{fill-rule:evenodd;clip-rule:evenodd;fill:#746887;}
	.st32{fill-rule:evenodd;clip-rule:evenodd;fill:#FFBC99;}
	.st33{fill-rule:evenodd;clip-rule:evenodd;fill:#FFA77B;}
	.st34{fill-rule:evenodd;clip-rule:evenodd;fill:#FFCFB8;}
	.st35{fill-rule:evenodd;clip-rule:evenodd;fill:#E8E8E8;}
	.st36{fill-rule:evenodd;clip-rule:evenodd;fill:#CCD3DD;}
	.st37{fill:#E6B9C1;}
	.st38{fill:#FFCBBE;}
	.st39{fill-rule:evenodd;clip-rule:evenodd;fill:#F98770;}
	.st40{fill-rule:evenodd;clip-rule:evenodd;fill:#F2BB88;}
	.st41{fill:#F2D1A5;}
	.st42{fill-rule:evenodd;clip-rule:evenodd;fill:#F2D1A5;}
	.st43{fill:#F2BB88;}
	.st44{fill-rule:evenodd;clip-rule:evenodd;fill:#9BA7BC;}
	.st45{fill-rule:evenodd;clip-rule:evenodd;fill:#B0BACC;}
	.st46{fill-rule:evenodd;clip-rule:evenodd;fill:#FFFFFF;}
	.st47{fill-rule:evenodd;clip-rule:evenodd;fill:#FFDDCF;}
	.st48{fill-rule:evenodd;clip-rule:evenodd;fill:#B0E7F8;}
	.st49{fill-rule:evenodd;clip-rule:evenodd;fill:#968AA0;}
	.st50{fill:#9D9BE6;}
	.st51{fill:#CFCEF3;}
	.st52{fill-rule:evenodd;clip-rule:evenodd;fill:#D8D8D8;}
	.st53{fill-rule:evenodd;clip-rule:evenodd;fill:#B6B4ED;}
	.st54{fill-rule:evenodd;clip-rule:evenodd;fill:#FFD4BE;}
</style>
<g>
	<g>
		<path class="st12" d="M99.986,58.76c-7.53,0-13.6-3.71-17.24-9.39c-1.081-1.687-1.955-3.538-2.549-5.453
			c-0.076-0.244-0.764-2.681-0.701-2.697c-12.27,2.08-33.43,5.54-40.51,5.54c-6.38,0-12.31,2.27-16.94,6.11
			c-4.63,3.83-7.96,9.24-9.15,15.51l-9.91,52.38h9l12.78-32.02c1.31-3.53,4.8-5.76,8.55-5.46c10.74,0.86,28.38,2.48,38.67,2.48
			l-2,35h10l6-34c14.7,0,28.46-2.72,29-33c0.01-0.45,0-0.98,0-1.48C111.316,56.29,106.136,58.76,99.986,58.76z"/>
	</g>
	<g>
		<path class="st20" d="M24.766,88.74l-12.78,32.02h9l12.78-32.02c0.89-2.4,2.77-4.19,5.07-5.01c-1.98-0.16-3.83-0.31-5.52-0.45
			C29.566,82.98,26.076,85.21,24.766,88.74z"/>
	</g>
	<g>
		<path class="st20" d="M114.916,55.95c-0.78,19.22-7.26,26.55-15.85,29.28l5.92,35.53h9c0,0,1-64.74,1-65.98
			c-0.01,0.28-0.03,0.55-0.05,0.82C114.936,55.72,114.926,55.84,114.916,55.95z"/>
	</g>
	<g>
		<g>
			<path class="st12" d="M19.176,33.21c2.16-5.73,5.03-11.59,3.81-17.44c0,0,0-0.01-0.01,0l0.01-0.01v-0.01
				c-0.46-2.17-1.93-4.75-3.57-6.74c-1.71-2.07-4.77-2.37-6.85-0.66c-2.08,1.7-2.38,4.77-0.67,6.85c2.34,2.84,0.87,7.41-1.83,14.58
				c-1.73,4.6-4.07,9.87-4.08,14.98c0,4,1,8,4,11c1.69,1.69,3.89,3.34,6,4.3c1.58-2.76,3.64-5.19,6.06-7.19
				c0.75-0.62,1.53-1.2,2.34-1.73c0.212-0.142,0.436-0.285,0.589-0.38c-2.77,0-5.219-0.21-6.989-2
				C14.836,45.57,15.956,41.75,19.176,33.21z"/>
		</g>
	</g>
	<g>
		<path class="st12" d="M110.426,17.76h-20.88c-5.83,0-10.56,4.73-10.56,10.56v7.69c0,4.98,1.34,9.6,3.76,13.36
			c3.64,5.68,9.71,9.39,17.24,9.39c7.52,0,13.59-3.7,17.24-9.38c2.41-3.76,3.76-8.39,3.76-13.37v-7.69
			C120.986,22.49,116.256,17.76,110.426,17.76z"/>
	</g>
	<g>
		<path class="st1" d="M120.68,11.181c-3.47,2.184-8.285,4.725-10.495,6.579h0.24c5.832,0,10.56,4.728,10.56,10.56v0.44
			c3,0,3.87-4.28,4-8c0.099-2.961-0.073-5.601-0.302-7.646C124.468,11.183,122.324,10.146,120.68,11.181z"/>
	</g>
	<g>
		<path class="st1" d="M75.288,13.114c-0.228,2.045-0.401,4.685-0.302,7.646c0.13,3.72,1,8,4,8v-0.44
			c0-5.832,4.728-10.56,10.56-10.56h0.24c-2.21-1.854-7.024-4.395-10.495-6.579C77.647,10.146,75.503,11.183,75.288,13.114z"/>
	</g>
	<g>
		<path class="st20" d="M110.426,17.76h-20.88c-5.83,0-10.56,4.73-10.56,10.56v0.51c15.08,1.19,17,7.06,17,12.93h8c0-6,1-12,17-13
			v-0.44C120.986,22.49,116.256,17.76,110.426,17.76z"/>
	</g>
	<g>
		<path class="st1" d="M103.986,41.76h-8c-4.16,0-10.98,2.72-13.24,7.61c3.64,5.68,9.71,9.39,17.24,9.39
			c7.52,0,13.59-3.7,17.24-9.38C114.956,44.54,108.146,41.76,103.986,41.76z"/>
	</g>
	<g>
		<path class="st20" d="M95.986,42.76c0,2.209,1.791,4,4,4s4-1.791,4-4v-1h-8V42.76z"/>
	</g>
	<g>
		<circle class="st0" cx="87.486" cy="36.26" r="2"/>
	</g>
	<g>
		<circle class="st0" cx="112.486" cy="36.26" r="2"/>
	</g>
	<g>
		<path class="st0" d="M99.986,48.26c-3.033,0-5.5-2.467-5.5-5.5v-1c0-0.829,0.671-1.5,1.5-1.5h8c0.829,0,1.5,0.671,1.5,1.5v1
			C105.486,45.793,103.019,48.26,99.986,48.26z M97.536,43.26c0.232,1.14,1.242,2,2.45,2s2.217-0.86,2.45-2H97.536z"/>
	</g>
	<g>
		<g>
			<path class="st4" d="M22.532,25.26h-4.546c-0.829,0-1.5-0.671-1.5-1.5s0.671-1.5,1.5-1.5h4.546c0.829,0,1.5,0.671,1.5,1.5
				S23.361,25.26,22.532,25.26z"/>
		</g>
		<g>
			<path class="st4" d="M20.111,32.26h-5.125c-0.829,0-1.5-0.671-1.5-1.5s0.671-1.5,1.5-1.5h5.125c0.829,0,1.5,0.671,1.5,1.5
				S20.939,32.26,20.111,32.26z"/>
		</g>
		<g>
			<path class="st4" d="M17.502,39.26h-4.516c-0.829,0-1.5-0.671-1.5-1.5s0.671-1.5,1.5-1.5h4.516c0.829,0,1.5,0.671,1.5,1.5
				S18.331,39.26,17.502,39.26z"/>
		</g>
	</g>
	<g>
		<path class="st4" d="M99.986,60.26c-7.653,0-14.397-3.674-18.503-10.081c-0.276-0.432-0.314-0.974-0.099-1.439
			c2.674-5.785,10.294-8.48,14.602-8.48h8c4.452,0,12.002,2.948,14.598,8.483c0.219,0.467,0.183,1.014-0.096,1.448
			C114.375,56.59,107.632,60.26,99.986,60.26z M84.49,49.278c3.577,5.084,9.177,7.982,15.496,7.982
			c6.312,0,11.91-2.893,15.492-7.969c-2.359-3.892-8.134-6.031-11.492-6.031h-8C92.608,43.26,86.82,45.395,84.49,49.278z"/>
	</g>
	<g>
		<path class="st4" d="M91.986,25.26c-0.829,0-1.5-0.671-1.5-1.5v-6c0-0.829,0.671-1.5,1.5-1.5s1.5,0.671,1.5,1.5v6
			C93.486,24.589,92.814,25.26,91.986,25.26z"/>
	</g>
	<g>
		<path class="st4" d="M99.986,32.26c-0.829,0-1.5-0.671-1.5-1.5v-13c0-0.829,0.671-1.5,1.5-1.5s1.5,0.671,1.5,1.5v13
			C101.486,31.589,100.814,32.26,99.986,32.26z"/>
	</g>
	<g>
		<path class="st4" d="M107.986,25.26c-0.829,0-1.5-0.671-1.5-1.5v-6c0-0.829,0.671-1.5,1.5-1.5s1.5,0.671,1.5,1.5v6
			C109.486,24.589,108.814,25.26,107.986,25.26z"/>
	</g>
	<g>
		<g>
			<path class="st4" d="M41.986,61.26c-0.829,0-1.5-0.671-1.5-1.5V46.619c0-0.829,0.671-1.5,1.5-1.5s1.5,0.671,1.5,1.5V59.76
				C43.486,60.589,42.814,61.26,41.986,61.26z"/>
		</g>
		<g>
			<path class="st4" d="M51.986,62.26c-0.829,0-1.5-0.671-1.5-1.5V45.494c0-0.829,0.671-1.5,1.5-1.5s1.5,0.671,1.5,1.5V60.76
				C53.486,61.589,52.814,62.26,51.986,62.26z"/>
		</g>
		<g>
			<path class="st4" d="M62.986,62.26c-0.829,0-1.5-0.671-1.5-1.5V43.901c0-0.829,0.671-1.5,1.5-1.5s1.5,0.671,1.5,1.5V60.76
				C64.486,61.589,63.814,62.26,62.986,62.26z"/>
		</g>
	</g>
	<g>
		<path class="st4" d="M114.017,66.26h-11.031c-0.829,0-1.5-0.671-1.5-1.5s0.671-1.5,1.5-1.5h11.031c0.829,0,1.5,0.671,1.5,1.5
			S114.845,66.26,114.017,66.26z"/>
	</g>
	<g>
		<path class="st4" d="M112.268,73.26H96.986c-0.829,0-1.5-0.671-1.5-1.5s0.671-1.5,1.5-1.5h15.282c0.829,0,1.5,0.671,1.5,1.5
			S113.097,73.26,112.268,73.26z"/>
	</g>
	<g>
		<path class="st0" d="M20.986,122.26h-9c-0.498,0-0.963-0.247-1.242-0.659c-0.279-0.412-0.336-0.935-0.151-1.397l12.78-32.02
			c1.523-4.105,5.672-6.749,10.063-6.399c1.693,0.14,3.542,0.29,5.521,0.45c0.705,0.057,1.274,0.598,1.367,1.299
			c0.092,0.701-0.317,1.372-0.983,1.609c-1.933,0.69-3.452,2.191-4.167,4.119l-12.793,32.055
			C22.151,121.886,21.6,122.26,20.986,122.26z M14.2,119.26h5.77l12.403-31.076c0.459-1.24,1.161-2.361,2.048-3.308
			c-0.418-0.035-0.828-0.068-1.229-0.101c-3.06-0.248-5.949,1.6-7.021,4.487L14.2,119.26z"/>
	</g>
	<g>
		<path class="st0" d="M113.986,122.26h-9c-0.733,0-1.359-0.53-1.479-1.253l-5.92-35.53c-0.123-0.736,0.314-1.45,1.025-1.676
			c5.946-1.89,13.95-6.839,14.805-27.911c0.011-0.145,0.019-0.217,0.019-0.289c0-0.037,0.001-0.074,0.004-0.111
			c0.019-0.251,0.038-0.503,0.047-0.764c0.03-0.808,0.693-1.445,1.499-1.445c0.009,0,0.019,0,0.028,0
			c0.818,0.015,1.473,0.682,1.473,1.5c0,0.632-0.238,16.399-0.748,49.619c-0.013,0.828-0.718,1.468-1.523,1.477
			c-0.829-0.013-1.49-0.695-1.477-1.523c0.098-6.366,0.301-19.613,0.471-30.814c-2.564,6.354-6.671,10.507-12.456,12.693
			l5.503,33.029h6.252l0.107-6.969c0.013-0.828,0.705-1.473,1.523-1.477c0.828,0.013,1.49,0.695,1.477,1.523l-0.13,8.447
			C115.473,121.603,114.805,122.26,113.986,122.26z"/>
	</g>
	<g>
		<path class="st0" d="M71.986,87.26c-0.829,0-1.5-0.671-1.5-1.5c0-3.584-2.916-6.5-6.5-6.5h-1c-0.829,0-1.5-0.671-1.5-1.5
			s0.671-1.5,1.5-1.5h1c5.238,0,9.5,4.262,9.5,9.5C73.486,86.589,72.814,87.26,71.986,87.26z"/>
	</g>
	<g>
		<path class="st0" d="M99.986,60.26c-7.653,0-14.397-3.674-18.503-10.081c-2.614-4.062-3.997-8.962-3.997-14.169v-7.69
			c0-6.65,5.41-12.06,12.06-12.06h20.88c6.65,0,12.06,5.41,12.06,12.06v7.69c0,5.196-1.382,10.1-3.998,14.18
			C114.375,56.59,107.632,60.26,99.986,60.26z M89.546,19.26c-4.996,0-9.06,4.064-9.06,9.06v7.69c0,4.63,1.218,8.969,3.521,12.548
			c3.545,5.531,9.368,8.702,15.979,8.702c6.605,0,12.429-3.167,15.978-8.691c2.304-3.594,3.522-7.938,3.522-12.559v-7.69
			c0-4.996-4.064-9.06-9.06-9.06H89.546z"/>
	</g>
	<g>
		<path class="st0" d="M79.986,122.26h-10c-0.413,0-0.807-0.17-1.09-0.47c-0.284-0.3-0.431-0.703-0.407-1.115l1.91-33.426
			c-8.793-0.125-21.934-1.213-31.683-2.021c-1.973-0.164-3.832-0.317-5.519-0.453c-3.066-0.248-5.953,1.6-7.024,4.487
			l-12.793,32.054c-0.228,0.57-0.779,0.944-1.393,0.944h-9c-0.447,0-0.87-0.199-1.155-0.543c-0.285-0.344-0.401-0.797-0.318-1.236
			L9.964,75.81c0.153-0.813,0.935-1.351,1.752-1.195c0.814,0.154,1.349,0.938,1.195,1.752L4.796,119.26h6.173l12.403-31.076
			c1.523-4.105,5.672-6.749,10.063-6.399c1.69,0.135,3.551,0.29,5.527,0.453c10.303,0.853,24.413,2.022,33.023,2.022
			c0.413,0,0.807,0.17,1.09,0.47c0.284,0.3,0.431,0.703,0.407,1.115l-1.909,33.415h7.153L84.509,86.5
			c0.126-0.717,0.749-1.239,1.477-1.239c13.86,0,26.376-2.299,27.443-29.508C109.66,58.68,105,60.26,99.986,60.26
			c-7.653,0-14.397-3.674-18.503-10.081c-1.174-1.832-2.089-3.79-2.719-5.818c-0.174-0.562-0.313-1.031-0.423-1.425
			c-20.952,3.533-34.19,5.324-39.355,5.324c-5.824,0-11.5,2.047-15.982,5.765c-4.47,3.697-7.533,8.882-8.626,14.602
			c-0.156,0.812-0.94,1.349-1.755,1.191c-0.813-0.155-1.347-0.941-1.191-1.755c1.224-6.403,4.654-12.209,9.659-16.349
			c5.018-4.162,11.374-6.454,17.896-6.454c5.112,0,18.657-1.857,40.259-5.519c0.791-0.132,1.55,0.38,1.717,1.166
			c0.016,0.071,0.025,0.143,0.03,0.213c0.1,0.456,0.554,2.085,0.636,2.352c0.55,1.771,1.351,3.483,2.379,5.088
			c3.543,5.529,9.367,8.7,15.978,8.7c5.501,0,10.305-2.072,13.894-5.993c0.417-0.457,1.073-0.609,1.65-0.385
			c0.577,0.224,0.957,0.779,0.957,1.398l0.002,0.499c0.002,0.353,0.004,0.702-0.002,1.014c-0.551,30.881-15.156,34.288-29.24,34.46
			l-5.783,32.768C81.336,121.738,80.714,122.26,79.986,122.26z"/>
	</g>
	<g>
		<path class="st0" d="M120.986,30.26c-0.829,0-1.5-0.671-1.5-1.5v-0.44c0-4.996-4.064-9.06-9.06-9.06h-0.24
			c-0.63,0-1.194-0.395-1.41-0.987c-0.215-0.593-0.038-1.257,0.445-1.662c1.558-1.307,4.135-2.82,6.863-4.422
			c1.298-0.762,2.641-1.55,3.797-2.278c1.21-0.762,2.7-0.848,3.985-0.229c1.287,0.62,2.149,1.84,2.308,3.264
			c0.293,2.622,0.397,5.268,0.311,7.863c0,0,0,0.001,0,0.002C126.197,29.033,122.916,30.26,120.986,30.26z M114.141,16.846
			c4.223,1.37,7.432,5.012,8.18,9.477c0.739-1.226,1.091-3.469,1.167-5.614c0.082-2.451-0.017-4.95-0.294-7.428
			c-0.063-0.564-0.46-0.813-0.629-0.895c-0.167-0.08-0.608-0.236-1.085,0.065c-1.195,0.752-2.558,1.552-3.876,2.326
			C116.422,15.47,115.222,16.174,114.141,16.846z M124.986,20.76h0.01H124.986z"/>
	</g>
	<g>
		<path class="st0" d="M78.986,30.26c-1.931,0-5.212-1.228-5.499-9.448c0,0,0-0.001,0-0.002c-0.087-2.595,0.017-5.24,0.31-7.863
			c0.159-1.424,1.021-2.645,2.308-3.264C77.39,9.064,78.88,9.15,80.09,9.912c1.156,0.728,2.499,1.516,3.797,2.278
			c2.729,1.602,5.306,3.115,6.863,4.422c0.483,0.405,0.661,1.069,0.445,1.662c-0.216,0.592-0.779,0.987-1.41,0.987h-0.24
			c-4.996,0-9.06,4.064-9.06,9.06v0.44C80.486,29.589,79.814,30.26,78.986,30.26z M76.485,20.708
			c0.075,2.145,0.427,4.389,1.167,5.615c0.747-4.465,3.956-8.107,8.18-9.477c-1.082-0.671-2.282-1.375-3.463-2.069
			c-1.318-0.774-2.681-1.574-3.876-2.326c-0.477-0.3-0.918-0.145-1.085-0.065c-0.168,0.081-0.566,0.33-0.629,0.895
			C76.501,15.759,76.403,18.258,76.485,20.708L76.485,20.708z"/>
	</g>
	<g>
		<path class="st0" d="M93.986,54.26c-0.829,0-1.5-0.671-1.5-1.5s0.671-1.5,1.5-1.5c0.745-0.009,4.5-0.266,4.5-4.5
			c0-0.829,0.671-1.5,1.5-1.5s1.5,0.671,1.5,1.5C101.486,52.693,96.58,54.26,93.986,54.26z"/>
	</g>
	<g>
		<path class="st0" d="M105.986,54.26c-2.594,0-7.5-1.567-7.5-7.5c0-0.829,0.671-1.5,1.5-1.5s1.5,0.671,1.5,1.5
			c0,4.374,4.04,4.5,4.5,4.5c0.829,0,1.5,0.671,1.5,1.5S106.814,54.26,105.986,54.26z"/>
	</g>
	<g>
		<path class="st0" d="M99.986,48.26c-3.033,0-5.5-2.467-5.5-5.5v-1c0-0.829,0.671-1.5,1.5-1.5h8c0.829,0,1.5,0.671,1.5,1.5v1
			C105.486,45.793,103.019,48.26,99.986,48.26z M97.536,43.26c0.232,1.14,1.242,2,2.45,2s2.217-0.86,2.45-2H97.536z"/>
	</g>
	<g>
		<path class="st0" d="M103.986,43.26h-8c-0.829,0-1.5-0.671-1.5-1.5c0-4.936-1.207-10.298-15.618-11.435
			c-0.78-0.062-1.382-0.712-1.382-1.495v-0.51c0-6.65,5.41-12.06,12.06-12.06h20.88c6.65,0,12.06,5.41,12.06,12.06v0.44
			c0,0.792-0.616,1.448-1.406,1.497c-15.594,0.975-15.594,6.568-15.594,11.503C105.486,42.589,104.814,43.26,103.986,43.26z
			 M97.44,40.26h5.075c0.259-6.017,2.504-11.646,16.921-12.889c-0.476-4.551-4.335-8.111-9.011-8.111h-20.88
			c-4.708,0-8.587,3.608-9.02,8.204C94.237,28.893,97.074,34.523,97.44,40.26z M120.986,28.76h0.01H120.986z"/>
	</g>
	<g>
		<path class="st0" d="M15.985,61.56c-0.208,0-0.419-0.043-0.62-0.135c-2.139-0.973-4.486-2.651-6.439-4.604
			c-2.946-2.946-4.439-7.003-4.439-12.061c0.009-4.707,1.843-9.453,3.46-13.639c0.245-0.634,0.485-1.257,0.716-1.869
			c2.438-6.475,3.899-10.885,2.076-13.098c-1.084-1.319-1.588-2.979-1.42-4.675c0.167-1.692,0.984-3.215,2.299-4.291
			c2.704-2.224,6.724-1.836,8.956,0.867c1.952,2.369,3.403,5.128,3.881,7.384c0.008,0.039,0.015,0.079,0.02,0.118
			c1.099,5.442-0.971,10.71-2.973,15.806c-0.312,0.794-0.624,1.586-0.921,2.376c-3.332,8.834-3.896,11.568-1.526,13.967
			c1.285,1.3,3.145,1.554,5.921,1.554c0.67,0,1.259,0.445,1.443,1.09c0.183,0.645-0.083,1.333-0.654,1.686
			c-0.194,0.12-0.37,0.226-0.497,0.318c-0.8,0.525-1.542,1.074-2.265,1.672c-2.309,1.907-4.231,4.188-5.714,6.779
			C17.012,61.286,16.508,61.56,15.985,61.56z M15.657,8.743c-0.754,0-1.513,0.251-2.139,0.766c-0.697,0.569-1.127,1.373-1.216,2.266
			c-0.089,0.897,0.178,1.775,0.751,2.473c2.857,3.467,1.308,8.381-1.584,16.062c-0.233,0.619-0.477,1.251-0.725,1.893
			c-1.524,3.943-3.251,8.413-3.259,12.561c0,4.229,1.198,7.574,3.561,9.937c1.326,1.326,2.897,2.534,4.383,3.387
			c1.489-2.315,3.307-4.385,5.42-6.172c-1.429-0.321-2.778-0.935-3.93-2.1c-3.878-3.926-2.375-8.576,0.853-17.134
			c0.302-0.802,0.619-1.608,0.936-2.415c1.915-4.875,3.725-9.481,2.841-14.028c-0.037-0.112-0.06-0.228-0.069-0.345
			c-0.417-1.755-1.639-4.008-3.222-5.928C17.594,9.16,16.629,8.743,15.657,8.743z"/>
	</g>
	<g>
		<path class="st0" d="M22.976,17.27c-0.396,0-0.792-0.156-1.086-0.465c-0.568-0.597-0.548-1.54,0.042-2.112
			c0.002-0.002,0.004-0.004,0.006-0.006c0.001-0.001,0.002-0.002,0.003-0.003c0.375-0.355,0.903-0.494,1.395-0.375
			c0.081,0.019,0.161,0.045,0.239,0.079c0.141,0.061,0.27,0.141,0.383,0.238c0.328,0.279,0.528,0.689,0.528,1.135
			c0,0.001,0,0.003,0,0.005c0,0.002,0,0.003,0,0.005c0,0.829-0.671,1.5-1.5,1.5C22.981,17.27,22.978,17.27,22.976,17.27z"/>
	</g>
</g>
</svg>
