<?xml version="1.0" encoding="utf-8"?>
<!-- Generator: Adobe Illustrator 22.0.0, SVG Export Plug-In . SVG Version: 6.00 Build 0)  -->
<svg version="1.1" id="Layer_1" xmlns="http://www.w3.org/2000/svg" xmlns:xlink="http://www.w3.org/1999/xlink" x="0px" y="0px"
	 viewBox="0 0 128 128" style="enable-background:new 0 0 128 128;" xml:space="preserve">
<style type="text/css">
	.st0{fill:#746887;}
	.st1{fill:#FFCFB8;}
	.st2{fill:#E6B9A0;}
	.st3{fill:#D29997;}
	.st4{fill:#F98770;}
	.st5{fill:#DCA98B;}
	.st6{fill:#FFDDCF;}
	.st7{fill:#E8E8E8;}
	.st8{fill:#FFBF9E;}
	.st9{fill:#B0BACC;}
	.st10{fill:#9BA7BC;}
	.st11{fill:#B6B4ED;}
	.st12{fill:#FFBC99;}
	.st13{fill:#F8F8F8;}
	.st14{fill:#B2A7BF;}
	.st15{fill:#9B9B9B;}
	.st16{fill:#968AA0;}
	.st17{fill:#C6BBD3;}
	.st18{fill:#D8D8D8;}
	.st19{fill:#D29976;}
	.st20{fill:#FFA77B;}
	.st21{fill:#CCD3DD;}
	.st22{fill-rule:evenodd;clip-rule:evenodd;fill:#F8F8F8;}
	.st23{fill-rule:evenodd;clip-rule:evenodd;fill:#9B9B9B;}
	.st24{fill-rule:evenodd;clip-rule:evenodd;fill:#777777;}
	.st25{fill:#91DEF5;}
	.st26{fill:#B0E7F8;}
	.st27{fill-rule:evenodd;clip-rule:evenodd;fill:#DCA98B;}
	.st28{fill-rule:evenodd;clip-rule:evenodd;fill:#D29997;}
	.st29{fill-rule:evenodd;clip-rule:evenodd;fill:#FFCBBE;}
	.st30{fill-rule:evenodd;clip-rule:evenodd;fill:#E6B9A0;}
	.st31{fill-rule:evenodd;clip-rule:evenodd;fill:#746887;}
	.st32{fill-rule:evenodd;clip-rule:evenodd;fill:#FFBC99;}
	.st33{fill-rule:evenodd;clip-rule:evenodd;fill:#FFA77B;}
	.st34{fill-rule:evenodd;clip-rule:evenodd;fill:#FFCFB8;}
	.st35{fill-rule:evenodd;clip-rule:evenodd;fill:#E8E8E8;}
	.st36{fill-rule:evenodd;clip-rule:evenodd;fill:#CCD3DD;}
	.st37{fill:#E6B9C1;}
	.st38{fill:#FFCBBE;}
	.st39{fill-rule:evenodd;clip-rule:evenodd;fill:#F98770;}
	.st40{fill-rule:evenodd;clip-rule:evenodd;fill:#F2BB88;}
	.st41{fill:#F2D1A5;}
	.st42{fill-rule:evenodd;clip-rule:evenodd;fill:#F2D1A5;}
	.st43{fill:#F2BB88;}
	.st44{fill-rule:evenodd;clip-rule:evenodd;fill:#9BA7BC;}
	.st45{fill-rule:evenodd;clip-rule:evenodd;fill:#B0BACC;}
	.st46{fill-rule:evenodd;clip-rule:evenodd;fill:#FFFFFF;}
	.st47{fill-rule:evenodd;clip-rule:evenodd;fill:#FFDDCF;}
	.st48{fill-rule:evenodd;clip-rule:evenodd;fill:#B0E7F8;}
	.st49{fill-rule:evenodd;clip-rule:evenodd;fill:#968AA0;}
	.st50{fill:#9D9BE6;}
	.st51{fill:#CFCEF3;}
	.st52{fill-rule:evenodd;clip-rule:evenodd;fill:#D8D8D8;}
	.st53{fill-rule:evenodd;clip-rule:evenodd;fill:#B6B4ED;}
	.st54{fill-rule:evenodd;clip-rule:evenodd;fill:#FFD4BE;}
</style>
<g>
	<g>
		<path class="st19" d="M69.799,83.538v7.021l3.98,25.631h14.809l5.729-25.584L81.63,90.943
			C81.63,90.943,73.635,87.374,69.799,83.538z"/>
	</g>
	<g>
		<polygon class="st3" points="25.425,116.19 30.198,116.19 38.45,90.559 25.425,105.904 		"/>
	</g>
	<g>
		<path class="st19" d="M23.552,90.559H12.846l-2.587-6.397l-2.505,3.326c3.203,17.506,11.694,28.702,11.694,28.702h5.977v-10.286
			L38.45,90.559v-9.787C38.45,80.772,35.328,90.559,23.552,90.559z"/>
	</g>
	<g>
		<path class="st2" d="M103.402,62.786c-2.893,2.833-6.838,4.572-11.16,4.572h0c-8.089,0-14.899-6.051-15.85-14.083l-2.115-17.857
			c-0.111-0.939-0.123-1.862-0.092-2.775c-0.008,0-0.016-0.001-0.024-0.001C51.66,32.1,28.056,32.747,13.471,49.097l0.007,0.006
			C-7.484,70.066,5.442,90.559,5.442,90.559l4.818-6.397l2.587,6.397h10.706c11.776,0,14.899-9.787,14.899-9.787v9.787h31.348
			v-7.021c3.836,3.836,11.831,7.405,11.831,7.405l14.467-0.384v-7.901l9.627,7.901C103.363,82.583,103.021,72.139,103.402,62.786z"
			/>
	</g>
	<g>
		<path class="st3" d="M92.242,15.198L92.242,15.198c-10.835,0-19.24,9.459-17.965,20.219l2.115,17.857
			c0.951,8.033,7.761,14.083,15.85,14.083h0c8.089,0,14.899-6.051,15.85-14.083l2.115-17.857
			C111.482,24.658,103.077,15.198,92.242,15.198z"/>
	</g>
	<g>
		<path class="st2" d="M92.297,57.222c-4.874,0-9.077,2.323-11.085,5.689c2.881,2.759,6.774,4.447,11.031,4.447
			c4.292,0,8.213-1.715,11.1-4.514C101.318,59.514,97.139,57.222,92.297,57.222z"/>
	</g>
	<g>
		<path class="st3" d="M108.316,23.213c-0.366,0-0.714,0.012-1.052,0.031c1.825,2.723,2.918,5.951,3.036,9.405
			c4.707-1.224,10.315,1.607,14.492-2.571c5.664-5.664-4.577-18.269-4.577-18.269C122.123,22.031,118.099,23.213,108.316,23.213z"/>
	</g>
	<g>
		<path class="st3" d="M64.269,11.81c0,0-10.24,12.605-4.577,18.269c4.177,4.177,9.786,1.347,14.492,2.571
			c0.117-3.453,1.21-6.681,3.036-9.405c-0.339-0.019-0.686-0.031-1.052-0.031C66.386,23.213,62.362,22.031,64.269,11.81z"/>
	</g>
	<g>
		<path class="st19" d="M110.324,32.641c0.108,8.054,10.6,8.637,10.6,8.637C122.203,31.803,110.324,32.641,110.324,32.641z"/>
	</g>
	<g>
		<path class="st19" d="M63.561,41.278c0,0,10.492-0.583,10.6-8.637C74.161,32.641,62.281,31.803,63.561,41.278z"/>
	</g>
	<g>
		<path class="st19" d="M92.242,15.198L92.242,15.198c-10.835,0-19.24,9.459-17.965,20.219l0.23,1.943
			c1.739,7.701,13.611,8.423,13.611,8.423v-3.871c0,0,8.186,5.14,15.546,0.635l-0.952-3.49l6.882,1.543l0.614-5.183
			C111.482,24.658,103.077,15.198,92.242,15.198z"/>
	</g>
	<g>
		<path class="st0" d="M96.58,60.794c-0.826,0-1.496,0.67-1.496,1.496s0.67,1.496,1.496,1.496s1.496-0.67,1.496-1.496
			S97.406,60.794,96.58,60.794z"/>
	</g>
	<g>
		<path class="st0" d="M87.974,60.794c-0.826,0-1.496,0.67-1.496,1.496s0.67,1.496,1.496,1.496s1.496-0.67,1.496-1.496
			S88.8,60.794,87.974,60.794z"/>
	</g>
	<g>
		<path class="st0" d="M88.588,117.69H73.779c-0.739,0-1.369-0.539-1.482-1.27l-3.98-25.631c-0.012-0.076-0.018-0.153-0.018-0.23
			v-7.021c0-0.606,0.365-1.153,0.926-1.386c0.561-0.231,1.206-0.104,1.635,0.325c3.19,3.19,9.611,6.274,11.079,6.956l12.338-0.326
			c0.483-0.048,0.905,0.188,1.198,0.546c0.294,0.357,0.406,0.83,0.306,1.281l-2.326,10.389c-0.181,0.807-0.981,1.316-1.792,1.136
			c-0.808-0.181-1.316-0.983-1.136-1.792l1.905-8.51L81.67,92.441c-0.224,0.015-0.446-0.037-0.651-0.129
			c-0.274-0.123-5.599-2.516-9.72-5.552v3.683l3.766,24.247h12.322l1.389-6.202c0.181-0.807,0.983-1.313,1.792-1.136
			c0.808,0.182,1.316,0.983,1.136,1.792l-1.651,7.374C89.898,117.203,89.29,117.69,88.588,117.69z"/>
	</g>
	<g>
		<path class="st0" d="M25.425,117.69h-5.977c-0.469,0-0.912-0.22-1.195-0.594c-0.355-0.469-8.744-11.684-11.974-29.339
			c-0.075-0.412,0.025-0.837,0.277-1.172l2.505-3.325c0.326-0.432,0.855-0.656,1.394-0.585c0.536,0.07,0.993,0.424,1.195,0.925
			l2.208,5.459h9.694c10.558,0,13.442-8.655,13.47-8.743c0.226-0.704,0.933-1.137,1.66-1.026c0.731,0.114,1.27,0.743,1.27,1.482
			v9.787c0,0.355-0.126,0.699-0.356,0.971l-12.669,14.925v9.735C26.925,117.019,26.254,117.69,25.425,117.69z M20.222,114.69h3.704
			v-8.786c0-0.355,0.126-0.699,0.356-0.971l12.669-14.925v-3.862c-2.431,2.863-6.612,5.913-13.399,5.913H12.846
			c-0.611,0-1.162-0.371-1.391-0.938l-1.593-3.939l-0.512,0.68C12.111,102.217,18.517,112.219,20.222,114.69z"/>
	</g>
	<g>
		<path class="st0" d="M92.242,68.857c-8.845,0-16.299-6.623-17.339-15.406l-2.115-17.857c-0.658-5.554,1.095-11.137,4.81-15.317
			s9.052-6.578,14.645-6.578s10.931,2.397,14.646,6.578s5.468,9.764,4.81,15.317l-2.115,17.857
			C108.541,62.234,101.087,68.857,92.242,68.857z M75.767,35.24l2.115,17.857c0.861,7.274,7.035,12.76,14.36,12.76
			s13.499-5.485,14.361-12.76l2.115-17.857c0.557-4.703-0.928-9.431-4.073-12.971c-3.146-3.541-7.667-5.571-12.403-5.571
			s-9.256,2.03-12.402,5.57C76.694,25.81,75.21,30.537,75.767,35.24L75.767,35.24z"/>
	</g>
	<g>
		<path class="st4" d="M87.931,59.376c-0.298,0-0.594-0.089-0.846-0.261c-0.379-0.259-0.618-0.677-0.65-1.135l-0.854-12.202
			c-0.031-0.448,0.14-0.888,0.468-1.196c0.164-0.155,0.359-0.269,0.569-0.336v-2.334c0-0.545,0.296-1.047,0.772-1.312
			s1.059-0.249,1.521,0.039c0.036,0.021,3.926,2.429,8.546,2.231c0.419-0.022,0.839,0.148,1.136,0.455s0.449,0.725,0.419,1.15
			L98.056,57.95c-0.032,0.455-0.27,0.871-0.646,1.13c-0.376,0.259-0.85,0.331-1.285,0.199c-2.468-0.75-5.29-0.739-7.746,0.028
			C88.231,59.354,88.081,59.376,87.931,59.376z M88.686,47.171l0.617,8.823c1.917-0.356,3.963-0.361,5.886-0.02l0.72-10.128
			c-2.523-0.162-4.74-0.873-6.29-1.521v1.457c0,0.414-0.173,0.81-0.475,1.093C89.009,47.003,88.854,47.103,88.686,47.171z"/>
	</g>
	<g>
		<path class="st0" d="M88.118,47.283c-0.03,0-0.061-0.001-0.091-0.003c-0.531-0.032-13.019-0.89-14.983-9.59
			c-0.012-0.051-0.021-0.103-0.026-0.154l-0.229-1.943c-0.658-5.553,1.095-11.136,4.81-15.316s9.052-6.578,14.645-6.578
			s10.931,2.397,14.646,6.578s5.468,9.764,4.81,15.317l-0.614,5.183c-0.05,0.421-0.276,0.802-0.622,1.047
			c-0.347,0.246-0.782,0.333-1.195,0.24l-4.451-0.997l0.297,1.086c0.176,0.644-0.095,1.325-0.664,1.674
			c-5.665,3.467-11.646,1.855-14.829,0.513v1.444c0,0.414-0.171,0.809-0.472,1.093C88.867,47.138,88.499,47.283,88.118,47.283z
			 M75.986,37.103c1.167,4.905,7.593,6.502,10.632,6.987v-2.178c0-0.546,0.297-1.049,0.774-1.312
			c0.476-0.264,1.062-0.248,1.523,0.042c0.067,0.043,6.78,4.136,12.989,1.157l-0.641-2.347c-0.139-0.507-0.001-1.05,0.362-1.431
			s0.898-0.544,1.413-0.428l5.26,1.179l0.419-3.532c0.557-4.703-0.928-9.431-4.073-12.971c-3.146-3.541-7.667-5.571-12.403-5.571
			s-9.256,2.03-12.402,5.57c-3.146,3.541-4.63,8.269-4.073,12.972L75.986,37.103z"/>
	</g>
	<g>
		<path class="st0" d="M120.925,42.778c-0.028,0-0.056-0.001-0.084-0.002c-4.112-0.229-11.917-2.637-12.017-10.115
			c-0.011-0.795,0.602-1.46,1.395-1.516c0.276-0.019,6.8-0.435,10.248,3.24c1.683,1.794,2.337,4.181,1.943,7.094
			C122.31,42.227,121.671,42.778,120.925,42.778z M112.021,34.153c0.959,3.761,5.191,5.022,7.495,5.436
			c-0.056-1.285-0.463-2.322-1.231-3.145C116.665,34.713,113.807,34.26,112.021,34.153z"/>
	</g>
	<g>
		<path class="st0" d="M110.3,34.148c-0.32,0-0.636-0.103-0.897-0.298c-0.365-0.272-0.586-0.696-0.602-1.151
			c-0.104-3.079-1.066-6.06-2.782-8.62c-0.3-0.448-0.337-1.022-0.096-1.505c0.24-0.482,0.722-0.798,1.26-0.828
			c0.364-0.02,0.739-0.033,1.134-0.033c5.071,0,8.495-0.338,9.895-2.022c1.086-1.308,1.255-3.725,0.53-7.605
			c-0.126-0.675,0.222-1.349,0.845-1.637c0.623-0.289,1.362-0.118,1.794,0.416c0.453,0.557,11.019,13.73,4.474,20.274
			c-3.12,3.121-6.888,2.927-10.211,2.751c-1.782-0.09-3.466-0.179-4.966,0.211C110.553,34.133,110.426,34.148,110.3,34.148z
			 M113.398,30.812c0.806,0,1.608,0.042,2.399,0.083c3.087,0.159,5.758,0.298,7.935-1.877c2.626-2.627,0.709-7.734-1.604-11.739
			c-0.156,1.815-0.688,3.22-1.609,4.329c-1.987,2.393-5.339,3.008-10.688,3.094c0.951,1.945,1.571,4.036,1.835,6.189
			C112.243,30.833,112.822,30.812,113.398,30.812z"/>
	</g>
	<g>
		<path class="st0" d="M74.185,34.148c-0.126,0-0.253-0.016-0.377-0.048c-1.501-0.39-3.184-0.301-4.966-0.211
			c-3.322,0.177-7.091,0.369-10.21-2.751c-6.545-6.544,4.021-19.718,4.474-20.275c0.433-0.532,1.173-0.703,1.794-0.415
			c0.623,0.288,0.97,0.962,0.844,1.637c-0.724,3.881-0.555,6.298,0.531,7.605c1.398,1.685,4.822,2.022,9.894,2.022
			c0.395,0,0.77,0.014,1.134,0.033c0.538,0.03,1.02,0.346,1.26,0.828c0.241,0.482,0.204,1.057-0.096,1.505
			c-1.716,2.562-2.678,5.542-2.782,8.62c-0.016,0.455-0.236,0.879-0.602,1.151C74.82,34.046,74.505,34.148,74.185,34.148z
			 M62.357,17.278c-2.313,4.005-4.231,9.112-1.604,11.739c2.176,2.175,4.844,2.038,7.934,1.877c1.356-0.07,2.747-0.143,4.132-0.004
			c0.264-2.153,0.884-4.243,1.835-6.189c-5.349-0.086-8.699-0.701-10.687-3.094C63.045,20.498,62.513,19.094,62.357,17.278z"/>
	</g>
	<g>
		<path class="st0" d="M63.56,42.778c-0.746,0-1.385-0.552-1.485-1.299c-0.394-2.913,0.261-5.3,1.944-7.094
			c3.447-3.675,9.974-3.259,10.248-3.24c0.793,0.056,1.405,0.721,1.395,1.517c-0.101,7.478-7.904,9.886-12.017,10.114
			C63.616,42.777,63.588,42.778,63.56,42.778z M72.465,34.153c-1.786,0.106-4.645,0.56-6.264,2.291
			c-0.77,0.822-1.177,1.859-1.231,3.145C67.272,39.177,71.506,37.914,72.465,34.153z"/>
	</g>
	<g>
		<path class="st0" d="M92.242,68.857c-4.507,0-8.793-1.727-12.068-4.862c-0.505-0.484-0.609-1.252-0.251-1.853
			c2.363-3.961,7.104-6.421,12.374-6.421c5.226,0,9.949,2.431,12.328,6.343c0.363,0.599,0.265,1.369-0.238,1.856
			C101.103,67.104,96.789,68.857,92.242,68.857z M83.209,62.671c2.565,2.063,5.729,3.187,9.033,3.187c3.337,0,6.522-1.142,9.1-3.239
			c-1.996-2.398-5.408-3.896-9.045-3.896C88.627,58.722,85.197,60.24,83.209,62.671z"/>
	</g>
	<g>
		<path class="st0" d="M81.63,92.442c-0.211,0-0.419-0.044-0.611-0.13c-0.274-0.123-5.599-2.516-9.72-5.552v3.799
			c0,0.828-0.672,1.5-1.5,1.5H38.451c-0.829,0-1.5-0.672-1.5-1.5v-4.413c-2.431,2.863-6.612,5.913-13.399,5.913H12.846
			c-0.611,0-1.162-0.371-1.391-0.938l-1.593-3.939L6.64,91.462c-0.296,0.394-0.769,0.63-1.26,0.597
			c-0.493-0.021-0.944-0.282-1.207-0.699C4.037,91.146-9.104,69.66,12.336,48.128c0.584-0.587,1.534-0.589,2.122-0.004
			c0.587,0.584,0.589,1.534,0.004,2.121C-1.797,66.573,3.154,82.309,5.667,87.767l3.394-4.506c0.326-0.432,0.857-0.656,1.394-0.585
			c0.536,0.07,0.993,0.424,1.195,0.925l2.208,5.459h9.694c10.486,0,13.354-8.392,13.472-8.748c0.23-0.701,0.936-1.131,1.663-1.018
			c0.728,0.116,1.265,0.741,1.265,1.479v8.287h28.348v-5.521c0-0.606,0.365-1.153,0.926-1.386c0.561-0.231,1.206-0.104,1.635,0.325
			c3.186,3.186,9.611,6.273,11.079,6.956l12.658-0.335v-6.44c0-0.58,0.334-1.108,0.858-1.356c0.525-0.248,1.144-0.171,1.594,0.197
			l6.161,5.058c-1.105-5.635-1.577-12.52-1.408-20.56c-2.824,1.86-6.123,2.86-9.56,2.86c-8.845,0-16.299-6.623-17.339-15.406
			l-2.115-17.857c-0.057-0.479-0.093-0.967-0.108-1.485c-19.155-0.41-38.785,0.289-52.617,10.909
			c-0.657,0.504-1.599,0.381-2.104-0.276c-0.504-0.656-0.381-1.599,0.276-2.103C33.2,31.148,54.082,30.662,74.197,31.142
			c0.05,0.002,0.124,0.006,0.174,0.013c0.77,0.096,1.339,0.764,1.312,1.54c-0.033,0.977-0.007,1.785,0.083,2.546l2.115,17.857
			c0.861,7.274,7.035,12.76,14.36,12.76c3.791,0,7.382-1.472,10.11-4.144c0.441-0.43,1.098-0.548,1.659-0.299
			c0.562,0.25,0.914,0.817,0.89,1.432c-0.467,11.462,0.293,20.643,2.26,27.287c0.187,0.632-0.061,1.312-0.609,1.676
			c-0.548,0.363-1.272,0.328-1.781-0.091l-7.174-5.889v4.729c0,0.812-0.647,1.478-1.46,1.499L81.67,92.441
			C81.656,92.442,81.644,92.442,81.63,92.442z"/>
	</g>
	<g>
		<path class="st0" d="M81.184,117.69c-0.828,0-1.5-0.672-1.5-1.5V98.062c0-0.828,0.672-1.5,1.5-1.5s1.5,0.672,1.5,1.5v18.129
			C82.684,117.019,82.012,117.69,81.184,117.69z"/>
	</g>
	<g>
		<path class="st0" d="M30.198,117.69h-4.773c-0.829,0-1.5-0.672-1.5-1.5v-10.286c0-0.355,0.126-0.699,0.356-0.971l13.025-15.345
			c0.463-0.547,1.248-0.689,1.873-0.34c0.625,0.348,0.918,1.089,0.699,1.771l-8.252,25.631
			C31.426,117.271,30.85,117.69,30.198,117.69z M26.925,114.69h2.18l5.604-17.405l-7.784,9.17V114.69z"/>
	</g>
</g>
</svg>
