<svg id="Layer_1" data-name="Layer 1" xmlns="http://www.w3.org/2000/svg" viewBox="0 0 128 128"><title>AIR FILTER</title><polygon points="118 93.083 10 93.083 10 49.333 25.667 34.917 118 34.917 118 93.083" style="fill:#fbbe2c"/><rect x="64" y="34.917" width="54" height="58.167" style="fill:#fd9e27"/><rect x="18.125" y="61.04" width="91.75" height="5.919" rx="2.96" ry="2.96" style="fill:#deecf1"/><rect x="25.667" y="28.5" width="14.083" height="6.417" style="fill:#5a5a5a"/><rect x="103.917" y="28.5" width="14.083" height="6.417" style="fill:#444"/><rect x="10" y="93.083" width="14.083" height="6.417" style="fill:#5a5a5a"/><rect x="103.917" y="93.083" width="14.083" height="6.417" style="fill:#444"/><path d="M106.915,61.04H64V66.96h42.915a2.96,2.96,0,0,0,0-5.919Z" style="fill:#c7e2e7"/><path d="M63.688,91.333H63a1.75,1.75,0,1,0,0,3.5h.688a1.75,1.75,0,0,0,0-3.5Z" style="fill:#2d2d2d"/><path d="M118,33.167H105.667V30.25H118a1.75,1.75,0,0,0,0-3.5H103.917a1.75,1.75,0,0,0-1.75,1.75v4.667H27.417V30.25H39.75a1.75,1.75,0,0,0,0-3.5H25.667a1.75,1.75,0,0,0-1.75,1.75v5.649l-15.1,13.9a1.753,1.753,0,0,0-.565,1.288v43.75A1.75,1.75,0,0,0,10,94.833H22.333V97.75H10a1.75,1.75,0,0,0,0,3.5H24.083a1.75,1.75,0,0,0,1.75-1.75V94.833H55.25a1.75,1.75,0,0,0,0-3.5H11.75V50.1l14.6-13.434h89.9V91.333H70.375a1.75,1.75,0,1,0,0,3.5H116.25V97.75H103.917a1.75,1.75,0,0,0,0,3.5H118a1.75,1.75,0,0,0,1.75-1.75V34.917A1.75,1.75,0,0,0,118,33.167Z" style="fill:#2d2d2d"/><path d="M21.084,68.71h85.831a4.71,4.71,0,0,0,0-9.42H98.333a1.75,1.75,0,1,0,0,3.5h8.583a1.21,1.21,0,0,1,0,2.42H21.084a1.21,1.21,0,0,1,0-2.42H83.333a1.75,1.75,0,0,0,0-3.5H21.084a4.71,4.71,0,0,0,0,9.42Z" style="fill:#2d2d2d"/><path d="M90.5,59.29a1.75,1.75,0,0,0,0,3.5h.834a1.75,1.75,0,1,0,0-3.5Z" style="fill:#2d2d2d"/><path d="M18.125,75.625h91.75a1.75,1.75,0,0,0,0-3.5H18.125a1.75,1.75,0,0,0,0,3.5Z" style="fill:#2d2d2d"/><path d="M109.875,78.04H34.833a1.75,1.75,0,0,0,0,3.5h75.042a1.75,1.75,0,0,0,0-3.5Z" style="fill:#2d2d2d"/><path d="M18.125,81.54h9.792a1.75,1.75,0,1,0,0-3.5H18.125a1.75,1.75,0,0,0,0,3.5Z" style="fill:#2d2d2d"/><path d="M18.125,87.456h91.75a1.75,1.75,0,0,0,0-3.5H18.125a1.75,1.75,0,0,0,0,3.5Z" style="fill:#2d2d2d"/><path d="M109.875,44.044a1.75,1.75,0,0,0,0-3.5H54.333a1.75,1.75,0,0,0,0,3.5Z" style="fill:#2d2d2d"/><path d="M48.083,44.044a1.75,1.75,0,0,0,0-3.5H47.25a1.75,1.75,0,0,0,0,3.5Z" style="fill:#2d2d2d"/><path d="M39.75,44.044a1.75,1.75,0,0,0,0-3.5H27.917a1.75,1.75,0,0,0,0,3.5Z" style="fill:#2d2d2d"/><path d="M21.094,48.21a1.75,1.75,0,0,0,1.75,1.75h87.031a1.75,1.75,0,0,0,0-3.5H22.844A1.75,1.75,0,0,0,21.094,48.21Z" style="fill:#2d2d2d"/><path d="M16.375,54.125a1.75,1.75,0,0,0,1.75,1.75h91.75a1.75,1.75,0,0,0,0-3.5H18.125A1.75,1.75,0,0,0,16.375,54.125Z" style="fill:#2d2d2d"/></svg>