<svg id="Layer_1" data-name="Layer 1" xmlns="http://www.w3.org/2000/svg" viewBox="0 0 128 128"><title>BATTERY</title><rect x="17.25" y="49.776" width="93.5" height="65" style="fill:#e43c53"/><rect x="64" y="49.776" width="46.75" height="65" style="fill:#ca3046"/><rect x="10" y="30.391" width="108" height="9.333" style="fill:#deecf1"/><rect x="54.833" y="23.724" width="18.333" height="6.667" style="fill:#74d84b"/><rect x="47.5" y="13.224" width="33" height="10.5" style="fill:#5a5a5a"/><path d="M20.875,19.724h0A3.625,3.625,0,0,1,24.5,23.349v7.042a0,0,0,0,1,0,0H17.25a0,0,0,0,1,0,0V23.349A3.625,3.625,0,0,1,20.875,19.724Z" style="fill:#74d84b"/><path d="M107.125,19.724h0a3.625,3.625,0,0,1,3.625,3.625v7.042a0,0,0,0,1,0,0H103.5a0,0,0,0,1,0,0V23.349a3.625,3.625,0,0,1,3.625-3.625Z" style="fill:#5ac033"/><rect x="17.25" y="39.724" width="93.5" height="10.051" style="fill:#fbbe2c"/><polygon points="77.137 79.04 64 79.04 64 61.942 50.863 85.512 64 85.512 64 102.609 77.137 79.04" style="fill:#fbbe2c"/><path d="M35.667,61.359H32.25V57.942a1.75,1.75,0,0,0-3.5,0v3.417H25.333a1.75,1.75,0,1,0,0,3.5H28.75v3.416a1.75,1.75,0,0,0,3.5,0V64.859h3.417a1.75,1.75,0,0,0,0-3.5Z" style="fill:#fff"/><path d="M102.667,61.359H92.333a1.75,1.75,0,1,0,0,3.5h10.333a1.75,1.75,0,1,0,0-3.5Z" style="fill:#fff"/><polygon points="64 85.512 64 102.609 77.137 79.04 64 79.04 64 85.512" style="fill:#fd9e27"/><rect x="64" y="39.724" width="46.75" height="10.051" style="fill:#fd9e27"/><rect x="64" y="30.391" width="54" height="9.333" style="fill:#c7e2e7"/><rect x="64" y="23.724" width="9.167" height="6.667" style="fill:#5ac033"/><rect x="64" y="13.224" width="16.5" height="10.5" style="fill:#444"/><path d="M96.25,113.025h-.834a1.75,1.75,0,0,0,0,3.5h.834a1.75,1.75,0,0,0,0-3.5Z" style="fill:#2d2d2d"/><path d="M110.75,56.192a1.75,1.75,0,0,0-1.75,1.75v55.083h-5.5a1.75,1.75,0,0,0,0,3.5h7.25a1.75,1.75,0,0,0,1.75-1.75V57.942A1.75,1.75,0,0,0,110.75,56.192Z" style="fill:#2d2d2d"/><path d="M39.875,37.975H38.25a1.75,1.75,0,0,0,0,3.5h1.625a1.75,1.75,0,0,0,0-3.5Z" style="fill:#2d2d2d"/><path d="M118,28.641H105.25V23.35a1.875,1.875,0,0,1,3.75,0,1.75,1.75,0,1,0,3.5,0,5.375,5.375,0,0,0-10.75,0v5.291H74.917V25.475H80.5a1.75,1.75,0,0,0,1.75-1.75v-10.5a1.75,1.75,0,0,0-1.75-1.75h-33a1.75,1.75,0,0,0-1.75,1.75v10.5a1.75,1.75,0,1,0,3.5,0v-8.75h29.5v7H54.833a1.75,1.75,0,0,0-1.75,1.75v4.916H26.25V23.35a5.375,5.375,0,0,0-10.75,0v5.291H10a1.75,1.75,0,0,0-1.75,1.75v9.334A1.75,1.75,0,0,0,10,41.475h5.5v73.3a1.75,1.75,0,0,0,1.75,1.75H88.833a1.75,1.75,0,0,0,0-3.5H19v-61.5h91.75a1.75,1.75,0,0,0,1.75-1.75v-8.3H118a1.75,1.75,0,0,0,1.75-1.75V30.391A1.75,1.75,0,0,0,118,28.641ZM56.583,25.475H71.417v3.166H56.583ZM19,23.35a1.875,1.875,0,0,1,3.75,0v5.291H19Zm97.25,14.625H47.5a1.75,1.75,0,0,0,0,3.5H109v6.551H19V41.475H30.5a1.75,1.75,0,0,0,0-3.5H11.75V32.141h104.5Z" style="fill:#2d2d2d"/><path d="M64,83.762a1.75,1.75,0,0,0-1.75,1.75v17.1a1.75,1.75,0,0,0,3.279.852L78.666,79.892a1.75,1.75,0,0,0-1.529-2.6H65.75V61.942a1.75,1.75,0,0,0-3.279-.852L49.334,84.66a1.75,1.75,0,0,0,1.529,2.6h6.3a1.75,1.75,0,0,0,0-3.5H53.842L62.25,68.677V79.04A1.75,1.75,0,0,0,64,80.79H74.158L65.75,95.875V85.512A1.75,1.75,0,0,0,64,83.762Z" style="fill:#2d2d2d"/><path d="M30.5,70.025a1.75,1.75,0,0,0,1.75-1.75V64.859h3.417a1.75,1.75,0,0,0,0-3.5H32.25V57.942a1.75,1.75,0,0,0-3.5,0v3.417H25.333a1.75,1.75,0,1,0,0,3.5H28.75v3.416A1.75,1.75,0,0,0,30.5,70.025Z" style="fill:#2d2d2d"/><path d="M104.417,63.109a1.75,1.75,0,0,0-1.75-1.75H92.333a1.75,1.75,0,1,0,0,3.5h10.333A1.75,1.75,0,0,0,104.417,63.109Z" style="fill:#2d2d2d"/></svg>