<svg id="Layer_1" data-name="Layer 1" xmlns="http://www.w3.org/2000/svg" viewBox="0 0 128 128"><title>BRAKES</title><path d="M115.917,64a5.216,5.216,0,0,1,1.918-4.026,53.79,53.79,0,0,0-2.36-12.321,5.185,5.185,0,0,1-3.021-7.5,54.055,54.055,0,0,0-7.538-11.375,5.185,5.185,0,0,1-5.694-5.694A54.073,54.073,0,0,0,88.826,16.05,5.185,5.185,0,0,1,81.4,12.883a53.74,53.74,0,0,0-13.376-2.718,5.185,5.185,0,0,1-8.052,0,53.788,53.788,0,0,0-12.321,2.361,5.185,5.185,0,0,1-7.5,3.021A54.061,54.061,0,0,0,28.78,23.085a5.185,5.185,0,0,1-5.694,5.694A54.072,54.072,0,0,0,16.05,39.174,5.185,5.185,0,0,1,12.883,46.6a53.74,53.74,0,0,0-2.717,13.376,5.185,5.185,0,0,1,0,8.053,53.788,53.788,0,0,0,2.36,12.321,5.216,5.216,0,0,1,3.309,3.028h0a5.216,5.216,0,0,1-.287,4.47A54.057,54.057,0,0,0,23.086,99.22a5.185,5.185,0,0,1,5.694,5.695,54.073,54.073,0,0,0,10.394,7.036,5.216,5.216,0,0,1,4.468-.192h0a5.216,5.216,0,0,1,2.956,3.359,53.739,53.739,0,0,0,13.376,2.718,5.184,5.184,0,0,1,8.052,0,53.788,53.788,0,0,0,12.321-2.361,5.185,5.185,0,0,1,7.5-3.021,54.061,54.061,0,0,0,11.375-7.538,5.185,5.185,0,0,1,5.694-5.695,54.079,54.079,0,0,0,7.036-10.394,5.185,5.185,0,0,1,3.167-7.424,53.741,53.741,0,0,0,2.717-13.376A5.216,5.216,0,0,1,115.917,64ZM64,71.3A7.3,7.3,0,1,1,71.3,64,7.3,7.3,0,0,1,64,71.3Z" style="fill:#5a5a5a"/><path d="M115.917,64a5.216,5.216,0,0,1,1.918-4.026,53.79,53.79,0,0,0-2.36-12.321,5.185,5.185,0,0,1-3.021-7.5,54.055,54.055,0,0,0-7.538-11.375,5.185,5.185,0,0,1-5.694-5.694A54.073,54.073,0,0,0,88.826,16.05,5.185,5.185,0,0,1,81.4,12.883a53.74,53.74,0,0,0-13.376-2.718A5.216,5.216,0,0,1,64,12.083V56.7A7.3,7.3,0,0,1,64,71.3v44.612a5.215,5.215,0,0,1,4.026,1.918,53.788,53.788,0,0,0,12.321-2.361,5.185,5.185,0,0,1,7.5-3.021,54.061,54.061,0,0,0,11.375-7.538,5.185,5.185,0,0,1,5.694-5.695,54.079,54.079,0,0,0,7.036-10.394,5.185,5.185,0,0,1,3.167-7.424,53.741,53.741,0,0,0,2.717-13.376A5.216,5.216,0,0,1,115.917,64Z" style="fill:#444"/><path d="M64,31.75A32.25,32.25,0,1,0,96.25,64,32.25,32.25,0,0,0,64,31.75ZM64,71.3A7.3,7.3,0,1,1,71.3,64,7.3,7.3,0,0,1,64,71.3Z" style="fill:#deecf1"/><path d="M64,31.75V56.7A7.3,7.3,0,0,1,64,71.3V96.25a32.25,32.25,0,0,0,0-64.5Z" style="fill:#c7e2e7"/><path d="M64,36.931A27.069,27.069,0,1,0,91.069,64,27.069,27.069,0,0,0,64,36.931ZM64,71.3A7.3,7.3,0,1,1,71.3,64,7.3,7.3,0,0,1,64,71.3Z" style="fill:#fbbe2c"/><path d="M64,36.931V56.7A7.3,7.3,0,0,1,64,71.3V91.069a27.069,27.069,0,0,0,0-54.138Z" style="fill:#fd9e27"/><path d="M64,26.328V43.977A20.023,20.023,0,0,1,84.023,64h17.648A37.672,37.672,0,0,0,64,26.328Z" style="fill:#ca3046"/><path d="M71.3,27.042a37.844,37.844,0,0,0-7.3-.714V43.977a19.94,19.94,0,0,1,7.3,1.394Z" style="fill:#c7e2e7"/><path d="M84.023,64h17.648a37.841,37.841,0,0,0-.714-7.3H82.629A19.939,19.939,0,0,1,84.023,64Z" style="fill:#c7e2e7"/><path d="M54.571,49.213a3.787,3.787,0,1,0,0,5.358,3.793,3.793,0,0,0,0-5.358Z" style="fill:#deecf1"/><circle cx="46.878" cy="64" r="3.789" style="fill:#deecf1"/><path d="M49.214,73.428h0a3.789,3.789,0,1,0,5.358,0A3.794,3.794,0,0,0,49.213,73.429Z" style="fill:#deecf1"/><circle cx="64" cy="81.122" r="3.789" style="fill:#deecf1"/><path d="M78.786,73.428a3.789,3.789,0,1,0-5.358,5.358h0a3.789,3.789,0,0,0,5.357-5.359Z" style="fill:#deecf1"/><path d="M73.055,64a9.055,9.055,0,0,0-18.109,0,1.75,1.75,0,0,0,3.5,0A5.555,5.555,0,1,1,64,69.555a1.75,1.75,0,0,0,0,3.5A9.064,9.064,0,0,0,73.055,64Z" style="fill:#2d2d2d"/><path d="M54.573,54.571a3.794,3.794,0,0,0,0-5.357h0a3.787,3.787,0,1,0,0,5.358Z" style="fill:#2d2d2d"/><path d="M43.089,64a3.789,3.789,0,1,0,3.789-3.789A3.794,3.794,0,0,0,43.089,64Z" style="fill:#2d2d2d"/><path d="M51.893,79.894a3.788,3.788,0,1,0-2.679-6.466h0a3.787,3.787,0,0,0,2.68,6.465Z" style="fill:#2d2d2d"/><path d="M60.211,81.122A3.789,3.789,0,1,0,64,77.333,3.794,3.794,0,0,0,60.211,81.122Z" style="fill:#2d2d2d"/><path d="M73.429,78.787a3.789,3.789,0,1,0,0-5.358,3.776,3.776,0,0,0,0,5.358Z" style="fill:#2d2d2d"/><path d="M28.781,24.836a1.743,1.743,0,0,0,1.146-.428q.316-.274.64-.543a1.75,1.75,0,0,0-2.242-2.687c-.231.193-.462.388-.69.586a1.75,1.75,0,0,0,1.147,3.072Z" style="fill:#2d2d2d"/><path d="M117.667,64a3.48,3.48,0,0,1,1.284-2.679,1.748,1.748,0,0,0,.629-1.477,55.637,55.637,0,0,0-2.437-12.721A1.751,1.751,0,0,0,116,45.983,3.435,3.435,0,0,1,113.988,41a1.752,1.752,0,0,0,.034-1.614,55.809,55.809,0,0,0-7.783-11.743,1.74,1.74,0,0,0-1.488-.6,3.438,3.438,0,0,1-3.789-3.789,1.749,1.749,0,0,0-.6-1.488A55.836,55.836,0,0,0,89.632,14.5a1.75,1.75,0,0,0-1.61,0,3.436,3.436,0,0,1-4.94-2.106,1.747,1.747,0,0,0-1.115-1.163A55.545,55.545,0,0,0,68.155,8.42a1.773,1.773,0,0,0-1.477.629,3.436,3.436,0,0,1-5.357,0,1.762,1.762,0,0,0-1.477-.629,55.637,55.637,0,0,0-12.721,2.438A1.751,1.751,0,0,0,45.983,12,3.435,3.435,0,0,1,41,14.012a1.746,1.746,0,0,0-1.614-.034,55.745,55.745,0,0,0-5.541,3.141,1.75,1.75,0,0,0,1.9,2.941c1.437-.928,2.932-1.791,4.453-2.571a6.921,6.921,0,0,0,8.781-3.538,52.1,52.1,0,0,1,10.313-1.974,6.915,6.915,0,0,0,9.43,0,52.092,52.092,0,0,1,11.341,2.3,6.916,6.916,0,0,0,8.693,3.708,52.377,52.377,0,0,1,8.7,5.893,6.918,6.918,0,0,0,6.668,6.668,52.37,52.37,0,0,1,6.394,9.643,6.919,6.919,0,0,0,3.537,8.781,52.1,52.1,0,0,1,1.974,10.313,6.915,6.915,0,0,0,0,9.43,52.092,52.092,0,0,1-2.3,11.341,6.919,6.919,0,0,0-3.708,8.693,52.377,52.377,0,0,1-5.893,8.7,6.918,6.918,0,0,0-6.668,6.668,52.254,52.254,0,0,1-10.381,6.765,1.75,1.75,0,0,0,1.549,3.139,55.809,55.809,0,0,0,11.743-7.783,1.749,1.749,0,0,0,.6-1.488,3.438,3.438,0,0,1,3.789-3.789,1.739,1.739,0,0,0,1.488-.6,55.836,55.836,0,0,0,7.265-10.73,1.75,1.75,0,0,0,0-1.61,3.436,3.436,0,0,1,2.106-4.94,1.747,1.747,0,0,0,1.163-1.115,55.545,55.545,0,0,0,2.807-13.811,1.748,1.748,0,0,0-.629-1.477A3.48,3.48,0,0,1,117.667,64Z" style="fill:#2d2d2d"/><path d="M79.817,113.807a52.049,52.049,0,0,1-11.1,2.217,6.915,6.915,0,0,0-9.43,0,52.092,52.092,0,0,1-11.341-2.3,6.919,6.919,0,0,0-8.693-3.708,52.377,52.377,0,0,1-8.7-5.893,6.918,6.918,0,0,0-6.668-6.668,52.32,52.32,0,0,1-6.394-9.643,6.919,6.919,0,0,0-3.537-8.781,52.1,52.1,0,0,1-1.974-10.312,6.915,6.915,0,0,0,0-9.43,52.092,52.092,0,0,1,2.3-11.341,6.916,6.916,0,0,0,3.708-8.693,52.448,52.448,0,0,1,6.423-9.328,1.75,1.75,0,0,0-2.65-2.285A55.836,55.836,0,0,0,14.5,38.368a1.75,1.75,0,0,0,0,1.61,3.436,3.436,0,0,1-2.106,4.94,1.747,1.747,0,0,0-1.163,1.115A55.545,55.545,0,0,0,8.42,59.845a1.748,1.748,0,0,0,.629,1.477,3.436,3.436,0,0,1,0,5.357,1.748,1.748,0,0,0-.629,1.477,55.637,55.637,0,0,0,2.438,12.721A1.751,1.751,0,0,0,12,82.017,3.435,3.435,0,0,1,14.012,87a1.752,1.752,0,0,0-.034,1.614,55.809,55.809,0,0,0,7.783,11.743,1.745,1.745,0,0,0,1.488.6,3.438,3.438,0,0,1,3.789,3.789,1.749,1.749,0,0,0,.6,1.488,55.836,55.836,0,0,0,10.73,7.265,1.75,1.75,0,0,0,1.61,0,3.436,3.436,0,0,1,4.94,2.106,1.747,1.747,0,0,0,1.115,1.163,55.545,55.545,0,0,0,13.811,2.807,1.769,1.769,0,0,0,1.477-.629,3.436,3.436,0,0,1,5.357,0,1.75,1.75,0,0,0,1.348.634c.043,0,.086,0,.129,0a55.637,55.637,0,0,0,12.721-2.437,1.75,1.75,0,0,0-1.059-3.336Z" style="fill:#2d2d2d"/><path d="M85.936,35.551a1.75,1.75,0,0,0,2.154-2.758l-.4-.308A1.75,1.75,0,0,0,85.58,35.28Z" style="fill:#2d2d2d"/><path d="M84.023,65.75H94.446A30.5,30.5,0,1,1,57.09,34.286a1.75,1.75,0,1,0-.789-3.41A34,34,0,1,0,97.955,65.75h3.716a1.75,1.75,0,0,0,1.75-1.75,39.466,39.466,0,0,0-.742-7.582c-.008-.052-.019-.1-.032-.154a39.357,39.357,0,0,0-9.125-18.389A1.75,1.75,0,0,0,90.9,40.2a35.864,35.864,0,0,1,7.859,14.75H83.792A21.9,21.9,0,0,0,73.055,44.208V29.234a35.6,35.6,0,0,1,5.927,2.107,1.75,1.75,0,1,0,1.461-3.18,38.987,38.987,0,0,0-8.758-2.825l-.063-.012A39.616,39.616,0,0,0,64,24.578a1.75,1.75,0,0,0-1.75,1.75v8.911A28.817,28.817,0,1,0,91.757,71.777a1.75,1.75,0,0,0-3.371-.943A25.321,25.321,0,1,1,62.25,38.748v5.229A1.75,1.75,0,0,0,64,45.727,18.294,18.294,0,0,1,82.273,64,1.75,1.75,0,0,0,84.023,65.75ZM65.75,28.119a36.1,36.1,0,0,1,3.8.39V42.947a21.641,21.641,0,0,0-3.8-.651ZM99.483,58.445a35.955,35.955,0,0,1,.4,3.8H85.7a21.642,21.642,0,0,0-.651-3.8Z" style="fill:#2d2d2d"/></svg>