<svg id="Layer_1" data-name="Layer 1" xmlns="http://www.w3.org/2000/svg" viewBox="0 0 128 128"><title>CHAMPAGNE</title><path d="M70.5,35.9V22.694h-13V35.9a20.053,20.053,0,0,1-8.2,16.178h0a20.053,20.053,0,0,0-8.2,16.178v45.172A4.567,4.567,0,0,0,45.658,118H82.342a4.567,4.567,0,0,0,4.567-4.567V68.261a20.053,20.053,0,0,0-8.2-16.178h0A20.053,20.053,0,0,1,70.5,35.9Z" style="fill:#deecf1"/><path d="M78.7,52.083h0A20.053,20.053,0,0,1,70.5,35.9V32c-2.818.218-5.149,1.836-7.333,3.162a11.782,11.782,0,0,1-5.688,1.442A20.047,20.047,0,0,1,49.3,52.083h0a20.053,20.053,0,0,0-8.2,16.178v45.172A4.567,4.567,0,0,0,45.658,118H82.342a4.567,4.567,0,0,0,4.567-4.567V68.261A20.053,20.053,0,0,0,78.7,52.083Z" style="fill:#fbbe2c"/><rect x="55.25" y="10" width="17.5" height="12.694" style="fill:#444"/><path d="M86.908,77.18H70.226C68.639,73.736,66.437,71.6,64,71.6s-4.639,2.139-6.226,5.583H41.092v26.333H57.774c1.587,3.445,3.789,5.583,6.226,5.583s4.639-2.139,6.226-5.583H86.908Z" style="fill:#74d84b"/><rect x="61.03" y="10" width="5.941" height="12.694" style="fill:#5a5a5a"/><path d="M78.7,52.083h0A20.053,20.053,0,0,1,70.5,35.9V22.694H64V118H82.342a4.567,4.567,0,0,0,4.567-4.567V68.261A20.053,20.053,0,0,0,78.7,52.083Z" style="fill:#c7e2e7"/><path d="M78.7,52.083h0A20.053,20.053,0,0,1,70.5,35.9V32c-2.463.191-4.554,1.451-6.5,2.651V118H82.342a4.567,4.567,0,0,0,4.567-4.567V68.261A20.053,20.053,0,0,0,78.7,52.083Z" style="fill:#fd9e27"/><path d="M70.226,103.514H86.908V77.18H70.226C68.639,73.736,66.437,71.6,64,71.6v37.5C66.437,109.1,68.639,106.958,70.226,103.514Z" style="fill:#5ac033"/><path d="M73.485,46.571a1.75,1.75,0,0,0-.349,2.45c.158.21.319.417.485.62a1.75,1.75,0,1,0,2.717-2.205c-.137-.17-.272-.342-.4-.517A1.749,1.749,0,0,0,73.485,46.571Z" style="fill:#2d2d2d"/><path d="M80.88,51.567q-.554-.466-1.143-.9A1.75,1.75,0,0,0,77.671,53.5q.492.36.957.751a18.264,18.264,0,0,1,6.53,14.015v33.5H70.226a1.75,1.75,0,0,0-1.59,1.019c-1.336,2.9-3.025,4.564-4.636,4.564s-3.3-1.664-4.637-4.565a1.75,1.75,0,0,0-1.589-1.018H47.625a1.75,1.75,0,0,0,0,3.5h9.063c1.919,3.61,4.488,5.583,7.312,5.583s5.394-1.972,7.312-5.583H85.158v8.17a2.82,2.82,0,0,1-2.816,2.816H45.658a2.82,2.82,0,0,1-2.816-2.816v-34.5H57.774a1.75,1.75,0,0,0,1.589-1.018c1.336-2.9,3.026-4.566,4.637-4.566s3.3,1.664,4.636,4.565a1.75,1.75,0,0,0,1.59,1.019H79.75a1.75,1.75,0,0,0,0-3.5H71.312c-1.918-3.611-4.486-5.584-7.312-5.584s-5.394,1.973-7.312,5.584H42.842v-7.17A18.363,18.363,0,0,1,50.33,53.5a21.889,21.889,0,0,0,8.788-15.268,12.257,12.257,0,0,0,4.957-1.565l.7-.432a20.628,20.628,0,0,1,3.971-2.066V35.9a21.793,21.793,0,0,0,1.076,6.769,1.75,1.75,0,1,0,3.328-1.086,18.257,18.257,0,0,1-.9-5.683V24.444h.5a1.75,1.75,0,0,0,1.75-1.75V10a1.75,1.75,0,0,0-1.75-1.75H55.25A1.75,1.75,0,0,0,53.5,10V22.694a1.75,1.75,0,0,0,1.75,1.75h13.5v6.081a19.874,19.874,0,0,0-5.81,2.727l-.682.419a8.353,8.353,0,0,1-3.009,1.005V28.833a1.75,1.75,0,1,0-3.5,0V35.9a18.367,18.367,0,0,1-7.488,14.767,21.877,21.877,0,0,0-8.92,17.59v45.173a6.324,6.324,0,0,0,6.316,6.316H82.342a6.324,6.324,0,0,0,6.316-6.316V68.261A21.753,21.753,0,0,0,80.88,51.567ZM71,20.944H68.721V11.75H71Zm-5.779,0H62.779V11.75h2.441ZM57,11.75h2.279v9.194H57Z" style="fill:#2d2d2d"/><path d="M49.573,61.736a1.75,1.75,0,0,0-2.319.865,15.2,15.2,0,0,0-1.379,6.348V71a1.75,1.75,0,0,0,3.5,0V68.949a11.707,11.707,0,0,1,1.064-4.895A1.75,1.75,0,0,0,49.573,61.736Z" style="fill:#2d2d2d"/><path d="M52.991,60.354l.2-.242a1.75,1.75,0,0,0-2.677-2.256l-.2.242a1.75,1.75,0,0,0,2.677,2.256Z" style="fill:#2d2d2d"/></svg>