<svg id="Layer_1" data-name="Layer 1" xmlns="http://www.w3.org/2000/svg" viewBox="0 0 128 128"><title>CROSS WRENCH</title><rect x="54.167" y="10" width="19.667" height="8" style="fill:#deecf1"/><polygon points="70.083 30.833 57.917 30.833 55.917 18 72.083 18 70.083 30.833" style="fill:#fbbe2c"/><rect x="104.167" y="60" width="19.667" height="8" transform="translate(178 -50) rotate(90)" style="fill:#c7e2e7"/><polygon points="97.167 70.083 97.167 57.917 110 55.917 110 72.083 97.167 70.083" style="fill:#fd9e27"/><rect x="54.167" y="110" width="19.667" height="8" transform="translate(128 228) rotate(180)" style="fill:#deecf1"/><polygon points="57.917 97.167 70.083 97.167 72.083 110 55.917 110 57.917 97.167" style="fill:#fbbe2c"/><rect x="4.167" y="60" width="19.667" height="8" transform="translate(-50 78) rotate(-90)" style="fill:#deecf1"/><polygon points="30.833 57.917 30.833 70.083 18 72.083 18 55.917 30.833 57.917" style="fill:#fbbe2c"/><path d="M82.471,57.917A12.388,12.388,0,0,1,70.083,45.529v-14.7H57.917v14.7A12.388,12.388,0,0,1,45.529,57.917h-14.7V70.083h14.7A12.388,12.388,0,0,1,57.917,82.471v14.7H70.083v-14.7A12.388,12.388,0,0,1,82.471,70.083h14.7V57.917ZM64,69.919A5.919,5.919,0,1,1,69.919,64,5.919,5.919,0,0,1,64,69.919Z" style="fill:#deecf1"/><path d="M70.083,45.529v-14.7H64V58.081a5.919,5.919,0,1,1,0,11.839V97.167h6.083v-14.7A12.388,12.388,0,0,1,82.471,70.083h14.7V57.917h-14.7A12.388,12.388,0,0,1,70.083,45.529Z" style="fill:#c7e2e7"/><polygon points="64 30.833 70.083 30.833 72.083 18 64 18 64 30.833" style="fill:#fd9e27"/><polygon points="64 110 72.083 110 70.083 97.167 64 97.167 64 110" style="fill:#fd9e27"/><rect x="64" y="10" width="9.833" height="8" style="fill:#c7e2e7"/><rect x="64" y="110" width="9.833" height="8" style="fill:#c7e2e7"/><path d="M63.25,11.75H64a1.75,1.75,0,0,0,0-3.5h-.75a1.75,1.75,0,0,0,0,3.5Z" style="fill:#2d2d2d"/><path d="M118,52.417h-8a1.75,1.75,0,0,0-1.75,1.75V70.039l-9.333-1.454v-9.17l4.937-.769a1.75,1.75,0,0,0-.539-3.459l-6.285.979H82.471A10.65,10.65,0,0,1,71.833,45.528v-8.2a1.75,1.75,0,0,0-3.5,0v8.2A14.154,14.154,0,0,0,82.471,59.667H95.417v8.666H86a1.75,1.75,0,0,0,0,3.5H97.029l11.221,1.749v.251a1.75,1.75,0,0,0,1.75,1.75h8a1.75,1.75,0,0,0,1.75-1.75V54.167A1.75,1.75,0,0,0,118,52.417Zm-1.75,19.666h-4.5V55.917h4.5Z" style="fill:#2d2d2d"/><path d="M73.833,108.25h-.252L71.833,97.032V82.472a10.619,10.619,0,0,1,2.715-7.1,1.75,1.75,0,1,0-2.605-2.336,14.108,14.108,0,0,0-3.609,9.436V95.417H57.917a1.75,1.75,0,0,0-1.729,1.48L54.418,108.25h-.252a1.75,1.75,0,0,0-1.75,1.75v8a1.75,1.75,0,0,0,1.75,1.75H73.833a1.75,1.75,0,0,0,1.75-1.75v-8A1.75,1.75,0,0,0,73.833,108.25ZM59.415,98.917h9.17l1.455,9.333H57.96ZM72.083,116.25H55.917v-4.5H72.083Z" style="fill:#2d2d2d"/><path d="M78.769,68.823q-.335.092-.663.2a1.75,1.75,0,0,0,1.079,3.33q.25-.082.506-.15a1.75,1.75,0,1,0-.922-3.377Z" style="fill:#2d2d2d"/><path d="M45.529,71.833A10.65,10.65,0,0,1,56.167,82.472v7.861a1.75,1.75,0,0,0,3.5,0V82.472A14.154,14.154,0,0,0,45.529,68.333H32.583V57.917a1.751,1.751,0,0,0-1.48-1.729L19.75,54.418v-.251A1.75,1.75,0,0,0,18,52.417H10a1.75,1.75,0,0,0-1.75,1.75V73.833A1.75,1.75,0,0,0,10,75.583h8a1.75,1.75,0,0,0,1.75-1.75v-.251l11.221-1.749Zm-29.279.25h-4.5V55.917h4.5Zm3.5-14.122,9.333,1.454v9.17L19.75,70.039Z" style="fill:#2d2d2d"/><path d="M37.833,59.667h7.7A14.154,14.154,0,0,0,59.667,45.528V32.583H70.083a1.75,1.75,0,0,0,1.729-1.48L73.582,19.75h.252A1.75,1.75,0,0,0,75.583,18V10a1.75,1.75,0,0,0-1.75-1.75H69.875a1.75,1.75,0,0,0,0,3.5h2.208v4.5H55.917v-4.5h1a1.75,1.75,0,0,0,0-3.5h-2.75A1.75,1.75,0,0,0,52.417,10v8a1.75,1.75,0,0,0,1.75,1.75h.252l1.748,11.218V45.528A10.65,10.65,0,0,1,45.529,56.167h-7.7a1.75,1.75,0,0,0,0,3.5ZM70.04,19.75l-1.455,9.333h-9.17L57.96,19.75Z" style="fill:#2d2d2d"/><path d="M64,68.169a1.75,1.75,0,0,0,0,3.5A7.669,7.669,0,1,0,56.331,64a1.75,1.75,0,0,0,3.5,0A4.169,4.169,0,1,1,64,68.169Z" style="fill:#2d2d2d"/></svg>