<svg id="Layer_1" data-name="Layer 1" xmlns="http://www.w3.org/2000/svg" viewBox="0 0 128 128"><title>FIRE EXTINGUISHER</title><path d="M79.5,114.845S79.5,118,55.875,118s-23.622-3.155-23.622-3.155V47.578A23.622,23.622,0,0,1,55.875,23.955h0A23.622,23.622,0,0,1,79.5,47.578Z" style="fill:#e43c53"/><path d="M79.5,114.845V47.578A23.623,23.623,0,0,0,55.875,23.955V118C79.5,118,79.5,114.845,79.5,114.845Z" style="fill:#ca3046"/><polygon points="46.528 15.15 29.316 30.065 25.91 25.355 44.294 12.06 46.528 15.15" style="fill:#c7e2e7"/><polygon points="47.562 13.813 24.875 15.813 24.875 10 47.562 10 47.562 13.813" style="fill:#deecf1"/><path d="M64.248,33.823s0,2.388-8.373,2.388S47.5,33.823,47.5,33.823V10H64.248Z" style="fill:#fbbe2c"/><path d="M94.125,73.978a3,3,0,0,1-3-3V29.747a8.34,8.34,0,0,0-8.33-8.33H75.042a3,3,0,0,1,0-6h7.753a14.346,14.346,0,0,1,14.33,14.33V70.978A3,3,0,0,1,94.125,73.978Z" style="fill:#1cace6"/><polygon points="103.125 93.875 85 93.875 89 82.205 89 70.534 99.125 70.534 99.125 82.205 103.125 93.875" style="fill:#fd9e27"/><rect x="64.248" y="14.187" width="10.794" height="8.164" style="fill:#c7e2e7"/><circle cx="47.562" cy="15.813" r="5.813" style="fill:#5a5a5a"/><rect x="32.253" y="61.5" width="47.245" height="32.375" style="fill:#deecf1"/><path d="M54.291,69.46c2.247,4.207-1.043,7.858-1.043,7.858a3.781,3.781,0,0,1-2.756-2.048c-2.234,4.245-2.011,11.4,5.363,11.4,3.618,0,5.753-1.761,6.552-4.9C63.521,72.759,54.291,69.46,54.291,69.46Z" style="fill:#fbbe2c"/><path d="M55.875,36.211c8.373,0,8.373-2.388,8.373-2.388V10H55.875Z" style="fill:#fd9e27"/><rect x="55.875" y="61.5" width="23.622" height="32.375" style="fill:#c7e2e7"/><path d="M55.875,70.2v16.46c3.606-.007,5.735-1.766,6.532-4.9C63.226,75.147,58.461,71.613,55.875,70.2Z" style="fill:#fd9e27"/><path d="M66.262,115.99l-.523.029a1.75,1.75,0,0,0,.094,3.5l.1,0,.529-.03a1.75,1.75,0,0,0-.2-3.494Z" style="fill:#2d2d2d"/><path d="M71.467,27.56a1.75,1.75,0,0,0-2.152,2.76,21.753,21.753,0,0,1,8.433,17.258V92.125H38.875a1.75,1.75,0,0,0,0,3.5H77.747v18.523a16.609,16.609,0,0,1-4.835,1.209,1.75,1.75,0,0,0,.51,3.463c3.359-.495,7.825-1.445,7.825-3.975V47.578A25.231,25.231,0,0,0,71.467,27.56Z" style="fill:#2d2d2d"/><path d="M89.375,29.747V64a1.75,1.75,0,0,0,3.5,0V29.747a10.091,10.091,0,0,0-10.08-10.08h-6v-2.5h6a12.6,12.6,0,0,1,12.58,12.58v6.464a1.75,1.75,0,0,0,3.5,0V29.747a16.1,16.1,0,0,0-16.08-16.08H76.7a1.744,1.744,0,0,0-1.662-1.229H70.391a1.75,1.75,0,0,0,0,3.5h2.9V20.6H66V10a1.75,1.75,0,0,0-1.75-1.75H24.875A1.75,1.75,0,0,0,23.125,10v5.813a1.751,1.751,0,0,0,1.75,1.75c.051,0,.1,0,.153-.007l14.993-1.322a7.514,7.514,0,0,0,.357,1.928L29.614,27.491l-1.261-1.743L34.921,21a1.75,1.75,0,0,0-2.051-2.836l-7.985,5.775a1.75,1.75,0,0,0-.393,2.443L27.9,31.09a1.751,1.751,0,0,0,2.564.3L42.242,21.18a7.557,7.557,0,0,0,3.51,1.967v1.159A25.379,25.379,0,0,0,30.5,47.578v67.267c0,1.342,0,4.905,25.372,4.905q1.906,0,3.61-.026a1.75,1.75,0,0,0-.025-3.5h-.027q-1.683.026-3.558.026c-16.35,0-20.809-1.553-21.872-2.1V63.25H73.167a1.75,1.75,0,0,0,0-3.5H34V47.578A21.878,21.878,0,0,1,45.752,28.185v5.638c0,1.244.986,4.139,10.123,4.139S66,35.067,66,33.823V24.1h9.044a1.743,1.743,0,0,0,1.54-.935h6.213A6.588,6.588,0,0,1,89.375,29.747Zm-62.75-18H41.194a7.551,7.551,0,0,0-.5.911L26.625,13.9ZM43.5,15.813a4.063,4.063,0,1,1,4.062,4.063A4.067,4.067,0,0,1,43.5,15.813Zm19,17.58c-.4.29-1.928,1.069-6.623,1.069s-6.22-.779-6.623-1.069V23.178A7.542,7.542,0,0,0,53.931,11.75H62.5Z" style="fill:#2d2d2d"/><path d="M97.125,40.947a1.75,1.75,0,0,0-1.75,1.75v.4a1.75,1.75,0,1,0,3.5,0v-.4A1.75,1.75,0,0,0,97.125,40.947Z" style="fill:#2d2d2d"/><path d="M104.78,93.308l-3.905-11.395V70.534a1.75,1.75,0,0,0-1.75-1.75h-.25V48.594a1.75,1.75,0,0,0-3.5,0v20.19H89a1.75,1.75,0,0,0-1.75,1.75V81.913L83.345,93.308A1.75,1.75,0,0,0,85,95.625h18.125a1.75,1.75,0,0,0,1.655-2.317ZM87.45,92.125l3.205-9.353a1.753,1.753,0,0,0,.095-.567v-9.92h6.625V82.2a1.753,1.753,0,0,0,.095.567l3.205,9.353Z" style="fill:#2d2d2d"/><path d="M52.111,74.606a1.749,1.749,0,0,0-1.535-1.085,1.718,1.718,0,0,0-1.633.933c-1.516,2.88-2.185,7.21-.264,10.393.982,1.627,3.025,3.567,7.175,3.567,4.3,0,7.229-2.208,8.248-6.215a1.8,1.8,0,0,0,.04-.217c1.019-8.227-5.613-12.867-9.263-14.171a1.75,1.75,0,0,0-2.133,2.472,5.024,5.024,0,0,1-.142,4.885A1.784,1.784,0,0,1,52.111,74.606Zm2.437,3.883a9.762,9.762,0,0,0,2.28-5.586,9.175,9.175,0,0,1,3.854,8.54c-.646,2.4-2.139,3.473-4.828,3.473-2.021,0-3.427-.631-4.179-1.876a6.508,6.508,0,0,1-.472-4.613,5.9,5.9,0,0,0,1.707.61A1.746,1.746,0,0,0,54.548,78.489Z" style="fill:#2d2d2d"/><path d="M38.875,47.792a1.75,1.75,0,0,0-1.75,1.75v6.125a1.75,1.75,0,0,0,3.5,0V49.542A1.75,1.75,0,0,0,38.875,47.792Z" style="fill:#2d2d2d"/><path d="M40.625,43.75a1.75,1.75,0,0,0-3.5,0v.5a1.75,1.75,0,0,0,3.5,0Z" style="fill:#2d2d2d"/></svg>