<svg id="Layer_1" data-name="Layer 1" xmlns="http://www.w3.org/2000/svg" viewBox="0 0 128 128"><title>GO KART</title><path d="M61.949,54.87l-8.384-5.117a1.75,1.75,0,1,0-1.823,2.987l2.524,1.541L46.1,67.755A1.75,1.75,0,1,0,49.1,69.569L57.254,56.1l2.872,1.753a1.75,1.75,0,0,0,1.823-2.987Z" style="fill:#5a5a5a"/><polygon points="82.214 62.772 61.465 62.772 56.846 69.358 82.214 69.358 82.214 62.772" style="fill:#e43c53"/><path d="M53.258,82.062H10.1s-2.634-12.7,19.656-12.7H80.816s2.286-28.977,21.1-28.977l6.962-.178V82.062Z" style="fill:#fbbe2c"/><path d="M80.816,69.358H64v12.7h44.881V40.2l-6.962.178C83.1,40.381,80.816,69.358,80.816,69.358Z" style="fill:#fd9e27"/><rect x="64" y="62.772" width="18.214" height="6.586" style="fill:#ca3046"/><path d="M20.609,70.289s6.1-19.372,26.57-19.372v18.44Z" style="fill:#e43c53"/><circle cx="101.919" cy="72.649" r="15.149" style="fill:#444"/><circle cx="101.919" cy="72.649" r="6.19" style="fill:#c7e2e7"/><polygon points="113.517 52.714 100.523 52.714 100.523 46.179 118 46.179 113.517 52.714" style="fill:#ca3046"/><circle cx="29.752" cy="76.652" r="11.145" style="fill:#5a5a5a"/><circle cx="29.752" cy="76.652" r="2.938" style="fill:#deecf1"/><path d="M118,86.047h-5.824a16.843,16.843,0,0,0-1.544-27.85V54.464h2.885a1.75,1.75,0,0,0,1.443-.76l4.483-6.535A1.75,1.75,0,0,0,118,44.429H100.522a1.75,1.75,0,0,0-1.75,1.75v6.535a1.75,1.75,0,0,0,1.75,1.75h6.609v2.118a16.813,16.813,0,0,0-5.213-.832c-.519,0-1.042.024-1.556.071a1.75,1.75,0,1,0,.318,3.485q.611-.056,1.237-.056a13.4,13.4,0,1,1-11.007,5.756,1.75,1.75,0,0,0-2.873-2,16.835,16.835,0,0,0-1.162,17.3h-39.7a1.75,1.75,0,0,0,0,3.5H89.266a17.013,17.013,0,0,0,2.4,2.236H86a1.75,1.75,0,0,0,0,3.5h32a1.75,1.75,0,0,0,0-3.5ZM102.272,47.929h12.4l-2.082,3.035H102.272Z" style="fill:#2d2d2d"/><path d="M78.667,86.047h-.75a1.75,1.75,0,0,0,0,3.5h.75a1.75,1.75,0,0,0,0-3.5Z" style="fill:#2d2d2d"/><path d="M71.667,86.047H38.557a12.8,12.8,0,0,0,2.82-14.94h39.44A1.751,1.751,0,0,0,82.561,69.5c.022-.274,2.385-27.365,19.4-27.366l6.963-.178a1.75,1.75,0,0,0-.09-3.5l-6.918.178c-8.466,0-15.116,5.389-19.23,15.583A56.9,56.9,0,0,0,79.25,67.607H60.211l2.164-3.085H75.667a1.75,1.75,0,0,0,0-3.5h-14.2a1.751,1.751,0,0,0-1.433.745l-4.1,5.84H50.285l6.969-11.5,2.872,1.753a1.75,1.75,0,0,0,1.823-2.987l-8.384-5.117a1.75,1.75,0,1,0-1.823,2.987l2.524,1.541-5.338,8.811V50.917a1.75,1.75,0,0,0-1.75-1.75,30.327,30.327,0,0,0-8.755,1.246,1.75,1.75,0,1,0,1.01,3.352,26.138,26.138,0,0,1,6-1.045V67.607h-6.5A12.8,12.8,0,0,0,25.5,64.493,28.987,28.987,0,0,1,29.763,59.4a1.75,1.75,0,1,0-2.4-2.55,33.857,33.857,0,0,0-8.087,11.978C6.463,72.347,8.361,82.314,8.383,82.417A1.75,1.75,0,0,0,10.1,83.812h8.938a12.983,12.983,0,0,0,1.913,2.236H10a1.75,1.75,0,0,0,0,3.5H71.667a1.75,1.75,0,0,0,0-3.5ZM11.741,80.312c.112-1.81,1.023-4.975,5.592-7.084a12.653,12.653,0,0,0,.06,7.084Zm8.616-3.659a9.4,9.4,0,1,1,9.4,9.4A9.405,9.405,0,0,1,20.357,76.652Z" style="fill:#2d2d2d"/><path d="M33.073,56.441a1.739,1.739,0,0,0,.9-.253l.356-.211a1.75,1.75,0,1,0-1.76-3.025l-.407.241a1.75,1.75,0,0,0,.907,3.248Z" style="fill:#2d2d2d"/><path d="M95.845,58.653a1.751,1.751,0,0,0-2.393-.632c-.212.124-.42.25-.626.382a1.75,1.75,0,1,0,1.885,2.948q.248-.158.5-.305A1.75,1.75,0,0,0,95.845,58.653Z" style="fill:#2d2d2d"/><path d="M29.752,71.964a1.75,1.75,0,0,0,0,3.5,1.188,1.188,0,1,1-1.188,1.188,1.75,1.75,0,0,0-3.5,0,4.688,4.688,0,1,0,4.688-4.688Z" style="fill:#2d2d2d"/><path d="M101.919,80.589a7.94,7.94,0,1,0-7.94-7.94A7.95,7.95,0,0,0,101.919,80.589Zm0-12.381a4.44,4.44,0,1,1-4.44,4.44A4.446,4.446,0,0,1,101.919,68.208Z" style="fill:#2d2d2d"/></svg>