<svg id="Layer_1" data-name="Layer 1" xmlns="http://www.w3.org/2000/svg" viewBox="0 0 128 128"><title>MECHANIC</title><path d="M109.61,106.61V118H18.39V106.61a29.7,29.7,0,0,1,29.7-29.7,5.83,5.83,0,0,0,5.83-5.83V59.33H74.08V71.08a5.83,5.83,0,0,0,5.83,5.83A29.7,29.7,0,0,1,109.61,106.61Z" style="fill:#e43c53"/><path d="M109.614,118V106.61a29.7,29.7,0,0,0-29.7-29.7h0a5.833,5.833,0,0,1-5.833-5.833V59.335H64V118Z" style="fill:#ca3046"/><path d="M43.761,30.662H84.239a0,0,0,0,1,0,0V50.791A19.578,19.578,0,0,1,64.661,70.369H63.339A19.578,19.578,0,0,1,43.761,50.791V30.662A0,0,0,0,1,43.761,30.662Z" style="fill:#fecec0"/><path d="M64,70.369h.661A19.578,19.578,0,0,0,84.239,50.791V30.662H64Z" style="fill:#fda792"/><path d="M60.223,13.645h7.554A16.462,16.462,0,0,1,84.239,30.106v.556a0,0,0,0,1,0,0H43.761a0,0,0,0,1,0,0v-.556A16.462,16.462,0,0,1,60.223,13.645Z" style="fill:#e43c53"/><path d="M67.777,13.645H64V30.662H84.239v-.556A16.462,16.462,0,0,0,67.777,13.645Z" style="fill:#ca3046"/><path d="M37.38,41.611a6.381,6.381,0,0,0,6.381,6.381V35.23A6.381,6.381,0,0,0,37.38,41.611Z" style="fill:#fecec0"/><path d="M90.62,41.611a6.381,6.381,0,0,0-6.381-6.381V47.993a6.381,6.381,0,0,0,6.381-6.381" style="fill:#fda792"/><path d="M64,30.662H43.761s2.608,6.9,20.239,6.9,20.239-6.9,20.239-6.9Z" style="fill:#5a5a5a"/><path d="M83.642,95.575H71.063a1.75,1.75,0,0,0,0,3.5H83.642a1.75,1.75,0,0,0,0-3.5Z" style="fill:#c7e2e7"/><path d="M21.616,111.453A7.926,7.926,0,1,0,20.465,95.7a29.607,29.607,0,0,0-2.079,10.915v4.15A7.887,7.887,0,0,0,21.616,111.453Z" style="fill:#74d84b"/><path d="M57.858,57.223a6.142,6.142,0,1,0,12.284,0Z" style="fill:#deecf1"/><rect x="37.38" y="107.318" width="53.24" height="10.625" style="fill:#fbbe2c"/><path d="M58.558,41.068H49.973a1.75,1.75,0,0,0,0,3.5H53a3.516,3.516,0,0,0,6.2-.124,1.748,1.748,0,0,0-.638-3.376Z" style="fill:#444"/><path d="M78.027,41.068H69.442a1.748,1.748,0,0,0-.638,3.376,3.516,3.516,0,0,0,6.2.124h3.023a1.75,1.75,0,0,0,0-3.5Z" style="fill:#444"/><path d="M63.61,13.645h.781A11.568,11.568,0,0,1,75.958,25.212v5.45a0,0,0,0,1,0,0H52.042a0,0,0,0,1,0,0v-5.45A11.568,11.568,0,0,1,63.61,13.645Z" style="fill:#fbbe2c"/><path d="M64,10a3.645,3.645,0,0,0-3.645,3.645h7.29A3.645,3.645,0,0,0,64,10Z" style="fill:#74d84b"/><path d="M64.39,13.645H64V30.662H75.958v-5.45A11.568,11.568,0,0,0,64.39,13.645Z" style="fill:#fd9e27"/><path d="M64,13.645h3.645A3.645,3.645,0,0,0,64,10Z" style="fill:#5ac033"/><path d="M84.239,30.662H64v6.9C81.63,37.561,84.239,30.662,84.239,30.662Z" style="fill:#444"/><rect x="64" y="107.318" width="26.62" height="10.625" style="fill:#fd9e27"/><path d="M39.13,101.98v15.96a.127.127,0,0,1-.01.06H35.64a.127.127,0,0,1-.01-.06V101.98a1.75,1.75,0,0,1,3.5,0Z" style="fill:#ca3046"/><path d="M92.37,101.98v15.96a.127.127,0,0,1-.01.06H88.88a.127.127,0,0,1-.01-.06V101.98a1.75,1.75,0,0,1,3.5,0Z" style="fill:#e43c53"/><path d="M96.644,79.973q-.451-.283-.912-.553a1.75,1.75,0,1,0-1.766,3.022q.413.24.816.494a1.75,1.75,0,0,0,1.861-2.964Z" style="fill:#2d2d2d"/><path d="M102.356,84.577a1.75,1.75,0,0,0-2.5,2.452,27.788,27.788,0,0,1,8.006,19.581V118a1.75,1.75,0,0,0,3.5,0V106.61A31.272,31.272,0,0,0,102.356,84.577Z" style="fill:#2d2d2d"/><path d="M46.65,61.168a1.749,1.749,0,0,0-.352,2.45c.11.148.225.294.34.438a1.75,1.75,0,1,0,2.738-2.179q-.141-.177-.277-.358A1.75,1.75,0,0,0,46.65,61.168Z" style="fill:#2d2d2d"/><path d="M90.62,100.227a1.75,1.75,0,0,0-1.75,1.75v3.591H70.142a1.75,1.75,0,0,0,0,3.5H88.87v8.875a1.75,1.75,0,0,0,3.5,0V101.977A1.75,1.75,0,0,0,90.62,100.227Z" style="fill:#2d2d2d"/><path d="M85.989,33.675V30.106A18.223,18.223,0,0,0,69.1,11.961a5.358,5.358,0,0,0-10.2,0,18.223,18.223,0,0,0-16.89,18.145v3.568a8.126,8.126,0,0,0,0,15.873v1.243A21.249,21.249,0,0,0,43.19,57.8a1.75,1.75,0,1,0,3.3-1.15,17.777,17.777,0,0,1-.984-5.857V35.08c2.993,2.084,8.5,4.231,18.489,4.231s15.5-2.147,18.489-4.231V50.791A17.848,17.848,0,0,1,64.661,68.619H63.339A17.753,17.753,0,0,1,53.56,65.7a1.75,1.75,0,0,0-1.922,2.925A21.214,21.214,0,0,0,62.25,72.079v33.489H39.13v-3.591a1.75,1.75,0,0,0-3.5,0v15.966a1.75,1.75,0,0,0,3.5,0v-8.875H62.25V118a1.75,1.75,0,0,0,3.5,0V72.063a21.162,21.162,0,0,0,6.579-1.394v.406a7.592,7.592,0,0,0,7.583,7.583,27.944,27.944,0,0,1,8.457,1.3,1.75,1.75,0,0,0,1.057-3.337,31.454,31.454,0,0,0-9.514-1.464,4.088,4.088,0,0,1-4.083-4.083V68.926a21.313,21.313,0,0,0,10.16-18.136V49.548a8.126,8.126,0,0,0,0-15.873Zm-3.548-4.763H53.792v-3.7a9.829,9.829,0,0,1,9.817-9.818h.781a9.829,9.829,0,0,1,9.817,9.818,1.75,1.75,0,0,0,3.5,0A13.229,13.229,0,0,0,75.149,17.4,14.72,14.72,0,0,1,82.441,28.912ZM64.722,11.895H63.278a1.875,1.875,0,0,1,1.444,0ZM52.851,17.4a13.229,13.229,0,0,0-2.559,7.817v3.7H45.559A14.72,14.72,0,0,1,52.851,17.4ZM39.13,41.611a4.634,4.634,0,0,1,2.881-4.283v8.565A4.634,4.634,0,0,1,39.13,41.611ZM64,35.811c-8.893,0-13.658-1.807-16.131-3.4H80.122C77.644,34.009,72.879,35.811,64,35.811ZM85.989,45.894V37.329a4.624,4.624,0,0,1,0,8.565Z" style="fill:#2d2d2d"/><path d="M83.642,99.075a1.75,1.75,0,0,0,0-3.5H71.063a1.75,1.75,0,0,0,0,3.5Z" style="fill:#2d2d2d"/><path d="M23.161,93.987A27.976,27.976,0,0,1,48.088,78.659a1.75,1.75,0,0,0,0-3.5A31.5,31.5,0,0,0,18.9,94.917c-.025.05-.042.1-.062.157a31.272,31.272,0,0,0-2.2,11.536V118a1.75,1.75,0,0,0,3.5,0v-4.924a9.663,9.663,0,0,0,3.025-19.088ZM21.616,109.7a6.086,6.086,0,0,1-1.48-.19v-2.9a27.816,27.816,0,0,1,1.581-9.253,6.173,6.173,0,0,1-.1,12.346Z" style="fill:#2d2d2d"/><path d="M56.108,57.223a7.892,7.892,0,0,0,15.783,0,1.75,1.75,0,0,0-1.75-1.75H57.858A1.75,1.75,0,0,0,56.108,57.223Zm11.919,1.75a4.391,4.391,0,0,1-8.055,0Z" style="fill:#2d2d2d"/><path d="M58.558,41.068H49.973a1.75,1.75,0,0,0,0,3.5H53a3.516,3.516,0,0,0,6.2-.124,1.748,1.748,0,0,0-.638-3.376Z" style="fill:#2d2d2d"/><path d="M71.938,46.365A3.535,3.535,0,0,0,75,44.568h3.023a1.75,1.75,0,0,0,0-3.5H69.442a1.748,1.748,0,0,0-.638,3.376A3.537,3.537,0,0,0,71.938,46.365Z" style="fill:#2d2d2d"/></svg>