<svg id="Layer_1" data-name="Layer 1" xmlns="http://www.w3.org/2000/svg" viewBox="0 0 128 128"><title>PEDALS</title><path d="M110.917,107.146h-3.312a7.566,7.566,0,0,1-6.271-3.333h0a7.566,7.566,0,0,0-6.271-3.333H82.25V57.592a10.4,10.4,0,0,1,10.4-10.4h7.858a10.4,10.4,0,0,1,10.4,10.4Z" style="fill:#deecf1"/><path d="M101.334,103.813a7.566,7.566,0,0,0,6.271,3.333h3.312V57.592a10.4,10.4,0,0,0-10.4-10.4H96.584v53.459A7.556,7.556,0,0,1,101.334,103.813Z" style="fill:#c7e2e7"/><path d="M70.187,69.256H53.394a3.811,3.811,0,0,1-3.719-4.645l3.292-14.69a3.811,3.811,0,0,1,3.719-2.978H66.895a3.811,3.811,0,0,1,3.719,2.978l3.292,14.69A3.811,3.811,0,0,1,70.187,69.256Z" style="fill:#deecf1"/><path d="M70.614,49.922a3.811,3.811,0,0,0-3.719-2.978h-5.1V69.256h8.4a3.811,3.811,0,0,0,3.719-4.645Z" style="fill:#c7e2e7"/><path d="M37.688,69.256H20.9a3.811,3.811,0,0,1-3.719-4.645l3.292-14.69a3.811,3.811,0,0,1,3.719-2.978H34.4a3.811,3.811,0,0,1,3.719,2.978l3.292,14.69A3.811,3.811,0,0,1,37.688,69.256Z" style="fill:#deecf1"/><path d="M38.116,49.922A3.811,3.811,0,0,0,34.4,46.944h-5.1V69.256h8.4a3.811,3.811,0,0,0,3.719-4.645Z" style="fill:#c7e2e7"/><path d="M10,20.854H118a0,0,0,0,1,0,0v6.275a5.844,5.844,0,0,1-5.844,5.844H15.844A5.844,5.844,0,0,1,10,27.129V20.854a0,0,0,0,1,0,0Z" style="fill:#5a5a5a"/><rect x="57.861" y="32.973" width="7.858" height="13.971" style="fill:#c7e2e7"/><polygon points="99.726 32.973 92.655 40.08 92.655 47.187 100.513 47.187 100.513 40.08 107.584 32.973 99.726 32.973" style="fill:#c7e2e7"/><rect x="89.334" y="56.854" width="14.5" height="7.667" rx="3.833" ry="3.833" style="fill:#fff"/><rect x="89.334" y="70.333" width="14.5" height="7.667" rx="3.833" ry="3.833" style="fill:#fff"/><rect x="89.334" y="83.812" width="14.5" height="7.667" rx="3.833" ry="3.833" style="fill:#fff"/><rect x="25.363" y="32.973" width="7.858" height="13.971" style="fill:#c7e2e7"/><path d="M33.221,54.354H25.363a1.75,1.75,0,0,1,0-3.5h7.858a1.75,1.75,0,0,1,0,3.5Z" style="fill:#fff"/><path d="M33.221,59.979H25.363a1.75,1.75,0,0,1,0-3.5h7.858a1.75,1.75,0,0,1,0,3.5Z" style="fill:#fff"/><path d="M33.221,65.6H25.363a1.75,1.75,0,0,1,0-3.5h7.858a1.75,1.75,0,0,1,0,3.5Z" style="fill:#fff"/><path d="M65.72,54.354H57.861a1.75,1.75,0,0,1,0-3.5H65.72a1.75,1.75,0,0,1,0,3.5Z" style="fill:#fff"/><path d="M65.72,59.979H57.861a1.75,1.75,0,0,1,0-3.5H65.72a1.75,1.75,0,0,1,0,3.5Z" style="fill:#fff"/><path d="M65.72,65.6H57.861a1.75,1.75,0,0,1,0-3.5H65.72a1.75,1.75,0,0,1,0,3.5Z" style="fill:#fff"/><path d="M64,32.973h48.156A5.844,5.844,0,0,0,118,27.129V20.854H64Z" style="fill:#444"/><path d="M72.625,34.724h.75a1.75,1.75,0,1,0,0-3.5h-.75a1.75,1.75,0,0,0,0,3.5Z" style="fill:#2d2d2d"/><path d="M118,19.1a1.75,1.75,0,0,0-1.75,1.75v6.274a4.1,4.1,0,0,1-4.094,4.095H79.938a1.75,1.75,0,0,0,0,3.5h23.435l-4.1,4.122a1.75,1.75,0,0,0-.509,1.234v5.357H94.4V40.08a1.75,1.75,0,1,0-3.5,0v5.5A12.162,12.162,0,0,0,80.5,57.592v42.888a1.75,1.75,0,0,0,1.75,1.75H95.062a1.75,1.75,0,0,0,0-3.5H84V57.592a8.664,8.664,0,0,1,8.654-8.654h7.858a8.664,8.664,0,0,1,8.654,8.654v6.262a1.75,1.75,0,0,0,3.5,0V57.592a12.162,12.162,0,0,0-10.4-12.013V40.8l6.048-6.079h3.845a7.6,7.6,0,0,0,7.594-7.595V20.854A1.75,1.75,0,0,0,118,19.1Z" style="fill:#2d2d2d"/><path d="M110.917,76.563a1.75,1.75,0,0,0-1.75,1.75V105.4H107.6a5.808,5.808,0,0,1-4.821-2.562,1.75,1.75,0,0,0-2.9,1.959,9.306,9.306,0,0,0,7.722,4.1h3.312a1.75,1.75,0,0,0,1.75-1.75V78.313A1.75,1.75,0,0,0,110.917,76.563Z" style="fill:#2d2d2d"/><path d="M110.917,69.5a1.75,1.75,0,0,0-1.75,1.75v.688a1.75,1.75,0,0,0,3.5,0V71.25A1.75,1.75,0,0,0,110.917,69.5Z" style="fill:#2d2d2d"/><path d="M93.167,66.271H100A5.583,5.583,0,1,0,100,55.1H93.167a5.583,5.583,0,0,0,0,11.166Zm0-7.666H100a2.083,2.083,0,1,1,0,4.166H93.167a2.083,2.083,0,0,1,0-4.166Z" style="fill:#2d2d2d"/><path d="M93.167,79.75H100a5.583,5.583,0,1,0,0-11.167H93.167a5.583,5.583,0,0,0,0,11.167Zm0-7.667H100a2.083,2.083,0,1,1,0,4.167H93.167a2.083,2.083,0,0,1,0-4.167Z" style="fill:#2d2d2d"/><path d="M93.167,93.229H100a5.583,5.583,0,1,0,0-11.167H93.167a5.583,5.583,0,0,0,0,11.167Zm0-7.667H100a2.083,2.083,0,1,1,0,4.167H93.167a2.083,2.083,0,0,1,0-4.167Z" style="fill:#2d2d2d"/><path d="M72.322,49.539a5.511,5.511,0,0,0-4.852-4.3V39.892a1.75,1.75,0,0,0-3.5,0v5.3H59.611V34.724h6.108a1.75,1.75,0,1,0,0-3.5H15.844a4.1,4.1,0,0,1-4.094-4.095V20.854a1.75,1.75,0,0,0-3.5,0v6.274a7.6,7.6,0,0,0,7.594,7.595h7.769v5.168a1.75,1.75,0,0,0,3.5,0V34.724h4.358V45.194H24.188a5.529,5.529,0,0,0-5.426,4.345L15.469,64.229A5.562,5.562,0,0,0,20.9,71.007H37.688a5.562,5.562,0,0,0,5.427-6.778L39.823,49.539a5.511,5.511,0,0,0-4.852-4.3V34.724h21.14v10.52a5.511,5.511,0,0,0-4.852,4.3L47.968,64.229a5.56,5.56,0,0,0,5.426,6.778H70.187a5.562,5.562,0,0,0,5.426-6.778ZM36.408,50.3,39.7,64.994a2.062,2.062,0,0,1-2.012,2.513H20.9a2.062,2.062,0,0,1-2.012-2.513L22.176,50.3a2.049,2.049,0,0,1,2.011-1.61H34.4A2.05,2.05,0,0,1,36.408,50.3ZM71.8,66.734a2.05,2.05,0,0,1-1.608.772H53.394a2.061,2.061,0,0,1-2.011-2.513L54.674,50.3a2.05,2.05,0,0,1,2.012-1.61H66.9a2.05,2.05,0,0,1,2.012,1.61L72.2,64.994A2.053,2.053,0,0,1,71.8,66.734Z" style="fill:#2d2d2d"/><path d="M25.363,50.854a1.75,1.75,0,0,0,0,3.5h7.858a1.75,1.75,0,0,0,0-3.5Z" style="fill:#2d2d2d"/><path d="M33.221,56.479H25.363a1.75,1.75,0,0,0,0,3.5h7.858a1.75,1.75,0,0,0,0-3.5Z" style="fill:#2d2d2d"/><path d="M33.221,62.1H25.363a1.75,1.75,0,0,0,0,3.5h7.858a1.75,1.75,0,0,0,0-3.5Z" style="fill:#2d2d2d"/><path d="M65.72,50.854H57.861a1.75,1.75,0,0,0,0,3.5H65.72a1.75,1.75,0,0,0,0-3.5Z" style="fill:#2d2d2d"/><path d="M65.72,56.479H57.861a1.75,1.75,0,0,0,0,3.5H65.72a1.75,1.75,0,0,0,0-3.5Z" style="fill:#2d2d2d"/><path d="M65.72,62.1H57.861a1.75,1.75,0,0,0,0,3.5H65.72a1.75,1.75,0,0,0,0-3.5Z" style="fill:#2d2d2d"/></svg>