<svg id="Layer_1" data-name="Layer 1" xmlns="http://www.w3.org/2000/svg" viewBox="0 0 128 128"><title>RACING</title><path d="M86.977,49.187a3.8,3.8,0,0,1,1.4-2.931,39.364,39.364,0,0,0-1.728-8.971,3.774,3.774,0,0,1-2.191-5.451,39.118,39.118,0,0,0-5.486-8.283,3.774,3.774,0,0,1-4.145-4.145,39.153,39.153,0,0,0-7.557-5.127,3.774,3.774,0,0,1-5.414-2.3A39.346,39.346,0,0,0,52.118,10a3.774,3.774,0,0,1-5.862,0,39.361,39.361,0,0,0-8.971,1.728,3.774,3.774,0,0,1-5.451,2.191,39.118,39.118,0,0,0-8.283,5.486,3.774,3.774,0,0,1-4.145,4.145,39.154,39.154,0,0,0-5.127,7.557,3.774,3.774,0,0,1-2.3,5.414A39.347,39.347,0,0,0,10,46.256a3.774,3.774,0,0,1,0,5.862,39.361,39.361,0,0,0,1.728,8.971,3.774,3.774,0,0,1,2.191,5.451,39.114,39.114,0,0,0,5.486,8.283,3.774,3.774,0,0,1,4.145,4.145,39.155,39.155,0,0,0,7.557,5.127,3.8,3.8,0,0,1,3.261-.145h0A3.8,3.8,0,0,1,36.521,86.4a39.349,39.349,0,0,0,9.735,1.975,3.774,3.774,0,0,1,5.862,0,39.362,39.362,0,0,0,8.971-1.728,3.774,3.774,0,0,1,5.451-2.191,39.118,39.118,0,0,0,8.283-5.486,3.774,3.774,0,0,1,4.145-4.145,39.154,39.154,0,0,0,5.127-7.557,3.774,3.774,0,0,1,2.3-5.414,39.35,39.35,0,0,0,1.975-9.735A3.8,3.8,0,0,1,86.977,49.187ZM55.512,55.512a8.946,8.946,0,1,1,0-12.651A8.946,8.946,0,0,1,55.512,55.512Z" style="fill:#5a5a5a"/><path d="M66.675,31.7a24.732,24.732,0,1,0,0,34.977A24.732,24.732,0,0,0,66.675,31.7ZM55.512,55.512a8.946,8.946,0,1,1,0-12.651A8.946,8.946,0,0,1,55.512,55.512Z" style="fill:#deecf1"/><path d="M63.119,35.254a19.7,19.7,0,1,0,0,27.865A19.7,19.7,0,0,0,63.119,35.254ZM55.512,55.512a8.946,8.946,0,1,1,0-12.651A8.946,8.946,0,0,1,55.512,55.512Z" style="fill:#fbbe2c"/><path d="M84.095,67.267a3.774,3.774,0,0,1,2.3-5.414,39.35,39.35,0,0,0,1.975-9.735,3.774,3.774,0,0,1,0-5.862,39.364,39.364,0,0,0-1.728-8.971,3.774,3.774,0,0,1-2.191-5.451,39.118,39.118,0,0,0-5.486-8.283,3.774,3.774,0,0,1-4.145-4.145,39.153,39.153,0,0,0-7.557-5.127,3.774,3.774,0,0,1-5.414-2.3A39.346,39.346,0,0,0,52.118,10a3.774,3.774,0,0,1-5.862,0,39.361,39.361,0,0,0-8.971,1.728,3.774,3.774,0,0,1-5.451,2.191,39.118,39.118,0,0,0-8.283,5.486,3.8,3.8,0,0,1-1.085,3.06l20.4,20.4A8.946,8.946,0,0,1,55.512,55.512l20.4,20.4a3.8,3.8,0,0,1,3.06-1.085A39.154,39.154,0,0,0,84.095,67.267Z" style="fill:#444"/><path d="M31.7,31.7,42.861,42.861A8.946,8.946,0,0,1,55.512,55.512L66.675,66.675A24.732,24.732,0,0,0,31.7,31.7Z" style="fill:#c7e2e7"/><path d="M35.254,35.254l7.607,7.607A8.946,8.946,0,0,1,55.512,55.512l7.607,7.607A19.7,19.7,0,0,0,35.254,35.254Z" style="fill:#fd9e27"/><path d="M68.891,47.437H59.724a10.626,10.626,0,0,0-1.847-4.465l6.48-6.48a1.75,1.75,0,0,0-2.475-2.475L55.4,40.5a10.56,10.56,0,0,0-4.468-1.851V29.483a1.75,1.75,0,0,0-3.5,0v9.161a10.561,10.561,0,0,0-4.467,1.85l-6.478-6.478a1.75,1.75,0,0,0-2.475,2.475l6.48,6.48a10.626,10.626,0,0,0-1.847,4.465H29.483a1.75,1.75,0,0,0,0,3.5H38.65A10.626,10.626,0,0,0,40.5,55.4l-6.48,6.48a1.75,1.75,0,1,0,2.475,2.475l6.478-6.478a10.561,10.561,0,0,0,4.467,1.85v9.162a1.75,1.75,0,0,0,3.5,0V59.729A10.56,10.56,0,0,0,55.4,57.878l6.478,6.478a1.75,1.75,0,0,0,2.475-2.475L57.877,55.4a10.625,10.625,0,0,0,1.847-4.465h9.166a1.75,1.75,0,0,0,0-3.5Zm-19.7,8.945a7.2,7.2,0,1,1,5.089-2.107A7.15,7.15,0,0,1,49.187,56.382Z" style="fill:#444"/><path d="M27.752,49a.946.946,0,0,0,0,.377A21.421,21.421,0,0,0,49.177,70.64H49.2A21.466,21.466,0,1,0,27.752,49Zm39.3-1.562H59.724a10.626,10.626,0,0,0-1.847-4.465l5.182-5.182A17.78,17.78,0,0,1,67.055,47.437Zm-4,13.147L57.877,55.4a10.625,10.625,0,0,0,1.847-4.465h7.331A17.778,17.778,0,0,1,63.059,60.584ZM31.327,50.937H38.65A10.626,10.626,0,0,0,40.5,55.4l-5.18,5.18A17.87,17.87,0,0,1,31.327,50.937Zm17.859-8.946A7.2,7.2,0,1,1,44.1,44.1,7.152,7.152,0,0,1,49.187,41.991ZM42.969,57.879a10.561,10.561,0,0,0,4.467,1.85v7.326a17.782,17.782,0,0,1-9.648-4Zm7.967,1.85A10.56,10.56,0,0,0,55.4,57.878l5.18,5.18a17.779,17.779,0,0,1-9.648,4ZM55.4,40.5a10.56,10.56,0,0,0-4.468-1.851V31.319a17.779,17.779,0,0,1,9.648,4Zm-7.968-1.851a10.561,10.561,0,0,0-4.467,1.85l-5.181-5.18a17.782,17.782,0,0,1,9.648-4ZM40.5,42.972a10.626,10.626,0,0,0-1.847,4.465H31.327a17.871,17.871,0,0,1,3.989-9.645Z" style="fill:#2d2d2d"/><path d="M30.461,30.461a26.47,26.47,0,1,0,11.953-6.88,1.75,1.75,0,0,0,.893,3.385,23.078,23.078,0,0,1,22.131,5.97,22.982,22.982,0,1,1-32.5,0,1.75,1.75,0,0,0-2.475-2.475Z" style="fill:#2d2d2d"/><path d="M36.32,29.81a1.744,1.744,0,0,0,.909-.256q.33-.2.664-.39a1.75,1.75,0,0,0-1.723-3.047q-.384.217-.764.448a1.75,1.75,0,0,0,.913,3.245Z" style="fill:#2d2d2d"/><path d="M33.682,85.56a2.057,2.057,0,0,1,1.159,1.33,1.751,1.751,0,0,0,1.117,1.167,41.082,41.082,0,0,0,9.5,1.991l12.5,12.5a1.75,1.75,0,1,0,2.475-2.475L47.493,87.136c-.023-.023-.05-.039-.074-.06a1.733,1.733,0,0,0-.145-.119c-.045-.032-.09-.061-.137-.088a1.594,1.594,0,0,0-.315-.145c-.052-.018-.1-.034-.157-.047a1.734,1.734,0,0,0-.185-.033c-.032,0-.061-.014-.094-.017a37.66,37.66,0,0,1-8.541-1.637A5.51,5.51,0,0,0,31.2,82.165a37.531,37.531,0,0,1-5.9-4.008,5.507,5.507,0,0,0-5.082-5.083,37.376,37.376,0,0,1-4.367-6.593A5.508,5.508,0,0,0,13.164,59.8a37.688,37.688,0,0,1-1.352-7.015,5.508,5.508,0,0,0,0-7.187,37.606,37.606,0,0,1,1.57-7.749,5.511,5.511,0,0,0,2.826-6.64,37.5,37.5,0,0,1,4.009-5.9A5.508,5.508,0,0,0,25.3,20.218a37.527,37.527,0,0,1,6.594-4.368,5.507,5.507,0,0,0,6.684-2.687,37.683,37.683,0,0,1,7.809-1.418,1.75,1.75,0,0,0-.26-3.49,41.194,41.194,0,0,0-9.37,1.805,1.749,1.749,0,0,0-1.14,1.14,2.024,2.024,0,0,1-2.945,1.183,1.752,1.752,0,0,0-1.611-.033,40.977,40.977,0,0,0-8.652,5.73,1.748,1.748,0,0,0-.6,1.489,2.026,2.026,0,0,1-2.239,2.239,1.736,1.736,0,0,0-1.488.6A41.031,41.031,0,0,0,12.725,30.3a1.749,1.749,0,0,0,0,1.616,2.026,2.026,0,0,1-1.245,2.925,1.75,1.75,0,0,0-1.165,1.117A41.093,41.093,0,0,0,8.255,46.126,1.751,1.751,0,0,0,8.883,47.6a2.024,2.024,0,0,1,0,3.167,1.75,1.75,0,0,0-.629,1.478,41.136,41.136,0,0,0,1.806,9.37,1.75,1.75,0,0,0,1.14,1.14A2.025,2.025,0,0,1,12.383,65.7a1.752,1.752,0,0,0-.033,1.61,40.921,40.921,0,0,0,5.73,8.654,1.728,1.728,0,0,0,1.488.6A2.025,2.025,0,0,1,21.808,78.8c0,.022,0,.043,0,.064a1.753,1.753,0,0,0,.007.274c0,.038,0,.075.011.112a1.734,1.734,0,0,0,.284.7c.023.033.051.061.076.093a1.731,1.731,0,0,0,.125.153L54.44,112.333a1.75,1.75,0,1,0,2.475-2.475L32.507,85.451A2.007,2.007,0,0,1,33.682,85.56Z" style="fill:#2d2d2d"/><path d="M61.612,114.556a1.75,1.75,0,0,0-2.475,2.475l2.207,2.207a1.75,1.75,0,0,0,2.475-2.475Z" style="fill:#2d2d2d"/><path d="M68.959,92.041a1.75,1.75,0,0,0-2.475,2.475L82.329,110.36a1.75,1.75,0,0,0,2.475-2.475Z" style="fill:#2d2d2d"/><path d="M88.62,111.7a1.75,1.75,0,0,0-2.477,2.474l.656.657a1.75,1.75,0,0,0,2.477-2.474Z" style="fill:#2d2d2d"/><path d="M111.1,57.428a1.75,1.75,0,0,0,1.237-2.987L80.205,22.313a1.722,1.722,0,0,0-.139-.114c-.037-.03-.072-.064-.111-.091a1.726,1.726,0,0,0-.28-.155c-.039-.017-.078-.032-.119-.046a1.753,1.753,0,0,0-.29-.079c-.045-.008-.091-.009-.138-.013a1.746,1.746,0,0,0-.258-.006c-.022,0-.043,0-.066,0a2.025,2.025,0,0,1-2.239-2.239,1.751,1.751,0,0,0-.6-1.489,40.976,40.976,0,0,0-7.9-5.355,1.752,1.752,0,0,0-1.615,0,2.024,2.024,0,0,1-2.924-1.245,1.752,1.752,0,0,0-1.117-1.165A41.121,41.121,0,0,0,52.248,8.255a1.75,1.75,0,0,0-.26,3.49,37.655,37.655,0,0,1,8.541,1.638,5.509,5.509,0,0,0,6.64,2.826,37.529,37.529,0,0,1,5.9,4.008A5.509,5.509,0,0,0,78.155,25.3a37.391,37.391,0,0,1,4.368,6.592,5.509,5.509,0,0,0,2.687,6.685,37.687,37.687,0,0,1,1.352,7.015,5.509,5.509,0,0,0,0,7.188,37.643,37.643,0,0,1-1.571,7.748,5.508,5.508,0,0,0-2.825,6.64,37.467,37.467,0,0,1-4.009,5.9,5.522,5.522,0,0,0-3.439,1.559c-.011.01-.024.017-.034.028l0,0-.01.008a5.522,5.522,0,0,0-1.6,3.484A37.6,37.6,0,0,1,68.5,81.4c-.659.4-1.335.774-2.018,1.128A5.509,5.509,0,0,0,59.8,85.21a37.737,37.737,0,0,1-5.681,1.2,1.75,1.75,0,1,0,.457,3.47,41.178,41.178,0,0,0,7.045-1.566,1.749,1.749,0,0,0,1.14-1.14A2.025,2.025,0,0,1,65.7,85.99a1.748,1.748,0,0,0,1.611.034c1.012-.5,2.017-1.046,2.988-1.629a41.1,41.1,0,0,0,5.666-4.1,1.741,1.741,0,0,0,.592-1.224l23.673,24.121a1.75,1.75,0,0,0,2.5-2.451L79,76.561a1.735,1.735,0,0,0,1.293-.594,40.935,40.935,0,0,0,5.355-7.895,1.748,1.748,0,0,0,0-1.615,2,2,0,0,1,1.049-2.844L107.886,84.8a1.75,1.75,0,0,0,2.475-2.475L88.613,60.582a41.167,41.167,0,0,0,1.506-8.335,1.75,1.75,0,0,0-.629-1.478,2.024,2.024,0,0,1,0-3.166,1.75,1.75,0,0,0,.629-1.478,41.136,41.136,0,0,0-1.806-9.37,1.75,1.75,0,0,0-1.14-1.14,2,2,0,0,1-1.294-2.679l23.978,23.978A1.743,1.743,0,0,0,111.1,57.428Z" style="fill:#2d2d2d"/><path d="M119.237,61.345l-2.207-2.207a1.75,1.75,0,0,0-2.475,2.475l2.207,2.207a1.75,1.75,0,0,0,2.475-2.475Z" style="fill:#2d2d2d"/><path d="M92.158,50.041a1.749,1.749,0,0,0,0,2.475l7.919,7.919a1.75,1.75,0,1,0,2.475-2.475l-7.919-7.919A1.749,1.749,0,0,0,92.158,50.041Z" style="fill:#2d2d2d"/><path d="M114.177,86.145a1.75,1.75,0,0,0-2.477,2.474l.656.657a1.75,1.75,0,0,0,2.477-2.474Z" style="fill:#2d2d2d"/><path d="M107,105.065a1.75,1.75,0,1,0-2.5,2.452l2.916,2.969a1.75,1.75,0,1,0,2.5-2.452Z" style="fill:#2d2d2d"/></svg>