<svg id="Layer_1" data-name="Layer 1" xmlns="http://www.w3.org/2000/svg" viewBox="0 0 128 128"><title>SHOCKBREAKER</title><path d="M33.62,21.182H46.737A10.229,10.229,0,0,1,56.966,31.411v27.8a0,0,0,0,1,0,0H23.391a0,0,0,0,1,0,0v-27.8A10.229,10.229,0,0,1,33.62,21.182Z" transform="translate(-16.657 40.184) rotate(-45)" style="fill:#fd9e27"/><path d="M110.936,93.905a50.976,50.976,0,0,1-12.751-9.053L60.3,46.969,46.948,60.323,85.412,98.787A46.5,46.5,0,0,1,93.83,110.85a12.573,12.573,0,0,0,2.714,3.582,12.645,12.645,0,0,0,17.5-18.251A12.548,12.548,0,0,0,110.936,93.905Zm-2.267,14.785a5.046,5.046,0,1,1,0-7.136A5.046,5.046,0,0,1,108.67,108.691Z" style="fill:#c7e2e7"/><path d="M77.639,63.112,55.773,74.566a5.007,5.007,0,0,1-5.864-.895h0a5.007,5.007,0,0,1,1.217-7.976L72.992,54.241a5.007,5.007,0,0,1,5.864.895h0A5.007,5.007,0,0,1,77.639,63.112Z" style="fill:#444"/><path d="M85.058,70.531,63.192,81.985a5.007,5.007,0,0,1-5.864-.895h0a5.007,5.007,0,0,1,1.217-7.976L80.411,61.66a5.007,5.007,0,0,1,5.864.895h0A5.007,5.007,0,0,1,85.058,70.531Z" style="fill:#5a5a5a"/><path d="M92.477,77.95,70.611,89.4a5.007,5.007,0,0,1-5.864-.895h0a5.007,5.007,0,0,1,1.217-7.976L87.83,69.079a5.007,5.007,0,0,1,5.864.895h0A5.007,5.007,0,0,1,92.477,77.95Z" style="fill:#444"/><path d="M99.9,85.369,78.03,96.823a5.007,5.007,0,0,1-5.864-.895h0a5.007,5.007,0,0,1,1.217-7.976L95.249,76.5a5.007,5.007,0,0,1,5.864.895h0A5.007,5.007,0,0,1,99.9,85.369Z" style="fill:#5a5a5a"/><path d="M53.492,53.779l12-12L45.835,22.115a10.229,10.229,0,0,0-14.466,0L26.688,26.8Z" style="fill:#fbbe2c"/><path d="M114.043,96.181a12.549,12.549,0,0,0-3.107-2.276,50.977,50.977,0,0,1-12.751-9.053L60.3,46.969l-6.81,6.81,47.779,48.1c.09-.106.163-.222.263-.322a5.046,5.046,0,1,1,7.136,7.135c-.108.108-.233.188-.348.284l5.381,5.417A12.645,12.645,0,0,0,114.043,96.181Z" style="fill:#deecf1"/><path d="M67.855,68.237l9.784-5.125a5.007,5.007,0,0,0-4.647-8.871L60.468,60.8Z" style="fill:#5a5a5a"/><path d="M75.241,75.673l9.817-5.142a5.007,5.007,0,0,0-4.647-8.871L67.855,68.237Z" style="fill:#6e6e6e"/><path d="M82.628,83.109l9.849-5.159a5.007,5.007,0,0,0-4.647-8.871L75.241,75.673Z" style="fill:#5a5a5a"/><path d="M90.014,90.545,99.9,85.369A5.007,5.007,0,0,0,95.249,76.5L82.628,83.109Z" style="fill:#6e6e6e"/><path d="M13.563,13.584a11.3,11.3,0,1,0,15.982,0A11.3,11.3,0,0,0,13.563,13.584Zm10.6,10.6a3.686,3.686,0,1,1,0-5.212A3.686,3.686,0,0,1,24.16,24.18Z" style="fill:#444"/><path d="M29.544,13.583a11.3,11.3,0,0,0-15.982,0l5.369,5.4c.006-.006.01-.014.016-.02A3.686,3.686,0,0,1,24.16,24.18c-.012.012-.027.02-.039.032l5.368,5.4c.018-.018.038-.032.056-.05A11.3,11.3,0,0,0,29.544,13.583Z" style="fill:#5a5a5a"/><path d="M21,12.037l.085,0c.155-.007.313-.012.468-.012a1.75,1.75,0,0,0,0-3.5q-.318,0-.636.016a1.75,1.75,0,0,0,.083,3.5Z" style="fill:#2d2d2d"/><path d="M17.71,20.206a1.749,1.749,0,0,0,2.475,0,1.936,1.936,0,1,1,0,2.737,1.75,1.75,0,0,0-2.475,2.476,5.436,5.436,0,1,0,0-7.687A1.749,1.749,0,0,0,17.71,20.206Z" style="fill:#2d2d2d"/><path d="M102.771,100.318a1.75,1.75,0,0,0-2.475,0,6.8,6.8,0,1,0,9.61,0,1.75,1.75,0,0,0-2.475,2.476,3.3,3.3,0,1,1-4.661,0A1.75,1.75,0,0,0,102.771,100.318Z" style="fill:#2d2d2d"/><path d="M115.28,94.944a14.308,14.308,0,0,0-3.539-2.593,52.359,52.359,0,0,1-9.7-6.348,6.748,6.748,0,0,0-5.183-11.776,6.724,6.724,0,0,0-7.419-7.419,6.724,6.724,0,0,0-7.419-7.419,6.746,6.746,0,0,0-9.844-6.7l-2.415,1.265-6.987-6.987,3.956-3.956a1.749,1.749,0,0,0,0-2.475L47.072,20.877a11.984,11.984,0,0,0-12.918-2.645A13,13,0,0,0,27.387,9.9a1.75,1.75,0,1,0-1.564,3.131,9.538,9.538,0,1,1-9.322.44A1.75,1.75,0,1,0,14.646,10.5,13.051,13.051,0,1,0,30.782,30.8a12.994,12.994,0,0,0,3.8-8.92A8.484,8.484,0,0,1,44.6,23.352L63.021,41.775,41.755,63.042,23.331,44.618a8.412,8.412,0,0,1-2.389-4.728,1.75,1.75,0,1,0-3.461.52,11.878,11.878,0,0,0,3.375,6.683L40.518,66.753a1.749,1.749,0,0,0,2.475,0L46.948,62.8l2.159,2.159a6.739,6.739,0,0,0,5.051,11.894,6.7,6.7,0,0,0,7.42,7.419A6.7,6.7,0,0,0,69,91.689a6.75,6.75,0,0,0,6.7,7.462,6.77,6.77,0,0,0,3.144-.777L98.865,87.884a54.6,54.6,0,0,0,11.266,7.575,10.894,10.894,0,0,1,2.381,17.651,11.074,11.074,0,0,1-14.782.035,10.819,10.819,0,0,1-2.338-3.085,47.95,47.95,0,0,0-8.742-12.51,1.75,1.75,0,0,0-2.475,2.475,44.552,44.552,0,0,1,8.094,11.615,14.394,14.394,0,1,0,23.012-16.7ZM60.3,49.443l6.214,6.214-14.279,7.48-2.815-2.815ZM58.565,79.853a3.256,3.256,0,0,1,.79-5.187l3.725-1.951a1.75,1.75,0,0,0-1.625-3.1l-6.493,3.4a3.257,3.257,0,1,1-3.022-5.771L73.8,55.792a3.257,3.257,0,1,1,3.022,5.771l-4.191,2.2a1.75,1.75,0,0,0,1.625,3.1l2.292-1.2h0l1.161-.608.737-.386h0l2.771-1.452a3.257,3.257,0,1,1,3.022,5.771l-6.117,3.2-12.975,6.8,0,0-2.768,1.45A3.246,3.246,0,0,1,58.565,79.853Zm18.653,15.42A3.257,3.257,0,1,1,74.2,89.5h0l4.825-2.527a1.75,1.75,0,0,0-1.625-3.1L72.573,86.4h0L69.8,87.854a3.257,3.257,0,1,1-3.022-5.771l6.117-3.2,12.975-6.8,0,0,2.768-1.45A3.257,3.257,0,1,1,91.664,76.4L83.27,80.8a1.75,1.75,0,0,0,1.625,3.1l8.395-4.4.007,0,2.764-1.448a3.257,3.257,0,1,1,3.022,5.771l-.475.249a1.727,1.727,0,0,0-.6.313Z" style="fill:#2d2d2d"/><path d="M67.785,70.025a1.737,1.737,0,0,0,.811-.2l.562-.294a1.75,1.75,0,0,0-1.625-3.1l-.562.294a1.75,1.75,0,0,0,.814,3.3Z" style="fill:#2d2d2d"/></svg>