<svg id="Layer_1" data-name="Layer 1" xmlns="http://www.w3.org/2000/svg" viewBox="0 0 128 128"><title>SPEEDOMETER</title><circle cx="64" cy="64" r="54" style="fill:#deecf1"/><circle cx="64" cy="64" r="38.347" style="fill:#deecf1"/><path d="M64,10V118A54,54,0,0,0,64,10Z" style="fill:#c7e2e7"/><path d="M64,25.653v76.694a38.347,38.347,0,0,0,0-76.694Z" style="fill:#c7e2e7"/><path d="M91.23,91a38.339,38.339,0,0,1-54.46,0,38.339,38.339,0,0,1,54.46,0Z" style="fill:#e43c53"/><path d="M64,23.9a1.75,1.75,0,0,0-1.75,1.75V30a1.75,1.75,0,0,0,3.5,0V25.653A1.75,1.75,0,0,0,64,23.9Z" style="fill:#444"/><path d="M89.878,35.647,86.8,38.721A1.75,1.75,0,1,0,89.279,41.2l3.074-3.074a1.75,1.75,0,0,0-2.475-2.475Z" style="fill:#444"/><path d="M102.347,62.25H98a1.75,1.75,0,0,0,0,3.5h4.347a1.75,1.75,0,1,0,0-3.5Z" style="fill:#444"/><path d="M30,62.25H25.653a1.75,1.75,0,0,0,0,3.5H30a1.75,1.75,0,0,0,0-3.5Z" style="fill:#444"/><path d="M38.122,35.647a1.75,1.75,0,0,0-2.475,2.475L38.721,41.2A1.75,1.75,0,0,0,41.2,38.721Z" style="fill:#444"/><path d="M69.75,64a5.75,5.75,0,0,1-11.5,0c0-3.176,5.75-23.167,5.75-23.167S69.75,60.824,69.75,64Z" style="fill:#e43c53"/><path d="M64,17.564A46.436,46.436,0,1,0,110.436,64,46.436,46.436,0,0,0,64,17.564Zm0,84.783A38.347,38.347,0,1,1,102.347,64,38.347,38.347,0,0,1,64,102.347Z" style="fill:#5a5a5a"/><path d="M64,17.564v8.089a38.347,38.347,0,0,1,0,76.694v8.089a46.436,46.436,0,0,0,0-92.872Z" style="fill:#444"/><path d="M64,69.75A5.75,5.75,0,0,0,69.75,64C69.75,60.825,64,40.838,64,40.833Z" style="fill:#ca3046"/><path d="M91.23,91A38.218,38.218,0,0,1,64,102.35V79.65A38.218,38.218,0,0,1,91.23,91Z" style="fill:#ca3046"/><rect x="53.062" y="88" width="21.875" height="7.125" style="fill:#fbbe2c"/><rect x="64" y="88" width="10.937" height="7.125" style="fill:#fd9e27"/><path d="M96.521,98.9a1.744,1.744,0,0,0,1.224-.5l.416-.412a1.75,1.75,0,0,0-2.484-2.466L95.3,95.9a1.75,1.75,0,0,0,1.224,3Z" style="fill:#2d2d2d"/><path d="M99.283,94.242a1.751,1.751,0,0,0,2.459-.281A47.681,47.681,0,0,0,112.186,64,48.186,48.186,0,1,0,64,112.186a47.756,47.756,0,0,0,29.164-9.824,1.75,1.75,0,1,0-2.12-2.785A44.28,44.28,0,0,1,64,108.686,44.686,44.686,0,1,1,108.686,64,44.212,44.212,0,0,1,99,91.783,1.75,1.75,0,0,0,99.283,94.242Z" style="fill:#2d2d2d"/><path d="M86.8,41.2a1.749,1.749,0,0,0,2.475,0l3.074-3.074c.007-.007.008-.013.014-.02a1.748,1.748,0,0,0-.015-2.456A40.056,40.056,0,0,0,35.83,35.5a1.181,1.181,0,0,0-.332.332,40.076,40.076,0,0,0,56.847,56.5c.037-.031.078-.057.113-.091a1.733,1.733,0,0,0,.162-.2,40.054,40.054,0,0,0,4.627-50.466,1.75,1.75,0,0,0-2.9,1.959,36.361,36.361,0,0,1,6.186,18.712H98a1.75,1.75,0,0,0,0,3.5h2.553a36.451,36.451,0,0,1-9.4,22.756,40.091,40.091,0,0,0-48.148-4.672,1.75,1.75,0,1,0,1.836,2.98,36.6,36.6,0,0,1,43.845,4.175A36.574,36.574,0,0,1,27.447,65.75H30a1.75,1.75,0,0,0,0-3.5H27.447A36.456,36.456,0,0,1,36.926,39.4L38.721,41.2A1.75,1.75,0,0,0,41.2,38.721L39.4,36.926A36.456,36.456,0,0,1,62.25,27.447V30a1.75,1.75,0,0,0,3.5,0V27.445a36.3,36.3,0,0,1,22.861,9.469L86.8,38.721A1.749,1.749,0,0,0,86.8,41.2Z" style="fill:#2d2d2d"/><path d="M68,64a1.75,1.75,0,0,0,3.5,0c0-3.257-4.847-20.272-5.818-23.65a1.75,1.75,0,0,0-3.363,0C61.347,43.728,56.5,60.743,56.5,64A7.508,7.508,0,0,0,64,71.5,1.75,1.75,0,0,0,64,68a4,4,0,0,1-4-4c0-1.637,2.053-9.622,4-16.7C65.947,54.378,68,62.363,68,64Z" style="fill:#2d2d2d"/><path d="M74.937,96.875a1.75,1.75,0,0,0,1.75-1.75V88a1.75,1.75,0,0,0-1.75-1.75H53.062A1.75,1.75,0,0,0,51.312,88v7.125a1.75,1.75,0,0,0,1.75,1.75ZM54.812,89.75H73.187v3.625H54.812Z" style="fill:#2d2d2d"/><path d="M64,8.25a56.157,56.157,0,0,0-10.585,1,1.75,1.75,0,0,0,.661,3.437A52.256,52.256,0,1,1,11.75,64a52.1,52.1,0,0,1,28.3-46.449,1.75,1.75,0,0,0-1.606-3.109A55.769,55.769,0,1,0,64,8.25Z" style="fill:#2d2d2d"/><path d="M46.371,14.693a1.753,1.753,0,0,0,.568-.1l.568-.192a1.75,1.75,0,0,0-1.1-3.322l-.6.2a1.75,1.75,0,0,0,.568,3.406Z" style="fill:#2d2d2d"/></svg>