<svg id="Layer_1" data-name="Layer 1" xmlns="http://www.w3.org/2000/svg" viewBox="0 0 128 128"><title>TOOLS</title><path d="M59.007,83.96V50.565a16.482,16.482,0,0,1,4.725-11.6A18.045,18.045,0,0,0,60,10.677v18H41.74v-18a18.045,18.045,0,0,0-3.735,28.285,16.482,16.482,0,0,1,4.725,11.6V83.96a15.975,15.975,0,0,1-3.642,10.388A15.432,15.432,0,0,0,43.655,118V101.67H58.082V118a15.432,15.432,0,0,0,4.566-23.653A15.975,15.975,0,0,1,59.007,83.96Z" style="fill:#deecf1"/><rect x="47.994" y="41.875" width="5.75" height="44.25" rx="2.875" ry="2.875" style="fill:#6ac1ec"/><path d="M85.125,118h0a9.506,9.506,0,0,1-9.506-9.506V63.837L85.125,57l9.506,6.837v44.656A9.506,9.506,0,0,1,85.125,118Z" style="fill:#fbbe2c"/><rect x="80.466" y="50.597" width="9.25" height="16.75" style="fill:#e43c53"/><polygon points="89.792 24.333 80.458 24.333 81.458 14.938 83.458 10 86.792 10 88.792 14.938 89.792 24.333" style="fill:#deecf1"/><rect x="82.72" y="24.333" width="4.742" height="26.264" style="fill:#c7e2e7"/><path d="M63.731,38.962A18.045,18.045,0,0,0,60,10.677v18H50.869V101.67h7.214V118a15.432,15.432,0,0,0,4.566-23.653A15.975,15.975,0,0,1,59.007,83.96V50.565A16.482,16.482,0,0,1,63.731,38.962Z" style="fill:#c7e2e7"/><path d="M53.744,83.25V44.75a2.875,2.875,0,0,0-2.875-2.875v44.25A2.875,2.875,0,0,0,53.744,83.25Z" style="fill:#1cace6"/><path d="M85.091,57.025V118l.034,0a9.506,9.506,0,0,0,9.506-9.506V63.837L85.125,57Z" style="fill:#fd9e27"/><rect x="85.091" y="50.597" width="4.625" height="16.75" style="fill:#ca3046"/><polygon points="85.091 10 85.091 24.333 89.792 24.333 88.792 14.938 86.792 10 85.091 10" style="fill:#c7e2e7"/><path d="M64.976,40.192A19.676,19.676,0,0,0,70.7,26.271a19.915,19.915,0,0,0-9.82-17.1,1.75,1.75,0,0,0-2.636,1.51v18a1.75,1.75,0,1,0,3.5,0V14.112A16.389,16.389,0,0,1,67.2,26.271a16.2,16.2,0,0,1-4.716,11.461,18.117,18.117,0,0,0-5.23,12.834V83.96a17.718,17.718,0,0,0,4.06,11.522A13.678,13.678,0,0,1,59.832,114.7V101.67a1.75,1.75,0,0,0-1.75-1.75H49.993a1.75,1.75,0,0,0,0,3.5h6.339V118a1.75,1.75,0,0,0,2.568,1.547,17.181,17.181,0,0,0,5.08-26.334,14.221,14.221,0,0,1-3.224-9.253V50.565A14.64,14.64,0,0,1,64.976,40.192Z" style="fill:#2d2d2d"/><path d="M43.655,99.92a1.75,1.75,0,0,0-1.75,1.75V114.7a13.678,13.678,0,0,1-1.484-19.218A17.718,17.718,0,0,0,44.48,83.96V50.565a18.117,18.117,0,0,0-5.23-12.834,16.2,16.2,0,0,1-4.716-11.461A16.389,16.389,0,0,1,39.99,14.112V28.682a1.75,1.75,0,0,0,1.75,1.75h12a1.75,1.75,0,0,0,0-3.5H43.49V10.678a1.75,1.75,0,0,0-2.636-1.51,19.915,19.915,0,0,0-9.82,17.1,19.676,19.676,0,0,0,5.728,13.922A14.64,14.64,0,0,1,40.98,50.565V83.96a14.221,14.221,0,0,1-3.224,9.253,17.181,17.181,0,0,0,5.08,26.334A1.75,1.75,0,0,0,45.405,118V101.67A1.75,1.75,0,0,0,43.655,99.92Z" style="fill:#2d2d2d"/><path d="M47.994,58.667a1.75,1.75,0,0,0,1.75-1.75V55.875a1.75,1.75,0,0,0-3.5,0v1.042A1.75,1.75,0,0,0,47.994,58.667Z" style="fill:#2d2d2d"/><path d="M55.494,83.25V44.75a4.625,4.625,0,1,0-9.25,0v5a1.75,1.75,0,0,0,3.5,0v-5a1.125,1.125,0,0,1,2.25,0v38.5a1.125,1.125,0,1,1-2.25,0V62.333a1.75,1.75,0,0,0-3.5,0V83.25a4.625,4.625,0,0,0,9.25,0Z" style="fill:#2d2d2d"/><path d="M94.631,90.583a1.75,1.75,0,0,0-1.75,1.75v.834a1.75,1.75,0,0,0,3.5,0v-.834A1.75,1.75,0,0,0,94.631,90.583Z" style="fill:#2d2d2d"/><path d="M95.652,62.417l-4.187-3.012V50.6a1.75,1.75,0,0,0-1.75-1.75h-.5V26.083h.581a1.75,1.75,0,0,0,1.74-1.936l-1-9.4a1.751,1.751,0,0,0-.118-.472l-2-4.938A1.751,1.751,0,0,0,86.792,8.25H83.458a1.751,1.751,0,0,0-1.622,1.093l-2,4.938a1.751,1.751,0,0,0-.118.472l-1,9.4a1.75,1.75,0,0,0,1.74,1.936h.512V43.625a1.75,1.75,0,0,0,3.5,0V26.083h1.241V48.847H80.466a1.75,1.75,0,0,0-1.75,1.75v8.858L74.6,62.417a1.748,1.748,0,0,0-.729,1.421v44.656a11.256,11.256,0,1,0,22.512,0V100a1.75,1.75,0,0,0-3.5,0v8.494a7.756,7.756,0,1,1-15.512,0V64.734l1.347-.969v3.581a1.75,1.75,0,0,0,3.5,0v-15h5.75V65.6H86.125a1.75,1.75,0,0,0,0,3.5h3.591a1.75,1.75,0,0,0,1.75-1.75v-3.63l1.415,1.018V86.667a1.75,1.75,0,0,0,3.5,0V63.838A1.748,1.748,0,0,0,95.652,62.417Zm-12.48-47.05,1.466-3.617h.975l1.466,3.617.768,7.216H82.4Z" style="fill:#2d2d2d"/></svg>