<svg id="Layer_1" data-name="Layer 1" xmlns="http://www.w3.org/2000/svg" viewBox="0 0 128 128"><title>TRAFFIC LIGHT</title><rect x="44.25" y="10" width="39.5" height="85.5" style="fill:#5a5a5a"/><rect x="64" y="10" width="19.75" height="85.5" style="fill:#444"/><path d="M76.971,52.75A12.97,12.97,0,0,0,66.814,40.094a12.971,12.971,0,1,0-5.628,0,12.964,12.964,0,0,0,0,25.313,12.971,12.971,0,1,0,5.628,0A12.97,12.97,0,0,0,76.971,52.75Z" style="fill:#deecf1"/><path d="M76.971,78.063A12.97,12.97,0,0,0,66.814,65.406a12.964,12.964,0,0,0,0-25.312A12.968,12.968,0,0,0,64,14.466V91.034A12.971,12.971,0,0,0,76.971,78.063Z" style="fill:#c7e2e7"/><rect x="58.167" y="95.5" width="11.667" height="22.5" style="fill:#deecf1"/><circle cx="64" cy="27.438" r="8.142" style="fill:#e43c53"/><circle cx="64" cy="52.75" r="8.142" style="fill:#fbbe2c"/><circle cx="64" cy="78.063" r="8.142" style="fill:#74d84b"/><path d="M44.25,17.75H34s10.25,13.5,10.25,19.375Z" style="fill:#5a5a5a"/><path d="M44.25,43.063H34s10.25,13.5,10.25,19.375Z" style="fill:#5a5a5a"/><path d="M44.25,68.375H34s10.25,13.5,10.25,19.375Z" style="fill:#5a5a5a"/><path d="M83.75,17.75H94S83.75,31.25,83.75,37.125Z" style="fill:#444"/><path d="M83.75,43.063H94s-10.25,13.5-10.25,19.375Z" style="fill:#444"/><path d="M83.75,68.375H94S83.75,81.875,83.75,87.75Z" style="fill:#444"/><path d="M72.142,78.063A8.151,8.151,0,0,0,64,69.921V86.2A8.151,8.151,0,0,0,72.142,78.063Z" style="fill:#5ac033"/><path d="M72.142,52.75A8.151,8.151,0,0,0,64,44.608V60.892A8.151,8.151,0,0,0,72.142,52.75Z" style="fill:#fd9e27"/><path d="M72.142,27.438A8.151,8.151,0,0,0,64,19.3V35.579A8.151,8.151,0,0,0,72.142,27.438Z" style="fill:#ca3046"/><rect x="64" y="95.5" width="5.833" height="22.5" style="fill:#c7e2e7"/><path d="M69.833,101.25a1.75,1.75,0,0,0-1.75,1.75v15a1.75,1.75,0,0,0,3.5,0V103A1.75,1.75,0,0,0,69.833,101.25Z" style="fill:#2d2d2d"/><path d="M72.142,27.438A8.142,8.142,0,1,0,64,35.579,8.151,8.151,0,0,0,72.142,27.438ZM64,32.079a4.642,4.642,0,1,1,4.642-4.642A4.647,4.647,0,0,1,64,32.079Z" style="fill:#2d2d2d"/><path d="M64,48.108a4.647,4.647,0,0,1,4.642,4.642,1.75,1.75,0,0,0,3.5,0A8.142,8.142,0,1,0,64,60.892a1.75,1.75,0,0,0,0-3.5,4.642,4.642,0,0,1,0-9.283Z" style="fill:#2d2d2d"/><path d="M55.858,78.063A8.142,8.142,0,1,0,64,69.921,8.151,8.151,0,0,0,55.858,78.063ZM64,73.421a4.642,4.642,0,1,1-4.642,4.642A4.647,4.647,0,0,1,64,73.421Z" style="fill:#2d2d2d"/><path d="M95.394,44.121A1.75,1.75,0,0,0,94,41.313H85.5V37.125c0-3.847,6.068-13.276,9.894-18.316A1.75,1.75,0,0,0,94,16H85.5V10a1.75,1.75,0,0,0-1.75-1.75H44.25A1.75,1.75,0,0,0,42.5,10v6H34a1.75,1.75,0,0,0-1.394,2.809C36.432,23.847,42.5,33.274,42.5,37.125v4.188H34a1.75,1.75,0,0,0-1.394,2.809C36.432,49.159,42.5,58.587,42.5,62.438v4.188H34a1.75,1.75,0,0,0-1.394,2.809C36.432,74.472,42.5,83.9,42.5,87.75V95.5a1.75,1.75,0,0,0,1.75,1.75H56.417V118a1.75,1.75,0,0,0,3.5,0V97.25H83.75A1.75,1.75,0,0,0,85.5,95.5V87.75c0-3.847,6.068-13.276,9.894-18.316A1.75,1.75,0,0,0,94,66.625H85.5V62.438C85.5,58.591,91.568,49.161,95.394,44.121Zm-4.829.691A93.048,93.048,0,0,0,85.5,52.807V44.813Zm0-25.312A93.048,93.048,0,0,0,85.5,27.495V19.5Zm-53.129,0H42.5v7.995A93.048,93.048,0,0,0,37.436,19.5Zm0,25.313H42.5v7.995A93.048,93.048,0,0,0,37.436,44.813Zm0,25.313H42.5V78.12A93.048,93.048,0,0,0,37.436,70.125ZM82,93.75H46v-82H82Zm8.564-23.625A93.048,93.048,0,0,0,85.5,78.12V70.125Z" style="fill:#2d2d2d"/><path d="M78.721,27.438A14.731,14.731,0,0,0,59.109,13.549a1.75,1.75,0,1,0,1.162,3.3,11.22,11.22,0,1,1,6.165,21.535,1.75,1.75,0,0,0,0,3.418,11.214,11.214,0,0,1,0,21.895,1.75,1.75,0,0,0,0,3.418A11.22,11.22,0,1,1,55.3,70.98a1.75,1.75,0,0,0-2.711-2.215,14.726,14.726,0,1,0,18.9-3.359,14.693,14.693,0,0,0,0-25.312A14.822,14.822,0,0,0,78.721,27.438Z" style="fill:#2d2d2d"/><path d="M49.279,52.75A14.806,14.806,0,0,0,60.808,67.115a1.75,1.75,0,0,0,.756-3.418,11.214,11.214,0,0,1,0-21.895,1.75,1.75,0,0,0,0-3.418,11.23,11.23,0,0,1-8.285-14.271,1.75,1.75,0,1,0-3.344-1.033,14.717,14.717,0,0,0,6.574,17.013A14.822,14.822,0,0,0,49.279,52.75Z" style="fill:#2d2d2d"/><path d="M54.4,20.462a1.748,1.748,0,0,0,1.3-.578c.092-.1.188-.2.283-.3a1.75,1.75,0,0,0-2.506-2.443c-.129.132-.254.265-.377.4a1.75,1.75,0,0,0,1.3,2.922Z" style="fill:#2d2d2d"/></svg>