<?xml version="1.0" encoding="utf-8"?>
<!-- Generator: Adobe Illustrator 23.0.3, SVG Export Plug-In . SVG Version: 6.00 Build 0)  -->
<svg version="1.1" id="Layer_1" xmlns="http://www.w3.org/2000/svg" xmlns:xlink="http://www.w3.org/1999/xlink" x="0px" y="0px"
	 viewBox="0 0 256 256" style="enable-background:new 0 0 256 256;" xml:space="preserve">
<style type="text/css">
	.st0{fill:#F87023;}
	.st1{fill:#F8AF23;}
	.st2{fill:#CECECE;}
	.st3{fill:#AFAFAF;}
	.st4{fill:#63BCE7;}
	.st5{fill:#63E2E7;}
	.st6{fill:#9E9E9E;}
	.st7{fill:#707070;}
	.st8{fill:#3F3679;}
	.st9{fill:#E2E2E2;}
	.st10{fill:#6377E7;}
	.st11{fill:#F46275;}
	.st12{fill:#F8D323;}
	.st13{fill:#F43075;}
	.st14{fill:#F48875;}
</style>
<g>
	<g>
		<polygon class="st2" points="202.581,53.857 169.077,20.353 53.419,20.353 53.419,224.674 202.581,224.674 		"/>
		<g>
			<polygon class="st9" points="169.077,20.353 162.577,20.353 196.081,53.857 196.081,224.674 202.581,224.674 202.581,53.857 			
				"/>
		</g>
		<g>
			<rect x="53.419" y="20.353" class="st3" width="6.5" height="204.321"/>
		</g>
		<g>
			<rect x="73.16" y="122.514" class="st1" width="16.126" height="16.126"/>
			<rect x="103.672" y="122.514" class="st1" width="79.168" height="16.126"/>
		</g>
		<g>
			<circle class="st6" cx="128" cy="59.592" r="12.722"/>
			<path class="st4" d="M144.888,100.585h-33.775V84.641c0-6.808,5.519-12.327,12.327-12.327h9.122
				c6.808,0,12.327,5.519,12.327,12.327V100.585z"/>
			<g>
				<path class="st8" d="M27.323,234.147H9.32c-0.829,0-1.5,0.672-1.5,1.5s0.671,1.5,1.5,1.5h18.003c0.829,0,1.5-0.672,1.5-1.5
					S28.152,234.147,27.323,234.147z"/>
				<path class="st8" d="M246.68,234.147h-18.003c-0.829,0-1.5,0.672-1.5,1.5s0.671,1.5,1.5,1.5h18.003c0.829,0,1.5-0.672,1.5-1.5
					S247.509,234.147,246.68,234.147z"/>
				<path class="st8" d="M218.479,234.147H37.521c-0.829,0-1.5,0.672-1.5,1.5s0.671,1.5,1.5,1.5h180.959c0.829,0,1.5-0.672,1.5-1.5
					S219.308,234.147,218.479,234.147z"/>
				<path class="st8" d="M9.32,226.174h44.099h149.162h44.099c0.829,0,1.5-0.672,1.5-1.5s-0.671-1.5-1.5-1.5h-42.599V53.856
					c0-0.397-0.158-0.779-0.439-1.061l-33.504-33.504c-0.281-0.281-0.663-0.439-1.061-0.439H53.419c-0.829,0-1.5,0.672-1.5,1.5
					v202.821H9.32c-0.829,0-1.5,0.672-1.5,1.5S8.491,226.174,9.32,226.174z M170.577,23.974l28.383,28.383h-28.383V23.974z
					 M54.919,21.853h112.658v32.004c0,0.828,0.671,1.5,1.5,1.5h32.004v167.817H54.919V21.853z"/>
				<path class="st8" d="M89.286,121.014H73.16c-0.829,0-1.5,0.672-1.5,1.5v16.125c0,0.828,0.671,1.5,1.5,1.5h16.125
					c0.829,0,1.5-0.672,1.5-1.5v-16.125C90.786,121.686,90.114,121.014,89.286,121.014z M87.786,137.139H74.66v-13.125h13.125
					V137.139z"/>
				<path class="st8" d="M182.84,121.014h-79.167c-0.829,0-1.5,0.672-1.5,1.5v16.125c0,0.828,0.671,1.5,1.5,1.5h79.167
					c0.829,0,1.5-0.672,1.5-1.5v-16.125C184.34,121.686,183.668,121.014,182.84,121.014z M181.34,137.139h-76.167v-13.125h76.167
					V137.139z"/>
				<path class="st8" d="M111.112,102.085h33.775c0.829,0,1.5-0.672,1.5-1.5V84.641c0-6.407-4.387-11.795-10.311-13.356
					c3.708-2.569,6.145-6.849,6.145-11.692c0-7.842-6.38-14.222-14.222-14.222s-14.222,6.38-14.222,14.222
					c0,4.843,2.437,9.123,6.145,11.692c-5.924,1.561-10.311,6.948-10.311,13.356v15.944
					C109.612,101.413,110.284,102.085,111.112,102.085z M116.778,59.593c0-6.188,5.034-11.222,11.222-11.222
					c6.187,0,11.222,5.034,11.222,11.222S134.187,70.814,128,70.814C121.812,70.814,116.778,65.78,116.778,59.593z M112.612,84.641
					c0-5.97,4.857-10.826,10.827-10.826h9.122c5.97,0,10.827,4.856,10.827,10.826v14.444h-30.775V84.641z"/>
			</g>
		</g>
	</g>
	<g>
		<rect x="59.919" y="132.354" class="st3" width="22.703" height="22.703"/>
		<rect x="105.269" y="132.354" class="st3" width="22.703" height="22.703"/>
		<rect x="150.675" y="132.354" class="st3" width="22.703" height="22.703"/>
		<rect x="82.622" y="132.354" class="st2" width="22.703" height="22.703"/>
		<rect x="127.972" y="132.354" class="st2" width="22.703" height="22.703"/>
		<rect x="173.378" y="132.354" class="st2" width="22.703" height="22.703"/>
	</g>
	<g>
		<rect x="59.919" y="155.057" class="st2" width="22.703" height="22.703"/>
		<rect x="105.269" y="155.057" class="st2" width="22.703" height="22.703"/>
		<rect x="150.675" y="155.057" class="st2" width="22.703" height="22.703"/>
		<rect x="82.622" y="155.057" class="st3" width="22.703" height="22.703"/>
		<rect x="127.972" y="155.057" class="st3" width="22.703" height="22.703"/>
		<rect x="173.378" y="155.057" class="st3" width="22.703" height="22.703"/>
	</g>
	<g>
		<rect x="59.919" y="177.76" class="st3" width="22.703" height="22.703"/>
		<rect x="105.269" y="177.76" class="st3" width="22.703" height="22.703"/>
		<rect x="150.675" y="177.76" class="st3" width="22.703" height="22.703"/>
		<rect x="82.622" y="177.76" class="st2" width="22.703" height="22.703"/>
		<rect x="127.972" y="177.76" class="st2" width="22.703" height="22.703"/>
		<rect x="173.378" y="177.76" class="st2" width="22.703" height="22.703"/>
	</g>
	<g>
		<rect x="59.919" y="200.463" class="st2" width="22.703" height="22.703"/>
		<rect x="105.269" y="200.463" class="st2" width="22.703" height="22.703"/>
		<rect x="150.675" y="200.463" class="st2" width="22.703" height="22.703"/>
		<rect x="82.622" y="200.463" class="st3" width="22.703" height="22.703"/>
		<rect x="127.972" y="200.463" class="st3" width="22.703" height="22.703"/>
		<rect x="173.378" y="200.463" class="st3" width="22.703" height="22.703"/>
	</g>
</g>
</svg>
