<?xml version="1.0" encoding="utf-8"?>
<!-- Generator: Adobe Illustrator 23.0.3, SVG Export Plug-In . SVG Version: 6.00 Build 0)  -->
<svg version="1.1" id="Layer_1" xmlns="http://www.w3.org/2000/svg" xmlns:xlink="http://www.w3.org/1999/xlink" x="0px" y="0px"
	 viewBox="0 0 256 256" style="enable-background:new 0 0 256 256;" xml:space="preserve">
<style type="text/css">
	.st0{fill:#F87023;}
	.st1{fill:#F8AF23;}
	.st2{fill:#CECECE;}
	.st3{fill:#AFAFAF;}
	.st4{fill:#63BCE7;}
	.st5{fill:#63E2E7;}
	.st6{fill:#9E9E9E;}
	.st7{fill:#707070;}
	.st8{fill:#3F3679;}
	.st9{fill:#E2E2E2;}
	.st10{fill:#6377E7;}
	.st11{fill:#F46275;}
	.st12{fill:#F8D323;}
	.st13{fill:#F43075;}
	.st14{fill:#F48875;}
</style>
<g>
	<path class="st2" d="M74.69,204.187v-87.143c0-11.858,9.613-21.471,21.471-21.471h93.755L175.244,76.25h-45.088l-21.471-23.257
		H58.603c-11.858,0-21.471,9.613-21.471,21.471v129.724c0,9.216,6.645,16.866,15.402,18.459c1.097,0.2,2.222,0.319,3.377,0.319h0
		C66.283,222.965,74.69,214.558,74.69,204.187z"/>
	<g>
		<path class="st3" d="M43.633,204.187V74.463c0-11.858,9.613-21.471,21.471-21.471h-6.5c-11.858,0-21.471,9.613-21.471,21.471
			v129.724c0,9.216,6.645,16.866,15.401,18.459c1.097,0.2,2.222,0.319,3.377,0.319h0c1.112,0,2.196-0.115,3.255-0.301
			c-0.044-0.008-0.089-0.011-0.132-0.019C50.278,221.053,43.633,213.403,43.633,204.187z"/>
	</g>
	<rect x="60.789" y="22.062" class="st6" width="134.423" height="182"/>
	<g>
		<rect x="60.789" y="22.062" class="st7" width="6.5" height="182"/>
	</g>
	<g>
		<rect x="188.711" y="22.062" class="st2" width="6.5" height="182"/>
	</g>
	<path class="st4" d="M189.915,95.573H96.16c-11.858,0-21.471,9.613-21.471,21.471v87.143c0,10.371-8.407,18.778-18.778,18.778
		h144.18c10.37,0,18.776-8.406,18.776-18.776V95.573H189.915z"/>
	<g>
		<path class="st5" d="M212.367,95.573V204.19c0,10.37-8.406,18.776-18.776,18.776h6.5c10.37,0,18.776-8.406,18.776-18.776V95.573
			H212.367z"/>
	</g>
	<circle class="st11" cx="146.779" cy="159.269" r="53.25"/>
	<polygon class="st2" points="165.369,190.525 128.188,190.525 119.674,128.014 173.883,128.014 	"/>
	<g>
		<path class="st8" d="M77.5,40.312h101c0.829,0,1.5-0.671,1.5-1.5s-0.671-1.5-1.5-1.5h-101c-0.829,0-1.5,0.671-1.5,1.5
			S76.671,40.312,77.5,40.312z"/>
		<path class="st8" d="M77.5,54.493h101c0.829,0,1.5-0.671,1.5-1.5s-0.671-1.5-1.5-1.5h-101c-0.829,0-1.5,0.671-1.5,1.5
			S76.671,54.493,77.5,54.493z"/>
		<path class="st8" d="M77.5,68.673h101c0.829,0,1.5-0.671,1.5-1.5s-0.671-1.5-1.5-1.5h-101c-0.829,0-1.5,0.671-1.5,1.5
			S76.671,68.673,77.5,68.673z"/>
		<path class="st8" d="M77.5,82.854h101c0.829,0,1.5-0.671,1.5-1.5s-0.671-1.5-1.5-1.5h-101c-0.829,0-1.5,0.671-1.5,1.5
			S76.671,82.854,77.5,82.854z"/>
		<path class="st8" d="M146.778,214.02c30.189,0,54.75-24.561,54.75-54.75s-24.561-54.75-54.75-54.75s-54.75,24.561-54.75,54.75
			S116.589,214.02,146.778,214.02z M146.778,107.52c28.535,0,51.75,23.215,51.75,51.75s-23.215,51.75-51.75,51.75
			s-51.75-23.215-51.75-51.75S118.243,107.52,146.778,107.52z"/>
		<path class="st8" d="M112.613,129.514h5.75l8.338,61.214c0.101,0.743,0.736,1.297,1.486,1.297h37.181
			c0.75,0,1.385-0.554,1.486-1.297l8.338-61.214h5.75c0.829,0,1.5-0.671,1.5-1.5s-0.671-1.5-1.5-1.5h-7.06h-18.465v-1.742
			c0-3.665-2.981-6.646-6.646-6.646h-3.986c-3.665,0-6.646,2.981-6.646,6.646v1.742h-18.466h-7.06c-0.829,0-1.5,0.671-1.5,1.5
			S111.785,129.514,112.613,129.514z M141.139,124.771c0-2.011,1.636-3.646,3.646-3.646h3.986c2.011,0,3.646,1.636,3.646,3.646
			v1.742h-11.279V124.771z M139.639,129.514h14.279h18.247l-8.106,59.512h-34.562l-8.106-59.512H139.639z"/>
		<path class="st8" d="M134.668,178.582c0.829,0,1.5-0.671,1.5-1.5v-35.625c0-0.829-0.671-1.5-1.5-1.5s-1.5,0.671-1.5,1.5v35.625
			C133.168,177.911,133.839,178.582,134.668,178.582z"/>
		<path class="st8" d="M146.778,178.582c0.829,0,1.5-0.671,1.5-1.5v-35.625c0-0.829-0.671-1.5-1.5-1.5s-1.5,0.671-1.5,1.5v35.625
			C145.278,177.911,145.95,178.582,146.778,178.582z"/>
		<path class="st8" d="M158.889,178.582c0.829,0,1.5-0.671,1.5-1.5v-35.625c0-0.829-0.671-1.5-1.5-1.5s-1.5,0.671-1.5,1.5v35.625
			C157.389,177.911,158.061,178.582,158.889,178.582z"/>
		<path class="st8" d="M27.323,232.438H9.32c-0.829,0-1.5,0.671-1.5,1.5s0.671,1.5,1.5,1.5h18.003c0.829,0,1.5-0.671,1.5-1.5
			S28.152,232.438,27.323,232.438z"/>
		<path class="st8" d="M246.68,232.438h-18.003c-0.829,0-1.5,0.671-1.5,1.5s0.671,1.5,1.5,1.5h18.003c0.829,0,1.5-0.671,1.5-1.5
			S247.509,232.438,246.68,232.438z"/>
		<path class="st8" d="M218.479,232.438H37.521c-0.829,0-1.5,0.671-1.5,1.5s0.671,1.5,1.5,1.5h180.959c0.829,0,1.5-0.671,1.5-1.5
			S219.308,232.438,218.479,232.438z"/>
		<path class="st8" d="M9.32,224.465h46.592h144.18h46.589c0.829,0,1.5-0.671,1.5-1.5s-0.671-1.5-1.5-1.5h-36.029
			c5.816-3.568,9.716-9.967,9.716-17.276V95.573c0-0.829-0.671-1.5-1.5-1.5h-22.156V22.062c0-0.829-0.671-1.5-1.5-1.5H60.789
			c-0.829,0-1.5,0.671-1.5,1.5v29.431h-0.685c-12.666,0-22.971,10.304-22.971,22.97v129.724c0,7.233,3.819,13.685,9.691,17.278H9.32
			c-0.829,0-1.5,0.671-1.5,1.5S8.491,224.465,9.32,224.465z M217.367,204.189c0,9.526-7.75,17.276-17.276,17.276H66.517
			c5.8-3.572,9.673-9.981,9.673-17.278v-87.143c0-11.012,8.959-19.971,19.971-19.971h121.207V204.189z M62.289,23.562h131.423
			v70.512H96.161c-12.666,0-22.971,10.305-22.971,22.971v85.518H62.289V23.562z M52.803,221.17
			c-8.21-1.494-14.17-8.636-14.17-16.983V74.463c0-11.012,8.959-19.97,19.971-19.97h0.685v149.569c0,0.829,0.671,1.5,1.5,1.5H73.12
			c-0.705,8.885-8.145,15.904-17.209,15.904h0C54.911,221.465,53.894,221.369,52.803,221.17z"/>
	</g>
</g>
</svg>
