<?xml version="1.0" encoding="utf-8"?>
<!-- Generator: Adobe Illustrator 23.0.3, SVG Export Plug-In . SVG Version: 6.00 Build 0)  -->
<svg version="1.1" id="Layer_1" xmlns="http://www.w3.org/2000/svg" xmlns:xlink="http://www.w3.org/1999/xlink" x="0px" y="0px"
	 viewBox="0 0 256 256" style="enable-background:new 0 0 256 256;" xml:space="preserve">
<style type="text/css">
	.st0{fill:#F87023;}
	.st1{fill:#F8AF23;}
	.st2{fill:#CECECE;}
	.st3{fill:#AFAFAF;}
	.st4{fill:#63BCE7;}
	.st5{fill:#63E2E7;}
	.st6{fill:#9E9E9E;}
	.st7{fill:#707070;}
	.st8{fill:#3F3679;}
	.st9{fill:#E2E2E2;}
	.st10{fill:#6377E7;}
	.st11{fill:#F46275;}
	.st12{fill:#F8D323;}
	.st13{fill:#F43075;}
	.st14{fill:#F48875;}
</style>
<g>
	<circle class="st0" cx="39.291" cy="75.003" r="8.5"/>
	<circle class="st1" cx="109.438" cy="75.003" r="8.5"/>
	<path class="st2" d="M131.453,226.367H17.276v-61.618c0-17.9,14.511-32.41,32.41-32.41h49.356c17.9,0,32.41,14.511,32.41,32.41
		V226.367z"/>
	<g>
		<path class="st3" d="M56.186,132.339h-6.5c-17.9,0-32.41,14.51-32.41,32.41v61.618h6.5v-61.618
			C23.776,146.849,38.287,132.339,56.186,132.339z"/>
	</g>
	<path class="st1" d="M76.036,142.973h-3.343c-7.732,0-14-6.268-14-14v-23.491c0-7.732,6.268-14,14-14h3.343c7.732,0,14,6.268,14,14
		v23.491C90.036,136.705,83.768,142.973,76.036,142.973z"/>
	<g>
		<path class="st0" d="M65.193,128.973v-23.491c0-7.198,5.434-13.12,12.421-13.905c-0.519-0.058-1.044-0.095-1.579-0.095h-3.343
			c-7.732,0-14,6.268-14,14v23.491c0,7.732,6.268,14,14,14h3.343c0.534,0,1.06-0.036,1.579-0.095
			C70.627,142.093,65.193,136.171,65.193,128.973z"/>
	</g>
	<path class="st1" d="M74.364,118.882L74.364,118.882c-19.371,0-35.074-15.703-35.074-35.074V67.774
		c0-19.371,15.703-35.074,35.074-35.074h0c19.371,0,35.074,15.703,35.074,35.074v16.034
		C109.438,103.179,93.735,118.882,74.364,118.882z"/>
	<g>
		<path class="st0" d="M45.791,83.808V67.774c0-18.274,13.978-33.278,31.824-34.918c-1.071-0.098-2.154-0.156-3.25-0.156h0
			c-19.371,0-35.074,15.703-35.074,35.074v16.034c0,19.371,15.703,35.074,35.074,35.074h0c1.096,0,2.179-0.057,3.25-0.156
			C59.768,117.085,45.791,102.082,45.791,83.808z"/>
	</g>
	<polygon class="st4" points="58.693,124.97 74.364,142.973 61.398,151.089 54.402,132.339 	"/>
	<polygon class="st4" points="90.036,124.97 74.364,142.973 87.331,151.089 94.327,132.339 	"/>
	<polygon class="st2" points="54.402,132.339 74.364,166.48 74.364,202.58 56.734,172.077 64.383,172.077 51.697,160.883 
		52.842,132.346 	"/>
	<polygon class="st2" points="94.327,132.339 74.364,166.48 74.364,202.58 91.995,172.077 84.346,172.077 97.032,160.883 
		95.887,132.346 	"/>
	<rect x="113.543" y="135.592" class="st2" width="26.445" height="90.775"/>
	<rect x="124.177" y="126.742" class="st4" width="82.521" height="99.625"/>
	<g>
		<rect x="200.197" y="126.742" class="st5" width="6.5" height="99.625"/>
	</g>
	<polygon class="st6" points="109.438,75.791 106.225,75.791 103.011,58.469 109.438,56.469 	"/>
	<path class="st6" d="M39.291,75.791h4.595l5.375-16.072c0,0,36.125,24.125,65.875-4.25c22.888-21.83-14.228-32.415-32.567-36.136
		C76.786,18.16,70.8,18.53,65.195,20.376l-21.46,7.07c-3.59,1.183-6.015,4.535-6.015,8.315v0l0,0
		c-5.026,5.026-6.868,12.415-4.791,19.212L39.291,75.791z"/>
	<g>
		<path class="st7" d="M44.219,35.76c0-3.78,2.426-7.132,6.015-8.315l21.46-7.07c2.416-0.796,4.904-1.3,7.415-1.542
			c-4.683-0.452-9.421,0.061-13.915,1.542l-21.46,7.07c-3.59,1.183-6.015,4.535-6.015,8.315c-5.026,5.026-6.868,12.415-4.791,19.212
			l6.362,20.819h4.595l0.995-2.976l-5.453-17.843C37.351,48.175,39.194,40.786,44.219,35.76z"/>
	</g>
	<path class="st1" d="M113.543,135.592v-13.048c0-2.937,2.381-5.317,5.317-5.317h0c2.937,0,5.317,2.381,5.317,5.317v13.048H113.543z
		"/>
	<path class="st1" d="M142.271,139.844h-6.479c-6.415,0-11.615-5.2-11.615-11.615v-5.218h29.709v5.218
		C153.886,134.644,148.686,139.844,142.271,139.844z"/>
	<g>
		<circle class="st8" cx="61.208" cy="81.612" r="3.125"/>
		<circle class="st8" cx="87.52" cy="81.612" r="3.125"/>
	</g>
	<g>
		<circle class="st11" cx="165.437" cy="163.041" r="20.314"/>
		<path class="st1" d="M176.609,159.337h-6.318c-0.661,0-1.197-0.536-1.197-1.197v-6.318c0-0.661-0.536-1.197-1.197-1.197h-4.921
			c-0.661,0-1.197,0.536-1.197,1.197v6.318c0,0.661-0.536,1.197-1.197,1.197h-6.318c-0.661,0-1.197,0.536-1.197,1.197v4.921
			c0,0.661,0.536,1.197,1.197,1.197h6.318c0.661,0,1.197,0.536,1.197,1.197v6.318c0,0.661,0.536,1.197,1.197,1.197h4.921
			c0.661,0,1.197-0.536,1.197-1.197v-6.318c0-0.661,0.536-1.197,1.197-1.197h6.318c0.661,0,1.197-0.536,1.197-1.197v-4.921
			C177.806,159.873,177.27,159.337,176.609,159.337z"/>
	</g>
	<g>
		<rect x="134.27" y="191.575" class="st1" width="9.05" height="7.162"/>
		<rect x="150.149" y="191.575" class="st1" width="46.455" height="7.162"/>
	</g>
	<g>
		<rect x="134.27" y="205.075" class="st1" width="9.05" height="7.162"/>
		<rect x="150.149" y="205.075" class="st1" width="46.455" height="7.162"/>
	</g>
	<circle class="st2" cx="206.697" cy="113.639" r="32.026"/>
	<g>
		<path class="st9" d="M206.697,81.612c-1.097,0-2.181,0.056-3.25,0.163c16.161,1.629,28.776,15.272,28.776,31.863
			s-12.615,30.234-28.776,31.863c1.069,0.108,2.153,0.163,3.25,0.163c17.688,0,32.026-14.339,32.026-32.026
			S224.385,81.612,206.697,81.612z"/>
	</g>
	<path class="st11" d="M224.307,106.153c-0.247-5.07-4.342-9.211-9.409-9.51c-3.278-0.194-6.239,1.19-8.2,3.461
		c-1.961-2.271-4.922-3.655-8.2-3.461c-5.067,0.299-9.163,4.44-9.41,9.51c-0.107,2.194,0.49,4.24,1.586,5.936l0,0l9.975,15.289
		c2.85,4.368,9.248,4.368,12.098,0l9.975-15.289l0,0C223.817,110.393,224.414,108.346,224.307,106.153z"/>
	<g>
		<path class="st8" d="M27.323,235.84H9.32c-0.828,0-1.5,0.671-1.5,1.5s0.672,1.5,1.5,1.5h18.003c0.828,0,1.5-0.671,1.5-1.5
			S28.151,235.84,27.323,235.84z"/>
		<path class="st8" d="M246.68,235.84h-18.003c-0.828,0-1.5,0.671-1.5,1.5s0.672,1.5,1.5,1.5h18.003c0.828,0,1.5-0.671,1.5-1.5
			S247.508,235.84,246.68,235.84z"/>
		<path class="st8" d="M218.479,235.84H37.521c-0.828,0-1.5,0.671-1.5,1.5s0.672,1.5,1.5,1.5h180.959c0.828,0,1.5-0.671,1.5-1.5
			S219.308,235.84,218.479,235.84z"/>
		<path class="st8" d="M9.32,227.867h7.956h96.267h10.634h7.276h8.535h66.709h39.982c0.828,0,1.5-0.671,1.5-1.5s-0.672-1.5-1.5-1.5
			h-38.482v-77.739c17.792-0.788,32.026-15.505,32.026-33.489c0-18.486-15.04-33.526-33.526-33.526s-33.526,15.04-33.526,33.526
			c0,4.077,0.734,7.986,2.072,11.604h-19.858v-2.231c0-0.829-0.672-1.5-1.5-1.5H125.59c-0.501-3.269-3.324-5.783-6.73-5.783
			c-3.759,0-6.816,3.058-6.816,6.817v10.877c-4.114-1.714-8.478-2.583-13-2.583h-3.854l-3.653-6.273v-8.478
			c11.236-6.001,18.982-17.695,19.375-31.205c4.816-0.716,8.527-4.867,8.527-9.879c0-5.003-3.697-9.147-8.5-9.875V61
			c0-0.005-0.001-0.01-0.002-0.016c1.761-1.315,3.509-2.784,5.234-4.43c6.367-6.073,8.804-11.898,7.242-17.313
			c-1.838-6.372-10.363-15.253-40.546-21.378c-6.01-1.219-12.28-0.842-18.142,1.088l-21.46,7.07
			c-4.015,1.322-6.773,4.936-7.027,9.112c-5.111,5.413-6.931,13.126-4.745,20.278l3.266,10.685c-3.306,1.69-5.468,5.147-5.468,8.908
			c0,4.979,3.643,9.161,8.527,9.882c0.394,13.509,8.14,25.202,19.375,31.203v8.477l-3.653,6.273h-3.854
			c-18.698,0-33.91,15.212-33.91,33.91v60.118H9.32c-0.828,0-1.5,0.671-1.5,1.5S8.492,227.867,9.32,227.867z M65.376,170.952
			L53.225,160.23l1.011-25.205l18.629,31.861v30.101l-13.53-23.41h5.05c0.624,0,1.183-0.386,1.403-0.97
			C66.008,172.024,65.844,171.365,65.376,170.952z M58.937,127.534l13.144,15.1l-7.263,4.546l-8.678-14.842L58.937,127.534z
			 M74.364,144.743l8.033,5.027l-8.033,13.738l-8.032-13.738L74.364,144.743z M89.793,127.533l2.798,4.804l-8.678,14.842
			l-7.264-4.546L89.793,127.533z M82.942,172.607c0.221,0.583,0.779,0.97,1.403,0.97h5.05l-13.531,23.41v-30.101l18.63-31.861
			l1.011,25.205l-12.151,10.722C82.886,171.365,82.722,172.024,82.942,172.607z M115.043,137.092h7.634v87.774h-7.634V137.092z
			 M206.697,83.112c16.832,0,30.526,13.694,30.526,30.526s-13.694,30.527-30.526,30.527s-30.526-13.694-30.526-30.527
			S189.865,83.112,206.697,83.112z M205.197,147.128v77.739h-65.209h-8.535h-5.776v-88.299c2.407,2.915,6.048,4.776,10.115,4.776
			h6.479c7.227,0,13.106-5.876,13.114-13.102h21.139C181.755,139.008,192.581,146.569,205.197,147.128z M152.386,128.229
			c0,5.577-4.537,10.115-10.114,10.115h-6.479c-5.577,0-10.115-4.538-10.115-10.115v-1.487v-2.231h26.709V128.229z M115.043,122.544
			c0-2.104,1.712-3.817,3.816-3.817s3.817,1.712,3.817,3.817v0.466v3.731v1.487v5.863h-7.634V122.544z M112.043,136.709v88.158
			H75.864v-21.884l17.43-30.155c0.269-0.464,0.269-1.036,0-1.5c-0.268-0.464-0.763-0.75-1.299-0.75h-3.683l9.712-8.569
			c0.339-0.299,0.524-0.734,0.507-1.185l-1.082-26.984h1.594C103.591,133.839,107.96,134.811,112.043,136.709z M116.438,75.003
			c0,3.345-2.359,6.145-5.5,6.834v-6.046v-7.622C114.079,68.858,116.438,71.659,116.438,75.003z M107.938,67.774v6.517h-0.467
			l-1.826-9.84c0.766-0.436,1.53-0.9,2.293-1.39V67.774z M44.204,28.871l21.461-7.07c5.365-1.769,11.11-2.113,16.606-0.998
			c10.443,2.119,35.078,8.239,38.259,19.269c1.228,4.256-0.936,9.071-6.43,14.311c-11.939,11.388-26.295,15.559-42.672,12.398
			C60.39,64.65,52.11,59.735,50.427,58.683L39.243,35.466C39.365,32.451,41.317,29.821,44.204,28.871z M37.349,38.448l10.296,21.373
			l-4.839,14.47h-2.404l-6.039-19.757C32.656,48.95,33.81,42.97,37.349,38.448z M32.291,75.003c0-2.452,1.318-4.713,3.366-5.97
			l2.144,7.014c-0.002,0.033-0.01,0.065-0.01,0.098v5.695C34.61,81.15,32.291,78.329,32.291,75.003z M40.791,83.808v-6.517h3.095
			c0.646,0,1.218-0.413,1.423-1.024l4.782-14.299c6.33,3.614,29.714,15.166,52.776,3.949l1.883,10.148
			c0.132,0.711,0.752,1.227,1.475,1.227h1.714v6.517c0,18.513-15.062,33.574-33.574,33.574S40.791,102.32,40.791,83.808z
			 M74.364,120.382c5.022,0,9.811-1.019,14.172-2.859v6.885l-14.172,16.28l-14.171-16.28v-6.884
			C64.554,119.363,69.342,120.382,74.364,120.382z M18.776,164.749c0-17.044,13.866-30.91,30.91-30.91h1.594l-1.082,26.984
			c-0.018,0.451,0.168,0.886,0.507,1.185l9.712,8.569h-3.683c-0.536,0-1.031,0.286-1.299,0.75c-0.269,0.464-0.269,1.036,0,1.5
			l17.429,30.155v21.884H40.417V172.45c0-0.829-0.672-1.5-1.5-1.5s-1.5,0.671-1.5,1.5v52.417H18.776V164.749z"/>
		<path class="st8" d="M73.511,97.344h3.719c0.464,0,0.901-0.215,1.186-0.582s0.383-0.844,0.267-1.293l-2.865-11.106
			c-0.206-0.802-1.022-1.285-1.827-1.078c-0.802,0.207-1.284,1.025-1.077,1.827l2.381,9.232h-1.782c-0.828,0-1.5,0.671-1.5,1.5
			S72.683,97.344,73.511,97.344z"/>
		<path class="st8" d="M79.594,106.244c0.61-0.56,0.652-1.508,0.093-2.119c-0.56-0.612-1.51-0.651-2.12-0.093
			c-1.762,1.615-4.642,1.615-6.403,0c-0.61-0.56-1.559-0.52-2.119,0.092c-0.56,0.61-0.519,1.56,0.092,2.119
			c1.436,1.316,3.292,2.041,5.229,2.041C76.3,108.284,78.157,107.56,79.594,106.244z"/>
		<path class="st8" d="M67.167,73H55.25c-0.828,0-1.5,0.671-1.5,1.5s0.672,1.5,1.5,1.5h11.917c0.828,0,1.5-0.671,1.5-1.5
			S67.995,73,67.167,73z"/>
		<path class="st8" d="M81.563,76h11.916c0.828,0,1.5-0.671,1.5-1.5s-0.672-1.5-1.5-1.5H81.563c-0.828,0-1.5,0.671-1.5,1.5
			S80.734,76,81.563,76z"/>
		<path class="st8" d="M143.623,163.041c0,12.028,9.786,21.813,21.814,21.813s21.813-9.786,21.813-21.813
			s-9.785-21.813-21.813-21.813S143.623,151.013,143.623,163.041z M184.251,163.041c0,10.374-8.439,18.813-18.813,18.813
			s-18.814-8.439-18.814-18.813s8.44-18.813,18.814-18.813S184.251,152.667,184.251,163.041z"/>
		<path class="st8" d="M160.279,151.822v6.015h-6.015c-1.487,0-2.697,1.21-2.697,2.697v4.921c0,1.487,1.21,2.697,2.697,2.697h6.015
			v6.015c0,1.487,1.21,2.697,2.697,2.697h4.921c1.487,0,2.697-1.21,2.697-2.697v-6.015h6.015c1.487,0,2.697-1.21,2.697-2.697v-4.921
			c0-1.487-1.21-2.697-2.697-2.697h-6.015v-6.015c0-1.487-1.21-2.697-2.697-2.697h-4.921
			C161.489,149.125,160.279,150.335,160.279,151.822z M163.279,152.125h4.315v6.015c0,1.487,1.21,2.697,2.697,2.697h6.015v4.315
			h-6.015c-1.487,0-2.697,1.21-2.697,2.697v6.015h-4.315v-6.015c0-1.487-1.21-2.697-2.697-2.697h-6.015v-4.315h6.015
			c1.487,0,2.697-1.21,2.697-2.697V152.125z"/>
		<path class="st8" d="M143.32,190.075h-9.05c-0.828,0-1.5,0.671-1.5,1.5v7.162c0,0.829,0.672,1.5,1.5,1.5h9.05
			c0.828,0,1.5-0.671,1.5-1.5v-7.162C144.82,190.747,144.148,190.075,143.32,190.075z M141.82,197.237h-6.05v-4.162h6.05V197.237z"
			/>
		<path class="st8" d="M148.648,191.575v7.162c0,0.829,0.672,1.5,1.5,1.5h46.455c0.828,0,1.5-0.671,1.5-1.5v-7.162
			c0-0.829-0.672-1.5-1.5-1.5h-46.455C149.32,190.075,148.648,190.747,148.648,191.575z M151.648,193.075h43.455v4.162h-43.455
			V193.075z"/>
		<path class="st8" d="M143.32,203.575h-9.05c-0.828,0-1.5,0.671-1.5,1.5v7.162c0,0.829,0.672,1.5,1.5,1.5h9.05
			c0.828,0,1.5-0.671,1.5-1.5v-7.162C144.82,204.247,144.148,203.575,143.32,203.575z M141.82,210.737h-6.05v-4.162h6.05V210.737z"
			/>
		<path class="st8" d="M196.604,203.575h-46.455c-0.828,0-1.5,0.671-1.5,1.5v7.162c0,0.829,0.672,1.5,1.5,1.5h46.455
			c0.828,0,1.5-0.671,1.5-1.5v-7.162C198.104,204.247,197.432,203.575,196.604,203.575z M195.104,210.737h-43.455v-4.162h43.455
			V210.737z"/>
		<path class="st8" d="M199.393,128.197c1.616,2.477,4.347,3.956,7.305,3.956s5.689-1.479,7.305-3.956l9.979-15.294
			c1.313-2.03,1.943-4.389,1.825-6.823v0c-0.282-5.79-5.034-10.593-10.819-10.935c-3.091-0.182-6.021,0.839-8.289,2.833
			c-2.268-1.994-5.209-3.013-8.289-2.833c-5.785,0.343-10.537,5.146-10.818,10.935c-0.118,2.434,0.513,4.793,1.828,6.829
			L199.393,128.197z M198.585,98.14c0.174-0.01,0.347-0.016,0.519-0.016c2.489,0,4.819,1.062,6.458,2.96
			c0.285,0.33,0.699,0.52,1.136,0.52c0.436,0,0.851-0.189,1.135-0.52c1.754-2.029,4.311-3.101,6.977-2.944
			c4.278,0.253,7.792,3.805,8.001,8.086c0.087,1.803-0.379,3.549-1.345,5.043l-9.975,15.289c-1.076,1.649-2.823,2.595-4.793,2.595
			s-3.717-0.946-4.793-2.596l-9.971-15.283c-0.969-1.5-1.435-3.247-1.348-5.05C190.794,101.944,194.308,98.393,198.585,98.14z"/>
	</g>
</g>
</svg>
