<?xml version="1.0" encoding="utf-8"?>
<!-- Generator: Adobe Illustrator 23.0.3, SVG Export Plug-In . SVG Version: 6.00 Build 0)  -->
<svg version="1.1" id="Layer_1" xmlns="http://www.w3.org/2000/svg" xmlns:xlink="http://www.w3.org/1999/xlink" x="0px" y="0px"
	 viewBox="0 0 256 256" style="enable-background:new 0 0 256 256;" xml:space="preserve">
<style type="text/css">
	.st0{fill:#F87023;}
	.st1{fill:#F8AF23;}
	.st2{fill:#CECECE;}
	.st3{fill:#AFAFAF;}
	.st4{fill:#63BCE7;}
	.st5{fill:#63E2E7;}
	.st6{fill:#9E9E9E;}
	.st7{fill:#707070;}
	.st8{fill:#3F3679;}
	.st9{fill:#E2E2E2;}
	.st10{fill:#6377E7;}
	.st11{fill:#F46275;}
	.st12{fill:#F8D323;}
	.st13{fill:#F43075;}
	.st14{fill:#F48875;}
</style>
<g>
	<path class="st2" d="M214.178,228.246l-171.876,0.411c-11.046,0.026-20.021-8.906-20.048-19.952L21.843,36.829
		c-0.026-11.046,8.906-20.021,19.952-20.048l171.876-0.411c11.046-0.026,20.021,8.906,20.048,19.952l0.411,171.876
		C234.157,219.244,225.224,228.22,214.178,228.246z"/>
	<g>
		<path class="st3" d="M28.754,208.69L28.343,36.813c-0.026-11.046,8.906-20.021,19.952-20.048l-6.5,0.016
			c-11.046,0.026-19.979,9.002-19.952,20.048l0.411,171.876c0.026,11.046,9.002,19.979,20.048,19.952l6.5-0.016
			C37.756,228.668,28.781,219.735,28.754,208.69z"/>
	</g>
	<g>
		<path class="st9" d="M227.631,208.214l-0.411-171.876c-0.026-11.046-9.002-19.979-20.048-19.952l6.5-0.016
			c11.046-0.026,20.021,8.906,20.048,19.952l0.411,171.876c0.026,11.046-8.906,20.021-19.952,20.048l-6.5,0.016
			C218.724,228.235,227.657,219.26,227.631,208.214z"/>
	</g>
	<path class="st1" d="M127.785,38.153c-7.268,0.017-13.167,5.945-13.15,13.213l0.004,1.774c-1.943-1.122-4.195-1.764-6.595-1.758
		c-7.268,0.017-13.167,5.945-13.15,13.213l0.02,8.364c-1.943-1.122-4.195-1.764-6.595-1.758c-7.268,0.017-13.167,5.945-13.15,13.213
		l0.167,69.861c0.07,29.074,23.779,52.669,52.851,52.599s52.669-23.778,52.599-52.851l-0.107-44.816
		c-0.013-5.289-4.012-9.613-9.106-9.844c-3.905-0.18-7.628,0.988-10.681,3.303l-0.076-31.638c-0.017-7.282-5.93-13.167-13.213-13.15
		c-2.399,0.006-4.649,0.659-6.586,1.79l-0.02-8.364C140.981,44.021,135.068,38.136,127.785,38.153z"/>
	<g>
		<path class="st8" d="M182.288,154.019l-0.107-44.816c-0.015-6.09-4.644-11.071-10.537-11.339c-3.295-0.149-6.44,0.559-9.258,2.066
			l-0.068-28.905c-0.02-8.084-6.602-14.646-14.681-14.646c-0.012,0-0.024,0-0.036,0c-1.742,0.004-3.466,0.321-5.088,0.927
			l-0.003-1.218c0-0.003-0.001-0.005-0.001-0.008l-0.011-4.778c-0.02-8.084-6.602-14.646-14.681-14.646c-0.012,0-0.024,0-0.036,0
			c-3.915,0.009-7.597,1.547-10.366,4.329c-2.632,2.645-4.135,6.107-4.27,9.806c-1.616-0.597-3.334-0.906-5.068-0.906
			c-0.012,0-0.024,0-0.036,0c-8.095,0.02-14.665,6.621-14.646,14.717l0.015,6.004c-1.625-0.598-3.311-0.902-5.093-0.902
			c-3.915,0.009-7.597,1.547-10.366,4.329c-2.77,2.783-4.29,6.472-4.28,10.387l0.167,69.861
			c0.072,29.856,24.385,54.096,54.224,54.096c0.044,0,0.088,0,0.132,0C158.092,208.302,182.359,183.918,182.288,154.019z
			 M128.061,205.374c-28.186,0-51.155-22.9-51.224-51.103L76.67,84.411c-0.008-3.115,1.202-6.049,3.406-8.264
			c2.204-2.214,5.134-3.438,8.248-3.445c0.009,0,0.019,0,0.028,0c1.76,0,3.487,0.423,5.064,1.188l0.125,52.4
			c0.002,0.827,0.673,1.497,1.5,1.497c0.001,0,0.002,0,0.004,0c0.828-0.002,1.498-0.675,1.496-1.503l-0.128-53.323
			c0-0.001,0.001-0.003,0.001-0.004l-0.021-8.364c-0.015-6.441,5.213-11.694,11.654-11.709c0.009,0,0.019,0,0.028,0
			c1.76,0,3.488,0.424,5.065,1.188l0.172,72.172c0.002,0.827,0.673,1.497,1.5,1.497c0.001,0,0.002,0,0.004,0
			c0.828-0.002,1.498-0.675,1.496-1.503l-0.179-74.873c-0.008-3.115,1.202-6.049,3.406-8.264c2.204-2.214,5.133-3.438,8.247-3.445
			c0.01,0,0.019,0,0.028,0c6.428,0,11.665,5.222,11.681,11.653l0.02,8.364c0,0.002,0.001,0.003,0.001,0.005l0.158,66.503
			c0.002,0.827,0.673,1.497,1.5,1.497c0.001,0,0.002,0,0.004,0c0.828-0.002,1.498-0.675,1.496-1.503l-0.156-65.582
			c1.583-0.776,3.318-1.209,5.088-1.213c0.01,0,0.019,0,0.028,0c6.428,0,11.665,5.222,11.681,11.653l0.07,29.244l0,0.002
			l0.095,39.377c-5.519,0.585-24.895,4.065-28.764,24.152c-0.157,0.813,0.375,1.6,1.188,1.757c0.097,0.018,0.191,0.027,0.286,0.027
			c0.704,0,1.333-0.499,1.471-1.217c1.688-8.765,6.757-15.095,15.064-18.815c6.316-2.828,12.236-3.019,12.296-3.02
			c0.813-0.022,1.463-0.689,1.461-1.503l-0.09-37.587c2.681-1.839,5.825-2.741,9.112-2.588c4.293,0.195,7.664,3.862,7.675,8.349
			l0.107,44.816c0.067,28.246-22.857,51.28-51.104,51.348C128.142,205.374,128.104,205.374,128.061,205.374z"/>
		<path class="st8" d="M27.59,238.166c-0.001,0-0.002,0-0.004,0l-18.003,0.043c-0.828,0.002-1.498,0.675-1.496,1.503
			c0.002,0.827,0.673,1.497,1.5,1.497c0.001,0,0.002,0,0.004,0l18.003-0.043c0.828-0.002,1.498-0.675,1.496-1.503
			C29.088,238.835,28.417,238.166,27.59,238.166z"/>
		<path class="st8" d="M246.946,237.641c-0.001,0-0.002,0-0.004,0l-18.003,0.043c-0.828,0.002-1.498,0.675-1.496,1.503
			c0.002,0.827,0.673,1.497,1.5,1.497c0.001,0,0.002,0,0.004,0l18.003-0.043c0.828-0.002,1.498-0.675,1.496-1.503
			C248.444,238.31,247.773,237.641,246.946,237.641z"/>
		<path class="st8" d="M218.746,237.708c-0.001,0-0.002,0-0.004,0l-180.959,0.433c-0.828,0.002-1.498,0.675-1.496,1.503
			c0.002,0.827,0.673,1.497,1.5,1.497c0.001,0,0.002,0,0.004,0l180.959-0.433c0.828-0.002,1.498-0.675,1.496-1.503
			C220.244,238.377,219.573,237.708,218.746,237.708z"/>
		<path class="st8" d="M9.561,230.235c0.001,0,0.002,0,0.004,0l32.688-0.078h0c0.018,0,0.035,0,0.053,0l85.938-0.206l118.68-0.284
			c0.828-0.002,1.498-0.675,1.496-1.503c-0.002-0.828-0.673-1.497-1.5-1.497c-0.001,0-0.002,0-0.004,0l-21.842,0.052
			c6.323-3.76,10.575-10.651,10.557-18.525L235.22,36.319c-0.014-5.743-2.263-11.137-6.333-15.188
			c-4.059-4.039-9.441-6.261-15.165-6.261c-0.018,0-0.035,0-0.054,0L41.791,15.281c-11.854,0.028-21.477,9.696-21.448,21.551
			l0.411,171.876c0.014,5.743,2.263,11.137,6.334,15.188c1.3,1.294,2.748,2.379,4.288,3.287l-21.819,0.052
			c-0.828,0.002-1.498,0.675-1.496,1.503C8.062,229.566,8.733,230.235,9.561,230.235z M29.204,221.77
			c-3.503-3.486-5.438-8.127-5.45-13.068L23.343,36.825c-0.024-10.201,8.255-18.52,18.456-18.544l171.877-0.411
			c0.016,0,0.03,0,0.046,0c4.924,0,9.557,1.912,13.048,5.387c3.503,3.486,5.438,8.127,5.45,13.068l0.411,171.876
			c0.024,10.201-8.255,18.52-18.456,18.544l-85.938,0.206l-85.984,0.206C37.329,227.157,32.695,225.245,29.204,221.77z"/>
	</g>
</g>
</svg>
