<?xml version="1.0" encoding="utf-8"?>
<!-- Generator: Adobe Illustrator 23.0.3, SVG Export Plug-In . SVG Version: 6.00 Build 0)  -->
<svg version="1.1" id="Layer_1" xmlns="http://www.w3.org/2000/svg" xmlns:xlink="http://www.w3.org/1999/xlink" x="0px" y="0px"
	 viewBox="0 0 256 256" style="enable-background:new 0 0 256 256;" xml:space="preserve">
<style type="text/css">
	.st0{fill:#F87023;}
	.st1{fill:#F8AF23;}
	.st2{fill:#CECECE;}
	.st3{fill:#AFAFAF;}
	.st4{fill:#63BCE7;}
	.st5{fill:#63E2E7;}
	.st6{fill:#9E9E9E;}
	.st7{fill:#707070;}
	.st8{fill:#3F3679;}
	.st9{fill:#E2E2E2;}
	.st10{fill:#6377E7;}
	.st11{fill:#F46275;}
	.st12{fill:#F8D323;}
	.st13{fill:#F43075;}
	.st14{fill:#F48875;}
</style>
<g>
	<rect x="102.935" y="27.31" class="st4" width="50.13" height="33.327"/>
	<g>
		<rect x="102.935" y="27.31" class="st10" width="6.5" height="33.327"/>
	</g>
	<path class="st4" d="M162.96,27.31H93.04c-4.802,0-8.694-3.893-8.694-8.694v0c0-4.802,3.893-8.694,8.694-8.694h69.92
		c4.802,0,8.694,3.893,8.694,8.694v0C171.654,23.417,167.762,27.31,162.96,27.31z"/>
	<g>
		<path class="st10" d="M90.846,18.616c0-4.802,3.893-8.694,8.694-8.694h-6.5c-4.802,0-8.694,3.893-8.694,8.694
			c0,4.802,3.893,8.694,8.694,8.694h6.5C94.738,27.31,90.846,23.417,90.846,18.616z"/>
	</g>
	<circle class="st2" cx="128" cy="137.856" r="97.25"/>
	<g>
		<path class="st3" d="M37.25,137.856c0-52.622,41.796-95.475,94-97.19c-1.08-0.036-2.162-0.06-3.25-0.06
			c-53.71,0-97.25,43.54-97.25,97.25s43.54,97.25,97.25,97.25c1.088,0,2.17-0.024,3.25-0.06
			C79.046,233.331,37.25,190.477,37.25,137.856z"/>
	</g>
	<g>
		<path class="st9" d="M218.75,137.856c0-52.622-41.796-95.475-94-97.19c1.08-0.036,2.162-0.06,3.25-0.06
			c53.71,0,97.25,43.54,97.25,97.25s-43.54,97.25-97.25,97.25c-1.088,0-2.17-0.024-3.25-0.06
			C176.954,233.331,218.75,190.477,218.75,137.856z"/>
	</g>
	<g>
		<path class="st1" d="M128,100.888L128,100.888c-6.899,0-12.492-5.593-12.492-12.492v-9.1c0-6.899,5.593-12.492,12.491-12.492h0
			c6.899,0,12.492,5.593,12.492,12.492v9.1C140.492,95.295,134.899,100.888,128,100.888z"/>
		<circle class="st1" cx="128" cy="186.965" r="21.942"/>
		<path class="st1" d="M169.129,160.061c-7.756-3.265-12.799-10.861-12.799-19.276v-28.609c0-15.646-12.684-28.33-28.33-28.33h0
			c-15.646,0-28.33,12.684-28.33,28.33v28.609c0,8.415-5.043,16.01-12.799,19.276h0c-5.291,2.228-8.732,7.41-8.732,13.152l0,0
			c0,7.277,5.9,13.177,13.177,13.177H128h36.684c7.277,0,13.177-5.9,13.177-13.177l0,0
			C177.861,167.471,174.421,162.289,169.129,160.061z"/>
	</g>
	<g>
		<path class="st8" d="M128,210.407c12.616,0,22.93-10.019,23.418-22.517h13.267c8.093,0,14.677-6.584,14.677-14.677
			c0-6.361-3.788-12.065-9.65-14.534c-7.218-3.039-11.881-10.063-11.881-17.894v-28.608c0-11.4-6.43-21.322-15.852-26.342
			c0.004-0.042,0.013-0.083,0.013-0.126v-6.412c0-7.715-6.276-13.992-13.991-13.992s-13.991,6.277-13.991,13.992v6.412
			c0,0.043,0.009,0.084,0.013,0.126c-9.421,5.02-15.852,14.942-15.852,26.342v28.608c0,7.831-4.663,14.854-11.881,17.894
			c-5.862,2.468-9.65,8.173-9.65,14.534c0,8.093,6.584,14.677,14.677,14.677h13.267C105.07,200.388,115.384,210.407,128,210.407z
			 M128,207.407c-10.959,0-19.906-8.676-20.395-19.517h40.789C147.906,198.731,138.959,207.407,128,207.407z M117.009,79.296
			c0-6.061,4.931-10.992,10.991-10.992s10.991,4.931,10.991,10.992v5.157c-3.404-1.354-7.11-2.107-10.991-2.107
			s-7.587,0.753-10.991,2.107V79.296z M79.639,173.212c0-5.151,3.067-9.771,7.814-11.769c8.333-3.508,13.717-11.617,13.717-20.658
			v-28.608c0-14.794,12.036-26.831,26.83-26.831s26.83,12.036,26.83,26.831v28.608c0,9.041,5.384,17.15,13.717,20.658
			c4.747,1.999,7.814,6.618,7.814,11.769c0,6.439-5.238,11.677-11.677,11.677H91.315C84.877,184.89,79.639,179.651,79.639,173.212z"
			/>
		<path class="st8" d="M27.323,244.579H9.32c-0.828,0-1.5,0.671-1.5,1.5s0.672,1.5,1.5,1.5h18.003c0.828,0,1.5-0.671,1.5-1.5
			S28.151,244.579,27.323,244.579z"/>
		<path class="st8" d="M246.68,244.579h-18.003c-0.828,0-1.5,0.671-1.5,1.5s0.672,1.5,1.5,1.5h18.003c0.828,0,1.5-0.671,1.5-1.5
			S247.508,244.579,246.68,244.579z"/>
		<path class="st8" d="M218.479,244.579H37.521c-0.828,0-1.5,0.671-1.5,1.5s0.672,1.5,1.5,1.5h180.959c0.828,0,1.5-0.671,1.5-1.5
			S219.308,244.579,218.479,244.579z"/>
		<path class="st8" d="M9.32,236.605H246.68c0.828,0,1.5-0.671,1.5-1.5s-0.672-1.5-1.5-1.5h-94.497
			c42.798-10.814,74.567-49.639,74.567-95.75c0-0.814-0.011-1.625-0.031-2.435c0.02-0.098,0.009-0.561-0.023-0.682
			c-1.368-43.882-31.5-80.638-72.131-92V28.81h8.396c5.621,0,10.194-4.573,10.194-10.194S168.581,8.421,162.96,8.421H93.04
			c-5.621,0-10.194,4.573-10.194,10.194S87.419,28.81,93.04,28.81h8.396V42.74c-40.631,11.362-70.764,48.118-72.131,92
			c-0.032,0.121-0.043,0.584-0.023,0.682c-0.02,0.809-0.031,1.621-0.031,2.435c0,46.11,31.769,84.936,74.567,95.75H9.32
			c-0.828,0-1.5,0.671-1.5,1.5S8.492,236.605,9.32,236.605z M85.846,18.616c0-3.967,3.228-7.194,7.194-7.194h69.92
			c3.967,0,7.194,3.228,7.194,7.194s-3.228,7.194-7.194,7.194h-9.896h-50.129H93.04C89.073,25.81,85.846,22.583,85.846,18.616z
			 M104.436,28.81h47.129v13.145c-7.555-1.857-15.445-2.849-23.564-2.849c-8.119,0-16.01,0.992-23.564,2.849V28.81z M32.25,137.856
			c0-0.414,0.01-0.825,0.016-1.238h8.423c0.828,0,1.5-0.671,1.5-1.5s-0.672-1.5-1.5-1.5h-8.34
			c2.204-50.341,43.46-90.709,94.151-91.493v8.419c0,0.829,0.672,1.5,1.5,1.5s1.5-0.671,1.5-1.5v-8.419
			c50.692,0.783,91.947,41.151,94.151,91.493h-8.34c-0.828,0-1.5,0.671-1.5,1.5s0.672,1.5,1.5,1.5h8.423
			c0.005,0.413,0.016,0.824,0.016,1.238c0,52.295-42.143,94.925-94.25,95.73v-8.419c0-0.829-0.672-1.5-1.5-1.5s-1.5,0.671-1.5,1.5
			v8.419C74.393,232.781,32.25,190.151,32.25,137.856z"/>
	</g>
</g>
</svg>
