<?xml version="1.0" encoding="utf-8"?>
<!-- Generator: Adobe Illustrator 23.0.0, SVG Export Plug-In . SVG Version: 6.00 Build 0)  -->
<svg version="1.1" id="Layer_1" xmlns="http://www.w3.org/2000/svg" xmlns:xlink="http://www.w3.org/1999/xlink" x="0px" y="0px"
	 viewBox="0 0 64 64" style="enable-background:new 0 0 64 64;" xml:space="preserve">
<style type="text/css">
	.st0{fill:#353744;}
	.st1{fill:#F68820;}
	.st2{fill:#808080;}
	.st3{fill:#5C76B2;}
	.st4{fill:#6FA4D8;}
	.st5{fill:#DBDEE3;}
	.st6{fill:#B3B4B6;}
	.st7{fill:#FBBE18;}
	.st8{fill:#EEC78E;}
	.st9{fill:#DB9E68;}
	.st10{fill:#55525B;}
	.st11{fill:#FFFFFF;}
	.st12{fill:#1C1D28;}
	.st13{fill:#FBD301;}
	.st14{fill:#BE7850;}
	.st15{fill:#4C52A3;}
	.st16{fill:#BF6B1E;}
	.st17{fill:#5F7ABC;}
	.st18{fill:#D4761E;}
	.st19{fill:#5D76B2;}
	.st20{fill:#668DC5;}
</style>
<g>
	<g>
		<rect x="26" y="6" class="st4" width="12" height="21"/>
	</g>
	<g>
		<path class="st4" d="M38,2H26c-1.105,0-2,0.895-2,2v0c0,1.105,0.895,2,2,2h12c1.105,0,2-0.895,2-2v0C40,2.895,39.105,2,38,2z"/>
	</g>
	<g>
		<path class="st3" d="M38,2h-6c1.105,0,2,0.895,2,2c0,1.105-0.895,2-2,2h6c1.105,0,2-0.895,2-2C40,2.895,39.105,2,38,2z"/>
	</g>
	<g>
		<path class="st3" d="M26,6v4h4.5c0.828,0,1.5,0.672,1.5,1.5V21h6V6H26z"/>
	</g>
	<g>
		<circle class="st4" cx="32" cy="41" r="21"/>
	</g>
	<g>
		<path class="st7" d="M33.041,27.186c-0.645-0.376-1.438-0.376-2.083,0C26.203,29.958,23,35.099,23,41s3.203,11.042,7.959,13.814
			c0.645,0.376,1.438,0.376,2.083,0C37.797,52.042,41,46.901,41,41S37.797,29.958,33.041,27.186z"/>
	</g>
	<g>
		<path class="st1" d="M23,41c0,6.027,3.341,11.261,8.265,13.988C31.594,55.17,32,54.919,32,54.542l0-26.739
			c0-0.546-0.595-0.878-1.066-0.603C26.192,29.976,23,35.109,23,41z"/>
	</g>
	<g>
		<path class="st16" d="M40.937,39.649L33,47.586v-7.172l6.391-6.391c-0.304-0.624-0.648-1.225-1.028-1.8L33,37.586V27.169
			c-0.625-0.346-1.375-0.346-2,0v10.417l-5.363-5.363c-0.38,0.575-0.723,1.176-1.028,1.8L31,40.414v7.172l-7.937-7.937
			C23.026,40.095,23,40.544,23,41c0,0.504,0.032,1,0.077,1.491L31,50.414V58.5h2v-8.086l7.923-7.923C40.968,42,41,41.504,41,41
			C41,40.544,40.974,40.095,40.937,39.649z"/>
	</g>
	<g>
		<circle class="st5" cx="21.5" cy="29.5" r="3"/>
	</g>
	<g>
		<path class="st3" d="M47.079,26.403C48.31,29.185,49,32.261,49,35.5C49,47.926,38.926,58,26.5,58c-3.239,0-6.315-0.69-9.097-1.921
			C21.183,59.738,26.324,62,32,62c11.598,0,21-9.402,21-21C53,35.324,50.738,30.183,47.079,26.403z"/>
	</g>
</g>
</svg>
