<?xml version="1.0" encoding="utf-8"?>
<!-- Generator: Adobe Illustrator 23.0.0, SVG Export Plug-In . SVG Version: 6.00 Build 0)  -->
<svg version="1.1" id="Layer_1" xmlns="http://www.w3.org/2000/svg" xmlns:xlink="http://www.w3.org/1999/xlink" x="0px" y="0px"
	 viewBox="0 0 64 64" style="enable-background:new 0 0 64 64;" xml:space="preserve">
<style type="text/css">
	.st0{fill:#353744;}
	.st1{fill:#F68820;}
	.st2{fill:#808080;}
	.st3{fill:#5C76B2;}
	.st4{fill:#6FA4D8;}
	.st5{fill:#DBDEE3;}
	.st6{fill:#B3B4B6;}
	.st7{fill:#FBBE18;}
	.st8{fill:#EEC78E;}
	.st9{fill:#DB9E68;}
	.st10{fill:#55525B;}
	.st11{fill:#FFFFFF;}
	.st12{fill:#1C1D28;}
	.st13{fill:#FBD301;}
	.st14{fill:#BE7850;}
	.st15{fill:#4C52A3;}
	.st16{fill:#BF6B1E;}
	.st17{fill:#5F7ABC;}
	.st18{fill:#D4761E;}
	.st19{fill:#5D76B2;}
	.st20{fill:#668DC5;}
</style>
<g>
	<g>
		<g>
			<path class="st1" d="M51.5,14.5h-0.343c-1.782,0-2.674-2.154-1.414-3.414l0.243-0.243c0.391-0.391,0.391-1.024,0-1.414
				l-1.414-1.414c-0.195-0.195-0.451-0.293-0.707-0.293v0h-4c-0.044,0-0.086,0.019-0.13,0.025C43.597,7.48,43.5,7.184,43.5,6.843
				V6.5c0-0.552-0.448-1-1-1h-6c-0.552,0-1,0.448-1,1v0.343c0,0.341-0.097,0.637-0.234,0.904c-0.044-0.006-0.086-0.025-0.13-0.025v0
				h-4c-0.256,0-0.512,0.098-0.707,0.293l-1.414,1.414c-0.391,0.391-0.391,1.024,0,1.414l0.243,0.243
				c1.26,1.26,0.368,3.414-1.414,3.414H27.5c-0.552,0-1,0.448-1,1v2c0,0.552,0.448,1,1,1h0.343c1.782,0,2.674,2.154,1.414,3.414
				l-0.243,0.243c-0.391,0.391-0.391,1.024,0,1.414l1.414,1.414c0.195,0.195,0.451,0.293,0.707,0.293h4
				c0.044,0,0.086-0.019,0.13-0.025c0.137,0.267,0.234,0.563,0.234,0.904V26.5c0,0.552,0.448,1,1,1h6c0.552,0,1-0.448,1-1v-0.343
				c0-0.341,0.097-0.637,0.234-0.904c0.044,0.006,0.086,0.025,0.13,0.025h4c0.256,0,0.512-0.098,0.707-0.293l1.414-1.414
				c0.391-0.391,0.391-1.024,0-1.414l-0.243-0.243c-1.26-1.26-0.368-3.414,1.414-3.414H51.5c0.552,0,1-0.448,1-1v-2
				C52.5,14.948,52.052,14.5,51.5,14.5z M36,16.5c0-2.331,1.453-4.319,3.5-5.119c2.047,0.801,3.5,2.788,3.5,5.119
				s-1.453,4.319-3.5,5.119C37.453,20.819,36,18.831,36,16.5z"/>
		</g>
		<g>
			<path class="st7" d="M47.5,14.5h-0.343c-1.782,0-2.674-2.154-1.414-3.414l0.243-0.243c0.391-0.391,0.391-1.024,0-1.414
				l-1.414-1.414c-0.391-0.391-1.024-0.391-1.414,0l-0.243,0.243c-1.26,1.26-3.414,0.368-3.414-1.414V6.5c0-0.552-0.448-1-1-1h-2
				c-0.552,0-1,0.448-1,1v0.343c0,1.782-2.154,2.674-3.414,1.414l-0.243-0.243c-0.391-0.391-1.024-0.391-1.414,0l-1.414,1.414
				c-0.391,0.391-0.391,1.024,0,1.414l0.243,0.243c1.26,1.26,0.368,3.414-1.414,3.414H27.5c-0.552,0-1,0.448-1,1v2
				c0,0.552,0.448,1,1,1h0.343c1.782,0,2.674,2.154,1.414,3.414l-0.243,0.243c-0.391,0.391-0.391,1.024,0,1.414l1.414,1.414
				c0.391,0.391,1.024,0.391,1.414,0l0.243-0.243c1.26-1.26,3.414-0.368,3.414,1.414V26.5c0,0.552,0.448,1,1,1h2
				c0.552,0,1-0.448,1-1v-0.343c0-1.782,2.154-2.674,3.414-1.414l0.243,0.243c0.391,0.391,1.024,0.391,1.414,0l1.414-1.414
				c0.391-0.391,0.391-1.024,0-1.414l-0.243-0.243c-1.26-1.26-0.368-3.414,1.414-3.414H47.5c0.552,0,1-0.448,1-1v-2
				C48.5,14.948,48.052,14.5,47.5,14.5z M37.5,22c-3.038,0-5.5-2.462-5.5-5.5c0-3.038,2.462-5.5,5.5-5.5s5.5,2.462,5.5,5.5
				C43,19.538,40.538,22,37.5,22z"/>
		</g>
	</g>
	<g>
		<g>
			<path class="st3" d="M29,25.938h-0.072c-1.54,0-2.502-1.667-1.732-3l0.036-0.062c0.276-0.478,0.112-1.09-0.366-1.366l-1.732-1
				c-0.158-0.091-0.329-0.13-0.499-0.13v-0.004h-2v0.004c-0.346,0-0.682,0.175-0.867,0.496l-0.036,0.062
				c-0.187,0.324-0.442,0.567-0.732,0.734c-0.29-0.167-0.545-0.41-0.732-0.734l-0.036-0.062c-0.185-0.321-0.521-0.496-0.867-0.496
				v-0.004h-2v0.004c-0.17,0-0.342,0.039-0.499,0.13l-1.732,1c-0.478,0.276-0.642,0.888-0.366,1.366l0.036,0.062
				c0.77,1.333-0.192,3-1.732,3H13c-0.552,0-1,0.448-1,1v2c0,0.552,0.448,1,1,1h0.072c1.54,0,2.502,1.667,1.732,3L14.768,33
				c-0.276,0.478-0.112,1.09,0.366,1.366l1.732,1c0.158,0.091,0.329,0.13,0.499,0.13V35.5h2v-0.004c0.346,0,0.682-0.175,0.867-0.496
				l0.036-0.062c0.187-0.324,0.442-0.567,0.732-0.733c0.29,0.167,0.545,0.41,0.732,0.733L21.768,35
				c0.185,0.321,0.521,0.496,0.867,0.496V35.5h2v-0.004c0.17,0,0.342-0.039,0.499-0.13l1.732-1c0.478-0.276,0.642-0.888,0.366-1.366
				l-0.036-0.062c-0.77-1.333,0.192-3,1.732-3H29c0.552,0,1-0.448,1-1v-2C30,26.385,29.552,25.938,29,25.938z M19,27.938
				c0-1.306,0.836-2.413,2-2.826c1.164,0.412,2,1.52,2,2.826s-0.836,2.413-2,2.826C19.836,30.351,19,29.243,19,27.938z"/>
		</g>
		<g>
			<path class="st4" d="M27,25.938h-0.072c-1.54,0-2.502-1.667-1.732-3l0.036-0.062c0.276-0.478,0.112-1.09-0.366-1.366l-1.732-1
				c-0.478-0.276-1.09-0.112-1.366,0.366l-0.036,0.062c-0.77,1.333-2.694,1.333-3.464,0l-0.036-0.062
				c-0.276-0.478-0.888-0.642-1.366-0.366l-1.732,1c-0.478,0.276-0.642,0.888-0.366,1.366l0.036,0.062c0.77,1.333-0.192,3-1.732,3
				H13c-0.552,0-1,0.448-1,1v2c0,0.552,0.448,1,1,1h0.072c1.54,0,2.502,1.667,1.732,3L14.768,33
				c-0.276,0.478-0.112,1.09,0.366,1.366l1.732,1c0.478,0.276,1.09,0.112,1.366-0.366l0.036-0.062c0.77-1.333,2.694-1.333,3.464,0
				L21.768,35c0.276,0.478,0.888,0.642,1.366,0.366l1.732-1c0.478-0.276,0.642-0.888,0.366-1.366l-0.036-0.062
				c-0.77-1.333,0.192-3,1.732-3H27c0.552,0,1-0.448,1-1v-2C28,26.385,27.552,25.938,27,25.938z M20,30.938c-1.657,0-3-1.343-3-3
				s1.343-3,3-3s3,1.343,3,3S21.657,30.938,20,30.938z"/>
		</g>
	</g>
	<g>
		<g>
			<circle class="st0" cx="20" cy="18" r="1"/>
		</g>
		<g>
			<path class="st1" d="M26,7c0-3.737-3.416-6.675-7.295-5.864c-2.286,0.478-4.125,2.34-4.582,4.631
				c-0.499,2.503,0.562,4.8,2.384,6.105C17.483,12.571,18,13.75,18,14.951V15h4v-0.184c0-1.214,0.638-2.299,1.607-3.029
				C25.06,10.694,26,8.958,26,7z"/>
		</g>
		<g>
			<path class="st6" d="M22,15h-4v2c0,0.552,0.448,1,1,1h2c0.552,0,1-0.448,1-1V15z"/>
		</g>
		<g>
			<path class="st2" d="M22,15h-2v3h1c0.552,0,1-0.448,1-1V15z"/>
		</g>
		<g>
			<rect x="18" y="16" class="st5" width="2" height="1"/>
		</g>
		<g>
			<rect x="20" y="16" class="st6" width="2" height="1"/>
		</g>
	</g>
	<g>
		<path class="st8" d="M51,31H15.5v32H32c0.828,0,1.5-0.672,1.5-1.5V57h15c2.209,0,4-1.791,4-4V32.5C52.5,31.672,51.828,31,51,31z"
			/>
	</g>
	<g>
		<path class="st9" d="M32,63H15.5v0c0-3.314,2.686-6,6-6h12v4.5C33.5,62.328,32.828,63,32,63z"/>
	</g>
	<g>
		<path class="st10" d="M13,31c-0.828,0-1.5,0.672-1.5,1.5V49v0c0,2.209,1.791,4,4,4h10c2.209,0,4-1.791,4-4v-8h3
			c0.828,0,1.5-0.672,1.5-1.5V31H13z"/>
	</g>
	<g>
		<path class="st9" d="M29.5,35c-3.314,0-6,2.686-6,6c0,3.314,2.686,6,6,6V35z"/>
	</g>
	<g>
		<circle class="st10" cx="39.5" cy="35" r="2"/>
	</g>
	<g>
		<circle class="st10" cx="48.5" cy="35" r="2"/>
	</g>
	<g>
		<path class="st9" d="M46,49L46,49c-1.381,0-2.5-1.119-2.5-2.5V37h0c2.761,0,5,2.239,5,5v4.5C48.5,47.881,47.381,49,46,49z"/>
	</g>
	<g>
		<path class="st10" d="M43.5,53h3c1.105,0,2-0.895,2-2v0h-7v0C41.5,52.105,42.395,53,43.5,53z"/>
	</g>
	<g>
		<path class="st7" d="M16.842,9h2.349c0.372,0,0.613,0.391,0.447,0.724L18,13l5.146-5.146C23.461,7.539,23.238,7,22.793,7h-1.931
			c-0.384,0-0.625-0.415-0.434-0.748l1.145-2.004c0.19-0.333-0.05-0.748-0.434-0.748h-1.842c-0.183,0-0.351,0.1-0.439,0.261
			l-2.455,4.5C16.222,8.594,16.463,9,16.842,9z"/>
	</g>
</g>
</svg>
