<?xml version="1.0" encoding="utf-8"?>
<!-- Generator: Adobe Illustrator 23.0.0, SVG Export Plug-In . SVG Version: 6.00 Build 0)  -->
<svg version="1.1" id="Layer_1" xmlns="http://www.w3.org/2000/svg" xmlns:xlink="http://www.w3.org/1999/xlink" x="0px" y="0px"
	 viewBox="0 0 64 64" style="enable-background:new 0 0 64 64;" xml:space="preserve">
<style type="text/css">
	.st0{fill:#353744;}
	.st1{fill:#F68820;}
	.st2{fill:#808080;}
	.st3{fill:#5C76B2;}
	.st4{fill:#6FA4D8;}
	.st5{fill:#DBDEE3;}
	.st6{fill:#B3B4B6;}
	.st7{fill:#FBBE18;}
	.st8{fill:#EEC78E;}
	.st9{fill:#DB9E68;}
	.st10{fill:#55525B;}
	.st11{fill:#FFFFFF;}
	.st12{fill:#1C1D28;}
	.st13{fill:#FBD301;}
	.st14{fill:#BE7850;}
	.st15{fill:#4C52A3;}
	.st16{fill:#BF6B1E;}
	.st17{fill:#5F7ABC;}
	.st18{fill:#D4761E;}
	.st19{fill:#5D76B2;}
	.st20{fill:#668DC5;}
</style>
<g>
	<g>
		<path class="st9" d="M32,47c-0.552,0-1-0.447-1-1V16c0-0.553,0.448-1,1-1s1,0.447,1,1v30C33,46.553,32.552,47,32,47z"/>
	</g>
	<g>
		<path class="st1" d="M33,0h-2c-4.971,0-9,4.029-9,9c0,4.97,4.029,9,9,9h2c4.971,0,9-4.029,9-9S37.971,0,33,0z"/>
		<g>
			<circle class="st7" cx="31" cy="9" r="9"/>
		</g>
		<path class="st1" d="M31,8c-0.827,0-1.5-0.673-1.5-1.5S30.173,5,31,5s1.5,0.673,1.5,1.5c0,0.553,0.448,1,1,1s1-0.447,1-1
			c0-1.58-1.059-2.903-2.5-3.337V2.5c0-0.553-0.448-1-1-1s-1,0.447-1,1v0.663C28.559,3.597,27.5,4.92,27.5,6.5
			c0,1.93,1.57,3.5,3.5,3.5c0.827,0,1.5,0.673,1.5,1.5S31.827,13,31,13s-1.5-0.673-1.5-1.5c0-0.553-0.448-1-1-1s-1,0.447-1,1
			c0,1.58,1.059,2.903,2.5,3.337V15.5c0,0.553,0.448,1,1,1s1-0.447,1-1v-0.663c1.441-0.433,2.5-1.757,2.5-3.337
			C34.5,9.57,32.93,8,31,8z"/>
	</g>
	<g>
		<path class="st10" d="M48.5,60h-33c-0.828,0-1.5-0.672-1.5-1.5V48h36v10.5C50,59.328,49.328,60,48.5,60z"/>
	</g>
	<g>
		<path class="st0" d="M14,48v4h16.6c0.773,0,1.4,0.627,1.4,1.4V60h16.5c0.828,0,1.5-0.672,1.5-1.5V48H14z"/>
	</g>
	<g>
		<path class="st0" d="M60.5,48h-57C2.672,48,2,47.328,2,46.5v-1C2,44.672,2.672,44,3.5,44h57c0.828,0,1.5,0.672,1.5,1.5v1
			C62,47.328,61.328,48,60.5,48z"/>
	</g>
	<g>
		<path class="st10" d="M30.5,48h-27C2.672,48,2,47.328,2,46.5v-1C2,44.672,2.672,44,3.5,44h27c0.828,0,1.5,0.672,1.5,1.5v1
			C32,47.328,31.328,48,30.5,48z"/>
	</g>
	<g>
		<path class="st1" d="M57,50c0.365,0,0.706,0.099,1,0.27V44h-2v6.27C56.294,50.099,56.635,50,57,50z"/>
	</g>
	<g>
		<path class="st1" d="M54.5,64h5c0.276,0,0.5-0.224,0.5-0.5V55l0,0c0-0.552-0.448-1-1-1h-4c-0.552,0-1,0.448-1,1v8.5
			C54,63.776,54.224,64,54.5,64z"/>
	</g>
	<g>
		<rect x="55" y="52" class="st6" width="4" height="2"/>
	</g>
	<g>
		<rect x="55" y="52" class="st5" width="2" height="2"/>
	</g>
	<g>
		<path class="st7" d="M59,52h-4v0c0-1.105,0.895-2,2-2h0C58.105,50,59,50.895,59,52L59,52z"/>
	</g>
	<g>
		<path class="st7" d="M58,44H31v0c0-1.105,0.895-2,2-2h23C57.105,42,58,42.895,58,44L58,44z"/>
	</g>
	<g>
		<path class="st7" d="M57,54h-2c-0.552,0-1,0.448-1,1v8.5c0,0.276,0.224,0.5,0.5,0.5H57V54z"/>
	</g>
	<g>
		<path class="st3" d="M46,18h-5c-4.418,0-8,3.582-8,8v2h7c4.418,0,8-3.582,8-8v0C48,18.895,47.105,18,46,18z"/>
	</g>
	<g>
		<path class="st3" d="M46,30h-5c-4.418,0-8,3.582-8,8v2h7c4.418,0,8-3.582,8-8v0C48,30.895,47.105,30,46,30z"/>
	</g>
	<g>
		<path class="st4" d="M18,18h5c4.418,0,8,3.582,8,8v2h-7c-4.418,0-8-3.582-8-8v0C16,18.895,16.895,18,18,18z"/>
	</g>
	<g>
		<path class="st4" d="M18,30h5c4.418,0,8,3.582,8,8v2h-7c-4.418,0-8-3.582-8-8v0C16,30.895,16.895,30,18,30z"/>
	</g>
	<g>
		<path class="st1" d="M55.5,57c-0.276,0-0.5,0.224-0.5,0.5V64h1v-6.5C56,57.224,55.776,57,55.5,57z"/>
	</g>
	<g>
		<path class="st7" d="M58.5,60.5c-0.276,0-0.5,0.224-0.5,0.5v3h1v-3C59,60.724,58.776,60.5,58.5,60.5z"/>
	</g>
</g>
</svg>
