<?xml version="1.0" encoding="utf-8"?>
<!-- Generator: Adobe Illustrator 23.0.0, SVG Export Plug-In . SVG Version: 6.00 Build 0)  -->
<svg version="1.1" id="Layer_1" xmlns="http://www.w3.org/2000/svg" xmlns:xlink="http://www.w3.org/1999/xlink" x="0px" y="0px"
	 viewBox="0 0 64 64" style="enable-background:new 0 0 64 64;" xml:space="preserve">
<style type="text/css">
	.st0{fill:#353744;}
	.st1{fill:#F68820;}
	.st2{fill:#808080;}
	.st3{fill:#5C76B2;}
	.st4{fill:#6FA4D8;}
	.st5{fill:#DBDEE3;}
	.st6{fill:#B3B4B6;}
	.st7{fill:#FBBE18;}
	.st8{fill:#EEC78E;}
	.st9{fill:#DB9E68;}
	.st10{fill:#55525B;}
	.st11{fill:#FFFFFF;}
	.st12{fill:#1C1D28;}
	.st13{fill:#FBD301;}
	.st14{fill:#BE7850;}
	.st15{fill:#4C52A3;}
	.st16{fill:#BF6B1E;}
	.st17{fill:#5F7ABC;}
	.st18{fill:#D4761E;}
	.st19{fill:#5D76B2;}
	.st20{fill:#668DC5;}
</style>
<g>
	<g>
		<g>
			<path class="st1" d="M46,10.5H26c-2.209,0-4,1.791-4,4V32h28V14.5C50,12.291,48.209,10.5,46,10.5z"/>
		</g>
		<g>
			<path class="st7" d="M44,10.5H26c-2.209,0-4,1.791-4,4V32h26V14.5C48,12.291,46.209,10.5,44,10.5z"/>
		</g>
		<g>
			<path class="st5" d="M42,12.5h-0.555c0.344,0.59,0.555,1.268,0.555,2V32h4V16.5C46,14.291,44.209,12.5,42,12.5z"/>
		</g>
		<g>
			<path class="st1" d="M38,10.5H26c-2.209,0-4,1.791-4,4V32h20V14.5C42,12.291,40.209,10.5,38,10.5z"/>
		</g>
		<g>
			<path class="st7" d="M40,32V14.5c0-2.209-1.791-4-4-4H26c-2.209,0-4,1.791-4,4V32H40z"/>
		</g>
		<g>
			<path class="st1" d="M34,24.5h-6c-1.105,0-2-0.895-2-2v-6c0-1.105,0.895-2,2-2h6c1.105,0,2,0.895,2,2v6
				C36,23.605,35.105,24.5,34,24.5z"/>
		</g>
	</g>
	<g>
		<g>
			<path class="st4" d="M32,32V1.5C32,0.672,31.328,0,30.5,0h-9C20.672,0,20,0.672,20,1.5V32H32z"/>
		</g>
		<g>
			<path class="st3" d="M32,32V1.5C32,0.672,31.328,0,30.5,0H26v32H32z"/>
		</g>
		<g>
			<path class="st15" d="M29.25,7H32V4.5h-2.75C28.56,4.5,28,5.06,28,5.75v0C28,6.44,28.56,7,29.25,7z"/>
		</g>
		<g>
			<path class="st15" d="M29.25,13H32v-2.5h-2.75c-0.69,0-1.25,0.56-1.25,1.25v0C28,12.44,28.56,13,29.25,13z"/>
		</g>
		<g>
			<path class="st15" d="M29.25,19.5H32V17h-2.75C28.56,17,28,17.56,28,18.25v0C28,18.94,28.56,19.5,29.25,19.5z"/>
		</g>
		<g>
			<path class="st15" d="M29.25,26H32v-2.5h-2.75c-0.69,0-1.25,0.56-1.25,1.25v0C28,25.44,28.56,26,29.25,26z"/>
		</g>
		<g>
			<path class="st15" d="M29.25,32H32v-2.5h-2.75c-0.69,0-1.25,0.56-1.25,1.25v0C28,31.44,28.56,32,29.25,32z"/>
		</g>
	</g>
	<g>
		<g>
			<rect x="14" y="16" transform="matrix(-1 -1.224647e-16 1.224647e-16 -1 32 48)" class="st1" width="4" height="16"/>
		</g>
		<g>
			<rect x="22" y="16" transform="matrix(-1 -1.224647e-16 1.224647e-16 -1 48 48)" class="st13" width="4" height="16"/>
		</g>
		<g>
			<rect x="18" y="16" class="st7" width="4" height="16"/>
		</g>
		<g>
			<path class="st9" d="M26,16L20.447,4.894c-0.184-0.369-0.71-0.369-0.894,0L14,16H26z"/>
		</g>
		<g>
			<path class="st8" d="M26,16L20.447,4.894C20.355,4.71,20.178,4.618,20,4.618V16H26z"/>
		</g>
		<g>
			<path class="st0" d="M21,6l-0.553-1.106c-0.184-0.369-0.71-0.369-0.894,0L19,6H21z"/>
		</g>
	</g>
	<g>
		<path class="st8" d="M51,32H15.5v32H32c0.828,0,1.5-0.672,1.5-1.5V58h15c2.209,0,4-1.791,4-4V33.5C52.5,32.672,51.828,32,51,32z"
			/>
	</g>
	<g>
		<path class="st9" d="M32,64H15.5v0c0-3.314,2.686-6,6-6h12v4.5C33.5,63.328,32.828,64,32,64z"/>
	</g>
	<g>
		<path class="st10" d="M13,32c-0.828,0-1.5,0.672-1.5,1.5V50v0c0,2.209,1.791,4,4,4h10c2.209,0,4-1.791,4-4v-8h3
			c0.828,0,1.5-0.672,1.5-1.5V32H13z"/>
	</g>
	<g>
		<path class="st9" d="M29.5,36c-3.314,0-6,2.686-6,6c0,3.314,2.686,6,6,6V36z"/>
	</g>
	<g>
		<circle class="st10" cx="39.5" cy="36" r="2"/>
	</g>
	<g>
		<circle class="st10" cx="48.5" cy="36" r="2"/>
	</g>
	<g>
		<path class="st9" d="M46,50L46,50c-1.381,0-2.5-1.119-2.5-2.5V38h0c2.761,0,5,2.239,5,5v4.5C48.5,48.881,47.381,50,46,50z"/>
	</g>
	<g>
		<path class="st10" d="M43.5,54h3c1.105,0,2-0.895,2-2v0h-7v0C41.5,53.105,42.395,54,43.5,54z"/>
	</g>
</g>
</svg>
