<svg id="Layer_1" data-name="Layer 1" xmlns="http://www.w3.org/2000/svg" viewBox="0 0 128 128"><title>DRINK</title><rect x="53.58" y="12.58" width="20.84" height="7.87" style="fill:#475a61"/><path d="M82.667,60.786V39.827a10.14,10.14,0,0,0-5.052-8.771h0a10.14,10.14,0,0,1-5.052-8.771V20.453H55.437v1.832a10.14,10.14,0,0,1-5.052,8.771h0a10.14,10.14,0,0,0-5.052,8.771V60.786a5.721,5.721,0,0,0,5.721,5.721h-.3a5.424,5.424,0,0,0-5.424,5.424V111.14a4.28,4.28,0,0,0,4.28,4.28H78.386a4.28,4.28,0,0,0,4.28-4.28V71.931a5.424,5.424,0,0,0-5.424-5.424h-.3A5.721,5.721,0,0,0,82.667,60.786Z" style="fill:#cddefe"/><rect x="45.333" y="41.865" width="37.333" height="15.793" style="fill:#1997fc"/><rect x="57" y="12.58" width="3.5" height="7.87" style="fill:#5a6c75"/><rect x="62.25" y="12.58" width="3.5" height="7.87" style="fill:#5a6c75"/><rect x="67.5" y="12.58" width="3.5" height="7.87" style="fill:#5a6c75"/><path d="M50.385,31.056h0a10.14,10.14,0,0,0-5.052,8.771V60.786a5.721,5.721,0,0,0,5.721,5.721h-.3a5.424,5.424,0,0,0-5.424,5.424v32.741c15.824-.207,18.307-15.222,22.167-16.678,4.116-1.553,8-9.744,0-16.494S53,52.25,60.5,38.1s-5.063-17.649-5.063-17.649v1.832A10.14,10.14,0,0,1,50.385,31.056Z" style="fill:#daf2fe"/><path d="M58.815,41.865H45.333V57.658h12.88A24.586,24.586,0,0,1,58.815,41.865Z" style="fill:#7be2f6"/><path d="M61.5,91.253c-6.813-2.932-12.155-3.643-16.167-3.4V111.14a4.28,4.28,0,0,0,4.28,4.28H78.386a4.28,4.28,0,0,0,4.28-4.28V85.278S79.5,99,61.5,91.253Z" style="fill:#1997fc"/><path d="M69,87.125C64.417,90,61.208,90.208,56.793,89.492h-.006a49.8,49.8,0,0,1,4.714,1.76c18,7.747,21.167-5.975,21.167-5.975A15.642,15.642,0,0,0,69,87.125Z" style="fill:#7be2f6"/><path d="M82.667,100.708a1.75,1.75,0,0,0-1.75,1.75V103a1.75,1.75,0,0,0,3.5,0v-.542A1.75,1.75,0,0,0,82.667,100.708Z" style="fill:#630000"/><path d="M57.417,40.115H56.5a1.75,1.75,0,0,0,0,3.5h.917a1.75,1.75,0,0,0,0-3.5Z" style="fill:#630000"/><path d="M84.417,85.272V71.931a7.16,7.16,0,0,0-2.578-5.5,7.458,7.458,0,0,0,2.578-5.641V39.827a11.925,11.925,0,0,0-5.925-10.285,8.416,8.416,0,0,1-4.18-7.257V22.2h.1a1.75,1.75,0,0,0,1.75-1.75V12.58a1.75,1.75,0,0,0-1.75-1.75H53.583a1.75,1.75,0,0,0-1.75,1.75v7.873a1.75,1.75,0,0,0,1.75,1.75h.1v.082a8.415,8.415,0,0,1-4.18,7.257,11.927,11.927,0,0,0-5.924,10.285V60.786a7.455,7.455,0,0,0,2.578,5.641,7.162,7.162,0,0,0-2.578,5.5V111.14a6.037,6.037,0,0,0,6.03,6.03H78.387a6.037,6.037,0,0,0,6.03-6.03V109.25a1.75,1.75,0,0,0-3.5,0v1.891a2.533,2.533,0,0,1-2.53,2.53H49.614a2.533,2.533,0,0,1-2.53-2.53V89.566A36.139,36.139,0,0,1,60.808,92.86a27.114,27.114,0,0,0,10.555,2.518,13.965,13.965,0,0,0,6.4-1.44,12.252,12.252,0,0,0,3.156-2.3v5.153a1.75,1.75,0,1,0,3.5,0V85.272ZM65.75,18.7V14.33H67.5V18.7Zm-5.25,0V14.33h1.75V18.7Zm12.167,0H71V14.33h1.667ZM55.333,14.33H57V18.7H55.333Zm-8.25,71.735V71.931a3.679,3.679,0,0,1,3.674-3.674h.3a1.75,1.75,0,0,0,0-3.5,3.975,3.975,0,0,1-3.971-3.971V59.408H76.125a1.75,1.75,0,0,0,0-3.5H47.083V43.615h3.542a1.75,1.75,0,0,0,0-3.5H47.083v-.288a8.415,8.415,0,0,1,4.18-7.257,11.925,11.925,0,0,0,5.924-10.285V22.2H70.812v.082a11.926,11.926,0,0,0,5.924,10.285,8.414,8.414,0,0,1,4.181,7.257v.288h-17a1.75,1.75,0,0,0,0,3.5h17V60.786a3.975,3.975,0,0,1-3.971,3.971,1.75,1.75,0,0,0,0,3.5h.3a3.679,3.679,0,0,1,3.675,3.674V83A17.873,17.873,0,0,0,68.07,85.643c-4.166,2.612-6.962,2.772-10.946,2.13A35.054,35.054,0,0,0,47.083,86.065Zm29.1,4.751c-2.788,1.412-6.429,1.394-10.823,0a20.852,20.852,0,0,0,4.573-2.208,14.429,14.429,0,0,1,10.435-2.159A9.442,9.442,0,0,1,76.18,90.815Z" style="fill:#630000"/></svg>