<?xml version="1.0" encoding="utf-8"?>
<!-- Generator: Adobe Illustrator 21.0.0, SVG Export Plug-In . SVG Version: 6.00 Build 0)  -->
<svg version="1.1" id="Layer_1" xmlns="http://www.w3.org/2000/svg" xmlns:xlink="http://www.w3.org/1999/xlink" x="0px" y="0px"
	 viewBox="0 0 128 128" style="enable-background:new 0 0 128 128;" xml:space="preserve">
<style type="text/css">
	.st0{fill:#1997FC;}
	.st1{fill:#FBBE2C;}
	.st2{fill:#FC3E81;}
	.st3{fill:#475A61;}
	.st4{fill:#B95D4F;}
	.st5{fill:#A24F41;}
	.st6{fill:#DAF2FE;}
	.st7{fill:#CDDEFE;}
	.st8{fill:#1FCA74;}
	.st9{fill:#0048D5;}
	.st10{fill:#FD9025;}
	.st11{fill:#E0176D;}
	.st12{fill:#1AB250;}
	.st13{fill:#FECEC0;}
	.st14{fill:#FEBFAD;}
	.st15{fill:#630000;}
</style>
<title>INFORMATION BOOTH</title>
<polygon class="st0" points="64,12.6 19,34.8 109,34.8 "/>
<rect x="12.6" y="34.8" class="st1" width="102.8" height="7.8"/>
<rect x="12.6" y="73.3" class="st2" width="102.8" height="35.5"/>
<rect x="20.5" y="108.8" class="st3" width="5" height="6.6"/>
<rect x="102.5" y="108.8" class="st3" width="5" height="6.6"/>
<rect x="19" y="42.7" class="st4" width="5" height="30.6"/>
<rect x="104" y="42.7" class="st5" width="5" height="30.6"/>
<polygon class="st6" points="89.5,66.7 68.3,66.7 65.5,73.3 86.7,73.3 "/>
<polygon class="st7" points="86.7,73.3 93.7,73.3 89.5,66.7 "/>
<path class="st8" d="M47.4,60.2c-7.3,0-13.1,5.8-13.2,13.1h26.3C60.6,66,54.7,60.1,47.4,60.2z"/>
<rect x="12.6" y="82.3" class="st1" width="102.8" height="5.8"/>
<path class="st9" d="M60.6,30.3c-1,1.4-1.9,2.9-2.6,4.5h51L64,12.6C64,12.6,69.9,17,60.6,30.3z"/>
<path class="st10" d="M115.4,34.8H58c-1.2,2.4-1.8,5.1-1.8,7.8h59.2L115.4,34.8z"/>
<path class="st11" d="M115.4,73.3H73c2,10.9-1.2,24.5-20.7,35.5h63.1L115.4,73.3z"/>
<path class="st10" d="M115.4,88v-5.8H73.3c-0.2,2-0.7,3.9-1.3,5.8H115.4z"/>
<path class="st12" d="M47.4,60.2c-0.8,0-1.5,0.1-2.3,0.2c-2.7,7.2,0.5,12.3,5.4,12.9h10C60.6,66,54.7,60.2,47.4,60.2
	C47.4,60.2,47.4,60.2,47.4,60.2z"/>
<circle class="st13" cx="47.4" cy="56.6" r="7.4"/>
<path class="st14" d="M46,58.5c-0.8,1.5-1.3,3.1-1.6,4.8c3.7,1.7,8.1,0.1,9.8-3.7c1.7-3.7,0.1-8.1-3.7-9.8c-1-0.4-2-0.7-3.1-0.7
	C47.4,49.2,50.1,50.4,46,58.5z"/>
<path class="st15" d="M38.4,27c0.3,0,0.5-0.1,0.8-0.2l0.8-0.4c0.9-0.5,1.2-1.5,0.7-2.4c-0.4-0.8-1.4-1.2-2.3-0.8l-0.8,0.4
	c-0.9,0.4-1.2,1.5-0.8,2.3C37.1,26.6,37.7,27,38.4,27L38.4,27z"/>
<path class="st15" d="M97.7,84c1,0,1.8-0.8,1.8-1.8s-0.8-1.8-1.8-1.8h-0.7c-1,0-1.8,0.8-1.8,1.8S96,84,96.9,84H97.7z"/>
<g>
	<path class="st15" d="M113.8,86.4c0-0.8,0-1.5,0-2.2c-0.2,0-0.5,0-0.7,0c-2.9,0-5.8,0-8.8,0c-1.4,0-2.3-1.2-1.8-2.4
		c0.3-0.8,1-1.1,1.8-1.1c2.9,0,5.8,0,8.8,0c0.2,0,0.4,0,0.7,0c0-1.8,0-3.6,0-5.4c-33.1,0-66.1,0-99.3,0c0,1.8,0,3.6,0,5.4
		c0.3,0,0.5,0,0.8,0c25.1,0,50.2,0,75.2,0c1.2,0,1.9,0.5,2,1.5c0.1,1-0.5,1.9-1.6,2c-0.3,0-0.5,0-0.8,0c-24.9,0-49.9,0-74.8,0
		c-0.3,0-0.6,0-0.9,0c0,7.7,0,15.3,0,23c0.2,0,0.5,0,0.7,0c3.4,0,6.7,0,10.1,0c1.4,0,2.1,0.7,2.1,2c0,2.1,0,4.1,0,6.2
		c0,1.2-0.7,1.9-1.9,1.9c-1.5,0-3.1,0-4.6,0c-1.3,0-1.9-0.7-1.9-2c0-1.5,0-3,0-4.6c-0.3,0-0.5,0-0.7,0c-1.7,0-3.4,0-5.1,0
		c-1.5,0-2.1-0.7-2.1-2.1c0-11.6,0-23.2,0-34.9c0-1.4,0.7-2.1,2.1-2.1c1.4,0,2.8,0,4.2,0c0-9,0-18,0-27.1c-0.2,0-0.4,0-0.6,0
		c-1.3,0-2.6,0-3.9,0c-1,0-1.8-0.6-1.8-1.7c0-2.7,0-5.3,0-8c0-1,0.8-1.7,1.8-1.7c1.8,0,3.5,0,5.3,0c0.4,0,0.8-0.1,1.1-0.3
		c4.3-2.1,8.5-4.2,12.7-6.3c1.1-0.5,2.1-0.2,2.6,0.7c0.5,0.9,0.1,2-1,2.5c-2.1,1-4.2,2.1-6.3,3.1C27.1,33,27,33,26.7,33.2
		c25,0,49.8,0,74.8,0c-0.7-0.3-1.2-0.6-1.8-0.9c-8-4-16.1-7.9-24.1-11.9c-3.7-1.8-7.3-3.6-11-5.4c-0.4-0.2-0.7-0.2-1.1,0
		c-6,3-12,5.9-18,8.9c-1.1,0.5-2.1,0.2-2.5-0.7c-0.5-1-0.1-1.9,1-2.5c6.4-3.1,12.7-6.3,19.1-9.4c0.7-0.4,1.4-0.3,2.1,0
		c9.2,4.5,18.4,9.1,27.5,13.6c5.5,2.7,11,5.4,16.5,8.1c0.3,0.1,0.6,0.2,0.9,0.2c1.7,0,3.5,0,5.2,0c1.3,0,2,0.7,2,2
		c0,2.5,0,4.9,0,7.4c0,1.3-0.6,2-2,2c-1.4,0-2.8,0-4.4,0c0,0.3,0,0.5,0,0.8c0,6.9,0,13.8,0,20.6c0,0.4,0,0.7-0.1,1.1
		c-0.2,0.8-1,1.3-1.8,1.2c-0.9-0.1-1.5-0.7-1.6-1.6c0-0.2,0-0.4,0-0.6c0-6.9,0-13.8,0-20.7c0-0.2,0-0.5,0-0.8c-0.5,0-1,0-1.5,0
		c0,9,0,18,0,27.1c0.3,0,0.5,0,0.7,0c2.9,0,5.8,0,8.7,0c1.3,0,2,0.7,2,2c0,11.7,0,23.4,0,35c0,1.3-0.7,2-2,2c-1.9,0-3.8,0-5.8,0
		c0,0.2,0,0.5,0,0.7c0,1.3,0,2.7,0,4c0,1.2-0.7,1.9-1.9,1.9c-1.6,0-3.2,0-4.7,0c-1.2,0-1.9-0.7-1.9-1.9c0-1.5,0-3.1,0-4.7
		c-0.3,0-0.6,0-0.9,0c-22,0-44,0-66,0c-0.3,0-0.6,0-0.9-0.1c-0.9-0.2-1.5-0.9-1.5-1.8c0-0.9,0.7-1.6,1.7-1.7c0.2,0,0.4,0,0.6,0
		c26.3,0,52.6,0,78.9,0c0.3,0,0.6,0,0.9,0c0-5.8,0-11.5,0-17.3c-0.3,0-0.5,0-0.8,0c-31.2,0-62.4,0-93.6,0c-1.1,0-1.7-0.4-1.9-1.3
		c-0.3-1.1,0.5-2.1,1.6-2.2c0.2,0,0.4,0,0.6,0c31.1,0,62.2,0,93.4,0C113.2,86.4,113.4,86.4,113.8,86.4z M62.5,71.6c0.5,0,1,0,1.5,0
		c0.4,0,0.6-0.1,0.7-0.5c0.7-1.6,1.4-3.1,2-4.7c0.4-0.9,1-1.4,2-1.4c6.9,0,13.8,0,20.6,0c0.9,0,1.5,0.4,2,1.1c1,1.7,2.1,3.3,3.2,5
		c0.2,0.3,0.4,0.4,0.8,0.4c2.1,0,4.3,0,6.4,0c0.2,0,0.4,0,0.6,0c0-9,0-18,0-27c-27.2,0-54.3,0-81.4,0c0,9,0,18,0,27
		c0.5,0,0.9,0,1.4,0c0-0.3,0-0.5,0-0.7c0-7,0-14,0-21.1c0-0.2,0-0.4,0-0.7c0.2-1.2,1.3-1.9,2.4-1.5c0.7,0.3,1.1,0.9,1.1,1.9
		c0,7.1,0,14.2,0,21.3c0,0.2,0,0.5,0,0.7c2.3,0,4.6,0,6.8,0c0.3-2.2,1-4.2,2.2-6.1c1.2-1.9,2.7-3.4,4.5-4.6
		c-0.1-0.3-0.2-0.5-0.3-0.7c-2.4-5.9,1.8-12.4,8.1-12.7c6.8-0.3,11.5,6.7,8.8,12.9c-0.2,0.4-0.2,0.6,0.2,0.9
		c2.6,1.8,4.4,4.2,5.4,7.2C62,69.5,62.2,70.5,62.5,71.6z M113.8,36.8c-33.1,0-66.2,0-99.3,0c0,1.4,0,2.8,0,4.2c33.1,0,66.2,0,99.3,0
		C113.8,39.6,113.8,38.2,113.8,36.8z M36.3,71.6c7.6,0,15,0,22.5,0c-0.7-3.4-2.4-6-5.3-7.9c-0.1,0.1-0.2,0.1-0.2,0.2
		c-3.5,2.6-7.7,2.7-11.3,0.1c-0.3-0.2-0.5-0.2-0.8,0c-2.2,1.5-3.7,3.5-4.5,6C36.5,70.5,36.4,71,36.3,71.6z M47.6,51.1
		c-3.1,0-5.7,2.5-5.7,5.6c0,3.1,2.6,5.7,5.7,5.7c3.1,0,5.7-2.6,5.6-5.7C53.2,53.6,50.7,51.1,47.6,51.1z M68.3,71.6
		c0.3,0,0.5,0,0.8,0c1.8,0,3.6,0,5.4,0c3.6,0,7.1,0,10.7,0c0.2,0,0.5,0,0.6-0.2c0.4-0.9,0.8-1.9,1.3-2.9c-2.7,0-5.3,0-7.9,0
		c-3,0-6,0-8.9,0c-0.2,0-0.5,0-0.6,0.2C69.1,69.7,68.8,70.6,68.3,71.6z M22.4,113.7c0.5,0,1,0,1.4,0c0-1,0-2,0-3c-0.5,0-1,0-1.4,0
		C22.4,111.8,22.4,112.7,22.4,113.7z M105.8,110.7c-0.5,0-1,0-1.4,0c0,1,0,2,0,3c0.5,0,0.9,0,1.4,0
		C105.8,112.7,105.8,111.7,105.8,110.7z M90,70.6c-0.2,0.4-0.3,0.7-0.4,1c0.4,0,0.7,0,1,0C90.4,71.2,90.2,71,90,70.6z"/>
</g>
</svg>
