<svg id="Layer_1" data-name="Layer 1" xmlns="http://www.w3.org/2000/svg" viewBox="0 0 128 128"><title>MAP</title><polygon points="115.421 109.46 81.14 96.46 81.14 30.46 115.421 43.46 115.421 109.46" style="fill:#1fca74"/><polygon points="46.86 109.46 81.14 96.46 81.14 30.46 46.86 43.46 46.86 109.46" style="fill:#fbbe2c"/><path d="M68,70.982c6.031,1.337,10.26,3.281,13.14,5.512V30.46l-34.28,13v6.5C47.729,56.9,51.808,67.393,68,70.982Z" style="fill:#fd9025"/><path d="M81.14,76.495c9.052,7.014,4.658,16.9,0,19.965l34.28,13v-66l-34.28-13Z" style="fill:#1ab250"/><polygon points="46.86 109.46 12.579 96.46 12.579 30.46 46.86 43.46 46.86 109.46" style="fill:#1fca74"/><path d="M47.79,84.555a1.75,1.75,0,0,1-.621-3.387l6.545-2.482a1.75,1.75,0,0,1,1.241,3.273L48.41,84.441A1.751,1.751,0,0,1,47.79,84.555Zm-6.546-1.776a1.751,1.751,0,0,1-.62-.113l-6.545-2.482a1.75,1.75,0,0,1,1.241-3.273l6.545,2.482a1.75,1.75,0,0,1-.621,3.387ZM106.7,81.6a1.751,1.751,0,0,1-.62-.113L99.53,79a1.75,1.75,0,0,1,1.241-3.273l6.545,2.482A1.75,1.75,0,0,1,106.7,81.6ZM60.88,79.591a1.75,1.75,0,0,1-.621-3.387L66.8,73.722A1.75,1.75,0,0,1,68.046,77L61.5,79.478A1.751,1.751,0,0,1,60.88,79.591ZM28.154,77.814a1.751,1.751,0,0,1-.62-.113l-6.545-2.482a1.75,1.75,0,0,1,1.241-3.273l6.545,2.482a1.75,1.75,0,0,1-.621,3.387Zm65.452-1.18a1.751,1.751,0,0,1-.62-.113L86.44,74.039a1.75,1.75,0,0,1,1.241-3.273l6.545,2.482a1.75,1.75,0,0,1-.621,3.387ZM73.971,74.626a1.75,1.75,0,0,1-.621-3.387L79.9,68.758a1.75,1.75,0,0,1,1.241,3.273L74.59,74.513A1.749,1.749,0,0,1,73.971,74.626Z" style="fill:#daf2fe"/><polygon points="38.5 62.25 21.609 55.729 21.609 45.813 38.5 52.333 38.5 62.25" style="fill:#daf2fe"/><path d="M101.333,38.733c0,16.768-20.193,31.425-20.193,31.425S60.947,54.545,60.947,38.733a20.193,20.193,0,1,1,40.386,0Z" style="fill:#fc3e81"/><circle cx="81.14" cy="38.733" r="9.792" style="fill:#daf2fe"/><path d="M101.333,38.733A20.193,20.193,0,0,0,81.14,18.54s9.792,5.926,9.792,20.193S81.14,55.649,81.14,70.158C81.14,70.158,101.333,55.5,101.333,38.733Z" style="fill:#e0176d"/><path d="M25.868,99.629l-1.032-.392a1.75,1.75,0,1,0-1.241,3.271l1.032.392a1.731,1.731,0,0,0,.62.114,1.75,1.75,0,0,0,.621-3.386Z" style="fill:#630000"/><path d="M18.708,96.912l-4.378-1.66V33L45.11,44.668v57.205a1.75,1.75,0,0,0,3.5,0V84.366l6.346-2.407a1.75,1.75,0,0,0-1.241-3.273l-5.1,1.936V44.668l10.682-4.051C60.425,53.229,72.5,65.033,77.716,69.584L73.35,71.239a1.75,1.75,0,0,0,1.241,3.273l6.546-2.481a1.753,1.753,0,0,0,.341-.177,1.72,1.72,0,0,0,.691-.281c.854-.619,20.916-15.381,20.916-32.841A21.955,21.955,0,0,0,72.861,18.406a1.75,1.75,0,0,0,1.322,3.24,18.455,18.455,0,0,1,25.4,17.086c0,13.521-14.352,25.945-18.414,29.189C77.125,64.525,62.7,51.508,62.7,38.732a18.454,18.454,0,0,1,2.309-8.942,1.75,1.75,0,0,0-3.06-1.7,21.931,21.931,0,0,0-2.66,8.785L46.86,41.588,13.2,28.823A1.75,1.75,0,0,0,10.83,30.46v66A1.75,1.75,0,0,0,11.959,98.1l5.508,2.089a1.75,1.75,0,0,0,1.241-3.273Z" style="fill:#630000"/><path d="M116.041,41.823,109.1,39.19a1.75,1.75,0,0,0-1.241,3.273l5.814,2.2v62.257L82.89,95.252V78.75a1.75,1.75,0,0,0-3.5,0v16.5L46.86,107.588l-15.427-5.85a1.75,1.75,0,0,0-1.241,3.273L46.239,111.1a1.663,1.663,0,0,0,1.224-.007s.013.009.017.007L81.14,98.332,114.8,111.1a1.75,1.75,0,0,0,2.371-1.637v-66A1.75,1.75,0,0,0,116.041,41.823Z" style="fill:#630000"/><path d="M67.351,25.731a1.744,1.744,0,0,0,1.193-.471q.3-.283.619-.554a1.75,1.75,0,1,0-2.28-2.654q-.371.318-.726.649a1.75,1.75,0,0,0,1.194,3.029Z" style="fill:#630000"/><path d="M89.361,44.336a1.753,1.753,0,0,0,2.313-.88,11.537,11.537,0,1,0-5.635,5.729,1.75,1.75,0,1,0-1.486-3.168,8.034,8.034,0,1,1,3.928-4A1.75,1.75,0,0,0,89.361,44.336Z" style="fill:#630000"/><path d="M29.791,76.685a1.75,1.75,0,0,0-1.016-2.257l-6.545-2.482a1.75,1.75,0,0,0-1.241,3.273L27.534,77.7a1.751,1.751,0,0,0,2.257-1.017Z" style="fill:#630000"/><path d="M35.32,76.909a1.75,1.75,0,0,0-1.241,3.273l6.545,2.482a1.75,1.75,0,0,0,1.241-3.273Z" style="fill:#630000"/><path d="M87.681,70.766a1.75,1.75,0,0,0-1.241,3.273l6.545,2.482a1.75,1.75,0,0,0,1.241-3.273Z" style="fill:#630000"/><path d="M98.515,76.746A1.75,1.75,0,0,0,99.53,79l6.545,2.482a1.75,1.75,0,0,0,1.241-3.273l-6.545-2.482A1.749,1.749,0,0,0,98.515,76.746Z" style="fill:#630000"/><path d="M66.8,73.722,60.259,76.2A1.75,1.75,0,0,0,61.5,79.478L68.046,77A1.75,1.75,0,0,0,66.8,73.722Z" style="fill:#630000"/><path d="M20.979,57.362,37.87,63.883a1.75,1.75,0,0,0,2.38-1.633V52.333A1.75,1.75,0,0,0,39.13,50.7L22.239,44.18a1.75,1.75,0,0,0-2.38,1.633v9.917A1.75,1.75,0,0,0,20.979,57.362Zm2.38-9L36.75,53.533V59.7L23.359,54.529Z" style="fill:#630000"/></svg>