<svg id="Layer_1" data-name="Layer 1" xmlns="http://www.w3.org/2000/svg" viewBox="0 0 128 128"><title>MUSHROOM SHOWER</title><polygon points="73.167 108.625 54.833 108.625 56.833 51.542 71.167 51.542 73.167 108.625" style="fill:#daf2fe"/><path d="M71.167,51.542H56.833l-.192,5.483h0C58.327,69.96,67.1,73.649,71.978,74.7Z" style="fill:#cddefe"/><path d="M104.418,53.873c0,22.322-18.1,2.478-40.418,2.478S23.582,76.2,23.582,53.873a40.418,40.418,0,1,1,80.837,0Z" style="fill:#fc3e81"/><path d="M73.174,14.513A19.391,19.391,0,0,1,76.5,27.118c-1.379,11.848-22.217,11.806-19.864,29.9A42.96,42.96,0,0,1,64,56.351c22.322,0,40.418,19.845,40.418-2.478A40.425,40.425,0,0,0,73.174,14.513Z" style="fill:#e0176d"/><path d="M47.389,69.331a1.75,1.75,0,0,0-1.75,1.75v5.167a1.75,1.75,0,0,0,3.5,0V71.081A1.75,1.75,0,0,0,47.389,69.331Z" style="fill:#7be2f6"/><path d="M36.405,69.331a1.75,1.75,0,0,0-1.75,1.75v5.167a1.75,1.75,0,0,0,3.5,0V71.081A1.75,1.75,0,0,0,36.405,69.331Z" style="fill:#7be2f6"/><path d="M25.421,69.331a1.75,1.75,0,0,0-1.75,1.75v5.167a1.75,1.75,0,0,0,3.5,0V71.081A1.75,1.75,0,0,0,25.421,69.331Z" style="fill:#7be2f6"/><path d="M41.9,80.979a1.75,1.75,0,0,0-1.75,1.75v5.166a1.75,1.75,0,0,0,3.5,0V82.729A1.75,1.75,0,0,0,41.9,80.979Z" style="fill:#7be2f6"/><path d="M30.914,80.979a1.75,1.75,0,0,0-1.75,1.75v5.166a1.75,1.75,0,0,0,3.5,0V82.729A1.75,1.75,0,0,0,30.914,80.979Z" style="fill:#7be2f6"/><path d="M102.579,69.331a1.75,1.75,0,0,0-1.75,1.75v5.167a1.75,1.75,0,0,0,3.5,0V71.081A1.75,1.75,0,0,0,102.579,69.331Z" style="fill:#7be2f6"/><path d="M91.595,69.331a1.75,1.75,0,0,0-1.75,1.75v5.167a1.75,1.75,0,0,0,3.5,0V71.081A1.75,1.75,0,0,0,91.595,69.331Z" style="fill:#7be2f6"/><path d="M80.611,69.331a1.75,1.75,0,0,0-1.75,1.75v5.167a1.75,1.75,0,0,0,3.5,0V71.081A1.75,1.75,0,0,0,80.611,69.331Z" style="fill:#7be2f6"/><path d="M97.086,80.979a1.75,1.75,0,0,0-1.75,1.75v5.166a1.75,1.75,0,0,0,3.5,0V82.729A1.75,1.75,0,0,0,97.086,80.979Z" style="fill:#7be2f6"/><path d="M86.1,80.979a1.75,1.75,0,0,0-1.75,1.75v5.166a1.75,1.75,0,0,0,3.5,0V82.729A1.75,1.75,0,0,0,86.1,80.979Z" style="fill:#7be2f6"/><circle cx="71.252" cy="27.118" r="5.252" style="fill:#daf2fe"/><circle cx="36.667" cy="51.542" r="4" style="fill:#daf2fe"/><path d="M92.452,25.17a5.973,5.973,0,1,0,7.119,9.5A40.551,40.551,0,0,0,92.452,25.17Z" style="fill:#cddefe"/><path d="M89.5,55.875a10.333,10.333,0,1,0-20.667,0c0,.263.02.52.039.778,6.941.833,13.341,3.236,18.741,5.163A10.276,10.276,0,0,0,89.5,55.875Z" style="fill:#cddefe"/><path d="M12.579,95.385a9.688,9.688,0,0,0,18.04,4.916,9.676,9.676,0,0,0,16.69,0,9.676,9.676,0,0,0,16.69,0,9.676,9.676,0,0,0,16.69,0,9.676,9.676,0,0,0,16.69,0,9.688,9.688,0,0,0,18.04-4.916V116.3H12.579Z" style="fill:#1997fc"/><path d="M25.542,64.969c3.789,2.667,9.389.66,16.479-1.88a101.887,101.887,0,0,1,12.794-3.923L53.454,98.023a1.751,1.751,0,0,0,1.688,1.811H55.2a1.75,1.75,0,0,0,1.748-1.688L58.34,58.527A39.749,39.749,0,0,1,64,58.1c8.054,0,15.775,2.767,21.979,4.989,4.715,1.688,8.771,3.143,12.074,3.143a7.413,7.413,0,0,0,4.406-1.263c2.531-1.782,3.71-5.308,3.71-11.1,0-.935-.031-1.879-.092-2.808a1.75,1.75,0,1,0-3.492.23c.056.853.084,1.719.084,2.577,0,4.425-.749,7.2-2.225,8.234-2.3,1.622-7.393-.2-13.284-2.312a88.653,88.653,0,0,0-16.538-4.666,8.58,8.58,0,0,1,17.129.747,1.75,1.75,0,0,0,3.5,0,12.081,12.081,0,0,0-24.108-1.152C66.1,54.644,65.057,54.6,64,54.6a44.59,44.59,0,0,0-7.6.688c-.035,0-.069.01-.1.017a93.255,93.255,0,0,0-15.458,4.49c-5.892,2.111-10.979,3.937-13.284,2.313-1.476-1.039-2.225-3.81-2.225-8.234A38.618,38.618,0,0,1,89.788,25.121a7.711,7.711,0,0,0,9.126,12.113q.634,1.325,1.17,2.71a1.75,1.75,0,1,0,3.265-1.262,41.419,41.419,0,0,0-2.219-4.792,1.721,1.721,0,0,0-.1-.183,42.165,42.165,0,0,0-79.2,20.166C21.832,59.661,23.01,63.187,25.542,64.969Zm71.7-30.831a4.172,4.172,0,0,1-1.768.408,4.232,4.232,0,0,1-4.228-4.228,4.172,4.172,0,0,1,1.039-2.762A38.585,38.585,0,0,1,97.245,34.138Z" style="fill:#630000"/><path d="M103.04,43.224a1.75,1.75,0,0,0-1.321,2.093q.114.5.214,1.009a1.75,1.75,0,1,0,3.434-.678q-.109-.554-.233-1.1A1.753,1.753,0,0,0,103.04,43.224Z" style="fill:#630000"/><path d="M45.639,71.081v5.167a1.75,1.75,0,0,0,3.5,0V71.081a1.75,1.75,0,0,0-3.5,0Z" style="fill:#630000"/><path d="M34.655,71.081v5.167a1.75,1.75,0,0,0,3.5,0V71.081a1.75,1.75,0,0,0-3.5,0Z" style="fill:#630000"/><path d="M23.671,71.081v5.167a1.75,1.75,0,0,0,3.5,0V71.081a1.75,1.75,0,0,0-3.5,0Z" style="fill:#630000"/><path d="M40.147,82.728v5.167a1.75,1.75,0,0,0,3.5,0V82.728a1.75,1.75,0,0,0-3.5,0Z" style="fill:#630000"/><path d="M30.914,80.978a1.75,1.75,0,0,0-1.75,1.75v5.167a1.75,1.75,0,0,0,3.5,0V82.728A1.75,1.75,0,0,0,30.914,80.978Z" style="fill:#630000"/><path d="M100.829,71.081v5.167a1.75,1.75,0,0,0,3.5,0V71.081a1.75,1.75,0,0,0-3.5,0Z" style="fill:#630000"/><path d="M89.845,71.081v5.167a1.75,1.75,0,0,0,3.5,0V71.081a1.75,1.75,0,0,0-3.5,0Z" style="fill:#630000"/><path d="M78.861,71.081v5.167a1.75,1.75,0,0,0,3.5,0V71.081a1.75,1.75,0,0,0-3.5,0Z" style="fill:#630000"/><path d="M95.336,82.728v5.167a1.75,1.75,0,0,0,3.5,0V82.728a1.75,1.75,0,0,0-3.5,0Z" style="fill:#630000"/><path d="M84.353,82.728v5.167a1.75,1.75,0,0,0,3.5,0V82.728a1.75,1.75,0,0,0-3.5,0Z" style="fill:#630000"/><path d="M51.2,20.234q-.535.208-1.063.43A1.75,1.75,0,0,0,51.5,23.888q.478-.2.964-.391A1.75,1.75,0,0,0,51.2,20.234Z" style="fill:#630000"/><path d="M47.689,23.743a1.75,1.75,0,0,0-2.409-.565A35.725,35.725,0,0,0,32.518,36.846a1.75,1.75,0,1,0,3.095,1.635A32.223,32.223,0,0,1,47.124,26.153,1.75,1.75,0,0,0,47.689,23.743Z" style="fill:#630000"/><path d="M64.25,27.117a7,7,0,1,0,7-7A7.011,7.011,0,0,0,64.25,27.117Zm10.5,0a3.5,3.5,0,1,1-3.5-3.5A3.507,3.507,0,0,1,74.755,27.117Z" style="fill:#630000"/><path d="M36.667,45.791a5.75,5.75,0,1,0,5.75,5.75A5.756,5.756,0,0,0,36.667,45.791Zm0,8a2.25,2.25,0,1,1,2.25-2.25A2.253,2.253,0,0,1,36.667,53.791Z" style="fill:#630000"/><path d="M115.42,93.635a1.75,1.75,0,0,0-1.75,1.75,7.938,7.938,0,0,1-14.783,4.026,1.75,1.75,0,0,0-3.014,0,7.927,7.927,0,0,1-13.677,0,1.75,1.75,0,0,0-3.014,0,7.99,7.99,0,0,1-4.465,3.534L73.309,62.7a1.75,1.75,0,0,0-3.5.123l1.416,40.423a7.993,7.993,0,0,1-5.72-3.832,1.75,1.75,0,0,0-3.014,0,7.927,7.927,0,0,1-13.677,0,1.75,1.75,0,0,0-3.014,0,7.938,7.938,0,0,1-9.231,3.551,1.75,1.75,0,1,0-1.058,3.336,11.422,11.422,0,0,0,11.8-3.1,11.406,11.406,0,0,0,16.69,0,11.485,11.485,0,0,0,8.345,3.631c.206,0,.41-.021.614-.032.027,0,.053.008.081.008H73.1a1.726,1.726,0,0,0,.173-.024A11.5,11.5,0,0,0,80.69,103.2a11.406,11.406,0,0,0,16.69,0,11.433,11.433,0,0,0,19.79-7.813A1.75,1.75,0,0,0,115.42,93.635Z" style="fill:#630000"/><path d="M31.509,98.794a1.75,1.75,0,0,0-2.4.617A7.938,7.938,0,0,1,14.33,95.385a1.75,1.75,0,0,0-3.5,0,11.438,11.438,0,0,0,21.3,5.806A1.749,1.749,0,0,0,31.509,98.794Z" style="fill:#630000"/></svg>