<svg id="Layer_1" data-name="Layer 1" xmlns="http://www.w3.org/2000/svg" viewBox="0 0 128 128"><title>NO PETS</title><circle cx="64" cy="64" r="43.331" style="fill:#daf2fe"/><path d="M67.56,20.826c.539,4.328-.576,10.057-6.56,16.456C47.972,51.215,48.61,78.794,56.02,89.249c5.1,7.192,18.283,12.8,30.948,11.489A43.32,43.32,0,0,0,67.56,20.826Z" style="fill:#cddefe"/><path d="M64.039,87.663c-7.742,7.742-9.116-1.5-15.661-8.041S32.6,71.7,40.337,63.961s19.324-8.712,25.869-2.167S71.781,79.921,64.039,87.663Z" style="fill:#b95d4f"/><ellipse cx="66.742" cy="44.413" rx="7.96" ry="6.056" transform="translate(0.065 88.924) rotate(-67.367)" style="fill:#a24f41"/><ellipse cx="83.498" cy="61.254" rx="7.96" ry="6.056" transform="translate(-17.027 36.382) rotate(-22.367)" style="fill:#a24f41"/><ellipse cx="83.283" cy="82.829" rx="5.425" ry="7.13" transform="translate(-25.217 127.824) rotate(-67.367)" style="fill:#a24f41"/><ellipse cx="45.259" cy="44.622" rx="5.425" ry="7.13" transform="translate(-13.575 20.58) rotate(-22.367)" style="fill:#b95d4f"/><path d="M64,12.579A51.421,51.421,0,1,0,115.421,64,51.421,51.421,0,0,0,64,12.579Zm0,8.481a42.759,42.759,0,0,1,27.215,9.728L30.788,91.215A42.938,42.938,0,0,1,64,21.061Zm0,85.879a42.759,42.759,0,0,1-27.215-9.728L97.212,36.785A42.938,42.938,0,0,1,64,106.939Z" style="fill:#fc3e81"/><path d="M51.62,57.827c-2.129,12.184-.139,25.016,4.4,31.421,2.057,1.93,4.305,2.128,8.019-1.586,7.742-7.742,8.712-19.324,2.167-25.869C62.445,58.034,57.022,56.767,51.62,57.827Z" style="fill:#a24f41"/><path d="M64,12.579a15.945,15.945,0,0,1,3.6,8.635,42.741,42.741,0,0,1,23.611,9.574L50.863,71.14a48.527,48.527,0,0,0,1.668,10.326L97.212,36.785A42.94,42.94,0,0,1,86.1,100.818C100.386,99.7,114.258,89.968,115.421,64A51.421,51.421,0,0,0,64,12.579Z" style="fill:#e0176d"/><path d="M84.573,90.281c3.1,0,5.838-1.473,6.906-4.034a6.632,6.632,0,0,0-.553-5.9,10.1,10.1,0,0,0-4.883-4.145c-4.52-1.885-9.435-.446-10.958,3.205s.916,8.156,5.436,10.04A10.551,10.551,0,0,0,84.573,90.281Zm-6.256-9.522c.767-1.838,3.688-2.444,6.38-1.321a6.682,6.682,0,0,1,3.2,2.669,3.221,3.221,0,0,1,.35,2.793c-.767,1.838-3.687,2.444-6.38,1.322S77.55,82.6,78.317,80.759Z" style="fill:#630000"/><path d="M41.879,36.41A6.633,6.633,0,0,0,38.1,40.969a10.1,10.1,0,0,0,.522,6.383c1.492,3.625,4.669,5.924,7.754,5.924a5.91,5.91,0,0,0,2.26-.443c3.659-1.505,5.119-6.414,3.256-10.942S45.541,34.9,41.879,36.41ZM47.306,49.6c-1.842.759-4.336-.88-5.446-3.577a6.682,6.682,0,0,1-.376-4.151,3.222,3.222,0,0,1,1.728-2.223,2.514,2.514,0,0,1,.961-.186c1.67,0,3.56,1.513,4.485,3.763C49.767,45.92,49.148,48.839,47.306,49.6Z" style="fill:#630000"/><path d="M38.714,20.967a1.744,1.744,0,0,0,.861-.228l.479-.268a1.75,1.75,0,0,0-1.693-3.062l-.512.286a1.75,1.75,0,0,0,.864,3.273Z" style="fill:#630000"/><path d="M64,10.83a52.911,52.911,0,0,0-19.661,3.753,1.75,1.75,0,1,0,1.295,3.252,49.732,49.732,0,1,1-11.412,6.406,1.75,1.75,0,1,0-2.1-2.8A53.174,53.174,0,1,0,64,10.83Z" style="fill:#630000"/><path d="M64,19.311A44.688,44.688,0,0,0,29.435,92.325a1.751,1.751,0,0,0,1.267.638l.086,0a1.749,1.749,0,0,0,1.237-.513L92.452,32.025a1.749,1.749,0,0,0-.127-2.59A44.768,44.768,0,0,0,64,19.311Zm3.651,30.432a3.709,3.709,0,0,1-3.3.4c-2.154-.9-2.88-4.282-1.585-7.389,1.075-2.577,3.263-4.3,5.208-4.3a2.983,2.983,0,0,1,1.157.226,3.7,3.7,0,0,1,2.035,2.626,8.077,8.077,0,0,1-3.516,8.434ZM74.7,44.826a10.443,10.443,0,0,0-.148-4.4,7.111,7.111,0,0,0-4.075-4.973c-3.973-1.657-8.881,1.016-10.942,5.958s-.5,10.31,3.469,11.966a6.51,6.51,0,0,0,2.518.5c.045,0,.091-.009.137-.01l-3.276,3.276c-7.341-3.166-16.725-.979-23.284,5.58-2.408,2.407-3.506,4.465-3.456,6.475a6.652,6.652,0,0,0,2.534,4.672,1.75,1.75,0,0,0,2.349-2.595c-1.22-1.1-1.374-1.764-1.384-2.164-.024-.946.817-2.3,2.431-3.913,5.152-5.151,12.268-7.162,18.095-5.339l-28.72,28.72a41.189,41.189,0,0,1,57.63-57.63Z" style="fill:#630000"/><path d="M67,105.082a1.75,1.75,0,0,0,.123,3.5c.042,0,.084,0,.126,0l.661-.052a1.75,1.75,0,0,0-.3-3.487Z" style="fill:#630000"/><path d="M72.63,106.108a1.749,1.749,0,0,0,2.118,1.279A44.7,44.7,0,0,0,98.565,35.675a1.749,1.749,0,0,0-2.59-.127L35.548,95.975a1.749,1.749,0,0,0,.127,2.59,44.359,44.359,0,0,0,25.04,10.006q.064,0,.129,0a1.75,1.75,0,0,0,.125-3.5A40.842,40.842,0,0,1,39.42,97.052L50.929,85.543c.179.254.361.511.534.758,2.167,3.1,4.04,5.775,7.021,6.037.151.014.3.02.455.02,1.962,0,3.99-1.11,6.337-3.458a22.773,22.773,0,0,0,6.977-17.415,1.75,1.75,0,0,0-3.492.229A19.547,19.547,0,0,1,62.8,86.426c-1.67,1.67-3.047,2.511-4.012,2.426C57.435,88.732,56,86.676,54.332,84.3c-.288-.412-.585-.835-.891-1.264L74.049,62.423a6.4,6.4,0,0,0,.47,2.526c1.153,2.8,4.149,4.414,7.548,4.414a11.607,11.607,0,0,0,4.4-.889h0a11.07,11.07,0,0,0,5.374-4.516,7.11,7.11,0,0,0,.634-6.4c-1.347-3.273-5.212-4.918-9.295-4.268L97.051,39.421A41.2,41.2,0,0,1,73.909,103.99,1.749,1.749,0,0,0,72.63,106.108ZM89.241,58.891a3.7,3.7,0,0,1-.418,3.3,7.559,7.559,0,0,1-3.686,3.048c-3.114,1.28-6.493.539-7.382-1.619s.991-5.064,4.1-6.346a8.206,8.206,0,0,1,3.1-.629C86.948,56.642,88.648,57.452,89.241,58.891Z" style="fill:#630000"/></svg>