<?xml version="1.0" encoding="utf-8"?>
<!-- Generator: Adobe Illustrator 21.0.0, SVG Export Plug-In . SVG Version: 6.00 Build 0)  -->
<svg version="1.1" id="Layer_1" xmlns="http://www.w3.org/2000/svg" xmlns:xlink="http://www.w3.org/1999/xlink" x="0px" y="0px"
	 viewBox="0 0 128 128" style="enable-background:new 0 0 128 128;" xml:space="preserve">
<style type="text/css">
	.st0{fill:#FD7EB9;}
	.st1{fill:#FC3E81;}
	.st2{fill:#FBBE2C;}
	.st3{fill:#FD9025;}
	.st4{fill:#E0176D;}
	.st5{fill:#DAF2FE;}
	.st6{fill:#630000;}
</style>
<title>PAMELA</title>
<path class="st0" d="M64,28.4L64,28.4c14.4,0,26,11.6,26,26v15.9l0,0H38l0,0V54.4C38,40,49.6,28.4,64,28.4z"/>
<path class="st1" d="M69.2,28.9L69.2,28.9c0,0,16.3,7.9,3.1,23.5C67.5,58,63.2,64,59.3,70.3H90V54.4C90,42,81.3,31.4,69.2,28.9z"/>
<rect x="38" y="61.1" class="st2" width="52" height="9.2"/>
<path class="st3" d="M59.3,70.3H90v-9.2H65.5C63.2,64.1,61.1,67.3,59.3,70.3z"/>
<path class="st0" d="M90,70.3H38L12.6,92.4c0,0,20.1,12.7,51.4,0s51.4,0,51.4,0L90,70.3z"/>
<path class="st1" d="M115.4,92.4L90,70.3H59.3c-6.9,11.5-10,22-1.2,24.3C60,94,62,93.3,64,92.4C95.4,79.8,115.4,92.4,115.4,92.4z"/>
<path class="st4" d="M64,92.4c-2,0.8-4,1.5-5.9,2.1l0,0c38.9,12.6,57.3-2.1,57.3-2.1S95.4,79.8,64,92.4z"/>
<path class="st4" d="M67.4,55.8c0,1.9-1.5,6.6-3.4,6.6s-3.4-4.7-3.4-6.6c0-1.9,1.5-3.4,3.4-3.4C65.9,52.4,67.4,53.9,67.4,55.8z"/>
<path class="st5" d="M73.4,61.1c-1.3,1.3-5.7,3.6-7,2.2s0.9-5.7,2.2-7c1.3-1.3,3.5-1.3,4.8,0C74.7,57.6,74.7,59.7,73.4,61.1z"/>
<path class="st4" d="M73.9,69.1c-1.9,0-6.6-1.5-6.6-3.4s4.7-3.4,6.6-3.4c1.9,0,3.4,1.5,3.4,3.4C77.3,67.6,75.8,69.1,73.9,69.1z"/>
<path class="st5" d="M68.6,75.1c-1.3-1.3-3.6-5.7-2.2-7s5.7,0.9,7,2.2c1.3,1.3,1.3,3.5,0,4.8S70,76.4,68.6,75.1z"/>
<path class="st4" d="M60.6,75.6c0-1.9,1.5-6.6,3.4-6.6c1.9,0,3.4,4.7,3.4,6.6c0,1.9-1.5,3.4-3.4,3.4C62.1,79,60.6,77.5,60.6,75.6z"
	/>
<path class="st5" d="M54.6,70.3c1.3-1.3,5.7-3.6,7-2.2s-0.9,5.7-2.2,7c-1.3,1.3-3.5,1.3-4.8,0C53.3,73.8,53.3,71.7,54.6,70.3z"/>
<path class="st4" d="M54.1,62.3c1.9,0,6.6,1.5,6.6,3.4s-4.7,3.4-6.6,3.4c-1.9,0-3.4-1.5-3.4-3.4C50.7,63.8,52.2,62.3,54.1,62.3
	L54.1,62.3z"/>
<path class="st5" d="M59.4,56.3c1.3,1.3,3.6,5.7,2.2,7c-1.3,1.3-5.7-0.9-7-2.2c-1.3-1.3-1.3-3.5,0-4.8S58,55,59.4,56.3z"/>
<circle class="st2" cx="64" cy="65.7" r="5.2"/>
<path class="st6" d="M83.7,89c0.1,0,0.1,0,0.2,0l0.7-0.1c1-0.1,1.7-1,1.6-1.9c-0.1-1-1-1.7-1.9-1.6l-0.7,0.1c-1,0.1-1.6,1-1.5,1.9
	C82.1,88.3,82.9,89,83.7,89L83.7,89z"/>
<path class="st6" d="M59.5,33.5c-0.5,0.1-0.9,0.3-1.3,0.4c-0.9,0.3-1.4,1.3-1,2.2s1.3,1.4,2.2,1c0.4-0.1,0.8-0.3,1.2-0.4
	c0.9-0.3,1.5-1.2,1.2-2.2S60.5,33.3,59.5,33.5C59.6,33.5,59.5,33.5,59.5,33.5z"/>
<path class="st6" d="M52.3,37c-3.7,2.6-6.6,6.2-8.5,10.3c-0.4,0.9,0.1,1.9,1,2.3s1.9-0.1,2.3-1c1.6-3.5,4.1-6.5,7.2-8.8
	c0.8-0.6,1-1.7,0.4-2.4C54.2,36.7,53.1,36.5,52.3,37z"/>
<g>
	<path class="st6" d="M111.8,92.6c-1.7-0.6-3.5-1.2-5.2-1.8c-4.8-1.5-9.8-2.1-14.8-2.1c-1,0-1.7-0.4-2-1.2c-0.3-1.2,0.5-2.3,1.8-2.3
		c3.4,0,6.9,0.3,10.3,0.9c1.4,0.2,2.7,0.6,4.1,0.9c0.1,0,0.3,0,0.5,0c-0.6-0.5-1-0.9-1.5-1.3c-5-4.4-10.1-8.8-15.1-13.1
		c-0.2-0.2-0.5-0.3-0.8-0.3c-4.1,0-8.2,0-12.4,0c-0.1,0-0.3,0-0.4,0c0.3,4.2-3.6,6.9-7.3,5.3c-1.8,4.5-7.9,4.4-9.7,0
		c-2.3,0.8-4.4,0.6-6.1-1.3c-1.4-1.6-1.6-3.5-0.8-5.6C51,70,49.8,69,49.3,67.5c-0.5-1.5-0.3-3,0.5-4.5c-3.4,0-6.6,0-9.9,0
		c0,1.9,0,3.7,0,5.6c0.2,0,0.4,0,0.6,0c1.4,0,2.8,0,4.2,0c1.2,0,1.9,0.7,1.9,1.8c0,1-0.7,1.7-1.9,1.7c-2.2,0-4.4,0-6.5,0
		c-1.1,0-1.8-0.7-1.8-1.7c0-5.8-0.1-11.6,0-17.3c0.4-12.6,10-23.7,22.5-25.9c9.7-1.7,18.1,0.9,25,7.8c5,5,7.7,11.2,7.9,18.3
		c0.2,5.2,0.1,10.4,0.1,15.7c0,0.5,0.1,0.8,0.5,1.1c8,7,16,14,24.1,20.9c1.2,1,1.2,2.3-0.2,3.2c-2.9,2-6.2,3.4-9.5,4.6
		c-5.6,1.8-11.4,2.7-17.3,2.8c-10.5,0.1-20.7-1.6-30.7-4.8c-0.3-0.1-0.7-0.1-1,0c-6.3,1.9-12.6,3.1-19.2,3.2c-8.2,0.2-16-1-23.6-4.2
		c-1.1-0.5-2.1-1-3.1-1.6c-1.2-0.7-1.3-2.1-0.3-3c6.8-5.9,13.6-11.9,20.4-17.8c0.8-0.7,1.6-0.7,2.4-0.2c0.7,0.5,0.9,1.4,0.5,2.1
		c-0.1,0.3-0.4,0.5-0.6,0.7c-6,5.3-12.1,10.5-18.1,15.8c-0.1,0.1-0.3,0.3-0.5,0.5c1.5,0.5,2.8,1.1,4.2,1.6c4.8,1.6,9.8,2.4,14.8,2.6
		c9.9,0.3,19.3-1.7,28.4-5.3c4.1-1.6,8.2-3,12.5-4c0.3-0.1,0.7-0.2,1.1-0.1c0.8,0.1,1.5,0.8,1.6,1.6c0.1,0.9-0.4,1.6-1.3,1.9
		c-1.8,0.5-3.6,0.9-5.3,1.4c-2.4,0.8-4.8,1.7-7.2,2.5c-0.1,0-0.2,0.1-0.5,0.3c1.6,0.4,3.1,0.8,4.5,1.1c6.7,1.5,13.5,2.4,20.4,2.3
		c7.5-0.2,14.7-1.4,21.5-4.5c0.3-0.2,0.7-0.3,1-0.5c0.1-0.1,0.2-0.1,0.3-0.2C111.8,92.7,111.8,92.6,111.8,92.6z M52,59.4
		c-0.1-2,0.5-3.7,2.1-4.8c1.6-1.2,3.4-1.2,5.2-0.5c0.9-2.2,2.5-3.4,4.8-3.4c2.3,0,3.9,1.3,4.9,3.4c1.9-0.7,3.6-0.6,5.2,0.5
		c1.6,1.2,2.2,2.8,2.1,4.8c0.3,0,0.5,0,0.7,0c2.2,0,4.5,0,6.7,0c1.2,0,1.9,0.7,1.9,1.7c0,1.1-0.7,1.8-1.9,1.8c-1.6,0-3.2,0-4.7,0
		c-0.2,0-0.3,0-0.6,0c1.1,1.9,1.1,3.7,0,5.6c3.4,0,6.6,0,9.9,0c0-0.2,0-0.3,0-0.5c0-4.6,0-9.3,0-13.9c0-1.5-0.1-2.9-0.4-4.3
		c-2.4-12.5-14-21-26.7-19.5c-9.7,1.1-17.8,8.1-20.4,17.4c-1.1,3.8-0.9,7.6-0.9,11.5c0,0,0,0.1,0.1,0.1C44,59.4,47.9,59.4,52,59.4z
		 M67.6,65.8c0-1.9-1.6-3.5-3.5-3.4c-1.9,0-3.5,1.6-3.5,3.5c0,1.9,1.6,3.5,3.5,3.5C66,69.3,67.6,67.7,67.6,65.8z M64.9,58.8
		c0.1,0,0.1,0,0.2,0c0.2-1,0.5-1.9,0.6-2.9c0.1-0.9-0.7-1.7-1.6-1.7c-0.9,0-1.7,0.7-1.6,1.6c0,0.6,0.2,1.3,0.3,1.9
		c0.3,1,0.3,1,1.3,1C64.4,58.8,64.7,58.8,64.9,58.8z M65.1,72.8c-0.6,0-1.1,0-1.6,0c-0.1,0-0.3,0.1-0.4,0.3
		c-0.2,0.9-0.5,1.8-0.6,2.7c-0.1,0.9,0.7,1.6,1.6,1.6c0.9,0,1.7-0.8,1.6-1.7C65.6,74.7,65.3,73.8,65.1,72.8z M73.5,67.4
		c1.4,0.1,2.2-0.6,2.2-1.6c0-1-0.8-1.7-1.8-1.6c-0.8,0.1-1.7,0.3-2.4,0.6c-0.8,0.3-0.1,1-0.3,1.5c-0.1,0.1,0.1,0.3,0.1,0.5
		c0,0,0.1,0,0.1,0C72.2,67.1,73,67.3,73.5,67.4z M57.3,74.5c0.2-0.1,0.7-0.2,0.9-0.5c0.6-0.7,1-1.5,1.5-2.3c0.1-0.1,0.1-0.3,0-0.4
		c-0.3-0.4-0.7-0.7-1-1c-0.1-0.1-0.3-0.1-0.4,0c-0.8,0.5-1.6,0.9-2.4,1.5c-0.5,0.4-0.6,1.1-0.3,1.8C55.9,74.1,56.4,74.4,57.3,74.5z
		 M68.3,71.5c0.5,0.8,1,1.6,1.5,2.3c0.4,0.6,1,0.8,1.6,0.6c0.6-0.1,1.1-0.5,1.2-1.2c0.2-0.7,0-1.3-0.6-1.7c-0.5-0.3-1-0.7-1.5-1
		c-0.9-0.5-0.9-0.5-1.6,0.2C68.8,71,68.6,71.2,68.3,71.5z M57.1,65.9c0-1,0-1-0.9-1.3c-0.6-0.2-1.2-0.3-1.8-0.4
		c-0.9-0.1-1.8,0.6-1.8,1.5c-0.1,1,0.7,1.8,1.7,1.7c0.7,0,1.3-0.2,2-0.4C57.1,66.8,57.1,66.8,57.1,65.9z M58.4,61.6
		c0.5-0.4,0.9-0.8,1.2-1.1c0.1-0.1,0.1-0.4,0.1-0.5c-0.4-0.8-0.9-1.5-1.4-2.2C57.7,57,56.6,57,56,57.7c-0.7,0.7-0.7,1.7,0.1,2.3
		C56.8,60.6,57.7,61.1,58.4,61.6z M69.8,61.6c0.8-0.5,1.6-1,2.4-1.6c0.7-0.5,0.7-1.6,0.1-2.2c-0.5-0.6-1.5-0.8-2.1-0.2
		c-0.9,0.7-1.4,1.8-1.8,2.6C68.9,60.6,69.3,61,69.8,61.6z"/>
</g>
</svg>
