<svg id="Layer_1" data-name="Layer 1" xmlns="http://www.w3.org/2000/svg" viewBox="0 0 128 128"><title>RAFTING</title><rect x="29" y="12.579" width="70" height="102.841" rx="9.648" ry="9.648" style="fill:#fbbe2c"/><path d="M27.32,38h73.36a5.741,5.741,0,0,1,5.741,5.741V84.259A5.741,5.741,0,0,1,100.68,90H27.321a5.742,5.742,0,0,1-5.742-5.742V43.741A5.741,5.741,0,0,1,27.32,38Z" transform="translate(128) rotate(90)" style="fill:#fed943"/><rect x="52.75" y="10.71" width="22.5" height="12.967" rx="1.853" ry="1.853" style="fill:#fc3e81"/><rect x="52.75" y="104.323" width="22.5" height="12.967" rx="1.853" ry="1.853" style="fill:#fc3e81"/><rect x="38" y="44.125" width="52" height="39.75" style="fill:#fc3e81"/><path d="M99,105.773V22.227a9.648,9.648,0,0,0-9.648-9.648H58.7C63.71,15.81,70.539,24.133,62,44.125,49.667,73,49.459,103.751,89.352,115.421A9.648,9.648,0,0,0,99,105.773Z" style="fill:#fd9025"/><path d="M84.259,21.579H65.286C66.711,26.587,66.414,33.791,62,44.125c-9.895,23.166-11.979,47.537,8.183,62.3H84.258A5.742,5.742,0,0,0,90,100.679V27.32A5.741,5.741,0,0,0,84.259,21.579Z" style="fill:#fbbe2c"/><path d="M65.762,23.677H73.4a1.853,1.853,0,0,0,1.853-1.853v-9.26A1.853,1.853,0,0,0,73.4,10.71H54.6A15.709,15.709,0,0,1,65.762,23.677Z" style="fill:#e0176d"/><path d="M55.545,83.875H90V44.125H62C56.208,57.685,53.091,71.658,55.545,83.875Z" style="fill:#e0176d"/><path d="M73.4,104.323H67.531a46.507,46.507,0,0,0,7.719,5.335v-3.482A1.853,1.853,0,0,0,73.4,104.323Z" style="fill:#e0176d"/><polygon points="42.872 27.392 39.553 39.553 27.392 42.872 12.579 28.059 28.059 12.579 42.872 27.392" style="fill:#51baea"/><polygon points="85.128 100.608 88.447 88.447 100.608 85.128 115.421 99.941 99.941 115.421 85.128 100.608" style="fill:#1997fc"/><rect x="61.009" y="22.842" width="5.981" height="82.315" rx="2.991" ry="2.991" transform="translate(-26.51 64) rotate(-45)" style="fill:#daf2fe"/><path d="M58.292,54.063q-1.054,3.325-1.827,6.632L88.873,93.1A2.991,2.991,0,1,0,93.1,88.873Z" style="fill:#cddefe"/><path d="M99,75.833a1.75,1.75,0,0,0-1.75,1.75V78.5a1.75,1.75,0,0,0,3.5,0v-.917A1.75,1.75,0,0,0,99,75.833Z" style="fill:#630000"/><path d="M116.658,98.7,101.845,83.891a1.75,1.75,0,0,0-1.7-.451l-7.858,2.145-.538-.538V27.32a7.5,7.5,0,0,0-7.49-7.491H77v-5.5H89.353a7.907,7.907,0,0,1,7.9,7.9V72a1.75,1.75,0,0,0,3.5,0V22.228a11.411,11.411,0,0,0-11.4-11.4H76.536A3.591,3.591,0,0,0,73.4,8.96H54.6a3.591,3.591,0,0,0-3.139,1.869H38.647A11.382,11.382,0,0,0,31.4,13.449L29.3,11.342a1.749,1.749,0,0,0-2.475,0l-15.48,15.48a1.749,1.749,0,0,0,0,2.475L26.155,44.109a1.741,1.741,0,0,0,1.095.5v61.164a11.411,11.411,0,0,0,11.4,11.4h6.728a1.75,1.75,0,0,0,0-3.5H38.647a7.907,7.907,0,0,1-7.9-7.9v-62l4.962-1.354.538.538V100.68a7.5,7.5,0,0,0,7.49,7.491H51v7.266a3.607,3.607,0,0,0,3.6,3.6H73.4a3.591,3.591,0,0,0,3.139-1.869H89.353a11.381,11.381,0,0,0,7.244-2.62l2.107,2.107a1.749,1.749,0,0,0,2.475,0l15.48-15.48a1.749,1.749,0,0,0,0-2.475ZM54.5,12.563a.1.1,0,0,1,.1-.1H73.4a.1.1,0,0,1,.1.1v9.26a.1.1,0,0,1-.1.1H54.6a.1.1,0,0,1-.1-.1ZM38.647,14.329H51v5.5H45.74a1.75,1.75,0,0,0,0,3.5h5.6a3.6,3.6,0,0,0,3.263,2.1H73.4a3.6,3.6,0,0,0,3.263-2.1h7.6a4,4,0,0,1,3.99,3.991V81.546L52.579,45.875H83.5a1.75,1.75,0,0,0,0-3.5H49.079l-6.663-6.663,2.145-7.858a1.75,1.75,0,0,0-.451-1.7L33.885,15.93A7.9,7.9,0,0,1,38.647,14.329ZM15.054,28.06,28.06,15.054,40.916,27.912,39.526,33A4.727,4.727,0,0,0,33,39.526l-5.092,1.39ZM73.5,115.437a.1.1,0,0,1-.1.1H54.6a.1.1,0,0,1-.1-.1v-9.26a.1.1,0,0,1,.1-.1H73.4a.1.1,0,0,1,.1.1Zm15.853-1.766H77v-5.5h5.258a1.75,1.75,0,0,0,0-3.5h-5.6a3.6,3.6,0,0,0-3.263-2.1H54.6a3.6,3.6,0,0,0-3.263,2.1h-7.6a4,4,0,0,1-3.99-3.991V85.625H70a1.75,1.75,0,0,0,0-3.5H39.75V46.454l7.915,7.915a1.75,1.75,0,1,0,2.475-2.475L39.244,41l-.015-.015L36.135,37.89a1.241,1.241,0,0,1,1.755-1.755l9.225,9.225.005.005,41.64,41.64.005.005,3.1,3.1a1.241,1.241,0,0,1-1.755,1.755L58.787,60.542a1.75,1.75,0,0,0-2.475,2.475L85.584,92.288l-2.145,7.858a1.75,1.75,0,0,0,.451,1.7l10.224,10.224A7.892,7.892,0,0,1,89.353,113.671Zm10.588-.725L87.084,100.088,88.474,95A4.727,4.727,0,0,0,95,88.474l5.092-1.39L112.946,99.94Z" style="fill:#630000"/><path d="M53.986,55.741a1.75,1.75,0,0,0-2.475,2.475l.8.8a1.75,1.75,0,1,0,2.475-2.475Z" style="fill:#630000"/></svg>