<svg id="Layer_1" data-name="Layer 1" xmlns="http://www.w3.org/2000/svg" viewBox="0 0 128 128"><title>SUN CREAM</title><path d="M83.5,91h-39L36.959,17.075a4.082,4.082,0,0,1,4.061-4.5H86.981a4.082,4.082,0,0,1,4.061,4.5Z" style="fill:#1997fc"/><path d="M72.733,37.448C64,42.27,59.216,54.171,72.733,69.96,78.079,76.2,80.085,83.785,80.212,91H83.5l7.541-73.925a4.055,4.055,0,0,0-1.433-3.513L81.53,20.25S81.466,32.625,72.733,37.448Z" style="fill:#0048d5"/><rect x="44.5" y="91" width="39" height="24.421" style="fill:#daf2fe"/><path d="M64,106.688a8.733,8.733,0,0,0-8.733,8.733H72.733A8.733,8.733,0,0,0,64,106.688Z" style="fill:#cddefe"/><path d="M91.04,17.08l-.32,3.17H37.28l-.32-3.17a4.079,4.079,0,0,1,4.06-4.5H86.98A4.079,4.079,0,0,1,91.04,17.08Z" style="fill:#daf2fe"/><rect x="42.97" y="12.58" width="3.5" height="7.67" style="fill:#cddefe"/><rect x="50.68" y="12.58" width="3.5" height="7.67" style="fill:#cddefe"/><rect x="58.39" y="12.58" width="3.5" height="7.67" style="fill:#cddefe"/><rect x="66.11" y="12.58" width="3.5" height="7.67" style="fill:#cddefe"/><rect x="73.82" y="12.58" width="3.5" height="7.67" style="fill:#cddefe"/><rect x="81.53" y="12.58" width="3.5" height="7.67" style="fill:#cddefe"/><path d="M86.186,74.3H41.368a1.323,1.323,0,0,1-1.319-1.221l-2.273-29.38A1.323,1.323,0,0,1,39.1,42.27H88.884A1.323,1.323,0,0,1,90.2,43.714l-2.7,29.38A1.323,1.323,0,0,1,86.186,74.3Z" style="fill:#daf2fe"/><path d="M88.884,42.27H67.2c-4.448,6.118-4.648,15.8,5.53,27.69A29.487,29.487,0,0,1,75.8,74.3H86.186a1.323,1.323,0,0,0,1.317-1.2l2.7-29.38A1.322,1.322,0,0,0,88.884,42.27Z" style="fill:#cddefe"/><path d="M72.733,115.421H83.5V91H80.212C80.406,102.028,76.2,112.2,72.733,115.421Z" style="fill:#cddefe"/><circle cx="64" cy="58.283" r="6.937" style="fill:#fed943"/><path d="M74.95,56.533H72.51a8.635,8.635,0,0,0-1.261-3.025l1.73-1.73A1.75,1.75,0,0,0,70.505,49.3l-1.731,1.731a8.634,8.634,0,0,0-3.025-1.26v-2.44a1.75,1.75,0,0,0-3.5,0v2.44a8.634,8.634,0,0,0-3.025,1.26L57.495,49.3a1.75,1.75,0,0,0-2.475,2.475l1.73,1.73a8.635,8.635,0,0,0-1.261,3.025H53.05a1.75,1.75,0,0,0,0,3.5H55.49a8.636,8.636,0,0,0,1.26,3.025l-1.73,1.73a1.75,1.75,0,1,0,2.475,2.475l1.73-1.73a8.636,8.636,0,0,0,3.025,1.261v2.439a1.75,1.75,0,0,0,3.5,0V66.794a8.636,8.636,0,0,0,3.025-1.261l1.73,1.73a1.75,1.75,0,0,0,2.475-2.475l-1.73-1.73a8.636,8.636,0,0,0,1.26-3.025H74.95a1.75,1.75,0,0,0,0-3.5ZM64,63.471a5.188,5.188,0,1,1,5.187-5.187A5.193,5.193,0,0,1,64,63.471Z" style="fill:#fbbe2c"/><path d="M69.75,92.75a1.75,1.75,0,0,0,0-3.5h-1.5a1.75,1.75,0,1,0,0,3.5Z" style="fill:#630000"/><path d="M84.7,79.228a1.755,1.755,0,0,0-1.918,1.563l-.863,8.459H75.5a1.75,1.75,0,0,0,0,3.5h6.25v20.921H74.325a10.475,10.475,0,0,0-18.659-4.61,1.75,1.75,0,0,0,2.781,2.125,6.977,6.977,0,0,1,12.3,2.485H46.25v-16.5a1.75,1.75,0,0,0-3.5,0v18.254a1.75,1.75,0,0,0,1.75,1.75h39a1.75,1.75,0,0,0,1.75-1.75V91.087l1.014-9.94A1.75,1.75,0,0,0,84.7,79.228Z" style="fill:#630000"/><path d="M91.308,12.752a5.842,5.842,0,0,0-4.328-1.923H41.02a5.832,5.832,0,0,0-5.8,6.424l2.374,23.275a1.74,1.74,0,0,0-1.67,1.877L38.4,74.431a1.749,1.749,0,0,0,1.745,1.615h1.072l1.544,15.132A1.75,1.75,0,0,0,44.5,92.75H61.875a1.75,1.75,0,1,0,0-3.5H46.081l-1.347-13.2H87.393a1.75,1.75,0,0,0,1.743-1.59l2.94-32.025a1.739,1.739,0,0,0-1.668-1.9l2.375-23.275A5.843,5.843,0,0,0,91.308,12.752Zm-2.6,2.346a2.308,2.308,0,0,1,.59,1.8l-.164,1.6H85.031V14.329H86.98A2.307,2.307,0,0,1,88.711,15.1ZM77.319,18.5V14.329h4.212V18.5Zm-7.712,0V14.329h4.212V18.5Zm-7.713,0V14.329h4.213V18.5Zm-7.712,0V14.329h4.212V18.5Zm-7.712,0V14.329h4.212V18.5Zm-7.18-3.4a2.307,2.307,0,0,1,1.73-.769h1.949V18.5H38.863L38.7,16.9A2.306,2.306,0,0,1,39.289,15.1ZM85.8,72.546H41.764L39.557,44.021h5.162a1.75,1.75,0,0,0,0-3.5H41.11L39.22,22H88.78L86.89,40.521H56.563a1.75,1.75,0,0,0,0,3.5H88.416Z" style="fill:#630000"/><path d="M52.219,42.271a1.777,1.777,0,0,0-1.781-1.75,1.75,1.75,0,0,0,0,3.5H50.5A1.724,1.724,0,0,0,52.219,42.271Z" style="fill:#630000"/><path d="M57.495,49.3a1.75,1.75,0,0,0-2.475,2.475l1.73,1.73a8.635,8.635,0,0,0-1.261,3.025H53.05a1.75,1.75,0,0,0,0,3.5H55.49a8.636,8.636,0,0,0,1.26,3.025l-1.73,1.73a1.75,1.75,0,1,0,2.475,2.475l1.73-1.73a8.636,8.636,0,0,0,3.025,1.261v2.439a1.75,1.75,0,0,0,3.5,0V66.794a8.636,8.636,0,0,0,3.025-1.261l1.73,1.73a1.75,1.75,0,0,0,2.475-2.475l-1.73-1.73a8.636,8.636,0,0,0,1.26-3.025H74.95a1.75,1.75,0,0,0,0-3.5H72.51a8.635,8.635,0,0,0-1.261-3.025l1.73-1.73A1.75,1.75,0,0,0,70.505,49.3l-1.731,1.731a8.634,8.634,0,0,0-3.025-1.26v-2.44a1.75,1.75,0,0,0-3.5,0v2.44a8.634,8.634,0,0,0-3.025,1.26ZM64,53.1a5.188,5.188,0,1,1-5.188,5.188A5.193,5.193,0,0,1,64,53.1Z" style="fill:#630000"/></svg>