<svg id="Layer_1" data-name="Layer 1" xmlns="http://www.w3.org/2000/svg" viewBox="0 0 128 128"><title>SUNGLASSES</title><path d="M12.579,73.1v3.982A5.993,5.993,0,0,1,15.526,82.1l3.106.558L60.047,81.3a14.821,14.821,0,0,0,.876-4.938S44.039,68.318,12.579,73.1Z" style="fill:#fbbe2c"/><path d="M20.182,83.62l1.053,9.407c.755,6.74,6.012,11.807,12.25,11.807h8.37c6.8,0,12.478-5.63,13.114-13l.691-8.016a4.715,4.715,0,0,0-3.176-5.008c-4.628-1.356-13.785-3.194-27.121-2.044A6.023,6.023,0,0,0,20.182,83.62Z" style="fill:#5a6c75"/><path d="M40.355,71.916c.018.04,2.169,4.847-2.357,10.1l22.05-.721a14.82,14.82,0,0,0,.876-4.938S53.853,73,40.355,71.916Z" style="fill:#fd9025"/><path d="M54.969,91.837l.691-8.016a4.715,4.715,0,0,0-3.176-5.008,60.965,60.965,0,0,0-11.78-2.1c-.448,2.3-1.863,5.155-5.537,7.938C27,90.832,32.322,105.283,44.4,104.561,50.025,103.359,54.416,98.259,54.969,91.837Z" style="fill:#475a61"/><path d="M71.435,74.612H56.565a1.75,1.75,0,1,0,0,3.5H71.435a1.75,1.75,0,0,0,0-3.5Z" style="fill:#fd9025"/><path d="M115.421,73.1v3.982a5.993,5.993,0,0,0-2.947,5.018l-3.106.558L67.953,81.3a14.821,14.821,0,0,1-.876-4.938S83.961,68.318,115.421,73.1Z" style="fill:#fbbe2c"/><path d="M107.818,83.62l-1.053,9.407c-.755,6.74-6.012,11.807-12.25,11.807h-8.37c-6.8,0-12.478-5.63-13.114-13l-.691-8.016a4.715,4.715,0,0,1,3.176-5.008c4.628-1.356,13.785-3.194,27.121-2.044A6.023,6.023,0,0,1,107.818,83.62Z" style="fill:#5a6c75"/><path d="M46.2,77.4l-8.332,27.431h3.991c.368,0,.731-.024,1.091-.056L50.959,78.4C49.63,78.057,48.041,77.711,46.2,77.4Z" style="fill:#fff"/><path d="M32.492,104.783,41.01,76.739c-2.107-.192-4.429-.313-6.966-.326L26.2,102.239A11.709,11.709,0,0,0,32.492,104.783Z" style="fill:#fff"/><path d="M81.8,77.4l8.332,27.431H86.144c-.368,0-.731-.024-1.091-.056L77.041,78.4C78.37,78.057,79.959,77.711,81.8,77.4Z" style="fill:#fff"/><path d="M92.009,82.086l17.359.568,3.106-.557a5.993,5.993,0,0,1,2.947-5.018V73.1a124.623,124.623,0,0,0-23.486-1.433C92.984,74.052,93.4,77.428,92.009,82.086Z" style="fill:#fd9025"/><path d="M102.637,76.769a94,94,0,0,0-9.74-.344A23.851,23.851,0,0,1,90.09,86.944c-6.726,13.845,5.263,17.969,10.107,16.371a12.238,12.238,0,0,0,1.6-1.075h0a.824.824,0,0,1,.357-.308,13.714,13.714,0,0,0,4.607-8.905l1.053-9.407A6.023,6.023,0,0,0,102.637,76.769Z" style="fill:#475a61"/><path d="M95.508,104.783,86.99,76.739c2.107-.192,4.429-.313,6.966-.326l7.845,25.827A11.709,11.709,0,0,1,95.508,104.783Z" style="fill:#fff"/><path d="M92.9,76.43A23.859,23.859,0,0,1,90.09,86.944l4.946,16.285a9.28,9.28,0,0,0,5.162.085,12.179,12.179,0,0,0,1.6-1.075L93.956,76.413C93.6,76.415,93.248,76.424,92.9,76.43Z" style="fill:#cddefe"/><path d="M41.01,76.739c-.1-.009-.206-.016-.307-.025-.449,2.3-1.864,5.153-5.536,7.934-5.057,3.83-4.937,10.827-1.246,15.431Z" style="fill:#cddefe"/><path d="M43.01,104.569,50.959,78.4c-1.329-.341-2.918-.688-4.762-1l-7.92,26.076A12.511,12.511,0,0,0,43.01,104.569Z" style="fill:#cddefe"/><path d="M14.329,76.169V74.608a118.714,118.714,0,0,1,25.452-.986,1.75,1.75,0,1,0,.264-3.49,121.563,121.563,0,0,0-25.4.91c1.033-6.853,4.4-27.477,9.058-38.52a12.087,12.087,0,0,1,7.982-7.033,20.253,20.253,0,0,1,7.351-.421A5.832,5.832,0,0,1,41.893,26.1a4.7,4.7,0,0,1,1.385,1.615,1.75,1.75,0,1,0,3.111-1.6,8.192,8.192,0,0,0-2.4-2.813,9.2,9.2,0,0,0-4.565-1.712,23.76,23.76,0,0,0-8.62.512,15.608,15.608,0,0,0-10.326,9.06C14.691,44.892,11,71.725,10.845,72.86c0,.012,0,.03,0,.044a1.726,1.726,0,0,0-.017.192v3.982a1.75,1.75,0,0,0,.918,1.54A4.245,4.245,0,0,1,13.776,82.1a1.75,1.75,0,1,0,3.5,0A7.545,7.545,0,0,0,14.329,76.169Z" style="fill:#630000"/><path d="M45.812,70.742a1.75,1.75,0,0,0-.471,3.469l.609.085a1.728,1.728,0,0,0,.249.018,1.75,1.75,0,0,0,.245-3.482Z" style="fill:#630000"/><path d="M117.153,72.9c0-.012,0-.03,0-.041-.016-.111-1.548-11.3-4.107-22.842a1.75,1.75,0,0,0-3.417.758c1.842,8.306,3.145,16.424,3.722,20.26-28.022-3.8-44,2.423-46.652,3.576H61.3a51.259,51.259,0,0,0-8.918-2.706,1.75,1.75,0,0,0-.756,3.418,52.677,52.677,0,0,1,7.529,2.195,13.914,13.914,0,0,1-.408,2.072l-2.4.079a6.063,6.063,0,0,0-3.362-2.536A56.185,56.185,0,0,0,46.4,75.667c-.015,0-.029-.006-.044-.007a85.258,85.258,0,0,0-21.14-.634,7.243,7.243,0,0,0-5,2.68,8.23,8.23,0,0,0-1.771,6.109h0L19.5,93.221a15.433,15.433,0,0,0,5.543,10.322c.023.02.045.041.069.06a13.442,13.442,0,0,0,7.384,2.93h0c.329.025.658.05.993.05h8.37c7.752,0,14.14-6.274,14.857-14.6l.69-8.016a6.9,6.9,0,0,0,0-.835l2.7-.088a1.751,1.751,0,0,0,1.589-1.155,19.234,19.234,0,0,0,.91-3.782H65.4a19.236,19.236,0,0,0,.91,3.782A1.75,1.75,0,0,0,69.6,80.707a15.759,15.759,0,0,1-.75-3.187c3.967-1.529,19.4-6.5,44.822-2.911v1.561a7.725,7.725,0,0,0-2.8,4.437l-1.517.272a8.044,8.044,0,0,0-1.569-3.173,7.243,7.243,0,0,0-5-2.68A90.357,90.357,0,0,0,86.9,75c-.046,0-.092.007-.139.014-1.877.173-3.58.4-5.108.649-.024,0-.047.009-.071.012a56.127,56.127,0,0,0-6.557,1.464A6.454,6.454,0,0,0,70.6,83.972l.69,8.016c.718,8.321,7.105,14.6,14.857,14.6h8.37a13.39,13.39,0,0,0,8.378-2.979c.024-.019.046-.04.069-.06A15.433,15.433,0,0,0,108.5,93.221l.989-8.829a1.788,1.788,0,0,0,.183-.016l3.106-.557a1.751,1.751,0,0,0,1.441-1.723,4.218,4.218,0,0,1,2.029-3.478,1.75,1.75,0,0,0,.918-1.54V73.1A1.735,1.735,0,0,0,117.153,72.9ZM41.632,103.083H40.226L47.419,79.4q.693.134,1.323.271Zm-6.8,0,6.051-19.921a1.75,1.75,0,0,0-3.35-1.018L31.26,102.813a9.964,9.964,0,0,1-3.018-1.277l7.093-23.352a76.254,76.254,0,0,1,8.6.648l-7.366,24.251ZM22.975,92.832l-1.054-9.407a4.716,4.716,0,0,1,1-3.5,3.773,3.773,0,0,1,2.594-1.411c2.173-.187,4.22-.287,6.163-.327L25.384,98.9A12.237,12.237,0,0,1,22.975,92.832Zm30.942-9.161-.69,8.016a12.346,12.346,0,0,1-7.736,10.738l6.644-21.875A3.018,3.018,0,0,1,53.917,83.671Zm32.451,19.412-7.11-23.411c.419-.091.861-.182,1.323-.271l7.193,23.682Zm-11.594-11.4-.69-8.016a3.018,3.018,0,0,1,1.783-3.12l6.644,21.875A12.346,12.346,0,0,1,74.773,91.687Zm16.659,11.4L84.067,78.832c.537-.073,1.092-.142,1.668-.205l5.895,19.406a1.75,1.75,0,0,0,3.35-1.018L89.3,78.321c1.071-.067,2.19-.116,3.363-.141l7.094,23.356a9.784,9.784,0,0,1-5.243,1.547Zm14.647-19.658-1.054,9.407a12.237,12.237,0,0,1-2.409,6.07L96.322,78.18c1.94.041,4,.146,6.164.333a3.773,3.773,0,0,1,2.594,1.411A4.716,4.716,0,0,1,106.079,83.425Z" style="fill:#630000"/><path d="M82.365,28.472a1.751,1.751,0,0,0,2.357-.754A4.7,4.7,0,0,1,86.107,26.1a5.832,5.832,0,0,1,2.854-1.035,20.251,20.251,0,0,1,7.351.421,12.088,12.088,0,0,1,7.982,7.032c.723,1.716,1.454,3.759,2.174,6.073a1.75,1.75,0,0,0,3.342-1.039c-.753-2.422-1.523-4.573-2.291-6.394A15.608,15.608,0,0,0,97.193,22.1a23.76,23.76,0,0,0-8.62-.512A9.2,9.2,0,0,0,84.008,23.3a8.192,8.192,0,0,0-2.4,2.813A1.751,1.751,0,0,0,82.365,28.472Z" style="fill:#630000"/><path d="M109.226,41.745a1.75,1.75,0,0,0-1.253,2.134l.205.794a1.75,1.75,0,1,0,3.391-.865l-.209-.81A1.75,1.75,0,0,0,109.226,41.745Z" style="fill:#630000"/></svg>