<svg id="Layer_1" data-name="Layer 1" xmlns="http://www.w3.org/2000/svg" viewBox="0 0 128 128"><title>TICKET OFFICE</title><path d="M25.937,47.813V76.5H57.75V70.25a6.25,6.25,0,0,1,12.5,0V76.5h31.812V47.813Z" style="fill:#7be2f6"/><path d="M73.474,76.5h28.589V47.813H77.522a51.1,51.1,0,0,0,2.791,14.344C82.918,69.03,79.5,73.25,73.474,76.5Z" style="fill:#1997fc"/><rect x="20.5" y="32" width="87" height="7" style="fill:#fbbe2c"/><polygon points="101.927 32 26.073 32 30.299 12.579 97.701 12.579 101.927 32" style="fill:#fc3e81"/><rect x="20.5" y="76.5" width="87" height="7.75" style="fill:#b95d4f"/><rect x="24.042" y="84.25" width="79.917" height="31.171" style="fill:#fbbe2c"/><rect x="51.312" y="92" width="25.375" height="9.333" style="fill:#daf2fe"/><polygon points="38 76.5 31.5 76.5 38.5 44.833 45 44.833 38 76.5" style="fill:#fff"/><polygon points="47.581 76.5 43.081 76.5 50.081 44.833 54.581 44.833 47.581 76.5" style="fill:#fff"/><path d="M20.5,39H31.375a0,0,0,0,1,0,0v8.813a5.437,5.437,0,0,1-5.437,5.437h0A5.437,5.437,0,0,1,20.5,47.813V39A0,0,0,0,1,20.5,39Z" style="fill:#fc3e81"/><path d="M31.375,39H42.25a0,0,0,0,1,0,0v8.813a5.437,5.437,0,0,1-5.437,5.437h0a5.437,5.437,0,0,1-5.437-5.437V39a0,0,0,0,1,0,0Z" style="fill:#daf2fe"/><path d="M42.25,39H53.125a0,0,0,0,1,0,0v8.813a5.437,5.437,0,0,1-5.437,5.437h0a5.437,5.437,0,0,1-5.437-5.437V39A0,0,0,0,1,42.25,39Z" style="fill:#fc3e81"/><path d="M53.125,39H64a0,0,0,0,1,0,0v8.813a5.437,5.437,0,0,1-5.437,5.437h0a5.437,5.437,0,0,1-5.437-5.437V39A0,0,0,0,1,53.125,39Z" style="fill:#daf2fe"/><path d="M64,39H74.875a0,0,0,0,1,0,0v8.813a5.437,5.437,0,0,1-5.437,5.437h0A5.437,5.437,0,0,1,64,47.813V39A0,0,0,0,1,64,39Z" style="fill:#fc3e81"/><path d="M74.875,39H85.75a0,0,0,0,1,0,0v8.813a5.437,5.437,0,0,1-5.437,5.437h0a5.437,5.437,0,0,1-5.437-5.437V39A0,0,0,0,1,74.875,39Z" style="fill:#daf2fe"/><path d="M85.75,39H96.625a0,0,0,0,1,0,0v8.813a5.437,5.437,0,0,1-5.437,5.437h0a5.437,5.437,0,0,1-5.437-5.437V39A0,0,0,0,1,85.75,39Z" style="fill:#e0176d"/><path d="M96.625,39H107.5a0,0,0,0,1,0,0v8.813a5.437,5.437,0,0,1-5.437,5.437h0a5.437,5.437,0,0,1-5.437-5.437V39A0,0,0,0,1,96.625,39Z" style="fill:#cddefe"/><path d="M103.958,84.25H64.539A19.355,19.355,0,0,0,60,95.335a21.268,21.268,0,0,0,9.437,20.085h34.521Z" style="fill:#fd9025"/><path d="M60,95.335a23.818,23.818,0,0,0,.232,6H76.687V92H60.548A20.7,20.7,0,0,0,60,95.335Z" style="fill:#cddefe"/><path d="M64.539,84.25H107.5V76.5H73.474C70.482,78.734,67.153,81.09,64.539,84.25Z" style="fill:#a24f41"/><path d="M78.022,52.739a5.428,5.428,0,0,0,7.728-4.927V39H77.588A62.871,62.871,0,0,0,78.022,52.739Z" style="fill:#cddefe"/><path d="M77.588,39H107.5V32H78.627A50.962,50.962,0,0,0,77.588,39Z" style="fill:#fd9025"/><path d="M78.627,32h23.3L97.7,12.579C86.6,13.234,80.909,21.781,78.627,32Z" style="fill:#e0176d"/><path d="M115.42,117.17H12.58a1.75,1.75,0,1,1,0-3.5H115.42a1.75,1.75,0,0,1,0,3.5Z" style="fill:#a24f41"/><path d="M38,30.25a1.75,1.75,0,0,0,0,3.5h.375a1.75,1.75,0,0,0,0-3.5Z" style="fill:#630000"/><path d="M20.5,86h1.792v23.167a1.75,1.75,0,0,0,3.5,0V86H85.917a1.75,1.75,0,0,0,0-3.5H22.25V78.25h83.5V82.5H96.625a1.75,1.75,0,0,0,0,3.5H107.5a1.75,1.75,0,0,0,1.75-1.75V76.5a1.75,1.75,0,0,0-1.75-1.75h-3.688V54.776a7.194,7.194,0,0,0,5.438-6.963V32a1.75,1.75,0,0,0-1.75-1.75H44.875a1.75,1.75,0,0,0,0,3.5H105.75v3.5H22.25v-3.5H31.5a1.75,1.75,0,0,0,0-3.5H28.245l3.464-15.92H96.291l2.36,10.847a1.75,1.75,0,0,0,3.42-.744l-2.66-12.225A1.75,1.75,0,0,0,97.7,10.83H30.3a1.75,1.75,0,0,0-1.71,1.378L24.663,30.25H20.5A1.75,1.75,0,0,0,18.75,32V47.813A7.179,7.179,0,0,0,31.375,52.5a7.2,7.2,0,0,0,3.168,2.128L30.094,74.75H27.687V59a1.75,1.75,0,1,0-3.5,0V74.75H20.5a1.75,1.75,0,0,0-1.75,1.75v7.75A1.75,1.75,0,0,0,20.5,86ZM44.692,54.338a7.113,7.113,0,0,0,1.391.475L42.754,69.872a1.751,1.751,0,0,0,1.331,2.087,1.777,1.777,0,0,0,.379.042,1.751,1.751,0,0,0,1.708-1.373L49.69,54.71a7.118,7.118,0,0,0,1-.375L46.175,74.75h-6ZM68.5,74.75h-9v-4.5a4.5,4.5,0,0,1,9,0Zm3.5,0v-4.5a8,8,0,0,0-16,0v4.5H49.76l4.659-21.075A7.154,7.154,0,0,0,64,52.5a7.162,7.162,0,0,0,10.875,0,7.162,7.162,0,0,0,10.875,0,7.162,7.162,0,0,0,10.875,0,7.189,7.189,0,0,0,3.687,2.276V74.75Zm33.75-26.937a3.692,3.692,0,0,1-3.685,3.687h0a3.692,3.692,0,0,1-3.685-3.687V40.75h7.375Zm-10.875,0a3.687,3.687,0,1,1-7.375,0V40.75h7.375ZM84,47.813a3.688,3.688,0,1,1-7.375,0V40.75H84Zm-10.875,0a3.687,3.687,0,1,1-7.375,0V40.75h7.375Zm-10.875,0a3.688,3.688,0,1,1-7.375,0V40.75H62.25Zm-10.875,0a3.688,3.688,0,1,1-7.375,0V40.75h7.375ZM25.937,51.5a3.692,3.692,0,0,1-3.687-3.687V40.75h7.375v7.063A3.692,3.692,0,0,1,25.937,51.5Zm7.188-3.687V40.75H40.5v7.063a3.688,3.688,0,1,1-7.375,0Zm4.946,7.07a7.154,7.154,0,0,0,3.241-1.473L36.594,74.75H33.679Z" style="fill:#630000"/><path d="M91.187,82.5a1.75,1.75,0,0,0,0,3.5h.145a1.75,1.75,0,1,0,0-3.5Z" style="fill:#630000"/><path d="M115.42,113.67h-9.712V90.333a1.75,1.75,0,0,0-3.5,0V113.67H12.58a1.75,1.75,0,1,0,0,3.5H115.42a1.75,1.75,0,0,0,0-3.5Z" style="fill:#630000"/><path d="M51.312,90.25A1.75,1.75,0,0,0,49.562,92v9.333a1.75,1.75,0,0,0,1.75,1.75H76.687a1.75,1.75,0,0,0,1.75-1.75V92a1.75,1.75,0,0,0-1.75-1.75Zm23.625,9.333H53.062V93.75H74.937Z" style="fill:#630000"/></svg>