<svg id="Layer_1" data-name="Layer 1" xmlns="http://www.w3.org/2000/svg" viewBox="0 0 128 128"><title>WAVE</title><path d="M62.468,47.051A21.785,21.785,0,0,1,84.253,25.266H37.786a21.786,21.786,0,0,0,0,43.571v5.538H84.253V68.837A21.786,21.786,0,0,1,62.468,47.051Z" style="fill:#1997fc"/><path d="M62.468,47.051A21.785,21.785,0,0,1,84.253,25.266H52.786a21.786,21.786,0,0,0,0,43.571v5.538H84.253V68.837A21.786,21.786,0,0,1,62.468,47.051Z" style="fill:#51baea"/><path d="M110.052,39.76H49.036A10.3,10.3,0,0,0,42.455,26.8l-4.67-1.534H98.8l4.67,1.534a10.3,10.3,0,0,1,6.581,12.96Z" style="fill:#7be2f6"/><path d="M104.991,35.342a6.969,6.969,0,0,0-4.2,1.409,8.98,8.98,0,0,0-9.561-.062,5.734,5.734,0,0,0-10.759-.158,8.377,8.377,0,0,0-12.22-1.179,7.291,7.291,0,0,0-13.62,1.586A7.3,7.3,0,1,0,56.051,49.96a8.4,8.4,0,0,0,15.267-.287,8.38,8.38,0,0,0,5.98-.391,5.72,5.72,0,0,0,10.39-1.271,9.024,9.024,0,0,0,15.887,1.206,7.01,7.01,0,1,0,1.415-13.875Z" style="fill:#daf2fe"/><path d="M12.579,59.142a9.688,9.688,0,0,0,18.04,4.916,9.676,9.676,0,0,0,16.69,0,9.676,9.676,0,0,0,16.69,0,9.676,9.676,0,0,0,16.69,0,9.676,9.676,0,0,0,16.69,0,9.688,9.688,0,0,0,18.04-4.916v45.342H12.579Z" style="fill:#7be2f6"/><path d="M12.579,73.228a9.688,9.688,0,0,0,18.04,4.916,9.676,9.676,0,0,0,16.69,0,9.676,9.676,0,0,0,16.69,0,9.676,9.676,0,0,0,16.69,0,9.676,9.676,0,0,0,16.69,0,9.688,9.688,0,0,0,18.04-4.916v31.256H12.579Z" style="fill:#51baea"/><path d="M12.579,86.573a9.688,9.688,0,0,0,18.04,4.916,9.676,9.676,0,0,0,16.69,0,9.676,9.676,0,0,0,16.69,0,9.676,9.676,0,0,0,16.69,0,9.676,9.676,0,0,0,16.69,0,9.688,9.688,0,0,0,18.04-4.916v17.911H12.579Z" style="fill:#1997fc"/><path d="M80.468,36.531c-.661,1.209-1.2,2.268-1.654,3.229h31.237A10.3,10.3,0,0,0,103.47,26.8L98.8,25.266H78.425S84.936,28.354,80.468,36.531Z" style="fill:#51baea"/><path d="M82.213,52.075a5.74,5.74,0,0,0,5.476-4.064,9.024,9.024,0,0,0,15.887,1.206,7.01,7.01,0,1,0,1.415-13.875,6.969,6.969,0,0,0-4.2,1.409,8.98,8.98,0,0,0-9.561-.062A5.722,5.722,0,0,0,80.92,35.636c-.138.292-.285.589-.452.9C76,44.708,76.6,46.688,77.3,49.282A5.737,5.737,0,0,0,82.213,52.075Z" style="fill:#cddefe"/><path d="M77.688,27.016h.736a1.75,1.75,0,0,0,0-3.5h-.736a1.75,1.75,0,0,0,0,3.5Z" style="fill:#630000"/><path d="M22.274,70.587a11.487,11.487,0,0,0,8.345-3.63,11.407,11.407,0,0,0,16.69,0,11.407,11.407,0,0,0,16.69,0,11.376,11.376,0,0,0,14,2.117c.022-.014.045-.026.066-.042a11.536,11.536,0,0,0,2.624-2.075,11.407,11.407,0,0,0,16.69,0,11.433,11.433,0,0,0,19.79-7.814,1.75,1.75,0,1,0-3.5,0,7.938,7.938,0,0,1-14.783,4.027,1.75,1.75,0,0,0-3.014,0,7.927,7.927,0,0,1-13.677,0,1.75,1.75,0,0,0-3.014,0,7.954,7.954,0,0,1-2.325,2.48,20.008,20.008,0,0,1-10.481-9.573,10.149,10.149,0,0,0,6.544-5.7,1.75,1.75,0,1,0-3.207-1.4,6.646,6.646,0,0,1-12.088.226,1.751,1.751,0,0,0-2.515-.716,5.552,5.552,0,1,1-1.079-9.9,1.75,1.75,0,0,0,2.3-1.245,5.541,5.541,0,0,1,10.353-1.2,1.75,1.75,0,0,0,2.724.526,6.627,6.627,0,0,1,9.673.935,1.75,1.75,0,0,0,3.018-.43,3.984,3.984,0,0,1,7.481.111,1.751,1.751,0,0,0,2.567.9,7.345,7.345,0,0,1,7.7.05,1.752,1.752,0,0,0,1.989-.079,5.208,5.208,0,0,1,3.151-1.058A5.259,5.259,0,1,1,103.928,47.5a1.748,1.748,0,0,0-1.828.774,7.274,7.274,0,0,1-12.809-.971,1.774,1.774,0,0,0-1.7-1.042,1.75,1.75,0,0,0-1.572,1.229,3.971,3.971,0,0,1-7.222.883A1.75,1.75,0,1,0,75.8,50.187a7.471,7.471,0,0,0,11.949,1.182,10.771,10.771,0,0,0,16.638-.279q.3.021.6.021a8.754,8.754,0,0,0,7.271-13.637,12.085,12.085,0,0,0-8.245-12.336L99.347,23.6a1.74,1.74,0,0,0-.546-.087H84.253a1.75,1.75,0,0,0,0,3.5H98.521l4.4,1.446a8.579,8.579,0,0,1,5.567,5.865,8.715,8.715,0,0,0-7.77.381,10.855,10.855,0,0,0-8.739-.351,7.479,7.479,0,0,0-11.839-.646,10.128,10.128,0,0,0-11.433-.843A9.044,9.044,0,0,0,53.5,34.851a8.871,8.871,0,0,0-1.35-.1,9.093,9.093,0,0,0-1,.058,12.13,12.13,0,0,0-4.6-7.79H71.313a1.75,1.75,0,0,0,0-3.5H37.785A23.535,23.535,0,0,0,20.838,63.382a1.75,1.75,0,1,0,2.52-2.429A20.028,20.028,0,0,1,37.543,27.028l4.366,1.434a8.582,8.582,0,0,1,5.846,7.43A9.045,9.045,0,0,0,55.38,52.248a10.041,10.041,0,0,0,7.284,4.166,23.531,23.531,0,0,0,9.178,10.64,7.975,7.975,0,0,1-6.334-3.884,1.75,1.75,0,0,0-3.014,0,7.927,7.927,0,0,1-13.677,0,1.75,1.75,0,0,0-3.014,0,7.927,7.927,0,0,1-13.677,0,1.75,1.75,0,0,0-3.014,0,7.938,7.938,0,0,1-14.783-4.027,1.75,1.75,0,0,0-3.5,0A11.458,11.458,0,0,0,22.274,70.587Z" style="fill:#630000"/><path d="M115.421,71.478a1.75,1.75,0,0,0-1.75,1.75,7.938,7.938,0,0,1-14.783,4.027,1.75,1.75,0,0,0-3.014,0,7.927,7.927,0,0,1-13.677,0,1.75,1.75,0,0,0-3.014,0,7.927,7.927,0,0,1-13.677,0,1.75,1.75,0,0,0-3.014,0,7.927,7.927,0,0,1-13.677,0,1.75,1.75,0,0,0-3.014,0,7.922,7.922,0,0,1-5.574,3.818,1.75,1.75,0,0,0,.555,3.456,11.378,11.378,0,0,0,6.53-3.482,11.407,11.407,0,0,0,16.687,0,11.407,11.407,0,0,0,16.69,0,11.407,11.407,0,0,0,16.69,0,11.433,11.433,0,0,0,19.79-7.814A1.75,1.75,0,0,0,115.421,71.478Z" style="fill:#630000"/><path d="M35.591,80.419a1.75,1.75,0,1,0-1.5,3.161q.315.149.641.279a1.75,1.75,0,1,0,1.293-3.252Q35.8,80.521,35.591,80.419Z" style="fill:#630000"/><path d="M22.274,84.673a11.5,11.5,0,0,0,9.852-5.639,1.75,1.75,0,1,0-3.014-1.779,7.938,7.938,0,0,1-14.783-4.027,1.75,1.75,0,0,0-3.5,0A11.458,11.458,0,0,0,22.274,84.673Z" style="fill:#630000"/><path d="M115.421,84.823a1.75,1.75,0,0,0-1.75,1.75,7.954,7.954,0,0,1-7.945,7.944,7.842,7.842,0,0,1-3.413-.771A1.75,1.75,0,1,0,100.8,96.9a11.3,11.3,0,0,0,4.925,1.115,11.458,11.458,0,0,0,11.445-11.444A1.75,1.75,0,0,0,115.421,84.823Z" style="fill:#630000"/><path d="M98.271,89.983a1.748,1.748,0,0,0-2.4.617,7.927,7.927,0,0,1-13.677,0,1.75,1.75,0,0,0-3.014,0,7.927,7.927,0,0,1-13.677,0,1.75,1.75,0,0,0-3.014,0,7.927,7.927,0,0,1-13.677,0,1.75,1.75,0,0,0-3.014,0,7.927,7.927,0,0,1-13.677,0,1.75,1.75,0,0,0-3.014,0,7.938,7.938,0,0,1-14.783-4.026,1.75,1.75,0,0,0-3.5,0,11.433,11.433,0,0,0,19.79,7.814,11.407,11.407,0,0,0,16.69,0,11.407,11.407,0,0,0,16.69,0,11.407,11.407,0,0,0,16.69,0,11.418,11.418,0,0,0,18.2-2.008A1.75,1.75,0,0,0,98.271,89.983Z" style="fill:#630000"/></svg>