<?xml version="1.0" encoding="utf-8"?>
<!-- Generator: Adobe Illustrator 24.0.1, SVG Export Plug-In . SVG Version: 6.00 Build 0)  -->
<svg version="1.1" id="Layer_1" xmlns="http://www.w3.org/2000/svg" xmlns:xlink="http://www.w3.org/1999/xlink" x="0px" y="0px"
	 viewBox="0 0 512 512" style="enable-background:new 0 0 512 512;" xml:space="preserve">
<style type="text/css">
	.st0{fill:#BFD6DD;}
	.st1{fill:#F9DE6B;}
	.st2{fill:#2F5C72;}
</style>
<g>
	<circle class="st0" cx="256" cy="350.5" r="7.5"/>
	<polygon class="st0" points="311.5,283 311.5,275.5 296.5,275.5 296.5,283 281.5,283 281.5,275.5 52.5,275.5 52.5,70.3 459.5,70.3 
		459.5,149.8 467,149.8 467,165.4 326.5,165.4 326.5,283 	"/>
	<polygon class="st1" points="415.5,334.5 489.5,297.6 489.5,314.3 429.7,344.2 429.7,430.2 415.5,437.3 401.3,430.2 401.3,344.2 
		341.5,314.3 341.5,297.6 	"/>
	<polygon class="st1" points="341.5,401.2 356.3,408.6 356.3,430.2 341.5,437.6 	"/>
	<polygon class="st1" points="489.5,401.2 489.5,437.6 474.7,430.2 474.7,408.6 	"/>
	<polygon class="st1" points="489.5,180.4 489.5,247.2 415.5,284.1 341.5,247.2 341.5,180.4 	"/>
	<rect x="367.6" y="225.4" class="st2" width="95.8" height="15"/>
	<rect x="489.5" y="135.4" class="st2" width="15" height="15"/>
	<rect x="296.5" y="275.5" class="st2" width="15" height="15"/>
	<polygon class="st2" points="459.5,70.3 459.5,149.8 474.5,149.8 474.5,55.3 37.5,55.3 37.5,290.5 281.5,290.5 281.5,275.5 
		52.5,275.5 52.5,70.3 	"/>
	<rect x="448.4" y="195.4" class="st2" width="15" height="15"/>
	<rect x="367.6" y="195.4" class="st2" width="15" height="15"/>
	<rect x="397.6" y="195.4" class="st2" width="35.8" height="15"/>
	<path class="st2" d="M326.5,165.4v321.4h178V165.4H326.5z M341.5,401.2l14.8,7.4v21.6l-14.8,7.4V401.2z M489.5,437.6l-14.8-7.4
		v-21.6l14.8-7.4V437.6z M489.5,384.5l-29.8,14.9v40.2l29.8,14.9v17.4h-148v-17.4l29.8-14.9v-40.2l-29.8-14.9v-53.4l44.8,22.4v86
		l29.2,14.6l29.2-14.6v-86l44.8-22.4V384.5z M489.5,314.3l-59.8,30v86l-14.2,7.1l-14.2-7.1v-86l-59.8-30v-16.7l74,36.9l74-36.9
		V314.3z M489.5,280.7l-74,36.9l-74-36.9V264l74,36.9l74-36.9V280.7z M489.5,247.2l-74,36.9l-74-36.9v-66.8h148V247.2z"/>
	<path class="st2" d="M7.5,25.3v370.2h216.4l-13.1,30.8h-50.5L119,486.7h192.5v-15H147.4l20.7-30.5h143.4v-15h-10.3l-13.1-30.8h23.4
		v-15H37L66.2,358h168.5c3.1,8.7,11.4,15,21.2,15c9.8,0,18.1-6.3,21.2-15h34.3v-15h-34.3c-3.1-8.7-11.4-15-21.2-15
		c-9.8,0-18.1,6.3-21.2,15H66.2L37,320.5h274.5v-15h-289V40.3h467v80.1h15V25.3H7.5z M22.5,328.2l28.9,22.3l-28.9,22.3V328.2z
		 M285,426.2h-58l13.1-30.8h31.7L285,426.2z M256,343c4.1,0,7.5,3.4,7.5,7.5s-3.4,7.5-7.5,7.5s-7.5-3.4-7.5-7.5S251.9,343,256,343z"
		/>
</g>
</svg>
