<?xml version="1.0" encoding="utf-8"?>
<!-- Generator: Adobe Illustrator 24.0.1, SVG Export Plug-In . SVG Version: 6.00 Build 0)  -->
<svg version="1.1" id="Layer_1" xmlns="http://www.w3.org/2000/svg" xmlns:xlink="http://www.w3.org/1999/xlink" x="0px" y="0px"
	 viewBox="0 0 512 512" style="enable-background:new 0 0 512 512;" xml:space="preserve">
<style type="text/css">
	.st0{fill:#F9DE6B;}
	.st1{fill:#BFD6DD;}
	.st2{fill:#2F5C72;}
</style>
<g>
	<polygon class="st0" points="387.8,307.7 387.8,375.5 349.8,375.5 349.8,390.5 402.8,390.5 402.8,307.7 	"/>
	<polygon class="st0" points="293.7,428 308.7,428 308.7,435.5 323.7,435.5 323.7,428 338.7,428 338.7,435.5 402.8,435.5 
		402.8,459.5 281.9,459.5 281.9,435.5 293.7,435.5 	"/>
	<path class="st1" d="M432.8,102.6h-30.4c-10.6-24.4-27.2-45.8-48.3-62.3V22.5h78.7V102.6z"/>
	<path class="st1" d="M187.1,422.6c-1,1.7-2.6,3-4.6,3.5c-1.9,0.5-4,0.2-5.7-0.8s-3-2.6-3.5-4.6c-0.5-1.9-0.2-4,0.8-5.7
		c1-1.7,2.6-3,4.6-3.5c0.6-0.2,1.3-0.3,1.9-0.3c1.3,0,2.6,0.3,3.8,1C188,414.4,189.2,419,187.1,422.6z"/>
	<path class="st0" d="M158.9,424.6c1.5,5.8,5.2,10.7,10.4,13.7c3.5,2,7.4,3.1,11.3,3.1c1.9,0,3.9-0.2,5.8-0.8
		c3.6-0.9,6.8-2.7,9.4-5.1H234v24H109.2V307.7h27l23.6,102.7C158,414.9,157.6,419.8,158.9,424.6z"/>
	<path class="st1" d="M197.8,404.3c-1.6-1.9-3.6-3.6-5.8-4.9c-3.3-1.9-6.9-2.9-10.6-3.1l50.5-133.6c7.7,1.9,15.8,3,24.2,3
		c8.4,0,16.5-1,24.3-3L197.8,404.3z"/>
	<path class="st1" d="M186.5,22.5c-18.4,9-35.2,21.5-49.2,37c-24.7,27.5-39,62.4-40.7,99.1H79.2V22.5H186.5z"/>
	<path class="st2" d="M64.2,7.5v497h383.6V7.5H64.2z M79.2,22.5h107.3c-18.4,9-35.2,21.5-49.2,37c-24.7,27.5-39,62.4-40.7,99.1H79.2
		V22.5z M432.8,489.5H79.2V277.7h110.9c5.4,3.2,11,6,16.9,8.4l-37.6,99.4l-21.3-92.7H94.2v181.8H249v-54h-43.3l74-126.9
		c15.1-2.8,29.5-8.3,42.6-16.1v0.3h110.5V489.5z M256,265.7c8.4,0,16.5-1,24.3-3l-82.5,141.6c-1.6-1.9-3.6-3.6-5.8-4.9
		c-3.3-1.9-6.9-2.9-10.6-3.1l50.5-133.6C239.6,264.7,247.7,265.7,256,265.7z M171.4,166.1c0-46.6,37.9-84.6,84.6-84.6
		s84.6,37.9,84.6,84.6c0,46.6-37.9,84.6-84.6,84.6S171.4,212.7,171.4,166.1z M158.9,424.6c1.5,5.8,5.2,10.7,10.4,13.7
		c3.5,2,7.4,3.1,11.3,3.1c1.9,0,3.9-0.2,5.8-0.8c3.6-0.9,6.8-2.7,9.4-5.1H234v24H109.2V307.7h27l23.6,102.7
		C158,414.9,157.6,419.8,158.9,424.6z M174.1,415.1c1-1.7,2.6-3,4.6-3.5c0.6-0.2,1.3-0.3,1.9-0.3c1.3,0,2.6,0.3,3.8,1
		c3.6,2.1,4.8,6.7,2.7,10.3c-1,1.7-2.6,3-4.6,3.5c-1.9,0.5-4,0.2-5.7-0.8s-3-2.6-3.5-4.6C172.9,418.8,173.1,416.8,174.1,415.1z
		 M432.8,262.7h-90.4c4-3.6,7.8-7.5,11.4-11.6c20.5-23.6,31.8-53.8,31.8-85c0-26.3-7.8-51.6-22.6-73.2l-12.4,8.5
		c13.1,19.1,20,41.5,20,64.7c0,50.4-33.5,94.6-80.4,109.4l12.5-21.4c31.4-16.8,52.9-49.9,52.9-87.9c0-54.9-44.7-99.6-99.6-99.6
		c-54.9,0-99.6,44.7-99.6,99.6c0,41.3,25.3,76.8,61.2,91.9l-5.3,14.1c-42.7-17.6-70.9-59.3-70.9-105.9
		c0-63.2,51.4-114.6,114.6-114.6c23.2,0,45.6,6.9,64.7,20l8.5-12.4c-21.6-14.8-46.9-22.6-73.2-22.6c-71.5,0-129.6,58.1-129.6,129.6
		c0,37.7,16.3,72.5,43.2,96.6H79.2v-89.1h32.2v-7.5c0-73.4,54.9-135.1,127.7-143.6h100v25.3l3,2.2c21.7,16.1,38.4,37.9,48.3,62.9
		l1.9,4.7h40.5V262.7z M432.8,102.6h-30.4c-10.6-24.4-27.2-45.8-48.3-62.3V22.5h78.7V102.6z"/>
	<path class="st1" d="M256,81.5c-46.6,0-84.6,37.9-84.6,84.6c0,46.6,37.9,84.6,84.6,84.6s84.6-37.9,84.6-84.6
		C340.6,119.5,302.6,81.5,256,81.5z M256,178.9c-7.1,0-12.8-5.7-12.8-12.8s5.7-12.8,12.8-12.8s12.8,5.7,12.8,12.8
		S263.1,178.9,256,178.9z"/>
	<path class="st2" d="M256,138.3c-15.3,0-27.8,12.5-27.8,27.8s12.5,27.8,27.8,27.8c15.3,0,27.8-12.5,27.8-27.8
		S271.3,138.3,256,138.3z M256,178.9c-7.1,0-12.8-5.7-12.8-12.8s5.7-12.8,12.8-12.8s12.8,5.7,12.8,12.8S263.1,178.9,256,178.9z"/>
	<circle class="st2" cx="256" cy="121.9" r="7.5"/>
	<ellipse transform="matrix(0.2588 -0.9659 0.9659 0.2588 79.0379 390.9906)" class="st2" cx="294.3" cy="144" rx="7.5" ry="7.5"/>
	<path class="st2" d="M298,181.7c-3.6-2.1-8.2-0.8-10.2,2.7c-2.1,3.6-0.8,8.2,2.7,10.2c3.6,2.1,8.2,0.8,10.2-2.7
		C302.9,188.4,301.6,183.8,298,181.7z"/>
	
		<ellipse transform="matrix(1.260986e-02 -0.9999 0.9999 1.260986e-02 164.8609 662.3346)" class="st2" cx="417.8" cy="247.7" rx="7.5" ry="7.5"/>
	<ellipse transform="matrix(0.9447 -0.3279 0.3279 0.9447 -76.0097 44.5821)" class="st2" cx="94.2" cy="247.7" rx="7.5" ry="7.5"/>
	<ellipse transform="matrix(0.4814 -0.8765 0.8765 0.4814 183.7838 385.641)" class="st2" cx="417.8" cy="37.5" rx="7.5" ry="7.5"/>
	<ellipse transform="matrix(0.8891 -0.4577 0.4577 0.8891 -6.719 47.2738)" class="st2" cx="94.2" cy="37.5" rx="7.5" ry="7.5"/>
	<path class="st2" d="M214,454c3.6,2.1,8.2,0.8,10.2-2.7c2.1-3.6,0.8-8.2-2.7-10.2c-3.6-2.1-8.2-0.8-10.2,2.7
		C209.1,447.3,210.4,451.9,214,454z"/>
	
		<ellipse transform="matrix(0.9659 -0.2588 0.2588 0.9659 -111.5593 47.5783)" class="st2" cx="124.9" cy="447.5" rx="7.5" ry="7.5"/>
	<path class="st2" d="M128.7,315.3c-3.6-2.1-8.2-0.8-10.2,2.7s-0.8,8.2,2.7,10.2c3.6,2.1,8.2,0.8,10.2-2.7
		C133.5,322,132.3,317.4,128.7,315.3z"/>
	<circle class="st2" cx="256" cy="210.3" r="7.5"/>
	<path class="st2" d="M214,181.7c-3.6,2.1-4.8,6.7-2.7,10.2c2.1,3.6,6.7,4.8,10.2,2.7c3.6-2.1,4.8-6.7,2.7-10.2
		C222.1,180.9,217.5,179.6,214,181.7z"/>
	<ellipse transform="matrix(0.9659 -0.2588 0.2588 0.9659 -29.85 61.2529)" class="st2" cx="217.7" cy="144" rx="7.5" ry="7.5"/>
	<path class="st2" d="M372.8,292.7v67.8h-38v45h83l0-112.8H372.8z M349.8,390.5v-15h38v-67.8h15l0,82.8H349.8z"/>
	<path class="st2" d="M341.8,69l-9.9,11.2c3.5,3.1,6.9,6.5,10,10l11.2-9.9C349.6,76.3,345.8,72.5,341.8,69z"/>
	<polygon class="st2" points="338.7,435.5 402.8,435.5 402.8,459.5 281.9,459.5 281.9,435.5 293.7,435.5 293.7,420.5 266.9,420.5 
		266.9,474.5 417.8,474.5 417.8,420.5 338.7,420.5 	"/>
	<rect x="308.7" y="420.5" class="st2" width="15" height="15"/>
</g>
</svg>
