<?xml version="1.0" encoding="utf-8"?>
<!-- Generator: Adobe Illustrator 24.0.1, SVG Export Plug-In . SVG Version: 6.00 Build 0)  -->
<svg version="1.1" id="Layer_1" xmlns="http://www.w3.org/2000/svg" xmlns:xlink="http://www.w3.org/1999/xlink" x="0px" y="0px"
	 viewBox="0 0 512 512" style="enable-background:new 0 0 512 512;" xml:space="preserve">
<style type="text/css">
	.st0{fill:#88FC8B;}
	.st1{fill:#FFFFFF;}
	.st2{fill:#F9DE6B;}
	.st3{fill:#2F5C72;}
	.st4{fill:#7FD5F7;}
</style>
<g>
	<path class="st0" d="M22.5,64.4v414.2h128.6v7.5h15v-7.5h15v7.5h15v-7.5h293.4V64.4H22.5z M414.5,204h-91v-36.4l28.2-28.2h62.8V204
		z"/>
	<polygon class="st1" points="67.5,94.4 67.5,149.2 75,149.2 75,164.2 67.5,164.2 67.5,179.2 75,179.2 75,194.2 67.5,194.2 
		67.5,249 52.5,249 52.5,94.4 	"/>
	<polygon class="st1" points="150.5,94.4 150.5,149.2 158,149.2 158,164.2 150.5,164.2 150.5,179.2 158,179.2 158,194.2 
		150.5,194.2 150.5,249 135.5,249 135.5,94.4 	"/>
	<polygon class="st1" points="233.5,94.4 233.5,149.2 241,149.2 241,164.2 233.5,164.2 233.5,179.2 241,179.2 241,194.2 
		233.5,194.2 233.5,249 218.5,249 218.5,94.4 	"/>
	<rect x="73.6" y="294" class="st2" width="41.3" height="154.6"/>
	<path class="st3" d="M151.1,309.5v-15H130V279H58.6v15.4H37.5v15h21.1v19.7H37.5v15h21.1v19.7H37.5v15h21.1v19.7H37.5v15h21.1v19.7
		H37.5v15h21.1v15.4H130v-15.4h21.1v-15H130v-19.7h21.1v-15H130v-19.7h21.1v-15H130v-19.7h21.1v-15H130v-19.7H151.1z M115,448.6
		H73.6V294H115V448.6z"/>
	<rect x="166.1" y="478.6" class="st3" width="15" height="15"/>
	<rect x="196.8" y="33.4" class="st2" width="15" height="16"/>
	<rect x="256.8" y="33.4" class="st2" width="15" height="16"/>
	<rect x="314.9" y="33.4" class="st2" width="105.1" height="16"/>
	<rect x="461.8" y="33.4" class="st2" width="15" height="16"/>
	<path class="st3" d="M491.8,49.4v-31h-45v31h-11.7v-31H299.9v31h-13.2v-31h-45v31h-15v-31h-45v31H7.5v444.2h143.6v-15H22.5V64.4
		h467v414.2H196.1v15h308.4V49.4H491.8z M211.8,49.4h-15v-16h15V49.4z M271.8,49.4h-15v-16h15V49.4z M420.1,49.4H314.9v-16h105.1
		V49.4z M476.8,49.4h-15v-16h15V49.4z"/>
	<polygon class="st3" points="82.5,79.4 37.5,79.4 37.5,264 82.5,264 82.5,194.2 67.5,194.2 67.5,249 52.5,249 52.5,94.4 67.5,94.4 
		67.5,149.2 82.5,149.2 	"/>
	<rect x="67.5" y="164.2" class="st3" width="15" height="15"/>
	<polygon class="st3" points="120.5,264 165.5,264 165.5,194.2 150.5,194.2 150.5,249 135.5,249 135.5,94.4 150.5,94.4 150.5,149.2 
		165.5,149.2 165.5,79.4 120.5,79.4 	"/>
	<rect x="150.5" y="164.2" class="st3" width="15" height="15"/>
	<rect x="233.5" y="164.2" class="st3" width="15" height="15"/>
	<polygon class="st3" points="248.5,79.4 203.5,79.4 203.5,264 248.5,264 248.5,194.2 233.5,194.2 233.5,249 218.5,249 218.5,94.4 
		233.5,94.4 233.5,149.2 248.5,149.2 	"/>
	<path class="st3" d="M474.5,127.5v-15h-15V94.4h-13.2v-15h-15v15h-12.9v-15h-15v15h-12.9v-15h-15v15h-12.9v-15h-15v15h-12.9v-15
		h-15v15h-12.9v-15h-15v15h-13.2v18.1h-15v15h15V147h-15v15h15v19.5h-15v15h15V216h-15v15h15V249h13.2v15h15v-15h12.9v15h15v-15
		h12.9v15h15v-15h12.9v15h15v-15h12.9v15h15v-15h12.9v15h15v-15h13.2V231h15v-15h-15v-19.5h15v-15h-15V162h15v-15h-15v-19.5H474.5z
		 M444.5,234h-151V109.4h151V234z"/>
	<rect x="233.5" y="360.3" class="st1" width="211" height="22.1"/>
	<rect x="233.5" y="426.6" class="st1" width="211" height="22.1"/>
	<path class="st3" d="M474.5,360.3v-15h-271v15h15v22.1h-15v15h271v-15h-15v-22.1H474.5z M444.5,382.3h-211v-22.1h211V382.3z"/>
	<path class="st3" d="M474.5,426.6v-15h-271v15h15v22.1h-15v15h271v-15h-15v-22.1H474.5z M444.5,448.6h-211v-22.1h211V448.6z"/>
	<rect x="334.6" y="294" class="st2" width="124.9" height="22.1"/>
	<path class="st3" d="M319.6,279v52.1h154.9V279H319.6z M459.5,316.1H334.6V294h124.9V316.1z"/>
	<rect x="218.5" y="294" class="st2" width="60" height="22.1"/>
	<path class="st3" d="M203.5,279v52.1h90V279H203.5z M278.5,316.1h-60V294h60V316.1z"/>
	<path class="st4" d="M293.5,109.4V234h151V109.4H293.5z M414.5,204h-91v-36.4l28.2-28.2h62.8V204z"/>
	<path class="st3" d="M345.4,124.4l-36.9,36.9V219h121v-94.6H345.4z M414.5,204h-91v-36.4l28.2-28.2h62.8V204z"/>
</g>
</svg>
