<?xml version="1.0" encoding="utf-8"?>
<!-- Generator: Adobe Illustrator 24.0.1, SVG Export Plug-In . SVG Version: 6.00 Build 0)  -->
<svg version="1.1" id="Layer_1" xmlns="http://www.w3.org/2000/svg" xmlns:xlink="http://www.w3.org/1999/xlink" x="0px" y="0px"
	 viewBox="0 0 512 512" style="enable-background:new 0 0 512 512;" xml:space="preserve">
<style type="text/css">
	.st0{fill:#BFD6DD;}
	.st1{fill:#2F5C72;}
</style>
<g>
	<polygon class="st0" points="192.2,45 207.2,45 207.2,52.5 222.2,52.5 222.2,45 237.2,45 237.2,52.5 320.8,52.5 320.8,119.2 
		192.2,119.2 	"/>
	<polygon class="st0" points="331.4,355.3 346.4,355.3 346.4,362.8 361.4,362.8 361.4,355.3 376.4,355.3 376.4,362.8 460,362.8 
		460,429.5 331.4,429.5 	"/>
	<polygon class="st0" points="53,355.3 68,355.3 68,362.8 83,362.8 83,355.3 98,355.3 98,362.8 181.6,362.8 181.6,429.5 53,429.5 	
		"/>
	<g>
		<path class="st1" d="M109.8,269.5v33.3h15v-33.3c2.3-1.3,4.2-3.2,5.5-5.5h34.1v-15h-34.1c-2.6-4.5-7.4-7.5-13-7.5
			c-8.3,0-15,6.7-15,15C102.3,262,105.3,266.9,109.8,269.5z"/>
		<rect x="318.1" y="249" class="st1" width="15" height="15"/>
		<path class="st1" d="M348.1,264h33.6c1.3,2.3,3.2,4.2,5.5,5.5v33.3h15v-33.3c4.5-2.6,7.5-7.4,7.5-13c0-8.3-6.7-15-15-15
			c-5.5,0-10.4,3-13,7.5h-33.6V264z"/>
		<path class="st1" d="M248.5,179.2h-33.8v15h82.5v-15h-33.8v-15h101.8V7.5H146.7v156.7h101.8V179.2z M161.7,22.5h188.6v96.7h-14.5
			V37.5h-98.6v15h83.6v66.7H192.2V37.5h-15v81.7h-15.5V22.5z M161.7,149.2v-15h188.6v15H161.7z"/>
		<rect x="207.2" y="37.5" class="st1" width="15" height="15"/>
		<path class="st1" d="M504.5,474.5V317.8H285.9v156.7h101.8v15h-33.8v15h82.5v-15h-33.8v-15H504.5z M300.9,332.8h188.6v96.7H475
			v-81.7h-98.6v15H460v66.7H331.4v-81.7h-15v81.7h-15.5V332.8z M300.9,459.5v-15h188.6v15H300.9z"/>
		<rect x="346.4" y="347.8" class="st1" width="15" height="15"/>
		<path class="st1" d="M7.5,474.5h101.8v15H75.5v15h82.5v-15h-33.8v-15h101.8V317.8H7.5V474.5z M22.5,332.8h188.6v96.7h-14.5v-81.7
			H98v15h83.6v66.7H53v-81.7H38v81.7H22.5V332.8z M22.5,444.5h188.6v15H22.5V444.5z"/>
		<rect x="68" y="347.8" class="st1" width="15" height="15"/>
		<rect x="179.4" y="249" class="st1" width="15" height="15"/>
		<path class="st1" d="M303.1,249h-33.6c-1.3-2.3-3.2-4.2-5.5-5.5v-34.3h-15v34.3c-2.3,1.3-4.2,3.2-5.5,5.5h-34.1v15h34.1
			c2.6,4.5,7.4,7.5,13,7.5s10.4-3,13-7.5h33.6V249z"/>
	</g>
</g>
</svg>
