<?xml version="1.0" encoding="utf-8"?>
<!-- Generator: Adobe Illustrator 24.0.1, SVG Export Plug-In . SVG Version: 6.00 Build 0)  -->
<svg version="1.1" id="Layer_1" xmlns="http://www.w3.org/2000/svg" xmlns:xlink="http://www.w3.org/1999/xlink" x="0px" y="0px"
	 viewBox="0 0 512 512" style="enable-background:new 0 0 512 512;" xml:space="preserve">
<style type="text/css">
	.st0{fill:#7FD5F7;}
	.st1{fill:#88FC8B;}
	.st2{fill:#BFD6DD;}
	.st3{fill:#2F5C72;}
</style>
<g>
	<polygon class="st0" points="273.3,373 273.3,408.6 258.5,393.8 238.8,413.4 213.1,387.7 199.3,401.5 199.3,373 	"/>
	<polygon class="st1" points="249.4,424.1 258.5,415 271.8,428.4 253.7,428.4 	"/>
	<polygon class="st1" points="199.3,422.7 213.1,409 232.5,428.4 199.3,428.4 	"/>
	<path class="st2" d="M22.5,225.5v97.6c0,1.7,0.1,3.3,0.3,4.9h71.5v-1.8c0-21,17.1-38,38-38h247.4c21,0,38,17.1,38,38v1.8h71.5
		c0.2-1.6,0.3-3.2,0.3-4.9v-97.6H22.5z M67.6,291.1h-15v-35.6h15V291.1z M322.1,264.3c-4.1,0-7.5-3.4-7.5-7.5s3.4-7.5,7.5-7.5
		s7.5,3.4,7.5,7.5S326.3,264.3,322.1,264.3z"/>
	<path class="st3" d="M184.3,358v85.4h104V358H184.3z M199.3,428.4v-5.6l13.8-13.8l19.4,19.4H199.3z M253.7,428.4l-4.3-4.3l9.1-9.1
		l13.4,13.4H253.7z M273.3,408.6l-14.9-14.9l-19.7,19.7l-25.7-25.7l-13.8,13.8V373h74V408.6z"/>
	<rect x="139.3" y="382.8" class="st2" width="15" height="76.7"/>
	<rect x="357.7" y="382.8" class="st2" width="15" height="76.7"/>
	<rect x="252.2" y="249.3" class="st3" width="15" height="15"/>
	<rect x="221.1" y="249.3" class="st3" width="15" height="15"/>
	<rect x="174.9" y="249.3" class="st3" width="30" height="15"/>
	<path class="st3" d="M322.1,234.3c-12.4,0-22.5,10.1-22.5,22.5c0,12.4,10.1,22.5,22.5,22.5s22.5-10.1,22.5-22.5
		C344.6,244.4,334.5,234.3,322.1,234.3z M322.1,264.3c-4.1,0-7.5-3.4-7.5-7.5s3.4-7.5,7.5-7.5s7.5,3.4,7.5,7.5
		S326.3,264.3,322.1,264.3z"/>
	<path class="st3" d="M37.6,240.5v65.6h45v-65.6H37.6z M67.6,291.1h-15v-35.6h15V291.1z"/>
	<rect x="302.5" y="358" class="st3" width="26.6" height="15"/>
	<rect x="302.5" y="393.2" class="st3" width="26.6" height="15"/>
	<rect x="302.5" y="428.4" class="st3" width="26.6" height="15"/>
	<circle class="st3" cx="244.4" cy="387.7" r="7.5"/>
	<rect x="394" y="164.1" class="st3" width="15" height="15"/>
	<rect x="103" y="164.1" class="st3" width="15" height="15"/>
	<rect x="184.3" y="463.6" class="st3" width="15" height="15"/>
	<rect x="214.3" y="463.6" class="st3" width="114.8" height="15"/>
	<path class="st3" d="M464.4,148.2c-11.2-18.9-31.7-30.6-53.7-30.6h-53V7.5H196.9l-42.6,42.6v67.6h-53c-21.9,0-42.5,11.7-53.7,30.6
		L7.5,215.9v107.1c0,32.9,26.8,59.7,59.7,59.7h57.1v91.7h30v30h203.4v-30h30v-91.7h57.1c32.9,0,59.7-26.8,59.7-59.7V215.9
		L464.4,148.2z M169.3,56.3l33.8-33.8h139.7v141.6H169.3V56.3z M60.5,155.9c8.5-14.3,24.1-23.2,40.8-23.2h53v31.4H133v15H379v-15
		h-21.3v-31.4h53c16.7,0,32.3,8.9,40.8,23.2l32.3,54.6H28.2L60.5,155.9z M94.3,367.8H67.2c-17.5,0-32.7-10.1-40-24.8h67.1V367.8z
		 M154.3,459.5h-15v-76.7h15V459.5z M342.7,489.5H169.3V343h173.4V489.5z M372.7,459.5h-15v-76.7h15V459.5z M402.7,367.8h-45V343
		H379v-15h-21.3H154.3H133v15h21.3v24.8h-45v-41.5c0-12.7,10.3-23,23-23h247.4c12.7,0,23,10.3,23,23V367.8z M444.8,367.8h-27.1V343
		h67.1C477.5,357.7,462.3,367.8,444.8,367.8z M489.5,323.1c0,1.7-0.1,3.3-0.3,4.9h-71.5v-1.8c0-21-17.1-38-38-38H132.3
		c-21,0-38,17.1-38,38v1.8H22.8c-0.2-1.6-0.3-3.2-0.3-4.9v-97.6h467V323.1z"/>
</g>
</svg>
