<?xml version="1.0" encoding="utf-8"?>
<!-- Generator: Adobe Illustrator 24.0.1, SVG Export Plug-In . SVG Version: 6.00 Build 0)  -->
<svg version="1.1" id="Layer_1" xmlns="http://www.w3.org/2000/svg" xmlns:xlink="http://www.w3.org/1999/xlink" x="0px" y="0px"
	 viewBox="0 0 512 512" style="enable-background:new 0 0 512 512;" xml:space="preserve">
<style type="text/css">
	.st0{fill:#2F5C72;}
	.st1{fill:#BFD6DD;}
	.st2{fill:#7FD5F7;}
	.st3{fill:#F9DE6B;}
</style>
<g>
	<path class="st0" d="M230.3,87.5c16.3-6.6,35-6.6,51.3,0l5.6-13.9c-20.2-8.1-42.4-8.1-62.5,0L230.3,87.5z"/>
	<path class="st0" d="M256,22.5c23.5,0,46.3,6.3,66.2,18.3l7.7-12.9C307.7,14.6,282.2,7.5,256,7.5c-26.2,0-51.7,7.1-73.9,20.4
		l7.7,12.9C209.7,28.8,232.5,22.5,256,22.5z"/>
	<path class="st0" d="M309,50.5c-16.2-8.5-34.5-13-53-13c-18.5,0-36.8,4.5-53,13l7,13.3c14-7.4,29.9-11.3,46-11.3s32,3.9,46,11.3
		L309,50.5z"/>
	<polygon class="st1" points="307.1,148.3 339.9,174.5 356.1,221.1 356.1,318.9 307.1,274.5 	"/>
	<polygon class="st2" points="263.5,233.2 277.1,233.2 277.1,177.5 263.5,177.5 263.5,162.5 292.1,162.5 292.1,248.2 263.5,248.2 	
		"/>
	<rect x="249.9" y="192.5" class="st3" width="12.1" height="25.7"/>
	<polygon class="st2" points="219.9,162.5 248.5,162.5 248.5,177.5 234.9,177.5 234.9,233.2 248.5,233.2 248.5,248.2 219.9,248.2 	
		"/>
	<polygon class="st1" points="155.9,221.1 172.1,174.5 204.9,148.3 204.9,274.5 155.9,318.9 	"/>
	<polygon class="st3" points="125.9,275.9 125.9,246.5 140.9,235 140.9,287.4 	"/>
	<polygon class="st3" points="140.9,325.2 140.9,370.2 127.2,343.6 	"/>
	<polygon class="st2" points="125.9,419.8 125.9,373.8 158.2,436.6 	"/>
	<polygon class="st2" points="386.1,419.8 353.8,436.6 386.1,373.8 	"/>
	<polygon class="st3" points="386.1,341.1 371.1,370.2 371.1,279.7 386.1,299.8 	"/>
	<path class="st0" d="M371.1,254.5v-35.9l-18.5-53.1l-60.6-48.3v30.3h-72.1v-30.3l-60.6,48.3l-17.3,49.8l-31.2,23.8v44.3L138,304
		l-27.1,36.4v88.5L256,504.5l145.1-75.6v-134L371.1,254.5z M307.1,148.3l32.8,26.2l16.2,46.6v97.7l-49-44.3V148.3z M263.5,233.2
		h13.6v-55.7h-13.6v-15h28.6v85.7h-28.6V233.2z M249.9,192.5h12.1v25.7h-12.1V192.5z M219.9,162.5h28.6v15h-13.6v55.7h13.6v15h-28.6
		V162.5z M155.9,221.1l16.2-46.6l32.8-26.2v126.2l-49,44.3V221.1z M125.9,275.9v-29.4l15-11.5v52.4L125.9,275.9z M140.9,325.2v45
		l-13.7-26.6L140.9,325.2z M125.9,419.8v-45.9l32.3,62.8L125.9,419.8z M256,487.6l-74.8-39l-25.3-49.2v-60.3l64-57.9v-18h28.6v57.2
		h15v-57.2h28.6v18l64,57.9v60.3l-25.3,49.2L256,487.6z M386.1,419.8l-32.3,16.8l32.3-62.8V419.8z M386.1,341.1l-15,29.2v-90.6
		l15,20.2V341.1z"/>
	<rect x="248.5" y="335.4" class="st0" width="15" height="15"/>
</g>
</svg>
