<svg id="Layer_1" data-name="Layer 1" xmlns="http://www.w3.org/2000/svg" viewBox="0 0 64 64"><title>Artboard 13</title><path d="M30.457,20.492a27.72,27.72,0,0,1-5.246-8.2,22.166,22.166,0,0,0-13.7,12.819C23.308,27.661,28.88,22.4,30.457,20.492Z" style="fill:#f7cd48"/><circle cx="17.838" cy="10.997" r="2.344" style="fill:#f7cd48"/><path d="M52.336,24.731a22.2,22.2,0,0,0-8.424-10,4.381,4.381,0,0,1-.37-.236,21.98,21.98,0,0,0-16.378-2.731C33.56,26.212,46.1,25.922,52.336,24.731Z" style="fill:#f7cd48"/><path d="M44.661,12.834c.125.077.247.157.37.237a2.321,2.321,0,0,0,1.068.269,2.371,2.371,0,1,0-1.438-.507Z" style="fill:#f7cd48"/><path d="M46.94,27.255a22.272,22.272,0,0,1-15.046-5.374c-1.616,1.9-6.017,5.923-14.35,5.923a31,31,0,0,1-6.691-.8,22.061,22.061,0,1,0,42.182-.377A30.894,30.894,0,0,1,46.94,27.255ZM24.569,34.617a2.834,2.834,0,1,0-5.667,0,1,1,0,0,1-2,0,4.834,4.834,0,1,1,9.667,0,1,1,0,0,1-2,0ZM32,48.523A6.632,6.632,0,0,1,25.375,41.9a1,1,0,0,1,2,0,4.625,4.625,0,1,0,9.25,0,1,1,0,0,1,2,0A6.632,6.632,0,0,1,32,48.523ZM46.1,35.617a1,1,0,0,1-1-1,2.834,2.834,0,1,0-5.667,0,1,1,0,0,1-2,0,4.834,4.834,0,1,1,9.667,0A1,1,0,0,1,46.1,35.617Z" style="fill:#dd3e36"/><path d="M54.676,25.237c0-.007-.007-.012-.009-.018a24.142,24.142,0,0,0-7.006-10.181A4.339,4.339,0,1,0,41.755,11c0,.107.024.208.032.313a23.961,23.961,0,0,0-16.33-1.176.412.412,0,0,0-.049.009c-.005,0-.008.007-.013.009a23.86,23.86,0,0,0-3.247,1.188c.009-.115.035-.226.035-.343a4.344,4.344,0,1,0-5.859,4.056,24.129,24.129,0,0,0-7.1,10.481c-.007.021-.022.037-.028.059s0,.019,0,.027a24.061,24.061,0,1,0,45.48-.375ZM46.1,8.653a2.344,2.344,0,1,1,0,4.688,2.321,2.321,0,0,1-1.068-.269c-.123-.08-.245-.16-.37-.237A2.335,2.335,0,0,1,46.1,8.653ZM32,11.222a21.922,21.922,0,0,1,11.543,3.271,4.381,4.381,0,0,0,.37.236,22.2,22.2,0,0,1,8.424,10C46.1,25.922,33.56,26.212,27.165,11.762A22.043,22.043,0,0,1,32,11.222ZM15.494,11a2.344,2.344,0,1,1,2.344,2.344A2.347,2.347,0,0,1,15.494,11Zm9.717,1.3a27.72,27.72,0,0,0,5.246,8.2c-1.577,1.9-7.148,7.169-18.944,4.622A22.166,22.166,0,0,1,25.211,12.295ZM32,55.347a22.053,22.053,0,0,1-21.147-28.34,31,31,0,0,0,6.691.8c8.334,0,12.734-4.023,14.35-5.923A22.272,22.272,0,0,0,46.94,27.255a30.894,30.894,0,0,0,6.095-.625A22.061,22.061,0,0,1,32,55.347Z" style="fill:#1e0e07"/><path d="M26.569,34.617a4.834,4.834,0,1,0-9.667,0,1,1,0,0,0,2,0,2.834,2.834,0,1,1,5.667,0,1,1,0,0,0,2,0Z" style="fill:#1e0e07"/><path d="M42.265,29.783a4.839,4.839,0,0,0-4.833,4.834,1,1,0,0,0,2,0,2.834,2.834,0,1,1,5.667,0,1,1,0,0,0,2,0A4.84,4.84,0,0,0,42.265,29.783Z" style="fill:#1e0e07"/><path d="M37.625,40.9a1,1,0,0,0-1,1,4.625,4.625,0,1,1-9.25,0,1,1,0,0,0-2,0,6.625,6.625,0,1,0,13.25,0A1,1,0,0,0,37.625,40.9Z" style="fill:#1e0e07"/></svg>