<svg id="Layer_1" data-name="Layer 1" xmlns="http://www.w3.org/2000/svg" viewBox="0 0 64 64"><title>Artboard 8</title><circle cx="32" cy="45.789" r="3.238" style="fill:#dd3e36"/><path d="M32,31c5.791,0,10.5-5.2,10.5-11.584S37.791,7.833,32,7.833V7.792a24.208,24.208,0,0,0-8.256,46.966A14.072,14.072,0,0,1,19.5,44.584C19.5,37.094,25.107,31,32,31Zm0-18.027a5.238,5.238,0,1,1-5.238,5.238A5.244,5.244,0,0,1,32,12.973Z" style="fill:#dd3e36"/><circle cx="32" cy="18.211" r="3.238" style="fill:#f7cd48"/><path d="M40.258,9.243A14.067,14.067,0,0,1,44.5,19.416C44.5,26.906,38.894,33,32,33c-5.791,0-10.5,5.2-10.5,11.584S26.209,56.168,32,56.168v.041A24.209,24.209,0,0,0,40.258,9.243ZM32,51.027a5.238,5.238,0,1,1,5.238-5.238A5.244,5.244,0,0,1,32,51.027Z" style="fill:#f7cd48"/><path d="M32,5.792A26.209,26.209,0,1,0,58.209,32,26.239,26.239,0,0,0,32,5.792ZM7.791,32A24.237,24.237,0,0,1,32,7.792v.041c5.791,0,10.5,5.2,10.5,11.583S37.791,31,32,31c-6.893,0-12.5,6.094-12.5,13.584a14.072,14.072,0,0,0,4.246,10.173A24.251,24.251,0,0,1,7.791,32ZM32,56.209v-.041c-5.791,0-10.5-5.2-10.5-11.583S26.209,33,32,33c6.894,0,12.5-6.094,12.5-13.584A14.067,14.067,0,0,0,40.258,9.243,24.209,24.209,0,0,1,32,56.209Z" style="fill:#1e0e07"/><path d="M32,23.449a5.238,5.238,0,1,0-5.238-5.238A5.244,5.244,0,0,0,32,23.449Zm0-8.476a3.238,3.238,0,1,1-3.238,3.238A3.242,3.242,0,0,1,32,14.973Z" style="fill:#1e0e07"/><path d="M32,40.551a5.238,5.238,0,1,0,5.238,5.238A5.244,5.244,0,0,0,32,40.551Zm0,8.476a3.238,3.238,0,1,1,3.238-3.238A3.242,3.242,0,0,1,32,49.027Z" style="fill:#1e0e07"/></svg>