<svg id="Layer_1" data-name="Layer 1" xmlns="http://www.w3.org/2000/svg" viewBox="0 0 64 64"><title>Artboard 16</title><path d="M47.664,44.093A19.488,19.488,0,0,1,44.7,46.061a37.268,37.268,0,0,1,7.711,3.561A28.21,28.21,0,0,0,47.664,44.093Z" style="fill:#dd3e36"/><path d="M16.451,43.992a28.4,28.4,0,0,0-4.861,5.626A37.579,37.579,0,0,1,19.488,46,21.389,21.389,0,0,1,16.451,43.992Z" style="fill:#dd3e36"/><path d="M10.481,52.85c2.137,1.035,6.75,2.833,11.151,1.654a11.375,11.375,0,0,0,6.677-5.222,40.631,40.631,0,0,1-6.141-2C21.257,47.522,14.9,49.274,10.481,52.85Z" style="fill:#dd3e36"/><path d="M35.72,49.331a11.351,11.351,0,0,0,6.658,5.176c4.414,1.176,9.013-.62,11.143-1.656-4.209-3.407-10.166-5.155-11.509-5.518A43.566,43.566,0,0,1,35.72,49.331Z" style="fill:#dd3e36"/><path d="M49.941,37.231c2.232-10.1-14.05-23.579-18.878-27.318a11.578,11.578,0,0,1-3.287,4.954C16.938,23.967,12.3,31.515,14,37.309,16.368,45.424,30.66,47.79,32.3,48.036,42.872,46,48.807,42.366,49.941,37.231Zm-3.662-1.72h-.043a1,1,0,0,1-1-.958c-.309-7.417-7.43-12.371-7.5-12.421a1,1,0,0,1,1.129-1.65c.327.224,8.02,5.581,8.37,13.987A1,1,0,0,1,46.279,35.512Z" style="fill:#f7cd48"/><path d="M38.866,20.483a1,1,0,0,0-1.129,1.65c.071.05,7.192,5,7.5,12.421a1,1,0,0,0,1,.958h.043a1,1,0,0,0,.957-1.041C46.887,26.065,39.193,20.707,38.866,20.483Z" style="fill:#1e0e07"/><path d="M56.207,52.706l-.019-.047,0-.006a26.851,26.851,0,0,0-7.036-9.917,10.735,10.735,0,0,0,2.745-5.073C54.778,24.615,31.887,7.993,30.911,7.292a1,1,0,0,0-1.584.813c0,2.757-2.822,5.219-2.843,5.236-11.5,9.652-16.344,17.906-14.405,24.532a11.458,11.458,0,0,0,2.873,4.772A26.942,26.942,0,0,0,7.814,52.653l0,.006-.018.047a.953.953,0,0,0-.047.26.6.6,0,0,0-.013.07.977.977,0,0,0,.061.357.827.827,0,0,0,.044.081.986.986,0,0,0,.147.233c.01.012.013.026.024.037s.054.032.078.054a.971.971,0,0,0,.116.1,21.79,21.79,0,0,0,10.336,3,13.923,13.923,0,0,0,3.6-.457,13.526,13.526,0,0,0,8.224-6.706c1.03.2,1.707.292,1.837.309a.947.947,0,0,0,.129.009,1,1,0,0,0,.186-.018c.4-.075.773-.159,1.158-.239a13.5,13.5,0,0,0,8.188,6.645,13.923,13.923,0,0,0,3.6.457,21.807,21.807,0,0,0,10.336-3,.971.971,0,0,0,.116-.1c.024-.022.056-.03.078-.054s.014-.025.024-.037a.986.986,0,0,0,.147-.233.827.827,0,0,0,.044-.081.977.977,0,0,0,.062-.357.6.6,0,0,0-.013-.07A.954.954,0,0,0,56.207,52.706Zm-3.793-3.085A37.268,37.268,0,0,0,44.7,46.061a19.488,19.488,0,0,0,2.961-1.968A28.21,28.21,0,0,1,52.414,49.621ZM16.451,43.992a21.389,21.389,0,0,0,3.037,2,37.579,37.579,0,0,0-7.9,3.623A28.4,28.4,0,0,1,16.451,43.992ZM21.633,54.5c-4.4,1.179-9.015-.619-11.151-1.654,4.417-3.575,10.775-5.328,11.687-5.565a40.631,40.631,0,0,0,6.141,2A11.375,11.375,0,0,1,21.633,54.5ZM32.3,48.036C30.66,47.79,16.368,45.424,14,37.309c-1.693-5.794,2.94-13.342,13.778-22.441a11.578,11.578,0,0,0,3.287-4.954c4.828,3.739,21.11,17.221,18.878,27.318C48.807,42.366,42.872,46,32.3,48.036Zm10.073,6.471a11.351,11.351,0,0,1-6.658-5.176,43.566,43.566,0,0,0,6.292-2c1.343.362,7.3,2.11,11.509,5.518C51.391,53.887,46.792,55.683,42.378,54.507Z" style="fill:#1e0e07"/></svg>