<svg id="Layer_1" data-name="Layer 1" xmlns="http://www.w3.org/2000/svg" viewBox="0 0 64 64"><title>Artboard 6</title><path d="M34.91,14.561a3.023,3.023,0,0,0-5.82,0,25.747,25.747,0,0,1,5.82,0Z" style="fill:#dd3e36"/><path d="M24.487,17.59a24.378,24.378,0,0,0-16.8,22.14h8.578C16.479,30.176,19.749,21.907,24.487,17.59Z" style="fill:#dd3e36"/><path d="M33,36.522a8.582,8.582,0,0,1,5.734,3.208h7.005C45.455,27.363,39.93,17.354,33,16.467Z" style="fill:#dd3e36"/><path d="M25.266,39.73A8.582,8.582,0,0,1,31,36.522V16.467c-6.93.887-12.455,10.9-12.739,23.263Z" style="fill:#f7cd48"/><path d="M23.406,45.052a8.541,8.541,0,0,1,.669-3.322H7.667v9.916H26.5A8.575,8.575,0,0,1,23.406,45.052Z" style="fill:#f7cd48"/><path d="M39.513,17.59c4.738,4.317,8.008,12.586,8.223,22.14h8.578A24.378,24.378,0,0,0,39.513,17.59Z" style="fill:#f7cd48"/><path d="M39.924,41.73A8.577,8.577,0,0,1,37.5,51.646H56.333V41.73H39.924Z" style="fill:#f7cd48"/><circle cx="32" cy="45.052" r="6.594" style="fill:#dd3e36"/><path d="M36.989,14.876a5.013,5.013,0,0,0-9.978,0A26.373,26.373,0,0,0,5.667,40.73V52.646a1,1,0,0,0,1,1H57.333a1,1,0,0,0,1-1V40.73A26.373,26.373,0,0,0,36.989,14.876Zm8.75,24.854H38.734A8.582,8.582,0,0,0,33,36.522V16.467C39.93,17.354,45.455,27.363,45.739,39.73ZM32,12.355a3.036,3.036,0,0,1,2.91,2.206,25.747,25.747,0,0,0-5.82,0A3.036,3.036,0,0,1,32,12.355Zm-1,4.112V36.522a8.582,8.582,0,0,0-5.734,3.208H18.261C18.545,27.363,24.07,17.354,31,16.467ZM24.487,17.59c-4.738,4.317-8.008,12.586-8.223,22.14H7.687A24.378,24.378,0,0,1,24.487,17.59ZM7.667,51.646V41.73H24.076A8.578,8.578,0,0,0,26.5,51.646Zm24.334,0a6.594,6.594,0,1,1,6.594-6.594A6.6,6.6,0,0,1,32,51.646Zm24.333,0H37.5a8.577,8.577,0,0,0,2.422-9.916H56.333Zm-8.6-11.916c-.215-9.554-3.484-17.822-8.223-22.14a24.378,24.378,0,0,1,16.8,22.14Z" style="fill:#1e0e07"/></svg>