<svg id="Layer_1" data-name="Layer 1" xmlns="http://www.w3.org/2000/svg" viewBox="0 0 64 64"><title>Artboard 4</title><path d="M32,15A17,17,0,1,0,49,32,17.019,17.019,0,0,0,32,15ZM25.627,41.478H24.521v1.1a1,1,0,1,1-2,0v-1.1h-1.1a1,1,0,0,1,0-2h1.1v-1.1a1,1,0,1,1,2,0v1.105h1.1a1,1,0,1,1,0,2Zm0-16.955H24.521v1.1a1,1,0,1,1-2,0v-1.1h-1.1a1,1,0,0,1,0-2h1.1v-1.1a1,1,0,1,1,2,0v1.105h1.1a1,1,0,1,1,0,2ZM37.291,35.292a2,2,0,0,1-2,2H28.709a2,2,0,0,1-2-2V28.709a2,2,0,0,1,2-2h6.582a2,2,0,0,1,2,2Zm5.291,6.187h-1.1v1.1a1,1,0,1,1-2,0V41.478h-1.1a1,1,0,0,1,0-2h1.105v-1.1a1,1,0,1,1,2,0v1.1h1.1a1,1,0,0,1,0,2Zm0-16.955h-1.1v1.1a1,1,0,1,1-2,0V24.522h-1.1a1,1,0,0,1,0-2h1.105v-1.1a1,1,0,1,1,2,0v1.1h1.1a1,1,0,0,1,0,2Z" style="fill:#f7cd48"/><rect x="28.709" y="28.708" width="6.582" height="6.583" style="fill:#dd3e36"/><path d="M32,10.833A21.167,21.167,0,1,0,53.167,32,21.191,21.191,0,0,0,32,10.833ZM32,51A19,19,0,1,1,51,32,19.022,19.022,0,0,1,32,51Z" style="fill:#dd3e36"/><path d="M32,8.833A23.167,23.167,0,1,0,55.167,32,23.193,23.193,0,0,0,32,8.833Zm0,44.334A21.167,21.167,0,1,1,53.167,32,21.191,21.191,0,0,1,32,53.167Z" style="fill:#1e0e07"/><path d="M32,13A19,19,0,1,0,51,32,19.022,19.022,0,0,0,32,13Zm0,36A17,17,0,1,1,49,32,17.019,17.019,0,0,1,32,49Z" style="fill:#1e0e07"/><path d="M35.291,26.709H28.709a2,2,0,0,0-2,2v6.583a2,2,0,0,0,2,2h6.582a2,2,0,0,0,2-2V28.709A2,2,0,0,0,35.291,26.709Zm-6.582,8.583V28.709h6.582v6.583Z" style="fill:#1e0e07"/><path d="M25.627,22.523h-1.1V21.418a1,1,0,1,0-2,0v1.1h-1.1a1,1,0,0,0,0,2h1.1v1.1a1,1,0,1,0,2,0v-1.1h1.106a1,1,0,1,0,0-2Z" style="fill:#1e0e07"/><path d="M42.582,39.478h-1.1v-1.1a1,1,0,1,0-2,0v1.1H38.373a1,1,0,0,0,0,2h1.1v1.105a1,1,0,1,0,2,0v-1.1h1.1a1,1,0,0,0,0-2Z" style="fill:#1e0e07"/><path d="M42.582,22.523h-1.1v-1.1a1,1,0,1,0-2,0v1.1H38.373a1,1,0,0,0,0,2h1.1v1.105a1,1,0,1,0,2,0v-1.1h1.1a1,1,0,0,0,0-2Z" style="fill:#1e0e07"/><path d="M25.627,39.478h-1.1V38.373a1,1,0,1,0-2,0v1.1h-1.1a1,1,0,0,0,0,2h1.1v1.1a1,1,0,1,0,2,0v-1.1h1.106a1,1,0,1,0,0-2Z" style="fill:#1e0e07"/></svg>