<svg id="Layer_1" data-name="Layer 1" xmlns="http://www.w3.org/2000/svg" viewBox="0 0 64 64"><title>Artboard 15</title><polygon points="11.852 26.545 22.197 26.545 29.145 11.172 11.852 26.545" style="fill:#f7cd48"/><polygon points="41.783 26.545 52.128 26.545 34.835 11.172 41.783 26.545" style="fill:#f7cd48"/><polygon points="24.392 26.545 39.589 26.545 31.99 9.732 24.392 26.545" style="fill:#dd3e36"/><path d="M55.311,26.7,32.654,6.558c-.015-.013-.033-.018-.049-.029A.985.985,0,0,0,32.4,6.4c-.03-.014-.059-.03-.09-.041A1,1,0,0,0,32,6.307h-.027a1,1,0,0,0-.306.056c-.031.011-.06.027-.09.041a.982.982,0,0,0-.206.125c-.015.012-.034.016-.049.029L8.559,26.8a1,1,0,0,0,.664,1.747H30.99V55.693H23.87a1,1,0,0,0,0,2H40.11a1,1,0,0,0,0-2H32.99V28.545H54.777a1,1,0,0,0,.534-1.846ZM22.2,26.545H11.852L29.145,11.172Zm2.194,0,7.6-16.812,7.6,16.813Zm17.392,0L34.835,11.172,52.128,26.545Z" style="fill:#1e0e07"/></svg>