<svg id="Layer_1" data-name="Layer 1" xmlns="http://www.w3.org/2000/svg" viewBox="0 0 64 64"><title>Artboard 10</title><path d="M32.474,14.73A18.516,18.516,0,0,0,14.015,32.238H50.932A18.515,18.515,0,0,0,32.474,14.73Zm7.277,15.263a1.5,1.5,0,0,1,0-3A1.5,1.5,0,0,1,39.751,29.992Zm2.635-5.008a1.5,1.5,0,0,1,0-3A1.5,1.5,0,0,1,42.386,24.984Zm3.9,5.536a1.5,1.5,0,0,1,0-3A1.5,1.5,0,0,1,46.289,30.521Z" style="fill:#f7cd48"/><path d="M23.51,49.638H41.437c8.422,0,10.856-11.72,11.412-15.4H12.1C12.659,37.919,15.1,49.638,23.51,49.638Z" style="fill:#dd3e36"/><rect x="23.772" y="51.638" width="17.404" height="2.324" style="fill:#dd3e36"/><path d="M53.987,32.238H52.932a20.456,20.456,0,0,0-33.1-15.118l-8.5-8.777A1,1,0,1,0,9.9,9.733l8.42,8.7c-.241.23-.475.467-.7.709l-7.043-4.781a1,1,0,1,0-1.123,1.654l6.854,4.652a20.377,20.377,0,0,0-4.291,11.573H10.961a1,1,0,0,0-1,1.091c.065.708,1.63,16.525,11.807,18.162v3.471a1,1,0,0,0,1,1h19.4a1,1,0,0,0,1-1V51.491c10.177-1.637,11.742-17.454,11.807-18.162a1,1,0,0,0-1-1.091ZM32.474,14.73A18.515,18.515,0,0,1,50.932,32.238H14.015A18.516,18.516,0,0,1,32.474,14.73Zm8.7,39.232h-17.4V51.638h17.4Zm.262-4.324H23.51c-8.408,0-10.851-11.719-11.411-15.4H52.849C52.293,37.918,49.859,49.638,41.437,49.638Z" style="fill:#1e0e07"/><path d="M46.289,27.521a1.5,1.5,0,0,0,0,3A1.5,1.5,0,0,0,46.289,27.521Z" style="fill:#1e0e07"/><path d="M39.751,26.992a1.5,1.5,0,0,0,0,3A1.5,1.5,0,0,0,39.751,26.992Z" style="fill:#1e0e07"/><path d="M42.386,21.984a1.5,1.5,0,0,0,0,3A1.5,1.5,0,0,0,42.386,21.984Z" style="fill:#1e0e07"/></svg>