<?xml version="1.0" encoding="utf-8"?>
<!-- Generator: Adobe Illustrator 23.0.0, SVG Export Plug-In . SVG Version: 6.00 Build 0)  -->
<svg version="1.1" id="Layer_1" xmlns="http://www.w3.org/2000/svg" xmlns:xlink="http://www.w3.org/1999/xlink" x="0px" y="0px"
	 viewBox="0 0 512 512" style="enable-background:new 0 0 512 512;" xml:space="preserve">
<style type="text/css">
	.st0{fill:#32283C;}
	.st1{fill:#463C4B;}
	.st2{fill:#E6E6EB;}
	.st3{fill:#A5C3DC;}
	.st4{fill:#FF4646;}
	.st5{fill:#CD3232;}
	.st6{fill:#F0915A;}
	.st7{fill:#FAB991;}
	.st8{fill:#F5732D;}
	.st9{fill:#FAA037;}
	.st10{fill:#78AF41;}
	.st11{fill:#788CB4;}
	.st12{fill:#466932;}
	.st13{fill:#FBB993;}
	.st14{fill:#F1905B;}
	.st15{fill:#23192D;}
	.st16{fill:#32293C;}
	.st17{fill:#B92323;}
</style>
<g>
	<g>
		<path class="st0" d="M416,208h-64v-32c0-52.935-43.065-96-96-96s-96,43.065-96,96v32H96v-32c0-88.225,71.776-160,160-160
			c88.225,0,160,71.775,160,160V208z"/>
	</g>
	<g>
		<path class="st5" d="M416,496H96c-17.673,0-32-14.327-32-32V240c0-17.673,14.327-32,32-32h320c17.673,0,32,14.327,32,32v224
			C448,481.673,433.673,496,416,496z"/>
	</g>
	<g>
		<path class="st4" d="M320,496H96c-17.673,0-32-14.327-32-32V240c0-17.673,14.327-32,32-32h224c17.673,0,32,14.327,32,32v224
			C352,481.673,337.673,496,320,496z"/>
	</g>
	<g>
		<g>
			<circle class="st9" cx="208" cy="352" r="112"/>
		</g>
		<path class="st2" d="M232.099,350.633L194.634,331.9c-4.092-2.046-6.634-6.158-6.634-10.733V320c0-6.617,5.383-12,12-12h16
			c6.617,0,12,5.383,12,12c0,6.627,5.373,12,12,12s12-5.373,12-12c0-18.498-14.026-33.775-32-35.772V272c0-6.627-5.373-12-12-12
			s-12,5.373-12,12v12.228c-17.974,1.997-32,17.274-32,35.772v1.167c0,13.724,7.625,26.063,19.901,32.2l37.465,18.732
			c4.092,2.046,6.634,6.158,6.634,10.733V384c0,6.617-5.383,12-12,12h-16c-6.617,0-12-5.383-12-12c0-6.627-5.373-12-12-12
			s-12,5.373-12,12c0,18.498,14.026,33.775,32,35.772V432c0,6.627,5.373,12,12,12s12-5.373,12-12v-12.228
			c17.974-1.997,32-17.274,32-35.772v-1.167C252,369.109,244.375,356.771,232.099,350.633z"/>
	</g>
	<g>
		<path class="st1" d="M256,16L256,16C167.634,16,96,87.634,96,176v32h32v-32c0-70.692,57.307-128,128-128h0c8.837,0,16-7.164,16-16
			S264.837,16,256,16z"/>
	</g>
	<g>
		<path class="st1" d="M368,160c-8.837,0-16,7.163-16,16v32h32v-32C384,167.163,376.837,160,368,160z"/>
	</g>
</g>
</svg>
