<?xml version="1.0" encoding="utf-8"?>
<!-- Generator: Adobe Illustrator 23.0.0, SVG Export Plug-In . SVG Version: 6.00 Build 0)  -->
<svg version="1.1" id="Layer_1" xmlns="http://www.w3.org/2000/svg" xmlns:xlink="http://www.w3.org/1999/xlink" x="0px" y="0px"
	 viewBox="0 0 512 512" style="enable-background:new 0 0 512 512;" xml:space="preserve">
<style type="text/css">
	.st0{fill:#32283C;}
	.st1{fill:#463C4B;}
	.st2{fill:#E6E6EB;}
	.st3{fill:#A5C3DC;}
	.st4{fill:#FF4646;}
	.st5{fill:#CD3232;}
	.st6{fill:#F0915A;}
	.st7{fill:#FAB991;}
	.st8{fill:#F5732D;}
	.st9{fill:#FAA037;}
	.st10{fill:#78AF41;}
	.st11{fill:#788CB4;}
	.st12{fill:#466932;}
	.st13{fill:#FBB993;}
	.st14{fill:#F1905B;}
	.st15{fill:#23192D;}
	.st16{fill:#32293C;}
	.st17{fill:#B92323;}
</style>
<g>
	<g>
		<path class="st5" d="M471.996,305.007C461.079,285.327,440.1,272,416,272h-64c-35.346,0-64,28.654-64,64
			c0,29.822,20.396,54.879,48,61.984V464c0,8.836,7.163,16,16,16h48c8.837,0,16-7.164,16-16v-64c24.1,0,45.079-13.327,55.996-33.007
			C485.8,363.442,496,350.912,496,336l0,0C496,321.088,485.8,308.558,471.996,305.007z"/>
	</g>
	<g>
		<path class="st4" d="M416,336c0-35.346-28.654-64-64-64s-64,28.654-64,64c0,29.821,20.396,54.879,48,61.984V464
			c0,8.836,7.163,16,16,16s16-7.164,16-16v-66.016C395.604,390.879,416,365.821,416,336z"/>
	</g>
	<g>
		<path class="st0" d="M200,208l29.088,29.088C261.687,269.687,305.899,288,352,288h0c26.51,0,48,21.49,48,48v0
			c0,26.51-21.49,48-48,48h-2.667c-46.101,0-90.313,18.313-122.912,50.912L200,461.333V208z"/>
	</g>
	<g>
		<circle class="st4" cx="152" cy="336" r="136"/>
	</g>
	<g>
		<circle class="st1" cx="152" cy="336" r="104"/>
	</g>
	<g>
		<path class="st0" d="M112,336L112,336c0,17.673,14.327,32,32,32h106.976c3.257-10.082,5.024-20.834,5.024-32
			s-1.767-21.918-5.024-32H144C126.327,304,112,318.327,112,336z"/>
	</g>
	<g>
		<circle class="st4" cx="144" cy="336" r="32"/>
	</g>
	<g>
		<path class="st3" d="M384,32H128c-17.673,0-32,14.327-32,32v128c0,17.673,14.327,32,32,32h32v20.686
			c0,6.248,5.065,11.314,11.314,11.314h48c3,0,5.878-1.192,8-3.314L256,224h128c17.673,0,32-14.327,32-32V64
			C416,46.327,401.673,32,384,32z"/>
	</g>
	<g>
		<path class="st2" d="M352,32H128c-17.673,0-32,14.327-32,32v128c0,17.673,14.327,32,32,32h32v20.686
			c0,6.248,5.065,11.314,11.314,11.314c3,0,5.878-1.192,8-3.314L208,224h144c17.673,0,32-14.327,32-32V64
			C384,46.327,369.673,32,352,32z"/>
	</g>
	<g>
		<g>
			<path class="st4" d="M192,127.999c-17.645,0-32-14.355-32-32s14.355-32,32-32s32,14.355,32,32S209.645,127.999,192,127.999z
				 M192,79.999c-8.822,0-16,7.178-16,16s7.178,16,16,16s16-7.178,16-16S200.822,79.999,192,79.999z"/>
		</g>
		<g>
			<path class="st4" d="M288,191.999c-17.645,0-32-14.355-32-32s14.355-32,32-32s32,14.355,32,32S305.645,191.999,288,191.999z
				 M288,143.999c-8.822,0-16,7.178-16,16s7.178,16,16,16s16-7.178,16-16S296.822,143.999,288,143.999z"/>
		</g>
		<g>
			<path class="st4" d="M192,183.999c-2.047,0-4.095-0.781-5.657-2.343c-3.125-3.124-3.125-8.189,0-11.313l96-96
				c3.125-3.124,8.189-3.124,11.314,0c3.124,3.124,3.124,8.189,0,11.313l-96,96C196.095,183.218,194.047,183.999,192,183.999z"/>
		</g>
	</g>
</g>
</svg>
