<svg id="Layer_1" data-name="Layer 1" xmlns="http://www.w3.org/2000/svg" viewBox="0 0 128 128"><title>BATTERY</title><circle cx="64" cy="64" r="42.625" style="fill:#6f6571"/><circle cx="64" cy="64" r="34" style="fill:#6f6571"/><circle cx="64" cy="64" r="25.01" style="fill:#4b3f4e"/><circle cx="64" cy="64" r="15.382" style="fill:#8bb3ea"/><path d="M106.625,64H64L94.14,94.14A42.491,42.491,0,0,0,106.625,64Z" style="fill:#8bb3ea"/><path d="M21.375,64H64L33.86,33.86A42.491,42.491,0,0,0,21.375,64Z" style="fill:#8bb3ea"/><circle cx="64" cy="64" r="6.718" style="fill:#6f6571"/><circle cx="74.25" cy="41.504" r="5.132" style="fill:#e04955"/><path d="M108.138,68.585c0-.02.005-.04.007-.06.065-.645.111-1.293.148-1.944.006-.107.018-.213.023-.32q.056-1.126.057-2.261A44.348,44.348,0,0,0,32.814,32.469a1.582,1.582,0,0,0-.191.154A44.035,44.035,0,0,0,19.862,59.415c0,.02-.005.04-.007.06-.065.645-.111,1.293-.148,1.944-.006.107-.018.213-.023.32q-.056,1.126-.057,2.261A44.348,44.348,0,0,0,95.164,95.553a1.742,1.742,0,0,0,.214-.175A44.035,44.035,0,0,0,108.138,68.585Zm-3.351-2.039c-.029.475-.063.949-.108,1.42-.017.18-.038.359-.058.538-.056.51-.119,1.019-.194,1.524q-.027.182-.055.364c-.1.607-.2,1.21-.324,1.808l-.009.044A40.8,40.8,0,0,1,94.1,91.622L71.09,68.615a8.417,8.417,0,0,0,1.193-2.865H104.83c0,.067,0,.136-.005.2C104.816,66.151,104.8,66.348,104.787,66.545Zm-81.612-4.5c.009-.2.026-.395.038-.592.029-.475.063-.949.108-1.42.017-.18.038-.359.058-.538.056-.51.119-1.019.194-1.524q.027-.182.055-.364c.1-.607.2-1.21.324-1.808l.009-.044A40.8,40.8,0,0,1,33.9,36.378L56.91,59.385a8.417,8.417,0,0,0-1.193,2.865H23.17C23.173,62.183,23.172,62.114,23.175,62.047Zm49.108.2a8.453,8.453,0,0,0-12.9-5.34l-3.693-3.693A13.595,13.595,0,0,1,77.506,62.25Zm-25.326,3.5A17.117,17.117,0,0,0,74.8,77.279l4.347,4.347A23.235,23.235,0,0,1,40.813,65.75ZM64,77.632A13.643,13.643,0,0,1,50.494,65.75h5.223a8.453,8.453,0,0,0,12.9,5.34l3.693,3.693A13.546,13.546,0,0,1,64,77.632Zm0-8.664A4.968,4.968,0,1,1,68.967,64,4.973,4.973,0,0,1,64,68.968ZM81.043,62.25A17.117,17.117,0,0,0,53.2,50.721l-4.347-4.347A23.028,23.028,0,0,1,67.394,41c-.012.167-.026.333-.026.5a6.877,6.877,0,0,0,11.754,4.854A23.213,23.213,0,0,1,87.187,62.25ZM70.869,41.5a3.381,3.381,0,1,1,3.381,3.382A3.385,3.385,0,0,1,70.869,41.5ZM90.7,62.25a26.716,26.716,0,0,0-9.81-18.971A6.875,6.875,0,0,0,68.56,37.641a26.585,26.585,0,0,0-22.19,6.254L42.48,40.005A32.227,32.227,0,0,1,96.2,62.25Zm-53.4,3.5A26.733,26.733,0,0,0,81.631,84.105l3.889,3.889A32.227,32.227,0,0,1,31.8,65.75Zm67.526-3.5H99.706A35.73,35.73,0,0,0,40,37.526L36.378,33.9A40.843,40.843,0,0,1,104.83,62.25Zm-81.66,3.5h5.125A35.73,35.73,0,0,0,88,90.474L91.622,94.1A40.843,40.843,0,0,1,23.17,65.75Z" style="fill:#1f2632"/></svg>