<svg id="Layer_1" data-name="Layer 1" xmlns="http://www.w3.org/2000/svg" viewBox="0 0 128 128"><title>FINGER PRINT</title><rect x="28.852" y="5.15" width="70.296" height="117.699" style="fill:#6f6571"/><path d="M28.852,5.15V21.8H45.477a6.555,6.555,0,0,1,5.965,3.836h0a6.555,6.555,0,0,0,5.965,3.836H70.594a6.555,6.555,0,0,0,5.965-3.836h0A6.555,6.555,0,0,1,82.523,21.8H99.148V5.15Z" style="fill:#8bb3ea"/><path d="M81.569,16.514c.072-.027.142-.058.211-.09s.148-.077.22-.12.159-.093.233-.147c.032-.023.061-.051.092-.076a2.864,2.864,0,0,0-1.771-5.123H47.447a2.864,2.864,0,0,0-1.771,5.123c.031.025.06.052.092.076.075.054.153.1.233.147s.144.083.22.12.139.063.211.09a2.819,2.819,0,0,0,.31.1c.059.015.116.033.177.044a2.842,2.842,0,0,0,.528.053H80.553a2.842,2.842,0,0,0,.528-.053c.061-.011.118-.029.177-.044A2.819,2.819,0,0,0,81.569,16.514Z" style="fill:#6f6571"/><rect x="34.984" y="111.356" width="14.711" height="5.508" rx="2.754" ry="2.754" style="fill:#e04955"/><rect x="42.81" y="40.266" width="42.38" height="67.415" rx="21.19" ry="21.19" style="fill:#fcc434"/><path d="M53.561,102.893a19.372,19.372,0,0,1-9-16.4V61.456A19.443,19.443,0,0,1,54.734,44.361a1.75,1.75,0,1,0-1.67-3.075,22.939,22.939,0,0,0-12,20.17V86.491a22.857,22.857,0,0,0,10.618,19.353,1.75,1.75,0,0,0,1.883-2.951Z" style="fill:#1f2632"/><path d="M85.19,82.153a1.75,1.75,0,0,0-1.75,1.75v2.588a19.458,19.458,0,0,1-24.6,18.749,1.75,1.75,0,0,0-.926,3.375A22.957,22.957,0,0,0,86.94,86.491V83.9A1.75,1.75,0,0,0,85.19,82.153Z" style="fill:#1f2632"/><path d="M64,38.516a23.129,23.129,0,0,0-3.753.306,1.75,1.75,0,1,0,.568,3.453A19.678,19.678,0,0,1,64,42.016a19.462,19.462,0,0,1,19.44,19.44V76.223a1.75,1.75,0,0,0,3.5,0V61.456A22.966,22.966,0,0,0,64,38.516Z" style="fill:#1f2632"/><path d="M64,43.553A17.77,17.77,0,0,0,46.25,61.3v25.34a1.75,1.75,0,0,0,3.5,0V61.3a14.25,14.25,0,0,1,28.5,0,1.75,1.75,0,1,0,3.5,0A17.77,17.77,0,0,0,64,43.553Z" style="fill:#1f2632"/><path d="M48.908,92.253a1.75,1.75,0,0,0-.777,2.35A17.752,17.752,0,0,0,81.75,86.644v-16.8a1.75,1.75,0,1,0-3.5,0v16.8a14.253,14.253,0,0,1-26.992,6.388A1.75,1.75,0,0,0,48.908,92.253Z" style="fill:#1f2632"/><path d="M66.661,48.874A12.57,12.57,0,0,0,51.44,61.15V86.8a12.56,12.56,0,0,0,25.119,0V61.15a12.487,12.487,0,0,0-3.624-8.827,1.75,1.75,0,0,0-2.49,2.46A9.007,9.007,0,0,1,73.06,61.15V86.8a9.06,9.06,0,0,1-18.119,0V61.15a9.071,9.071,0,0,1,10.982-8.856,1.75,1.75,0,1,0,.738-3.421Z" style="fill:#1f2632"/><path d="M58.381,71.155a1.75,1.75,0,0,0-1.75,1.75V86.95a7.369,7.369,0,1,0,14.738,0V61a7.369,7.369,0,0,0-14.738,0v6.056a1.75,1.75,0,0,0,3.5,0V61a3.869,3.869,0,0,1,7.738,0V86.95a3.869,3.869,0,1,1-7.738,0V72.9A1.75,1.75,0,0,0,58.381,71.155Z" style="fill:#1f2632"/><path d="M62.25,87.273a1.75,1.75,0,0,0,3.5,0V85.632a1.75,1.75,0,0,0-3.5,0Z" style="fill:#1f2632"/><path d="M62.25,80.245a1.75,1.75,0,1,0,3.5,0V69.577a1.75,1.75,0,0,0-3.5,0Z" style="fill:#1f2632"/><path d="M64,65.819a1.75,1.75,0,0,0,1.75-1.75V61.083a1.75,1.75,0,0,0-3.5,0v2.986A1.75,1.75,0,0,0,64,65.819Z" style="fill:#1f2632"/><path d="M99.147,3.4H28.853A1.75,1.75,0,0,0,27.1,5.15v117.7a1.75,1.75,0,0,0,1.75,1.75H99.147a1.75,1.75,0,0,0,1.75-1.75V5.15A1.75,1.75,0,0,0,99.147,3.4ZM30.6,6.9H97.4V20.046H82.522a8.323,8.323,0,0,0-7.557,4.86,4.816,4.816,0,0,1-4.372,2.813H57.406a4.816,4.816,0,0,1-4.372-2.812,8.323,8.323,0,0,0-7.557-4.86H30.6Zm0,114.2V23.546H45.478a4.814,4.814,0,0,1,4.371,2.812,8.325,8.325,0,0,0,7.558,4.86H70.594a8.325,8.325,0,0,0,7.558-4.861,4.814,4.814,0,0,1,4.371-2.812H97.4V121.1Z" style="fill:#1f2632"/><path d="M80.554,18.458a4.625,4.625,0,0,0,0-9.25H47.446a4.625,4.625,0,0,0,0,9.25ZM46.322,13.833a1.125,1.125,0,0,1,1.124-1.125H80.554a1.125,1.125,0,0,1,0,2.25H47.446A1.126,1.126,0,0,1,46.322,13.833Z" style="fill:#1f2632"/><path d="M34.779,31.219H45.12a1.75,1.75,0,0,0,0-3.5H34.779a1.75,1.75,0,0,0,0,3.5Z" style="fill:#1f2632"/><path d="M93.221,27.719H82.88a1.75,1.75,0,0,0,0,3.5H93.221a1.75,1.75,0,0,0,0-3.5Z" style="fill:#1f2632"/><path d="M46.94,109.606h-9.2a4.5,4.5,0,1,0,0,9.008h9.2a4.5,4.5,0,0,0,0-9.008Zm0,5.508h-9.2a1,1,0,1,1,0-2.008h9.2a1,1,0,0,1,0,2.008Z" style="fill:#1f2632"/></svg>