<svg id="Layer_1" data-name="Layer 1" xmlns="http://www.w3.org/2000/svg" viewBox="0 0 128 128"><title>PADLOCK</title><path d="M98.085,67.023A34.167,34.167,0,1,0,47.5,96.989a4.306,4.306,0,0,1,.869-.089h31.1a4.306,4.306,0,0,1,.869.089A34.156,34.156,0,0,0,98.085,67.023Z" style="fill:#fcc434"/><path d="M83.675,100.374c-.017-.087-.047-.169-.069-.254a4.252,4.252,0,0,0-.158-.509c-.038-.1-.084-.184-.129-.276a4.26,4.26,0,0,0-.229-.421c-.057-.09-.117-.175-.18-.26a4.278,4.278,0,0,0-.3-.358c-.072-.078-.144-.154-.221-.227a4.29,4.29,0,0,0-.363-.3c-.082-.062-.162-.126-.249-.181a4.275,4.275,0,0,0-.451-.245c-.081-.039-.157-.086-.241-.12a4.244,4.244,0,0,0-.753-.234,4.305,4.305,0,0,0-.869-.089h-31.1a4.305,4.305,0,0,0-.869.089,4.244,4.244,0,0,0-.753.234c-.084.034-.16.081-.241.12a4.275,4.275,0,0,0-.451.245c-.087.056-.166.12-.249.181a4.287,4.287,0,0,0-.363.3c-.078.073-.15.149-.222.227a4.278,4.278,0,0,0-.295.357c-.063.085-.124.171-.181.261a4.251,4.251,0,0,0-.228.421c-.044.092-.091.181-.129.277a4.251,4.251,0,0,0-.158.508c-.022.085-.052.167-.069.255a4.27,4.27,0,0,0,4.207,5.1h31.1a4.27,4.27,0,0,0,4.207-5.1Z" style="fill:#6f6571"/><path d="M53.58,114.057a1.947,1.947,0,0,0-.578.089,16.285,16.285,0,0,0,21.832,0,1.947,1.947,0,0,0-.578-.089Z" style="fill:#4b3f4e"/><rect x="47.043" y="105.479" width="33.75" height="8.578" rx="4.289" ry="4.289" style="fill:#6f6571"/><circle cx="64" cy="79.546" r="3.945" style="fill:#e04955"/><path d="M63.918,31.106a35.906,35.906,0,0,0-19.83,65.847c-.052.054-.1.1-.158.162a6.124,6.124,0,0,0-.409.5c-.09.122-.175.243-.257.374a6.611,6.611,0,0,0-.354.652c-.052.107-.1.214-.148.327a6.289,6.289,0,0,0-.235.752,3.331,3.331,0,0,0-.084.33,6.009,6.009,0,0,0,3.649,6.734,6.03,6.03,0,0,0,5.241,9.027H52.3a17.889,17.889,0,0,0,23.243,0H76.5a6.03,6.03,0,0,0,5.241-9.027,6.012,6.012,0,0,0,3.65-6.732,3.721,3.721,0,0,0-.094-.365,6.036,6.036,0,0,0-.228-.721c-.046-.113-.1-.222-.175-.381a6,6,0,0,0-.327-.6c-.081-.128-.166-.249-.251-.363a5.873,5.873,0,0,0-.42-.511c-.051-.054-.1-.1-.152-.154a35.906,35.906,0,0,0-19.83-65.846Zm-4.594,84.7,9.175,0A13.837,13.837,0,0,1,59.324,115.81Zm17.18-3.5H51.332a2.539,2.539,0,1,1,0-5.078H76.5a2.539,2.539,0,0,1,0,5.078Zm2.964-8.578h-31.1a2.541,2.541,0,0,1-2.539-2.539,2.327,2.327,0,0,1,.052-.476c.007-.023.04-.141.046-.164a2.338,2.338,0,0,1,.085-.287l.078-.163a2.837,2.837,0,0,1,.136-.253c.032-.052.068-.1.108-.155a2.555,2.555,0,0,1,.172-.208c.045-.049.089-.1.135-.141a3.552,3.552,0,0,1,.282-.226L47,99.06a2.56,2.56,0,0,1,.264-.14l.142-.076a2.441,2.441,0,0,1,.963-.193h31.1a2.555,2.555,0,0,1,.516.053,2.357,2.357,0,0,1,.438.139l.144.074a2.72,2.72,0,0,1,.266.14l.152.114a2.5,2.5,0,0,1,.218.179c.046.043.087.088.128.133a2.343,2.343,0,0,1,.176.214c.037.049.073.1.1.147a2.508,2.508,0,0,1,.133.25s.078.161.08.166a2.223,2.223,0,0,1,.087.288l.053.186a2.522,2.522,0,0,1-2.494,3ZM80,95.174c-.176-.015-.353-.023-.528-.023h-31.1c-.176,0-.353.008-.528.023a32.417,32.417,0,1,1,32.156,0Z" style="fill:#1f2632"/><path d="M40.7,57.1a1.75,1.75,0,1,0,2.352,2.592,32.049,32.049,0,0,1,41.891,0A1.75,1.75,0,0,0,87.3,57.1a35.543,35.543,0,0,0-46.594,0Z" style="fill:#1f2632"/><path d="M64,57.72a27.282,27.282,0,0,0-17.873,6.886A1.75,1.75,0,1,0,48.479,67.2a23.139,23.139,0,0,1,31.043,0,1.75,1.75,0,0,0,2.352-2.592A27.282,27.282,0,0,0,64,57.72Z" style="fill:#1f2632"/><path d="M64,67.038A19.206,19.206,0,0,0,51.55,72.11,1.75,1.75,0,0,0,53.9,74.7c1.077-.977,4.99-4.165,10.1-4.165s9.021,3.188,10.1,4.165A1.75,1.75,0,0,0,76.45,72.11,19.206,19.206,0,0,0,64,67.038Z" style="fill:#1f2632"/><path d="M64,73.851a5.695,5.695,0,1,0,5.694,5.694A5.7,5.7,0,0,0,64,73.851Zm0,7.889a2.195,2.195,0,1,1,2.194-2.195A2.2,2.2,0,0,1,64,81.74Z" style="fill:#1f2632"/><path d="M64,25.78a1.75,1.75,0,0,0,1.75-1.75V10.721a1.75,1.75,0,1,0-3.5,0V24.03A1.75,1.75,0,0,0,64,25.78Z" style="fill:#1f2632"/><path d="M33.105,38.577a1.75,1.75,0,0,0,1.237-2.987l-9.41-9.411a1.75,1.75,0,0,0-2.475,2.475l9.41,9.411A1.743,1.743,0,0,0,33.105,38.577Z" style="fill:#1f2632"/><path d="M20.31,65.971H7a1.75,1.75,0,0,0,0,3.5H20.31a1.75,1.75,0,0,0,0-3.5Z" style="fill:#1f2632"/><path d="M121,65.971H107.69a1.75,1.75,0,0,0,0,3.5H121a1.75,1.75,0,0,0,0-3.5Z" style="fill:#1f2632"/><path d="M105.542,26.179a1.749,1.749,0,0,0-2.475,0l-9.41,9.411a1.75,1.75,0,1,0,2.475,2.475l9.41-9.411A1.749,1.749,0,0,0,105.542,26.179Z" style="fill:#1f2632"/></svg>