<svg id="Layer_1" data-name="Layer 1" xmlns="http://www.w3.org/2000/svg" viewBox="0 0 128 128"><title>SMARTPHONE</title><path d="M46.032,106.5h-5.4a1.5,1.5,0,0,0,0,3h5.4a1.5,1.5,0,0,0,0-3Z" style="fill:#6f6571"/><path d="M79.475,75.068H28.412l4.9,34.983a6.519,6.519,0,0,0,6.456,5.615H80.391a6.519,6.519,0,0,0,6.456-5.615l3.2-22.832A10.672,10.672,0,0,0,79.475,75.068Z" style="fill:#8bb3ea"/><path d="M108.294,109.654a8.1,8.1,0,0,0-7.792-6.659l-12.459-1.478-1.195,8.535a6.519,6.519,0,0,1-6.456,5.615H69.928l.019.125,32.54.5A5.644,5.644,0,0,0,108.294,109.654Z" style="fill:#6f6571"/><path d="M28.412,75.068H47.519l-9.9-36.3a9.158,9.158,0,0,0-8.746-7.6,6.381,6.381,0,0,0-6.456,7.6Z" style="fill:#6f6571"/><path d="M110.024,109.4a9.79,9.79,0,0,0-9.412-8.15L90.024,99.989l1.754-12.527a12.422,12.422,0,0,0-12.3-14.144H48.855L39.336,38.405a10.981,10.981,0,0,0-10.46-8.985,8.2,8.2,0,0,0-6.339,2.8,8.367,8.367,0,0,0-1.844,6.833l5.986,36.264,4.9,34.973a8.3,8.3,0,0,0,8.188,7.123H69.3a1.741,1.741,0,0,0,.62.125l32.565.5h.012a7.582,7.582,0,0,0,5.855-2.574A7.455,7.455,0,0,0,110.024,109.4ZM25.189,34.508a4.753,4.753,0,0,1,3.687-1.588,7.462,7.462,0,0,1,7.016,6.112,1.718,1.718,0,0,0,.042.2l9.294,34.087H29.9L24.15,38.511A4.9,4.9,0,0,1,25.189,34.508Zm9.854,75.3-4.62-32.991H79.476a8.921,8.921,0,0,1,8.835,10.159l-2,14.293v0l-1.194,8.534a4.79,4.79,0,0,1-4.723,4.108H39.765A4.788,4.788,0,0,1,35.043,109.81Zm70.659,3.374a4.122,4.122,0,0,1-3.183,1.361h-.006L86.845,114.3c.013-.016.023-.035.036-.051a8.278,8.278,0,0,0,.512-.731c.044-.07.088-.14.13-.212a8.219,8.219,0,0,0,.447-.861c.005-.012.009-.025.015-.038a8.187,8.187,0,0,0,.32-.891c.024-.08.047-.159.069-.24a8.159,8.159,0,0,0,.208-.985l.957-6.838,10.758,1.276a1.775,1.775,0,0,0,.2.012,6.39,6.39,0,0,1,6.063,5.167A4.012,4.012,0,0,1,105.7,113.184Z" style="fill:#1f2632"/><path d="M46.032,106.25h-5.4a1.75,1.75,0,0,0,0,3.5h5.4a1.75,1.75,0,0,0,0-3.5Z" style="fill:#1f2632"/><path d="M46.309,43.424l5.99,4.438a1.75,1.75,0,0,0,2.084-2.812l-2.565-1.9A29.306,29.306,0,0,1,82.155,68.1,1.75,1.75,0,0,0,83.884,69.6a1.671,1.671,0,0,0,.26-.02,1.749,1.749,0,0,0,1.473-1.988A32.793,32.793,0,0,0,51.262,39.678l1.932-2.608a1.75,1.75,0,0,0-2.812-2.084l-4.437,5.99A1.751,1.751,0,0,0,46.309,43.424Z" style="fill:#1f2632"/></svg>