<svg id="Layer_1" data-name="Layer 1" xmlns="http://www.w3.org/2000/svg" viewBox="0 0 128 128"><title>TABLET CONTROLER</title><rect x="5.247" y="12.141" width="117.699" height="83.333" style="fill:#6f6571"/><rect x="12.247" y="19.141" width="103.699" height="69.333" style="fill:#6f6571"/><rect x="73.118" y="28.333" width="33.722" height="30.466" style="fill:#8bb3ea"/><circle cx="41.976" cy="66.532" r="3.945" style="fill:#e04955"/><polygon points="73.741 95.474 54.452 95.474 52.273 108.282 75.919 108.282 73.741 95.474" style="fill:#4b3f4e"/><path d="M89.979,115.859H38.214v-2.712a4.865,4.865,0,0,1,4.865-4.865H85.114a4.865,4.865,0,0,1,4.865,4.865Z" style="fill:#6f6571"/><rect x="73.118" y="70.476" width="12.378" height="5.508" rx="2.754" ry="2.754" style="fill:#8bb3ea"/><rect x="94.462" y="70.476" width="12.378" height="5.508" rx="2.754" ry="2.754" style="fill:#8bb3ea"/><path d="M122.945,10.391H5.246a1.75,1.75,0,0,0-1.75,1.75V95.474a1.75,1.75,0,0,0,1.75,1.75H52.378l-1.583,9.308H43.078a6.623,6.623,0,0,0-6.615,6.615v2.712a1.75,1.75,0,0,0,1.75,1.75H89.978a1.75,1.75,0,0,0,1.75-1.75v-2.712a6.622,6.622,0,0,0-6.614-6.615H77.4l-1.583-9.308h47.133a1.75,1.75,0,0,0,1.75-1.75V12.141A1.75,1.75,0,0,0,122.945,10.391ZM88.228,113.147v.962H39.963v-.962a3.119,3.119,0,0,1,3.115-3.115H85.113A3.119,3.119,0,0,1,88.228,113.147Zm-14.383-6.615h-19.5l1.583-9.308H72.262ZM121.2,93.724H7V13.891H121.2Z" style="fill:#1f2632"/><path d="M12.246,90.224h103.7a1.75,1.75,0,0,0,1.75-1.75V19.141a1.75,1.75,0,0,0-1.75-1.75H12.246a1.75,1.75,0,0,0-1.75,1.75V88.474A1.75,1.75,0,0,0,12.246,90.224ZM14,20.891H114.2V86.724H14Z" style="fill:#1f2632"/><path d="M106.839,26.583H73.117a1.75,1.75,0,0,0-1.75,1.75V58.8a1.75,1.75,0,0,0,1.75,1.75h33.722a1.75,1.75,0,0,0,1.75-1.75V28.333A1.75,1.75,0,0,0,106.839,26.583Zm-1.75,30.466H74.867V30.083h30.222Z" style="fill:#1f2632"/><path d="M41.975,35.389a35.453,35.453,0,0,0-23.3,8.7,1.75,1.75,0,0,0,2.352,2.593,32.049,32.049,0,0,1,41.891,0,1.75,1.75,0,0,0,2.352-2.593A35.449,35.449,0,0,0,41.975,35.389Z" style="fill:#1f2632"/><path d="M41.975,44.707A27.282,27.282,0,0,0,24.1,51.593a1.75,1.75,0,1,0,2.352,2.592,23.692,23.692,0,0,1,15.521-5.978A23.7,23.7,0,0,1,57.5,54.185a1.75,1.75,0,0,0,2.352-2.593A27.29,27.29,0,0,0,41.975,44.707Z" style="fill:#1f2632"/><path d="M41.975,54.024A19.2,19.2,0,0,0,29.525,59.1a1.75,1.75,0,1,0,2.352,2.592c1.077-.977,4.988-4.165,10.1-4.165s9.021,3.188,10.1,4.165A1.75,1.75,0,1,0,54.425,59.1,19.2,19.2,0,0,0,41.975,54.024Z" style="fill:#1f2632"/><path d="M41.975,60.837a5.694,5.694,0,1,0,5.694,5.694A5.7,5.7,0,0,0,41.975,60.837Zm0,7.889a2.194,2.194,0,1,1,2.194-2.194A2.2,2.2,0,0,1,41.975,68.726Z" style="fill:#1f2632"/><path d="M82.741,68.726h-6.87a4.5,4.5,0,0,0,0,9.008h6.87a4.5,4.5,0,0,0,0-9.008Zm0,5.508h-6.87a1,1,0,0,1,0-2.008h6.87a1,1,0,0,1,0,2.008Z" style="fill:#1f2632"/><path d="M104.085,68.726h-6.87a4.5,4.5,0,0,0,0,9.008h6.87a4.5,4.5,0,0,0,0-9.008Zm0,5.508h-6.87a1,1,0,0,1,0-2.008h6.87a1,1,0,0,1,0,2.008Z" style="fill:#1f2632"/></svg>