<?xml version="1.0" encoding="utf-8"?>
<!-- Generator: Adobe Illustrator 23.0.0, SVG Export Plug-In . SVG Version: 6.00 Build 0)  -->
<svg version="1.1" id="Layer_1" xmlns="http://www.w3.org/2000/svg" xmlns:xlink="http://www.w3.org/1999/xlink" x="0px" y="0px"
	 viewBox="0 0 64 64" style="enable-background:new 0 0 64 64;" xml:space="preserve">
<style type="text/css">
	.st0{fill:#353744;}
	.st1{fill:#F68820;}
	.st2{fill:#808080;}
	.st3{fill:#5C76B2;}
	.st4{fill:#6FA4D8;}
	.st5{fill:#DBDEE3;}
	.st6{fill:#B3B4B6;}
	.st7{fill:#FBBE18;}
	.st8{fill:#EEC78E;}
	.st9{fill:#DB9E68;}
	.st10{fill:#55525B;}
	.st11{fill:#FFFFFF;}
	.st12{fill:#1C1D28;}
	.st13{fill:#FBD301;}
	.st14{fill:#BE7850;}
	.st15{fill:#4C52A3;}
	.st16{fill:#BF6B1E;}
	.st17{fill:#5F7ABC;}
	.st18{fill:#D4761E;}
	.st19{fill:#5D76B2;}
	.st20{fill:#668DC5;}
</style>
<g>
	<g>
		<path class="st10" d="M32,16c-0.276,0-0.5-0.224-0.5-0.5V11c0-1.93-1.57-3.5-3.5-3.5c-0.276,0-0.5-0.224-0.5-0.5
			s0.224-0.5,0.5-0.5c2.481,0,4.5,2.019,4.5,4.5v4.5C32.5,15.776,32.276,16,32,16z"/>
	</g>
	<g>
		<g>
			<path class="st0" d="M46,42h-4c-2.209,0-4,1.791-4,4c0,2.209,1.791,4,4,4h4c2.209,0,4-1.791,4-4C50,43.791,48.209,42,46,42z"/>
		</g>
		<g>
			<path class="st0" d="M58,42h-4c-2.209,0-4,1.791-4,4v0c0,2.209,1.791,4,4,4h4c2.209,0,4-1.791,4-4v0C62,43.791,60.209,42,58,42z"
				/>
		</g>
		<g>
			<path class="st0" d="M26,42h-4c-2.209,0-4,1.791-4,4v0c0,2.209,1.791,4,4,4h4c2.209,0,4-1.791,4-4v0C30,43.791,28.209,42,26,42z"
				/>
		</g>
		<g>
			<path class="st0" d="M14,42h-4c-2.209,0-4,1.791-4,4c0,2.209,1.791,4,4,4h4c2.209,0,4-1.791,4-4C18,43.791,16.209,42,14,42z"/>
		</g>
		<g>
			<path class="st1" d="M46,26H9c-2.761,0-5,2.239-5,5v15h46V30C50,27.791,48.209,26,46,26z"/>
		</g>
		<g>
			<rect x="38" y="30" class="st0" width="12" height="16"/>
		</g>
		<g>
			<path class="st7" d="M38,46H4V31c0-2.761,2.239-5,5-5h25c2.209,0,4,1.791,4,4V46z"/>
		</g>
		<g>
			<path class="st7" d="M54,38H42c-2.209,0-4,1.791-4,4v4h12v-4C50,39.791,51.791,38,54,38z"/>
		</g>
		<g>
			<path class="st1" d="M62,46H50v-4c0-2.209,1.791-4,4-4h4c2.209,0,4,1.791,4,4V46z"/>
		</g>
		<g>
			<path class="st10" d="M9.5,38h5c1.105,0,2-0.895,2-2v-4c0-1.105-0.895-2-2-2h-5c-1.105,0-2,0.895-2,2v4
				C7.5,37.105,8.395,38,9.5,38z"/>
		</g>
		<g>
			<path class="st10" d="M20.5,38h5c1.105,0,2-0.895,2-2v-4c0-1.105-0.895-2-2-2h-5c-1.105,0-2,0.895-2,2v4
				C18.5,37.105,19.395,38,20.5,38z"/>
		</g>
		<g>
			<path class="st10" d="M30,46h8V30h-6c-1.105,0-2,0.895-2,2V46z"/>
		</g>
		<g>
			<path class="st7" d="M32,48h4c1.105,0,2-0.895,2-2v0h-8v0C30,47.105,30.895,48,32,48z"/>
		</g>
		<g>
			<path class="st0" d="M54,42L54,42c0-0.276,0.224-0.5,0.5-0.5h3c0.276,0,0.5,0.224,0.5,0.5l0,0c0,0.276-0.224,0.5-0.5,0.5h-3
				C54.224,42.5,54,42.276,54,42z"/>
		</g>
		<g>
			<path class="st0" d="M54,40L54,40c0-0.276,0.224-0.5,0.5-0.5h3c0.276,0,0.5,0.224,0.5,0.5l0,0c0,0.276-0.224,0.5-0.5,0.5h-3
				C54.224,40.5,54,40.276,54,40z"/>
		</g>
		<g>
			<path class="st0" d="M54,44L54,44c0-0.276,0.224-0.5,0.5-0.5h3c0.276,0,0.5,0.224,0.5,0.5l0,0c0,0.276-0.224,0.5-0.5,0.5h-3
				C54.224,44.5,54,44.276,54,44z"/>
		</g>
		<g>
			<path class="st1" d="M4,43h23c0.552,0,1-0.448,1-1l0,0c0-0.552-0.448-1-1-1H4V43z"/>
		</g>
		<g>
			<circle class="st10" cx="10" cy="46" r="4"/>
		</g>
		<g>
			<circle class="st5" cx="10" cy="46" r="1.5"/>
		</g>
		<g>
			<circle class="st10" cx="42" cy="46" r="4"/>
		</g>
		<g>
			<circle class="st5" cx="42" cy="46" r="1.5"/>
		</g>
		<g>
			<path class="st10" d="M3.5,46H4v-3H3.5C2.672,43,2,43.672,2,44.5l0,0C2,45.328,2.672,46,3.5,46z"/>
		</g>
		<g>
			<rect x="33.5" y="30" class="st0" width="1" height="16"/>
		</g>
		<g>
			<circle class="st5" cx="52" cy="43.5" r="1"/>
		</g>
		<g>
			<circle class="st5" cx="60" cy="43.5" r="1"/>
		</g>
	</g>
	<g>
		<g>
			<path class="st5" d="M7,52c-1.654,0-3,1.121-3,2.5S5.346,57,7,57h32v-5H7z"/>
		</g>
		<g>
			<path class="st3" d="M61,50H39c0.552,0,1,0.448,1,1s-0.448,1-1,1h22c0.552,0,1-0.448,1-1S61.552,50,61,50z"/>
		</g>
		<g>
			<path class="st3" d="M61,57H39c0.552,0,1,0.448,1,1s-0.448,1-1,1h22c0.552,0,1-0.448,1-1S61.552,57,61,57z"/>
		</g>
		<g>
			<path class="st4" d="M39,59H7c-2.757,0-5-2.019-5-4.5S4.243,50,7,50h32c0.552,0,1,0.448,1,1s-0.448,1-1,1H7
				c-1.654,0-3,1.121-3,2.5S5.346,57,7,57h32c0.552,0,1,0.448,1,1S39.552,59,39,59z"/>
		</g>
		<g>
			<rect x="39" y="52" class="st6" width="22" height="5"/>
		</g>
	</g>
	<g>
		<path class="st4" d="M35,11c-0.806,0-1.574,0.162-2.275,0.451c-0.465,0.192-0.985,0.192-1.45,0C30.574,11.162,29.806,11,29,11
			c-3.314,0-6,2.686-6,6c0,3,2.5,9,5,9h8c2.5,0,5-6,5-9C41,13.686,38.314,11,35,11z"/>
	</g>
	<g>
		<path class="st3" d="M37.35,11.478C37.763,12.575,38,13.759,38,15c0,5.523-4.477,10-10,10c-0.695,0-1.373-0.072-2.028-0.206
			C26.613,25.527,27.305,26,28,26h8c2.5,0,5-6,5-9C41,14.52,39.495,12.393,37.35,11.478z"/>
	</g>
	<g>
		<circle class="st5" cx="28" cy="15" r="2"/>
	</g>
	<g>
		<path class="st7" d="M33,9h-1V8c0-1.657,1.343-3,3-3h1v1C36,7.657,34.657,9,33,9z"/>
	</g>
</g>
</svg>
