<?xml version="1.0" encoding="utf-8"?>
<!-- Generator: Adobe Illustrator 23.0.0, SVG Export Plug-In . SVG Version: 6.00 Build 0)  -->
<svg version="1.1" id="Layer_1" xmlns="http://www.w3.org/2000/svg" xmlns:xlink="http://www.w3.org/1999/xlink" x="0px" y="0px"
	 viewBox="0 0 64 64" style="enable-background:new 0 0 64 64;" xml:space="preserve">
<style type="text/css">
	.st0{fill:#353744;}
	.st1{fill:#F68820;}
	.st2{fill:#808080;}
	.st3{fill:#5C76B2;}
	.st4{fill:#6FA4D8;}
	.st5{fill:#DBDEE3;}
	.st6{fill:#B3B4B6;}
	.st7{fill:#FBBE18;}
	.st8{fill:#EEC78E;}
	.st9{fill:#DB9E68;}
	.st10{fill:#55525B;}
	.st11{fill:#FFFFFF;}
	.st12{fill:#1C1D28;}
	.st13{fill:#FBD301;}
	.st14{fill:#BE7850;}
	.st15{fill:#4C52A3;}
	.st16{fill:#BF6B1E;}
	.st17{fill:#5F7ABC;}
	.st18{fill:#D4761E;}
	.st19{fill:#5D76B2;}
	.st20{fill:#668DC5;}
</style>
<g>
	<g>
		<g>
			<rect x="10" y="23.451" transform="matrix(-1 -1.224647e-16 1.224647e-16 -1 28 66.4014)" class="st6" width="8" height="19.5"/>
		</g>
		<g>
			<rect x="10" y="23.451" transform="matrix(-1 -1.224647e-16 1.224647e-16 -1 24 66.4014)" class="st5" width="4" height="19.5"/>
		</g>
		<g>
			<path class="st6" d="M14,15.451L14,15.451c-1.105,0-2,0.895-2,2v2h4v-2C16,16.346,15.105,15.451,14,15.451z"/>
		</g>
		<g>
			<path class="st5" d="M14,15.451L14,15.451c-1.105,0-2,0.895-2,2v2h2V15.451z"/>
		</g>
		<g>
			<path class="st6" d="M10,54.951l3.584,5.376c0.198,0.297,0.634,0.297,0.832,0L18,54.951H10z"/>
		</g>
		<g>
			<path class="st10" d="M13,59.451l0.584,0.876c0.198,0.297,0.634,0.297,0.832,0L15,59.451H13z"/>
		</g>
		<g>
			<rect x="10" y="42.951" class="st0" width="8" height="12"/>
		</g>
		<g>
			<rect x="10" y="42.951" class="st10" width="4" height="12"/>
		</g>
		<g>
			<path class="st0" d="M16.5,19.451h-5c-0.828,0-1.5,0.672-1.5,1.5v2.5h8v-2.5C18,20.122,17.328,19.451,16.5,19.451z"/>
		</g>
		<g>
			<path class="st10" d="M14,19.451h-2.5c-0.828,0-1.5,0.672-1.5,1.5v2.5h4V19.451z"/>
		</g>
		<g>
			<path class="st10" d="M10,23.451v-2H8c-1.105,0-2,0.895-2,2v11.5c0,1.105,0.895,2,2,2s2-0.895,2-2c0-1.105-0.895-2-2-2v-9.5H10z"
				/>
		</g>
	</g>
	<g>
		<path class="st7" d="M54,59.451H24c-2.209,0-4-1.791-4-4v-48c0-2.209,1.791-4,4-4h24l10,10v42C58,57.66,56.209,59.451,54,59.451z"
			/>
	</g>
	<g>
		<path class="st3" d="M39,33.451c-7.72,0-14-6.28-14-14s6.28-14,14-14s14,6.28,14,14S46.72,33.451,39,33.451z M39,7.451
			c-6.617,0-12,5.383-12,12s5.383,12,12,12s12-5.383,12-12S45.617,7.451,39,7.451z"/>
	</g>
	<g>
		<path class="st1" d="M48,3.451l10,10h-6c-2.209,0-4-1.791-4-4V3.451z"/>
	</g>
	<g>
		<path class="st1" d="M30,39.451h-2c-1.105,0-2-0.895-2-2v0c0-1.105,0.895-2,2-2h2c1.105,0,2,0.895,2,2v0
			C32,38.555,31.105,39.451,30,39.451z"/>
	</g>
	<g>
		<path class="st1" d="M50,39.451H38c-1.105,0-2-0.895-2-2v0c0-1.105,0.895-2,2-2h12c1.105,0,2,0.895,2,2v0
			C52,38.555,51.105,39.451,50,39.451z"/>
	</g>
	<g>
		<path class="st1" d="M30,47.451h-2c-1.105,0-2-0.895-2-2v0c0-1.105,0.895-2,2-2h2c1.105,0,2,0.895,2,2v0
			C32,46.555,31.105,47.451,30,47.451z"/>
	</g>
	<g>
		<path class="st1" d="M50,47.451H38c-1.105,0-2-0.895-2-2v0c0-1.105,0.895-2,2-2h12c1.105,0,2,0.895,2,2v0
			C52,46.555,51.105,47.451,50,47.451z"/>
	</g>
	<g>
		<path class="st1" d="M30,54.951h-2c-1.105,0-2-0.895-2-2v0c0-1.105,0.895-2,2-2h2c1.105,0,2,0.895,2,2v0
			C32,54.055,31.105,54.951,30,54.951z"/>
	</g>
	<g>
		<path class="st1" d="M50,54.951H38c-1.105,0-2-0.895-2-2v0c0-1.105,0.895-2,2-2h12c1.105,0,2,0.895,2,2v0
			C52,54.055,51.105,54.951,50,54.951z"/>
	</g>
	<g>
		<path class="st3" d="M42.5,22.951h-0.823l-3.748-9.371c-0.002-0.004-0.005-0.007-0.007-0.01c-0.036-0.087-0.095-0.162-0.155-0.236
			c-0.022-0.028-0.035-0.064-0.06-0.089c-0.032-0.032-0.077-0.049-0.114-0.077c-0.068-0.051-0.133-0.106-0.211-0.138
			c-0.004-0.002-0.007-0.005-0.011-0.007c-0.05-0.021-0.103-0.017-0.154-0.029c-0.072-0.017-0.142-0.04-0.216-0.04
			c-0.081,0-0.157,0.024-0.234,0.043c-0.046,0.011-0.093,0.007-0.138,0.025c-0.004,0.001-0.006,0.005-0.01,0.006
			c-0.082,0.034-0.15,0.09-0.221,0.145c-0.033,0.026-0.075,0.042-0.104,0.071c-0.026,0.026-0.039,0.063-0.062,0.091
			c-0.059,0.074-0.117,0.147-0.153,0.234c-0.002,0.004-0.005,0.006-0.007,0.01l-3.748,9.371H31.5c-0.553,0-1,0.447-1,1s0.447,1,1,1
			H35c0.553,0,1-0.447,1-1s-0.447-1-1-1h-0.523l0.8-2h3.446l0.8,2H39c-0.553,0-1,0.447-1,1s0.447,1,1,1h3.5c0.553,0,1-0.447,1-1
			S43.053,22.951,42.5,22.951z M36.077,18.951L37,16.644l0.923,2.307H36.077z"/>
		<path class="st3" d="M47.5,17.951h-1v-1c0-0.553-0.447-1-1-1s-1,0.447-1,1v1h-1c-0.553,0-1,0.447-1,1s0.447,1,1,1h1v1
			c0,0.553,0.447,1,1,1s1-0.447,1-1v-1h1c0.553,0,1-0.447,1-1S48.053,17.951,47.5,17.951z"/>
	</g>
</g>
</svg>
