<?xml version="1.0" encoding="utf-8"?>
<!-- Generator: Adobe Illustrator 23.0.0, SVG Export Plug-In . SVG Version: 6.00 Build 0)  -->
<svg version="1.1" id="Layer_1" xmlns="http://www.w3.org/2000/svg" xmlns:xlink="http://www.w3.org/1999/xlink" x="0px" y="0px"
	 viewBox="0 0 64 64" style="enable-background:new 0 0 64 64;" xml:space="preserve">
<style type="text/css">
	.st0{fill:#353744;}
	.st1{fill:#F68820;}
	.st2{fill:#808080;}
	.st3{fill:#5C76B2;}
	.st4{fill:#6FA4D8;}
	.st5{fill:#DBDEE3;}
	.st6{fill:#B3B4B6;}
	.st7{fill:#FBBE18;}
	.st8{fill:#EEC78E;}
	.st9{fill:#DB9E68;}
	.st10{fill:#55525B;}
	.st11{fill:#FFFFFF;}
	.st12{fill:#1C1D28;}
	.st13{fill:#FBD301;}
	.st14{fill:#BE7850;}
	.st15{fill:#4C52A3;}
	.st16{fill:#BF6B1E;}
	.st17{fill:#5F7ABC;}
	.st18{fill:#D4761E;}
	.st19{fill:#5D76B2;}
	.st20{fill:#668DC5;}
</style>
<g>
	<g>
		<g>
			<path class="st0" d="M48.5,10V6c0-2.209-1.791-4-4-4h-25c-2.209,0-4,1.791-4,4v4H48.5z"/>
		</g>
		<g>
			<path class="st10" d="M44.5,10V6c0-2.209-1.791-4-4-4h-21c-2.209,0-4,1.791-4,4v4H44.5z"/>
		</g>
		<g>
			<rect x="15.5" y="10" class="st4" width="29" height="20"/>
		</g>
		<g>
			<rect x="44.5" y="10" class="st3" width="4" height="20"/>
		</g>
		<g>
			<circle class="st5" cx="40" cy="6" r="2"/>
		</g>
		<g>
			<circle class="st5" cx="34.5" cy="6" r="2"/>
		</g>
		<g>
			<circle class="st5" cx="29" cy="6" r="2"/>
		</g>
	</g>
	<g>
		<path class="st8" d="M51,30H15.5v32H32c0.828,0,1.5-0.672,1.5-1.5V56h15c2.209,0,4-1.791,4-4V31.5C52.5,30.672,51.828,30,51,30z"
			/>
	</g>
	<g>
		<path class="st9" d="M32,62H15.5v0c0-3.314,2.686-6,6-6h12v4.5C33.5,61.328,32.828,62,32,62z"/>
	</g>
	<g>
		<path class="st10" d="M13,30c-0.828,0-1.5,0.672-1.5,1.5V48v0c0,2.209,1.791,4,4,4h10c2.209,0,4-1.791,4-4v-8h3
			c0.828,0,1.5-0.672,1.5-1.5V30H13z"/>
	</g>
	<g>
		<path class="st9" d="M29.5,34c-3.314,0-6,2.686-6,6c0,3.314,2.686,6,6,6V34z"/>
	</g>
	<g>
		<circle class="st10" cx="39.5" cy="34" r="2"/>
	</g>
	<g>
		<circle class="st10" cx="48.5" cy="34" r="2"/>
	</g>
	<g>
		<path class="st9" d="M46,48L46,48c-1.381,0-2.5-1.119-2.5-2.5V36h0c2.761,0,5,2.239,5,5v4.5C48.5,46.881,47.381,48,46,48z"/>
	</g>
	<g>
		<path class="st10" d="M43.5,52h3c1.105,0,2-0.895,2-2v0h-7v0C41.5,51.105,42.395,52,43.5,52z"/>
	</g>
	<g>
		<path class="st5" d="M24,25c-0.256,0-0.512-0.098-0.707-0.293l-4-4c-0.391-0.391-0.391-1.023,0-1.414l4-4
			c0.391-0.391,1.023-0.391,1.414,0s0.391,1.023,0,1.414L21.414,20l3.293,3.293c0.391,0.391,0.391,1.023,0,1.414
			C24.512,24.902,24.256,25,24,25z"/>
	</g>
	<g>
		<path class="st5" d="M36,25c-0.256,0-0.512-0.098-0.707-0.293c-0.391-0.391-0.391-1.023,0-1.414L38.586,20l-3.293-3.293
			c-0.391-0.391-0.391-1.023,0-1.414s1.023-0.391,1.414,0l4,4c0.391,0.391,0.391,1.023,0,1.414l-4,4C36.512,24.902,36.256,25,36,25z
			"/>
	</g>
	<g>
		<path class="st5" d="M27.5,26.5c-0.139,0-0.279-0.029-0.413-0.09c-0.503-0.229-0.725-0.821-0.497-1.324l5-11
			c0.229-0.503,0.823-0.724,1.324-0.497c0.503,0.229,0.725,0.821,0.497,1.324l-5,11C28.243,26.282,27.879,26.5,27.5,26.5z"/>
	</g>
</g>
</svg>
