<?xml version="1.0" encoding="utf-8"?>
<!-- Generator: Adobe Illustrator 23.0.0, SVG Export Plug-In . SVG Version: 6.00 Build 0)  -->
<svg version="1.1" id="Layer_1" xmlns="http://www.w3.org/2000/svg" xmlns:xlink="http://www.w3.org/1999/xlink" x="0px" y="0px"
	 viewBox="0 0 64 64" style="enable-background:new 0 0 64 64;" xml:space="preserve">
<style type="text/css">
	.st0{fill:#353744;}
	.st1{fill:#F68820;}
	.st2{fill:#808080;}
	.st3{fill:#5C76B2;}
	.st4{fill:#6FA4D8;}
	.st5{fill:#DBDEE3;}
	.st6{fill:#B3B4B6;}
	.st7{fill:#FBBE18;}
	.st8{fill:#EEC78E;}
	.st9{fill:#DB9E68;}
	.st10{fill:#55525B;}
	.st11{fill:#FFFFFF;}
	.st12{fill:#1C1D28;}
	.st13{fill:#FBD301;}
	.st14{fill:#BE7850;}
	.st15{fill:#4C52A3;}
	.st16{fill:#BF6B1E;}
	.st17{fill:#5F7ABC;}
	.st18{fill:#D4761E;}
	.st19{fill:#5D76B2;}
	.st20{fill:#668DC5;}
</style>
<g>
	<g>
		<path class="st6" d="M23,24l2.052,7.864c0.48,1.839-0.908,3.636-2.809,3.636H18L15,24H23z"/>
	</g>
	<g>
		<path class="st3" d="M12,22H9c-2.761,0-5-2.239-5-5v0c0-2.761,2.239-5,5-5h3V22z"/>
	</g>
	<g>
		<path class="st4" d="M13,24h10V10H13c-3.866,0-7,3.134-7,7v0C6,20.866,9.134,24,13,24z"/>
	</g>
	<g>
		<circle class="st3" cx="23" cy="17" r="7"/>
	</g>
	<g>
		<path class="st5" d="M36.39,6.39L36.39,6.39C33.438,9.342,29.435,11,25.261,11H23c-3.314,0-6,2.686-6,6v0c0,3.314,2.686,6,6,6
			h2.261c4.174,0,8.178,1.658,11.129,4.61l0,0V6.39z"/>
	</g>
	<g>
		<path class="st10" d="M48.5,56h-33c-0.828,0-1.5-0.672-1.5-1.5V44h36v10.5C50,55.328,49.328,56,48.5,56z"/>
	</g>
	<g>
		<path class="st0" d="M14,44v4h16.6c0.773,0,1.4,0.627,1.4,1.4V56h16.5c0.828,0,1.5-0.672,1.5-1.5V44H14z"/>
	</g>
	<g>
		<path class="st0" d="M60.5,44h-57C2.672,44,2,43.328,2,42.5v-1C2,40.672,2.672,40,3.5,40h57c0.828,0,1.5,0.672,1.5,1.5v1
			C62,43.328,61.328,44,60.5,44z"/>
	</g>
	<g>
		<path class="st10" d="M30.5,44h-27C2.672,44,2,43.328,2,42.5v-1C2,40.672,2.672,40,3.5,40h27c0.828,0,1.5,0.672,1.5,1.5v1
			C32,43.328,31.328,44,30.5,44z"/>
	</g>
	<g>
		<path class="st1" d="M57,48c0.365,0,0.706,0.099,1,0.27V40h-2v8.27C56.294,48.099,56.635,48,57,48z"/>
	</g>
	<g>
		<path class="st1" d="M54.5,62h5c0.276,0,0.5-0.224,0.5-0.5V53l0,0c0-0.552-0.448-1-1-1h-4c-0.552,0-1,0.448-1,1v8.5
			C54,61.776,54.224,62,54.5,62z"/>
	</g>
	<g>
		<rect x="55" y="50" class="st6" width="4" height="2"/>
	</g>
	<g>
		<rect x="55" y="50" class="st5" width="2" height="2"/>
	</g>
	<g>
		<path class="st7" d="M59,50h-4v0c0-1.105,0.895-2,2-2h0C58.105,48,59,48.895,59,50L59,50z"/>
	</g>
	<g>
		<path class="st7" d="M58,40H31v0c0-1.105,0.895-2,2-2h23C57.105,38,58,38.895,58,40L58,40z"/>
	</g>
	<g>
		<path class="st7" d="M57,52h-2c-0.552,0-1,0.448-1,1v8.5c0,0.276,0.224,0.5,0.5,0.5H57V52z"/>
	</g>
	<g>
		<path class="st1" d="M55.5,55c-0.276,0-0.5,0.224-0.5,0.5V62h1v-6.5C56,55.224,55.776,55,55.5,55z"/>
	</g>
	<g>
		<path class="st7" d="M58.5,58.5c-0.276,0-0.5,0.224-0.5,0.5v3h1v-3C59,58.724,58.776,58.5,58.5,58.5z"/>
	</g>
	<g>
		<circle class="st6" cx="47" cy="17" r="15"/>
	</g>
	<g>
		<rect x="33.5" y="13" class="st5" width="13.5" height="8"/>
	</g>
	<g>
		<circle class="st3" cx="47" cy="17" r="4"/>
	</g>
	<g>
		<path class="st3" d="M47,4c7.168,0,13,5.832,13,13s-5.832,13-13,13s-13-5.832-13-13S39.832,4,47,4 M47,2c-8.284,0-15,6.716-15,15
			s6.716,15,15,15s15-6.716,15-15S55.284,2,47,2L47,2z"/>
	</g>
	<g>
		<path class="st5" d="M13,24l2.434,9.33c0.333,1.278,1.488,2.17,2.809,2.17h0c1.901,0,3.289-1.796,2.809-3.636L19,24H13z"/>
	</g>
</g>
</svg>
