<?xml version="1.0" encoding="utf-8"?>
<!-- Generator: Adobe Illustrator 23.0.0, SVG Export Plug-In . SVG Version: 6.00 Build 0)  -->
<svg version="1.1" id="Layer_1" xmlns="http://www.w3.org/2000/svg" xmlns:xlink="http://www.w3.org/1999/xlink" x="0px" y="0px"
	 viewBox="0 0 64 64" style="enable-background:new 0 0 64 64;" xml:space="preserve">
<style type="text/css">
	.st0{fill:#353744;}
	.st1{fill:#F68820;}
	.st2{fill:#808080;}
	.st3{fill:#5C76B2;}
	.st4{fill:#6FA4D8;}
	.st5{fill:#DBDEE3;}
	.st6{fill:#B3B4B6;}
	.st7{fill:#FBBE18;}
	.st8{fill:#EEC78E;}
	.st9{fill:#DB9E68;}
	.st10{fill:#55525B;}
	.st11{fill:#FFFFFF;}
	.st12{fill:#1C1D28;}
	.st13{fill:#FBD301;}
	.st14{fill:#BE7850;}
	.st15{fill:#4C52A3;}
	.st16{fill:#BF6B1E;}
	.st17{fill:#5F7ABC;}
	.st18{fill:#D4761E;}
	.st19{fill:#5D76B2;}
	.st20{fill:#668DC5;}
</style>
<g>
	<g>
		<circle class="st3" cx="33.5" cy="29" r="27"/>
	</g>
	<g>
		<path class="st4" d="M6.5,29c0,14.912,12.088,27,27,27V2C18.588,2,6.5,14.088,6.5,29z"/>
	</g>
	<g>
		<path class="st1" d="M56.591,15H47.5c-1.105,0-2-0.895-2-2c0-1.105,0.895-2,2-2h6.119c-1.337-1.494-2.84-2.834-4.477-4H39.5
			c-1.105,0-2,0.895-2,2c0,1.105-0.895,2-2,2h-12c-1.105,0-2,0.895-2,2c0,1.105-0.895,2-2,2s-2,0.895-2,2c0,1.105-0.895,2-2,2
			s-2,0.895-2,2c0,1.105,0.895,2,2,2h8c1.105,0,2-0.895,2-2c0-1.105,0.895-2,2-2h4c1.105,0,2,0.895,2,2c0,1.105-0.895,2-2,2
			s-2,0.895-2,2c0,1.105-0.895,2-2,2s-2,0.895-2,2c0,1.105,0.895,2,2,2s2,0.895,2,2c0,1.105-0.895,2-2,2s-2,0.895-2,2
			c0,1.105,0.895,2,2,2s2,0.895,2,2c0,1.105,0.895,2,2,2s2,0.895,2,2c0,1.105,0.895,2,2,2s2,0.895,2,2c0,1.105,0.895,2,2,2
			s2-0.895,2-2c0-1.105,0.895-2,2-2s2-0.895,2-2c0-1.105,0.895-2,2-2s2-0.895,2-2c0-1.105-0.895-2-2-2h-4c-1.105,0-2-0.895-2-2
			c0-1.105-0.895-2-2-2s-2-0.895-2-2c0-1.105,0.895-2,2-2s2-0.895,2-2c0-1.105,0.895-2,2-2s2-0.895,2-2c0-1.105,0.895-2,2-2
			s2-0.895,2-2c0-1.105,0.895-2,2-2h7.079C58.023,17.607,57.362,16.267,56.591,15z M39.5,19c-1.105,0-2-0.895-2-2
			c0-1.105,0.895-2,2-2s2,0.895,2,2C41.5,18.105,40.605,19,39.5,19z"/>
	</g>
	<g>
		<g>
			<path class="st7" d="M31.5,23c-1.105,0-2,0.895-2,2c0,1.105-0.895,2-2,2s-2,0.895-2,2c0,1.105,0.895,2,2,2s2,0.895,2,2
				c0,1.105-0.895,2-2,2s-2,0.895-2,2c0,1.105,0.895,2,2,2s2,0.895,2,2c0,1.105,0.895,2,2,2s2,0.895,2,2V21
				C33.5,22.105,32.605,23,31.5,23z"/>
		</g>
		<g>
			<path class="st7" d="M23.5,11c-1.105,0-2,0.895-2,2c0,1.105-0.895,2-2,2s-2,0.895-2,2c0,1.105-0.895,2-2,2s-2,0.895-2,2
				c0,1.105,0.895,2,2,2h8c1.105,0,2-0.895,2-2c0-1.105,0.895-2,2-2h4c1.105,0,2,0.895,2,2V11H23.5z"/>
		</g>
	</g>
	<g>
		<g>
			<path class="st0" d="M19.5,18h-4c-6.627,0-12,5.373-12,12c0,6.627,5.373,12,12,12h4c6.627,0,12-5.373,12-12
				C31.5,23.373,26.127,18,19.5,18z"/>
		</g>
		<g>
			<path class="st10" d="M15.5,60h4V44h-4c-0.552,0-1,0.448-1,1v14C14.5,59.552,14.948,60,15.5,60z"/>
		</g>
		<g>
			<path class="st0" d="M17.5,60h2c0.552,0,1-0.448,1-1V45c0-0.552-0.448-1-1-1h-2V60z"/>
		</g>
		<g>
			<circle class="st10" cx="15.5" cy="30" r="12"/>
		</g>
		<g>
			<circle class="st4" cx="15.5" cy="30" r="8"/>
		</g>
		<g>
			<circle class="st5" cx="12.5" cy="27" r="2"/>
		</g>
		<g>
			<rect x="15.5" y="42" class="st5" width="4" height="2"/>
		</g>
		<g>
			<rect x="17.5" y="42" class="st6" width="2" height="2"/>
		</g>
		<g>
			<rect x="15.5" y="42" class="st6" width="2" height="1"/>
		</g>
		<g>
			<path class="st5" d="M17.5,62L17.5,62c-1.105,0-2-0.895-2-2v0h4v0C19.5,61.105,18.605,62,17.5,62z"/>
		</g>
		<g>
			<path class="st6" d="M17.5,62L17.5,62l0-2h2v0C19.5,61.105,18.605,62,17.5,62z"/>
		</g>
	</g>
	<g>
		<path class="st7" d="M17,30.5c0,2.209,1.791,4,4,4h1.113c0.874-1.282,1.387-2.831,1.387-4.5c0-1.257-0.298-2.442-0.815-3.5H21
			C18.791,26.5,17,28.291,17,30.5z"/>
	</g>
</g>
</svg>
