<?xml version="1.0" encoding="utf-8"?>
<!-- Generator: Adobe Illustrator 23.0.0, SVG Export Plug-In . SVG Version: 6.00 Build 0)  -->
<svg version="1.1" id="Layer_1" xmlns="http://www.w3.org/2000/svg" xmlns:xlink="http://www.w3.org/1999/xlink" x="0px" y="0px"
	 viewBox="0 0 64 64" style="enable-background:new 0 0 64 64;" xml:space="preserve">
<style type="text/css">
	.st0{fill:#353744;}
	.st1{fill:#F68820;}
	.st2{fill:#808080;}
	.st3{fill:#5C76B2;}
	.st4{fill:#6FA4D8;}
	.st5{fill:#DBDEE3;}
	.st6{fill:#B3B4B6;}
	.st7{fill:#FBBE18;}
	.st8{fill:#EEC78E;}
	.st9{fill:#DB9E68;}
	.st10{fill:#55525B;}
	.st11{fill:#FFFFFF;}
	.st12{fill:#1C1D28;}
	.st13{fill:#FBD301;}
	.st14{fill:#BE7850;}
	.st15{fill:#4C52A3;}
	.st16{fill:#BF6B1E;}
	.st17{fill:#5F7ABC;}
	.st18{fill:#D4761E;}
	.st19{fill:#5D76B2;}
	.st20{fill:#668DC5;}
</style>
<g>
	<g>
		<g>
			<rect x="30.638" y="37" class="st9" width="3" height="2"/>
		</g>
		<g>
			<path class="st9" d="M38.138,50h-10.5V39h12v9.5C39.638,49.328,38.966,50,38.138,50z"/>
		</g>
		<g>
			<path class="st8" d="M27.638,50L27.638,50c-1.657,0-3-1.343-3-3v-9c0-0.552,0.448-1,1-1h0c1.105,0,2,0.895,2,2V50z"/>
		</g>
		<g>
			<path class="st8" d="M30.638,39h-3V27.5c0-0.828,0.672-1.5,1.5-1.5h0c0.828,0,1.5,0.672,1.5,1.5V39z"/>
		</g>
		<g>
			<path class="st8" d="M32.138,39.5L32.138,39.5c-0.828,0-1.5-0.672-1.5-1.5v-5c0-0.828,0.672-1.5,1.5-1.5h0
				c0.828,0,1.5,0.672,1.5,1.5v5C33.638,38.828,32.966,39.5,32.138,39.5z"/>
		</g>
		<g>
			<path class="st8" d="M35.138,43L35.138,43c-0.828,0-1.5-0.672-1.5-1.5V37c0-0.828,0.672-1.5,1.5-1.5h0c0.828,0,1.5,0.672,1.5,1.5
				v4.5C36.638,42.328,35.966,43,35.138,43z"/>
		</g>
		<g>
			<path class="st8" d="M38.138,44L38.138,44c-0.828,0-1.5-0.672-1.5-1.5v-4c0-0.828,0.672-1.5,1.5-1.5h0c0.828,0,1.5,0.672,1.5,1.5
				v4C39.638,43.328,38.966,44,38.138,44z"/>
		</g>
		<g>
			<path class="st8" d="M27.638,44v6h6C33.638,46.686,30.952,44,27.638,44z"/>
		</g>
		<g>
			<rect x="27.638" y="50" class="st8" width="6" height="3"/>
		</g>
		<g>
			<rect x="33.638" y="50" class="st9" width="4.5" height="3"/>
		</g>
		<g>
			<circle class="st9" cx="32.138" cy="38" r="1"/>
		</g>
		<g>
			<circle class="st9" cx="35.138" cy="41.5" r="1"/>
		</g>
		<g>
			<circle class="st9" cx="38.138" cy="42.5" r="1"/>
		</g>
		<g>
			<path class="st9" d="M24.638,38v2h2C26.638,38.895,25.742,38,24.638,38z"/>
		</g>
		<g>
			<rect x="27.638" y="53" class="st5" width="6" height="4"/>
		</g>
		<g>
			<path class="st10" d="M33.638,61h-7.5v-3c0-0.552,0.448-1,1-1h6.5V61z"/>
		</g>
		<g>
			<path class="st0" d="M39.638,61h-6v-4h5c0.552,0,1,0.448,1,1V61z"/>
		</g>
		<g>
			<rect x="33.638" y="53" class="st6" width="4.5" height="4"/>
		</g>
	</g>
	<g>
		<path class="st10" d="M48.5,21h-33c-0.828,0-1.5-0.672-1.5-1.5V9h36v10.5C50,20.328,49.328,21,48.5,21z"/>
	</g>
	<g>
		<path class="st0" d="M14,9v4h16.6c0.773,0,1.4,0.627,1.4,1.4V21h16.5c0.828,0,1.5-0.672,1.5-1.5V9H14z"/>
	</g>
	<g>
		<path class="st0" d="M60.5,9h-57C2.672,9,2,8.328,2,7.5v-1C2,5.672,2.672,5,3.5,5h57C61.328,5,62,5.672,62,6.5v1
			C62,8.328,61.328,9,60.5,9z"/>
	</g>
	<g>
		<path class="st10" d="M30.5,9h-27C2.672,9,2,8.328,2,7.5v-1C2,5.672,2.672,5,3.5,5h27C31.328,5,32,5.672,32,6.5v1
			C32,8.328,31.328,9,30.5,9z"/>
	</g>
	<g>
		<path class="st1" d="M57,13c0.365,0,0.706,0.099,1,0.27V5h-2v8.27C56.294,13.099,56.635,13,57,13z"/>
	</g>
	<g>
		<path class="st1" d="M54.5,27h5c0.276,0,0.5-0.224,0.5-0.5V18v0c0-0.552-0.448-1-1-1h-4c-0.552,0-1,0.448-1,1v8.5
			C54,26.776,54.224,27,54.5,27z"/>
	</g>
	<g>
		<rect x="55" y="15" class="st6" width="4" height="2"/>
	</g>
	<g>
		<rect x="55" y="15" class="st5" width="2" height="2"/>
	</g>
	<g>
		<path class="st7" d="M59,15h-4v0c0-1.105,0.895-2,2-2h0C58.105,13,59,13.895,59,15L59,15z"/>
	</g>
	<g>
		<path class="st7" d="M58,5H31v0c0-1.105,0.895-2,2-2h23C57.105,3,58,3.895,58,5L58,5z"/>
	</g>
	<g>
		<path class="st7" d="M57,17h-2c-0.552,0-1,0.448-1,1v8.5c0,0.276,0.224,0.5,0.5,0.5H57V17z"/>
	</g>
	<g>
		<path class="st1" d="M55.5,20c-0.276,0-0.5,0.224-0.5,0.5V27h1v-6.5C56,20.224,55.776,20,55.5,20z"/>
	</g>
	<g>
		<path class="st7" d="M58.5,23.5c-0.276,0-0.5,0.224-0.5,0.5v3h1v-3C59,23.724,58.776,23.5,58.5,23.5z"/>
	</g>
	<g>
		<path class="st7" d="M6.284,54.354l-1.293,1.293c-0.195,0.195-0.195,0.512,0,0.707l3.293,3.293c0.195,0.195,0.512,0.195,0.707,0
			l1.293-1.293c0.195-0.195,0.195-0.512,0-0.707l-3.293-3.293C6.796,54.158,6.48,54.158,6.284,54.354z"/>
	</g>
	<g>
		<path class="st1" d="M8.991,30.354l1.293,1.293c0.195,0.195,0.195,0.512,0,0.707l-3.293,3.293c-0.195,0.195-0.512,0.195-0.707,0
			l-1.293-1.293c-0.195-0.195-0.195-0.512,0-0.707l3.293-3.293C8.48,30.158,8.796,30.158,8.991,30.354z"/>
	</g>
	<g>
		<path class="st4" d="M19.138,46h-2c-0.276,0-0.5-0.224-0.5-0.5v-5c0-0.276,0.224-0.5,0.5-0.5h2c0.276,0,0.5,0.224,0.5,0.5v5
			C19.638,45.776,19.414,46,19.138,46z"/>
	</g>
	<g>
		<path class="st1" d="M58.991,54.354l1.293,1.293c0.195,0.195,0.195,0.512,0,0.707l-3.293,3.293c-0.195,0.195-0.512,0.195-0.707,0
			l-1.293-1.293c-0.195-0.195-0.195-0.512,0-0.707l3.293-3.293C58.48,54.158,58.796,54.158,58.991,54.354z"/>
	</g>
	<g>
		<path class="st4" d="M56.284,30.354l-1.293,1.293c-0.195,0.195-0.195,0.512,0,0.707l3.293,3.293c0.195,0.195,0.512,0.195,0.707,0
			l1.293-1.293c0.195-0.195,0.195-0.512,0-0.707l-3.293-3.293C56.796,30.158,56.48,30.158,56.284,30.354z"/>
	</g>
	<g>
		<path class="st7" d="M46.138,46h2c0.276,0,0.5-0.224,0.5-0.5v-5c0-0.276-0.224-0.5-0.5-0.5h-2c-0.276,0-0.5,0.224-0.5,0.5v5
			C45.638,45.776,45.862,46,46.138,46z"/>
	</g>
</g>
</svg>
