<?xml version="1.0" encoding="utf-8"?>
<!-- Generator: Adobe Illustrator 23.0.0, SVG Export Plug-In . SVG Version: 6.00 Build 0)  -->
<svg version="1.1" id="Layer_1" xmlns="http://www.w3.org/2000/svg" xmlns:xlink="http://www.w3.org/1999/xlink" x="0px" y="0px"
	 viewBox="0 0 64 64" style="enable-background:new 0 0 64 64;" xml:space="preserve">
<style type="text/css">
	.st0{fill:#353744;}
	.st1{fill:#F68820;}
	.st2{fill:#808080;}
	.st3{fill:#5C76B2;}
	.st4{fill:#6FA4D8;}
	.st5{fill:#DBDEE3;}
	.st6{fill:#B3B4B6;}
	.st7{fill:#FBBE18;}
	.st8{fill:#EEC78E;}
	.st9{fill:#DB9E68;}
	.st10{fill:#55525B;}
	.st11{fill:#FFFFFF;}
	.st12{fill:#1C1D28;}
	.st13{fill:#FBD301;}
	.st14{fill:#BE7850;}
	.st15{fill:#4C52A3;}
	.st16{fill:#BF6B1E;}
	.st17{fill:#5F7ABC;}
	.st18{fill:#D4761E;}
	.st19{fill:#5D76B2;}
	.st20{fill:#668DC5;}
</style>
<g>
	<g>
		<g>
			<path class="st8" d="M29.75,17h-4V3c0-1.105,0.895-2,2-2h0c1.105,0,2,0.895,2,2V17z"/>
		</g>
		<g>
			<path class="st8" d="M25.75,31L25.75,31l0-13c0-1.657-1.343-3-3-3h0c-0.552,0-1,0.448-1,1v11C21.75,29.209,23.541,31,25.75,31z"
				/>
		</g>
		<g>
			<path class="st9" d="M39.75,31h-14V17h16v12C41.75,30.105,40.855,31,39.75,31z"/>
		</g>
		<g>
			<path class="st8" d="M35.75,22L35.75,22c-1.105,0-2-0.895-2-2v-5c0-1.105,0.895-2,2-2h0c1.105,0,2,0.895,2,2v5
				C37.75,21.105,36.855,22,35.75,22z"/>
		</g>
		<g>
			<path class="st8" d="M39.75,23L39.75,23c-1.105,0-2-0.895-2-2v-4c0-1.105,0.895-2,2-2h0c1.105,0,2,0.895,2,2v4
				C41.75,22.105,40.855,23,39.75,23z"/>
		</g>
		<g>
			<path class="st8" d="M31.75,21L31.75,21c-1.105,0-2-0.895-2-2v-6c0-1.105,0.895-2,2-2h0c1.105,0,2,0.895,2,2v6
				C33.75,20.105,32.855,21,31.75,21z"/>
		</g>
		<g>
			<circle class="st9" cx="31.75" cy="19" r="1"/>
		</g>
		<g>
			<circle class="st9" cx="35.75" cy="20" r="1"/>
		</g>
		<g>
			<circle class="st9" cx="39.75" cy="21" r="1"/>
		</g>
		<g>
			<path class="st9" d="M21.75,17v2h2C23.75,17.895,22.855,17,21.75,17z"/>
		</g>
		<g>
			<path class="st8" d="M25.75,23v8h8C33.75,26.582,30.168,23,25.75,23z"/>
		</g>
		<g>
			<rect x="25.75" y="31" class="st8" width="8" height="4"/>
		</g>
		<g>
			<rect x="33.75" y="31" class="st9" width="6" height="4"/>
		</g>
		<g>
			<rect x="25.75" y="35" class="st5" width="14" height="4"/>
		</g>
		<g>
			<rect x="33.75" y="35" class="st6" width="6" height="4"/>
		</g>
		<g>
			<path class="st4" d="M41.75,63h-18V40c0-0.552,0.448-1,1-1h16c0.552,0,1,0.448,1,1V63z"/>
		</g>
		<g>
			<path class="st3" d="M41.75,63h-8V39h7c0.552,0,1,0.448,1,1V63z"/>
		</g>
		<g>
			<circle class="st7" cx="38.75" cy="43" r="1"/>
		</g>
	</g>
	<g>
		<g>
			<path class="st9" d="M57.75,42.5h-10.5v-11h12V41C59.25,41.828,58.578,42.5,57.75,42.5z"/>
		</g>
		<g>
			<path class="st8" d="M47.25,42.5L47.25,42.5c-1.657,0-3-1.343-3-3v-9c0-0.552,0.448-1,1-1h0c1.105,0,2,0.895,2,2V42.5z"/>
		</g>
		<g>
			<path class="st8" d="M50.25,31.5h-3V20c0-0.828,0.672-1.5,1.5-1.5l0,0c0.828,0,1.5,0.672,1.5,1.5V31.5z"/>
		</g>
		<g>
			<path class="st8" d="M51.75,34.5L51.75,34.5c-0.828,0-1.5-0.672-1.5-1.5v-5c0-0.828,0.672-1.5,1.5-1.5l0,0
				c0.828,0,1.5,0.672,1.5,1.5v5C53.25,33.828,52.578,34.5,51.75,34.5z"/>
		</g>
		<g>
			<path class="st8" d="M54.75,35.5L54.75,35.5c-0.828,0-1.5-0.672-1.5-1.5v-4.5c0-0.828,0.672-1.5,1.5-1.5l0,0
				c0.828,0,1.5,0.672,1.5,1.5V34C56.25,34.828,55.578,35.5,54.75,35.5z"/>
		</g>
		<g>
			<path class="st8" d="M57.75,36.5L57.75,36.5c-0.828,0-1.5-0.672-1.5-1.5v-4c0-0.828,0.672-1.5,1.5-1.5l0,0
				c0.828,0,1.5,0.672,1.5,1.5v4C59.25,35.828,58.578,36.5,57.75,36.5z"/>
		</g>
		<g>
			<path class="st8" d="M47.25,36.5v6h6C53.25,39.186,50.564,36.5,47.25,36.5z"/>
		</g>
		<g>
			<rect x="47.25" y="42.5" class="st8" width="6" height="3"/>
		</g>
		<g>
			<rect x="53.25" y="42.5" class="st9" width="4.5" height="3"/>
		</g>
		<g>
			<circle class="st9" cx="51.75" cy="33" r="1"/>
		</g>
		<g>
			<circle class="st9" cx="54.75" cy="34" r="1"/>
		</g>
		<g>
			<circle class="st9" cx="57.75" cy="35" r="1"/>
		</g>
		<g>
			<path class="st9" d="M44.25,30.5v2h2C46.25,31.395,45.355,30.5,44.25,30.5z"/>
		</g>
		<g>
			<rect x="47.25" y="45.5" class="st5" width="6" height="4"/>
		</g>
		<g>
			<path class="st4" d="M53.25,63h-7.5V50.5c0-0.552,0.448-1,1-1h6.5V63z"/>
		</g>
		<g>
			<path class="st3" d="M59.25,63h-6V49.5h5c0.552,0,1,0.448,1,1V63z"/>
		</g>
		<g>
			<rect x="53.25" y="45.5" class="st6" width="4.5" height="4"/>
		</g>
		<g>
			<circle class="st7" cx="56.75" cy="52.5" r="1"/>
		</g>
	</g>
	<g>
		<g>
			<path class="st9" d="M18.25,50H7.75V39h12v9.5C19.75,49.328,19.078,50,18.25,50z"/>
		</g>
		<g>
			<path class="st8" d="M7.75,50L7.75,50c-1.657,0-3-1.343-3-3v-9c0-0.552,0.448-1,1-1h0c1.105,0,2,0.895,2,2V50z"/>
		</g>
		<g>
			<path class="st8" d="M10.75,39h-3V27.5c0-0.828,0.672-1.5,1.5-1.5h0c0.828,0,1.5,0.672,1.5,1.5V39z"/>
		</g>
		<g>
			<path class="st8" d="M12.25,42L12.25,42c-0.828,0-1.5-0.672-1.5-1.5v-5c0-0.828,0.672-1.5,1.5-1.5h0c0.828,0,1.5,0.672,1.5,1.5v5
				C13.75,41.328,13.078,42,12.25,42z"/>
		</g>
		<g>
			<path class="st8" d="M15.25,43L15.25,43c-0.828,0-1.5-0.672-1.5-1.5V37c0-0.828,0.672-1.5,1.5-1.5h0c0.828,0,1.5,0.672,1.5,1.5
				v4.5C16.75,42.328,16.078,43,15.25,43z"/>
		</g>
		<g>
			<path class="st8" d="M18.25,44L18.25,44c-0.828,0-1.5-0.672-1.5-1.5v-4c0-0.828,0.672-1.5,1.5-1.5h0c0.828,0,1.5,0.672,1.5,1.5v4
				C19.75,43.328,19.078,44,18.25,44z"/>
		</g>
		<g>
			<path class="st8" d="M7.75,44v6h6C13.75,46.686,11.064,44,7.75,44z"/>
		</g>
		<g>
			<rect x="7.75" y="50" class="st8" width="6" height="3"/>
		</g>
		<g>
			<rect x="13.75" y="50" class="st9" width="4.5" height="3"/>
		</g>
		<g>
			<circle class="st9" cx="12.25" cy="40.5" r="1"/>
		</g>
		<g>
			<circle class="st9" cx="15.25" cy="41.5" r="1"/>
		</g>
		<g>
			<circle class="st9" cx="18.25" cy="42.5" r="1"/>
		</g>
		<g>
			<path class="st9" d="M4.75,38v2h2C6.75,38.895,5.855,38,4.75,38z"/>
		</g>
		<g>
			<rect x="7.75" y="53" class="st5" width="6" height="4"/>
		</g>
		<g>
			<path class="st4" d="M13.75,63h-7.5v-5c0-0.552,0.448-1,1-1h6.5V63z"/>
		</g>
		<g>
			<path class="st3" d="M19.75,63h-6v-6h5c0.552,0,1,0.448,1,1V63z"/>
		</g>
		<g>
			<rect x="13.75" y="53" class="st6" width="4.5" height="4"/>
		</g>
		<g>
			<circle class="st7" cx="17.25" cy="60" r="1"/>
		</g>
	</g>
</g>
</svg>
