<svg id="Layer_1" data-name="Layer 1" xmlns="http://www.w3.org/2000/svg" viewBox="0 0 128 128"><title>BOOTS</title><path d="M63.649,116h48.135s-5.27-33.378-28.108-33.378h-8.33A17.384,17.384,0,0,1,58.1,63.007L64.7,12H16.216l8.432,104H43.973l5.8-8.608Z" style="fill:#e76a36"/><path d="M83.676,82.622h-8.33A17.384,17.384,0,0,1,58.1,63.007L64.7,12H40.46V116h3.513l5.8-8.608L63.649,116h48.135S106.514,82.622,83.676,82.622Z" style="fill:#b95529"/><path d="M19.656,54.425s7.086-6.852,16.58,0,20.631,4.167,24.022-8.061L64.7,12H16.216Z" style="fill:#f9235e"/><path d="M63.649,116h48.135a57.836,57.836,0,0,0-1.544-6.5H53.169Z" style="fill:#00465f"/><polygon points="24.122 109.5 24.649 116 43.973 116 48.351 109.5 24.122 109.5" style="fill:#00465f"/><path d="M53.637,79.041a1.75,1.75,0,0,1-.875-3.267l8.272-4.768a1.75,1.75,0,0,1,1.748,3.033l-8.272,4.768A1.748,1.748,0,0,1,53.637,79.041Z" style="fill:#cae7f7"/><path d="M61.445,86.7a1.75,1.75,0,0,1-1.172-3.05l7.089-6.395a1.75,1.75,0,0,1,2.344,2.6l-7.089,6.395A1.742,1.742,0,0,1,61.445,86.7Z" style="fill:#cae7f7"/><path d="M74.246,91a1.751,1.751,0,0,1-1.574-2.512l4.154-8.6a1.75,1.75,0,0,1,3.151,1.523l-4.154,8.6A1.749,1.749,0,0,1,74.246,91Z" style="fill:#cae7f7"/><polygon points="48.351 32.818 40.189 39.932 32.027 32.818 32.027 12 48.351 12 48.351 32.818" style="fill:#ffd92d"/><path d="M40.46,56.787c8.35,3.481,16.9.025,19.8-10.423L64.7,12H40.46Z" style="fill:#c81341"/><polygon points="40.46 39.697 48.351 32.818 48.351 12 40.46 12 40.46 39.697" style="fill:#fcbe00"/><path d="M61.331,24.429l-.062.479a1.749,1.749,0,0,0,1.51,1.96,1.8,1.8,0,0,0,.228.015,1.75,1.75,0,0,0,1.733-1.525l.062-.479a1.75,1.75,0,1,0-3.471-.449Z" style="fill:#790000"/><path d="M113.512,115.728a65.662,65.662,0,0,0-5.653-17.2c-5.775-11.551-14.138-17.656-24.184-17.656H80.13a1.746,1.746,0,0,0-3.3-.981l-.474.981H75.345a15.6,15.6,0,0,1-5.6-1.06,1.748,1.748,0,0,0-2.384-2.555l-.908.819a15.059,15.059,0,0,1-3.925-3.89l.252-.146a1.75,1.75,0,0,0-1.748-3.033l-.167.1a15.626,15.626,0,0,1-1.026-7.872l4.146-32.049a1.75,1.75,0,1,0-3.471-.449l-1.973,15.25c-1.395,4.945-4.265,8.41-8.1,9.754-4.02,1.409-8.826.416-13.186-2.731a15.843,15.843,0,0,0-10.575-3.338,1.75,1.75,0,1,0,.265,3.49,12.411,12.411,0,0,1,8.261,2.686,19.778,19.778,0,0,0,11.465,4.021A14.845,14.845,0,0,0,51.6,59.04a14.582,14.582,0,0,0,5.73-3.722l-.966,7.464a19.127,19.127,0,0,0,1.437,10.084l-5.046,2.908a1.75,1.75,0,0,0,1.748,3.033l4.99-2.876a18.048,18.048,0,0,0,4.294,4.545l-3.52,3.175a1.75,1.75,0,0,0,2.344,2.6L66.9,82.384a19.1,19.1,0,0,0,7.774,1.953l-2.006,4.151a1.75,1.75,0,0,0,3.151,1.523l2.725-5.639h5.128c13.99,0,21.009,13.927,24.162,23.378H79.875a1.75,1.75,0,0,0,0,3.5H108.9c.32,1.168.569,2.192.75,3H99.25a1.75,1.75,0,1,0,0,3.5h12.534a1.75,1.75,0,0,0,1.729-2.022Z" style="fill:#790000"/><path d="M92.75,114.25H92a1.75,1.75,0,1,0,0,3.5h.75a1.75,1.75,0,0,0,0-3.5Z" style="fill:#790000"/><path d="M85.833,114.25H64.147L50.692,105.9a1.75,1.75,0,0,0-2.374.51l-.9,1.336H32.406a1.75,1.75,0,0,0,0,3.5H45.062l-2.02,3H26.262L18.114,13.75H46.6V32.021l-6.412,5.59-6.412-5.59V19.5a1.75,1.75,0,0,0-3.5,0V32.817a1.751,1.751,0,0,0,.6,1.319l8.162,7.115a1.75,1.75,0,0,0,2.3,0L49.5,34.137a1.751,1.751,0,0,0,.6-1.319V13.75H62.711l-.562,4.344a1.75,1.75,0,0,0,3.471.449l.817-6.318A1.75,1.75,0,0,0,64.7,10.25H16.216a1.749,1.749,0,0,0-1.744,1.892l8.432,104a1.75,1.75,0,0,0,1.744,1.608H43.973a1.752,1.752,0,0,0,1.452-.772l4.376-6.5,0,0,.478-.71,12.446,7.72a1.748,1.748,0,0,0,.922.263H85.833a1.75,1.75,0,1,0,0-3.5Z" style="fill:#790000"/><path d="M72.875,111.25a1.75,1.75,0,0,0,0-3.5H64.989a1.75,1.75,0,0,0,0,3.5Z" style="fill:#790000"/></svg>