<svg id="Layer_1" data-name="Layer 1" xmlns="http://www.w3.org/2000/svg" viewBox="0 0 128 128"><title>DRAW WELL</title><path d="M64,55.9a1.75,1.75,0,0,1-1.75-1.75V38.125a1.75,1.75,0,0,1,3.5,0V54.146A1.75,1.75,0,0,1,64,55.9Z" style="fill:#00465f"/><path d="M69.48,61.375a1.75,1.75,0,0,1-1.75-1.75,3.729,3.729,0,0,0-7.459,0,1.75,1.75,0,0,1-3.5,0,7.229,7.229,0,0,1,14.459,0A1.75,1.75,0,0,1,69.48,61.375Z" style="fill:#00465f"/><rect x="25.125" y="76.667" width="77.75" height="39.333" style="fill:#f9235e"/><rect x="64" y="76.667" width="38.875" height="39.333" style="fill:#c81341"/><polygon points="102.875 32.5 25.125 32.5 35.125 12 92.875 12 102.875 32.5" style="fill:#ffd92d"/><rect x="30.083" y="32.5" width="6.333" height="44.167" style="fill:#e76a36"/><rect x="91.583" y="32.5" width="6.333" height="44.167" style="fill:#b95529"/><rect x="25.125" y="86.25" width="19.625" height="7.25" style="fill:#ffd3b7"/><rect x="44.375" y="93.5" width="19.625" height="7.25" style="fill:#ffd3b7"/><rect x="83.25" y="108.75" width="19.625" height="7.25" style="fill:#ffb594"/><rect x="65.75" y="76.667" width="19.625" height="7.25" style="fill:#ffb594"/><polygon points="69.188 76.667 58.813 76.667 55.813 59.625 72.188 59.625 69.188 76.667" style="fill:#96dd3d"/><polygon points="64 32.5 102.875 32.5 92.875 12 64 12 64 32.5" style="fill:#fcbe00"/><polygon points="64 76.667 69.188 76.667 72.188 59.625 64 59.625 64 76.667" style="fill:#59c26a"/><path d="M74.917,61.375H53.083a1.75,1.75,0,0,1,0-3.5H74.917a1.75,1.75,0,1,1,0,3.5Z" style="fill:#00465f"/><path d="M116,114.25h-.917a1.75,1.75,0,0,0,0,3.5H116a1.75,1.75,0,0,0,0-3.5Z" style="fill:#790000"/><path d="M109.083,114.25h-4.458V76.667a1.75,1.75,0,0,0-1.75-1.75H99.667V38.125a1.75,1.75,0,0,0-3.5,0V74.917H93.333V34.25h9.542a1.75,1.75,0,0,0,1.573-2.518l-10-20.5a1.752,1.752,0,0,0-1.573-.982H35.125a1.752,1.752,0,0,0-1.573.982l-10,20.5a1.75,1.75,0,0,0,1.573,2.518h3.208V74.917H25.125a1.75,1.75,0,0,0-1.75,1.75V114.25H12a1.75,1.75,0,0,0,0,3.5H33.333a1.75,1.75,0,0,0,0-3.5H26.875v-19H62.25V99H44.375a1.75,1.75,0,0,0,0,3.5H64a1.75,1.75,0,0,0,1.75-1.75V93.5A1.75,1.75,0,0,0,64,91.75H46.5v-5.5a1.75,1.75,0,0,0-1.75-1.75H26.875V78.417h56.75v3.75H65.75a1.75,1.75,0,0,0,0,3.5H85.375a1.75,1.75,0,0,0,1.75-1.75v-5.5h14V107H83.25a1.75,1.75,0,0,0-1.75,1.75v5.5H40.667a1.75,1.75,0,0,0,0,3.5h68.416a1.75,1.75,0,1,0,0-3.5ZM43,88v3.75H26.875V88ZM36.219,13.75H91.781l8.293,17H59.521a1.75,1.75,0,0,0,0,3.5H89.833V74.917H71.273l2.384-13.542h1.26a1.75,1.75,0,0,0,0-3.5H71.006a7.243,7.243,0,0,0-5.256-5.256V39.875h17.5a1.75,1.75,0,0,0,0-3.5H38.167V34.25H45.5a1.75,1.75,0,0,0,0-3.5H27.926ZM60.282,74.917,57.9,61.375H70.1L67.718,74.917ZM64,55.9a3.718,3.718,0,0,1,3.273,1.979H60.727A3.718,3.718,0,0,1,64,55.9ZM31.833,34.25h2.834V69.141a1.75,1.75,0,0,0,3.5,0V39.875H62.25V52.619a7.243,7.243,0,0,0-5.256,5.256H53.083a1.75,1.75,0,0,0,0,3.5h1.26l2.384,13.542H31.833ZM85,110.5h16.125v3.75H85Z" style="fill:#790000"/><path d="M52.25,34.25h.813a1.75,1.75,0,0,0,0-3.5H52.25a1.75,1.75,0,0,0,0,3.5Z" style="fill:#790000"/></svg>