<svg id="Layer_1" data-name="Layer 1" xmlns="http://www.w3.org/2000/svg" viewBox="0 0 128 128"><title>FERTILIZER</title><path d="M85.352,27.507a7.183,7.183,0,0,0-1.875.256,7.262,7.262,0,0,0-7.212-8.453c-.161,0-.318.014-.477.024a10.465,10.465,0,0,0-19.17-1.883c-.208-.018-.418-.032-.631-.032a7.305,7.305,0,0,0-7.282,6.76,5.375,5.375,0,0,0-5.95,3.334c-.036,0-.071-.005-.107-.005a7.2,7.2,0,0,0-7.2,7.2h57.1A7.2,7.2,0,0,0,85.352,27.507Z" style="fill:#ffd92d"/><path d="M76.265,19.31c-.161,0-.318.014-.477.024A10.35,10.35,0,0,0,64,12.173V34.7H92.548a7.174,7.174,0,0,0-9.071-6.94,7.262,7.262,0,0,0-7.211-8.453Z" style="fill:#fcbe00"/><path d="M100.112,110.277c-.814-1.995-3.149-3.258-5.2-4.014,2.709-5,4.547-14.729,4.547-25.915,0-9.692-5.381-32.832-7.512-38.207h-55.9c-2.13,5.375-7.512,28.516-7.512,38.207,0,11.186,1.839,20.917,4.547,25.915-2.048.756-4.383,2.019-5.2,4.014-1.559,3.819-5.845,5.418-5.845,5.418s12.36.211,18.879-5.858h0c0,.006,0,.013,0,.019,0,1.439,10.333,2.605,23.079,2.605s23.079-1.167,23.079-2.605c0-.006,0-.013,0-.019h0c6.519,6.069,18.879,5.859,18.879,5.859S101.671,114.1,100.112,110.277Z" style="fill:#e76a36"/><path d="M45.623,105.2a1.75,1.75,0,0,1-.294-3.475c21.811-3.744,36.839-.129,37.467.026a1.75,1.75,0,0,1-.84,3.4c-.147-.037-15-3.586-36.035.025A1.721,1.721,0,0,1,45.623,105.2Z" style="fill:#b95529"/><path d="M55.875,67.542a8.125,8.125,0,1,0,16.25,0C72.125,63.054,64,52.333,64,52.333S55.875,63.054,55.875,67.542Z" style="fill:#96dd3d"/><path d="M54.142,27.257a1.75,1.75,0,0,1-1.75-1.75,5.359,5.359,0,0,1,5.353-5.353,1.75,1.75,0,0,1,0,3.5,1.855,1.855,0,0,0-1.853,1.853A1.75,1.75,0,0,1,54.142,27.257Z" style="fill:#fcbe00"/><path d="M70.027,20.833a1.75,1.75,0,0,1-1.74-1.584.77.77,0,0,0-.276-.521.789.789,0,0,0-.563-.173,1.75,1.75,0,0,1-.332-3.484,4.271,4.271,0,0,1,4.656,3.848A1.75,1.75,0,0,1,70.2,20.826C70.139,20.831,70.083,20.833,70.027,20.833Z" style="fill:#ffd92d"/><rect x="30.533" y="34.703" width="66.934" height="7.438" style="fill:#ffd3b7"/><path d="M100.112,110.277c-.814-1.995-3.149-3.258-5.2-4.014,2.709-5,4.547-14.729,4.547-25.915,0-9.692-5.381-32.832-7.512-38.207H64v70.321c12.746,0,23.079-1.167,23.079-2.605,0-.006,0-.013,0-.019h0c6.519,6.069,18.879,5.859,18.879,5.859S101.671,114.1,100.112,110.277Z" style="fill:#b95529"/><path d="M72.125,67.542C72.125,63.054,64,52.333,64,52.333V75.667A8.125,8.125,0,0,0,72.125,67.542Z" style="fill:#59c26a"/><rect x="64" y="34.703" width="33.467" height="7.438" style="fill:#ffb594"/><path d="M64,89.917a1.75,1.75,0,0,1-1.75-1.75V64a1.75,1.75,0,1,1,3.5,0V88.167A1.75,1.75,0,0,1,64,89.917Z" style="fill:#00465f"/><path d="M82.8,101.753c-.628-.155-15.656-3.77-37.467-.026a1.75,1.75,0,0,0,.294,3.475,1.721,1.721,0,0,0,.3-.026c21.038-3.612,35.888-.062,36.035-.025a1.75,1.75,0,0,0,.84-3.4Z" style="fill:#790000"/><path d="M69.758,73.535a1.749,1.749,0,0,0,2.43-.471,9.832,9.832,0,0,0,1.688-5.522c0-4.831-7.064-14.4-8.48-16.265a1.812,1.812,0,0,0-2.789,0c-1.417,1.869-8.48,11.434-8.48,16.265a9.884,9.884,0,0,0,8.125,9.71V88.167a1.75,1.75,0,1,0,3.5,0V64a1.75,1.75,0,0,0-3.5,0v9.666a6.382,6.382,0,0,1-4.625-6.125c0-2.427,3.486-8.154,6.375-12.241,2.889,4.087,6.375,9.814,6.375,12.241A6.341,6.341,0,0,1,69.287,71.1,1.75,1.75,0,0,0,69.758,73.535Z" style="fill:#790000"/><path d="M55.892,25.507a1.855,1.855,0,0,1,1.853-1.853,1.75,1.75,0,0,0,0-3.5,5.359,5.359,0,0,0-5.353,5.353,1.75,1.75,0,1,0,3.5,0Z" style="fill:#790000"/><path d="M68.011,18.728a.77.77,0,0,1,.276.521,1.75,1.75,0,0,0,1.74,1.584c.056,0,.111,0,.168-.008a1.75,1.75,0,0,0,1.576-1.908,4.271,4.271,0,0,0-4.656-3.848,1.75,1.75,0,0,0,.332,3.484A.789.789,0,0,1,68.011,18.728Z" style="fill:#790000"/><path d="M106.568,114.055c-.035-.013-3.6-1.415-4.836-4.44a8.6,8.6,0,0,0-4.45-4.242c2.446-5.7,3.931-15.025,3.931-25.025,0-7.882-3.287-23.321-5.5-31.775a1.75,1.75,0,1,0-3.387.885c2.609,9.985,5.383,24.2,5.383,30.89,0,10.536-1.661,20.146-4.336,25.081a1.75,1.75,0,0,0,.932,2.476c2.236.826,3.722,1.9,4.184,3.034a9.93,9.93,0,0,0,1.491,2.5c-3.789-.609-8.561-1.947-11.712-4.881a1.807,1.807,0,0,0-2.525.141,1.747,1.747,0,0,0-.4,1.406c.007.043.016.088.025.132a1.753,1.753,0,0,0,.7,1.051c6.563,5.917,17.891,6.16,19.689,6.16.118,0,.194,0,.228,0a1.75,1.75,0,0,0,.581-3.389Z" style="fill:#790000"/><path d="M77.091,110.246c-3.843.3-8.369.465-13.091.465-11.748,0-19.79-.989-21.568-1.762a1.767,1.767,0,0,0-.225-.3,1.8,1.8,0,0,0-2.479-.092c-3.151,2.934-7.923,4.271-11.712,4.881a9.937,9.937,0,0,0,1.492-2.5c.462-1.131,1.947-2.208,4.184-3.034a1.75,1.75,0,0,0,.932-2.476c-2.674-4.934-4.336-14.544-4.336-25.081,0-8.929,4.788-29.847,6.992-36.457h6.887a1.75,1.75,0,0,0,0-3.5H32.283V36.453H95.717v3.938H58.5a1.75,1.75,0,0,0,0,3.5H97.467a1.75,1.75,0,0,0,1.75-1.75V34.7a1.75,1.75,0,0,0-1.75-1.75H94.124a8.96,8.96,0,0,0-8.772-7.2h-.068A9.074,9.074,0,0,0,77,17.589a12.217,12.217,0,0,0-21.355-1.915,9.106,9.106,0,0,0-8.4,6.69,7.122,7.122,0,0,0-5.845,3.9,1.737,1.737,0,0,0,1.176,3c.034,0,.119.007.153.007a1.74,1.74,0,0,0,1.649-1.1,3.651,3.651,0,0,1,3.406-2.315,3.726,3.726,0,0,1,.625.059,1.749,1.749,0,0,0,2.038-1.595,5.576,5.576,0,0,1,5.537-5.14c.163,0,.324.012.483.025a1.745,1.745,0,0,0,1.683-.9,8.715,8.715,0,0,1,15.965,1.566A1.746,1.746,0,0,0,75.9,21.08l.1-.007c.087-.006.174-.013.262-.013a5.566,5.566,0,0,1,5.56,5.56,5.708,5.708,0,0,1-.076.872,1.75,1.75,0,0,0,2.184,1.961,5.4,5.4,0,0,1,6.573,3.5H30.533a1.75,1.75,0,0,0-1.75,1.75v7.438a1.75,1.75,0,0,0,1.75,1.75h3.078c-2.436,7.93-6.823,27.513-6.823,36.457,0,10,1.484,19.321,3.93,25.025a8.6,8.6,0,0,0-4.45,4.243c-1.24,3.038-4.807,4.428-4.836,4.439a1.75,1.75,0,0,0,.582,3.389c.032,0,.109,0,.227,0,1.714,0,12.057-.22,18.709-5.343a24.623,24.623,0,0,0,6.536,1.333A155.247,155.247,0,0,0,64,114.211c4.812,0,9.435-.165,13.366-.476a1.75,1.75,0,0,0-.275-3.489Z" style="fill:#790000"/><path d="M51.5,40.391a1.75,1.75,0,0,0,0,3.5h.625a1.75,1.75,0,0,0,0-3.5Z" style="fill:#790000"/></svg>