<svg id="Layer_1" data-name="Layer 1" xmlns="http://www.w3.org/2000/svg" viewBox="0 0 128 128"><title>FIELDS</title><rect x="24" y="80.5" width="84" height="27.5" style="fill:#ffd92d"/><rect x="55.474" y="80.5" width="39.36" height="27.5" style="fill:#fcbe00"/><polygon points="41.411 87.23 70.947 87.23 74.25 95.25 65.058 93.884 43.988 93.884 37.75 93.884 41.411 87.23" style="fill:#96dd3d"/><polygon points="55.474 87.23 55.474 93.884 65.058 93.884 74.25 95.25 70.947 87.23 55.474 87.23" style="fill:#59c26a"/><circle cx="27.25" cy="27.25" r="6.246" style="fill:#ffd92d"/><path d="M27.25,10.25A1.75,1.75,0,0,0,25.5,12v4.705a1.75,1.75,0,1,0,3.5,0V12A1.75,1.75,0,0,0,27.25,10.25Z" style="fill:#fcbe00"/><path d="M34.706,21.544a1.744,1.744,0,0,0,1.237-.513L39.271,17.7A1.75,1.75,0,1,0,36.8,15.229l-3.327,3.327a1.75,1.75,0,0,0,1.237,2.987Z" style="fill:#fcbe00"/><path d="M42.5,25.5H37.8a1.75,1.75,0,0,0,0,3.5H42.5a1.75,1.75,0,0,0,0-3.5Z" style="fill:#fcbe00"/><path d="M35.943,33.469a1.75,1.75,0,0,0-2.475,2.475L36.8,39.271A1.75,1.75,0,0,0,39.271,36.8Z" style="fill:#fcbe00"/><path d="M27.25,36.045a1.75,1.75,0,0,0-1.75,1.75V42.5a1.75,1.75,0,0,0,3.5,0V37.795A1.75,1.75,0,0,0,27.25,36.045Z" style="fill:#fcbe00"/><path d="M18.557,33.469,15.23,36.8A1.75,1.75,0,1,0,17.7,39.271l3.327-3.327a1.75,1.75,0,0,0-2.475-2.475Z" style="fill:#fcbe00"/><path d="M18.455,27.25a1.75,1.75,0,0,0-1.75-1.75H12A1.75,1.75,0,0,0,12,29h4.705A1.75,1.75,0,0,0,18.455,27.25Z" style="fill:#fcbe00"/><path d="M17.7,15.229A1.75,1.75,0,0,0,15.23,17.7l3.327,3.327a1.75,1.75,0,1,0,2.475-2.475Z" style="fill:#fcbe00"/><path d="M33.5,27.25A6.246,6.246,0,0,0,27.25,21V33.5A6.246,6.246,0,0,0,33.5,27.25Z" style="fill:#fcbe00"/><path d="M12,73.667s24.644-4.429,30.19,15.957C47.5,109.146,87.582,116,87.582,116H12Z" style="fill:#00d6de"/><path d="M40.814,107.8C37,104.66,34.153,101.07,33,97,29.429,84.395,19.107,83.4,12,84.371V116H43.988l-3.174-8.2" style="fill:#00a9de"/><path d="M116,57.75S82.09,51.656,74.458,79.707C67.15,106.569,12,116,12,116H116Z" style="fill:#96dd3d"/><path d="M51.208,116s24.15-4.415,33.042-24.75C95,66.667,116,72.333,116,72.333l0,13.07c-7.019.321-16.6,3.7-22.782,17.847A34.472,34.472,0,0,1,83.731,115.7Z" style="fill:#59c26a"/><polygon points="55.5 43.545 33 59.462 78 59.462 55.5 43.545" style="fill:#e76a36"/><path d="M60.321,23.993a4.91,4.91,0,0,1,9.428,1.92c0,.11-.009.218-.017.327A3.668,3.668,0,1,1,70.5,33.5H60.915a4.77,4.77,0,0,1-.593-9.5Z" style="fill:#00d6de"/><path d="M110.392,30.831a6.589,6.589,0,0,0-12.653,2.577c0,.148.013.293.022.439a4.923,4.923,0,1,0-1.029,9.737H109.6a6.4,6.4,0,0,0,.8-12.753Z" style="fill:#00d6de"/><path d="M110.392,30.831a6.59,6.59,0,0,0-6.065-4.011c-.143,0-.283.012-.424.021V43.585H109.6a6.4,6.4,0,0,0,.8-12.753Z" style="fill:#00a9de"/><path d="M70.5,26.157a3.672,3.672,0,0,0-.767.083c.007-.109.016-.216.016-.327a4.895,4.895,0,0,0-4.593-4.877V33.5H70.5a3.669,3.669,0,0,0,0-7.339Z" style="fill:#00a9de"/><polygon points="55.474 59.462 78 59.462 55.5 43.545 55.474 43.564 55.474 59.462" style="fill:#b95529"/><path d="M27.25,34.152a6.9,6.9,0,1,0-6.9-6.9A6.91,6.91,0,0,0,27.25,34.152Zm0-10.3a3.4,3.4,0,1,1-3.4,3.4A3.405,3.405,0,0,1,27.25,23.848Z" style="fill:#790000"/><path d="M27.25,18.455A1.75,1.75,0,0,0,29,16.705V12a1.75,1.75,0,0,0-3.5,0v4.705A1.75,1.75,0,0,0,27.25,18.455Z" style="fill:#790000"/><path d="M34.706,21.544a1.744,1.744,0,0,0,1.237-.513L39.271,17.7A1.75,1.75,0,1,0,36.8,15.229l-3.327,3.327a1.75,1.75,0,0,0,1.237,2.987Z" style="fill:#790000"/><path d="M36.045,27.25A1.75,1.75,0,0,0,37.795,29H42.5a1.75,1.75,0,0,0,0-3.5H37.795A1.75,1.75,0,0,0,36.045,27.25Z" style="fill:#790000"/><path d="M33.469,33.469a1.749,1.749,0,0,0,0,2.475L36.8,39.271A1.75,1.75,0,0,0,39.271,36.8l-3.327-3.327A1.749,1.749,0,0,0,33.469,33.469Z" style="fill:#790000"/><path d="M25.5,37.795V42.5a1.75,1.75,0,0,0,3.5,0V37.795a1.75,1.75,0,0,0-3.5,0Z" style="fill:#790000"/><path d="M18.557,33.469,15.229,36.8A1.75,1.75,0,1,0,17.7,39.271l3.327-3.327a1.75,1.75,0,0,0-2.475-2.475Z" style="fill:#790000"/><path d="M12,29h4.705a1.75,1.75,0,1,0,0-3.5H12A1.75,1.75,0,0,0,12,29Z" style="fill:#790000"/><path d="M18.557,21.031a1.75,1.75,0,1,0,2.475-2.475L17.7,15.229A1.75,1.75,0,1,0,15.229,17.7Z" style="fill:#790000"/><path d="M12.236,86.1c12.618-1.726,17.341,5.232,19.081,11.373a19.423,19.423,0,0,0,2.933,5.962,1.75,1.75,0,0,0,2.85-2.032,15.958,15.958,0,0,1-2.416-4.884c-2.993-10.566-11.135-15.5-22.921-13.886a1.75,1.75,0,0,0,.474,3.468Z" style="fill:#790000"/><path d="M72.38,88.23l.034-.052a27.126,27.126,0,0,0,3.733-8.013c2.97-10.916,10.441-17.72,22.207-20.224a50.95,50.95,0,0,1,17.338-.47,1.75,1.75,0,0,0,.618-3.445c-.326-.059-30.039-5.079-41.06,16.751V61.212H78a1.75,1.75,0,0,0,1.011-3.179l-22.5-15.917a1.749,1.749,0,0,0-2.021,0l-22.5,15.917A1.75,1.75,0,0,0,33,61.212h2.7V76.8c-9.8-7.252-23.814-4.888-24.007-4.852a1.75,1.75,0,1,0,.619,3.444,36.331,36.331,0,0,1,12.346.324c8.4,1.767,13.733,6.6,15.847,14.371a19.531,19.531,0,0,0,1.857,4.429,1.735,1.735,0,0,0,.237.421,28.343,28.343,0,0,0,6.464,7.315c-17.128,8.457-37.027,11.97-37.355,12.026a1.75,1.75,0,1,0,.59,3.45C14.352,117.373,57.911,109.678,72.38,88.23ZM40.844,82.25H71.7a24.662,24.662,0,0,1-1.708,3.23H42.581A22.706,22.706,0,0,0,40.844,82.25ZM55.5,45.688l17,12.023H38.5ZM71.75,61.212v10.3H59.667a1.75,1.75,0,1,0,0,3.5H71.75v3.74H39.2V75.01h4.791a1.75,1.75,0,0,0,0-3.5H39.2v-10.3Zm-19.3,39.272a29.5,29.5,0,0,1-5.1-4.849H55.5a1.75,1.75,0,0,0,0-3.5H45.032a15.7,15.7,0,0,1-1.153-2.97c-.017-.064-.04-.121-.058-.185h23.6C63.6,93.476,58.285,97.288,52.452,100.484Z" style="fill:#790000"/><path d="M91.2,83.008a1.75,1.75,0,0,0-2.709-2.216,41.887,41.887,0,0,0-5.842,9.757c-8.4,19.215-31.521,23.687-31.754,23.73a1.75,1.75,0,0,0,.314,3.472,1.8,1.8,0,0,0,.317-.029c1.023-.187,25.17-4.824,34.33-25.771A38.4,38.4,0,0,1,91.2,83.008Z" style="fill:#790000"/><path d="M93.6,75.794q-.278.214-.555.438a1.75,1.75,0,1,0,2.2,2.719c.161-.131.324-.258.486-.383A1.75,1.75,0,1,0,93.6,75.794Z" style="fill:#790000"/><path d="M116.456,70.643a27.784,27.784,0,0,0-17.028,1.7,1.75,1.75,0,1,0,1.4,3.208,24.674,24.674,0,0,1,14.719-1.527,1.75,1.75,0,0,0,.908-3.38Z" style="fill:#790000"/><path d="M115.921,83.655c-7.469.342-17.748,3.9-24.306,18.894A32.74,32.74,0,0,1,82.6,114.361a1.75,1.75,0,1,0,2.264,2.669,36.2,36.2,0,0,0,9.96-13.079c5.836-13.348,14.782-16.5,21.259-16.8a1.75,1.75,0,0,0-.16-3.5Z" style="fill:#790000"/><path d="M51.524,75.01H52.5a1.75,1.75,0,0,0,0-3.5h-.976a1.75,1.75,0,0,0,0,3.5Z" style="fill:#790000"/><path d="M60.915,35.246H70.5a5.419,5.419,0,0,0,.842-10.773,6.661,6.661,0,0,0-12.189-2.025,6.52,6.52,0,0,0,1.762,12.8Zm-.377-9.516a1.75,1.75,0,0,0,1.395-1.052A3.16,3.16,0,0,1,68,25.914c0,.049,0,.1-.013.208a1.75,1.75,0,0,0,2.111,1.83,1.892,1.892,0,0,1,2.322,1.875A1.921,1.921,0,0,1,70.5,31.746H60.915a3.02,3.02,0,0,1-.377-6.016Z" style="fill:#790000"/><path d="M96.731,45.334a1.75,1.75,0,0,0,0-3.5,3.178,3.178,0,0,1-3.174-3.174,3.144,3.144,0,0,1,3.839-3.1,1.764,1.764,0,0,0,1.51-.427,1.82,1.82,0,0,0,.6-1.479c-.006-.081-.013-.162-.013-.244a4.839,4.839,0,0,1,9.293-1.892,1.75,1.75,0,0,0,1.395,1.052,4.651,4.651,0,0,1-.58,9.266,1.75,1.75,0,0,0,0,3.5,8.151,8.151,0,0,0,1.974-16.061,8.34,8.34,0,0,0-15.464,2.742,6.674,6.674,0,0,0,.626,13.319Z" style="fill:#790000"/></svg>