<svg id="Layer_1" data-name="Layer 1" xmlns="http://www.w3.org/2000/svg" viewBox="0 0 128 128"><title>GOAT</title><path d="M116,35.26c-8.05-7.16-14.66-9.04-19.94-8.22a14.39,14.39,0,0,0-3.39.95,19.54,19.54,0,0,0-7.17,5.27,28.559,28.559,0,0,0-2.23,2.84,36.29,36.29,0,0,0-4.21,8.08L63.89,39.49S62.81,19.31,82.03,13.24C100.06,7.55,116,35.26,116,35.26Z" style="fill:#b95529"/><path d="M64.11,39.49,48.94,44.18a36.037,36.037,0,0,0-4.22-8.09,26.946,26.946,0,0,0-2.22-2.83,19.7,19.7,0,0,0-7.16-5.27,14.607,14.607,0,0,0-3.4-.95C26.66,26.22,20.05,28.1,12,35.26c0,0,15.94-27.71,33.97-22.02C65.19,19.31,64.11,39.49,64.11,39.49Z" style="fill:#e76a36"/><path d="M101.11,52.8a10.727,10.727,0,0,0,6.861,3.964c5.77,1,6.71,10.713,6.71,10.713s-13.333,7.781-20.447-12.125S101.11,52.8,101.11,52.8Z" style="fill:#ffb594"/><path d="M90.38,81.75a165.837,165.837,0,0,0-9.13,14.78,13.859,13.859,0,0,0-.69,1.46,16.2,16.2,0,0,0-1.27,6.31c0,.11,0,.22.01.33a16.52,16.52,0,0,0,1.46,6.47,3.137,3.137,0,0,1-2.86,4.43H50.1a3.138,3.138,0,0,1-3.14-3.14,3.2,3.2,0,0,1,.28-1.29,16.52,16.52,0,0,0,1.46-6.47,16.018,16.018,0,0,0-1.26-6.64,13.859,13.859,0,0,0-.69-1.46,165.837,165.837,0,0,0-9.13-14.78c-9.59-13.98-6.4-33.13-6.4-33.13,11.73-14.3,53.83-14.3,65.56,0C96.78,48.62,99.97,67.77,90.38,81.75Z" style="fill:#ffd3b7"/><path d="M77.9,115.53a3.136,3.136,0,0,0,2.857-4.43,16.4,16.4,0,0,1,.493-14.57A166.275,166.275,0,0,1,90.38,81.746c9.593-13.978,6.4-33.131,6.4-33.131C90.913,41.468,77.457,37.894,64,37.894V115.53Z" style="fill:#ffb594"/><path d="M85.5,33.26a28.559,28.559,0,0,0-2.23,2.84,1.648,1.648,0,0,1-.52-.62c-.11-.2-2.35-4.33-9.12-4.57a1.762,1.762,0,0,1-1.69-1.82,1.736,1.736,0,0,1,1.82-1.68C81.06,27.68,84.43,31.67,85.5,33.26Z" style="fill:#e76a36"/><path d="M96.06,27.04a14.39,14.39,0,0,0-3.39.95c-.61-1.06-3.58-5.79-8.47-6.09a1.741,1.741,0,0,1-1.64-1.85,1.772,1.772,0,0,1,1.85-1.64c7.51.46,11.34,7.9,11.5,8.21A1.5,1.5,0,0,1,96.06,27.04Z" style="fill:#e76a36"/><path d="M56.06,29.09a1.762,1.762,0,0,1-1.69,1.82c-6.9.25-9.09,4.52-9.11,4.56a1.553,1.553,0,0,1-.54.62,26.946,26.946,0,0,0-2.22-2.83c1.07-1.59,4.44-5.58,11.74-5.85A1.736,1.736,0,0,1,56.06,29.09Z" style="fill:#b95529"/><path d="M45.44,20.05A1.741,1.741,0,0,1,43.8,21.9c-4.92.3-7.87,5.03-8.46,6.09a14.607,14.607,0,0,0-3.4-.95,1.5,1.5,0,0,1,.15-.42c.16-.31,3.99-7.75,11.5-8.21A1.76,1.76,0,0,1,45.44,20.05Z" style="fill:#b95529"/><path d="M26.89,52.8a10.727,10.727,0,0,1-6.861,3.964c-5.77,1-6.71,10.713-6.71,10.713s13.333,7.781,20.447-12.125S26.89,52.8,26.89,52.8Z" style="fill:#ffd3b7"/><circle cx="41.833" cy="71.594" r="3.008" style="fill:#00465f"/><circle cx="86.167" cy="71.594" r="3.008" style="fill:#00465f"/><path d="M73.06,99.21a9.073,9.073,0,0,1-7.31,8.88v7.44h-3.5v-7.44a9.073,9.073,0,0,1-7.31-8.88,1.75,1.75,0,0,1,3.5,0,5.56,5.56,0,0,0,11.12,0,1.75,1.75,0,0,1,3.5,0Z" style="fill:#e76a36"/><path d="M54.54,76.67c.28,12.58-4.38,24.55-5.84,27.96a16.018,16.018,0,0,0-1.26-6.64c1.74-5.24,3.78-13.19,3.6-21.24-.3-13.32-6.69-19.45-6.75-19.51a1.748,1.748,0,0,1,2.37-2.57C46.97,54.95,54.2,61.77,54.54,76.67Z" style="fill:#e76a36"/><path d="M76.96,76.75a65.354,65.354,0,0,0,3.6,21.24,16.2,16.2,0,0,0-1.27,6.31c0,.11,0,.22.01.33-1.46-3.41-6.12-15.38-5.84-27.96.34-14.9,7.57-21.72,7.88-22a1.748,1.748,0,0,1,2.37,2.57C83.63,57.32,77.26,63.45,76.96,76.75Z" style="fill:#e76a36"/><path d="M95.978,28.829c5.589-1.019,11.933,1.584,18.86,7.74a1.75,1.75,0,0,0,2.679-2.181A71.92,71.92,0,0,0,107.01,20.876c-8.656-8.624-17.475-11.84-25.512-9.3A26.194,26.194,0,0,0,64.009,28.384a26.4,26.4,0,0,0-8.623-12.227,1.75,1.75,0,0,0-2.152,2.76c6.7,5.222,8.506,12.879,8.979,17.255A71.625,71.625,0,0,0,47.941,37.93a36.462,36.462,0,0,0-2.114-3.284c1.018-1.263,3.537-3.557,8.546-3.74a1.75,1.75,0,0,0,1.685-1.813,1.732,1.732,0,0,0-1.813-1.685c-5.667.208-8.96,2.654-10.649,4.488A21.724,21.724,0,0,0,36.3,26.517c1.336-1.788,3.877-4.391,7.495-4.613a1.75,1.75,0,1,0-.213-3.493c-5.766.353-9.354,4.813-10.784,7.01-.052-.01-.1-.026-.153-.036-4.2-.768-8.637.077-13.279,2.508,5.575-6.788,14.5-15.062,24.036-13.475a1.75,1.75,0,1,0,.574-3.452c-18.062-3.009-32.875,22.342-33.5,23.422a1.75,1.75,0,0,0,2.679,2.181c6.927-6.156,13.271-8.764,18.859-7.74,5.934,1.083,10.057,6.149,12.412,10.039C38.5,40.668,33.2,43.45,29.871,47.505a1.762,1.762,0,0,0-.373.822,57.3,57.3,0,0,0-.371,12.682c-5.044,7.821-11.4,6.408-13.877,5.442.442-2.351,1.77-7.387,5.078-7.96a13.341,13.341,0,0,0,5.214-2.069,1.75,1.75,0,0,0-1.955-2.9,9.863,9.863,0,0,1-3.856,1.524c-7,1.214-8.109,11.818-8.153,12.269a1.751,1.751,0,0,0,.86,1.68,15.381,15.381,0,0,0,7,1.715,13.7,13.7,0,0,0,10.291-4.743,41.727,41.727,0,0,0,6.45,16.773,164.857,164.857,0,0,1,9.035,14.627,14.724,14.724,0,0,1,.439,13.015,4.885,4.885,0,0,0,4.45,6.9H64a1.75,1.75,0,0,0,1.75-1.75v-7.439a9.072,9.072,0,0,0,7.31-8.886,1.75,1.75,0,0,0-3.5,0,5.56,5.56,0,0,1-11.119,0,1.75,1.75,0,0,0-3.5,0,9.072,9.072,0,0,0,7.31,8.886v5.689H50.1a1.386,1.386,0,0,1-1.263-1.958,18.2,18.2,0,0,0,1.587-6.641,98.683,98.683,0,0,0,4.111-28.509c-.339-14.907-7.568-21.72-7.876-22a1.75,1.75,0,0,0-2.375,2.571c.064.061,6.449,6.191,6.751,19.51a89.917,89.917,0,0,1-2.136,20.2c-.189-.426-.388-.847-.611-1.259a168.6,168.6,0,0,0-9.227-14.941C30.8,68.711,32.5,52.309,32.886,49.363,38.091,43.446,50.214,39.645,64,39.645s25.911,3.8,31.115,9.719c.392,2.942,2.106,19.32-6.179,31.392A168.669,168.669,0,0,0,79.71,95.7c-.223.412-.422.833-.611,1.259a89.919,89.919,0,0,1-2.136-20.2c.3-13.3,6.67-19.434,6.75-19.51a1.75,1.75,0,0,0-2.374-2.572c-.308.283-7.537,7.1-7.876,22a98.683,98.683,0,0,0,4.111,28.508,18.2,18.2,0,0,0,1.587,6.641A1.386,1.386,0,0,1,77.9,113.78H72a1.75,1.75,0,0,0,0,3.5h5.9a4.885,4.885,0,0,0,4.45-6.9,14.726,14.726,0,0,1,.439-13.016,164.924,164.924,0,0,1,9.035-14.627c7.064-10.294,7.509-23.044,7.14-29.771.392.457.665.79.753.9a12.61,12.61,0,0,0,7.956,4.627c3.309.574,4.636,5.609,5.078,7.959a10.355,10.355,0,0,1-9.814-1.03,1.75,1.75,0,0,0-1.994,2.877,13.267,13.267,0,0,0,7.68,2.442,14.857,14.857,0,0,0,6.941-1.748,1.751,1.751,0,0,0,.86-1.68c-.044-.451-1.148-11.054-8.153-12.269a9,9,0,0,1-5.708-3.217c-.028-.042-.059-.082-.09-.121A44.086,44.086,0,0,0,96.16,45.29a1.73,1.73,0,0,0-.486-.242,33.723,33.723,0,0,0-12.108-6.181C85.921,34.977,90.044,29.912,95.978,28.829Zm-30.2,7.344c.637-6.087,3.647-17.119,16.771-21.263,10.278-3.245,20.1,5.716,26.071,12.98-4.641-2.428-9.086-3.269-13.274-2.5-.052.009-.1.025-.152.035-1.43-2.2-5.018-6.657-10.784-7.009A1.75,1.75,0,1,0,84.2,21.9c3.59.22,6.141,2.826,7.487,4.616A21.727,21.727,0,0,0,84.4,31.9c-1.69-1.834-4.982-4.28-10.649-4.488a1.731,1.731,0,0,0-1.813,1.685,1.75,1.75,0,0,0,1.685,1.813c4.99.183,7.516,2.469,8.544,3.742a36.477,36.477,0,0,0-2.113,3.283A71.63,71.63,0,0,0,65.782,36.172Z" style="fill:#790000"/><path d="M48.1,15.9c.221.1.437.192.65.292a1.75,1.75,0,1,0,1.477-3.173q-.362-.168-.734-.331A1.75,1.75,0,0,0,48.1,15.9Z" style="fill:#790000"/><path d="M41.833,74.6a3.008,3.008,0,1,0-3.008-3.008A3.011,3.011,0,0,0,41.833,74.6Z" style="fill:#790000"/><path d="M86.167,74.6a3.008,3.008,0,1,0-3.008-3.008A3.011,3.011,0,0,0,86.167,74.6Z" style="fill:#790000"/></svg>