<svg id="Layer_1" data-name="Layer 1" xmlns="http://www.w3.org/2000/svg" viewBox="0 0 128 128"><title>SHEEP</title><path d="M103.2,73.781c.016-.342.051-.679.051-1.024a21.5,21.5,0,0,0-21.292-21.7A21.17,21.17,0,0,0,64,61.137,21.17,21.17,0,0,0,46.039,51.059a21.5,21.5,0,0,0-21.292,21.7c0,.346.035.682.051,1.024a19.233,19.233,0,0,0,6.033,37.353,18.467,18.467,0,0,0,9.006-2.335,25.376,25.376,0,0,0,2.788,7.2H85.376a25.376,25.376,0,0,0,2.788-7.2,18.467,18.467,0,0,0,9.006,2.335A19.233,19.233,0,0,0,103.2,73.781Z" style="fill:#e5ffff"/><path d="M85.376,116a25.376,25.376,0,0,0,2.788-7.2,18.467,18.467,0,0,0,9.006,2.335A19.233,19.233,0,0,0,103.2,73.781c.016-.342.051-.679.051-1.024a21.5,21.5,0,0,0-21.292-21.7A21.17,21.17,0,0,0,64,61.137V116Z" style="fill:#cae7f7"/><path d="M91.07,77.55A169.222,169.222,0,0,0,81.7,92.71a16.8,16.8,0,0,0-.51,14.95,3.218,3.218,0,0,1-2.93,4.55H49.74a3.216,3.216,0,0,1-2.93-4.55,16.806,16.806,0,0,0-.51-14.95,169.222,169.222,0,0,0-9.37-15.16c-9.84-14.35-6.56-34-6.56-34,12.03-14.66,55.23-14.66,67.26,0C97.63,43.55,100.91,63.2,91.07,77.55Z" style="fill:#ffd3b7"/><path d="M78.261,112.209a3.218,3.218,0,0,0,2.931-4.545A16.822,16.822,0,0,1,81.7,92.715a170.6,170.6,0,0,1,9.369-15.169c9.842-14.342,6.562-33.993,6.562-33.993-6.015-7.333-19.822-11-33.628-11v79.657Z" style="fill:#ffb594"/><path d="M73.25,95.46a9.26,9.26,0,0,1-7.5,9.08v7.67h-3.5v-7.67a9.26,9.26,0,0,1-7.5-9.08,1.75,1.75,0,0,1,3.5,0,5.75,5.75,0,0,0,11.5,0,1.75,1.75,0,0,1,3.5,0Z" style="fill:#00465f"/><path d="M25.924,46.356a11.006,11.006,0,0,1-7.04,4.067C12.964,51.45,12,61.415,12,61.415S25.68,69.4,32.979,48.975,25.924,46.356,25.924,46.356Z" style="fill:#ffd3b7"/><path d="M102.076,46.356a11.006,11.006,0,0,0,7.04,4.067C115.036,51.45,116,61.415,116,61.415S102.32,69.4,95.021,48.975,102.076,46.356,102.076,46.356Z" style="fill:#ffb594"/><path d="M93.917,36.851a10.938,10.938,0,0,0-10.833-11.04A10.625,10.625,0,0,0,77.9,27.155a14.186,14.186,0,0,0-27.8,0,10.625,10.625,0,0,0-5.181-1.343A11.065,11.065,0,0,0,41.446,47.3c-.009.2-.029.39-.029.589a12.368,12.368,0,0,0,12.25,12.483A12.179,12.179,0,0,0,64,54.576a12.179,12.179,0,0,0,10.333,5.8,12.368,12.368,0,0,0,12.25-12.483c0-.2-.02-.393-.029-.589A11.021,11.021,0,0,0,93.917,36.851Z" style="fill:#e5ffff"/><circle cx="47.119" cy="67.776" r="3.688" style="fill:#00465f"/><circle cx="80.881" cy="67.776" r="3.688" style="fill:#00465f"/><path d="M74.333,60.374a12.368,12.368,0,0,0,12.25-12.483c0-.2-.02-.393-.029-.589a11.065,11.065,0,0,0-3.471-21.49A10.625,10.625,0,0,0,77.9,27.155,14.312,14.312,0,0,0,64,15.791V54.576A12.179,12.179,0,0,0,74.333,60.374Z" style="fill:#cae7f7"/><path d="M41.546,108.427a1.751,1.751,0,0,0-2.561-1.157,16.822,16.822,0,0,1-8.155,2.114,17.483,17.483,0,0,1-5.463-33.949A1.749,1.749,0,0,0,26.545,73.7l-.023-.4c-.012-.18-.025-.36-.025-.543A20.217,20.217,0,0,1,29.159,62.73a43.931,43.931,0,0,0,4.312,12.487,1.75,1.75,0,0,0,3.084-1.656,44.214,44.214,0,0,1-4.794-17.75,36.5,36.5,0,0,0,2.866-6.247c.51-1.427.924-2.695,1.252-3.826a12.563,12.563,0,0,0,3.8,2.735A14.123,14.123,0,0,0,53.667,62.124,13.887,13.887,0,0,0,65.484,55.5a1.75,1.75,0,0,0-2.969-1.854,10.408,10.408,0,0,1-8.849,4.975,10.63,10.63,0,0,1-10.5-10.733c0-.093.008-.185.014-.277l.014-.226a1.751,1.751,0,0,0-1.178-1.741,9.315,9.315,0,0,1,2.9-18.085,8.931,8.931,0,0,1,4.33,1.123,1.75,1.75,0,1,0,1.7-3.059,12.44,12.44,0,0,0-6.031-1.564,12.7,12.7,0,0,0-12.584,12.79,12.925,12.925,0,0,0,.905,4.745,35.267,35.267,0,0,1-1.906,6.79c-2.361,6.605-5.6,10.709-9.626,12.2a11.137,11.137,0,0,1-7.791-.212c.514-2.861,2.034-7.663,5.269-8.224a12.761,12.761,0,0,0,8.192-4.814,1.75,1.75,0,0,0-2.9-1.953A9.4,9.4,0,0,1,18.586,48.7c-7.153,1.24-8.283,12.086-8.328,12.547a1.751,1.751,0,0,0,.86,1.68,15.187,15.187,0,0,0,7.09,1.777,13.528,13.528,0,0,0,4.656-.816,13.977,13.977,0,0,0,2.343-1.123A23.744,23.744,0,0,0,23,72.6a20.989,20.989,0,0,0,7.833,40.289,20.351,20.351,0,0,0,7.854-1.583,27.4,27.4,0,0,0,2.421,5.567,1.75,1.75,0,1,0,3.037-1.738A23.621,23.621,0,0,1,41.546,108.427Z" style="fill:#790000"/><path d="M105,72.6a23.745,23.745,0,0,0-2.21-9.831,13.977,13.977,0,0,0,2.343,1.123,13.52,13.52,0,0,0,4.656.816,15.193,15.193,0,0,0,7.09-1.777,1.751,1.751,0,0,0,.86-1.68c-.045-.461-1.175-11.308-8.328-12.547a9.274,9.274,0,0,1-5.886-3.319c-.028-.042-.059-.083-.09-.122-1.185-1.471-4.969-5.977-7.814-7.386.027-.338.043-.678.043-1.021a12.7,12.7,0,0,0-12.584-12.79,12.426,12.426,0,0,0-4.057.683A16.128,16.128,0,0,0,64,14.041a15.725,15.725,0,0,0-4.756.732A1.75,1.75,0,0,0,60.3,18.11a12.23,12.23,0,0,1,3.7-.569,12.634,12.634,0,0,1,12.192,9.986,1.75,1.75,0,0,0,2.561,1.157,8.931,8.931,0,0,1,4.33-1.123,9.315,9.315,0,0,1,2.9,18.085,1.751,1.751,0,0,0-1.178,1.741l.014.226c.006.092.014.184.014.277a10.63,10.63,0,0,1-10.5,10.733,10.209,10.209,0,0,1-3.9-.769A1.75,1.75,0,0,0,69.1,61.092a13.688,13.688,0,0,0,5.234,1.032A14.123,14.123,0,0,0,88.321,48.473a12.7,12.7,0,0,0,6.5-7.03,38.519,38.519,0,0,1,5.856,5.971,12.877,12.877,0,0,0,8.136,4.733c3.238.562,4.758,5.372,5.27,8.231a11.061,11.061,0,0,1-7.751.221c-4.045-1.475-7.3-5.584-9.667-12.213a1.75,1.75,0,1,0-3.295,1.178,36.493,36.493,0,0,0,2.865,6.246c-.427,5.765-1.931,13.92-6.615,20.745a173,173,0,0,0-9.465,15.327,18.671,18.671,0,0,0-.561,16.5,1.468,1.468,0,0,1-1.337,2.073H65.75v-5.921a9.262,9.262,0,0,0,7.5-9.079,1.75,1.75,0,0,0-3.5,0,5.75,5.75,0,1,1-11.5,0,1.75,1.75,0,0,0-3.5,0,9.262,9.262,0,0,0,7.5,9.079v5.921H49.739a1.468,1.468,0,0,1-1.337-2.073,18.672,18.672,0,0,0-.561-16.5c-1.43-2.639-3.056-5.419-4.833-8.265a1.75,1.75,0,1,0-2.969,1.854c1.739,2.784,3.329,5.5,4.724,8.077a15.152,15.152,0,0,1,.451,13.394,4.967,4.967,0,0,0,4.524,7.017H78.261a4.967,4.967,0,0,0,4.524-7.017,15.151,15.151,0,0,1,.451-13.394,169.46,169.46,0,0,1,9.272-15.013,41.518,41.518,0,0,0,6.337-15.8A20.215,20.215,0,0,1,101.5,72.757c0,.183-.014.363-.025.543l-.023.4a1.749,1.749,0,0,0,1.178,1.734,17.57,17.57,0,0,1,1.765,32.315,1.75,1.75,0,1,0,1.508,3.158A21.081,21.081,0,0,0,105,72.6Z" style="fill:#790000"/><path d="M97.17,109.384a16.822,16.822,0,0,1-8.155-2.114,1.751,1.751,0,0,0-2.561,1.157,23.621,23.621,0,0,1-2.6,6.7,1.75,1.75,0,1,0,3.037,1.738,27.4,27.4,0,0,0,2.421-5.567,20.351,20.351,0,0,0,7.854,1.583,1.75,1.75,0,0,0,0-3.5Z" style="fill:#790000"/><path d="M37.23,77.958a1.75,1.75,0,0,0-.485,2.427l.181.271a1.751,1.751,0,0,0,2.908-1.949l-.177-.263A1.749,1.749,0,0,0,37.23,77.958Z" style="fill:#790000"/><path d="M53.323,22.453a1.745,1.745,0,0,0,1.323-.6c.177-.2.36-.4.549-.593A1.75,1.75,0,0,0,52.7,18.8q-.359.365-.7.753a1.75,1.75,0,0,0,1.321,2.9Z" style="fill:#790000"/><path d="M43.432,67.776a3.688,3.688,0,1,0,3.688-3.687A3.692,3.692,0,0,0,43.432,67.776Z" style="fill:#790000"/><path d="M80.881,71.463a3.688,3.688,0,1,0-3.687-3.687A3.692,3.692,0,0,0,80.881,71.463Z" style="fill:#790000"/></svg>