<svg id="Layer_1" data-name="Layer 1" xmlns="http://www.w3.org/2000/svg" viewBox="0 0 128 128"><title>SUN</title><circle cx="52.458" cy="62.733" r="25.553" style="fill:#ffd92d"/><path d="M52.458,37.18c-.193,0-.383.01-.575.015V88.272c.192,0,.382.015.575.015a25.553,25.553,0,0,0,0-51.106Z" style="fill:#fcbe00"/><path d="M52.458,20.526a1.75,1.75,0,0,0-1.75,1.75v7.78a1.75,1.75,0,1,0,3.5,0v-7.78A1.75,1.75,0,0,0,52.458,20.526Z" style="fill:#ff8100"/><path d="M21.53,62.733a1.75,1.75,0,0,0-1.75-1.75H12a1.75,1.75,0,0,0,0,3.5h7.78A1.75,1.75,0,0,0,21.53,62.733Z" style="fill:#ff8100"/><path d="M87.942,27.249a1.749,1.749,0,0,0-2.475,0L74.326,38.39A1.75,1.75,0,1,0,76.8,40.864L87.942,29.724A1.749,1.749,0,0,0,87.942,27.249Z" style="fill:#ff8100"/><path d="M28.114,84.6,16.973,95.743a1.75,1.75,0,1,0,2.475,2.475L30.589,87.077A1.75,1.75,0,0,0,28.114,84.6Z" style="fill:#ff8100"/><path d="M19.448,27.249a1.75,1.75,0,1,0-2.475,2.475L28.114,40.864a1.75,1.75,0,0,0,2.475-2.475Z" style="fill:#ff8100"/><path d="M98.8,66.614a20.207,20.207,0,0,0-38.8,7.9c0,.454.038.9.068,1.345a15.1,15.1,0,1,0-3.157,29.861H96.362A19.631,19.631,0,0,0,98.8,66.614Z" style="fill:#00d6de"/><path d="M98.8,66.614A20.08,20.08,0,0,0,76.688,54.638v51.085H96.362A19.631,19.631,0,0,0,98.8,66.614Z" style="fill:#00a9de"/><path d="M52.458,31.807a1.75,1.75,0,0,0,1.75-1.75v-7.78a1.75,1.75,0,0,0-3.5,0v7.78A1.75,1.75,0,0,0,52.458,31.807Z" style="fill:#790000"/><path d="M21.53,62.733a1.75,1.75,0,0,0-1.75-1.75H12a1.75,1.75,0,0,0,0,3.5h7.78A1.75,1.75,0,0,0,21.53,62.733Z" style="fill:#790000"/><path d="M75.563,41.377a1.744,1.744,0,0,0,1.237-.513L87.941,29.724a1.75,1.75,0,0,0-2.475-2.475L74.326,38.39a1.75,1.75,0,0,0,1.237,2.987Z" style="fill:#790000"/><path d="M28.114,84.6,16.973,95.743a1.75,1.75,0,1,0,2.475,2.475L30.588,87.077A1.75,1.75,0,1,0,28.114,84.6Z" style="fill:#790000"/><path d="M28.114,40.864a1.75,1.75,0,1,0,2.475-2.475L19.448,27.249a1.75,1.75,0,0,0-2.475,2.475Z" style="fill:#790000"/><path d="M109.335,73.781a1.75,1.75,0,1,0,2.53-2.418c-.147-.154-.3-.308-.449-.458a1.75,1.75,0,0,0-2.462,2.488C109.083,73.521,109.21,73.65,109.335,73.781Z" style="fill:#790000"/><path d="M115.737,77.022a1.75,1.75,0,0,0-3.169,1.486,17.7,17.7,0,0,1,1.682,7.576,17.909,17.909,0,0,1-17.889,17.889H56.91a13.352,13.352,0,1,1,2.793-26.4,1.75,1.75,0,0,0,2.11-1.828L61.8,75.5c-.022-.326-.047-.651-.047-.983A18.457,18.457,0,0,1,97.192,67.3a1.751,1.751,0,0,0,1.394,1.051A17.756,17.756,0,0,1,105,70.432a1.75,1.75,0,0,0,1.69-3.064A21.218,21.218,0,0,0,100,65.023,21.87,21.87,0,0,0,77.833,52.7,27.3,27.3,0,1,0,35.4,84.054a1.75,1.75,0,0,0,2.188-2.732A23.8,23.8,0,1,1,74.343,53.378,21.982,21.982,0,0,0,58.26,73.828q-.681-.057-1.35-.058a16.852,16.852,0,1,0,0,33.7H96.361A21.413,21.413,0,0,0,117.75,86.085,21.175,21.175,0,0,0,115.737,77.022Z" style="fill:#790000"/><path d="M51.82,46.884c.211-.009.424-.012.637-.012a1.75,1.75,0,0,0,0-3.5q-.393,0-.783.016a1.75,1.75,0,0,0,.071,3.5C51.771,46.886,51.8,46.886,51.82,46.884Z" style="fill:#790000"/><path d="M48.2,45.55a1.75,1.75,0,0,0-2.236-1.062A19.4,19.4,0,0,0,33.1,62.733a1.75,1.75,0,0,0,3.5,0A15.9,15.9,0,0,1,47.138,47.785,1.75,1.75,0,0,0,48.2,45.55Z" style="fill:#790000"/></svg>