<?xml version="1.0" encoding="utf-8"?>
<!-- Generator: Adobe Illustrator 23.0.0, SVG Export Plug-In . SVG Version: 6.00 Build 0)  -->
<svg version="1.1" id="Layer_1" xmlns="http://www.w3.org/2000/svg" xmlns:xlink="http://www.w3.org/1999/xlink" x="0px" y="0px"
	 viewBox="0 0 512 512" style="enable-background:new 0 0 512 512;" xml:space="preserve">
<style type="text/css">
	.st0{fill:#323232;}
	.st1{fill:#646464;}
	.st2{fill:#464646;}
	.st3{fill:#FAA51E;}
	.st4{fill:#5A6E82;}
	.st5{fill:#788C9B;}
	.st6{fill:#AAC3D7;}
	.st7{fill:#7DC8AA;}
	.st8{fill:#147864;}
	.st9{fill:#329682;}
	.st10{fill:#FFFFFF;}
	.st11{fill:#9B5FAA;}
	.st12{fill:#463C4B;}
	.st13{fill:#32283C;}
	.st14{fill:#D76E28;}
	.st15{fill:#784687;}
	.st16{fill:#F0915A;}
	.st17{fill:#FAB991;}
	.st18{fill:#D7E6F0;}
	.st19{fill:#82AA41;}
	.st20{fill:#4B8C41;}
	.st21{fill:#A5CD3C;}
	.st22{fill:#FAD241;}
	.st23{fill:#AA5A28;}
	.st24{fill:#F04B37;}
	.st25{fill:#6EA5D7;}
	.st26{fill:#8CAAC8;}
	.st27{fill:#F0697D;}
	.st28{fill:#5A5A6E;}
	.st29{fill:#647DBE;}
	.st30{fill:#2D6E23;}
	.st31{fill:#F58CAA;}
	.st32{fill:#B98C3C;}
	.st33{fill:#C3A050;}
	.st34{fill:#D2C36E;}
	.st35{fill:#64412D;}
	.st36{fill:#DC7846;}
	.st37{fill:#96461E;}
	.st38{fill:#F06423;}
	.st39{fill:#E6AAFA;}
	.st40{fill:#BE82D2;}
	.st41{fill:#FAA037;}
	.st42{fill:#D73228;}
	.st43{fill:#BE281E;}
	.st44{fill:#5064A0;}
	.st45{fill:#8C1E14;}
	.st46{fill:#F5732D;}
	.st47{fill:#FAD7A0;}
	.st48{fill:#964628;}
	.st49{fill:#D24614;}
	.st50{fill:#F5D7A5;}
	.st51{fill:#F58723;}
	.st52{fill:#E65A78;}
	.st53{fill:#643773;}
	.st54{fill:#9B64AA;}
	.st55{fill:#555555;}
	.st56{fill:#FAD2B4;}
</style>
<g>
	<g>
		<path class="st45" d="M319.708,130.742V128c0-17.673-14.327-32-32-32h0v36.292c-9.562,5.534-16,15.866-16,27.708l0,0h-56v64h0
			c17.673,0,32,14.327,32,32v20c0,6.627,5.373,12,12,12s12-5.373,12-12s5.373-12,12-12s12,5.373,12,12s5.373,12,12,12h12
			c0,17.673,14.327,32,32,32h0V176C351.708,155.102,338.349,137.333,319.708,130.742z"/>
	</g>
	<g>
		<path class="st43" d="M399.708,276L399.708,276c0-6.627-5.373-12-12-12h0c-6.627,0-12,5.373-12,12l0,0c0,6.627-5.373,12-12,12h0
			c-6.627,0-12-5.373-12-12v-20c0-17.673-14.327-32-32-32h0v-32h56c17.673,0,32-14.327,32-32v0l0,0c8.837,0,16,7.163,16,16v112h-12
			C405.081,288,399.708,282.627,399.708,276z"/>
	</g>
	<g>
		<path class="st24" d="M391.708,96L391.708,96l0,64h32v-32C423.708,110.327,409.381,96,391.708,96z"/>
	</g>
	<g>
		<path class="st42" d="M143.708,32h24c8.837,0,16,7.163,16,16v32h-24V48h0C150.872,48,143.708,40.837,143.708,32L143.708,32z"/>
	</g>
	<g>
		<path class="st24" d="M63.708,16h32c8.837,0,16,7.163,16,16v0h-48c-4.418,0-8-3.582-8-8v0C55.708,19.582,59.29,16,63.708,16z"/>
	</g>
	<g>
		<path class="st43" d="M246.335,297.373c-12.496-12.497-32.758-12.497-45.254,0l-64,64c-6.002,6.001-9.373,14.141-9.373,22.627v64
			c-17.673,0-32,14.327-32,32l0,0c0,8.837,7.163,16,16,16h64c8.837,0,16-7.163,16-16v-82.745l54.627-54.627
			C258.832,330.131,258.832,309.869,246.335,297.373z"/>
	</g>
	<g>
		<path class="st24" d="M367.708,448c0-8.189-3.124-16.379-9.373-22.627l-54.627-54.627V304c0-17.673-14.327-32-32-32
			s-32,14.327-32,32v80c0,8.487,3.371,16.626,9.373,22.627L290.454,448h-2.746c-17.673,0-32,14.327-32,32l0,0
			c0,8.837,7.163,16,16,16h80c8.837,0,16-7.163,16-16L367.708,448L367.708,448z"/>
	</g>
	<g>
		<path class="st0" d="M303.708,304h-128v18.745l-6.628,6.627c-12.497,12.497-12.497,32.758,0,45.255h0
			c12.497,12.497,32.758,12.497,45.255,0l32-32c2.026-2.026,3.718-4.259,5.087-6.627h52.285V304z"/>
	</g>
	<g>
		<path class="st2" d="M303.708,352v-47.334c0-17.436-13.67-32.175-31.1-32.653c-18.084-0.496-32.9,14.016-32.9,31.988v48
			c0,17.673,14.327,32,32,32h0C289.381,384,303.708,369.673,303.708,352z"/>
	</g>
	<g>
		<path class="st43" d="M127.708,160v-56c0-4.418-3.582-8-8-8h-8V32h-48v32c0,8.837,7.163,16,16,16v16h-8c-4.418,0-8,3.582-8,8v88
			c0,17.673,14.327,32,32,32h80v80h128v-32l2.564-3.846c8.761-13.141,13.436-28.582,13.436-44.376V160H127.708z"/>
	</g>
	<g>
		<path class="st24" d="M103.708,48h-20c-2.209,0-4,1.791-4,4v0c0,6.627,5.373,12,12,12h4c0,8.837,7.164,16,16,16V56
			C111.708,51.582,108.126,48,103.708,48z"/>
	</g>
	<g>
		<path class="st42" d="M319.708,160h56v0c0-17.673,14.327-32,32-32h0c26.51,0,48,21.49,48,48v144h0c-17.673,0-32-14.327-32-32V176
			c0-8.837-7.163-16-16-16l0,0v0c0,17.673-14.327,32-32,32h-56V160z"/>
	</g>
	<g>
		<path class="st42" d="M303.708,32v16h-12c-2.209,0-4,1.791-4,4l0,0c0,6.627,5.373,12,12,12h4c0,8.837,7.163,16,16,16v16h32V32
			H303.708z"/>
	</g>
	<g>
		<path class="st24" d="M335.708,16h-32c-4.418,0-8,3.582-8,8s3.582,8,8,8h32v32c0,8.837,7.164,16,16,16V32
			C351.708,23.163,344.545,16,335.708,16z"/>
	</g>
	<g>
		<path class="st24" d="M359.708,96h-48c-4.418,0-8,3.582-8,8v56c-17.673,0-32,14.327-32,32c0,17.673,14.327,32,32,32h32
			c17.673,0,32-14.327,32-32v-88C367.708,99.582,364.126,96,359.708,96z"/>
	</g>
	<g>
		<path class="st24" d="M159.708,200v40c0,8.837,7.163,16,16,16h8c8.837,0,16-7.163,16-16v-40c0-4.418-3.582-8-8-8h-24
			C163.29,192,159.708,195.582,159.708,200z"/>
	</g>
	<g>
		<path class="st24" d="M215.708,200v40c0,8.837,7.163,16,16,16h8c8.837,0,16-7.163,16-16v-40c0-4.418-3.582-8-8-8h-24
			C219.29,192,215.708,195.582,215.708,200z"/>
	</g>
	<g>
		<path class="st42" d="M167.708,176h56c8.837,0,16-7.163,16-16V88c0-13.255-10.745-24-24-24h-40c-13.255,0-24,10.745-24,24v72
			C151.708,168.837,158.872,176,167.708,176z"/>
	</g>
	<g>
		<path class="st24" d="M199.708,176h-32c-8.837,0-16-7.163-16-16V88c0-13.255,10.745-24,24-24h16c13.255,0,24,10.745,24,24v72
			C215.708,168.837,208.545,176,199.708,176z"/>
	</g>
	<g>
		<path class="st0" d="M199.645,104.042L199.687,120c0.012,4.422,3.599,8,8.021,8l0,0h0v16c0,8.837,7.163,16,16,16h16
			c8.837,0,16-7.163,16-16v-40c0-8.837-7.163-16-16-16h-24.063C206.792,88,199.622,95.189,199.645,104.042z"/>
	</g>
	<g>
		<path class="st42" d="M215.708,144h-8v-16c0-8.837,7.163-16,16-16h8v16C231.708,136.837,224.545,144,215.708,144z"/>
	</g>
	<g>
		<path class="st24" d="M183.708,32h24c8.837,0,16,7.163,16,16v20c0,6.627-5.373,12-12,12h0c-6.627,0-12-5.373-12-12V48h0
			C190.872,48,183.708,40.837,183.708,32L183.708,32z"/>
	</g>
	<g>
		<path class="st0" d="M175.708,208L175.708,208c-4.418,0-8-3.582-8-8v-24h24v16C191.708,200.837,184.545,208,175.708,208z"/>
	</g>
	<g>
		<rect x="159.708" y="144" class="st42" width="32" height="8"/>
	</g>
	<g>
		<path class="st31" d="M159.708,160L159.708,160v-16h8v8C167.708,156.418,164.126,160,159.708,160z"/>
	</g>
	<g>
		<path class="st31" d="M191.708,160L191.708,160l0-16h-8v8C183.708,156.418,187.29,160,191.708,160z"/>
	</g>
</g>
</svg>
