<?xml version="1.0" encoding="utf-8"?>
<!-- Generator: Adobe Illustrator 23.0.0, SVG Export Plug-In . SVG Version: 6.00 Build 0)  -->
<svg version="1.1" id="Layer_1" xmlns="http://www.w3.org/2000/svg" xmlns:xlink="http://www.w3.org/1999/xlink" x="0px" y="0px"
	 viewBox="0 0 512 512" style="enable-background:new 0 0 512 512;" xml:space="preserve">
<style type="text/css">
	.st0{fill:#323232;}
	.st1{fill:#646464;}
	.st2{fill:#464646;}
	.st3{fill:#FAA51E;}
	.st4{fill:#5A6E82;}
	.st5{fill:#788C9B;}
	.st6{fill:#AAC3D7;}
	.st7{fill:#7DC8AA;}
	.st8{fill:#147864;}
	.st9{fill:#329682;}
	.st10{fill:#FFFFFF;}
	.st11{fill:#9B5FAA;}
	.st12{fill:#463C4B;}
	.st13{fill:#32283C;}
	.st14{fill:#D76E28;}
	.st15{fill:#784687;}
	.st16{fill:#F0915A;}
	.st17{fill:#FAB991;}
	.st18{fill:#D7E6F0;}
	.st19{fill:#82AA41;}
	.st20{fill:#4B8C41;}
	.st21{fill:#A5CD3C;}
	.st22{fill:#FAD241;}
	.st23{fill:#AA5A28;}
	.st24{fill:#F04B37;}
	.st25{fill:#6EA5D7;}
	.st26{fill:#8CAAC8;}
	.st27{fill:#F0697D;}
	.st28{fill:#5A5A6E;}
	.st29{fill:#647DBE;}
	.st30{fill:#2D6E23;}
	.st31{fill:#F58CAA;}
	.st32{fill:#B98C3C;}
	.st33{fill:#C3A050;}
	.st34{fill:#D2C36E;}
	.st35{fill:#64412D;}
	.st36{fill:#DC7846;}
	.st37{fill:#96461E;}
	.st38{fill:#F06423;}
	.st39{fill:#E6AAFA;}
	.st40{fill:#BE82D2;}
	.st41{fill:#FAA037;}
	.st42{fill:#D73228;}
	.st43{fill:#BE281E;}
	.st44{fill:#5064A0;}
	.st45{fill:#8C1E14;}
	.st46{fill:#F5732D;}
	.st47{fill:#FAD7A0;}
	.st48{fill:#964628;}
	.st49{fill:#D24614;}
	.st50{fill:#F5D7A5;}
	.st51{fill:#F58723;}
	.st52{fill:#E65A78;}
	.st53{fill:#643773;}
	.st54{fill:#9B64AA;}
	.st55{fill:#555555;}
	.st56{fill:#FAD2B4;}
</style>
<g>
	<g>
		<path class="st42" d="M327.179,11.669h-24c-8.837,0-16,7.163-16,16v20c0,6.627,5.373,12,12,12h0c6.627,0,12-5.373,12-12v-20h0
			C320.016,27.669,327.179,20.505,327.179,11.669L327.179,11.669z"/>
	</g>
	<g>
		<g>
			<path class="st27" d="M255.179,379.669h112c4.418,0,8-3.582,8-8v-88h-128v88C247.179,376.087,250.761,379.669,255.179,379.669z"
				/>
		</g>
		<g>
			<path class="st27" d="M375.179,283.669h-128v-96c0-17.673,14.327-32,32-32h96V283.669z"/>
		</g>
		<g>
			<path class="st6" d="M375.18,267.669h-128c-4.418,0-8,3.582-8,8v0c0,4.418,3.582,8,8,8h128c4.418,0,8-3.582,8-8v0
				C383.179,271.25,379.598,267.669,375.18,267.669z"/>
		</g>
		<g>
			<path class="st31" d="M399.179,219.669h-48c-4.418,0-8-3.582-8-8v-24c0-17.673,14.327-32,32-32h0c17.673,0,32,14.327,32,32v24
				C407.179,216.087,403.598,219.669,399.179,219.669z"/>
		</g>
		<g>
			<path class="st17" d="M303.179,155.669h32c17.673,0,32-14.327,32-32v-48c0-13.255-10.745-24-24-24h-16c-13.255,0-24,10.745-24,24
				V155.669z"/>
		</g>
		<g>
			<path class="st0" d="M367.179,83.669c4.418,0,8-3.582,8-8l0,0c0-22.091-17.909-40-40-40h-24c-26.51,0-48,21.49-48,48v56
				c0,8.836,7.164,16,16,16h80c8.837,0,16-7.164,16-16s-7.163-16-16-16v-40H367.179z"/>
		</g>
		<g>
			<rect x="359.179" y="219.669" class="st17" width="32" height="64"/>
		</g>
		<g>
			<path class="st16" d="M383.179,323.669h-32v-32c0-4.418,3.582-8,8-8h32v32C391.179,320.087,387.598,323.669,383.179,323.669z"/>
		</g>
		<g>
			<rect x="255.179" y="379.669" class="st16" width="48" height="16"/>
		</g>
		<g>
			<path class="st0" d="M303.179,459.669h-48v24c0,4.418,3.582,8,8,8h56c4.418,0,8-3.582,8-8v0
				C327.179,470.414,316.434,459.669,303.179,459.669z"/>
		</g>
		<g>
			
				<rect x="255.179" y="395.669" transform="matrix(-1 -1.224647e-16 1.224647e-16 -1 558.3589 855.3373)" class="st6" width="48" height="64"/>
		</g>
		<g>
			<rect x="319.179" y="379.669" class="st17" width="48" height="16"/>
		</g>
		<g>
			<path class="st2" d="M367.179,459.669h-48v24c0,4.418,3.582,8,8,8h56c4.418,0,8-3.582,8-8v0
				C391.179,470.414,380.434,459.669,367.179,459.669z"/>
		</g>
		<g>
			
				<rect x="319.179" y="395.669" transform="matrix(-1 -1.224647e-16 1.224647e-16 -1 686.3589 855.3373)" class="st18" width="48" height="64"/>
		</g>
		<g>
			<path class="st17" d="M388.513,283.669c-4.418,0-8,3.582-8,8v16h-29.333c-4.418,0-8,3.582-8,8s3.582,8,8,8h32
				c4.418,0,8-3.582,8-8v-32H388.513z"/>
		</g>
	</g>
	<g>
		<path class="st17" d="M127.179,323.669h8v-104h-16v96C119.179,320.087,122.761,323.669,127.179,323.669z"/>
	</g>
	<g>
		<path class="st7" d="M159.179,219.669h-48c-4.418,0-8-3.582-8-8v-24c0-17.673,14.327-32,32-32h0c17.673,0,32,14.327,32,32v24
			C167.179,216.087,163.598,219.669,159.179,219.669z"/>
	</g>
	<g>
		<path class="st0" d="M151.179,123.669c-8.837,0-16,7.164-16,16s7.163,16,16,16h32v-32H151.179z"/>
	</g>
	<g>
		<path class="st9" d="M143.179,379.669h112c4.418,0,8-3.582,8-8v-88h-128v88C135.179,376.087,138.761,379.669,143.179,379.669z"/>
	</g>
	<g>
		<path class="st9" d="M263.179,283.669h-128v-96c0-17.673,14.327-32,32-32h96V283.669z"/>
	</g>
	<g>
		<path class="st18" d="M263.18,267.669h-128c-4.418,0-8,3.582-8,8v0c0,4.418,3.582,8,8,8h128c4.418,0,8-3.582,8-8v0
			C271.179,271.25,267.598,267.669,263.18,267.669z"/>
	</g>
	<g>
		<path class="st17" d="M207.179,155.669h-32c-17.673,0-32-14.327-32-32v-48c0-13.255,10.745-24,24-24h16c13.255,0,24,10.745,24,24
			V155.669z"/>
	</g>
	<g>
		<path class="st0" d="M199.179,35.669h-24c-22.091,0-40,17.909-40,40v8c0,4.418,3.582,8,8,8v-8h24c4.418,0,8-3.582,8-8
			c0,4.418,3.582,8,8,8h24v40c-8.837,0-16,7.164-16,16s7.163,16,16,16h24c8.837,0,16-7.164,16-16v-56
			C247.179,57.159,225.689,35.669,199.179,35.669z"/>
	</g>
	<g>
		<path class="st7" d="M287.179,219.669h-48c-4.418,0-8-3.582-8-8v-24c0-17.673,14.327-32,32-32h0c17.673,0,32,14.327,32,32v24
			C295.179,216.087,291.598,219.669,287.179,219.669z"/>
	</g>
	<g>
		<rect x="207.179" y="379.669" class="st17" width="48" height="16"/>
	</g>
	<g>
		<rect x="143.179" y="379.669" class="st16" width="48" height="16"/>
	</g>
	<g>
		<path class="st0" d="M143.179,459.669h48v24c0,4.418-3.582,8-8,8h-56c-4.418,0-8-3.582-8-8v0
			C119.179,470.414,129.925,459.669,143.179,459.669z"/>
	</g>
	<g>
		<path class="st17" d="M287.179,307.669v-16c0-4.418-3.582-8-8-8v-64h-32v96c0,4.418,3.582,8,8,8h32c4.418,0,8-3.582,8-8
			S291.598,307.669,287.179,307.669z"/>
	</g>
	<g>
		<path class="st2" d="M207.179,459.669h48v24c0,4.418-3.582,8-8,8h-56c-4.418,0-8-3.582-8-8v0
			C183.179,470.414,193.925,459.669,207.179,459.669z"/>
	</g>
	<g>
		<rect x="143.179" y="395.669" class="st6" width="48" height="64"/>
	</g>
	<g>
		<rect x="207.179" y="395.669" class="st18" width="48" height="64"/>
	</g>
	<g>
		<path class="st24" d="M367.179,11.669h-24c-8.837,0-16,7.163-16,16v20c0,6.627,5.373,12,12,12h0c6.627,0,12-5.373,12-12v-20h0
			C360.016,27.669,367.179,20.505,367.179,11.669L367.179,11.669z"/>
	</g>
</g>
</svg>
