<?xml version="1.0" encoding="utf-8"?>
<!-- Generator: Adobe Illustrator 23.0.0, SVG Export Plug-In . SVG Version: 6.00 Build 0)  -->
<svg version="1.1" id="Layer_1" xmlns="http://www.w3.org/2000/svg" xmlns:xlink="http://www.w3.org/1999/xlink" x="0px" y="0px"
	 viewBox="0 0 512 512" style="enable-background:new 0 0 512 512;" xml:space="preserve">
<style type="text/css">
	.st0{fill:#323232;}
	.st1{fill:#646464;}
	.st2{fill:#464646;}
	.st3{fill:#FAA51E;}
	.st4{fill:#5A6E82;}
	.st5{fill:#788C9B;}
	.st6{fill:#AAC3D7;}
	.st7{fill:#7DC8AA;}
	.st8{fill:#147864;}
	.st9{fill:#329682;}
	.st10{fill:#FFFFFF;}
	.st11{fill:#9B5FAA;}
	.st12{fill:#463C4B;}
	.st13{fill:#32283C;}
	.st14{fill:#D76E28;}
	.st15{fill:#784687;}
	.st16{fill:#F0915A;}
	.st17{fill:#FAB991;}
	.st18{fill:#D7E6F0;}
	.st19{fill:#82AA41;}
	.st20{fill:#4B8C41;}
	.st21{fill:#A5CD3C;}
	.st22{fill:#FAD241;}
	.st23{fill:#AA5A28;}
	.st24{fill:#F04B37;}
	.st25{fill:#6EA5D7;}
	.st26{fill:#8CAAC8;}
	.st27{fill:#F0697D;}
	.st28{fill:#5A5A6E;}
	.st29{fill:#647DBE;}
	.st30{fill:#2D6E23;}
	.st31{fill:#F58CAA;}
	.st32{fill:#B98C3C;}
	.st33{fill:#C3A050;}
	.st34{fill:#D2C36E;}
	.st35{fill:#64412D;}
	.st36{fill:#DC7846;}
	.st37{fill:#96461E;}
	.st38{fill:#F06423;}
	.st39{fill:#E6AAFA;}
	.st40{fill:#BE82D2;}
	.st41{fill:#FAA037;}
	.st42{fill:#D73228;}
	.st43{fill:#BE281E;}
	.st44{fill:#5064A0;}
	.st45{fill:#8C1E14;}
	.st46{fill:#F5732D;}
	.st47{fill:#FAD7A0;}
	.st48{fill:#964628;}
	.st49{fill:#D24614;}
	.st50{fill:#F5D7A5;}
	.st51{fill:#F58723;}
	.st52{fill:#E65A78;}
	.st53{fill:#643773;}
	.st54{fill:#9B64AA;}
	.st55{fill:#555555;}
	.st56{fill:#FAD2B4;}
</style>
<g>
	<g>
		<path class="st16" d="M151.022,240l-5.657-5.657c-3.124-3.124-8.189-3.124-11.313,0c-3.125,3.124-3.125,8.189,0,11.313l8,8
			c1.5,1.5,3.535,2.343,5.657,2.343h24v16h32v-32H151.022z"/>
	</g>
	<g>
		<path class="st0" d="M214.375,216h-26.667c-8.837,0-16-7.163-16-16V80h42.667V216z"/>
	</g>
	<g>
		<path class="st16" d="M259.708,357.333h-2.745l9.372-9.373c12.497-12.497,12.497-32.758,0-45.255
			c-12.497-12.497-32.758-12.497-45.255,0l-64,64c-9.152,9.152-11.89,22.916-6.937,34.874c4.953,11.958,16.621,19.754,29.564,19.754
			h48c0,17.673,14.327,32,32,32h0c8.837,0,16-7.164,16-16v-64C275.708,364.497,268.545,357.333,259.708,357.333z"/>
	</g>
	<g>
		<path class="st19" d="M203.708,296v80h4.153c2.091,0,3.806-1.562,4.119-3.63c1.75-11.532,11.706-20.37,23.727-20.37
			s21.978,8.838,23.727,20.37c0.314,2.068,2.028,3.63,4.119,3.63h8.307c2.091,0,3.806-1.562,4.119-3.63
			c1.75-11.532,11.706-20.37,23.727-20.37s21.978,8.838,23.727,20.37c0.314,2.068,2.028,3.63,4.119,3.63l0,0
			c2.294,0,4.153-1.859,4.153-4.153V296H203.708z"/>
	</g>
	<g>
		<path class="st19" d="M163.708,216c-8.35,0-15.701,4.266-20,10.735V184c0-2.209-1.791-4-4-4s-4,1.791-4,4v42.735
			c-4.299-6.469-11.65-10.735-20-10.735h-8v8c0,13.255,10.745,24,24,24h4v8c0,2.209,1.791,4,4,4s4-1.791,4-4v-8h4
			c13.255,0,24-10.745,24-24v-8H163.708z"/>
	</g>
	<g>
		<polygon class="st24" points="139.708,168 145.042,173.333 145.042,184 134.375,184 134.375,173.333 		"/>
	</g>
	<g>
		<path class="st42" d="M139.708,200L139.708,200l0-16c0-8.837-7.163-16-16-16h0v16C123.708,192.837,130.872,200,139.708,200z"/>
	</g>
	<g>
		<path class="st24" d="M139.708,200L139.708,200c8.837,0,16-7.163,16-16v-16h0c-8.837,0-16,7.163-16,16V200z"/>
	</g>
	<g>
		<path class="st17" d="M163.708,248h-16c-4.418,0-8,3.582-8,8h-12.687l-13.657-13.657c-3.124-3.124-8.189-3.124-11.313,0
			c-3.125,3.124-3.125,8.189,0,11.313l16,16c1.5,1.5,3.535,2.343,5.657,2.343h48v-16C171.708,251.582,168.126,248,163.708,248z"/>
	</g>
	<g>
		<path class="st16" d="M203.708,264v-80c0-17.673,14.327-32,32-32h80v80.26c0,10.078-4.004,19.744-11.13,26.87l-4.87,4.87l0,0h0
			H203.708z"/>
	</g>
	<g>
		<path class="st19" d="M315.708,232h-112c-13.255,0-24-10.745-24-24v0c0-13.255,10.745-24,24-24h112V232z"/>
	</g>
	<g>
		<rect x="355.708" y="40" class="st16" width="40" height="37.333"/>
	</g>
	<g>
		<path class="st17" d="M363.708,77.333V136c0,8.837-7.163,16-16,16h-32c-8.837,0-16,7.163-16,16v0c0,8.837,7.163,16,16,16h32
			c26.51,0,48-21.49,48-48V77.333H363.708z"/>
	</g>
	<g>
		<path class="st17" d="M347.708,69.333v-20c0-2.209,1.791-4,4-4h0c6.627,0,12,5.373,12,12v4c8.837,0,16,7.164,16,16h-24
			C351.29,77.333,347.708,73.752,347.708,69.333z"/>
	</g>
	<g>
		<path class="st17" d="M355.708,24h32c4.418,0,8,3.582,8,8v8h-40c-4.418,0-8-3.582-8-8v0C347.708,27.582,351.29,24,355.708,24z"/>
	</g>
	<g>
		<path class="st16" d="M219.708,168h40c8.837,0,16-7.163,16-16V80c0-13.255-10.745-24-24-24h-40c-13.255,0-24,10.745-24,24v56
			C187.708,153.673,202.035,168,219.708,168z"/>
	</g>
	<g>
		<path class="st17" d="M235.708,168h-16c-17.673,0-32-14.327-32-32V80c0-13.255,10.745-24,24-24h16c13.255,0,24,10.745,24,24v72
			C251.708,160.837,244.545,168,235.708,168z"/>
	</g>
	<g>
		<path class="st2" d="M179.708,96h64v8c0,4.418,3.582,8,8,8h0v88c0,8.837,7.163,16,16,16h16c8.837,0,16-7.163,16-16V88
			c0-26.51-21.49-48-48-48h-48c-17.673,0-32,14.327-32,32v16C171.708,92.418,175.29,96,179.708,96z"/>
	</g>
	<g>
		<path class="st19" d="M299.708,68h-128c-2.209,0-4-1.791-4-4s1.791-4,4-4h128c2.209,0,4,1.791,4,4S301.917,68,299.708,68z"/>
	</g>
	<g>
		<path class="st17" d="M395.708,440c0-8.189-3.124-16.379-9.373-22.627l-54.627-54.627V296c0-17.673-14.327-32-32-32
			s-32,14.327-32,32v80c0,8.487,3.371,16.626,9.373,22.627L318.454,440h-2.746c-17.673,0-32,14.327-32,32l0,0
			c0,8.836,7.163,16,16,16h80c8.837,0,16-7.164,16-16L395.708,440L395.708,440z"/>
	</g>
	<g>
		<path class="st21" d="M299.708,264h-96v32h128v0C331.708,278.327,317.381,264,299.708,264z"/>
	</g>
	<g>
		<path class="st19" d="M347.708,216v8c0,13.255,10.745,24,24,24h8v-8c0-13.255-10.745-24-24-24H347.708z"/>
	</g>
	<g>
		<path class="st19" d="M155.708,376h-8c-13.255,0-24,10.745-24,24v8h8c13.255,0,24-10.745,24-24V376z"/>
	</g>
	<g>
		<path class="st19" d="M411.708,344h-8c-13.255,0-24,10.745-24,24v8h8c13.255,0,24-10.745,24-24V344z"/>
	</g>
	<g>
		<g>
			<path class="st21" d="M214.375,88l-7.029-7.029c-9.373-9.373-9.373-24.569,0-33.941L214.375,40l7.029,7.029
				c9.373,9.373,9.373,24.569,0,33.941L214.375,88z"/>
		</g>
		<g>
			<path class="st21" d="M257.042,88l-7.029-7.029c-9.373-9.373-9.373-24.569,0-33.941L257.042,40l7.029,7.029
				c9.373,9.373,9.373,24.569,0,33.941L257.042,88z"/>
		</g>
		<g>
			<path class="st21" d="M299.708,88l-7.029-7.029c-9.373-9.373-9.373-24.569,0-33.941L299.708,40l7.029,7.029
				c9.373,9.373,9.373,24.569,0,33.941L299.708,88z"/>
		</g>
		<g>
			<path class="st21" d="M171.708,88l-7.029-7.029c-9.373-9.373-9.373-24.569,0-33.941L171.708,40l7.029,7.029
				c9.373,9.373,9.373,24.569,0,33.941L171.708,88z"/>
		</g>
	</g>
	<g>
		<rect x="363.708" y="88" class="st19" width="32" height="16"/>
	</g>
	<g>
		
			<rect x="171.708" y="248" transform="matrix(6.123234e-17 -1 1 6.123234e-17 -68.2918 443.7082)" class="st19" width="32" height="16"/>
	</g>
</g>
</svg>
