<svg id="Layer_1" data-name="Layer 1" xmlns="http://www.w3.org/2000/svg" viewBox="0 0 128 128"><title>CONFETTI</title><path d="M63.782,103.243a1.75,1.75,0,0,1-1.332-2.884,10.229,10.229,0,0,0-.067-12.816,13.326,13.326,0,0,1-2.31-12.205c1.235-3.953,4.095-6.817,6.157-7.5a1.75,1.75,0,1,1,1.107,3.32c-.864.288-2.97,2.174-3.924,5.228a9.737,9.737,0,0,0,1.77,9.062,13.7,13.7,0,0,1-.071,17.188A1.747,1.747,0,0,1,63.782,103.243Z" style="fill:#fd852b"/><path d="M109.677,98.315c-.047,0-.095,0-.143-.006a1.75,1.75,0,0,1-1.6-1.877A10.228,10.228,0,0,0,100.345,86.1,13.32,13.32,0,0,1,91.3,77.584c-1.324-3.924-.693-7.922.571-9.691a1.751,1.751,0,1,1,2.848,2.037c-.53.74-1.126,3.5-.1,6.535a9.737,9.737,0,0,0,6.757,6.292,13.693,13.693,0,0,1,10.043,13.949A1.75,1.75,0,0,1,109.677,98.315Z" style="fill:#fd852b"/><path d="M18.323,98.315a1.749,1.749,0,0,1-1.742-1.609A13.693,13.693,0,0,1,26.624,82.757a9.737,9.737,0,0,0,6.757-6.292c1.023-3.032.428-5.795-.1-6.535a1.751,1.751,0,0,1,2.848-2.037c1.265,1.769,1.9,5.768.571,9.691A13.32,13.32,0,0,1,27.655,86.1a10.132,10.132,0,0,0-7.586,10.324,1.749,1.749,0,0,1-1.6,1.885C18.418,98.314,18.37,98.315,18.323,98.315Z" style="fill:#fd852b"/><polygon points="89.222 115.536 85.213 110.462 78.761 110.888 82.348 105.508 79.95 99.503 86.175 101.252 91.145 97.115 91.405 103.576 96.875 107.025 90.811 109.269 89.222 115.536" style="fill:#f9d12f"/><path d="M83.884,94.243a1.75,1.75,0,0,1-1.7-1.325l-3-12a1.75,1.75,0,1,1,3.395-.85l3,12a1.751,1.751,0,0,1-1.7,2.175Z" style="fill:#2ec3fc"/><path d="M79.153,76.029a1.75,1.75,0,0,1-1.7-1.325l-1-4a1.75,1.75,0,1,1,3.395-.85l1,4a1.751,1.751,0,0,1-1.7,2.175Z" style="fill:#2ec3fc"/><polygon points="38.778 115.536 42.786 110.462 49.239 110.888 45.652 105.508 48.05 99.503 41.825 101.252 36.855 97.115 36.595 103.576 31.125 107.025 37.189 109.269 38.778 115.536" style="fill:#f8b62b"/><path d="M44.116,94.243a1.726,1.726,0,0,1-.426-.053,1.748,1.748,0,0,1-1.272-2.122l3-12a1.75,1.75,0,1,1,3.394.85l-3,12A1.75,1.75,0,0,1,44.116,94.243Z" style="fill:#2ec3fc"/><path d="M48.847,76.029a1.731,1.731,0,0,1-.426-.053,1.748,1.748,0,0,1-1.272-2.122l1-4a1.75,1.75,0,0,1,3.395.85l-1,4A1.75,1.75,0,0,1,48.847,76.029Z" style="fill:#2ec3fc"/><rect x="105.16" y="68.911" width="6.082" height="6.082" transform="translate(235.588 46.32) rotate(135)" style="fill:#f9d12f"/><rect x="16.758" y="68.911" width="6.082" height="6.082" transform="translate(84.677 108.83) rotate(135.001)" style="fill:#f9d12f"/><circle cx="115" cy="112.493" r="3.5" style="fill:#fd748c"/><circle cx="13" cy="112.493" r="3.5" style="fill:#fd748c"/><path d="M61.217,60.257a1.75,1.75,0,0,1-.554-3.41c.864-.288,2.97-2.174,3.924-5.228a9.737,9.737,0,0,0-1.77-9.062,13.7,13.7,0,0,1,.071-17.188,1.75,1.75,0,0,1,2.662,2.272,10.229,10.229,0,0,0,.067,12.816,13.326,13.326,0,0,1,2.31,12.205c-1.235,3.953-4.095,6.817-6.157,7.5A1.739,1.739,0,0,1,61.217,60.257Z" style="fill:#fd852b"/><path d="M34.7,60.839a1.75,1.75,0,0,1-1.422-2.769c.53-.74,1.126-3.5.1-6.535a9.737,9.737,0,0,0-6.757-6.292A13.693,13.693,0,0,1,16.581,31.294a1.75,1.75,0,0,1,3.489.273A10.228,10.228,0,0,0,27.655,41.9,13.32,13.32,0,0,1,36.7,50.416c1.324,3.924.693,7.922-.571,9.691A1.749,1.749,0,0,1,34.7,60.839Z" style="fill:#fd852b"/><path d="M93.3,60.839a1.749,1.749,0,0,1-1.426-.732c-1.265-1.77-1.9-5.768-.571-9.691a13.32,13.32,0,0,1,9.042-8.517,10.132,10.132,0,0,0,7.586-10.324,1.75,1.75,0,1,1,3.488-.281,13.693,13.693,0,0,1-10.043,13.949,9.737,9.737,0,0,0-6.757,6.292c-1.023,3.032-.428,5.795.1,6.535A1.75,1.75,0,0,1,93.3,60.839Z" style="fill:#fd852b"/><polygon points="38.778 12.464 42.786 17.538 49.239 17.112 45.652 22.492 48.05 28.497 41.825 26.748 36.855 30.885 36.595 24.424 31.125 20.975 37.189 18.731 38.778 12.464" style="fill:#f8b62b"/><path d="M47.114,49.257a1.749,1.749,0,0,1-1.7-1.325l-3-12a1.75,1.75,0,0,1,3.394-.85l3,12a1.751,1.751,0,0,1-1.7,2.175Z" style="fill:#2ec3fc"/><path d="M49.845,59.471a1.75,1.75,0,0,1-1.7-1.325l-1-4a1.75,1.75,0,0,1,3.395-.85l1,4a1.751,1.751,0,0,1-1.7,2.175Z" style="fill:#2ec3fc"/><polygon points="89.222 12.464 85.213 17.538 78.761 17.112 82.348 22.492 79.95 28.497 86.175 26.748 91.145 30.885 91.405 24.424 96.875 20.975 90.811 18.731 89.222 12.464" style="fill:#f9d12f"/><path d="M80.886,49.257a1.729,1.729,0,0,1-.426-.053,1.748,1.748,0,0,1-1.273-2.122l3-12a1.75,1.75,0,0,1,3.395.85l-3,12A1.75,1.75,0,0,1,80.886,49.257Z" style="fill:#2ec3fc"/><path d="M78.155,59.471a1.73,1.73,0,0,1-.426-.053A1.748,1.748,0,0,1,76.457,57.3l1-4a1.75,1.75,0,1,1,3.395.85l-1,4A1.75,1.75,0,0,1,78.155,59.471Z" style="fill:#2ec3fc"/><rect x="16.758" y="53.007" width="6.082" height="6.082" transform="translate(-33.833 30.416) rotate(-45)" style="fill:#f9d12f"/><rect x="105.16" y="53.007" width="6.082" height="6.082" transform="translate(-7.941 92.924) rotate(-44.999)" style="fill:#f9d12f"/><circle cx="13" cy="15.507" r="3.5" style="fill:#fd748c"/><circle cx="115" cy="15.507" r="3.5" style="fill:#fd748c"/><polygon points="42.683 105.32 44.621 100.466 41.825 101.252 40.907 100.488 36.855 97.115 36.766 99.325 36.595 103.576 31.125 107.025 37.189 109.269 38.021 112.549 39.818 110.275 42.78 110.47 42.786 110.462 46.264 110.692 42.683 105.32" style="fill:#f9d12f"/><polygon points="85.317 105.32 83.378 100.466 86.175 101.252 87.093 100.488 91.145 97.115 91.234 99.325 91.405 103.576 96.875 107.025 90.811 109.269 89.979 112.549 88.182 110.275 85.22 110.47 85.213 110.462 81.736 110.692 85.317 105.32" style="fill:#f8b62b"/><polygon points="85.317 22.68 83.378 27.534 86.175 26.748 87.093 27.512 91.145 30.885 91.234 28.675 91.405 24.424 96.875 20.975 90.811 18.731 89.979 15.451 88.182 17.725 85.22 17.53 85.213 17.538 81.736 17.308 85.317 22.68" style="fill:#f8b62b"/><polygon points="42.683 22.68 44.621 27.534 41.825 26.748 40.907 27.512 36.855 30.885 36.766 28.675 36.595 24.424 31.125 20.975 37.189 18.731 38.021 15.451 39.818 17.725 42.78 17.53 42.786 17.538 46.264 17.308 42.683 22.68" style="fill:#f9d12f"/><path d="M67.337,71.119a1.75,1.75,0,1,0-1.107-3.32c-2.062.688-4.922,3.552-6.157,7.5a13.326,13.326,0,0,0,2.31,12.205,10.229,10.229,0,0,1,.067,12.816,1.75,1.75,0,0,0,2.662,2.272,13.7,13.7,0,0,0,.071-17.188,9.737,9.737,0,0,1-1.77-9.062C64.367,73.293,66.473,71.407,67.337,71.119Z" style="fill:#2a1624"/><path d="M111.419,96.672a13.693,13.693,0,0,0-10.043-13.949,9.737,9.737,0,0,1-6.757-6.292c-1.023-3.032-.428-5.795.1-6.535a1.751,1.751,0,1,0-2.848-2.037c-1.265,1.769-1.9,5.768-.571,9.691a13.32,13.32,0,0,0,9.042,8.517A10.228,10.228,0,0,1,107.93,96.4a1.75,1.75,0,0,0,1.6,1.877c.048,0,.1.006.143.006A1.75,1.75,0,0,0,111.419,96.672Z" style="fill:#2a1624"/><path d="M36.7,77.55c1.324-3.924.693-7.922-.571-9.691A1.751,1.751,0,0,0,33.278,69.9c.53.74,1.126,3.5.1,6.535a9.737,9.737,0,0,1-6.757,6.292A13.693,13.693,0,0,0,16.581,96.672a1.749,1.749,0,0,0,1.742,1.609c.047,0,.095,0,.143-.006a1.749,1.749,0,0,0,1.6-1.885,10.132,10.132,0,0,1,7.586-10.324A13.32,13.32,0,0,0,36.7,77.55Z" style="fill:#2a1624"/><path d="M97.809,105.51l-4.691-2.957-.223-5.542a1.75,1.75,0,0,0-2.868-1.274l-4.264,3.548-5.339-1.5a1.75,1.75,0,0,0-2.1,2.334l2.057,5.15-3.076,4.614a1.75,1.75,0,0,0,1.571,2.717l5.534-.365,3.437,4.353a1.75,1.75,0,0,0,1.373.665,1.791,1.791,0,0,0,.365-.038,1.751,1.751,0,0,0,1.331-1.282l1.363-5.375,5.2-1.925a1.751,1.751,0,0,0,.326-3.122ZM90.2,107.593a1.751,1.751,0,0,0-1.089,1.212l-.718,2.829-1.81-2.291a1.749,1.749,0,0,0-1.373-.665c-.038,0-.077,0-.115,0l-2.914.192,1.62-2.43a1.75,1.75,0,0,0,.169-1.62l-1.083-2.712,2.811.79a1.749,1.749,0,0,0,1.593-.34l2.245-1.868.117,2.918a1.752,1.752,0,0,0,.815,1.41l2.471,1.558Z" style="fill:#2a1624"/><path d="M82.582,80.034a1.75,1.75,0,1,0-3.395.85l3,12a1.75,1.75,0,0,0,1.7,1.325,1.751,1.751,0,0,0,1.7-2.175Z" style="fill:#2a1624"/><path d="M79.153,76a1.751,1.751,0,0,0,1.7-2.175l-1-4a1.75,1.75,0,1,0-3.395.85l1,4A1.75,1.75,0,0,0,79.153,76Z" style="fill:#2a1624"/><path d="M47.618,105.269l2.057-5.15a1.75,1.75,0,0,0-2.1-2.334l-5.339,1.5-4.264-3.548a1.75,1.75,0,0,0-2.868,1.274l-.223,5.542-4.691,2.957a1.751,1.751,0,0,0,.326,3.122l5.2,1.925,1.363,5.375a1.751,1.751,0,0,0,1.331,1.282,1.791,1.791,0,0,0,.365.038,1.75,1.75,0,0,0,1.373-.665l3.437-4.353,5.534.365a1.75,1.75,0,0,0,1.571-2.717ZM42.9,108.682a1.7,1.7,0,0,0-1.488.661l-1.81,2.291-.718-2.829a1.751,1.751,0,0,0-1.089-1.212l-2.739-1.013,2.471-1.558a1.752,1.752,0,0,0,.815-1.41l.117-2.918,2.245,1.868a1.749,1.749,0,0,0,1.593.34l2.811-.79-1.083,2.712a1.75,1.75,0,0,0,.169,1.62l1.62,2.43Z" style="fill:#2a1624"/><path d="M42.418,92.034a1.748,1.748,0,0,0,1.272,2.122,1.726,1.726,0,0,0,.426.053,1.75,1.75,0,0,0,1.7-1.325l3-12a1.75,1.75,0,1,0-3.394-.85Z" style="fill:#2a1624"/><path d="M50.27,68.548a1.747,1.747,0,0,0-2.122,1.273l-1,4a1.748,1.748,0,0,0,1.272,2.122,1.731,1.731,0,0,0,.426.053,1.75,1.75,0,0,0,1.7-1.325l1-4A1.748,1.748,0,0,0,50.27,68.548Z" style="fill:#2a1624"/><path d="M109.438,66.38a1.749,1.749,0,0,0-2.475,0l-4.3,4.3a1.749,1.749,0,0,0,0,2.475l4.3,4.3a1.749,1.749,0,0,0,2.475,0l4.3-4.3a1.749,1.749,0,0,0,0-2.475ZM108.2,73.743l-1.826-1.825,1.826-1.826,1.825,1.826Z" style="fill:#2a1624"/><path d="M21.036,66.38a1.8,1.8,0,0,0-2.475,0l-4.3,4.3a1.749,1.749,0,0,0,0,2.475l4.3,4.3a1.749,1.749,0,0,0,2.475,0l4.3-4.3a1.749,1.749,0,0,0,0-2.475ZM19.8,73.743l-1.825-1.825L19.8,70.092l1.826,1.826Z" style="fill:#2a1624"/><path d="M115,107.209a5.25,5.25,0,1,0,5.25,5.25A5.256,5.256,0,0,0,115,107.209Zm0,7a1.75,1.75,0,1,1,1.75-1.75A1.752,1.752,0,0,1,115,114.209Z" style="fill:#2a1624"/><path d="M13,107.209a5.25,5.25,0,1,0,5.25,5.25A5.256,5.256,0,0,0,13,107.209Zm0,7a1.75,1.75,0,1,1,1.75-1.75A1.752,1.752,0,0,1,13,114.209Z" style="fill:#2a1624"/><path d="M60.663,56.813a1.75,1.75,0,0,0,1.107,3.32c2.063-.687,4.922-3.552,6.157-7.5a13.326,13.326,0,0,0-2.31-12.205,10.229,10.229,0,0,1-.067-12.816,1.75,1.75,0,0,0-2.662-2.272,13.7,13.7,0,0,0-.071,17.188,9.737,9.737,0,0,1,1.77,9.062C63.633,54.639,61.527,56.524,60.663,56.813Z" style="fill:#2a1624"/><path d="M16.581,31.26A13.693,13.693,0,0,0,26.624,45.209,9.737,9.737,0,0,1,33.381,51.5c1.023,3.032.428,5.795-.1,6.535a1.751,1.751,0,0,0,2.848,2.037c1.265-1.77,1.9-5.768.571-9.691a13.32,13.32,0,0,0-9.042-8.517A10.228,10.228,0,0,1,20.07,31.533a1.75,1.75,0,0,0-3.489-.274Z" style="fill:#2a1624"/><path d="M91.3,50.382c-1.324,3.924-.693,7.922.571,9.691a1.751,1.751,0,1,0,2.848-2.037c-.53-.74-1.126-3.5-.1-6.535a9.737,9.737,0,0,1,6.757-6.292A13.693,13.693,0,0,0,111.419,31.26a1.75,1.75,0,1,0-3.488.281,10.132,10.132,0,0,1-7.586,10.324A13.32,13.32,0,0,0,91.3,50.382Z" style="fill:#2a1624"/><path d="M30.191,22.422l4.691,2.957.223,5.542A1.75,1.75,0,0,0,37.974,32.2l4.264-3.548,5.339,1.5a1.75,1.75,0,0,0,2.1-2.334l-2.057-5.15,3.076-4.614a1.749,1.749,0,0,0,.059-1.847,1.718,1.718,0,0,0-1.63-.87l-5.534.365-3.437-4.353A1.75,1.75,0,0,0,37.082,12l-1.363,5.375-5.2,1.925a1.751,1.751,0,0,0-.326,3.122ZM37.8,20.339a1.751,1.751,0,0,0,1.089-1.212L39.6,16.3l1.81,2.291a1.749,1.749,0,0,0,1.488.661l2.914-.192-1.62,2.43a1.75,1.75,0,0,0-.169,1.62l1.083,2.712-2.811-.79a1.749,1.749,0,0,0-1.593.34l-2.245,1.868-.117-2.918a1.752,1.752,0,0,0-.815-1.41l-2.471-1.558Z" style="fill:#2a1624"/><path d="M47.54,49.17a1.748,1.748,0,0,0,1.272-2.122l-3-12a1.75,1.75,0,0,0-3.394.85l3,12A1.748,1.748,0,0,0,47.54,49.17Z" style="fill:#2a1624"/><path d="M50.543,53.262a1.75,1.75,0,0,0-3.395.85l1,4a1.75,1.75,0,0,0,3.395-.85Z" style="fill:#2a1624"/><path d="M80.382,22.663l-2.057,5.15a1.75,1.75,0,0,0,2.1,2.334l5.339-1.5L90.026,32.2a1.75,1.75,0,0,0,2.868-1.274l.26-6.461a1.75,1.75,0,1,0-3.5-.141l-.117,2.918-2.245-1.868a1.749,1.749,0,0,0-1.593-.34l-2.811.79,1.083-2.712a1.75,1.75,0,0,0-.169-1.62l-1.62-2.43,2.914.192a1.735,1.735,0,0,0,1.488-.661L88.4,16.3l.718,2.829A1.751,1.751,0,0,0,90.2,20.339l6.064,2.244A1.75,1.75,0,0,0,97.482,19.3l-5.2-1.925L90.918,12a1.75,1.75,0,0,0-3.069-.655L84.411,15.7l-5.534-.365a1.72,1.72,0,0,0-1.63.87,1.749,1.749,0,0,0,.059,1.847Z" style="fill:#2a1624"/><path d="M84.31,33.775a1.749,1.749,0,0,0-2.122,1.272l-3,12A1.748,1.748,0,0,0,80.46,49.17a1.729,1.729,0,0,0,.426.053,1.75,1.75,0,0,0,1.7-1.325l3-12A1.748,1.748,0,0,0,84.31,33.775Z" style="fill:#2a1624"/><path d="M77.729,59.384a1.73,1.73,0,0,0,.426.053,1.75,1.75,0,0,0,1.7-1.325l1-4a1.75,1.75,0,1,0-3.395-.85l-1,4A1.748,1.748,0,0,0,77.729,59.384Z" style="fill:#2a1624"/><path d="M25.337,54.776l-4.3-4.3a1.749,1.749,0,0,0-2.475,0l-4.3,4.3a1.749,1.749,0,0,0,0,2.475l4.3,4.3a1.749,1.749,0,0,0,2.475,0l4.3-4.3a1.749,1.749,0,0,0,0-2.475ZM19.8,57.84l-1.825-1.826L19.8,54.189l1.826,1.825Z" style="fill:#2a1624"/><path d="M113.738,54.776l-4.3-4.3a1.749,1.749,0,0,0-2.475,0l-4.3,4.3a1.749,1.749,0,0,0,0,2.475l4.3,4.3a1.749,1.749,0,0,0,2.475,0l4.3-4.3A1.749,1.749,0,0,0,113.738,54.776ZM108.2,57.84l-1.826-1.826,1.826-1.825,1.825,1.825Z" style="fill:#2a1624"/><path d="M13,20.723a5.25,5.25,0,1,0-5.25-5.25A5.256,5.256,0,0,0,13,20.723Zm0-7a1.75,1.75,0,1,1-1.75,1.75A1.752,1.752,0,0,1,13,13.723Z" style="fill:#2a1624"/><path d="M115,20.723a5.25,5.25,0,1,0-5.25-5.25A5.256,5.256,0,0,0,115,20.723Zm0-7a1.75,1.75,0,1,1-1.75,1.75A1.752,1.752,0,0,1,115,13.723Z" style="fill:#2a1624"/></svg>