<svg id="Layer_1" data-name="Layer 1" xmlns="http://www.w3.org/2000/svg" viewBox="0 0 128 128"><title>GIRL</title><path d="M37.8,74.333H90.2a28.3,28.3,0,0,1,28.3,28.3V118.5a0,0,0,0,1,0,0H9.5a0,0,0,0,1,0,0V102.636A28.3,28.3,0,0,1,37.8,74.333Z" style="fill:#fc6928"/><path d="M90.2,74.33H47.3A28.3,28.3,0,0,0,19,102.64V118.5h99.5V102.64A28.3,28.3,0,0,0,90.2,74.33Z" style="fill:#fd852b"/><polygon points="103.102 74.333 24.898 74.333 34.898 32.865 93.102 32.865 103.102 74.333" style="fill:#ec4d85"/><circle cx="64" cy="75.167" r="17.167" style="fill:#f6c6bb"/><path d="M38.133,32.865H89.867a0,0,0,0,1,0,0V58.733A25.867,25.867,0,0,1,64,84.6h0A25.867,25.867,0,0,1,38.133,58.733V32.865A0,0,0,0,1,38.133,32.865Z" style="fill:#f6c6bb"/><path d="M67.7,84.332a25.869,25.869,0,0,0,22.163-25.6V32.866H45.541V58.733A25.869,25.869,0,0,0,67.7,84.332Z" style="fill:#feded6"/><path d="M99.034,46.5a9.167,9.167,0,0,1-9.167,9.167V37.334A9.167,9.167,0,0,1,99.034,46.5Z" style="fill:#f6c6bb"/><path d="M38.75,49s15-4.519,16.25-16.135c0,0,9.484,16.09,34.867,15.987S102.278-9.25,53.5,17.167c0,0-15.367-5-19.951,21.4L34.9,46.5Z" style="fill:#fd748c"/><path d="M53.5,17.167l-1.484-.291c-3.963-.475-14.753.3-18.467,21.69L34.9,46.5,38.75,49a32.506,32.506,0,0,0,6.791-3.163S43.5,17.083,53.5,17.167Z" style="fill:#ec4d85"/><path d="M28.966,46.5a9.167,9.167,0,0,0,9.167,9.167V37.334A9.167,9.167,0,0,0,28.966,46.5Z" style="fill:#f6c6bb"/><path d="M101.068,58.4a1.75,1.75,0,0,0-3.4.82l3.213,13.325h-13A27.44,27.44,0,0,0,91.617,58.7V57.229a10.924,10.924,0,0,0,9.167-10.762c0-.271-.01-.543-.03-.813a13.88,13.88,0,0,0,1.19-1.684c3.455-5.827,3.128-14.316-.832-21.628a1.75,1.75,0,0,0-3.078,1.667c3.334,6.155,3.7,13.46.9,18.176a9.994,9.994,0,0,1-9.073,4.884c-12.524.049-20.939-4.059-25.771-7.517a29.059,29.059,0,0,1-7.582-7.609,1.75,1.75,0,0,0-3.248.7c-.877,8.153-9.668,12.543-13.377,14.044V37.3a1.75,1.75,0,0,0-1.75-1.75A10.912,10.912,0,0,0,28.55,51.691L23.2,73.889a1.74,1.74,0,0,0,.917,1.972A30.077,30.077,0,0,0,7.75,102.6v15.864a1.75,1.75,0,0,0,3.5,0V102.6A26.582,26.582,0,0,1,37.8,76.049h4.732a27.862,27.862,0,0,0,3.012,3.175,18.9,18.9,0,0,0,36.91,0,27.851,27.851,0,0,0,3.009-3.174H103.1a1.749,1.749,0,0,0,1.7-2.16Zm-9.451-4.738v-3.2a14.2,14.2,0,0,0,5.255-1.581A7.435,7.435,0,0,1,91.617,53.666ZM55.841,36.845c4.146,4.75,14.092,13.228,32.276,13.681V58.7A24.1,24.1,0,0,1,48.67,77.3a1.745,1.745,0,0,0-1.1-.971A24.05,24.05,0,0,1,39.883,58.7V50.435C42.534,49.518,52.62,45.522,55.841,36.845ZM36.383,39.259V53.675a7.418,7.418,0,0,1,0-14.416Zm1.42,33.29H27.121l4.23-17.543a10.86,10.86,0,0,0,5.032,2.223V58.7a27.44,27.44,0,0,0,3.739,13.851Zm26.2,18a15.373,15.373,0,0,1-13.359-7.69,27.546,27.546,0,0,0,26.693.015A15.423,15.423,0,0,1,64,90.549Z" style="fill:#2a1624"/><path d="M111.535,81.439a1.75,1.75,0,0,0-2.484,2.465,26.389,26.389,0,0,1,7.7,18.7v15.864a1.75,1.75,0,0,0,3.5,0V102.6A29.865,29.865,0,0,0,111.535,81.439Z" style="fill:#2a1624"/><path d="M99.034,94.633a1.75,1.75,0,0,0-1.75,1.75v22.083a1.75,1.75,0,1,0,3.5,0V96.383A1.75,1.75,0,0,0,99.034,94.633Z" style="fill:#2a1624"/><path d="M28.966,94.633a1.75,1.75,0,0,0-1.75,1.75v1.583a1.75,1.75,0,1,0,3.5,0V96.383A1.75,1.75,0,0,0,28.966,94.633Z" style="fill:#2a1624"/><path d="M28.966,103.091a1.75,1.75,0,0,0-1.75,1.75v13.625a1.75,1.75,0,1,0,3.5,0V104.841A1.75,1.75,0,0,0,28.966,103.091Z" style="fill:#2a1624"/><path d="M34.62,33.462a1.73,1.73,0,0,0,.518.078,1.751,1.751,0,0,0,1.671-1.233c1.953-6.318,4.868-10.536,8.666-12.536a10.46,10.46,0,0,1,7.484-.974,1.744,1.744,0,0,0,1.374-.125C71.592,9.324,82.724,11.463,89.021,14.9A1.75,1.75,0,0,0,90.7,11.831c-6.985-3.815-19.127-6.28-37.435,3.442a14.275,14.275,0,0,0-9.335,1.356c-4.692,2.433-8.214,7.359-10.465,14.644A1.75,1.75,0,0,0,34.62,33.462Z" style="fill:#2a1624"/><path d="M94.8,19.452A1.75,1.75,0,1,0,97.394,17.1q-.373-.41-.768-.809a1.75,1.75,0,0,0-2.484,2.465Q94.481,19.1,94.8,19.452Z" style="fill:#2a1624"/></svg>