<svg id="Layer_1" data-name="Layer 1" xmlns="http://www.w3.org/2000/svg" viewBox="0 0 128 128"><title>MOUSTACHE</title><path d="M64.174,42.469c1.672-11.412,13.876-17.934,35.454-2.163,12.141,8.874,18.888-1.471,15.954-6.145,0,0,8.74,13.3-4.034,25.2C98.345,71.665,61.147,63.13,64.174,42.469Z" style="fill:#fc6928"/><path d="M93.128,40.306c-7.42-5.423-11.691-9.069-18.887-9.069C68.406,32.386,65,36.827,64.174,42.469,62.254,55.578,76.526,63.8,90.589,64.923c5.714-.483,10.939-2.281,14.46-5.56,6.049-5.636,7.271-11.584,6.884-16.287C107,46.188,98.146,43.974,93.128,40.306Z" style="fill:#fd852b"/><path d="M93.072,84.7a2.445,2.445,0,1,1,2.444-2.445A2.447,2.447,0,0,1,93.072,84.7Z" style="fill:#f9d12f"/><path d="M93.072,94.146A2.445,2.445,0,1,1,95.517,91.7,2.448,2.448,0,0,1,93.072,94.146Z" style="fill:#f9d12f"/><path d="M88.351,89.424a2.445,2.445,0,1,1,2.444-2.445A2.448,2.448,0,0,1,88.351,89.424Z" style="fill:#f9d12f"/><path d="M97.793,89.424a2.445,2.445,0,1,1,2.445-2.445A2.447,2.447,0,0,1,97.793,89.424Z" style="fill:#f9d12f"/><path d="M15.285,12.64a2.445,2.445,0,1,1,2.445-2.445A2.447,2.447,0,0,1,15.285,12.64Z" style="fill:#f9d12f"/><path d="M15.285,22.083a2.445,2.445,0,1,1,2.445-2.445A2.447,2.447,0,0,1,15.285,22.083Z" style="fill:#f9d12f"/><path d="M10.564,17.361a2.445,2.445,0,1,1,2.444-2.445A2.448,2.448,0,0,1,10.564,17.361Z" style="fill:#f9d12f"/><path d="M20.007,17.361a2.445,2.445,0,1,1,2.445-2.445A2.447,2.447,0,0,1,20.007,17.361Z" style="fill:#f9d12f"/><rect x="110.961" y="17.363" width="5.939" height="5.939" transform="translate(18.992 86.517) rotate(-45)" style="fill:#2ec3fc"/><rect x="38.468" y="103.905" width="5.939" height="5.939" transform="translate(-63.435 60.605) rotate(-45.001)" style="fill:#2ec3fc"/><path d="M63.825,42.469C62.153,31.057,49.95,24.535,28.372,40.306,16.23,49.18,9.483,38.836,12.417,34.161c0,0-8.74,13.3,4.034,25.2C29.655,71.665,66.853,63.13,63.825,42.469Z" style="fill:#fc6928"/><path d="M47.259,31.237c-5.156.859-11.467,3.646-18.887,9.069-5.018,3.667-11,5.944-18.8,2.77-.387,4.7.835,10.65,6.884,16.287,3.52,3.28,8.746,5.078,14.46,5.56C44.974,63.8,59.246,55.578,57.325,42.469,56.5,36.827,53.094,32.386,47.259,31.237Z" style="fill:#fd852b"/><path d="M93.072,84.668a2.445,2.445,0,1,0-2.445-2.445A2.447,2.447,0,0,0,93.072,84.668Z" style="fill:#2a1624"/><path d="M93.072,89.222a2.445,2.445,0,1,0,2.444,2.445A2.447,2.447,0,0,0,93.072,89.222Z" style="fill:#2a1624"/><path d="M88.351,84.5a2.445,2.445,0,1,0,2.444,2.445A2.448,2.448,0,0,0,88.351,84.5Z" style="fill:#2a1624"/><path d="M97.793,84.5a2.445,2.445,0,1,0,2.445,2.445A2.447,2.447,0,0,0,97.793,84.5Z" style="fill:#2a1624"/><path d="M15.285,12.605a2.445,2.445,0,1,0-2.444-2.445A2.448,2.448,0,0,0,15.285,12.605Z" style="fill:#2a1624"/><path d="M15.285,17.159A2.445,2.445,0,1,0,17.73,19.6,2.447,2.447,0,0,0,15.285,17.159Z" style="fill:#2a1624"/><path d="M10.564,17.327a2.445,2.445,0,1,0-2.445-2.445A2.447,2.447,0,0,0,10.564,17.327Z" style="fill:#2a1624"/><path d="M20.007,17.327a2.445,2.445,0,1,0-2.444-2.445A2.448,2.448,0,0,0,20.007,17.327Z" style="fill:#2a1624"/><path d="M112.693,25.735a1.749,1.749,0,0,0,2.475,0l4.2-4.2a1.749,1.749,0,0,0,0-2.475l-4.2-4.2a1.8,1.8,0,0,0-2.475,0l-4.2,4.2a1.749,1.749,0,0,0,0,2.475Zm1.237-7.162,1.726,1.725-1.726,1.725L112.206,20.3Z" style="fill:#2a1624"/><path d="M42.676,101.4a1.749,1.749,0,0,0-2.475,0L36,105.6a1.749,1.749,0,0,0,0,2.475l4.2,4.2a1.749,1.749,0,0,0,2.475,0l4.2-4.2a1.749,1.749,0,0,0,0-2.475Zm-1.237,7.162-1.726-1.725,1.726-1.725,1.725,1.725Z" style="fill:#2a1624"/><path d="M24.189,69.336a1.75,1.75,0,0,0-1.75,1.75v47.379a1.75,1.75,0,1,0,3.5,0V71.086A1.75,1.75,0,0,0,24.189,69.336Z" style="fill:#2a1624"/><path d="M117.126,33.3c-.02-.033-.04-.066-.061-.1l-.019-.031a1.75,1.75,0,0,0-2.945,1.891c.9,1.434.3,3.841-1.335,5.366-2.74,2.555-7.267,1.972-12.105-1.564-15.047-11-24.429-10.7-29.654-8.5A13.661,13.661,0,0,0,64,37.126a13.662,13.662,0,0,0-7.006-6.772c-5.225-2.191-14.608-2.493-29.654,8.5-.471.344-.937.651-1.4.939V30.754a1.75,1.75,0,1,0-3.5,0V41.47c-2.885.94-5.423.613-7.205-1.047C13.6,38.9,13,36.491,13.9,35.057a1.75,1.75,0,0,0-2.945-1.891l-.019.031-.061.1c-.891,1.473-8.623,15.194,4.385,27.314,4.261,3.97,11.039,6.166,18.857,6.166.817,0,1.648-.024,2.487-.073,8.467-.49,16.733-3.474,22.112-7.98a1.75,1.75,0,1,0-2.248-2.683c-10.485,8.785-30.441,9.819-38.822,2.009-6.345-5.911-6.933-12.136-6.131-16.614a9.269,9.269,0,0,0,1.334,1.549c1.523,1.42,7.224,5.521,16.556-1.3,10.71-7.828,20.027-10.706,26.236-8.1,3.517,1.475,5.809,4.709,6.453,9.106a1.744,1.744,0,0,0,.23.644c-.619,7.608,3.764,14.434,12.2,18.858a43.11,43.11,0,0,0,19.409,4.538c7.248,0,14.242-1.863,18.81-6.119C125.747,48.492,118.019,34.772,117.126,33.3Zm-6.772,24.753c-7.066,6.584-22.731,7.063-34.207,1.043-4.386-2.3-11.547-7.49-10.241-16.4.644-4.4,2.936-7.631,6.453-9.106a12.814,12.814,0,0,1,4.989-.935c5.776,0,13.109,3.09,21.247,9.038,9.33,6.819,15.032,2.718,16.556,1.3a9.256,9.256,0,0,0,1.314-1.521q.089.494.153,1.015C117.327,48.277,115.22,53.516,110.354,58.048Z" style="fill:#2a1624"/><path d="M81.18,35.853a1.75,1.75,0,0,0-.625,3.443,22.79,22.79,0,0,1,10.555,5.538,1.75,1.75,0,1,0,2.281-2.653A26.18,26.18,0,0,0,81.18,35.853Z" style="fill:#fff"/><path d="M74.713,35.97a7.663,7.663,0,0,0-1.179.387,1.75,1.75,0,0,0,1.415,3.2,4.957,4.957,0,0,1,.627-.2,1.75,1.75,0,1,0-.863-3.392Z" style="fill:#fff"/></svg>