<svg id="Layer_1" data-name="Layer 1" xmlns="http://www.w3.org/2000/svg" viewBox="0 0 128 128"><title>PARTY BLOWER</title><path d="M54.3,77.112a25.225,25.225,0,1,0-19.574,9.317H79.552V77.112Z" style="fill:#ec4d85"/><path d="M54.3,77.112h-6.25A25.22,25.22,0,0,0,31.6,36.173a25.225,25.225,0,0,0,3.125,50.256H74.833V77.112Z" style="fill:#fd748c"/><path d="M93.072,49.416a2.445,2.445,0,1,1,2.445-2.445A2.448,2.448,0,0,1,93.072,49.416Z" style="fill:#fd852b"/><path d="M93.072,58.858a2.445,2.445,0,1,1,2.445-2.445A2.447,2.447,0,0,1,93.072,58.858Z" style="fill:#fd852b"/><path d="M88.351,54.137A2.445,2.445,0,1,1,90.8,51.692,2.447,2.447,0,0,1,88.351,54.137Z" style="fill:#fd852b"/><path d="M97.793,54.137a2.445,2.445,0,1,1,2.445-2.445A2.448,2.448,0,0,1,97.793,54.137Z" style="fill:#fd852b"/><path d="M15.286,16.353a2.445,2.445,0,1,1,2.445-2.445A2.447,2.447,0,0,1,15.286,16.353Z" style="fill:#fd852b"/><path d="M15.286,25.8a2.445,2.445,0,1,1,2.445-2.445A2.448,2.448,0,0,1,15.286,25.8Z" style="fill:#fd852b"/><path d="M10.564,21.074a2.445,2.445,0,1,1,2.445-2.445A2.448,2.448,0,0,1,10.564,21.074Z" style="fill:#fd852b"/><path d="M20.007,21.074a2.445,2.445,0,1,1,2.445-2.445A2.448,2.448,0,0,1,20.007,21.074Z" style="fill:#fd852b"/><rect x="110.961" y="21.076" width="5.939" height="5.939" transform="translate(16.367 87.604) rotate(-45)" style="fill:#fd748c"/><rect x="38.468" y="107.617" width="5.939" height="5.939" transform="translate(-66.061 61.693) rotate(-45.001)" style="fill:#2ec3fc"/><circle cx="34.728" cy="61.201" r="15.91" style="fill:#ec4d85"/><circle cx="34.728" cy="61.201" r="6.744" style="fill:#fd748c"/><polygon points="118.5 77.112 90.25 77.112 90.25 86.429 118.5 81.429 118.5 77.112" style="fill:#2ec3fc"/><rect x="79.552" y="73.249" width="10.698" height="17.043" style="fill:#f9d12f"/><rect x="84.901" y="73.249" width="5.349" height="17.043" style="fill:#f8b62b"/><polygon points="118.5 81.429 90.25 81.77 90.25 86.429 118.5 81.429" style="fill:#1ba4fc"/><path d="M93.072,49.382a2.445,2.445,0,1,0-2.445-2.445A2.448,2.448,0,0,0,93.072,49.382Z" style="fill:#2a1624"/><path d="M93.072,53.935a2.445,2.445,0,1,0,2.445,2.445A2.447,2.447,0,0,0,93.072,53.935Z" style="fill:#2a1624"/><path d="M88.351,54.1a2.445,2.445,0,1,0-2.445-2.445A2.448,2.448,0,0,0,88.351,54.1Z" style="fill:#2a1624"/><path d="M97.793,54.1a2.445,2.445,0,1,0-2.445-2.445A2.448,2.448,0,0,0,97.793,54.1Z" style="fill:#2a1624"/><path d="M15.286,16.318a2.445,2.445,0,1,0-2.445-2.445A2.447,2.447,0,0,0,15.286,16.318Z" style="fill:#2a1624"/><path d="M15.286,20.872a2.445,2.445,0,1,0,2.445,2.445A2.447,2.447,0,0,0,15.286,20.872Z" style="fill:#2a1624"/><path d="M10.564,21.04A2.445,2.445,0,1,0,8.119,18.6,2.448,2.448,0,0,0,10.564,21.04Z" style="fill:#2a1624"/><path d="M20.007,21.04A2.445,2.445,0,1,0,17.562,18.6,2.448,2.448,0,0,0,20.007,21.04Z" style="fill:#2a1624"/><path d="M112.693,29.448a1.749,1.749,0,0,0,2.475,0l4.2-4.2a1.749,1.749,0,0,0,0-2.475l-4.2-4.2a1.749,1.749,0,0,0-2.475,0l-4.2,4.2a1.749,1.749,0,0,0,0,2.475Zm1.237-7.162,1.725,1.725-1.725,1.725-1.725-1.725Z" style="fill:#2a1624"/><path d="M42.675,105.116a1.8,1.8,0,0,0-2.475,0l-4.2,4.2a1.749,1.749,0,0,0,0,2.475l4.2,4.2a1.749,1.749,0,0,0,2.475,0l4.2-4.2a1.749,1.749,0,0,0,0-2.475Zm-1.237,7.162-1.725-1.725,1.725-1.725,1.725,1.725Z" style="fill:#2a1624"/><path d="M21.528,52.11a1.752,1.752,0,0,0-2.37.714,17.635,17.635,0,1,0,10.407-8.551,1.75,1.75,0,0,0,1.022,3.348,14.156,14.156,0,1,1-8.346,6.859A1.751,1.751,0,0,0,21.528,52.11Z" style="fill:#2a1624"/><path d="M24.446,46.807q-.433.311-.845.645a1.75,1.75,0,1,0,2.207,2.716q.33-.268.676-.516a1.75,1.75,0,0,0-2.038-2.846Z" style="fill:#2a1624"/><path d="M34.727,56.173a5,5,0,0,1,4.994,4.994,1.75,1.75,0,1,0,3.5,0,8.492,8.492,0,1,0-3.914,7.154,1.75,1.75,0,0,0-1.89-2.946,4.994,4.994,0,1,1-2.691-9.2Z" style="fill:#2a1624"/><path d="M72,84.645H34.727A23.456,23.456,0,1,1,57.14,68.176a1.75,1.75,0,0,0,3.341,1.045A26.981,26.981,0,1,0,34.727,88.145H72a1.75,1.75,0,0,0,0-3.5Z" style="fill:#2a1624"/><path d="M118.5,75.328H97.793a1.75,1.75,0,0,0,0,3.5H116.75v1.1L92,84.308V73.214a1.75,1.75,0,0,0-1.75-1.75h-10.7a1.75,1.75,0,0,0-1.75,1.75v2.113H54.3a1.75,1.75,0,0,0,0,3.5H77.8v11.43a1.75,1.75,0,0,0,1.75,1.75h10.7A1.75,1.75,0,0,0,92,90.258v-2.4l26.805-4.744a1.75,1.75,0,0,0,1.445-1.723V77.078A1.75,1.75,0,0,0,118.5,75.328Zm-30,13.18H81.3V74.964h7.2Z" style="fill:#2a1624"/></svg>