<svg id="Layer_1" data-name="Layer 1" xmlns="http://www.w3.org/2000/svg" viewBox="0 0 128 128"><title>PARTY POPPER</title><polygon points="64 118.5 41 58.333 87 58.333 64 118.5" style="fill:#2ec3fc"/><polygon points="73.469 64.924 64 118.5 87 58.333 73.469 64.924" style="fill:#1ba4fc"/><ellipse cx="64" cy="58.333" rx="23" ry="7.232" style="fill:#f8b62b"/><circle cx="69.664" cy="92.417" r="4" style="fill:#f9d12f"/><path d="M51.667,72.417a7.954,7.954,0,0,0-4.7,1.534l5.514,14.425a8,8,0,0,0-.817-15.959Z" style="fill:#f9d12f"/><polygon points="64 9.5 66.518 14.601 72.147 15.419 68.074 19.39 69.035 24.997 64 22.35 58.965 24.997 59.926 19.39 55.853 15.419 61.482 14.601 64 9.5" style="fill:#ec4d85"/><path d="M64,60.083a1.75,1.75,0,0,1-1.75-1.75V30.484a1.75,1.75,0,1,1,3.5,0V58.333A1.75,1.75,0,0,1,64,60.083Z" style="fill:#fd852b"/><polygon points="14.35 13.08 19.737 14.907 24.297 11.505 24.224 17.193 28.869 20.478 23.436 22.166 21.747 27.599 18.463 22.954 12.774 23.027 16.177 18.468 14.35 13.08" style="fill:#1ba4fc"/><path d="M53.331,60.082A1.751,1.751,0,0,1,51.612,58c.017-.086,1.636-8.608-1.759-13.238l-.06-.081a7.557,7.557,0,0,1-2.752,4.2c-2.8,2.187-5.9,2.421-8.292.631a6.513,6.513,0,0,1-2.216-7.362c.534-1.346,2.433-4.406,8.492-3.721.167.019.332.041.495.064-2.613-5.679-9.527-11.361-15.557-10.914a1.75,1.75,0,0,1-.268-3.49c8.04-.611,16.686,6.859,19.432,13.952a14.558,14.558,0,0,1,.6,1.924A10.2,10.2,0,0,1,52.683,42.7c4.3,5.878,2.444,15.567,2.363,15.977A1.749,1.749,0,0,1,53.331,60.082ZM43.366,41.831c-1.887,0-3.165.563-3.58,1.608a3,3,0,0,0,1.061,3.27c1.08.808,2.515.6,4.041-.59a4.361,4.361,0,0,0,1.658-3.8,8.948,8.948,0,0,0-1.914-.417A11.27,11.27,0,0,0,43.366,41.831Z" style="fill:#fd852b"/><polygon points="113.65 13.08 108.263 14.907 103.703 11.505 103.776 17.193 99.131 20.478 104.564 22.166 106.252 27.599 109.537 22.954 115.226 23.027 111.823 18.468 113.65 13.08" style="fill:#2ec3fc"/><path d="M74.668,60.082a1.749,1.749,0,0,1-1.714-1.409c-.081-.409-1.936-10.1,2.363-15.977a10.2,10.2,0,0,1,2.955-2.732,14.556,14.556,0,0,1,.6-1.924C81.618,30.947,90.272,23.5,98.3,24.088a1.751,1.751,0,0,1,1.611,1.879,1.769,1.769,0,0,1-1.879,1.611c-6.021-.45-12.943,5.235-15.557,10.914.163-.023.328-.046.495-.064,6.062-.686,7.957,2.375,8.492,3.721a6.514,6.514,0,0,1-2.216,7.362c-2.389,1.792-5.489,1.555-8.292-.631a7.559,7.559,0,0,1-2.752-4.2l-.06.081C74.752,49.387,76.371,57.909,76.388,58a1.751,1.751,0,0,1-1.719,2.087Zm6.784-17.759a4.361,4.361,0,0,0,1.658,3.8c1.527,1.19,2.963,1.4,4.041.59a3,3,0,0,0,1.062-3.272c-.5-1.265-2.269-1.825-4.847-1.532A8.961,8.961,0,0,0,81.453,42.323Z" style="fill:#fd852b"/><path d="M69.664,96.417a4,4,0,0,0,0-8c-.121,0-.235.025-.354.036l-1.339,7.576A3.964,3.964,0,0,0,69.664,96.417Z" style="fill:#f8b62b"/><polygon points="65.49 19.057 69.564 15.086 63.934 14.268 62.791 11.95 61.482 14.601 55.853 15.419 59.926 19.39 59.283 23.138 58.965 24.997 63.025 22.862 64 22.35 66.259 23.538 65.49 19.057" style="fill:#fd748c"/><polygon points="22.141 15.735 22.174 13.088 19.737 14.907 14.35 13.08 16.177 18.468 13.893 21.528 12.774 23.027 17.42 22.968 18.463 22.954 19.985 25.107 21.353 20.708 26.785 19.02 22.141 15.735" style="fill:#2ec3fc"/><polygon points="105.859 15.735 105.826 13.088 108.263 14.907 113.65 13.08 111.823 18.468 114.107 21.528 115.226 23.027 110.58 22.968 109.537 22.954 108.015 25.107 106.647 20.708 101.215 19.02 105.859 15.735" style="fill:#1ba4fc"/><path d="M81.149,73.6a1.75,1.75,0,0,0-2.26,1.01L73.67,88.267a5.748,5.748,0,1,0-4.006,9.866c.081,0,.159-.009.239-.012L64,113.564,54.838,89.6a9.746,9.746,0,1,0-6.956-18.2L45.19,64.358a34.017,34.017,0,0,0,5.88,1.711,1.767,1.767,0,0,0,.355.036,1.75,1.75,0,0,0,.351-3.464c-5-1.03-7.612-2.448-8.577-3.492l-.41-1.072c.355-1.126,3.325-2.974,9.212-4.161a27.692,27.692,0,0,1-.389,4.044,1.75,1.75,0,0,0,3.434.678c.081-.409,1.936-10.1-2.363-15.977a10.2,10.2,0,0,0-2.955-2.732,14.558,14.558,0,0,0-.6-1.924C46.382,30.913,37.735,23.442,29.7,24.054a1.75,1.75,0,0,0,.268,3.49c6.03-.447,12.943,5.235,15.557,10.914-.163-.023-.328-.046-.495-.064-6.059-.686-7.957,2.375-8.492,3.721a6.513,6.513,0,0,0,2.216,7.362c2.389,1.79,5.488,1.556,8.292-.631a7.557,7.557,0,0,0,2.752-4.2l.06.081a12.112,12.112,0,0,1,1.984,5.655c-7.9,1.488-12.435,4.277-12.574,7.759,0,.045-.011.089-.012.134,0,.01,0,.019,0,.029A4.375,4.375,0,0,0,40.1,60.84l22.267,58.251a1.75,1.75,0,0,0,3.27,0L82.159,75.864A1.75,1.75,0,0,0,81.149,73.6ZM67.414,92.383a2.25,2.25,0,1,1,2.25,2.25A2.253,2.253,0,0,1,67.414,92.383ZM44.89,46.086c-1.526,1.188-2.961,1.4-4.041.59a3,3,0,0,1-1.061-3.271c.415-1.046,1.693-1.608,3.58-1.608a11.27,11.27,0,0,1,1.267.075,8.948,8.948,0,0,1,1.914.417A4.361,4.361,0,0,1,44.89,46.086Zm6.777,28.047a6.246,6.246,0,0,1,1.92,12.191L49.139,74.689A6.165,6.165,0,0,1,51.666,74.133Z" style="fill:#2a1624"/><path d="M83.406,67.7a1.751,1.751,0,0,0-2.259,1.01l-.309.808a1.75,1.75,0,0,0,3.269,1.25l.309-.808A1.75,1.75,0,0,0,83.406,67.7Z" style="fill:#2a1624"/><path d="M81.068,51.605a1.75,1.75,0,1,0-1.081,3.328c4.163,1.352,5.263,2.793,5.263,3.365,0,1.86-7.5,5.482-21.25,5.482-1.982,0-3.952-.082-5.853-.243a1.75,1.75,0,0,0-.3,3.488c2,.169,4.068.255,6.148.255,12.3,0,24.75-3.085,24.75-8.982C88.75,56.384,87.417,53.668,81.068,51.605Z" style="fill:#2a1624"/><path d="M56.1,17.116l5.63-.817a1.747,1.747,0,0,0,1.318-.957L64,13.42l.948,1.922a1.747,1.747,0,0,0,1.318.957l2.121.309-1.535,1.5a1.75,1.75,0,0,0-.5,1.549l.362,2.111-1.9-1a1.753,1.753,0,0,0-1.629,0l-1.9,1,.362-2.111a1.75,1.75,0,1,0-3.449-.592l-.962,5.607a1.75,1.75,0,0,0,2.539,1.845L64,24.293l4.221,2.219a1.75,1.75,0,0,0,2.539-1.845l-.806-4.7,3.415-3.33a1.75,1.75,0,0,0-.97-2.984l-4.719-.685-2.11-4.276a1.75,1.75,0,0,0-3.139,0l-2.11,4.276-4.719.685a1.75,1.75,0,1,0,.5,3.463Z" style="fill:#2a1624"/><path d="M64,60.049a1.75,1.75,0,0,0,1.75-1.75V30.45a1.75,1.75,0,1,0-3.5,0V49.343c-.866.02-1.725.05-2.565.1a1.75,1.75,0,0,0,.1,3.5l.1,0c.773-.045,1.563-.074,2.36-.093V58.3A1.75,1.75,0,0,0,64,60.049Z" style="fill:#2a1624"/><path d="M30.6,20.717a1.75,1.75,0,0,0-.718-1.7l-3.893-2.753.061-4.769a1.75,1.75,0,0,0-2.8-1.425L19.428,12.92l-4.517-1.531a1.75,1.75,0,0,0-2.219,2.22l1.532,4.516-2.852,3.822a1.75,1.75,0,0,0-.157,1.842,1.7,1.7,0,0,0,1.582.955l4.768-.061,2.753,3.894a1.751,1.751,0,0,0,1.428.739,1.73,1.73,0,0,0,.274-.021,1.75,1.75,0,0,0,1.4-1.209l1.416-4.554,4.554-1.416A1.749,1.749,0,0,0,30.6,20.717Zm-7.681-.256a1.752,1.752,0,0,0-1.152,1.151l-.636,2.047-1.237-1.75a1.75,1.75,0,0,0-1.429-.739H18.44L16.3,21.2l1.281-1.717a1.751,1.751,0,0,0,.255-1.609l-.688-2.029,2.029.689a1.749,1.749,0,0,0,1.609-.255L22.5,14.994l-.027,2.143a1.75,1.75,0,0,0,.74,1.451l1.749,1.237Z" style="fill:#2a1624"/><path d="M116.628,21.946l-2.852-3.822,1.532-4.516a1.75,1.75,0,0,0-2.219-2.22l-4.517,1.531-3.821-2.852a1.75,1.75,0,0,0-2.8,1.425l.061,4.769-3.893,2.753a1.75,1.75,0,0,0,.491,3.1l4.554,1.416,1.415,4.554a1.75,1.75,0,0,0,1.4,1.209,1.73,1.73,0,0,0,.274.021,1.751,1.751,0,0,0,1.428-.739l2.753-3.894,4.768.061a1.681,1.681,0,0,0,1.582-.955A1.75,1.75,0,0,0,116.628,21.946Zm-7.068-.776a1.708,1.708,0,0,0-1.451.739l-1.237,1.75-.636-2.047a1.752,1.752,0,0,0-1.152-1.151l-2.046-.636,1.749-1.237a1.75,1.75,0,0,0,.74-1.451l-.027-2.143,1.717,1.281a1.746,1.746,0,0,0,1.609.255l2.029-.689-.688,2.029a1.751,1.751,0,0,0,.255,1.609L111.7,21.2Z" style="fill:#2a1624"/><path d="M98.3,24.054c-8.033-.587-16.686,6.859-19.432,13.952a14.556,14.556,0,0,0-.6,1.924,10.2,10.2,0,0,0-2.955,2.732,15.548,15.548,0,0,0-2.608,7.181c-.759-.095-1.529-.18-2.311-.249a1.75,1.75,0,0,0-.308,3.486c.817.072,1.616.164,2.4.266a30.435,30.435,0,0,0,.461,5.293,1.75,1.75,0,0,0,3.434-.678c-.017-.086-1.636-8.608,1.759-13.238l.06-.081a7.559,7.559,0,0,0,2.752,4.2c2.8,2.185,5.9,2.423,8.292.631a6.514,6.514,0,0,0,2.216-7.362c-.534-1.346-2.43-4.406-8.492-3.721-.167.019-.332.041-.495.064,2.614-5.679,9.535-11.364,15.557-10.914a1.769,1.769,0,0,0,1.879-1.611A1.751,1.751,0,0,0,98.3,24.054ZM83.367,41.872c2.578-.293,4.345.267,4.847,1.532a3,3,0,0,1-1.062,3.272c-1.078.808-2.514.6-4.041-.59a4.361,4.361,0,0,1-1.658-3.8A8.961,8.961,0,0,1,83.367,41.872Z" style="fill:#2a1624"/></svg>