<svg id="Layer_1" data-name="Layer 1" xmlns="http://www.w3.org/2000/svg" viewBox="0 0 128 128"><title>PARTY DATE</title><rect x="16.271" y="20.4" width="95.458" height="26.094" style="fill:#fd748c"/><rect x="16.271" y="46.494" width="95.458" height="72.006" style="fill:#feded6"/><path d="M64,57.471s-17.309,45.27-17.309,45.67c0,2.868,7.75,5.193,17.309,5.193s17.309-2.325,17.309-5.193C81.309,102.741,64,57.471,64,57.471Z" style="fill:#2ec3fc"/><path d="M34.975,31.3s11.715.167,11.715-10.9l-13.024-.233Z" style="fill:#ec4d85"/><path d="M92.9,31.3s11.716.167,11.716-10.9l-13.024-.233Z" style="fill:#ec4d85"/><path d="M34.975,31.3h0a4.538,4.538,0,0,1-4.538-4.538V14.039A4.538,4.538,0,0,1,34.975,9.5h0a4.539,4.539,0,0,1,4.538,4.539V26.762A4.539,4.539,0,0,1,34.975,31.3Z" style="fill:#f8b62b"/><path d="M93.025,31.3h0a4.539,4.539,0,0,1-4.538-4.538V14.039A4.539,4.539,0,0,1,93.025,9.5h0a4.538,4.538,0,0,1,4.538,4.539V26.762A4.538,4.538,0,0,1,93.025,31.3Z" style="fill:#f8b62b"/><rect x="100" y="20.4" width="11.729" height="26.094" style="fill:#ec4d85"/><rect x="100" y="46.494" width="11.729" height="72.006" style="fill:#f6c6bb"/><path d="M33.039,9.949a4.527,4.527,0,0,0-2.6,4.09V26.762a4.527,4.527,0,0,0,2.6,4.09,4.527,4.527,0,0,0,2.6-4.09V14.039A4.527,4.527,0,0,0,33.039,9.949Z" style="fill:#f9d12f"/><path d="M91.008,9.949a4.527,4.527,0,0,0-2.6,4.09V26.762a4.527,4.527,0,0,0,2.6,4.09,4.527,4.527,0,0,0,2.6-4.09V14.039A4.527,4.527,0,0,0,91.008,9.949Z" style="fill:#f9d12f"/><path d="M64,95.632c-5.611,0-10.593-.8-13.755-2.043h0c-2.083,5.506-3.554,9.436-3.554,9.552,0,2.868,7.75,5.193,17.309,5.193s17.309-2.325,17.309-5.193c0-.117-1.471-4.046-3.554-9.552h0C74.593,94.83,69.61,95.632,64,95.632Z" style="fill:#f9d12f"/><path d="M70.088,108c6.552-.74,11.221-2.632,11.221-4.856,0-.379-15.546-41.057-17.17-45.305Z" style="fill:#1ba4fc"/><path d="M81.282,103.044c-.009-.028-.02-.06-.033-.1l-.02-.058-.054-.153-.027-.077-.086-.24-.018-.051-.135-.37-.022-.061-.139-.378-.035-.1-.154-.415-.041-.112c-.2-.532-.428-1.15-.688-1.841l-.1-.257-.208-.553-.041-.109c-.5-1.334-1.086-2.883-1.729-4.584A33.874,33.874,0,0,1,68.6,95.439L70.088,108h0a39.828,39.828,0,0,0,4.5-.754l.023-.005c.305-.071.6-.146.888-.223l.2-.056c.271-.075.537-.151.791-.23l.137-.045c.455-.145.878-.3,1.275-.46.094-.038.193-.075.283-.114.157-.067.3-.137.448-.206.125-.06.249-.12.366-.181s.245-.13.36-.2c.133-.077.258-.156.378-.236.085-.056.175-.11.253-.167a5.009,5.009,0,0,0,.5-.41c.046-.043.08-.087.122-.131a3.215,3.215,0,0,0,.278-.325c.039-.053.073-.107.106-.16a2.116,2.116,0,0,0,.166-.327c.02-.049.043-.1.058-.148a1.644,1.644,0,0,0,.081-.481.383.383,0,0,0-.016-.061Z" style="fill:#f8b62b"/><circle cx="64" cy="60.533" r="3.872" style="fill:#f8b62b"/><path d="M60.127,60.533a3.858,3.858,0,0,0,1.6,3.12l.026,0a3.864,3.864,0,0,0,2.276-6.992l-.026,0A3.873,3.873,0,0,0,60.127,60.533Z" style="fill:#f9d12f"/><path d="M60.142,67.539a1.754,1.754,0,0,0-2.259,1.011C44.94,102.443,44.94,102.624,44.94,103.106c0,4.77,9.88,6.942,19.06,6.942s19.06-2.173,19.06-6.942c0-.464,0-.665-14.675-39.1a5.674,5.674,0,1,0-3.008,1.934c8.2,21.478,13.259,34.828,14.124,37.263-.669,1.036-5.853,3.343-15.5,3.343-9.7,0-14.885-2.331-15.508-3.331.274-.777,1.052-2.877,2.786-7.468A46.088,46.088,0,0,0,64,97.348a55.479,55.479,0,0,0,6.967-.424,1.75,1.75,0,0,0-.441-3.473,51.818,51.818,0,0,1-6.525.4,43.646,43.646,0,0,1-11.479-1.383c1.93-5.092,4.7-12.363,8.631-22.667A1.75,1.75,0,0,0,60.142,67.539Zm1.736-7.04A2.122,2.122,0,1,1,64,62.621,2.125,2.125,0,0,1,61.878,60.5Z" style="fill:#2a1624"/><path d="M49.667,37.455a1.75,1.75,0,0,0,0,3.5H89.258a1.75,1.75,0,0,0,0-3.5Z" style="fill:#2a1624"/><path d="M38.742,37.455a1.75,1.75,0,0,0,0,3.5h2.425a1.75,1.75,0,0,0,0-3.5Z" style="fill:#2a1624"/><path d="M111.728,18.616H105.75a1.75,1.75,0,0,0,0,3.5h4.228v94.6H16.271a1.75,1.75,0,0,0,0,3.5h95.457a1.75,1.75,0,0,0,1.75-1.75v-98.1A1.75,1.75,0,0,0,111.728,18.616Z" style="fill:#2a1624"/><path d="M48.75,22.116H86.736v4.611a6.289,6.289,0,0,0,12.577,0V14a6.289,6.289,0,0,0-12.577,0v4.612H48.75a1.75,1.75,0,0,0,0,3.5ZM90.236,14a2.789,2.789,0,0,1,5.577,0V26.728a2.789,2.789,0,0,1-5.577,0Z" style="fill:#2a1624"/><path d="M16.271,110.049a1.75,1.75,0,0,0,1.75-1.75V48.21h83.542a1.75,1.75,0,0,0,0-3.5H18.021V22.116H28.686v4.611a6.289,6.289,0,0,0,12.577,0V14a6.289,6.289,0,0,0-12.577,0v4.612H16.271a1.75,1.75,0,0,0-1.75,1.75V108.3A1.75,1.75,0,0,0,16.271,110.049Zm18.7-98.833A2.792,2.792,0,0,1,37.764,14V26.728a2.789,2.789,0,0,1-5.577,0V14A2.792,2.792,0,0,1,34.976,11.216Z" style="fill:#2a1624"/></svg>