<svg id="Layer_1" data-name="Layer 1" xmlns="http://www.w3.org/2000/svg" viewBox="0 0 128 128"><title>PIZZA</title><path d="M64,9.5s-46.148,91.368-46.148,92.3c0,6.2,20.661,16.7,46.148,16.7s46.148-10.507,46.148-16.7C110.148,100.868,64,9.5,64,9.5Z" style="fill:#f6c6bb"/><path d="M105.524,92.2C93.834,68.568,64,9.5,64,9.5S34.166,68.568,22.476,92.2C29.958,97.534,45.739,102.928,64,102.928S98.042,97.534,105.524,92.2Z" style="fill:#ec4d85"/><path d="M101.2,110.371c-4.238-9.065-35.95-71.936-43.877-87.642C44.541,48.08,17.852,101.09,17.852,101.8c0,6.2,20.661,16.7,46.148,16.7C79.27,118.5,92.8,114.728,101.2,110.371Z" style="fill:#feded6"/><path d="M94.915,97.558C84.1,75.81,63.5,34.963,57.325,22.729L54.668,28l0,.005C44.9,47.381,29.964,77.06,22.476,92.2,29.958,97.534,45.739,102.928,64,102.928A89.75,89.75,0,0,0,94.915,97.558Z" style="fill:#fd748c"/><circle cx="46.333" cy="80.835" r="7.167" style="fill:#ec4d85"/><circle cx="55.527" cy="38.25" r="3.583" style="fill:#672d53"/><polygon points="73.539 56.226 63.928 66.633 60.254 53.599 73.539 56.226" style="fill:#2ec3fc"/><rect x="76.876" y="78.043" width="13.18" height="13.18" transform="translate(-35.398 83.809) rotate(-45)" style="fill:#f9d12f"/><path d="M77.109,40.136a11.447,11.447,0,0,0,2.226-.221C75.574,32.445,72.122,25.6,69.451,20.3a11.391,11.391,0,0,0,7.659,19.835Z" style="fill:#f9d12f"/><path d="M89.739,56.673a1.75,1.75,0,0,0-3.127,1.57c8.232,16.387,13.415,26.769,16.661,33.317-7.672,4.9-22.316,9.584-39.273,9.584a91.729,91.729,0,0,1-18.418-1.864,1.75,1.75,0,1,0-.7,3.428A95.221,95.221,0,0,0,64,104.644c17.4,0,32.6-4.82,40.833-9.93,2.328,4.719,3.244,6.64,3.543,7.317-.716,4.6-19.23,14.685-44.376,14.685s-43.662-10.088-44.376-14.686c.39-.888,1.656-3.495,3.541-7.313a47.188,47.188,0,0,0,5.675,2.974,1.75,1.75,0,1,0,1.426-3.2,42.678,42.678,0,0,1-5.539-2.933C30.807,79.3,41.2,58.595,50.539,40.05a5.327,5.327,0,0,0,4.988,3.5,1.75,1.75,0,0,0,0-3.5,1.833,1.833,0,1,1,1.833-1.833,1.75,1.75,0,1,0,3.5,0,5.339,5.339,0,0,0-5.333-5.333,5.258,5.258,0,0,0-1.5.241C57.789,25.657,61.246,18.8,64,13.349l3.322,6.583a13.138,13.138,0,0,0,9.787,21.919c.408,0,.819-.022,1.228-.061q1.75,3.477,3.566,7.085A1.75,1.75,0,0,0,85.03,47.3C74.811,26.99,65.562,8.677,65.562,8.677a1.751,1.751,0,0,0-3.125,0C38.019,57.023,26.472,80.11,21.009,91.218a1.746,1.746,0,0,0-.172.35C16.1,101.2,16.1,101.511,16.1,101.762c0,8.135,22.552,18.454,47.9,18.454s47.9-10.319,47.9-18.454C111.9,101.129,111.9,100.78,89.739,56.673ZM67.456,28.7a9.627,9.627,0,0,1,1.614-5.3c2.17,4.3,4.745,9.411,7.523,14.928A9.657,9.657,0,0,1,67.456,28.7Z" style="fill:#2a1624"/><path d="M38.682,97.56a1.75,1.75,0,1,0-.99,3.357q.5.146,1,.289a1.729,1.729,0,0,0,.475.066,1.75,1.75,0,0,0,.473-3.435C39.317,97.746,39,97.653,38.682,97.56Z" style="fill:#2a1624"/><path d="M55.25,80.8a8.917,8.917,0,1,0-8.917,8.917A8.927,8.927,0,0,0,55.25,80.8Zm-14.333,0a5.417,5.417,0,1,1,5.416,5.417A5.422,5.422,0,0,1,40.917,80.8Z" style="fill:#2a1624"/><path d="M75.2,55.649a1.75,1.75,0,0,0-1.325-1.175L60.593,51.849a1.75,1.75,0,0,0-2.023,2.191l3.674,13.034a1.751,1.751,0,0,0,2.971.713l9.611-10.408A1.751,1.751,0,0,0,75.2,55.649ZM64.764,63.115l-2.052-7.28,7.42,1.467Z" style="fill:#2a1624"/><path d="M82.228,95.156a1.749,1.749,0,0,0,2.475,0l9.32-9.32a1.749,1.749,0,0,0,0-2.475l-9.32-9.32a1.8,1.8,0,0,0-2.475,0l-9.319,9.32a1.749,1.749,0,0,0,0,2.475Zm1.237-17.4L90.311,84.6l-6.846,6.846L76.621,84.6Z" style="fill:#2a1624"/></svg>