<svg id="Layer_1" data-name="Layer 1" xmlns="http://www.w3.org/2000/svg" viewBox="0 0 128 128"><title>SPARKLER</title><polygon points="103.391 24.609 101.564 29.996 104.967 34.556 99.278 34.483 95.993 39.128 94.305 33.695 88.872 32.006 93.517 28.722 93.444 23.033 98.004 26.436 103.391 24.609" style="fill:#ec4d85"/><polygon points="118.5 61.085 113.399 63.602 112.581 69.232 108.61 65.158 103.003 66.12 105.65 61.085 103.003 56.049 108.61 57.011 112.581 52.937 113.399 58.567 118.5 61.085" style="fill:#1ba4fc"/><polygon points="103.391 97.561 98.004 95.734 93.444 99.136 93.517 93.448 88.872 90.163 94.305 88.474 95.993 83.042 99.278 87.687 104.967 87.614 101.564 92.173 103.391 97.561" style="fill:#ec4d85"/><polygon points="66.915 112.669 64.398 107.568 58.768 106.75 62.842 102.779 61.88 97.172 66.915 99.819 71.951 97.172 70.989 102.779 75.063 106.75 69.433 107.568 66.915 112.669" style="fill:#1ba4fc"/><polygon points="15.331 61.085 20.432 58.567 21.25 52.937 25.221 57.011 30.828 56.049 28.181 61.085 30.828 66.12 25.221 65.158 21.25 69.232 20.432 63.602 15.331 61.085" style="fill:#1ba4fc"/><polygon points="30.439 24.609 35.827 26.436 40.386 23.033 40.313 28.722 44.958 32.006 39.526 33.695 37.837 39.128 34.552 34.483 28.864 34.556 32.266 29.996 30.439 24.609" style="fill:#ec4d85"/><polygon points="66.915 9.5 69.433 14.601 75.063 15.419 70.989 19.39 71.951 24.997 66.915 22.35 61.88 24.997 62.842 19.39 58.768 15.419 64.398 14.601 66.915 9.5" style="fill:#1ba4fc"/><path d="M76.695,53.056a1.744,1.744,0,0,0,1.237-.513L89.791,40.685a1.75,1.75,0,1,0-2.475-2.475L75.458,50.068a1.75,1.75,0,0,0,1.237,2.987Z" style="fill:#fd852b"/><path d="M97.516,59.335H80.746a1.75,1.75,0,0,0,0,3.5h16.77a1.75,1.75,0,0,0,0-3.5Z" style="fill:#fd852b"/><path d="M77.932,69.627A1.75,1.75,0,0,0,75.458,72.1L87.316,83.96a1.75,1.75,0,1,0,2.475-2.475Z" style="fill:#fd852b"/><path d="M66.915,73.165a1.75,1.75,0,0,0-1.75,1.75V91.686a1.75,1.75,0,0,0,3.5,0V74.915A1.75,1.75,0,0,0,66.915,73.165Z" style="fill:#fd852b"/><path d="M53.085,59.335H36.315a1.75,1.75,0,0,0,0,3.5h16.77a1.75,1.75,0,0,0,0-3.5Z" style="fill:#fd852b"/><path d="M46.515,38.21a1.75,1.75,0,1,0-2.475,2.475L55.9,52.543a1.75,1.75,0,1,0,2.475-2.475Z" style="fill:#fd852b"/><path d="M66.915,28.734a1.75,1.75,0,0,0-1.75,1.75V47.255a1.75,1.75,0,1,0,3.5,0V30.484A1.75,1.75,0,0,0,66.915,28.734Z" style="fill:#fd852b"/><rect x="55.636" y="51.498" width="9.288" height="32.443" rx="4.5" ry="4.5" transform="translate(55.019 158.23) rotate(-135)" style="fill:#f8b62b"/><polygon points="68.322 19.015 72.396 15.044 66.766 14.226 65.674 12.014 64.398 14.601 58.768 15.419 62.842 19.39 62.215 23.044 61.88 24.997 65.939 22.863 66.915 22.35 69.09 23.493 68.322 19.015" style="fill:#2ec3fc"/><polygon points="97.903 32.608 103.567 32.68 101.564 29.996 101.572 29.974 100.189 28.121 101.119 25.379 98.004 26.436 93.444 23.033 93.517 28.722 90.294 31.001 88.872 32.006 93.428 33.423 94.305 33.695 95.169 36.474 97.903 32.608" style="fill:#fd748c"/><polygon points="113.399 58.567 113.396 58.551 111.065 57.4 110.697 54.869 108.61 57.011 103.003 56.049 105.65 61.085 103.908 64.398 103.003 66.12 107.585 65.334 108.61 65.158 110.402 66.998 111.065 62.436 116.151 59.926 113.399 58.567" style="fill:#2ec3fc"/><polygon points="100.772 89.757 102.346 87.647 99.278 87.687 95.993 83.042 94.305 88.474 90.696 89.596 88.872 90.163 92.702 92.871 93.517 93.448 93.483 96.1 97.212 93.317 102.568 95.133 101.564 92.173 101.583 92.147 100.772 89.757" style="fill:#fd748c"/><polygon points="67.683 105.86 73.31 105.042 70.989 102.779 70.989 102.777 69.239 101.071 69.705 98.353 66.915 99.819 61.88 97.172 62.842 102.779 60.066 105.485 58.768 106.75 63.42 107.426 64.398 107.568 65.618 110.042 67.683 105.86" style="fill:#2ec3fc"/><path d="M52.525,76.543,69.1,59.966a4.5,4.5,0,0,0,1-4.822,4.5,4.5,0,0,0-4.822,1L48.708,72.725a4.5,4.5,0,0,0-1,4.822A4.5,4.5,0,0,0,52.525,76.543Z" style="fill:#f9d12f"/><polygon points="40.313 28.722 40.314 28.706 38.313 27.291 38.348 24.554 35.827 26.436 30.439 24.609 32.266 29.996 29.961 33.086 28.864 34.556 33.573 34.495 34.552 34.483 36.139 36.726 37.526 32.265 42.942 30.581 40.313 28.722" style="fill:#fd748c"/><polygon points="29.661 63.912 27.014 58.877 28.269 56.488 25.221 57.011 21.25 52.937 20.432 58.567 16.984 60.269 15.331 61.085 19.521 63.153 20.432 63.602 20.819 66.269 24.054 62.95 29.661 63.912" style="fill:#2ec3fc"/><path d="M63.021,71.513a1.749,1.749,0,0,0-2.475,0l-6.509,6.508a2.814,2.814,0,0,1-3.891,0l-.2-.2a2.754,2.754,0,0,1,0-3.89L66.522,57.351a2.754,2.754,0,0,1,3.888,0l.2.205a2.754,2.754,0,0,1,0,3.89l-1.526,1.526a1.75,1.75,0,0,0,2.475,2.475l1.527-1.526a6.258,6.258,0,0,0,0-8.838l-.205-.205a6.257,6.257,0,0,0-8.838,0L47.47,71.453a6.259,6.259,0,0,0,0,8.841l.2.2a6.249,6.249,0,0,0,8.839,0l6.508-6.508A1.749,1.749,0,0,0,63.021,71.513Z" style="fill:#2a1624"/><path d="M66.98,70.028l.75-.75A1.75,1.75,0,0,0,65.255,66.8l-.75.75a1.75,1.75,0,1,0,2.475,2.475Z" style="fill:#2a1624"/><path d="M42.846,82.646,8.263,117.229a1.75,1.75,0,1,0,2.475,2.475L45.321,85.12a1.75,1.75,0,0,0-2.475-2.475Z" style="fill:#2a1624"/><path d="M88.353,33.644l4.554,1.416,1.416,4.554a1.75,1.75,0,0,0,1.4,1.209,1.72,1.72,0,0,0,.274.021,1.751,1.751,0,0,0,1.428-.739l2.753-3.895,4.768.062a1.75,1.75,0,0,0,1.425-2.8l-2.852-3.822,1.532-4.516a1.75,1.75,0,0,0-2.219-2.22l-4.516,1.531L94.491,21.6a1.75,1.75,0,0,0-2.8,1.425l.061,4.768-3.894,2.754a1.75,1.75,0,0,0,.491,3.1Zm6.175-3.527a1.75,1.75,0,0,0,.739-1.451l-.027-2.143L96.958,27.8a1.745,1.745,0,0,0,1.608.255l2.029-.688L99.907,29.4a1.751,1.751,0,0,0,.255,1.609l1.282,1.717L99.3,32.7a1.714,1.714,0,0,0-1.451.739l-1.238,1.751-.636-2.047a1.75,1.75,0,0,0-1.151-1.151l-2.046-.637Z" style="fill:#2a1624"/><path d="M76.695,53.022a1.744,1.744,0,0,0,1.237-.513L89.791,40.65a1.75,1.75,0,1,0-2.475-2.475L75.458,50.034a1.75,1.75,0,0,0,1.237,2.987Z" style="fill:#2a1624"/><path d="M119.274,59.481,115,57.371l-.686-4.72a1.75,1.75,0,0,0-2.985-.97l-3.971,4.073a1.75,1.75,0,1,0,2.506,2.443l1.5-1.534.308,2.121a1.751,1.751,0,0,0,.958,1.317l1.921.948L112.624,62a1.751,1.751,0,0,0-.958,1.317l-.308,2.121-1.5-1.535a1.739,1.739,0,0,0-1.549-.5l-2.112.362,1-1.9a1.75,1.75,0,0,0,0-1.629L104.552,55.2a1.75,1.75,0,1,0-3.1,1.629l2.219,4.221-2.219,4.221a1.75,1.75,0,0,0,1.845,2.539L108,67l3.328,3.415a1.751,1.751,0,0,0,2.985-.97L115,64.73l4.276-2.11a1.75,1.75,0,0,0,0-3.139Z" style="fill:#2a1624"/><path d="M99.266,61.051a1.75,1.75,0,0,0-1.75-1.75H80.746a1.75,1.75,0,0,0,0,3.5h16.77A1.75,1.75,0,0,0,99.266,61.051Z" style="fill:#2a1624"/><path d="M104.967,85.83h-.022l-4.768.061L97.422,82a1.75,1.75,0,0,0-3.1.491l-1.416,4.554-4.554,1.416a1.75,1.75,0,0,0-.491,3.1l3.893,2.753-.061,4.769a1.75,1.75,0,0,0,2.8,1.425l3.822-2.852,4.516,1.531a1.75,1.75,0,0,0,2.219-2.22l-1.532-4.516,2.852-3.821a1.75,1.75,0,0,0-1.4-2.8ZM99.907,92.7l.688,2.029-2.029-.688a1.747,1.747,0,0,0-1.608.255L95.24,95.578l.027-2.143a1.749,1.749,0,0,0-.74-1.451l-1.749-1.237,2.046-.636a1.75,1.75,0,0,0,1.151-1.151l.637-2.047,1.237,1.75A1.667,1.667,0,0,0,99.3,89.4l2.143-.027-1.282,1.717A1.751,1.751,0,0,0,99.907,92.7Z" style="fill:#2a1624"/><path d="M75.458,72.067,87.316,83.926a1.75,1.75,0,1,0,2.475-2.475L77.932,69.593a1.75,1.75,0,0,0-2.475,2.475Z" style="fill:#2a1624"/><path d="M72.869,102.134l.806-4.7a1.75,1.75,0,0,0-2.539-1.845l-4.221,2.219-4.221-2.219a1.75,1.75,0,0,0-2.539,1.845l.806,4.7-3.415,3.329a1.749,1.749,0,0,0,.97,2.984l4.719.687,2.11,4.276a1.75,1.75,0,0,0,3.139,0l2.111-4.276,4.719-.687a1.749,1.749,0,0,0,.97-2.984ZM69.181,105.8a1.747,1.747,0,0,0-1.317.957l-.949,1.922-.948-1.922a1.747,1.747,0,0,0-1.317-.957l-2.121-.309,1.535-1.5a1.749,1.749,0,0,0,.5-1.549l-.362-2.112,1.9,1a1.753,1.753,0,0,0,1.629,0l1.9-1-.362,2.112a1.749,1.749,0,0,0,.5,1.549l1.535,1.5Z" style="fill:#2a1624"/><path d="M66.915,93.4a1.75,1.75,0,0,0,1.75-1.75V74.881a1.75,1.75,0,0,0-3.5,0V91.651A1.75,1.75,0,0,0,66.915,93.4Z" style="fill:#2a1624"/><path d="M14.556,62.62l4.276,2.11.686,4.72a1.75,1.75,0,0,0,2.985.97L25.832,67l4.7.806a1.75,1.75,0,0,0,1.845-2.539l-2.219-4.221,2.219-4.221a1.75,1.75,0,0,0-1.844-2.539l-4.7.806L22.5,51.682a1.75,1.75,0,0,0-2.985.97l-.686,4.72-4.276,2.11a1.75,1.75,0,0,0,0,3.139Zm6.65-2.518a1.751,1.751,0,0,0,.958-1.317l.308-2.121,1.5,1.534a1.736,1.736,0,0,0,1.548.5l2.113-.362-1,1.9a1.751,1.751,0,0,0,0,1.629l1,1.9L25.517,63.4a1.741,1.741,0,0,0-1.549.5l-1.5,1.535-.308-2.121A1.751,1.751,0,0,0,21.207,62l-1.921-.948Z" style="fill:#2a1624"/><path d="M36.315,59.3a1.75,1.75,0,0,0,0,3.5h16.77a1.75,1.75,0,0,0,0-3.5Z" style="fill:#2a1624"/><path d="M28.886,36.272l4.769-.062L36.408,40.1a1.75,1.75,0,0,0,3.1-.491l1.415-4.554,4.554-1.416a1.75,1.75,0,0,0,.491-3.1L42.075,27.79l.061-4.768a1.75,1.75,0,0,0-2.8-1.425l-3.822,2.852L31,22.917a1.75,1.75,0,0,0-2.219,2.219l1.531,4.517-2.852,3.822a1.751,1.751,0,0,0-.157,1.842A1.708,1.708,0,0,0,28.886,36.272ZM33.923,29.4l-.688-2.03,2.029.688a1.748,1.748,0,0,0,1.608-.255l1.718-1.281-.027,2.143a1.75,1.75,0,0,0,.739,1.451l1.75,1.237-2.047.637a1.752,1.752,0,0,0-1.152,1.151l-.636,2.046-1.237-1.75a1.75,1.75,0,0,0-1.429-.739H34.53l-2.143.027,1.281-1.717A1.749,1.749,0,0,0,33.923,29.4Z" style="fill:#2a1624"/><path d="M57.136,53.022a1.75,1.75,0,0,0,1.237-2.987L46.515,38.176A1.75,1.75,0,1,0,44.04,40.65L55.9,52.509A1.744,1.744,0,0,0,57.136,53.022Z" style="fill:#2a1624"/><path d="M60.961,19.967l-.806,4.7a1.749,1.749,0,0,0,2.539,1.845l4.221-2.219,4.221,2.219a1.75,1.75,0,0,0,1.629-3.1L67.73,20.767a1.753,1.753,0,0,0-1.629,0l-1.9,1,.362-2.111a1.75,1.75,0,0,0-.5-1.549l-1.535-1.5,2.12-.309a1.747,1.747,0,0,0,1.318-.957l.948-1.922.949,1.922a1.748,1.748,0,0,0,1.318.957l2.12.309-1.535,1.5a1.75,1.75,0,1,0,2.443,2.506l4.074-3.972a1.75,1.75,0,0,0-.97-2.984L70.6,12.968,68.484,8.691a1.75,1.75,0,0,0-3.139,0l-2.11,4.276-4.719.685a1.75,1.75,0,0,0-.97,2.984Z" style="fill:#2a1624"/><path d="M65.165,30.45V47.221a1.75,1.75,0,1,0,3.5,0V30.45a1.75,1.75,0,1,0-3.5,0Z" style="fill:#2a1624"/></svg>