<svg id="Layer_1" data-name="Layer 1" xmlns="http://www.w3.org/2000/svg" viewBox="0 0 128 128"><title>WHISKY</title><path d="M73.5,32.8V22.25h-19V32.8a11.245,11.245,0,0,1-9.921,11.167l-5.521.655a9.974,9.974,0,0,0-8.8,9.905v54a9.975,9.975,0,0,0,9.974,9.975H87.768a9.975,9.975,0,0,0,9.975-9.975v-54a9.975,9.975,0,0,0-8.8-9.905l-5.521-.655A11.245,11.245,0,0,1,73.5,32.8Z" style="fill:#f6c6bb"/><path d="M89.493,108.526v-54c0-5.054-3.781-5.135-8.8-5.73l-5.521-4.83A11.245,11.245,0,0,1,65.25,32.8V22.25H54.5V32.8a11.245,11.245,0,0,1-9.921,11.167l-5.521.655a9.974,9.974,0,0,0-8.8,9.905v54a9.975,9.975,0,0,0,9.974,9.975H79.518A9.975,9.975,0,0,0,89.493,108.526Z" style="fill:#feded6"/><path d="M88.59,47.6h0l-5.521-.655A14.283,14.283,0,0,1,71.19,37.165a17.063,17.063,0,0,0-2.509.842,29.673,29.673,0,0,1-13.266,2.2,14.25,14.25,0,0,1-10.483,6.741l-5.521.655a6.977,6.977,0,0,0-6.154,6.926v54a6.983,6.983,0,0,0,6.975,6.975H87.769a6.983,6.983,0,0,0,6.975-6.975v-54A6.977,6.977,0,0,0,88.59,47.6Z" style="fill:#fc6928"/><path d="M86.243,108.525v-54c0-3.533-4.868-7.82-10.7-7.82-4.735,0-6.474-4.05-8.628-8.02a38.637,38.637,0,0,1-11.5,1.519,14.25,14.25,0,0,1-10.483,6.741l-5.521.655a6.977,6.977,0,0,0-6.154,6.926v54a6.983,6.983,0,0,0,6.975,6.975H79.269A6.983,6.983,0,0,0,86.243,108.525Z" style="fill:#fd852b"/><rect x="50.875" y="9.5" width="26.25" height="16.75" style="fill:#672d53"/><path d="M97.743,66.875H77.473C74.485,61.054,69.566,57.25,64,57.25s-10.485,3.8-13.473,9.625H30.257v26.25h20.27c2.988,5.821,7.907,9.625,13.473,9.625s10.485-3.8,13.473-9.625h20.27Z" style="fill:#672d53"/><rect x="86.243" y="66.875" width="11.5" height="26.25" style="fill:#532b47"/><rect x="65.25" y="9.5" width="11.875" height="16.75" style="fill:#532b47"/><path d="M89.148,42.852,83.627,42.2a9.5,9.5,0,0,1-8.377-9.429v-4.8h1.875a1.75,1.75,0,0,0,1.75-1.75V9.466a1.75,1.75,0,0,0-1.75-1.75H50.875a1.75,1.75,0,0,0-1.75,1.75v16.75a1.75,1.75,0,0,0,1.75,1.75H52.75v4.8A9.5,9.5,0,0,1,44.373,42.2l-5.521.655A11.728,11.728,0,0,0,28.507,54.495v54a11.738,11.738,0,0,0,11.725,11.725H46.5a1.75,1.75,0,0,0,0-3.5H40.231a8.234,8.234,0,0,1-8.225-8.225V94.841H49.484c3.435,6.048,8.8,9.625,14.516,9.625s11.08-3.577,14.516-9.625H95.993v13.65a8.234,8.234,0,0,1-8.225,8.225H64a1.75,1.75,0,0,0,0,3.5H87.769a11.738,11.738,0,0,0,11.725-11.725v-54A11.728,11.728,0,0,0,89.148,42.852ZM52.625,11.216h22.75v13.25H52.625ZM71.75,27.966v4.192a22.829,22.829,0,0,0-4.94,1.45,24.863,24.863,0,0,1-10.845,1.828,12.982,12.982,0,0,0,.285-2.667v-4.8Zm5.723,63.375a1.75,1.75,0,0,0-1.557.951c-2.789,5.432-7.243,8.674-11.916,8.674s-9.127-3.243-11.916-8.674a1.75,1.75,0,0,0-1.557-.951H32.007V68.591h18.52a1.75,1.75,0,0,0,1.557-.951c2.788-5.432,7.243-8.674,11.916-8.674s9.128,3.243,11.916,8.674a1.75,1.75,0,0,0,1.557.951H87.75a1.75,1.75,0,0,0,0-3.5H78.516c-3.435-6.048-8.8-9.625-14.516-9.625s-11.08,3.577-14.516,9.625H32.007v-10.6a8.228,8.228,0,0,1,7.257-8.167l5.521-.655a12.984,12.984,0,0,0,9.931-6.8c.828.058,1.65.1,2.454.1a27.76,27.76,0,0,0,11.02-2.143,19.153,19.153,0,0,1,3.9-1.169A12.994,12.994,0,0,0,83.215,45.673l5.521.655a8.228,8.228,0,0,1,7.257,8.167V91.341Z" style="fill:#2a1624"/><path d="M56.125,116.716H55.5a1.75,1.75,0,0,0,0,3.5h.625a1.75,1.75,0,0,0,0-3.5Z" style="fill:#2a1624"/></svg>