<?xml version="1.0" encoding="utf-8"?>
<!-- Generator: Adobe Illustrator 22.1.0, SVG Export Plug-In . SVG Version: 6.00 Build 0)  -->
<svg version="1.1" id="Layer_1" xmlns="http://www.w3.org/2000/svg" xmlns:xlink="http://www.w3.org/1999/xlink" x="0px" y="0px"
	 viewBox="0 0 256 256" style="enable-background:new 0 0 256 256;" xml:space="preserve">
<style type="text/css">
	.st0{fill:#4671C6;}
	.st1{fill:#F9CFCF;}
	.st2{fill:#F9A7A7;}
	.st3{fill:#A4C9FF;}
	.st4{fill:#3762CC;}
	.st5{fill:#E0EBFC;}
	.st6{fill:#6BDDDD;}
	.st7{fill:#B9BEFC;}
	.st8{fill:#FFEA92;}
	.st9{fill:#EAA97D;}
	.st10{fill:#FFEA94;}
	.st11{fill:#FFE164;}
	.st12{fill:#FFDC85;}
	.st13{fill:#FFFFFF;}
	.st14{fill:#383838;}
</style>
<g>
	<g>
		<path class="st2" d="M167.396,225.481H48.834v-23.093c0-16.898,13.698-30.596,30.596-30.596h57.369
			c16.898,0,30.596,13.698,30.596,30.596V225.481z"/>
	</g>
	<g>
		<path class="st1" d="M108.123,172.973c-9.156,0-17.822-2.061-25.568-5.724v2.219c0,14.117,11.444,25.56,25.56,25.56h0
			c14.116,0,25.56-11.443,25.56-25.56v-2.211C125.933,170.914,117.273,172.973,108.123,172.973z"/>
	</g>
	<g>
		<path class="st4" d="M167.396,227.48H48.834c-1.104,0-2-0.896-2-2v-23.093c0-17.974,14.623-32.596,32.597-32.596h1.127
			c-0.006-0.462-0.005-0.973-0.004-1.619l0.001-0.924c0-0.686,0.351-1.323,0.93-1.689c0.58-0.367,1.306-0.412,1.925-0.118
			c7.762,3.67,16.077,5.531,24.713,5.531c8.629,0,16.939-1.859,24.698-5.525c0.619-0.292,1.346-0.247,1.925,0.119
			s0.93,1.004,0.93,1.689l0.001,0.93c0.001,0.641,0.002,1.147-0.004,1.606h1.127c17.974,0,32.596,14.622,32.596,32.596v23.093
			C169.396,226.585,168.5,227.48,167.396,227.48z M50.834,223.48h114.562v-21.093c0-15.768-12.828-28.596-28.596-28.596h-3.234
			c-0.562,0-1.098-0.236-1.477-0.651c-0.379-0.414-0.566-0.97-0.515-1.528c0.044-0.486,0.069-0.876,0.084-1.278
			c-7.464,3.08-15.366,4.639-23.535,4.639c-8.176,0-16.083-1.561-23.55-4.644c0.015,0.404,0.041,0.795,0.084,1.283
			c0.051,0.56-0.136,1.114-0.515,1.529c-0.379,0.414-0.915,0.65-1.477,0.65h-3.234c-15.768,0-28.597,12.828-28.597,28.596V223.48z"
			/>
	</g>
	<g>
		<path class="st1" d="M167.616,91.605v-0.866c-6.984-1.311-13.289-4.542-18.346-9.128c-0.688-0.624-1.774,0.047-1.542,0.946
			c1.396,5.393,3.301,8.347,4.782,9.931c0.581,0.621,0.076,1.64-0.773,1.591c-25.045-1.464-36.78-9.984-42.282-17.649
			c-0.373-0.52-1.144-0.52-1.517,0c-5.502,7.665-17.237,16.185-42.282,17.649c-0.849,0.049-1.354-0.969-0.773-1.591
			c1.481-1.584,3.386-4.537,4.782-9.931c0.233-0.899-0.854-1.569-1.542-0.946c-5.332,4.836-12.054,8.161-19.495,9.32v0.675
			c-10.356-0.208-18.527,8.046-18.527,17.968c0,9.934,8.126,17.987,18.151,17.987c0.658,0,1.307-0.039,1.947-0.107
			c6.139,26.083,29.733,45.519,57.922,45.519c28.19,0,51.783-19.436,57.922-45.519c0.64,0.068,1.289,0.107,1.947,0.107
			c10.024,0,18.151-8.053,18.151-17.987C186.143,99.646,177.967,91.397,167.616,91.605z"/>
	</g>
	<g>
		<path class="st2" d="M123.734,136.506c0,2.896-1.151,5.713-3.276,8.017l0,0c-6.317,6.848-18.519,6.686-24.687,0l0,0
			c-2.125-2.304-3.276-5.12-3.276-8.017H123.734z"/>
	</g>
	<g>
		<path class="st4" d="M147.177,101.427h-4.796c-1.278-1.171-2.975-1.893-4.841-1.893c-3.96,0-7.182,3.222-7.182,7.182v11.969
			c0,3.96,3.222,7.181,7.182,7.181c3.959,0,7.181-3.221,7.181-7.181c0-13.094,0.058-12.447-0.161-13.472h2.617
			C149.678,105.213,149.681,101.427,147.177,101.427z"/>
	</g>
	<g>
		<path class="st4" d="M73.85,101.427h-4.816c-2.501,0-2.505,3.786,0,3.786h2.636c-0.218,1.019-0.161,0.354-0.161,13.472
			c0,3.96,3.222,7.181,7.182,7.181c3.959,0,7.181-3.221,7.181-7.181v-11.969C85.874,100.486,78.444,97.219,73.85,101.427z"/>
	</g>
	<g>
		<path class="st0" d="M118.841,11.233h-2.973c-2.749,0-5.137,1.547-6.341,3.818c-0.356,0.672-1.306,0.672-1.662,0
			c-1.204-2.271-3.591-3.818-6.341-3.818h-2.973c-34.978,0-63.334,28.356-63.334,63.334v15.876c0,0.523,0.424,0.947,0.947,0.947
			c7.292,0,19.928,1.131,31.959-9.78c0.688-0.624,1.774,0.047,1.542,0.946c-1.396,5.393-3.301,8.346-4.782,9.931
			c-0.581,0.621-0.076,1.64,0.773,1.591c25.044-1.464,36.78-9.984,42.282-17.649c0.373-0.52,1.144-0.52,1.517,0
			c5.502,7.665,17.237,16.185,42.282,17.649c0.849,0.05,1.354-0.969,0.773-1.591c-1.481-1.584-3.386-4.537-4.782-9.931
			c-0.233-0.899,0.854-1.569,1.542-0.946c6.7,6.076,15.589,9.78,25.348,9.78h6.611c0.523,0,0.947-0.424,0.947-0.947V74.567
			C182.175,39.589,153.82,11.233,118.841,11.233z"/>
	</g>
	<g>
		<path class="st4" d="M65.597,96.079c-1.147,0-2.187-0.657-2.681-1.711c-0.513-1.095-0.314-2.369,0.507-3.247
			c0.93-0.995,2.151-2.74,3.261-5.713c-10.788,8.211-21.833,8.074-28.658,7.998c-0.653-0.008-1.274-0.016-1.861-0.016
			c-1.625,0-2.947-1.322-2.947-2.947V74.567c0-36.025,29.309-65.334,65.334-65.334h2.973c2.828,0,5.45,1.29,7.171,3.451
			c1.722-2.161,4.344-3.451,7.172-3.451h2.973c36.025,0,65.334,29.309,65.334,65.334v15.876c0,1.625-1.322,2.947-2.947,2.947h-6.61
			c-8.681,0-17.046-2.818-23.915-8c1.111,2.983,2.336,4.733,3.269,5.731c0.821,0.878,1.02,2.152,0.506,3.246
			c-0.52,1.107-1.647,1.787-2.858,1.705c-25.018-1.462-37.111-9.981-42.923-17.329c-5.813,7.349-17.906,15.867-42.923,17.33
			C65.714,96.077,65.655,96.079,65.597,96.079z M68.741,79.367c0.523,0,1.05,0.142,1.527,0.43c1.126,0.681,1.662,1.991,1.334,3.26
			c-0.936,3.616-2.186,6.585-3.728,8.863c23.13-1.829,33.664-10.004,38.439-16.657c0.549-0.767,1.44-1.225,2.383-1.225
			s1.834,0.458,2.384,1.226c4.775,6.652,15.309,14.827,38.438,16.656c-1.542-2.278-2.792-5.247-3.727-8.862
			c-0.329-1.269,0.207-2.579,1.333-3.26c1.12-0.68,2.521-0.546,3.488,0.33c6.586,5.974,15.111,9.263,24.005,9.263h5.557V74.567
			c0-33.819-27.514-61.334-61.334-61.334h-2.973c-1.92,0-3.673,1.056-4.574,2.754c-0.512,0.967-1.508,1.567-2.598,1.567
			s-2.086-0.601-2.598-1.567c-0.9-1.698-2.653-2.754-4.573-2.754h-2.973c-33.82,0-61.334,27.515-61.334,61.334v14.829
			c0.279,0.003,0.564,0.006,0.855,0.01c7.269,0.089,18.238,0.217,28.706-9.277C67.335,79.626,68.034,79.367,68.741,79.367z"/>
	</g>
	<g>
		<path class="st0" d="M186.006,107.455c0.083,0.696,0.137,1.4,0.137,2.118c0,9.934-8.126,17.987-18.151,17.987
			c-0.658,0-1.307-0.039-1.947-0.107c-2.032,8.634-5.986,16.531-11.376,23.244c3.347,17.307,18.572,30.379,36.857,30.379h13.725
			c1.046,0,1.893-0.847,1.893-1.893v-37.951C207.143,126.381,198.519,113.546,186.006,107.455z"/>
	</g>
	<g>
		<path class="st4" d="M205.25,183.077h-13.725c-18.908,0-35.234-13.458-38.82-31.999c-0.112-0.577,0.036-1.174,0.404-1.632
			c5.355-6.669,9.053-14.223,10.989-22.45c0.231-0.98,1.155-1.628,2.156-1.531c0.61,0.064,1.179,0.096,1.738,0.096
			c8.905,0,16.15-7.172,16.15-15.987c0-0.569-0.04-1.186-0.123-1.883c-0.086-0.727,0.231-1.441,0.828-1.865
			c0.597-0.424,1.377-0.489,2.034-0.168c13.731,6.684,22.262,20.315,22.262,35.576v37.951
			C209.144,181.331,207.397,183.077,205.25,183.077z M156.815,151.207c3.565,16.203,18.019,27.87,34.71,27.87h13.618v-37.844
			c0-12.581-6.45-23.931-17.042-30.36c-0.686,10.551-9.666,18.894-20.521,18.683C165.506,137.345,161.811,144.782,156.815,151.207z"
			/>
	</g>
	<g>
		<path class="st0" d="M50.2,127.454c-0.64,0.068-1.289,0.107-1.947,0.107c-10.024,0-18.151-8.053-18.151-17.987
			c0-0.354,0.033-0.7,0.054-1.049c-11.408,6.443-19.116,18.672-19.116,32.709v37.951c0,1.046,0.848,1.893,1.893,1.893h13.725
			c17.633,0,32.419-12.157,36.454-28.544C56.934,145.444,52.421,136.888,50.2,127.454z"/>
	</g>
	<g>
		<path class="st4" d="M26.658,183.077H12.933c-2.146,0-3.893-1.746-3.893-3.893v-37.951c0-14.236,7.714-27.438,20.132-34.45
			c0.637-0.36,1.42-0.343,2.042,0.044c0.621,0.388,0.981,1.084,0.938,1.814l-0.02,0.309c-0.015,0.207-0.03,0.413-0.03,0.623
			c0,8.815,7.245,15.987,16.151,15.987c0.559,0,1.127-0.031,1.738-0.096c1.001-0.099,1.926,0.551,2.156,1.531
			c2.09,8.883,6.404,17.259,12.473,24.223c0.428,0.491,0.59,1.16,0.434,1.793C60.696,170.714,44.907,183.077,26.658,183.077z
			 M13.04,179.077h13.618c16.063,0,30.005-10.655,34.255-26.037c-5.765-6.853-9.971-14.921-12.248-23.484
			c-0.138,0.003-0.275,0.005-0.413,0.005c-10.256,0-18.747-7.639-19.993-17.481c-9.464,6.612-15.22,17.497-15.22,29.154V179.077z"/>
	</g>
	<g>
		<path class="st4" d="M108.123,174.973c-28.157,0-52.366-18.59-59.458-45.417c-0.137,0.004-0.274,0.005-0.411,0.005
			c-11.111,0-20.151-8.966-20.151-19.987c0-5.385,2.129-10.438,5.995-14.226c3.521-3.451,8.094-5.449,13.011-5.716
			c0.301-0.353,0.725-0.602,1.213-0.678c6.894-1.073,13.277-4.125,18.459-8.825c0.966-0.875,2.369-1.009,3.488-0.332
			c1.126,0.681,1.662,1.991,1.334,3.26c-0.937,3.617-2.186,6.586-3.728,8.864c23.128-1.829,33.664-10.005,38.439-16.658
			c0.549-0.767,1.44-1.225,2.383-1.225s1.834,0.458,2.384,1.226c4.775,6.652,15.309,14.828,38.439,16.657
			c-1.542-2.277-2.792-5.247-3.727-8.863c-0.329-1.269,0.207-2.579,1.333-3.26c1.12-0.68,2.521-0.546,3.488,0.33
			c4.899,4.443,10.906,7.433,17.372,8.646c0.55,0.104,1.013,0.426,1.303,0.867c4.861,0.3,9.376,2.292,12.862,5.709
			c3.865,3.787,5.993,8.839,5.993,14.224c0,11.021-9.04,19.987-20.15,19.987c-0.137,0-0.274-0.001-0.412-0.005
			C160.489,156.383,136.279,174.973,108.123,174.973z M50.202,125.454c0.918,0,1.731,0.631,1.945,1.542
			c6.094,25.893,29.112,43.977,55.976,43.977s49.881-18.084,55.976-43.977c0.231-0.98,1.155-1.628,2.156-1.531
			c0.61,0.064,1.179,0.096,1.738,0.096c8.905,0,16.15-7.172,16.15-15.987c0-4.301-1.702-8.338-4.793-11.367
			c-3.118-3.056-7.271-4.697-11.693-4.601c-0.538-0.018-1.057-0.196-1.44-0.571c-0.187-0.183-0.333-0.398-0.435-0.633
			c-5.466-1.242-10.601-3.633-15.079-7.011c1.111,2.983,2.336,4.732,3.268,5.729c0.821,0.88,1.02,2.153,0.507,3.248
			c-0.519,1.106-1.64,1.765-2.855,1.707c-25.021-1.464-37.114-9.983-42.926-17.331c-5.813,7.348-17.906,15.867-42.923,17.331
			c-1.223,0.063-2.339-0.601-2.858-1.708c-0.513-1.094-0.314-2.368,0.506-3.246c0.933-0.997,2.157-2.747,3.269-5.729
			c-4.83,3.646-10.408,6.129-16.365,7.273c-0.083,0.134-0.183,0.257-0.296,0.369c-0.384,0.376-0.913,0.575-1.44,0.571
			c-4.429-0.103-8.574,1.544-11.692,4.599c-3.092,3.03-4.794,7.067-4.794,11.369c0,8.815,7.245,15.987,16.151,15.987
			c0.559,0,1.128-0.031,1.738-0.096C50.062,125.458,50.132,125.454,50.202,125.454z"/>
	</g>
	<g>
		<path class="st3" d="M243.466,147.344c-0.132-2.412-2.127-4.293-4.543-4.293c-2.495,0-106.142,0-104.393,0
			c-2.416,0-4.411,1.88-4.543,4.293c-0.896,16.369-0.945,74.918,42.066,94.278c9.313,4.192,20.034,4.192,29.347,0
			C244.411,222.263,244.362,163.713,243.466,147.344z"/>
	</g>
	<g>
		<path class="st0" d="M171.843,219.519c0-8.555,6.935-15.491,15.491-15.491h0c8.555,0,15.491,6.935,15.491,15.491H171.843z"/>
	</g>
	<g>
		<path class="st4" d="M158.254,187.248c-8.385,0.001-16.078-5.603-18.349-14.078c-0.5-1.867,0.608-3.786,2.475-4.286
			c1.867-0.503,3.787,0.608,4.287,2.476c1.711,6.386,8.299,10.191,14.686,8.479c6.386-1.712,10.189-8.3,8.479-14.687
			c-0.5-1.866,0.608-3.786,2.475-4.286c1.867-0.502,3.786,0.607,4.287,2.476c2.709,10.114-3.314,20.548-13.428,23.259
			C161.525,187.039,159.876,187.248,158.254,187.248z"/>
	</g>
	<g>
		<path class="st4" d="M216.445,187.251c-1.65,0-3.311-0.217-4.947-0.655c-4.899-1.313-8.995-4.455-11.531-8.848
			c-2.537-4.394-3.21-9.511-1.897-14.411c0.5-1.868,2.421-2.973,4.287-2.475c1.867,0.5,2.975,2.42,2.475,4.287
			c-0.829,3.094-0.404,6.324,1.198,9.099c1.602,2.773,4.187,4.757,7.281,5.586c3.093,0.83,6.325,0.403,9.099-1.197
			c2.774-1.602,4.758-4.188,5.587-7.281c0.5-1.867,2.419-2.974,4.287-2.475c1.867,0.5,2.975,2.42,2.475,4.287
			c-1.313,4.899-4.456,8.994-8.849,11.531C222.982,186.388,219.735,187.251,216.445,187.251z"/>
	</g>
	<g>
		<path class="st4" d="M186.727,246.771c-5.285,0-10.571-1.107-15.494-3.323c-43.926-19.773-44.204-78.641-43.242-96.212
			c0.188-3.451,3.035-6.158,6.491-6.184c0.009,0,0.019,0,0.027,0h104.415c3.478,0,6.351,2.716,6.54,6.184l0,0
			c0.961,17.571,0.684,76.439-43.242,96.212C197.298,245.663,192.012,246.771,186.727,246.771z M134.53,145.052
			c-1.354,0-2.472,1.055-2.546,2.402c-0.926,16.929-0.715,73.617,40.89,92.345c8.805,3.965,18.903,3.963,27.706,0
			c41.604-18.727,41.816-75.416,40.89-92.345l0,0c-0.074-1.348-1.192-2.402-2.546-2.402H134.53z"/>
	</g>
	<g>
		<path class="st1" d="M229.602,232.602h-7.679c-4.771,0-8.639-3.868-8.639-8.639v-21.415c0-4.771,3.868-8.639,8.639-8.639h7.679
			c8.482,0,15.358,6.876,15.358,15.358v7.977C244.96,225.726,238.084,232.602,229.602,232.602z"/>
	</g>
	<g>
		<path class="st4" d="M229.602,234.603h-7.679c-5.866,0-10.639-4.772-10.639-10.64v-21.415c0-5.866,4.773-10.639,10.639-10.639
			h7.679c9.571,0,17.358,7.787,17.358,17.358v7.977C246.96,226.815,239.173,234.603,229.602,234.603z M221.923,195.909
			c-3.661,0-6.639,2.979-6.639,6.639v21.415c0,3.661,2.979,6.64,6.639,6.64h7.679c7.366,0,13.358-5.992,13.358-13.358v-7.977
			c0-7.366-5.992-13.358-13.358-13.358H221.923z"/>
	</g>
</g>
</svg>
