<?xml version="1.0" encoding="utf-8"?>
<!-- Generator: Adobe Illustrator 22.1.0, SVG Export Plug-In . SVG Version: 6.00 Build 0)  -->
<svg version="1.1" id="Layer_1" xmlns="http://www.w3.org/2000/svg" xmlns:xlink="http://www.w3.org/1999/xlink" x="0px" y="0px"
	 viewBox="0 0 256 256" style="enable-background:new 0 0 256 256;" xml:space="preserve">
<style type="text/css">
	.st0{fill:#4671C6;}
	.st1{fill:#F9CFCF;}
	.st2{fill:#F9A7A7;}
	.st3{fill:#A4C9FF;}
	.st4{fill:#3762CC;}
	.st5{fill:#E0EBFC;}
	.st6{fill:#6BDDDD;}
	.st7{fill:#B9BEFC;}
	.st8{fill:#FFEA92;}
	.st9{fill:#EAA97D;}
	.st10{fill:#FFEA94;}
	.st11{fill:#FFE164;}
	.st12{fill:#FFDC85;}
	.st13{fill:#FFFFFF;}
	.st14{fill:#383838;}
</style>
<g>
	<g>
		<path class="st3" d="M207.5,248h-159c-4.418,0-8-3.582-8-8V16c0-4.418,3.582-8,8-8h159c4.418,0,8,3.582,8,8v224
			C215.5,244.418,211.918,248,207.5,248z"/>
	</g>
	<g>
		<path class="st1" d="M54.5,230V26c0-2.209,1.791-4,4-4h139c2.209,0,4,1.791,4,4v204c0,2.209-1.791,4-4,4h-139
			C56.291,234,54.5,232.209,54.5,230z"/>
	</g>
	<g>
		<path class="st5" d="M58.5,234c-2.209,0-4-1.791-4-4v-13.917h-14V240c0,4.418,3.582,8,8,8h23.917v-14H58.5z"/>
	</g>
	<g>
		<path class="st5" d="M201.5,230c0,2.209-1.791,4-4,4h-13.917v14H207.5c4.418,0,8-3.582,8-8v-23.917h-14V230z"/>
	</g>
	<g>
		<path class="st5" d="M207.5,8h-23.917v14H197.5c2.209,0,4,1.791,4,4v13.917h14V16C215.5,11.582,211.918,8,207.5,8z"/>
	</g>
	<g>
		<path class="st5" d="M54.5,26c0-2.209,1.791-4,4-4h13.917V8H48.5c-4.418,0-8,3.582-8,8v23.917h14V26z"/>
	</g>
	<g>
		<path class="st4" d="M161.5,51.333h-67c-3.309,0-6-2.691-6-6V22c0-1.104,0.896-2,2-2h75c1.104,0,2,0.896,2,2v23.333
			C167.5,48.642,164.809,51.333,161.5,51.333z M92.5,24v21.333c0,1.103,0.897,2,2,2h67c1.103,0,2-0.897,2-2V24H92.5z"/>
	</g>
	<g>
		<path class="st4" d="M165.5,236h-75c-1.104,0-2-0.896-2-2v-23.333c0-3.309,2.691-6,6-6h67c3.309,0,6,2.691,6,6V234
			C167.5,235.104,166.604,236,165.5,236z M92.5,232h71v-21.333c0-1.103-0.897-2-2-2h-67c-1.103,0-2,0.897-2,2V232z"/>
	</g>
	<g>
		<path class="st4" d="M201.5,130h-147c-1.104,0-2-0.896-2-2s0.896-2,2-2h147c1.104,0,2,0.896,2,2S202.604,130,201.5,130z"/>
	</g>
	<g>
		<path class="st4" d="M128,152.5c-13.51,0-24.5-10.991-24.5-24.5s10.99-24.5,24.5-24.5s24.5,10.991,24.5,24.5
			S141.51,152.5,128,152.5z M128,107.5c-11.304,0-20.5,9.196-20.5,20.5s9.196,20.5,20.5,20.5s20.5-9.196,20.5-20.5
			S139.304,107.5,128,107.5z"/>
	</g>
	<g>
		<circle class="st2" cx="148.203" cy="108" r="12.333"/>
	</g>
	<g>
		<path class="st6" d="M92.919,78.433H78.676V62.615c0-3.414,2.768-6.181,6.181-6.181h1.88c3.414,0,6.181,2.768,6.181,6.181V78.433z
			"/>
	</g>
	<g>
		<path class="st6" d="M105.516,91.233H66.078c-0.573,0-1.038-0.465-1.038-1.038v-7.611c0-2.293,1.859-4.151,4.151-4.151h33.211
			c2.293,0,4.151,1.859,4.151,4.151v7.611C106.554,90.769,106.089,91.233,105.516,91.233z"/>
	</g>
	<g>
		<path class="st0" d="M177.324,186.767h-14.243v-15.819c0-3.414,2.768-6.181,6.181-6.181h1.88c3.414,0,6.181,2.768,6.181,6.181
			V186.767z"/>
	</g>
	<g>
		<path class="st0" d="M189.922,199.567h-39.438c-0.573,0-1.038-0.465-1.038-1.038v-7.611c0-2.293,1.859-4.151,4.151-4.151h33.211
			c2.293,0,4.151,1.859,4.151,4.151v7.611C190.959,199.102,190.495,199.567,189.922,199.567z"/>
	</g>
	<g>
		<path class="st4" d="M207.5,250h-159c-5.514,0-10-4.486-10-10V16c0-5.514,4.486-10,10-10h159c5.514,0,10,4.486,10,10v224
			C217.5,245.514,213.014,250,207.5,250z M48.5,10c-3.309,0-6,2.691-6,6v224c0,3.309,2.691,6,6,6h159c3.309,0,6-2.691,6-6V16
			c0-3.309-2.691-6-6-6H48.5z"/>
	</g>
	<g>
		<path class="st4" d="M197.5,236h-139c-3.309,0-6-2.691-6-6V26c0-3.309,2.691-6,6-6h139c3.309,0,6,2.691,6,6v204
			C203.5,233.309,200.809,236,197.5,236z M58.5,24c-1.103,0-2,0.897-2,2v204c0,1.103,0.897,2,2,2h139c1.103,0,2-0.897,2-2V26
			c0-1.103-0.897-2-2-2H58.5z"/>
	</g>
	<g>
		<path class="st4" d="M72.417,250H48.5c-5.514,0-10-4.486-10-10v-23.917c0-1.104,0.896-2,2-2h14c1.104,0,2,0.896,2,2V230
			c0,1.103,0.897,2,2,2h13.917c1.104,0,2,0.896,2,2v14C74.417,249.104,73.521,250,72.417,250z M42.5,218.083V240
			c0,3.309,2.691,6,6,6h21.917v-10H58.5c-3.309,0-6-2.691-6-6v-11.917H42.5z"/>
	</g>
	<g>
		<path class="st4" d="M207.5,250h-23.917c-1.104,0-2-0.896-2-2v-14c0-1.104,0.896-2,2-2H197.5c1.103,0,2-0.897,2-2v-13.917
			c0-1.104,0.896-2,2-2h14c1.104,0,2,0.896,2,2V240C217.5,245.514,213.014,250,207.5,250z M185.583,246H207.5c3.309,0,6-2.691,6-6
			v-21.917h-10V230c0,3.309-2.691,6-6,6h-11.917V246z"/>
	</g>
	<g>
		<path class="st4" d="M215.5,41.917h-14c-1.104,0-2-0.896-2-2V26c0-1.103-0.897-2-2-2h-13.917c-1.104,0-2-0.896-2-2V8
			c0-1.104,0.896-2,2-2H207.5c5.514,0,10,4.486,10,10v23.917C217.5,41.021,216.604,41.917,215.5,41.917z M203.5,37.917h10V16
			c0-3.309-2.691-6-6-6h-21.917v10H197.5c3.309,0,6,2.691,6,6V37.917z"/>
	</g>
	<g>
		<path class="st4" d="M54.5,41.917h-14c-1.104,0-2-0.896-2-2V16c0-5.514,4.486-10,10-10h23.917c1.104,0,2,0.896,2,2v14
			c0,1.104-0.896,2-2,2H58.5c-1.103,0-2,0.897-2,2v13.917C56.5,41.021,55.604,41.917,54.5,41.917z M42.5,37.917h10V26
			c0-3.309,2.691-6,6-6h11.917V10H48.5c-3.309,0-6,2.691-6,6V37.917z"/>
	</g>
	<g>
		<path class="st4" d="M148.203,122.333c-7.903,0-14.334-6.43-14.334-14.333s6.431-14.333,14.334-14.333s14.333,6.43,14.333,14.333
			S156.106,122.333,148.203,122.333z M148.203,97.667c-5.698,0-10.334,4.636-10.334,10.333s4.636,10.333,10.334,10.333
			c5.697,0,10.333-4.636,10.333-10.333S153.9,97.667,148.203,97.667z"/>
	</g>
	<g>
		<path class="st4" d="M177.324,188.767h-14.243c-1.104,0-2-0.896-2-2v-15.818c0-4.511,3.67-8.182,8.182-8.182h1.88
			c4.512,0,8.182,3.67,8.182,8.182v15.818C179.324,187.871,178.429,188.767,177.324,188.767z M165.081,184.767h10.243v-13.818
			c0-2.306-1.876-4.182-4.182-4.182h-1.88c-2.306,0-4.182,1.876-4.182,4.182V184.767z"/>
	</g>
	<g>
		<path class="st4" d="M189.922,201.567h-39.438c-1.675,0-3.037-1.363-3.037-3.038v-7.611c0-3.392,2.76-6.151,6.151-6.151h33.211
			c3.392,0,6.15,2.759,6.15,6.151v7.611C192.959,200.204,191.597,201.567,189.922,201.567z M151.446,197.567h37.513v-6.649
			c0-1.186-0.965-2.151-2.15-2.151h-33.211c-1.187,0-2.151,0.965-2.151,2.151V197.567z"/>
	</g>
	<g>
		<path class="st4" d="M92.919,80.433H78.676c-1.104,0-2-0.896-2-2V62.615c0-4.511,3.67-8.182,8.182-8.182h1.88
			c4.512,0,8.182,3.67,8.182,8.182v15.818C94.919,79.538,94.023,80.433,92.919,80.433z M80.676,76.433h10.243V62.615
			c0-2.306-1.876-4.182-4.182-4.182h-1.88c-2.306,0-4.182,1.876-4.182,4.182V76.433z"/>
	</g>
	<g>
		<path class="st4" d="M105.517,93.233H66.078c-1.675,0-3.037-1.363-3.037-3.038v-7.611c0-3.392,2.759-6.151,6.15-6.151h33.211
			c3.392,0,6.151,2.759,6.151,6.151v7.611C108.554,91.871,107.191,93.233,105.517,93.233z M67.041,89.233h37.513v-6.649
			c0-1.186-0.965-2.151-2.151-2.151H69.191c-1.186,0-2.15,0.965-2.15,2.151V89.233z"/>
	</g>
</g>
</svg>
