<?xml version="1.0" encoding="utf-8"?>
<!-- Generator: Adobe Illustrator 22.1.0, SVG Export Plug-In . SVG Version: 6.00 Build 0)  -->
<svg version="1.1" id="Layer_1" xmlns="http://www.w3.org/2000/svg" xmlns:xlink="http://www.w3.org/1999/xlink" x="0px" y="0px"
	 viewBox="0 0 256 256" style="enable-background:new 0 0 256 256;" xml:space="preserve">
<style type="text/css">
	.st0{fill:#4671C6;}
	.st1{fill:#F9CFCF;}
	.st2{fill:#F9A7A7;}
	.st3{fill:#A4C9FF;}
	.st4{fill:#3762CC;}
	.st5{fill:#E0EBFC;}
	.st6{fill:#6BDDDD;}
	.st7{fill:#B9BEFC;}
	.st8{fill:#FFEA92;}
	.st9{fill:#EAA97D;}
	.st10{fill:#FFEA94;}
	.st11{fill:#FFE164;}
	.st12{fill:#FFDC85;}
	.st13{fill:#FFFFFF;}
	.st14{fill:#383838;}
</style>
<g>
	<g>
		<path class="st1" d="M137.256,44.428l-37.579,0c-32.172,0-58.252,24.992-58.252,55.821l0,42.813c0,2.061-1.744,3.732-3.894,3.732
			c-5.689,0-10.771,3.986-11.311,9.414c-0.62,6.226,4.473,11.464,10.842,11.464h4.363V178c0,30.829,26.08,55.821,58.252,55.821
			h37.579c35.546,0,64.362-27.613,64.362-61.676l0-66.041C201.618,72.041,172.802,44.428,137.256,44.428z"/>
	</g>
	<g>
		<path class="st4" d="M137.256,235.821H99.677c-33.223,0-60.252-25.938-60.252-57.821v-8.328h-2.363
			c-3.723,0-7.264-1.553-9.714-4.259c-2.355-2.602-3.463-5.941-3.118-9.403c0.626-6.289,6.468-11.216,13.301-11.216
			c1.045,0,1.895-0.776,1.895-1.731v-42.813c0-31.882,27.029-57.82,60.252-57.821h37.579c36.593,0,66.362,28.565,66.362,63.677
			v66.04C203.618,207.256,173.849,235.821,137.256,235.821z M99.677,46.428c-31.018,0.001-56.252,24.146-56.252,53.821v42.813
			c0,3.16-2.645,5.731-5.895,5.731c-4.802,0-8.896,3.344-9.32,7.612c-0.231,2.323,0.516,4.568,2.103,6.322
			c1.693,1.87,4.153,2.943,6.749,2.943h4.363c1.104,0,2,0.896,2,2V178c0,29.677,25.234,53.821,56.252,53.821h37.579
			c34.387,0,62.362-26.771,62.362-59.677v-66.04c0-32.906-27.976-59.677-62.362-59.677H99.677z"/>
	</g>
	<g>
		<path class="st1" d="M137.256,233.821c-40.612,0-42.428,0.44-51.048-1.516v13.782c0,1.069,0.867,1.935,1.935,1.935h71.191
			c1.069,0,1.935-0.867,1.935-1.935v-16.72C153.848,232.23,145.748,233.821,137.256,233.821z"/>
	</g>
	<g>
		<path class="st4" d="M159.335,250.022h-71.19c-2.17,0-3.936-1.766-3.936-3.936v-13.782c0-0.608,0.276-1.184,0.752-1.563
			c0.475-0.38,1.098-0.521,1.69-0.388c6.843,1.553,9.226,1.547,32.137,1.493c5.071-0.012,11.138-0.026,18.468-0.026
			c8.024,0,15.861-1.454,23.295-4.321c0.613-0.236,1.308-0.156,1.852,0.217c0.543,0.373,0.868,0.99,0.868,1.649v16.721
			C163.271,248.257,161.505,250.022,159.335,250.022z M88.209,234.778v11.309l71.126-0.064l-0.054-13.81
			c-7.08,2.396-14.476,3.608-22.025,3.608c-7.326,0-13.39,0.015-18.458,0.026C98.26,235.896,93.929,235.905,88.209,234.778z"/>
	</g>
	<g>
		<path class="st0" d="M236.5,74.828l-0.002,0.005c-5.994-23.05-22.394-42.445-44.449-53.885c0.002-0.003,0.013-0.019,0.013-0.019
			C162.67,4.024,111.813,6.314,78.669,12.942l0.001,0C56.751,17.87,30.35,29.552,12.26,56.56c-0.941,1.405,0.178,3.212,1.989,3.212
			h13.246c0,0-15.121,8.907-16.957,26.764c-0.133,1.291,1.162,2.323,2.535,2.04c11.773-2.428,60.081-11.013,107.104,0.445
			c2.432,0.593,4.139,2.608,4.139,4.927c0,15.158-0.028,3.082,0.187,68.597l11.579,32.002c1.103,3.049,3.567,5.647,7.41,6.984
			c33.329,11.6,30.855,10.799,32.306,11.093l0.001,0.007c6.747,2.616,4.877,1.976,8.506,2.973c0,0,31.916-21.771,43.733-48.707
			c4.438-8.884,6.074-15.113,6.074-15.113C243.661,127.798,241.766,94.948,236.5,74.828z"/>
	</g>
	<g>
		<path class="st4" d="M184.305,217.603c-0.178,0-0.355-0.023-0.53-0.071l-1.277-0.346c-1.675-0.449-1.729-0.471-4.586-1.587
			l-2.708-1.055c-0.953-0.178-0.962-0.181-14.917-5.045l-17.452-6.08c-4.182-1.454-7.247-4.364-8.633-8.192l-11.58-32.002
			c-0.078-0.216-0.118-0.444-0.119-0.674l-0.098-29.629c-0.092-27.519-0.092-27.519-0.09-34.521l0.001-4.453
			c0-1.382-1.074-2.608-2.612-2.983c-46.067-11.226-92.956-3.168-106.227-0.43c-1.316,0.271-2.688-0.097-3.67-0.983
			c-0.925-0.836-1.384-2.01-1.259-3.221c1.243-12.085,8.132-20.223,13.005-24.559h-7.305c-1.638,0-3.115-0.863-3.857-2.254
			c-0.7-1.311-0.622-2.833,0.208-4.071C29.663,26.984,57.9,15.562,78.231,10.991c34.447-6.889,85.149-8.865,114.828,8.204
			c0.063,0.036,0.125,0.076,0.184,0.119c22.683,11.856,39.128,31.846,45.161,54.901c0.011,0.034,0.021,0.07,0.03,0.105
			c5.469,20.893,7.037,54.221-2.421,78.094c-0.262,0.955-1.994,6.984-6.187,15.375c-11.868,27.058-43.073,48.563-44.396,49.465
			C185.096,217.483,184.703,217.603,184.305,217.603z M176.678,210.826l2.688,1.047c2.706,1.057,2.706,1.057,4.167,1.448
			l0.388,0.105c4.832-3.454,31.831-23.506,42.286-47.334c4.32-8.654,5.955-14.758,5.972-14.818c0.021-0.078,0.046-0.156,0.075-0.23
			c9.156-23,7.634-55.279,2.341-75.598c-0.012-0.036-0.022-0.073-0.032-0.11c-5.747-22.1-21.578-41.276-43.435-52.613
			c-0.115-0.06-0.223-0.13-0.323-0.209c-28.754-16.356-78.123-14.331-111.743-7.61c-19.574,4.401-46.81,15.404-65.14,42.77
			c0.001-0.001,0.001-0.002,0.001-0.002c0.015,0,0.104,0.101,0.325,0.101h13.247c0.902,0,1.692,0.604,1.93,1.474
			s-0.138,1.792-0.915,2.25c-0.139,0.082-14.202,8.609-15.97,25.115c0.03,0.012,0.075,0.017,0.128,0.006
			c13.479-2.777,61.104-10.961,107.982,0.461c3.336,0.813,5.665,3.639,5.665,6.87l-0.001,4.454c-0.002,7-0.002,7,0.09,34.507
			l0.097,29.282l11.462,31.675c0.981,2.712,3.12,4.71,6.186,5.776l17.455,6.08c13.165,4.589,13.679,4.768,14.338,4.892l0.252,0.049
			C176.364,210.696,176.526,210.752,176.678,210.826z"/>
	</g>
	<g>
		<circle class="st1" cx="130.742" cy="129.312" r="28.387"/>
	</g>
	<g>
		<path class="st4" d="M42.897,193.048c-1.104,0-2-0.896-2-2s0.896-2,2-2c10.634,0,15.036,0,21.309-10.153
			c0.58-0.939,1.813-1.232,2.752-0.65c0.94,0.58,1.231,1.813,0.65,2.752C60.164,193.048,53.665,193.048,42.897,193.048z"/>
	</g>
	<g>
		<path class="st4" d="M68.949,136.62c-5.35,0-9.703-4.346-9.703-9.688v-16.148c0-5.342,4.352-9.689,9.703-9.689
			c5.349,0,9.701,4.346,9.701,9.689v16.148C78.65,132.274,74.298,136.62,68.949,136.62z"/>
	</g>
	<g>
		<path class="st5" d="M39.017,84.243l-27.548-0.342l-0.082,4.773l27.548,0.342C42.037,89.054,42.122,84.281,39.017,84.243z"/>
	</g>
	<g>
		<path class="st4" d="M38.973,91.016c-0.021,0-0.042,0-0.063,0l-27.548-0.342c-0.532-0.007-1.04-0.226-1.411-0.607
			c-0.37-0.382-0.573-0.896-0.564-1.428l0.083-4.773c0.02-1.092,0.91-1.965,1.999-1.965c0.009,0,0.018,0,0.025,0l27.548,0.343
			c1.597,0.02,2.94,0.796,3.689,2.131c0.786,1.401,0.762,3.202-0.062,4.589C41.893,90.27,40.548,91.016,38.973,91.016z
			 M13.42,86.699l25.539,0.316c0.229-0.007,0.243-0.05,0.271-0.096c0.094-0.158,0.099-0.434,0.012-0.589
			c-0.021-0.038-0.048-0.086-0.25-0.088l0,0l-25.559-0.318L13.42,86.699z"/>
	</g>
	<g>
		<circle class="st5" cx="133.299" cy="136.04" r="12.497"/>
	</g>
	<g>
		<path class="st4" d="M133.299,150.537c-7.994,0-14.497-6.503-14.497-14.497s6.503-14.497,14.497-14.497
			s14.497,6.503,14.497,14.497S141.293,150.537,133.299,150.537z M133.299,125.543c-5.788,0-10.497,4.709-10.497,10.497
			s4.709,10.497,10.497,10.497s10.497-4.709,10.497-10.497S139.087,125.543,133.299,125.543z"/>
	</g>
	<g>
		<path class="st3" d="M246.932,97.176c-0.023-1.085-1.018-1.938-2.205-1.889c-52.426,2.142-79.826,3.171-94.126,3.782v19.269
			c0,0.724-0.171,1.404-0.457,2.02c14.391,0.23,42.042,0.518,95.098,1.256c1.202,0.017,2.182-0.882,2.159-1.979L246.932,97.176z"/>
	</g>
	<g>
		<path class="st4" d="M245.272,123.613c-0.02,0-0.039,0-0.059,0c-28.989-0.403-50.393-0.672-66.194-0.871
			c-13.12-0.164-22.379-0.28-28.908-0.385c-0.677-0.011-1.303-0.364-1.662-0.938c-0.36-0.574-0.405-1.291-0.12-1.905
			c0.181-0.387,0.271-0.783,0.271-1.177v-19.27c0-1.071,0.844-1.952,1.915-1.998c6.429-0.275,15.505-0.634,28.312-1.141
			c15.682-0.621,36.958-1.463,65.817-2.642c1.141-0.061,2.254,0.363,3.063,1.125c0.769,0.723,1.203,1.688,1.225,2.722l0.469,22.457
			c0.021,1.043-0.38,2.034-1.131,2.791C247.492,123.167,246.402,123.613,245.272,123.613z M245.4,119.677h0.011H245.4z
			 M152.601,118.396c6.338,0.095,14.901,0.202,26.47,0.348c15.802,0.198,37.208,0.467,66.198,0.87
			c0.073,0.007,0.103-0.012,0.131-0.026l-0.466-22.28c-0.027-0.013-0.075-0.022-0.127-0.022c-28.86,1.18-50.139,2.021-65.821,2.643
			c-11.578,0.458-20.106,0.795-26.385,1.059v17.353C152.601,118.357,152.601,118.376,152.601,118.396z"/>
	</g>
	<g>
		<path class="st3" d="M145.78,94.075H99.984l-0.138-0.084l-0.015,0c0.466,2.094,0.702,4.28,0.663,6.538l-0.307,17.73
			c-0.098,5.66-1.925,10.927-4.993,15.278c11.904-10.14,11.246-9.482,11.737-10.379h38.848c2.662,0,4.821-2.158,4.821-4.821V98.896
			C150.6,96.233,148.442,94.075,145.78,94.075z"/>
	</g>
	<g>
		<path class="st4" d="M95.195,135.537c-0.483,0-0.967-0.175-1.349-0.522c-0.744-0.68-0.866-1.807-0.286-2.63
			c2.94-4.169,4.54-9.065,4.628-14.16l0.307-17.73c0.035-2.033-0.172-4.075-0.615-6.069c-0.137-0.615,0.024-1.259,0.435-1.737
			c0.409-0.478,1.019-0.75,1.65-0.692c0.15,0.01,0.302,0.037,0.449,0.08h45.366c3.761,0,6.82,3.06,6.82,6.82v19.442
			c0,3.761-3.06,6.82-6.82,6.82h-37.809c-0.673,0.712-2.187,1.998-6.445,5.618l-5.034,4.283
			C96.118,135.379,95.656,135.537,95.195,135.537z M102.232,96.075c0.2,1.488,0.288,2.99,0.263,4.487l-0.307,17.73
			c-0.045,2.611-0.434,5.178-1.146,7.646c2.657-2.263,3.829-3.276,4.027-3.534l0.109-0.207c0.351-0.641,1.023-1.039,1.754-1.039
			h38.848c1.555,0,2.82-1.266,2.82-2.82V98.896c0-1.555-1.266-2.82-2.82-2.82H102.232z"/>
	</g>
	<g>
		<path class="st5" d="M133.299,137.236L133.299,137.236c-2.672,0-4.839-2.166-4.839-4.839v-41.1c0-2.672,2.166-4.839,4.839-4.839
			c2.672,0,4.839,2.166,4.839,4.839v41.1C138.138,135.069,135.971,137.236,133.299,137.236z"/>
	</g>
	<g>
		<path class="st4" d="M133.299,139.235c-3.771,0-6.839-3.067-6.839-6.838V91.297c0-3.771,3.068-6.839,6.839-6.839
			s6.839,3.068,6.839,6.839v41.101C140.138,136.168,137.069,139.235,133.299,139.235z M133.299,88.458
			c-1.565,0-2.839,1.273-2.839,2.839v41.101c0,1.564,1.273,2.838,2.839,2.838s2.839-1.273,2.839-2.838V91.297
			C136.138,89.731,134.864,88.458,133.299,88.458z"/>
	</g>
	<g>
		<path class="st3" d="M12.056,72.888h29.399l-2.884-6.02c-0.989-2.064-3.039-3.383-5.303-3.411c-0.001,0-18.286-0.227-18.287-0.227
			c-1.528-0.019-2.789,1.225-2.816,2.778l-0.119,6.881C12.05,72.889,12.053,72.888,12.056,72.888z"/>
	</g>
	<g>
		<path class="st4" d="M12.047,74.89c-0.536,0-1.05-0.216-1.427-0.598c-0.376-0.383-0.582-0.9-0.573-1.437l0.118-6.881
			c0.047-2.629,2.186-4.744,4.781-4.744c0.021,0,0.04,0,0.061,0l0,0c-0.012,0,4.565,0.057,9.143,0.113l9.144,0.113
			c3.043,0.038,5.756,1.781,7.082,4.548l2.884,6.02c0.297,0.62,0.255,1.349-0.111,1.93c-0.366,0.582-1.005,0.935-1.692,0.935H12.108
			C12.088,74.89,12.067,74.89,12.047,74.89z M14.081,70.889h24.198l-1.512-3.155c-0.664-1.386-2.014-2.258-3.524-2.276l0,0
			c0.012,0-4.565-0.057-9.143-0.113l-9.144-0.113c-0.003,0-0.006,0-0.01,0c-0.425,0-0.774,0.362-0.782,0.813L14.081,70.889z"/>
	</g>
	<g>
		<path class="st5" d="M12.056,72.888c-1.105,0-2,0.895-2,2v66.006l-0.007,1.027c-0.059,3.431,2.643,6.239,6.002,6.235
			c16.246-0.018,35.974-0.823,59.276-3.067c13.899-1.339,24.621-12.897,24.862-26.83l0.307-17.73
			c0.271-15.705-12.379-28.124-28.106-27.626L12.056,72.888z"/>
	</g>
	<g>
		<path class="st4" d="M16.046,150.156c-2.139,0-4.148-0.845-5.658-2.38c-1.547-1.573-2.377-3.665-2.339-5.891l0.007-1.005V74.889
			c0-2.206,1.794-4,4-4l0,0l60.333,0.014c8.126-0.269,15.768,2.705,21.487,8.343c5.698,5.617,8.76,13.188,8.619,21.317l-0.307,17.73
			c-0.26,14.972-11.725,27.347-26.67,28.786c-20.977,2.021-40.983,3.056-59.466,3.077C16.051,150.156,16.048,150.156,16.046,150.156
			z M12.056,74.889h-0.003l0.003,66.006l-0.007,1.04c-0.021,1.164,0.403,2.235,1.19,3.036c0.752,0.765,1.749,1.186,2.807,1.186
			c0.001,0,0.002,0,0.003,0c18.355-0.021,38.235-1.05,59.087-3.06c12.918-1.243,22.829-11.937,23.053-24.872l0.307-17.73
			c0.122-7.024-2.516-13.56-7.427-18.399c-4.933-4.862-11.548-7.408-18.616-7.193L12.056,74.889z"/>
	</g>
	<g>
		<path class="st6" d="M63.198,78.248l0.026-0.043H10.495l0,0.043h-0.439c-0.804,0-1.457,0.652-1.457,1.457v59.735
			c0,0.804,0.652,1.457,1.457,1.457h0l4.938-0.021c3.119,0.034,6.433,0.023,9.942-0.043l0.165-0.001l0.002-0.002
			c10.873-0.21,23.609-0.953,38.271-2.571c10.262-1.133,18.184-10.771,18.381-22.349l0.251-14.749
			C82.216,88.833,73.906,78.932,63.198,78.248z"/>
	</g>
	<g>
		<path class="st4" d="M10.064,142.896c-1.914,0-3.465-1.551-3.465-3.457V79.704c0-1.905,1.551-3.456,3.456-3.456h0.034
			c0.131-0.028,0.267-0.043,0.405-0.043h52.729c0.195,0,0.386,0.028,0.567,0.082c11.594,1.009,20.436,11.85,20.214,24.907
			l-0.251,14.748c-0.215,12.61-8.883,23.059-20.162,24.304c-13.387,1.477-26.288,2.345-38.347,2.58
			c-0.044,0.003-0.089,0.005-0.134,0.005l-0.165,0.001c-3.365,0.063-6.731,0.079-9.976,0.043L10.064,142.896z M25.101,140.831h0.01
			H25.101z M10.6,80.245v58.649l4.385-0.02c3.235,0.036,6.561,0.021,9.913-0.043h0.084c0.027-0.002,0.055-0.003,0.083-0.004
			c11.968-0.229,24.783-1.091,38.089-2.559c9.284-1.024,16.421-9.793,16.602-20.396l0.251-14.748
			c0.189-11.091-7.25-20.264-16.935-20.882c-0.097-0.006-0.192-0.02-0.285-0.039H10.9C10.803,80.227,10.702,80.239,10.6,80.245z"/>
	</g>
</g>
</svg>
