<?xml version="1.0" encoding="utf-8"?>
<!-- Generator: Adobe Illustrator 22.1.0, SVG Export Plug-In . SVG Version: 6.00 Build 0)  -->
<svg version="1.1" id="Layer_1" xmlns="http://www.w3.org/2000/svg" xmlns:xlink="http://www.w3.org/1999/xlink" x="0px" y="0px"
	 viewBox="0 0 256 256" style="enable-background:new 0 0 256 256;" xml:space="preserve">
<style type="text/css">
	.st0{fill:#4671C6;}
	.st1{fill:#F9CFCF;}
	.st2{fill:#F9A7A7;}
	.st3{fill:#A4C9FF;}
	.st4{fill:#3762CC;}
	.st5{fill:#E0EBFC;}
	.st6{fill:#6BDDDD;}
	.st7{fill:#B9BEFC;}
	.st8{fill:#FFEA92;}
	.st9{fill:#EAA97D;}
	.st10{fill:#FFEA94;}
	.st11{fill:#FFE164;}
	.st12{fill:#FFDC85;}
	.st13{fill:#FFFFFF;}
	.st14{fill:#383838;}
</style>
<g>
	<g>
		<path class="st1" d="M193.656,8.156c-4.384,0-169.116,0-167.5,0c-6.627,0-12,5.373-12,12c0,4.383,0,169.115,0,167.5
			c0,6.627,5.373,12,12,12c4.384,0,169.116,0,167.5,0c6.627,0,12-5.373,12-12c0-4.383,0-169.115,0-167.5
			C205.656,13.529,200.284,8.156,193.656,8.156z"/>
	</g>
	<g>
		<path class="st0" d="M189.814,190.081H29.999c-3.461,0-6.267-2.806-6.267-6.267V23.999c0-3.461,2.806-6.267,6.267-6.267h159.815
			c3.461,0,6.267,2.806,6.267,6.267v159.815C196.081,187.275,193.275,190.081,189.814,190.081z"/>
	</g>
	<g>
		<rect x="58.201" y="17.731" class="st5" width="34.47" height="34.47"/>
	</g>
	<g>
		<rect x="92.671" y="17.731" class="st0" width="34.47" height="34.47"/>
	</g>
	<g>
		<rect x="127.141" y="17.731" class="st5" width="34.47" height="34.47"/>
	</g>
	<g>
		<rect x="58.201" y="52.201" class="st0" width="34.47" height="34.47"/>
	</g>
	<g>
		<rect x="92.671" y="52.201" class="st5" width="34.47" height="34.47"/>
	</g>
	<g>
		<rect x="127.141" y="52.201" class="st0" width="34.47" height="34.47"/>
	</g>
	<g>
		<rect x="58.201" y="86.671" class="st5" width="34.47" height="34.47"/>
	</g>
	<g>
		<rect x="92.671" y="86.671" class="st0" width="34.47" height="34.47"/>
	</g>
	<g>
		<rect x="127.141" y="86.671" class="st5" width="34.47" height="34.47"/>
	</g>
	<g>
		<rect x="58.201" y="121.141" class="st0" width="34.47" height="34.47"/>
	</g>
	<g>
		<rect x="92.671" y="121.141" class="st5" width="34.47" height="34.47"/>
	</g>
	<g>
		<rect x="127.141" y="121.141" class="st0" width="34.47" height="34.47"/>
	</g>
	<g>
		<rect x="58.201" y="155.611" class="st5" width="34.47" height="34.47"/>
	</g>
	<g>
		<rect x="92.671" y="155.611" class="st0" width="34.47" height="34.47"/>
	</g>
	<g>
		<rect x="127.141" y="155.611" class="st5" width="34.47" height="34.47"/>
	</g>
	<g>
		<rect x="161.611" y="52.201" class="st5" width="34.47" height="34.47"/>
	</g>
	<g>
		<rect x="161.611" y="86.671" class="st0" width="34.47" height="34.47"/>
	</g>
	<g>
		<rect x="161.611" y="121.141" class="st5" width="34.47" height="34.47"/>
	</g>
	<g>
		<rect x="23.731" y="52.201" class="st5" width="34.47" height="34.47"/>
	</g>
	<g>
		<rect x="23.731" y="86.671" class="st0" width="34.47" height="34.47"/>
	</g>
	<g>
		<rect x="23.731" y="121.141" class="st5" width="34.47" height="34.47"/>
	</g>
	<g>
		<path class="st4" d="M92.671,54.201h-34.47c-1.104,0-2-0.896-2-2v-34.47c0-1.104,0.896-2,2-2h34.47c1.104,0,2,0.896,2,2v34.47
			C94.671,53.306,93.776,54.201,92.671,54.201z M60.201,50.201h30.47v-30.47h-30.47V50.201z"/>
	</g>
	<g>
		<path class="st4" d="M127.141,54.201h-34.47c-1.104,0-2-0.896-2-2v-34.47c0-1.104,0.896-2,2-2h34.47c1.104,0,2,0.896,2,2v34.47
			C129.141,53.306,128.246,54.201,127.141,54.201z M94.671,50.201h30.47v-30.47h-30.47V50.201z"/>
	</g>
	<g>
		<path class="st4" d="M161.611,54.201h-34.47c-1.104,0-2-0.896-2-2v-34.47c0-1.104,0.896-2,2-2h34.47c1.104,0,2,0.896,2,2v34.47
			C163.611,53.306,162.716,54.201,161.611,54.201z M129.142,50.201h30.47v-30.47h-30.47V50.201z"/>
	</g>
	<g>
		<path class="st4" d="M92.671,88.671h-34.47c-1.104,0-2-0.896-2-2v-34.47c0-1.104,0.896-2,2-2h34.47c1.104,0,2,0.896,2,2v34.47
			C94.671,87.776,93.776,88.671,92.671,88.671z M60.201,84.671h30.47v-30.47h-30.47V84.671z"/>
	</g>
	<g>
		<path class="st4" d="M127.141,88.671h-34.47c-1.104,0-2-0.896-2-2v-34.47c0-1.104,0.896-2,2-2h34.47c1.104,0,2,0.896,2,2v34.47
			C129.141,87.776,128.246,88.671,127.141,88.671z M94.671,84.671h30.47v-30.47h-30.47V84.671z"/>
	</g>
	<g>
		<path class="st4" d="M161.611,88.671h-34.47c-1.104,0-2-0.896-2-2v-34.47c0-1.104,0.896-2,2-2h34.47c1.104,0,2,0.896,2,2v34.47
			C163.611,87.776,162.716,88.671,161.611,88.671z M129.142,84.671h30.47v-30.47h-30.47V84.671z"/>
	</g>
	<g>
		<path class="st4" d="M92.671,123.141h-34.47c-1.104,0-2-0.896-2-2v-34.47c0-1.104,0.896-2,2-2h34.47c1.104,0,2,0.896,2,2v34.47
			C94.671,122.246,93.776,123.141,92.671,123.141z M60.201,119.141h30.47v-30.47h-30.47V119.141z"/>
	</g>
	<g>
		<path class="st4" d="M127.141,123.141h-34.47c-1.104,0-2-0.896-2-2v-34.47c0-1.104,0.896-2,2-2h34.47c1.104,0,2,0.896,2,2v34.47
			C129.141,122.246,128.246,123.141,127.141,123.141z M94.671,119.141h30.47v-30.47h-30.47V119.141z"/>
	</g>
	<g>
		<path class="st4" d="M161.611,123.141h-34.47c-1.104,0-2-0.896-2-2v-34.47c0-1.104,0.896-2,2-2h34.47c1.104,0,2,0.896,2,2v34.47
			C163.611,122.246,162.716,123.141,161.611,123.141z M129.142,119.141h30.47v-30.47h-30.47V119.141z"/>
	</g>
	<g>
		<path class="st4" d="M92.671,157.611h-34.47c-1.104,0-2-0.896-2-2v-34.47c0-1.104,0.896-2,2-2h34.47c1.104,0,2,0.896,2,2v34.47
			C94.671,156.716,93.776,157.611,92.671,157.611z M60.201,153.611h30.47v-30.47h-30.47V153.611z"/>
	</g>
	<g>
		<path class="st4" d="M127.141,157.611h-34.47c-1.104,0-2-0.896-2-2v-34.47c0-1.104,0.896-2,2-2h34.47c1.104,0,2,0.896,2,2v34.47
			C129.141,156.716,128.246,157.611,127.141,157.611z M94.671,153.611h30.47v-30.47h-30.47V153.611z"/>
	</g>
	<g>
		<path class="st4" d="M161.611,157.611h-34.47c-1.104,0-2-0.896-2-2v-34.47c0-1.104,0.896-2,2-2h34.47c1.104,0,2,0.896,2,2v34.47
			C163.611,156.716,162.716,157.611,161.611,157.611z M129.142,153.611h30.47v-30.47h-30.47V153.611z"/>
	</g>
	<g>
		<path class="st4" d="M92.671,192.081h-34.47c-1.104,0-2-0.896-2-2v-34.47c0-1.104,0.896-2,2-2h34.47c1.104,0,2,0.896,2,2v34.47
			C94.671,191.186,93.776,192.081,92.671,192.081z M60.201,188.081h30.47v-30.47h-30.47V188.081z"/>
	</g>
	<g>
		<path class="st4" d="M127.141,192.081h-34.47c-1.104,0-2-0.896-2-2v-34.47c0-1.104,0.896-2,2-2h34.47c1.104,0,2,0.896,2,2v34.47
			C129.141,191.186,128.246,192.081,127.141,192.081z M94.671,188.081h30.47v-30.47h-30.47V188.081z"/>
	</g>
	<g>
		<path class="st4" d="M161.611,192.081h-34.47c-1.104,0-2-0.896-2-2v-34.47c0-1.104,0.896-2,2-2h34.47c1.104,0,2,0.896,2,2v34.47
			C163.611,191.186,162.716,192.081,161.611,192.081z M129.142,188.081h30.47v-30.47h-30.47V188.081z"/>
	</g>
	<g>
		<path class="st4" d="M196.081,88.671h-34.47c-1.104,0-2-0.896-2-2v-34.47c0-1.104,0.896-2,2-2h34.47c1.104,0,2,0.896,2,2v34.47
			C198.081,87.776,197.186,88.671,196.081,88.671z M163.611,84.671h30.47v-30.47h-30.47V84.671z"/>
	</g>
	<g>
		<path class="st4" d="M196.081,123.141h-34.47c-1.104,0-2-0.896-2-2v-34.47c0-1.104,0.896-2,2-2h34.47c1.104,0,2,0.896,2,2v34.47
			C198.081,122.246,197.186,123.141,196.081,123.141z M163.611,119.141h30.47v-30.47h-30.47V119.141z"/>
	</g>
	<g>
		<path class="st4" d="M196.081,157.611h-34.47c-1.104,0-2-0.896-2-2v-34.47c0-1.104,0.896-2,2-2h34.47c1.104,0,2,0.896,2,2v34.47
			C198.081,156.716,197.186,157.611,196.081,157.611z M163.611,153.611h30.47v-30.47h-30.47V153.611z"/>
	</g>
	<g>
		<path class="st4" d="M58.201,88.671h-34.47c-1.104,0-2-0.896-2-2v-34.47c0-1.104,0.896-2,2-2h34.47c1.104,0,2,0.896,2,2v34.47
			C60.201,87.776,59.306,88.671,58.201,88.671z M25.731,84.671h30.47v-30.47h-30.47V84.671z"/>
	</g>
	<g>
		<path class="st4" d="M58.201,123.141h-34.47c-1.104,0-2-0.896-2-2v-34.47c0-1.104,0.896-2,2-2h34.47c1.104,0,2,0.896,2,2v34.47
			C60.201,122.246,59.306,123.141,58.201,123.141z M25.731,119.141h30.47v-30.47h-30.47V119.141z"/>
	</g>
	<g>
		<path class="st4" d="M58.201,157.611h-34.47c-1.104,0-2-0.896-2-2v-34.47c0-1.104,0.896-2,2-2h34.47c1.104,0,2,0.896,2,2v34.47
			C60.201,156.716,59.306,157.611,58.201,157.611z M25.731,153.611h30.47v-30.47h-30.47V153.611z"/>
	</g>
	<g>
		<path class="st4" d="M189.814,192.081H29.999c-4.559,0-8.267-3.708-8.267-8.267V23.999c0-4.559,3.708-8.267,8.267-8.267h159.816
			c4.559,0,8.267,3.708,8.267,8.267v159.815C198.081,188.373,194.373,192.081,189.814,192.081z M29.999,19.731
			c-2.353,0-4.267,1.914-4.267,4.267v159.815c0,2.353,1.914,4.267,4.267,4.267h159.816c2.353,0,4.267-1.914,4.267-4.267V23.999
			c0-2.353-1.914-4.267-4.267-4.267H29.999z"/>
	</g>
	<g>
		<path class="st4" d="M193.668,201.656H26.156c-7.713,0-13.99-6.27-14-13.981c0-0.002,0-0.005,0-0.007V20.156
			c0-7.713,6.27-13.99,13.981-14c0.002,0,0.005,0,0.007,0h167.512c7.714,0,13.99,6.27,14,13.981c0,0.002,0,0.005,0,0.007v167.512
			c0,7.713-6.27,13.99-13.98,14c-0.001,0-0.001,0-0.001,0C193.673,201.656,193.67,201.656,193.668,201.656z M16.156,187.656
			c0,5.514,4.486,10,10,10h167.5c5.514,0,10-4.486,10-10v-167.5c0-5.514-4.486-10-10-10h-167.5c-5.514,0-10,4.486-10,10V187.656z"/>
	</g>
	<g>
		<path class="st5" d="M176.427,136.682H117.76c-3.406,0-6.167-2.761-6.167-6.167v0c0-3.406,2.761-6.167,6.167-6.167h58.667
			c3.406,0,6.167,2.761,6.167,6.167v0C182.594,133.922,179.833,136.682,176.427,136.682z"/>
	</g>
	<g>
		<path class="st3" d="M171.594,149.016h-49c-1.657,0-3-1.343-3-3v-9.333h55v9.333C174.594,147.673,173.251,149.016,171.594,149.016
			z"/>
	</g>
	<g>
		<path class="st5" d="M105.76,235.51h82.667c3.406,0,6.167,2.761,6.167,6.167v0c0,3.406-2.761,6.167-6.167,6.167H105.76
			c-3.406,0-6.167-2.761-6.167-6.167v0C99.594,238.271,102.355,235.51,105.76,235.51z"/>
	</g>
	<g>
		<path class="st3" d="M113.298,223.177h67.592c1.657,0,3,1.343,3,3v9.333h-73.592v-9.333
			C110.298,224.52,111.641,223.177,113.298,223.177z"/>
	</g>
	<g>
		<path class="st5" d="M168.881,149.016h-43.575c-0.59,24.806-2.663,49.584-6.212,74.161h28h28
			C171.547,198.62,169.472,173.841,168.881,149.016z"/>
	</g>
	<g>
		<path class="st3" d="M155.275,105.082l-5.464-11.677c-1.078-2.305-4.356-2.305-5.434,0l-5.464,11.677
			c-0.609,1.301-2.349,1.555-3.304,0.483l-10.775-12.088c-1.834-2.058-5.239-0.76-5.239,1.996c0,9.845,0,17.463,0,28.876h55
			c0-0.357,0-29.231,0-28.876c0-2.757-3.405-4.054-5.239-1.996l-10.775,12.088C157.624,106.637,155.884,106.383,155.275,105.082z"/>
	</g>
	<g>
		<path class="st4" d="M176.427,138.683H117.76c-4.503,0-8.167-3.664-8.167-8.167c0-4.503,3.664-8.167,8.167-8.167h58.667
			c4.503,0,8.167,3.664,8.167,8.167C184.594,135.019,180.93,138.683,176.427,138.683z M117.76,126.349
			c-2.297,0-4.167,1.869-4.167,4.167c0,2.298,1.869,4.167,4.167,4.167h58.667c2.298,0,4.167-1.869,4.167-4.167
			c0-2.297-1.869-4.167-4.167-4.167H117.76z"/>
	</g>
	<g>
		<path class="st4" d="M171.594,151.016h-49c-2.757,0-5-2.243-5-5v-9.333c0-1.104,0.896-2,2-2h55c1.104,0,2,0.896,2,2v9.333
			C176.594,148.772,174.351,151.016,171.594,151.016z M121.594,138.683v7.333c0,0.551,0.449,1,1,1h49c0.552,0,1-0.449,1-1v-7.333
			H121.594z"/>
	</g>
	<g>
		<path class="st4" d="M188.427,249.844H105.76c-4.503,0-8.167-3.664-8.167-8.167c0-4.503,3.664-8.167,8.167-8.167h82.667
			c4.503,0,8.167,3.664,8.167,8.167C196.594,246.18,192.93,249.844,188.427,249.844z M105.76,237.51
			c-2.297,0-4.167,1.869-4.167,4.167c0,2.297,1.869,4.167,4.167,4.167h82.667c2.298,0,4.167-1.869,4.167-4.167
			c0-2.298-1.869-4.167-4.167-4.167H105.76z"/>
	</g>
	<g>
		<path class="st4" d="M183.89,237.51h-73.592c-1.104,0-2-0.896-2-2v-9.333c0-2.757,2.243-5,5-5h67.592c2.757,0,5,2.243,5,5v9.333
			C185.89,236.615,184.994,237.51,183.89,237.51z M112.298,233.51h69.592v-7.333c0-0.551-0.448-1-1-1h-67.592c-0.551,0-1,0.449-1,1
			V233.51z"/>
	</g>
	<g>
		<path class="st4" d="M175.094,225.177h-56c-0.58,0-1.132-0.252-1.512-0.691c-0.38-0.438-0.551-1.021-0.468-1.595
			c3.522-24.389,5.605-49.261,6.192-73.923c0.026-1.086,0.914-1.953,2-1.953h43.576c1.086,0,1.974,0.867,1.999,1.953
			c0.586,24.662,2.67,49.533,6.192,73.923c0.083,0.575-0.088,1.157-0.468,1.595C176.226,224.925,175.674,225.177,175.094,225.177z
			 M121.399,221.177h51.389c-3.257-23.17-5.226-46.752-5.856-70.162h-39.676C126.625,174.428,124.656,198.007,121.399,221.177z"/>
	</g>
	<g>
		<path class="st4" d="M174.594,126.349h-55c-1.104,0-2-0.896-2-2V95.473c0-2.093,1.264-3.927,3.22-4.672
			c1.957-0.745,4.12-0.216,5.513,1.346l10.775,12.087l5.464-11.676c0.831-1.777,2.566-2.881,4.528-2.881s3.697,1.104,4.528,2.881
			l5.465,11.677l0,0l0.004,0.007l10.771-12.095c1.393-1.562,3.556-2.091,5.513-1.346c1.953,0.744,3.216,2.574,3.22,4.663
			c0,0.002,0,0.004,0,0.006v28.879C176.594,125.454,175.698,126.349,174.594,126.349z M121.594,122.349h51V95.473
			c0-0.622-0.45-0.86-0.644-0.935c-0.196-0.074-0.688-0.196-1.103,0.269l-10.774,12.088c-0.897,1.007-2.226,1.496-3.565,1.296
			c-1.334-0.195-2.473-1.041-3.044-2.262l-5.465-11.677c-0.243-0.52-0.714-0.576-0.905-0.576s-0.662,0.056-0.905,0.576
			l-5.465,11.677c-0.571,1.222-1.71,2.068-3.045,2.263c-1.334,0.194-2.667-0.29-3.563-1.297L123.34,94.808
			c-0.414-0.464-0.908-0.344-1.102-0.27s-0.644,0.313-0.644,0.935V122.349z"/>
	</g>
	<g>
		<path class="st3" d="M227.739,175.513H182.19c-2.644,0-4.788-2.144-4.788-4.788l0,0c0-2.644,2.144-4.788,4.788-4.788h45.549
			c2.644,0,4.788,2.144,4.788,4.788l0,0C232.527,173.37,230.383,175.513,227.739,175.513z"/>
	</g>
	<g>
		<path class="st3" d="M223.987,185.089h-38.044c-1.286,0-2.329-1.043-2.329-2.329v-7.246h42.702v7.246
			C226.316,184.046,225.273,185.089,223.987,185.089z"/>
	</g>
	<g>
		<path class="st3" d="M172.874,238.268h64.182c2.644,0,4.788,2.144,4.788,4.788c0,2.644-2.143,4.788-4.788,4.788h-64.182
			c-2.644,0-4.788-2.144-4.788-4.788l0,0C168.086,240.412,170.229,238.268,172.874,238.268z"/>
	</g>
	<g>
		<path class="st3" d="M178.726,228.693h52.478c1.286,0,2.329,1.043,2.329,2.329v7.246h-57.136v-7.246
			C176.397,229.735,177.439,228.693,178.726,228.693z"/>
	</g>
	<g>
		<path class="st3" d="M221.121,165.938h-32.609v-3.52c0-1.43,1.159-2.589,2.589-2.589h27.431c1.43,0,2.589,1.159,2.589,2.589
			V165.938z"/>
	</g>
	<g>
		<path class="st5" d="M188.445,185.089c-0.729,14.597-2.08,29.148-4.055,43.604c14.878,0,26.271,0,41.149,0
			c-1.976-14.455-3.326-29.007-4.055-43.604H188.445z"/>
	</g>
	<g>
		<path class="st4" d="M221.121,167.938h-32.608c-1.104,0-2-0.896-2-2v-3.521c0-2.53,2.059-4.589,4.589-4.589h27.431
			c2.53,0,4.589,2.059,4.589,4.589v3.521C223.121,167.042,222.226,167.938,221.121,167.938z M190.513,163.938h28.608v-1.521
			c0-0.325-0.265-0.589-0.589-0.589h-27.431c-0.324,0-0.589,0.264-0.589,0.589V163.938z"/>
	</g>
	<g>
		<path class="st4" d="M227.739,177.513H182.19c-3.743,0-6.788-3.045-6.788-6.788s3.045-6.788,6.788-6.788h45.549
			c3.743,0,6.788,3.045,6.788,6.788S231.482,177.513,227.739,177.513z M182.19,167.938c-1.537,0-2.788,1.25-2.788,2.788
			s1.251,2.788,2.788,2.788h45.549c1.537,0,2.788-1.25,2.788-2.788s-1.251-2.788-2.788-2.788H182.19z"/>
	</g>
	<g>
		<path class="st4" d="M223.986,187.089h-38.043c-2.387,0-4.329-1.942-4.329-4.329v-7.247c0-1.104,0.896-2,2-2h42.701
			c1.104,0,2,0.896,2,2v7.247C228.315,185.147,226.373,187.089,223.986,187.089z M185.614,177.513v5.247
			c0,0.182,0.147,0.329,0.329,0.329h38.043c0.182,0,0.329-0.147,0.329-0.329v-5.247H185.614z"/>
	</g>
	<g>
		<path class="st4" d="M237.056,249.844h-64.182c-3.743,0-6.788-3.045-6.788-6.788c0-3.743,3.045-6.788,6.788-6.788h64.182
			c3.743,0,6.788,3.045,6.788,6.788C243.844,246.799,240.799,249.844,237.056,249.844z M172.874,240.268
			c-1.537,0-2.788,1.25-2.788,2.788c0,1.537,1.251,2.788,2.788,2.788h64.182c1.537,0,2.788-1.25,2.788-2.788
			c0-1.538-1.251-2.788-2.788-2.788H172.874z"/>
	</g>
	<g>
		<path class="st4" d="M233.533,240.268h-57.137c-1.104,0-2-0.896-2-2v-7.246c0-2.387,1.942-4.33,4.329-4.33h52.479
			c2.387,0,4.329,1.942,4.329,4.33v7.246C235.533,239.373,234.638,240.268,233.533,240.268z M178.396,236.268h53.137v-5.246
			c0-0.182-0.147-0.33-0.329-0.33h-52.479c-0.182,0-0.329,0.148-0.329,0.33V236.268z"/>
	</g>
	<g>
		<path class="st4" d="M225.539,230.693h-41.148c-0.578,0-1.127-0.25-1.507-0.685s-0.553-1.013-0.475-1.586
			c1.956-14.311,3.314-28.923,4.039-43.433c0.053-1.064,0.932-1.9,1.997-1.9h33.039c1.065,0,1.944,0.836,1.997,1.9
			c0.725,14.509,2.083,29.122,4.039,43.433c0.078,0.573-0.095,1.151-0.475,1.586S226.117,230.693,225.539,230.693z M186.678,226.693
			h36.574c-1.725-13.07-2.957-26.374-3.667-39.604h-29.24C189.635,200.319,188.402,213.623,186.678,226.693z"/>
	</g>
	<g>
		<path class="st5" d="M218.765,159.852c10.995-11.97,2.527-31.425-13.801-31.425c-16.295,0-24.801,19.408-13.822,31.402
			C191.545,159.829,218.364,159.816,218.765,159.852z"/>
	</g>
	<g>
		<path class="st4" d="M218.766,161.852c-0.035,0-0.07-0.001-0.106-0.003c-0.714-0.02-11.093-0.027-27.147-0.021h-0.369
			c-0.562,0-1.097-0.236-1.476-0.649c-5.629-6.149-7.034-14.72-3.666-22.368c3.363-7.639,10.63-12.384,18.964-12.384
			c8.34,0,15.607,4.75,18.966,12.395c3.366,7.662,1.951,16.239-3.692,22.383C219.858,161.619,219.323,161.852,218.766,161.852z
			 M202.072,157.826c10.231,0,14.213,0.009,15.793,0.018c4.072-4.901,5.004-11.495,2.403-17.414
			c-2.711-6.17-8.574-10.003-15.304-10.003c-6.725,0-12.589,3.83-15.304,9.996c-2.602,5.909-1.676,12.5,2.391,17.405
			C195.926,157.827,199.238,157.826,202.072,157.826z"/>
	</g>
</g>
</svg>
