<?xml version="1.0" encoding="utf-8"?>
<!-- Generator: Adobe Illustrator 22.1.0, SVG Export Plug-In . SVG Version: 6.00 Build 0)  -->
<svg version="1.1" id="Layer_1" xmlns="http://www.w3.org/2000/svg" xmlns:xlink="http://www.w3.org/1999/xlink" x="0px" y="0px"
	 viewBox="0 0 256 256" style="enable-background:new 0 0 256 256;" xml:space="preserve">
<style type="text/css">
	.st0{fill:#4671C6;}
	.st1{fill:#F9CFCF;}
	.st2{fill:#F9A7A7;}
	.st3{fill:#A4C9FF;}
	.st4{fill:#3762CC;}
	.st5{fill:#E0EBFC;}
	.st6{fill:#6BDDDD;}
	.st7{fill:#B9BEFC;}
	.st8{fill:#FFEA92;}
	.st9{fill:#EAA97D;}
	.st10{fill:#FFEA94;}
	.st11{fill:#FFE164;}
	.st12{fill:#FFDC85;}
	.st13{fill:#FFFFFF;}
	.st14{fill:#383838;}
</style>
<g>
	<g>
		<path class="st3" d="M140.98,229.169H62.02c-3.049,0-5.52-2.471-5.52-5.52v0c0-3.049,2.471-5.52,5.52-5.52h78.96
			c3.049,0,5.52,2.471,5.52,5.52v0C146.5,226.698,144.029,229.169,140.98,229.169z"/>
	</g>
	<g>
		<path class="st0" d="M149.5,32.831v190.338c0,3.314,2.686,6,6,6h83c3.314,0,6-2.686,6-6V32.831c0-3.314-2.686-6-6-6h-83
			C152.186,26.831,149.5,29.517,149.5,32.831z"/>
	</g>
	<g>
		<path class="st5" d="M230.268,111.081h-63.036c-1.923,0-3.482-1.559-3.482-3.482V90.313c0-1.923,1.559-3.482,3.482-3.482h63.036
			c1.923,0,3.482,1.559,3.482,3.482v17.286C233.75,109.522,232.191,111.081,230.268,111.081z"/>
	</g>
	<g>
		<circle class="st1" cx="198.75" cy="173.015" r="10.688"/>
	</g>
	<g>
		<path class="st5" d="M230.268,69.081h-63.036c-1.923,0-3.482-1.559-3.482-3.482V48.313c0-1.923,1.559-3.482,3.482-3.482h63.036
			c1.923,0,3.482,1.559,3.482,3.482v17.286C233.75,67.522,232.191,69.081,230.268,69.081z"/>
	</g>
	<g>
		<path class="st6" d="M155.5,229.169h8.25v-86.636c0-2.219-1.034-4.311-2.798-5.658l-11.452-8.749v95.043
			C149.5,226.483,152.186,229.169,155.5,229.169z"/>
	</g>
	<g>
		<path class="st6" d="M230.25,229.169h8.25c3.314,0,6-2.686,6-6v-95.043l-11.452,8.749c-1.763,1.347-2.798,3.439-2.798,5.658
			V229.169z"/>
	</g>
	<g>
		<path class="st4" d="M238.5,231.169h-83c-4.411,0-8-3.589-8-8V32.831c0-4.411,3.589-8,8-8h83c4.411,0,8,3.589,8,8v190.338
			C246.5,227.58,242.911,231.169,238.5,231.169z M155.5,28.831c-2.206,0-4,1.794-4,4v190.338c0,2.206,1.794,4,4,4h83
			c2.206,0,4-1.794,4-4V32.831c0-2.206-1.794-4-4-4H155.5z"/>
	</g>
	<g>
		<path class="st4" d="M230.268,113.081h-63.036c-3.023,0-5.482-2.459-5.482-5.482V90.313c0-3.023,2.459-5.482,5.482-5.482h63.036
			c3.023,0,5.482,2.459,5.482,5.482v17.286C235.75,110.622,233.291,113.081,230.268,113.081z M167.232,88.831
			c-0.817,0-1.482,0.665-1.482,1.482v17.286c0,0.817,0.665,1.482,1.482,1.482h63.036c0.817,0,1.482-0.665,1.482-1.482V90.313
			c0-0.817-0.665-1.482-1.482-1.482H167.232z"/>
	</g>
	<g>
		<path class="st4" d="M198.75,185.703c-6.996,0-12.688-5.691-12.688-12.688s5.691-12.688,12.688-12.688s12.687,5.691,12.687,12.688
			S205.746,185.703,198.75,185.703z M198.75,164.328c-4.791,0-8.688,3.897-8.688,8.688s3.897,8.688,8.688,8.688
			s8.687-3.897,8.687-8.688S203.541,164.328,198.75,164.328z"/>
	</g>
	<g>
		<path class="st4" d="M230.268,71.081h-63.036c-3.023,0-5.482-2.459-5.482-5.482V48.313c0-3.023,2.459-5.482,5.482-5.482h63.036
			c3.023,0,5.482,2.459,5.482,5.482v17.286C235.75,68.622,233.291,71.081,230.268,71.081z M167.232,46.831
			c-0.817,0-1.482,0.665-1.482,1.482v17.286c0,0.817,0.665,1.482,1.482,1.482h63.036c0.817,0,1.482-0.665,1.482-1.482V48.313
			c0-0.817-0.665-1.482-1.482-1.482H167.232z"/>
	</g>
	<g>
		<path class="st4" d="M163.75,231.169h-8.25c-4.411,0-8-3.589-8-8v-95.043c0-0.761,0.432-1.456,1.114-1.793
			c0.682-0.337,1.496-0.258,2.101,0.204l11.453,8.75c2.244,1.714,3.583,4.423,3.583,7.247v86.636
			C165.75,230.273,164.854,231.169,163.75,231.169z M151.5,132.17v90.999c0,2.206,1.794,4,4,4h6.25v-84.636
			c0-1.585-0.752-3.106-2.012-4.068L151.5,132.17z"/>
	</g>
	<g>
		<path class="st4" d="M238.5,231.169h-8.25c-1.104,0-2-0.896-2-2v-86.636c0-2.824,1.339-5.533,3.583-7.247l11.453-8.75
			c0.604-0.461,1.419-0.541,2.101-0.204c0.682,0.337,1.114,1.032,1.114,1.793v95.043C246.5,227.58,242.911,231.169,238.5,231.169z
			 M232.25,227.169h6.25c2.206,0,4-1.794,4-4V132.17l-8.238,6.294c-1.26,0.962-2.012,2.483-2.012,4.068V227.169z"/>
	</g>
	<g>
		<path class="st3" d="M183.5,196.831h-164c-4.418,0-8-3.582-8-8v-104c0-4.418,3.582-8,8-8h164c4.418,0,8,3.582,8,8v104
			C191.5,193.249,187.918,196.831,183.5,196.831z"/>
	</g>
	<g>
		<path class="st6" d="M21.5,183.831v-94c0-1.657,1.343-3,3-3h154c1.657,0,3,1.343,3,3v94c0,1.657-1.343,3-3,3h-154
			C22.843,186.831,21.5,185.488,21.5,183.831z"/>
	</g>
	<g>
		<rect x="84" y="196.831" class="st5" width="35" height="21.298"/>
	</g>
	<g>
		<path class="st4" d="M140.98,231.169H62.02c-4.146,0-7.52-3.374-7.52-7.52s3.374-7.52,7.52-7.52h78.96
			c4.146,0,7.52,3.374,7.52,7.52S145.126,231.169,140.98,231.169z M62.02,220.129c-1.941,0-3.52,1.579-3.52,3.52
			s1.579,3.52,3.52,3.52h78.96c1.941,0,3.52-1.579,3.52-3.52s-1.579-3.52-3.52-3.52H62.02z"/>
	</g>
	<g>
		<path class="st4" d="M183.5,198.831h-164c-5.514,0-10-4.486-10-10v-104c0-5.514,4.486-10,10-10h164c5.514,0,10,4.486,10,10v104
			C193.5,194.345,189.014,198.831,183.5,198.831z M19.5,78.831c-3.309,0-6,2.691-6,6v104c0,3.309,2.691,6,6,6h164
			c3.309,0,6-2.691,6-6v-104c0-3.309-2.691-6-6-6H19.5z"/>
	</g>
	<g>
		<path class="st4" d="M119,220.129H84c-1.104,0-2-0.896-2-2v-21.298c0-1.104,0.896-2,2-2h35c1.104,0,2,0.896,2,2v21.298
			C121,219.233,120.104,220.129,119,220.129z M86,216.129h31v-17.298H86V216.129z"/>
	</g>
	<g>
		<path class="st2" d="M44.957,112.717h-11.79c-1.292,0-2.339-1.047-2.339-2.339v-11.79c0-1.292,1.047-2.339,2.339-2.339h11.79
			c1.292,0,2.339,1.047,2.339,2.339v11.79C47.295,111.67,46.248,112.717,44.957,112.717z"/>
	</g>
	<g>
		<path class="st1" d="M44.957,137.663h-11.79c-1.292,0-2.339-1.047-2.339-2.339v-11.79c0-1.292,1.047-2.339,2.339-2.339h11.79
			c1.292,0,2.339,1.047,2.339,2.339v11.79C47.295,136.616,46.248,137.663,44.957,137.663z"/>
	</g>
	<g>
		<path class="st2" d="M44.957,164.168h-11.79c-1.292,0-2.339-1.047-2.339-2.339v-11.79c0-1.292,1.047-2.339,2.339-2.339h11.79
			c1.292,0,2.339,1.047,2.339,2.339v11.79C47.295,163.121,46.248,164.168,44.957,164.168z"/>
	</g>
	<g>
		<path class="st5" d="M21.5,173.947v9.884c0,1.657,1.343,3,3,3h154c1.657,0,3-1.343,3-3v-9.884H21.5z"/>
	</g>
	<g>
		<path class="st4" d="M178.5,188.831h-154c-2.757,0-5-2.243-5-5v-94c0-2.757,2.243-5,5-5h154c2.757,0,5,2.243,5,5v94
			C183.5,186.588,181.257,188.831,178.5,188.831z M24.5,88.831c-0.551,0-1,0.449-1,1v94c0,0.551,0.449,1,1,1h154
			c0.551,0,1-0.449,1-1v-94c0-0.551-0.449-1-1-1H24.5z"/>
	</g>
</g>
</svg>
