<?xml version="1.0" encoding="utf-8"?>
<!-- Generator: Adobe Illustrator 22.1.0, SVG Export Plug-In . SVG Version: 6.00 Build 0)  -->
<svg version="1.1" id="Layer_1" xmlns="http://www.w3.org/2000/svg" xmlns:xlink="http://www.w3.org/1999/xlink" x="0px" y="0px"
	 viewBox="0 0 256 256" style="enable-background:new 0 0 256 256;" xml:space="preserve">
<style type="text/css">
	.st0{fill:#4671C6;}
	.st1{fill:#F9CFCF;}
	.st2{fill:#F9A7A7;}
	.st3{fill:#A4C9FF;}
	.st4{fill:#3762CC;}
	.st5{fill:#E0EBFC;}
	.st6{fill:#6BDDDD;}
	.st7{fill:#B9BEFC;}
	.st8{fill:#FFEA92;}
	.st9{fill:#EAA97D;}
	.st10{fill:#FFEA94;}
	.st11{fill:#FFE164;}
	.st12{fill:#FFDC85;}
	.st13{fill:#FFFFFF;}
	.st14{fill:#383838;}
</style>
<g>
	<g>
		<path class="st6" d="M160.695,43.527h-54.517c-2.59,0-4.697-2.107-4.697-4.697s2.107-4.697,4.697-4.697h19.006
			c3.734,0,6.772-3.039,6.772-6.773v-6.707c0-1.933-1.567-3.5-3.5-3.5s-3.5,1.567-3.5,3.5v6.479h-18.779
			c-6.45,0-11.697,5.248-11.697,11.697s5.248,11.697,11.697,11.697h54.517c2.59,0,4.697,2.107,4.697,4.697v3.748
			c0,2.59-2.107,4.697-4.697,4.697H131.73c-3.735,0-6.773,3.039-6.773,6.773v8.155h7V70.67h28.738
			c6.45,0,11.697-5.248,11.697-11.697v-3.748C172.392,48.775,167.145,43.527,160.695,43.527z"/>
	</g>
	<g>
		<path class="st0" d="M248.277,214.072L248.277,214.072c0.084-8.392-6.413-32.78-6.413-32.78l-0.001,0.002
			c-6.03-26.563-15.608-54.727-19.32-65.261c-0.428-1.452-0.933-2.867-1.515-4.236c-0.017-0.046-0.028-0.076-0.028-0.076l0,0.014
			c-5.959-13.95-19.604-23.318-35.027-23.318h-43.458H128h-14.516H70.026c-15.423,0-29.068,9.368-35.027,23.318l0-0.014
			c0,0-0.011,0.03-0.028,0.076c-0.582,1.369-1.087,2.783-1.515,4.236c-3.712,10.535-13.29,38.698-19.32,65.261l-0.001-0.002
			c0,0-6.497,24.388-6.413,32.78h0c-0.506,7.682,0.293,15.587,4.538,20.12c2.215,2.604,5.363,4.149,8.705,4.572
			c9.945,1.024,22.131-7.739,29.203-13.752c2.224-2.015,4.269-3.904,5.855-5.383h0c1.338-1.247,2.353-2.205,2.866-2.69l0.388-0.368
			l0,0l29.08-27.576c2.425-2.3,5.621-3.579,8.941-3.579H128h30.7c3.32,0,6.516,1.279,8.941,3.579l29.08,27.576l0,0l0.388,0.368
			c0.513,0.485,1.528,1.443,2.866,2.69h0c1.586,1.478,3.63,3.367,5.855,5.383c7.073,6.012,19.258,14.775,29.203,13.752
			c3.343-0.423,6.49-1.968,8.705-4.572C247.984,229.659,248.783,221.754,248.277,214.072z"/>
	</g>
	<g>
		<circle class="st6" cx="73.835" cy="162.46" r="23.761"/>
	</g>
	<g>
		<path class="st3" d="M94.726,88.416l2.551,10.392c0.599,2.439,2.786,4.154,5.297,4.154c1.038,0,51.883,0,50.85,0
			c2.512,0,4.699-1.715,5.297-4.154l2.551-10.392C140.62,88.416,114.969,88.416,94.726,88.416z"/>
	</g>
	<g>
		<path class="st5" d="M86.011,157.365h-7.218v-7.218c0-1.033-0.837-1.87-1.87-1.87h-6.175c-1.033,0-1.87,0.837-1.87,1.87v7.218
			h-7.218c-1.033,0-1.87,0.837-1.87,1.87v6.175c0,1.033,0.837,1.87,1.87,1.87h7.218v7.218c0,1.033,0.837,1.87,1.87,1.87h6.175
			c1.033,0,1.87-0.837,1.87-1.87v-7.218h7.218c1.033,0,1.87-0.837,1.87-1.87v-6.175C87.881,158.202,87.043,157.365,86.011,157.365z"
			/>
	</g>
	<g>
		<circle class="st6" cx="186.529" cy="162.46" r="23.761"/>
	</g>
	<g>
		<circle class="st5" cx="186.529" cy="162.322" r="13.881"/>
	</g>
	<g>
		<circle class="st3" cx="192.147" cy="102.451" r="6.761"/>
	</g>
	<g>
		<circle class="st3" cx="192.147" cy="128.929" r="6.761"/>
	</g>
	<g>
		<circle class="st3" cx="205.386" cy="115.69" r="6.761"/>
	</g>
	<g>
		<circle class="st3" cx="178.908" cy="115.69" r="6.761"/>
	</g>
	<g>
		<path class="st2" d="M142.728,140.86h-29.455c-4.017,0-7.273-3.256-7.273-7.273v0c0-4.017,3.256-7.273,7.273-7.273h29.455
			c4.017,0,7.273,3.256,7.273,7.273v0C150.001,137.604,146.744,140.86,142.728,140.86z"/>
	</g>
	<g>
		<circle class="st5" cx="59.851" cy="117.227" r="18.463"/>
	</g>
	<g>
		<circle class="st3" cx="59.851" cy="117.12" r="10.914"/>
	</g>
	<g>
		<path class="st5" d="M144,88.416H112v-4.909c0-2.711,2.198-4.909,4.909-4.909h22.182c2.711,0,4.909,2.198,4.909,4.909V88.416z"/>
	</g>
	<g>
		<path class="st4" d="M59.851,137.69c-11.283,0-20.463-9.18-20.463-20.463c0-11.284,9.18-20.464,20.463-20.464
			c11.284,0,20.463,9.18,20.463,20.464C80.314,128.511,71.134,137.69,59.851,137.69z M59.851,100.764
			c-9.078,0-16.463,7.386-16.463,16.464s7.385,16.463,16.463,16.463c9.078,0,16.463-7.385,16.463-16.463
			S68.929,100.764,59.851,100.764z"/>
	</g>
	<g>
		<path class="st4" d="M59.851,130.034c-7.121,0-12.914-5.794-12.914-12.915s5.793-12.914,12.914-12.914
			c7.121,0,12.915,5.793,12.915,12.914S66.972,130.034,59.851,130.034z M59.851,108.205c-4.915,0-8.914,3.999-8.914,8.914
			c0,4.916,3.999,8.915,8.914,8.915c4.916,0,8.915-3.999,8.915-8.915C68.765,112.204,64.766,108.205,59.851,108.205z"/>
	</g>
	<g>
		<path class="st4" d="M142.728,142.859h-29.455c-5.113,0-9.273-4.159-9.273-9.272s4.16-9.272,9.273-9.272h29.455
			c5.113,0,9.273,4.159,9.273,9.272S147.841,142.859,142.728,142.859z M113.272,128.314c-2.908,0-5.273,2.365-5.273,5.272
			s2.365,5.272,5.273,5.272h29.455c2.908,0,5.273-2.365,5.273-5.272s-2.365-5.272-5.273-5.272H113.272z"/>
	</g>
	<g>
		<path class="st4" d="M22.609,240.848c-0.622,0-1.237-0.03-1.847-0.094c-4.022-0.508-7.565-2.376-10.024-5.266
			c-3.956-4.221-5.665-11.469-5.016-21.474c-0.048-8.6,6.168-32.063,6.478-33.226c6.025-26.521,15.526-54.51,19.353-65.372
			c0.446-1.508,0.977-2.989,1.577-4.402c0.03-0.085,0.066-0.167,0.106-0.245c6.405-14.801,20.824-24.354,36.789-24.354h115.947
			c15.977,0,30.405,9.565,36.803,24.385c0.041,0.08,0.078,0.163,0.108,0.25c0.584,1.378,1.115,2.858,1.562,4.366
			c3.827,10.862,13.328,38.852,19.353,65.372c0.31,1.162,6.529,24.638,6.479,33.232c0.647,10.001-1.062,17.247-5.08,21.538
			c-2.395,2.818-5.938,4.687-9.914,5.189c-10.351,1.067-22.432-7.142-30.75-14.213c-2.28-2.064-4.332-3.96-5.923-5.443
			c-1.343-1.252-2.362-2.214-2.877-2.701l-29.47-27.945c-2.061-1.954-4.747-3.03-7.565-3.03H97.3c-2.818,0-5.504,1.076-7.564,3.03
			l-29.47,27.945c-0.515,0.487-1.534,1.449-2.877,2.701c-1.591,1.483-3.643,3.379-5.875,5.402
			C43.643,233.187,32.485,240.847,22.609,240.848z M16.053,181.868c-0.36,1.361-6.409,24.358-6.33,32.184
			c0,0.051-0.001,0.102-0.004,0.152c-0.578,8.769,0.807,15.208,4.003,18.621c1.874,2.198,4.513,3.578,7.496,3.955
			c9.315,0.957,21.333-7.915,27.657-13.291c2.168-1.967,4.206-3.849,5.786-5.322c1.333-1.242,2.344-2.196,2.854-2.68l29.468-27.943
			c2.806-2.662,6.47-4.128,10.317-4.128H158.7c3.847,0,7.511,1.466,10.317,4.128l29.468,27.943c0.51,0.483,1.521,1.438,2.854,2.68
			c1.581,1.474,3.618,3.355,5.834,5.363c6.276,5.334,18.283,14.203,27.656,13.245c2.937-0.372,5.576-1.752,7.386-3.879
			c3.26-3.484,4.645-9.924,4.066-18.692c-0.003-0.051-0.005-0.102-0.004-0.152c0.079-7.826-5.97-30.825-6.33-32.184
			c-0.013-0.043-0.024-0.087-0.034-0.132c-5.988-26.375-15.461-54.27-19.256-65.038c-0.012-0.033-0.022-0.066-0.032-0.1
			c-0.406-1.379-0.89-2.731-1.437-4.02c-0.009-0.02-0.018-0.039-0.026-0.06c-5.735-13.427-18.762-22.104-33.188-22.104H70.026
			c-14.425,0-27.452,8.677-33.188,22.104c-0.014,0.032-0.028,0.063-0.043,0.094c-0.559,1.332-1.026,2.646-1.42,3.985
			c-0.01,0.033-0.021,0.066-0.032,0.1c-3.795,10.769-13.268,38.663-19.256,65.038C16.077,181.781,16.065,181.825,16.053,181.868z"/>
	</g>
	<g>
		<path class="st4" d="M153.44,104.962h-50.865c-3.442,0-6.419-2.334-7.24-5.677l-2.551-10.393
			c-0.146-0.597-0.011-1.228,0.369-1.711c0.379-0.483,0.959-0.766,1.574-0.766h66.547c0.614,0,1.195,0.282,1.574,0.766
			c0.379,0.483,0.515,1.114,0.369,1.711l-2.551,10.393c-0.818,3.332-3.779,5.662-7.208,5.677
			C153.452,104.962,153.446,104.962,153.44,104.962z M97.277,90.416l1.943,7.916c0.38,1.548,1.76,2.63,3.355,2.63h50.85
			c1.595,0,2.975-1.082,3.355-2.63l1.943-7.916H97.277z"/>
	</g>
	<g>
		<path class="st4" d="M144,90.416H112c-1.104,0-2-0.896-2-2v-4.909c0-3.81,3.1-6.909,6.909-6.909h22.183
			c3.81,0,6.909,3.1,6.909,6.909v4.909C146,89.521,145.105,90.416,144,90.416z M114,86.416H142v-2.909
			c0-1.604-1.305-2.909-2.909-2.909h-22.183c-1.604,0-2.909,1.305-2.909,2.909V86.416z"/>
	</g>
	<g>
		<path class="st4" d="M192.147,111.212c-4.831,0-8.762-3.93-8.762-8.761s3.931-8.762,8.762-8.762s8.761,3.931,8.761,8.762
			S196.979,111.212,192.147,111.212z M192.147,97.689c-2.625,0-4.762,2.136-4.762,4.762c0,2.625,2.136,4.761,4.762,4.761
			s4.761-2.136,4.761-4.761C196.909,99.825,194.773,97.689,192.147,97.689z"/>
	</g>
	<g>
		<path class="st4" d="M192.147,137.69c-4.831,0-8.762-3.931-8.762-8.762s3.931-8.762,8.762-8.762s8.761,3.931,8.761,8.762
			S196.979,137.69,192.147,137.69z M192.147,124.167c-2.625,0-4.762,2.136-4.762,4.762s2.136,4.762,4.762,4.762
			s4.761-2.136,4.761-4.762S194.773,124.167,192.147,124.167z"/>
	</g>
	<g>
		<path class="st4" d="M205.386,124.451c-4.831,0-8.761-3.931-8.761-8.762s3.93-8.761,8.761-8.761s8.762,3.93,8.762,8.761
			S210.217,124.451,205.386,124.451z M205.386,110.929c-2.625,0-4.761,2.136-4.761,4.761c0,2.626,2.136,4.762,4.761,4.762
			s4.762-2.136,4.762-4.762C210.148,113.064,208.012,110.929,205.386,110.929z"/>
	</g>
	<g>
		<path class="st4" d="M178.908,124.451c-4.831,0-8.761-3.931-8.761-8.762s3.93-8.761,8.761-8.761s8.762,3.93,8.762,8.761
			S183.739,124.451,178.908,124.451z M178.908,110.929c-2.625,0-4.761,2.136-4.761,4.761c0,2.626,2.136,4.762,4.761,4.762
			s4.762-2.136,4.762-4.762C183.67,113.064,181.534,110.929,178.908,110.929z"/>
	</g>
	<g>
		<path class="st4" d="M186.529,188.221c-14.205,0-25.761-11.557-25.761-25.761s11.556-25.76,25.761-25.76
			s25.761,11.556,25.761,25.76S200.733,188.221,186.529,188.221z M186.529,140.7c-11.999,0-21.761,9.762-21.761,21.76
			c0,11.999,9.762,21.761,21.761,21.761s21.761-9.762,21.761-21.761C208.29,150.462,198.528,140.7,186.529,140.7z"/>
	</g>
	<g>
		<path class="st4" d="M186.529,178.203c-8.756,0-15.88-7.124-15.88-15.881s7.124-15.881,15.88-15.881
			c8.757,0,15.881,7.124,15.881,15.881S195.286,178.203,186.529,178.203z M186.529,150.441c-6.551,0-11.88,5.33-11.88,11.881
			s5.33,11.881,11.88,11.881c6.551,0,11.881-5.33,11.881-11.881S193.08,150.441,186.529,150.441z"/>
	</g>
	<g>
		<path class="st4" d="M73.835,188.221c-14.205,0-25.761-11.557-25.761-25.761S59.63,136.7,73.835,136.7s25.761,11.556,25.761,25.76
			S88.04,188.221,73.835,188.221z M73.835,140.7c-11.999,0-21.761,9.762-21.761,21.76c0,11.999,9.762,21.761,21.761,21.761
			s21.761-9.762,21.761-21.761C95.596,150.462,85.834,140.7,73.835,140.7z"/>
	</g>
	<g>
		<path class="st4" d="M76.922,178.368h-6.175c-2.134,0-3.87-1.736-3.87-3.87v-5.219h-5.218c-2.134,0-3.87-1.736-3.87-3.87v-6.175
			c0-2.134,1.736-3.869,3.87-3.869h5.218v-5.219c0-2.134,1.736-3.87,3.87-3.87h6.175c2.134,0,3.87,1.736,3.87,3.87v5.219h5.219
			c2.134,0,3.87,1.735,3.87,3.869v6.175c0,2.134-1.736,3.87-3.87,3.87h-5.219v5.219C80.792,176.632,79.056,178.368,76.922,178.368z
			 M70.877,174.368h5.915v-7.089c0-1.104,0.896-2,2-2h7.089v-5.914h-7.089c-1.104,0-2-0.896-2-2v-7.089h-5.915v7.089
			c0,1.104-0.896,2-2,2h-7.088v5.914h7.088c1.104,0,2,0.896,2,2V174.368z M86.011,159.365h0.01H86.011z"/>
	</g>
</g>
</svg>
