<?xml version="1.0" encoding="utf-8"?>
<!-- Generator: Adobe Illustrator 22.1.0, SVG Export Plug-In . SVG Version: 6.00 Build 0)  -->
<svg version="1.1" id="Layer_1" xmlns="http://www.w3.org/2000/svg" xmlns:xlink="http://www.w3.org/1999/xlink" x="0px" y="0px"
	 viewBox="0 0 256 256" style="enable-background:new 0 0 256 256;" xml:space="preserve">
<style type="text/css">
	.st0{fill:#4671C6;}
	.st1{fill:#F9CFCF;}
	.st2{fill:#F9A7A7;}
	.st3{fill:#A4C9FF;}
	.st4{fill:#3762CC;}
	.st5{fill:#E0EBFC;}
	.st6{fill:#6BDDDD;}
	.st7{fill:#B9BEFC;}
	.st8{fill:#FFEA92;}
	.st9{fill:#EAA97D;}
	.st10{fill:#FFEA94;}
	.st11{fill:#FFE164;}
	.st12{fill:#FFDC85;}
	.st13{fill:#FFFFFF;}
	.st14{fill:#383838;}
</style>
<g>
	<g>
		<path class="st5" d="M214.2,207.2l0-90.2L104.2,117l0,90.2c0,4.86,3.94,8.8,8.8,8.8l92.399,0C210.26,216,214.2,212.06,214.2,207.2
			z"/>
	</g>
	<g>
		<path class="st5" d="M104.2,26.8l0,90.2l109.999,0l0-90.2c0-4.86-3.94-8.8-8.8-8.8L113,18C108.14,18,104.2,21.94,104.2,26.8z"/>
	</g>
	<g>
		<circle class="st2" cx="159.2" cy="165.73" r="14.332"/>
	</g>
	<g>
		<circle class="st2" cx="159.2" cy="67.5" r="14.332"/>
	</g>
	<g>
		<path class="st4" d="M205.399,218H113c-5.955,0-10.8-4.845-10.8-10.8V117c0-1.104,0.896-2,2-2h110c1.104,0,2,0.896,2,2v90.2
			C216.2,213.155,211.354,218,205.399,218z M106.2,119v88.2c0,3.749,3.05,6.8,6.8,6.8h92.399c3.75,0,6.8-3.051,6.8-6.8V119H106.2z"
			/>
	</g>
	<g>
		<path class="st4" d="M214.2,119h-110c-1.104,0-2-0.896-2-2V26.8c0-5.955,4.845-10.8,10.8-10.8H205.4c5.955,0,10.8,4.845,10.8,10.8
			V117C216.2,118.104,215.304,119,214.2,119z M106.2,115h106V26.8c0-3.749-3.05-6.8-6.8-6.8H113c-3.75,0-6.8,3.051-6.8,6.8V115z"/>
	</g>
	<g>
		<path class="st4" d="M159.2,182.062c-9.005,0-16.332-7.326-16.332-16.332c0-9.005,7.327-16.331,16.332-16.331
			s16.332,7.326,16.332,16.331C175.532,174.735,168.206,182.062,159.2,182.062z M159.2,153.398c-6.8,0-12.332,5.531-12.332,12.331
			s5.532,12.332,12.332,12.332s12.332-5.532,12.332-12.332S166,153.398,159.2,153.398z"/>
	</g>
	<g>
		<path class="st4" d="M159.2,83.832c-9.005,0-16.332-7.326-16.332-16.332s7.327-16.332,16.332-16.332s16.332,7.326,16.332,16.332
			S168.206,83.832,159.2,83.832z M159.2,55.168c-6.8,0-12.332,5.532-12.332,12.332S152.4,79.832,159.2,79.832
			S171.532,74.3,171.532,67.5S166,55.168,159.2,55.168z"/>
	</g>
	<g>
		<path class="st5" d="M41.8,48.8l0,90.2l109.999,0l0-90.2c0-4.86-3.94-8.8-8.8-8.8L50.6,40C45.74,40,41.8,43.94,41.8,48.8z"/>
	</g>
	<g>
		<path class="st5" d="M151.8,229.2l0-90.2L41.8,139l0,90.2c0,4.86,3.94,8.8,8.8,8.8L143,238C147.86,238,151.8,234.06,151.8,229.2z"
			/>
	</g>
	<g>
		<circle class="st2" cx="96.8" cy="90.27" r="14.332"/>
	</g>
	<g>
		<circle class="st2" cx="79.2" cy="170.9" r="14.332"/>
	</g>
	<g>
		<circle class="st2" cx="114.4" cy="206.1" r="14.332"/>
	</g>
	<g>
		<path class="st4" d="M151.8,141h-110c-1.104,0-2-0.896-2-2V48.8c0-5.955,4.845-10.8,10.8-10.8H143c5.955,0,10.8,4.845,10.8,10.8
			V139C153.8,140.104,152.904,141,151.8,141z M43.8,137h106V48.8c0-3.749-3.05-6.8-6.8-6.8H50.601c-3.75,0-6.8,3.051-6.8,6.8V137z"
			/>
	</g>
	<g>
		<path class="st4" d="M143,240H50.6c-5.955,0-10.8-4.845-10.8-10.8V139c0-1.104,0.896-2,2-2h110c1.104,0,2,0.896,2,2v90.2
			C153.8,235.155,148.955,240,143,240z M43.8,141v88.2c0,3.749,3.05,6.8,6.8,6.8H143c3.75,0,6.8-3.051,6.8-6.8V141H43.8z"/>
	</g>
	<g>
		<path class="st4" d="M96.8,106.602c-9.005,0-16.332-7.326-16.332-16.331c0-9.006,7.326-16.332,16.332-16.332
			s16.332,7.326,16.332,16.332C113.132,99.275,105.805,106.602,96.8,106.602z M96.8,77.938c-6.8,0-12.332,5.532-12.332,12.332
			S90,102.602,96.8,102.602s12.332-5.531,12.332-12.331S103.6,77.938,96.8,77.938z"/>
	</g>
	<g>
		<path class="st4" d="M79.2,187.232c-9.005,0-16.332-7.326-16.332-16.332s7.327-16.332,16.332-16.332s16.332,7.326,16.332,16.332
			S88.206,187.232,79.2,187.232z M79.2,158.568c-6.8,0-12.332,5.532-12.332,12.332S72.4,183.232,79.2,183.232
			S91.532,177.7,91.532,170.9S86,158.568,79.2,158.568z"/>
	</g>
	<g>
		<path class="st4" d="M114.4,222.432c-9.005,0-16.332-7.326-16.332-16.332s7.327-16.332,16.332-16.332s16.332,7.326,16.332,16.332
			S123.405,222.432,114.4,222.432z M114.4,193.768c-6.8,0-12.332,5.532-12.332,12.332s5.532,12.332,12.332,12.332
			s12.332-5.532,12.332-12.332S121.2,193.768,114.4,193.768z"/>
	</g>
</g>
</svg>
