<?xml version="1.0" encoding="utf-8"?>
<!-- Generator: Adobe Illustrator 22.1.0, SVG Export Plug-In . SVG Version: 6.00 Build 0)  -->
<svg version="1.1" id="Layer_1" xmlns="http://www.w3.org/2000/svg" xmlns:xlink="http://www.w3.org/1999/xlink" x="0px" y="0px"
	 viewBox="0 0 256 256" style="enable-background:new 0 0 256 256;" xml:space="preserve">
<style type="text/css">
	.st0{fill:#4671C6;}
	.st1{fill:#F9CFCF;}
	.st2{fill:#F9A7A7;}
	.st3{fill:#A4C9FF;}
	.st4{fill:#3762CC;}
	.st5{fill:#E0EBFC;}
	.st6{fill:#6BDDDD;}
	.st7{fill:#B9BEFC;}
	.st8{fill:#FFEA92;}
	.st9{fill:#EAA97D;}
	.st10{fill:#FFEA94;}
	.st11{fill:#FFE164;}
	.st12{fill:#FFDC85;}
	.st13{fill:#FFFFFF;}
	.st14{fill:#383838;}
</style>
<g>
	<g>
		<path class="st2" d="M203.58,166.047c0-0.829,0-1.084,0-1.913c5.49-3.471,9.103-9.368,9.103-16.059
			c0-9.81-7.766-17.911-17.83-19.164c-0.854-0.106-1.326-0.958-0.928-1.676c1.475-2.663,2.313-5.689,2.315-8.899
			c0.008-10.423-9.055-19.136-20.132-19.346c-3.962-0.075-7.672,0.909-10.84,2.666c-0.337,0.187-0.749,0.197-1.09,0.016
			c-0.515-0.272-0.684-0.816-0.496-1.285c1.105-2.756,1.562-5.811,1.188-9.003c-2.013-17.162-25.645-23.47-36.869-9.414
			c-4.017-5.03-10.579-8.158-17.888-7.688c-13.419,0.864-22.717,13.819-17.793,26.105c0.194,0.485-0.002,1.024-0.482,1.278
			c-0.282,0.172-0.73,0.199-1.104-0.009c-17.732-9.835-38.078,8.57-28.657,25.579c0.398,0.718-0.075,1.57-0.928,1.676
			c-10.064,1.254-17.83,9.354-17.83,19.164c0,6.691,3.613,12.588,9.103,16.059c0,0.829,0,1.084,0,1.913
			c-5.49,3.472-9.103,9.368-9.103,16.06c0,11.666,10.822,19.801,20.579,19.336c0.956-0.001,1.554,0.955,1.065,1.728
			c-2.181,3.444-3.258,7.578-2.765,11.973c1.694,15.104,20.866,22.672,33.534,12.797c0.712-0.555,1.8-0.166,1.952,0.692
			c2.341,13.171,17.942,20.193,30.317,13.655c12.338,6.518,27.97-0.452,30.317-13.655c0.152-0.858,1.24-1.247,1.952-0.692
			c12.657,9.867,31.84,2.315,33.534-12.797c0.493-4.395-0.584-8.529-2.765-11.973c-0.489-0.773,0.109-1.729,1.065-1.728
			c0.008,0,0.016,0,0.025,0C212.436,201.443,220.315,176.629,203.58,166.047z"/>
	</g>
	<g>
		<path class="st1" d="M99.149,186.988c0.032,10.351,8.903,18.75,19.787,18.75c0.021,0,0.041,0,0.062,0
			c1.79-0.006,3.237-1.461,3.233-3.252c-0.005-1.787-1.456-3.233-3.242-3.233c-0.016,0-0.033,0-0.052,0
			c-7.317,0-13.282-5.504-13.302-12.287c-0.011-3.254,1.338-6.328,3.796-8.655c2.514-2.379,5.876-3.695,9.467-3.705
			c1.79-0.005,3.237-1.461,3.233-3.252c-0.005-1.79-1.469-3.242-3.252-3.233c-5.249,0.015-10.187,1.961-13.904,5.48
			C101.201,177.173,99.132,181.926,99.149,186.988z"/>
	</g>
	<g>
		<path class="st1" d="M207.773,165.09c5.151-4.261,8.151-10.433,8.151-17.016c0-10.4-7.537-19.383-17.934-21.884
			c0.978-2.503,1.49-5.173,1.491-7.854c0.009-12.213-10.448-22.347-23.312-22.59c-2.789-0.053-5.572,0.361-8.194,1.212
			c3.396-21.22-23.647-34.516-39.974-19.665c-16.44-14.969-43.339-1.335-39.976,19.665c-18.98-6.163-36.953,11.524-30.013,29.231
			c-10.399,2.501-17.936,11.484-17.936,21.884c0,6.583,3,12.755,8.151,17.016c-5.151,4.261-8.151,10.433-8.151,17.016
			c0,11.394,8.939,20.843,20.535,22.365c-8.799,20.268,15.259,39.235,34.632,27.721c4.3,13.109,19.797,19.415,32.757,13.691
			c12.969,5.729,28.459-0.589,32.756-13.691c4.25,2.528,9.247,3.716,14.338,3.373c11.305-0.761,20.733-9.384,21.932-20.06
			c0.427-3.818-0.136-7.575-1.637-11.031c11.583-1.513,20.535-10.967,20.535-22.367C215.924,175.523,212.924,169.351,207.773,165.09
			z M124.758,240.217c-10.169,4.043-22.025-1.694-23.882-12.151c-0.59-3.317-4.546-4.704-7.138-2.684
			c-13.62,10.618-33.817-2.785-27.201-18.262c0.001-0.002,0.003-0.005,0.005-0.007c3.085-6.257,11.058-8.962,17.765-6.036
			c6.555,2.859,9.482,10.092,6.44,16.265c-1.897,3.849,3.926,6.708,5.816,2.866c4.561-9.251,0.545-20.622-9.663-25.074
			c-6.598-2.879-14.039-1.979-19.616,1.726l0.003-0.008c-4.322,3.946-20.726-1.201-20.726-14.746c0-5.304,2.81-10.252,7.517-13.264
			c2.767,1.301,5.765,1.954,8.757,1.953c5.811,0,11.577-2.405,15.468-7.015c3.031-3.591,4.526-8.017,4.314-12.577
			c0.027-0.18,0.047-0.363,0.043-0.552c-0.071-3.111,1.118-6.107,3.348-8.436c2.487-2.598,5.917-4.07,9.661-4.147
			c0.098-0.002,0.196-0.003,0.296-0.003c7.206,0,13.142,5.355,13.298,12.062c0.041,1.79,1.509,3.208,3.315,3.166
			c1.79-0.041,3.207-1.526,3.166-3.316c-0.234-10.227-9.066-18.397-19.777-18.397c-0.142,0-0.287,0.001-0.431,0.004
			c-5.477,0.111-10.524,2.293-14.213,6.145c-0.951,0.993-1.765,2.074-2.463,3.212c-1.059-1.378-2.309-2.636-3.762-3.721
			c-1.437-1.073-3.465-0.777-4.539,0.657c-1.072,1.434-0.777,3.466,0.657,4.538c2.772,2.071,4.504,5.016,4.881,8.294
			c0.366,3.197-0.611,6.353-2.75,8.887c-8.875,10.514-26.787,1.846-26.787-11.524c0-8.027,6.443-14.882,14.988-15.947
			c3.141-0.392,4.871-3.753,3.362-6.465c-7.858-14.186,9.338-29.445,24.252-21.17c0.105,0.058,0.216,0.097,0.325,0.145l-0.001,0.004
			l5.218,2.8l-0.002-0.02c11.892,7.637,26.721-3.663,22.239-16.246c-1.435-4.035-7.549-1.865-6.107,2.176
			c0.651,1.828,0.53,3.797-0.34,5.546c-3.651,7.344-17.703,6.184-16.144-7.138c1.607-13.691,20.475-19.487,30.407-8.599V240.217z
			 M192.559,198.179c-0.359-0.058-2.237-0.396-3.908-1.372c-0.012-0.007-0.019-0.008-0.03-0.015
			c-10.77-7.065-25.642-2.524-29.953,9.256c-1.707,4.661-1.433,9.69,0.771,14.16c0.565,1.145,1.714,1.81,2.911,1.81
			c2.38,0,3.971-2.513,2.905-4.676c-1.412-2.865-1.589-6.084-0.497-9.065c3.827-10.461,19.669-11.375,24.702-1.164
			c0.001,0.002,0.003,0.004,0.004,0.006c1.029,2.405,1.417,5.012,1.12,7.662c-1.4,12.456-17.563,18.987-28.321,10.601
			c-2.601-2.029-6.551-0.62-7.136,2.682c-1.385,7.793-8.567,13.449-17.079,13.449c-2.343,0-4.662-0.445-6.804-1.297V83.161
			c9.892-10.846,28.794-5.141,30.407,8.598c1.57,13.422-12.543,14.383-16.144,7.139c-0.871-1.749-0.991-3.719-0.34-5.546
			c0.602-1.687-0.279-3.541-1.966-4.142c-4.87-1.738-6.327,6.893-3.499,12.577c3.99,8.024,14.692,10.658,22.278,5.189l0.007,0.04
			c5.463-2.843,8.406-4.889,14.061-4.786c9.354,0.177,16.958,7.401,16.951,16.103c-0.004,6.767-3.824,7.785-1.988,11.402
			c0.668,1.313,1.955,2.208,3.443,2.394c15.509,1.932,20.589,20.806,7.48,29.204c-0.154,0.08-0.306,0.163-0.45,0.27
			c-5.796,4.33-14.243,3.43-18.829-2.003c-4.472-5.3-3.544-12.942,2.131-17.182c3.436-2.567-0.449-7.758-3.882-5.194
			c-1.452,1.085-2.703,2.343-3.762,3.721c-0.697-1.138-1.512-2.219-2.463-3.212c-12.017-12.547-34.034-4.597-34.42,12.248
			c-0.041,1.79,1.376,3.275,3.166,3.316c1.741,0.041,3.275-1.376,3.315-3.166c0.157-6.798,6.278-12.201,13.594-12.059
			c3.744,0.076,7.174,1.549,9.661,4.147c2.231,2.328,3.419,5.325,3.348,8.436c-0.004,0.189,0.016,0.371,0.043,0.552
			c-0.212,4.56,1.282,8.986,4.314,12.577c5.797,6.866,15.902,8.974,24.225,5.061C215.705,177.66,209.298,197.779,192.559,198.179z"
			/>
	</g>
	<g>
		<path class="st1" d="M137.123,168.122c-0.003,0-0.006,0-0.01,0c-1.786,0-3.237,1.445-3.242,3.233
			c-0.005,1.79,1.442,3.246,3.233,3.252c3.59,0.01,6.953,1.326,9.467,3.705c2.458,2.327,3.807,5.401,3.796,8.656
			c-0.021,6.783-5.984,12.286-13.302,12.286c-0.017,0-0.035,0-0.052,0c-1.786,0-3.237,1.445-3.242,3.233
			c-0.005,1.79,1.442,3.246,3.233,3.252c0.021,0,0.041,0,0.062,0c10.883,0,19.755-8.4,19.787-18.75
			c0.017-5.062-2.052-9.815-5.824-13.386C147.31,170.083,142.372,168.137,137.123,168.122z"/>
	</g>
	<g>
		<path class="st4" d="M117.936,250.001c-3.74,0-7.479-0.775-10.963-2.327c-5.858-2.608-10.326-7.048-12.783-12.645
			c-10.875,5.284-22.284,1.925-29.099-4.076c-7.453-6.564-10.097-15.937-7.198-24.939c-11.457-2.607-19.817-12.495-19.817-23.908
			c0-6.377,2.59-12.462,7.176-17.016c-4.585-4.553-7.176-10.639-7.176-17.016c0-10.569,7.037-19.843,17.363-23.231
			c-2.371-8.079-0.307-16.498,5.714-22.89c6.359-6.75,15.569-9.559,24.601-7.666c-0.341-9.103,4.503-17.356,13.125-22.016
			c9.599-5.188,20.842-4.211,29.122,2.396c8.3-6.615,19.574-7.586,29.205-2.377c8.578,4.638,13.391,12.888,13.04,22.003
			c1.951-0.4,3.944-0.584,5.96-0.547c13.947,0.265,25.285,11.297,25.274,24.593c-0.001,2.204-0.311,4.384-0.924,6.503
			c10.328,3.387,17.367,12.661,17.367,23.232c0,6.377-2.59,12.463-7.176,17.016c4.586,4.554,7.176,10.639,7.176,17.016
			c0,11.424-8.364,21.315-19.825,23.914c0.98,3.115,1.288,6.37,0.915,9.707c-1.305,11.623-11.531,21.009-23.785,21.833
			c-4.698,0.325-9.288-0.557-13.416-2.536c-2.456,5.598-6.923,10.039-12.781,12.647c-6.674,2.97-14.29,3.099-21.032,0.382
			C124.778,249.352,121.357,250.001,117.936,250.001z M95.244,230.191c0.237,0,0.475,0.042,0.702,0.127
			c0.568,0.214,1.009,0.673,1.198,1.25c1.821,5.551,5.89,9.974,11.456,12.452c5.909,2.63,12.685,2.641,18.592,0.032
			c0.515-0.229,1.102-0.229,1.616,0c5.907,2.607,12.686,2.597,18.597-0.036c5.564-2.478,9.63-6.898,11.451-12.448
			c0.189-0.577,0.63-1.037,1.198-1.25c0.569-0.212,1.203-0.156,1.725,0.154c3.936,2.341,8.497,3.412,13.181,3.097
			c10.354-0.697,18.986-8.56,20.079-18.289c0.389-3.479-0.11-6.847-1.484-10.01c-0.25-0.576-0.215-1.236,0.094-1.783
			c0.31-0.546,0.858-0.915,1.481-0.997c10.714-1.399,18.794-10.163,18.794-20.385c0-5.93-2.707-11.57-7.426-15.475
			c-0.459-0.38-0.725-0.945-0.725-1.541c0-0.597,0.266-1.161,0.725-1.541c4.719-3.903,7.426-9.544,7.426-15.475
			c0-9.417-6.745-17.616-16.402-19.939c-0.562-0.135-1.038-0.507-1.305-1.019c-0.268-0.513-0.3-1.115-0.09-1.653
			c0.897-2.296,1.353-4.693,1.354-7.127c0.008-11.13-9.569-20.366-21.35-20.59c-2.563-0.047-5.109,0.326-7.538,1.115
			c-0.661,0.216-1.388,0.071-1.918-0.383c-0.529-0.452-0.785-1.147-0.675-1.836c1.635-10.213-4.453-17.458-10.696-20.834
			c-8.647-4.675-18.835-3.513-25.958,2.965c-0.763,0.694-1.929,0.694-2.692-0.001c-7.103-6.466-17.259-7.638-25.873-2.982
			C94.499,79.186,88.367,86.447,90,96.643c0.11,0.688-0.145,1.383-0.674,1.836s-1.255,0.595-1.918,0.383
			c-8.43-2.737-17.375-0.5-23.342,5.834c-5.452,5.788-7.019,13.551-4.191,20.766c0.211,0.538,0.178,1.142-0.089,1.654
			c-0.268,0.513-0.744,0.885-1.306,1.02c-9.658,2.323-16.403,10.522-16.403,19.939c0,5.931,2.707,11.571,7.426,15.475
			c0.459,0.38,0.725,0.944,0.725,1.541c0,0.596-0.266,1.161-0.725,1.541c-4.719,3.904-7.426,9.545-7.426,15.475
			c0,10.214,8.08,18.977,18.795,20.382c0.623,0.082,1.17,0.451,1.48,0.998c0.31,0.546,0.344,1.206,0.094,1.782
			c-4.174,9.613-0.004,18.021,5.289,22.684c5.711,5.029,16.074,8.71,26.487,2.521C94.535,230.286,94.888,230.191,95.244,230.191z"/>
	</g>
	<g>
		<path class="st3" d="M128,7.998L128,7.998c-30.477,0-55.184,24.707-55.184,55.184l0,0c0,26.408,18.555,48.471,43.335,53.895
			l8.239,17.715c1.428,3.07,5.791,3.07,7.219,0l8.239-17.715c24.781-5.424,43.335-27.487,43.335-53.895l0,0
			C183.184,32.704,158.477,7.998,128,7.998z"/>
	</g>
	<g>
		<path class="st4" d="M128,139.094c-2.353,0-4.431-1.325-5.423-3.459l-7.826-16.827c-25.518-6.062-43.935-29.294-43.935-55.626
			C70.816,31.65,96.469,5.998,128,5.998s57.184,25.652,57.184,57.184c0,26.332-18.417,49.564-43.935,55.626l-7.826,16.827
			C132.431,137.769,130.353,139.094,128,139.094z M128,9.998c-29.326,0-53.184,23.858-53.184,53.184
			c0,24.8,17.564,46.645,41.763,51.94c0.61,0.134,1.123,0.545,1.386,1.11l8.239,17.715c0.495,1.063,1.5,1.146,1.796,1.146
			s1.301-0.083,1.796-1.146l8.239-17.715c0.263-0.565,0.776-0.977,1.386-1.11c24.199-5.296,41.763-27.141,41.763-51.94
			C181.184,33.856,157.326,9.998,128,9.998z"/>
	</g>
	<g>
		<path class="st0" d="M167.17,53.06h-7.933c-0.586-1.873-1.345-3.701-2.26-5.44c5.896-5.896,6.787-6.302,6.787-8.446
			c0-2.169-0.563-2.221-9.297-10.956c-0.756-0.756-1.762-1.173-2.832-1.173c-2.129,0-2.518,0.86-8.445,6.787
			c-1.74-0.915-3.567-1.675-5.44-2.261v-7.933c0-2.208-1.796-4.004-4.004-4.004h-11.49c-2.208,0-4.004,1.796-4.004,4.004v7.933
			c-1.872,0.586-3.7,1.345-5.44,2.261c-5.892-5.892-6.3-6.787-8.445-6.787c-2.173,0-2.239,0.58-10.956,9.297
			c-1.569,1.569-1.562,4.101,0,5.663l5.614,5.615c-0.915,1.739-1.674,3.567-2.26,5.44H88.83c-2.208,0-4.004,1.796-4.004,4.004v11.49
			c0,2.208,1.796,4.004,4.004,4.004h7.933c0.586,1.873,1.345,3.701,2.26,5.44l-5.614,5.614c-1.566,1.566-1.565,4.098,0,5.663
			c12.035,12.035,9.844,12.068,19.401,2.51c1.74,0.915,3.567,1.675,5.44,2.261v7.933c0,2.208,1.796,4.004,4.004,4.004h11.49
			c2.208,0,4.004-1.796,4.004-4.004v-7.933c1.872-0.586,3.7-1.345,5.44-2.261l5.614,5.615c1.565,1.565,4.098,1.565,5.663,0
			c12.108-12.108,12.049-9.862,2.51-19.402c0.915-1.739,1.674-3.567,2.26-5.44h7.933c2.208,0,4.004-1.796,4.004-4.004v-11.49
			C171.174,54.856,169.378,53.06,167.17,53.06z M147.226,62.809c0,10.602-8.625,19.226-19.226,19.226s-19.226-8.625-19.226-19.226
			c0-10.601,8.625-19.226,19.226-19.226S147.226,52.207,147.226,62.809z"/>
	</g>
	<g>
		<path class="st5" d="M128,42.357c-11.277,0-20.451,9.174-20.451,20.451c0,11.278,9.175,20.453,20.451,20.453
			c11.278,0,20.453-9.175,20.453-20.453C148.453,51.531,139.278,42.357,128,42.357z"/>
	</g>
	<g>
		<path class="st2" d="M115.353,65.559l10.854,10.864c0.987,0.988,2.588,0.988,3.575,0.001l10.865-10.865
			c5.567-5.626,0.752-15.123-7.02-14.011c-2.264,0.324-4.15,1.51-5.415,3.16c-0.108,0.141-0.316,0.141-0.424,0
			c-3.51-4.577-10.514-4.236-13.568,0.649h0C112.186,58.609,112.655,62.833,115.353,65.559z"/>
	</g>
</g>
</svg>
