<?xml version="1.0" encoding="utf-8"?>
<!-- Generator: Adobe Illustrator 22.1.0, SVG Export Plug-In . SVG Version: 6.00 Build 0)  -->
<svg version="1.1" id="Layer_1" xmlns="http://www.w3.org/2000/svg" xmlns:xlink="http://www.w3.org/1999/xlink" x="0px" y="0px"
	 viewBox="0 0 256 256" style="enable-background:new 0 0 256 256;" xml:space="preserve">
<style type="text/css">
	.st0{fill:#4671C6;}
	.st1{fill:#F9CFCF;}
	.st2{fill:#F9A7A7;}
	.st3{fill:#A4C9FF;}
	.st4{fill:#3762CC;}
	.st5{fill:#E0EBFC;}
	.st6{fill:#6BDDDD;}
	.st7{fill:#B9BEFC;}
	.st8{fill:#FFEA92;}
	.st9{fill:#EAA97D;}
	.st10{fill:#FFEA94;}
	.st11{fill:#FFE164;}
	.st12{fill:#FFDC85;}
	.st13{fill:#FFFFFF;}
	.st14{fill:#383838;}
</style>
<g>
	<g>
		<path class="st3" d="M65.315,228.944V27.056c0-2.216,1.796-4.012,4.012-4.012h117.347c2.216,0,4.012,1.796,4.012,4.012v201.887
			c0,2.216-1.796,4.012-4.012,4.012H69.326C67.111,232.956,65.315,231.159,65.315,228.944z"/>
	</g>
	<g>
		<path class="st7" d="M207.73,196.855h24c1.105,0,2,0.895,2,2v9.25c0,1.105-0.895,2-2,2h-24c-1.105,0-2-0.895-2-2v-9.25
			C205.73,197.75,206.625,196.855,207.73,196.855z"/>
	</g>
	<g>
		<path class="st7" d="M207.73,160.855h24c1.105,0,2,0.895,2,2v9.25c0,1.105-0.895,2-2,2h-24c-1.105,0-2-0.895-2-2v-9.25
			C205.73,161.75,206.625,160.855,207.73,160.855z"/>
	</g>
	<g>
		<path class="st5" d="M205.73,199.355H32.23c-2.209,0-4,1.791-4,4c0,2.209,1.791,4,4,4h173.5V199.355z"/>
	</g>
	<g>
		<path class="st5" d="M205.73,163.355H32.23c-2.209,0-4,1.791-4,4c0,2.209,1.791,4,4,4h173.5V163.355z"/>
	</g>
	<g>
		<path class="st4" d="M231.729,212.105h-24c-2.206,0-4-1.794-4-4v-9.25c0-2.206,1.794-4,4-4h24c2.206,0,4,1.794,4,4v9.25
			C235.729,210.311,233.936,212.105,231.729,212.105z M207.729,198.855h-0.003l0.003,9.25h24v-9.25H207.729z"/>
	</g>
	<g>
		<path class="st4" d="M231.729,176.105h-24c-2.206,0-4-1.794-4-4v-9.25c0-2.206,1.794-4,4-4h24c2.206,0,4,1.794,4,4v9.25
			C235.729,174.311,233.936,176.105,231.729,176.105z M207.729,162.855h-0.003l0.003,9.25h24v-9.25H207.729z"/>
	</g>
	<g>
		<path class="st4" d="M205.729,209.355h-173.5c-3.309,0-6-2.691-6-6s2.691-6,6-6h173.5c1.104,0,2,0.896,2,2v8
			C207.729,208.459,206.834,209.355,205.729,209.355z M32.229,201.355c-1.103,0-2,0.897-2,2s0.897,2,2,2h171.5v-4H32.229z"/>
	</g>
	<g>
		<path class="st4" d="M205.729,173.355h-173.5c-3.309,0-6-2.691-6-6s2.691-6,6-6h173.5c1.104,0,2,0.896,2,2v8
			C207.729,172.459,206.834,173.355,205.729,173.355z M32.229,165.355c-1.103,0-2,0.897-2,2s0.897,2,2,2h171.5v-4H32.229z"/>
	</g>
	<g>
		<path class="st4" d="M190.686,129.948H65.314c-1.657,0-3-1.343-3-3s1.343-3,3-3h125.371c1.657,0,3,1.343,3,3
			S192.343,129.948,190.686,129.948z"/>
	</g>
	<g>
		<path class="st4" d="M125.746,149.918c-12.666,0-22.971-10.305-22.971-22.971s10.305-22.97,22.971-22.97
			s22.971,10.304,22.971,22.97S138.412,149.918,125.746,149.918z M125.746,109.978c-9.357,0-16.971,7.613-16.971,16.97
			c0,9.358,7.613,16.971,16.971,16.971s16.971-7.613,16.971-16.971C142.717,117.59,135.104,109.978,125.746,109.978z"/>
	</g>
	<g>
		<path class="st2" d="M172.526,201.733v3.534c0,2.43-1.97,4.4-4.4,4.4h-20.611c-2.43,0-4.4-1.97-4.4-4.4v-3.534
			c0-2.43,1.97-4.4,4.4-4.4h20.611C170.556,197.333,172.526,199.303,172.526,201.733z"/>
	</g>
	<g>
		<path class="st2" d="M114.886,201.733v3.534c0,2.43-1.97,4.4-4.4,4.4H89.874c-2.43,0-4.4-1.97-4.4-4.4v-3.534
			c0-2.43,1.97-4.4,4.4-4.4h20.611C112.916,197.333,114.886,199.303,114.886,201.733z"/>
	</g>
	<g>
		<path class="st2" d="M141.57,165.858v3.534c0,2.43-1.97,4.4-4.4,4.4h-20.611c-2.43,0-4.4-1.97-4.4-4.4v-3.534
			c0-2.43,1.97-4.4,4.4-4.4h20.611C139.6,161.458,141.57,163.428,141.57,165.858z"/>
	</g>
	<g>
		<path class="st2" d="M182.57,165.733v3.534c0,2.43-1.97,4.4-4.4,4.4h-20.611c-2.43,0-4.4-1.97-4.4-4.4v-3.534
			c0-2.43,1.97-4.4,4.4-4.4h20.611C180.6,161.333,182.57,163.303,182.57,165.733z"/>
	</g>
	<g>
		<path class="st2" d="M102.841,165.733v3.534c0,2.43-1.97,4.4-4.4,4.4H77.83c-2.43,0-4.4-1.97-4.4-4.4v-3.534
			c0-2.43,1.97-4.4,4.4-4.4h20.611C100.871,161.333,102.841,163.303,102.841,165.733z"/>
	</g>
	<g>
		<path class="st6" d="M48.27,58.79h-24c-1.105,0-2-0.895-2-2v-9.25c0-1.105,0.895-2,2-2h24c1.105,0,2,0.895,2,2v9.25
			C50.27,57.895,49.375,58.79,48.27,58.79z"/>
	</g>
	<g>
		<path class="st6" d="M48.27,94.79h-24c-1.105,0-2-0.895-2-2v-9.25c0-1.105,0.895-2,2-2h24c1.105,0,2,0.895,2,2v9.25
			C50.27,93.895,49.375,94.79,48.27,94.79z"/>
	</g>
	<g>
		<path class="st5" d="M221.77,48.29H50.27v8h171.5c2.209,0,4-1.791,4-4S223.979,48.29,221.77,48.29z"/>
	</g>
	<g>
		<path class="st5" d="M221.77,84.29H50.27v8h171.5c2.209,0,4-1.791,4-4S223.979,84.29,221.77,84.29z"/>
	</g>
	<g>
		<path class="st4" d="M48.271,60.79h-24c-2.206,0-4-1.794-4-4v-9.25c0-2.206,1.794-4,4-4h24c2.206,0,4,1.794,4,4v9.25
			C52.271,58.996,50.477,60.79,48.271,60.79z M24.271,47.54v9.25h24.003l-0.003-9.25H24.271z"/>
	</g>
	<g>
		<path class="st4" d="M48.271,96.79h-24c-2.206,0-4-1.794-4-4v-9.25c0-2.206,1.794-4,4-4h24c2.206,0,4,1.794,4,4v9.25
			C52.271,94.996,50.477,96.79,48.271,96.79z M24.271,83.54v9.25h24.003l-0.003-9.25H24.271z"/>
	</g>
	<g>
		<path class="st4" d="M221.771,58.29h-171.5c-1.104,0-2-0.896-2-2v-8c0-1.104,0.896-2,2-2h171.5c3.309,0,6,2.691,6,6
			S225.079,58.29,221.771,58.29z M52.271,54.29h169.5c1.103,0,2-0.897,2-2s-0.897-2-2-2h-169.5V54.29z"/>
	</g>
	<g>
		<path class="st4" d="M221.771,94.29h-171.5c-1.104,0-2-0.896-2-2v-8c0-1.104,0.896-2,2-2h171.5c3.309,0,6,2.691,6,6
			S225.079,94.29,221.771,94.29z M52.271,90.29h169.5c1.103,0,2-0.897,2-2s-0.897-2-2-2h-169.5V90.29z"/>
	</g>
	<g>
		<path class="st6" d="M83.339,54.057v-3.534c0-2.43,1.97-4.4,4.4-4.4h20.611c2.43,0,4.4,1.97,4.4,4.4v3.534
			c0,2.43-1.97,4.4-4.4,4.4H87.739C85.309,58.457,83.339,56.487,83.339,54.057z"/>
	</g>
	<g>
		<path class="st6" d="M143.25,54.057v-3.534c0-2.43,1.97-4.4,4.4-4.4h20.611c2.43,0,4.4,1.97,4.4,4.4v3.534
			c0,2.43-1.97,4.4-4.4,4.4H147.65C145.22,58.457,143.25,56.487,143.25,54.057z"/>
	</g>
	<g>
		<path class="st6" d="M113.294,89.932v-3.534c0-2.43,1.97-4.4,4.4-4.4h20.611c2.43,0,4.4,1.97,4.4,4.4v3.534
			c0,2.43-1.97,4.4-4.4,4.4h-20.611C115.264,94.332,113.294,92.362,113.294,89.932z"/>
	</g>
	<g>
		<path class="st6" d="M72.294,90.057v-3.534c0-2.43,1.97-4.4,4.4-4.4h20.611c2.43,0,4.4,1.97,4.4,4.4v3.534
			c0,2.43-1.97,4.4-4.4,4.4H76.694C74.264,94.457,72.294,92.487,72.294,90.057z"/>
	</g>
	<g>
		<circle class="st6" cx="87" cy="88.29" r="7.543"/>
	</g>
	<g>
		<path class="st6" d="M154.294,90.057v-3.534c0-2.43,1.97-4.4,4.4-4.4h20.611c2.43,0,4.4,1.97,4.4,4.4v3.534
			c0,2.43-1.97,4.4-4.4,4.4h-20.611C156.264,94.457,154.294,92.487,154.294,90.057z"/>
	</g>
	<g>
		<path class="st4" d="M108.35,60.457H87.738c-3.528,0-6.399-2.871-6.399-6.4v-3.534c0-3.529,2.871-6.4,6.399-6.4h20.611
			c3.529,0,6.4,2.871,6.4,6.4v3.534C114.75,57.586,111.879,60.457,108.35,60.457z M87.738,48.123c-1.323,0-2.399,1.077-2.399,2.4
			v3.534c0,1.324,1.076,2.4,2.399,2.4h20.611c1.323,0,2.4-1.077,2.4-2.4v-3.534c0-1.323-1.077-2.4-2.4-2.4H87.738z"/>
	</g>
	<g>
		<path class="st4" d="M138.306,96.332h-20.611c-3.529,0-6.4-2.871-6.4-6.4v-3.534c0-3.529,2.871-6.4,6.4-6.4h20.611
			c3.529,0,6.4,2.871,6.4,6.4v3.534C144.706,93.461,141.835,96.332,138.306,96.332z M117.694,83.998c-1.323,0-2.4,1.077-2.4,2.4
			v3.534c0,1.324,1.077,2.4,2.4,2.4h20.611c1.323,0,2.4-1.077,2.4-2.4v-3.534c0-1.323-1.077-2.4-2.4-2.4H117.694z"/>
	</g>
	<g>
		<path class="st4" d="M97.306,96.457H76.694c-3.529,0-6.4-2.871-6.4-6.4v-3.534c0-3.529,2.871-6.4,6.4-6.4h20.611
			c3.529,0,6.4,2.871,6.4,6.4v3.534C103.706,93.586,100.835,96.457,97.306,96.457z M76.694,84.123c-1.323,0-2.4,1.077-2.4,2.4v3.534
			c0,1.324,1.077,2.4,2.4,2.4h20.611c1.323,0,2.4-1.077,2.4-2.4v-3.534c0-1.323-1.077-2.4-2.4-2.4H76.694z"/>
	</g>
	<g>
		<circle class="st6" cx="87" cy="88.29" r="7.543"/>
	</g>
	<g>
		<path class="st4" d="M179.306,96.457h-20.611c-3.529,0-6.4-2.871-6.4-6.4v-3.534c0-3.529,2.871-6.4,6.4-6.4h20.611
			c3.529,0,6.4,2.871,6.4,6.4v3.534C185.706,93.586,182.835,96.457,179.306,96.457z M158.694,84.123c-1.323,0-2.4,1.077-2.4,2.4
			v3.534c0,1.324,1.077,2.4,2.4,2.4h20.611c1.323,0,2.4-1.077,2.4-2.4v-3.534c0-1.323-1.077-2.4-2.4-2.4H158.694z"/>
	</g>
	<g>
		<circle class="st6" cx="98.044" cy="52.29" r="7.543"/>
	</g>
	<g>
		<path class="st4" d="M98.044,61.833c-5.262,0-9.542-4.281-9.542-9.542s4.28-9.542,9.542-9.542s9.543,4.281,9.543,9.542
			S103.306,61.833,98.044,61.833z M98.044,46.748c-3.056,0-5.542,2.486-5.542,5.542s2.486,5.542,5.542,5.542
			c3.057,0,5.543-2.486,5.543-5.542S101.101,46.748,98.044,46.748z"/>
	</g>
	<g>
		<path class="st4" d="M168.262,60.457H147.65c-3.529,0-6.4-2.871-6.4-6.4v-3.534c0-3.529,2.871-6.4,6.4-6.4h20.611
			c3.528,0,6.399,2.871,6.399,6.4v3.534C174.661,57.586,171.79,60.457,168.262,60.457z M147.65,48.123c-1.323,0-2.4,1.077-2.4,2.4
			v3.534c0,1.324,1.077,2.4,2.4,2.4h20.611c1.323,0,2.399-1.077,2.399-2.4v-3.534c0-1.323-1.076-2.4-2.399-2.4H147.65z"/>
	</g>
	<g>
		<circle class="st6" cx="157.956" cy="52.29" r="7.543"/>
	</g>
	<g>
		<path class="st4" d="M157.956,61.833c-5.262,0-9.543-4.281-9.543-9.542s4.281-9.542,9.543-9.542s9.542,4.281,9.542,9.542
			S163.218,61.833,157.956,61.833z M157.956,46.748c-3.057,0-5.543,2.486-5.543,5.542s2.486,5.542,5.543,5.542
			c3.056,0,5.542-2.486,5.542-5.542S161.012,46.748,157.956,46.748z"/>
	</g>
	<g>
		<path class="st4" d="M87,97.833c-5.262,0-9.543-4.281-9.543-9.542s4.281-9.542,9.543-9.542s9.543,4.281,9.543,9.542
			S92.262,97.833,87,97.833z M87,82.748c-3.057,0-5.543,2.486-5.543,5.542s2.486,5.542,5.543,5.542s5.543-2.486,5.543-5.542
			S90.057,82.748,87,82.748z"/>
	</g>
	<g>
		<circle class="st6" cx="128" cy="88.165" r="7.543"/>
	</g>
	<g>
		<path class="st4" d="M128,97.708c-5.262,0-9.543-4.281-9.543-9.542s4.281-9.542,9.543-9.542s9.543,4.281,9.543,9.542
			S133.262,97.708,128,97.708z M128,82.623c-3.057,0-5.543,2.486-5.543,5.542s2.486,5.542,5.543,5.542s5.543-2.486,5.543-5.542
			S131.057,82.623,128,82.623z"/>
	</g>
	<g>
		<circle class="st6" cx="169" cy="88.29" r="7.543"/>
	</g>
	<g>
		<path class="st4" d="M169,97.833c-5.262,0-9.543-4.281-9.543-9.542s4.281-9.542,9.543-9.542s9.543,4.281,9.543,9.542
			S174.262,97.833,169,97.833z M169,82.748c-3.057,0-5.543,2.486-5.543,5.542s2.486,5.542,5.543,5.542s5.543-2.486,5.543-5.542
			S172.057,82.748,169,82.748z"/>
	</g>
	<g>
		<path class="st4" d="M178.17,175.667h-20.611c-3.528,0-6.399-2.871-6.399-6.4v-3.534c0-3.529,2.871-6.4,6.399-6.4h20.611
			c3.529,0,6.4,2.871,6.4,6.4v3.534C184.57,172.796,181.699,175.667,178.17,175.667z M157.559,163.333
			c-1.323,0-2.399,1.077-2.399,2.4v3.534c0,1.323,1.076,2.4,2.399,2.4h20.611c1.323,0,2.4-1.077,2.4-2.4v-3.534
			c0-1.324-1.077-2.4-2.4-2.4H157.559z"/>
	</g>
	<g>
		<circle class="st2" cx="167.864" cy="167.5" r="7.543"/>
	</g>
	<g>
		<path class="st4" d="M167.864,177.042c-5.262,0-9.542-4.281-9.542-9.542s4.28-9.542,9.542-9.542s9.543,4.281,9.543,9.542
			S173.126,177.042,167.864,177.042z M167.864,161.958c-3.056,0-5.542,2.486-5.542,5.542s2.486,5.542,5.542,5.542
			c3.057,0,5.543-2.486,5.543-5.542S170.921,161.958,167.864,161.958z"/>
	</g>
	<g>
		<path class="st4" d="M137.17,175.792h-20.611c-3.528,0-6.399-2.871-6.399-6.4v-3.534c0-3.529,2.871-6.4,6.399-6.4h20.611
			c3.529,0,6.4,2.871,6.4,6.4v3.534C143.57,172.921,140.699,175.792,137.17,175.792z M116.559,163.458
			c-1.323,0-2.399,1.077-2.399,2.4v3.534c0,1.323,1.076,2.4,2.399,2.4h20.611c1.323,0,2.4-1.077,2.4-2.4v-3.534
			c0-1.324-1.077-2.4-2.4-2.4H116.559z"/>
	</g>
	<g>
		<circle class="st2" cx="126.864" cy="167.625" r="7.543"/>
	</g>
	<g>
		<path class="st4" d="M126.864,177.167c-5.262,0-9.542-4.281-9.542-9.542s4.28-9.542,9.542-9.542s9.543,4.281,9.543,9.542
			S132.126,177.167,126.864,177.167z M126.864,162.083c-3.056,0-5.542,2.486-5.542,5.542s2.486,5.542,5.542,5.542
			c3.057,0,5.543-2.486,5.543-5.542S129.921,162.083,126.864,162.083z"/>
	</g>
	<g>
		<path class="st4" d="M168.126,211.667h-20.611c-3.529,0-6.4-2.871-6.4-6.4v-3.534c0-3.529,2.871-6.4,6.4-6.4h20.611
			c3.528,0,6.399,2.871,6.399,6.4v3.534C174.525,208.796,171.654,211.667,168.126,211.667z M147.515,199.333
			c-1.323,0-2.4,1.077-2.4,2.4v3.534c0,1.323,1.077,2.4,2.4,2.4h20.611c1.323,0,2.399-1.077,2.399-2.4v-3.534
			c0-1.324-1.076-2.4-2.399-2.4H147.515z"/>
	</g>
	<g>
		<path class="st4" d="M110.485,211.667H89.874c-3.528,0-6.399-2.871-6.399-6.4v-3.534c0-3.529,2.871-6.4,6.399-6.4h20.611
			c3.529,0,6.4,2.871,6.4,6.4v3.534C116.886,208.796,114.015,211.667,110.485,211.667z M89.874,199.333
			c-1.323,0-2.399,1.077-2.399,2.4v3.534c0,1.323,1.076,2.4,2.399,2.4h20.611c1.323,0,2.4-1.077,2.4-2.4v-3.534
			c0-1.324-1.077-2.4-2.4-2.4H89.874z"/>
	</g>
	<g>
		<path class="st4" d="M98.441,175.667H77.83c-3.529,0-6.4-2.871-6.4-6.4v-3.534c0-3.529,2.871-6.4,6.4-6.4h20.611
			c3.528,0,6.399,2.871,6.399,6.4v3.534C104.841,172.796,101.97,175.667,98.441,175.667z M77.83,163.333c-1.323,0-2.4,1.077-2.4,2.4
			v3.534c0,1.323,1.077,2.4,2.4,2.4h20.611c1.323,0,2.399-1.077,2.399-2.4v-3.534c0-1.324-1.076-2.4-2.399-2.4H77.83z"/>
	</g>
	<g>
		<circle class="st2" cx="88.136" cy="167.5" r="7.543"/>
	</g>
	<g>
		<path class="st4" d="M88.136,177.042c-5.262,0-9.543-4.281-9.543-9.542s4.281-9.542,9.543-9.542s9.542,4.281,9.542,9.542
			S93.397,177.042,88.136,177.042z M88.136,161.958c-3.057,0-5.543,2.486-5.543,5.542s2.486,5.542,5.543,5.542
			c3.056,0,5.542-2.486,5.542-5.542S91.191,161.958,88.136,161.958z"/>
	</g>
	<g>
		<circle class="st2" cx="100.18" cy="203.5" r="7.543"/>
	</g>
	<g>
		<path class="st4" d="M100.18,213.042c-5.262,0-9.542-4.281-9.542-9.542s4.28-9.542,9.542-9.542s9.543,4.281,9.543,9.542
			S105.441,213.042,100.18,213.042z M100.18,197.958c-3.056,0-5.542,2.486-5.542,5.542s2.486,5.542,5.542,5.542
			c3.057,0,5.543-2.486,5.543-5.542S103.236,197.958,100.18,197.958z"/>
	</g>
	<g>
		<circle class="st2" cx="157.82" cy="203.5" r="7.543"/>
	</g>
	<g>
		<path class="st4" d="M157.82,213.042c-5.262,0-9.543-4.281-9.543-9.542s4.281-9.542,9.543-9.542s9.542,4.281,9.542,9.542
			S163.082,213.042,157.82,213.042z M157.82,197.958c-3.057,0-5.543,2.486-5.543,5.542s2.486,5.542,5.543,5.542
			c3.056,0,5.542-2.486,5.542-5.542S160.876,197.958,157.82,197.958z"/>
	</g>
	<g>
		<path class="st0" d="M197.706,8H58.294c-4.431,0-8.024,3.592-8.024,8.024v223.953c0,4.431,3.592,8.024,8.024,8.024h139.413
			c4.431,0,8.024-3.592,8.024-8.024V16.024C205.73,11.592,202.138,8,197.706,8z M190.685,228.944c0,2.216-1.796,4.012-4.012,4.012
			H69.326c-2.216,0-4.012-1.796-4.012-4.012V27.056c0-2.216,1.796-4.012,4.012-4.012h117.347c2.216,0,4.012,1.796,4.012,4.012
			V228.944z"/>
	</g>
	<g>
		<path class="st4" d="M197.706,250H58.294c-5.527,0-10.023-4.497-10.023-10.024V16.024C48.271,10.497,52.767,6,58.294,6h139.412
			c5.527,0,10.023,4.497,10.023,10.024v223.952C207.729,245.503,203.233,250,197.706,250z M58.294,10
			c-3.321,0-6.023,2.702-6.023,6.024v223.952c0,3.322,2.702,6.024,6.023,6.024h139.412c3.321,0,6.023-2.702,6.023-6.024V16.024
			c0-3.322-2.702-6.024-6.023-6.024H58.294z"/>
	</g>
	<g>
		<path class="st4" d="M186.674,234.956H69.326c-3.314,0-6.012-2.697-6.012-6.012V27.056c0-3.315,2.697-6.012,6.012-6.012h117.348
			c3.314,0,6.012,2.697,6.012,6.012v201.888C192.686,232.259,189.988,234.956,186.674,234.956z M69.326,25.044
			c-1.109,0-2.012,0.902-2.012,2.012v201.888c0,1.109,0.902,2.012,2.012,2.012h117.348c1.109,0,2.012-0.902,2.012-2.012V27.056
			c0-1.109-0.902-2.012-2.012-2.012H69.326z"/>
	</g>
	<g>
		<rect x="98.546" y="8" class="st1" width="59.911" height="15.044"/>
	</g>
	<g>
		<rect x="98.546" y="232.956" class="st1" width="59.911" height="15.044"/>
	</g>
	<g>
		<path class="st4" d="M158.457,25.044H98.546c-1.104,0-2-0.896-2-2V8c0-1.104,0.896-2,2-2h59.911c1.104,0,2,0.896,2,2v15.044
			C160.457,24.149,159.562,25.044,158.457,25.044z M100.546,21.044h55.911V10h-55.911V21.044z"/>
	</g>
	<g>
		<path class="st4" d="M158.457,250H98.546c-1.104,0-2-0.896-2-2v-15.044c0-1.104,0.896-2,2-2h59.911c1.104,0,2,0.896,2,2V248
			C160.457,249.104,159.562,250,158.457,250z M100.546,246h55.911v-11.044h-55.911V246z"/>
	</g>
</g>
</svg>
