<?xml version="1.0" encoding="utf-8"?>
<!-- Generator: Adobe Illustrator 22.1.0, SVG Export Plug-In . SVG Version: 6.00 Build 0)  -->
<svg version="1.1" id="Layer_1" xmlns="http://www.w3.org/2000/svg" xmlns:xlink="http://www.w3.org/1999/xlink" x="0px" y="0px"
	 viewBox="0 0 256 256" style="enable-background:new 0 0 256 256;" xml:space="preserve">
<style type="text/css">
	.st0{fill:#4671C6;}
	.st1{fill:#F9CFCF;}
	.st2{fill:#F9A7A7;}
	.st3{fill:#A4C9FF;}
	.st4{fill:#3762CC;}
	.st5{fill:#E0EBFC;}
	.st6{fill:#6BDDDD;}
	.st7{fill:#B9BEFC;}
	.st8{fill:#FFEA92;}
	.st9{fill:#EAA97D;}
	.st10{fill:#FFEA94;}
	.st11{fill:#FFE164;}
	.st12{fill:#FFDC85;}
	.st13{fill:#FFFFFF;}
	.st14{fill:#383838;}
</style>
<g>
	<g>
		<path class="st0" d="M238.175,193.754H17.825V57.246c0-6.627,5.373-12,12-12h196.349c6.627,0,12,5.373,12,12V193.754z"/>
	</g>
	<g>
		<path class="st7" d="M140,57.448h-24c-1.657,0-3-1.343-3-3v-4c0-1.657,1.343-3,3-3h24c1.657,0,3,1.343,3,3v4
			C143,56.105,141.657,57.448,140,57.448z"/>
	</g>
	<g>
		<path class="st3" d="M240,210.754H16c-4.418,0-8-3.582-8-8v-7c0-1.105,0.895-2,2-2h236c1.105,0,2,0.895,2,2v7
			C248,207.172,244.418,210.754,240,210.754z"/>
	</g>
	<g>
		<path class="st6" d="M27.619,179.351v-113.7c0-3.314,2.686-6,6-6h188.763c3.314,0,6,2.686,6,6v113.7c0,3.314-2.686,6-6,6H33.619
			C30.305,185.351,27.619,182.665,27.619,179.351z"/>
	</g>
	<g>
		<circle class="st5" cx="128" cy="52.448" r="3.607"/>
	</g>
	<g>
		<path class="st4" d="M240,212.754H16c-5.514,0-10-4.486-10-10v-7c0-2.206,1.794-4,4-4h236c2.206,0,4,1.794,4,4v7
			C250,208.269,245.514,212.754,240,212.754z M10,195.754v7c0,3.309,2.691,6,6,6h224c3.309,0,6-2.691,6-6v-7H10z"/>
	</g>
	<g>
		<path class="st5" d="M112,193.754h32v6.5c0,1.105-0.895,2-2,2h-28c-1.105,0-2-0.895-2-2V193.754z"/>
	</g>
	<g>
		<path class="st4" d="M238.175,195.754H17.825c-1.104,0-2-0.896-2-2V57.246c0-7.72,6.28-14,14-14h196.35c7.72,0,14,6.28,14,14
			v136.509C240.175,194.859,239.279,195.754,238.175,195.754z M19.825,191.754h216.35V57.246c0-5.514-4.486-10-10-10H29.825
			c-5.514,0-10,4.486-10,10V191.754z"/>
	</g>
	<g>
		<path class="st4" d="M142,204.254h-28c-2.206,0-4-1.794-4-4v-6.5c0-1.104,0.896-2,2-2h32c1.104,0,2,0.896,2,2v6.5
			C146,202.46,144.206,204.254,142,204.254z M114,195.754v4.5h28v-4.5H114z"/>
	</g>
	<g>
		<path class="st2" d="M61.623,92.203H46.5c-1.657,0-3-1.343-3-3V74.079c0-1.657,1.343-3,3-3h15.123c1.657,0,3,1.343,3,3v15.123
			C64.623,90.859,63.28,92.203,61.623,92.203z"/>
	</g>
	<g>
		<path class="st1" d="M61.623,124.203H46.5c-1.657,0-3-1.343-3-3v-15.123c0-1.657,1.343-3,3-3h15.123c1.657,0,3,1.343,3,3v15.123
			C64.623,122.859,63.28,124.203,61.623,124.203z"/>
	</g>
	<g>
		<path class="st2" d="M61.623,158.203H46.5c-1.657,0-3-1.343-3-3v-15.123c0-1.657,1.343-3,3-3h15.123c1.657,0,3,1.343,3,3v15.123
			C64.623,156.859,63.28,158.203,61.623,158.203z"/>
	</g>
	<g>
		<path class="st5" d="M228.381,179.351v-7.105H27.619v7.105c0,3.314,2.686,6,6,6h188.763
			C225.695,185.351,228.381,182.665,228.381,179.351z"/>
	</g>
	<g>
		<path class="st4" d="M222.381,187.351H33.619c-4.411,0-8-3.589-8-8v-113.7c0-4.411,3.589-8,8-8h188.763c4.411,0,8,3.589,8,8v113.7
			C230.381,183.762,226.792,187.351,222.381,187.351z M33.619,61.651c-2.206,0-4,1.794-4,4v113.7c0,2.206,1.794,4,4,4h188.763
			c2.206,0,4-1.794,4-4v-113.7c0-2.206-1.794-4-4-4H33.619z"/>
	</g>
</g>
</svg>
