<?xml version="1.0" encoding="utf-8"?>
<!-- Generator: Adobe Illustrator 22.1.0, SVG Export Plug-In . SVG Version: 6.00 Build 0)  -->
<svg version="1.1" id="Layer_1" xmlns="http://www.w3.org/2000/svg" xmlns:xlink="http://www.w3.org/1999/xlink" x="0px" y="0px"
	 viewBox="0 0 256 256" style="enable-background:new 0 0 256 256;" xml:space="preserve">
<style type="text/css">
	.st0{fill:#4671C6;}
	.st1{fill:#F9CFCF;}
	.st2{fill:#F9A7A7;}
	.st3{fill:#A4C9FF;}
	.st4{fill:#3762CC;}
	.st5{fill:#E0EBFC;}
	.st6{fill:#6BDDDD;}
	.st7{fill:#B9BEFC;}
	.st8{fill:#FFEA92;}
	.st9{fill:#EAA97D;}
	.st10{fill:#FFEA94;}
	.st11{fill:#FFE164;}
	.st12{fill:#FFDC85;}
	.st13{fill:#FFFFFF;}
	.st14{fill:#383838;}
</style>
<g>
	<g>
		<path class="st1" d="M112.991,90.699l-29.023,0c-24.847,0-44.989,19.302-44.989,43.111l0,33.065c0,1.592-1.347,2.882-3.008,2.882
			h0c-4.394,0-8.318,3.078-8.736,7.27c-0.479,4.809,3.455,8.854,8.374,8.854h3.37l0,7.976c0,23.81,20.142,43.111,44.989,43.111
			l29.023,0c27.453,0,49.708-21.326,49.708-47.633l0-51.004C162.699,112.025,140.444,90.699,112.991,90.699z"/>
	</g>
	<g>
		<path class="st4" d="M112.991,238.97H83.968c-25.909,0-46.988-20.237-46.988-45.111v-5.977h-1.37c-3.003,0-5.86-1.253-7.839-3.438
			c-1.907-2.106-2.804-4.811-2.524-7.614c0.506-5.087,5.218-9.071,10.726-9.071c0.556,0,1.008-0.396,1.008-0.883v-33.064
			c0-24.874,21.079-45.111,46.988-45.111h29.023c28.512,0,51.708,22.266,51.708,49.633v51.004
			C164.699,216.704,141.503,238.97,112.991,238.97z M83.968,92.699c-23.704,0-42.988,18.442-42.988,41.111v33.064
			c0,2.692-2.246,4.883-5.008,4.883c-3.478,0-6.44,2.401-6.745,5.468c-0.166,1.665,0.37,3.275,1.509,4.533
			c1.222,1.35,2.998,2.123,4.874,2.123h3.37c1.104,0,2,0.896,2,2v7.977c0,22.669,19.284,41.111,42.988,41.111h29.023
			c26.307,0,47.708-20.472,47.708-45.634v-51.004c0-25.162-21.401-45.633-47.708-45.633H83.968z"/>
	</g>
	<g>
		<path class="st4" d="M40.116,205.936c-1.104,0-2-0.896-2-2s0.896-2,2-2c8.266,0,11.358,0,16.07-7.626
			c0.58-0.939,1.813-1.233,2.752-0.65c0.94,0.58,1.231,1.813,0.65,2.752C53.705,205.936,48.591,205.936,40.116,205.936z"/>
	</g>
	<g>
		<path class="st4" d="M60.237,163.9c-4.132,0-7.494-3.356-7.494-7.482v-12.471c0-4.126,3.361-7.483,7.494-7.483
			c4.131,0,7.492,3.357,7.492,7.483v12.471C67.729,160.543,64.368,163.9,60.237,163.9z"/>
	</g>
	<g>
		<path class="st0" d="M186.706,114.177l-0.002,0.004c-4.415-17.802-16.494-32.781-32.739-41.616c0.001-0.002,0.01-0.015,0.01-0.015
			c-20.4-12.302-52.04-10.644-69.95-8.379c-4.036,0.377-8.64,1.05-13.554,2.208c-0.004,0.001-0.015,0.003-0.015,0.003l0.001,0
			c-16.145,3.805-35.59,12.828-48.915,33.686c-0.693,1.085,0.131,2.481,1.465,2.481h9.757c0,0-11.137,6.879-12.49,20.67
			c-0.098,0.997,0.856,1.794,1.867,1.575c8.671-1.875,44.253-8.506,78.888,0.344c1.791,0.458,3.049,2.014,3.049,3.805v9.047
			l0.138,43.932l8.529,24.716c0.813,2.356,2.63,4.362,5.458,5.393c24.532,8.953,22.719,8.339,23.795,8.567l0.001,0.006
			c4.971,2.021,3.592,1.526,6.265,2.296c0,0,23.508-16.814,32.212-37.617C191.269,162.622,192.132,135.913,186.706,114.177z"/>
	</g>
	<g>
		<path class="st4" d="M148.261,224.899c-0.186,0-0.372-0.025-0.554-0.078l-0.937-0.267c-1.265-0.355-1.347-0.389-3.435-1.244
			l-1.947-0.795c-0.701-0.139-0.95-0.229-10.81-3.834l-13.064-4.772c-3.229-1.178-5.596-3.529-6.663-6.62l-8.528-24.715
			c-0.071-0.208-0.108-0.426-0.109-0.646l-0.138-43.932v-9.053c0-0.867-0.635-1.636-1.544-1.868
			c-33.808-8.638-68.227-2.434-77.97-0.326c-1.114,0.237-2.288-0.066-3.136-0.822c-0.836-0.744-1.253-1.802-1.145-2.903
			c0.861-8.788,5.369-14.919,8.931-18.475h-4.207c-1.371,0-2.625-0.735-3.273-1.919c-0.636-1.162-0.59-2.522,0.123-3.639
			c14.133-22.123,35.067-31.003,50.141-34.556c0.015-0.004,0.029-0.007,0.044-0.01c4.474-1.054,9.116-1.809,13.799-2.246
			c17.497-2.215,50.107-4.044,71.169,8.657c0.052,0.031,0.102,0.064,0.149,0.1c16.804,9.223,28.987,24.751,33.461,42.654
			c0.011,0.033,0.02,0.067,0.028,0.102c6.06,24.276,3.68,51.36-6.368,72.45c-8.782,20.996-31.875,37.684-32.854,38.384
			C149.081,224.771,148.674,224.899,148.261,224.899z M142.882,218.805l1.97,0.805c1.958,0.802,1.958,0.802,3.002,1.095l0.006,0.002
			c4.068-3.075,23.26-18.251,30.769-36.196c9.686-20.334,11.973-46.366,6.164-69.743c-0.011-0.034-0.021-0.069-0.029-0.104
			c-4.203-16.947-15.776-31.65-31.754-40.341c-0.104-0.057-0.202-0.122-0.292-0.193c-20.039-11.932-51.457-10.121-68.441-7.973
			c-4.574,0.428-9.043,1.156-13.347,2.17c-0.026,0.007-0.052,0.012-0.078,0.018c-20.633,4.895-36.5,15.722-47.239,32.206h9.15
			c0.895,0,1.68,0.594,1.924,1.454c0.244,0.859-0.112,1.777-0.873,2.247c-0.097,0.062-9.932,6.33-11.47,18.455
			c10.737-2.267,45.217-8.181,79.18,0.495c2.682,0.686,4.554,3.047,4.554,5.743v9.047l0.137,43.593l8.42,24.401
			c0.472,1.365,1.592,3.196,4.253,4.167l13.066,4.773c9.079,3.318,9.82,3.59,10.264,3.677l0.193,0.039
			C142.575,218.676,142.734,218.731,142.882,218.805z"/>
	</g>
	<g>
		<circle class="st1" cx="107.96" cy="156.256" r="21.924"/>
	</g>
	<g>
		<path class="st1" d="M112.991,236.969H83.968c-3.582,0-7.061-0.413-10.402-1.171v10.644c0,0.826,0.669,1.495,1.495,1.495h54.982
			c0.826,0,1.495-0.669,1.495-1.495v-12.913C125.805,235.74,119.55,236.969,112.991,236.969z"/>
	</g>
	<g>
		<path class="st4" d="M130.043,249.938H75.062c-1.927,0-3.495-1.568-3.495-3.495v-10.645c0-0.608,0.276-1.184,0.752-1.563
			c0.477-0.379,1.096-0.521,1.691-0.387c3.278,0.744,6.629,1.122,9.958,1.122h29.023c6.141,0,12.139-1.112,17.827-3.307
			c0.613-0.236,1.308-0.156,1.852,0.217c0.543,0.373,0.868,0.99,0.868,1.649v12.913C133.538,248.369,131.97,249.938,130.043,249.938
			z M75.566,245.938h53.972v-9.576c-5.33,1.731-10.883,2.608-16.547,2.608H83.968c-2.804,0-5.619-0.245-8.401-0.731V245.938z"/>
	</g>
	<g>
		<path class="st3" d="M179.914,8.063l-3.407,0.002c-30.814,0.015-55.781,25.007-55.766,55.821l0,0
			c0.009,18.392,8.921,34.698,22.654,44.855l-1.801,19.094c-0.289,3.064,2.969,5.202,5.666,3.717l22.398-12.338
			c2.264,0.278,4.564,0.438,6.904,0.437l3.407-0.002c30.814-0.015,55.781-25.007,55.766-55.821l0,0
			C235.72,33.015,210.728,8.048,179.914,8.063z"/>
	</g>
	<g>
		<path class="st4" d="M145.41,134.029c-1.116,0-2.229-0.321-3.2-0.959c-1.812-1.188-2.81-3.267-2.606-5.424l1.696-17.982
			c-14.139-10.897-22.55-27.924-22.559-45.777C118.726,32.02,144.64,6.081,176.506,6.064l3.407-0.002l0,0c0.01,0,0.019,0,0.028,0
			c15.427,0,29.932,6.004,40.846,16.907c10.921,10.911,16.939,25.421,16.947,40.858c0.008,15.437-5.996,29.953-16.906,40.874
			s-25.421,16.939-40.858,16.947l-3.407,0.002c-0.007,0-0.015,0-0.022,0c-2.116,0-4.242-0.123-6.479-0.376l-21.837,12.028
			C147.344,133.788,146.376,134.029,145.41,134.029z M179.915,10.063l-3.407,0.002c-29.661,0.015-53.78,24.159-53.767,53.82
			c0.008,16.97,8.174,33.138,21.844,43.247c0.563,0.417,0.867,1.099,0.802,1.796l-1.801,19.094
			c-0.094,0.992,0.542,1.522,0.819,1.705c0.276,0.183,1.019,0.554,1.89,0.073l22.398-12.338c0.369-0.202,0.792-0.285,1.209-0.233
			c2.313,0.284,4.483,0.423,6.638,0.423c0.007,0,0.014,0,0.021,0l3.407-0.002c14.369-0.007,27.875-5.609,38.03-15.774
			s15.743-23.677,15.736-38.045c-0.007-14.369-5.608-27.875-15.774-38.03c-10.158-10.149-23.66-15.737-38.019-15.737
			C179.933,10.063,179.924,10.063,179.915,10.063L179.915,10.063z"/>
	</g>
	<g>
		<path class="st8" d="M178.71,82.906c-10.122,0-18.357-8.235-18.357-18.357s8.235-18.357,18.357-18.357
			c10.122,0,18.357,8.235,18.357,18.357S188.833,82.906,178.71,82.906z"/>
	</g>
	<g>
		<path class="st8" d="M216.109,55.241h-7.575c-0.56-1.788-1.284-3.533-2.158-5.194l5.36-5.361c1.495-1.495,1.494-3.913,0-5.407
			l-7.757-7.757c-0.722-0.722-1.682-1.12-2.704-1.12c-1.021,0-1.981,0.398-2.703,1.12l-5.361,5.361
			c-1.661-0.874-3.406-1.599-5.194-2.158V27.15c0-2.108-1.715-3.823-3.823-3.823h-10.97c-2.108,0-3.823,1.715-3.823,3.823v7.574
			c-1.788,0.559-3.533,1.285-5.194,2.158c-5.628-5.628-6.016-6.48-8.063-6.48c-1.021,0-1.982,0.398-2.704,1.12
			c-8.27,8.27-8.877,8.381-8.877,10.46c0,1.021,0.398,1.982,1.12,2.704l5.36,5.361c-0.874,1.661-1.598,3.406-2.158,5.194h-7.575
			c-2.108,0-3.823,1.715-3.823,3.823v10.97c0,2.108,1.715,3.823,3.823,3.823h7.575c0.56,1.789,1.284,3.533,2.158,5.194l-5.36,5.361
			c-0.722,0.722-1.12,1.682-1.12,2.704s0.398,1.981,1.12,2.703l7.757,7.757c0.722,0.722,1.682,1.12,2.704,1.12
			c1.021,0,1.981-0.398,2.703-1.12l5.361-5.361c1.661,0.874,3.406,1.599,5.194,2.158v7.574c0,2.108,1.715,3.823,3.823,3.823h10.97
			c2.108,0,3.823-1.715,3.823-3.823v-7.574c1.788-0.559,3.533-1.285,5.194-2.158l5.361,5.361c0.722,0.722,1.682,1.12,2.703,1.12
			c1.021,0,1.982-0.398,2.704-1.12l7.757-7.757c1.497-1.498,1.492-3.915,0-5.407l-5.36-5.361c0.874-1.661,1.598-3.406,2.158-5.194
			h7.575c2.108,0,3.823-1.715,3.823-3.823v-10.97C219.932,56.955,218.217,55.241,216.109,55.241z"/>
	</g>
	<g>
		<path class="st6" d="M178.71,82.906c-10.122,0-18.357-8.235-18.357-18.357s8.235-18.357,18.357-18.357
			c10.122,0,18.357,8.235,18.357,18.357S188.833,82.906,178.71,82.906z"/>
	</g>
	<g>
		<path class="st0" d="M183.422,77.694h-9.423c-1.823,0-3.3-1.477-3.3-3.3V58.483c0-4.425,3.587-8.012,8.012-8.012h0
			c4.425,0,8.012,3.587,8.012,8.012v15.911C186.722,76.217,185.245,77.694,183.422,77.694z"/>
	</g>
	<g>
		<path class="st1" d="M178.71,55.309c-4.5,0-6.28,5.828-2.584,8.359v6.717c0,3.415,5.169,3.419,5.169,0v-6.717
			C184.992,61.135,183.208,55.309,178.71,55.309z"/>
	</g>
	<g>
		<path class="st2" d="M203.956,55.321h-25.246v-0.012c-4.499,0-6.28,5.829-2.585,8.359v6.717c0,1.427,1.157,2.585,2.585,2.585
			v-9.766h25.105c1.465,3.349,4.803,5.692,8.692,5.692c5.24,0,9.488-4.247,9.488-9.487
			C221.996,49.337,208.299,46.251,203.956,55.321z M212.508,64.467c-2.794,0-5.059-2.265-5.059-5.059
			c0-2.794,2.265-5.059,5.059-5.059c2.794,0,5.059,2.265,5.059,5.059C217.567,62.202,215.302,64.467,212.508,64.467z"/>
	</g>
</g>
</svg>
