<?xml version="1.0" encoding="utf-8"?>
<!-- Generator: Adobe Illustrator 22.1.0, SVG Export Plug-In . SVG Version: 6.00 Build 0)  -->
<svg version="1.1" id="Layer_1" xmlns="http://www.w3.org/2000/svg" xmlns:xlink="http://www.w3.org/1999/xlink" x="0px" y="0px"
	 viewBox="0 0 256 256" style="enable-background:new 0 0 256 256;" xml:space="preserve">
<style type="text/css">
	.st0{fill:#4671C6;}
	.st1{fill:#F9CFCF;}
	.st2{fill:#F9A7A7;}
	.st3{fill:#A4C9FF;}
	.st4{fill:#3762CC;}
	.st5{fill:#E0EBFC;}
	.st6{fill:#6BDDDD;}
	.st7{fill:#B9BEFC;}
	.st8{fill:#FFEA92;}
	.st9{fill:#EAA97D;}
	.st10{fill:#FFEA94;}
	.st11{fill:#FFE164;}
	.st12{fill:#FFDC85;}
	.st13{fill:#FFFFFF;}
	.st14{fill:#383838;}
</style>
<g>
	<g>
		<path class="st0" d="M174.662,228.367H82.434c-1.657,0-3-1.343-3-3v-66.951c0-27.125,21.989-49.114,49.114-49.114
			c27.105,0,49.114,21.969,49.114,49.114v66.951C177.662,227.024,176.319,228.367,174.662,228.367z"/>
	</g>
	<g>
		<path class="st6" d="M99.304,118.959H53.252c-1.657,0-3,1.343-3,3v26.613c0,1.657,1.343,3,3,3h26.667
			C81.779,138.24,88.981,126.623,99.304,118.959z"/>
	</g>
	<g>
		<path class="st1" d="M50.391,121.102c-3.524-1.621-6.13-1.434-8.844-1.434c-8.356,0-15.13,6.774-15.13,15.13v0.936
			c0,8.356,6.774,15.13,15.13,15.13c2.712,0,5.316,0.189,8.844-1.434C50.164,148.673,50.162,121.864,50.391,121.102z"/>
	</g>
	<g>
		<path class="st1" d="M226.451,88.713c-4.674-6.927-14.078-8.754-21.005-4.08l-1.94,1.309c-1.927,1.3-3.457,2.963-4.59,4.827
			c0.611,0.5,15.608,22.726,15.844,23.482C223.611,112.8,235.255,101.753,226.451,88.713z"/>
	</g>
	<g>
		<path class="st4" d="M43.061,152.87c-0.258,0-0.511-0.002-0.762-0.004l-0.751-0.003c-9.446,0-17.13-7.685-17.13-17.13v-0.937
			c0-9.445,7.685-17.13,17.13-17.13l0.747-0.003c2.509-0.018,5.335-0.035,8.933,1.62c0.837,0.386,1.294,1.286,1.132,2.174
			c-0.18,1.971-0.18,25.64,0,27.615c0.161,0.888-0.296,1.787-1.132,2.173C47.989,152.735,45.372,152.87,43.061,152.87z
			 M43.079,121.66c-0.25,0-0.503,0.002-0.759,0.004l-0.772,0.003c-7.24,0-13.13,5.89-13.13,13.13v0.937
			c0,7.24,5.89,13.13,13.13,13.13l0.778,0.003c2.026,0.017,3.819,0.025,6.029-0.763c-0.169-5.354-0.169-20.322,0-25.676
			C46.424,121.738,44.81,121.66,43.079,121.66z"/>
	</g>
	<g>
		<path class="st4" d="M214.759,116.251c-0.789,0-1.51-0.467-1.83-1.194c-0.954-1.735-14.192-21.355-15.446-22.893
			c-0.63-0.646-0.754-1.647-0.276-2.435c1.333-2.194,3.077-4.027,5.18-5.446l1.94-1.309c3.792-2.559,8.355-3.488,12.847-2.615
			c4.491,0.872,8.374,3.441,10.934,7.234l0,0c4.734,7.012,3.78,12.997,2.147,16.783c-2.985,6.921-9.957,10.992-15.171,11.848
			C214.976,116.242,214.867,116.251,214.759,116.251z M201.349,90.732c3.134,4.341,11.489,16.725,14.35,21.268
			c4.075-1.109,8.818-4.418,10.883-9.207c1.775-4.115,1.157-8.598-1.79-12.961c0,0,0,0,0-0.001c-1.961-2.907-4.938-4.877-8.38-5.546
			c-3.444-0.666-6.94,0.043-9.847,2.006l-1.94,1.309C203.359,88.453,202.261,89.504,201.349,90.732z"/>
	</g>
	<g>
		<path class="st3" d="M128.548,140.768c13.698,0,25.011-10.394,26.476-23.708c-15.778-10.122-36.489-10.561-52.952,0
			C103.537,130.374,114.85,140.768,128.548,140.768z"/>
	</g>
	<g>
		<path class="st1" d="M96.687,228.367l-0.78,17.544c-0.051,1.138,0.859,2.089,1.998,2.089c6.509,0,54.989,0,61.287,0
			c1.139,0,2.049-0.951,1.998-2.089l-0.78-17.544H96.687z"/>
	</g>
	<g>
		<path class="st4" d="M159.192,250H97.904c-1.086,0-2.14-0.45-2.89-1.235c-0.751-0.785-1.154-1.857-1.105-2.942l0.78-17.544
			c0.047-1.069,0.928-1.911,1.998-1.911h63.722c1.07,0,1.951,0.842,1.998,1.911l0.781,17.544c0.048,1.086-0.355,2.158-1.106,2.943
			C161.331,249.55,160.278,250,159.192,250z M98.6,230.367L97.905,246h61.287l-0.696-15.633H98.6z"/>
	</g>
	<g>
		<path class="st4" d="M79.919,153.571H53.251c-2.757,0-5-2.243-5-5v-26.612c0-2.757,2.243-5,5-5h46.052
			c0.863,0,1.628,0.553,1.899,1.372s-0.014,1.72-0.707,2.233c-10.089,7.49-16.867,18.892-18.596,31.283
			C81.762,152.836,80.917,153.571,79.919,153.571z M53.251,120.959c-0.551,0-1,0.448-1,1v26.612c0,0.552,0.449,1,1,1h24.958
			c1.918-10.929,7.455-21.048,15.573-28.612H53.251z"/>
	</g>
	<g>
		<path class="st1" d="M109.251,119.222c1.692,9.127,9.68,16.044,19.297,16.044s17.605-6.917,19.297-16.044
			C135.565,124.429,121.546,124.436,109.251,119.222z"/>
	</g>
	<g>
		<path class="st3" d="M198.792,163.6c-0.83-1.435-0.34-3.27,1.094-4.1c13.533-7.832,21.94-22.398,21.94-38.016c0-3.963,6-3.97,6,0
			c0,17.751-9.555,34.308-24.936,43.209C201.452,165.526,199.62,165.029,198.792,163.6z"/>
	</g>
	<g>
		<path class="st6" d="M214.397,113.462l-14.885-22.061c-0.927-1.374-2.791-1.736-4.165-0.809
			c-42.733,28.833-37.884,25.582-39.799,26.803c9.262,6.108,16.332,15.265,19.78,26.045h0l38.259-25.814
			C214.961,116.7,215.324,114.835,214.397,113.462z"/>
	</g>
	<g>
		<path class="st4" d="M175.329,145.44c-0.221,0-0.442-0.036-0.655-0.11c-0.595-0.206-1.058-0.681-1.25-1.28
			c-3.26-10.191-9.999-19.064-18.977-24.984c-0.566-0.373-0.904-1.008-0.899-1.686s0.353-1.307,0.924-1.671l0.419-0.264
			c0.725-0.455,0.725-0.455,16.322-10.98l23.015-15.531c1.108-0.746,2.439-1.017,3.75-0.763c1.311,0.255,2.444,1.005,3.191,2.112
			l14.884,22.061c0.747,1.106,1.019,2.438,0.764,3.749c-0.255,1.312-1.005,2.445-2.113,3.191l-38.258,25.814
			C176.113,145.324,175.722,145.44,175.329,145.44z M159.108,117.454c7.8,5.831,13.814,13.804,17.252,22.877l36.108-24.363
			c0.299-0.201,0.393-0.485,0.422-0.638c0.03-0.151,0.049-0.451-0.152-0.749c0,0,0,0,0-0.001L197.854,92.52
			c-0.202-0.299-0.487-0.393-0.639-0.423c-0.153-0.028-0.451-0.048-0.75,0.153l-23.015,15.53
			C164.864,113.576,160.987,116.191,159.108,117.454z"/>
	</g>
	<g>
		<path class="st4" d="M174.663,230.367H82.434c-2.757,0-5-2.243-5-5v-66.95c0-28.185,22.93-51.114,51.114-51.114
			c28.185,0,51.115,22.93,51.115,51.114v66.95C179.663,228.124,177.419,230.367,174.663,230.367z M128.548,111.303
			c-25.979,0-47.114,21.136-47.114,47.114v66.95c0,0.552,0.449,1,1,1h92.229c0.551,0,1-0.448,1-1v-66.95
			C175.663,132.438,154.527,111.303,128.548,111.303z"/>
	</g>
	<g>
		<path class="st1" d="M177.449,59.926c-3.665-23.712-24.162-41.866-48.901-41.866c-24.739,0-45.236,18.154-48.901,41.866
			c-8.464-0.324-15.116,6.417-15.116,14.502c0,8.833,7.881,15.797,16.888,14.323c6.388,19.945,25.073,34.38,47.129,34.38
			c22.061,0,40.742-14.439,47.129-34.38c0.769,0.126,1.553,0.208,2.357,0.208c8.025,0,14.531-6.506,14.531-14.531
			C192.565,66.345,185.915,59.602,177.449,59.926z"/>
	</g>
	<g>
		<path class="st4" d="M128.548,125.13c-21.927,0-41.218-13.682-48.509-34.216c-4.25,0.249-8.42-1.119-11.674-3.884
			c-3.708-3.149-5.834-7.743-5.834-12.603c0-4.472,1.848-8.814,5.07-11.915c2.83-2.725,6.457-4.312,10.356-4.563
			c2.146-11.365,8.115-21.738,16.93-29.362c9.341-8.079,21.296-12.528,33.661-12.528c12.366,0,24.32,4.449,33.662,12.528
			c8.814,7.623,14.783,17.997,16.93,29.362c3.9,0.251,7.526,1.838,10.356,4.562c3.222,3.102,5.07,7.444,5.07,11.916
			c0,9.115-7.416,16.53-16.531,16.53c-0.321,0-0.646-0.011-0.98-0.033C169.759,111.452,150.471,125.13,128.548,125.13z M81.42,86.75
			c0.856,0,1.635,0.551,1.903,1.39c6.32,19.732,24.495,32.99,45.225,32.99s38.904-13.258,45.224-32.99
			c0.302-0.942,1.252-1.519,2.228-1.363c0.747,0.122,1.412,0.182,2.034,0.182c6.91,0,12.531-5.621,12.531-12.53
			c0-3.39-1.401-6.683-3.844-9.033c-2.462-2.371-5.735-3.592-9.196-3.471c-1.014,0.084-1.898-0.688-2.053-1.692
			c-3.54-22.901-23.713-40.172-46.925-40.172c-23.211,0-43.384,17.271-46.924,40.172c-0.156,1.004-1.043,1.777-2.053,1.692
			c-3.48-0.121-6.733,1.101-9.196,3.471c-2.442,2.351-3.843,5.644-3.843,9.033c0,3.684,1.612,7.166,4.424,9.555
			c2.792,2.373,6.486,3.392,10.142,2.794C81.205,86.759,81.313,86.75,81.42,86.75z"/>
	</g>
	<g>
		<path class="st0" d="M106.153,87.521L106.153,87.521c-4.167,0-7.545-3.378-7.545-7.545v-4.072c0-4.167,3.378-7.545,7.545-7.545h0
			c4.167,0,7.545,3.378,7.545,7.545v4.072C113.698,84.143,110.32,87.521,106.153,87.521z"/>
	</g>
	<g>
		<path class="st0" d="M150.943,87.521c-4.162,0-7.545-3.373-7.545-7.545v-4.072c0-4.167,3.378-7.545,7.545-7.545
			c4.162,0,7.545,3.373,7.545,7.545v4.072C158.488,84.143,155.11,87.521,150.943,87.521z"/>
	</g>
	<g>
		<path class="st2" d="M113.916,95.883L113.916,95.883c0,8.078,6.548,14.632,14.632,14.632c8.081,0,14.632-6.551,14.632-14.632l0,0
			H113.916z"/>
	</g>
	<g>
		<path class="st2" d="M160.457,99.647h-3.938c-2.118,0-3.835-1.717-3.835-3.835v0c0-2.118,1.717-3.835,3.835-3.835h3.938
			C165.558,91.977,165.566,99.647,160.457,99.647z"/>
	</g>
	<g>
		<path class="st2" d="M100.577,99.647h-3.938c-2.118,0-3.835-1.717-3.835-3.835v0c0-2.118,1.717-3.835,3.835-3.835h3.938
			c2.118,0,3.835,1.717,3.835,3.835v0C104.412,97.93,102.695,99.647,100.577,99.647z"/>
	</g>
	<g>
		<path class="st0" d="M105.235,59.896H68.668v0C68.668,31.235,91.903,8,120.564,8h0.984c3.866,0,7,3.134,7,7v21.583
			C128.548,49.458,118.11,59.896,105.235,59.896z"/>
	</g>
	<g>
		<path class="st0" d="M151.861,59.896h36.567v0C188.428,31.235,165.194,8,136.532,8h-0.984c-3.866,0-7,3.134-7,7v21.583
			C128.548,49.458,138.986,59.896,151.861,59.896z"/>
	</g>
	<g>
		<path class="st4" d="M105.235,61.896H68.668c-1.104,0-2-0.896-2-2C66.668,30.178,90.846,6,120.564,6h0.984c4.962,0,9,4.037,9,9
			v21.583C130.548,50.541,119.193,61.896,105.235,61.896z M70.708,57.896h34.527c11.752,0,21.313-9.562,21.313-21.313V15
			c0-2.757-2.243-5-5-5h-0.984C93.721,10,71.761,31.308,70.708,57.896z"/>
	</g>
	<g>
		<path class="st4" d="M188.428,61.896h-36.567c-13.958,0-25.313-11.355-25.313-25.313V15c0-4.963,4.038-9,9-9h0.984
			c29.718,0,53.896,24.178,53.896,53.896C190.428,61.001,189.533,61.896,188.428,61.896z M135.548,10c-2.757,0-5,2.243-5,5v21.583
			c0,11.752,9.561,21.313,21.313,21.313h34.527C185.335,31.308,163.375,10,136.532,10H135.548z"/>
	</g>
</g>
</svg>
