<?xml version="1.0" encoding="utf-8"?>
<!-- Generator: Adobe Illustrator 22.1.0, SVG Export Plug-In . SVG Version: 6.00 Build 0)  -->
<svg version="1.1" id="Layer_1" xmlns="http://www.w3.org/2000/svg" xmlns:xlink="http://www.w3.org/1999/xlink" x="0px" y="0px"
	 viewBox="0 0 256 256" style="enable-background:new 0 0 256 256;" xml:space="preserve">
<style type="text/css">
	.st0{fill:#4671C6;}
	.st1{fill:#F9CFCF;}
	.st2{fill:#F9A7A7;}
	.st3{fill:#A4C9FF;}
	.st4{fill:#3762CC;}
	.st5{fill:#E0EBFC;}
	.st6{fill:#6BDDDD;}
	.st7{fill:#B9BEFC;}
	.st8{fill:#FFEA92;}
	.st9{fill:#EAA97D;}
	.st10{fill:#FFEA94;}
	.st11{fill:#FFE164;}
	.st12{fill:#FFDC85;}
	.st13{fill:#FFFFFF;}
	.st14{fill:#383838;}
</style>
<g>
	<g>
		<path class="st0" d="M186,248H70c-6.075,0-11-4.925-11-11V19c0-6.075,4.925-11,11-11h116c6.075,0,11,4.925,11,11v218
			C197,243.075,192.075,248,186,248z"/>
	</g>
	<g>
		<path class="st6" d="M184,15h-18.5v2c0,4.418-3.582,8-8,8h-59c-4.418,0-8-3.582-8-8v-2H72c-3.314,0-6,2.686-6,6v214
			c0,3.314,2.686,6,6,6h112c3.314,0,6-2.686,6-6V21C190,17.686,187.314,15,184,15z"/>
	</g>
	<g>
		<path class="st4" d="M186,250H70c-7.168,0-13-5.832-13-13V19c0-7.168,5.832-13,13-13h116c7.168,0,13,5.832,13,13v218
			C199,244.168,193.168,250,186,250z M70,10c-4.962,0-9,4.037-9,9v218c0,4.963,4.038,9,9,9h116c4.962,0,9-4.037,9-9V19
			c0-4.963-4.038-9-9-9H70z"/>
	</g>
	<g>
		<path class="st1" d="M190,235v-34c0-3.314-2.686-6-6-6H72c-3.314,0-6,2.686-6,6v34c0,3.314,2.686,6,6,6h112
			C187.314,241,190,238.314,190,235z"/>
	</g>
	<g>
		<path class="st2" d="M137.112,230.5h-18.043c-1.921,0-3.478-1.557-3.478-3.478v-18.043c0-1.921,1.557-3.478,3.478-3.478h18.043
			c1.921,0,3.478,1.557,3.478,3.478v18.043C140.59,228.943,139.033,230.5,137.112,230.5z"/>
	</g>
	<g>
		<path class="st2" d="M99.092,230.5H81.048c-1.921,0-3.478-1.557-3.478-3.478v-18.043c0-1.921,1.557-3.478,3.478-3.478h18.043
			c1.921,0,3.478,1.557,3.478,3.478v18.043C102.57,228.943,101.013,230.5,99.092,230.5z"/>
	</g>
	<g>
		<path class="st2" d="M174.752,230.5h-18.043c-1.921,0-3.478-1.557-3.478-3.478v-18.043c0-1.921,1.557-3.478,3.478-3.478h18.043
			c1.921,0,3.478,1.557,3.478,3.478v18.043C178.23,228.943,176.673,230.5,174.752,230.5z"/>
	</g>
	<g>
		<path class="st5" d="M136.006,63.156h-15.878c-1.69,0-3.061-1.37-3.061-3.061V44.217c0-1.69,1.37-3.061,3.061-3.061h15.878
			c1.69,0,3.061,1.37,3.061,3.061v15.878C139.067,61.786,137.696,63.156,136.006,63.156z"/>
	</g>
	<g>
		<path class="st5" d="M98.669,63.156H82.791c-1.69,0-3.061-1.37-3.061-3.061V44.217c0-1.69,1.37-3.061,3.061-3.061h15.878
			c1.69,0,3.061,1.37,3.061,3.061v15.878C101.73,61.786,100.36,63.156,98.669,63.156z"/>
	</g>
	<g>
		<path class="st5" d="M173.009,63.156h-15.878c-1.69,0-3.061-1.37-3.061-3.061V44.217c0-1.69,1.37-3.061,3.061-3.061h15.878
			c1.69,0,3.061,1.37,3.061,3.061v15.878C176.07,61.786,174.699,63.156,173.009,63.156z"/>
	</g>
	<g>
		<path class="st5" d="M136.006,97.156h-15.878c-1.69,0-3.061-1.37-3.061-3.061V78.217c0-1.69,1.37-3.061,3.061-3.061h15.878
			c1.69,0,3.061,1.37,3.061,3.061v15.878C139.067,95.786,137.696,97.156,136.006,97.156z"/>
	</g>
	<g>
		<path class="st5" d="M98.669,97.156H82.791c-1.69,0-3.061-1.37-3.061-3.061V78.217c0-1.69,1.37-3.061,3.061-3.061h15.878
			c1.69,0,3.061,1.37,3.061,3.061v15.878C101.73,95.786,100.36,97.156,98.669,97.156z"/>
	</g>
	<g>
		<path class="st4" d="M184,243H72c-4.411,0-8-3.589-8-8V21c0-4.411,3.589-8,8-8h18.5c1.104,0,2,0.896,2,2v2c0,3.309,2.691,6,6,6h59
			c3.309,0,6-2.691,6-6v-2c0-1.104,0.896-2,2-2H184c4.411,0,8,3.589,8,8v214C192,239.411,188.411,243,184,243z M72,17
			c-2.206,0-4,1.794-4,4v214c0,2.206,1.794,4,4,4h112c2.206,0,4-1.794,4-4V21c0-2.206-1.794-4-4-4h-16.5c0,5.514-4.486,10-10,10h-59
			c-5.514,0-10-4.486-10-10H72z"/>
	</g>
	<g>
		<circle class="st7" cx="152.417" cy="15.75" r="3.758"/>
	</g>
	<g>
		<circle class="st7" cx="140.417" cy="15.75" r="2.715"/>
	</g>
</g>
</svg>
