<?xml version="1.0" encoding="utf-8"?>
<!-- Generator: Adobe Illustrator 23.0.0, SVG Export Plug-In . SVG Version: 6.00 Build 0)  -->
<svg version="1.1" id="Layer_1" xmlns="http://www.w3.org/2000/svg" xmlns:xlink="http://www.w3.org/1999/xlink" x="0px" y="0px"
	 viewBox="0 0 512 512" style="enable-background:new 0 0 512 512;" xml:space="preserve">
<style type="text/css">
	.st0{fill:#323232;}
	.st1{fill:#646464;}
	.st2{fill:#464646;}
	.st3{fill:#FAA51E;}
	.st4{fill:#5A6E82;}
	.st5{fill:#788C9B;}
	.st6{fill:#AAC3D7;}
	.st7{fill:#7DC8AA;}
	.st8{fill:#147864;}
	.st9{fill:#329682;}
	.st10{fill:#FFFFFF;}
	.st11{fill:#9B5FAA;}
	.st12{fill:#463C4B;}
	.st13{fill:#32283C;}
	.st14{fill:#D76E28;}
	.st15{fill:#784687;}
	.st16{fill:#F0915A;}
	.st17{fill:#FAB991;}
	.st18{fill:#D7E6F0;}
	.st19{fill:#82AA41;}
	.st20{fill:#4B8C41;}
	.st21{fill:#A5CD3C;}
	.st22{fill:#FAD241;}
	.st23{fill:#AA5A28;}
	.st24{fill:#F04B37;}
	.st25{fill:#6EA5D7;}
	.st26{fill:#8CAAC8;}
	.st27{fill:#F0697D;}
	.st28{fill:#5A5A6E;}
	.st29{fill:#647DBE;}
	.st30{fill:#2D6E23;}
	.st31{fill:#F58CAA;}
	.st32{fill:#B98C3C;}
	.st33{fill:#C3A050;}
	.st34{fill:#D2C36E;}
	.st35{fill:#64412D;}
	.st36{fill:#DC7846;}
	.st37{fill:#96461E;}
	.st38{fill:#F06423;}
	.st39{fill:#E6AAFA;}
	.st40{fill:#BE82D2;}
	.st41{fill:#FAA037;}
	.st42{fill:#D73228;}
	.st43{fill:#BE281E;}
	.st44{fill:#5064A0;}
	.st45{fill:#8C1E14;}
	.st46{fill:#F5732D;}
	.st47{fill:#FAD7A0;}
	.st48{fill:#964628;}
	.st49{fill:#D24614;}
	.st50{fill:#F5D7A5;}
	.st51{fill:#F58723;}
	.st52{fill:#E65A78;}
	.st53{fill:#643773;}
	.st54{fill:#9B64AA;}
	.st55{fill:#555555;}
	.st56{fill:#FAD2B4;}
</style>
<g>
	<g>
		<path class="st19" d="M266.868,297.373c-12.496-12.497-32.758-12.497-45.254,0l-64,64c-6.002,6.001-9.373,14.141-9.373,22.627v64
			c-17.673,0-32,14.327-32,32l0,0c0,8.836,7.163,16,16,16h64c8.837,0,16-7.164,16-16v-82.745l54.627-54.627
			C279.365,330.131,279.365,309.869,266.868,297.373z"/>
	</g>
	<g>
		<path class="st21" d="M388.241,448c0-8.189-3.124-16.379-9.373-22.627l-54.627-54.627V296c0-17.673-14.327-32-32-32
			s-32,14.327-32,32v88c0,8.487,3.371,16.626,9.373,22.627L310.987,448h-2.746c-17.673,0-32,14.327-32,32l0,0
			c0,8.836,7.163,16,16,16h80c8.837,0,16-7.164,16-16L388.241,448L388.241,448z"/>
	</g>
	<g>
		<path class="st19" d="M148.241,232c-4.418,0-8,3.582-8,8v8h-16c0-8.836-7.163-16-16-16v48h32v8c0,4.418,3.582,8,8,8h48v-64
			H148.241z"/>
	</g>
	<g>
		<path class="st23" d="M123.519,285.063c-9.22-4.219-15.278-13.256-15.278-23.395V240c0-4.418,3.582-8,8-8s8-3.582,8-8
			s-3.582-8-8-8h-32c-4.418,0-8,3.582-8,8s3.582,8,8,8s8,3.582,8,8v21.671c0,10.046-5.893,19.149-15.047,23.287
			c-20.164,9.116-33.965,29.822-32.895,53.627c1.291,28.71,24.581,52.03,53.29,53.354c32.134,1.482,58.652-24.132,58.652-55.939
			C156.241,313.379,142.826,293.897,123.519,285.063z"/>
	</g>
	<g>
		<path class="st21" d="M84.241,232L84.241,232c13.255,0,24,10.745,24,24v0c0,13.255-10.745,24-24,24h0c-4.418,0-8-3.582-8-8v-32
			C76.241,235.582,79.823,232,84.241,232z"/>
	</g>
	<g>
		<path class="st19" d="M204.241,64c-26.51,0-48,21.49-48,48v48h8c26.51,0,48-21.49,48-48V92c0-6.627,5.373-12,12-12h0
			c6.627,0,12-5.373,12-12v-4H204.241z"/>
	</g>
	<g>
		<path class="st23" d="M324.241,296h-128v26.745l-6.628,6.627c-12.497,12.497-12.497,32.758,0,45.255h0
			c12.497,12.497,32.758,12.497,45.255,0l32-32c4.196-4.196,6.976-9.269,8.354-14.627h49.018V296z"/>
	</g>
	<g>
		<path class="st14" d="M324.241,352v-56c0-17.436-13.67-32.175-31.1-32.653c-18.084-0.496-32.9,14.015-32.9,31.988V352
			c0,17.673,14.327,32,32,32h0C309.914,384,324.241,369.673,324.241,352z"/>
	</g>
	<g>
		<path class="st19" d="M236.241,208h-64c-17.673,0-32-14.327-32-32v-64c0-17.673,14.327-32,32-32h96c17.673,0,32,14.327,32,32v32
			c0,17.673-14.327,32-32,32h0C268.241,193.673,253.914,208,236.241,208z"/>
	</g>
	<g>
		<path class="st20" d="M212.241,160c-8.837,0-16,7.163-16,16v48c-19.648,0-35.619,15.74-35.993,35.298
			C159.862,279.48,176.766,296,196.952,296h127.289V160H212.241z"/>
	</g>
	<g>
		<path class="st21" d="M284.241,64c-26.51,0-48,21.49-48,48c0-17.673-14.327-32-32-32h-32c-17.673,0-32,14.327-32,32h0
			c-26.51,0-48,21.49-48,48h48v16c0,17.673,14.327,32,32,32h32c17.673,0,32-14.327,32-32v-16h8c26.51,0,48-21.49,48-48V92
			c0-6.627,5.373-12,12-12s12-5.373,12-12v-4H284.241z"/>
	</g>
	<g>
		<path class="st18" d="M188.241,192h-16c-8.837,0-16-7.163-16-16v0h48v0C204.241,184.837,197.078,192,188.241,192z"/>
	</g>
	<g>
		<path class="st19" d="M321.575,32v40c0,4.418,3.582,8,8,8h10.667v16h32V32H321.575z"/>
	</g>
	<g>
		<path class="st21" d="M380.241,96h-48c-4.418,0-8,3.582-8,8v56c-17.673,0-32,14.327-32,32c0,17.673,14.327,32,32,32h32
			c17.673,0,32-14.327,32-32v-88C388.241,99.582,384.659,96,380.241,96z"/>
	</g>
	<g>
		<path class="st6" d="M308.241,64L308.241,64c4.418,0,8-3.582,8-8V32c0-4.418-3.582-8-8-8l0,0c-4.418,0-8,3.582-8,8v24
			C300.241,60.418,303.823,64,308.241,64z"/>
	</g>
	<g>
		<rect x="316.241" y="32" class="st14" width="64" height="24"/>
	</g>
	<g>
		<path class="st21" d="M321.575,72V52c0-2.209,1.791-4,4-4h0c6.627,0,12,5.373,12,12v4c8.837,0,16,7.164,16,16h-24
			C325.156,80,321.575,76.418,321.575,72z"/>
	</g>
	<g>
		<path class="st21" d="M329.575,24h34.667c4.418,0,8,3.582,8,8v0c0,4.418-3.582,8-8,8h-34.667c-4.418,0-8-3.582-8-8v0
			C321.575,27.582,325.156,24,329.575,24z"/>
	</g>
	<g>
		<path class="st6" d="M380.241,32l24-16l52.323,22.424c2.23,0.956,3.677,3.149,3.677,5.576v0c0,2.427-1.446,4.62-3.677,5.576
			L404.241,72l-24-16V32z"/>
	</g>
</g>
</svg>
