<?xml version="1.0" encoding="utf-8"?>
<!-- Generator: Adobe Illustrator 23.0.0, SVG Export Plug-In . SVG Version: 6.00 Build 0)  -->
<svg version="1.1" id="Layer_1" xmlns="http://www.w3.org/2000/svg" xmlns:xlink="http://www.w3.org/1999/xlink" x="0px" y="0px"
	 viewBox="0 0 512 512" style="enable-background:new 0 0 512 512;" xml:space="preserve">
<style type="text/css">
	.st0{fill:#323232;}
	.st1{fill:#646464;}
	.st2{fill:#464646;}
	.st3{fill:#FAA51E;}
	.st4{fill:#5A6E82;}
	.st5{fill:#788C9B;}
	.st6{fill:#AAC3D7;}
	.st7{fill:#7DC8AA;}
	.st8{fill:#147864;}
	.st9{fill:#329682;}
	.st10{fill:#FFFFFF;}
	.st11{fill:#9B5FAA;}
	.st12{fill:#463C4B;}
	.st13{fill:#32283C;}
	.st14{fill:#D76E28;}
	.st15{fill:#784687;}
	.st16{fill:#F0915A;}
	.st17{fill:#FAB991;}
	.st18{fill:#D7E6F0;}
	.st19{fill:#82AA41;}
	.st20{fill:#4B8C41;}
	.st21{fill:#A5CD3C;}
	.st22{fill:#FAD241;}
	.st23{fill:#AA5A28;}
	.st24{fill:#F04B37;}
	.st25{fill:#6EA5D7;}
	.st26{fill:#8CAAC8;}
	.st27{fill:#F0697D;}
	.st28{fill:#5A5A6E;}
	.st29{fill:#647DBE;}
	.st30{fill:#2D6E23;}
	.st31{fill:#F58CAA;}
	.st32{fill:#B98C3C;}
	.st33{fill:#C3A050;}
	.st34{fill:#D2C36E;}
	.st35{fill:#64412D;}
	.st36{fill:#DC7846;}
	.st37{fill:#96461E;}
	.st38{fill:#F06423;}
	.st39{fill:#E6AAFA;}
	.st40{fill:#BE82D2;}
	.st41{fill:#FAA037;}
	.st42{fill:#D73228;}
	.st43{fill:#BE281E;}
	.st44{fill:#5064A0;}
	.st45{fill:#8C1E14;}
	.st46{fill:#F5732D;}
	.st47{fill:#FAD7A0;}
	.st48{fill:#964628;}
	.st49{fill:#D24614;}
	.st50{fill:#F5D7A5;}
	.st51{fill:#F58723;}
	.st52{fill:#E65A78;}
	.st53{fill:#643773;}
	.st54{fill:#9B64AA;}
	.st55{fill:#555555;}
	.st56{fill:#FAD2B4;}
</style>
<g>
	<path class="st36" d="M152.241,232.869c-4.418,0-8,3.582-8,8c0-8.836-7.163-16-16-16v80h16c0,4.418,3.582,8,8,8h72v-80H152.241z"/>
	<g>
		<path class="st16" d="M308.525,292.584c-15.621-15.621-40.947-15.621-56.568,0l-64,64c-7.501,7.501-11.716,17.675-11.716,28.284
			v64c0,0.336,0.017,0.668,0.025,1.002c-13.815,3.544-24.025,16.078-24.025,30.998l0,0c0,8.836,7.163,16,16,16h72
			c8.837,0,16-7.164,16-16v-79.432l52.284-52.284C324.146,333.532,324.146,308.206,308.525,292.584z"/>
	</g>
	<g>
		<path class="st17" d="M404.525,420.584L352.241,368.3v-63.432c0-22.091-17.909-40-40-40s-40,17.909-40,40v80
			c0,10.609,4.214,20.783,11.716,28.284l36.641,36.641c-13.981,3.427-24.357,16.036-24.357,31.074l0,0c0,8.836,7.163,16,16,16h88
			c8.837,0,16-7.164,16-16v-32C416.241,438.632,412.336,428.395,404.525,420.584z"/>
	</g>
	<g>
		<path class="st23" d="M216.241,424.869c-10.237,0-20.474-3.905-28.284-11.716c-15.621-15.621-15.621-40.948,0-56.568l64-64
			c15.621-15.621,40.947-15.621,56.568,0c15.621,15.621,15.621,40.948,0,56.568l-64,64
			C236.715,420.963,226.478,424.869,216.241,424.869z"/>
	</g>
	<g>
		<path class="st14" d="M312.241,424.869c-22.091,0-40-17.909-40-40v-80c0-22.091,17.909-40,40-40s40,17.909,40,40v80
			C352.241,406.96,334.333,424.869,312.241,424.869z"/>
	</g>
	<g>
		<path class="st37" d="M96.241,64.869l16-16h8c13.255,0,24,10.745,24,24v96l-16,16v124c0,11.046-8.954,20-20,20h0
			c-11.046,0-20-8.954-20-20v-108l-16-16v-96C72.241,75.614,82.986,64.869,96.241,64.869L96.241,64.869z"/>
	</g>
	<g>
		<path class="st16" d="M88.241,224.869L88.241,224.869c13.255,0,24,10.745,24,24v32c0,13.255-10.745,24-24,24h0
			c-4.418,0-8-3.582-8-8v-64C80.241,228.45,83.823,224.869,88.241,224.869z"/>
	</g>
	<g>
		<g>
			<path class="st16" d="M368.241,160.869L368.241,160.869c0-17.673-14.327-32-32-32h-24l0,0c0-22.091-17.909-40-40-40h-56
				c-22.091,0-40,17.909-40,40v56c0,8.837,7.163,16,16,16h32v22.111c0,10.984-6.236,20.983-16.051,25.914
				c-9.776,4.912-15.949,14.919-15.949,25.863v54.112c0,8.837,7.163,16,16,16h144c8.837,0,16-7.163,16-16v-56l2.564-3.846
				c8.761-13.142,13.436-28.584,13.436-44.379v-47.775C384.241,168.032,377.078,160.869,368.241,160.869L368.241,160.869z"/>
		</g>
		<g>
			<path class="st17" d="M240.241,200.869h-48c-8.837,0-16-7.163-16-16v-56c0-22.091,17.909-40,40-40h0c22.091,0,40,17.909,40,40v56
				C256.241,193.705,249.078,200.869,240.241,200.869z"/>
		</g>
	</g>
	<g>
		<path class="st16" d="M352.241,32.869v16h-12c-2.209,0-4,1.791-4,4l0,0c0,6.627,5.373,12,12,12h4c0,8.836,7.163,16,16,16h48v-48
			H352.241z"/>
	</g>
	<g>
		<path class="st17" d="M400.241,16.869h-48c-4.418,0-8,3.582-8,8s3.582,8,8,8h48v32c0,8.837,7.164,16,16,16v-48
			C416.241,24.032,409.078,16.869,400.241,16.869z"/>
	</g>
	<g>
		<path class="st17" d="M424.241,80.869h-64c-4.418,0-8,3.582-8,8v72c-17.673,0-32,14.327-32,32c0,17.673,14.327,32,32,32h48
			c17.673,0,32-14.327,32-32v-104C432.241,84.45,428.659,80.869,424.241,80.869z"/>
	</g>
	<g>
		<path class="st27" d="M232.241,184.869h-40v-8c0-4.418,3.582-8,8-8h24c4.418,0,8,3.582,8,8V184.869z"/>
	</g>
	<g>
		<path class="st17" d="M216.241,216.869v24c0,8.837,7.163,16,16,16h8c8.837,0,16-7.163,16-16v-24c0-4.418-3.582-8-8-8h-24
			C219.823,208.869,216.241,212.45,216.241,216.869z"/>
	</g>
	<g>
		<path class="st17" d="M272.241,216.869v24c0,8.837,7.163,16,16,16h8c8.837,0,16-7.163,16-16v-24c0-4.418-3.582-8-8-8h-24
			C275.823,208.869,272.241,212.45,272.241,216.869z"/>
	</g>
	<g>
		<path class="st17" d="M276.241,152.869h-4c-4.418,0-8-3.582-8-8v-8c0-4.418,3.582-8,8-8h4c6.627,0,12,5.373,12,12v0
			C288.241,147.496,282.869,152.869,276.241,152.869z"/>
	</g>
</g>
</svg>
