<?xml version="1.0" encoding="utf-8"?>
<!-- Generator: Adobe Illustrator 23.0.0, SVG Export Plug-In . SVG Version: 6.00 Build 0)  -->
<svg version="1.1" id="Layer_1" xmlns="http://www.w3.org/2000/svg" xmlns:xlink="http://www.w3.org/1999/xlink" x="0px" y="0px"
	 viewBox="0 0 512 512" style="enable-background:new 0 0 512 512;" xml:space="preserve">
<style type="text/css">
	.st0{fill:#323232;}
	.st1{fill:#646464;}
	.st2{fill:#464646;}
	.st3{fill:#FAA51E;}
	.st4{fill:#5A6E82;}
	.st5{fill:#788C9B;}
	.st6{fill:#AAC3D7;}
	.st7{fill:#7DC8AA;}
	.st8{fill:#147864;}
	.st9{fill:#329682;}
	.st10{fill:#FFFFFF;}
	.st11{fill:#9B5FAA;}
	.st12{fill:#463C4B;}
	.st13{fill:#32283C;}
	.st14{fill:#D76E28;}
	.st15{fill:#784687;}
	.st16{fill:#F0915A;}
	.st17{fill:#FAB991;}
	.st18{fill:#D7E6F0;}
	.st19{fill:#82AA41;}
	.st20{fill:#4B8C41;}
	.st21{fill:#A5CD3C;}
	.st22{fill:#FAD241;}
	.st23{fill:#AA5A28;}
	.st24{fill:#F04B37;}
	.st25{fill:#6EA5D7;}
	.st26{fill:#8CAAC8;}
	.st27{fill:#F0697D;}
	.st28{fill:#5A5A6E;}
	.st29{fill:#647DBE;}
	.st30{fill:#2D6E23;}
	.st31{fill:#F58CAA;}
	.st32{fill:#B98C3C;}
	.st33{fill:#C3A050;}
	.st34{fill:#D2C36E;}
	.st35{fill:#64412D;}
	.st36{fill:#DC7846;}
	.st37{fill:#96461E;}
	.st38{fill:#F06423;}
	.st39{fill:#E6AAFA;}
	.st40{fill:#BE82D2;}
	.st41{fill:#FAA037;}
	.st42{fill:#D73228;}
	.st43{fill:#BE281E;}
	.st44{fill:#5064A0;}
	.st45{fill:#8C1E14;}
	.st46{fill:#F5732D;}
	.st47{fill:#FAD7A0;}
	.st48{fill:#964628;}
	.st49{fill:#D24614;}
	.st50{fill:#F5D7A5;}
	.st51{fill:#F58723;}
	.st52{fill:#E65A78;}
	.st53{fill:#643773;}
	.st54{fill:#9B64AA;}
	.st55{fill:#555555;}
	.st56{fill:#FAD2B4;}
</style>
<g>
	<g>
		<g>
			<path class="st25" d="M208.241,191.2h-16v-16c0-4.418,3.582-8,8-8h0c4.418,0,8,3.582,8,8V191.2z"/>
		</g>
		<g>
			<path class="st25" d="M200.241,231.2L200.241,231.2c-4.418,0-8-3.582-8-8v-16h16v16C208.241,227.618,204.66,231.2,200.241,231.2z
				"/>
		</g>
		<g>
			<path class="st25" d="M192.241,191.2v16h-16c-4.418,0-8-3.582-8-8v0c0-4.418,3.582-8,8-8H192.241z"/>
		</g>
		<g>
			<path class="st25" d="M232.241,199.2L232.241,199.2c0,4.418-3.582,8-8,8h-16v-16h16C228.66,191.2,232.241,194.782,232.241,199.2z
				"/>
		</g>
	</g>
	<g>
		<g>
			<path class="st25" d="M80.241,167.2h-16v-16c0-4.418,3.582-8,8-8h0c4.418,0,8,3.582,8,8V167.2z"/>
		</g>
		<g>
			<path class="st25" d="M72.241,207.2L72.241,207.2c-4.418,0-8-3.582-8-8v-16h16v16C80.241,203.618,76.66,207.2,72.241,207.2z"/>
		</g>
		<g>
			<path class="st25" d="M64.241,167.2v16h-16c-4.418,0-8-3.582-8-8v0c0-4.418,3.582-8,8-8H64.241z"/>
		</g>
		<g>
			<path class="st25" d="M104.241,175.2L104.241,175.2c0,4.418-3.582,8-8,8h-16v-16h16C100.66,167.2,104.241,170.782,104.241,175.2z
				"/>
		</g>
	</g>
	<g>
		<path class="st53" d="M184.241,319.2h72v-80h-72c-4.418,0-8,3.582-8,8v64C176.241,315.618,179.823,319.2,184.241,319.2z"/>
	</g>
	<g>
		<path class="st15" d="M384.241,319.2h-112c-8.837,0-16-7.163-16-16v-112c0-17.673,14.327-32,32-32h96V319.2z"/>
	</g>
	<g>
		<path class="st16" d="M384.241,31.2v16h-12c-2.209,0-4,1.791-4,4v0c0,6.627,5.373,12,12,12h4c0,8.837,7.163,16,16,16v16h32v-16
			v-48H384.241z"/>
	</g>
	<g>
		<path class="st17" d="M416.241,15.2h-32c-4.418,0-8,3.582-8,8s3.582,8,8,8h32v32c0,8.837,7.164,16,16,16v-48
			C432.241,22.363,425.078,15.2,416.241,15.2z"/>
	</g>
	<g>
		<path class="st54" d="M456.241,95.2h-64c-4.418,0-8,3.582-8,8v56c-17.673,0-32,14.327-32,32c0,17.673,14.327,32,32,32h48
			c17.673,0,32-14.327,32-32v-88C464.241,98.782,460.659,95.2,456.241,95.2z"/>
	</g>
	<g>
		<path class="st16" d="M248.241,175.2h56c8.837,0,16-7.163,16-16v-72c0-13.255-10.745-24-24-24h-40c-13.255,0-24,10.745-24,24v72
			C232.241,168.037,239.405,175.2,248.241,175.2z"/>
	</g>
	<g>
		<path class="st17" d="M280.241,175.2h-32c-8.837,0-16-7.163-16-16v-72c0-13.255,10.745-24,24-24h16c13.255,0,24,10.745,24,24v72
			C296.241,168.037,289.078,175.2,280.241,175.2z"/>
	</g>
	<g>
		<path class="st53" d="M448.241,447.2c0-8.189-3.124-16.379-9.373-22.627l-54.627-54.627V319.2h-112c-8.837,0-16-7.163-16-16l0,0
			v18.746l-38.627,38.627c-6.002,6.001-9.373,14.141-9.373,22.627v64c-17.748,0-32.122,14.449-31.999,32.225
			c0.06,8.747,7.252,15.775,15.999,15.775h240c8.837,0,16-7.163,16-16L448.241,447.2L448.241,447.2z"/>
	</g>
	<g>
		<path class="st15" d="M448.241,447.2c0-8.189-3.124-16.379-9.373-22.627l-54.627-54.627V303.2c0-17.673-14.327-32-32-32
			s-32,14.327-32,32v80c0,8.487,3.371,16.626,9.373,22.627l41.373,41.373h-2.746c-17.673,0-32,14.327-32,32l0,0
			c0,8.837,7.163,16,16,16h80c8.837,0,16-7.163,16-16L448.241,447.2L448.241,447.2z"/>
	</g>
	<g>
		<path class="st18" d="M280.176,95.2l0.066,32h-48c-4.418,0-8,3.582-8,8v120c0,26.51,21.49,48,48,48h24c8.837,0,16-7.163,16-16
			v-14.667c0-2.209-1.791-4-4-4s-4,1.791-4,4v2.667c0,2.209-1.791,4-4,4s-4-1.791-4-4v-116h24c8.837,0,16-7.163,16-16v-48H280.176z"
			/>
	</g>
	<g>
		<path class="st16" d="M296.241,143.2L296.241,143.2c-4.418,0-8-3.582-8-8v-16c0-4.418,3.582-8,8-8l0,0c8.837,0,16,7.163,16,16v0
			C312.241,136.037,305.078,143.2,296.241,143.2z"/>
	</g>
	<g>
		<path class="st54" d="M368.241,95.2h-168c-4.418,0-8-3.582-8-8s3.582-8,8-8h168c4.418,0,8,3.582,8,8S372.66,95.2,368.241,95.2z"/>
	</g>
	<g>
		<path class="st53" d="M232.241,79.2L232.241,79.2c0-35.346,28.654-64,64-64h64c4.418,0,8,3.582,8,8v0c0,4.418-3.582,8-8,8h0
			c-13.255,0-24,10.745-24,24v24H232.241z"/>
	</g>
	<g>
		<path class="st6" d="M260.241,151.2h-16c-2.209,0-4-1.791-4-4l0,0c0-2.209,1.791-4,4-4h16c2.209,0,4,1.791,4,4l0,0
			C264.241,149.409,262.45,151.2,260.241,151.2z"/>
	</g>
	<path class="st16" d="M160.241,247.2c0-8.837-7.163-16-16-16h-8v48h40v-32H160.241z"/>
	<g>
		<rect x="128.241" y="127.2" class="st23" width="16" height="368"/>
	</g>
	<g>
		<path class="st17" d="M125.575,231.2L125.575,231.2c13.255,0,24,10.745,24,24v0c0,13.255-10.745,24-24,24h0c-4.418,0-8-3.582-8-8
			v-32C117.575,234.782,121.156,231.2,125.575,231.2z"/>
	</g>
	<g>
		<circle class="st29" cx="136.241" cy="127.2" r="32"/>
	</g>
	<g>
		<path class="st18" d="M120.241,130.628c-1.894,0-3.429-1.535-3.429-3.428c0-10.713,8.716-19.428,19.429-19.428
			c1.894,0,3.429,1.535,3.429,3.428s-1.535,3.428-3.429,3.428c-6.932,0-12.571,5.64-12.571,12.572
			C123.67,129.094,122.135,130.628,120.241,130.628z"/>
	</g>
	<g>
		<g>
			<path class="st25" d="M176.241,47.2h-16v-16c0-4.418,3.582-8,8-8h0c4.418,0,8,3.582,8,8V47.2z"/>
		</g>
		<g>
			<path class="st25" d="M168.241,87.2L168.241,87.2c-4.418,0-8-3.582-8-8v-16h16v16C176.241,83.618,172.66,87.2,168.241,87.2z"/>
		</g>
		<g>
			<path class="st25" d="M160.241,47.2v16h-16c-4.418,0-8-3.582-8-8v0c0-4.418,3.582-8,8-8H160.241z"/>
		</g>
		<g>
			<path class="st25" d="M200.241,55.2L200.241,55.2c0,4.418-3.582,8-8,8h-16v-16h16C196.66,47.2,200.241,50.782,200.241,55.2z"/>
		</g>
	</g>
</g>
</svg>
