<svg id="Layer_1" data-name="Layer 1" xmlns="http://www.w3.org/2000/svg" viewBox="0 0 128 128"><title>BARCODE</title><rect x="24.692" y="45.727" width="78.596" height="57.94" style="fill:#ed862f"/><rect x="24.692" y="53" width="68.73" height="50.667" style="fill:#fa983c"/><rect x="19.897" y="33.081" width="88.187" height="12.646" style="fill:#fa983c"/><polygon points="108.08 33.08 19.9 33.08 26.23 24.33 101.75 24.33 108.08 33.08" style="fill:#faa73d"/><polygon points="93.42 33.08 19.9 33.08 26.23 24.33 87.09 24.33 93.42 33.08" style="fill:#fdc262"/><path d="M116.49,101.917h-105a1.75,1.75,0,1,0,0,3.5h105a1.75,1.75,0,0,0,0-3.5Z" style="fill:#525959"/><path d="M33.407,54.551a1.75,1.75,0,0,0-1.75,1.75V93.333a1.75,1.75,0,0,0,3.5,0V56.3A1.75,1.75,0,0,0,33.407,54.551Z" style="fill:#3e4343"/><path d="M39.074,54.551a1.75,1.75,0,0,0-1.75,1.75V93.333a1.75,1.75,0,0,0,3.5,0V56.3A1.75,1.75,0,0,0,39.074,54.551Z" style="fill:#3e4343"/><path d="M88.907,54.551a1.75,1.75,0,0,0-1.75,1.75V93.333a1.75,1.75,0,0,0,3.5,0V56.3A1.75,1.75,0,0,0,88.907,54.551Z" style="fill:#3e4343"/><path d="M94.573,54.551a1.75,1.75,0,0,0-1.75,1.75V93.333a1.75,1.75,0,0,0,3.5,0V56.3A1.75,1.75,0,0,0,94.573,54.551Z" style="fill:#3e4343"/><path d="M49.324,54.551a1.75,1.75,0,0,0-1.75,1.75V93.333a1.75,1.75,0,0,0,3.5,0V56.3A1.75,1.75,0,0,0,49.324,54.551Z" style="fill:#3e4343"/><path d="M73.49,54.551a1.75,1.75,0,0,0-1.75,1.75V93.333a1.75,1.75,0,0,0,3.5,0V56.3A1.75,1.75,0,0,0,73.49,54.551Z" style="fill:#3e4343"/><path d="M83.74,67.875a1.75,1.75,0,0,0-1.75,1.75V93.333a1.75,1.75,0,0,0,3.5,0V69.625A1.75,1.75,0,0,0,83.74,67.875Z" style="fill:#3e4343"/><path d="M83.74,54.551a1.75,1.75,0,0,0-1.75,1.75v6.824a1.75,1.75,0,0,0,3.5,0V56.3A1.75,1.75,0,0,0,83.74,54.551Z" style="fill:#3e4343"/><path d="M57.324,54.551a1.75,1.75,0,0,0-1.75,1.75V93.333a1.75,1.75,0,0,0,3.5,0V56.3A1.75,1.75,0,0,0,57.324,54.551Z" style="fill:#3e4343"/><path d="M62.074,76.667a1.75,1.75,0,0,0-1.75,1.75V93.333a1.75,1.75,0,0,0,3.5,0V78.417A1.75,1.75,0,0,0,62.074,76.667Z" style="fill:#3e4343"/><path d="M62.074,54.551a1.75,1.75,0,0,0-1.75,1.75V71a1.75,1.75,0,0,0,3.5,0V56.3A1.75,1.75,0,0,0,62.074,54.551Z" style="fill:#3e4343"/><path d="M66.823,54.551a1.75,1.75,0,0,0-1.75,1.75V93.333a1.75,1.75,0,0,0,3.5,0V56.3A1.75,1.75,0,0,0,66.823,54.551Z" style="fill:#3e4343"/><rect x="93.422" y="33.081" width="14.661" height="12.646" style="fill:#ed862f"/></svg>