<svg id="Layer_1" data-name="Layer 1" xmlns="http://www.w3.org/2000/svg" viewBox="0 0 128 128"><title>BOX</title><polygon points="106.08 35.415 21.901 35.415 32.946 23.14 95.034 23.14 106.08 35.415" style="fill:#faa73d"/><polygon points="32.946 23.14 21.901 35.415 95.669 35.415 84.624 23.14 32.946 23.14" style="fill:#fdc262"/><rect x="21.901" y="35.415" width="84.179" height="69.444" style="fill:#fa983c"/><polygon points="75.611 35.415 52.369 35.415 59.273 23.14 68.708 23.14 75.611 35.415" style="fill:#ddeeef"/><polygon points="75.611 35.415 52.369 35.415 52.369 54.551 63.99 48.51 75.611 54.551 75.611 35.415" style="fill:#ccdbdb"/><rect x="95.669" y="35.415" width="10.411" height="69.444" style="fill:#ed862f"/><path d="M116.49,106.61h-105a1.75,1.75,0,1,1,0-3.5h105a1.75,1.75,0,0,1,0,3.5Z" style="fill:#525959"/></svg>