<svg id="Layer_1" data-name="Layer 1" xmlns="http://www.w3.org/2000/svg" viewBox="0 0 128 128"><title>BOXES</title><polygon points="89.177 25.085 38.804 25.085 45.413 17.739 82.567 17.739 89.177 25.085" style="fill:#faa73d"/><polygon points="45.413 17.739 38.804 25.084 82.223 25.084 75.613 17.739 45.413 17.739" style="fill:#fdc262"/><rect x="11.49" y="66.951" width="52.5" height="43.31" style="fill:#fa983c"/><polygon points="63.99 66.951 11.49 66.951 18.379 59.295 57.101 59.295 63.99 66.951" style="fill:#fdc262"/><polygon points="44.988 66.951 30.493 66.951 34.798 59.295 40.682 59.295 44.988 66.951" style="fill:#ddeeef"/><polygon points="44.988 66.951 30.493 66.951 30.493 78.885 37.74 75.118 44.988 78.885 44.988 66.951" style="fill:#ccdbdb"/><rect x="63.99" y="66.951" width="52.5" height="43.31" style="fill:#fa983c"/><polygon points="116.49 66.951 63.99 66.951 70.879 59.295 109.601 59.295 116.49 66.951" style="fill:#faa73d"/><polygon points="109.536 66.951 57.036 66.951 63.925 59.295 102.647 59.295 109.536 66.951" style="fill:#fdc262"/><polygon points="97.488 66.951 82.993 66.951 87.298 59.295 93.182 59.295 97.488 66.951" style="fill:#ddeeef"/><polygon points="97.488 66.951 82.993 66.951 82.993 78.885 90.24 75.118 97.488 78.885 97.488 66.951" style="fill:#ccdbdb"/><rect x="38.804" y="25.085" width="50.373" height="41.866" style="fill:#fa983c"/><polygon points="70.944 25.085 57.036 25.085 61.167 17.739 66.813 17.739 70.944 25.085" style="fill:#ddeeef"/><polygon points="70.944 25.085 57.036 25.085 57.036 36.535 63.99 32.921 70.944 36.535 70.944 25.085" style="fill:#ccdbdb"/><rect x="82.223" y="25.085" width="6.954" height="41.866" style="fill:#ed862f"/><rect x="109.536" y="66.951" width="6.954" height="43.31" style="fill:#ed862f"/><rect x="57.036" y="66.951" width="6.954" height="43.31" style="fill:#ed862f"/></svg>