<svg id="Layer_1" data-name="Layer 1" xmlns="http://www.w3.org/2000/svg" viewBox="0 0 128 128"><title>CARGO SHIP</title><rect x="52.677" y="30.708" width="6.625" height="34.188" style="fill:#fb6255"/><rect x="59.302" y="30.708" width="6.625" height="34.188" style="fill:#dc3531"/><rect x="65.927" y="30.708" width="6.625" height="34.188" style="fill:#fb6255"/><rect x="72.552" y="30.708" width="6.625" height="34.188" style="fill:#dc3531"/><rect x="79.177" y="30.708" width="6.625" height="34.188" style="fill:#fb6255"/><rect x="85.803" y="30.708" width="6.625" height="34.188" style="fill:#dc3531"/><rect x="92.428" y="30.708" width="6.625" height="34.188" style="fill:#fb6255"/><rect x="99.053" y="30.708" width="6.625" height="34.188" style="fill:#dc3531"/><rect x="52.677" y="30.708" width="53.002" height="5.889" style="fill:#fb6255"/><rect x="52.677" y="59.007" width="53.002" height="5.889" style="fill:#fb6255"/><rect x="99.053" y="30.708" width="6.625" height="5.889" style="fill:#dc3531"/><rect x="99.053" y="59.007" width="6.625" height="5.889" style="fill:#dc3531"/><polygon points="105.99 54.958 98.99 64.947 11.49 64.947 34.657 89.506 116.49 89.506 116.49 77.227 116.49 64.947 116.49 54.958 105.99 54.958" style="fill:#525959"/><path d="M42.49,70.771H36.824a1.75,1.75,0,0,0,0,3.5H42.49a1.75,1.75,0,1,0,0-3.5Z" style="fill:#ddeeef"/><path d="M54.574,70.771H48.907a1.75,1.75,0,0,0,0,3.5h5.667a1.75,1.75,0,0,0,0-3.5Z" style="fill:#ddeeef"/><path d="M66.657,70.771H60.99a1.75,1.75,0,0,0,0,3.5h5.667a1.75,1.75,0,0,0,0-3.5Z" style="fill:#ddeeef"/><path d="M78.74,70.771H73.074a1.75,1.75,0,0,0,0,3.5H78.74a1.75,1.75,0,0,0,0-3.5Z" style="fill:#ddeeef"/><path d="M90.824,70.771H85.157a1.75,1.75,0,1,0,0,3.5h5.667a1.75,1.75,0,1,0,0-3.5Z" style="fill:#ddeeef"/><path d="M102.907,70.771H97.24a1.75,1.75,0,0,0,0,3.5h5.667a1.75,1.75,0,0,0,0-3.5Z" style="fill:#ddeeef"/><rect x="109.679" y="54.958" width="6.811" height="34.542" style="fill:#3e4343"/><path d="M11.49,91.257h105a1.75,1.75,0,0,0,0-3.5h-105a1.75,1.75,0,1,0,0,3.5Z" style="fill:#69d4fd"/><path d="M116.49,95.542H46.741a1.75,1.75,0,1,0,0,3.5h69.75a1.75,1.75,0,0,0,0-3.5Z" style="fill:#69d4fd"/><path d="M36.823,95.542H11.49a1.75,1.75,0,1,0,0,3.5H36.823a1.75,1.75,0,0,0,0-3.5Z" style="fill:#69d4fd"/><polygon points="98.99 64.947 94.333 69.5 15.785 69.5 11.49 64.947 98.99 64.947" style="fill:#3e4343"/></svg>