<svg id="Layer_1" data-name="Layer 1" xmlns="http://www.w3.org/2000/svg" viewBox="0 0 128 128"><title>CONTAINER</title><path d="M63.988,54.167a8.125,8.125,0,0,1-8.123-8.125,1.75,1.75,0,0,1,3.5,0,4.626,4.626,0,0,0,4.625,4.625h.066a4.712,4.712,0,0,0,4.558-4.558,4.593,4.593,0,0,0-1.807-3.735A12.283,12.283,0,0,1,62.24,32.62V29.5a1.75,1.75,0,0,1,3.5,0v3.12a8.771,8.771,0,0,0,3.2,6.979,8.064,8.064,0,0,1,3.172,6.558,8.179,8.179,0,0,1-8.009,8.009Z" style="fill:#525959"/><path d="M25.875,67.667a1.75,1.75,0,0,1-.583-3.4L63.5,50.766a1.75,1.75,0,0,1,1.166,3.3l-38.206,13.5A1.763,1.763,0,0,1,25.875,67.667Z" style="fill:#525959"/><path d="M102.287,67.667a1.763,1.763,0,0,1-.583-.1L63.5,54.066a1.75,1.75,0,1,1,1.166-3.3l38.206,13.5a1.75,1.75,0,0,1-.583,3.4Z" style="fill:#525959"/><rect x="23.49" y="64" width="9" height="52.247" style="fill:#fb6255"/><rect x="32.49" y="64" width="9" height="52.247" style="fill:#dc3531"/><rect x="41.49" y="64" width="9" height="52.247" style="fill:#fb6255"/><rect x="50.49" y="64" width="9" height="52.247" style="fill:#dc3531"/><rect x="59.49" y="64" width="9" height="52.247" style="fill:#fb6255"/><rect x="68.49" y="64" width="9" height="52.247" style="fill:#dc3531"/><rect x="77.49" y="64" width="9" height="52.247" style="fill:#fb6255"/><rect x="86.49" y="64" width="9" height="52.247" style="fill:#dc3531"/><rect x="95.49" y="64" width="9" height="52.247" style="fill:#fb6255"/><rect x="23.49" y="64" width="81" height="9" style="fill:#fb6255"/><rect x="23.49" y="107.247" width="81" height="9" style="fill:#fb6255"/><rect x="57.615" y="11.5" width="12.75" height="18" style="fill:#fa983c"/><rect x="62.24" y="11.5" width="8.125" height="18" style="fill:#ed862f"/><rect x="95.49" y="64" width="9" height="9" style="fill:#dc3531"/><rect x="95.49" y="107.247" width="9" height="9" style="fill:#dc3531"/></svg>