<svg id="Layer_1" data-name="Layer 1" xmlns="http://www.w3.org/2000/svg" viewBox="0 0 128 128"><title>CRANE</title><path d="M63.988,118.25a9.4,9.4,0,0,1-9.4-9.4,1.75,1.75,0,0,1,3.5,0,5.9,5.9,0,0,0,5.9,5.9h.085a6.011,6.011,0,0,0,5.815-5.815,5.856,5.856,0,0,0-2.3-4.764A14.393,14.393,0,0,1,62.24,92.742V89a1.75,1.75,0,0,1,3.5,0v3.744A10.877,10.877,0,0,0,69.72,101.4a9.326,9.326,0,0,1,3.67,7.586,9.463,9.463,0,0,1-9.267,9.267Z" style="fill:#525959"/><path d="M63.99,61.417a1.75,1.75,0,0,1-1.75-1.75V52.983a1.75,1.75,0,0,1,3.5,0v6.684A1.75,1.75,0,0,1,63.99,61.417Z" style="fill:#3e4343"/><path d="M36.982,46.733a1.75,1.75,0,0,1-1.432-.74L17.544,20.51A1.75,1.75,0,1,1,20.4,18.49L38.41,43.974a1.751,1.751,0,0,1-1.428,2.76Z" style="fill:#3e4343"/><path d="M36.979,46.733a1.751,1.751,0,0,1-1.428-2.76L53.558,18.49a1.75,1.75,0,1,1,2.859,2.02L38.41,45.993A1.75,1.75,0,0,1,36.979,46.733Z" style="fill:#3e4343"/><path d="M73,46.733a1.75,1.75,0,0,1-1.432-.74L53.558,20.51a1.75,1.75,0,1,1,2.859-2.02L74.423,43.974A1.75,1.75,0,0,1,73,46.733Z" style="fill:#3e4343"/><path d="M72.991,46.733a1.751,1.751,0,0,1-1.428-2.76L89.57,18.49a1.75,1.75,0,1,1,2.859,2.02L74.423,45.993A1.75,1.75,0,0,1,72.991,46.733Z" style="fill:#3e4343"/><path d="M109.009,46.733a1.75,1.75,0,0,1-1.432-.74L89.57,20.51a1.75,1.75,0,1,1,2.859-2.02l18.007,25.483a1.751,1.751,0,0,1-1.428,2.76Z" style="fill:#3e4343"/><rect x="56.34" y="67.396" width="15.301" height="21.602" style="fill:#fa983c"/><rect x="11.49" y="11.5" width="105" height="8" style="fill:#525959"/><rect x="11.49" y="44.983" width="105" height="8" style="fill:#525959"/><rect x="60.907" y="59.667" width="6.167" height="7.729" style="fill:#ddeeef"/><rect x="106.75" y="11.5" width="9.74" height="8" style="fill:#3e4343"/><rect x="106.75" y="44.983" width="9.74" height="8" style="fill:#3e4343"/><rect x="65.74" y="67.396" width="5.901" height="21.602" style="fill:#ed862f"/></svg>