<svg id="Layer_1" data-name="Layer 1" xmlns="http://www.w3.org/2000/svg" viewBox="0 0 128 128"><title>DELIVERY MAN</title><path d="M69.743,26.41v7.164a11.734,11.734,0,0,0,9.313,11.479v10.64H93.206V26.41Z" style="fill:#fdc262"/><rect x="86.221" y="26.41" width="6.985" height="27.465" style="fill:#faa73d"/><path d="M75.116,49.236H88.771a19.211,19.211,0,0,1,19.211,19.211v34.978a0,0,0,0,1,0,0H75.116a0,0,0,0,1,0,0V49.236A0,0,0,0,1,75.116,49.236Z" style="fill:#3ec0e8"/><path d="M81.519,49.236h-6.4v54.189H100.73V68.447A19.211,19.211,0,0,0,81.519,49.236Z" style="fill:#69d4fd"/><rect x="19.999" y="35.903" width="41.91" height="41.91" style="fill:#fa983c"/><polygon points="46.327 49.873 40.954 45.575 35.581 49.873 35.581 35.903 46.327 35.903 46.327 49.873" style="fill:#ddeeef"/><path d="M26.939,77.813H53.267a0,0,0,0,1,0,0v7.522a0,0,0,0,1,0,0H33.939a7,7,0,0,1-7-7v-.522a0,0,0,0,1,0,0Z" style="fill:#fdc262"/><rect x="47.178" y="77.813" width="10.209" height="15.045" style="fill:#69d4fd"/><path d="M79.285,11.5h1.808A12.113,12.113,0,0,1,93.206,23.613v2.8a0,0,0,0,1,0,0H67.172a0,0,0,0,1,0,0v-2.8A12.113,12.113,0,0,1,79.285,11.5Z" style="fill:#dc3531"/><path d="M71.826,24.66H56.048a1.75,1.75,0,0,0,0,3.5H71.826a1.75,1.75,0,0,0,0-3.5Z" style="fill:#fb6255"/><rect x="75.116" y="103.424" width="32.866" height="13.076" style="fill:#fa983c"/><path d="M75.116,56.858V77.813H57.387v11.1H86.221V67.963A11.1,11.1,0,0,0,75.116,56.858Z" style="fill:#3ec0e8"/><rect x="52.282" y="35.903" width="9.627" height="41.91" style="fill:#ed862f"/><path d="M76.7,11.784a12.113,12.113,0,0,0-9.524,11.829v2.8H86.221v-2.8A12.113,12.113,0,0,0,76.7,11.784Z" style="fill:#fb6255"/><rect x="100.73" y="103.424" width="7.252" height="13.076" style="fill:#ed862f"/></svg>