<svg id="Layer_1" data-name="Layer 1" xmlns="http://www.w3.org/2000/svg" viewBox="0 0 128 128"><title>DIMENSION</title><rect x="11.49" y="35.345" width="81.053" height="81.053" style="fill:#fa983c"/><polygon points="62.408 62.363 52.016 54.049 41.625 62.363 41.625 35.345 62.408 35.345 62.408 62.363" style="fill:#ddeeef"/><path d="M93.557,18.363,82.043,10.177a1.749,1.749,0,0,0-2.027,2.852l7.047,5.011H16.971l7.047-5.011a1.75,1.75,0,1,0-2.028-2.852L10.476,18.363a1.749,1.749,0,0,0,0,2.852L21.989,29.4a1.75,1.75,0,1,0,2.028-2.852L16.97,21.539H87.062l-7.048,5.012A1.75,1.75,0,1,0,82.044,29.4l11.514-8.187a1.749,1.749,0,0,0,0-2.852Z" style="fill:#525959"/><path d="M117.5,103.459a1.75,1.75,0,0,0-2.44.411l-5.012,7.047V40.825l5.012,7.048a1.75,1.75,0,1,0,2.852-2.029L109.729,34.33a1.815,1.815,0,0,0-2.852,0L98.69,45.845a1.749,1.749,0,1,0,2.852,2.027l5.011-7.047v70.092l-5.011-7.046A1.749,1.749,0,1,0,98.69,105.9l8.187,11.513a1.749,1.749,0,0,0,2.852,0l8.188-11.513A1.75,1.75,0,0,0,117.5,103.459Z" style="fill:#525959"/><rect x="76.667" y="35.345" width="15.876" height="81.053" style="fill:#ed862f"/></svg>