<svg id="Layer_1" data-name="Layer 1" xmlns="http://www.w3.org/2000/svg" viewBox="0 0 128 128"><title>FEEDBACK</title><polygon points="11.49 63.449 66.797 63.449 66.797 100.337 25.876 100.337 17.502 108.712 17.502 100.337 11.49 100.337 11.49 63.449" style="fill:#ddeeef"/><polygon points="112.003 37.866 38.77 37.866 38.77 86.71 92.954 86.71 104.043 97.799 104.043 86.71 112.003 86.71 112.003 37.866" style="fill:#69d4fd"/><rect x="38.77" y="86.71" width="28.027" height="6.04" style="fill:#ccdbdb"/><rect x="104.043" y="37.866" width="7.96" height="48.843" style="fill:#3ec0e8"/><path d="M48.819,55.238H82.29a1.75,1.75,0,0,0,0-3.5H48.819a1.75,1.75,0,0,0,0,3.5Z" style="fill:#ddeeef"/><path d="M48.819,65.2h53.134a1.75,1.75,0,0,0,0-3.5H48.819a1.75,1.75,0,0,0,0,3.5Z" style="fill:#ddeeef"/><path d="M101.954,71.66H48.819a1.75,1.75,0,0,0,0,3.5h53.134a1.75,1.75,0,0,0,0-3.5Z" style="fill:#ddeeef"/><path d="M93.382,50.746,82.29,53.488,85.033,42.4l21.379-21.379a5.9,5.9,0,0,1,8.349,0h0a5.9,5.9,0,0,1,0,8.349Z" style="fill:#ed862f"/><path d="M106.412,21.017,85.033,42.4,83.274,49.51l5.621-1.39,21.379-21.379a5.9,5.9,0,0,0,.763-7.41A5.865,5.865,0,0,0,106.412,21.017Z" style="fill:#fa983c"/></svg>