<svg id="Layer_1" data-name="Layer 1" xmlns="http://www.w3.org/2000/svg" viewBox="0 0 128 128"><title>FLAMABLE</title><rect x="26.857" y="26.867" width="74.267" height="74.267" transform="translate(-26.513 63.993) rotate(-45)" style="fill:#ed862f"/><rect x="25.648" y="29.784" width="68.431" height="68.431" transform="translate(-27.721 61.075) rotate(-45)" style="fill:#fa983c"/><rect x="35.275" y="35.285" width="57.429" height="57.429" transform="translate(-26.513 63.993) rotate(-45)" style="fill:#ccdbdb"/><rect x="42.388" y="38.232" width="51.537" height="51.537" transform="translate(-25.292 66.939) rotate(-45)" style="fill:#ddeeef"/><path d="M75.4,48.023S67.39,49.77,70.011,59.015c0,0-9.9-6.333-2.912-16.961,0,0-10.99,3.238-10.081,15.958.3,4.207-7.437,5.033-6.807-2.127,0,0-6.713,8.368-1.019,17.762a16.932,16.932,0,0,0,5.055,5.287c-.028-.193-.056-.386-.072-.587-.594-7.455,5-5.892,2.541-11.548,0,0,4.508.984,3.033,6.189a6.567,6.567,0,0,0,1.639-9.55,8.452,8.452,0,0,1,5.676,8.985c-.169,2.369,4.187,2.834,3.833-1.2a9.109,9.109,0,0,1,1.025,9.151,13.861,13.861,0,0,0,7.99-11.842C80.967,55.293,71.03,58.068,75.4,48.023Z" style="fill:#fb6255"/></svg>