<?xml version="1.0" encoding="utf-8"?>
<!-- Generator: Adobe Illustrator 21.0.0, SVG Export Plug-In . SVG Version: 6.00 Build 0)  -->
<svg version="1.1" id="Layer_1" xmlns="http://www.w3.org/2000/svg" xmlns:xlink="http://www.w3.org/1999/xlink" x="0px" y="0px"
	 viewBox="0 0 128 128" style="enable-background:new 0 0 128 128;" xml:space="preserve">
<style type="text/css">
	.st0{fill:#ED862F;}
	.st1{fill:#FA983C;}
	.st2{fill:#DDEEEF;}
	.st3{fill:#CCDBDB;}
	.st4{fill:#3EC0E8;}
	.st5{fill:#69D4FD;}
	.st6{fill:#525959;}
	.st7{fill:none;stroke:#000000;stroke-width:3.5;stroke-linecap:round;stroke-linejoin:round;}
	.st8{fill:#FB6255;}
</style>
<title>FREE DELIVERY</title>
<polygon class="st0" points="109,83.9 79.7,83.9 79.7,48.5 96.9,48.5 109,66.1 "/>
<polygon class="st1" points="92.8,48.5 79.7,48.5 79.7,83.9 104.9,83.9 104.9,66.1 "/>
<rect x="19" y="36.1" class="st2" width="60.7" height="47.8"/>
<rect x="72.5" y="36.1" class="st3" width="7.1" height="47.8"/>
<polygon class="st4" points="101.9,65 85.1,65 85.1,53.8 93.9,53.8 "/>
<path class="st3" d="M35.6,75.8c0,0,9.4-0.5,11.6,8.1h-7.8L35.6,75.8z"/>
<path class="st0" d="M94.3,75.8c0,0,9.4-0.5,11.6,8.1h-7.8L94.3,75.8z"/>
<polygon class="st5" points="85.1,53.8 85.1,65 98.4,65 90.4,53.8 "/>
<circle class="st6" cx="35.6" cy="83.9" r="8.1"/>
<circle class="st3" cx="35.6" cy="83.9" r="3.8"/>
<circle class="st6" cx="94.3" cy="83.9" r="8.1"/>
<circle class="st3" cx="94.3" cy="83.9" r="3.8"/>
<line class="st7" x1="11.5" y1="91.9" x2="116.5" y2="91.9"/>
<path class="st8" d="M28.7,63.3V51.6h8v2h-5.7v2.8H36v2h-4.9v5L28.7,63.3z"/>
<path class="st8" d="M38.7,63.3V51.6h5c0.9,0,1.8,0.1,2.7,0.3c0.6,0.2,1,0.6,1.4,1.1c0.3,0.6,0.5,1.2,0.5,1.8c0,0.8-0.2,1.6-0.8,2.2
	c-0.6,0.6-1.4,1-2.3,1.1c0.5,0.3,0.9,0.6,1.3,1c0.5,0.6,1,1.2,1.3,1.9l1.4,2.3h-2.8l-1.7-2.6c-0.4-0.6-0.8-1.2-1.2-1.7
	c-0.2-0.2-0.4-0.4-0.7-0.5c-0.4-0.1-0.8-0.1-1.2-0.1h-0.5v4.9L38.7,63.3z M41.1,56.5h1.8c0.7,0,1.4,0,2.1-0.1
	c0.3-0.1,0.5-0.3,0.7-0.5c0.2-0.3,0.3-0.6,0.2-0.9c0-0.3-0.1-0.7-0.3-1c-0.2-0.3-0.5-0.4-0.9-0.5c-0.2,0-0.8,0-1.7,0h-1.8V56.5z"/>
<path class="st8" d="M50.5,63.3V51.6h8.7v2h-6.3v2.6h5.9v2h-5.9v3.2h6.6v2L50.5,63.3z"/>
<path class="st8" d="M61.4,63.3V51.6h8.7v2h-6.3v2.6h5.9v2h-5.9v3.2h6.6v2L61.4,63.3z"/>
<path class="st6" d="M116.5,93.8h-105c-1,0-1.8-0.8-1.8-1.8s0.8-1.8,1.8-1.8h105c1,0,1.8,0.8,1.8,1.8S117.5,93.8,116.5,93.8z"/>
</svg>
