<svg id="Layer_1" data-name="Layer 1" xmlns="http://www.w3.org/2000/svg" viewBox="0 0 128 128"><title>FREIGHT</title><rect x="19.824" y="28.813" width="88.333" height="10.667" style="fill:#fb6255"/><rect x="19.824" y="74.146" width="88.333" height="10.667" style="fill:#fb6255"/><rect x="23.324" y="39.479" width="81.333" height="34.667" style="fill:#dc3531"/><path d="M32.74,69.313a1.75,1.75,0,0,1-1.75-1.75v-21.5a1.75,1.75,0,0,1,3.5,0v21.5A1.75,1.75,0,0,1,32.74,69.313Z" style="fill:#ddeeef"/><path d="M45.24,69.313a1.75,1.75,0,0,1-1.75-1.75v-21.5a1.75,1.75,0,0,1,3.5,0v21.5A1.75,1.75,0,0,1,45.24,69.313Z" style="fill:#ddeeef"/><path d="M57.74,69.313a1.75,1.75,0,0,1-1.75-1.75v-21.5a1.75,1.75,0,0,1,3.5,0v21.5A1.75,1.75,0,0,1,57.74,69.313Z" style="fill:#ddeeef"/><path d="M70.24,69.313a1.75,1.75,0,0,1-1.75-1.75v-21.5a1.75,1.75,0,0,1,3.5,0v21.5A1.75,1.75,0,0,1,70.24,69.313Z" style="fill:#ddeeef"/><path d="M82.74,69.313a1.75,1.75,0,0,1-1.75-1.75v-21.5a1.75,1.75,0,0,1,3.5,0v21.5A1.75,1.75,0,0,1,82.74,69.313Z" style="fill:#ddeeef"/><path d="M95.24,69.313a1.75,1.75,0,0,1-1.75-1.75v-21.5a1.75,1.75,0,0,1,3.5,0v21.5A1.75,1.75,0,0,1,95.24,69.313Z" style="fill:#ddeeef"/><rect x="11.49" y="84.813" width="105" height="6.25" style="fill:#fa983c"/><rect x="96.99" y="28.813" width="11.167" height="10.667" style="fill:#dc3531"/><rect x="96.99" y="74.146" width="11.167" height="10.667" style="fill:#dc3531"/><circle cx="32.407" cy="91.063" r="8.125" style="fill:#3e4343"/><circle cx="95.574" cy="91.063" r="8.125" style="fill:#3e4343"/><path d="M29.74,83.395a8.115,8.115,0,0,0,0,15.336,8.115,8.115,0,0,0,0-15.336Z" style="fill:#525959"/><path d="M92.907,83.395a8.115,8.115,0,0,0,0,15.336,8.115,8.115,0,0,0,0-15.336Z" style="fill:#525959"/><rect x="108.157" y="84.813" width="8.333" height="6.25" style="fill:#ed862f"/></svg>