<svg id="Layer_1" data-name="Layer 1" xmlns="http://www.w3.org/2000/svg" viewBox="0 0 128 128"><title>HOME DELIVERY</title><rect x="29.99" y="18.701" width="12.25" height="27.5" style="fill:#fa983c"/><rect x="37" y="18.701" width="5.24" height="27.5" style="fill:#ed862f"/><polygon points="113.99 50.815 64.943 13.951 13.99 50.815 22.99 50.815 22.99 107.769 104.99 107.769 104.99 50.815 113.99 50.815" style="fill:#dc3531"/><polygon points="13.99 50.815 16.74 50.815 22.99 50.815 22.99 107.769 98.74 107.769 98.74 50.815 104.99 50.815 107.74 50.815 61.758 16.255 13.99 50.815" style="fill:#fb6255"/><rect x="32.49" y="60.86" width="31.5" height="46.909" style="fill:#69d4fd"/><path d="M40.365,82.564h-2.25a1.75,1.75,0,0,0,0,3.5h2.25a1.75,1.75,0,1,0,0-3.5Z" style="fill:#ddeeef"/><circle cx="65.574" cy="37.175" r="4.25" style="fill:#dc3531"/><rect x="57.74" y="60.86" width="6.25" height="46.909" style="fill:#3ec0e8"/><path d="M116.49,109.519h-105a1.75,1.75,0,1,1,0-3.5h105a1.75,1.75,0,0,1,0,3.5Z" style="fill:#525959"/><rect x="57.74" y="75.049" width="39" height="39" style="fill:#fa983c"/><polygon points="82.24 88.049 77.24 84.049 72.24 88.049 72.24 75.049 82.24 75.049 82.24 88.049" style="fill:#ddeeef"/><rect x="89.833" y="75.049" width="6.907" height="39" style="fill:#ed862f"/><circle cx="63.99" cy="36.091" r="4.25" style="fill:#fdc262"/></svg>