<svg id="Layer_1" data-name="Layer 1" xmlns="http://www.w3.org/2000/svg" viewBox="0 0 128 128"><title>LIST</title><rect x="29.115" y="20.492" width="69.75" height="95.755" style="fill:#fa983c"/><rect x="36.384" y="26.211" width="55.213" height="82.451" style="fill:#ddeeef"/><path d="M69.043,20.492a5.833,5.833,0,1,0-10.106,0H45.49V31.919h37V20.492Z" style="fill:#64eb7a"/><rect x="45.49" y="45.753" width="7.833" height="7.833" style="fill:#525959"/><rect x="45.49" y="64.992" width="7.833" height="7.833" style="fill:#525959"/><rect x="45.49" y="84.231" width="7.833" height="7.833" style="fill:#525959"/><rect x="91.597" y="20.492" width="7.269" height="95.755" style="fill:#ed862f"/><rect x="82.49" y="26.211" width="9.106" height="82.451" style="fill:#ccdbdb"/><path d="M61.324,51.42H82.49a1.75,1.75,0,0,0,0-3.5H61.324a1.75,1.75,0,0,0,0,3.5Z" style="fill:#525959"/><path d="M82.49,67.158H61.324a1.75,1.75,0,1,0,0,3.5H82.49a1.75,1.75,0,0,0,0-3.5Z" style="fill:#525959"/><path d="M82.49,86.4H61.324a1.75,1.75,0,0,0,0,3.5H82.49a1.75,1.75,0,0,0,0-3.5Z" style="fill:#525959"/><path d="M69.043,20.492H64.627a5.823,5.823,0,0,0-2.845-8.3,5.823,5.823,0,0,0-2.845,8.3H45.49V31.919H78.074V20.492Z" style="fill:#92fda7"/></svg>