<svg id="Layer_1" data-name="Layer 1" xmlns="http://www.w3.org/2000/svg" viewBox="0 0 128 128"><title>ONLINE</title><rect x="11.49" y="25.407" width="105" height="77.186" style="fill:#ddeeef"/><rect x="11.49" y="25.407" width="105" height="15.214" style="fill:#ccdbdb"/><path d="M20.115,29.375A3.625,3.625,0,1,0,23.74,33,3.629,3.629,0,0,0,20.115,29.375Z" style="fill:#fb6255"/><path d="M32.462,29.375A3.625,3.625,0,1,0,36.087,33,3.629,3.629,0,0,0,32.462,29.375Z" style="fill:#fdc262"/><path d="M44.809,29.375A3.625,3.625,0,1,0,48.434,33,3.629,3.629,0,0,0,44.809,29.375Z" style="fill:#92fda7"/><rect x="23.452" y="49.25" width="23.644" height="23.644" style="fill:#fa983c"/><polygon points="38.306 57.131 35.274 54.706 32.243 57.131 32.243 49.25 38.306 49.25 38.306 57.131" style="fill:#ddeeef"/><path d="M55.611,55.573h48.917a1.75,1.75,0,0,0,0-3.5H55.611a1.75,1.75,0,0,0,0,3.5Z" style="fill:#525959"/><path d="M104.528,65.274H55.611a1.75,1.75,0,0,0,0,3.5h48.917a1.75,1.75,0,0,0,0-3.5Z" style="fill:#525959"/><path d="M104.528,78.477H23.452a1.75,1.75,0,0,0,0,3.5h81.076a1.75,1.75,0,1,0,0-3.5Z" style="fill:#525959"/><path d="M104.528,91.678H23.452a1.75,1.75,0,0,0,0,3.5h81.076a1.75,1.75,0,1,0,0-3.5Z" style="fill:#525959"/><rect x="109.75" y="40.621" width="6.74" height="61.972" style="fill:#ccdbdb"/><rect x="41.184" y="49.25" width="5.913" height="23.644" style="fill:#ed862f"/></svg>