<svg id="Layer_1" data-name="Layer 1" xmlns="http://www.w3.org/2000/svg" viewBox="0 0 128 128"><title>PHONE</title><path d="M100.46,18.99v90.02a7.492,7.492,0,0,1-7.49,7.49H35.01a7.492,7.492,0,0,1-7.49-7.49V18.99a7.492,7.492,0,0,1,7.49-7.49H92.97A7.492,7.492,0,0,1,100.46,18.99Z" style="fill:#ddeeef"/><path d="M100.46,18.99v90.02a7.492,7.492,0,0,1-7.49,7.49H86.1V11.5h6.87A7.492,7.492,0,0,1,100.46,18.99Z" style="fill:#ccdbdb"/><rect x="34.615" y="19.918" width="58.75" height="82.223" style="fill:#69d4fd"/><rect x="44.49" y="40.365" width="39" height="39" style="fill:#fa983c"/><polygon points="68.99 53.365 63.99 49.365 58.99 53.365 58.99 40.365 68.99 40.365 68.99 53.365" style="fill:#ddeeef"/><path d="M63.99,112.815a3.366,3.366,0,1,1,3.366-3.366A3.369,3.369,0,0,1,63.99,112.815Z" style="fill:#525959"/><rect x="86.103" y="19.918" width="7.263" height="82.223" style="fill:#3ec0e8"/><rect x="76" y="40.365" width="7.49" height="39" style="fill:#ed862f"/></svg>