<svg id="Layer_1" data-name="Layer 1" xmlns="http://www.w3.org/2000/svg" viewBox="0 0 128 128"><title>REPORT</title><polygon points="101.388 116.5 26.592 116.5 26.592 11.5 88.052 11.5 101.388 24.836 101.388 116.5" style="fill:#ddeeef"/><rect x="88.052" y="24.836" width="13.336" height="91.664" style="fill:#ccdbdb"/><polygon points="101.388 24.836 88.052 24.836 88.052 11.5 101.388 24.836" style="fill:#ddeeef"/><path d="M90.609,77.322H37.371a1.75,1.75,0,0,1,0-3.5H90.609a1.75,1.75,0,0,1,0,3.5Z" style="fill:#525959"/><path d="M63.99,86.625H37.371a1.75,1.75,0,0,1,0-3.5H63.99a1.75,1.75,0,1,1,0,3.5Z" style="fill:#525959"/><path d="M90.609,95.928H37.371a1.75,1.75,0,0,1,0-3.5H90.609a1.75,1.75,0,0,1,0,3.5Z" style="fill:#525959"/><path d="M63.99,105.232H37.371a1.75,1.75,0,1,1,0-3.5H63.99a1.75,1.75,0,1,1,0,3.5Z" style="fill:#525959"/><rect x="36.752" y="22.051" width="39" height="39" style="fill:#fa983c"/><polygon points="61.252 35.051 56.252 31.051 51.252 35.051 51.252 22.051 61.252 22.051 61.252 35.051" style="fill:#ddeeef"/><rect x="67.122" y="22.051" width="8.63" height="39" style="fill:#ed862f"/><path d="M80.55,55.85a9.946,9.946,0,1,1-9.93-9.93A9.938,9.938,0,0,1,80.55,55.85Z" style="fill:#64eb7a"/><path d="M73.55,55.85a9.966,9.966,0,0,1-6.43,9.31,9.948,9.948,0,0,1,0-18.61A9.943,9.943,0,0,1,73.55,55.85Z" style="fill:#92fda7"/><path d="M69.389,60.833a1.745,1.745,0,0,1-1.082-.375L65.627,58.35A1.75,1.75,0,1,1,67.791,55.6l1.4,1.1,4.039-4.424a1.75,1.75,0,0,1,2.585,2.359l-5.135,5.625A1.746,1.746,0,0,1,69.389,60.833Z" style="fill:#525959"/></svg>