<svg id="Layer_1" data-name="Layer 1" xmlns="http://www.w3.org/2000/svg" viewBox="0 0 128 128"><title>STORAGE</title><rect x="24.692" y="45.727" width="78.596" height="57.94" style="fill:#ed862f"/><rect x="24.692" y="52.206" width="69.808" height="51.461" style="fill:#fa983c"/><rect x="19.897" y="33.081" width="88.187" height="12.646" style="fill:#fa983c"/><polygon points="101.754 24.333 26.227 24.333 19.897 33.081 108.084 33.081 101.754 24.333" style="fill:#faa73d"/><rect x="45.792" y="55.929" width="36.397" height="10.752" rx="5.096" ry="5.096" style="fill:#fdc262"/><rect x="94.5" y="33.081" width="13.584" height="12.646" style="fill:#ed862f"/><polygon points="26.227 24.333 19.897 33.081 94.5 33.081 88.17 24.333 26.227 24.333" style="fill:#fdc262"/><path d="M116.49,101.917h-105a1.75,1.75,0,1,0,0,3.5h105a1.75,1.75,0,0,0,0-3.5Z" style="fill:#525959"/></svg>