<svg id="Layer_1" data-name="Layer 1" xmlns="http://www.w3.org/2000/svg" viewBox="0 0 128 128"><title>TRACKING</title><polygon points="106.08 28.654 21.901 28.654 32.946 16.378 95.034 16.378 106.08 28.654" style="fill:#faa73d"/><polygon points="32.946 16.378 21.901 28.654 94.459 28.654 83.413 16.378 32.946 16.378" style="fill:#fdc262"/><rect x="21.901" y="28.654" width="84.179" height="69.444" style="fill:#fa983c"/><polygon points="75.611 28.654 52.369 28.654 59.273 16.378 68.708 16.378 75.611 28.654" style="fill:#ddeeef"/><polygon points="75.611 28.654 52.369 28.654 52.369 47.789 63.99 41.749 75.611 47.789 75.611 28.654" style="fill:#ccdbdb"/><rect x="94.459" y="28.551" width="11.621" height="69.3" style="fill:#ed862f"/><path d="M87.207,113.372a1.743,1.743,0,0,1-1.237-.513L73.948,100.838a1.75,1.75,0,1,1,2.475-2.475l12.021,12.021a1.75,1.75,0,0,1-1.237,2.987Z" style="fill:#525959"/><path d="M116.49,99.848h-105a1.75,1.75,0,1,1,0-3.5h105a1.75,1.75,0,0,1,0,3.5Z" style="fill:#525959"/><circle cx="63.99" cy="88.405" r="15.833" style="fill:#3ec0e8"/><path d="M63.99,72.572a15.761,15.761,0,0,0-9.965,3.536A15.821,15.821,0,0,0,78.168,95.422,15.807,15.807,0,0,0,63.99,72.572Z" style="fill:#69d4fd"/><path d="M72.158,90.155a1.75,1.75,0,0,1-1.75-1.75,6.425,6.425,0,0,0-6.418-6.418,1.75,1.75,0,1,1,0-3.5A9.929,9.929,0,0,1,73.908,88.4,1.75,1.75,0,0,1,72.158,90.155Z" style="fill:#ddeeef"/><path d="M63.99,105.988A17.583,17.583,0,1,1,81.573,88.4,17.6,17.6,0,0,1,63.99,105.988Zm0-31.667A14.083,14.083,0,1,0,78.073,88.4,14.1,14.1,0,0,0,63.99,74.322Z" style="fill:#525959"/></svg>