<svg id="Layer_1" data-name="Layer 1" xmlns="http://www.w3.org/2000/svg" viewBox="0 0 128 128"><title>TROLLEY</title><polygon points="116.49 33.07 113.78 43.9 112.9 47.4 110.84 55.61 109.96 59.11 107.91 67.32 107.03 70.82 104.45 81.11 41.3 81.11 38.73 70.82 37.86 67.32 35.81 59.11 34.94 55.61 32.89 47.4 32.01 43.9 29.31 33.07 116.49 33.07" style="fill:#64eb7a"/><polygon points="99.65 67.32 101.7 59.11 102.58 55.61 104.64 47.4 105.52 43.9 108.23 33.07 29.31 33.07 32.01 43.9 32.89 47.4 34.94 55.61 35.81 59.11 37.86 67.32 38.73 70.82 41.3 81.11 96.19 81.11 98.77 70.82 99.65 67.32" style="fill:#92fda7"/><path d="M116.49,103.951h-105a1.75,1.75,0,1,0,0,3.5h105a1.75,1.75,0,0,0,0-3.5Z" style="fill:#525959"/><path d="M110.71,95.319h-70.8a3.853,3.853,0,0,1-3.738-2.92l-14.8-59.333H15.343a3.853,3.853,0,0,1,0-7.706h9.031a3.853,3.853,0,0,1,3.738,2.92l14.8,59.333H110.71a3.853,3.853,0,1,1,0,7.706Z" style="fill:#ed862f"/><path d="M112.9,47.4l.88-3.5H99.46l2.56-10.83h-3.6L95.87,43.9H74.43l-.21-10.83H70.73l.2,10.83H51.25L48.69,33.07h-3.6L47.65,43.9H32.01l.88,3.5H48.48l1.94,8.21H34.94l.87,3.5H51.24l1.94,8.21H37.86l.87,3.5H54.01l2.43,10.29h3.6L57.6,70.82H71.42l.19,10.29h3.5l-.19-10.29H89.51L87.08,81.11h3.6l2.43-10.29h13.92l.88-3.5H93.93l1.94-8.21h14.09l.88-3.5H96.7l1.94-8.21Zm-60.83,0H70.99l.15,8.21H54.01Zm4.71,19.92-1.94-8.21H71.2l.15,8.21Zm33.56,0H74.85l-.15-8.21H92.28ZM93.1,55.61H74.64l-.15-8.21H95.04Z" style="fill:#64eb7a"/><path d="M108.23,91.466a3.853,3.853,0,0,0-3.853-3.853H36.584L21.779,28.28a3.853,3.853,0,0,0-3.738-2.92h-2.7a3.853,3.853,0,1,0,0,7.706h6.021L36.169,92.4a3.853,3.853,0,0,0,3.738,2.921h64.469A3.853,3.853,0,0,0,108.23,91.466Z" style="fill:#fa983c"/><circle cx="51.48" cy="98.945" r="6.756" style="fill:#3e4343"/><circle cx="100.237" cy="98.945" r="6.756" style="fill:#3e4343"/><polygon points="106.234 73.996 104.45 81.11 41.3 81.11 39.52 73.996 106.234 73.996" style="fill:#64eb7a"/><path d="M49.418,92.512a6.755,6.755,0,0,0,0,12.866,6.755,6.755,0,0,0,0-12.866Z" style="fill:#525959"/><path d="M98.175,92.512a6.755,6.755,0,0,0,0,12.866,6.755,6.755,0,0,0,0-12.866Z" style="fill:#525959"/></svg>