<svg id="Layer_2" data-name="Layer 2" xmlns="http://www.w3.org/2000/svg" viewBox="0 0 128 128"><title>COMPUTER</title><path d="M1.75,92.559a4,4,0,0,0,4,4h116.5a4,4,0,0,0,4-4v-15H1.75Z" style="fill:#38454f"/><path d="M122.25,13.559H5.75a4,4,0,0,0-4,4v60h124.5v-60A4,4,0,0,0,122.25,13.559Z" style="fill:#d6eafc"/><path d="M72.833,34.785c-.983,0-.983,0-16.872,16.148a1.75,1.75,0,0,0,2.5,2.455c5.427-5.516,14.282-14.458,15.365-15.409a1.75,1.75,0,0,0-.988-3.194Z" style="fill:#b7dbf6"/><path d="M49.612,37.994c-.881,0-.881,0-10.455,9.731a1.75,1.75,0,0,0,2.5,2.455C44.78,47,49.9,41.825,50.645,41.157a1.75,1.75,0,0,0-1.033-3.163Z" style="fill:#b7dbf6"/><path d="M89.638,37.994c-.881,0-.881,0-10.455,9.731a1.75,1.75,0,0,0,2.494,2.455c3.129-3.18,8.252-8.355,8.993-9.023a1.75,1.75,0,0,0-1.032-3.163Z" style="fill:#b7dbf6"/><circle cx="64" cy="87.059" r="3.25" style="fill:#06daf7"/><path d="M88.444,114.441H39.556l3.339-2.984a19.978,19.978,0,0,0,6.667-14.9H78.437a19.979,19.979,0,0,0,6.668,14.9Z" style="fill:#283238"/></svg>