<svg id="Layer_2" data-name="Layer 2" xmlns="http://www.w3.org/2000/svg" viewBox="0 0 128 128"><title>DRONE</title><polygon points="93.75 51.128 34.25 51.128 23.57 51.128 23.57 65.614 34.25 65.614 54.366 87.632 74.008 87.632 93.75 65.614 104.43 65.614 104.43 51.128 93.75 51.128" style="fill:#38454f"/><polygon points="70.409 66.878 57.591 66.878 47.583 59.003 47.583 51.128 80.417 51.128 80.417 59.003 70.409 66.878" style="fill:#d6eafc"/><path d="M69.833,79.3H58.167a1.75,1.75,0,1,1,0-3.5H69.833a1.75,1.75,0,0,1,0,3.5Z" style="fill:#06daf7"/><path d="M30,38.225l-11.562-2.52L6.875,38.225A4.225,4.225,0,0,1,1.75,34.1h0a4.226,4.226,0,0,1,4.225-4.225H30.9A4.226,4.226,0,0,1,35.125,34.1h0A4.225,4.225,0,0,1,30,38.225Z" style="fill:#38454f"/><path d="M18.438,21.372h0A5.133,5.133,0,0,1,23.57,26.5v3.367a0,0,0,0,1,0,0H13.3a0,0,0,0,1,0,0V26.5A5.133,5.133,0,0,1,18.438,21.372Z" style="fill:#d6eafc"/><path d="M98,38.225l11.562-2.52,11.563,2.52A4.225,4.225,0,0,0,126.25,34.1h0a4.226,4.226,0,0,0-4.225-4.225H97.1A4.226,4.226,0,0,0,92.875,34.1h0A4.225,4.225,0,0,0,98,38.225Z" style="fill:#38454f"/><path d="M104.43,21.372H114.7a0,0,0,0,1,0,0v3.367a5.133,5.133,0,0,1-5.133,5.133h0a5.133,5.133,0,0,1-5.133-5.133V21.372A0,0,0,0,1,104.43,21.372Z" transform="translate(219.125 51.244) rotate(180)" style="fill:#d6eafc"/><path d="M23.57,65.614V36.824l-5.132-1.119-5.133,1.119v23.79a5,5,0,0,0,5,5Z" style="fill:#d6eafc"/><path d="M114.7,60.614V36.824l-5.132-1.119-5.133,1.119v28.79H109.7A5,5,0,0,0,114.7,60.614Z" style="fill:#d6eafc"/><path d="M41.474,73.521l-11.62,5.727a8.944,8.944,0,0,0-5.021,8.073v12.893h8V87.321a1.006,1.006,0,0,1,.559-.9l13.7-6.753Z" style="fill:#283238"/><path d="M86.526,73.521l11.62,5.727a8.944,8.944,0,0,1,5.021,8.073v12.893h-8V87.321a1.006,1.006,0,0,0-.559-.9l-13.7-6.753Z" style="fill:#283238"/><path d="M25.706,100.214h6.255a6.414,6.414,0,0,1,6.414,6.414v0a0,0,0,0,1,0,0H19.292a0,0,0,0,1,0,0v0A6.414,6.414,0,0,1,25.706,100.214Z" style="fill:#06daf7"/><path d="M89.625,100.214h19.083a0,0,0,0,1,0,0v0a6.414,6.414,0,0,1-6.414,6.414H96.039a6.414,6.414,0,0,1-6.414-6.414v0a0,0,0,0,1,0,0Z" transform="translate(198.333 206.842) rotate(180)" style="fill:#06daf7"/></svg>