<svg id="Layer_2" data-name="Layer 2" xmlns="http://www.w3.org/2000/svg" viewBox="0 0 128 128"><title>GPS</title><path d="M29.25,122.25a4,4,0,0,0,4,4h61.5a4,4,0,0,0,4-4V105.5H29.25Z" style="fill:#38454f"/><path d="M94.75,1.75H33.25a4,4,0,0,0-4,4v7.809h69.5V5.75A4,4,0,0,0,94.75,1.75Z" style="fill:#38454f"/><rect x="29.25" y="13.559" width="69.5" height="91.941" style="fill:#d6eafc"/><rect x="53.125" y="112.875" width="21.75" height="6" rx="3" ry="3" style="fill:#60d882"/><polygon points="29.25 100.687 98.75 58.521 98.75 49.163 64.916 69.69 29.25 42.834 29.25 52.849 57.551 74.159 29.25 91.329 29.25 100.687" style="fill:#06daf7"/><path d="M65.873,23.5A12.5,12.5,0,0,0,53.373,36c0,6.9,12.5,22.508,12.5,22.508S78.373,42.9,78.373,36A12.5,12.5,0,0,0,65.873,23.5Zm0,16.875A4.375,4.375,0,1,1,70.248,36,4.375,4.375,0,0,1,65.873,40.375Z" style="fill:#38454f"/></svg>