<svg id="Layer_2" data-name="Layer 2" xmlns="http://www.w3.org/2000/svg" viewBox="0 0 128 128"><title>GRAPHIC TABLET</title><rect x="71.083" y="11.83" width="7" height="3.002" style="fill:#05b8e2"/><rect x="28.667" y="34.17" width="97.583" height="82" style="fill:#38454f"/><rect x="46.458" y="36.378" width="62" height="77.583" transform="translate(2.288 152.628) rotate(-90)" style="fill:#d6eafc"/><rect x="1.75" y="34.17" width="26.917" height="82" style="fill:#06daf7"/><path d="M55.083,52.42H48.667a1.75,1.75,0,0,0-1.75,1.75v6.416a1.75,1.75,0,0,0,3.5,0V55.92h4.666a1.75,1.75,0,0,0,0-3.5Z" style="fill:#b7dbf6"/><path d="M106.25,52.42H99.833a1.75,1.75,0,0,0,0,3.5H104.5v4.666a1.75,1.75,0,1,0,3.5,0V54.17A1.751,1.751,0,0,0,106.25,52.42Z" style="fill:#b7dbf6"/><path d="M55.083,94.42H50.417V89.753a1.75,1.75,0,0,0-3.5,0V96.17a1.75,1.75,0,0,0,1.75,1.75h6.416a1.75,1.75,0,0,0,0-3.5Z" style="fill:#b7dbf6"/><path d="M106.25,88a1.751,1.751,0,0,0-1.75,1.75V94.42H99.833a1.75,1.75,0,0,0,0,3.5h6.417A1.751,1.751,0,0,0,108,96.17V89.753A1.751,1.751,0,0,0,106.25,88Z" style="fill:#b7dbf6"/><rect x="10.333" y="67.982" width="9.75" height="14.375" rx="4.875" ry="4.875" style="fill:#38454f"/><rect x="12.292" y="49.17" width="5.833" height="9.75" style="fill:#38454f"/><rect x="12.292" y="91.42" width="5.833" height="9.75" style="fill:#38454f"/><path d="M98.333,24.664H33.256L23.25,18.247,33.256,11.83H98.333a6.417,6.417,0,0,1,6.417,6.417h0A6.417,6.417,0,0,1,98.333,24.664Z" style="fill:#38454f"/><rect x="71.083" y="11.83" width="7" height="12.833" style="fill:#06daf7"/></svg>