<svg id="Layer_2" data-name="Layer 2" xmlns="http://www.w3.org/2000/svg" viewBox="0 0 128 128"><title>HOME CINEMA</title><rect x="1.75" y="72.885" width="124.5" height="12.913" style="fill:#38454f"/><polygon points="18.159 102.798 5.159 102.798 15.167 85.798 28.167 85.798 18.159 102.798" style="fill:#283238"/><polygon points="109.841 102.798 122.841 102.798 112.833 85.798 99.833 85.798 109.841 102.798" style="fill:#283238"/><rect x="104.188" y="29.91" width="22.063" height="32.772" style="fill:#38454f"/><polygon points="120.597 72.885 109.841 72.885 111.842 62.683 118.595 62.683 120.597 72.885" style="fill:#06daf7"/><rect x="32.315" y="25.202" width="63.37" height="38.946" style="fill:#d6eafc"/><path d="M59.168,51.257A1.749,1.749,0,0,1,57.92,48.28C67.944,38.093,67.944,38.093,68.832,38.093a1.75,1.75,0,0,1,1.029,3.165c-.766.69-6.154,6.132-9.445,9.477A1.746,1.746,0,0,1,59.168,51.257Z" style="fill:#b7dbf6"/><path d="M48.774,49.273A1.75,1.75,0,0,1,47.526,46.3c6.119-6.218,6.119-6.218,6.944-6.218a1.75,1.75,0,0,1,1.066,3.138c-.472.435-3.154,3.136-5.515,5.535A1.739,1.739,0,0,1,48.774,49.273Z" style="fill:#b7dbf6"/><path d="M73.53,49.273A1.75,1.75,0,0,1,72.283,46.3c6.118-6.218,6.118-6.218,6.943-6.218a1.749,1.749,0,0,1,1.066,3.137c-.471.435-3.153,3.137-5.515,5.536A1.739,1.739,0,0,1,73.53,49.273Z" style="fill:#b7dbf6"/><polygon points="45.265 72.885 37.772 72.885 42.914 64.148 50.407 64.148 45.265 72.885" style="fill:#38454f"/><polygon points="82.735 72.885 90.228 72.885 85.086 64.148 77.593 64.148 82.735 72.885" style="fill:#38454f"/><rect x="44.188" y="72.885" width="39.625" height="12.913" style="fill:#06daf7"/><path d="M69.812,81.091H58.187a1.75,1.75,0,0,1,0-3.5H69.812a1.75,1.75,0,0,1,0,3.5Z" style="fill:#05b8e2"/><circle cx="115.219" cy="39.843" r="3.667" style="fill:#60d882"/><circle cx="115.219" cy="52.75" r="3.667" style="fill:#60d882"/><rect x="1.75" y="29.91" width="22.063" height="32.772" transform="translate(25.563 92.593) rotate(180)" style="fill:#38454f"/><polygon points="7.403 72.885 18.159 72.885 16.158 62.683 9.405 62.683 7.403 72.885" style="fill:#06daf7"/><circle cx="12.781" cy="39.843" r="3.667" style="fill:#60d882"/><circle cx="12.781" cy="52.75" r="3.667" style="fill:#60d882"/></svg>