<svg id="Layer_2" data-name="Layer 2" xmlns="http://www.w3.org/2000/svg" viewBox="0 0 128 128"><title>MICROPHONE</title><rect x="54" y="82.544" width="20" height="29.206" style="fill:#38454f"/><polygon points="96.625 126.25 31.375 126.25 31.375 119 41.383 111.75 86.617 111.75 96.625 119 96.625 126.25" style="fill:#06daf7"/><path d="M89,13.75a12,12,0,0,0-12-12H51a12,12,0,0,0-12,12v42H89Z" style="fill:#d6eafc"/><path d="M39,55.752V70.544a12,12,0,0,0,12,12H77a12,12,0,0,0,12-12V55.752Z" style="fill:#38454f"/><path d="M39,14.75H53.5a3.625,3.625,0,0,1,3.625,3.625v0A3.625,3.625,0,0,1,53.5,22H39a0,0,0,0,1,0,0V14.75A0,0,0,0,1,39,14.75Z" style="fill:#b7dbf6"/><path d="M39,33.875H53.5A3.625,3.625,0,0,1,57.125,37.5v0A3.625,3.625,0,0,1,53.5,41.125H39a0,0,0,0,1,0,0v-7.25A0,0,0,0,1,39,33.875Z" style="fill:#b7dbf6"/><path d="M70.875,14.75h14.5A3.625,3.625,0,0,1,89,18.375v0A3.625,3.625,0,0,1,85.375,22h-14.5a0,0,0,0,1,0,0V14.75A0,0,0,0,1,70.875,14.75Z" transform="translate(159.875 36.75) rotate(180)" style="fill:#b7dbf6"/><path d="M70.875,33.875h14.5A3.625,3.625,0,0,1,89,37.5v0a3.625,3.625,0,0,1-3.625,3.625h-14.5a0,0,0,0,1,0,0v-7.25A0,0,0,0,1,70.875,33.875Z" transform="translate(159.875 75) rotate(180)" style="fill:#b7dbf6"/><rect x="54" y="100.917" width="20" height="3.5" style="fill:#283238"/></svg>