<svg id="Layer_2" data-name="Layer 2" xmlns="http://www.w3.org/2000/svg" viewBox="0 0 128 128"><title>MIXER</title><path d="M43.167,78.722V66.6a1.75,1.75,0,0,0-3.5,0V78.722c-8.357,1.3-14.891,11.825-14.891,24.57,0,13.624,7.465,24.708,16.641,24.708s16.641-11.084,16.641-24.708C58.058,90.546,51.523,80.025,43.167,78.722Zm3.083,24.57c0,13.992-3.388,21.208-4.833,21.208s-4.834-7.216-4.834-21.208,3.388-21.207,4.834-21.207S46.25,89.3,46.25,103.292Zm-17.974,0c0-8.533,3.146-15.886,7.658-19.248-1.935,4.836-2.851,12.2-2.851,19.248s.916,14.413,2.851,19.249C31.422,119.179,28.276,111.826,28.276,103.292ZM46.9,122.541c1.936-4.836,2.851-12.2,2.851-19.249S48.835,88.88,46.9,84.044c4.512,3.362,7.658,10.715,7.658,19.248S51.412,119.179,46.9,122.541Z" style="fill:#d6eafc"/><path d="M103.325,1.75H67.785A65,65,0,0,0,12.677,32.28L1.75,49.75H113.333l12.917-24Zm1.047,33H51.661l14.87-18H96.91l10.969,11.483Z" style="fill:#38454f"/><path d="M21.155,37.583A54.645,54.645,0,0,1,58.647,12.5,10.9,10.9,0,0,0,67.785,1.75h0A65,65,0,0,0,12.677,32.28L8.005,39.75h9.241a4.61,4.61,0,0,0,3.909-2.167Z" style="fill:#06daf7"/><polygon points="102.992 58.75 11.758 58.75 1.75 49.75 113 49.75 102.992 58.75" style="fill:#d6eafc"/><path d="M29.229,58.75H53.6a0,0,0,0,1,0,0V62.6a4,4,0,0,1-4,4H33.229a4,4,0,0,1-4-4V58.75A0,0,0,0,1,29.229,58.75Z" style="fill:#38454f"/></svg>