<svg id="Layer_2" data-name="Layer 2" xmlns="http://www.w3.org/2000/svg" viewBox="0 0 128 128"><title>MUSIC PLAYER</title><path d="M113.256,84.04V69a1.75,1.75,0,1,0-3.5,0V83.991H100.8A15.345,15.345,0,0,1,85.476,68.663v-7a1.75,1.75,0,0,0-3.5,0v7A18.849,18.849,0,0,0,100.8,87.491h11.581a4.59,4.59,0,0,1,0,9.179H77.974a1.75,1.75,0,0,0,0,3.5h34.411a8.088,8.088,0,0,0,.871-16.13Z" style="fill:#38454f"/><path d="M1.724,50.5v59.816a4,4,0,0,0,4,4h54.25a4,4,0,0,0,4-4V50.5Z" style="fill:#38454f"/><path d="M1.724,50.5v5H58.97v58.812h1a4,4,0,0,0,4-4V50.5Z" style="fill:#283238"/><circle cx="32.849" cy="82.408" r="21.892" style="fill:#06daf7"/><circle cx="32.849" cy="82.408" r="6.892" style="fill:#d6eafc"/><path d="M63.974,17.684a4,4,0,0,0-4-4H5.724a4,4,0,0,0-4,4V50.5h62.25Z" style="fill:#d6eafc"/><path d="M29.3,41.175a1.75,1.75,0,0,1-1.579-2.5s1.744-3.669,3.5-7.338c3.991-8.326,3.991-8.326,5.164-8.326a1.749,1.749,0,0,1,1.448,2.732c-.532.981-4.517,9.307-6.956,14.436A1.75,1.75,0,0,1,29.3,41.175Z" style="fill:#b7dbf6"/><path d="M21.681,38.163a1.75,1.75,0,0,1-1.579-2.5s1.028-2.163,2.065-4.326c2.549-5.315,2.549-5.315,3.692-5.315a1.751,1.751,0,0,1,1.472,2.7c-.362.682-2.665,5.494-4.069,8.447A1.75,1.75,0,0,1,21.681,38.163Z" style="fill:#b7dbf6"/><path d="M39.837,38.163a1.75,1.75,0,0,1-1.579-2.5s1.028-2.163,2.065-4.326c2.549-5.315,2.549-5.315,3.693-5.315a1.75,1.75,0,0,1,1.471,2.7c-.362.682-2.665,5.494-4.069,8.447A1.75,1.75,0,0,1,39.837,38.163Z" style="fill:#b7dbf6"/><path d="M36.307,67.084H29.641a1.75,1.75,0,1,0,0,3.5h6.666a1.75,1.75,0,0,0,0-3.5Z" style="fill:#05b8e2"/><path d="M36.307,94.232H29.641a1.75,1.75,0,1,0,0,3.5h6.666a1.75,1.75,0,0,0,0-3.5Z" style="fill:#05b8e2"/><path d="M46.548,77.325a1.749,1.749,0,0,0-1.75,1.75v6.666a1.75,1.75,0,0,0,3.5,0V79.075A1.749,1.749,0,0,0,46.548,77.325Z" style="fill:#05b8e2"/><path d="M19.4,77.325a1.75,1.75,0,0,0-1.75,1.75v6.666a1.75,1.75,0,0,0,3.5,0V79.075A1.749,1.749,0,0,0,19.4,77.325Z" style="fill:#05b8e2"/><rect x="63.974" y="92.539" width="14" height="11.761" style="fill:#06daf7"/><path d="M87.974,24.758a10,10,0,0,0-10,10V61.667h11.5V40.5H94.5a4,4,0,0,0,4-4V28.758a4,4,0,0,0-4-4Z" style="fill:#d6eafc"/><polygon points="89.478 54.25 89.478 54.25 89.478 50.75 89.478 50.75 77.974 50.75 77.974 54.25 89.478 54.25" style="fill:#b7dbf6"/><path d="M115.754,32.046a10,10,0,0,0-10,10V68.954h11.5V47.788h5.018a4,4,0,0,0,4-4V36.046a4,4,0,0,0-4-4Z" style="fill:#d6eafc"/><rect x="105.754" y="58.037" width="11.504" height="3.5" style="fill:#b7dbf6"/></svg>