<svg id="Layer_2" data-name="Layer 2" xmlns="http://www.w3.org/2000/svg" viewBox="0 0 128 128"><title>RADIO</title><rect x="1.75" y="36.875" width="124.5" height="71.5" rx="4" ry="4" style="fill:#38454f"/><rect x="11.75" y="46.88" width="104.5" height="20.25" style="fill:#d6eafc"/><circle cx="105.629" cy="87.754" r="10.621" style="fill:#60d882"/><path d="M85,89.5H11.75a1.75,1.75,0,0,1,0-3.5H85a1.75,1.75,0,0,1,0,3.5Z" style="fill:#283238"/><path d="M71.375,79.189h-46a1.75,1.75,0,0,1,0-3.5h46a1.75,1.75,0,0,1,0,3.5Z" style="fill:#283238"/><path d="M71.375,99.818h-46a1.75,1.75,0,0,1,0-3.5h46a1.75,1.75,0,0,1,0,3.5Z" style="fill:#283238"/><rect x="18" y="19.625" width="19.333" height="17.25" transform="translate(55.333 56.5) rotate(180)" style="fill:#06daf7"/><path d="M37.333,27.625h59.5a4,4,0,0,0,4-4h0a4,4,0,0,0-4-4h-59.5Z" style="fill:#38454f"/><polygon points="31.67 67.125 20.25 67.125 22.252 54.75 29.668 54.75 31.67 67.125" style="fill:#06daf7"/><path d="M45.17,56.38a1.743,1.743,0,0,0-1.75,1.74v9.01h3.5V58.12A1.75,1.75,0,0,0,45.17,56.38Z" style="fill:#b7dbf6"/><path d="M59.5,56.38a1.743,1.743,0,0,0-1.75,1.74v9.01h3.5V58.12A1.743,1.743,0,0,0,59.5,56.38Z" style="fill:#b7dbf6"/><path d="M73.83,56.38a1.75,1.75,0,0,0-1.75,1.74v9.01h3.5V58.12A1.743,1.743,0,0,0,73.83,56.38Z" style="fill:#b7dbf6"/><path d="M88.17,56.38a1.743,1.743,0,0,0-1.75,1.74v9.01h3.5V58.12A1.75,1.75,0,0,0,88.17,56.38Z" style="fill:#b7dbf6"/><path d="M102.5,56.38a1.743,1.743,0,0,0-1.75,1.74v9.01h3.5V58.12A1.743,1.743,0,0,0,102.5,56.38Z" style="fill:#b7dbf6"/><path d="M105.629,77.133a10.623,10.623,0,0,0-1.75.156V86.5a1.75,1.75,0,0,0,3.5,0V77.289A10.633,10.633,0,0,0,105.629,77.133Z" style="fill:#2fad68"/></svg>