<svg id="Layer_2" data-name="Layer 2" xmlns="http://www.w3.org/2000/svg" viewBox="0 0 128 128"><title>TOASTER</title><path d="M97.333,42.792H21.75a20,20,0,0,0-20,20v42.666H117.333V62.792A20,20,0,0,0,97.333,42.792Z" style="fill:#38454f"/><rect x="10.667" y="105.458" width="28.333" height="10.667" style="fill:#38454f"/><rect x="80.083" y="105.458" width="28.333" height="10.667" transform="translate(188.5 221.583) rotate(180)" style="fill:#38454f"/><rect x="1.75" y="92.624" width="115.583" height="12.834" style="fill:#06daf7"/><rect x="80.083" y="72.625" width="23.5" height="9.25" rx="4.625" ry="4.625" style="fill:#d6eafc"/><rect x="117.333" y="62.792" width="8.917" height="7.333" style="fill:#06daf7"/><path d="M88.667,11.875H30.417A7.125,7.125,0,0,0,23.292,19v3.5a7.125,7.125,0,0,0,7.125,7.125h0V42.792h58.25V29.625h0A7.125,7.125,0,0,0,95.792,22.5V19A7.125,7.125,0,0,0,88.667,11.875Z" style="fill:#f9ce00"/><path d="M54.709,33.915a1.75,1.75,0,0,1-1.247-2.977C63.486,20.751,63.486,20.751,64.374,20.751A1.75,1.75,0,0,1,65.4,23.917c-.768.689-6.155,6.131-9.446,9.476A1.75,1.75,0,0,1,54.709,33.915Z" style="fill:#f4b500"/><path d="M44.316,31.931a1.751,1.751,0,0,1-1.248-2.978c6.119-6.218,6.119-6.218,6.943-6.218a1.751,1.751,0,0,1,1.067,3.138c-.472.435-3.154,3.136-5.515,5.535A1.743,1.743,0,0,1,44.316,31.931Z" style="fill:#f4b500"/><path d="M69.072,31.931a1.751,1.751,0,0,1-1.247-2.978c6.118-6.218,6.118-6.218,6.943-6.218a1.75,1.75,0,0,1,1.066,3.138c-.472.436-3.154,3.136-5.514,5.535A1.747,1.747,0,0,1,69.072,31.931Z" style="fill:#f4b500"/></svg>