<?xml version="1.0" encoding="utf-8"?>
<!-- Generator: Adobe Illustrator 23.0.3, SVG Export Plug-In . SVG Version: 6.00 Build 0)  -->
<svg version="1.1" id="FLAT" xmlns="http://www.w3.org/2000/svg" xmlns:xlink="http://www.w3.org/1999/xlink" x="0px" y="0px"
	 viewBox="0 0 256 256" style="enable-background:new 0 0 256 256;" xml:space="preserve">
<style type="text/css">
	.st0{fill:#E2E0E0;}
	.st1{fill:#7C7C7C;}
	.st2{fill:#8FCAE2;}
	.st3{fill:#6AAEC4;}
	.st4{fill:#FFE70D;}
	.st5{fill:#6D372E;}
	.st6{fill:#BABABA;}
	.st7{fill:#CE9367;}
	.st8{fill:#A05A4A;}
	.st9{fill:#5B2C25;}
	.st10{fill:#D83030;}
	.st11{fill:#36F282;}
	.st12{fill:#E56533;}
	.st13{fill:#3D809B;}
	.st14{fill:#51A3BC;}
	.st15{fill:#FFD55F;}
	.st16{fill:#E2A554;}
	.st17{fill:#A01A1A;}
	.st18{fill:#469FCC;}
	.st19{fill:#B356DB;}
	.st20{fill:#58AA44;}
	.st21{fill:#257DA0;}
	.st22{fill:#83CFED;}
	.st23{fill:#D7EFF7;}
	.st24{fill:#224415;}
	.st25{fill:#212947;}
	.st26{fill:#FFF75C;}
	.st27{fill:#397224;}
	.st28{fill:#515151;}
	.st29{fill:#FFC476;}
	.st30{fill:#EDBE9D;}
	.st31{fill:#656666;}
	.st32{fill:#FFF297;}
	.st33{fill:#FFFFFF;}
	.st34{fill:#F4BD98;}
	.st35{fill:none;stroke:#000000;stroke-miterlimit:10;}
	.st36{fill:#F4C653;}
	.st37{fill:#CCF3FF;}
	.st38{fill:#FCE8B6;}
	.st39{fill:#81FCB3;}
	.st40{fill:#020001;}
	.st41{fill:#020202;}
	.st42{fill:#F77B54;}
	.st43{fill:#F2A55F;}
</style>
<g>
	<path class="st5" d="M239.5,243.5c0,1.3-1.1,2.4-2.4,2.4l0,0c-1.3,0-2.4-1.1-2.4-2.4l0,0c0-1.3,1.1-2.4,2.4-2.4l0,0
		C238.4,241.1,239.5,242.1,239.5,243.5L239.5,243.5z"/>
</g>
<g>
	<path class="st12" d="M153.5,216c0,3.9-3.1,7-7,7h-18c-3.9,0-7-3.1-7-7v-89c0-3.9,3.1-7,7-7h18c3.9,0,7,3.1,7,7V216z"/>
</g>
<g>
	<path class="st10" d="M205,213.6c0,5.2-3.1,9.4-7,9.4h-18c-3.9,0-7-4.2-7-9.4V94.1c0-5.2,3.1-9.4,7-9.4h18c3.9,0,7,4.2,7,9.4V213.6
		z"/>
</g>
<g>
	<path class="st12" d="M102,219.2c0,2.1-3.1,3.8-7,3.8H77c-3.9,0-7-1.7-7-3.8v-48.8c0-2.1,3.1-3.8,7-3.8h18c3.9,0,7,1.7,7,3.8V219.2
		z"/>
</g>
<g>
	<g>
		<path class="st5" d="M223.5,241c-49.3,0-98.7,0-148,0c-17,0-34,0-51,0c0.8,0.8,1.7,1.7,2.5,2.5c0-48.7,0-97.4,0-146.1
			c0-22,0-43.9,0-65.9c0-3.2-5-3.2-5,0c0,48.7,0,97.4,0,146.1c0,22,0,43.9,0,65.9c0,1.4,1.1,2.5,2.5,2.5c49.3,0,98.7,0,148,0
			c17,0,34,0,51,0C226.8,246,226.8,241,223.5,241L223.5,241z"/>
	</g>
</g>
<g>
	<g>
		<path class="st5" d="M26.5,53c5.3,0,10.7,0,16,0c3.2,0,3.2-5,0-5c-5.3,0-10.7,0-16,0C23.3,48,23.3,53,26.5,53L26.5,53z"/>
	</g>
</g>
<g>
	<g>
		<path class="st5" d="M26.5,81.5c5.3,0,10.7,0,16,0c3.2,0,3.2-5,0-5c-5.3,0-10.7,0-16,0C23.3,76.5,23.3,81.5,26.5,81.5L26.5,81.5z"
			/>
	</g>
</g>
<g>
	<g>
		<path class="st5" d="M26.5,109.2c5.3,0,10.7,0,16,0c3.2,0,3.2-5,0-5c-5.3,0-10.7,0-16,0C23.3,104.2,23.3,109.2,26.5,109.2
			L26.5,109.2z"/>
	</g>
</g>
<g>
	<g>
		<path class="st5" d="M26.5,137.3c5.3,0,10.7,0,16,0c3.2,0,3.2-5,0-5c-5.3,0-10.7,0-16,0C23.3,132.3,23.3,137.3,26.5,137.3
			L26.5,137.3z"/>
	</g>
</g>
<g>
	<g>
		<path class="st5" d="M26.5,165.8c5.3,0,10.7,0,16,0c3.2,0,3.2-5,0-5c-5.3,0-10.7,0-16,0C23.3,160.8,23.3,165.8,26.5,165.8
			L26.5,165.8z"/>
	</g>
</g>
<g>
	<g>
		<path class="st5" d="M26.5,193.5c5.3,0,10.7,0,16,0c3.2,0,3.2-5,0-5c-5.3,0-10.7,0-16,0C23.3,188.5,23.3,193.5,26.5,193.5
			L26.5,193.5z"/>
	</g>
</g>
<g>
	<g>
		<path class="st5" d="M26.5,221c5.3,0,10.7,0,16,0c3.2,0,3.2-5,0-5c-5.3,0-10.7,0-16,0C23.3,216,23.3,221,26.5,221L26.5,221z"/>
	</g>
</g>
</svg>
