<?xml version="1.0" encoding="utf-8"?>
<!-- Generator: Adobe Illustrator 23.0.3, SVG Export Plug-In . SVG Version: 6.00 Build 0)  -->
<svg version="1.1" id="FLAT" xmlns="http://www.w3.org/2000/svg" xmlns:xlink="http://www.w3.org/1999/xlink" x="0px" y="0px"
	 viewBox="0 0 256 256" style="enable-background:new 0 0 256 256;" xml:space="preserve">
<style type="text/css">
	.st0{fill:#E2E0E0;}
	.st1{fill:#7C7C7C;}
	.st2{fill:#8FCAE2;}
	.st3{fill:#6AAEC4;}
	.st4{fill:#FFE70D;}
	.st5{fill:#6D372E;}
	.st6{fill:#BABABA;}
	.st7{fill:#CE9367;}
	.st8{fill:#A05A4A;}
	.st9{fill:#5B2C25;}
	.st10{fill:#D83030;}
	.st11{fill:#36F282;}
	.st12{fill:#E56533;}
	.st13{fill:#3D809B;}
	.st14{fill:#51A3BC;}
	.st15{fill:#FFD55F;}
	.st16{fill:#E2A554;}
	.st17{fill:#A01A1A;}
	.st18{fill:#469FCC;}
	.st19{fill:#B356DB;}
	.st20{fill:#58AA44;}
	.st21{fill:#257DA0;}
	.st22{fill:#83CFED;}
	.st23{fill:#D7EFF7;}
	.st24{fill:#224415;}
	.st25{fill:#212947;}
	.st26{fill:#FFF75C;}
	.st27{fill:#397224;}
	.st28{fill:#515151;}
	.st29{fill:#FFC476;}
	.st30{fill:#EDBE9D;}
	.st31{fill:#656666;}
	.st32{fill:#FFF297;}
	.st33{fill:#FFFFFF;}
	.st34{fill:#F4BD98;}
	.st35{fill:none;stroke:#000000;stroke-miterlimit:10;}
	.st36{fill:#F4C653;}
	.st37{fill:#CCF3FF;}
	.st38{fill:#FCE8B6;}
	.st39{fill:#81FCB3;}
	.st40{fill:#020001;}
	.st41{fill:#020202;}
	.st42{fill:#F77B54;}
	.st43{fill:#F2A55F;}
</style>
<g>
	<polygon class="st0" points="163.1,27.2 53.4,27.2 53.4,238.4 207.9,238.4 207.9,72.2 	"/>
</g>
<g>
	<path class="st1" d="M141.6,73.4c0,1.3-1.1,2.4-2.4,2.4l0,0c-1.3,0-2.4-1.1-2.4-2.4l0,0c0-1.3,1.1-2.4,2.4-2.4l0,0
		C140.5,70.9,141.6,72,141.6,73.4L141.6,73.4z"/>
</g>
<g>
	<g>
		<path class="st1" d="M71.5,96.5C78.1,84,84.7,71.4,91.2,58.9c-1.4,0-2.9,0-4.3,0c4.1,7.7,8.2,15.3,12.3,23c0.9,1.7,3.4,1.6,4.3,0
			c7.9-13.8,15.8-27.7,23.7-41.5c-1.4,0-2.9,0-4.3,0c3.9,8.2,7.8,16.3,11.7,24.5c1.4,2.9,5.7,0.4,4.3-2.5
			c-3.9-8.2-7.8-16.3-11.7-24.5c-0.8-1.7-3.4-1.5-4.3,0c-7.9,13.8-15.8,27.7-23.7,41.5c1.4,0,2.9,0,4.3,0c-4.1-7.7-8.2-15.3-12.3-23
			c-0.9-1.6-3.5-1.6-4.3,0C80.3,68.9,73.8,81.5,67.2,94C65.7,96.9,70.1,99.4,71.5,96.5L71.5,96.5z"/>
	</g>
</g>
<g>
	<polygon class="st6" points="161.8,28.2 161.8,72.5 207.5,72.2 	"/>
</g>
<g>
	<g>
		<path class="st13" d="M195.6,217.3l-29.3-35.4c8.1-8,13.2-19.1,13.2-31.4c0-24.3-19.7-44-44-44s-44,19.7-44,44
			c0,24.3,19.7,44,44,44c6.5,0,12.6-1.4,18.1-3.9l30.2,36.5c2.5,3,6.9,3.4,9.9,0.9l1-0.8C197.6,224.7,198.1,220.3,195.6,217.3z"/>
	</g>
	<g>
		<path class="st2" d="M168.5,149.1c0,18.3-14.8,33.1-33.1,33.1s-33.1-14.8-33.1-33.1s14.8-33.1,33.1-33.1S168.5,130.8,168.5,149.1z
			"/>
	</g>
	<g>
		<path class="st23" d="M138.8,125.1c0,1.3-1.1,2.4-2.4,2.4l0,0c-1.3,0-2.4-1.1-2.4-2.4l0,0c0-1.3,1.1-2.4,2.4-2.4l0,0
			C137.7,122.7,138.8,123.7,138.8,125.1L138.8,125.1z"/>
	</g>
	<g>
		<g>
			<path class="st23" d="M143.6,129.6c14.3,7.9,16.3,26.7,4.1,37.5c-2.4,2.1,1.1,5.7,3.5,3.5c14.5-12.9,11.8-36-5.2-45.3
				C143.3,123.7,140.8,128,143.6,129.6L143.6,129.6z"/>
		</g>
	</g>
</g>
</svg>
