<?xml version="1.0" encoding="utf-8"?>
<!-- Generator: Adobe Illustrator 23.0.3, SVG Export Plug-In . SVG Version: 6.00 Build 0)  -->
<svg version="1.1" id="FLAT" xmlns="http://www.w3.org/2000/svg" xmlns:xlink="http://www.w3.org/1999/xlink" x="0px" y="0px"
	 viewBox="0 0 256 256" style="enable-background:new 0 0 256 256;" xml:space="preserve">
<style type="text/css">
	.st0{fill:#E2E0E0;}
	.st1{fill:#7C7C7C;}
	.st2{fill:#8FCAE2;}
	.st3{fill:#6AAEC4;}
	.st4{fill:#FFE70D;}
	.st5{fill:#6D372E;}
	.st6{fill:#BABABA;}
	.st7{fill:#CE9367;}
	.st8{fill:#A05A4A;}
	.st9{fill:#5B2C25;}
	.st10{fill:#D83030;}
	.st11{fill:#36F282;}
	.st12{fill:#E56533;}
	.st13{fill:#3D809B;}
	.st14{fill:#51A3BC;}
	.st15{fill:#FFD55F;}
	.st16{fill:#E2A554;}
	.st17{fill:#A01A1A;}
	.st18{fill:#469FCC;}
	.st19{fill:#B356DB;}
	.st20{fill:#58AA44;}
	.st21{fill:#257DA0;}
	.st22{fill:#83CFED;}
	.st23{fill:#D7EFF7;}
	.st24{fill:#224415;}
	.st25{fill:#212947;}
	.st26{fill:#FFF75C;}
	.st27{fill:#397224;}
	.st28{fill:#515151;}
	.st29{fill:#FFC476;}
	.st30{fill:#EDBE9D;}
	.st31{fill:#656666;}
	.st32{fill:#FFF297;}
	.st33{fill:#FFFFFF;}
	.st34{fill:#F4BD98;}
	.st35{fill:none;stroke:#000000;stroke-miterlimit:10;}
	.st36{fill:#F4C653;}
	.st37{fill:#CCF3FF;}
	.st38{fill:#FCE8B6;}
	.st39{fill:#81FCB3;}
	.st40{fill:#020001;}
	.st41{fill:#020202;}
	.st42{fill:#F77B54;}
	.st43{fill:#F2A55F;}
</style>
<g>
	<polygon class="st7" points="100.3,97.4 101.7,224.8 119.8,246 138,224.6 136.3,96.3 119.2,83.3 	"/>
</g>
<g>
	<polygon class="st0" points="46.3,48.3 119.2,83.3 90,105.7 	"/>
</g>
<g>
	<polygon class="st0" points="192.3,48.3 119.2,83.3 148.6,105.7 	"/>
</g>
<g>
	<polygon class="st8" points="100.3,97.4 119.2,112.4 136.3,96.3 119.2,83.3 	"/>
</g>
<g>
	<g>
		<circle class="st30" cx="111.7" cy="219.7" r="2.4"/>
	</g>
	<g>
		<path class="st30" d="M109.2,138c0,24.1,0,48.2,0,72.3c0,3.2,5,3.2,5,0c0-24.1,0-48.2,0-72.3C114.2,134.8,109.2,134.8,109.2,138z"
			/>
	</g>
</g>
</svg>
