<?xml version="1.0" encoding="utf-8"?>
<!-- Generator: Adobe Illustrator 23.0.3, SVG Export Plug-In . SVG Version: 6.00 Build 0)  -->
<svg version="1.1" id="FLAT" xmlns="http://www.w3.org/2000/svg" xmlns:xlink="http://www.w3.org/1999/xlink" x="0px" y="0px"
	 viewBox="0 0 256 256" style="enable-background:new 0 0 256 256;" xml:space="preserve">
<style type="text/css">
	.st0{fill:#E2E0E0;}
	.st1{fill:#7C7C7C;}
	.st2{fill:#8FCAE2;}
	.st3{fill:#6AAEC4;}
	.st4{fill:#FFE70D;}
	.st5{fill:#6D372E;}
	.st6{fill:#BABABA;}
	.st7{fill:#CE9367;}
	.st8{fill:#A05A4A;}
	.st9{fill:#5B2C25;}
	.st10{fill:#D83030;}
	.st11{fill:#36F282;}
	.st12{fill:#E56533;}
	.st13{fill:#3D809B;}
	.st14{fill:#51A3BC;}
	.st15{fill:#FFD55F;}
	.st16{fill:#E2A554;}
	.st17{fill:#A01A1A;}
	.st18{fill:#469FCC;}
	.st19{fill:#B356DB;}
	.st20{fill:#58AA44;}
	.st21{fill:#257DA0;}
	.st22{fill:#83CFED;}
	.st23{fill:#D7EFF7;}
	.st24{fill:#224415;}
	.st25{fill:#212947;}
	.st26{fill:#FFF75C;}
	.st27{fill:#397224;}
	.st28{fill:#515151;}
	.st29{fill:#FFC476;}
	.st30{fill:#EDBE9D;}
	.st31{fill:#656666;}
	.st32{fill:#FFF297;}
	.st33{fill:#FFFFFF;}
	.st34{fill:#F4BD98;}
	.st35{fill:none;stroke:#000000;stroke-miterlimit:10;}
	.st36{fill:#F4C653;}
	.st37{fill:#CCF3FF;}
	.st38{fill:#FCE8B6;}
	.st39{fill:#81FCB3;}
	.st40{fill:#020001;}
	.st41{fill:#020202;}
	.st42{fill:#F77B54;}
	.st43{fill:#F2A55F;}
</style>
<g>
	<path d="M157.9,167.9c0,1.3-1.1,2.4-2.4,2.4l0,0c-1.3,0-2.4-1.1-2.4-2.4l0,0c0-1.3,1.1-2.4,2.4-2.4l0,0
		C156.8,165.5,157.9,166.6,157.9,167.9L157.9,167.9z"/>
</g>
<g>
	<g>
		<path d="M103,170.4c14.8,0,29.5,0,44.3,0c3.2,0,3.2-5,0-5c-14.8,0-29.5,0-44.3,0C99.8,165.4,99.8,170.4,103,170.4L103,170.4z"/>
	</g>
</g>
<g>
	<path class="st8" d="M149.6,43.9c0,3.3-2.7,6-6,6H115c-3.3,0-6-2.7-6-6V35c0-3.3,2.7-6,6-6h28.6c3.3,0,6,2.7,6,6V43.9z"/>
</g>
<g>
	<path class="st5" d="M171.3,170.9c0,3.3-2.7,6-6,6H92.6c-3.3,0-6-2.7-6-6V55.4c0-3.3,2.7-6,6-6h72.8c3.3,0,6,2.7,6,6V170.9z"/>
</g>
<g>
	<path class="st9" d="M131.5,213.5c0-12.2,0-24.4,0-36.6c0-3.2-5-3.2-5,0c0,12.2,0,24.4,0,36.5c-15.8,1-27.8,15-28.2,30.6
		c-0.1,3.2,4.9,3.2,5,0c0.3-14.3,11.4-25.3,25.7-25.7c14.3-0.3,25.3,11.9,25.7,25.7c0.1,3.2,5.1,3.2,5,0
		C159.2,227.8,147.2,215.1,131.5,213.5z"/>
</g>
<g>
	<path class="st9" d="M151.1,136H106l-19.4-0.2v35c0,3.3,2.7,6,6,6h72.8c3.3,0,6-2.7,6-6V136H151.1z"/>
</g>
<g>
	<path class="st8" d="M106,132.7c0,3.3-2.7,6-6,6h-5.9c-3.3,0-6-2.7-6-6V99.9c0-3.3,2.7-6,6-6h5.9c3.3,0,6,2.7,6,6V132.7z"/>
</g>
<g>
	<path class="st8" d="M170,131.7c0,3.3-2.7,6-6,6h-5.9c-3.3,0-6-2.7-6-6V98.9c0-3.3,2.7-6,6-6h5.9c3.3,0,6,2.7,6,6V131.7z"/>
</g>
</svg>
