<?xml version="1.0" encoding="utf-8"?>
<!-- Generator: Adobe Illustrator 23.0.3, SVG Export Plug-In . SVG Version: 6.00 Build 0)  -->
<svg version="1.1" id="FLAT" xmlns="http://www.w3.org/2000/svg" xmlns:xlink="http://www.w3.org/1999/xlink" x="0px" y="0px"
	 viewBox="0 0 256 256" style="enable-background:new 0 0 256 256;" xml:space="preserve">
<style type="text/css">
	.st0{fill:#E2E0E0;}
	.st1{fill:#7C7C7C;}
	.st2{fill:#8FCAE2;}
	.st3{fill:#6AAEC4;}
	.st4{fill:#FFE70D;}
	.st5{fill:#6D372E;}
	.st6{fill:#BABABA;}
	.st7{fill:#CE9367;}
	.st8{fill:#A05A4A;}
	.st9{fill:#5B2C25;}
	.st10{fill:#D83030;}
	.st11{fill:#36F282;}
	.st12{fill:#E56533;}
	.st13{fill:#3D809B;}
	.st14{fill:#51A3BC;}
	.st15{fill:#FFD55F;}
	.st16{fill:#E2A554;}
	.st17{fill:#A01A1A;}
	.st18{fill:#469FCC;}
	.st19{fill:#B356DB;}
	.st20{fill:#58AA44;}
	.st21{fill:#257DA0;}
	.st22{fill:#83CFED;}
	.st23{fill:#D7EFF7;}
	.st24{fill:#224415;}
	.st25{fill:#212947;}
	.st26{fill:#FFF75C;}
	.st27{fill:#397224;}
	.st28{fill:#515151;}
	.st29{fill:#FFC476;}
	.st30{fill:#EDBE9D;}
	.st31{fill:#656666;}
	.st32{fill:#FFF297;}
	.st33{fill:#FFFFFF;}
	.st34{fill:#F4BD98;}
	.st35{fill:none;stroke:#000000;stroke-miterlimit:10;}
	.st36{fill:#F4C653;}
	.st37{fill:#CCF3FF;}
	.st38{fill:#FCE8B6;}
	.st39{fill:#81FCB3;}
	.st40{fill:#020001;}
	.st41{fill:#020202;}
	.st42{fill:#F77B54;}
	.st43{fill:#F2A55F;}
</style>
<g>
	
		<ellipse transform="matrix(0.1591 -0.9873 0.9873 0.1591 -22.8498 240.1581)" class="st2" cx="129.5" cy="133.5" rx="112.5" ry="112.5"/>
</g>
<g>
	<g>
		<path class="st21" d="M132.2,197c6.6-12.6,13.1-25.1,19.7-37.7c-1.4,0-2.9,0-4.3,0c4.1,7.7,8.2,15.3,12.3,23
			c0.9,1.7,3.4,1.6,4.3,0c7.9-13.8,15.8-27.7,23.7-41.5c-1.4,0-2.9,0-4.3,0c3.9,8.2,7.8,16.3,11.7,24.5c1.4,2.9,5.7,0.4,4.3-2.5
			c-3.9-8.2-7.8-16.3-11.7-24.5c-0.8-1.7-3.4-1.5-4.3,0c-7.9,13.8-15.8,27.7-23.7,41.5c1.4,0,2.9,0,4.3,0c-4.1-7.7-8.2-15.3-12.3-23
			c-0.9-1.6-3.5-1.6-4.3,0c-6.6,12.6-13.1,25.1-19.7,37.7C126.4,197.3,130.7,199.8,132.2,197L132.2,197z"/>
	</g>
</g>
<g>
	<g>
		<path class="st21" d="M127,24c0,48.2,0,96.5,0,144.7c0,24,0,48.1,0,72.1c0,3.2,5,3.2,5,0c0-48.2,0-96.5,0-144.7
			c0-24,0-48.1,0-72.1C132,20.8,127,20.8,127,24L127,24z"/>
	</g>
</g>
<g>
	<g>
		<path class="st21" d="M21.2,134.7c48.1,0,96.2,0,144.4,0c25.2,0,50.3,0,75.5,0c3.2,0,3.2-5,0-5c-48.1,0-96.2,0-144.4,0
			c-25.2,0-50.3,0-75.5,0C18,129.7,18,134.7,21.2,134.7L21.2,134.7z"/>
	</g>
</g>
<g>
	<g>
		<path class="st21" d="M79.4,34.1C68.5,53.9,61.9,76.8,57.8,98.9c-8.5,45.8-2.4,93.3,21.6,133.7c1.6,2.8,6,0.3,4.3-2.5
			c-23.9-40.1-29.3-87-20.6-132.4c4-20.8,10.4-42.4,20.6-61.1C85.3,33.8,80.9,31.2,79.4,34.1L79.4,34.1z"/>
	</g>
</g>
<g>
	<g>
		<path class="st21" d="M181.8,39.6c13.4,21.3,19.8,48.1,23,72.7c2.7,20.4,2.3,41.2-1.5,61.5c-1.8,9.8-4.6,19.4-8.1,28.8
			c-3.4,9.1-8.3,16.3-13.4,24.5c-1.7,2.8,2.6,5.3,4.3,2.5c4.9-8,9.7-15.1,13.2-23.9c3.9-9.9,6.8-20.2,8.8-30.6
			c4.1-20.7,4.2-41.9,1.7-62.8c-2.2-18.5-6.8-36.7-13.6-54.1c-2.8-7.2-6-14.6-10.1-21.2C184.5,34.3,180.1,36.8,181.8,39.6
			L181.8,39.6z"/>
	</g>
</g>
<g>
	<g>
		<path class="st21" d="M30,182.5c16.4,10.1,36.5,15.6,55.2,19.2c47.5,9.3,96.7,2.7,141.8-14.2c3-1.1,1.7-6-1.3-4.8
			c-44.7,16.8-93.1,23.1-140.2,13.9c-17.9-3.5-37.2-8.9-52.9-18.5C29.8,176.5,27.2,180.8,30,182.5L30,182.5z"/>
	</g>
</g>
<g>
	<g>
		<path class="st21" d="M230.2,85.2c-16.8-10-37.1-15.4-56.1-19c-47.8-9.1-97.3-2.6-142.6,14.4c-3,1.1-1.7,6,1.3,4.8
			c45-16.9,93.6-23.2,141.1-14.2c18.2,3.4,37.7,8.7,53.8,18.3C230.5,91.2,233,86.9,230.2,85.2L230.2,85.2z"/>
	</g>
</g>
</svg>
