<?xml version="1.0" encoding="utf-8"?>
<!-- Generator: Adobe Illustrator 23.0.3, SVG Export Plug-In . SVG Version: 6.00 Build 0)  -->
<svg version="1.1" id="FLAT" xmlns="http://www.w3.org/2000/svg" xmlns:xlink="http://www.w3.org/1999/xlink" x="0px" y="0px"
	 viewBox="0 0 256 256" style="enable-background:new 0 0 256 256;" xml:space="preserve">
<style type="text/css">
	.st0{fill:#E2E0E0;}
	.st1{fill:#7C7C7C;}
	.st2{fill:#8FCAE2;}
	.st3{fill:#6AAEC4;}
	.st4{fill:#FFE70D;}
	.st5{fill:#6D372E;}
	.st6{fill:#BABABA;}
	.st7{fill:#CE9367;}
	.st8{fill:#A05A4A;}
	.st9{fill:#5B2C25;}
	.st10{fill:#D83030;}
	.st11{fill:#36F282;}
	.st12{fill:#E56533;}
	.st13{fill:#3D809B;}
	.st14{fill:#51A3BC;}
	.st15{fill:#FFD55F;}
	.st16{fill:#E2A554;}
	.st17{fill:#A01A1A;}
	.st18{fill:#469FCC;}
	.st19{fill:#B356DB;}
	.st20{fill:#58AA44;}
	.st21{fill:#257DA0;}
	.st22{fill:#83CFED;}
	.st23{fill:#D7EFF7;}
	.st24{fill:#224415;}
	.st25{fill:#212947;}
	.st26{fill:#FFF75C;}
	.st27{fill:#397224;}
	.st28{fill:#515151;}
	.st29{fill:#FFC476;}
	.st30{fill:#EDBE9D;}
	.st31{fill:#656666;}
	.st32{fill:#FFF297;}
	.st33{fill:#FFFFFF;}
	.st34{fill:#F4BD98;}
	.st35{fill:none;stroke:#000000;stroke-miterlimit:10;}
	.st36{fill:#F4C653;}
	.st37{fill:#CCF3FF;}
	.st38{fill:#FCE8B6;}
	.st39{fill:#81FCB3;}
	.st40{fill:#020001;}
	.st41{fill:#020202;}
	.st42{fill:#F77B54;}
	.st43{fill:#F2A55F;}
</style>
<g>
	<path class="st27" d="M142.8,81.8c0,11.2-9.1,20.2-20.2,20.2c-11.2,0-20.2-9.1-20.2-20.2c0-11.2,9.1-20.2,20.2-20.2
		C133.7,61.6,142.8,70.6,142.8,81.8z"/>
</g>
<g>
	<path class="st39" d="M90.6,162.1c0,11.2-9.1,20.2-20.2,20.2c-11.2,0-20.2-9.1-20.2-20.2c0-11.2,9.1-20.2,20.2-20.2
		C81.5,141.9,90.6,150.9,90.6,162.1z"/>
</g>
<g>
	<path class="st20" d="M197.6,159c0,11.2-9.1,20.2-20.2,20.2c-11.2,0-20.2-9.1-20.2-20.2c0-11.2,9.1-20.2,20.2-20.2
		C188.5,138.8,197.6,147.8,197.6,159z"/>
</g>
<g>
	<g>
		<path class="st5" d="M150.3,177.7c-8.3,0-16.6-0.1-24.9-0.1c-3.2,0-3.2,5,0,5c6.3,0,12.5,0.1,18.8,0.1c-11.4,9.7-27.5,12-40.6,3.5
			c-2.7-1.8-5.2,2.6-2.5,4.3c14.7,9.5,32.9,7.1,45.8-3.5c-0.8,5.8-1.5,11.5-2.3,17.3c-0.4,3.2,4.6,3.2,5,0c1-8,2.1-16,3.1-24
			C152.9,178.8,151.5,177.7,150.3,177.7z"/>
	</g>
	<g>
		<path class="st5" d="M171.4,77.1c5.6-1.2,11.2-2.4,16.8-3.6c3.2-0.7,1.8-5.5-1.3-4.8c-7.9,1.7-15.8,3.4-23.7,5.1
			c-1.3,0.3-2.2,1.8-1.7,3.1c2.8,7.8,5.5,15.6,8.3,23.5c1.1,3,5.9,1.7,4.8-1.3c-2.1-6-4.2-11.9-6.3-17.9c12.8,7.5,20.6,21.7,17,36.9
			c-0.7,3.1,4.1,4.5,4.8,1.3C194.1,102.3,185.9,85.7,171.4,77.1z"/>
	</g>
	<g>
		<path class="st5" d="M81.8,78.5c-16.7,5-26.9,20.5-27.1,37.2c-3.9-4.2-7.7-8.5-11.6-12.7c-2.2-2.4-5.7,1.2-3.5,3.5
			c5.4,6,10.9,11.9,16.3,17.9c0.9,1,2.7,1,3.5,0c5.4-6.3,10.8-12.6,16.2-18.9c2.1-2.4-1.4-6-3.5-3.5c-4.1,4.8-8.2,9.6-12.4,14.5
			c0-14.9,8.5-28.7,23.4-33.2C86.2,82.4,84.9,77.6,81.8,78.5z"/>
	</g>
</g>
</svg>
