<?xml version="1.0" encoding="utf-8"?>
<!-- Generator: Adobe Illustrator 23.0.3, SVG Export Plug-In . SVG Version: 6.00 Build 0)  -->
<svg version="1.1" id="FLAT" xmlns="http://www.w3.org/2000/svg" xmlns:xlink="http://www.w3.org/1999/xlink" x="0px" y="0px"
	 viewBox="0 0 256 256" style="enable-background:new 0 0 256 256;" xml:space="preserve">
<style type="text/css">
	.st0{fill:#E2E0E0;}
	.st1{fill:#7C7C7C;}
	.st2{fill:#8FCAE2;}
	.st3{fill:#6AAEC4;}
	.st4{fill:#FFE70D;}
	.st5{fill:#6D372E;}
	.st6{fill:#BABABA;}
	.st7{fill:#CE9367;}
	.st8{fill:#A05A4A;}
	.st9{fill:#5B2C25;}
	.st10{fill:#D83030;}
	.st11{fill:#36F282;}
	.st12{fill:#E56533;}
	.st13{fill:#3D809B;}
	.st14{fill:#51A3BC;}
	.st15{fill:#FFD55F;}
	.st16{fill:#E2A554;}
	.st17{fill:#A01A1A;}
	.st18{fill:#469FCC;}
	.st19{fill:#B356DB;}
	.st20{fill:#58AA44;}
	.st21{fill:#257DA0;}
	.st22{fill:#83CFED;}
	.st23{fill:#D7EFF7;}
	.st24{fill:#224415;}
	.st25{fill:#212947;}
	.st26{fill:#FFF75C;}
	.st27{fill:#397224;}
	.st28{fill:#515151;}
	.st29{fill:#FFC476;}
	.st30{fill:#EDBE9D;}
	.st31{fill:#656666;}
	.st32{fill:#FFF297;}
	.st33{fill:#FFFFFF;}
	.st34{fill:#F4BD98;}
	.st35{fill:none;stroke:#000000;stroke-miterlimit:10;}
	.st36{fill:#F4C653;}
	.st37{fill:#CCF3FF;}
	.st38{fill:#FCE8B6;}
	.st39{fill:#81FCB3;}
	.st40{fill:#020001;}
	.st41{fill:#020202;}
	.st42{fill:#F77B54;}
	.st43{fill:#F2A55F;}
</style>
<g>
	<path class="st11" d="M159.3,31.4H71.9c-3.9,0-7,3.1-7,7v62.9c0,3.9,3.1,7,7,7h33.3l10.1,19.4l9.3-19.4h34.7c3.9,0,7-3.1,7-7V38.4
		C166.3,34.5,163.2,31.4,159.3,31.4z"/>
</g>
<g>
	<path class="st29" d="M147.9,139.6c0,0-25.8,6.5-45.1,16.8C87.2,164.8,77.1,175.8,78,187c1.8,25.2,14.6,22.8,24.6,25.1
		s24.1-5.9,34-15.3c9.9-9.5,30.2-24.8,30.2-24.8s-4.2-1.5-9.5-12.9C153,149.6,147.4,143.8,147.9,139.6z"/>
</g>
<g>
	<path class="st43" d="M84.4,142.1c0,0,2.5,5.9-1.2,9.8c-8.5,9.1-21.9,25.1-26.5,24.2c0,0,18.5,14.1,22.3,17.2
		c2.5,2-12.7-15.9,23.7-36.7L84.4,142.1z"/>
</g>
<g>
	<path class="st43" d="M105.9,212.5c0,0-12.3-23,0-32.9c12.3-9.9,29-18.5,43,5.8c0,0-10.3,9.6-18.8,17.1
		C121.5,210.1,108.7,213.1,105.9,212.5z"/>
</g>
<g>
	<path class="st2" d="M81.7,138c4.3,4.2,4.4,11,0.3,15.2l-18.9,19.6c-4.1,4.3-11,4.4-15.2,0.2l-24.4-23.6c-4.3-4.2-4.4-11-0.3-15.2
		l18.9-19.6c4.1-4.3,10.9-4.4,15.2-0.2L81.7,138z"/>
</g>
<g>
	<path class="st2" d="M152.9,129.3c-5.2,2.9-7,9.5-4.1,14.7l13.4,23.7c2.9,5.2,9.5,7,14.7,4l29.6-16.8c5.2-2.9,7-9.5,4.1-14.7
		l-13.4-23.7c-2.9-5.2-9.5-7-14.7-4L152.9,129.3z"/>
</g>
<g>
	<g>
		<path class="st29" d="M106.4,192.4c2.9,5.3,5.8,10.6,8.7,16c1.5,2.8,5.9,0.3,4.3-2.5c-2.9-5.3-5.8-10.6-8.7-16
			C109.2,187.1,104.8,189.6,106.4,192.4L106.4,192.4z"/>
	</g>
</g>
<g>
	<g>
		<path class="st29" d="M115.7,186.2c3,5.5,6,11.1,9,16.6c1.5,2.8,5.9,0.3,4.3-2.5c-3-5.5-6-11.1-9-16.6
			C118.5,180.9,114.2,183.4,115.7,186.2L115.7,186.2z"/>
	</g>
</g>
<g>
	<g>
		<path class="st29" d="M125.7,180.6c2.5,5,4.9,9.9,7.4,14.9c1.4,2.9,5.7,0.4,4.3-2.5c-2.5-5-4.9-9.9-7.4-14.9
			C128.6,175.2,124.3,177.8,125.7,180.6L125.7,180.6z"/>
	</g>
</g>
<g>
	<g>
		<path class="st43" d="M82.5,190.2c9.1-6.8,18.2-13.7,27.4-20.5c2.5-1.9,0.1-6.3-2.5-4.3c-9.1,6.8-18.2,13.7-27.4,20.5
			C77.4,187.8,79.9,192.2,82.5,190.2L82.5,190.2z"/>
	</g>
</g>
<g>
	<g>
		<path class="st43" d="M85,200.7c4.3-2.9,8.7-5.8,13-8.7c2.7-1.8,0.2-6.1-2.5-4.3c-4.3,2.9-8.7,5.8-13,8.7
			C79.9,198.2,82.4,202.5,85,200.7L85,200.7z"/>
	</g>
</g>
<g>
	<g>
		<path class="st43" d="M91.8,208.8c2.8-1.7,5.7-3.4,8.5-5.1c2.8-1.7,0.3-6-2.5-4.3c-2.8,1.7-5.7,3.4-8.5,5.1
			C86.5,206.1,89,210.5,91.8,208.8L91.8,208.8z"/>
	</g>
</g>
<g>
	<path class="st33" d="M114,100.2c0,1.3-1.1,2.4-2.4,2.4l0,0c-1.3,0-2.4-1.1-2.4-2.4l0,0c0-1.3,1.1-2.4,2.4-2.4l0,0
		C112.9,97.8,114,98.9,114,100.2L114,100.2z"/>
</g>
<g>
	<g>
		<path class="st33" d="M73.8,102.7c9.4,0,18.8,0,28.2,0c3.2,0,3.2-5,0-5c-9.4,0-18.8,0-28.2,0C70.6,97.7,70.6,102.7,73.8,102.7
			L73.8,102.7z"/>
	</g>
</g>
<g>
	<g>
		<path class="st33" d="M93,71.2c4.3,5.5,8.6,11,12.9,16.5c0.8,1.1,2.7,0.9,3.5,0c12.9-12.7,25.8-25.4,38.8-38.1
			c2.3-2.3-1.2-5.8-3.5-3.5c-12.9,12.7-25.8,25.4-38.8,38.1c1.2,0,2.4,0,3.5,0c-4.3-5.5-8.6-11-12.9-16.5C94.5,65.1,91,68.6,93,71.2
			L93,71.2z"/>
	</g>
</g>
</svg>
