<?xml version="1.0" encoding="utf-8"?>
<!-- Generator: Adobe Illustrator 23.0.3, SVG Export Plug-In . SVG Version: 6.00 Build 0)  -->
<svg version="1.1" id="FLAT" xmlns="http://www.w3.org/2000/svg" xmlns:xlink="http://www.w3.org/1999/xlink" x="0px" y="0px"
	 viewBox="0 0 256 256" style="enable-background:new 0 0 256 256;" xml:space="preserve">
<style type="text/css">
	.st0{fill:#E2E0E0;}
	.st1{fill:#7C7C7C;}
	.st2{fill:#8FCAE2;}
	.st3{fill:#6AAEC4;}
	.st4{fill:#FFE70D;}
	.st5{fill:#6D372E;}
	.st6{fill:#BABABA;}
	.st7{fill:#CE9367;}
	.st8{fill:#A05A4A;}
	.st9{fill:#5B2C25;}
	.st10{fill:#D83030;}
	.st11{fill:#36F282;}
	.st12{fill:#E56533;}
	.st13{fill:#3D809B;}
	.st14{fill:#51A3BC;}
	.st15{fill:#FFD55F;}
	.st16{fill:#E2A554;}
	.st17{fill:#A01A1A;}
	.st18{fill:#469FCC;}
	.st19{fill:#B356DB;}
	.st20{fill:#58AA44;}
	.st21{fill:#257DA0;}
	.st22{fill:#83CFED;}
	.st23{fill:#D7EFF7;}
	.st24{fill:#224415;}
	.st25{fill:#212947;}
	.st26{fill:#FFF75C;}
	.st27{fill:#397224;}
	.st28{fill:#515151;}
	.st29{fill:#FFC476;}
	.st30{fill:#EDBE9D;}
	.st31{fill:#656666;}
	.st32{fill:#FFF297;}
	.st33{fill:#FFFFFF;}
	.st34{fill:#F4BD98;}
	.st35{fill:none;stroke:#000000;stroke-miterlimit:10;}
	.st36{fill:#F4C653;}
	.st37{fill:#CCF3FF;}
	.st38{fill:#FCE8B6;}
	.st39{fill:#81FCB3;}
	.st40{fill:#020001;}
	.st41{fill:#020202;}
	.st42{fill:#F77B54;}
	.st43{fill:#F2A55F;}
</style>
<g>
	<path class="st0" d="M200,223.7c0,3.3-2.7,6-6,6H26c-3.3,0-6-2.7-6-6V105.6c0-3.3,2.7-6,6-6h168c3.3,0,6,2.7,6,6V223.7z"/>
</g>
<g>
	<path class="st6" d="M112.8,220.9c0,1.3-1.1,2.4-2.4,2.4l0,0c-1.3,0-2.4-1.1-2.4-2.4l0,0c0-1.3,1.1-2.4,2.4-2.4l0,0
		C111.7,218.5,112.8,219.6,112.8,220.9L112.8,220.9z"/>
</g>
<g>
	<g>
		<path class="st6" d="M39.6,223.4c20.9,0,41.7,0,62.6,0c3.2,0,3.2-5,0-5c-20.9,0-41.7,0-62.6,0C36.3,218.4,36.3,223.4,39.6,223.4
			L39.6,223.4z"/>
	</g>
</g>
<g>
	<path class="st31" d="M235,106.6c0-2.7-2.1-4.8-4.8-4.8h-2.4c-2.7,0-4.8,2.1-4.8,4.8v98.9c0,0.9,0.2,1.7,0.7,2.4l5.3,19.5l5.3-19.5
		c0.4-0.7,0.7-1.5,0.7-2.4V106.6z"/>
</g>
<g>
	<path class="st13" d="M200,125.2v-19.7c0-3.3-2.7-6-6-6H26c-3.3,0-6,2.7-6,6v19.2h177.3L200,125.2z"/>
</g>
<g>
	<path class="st25" d="M115.8,112.1c0,2.9-2.4,5.2-5.3,5.2c-2.9,0-5.2-2.4-5.2-5.2c0-2.9,2.4-5.3,5.2-5.3
		C113.4,106.8,115.8,109.2,115.8,112.1z"/>
</g>
<g>
	<g>
		<path class="st40" d="M37.9,95.9c-1.1-6.1-1.9-12.3-2.1-18.6c-0.1-3.1-0.4-7.1,1.2-9.9c0.4-0.6,1.3-1.3,1.8-1.9
			c4.2-5.1,9.5-6.8,16.2-7.3c22.7-1.7,45.5,6,67.4,10.5c15.1,3.1,35.1,7.7,49.8,0.2c9.8-5,10.3-15.7,12.8-25.1
			c5.9-22.5,40-18.3,57.1-16.9c3.2,0.3,3.2-4.7,0-5c-17-1.4-40.4-3.9-54.5,8.3c-7.9,6.8-7.4,17-10.6,26.1
			c-3.9,10.9-16.6,11.6-26.5,11.3c-25.6-0.8-50.3-10.2-75.6-13.4c-11.7-1.5-29-3.7-38.1,6.1c-2.9,3.2-5.3,5.9-5.7,10.4
			c-0.9,8.7,0.5,17.9,2.1,26.5C33.7,100.4,38.5,99.1,37.9,95.9L37.9,95.9z"/>
	</g>
</g>
</svg>
