<?xml version="1.0" encoding="utf-8"?>
<!-- Generator: Adobe Illustrator 23.0.3, SVG Export Plug-In . SVG Version: 6.00 Build 0)  -->
<svg version="1.1" id="FLAT" xmlns="http://www.w3.org/2000/svg" xmlns:xlink="http://www.w3.org/1999/xlink" x="0px" y="0px"
	 viewBox="0 0 256 256" style="enable-background:new 0 0 256 256;" xml:space="preserve">
<style type="text/css">
	.st0{fill:#E2E0E0;}
	.st1{fill:#7C7C7C;}
	.st2{fill:#8FCAE2;}
	.st3{fill:#6AAEC4;}
	.st4{fill:#FFE70D;}
	.st5{fill:#6D372E;}
	.st6{fill:#BABABA;}
	.st7{fill:#CE9367;}
	.st8{fill:#A05A4A;}
	.st9{fill:#5B2C25;}
	.st10{fill:#D83030;}
	.st11{fill:#36F282;}
	.st12{fill:#E56533;}
	.st13{fill:#3D809B;}
	.st14{fill:#51A3BC;}
	.st15{fill:#FFD55F;}
	.st16{fill:#E2A554;}
	.st17{fill:#A01A1A;}
	.st18{fill:#469FCC;}
	.st19{fill:#B356DB;}
	.st20{fill:#58AA44;}
	.st21{fill:#257DA0;}
	.st22{fill:#83CFED;}
	.st23{fill:#D7EFF7;}
	.st24{fill:#224415;}
	.st25{fill:#212947;}
	.st26{fill:#FFF75C;}
	.st27{fill:#397224;}
	.st28{fill:#515151;}
	.st29{fill:#FFC476;}
	.st30{fill:#EDBE9D;}
	.st31{fill:#656666;}
	.st32{fill:#FFF297;}
	.st33{fill:#FFFFFF;}
	.st34{fill:#F4BD98;}
	.st35{fill:none;stroke:#000000;stroke-miterlimit:10;}
	.st36{fill:#F4C653;}
	.st37{fill:#CCF3FF;}
	.st38{fill:#FCE8B6;}
	.st39{fill:#81FCB3;}
	.st40{fill:#020001;}
	.st41{fill:#020202;}
	.st42{fill:#F77B54;}
	.st43{fill:#F2A55F;}
</style>
<g>
	<path class="st24" d="M191,212.4c0,1.3-1.1,2.4-2.4,2.4l0,0c-1.3,0-2.4-1.1-2.4-2.4l0,0c0-1.3,1.1-2.4,2.4-2.4l0,0
		C189.9,210,191,211.1,191,212.4L191,212.4z"/>
</g>
<g>
	<g>
		<path class="st24" d="M89.5,214.9c29.6,0,59.2,0,88.8,0c3.2,0,3.2-5,0-5c-29.6,0-59.2,0-88.8,0C86.3,209.9,86.3,214.9,89.5,214.9
			L89.5,214.9z"/>
	</g>
</g>
<g>
	<g>
		<path class="st24" d="M137.5,124.4c0,23.6,0,47.2,0,70.8c0,3.2,5,3.2,5,0c0-23.6,0-47.2,0-70.8
			C142.5,121.2,137.5,121.2,137.5,124.4L137.5,124.4z"/>
	</g>
</g>
<g>
	<g>
		<path class="st24" d="M86,176.3c0,6.3,0,12.6,0,18.9c0,1.4,1.1,2.5,2.5,2.5c33.8,0,67.7,0,101.5,0c1.4,0,2.5-1.1,2.5-2.5
			c0-6.3,0-12.6,0-18.9c0-3.2-5-3.2-5,0c0,6.3,0,12.6,0,18.9c0.8-0.8,1.7-1.7,2.5-2.5c-33.8,0-67.7,0-101.5,0
			c0.8,0.8,1.7,1.7,2.5,2.5c0-6.3,0-12.6,0-18.9C91,173.1,86,173.1,86,176.3L86,176.3z"/>
	</g>
</g>
<g>
	<circle class="st20" cx="140" cy="66" r="16"/>
</g>
<g>
	<path class="st20" d="M156.8,118.8c0,3.1-2.5,5.7-5.7,5.7h-22.3c-3.1,0-5.7-2.5-5.7-5.7V94.1c0-3.1,4.5-8.7,7.7-8.7h18.3
		c3.1,0,7.7,5.5,7.7,8.7V118.8z"/>
</g>
<g>
	<circle class="st20" cx="88.5" cy="116.8" r="16"/>
</g>
<g>
	<path class="st20" d="M105.3,169.6c0,3.1-2.5,5.7-5.7,5.7H77.3c-3.1,0-5.7-2.5-5.7-5.7V145c0-3.1,4.5-8.7,7.7-8.7h18.3
		c3.1,0,7.7,5.5,7.7,8.7V169.6z"/>
</g>
<g>
	<circle class="st20" cx="190" cy="116.8" r="16"/>
</g>
<g>
	<path class="st20" d="M206.8,169.6c0,3.1-2.5,5.7-5.7,5.7h-22.3c-3.1,0-5.7-2.5-5.7-5.7V145c0-3.1,4.5-8.7,7.7-8.7h18.3
		c3.1,0,7.7,5.5,7.7,8.7V169.6z"/>
</g>
</svg>
