<?xml version="1.0" encoding="utf-8"?>
<!-- Generator: Adobe Illustrator 23.0.3, SVG Export Plug-In . SVG Version: 6.00 Build 0)  -->
<svg version="1.1" id="FLAT" xmlns="http://www.w3.org/2000/svg" xmlns:xlink="http://www.w3.org/1999/xlink" x="0px" y="0px"
	 viewBox="0 0 256 256" style="enable-background:new 0 0 256 256;" xml:space="preserve">
<style type="text/css">
	.st0{fill:#E2E0E0;}
	.st1{fill:#7C7C7C;}
	.st2{fill:#8FCAE2;}
	.st3{fill:#6AAEC4;}
	.st4{fill:#FFE70D;}
	.st5{fill:#6D372E;}
	.st6{fill:#BABABA;}
	.st7{fill:#CE9367;}
	.st8{fill:#A05A4A;}
	.st9{fill:#5B2C25;}
	.st10{fill:#D83030;}
	.st11{fill:#36F282;}
	.st12{fill:#E56533;}
	.st13{fill:#3D809B;}
	.st14{fill:#51A3BC;}
	.st15{fill:#FFD55F;}
	.st16{fill:#E2A554;}
	.st17{fill:#A01A1A;}
	.st18{fill:#469FCC;}
	.st19{fill:#B356DB;}
	.st20{fill:#58AA44;}
	.st21{fill:#257DA0;}
	.st22{fill:#83CFED;}
	.st23{fill:#D7EFF7;}
	.st24{fill:#224415;}
	.st25{fill:#212947;}
	.st26{fill:#FFF75C;}
	.st27{fill:#397224;}
	.st28{fill:#515151;}
	.st29{fill:#FFC476;}
	.st30{fill:#EDBE9D;}
	.st31{fill:#656666;}
	.st32{fill:#FFF297;}
	.st33{fill:#FFFFFF;}
	.st34{fill:#F4BD98;}
	.st35{fill:none;stroke:#000000;stroke-miterlimit:10;}
	.st36{fill:#F4C653;}
	.st37{fill:#CCF3FF;}
	.st38{fill:#FCE8B6;}
	.st39{fill:#81FCB3;}
	.st40{fill:#020001;}
	.st41{fill:#020202;}
	.st42{fill:#F77B54;}
	.st43{fill:#F2A55F;}
</style>
<g>
	<polygon class="st10" points="158.2,225.4 128.1,204.7 98.5,225.4 98.5,112.4 158.2,112.4 	"/>
</g>
<g>
	<path class="st18" d="M62.4,57c0,0,19.4-1.6,34.7-9.1c21.1-10.4,32.2-28.5,32.2-28.5s10.2,21.7,29.1,31.3
		c18.8,9.6,36.9,7.8,36.9,7.8s-12.1,21-10.9,38.2c1.4,19.3,10,38.5,10,38.5s-19-2-37.5,6.2c-16.9,7.6-29.4,31.4-29.4,31.4
		s-11.6-21.5-27.6-30.5c-12.4-7-38.4-8.6-38.4-8.6s8.2-20,8.8-38.3C71.1,71.9,62.4,57,62.4,57z"/>
</g>
<g>
	<path class="st4" d="M153.2,116.4c-10.9,14.3-31.3,17-45.5,6.1c-14.3-10.9-17-31.3-6.1-45.5c10.9-14.3,31.3-17,45.5-6.1
		C161.4,81.8,164.1,102.2,153.2,116.4z"/>
</g>
<g>
	<g>
		<path class="st32" d="M122.6,72.1c-21.3,4.8-27.9,31.9-10.9,45.7c2.5,2,6-1.5,3.5-3.5c-14.1-11.4-9.2-33.3,8.7-37.4
			C127.1,76.2,125.7,71.4,122.6,72.1z"/>
	</g>
	<g>
		<path class="st32" d="M133.9,70.6c-1.3,0.1-2.4,1.2-2.3,2.5c0.1,1.3,1.2,2.4,2.5,2.3c1.3-0.1,2.4-1.2,2.3-2.5
			C136.4,71.5,135.3,70.5,133.9,70.6z"/>
	</g>
</g>
</svg>
