<?xml version="1.0" encoding="utf-8"?>
<!-- Generator: Adobe Illustrator 23.0.3, SVG Export Plug-In . SVG Version: 6.00 Build 0)  -->
<svg version="1.1" id="FLAT" xmlns="http://www.w3.org/2000/svg" xmlns:xlink="http://www.w3.org/1999/xlink" x="0px" y="0px"
	 viewBox="0 0 256 256" style="enable-background:new 0 0 256 256;" xml:space="preserve">
<style type="text/css">
	.st0{fill:#E2E0E0;}
	.st1{fill:#7C7C7C;}
	.st2{fill:#8FCAE2;}
	.st3{fill:#6AAEC4;}
	.st4{fill:#FFE70D;}
	.st5{fill:#6D372E;}
	.st6{fill:#BABABA;}
	.st7{fill:#CE9367;}
	.st8{fill:#A05A4A;}
	.st9{fill:#5B2C25;}
	.st10{fill:#D83030;}
	.st11{fill:#36F282;}
	.st12{fill:#E56533;}
	.st13{fill:#3D809B;}
	.st14{fill:#51A3BC;}
	.st15{fill:#FFD55F;}
	.st16{fill:#E2A554;}
	.st17{fill:#A01A1A;}
	.st18{fill:#469FCC;}
	.st19{fill:#B356DB;}
	.st20{fill:#58AA44;}
	.st21{fill:#257DA0;}
	.st22{fill:#83CFED;}
	.st23{fill:#D7EFF7;}
	.st24{fill:#224415;}
	.st25{fill:#212947;}
	.st26{fill:#FFF75C;}
	.st27{fill:#397224;}
	.st28{fill:#515151;}
	.st29{fill:#FFC476;}
	.st30{fill:#EDBE9D;}
	.st31{fill:#656666;}
	.st32{fill:#FFF297;}
	.st33{fill:#FFFFFF;}
	.st34{fill:#F4BD98;}
	.st35{fill:none;stroke:#000000;stroke-miterlimit:10;}
	.st36{fill:#F4C653;}
	.st37{fill:#CCF3FF;}
	.st38{fill:#FCE8B6;}
	.st39{fill:#81FCB3;}
	.st40{fill:#020001;}
	.st41{fill:#020202;}
	.st42{fill:#F77B54;}
	.st43{fill:#F2A55F;}
</style>
<g>
	<path class="st11" d="M195.3,68.5H70.6c-5.5,0-10,4.5-10,10v89.7c0,5.5,4.5,10,10,10h47.5l14.4,27.7l13.3-27.7h49.5
		c5.5,0,10-4.5,10-10V78.5C205.3,73,200.8,68.5,195.3,68.5z"/>
</g>
<g>
	<g>
		<path class="st33" d="M123.3,164.2c-1.3,0-2.4,1.1-2.4,2.4c0,1.3,1.1,2.4,2.4,2.4c1.3,0,2.4-1.1,2.4-2.4
			C125.8,165.3,124.7,164.2,123.3,164.2z"/>
	</g>
	<g>
		<path class="st33" d="M113.6,164.2c-13.4,0-26.8,0-40.3,0c-3.2,0-3.2,5,0,5c13.4,0,26.8,0,40.3,0
			C116.9,169.2,116.9,164.2,113.6,164.2z"/>
	</g>
	<g>
		<path class="st33" d="M175.2,90.2c-17.8,17.4-35.5,34.9-53.3,52.3c-5.6-7.2-11.3-14.4-16.9-21.6c-2-2.5-5.5,1-3.5,3.5
			c6.1,7.8,12.3,15.7,18.4,23.5c0.8,1.1,2.7,0.9,3.5,0c18.4-18.1,36.8-36.2,55.3-54.2C181,91.5,177.5,87.9,175.2,90.2z"/>
	</g>
</g>
</svg>
