<?xml version="1.0" encoding="utf-8"?>
<!-- Generator: Adobe Illustrator 23.0.3, SVG Export Plug-In . SVG Version: 6.00 Build 0)  -->
<svg version="1.1" id="FLAT" xmlns="http://www.w3.org/2000/svg" xmlns:xlink="http://www.w3.org/1999/xlink" x="0px" y="0px"
	 viewBox="0 0 256 256" style="enable-background:new 0 0 256 256;" xml:space="preserve">
<style type="text/css">
	.st0{fill:#E2E0E0;}
	.st1{fill:#7C7C7C;}
	.st2{fill:#8FCAE2;}
	.st3{fill:#6AAEC4;}
	.st4{fill:#FFE70D;}
	.st5{fill:#6D372E;}
	.st6{fill:#BABABA;}
	.st7{fill:#CE9367;}
	.st8{fill:#A05A4A;}
	.st9{fill:#5B2C25;}
	.st10{fill:#D83030;}
	.st11{fill:#36F282;}
	.st12{fill:#E56533;}
	.st13{fill:#3D809B;}
	.st14{fill:#51A3BC;}
	.st15{fill:#FFD55F;}
	.st16{fill:#E2A554;}
	.st17{fill:#A01A1A;}
	.st18{fill:#469FCC;}
	.st19{fill:#B356DB;}
	.st20{fill:#58AA44;}
	.st21{fill:#257DA0;}
	.st22{fill:#83CFED;}
	.st23{fill:#D7EFF7;}
	.st24{fill:#224415;}
	.st25{fill:#212947;}
	.st26{fill:#FFF75C;}
	.st27{fill:#397224;}
	.st28{fill:#515151;}
	.st29{fill:#FFC476;}
	.st30{fill:#EDBE9D;}
	.st31{fill:#656666;}
	.st32{fill:#FFF297;}
	.st33{fill:#FFFFFF;}
	.st34{fill:#F4BD98;}
	.st35{fill:none;stroke:#000000;stroke-miterlimit:10;}
	.st36{fill:#F4C653;}
	.st37{fill:#CCF3FF;}
	.st38{fill:#FCE8B6;}
	.st39{fill:#81FCB3;}
	.st40{fill:#020001;}
	.st41{fill:#020202;}
	.st42{fill:#F77B54;}
	.st43{fill:#F2A55F;}
</style>
<g>
	<path class="st0" d="M189.2,241.6c0,3.1-2.5,5.7-5.7,5.7H55.3c-3.1,0-5.7-2.5-5.7-5.7V39c0-3.1,2.5-5.7,5.7-5.7h128.2
		c3.1,0,5.7,2.5,5.7,5.7V241.6z"/>
</g>
<g>
	<path class="st1" d="M162.5,233.3c0,1.3-1.1,2.4-2.4,2.4l0,0c-1.3,0-2.4-1.1-2.4-2.4l0,0c0-1.3,1.1-2.4,2.4-2.4l0,0
		C161.5,230.9,162.5,232,162.5,233.3L162.5,233.3z"/>
</g>
<g>
	<g>
		<path class="st1" d="M76.7,235.8c24.4,0,48.7,0,73.1,0c3.2,0,3.2-5,0-5c-24.4,0-48.7,0-73.1,0C73.4,230.8,73.4,235.8,76.7,235.8
			L76.7,235.8z"/>
	</g>
</g>
<g>
	<g>
		<path class="st1" d="M90.7,76.3c27.3,0,54.7,0,82,0c3.2,0,3.2-5,0-5c-27.3,0-54.7,0-82,0C87.4,71.3,87.4,76.3,90.7,76.3L90.7,76.3
			z"/>
	</g>
</g>
<g>
	<g>
		<path class="st1" d="M90.7,99.5c27.3,0,54.7,0,82,0c3.2,0,3.2-5,0-5c-27.3,0-54.7,0-82,0C87.4,94.5,87.4,99.5,90.7,99.5L90.7,99.5
			z"/>
	</g>
</g>
<g>
	<g>
		<path class="st1" d="M90.7,121.2c27.3,0,54.7,0,82,0c3.2,0,3.2-5,0-5c-27.3,0-54.7,0-82,0C87.4,116.2,87.4,121.2,90.7,121.2
			L90.7,121.2z"/>
	</g>
</g>
<g>
	<g>
		<path class="st1" d="M90.7,144.4c27.3,0,54.7,0,82,0c3.2,0,3.2-5,0-5c-27.3,0-54.7,0-82,0C87.4,139.4,87.4,144.4,90.7,144.4
			L90.7,144.4z"/>
	</g>
</g>
<g>
	<polygon class="st8" points="149.2,33.3 122.4,60.2 95.5,33.3 	"/>
</g>
<g>
	<path class="st7" d="M145.8,29.5c0,2.5-2,4.5-4.5,4.5h-36.4c-2.5,0-4.5-2-4.5-4.5v-8.1c0-2.5,2-4.5,4.5-4.5h36.4
		c2.5,0,4.5,2,4.5,4.5V29.5z"/>
</g>
<g>
	<path class="st5" d="M129.4,25.2c0,3.3-2.7,6-6,6c-3.3,0-6-2.7-6-6s2.7-6,6-6C126.7,19.1,129.4,21.8,129.4,25.2z"/>
</g>
<g>
	<g>
		<path class="st20" d="M62.6,73.6c1.4,1.4,2.9,2.9,4.3,4.3c1,1,2.5,0.9,3.5,0c3.8-3.6,7.6-7.1,11.3-10.7c2.4-2.2-1.2-5.7-3.5-3.5
			c-3.8,3.6-7.6,7.1-11.3,10.7c1.2,0,2.4,0,3.5,0c-1.4-1.4-2.9-2.9-4.3-4.3C63.9,67.8,60.3,71.3,62.6,73.6L62.6,73.6z"/>
	</g>
</g>
<g>
	<g>
		<path class="st20" d="M62.6,95.4c1.4,1.4,2.9,2.9,4.3,4.3c1,1,2.5,0.9,3.5,0c3.8-3.6,7.6-7.1,11.3-10.7c2.4-2.2-1.2-5.7-3.5-3.5
			c-3.8,3.6-7.6,7.1-11.3,10.7c1.2,0,2.4,0,3.5,0c-1.4-1.4-2.9-2.9-4.3-4.3C63.9,89.6,60.3,93.1,62.6,95.4L62.6,95.4z"/>
	</g>
</g>
<g>
	<g>
		<path class="st20" d="M62.6,119.5c1.4,1.4,2.9,2.9,4.3,4.3c1,1,2.5,0.9,3.5,0c3.8-3.6,7.6-7.1,11.3-10.7c2.4-2.2-1.2-5.7-3.5-3.5
			c-3.8,3.6-7.6,7.1-11.3,10.7c1.2,0,2.4,0,3.5,0c-1.4-1.4-2.9-2.9-4.3-4.3C63.9,113.7,60.3,117.2,62.6,119.5L62.6,119.5z"/>
	</g>
</g>
<g>
	<g>
		<path class="st20" d="M62.6,141.3c1.4,1.4,2.9,2.9,4.3,4.3c1,1,2.5,0.9,3.5,0c3.8-3.6,7.6-7.1,11.3-10.7c2.4-2.2-1.2-5.7-3.5-3.5
			c-3.8,3.6-7.6,7.1-11.3,10.7c1.2,0,2.4,0,3.5,0c-1.4-1.4-2.9-2.9-4.3-4.3C63.9,135.5,60.3,139,62.6,141.3L62.6,141.3z"/>
	</g>
</g>
</svg>
