<?xml version="1.0" encoding="utf-8"?>
<!-- Generator: Adobe Illustrator 22.1.0, SVG Export Plug-In . SVG Version: 6.00 Build 0)  -->
<svg version="1.1" id="Layer_1" xmlns="http://www.w3.org/2000/svg" xmlns:xlink="http://www.w3.org/1999/xlink" x="0px" y="0px"
	 viewBox="0 0 256 256" style="enable-background:new 0 0 256 256;" xml:space="preserve">
<style type="text/css">
	.st0{fill:#FCC24C;}
	.st1{fill:#FCE06A;}
	.st2{fill:#DEA42E;}
	.st3{fill:#690589;}
	.st4{fill:#7BAC51;}
	.st5{fill:#5D8E33;}
	.st6{fill:#99CA6F;}
	.st7{fill:#F4EFED;}
	.st8{fill:#FF4397;}
	.st9{fill:#D6D1CF;}
	.st10{fill:#FFFFFF;}
	.st11{fill:#FF9F70;}
	.st12{fill:#FFBD8E;}
	.st13{fill:#E18152;}
	.st14{fill:#E12579;}
	.st15{fill:#FF61B5;}
</style>
<g>
	<g>
		<polygon class="st0" points="107.055,80.913 95.378,87.052 97.608,74.049 88.161,64.841 101.216,62.944 107.055,51.114 
			112.893,62.944 125.948,64.841 116.501,74.049 118.731,87.052 		"/>
	</g>
	<g>
		<polygon class="st0" points="148.752,77.192 140.749,81.399 142.277,72.487 135.802,66.175 144.75,64.875 148.752,56.767 
			152.754,64.875 161.702,66.175 155.227,72.487 156.756,81.399 		"/>
	</g>
	<g>
		<polygon class="st0" points="65.357,77.192 57.353,81.399 58.882,72.487 52.407,66.175 61.355,64.875 65.357,56.767 
			69.359,64.875 78.307,66.175 71.832,72.487 73.361,81.399 		"/>
	</g>
	<g>
		<path class="st3" d="M118.731,89.052c-0.318,0-0.638-0.076-0.931-0.229l-10.746-5.649l-10.746,5.649
			c-0.673,0.354-1.49,0.295-2.106-0.152c-0.616-0.448-0.924-1.206-0.795-1.956l2.052-11.966l-8.694-8.474
			c-0.545-0.531-0.741-1.326-0.506-2.05c0.235-0.724,0.861-1.251,1.615-1.361l12.015-1.746l5.373-10.887
			c0.337-0.683,1.032-1.115,1.794-1.115s1.456,0.432,1.793,1.115l5.373,10.887l12.015,1.746c0.753,0.109,1.379,0.637,1.615,1.361
			c0.235,0.724,0.039,1.519-0.506,2.05l-8.694,8.474l2.052,11.966c0.129,0.75-0.18,1.508-0.795,1.956
			C119.559,88.923,119.146,89.052,118.731,89.052z M107.055,78.913c0.32,0,0.639,0.077,0.931,0.229l8.09,4.253l-1.545-9.009
			c-0.111-0.648,0.104-1.311,0.575-1.77l6.545-6.379l-9.045-1.314c-0.651-0.094-1.214-0.503-1.506-1.094l-4.045-8.196l-4.045,8.196
			c-0.292,0.59-0.855,1-1.506,1.094l-9.045,1.314l6.545,6.379c0.471,0.459,0.687,1.122,0.575,1.77l-1.545,9.009l8.09-4.253
			C106.415,78.99,106.735,78.913,107.055,78.913z"/>
	</g>
	<g>
		<path class="st3" d="M140.749,83.399c-0.415,0-0.827-0.129-1.176-0.382c-0.616-0.448-0.924-1.206-0.796-1.957l1.351-7.875
			l-5.723-5.578c-0.545-0.531-0.741-1.326-0.506-2.05c0.235-0.724,0.861-1.251,1.614-1.361l7.908-1.149l3.536-7.166
			c0.337-0.683,1.032-1.115,1.794-1.115c0.761,0,1.456,0.432,1.793,1.115l3.537,7.166l7.908,1.149
			c0.753,0.109,1.379,0.637,1.614,1.361c0.235,0.724,0.04,1.519-0.506,2.05l-5.722,5.578l1.351,7.875
			c0.129,0.751-0.18,1.509-0.796,1.957c-0.617,0.447-1.434,0.507-2.106,0.152l-7.073-3.718l-7.073,3.718
			C141.387,83.324,141.067,83.399,140.749,83.399z M148.752,75.191c0.32,0,0.639,0.077,0.931,0.23l4.417,2.322l-0.844-4.918
			c-0.111-0.649,0.104-1.311,0.575-1.771l3.573-3.483l-4.938-0.717c-0.651-0.094-1.214-0.503-1.506-1.094l-2.208-4.475l-2.208,4.475
			c-0.292,0.59-0.854,1-1.506,1.094l-4.938,0.717l3.573,3.483c0.471,0.459,0.687,1.122,0.575,1.771l-0.844,4.918l4.417-2.322
			C148.112,75.268,148.432,75.191,148.752,75.191z"/>
	</g>
	<g>
		<path class="st3" d="M73.361,83.399c-0.318,0-0.638-0.076-0.931-0.23l-7.073-3.718l-7.073,3.718
			c-0.673,0.355-1.491,0.295-2.106-0.152c-0.616-0.448-0.925-1.206-0.796-1.956l1.351-7.876l-5.722-5.578
			c-0.545-0.531-0.741-1.326-0.506-2.05c0.235-0.724,0.861-1.251,1.614-1.361l7.908-1.149l3.537-7.166
			c0.337-0.683,1.032-1.115,1.793-1.115c0.761,0,1.457,0.432,1.793,1.115l3.537,7.166l7.908,1.149
			c0.753,0.109,1.379,0.637,1.614,1.361c0.235,0.724,0.039,1.519-0.506,2.05l-5.722,5.578l1.351,7.875
			c0.129,0.751-0.18,1.509-0.795,1.957C74.188,83.271,73.775,83.399,73.361,83.399z M56.705,67.572l3.573,3.483
			c0.471,0.459,0.687,1.122,0.575,1.77l-0.843,4.918l4.417-2.322c0.582-0.307,1.278-0.307,1.861,0l4.417,2.322l-0.844-4.918
			c-0.111-0.649,0.104-1.311,0.575-1.771l3.573-3.483l-4.938-0.717c-0.651-0.094-1.214-0.503-1.506-1.094l-2.208-4.475l-2.209,4.475
			c-0.292,0.59-0.854,1-1.506,1.094L56.705,67.572z"/>
	</g>
	<g>
		<path class="st0" d="M205.289,94.894H9.085C6.277,94.894,4,97.171,4,99.979v90.523v9.298c0,2.809,2.277,5.085,5.085,5.085h196.203
			c2.809,0,5.085-2.277,5.085-5.085v-9.298V99.979C210.374,97.171,208.097,94.894,205.289,94.894z"/>
	</g>
	<g>
		<path class="st2" d="M205.289,94.894h-10.171c2.809,0,5.085,2.277,5.085,5.085v90.523v9.298c0,2.809-2.277,5.085-5.085,5.085
			h10.171c2.809,0,5.085-2.277,5.085-5.085v-9.298V99.979C210.374,97.171,208.097,94.894,205.289,94.894z"/>
	</g>
	<g>
		<path class="st1" d="M9.085,94.894h10.171c-2.809,0-5.085,2.277-5.085,5.085v90.523v9.298c0,2.809,2.277,5.085,5.085,5.085H9.085
			C6.277,204.886,4,202.609,4,199.8v-9.298V99.979C4,97.171,6.277,94.894,9.085,94.894z"/>
	</g>
	<g>
		<path class="st7" d="M64.873,180.772H22.108c-2.652,0-4.802-2.15-4.802-4.802v-66.544c0-2.652,2.15-4.802,4.802-4.802h42.764
			c2.652,0,4.802,2.15,4.802,4.802v66.544C69.674,178.622,67.524,180.772,64.873,180.772z"/>
	</g>
	<g>
		<path class="st7" d="M128.569,180.772H85.805c-2.652,0-4.802-2.15-4.802-4.802v-66.544c0-2.652,2.15-4.802,4.802-4.802h42.764
			c2.652,0,4.802,2.15,4.802,4.802v66.544C133.371,178.622,131.221,180.772,128.569,180.772z"/>
	</g>
	<g>
		<path class="st7" d="M192.266,180.772h-42.764c-2.652,0-4.802-2.15-4.802-4.802v-66.544c0-2.652,2.15-4.802,4.802-4.802h42.764
			c2.652,0,4.802,2.15,4.802,4.802v66.544C197.067,178.622,194.918,180.772,192.266,180.772z"/>
	</g>
	<g>
		<g>
			<path class="st9" d="M241.682,154.692h-13.606v-9.603h8.804V94.894h9.603v54.996
				C246.484,152.542,244.335,154.692,241.682,154.692z"/>
		</g>
	</g>
	<g>
		<path class="st5" d="M223.275,180.831h-12.901v-61.882h12.901c2.652,0,4.802,2.15,4.802,4.802v52.278
			C228.076,178.681,225.927,180.831,223.275,180.831z"/>
	</g>
	<g>
		<path class="st3" d="M210.374,192.502H4c-1.105,0-2-0.895-2-2V99.979c0-3.907,3.179-7.086,7.085-7.086h196.203
			c3.907,0,7.085,3.179,7.085,7.086v90.523C212.374,191.607,211.479,192.502,210.374,192.502z M6,188.502h202.374V99.979
			c0-1.701-1.384-3.086-3.085-3.086H9.085C7.384,96.894,6,98.278,6,99.979V188.502z"/>
	</g>
	<g>
		<path class="st3" d="M25.307,172.588c-1.104,0-2-0.896-2-2v-12c0-1.105,0.896-2,2-2s2,0.895,2,2v12
			C27.307,171.692,26.411,172.588,25.307,172.588z"/>
	</g>
	<g>
		<path class="st3" d="M223.275,182.831h-12.901c-1.104,0-2-0.896-2-2v-61.882c0-1.104,0.896-2,2-2h12.901
			c3.75,0,6.802,3.051,6.802,6.802v52.279C230.077,179.78,227.025,182.831,223.275,182.831z M212.374,178.831h10.901
			c1.545,0,2.802-1.257,2.802-2.802v-52.279c0-1.545-1.257-2.802-2.802-2.802h-10.901V178.831z"/>
	</g>
	<g>
		<g>
			<path class="st3" d="M241.683,156.691h-13.606c-1.104,0-2-0.896-2-2v-9.603c0-1.104,0.896-2,2-2h6.804V94.894
				c0-1.104,0.896-2,2-2h9.604c1.105,0,2,0.896,2,2v54.996C248.484,153.64,245.433,156.691,241.683,156.691z M230.077,152.691
				h11.606c1.545,0,2.802-1.257,2.802-2.801V96.894h-5.604v48.194c0,1.105-0.895,2-2,2h-6.804V152.691z"/>
		</g>
	</g>
	<g>
		<path class="st3" d="M64.873,182.773H22.108c-3.75,0-6.801-3.051-6.801-6.802v-66.544c0-3.751,3.051-6.802,6.801-6.802h42.765
			c3.75,0,6.802,3.051,6.802,6.802v66.544C71.674,179.721,68.623,182.773,64.873,182.773z M22.108,106.624
			c-1.544,0-2.801,1.257-2.801,2.802v66.544c0,1.545,1.257,2.802,2.801,2.802h42.765c1.545,0,2.802-1.257,2.802-2.802v-66.544
			c0-1.545-1.257-2.802-2.802-2.802H22.108z"/>
	</g>
	<g>
		<path class="st3" d="M128.569,182.773H85.805c-3.751,0-6.802-3.051-6.802-6.802v-66.544c0-3.751,3.051-6.802,6.802-6.802h42.765
			c3.75,0,6.802,3.051,6.802,6.802v66.544C135.371,179.721,132.32,182.773,128.569,182.773z M85.805,106.624
			c-1.545,0-2.802,1.257-2.802,2.802v66.544c0,1.545,1.257,2.802,2.802,2.802h42.765c1.545,0,2.802-1.257,2.802-2.802v-66.544
			c0-1.545-1.257-2.802-2.802-2.802H85.805z"/>
	</g>
	<g>
		<path class="st3" d="M192.266,182.773h-42.764c-3.75,0-6.802-3.051-6.802-6.802v-66.544c0-3.751,3.051-6.802,6.802-6.802h42.764
			c3.751,0,6.802,3.051,6.802,6.802v66.544C199.067,179.721,196.016,182.773,192.266,182.773z M149.501,106.624
			c-1.545,0-2.802,1.257-2.802,2.802v66.544c0,1.545,1.257,2.802,2.802,2.802h42.764c1.545,0,2.802-1.257,2.802-2.802v-66.544
			c0-1.545-1.257-2.802-2.802-2.802H149.501z"/>
	</g>
	<g>
		<path class="st3" d="M205.289,206.886H9.085C5.179,206.886,2,203.707,2,199.8v-9.298c0-1.104,0.895-2,2-2h206.374
			c1.105,0,2,0.896,2,2v9.298C212.374,203.707,209.195,206.886,205.289,206.886z M6,192.502v7.298c0,1.701,1.384,3.085,3.085,3.085
			h196.203c1.701,0,3.085-1.384,3.085-3.085v-7.298H6z"/>
	</g>
	<g>
		<circle class="st14" cx="241.683" cy="94.894" r="10.317"/>
	</g>
	<g>
		<path class="st3" d="M241.683,107.211c-6.792,0-12.317-5.525-12.317-12.317c0-6.792,5.525-12.317,12.317-12.317
			c6.792,0,12.317,5.525,12.317,12.317C254,101.686,248.475,107.211,241.683,107.211z M241.683,86.577
			c-4.586,0-8.317,3.731-8.317,8.317c0,4.587,3.731,8.317,8.317,8.317c4.586,0,8.317-3.731,8.317-8.317
			C250,90.308,246.269,86.577,241.683,86.577z"/>
	</g>
	<g>
		<g>
			<path class="st3" d="M184.29,127.195l-15.055,35.589c-0.482,1.265-1.686,1.987-3.071,1.987c-0.362,0-0.843-0.06-1.265-0.241
				c-1.686-0.783-2.469-2.71-1.806-4.336l13.007-30.893h-15.537c-1.806,0-3.312-1.565-3.312-3.372c0-1.867,1.506-3.312,3.312-3.312
				h20.655c0.181,0,0.362,0,0.602,0.06c0.421,0.06,0.843,0.301,1.265,0.482c0.06,0.06,0.12,0.12,0.18,0.18
				c0.121,0.06,0.18,0.121,0.241,0.241c0.06,0.12,0.18,0.181,0.241,0.241c0.06,0.121,0.121,0.18,0.181,0.241
				c0.06,0.06,0.121,0.241,0.121,0.301c0.06,0.12,0.12,0.18,0.241,0.301c0,0.06,0.06,0.241,0.06,0.301
				c0.06,0.121,0.06,0.18,0.12,0.301c0.06,0.421,0.06,0.903,0,1.325C184.41,126.834,184.35,127.014,184.29,127.195z"/>
		</g>
	</g>
	<g>
		<g>
			<path class="st3" d="M120.461,127.195l-15.055,35.589c-0.482,1.265-1.686,1.987-3.071,1.987c-0.362,0-0.843-0.06-1.265-0.241
				c-1.686-0.783-2.469-2.71-1.806-4.336l13.007-30.893H96.734c-1.806,0-3.312-1.565-3.312-3.372c0-1.867,1.506-3.312,3.312-3.312
				h20.655c0.181,0,0.362,0,0.602,0.06c0.421,0.06,0.843,0.301,1.265,0.482c0.06,0.06,0.12,0.12,0.181,0.18
				c0.121,0.06,0.181,0.121,0.241,0.241s0.181,0.181,0.241,0.241c0.06,0.121,0.121,0.18,0.181,0.241
				c0.06,0.06,0.121,0.241,0.121,0.301c0.06,0.12,0.12,0.18,0.241,0.301c0,0.06,0.06,0.241,0.06,0.301
				c0.06,0.121,0.06,0.18,0.12,0.301c0.06,0.421,0.06,0.903,0,1.325C120.581,126.834,120.521,127.014,120.461,127.195z"/>
		</g>
	</g>
	<g>
		<g>
			<path class="st3" d="M56.897,127.195l-15.055,35.589c-0.482,1.265-1.686,1.987-3.071,1.987c-0.362,0-0.843-0.06-1.265-0.241
				c-1.686-0.783-2.469-2.71-1.806-4.336l13.007-30.893H33.17c-1.806,0-3.312-1.565-3.312-3.372c0-1.867,1.506-3.312,3.312-3.312
				h20.655c0.181,0,0.362,0,0.602,0.06c0.421,0.06,0.843,0.301,1.265,0.482c0.06,0.06,0.12,0.12,0.18,0.18
				c0.121,0.06,0.181,0.121,0.241,0.241c0.06,0.12,0.181,0.181,0.241,0.241c0.06,0.121,0.121,0.18,0.181,0.241
				c0.06,0.06,0.121,0.241,0.121,0.301c0.06,0.12,0.12,0.18,0.241,0.301c0,0.06,0.06,0.241,0.06,0.301
				c0.06,0.121,0.06,0.18,0.12,0.301c0.06,0.421,0.06,0.903,0,1.325C57.017,126.834,56.957,127.014,56.897,127.195z"/>
		</g>
	</g>
</g>
</svg>
