<?xml version="1.0" encoding="utf-8"?>
<!-- Generator: Adobe Illustrator 22.1.0, SVG Export Plug-In . SVG Version: 6.00 Build 0)  -->
<svg version="1.1" id="Layer_1" xmlns="http://www.w3.org/2000/svg" xmlns:xlink="http://www.w3.org/1999/xlink" x="0px" y="0px"
	 viewBox="0 0 256 256" style="enable-background:new 0 0 256 256;" xml:space="preserve">
<style type="text/css">
	.st0{fill:#FCC24C;}
	.st1{fill:#FCE06A;}
	.st2{fill:#DEA42E;}
	.st3{fill:#690589;}
	.st4{fill:#7BAC51;}
	.st5{fill:#5D8E33;}
	.st6{fill:#99CA6F;}
	.st7{fill:#F4EFED;}
	.st8{fill:#FF4397;}
	.st9{fill:#D6D1CF;}
	.st10{fill:#FFFFFF;}
	.st11{fill:#FF9F70;}
	.st12{fill:#FFBD8E;}
	.st13{fill:#E18152;}
	.st14{fill:#E12579;}
	.st15{fill:#FF61B5;}
</style>
<g>
	<g>
		<path class="st4" d="M166.305,167.574l-14.151-0.018l-25.312-0.033c0.024-0.407-0.001-0.809,0-1.222v-39.827l-43.707-0.056v39.827
			c0,0.413-0.023,0.816,0,1.222l-25.366-0.033l-14.151-0.018c-15.287-0.02-27.695,12.357-27.715,27.644l-0.073,56.711L193.876,252
			l0.073-56.711C193.969,180.002,181.592,167.594,166.305,167.574z"/>
	</g>
	<g>
		<path class="st13" d="M126.842,167.524v-41.049l-43.707-0.056v41.049l-15.493-0.02l-0.002,1.652
			c-0.026,20.611,16.661,37.341,37.272,37.368h0c20.611,0.026,37.341-16.661,37.368-37.272l0.002-1.652L126.842,167.524z"/>
	</g>
	<g>
		<g>
			<path class="st5" d="M166.305,167.574l-9.71-0.012c15.287,0.02,27.663,12.428,27.644,27.715l-0.073,56.711l9.71,0.012
				l0.073-56.711C193.969,180.002,181.592,167.594,166.305,167.574z"/>
		</g>
	</g>
	<g>
		<g>
			<path class="st6" d="M43.618,167.417l9.71,0.012c-15.287-0.02-27.695,12.357-27.715,27.644l-0.073,56.711l-9.71-0.012
				l0.073-56.711C15.923,179.774,28.331,167.398,43.618,167.417z"/>
		</g>
	</g>
	<g>
		<path class="st3" d="M193.877,254c-0.001,0-0.002,0-0.003,0l-178.046-0.228c-1.104-0.002-1.998-0.898-1.997-2.003l0.072-56.711
			c0.021-16.352,13.331-29.642,29.679-29.642c0.013,0,0.025,0,0.039,0l37.514,0.048v-39.047c0-0.531,0.211-1.04,0.587-1.415
			c0.375-0.375,0.883-0.585,1.413-0.585c0.001,0,0.002,0,0.003,0l43.707,0.056c1.103,0.001,1.997,0.896,1.997,2v39.051l37.467,0.048
			c7.928,0.01,15.377,3.107,20.975,8.72c5.599,5.613,8.676,13.07,8.666,20.997l-0.072,56.711c-0.001,0.531-0.212,1.039-0.588,1.414
			C194.914,253.79,194.406,254,193.877,254z M17.834,249.774l174.046,0.223l0.069-54.712c0.009-6.859-2.654-13.311-7.498-18.167
			c-4.844-4.856-11.289-7.536-18.148-7.544l-39.464-0.051c-0.551-0.001-1.076-0.229-1.454-0.63c-0.377-0.401-0.572-0.94-0.539-1.49
			c0.013-0.217,0.006-0.433,0.002-0.651l-0.006-0.452v-37.829l-39.707-0.051l-0.005,38.273c-0.005,0.222-0.011,0.442,0.002,0.664
			c0.03,0.549-0.167,1.087-0.545,1.486c-0.378,0.399-0.903,0.624-1.452,0.624c-0.001,0-0.002,0-0.003,0l-39.517-0.051
			c-0.01,0-0.022,0-0.033,0c-14.146,0-25.66,11.497-25.679,25.646L17.834,249.774z"/>
	</g>
	<g>
		<path class="st3" d="M23.664,208.896c-1.104,0-2-0.895-2-2v-12c0-1.104,0.896-2,2-2s2,0.896,2,2v12
			C25.664,208.001,24.769,208.896,23.664,208.896z"/>
	</g>
	<g>
		<path class="st3" d="M104.962,208.468c-0.018,0-0.034,0-0.053,0c-10.502-0.014-20.371-4.116-27.788-11.552
			c-7.418-7.436-11.495-17.315-11.482-27.818l0.002-1.652c0.001-0.53,0.212-1.039,0.588-1.414c0.375-0.374,0.883-0.584,1.412-0.584
			c0.001,0,0.002,0,0.003,0l13.49,0.018v-39.046c0-0.531,0.211-1.04,0.587-1.415c0.375-0.374,0.883-0.585,1.413-0.585
			c0.001,0,0.002,0,0.003,0l43.707,0.056c1.103,0.001,1.997,0.896,1.997,2v39.051l13.442,0.018c1.105,0.001,1.998,0.898,1.997,2.002
			l-0.002,1.652c-0.014,10.503-4.116,20.372-11.552,27.789C125.304,204.392,115.444,208.467,104.962,208.468z M69.641,169.45
			c0.163,19.316,15.914,34.993,35.273,35.018c0.016,0,0.031,0,0.047,0c9.417,0,18.273-3.661,24.941-10.312
			c6.598-6.581,10.275-15.31,10.375-24.614l-13.438-0.018c-1.104-0.001-1.997-0.896-1.997-2v-39.051l-39.707-0.051v39.046
			c0,0.531-0.211,1.04-0.587,1.415c-0.375,0.374-0.883,0.585-1.413,0.585c-0.001,0-0.002,0-0.003,0L69.641,169.45z"/>
	</g>
	<g>
		<path class="st0" d="M47.259,82.037l-3.058-38.949c-0.819-10.438,7.43-19.36,17.899-19.36l0,0v-1.774
			C62.101,12.038,70.139,4,80.055,4h82.739l-7.137,30.91l0,0c6.677,3.706,10.365,11.155,9.265,18.712l-4.136,28.416H47.259z"/>
	</g>
	<g>
		<path class="st1" d="M71.213,23.728v-1.774C71.213,12.038,79.251,4,89.167,4h-9.112c-9.916,0-17.954,8.038-17.954,17.954v1.774
			c-10.47,0-18.719,8.922-17.899,19.36l3.058,38.949h9.112l-3.058-38.949C52.494,32.65,60.743,23.728,71.213,23.728z"/>
	</g>
	<g>
		<path class="st2" d="M155.657,34.91L155.657,34.91L162.794,4h-9.112l-7.137,30.91l0,0c6.677,3.706,10.365,11.155,9.265,18.712
			l-4.136,28.416h9.112l4.136-28.416C166.022,46.064,162.333,38.615,155.657,34.91z"/>
	</g>
	<g>
		<path class="st3" d="M160.786,84.037H47.26c-1.044,0-1.912-0.803-1.994-1.843l-3.059-38.949
			c-0.434-5.53,1.477-11.037,5.242-15.109c3.31-3.58,7.837-5.818,12.651-6.307C60.168,10.884,69.094,2,80.055,2h82.739
			c0.609,0,1.186,0.278,1.566,0.755c0.379,0.477,0.52,1.101,0.383,1.695l-6.812,29.5c6.536,4.306,10.109,12.137,8.971,19.958
			l-4.136,28.416C162.622,83.308,161.779,84.037,160.786,84.037z M49.108,80.037h109.947l3.887-26.704
			c0.975-6.692-2.344-13.393-8.257-16.675c-0.779-0.433-1.179-1.33-0.978-2.199L160.279,6H80.055
			c-8.797,0-15.954,7.157-15.954,15.955v1.774c0,1.104-0.896,2-2,2c-4.5,0-8.66,1.819-11.715,5.124
			c-3.055,3.304-4.543,7.594-4.19,12.079L49.108,80.037z"/>
	</g>
	<g>
		<path class="st12" d="M57.741,74.444h-3.369c-8.71,0-15.771,7.061-15.771,15.771c0,8.71,7.061,15.771,15.771,15.771h3.369V74.444z
			"/>
	</g>
	<g>
		<path class="st13" d="M155.496,74.444h-3.369v31.542h3.369c8.71,0,15.771-7.061,15.771-15.771
			C171.267,81.505,164.206,74.444,155.496,74.444z"/>
	</g>
	<g>
		<path class="st11" d="M104.934,154.616L104.934,154.616c-26.064,0-47.193-21.403-47.193-47.806V73.714
			c0-26.403,21.129-47.806,47.193-47.806l0,0c26.064,0,47.193,21.403,47.193,47.806v33.096
			C152.127,133.213,130.998,154.616,104.934,154.616z"/>
	</g>
	<g>
		<path class="st13" d="M104.934,25.908c-1.814,0-3.602,0.114-5.363,0.316c23.537,2.698,41.83,22.925,41.83,47.49v33.096
			c0,24.565-18.293,44.791-41.83,47.49c1.761,0.202,3.548,0.316,5.363,0.316c26.064,0,47.193-21.403,47.193-47.806V73.714
			C152.127,47.312,130.998,25.908,104.934,25.908z"/>
	</g>
	<g>
		<path class="st12" d="M104.934,25.908c1.814,0,3.602,0.114,5.363,0.316c-23.537,2.698-41.83,22.925-41.83,47.49v33.096
			c0,24.565,18.293,44.791,41.83,47.49c-1.761,0.202-3.548,0.316-5.363,0.316c-26.064,0-47.193-21.403-47.193-47.806V73.714
			C57.741,47.312,78.87,25.908,104.934,25.908z"/>
	</g>
	<g>
		<path class="st3" d="M104.934,156.616c-27.125,0-49.192-22.343-49.192-49.806V73.714c0-27.463,22.067-49.806,49.192-49.806
			s49.193,22.343,49.193,49.806v33.096C154.127,134.273,132.059,156.616,104.934,156.616z M104.934,27.908
			c-24.919,0-45.192,20.548-45.192,45.806v33.096c0,25.257,20.273,45.806,45.192,45.806c24.92,0,45.193-20.548,45.193-45.806V73.714
			C150.127,48.457,129.854,27.908,104.934,27.908z"/>
	</g>
	<g>
		<path class="st3" d="M57.741,107.986h-3.37c-9.799,0-17.77-7.972-17.77-17.771c0-9.799,7.972-17.771,17.77-17.771h3.37
			c1.104,0,2,0.896,2,2v31.542C59.741,107.091,58.846,107.986,57.741,107.986z M54.371,76.444c-7.593,0-13.77,6.178-13.77,13.771
			c0,7.593,6.178,13.771,13.77,13.771h1.37V76.444H54.371z"/>
	</g>
	<g>
		<path class="st3" d="M155.496,107.986h-3.369c-1.104,0-2-0.896-2-2V74.444c0-1.104,0.896-2,2-2h3.369
			c9.799,0,17.771,7.972,17.771,17.771C173.268,100.014,165.295,107.986,155.496,107.986z M154.127,103.986h1.369
			c7.594,0,13.771-6.178,13.771-13.771c0-7.593-6.178-13.771-13.771-13.771h-1.369V103.986z"/>
	</g>
	<g>
		<circle class="st7" cx="193.949" cy="205.78" r="46.22"/>
	</g>
	<g>
		<path class="st9" d="M193.949,159.559c-1.349,0-2.68,0.07-4,0.184c23.652,2.029,42.22,21.859,42.22,46.037
			c0,24.178-18.568,44.008-42.22,46.037c1.32,0.113,2.651,0.184,4,0.184c25.527,0,46.22-20.694,46.22-46.22
			C240.169,180.253,219.476,159.559,193.949,159.559z"/>
	</g>
	<g>
		<path class="st10" d="M193.949,159.559c1.349,0,2.68,0.07,4,0.184c-23.652,2.029-42.22,21.859-42.22,46.037
			c0,24.178,18.568,44.008,42.22,46.037c-1.32,0.113-2.651,0.184-4,0.184c-25.527,0-46.22-20.694-46.22-46.22
			C147.729,180.253,168.422,159.559,193.949,159.559z"/>
	</g>
	<g>
		<path class="st3" d="M193.949,254c-26.589,0-48.221-21.631-48.221-48.22s21.632-48.22,48.221-48.22
			c26.589,0,48.22,21.631,48.22,48.22S220.538,254,193.949,254z M193.949,161.56c-24.384,0-44.221,19.837-44.221,44.22
			S169.565,250,193.949,250c24.383,0,44.22-19.837,44.22-44.22S218.332,161.56,193.949,161.56z"/>
	</g>
	<g>
		<path class="st8" d="M207.027,233.267h-26.157c-2.761,0-5-2.239-5-5V202.11c0-2.761,2.239-5,5-5h26.157c2.761,0,5,2.239,5,5
			v26.157C212.027,231.028,209.789,233.267,207.027,233.267z"/>
	</g>
	<g>
		<path class="st14" d="M207.027,197.11h-6c2.762,0,5,2.239,5,5v26.156c0,2.762-2.238,5-5,5h6c2.762,0,5-2.238,5-5V202.11
			C212.027,199.349,209.789,197.11,207.027,197.11z"/>
	</g>
	<g>
		<path class="st15" d="M180.871,233.267h6c-2.761,0-5-2.239-5-5V202.11c0-2.762,2.239-5,5-5h-6c-2.761,0-5,2.238-5,5v26.156
			C175.871,231.028,178.109,233.267,180.871,233.267z"/>
	</g>
	<g>
		<path class="st3" d="M207.027,235.267h-26.156c-3.859,0-7-3.14-7-7V202.11c0-3.86,3.141-7,7-7h26.156c3.859,0,7,3.14,7,7v26.157
			C214.027,232.127,210.887,235.267,207.027,235.267z M180.871,199.11c-1.654,0-3,1.346-3,3v26.157c0,1.654,1.346,3,3,3h26.156
			c1.654,0,3-1.346,3-3V202.11c0-1.654-1.346-3-3-3H180.871z"/>
	</g>
	<g>
		<path class="st3" d="M206.304,199.11c-1.104,0-2-0.896-2-2v-6.463c0-5.71-4.645-10.355-10.354-10.355
			c-5.71,0-10.355,4.645-10.355,10.355v6.463c0,1.104-0.895,2-2,2c-1.104,0-2-0.896-2-2v-6.463c0-7.915,6.439-14.355,14.355-14.355
			c7.915,0,14.354,6.439,14.354,14.355v6.463C208.304,198.215,207.408,199.11,206.304,199.11z"/>
	</g>
	<g>
		<path class="st3" d="M198.982,210.549c0-2.78-2.253-5.033-5.033-5.033c-2.78,0-5.033,2.254-5.033,5.033
			c0,2.068,1.25,3.842,3.034,4.616v7.697c0,1.104,0.896,2,2,2c1.105,0,2-0.896,2-2v-7.697
			C197.733,214.39,198.982,212.617,198.982,210.549z"/>
	</g>
</g>
</svg>
