<?xml version="1.0" encoding="utf-8"?>
<!-- Generator: Adobe Illustrator 22.1.0, SVG Export Plug-In . SVG Version: 6.00 Build 0)  -->
<svg version="1.1" id="Layer_1" xmlns="http://www.w3.org/2000/svg" xmlns:xlink="http://www.w3.org/1999/xlink" x="0px" y="0px"
	 viewBox="0 0 256 256" style="enable-background:new 0 0 256 256;" xml:space="preserve">
<style type="text/css">
	.st0{fill:#FCC24C;}
	.st1{fill:#FCE06A;}
	.st2{fill:#DEA42E;}
	.st3{fill:#690589;}
	.st4{fill:#7BAC51;}
	.st5{fill:#5D8E33;}
	.st6{fill:#99CA6F;}
	.st7{fill:#F4EFED;}
	.st8{fill:#FF4397;}
	.st9{fill:#D6D1CF;}
	.st10{fill:#FFFFFF;}
	.st11{fill:#FF9F70;}
	.st12{fill:#FFBD8E;}
	.st13{fill:#E18152;}
	.st14{fill:#E12579;}
	.st15{fill:#FF61B5;}
</style>
<g>
	<g>
		<path class="st4" d="M186.401,48.533l-18.492-24.607c-2.348-3.125-1.482-7.594,1.863-9.615l15.484-9.357
			c3.539-2.138,8.15-0.534,9.598,3.339l11.57,30.963L186.401,48.533z"/>
	</g>
	<g>
		<path class="st5" d="M185.246,9.904l12.475,33.384l8.703-4.032l-11.57-30.963c-1.447-3.873-6.059-5.478-9.598-3.339l-2.608,1.576
			C183.786,7.338,184.713,8.477,185.246,9.904z"/>
	</g>
	<g>
		<path class="st3" d="M186.402,50.533c-0.614,0-1.212-0.282-1.6-0.799L166.31,25.127c-1.458-1.94-2.03-4.419-1.568-6.803
			c0.461-2.383,1.918-4.47,3.996-5.726l15.484-9.356c2.198-1.327,4.851-1.604,7.274-0.762c2.425,0.844,4.332,2.707,5.231,5.112
			l11.57,30.963c0.366,0.979-0.084,2.075-1.033,2.515l-20.023,9.277C186.971,50.473,186.685,50.533,186.402,50.533z M188.667,6.001
			c-0.828,0-1.649,0.225-2.378,0.665l-15.484,9.356c-1.127,0.682-1.887,1.769-2.137,3.062c-0.25,1.294,0.047,2.586,0.839,3.639
			l17.52,23.315l16.874-7.818L192.98,8.993c-0.481-1.287-1.501-2.284-2.798-2.735C189.688,6.086,189.176,6.001,188.667,6.001z"/>
	</g>
	<g>
		<path class="st0" d="M10.353,127.009L10.353,127.009c-5.364,3.88-7.272,10.993-4.542,17.024
			c9.932,21.946,39.918,68.981,111.756,58.945c89.499-12.504,111.406-103.82,106.7-145.452c-0.315-2.787-2.353-5.066-5.087-5.694
			l-21.507-4.944c-3.41-0.784-6.829,1.225-7.814,4.582c-4.948,16.858-23.25,64.619-75.866,85.028
			c-38.413,14.9-73.455-1.317-88.322-10.16C20.881,123.488,14.868,123.743,10.353,127.009z"/>
	</g>
	<g>
		<path class="st1" d="M10.353,137.009L10.353,137.009c4.515-3.266,10.528-3.521,15.318-0.672
			c14.868,8.843,49.909,25.06,88.322,10.16c52.616-20.409,70.918-68.17,75.866-85.028c0.985-3.357,4.404-5.366,7.814-4.582
			l21.507,4.944c2.734,0.628,4.772,2.907,5.087,5.695c0.228,2.017,0.392,4.154,0.49,6.39c0.24-6.001,0.059-11.537-0.49-16.39
			c-0.315-2.788-2.353-5.066-5.087-5.695l-21.507-4.944c-3.41-0.784-6.829,1.225-7.814,4.582
			c-4.948,16.857-23.25,64.619-75.866,85.028c-38.413,14.9-73.455-1.317-88.322-10.16c-4.789-2.849-10.802-2.594-15.318,0.672h0
			c-5.149,3.724-7.101,10.424-4.836,16.291C6.463,140.846,8.098,138.64,10.353,137.009z"/>
	</g>
	<g>
		<path class="st3" d="M98.377,206.36c-59.611,0-85.567-42.013-94.388-61.504c-3.104-6.858-0.921-15.047,5.192-19.468l0,0
			c5.155-3.729,12.029-4.031,17.512-0.771c13.339,7.934,48.478,24.79,86.577,10.015c51.021-19.791,69.215-65.146,74.67-83.727
			c1.281-4.363,5.75-6.987,10.181-5.968l21.507,4.944c3.554,0.816,6.217,3.798,6.626,7.419
			c4.62,40.866-16.265,134.784-108.41,147.657C110.988,205.916,104.504,206.36,98.377,206.36z M11.525,128.629
			c-4.58,3.312-6.217,9.443-3.892,14.578c8.483,18.744,33.458,59.141,90.87,59.143c5.914,0,12.168-0.428,18.787-1.352
			c48.461-6.771,74.166-36.788,87.196-60.777c16.566-30.499,19.939-63.487,17.793-82.47c-0.219-1.938-1.644-3.532-3.547-3.97
			l-21.508-4.944c-2.367-0.547-4.76,0.858-5.447,3.196c-5.621,19.149-24.382,65.895-77.061,86.329
			c-11.404,4.424-22.545,6.138-32.955,6.138c-25.864,0.002-47.242-10.572-57.112-16.443
			C20.538,125.611,15.387,125.836,11.525,128.629L11.525,128.629z"/>
	</g>
	<g>
		<path class="st0" d="M37.223,184.064L37.223,184.064c-3.729,5.47-3.11,12.808,1.504,17.555
			c16.79,17.274,60.956,51.344,125.126,17.528c79.947-42.13,69.569-135.463,51.016-173.028c-1.242-2.515-3.933-3.967-6.717-3.631
			l-21.909,2.647c-3.473,0.42-6.008,3.469-5.796,6.962c1.065,17.537,0.056,68.674-42.514,105.726
			c-31.079,27.05-69.544,23.685-86.53,20.412C45.932,177.18,40.363,179.459,37.223,184.064z"/>
	</g>
	<g>
		<path class="st3" d="M110.491,235.52c-36.43,0.002-61.779-20.76-73.198-32.508c-5.249-5.4-5.973-13.844-1.722-20.076
			c3.584-5.257,9.946-7.871,16.211-6.666c15.239,2.938,54.014,6.872,84.838-19.957c41.28-35.928,43.005-84.766,41.831-104.096
			c-0.276-4.54,3.041-8.523,7.552-9.068l21.909-2.646c3.623-0.434,7.136,1.463,8.75,4.729
			c18.212,36.875,30.434,132.307-51.876,175.684C144.706,231.498,126.524,235.52,110.491,235.52z M48.746,179.98
			c-3.907,0-7.621,1.91-9.87,5.21l0,0c-3.184,4.669-2.643,10.992,1.286,15.035c15.817,16.271,59.442,50.518,122.76,17.151
			c43.289-22.812,57.283-59.771,61.4-86.759c5.235-34.311-2.786-66.486-11.246-83.614c-0.863-1.748-2.745-2.768-4.684-2.53
			l-21.909,2.646c-2.413,0.292-4.187,2.425-4.04,4.856c1.211,19.921-0.576,70.26-43.197,107.355
			c-32.15,27.983-72.405,23.916-88.221,20.867C50.265,180.052,49.502,179.98,48.746,179.98z M37.224,184.064h0.01H37.224z"/>
	</g>
	<g>
		<path class="st0" d="M87.409,223.782L87.409,223.782c-1.772,6.379,1.174,13.128,7.07,16.139
			c21.453,10.956,74.231,29.011,124.115-23.646c62.149-65.604,22.306-150.64-7.344-180.243c-1.985-1.982-4.999-2.492-7.528-1.277
			l-19.893,9.553c-3.154,1.515-4.573,5.217-3.249,8.456c6.649,16.262,22.14,65.008-6.252,113.782
			c-20.728,35.608-58.231,44.793-75.367,47.157C93.441,214.463,88.9,218.413,87.409,223.782z"/>
	</g>
	<g>
		<path class="st2" d="M211.251,36.032c-1.985-1.982-4.999-2.492-7.528-1.277l-2.539,1.219c0.021,0.021,0.046,0.037,0.068,0.058
			c29.649,29.602,69.493,114.638,7.344,180.242c-24.189,25.534-49.059,34.44-70.707,35.593c23.777,1.246,52.697-6.026,80.707-35.593
			C280.744,150.67,240.9,65.634,211.251,36.032z"/>
	</g>
	<g>
		<path class="st3" d="M142.907,253.955c-21.439,0-39.241-7.097-49.337-12.253c-6.705-3.424-10.107-11.186-8.088-18.455
			c0,0,0,0,0.001,0c1.703-6.131,6.887-10.655,13.207-11.526c15.375-2.12,53.354-10.864,73.912-46.182
			c27.532-47.297,13.458-94.094,6.129-112.019c-1.721-4.21,0.139-9.049,4.234-11.016l19.893-9.553
			c3.286-1.58,7.228-0.911,9.807,1.665c29.104,29.058,71.369,115.489,7.383,183.032
			C193.512,245.659,166.083,253.955,142.907,253.955z M89.336,224.317c-1.513,5.446,1.033,11.259,6.053,13.822
			c20.21,10.322,72.533,28.716,121.754-23.24c33.652-35.523,35.017-75.018,30.235-101.896c-6.078-34.172-24.021-62.058-37.54-75.556
			c-1.381-1.378-3.49-1.736-5.249-0.89l-19.894,9.553c-2.191,1.052-3.185,3.642-2.264,5.896
			c7.553,18.473,22.052,66.711-6.375,115.544c-21.443,36.838-60.868,45.933-76.822,48.133
			C94.497,216.336,90.611,219.726,89.336,224.317L89.336,224.317z"/>
	</g>
	<g>
		<path class="st3" d="M200.138,96.702c-1.052,0-1.934-0.822-1.995-1.887c-0.221-3.887-0.669-7.851-1.332-11.781
			c-0.184-1.089,0.551-2.121,1.64-2.305c1.09-0.185,2.121,0.551,2.305,1.641c0.686,4.074,1.151,8.186,1.38,12.219
			c0.063,1.103-0.78,2.047-1.883,2.11C200.214,96.701,200.176,96.702,200.138,96.702z"/>
	</g>
</g>
</svg>
