<?xml version="1.0" encoding="utf-8"?>
<!-- Generator: Adobe Illustrator 22.1.0, SVG Export Plug-In . SVG Version: 6.00 Build 0)  -->
<svg version="1.1" id="Layer_1" xmlns="http://www.w3.org/2000/svg" xmlns:xlink="http://www.w3.org/1999/xlink" x="0px" y="0px"
	 viewBox="0 0 256 256" style="enable-background:new 0 0 256 256;" xml:space="preserve">
<style type="text/css">
	.st0{fill:#FCC24C;}
	.st1{fill:#FCE06A;}
	.st2{fill:#DEA42E;}
	.st3{fill:#690589;}
	.st4{fill:#7BAC51;}
	.st5{fill:#5D8E33;}
	.st6{fill:#99CA6F;}
	.st7{fill:#F4EFED;}
	.st8{fill:#FF4397;}
	.st9{fill:#D6D1CF;}
	.st10{fill:#FFFFFF;}
	.st11{fill:#FF9F70;}
	.st12{fill:#FFBD8E;}
	.st13{fill:#E18152;}
	.st14{fill:#E12579;}
	.st15{fill:#FF61B5;}
</style>
<g>
	<g>
		<rect x="4" y="58.623" class="st7" width="248" height="138.755"/>
	</g>
	<g>
		<rect x="242" y="58.623" class="st9" width="10" height="138.755"/>
	</g>
	<g>
		<rect x="4" y="58.623" class="st10" width="10" height="138.755"/>
	</g>
	<g>
		<path class="st4" d="M32.661,197.377c0-15.829-12.832-28.661-28.661-28.661v28.661H32.661z"/>
	</g>
	<g>
		<path class="st6" d="M4,168.716v28.661h10v-26.865C10.886,169.353,7.518,168.716,4,168.716z"/>
	</g>
	<g>
		<path class="st4" d="M4,87.284c15.829,0,28.661-12.832,28.661-28.661H4V87.284z"/>
	</g>
	<g>
		<path class="st6" d="M14,58.623H4v28.661c3.518,0,6.886-0.637,10-1.796V58.623z"/>
	</g>
	<g>
		
			<ellipse transform="matrix(0.7071 -0.7071 0.7071 0.7071 -74.1775 76.9198)" class="st0" cx="55.762" cy="128" rx="8.701" ry="8.701"/>
	</g>
	<g>
		
			<ellipse transform="matrix(0.2289 -0.9735 0.9735 0.2289 29.8023 293.623)" class="st0" cx="200.238" cy="128" rx="8.701" ry="8.701"/>
	</g>
	<g>
		<circle class="st4" cx="128" cy="128" r="40.716"/>
	</g>
	<g>
		<path class="st4" d="M252,87.284c-15.829,0-28.661-12.832-28.661-28.661H252V87.284z"/>
	</g>
	<g>
		<path class="st4" d="M223.339,197.377c0-15.829,12.832-28.661,28.661-28.661v28.661H223.339z"/>
	</g>
	<g>
		<g>
			<path class="st3" d="M128.621,101.091c1.492,0,2.672,1.181,2.672,2.672v1.367c3.667,0.435,6.774,1.616,9.632,3.418
				c0.994,0.559,1.865,1.492,1.865,2.983c0,1.926-1.554,3.418-3.48,3.418c-0.622,0-1.243-0.186-1.865-0.56
				c-2.175-1.305-4.288-2.237-6.401-2.735v11.932c9.446,2.362,13.486,6.153,13.486,12.802c0,6.836-5.345,11.373-13.237,12.118v3.729
				c0,1.492-1.181,2.672-2.672,2.672c-1.491,0-2.734-1.181-2.734-2.672v-3.853c-4.661-0.497-8.949-2.175-12.74-4.847
				c-1.057-0.684-1.678-1.678-1.678-2.983c0-1.926,1.492-3.418,3.418-3.418c0.746,0,1.491,0.248,2.051,0.683
				c2.921,2.113,5.78,3.542,9.198,4.164V129.74c-9.074-2.362-13.3-5.78-13.3-12.803c0-6.649,5.283-11.249,13.051-11.87v-1.305
				C125.887,102.271,127.13,101.091,128.621,101.091z M126.136,122.283v-11c-3.977,0.373-5.966,2.486-5.966,5.22
				C120.17,119.113,121.35,120.729,126.136,122.283z M131.045,130.921v11.31c3.977-0.435,6.152-2.424,6.152-5.407
				C137.197,134.09,135.831,132.413,131.045,130.921z"/>
		</g>
	</g>
	<g>
		<path class="st3" d="M128,170.716c-23.554,0-42.716-19.162-42.716-42.716S104.446,85.284,128,85.284
			c23.554,0,42.716,19.162,42.716,42.716S151.554,170.716,128,170.716z M128,89.284c-21.348,0-38.716,17.368-38.716,38.716
			s17.368,38.716,38.716,38.716c21.348,0,38.716-17.368,38.716-38.716S149.348,89.284,128,89.284z"/>
	</g>
	<g>
		<path class="st3" d="M55.762,138.701c-5.901,0-10.701-4.8-10.701-10.701c0-5.901,4.8-10.701,10.701-10.701
			s10.701,4.8,10.701,10.701C66.463,133.901,61.663,138.701,55.762,138.701z M55.762,121.299c-3.695,0-6.701,3.006-6.701,6.701
			c0,3.695,3.006,6.701,6.701,6.701s6.701-3.006,6.701-6.701C62.463,124.305,59.456,121.299,55.762,121.299z"/>
	</g>
	<g>
		<path class="st3" d="M200.238,138.701c-5.9,0-10.701-4.8-10.701-10.701c0-5.901,4.801-10.701,10.701-10.701
			s10.701,4.8,10.701,10.701C210.939,133.901,206.139,138.701,200.238,138.701z M200.238,121.299c-3.695,0-6.701,3.006-6.701,6.701
			c0,3.695,3.006,6.701,6.701,6.701c3.695,0,6.701-3.006,6.701-6.701C206.939,124.305,203.934,121.299,200.238,121.299z"/>
	</g>
	<g>
		<path class="st3" d="M4,89.284c-1.105,0-2-0.896-2-2V58.623c0-1.104,0.895-2,2-2h28.662c1.104,0,2,0.896,2,2
			C34.662,75.529,20.907,89.284,4,89.284z M6,60.623V85.21c13.11-0.977,23.61-11.478,24.587-24.587H6z"/>
	</g>
	<g>
		<path class="st3" d="M32.662,199.377H4c-1.105,0-2-0.895-2-2v-28.662c0-1.105,0.895-2,2-2c16.907,0,30.662,13.755,30.662,30.662
			C34.662,198.482,33.766,199.377,32.662,199.377z M6,195.377h24.587C29.61,182.268,19.11,171.767,6,170.79V195.377z"/>
	</g>
	<g>
		<path class="st3" d="M12.645,113.269c-1.105,0-2-0.896-2-2v-12c0-1.104,0.895-2,2-2c1.104,0,2,0.896,2,2v12
			C14.645,112.373,13.749,113.269,12.645,113.269z"/>
	</g>
	<g>
		<polygon class="st8" points="114.408,128 126.425,95.367 106.578,95.367 112.544,58.623 139.304,58.623 134.244,83.409 
			149.422,83.409 		"/>
	</g>
	<g>
		<path class="st3" d="M114.407,130c-0.332,0-0.667-0.083-0.974-0.254c-0.859-0.48-1.242-1.514-0.902-2.437l11.026-29.942h-16.98
			c-0.586,0-1.144-0.257-1.523-0.704s-0.545-1.038-0.451-1.616l5.966-36.745c0.157-0.968,0.993-1.68,1.974-1.68h26.76
			c0.601,0,1.169,0.27,1.549,0.735c0.38,0.465,0.531,1.077,0.411,1.665l-4.57,22.386h12.728c0.766,0,1.464,0.437,1.799,1.126
			c0.335,0.688,0.247,1.508-0.226,2.11l-35.014,44.591C115.59,129.733,115.004,130,114.407,130z M108.929,93.367h17.497
			c0.654,0,1.267,0.32,1.641,0.856c0.374,0.536,0.462,1.222,0.236,1.835l-7.635,20.732l24.641-31.381h-11.064
			c-0.6,0-1.169-0.27-1.549-0.735c-0.38-0.465-0.531-1.077-0.411-1.665l4.57-22.386h-22.609L108.929,93.367z"/>
	</g>
	<g>
		<path class="st5" d="M252,168.716v28.661h-10v-26.865C245.114,169.353,248.482,168.716,252,168.716z"/>
	</g>
	<g>
		<path class="st5" d="M242,58.623h10v28.661c-3.518,0-6.886-0.637-10-1.796V58.623z"/>
	</g>
	<g>
		<path class="st3" d="M252,89.284c-16.906,0-30.661-13.755-30.661-30.662c0-1.104,0.895-2,2-2H252c1.104,0,2,0.896,2,2v28.662
			C254,88.389,253.104,89.284,252,89.284z M225.413,60.623c0.977,13.11,11.477,23.61,24.587,24.587V60.623H225.413z"/>
	</g>
	<g>
		<path class="st3" d="M252,199.377h-28.661c-1.105,0-2-0.895-2-2c0-16.907,13.755-30.662,30.661-30.662c1.104,0,2,0.895,2,2v28.662
			C254,198.482,253.104,199.377,252,199.377z M225.413,195.377H250V170.79C236.891,171.767,226.391,182.268,225.413,195.377z"/>
	</g>
	<g>
		<path class="st3" d="M252,199.377H4c-1.105,0-2-0.895-2-2V58.623c0-1.104,0.895-2,2-2h248c1.104,0,2,0.896,2,2v138.755
			C254,198.482,253.104,199.377,252,199.377z M6,195.377h244V60.623H6V195.377z"/>
	</g>
</g>
</svg>
