<?xml version="1.0" encoding="utf-8"?>
<!-- Generator: Adobe Illustrator 22.1.0, SVG Export Plug-In . SVG Version: 6.00 Build 0)  -->
<svg version="1.1" id="Layer_1" xmlns="http://www.w3.org/2000/svg" xmlns:xlink="http://www.w3.org/1999/xlink" x="0px" y="0px"
	 viewBox="0 0 256 256" style="enable-background:new 0 0 256 256;" xml:space="preserve">
<style type="text/css">
	.st0{fill:#FCC24C;}
	.st1{fill:#FCE06A;}
	.st2{fill:#DEA42E;}
	.st3{fill:#690589;}
	.st4{fill:#7BAC51;}
	.st5{fill:#5D8E33;}
	.st6{fill:#99CA6F;}
	.st7{fill:#F4EFED;}
	.st8{fill:#FF4397;}
	.st9{fill:#D6D1CF;}
	.st10{fill:#FFFFFF;}
	.st11{fill:#FF9F70;}
	.st12{fill:#FFBD8E;}
	.st13{fill:#E18152;}
	.st14{fill:#E12579;}
	.st15{fill:#FF61B5;}
</style>
<g>
	<g>
		<path class="st4" d="M251.828,136.434l-12.8-49.791c-0.568-2.208-2.418-3.744-4.548-4.024v-0.05h-38.446v0.051
			c-1.955,0.257-3.699,1.571-4.405,3.557l-9.177,25.797l-16.829,11.229c-2.491,1.663-3.164,5.031-1.501,7.522
			c1.045,1.566,2.764,2.413,4.516,2.413c1.034,0,2.08-0.296,3.005-0.912l18.325-12.228c0.971-0.648,1.708-1.593,2.099-2.694
			l3.966-11.15v29.293l-6.629,73.406c-0.446,4.94,3.197,9.306,8.136,9.753c0.275,0.024,0.547,0.037,0.818,0.037
			c4.595,0,8.513-3.509,8.934-8.174l6.226-68.945c0.081-0.899,0.835-1.588,1.738-1.588h0c0.903,0,1.656,0.689,1.738,1.588
			l6.226,68.945c0.421,4.666,4.338,8.174,8.934,8.174c0.27,0,0.544-0.012,0.818-0.037c4.939-0.446,8.583-4.812,8.136-9.753
			l-6.629-73.406v-22.931l6.843,26.619c0.629,2.447,2.833,4.074,5.249,4.074c0.447,0,0.902-0.056,1.354-0.173
			C250.826,142.291,252.573,139.334,251.828,136.434z"/>
	</g>
	<g>
		<path class="st6" d="M185.994,114.991c0.885-0.591,1.558-1.449,1.922-2.449l9.591-26.366c0.706-1.986,2.451-3.299,4.405-3.557
			v-0.051h-5.878v0.051c-1.954,0.257-3.699,1.571-4.405,3.557l-9.177,25.797l-16.829,11.229c-2.224,1.485-2.985,4.324-1.943,6.689
			L185.994,114.991z"/>
	</g>
	<g>
		<path class="st6" d="M201.912,135.447l-6.629,73.406c-0.379,4.197,2.197,7.969,6.007,9.286c-0.924,0.321-1.908,0.503-2.93,0.503
			c-0.271,0-0.544-0.012-0.818-0.037c-4.939-0.446-8.583-4.812-8.136-9.753l6.629-73.406v-29.293l0,0h3.878c1.105,0,2,0.895,2,2
			V135.447z"/>
	</g>
	<g>
		<path class="st5" d="M251.828,136.434l-12.8-49.791c-0.568-2.208-2.418-3.744-4.548-4.024v-0.05h-5.423v0.05
			c2.13,0.28,3.98,1.817,4.548,4.024l12.8,49.791c0.619,2.408-0.484,4.85-2.534,6.038c0.811,0.468,1.736,0.737,2.701,0.737
			c0.447,0,0.902-0.056,1.354-0.173C250.826,142.291,252.573,139.334,251.828,136.434z"/>
	</g>
	<g>
		<path class="st5" d="M229.057,114.516v20.931l6.629,73.406c0.387,4.279-2.297,8.121-6.23,9.366
			c0.856,0.272,1.762,0.424,2.699,0.424c0.27,0,0.544-0.012,0.818-0.037c4.939-0.446,8.583-4.812,8.136-9.753l-6.629-73.406v-22.931
			l0,0h-3.423C229.953,112.516,229.057,113.411,229.057,114.516z"/>
	</g>
	<g>
		<path class="st7" d="M154.916,142.244H19.338l15.747-54.536c1.209-4.188,5.043-7.072,9.403-7.072h85.279
			c4.359,0,8.193,2.883,9.402,7.072L154.916,142.244z"/>
	</g>
	<g>
		<path class="st9" d="M139.169,87.707c-1.209-4.188-5.043-7.072-9.402-7.072h-10.642c4.359,0,8.193,2.883,9.403,7.072
			l15.747,54.536h10.642L139.169,87.707z"/>
	</g>
	<g>
		<path class="st10" d="M35.085,87.707c1.209-4.188,5.043-7.072,9.403-7.072H55.13c-4.359,0-8.193,2.883-9.403,7.072L29.98,142.244
			H19.338L35.085,87.707z"/>
	</g>
	<g>
		<path class="st3" d="M154.917,144.244H19.338c-0.628,0-1.221-0.296-1.599-0.798c-0.378-0.502-0.497-1.153-0.323-1.757
			l15.748-54.537c1.448-5.015,6.104-8.517,11.324-8.517h85.279c5.219,0,9.876,3.502,11.324,8.517l15.748,54.537
			c0.174,0.604,0.055,1.254-0.323,1.757C156.137,143.948,155.545,144.244,154.917,144.244z M21.997,140.244h130.26l-15.01-51.982
			c-0.957-3.312-4.033-5.626-7.481-5.626H44.488c-3.448,0-6.524,2.314-7.481,5.626L21.997,140.244z"/>
	</g>
	<g>
		<path class="st3" d="M38.128,116.384c-0.184,0-0.371-0.025-0.556-0.079c-1.062-0.306-1.673-1.415-1.367-2.476l3.465-12
			c0.307-1.062,1.417-1.676,2.476-1.367c1.062,0.306,1.673,1.415,1.367,2.476l-3.465,12
			C39.796,115.814,38.997,116.384,38.128,116.384z"/>
	</g>
	<g>
		<path class="st3" d="M35.591,144.244c-0.958,0-1.804-0.69-1.969-1.666c-0.185-1.089,0.548-2.122,1.637-2.306l44.219-7.497
			c1.091-0.189,2.122,0.549,2.306,1.637c0.185,1.089-0.548,2.122-1.637,2.306l-44.219,7.497
			C35.814,144.235,35.702,144.244,35.591,144.244z"/>
	</g>
	<g>
		<path class="st4" d="M160.468,193.673H13.787c-5.405,0-9.787-4.382-9.787-9.787V152.03c0-5.405,4.382-9.787,9.787-9.787h146.681
			c5.405,0,9.787,4.382,9.787,9.787v31.856C170.254,189.291,165.873,193.673,160.468,193.673z"/>
	</g>
	<g>
		<path class="st5" d="M160.468,142.244h-10.642c5.405,0,9.787,4.382,9.787,9.787v31.856c0,5.405-4.382,9.787-9.787,9.787h10.642
			c5.405,0,9.787-4.382,9.787-9.787V152.03C170.254,146.625,165.873,142.244,160.468,142.244z"/>
	</g>
	<g>
		<path class="st6" d="M13.787,142.244h10.642c-5.405,0-9.786,4.382-9.786,9.787v31.856c0,5.405,4.381,9.787,9.786,9.787H13.787
			c-5.405,0-9.787-4.382-9.787-9.787V152.03C4,146.625,8.382,142.244,13.787,142.244z"/>
	</g>
	<g>
		<path class="st5" d="M115.649,172.754H58.605c-5.007,0-9.067,4.059-9.067,9.067v11.851h75.177v-11.851
			C124.716,176.814,120.656,172.754,115.649,172.754z"/>
	</g>
	<g>
		<path class="st8" d="M44.645,218.643h-21.53c-2.702,0-4.893-2.191-4.893-4.893v-20.077h31.317v20.077
			C49.539,216.452,47.348,218.643,44.645,218.643z"/>
	</g>
	<g>
		<path class="st8" d="M151.14,218.643h-21.53c-2.703,0-4.893-2.191-4.893-4.893v-20.077h31.317v20.077
			C156.033,216.452,153.842,218.643,151.14,218.643z"/>
	</g>
	<g>
		<path class="st0" d="M43.526,180.693H4v-25.469h14.057C32.124,155.224,43.526,166.626,43.526,180.693L43.526,180.693z"/>
	</g>
	<g>
		<path class="st0" d="M130.728,180.693h39.526v-25.469h-14.057C142.131,155.224,130.728,166.626,130.728,180.693L130.728,180.693z"
			/>
	</g>
	<g>
		<path class="st3" d="M44.645,220.643h-21.53c-3.801,0-6.893-3.092-6.893-6.893v-20.077c0-1.104,0.896-2,2-2h31.317
			c1.104,0,2,0.896,2,2v20.077C51.539,217.55,48.446,220.643,44.645,220.643z M20.222,195.673v18.077
			c0,1.595,1.298,2.893,2.893,2.893h21.53c1.596,0,2.894-1.298,2.894-2.893v-18.077H20.222z"/>
	</g>
	<g>
		<path class="st3" d="M151.14,220.643h-21.531c-3.801,0-6.893-3.092-6.893-6.893v-20.077c0-1.104,0.896-2,2-2h31.317
			c1.105,0,2,0.896,2,2v20.077C158.033,217.55,154.94,220.643,151.14,220.643z M126.716,195.673v18.077
			c0,1.595,1.298,2.893,2.893,2.893h21.531c1.595,0,2.893-1.298,2.893-2.893v-18.077H126.716z"/>
	</g>
	<g>
		<path class="st3" d="M124.716,195.673H49.539c-1.104,0-2-0.896-2-2v-11.852c0-6.103,4.964-11.067,11.067-11.067h57.043
			c6.103,0,11.067,4.964,11.067,11.067v11.852C126.716,194.777,125.82,195.673,124.716,195.673z M51.539,191.673h71.177v-9.852
			c0-3.896-3.17-7.067-7.067-7.067H58.605c-3.896,0-7.067,3.17-7.067,7.067V191.673z"/>
	</g>
	<g>
		<rect x="159.612" y="155.224" class="st2" width="10.642" height="25.469"/>
	</g>
	<g>
		<rect x="4" y="155.224" class="st1" width="10.642" height="25.469"/>
	</g>
	<g>
		<path class="st3" d="M160.468,195.673H13.787C7.288,195.673,2,190.385,2,183.886V152.03c0-6.499,5.288-11.787,11.787-11.787
			h146.681c6.499,0,11.787,5.288,11.787,11.787v31.856C172.254,190.385,166.967,195.673,160.468,195.673z M13.787,144.244
			c-4.293,0-7.787,3.493-7.787,7.787v31.856c0,4.294,3.493,7.787,7.787,7.787h146.681c4.293,0,7.787-3.493,7.787-7.787V152.03
			c0-4.294-3.493-7.787-7.787-7.787H13.787z"/>
	</g>
	<g>
		<path class="st3" d="M43.526,182.693H4c-1.105,0-2-0.896-2-2v-25.469c0-1.105,0.895-2,2-2h14.057
			c15.147,0,27.469,12.323,27.469,27.469C45.526,181.797,44.631,182.693,43.526,182.693z M6,178.693h35.442
			c-1.018-12.008-11.118-21.469-23.385-21.469H6V178.693z"/>
	</g>
	<g>
		<path class="st3" d="M170.254,182.693h-39.526c-1.104,0-2-0.896-2-2c0-15.146,12.322-27.469,27.469-27.469h14.058
			c1.105,0,2,0.895,2,2v25.469C172.254,181.797,171.359,182.693,170.254,182.693z M132.812,178.693h35.442v-21.469h-12.058
			C143.93,157.224,133.831,166.685,132.812,178.693z"/>
	</g>
	<g>
		<path class="st0" d="M119.4,92.055H54.854c-5.41,0-9.796-4.386-9.796-9.796V65.331c0-5.41,4.386-9.796,9.796-9.796H119.4
			c5.41,0,9.796,4.386,9.796,9.796v16.928C129.196,87.669,124.81,92.055,119.4,92.055z"/>
	</g>
	<g>
		<path class="st2" d="M119.4,55.535h-6.857c5.41,0,9.796,4.386,9.796,9.796v16.928c0,5.41-4.386,9.796-9.796,9.796h6.857
			c5.41,0,9.796-4.386,9.796-9.796V65.331C129.196,59.921,124.81,55.535,119.4,55.535z"/>
	</g>
	<g>
		<path class="st1" d="M54.854,92.055h6.857c-5.41,0-9.796-4.386-9.796-9.796V65.331c0-5.41,4.386-9.796,9.796-9.796h-6.857
			c-5.41,0-9.796,4.386-9.796,9.796v16.928C45.058,87.67,49.444,92.055,54.854,92.055z"/>
	</g>
	<g>
		<path class="st3" d="M119.4,94.055H54.854c-6.504,0-11.796-5.292-11.796-11.796V65.331c0-6.504,5.292-11.796,11.796-11.796H119.4
			c6.504,0,11.796,5.292,11.796,11.796v16.928C131.196,88.763,125.904,94.055,119.4,94.055z M54.854,57.535
			c-4.299,0-7.796,3.498-7.796,7.796v16.928c0,4.299,3.498,7.796,7.796,7.796H119.4c4.299,0,7.796-3.498,7.796-7.796V65.331
			c0-4.299-3.497-7.796-7.796-7.796H54.854z"/>
	</g>
	<g>
		<path class="st3" d="M57.206,81.617V66.28c0-0.78,0.624-1.429,1.429-1.429h0.027c0,0,0,0,0.052,0h8.422
			c0.754,0,1.429,0.649,1.429,1.429c0,0.805-0.675,1.456-1.429,1.456h-7.045v4.757h6.057c0.78,0,1.429,0.676,1.429,1.43
			c0,0.806-0.65,1.455-1.429,1.455h-6.057v6.239c0,0.78-0.649,1.429-1.456,1.429C57.83,83.046,57.206,82.397,57.206,81.617z"/>
	</g>
	<g>
		<path class="st3" d="M84.963,80.889c0.26,0.754-0.156,1.559-0.91,1.82c-0.103,0.026-0.312,0.077-0.571,0.077c0,0,0,0-0.027,0
			c-0.259,0-0.65-0.052-1.013-0.286c-0.338-0.208-0.624-0.545-0.832-0.91c-0.364-0.754-0.545-1.69-0.545-3.119
			c-0.026-0.495-0.13-0.832-0.312-1.118c-0.156-0.286-0.468-0.545-0.781-0.754c-0.545-0.364-1.222-0.571-1.455-0.624H75.45v5.641
			c0,0.78-0.651,1.429-1.456,1.429c-0.805,0-1.43-0.65-1.43-1.429V66.28c0-0.806,0.625-1.429,1.43-1.429c0,0,0,0,0.026,0h4.627
			c3.093,0,5.562,2.495,5.562,5.589c0,1.715-0.78,3.223-2.027,4.263c0.338,0.26,0.65,0.572,0.91,0.961
			c0.52,0.754,0.858,1.716,0.858,2.808c-0.026,0.78,0.052,1.273,0.103,1.534C84.469,80.135,84.807,80.447,84.963,80.889z
			 M81.324,70.439c0-1.508-1.196-2.703-2.677-2.703H75.45v5.354h3.197C80.128,73.09,81.324,71.895,81.324,70.439z"/>
	</g>
	<g>
		<path class="st3" d="M89.17,81.617V66.28c0-0.806,0.624-1.429,1.429-1.429h0.027c0,0,0,0,0.052,0h8.423
			c0.754,0,1.429,0.624,1.429,1.429c0,0.805-0.675,1.456-1.429,1.456h-7.045v4.757h6.057c0.78,0,1.429,0.676,1.429,1.43
			c0,0.806-0.649,1.455-1.429,1.455h-6.057v4.783h7.045c0.754,0,1.429,0.65,1.429,1.456c0,0.78-0.675,1.429-1.429,1.429h-8.423
			c-0.052,0-0.052-0.026-0.052-0.026L90.6,83.046C89.794,83.046,89.17,82.397,89.17,81.617z"/>
	</g>
	<g>
		<path class="st3" d="M104.581,81.617V66.28c0-0.806,0.624-1.429,1.429-1.429h0.026c0,0,0,0,0.053,0h8.423
			c0.754,0,1.429,0.624,1.429,1.429c0,0.805-0.675,1.456-1.429,1.456h-7.045v4.757h6.057c0.78,0,1.429,0.676,1.429,1.43
			c0,0.806-0.65,1.455-1.429,1.455h-6.057v4.783h7.045c0.754,0,1.429,0.65,1.429,1.456c0,0.78-0.675,1.429-1.429,1.429h-8.423
			c-0.053,0-0.053-0.026-0.053-0.026l-0.026,0.026C105.205,83.046,104.581,82.397,104.581,81.617z"/>
	</g>
	<g>
		<polygon class="st7" points="215.257,82.568 228.324,82.568 221.79,92.864 215.257,103.159 208.724,92.864 202.191,82.568 		"/>
	</g>
	<g>
		<path class="st7" d="M215.257,82.002L215.257,82.002c-8.485,0-15.364-6.968-15.364-15.563v-7.02
			c0-8.596,6.879-15.563,15.364-15.563l0,0c8.485,0,15.364,6.968,15.364,15.563v7.02C230.621,75.034,223.742,82.002,215.257,82.002z
			"/>
	</g>
	<g>
		<path class="st3" d="M215.257,84.002c-9.574,0-17.364-7.879-17.364-17.563v-7.021c0-9.684,7.79-17.563,17.364-17.563
			c9.574,0,17.364,7.879,17.364,17.563v7.021C232.621,76.123,224.831,84.002,215.257,84.002z M215.257,45.855
			c-7.369,0-13.364,6.084-13.364,13.563v7.021c0,7.479,5.995,13.563,13.364,13.563c7.369,0,13.364-6.084,13.364-13.563v-7.021
			C228.621,51.939,222.626,45.855,215.257,45.855z"/>
	</g>
	<g>
		<path class="st8" d="M226.559,37.357h-22.603c-2.244,0-4.062,1.819-4.062,4.062v16.293h30.727V41.419
			C230.621,39.176,228.802,37.357,226.559,37.357z"/>
	</g>
	<g>
		<path class="st14" d="M226.559,37.357h-4.875c2.244,0,4.062,1.819,4.062,4.062v16.292h4.875V41.419
			C230.621,39.176,228.802,37.357,226.559,37.357z"/>
	</g>
	<g>
		<path class="st15" d="M203.956,37.357h4.875c-2.244,0-4.062,1.819-4.062,4.062v16.292h-4.875V41.419
			C199.894,39.176,201.712,37.357,203.956,37.357z"/>
	</g>
	<g>
		<path class="st3" d="M230.621,59.712h-30.727c-1.105,0-2-0.896-2-2V41.419c0-3.343,2.72-6.062,6.062-6.062h22.602
			c3.343,0,6.062,2.719,6.062,6.062v16.292C232.621,58.816,231.726,59.712,230.621,59.712z M201.894,55.712h26.727V41.419
			c0-1.137-0.925-2.062-2.062-2.062h-22.602c-1.137,0-2.062,0.925-2.062,2.062V55.712z"/>
	</g>
	<g>
		<path class="st3" d="M232.155,220.643c-5.714,0-10.412-4.296-10.925-9.994l-5.972-66.131l-5.972,66.131
			c-0.544,6.026-5.803,10.497-11.921,9.95c-6.033-0.545-10.496-5.895-9.951-11.925l6.621-73.317v-17.614l-0.082,0.23
			c-0.532,1.496-1.553,2.806-2.874,3.688l-18.326,12.228c-1.225,0.817-2.648,1.249-4.115,1.249c-2.489,0-4.799-1.235-6.18-3.303
			c-2.272-3.404-1.35-8.023,2.055-10.296l16.277-10.861l8.955-25.171c0.884-2.487,2.989-4.289,5.558-4.792
			c0.227-0.093,0.473-0.145,0.731-0.145h38.446c0.268,0,0.524,0.053,0.758,0.148c2.792,0.558,5.011,2.642,5.727,5.427l12.8,49.792
			v0.001c0.493,1.92,0.21,3.917-0.799,5.624c-1.009,1.708-2.622,2.919-4.542,3.413c-0.608,0.156-1.231,0.235-1.852,0.235
			c-3.387,0-6.341-2.293-7.186-5.576l-2.906-11.304v7.028l6.621,73.316c0.545,6.03-3.918,11.38-9.948,11.924
			C232.816,220.628,232.483,220.643,232.155,220.643z M215.257,137.936c1.95,0,3.553,1.464,3.73,3.407l6.226,68.946
			c0.347,3.833,3.681,6.675,7.583,6.325c3.831-0.346,6.669-3.747,6.322-7.581l-6.629-73.407c-0.005-0.06-0.008-0.12-0.008-0.18
			v-22.931c0-1.007,0.749-1.858,1.749-1.984c1.005-0.125,1.937,0.51,2.188,1.486l6.843,26.619c0.46,1.792,2.337,2.932,4.168,2.463
			c0.885-0.228,1.629-0.786,2.094-1.574c0.465-0.787,0.597-1.709,0.369-2.594l-12.8-49.791c-0.349-1.359-1.477-2.356-2.872-2.539
			c-0.061-0.008-0.122-0.019-0.181-0.032H196.48c-0.061,0.014-0.122,0.025-0.185,0.034c-1.284,0.169-2.35,1.029-2.782,2.244
			l-9.177,25.797c-0.145,0.406-0.416,0.754-0.774,0.993l-16.829,11.229c-1.57,1.048-1.996,3.178-0.948,4.748
			c0.637,0.954,1.703,1.524,2.853,1.524c0.674,0,1.33-0.199,1.896-0.577l18.325-12.227c0.609-0.407,1.08-1.011,1.325-1.701
			l3.966-11.149c0.327-0.918,1.266-1.468,2.225-1.3c0.959,0.165,1.66,0.998,1.66,1.971v29.293c0,0.06-0.003,0.12-0.008,0.18
			l-6.629,73.406c-0.346,3.834,2.491,7.235,6.325,7.582c0.212,0.018,0.426,0.028,0.638,0.028c3.63,0,6.615-2.731,6.942-6.354
			l6.226-68.944C211.704,139.401,213.307,137.936,215.257,137.936z"/>
	</g>
	<g>
		<path class="st8" d="M220.205,63.659h-9.896c-3.285,0-5.947-2.663-5.947-5.947l0,0h21.79l0,0
			C226.152,60.996,223.49,63.659,220.205,63.659z"/>
	</g>
	<g>
		<path class="st3" d="M220.206,65.659h-9.896c-4.382,0-7.947-3.565-7.947-7.947c0-1.104,0.895-2,2-2h21.79c1.104,0,2,0.896,2,2
			C228.152,62.094,224.587,65.659,220.206,65.659z M206.908,59.712c0.687,1.164,1.955,1.947,3.401,1.947h9.896
			c1.447,0,2.714-0.783,3.401-1.947H206.908z"/>
	</g>
	<g>
		<path class="st3" d="M215.257,105.159c-0.684,0-1.322-0.35-1.688-0.928L200.502,83.64c-0.391-0.616-0.415-1.396-0.064-2.035
			c0.351-0.64,1.023-1.037,1.752-1.037h26.133c0.729,0,1.401,0.397,1.753,1.037c0.352,0.639,0.327,1.419-0.064,2.035l-13.066,20.591
			C216.579,104.809,215.942,105.159,215.257,105.159z M205.829,84.568l9.429,14.858l9.429-14.858H205.829z"/>
	</g>
	<g>
		<path class="st3" d="M228.387,105.895h-4.469c-1.105,0-2-0.896-2-2s0.895-2,2-2h4.469c1.104,0,2,0.896,2,2
			S229.491,105.895,228.387,105.895z"/>
	</g>
	<g>
		<polygon class="st8" points="219.499,88.888 221.104,82.568 215.257,82.568 209.411,82.568 211.015,88.888 208.724,92.864 
			215.257,103.159 221.791,92.864 		"/>
	</g>
	<g>
		<path class="st3" d="M215.257,105.159c-0.684,0-1.322-0.35-1.688-0.928l-6.533-10.296c-0.399-0.628-0.416-1.426-0.044-2.07
			l1.886-3.272l-1.405-5.533c-0.152-0.598-0.019-1.233,0.36-1.72c0.379-0.487,0.961-0.772,1.579-0.772h11.693
			c0.617,0,1.2,0.285,1.579,0.772c0.379,0.487,0.512,1.122,0.36,1.72l-1.405,5.533l1.886,3.272c0.372,0.645,0.355,1.442-0.044,2.07
			l-6.533,10.296C216.579,104.809,215.942,105.159,215.257,105.159z M211.061,92.814l4.196,6.612l4.196-6.612l-1.687-2.927
			c-0.26-0.451-0.333-0.986-0.206-1.491l0.972-3.828h-6.55l0.972,3.828c0.128,0.505,0.054,1.039-0.206,1.491L211.061,92.814z"/>
	</g>
	<g>
		<path class="st3" d="M219.499,90.888h-8.484c-1.104,0-2-0.896-2-2s0.896-2,2-2h8.484c1.105,0,2,0.896,2,2
			S220.604,90.888,219.499,90.888z"/>
	</g>
</g>
</svg>
