<?xml version="1.0" encoding="utf-8"?>
<!-- Generator: Adobe Illustrator 22.1.0, SVG Export Plug-In . SVG Version: 6.00 Build 0)  -->
<svg version="1.1" id="Layer_1" xmlns="http://www.w3.org/2000/svg" xmlns:xlink="http://www.w3.org/1999/xlink" x="0px" y="0px"
	 viewBox="0 0 256 256" style="enable-background:new 0 0 256 256;" xml:space="preserve">
<style type="text/css">
	.st0{fill:#FCC24C;}
	.st1{fill:#FCE06A;}
	.st2{fill:#DEA42E;}
	.st3{fill:#690589;}
	.st4{fill:#7BAC51;}
	.st5{fill:#5D8E33;}
	.st6{fill:#99CA6F;}
	.st7{fill:#F4EFED;}
	.st8{fill:#FF4397;}
	.st9{fill:#D6D1CF;}
	.st10{fill:#FFFFFF;}
	.st11{fill:#FF9F70;}
	.st12{fill:#FFBD8E;}
	.st13{fill:#E18152;}
	.st14{fill:#E12579;}
	.st15{fill:#FF61B5;}
</style>
<g>
	<g>
		<path class="st8" d="M226.355,110.705H205.11c-2.761,0-5,2.239-5,5v7.78h31.245v-7.78
			C231.355,112.944,229.117,110.705,226.355,110.705z"/>
	</g>
	<g>
		<polygon class="st8" points="229.101,44.894 202.363,44.894 195.779,77.803 235.685,77.803 		"/>
	</g>
	<g>
		<path class="st4" d="M146.092,69.609H23.644c-2.762,0-5,2.239-5,5v48.877h132.449V74.609
			C151.092,71.847,148.854,69.609,146.092,69.609z"/>
	</g>
	<g>
		<polygon class="st4" points="148.62,167.296 21.116,167.296 4,167.296 4,185.852 4,211.106 21.116,211.106 21.116,185.852 
			148.62,185.852 148.62,211.106 165.736,211.106 165.736,185.852 165.736,167.296 		"/>
	</g>
	<g>
		<path class="st7" d="M165.736,167.296H4v-33.81c0-5.523,4.477-10,10-10h141.736c5.523,0,10,4.477,10,10V167.296z"/>
	</g>
	<g>
		<rect x="179.465" y="123.486" class="st0" width="72.535" height="87.62"/>
	</g>
	<g>
		<path class="st5" d="M146.092,69.609h-10c2.762,0,5,2.238,5,5v48.877h10V74.609C151.092,71.847,148.854,69.609,146.092,69.609z"/>
	</g>
	<g>
		<g>
			<polygon class="st5" points="155.736,167.296 155.736,185.852 155.736,211.106 165.736,211.106 165.736,185.852 165.736,167.296 
							"/>
		</g>
	</g>
	<g>
		<path class="st9" d="M155.736,123.486h-10c5.523,0,10,4.477,10,10v33.81h10v-33.81
			C165.736,127.963,161.259,123.486,155.736,123.486z"/>
	</g>
	<g>
		<path class="st6" d="M33.644,69.609h-10c-2.761,0-5,2.238-5,5v48.877h10V74.609C28.644,71.847,30.882,69.609,33.644,69.609z"/>
	</g>
	<g>
		<path class="st10" d="M24,123.486H14c-5.523,0-10,4.477-10,10v33.81h10v-33.81C14,127.963,18.477,123.486,24,123.486z"/>
	</g>
	<g>
		<g>
			<polygon class="st6" points="14,167.296 4,167.296 4,185.852 4,211.106 14,211.106 14,185.852 			"/>
		</g>
	</g>
	<g>
		<rect x="242" y="123.486" class="st2" width="10" height="87.62"/>
	</g>
	<g>
		<rect x="179.465" y="123.486" class="st1" width="10" height="87.62"/>
	</g>
	<g>
		<polygon class="st14" points="229.101,44.894 223.101,44.894 229.685,77.803 235.685,77.803 		"/>
	</g>
	<g>
		<path class="st14" d="M226.355,110.706h-5c2.762,0,5,2.239,5,5v7.78h5v-7.78C231.355,112.944,229.117,110.706,226.355,110.706z"/>
	</g>
	<g>
		<polygon class="st15" points="202.363,44.894 208.363,44.894 201.779,77.803 195.779,77.803 		"/>
	</g>
	<g>
		<path class="st15" d="M205.11,110.706h5c-2.761,0-5,2.239-5,5v7.78h-5v-7.78C200.11,112.944,202.348,110.706,205.11,110.706z"/>
	</g>
	<g>
		<path class="st3" d="M165.736,169.296H4c-1.105,0-2-0.895-2-2v-33.81c0-6.617,5.383-12,12-12h141.736c6.617,0,12,5.383,12,12
			v33.81C167.736,168.4,166.841,169.296,165.736,169.296z M6,165.296h157.736v-31.81c0-4.411-3.589-8-8-8H14c-4.411,0-8,3.589-8,8
			V165.296z"/>
	</g>
	<g>
		<path class="st3" d="M12,152.257c-1.105,0-2-0.895-2-2v-12c0-1.104,0.895-2,2-2c1.104,0,2,0.896,2,2v12
			C14,151.362,13.104,152.257,12,152.257z"/>
	</g>
	<g>
		<path class="st3" d="M165.736,213.105H148.62c-1.105,0-2-0.895-2-2v-23.254H23.116v23.254c0,1.105-0.896,2-2,2H4
			c-1.105,0-2-0.895-2-2v-43.81c0-1.104,0.895-2,2-2h161.736c1.105,0,2,0.896,2,2v43.81
			C167.736,212.21,166.841,213.105,165.736,213.105z M150.62,209.105h13.116v-39.81H6v39.81h13.116v-23.254c0-1.104,0.896-2,2-2
			H148.62c1.104,0,2,0.896,2,2V209.105z"/>
	</g>
	<g>
		<path class="st3" d="M151.093,125.486H18.644c-1.104,0-2-0.896-2-2V74.609c0-3.86,3.141-7,7-7h122.449c3.859,0,7,3.14,7,7v48.877
			C153.093,124.59,152.197,125.486,151.093,125.486z M20.644,121.486h128.449V74.609c0-1.654-1.346-3-3-3H23.644
			c-1.654,0-3,1.346-3,3V121.486z"/>
	</g>
	<g>
		<path class="st3" d="M252,213.105h-72.535c-1.104,0-2-0.895-2-2v-87.62c0-1.104,0.896-2,2-2H252c1.105,0,2,0.896,2,2v87.62
			C254,212.21,253.105,213.105,252,213.105z M181.465,209.105H250v-83.62h-68.535V209.105z"/>
	</g>
	<g>
		<path class="st3" d="M252,169.296h-72.535c-1.104,0-2-0.895-2-2c0-1.104,0.896-2,2-2H252c1.105,0,2,0.896,2,2
			C254,168.4,253.105,169.296,252,169.296z"/>
	</g>
	<g>
		<path class="st3" d="M235.686,79.804h-39.906c-0.6,0-1.167-0.269-1.547-0.732c-0.38-0.463-0.532-1.073-0.414-1.661l6.584-32.909
			c0.187-0.935,1.008-1.607,1.961-1.607h26.738c0.953,0,1.774,0.673,1.961,1.607l6.584,32.909c0.118,0.588-0.034,1.197-0.414,1.661
			C236.852,79.535,236.285,79.804,235.686,79.804z M198.219,75.804h35.027l-5.784-28.909h-23.459L198.219,75.804z"/>
	</g>
	<g>
		<path class="st3" d="M231.355,125.486h-31.246c-1.105,0-2-0.896-2-2v-7.78c0-3.86,3.141-7,7-7h21.246c3.859,0,7,3.14,7,7v7.78
			C233.355,124.59,232.46,125.486,231.355,125.486z M202.109,121.486h27.246v-5.78c0-1.654-1.346-3-3-3h-21.246
			c-1.654,0-3,1.346-3,3V121.486z"/>
	</g>
	<g>
		<path class="st3" d="M215.732,112.706c-1.105,0-2-0.896-2-2V77.804c0-1.104,0.895-2,2-2c1.104,0,2,0.896,2,2v32.902
			C217.732,111.81,216.837,112.706,215.732,112.706z"/>
	</g>
	<g>
		<path class="st3" d="M222.299,155.567h-13.133c-1.105,0-2-0.895-2-2c0-1.104,0.895-2,2-2h13.133c1.105,0,2,0.896,2,2
			C224.299,154.671,223.403,155.567,222.299,155.567z"/>
	</g>
	<g>
		<path class="st3" d="M222.299,199.377h-13.133c-1.105,0-2-0.896-2-2c0-1.104,0.895-2,2-2h13.133c1.105,0,2,0.896,2,2
			C224.299,198.481,223.403,199.377,222.299,199.377z"/>
	</g>
	<g>
		<path class="st0" d="M176.617,89.943H79.382c-5.523,0-10-4.477-10-10V46.342c0-5.523,4.477-10,10-10h97.235
			c5.523,0,10,4.477,10,10v33.601C186.617,85.466,182.14,89.943,176.617,89.943z"/>
	</g>
	<g>
		<path class="st2" d="M176.617,36.342h-10c5.523,0,10,4.477,10,10v33.601c0,5.523-4.477,10-10,10h10c5.523,0,10-4.477,10-10V46.342
			C186.617,40.819,182.14,36.342,176.617,36.342z"/>
	</g>
	<g>
		<path class="st1" d="M79.382,89.943h10c-5.523,0-10-4.477-10-10V46.342c0-5.523,4.477-10,10-10h-10c-5.523,0-10,4.477-10,10
			v33.601C69.382,85.466,73.86,89.943,79.382,89.943z"/>
	</g>
	<g>
		<path class="st3" d="M176.617,91.943H79.383c-6.617,0-12-5.383-12-12V46.342c0-6.617,5.383-12,12-12h97.234
			c6.617,0,12,5.383,12,12v33.602C188.617,86.56,183.234,91.943,176.617,91.943z M79.383,38.342c-4.411,0-8,3.589-8,8v33.602
			c0,4.411,3.589,8,8,8h97.234c4.411,0,8-3.589,8-8V46.342c0-4.411-3.589-8-8-8H79.383z"/>
	</g>
	<g>
		<path class="st3" d="M82.785,74.95V51.335c0-1.201,0.96-2.201,2.201-2.201h0.041c0,0,0,0,0.08,0h12.968
			c1.161,0,2.201,1,2.201,2.201c0,1.24-1.04,2.242-2.201,2.242H87.227v7.323h9.325c1.2,0,2.2,1.042,2.2,2.202
			c0,1.24-1,2.24-2.2,2.24h-9.325v9.606c0,1.2-1,2.201-2.242,2.201C83.745,77.15,82.785,76.15,82.785,74.95z"/>
	</g>
	<g>
		<path class="st3" d="M125.52,73.829c0.401,1.161-0.24,2.401-1.401,2.802c-0.159,0.04-0.48,0.119-0.879,0.119c0,0,0,0-0.041,0
			c-0.399,0-1-0.08-1.56-0.44c-0.52-0.32-0.96-0.84-1.282-1.401c-0.56-1.161-0.84-2.601-0.84-4.802
			c-0.04-0.762-0.2-1.282-0.48-1.722c-0.24-0.44-0.72-0.84-1.202-1.161c-0.84-0.56-1.881-0.879-2.24-0.96h-4.722v8.686
			c0,1.2-1.002,2.201-2.242,2.201c-1.24,0-2.202-1-2.202-2.201V51.335c0-1.24,0.962-2.201,2.202-2.201c0,0,0,0,0.04,0h7.124
			c4.762,0,8.564,3.841,8.564,8.605c0,2.641-1.201,4.962-3.121,6.563c0.52,0.401,1,0.881,1.401,1.48
			c0.801,1.161,1.321,2.643,1.321,4.323c-0.04,1.2,0.079,1.96,0.159,2.361C124.76,72.668,125.28,73.148,125.52,73.829z
			 M119.917,57.74c0-2.321-1.841-4.162-4.121-4.162h-4.922v8.244h4.922C118.076,61.821,119.917,59.98,119.917,57.74z"/>
	</g>
	<g>
		<path class="st3" d="M131.998,74.95V51.335c0-1.24,0.96-2.201,2.201-2.201h0.041c0,0,0,0,0.079,0h12.968
			c1.16,0,2.2,0.96,2.2,2.201c0,1.24-1.04,2.242-2.2,2.242h-10.847v7.323h9.325c1.2,0,2.2,1.042,2.2,2.202c0,1.24-1,2.24-2.2,2.24
			h-9.325v7.365h10.847c1.16,0,2.2,1,2.2,2.242c0,1.2-1.04,2.201-2.2,2.201H134.32c-0.079,0-0.079-0.04-0.079-0.04l-0.041,0.04
			C132.959,77.15,131.998,76.15,131.998,74.95z"/>
	</g>
	<g>
		<path class="st3" d="M155.726,74.95V51.335c0-1.24,0.96-2.201,2.201-2.201h0.04c0,0,0,0,0.081,0h12.968
			c1.161,0,2.201,0.96,2.201,2.201c0,1.24-1.04,2.242-2.201,2.242h-10.847v7.323h9.325c1.2,0,2.201,1.042,2.201,2.202
			c0,1.24-1,2.24-2.201,2.24h-9.325v7.365h10.847c1.161,0,2.201,1,2.201,2.242c0,1.2-1.04,2.201-2.201,2.201h-12.968
			c-0.081,0-0.081-0.04-0.081-0.04l-0.04,0.04C156.686,77.15,155.726,76.15,155.726,74.95z"/>
	</g>
	<g>
		<path class="st7" d="M126.43,89.943H43.306c-5.523,0-10,4.477-10,10v23.542H136.43V99.943
			C136.43,94.421,131.952,89.943,126.43,89.943z"/>
	</g>
	<g>
		<path class="st9" d="M126.43,89.943h-8c5.523,0,10,4.477,10,10v23.542h8V99.943C136.43,94.42,131.952,89.943,126.43,89.943z"/>
	</g>
	<g>
		<path class="st10" d="M43.306,89.943h8c-5.523,0-10,4.477-10,10v23.542h-8V99.943C33.306,94.42,37.784,89.943,43.306,89.943z"/>
	</g>
	<g>
		<path class="st3" d="M136.43,125.486H33.307c-1.104,0-2-0.896-2-2V99.943c0-6.617,5.383-12,12-12h83.123c6.617,0,12,5.383,12,12
			v23.542C138.43,124.59,137.534,125.486,136.43,125.486z M35.307,121.486h99.123V99.943c0-4.411-3.589-8-8-8H43.307
			c-4.411,0-8,3.589-8,8V121.486z"/>
	</g>
	<g>
		<path class="st3" d="M84.868,124.345c-1.104,0-2-0.896-2-2V91.316c0-1.104,0.896-2,2-2c1.105,0,2,0.896,2,2v31.028
			C86.868,123.449,85.973,124.345,84.868,124.345z"/>
	</g>
</g>
</svg>
