<?xml version="1.0" encoding="utf-8"?>
<!-- Generator: Adobe Illustrator 22.1.0, SVG Export Plug-In . SVG Version: 6.00 Build 0)  -->
<svg version="1.1" id="Layer_1" xmlns="http://www.w3.org/2000/svg" xmlns:xlink="http://www.w3.org/1999/xlink" x="0px" y="0px"
	 viewBox="0 0 256 256" style="enable-background:new 0 0 256 256;" xml:space="preserve">
<style type="text/css">
	.st0{fill:#FCC24C;}
	.st1{fill:#FCE06A;}
	.st2{fill:#DEA42E;}
	.st3{fill:#690589;}
	.st4{fill:#7BAC51;}
	.st5{fill:#5D8E33;}
	.st6{fill:#99CA6F;}
	.st7{fill:#F4EFED;}
	.st8{fill:#FF4397;}
	.st9{fill:#D6D1CF;}
	.st10{fill:#FFFFFF;}
	.st11{fill:#FF9F70;}
	.st12{fill:#FFBD8E;}
	.st13{fill:#E18152;}
	.st14{fill:#E12579;}
	.st15{fill:#FF61B5;}
</style>
<g>
	<g>
		<g>
			<circle class="st0" cx="53.237" cy="49.238" r="31.083"/>
		</g>
		<g>
			<path class="st1" d="M32.154,49.238c0-15.464,11.294-28.285,26.083-30.677c-1.628-0.263-3.297-0.406-5-0.406
				c-17.167,0-31.083,13.916-31.083,31.083S36.07,80.321,53.237,80.321c1.703,0,3.372-0.142,5-0.406
				C43.449,77.523,32.154,64.702,32.154,49.238z"/>
		</g>
		<g>
			<path class="st3" d="M53.237,82.321c-18.242,0-33.083-14.841-33.083-33.083c0-18.242,14.841-33.083,33.083-33.083
				c18.242,0,33.083,14.841,33.083,33.083C86.32,67.48,71.479,82.321,53.237,82.321z M53.237,20.156
				c-16.036,0-29.083,13.046-29.083,29.083c0,16.037,13.046,29.083,29.083,29.083c16.037,0,29.083-13.046,29.083-29.083
				C82.32,33.202,69.273,20.156,53.237,20.156z"/>
		</g>
		<g>
			<polygon class="st7" points="187.386,252 74.346,252 53.237,49.238 208.495,49.238 			"/>
		</g>
		<g>
			<polygon class="st9" points="198.495,49.238 177.386,252 187.386,252 208.495,49.238 			"/>
		</g>
		<g>
			<polygon class="st10" points="63.237,49.238 84.346,252 74.346,252 53.237,49.238 			"/>
		</g>
		<g>
			<polygon class="st8" points="57.109,86.427 74.346,252 187.386,252 204.624,86.427 			"/>
		</g>
		<g>
			<polygon class="st14" points="194.624,86.427 177.386,252 187.386,252 204.624,86.427 			"/>
		</g>
		<g>
			<polygon class="st15" points="67.109,86.427 84.346,252 74.346,252 57.109,86.427 			"/>
		</g>
		<g>
			
				<ellipse transform="matrix(0.7071 -0.7071 0.7071 0.7071 -52.8026 100.9713)" class="st0" cx="95.482" cy="114.224" rx="11.036" ry="11.036"/>
		</g>
		<g>
			<path class="st0" d="M138.014,124.05c0,3.948-3.2,7.148-7.148,7.148s-7.148-3.2-7.148-7.148s3.2-7.148,7.148-7.148
				S138.014,120.103,138.014,124.05z"/>
		</g>
		<g>
			<path class="st0" d="M113.665,148.113c0,3.948-3.2,7.148-7.148,7.148c-3.948,0-7.148-3.2-7.148-7.148s3.2-7.148,7.148-7.148
				C110.465,140.966,113.665,144.166,113.665,148.113z"/>
		</g>
		<g>
			<path class="st3" d="M71.832,150.94c-1.012,0-1.88-0.765-1.987-1.793l-1.249-12c-0.114-1.099,0.684-2.082,1.782-2.196
				c1.093-0.116,2.082,0.683,2.196,1.782l1.249,12c0.114,1.099-0.684,2.082-1.782,2.196C71.971,150.937,71.901,150.94,71.832,150.94
				z"/>
		</g>
		<g>
			<path class="st3" d="M95.482,127.26c-7.188,0-13.036-5.848-13.036-13.036c0-7.188,5.848-13.036,13.036-13.036
				c7.188,0,13.036,5.848,13.036,13.036C108.518,121.412,102.67,127.26,95.482,127.26z M95.482,105.188
				c-4.982,0-9.036,4.053-9.036,9.036s4.053,9.036,9.036,9.036c4.983,0,9.036-4.053,9.036-9.036S100.464,105.188,95.482,105.188z"/>
		</g>
		<g>
			<path class="st3" d="M130.866,133.198c-5.044,0-9.148-4.104-9.148-9.147c0-5.044,4.104-9.148,9.148-9.148
				c5.044,0,9.148,4.104,9.148,9.148C140.014,129.094,135.91,133.198,130.866,133.198z M130.866,118.902
				c-2.838,0-5.148,2.31-5.148,5.148s2.31,5.147,5.148,5.147c2.838,0,5.148-2.309,5.148-5.147S133.704,118.902,130.866,118.902z"/>
		</g>
		<g>
			<path class="st3" d="M106.518,157.261c-5.045,0-9.148-4.104-9.148-9.148c0-5.044,4.104-9.147,9.148-9.147
				c5.044,0,9.147,4.104,9.147,9.147C115.665,153.158,111.561,157.261,106.518,157.261z M106.518,142.966
				c-2.838,0-5.148,2.309-5.148,5.147c0,2.838,2.31,5.148,5.148,5.148c2.838,0,5.147-2.309,5.147-5.148
				C111.665,145.275,109.356,142.966,106.518,142.966z"/>
		</g>
		<g>
			<g>
				<path class="st4" d="M139.317,236.325c-0.39,0-0.784-0.036-1.181-0.111c-3.437-0.648-5.698-3.96-5.048-7.397l37.394-198.165
					C173.395,15.209,186.916,4,202.633,4h24.88c3.497,0,6.333,2.835,6.333,6.333c0,3.497-2.835,6.333-6.333,6.333h-24.88
					c-9.632,0-17.92,6.87-19.706,16.335l-37.394,198.166C144.959,234.206,142.301,236.325,139.317,236.325z"/>
			</g>
		</g>
		<g>
			<g>
				<path class="st3" d="M139.317,238.325c-0.516,0-1.037-0.049-1.55-0.145c-2.19-0.413-4.086-1.653-5.341-3.492
					c-1.254-1.838-1.718-4.055-1.306-6.243l37.396-198.165C171.608,13.894,185.956,2,202.633,2h24.88
					c4.595,0,8.333,3.738,8.333,8.333s-3.738,8.333-8.333,8.333h-24.88c-8.672,0-16.133,6.185-17.741,14.706l-37.395,198.165
					C146.756,235.47,143.315,238.325,139.317,238.325z M202.633,6c-14.755,0-27.45,10.523-30.186,25.022l-37.395,198.165
					c-0.214,1.138,0.027,2.29,0.68,3.246c0.652,0.956,1.638,1.601,2.775,1.815c0.267,0.05,0.541,0.076,0.811,0.076
					c2.076,0,3.863-1.484,4.249-3.53l37.396-198.167c1.964-10.409,11.078-17.963,21.671-17.963h24.88
					c2.39,0,4.333-1.944,4.333-4.333c0-2.389-1.943-4.333-4.333-4.333H202.633z"/>
			</g>
		</g>
		<g>
			<path class="st3" d="M187.387,254H74.346c-1.024,0-1.883-0.774-1.989-1.793L51.248,49.445c-0.059-0.563,0.125-1.125,0.503-1.546
				c0.379-0.421,0.919-0.661,1.486-0.661h155.258c0.566,0,1.106,0.24,1.485,0.661c0.38,0.421,0.563,0.982,0.504,1.546
				l-21.108,202.762C189.269,253.226,188.411,254,187.387,254z M76.148,250h109.436l20.692-198.762H55.456L76.148,250z"/>
		</g>
		<g>
			<path class="st3" d="M187.387,254H74.346c-1.024,0-1.883-0.774-1.989-1.793L55.119,86.635c-0.059-0.564,0.125-1.126,0.504-1.546
				c0.379-0.421,0.919-0.661,1.486-0.661h147.516c0.566,0,1.106,0.24,1.485,0.661c0.38,0.42,0.562,0.982,0.504,1.546
				l-17.237,165.572C189.269,253.226,188.411,254,187.387,254z M76.148,250h109.436l16.821-161.572H59.328L76.148,250z"/>
		</g>
	</g>
	<g>
		<path class="st0" d="M223.846,213.523h-97.235c-5.523,0-10-4.477-10-10v-33.602c0-5.523,4.477-10,10-10h97.235
			c5.523,0,10,4.477,10,10v33.602C233.846,209.046,229.369,213.523,223.846,213.523z"/>
	</g>
	<g>
		<path class="st2" d="M223.846,159.921h-10c5.523,0,10,4.477,10,10v33.602c0,5.523-4.477,10-10,10h10c5.523,0,10-4.477,10-10
			v-33.602C233.846,164.398,229.369,159.921,223.846,159.921z"/>
	</g>
	<g>
		<path class="st1" d="M126.611,213.523h10c-5.523,0-10-4.477-10-10v-33.602c0-5.523,4.477-10,10-10h-10c-5.523,0-10,4.477-10,10
			v33.602C116.611,209.046,121.088,213.523,126.611,213.523z"/>
	</g>
	<g>
		<path class="st3" d="M223.846,215.523h-97.235c-6.617,0-12-5.383-12-12v-33.601c0-6.617,5.383-12,12-12h97.235
			c6.617,0,12,5.383,12,12v33.601C235.846,210.139,230.463,215.523,223.846,215.523z M126.611,161.921c-4.411,0-8,3.589-8,8v33.601
			c0,4.411,3.589,8,8,8h97.235c4.411,0,8-3.589,8-8v-33.601c0-4.411-3.589-8-8-8H126.611z"/>
	</g>
	<g>
		<path class="st3" d="M130.013,198.529v-23.614c0-1.201,0.96-2.201,2.2-2.201h0.041c0,0,0,0,0.079,0h12.968
			c1.161,0,2.201,1,2.201,2.201c0,1.24-1.04,2.242-2.201,2.242h-10.847v7.323h9.325c1.2,0,2.2,1.042,2.2,2.202
			c0,1.24-1,2.24-2.2,2.24h-9.325v9.606c0,1.2-1,2.201-2.242,2.201C130.973,200.73,130.013,199.729,130.013,198.529z"/>
	</g>
	<g>
		<path class="st3" d="M172.749,197.408c0.401,1.161-0.24,2.401-1.401,2.802c-0.159,0.04-0.48,0.119-0.879,0.119c0,0,0,0-0.041,0
			c-0.399,0-1-0.08-1.56-0.44c-0.52-0.32-0.96-0.84-1.282-1.401c-0.56-1.161-0.84-2.601-0.84-4.802
			c-0.04-0.762-0.2-1.282-0.48-1.722c-0.24-0.44-0.72-0.84-1.202-1.161c-0.84-0.56-1.881-0.879-2.24-0.96h-4.722v8.686
			c0,1.2-1.002,2.201-2.242,2.201c-1.24,0-2.202-1-2.202-2.201v-23.614c0-1.24,0.962-2.201,2.202-2.201c0,0,0,0,0.04,0h7.124
			c4.762,0,8.564,3.841,8.564,8.605c0,2.641-1.201,4.962-3.121,6.563c0.52,0.401,1,0.881,1.401,1.48
			c0.801,1.161,1.321,2.643,1.321,4.323c-0.04,1.2,0.08,1.96,0.159,2.361C171.989,196.247,172.509,196.728,172.749,197.408z
			 M167.146,181.319c0-2.321-1.841-4.162-4.121-4.162h-4.922v8.244h4.922C165.304,185.401,167.146,183.559,167.146,181.319z"/>
	</g>
	<g>
		<path class="st3" d="M179.227,198.529v-23.614c0-1.24,0.961-2.201,2.201-2.201h0.041c0,0,0,0,0.08,0h12.968
			c1.161,0,2.2,0.96,2.2,2.201c0,1.24-1.04,2.242-2.2,2.242h-10.847v7.323h9.325c1.2,0,2.2,1.042,2.2,2.202c0,1.24-1,2.24-2.2,2.24
			h-9.325v7.365h10.847c1.161,0,2.2,1,2.2,2.242c0,1.2-1.04,2.201-2.2,2.201h-12.968c-0.08,0-0.08-0.04-0.08-0.04l-0.041,0.04
			C180.187,200.73,179.227,199.729,179.227,198.529z"/>
	</g>
	<g>
		<path class="st3" d="M202.954,198.529v-23.614c0-1.24,0.96-2.201,2.201-2.201h0.04c0,0,0,0,0.081,0h12.968
			c1.161,0,2.201,0.96,2.201,2.201c0,1.24-1.04,2.242-2.201,2.242h-10.847v7.323h9.325c1.2,0,2.201,1.042,2.201,2.202
			c0,1.24-1,2.24-2.201,2.24h-9.325v7.365h10.847c1.161,0,2.201,1,2.201,2.242c0,1.2-1.04,2.201-2.201,2.201h-12.968
			c-0.081,0-0.081-0.04-0.081-0.04l-0.04,0.04C203.914,200.73,202.954,199.729,202.954,198.529z"/>
	</g>
</g>
</svg>
