<?xml version="1.0" encoding="utf-8"?>
<!-- Generator: Adobe Illustrator 22.1.0, SVG Export Plug-In . SVG Version: 6.00 Build 0)  -->
<svg version="1.1" id="Layer_1" xmlns="http://www.w3.org/2000/svg" xmlns:xlink="http://www.w3.org/1999/xlink" x="0px" y="0px"
	 viewBox="0 0 256 256" style="enable-background:new 0 0 256 256;" xml:space="preserve">
<style type="text/css">
	.st0{fill:#FCC24C;}
	.st1{fill:#FCE06A;}
	.st2{fill:#DEA42E;}
	.st3{fill:#690589;}
	.st4{fill:#7BAC51;}
	.st5{fill:#5D8E33;}
	.st6{fill:#99CA6F;}
	.st7{fill:#F4EFED;}
	.st8{fill:#FF4397;}
	.st9{fill:#D6D1CF;}
	.st10{fill:#FFFFFF;}
	.st11{fill:#FF9F70;}
	.st12{fill:#FFBD8E;}
	.st13{fill:#E18152;}
	.st14{fill:#E12579;}
	.st15{fill:#FF61B5;}
</style>
<g>
	<g>
		<g>
			<path class="st7" d="M199.645,135.353c-0.627,0-1.265-0.1-1.892-0.308c-3.145-1.045-4.848-4.44-3.804-7.585l36.354-109.472
				c1.044-3.145,4.443-4.847,7.585-3.804c3.145,1.045,4.848,4.44,3.804,7.585l-36.354,109.472
				C204.502,133.76,202.159,135.353,199.645,135.353z"/>
		</g>
	</g>
	<g>
		<g>
			<path class="st3" d="M199.644,137.354c-0.854,0-1.703-0.138-2.521-0.409c-4.187-1.391-6.462-5.928-5.072-10.113l36.354-109.472
				c0.674-2.028,2.097-3.673,4.008-4.631c1.91-0.957,4.079-1.113,6.105-0.441c4.186,1.391,6.462,5.928,5.072,10.113l-36.354,109.472
				C206.147,135.15,203.097,137.354,199.644,137.354z M235.996,15.878c-0.614,0-1.225,0.144-1.79,0.427
				c-0.956,0.479-1.668,1.301-2.004,2.314l-36.354,109.472c-0.695,2.093,0.442,4.361,2.536,5.057
				c0.411,0.137,0.835,0.206,1.261,0.206c1.726,0,3.251-1.102,3.795-2.741l36.354-109.472c0.695-2.093-0.442-4.361-2.536-5.057
				C236.845,15.946,236.419,15.878,235.996,15.878z"/>
		</g>
	</g>
	<g>
		<path class="st0" d="M240.918,66.649H119.024c-6.12,0-11.082,4.962-11.082,11.082v0c0,6.12,4.962,11.082,11.082,11.082h121.894
			c6.12,0,11.082-4.961,11.082-11.082v0C252,71.611,247.038,66.649,240.918,66.649z"/>
	</g>
	<g>
		<polygon class="st4" points="241.334,88.813 118.608,88.813 129.576,242.122 230.366,242.122 		"/>
	</g>
	<g>
		<path class="st2" d="M240.918,66.649h-10c6.12,0,11.082,4.961,11.082,11.082c0,6.12-4.962,11.081-11.082,11.081h10
			c6.12,0,11.082-4.961,11.082-11.081C252,71.611,247.038,66.649,240.918,66.649z"/>
	</g>
	<g>
		<path class="st1" d="M119.024,88.813h10c-6.12,0-11.082-4.961-11.082-11.082c0-6.12,4.962-11.082,11.082-11.082h-10
			c-6.12,0-11.082,4.961-11.082,11.082C107.942,83.851,112.904,88.813,119.024,88.813z"/>
	</g>
	<g>
		<polygon class="st5" points="231.334,88.813 220.366,242.121 230.366,242.121 241.334,88.813 		"/>
	</g>
	<g>
		<polygon class="st6" points="128.608,88.813 139.576,242.121 129.576,242.121 118.608,88.813 		"/>
	</g>
	<g>
		<path class="st3" d="M230.366,244.121h-100.79c-1.049,0-1.92-0.811-1.995-1.857L116.613,88.955
			c-0.04-0.554,0.153-1.099,0.531-1.506c0.378-0.406,0.909-0.637,1.464-0.637h122.727c0.556,0,1.086,0.23,1.464,0.637
			c0.378,0.407,0.57,0.952,0.531,1.506l-10.969,153.309C232.286,243.311,231.415,244.121,230.366,244.121z M131.438,240.121h97.065
			l10.683-149.309h-118.43L131.438,240.121z"/>
	</g>
	<g>
		<path class="st3" d="M240.918,90.812H119.024c-7.213,0-13.081-5.868-13.081-13.081c0-7.214,5.868-13.082,13.081-13.082h121.894
			c7.214,0,13.082,5.868,13.082,13.082C254,84.944,248.132,90.812,240.918,90.812z M119.024,68.649
			c-5.008,0-9.081,4.074-9.081,9.082c0,5.007,4.074,9.081,9.081,9.081h121.894c5.008,0,9.082-4.074,9.082-9.081
			c0-5.008-4.074-9.082-9.082-9.082H119.024z"/>
	</g>
	<g>
		<path class="st8" d="M203.508,197.082H19.182C10.797,197.082,4,190.285,4,181.9l0,0c0-8.385,6.797-15.182,15.182-15.182h184.326
			c8.385,0,15.182,6.797,15.182,15.182l0,0C218.69,190.285,211.893,197.082,203.508,197.082z"/>
	</g>
	<g>
		<path class="st11" d="M24.036,197.082h174.618v17.619c0,15.144-12.276,27.42-27.42,27.42H51.456
			c-15.144,0-27.42-12.276-27.42-27.42V197.082z"/>
	</g>
	<g>
		<path class="st11" d="M198.654,166.607H24.036v-1.167c0-30.287,24.553-54.84,54.84-54.84h64.938
			c30.287,0,54.84,24.553,54.84,54.84V166.607z"/>
	</g>
	<g>
		<path class="st14" d="M203.508,166.718h-10c8.385,0,15.182,6.797,15.182,15.182c0,8.385-6.797,15.182-15.182,15.182h10
			c8.385,0,15.182-6.797,15.182-15.182C218.69,173.515,211.893,166.718,203.508,166.718z"/>
	</g>
	<g>
		<path class="st15" d="M19.182,197.082h10C20.797,197.082,14,190.285,14,181.9c0-8.385,6.797-15.182,15.182-15.182h-10
			C10.797,166.718,4,173.515,4,181.9C4,190.285,10.797,197.082,19.182,197.082z"/>
	</g>
	<g>
		<path class="st13" d="M188.654,197.082v17.62c0,15.143-12.277,27.42-27.42,27.42h10c15.144,0,27.42-12.276,27.42-27.42v-17.62
			H188.654z"/>
	</g>
	<g>
		<path class="st12" d="M34.036,197.082v17.62c0,15.143,12.276,27.42,27.42,27.42h-10c-15.144,0-27.42-12.276-27.42-27.42v-17.62
			H34.036z"/>
	</g>
	<g>
		<path class="st3" d="M171.233,244.121H51.456c-16.223,0-29.42-13.197-29.42-29.42v-17.619c0-1.105,0.896-2,2-2h174.619
			c1.104,0,2,0.895,2,2v17.619C200.654,230.924,187.456,244.121,171.233,244.121z M26.036,199.082v15.619
			c0,14.017,11.403,25.42,25.42,25.42h119.777c14.018,0,25.421-11.403,25.421-25.42v-15.619H26.036z"/>
	</g>
	<g>
		<polygon class="st0" points="41.745,197.082 111.345,216.404 181.22,197.082 		"/>
	</g>
	<g>
		<path class="st13" d="M143.814,110.6h-10.036c30.287,0,54.84,24.553,54.84,54.84v1.167h10.036v-1.167
			C198.654,135.153,174.101,110.6,143.814,110.6z"/>
	</g>
	<g>
		<path class="st12" d="M78.876,110.6h10.036c-30.287,0-54.84,24.553-54.84,54.84v1.167H24.036v-1.167
			C24.036,135.153,48.589,110.6,78.876,110.6z"/>
	</g>
	<g>
		<path class="st4" d="M42.845,183.052h-2.199c-9.021,0-16.335-7.313-16.335-16.335l0,0H59.18l0,0
			C59.18,175.739,51.866,183.052,42.845,183.052z"/>
	</g>
	<g>
		<path class="st4" d="M77.714,183.052h-2.199c-9.021,0-16.335-7.313-16.335-16.335l0,0h34.869l0,0
			C94.048,175.739,86.735,183.052,77.714,183.052z"/>
	</g>
	<g>
		<path class="st4" d="M112.582,183.052h-2.199c-9.021,0-16.335-7.313-16.335-16.335l0,0h34.869l0,0
			C128.917,175.739,121.604,183.052,112.582,183.052z"/>
	</g>
	<g>
		<path class="st4" d="M147.451,183.052h-2.199c-9.021,0-16.335-7.313-16.335-16.335l0,0h34.868l0,0
			C163.785,175.739,156.472,183.052,147.451,183.052z"/>
	</g>
	<g>
		<path class="st3" d="M198.654,168.607H24.036c-1.104,0-2-0.896-2-2v-1.167c0-31.342,25.499-56.841,56.84-56.841h64.937
			c31.342,0,56.841,25.499,56.841,56.841v1.167C200.654,167.712,199.759,168.607,198.654,168.607z M26.042,164.607h170.605
			c-0.445-28.755-23.975-52.008-52.834-52.008H78.876C50.017,112.6,26.488,135.852,26.042,164.607z"/>
	</g>
	<g>
		<path class="st3" d="M39.104,142.404c-0.37,0-0.744-0.102-1.079-0.317c-0.93-0.597-1.199-1.834-0.603-2.763
			c2.106-3.281,4.593-6.326,7.39-9.053c0.791-0.77,2.058-0.754,2.828,0.037c0.771,0.791,0.755,2.057-0.036,2.828
			c-2.58,2.514-4.873,5.323-6.815,8.348C40.407,142.08,39.763,142.404,39.104,142.404z"/>
	</g>
	<g>
		<path class="st3" d="M203.508,199.082H19.182C9.708,199.082,2,191.374,2,181.899c0-9.474,7.708-17.182,17.182-17.182h184.326
			c9.475,0,17.183,7.708,17.183,17.182C220.69,191.374,212.982,199.082,203.508,199.082z M19.182,168.718
			C11.914,168.718,6,174.631,6,181.899c0,7.269,5.914,13.183,13.182,13.183h184.326c7.269,0,13.183-5.914,13.183-13.183
			c0-7.268-5.914-13.182-13.183-13.182H19.182z"/>
	</g>
	<g>
		<path class="st3" d="M77.713,185.053h-2.199c-10.11,0-18.334-8.225-18.334-18.335c0-1.105,0.896-2,2-2h34.869c1.104,0,2,0.895,2,2
			C96.048,176.828,87.823,185.053,77.713,185.053z M61.319,168.718c0.976,6.961,6.97,12.335,14.195,12.335h2.199
			c7.226,0,13.22-5.374,14.196-12.335H61.319z"/>
	</g>
	<g>
		<path class="st3" d="M112.582,185.053h-2.199c-10.11,0-18.334-8.225-18.334-18.335c0-1.105,0.896-2,2-2h34.869
			c1.104,0,2,0.895,2,2C130.917,176.828,122.692,185.053,112.582,185.053z M96.187,168.718c0.976,6.961,6.97,12.335,14.195,12.335
			h2.199c7.226,0,13.22-5.374,14.196-12.335H96.187z"/>
	</g>
	<g>
		<path class="st3" d="M147.451,185.053h-2.199c-10.11,0-18.335-8.225-18.335-18.335c0-1.105,0.895-2,2-2h34.868
			c1.104,0,2,0.895,2,2C165.785,176.828,157.56,185.053,147.451,185.053z M131.056,168.718c0.977,6.961,6.971,12.335,14.196,12.335
			h2.199c7.225,0,13.219-5.374,14.195-12.335H131.056z"/>
	</g>
	<g>
		<path class="st3" d="M111.345,218.403c-0.18,0-0.36-0.024-0.535-0.073l-69.6-19.321c-0.963-0.268-1.582-1.206-1.447-2.196
			c0.135-0.991,0.981-1.73,1.982-1.73H181.22c1.001,0,1.848,0.739,1.982,1.732c0.135,0.991-0.484,1.93-1.448,2.196l-69.875,19.321
			C111.704,218.379,111.524,218.403,111.345,218.403z M56.427,199.082l54.919,15.246l55.136-15.246H56.427z"/>
	</g>
	<g>
		<path class="st4" d="M182.319,183.052h-2.199c-9.021,0-16.335-7.313-16.335-16.335l0,0h34.869l0,0
			C198.654,175.739,191.341,183.052,182.319,183.052z"/>
	</g>
	<g>
		<path class="st5" d="M188.654,166.718c0,7.675-5.3,14.095-12.434,15.846c1.252,0.307,2.553,0.488,3.9,0.488h2.199
			c9.021,0,16.335-7.313,16.335-16.335H188.654z"/>
	</g>
	<g>
		<path class="st6" d="M34.311,166.718c0,7.675,5.3,14.095,12.434,15.846c-1.252,0.307-2.554,0.488-3.9,0.488h-2.199
			c-9.021,0-16.335-7.313-16.335-16.335H34.311z"/>
	</g>
	<g>
		<path class="st3" d="M182.319,185.053h-2.199c-10.11,0-18.335-8.225-18.335-18.335c0-1.105,0.895-2,2-2h34.869
			c1.104,0,2,0.895,2,2C200.654,176.828,192.43,185.053,182.319,185.053z M165.924,168.718c0.977,6.961,6.971,12.335,14.196,12.335
			h2.199c7.226,0,13.22-5.374,14.196-12.335H165.924z"/>
	</g>
	<g>
		<path class="st3" d="M42.845,185.053h-2.2c-10.11,0-18.334-8.225-18.334-18.335c0-1.105,0.895-2,2-2H59.18c1.104,0,2,0.895,2,2
			C61.18,176.828,52.955,185.053,42.845,185.053z M26.45,168.718c0.976,6.961,6.97,12.335,14.195,12.335h2.2
			c7.225,0,13.219-5.374,14.195-12.335H26.45z"/>
	</g>
	<g>
		<path class="st0" d="M242.474,242.122h-88.831c-5.261,0-9.526-4.265-9.526-9.526v-32.01c0-5.261,4.265-9.526,9.526-9.526h88.831
			c5.261,0,9.526,4.265,9.526,9.526v32.01C252,237.856,247.735,242.122,242.474,242.122z"/>
	</g>
	<g>
		<path class="st2" d="M242.474,191.058h-7.627c5.261,0,9.527,4.265,9.527,9.527v32.01c0,5.261-4.265,9.526-9.527,9.526h7.627
			c5.261,0,9.526-4.265,9.526-9.526v-32.01C252,195.323,247.735,191.058,242.474,191.058z"/>
	</g>
	<g>
		<path class="st1" d="M153.642,242.121h7.627c-5.261,0-9.526-4.265-9.526-9.526v-32.01c0-5.262,4.265-9.527,9.526-9.527h-7.627
			c-5.261,0-9.526,4.265-9.526,9.527v32.01C144.116,237.856,148.381,242.121,153.642,242.121z"/>
	</g>
	<g>
		<path class="st3" d="M242.474,244.121h-88.831c-6.355,0-11.526-5.171-11.526-11.526v-32.01c0-6.355,5.171-11.526,11.526-11.526
			h88.831c6.355,0,11.526,5.171,11.526,11.526v32.01C254,238.95,248.829,244.121,242.474,244.121z M153.643,193.059
			c-4.15,0-7.526,3.376-7.526,7.526v32.01c0,4.15,3.376,7.526,7.526,7.526h88.831c4.15,0,7.526-3.376,7.526-7.526v-32.01
			c0-4.15-3.376-7.526-7.526-7.526H153.643z"/>
	</g>
	<g>
		<path class="st3" d="M154.984,227.838v-22.496c0-1.144,0.915-2.096,2.096-2.096h0.04c0,0,0,0,0.076,0h12.354
			c1.106,0,2.096,0.953,2.096,2.096c0,1.182-0.991,2.136-2.096,2.136h-10.333v6.976h8.884c1.144,0,2.096,0.992,2.096,2.098
			c0,1.182-0.953,2.134-2.096,2.134h-8.884v9.152c0,1.143-0.953,2.096-2.136,2.096C155.899,229.934,154.984,228.981,154.984,227.838
			z"/>
	</g>
	<g>
		<path class="st3" d="M195.696,226.77c0.382,1.106-0.229,2.287-1.335,2.669c-0.152,0.038-0.457,0.114-0.838,0.114c0,0,0,0-0.039,0
			c-0.38,0-0.953-0.076-1.486-0.42c-0.495-0.305-0.915-0.8-1.221-1.334c-0.533-1.106-0.8-2.478-0.8-4.574
			c-0.038-0.726-0.191-1.221-0.457-1.64c-0.229-0.419-0.686-0.8-1.145-1.106c-0.8-0.533-1.792-0.838-2.134-0.915h-4.498v8.275
			c0,1.143-0.954,2.096-2.136,2.096c-1.181,0-2.098-0.953-2.098-2.096v-22.496c0-1.181,0.916-2.096,2.098-2.096c0,0,0,0,0.038,0
			h6.787c4.537,0,8.158,3.659,8.158,8.197c0,2.516-1.144,4.727-2.974,6.253c0.496,0.382,0.953,0.839,1.335,1.41
			c0.763,1.106,1.259,2.517,1.259,4.118c-0.038,1.144,0.076,1.868,0.152,2.249C194.972,225.664,195.467,226.122,195.696,226.77z
			 M190.358,211.443c0-2.211-1.754-3.965-3.926-3.965h-4.689v7.854h4.689C188.604,215.331,190.358,213.577,190.358,211.443z"/>
	</g>
	<g>
		<path class="st3" d="M201.867,227.838v-22.496c0-1.181,0.915-2.096,2.096-2.096h0.039c0,0,0,0,0.076,0h12.354
			c1.106,0,2.096,0.915,2.096,2.096c0,1.182-0.99,2.136-2.096,2.136h-10.333v6.976h8.884c1.144,0,2.096,0.992,2.096,2.098
			c0,1.182-0.953,2.134-2.096,2.134h-8.884v7.016h10.333c1.106,0,2.096,0.953,2.096,2.136c0,1.143-0.99,2.096-2.096,2.096h-12.354
			c-0.076,0-0.076-0.038-0.076-0.038l-0.039,0.038C202.782,229.934,201.867,228.981,201.867,227.838z"/>
	</g>
	<g>
		<path class="st3" d="M224.471,227.838v-22.496c0-1.181,0.915-2.096,2.096-2.096h0.038c0,0,0,0,0.077,0h12.354
			c1.106,0,2.096,0.915,2.096,2.096c0,1.182-0.991,2.136-2.096,2.136h-10.333v6.976h8.883c1.144,0,2.096,0.992,2.096,2.098
			c0,1.182-0.953,2.134-2.096,2.134h-8.883v7.016h10.333c1.106,0,2.096,0.953,2.096,2.136c0,1.143-0.991,2.096-2.096,2.096h-12.354
			c-0.077,0-0.077-0.038-0.077-0.038l-0.038,0.038C225.386,229.934,224.471,228.981,224.471,227.838z"/>
	</g>
</g>
</svg>
