<?xml version="1.0" encoding="utf-8"?>
<!-- Generator: Adobe Illustrator 22.1.0, SVG Export Plug-In . SVG Version: 6.00 Build 0)  -->
<svg version="1.1" id="Layer_1" xmlns="http://www.w3.org/2000/svg" xmlns:xlink="http://www.w3.org/1999/xlink" x="0px" y="0px"
	 viewBox="0 0 256 256" style="enable-background:new 0 0 256 256;" xml:space="preserve">
<style type="text/css">
	.st0{fill:#FCC24C;}
	.st1{fill:#FCE06A;}
	.st2{fill:#DEA42E;}
	.st3{fill:#690589;}
	.st4{fill:#7BAC51;}
	.st5{fill:#5D8E33;}
	.st6{fill:#99CA6F;}
	.st7{fill:#F4EFED;}
	.st8{fill:#FF4397;}
	.st9{fill:#D6D1CF;}
	.st10{fill:#FFFFFF;}
	.st11{fill:#FF9F70;}
	.st12{fill:#FFBD8E;}
	.st13{fill:#E18152;}
	.st14{fill:#E12579;}
	.st15{fill:#FF61B5;}
</style>
<g>
	<g>
		<path class="st7" d="M126.67,96.355c-9.669-22.954-32.374-39.069-58.844-39.069h0C32.576,57.286,4,85.862,4,121.112v2.527v65.388
			c0,5.35,4.337,9.688,9.687,9.688h228.625c5.35,0,9.688-4.337,9.688-9.688v-65.388v-17.595c0-5.35-4.337-9.688-9.688-9.688H126.67z
			"/>
	</g>
	<g>
		<path class="st10" d="M13.687,121.112c0-33.662,26.065-61.218,59.11-63.634c-1.641-0.126-3.299-0.192-4.972-0.192h0
			C32.576,57.286,4,85.862,4,121.112v2.527v65.388c0,5.35,4.337,9.688,9.687,9.688h9.688c-5.35,0-9.688-4.337-9.688-9.688v-65.388
			V121.112z"/>
	</g>
	<g>
		<g>
			<path class="st9" d="M242.312,96.355h-9.688c5.35,0,9.688,4.337,9.688,9.688v17.595v65.388c0,5.35-4.337,9.688-9.688,9.688h9.688
				c5.35,0,9.688-4.337,9.688-9.688v-65.388v-17.595C252,100.693,247.663,96.355,242.312,96.355z"/>
		</g>
	</g>
	<g>
		<polygon class="st0" points="146.69,114.586 146.69,135.92 137.003,135.92 127.315,148.759 137.003,161.598 146.69,161.598 
			146.69,182.932 240.449,182.932 240.449,161.598 240.449,135.92 240.449,114.586 		"/>
	</g>
	<g>
		<circle class="st4" cx="67.825" cy="123.947" r="51.095"/>
	</g>
	<g>
		<path class="st5" d="M67.825,72.852c-1.292,0-2.569,0.064-3.838,0.159c26.424,1.965,47.257,24.01,47.257,50.937
			s-20.833,48.972-47.257,50.937c1.268,0.094,2.545,0.158,3.838,0.158c28.219,0,51.095-22.876,51.095-51.095
			S96.044,72.852,67.825,72.852z"/>
	</g>
	<g>
		<path class="st6" d="M67.825,175.042c1.293,0,2.57-0.064,3.838-0.158c-26.424-1.965-47.257-24.01-47.257-50.937
			S45.239,74.975,71.663,73.01c-1.268-0.094-2.545-0.158-3.838-0.158c-28.219,0-51.095,22.876-51.095,51.095
			C16.731,152.166,39.607,175.042,67.825,175.042z"/>
	</g>
	<g>
		<circle class="st8" cx="67.825" cy="123.947" r="37.279"/>
	</g>
	<g>
		<path class="st0" d="M94.52,149.957c6.546-6.717,10.585-15.89,10.585-26.01c0-0.095-0.007-0.188-0.007-0.283H68.355L94.52,149.957
			z"/>
	</g>
	<g>
		<path class="st0" d="M94.248,97.652c-6.751-6.784-16.096-10.984-26.423-10.984v37.279L94.248,97.652z"/>
	</g>
	<g>
		<path class="st0" d="M41.681,150.513c6.729,6.623,15.957,10.713,26.144,10.713v-37.279L41.681,150.513z"/>
	</g>
	<g>
		<path class="st0" d="M68.355,123.664L41.664,97.397c-6.798,6.699-11.034,15.987-11.111,26.267H68.355z"/>
	</g>
	<g>
		<path class="st3" d="M67.825,177.042c-29.276,0-53.095-23.818-53.095-53.095c0-29.276,23.818-53.095,53.095-53.095
			s53.095,23.818,53.095,53.095C120.92,153.224,97.102,177.042,67.825,177.042z M67.825,74.852
			c-27.071,0-49.095,22.024-49.095,49.095c0,27.071,22.023,49.095,49.095,49.095s49.095-22.024,49.095-49.095
			C116.92,96.876,94.896,74.852,67.825,74.852z"/>
	</g>
	<g>
		<circle class="st4" cx="67.826" cy="123.947" r="17.904"/>
	</g>
	<g>
		<path class="st3" d="M67.825,163.226c-21.658,0-39.279-17.621-39.279-39.279c0-21.658,17.621-39.279,39.279-39.279
			c21.658,0,39.279,17.621,39.279,39.279C107.104,145.605,89.483,163.226,67.825,163.226z M67.825,88.668
			c-19.453,0-35.279,15.826-35.279,35.279c0,19.453,15.826,35.279,35.279,35.279s35.279-15.826,35.279-35.279
			C103.104,104.494,87.278,88.668,67.825,88.668z"/>
	</g>
	<g>
		<path class="st3" d="M67.825,143.851c-10.975,0-19.903-8.929-19.903-19.904s8.929-19.904,19.903-19.904
			c10.976,0,19.904,8.929,19.904,19.904S78.801,143.851,67.825,143.851z M67.825,108.043c-8.769,0-15.903,7.134-15.903,15.904
			c0,8.769,7.134,15.904,15.903,15.904s15.904-7.135,15.904-15.904C83.729,115.177,76.595,108.043,67.825,108.043z"/>
	</g>
	<g>
		<path class="st3" d="M59.434,134.339c-0.512,0-1.023-0.195-1.414-0.586c-0.781-0.781-0.781-2.047,0-2.828l16.783-16.784
			c0.781-0.781,2.047-0.781,2.828,0c0.781,0.781,0.781,2.047,0,2.828l-16.783,16.784C60.457,134.144,59.945,134.339,59.434,134.339z
			"/>
	</g>
	<g>
		<path class="st3" d="M76.217,134.339c-0.512,0-1.023-0.195-1.414-0.586l-16.783-16.784c-0.781-0.781-0.781-2.047,0-2.828
			c0.781-0.781,2.047-0.781,2.828,0l16.783,16.784c0.781,0.781,0.781,2.047,0,2.828C77.24,134.144,76.728,134.339,76.217,134.339z"
			/>
	</g>
	<g>
		<path class="st3" d="M67.825,108.043c-1.104,0-2-0.896-2-2V86.668c0-1.104,0.896-2,2-2s2,0.896,2,2v19.375
			C69.825,107.147,68.93,108.043,67.825,108.043z"/>
	</g>
	<g>
		<path class="st3" d="M67.825,163.226c-1.104,0-2-0.896-2-2v-19.375c0-1.105,0.896-2,2-2s2,0.895,2,2v19.375
			C69.825,162.331,68.93,163.226,67.825,163.226z"/>
	</g>
	<g>
		<path class="st3" d="M105.104,125.947H85.729c-1.104,0-2-0.896-2-2s0.896-2,2-2h19.375c1.105,0,2,0.896,2,2
			S106.209,125.947,105.104,125.947z"/>
	</g>
	<g>
		<path class="st3" d="M49.922,125.947H30.546c-1.104,0-2-0.896-2-2s0.896-2,2-2h19.376c1.104,0,2,0.896,2,2
			S51.026,125.947,49.922,125.947z"/>
	</g>
	<g>
		<path class="st3" d="M55.166,113.287c-0.512,0-1.023-0.195-1.414-0.586L40.051,99.001c-0.781-0.781-0.781-2.047,0-2.828
			c0.781-0.781,2.047-0.781,2.828,0l13.701,13.701c0.781,0.781,0.781,2.047,0,2.828C56.189,113.092,55.678,113.287,55.166,113.287z"
			/>
	</g>
	<g>
		<path class="st3" d="M94.185,152.308c-0.512,0-1.023-0.195-1.414-0.586l-13.7-13.701c-0.781-0.781-0.781-2.047,0-2.828
			c0.781-0.781,2.047-0.781,2.828,0l13.7,13.701c0.781,0.781,0.781,2.047,0,2.828C95.209,152.112,94.697,152.308,94.185,152.308z"/>
	</g>
	<g>
		<path class="st3" d="M80.485,113.287c-0.512,0-1.023-0.195-1.414-0.586c-0.781-0.781-0.781-2.047,0-2.828l13.7-13.701
			c0.781-0.781,2.047-0.781,2.828,0c0.781,0.781,0.781,2.047,0,2.828l-13.7,13.701C81.509,113.092,80.997,113.287,80.485,113.287z"
			/>
	</g>
	<g>
		<path class="st3" d="M41.465,152.308c-0.512,0-1.023-0.195-1.414-0.586c-0.781-0.781-0.781-2.047,0-2.828l13.701-13.701
			c0.781-0.781,2.047-0.781,2.828,0c0.781,0.781,0.781,2.047,0,2.828l-13.701,13.701C42.488,152.112,41.977,152.308,41.465,152.308z
			"/>
	</g>
	<g>
		<path class="st0" d="M64.704,127.069c-1.724-1.724-1.724-4.519,0-6.243c1.724-1.724,4.519-1.724,6.243,0
			c1.724,1.724,1.724,4.519,0,6.243C69.223,128.793,66.428,128.793,64.704,127.069z"/>
	</g>
	<g>
		<path class="st3" d="M67.826,130.362c-1.714,0-3.325-0.667-4.536-1.878l0,0v-0.001l0,0c-1.212-1.211-1.879-2.822-1.879-4.536
			c0-1.714,0.667-3.325,1.879-4.537c1.211-1.211,2.822-1.878,4.536-1.878c1.713,0,3.324,0.667,4.535,1.879
			c2.501,2.501,2.501,6.571,0,9.072C71.15,129.695,69.539,130.362,67.826,130.362z M67.826,121.532
			c-0.646,0-1.252,0.251-1.708,0.707c-0.456,0.456-0.707,1.063-0.707,1.708c0,0.644,0.251,1.251,0.707,1.707
			c0,0.001,0,0.001,0,0.001c0.912,0.912,2.503,0.913,3.415,0c0.941-0.941,0.941-2.474,0-3.415
			C69.077,121.783,68.471,121.532,67.826,121.532z"/>
	</g>
	<g>
		<path class="st3" d="M242.312,200.713H13.687C7.243,200.713,2,195.47,2,189.026v-67.914c0-36.296,29.529-65.825,65.825-65.825
			c26.11,0,49.578,15.291,60.158,39.069h114.329c6.444,0,11.688,5.243,11.688,11.688v82.983
			C254,195.47,248.757,200.713,242.312,200.713z M67.825,59.287C33.734,59.287,6,87.021,6,121.112v67.914
			c0,4.239,3.448,7.688,7.687,7.688h228.625c4.239,0,7.688-3.449,7.688-7.688v-82.983c0-4.239-3.448-7.688-7.688-7.688H126.67
			c-0.805,0-1.531-0.482-1.843-1.224C115.143,74.142,92.769,59.287,67.825,59.287z"/>
	</g>
	<g>
		<path class="st3" d="M11.75,169.817c-1.105,0-2-0.895-2-2v-12c0-1.104,0.895-2,2-2c1.104,0,2,0.896,2,2v12
			C13.75,168.922,12.854,169.817,11.75,169.817z"/>
	</g>
	<g>
		<path class="st3" d="M240.449,184.932H146.69c-1.104,0-2-0.895-2-2v-68.345c0-1.104,0.896-2,2-2h93.759c1.104,0,2,0.896,2,2
			v68.345C242.449,184.036,241.554,184.932,240.449,184.932z M148.69,180.932h89.759v-64.345H148.69V180.932z"/>
	</g>
	<g>
		<path class="st3" d="M240.449,163.598H137.003c-0.628,0-1.219-0.294-1.597-0.795l-9.687-12.839c-0.538-0.713-0.538-1.696,0-2.409
			l9.687-12.839c0.378-0.501,0.969-0.795,1.597-0.795h103.446c1.104,0,2,0.895,2,2v25.678
			C242.449,162.703,241.554,163.598,240.449,163.598z M137.999,159.598h100.45V137.92h-100.45l-8.178,10.839L137.999,159.598z"/>
	</g>
	<g>
		<path class="st3" d="M177.102,184.932c-1.104,0-2-0.895-2-2v-68.345c0-1.104,0.896-2,2-2c1.105,0,2,0.896,2,2v68.345
			C179.102,184.036,178.206,184.932,177.102,184.932z"/>
	</g>
	<g>
		<path class="st3" d="M210.038,184.932c-1.105,0-2-0.895-2-2v-68.345c0-1.104,0.895-2,2-2c1.104,0,2,0.896,2,2v68.345
			C212.038,184.036,211.143,184.932,210.038,184.932z"/>
	</g>
</g>
</svg>
