<?xml version="1.0" encoding="utf-8"?>
<!-- Generator: Adobe Illustrator 22.1.0, SVG Export Plug-In . SVG Version: 6.00 Build 0)  -->
<svg version="1.1" id="Layer_1" xmlns="http://www.w3.org/2000/svg" xmlns:xlink="http://www.w3.org/1999/xlink" x="0px" y="0px"
	 viewBox="0 0 256 256" style="enable-background:new 0 0 256 256;" xml:space="preserve">
<style type="text/css">
	.st0{fill:#FCC24C;}
	.st1{fill:#FCE06A;}
	.st2{fill:#DEA42E;}
	.st3{fill:#690589;}
	.st4{fill:#7BAC51;}
	.st5{fill:#5D8E33;}
	.st6{fill:#99CA6F;}
	.st7{fill:#F4EFED;}
	.st8{fill:#FF4397;}
	.st9{fill:#D6D1CF;}
	.st10{fill:#FFFFFF;}
	.st11{fill:#FF9F70;}
	.st12{fill:#FFBD8E;}
	.st13{fill:#E18152;}
	.st14{fill:#E12579;}
	.st15{fill:#FF61B5;}
</style>
<g>
	<g>
		<path class="st0" d="M168.892,90.447l-1.605,1.605c-31.339-22.018-79.45-14.897-112.833,18.487S13.95,192.033,35.968,223.372
			l-1.605,1.605c-4.416,4.416-4.416,11.575,0,15.991s11.575,4.416,15.991,0l1.605-1.605c31.339,22.018,79.45,14.897,112.833-18.487
			s40.504-81.494,18.487-112.833l1.605-1.605c4.416-4.416,4.416-11.575,0-15.991C180.468,86.031,173.308,86.031,168.892,90.447z"/>
	</g>
	<g>
		<g>
			<path class="st2" d="M185.848,112.034c11.385,31.728,1.411,72.233-28.127,101.771S87.678,253.316,55.95,241.932
				c31.321,18.794,76.842,10.944,108.842-21.056C196.792,188.876,204.643,143.354,185.848,112.034z"/>
		</g>
	</g>
	<g>
		<g>
			<path class="st1" d="M163.297,89.483c-31.729-11.385-72.233-1.411-101.771,28.127c-29.538,29.538-39.511,70.043-28.127,101.771
				c-18.794-31.321-10.944-76.842,21.056-108.842S131.976,70.688,163.297,89.483z"/>
		</g>
	</g>
	<g>
		<path class="st3" d="M93.854,253.999c-15.35,0-29.751-4.124-41.653-12.049l-0.431,0.432c-5.189,5.187-13.631,5.188-18.82,0
			c-2.514-2.514-3.897-5.855-3.897-9.409c0-3.555,1.384-6.896,3.897-9.41l0.431-0.432c-10.309-15.483-14.186-35.197-10.919-55.724
			c3.38-21.245,14.24-41.943,30.58-58.282c16.339-16.34,37.037-27.2,58.283-30.58c20.521-3.27,40.239,0.61,55.723,10.919
			l0.432-0.431c2.514-2.514,5.855-3.898,9.41-3.898c3.554,0,6.895,1.384,9.409,3.898c5.188,5.188,5.188,13.631,0,18.819
			l-0.432,0.432c10.31,15.483,14.186,35.196,10.92,55.723c-3.38,21.245-14.24,41.943-30.58,58.283
			c-16.34,16.34-37.038,27.2-58.283,30.58C103.176,253.625,98.472,253.999,93.854,253.999z M51.96,237.362
			c0.399,0,0.802,0.119,1.148,0.363c14.829,10.419,34.072,14.392,54.186,11.194c20.419-3.249,40.336-13.711,56.084-29.458
			c15.747-15.748,26.209-35.665,29.458-56.084c3.2-20.112-0.775-39.356-11.194-54.186c-0.559-0.795-0.465-1.877,0.223-2.564
			l1.605-1.604c3.628-3.628,3.628-9.533,0-13.162c-3.629-3.629-9.534-3.628-13.163,0l-1.604,1.604
			c-0.687,0.687-1.77,0.782-2.563,0.223c-14.83-10.418-34.071-14.397-54.187-11.193c-20.418,3.249-40.336,13.711-56.083,29.458
			C40.122,127.7,29.66,147.617,26.411,168.036c-3.2,20.113,0.774,39.356,11.193,54.187c0.559,0.795,0.465,1.877-0.223,2.563
			l-1.604,1.604c-3.629,3.629-3.629,9.534,0,13.163c3.631,3.629,9.536,3.629,13.163,0l1.604-1.605
			C50.932,237.561,51.443,237.362,51.96,237.362z"/>
	</g>
	<g>
		<path class="st3" d="M45.477,137.382c-0.351,0-0.706-0.092-1.028-0.286c-0.947-0.569-1.253-1.798-0.684-2.744
			c1.838-3.058,3.89-6.051,6.1-8.896c0.679-0.873,1.937-1.03,2.807-0.354c0.872,0.678,1.03,1.935,0.354,2.807
			c-2.113,2.722-4.075,5.582-5.832,8.504C46.817,137.036,46.155,137.382,45.477,137.382z"/>
	</g>
	<g>
		<path class="st4" d="M118.053,58.825c0,23.432,12.738,43.876,31.658,54.825c18.92-10.949,31.659-31.393,31.659-54.825
			c0-23.432-12.739-43.876-31.659-54.825C130.791,14.949,118.053,35.393,118.053,58.825z"/>
	</g>
	<g>
		<path class="st6" d="M125.124,64.547c0-23.708,12.731-44.424,31.717-55.742c-2.261-1.755-4.64-3.364-7.13-4.805
			c-18.92,10.949-31.658,31.393-31.658,54.825c0,20.427,9.682,38.58,24.698,50.155C131.824,97.374,125.124,81.747,125.124,64.547z"
			/>
	</g>
	<g>
		<path class="st3" d="M149.711,115.65c-0.346,0-0.691-0.09-1.002-0.269c-20.143-11.656-32.656-33.327-32.656-56.557
			c0-23.228,12.514-44.899,32.656-56.557c0.619-0.357,1.385-0.357,2.004,0c20.143,11.658,32.657,33.329,32.657,56.557
			c0,23.229-12.514,44.899-32.657,56.557C150.402,115.561,150.057,115.65,149.711,115.65z M149.711,6.323
			c-18.324,11.076-29.658,31.084-29.658,52.502c0,21.419,11.334,41.427,29.658,52.502c18.325-11.075,29.659-31.083,29.659-52.502
			C179.37,37.407,168.036,17.399,149.711,6.323z"/>
	</g>
	<g>
		<path class="st4" d="M166.016,52.471c-16.569,16.569-22.018,40.033-16.382,61.153c21.121,5.636,44.585,0.188,61.154-16.381
			c16.569-16.569,22.017-40.033,16.381-61.154C206.049,30.454,182.586,35.902,166.016,52.471z"/>
	</g>
	<g>
		<path class="st5" d="M227.17,36.09c-0.26-0.069-0.522-0.129-0.782-0.195c0.49,19.844-6.819,39.841-21.963,54.985
			c-15.144,15.145-35.141,22.453-54.985,21.963c0.066,0.261,0.126,0.522,0.195,0.782c21.121,5.636,44.585,0.188,61.154-16.381
			C227.357,80.674,232.806,57.21,227.17,36.09z"/>
	</g>
	<g>
		<path class="st3" d="M165.925,117.758c-5.61,0-11.258-0.721-16.806-2.201c-0.691-0.185-1.232-0.726-1.417-1.417
			c-6-22.486,0.476-46.658,16.9-63.082c16.426-16.426,40.602-22.901,63.083-16.9c0.691,0.185,1.232,0.726,1.417,1.417
			c6,22.486-0.475,46.658-16.9,63.083C199.83,111.03,183.059,117.757,165.925,117.758z M151.277,111.981
			c20.789,5.124,42.952-1.007,58.097-16.152c15.145-15.145,21.278-37.307,16.153-58.097c-20.793-5.126-42.952,1.008-58.097,16.153
			l0,0C152.286,69.03,146.152,91.191,151.277,111.981z M166.017,52.472h0.01H166.017z"/>
	</g>
	<g>
		<path class="st7" d="M232.669,184.602c0,37.223-30.175,67.398-67.398,67.398c-37.223,0-67.398-30.175-67.398-67.398H232.669z"/>
	</g>
	<g>
		<path class="st9" d="M221.364,184.602c0,35.318-27.17,64.271-61.746,67.145c1.866,0.155,3.747,0.254,5.653,0.254
			c37.223,0,67.398-30.175,67.398-67.398H221.364z"/>
	</g>
	<g>
		<path class="st0" d="M222.086,184.602c0,31.378-25.437,56.815-56.815,56.815s-56.815-25.437-56.815-56.815H222.086z"/>
	</g>
	<g>
		<path class="st2" d="M210.781,184.602c0,29.47-22.439,53.696-51.163,56.534c1.86,0.184,3.745,0.282,5.653,0.282
			c31.378,0,56.815-25.437,56.815-56.816H210.781z"/>
	</g>
	<g>
		<path class="st3" d="M165.271,254c-38.267,0-69.398-31.132-69.398-69.398c0-1.104,0.896-2,2-2h134.796c1.105,0,2,0.896,2,2
			C234.669,222.868,203.537,254,165.271,254z M99.903,186.602C100.964,221.741,129.88,250,165.271,250s64.307-28.259,65.367-63.398
			H99.903z"/>
	</g>
	<g>
		<path class="st3" d="M165.271,243.417c-13.19,0-25.666-4.281-36.077-12.381c-0.871-0.678-1.028-1.934-0.351-2.805l34.849-44.856
			c0.379-0.488,0.962-0.773,1.579-0.773l0,0c0.617,0,1.2,0.285,1.579,0.773l34.848,44.856c0.678,0.871,0.521,2.127-0.35,2.805
			C190.936,239.136,178.462,243.417,165.271,243.417z M133.25,229.079c9.369,6.77,20.398,10.338,32.021,10.338
			s22.651-3.568,32.021-10.338l-32.021-41.218L133.25,229.079z"/>
	</g>
	<g>
		<path class="st3" d="M165.271,243.417c-32.431,0-58.815-26.385-58.815-58.815c0-1.104,0.896-2,2-2h113.63c1.104,0,2,0.896,2,2
			C224.086,217.032,197.702,243.417,165.271,243.417z M110.492,186.602c1.057,29.303,25.224,52.815,54.779,52.815
			c29.555,0,53.722-23.513,54.778-52.815H110.492z"/>
	</g>
</g>
</svg>
