<?xml version="1.0" encoding="utf-8"?>
<!-- Generator: Adobe Illustrator 22.1.0, SVG Export Plug-In . SVG Version: 6.00 Build 0)  -->
<svg version="1.1" id="Layer_1" xmlns="http://www.w3.org/2000/svg" xmlns:xlink="http://www.w3.org/1999/xlink" x="0px" y="0px"
	 viewBox="0 0 256 256" style="enable-background:new 0 0 256 256;" xml:space="preserve">
<style type="text/css">
	.st0{fill:#FCC24C;}
	.st1{fill:#FCE06A;}
	.st2{fill:#DEA42E;}
	.st3{fill:#690589;}
	.st4{fill:#7BAC51;}
	.st5{fill:#5D8E33;}
	.st6{fill:#99CA6F;}
	.st7{fill:#F4EFED;}
	.st8{fill:#FF4397;}
	.st9{fill:#D6D1CF;}
	.st10{fill:#FFFFFF;}
	.st11{fill:#FF9F70;}
	.st12{fill:#FFBD8E;}
	.st13{fill:#E18152;}
	.st14{fill:#E12579;}
	.st15{fill:#FF61B5;}
</style>
<g>
	<g>
		<path class="st3" d="M95.437,47.872c-0.782,0-1.525-0.462-1.846-1.229c-0.427-1.019,0.053-2.191,1.072-2.617l20.965-8.779
			c1.019-0.427,2.191,0.054,2.617,1.072c0.427,1.019-0.053,2.19-1.072,2.617l-20.965,8.779
			C95.956,47.821,95.694,47.872,95.437,47.872z"/>
	</g>
	<g>
		<g>
			<path class="st8" d="M108.018,78.925c-2.402,0-4.665-1.463-5.57-3.841L82.343,22.269c-1.171-3.075,0.373-6.518,3.449-7.689
				c3.078-1.171,6.518,0.373,7.689,3.449l20.105,52.816c1.171,3.075-0.373,6.518-3.449,7.689
				C109.44,78.799,108.723,78.925,108.018,78.925z"/>
		</g>
	</g>
	<g>
		<g>
			<path class="st3" d="M108.019,80.925c-3.282,0-6.271-2.06-7.439-5.128L80.474,22.98c-0.756-1.987-0.693-4.149,0.177-6.089
				c0.87-1.94,2.444-3.425,4.431-4.181c4.099-1.562,8.707,0.505,10.269,4.606l20.105,52.816c0.756,1.987,0.693,4.149-0.177,6.089
				c-0.87,1.94-2.443,3.425-4.43,4.181C109.938,80.749,108.986,80.925,108.019,80.925z M87.908,16.19
				c-0.467,0-0.942,0.083-1.404,0.259c-0.988,0.376-1.77,1.114-2.203,2.079c-0.433,0.965-0.464,2.041-0.088,3.029l20.105,52.815
				c0.581,1.526,2.068,2.552,3.701,2.552c0.479,0,0.953-0.088,1.408-0.261c0.988-0.376,1.77-1.114,2.203-2.079
				c0.433-0.965,0.464-2.041,0.088-3.029L91.612,18.74C91.012,17.162,89.504,16.19,87.908,16.19z"/>
		</g>
	</g>
	<g>
		<circle class="st0" cx="108.017" cy="155.018" r="96.982"/>
	</g>
	<g>
		<path class="st2" d="M108.017,58.036c-1.665,0-3.321,0.042-4.966,0.125c51.254,2.585,92.017,44.96,92.017,96.857
			s-40.762,94.272-92.017,96.857c1.645,0.083,3.3,0.125,4.966,0.125C161.579,252,205,208.58,205,155.018
			S161.579,58.036,108.017,58.036z"/>
	</g>
	<g>
		<path class="st1" d="M108.017,252c1.665,0,3.321-0.042,4.966-0.125c-51.254-2.585-92.017-44.96-92.017-96.857
			s40.762-94.272,92.017-96.857c-1.645-0.083-3.3-0.125-4.966-0.125c-53.562,0-96.982,43.42-96.982,96.982S54.456,252,108.017,252z"
			/>
	</g>
	<g>
		<path class="st3" d="M108.018,254c-54.579,0-98.982-44.403-98.982-98.982s44.403-98.982,98.982-98.982
			c54.579,0,98.982,44.403,98.982,98.982S162.596,254,108.018,254z M108.018,60.035c-52.374,0-94.982,42.609-94.982,94.982
			c0,52.373,42.609,94.982,94.982,94.982c52.373,0,94.982-42.609,94.982-94.982C202.999,102.645,160.391,60.035,108.018,60.035z"/>
	</g>
	<g>
		<path class="st3" d="M31.588,112.779c-0.334,0-0.672-0.083-0.983-0.26c-0.961-0.544-1.299-1.765-0.755-2.726
			c2.422-4.277,5.112-8.47,7.996-12.461c0.648-0.896,1.898-1.095,2.792-0.449c0.896,0.648,1.097,1.898,0.45,2.793
			c-2.798,3.871-5.408,7.938-7.758,12.088C32.963,112.415,32.286,112.779,31.588,112.779z"/>
	</g>
	<g>
		<path class="st0" d="M244.965,180.933c0,39.249-31.818,71.067-71.067,71.067c-39.249,0-71.067-31.818-71.067-71.067H244.965z"/>
	</g>
	<g>
		<path class="st2" d="M233.044,180.933c0,37.24-28.649,67.769-65.106,70.799c1.967,0.164,3.951,0.268,5.96,0.268
			c39.249,0,71.067-31.818,71.067-71.067H233.044z"/>
	</g>
	<g>
		<path class="st7" d="M233.806,180.933c0,33.086-26.822,59.908-59.908,59.908c-33.086,0-59.908-26.822-59.908-59.908H233.806z"/>
	</g>
	<g>
		<path class="st9" d="M221.885,180.933c0,31.074-23.66,56.619-53.947,59.611c1.961,0.194,3.949,0.297,5.96,0.297
			c33.086,0,59.908-26.822,59.908-59.908H221.885z"/>
	</g>
	<g>
		<path class="st3" d="M173.898,254c-40.289,0-73.067-32.777-73.067-73.066c0-1.104,0.896-2,2-2h142.133c1.104,0,2,0.896,2,2
			C246.965,221.223,214.188,254,173.898,254z M104.86,182.934C105.923,220.095,136.484,250,173.898,250
			c37.414,0,67.975-29.905,69.038-67.066H104.86z"/>
	</g>
	<g>
		<path class="st3" d="M173.898,242.841c-13.885,0-27.016-4.506-37.973-13.031c-0.872-0.678-1.029-1.934-0.352-2.805l36.745-47.299
			c0.758-0.977,2.401-0.977,3.159,0l36.745,47.299c0.677,0.871,0.52,2.127-0.352,2.805
			C200.914,238.335,187.783,242.841,173.898,242.841z M139.98,227.854c9.916,7.195,21.601,10.987,33.919,10.987
			c12.318,0,24.002-3.792,33.918-10.987l-33.918-43.661L139.98,227.854z"/>
	</g>
	<g>
		<path class="st3" d="M173.898,242.841c-34.136,0-61.908-27.771-61.908-61.907c0-1.104,0.896-2,2-2h119.815c1.105,0,2,0.896,2,2
			C235.806,215.069,208.034,242.841,173.898,242.841z M116.025,182.934c1.056,31.009,26.612,55.907,57.874,55.907
			c31.262,0,56.817-24.898,57.873-55.907H116.025z"/>
	</g>
	<g>
		
			<ellipse transform="matrix(0.9318 -0.363 0.363 0.9318 -0.2114 53.7121)" class="st4" cx="142.827" cy="27.419" rx="37.952" ry="21.915"/>
	</g>
	<g>
		<path class="st5" d="M146.266,4.236c8.406,0.863,16.406,4.143,22.986,9.407c-2.309,14.955-12.295,28.308-27.409,34.195
			c-3.749,1.461-7.577,2.367-11.393,2.763c6.689,0.687,13.634-0.154,20.331-2.763c15.115-5.887,25.1-19.241,27.409-34.195
			C169.305,6.535,157.835,3.033,146.266,4.236z"/>
	</g>
	<g>
		<path class="st3" d="M134.943,52.807c-10.28,0-20.47-3.444-28.729-10.051c-0.559-0.447-0.836-1.159-0.727-1.867
			c2.492-16.138,13.474-29.839,28.659-35.754c15.186-5.918,32.542-3.255,45.294,6.946c0.559,0.447,0.837,1.159,0.727,1.867
			c-2.492,16.138-13.474,29.839-28.66,35.754C146.156,51.787,140.536,52.807,134.943,52.807z M109.634,40.349
			c11.546,8.718,26.923,10.885,40.421,5.627c13.498-5.259,23.357-17.256,25.964-31.487c-11.547-8.718-26.924-10.885-40.421-5.627
			C122.1,14.12,112.241,26.117,109.634,40.349z"/>
	</g>
</g>
</svg>
