<?xml version="1.0" encoding="utf-8"?>
<!-- Generator: Adobe Illustrator 22.1.0, SVG Export Plug-In . SVG Version: 6.00 Build 0)  -->
<svg version="1.1" id="Layer_1" xmlns="http://www.w3.org/2000/svg" xmlns:xlink="http://www.w3.org/1999/xlink" x="0px" y="0px"
	 viewBox="0 0 256 256" style="enable-background:new 0 0 256 256;" xml:space="preserve">
<style type="text/css">
	.st0{fill:#FCC24C;}
	.st1{fill:#FCE06A;}
	.st2{fill:#DEA42E;}
	.st3{fill:#690589;}
	.st4{fill:#7BAC51;}
	.st5{fill:#5D8E33;}
	.st6{fill:#99CA6F;}
	.st7{fill:#F4EFED;}
	.st8{fill:#FF4397;}
	.st9{fill:#D6D1CF;}
	.st10{fill:#FFFFFF;}
	.st11{fill:#FF9F70;}
	.st12{fill:#FFBD8E;}
	.st13{fill:#E18152;}
	.st14{fill:#E12579;}
	.st15{fill:#FF61B5;}
</style>
<g>
	<g>
		<path class="st7" d="M115.514,119.676H43.858c-2.299,0-4.162-1.863-4.162-4.162V8.162C39.696,5.863,41.56,4,43.858,4h71.656
			c2.299,0,4.162,1.863,4.162,4.162v107.352C119.676,117.813,117.813,119.676,115.514,119.676z"/>
	</g>
	<g>
		<path class="st9" d="M115.514,4h-6.659c2.299,0,4.162,1.863,4.162,4.162v107.352c0,2.299-1.863,4.162-4.162,4.162h6.659
			c2.299,0,4.162-1.863,4.162-4.162V8.162C119.676,5.863,117.813,4,115.514,4z"/>
	</g>
	<g>
		<path class="st10" d="M43.858,119.676h6.659c-2.299,0-4.162-1.863-4.162-4.162V8.162C46.355,5.863,48.219,4,50.517,4h-6.659
			c-2.299,0-4.162,1.863-4.162,4.162v107.352C39.696,117.813,41.56,119.676,43.858,119.676z"/>
	</g>
	<g>
		<path class="st4" d="M85.861,80.054l-2.433-7.907c4.045,2.234,9.232,1.645,12.663-1.786l0,0c4.155-4.155,4.155-10.893,0-15.048
			L79.686,38.908L63.282,55.313c-4.155,4.155-4.155,10.892,0,15.048c3.431,3.431,8.618,4.021,12.663,1.786l-2.433,7.907H85.861z"/>
	</g>
	<g>
		<path class="st3" d="M85.861,82.054H73.512c-0.635,0-1.232-0.301-1.609-0.812c-0.377-0.51-0.489-1.169-0.303-1.776l1.284-4.173
			c-3.94,0.651-8.09-0.591-11.016-3.518c-2.388-2.388-3.703-5.562-3.703-8.938c0-3.376,1.315-6.551,3.703-8.938l16.404-16.405
			c0.75-0.75,2.078-0.75,2.828,0l16.405,16.405c4.928,4.928,4.928,12.947,0,17.876c-2.927,2.927-7.075,4.165-11.017,3.518
			l1.284,4.172c0.187,0.607,0.074,1.266-0.303,1.776C87.093,81.752,86.496,82.054,85.861,82.054z M76.22,78.054h6.933l-1.637-5.318
			c-0.24-0.779,0.018-1.626,0.65-2.141c0.632-0.514,1.514-0.594,2.229-0.198c3.349,1.851,7.577,1.254,10.282-1.45
			c3.369-3.369,3.369-8.851,0-12.219l-14.991-14.99l-14.99,14.99c-1.632,1.632-2.531,3.802-2.531,6.11
			c0,2.308,0.899,4.478,2.531,6.11c2.704,2.703,6.931,3.3,10.281,1.45c0.715-0.395,1.595-0.316,2.229,0.198
			c0.633,0.514,0.89,1.361,0.65,2.14L76.22,78.054z"/>
	</g>
	<g>
		<path class="st3" d="M115.514,121.676H43.858c-3.398,0-6.162-2.764-6.162-6.162V8.162C37.696,4.764,40.46,2,43.858,2h71.656
			c3.398,0,6.162,2.764,6.162,6.162v107.352C121.676,118.912,118.912,121.676,115.514,121.676z M43.858,6
			c-1.192,0-2.162,0.97-2.162,2.162v107.352c0,1.192,0.97,2.162,2.162,2.162h71.656c1.192,0,2.162-0.97,2.162-2.162V8.162
			c0-1.192-0.97-2.162-2.162-2.162H43.858z"/>
	</g>
	<g>
		<path class="st3" d="M47.696,48.672c-1.104,0-2-0.896-2-2v-12c0-1.104,0.896-2,2-2s2,0.896,2,2v12
			C49.696,47.776,48.801,48.672,47.696,48.672z"/>
	</g>
	<g>
		<g>
			<path class="st3" d="M52.489,19.295h-4.51l-0.909,2.413c-0.167,0.409-0.557,0.65-0.965,0.65c-0.131,0-0.242-0.019-0.353-0.056
				c-0.538-0.204-0.799-0.798-0.613-1.337l4.102-10.933c0.167-0.408,0.576-0.668,0.984-0.65c0.427-0.019,0.817,0.241,0.984,0.65
				l4.103,10.933c0.185,0.538-0.075,1.132-0.613,1.337c-0.093,0.037-0.222,0.056-0.353,0.056c-0.408,0-0.798-0.241-0.947-0.65
				L52.489,19.295z M51.728,17.254l-1.503-3.991l-1.503,3.991H51.728z"/>
		</g>
	</g>
	<g>
		<g>
			<path class="st3" d="M106.883,105.021h4.511l0.909-2.413c0.167-0.409,0.557-0.65,0.965-0.65c0.13,0,0.242,0.019,0.353,0.056
				c0.538,0.204,0.799,0.798,0.613,1.337l-4.102,10.933c-0.167,0.408-0.576,0.668-0.984,0.65c-0.427,0.019-0.817-0.241-0.984-0.65
				l-4.103-10.933c-0.185-0.538,0.075-1.132,0.613-1.337c0.092-0.037,0.222-0.056,0.353-0.056c0.409,0,0.798,0.241,0.947,0.65
				L106.883,105.021z M107.645,107.063l1.503,3.991l1.503-3.991H107.645z"/>
		</g>
	</g>
	<g>
		<path class="st7" d="M115.514,252H43.858c-2.299,0-4.162-1.863-4.162-4.162V140.486c0-2.299,1.863-4.162,4.162-4.162h71.656
			c2.299,0,4.162,1.863,4.162,4.162v107.352C119.676,250.137,117.813,252,115.514,252z"/>
	</g>
	<g>
		<path class="st9" d="M115.514,136.324h-6.659c2.299,0,4.162,1.863,4.162,4.162v107.352c0,2.299-1.863,4.162-4.162,4.162h6.659
			c2.299,0,4.162-1.863,4.162-4.162V140.486C119.676,138.187,117.813,136.324,115.514,136.324z"/>
	</g>
	<g>
		<path class="st10" d="M43.858,252h6.659c-2.299,0-4.162-1.863-4.162-4.162V140.486c0-2.299,1.863-4.162,4.162-4.162h-6.659
			c-2.299,0-4.162,1.863-4.162,4.162v107.352C39.696,250.137,41.56,252,43.858,252z"/>
	</g>
	<g>
		<path class="st3" d="M115.514,254H43.858c-3.398,0-6.162-2.764-6.162-6.162V140.486c0-3.398,2.764-6.162,6.162-6.162h71.656
			c3.398,0,6.162,2.764,6.162,6.162v107.352C121.676,251.236,118.912,254,115.514,254z M43.858,138.324
			c-1.192,0-2.162,0.97-2.162,2.162v107.352c0,1.192,0.97,2.162,2.162,2.162h71.656c1.192,0,2.162-0.97,2.162-2.162V140.486
			c0-1.192-0.97-2.162-2.162-2.162H43.858z"/>
	</g>
	<g>
		<g>
			<path class="st3" d="M52.489,151.619h-4.51l-0.909,2.413c-0.167,0.408-0.557,0.65-0.965,0.65c-0.131,0-0.242-0.019-0.353-0.056
				c-0.538-0.204-0.799-0.798-0.613-1.337l4.102-10.933c0.167-0.408,0.576-0.668,0.984-0.65c0.427-0.019,0.817,0.241,0.984,0.65
				l4.103,10.933c0.185,0.538-0.075,1.132-0.613,1.337c-0.093,0.037-0.222,0.056-0.353,0.056c-0.408,0-0.798-0.241-0.947-0.65
				L52.489,151.619z M51.728,149.577l-1.503-3.991l-1.503,3.991H51.728z"/>
		</g>
	</g>
	<g>
		<g>
			<path class="st3" d="M106.883,237.345h4.511l0.909-2.413c0.167-0.409,0.557-0.65,0.965-0.65c0.13,0,0.242,0.019,0.353,0.056
				c0.538,0.204,0.799,0.798,0.613,1.337l-4.102,10.933c-0.167,0.408-0.576,0.668-0.984,0.65c-0.427,0.019-0.817-0.241-0.984-0.65
				l-4.103-10.933c-0.185-0.538,0.075-1.132,0.613-1.337c0.092-0.037,0.222-0.056,0.353-0.056c0.409,0,0.798,0.241,0.947,0.65
				L106.883,237.345z M107.645,239.387l1.503,3.991l1.503-3.991H107.645z"/>
		</g>
	</g>
	<g>
		<path class="st7" d="M212.142,252h-71.656c-2.299,0-4.162-1.863-4.162-4.162V140.486c0-2.299,1.863-4.162,4.162-4.162h71.656
			c2.299,0,4.162,1.863,4.162,4.162v107.352C216.304,250.137,214.44,252,212.142,252z"/>
	</g>
	<g>
		<path class="st9" d="M212.142,136.324h-6.659c2.299,0,4.162,1.863,4.162,4.162v107.352c0,2.299-1.863,4.162-4.162,4.162h6.659
			c2.299,0,4.162-1.863,4.162-4.162V140.486C216.304,138.187,214.44,136.324,212.142,136.324z"/>
	</g>
	<g>
		<path class="st10" d="M140.486,252h6.659c-2.299,0-4.162-1.863-4.162-4.162V140.486c0-2.299,1.863-4.162,4.162-4.162h-6.659
			c-2.299,0-4.162,1.863-4.162,4.162v107.352C136.324,250.137,138.187,252,140.486,252z"/>
	</g>
	<g>
		<path class="st3" d="M212.142,254h-71.656c-3.398,0-6.161-2.764-6.161-6.162V140.486c0-3.398,2.764-6.162,6.161-6.162h71.656
			c3.397,0,6.162,2.764,6.162,6.162v107.352C218.304,251.236,215.539,254,212.142,254z M140.485,138.324
			c-1.191,0-2.161,0.97-2.161,2.162v107.352c0,1.192,0.97,2.162,2.161,2.162h71.656c1.192,0,2.162-0.97,2.162-2.162V140.486
			c0-1.192-0.97-2.162-2.162-2.162H140.485z"/>
	</g>
	<g>
		<g>
			<path class="st3" d="M149.116,151.619h-4.51l-0.909,2.413c-0.167,0.408-0.557,0.65-0.965,0.65c-0.13,0-0.242-0.019-0.353-0.056
				c-0.538-0.204-0.798-0.798-0.613-1.337l4.102-10.933c0.167-0.408,0.576-0.668,0.984-0.65c0.427-0.019,0.817,0.241,0.983,0.65
				l4.103,10.933c0.185,0.538-0.075,1.132-0.613,1.337c-0.092,0.037-0.222,0.056-0.353,0.056c-0.408,0-0.798-0.241-0.947-0.65
				L149.116,151.619z M148.355,149.577l-1.503-3.991l-1.503,3.991H148.355z"/>
		</g>
	</g>
	<g>
		<g>
			<path class="st3" d="M203.511,237.345h4.51l0.909-2.413c0.167-0.409,0.557-0.65,0.965-0.65c0.13,0,0.242,0.019,0.353,0.056
				c0.538,0.204,0.798,0.798,0.613,1.337l-4.102,10.933c-0.167,0.408-0.576,0.668-0.984,0.65c-0.427,0.019-0.817-0.241-0.983-0.65
				l-4.103-10.933c-0.185-0.538,0.075-1.132,0.613-1.337c0.092-0.037,0.222-0.056,0.353-0.056c0.408,0,0.798,0.241,0.947,0.65
				L203.511,237.345z M204.272,239.387l1.503,3.991l1.503-3.991H204.272z"/>
		</g>
	</g>
	<g>
		<path class="st4" d="M186.322,187.357c-1.126-0.175-2.22-0.141-3.25,0.07c1.624-1.86,2.501-4.387,2.136-7.124
			c-0.536-4.013-3.843-7.244-7.867-7.69c-5.417-0.601-10.003,3.623-10.003,8.919c0,2.259,0.841,4.317,2.218,5.895
			c-1.03-0.211-2.124-0.246-3.25-0.07c-3.93,0.612-7.052,3.905-7.482,7.859c-0.587,5.408,3.633,9.982,8.922,9.982
			c1.543,0,2.994-0.392,4.261-1.079c0.438-0.237,0.939,0.197,0.793,0.672l-2.335,7.587h5.459h0.78h5.459l-2.335-7.587
			c-0.146-0.476,0.355-0.91,0.793-0.672c1.267,0.687,2.718,1.079,4.261,1.079c5.289,0,9.509-4.574,8.922-9.982
			C193.374,191.262,190.252,187.969,186.322,187.357z"/>
	</g>
	<g>
		<path class="st3" d="M182.163,214.377h-11.698c-0.635,0-1.231-0.301-1.608-0.812c-0.378-0.51-0.49-1.169-0.303-1.776l1.488-4.836
			c-0.753,0.162-1.523,0.244-2.297,0.244c-3.113,0-6.092-1.33-8.172-3.648c-2.078-2.317-3.076-5.433-2.737-8.55
			c0.523-4.828,4.377-8.873,9.162-9.618c0.013-0.002,0.025-0.004,0.038-0.006c-0.458-1.22-0.698-2.52-0.698-3.843
			c0-3.118,1.333-6.1,3.657-8.181c2.324-2.079,5.451-3.073,8.566-2.727c4.924,0.547,8.974,4.506,9.629,9.414
			c0.243,1.823,0.026,3.654-0.603,5.335c0.014,0.003,0.028,0.004,0.042,0.007l0,0c4.784,0.745,8.638,4.79,9.162,9.618
			c0.339,3.117-0.659,6.233-2.737,8.55c-2.08,2.318-5.06,3.648-8.173,3.648c-0.772,0-1.543-0.083-2.296-0.244l1.488,4.836
			c0.188,0.607,0.075,1.266-0.303,1.776C183.394,214.076,182.798,214.377,182.163,214.377z M173.173,210.377h6.282l-1.538-4.998
			c-0.309-1.003,0.018-2.081,0.831-2.747c0.804-0.661,1.916-0.767,2.826-0.271c1.025,0.555,2.138,0.837,3.308,0.837
			c1.979,0,3.873-0.846,5.195-2.32c1.34-1.494,1.958-3.428,1.738-5.446c-0.333-3.062-2.772-5.627-5.801-6.099
			c-0.857-0.133-1.714-0.116-2.541,0.054c-0.838,0.173-1.697-0.211-2.129-0.953c-0.433-0.741-0.344-1.675,0.221-2.322
			c1.343-1.539,1.932-3.507,1.66-5.544c-0.416-3.111-2.983-5.621-6.105-5.967c-2.022-0.226-3.96,0.391-5.457,1.731
			c-1.478,1.323-2.325,3.218-2.325,5.2c0,1.68,0.612,3.307,1.724,4.58c0.566,0.646,0.654,1.581,0.223,2.322
			c-0.432,0.742-1.28,1.127-2.13,0.953c-0.827-0.169-1.683-0.188-2.541-0.054c-3.029,0.472-5.469,3.036-5.801,6.098
			c-0.22,2.019,0.398,3.953,1.738,5.447c1.322,1.474,3.216,2.319,5.194,2.319c1.17,0,2.283-0.282,3.309-0.837
			c0.908-0.493,2.02-0.388,2.824,0.27c0.813,0.665,1.141,1.743,0.835,2.745L173.173,210.377z"/>
	</g>
	<g>
		<path class="st8" d="M79.686,183.529l-1.384-1.384c-4.238-4.238-11.11-4.238-15.348,0h0c-4.238,4.238-4.238,11.11,0,15.348
			l16.732,16.732l16.732-16.732c4.238-4.238,4.238-11.11,0-15.348l0,0c-4.238-4.238-11.11-4.238-15.348,0L79.686,183.529z"/>
	</g>
	<g>
		<path class="st3" d="M79.686,216.225c-0.512,0-1.023-0.195-1.414-0.586L61.54,198.907c-2.428-2.427-3.765-5.655-3.765-9.088
			c0-3.433,1.337-6.661,3.765-9.088c5.001-5.002,13.133-5.011,18.146-0.03c5.015-4.982,13.146-4.971,18.146,0.03
			c5.011,5.011,5.011,13.165,0,18.176L81.1,215.639C80.71,216.03,80.198,216.225,79.686,216.225z M70.628,180.971
			c-2.267,0-4.534,0.863-6.26,2.588c-3.452,3.452-3.452,9.068,0,12.52l15.318,15.317l15.318-15.317c3.452-3.452,3.452-9.068,0-12.52
			c-3.452-3.451-9.068-3.451-12.521,0l-1.384,1.384c-0.78,0.781-2.048,0.781-2.828,0l-1.384-1.384
			C75.162,181.833,72.895,180.971,70.628,180.971z"/>
	</g>
	<g>
		<path class="st7" d="M212.142,119.676h-71.656c-2.299,0-4.162-1.863-4.162-4.162V8.162c0-2.298,1.863-4.162,4.162-4.162h71.656
			c2.299,0,4.162,1.863,4.162,4.162v107.352C216.304,117.813,214.44,119.676,212.142,119.676z"/>
	</g>
	<g>
		<path class="st9" d="M212.142,4h-6.659c2.299,0,4.162,1.863,4.162,4.162v107.352c0,2.299-1.863,4.162-4.162,4.162h6.659
			c2.299,0,4.162-1.863,4.162-4.162V8.162C216.304,5.863,214.44,4,212.142,4z"/>
	</g>
	<g>
		<path class="st10" d="M140.486,119.676h6.659c-2.299,0-4.162-1.863-4.162-4.162V8.162c0-2.299,1.863-4.162,4.162-4.162h-6.659
			c-2.299,0-4.162,1.863-4.162,4.162v107.352C136.324,117.813,138.187,119.676,140.486,119.676z"/>
	</g>
	<g>
		<path class="st3" d="M212.142,121.676h-71.656c-3.398,0-6.161-2.764-6.161-6.162V8.162c0-3.398,2.764-6.162,6.161-6.162h71.656
			c3.397,0,6.162,2.764,6.162,6.162v107.352C218.304,118.912,215.539,121.676,212.142,121.676z M140.485,6
			c-1.191,0-2.161,0.97-2.161,2.162v107.352c0,1.192,0.97,2.162,2.161,2.162h71.656c1.192,0,2.162-0.97,2.162-2.162V8.162
			c0-1.192-0.97-2.162-2.162-2.162H140.485z"/>
	</g>
	<g>
		<g>
			<path class="st3" d="M149.116,19.295h-4.51l-0.909,2.413c-0.167,0.409-0.557,0.65-0.965,0.65c-0.13,0-0.242-0.019-0.353-0.056
				c-0.538-0.204-0.798-0.798-0.613-1.337l4.102-10.933c0.167-0.408,0.576-0.668,0.984-0.65c0.427-0.019,0.817,0.241,0.983,0.65
				l4.103,10.933c0.185,0.538-0.075,1.132-0.613,1.337c-0.092,0.037-0.222,0.056-0.353,0.056c-0.408,0-0.798-0.241-0.947-0.65
				L149.116,19.295z M148.355,17.253l-1.503-3.991l-1.503,3.991H148.355z"/>
		</g>
	</g>
	<g>
		<g>
			<path class="st3" d="M203.511,105.021h4.51l0.909-2.413c0.167-0.408,0.557-0.65,0.965-0.65c0.13,0,0.242,0.019,0.353,0.056
				c0.538,0.204,0.798,0.798,0.613,1.337l-4.102,10.933c-0.167,0.408-0.576,0.668-0.984,0.65c-0.427,0.019-0.817-0.241-0.983-0.65
				l-4.103-10.933c-0.185-0.538,0.075-1.132,0.613-1.337c0.092-0.037,0.222-0.056,0.353-0.056c0.408,0,0.798,0.241,0.947,0.65
				L203.511,105.021z M204.272,107.063l1.503,3.991l1.503-3.991H204.272z"/>
		</g>
	</g>
	<g>
		<polygon class="st8" points="176.314,81.749 162.552,61.838 176.314,41.927 190.075,61.838 		"/>
	</g>
	<g>
		<path class="st3" d="M176.313,83.749c-0.657,0-1.271-0.323-1.645-0.863l-13.762-19.911c-0.473-0.685-0.473-1.59,0-2.274
			l13.762-19.911c0.374-0.54,0.988-0.863,1.645-0.863c0.657,0,1.272,0.323,1.646,0.863l13.762,19.911
			c0.473,0.685,0.473,1.59,0,2.274l-13.762,19.911C177.585,83.426,176.971,83.749,176.313,83.749z M164.983,61.838l11.33,16.394
			l11.33-16.394l-11.33-16.393L164.983,61.838z"/>
	</g>
</g>
</svg>
