<?xml version="1.0" encoding="utf-8"?>
<!-- Generator: Adobe Illustrator 22.1.0, SVG Export Plug-In . SVG Version: 6.00 Build 0)  -->
<svg version="1.1" id="Layer_1" xmlns="http://www.w3.org/2000/svg" xmlns:xlink="http://www.w3.org/1999/xlink" x="0px" y="0px"
	 viewBox="0 0 256 256" style="enable-background:new 0 0 256 256;" xml:space="preserve">
<style type="text/css">
	.st0{fill:#FCC24C;}
	.st1{fill:#FCE06A;}
	.st2{fill:#DEA42E;}
	.st3{fill:#690589;}
	.st4{fill:#7BAC51;}
	.st5{fill:#5D8E33;}
	.st6{fill:#99CA6F;}
	.st7{fill:#F4EFED;}
	.st8{fill:#FF4397;}
	.st9{fill:#D6D1CF;}
	.st10{fill:#FFFFFF;}
	.st11{fill:#FF9F70;}
	.st12{fill:#FFBD8E;}
	.st13{fill:#E18152;}
	.st14{fill:#E12579;}
	.st15{fill:#FF61B5;}
</style>
<g>
	<g>
		<path class="st4" d="M143.222,100.823H23.247c-2.706,0-4.899,2.193-4.899,4.899v47.89h129.773v-47.89
			C148.121,103.017,145.928,100.823,143.222,100.823z"/>
	</g>
	<g>
		<polygon class="st4" points="145.699,196.537 20.771,196.537 4,196.537 4,214.718 4,239.462 20.771,239.462 20.771,214.718 
			145.699,214.718 145.699,239.462 162.469,239.462 162.469,214.718 162.469,196.537 		"/>
	</g>
	<g>
		<path class="st7" d="M162.469,196.537H4V163.41c0-5.411,4.387-9.798,9.798-9.798h138.873c5.411,0,9.798,4.387,9.798,9.798V196.537
			z"/>
	</g>
	<g>
		<rect x="175.921" y="153.612" class="st0" width="71.07" height="85.85"/>
	</g>
	<g>
		<path class="st5" d="M143.222,100.824h-9.798c2.706,0,4.899,2.193,4.899,4.899v47.89h9.798v-47.89
			C148.121,103.017,145.928,100.824,143.222,100.824z"/>
	</g>
	<g>
		<g>
			<polygon class="st5" points="152.671,196.537 152.671,214.718 152.671,239.462 162.469,239.462 162.469,214.718 162.469,196.537 
							"/>
		</g>
	</g>
	<g>
		<path class="st9" d="M152.671,153.612h-9.798c5.411,0,9.798,4.387,9.798,9.798v33.127h9.798V163.41
			C162.469,157.999,158.083,153.612,152.671,153.612z"/>
	</g>
	<g>
		<path class="st6" d="M33.045,100.824h-9.798c-2.706,0-4.899,2.193-4.899,4.899v47.89h9.798v-47.89
			C28.146,103.017,30.339,100.824,33.045,100.824z"/>
	</g>
	<g>
		<path class="st10" d="M23.596,153.612h-9.798c-5.411,0-9.798,4.387-9.798,9.798v33.127h9.798V163.41
			C13.798,157.999,18.185,153.612,23.596,153.612z"/>
	</g>
	<g>
		<g>
			<polygon class="st6" points="13.798,196.537 4,196.537 4,214.718 4,239.462 13.798,239.462 13.798,214.718 			"/>
		</g>
	</g>
	<g>
		<rect x="237.193" y="153.612" class="st2" width="9.798" height="85.85"/>
	</g>
	<g>
		<rect x="175.921" y="153.612" class="st1" width="9.798" height="85.85"/>
	</g>
	<g>
		<path class="st3" d="M162.469,198.537H4c-1.105,0-2-0.895-2-2V163.41c0-6.505,5.293-11.798,11.798-11.798h138.873
			c6.506,0,11.798,5.293,11.798,11.798v33.127C164.469,197.642,163.574,198.537,162.469,198.537z M6,194.537h154.469V163.41
			c0-4.3-3.498-7.798-7.798-7.798H13.798c-4.3,0-7.798,3.498-7.798,7.798V194.537z"/>
	</g>
	<g>
		<path class="st3" d="M11.838,181.964c-1.104,0-2-0.895-2-2v-12c0-1.104,0.896-2,2-2s2,0.896,2,2v12
			C13.838,181.068,12.943,181.964,11.838,181.964z"/>
	</g>
	<g>
		<path class="st3" d="M162.469,241.462h-16.77c-1.105,0-2-0.895-2-2v-22.744H22.771v22.744c0,1.105-0.896,2-2,2H4
			c-1.105,0-2-0.895-2-2v-42.925c0-1.104,0.895-2,2-2h158.469c1.105,0,2,0.896,2,2v42.925
			C164.469,240.566,163.574,241.462,162.469,241.462z M147.699,237.462h12.77v-38.925H6v38.925h12.771v-22.744c0-1.105,0.896-2,2-2
			h124.928c1.105,0,2,0.895,2,2V237.462z"/>
	</g>
	<g>
		<path class="st3" d="M148.121,155.612H18.348c-1.104,0-2-0.896-2-2v-47.89c0-3.805,3.095-6.9,6.899-6.9h119.975
			c3.804,0,6.899,3.095,6.899,6.9v47.89C150.121,154.717,149.226,155.612,148.121,155.612z M20.348,151.612h125.773v-45.89
			c0-1.599-1.3-2.9-2.899-2.9H23.247c-1.599,0-2.899,1.301-2.899,2.9V151.612z"/>
	</g>
	<g>
		<path class="st3" d="M246.991,241.462h-71.07c-1.104,0-2-0.895-2-2v-85.85c0-1.105,0.896-2,2-2h71.07c1.105,0,2,0.895,2,2v85.85
			C248.991,240.566,248.095,241.462,246.991,241.462z M177.92,237.462h67.07v-81.85h-67.07V237.462z"/>
	</g>
	<g>
		<path class="st3" d="M246.991,198.537h-71.07c-1.104,0-2-0.895-2-2c0-1.104,0.896-2,2-2h71.07c1.105,0,2,0.896,2,2
			C248.991,197.642,248.095,198.537,246.991,198.537z"/>
	</g>
	<g>
		<path class="st3" d="M217.889,185.086h-12.868c-1.104,0-2-0.896-2-2c0-1.105,0.896-2,2-2h12.868c1.104,0,2,0.895,2,2
			C219.889,184.19,218.994,185.086,217.889,185.086z"/>
	</g>
	<g>
		<path class="st3" d="M217.889,228.011h-12.868c-1.104,0-2-0.895-2-2c0-1.104,0.896-2,2-2h12.868c1.104,0,2,0.896,2,2
			C219.889,227.115,218.994,228.011,217.889,228.011z"/>
	</g>
	<g>
		<path class="st7" d="M123.957,120.747H42.513c-5.411,0-9.798,4.387-9.798,9.798v23.067h101.04v-23.067
			C133.755,125.134,129.368,120.747,123.957,120.747z"/>
	</g>
	<g>
		<path class="st9" d="M123.957,120.747h-7.838c5.411,0,9.798,4.387,9.798,9.798v23.067h7.838v-23.067
			C133.755,125.134,129.368,120.747,123.957,120.747z"/>
	</g>
	<g>
		<path class="st10" d="M42.513,120.747h7.838c-5.411,0-9.798,4.387-9.798,9.798v23.067h-7.838v-23.067
			C32.715,125.134,37.101,120.747,42.513,120.747z"/>
	</g>
	<g>
		<path class="st3" d="M133.755,155.612H32.714c-1.105,0-2-0.896-2-2v-23.067c0-6.505,5.292-11.798,11.798-11.798h81.444
			c6.506,0,11.798,5.293,11.798,11.798v23.067C135.755,154.717,134.859,155.612,133.755,155.612z M34.714,151.612h97.04v-21.067
			c0-4.3-3.499-7.798-7.798-7.798H42.513c-4.3,0-7.798,3.498-7.798,7.798V151.612z"/>
	</g>
	<g>
		<path class="st3" d="M83.234,154.494c-1.104,0-2-0.895-2-2v-30.401c0-1.104,0.896-2,2-2s2,0.896,2,2v30.401
			C85.234,153.599,84.339,154.494,83.234,154.494z"/>
	</g>
	<g>
		<path class="st8" d="M211.456,98.026L211.456,98.026c-2.739,0-4.959,2.22-4.959,4.959v17.363h9.918v-17.363
			C216.414,100.246,214.194,98.026,211.456,98.026z"/>
	</g>
	<g>
		<path class="st3" d="M216.415,122.348h-9.918c-1.104,0-2-0.896-2-2v-17.363c0-3.837,3.122-6.958,6.959-6.958
			s6.959,3.121,6.959,6.958v17.363C218.415,121.452,217.519,122.348,216.415,122.348z M208.497,118.348h5.918v-15.363
			c0-1.631-1.328-2.958-2.959-2.958c-1.631,0-2.959,1.327-2.959,2.958V118.348z"/>
	</g>
	<g>
		<path class="st7" d="M245.138,145.968c0-18.602-15.08-33.682-33.682-33.682c-18.602,0-33.682,15.08-33.682,33.682H245.138z"/>
	</g>
	<g>
		<path class="st7" d="M248.24,153.487h-73.57c-2.076,0-3.759-1.683-3.759-3.759l0,0c0-2.076,1.683-3.76,3.759-3.76h73.57
			c2.076,0,3.76,1.683,3.76,3.76l0,0C252,151.804,250.317,153.487,248.24,153.487z"/>
	</g>
	<g>
		<path class="st3" d="M245.138,147.968h-67.364c-1.105,0-2-0.896-2-2c0-19.675,16.007-35.682,35.682-35.682
			s35.682,16.007,35.682,35.682C247.138,147.072,246.242,147.968,245.138,147.968z M179.836,143.968h63.239
			c-1.035-16.541-14.822-29.682-31.62-29.682C194.658,114.286,180.871,127.427,179.836,143.968z"/>
	</g>
	<g>
		<path class="st3" d="M248.241,155.487h-73.57c-3.176,0-5.759-2.584-5.759-5.76c0-3.176,2.583-5.76,5.759-5.76h73.57
			c3.176,0,5.759,2.584,5.759,5.76C254,152.903,251.417,155.487,248.241,155.487z M174.67,147.968c-0.97,0-1.759,0.789-1.759,1.76
			c0,0.971,0.789,1.76,1.759,1.76h73.57c0.97,0,1.759-0.789,1.759-1.76c0-0.971-0.789-1.76-1.759-1.76H174.67z"/>
	</g>
	<g>
		<g>
			<polygon class="st4" points="113.952,89.524 77.909,53.48 91.766,39.623 113.952,61.811 159.224,16.538 173.081,30.395 			"/>
		</g>
	</g>
	<g>
		<g>
			<path class="st3" d="M113.953,91.524c-0.53,0-1.039-0.211-1.414-0.586L76.495,54.895c-0.781-0.781-0.781-2.047,0-2.828
				l13.857-13.857c0.75-0.75,2.078-0.75,2.828,0l20.772,20.773l43.857-43.858c0.78-0.781,2.047-0.781,2.828,0l13.857,13.856
				c0.375,0.375,0.586,0.884,0.586,1.414c0,0.53-0.211,1.039-0.586,1.414l-59.128,59.13
				C114.992,91.313,114.483,91.524,113.953,91.524z M80.738,53.48l33.215,33.216l56.3-56.302l-11.028-11.028l-43.857,43.858
				c-0.75,0.75-2.078,0.75-2.828,0L91.766,42.451L80.738,53.48z"/>
		</g>
	</g>
</g>
</svg>
