<?xml version="1.0" encoding="utf-8"?>
<!-- Generator: Adobe Illustrator 22.1.0, SVG Export Plug-In . SVG Version: 6.00 Build 0)  -->
<svg version="1.1" id="Layer_1" xmlns="http://www.w3.org/2000/svg" xmlns:xlink="http://www.w3.org/1999/xlink" x="0px" y="0px"
	 viewBox="0 0 256 256" style="enable-background:new 0 0 256 256;" xml:space="preserve">
<style type="text/css">
	.st0{fill:#FCC24C;}
	.st1{fill:#FCE06A;}
	.st2{fill:#DEA42E;}
	.st3{fill:#690589;}
	.st4{fill:#7BAC51;}
	.st5{fill:#5D8E33;}
	.st6{fill:#99CA6F;}
	.st7{fill:#F4EFED;}
	.st8{fill:#FF4397;}
	.st9{fill:#D6D1CF;}
	.st10{fill:#FFFFFF;}
	.st11{fill:#FF9F70;}
	.st12{fill:#FFBD8E;}
	.st13{fill:#E18152;}
	.st14{fill:#E12579;}
	.st15{fill:#FF61B5;}
</style>
<g>
	<g>
		<path class="st4" d="M174.383,5.778H44.848c-13.037,0-23.606,10.569-23.606,23.606v196.288h176.746V29.384
			C197.989,16.347,187.42,5.778,174.383,5.778z"/>
	</g>
	<g>
		<path class="st5" d="M174.383,5.778h-10c13.037,0,23.606,10.569,23.606,23.606v196.288h10V29.384
			C197.989,16.347,187.42,5.778,174.383,5.778z"/>
	</g>
	<g>
		<path class="st6" d="M44.848,5.778h10c-13.037,0-23.606,10.569-23.606,23.606v196.288h-10V29.384
			C21.243,16.347,31.811,5.778,44.848,5.778z"/>
	</g>
	<g>
		<path class="st3" d="M197.988,227.672H21.242c-1.105,0-2-0.895-2-2V29.384c0-14.119,11.487-25.606,25.606-25.606h129.534
			c14.119,0,25.605,11.487,25.605,25.606v196.288C199.988,226.776,199.093,227.672,197.988,227.672z M23.242,223.672h172.746V29.384
			c0-11.914-9.692-21.606-21.605-21.606H44.849c-11.914,0-21.606,9.692-21.606,21.606V223.672z"/>
	</g>
	<g>
		<polygon class="st0" points="109.485,42.655 98.004,48.691 100.197,35.907 90.909,26.853 103.745,24.988 109.485,13.356 
			115.226,24.988 128.062,26.853 118.774,35.907 120.966,48.691 		"/>
	</g>
	<g>
		<polygon class="st0" points="150.484,38.996 142.614,43.134 144.117,34.371 137.751,28.165 146.549,26.887 150.484,18.914 
			154.418,26.887 163.217,28.165 156.85,34.371 158.353,43.134 		"/>
	</g>
	<g>
		<polygon class="st0" points="68.487,38.996 60.618,43.134 62.121,34.371 55.754,28.165 64.552,26.887 68.487,18.914 
			72.422,26.887 81.22,28.165 74.854,34.371 76.356,43.134 		"/>
	</g>
	<g>
		<path class="st3" d="M29.242,45.62c-1.105,0-2-0.896-2-2v-12c0-1.104,0.895-2,2-2c1.104,0,2,0.896,2,2v12
			C31.242,44.724,30.347,45.62,29.242,45.62z"/>
	</g>
	<g>
		<path class="st3" d="M98.005,50.691c-0.414,0-0.827-0.129-1.176-0.382c-0.615-0.448-0.924-1.206-0.796-1.956l2.015-11.748
			l-8.535-8.32c-0.545-0.531-0.741-1.326-0.506-2.05c0.235-0.724,0.861-1.251,1.614-1.361l11.796-1.714l5.274-10.688
			c0.337-0.683,1.032-1.115,1.794-1.115c0.762,0,1.457,0.432,1.794,1.115l5.274,10.688l11.796,1.714
			c0.753,0.109,1.379,0.637,1.614,1.361c0.235,0.724,0.039,1.519-0.506,2.05l-8.535,8.32l2.016,11.748
			c0.128,0.75-0.18,1.509-0.796,1.957c-0.615,0.448-1.432,0.506-2.106,0.152l-10.551-5.546l-10.55,5.546
			C98.643,50.615,98.323,50.691,98.005,50.691z M109.485,40.655c0.319,0,0.64,0.077,0.931,0.23l7.895,4.15l-1.509-8.79
			c-0.11-0.649,0.104-1.311,0.575-1.771l6.387-6.225l-8.826-1.283c-0.651-0.094-1.214-0.503-1.506-1.094l-3.946-7.997l-3.946,7.997
			c-0.292,0.59-0.854,1-1.506,1.094l-8.826,1.283l6.387,6.225c0.471,0.459,0.685,1.122,0.575,1.77l-1.508,8.791l7.894-4.15
			C108.846,40.732,109.166,40.655,109.485,40.655z"/>
	</g>
	<g>
		<path class="st3" d="M158.354,45.133c-0.318,0-0.638-0.076-0.931-0.229l-6.939-3.648l-6.938,3.647
			c-0.674,0.355-1.489,0.295-2.106-0.152c-0.615-0.448-0.924-1.206-0.796-1.956l1.325-7.727l-5.613-5.472
			c-0.545-0.531-0.741-1.326-0.506-2.05c0.235-0.724,0.861-1.251,1.615-1.361l7.757-1.127l3.469-7.03
			c0.337-0.683,1.032-1.115,1.794-1.115s1.457,0.432,1.794,1.115l3.469,7.03l7.758,1.127c0.754,0.109,1.38,0.637,1.615,1.361
			c0.235,0.724,0.039,1.519-0.506,2.05L159,35.069l1.325,7.727c0.128,0.75-0.181,1.508-0.796,1.956
			C159.181,45.004,158.768,45.133,158.354,45.133z M150.483,36.996c0.319,0,0.64,0.077,0.931,0.229l4.283,2.252l-0.818-4.769
			c-0.11-0.648,0.104-1.311,0.575-1.77l3.465-3.377l-4.788-0.696c-0.652-0.094-1.215-0.503-1.507-1.094l-2.141-4.339l-2.141,4.339
			c-0.292,0.59-0.855,1-1.507,1.094l-4.787,0.696l3.465,3.377c0.471,0.459,0.686,1.122,0.575,1.77l-0.818,4.769l4.282-2.251
			C149.844,37.073,150.164,36.996,150.483,36.996z"/>
	</g>
	<g>
		<path class="st3" d="M76.356,45.133c-0.318,0-0.638-0.076-0.931-0.23l-6.938-3.647l-6.938,3.647
			c-0.673,0.355-1.489,0.295-2.106-0.152c-0.615-0.448-0.924-1.206-0.796-1.956l1.325-7.727l-5.613-5.472
			c-0.546-0.531-0.742-1.326-0.507-2.05c0.235-0.724,0.861-1.251,1.615-1.361l7.758-1.127l3.469-7.03
			c0.337-0.683,1.032-1.115,1.794-1.115c0.762,0,1.457,0.432,1.794,1.115l3.469,7.03l7.757,1.127
			c0.754,0.109,1.38,0.637,1.615,1.361c0.235,0.724,0.039,1.519-0.506,2.05l-5.613,5.472l1.325,7.727
			c0.128,0.75-0.181,1.508-0.796,1.956C77.184,45.004,76.771,45.133,76.356,45.133z M60.053,29.562l3.464,3.377
			c0.472,0.459,0.687,1.122,0.576,1.77l-0.818,4.769l4.282-2.251c0.582-0.307,1.279-0.307,1.861,0l4.282,2.251l-0.818-4.769
			c-0.11-0.648,0.104-1.311,0.575-1.77l3.465-3.377l-4.787-0.696c-0.652-0.094-1.215-0.503-1.507-1.094l-2.141-4.339l-2.141,4.339
			c-0.292,0.59-0.854,1-1.507,1.094L60.053,29.562z"/>
	</g>
	<g>
		<path class="st0" d="M206.072,56.402H13.159c-2.761,0-5,2.239-5,5v89.005v9.142c0,2.761,2.239,5,5,5h192.913c2.761,0,5-2.239,5-5
			v-9.142V61.402C211.072,58.641,208.833,56.402,206.072,56.402z"/>
	</g>
	<g>
		<path class="st2" d="M206.072,56.402h-10c2.761,0,5,2.239,5,5v89.005v9.142c0,2.761-2.239,5-5,5h10c2.761,0,5-2.239,5-5v-9.142
			V61.402C211.072,58.641,208.833,56.402,206.072,56.402z"/>
	</g>
	<g>
		<path class="st1" d="M13.159,56.402h10c-2.762,0-5,2.239-5,5v89.005v9.142c0,2.761,2.238,5,5,5h-10c-2.761,0-5-2.239-5-5v-9.142
			V61.402C8.159,58.641,10.398,56.402,13.159,56.402z"/>
	</g>
	<g>
		<path class="st0" d="M205.789,225.672H13.442C8.227,225.672,4,229.9,4,235.114v15.108h211.231v-15.108
			C215.231,229.9,211.004,225.672,205.789,225.672z"/>
	</g>
	<g>
		<path class="st7" d="M68.011,140.84H25.964c-2.607,0-4.721-2.114-4.721-4.721V70.69c0-2.607,2.114-4.721,4.721-4.721h42.047
			c2.607,0,4.721,2.114,4.721,4.721v65.428C72.732,138.726,70.618,140.84,68.011,140.84z"/>
	</g>
	<g>
		<path class="st7" d="M130.639,140.84H88.592c-2.608,0-4.721-2.114-4.721-4.721V70.69c0-2.607,2.114-4.721,4.721-4.721h42.047
			c2.607,0,4.721,2.114,4.721,4.721v65.428C135.36,138.726,133.247,140.84,130.639,140.84z"/>
	</g>
	<g>
		<path class="st7" d="M193.268,140.84H151.22c-2.607,0-4.721-2.114-4.721-4.721V70.69c0-2.607,2.114-4.721,4.721-4.721h42.047
			c2.607,0,4.721,2.114,4.721,4.721v65.428C197.989,138.726,195.875,140.84,193.268,140.84z"/>
	</g>
	<g>
		<path class="st2" d="M205.789,225.672h-10c5.215,0,9.442,4.228,9.442,9.442v15.108h10v-15.108
			C215.231,229.9,211.004,225.672,205.789,225.672z"/>
	</g>
	<g>
		<path class="st1" d="M13.442,225.672h10c-5.215,0-9.442,4.228-9.442,9.442v15.108H4v-15.108C4,229.9,8.227,225.672,13.442,225.672
			z"/>
	</g>
	<g>
		<path class="st8" d="M163.871,189.189H56.594c-2.607,0-4.721,2.114-4.721,4.721v31.762h116.72V193.91
			C168.592,191.302,166.479,189.189,163.871,189.189z"/>
	</g>
	<g>
		<g>
			<path class="st9" d="M241.855,115.197h-13.378v-9.442h8.657V56.402h9.442v54.074
				C246.577,113.083,244.463,115.197,241.855,115.197z"/>
		</g>
	</g>
	<g>
		<path class="st5" d="M223.757,140.898h-12.684V80.053h12.684c2.607,0,4.721,2.114,4.721,4.721v51.402
			C228.478,138.784,226.364,140.898,223.757,140.898z"/>
	</g>
	<g>
		<path class="st3" d="M211.072,152.407H8.159c-1.104,0-2-0.896-2-2V61.402c0-3.86,3.141-7,7-7h192.913c3.859,0,7,3.14,7,7v89.005
			C213.072,151.512,212.177,152.407,211.072,152.407z M10.159,148.407h198.913V61.402c0-1.654-1.346-3-3-3H13.159
			c-1.654,0-3,1.346-3,3V148.407z"/>
	</g>
	<g>
		<path class="st3" d="M223.757,142.898h-12.685c-1.104,0-2-0.896-2-2V80.053c0-1.104,0.896-2,2-2h12.685
			c3.706,0,6.721,3.015,6.721,6.721v51.402C230.477,139.882,227.463,142.898,223.757,142.898z M213.072,138.898h10.685
			c1.5,0,2.721-1.221,2.721-2.721V84.774c0-1.501-1.221-2.721-2.721-2.721h-10.685V138.898z"/>
	</g>
	<g>
		<g>
			<path class="st3" d="M241.855,117.197h-13.378c-1.104,0-2-0.896-2-2v-9.442c0-1.104,0.896-2,2-2h6.657V56.402
				c0-1.104,0.896-2,2-2h9.442c1.104,0,2,0.896,2,2v54.074C248.577,114.182,245.561,117.197,241.855,117.197z M230.477,113.197
				h11.378c1.501,0,2.722-1.221,2.722-2.721V58.402h-5.442v47.352c0,1.104-0.895,2-2,2h-6.657V113.197z"/>
		</g>
	</g>
	<g>
		<path class="st3" d="M68.011,142.84H25.964c-3.706,0-6.722-3.015-6.722-6.721V70.69c0-3.706,3.016-6.721,6.722-6.721h42.047
			c3.706,0,6.722,3.015,6.722,6.721v65.428C74.732,139.825,71.717,142.84,68.011,142.84z M25.964,67.969
			c-1.501,0-2.722,1.221-2.722,2.721v65.428c0,1.5,1.221,2.721,2.722,2.721h42.047c1.501,0,2.722-1.221,2.722-2.721V70.69
			c0-1.501-1.221-2.721-2.722-2.721H25.964z"/>
	</g>
	<g>
		<path class="st3" d="M130.64,142.84H88.592c-3.706,0-6.721-3.015-6.721-6.721V70.69c0-3.706,3.015-6.721,6.721-6.721h42.048
			c3.706,0,6.721,3.015,6.721,6.721v65.428C137.36,139.825,134.346,142.84,130.64,142.84z M88.592,67.969
			c-1.5,0-2.721,1.221-2.721,2.721v65.428c0,1.5,1.221,2.721,2.721,2.721h42.048c1.5,0,2.721-1.221,2.721-2.721V70.69
			c0-1.501-1.221-2.721-2.721-2.721H88.592z"/>
	</g>
	<g>
		<path class="st3" d="M193.268,142.84h-42.047c-3.706,0-6.722-3.015-6.722-6.721V70.69c0-3.706,3.016-6.721,6.722-6.721h42.047
			c3.706,0,6.721,3.015,6.721,6.721v65.428C199.988,139.825,196.974,142.84,193.268,142.84z M151.221,67.969
			c-1.501,0-2.722,1.221-2.722,2.721v65.428c0,1.5,1.221,2.721,2.722,2.721h42.047c1.5,0,2.721-1.221,2.721-2.721V70.69
			c0-1.501-1.221-2.721-2.721-2.721H151.221z"/>
	</g>
	<g>
		<path class="st3" d="M168.593,227.672H51.872c-1.104,0-2-0.895-2-2V193.91c0-3.706,3.016-6.721,6.722-6.721h107.277
			c3.706,0,6.722,3.015,6.722,6.721v31.762C170.593,226.776,169.697,227.672,168.593,227.672z M53.872,223.672h112.721V193.91
			c0-1.501-1.221-2.721-2.722-2.721H56.594c-1.501,0-2.722,1.221-2.722,2.721V223.672z"/>
	</g>
	<g>
		<path class="st3" d="M215.231,252.222H4c-1.105,0-2-0.896-2-2v-15.108c0-6.31,5.133-11.442,11.442-11.442h192.347
			c6.31,0,11.442,5.133,11.442,11.442v15.108C217.231,251.327,216.336,252.222,215.231,252.222z M6,248.222h207.231v-13.108
			c0-4.104-3.339-7.442-7.442-7.442H13.442c-4.104,0-7.442,3.339-7.442,7.442V248.222z"/>
	</g>
	<g>
		<path class="st3" d="M206.072,166.549H13.159c-3.859,0-7-3.14-7-7v-9.142c0-1.105,0.895-2,2-2h202.913c1.105,0,2,0.895,2,2v9.142
			C213.072,163.409,209.932,166.549,206.072,166.549z M10.159,152.407v7.142c0,1.654,1.346,3,3,3h192.913c1.654,0,3-1.346,3-3
			v-7.142H10.159z"/>
	</g>
	<g>
		
			<ellipse transform="matrix(0.7071 -0.7071 0.7071 0.7071 30.9557 187.5375)" class="st14" cx="241.856" cy="56.402" rx="10.144" ry="10.144"/>
	</g>
	<g>
		<path class="st3" d="M241.855,68.546c-6.696,0-12.145-5.448-12.145-12.144c0-6.696,5.448-12.144,12.145-12.144
			S254,49.706,254,56.402C254,63.098,248.552,68.546,241.855,68.546z M241.855,48.258c-4.491,0-8.145,3.653-8.145,8.144
			c0,4.491,3.653,8.144,8.145,8.144S250,60.893,250,56.402C250,51.911,246.347,48.258,241.855,48.258z"/>
	</g>
	<g>
		<g>
			<path class="st3" d="M172.775,80.4c1.275,0,2.284,1.009,2.284,2.284v1.169c3.135,0.372,5.791,1.382,8.235,2.922
				c0.85,0.478,1.594,1.275,1.594,2.55c0,1.647-1.328,2.922-2.975,2.922c-0.531,0-1.063-0.159-1.594-0.478
				c-1.859-1.116-3.666-1.913-5.472-2.338v10.201c8.076,2.019,11.529,5.26,11.529,10.945c0,5.844-4.569,9.723-11.317,10.36v3.188
				c0,1.275-1.009,2.285-2.284,2.285c-1.275,0-2.338-1.009-2.338-2.285v-3.294c-3.985-0.425-7.651-1.859-10.892-4.144
				c-0.903-0.584-1.434-1.434-1.434-2.55c0-1.647,1.275-2.922,2.922-2.922c0.638,0,1.275,0.213,1.753,0.584
				c2.497,1.806,4.941,3.029,7.863,3.56v-10.466c-7.757-2.019-11.37-4.941-11.37-10.945c0-5.685,4.516-9.617,11.157-10.148v-1.116
				C170.438,81.409,171.5,80.4,172.775,80.4z M170.65,98.517v-9.404c-3.4,0.319-5.1,2.125-5.1,4.463
				C165.55,95.807,166.559,97.188,170.65,98.517z M174.847,105.902v9.669c3.4-0.372,5.26-2.072,5.26-4.622
				C180.107,108.611,178.938,107.177,174.847,105.902z"/>
		</g>
	</g>
	<g>
		<g>
			<path class="st3" d="M110.017,80.4c1.275,0,2.285,1.009,2.285,2.284v1.169c3.134,0.372,5.791,1.382,8.235,2.922
				c0.85,0.478,1.594,1.275,1.594,2.55c0,1.647-1.328,2.922-2.975,2.922c-0.532,0-1.063-0.159-1.594-0.478
				c-1.859-1.116-3.666-1.913-5.472-2.338v10.201c8.076,2.019,11.529,5.26,11.529,10.945c0,5.844-4.569,9.723-11.317,10.36v3.188
				c0,1.275-1.009,2.285-2.285,2.285s-2.338-1.009-2.338-2.285v-3.294c-3.985-0.425-7.651-1.859-10.892-4.144
				c-0.903-0.584-1.434-1.434-1.434-2.55c0-1.647,1.275-2.922,2.922-2.922c0.638,0,1.275,0.213,1.753,0.584
				c2.497,1.806,4.941,3.029,7.863,3.56v-10.466c-7.757-2.019-11.37-4.941-11.37-10.945c0-5.685,4.516-9.617,11.158-10.148v-1.116
				C107.679,81.409,108.742,80.4,110.017,80.4z M107.892,98.517v-9.404c-3.4,0.319-5.1,2.125-5.1,4.463
				C102.791,95.807,103.8,97.188,107.892,98.517z M112.089,105.902v9.669c3.4-0.372,5.26-2.072,5.26-4.622
				C117.348,108.611,116.18,107.177,112.089,105.902z"/>
		</g>
	</g>
	<g>
		<g>
			<path class="st3" d="M47.519,80.4c1.275,0,2.285,1.009,2.285,2.284v1.169c3.134,0.372,5.791,1.382,8.235,2.922
				c0.85,0.478,1.594,1.275,1.594,2.55c0,1.647-1.328,2.922-2.975,2.922c-0.531,0-1.063-0.159-1.594-0.478
				c-1.859-1.116-3.666-1.913-5.472-2.338v10.201c8.076,2.019,11.529,5.26,11.529,10.945c0,5.844-4.569,9.723-11.317,10.36v3.188
				c0,1.275-1.009,2.285-2.285,2.285c-1.275,0-2.338-1.009-2.338-2.285v-3.294c-3.985-0.425-7.651-1.859-10.892-4.144
				c-0.903-0.584-1.434-1.434-1.434-2.55c0-1.647,1.275-2.922,2.922-2.922c0.638,0,1.275,0.213,1.753,0.584
				c2.497,1.806,4.941,3.029,7.863,3.56v-10.466c-7.757-2.019-11.37-4.941-11.37-10.945c0-5.685,4.516-9.617,11.157-10.148v-1.116
				C45.181,81.409,46.243,80.4,47.519,80.4z M45.393,98.517v-9.404c-3.4,0.319-5.1,2.125-5.1,4.463
				C40.293,95.807,41.302,97.188,45.393,98.517z M49.59,105.902v9.669c3.4-0.372,5.26-2.072,5.26-4.622
				C54.85,108.611,53.682,107.177,49.59,105.902z"/>
		</g>
	</g>
</g>
</svg>
