<svg xmlns="http://www.w3.org/2000/svg" viewBox="0 0 256 256"><title>icons_</title><rect x="48.415" y="71.489" width="159.171" height="54.275" rx="4.919" ry="4.919" fill="#9e9e9e"/><rect x="48.415" y="125.764" width="159.171" height="54.275" rx="4.919" ry="4.919" fill="#9e9e9e"/><rect x="48.415" y="17.214" width="159.171" height="54.275" rx="4.919" ry="4.919" fill="#9e9e9e"/><path d="M57.915,66.57V22.133a4.919,4.919,0,0,1,4.919-4.919h-9.5a4.919,4.919,0,0,0-4.919,4.919V66.57a4.919,4.919,0,0,0,4.919,4.919h9.5A4.919,4.919,0,0,1,57.915,66.57Z" fill="#707070"/><path d="M198.085,66.57V22.133a4.919,4.919,0,0,0-4.919-4.919h9.5a4.919,4.919,0,0,1,4.919,4.919V66.57a4.919,4.919,0,0,1-4.919,4.919h-9.5A4.919,4.919,0,0,0,198.085,66.57Z" fill="#cecece"/><path d="M198.085,120.846V76.408a4.919,4.919,0,0,0-4.919-4.919h9.5a4.919,4.919,0,0,1,4.919,4.919v44.438a4.919,4.919,0,0,1-4.919,4.919h-9.5A4.919,4.919,0,0,0,198.085,120.846Z" fill="#cecece"/><path d="M198.085,175.121V130.683a4.919,4.919,0,0,0-4.919-4.919h9.5a4.919,4.919,0,0,1,4.919,4.919v44.438a4.919,4.919,0,0,1-4.919,4.919h-9.5A4.919,4.919,0,0,0,198.085,175.121Z" fill="#cecece"/><path d="M57.915,120.846V76.408a4.919,4.919,0,0,1,4.919-4.919h-9.5a4.919,4.919,0,0,0-4.919,4.919v44.438a4.919,4.919,0,0,0,4.919,4.919h9.5A4.919,4.919,0,0,1,57.915,120.846Z" fill="#707070"/><path d="M57.915,175.121V130.683a4.919,4.919,0,0,1,4.919-4.919h-9.5a4.919,4.919,0,0,0-4.919,4.919v44.438a4.919,4.919,0,0,0,4.919,4.919h9.5A4.919,4.919,0,0,1,57.915,175.121Z" fill="#707070"/><rect x="64.871" y="38.507" width="84.42" height="11.689" rx="2.265" ry="2.265" fill="#f8af23"/><rect x="64.871" y="92.782" width="84.42" height="11.689" rx="2.265" ry="2.265" fill="#f8af23"/><rect x="64.871" y="147.058" width="84.42" height="11.689" rx="2.265" ry="2.265" fill="#f8af23"/><rect x="174.184" y="38.507" width="11.689" height="11.689" rx="2.265" ry="2.265" fill="#f8af23"/><rect x="174.184" y="92.782" width="11.689" height="11.689" rx="2.265" ry="2.265" fill="#f8af23"/><rect x="174.184" y="147.058" width="11.689" height="11.689" rx="2.265" ry="2.265" fill="#f8af23"/><path d="M17.281,176.491l6.823-6.823a12.227,12.227,0,0,1,17.291,0l1.759,1.759a12.227,12.227,0,0,0,17.291,0l1.759-1.759a12.227,12.227,0,0,1,17.291,0l1.759,1.759a12.227,12.227,0,0,0,17.291,0l1.759-1.759a12.227,12.227,0,0,1,17.291,0l1.759,1.759a12.227,12.227,0,0,0,17.291,0l1.759-1.759a12.227,12.227,0,0,1,17.291,0l1.759,1.759a12.227,12.227,0,0,0,17.291,0l1.759-1.759a12.227,12.227,0,0,1,17.291,0l1.759,1.759a12.227,12.227,0,0,0,17.291,0l1.759-1.759a12.227,12.227,0,0,1,17.291,0l6.823,6.823a12.227,12.227,0,0,1,3.581,8.646v42.677H13.7V185.136A12.227,12.227,0,0,1,17.281,176.491Z" fill="#63bce7"/><path d="M26.781,176.491l6.823-6.823a12.18,12.18,0,0,1,3.9-2.617,12.225,12.225,0,0,0-13.4,2.617l-6.823,6.823a12.227,12.227,0,0,0-3.581,8.646v42.677h9.5V185.136A12.227,12.227,0,0,1,26.781,176.491Z" fill="#6377e7"/><path d="M229.219,176.491l-6.823-6.823a12.18,12.18,0,0,0-3.9-2.617,12.225,12.225,0,0,1,13.4,2.617l6.823,6.823a12.227,12.227,0,0,1,3.581,8.646v42.677h-9.5V185.136A12.227,12.227,0,0,0,229.219,176.491Z" fill="#63e2e7"/><path d="M147.025,37.007H67.137a3.77,3.77,0,0,0-3.765,3.766v7.158A3.769,3.769,0,0,0,67.137,51.7h79.889a3.77,3.77,0,0,0,3.766-3.765V40.772A3.77,3.77,0,0,0,147.025,37.007Zm.766,10.924a.776.776,0,0,1-.766.765H67.137a.776.776,0,0,1-.765-.765V40.772a.776.776,0,0,1,.765-.766h79.889a.776.776,0,0,1,.766.766Z" fill="#3f3679"/><path d="M147.025,91.282H67.137a3.77,3.77,0,0,0-3.765,3.766v7.158a3.77,3.77,0,0,0,3.765,3.766h79.889a3.77,3.77,0,0,0,3.766-3.766V95.048A3.77,3.77,0,0,0,147.025,91.282Zm.766,10.923a.776.776,0,0,1-.766.766H67.137a.776.776,0,0,1-.765-.766V95.048a.776.776,0,0,1,.765-.766h79.889a.776.776,0,0,1,.766.766Z" fill="#3f3679"/><path d="M67.137,160.247h79.889a3.77,3.77,0,0,0,3.766-3.766v-7.158a3.77,3.77,0,0,0-3.766-3.765H67.137a3.769,3.769,0,0,0-3.765,3.765v7.158A3.77,3.77,0,0,0,67.137,160.247Zm-.765-10.924a.776.776,0,0,1,.765-.765h79.889a.776.776,0,0,1,.766.765v7.158a.776.776,0,0,1-.766.766H67.137a.776.776,0,0,1-.765-.766Z" fill="#3f3679"/><path d="M183.607,37.007h-7.158a3.77,3.77,0,0,0-3.765,3.766v7.158a3.769,3.769,0,0,0,3.765,3.765h7.158a3.769,3.769,0,0,0,3.765-3.765V40.772A3.77,3.77,0,0,0,183.607,37.007Zm.765,10.924a.776.776,0,0,1-.765.765h-7.158a.776.776,0,0,1-.765-.765V40.772a.776.776,0,0,1,.765-.766h7.158a.776.776,0,0,1,.765.766Z" fill="#3f3679"/><path d="M183.607,91.282h-7.158a3.77,3.77,0,0,0-3.765,3.766v7.158a3.77,3.77,0,0,0,3.765,3.766h7.158a3.77,3.77,0,0,0,3.765-3.766V95.048A3.77,3.77,0,0,0,183.607,91.282Zm.765,10.923a.776.776,0,0,1-.765.766h-7.158a.776.776,0,0,1-.765-.766V95.048a.776.776,0,0,1,.765-.766h7.158a.776.776,0,0,1,.765.766Z" fill="#3f3679"/><path d="M176.449,160.247h7.158a3.77,3.77,0,0,0,3.765-3.766v-7.158a3.769,3.769,0,0,0-3.765-3.765h-7.158a3.769,3.769,0,0,0-3.765,3.765v7.158A3.77,3.77,0,0,0,176.449,160.247Zm-.765-10.924a.776.776,0,0,1,.765-.765h7.158a.776.776,0,0,1,.765.765v7.158a.776.776,0,0,1-.765.766h-7.158a.776.776,0,0,1-.765-.766Z" fill="#3f3679"/><path d="M213.544,182.56l-1.759,1.759a10.74,10.74,0,0,1-15.17,0l-1.759-1.759a13.742,13.742,0,0,0-19.413,0l-1.759,1.759a10.74,10.74,0,0,1-15.17,0l-1.759-1.759a13.741,13.741,0,0,0-19.413,0l-1.759,1.759a10.74,10.74,0,0,1-15.17,0l-1.759-1.759a13.742,13.742,0,0,0-19.413,0l-1.759,1.759a10.74,10.74,0,0,1-15.17,0l-1.759-1.759a13.741,13.741,0,0,0-19.413,0l-1.759,1.759a10.74,10.74,0,0,1-15.17,0l-1.759-1.759a13.741,13.741,0,0,0-19.413,0,1.5,1.5,0,0,0,2.121,2.121,10.728,10.728,0,0,1,15.17,0l1.759,1.759a13.741,13.741,0,0,0,19.412,0l1.759-1.759a10.74,10.74,0,0,1,15.17,0l1.759,1.759a13.741,13.741,0,0,0,19.412,0l1.759-1.759a10.739,10.739,0,0,1,15.17,0l1.759,1.759a13.741,13.741,0,0,0,19.412,0l1.759-1.759a10.74,10.74,0,0,1,15.17,0l1.759,1.759a13.741,13.741,0,0,0,19.412,0l1.759-1.759a10.739,10.739,0,0,1,15.17,0l1.759,1.759a13.741,13.741,0,0,0,19.412,0l1.759-1.759a10.728,10.728,0,0,1,15.17,0,1.5,1.5,0,0,0,2.121-2.121A13.742,13.742,0,0,0,213.544,182.56Z" fill="#3f3679"/><path d="M213.544,196.513l-1.759,1.759a10.74,10.74,0,0,1-15.17,0l-1.759-1.759a13.742,13.742,0,0,0-19.413,0l-1.759,1.759a10.74,10.74,0,0,1-15.17,0l-1.759-1.759a13.741,13.741,0,0,0-19.413,0l-1.759,1.759a10.74,10.74,0,0,1-15.17,0l-1.759-1.759a13.742,13.742,0,0,0-19.413,0l-1.759,1.759a10.74,10.74,0,0,1-15.17,0l-1.759-1.759a13.741,13.741,0,0,0-19.413,0l-1.759,1.759a10.74,10.74,0,0,1-15.17,0l-1.759-1.759a13.741,13.741,0,0,0-19.413,0,1.5,1.5,0,0,0,2.121,2.121,10.728,10.728,0,0,1,15.17,0l1.759,1.759a13.741,13.741,0,0,0,19.412,0l1.759-1.759a10.739,10.739,0,0,1,15.17,0l1.759,1.759a13.741,13.741,0,0,0,19.412,0l1.759-1.759a10.739,10.739,0,0,1,15.17,0l1.759,1.759a13.741,13.741,0,0,0,19.412,0l1.759-1.759a10.739,10.739,0,0,1,15.17,0l1.759,1.759a13.741,13.741,0,0,0,19.412,0l1.759-1.759a10.739,10.739,0,0,1,15.17,0l1.759,1.759a13.741,13.741,0,0,0,19.412,0l1.759-1.759a10.728,10.728,0,0,1,15.17,0,1.5,1.5,0,0,0,2.121-2.121A13.742,13.742,0,0,0,213.544,196.513Z" fill="#3f3679"/><path d="M213.544,210.466l-1.759,1.759a10.74,10.74,0,0,1-15.17,0l-1.759-1.759a13.742,13.742,0,0,0-19.413,0l-1.759,1.759a10.74,10.74,0,0,1-15.17,0l-1.759-1.759a13.741,13.741,0,0,0-19.413,0l-1.759,1.759a10.74,10.74,0,0,1-15.17,0l-1.759-1.759a13.742,13.742,0,0,0-19.413,0l-1.759,1.759a10.74,10.74,0,0,1-15.17,0l-1.759-1.759a13.741,13.741,0,0,0-19.413,0l-1.759,1.759a10.74,10.74,0,0,1-15.17,0l-1.759-1.759a13.741,13.741,0,0,0-19.413,0,1.5,1.5,0,0,0,2.121,2.121,10.728,10.728,0,0,1,15.17,0l1.759,1.759a13.741,13.741,0,0,0,19.412,0l1.759-1.759a10.74,10.74,0,0,1,15.17,0l1.759,1.759a13.741,13.741,0,0,0,19.412,0l1.759-1.759a10.739,10.739,0,0,1,15.17,0l1.759,1.759a13.741,13.741,0,0,0,19.412,0l1.759-1.759a10.74,10.74,0,0,1,15.17,0l1.759,1.759a13.741,13.741,0,0,0,19.412,0l1.759-1.759a10.739,10.739,0,0,1,15.17,0l1.759,1.759a13.741,13.741,0,0,0,19.412,0l1.759-1.759a10.728,10.728,0,0,1,15.17,0,1.5,1.5,0,0,0,2.121-2.121A13.742,13.742,0,0,0,213.544,210.466Z" fill="#3f3679"/><path d="M27.323,237.286h-18a1.5,1.5,0,1,0,0,3h18a1.5,1.5,0,1,0,0-3Z" fill="#3f3679"/><path d="M246.68,237.286h-18a1.5,1.5,0,0,0,0,3h18a1.5,1.5,0,0,0,0-3Z" fill="#3f3679"/><path d="M218.479,237.286H37.521a1.5,1.5,0,0,0,0,3H218.479a1.5,1.5,0,0,0,0-3Z" fill="#3f3679"/><path d="M9.32,229.313H246.68a1.5,1.5,0,0,0,0-3H243.8V185.136a13.635,13.635,0,0,0-4.021-9.706l-6.823-6.823a13.727,13.727,0,0,0-19.413,0l-1.759,1.759a10.677,10.677,0,0,1-2.7,1.96V130.683a6.406,6.406,0,0,0-2.3-4.919,6.405,6.405,0,0,0,2.3-4.918V76.408a6.405,6.405,0,0,0-2.3-4.919,6.406,6.406,0,0,0,2.3-4.919V22.133a6.426,6.426,0,0,0-6.419-6.419H53.333a6.426,6.426,0,0,0-6.419,6.419V66.57a6.406,6.406,0,0,0,2.3,4.919,6.405,6.405,0,0,0-2.3,4.919v44.438a6.405,6.405,0,0,0,2.3,4.918,6.406,6.406,0,0,0-2.3,4.919v41.642a10.677,10.677,0,0,1-2.7-1.96l-1.759-1.759a13.727,13.727,0,0,0-19.413,0L16.22,175.43a13.635,13.635,0,0,0-4.021,9.706v41.177H9.32a1.5,1.5,0,1,0,0,3ZM49.915,66.57V22.133a3.423,3.423,0,0,1,3.419-3.419H202.667a3.423,3.423,0,0,1,3.419,3.419V66.57a3.423,3.423,0,0,1-3.419,3.419H53.333A3.423,3.423,0,0,1,49.915,66.57Zm0,54.275V76.408a3.423,3.423,0,0,1,3.419-3.418H202.667a3.423,3.423,0,0,1,3.419,3.418v44.438a3.423,3.423,0,0,1-3.419,3.418H53.333A3.423,3.423,0,0,1,49.915,120.846Zm0,9.837a3.423,3.423,0,0,1,3.419-3.419H202.667a3.423,3.423,0,0,1,3.419,3.419V173.33a10.718,10.718,0,0,1-9.47-2.964l-1.759-1.759a13.727,13.727,0,0,0-19.413,0l-1.759,1.759a10.74,10.74,0,0,1-15.17,0l-1.759-1.759a13.741,13.741,0,0,0-19.413,0l-1.759,1.759a10.727,10.727,0,0,1-15.17,0l-1.759-1.759a13.742,13.742,0,0,0-19.413,0l-1.759,1.759a10.74,10.74,0,0,1-15.17,0l-1.759-1.759a13.727,13.727,0,0,0-19.413,0l-1.759,1.759a10.718,10.718,0,0,1-9.47,2.964ZM15.2,185.136a10.657,10.657,0,0,1,3.142-7.585l6.823-6.823a10.728,10.728,0,0,1,15.17,0l1.759,1.759a13.741,13.741,0,0,0,19.412,0l1.759-1.759a10.728,10.728,0,0,1,15.17,0l1.759,1.759a13.741,13.741,0,0,0,19.412,0l1.759-1.759a10.728,10.728,0,0,1,15.17,0l1.759,1.759a13.741,13.741,0,0,0,19.412,0l1.759-1.759a10.728,10.728,0,0,1,15.17,0l1.759,1.759a13.741,13.741,0,0,0,19.412,0l1.759-1.759a10.728,10.728,0,0,1,15.17,0l1.759,1.759a13.741,13.741,0,0,0,19.412,0l1.759-1.759a10.728,10.728,0,0,1,15.17,0l6.823,6.823a10.657,10.657,0,0,1,3.142,7.585v41.177H15.2Z" fill="#3f3679"/></svg>