<svg xmlns="http://www.w3.org/2000/svg" viewBox="0 0 256 256"><title>icons_</title><rect x="34.26" y="28.774" width="187.48" height="187.48" fill="#9e9e9e"/><rect x="34.26" y="28.774" width="93.74" height="187.48" fill="#63bce7"/><rect x="34.26" y="28.774" width="9.5" height="187.48" fill="#6377e7"/><rect x="212.24" y="28.774" width="9.5" height="187.48" fill="#cecece"/><circle cx="128" cy="122.514" r="65.25" fill="#f8af23"/><path d="M62.75,122.514A65.25,65.25,0,0,0,128,187.764V57.264A65.25,65.25,0,0,0,62.75,122.514Z" fill="#f46275"/><circle cx="173.708" cy="122.514" r="5.625" fill="#9e9e9e"/><circle cx="181.771" cy="50.264" r="5.625" fill="#f8af23"/><circle cx="209.211" cy="122.513" r="5.625" fill="#f8af23"/><circle cx="181.771" cy="194.764" r="5.625" fill="#f8af23"/><circle cx="74.229" cy="50.264" r="5.625" fill="#f8af23"/><circle cx="46.789" cy="122.513" r="5.625" fill="#f8af23"/><circle cx="74.229" cy="194.764" r="5.625" fill="#f8af23"/><circle cx="143.271" cy="122.514" r="5.625" fill="#9e9e9e"/><circle cx="143.271" cy="85.889" r="5.625" fill="#9e9e9e"/><circle cx="143.271" cy="159.139" r="5.625" fill="#9e9e9e"/><circle cx="112.729" cy="122.514" r="5.625" fill="#9e9e9e"/><circle cx="112.729" cy="85.889" r="5.625" fill="#9e9e9e"/><circle cx="112.729" cy="159.139" r="5.625" fill="#9e9e9e"/><circle cx="93.198" cy="122.514" r="5.625" fill="#9e9e9e"/><circle cx="73.667" cy="122.514" r="5.625" fill="#9e9e9e"/><circle cx="93.198" cy="85.889" r="5.625" fill="#9e9e9e"/><circle cx="93.198" cy="159.139" r="5.625" fill="#9e9e9e"/><path d="M180.833,122.514a7.125,7.125,0,1,0-7.125,7.125A7.133,7.133,0,0,0,180.833,122.514Zm-11.25,0a4.125,4.125,0,1,1,4.125,4.125A4.13,4.13,0,0,1,169.583,122.514Z" fill="#3f3679"/><path d="M181.771,43.139a7.125,7.125,0,1,0,7.125,7.125A7.133,7.133,0,0,0,181.771,43.139Zm0,11.25a4.125,4.125,0,1,1,4.125-4.125A4.13,4.13,0,0,1,181.771,54.389Z" fill="#3f3679"/><path d="M209.211,115.389a7.125,7.125,0,1,0,7.125,7.125A7.133,7.133,0,0,0,209.211,115.389Zm0,11.25a4.125,4.125,0,1,1,4.125-4.125A4.13,4.13,0,0,1,209.211,126.639Z" fill="#3f3679"/><path d="M181.771,187.639a7.125,7.125,0,1,0,7.125,7.125A7.133,7.133,0,0,0,181.771,187.639Zm0,11.25a4.125,4.125,0,1,1,4.125-4.125A4.13,4.13,0,0,1,181.771,198.889Z" fill="#3f3679"/><path d="M74.229,57.389A7.125,7.125,0,1,0,67.1,50.264,7.133,7.133,0,0,0,74.229,57.389Zm0-11.25A4.125,4.125,0,1,1,70.1,50.264,4.13,4.13,0,0,1,74.229,46.139Z" fill="#3f3679"/><path d="M46.789,115.389a7.125,7.125,0,1,0,7.125,7.125A7.133,7.133,0,0,0,46.789,115.389Zm0,11.25a4.125,4.125,0,1,1,4.125-4.125A4.13,4.13,0,0,1,46.789,126.639Z" fill="#3f3679"/><path d="M74.229,187.639a7.125,7.125,0,1,0,7.125,7.125A7.133,7.133,0,0,0,74.229,187.639Zm0,11.25a4.125,4.125,0,1,1,4.125-4.125A4.13,4.13,0,0,1,74.229,198.889Z" fill="#3f3679"/><path d="M143.271,115.389a7.125,7.125,0,1,0,7.125,7.125A7.133,7.133,0,0,0,143.271,115.389Zm0,11.25a4.125,4.125,0,1,1,4.125-4.125A4.13,4.13,0,0,1,143.271,126.639Z" fill="#3f3679"/><path d="M143.271,78.764a7.125,7.125,0,1,0,7.125,7.125A7.133,7.133,0,0,0,143.271,78.764Zm0,11.25a4.125,4.125,0,1,1,4.125-4.125A4.13,4.13,0,0,1,143.271,90.014Z" fill="#3f3679"/><path d="M143.271,152.014a7.125,7.125,0,1,0,7.125,7.125A7.133,7.133,0,0,0,143.271,152.014Zm0,11.25a4.125,4.125,0,1,1,4.125-4.125A4.13,4.13,0,0,1,143.271,163.264Z" fill="#3f3679"/><path d="M112.729,129.639a7.125,7.125,0,1,0-7.125-7.125A7.133,7.133,0,0,0,112.729,129.639Zm0-11.25a4.125,4.125,0,1,1-4.125,4.125A4.13,4.13,0,0,1,112.729,118.389Z" fill="#3f3679"/><path d="M112.729,93.014a7.125,7.125,0,1,0-7.125-7.125A7.133,7.133,0,0,0,112.729,93.014Zm0-11.25a4.125,4.125,0,1,1-4.125,4.125A4.13,4.13,0,0,1,112.729,81.764Z" fill="#3f3679"/><path d="M112.729,166.264a7.125,7.125,0,1,0-7.125-7.125A7.133,7.133,0,0,0,112.729,166.264Zm0-11.25a4.125,4.125,0,1,1-4.125,4.125A4.13,4.13,0,0,1,112.729,155.014Z" fill="#3f3679"/><path d="M93.2,129.639a7.125,7.125,0,1,0-7.125-7.125A7.133,7.133,0,0,0,93.2,129.639Zm0-11.25a4.125,4.125,0,1,1-4.125,4.125A4.13,4.13,0,0,1,93.2,118.389Z" fill="#3f3679"/><path d="M73.667,115.389a7.125,7.125,0,1,0,7.125,7.125A7.133,7.133,0,0,0,73.667,115.389Zm0,11.25a4.125,4.125,0,1,1,4.125-4.125A4.13,4.13,0,0,1,73.667,126.639Z" fill="#3f3679"/><path d="M93.2,93.014a7.125,7.125,0,1,0-7.125-7.125A7.133,7.133,0,0,0,93.2,93.014Zm0-11.25a4.125,4.125,0,1,1-4.125,4.125A4.13,4.13,0,0,1,93.2,81.764Z" fill="#3f3679"/><path d="M93.2,166.264a7.125,7.125,0,1,0-7.125-7.125A7.133,7.133,0,0,0,93.2,166.264Zm0-11.25a4.125,4.125,0,1,1-4.125,4.125A4.13,4.13,0,0,1,93.2,155.014Z" fill="#3f3679"/><path d="M27.323,225.727h-18a1.5,1.5,0,0,0,0,3h18a1.5,1.5,0,1,0,0-3Z" fill="#3f3679"/><path d="M246.68,225.727h-18a1.5,1.5,0,0,0,0,3h18a1.5,1.5,0,0,0,0-3Z" fill="#3f3679"/><path d="M218.479,225.727H37.521a1.5,1.5,0,0,0,0,3H218.479a1.5,1.5,0,0,0,0-3Z" fill="#3f3679"/><path d="M248.18,216.253a1.5,1.5,0,0,0-1.5-1.5H223.24V28.774a1.5,1.5,0,0,0-1.5-1.5H34.26a1.5,1.5,0,0,0-1.5,1.5h0V214.753H9.32a1.5,1.5,0,0,0,0,3H246.68A1.5,1.5,0,0,0,248.18,216.253ZM126.5,186.226a63.729,63.729,0,0,1,0-127.424Zm3-127.424a63.729,63.729,0,0,1,0,127.424ZM35.76,214.753V30.274H126.5V55.8a66.728,66.728,0,0,0,0,133.424v25.528Zm93.74,0V189.226a66.728,66.728,0,0,0,0-133.424V30.274h90.74V214.753Z" fill="#3f3679"/></svg>