<svg xmlns="http://www.w3.org/2000/svg" viewBox="0 0 256 256"><title>icons_</title><rect x="151.921" y="208.715" width="80.202" height="27.348" rx="4.919" ry="4.919" fill="#9e9e9e"/><rect x="151.921" y="181.367" width="80.202" height="27.348" rx="4.919" ry="4.919" fill="#9e9e9e"/><rect x="23.877" y="208.715" width="80.202" height="27.348" rx="4.919" ry="4.919" fill="#9e9e9e"/><rect x="23.877" y="181.367" width="80.202" height="27.348" rx="4.919" ry="4.919" fill="#9e9e9e"/><rect x="151.921" y="36.312" width="80.202" height="27.348" rx="4.919" ry="4.919" fill="#9e9e9e"/><path d="M222.623,58.741V41.231a4.919,4.919,0,0,0-4.919-4.919h9.5a4.919,4.919,0,0,1,4.919,4.919v17.51A4.919,4.919,0,0,1,227.2,63.66h-9.5A4.919,4.919,0,0,0,222.623,58.741Z" fill="#cecece"/><path d="M222.623,203.8v-17.51a4.919,4.919,0,0,0-4.919-4.919h9.5a4.919,4.919,0,0,1,4.919,4.919V203.8a4.919,4.919,0,0,1-4.919,4.919h-9.5A4.919,4.919,0,0,0,222.623,203.8Z" fill="#cecece"/><path d="M222.623,231.144v-17.51a4.919,4.919,0,0,0-4.919-4.919h9.5a4.919,4.919,0,0,1,4.919,4.919v17.51a4.919,4.919,0,0,1-4.919,4.919h-9.5A4.919,4.919,0,0,0,222.623,231.144Z" fill="#cecece"/><rect x="151.921" y="8.964" width="80.202" height="27.348" rx="4.919" ry="4.919" fill="#9e9e9e"/><rect x="23.877" y="36.312" width="80.202" height="27.348" rx="4.919" ry="4.919" fill="#9e9e9e"/><path d="M33.377,58.741V41.231A4.919,4.919,0,0,1,38.3,36.312H28.8a4.919,4.919,0,0,0-4.919,4.919v17.51A4.919,4.919,0,0,0,28.8,63.66h9.5A4.919,4.919,0,0,1,33.377,58.741Z" fill="#707070"/><rect x="98.187" y="92.796" width="59.625" height="59.625" fill="#63bce7"/><rect x="109.391" y="103.999" width="37.219" height="37.219" transform="translate(250.608 -5.392) rotate(90)" fill="#f46275"/><circle cx="109.39" cy="79.131" r="7.162" fill="#9e9e9e"/><circle cx="146.61" cy="79.131" r="7.162" fill="#9e9e9e"/><circle cx="109.39" cy="165.896" r="7.162" fill="#9e9e9e"/><circle cx="146.61" cy="165.896" r="7.162" fill="#9e9e9e"/><circle cx="171.477" cy="103.999" r="7.162" fill="#9e9e9e"/><circle cx="171.477" cy="141.218" r="7.162" fill="#9e9e9e"/><circle cx="84.523" cy="103.999" r="7.162" fill="#9e9e9e"/><circle cx="84.523" cy="141.218" r="7.162" fill="#9e9e9e"/><rect x="23.877" y="8.964" width="80.202" height="27.348" rx="4.919" ry="4.919" fill="#9e9e9e"/><path d="M33.377,31.393V13.883A4.919,4.919,0,0,1,38.3,8.964H28.8a4.919,4.919,0,0,0-4.919,4.919v17.51A4.919,4.919,0,0,0,28.8,36.312h9.5A4.919,4.919,0,0,1,33.377,31.393Z" fill="#707070"/><path d="M33.377,231.144v-17.51a4.919,4.919,0,0,1,4.919-4.919H28.8a4.919,4.919,0,0,0-4.919,4.919v17.51a4.919,4.919,0,0,0,4.919,4.919h9.5A4.919,4.919,0,0,1,33.377,231.144Z" fill="#707070"/><path d="M33.377,203.8v-17.51a4.919,4.919,0,0,1,4.919-4.919H28.8a4.919,4.919,0,0,0-4.919,4.919V203.8a4.919,4.919,0,0,0,4.919,4.919h9.5A4.919,4.919,0,0,1,33.377,203.8Z" fill="#707070"/><path d="M222.623,31.393V13.883A4.919,4.919,0,0,0,217.7,8.964h9.5a4.919,4.919,0,0,1,4.919,4.919v17.51a4.919,4.919,0,0,1-4.919,4.919h-9.5A4.919,4.919,0,0,0,222.623,31.393Z" fill="#cecece"/><rect x="85.815" y="19.116" width="7.043" height="7.043" rx="1.43" ry="1.43" fill="#f8af23"/><rect x="35.097" y="19.116" width="39.168" height="7.043" fill="#f8af23"/><rect x="85.815" y="46.464" width="7.043" height="7.043" rx="1.43" ry="1.43" fill="#f8af23"/><rect x="35.097" y="46.464" width="39.168" height="7.043" fill="#f8af23"/><rect x="213.86" y="19.116" width="7.043" height="7.043" rx="1.43" ry="1.43" fill="#f8af23"/><rect x="163.142" y="19.116" width="39.168" height="7.043" fill="#f8af23"/><rect x="213.86" y="46.464" width="7.043" height="7.043" rx="1.43" ry="1.43" fill="#f8af23"/><rect x="163.142" y="46.464" width="39.168" height="7.043" fill="#f8af23"/><rect x="85.815" y="191.52" width="7.043" height="7.043" rx="1.43" ry="1.43" fill="#f8af23"/><rect x="35.097" y="191.52" width="39.168" height="7.043" fill="#f8af23"/><rect x="85.815" y="218.867" width="7.043" height="7.043" rx="1.43" ry="1.43" fill="#f8af23"/><rect x="35.097" y="218.867" width="39.168" height="7.043" fill="#f8af23"/><rect x="213.86" y="191.52" width="7.043" height="7.043" rx="1.43" ry="1.43" fill="#f8af23"/><rect x="163.142" y="191.52" width="39.168" height="7.043" fill="#f8af23"/><rect x="213.86" y="218.867" width="7.043" height="7.043" rx="1.43" ry="1.43" fill="#f8af23"/><rect x="163.142" y="218.867" width="39.168" height="7.043" fill="#f8af23"/><path d="M109.391,102.5a1.5,1.5,0,0,0-1.5,1.5v37.219a1.5,1.5,0,0,0,1.5,1.5h37.219a1.5,1.5,0,0,0,1.5-1.5V104a1.5,1.5,0,0,0-1.5-1.5Zm35.719,37.219H110.891V105.5h34.219Z" fill="#3f3679"/><path d="M100.729,79.131a8.67,8.67,0,0,0,7.162,8.523V91.3h-9.7a1.5,1.5,0,0,0-1.5,1.5v9.7H93.046a8.662,8.662,0,1,0,0,3h3.642v15.515H65.478v-43.9L71.167,82.8a1.5,1.5,0,0,0,2.121-2.121l-8.25-8.25a1.5,1.5,0,0,0-2.121,0l-8.25,8.25A1.5,1.5,0,0,0,56.789,82.8l5.689-5.689v90.8l-5.689-5.689a1.5,1.5,0,0,0-2.121,2.121l8.25,8.25a1.5,1.5,0,0,0,2.121,0l8.25-8.25a1.5,1.5,0,0,0-2.121-2.121l-5.689,5.689v-43.9h31.21v15.7H93.046a8.662,8.662,0,1,0,0,3h3.642v9.7a1.5,1.5,0,0,0,1.5,1.5h9.7v3.452a8.662,8.662,0,1,0,3,0v-3.452h34.219v3.452a8.663,8.663,0,1,0,3,0v-3.452h9.7a1.5,1.5,0,0,0,1.5-1.5v-9.7h3.642a8.662,8.662,0,1,0,0-3h-3.642v-15.7h31.21v43.9l-5.689-5.689a1.5,1.5,0,0,0-2.121,2.121l8.25,8.25a1.5,1.5,0,0,0,2.121,0l8.25-8.25a1.5,1.5,0,1,0-2.121-2.121l-5.689,5.689v-90.8l5.689,5.689a1.5,1.5,0,1,0,2.121-2.121l-8.25-8.25a1.5,1.5,0,0,0-2.121,0l-8.25,8.25a1.5,1.5,0,0,0,2.121,2.121l5.689-5.689v43.9h-31.21V105.5h3.642a8.662,8.662,0,1,0,0-3h-3.642V92.8a1.5,1.5,0,0,0-1.5-1.5h-9.7V87.654a8.662,8.662,0,1,0-3,0V91.3H110.891V87.654a8.658,8.658,0,1,0-10.162-8.523Zm-16.206,30.53A5.662,5.662,0,1,1,90.185,104,5.669,5.669,0,0,1,84.522,109.661Zm0,37.219a5.662,5.662,0,1,1,5.662-5.662A5.669,5.669,0,0,1,84.522,146.88Zm30.53,19.017a5.662,5.662,0,1,1-5.662-5.662A5.669,5.669,0,0,1,115.053,165.9Zm37.219,0a5.662,5.662,0,1,1-5.663-5.662A5.669,5.669,0,0,1,152.272,165.9Zm19.206-30.341a5.662,5.662,0,1,1-5.662,5.662A5.669,5.669,0,0,1,171.478,135.556Zm0-37.219A5.662,5.662,0,1,1,165.815,104,5.669,5.669,0,0,1,171.478,98.337Zm-30.53-19.206a5.662,5.662,0,1,1,5.662,5.662A5.669,5.669,0,0,1,140.947,79.131Zm15.365,71.79H99.688V94.3h56.625ZM109.391,73.469a5.662,5.662,0,1,1-5.662,5.662A5.669,5.669,0,0,1,109.391,73.469Z" fill="#3f3679"/><path d="M28.8,65.16H99.16a6.426,6.426,0,0,0,6.418-6.419V41.231a6.406,6.406,0,0,0-2.3-4.919,6.406,6.406,0,0,0,2.3-4.919V13.883A6.426,6.426,0,0,0,99.16,7.464H28.8a6.426,6.426,0,0,0-6.419,6.419v17.51a6.406,6.406,0,0,0,2.3,4.919,6.406,6.406,0,0,0-2.3,4.919v17.51A6.426,6.426,0,0,0,28.8,65.16ZM25.376,31.393V13.883A3.423,3.423,0,0,1,28.8,10.464H99.16a3.423,3.423,0,0,1,3.418,3.419v17.51a3.423,3.423,0,0,1-3.418,3.419H28.8A3.423,3.423,0,0,1,25.376,31.393ZM99.16,37.812a3.423,3.423,0,0,1,3.418,3.419v17.51A3.423,3.423,0,0,1,99.16,62.16H28.8a3.423,3.423,0,0,1-3.419-3.419V41.231A3.423,3.423,0,0,1,28.8,37.812Z" fill="#3f3679"/><path d="M156.84,65.16H227.2a6.426,6.426,0,0,0,6.419-6.419V41.231a6.406,6.406,0,0,0-2.3-4.919,6.406,6.406,0,0,0,2.3-4.919V13.883A6.426,6.426,0,0,0,227.2,7.464H156.84a6.426,6.426,0,0,0-6.418,6.419v17.51a6.406,6.406,0,0,0,2.3,4.919,6.406,6.406,0,0,0-2.3,4.919v17.51A6.426,6.426,0,0,0,156.84,65.16Zm-3.418-33.767V13.883a3.423,3.423,0,0,1,3.418-3.419H227.2a3.423,3.423,0,0,1,3.419,3.419v17.51a3.423,3.423,0,0,1-3.419,3.419H156.84A3.423,3.423,0,0,1,153.421,31.393ZM227.2,37.812a3.423,3.423,0,0,1,3.419,3.419v17.51A3.423,3.423,0,0,1,227.2,62.16H156.84a3.423,3.423,0,0,1-3.418-3.419V41.231a3.423,3.423,0,0,1,3.418-3.419Z" fill="#3f3679"/><path d="M27.323,245.536h-18a1.5,1.5,0,1,0,0,3h18a1.5,1.5,0,1,0,0-3Z" fill="#3f3679"/><path d="M246.68,245.536h-18a1.5,1.5,0,0,0,0,3h18a1.5,1.5,0,0,0,0-3Z" fill="#3f3679"/><path d="M218.479,245.536H37.521a1.5,1.5,0,0,0,0,3H218.479a1.5,1.5,0,0,0,0-3Z" fill="#3f3679"/><path d="M9.32,237.563H246.68a1.5,1.5,0,0,0,0-3H232.628a6.373,6.373,0,0,0,1-3.419v-17.51a6.406,6.406,0,0,0-2.3-4.919,6.405,6.405,0,0,0,2.3-4.918v-17.51a6.426,6.426,0,0,0-6.419-6.419H156.84a6.426,6.426,0,0,0-6.418,6.419V203.8a6.406,6.406,0,0,0,2.3,4.918,6.406,6.406,0,0,0-2.3,4.919v17.51a6.373,6.373,0,0,0,1,3.419H104.583a6.373,6.373,0,0,0,1-3.419v-17.51a6.406,6.406,0,0,0-2.3-4.919,6.406,6.406,0,0,0,2.3-4.918v-17.51a6.426,6.426,0,0,0-6.418-6.419H28.8a6.426,6.426,0,0,0-6.419,6.419V203.8a6.405,6.405,0,0,0,2.3,4.918,6.406,6.406,0,0,0-2.3,4.919v17.51a6.373,6.373,0,0,0,1,3.419H9.32a1.5,1.5,0,1,0,0,3Zm144.1-33.767v-17.51a3.423,3.423,0,0,1,3.418-3.419H227.2a3.423,3.423,0,0,1,3.419,3.419V203.8a3.423,3.423,0,0,1-3.419,3.418H156.84A3.423,3.423,0,0,1,153.421,203.8Zm0,27.348v-17.51a3.423,3.423,0,0,1,3.418-3.419H227.2a3.423,3.423,0,0,1,3.419,3.419v17.51a3.423,3.423,0,0,1-3.419,3.419H156.84A3.423,3.423,0,0,1,153.421,231.144ZM25.376,203.8v-17.51a3.423,3.423,0,0,1,3.419-3.419H99.16a3.423,3.423,0,0,1,3.418,3.419V203.8a3.423,3.423,0,0,1-3.418,3.418H28.8A3.423,3.423,0,0,1,25.376,203.8Zm0,27.348v-17.51a3.423,3.423,0,0,1,3.419-3.419H99.16a3.423,3.423,0,0,1,3.418,3.419v17.51a3.423,3.423,0,0,1-3.418,3.419H28.8A3.423,3.423,0,0,1,25.376,231.144Z" fill="#3f3679"/><path d="M91.429,17.617H87.245a2.933,2.933,0,0,0-2.93,2.929V24.73a2.933,2.933,0,0,0,2.93,2.93h4.184a2.933,2.933,0,0,0,2.93-2.93V20.546A2.933,2.933,0,0,0,91.429,17.617Zm-.07,7.044-4.043.069-.07-4.113,4.114-.071Z" fill="#3f3679"/><path d="M74.266,17.617H35.1a1.5,1.5,0,0,0-1.5,1.5V26.16a1.5,1.5,0,0,0,1.5,1.5H74.266a1.5,1.5,0,0,0,1.5-1.5V19.117A1.5,1.5,0,0,0,74.266,17.617Zm-1.5,7.043H36.6V20.617H72.766Z" fill="#3f3679"/><path d="M87.245,55.007h4.184a2.933,2.933,0,0,0,2.93-2.929V47.894a2.933,2.933,0,0,0-2.93-2.93H87.245a2.933,2.933,0,0,0-2.93,2.93v4.184A2.933,2.933,0,0,0,87.245,55.007Zm4.114-7.113v4.114l-4.043.07-.07-4.114Z" fill="#3f3679"/><path d="M35.1,55.007H74.266a1.5,1.5,0,0,0,1.5-1.5V46.464a1.5,1.5,0,0,0-1.5-1.5H35.1a1.5,1.5,0,0,0-1.5,1.5v7.043A1.5,1.5,0,0,0,35.1,55.007Zm1.5-7.043H72.766v4.043H36.6Z" fill="#3f3679"/><path d="M219.474,17.617H215.29a2.933,2.933,0,0,0-2.93,2.929V24.73a2.933,2.933,0,0,0,2.93,2.93h4.184a2.933,2.933,0,0,0,2.929-2.93V20.546A2.932,2.932,0,0,0,219.474,17.617Zm-.071,7.044-4.043.069-.07-4.113H219.4Z" fill="#3f3679"/><path d="M202.31,17.617H163.142a1.5,1.5,0,0,0-1.5,1.5V26.16a1.5,1.5,0,0,0,1.5,1.5H202.31a1.5,1.5,0,0,0,1.5-1.5V19.117A1.5,1.5,0,0,0,202.31,17.617Zm-1.5,7.043H164.642V20.617H200.81Z" fill="#3f3679"/><path d="M215.29,55.007h4.184a2.932,2.932,0,0,0,2.929-2.929V47.894a2.933,2.933,0,0,0-2.929-2.93H215.29a2.933,2.933,0,0,0-2.93,2.93v4.184A2.933,2.933,0,0,0,215.29,55.007Zm4.113-7.113v4.114l-4.043.07-.07-4.114Z" fill="#3f3679"/><path d="M163.142,55.007H202.31a1.5,1.5,0,0,0,1.5-1.5V46.464a1.5,1.5,0,0,0-1.5-1.5H163.142a1.5,1.5,0,0,0-1.5,1.5v7.043A1.5,1.5,0,0,0,163.142,55.007Zm1.5-7.043H200.81v4.043H164.642Z" fill="#3f3679"/><path d="M91.429,190.02H87.245a2.933,2.933,0,0,0-2.93,2.93v4.184a2.933,2.933,0,0,0,2.93,2.929h4.184a2.933,2.933,0,0,0,2.93-2.929v-4.184A2.933,2.933,0,0,0,91.429,190.02Zm-.07,7.044-4.043.07-.07-4.114,4.114-.07Z" fill="#3f3679"/><path d="M74.266,190.02H35.1a1.5,1.5,0,0,0-1.5,1.5v7.043a1.5,1.5,0,0,0,1.5,1.5H74.266a1.5,1.5,0,0,0,1.5-1.5V191.52A1.5,1.5,0,0,0,74.266,190.02Zm-1.5,7.043H36.6V193.02H72.766Z" fill="#3f3679"/><path d="M91.429,217.367H87.245a2.933,2.933,0,0,0-2.93,2.93v4.184a2.933,2.933,0,0,0,2.93,2.93h4.184a2.933,2.933,0,0,0,2.93-2.93V220.3A2.933,2.933,0,0,0,91.429,217.367Zm-.07,7.044-4.043.069-.07-4.114,4.114-.07Z" fill="#3f3679"/><path d="M74.266,217.367H35.1a1.5,1.5,0,0,0-1.5,1.5v7.043a1.5,1.5,0,0,0,1.5,1.5H74.266a1.5,1.5,0,0,0,1.5-1.5v-7.043A1.5,1.5,0,0,0,74.266,217.367Zm-1.5,7.043H36.6v-4.043H72.766Z" fill="#3f3679"/><path d="M219.474,190.02H215.29a2.933,2.933,0,0,0-2.93,2.93v4.184a2.933,2.933,0,0,0,2.93,2.929h4.184a2.932,2.932,0,0,0,2.929-2.929v-4.184A2.933,2.933,0,0,0,219.474,190.02Zm-.071,7.044-4.043.07-.07-4.114,4.113-.07Z" fill="#3f3679"/><path d="M202.31,190.02H163.142a1.5,1.5,0,0,0-1.5,1.5v7.043a1.5,1.5,0,0,0,1.5,1.5H202.31a1.5,1.5,0,0,0,1.5-1.5V191.52A1.5,1.5,0,0,0,202.31,190.02Zm-1.5,7.043H164.642V193.02H200.81Z" fill="#3f3679"/><path d="M219.474,217.367H215.29a2.933,2.933,0,0,0-2.93,2.93v4.184a2.933,2.933,0,0,0,2.93,2.93h4.184a2.933,2.933,0,0,0,2.929-2.93V220.3A2.933,2.933,0,0,0,219.474,217.367Zm-.071,7.044-4.043.069-.07-4.114,4.113-.07Z" fill="#3f3679"/><path d="M202.31,217.367H163.142a1.5,1.5,0,0,0-1.5,1.5v7.043a1.5,1.5,0,0,0,1.5,1.5H202.31a1.5,1.5,0,0,0,1.5-1.5v-7.043A1.5,1.5,0,0,0,202.31,217.367Zm-1.5,7.043H164.642v-4.043H200.81Z" fill="#3f3679"/></svg>