<svg xmlns="http://www.w3.org/2000/svg" viewBox="0 0 256 256"><title>icons_</title><path d="M207.558,129.235h35.668a1.454,1.454,0,0,1,1.454,1.454v28.8a1.454,1.454,0,0,1-1.454,1.454H218.989a1.454,1.454,0,0,0-1.059.458l-5.07,5.392a1.454,1.454,0,0,1-2.513-1v-3.4a1.454,1.454,0,0,0-1.454-1.454h-1.335a1.454,1.454,0,0,1-1.454-1.454v-28.8A1.454,1.454,0,0,1,207.558,129.235Z" fill="#f8af23"/><path d="M183.7,146.606h0a32.231,32.231,0,0,0-16.169-4.349H88.473A32.232,32.232,0,0,0,72.3,146.606h0a32.231,32.231,0,0,0-16.061,27.881v30.632H81.9v29.155h92.2V205.119h25.657V174.487A32.231,32.231,0,0,0,183.7,146.606Z" fill="#63bce7"/><rect x="81.899" y="205.119" width="9.5" height="29.155" fill="#6377e7"/><path d="M81.8,146.606h0a32.232,32.232,0,0,1,16.169-4.349h-9.5A32.232,32.232,0,0,0,72.3,146.606h0a32.231,32.231,0,0,0-16.061,27.881v30.632h9.5V174.487A32.231,32.231,0,0,1,81.8,146.606Z" fill="#6377e7"/><rect x="164.601" y="205.119" width="9.5" height="29.155" fill="#63e2e7"/><path d="M174.2,146.606h0a32.232,32.232,0,0,0-16.169-4.349h9.5a32.232,32.232,0,0,1,16.169,4.349h0a32.231,32.231,0,0,1,16.061,27.881v30.632h-9.5V174.487A32.231,32.231,0,0,0,174.2,146.606Z" fill="#63e2e7"/><path d="M116.52,117.411H139.48a0,0,0,0,1,0,0v28.8a10.5,10.5,0,0,1-10.5,10.5H127.02a10.5,10.5,0,0,1-10.5-10.5v-28.8a0,0,0,0,1,0,0Z" fill="#f8af23"/><path d="M116.52,117.411v28.8a10.5,10.5,0,0,0,9.5,10.45V117.411Z" fill="#f87023"/><rect x="84.36" y="41.24" width="87.28" height="87.28" fill="#63bce7"/><rect x="84.36" y="41.24" width="9.5" height="87.28" fill="#6377e7"/><rect x="162.14" y="41.24" width="9.5" height="87.28" fill="#63e2e7"/><rect x="100.759" y="57.639" width="54.481" height="54.482" transform="translate(212.88 -43.12) rotate(90)" fill="#f46275"/><circle cx="100.759" cy="21.237" r="10.484" fill="#9e9e9e"/><circle cx="155.241" cy="21.237" r="10.484" fill="#9e9e9e"/><circle cx="100.759" cy="148.245" r="10.484" fill="#9e9e9e"/><circle cx="155.241" cy="148.245" r="10.484" fill="#9e9e9e"/><circle cx="191.643" cy="57.639" r="10.484" fill="#9e9e9e"/><circle cx="191.643" cy="112.12" r="10.484" fill="#9e9e9e"/><circle cx="64.357" cy="57.639" r="10.484" fill="#9e9e9e"/><circle cx="64.357" cy="112.12" r="10.484" fill="#9e9e9e"/><path d="M99.775,21.237a10.475,10.475,0,0,1,5.734-9.338,10.484,10.484,0,1,0,0,18.676A10.475,10.475,0,0,1,99.775,21.237Z" fill="#707070"/><path d="M156.225,21.237a10.475,10.475,0,0,0-5.734-9.338,10.484,10.484,0,1,1,0,18.676A10.475,10.475,0,0,0,156.225,21.237Z" fill="#cecece"/><path d="M63.373,57.639A10.475,10.475,0,0,1,69.107,48.3a10.484,10.484,0,1,0,0,18.675A10.475,10.475,0,0,1,63.373,57.639Z" fill="#707070"/><path d="M192.627,57.639a10.475,10.475,0,0,0-5.734-9.338,10.484,10.484,0,1,1,0,18.675A10.475,10.475,0,0,0,192.627,57.639Z" fill="#cecece"/><path d="M192.627,112.12a10.475,10.475,0,0,0-5.734-9.338,10.484,10.484,0,1,1,0,18.675A10.475,10.475,0,0,0,192.627,112.12Z" fill="#cecece"/><path d="M63.373,112.12a10.475,10.475,0,0,1,5.734-9.338,10.484,10.484,0,1,0,0,18.676A10.475,10.475,0,0,1,63.373,112.12Z" fill="#707070"/><rect x="62.219" y="205.119" width="19.68" height="29.155" fill="#f8af23"/><rect x="62.219" y="205.119" width="9.5" height="29.155" fill="#f87023"/><rect x="174.101" y="205.119" width="19.68" height="29.155" fill="#f8af23"/><rect x="184.281" y="205.119" width="9.5" height="29.155" fill="#f8d323"/><path d="M48.442,129.235H12.774a1.454,1.454,0,0,0-1.454,1.454v28.8a1.454,1.454,0,0,0,1.454,1.454H37.011a1.454,1.454,0,0,1,1.059.458l5.07,5.392a1.454,1.454,0,0,0,2.513-1v-3.4a1.454,1.454,0,0,1,1.454-1.454h1.335A1.454,1.454,0,0,0,49.9,159.49v-28.8A1.454,1.454,0,0,0,48.442,129.235Z" fill="#f46275"/><path d="M20.82,159.49v-28.8a1.454,1.454,0,0,1,1.454-1.454h-9.5a1.454,1.454,0,0,0-1.454,1.454v28.8a1.454,1.454,0,0,0,1.454,1.454h9.5A1.454,1.454,0,0,1,20.82,159.49Z" fill="#f43075"/><path d="M235.18,159.49v-28.8a1.454,1.454,0,0,0-1.454-1.454h9.5a1.454,1.454,0,0,1,1.454,1.454v28.8a1.454,1.454,0,0,1-1.454,1.454h-9.5A1.454,1.454,0,0,0,235.18,159.49Z" fill="#f8d323"/><path d="M155.241,113.62a1.5,1.5,0,0,0,1.5-1.5V57.639a1.5,1.5,0,0,0-1.5-1.5H100.759a1.5,1.5,0,0,0-1.5,1.5V112.12a1.5,1.5,0,0,0,1.5,1.5Zm-1.5-20.268H143.516a1.5,1.5,0,0,0,0,3h10.226V110.62H113.31V96.353h14.448a6.508,6.508,0,0,1,6.5,6.5v2.387a1.5,1.5,0,1,0,3,0v-2.387a9.511,9.511,0,0,0-9.5-9.5H113.31V81.032a6.508,6.508,0,0,1,6.5-6.5h6.69V76.88a9.511,9.511,0,0,0,9.5,9.5h7.516a1.5,1.5,0,0,0,0-3H136a6.508,6.508,0,0,1-6.5-6.5V59.139h12.516v4.752a6.743,6.743,0,0,0,6.734,6.734,1.5,1.5,0,0,0,0-3,3.738,3.738,0,0,1-3.734-3.734V59.139h8.726ZM102.259,59.139H126.5V71.532h-6.69a9.511,9.511,0,0,0-9.5,9.5V110.62h-8.051Z" fill="#3f3679"/><path d="M27.323,243.747h-18a1.5,1.5,0,0,0,0,3h18a1.5,1.5,0,1,0,0-3Z" fill="#3f3679"/><path d="M246.68,243.747h-18a1.5,1.5,0,0,0,0,3h18a1.5,1.5,0,0,0,0-3Z" fill="#3f3679"/><path d="M218.479,243.747H37.521a1.5,1.5,0,0,0,0,3H218.479a1.5,1.5,0,0,0,0-3Z" fill="#3f3679"/><path d="M9.32,235.774H246.68a1.5,1.5,0,0,0,0-3h-51.4V206.619h4.478a1.5,1.5,0,0,0,1.5-1.5V174.487a33.728,33.728,0,0,0-33.731-33.73h-2.944a11.97,11.97,0,0,0-7.841-4.392V130.02h14.9a1.5,1.5,0,0,0,1.5-1.5v-14.9h6.623a11.984,11.984,0,1,0,0-3H173.14V59.139h6.623a11.983,11.983,0,1,0,0-3H173.14v-14.9a1.5,1.5,0,0,0-1.5-1.5h-14.9V33.116a11.984,11.984,0,1,0-3,0v6.623H102.259V33.116a11.983,11.983,0,1,0-3,0v6.623H84.36a1.5,1.5,0,0,0-1.5,1.5v14.9H76.237a11.984,11.984,0,1,0,0,3H82.86V110.62H76.237a11.984,11.984,0,1,0,0,3H82.86v14.9a1.5,1.5,0,0,0,1.5,1.5h14.9v6.345a11.97,11.97,0,0,0-7.841,4.392H88.474a33.73,33.73,0,0,0-33.731,33.73v30.632a1.5,1.5,0,0,0,1.5,1.5H60.72v26.155H9.32a1.5,1.5,0,0,0,0,3ZM191.643,103.136a8.984,8.984,0,1,1-8.984,8.984A8.994,8.994,0,0,1,191.643,103.136Zm0-54.48a8.984,8.984,0,1,1-8.984,8.983A8.994,8.994,0,0,1,191.643,48.655ZM146.257,21.237a8.984,8.984,0,1,1,8.984,8.983A8.994,8.994,0,0,1,146.257,21.237Zm-54.481,0a8.984,8.984,0,1,1,8.983,8.983A8.994,8.994,0,0,1,91.775,21.237ZM64.357,66.623a8.984,8.984,0,1,1,8.984-8.984A8.994,8.994,0,0,1,64.357,66.623Zm0,54.481a8.984,8.984,0,1,1,8.984-8.984A8.994,8.994,0,0,1,64.357,121.1ZM192.28,232.774H175.6V206.619H192.28Zm-28.056-84.529a8.984,8.984,0,1,1-8.983-8.984A8.994,8.994,0,0,1,164.225,148.245Zm-10.483-11.88a11.971,11.971,0,0,0-7.842,4.392h-4.92V130.02h12.762Zm-35.721-6.345h19.959v16.2a9.01,9.01,0,0,1-9,9h-1.959a9.01,9.01,0,0,1-9-9ZM85.86,42.739H170.14v84.28H85.86Zm29.16,87.28v10.737H110.1a11.972,11.972,0,0,0-7.842-4.392V130.02Zm-14.262,9.241a8.984,8.984,0,1,1-8.983,8.984A8.994,8.994,0,0,1,100.759,139.261ZM57.742,174.487a30.73,30.73,0,0,1,30.731-30.73h1.182a11.984,11.984,0,1,0,22.208,0h3.157v2.459a12.013,12.013,0,0,0,12,12h1.959a12.013,12.013,0,0,0,12-12v-2.459h3.157a11.984,11.984,0,1,0,22.208,0h1.182a30.733,30.733,0,0,1,30.731,30.73v29.132H175.6V183.41a1.5,1.5,0,1,0-3,0v49.364H83.4V183.41a1.5,1.5,0,0,0-3,0v20.209H57.742Zm5.978,32.132H80.4v26.155H63.72Z" fill="#3f3679"/><path d="M12.773,162.444l24.2-.016,5.069,5.392a2.953,2.953,0,0,0,5.106-2.022l-.046-3.354h1.335A2.957,2.957,0,0,0,51.4,159.49v-28.8a2.957,2.957,0,0,0-2.953-2.954H12.773a2.957,2.957,0,0,0-2.953,2.954v28.8A2.957,2.957,0,0,0,12.773,162.444ZM48.4,130.734l.047,28.71H47.107a2.957,2.957,0,0,0-2.954,2.953l.08,3.369-5.072-5.395a2.966,2.966,0,0,0-2.15-.928l-24.19.046-.047-28.756Z" fill="#3f3679"/><path d="M207.558,162.444l1.289-.047v3.4a2.952,2.952,0,0,0,5.105,2.023l5.037-5.377h24.237a2.957,2.957,0,0,0,2.953-2.954v-28.8a2.957,2.957,0,0,0-2.953-2.954H207.558a2.957,2.957,0,0,0-2.953,2.954v28.8A2.957,2.957,0,0,0,207.558,162.444Zm.047-31.71,35.575-.046.047,28.756H218.989a2.968,2.968,0,0,0-2.152.93l-4.99,5.424v-3.4a2.957,2.957,0,0,0-2.954-2.953l-1.288.046Z" fill="#3f3679"/><path d="M33.138,135.93l-.49,11.409a1.033,1.033,0,0,1-1.032.989H29.6a1.033,1.033,0,0,1-1.032-.989l-.49-11.409a1.033,1.033,0,0,1,1.032-1.078h3A1.033,1.033,0,0,1,33.138,135.93Zm-.065,15.691v2.645A1.033,1.033,0,0,1,32.04,155.3H29.2a1.033,1.033,0,0,1-1.033-1.033v-2.645a1.033,1.033,0,0,1,1.033-1.033H32.04A1.033,1.033,0,0,1,33.073,151.621Z" fill="#3f3679"/><rect x="220.568" y="150.307" width="5.904" height="5.712" rx="1.533" ry="1.533" fill="#3f3679"/><path d="M230.544,135.754h0a7.389,7.389,0,0,0-4.984-1.622,8.624,8.624,0,0,0-3.946.839,5.793,5.793,0,0,0-2.512,2.352,6.224,6.224,0,0,0-.765,3.277.5.5,0,0,0,.5.483h4.437a.5.5,0,0,0,.5-.5,1.6,1.6,0,0,1,.427-1.157,1.559,1.559,0,0,1,1.195-.437,1.413,1.413,0,0,1,1.052.376,1.49,1.49,0,0,1,.378,1.108,1.578,1.578,0,0,1-.831,1.579,6.438,6.438,0,0,1-2.858.511h-1.846a.5.5,0,0,0-.5.5v4.45a1.535,1.535,0,0,0,1.533,1.533h3.4a.5.5,0,0,0,.5-.5v-1.972a7.129,7.129,0,0,0,4.363-1.648,5.677,5.677,0,0,0,1.865-4.482A5.9,5.9,0,0,0,230.544,135.754Z" fill="#3f3679"/></svg>