<?xml version="1.0" encoding="utf-8"?>
<!-- Generator: Adobe Illustrator 18.0.0, SVG Export Plug-In . SVG Version: 6.00 Build 0)  -->
<!DOCTYPE svg PUBLIC "-//W3C//DTD SVG 1.1//EN" "http://www.w3.org/Graphics/SVG/1.1/DTD/svg11.dtd">
<svg version="1.1" id="Layer_1" xmlns="http://www.w3.org/2000/svg" xmlns:xlink="http://www.w3.org/1999/xlink" x="0px" y="0px"
	 viewBox="0 0 256 256" style="enable-background:new 0 0 256 256;" xml:space="preserve">
<style type="text/css">
	.st0{fill:#1C868E;}
	.st1{fill:#40C4DF;}
	.st2{fill:#F85252;}
	.st3{fill:#491352;}
	.st4{fill:#7BEFE4;}
	.st5{fill:none;stroke:#491352;stroke-width:4;stroke-linecap:round;stroke-linejoin:round;stroke-miterlimit:10;}
	.st6{fill:#FFFFFF;}
	.st7{fill:#56C1B3;}
	.st8{fill:#D73735;}
	.st9{fill:#D8D6D7;}
	.st10{fill:#EDAF85;}
	.st11{fill:#F7C09A;}
	.st12{fill:none;stroke:#491352;stroke-width:4;stroke-miterlimit:10;}
</style>
<g id="XMLID_1191_">
	<path id="XMLID_1360_" class="st9" d="M127.986,245.137c-62.124,0-112.667-50.542-112.667-112.667S65.861,19.803,127.986,19.803
		S240.652,70.346,240.652,132.47S190.11,245.137,127.986,245.137z"/>
	<circle id="XMLID_1358_" class="st6" cx="127.986" cy="132.47" r="103.092"/>
	<g id="XMLID_1357_">
		<path id="XMLID_1356_" class="st10" d="M158.224,87.391c0,12.817-7.978,23.772-19.24,28.171
			c-3.402,1.334-7.112,2.068-10.999,2.068c-18.067,0-31.94-15.765-30.092-33.172c1.466-15.325,14.371-27.306,30.092-27.306
			c3.886,0,7.596,0.733,10.999,2.068C150.261,63.62,158.224,74.589,158.224,87.391z"/>
		<path id="XMLID_1355_" class="st11" d="M158.224,87.391c0,12.817-7.978,23.772-19.24,28.171
			c-12.333-4.81-20.545-17.451-19.093-31.104c1.1-11.541,8.696-21.191,19.093-25.238C150.261,63.62,158.224,74.589,158.224,87.391z"
			/>
		<path id="XMLID_1354_" class="st0" d="M189.944,179.588v10.867c0,4.047-3.285,7.332-7.332,7.332H73.36
			c-4.047,0-7.332-3.285-7.332-7.332v-10.867c0-27.643,18.111-51.063,43.1-59.025c5.954-1.906,12.289-2.933,18.859-2.933
			c3.666,0,7.244,0.323,10.735,0.939c2.771,0.484,5.485,1.144,8.124,1.994c9.517,3.036,18.052,8.315,24.945,15.207
			C183.008,146.989,189.944,162.475,189.944,179.588z"/>
		<path id="XMLID_1353_" class="st1" d="M189.944,179.588v10.867c0,4.047-3.285,7.332-7.332,7.332H94.829
			c-4.047,0-7.332-3.285-7.332-7.332v-10.867c0-27.643,18.111-51.063,43.1-59.025c2.64-0.851,5.352-1.511,8.124-1.994
			c2.771,0.484,5.485,1.144,8.124,1.994c9.517,3.036,18.052,8.315,24.945,15.207C183.008,146.989,189.944,162.475,189.944,179.588z"
			/>
		<path id="XMLID_1352_" class="st10" d="M146.844,120.563l-18.859,26.778l-18.859-26.778c5.954-1.906,12.289-2.933,18.859-2.933
			S140.891,118.656,146.844,120.563z"/>
		<path id="XMLID_1351_" class="st1" d="M158.078,84.459c-1.818,0.411-3.696,0.616-5.617,0.616c-7.403,0-14.156-3.121-19.303-8.263
			c-2.826-2.823-7.518-2.823-10.344,0.001c-5.146,5.142-11.896,8.263-19.288,8.263c-1.921,0-3.813-0.205-5.631-0.616
			c1.466-15.325,14.371-27.306,30.092-27.306S156.611,69.134,158.078,84.459z"/>
		<path id="XMLID_1350_" class="st0" d="M127.986,57.153c3.886,0,7.596,0.733,10.999,2.068
			c-8.506,3.314-15.134,10.368-17.862,19.152c-4.898,4.209-10.984,6.702-17.598,6.702c-1.921,0-3.813-0.205-5.631-0.616
			C99.36,69.134,112.265,57.153,127.986,57.153z"/>
	</g>
	<circle id="XMLID_1359_" class="st9" cx="127.986" cy="22.428" r="19.882"/>
	<circle id="XMLID_1362_" class="st9" cx="22.943" cy="127.47" r="19.882"/>
	<circle id="XMLID_1363_" class="st9" cx="127.986" cy="233.593" r="19.882"/>
	<circle id="XMLID_1364_" class="st9" cx="233.028" cy="127.47" r="19.882"/>
	<circle id="XMLID_1361_" class="st4" cx="127.986" cy="22.428" r="9.5"/>
	<path id="XMLID_1365_" class="st1" d="M12.246,131.984l8.099-14.028c1.155-2,4.041-2,5.196,0l8.099,14.028
		c1.155,2-0.289,4.5-2.598,4.5H14.844C12.535,136.484,11.092,133.984,12.246,131.984z"/>
	<path id="XMLID_1366_" class="st2" d="M132.61,243.218h-9.25c-2.75,0-5-2.25-5-5v-9.25c0-2.75,2.25-5,5-5h9.25c2.75,0,5,2.25,5,5
		v9.25C137.61,240.968,135.36,243.218,132.61,243.218z"/>
	<path id="XMLID_1370_" class="st0" d="M238.862,127.47l3.381-3.381c1.604-1.604,1.604-4.229,0-5.834
		c-1.604-1.604-4.229-1.604-5.834,0l-3.381,3.381l-3.381-3.381c-1.604-1.604-4.229-1.604-5.834,0c-1.604,1.604-1.604,4.229,0,5.834
		l3.381,3.381l-3.381,3.381c-1.604,1.605-1.604,4.229,0,5.834s4.229,1.604,5.834,0l3.381-3.381l3.381,3.381
		c1.604,1.604,4.229,1.604,5.834,0c1.604-1.604,1.604-4.229,0-5.834L238.862,127.47z"/>
	<g id="XMLID_1052_">
		<path id="XMLID_1188_" class="st3" d="M191.944,190.453v-10.867c0-30.852-21.958-56.671-51.067-62.652
			c11.835-5.186,19.888-17.207,19.313-30.9l0.045-0.01l-0.168-1.753c-1.588-16.599-15.38-29.115-32.083-29.115
			c-16.747,0-30.499,12.561-32.081,29.094c-0.063,0.655-0.18,1.876-0.17,1.774l0.045,0.01c-0.574,13.654,7.442,25.699,19.313,30.9
			c-29.108,5.981-51.067,31.801-51.067,62.652v10.867c0,5.146,4.187,9.333,9.333,9.333h109.252
			C187.758,199.786,191.944,195.599,191.944,190.453z M155.847,82.838c-7.554,1.078-15.326-1.497-21.276-7.44
			c-3.631-3.627-9.54-3.628-13.171,0.001c-6.062,6.057-13.866,8.496-21.276,7.438C105.094,51.774,150.739,51.031,155.847,82.838z
			 M99.761,86.815c9.118,1.233,17.927-2.052,24.466-8.587c2.038-2.036,5.479-2.037,7.517,0c6.414,6.407,15.193,9.842,24.466,8.587
			c0.312,15.703-12.278,28.814-28.311,28.814C112.261,115.582,99.44,102.718,99.761,86.815z M125.986,195.786H73.36
			c-2.94,0-5.333-2.392-5.333-5.333v-10.867c0-26.19,16.886-48.498,40.338-56.645l17.621,25.033V195.786z M112.382,121.7
			c10.146-2.738,20.9-2.782,31.213,0.001l-15.606,22.17L112.382,121.7z M129.986,147.985l17.626-25.041
			c23.449,8.149,40.332,30.454,40.332,56.643v10.867c0,2.94-2.392,5.333-5.333,5.333h-52.626V147.985z"/>
		<path id="XMLID_1372_" class="st3" d="M239.726,106.64c-10.14-43.88-45.55-78.21-90.01-86.77c-1.27-10.87-10.53-19.32-21.73-19.32
			s-20.46,8.45-21.73,19.32c-44.46,8.56-79.87,42.89-90.01,86.77c-19.172,6.166-20.513,32.933-1.94,40.93
			c6.62,50.13,45.75,90.15,95.46,98.12c8.374,13.033,28.092,12.993,36.44,0c49.71-7.97,88.84-47.99,95.46-98.12
			c7.78-3.35,13.24-11.1,13.24-20.1C254.906,117.74,248.526,109.47,239.726,106.64z M149.806,23.96
			c41.89,8.41,75.31,40.55,85.57,81.75c-1.822-0.189-3.749-0.163-5.71,0.14c-10.1-38.54-41.59-68.52-80.96-76.41
			C149.306,27.7,149.686,25.86,149.806,23.96z M127.986,4.55c8.74,0,16.03,6.3,17.57,14.59c3.734,19.024-21.53,29.204-32.37,13.33
			C105.169,20.546,113.718,4.55,127.986,4.55z M106.166,23.96c0.12,1.9,0.5,3.74,1.1,5.48c-39.37,7.89-70.86,37.87-80.96,76.41
			c-1.961-0.303-3.888-0.329-5.71-0.14C30.856,64.51,64.276,32.37,106.166,23.96z M5.066,127.47c0-12.694,12.769-21.094,24.19-16.73
			c6.76,2.56,11.57,9.09,11.57,16.73c0,8.24-5.6,15.19-13.19,17.25C16.418,147.837,5.066,139.317,5.066,127.47z M18.536,148.91
			c2.013,0.408,4.099,0.513,5.71,0.4c6.92,42.82,39.81,77.04,81.92,85.96c0.179,2.2,0.638,4.148,1.32,5.96
			C61.526,232.59,25.496,195.44,18.536,148.91z M138.966,247.7c-10.862,8.46-26.912,1.862-28.69-11.63
			c-1.483-10.919,6.998-20.36,17.71-20.36C144.341,215.71,152.714,236.753,138.966,247.7z M127.986,211.71
			c-11.26,0-20.56,8.55-21.74,19.49c-0.03-0.01-0.06-0.01-0.09-0.02c-40.1-8.85-71.33-41.59-77.95-82.47
			c21.042-5.211,22.433-34.697,1.99-41.88c9.8-37.35,40.48-66.33,78.75-73.64c8.389,14.792,29.667,14.835,38.08,0
			c38.27,7.31,68.95,36.29,78.75,73.64c-20.452,7.187-19.04,36.672,1.99,41.88c-6.62,40.88-37.85,73.62-77.95,82.47
			c-0.03,0.01-0.06,0.01-0.09,0.02C148.546,220.26,139.246,211.71,127.986,211.71z M148.486,241.23
			c0.683-1.813,1.142-3.761,1.32-5.96c42.11-8.92,75-43.14,81.92-85.96c1.605,0.113,3.69,0.01,5.71-0.4
			C230.476,195.44,194.446,232.59,148.486,241.23z M232.286,145.33c-9.284-0.34-17.14-8.06-17.14-17.86
			c0-12.951,13.479-21.798,25.55-16.16C258.229,119.684,251.623,146.123,232.286,145.33z"/>
		<path id="XMLID_1626_" class="st3" d="M127.986,33.928c6.341,0,11.5-5.159,11.5-11.5s-5.159-11.5-11.5-11.5
			c-6.341,0-11.5,5.159-11.5,11.5S121.644,33.928,127.986,33.928z M127.986,14.928c4.136,0,7.5,3.364,7.5,7.5s-3.364,7.5-7.5,7.5
			c-4.136,0-7.5-3.364-7.5-7.5S123.85,14.928,127.986,14.928z"/>
		<path id="XMLID_1630_" class="st3" d="M35.372,130.984l-8.099-14.027c-1.924-3.332-6.734-3.336-8.66,0l-8.099,14.027
			c-1.924,3.332,0.477,7.5,4.33,7.5h16.198C34.889,138.484,37.298,134.32,35.372,130.984z M14.844,134.484
			c-0.77,0-1.251-0.832-0.866-1.5c8.259-13.648,7.761-14.527,8.965-14.527c1.241,0,1.005,1.374,8.965,14.527
			c0.26,0.451,0.087,0.85,0,1C31.287,135.058,30.215,134.167,14.844,134.484z"/>
		<path id="XMLID_1633_" class="st3" d="M132.611,221.968h-9.25c-3.86,0-7,3.14-7,7v9.25c0,3.86,3.14,7,7,7h9.25c3.86,0,7-3.14,7-7
			v-9.25C139.611,225.108,136.47,221.968,132.611,221.968z M135.611,238.218c0,1.654-1.346,3-3,3h-9.25c-1.654,0-3-1.346-3-3v-9.25
			c0-1.654,1.346-3,3-3h9.25c1.654,0,3,1.346,3,3V238.218z"/>
		<path id="XMLID_1636_" class="st3" d="M243.656,116.842c-2.388-2.389-6.274-2.39-8.662,0l-1.967,1.966l-1.967-1.966
			c-2.388-2.388-6.274-2.389-8.662,0c-2.388,2.388-2.388,6.275,0,8.662l1.966,1.967l-1.966,1.967
			c-3.872,3.872-1.079,10.453,4.331,10.453c3.549,0,4.968-2.701,6.298-3.757l1.967,1.966c2.388,2.389,6.274,2.388,8.662,0
			c2.387-2.388,2.387-6.273,0-8.662l-1.966-1.967l1.966-1.967C246.045,123.115,246.045,119.23,243.656,116.842z M240.828,135.27
			c-2.791,2.791-5.327-3.967-7.8-3.967c-1.393,0-1.748,1.145-4.795,3.967c-1.993,1.989-4.988-1.021-3.005-3.005l3.381-3.381
			c2.676-2.675-3.999-5.146-3.999-7.712c0-1.896,2.292-2.832,3.623-1.502l3.381,3.381c0.78,0.781,2.048,0.781,2.828,0l3.381-3.381
			c1.989-1.987,4.992,1.017,3.005,3.005l-3.381,3.381C234.341,129.161,244.051,132.046,240.828,135.27z"/>
	</g>
</g>
</svg>
