<?xml version="1.0" encoding="utf-8"?>
<!-- Generator: Adobe Illustrator 18.0.0, SVG Export Plug-In . SVG Version: 6.00 Build 0)  -->
<!DOCTYPE svg PUBLIC "-//W3C//DTD SVG 1.1//EN" "http://www.w3.org/Graphics/SVG/1.1/DTD/svg11.dtd">
<svg version="1.1" id="Layer_1" xmlns="http://www.w3.org/2000/svg" xmlns:xlink="http://www.w3.org/1999/xlink" x="0px" y="0px"
	 viewBox="0 0 256 256" style="enable-background:new 0 0 256 256;" xml:space="preserve">
<style type="text/css">
	.st0{fill:#1C868E;}
	.st1{fill:#40C4DF;}
	.st2{fill:#F85252;}
	.st3{fill:#491352;}
	.st4{fill:#7BEFE4;}
	.st5{fill:none;stroke:#491352;stroke-width:4;stroke-linecap:round;stroke-linejoin:round;stroke-miterlimit:10;}
	.st6{fill:#FFFFFF;}
	.st7{fill:#56C1B3;}
	.st8{fill:#D73735;}
	.st9{fill:#D8D6D7;}
	.st10{fill:#EDAF85;}
	.st11{fill:#F7C09A;}
	.st12{fill:none;stroke:#491352;stroke-width:4;stroke-miterlimit:10;}
</style>
<g id="XMLID_50_">
	<path id="XMLID_244_" class="st0" d="M217.649,125.769L200.79,102.19V86.57c0-41.79-31.36-76.28-71.83-81.21
		c-3.639-0.444-7.34-0.654-11.117-0.602C73.89,5.355,37.902,41.203,37.162,85.154c-0.26,15.446,3.743,29.8,10.911,42.166
		c4.968,8.571,9.449,17.416,13.374,26.512l7.943,18.407c1.48,3.44,2.6,7,3.35,10.65c0.76,3.64,1.14,7.36,1.14,11.1
		c0,11.88-3.85,23.44-10.98,32.94l-12.23,16.32c-2.48,3.3-0.13,8,4,8h87.3c2.761,0,5-2.239,5-5v-29.93L146.96,206c0-2.76,2.24-5,5-5
		h17.18c4.61,0,8.9-2.37,11.35-6.27l6.08-9.65c4.65-7.38,8.2-15.33,10.59-23.62c0.94-3.25,1.7-6.54,2.27-9.87
		c0.9-5.18,1.36-10.46,1.36-15.76v-0.01h11.69C217.65,135.82,220.657,129.975,217.649,125.769z"/>
	<path id="XMLID_242_" class="st1" d="M217.649,125.769L200.79,102.19V86.57c0-41.79-31.36-76.28-71.83-81.21
		C88.5,10.29,57.15,44.78,57.15,86.57c0,14.646,3.836,28.276,10.559,40.117c5.015,8.832,9.72,17.836,13.744,27.162l7.936,18.391
		c1.48,3.44,2.6,7,3.35,10.65c0.76,3.64,1.14,7.36,1.14,11.1c0,11.88-3.85,23.44-10.98,32.94l-12.23,16.32c-2.48,3.3-0.13,8,4,8
		h67.3c2.761,0,5-2.239,5-5v-29.93L146.96,206c0-2.76,2.24-5,5-5h17.18c4.61,0,8.9-2.37,11.35-6.27l6.08-9.65
		c4.65-7.38,8.2-15.33,10.59-23.62c0.94-3.25,1.7-6.54,2.27-9.87c0.9-5.18,1.36-10.46,1.36-15.76v-0.01h11.69
		C217.65,135.82,220.657,129.975,217.649,125.769z"/>
	<line id="XMLID_199_" class="st1" x1="200.79" y1="151.74" x2="199.43" y2="151.59"/>
	<circle id="XMLID_2_" class="st0" cx="170.872" cy="85.838" r="9.264"/>
	<circle id="XMLID_24_" class="st2" cx="95.734" cy="119.007" r="9.783"/>
	<circle id="XMLID_25_" class="st2" cx="141.73" cy="27.244" r="9.783"/>
	<circle id="XMLID_26_" class="st2" cx="70.072" cy="95.62" r="9.783"/>
	<circle id="XMLID_27_" class="st2" cx="121.733" cy="179.132" r="9.783"/>
	<g id="XMLID_261_">
		<path id="XMLID_267_" class="st3" d="M170.87,74.57c-5.78,0-10.56,4.39-11.19,10h-13.4v-8.21c0-1.1-0.89-2-2-2c-1.1,0-2,0.9-2,2
			v51.72h-18.55v-9.07c0-1.11-0.89-2-2-2c-1.1,0-2,0.89-2,2v30.73H109c-1.11,0-2,0.89-2,2c0,1.1,0.89,2,2,2h10.73v13.79
			c-5.54,0.96-9.78,5.79-9.78,11.6c0,6.5,5.29,11.78,11.78,11.78c6.5,0,11.79-5.28,11.79-11.78c0-5.81-4.24-10.64-9.79-11.6v-35.45
			h38c1.1,0,2-0.9,2-2c0-1.1-0.9-2-2-2h-15.45V88.57h13.68c1.23,4.89,5.65,8.53,10.91,8.53c6.21,0,11.27-5.05,11.27-11.26
			C182.14,79.63,177.08,74.57,170.87,74.57z M129.52,179.13c0,4.29-3.5,7.78-7.79,7.78c-4.29,0-7.78-3.49-7.78-7.78
			c0-4.29,3.49-7.78,7.78-7.78C126.02,171.35,129.52,174.84,129.52,179.13z M170.87,93.1c-3.64,0-6.66-2.7-7.18-6.2
			c0.05-0.277,0.079-0.493-0.08-0.97v-0.09c0-4.01,3.26-7.27,7.26-7.27c4.01,0,7.27,3.26,7.27,7.27
			C178.14,89.84,174.88,93.1,170.87,93.1z"/>
		<path id="XMLID_530_" class="st3" d="M219.28,124.61c-17.302-24.191-16.49-22.662-16.49-24.02V87.6
			c-0.169-0.81,2.552-33.082-24.56-60.23C145.746-5.14,92.943-5.695,59.93,27.08c-25.472,25.263-31.081,62.349-17.92,92.67
			c2.336,3.497,24.462,47.933,28.22,61.09c3.868,15.005,0.908,31.797-8.93,44.89l-12.24,16.32c-1.6,2.14-1.85,4.94-0.66,7.33
			c1.2,2.39,3.6,3.87,6.27,3.87h87.3c3.86,0,7-3.14,7-7c-0.003-10.455-0.008-30.42-0.01-40.25c0-1.608,1.303-3,3-3h17.18
			c11.416,0,14.431-10.389,16.64-12.91c0.02-0.01,0.03-0.02,0.03-0.04c10.442-15.927,16.585-33.263,16.94-52.23h9.73
			C219.339,137.82,223.183,130.052,219.28,124.61z M212.48,133.82h-11.69c-0.96,0-1.77,0.68-1.96,1.6
			c-0.655,3.927,0.645,12.096-4.22,27.55c-11.65,4.85-24.92,2.23-33.84-6.69c-0.78-0.79-2.05-0.79-2.83,0
			c-0.78,0.78-0.78,2.04,0,2.82c6.72,6.72,15.62,10.28,24.71,10.28c3.43,0,6.9-0.51,10.28-1.55c-1.896,4.995-4.067,9.51-6.86,14.24
			c-7.827,13.044-9.822,16.93-16.93,16.93h-17.18c-1.87,0-3.62,0.73-4.95,2.05c-1.32,1.32-2.05,3.08-2.05,4.95
			c0.004,9.777,0.013,32.238,0.01,40.25c0,1.65-1.35,3-3,3h-87.3c-1.17,0-2.17-0.62-2.69-1.66
			c-3.311-6.623,25.299-21.291,23.83-56.51c-0.186-4.148-1.23-10.11-1.63-10.91c-4.07-16.502-27.134-59.06-27.18-59.16h21.07v20.14
			c0,1.11,0.9,2,2,2c1.11,0,2-0.89,2-2v-20.14h12.06c0.96,5.54,5.79,9.78,11.6,9.78c6.5,0,11.79-5.29,11.79-11.78
			c0-6.5-5.29-11.78-11.79-11.78c-5.81,0-10.64,4.23-11.6,9.78H45.2c-9.735-23.381-7.81-50.698,6.28-72.98h16.59v39.99
			c-5.54,0.95-9.78,5.79-9.78,11.6c0,6.5,5.29,11.78,11.78,11.78c6.5,0,11.78-5.28,11.78-11.78c0-5.81-4.23-10.65-9.78-11.6V72.29
			h29.76c1.11,0,2-0.9,2-2c0-1.11-0.89-2-2-2H90.69c0.27-0.34,0.44-0.77,0.44-1.24V30.21c0-1.11-0.9-2-2-2c-1.11,0-2,0.89-2,2v36.84
			c0,0.47,0.17,0.9,0.44,1.24h-15.5V44.03h7.32c1.1,0,2-0.9,2-2c0-1.11-0.9-2-2-2h-25.2C67.217,21.947,86.62,10.697,107,7.659V91.29
			c0,1.1,0.89,2,2,2c1.1,0,2-0.9,2-2V29.15c0.502,0.167-0.39,0.059,19.13,0.09c0.95,5.55,5.79,9.79,11.6,9.79
			c6.5,0,11.78-5.29,11.78-11.79c0-6.49-5.28-11.78-11.78-11.78c-5.81,0-10.65,4.24-11.6,9.78c-19.576,0.041-18.554-0.092-19.13,0.1
			V7.168c1.977-0.194,4.114-0.418,7.96-0.418c0.217,0.062,41.8-1.912,66.8,36.7h-57.99c-1.11,0-2,0.89-2,2c0,1.1,0.89,2,2,2h14.51
			v16.48c0,1.11,0.9,2,2,2c1.11,0,2-0.89,2-2V47.45h41.91c12.046,21.179,10.459,40.563,10.6,41.65v11.49
			c0.051,0.977-0.181,2.092,0.36,2.74c0,0.024,16.856,23.591,16.87,23.61C218.076,129.802,216.046,133.82,212.48,133.82z
			 M87.95,119.01c0-4.29,3.49-7.78,7.78-7.78c4.3,0,7.79,3.49,7.79,7.78c0,4.29-3.49,7.78-7.79,7.78
			C91.44,126.79,87.95,123.3,87.95,119.01z M70.07,87.84c4.29,0,7.78,3.49,7.78,7.78c0,4.29-3.49,7.78-7.78,7.78
			s-7.78-3.49-7.78-7.78C62.29,91.33,65.78,87.84,70.07,87.84z M133.95,27.24c0-4.29,3.49-7.78,7.78-7.78
			c4.29,0,7.78,3.49,7.78,7.78c0,4.3-3.49,7.79-7.78,7.79C137.44,35.03,133.95,31.54,133.95,27.24z"/>
	</g>
</g>
</svg>
