<?xml version="1.0" encoding="utf-8"?>
<!-- Generator: Adobe Illustrator 18.0.0, SVG Export Plug-In . SVG Version: 6.00 Build 0)  -->
<!DOCTYPE svg PUBLIC "-//W3C//DTD SVG 1.1//EN" "http://www.w3.org/Graphics/SVG/1.1/DTD/svg11.dtd">
<svg version="1.1" id="Layer_1" xmlns="http://www.w3.org/2000/svg" xmlns:xlink="http://www.w3.org/1999/xlink" x="0px" y="0px"
	 viewBox="0 0 256 256" style="enable-background:new 0 0 256 256;" xml:space="preserve">
<style type="text/css">
	.st0{fill:#1C868E;}
	.st1{fill:#40C4DF;}
	.st2{fill:#F85252;}
	.st3{fill:#491352;}
	.st4{fill:#7BEFE4;}
	.st5{fill:none;stroke:#491352;stroke-width:4;stroke-linecap:round;stroke-linejoin:round;stroke-miterlimit:10;}
	.st6{fill:#FFFFFF;}
	.st7{fill:#56C1B3;}
	.st8{fill:#D73735;}
	.st9{fill:#D8D6D7;}
	.st10{fill:#EDAF85;}
	.st11{fill:#F7C09A;}
	.st12{fill:none;stroke:#491352;stroke-width:4;stroke-miterlimit:10;}
</style>
<g id="XMLID_55_">
	<g id="XMLID_1526_">
		<path id="XMLID_3966_" class="st0" d="M208.428,128c0,22.789-9.472,43.364-24.706,57.993
			c-11.857,11.412-27.217,19.206-44.311,21.625c-3.732,0.537-7.532,0.81-11.412,0.81c-21.636,0-41.275-8.536-55.723-22.435
			C57.043,171.364,47.572,150.789,47.572,128c0-22.789,9.472-43.364,24.706-57.993C86.725,56.107,106.364,47.572,128,47.572
			c3.88,0,7.68,0.274,11.412,0.81c17.094,2.419,32.454,10.214,44.311,21.625C198.957,84.636,208.428,105.211,208.428,128z"/>
	</g>
	<g id="XMLID_1525_">
		<path id="XMLID_3964_" class="st1" d="M208.428,128c0,22.789-9.472,43.364-24.706,57.993
			c-11.857,11.412-27.217,19.206-44.311,21.625c-17.094-2.419-32.454-10.214-44.311-21.625
			C79.866,171.364,70.395,150.789,70.395,128c0-22.789,9.472-43.364,24.706-57.993c11.857-11.412,27.217-19.206,44.311-21.625
			c17.094,2.419,32.454,10.214,44.311,21.625C198.957,84.636,208.428,105.211,208.428,128z"/>
	</g>
	<g id="XMLID_1990_">
		<circle id="XMLID_1989_" class="st2" cx="128" cy="13.94" r="11.19"/>
		<circle id="XMLID_1991_" class="st2" cx="128" cy="242.06" r="11.19"/>
	</g>
	<g id="XMLID_1992_">
		<circle id="XMLID_1994_" class="st2" cx="242.06" cy="128" r="11.19"/>
		<circle id="XMLID_1993_" class="st2" cx="13.94" cy="128" r="11.19"/>
	</g>
	<circle id="XMLID_2064_" class="st2" cx="184.858" cy="184.858" r="11.19"/>
	<circle id="XMLID_1996_" class="st2" cx="71.142" cy="71.142" r="11.19"/>
	<g id="XMLID_1517_">
		<circle id="XMLID_1522_" class="st2" cx="71.142" cy="184.858" r="11.19"/>
		<circle id="XMLID_1521_" class="st2" cx="184.858" cy="71.142" r="11.19"/>
	</g>
	<path id="XMLID_1789_" class="st3" d="M243.56,114.62c-6.14-53.48-48.7-96.04-102.18-102.18C140.64,5.72,134.92,0.47,128,0.47
		s-12.64,5.25-13.38,11.97c-53.48,6.14-96.04,48.7-102.18,102.18C5.72,115.36,0.47,121.08,0.47,128c0,6.92,5.25,12.64,11.97,13.38
		c6.14,53.48,48.7,96.04,102.18,102.18c0.74,6.72,6.46,11.97,13.38,11.97s12.64-5.25,13.38-11.97
		c53.48-6.14,96.04-48.7,102.18-102.18c6.72-0.74,11.97-6.46,11.97-13.38C255.53,121.08,250.28,115.36,243.56,114.62z
		 M239.01,114.88c-1.72,0.4-3.32,1.13-4.72,2.12L196,78.71c3.497-5.084,3.143-12.346-1.62-17.09c-4.64-4.65-11.85-5.19-17.09-1.62
		L139,21.71c0.99-1.4,1.72-3,2.12-4.72C192.29,23,233,63.71,239.01,114.88z M180,192.33c-7.433-4.809-3.919-16.37,4.86-16.37
		c3.258,0,6.247,1.757,7.83,4.64C197.061,188.655,187.876,197.305,180,192.33z M135.77,231.06c-4.653-3.293-10.882-3.297-15.54,0
		l-28.87-28.87c22.565,11.163,49.906,11.563,73.28,0L135.77,231.06z M62.23,184.86c0-11.733,17.82-11.737,17.82,0
		c0,3.096-1.606,5.888-4.05,7.47C69.876,196.199,62.23,191.787,62.23,184.86z M64.84,64.84c6.368-6.331,17.27-0.239,14.9,8.65
		c-1.022,3.714-4.405,6.55-8.6,6.55C63.218,80.04,59.258,70.455,64.84,64.84z M120.23,24.94c4.652,3.293,10.882,3.297,15.54,0
		l28.87,28.87l0,0c-22.565-11.163-49.906-11.563-73.28,0l0,0L120.23,24.94z M191.16,77.44c-3.439,3.439-9.091,3.509-12.6,0
		c-3.847-3.846-3.501-10.475,1.44-13.77C189.523,57.961,198.393,70.209,191.16,77.44z M191.73,173.27
		c-5.58-3.309-12.759-2.102-16.86,2.55c-2.65-1.84-5.39-3.5-8.22-4.99c-0.003-0.002-0.006-0.003-0.009-0.005
		c7.016-12.841,10.112-26.332,9.386-40.545h30.093C205.68,145.95,200.67,160.76,191.73,173.27z M173.26,191.72
		c-11.615,8.219-24.834,12.917-37.85,14.08c0,0,0,0-0.01,0c-0.004,0-0.007,0.001-0.011,0.001
		c12.528-9.692,22.194-20.057,28.96-31.031l0.001,0c2.78,1.46,5.47,3.1,8.07,4.9C170.874,183.354,170.998,187.918,173.26,191.72z
		 M64.27,173.26c-8.94-12.5-13.95-27.31-14.39-42.98h30.09c-0.742,14.163,2.385,27.732,9.38,40.55c-2.83,1.49-5.57,3.15-8.22,4.99
		C76.999,171.134,69.809,169.979,64.27,173.26z M81.13,80.18c3.86,2.67,7.91,4.98,12.13,6.93c-6.3,11.36-11.41,24.48-12.93,38.61
		H49.88c0.44-15.67,5.45-30.49,14.39-43C69.762,86.015,76.976,84.889,81.13,80.18z M82.74,64.28
		c12.297-8.701,25.743-13.242,39.16-14.19c-6.11,5.93-17.13,17.65-26.35,33.05c-4.17-1.9-8.18-4.18-11.97-6.81
		C85.126,72.646,85.002,68.081,82.74,64.28z M173.26,64.28c-2.263,3.803-2.385,8.368-0.84,12.05
		c-5.806,4.029-9.938,5.771-11.973,6.811c-9.221-15.396-20.232-27.118-26.348-33.051c0.001,0.001,0-0.001,0.001,0
		C148.249,51.09,161.541,55.987,173.26,64.28z M162.538,168.789c-10.039-4.619-20.967-7.178-32.255-7.489v-31.02h41.165
		C172.205,143.744,169.247,156.572,162.538,168.789z M84.55,130.28h41.168v31.02c-11.289,0.31-22.229,2.88-32.268,7.49
		C86.504,156.158,83.803,143.179,84.55,130.28z M125.718,52.802V90.13c-8.919-0.25-17.608-2.01-25.768-5.14
		C109.149,69.812,120.097,58.263,125.718,52.802z M125.718,94.7v31.02H84.95c1.57-13.34,6.56-25.86,12.67-36.74
		C106.489,92.48,115.969,94.44,125.718,94.7z M125.718,165.87v38.088c-13.069-9.75-23.068-20.169-29.938-31.208
		C105.109,168.52,115.249,166.16,125.718,165.87z M130.282,203.947V165.87c10.469,0.29,20.608,2.65,29.928,6.88
		c0.002,0.001,0.003,0.002,0.005,0.002C153.335,183.785,143.342,194.207,130.282,203.947z M130.282,125.72V94.7
		c9.749-0.27,19.239-2.22,28.108-5.73c0,0,0,0,0.001,0c6.107,10.885,11.093,23.403,12.659,36.75H130.282z M156.06,84.99
		c-8.159,3.13-16.849,4.89-25.778,5.14V52.799c5.633,5.467,16.575,17.009,25.782,32.19C156.063,84.989,156.062,84.99,156.06,84.99z
		 M82.74,191.72c2.263-3.803,2.385-8.368,0.84-12.05c2.6-1.8,5.29-3.44,8.07-4.9c6.75,10.97,16.41,21.34,28.94,31.03
		C107.593,204.639,94.274,199.882,82.74,191.72z M175.665,125.72c-1.525-14.127-6.629-27.25-12.927-38.609
		c1.154-0.595,5.954-2.657,12.132-6.931c4.086,4.632,11.258,5.878,16.85,2.55c8.95,12.5,13.96,27.32,14.4,42.99H175.665z M45.29,128
		c0,12.93,2.92,25.37,8.47,36.59l-28.82-28.82c3.293-4.652,3.297-10.882,0-15.54l28.82-28.82C48.21,102.63,45.29,115.07,45.29,128z
		 M202.24,91.41l28.82,28.82c-3.293,4.652-3.297,10.881,0,15.54l-28.82,28.82C213.319,142.192,213.757,114.692,202.24,91.41z
		 M136.69,11.98c0.342,1.537,0.284,3.061-0.17,4.57c-2.585,8.403-14.479,8.324-17.04,0C115.857,4.522,134.078,0.325,136.69,11.98z
		 M114.88,16.99c0.4,1.72,1.13,3.32,2.12,4.72L78.71,60C66.465,51.657,51.669,66.535,60,78.71L21.71,117c-1.4-0.99-3-1.72-4.72-2.12
		C23,63.71,63.71,23,114.88,16.99z M5.03,128c0-9.054,12.044-12.315,16.61-4.47c2.474,4.209,1.037,9.686-3.23,12.17
		C12.561,139.13,5.03,134.903,5.03,128z M16.99,141.12c1.72-0.4,3.32-1.13,4.72-2.12L60,177.29l0,0
		c-5.983,8.698,0.154,21.03,11.14,21.03c2.65,0,5.29-0.77,7.57-2.32l0,0L117,234.29l0,0c-0.99,1.4-1.72,3-2.12,4.72
		C63.71,233,23,192.29,16.99,141.12z M128,250.97c-6.881,0-11.142-7.511-7.7-13.38c5.057-8.688,18.613-3.563,16.39,6.43
		C135.8,247.99,132.24,250.97,128,250.97z M141.12,239.01c-0.4-1.72-1.13-3.32-2.12-4.72l0,0L177.29,196l0,0
		c12.159,8.266,27.085-6.534,18.71-18.71l0,0L234.29,139c1.4,0.99,3,1.72,4.72,2.12C233,192.29,192.29,233,141.12,239.01z
		 M244.02,136.69c-7.654,1.701-13.538-6.562-9.66-13.16c4.501-7.733,16.61-4.751,16.61,4.47
		C250.97,132.24,247.99,135.8,244.02,136.69z"/>
</g>
</svg>
