<?xml version="1.0" encoding="utf-8"?>
<!-- Generator: Adobe Illustrator 22.1.0, SVG Export Plug-In . SVG Version: 6.00 Build 0)  -->
<svg version="1.1" id="Layer_1" xmlns="http://www.w3.org/2000/svg" xmlns:xlink="http://www.w3.org/1999/xlink" x="0px" y="0px"
	 viewBox="0 0 256 256" style="enable-background:new 0 0 256 256;" xml:space="preserve">
<style type="text/css">
	.st0{fill:#1C868E;}
	.st1{fill:#40C4DF;}
	.st2{fill:#F85252;}
	.st3{fill:#491352;}
	.st4{fill:#FFFFFF;}
	.st5{fill:#56C1B3;}
	.st6{fill:#7BEFE4;}
	.st7{fill:#D73735;}
	.st8{fill:#D8D6D7;}
	.st9{fill:#EDAF85;}
	.st10{fill:#F7C09A;}
	.st11{fill:none;stroke:#491352;stroke-width:4;stroke-miterlimit:10;}
</style>
<g>
	<path id="XMLID_2043_" class="st8" d="M215.938,92.737v94.353c0,2.761-2.239,5-5,5h-61.768v40.935h19.764c2.75,0,5,2.25,5,5v9.804
		c0,2.75-2.25,5-5,5h-81.88c-2.75,0-5-2.25-5-5v-9.804c0-2.75,2.25-5,5-5h19.764v-40.935H46.505c-3.569,0-6.442-2.886-6.442-6.442
		V94.179c0-3.556,2.873-6.442,6.442-6.442h164.433C213.699,87.737,215.938,89.975,215.938,92.737z"/>
	<path id="XMLID_2042_" class="st4" d="M215.938,92.737v94.353c0,2.761-2.239,5-5,5h-61.768v40.935h19.764c2.75,0,5,2.25,5,5v9.804
		c0,2.75-2.25,5-5,5H107.54c-2.75,0-5-2.25-5-5v-9.804c0-2.75,2.25-5,5-5h19.777v-40.935H65.549c-2.761,0-5-2.239-5-5V92.737
		c0-2.761,2.239-5,5-5h145.389C213.699,87.737,215.938,89.975,215.938,92.737z"/>
	<path id="XMLID_2041_" class="st1" d="M195.527,178.454H60.461c-3.558,0-6.442-2.884-6.442-6.442v-64.204
		c0-3.558,2.884-6.442,6.442-6.442h135.066c3.558,0,6.442,2.884,6.442,6.442v64.204C201.969,175.57,199.085,178.454,195.527,178.454
		z"/>
	<path id="XMLID_2047_" class="st0" d="M60.55,101.366v77.09h-0.09c-3.56,0-6.44-2.89-6.44-6.44v-64.21c0-3.56,2.88-6.44,6.44-6.44
		H60.55z"/>
	<path id="XMLID_1381_" class="st0" d="M91.353,170.496H70.77c-2.761,0-5-2.239-5-5v-9.5c0-2.761,2.239-5,5-5h20.583
		c2.761,0,5,2.239,5,5v9.5C96.353,168.258,94.114,170.496,91.353,170.496z"/>
	<path id="XMLID_1449_" class="st0" d="M138.291,170.496h-20.583c-2.761,0-5-2.239-5-5v-9.5c0-2.761,2.239-5,5-5h20.583
		c2.761,0,5,2.239,5,5v9.5C143.291,168.258,141.053,170.496,138.291,170.496z"/>
	<path id="XMLID_1450_" class="st0" d="M185.42,170.496h-20.583c-2.761,0-5-2.239-5-5v-9.5c0-2.761,2.239-5,5-5h20.583
		c2.761,0,5,2.239,5,5v9.5C190.42,168.258,188.182,170.496,185.42,170.496z"/>
	<path id="XMLID_703_" class="st0" d="M194.46,67.182c-0.39-0.31-0.39-0.9,0-1.22c4.2-3.4,6.89-8.59,6.89-14.41
		c0-8.92-6.3-16.37-14.7-18.14c-0.42-0.08-0.71-0.48-0.63-0.9c0.31-1.71,0.32-3.53-0.07-5.41c-1.27-6.23-6.62-10.95-12.97-11.41
		c-2.1-0.15-4.11,0.15-5.94,0.82c-0.41,0.14-0.85-0.16-0.84-0.59c0-3.05-1.21-5.85-3.18-7.89c-1.97-2.05-4.7-3.34-7.75-3.35
		c-2.78-0.01-5.31,1.02-7.25,2.71c-0.36,0.31-0.9,0.25-1.17-0.14c-1.95-2.77-5.21-4.55-8.88-4.41c-5.62,0.21-9.97,5.03-9.97,10.65
		v106.17c0,5.62,4.35,10.43,9.97,10.65c3.67,0.14,6.93-1.64,8.88-4.41c0.27-0.39,0.81-0.46,1.17-0.15c2.6,2.27,6.27,3.34,10.16,2.33
		c4.77-1.25,8.02-5.67,8.02-10.6v-0.01c0-0.56,0.55-0.93,1.08-0.75c1.77,0.61,3.69,0.88,5.7,0.73c6.35-0.46,11.7-5.18,12.97-11.41
		c0.39-1.87,0.38-3.69,0.07-5.41c-0.08-0.42,0.21-0.81,0.63-0.9c8.4-1.77,14.7-9.21,14.7-18.13c0-4.05-1.3-7.79-3.5-10.83
		C196.88,69.432,195.74,68.222,194.46,67.182z"/>
	<path id="XMLID_455_" class="st0" d="M118.03,2.842c-3.67-0.14-6.93,1.64-8.88,4.41c-0.27,0.39-0.81,0.45-1.17,0.14
		c-2.6-2.27-6.27-3.34-10.16-2.32c-4.77,1.25-8.02,5.66-8.02,10.59v0.01c0,0.56-0.55,0.93-1.08,0.75c-1.77-0.61-3.69-0.88-5.7-0.73
		c-6.35,0.46-11.7,5.18-12.97,11.41c-0.39,1.88-0.38,3.7-0.07,5.41c0.08,0.42-0.21,0.82-0.63,0.9c-8.4,1.77-14.7,9.22-14.7,18.14
		c0,5.82,2.69,11.01,6.89,14.41c0.39,0.32,0.39,0.91,0,1.22c-1.28,1.04-2.42,2.25-3.39,3.59c-2.2,3.04-3.5,6.78-3.5,10.83
		c0,8.92,6.3,16.36,14.7,18.13c0.42,0.09,0.71,0.48,0.63,0.9c-0.31,1.72-0.32,3.54,0.07,5.41c1.27,6.23,6.62,10.95,12.97,11.41
		c2.1,0.16,4.11-0.15,5.94-0.81c0.41-0.15,0.85,0.15,0.84,0.59c0,3.04,1.21,5.84,3.18,7.89c1.97,2.04,4.7,3.33,7.75,3.34
		c2.78,0.01,5.31-1.01,7.25-2.71c0.36-0.31,0.9-0.24,1.17,0.15c1.95,2.77,5.21,4.55,8.88,4.41c5.62-0.22,9.97-5.03,9.97-10.65
		V13.491C128,7.872,123.65,3.051,118.03,2.842z"/>
	<path id="XMLID_65_" class="st1" d="M194.46,67.182c-0.39-0.31-0.39-0.9,0-1.22c4.2-3.4,6.89-8.59,6.89-14.41
		c0-8.92-6.3-16.37-14.7-18.14c-0.42-0.08-0.71-0.48-0.63-0.9c0.31-1.71,0.32-3.53-0.07-5.41c-1.27-6.23-6.62-10.95-12.97-11.41
		c-2.1-0.15-4.11,0.15-5.94,0.82c-0.41,0.14-0.85-0.16-0.84-0.59c0-3.05-1.21-5.85-3.18-7.89c-1.97-2.05-4.7-3.34-7.75-3.35
		c-2.78-0.01-5.31,1.02-7.25,2.71c-0.36,0.31-0.9,0.25-1.17-0.14c-1.95-2.77-5.21-4.55-8.88-4.41c-5.62,0.21-9.97,5.03-9.97,10.65
		v84.5c0,5.62,4.35,10.44,9.97,10.65c3.67,0.14,6.93-1.64,8.88-4.41c0.27-0.39,0.81-0.45,1.17-0.14c2.6,2.27,6.27,3.34,10.16,2.32
		c4.77-1.25,8.02-5.67,8.02-10.6v-0.01c0-0.56,0.55-0.93,1.08-0.74c1.77,0.6,3.69,0.87,5.7,0.73c6.35-0.47,11.7-5.18,12.97-11.42
		c0.39-1.87,0.38-3.69,0.07-5.4c-0.08-0.43,0.21-0.82,0.63-0.91c4.59-0.96,8.55-3.62,11.2-7.29
		C196.88,69.432,195.74,68.222,194.46,67.182z"/>
	<path id="XMLID_37_" class="st1" d="M118.03,2.842c-3.67-0.14-6.93,1.64-8.88,4.41c-0.27,0.39-0.81,0.45-1.17,0.14
		c-2.6-2.27-6.27-3.34-10.16-2.32c-4.77,1.25-8.02,5.66-8.02,10.59v0.01c0,0.56-0.55,0.93-1.08,0.75c-1.77-0.61-3.69-0.88-5.7-0.73
		c-6.35,0.46-11.7,5.18-12.97,11.41c-0.39,1.88-0.38,3.7-0.07,5.41c0.08,0.42-0.21,0.82-0.63,0.9c-8.4,1.77-14.7,9.22-14.7,18.14
		c0,5.82,2.69,11.01,6.89,14.41c0.39,0.32,0.39,0.91,0,1.22c-1.28,1.04-2.42,2.25-3.39,3.59c2.65,3.67,6.61,6.33,11.2,7.29
		c0.42,0.09,0.71,0.48,0.63,0.91c-0.31,1.71-0.32,3.53,0.07,5.4c1.27,6.24,6.62,10.95,12.97,11.42c2.1,0.15,4.11-0.15,5.94-0.82
		c0.41-0.15,0.85,0.15,0.84,0.59c0,3.05,1.21,5.85,3.18,7.89c1.97,2.05,4.7,3.34,7.75,3.35c2.78,0.01,5.31-1.02,7.25-2.71
		c0.36-0.31,0.9-0.25,1.17,0.14c1.95,2.77,5.21,4.55,8.88,4.41c5.62-0.21,9.97-5.03,9.97-10.65v-84.5
		C128,7.872,123.65,3.051,118.03,2.842z"/>
	<g>
		<path class="st3" d="M210.94,86.072h-8.105c1.66-7.35-0.829-14.663-6.026-19.498c4.174-3.882,6.541-9.281,6.541-15.024
			c0-9.279-6.327-17.445-15.197-19.83c0.18-1.671,0.1-3.353-0.239-5.014c-1.823-8.938-10.775-14.793-19.838-12.598
			c-1.315-9.779-12.408-14.702-20.372-9.013c-5.233-6.04-15.037-5.779-19.703,1.56c-4.659-7.327-14.468-7.6-19.701-1.561
			c-7.723-5.545-19.209-1.13-20.403,9.008c-10.901-2.623-21.257,6.373-20.048,17.618c-15.442,4.152-20.487,23.85-8.656,34.854
			c-5.201,4.837-7.685,12.153-6.026,19.498H45.06c-3.859,0-7,3.14-7,7v94.35c0,3.86,3.141,7,7,7h59.761v36.943H87.057
			c-3.859,0-7,3.14-7,7v9.8c0,3.86,3.141,7,7,7h81.887c3.859,0,7-3.14,7-7v-9.8c0-3.86-3.141-7-7-7H151.18v-36.943h59.761
			c3.859,0,7-3.14,7-7v-94.35C217.94,89.212,214.8,86.072,210.94,86.072z M130,105.445c5.59,3.871,10.812,2.274,15.498-2.451
			c0.778-0.784,0.772-2.05-0.012-2.828c-0.784-0.778-2.052-0.773-2.828,0.012c-4.674,4.712-8.273,4.441-12.658,0.059V59.378
			c0.311,0.022,0.621,0.051,0.931,0.051c2.795,0,5.504-0.915,7.755-2.604c2.299,1.72,5.034,2.594,7.777,2.594
			c3.329,0,6.658-1.267,9.193-3.802c0.781-0.781,0.781-2.047,0-2.828s-2.047-0.781-2.828,0c-3.073,3.071-7.834,3.454-11.327,1.146
			c3.597-5.075,3.139-12.165-1.401-16.705c-0.781-0.781-2.047-0.781-2.828,0c-0.781,0.781-0.781,2.047,0,2.828
			c3.503,3.504,3.506,9.205,0.012,12.719c-0.005,0.004-0.01,0.007-0.015,0.012c-0.004,0.004-0.006,0.009-0.01,0.013
			c-1.933,1.925-4.585,2.847-7.258,2.573V13.488c0-8.375,10.485-11.821,15.213-5.091c0.455,0.65,1.166,1.077,1.95,1.172
			c2.512,0.309,3.013-2.886,8.103-2.886c4.927,0.021,8.933,4.163,8.93,9.23c-0.004,1.825,1.814,3.098,3.524,2.474
			c2.653-0.963,5.528-0.965,8.105-0.1c-0.542,11.626-10.961,5.439-10.977,9.983c-0.004,1.029,0.786,2.007,2.086,2.007
			c7.001,0,11.679-2.837,12.707-9.887c2.179,1.758,3.767,4.242,4.353,7.116c0.315,1.543,0.335,3.109,0.059,4.651
			c-0.27,1.488,0.691,2.9,2.187,3.215c7.598,1.6,13.111,8.403,13.111,16.177c0,5.013-2.24,9.7-6.146,12.86
			c-0.657,0.531-1.034,1.32-1.034,2.164s0.377,1.633,1.034,2.164c10.906,8.823,6.483,26.206-6.965,29.038
			c-1.495,0.314-2.456,1.727-2.188,3.212c0.489,2.721,0.064,5.576-1.349,8.13c-12.739-0.034-6.224-10.984-10.844-11
			c-0.002,0-0.005,0-0.007,0c-1.102,0-1.996,0.891-2,1.993c-0.025,6.993,2.746,11.652,9.652,12.758
			c-1.877,1.471-4.178,2.411-6.666,2.593c-4.511,0.322-5.456-1.699-7.47-0.258c-0.734,0.524-1.173,1.376-1.173,2.281
			c0.004,8.02-9.224,11.64-14.823,6.794c0.353-5.618,3.038-7.699,8.874-7.699c2.801,0,2.701-3.991,0.095-4
			c-8.055-0.01-12.657,3.668-12.979,12c-6.232,7.485-15.362,2.533-15.362-4.919V105.445z M128,126.493
			c4.671,7.346,14.467,7.6,19.701,1.561c7.722,5.545,19.209,1.128,20.403-9.008c9.958,2.396,19.781-4.94,20.125-15.344h8.751
			c1.654,0,3,1.346,3,3v67.09c0,1.654-1.346,3-3,3H59.02c-1.654,0-3-1.346-3-3v-67.09c0-1.654,1.346-3,3-3h8.751
			c0.343,10.374,10.155,17.768,20.154,15.338c1.315,9.779,12.408,14.702,20.372,9.013C113.62,134.195,123.402,133.724,128,126.493z
			 M62.797,68.738c1.38-1.116,1.377-3.215,0-4.328c-10.906-8.823-6.483-26.206,6.965-29.038c1.495-0.314,2.456-1.727,2.188-3.212
			c-0.489-2.721-0.064-5.576,1.349-8.13c12.739,0.034,6.224,10.984,10.844,11c1.123,0,2.003-0.902,2.007-1.993
			c0.025-6.993-2.746-11.653-9.652-12.758c3.397-2.661,7.757-3.275,11.578-1.964c1.837,0.628,3.73-0.73,3.73-2.651
			c-0.004-8.02,9.223-11.638,14.823-6.794c-0.707,11.25-10.946,5.212-10.962,9.692c-0.004,1.029,0.786,2.007,2.086,2.007
			c8.266,0,12.576-3.972,12.887-12C116.857,1.099,126,6.02,126,13.488v14.214c-5.59-3.871-10.812-2.274-15.498,2.451
			c-1.861,1.875,0.977,4.698,2.84,2.816c4.674-4.712,8.273-4.441,12.658-0.059v40.855c-3.118-0.222-6.189,0.677-8.689,2.553
			c-8.55-6.393-20.215,0.79-16.967,4.039c0.781,0.781,2.047,0.781,2.828,0c3.072-3.072,7.833-3.455,11.327-1.146
			c-6.017,8.489,0.967,19.968,4.229,16.705c0.781-0.781,0.781-2.047,0-2.828c-3.503-3.504-3.506-9.205-0.012-12.719
			c0.005-0.004,0.01-0.007,0.015-0.012c0.004-0.004,0.006-0.009,0.01-0.013c1.933-1.926,4.583-2.848,7.258-2.574v41.887
			c0,8.355-10.469,11.84-15.214,5.09c-0.954-1.361-2.871-1.593-4.121-0.5c-5.806,5.08-14.865,0.891-14.86-7.015
			c0.004-1.829-1.815-3.095-3.524-2.474c-2.588,0.938-5.462,0.987-8.105,0.1c0.543-11.652,10.961-5.363,10.977-9.983
			c0.004-1.029-0.786-2.007-2.086-2.007c-7.001,0-11.679,2.837-12.707,9.887c-3.569-2.879-5.197-7.382-4.411-11.767
			c0.27-1.488-0.691-2.9-2.187-3.215C56.321,94.946,51.887,77.564,62.797,68.738z M168.943,235.365c1.654,0,3,1.346,3,3v9.8
			c0,1.654-1.346,3-3,3H87.057c-1.654,0-3-1.346-3-3v-9.8c0-1.654,1.346-3,3-3H168.943z M108.82,231.365v-36.943h38.359v36.943
			H108.82z M213.94,187.421c0,1.654-1.346,3-3,3H45.06c-1.654,0-3-1.346-3-3v-94.35c0-1.654,1.346-3,3-3h9.448
			c1.866,4.083,5.036,7.49,9.024,9.63H59.02c-3.859,0-7,3.14-7,7v67.09c0,3.86,3.141,7,7,7H196.98c3.859,0,7-3.14,7-7v-67.09
			c0-3.86-3.141-7-7-7h-4.512c3.988-2.14,7.158-5.547,9.024-9.63h9.448c1.654,0,3,1.346,3,3V187.421z"/>
		<path class="st3" d="M91.353,149.332H70.771c-3.859,0-7,3.14-7,7v9.5c0,3.86,3.141,7,7,7h20.582c3.859,0,7-3.14,7-7v-9.5
			C98.353,152.472,95.212,149.332,91.353,149.332z M94.353,165.832c0,1.654-1.346,3-3,3H70.771c-1.654,0-3-1.346-3-3v-9.5
			c0-1.654,1.346-3,3-3h20.582c1.654,0,3,1.346,3,3V165.832z"/>
		<path class="st3" d="M110.709,156.332v9.5c0,3.86,3.141,7,7,7h20.582c3.859,0,7-3.14,7-7v-9.5c0-3.86-3.141-7-7-7h-20.582
			C113.85,149.332,110.709,152.472,110.709,156.332z M114.709,156.332c0-1.654,1.346-3,3-3h20.582c1.654,0,3,1.346,3,3v9.5
			c0,1.654-1.346,3-3,3h-20.582c-1.654,0-3-1.346-3-3V156.332z"/>
		<path class="st3" d="M164.838,172.832h20.583c3.859,0,7-3.14,7-7v-9.5c0-3.86-3.141-7-7-7h-20.583c-3.859,0-7,3.14-7,7v9.5
			C157.838,169.691,160.979,172.832,164.838,172.832z M161.838,156.332c0-1.654,1.346-3,3-3h20.583c1.654,0,3,1.346,3,3v9.5
			c0,1.654-1.346,3-3,3h-20.583c-1.654,0-3-1.346-3-3V156.332z"/>
		<path class="st3" d="M156.797,96.559c1.104,0,2-0.896,2-2s-0.896-2-2-2c-2.842,0-5.242-1.908-5.999-4.509
			c4.571-1.03,7.999-5.116,7.999-9.994c0-1.104-0.896-2-2-2s-2,0.896-2,2c0,3.447-2.804,6.251-6.251,6.251s-6.252-2.804-6.252-6.251
			c0-1.104-0.896-2-2-2s-2,0.896-2,2c0,5.028,3.641,9.214,8.424,10.079C147.584,92.917,151.769,96.559,156.797,96.559z"/>
		<path class="st3" d="M151.716,10.052c-1.104,0-2,0.896-2,2c0,3.447-2.805,6.251-6.252,6.251s-6.251-2.804-6.251-6.251
			c0-2.643-4-2.646-4,0c0,5.028,3.641,9.213,8.423,10.079c0.865,4.783,5.051,8.425,10.079,8.425c1.104,0,2-0.896,2-2s-0.896-2-2-2
			c-2.842,0-5.243-1.908-6-4.509C153.621,20.265,155.79,10.052,151.716,10.052z"/>
		<path class="st3" d="M187.779,65.23c1.104,0,2-0.896,2-2c0-4.224-10.599-1.75-12.078,6.424
			c-8.181,1.48-10.653,12.079-6.424,12.079c1.104,0,2-0.896,2-2c0-2.842,1.908-5.243,4.509-6c1.03,4.572,5.116,8,9.994,8
			c2.642,0,2.646-4,0-4c-3.447,0-6.251-2.805-6.251-6.252S184.332,65.23,187.779,65.23z"/>
		<path class="st3" d="M194.556,47.386c1.868-1.883-0.984-4.691-2.84-2.817c-4.561,4.598-8.173,4.579-12.721,0
			c-1.859-1.877-4.702,0.941-2.838,2.818C182.096,53.367,188.259,53.734,194.556,47.386z"/>
		<path class="st3" d="M161.347,63.315c0.003,0,0.006,0,0.009,0c1.104-0.004,1.996-0.904,1.991-2.008
			c-0.014-3.215,0.688-5.554,2.085-6.952c3.497-3.5,8.904-0.357,8.917-4.036c0.004-1.104-0.889-2.003-1.993-2.007
			c-4.368,0.021-7.577,1.037-9.753,3.215c-2.179,2.179-3.273,5.475-3.256,9.795C159.352,62.425,160.246,63.315,161.347,63.315z"/>
		<path class="st3" d="M99.203,57.092c1.104,0,2-0.896,2-2c0-3.447,2.804-6.251,6.251-6.251s6.252,2.804,6.252,6.251
			c0,1.104,0.896,2,2,2c4.225,0,1.75-10.6-6.424-12.079c-1.486-8.208-12.078-10.633-12.078-6.424c0,1.104,0.896,2,2,2
			c2.842,0,5.242,1.908,5.999,4.509C97.292,46.88,95.138,57.092,99.203,57.092z"/>
		<path class="st3" d="M104.284,123.096c1.104,0,2-0.896,2-2c0-3.447,2.805-6.251,6.252-6.251s6.251,2.804,6.251,6.251
			c0,2.643,4,2.646,4,0c0-5.028-3.641-9.213-8.423-10.079c-1.486-8.209-12.079-10.632-12.079-6.425c0,1.104,0.896,2,2,2
			c2.842,0,5.243,1.908,6,4.509C102.379,112.882,100.21,123.096,104.284,123.096z"/>
		<path class="st3" d="M68.221,55.414c3.447,0,6.251,2.805,6.251,6.252c0,3.447-2.804,6.251-6.251,6.251c-2.642,0-2.646,4,0,4
			c5.028,0,9.213-3.642,10.078-8.424c4.783-0.865,8.424-5.051,8.424-10.079c0-1.104-0.896-2-2-2s-2,0.896-2,2
			c0,2.842-1.908,5.243-4.509,6c-1.782-7.909-11.994-10.07-11.994-6C66.221,54.518,67.116,55.414,68.221,55.414z"/>
		<path class="st3" d="M64.284,88.579c9.149-9.224,12.264,3.279,15.549,0.01c0.784-0.778,0.788-2.044,0.01-2.828
			c-5.939-5.98-12.101-6.347-18.398,0C59.581,87.64,62.424,90.455,64.284,88.579z"/>
		<path class="st3" d="M83.737,84.834c8.822,0,12.95-4.558,12.916-13.011c-0.006-1.104-0.927-2.003-2.009-1.992
			c-1.104,0.004-1.996,0.904-1.991,2.008c0.028,6.565-2.662,8.994-8.914,8.994C80.961,80.834,80.979,84.834,83.737,84.834z"/>
	</g>
</g>
</svg>
