<?xml version="1.0" encoding="utf-8"?>
<!-- Generator: Adobe Illustrator 18.0.0, SVG Export Plug-In . SVG Version: 6.00 Build 0)  -->
<!DOCTYPE svg PUBLIC "-//W3C//DTD SVG 1.1//EN" "http://www.w3.org/Graphics/SVG/1.1/DTD/svg11.dtd">
<svg version="1.1" id="Layer_1" xmlns="http://www.w3.org/2000/svg" xmlns:xlink="http://www.w3.org/1999/xlink" x="0px" y="0px"
	 viewBox="0 0 256 256" style="enable-background:new 0 0 256 256;" xml:space="preserve">
<style type="text/css">
	.st0{fill:#1C868E;}
	.st1{fill:#40C4DF;}
	.st2{fill:#F85252;}
	.st3{fill:#491352;}
	.st4{fill:#7BEFE4;}
	.st5{fill:none;stroke:#491352;stroke-width:4;stroke-linecap:round;stroke-linejoin:round;stroke-miterlimit:10;}
	.st6{fill:#FFFFFF;}
	.st7{fill:#56C1B3;}
	.st8{fill:#D73735;}
	.st9{fill:#D8D6D7;}
	.st10{fill:#EDAF85;}
	.st11{fill:#F7C09A;}
	.st12{fill:none;stroke:#491352;stroke-width:4;stroke-miterlimit:10;}
</style>
<g id="XMLID_3237_">
	<g id="XMLID_179_">
		<path id="XMLID_2011_" class="st8" d="M212.16,107.96v26.17c0,3.91-3.17,7.08-7.07,7.08h-16c-1.4,4.71-3.28,9.31-5.68,13.7
			l11.32,11.3c2.76,2.77,2.76,7.24,0,10l-15.77,15.78l-2.75,2.75c-2.76,2.75-7.23,2.75-10,0l-6.58-6.6l-4.72-4.73
			c-4.4,2.39-9,4.27-13.71,5.68v16c0,3.91-3.17,7.08-7.07,7.08h-26.17c-3.91,0-7.08-3.17-7.08-7.08v-16
			c-0.07-0.02-0.14-0.04-0.21-0.07c-0.91-0.26-1.81-0.55-2.7-0.87c-3.69-1.27-7.29-2.85-10.77-4.74l-8.57,8.57l-2.75,2.76
			c-2.75,2.75-7.24,2.75-9.99,0l-18.52-18.53c-2.76-2.76-2.76-7.23,0-10l11.32-11.32c-2.19-4-3.96-8.18-5.28-12.46H37.02
			c-3.91,0-7.08-3.17-7.08-7.08v-26.18c0-3.89,3.17-7.06,7.08-7.06h15.66c1.42-5.14,3.41-10.14,6.01-14.9L47.37,75.88
			c-2.76-2.75-2.76-7.24,0-10l18.52-18.5c2.75-2.76,7.24-2.76,9.99,0l2.75,2.75l8.57,8.56c4.34-2.36,8.86-4.23,13.51-5.62
			c0.06-0.02,0.11-0.03,0.17-0.05v-16c0-3.9,3.17-7.07,7.08-7.07h26.17c3.9,0,7.07,3.17,7.07,7.07v16c4.71,1.39,9.3,3.27,13.69,5.67
			l4.74-4.73l6.58-6.58c2.77-2.76,7.24-2.76,10,0l2.75,2.75l15.77,15.75c2.76,2.76,2.76,7.25,0,10l-11.32,11.33
			c2.4,4.38,4.28,8.96,5.68,13.67h16C208.99,100.88,212.16,104.05,212.16,107.96z"/>
	</g>
	<path id="XMLID_1944_" class="st2" d="M212.16,107.96v26.17c0,3.91-3.17,7.08-7.07,7.08h-16c-1.4,4.71-3.28,9.31-5.68,13.7
		l11.32,11.3c2.76,2.77,2.76,7.24,0,10l-15.77,15.78l-2.75,2.75c-2.76,2.75-7.23,2.75-10,0l-6.58-6.6l-4.72-4.73
		c-4.4,2.39-9,4.27-13.71,5.68v16c0,3.91-3.17,7.08-7.07,7.08h-7.87c-5.46,0-9.88-4.42-9.88-9.88v-7.58c0-1.22-0.8-2.28-1.96-2.67
		c-3.38-1.11-6.77-2.52-9.98-4.15c-1.1-0.55-2.33-0.32-3.19,0.55l-0.58,0.58c-0.91-0.26-1.81-0.55-2.7-0.87
		c-3.69-1.27-7.29-2.85-10.77-4.74l-8.57,8.57l-15.76-15.77c-2.76-2.76-2.76-7.23,0-10l9.86-9.86c0.85-0.85,1.07-2.15,0.53-3.22
		c-1.47-2.87-2.72-5.83-3.75-8.84c-0.38-1.12-1.45-1.86-2.64-1.86H55.32c-5.46,0-9.88-4.42-9.88-9.88v-23.38
		c0-3.89,3.17-7.06,7.08-7.06h13.56c1.25,0,2.32-0.83,2.69-2.02c1.16-3.78,2.65-7.48,4.46-11.06c0.55-1.1,0.37-2.41-0.49-3.28
		l-9.87-9.87c-2.76-2.75-2.76-7.24,0-10l15.76-15.75l8.57,8.56c4.34-2.36,8.86-4.23,13.51-5.62l0.81,0.81
		c0.7,0.7,1.78,0.85,2.66,0.4c3.32-1.71,6.74-3.13,10.23-4.28c1.17-0.38,1.97-1.44,1.97-2.67V36.19c0-2.37,0.83-4.54,2.21-6.24
		h15.54c3.9,0,7.07,3.17,7.07,7.07v16c4.71,1.39,9.3,3.27,13.69,5.67l4.74-4.73l6.58-6.58c2.77-2.76,7.24-2.76,10,0l2.75,2.75
		l15.77,15.75c2.76,2.76,2.76,7.25,0,10l-11.32,11.33c2.4,4.38,4.28,8.96,5.68,13.67h16C208.99,100.88,212.16,104.05,212.16,107.96z
		"/>
	<path id="XMLID_2160_" class="st1" d="M178.022,121.06c0,10.966-3.093,21.206-8.465,29.905
		c-4.67,7.541-11.053,13.923-18.593,18.593c-8.699,5.372-18.938,8.465-29.905,8.465c-6.789,0-13.307-1.183-19.345-3.364
		c-6.604-2.378-12.63-5.951-17.842-10.436c-4.855-4.189-8.995-9.18-12.211-14.774c-4.818-8.366-7.578-18.051-7.578-28.389
		c0-6.136,0.973-12.051,2.772-17.583c3.241-10.042,9.204-18.852,17.016-25.592c5.212-4.485,11.237-8.046,17.842-10.424
		c6.038-2.181,12.556-3.376,19.345-3.376C152.516,64.085,178.022,89.591,178.022,121.06z"/>
	<path id="XMLID_2599_" class="st9" d="M164.06,121.06c0,8.28-2.33,16.01-6.39,22.58c-3.52,5.69-8.34,10.51-14.04,14.03
		c-3.83,2.37-8.06,4.15-12.57,5.22c-3.21,0.77-6.56,1.17-10,1.17c-5.13,0-10.05-0.89-14.61-2.54c-4.98-1.79-9.53-4.49-13.47-7.88
		c-3.66-3.16-6.79-6.93-9.22-11.15c-3.63-6.32-5.72-13.63-5.72-21.43c0-4.63,0.74-9.1,2.1-13.28c2.44-7.58,6.95-14.23,12.84-19.32
		c3.94-3.38,8.49-6.07,13.47-7.87c4.56-1.64,9.48-2.54,14.61-2.54c3.45,0,6.81,0.41,10.02,1.17
		C150,83.74,164.06,100.75,164.06,121.06z"/>
	<path id="XMLID_2597_" class="st6" d="M164.06,121.06c0,8.28-2.33,16.01-6.39,22.58c-3.52,5.69-8.34,10.51-14.04,14.03
		c-3.83,2.37-8.06,4.15-12.57,5.22c-1.57-0.37-3.11-0.83-4.61-1.37c-4.98-1.79-9.53-4.49-13.47-7.88
		c-3.66-3.16-6.79-6.93-9.22-11.15c-3.63-6.32-5.72-13.63-5.72-21.43c0-4.63,0.74-9.1,2.1-13.28c2.44-7.58,6.95-14.23,12.84-19.32
		c3.94-3.38,8.49-6.07,13.47-7.87c1.51-0.54,3.05-1,4.63-1.37C150,83.74,164.06,100.75,164.06,121.06z"/>
	<path id="XMLID_2657_" class="st7" d="M248.45,235.3c0,0.84-0.08,1.68-0.24,2.51c-0.48,2.49-1.69,4.86-3.62,6.79
		c-5.12,5.13-13.45,5.13-18.58,0l-75.05-75.04c3.67-2.28,7.06-4.95,10.12-7.97c3.23-3.18,6.08-6.75,8.48-10.63l75.03,75.05
		C247.17,228.58,248.45,231.94,248.45,235.3z"/>
	<path id="XMLID_2653_" class="st4" d="M248.45,235.3c0,0.84-0.08,1.68-0.24,2.51c-4.96,1.53-10.58,0.32-14.5-3.61l-72.63-72.61
		c3.23-3.18,6.08-6.75,8.48-10.63l75.03,75.05C247.17,228.58,248.45,231.94,248.45,235.3z"/>
	<g id="XMLID_2689_">
		<path id="XMLID_2698_" class="st3" d="M121.06,76.04c-24.858,0-45.02,20.156-45.02,45.02c0,24.567,19.856,45,45.02,45
			c24.803,0,45-20.086,45-45C166.06,96.24,145.87,76.04,121.06,76.04z M121.06,162.06c-22.859,0-41.02-18.571-41.02-41
			c0-22.661,18.381-41.02,41.02-41.02c22.61,0,41,18.4,41,41.02C162.06,143.591,143.821,162.06,121.06,162.06z"/>
		<path id="XMLID_2709_" class="st3" d="M155.43,14.95c12.75,4.13,24.54,10.47,35.07,18.86c2.034,1.639,4.563-1.467,2.49-3.13
			c-10.9-8.69-23.12-15.26-36.32-19.54C154.145,10.33,152.925,14.138,155.43,14.95z"/>
		<path id="XMLID_2718_" class="st3" d="M86.53,15.02c12.67-4.13,26.01-5.95,39.45-5.36c2.635,0.121,2.833-3.879,0.18-4
			c-13.93-0.6-27.74,1.28-40.87,5.55C82.861,12.02,83.886,15.776,86.53,15.02z"/>
		<path id="XMLID_2719_" class="st3" d="M226.65,162.83c1.094,0.38,2.21-0.182,2.58-1.17c4.86-12.96,7.33-26.62,7.33-40.57v-0.18
			c0-2.643-4-2.648-4,0v0.16c0,13.49-2.38,26.67-7.08,39.18C225.09,161.29,225.62,162.44,226.65,162.83z"/>
		<path id="XMLID_2720_" class="st3" d="M228.53,91.26c0.72,2.561,4.557,1.502,3.86-1.07c-3.7-13.37-9.74-25.86-17.95-37.12
			c-1.571-2.143-4.793,0.223-3.24,2.35C219.13,66.29,224.96,78.35,228.53,91.26z"/>
		<path id="XMLID_2721_" class="st3" d="M30.8,55.56c7.559-10.412,17.118-19.812,28.77-27.54c2.202-1.46-0.004-4.792-2.21-3.33
			c-11.154,7.363-21.389,16.953-29.8,28.52C25.993,55.356,29.262,57.689,30.8,55.56z"/>
		<path id="XMLID_2722_" class="st3" d="M86.62,227.14c-12.114-3.899-24.091-10.13-35.06-18.88c-2.051-1.646-4.573,1.477-2.49,3.13
			c11.109,8.86,23.177,15.257,36.31,19.56C87.892,231.788,89.124,227.974,86.62,227.14z"/>
		<path id="XMLID_2723_" class="st3" d="M155.54,227.13c-12.535,4.069-25.746,5.902-39.46,5.32c-2.653-0.12-2.818,3.894-0.18,3.99
			c13.207,0.618,27.23-1.073,40.88-5.5C159.3,230.1,158.042,226.32,155.54,227.13z"/>
		<path id="XMLID_2724_" class="st3" d="M13.56,150.77c-0.722-2.55-4.552-1.482-3.86,1.07c3.622,13.112,9.64,25.72,17.93,37.14
			c1.541,2.134,4.811-0.199,3.24-2.35C23.237,176.159,17.208,163.986,13.56,150.77z"/>
		<path id="XMLID_2725_" class="st3" d="M16.62,81.92c0.935-2.493-2.834-3.878-3.74-1.4C8.21,92.845,5.55,106.731,5.55,121v0.11
			c0,2.62,4,2.629,4-0.04C9.55,107.744,11.88,94.668,16.62,81.92z"/>
		<path id="XMLID_2728_" class="st3" d="M246.01,224.6c-31.85-31.85,1.957,1.957-48.58-48.58c2.18-3.5,1.75-8.18-1.28-11.23
			l-10.28-10.25c1.86-3.6,3.44-7.4,4.69-11.33h14.53c5,0,9.07-4.07,9.07-9.08v-26.17c0-5-4.07-9.08-9.07-9.08h-14.53
			c-1.25-3.92-2.82-7.72-4.69-11.31l10.27-10.27c3.532-3.511,3.57-9.259,0.01-12.84l-18.53-18.5c-3.53-3.53-9.28-3.53-12.83,0
			l-10.26,10.27c-3.61-1.87-7.41-3.44-11.33-4.69V37.02c0-5-4.07-9.07-9.07-9.07h-26.17c-5.01,0-9.08,4.07-9.08,9.07v14.52
			c-3.87,1.24-7.67,2.81-11.31,4.69L77.29,45.97c-3.465-3.507-9.241-3.589-12.82-0.01l-18.51,18.5c-3.575,3.575-3.518,9.332,0,12.83
			l10.27,10.28c-2.06,3.98-3.76,8.19-5.06,12.54H37.02c-5.01,0-9.08,4.06-9.08,9.06v26.18c0,5.01,4.07,9.08,9.08,9.08h14.93
			c1.15,3.45,2.58,6.83,4.28,10.09L45.96,164.8c-3.53,3.54-3.53,9.3,0,12.83l18.51,18.52c1.71,1.71,3.99,2.65,6.41,2.65
			c2.43,0,4.7-0.94,6.41-2.65l10.28-10.28c3.6,1.86,7.4,3.44,11.31,4.69v14.53c0,5.01,4.07,9.08,9.08,9.08h26.17
			c5,0,9.07-4.07,9.07-9.08v-14.53c3.94-1.26,7.74-2.83,11.33-4.69l10.27,10.29c3.04,3.01,7.71,3.44,11.2,1.26
			c59.633,59.621,46.719,46.709,48.6,48.59C238.618,260.078,260.19,238.73,246.01,224.6z M167.62,193.32l-12.36-12.38
			c-1.335,0.649-5.824,3.609-14.63,6.23l-1.43,0.43v17.49c0,2.8-2.27,5.08-5.07,5.08h-26.17c-2.8,0-5.08-2.28-5.08-5.08V187.6
			l-1.43-0.43c-8.214-2.443-13.57-5.724-14.61-6.23l-12.38,12.38c-0.95,0.95-2.22,1.48-3.58,1.48s-2.63-0.53-3.58-1.48L48.79,174.8
			c-1.98-1.97-1.97-5.19,0-7.18l12.37-12.38l-0.72-1.32c-3.7-6.737-5.291-12.737-5.56-13.49H37.02c-2.8,0-5.08-2.28-5.08-5.08
			v-26.18c0-2.79,2.28-5.06,5.08-5.06H54.2l0.41-1.47c2.458-8.903,6.346-15.366,6.55-15.79L48.79,74.46
			c-2.009-1.988-1.967-5.203,0-7.17l18.51-18.5c1.936-1.956,5.187-1.993,7.16,0l12.39,12.37c1.323-0.643,5.941-3.668,14.6-6.22
			l1.43-0.42v-17.5c0-2.8,2.28-5.07,5.08-5.07h26.17c2.8,0,5.07,2.27,5.07,5.07v17.5c1.129,0.389,6.839,1.612,14.74,5.93l1.31,0.71
			l12.37-12.37c1.98-1.97,5.2-1.97,7.18,0l18.52,18.5c1.998,1.998,1.959,5.221,0,7.18l-12.39,12.38
			c0.613,1.253,3.643,5.831,6.24,14.6l0.42,1.43h17.5c2.8,0,5.07,2.28,5.07,5.08v26.17c0,2.8-2.27,5.08-5.07,5.08h-17.5l-0.42,1.43
			c-2.461,8.27-5.994,14.115-6.24,14.62l12.39,12.36c1.45,1.47,1.83,3.61,1.14,5.42l-22.39-22.39h0c5.21-8.97,7.95-19.16,7.95-29.59
			c0-32.52-26.45-58.98-58.96-58.98c-32.466,0-58.98,26.309-58.98,58.98c0,32.191,26.038,58.96,58.98,58.96
			c10.43,0,20.62-2.74,29.58-7.95l22.4,22.39C171.22,195.16,169.08,194.78,167.62,193.32z M121.06,176.02
			c-30.728,0-54.98-24.967-54.98-54.96c0-30.572,24.834-54.98,54.98-54.98c30.31,0,54.96,24.67,54.96,54.98
			c0,10.23-2.82,20.2-8.16,28.85c-4.49,7.25-10.7,13.46-17.95,17.95C141.26,173.2,131.28,176.02,121.06,176.02z M227.43,243.18
			c-57.19-57.167-40.13-40.11-73.31-73.29c4.654-2.965,11.922-9.731,15.77-15.77c47.193,47.212,2.489,2.49,73.29,73.31
			C253.645,237.845,237.711,253.51,227.43,243.18z"/>
	</g>
</g>
</svg>
