<?xml version="1.0" encoding="utf-8"?>
<!-- Generator: Adobe Illustrator 18.0.0, SVG Export Plug-In . SVG Version: 6.00 Build 0)  -->
<!DOCTYPE svg PUBLIC "-//W3C//DTD SVG 1.1//EN" "http://www.w3.org/Graphics/SVG/1.1/DTD/svg11.dtd">
<svg version="1.1" id="Layer_1" xmlns="http://www.w3.org/2000/svg" xmlns:xlink="http://www.w3.org/1999/xlink" x="0px" y="0px"
	 viewBox="0 0 256 256" style="enable-background:new 0 0 256 256;" xml:space="preserve">
<style type="text/css">
	.st0{fill:#1C868E;}
	.st1{fill:#40C4DF;}
	.st2{fill:#F85252;}
	.st3{fill:#491352;}
	.st4{fill:#7BEFE4;}
	.st5{fill:none;stroke:#491352;stroke-width:4;stroke-linecap:round;stroke-linejoin:round;stroke-miterlimit:10;}
	.st6{fill:#FFFFFF;}
	.st7{fill:#56C1B3;}
	.st8{fill:#D73735;}
	.st9{fill:#D8D6D7;}
	.st10{fill:#EDAF85;}
	.st11{fill:#F7C09A;}
	.st12{fill:none;stroke:#491352;stroke-width:4;stroke-miterlimit:10;}
</style>
<g id="XMLID_3251_">
	<path id="XMLID_2024_" class="st0" d="M217.649,125.769L200.79,102.19V86.57c0-41.79-31.36-76.28-71.83-81.21
		c-3.639-0.444-7.34-0.654-11.117-0.602C73.89,5.355,37.902,41.203,37.162,85.154c-0.26,15.446,3.743,29.8,10.911,42.166
		c4.968,8.571,9.449,17.416,13.374,26.512l7.943,18.407c1.48,3.44,2.6,7,3.35,10.65c0.76,3.64,1.14,7.36,1.14,11.1
		c0,11.88-3.85,23.44-10.98,32.94l-12.23,16.32c-2.48,3.3-0.13,8,4,8h87.3c2.761,0,5-2.239,5-5v-29.93L146.96,206c0-2.76,2.24-5,5-5
		h17.18c4.61,0,8.9-2.37,11.35-6.27l6.08-9.65c4.65-7.38,8.2-15.33,10.59-23.62c0.94-3.25,1.7-6.54,2.27-9.87
		c0.9-5.18,1.36-10.46,1.36-15.76v-0.01h11.69C217.65,135.82,220.657,129.975,217.649,125.769z"/>
	<path id="XMLID_2025_" class="st1" d="M217.649,125.769L200.79,102.19V86.57c0-41.79-31.36-76.28-71.83-81.21
		C88.5,10.29,57.15,44.78,57.15,86.57c0,14.646,3.836,28.276,10.559,40.117c5.015,8.832,9.72,17.836,13.744,27.162l7.936,18.391
		c1.48,3.44,2.6,7,3.35,10.65c0.76,3.64,1.14,7.36,1.14,11.1c0,11.88-3.85,23.44-10.98,32.94l-12.23,16.32c-2.48,3.3-0.13,8,4,8
		h67.3c2.761,0,5-2.239,5-5v-29.93L146.96,206c0-2.76,2.24-5,5-5h17.18c4.61,0,8.9-2.37,11.35-6.27l6.08-9.65
		c4.65-7.38,8.2-15.33,10.59-23.62c0.94-3.25,1.7-6.54,2.27-9.87c0.9-5.18,1.36-10.46,1.36-15.76v-0.01h11.69
		C217.65,135.82,220.657,129.975,217.649,125.769z"/>
	<path id="XMLID_1968_" class="st6" d="M133.174,46.021H82.493c-3.181,0-5.759,2.579-5.759,5.759v50.681
		c0,3.181,2.579,5.759,5.759,5.759h50.681c3.181,0,5.759-2.579,5.759-5.759V51.78C138.933,48.6,136.355,46.021,133.174,46.021z"/>
	<path id="XMLID_1309_" class="st9" d="M118.344,60.851H97.323c-3.181,0-5.759,2.579-5.759,5.759v21.021
		c0,3.181,2.579,5.759,5.759,5.759h21.021c3.181,0,5.759-2.579,5.759-5.759V66.61C124.103,63.43,121.525,60.851,118.344,60.851z"/>
	<g id="XMLID_1395_">
		<path id="XMLID_1413_" class="st3" d="M159.667,64.163c1.272,0,2.304-1.031,2.304-2.304s-1.031-2.304-2.304-2.304h-18.43V51.78
			c0-4.446-3.617-8.063-8.063-8.063h-7.774v-18.43c0-3.045-4.607-3.05-4.607,0v18.43h-10.655v-18.43c0-3.045-4.607-3.05-4.607,0
			v18.43H94.875v-18.43c0-3.045-4.607-3.05-4.607,0v18.43h-7.775c-4.445,0-8.063,3.617-8.063,8.063v7.775H56
			c-1.272,0-2.304,1.031-2.304,2.304s1.031,2.304,2.304,2.304h18.43v10.655H56c-1.272,0-2.304,1.031-2.304,2.304
			s1.031,2.304,2.304,2.304h18.43V90.08H56c-1.272,0-2.304,1.031-2.304,2.304s1.031,2.304,2.304,2.304h18.43v7.775
			c0,4.446,3.617,8.063,8.063,8.063h7.775v18.43c0,1.272,1.031,2.304,2.304,2.304s2.304-1.031,2.304-2.304v-18.43h10.654v18.43
			c0,1.272,1.031,2.304,2.304,2.304s2.304-1.031,2.304-2.304v-18.43h10.655v18.43c0,1.272,1.031,2.304,2.304,2.304
			s2.304-1.031,2.304-2.304v-18.43h7.774c4.446,0,8.063-3.617,8.063-8.063v-7.775h18.43c1.272,0,2.304-1.031,2.304-2.304
			s-1.031-2.304-2.304-2.304h-18.43V79.425h18.43c1.272,0,2.304-1.031,2.304-2.304s-1.031-2.304-2.304-2.304h-18.43V64.163H159.667z
			 M136.63,102.462c0,1.905-1.551,3.456-3.456,3.456H82.492c-1.905,0-3.455-1.55-3.455-3.456V51.78c0-1.905,1.55-3.456,3.455-3.456
			h50.682c1.905,0,3.456,1.55,3.456,3.456V102.462z"/>
		<path id="XMLID_1419_" class="st3" d="M118.344,58.547H97.322c-4.445,0-8.063,3.617-8.063,8.063v21.021
			c0,4.446,3.617,8.063,8.063,8.063h21.021c4.446,0,8.063-3.617,8.063-8.063V66.61C126.407,62.165,122.79,58.547,118.344,58.547z
			 M121.8,87.632c0,1.905-1.551,3.456-3.456,3.456H97.322c-1.905,0-3.455-1.55-3.455-3.456V66.61c0-1.905,1.55-3.456,3.455-3.456
			h21.021c1.905,0,3.456,1.55,3.456,3.456V87.632z"/>
		<path id="XMLID_1422_" class="st3" d="M219.277,124.609l-15.932-22.272c-0.366-0.513-0.56-1.115-0.56-1.743l0.002-12.993
			c0-46.447-37.319-84.51-83.191-84.849C55.342,2.284,14.491,71.542,45.751,127.286c9.648,17.206,16.195,33.073,19.036,39.296
			c4.119,9.396,7.096,16.184,7.096,27.41c0,24.705-15.737,36.674-22.818,48.059c-3.459,4.613-0.163,11.2,5.601,11.2h87.303
			c3.859,0,7-3.141,7-7.002c-0.003-42.093,0.018-39.733-0.04-40.247h0.037c0-1.653,1.334-3.001,3-3.001h17.178
			c6.007,0,11.325-3.711,13.135-7.362c0.463-0.912,1.354-2.264,2.48-3.976c20.071-30.484,17.557-52.361,17.967-53.842h9.76
			C219.273,137.82,223.228,130.133,219.277,124.609z M212.484,133.82h-11.699c-1.08,0-1.966,0.858-1.999,1.938
			c-0.572,2.182,2.601,23.373-17.369,53.704c-1.165,1.769-2.091,3.176-2.66,4.276c-2.109,3.296-5.697,5.261-9.614,5.261
			c-15.757,0.552-18.726-1.353-22.129,2.051c-1.322,1.323-2.05,3.081-2.049,4.951c0,0.079,0.003,19.292,0.003,40.246
			c0,1.655-1.346,3.002-3,3.002c-89.941-0.623-88.409,1.498-89.985-1.658c-1.458-2.914,1.24-3.524,12.52-19.458
			c7.339-9.785,11.381-21.91,11.381-34.142c0-12.454-3.393-19.803-8.289-30.973c-6.735-15.442-12.396-27.066-18.354-37.689
			C32.356,95.217,36.508,55.958,62.744,29.915C113.2-20.167,198.788,16.342,198.788,87.602h0.048
			c-0.074,0.715-0.048,0.736-0.05,12.993c0,1.467,0.451,2.874,1.306,4.069l15.932,22.273
			C218.088,129.822,216.029,133.82,212.484,133.82z"/>
	</g>
</g>
</svg>
