<?xml version="1.0" encoding="utf-8"?>
<!-- Generator: Adobe Illustrator 23.0.0, SVG Export Plug-In . SVG Version: 6.00 Build 0)  -->
<svg version="1.1" id="Layer_1" xmlns="http://www.w3.org/2000/svg" xmlns:xlink="http://www.w3.org/1999/xlink" x="0px" y="0px"
	 viewBox="0 0 512 512" style="enable-background:new 0 0 512 512;" xml:space="preserve">
<style type="text/css">
	.st0{fill:#323232;}
	.st1{fill:#646464;}
	.st2{fill:#464646;}
	.st3{fill:#FAA51E;}
	.st4{fill:#5A6E82;}
	.st5{fill:#788C9B;}
	.st6{fill:#AAC3D7;}
	.st7{fill:#7DC8AA;}
	.st8{fill:#147864;}
	.st9{fill:#329682;}
	.st10{fill:#FFFFFF;}
	.st11{fill:#9B5FAA;}
	.st12{fill:#463C4B;}
	.st13{fill:#32283C;}
	.st14{fill:#D76E28;}
	.st15{fill:#784687;}
	.st16{fill:#F0915A;}
	.st17{fill:#FAB991;}
	.st18{fill:#D7E6F0;}
	.st19{fill:#82AA41;}
	.st20{fill:#4B8C41;}
	.st21{fill:#A5CD3C;}
	.st22{fill:#FAD241;}
	.st23{fill:#AA5A28;}
	.st24{fill:#F04B37;}
	.st25{fill:#6EA5D7;}
	.st26{fill:#8CAAC8;}
	.st27{fill:#F0697D;}
	.st28{fill:#5A5A6E;}
	.st29{fill:#647DBE;}
	.st30{fill:#2D6E23;}
	.st31{fill:#F58CAA;}
	.st32{fill:#B98C3C;}
	.st33{fill:#C3A050;}
	.st34{fill:#D2C36E;}
	.st35{fill:#64412D;}
	.st36{fill:#DC7846;}
	.st37{fill:#96461E;}
	.st38{fill:#F06423;}
	.st39{fill:#E6AAFA;}
	.st40{fill:#BE82D2;}
	.st41{fill:#FAA037;}
	.st42{fill:#D73228;}
	.st43{fill:#BE281E;}
	.st44{fill:#5064A0;}
	.st45{fill:#8C1E14;}
	.st46{fill:#F5732D;}
	.st47{fill:#FAD7A0;}
	.st48{fill:#964628;}
	.st49{fill:#D24614;}
	.st50{fill:#F5D7A5;}
	.st51{fill:#F58723;}
	.st52{fill:#E65A78;}
	.st53{fill:#643773;}
	.st54{fill:#9B64AA;}
	.st55{fill:#555555;}
	.st56{fill:#FAD2B4;}
</style>
<g>
	<g>
		<path class="st0" d="M347.708,320.8h-112c-8.837,0-16-7.163-16-16v0v18.746l-38.627,38.627
			c-6.002,6.001-9.373,14.141-9.373,22.627v64c-17.673,0-32,14.327-32,32l0,0c0,8.836,7.163,16,16,16h64c8.837,0,16-7.163,16-16
			v-82.745l54.627-54.627c2.026-2.026,3.719-4.259,5.088-6.627h52.285V320.8z"/>
	</g>
	<g>
		<path class="st1" d="M107.708,16.8h32c8.837,0,16,7.163,16,16v0h-48c-4.418,0-8-3.582-8-8v0
			C99.708,20.382,103.29,16.8,107.708,16.8z"/>
	</g>
	<g>
		<path class="st0" d="M251.708,160.8h-80v-56c0-4.418-3.582-8-8-8h-8v-64h-48v32c0,8.836,7.163,16,16,16v16h-8
			c-4.418,0-8,3.582-8,8v88c0,11.842,6.438,22.175,16,27.708V264.8c0,4.418,3.582,8,8,8c4.418,0,8-3.582,8-8v-32
			c0-4.418,3.582-8,8-8s8,3.582,8,8s3.582,8,8,8s8-3.582,8-8v-8h80V160.8z"/>
	</g>
	<g>
		<path class="st1" d="M147.708,48.8h-20c-2.209,0-4,1.791-4,4v0c0,6.627,5.373,12,12,12h4c0,8.837,7.164,16,16,16v-24
			C155.708,52.382,152.126,48.8,147.708,48.8z"/>
	</g>
	<g>
		<path class="st2" d="M331.708,128.8h-56v32h-24c-17.673,0-32,14.327-32,32v112c0,8.836,7.163,16,16,16h96c8.837,0,16-7.164,16-16
			v-144h16l0,0C363.708,143.127,349.381,128.8,331.708,128.8z"/>
	</g>
	<g>
		<path class="st2" d="M411.708,448.8c0-8.189-3.124-16.379-9.373-22.627l-54.627-54.627V304.8c0-17.673-14.327-32-32-32
			s-32,14.327-32,32v80c0,8.487,3.371,16.626,9.373,22.627l41.373,41.373h-2.746c-17.673,0-32,14.327-32,32l0,0
			c0,8.836,7.163,16,16,16h80c8.837,0,16-7.164,16-16L411.708,448.8L411.708,448.8z"/>
	</g>
	<g>
		<path class="st0" d="M347.708,32.8v16h-12c-2.209,0-4,1.791-4,4l0,0c0,6.627,5.373,12,12,12h4c0,8.836,7.163,16,16,16v16h32v-64
			H347.708z"/>
	</g>
	<g>
		<path class="st1" d="M379.708,16.8h-32c-4.418,0-8,3.582-8,8s3.582,8,8,8h32v32c0,8.837,7.164,16,16,16v-48
			C395.708,23.963,388.545,16.8,379.708,16.8z"/>
	</g>
	<g>
		<g>
			<path class="st2" d="M211.708,184.8h72c8.837,0,16-7.163,16-16v-8l0,0c8.837,0,16-7.163,16-16v-40c0-22.091-17.909-40-40-40h-40
				c-22.091,0-40,17.909-40,40v64C195.708,177.637,202.872,184.8,211.708,184.8z"/>
		</g>
		<g>
			<path class="st1" d="M259.708,184.8h-48c-8.837,0-16-7.163-16-16v-64c0-22.091,17.909-40,40-40h0c22.091,0,40,17.909,40,40v64
				C275.708,177.637,268.545,184.8,259.708,184.8z"/>
		</g>
	</g>
	<g>
		<circle class="st3" cx="219.708" cy="112.8" r="10.667"/>
	</g>
	<g>
		<circle class="st3" cx="251.708" cy="112.8" r="10.667"/>
	</g>
	<g>
		<path class="st1" d="M403.708,96.8h-48c-4.418,0-8,3.582-8,8v56c-17.673,0-32,14.327-32,32c0,17.673,14.327,32,32,32h16v40
			c0,4.418,3.582,8,8,8s8-3.582,8-8v-32c0-4.418,3.582-8,8-8s8,3.582,8,8s3.582,8,8,8s8-3.582,8-8v-128
			C411.708,100.382,408.126,96.8,403.708,96.8z"/>
	</g>
</g>
</svg>
