<?xml version="1.0" encoding="utf-8"?>
<!-- Generator: Adobe Illustrator 23.0.0, SVG Export Plug-In . SVG Version: 6.00 Build 0)  -->
<svg version="1.1" id="Layer_1" xmlns="http://www.w3.org/2000/svg" xmlns:xlink="http://www.w3.org/1999/xlink" x="0px" y="0px"
	 viewBox="0 0 512 512" style="enable-background:new 0 0 512 512;" xml:space="preserve">
<style type="text/css">
	.st0{fill:#323232;}
	.st1{fill:#646464;}
	.st2{fill:#464646;}
	.st3{fill:#FAA51E;}
	.st4{fill:#5A6E82;}
	.st5{fill:#788C9B;}
	.st6{fill:#AAC3D7;}
	.st7{fill:#7DC8AA;}
	.st8{fill:#147864;}
	.st9{fill:#329682;}
	.st10{fill:#FFFFFF;}
	.st11{fill:#9B5FAA;}
	.st12{fill:#463C4B;}
	.st13{fill:#32283C;}
	.st14{fill:#D76E28;}
	.st15{fill:#784687;}
	.st16{fill:#F0915A;}
	.st17{fill:#FAB991;}
	.st18{fill:#D7E6F0;}
	.st19{fill:#82AA41;}
	.st20{fill:#4B8C41;}
	.st21{fill:#A5CD3C;}
	.st22{fill:#FAD241;}
	.st23{fill:#AA5A28;}
	.st24{fill:#F04B37;}
	.st25{fill:#6EA5D7;}
	.st26{fill:#8CAAC8;}
	.st27{fill:#F0697D;}
	.st28{fill:#5A5A6E;}
	.st29{fill:#647DBE;}
	.st30{fill:#2D6E23;}
	.st31{fill:#F58CAA;}
	.st32{fill:#B98C3C;}
	.st33{fill:#C3A050;}
	.st34{fill:#D2C36E;}
	.st35{fill:#64412D;}
	.st36{fill:#DC7846;}
	.st37{fill:#96461E;}
	.st38{fill:#F06423;}
	.st39{fill:#E6AAFA;}
	.st40{fill:#BE82D2;}
	.st41{fill:#FAA037;}
	.st42{fill:#D73228;}
	.st43{fill:#BE281E;}
	.st44{fill:#5064A0;}
	.st45{fill:#8C1E14;}
	.st46{fill:#F5732D;}
	.st47{fill:#FAD7A0;}
	.st48{fill:#964628;}
	.st49{fill:#D24614;}
	.st50{fill:#F5D7A5;}
	.st51{fill:#F58723;}
	.st52{fill:#E65A78;}
	.st53{fill:#643773;}
	.st54{fill:#9B64AA;}
	.st55{fill:#555555;}
	.st56{fill:#FAD2B4;}
</style>
<g>
	<path class="st42" d="M458.865,252.829l-11.605-18.568c-0.879-1.407-2.421-2.261-4.08-2.261s-3.201,0.854-4.08,2.261
		l-11.605,18.568c-0.206,0.329-0.315,0.71-0.315,1.098c0,1.144,0.928,2.072,2.072,2.072h5.928v56c0,17.645-14.355,32-32,32h-64v16
		h64c26.468,0,48-21.533,48-48v-56h5.928c1.145,0,2.072-0.928,2.072-2.072C459.179,253.539,459.07,253.159,458.865,252.829z"/>
	<g>
		<path class="st0" d="M403.179,448c0-8.189-3.124-16.379-9.373-22.627l-54.627-54.627V320h-112c-8.837,0-16-7.163-16-16v0v18.746
			l-38.627,38.627c-6.002,6.001-9.373,14.141-9.373,22.627v64c-17.673,0-32,14.327-32,32l0,0c0,8.837,7.163,16,16,16h240
			c8.837,0,16-7.163,16-16L403.179,448L403.179,448z"/>
	</g>
	<g>
		<path class="st42" d="M339.179,192v128h4.153c2.091,0,3.806-1.562,4.119-3.63c1.75-11.532,11.706-20.37,23.727-20.37
			s21.978,8.838,23.727,20.37c0.314,2.068,2.028,3.63,4.119,3.63h0c2.294,0,4.153-1.859,4.153-4.153V192H339.179z"/>
	</g>
	<g>
		<path class="st42" d="M323.179,128h-48v32h40c8.837,0,16-7.163,16-16v-8C331.179,131.582,327.598,128,323.179,128z"/>
	</g>
	<g>
		<path class="st42" d="M179.179,32h24c8.837,0,16,7.163,16,16v20c0,6.627-5.373,12-12,12h0c-6.627,0-12-5.373-12-12V48h0
			C186.343,48,179.179,40.837,179.179,32L179.179,32z"/>
	</g>
	<g>
		<path class="st2" d="M155.179,304h56v-64h-56c-4.418,0-8,3.582-8,8v48C147.179,300.418,150.761,304,155.179,304z"/>
	</g>
	<g>
		<rect x="131.179" y="248" class="st24" width="16" height="32"/>
	</g>
	<g>
		<path class="st42" d="M107.179,232h8c8.837,0,16,7.163,16,16v32h-24V232z"/>
	</g>
	<path class="st42" d="M162.865,108.829L151.26,90.261c-0.879-1.407-2.421-2.261-4.08-2.261s-3.201,0.854-4.08,2.261l-11.605,18.568
		c-0.206,0.329-0.315,0.71-0.315,1.098c0,1.144,0.928,2.072,2.072,2.072h5.928v32c0,13.234-10.766,24-24,24v-56h5.928
		c1.145,0,2.072-0.928,2.072-2.072c0-0.388-0.109-0.769-0.315-1.098L111.26,90.261c-0.879-1.407-2.421-2.261-4.08-2.261
		s-3.201,0.854-4.08,2.261l-11.605,18.568c-0.206,0.329-0.315,0.71-0.315,1.098c0,1.144,0.928,2.072,2.072,2.072h5.928v56
		c-13.234,0-24-10.766-24-24v-32h5.928c1.145,0,2.072-0.928,2.072-2.072c0-0.388-0.109-0.769-0.315-1.098L71.26,90.261
		C70.38,88.854,68.838,88,67.179,88s-3.201,0.854-4.08,2.261l-11.605,18.568c-0.206,0.329-0.315,0.71-0.315,1.098
		c0,1.144,0.928,2.072,2.072,2.072h5.928v32c0,22.056,17.944,40,40,40v312h16V184c22.056,0,40-17.944,40-40v-32h5.928
		c1.145,0,2.072-0.928,2.072-2.072C163.179,109.539,163.07,109.159,162.865,108.829z"/>
	<g>
		<path class="st24" d="M96.513,232L96.513,232c13.255,0,24,10.745,24,24v0c0,13.255-10.745,24-24,24h0c-4.418,0-8-3.582-8-8v-32
			C88.513,235.582,92.095,232,96.513,232z"/>
	</g>
	<g>
		<path class="st2" d="M403.179,448c0-8.189-3.124-16.379-9.373-22.627l-54.627-54.627V304c0-17.673-14.327-32-32-32
			s-32,14.327-32,32v80c0,8.487,3.371,16.626,9.373,22.627L325.925,448h-2.746c-17.673,0-32,14.327-32,32l0,0
			c0,8.837,7.163,16,16,16h80c8.837,0,16-7.163,16-16L403.179,448L403.179,448z"/>
	</g>
	<g>
		<path class="st0" d="M323.179,320h-96c-8.837,0-16-7.163-16-16V192c0-17.673,14.327-32,32-32h96v144
			C339.179,312.837,332.016,320,323.179,320z"/>
	</g>
	<g>
		<path class="st18" d="M259.179,208L259.179,208c8.837,0,16-7.163,16-16v0c0-17.673,14.327-32,32-32h0h-32
			c-17.673,0-32,14.327-32,32v0C243.179,200.837,250.343,208,259.179,208z"/>
	</g>
	<g>
		<path class="st42" d="M339.179,32v16h-12c-2.209,0-4,1.791-4,4l0,0c0,6.627,5.373,12,12,12h4c0,8.837,7.163,16,16,16v32h32V32
			H339.179z"/>
	</g>
	<g>
		<path class="st24" d="M371.179,16h-32c-4.418,0-8,3.582-8,8s3.582,8,8,8h32v32c0,8.837,7.164,16,16,16V32
			C387.179,23.163,380.016,16,371.179,16z"/>
	</g>
	<g>
		<rect x="355.179" y="96" class="st24" width="32" height="16"/>
	</g>
	<g>
		<path class="st2" d="M395.179,112h-48c-4.418,0-8,3.582-8,8v40c-17.673,0-32,14.327-32,32c0,17.673,14.327,32,32,32h32
			c17.673,0,32-14.327,32-32v-72C403.179,115.582,399.598,112,395.179,112z"/>
	</g>
	<g>
		<path class="st42" d="M203.179,176h56c8.837,0,16-7.163,16-16V88c0-13.255-10.745-24-24-24h-40c-13.255,0-24,10.745-24,24v72
			C187.179,168.837,194.343,176,203.179,176z"/>
	</g>
	<g>
		<path class="st24" d="M235.179,176h-32c-8.837,0-16-7.163-16-16V88c0-13.255,10.745-24,24-24h16c13.255,0,24,10.745,24,24v72
			C251.179,168.837,244.016,176,235.179,176z"/>
	</g>
	<g>
		<path class="st0" d="M187.179,88v-0.05c0-4.393,3.557-7.957,7.95-7.967h0c8.859-0.019,16.05,7.158,16.05,16.017v0v0
			c0-8.859,7.192-16.036,16.051-16.017L235.063,80c4.456,0.006,8.068,3.615,8.077,8.072l0.022,15.823
			c0.009,4.474-3.615,8.106-8.089,8.106l0,0l0.106,8c0,4.418,3.582,8,8,8h0v16c0,8.837,7.163,16,16,16h16c8.837,0,16-7.163,16-16V96
			c0-26.51-21.49-48-48-48h-24c-17.673,0-32,14.327-32,32V88z"/>
	</g>
	<g>
		<path class="st42" d="M251.179,144h-8v-16c0-8.837,7.163-16,16-16h8v16C267.179,136.837,260.016,144,251.179,144z"/>
	</g>
	<g>
		<path class="st24" d="M219.179,32h24c8.837,0,16,7.163,16,16v20c0,6.627-5.373,12-12,12h0c-6.627,0-12-5.373-12-12V48h0
			C226.343,48,219.179,40.837,219.179,32L219.179,32z"/>
	</g>
	<g>
		<circle class="st2" cx="259.179" cy="248" r="8"/>
	</g>
	<g>
		<circle class="st2" cx="259.179" cy="288" r="8"/>
	</g>
	<g>
		<path class="st0" d="M209.846,160L209.846,160c-3.682,0-6.667,2.985-6.667,6.667V176h13.333v-9.333
			C216.513,162.985,213.528,160,209.846,160z"/>
	</g>
</g>
</svg>
