<?xml version="1.0" encoding="utf-8"?>
<!-- Generator: Adobe Illustrator 23.0.0, SVG Export Plug-In . SVG Version: 6.00 Build 0)  -->
<svg version="1.1" id="Layer_1" xmlns="http://www.w3.org/2000/svg" xmlns:xlink="http://www.w3.org/1999/xlink" x="0px" y="0px"
	 viewBox="0 0 512 512" style="enable-background:new 0 0 512 512;" xml:space="preserve">
<style type="text/css">
	.st0{fill:#323232;}
	.st1{fill:#646464;}
	.st2{fill:#464646;}
	.st3{fill:#FAA51E;}
	.st4{fill:#5A6E82;}
	.st5{fill:#788C9B;}
	.st6{fill:#AAC3D7;}
	.st7{fill:#7DC8AA;}
	.st8{fill:#147864;}
	.st9{fill:#329682;}
	.st10{fill:#FFFFFF;}
	.st11{fill:#9B5FAA;}
	.st12{fill:#463C4B;}
	.st13{fill:#32283C;}
	.st14{fill:#D76E28;}
	.st15{fill:#784687;}
	.st16{fill:#F0915A;}
	.st17{fill:#FAB991;}
	.st18{fill:#D7E6F0;}
	.st19{fill:#82AA41;}
	.st20{fill:#4B8C41;}
	.st21{fill:#A5CD3C;}
	.st22{fill:#FAD241;}
	.st23{fill:#AA5A28;}
	.st24{fill:#F04B37;}
	.st25{fill:#6EA5D7;}
	.st26{fill:#8CAAC8;}
	.st27{fill:#F0697D;}
	.st28{fill:#5A5A6E;}
	.st29{fill:#647DBE;}
	.st30{fill:#2D6E23;}
	.st31{fill:#F58CAA;}
	.st32{fill:#B98C3C;}
	.st33{fill:#C3A050;}
	.st34{fill:#D2C36E;}
	.st35{fill:#64412D;}
	.st36{fill:#DC7846;}
	.st37{fill:#96461E;}
	.st38{fill:#F06423;}
	.st39{fill:#E6AAFA;}
	.st40{fill:#BE82D2;}
	.st41{fill:#FAA037;}
	.st42{fill:#D73228;}
	.st43{fill:#BE281E;}
	.st44{fill:#5064A0;}
	.st45{fill:#8C1E14;}
	.st46{fill:#F5732D;}
	.st47{fill:#FAD7A0;}
	.st48{fill:#964628;}
	.st49{fill:#D24614;}
	.st50{fill:#F5D7A5;}
	.st51{fill:#F58723;}
	.st52{fill:#E65A78;}
	.st53{fill:#643773;}
	.st54{fill:#9B64AA;}
	.st55{fill:#555555;}
	.st56{fill:#FAD2B4;}
</style>
<g>
	<g>
		<path class="st0" d="M289.554,297.373c-12.496-12.497-32.758-12.497-45.254,0l-64,64c-6.002,6.001-9.373,14.141-9.373,22.627v64
			c-17.673,0-32,14.327-32,32l0,0c0,8.837,7.164,16,16,16h64c8.836,0,16-7.163,16-16v-82.745l54.627-54.627
			C302.051,330.131,302.051,309.869,289.554,297.373z"/>
	</g>
	<g>
		<path class="st2" d="M410.927,448c0-8.189-3.124-16.379-9.373-22.627l-54.627-54.627V304c0-17.673-14.327-32-32-32
			s-32,14.327-32,32v80c0,8.487,3.371,16.626,9.373,22.627L333.673,448h-2.746c-17.673,0-32,14.327-32,32l0,0
			c0,8.837,7.164,16,16,16h80c8.836,0,16-7.163,16-16L410.927,448L410.927,448z"/>
	</g>
	<g>
		<path class="st29" d="M314.927,104h-8c-4.418,0-8-3.582-8-8V68c0-2.209,1.791-4,4-4l0,0c2.209,0,4,1.791,4,4v0
			c0,2.209,1.791,4,4,4l0,0c2.209,0,4-1.791,4-4v0c0-2.209,1.791-4,4-4l0,0c2.209,0,4,1.791,4,4v28
			C322.927,100.418,319.345,104,314.927,104z"/>
	</g>
	<g>
		<rect x="298.927" y="128" class="st2" width="32" height="24"/>
	</g>
	<g>
		<rect x="322.927" y="104" class="st17" width="8" height="24"/>
	</g>
	<g>
		<rect x="306.927" y="104" class="st17" width="8" height="24"/>
	</g>
	<g>
		<path class="st25" d="M330.927,104h-8c-4.418,0-8-3.582-8-8V68c0-2.209,1.791-4,4-4l0,0c2.209,0,4,1.791,4,4v0
			c0,2.209,1.791,4,4,4l0,0c2.209,0,4-1.791,4-4v0c0-2.209,1.791-4,4-4l0,0c2.209,0,4,1.791,4,4v28
			C338.927,100.418,335.345,104,330.927,104z"/>
	</g>
	<g>
		<path class="st50" d="M226.927,208h-16c-4.418,0-8-3.582-8-8v-56h24V208z"/>
	</g>
	<g>
		<path class="st23" d="M346.927,192v168h4.153c2.091,0,3.806-1.562,4.119-3.63c1.75-11.532,11.706-20.37,23.727-20.37
			s21.978,8.838,23.727,20.37c0.314,2.068,2.028,3.63,4.119,3.63h0c2.294,0,4.153-1.859,4.153-4.153V192H346.927z"/>
	</g>
	<g>
		<path class="st20" d="M162.927,296h56v-64h-56c-4.418,0-8,3.582-8,8v48C154.927,292.418,158.509,296,162.927,296z"/>
	</g>
	<g>
		<rect x="138.927" y="248" class="st17" width="16" height="32"/>
	</g>
	<g>
		<path class="st16" d="M122.927,232L122.927,232c8.837,0,16,7.163,16,16v32h-16V232z"/>
	</g>
	<g>
		<path class="st19" d="M346.927,320h-128V192c0-17.673,14.327-32,32-32h96V320z"/>
	</g>
	<g>
		<path class="st14" d="M346.927,160h-16c-17.673,0-32,14.327-32,32v0c0,4.418-3.582,8-8,8h-72c-4.418,0-8-3.582-8-8v0
			c0-22.091,17.909-40,40-40h96V160z"/>
	</g>
	<g>
		<path class="st16" d="M346.927,32v16h-12c-2.209,0-4,1.791-4,4l0,0c0,6.627,5.373,12,12,12h4c0,8.837,7.164,16,16,16v16h32V32
			H346.927z"/>
	</g>
	<g>
		<path class="st17" d="M378.927,16h-32c-4.418,0-8,3.582-8,8s3.582,8,8,8h32v32c0,8.837,7.164,16,16,16V32
			C394.927,23.163,387.763,16,378.927,16z"/>
	</g>
	<g>
		<path class="st21" d="M402.927,96h-48c-4.418,0-8,3.582-8,8v56c-17.673,0-32,14.327-32,32c0,17.673,14.327,32,32,32h32
			c17.673,0,32-14.327,32-32v-88C410.927,99.582,407.345,96,402.927,96z"/>
	</g>
	<g>
		<path class="st17" d="M258.927,176h-48c-8.837,0-16-7.163-16-16V88c0-13.255,10.745-24,24-24h16c13.255,0,24,10.745,24,24V176z"/>
	</g>
	<path class="st50" d="M298.927,96c0-26.51-21.49-48-48-48h-24c-17.673,0-32,14.327-32,32v7.95c0-4.393,3.557-7.957,7.95-7.967
		L242.811,80c4.456,0.006,8.068,3.615,8.077,8.072l0.022,15.823c0.01,4.474-3.615,8.106-8.088,8.106l0.105,8c0,4.418,3.582,8,8,8v72
		c0,4.418,3.582,8,8,8h16c4.418,0,8-3.582,8-8v-48h16V96z"/>
	<g>
		<path class="st16" d="M258.927,144h-8v-16c0-8.837,7.163-16,16-16h8v16C274.927,136.837,267.764,144,258.927,144z"/>
	</g>
	<g>
		<path class="st19" d="M218.927,320l-30.343,30.343c-1.061,1.061-1.657,2.5-1.657,4l0,0c0,3.124,2.533,5.657,5.657,5.657h154.343
			v-40H218.927z"/>
	</g>
	<g>
		<rect x="218.927" y="296" class="st14" width="128" height="24"/>
	</g>
	<g>
		<path class="st18" d="M170.927,372c-2.209,0-4-1.791-4-4V144c0-2.209,1.791-4,4-4s4,1.791,4,4v224
			C174.927,370.209,173.136,372,170.927,372z"/>
	</g>
	<path class="st35" d="M146.927,340c-15.439,0-28-12.561-28-28V200c0-15.439,12.561-28,28-28s28-12.561,28-28c0-2.209-1.791-4-4-4
		s-4,1.791-4,4c0,11.028-8.972,20-20,20c-19.851,0-36,16.15-36,36v112c0,19.85,16.149,36,36,36c11.028,0,20,8.972,20,20
		c0,2.209,1.791,4,4,4s4-1.791,4-4C174.927,352.561,162.366,340,146.927,340z"/>
	<g>
		<path class="st14" d="M118.927,288h-8c-2.209,0-4-1.791-4-4v-56c0-2.209,1.791-4,4-4h8c2.209,0,4,1.791,4,4v56
			C122.927,286.209,121.136,288,118.927,288z"/>
	</g>
	<g>
		<path class="st17" d="M104.26,232L104.26,232c13.255,0,24,10.745,24,24v0c0,13.255-10.745,24-24,24h0c-4.418,0-8-3.582-8-8v-32
			C96.26,235.582,99.842,232,104.26,232z"/>
	</g>
</g>
</svg>
