<?xml version="1.0" encoding="utf-8"?>
<!-- Generator: Adobe Illustrator 23.0.0, SVG Export Plug-In . SVG Version: 6.00 Build 0)  -->
<svg version="1.1" id="Layer_1" xmlns="http://www.w3.org/2000/svg" xmlns:xlink="http://www.w3.org/1999/xlink" x="0px" y="0px"
	 viewBox="0 0 512 512" style="enable-background:new 0 0 512 512;" xml:space="preserve">
<style type="text/css">
	.st0{fill:#323232;}
	.st1{fill:#646464;}
	.st2{fill:#464646;}
	.st3{fill:#FAA51E;}
	.st4{fill:#5A6E82;}
	.st5{fill:#788C9B;}
	.st6{fill:#AAC3D7;}
	.st7{fill:#7DC8AA;}
	.st8{fill:#147864;}
	.st9{fill:#329682;}
	.st10{fill:#FFFFFF;}
	.st11{fill:#9B5FAA;}
	.st12{fill:#463C4B;}
	.st13{fill:#32283C;}
	.st14{fill:#D76E28;}
	.st15{fill:#784687;}
	.st16{fill:#F0915A;}
	.st17{fill:#FAB991;}
	.st18{fill:#D7E6F0;}
	.st19{fill:#82AA41;}
	.st20{fill:#4B8C41;}
	.st21{fill:#A5CD3C;}
	.st22{fill:#FAD241;}
	.st23{fill:#AA5A28;}
	.st24{fill:#F04B37;}
	.st25{fill:#6EA5D7;}
	.st26{fill:#8CAAC8;}
	.st27{fill:#F0697D;}
	.st28{fill:#5A5A6E;}
	.st29{fill:#647DBE;}
	.st30{fill:#2D6E23;}
	.st31{fill:#F58CAA;}
	.st32{fill:#B98C3C;}
	.st33{fill:#C3A050;}
	.st34{fill:#D2C36E;}
	.st35{fill:#64412D;}
	.st36{fill:#DC7846;}
	.st37{fill:#96461E;}
	.st38{fill:#F06423;}
	.st39{fill:#E6AAFA;}
	.st40{fill:#BE82D2;}
	.st41{fill:#FAA037;}
	.st42{fill:#D73228;}
	.st43{fill:#BE281E;}
	.st44{fill:#5064A0;}
	.st45{fill:#8C1E14;}
	.st46{fill:#F5732D;}
	.st47{fill:#FAD7A0;}
	.st48{fill:#964628;}
	.st49{fill:#D24614;}
	.st50{fill:#F5D7A5;}
	.st51{fill:#F58723;}
	.st52{fill:#E65A78;}
	.st53{fill:#643773;}
	.st54{fill:#9B64AA;}
	.st55{fill:#555555;}
	.st56{fill:#FAD2B4;}
</style>
<g>
	<g>
		<path class="st37" d="M347.179,32v16h-12c-2.209,0-4,1.791-4,4l0,0c0,6.627,5.373,12,12,12h4c0,8.836,7.163,16,16,16h48V32
			H347.179z"/>
	</g>
	<g>
		<path class="st14" d="M395.179,16h-48c-4.418,0-8,3.582-8,8s3.582,8,8,8h48v32c0,8.837,7.164,16,16,16V32
			C411.179,23.163,404.016,16,395.179,16z"/>
	</g>
	<g>
		<path class="st23" d="M289.806,297.373c-12.496-12.497-32.758-12.497-45.254,0l-64,64c-6.002,6.001-9.373,14.141-9.373,22.627v64
			c-17.673,0-32,14.327-32,32l0,0c0,8.836,7.163,16,16,16h64c8.837,0,16-7.164,16-16v-82.745l54.627-54.627
			C302.303,330.131,302.303,309.869,289.806,297.373z"/>
	</g>
	<g>
		<path class="st14" d="M411.179,448c0-8.189-3.124-16.379-9.373-22.627l-54.627-54.627V304c0-17.673-14.327-32-32-32
			s-32,14.327-32,32v80c0,8.487,3.371,16.626,9.373,22.627L333.925,448h-2.746c-17.673,0-32,14.327-32,32l0,0
			c0,8.836,7.163,16,16,16h80c8.837,0,16-7.164,16-16L411.179,448L411.179,448z"/>
	</g>
	<g>
		<path class="st37" d="M331.179,128h-136v32h-24V88c0-4.418-3.582-8-8-8h-8V32h-64v32c0,8.836,7.163,16,16,16h-8
			c-4.418,0-8,3.582-8,8v104c0,17.673,14.327,32,32,32v40c0,4.418,3.582,8,8,8c4.418,0,8-3.582,8-8v-32c0-4.418,3.582-8,8-8
			s8,3.582,8,8s3.582,8,8,8s8-3.582,8-8v-8h48v80c0,8.836,7.163,16,16,16h64v40c0,4.418,3.582,8,8,8s8-3.582,8-8v-32
			c0-4.418,3.582-8,8-8s8,3.582,8,8s3.582,8,8,8s8-3.582,8-8v-56l2.564-3.846c8.761-13.141,13.436-28.582,13.436-44.376V160
			C363.179,142.327,348.853,128,331.179,128z"/>
	</g>
	<g>
		<path class="st14" d="M91.179,16h48c8.837,0,16,7.163,16,16v0h-64c-4.418,0-8-3.582-8-8v0C83.179,19.582,86.761,16,91.179,16z"/>
	</g>
	<g>
		<path class="st14" d="M147.179,48h-20c-2.209,0-4,1.791-4,4v0c0,6.627,5.373,12,12,12h4c0,8.837,7.164,16,16,16V56
			C155.179,51.582,151.598,48,147.179,48z"/>
	</g>
	<g>
		<g>
			<path class="st23" d="M211.179,184h72c8.837,0,16-7.163,16-16v-8h0c8.837,0,16-7.163,16-16v-40c0-22.091-17.909-40-40-40h-40
				c-22.091,0-40,17.909-40,40v64C195.179,176.837,202.343,184,211.179,184z"/>
		</g>
		<g>
			<path class="st14" d="M259.179,184h-48c-8.837,0-16-7.163-16-16v-64c0-22.091,17.909-40,40-40h0c22.091,0,40,17.909,40,40v64
				C275.179,176.837,268.016,184,259.179,184z"/>
		</g>
	</g>
	<g>
		<path class="st48" d="M243.179,168h-24c-4.418,0-8-3.582-8-8v0c0-4.418,3.582-8,8-8h24c4.418,0,8,3.582,8,8v0
			C251.179,164.418,247.598,168,243.179,168z"/>
	</g>
	<g>
		<path class="st14" d="M203.179,208v40c0,8.837,7.163,16,16,16h8c8.837,0,16-7.163,16-16v-40c0-4.418-3.582-8-8-8h-24
			C206.761,200,203.179,203.582,203.179,208z"/>
	</g>
	<g>
		<path class="st14" d="M259.179,208v40c0,8.837,7.163,16,16,16h8c8.837,0,16-7.163,16-16v-40c0-4.418-3.582-8-8-8h-24
			C262.761,200,259.179,203.582,259.179,208z"/>
	</g>
	<g>
		<path class="st14" d="M419.179,80h-64c-4.418,0-8,3.582-8,8v72c-17.673,0-32,14.327-32,32s14.327,32,32,32h16v40
			c0,4.418,3.582,8,8,8s8-3.582,8-8v-32c0-4.418,3.582-8,8-8s8,3.582,8,8s3.582,8,8,8s8-3.582,8-8v-12.292
			c9.562-5.534,16-15.866,16-27.708V88C427.179,83.582,423.598,80,419.179,80z"/>
	</g>
</g>
</svg>
