<?xml version="1.0" encoding="utf-8"?>
<!-- Generator: Adobe Illustrator 23.0.0, SVG Export Plug-In . SVG Version: 6.00 Build 0)  -->
<svg version="1.1" id="Layer_1" xmlns="http://www.w3.org/2000/svg" xmlns:xlink="http://www.w3.org/1999/xlink" x="0px" y="0px"
	 viewBox="0 0 512 512" style="enable-background:new 0 0 512 512;" xml:space="preserve">
<style type="text/css">
	.st0{fill:#323232;}
	.st1{fill:#646464;}
	.st2{fill:#464646;}
	.st3{fill:#FAA51E;}
	.st4{fill:#5A6E82;}
	.st5{fill:#788C9B;}
	.st6{fill:#AAC3D7;}
	.st7{fill:#7DC8AA;}
	.st8{fill:#147864;}
	.st9{fill:#329682;}
	.st10{fill:#FFFFFF;}
	.st11{fill:#9B5FAA;}
	.st12{fill:#463C4B;}
	.st13{fill:#32283C;}
	.st14{fill:#D76E28;}
	.st15{fill:#784687;}
	.st16{fill:#F0915A;}
	.st17{fill:#FAB991;}
	.st18{fill:#D7E6F0;}
	.st19{fill:#82AA41;}
	.st20{fill:#4B8C41;}
	.st21{fill:#A5CD3C;}
	.st22{fill:#FAD241;}
	.st23{fill:#AA5A28;}
	.st24{fill:#F04B37;}
	.st25{fill:#6EA5D7;}
	.st26{fill:#8CAAC8;}
	.st27{fill:#F0697D;}
	.st28{fill:#5A5A6E;}
	.st29{fill:#647DBE;}
	.st30{fill:#2D6E23;}
	.st31{fill:#F58CAA;}
	.st32{fill:#B98C3C;}
	.st33{fill:#C3A050;}
	.st34{fill:#D2C36E;}
	.st35{fill:#64412D;}
	.st36{fill:#DC7846;}
	.st37{fill:#96461E;}
	.st38{fill:#F06423;}
	.st39{fill:#E6AAFA;}
	.st40{fill:#BE82D2;}
	.st41{fill:#FAA037;}
	.st42{fill:#D73228;}
	.st43{fill:#BE281E;}
	.st44{fill:#5064A0;}
	.st45{fill:#8C1E14;}
	.st46{fill:#F5732D;}
	.st47{fill:#FAD7A0;}
	.st48{fill:#964628;}
	.st49{fill:#D24614;}
	.st50{fill:#F5D7A5;}
	.st51{fill:#F58723;}
	.st52{fill:#E65A78;}
	.st53{fill:#643773;}
	.st54{fill:#9B64AA;}
	.st55{fill:#555555;}
	.st56{fill:#FAD2B4;}
</style>
<g>
	<g>
		<path class="st30" d="M119.708,503.2h184v-80h-184c-22.091,0-40,17.909-40,40v0C79.708,485.291,97.617,503.2,119.708,503.2z"/>
	</g>
	<g>
		<path class="st20" d="M287.708,311.2v12.224c0,23.527-5.478,46.732-16,67.775l0,0.001v0c0,17.673,14.327,32,32,32h88
			c22.091,0,40,17.909,40,40v0c0,22.091-17.909,40-40,40h-152c-44.183,0-80-35.817-80-80v-112H287.708z"/>
	</g>
	<g>
		<path class="st19" d="M239.708,503.2L239.708,503.2c-44.183,0-80-35.817-80-80v-112h80v128c0,35.346,28.654,64,64,64h0H239.708z"
			/>
	</g>
	<g>
		<path class="st7" d="M239.708,423.2v8h-79.61c-0.26-2.63-0.39-5.3-0.39-8H239.708z"/>
	</g>
	<g>
		<path class="st7" d="M248.268,471.2h-72.57c-1.91-2.55-3.68-5.22-5.28-8h73.95C245.478,465.97,246.788,468.64,248.268,471.2z"/>
	</g>
	<g>
		<path class="st30" d="M319.708,423.2L319.708,423.2c0-20.489,8.139-40.139,22.627-54.627l20.686-20.686
			c3.001-3.001,4.686-7.07,4.686-11.314V319.2c0-4.418,3.582-8,8-8l0,0c4.418,0,8,3.582,8,8v44.686c0,7.244-2.878,14.191-8,19.314v0
			c-5.122,5.122-8,12.07-8,19.314V423.2H319.708z"/>
	</g>
	<g>
		<rect x="159.708" y="343.2" class="st20" width="80" height="8"/>
	</g>
	<g>
		<rect x="159.708" y="383.2" class="st20" width="80" height="8"/>
	</g>
	<g>
		<path class="st20" d="M239.708,423.2v8h-79.61c-0.26-2.63-0.39-5.3-0.39-8H239.708z"/>
	</g>
	<g>
		<path class="st20" d="M248.268,471.2h-72.57c-1.91-2.55-3.68-5.22-5.28-8h73.95C245.478,465.97,246.788,468.64,248.268,471.2z"/>
	</g>
	<g>
		<path class="st20" d="M119.708,159.2c-4.418,0-8-3.582-8-8s3.582-8,8-8c4.411,0,8-3.589,8-8c0-13.233,10.766-24,24-24h8
			c4.418,0,8,3.582,8,8s-3.582,8-8,8h-8c-4.411,0-8,3.589-8,8C143.708,148.433,132.942,159.2,119.708,159.2z"/>
	</g>
	<g>
		<path class="st16" d="M287.708,311.2h-128v-112c0-17.673,14.327-32,32-32h80v80.26c0,10.078-4.004,19.744-11.13,26.87l-4.87,4.87
			h0h0C273.381,279.2,287.708,293.527,287.708,311.2L287.708,311.2z"/>
	</g>
	<g>
		<path class="st30" d="M239.708,215.2c0-13.255-10.745-24-24-24s-24,10.745-24,24c0-13.255-10.745-24-24-24s-24,10.745-24,24
			c0,10.449,6.68,19.334,16,22.629v9.371h112v-32H239.708z"/>
	</g>
	<g>
		<path class="st17" d="M191.708,183.2h-16c-17.673,0-32-14.327-32-32v-56c0-13.255,10.745-24,24-24h16c13.255,0,24,10.745,24,24v72
			C207.708,176.037,200.545,183.2,191.708,183.2z"/>
	</g>
	<path class="st20" d="M295.708,111.2c-4.411,0-8-3.589-8-8c0-13.233-10.766-24-24-24h-8c-0.337,0-0.667,0.027-0.992,0.068
		c-1.27-4.979-3.712-9.486-7.008-13.223V47.2c0-13.233-10.766-24-24-24c-4.411,0-8-3.589-8-8c0-4.418-3.582-8-8-8s-8,3.582-8,8
		c0,13.233,10.766,24,24,24c4.411,0,8,3.589,8,8v9.008c-2.557-0.658-5.238-1.008-8-1.008h-2.667l-2.343-2.343
		c-3.622-3.622-8.535-5.657-13.657-5.657s-10.035,2.035-13.657,5.657l-2.343,2.343l-2.343-2.343
		c-3.622-3.622-8.535-5.657-13.657-5.657s-10.035,2.035-13.657,5.657l-2.343,2.343h2.667c-7.534,0-14.454,2.609-19.921,6.966
		c-2.432-1.374-4.079-3.979-4.079-6.966c0-13.233-10.766-24-24-24h-8c-4.418,0-8,3.582-8,8s3.582,8,8,8h8c4.411,0,8,3.589,8,8
		c0,8.197,4.133,15.445,10.423,19.776c-1.559,3.767-2.423,7.894-2.423,12.224v16c0,4.418,3.582,8,8,8l2.343,2.343
		c3.622,3.622,8.535,5.657,13.657,5.657s10.035-2.035,13.657-5.657l2.343-2.343l2.343,2.343c3.622,3.622,8.535,5.657,13.657,5.657
		s10.035-2.035,13.657-5.657l2.343-2.343v8c0,4.418,3.582,8,8,8v42.667c0,13.233,10.766,24,24,24c4.411,0,8,3.589,8,8
		c0,4.418,3.582,8,8,8s8-3.582,8-8c0-13.233-10.766-24-24-24c-4.411,0-8-3.589-8-8V167.2h16c8.837,0,16-7.163,16-16l2.343-2.343
		c3.622-3.622,5.657-8.535,5.657-13.657s-2.035-10.035-5.657-13.657l-2.343-2.343l2.343-2.343c3.622-3.622,5.657-8.535,5.657-13.657
		c0-2.79-0.623-5.509-1.758-8h1.758c4.411,0,8,3.589,8,8c0,13.233,10.766,24,24,24c4.418,0,8-3.582,8-8S300.127,111.2,295.708,111.2
		z"/>
	<g>
		<path class="st16" d="M215.708,151.2L215.708,151.2c-4.418,0-8-3.582-8-8v-16c0-4.418,3.582-8,8-8h0c8.837,0,16,7.163,16,16v0
			C231.708,144.037,224.545,151.2,215.708,151.2z"/>
	</g>
	<g>
		<path class="st3" d="M255.708,279.2h-96v32h128v0C287.708,293.527,273.381,279.2,255.708,279.2z"/>
	</g>
	<g>
		<path class="st36" d="M119.708,247.2c0-8.837-7.163-16-16-16v48h56v-32H119.708z"/>
	</g>
	<g>
		<path class="st17" d="M87.708,231.2h16c4.418,0,8,3.582,8,8v32c0,4.418-3.582,8-8,8h-16c-4.418,0-8-3.582-8-8v-32
			C79.708,234.782,83.29,231.2,87.708,231.2z"/>
	</g>
	<g>
		<rect x="311.708" y="55.2" class="st16" width="40" height="37.333"/>
	</g>
	<g>
		<path class="st17" d="M335.708,92.533c0-8.836-7.163-16-16-16v-4c0-6.627-5.373-12-12-12h0c-2.209,0-4,1.791-4,4v20
			c0,4.419,3.582,8,8,8h8V151.2c0,8.837-7.163,16-16,16h-32c-8.837,0-16,7.163-16,16l0,0c0,8.837,7.163,16,16,16h32
			c26.51,0,48-21.49,48-48V92.533H335.708z"/>
	</g>
	<g>
		<path class="st17" d="M311.708,39.2h32c4.418,0,8,3.582,8,8v8h-40c-4.418,0-8-3.582-8-8v0
			C303.708,42.782,307.29,39.2,311.708,39.2z"/>
	</g>
	<g>
		<path class="st30" d="M226.375,89.867c-4.418,0-8-3.582-8-8c0-4.411-3.589-8-8-8c-4.418,0-8-3.582-8-8s3.582-8,8-8
			c13.234,0,24,10.767,24,24C234.375,86.285,230.793,89.867,226.375,89.867z"/>
	</g>
	<g>
		<path class="st19" d="M167.708,119.2c-4.418,0-8-3.582-8-8c0-13.233,10.766-24,24-24c4.418,0,8,3.582,8,8s-3.582,8-8,8
			c-4.411,0-8,3.589-8,8C175.708,115.618,172.127,119.2,167.708,119.2z"/>
	</g>
	<g>
		<path class="st19" d="M178.375,71.2c-13.234,0-24-10.767-24-24c0-4.418,3.582-8,8-8s8,3.582,8,8c0,4.411,3.589,8,8,8
			c4.418,0,8,3.582,8,8S182.793,71.2,178.375,71.2z"/>
	</g>
	<g>
		<path class="st30" d="M127.708,103.2c-4.418,0-8-3.582-8-8s3.582-8,8-8c4.411,0,8-3.589,8-8c0-4.418,3.582-8,8-8s8,3.582,8,8
			C151.708,92.433,140.942,103.2,127.708,103.2z"/>
	</g>
	<g>
		<path class="st19" d="M253.042,129.867c-13.234,0-24-10.767-24-24c0-4.418,3.582-8,8-8s8,3.582,8,8c0,4.411,3.589,8,8,8
			c4.418,0,8,3.582,8,8S257.46,129.867,253.042,129.867z"/>
	</g>
	<g>
		<g>
			<rect x="159.708" y="159.2" class="st27" width="32" height="8"/>
		</g>
		<g>
			<path class="st18" d="M159.708,175.2L159.708,175.2v-16h8v8C167.708,171.618,164.126,175.2,159.708,175.2z"/>
		</g>
		<g>
			<path class="st18" d="M191.708,175.2L191.708,175.2l0-16h-8v8C183.708,171.618,187.29,175.2,191.708,175.2z"/>
		</g>
	</g>
</g>
</svg>
