<?xml version="1.0" encoding="utf-8"?>
<!-- Generator: Adobe Illustrator 23.0.0, SVG Export Plug-In . SVG Version: 6.00 Build 0)  -->
<svg version="1.1" id="Layer_1" xmlns="http://www.w3.org/2000/svg" xmlns:xlink="http://www.w3.org/1999/xlink" x="0px" y="0px"
	 viewBox="0 0 512 512" style="enable-background:new 0 0 512 512;" xml:space="preserve">
<style type="text/css">
	.st0{fill:#323232;}
	.st1{fill:#646464;}
	.st2{fill:#464646;}
	.st3{fill:#FAA51E;}
	.st4{fill:#5A6E82;}
	.st5{fill:#788C9B;}
	.st6{fill:#AAC3D7;}
	.st7{fill:#7DC8AA;}
	.st8{fill:#147864;}
	.st9{fill:#329682;}
	.st10{fill:#FFFFFF;}
	.st11{fill:#9B5FAA;}
	.st12{fill:#463C4B;}
	.st13{fill:#32283C;}
	.st14{fill:#D76E28;}
	.st15{fill:#784687;}
	.st16{fill:#F0915A;}
	.st17{fill:#FAB991;}
	.st18{fill:#D7E6F0;}
	.st19{fill:#82AA41;}
	.st20{fill:#4B8C41;}
	.st21{fill:#A5CD3C;}
	.st22{fill:#FAD241;}
	.st23{fill:#AA5A28;}
	.st24{fill:#F04B37;}
	.st25{fill:#6EA5D7;}
	.st26{fill:#8CAAC8;}
	.st27{fill:#F0697D;}
	.st28{fill:#5A5A6E;}
	.st29{fill:#647DBE;}
	.st30{fill:#2D6E23;}
	.st31{fill:#F58CAA;}
	.st32{fill:#B98C3C;}
	.st33{fill:#C3A050;}
	.st34{fill:#D2C36E;}
	.st35{fill:#64412D;}
	.st36{fill:#DC7846;}
	.st37{fill:#96461E;}
	.st38{fill:#F06423;}
	.st39{fill:#E6AAFA;}
	.st40{fill:#BE82D2;}
	.st41{fill:#FAA037;}
	.st42{fill:#D73228;}
	.st43{fill:#BE281E;}
	.st44{fill:#5064A0;}
	.st45{fill:#8C1E14;}
	.st46{fill:#F5732D;}
	.st47{fill:#FAD7A0;}
	.st48{fill:#964628;}
	.st49{fill:#D24614;}
	.st50{fill:#F5D7A5;}
	.st51{fill:#F58723;}
	.st52{fill:#E65A78;}
	.st53{fill:#643773;}
	.st54{fill:#9B64AA;}
	.st55{fill:#555555;}
	.st56{fill:#FAD2B4;}
</style>
<g>
	<g>
		<path class="st9" d="M289.448,298.241c-12.496-12.497-32.758-12.497-45.254,0l-64,64c-6.002,6.001-9.373,14.141-9.373,22.627v64
			c-17.673,0-32,14.327-32,32l0,0c0,8.836,7.164,16,16,16h64c8.836,0,16-7.164,16-16v-82.745l54.627-54.627
			C301.945,330.999,301.945,310.738,289.448,298.241z"/>
	</g>
	<g>
		<path class="st7" d="M410.821,448.869c0-8.189-3.124-16.379-9.373-22.627l-54.627-54.627v-66.745c0-17.673-14.327-32-32-32
			s-32,14.327-32,32v80c0,8.487,3.371,16.626,9.373,22.627l41.373,41.373h-2.746c-17.673,0-32,14.327-32,32l0,0
			c0,8.836,7.164,16,16,16h80c8.836,0,16-7.164,16-16L410.821,448.869L410.821,448.869z"/>
	</g>
	<g>
		<path class="st2" d="M194.821,296.869h24v-64h-24c-4.418,0-8,3.582-8,8v48C186.821,293.287,190.403,296.869,194.821,296.869z"/>
	</g>
	<g>
		<path class="st9" d="M170.821,248.869c0-8.836-7.164-16-16-16v48h32v-32H170.821z"/>
	</g>
	<g>
		<path class="st23" d="M346.821,304.869h-112h-16v18.745l-6.627,6.627c-12.497,12.497-12.497,32.758,0,45.255l0,0
			c12.497,12.497,32.758,12.497,45.255,0l32-32c2.026-2.026,3.718-4.259,5.087-6.627h52.285V304.869z"/>
	</g>
	<g>
		<path class="st14" d="M346.821,352.869v-47.334c0-17.436-13.67-32.175-31.1-32.653c-18.084-0.496-32.9,14.016-32.9,31.988v48
			c0,17.673,14.327,32,32,32h0C332.494,384.869,346.821,370.542,346.821,352.869z"/>
	</g>
	<g>
		<path class="st0" d="M330.821,320.869h-96c-8.837,0-16-7.163-16-16v-112c0-17.673,14.327-32,32-32h96v144
			C346.821,313.705,339.658,320.869,330.821,320.869z"/>
	</g>
	<g>
		<path class="st18" d="M266.821,208.869L266.821,208.869c8.837,0,16-7.163,16-16v0c0-17.673,14.327-32,32-32h0h-32
			c-17.673,0-32,14.327-32,32v0C250.821,201.705,257.984,208.869,266.821,208.869z"/>
	</g>
	<g>
		<path class="st9" d="M346.821,32.869v16h-12c-2.209,0-4,1.791-4,4l0,0c0,6.627,5.373,12,12,12h4c0,8.836,7.164,16,16,16v32h32v-80
			H346.821z"/>
	</g>
	<g>
		<path class="st7" d="M378.821,16.869h-32c-4.418,0-8,3.582-8,8s3.582,8,8,8h32v32c0,8.837,7.164,16,16,16v-48
			C394.821,24.032,387.657,16.869,378.821,16.869z"/>
	</g>
	<g>
		<path class="st2" d="M402.821,112.869h-48c-4.418,0-8,3.582-8,8v40c-17.673,0-32,14.327-32,32c0,17.673,14.327,32,32,32h32
			c17.673,0,32-14.327,32-32v-72C410.821,116.45,407.239,112.869,402.821,112.869z"/>
	</g>
	<g>
		<path class="st9" d="M210.821,184.869h56c8.837,0,16-7.163,16-16v-72c0-13.255-10.745-24-24-24h-40c-13.255,0-24,10.745-24,24v72
			C194.821,177.705,201.984,184.869,210.821,184.869z"/>
	</g>
	<g>
		<path class="st27" d="M274.821,118.202h-48V80.869h32c8.837,0,16,7.163,16,16V118.202z"/>
	</g>
	<g>
		<path class="st7" d="M226.821,94.202V72.869h-8c-13.255,0-24,10.745-24,24v72c0,8.837,7.163,16,16,16h32c8.837,0,16-7.163,16-16
			v-50.667c0-4.418-3.582-8-8-8h-8C233.984,110.202,226.821,103.038,226.821,94.202z"/>
	</g>
	<g>
		<path class="st27" d="M230.821,160.869h-24c-2.209,0-4-1.791-4-4v0c0-2.209,1.791-4,4-4h24c2.209,0,4,1.791,4,4v0
			C234.821,159.078,233.03,160.869,230.821,160.869z"/>
	</g>
	<g>
		<rect x="122.821" y="296.869" class="st24" width="32" height="16"/>
	</g>
	<g>
		<path class="st16" d="M106.821,152.869v32c0,8.836,7.164,16,16,16v96h32v-144H106.821z"/>
	</g>
	<g>
		<path class="st17" d="M106.821,136.869h32c8.837,0,16,7.163,16,16v0h-48c-4.418,0-8-3.582-8-8v0
			C98.821,140.45,102.403,136.869,106.821,136.869z"/>
	</g>
	<g>
		<path class="st17" d="M146.821,168.869h-20c-2.209,0-4,1.791-4,4v0c0,6.627,5.373,12,12,12h4c0,8.837,7.164,16,16,16v-24
			C154.821,172.45,151.239,168.869,146.821,168.869z"/>
	</g>
	<g>
		<path class="st7" d="M120.154,232.869L120.154,232.869c13.255,0,24,10.745,24,24v0c0,13.255-10.745,24-24,24h0
			c-4.418,0-8-3.582-8-8v-32C112.154,236.45,115.736,232.869,120.154,232.869z"/>
	</g>
	<g>
		<circle class="st24" cx="146.821" cy="336.869" r="8"/>
	</g>
	<g>
		<circle class="st24" cx="130.821" cy="408.869" r="8"/>
	</g>
	<g>
		<path class="st7" d="M270.821,150.202h-4c-4.418,0-8-3.582-8-8v-24c0-4.418,3.582-8,8-8h4c11.046,0,20,8.954,20,20v0
			C290.821,141.248,281.867,150.202,270.821,150.202z"/>
	</g>
</g>
</svg>
