<?xml version="1.0" encoding="utf-8"?>
<!-- Generator: Adobe Illustrator 22.0.1, SVG Export Plug-In . SVG Version: 6.00 Build 0)  -->
<svg version="1.1" id="Layer_1" xmlns="http://www.w3.org/2000/svg" xmlns:xlink="http://www.w3.org/1999/xlink" x="0px" y="0px"
	 viewBox="0 0 512 512" style="enable-background:new 0 0 512 512;" xml:space="preserve">
<style type="text/css">
	.st0{fill:#330D84;}
	.st1{fill:#EDF3FC;}
	.st2{fill:#5932AE;}
	.st3{fill:#FFFFFF;}
	.st4{fill:#FFE37B;}
	.st5{fill:#5D8EF9;}
	.st6{fill:#8C7BFD;}
	.st7{fill:#8AC9F9;}
	.st8{fill:#FFBE1B;}
	.st9{fill:#6857E5;}
</style>
<g>
	<g>
		<g>
			<path class="st1" d="M255.999,40.928c-118.778,0-215.071,96.294-215.071,215.074c0,118.776,96.292,215.068,215.071,215.068
				S471.07,374.778,471.07,256.002C471.07,137.222,374.777,40.928,255.999,40.928z"/>
		</g>
	</g>
	<g>
		<g>
			<path class="st1" d="M255.999,1C115.391,1,1,115.392,1,256.002C1,396.609,115.391,511,255.999,511S511,396.609,511,256.002
				C511,115.392,396.607,1,255.999,1z M255.999,502.832c-136.103,0-246.83-110.728-246.83-246.83
				c0-136.104,110.727-246.833,246.83-246.833c136.102,0,246.832,110.729,246.832,246.833
				C502.831,392.104,392.101,502.832,255.999,502.832z"/>
		</g>
	</g>
	<g>
		<g>
			<path class="st0" d="M336.322,342.102V405c0,2.761,2.238,5,5,5s5-2.239,5-5v-62.898H336.322z"/>
		</g>
	</g>
	<g>
		<g>
			<path class="st8" d="M421.02,199.283c-12.827-20.639-39.169-23.575-56.071-16.689c-13.061,5.321-22.726,21.839-23.627,23.418
				c-0.901-1.579-10.566-18.096-23.627-23.418c-16.902-6.886-43.243-3.951-56.071,16.689c-12.836,20.653-0.97,52.134,20.605,76.327
				c16.947,19.005,38.641,33.619,50.486,40.865l-6.199,20.074c-0.852,2.758,1.21,5.553,4.097,5.553h21.419
				c2.887,0,4.948-2.795,4.097-5.553l-6.199-20.074c11.845-7.247,33.539-21.861,50.486-40.865
				C421.989,251.417,433.855,219.936,421.02,199.283z"/>
		</g>
	</g>
	<g>
		<g>
			<path class="st4" d="M300.976,261.113c-2.008-2.06-3.908-4.206-5.648-6.378c-1.729-2.155-4.874-2.502-7.029-0.775
				c-2.154,1.727-2.502,4.874-0.775,7.028c1.943,2.424,4.06,4.815,6.293,7.105c0.979,1.005,2.279,1.51,3.58,1.51
				c1.259,0,2.519-0.472,3.49-1.419C302.863,266.256,302.903,263.09,300.976,261.113z"/>
		</g>
	</g>
	<g>
		<g>
			<path class="st4" d="M307.501,191.301c-13.261-1.278-24.956,4.813-31.273,16.299c-5.94,10.8-5.255,24.634,1.93,38.953
				c0.877,1.749,2.641,2.759,4.473,2.759c0.754,0,1.519-0.171,2.238-0.532c2.469-1.238,3.465-4.243,2.227-6.711
				c-4.007-7.986-7.625-19.613-2.105-29.649c6.244-11.351,17.156-11.589,21.551-11.164c2.751,0.261,5.192-1.748,5.457-4.497
				C312.263,194.009,310.249,191.566,307.501,191.301z"/>
		</g>
	</g>
	<g>
		<g>
			<path class="st0" d="M187.192,267.435v62.898c0,2.761,2.238,5,5,5s5-2.239,5-5v-62.898H187.192z"/>
		</g>
	</g>
	<g>
		<g>
			<path class="st5" d="M271.89,124.616c-12.827-20.639-39.168-23.574-56.07-16.688c-13.061,5.321-22.726,21.838-23.627,23.417
				c-0.901-1.579-10.566-18.096-23.627-23.417c-16.902-6.886-43.243-3.951-56.07,16.688c-12.836,20.653-0.97,52.134,20.604,76.327
				c16.947,19.005,38.642,33.619,50.486,40.866l-6.199,20.073c-0.852,2.758,1.21,5.553,4.097,5.553h21.419
				c2.886,0,4.948-2.795,4.097-5.553l-6.199-20.073c11.844-7.247,33.539-21.861,50.486-40.866
				C272.859,176.75,284.725,145.269,271.89,124.616z"/>
		</g>
	</g>
	<g>
		<g>
			<path class="st7" d="M151.846,186.445c-2.002-2.053-3.903-4.199-5.649-6.378c-1.728-2.155-4.876-2.501-7.028-0.774
				c-2.155,1.727-2.502,4.874-0.774,7.028c1.948,2.431,4.064,4.821,6.292,7.105c0.98,1.005,2.279,1.509,3.58,1.509
				c1.259,0,2.519-0.472,3.49-1.42C153.733,191.588,153.773,188.423,151.846,186.445z"/>
		</g>
	</g>
	<g>
		<g>
			<path class="st7" d="M158.371,116.634c-13.253-1.278-24.955,4.812-31.273,16.299c-5.94,10.8-5.255,24.634,1.931,38.953
				c0.877,1.749,2.642,2.758,4.473,2.758c0.754,0,1.52-0.171,2.238-0.532c2.469-1.238,3.465-4.243,2.227-6.711
				c-4.008-7.986-7.626-19.612-2.106-29.648c6.244-11.352,17.155-11.59,21.551-11.164c2.736,0.265,5.192-1.747,5.457-4.497
				C163.133,119.343,161.12,116.9,158.371,116.634z"/>
		</g>
	</g>
	<g>
		<g>
			<path class="st0" d="M304.101,379.605c-17.068-4.098-30.391-16.869-34.678-33.211l-0.731-2.793l-0.724,2.793
				c-4.284,16.342-17.613,29.113-34.687,33.211l-2.907,0.695l2.907,0.698c17.074,4.096,30.404,16.864,34.687,33.21l0.724,2.792
				l0.731-2.792c4.288-16.346,17.61-29.114,34.678-33.21l2.919-0.698L304.101,379.605z"/>
		</g>
	</g>
	<g>
		<g>
			<path class="st8" d="M369.419,133.163c-13.545-3.252-24.118-13.388-27.521-26.356l-0.58-2.217l-0.575,2.217
				c-3.4,12.969-13.978,23.104-27.528,26.356l-2.307,0.552l2.307,0.554c13.55,3.251,24.128,13.383,27.528,26.356l0.575,2.215
				l0.58-2.215c3.403-12.972,13.976-23.105,27.521-26.356l2.317-0.554L369.419,133.163z"/>
		</g>
	</g>
	<g>
		<g>
			<path class="st8" d="M420.538,161.681c-7.644-1.835-13.61-7.555-15.53-14.873l-0.328-1.251l-0.324,1.251
				c-1.918,7.318-7.888,13.038-15.534,14.873l-1.302,0.312l1.302,0.313c7.646,1.834,13.616,7.552,15.534,14.873l0.324,1.25
				l0.328-1.25c1.92-7.321,7.886-13.038,15.53-14.873l1.307-0.313L420.538,161.681z"/>
		</g>
	</g>
	<g>
		<g>
			<path class="st5" d="M156.156,246.396c-10.141-2.434-18.055-10.022-20.603-19.731l-0.435-1.66l-0.43,1.66
				c-2.545,9.709-10.464,17.297-20.608,19.731l-1.727,0.413l1.727,0.415c10.144,2.434,18.063,10.019,20.608,19.731l0.43,1.658
				l0.435-1.658c2.547-9.712,10.462-17.297,20.603-19.731l1.735-0.415L156.156,246.396z"/>
		</g>
	</g>
	<g>
		<g>
			<path class="st5" d="M125.729,306.96c-13.639-3.274-24.284-13.48-27.71-26.538l-0.584-2.232l-0.579,2.232
				c-3.423,13.058-14.074,23.263-27.718,26.538l-2.323,0.556l2.323,0.558c13.644,3.273,24.295,13.476,27.718,26.537l0.579,2.231
				l0.584-2.231c3.426-13.062,14.072-23.264,27.71-26.537l2.333-0.558L125.729,306.96z"/>
		</g>
	</g>
</g>
</svg>
