<?xml version="1.0" encoding="utf-8"?>
<!-- Generator: Adobe Illustrator 22.0.1, SVG Export Plug-In . SVG Version: 6.00 Build 0)  -->
<svg version="1.1" id="Layer_1" xmlns="http://www.w3.org/2000/svg" xmlns:xlink="http://www.w3.org/1999/xlink" x="0px" y="0px"
	 viewBox="0 0 512 512" style="enable-background:new 0 0 512 512;" xml:space="preserve">
<style type="text/css">
	.st0{fill:#330D84;}
	.st1{fill:#EDF3FC;}
	.st2{fill:#5932AE;}
	.st3{fill:#FFFFFF;}
	.st4{fill:#FFE37B;}
	.st5{fill:#5D8EF9;}
	.st6{fill:#8C7BFD;}
	.st7{fill:#8AC9F9;}
	.st8{fill:#FFBE1B;}
	.st9{fill:#6857E5;}
</style>
<g>
	<g>
		<g>
			<path class="st1" d="M255.999,40.928c-118.778,0-215.071,96.294-215.071,215.074c0,118.776,96.293,215.068,215.071,215.068
				S471.07,374.778,471.07,256.002C471.07,137.222,374.777,40.928,255.999,40.928z"/>
		</g>
	</g>
	<g>
		<g>
			<path class="st1" d="M255.999,1C115.391,1,1,115.392,1,256.002C1,396.609,115.391,511,255.999,511S511,396.609,511,256.002
				C511,115.392,396.607,1,255.999,1z M255.999,502.832c-136.103,0-246.83-110.728-246.83-246.83
				c0-136.104,110.727-246.833,246.83-246.833c136.102,0,246.832,110.729,246.832,246.833
				C502.831,392.104,392.101,502.832,255.999,502.832z"/>
		</g>
	</g>
	<g>
		<g>
			<path class="st2" d="M325.457,133.08l-93.692,0l-66.103,66.101V358.04c0,11.533,9.348,20.88,20.876,20.88h138.919
				c11.53,0,20.881-9.347,20.881-20.88V153.957C346.338,142.427,336.987,133.08,325.457,133.08z"/>
		</g>
	</g>
	<g>
		<g>
			<path class="st0" d="M165.662,199.181h45.227c11.528,0,20.876-9.347,20.876-20.876V133.08L165.662,199.181z"/>
		</g>
	</g>
	<g>
		<g>
			<path class="st8" d="M297.726,225.155c-3.626-5.511-8.763-9.87-15.412-13.076c-6.65-3.204-14.32-4.808-23.007-4.808
				c-9.346,0-17.523,1.918-24.533,5.752c-7.01,3.834-12.343,8.672-15.996,14.513c-3.655,5.841-5.482,11.608-5.482,17.3
				c0,2.756,1.153,5.317,3.46,7.684c2.306,2.367,5.137,3.549,8.492,3.549c5.691,0,9.556-3.384,11.593-10.155
				c2.157-6.47,4.793-11.368,7.909-14.693c3.114-3.325,7.967-4.987,14.558-4.987c5.631,0,10.229,1.648,13.795,4.942
				c3.563,3.296,5.348,7.34,5.348,12.132c0,2.457-0.585,4.733-1.753,6.83c-1.168,2.098-2.606,3.999-4.313,5.707
				c-1.708,1.708-4.479,4.239-8.313,7.594c-4.374,3.835-7.85,7.145-10.425,9.931c-2.577,2.786-4.644,6.021-6.201,9.706
				c-1.559,3.685-2.336,8.043-2.336,13.076c0,4.015,1.063,7.041,3.19,9.077c2.125,2.037,4.747,3.055,7.863,3.055
				c5.99,0,9.555-3.114,10.693-9.346c0.659-2.935,1.153-4.987,1.483-6.156c0.328-1.168,0.793-2.336,1.393-3.505
				c0.599-1.168,1.513-2.456,2.741-3.864c1.228-1.407,2.86-3.04,4.897-4.897c7.369-6.59,12.477-11.278,15.322-14.064
				c2.845-2.786,5.303-6.096,7.369-9.93c2.067-3.833,3.101-8.297,3.101-13.39C303.162,236.658,301.35,230.668,297.726,225.155z"/>
		</g>
	</g>
	<g>
		<g>
			<path class="st8" d="M266.676,320.325c-2.576-2.575-5.751-3.864-9.525-3.864c-3.835,0-7.07,1.289-9.706,3.864
				c-2.637,2.577-3.954,5.751-3.954,9.526c0,4.254,1.362,7.564,4.089,9.93c2.726,2.366,5.916,3.55,9.571,3.55
				c3.534,0,6.65-1.199,9.346-3.595c2.696-2.396,4.044-5.691,4.044-9.885C270.54,326.076,269.251,322.901,266.676,320.325z"/>
		</g>
	</g>
	<g>
		<g>
			<path class="st0" d="M388.488,126.325c-12.48-2.996-22.22-12.334-25.355-24.283L362.598,100l-0.53,2.042
				c-3.132,11.948-12.878,21.287-25.362,24.283l-2.125,0.508l2.125,0.51c12.484,2.995,22.23,12.33,25.362,24.282l0.53,2.041
				l0.535-2.041c3.135-11.952,12.876-21.287,25.355-24.282l2.135-0.51L388.488,126.325z"/>
		</g>
	</g>
	<g>
		<g>
			<path class="st8" d="M325.847,416.226c-13.855-3.327-24.669-13.694-28.15-26.958L297.104,387l-0.588,2.268
				c-3.477,13.265-14.297,23.632-28.157,26.958l-2.36,0.564l2.36,0.566c13.86,3.325,24.68,13.689,28.157,26.958l0.588,2.266
				l0.594-2.266c3.48-13.269,14.294-23.633,28.15-26.958l2.37-0.566L325.847,416.226z"/>
		</g>
	</g>
	<g>
		<g>
			<path class="st8" d="M383.009,395.235c-9.838-2.362-17.518-9.724-19.989-19.144l-0.422-1.61l-0.417,1.61
				c-2.469,9.419-10.153,16.781-19.995,19.144l-1.676,0.4l1.676,0.402c9.842,2.361,17.525,9.721,19.995,19.143l0.417,1.609
				l0.422-1.609c2.471-9.422,10.151-16.782,19.989-19.143l1.683-0.402L383.009,395.235z"/>
		</g>
	</g>
	<g>
		<g>
			<path class="st5" d="M146.129,225.655c-18.087-4.342-32.205-17.876-36.748-35.193l-0.775-2.96l-0.767,2.96
				c-4.539,17.317-18.665,30.851-36.758,35.193L68,226.392l3.081,0.739c18.094,4.341,32.219,17.871,36.758,35.193l0.767,2.958
				l0.775-2.958c4.544-17.322,18.661-30.852,36.748-35.193l3.094-0.739L146.129,225.655z"/>
		</g>
	</g>
	<g>
		<g>
			<path class="st5" d="M174.272,157.141c-11.406-2.738-20.31-11.273-23.175-22.194l-0.489-1.867l-0.484,1.867
				c-2.863,10.921-11.771,19.456-23.181,22.194L125,157.606l1.943,0.466c11.411,2.738,20.319,11.27,23.181,22.194l0.484,1.865
				l0.489-1.865c2.865-10.924,11.769-19.457,23.175-22.194l1.951-0.466L174.272,157.141z"/>
		</g>
	</g>
</g>
</svg>
