<?xml version="1.0" encoding="utf-8"?>
<!-- Generator: Adobe Illustrator 22.0.1, SVG Export Plug-In . SVG Version: 6.00 Build 0)  -->
<svg version="1.1" id="Layer_1" xmlns="http://www.w3.org/2000/svg" xmlns:xlink="http://www.w3.org/1999/xlink" x="0px" y="0px"
	 viewBox="0 0 512 512" style="enable-background:new 0 0 512 512;" xml:space="preserve">
<style type="text/css">
	.st0{fill:#330D84;}
	.st1{fill:#EDF3FC;}
	.st2{fill:#5932AE;}
	.st3{fill:#FFFFFF;}
	.st4{fill:#FFE37B;}
	.st5{fill:#5D8EF9;}
	.st6{fill:#8C7BFD;}
	.st7{fill:#8AC9F9;}
	.st8{fill:#FFBE1B;}
	.st9{fill:#6857E5;}
</style>
<g>
	<g>
		<g>
			<path class="st1" d="M255.999,40.928c-118.778,0-215.071,96.294-215.071,215.074c0,118.776,96.293,215.068,215.071,215.068
				c118.778,0,215.071-96.292,215.071-215.068C471.07,137.222,374.777,40.928,255.999,40.928z"/>
		</g>
	</g>
	<g>
		<g>
			<path class="st1" d="M255.999,1C115.391,1,1,115.392,1,256.002C1,396.609,115.391,511,255.999,511S511,396.609,511,256.002
				C511,115.392,396.607,1,255.999,1z M255.999,502.832c-136.103,0-246.83-110.728-246.83-246.83
				c0-136.104,110.727-246.833,246.83-246.833c136.102,0,246.832,110.729,246.832,246.833
				C502.831,392.104,392.101,502.832,255.999,502.832z"/>
		</g>
	</g>
	<g>
		<g>
			<circle class="st2" cx="197.276" cy="152.344" r="42.5"/>
		</g>
	</g>
	<g>
		<g>
			<path class="st3" d="M181.481,137.017c-3.128,0-5.663,2.536-5.663,5.663c0,3.128,2.536,5.664,5.663,5.664
				s5.663-2.536,5.663-5.664C187.144,139.553,184.609,137.017,181.481,137.017z"/>
		</g>
	</g>
	<g>
		<g>
			<path class="st3" d="M213.071,137.017c-3.128,0-5.663,2.536-5.663,5.663c0,3.128,2.535,5.664,5.663,5.664
				s5.663-2.536,5.663-5.664C218.734,139.553,216.198,137.017,213.071,137.017z"/>
		</g>
	</g>
	<g>
		<g>
			<path class="st3" d="M215.631,160.604c-2.233-1.622-5.36-1.127-6.984,1.106c-2.675,3.683-6.82,5.794-11.371,5.794
				s-8.696-2.112-11.371-5.794c-1.624-2.234-4.75-2.729-6.984-1.106c-2.234,1.623-2.729,4.75-1.106,6.984
				c4.579,6.302,11.672,9.917,19.462,9.917s14.883-3.614,19.462-9.917C218.361,165.354,217.865,162.228,215.631,160.604z"/>
		</g>
	</g>
	<g>
		<g>
			<circle class="st5" cx="197.276" cy="250.26" r="42.5"/>
		</g>
	</g>
	<g>
		<g>
			<path class="st3" d="M181.481,234.934c-3.128,0-5.663,2.536-5.663,5.664c0,3.127,2.536,5.663,5.663,5.663
				s5.663-2.536,5.663-5.663C187.144,237.469,184.609,234.934,181.481,234.934z"/>
		</g>
	</g>
	<g>
		<g>
			<path class="st3" d="M213.071,234.934c-3.128,0-5.663,2.536-5.663,5.664c0,3.127,2.535,5.663,5.663,5.663
				c3.128,0,5.663-2.536,5.663-5.663C218.734,237.469,216.198,234.934,213.071,234.934z"/>
		</g>
	</g>
	<g>
		<g>
			<path class="st3" d="M212.703,262.458h-30.855c-2.761,0-5,2.239-5,5s2.239,5,5,5h30.855c2.761,0,5-2.239,5-5
				S215.464,262.458,212.703,262.458z"/>
		</g>
	</g>
	<g>
		<g>
			<circle class="st8" cx="197.276" cy="351.205" r="42.5"/>
		</g>
	</g>
	<g>
		<g>
			<path class="st3" d="M181.481,335.878c-3.128,0-5.663,2.536-5.663,5.663c0,3.128,2.536,5.664,5.663,5.664
				s5.663-2.536,5.663-5.664C187.144,338.414,184.609,335.878,181.481,335.878z"/>
		</g>
	</g>
	<g>
		<g>
			<path class="st3" d="M213.071,335.878c-3.128,0-5.663,2.536-5.663,5.663c0,3.128,2.535,5.664,5.663,5.664
				c3.128,0,5.663-2.536,5.663-5.664C218.734,338.414,216.198,335.878,213.071,335.878z"/>
		</g>
	</g>
	<g>
		<g>
			<path class="st3" d="M216.737,365.458c-4.578-6.302-11.672-9.916-19.461-9.916c-7.79,0-14.884,3.614-19.462,9.916
				c-1.623,2.234-1.128,5.361,1.106,6.984c2.235,1.624,5.361,1.128,6.984-1.106c2.675-3.682,6.82-5.794,11.372-5.794
				c4.551,0,8.696,2.112,11.372,5.794c0.978,1.347,2.503,2.062,4.049,2.062c1.019,0,2.047-0.311,2.935-0.956
				C217.865,370.819,218.361,367.693,216.737,365.458z"/>
		</g>
	</g>
	<g>
		<g>
			<rect x="255.748" y="230.244" class="st5" width="55.216" height="51.516"/>
		</g>
	</g>
	<g>
		<g>
			<rect x="255.748" y="129.3" class="st2" width="128.79" height="51.517"/>
		</g>
	</g>
	<g>
		<g>
			<rect x="255.748" y="331.188" class="st8" width="96.306" height="46.928"/>
		</g>
	</g>
	<g>
		<g>
			<path class="st0" d="M399.037,378.116h-143.29V110.244c0-2.761-2.239-5-5-5s-5,2.239-5,5v272.872c0,2.761,2.239,5,5,5h148.29
				c2.762,0,5-2.239,5-5S401.799,378.116,399.037,378.116z"/>
		</g>
	</g>
	<g>
		<g>
			<path class="st0" d="M294.799,88.892c-9.746-2.34-17.353-9.632-19.801-18.963l-0.418-1.595l-0.413,1.595
				c-2.446,9.331-10.057,16.624-19.806,18.963l-1.66,0.397l1.66,0.398c9.749,2.339,17.36,9.629,19.806,18.963l0.413,1.594
				l0.418-1.594c2.448-9.333,10.055-16.624,19.801-18.963l1.667-0.398L294.799,88.892z"/>
		</g>
	</g>
	<g>
		<g>
			<path class="st8" d="M333.807,421.811c-11.762-2.824-20.943-11.625-23.897-22.886L309.406,397l-0.499,1.925
				c-2.952,11.261-12.138,20.063-23.904,22.886L283,422.29l2.003,0.481c11.766,2.823,20.952,11.621,23.904,22.886l0.499,1.924
				l0.504-1.924c2.955-11.265,12.135-20.063,23.897-22.886l2.012-0.481L333.807,421.811z"/>
		</g>
	</g>
	<g>
		<g>
			<path class="st8" d="M266.392,430.475c-7.453-1.789-13.27-7.366-15.143-14.502l-0.319-1.22l-0.316,1.22
				c-1.87,7.136-7.691,12.713-15.146,14.502l-1.27,0.304l1.27,0.305c7.456,1.789,13.276,7.364,15.146,14.501l0.316,1.219
				l0.319-1.219c1.872-7.138,7.689-12.713,15.143-14.501l1.275-0.305L266.392,430.475z"/>
		</g>
	</g>
	<g>
		<g>
			<path class="st5" d="M144.635,281.214c-13.416-3.221-23.886-13.259-27.256-26.103l-0.575-2.196l-0.569,2.196
				c-3.367,12.844-13.844,22.882-27.264,26.103l-2.285,0.546l2.285,0.549c13.42,3.219,23.897,13.254,27.264,26.102l0.569,2.194
				l0.575-2.194c3.37-12.848,13.841-22.883,27.256-26.102l2.295-0.549L144.635,281.214z"/>
		</g>
	</g>
	<g>
		<g>
			<path class="st5" d="M109.188,207.41c-8.605-2.066-15.321-8.504-17.483-16.743l-0.369-1.408l-0.365,1.408
				c-2.16,8.238-8.879,14.677-17.487,16.743l-1.465,0.351l1.465,0.352c8.608,2.065,15.328,8.502,17.487,16.742l0.365,1.407
				l0.369-1.407c2.162-8.24,8.878-14.677,17.483-16.742l1.472-0.352L109.188,207.41z"/>
		</g>
	</g>
</g>
</svg>
