<?xml version="1.0" encoding="utf-8"?>
<!-- Generator: Adobe Illustrator 22.0.1, SVG Export Plug-In . SVG Version: 6.00 Build 0)  -->
<svg version="1.1" id="Layer_1" xmlns="http://www.w3.org/2000/svg" xmlns:xlink="http://www.w3.org/1999/xlink" x="0px" y="0px"
	 viewBox="0 0 512 512" style="enable-background:new 0 0 512 512;" xml:space="preserve">
<style type="text/css">
	.st0{fill:#330D84;}
	.st1{fill:#EDF3FC;}
	.st2{fill:#5932AE;}
	.st3{fill:#FFFFFF;}
	.st4{fill:#FFE37B;}
	.st5{fill:#5D8EF9;}
	.st6{fill:#8C7BFD;}
	.st7{fill:#8AC9F9;}
	.st8{fill:#FFBE1B;}
	.st9{fill:#6857E5;}
</style>
<g>
	<g>
		<g>
			<path class="st1" d="M255.999,40.928c-118.778,0-215.071,96.294-215.071,215.074c0,118.776,96.293,215.068,215.071,215.068
				c118.778,0,215.071-96.292,215.071-215.068C471.07,137.222,374.777,40.928,255.999,40.928z"/>
		</g>
	</g>
	<g>
		<g>
			<path class="st1" d="M255.999,1C115.391,1,1,115.392,1,256.002C1,396.609,115.391,511,255.999,511
				C396.607,511,511,396.609,511,256.002C511,115.392,396.607,1,255.999,1z M255.999,502.832
				c-136.103,0-246.83-110.728-246.83-246.83c0-136.104,110.727-246.833,246.83-246.833c136.102,0,246.832,110.729,246.832,246.833
				C502.831,392.104,392.101,502.832,255.999,502.832z"/>
		</g>
	</g>
	<g>
		<g>
			<path class="st5" d="M380.798,178.62h-90.43c-14.414,0-26.109,11.695-26.109,26.113v111.019c0,14.418,11.695,26.11,26.109,26.11
				h35.713l35.841,35.232v-35.232h18.876c14.419,0,26.109-11.692,26.109-26.11V204.733
				C406.908,190.315,395.217,178.62,380.798,178.62z"/>
		</g>
	</g>
	<g>
		<g>
			<path class="st3" d="M380.22,244.229h-89.272c-2.761,0-5,2.239-5,5s2.239,5,5,5h89.272c2.761,0,5-2.239,5-5
				S382.981,244.229,380.22,244.229z"/>
		</g>
	</g>
	<g>
		<g>
			<path class="st3" d="M380.22,270.94h-89.272c-2.761,0-5,2.239-5,5s2.239,5,5,5h89.272c2.761,0,5-2.239,5-5
				S382.981,270.94,380.22,270.94z"/>
		</g>
	</g>
	<g>
		<g>
			<path class="st3" d="M380.22,297.651h-61.634c-2.761,0-5,2.239-5,5s2.239,5,5,5h61.634c2.761,0,5-2.239,5-5
				S382.981,297.651,380.22,297.651z"/>
		</g>
	</g>
	<g>
		<g>
			<path class="st5" d="M221.632,178.62h-90.431c-14.419,0-26.109,11.695-26.109,26.113v111.019c0,14.418,11.691,26.11,26.109,26.11
				h18.876v35.232l35.841-35.232h35.713c14.414,0,26.108-11.692,26.108-26.11V204.733
				C247.741,190.315,236.046,178.62,221.632,178.62z"/>
		</g>
	</g>
	<g>
		<g>
			<path class="st3" d="M221.053,244.229H131.78c-2.761,0-5,2.239-5,5s2.239,5,5,5h89.272c2.761,0,5-2.239,5-5
				S223.814,244.229,221.053,244.229z"/>
		</g>
	</g>
	<g>
		<g>
			<path class="st3" d="M221.053,270.94H131.78c-2.761,0-5,2.239-5,5s2.239,5,5,5h89.272c2.761,0,5-2.239,5-5
				S223.814,270.94,221.053,270.94z"/>
		</g>
	</g>
	<g>
		<g>
			<path class="st3" d="M193.414,297.651H131.78c-2.761,0-5,2.239-5,5s2.239,5,5,5h61.633c2.761,0,5-2.239,5-5
				S196.175,297.651,193.414,297.651z"/>
		</g>
	</g>
	<g>
		<g>
			<circle class="st2" cx="176.417" cy="179.406" r="44.5"/>
		</g>
	</g>
	<g>
		<g>
			<path class="st3" d="M192.663,173.421h-10.75v-10.261c0-3.095-2.443-5.538-5.538-5.538c-3.013,0-5.456,2.443-5.456,5.538v10.261
				h-10.75c-3.095,0-5.538,2.443-5.538,5.538c0,3.013,2.443,5.456,5.538,5.456h10.75v11.239c0,3.094,2.443,5.538,5.456,5.538
				c3.095,0,5.538-2.443,5.538-5.538v-11.239h10.75c3.095,0,5.538-2.443,5.538-5.456
				C198.201,175.864,195.757,173.421,192.663,173.421z"/>
		</g>
	</g>
	<g>
		<g>
			<circle class="st8" cx="335.583" cy="179.406" r="44.5"/>
		</g>
	</g>
	<g>
		<g>
			<path class="st3" d="M348.361,173.135h-25.554c-3.42,0-6.271,2.851-6.271,6.271c0,3.501,2.851,6.271,6.271,6.271h25.554
				c3.42,0,6.271-2.769,6.271-6.271C354.631,175.986,351.781,173.135,348.361,173.135z"/>
		</g>
	</g>
	<g>
		<g>
			<path class="st0" d="M140.019,138.653c-8.879-2.132-15.809-8.775-18.039-17.276l-0.38-1.453l-0.377,1.453
				c-2.228,8.501-9.162,15.144-18.044,17.276l-1.512,0.362l1.512,0.363c8.882,2.131,15.815,8.772,18.044,17.275l0.377,1.452
				l0.38-1.452c2.23-8.503,9.16-15.145,18.039-17.275l1.519-0.363L140.019,138.653z"/>
		</g>
	</g>
	<g>
		<g>
			<path class="st0" d="M94.117,214.153c-8.879-2.132-15.809-8.775-18.039-17.276l-0.38-1.453l-0.377,1.453
				c-2.228,8.501-9.162,15.144-18.044,17.276l-1.512,0.362l1.512,0.363c8.882,2.131,15.816,8.772,18.044,17.275l0.377,1.452
				l0.38-1.452c2.23-8.503,9.16-15.145,18.039-17.275l1.519-0.363L94.117,214.153z"/>
		</g>
	</g>
	<g>
		<g>
			<path class="st8" d="M327.081,109.809c-11.455-2.75-20.397-11.322-23.274-22.29l-0.491-1.875l-0.486,1.875
				c-2.875,10.968-11.821,19.539-23.28,22.29l-1.951,0.467l1.951,0.469c11.459,2.749,20.405,11.318,23.28,22.289l0.486,1.873
				l0.491-1.873c2.878-10.971,11.819-19.54,23.274-22.289l1.96-0.469L327.081,109.809z"/>
		</g>
	</g>
	<g>
		<g>
			<path class="st8" d="M391.794,119.641c-6.968-1.673-12.406-6.886-14.157-13.558l-0.299-1.14l-0.296,1.14
				c-1.749,6.671-7.19,11.885-14.16,13.558l-1.187,0.284l1.187,0.285c6.97,1.672,12.412,6.884,14.16,13.557l0.296,1.139l0.299-1.139
				c1.75-6.673,7.189-11.885,14.157-13.557l1.192-0.285L391.794,119.641z"/>
		</g>
	</g>
	<g>
		<g>
			<path class="st5" d="M252.989,395.106c-17.599-4.185-31.336-17.229-35.757-33.919l-0.754-2.853l-0.747,2.853
				c-4.417,16.69-18.161,29.734-35.766,33.919l-2.997,0.71l2.997,0.713c17.605,4.184,31.349,17.224,35.766,33.919l0.747,2.851
				l0.754-2.851c4.421-16.695,18.157-29.735,35.757-33.919l3.01-0.713L252.989,395.106z"/>
		</g>
	</g>
</g>
</svg>
