<?xml version="1.0" encoding="utf-8"?>
<!-- Generator: Adobe Illustrator 22.0.1, SVG Export Plug-In . SVG Version: 6.00 Build 0)  -->
<svg version="1.1" id="Layer_1" xmlns="http://www.w3.org/2000/svg" xmlns:xlink="http://www.w3.org/1999/xlink" x="0px" y="0px"
	 viewBox="0 0 512 512" style="enable-background:new 0 0 512 512;" xml:space="preserve">
<style type="text/css">
	.st0{fill:#330D84;}
	.st1{fill:#EDF3FC;}
	.st2{fill:#5932AE;}
	.st3{fill:#FFFFFF;}
	.st4{fill:#FFE37B;}
	.st5{fill:#5D8EF9;}
	.st6{fill:#8C7BFD;}
	.st7{fill:#8AC9F9;}
	.st8{fill:#FFBE1B;}
	.st9{fill:#6857E5;}
</style>
<g>
	<g>
		<g>
			<path class="st1" d="M255.999,40.928c-118.778,0-215.071,96.294-215.071,215.074c0,118.776,96.293,215.068,215.071,215.068
				S471.07,374.778,471.07,256.002C471.07,137.222,374.777,40.928,255.999,40.928z"/>
		</g>
	</g>
	<g>
		<g>
			<path class="st1" d="M255.999,1C115.391,1,1,115.392,1,256.002C1,396.609,115.391,511,255.999,511S511,396.609,511,256.002
				C511,115.392,396.607,1,255.999,1z M255.999,502.832c-136.103,0-246.83-110.728-246.83-246.83
				c0-136.104,110.727-246.834,246.83-246.834c136.102,0,246.832,110.729,246.832,246.834
				C502.831,392.104,392.101,502.832,255.999,502.832z"/>
		</g>
	</g>
	<g>
		<g>
			<path class="st2" d="M326.87,136.628h-64.46c0.055,0.339,0.091,0.684,0.091,1.039c0,3.59-2.91,6.5-6.5,6.5
				c-3.59,0-6.5-2.91-6.5-6.5c0-0.354,0.036-0.7,0.091-1.039h-64.463c-11.046,0-20,8.954-20,20V357.37c0,11.046,8.954,20,20,20
				H326.87c11.046,0,20-8.954,20-20V156.628C346.87,145.582,337.915,136.628,326.87,136.628z"/>
		</g>
	</g>
	<g>
		<g>
			<path class="st3" d="M318.87,154.628H193.128c-5.523,0-10,4.477-10,10V349.37c0,5.523,4.477,10,10,10H318.87
				c5.523,0,10-4.477,10-10V164.628C328.87,159.105,324.393,154.628,318.87,154.628z"/>
		</g>
	</g>
	<g>
		<g>
			<path class="st6" d="M278.474,136.628c-0.543-11.944-10.396-21.461-22.474-21.461s-21.931,9.518-22.474,21.461H210V149
				c0,8.284,6.716,15,15,15h62c8.284,0,15-6.716,15-15v-12.372H278.474z M256,144.167c-3.59,0-6.5-2.91-6.5-6.5
				c0-3.59,2.91-6.5,6.5-6.5c3.59,0,6.5,2.91,6.5,6.5C262.5,141.256,259.59,144.167,256,144.167z"/>
		</g>
	</g>
	<g>
		<g>
			<path class="st7" d="M310.909,177.475H201.091c-2.761,0-5,2.239-5,5s2.239,5,5,5h109.818c2.761,0,5-2.239,5-5
				S313.671,177.475,310.909,177.475z"/>
		</g>
	</g>
	<g>
		<g>
			<path class="st7" d="M310.909,205.371H201.091c-2.761,0-5,2.239-5,5s2.239,5,5,5h109.818c2.761,0,5-2.239,5-5
				S313.671,205.371,310.909,205.371z"/>
		</g>
	</g>
	<g>
		<g>
			<path class="st7" d="M310.909,233.268H201.091c-2.761,0-5,2.239-5,5s2.239,5,5,5h109.818c2.761,0,5-2.239,5-5
				S313.671,233.268,310.909,233.268z"/>
		</g>
	</g>
	<g>
		<g>
			<path class="st7" d="M310.909,261.164H201.091c-2.761,0-5,2.239-5,5s2.239,5,5,5h109.818c2.761,0,5-2.239,5-5
				S313.671,261.164,310.909,261.164z"/>
		</g>
	</g>
	<g>
		<g>
			<path class="st7" d="M310.909,289.061H201.091c-2.761,0-5,2.239-5,5s2.239,5,5,5h109.818c2.761,0,5-2.239,5-5
				S313.671,289.061,310.909,289.061z"/>
		</g>
	</g>
	<g>
		<g>
			<path class="st0" d="M149.769,190.774c-18.856-4.527-33.574-18.636-38.31-36.689l-0.808-3.086l-0.8,3.086
				c-4.732,18.053-19.458,32.162-38.32,36.689l-3.211,0.768l3.211,0.771c18.863,4.525,33.588,18.63,38.32,36.689l0.8,3.084
				l0.808-3.084c4.737-18.058,19.454-32.163,38.31-36.689l3.225-0.771L149.769,190.774z"/>
		</g>
	</g>
	<g>
		<g>
			<path class="st0" d="M188.223,107.727c-10.39-2.494-18.5-10.269-21.11-20.216l-0.445-1.7l-0.441,1.7
				c-2.608,9.948-10.722,17.722-21.115,20.216l-1.77,0.423l1.77,0.425c10.394,2.494,18.508,10.266,21.115,20.216l0.441,1.699
				l0.445-1.699c2.61-9.951,10.72-17.723,21.11-20.216l1.777-0.425L188.223,107.727z"/>
		</g>
	</g>
	<g>
		<g>
			<path class="st8" d="M309.065,418.424c-10.78-2.588-19.194-10.654-21.902-20.975l-0.462-1.764l-0.457,1.764
				c-2.706,10.321-11.124,18.387-21.908,20.975l-1.836,0.439l1.836,0.441c10.784,2.587,19.202,10.651,21.908,20.975l0.457,1.763
				l0.462-1.763c2.708-10.324,11.122-18.388,21.902-20.975l1.844-0.441L309.065,418.424z"/>
		</g>
	</g>
	<g>
		<g>
			<path class="st5" d="M437.825,303.215c-9.206-2.21-16.391-9.098-18.703-17.912l-0.395-1.507l-0.391,1.507
				c-2.31,8.814-9.5,15.702-18.708,17.912l-1.568,0.375l1.568,0.376c9.209,2.209,16.398,9.095,18.708,17.912l0.391,1.505
				l0.395-1.505c2.313-8.816,9.498-15.702,18.703-17.912l1.575-0.376L437.825,303.215z"/>
		</g>
	</g>
	<g>
		<g>
			<path class="st5" d="M427.078,231.533c-13.571-3.258-24.164-13.413-27.573-26.406l-0.581-2.221l-0.576,2.221
				c-3.406,12.993-14.004,23.148-27.58,26.406l-2.311,0.553l2.311,0.555c13.576,3.257,24.174,13.409,27.58,26.406l0.576,2.219
				l0.581-2.219c3.409-12.997,14.002-23.149,27.573-26.406l2.321-0.555L427.078,231.533z"/>
		</g>
	</g>
	<g>
		<g>
			<path class="st8" d="M262.197,305.014c0,0-36.182,0-46.891,0c-5.392,0-6.4-4.27-4.474-9.956c1.899-5.607,3.9-8.412,3.9-17.141
				c0-10.935-6.388-24.923-17.148-24.923c-6.672,0-4.314,14.931-13.646,35.401c-4.168,9.142-13.693,23.365-20.208,31.27v67.256
				c3.953,4.267,10.11,8.762,18.522,8.762c11.449,0,63.307-0.039,63.307-0.039c16.481,0,16.666-20.735,5.77-22.518l2.956,0.104
				c10.431-1.125,14.808-19.655,1.468-23.028l2.487-0.045c9.966-1.047,14.542-18.785,0.659-22.74l3.296-0.333
				C277,326.877,276.196,305.053,262.197,305.014z"/>
		</g>
	</g>
	<g>
		<g>
			<path class="st2" d="M156.542,311.219h-21.458c-3.971,0-7.186,3.224-7.186,7.187v70.092c0,3.971,3.215,7.186,7.186,7.186h21.458
				c3.963,0,7.187-3.215,7.187-7.186v-70.092C163.729,314.443,160.505,311.219,156.542,311.219z"/>
		</g>
	</g>
	<g>
		<g>
			<path class="st3" d="M150.338,319.553c-3.042,0-5.501,2.459-5.501,5.501s2.459,5.5,5.501,5.5s5.501-2.459,5.501-5.5
				S153.379,319.553,150.338,319.553z"/>
		</g>
	</g>
	<g>
		<g>
			<path class="st0" d="M363.423,258.54h-69.105c-8.678,0-15.714,7.039-15.714,15.717v37.463c0,8.678,7.036,15.715,15.714,15.715
				h11.361v21.205l21.572-21.205h36.173c8.675,0,15.714-7.037,15.714-15.715v-37.463C379.137,265.579,372.098,258.54,363.423,258.54
				z"/>
		</g>
	</g>
	<g>
		<g>
			<path class="st8" d="M352.913,272.89c-2.772-2.328-6.909-1.975-9.239,0.799l-20.708,24.623l-8.46-8.184
				c-2.6-2.516-6.752-2.449-9.273,0.154c-2.517,2.604-2.449,6.754,0.154,9.273l13.515,13.07c1.227,1.185,2.861,1.844,4.559,1.844
				c0.113,0,0.226-0.002,0.339-0.01c1.815-0.092,3.509-0.936,4.679-2.328l25.23-30.004
				C356.041,279.358,355.685,275.222,352.913,272.89z"/>
		</g>
	</g>
</g>
</svg>
