<?xml version="1.0" encoding="utf-8"?>
<!-- Generator: Adobe Illustrator 22.0.1, SVG Export Plug-In . SVG Version: 6.00 Build 0)  -->
<svg version="1.1" id="Layer_1" xmlns="http://www.w3.org/2000/svg" xmlns:xlink="http://www.w3.org/1999/xlink" x="0px" y="0px"
	 viewBox="0 0 512 512" style="enable-background:new 0 0 512 512;" xml:space="preserve">
<style type="text/css">
	.st0{fill:#330D84;}
	.st1{fill:#EDF3FC;}
	.st2{fill:#5932AE;}
	.st3{fill:#FFFFFF;}
	.st4{fill:#FFE37B;}
	.st5{fill:#5D8EF9;}
	.st6{fill:#8C7BFD;}
	.st7{fill:#8AC9F9;}
	.st8{fill:#FFBE1B;}
	.st9{fill:#6857E5;}
</style>
<g>
	<g>
		<g>
			<path class="st1" d="M255.999,40.928c-118.778,0-215.071,96.294-215.071,215.074c0,118.776,96.293,215.068,215.071,215.068
				c118.778,0,215.071-96.292,215.071-215.068C471.07,137.222,374.777,40.928,255.999,40.928z"/>
		</g>
	</g>
	<g>
		<g>
			<path class="st1" d="M255.999,1C115.391,1,1,115.392,1,256.002C1,396.609,115.391,511,255.999,511
				C396.607,511,511,396.609,511,256.002C511,115.392,396.607,1,255.999,1z M255.999,502.832
				c-136.103,0-246.83-110.728-246.83-246.83c0-136.104,110.727-246.833,246.83-246.833c136.102,0,246.832,110.729,246.832,246.833
				C502.831,392.104,392.101,502.832,255.999,502.832z"/>
		</g>
	</g>
	<g>
		<g>
			<rect x="136.42" y="153.089" class="st7" width="239.16" height="165.822"/>
		</g>
	</g>
	<g>
		<g>
			<path class="st0" d="M383.956,133h-98.428c-1.29-4.059-5.086-7-9.572-7h-9.911v-9.956c0-5.547-4.497-10.044-10.044-10.044
				c-5.547,0-10.044,4.497-10.044,10.044V126h-9.911c-4.486,0-8.282,2.941-9.572,7h-98.428c-5.547,0-10.044,4.497-10.044,10.044
				s4.497,10.044,10.044,10.044h255.911c5.547,0,10.044-4.497,10.044-10.044S389.503,133,383.956,133z"/>
		</g>
	</g>
	<g>
		<g>
			<path class="st0" d="M383.956,318.911H128.044c-5.547,0-10.044,4.497-10.044,10.044S122.497,339,128.044,339h93.511
				l-38.258,66.266c-3.866,6.696,0.966,15.066,8.699,15.066h0c3.589,0,6.904-1.915,8.699-5.022L221.658,379h68.684l20.963,36.31
				c1.794,3.108,5.11,5.022,8.699,5.022h0c7.732,0,12.565-8.37,8.699-15.066L290.444,339h93.511c5.547,0,10.044-4.497,10.044-10.044
				S389.503,318.911,383.956,318.911z M233.257,358.911L244.752,339h22.496l11.496,19.911H233.257z"/>
		</g>
	</g>
	<g>
		<g>
			<path class="st3" d="M354,194h-33v-24c0-2.761-2.239-5-5-5s-5,2.239-5,5v24h-50v-24c0-2.761-2.239-5-5-5s-5,2.239-5,5v24h-50v-24
				c0-2.761-2.239-5-5-5s-5,2.239-5,5v24h-33c-2.761,0-5,2.239-5,5s2.239,5,5,5h33v100c0,2.761,2.239,5,5,5s5-2.239,5-5V204h50v100
				c0,2.761,2.239,5,5,5s5-2.239,5-5V204h50v100c0,2.761,2.239,5,5,5s5-2.239,5-5V204h33c2.761,0,5-2.239,5-5S356.761,194,354,194z"
				/>
		</g>
	</g>
	<g>
		<g>
			<g>
				<path class="st8" d="M169.215,219.045c-4.895,0-8.963,4.031-8.963,8.963v9.143c0,4.932,4.068,8.963,8.963,8.963
					c4.968,0,8.963-4.031,8.963-8.963v-9.143C178.178,223.076,174.183,219.045,169.215,219.045z M172.455,237.15
					c0,1.764-1.44,3.275-3.24,3.275s-3.239-1.512-3.239-3.275v-9.143c0-1.764,1.439-3.276,3.239-3.276s3.24,1.512,3.24,3.276V237.15
					z"/>
			</g>
		</g>
	</g>
	<g>
		<g>
			<path class="st8" d="M227.091,219.261h-5.04c-1.368,0-2.52,1.151-2.52,2.52c0,1.404,1.152,2.52,2.52,2.52h2.016v18.718
				c0,1.584,1.295,2.88,2.879,2.88s2.88-1.296,2.88-2.88V222.14C229.827,220.592,228.603,219.261,227.091,219.261z"/>
		</g>
	</g>
	<g>
		<g>
			<path class="st8" d="M343.039,230.959c0.864-1.224,1.368-2.735,1.368-4.355c0-6.659-7.379-9.503-11.951-6.191
				c-1.296,0.937-1.583,2.664-0.684,3.96s2.7,1.62,3.995,0.72c1.224-0.864,2.916,0.036,2.916,1.512c0,1.296-0.864,1.836-2.16,1.908
				c-1.548,0.107-2.556,1.332-2.556,2.808c0,1.26,0.864,2.411,2.087,2.771c0.684,0.216,1.368,0.072,2.088,0.396
				c1.116,0.504,1.872,1.584,1.872,2.808c0,3.312-4.248,4.176-5.795,1.548c-0.792-1.367-2.556-1.8-3.924-1.008
				c-1.332,0.792-1.8,2.556-1.008,3.924c1.584,2.699,4.5,4.355,7.631,4.355c4.859,0,8.819-3.96,8.819-8.819
				C345.738,234.811,344.694,232.579,343.039,230.959z"/>
		</g>
	</g>
	<g>
		<g>
			<g>
				<path class="st8" d="M169.215,268.045c-4.895,0-8.963,4.031-8.963,8.963v9.143c0,4.932,4.068,8.963,8.963,8.963
					c4.968,0,8.963-4.031,8.963-8.963v-9.143C178.178,272.076,174.183,268.045,169.215,268.045z M172.455,286.15
					c0,1.764-1.44,3.275-3.24,3.275s-3.239-1.512-3.239-3.275v-9.143c0-1.764,1.439-3.276,3.239-3.276s3.24,1.512,3.24,3.276V286.15
					z"/>
			</g>
		</g>
	</g>
	<g>
		<g>
			<path class="st8" d="M292.542,289.102h-5.507l5.723-6.983c3.204-3.888,2.556-9.071-1.188-12.203
				c-3.671-3.095-9.179-2.483-12.238,1.224c-0.936,1.116-0.756,2.844,0.396,3.816c1.188,0.936,2.879,0.756,3.815-0.396
				c1.152-1.368,3.204-1.583,4.536-0.468c1.404,1.152,1.583,3.168,0.468,4.535l-9.503,11.663c-1.583,1.979,0.072,4.607,2.268,4.607
				h11.231c1.62,0,2.916-1.296,2.916-2.916C295.458,290.397,294.162,289.102,292.542,289.102z"/>
		</g>
	</g>
	<g>
		<g>
			<path class="st8" d="M343.039,279.959c0.864-1.224,1.368-2.735,1.368-4.355c0-6.659-7.379-9.503-11.951-6.191
				c-1.296,0.937-1.583,2.664-0.684,3.96s2.7,1.62,3.995,0.72c1.224-0.864,2.916,0.036,2.916,1.512c0,1.296-0.864,1.836-2.16,1.908
				c-1.548,0.107-2.556,1.332-2.556,2.808c0,1.26,0.864,2.411,2.087,2.771c0.684,0.216,1.368,0.072,2.088,0.396
				c1.116,0.504,1.872,1.584,1.872,2.808c0,3.312-4.248,4.176-5.795,1.548c-0.792-1.367-2.556-1.8-3.924-1.008
				c-1.332,0.792-1.8,2.556-1.008,3.924c1.584,2.699,4.5,4.355,7.631,4.355c4.859,0,8.819-3.96,8.819-8.819
				C345.738,283.811,344.694,281.579,343.039,279.959z"/>
		</g>
	</g>
	<g>
		<g>
			<path class="st2" d="M285.658,212.772c-9.728,0-17.614,7.886-17.614,17.614S275.93,248,285.658,248s17.614-7.886,17.614-17.614
				S295.386,212.772,285.658,212.772z"/>
		</g>
	</g>
	<g>
		<g>
			<path class="st2" d="M226,264.272c-9.728,0-17.614,7.886-17.614,17.614S216.272,299.5,226,299.5s17.614-7.886,17.614-17.614
				S235.728,264.272,226,264.272z"/>
		</g>
	</g>
	<g>
		<g>
			<path class="st8" d="M419.243,201.926c-7.233-1.737-12.878-7.149-14.695-14.074l-0.31-1.184l-0.307,1.184
				c-1.815,6.925-7.464,12.337-14.699,14.074L388,202.221l1.232,0.296c7.235,1.735,12.884,7.146,14.699,14.073l0.307,1.183
				l0.31-1.183c1.817-6.927,7.462-12.337,14.695-14.073l1.237-0.296L419.243,201.926z"/>
		</g>
	</g>
	<g>
		<g>
			<path class="st8" d="M452.739,266.665c-14.987-3.598-26.685-14.813-30.45-29.162l-0.642-2.453l-0.636,2.453
				c-3.761,14.349-15.466,25.563-30.458,29.162l-2.553,0.61l2.553,0.613c14.992,3.597,26.697,14.808,30.458,29.161l0.636,2.451
				l0.642-2.451c3.765-14.353,15.463-25.564,30.45-29.161l2.564-0.613L452.739,266.665z"/>
		</g>
	</g>
	<g>
		<g>
			<path class="st0" d="M223.996,95.81c-11.716-2.813-20.86-11.58-23.803-22.796l-0.502-1.917l-0.497,1.917
				c-2.94,11.217-12.09,19.983-23.81,22.796l-1.995,0.477l1.995,0.479c11.72,2.812,20.869,11.576,23.81,22.795l0.497,1.916
				l0.502-1.916c2.943-11.22,12.087-19.983,23.803-22.795L226,96.287L223.996,95.81z"/>
		</g>
	</g>
	<g>
		<g>
			<path class="st5" d="M165.534,378.552c-11.004-2.642-19.594-10.876-22.358-21.412l-0.471-1.801l-0.467,1.801
				c-2.762,10.536-11.356,18.771-22.364,21.412L118,379l1.874,0.45c11.008,2.641,19.602,10.873,22.364,21.411l0.467,1.8l0.471-1.8
				c2.764-10.539,11.354-18.771,22.358-21.411l1.882-0.45L165.534,378.552z"/>
		</g>
	</g>
	<g>
		<g>
			<path class="st5" d="M125.512,298.688c-14.547-3.492-25.901-14.377-29.555-28.305l-0.623-2.381l-0.617,2.381
				c-3.651,13.928-15.011,24.813-29.563,28.305l-2.478,0.593l2.478,0.595c14.552,3.491,25.912,14.373,29.563,28.304l0.617,2.379
				l0.623-2.379c3.654-13.932,15.009-24.813,29.555-28.304L128,299.28L125.512,298.688z"/>
		</g>
	</g>
</g>
</svg>
