<?xml version="1.0" encoding="utf-8"?>
<!-- Generator: Adobe Illustrator 22.0.1, SVG Export Plug-In . SVG Version: 6.00 Build 0)  -->
<svg version="1.1" id="Layer_1" xmlns="http://www.w3.org/2000/svg" xmlns:xlink="http://www.w3.org/1999/xlink" x="0px" y="0px"
	 viewBox="0 0 512 512" style="enable-background:new 0 0 512 512;" xml:space="preserve">
<style type="text/css">
	.st0{fill:#330D84;}
	.st1{fill:#EDF3FC;}
	.st2{fill:#5932AE;}
	.st3{fill:#FFFFFF;}
	.st4{fill:#FFE37B;}
	.st5{fill:#5D8EF9;}
	.st6{fill:#8C7BFD;}
	.st7{fill:#8AC9F9;}
	.st8{fill:#FFBE1B;}
	.st9{fill:#6857E5;}
</style>
<g>
	<g>
		<g>
			<path class="st1" d="M255.999,40.928c-118.778,0-215.071,96.294-215.071,215.074c0,118.776,96.293,215.068,215.071,215.068
				c118.778,0,215.071-96.292,215.071-215.068C471.07,137.222,374.777,40.928,255.999,40.928z"/>
		</g>
	</g>
	<g>
		<g>
			<path class="st1" d="M255.999,1C115.391,1,1,115.392,1,256.002C1,396.609,115.391,511,255.999,511S511,396.609,511,256.002
				C511,115.392,396.607,1,255.999,1z M255.999,502.832c-136.103,0-246.83-110.728-246.83-246.83
				c0-136.104,110.727-246.833,246.83-246.833c136.102,0,246.832,110.729,246.832,246.833
				C502.831,392.104,392.101,502.832,255.999,502.832z"/>
		</g>
	</g>
	<g>
		<g>
			<rect x="136.42" y="153.089" class="st7" width="239.16" height="165.822"/>
		</g>
	</g>
	<g>
		<g>
			<path class="st0" d="M383.956,133h-98.428c-1.29-4.059-5.086-7-9.572-7h-9.911v-9.956c0-5.547-4.497-10.044-10.044-10.044
				c-5.547,0-10.044,4.497-10.044,10.044V126h-9.911c-4.486,0-8.282,2.941-9.572,7h-98.428c-5.547,0-10.044,4.497-10.044,10.044
				s4.497,10.044,10.044,10.044h255.911c5.547,0,10.044-4.497,10.044-10.044S389.503,133,383.956,133z"/>
		</g>
	</g>
	<g>
		<g>
			<path class="st0" d="M383.956,318.911H128.044c-5.547,0-10.044,4.497-10.044,10.044S122.497,339,128.044,339h93.511
				l-38.258,66.266c-3.866,6.696,0.966,15.066,8.699,15.066h0c3.589,0,6.904-1.915,8.699-5.022L221.658,379h68.684l20.963,36.31
				c1.794,3.108,5.11,5.022,8.699,5.022h0c7.732,0,12.565-8.37,8.699-15.066L290.444,339h93.511c5.547,0,10.044-4.497,10.044-10.044
				S389.503,318.911,383.956,318.911z M233.257,358.911L244.752,339h22.496l11.496,19.911H233.257z"/>
		</g>
	</g>
	<g>
		<g>
			<path class="st8" d="M250.121,195.462h-13.977l-4.319-13.293c-0.673-2.071-3.602-2.071-4.275,0l-4.319,13.293h-13.977
				c-2.177,0-3.083,2.786-1.321,4.066l11.308,8.216l-4.319,13.293c-0.673,2.071,1.697,3.793,3.459,2.513l11.308-8.216l11.308,8.216
				c1.762,1.28,4.132-0.442,3.459-2.513l-4.319-13.293l11.308-8.216C253.203,198.248,252.298,195.462,250.121,195.462z"/>
		</g>
	</g>
	<g>
		<g>
			<path class="st8" d="M302.434,195.462h-13.977l-4.319-13.293c-0.673-2.071-3.602-2.071-4.275,0l-4.319,13.293h-13.977
				c-2.177,0-3.083,2.786-1.321,4.066l11.308,8.216l-4.319,13.293c-0.673,2.071,1.697,3.793,3.459,2.513L282,215.334l11.308,8.216
				c1.762,1.28,4.132-0.442,3.459-2.513l-4.319-13.293l11.308-8.216C305.517,198.248,304.612,195.462,302.434,195.462z"/>
		</g>
	</g>
	<g>
		<g>
			<path class="st8" d="M354.748,195.462h-13.977l-4.319-13.293c-0.673-2.071-3.602-2.071-4.275,0l-4.319,13.293h-13.977
				c-2.177,0-3.083,2.786-1.321,4.066l11.308,8.216l-4.319,13.293c-0.673,2.071,1.697,3.793,3.459,2.513l11.308-8.216l11.308,8.216
				c1.762,1.28,4.132-0.442,3.459-2.513l-4.319-13.293l11.308-8.216C357.831,198.248,356.925,195.462,354.748,195.462z"/>
		</g>
	</g>
	<g>
		<g>
			<path class="st3" d="M250.121,258.462h-13.977l-4.319-13.293c-0.673-2.071-3.602-2.071-4.275,0l-4.319,13.293h-13.977
				c-2.177,0-3.083,2.786-1.321,4.066l11.308,8.216l-4.319,13.293c-0.673,2.071,1.697,3.793,3.459,2.513l11.308-8.216l11.308,8.216
				c1.762,1.28,4.132-0.442,3.459-2.513l-4.319-13.293l11.308-8.216C253.203,261.248,252.298,258.462,250.121,258.462z"/>
		</g>
	</g>
	<g>
		<g>
			<path class="st3" d="M302.434,258.462h-13.977l-4.319-13.293c-0.673-2.071-3.602-2.071-4.275,0l-4.319,13.293h-13.977
				c-2.177,0-3.083,2.786-1.321,4.066l11.308,8.216l-4.319,13.293c-0.673,2.071,1.697,3.793,3.459,2.513L282,278.334l11.308,8.216
				c1.762,1.28,4.132-0.442,3.459-2.513l-4.319-13.293l11.308-8.216C305.517,261.248,304.612,258.462,302.434,258.462z"/>
		</g>
	</g>
	<g>
		<g>
			<path class="st8" d="M185.417,185.333h-20.833c-3.636,0-6.583,2.947-6.583,6.583v20.833c0,3.636,2.948,6.583,6.583,6.583h20.833
				c3.636,0,6.583-2.948,6.583-6.583v-20.833C192,188.281,189.052,185.333,185.417,185.333z"/>
		</g>
	</g>
	<g>
		<g>
			<path class="st3" d="M185.417,249.333h-20.833c-3.636,0-6.583,2.947-6.583,6.583v20.833c0,3.636,2.948,6.583,6.583,6.583h20.833
				c3.636,0,6.583-2.948,6.583-6.583v-20.833C192,252.281,189.052,249.333,185.417,249.333z"/>
		</g>
	</g>
	<g>
		<g>
			<path class="st2" d="M203.696,173.749c-2.159-1.725-5.304-1.372-7.027,0.784l-19.039,23.825l-6.496-6.962
				c-1.884-2.019-5.047-2.128-7.067-0.245c-2.019,1.884-2.128,5.048-0.245,7.067l10.444,11.193c0.948,1.016,2.272,1.589,3.655,1.589
				c0.064,0,0.128-0.001,0.192-0.004c1.452-0.055,2.808-0.74,3.714-1.875l22.652-28.346
				C206.204,178.619,205.853,175.472,203.696,173.749z"/>
		</g>
	</g>
	<g>
		<g>
			<path class="st8" d="M425.243,358.617c-7.233-1.737-12.878-7.148-14.695-14.073l-0.31-1.184l-0.307,1.184
				c-1.815,6.925-7.464,12.336-14.699,14.073L394,358.911l1.232,0.296c7.235,1.736,12.884,7.146,14.699,14.073l0.307,1.183
				l0.31-1.183c1.817-6.927,7.462-12.337,14.695-14.073l1.237-0.296L425.243,358.617z"/>
		</g>
	</g>
	<g>
		<g>
			<path class="st8" d="M388.087,378.39c-14.987-3.598-26.685-14.813-30.45-29.162l-0.642-2.453l-0.636,2.453
				c-3.761,14.349-15.466,25.563-30.458,29.162l-2.553,0.61l2.553,0.613c14.992,3.597,26.696,14.808,30.458,29.161l0.636,2.451
				l0.642-2.451c3.765-14.354,15.463-25.564,30.45-29.161l2.564-0.613L388.087,378.39z"/>
		</g>
	</g>
	<g>
		<g>
			<path class="st0" d="M122.883,270.339c-13.31-3.195-23.699-13.155-27.043-25.898l-0.57-2.179l-0.565,2.179
				c-3.341,12.743-13.735,22.703-27.05,25.898l-2.267,0.542l2.267,0.544c13.315,3.194,23.709,13.151,27.05,25.898l0.565,2.177
				l0.57-2.177c3.344-12.747,13.733-22.704,27.043-25.898l2.277-0.544L122.883,270.339z"/>
		</g>
	</g>
	<g>
		<g>
			<path class="st5" d="M240.826,81.891c-11.004-2.642-19.594-10.876-22.358-21.412l-0.471-1.801l-0.467,1.801
				c-2.762,10.536-11.356,18.771-22.364,21.412l-1.874,0.448l1.874,0.45c11.008,2.641,19.602,10.872,22.364,21.411l0.467,1.8
				l0.471-1.8c2.764-10.539,11.354-18.771,22.358-21.411l1.882-0.45L240.826,81.891z"/>
		</g>
	</g>
	<g>
		<g>
			<path class="st5" d="M174.884,108.397c-7.613-1.828-13.555-7.524-15.467-14.813l-0.326-1.246l-0.323,1.246
				c-1.911,7.289-7.856,12.985-15.471,14.813l-1.297,0.31l1.297,0.312c7.615,1.827,13.561,7.521,15.471,14.812l0.323,1.245
				l0.326-1.245c1.912-7.291,7.854-12.985,15.467-14.812l1.302-0.312L174.884,108.397z"/>
		</g>
	</g>
</g>
</svg>
