<?xml version="1.0" encoding="utf-8"?>
<!-- Generator: Adobe Illustrator 22.0.1, SVG Export Plug-In . SVG Version: 6.00 Build 0)  -->
<svg version="1.1" id="Layer_1" xmlns="http://www.w3.org/2000/svg" xmlns:xlink="http://www.w3.org/1999/xlink" x="0px" y="0px"
	 viewBox="0 0 512 512" style="enable-background:new 0 0 512 512;" xml:space="preserve">
<style type="text/css">
	.st0{fill:#330D84;}
	.st1{fill:#EDF3FC;}
	.st2{fill:#5932AE;}
	.st3{fill:#FFFFFF;}
	.st4{fill:#FFE37B;}
	.st5{fill:#5D8EF9;}
	.st6{fill:#8C7BFD;}
	.st7{fill:#8AC9F9;}
	.st8{fill:#FFBE1B;}
	.st9{fill:#6857E5;}
</style>
<g>
	<g>
		<g>
			<path class="st1" d="M255.999,40.928c-118.778,0-215.071,96.294-215.071,215.074c0,118.776,96.293,215.068,215.071,215.068
				S471.07,374.778,471.07,256.002C471.07,137.222,374.777,40.928,255.999,40.928z"/>
		</g>
	</g>
	<g>
		<g>
			<path class="st1" d="M255.999,1C115.391,1,1,115.392,1,256.002C1,396.609,115.391,511,255.999,511S511,396.609,511,256.002
				C511,115.392,396.607,1,255.999,1z M255.999,502.832c-136.103,0-246.83-110.728-246.83-246.83
				c0-136.104,110.727-246.833,246.83-246.833c136.102,0,246.832,110.729,246.832,246.833
				C502.831,392.104,392.101,502.832,255.999,502.832z"/>
		</g>
	</g>
	<g>
		<g>
			<path class="st7" d="M325.442,129.486h-167.34c-11.397,0-20.633,9.241-20.633,20.63v211.761c0,11.399,9.237,20.637,20.633,20.637
				h167.34c11.396,0,20.632-9.237,20.632-20.637V150.116C346.074,138.727,336.838,129.486,325.442,129.486z"/>
		</g>
	</g>
	<g>
		<g>
			<path class="st5" d="M146.474,168.747h-18.01c-5.82,0-10.538,4.718-10.538,10.538s4.718,10.538,10.538,10.538h18.01
				c5.82,0,10.538-4.718,10.538-10.538S152.293,168.747,146.474,168.747z"/>
		</g>
	</g>
	<g>
		<g>
			<path class="st5" d="M146.474,219.154h-18.01c-5.82,0-10.538,4.718-10.538,10.538s4.718,10.538,10.538,10.538h18.01
				c5.82,0,10.538-4.718,10.538-10.538S152.293,219.154,146.474,219.154z"/>
		</g>
	</g>
	<g>
		<g>
			<path class="st5" d="M146.474,269.562h-18.01c-5.82,0-10.538,4.718-10.538,10.538s4.718,10.538,10.538,10.538h18.01
				c5.82,0,10.538-4.718,10.538-10.538S152.293,269.562,146.474,269.562z"/>
		</g>
	</g>
	<g>
		<g>
			<path class="st5" d="M146.474,319.969h-18.01c-5.82,0-10.538,4.718-10.538,10.538s4.718,10.538,10.538,10.538h18.01
				c5.82,0,10.538-4.718,10.538-10.538S152.293,319.969,146.474,319.969z"/>
		</g>
	</g>
	<g>
		<g>
			<path class="st3" d="M214.531,162h-24.118c-7.136,0-12.94,5.805-12.94,12.941v24.118c0,7.136,5.805,12.941,12.94,12.941h24.118
				c7.136,0,12.941-5.805,12.941-12.941v-24.118C227.473,167.805,221.667,162,214.531,162z M217.473,199.059
				c0,1.622-1.319,2.941-2.941,2.941h-24.118c-1.621,0-2.94-1.319-2.94-2.941v-24.118c0-1.622,1.319-2.941,2.94-2.941h24.118
				c1.622,0,2.941,1.319,2.941,2.941V199.059z"/>
		</g>
	</g>
	<g>
		<g>
			<path class="st3" d="M295,171.447h-45.333c-2.762,0-5,2.239-5,5s2.238,5,5,5H295c2.762,0,5-2.239,5-5
				S297.762,171.447,295,171.447z"/>
		</g>
	</g>
	<g>
		<g>
			<path class="st3" d="M315,191.447h-65.333c-2.762,0-5,2.239-5,5s2.238,5,5,5H315c2.762,0,5-2.239,5-5
				S317.762,191.447,315,191.447z"/>
		</g>
	</g>
	<g>
		<g>
			<path class="st3" d="M214.531,232.266h-24.118c-7.136,0-12.94,5.806-12.94,12.941v24.118c0,7.136,5.805,12.941,12.94,12.941
				h24.118c7.136,0,12.941-5.805,12.941-12.941v-24.118C227.473,238.072,221.667,232.266,214.531,232.266z M217.473,269.325
				c0,1.622-1.319,2.941-2.941,2.941h-24.118c-1.621,0-2.94-1.319-2.94-2.941v-24.118c0-1.622,1.319-2.941,2.94-2.941h24.118
				c1.622,0,2.941,1.319,2.941,2.941V269.325z"/>
		</g>
	</g>
	<g>
		<g>
			<path class="st3" d="M295,241.713h-45.333c-2.762,0-5,2.239-5,5s2.238,5,5,5H295c2.762,0,5-2.239,5-5
				S297.762,241.713,295,241.713z"/>
		</g>
	</g>
	<g>
		<g>
			<path class="st3" d="M315,261.713h-65.333c-2.762,0-5,2.239-5,5s2.238,5,5,5H315c2.762,0,5-2.239,5-5
				S317.762,261.713,315,261.713z"/>
		</g>
	</g>
	<g>
		<g>
			<path class="st3" d="M214.531,302.533h-24.118c-7.136,0-12.94,5.805-12.94,12.941v24.118c0,7.136,5.805,12.941,12.94,12.941
				h24.118c7.136,0,12.941-5.805,12.941-12.941v-24.118C227.473,308.338,221.667,302.533,214.531,302.533z M217.473,339.592
				c0,1.622-1.319,2.941-2.941,2.941h-24.118c-1.621,0-2.94-1.319-2.94-2.941v-24.118c0-1.622,1.319-2.941,2.94-2.941h24.118
				c1.622,0,2.941,1.319,2.941,2.941V339.592z"/>
		</g>
	</g>
	<g>
		<g>
			<path class="st3" d="M295,311.98h-45.333c-2.762,0-5,2.239-5,5s2.238,5,5,5H295c2.762,0,5-2.239,5-5S297.762,311.98,295,311.98z"
				/>
		</g>
	</g>
	<g>
		<g>
			<path class="st3" d="M315,331.98h-65.333c-2.762,0-5,2.239-5,5s2.238,5,5,5H315c2.762,0,5-2.239,5-5S317.762,331.98,315,331.98z"
				/>
		</g>
	</g>
	<g>
		<g>
			<path class="st9" d="M377.492,305.807c-2.707,1.944-5.617,3.684-8.739,5.157c-3.118,1.472-6.306,2.61-9.524,3.463l8.467,17.941
				c1.036-1.408,2.425-2.586,4.116-3.384l8.921-4.209c1.69-0.797,3.482-1.12,5.227-1.025L377.492,305.807z"/>
		</g>
	</g>
	<g>
		<g>
			<path class="st8" d="M395.275,237.061c-13.09-27.736-46.176-39.602-73.911-26.511c-27.723,13.081-39.593,46.162-26.505,73.9
				c13.083,27.72,46.167,39.597,73.894,26.514C396.484,297.877,408.358,264.786,395.275,237.061z"/>
		</g>
	</g>
	<g>
		<g>
			<path class="st7" d="M381.309,243.653c-9.451-20.026-33.333-28.591-53.357-19.143c-20.017,9.445-28.589,33.328-19.136,53.354
				c9.441,20.011,33.331,28.585,53.347,19.14C382.187,287.555,390.754,263.668,381.309,243.653z"/>
		</g>
	</g>
	<g>
		<g>
			<path class="st2" d="M410.702,362.771l-15.477-32.794c-2.565-5.439-9.055-7.768-14.493-5.203l-8.921,4.209
				c-5.436,2.567-7.767,9.057-5.201,14.496l15.477,32.794c2.566,5.437,9.054,7.761,14.492,5.197l8.923-4.209
				C410.938,374.696,413.266,368.209,410.702,362.771z"/>
		</g>
	</g>
	<g>
		<g>
			<path class="st0" d="M277.065,422.039c-13.209-3.171-23.518-13.055-26.836-25.701l-0.566-2.162l-0.561,2.162
				c-3.315,12.646-13.63,22.529-26.843,25.701l-2.25,0.538l2.25,0.54c13.213,3.17,23.528,13.05,26.843,25.7l0.561,2.161l0.566-2.161
				c3.318-12.649,13.627-22.53,26.836-25.7l2.259-0.54L277.065,422.039z"/>
		</g>
	</g>
	<g>
		<g>
			<path class="st0" d="M325.156,406.368c-7.676-1.843-13.667-7.586-15.595-14.935l-0.329-1.256l-0.326,1.256
				c-1.926,7.349-7.921,13.092-15.599,14.935L292,406.681l1.307,0.313c7.678,1.842,13.673,7.584,15.599,14.935l0.326,1.255
				l0.329-1.255c1.928-7.351,7.919-13.092,15.595-14.935l1.313-0.313L325.156,406.368z"/>
		</g>
	</g>
	<g>
		<g>
			<path class="st5" d="M217.908,94.911c-12.284-2.949-21.871-12.14-24.957-23.901L192.425,69l-0.521,2.01
				c-3.083,11.761-12.676,20.952-24.963,23.901l-2.092,0.5l2.092,0.502c12.288,2.948,21.881,12.136,24.963,23.9l0.521,2.009
				l0.526-2.009c3.086-11.764,12.673-20.953,24.957-23.9l2.101-0.502L217.908,94.911z"/>
		</g>
	</g>
	<g>
		<g>
			<path class="st8" d="M412.789,174.796c-13.415-3.221-23.886-13.259-27.256-26.103l-0.575-2.196l-0.569,2.196
				c-3.367,12.844-13.844,22.882-27.264,26.103l-2.285,0.546l2.285,0.548c13.42,3.22,23.897,13.255,27.264,26.103l0.569,2.194
				l0.575-2.194c3.37-12.848,13.841-22.883,27.256-26.103l2.295-0.548L412.789,174.796z"/>
		</g>
	</g>
	<g>
		<g>
			<path class="st8" d="M447.217,223.475c-8.653-2.077-15.406-8.552-17.58-16.836l-0.371-1.416l-0.367,1.416
				c-2.172,8.284-8.929,14.759-17.585,16.836l-1.474,0.353l1.474,0.354c8.656,2.076,15.413,8.549,17.585,16.836l0.367,1.415
				l0.371-1.415c2.174-8.287,8.927-14.76,17.58-16.836l1.48-0.354L447.217,223.475z"/>
		</g>
	</g>
</g>
</svg>
