<svg id="Layer_1" data-name="Layer 1" xmlns="http://www.w3.org/2000/svg" viewBox="0 0 128 128"><title>BENCH</title><path d="M107.276,39.716a8.462,8.462,0,0,0-9.535-12.63A12.695,12.695,0,0,0,73.988,31.9a6.463,6.463,0,1,0-1.71,12.228A8.742,8.742,0,0,0,86,52.429a12.7,12.7,0,1,0,21.272-12.712Z" style="fill:#96dd3d"/><path d="M108.574,35.223a8.461,8.461,0,0,0-10.834-8.136A12.739,12.739,0,0,0,91.028,21.3V59a12.688,12.688,0,0,0,16.247-19.287A8.424,8.424,0,0,0,108.574,35.223Z" style="fill:#59c26a"/><path d="M95.244,47.479a1.738,1.738,0,0,1-.878-.237l-8.436-4.907a1.75,1.75,0,1,1,1.76-3.025l8.436,4.907a1.75,1.75,0,0,1-.882,3.263Z" style="fill:#ff8100"/><path d="M95.92,57.789a1.75,1.75,0,0,1-1-3.187l9.387-6.53a1.75,1.75,0,0,1,2,2.873l-9.387,6.53A1.738,1.738,0,0,1,95.92,57.789Z" style="fill:#ff5d00"/><path d="M99.472,107.268H92.365L94.026,41.4a1.893,1.893,0,0,1,1.893-1.846h0A1.893,1.893,0,0,1,97.811,41.4Z" style="fill:#ff8100"/><path d="M99.472,107.268,97.811,41.4a1.893,1.893,0,0,0-1.893-1.846v67.718Z" style="fill:#ff5d00"/><path d="M26.686,81.229a1.75,1.75,0,0,1-1.75-1.75v-9.2a1.75,1.75,0,0,1,3.5,0v9.2A1.75,1.75,0,0,1,26.686,81.229Z" style="fill:#b95529"/><path d="M75.981,81.229a1.75,1.75,0,0,1-1.75-1.75v-9.2a1.75,1.75,0,0,1,3.5,0v9.2A1.75,1.75,0,0,1,75.981,81.229Z" style="fill:#b95529"/><rect x="17.243" y="79.48" width="68.18" height="11.636" style="fill:#f9235e"/><rect x="21.964" y="58.643" width="58.738" height="11.636" style="fill:#f9235e"/><rect x="21.351" y="91.116" width="5.335" height="16.152" style="fill:#b95529"/><rect x="75.98" y="91.116" width="5.335" height="16.152" style="fill:#b95529"/><path d="M105.888,102.4a4.861,4.861,0,0,0-1.269.173,4.915,4.915,0,0,0-4.881-5.721c-.109,0-.216.009-.323.016a7.082,7.082,0,0,0-12.974-1.275c-.141-.012-.283-.022-.427-.022a4.944,4.944,0,0,0-4.928,4.575,3.638,3.638,0,0,0-4.027,2.256c-.024,0-.048,0-.073,0a4.87,4.87,0,0,0-4.87,4.87h38.641A4.87,4.87,0,0,0,105.888,102.4Z" style="fill:#e76a36"/><rect x="51.333" y="58.643" width="29.369" height="11.636" style="fill:#c81341"/><rect x="51.333" y="79.465" width="34.09" height="11.636" style="fill:#c81341"/><path d="M110.758,107.268a4.854,4.854,0,0,0-6.139-4.7,4.915,4.915,0,0,0-4.881-5.721c-.109,0-.216.009-.323.016A7.083,7.083,0,0,0,92.657,91.9v15.365Z" style="fill:#b95529"/><path d="M116,105.742l-3.681-.005a6.629,6.629,0,0,0-5.983-5.073,6.714,6.714,0,0,0-5.719-5.506,8.761,8.761,0,0,0-6.079-4.782L95.774,41.44c0-.154.284-.153.288,0l.33,13.075v.008l.777,30.82a1.723,1.723,0,0,0,1.793,1.705,1.748,1.748,0,0,0,1.705-1.793L100.1,62.735a14.431,14.431,0,0,0,9.288-23.25A10.215,10.215,0,0,0,100.1,25a10.027,10.027,0,0,0-1.516.116,14.4,14.4,0,0,0-10.774-6.308,1.75,1.75,0,1,0-.285,3.488,10.916,10.916,0,0,1,8.684,5.638,1.756,1.756,0,0,0,2.02.837,6.713,6.713,0,0,1,7.566,10.018A1.753,1.753,0,0,0,106,40.92,10.931,10.931,0,0,1,100.01,59.2l-.1-3.814,6.389-4.445a1.75,1.75,0,0,0-2-2.873l-4.5,3.128-.248-9.85a3.643,3.643,0,0,0-7.284,0l-.016.617L87.69,39.31a1.75,1.75,0,1,0-1.76,3.025l6.23,3.624L91.042,90.318a8.819,8.819,0,0,0-5.564,3.524,6.6,6.6,0,0,0-2.412.689V92.866h2.357a1.75,1.75,0,0,0,1.75-1.75V79.479a1.75,1.75,0,0,0-1.75-1.75H77.73v-5.7H80.7a1.75,1.75,0,0,0,1.75-1.75V58.643a1.75,1.75,0,0,0-1.75-1.75H21.964a1.75,1.75,0,0,0-1.75,1.75V70.279a1.75,1.75,0,0,0,1.75,1.75h2.972v5.7H17.242a1.75,1.75,0,0,0-1.75,1.75V91.116a1.75,1.75,0,0,0,1.75,1.75H19.6V105.6l-7.6-.011h0a1.75,1.75,0,0,0,0,3.5l104,.149h0a1.75,1.75,0,0,0,0-3.5ZM86.014,97.32c.1,0,.188.008.281.016a1.753,1.753,0,0,0,1.681-.9,5.333,5.333,0,0,1,9.77.957,1.791,1.791,0,0,0,1.847,1.22l.146-.008a3.2,3.2,0,0,1,3.2,3.2,3.143,3.143,0,0,1-.045.5,1.75,1.75,0,0,0,2.185,1.963,3.092,3.092,0,0,1,3.4,1.257H74.4a3.056,3.056,0,0,1,2.517-1.371,1.807,1.807,0,0,0,1.768-1.1,1.945,1.945,0,0,1,2.1-1.18,1.749,1.749,0,0,0,2.045-1.594A3.2,3.2,0,0,1,86.014,97.32Zm-6.448,1.1a5.373,5.373,0,0,0-1.835.665V92.866h1.835ZM28.436,72.029H34.75a1.75,1.75,0,0,0,0-3.5H23.714V60.393H78.952v8.137H49.25a1.75,1.75,0,0,0,0,3.5H74.23v5.7H28.436Zm-9.443,9.2H83.673v8.137H18.992Zm5.943,11.637v12.651H23.1V92.866Zm3.5,10.921H66.167a1.75,1.75,0,0,0,0-3.5H28.436V92.866H74.23v8.386a6.642,6.642,0,0,0-3.665,4.425l-42.13-.06Z" style="fill:#790000"/><path d="M42.5,68.529H41.25a1.75,1.75,0,0,0,0,3.5H42.5a1.75,1.75,0,0,0,0-3.5Z" style="fill:#790000"/><path d="M70.461,45.918a10.5,10.5,0,0,0,16.554,7.938A1.75,1.75,0,0,0,84.991,51a7,7,0,0,1-11.049-5.714,7.036,7.036,0,0,1,.07-.931,1.75,1.75,0,0,0-2-1.961,4.814,4.814,0,0,1-.728.063,4.705,4.705,0,1,1,1.969-8.974,1.75,1.75,0,0,0,2.476-1.41,10.892,10.892,0,0,1,2.2-5.528,1.75,1.75,0,1,0-2.777-2.131,14.406,14.406,0,0,0-2.539,5.241,8.109,8.109,0,0,0-1.326-.108,8.205,8.205,0,0,0-.824,16.369Z" style="fill:#790000"/><path d="M81.3,23.423a1.749,1.749,0,0,0,.739-.164c.125-.059.251-.113.379-.167a1.75,1.75,0,0,0-1.352-3.229q-.256.107-.508.224a1.75,1.75,0,0,0,.741,3.336Z" style="fill:#790000"/></svg>