<svg id="Layer_1" data-name="Layer 1" xmlns="http://www.w3.org/2000/svg" viewBox="0 0 128 128"><title>BUCKET</title><path d="M87.441,29.024a7.886,7.886,0,0,0-2.059.281,7.973,7.973,0,0,0-7.917-9.28c-.177,0-.35.015-.523.026A11.488,11.488,0,0,0,55.9,17.983c-.229-.02-.459-.035-.692-.035a8.02,8.02,0,0,0-7.994,7.421,5.9,5.9,0,0,0-6.532,3.66c-.04,0-.078-.006-.118-.006a7.9,7.9,0,0,0-7.9,7.9H95.34A7.9,7.9,0,0,0,87.441,29.024Z" style="fill:#e76a36"/><path d="M77.465,20.025c-.177,0-.35.015-.523.026A11.362,11.362,0,0,0,64,12.19V36.923H95.34A7.875,7.875,0,0,0,85.382,29.3a7.973,7.973,0,0,0-7.917-9.28Z" style="fill:#b95529"/><polygon points="88.513 110.302 39.487 110.302 30.506 47.622 97.495 47.622 88.513 110.302" style="fill:#ffd92d"/><polygon points="64 110.302 88.513 110.302 97.495 47.622 64 47.622 64 110.302" style="fill:#fcbe00"/><rect x="50.333" y="57.472" width="27.333" height="7.695" rx="3.848" ry="3.848" style="fill:#e5ffff"/><path d="M73.819,57.472H64v7.7h9.819a3.848,3.848,0,0,0,3.848-3.847h0A3.848,3.848,0,0,0,73.819,57.472Z" style="fill:#cae7f7"/><path d="M53.178,28.578a1.75,1.75,0,0,1-1.75-1.75,5.712,5.712,0,0,1,5.705-5.706,1.75,1.75,0,0,1,0,3.5,2.208,2.208,0,0,0-2.205,2.206A1.75,1.75,0,0,1,53.178,28.578Z" style="fill:#b95529"/><path d="M70.617,21.526a1.75,1.75,0,0,1-1.74-1.584,1.016,1.016,0,0,0-1.109-.917,1.75,1.75,0,0,1-.331-3.484,4.524,4.524,0,0,1,4.925,4.069,1.75,1.75,0,0,1-1.576,1.908C70.729,21.524,70.673,21.526,70.617,21.526Z" style="fill:#e76a36"/><rect x="24.538" y="36.923" width="78.924" height="10.699" style="fill:#00d6de"/><polygon points="90.758 116 37.242 116 39.487 110.302 88.513 110.302 90.758 116" style="fill:#00d6de"/><rect x="64" y="36.923" width="39.462" height="10.699" style="fill:#00a9de"/><polygon points="64 116 90.758 116 88.513 110.302 64 110.302 64 116" style="fill:#00a9de"/><path d="M116,114.25h-.625a1.75,1.75,0,0,0,0,3.5H116a1.75,1.75,0,0,0,0-3.5Z" style="fill:#790000"/><path d="M109.375,114.25H91.949l-1.639-4.158,7.935-55.374a1.75,1.75,0,0,0-3.465-.5L87,108.552H77.667a1.75,1.75,0,0,0,0,3.5h9.654l.866,2.2H39.812l.866-2.2H70a1.75,1.75,0,0,0,0-3.5H41l-8.48-59.18H80.333v10.2h-1.2a5.6,5.6,0,0,0-5.313-3.848H54.181a5.6,5.6,0,0,0-5.313,3.848h-1.2V53.75a1.75,1.75,0,0,0-3.5,0v7.569a1.75,1.75,0,0,0,1.75,1.75h2.951a5.6,5.6,0,0,0,5.313,3.847H73.819a5.6,5.6,0,0,0,5.313-3.847h2.951a1.75,1.75,0,0,0,1.75-1.75V49.372h19.628a1.75,1.75,0,0,0,1.75-1.75v-10.7a1.75,1.75,0,0,0-1.75-1.75H54.25a1.75,1.75,0,0,0,0,3.5h47.462v7.2H26.288v-7.2H39.833a1.75,1.75,0,0,0,0-3.5H34.667a6.13,6.13,0,0,1,5.829-4.4c.042,0,.145.007.182.007a1.751,1.751,0,0,0,1.626-1.1,4.148,4.148,0,0,1,4.61-2.582A1.75,1.75,0,0,0,48.955,25.5,6.293,6.293,0,0,1,55.2,19.7c.183,0,.364.014.543.029a1.76,1.76,0,0,0,1.684-.9,9.739,9.739,0,0,1,17.841,1.75A1.753,1.753,0,0,0,77.054,21.8l.115-.008c.1-.007.2-.015.3-.015a6.222,6.222,0,0,1,6.188,7.256,1.75,1.75,0,0,0,2.184,1.963,6.019,6.019,0,0,1,4.452.477,1.75,1.75,0,0,0,1.624-3.1,9.584,9.584,0,0,0-4.7-1.094A9.791,9.791,0,0,0,78.16,18.3a13.24,13.24,0,0,0-23.233-2.1,9.821,9.821,0,0,0-9.183,7.339,7.646,7.646,0,0,0-6.176,3.783,9.669,9.669,0,0,0-8.5,7.849H24.538a1.75,1.75,0,0,0-1.75,1.75v10.7a1.75,1.75,0,0,0,1.75,1.75h4.45l8.7,60.72-1.639,4.158H12a1.75,1.75,0,0,0,0,3.5h97.375a1.75,1.75,0,0,0,0-3.5ZM73.819,63.417H54.181a2.1,2.1,0,0,1,0-4.195H73.819a2.1,2.1,0,0,1,0,4.195Z" style="fill:#790000"/><path d="M51.428,26.828a1.75,1.75,0,1,0,3.5,0,2.208,2.208,0,0,1,2.205-2.206,1.75,1.75,0,0,0,0-3.5A5.712,5.712,0,0,0,51.428,26.828Z" style="fill:#790000"/><path d="M65.86,17.449a1.748,1.748,0,0,0,1.908,1.577,1.016,1.016,0,0,1,1.109.917,1.75,1.75,0,0,0,1.74,1.584c.056,0,.111,0,.168-.008a1.75,1.75,0,0,0,1.576-1.908,4.524,4.524,0,0,0-4.925-4.069A1.75,1.75,0,0,0,65.86,17.449Z" style="fill:#790000"/><path d="M47.083,35.173H45.917a1.75,1.75,0,0,0,0,3.5h1.166a1.75,1.75,0,0,0,0-3.5Z" style="fill:#790000"/></svg>