<svg id="Layer_1" data-name="Layer 1" xmlns="http://www.w3.org/2000/svg" viewBox="0 0 128 128"><title>CHICKEN</title><path d="M70.363,101.258h0A41.945,41.945,0,0,1,28.638,63.6l-2.76-26.849a10.166,10.166,0,0,1,10.112-11.2h0A10.166,10.166,0,0,1,45,31.013L55.618,51.369a13.467,13.467,0,0,0,24.731-2.01h0a34.662,34.662,0,0,1,32.92-23.812H116L112.089,63.6A41.945,41.945,0,0,1,70.363,101.258Z" style="fill:#ff8100"/><path d="M116,25.55l-.97,9.47-.36,3.48-.53,5.15-.33,3.26-.52,5.06-.36,3.46-.84,8.17A41.916,41.916,0,0,1,64,100.77V58.15a13.441,13.441,0,0,0,16.35-8.79,34.66,34.66,0,0,1,32.92-23.81Z" style="fill:#ff5d00"/><polygon points="25.878 36.752 12 46.245 26.854 46.245 25.878 36.752" style="fill:#ffd92d"/><path d="M42.9,13.226H56.583a0,0,0,0,1,0,0v2.821a9.5,9.5,0,0,1-9.5,9.5H33.4a0,0,0,0,1,0,0V22.726a9.5,9.5,0,0,1,9.5-9.5Z" style="fill:#f9235e"/><path d="M34.372,32.985A2.723,2.723,0,1,0,37.1,35.708,2.726,2.726,0,0,0,34.372,32.985Z" style="fill:#e5ffff"/><path d="M115.03,35.02l-.36,3.48H103.76a1.75,1.75,0,0,1,0-3.5h11.09A.555.555,0,0,1,115.03,35.02Z" style="fill:#ff8100"/><path d="M114.14,43.65l-.33,3.26a1.539,1.539,0,0,1-.43.06h-7.35a1.75,1.75,0,0,1,0-3.5h7.35A1.638,1.638,0,0,1,114.14,43.65Z" style="fill:#ff8100"/><path d="M113.29,51.97l-.36,3.46h-4.96a1.75,1.75,0,0,1,0-3.5h4.98A1.268,1.268,0,0,1,113.29,51.97Z" style="fill:#ff8100"/><path d="M85.667,113.023H53.4a1.75,1.75,0,0,0,0,3.5h32.27a1.75,1.75,0,1,0,0-3.5Z" style="fill:#b95529"/><path d="M44.991,25.547h2.092a9.5,9.5,0,0,0,9.5-9.5V13.226H44.991Z" style="fill:#c81341"/><path d="M94.291,32.955a1.744,1.744,0,0,0,.957-.286l.41-.264a1.75,1.75,0,1,0-1.867-2.961l-.461.3a1.75,1.75,0,0,0,.961,3.214Z" style="fill:#790000"/><path d="M117.3,24.374A1.75,1.75,0,0,0,116,23.8h-2.732A36.2,36.2,0,0,0,99,26.705a1.75,1.75,0,1,0,1.371,3.221A32.722,32.722,0,0,1,113.268,27.3h.793L113.269,35H103.76a1.75,1.75,0,0,0,0,3.5h9.149l-.51,4.967h-6.369a1.75,1.75,0,0,0,0,3.5h6.009l-.51,4.966h-3.554a1.75,1.75,0,1,0,0,3.5h3.194l-.821,7.987a40.195,40.195,0,0,1-79.969,0l-2.76-26.849a8.415,8.415,0,0,1,15.833-4.752L54.065,52.178A15.216,15.216,0,0,0,82.01,49.906a32.984,32.984,0,0,1,8.845-13.8,1.75,1.75,0,0,0-2.383-2.564,36.506,36.506,0,0,0-9.786,15.268,11.717,11.717,0,0,1-21.517,1.749L46.556,30.2A11.878,11.878,0,0,0,35.99,23.8c-.282,0-.561.025-.841.045V22.727a7.759,7.759,0,0,1,7.75-7.75H54.833v1.07a7.759,7.759,0,0,1-7.75,7.75,1.75,1.75,0,0,0,0,3.5,11.263,11.263,0,0,0,11.25-11.25v-2.82a1.75,1.75,0,0,0-1.75-1.75H42.9a11.263,11.263,0,0,0-11.25,11.25v1.908a11.835,11.835,0,0,0-7.566,11.224L11.012,44.8A1.75,1.75,0,0,0,12,48h9a1.75,1.75,0,0,0,0-3.5H17.658l6.779-4.638L26.9,63.779a43.567,43.567,0,0,0,34.984,38.406v10.838H53.4a1.75,1.75,0,0,0,0,3.5h32.27a1.75,1.75,0,0,0,0-3.5H77.183v-5.008a1.75,1.75,0,0,0-3.5,0v5.008h-8.3V102.717a44.4,44.4,0,0,0,4.982.291A43.584,43.584,0,0,0,113.83,63.779l3.911-38.054A1.754,1.754,0,0,0,117.3,24.374Z" style="fill:#790000"/><path d="M31.649,35.708a2.723,2.723,0,1,0,2.723-2.723A2.726,2.726,0,0,0,31.649,35.708Z" style="fill:#790000"/><path d="M70.514,92.641a32.426,32.426,0,0,0,26.65-14.182,1.749,1.749,0,0,0,.39-.6,31.645,31.645,0,0,0,3.814-8.177,1.75,1.75,0,0,0-1.674-2.251l-43.108-.077h0a1.75,1.75,0,0,0,0,3.5l40.658.073a28.237,28.237,0,0,1-2.3,4.541H61.177a1.75,1.75,0,0,0,0,3.5h31.2a28.65,28.65,0,0,1-44.073-.342A1.75,1.75,0,0,0,45.6,80.848,32.116,32.116,0,0,0,70.514,92.641Z" style="fill:#790000"/><path d="M42.367,76.1a1.75,1.75,0,0,0,3.059-1.7q-.144-.258-.281-.519a1.75,1.75,0,0,0-3.094,1.637Q42.206,75.81,42.367,76.1Z" style="fill:#790000"/><path d="M43,68.626a28.994,28.994,0,0,1-1.039-5.258,1.75,1.75,0,1,0-3.482.357A32.512,32.512,0,0,0,39.64,69.62,1.75,1.75,0,0,0,43,68.626Z" style="fill:#790000"/></svg>