<svg id="Layer_1" data-name="Layer 1" xmlns="http://www.w3.org/2000/svg" viewBox="0 0 128 128"><title>FARMER</title><path d="M116,116H12a35.132,35.132,0,0,1,.47-5.75A35.743,35.743,0,0,1,33.25,83.32,35.223,35.223,0,0,1,43.5,80.5a37.164,37.164,0,0,1,4.25-.25h32.5a37.164,37.164,0,0,1,4.25.25,35.223,35.223,0,0,1,10.25,2.82A35.753,35.753,0,0,1,116,116Z" style="fill:#00d6de"/><path d="M84.5,80.5a37.164,37.164,0,0,0-4.25-.25H64.313V116H116A35.753,35.753,0,0,0,94.75,83.32,35.223,35.223,0,0,0,84.5,80.5Z" style="fill:#00a9de"/><path d="M84.5,80.5V98.143a4.861,4.861,0,0,1-5.666,4.8A92.129,92.129,0,0,0,64,101.833a92.129,92.129,0,0,0-14.834,1.108,4.861,4.861,0,0,1-5.666-4.8V80.5a35.223,35.223,0,0,0-10.25,2.82V116h61.5V83.32A35.223,35.223,0,0,0,84.5,80.5Z" style="fill:#00607f"/><path d="M84.5,98.143a4.861,4.861,0,0,1-5.666,4.8,91.735,91.735,0,0,0-14.521-1.105V116H94.75V83.32A35.223,35.223,0,0,0,84.5,80.5Z" style="fill:#00465f"/><path d="M53.071,29.417H74.929A13.737,13.737,0,0,1,88.667,43.154V61.417A24.667,24.667,0,0,1,64,86.083h0A24.667,24.667,0,0,1,39.333,61.417V43.154A13.737,13.737,0,0,1,53.071,29.417Z" style="fill:#ffd3b7"/><path d="M74.93,29.417H64.313V86.075A24.663,24.663,0,0,0,88.667,61.417V43.154A13.737,13.737,0,0,0,74.93,29.417Z" style="fill:#ffb594"/><path d="M32.183,51.683a7.151,7.151,0,0,0,7.151,7.151v-14.3A7.151,7.151,0,0,0,32.183,51.683Z" style="fill:#ffd3b7"/><path d="M95.817,51.683a7.151,7.151,0,0,0-7.151-7.151v14.3A7.151,7.151,0,0,0,95.817,51.683Z" style="fill:#ffb594"/><path d="M33.25,36.25h61.5a0,0,0,0,1,0,0v0a7.5,7.5,0,0,1-7.5,7.5H40.75a7.5,7.5,0,0,1-7.5-7.5v0a0,0,0,0,1,0,0Z" style="fill:#ffd92d"/><path d="M87.833,36.25H40.167l2.755-16.7C43.636,15.219,47.987,12,53.122,12H74.878c5.136,0,9.487,3.219,10.2,7.546Z" style="fill:#e76a36"/><path d="M62.5,63.25H65.5A11.789,11.789,0,0,1,77.292,75.039V89.833a0,0,0,0,1,0,0H50.708a0,0,0,0,1,0,0V75.039A11.789,11.789,0,0,1,62.5,63.25Z" style="fill:#e76a36"/><circle cx="49.765" cy="110.25" r="2.5" style="fill:#fff"/><circle cx="78.235" cy="110.25" r="2.5" style="fill:#cae7f7"/><path d="M33.25,110.25V116H12a35.132,35.132,0,0,1,.47-5.75Z" style="fill:#e76a36"/><path d="M94.75,110.25V116H116a35.132,35.132,0,0,0-.47-5.75Z" style="fill:#b95529"/><path d="M74.878,12H64.313V36.25H87.833l-2.755-16.7C84.364,15.219,80.013,12,74.878,12Z" style="fill:#b95529"/><path d="M64.313,43.75H87.25a7.5,7.5,0,0,0,7.5-7.5H64.313Z" style="fill:#fcbe00"/><path d="M65.5,63.25h-1.19V89.833H77.292V75.039A11.789,11.789,0,0,0,65.5,63.25Z" style="fill:#b95529"/><path d="M55.834,51.833H47.667a1.75,1.75,0,0,1,0-3.5h8.167a1.75,1.75,0,0,1,0,3.5Z" style="fill:#00465f"/><path d="M55.83,56.25a1.747,1.747,0,0,1-1.23-2.99,1.809,1.809,0,0,1,2.47,0,1.763,1.763,0,0,1,0,2.48A1.78,1.78,0,0,1,55.83,56.25Z" style="fill:#00465f"/><path d="M80.334,51.833H72.167a1.75,1.75,0,0,1,0-3.5h8.167a1.75,1.75,0,0,1,0,3.5Z" style="fill:#00465f"/><path d="M72.17,56.25a1.8,1.8,0,0,1-1.24-.51,1.755,1.755,0,0,1-.51-1.24,1.954,1.954,0,0,1,.03-.34,2.089,2.089,0,0,1,.1-.33,1.734,1.734,0,0,1,.16-.3,1.965,1.965,0,0,1,.22-.27,1.809,1.809,0,0,1,2.47,0,1.421,1.421,0,0,1,.22.27,1.734,1.734,0,0,1,.16.3,1.4,1.4,0,0,1,.1.33,1.329,1.329,0,0,1,.04.34,1.759,1.759,0,0,1-1.75,1.75Z" style="fill:#00465f"/><path d="M64.313,77.729a7.2,7.2,0,0,1-7.187-7.187,1.75,1.75,0,0,1,3.5,0,3.688,3.688,0,0,0,7.375,0,1.75,1.75,0,0,1,3.5,0A7.2,7.2,0,0,1,64.313,77.729Z" style="fill:#ffd3b7"/><path d="M117.248,109.929c0-.018-.006-.037-.01-.055a37.219,37.219,0,0,0-6.065-15.095,1.75,1.75,0,0,0-2.884,1.982,33.764,33.764,0,0,1,5.128,11.738H96.5V86.143a33.8,33.8,0,0,1,3.695,2.317,1.75,1.75,0,1,0,2.055-2.834,37.262,37.262,0,0,0-6.784-3.9l-.026-.01-.023-.009A36.969,36.969,0,0,0,84.7,78.762c-.243-.028-.482-.04-.724-.063a26.3,26.3,0,0,0,6.441-17.282V60.409a8.892,8.892,0,0,0,2.242-16.67A9.235,9.235,0,0,0,96.5,36.25a1.75,1.75,0,0,0-1.75-1.75H62.438a1.75,1.75,0,0,0,0,3.5h30.29a5.761,5.761,0,0,1-5.478,4H40.75a5.761,5.761,0,0,1-5.478-4h13.1a1.75,1.75,0,0,0,0-3.5H42.229l2.42-14.669c.572-3.467,4.215-6.081,8.474-6.081H74.878c4.259,0,7.9,2.614,8.474,6.081l1.6,9.715a1.75,1.75,0,0,0,3.453-.569l-1.6-9.715c-.847-5.138-5.975-9.012-11.927-9.012H53.122c-5.952,0-11.08,3.874-11.927,9.012L38.682,34.5H33.25a1.75,1.75,0,0,0-1.75,1.75,9.235,9.235,0,0,0,3.842,7.489,8.892,8.892,0,0,0,2.242,16.67v1.008A26.3,26.3,0,0,0,44.024,78.7c-.245.024-.486.035-.732.064A36.95,36.95,0,0,0,32.582,81.7l-.021.009-.02.008a37.3,37.3,0,0,0-21.783,28.17l0,.015c0,.02-.008.039-.011.058A37.082,37.082,0,0,0,10.25,116a1.75,1.75,0,0,0,3.5,0,33.635,33.635,0,0,1,.266-4H26a1.75,1.75,0,0,0,0-3.5H14.589A33.769,33.769,0,0,1,31.5,86.146V116a1.75,1.75,0,0,0,3.5,0V84.5a33.332,33.332,0,0,1,6.75-1.956v15.6a6.612,6.612,0,0,0,7.705,6.525A90.207,90.207,0,0,1,64,103.583a90.207,90.207,0,0,1,14.545,1.084,6.669,6.669,0,0,0,1.1.091,6.613,6.613,0,0,0,6.607-6.616V88.167a1.75,1.75,0,0,0-3.5,0v9.976a3.111,3.111,0,0,1-3.627,3.073A93.765,93.765,0,0,0,64,100.083a93.765,93.765,0,0,0-15.123,1.132,3.111,3.111,0,0,1-3.627-3.073V82.1c.749-.054,1.489-.088,2.216-.095q.723.58,1.493,1.111v6.714a1.75,1.75,0,0,0,1.75,1.75H77.292a1.75,1.75,0,0,0,1.75-1.75V83.12q.769-.533,1.493-1.112a35.536,35.536,0,0,1,3.758.229A33.549,33.549,0,0,1,93,84.5V116a1.75,1.75,0,0,0,3.5,0v-4h17.494a34.342,34.342,0,0,1,.256,4,1.75,1.75,0,0,0,3.5,0A37.791,37.791,0,0,0,117.248,109.929ZM90.417,56.787V46.579a5.393,5.393,0,0,1,0,10.208Zm-56.484-5.1a5.406,5.406,0,0,1,3.651-5.1V56.787A5.406,5.406,0,0,1,33.933,51.683ZM41.083,45.5H86.917V61.417A22.813,22.813,0,0,1,79.042,78.7v-3.66A13.554,13.554,0,0,0,65.5,61.5H62.5A13.554,13.554,0,0,0,48.958,75.039V78.7a22.812,22.812,0,0,1-7.875-17.282ZM75.542,88.083H52.458V75.039A10.05,10.05,0,0,1,62.5,65H65.5A10.05,10.05,0,0,1,75.542,75.039Z" style="fill:#790000"/><path d="M104.609,92.278a1.75,1.75,0,0,0,2.507-2.442l-.345-.351a1.75,1.75,0,0,0-2.48,2.47Z" style="fill:#790000"/><path d="M55.25,34.5a1.75,1.75,0,0,0,0,3.5h.583a1.75,1.75,0,0,0,0-3.5Z" style="fill:#790000"/><path d="M57.583,50.083a1.75,1.75,0,0,0-1.75-1.75H47.667a1.75,1.75,0,0,0,0,3.5h8.167A1.75,1.75,0,0,0,57.583,50.083Z" style="fill:#790000"/><path d="M54.6,53.26a1.745,1.745,0,1,0,2.47,0A1.809,1.809,0,0,0,54.6,53.26Z" style="fill:#790000"/><path d="M72.167,51.833h8.167a1.75,1.75,0,0,0,0-3.5H72.167a1.75,1.75,0,0,0,0,3.5Z" style="fill:#790000"/><path d="M73.78,53.83a1.734,1.734,0,0,0-.16-.3,1.421,1.421,0,0,0-.22-.27,1.809,1.809,0,0,0-2.47,0,1.965,1.965,0,0,0-.22.27,1.734,1.734,0,0,0-.16.3,2.089,2.089,0,0,0-.1.33,1.954,1.954,0,0,0-.03.34,1.755,1.755,0,0,0,.51,1.24,1.8,1.8,0,0,0,1.24.51,1.759,1.759,0,0,0,1.75-1.75,1.329,1.329,0,0,0-.04-.34A1.4,1.4,0,0,0,73.78,53.83Z" style="fill:#790000"/><path d="M69.75,68.792A1.75,1.75,0,0,0,68,70.542a3.688,3.688,0,1,1-7.375,0,1.75,1.75,0,0,0-3.5,0,7.188,7.188,0,1,0,14.375,0A1.75,1.75,0,0,0,69.75,68.792Z" style="fill:#790000"/><path d="M49.765,107.75a2.5,2.5,0,1,0,2.5,2.5A2.5,2.5,0,0,0,49.765,107.75Z" style="fill:#790000"/><path d="M78.235,107.75a2.5,2.5,0,1,0,2.5,2.5A2.5,2.5,0,0,0,78.235,107.75Z" style="fill:#790000"/></svg>