<svg id="Layer_1" data-name="Layer 1" xmlns="http://www.w3.org/2000/svg" viewBox="0 0 128 128"><title>GLOVE</title><path d="M105.216,40.8a7.479,7.479,0,0,0-10.259,1.393L82.609,57.237,92.3,30.1A7.277,7.277,0,1,0,79.293,23.57L69.106,52.764,70.19,19.683A7.277,7.277,0,0,0,63.343,12h0a7.837,7.837,0,0,0-7.708,7.277l.171,33.067-8.3-26.162A7.479,7.479,0,0,0,39.3,19.87a7.277,7.277,0,0,0-6.2,8.411L43.434,66.6s-11.593-6.164-19.38-.373C15.761,72.394,20.571,85.519,33.5,84.1c5.425-.594,7.381,7.839,8.017,14.05a13.775,13.775,0,0,0,.324,1.86,12.082,12.082,0,0,0,11.786,9.095H78.483A18.185,18.185,0,0,0,96.494,87.745l-.246-1.585c-1.8-11.6,2.874-24.422,9.54-34.08l.621-.9A7.277,7.277,0,0,0,105.216,40.8Z" style="fill:#00d6de"/><path d="M105.216,40.8a7.479,7.479,0,0,0-10.259,1.393L82.609,57.237,92.3,30.1A7.277,7.277,0,1,0,79.293,23.57L69.588,51.383V109.11h8.9A18.185,18.185,0,0,0,96.494,87.745l-.246-1.585c-1.8-11.6,2.874-24.422,9.54-34.08l.621-.9A7.277,7.277,0,0,0,105.216,40.8Z" style="fill:#00a9de"/><path d="M61.461,81.7a8.127,8.127,0,1,0,16.254,0c0-4.488-8.127-15.212-8.127-15.212S61.461,77.213,61.461,81.7Z" style="fill:#e5ffff"/><rect x="53.628" y="103.504" width="31.92" height="12.496" style="fill:#f9235e"/><path d="M77.714,81.7c0-4.488-8.127-15.212-8.127-15.212V89.828A8.127,8.127,0,0,0,77.714,81.7Z" style="fill:#cae7f7"/><rect x="69.588" y="103.504" width="15.96" height="12.496" style="fill:#c81341"/><path d="M74.756,88.211a1.75,1.75,0,0,0,2.463-.24,9.888,9.888,0,0,0,2.245-6.27c0-4.934-7.613-15.123-8.481-16.269a1.749,1.749,0,0,0-2.789,0C66.776,67.3,59.711,76.869,59.711,81.7a9.888,9.888,0,0,0,9.877,9.876,1.75,1.75,0,0,0,0-3.5A6.384,6.384,0,0,1,63.211,81.7c0-2.428,3.487-8.156,6.377-12.245,2.889,4.087,6.376,9.815,6.376,12.245a6.389,6.389,0,0,1-1.448,4.047A1.749,1.749,0,0,0,74.756,88.211Z" style="fill:#790000"/><path d="M47.158,105.147A9.96,9.96,0,0,1,43.542,99.6a12.078,12.078,0,0,1-.283-1.624c-.508-4.951-1.838-11.44-5.29-14.23a6.182,6.182,0,0,0-4.658-1.381c-6.295.681-9.856-2.391-11.079-5.5A7.787,7.787,0,0,1,25.1,67.63c6.8-5.054,17.41.459,17.516.514a1.749,1.749,0,0,0,2.511-2L40.632,49.484a1.75,1.75,0,1,0-3.379.912l3.557,13.19c-4.337-1.529-11.913-3.145-17.8,1.234a11.206,11.206,0,0,0-4.036,13.32c2.131,5.424,7.91,8.45,14.718,7.7a2.658,2.658,0,0,1,2.077.624c1.935,1.563,3.4,5.889,4.008,11.866a15.751,15.751,0,0,0,.365,2.1,13.6,13.6,0,0,0,4.87,7.48,1.75,1.75,0,1,0,2.146-2.764Z" style="fill:#790000"/><path d="M36.756,41.84a1.751,1.751,0,0,0-1.232,2.146l.177.653a1.75,1.75,0,0,0,1.688,1.293,1.75,1.75,0,0,0,1.69-2.207l-.177-.653A1.75,1.75,0,0,0,36.756,41.84Z" style="fill:#790000"/><path d="M31.412,28.736l2.216,8.22a1.75,1.75,0,1,0,3.379-.91l-2.192-8.132a5.526,5.526,0,0,1,4.721-6.31,5.718,5.718,0,0,1,6.245,4.866,1.59,1.59,0,0,0,.058.24l8.3,26.162a1.75,1.75,0,0,0,3.418-.538l-.171-33.009a6.132,6.132,0,0,1,5.908-5.576,5.529,5.529,0,0,1,5.147,5.875l-.183,5.567a1.75,1.75,0,1,0,3.5.115l.181-5.524a9.027,9.027,0,0,0-8.493-9.53l-.1,0a9.6,9.6,0,0,0-9.455,8.926c0,.036,0,.073,0,.109L54,40.854,49.21,25.765a9.259,9.259,0,0,0-10.147-7.629A9.026,9.026,0,0,0,31.376,28.57,1.623,1.623,0,0,0,31.412,28.736Z" style="fill:#790000"/><path d="M109.748,45.541a8.964,8.964,0,0,0-3.465-6.128A9.253,9.253,0,0,0,93.6,41.083l-5.963,7.265,6.274-17.568a9.027,9.027,0,0,0-16.187-7.993,1.769,1.769,0,0,0-.088.208L71.229,41.365l.341-10.392a1.75,1.75,0,1,0-3.5-.115l-.716,21.849a1.75,1.75,0,0,0,3.4.634l10.147-29.08a5.527,5.527,0,0,1,9.832,5.051,2.027,2.027,0,0,0-.084.2L80.96,56.648a1.75,1.75,0,0,0,3,1.7L96.311,43.3a5.727,5.727,0,0,1,7.837-1.116,5.527,5.527,0,0,1,.908,7.884c-.03.037-.06.076-.087.115l-.621.9a1.75,1.75,0,1,0,2.881,1.988l.582-.845A8.949,8.949,0,0,0,109.748,45.541Z" style="fill:#790000"/><path d="M103.161,56.186a1.749,1.749,0,0,0-2.372.706c-5.439,10.052-7.667,20.542-6.271,29.537l.246,1.585A16.247,16.247,0,0,1,87.3,104.838V103.5a1.75,1.75,0,0,0-1.75-1.75H53.628a1.75,1.75,0,0,0-1.75,1.75V116a1.75,1.75,0,0,0,1.75,1.75H85.547A1.75,1.75,0,0,0,87.3,116v-7.171A19.8,19.8,0,0,0,98.224,87.477l-.246-1.585c-1.28-8.243.812-17.951,5.89-27.334A1.75,1.75,0,0,0,103.161,56.186ZM83.8,114.25H55.378v-9H83.8Z" style="fill:#790000"/></svg>