<svg id="Layer_1" data-name="Layer 1" xmlns="http://www.w3.org/2000/svg" viewBox="0 0 128 128"><title>HARVEST</title><path d="M92.44,34.84a12.066,12.066,0,0,1-1.56,5.93L65.3,86.16a5.251,5.251,0,0,1-9.66-3.88L68.58,31.86l.01-.05a11.792,11.792,0,0,1,1.32-3.18,12.116,12.116,0,0,1,22.53,6.21Z" style="fill:#ff8100"/><path d="M84.842,23.584h0L58.768,88.454A5.252,5.252,0,0,0,65.3,86.16L90.878,40.773A12.115,12.115,0,0,0,84.842,23.584Z" style="fill:#ff5d00"/><path d="M51.659,96.917h0a5.252,5.252,0,0,1-5.207-4.566L39.648,40.7A12.115,12.115,0,0,1,51.659,27h0A12.115,12.115,0,0,1,63.671,40.7l-6.8,51.651A5.252,5.252,0,0,1,51.659,96.917Z" style="fill:#ff5d00"/><path d="M51.66,27V96.92a5.262,5.262,0,0,1-5.21-4.57l-6.57-49.9-.23-1.75a12.906,12.906,0,0,1-.11-1.74A12.124,12.124,0,0,1,51.66,27Z" style="fill:#ff8100"/><path d="M58.689,21.9a5.043,5.043,0,0,0-.757.076,6.216,6.216,0,0,0,.064-.63,6.336,6.336,0,1,0-12.671,0,6.216,6.216,0,0,0,.064.63,5.079,5.079,0,1,0-.757,10.1H58.689a5.088,5.088,0,0,0,0-10.176Z" style="fill:#59c26a"/><path d="M93.267,21.473a5.043,5.043,0,0,0-.731-.212,6.216,6.216,0,0,0,.294-.561,6.336,6.336,0,1,0-11.757-4.726,6.216,6.216,0,0,0-.176.608,5.079,5.079,0,1,0-4.469,9.088l13.045,5.243a5.088,5.088,0,1,0,3.8-9.442Z" style="fill:#96dd3d"/><path d="M49,40.7a1.746,1.746,0,0,1-1.75,1.75H39.88l-.23-1.75a12.906,12.906,0,0,1-.11-1.74.377.377,0,0,1,.11-.01h7.6A1.746,1.746,0,0,1,49,40.7Z" style="fill:#ff5d00"/><path d="M78.86,34.31a1.76,1.76,0,0,1-1.61,1.07,1.8,1.8,0,0,1-.68-.14l-7.99-3.38.01-.05a11.792,11.792,0,0,1,1.32-3.18l8.02,3.38A1.752,1.752,0,0,1,78.86,34.31Z" style="fill:#ff5d00"/><path d="M79.01,40.119l-5.14-2a1.75,1.75,0,1,0-1.27,3.262l5.14,2a1.75,1.75,0,0,0,1.27-3.262Z" style="fill:#ff5d00"/><rect x="-3.32" y="70.5" width="63.211" height="17.07" transform="translate(107.32 50.75) rotate(90)" style="fill:#b95529"/><rect x="67.36" y="70.5" width="63.211" height="17.07" transform="translate(178 -19.93) rotate(90)" style="fill:#aa481f"/><rect x="19.75" y="47.43" width="87.75" height="17.07" style="fill:#e76a36"/><rect x="19.75" y="70.5" width="87.75" height="17.07" style="fill:#e76a36"/><rect x="19.75" y="93.57" width="87.75" height="17.07" style="fill:#e76a36"/><rect x="26.875" y="110.641" width="74.25" height="5.359" style="fill:#aa481f"/><rect x="64" y="70.5" width="43.5" height="17.07" style="fill:#b95529"/><rect x="64" y="93.57" width="43.5" height="17.07" style="fill:#b95529"/><rect x="64" y="47.43" width="43.5" height="17.07" style="fill:#b95529"/><circle cx="26.562" cy="53.185" r="2.312" style="fill:#e5ffff"/><circle cx="26.562" cy="59.123" r="2.312" style="fill:#e5ffff"/><circle cx="26.562" cy="76.066" r="2.312" style="fill:#e5ffff"/><circle cx="26.562" cy="82.004" r="2.312" style="fill:#e5ffff"/><circle cx="26.562" cy="98.947" r="2.312" style="fill:#e5ffff"/><circle cx="26.562" cy="104.886" r="2.312" style="fill:#e5ffff"/><circle cx="101.125" cy="53.185" r="2.312" style="fill:#cae7f7"/><circle cx="101.125" cy="59.123" r="2.312" style="fill:#cae7f7"/><circle cx="101.125" cy="76.066" r="2.312" style="fill:#cae7f7"/><circle cx="101.125" cy="82.004" r="2.312" style="fill:#cae7f7"/><circle cx="101.125" cy="98.947" r="2.312" style="fill:#cae7f7"/><circle cx="101.125" cy="104.886" r="2.312" style="fill:#cae7f7"/><path d="M45.324,21.348a6.205,6.205,0,0,0,.064.63,5.079,5.079,0,1,0-.757,10.1h7.029V15.012A6.336,6.336,0,0,0,45.324,21.348Z" style="fill:#96dd3d"/><path d="M89.472,30.914a5.09,5.09,0,1,0,3.064-9.653,6.227,6.227,0,0,0,.294-.561,6.336,6.336,0,0,0-3.516-8.241L82.949,28.293Z" style="fill:#59c26a"/><path d="M73.87,38.119a1.75,1.75,0,1,0-1.27,3.262l5.14,2a1.75,1.75,0,0,0,1.27-3.262Z" style="fill:#790000"/><path d="M116,114.25H102.875v-1.859H107.5a1.75,1.75,0,0,0,1.75-1.75V93.57h0V70.5h0V47.43a1.75,1.75,0,0,0-1.75-1.75H66.837l3.368-13.126,6.365,2.684a1.75,1.75,0,1,0,1.359-3.225l-6.394-2.7a10.22,10.22,0,0,1,2.711-2.883,6.864,6.864,0,0,0,1.527.861l13.045,5.243a6.816,6.816,0,0,0,1.7.434,10.242,10.242,0,0,1-1.163,6.942A1.75,1.75,0,1,0,92.4,41.633a13.7,13.7,0,0,0,1.578-9.14,6.817,6.817,0,0,0,.82-12.214,8.087,8.087,0,0,0-14.86-5.973,6.838,6.838,0,0,0-7.905,9.328c.01.023.022.043.032.066a13.641,13.641,0,0,0-4.5,5.724c-.016.033-.038.062-.052.1s-.019.065-.03.1a14.13,14.13,0,0,0-.593,1.761l-1.5,5.859a13.694,13.694,0,0,0-1.916-5.372,6.832,6.832,0,0,0-3.807-11.644,8.087,8.087,0,0,0-16.016,0,6.832,6.832,0,0,0-3.8,11.649,13.716,13.716,0,0,0-1.937,9.059l.626,4.75H19.75A1.75,1.75,0,0,0,18,47.43V64.5h0V87.57h0v6h0v17.07a1.75,1.75,0,0,0,1.75,1.75h5.375v1.859H12a1.75,1.75,0,0,0,0,3.5H79.875a1.75,1.75,0,0,0,0-3.5H28.625v-1.859h8.2a1.75,1.75,0,0,0,0-3.5H21.5V95.32h84.25v13.57h-62.3a1.75,1.75,0,0,0,0,3.5H99.375v1.859H94.25a1.75,1.75,0,0,0,0,3.5H116a1.75,1.75,0,0,0,0-3.5ZM75.228,19.706a3.223,3.223,0,0,1,4.782-1.614,1.75,1.75,0,0,0,2.568-1.024l.068-.259a1.552,1.552,0,0,1,.05-.182,4.586,4.586,0,1,1,8.509,3.422c-.025.058-.06.11-.09.165l-.129.232a1.754,1.754,0,0,0-.031,1.542,1.774,1.774,0,0,0,1.2.981,3.161,3.161,0,0,1,.458.126,3.338,3.338,0,0,1-2.491,6.194L77.079,24.047a3.337,3.337,0,0,1-1.852-4.342ZM105.75,66.25v2.5H92.18v-2.5Zm-61.12-42.6a3.338,3.338,0,0,1,.5.057,1.751,1.751,0,0,0,2-1.9c-.01-.094-.021-.187-.034-.28a1.406,1.406,0,0,1-.021-.18,4.586,4.586,0,0,1,9.172,0,1.4,1.4,0,0,1-.021.182c-.013.093-.024.186-.034.28a1.766,1.766,0,0,0,2.028,1.9,3.1,3.1,0,0,1,.471-.053,3.338,3.338,0,1,1,0,6.676H44.63a3.338,3.338,0,0,1,0-6.676Zm-2.986,18.8H47.25a1.75,1.75,0,0,0,0-3.5H41.305A10.2,10.2,0,0,1,42.892,33.6a6.806,6.806,0,0,0,1.738.232H58.688a6.8,6.8,0,0,0,1.741-.233,10.275,10.275,0,0,1,1.506,6.878l-.686,5.208H42.069ZM21.5,49.18h84.25V62.75H60a1.75,1.75,0,0,0,0,3.5H88.68v2.5H38.57v-2.5H46a1.75,1.75,0,0,0,0-3.5H21.5ZM88.68,89.32v2.5H38.57v-2.5ZM35.07,91.82H21.5v-2.5H35.07ZM21.5,66.25H35.07v2.5H21.5ZM92.18,91.82v-2.5h9.508a1.75,1.75,0,0,0,0-3.5H21.5V72.25h84.25V91.82Z" style="fill:#790000"/><path d="M87.5,114.25h-.75a1.75,1.75,0,0,0,0,3.5h.75a1.75,1.75,0,0,0,0-3.5Z" style="fill:#790000"/><path d="M53,66.25h.792a1.75,1.75,0,0,0,0-3.5H53a1.75,1.75,0,0,0,0,3.5Z" style="fill:#790000"/><path d="M26.562,50.873a2.312,2.312,0,1,0,2.312,2.312A2.314,2.314,0,0,0,26.562,50.873Z" style="fill:#790000"/><path d="M26.562,56.812a2.312,2.312,0,1,0,2.312,2.312A2.314,2.314,0,0,0,26.562,56.812Z" style="fill:#790000"/><path d="M26.562,73.754a2.312,2.312,0,1,0,2.312,2.312A2.314,2.314,0,0,0,26.562,73.754Z" style="fill:#790000"/><path d="M26.562,79.693A2.312,2.312,0,1,0,28.873,82,2.314,2.314,0,0,0,26.562,79.693Z" style="fill:#790000"/><path d="M26.562,96.636a2.312,2.312,0,1,0,2.312,2.312A2.314,2.314,0,0,0,26.562,96.636Z" style="fill:#790000"/><path d="M26.562,102.574a2.312,2.312,0,1,0,2.312,2.312A2.314,2.314,0,0,0,26.562,102.574Z" style="fill:#790000"/><path d="M101.125,55.5a2.312,2.312,0,1,0-2.312-2.312A2.314,2.314,0,0,0,101.125,55.5Z" style="fill:#790000"/><path d="M101.125,61.435a2.312,2.312,0,1,0-2.312-2.312A2.314,2.314,0,0,0,101.125,61.435Z" style="fill:#790000"/><path d="M101.125,73.754a2.312,2.312,0,1,0,2.312,2.312A2.314,2.314,0,0,0,101.125,73.754Z" style="fill:#790000"/><path d="M101.125,79.693A2.312,2.312,0,1,0,103.437,82,2.314,2.314,0,0,0,101.125,79.693Z" style="fill:#790000"/><path d="M101.125,101.259a2.312,2.312,0,1,0-2.312-2.312A2.314,2.314,0,0,0,101.125,101.259Z" style="fill:#790000"/><path d="M101.125,107.2a2.312,2.312,0,1,0-2.312-2.312A2.314,2.314,0,0,0,101.125,107.2Z" style="fill:#790000"/></svg>