<svg id="Layer_1" data-name="Layer 1" xmlns="http://www.w3.org/2000/svg" viewBox="0 0 128 128"><title>HOE</title><polygon points="97.258 90.992 90.659 96.924 52.705 58.97 58.97 52.705 97.258 90.992" style="fill:#b95529"/><polygon points="55.838 55.837 94.25 94.25 97.258 90.992 58.97 52.705 55.838 55.837" style="fill:#e76a36"/><path d="M35.716,13.3,16.682,16.682,13.3,35.716,31.945,67.6a3.7,3.7,0,0,0,5.813.749L68.35,37.757a3.7,3.7,0,0,0-.749-5.813Z" style="fill:#cae7f7"/><path d="M98.008,116.446a4.416,4.416,0,0,1-1.053-.128,4.333,4.333,0,0,1-3.127-2.932L88.741,97.2a1.75,1.75,0,0,1,.433-1.762l6.265-6.265a1.758,1.758,0,0,1,1.762-.433l16.187,5.087a4.367,4.367,0,0,1,1.778,7.253L101.08,115.165A4.329,4.329,0,0,1,98.008,116.446ZM92.4,97.163l4.77,15.175a.865.865,0,0,0,1.437.353l14.086-14.085h0a.865.865,0,0,0-.353-1.437L97.163,92.4Z" style="fill:#00465f"/><rect x="98.067" y="102.907" width="17.638" height="7.958" rx="3.979" ry="3.979" transform="translate(-44.273 106.886) rotate(-45)" style="fill:#fcbe00"/><polygon points="73.178 64.013 64.013 73.178 37.913 47.078 39.117 39.266 47.078 37.913 73.178 64.013" style="fill:#fcbe00"/><path d="M53.053,53.053l15.3-15.3a3.7,3.7,0,0,0-.749-5.813L35.716,13.3,16.682,16.682Z" style="fill:#e5ffff"/><polygon points="68.596 68.595 73.178 64.013 47.078 37.913 39.245 39.245 68.596 68.595" style="fill:#ffd92d"/><path d="M113.122,100.65a3.979,3.979,0,0,0-5.627,0l-3.423,3.422L109.7,109.7l3.423-3.422A3.979,3.979,0,0,0,113.122,100.65Z" style="fill:#ffd92d"/><path d="M67.937,71.729l3.791-3.791,5.539,5.54A1.75,1.75,0,0,0,79.742,71L74.2,65.463l.213-.213a1.749,1.749,0,0,0,0-2.475l-14.3-14.3,9.476-9.476a5.451,5.451,0,0,0-1.1-8.561L36.6,11.794a1.748,1.748,0,0,0-1.189-.212L16.376,14.959a1.75,1.75,0,0,0-1.417,1.417L11.582,35.41a1.751,1.751,0,0,0,.212,1.188l18.64,31.885a5.45,5.45,0,0,0,8.561,1.1l5.213-5.213A1.75,1.75,0,0,0,41.733,61.9L36.52,67.112a1.952,1.952,0,0,1-3.065-.395L15.14,35.388l3.051-17.2,17.2-3.051L66.717,33.455a1.951,1.951,0,0,1,.4,3.064L57.636,46l-9.321-9.321a1.747,1.747,0,0,0-1.531-.488l-7.961,1.354A1.751,1.751,0,0,0,37.388,39l-1.2,7.812a1.75,1.75,0,0,0,.492,1.5l26.1,26.1a1.749,1.749,0,0,0,2.475,0l.213-.213L82.912,91.652a1.75,1.75,0,0,0,2.475-2.475ZM39.777,46.468l.877-5.687,5.826-.991L56.4,49.707h0l14.3,14.3L64.013,70.7Z" style="fill:#790000"/><path d="M82.645,78.854a1.75,1.75,0,0,0,2.477-2.473l-.667-.668a1.75,1.75,0,1,0-2.477,2.473Z" style="fill:#790000"/><path d="M116.318,96.955a4.333,4.333,0,0,0-2.932-3.127L97.609,88.87,89.244,80.5a1.75,1.75,0,0,0-2.475,2.475L94.2,90.411l-5.027,5.027a1.75,1.75,0,0,0-.433,1.762l5.087,16.187a4.333,4.333,0,0,0,3.127,2.932,4.416,4.416,0,0,0,1.053.128,4.306,4.306,0,0,0,2.824-1.077,5.65,5.65,0,0,0,6.682-1.01l6.846-6.846a5.651,5.651,0,0,0,1.016-6.672A4.32,4.32,0,0,0,116.318,96.955Zm-18.53,15.964a.851.851,0,0,1-.62-.581L92.4,97.163,97.163,92.4l15.175,4.77a.851.851,0,0,1,.581.62.867.867,0,0,1-.056.576,5.718,5.718,0,0,0-6.605,1.048l-6.846,6.846a5.717,5.717,0,0,0-1.047,6.605A.852.852,0,0,1,97.788,112.919Zm14.1-7.88-6.846,6.846a2.229,2.229,0,0,1-3.152-3.152l6.846-6.846a2.232,2.232,0,0,1,3.149,0l0,0,0,0A2.231,2.231,0,0,1,111.885,105.039Z" style="fill:#790000"/></svg>