<svg id="Layer_1" data-name="Layer 1" xmlns="http://www.w3.org/2000/svg" viewBox="0 0 128 128"><title>RAKE</title><path d="M59.215,17.435,17.365,59.284,22.2,64.12l5.687,2.514a13.549,13.549,0,0,0,15.058-2.812L63.752,43.016a13.549,13.549,0,0,0,2.812-15.058L64.05,22.27Z" style="fill:#00465f"/><rect x="11.116" y="37.358" width="59.184" height="6.838" transform="translate(-16.911 40.728) rotate(-45)" style="fill:#cae7f7"/><path d="M64.05,22.271l-4.835-4.835L38.379,38.27l10.146,9.862A22.718,22.718,0,0,0,53.971,52.8l9.781-9.781a13.549,13.549,0,0,0,2.812-15.058Z" style="fill:#00607f"/><polygon points="43.284 43.037 64.05 22.271 59.215 17.435 38.379 38.27 43.284 43.037" style="fill:#e5ffff"/><rect x="74.255" y="53.453" width="8.262" height="49.725" transform="translate(-32.419 78.365) rotate(-45)" style="fill:#e76a36"/><polygon points="95.978 95.883 60.928 60.612 57.884 63.656 93.045 98.817 95.978 95.883" style="fill:#b95529"/><rect x="48.541" y="45.717" width="12.087" height="17.595" transform="translate(-22.56 54.564) rotate(-45)" style="fill:#ffd92d"/><path d="M100.129,117.371a4.221,4.221,0,0,1-1.011-.123,4.158,4.158,0,0,1-3-2.812L91.375,99.342a1.75,1.75,0,0,1,.433-1.762l5.842-5.843a1.759,1.759,0,0,1,1.762-.433l15.094,4.744a4.189,4.189,0,0,1,1.707,6.959h0l-13.135,13.134A4.153,4.153,0,0,1,100.129,117.371ZM95.032,99.3l4.426,14.082a.689.689,0,0,0,1.145.28l13.135-13.134a.689.689,0,0,0-.281-1.145L99.374,94.962Zm19.942,2.466h0Z" style="fill:#00465f"/><rect x="100.184" y="104.627" width="16.447" height="7.42" rx="3.71" ry="3.71" transform="translate(-44.854 108.387) rotate(-45)" style="fill:#ffd92d"/><path d="M13.548,52.992a1.75,1.75,0,0,0-2.475,2.475l9.891,9.89a1.75,1.75,0,1,0,2.475-2.475Z" style="fill:#00607f"/><path d="M18.778,47.761A1.75,1.75,0,0,0,16.3,50.235l9.891,9.891a1.75,1.75,0,1,0,2.475-2.475Z" style="fill:#00607f"/><path d="M24.01,42.529A1.75,1.75,0,0,0,21.535,45l9.891,9.891A1.75,1.75,0,1,0,33.9,52.42Z" style="fill:#00607f"/><path d="M29.241,37.3a1.75,1.75,0,0,0-2.475,2.475l9.891,9.891a1.75,1.75,0,0,0,2.475-2.475Z" style="fill:#00607f"/><path d="M34.472,32.067A1.75,1.75,0,0,0,32,34.542l9.891,9.891a1.75,1.75,0,0,0,2.475-2.475Z" style="fill:#00607f"/><path d="M39.7,26.836a1.75,1.75,0,0,0-2.475,2.475L47.119,39.2a1.75,1.75,0,1,0,2.475-2.475Z" style="fill:#00607f"/><path d="M44.935,21.6a1.75,1.75,0,0,0-2.475,2.475l9.891,9.891A1.75,1.75,0,1,0,54.825,31.5Z" style="fill:#00607f"/><path d="M50.165,16.374a1.75,1.75,0,0,0-2.475,2.475l9.891,9.891a1.75,1.75,0,1,0,2.475-2.475Z" style="fill:#00607f"/><path d="M65.287,21.033,55.4,11.143a1.75,1.75,0,0,0-2.475,2.475l9.891,9.891a1.75,1.75,0,0,0,2.475-2.475Z" style="fill:#00607f"/><polygon points="56.532 65.009 60.928 60.612 48.526 48.132 44.09 52.567 56.532 65.009" style="fill:#fcbe00"/><path d="M105.765,105.732l-3.173,3.173a3.71,3.71,0,1,0,5.247,5.247L111,111Z" style="fill:#fcbe00"/><path d="M60.358,63.656,66.315,57.7a1.749,1.749,0,0,0,0-2.475l-6.148-6.148,4.822-4.822a15.393,15.393,0,0,0,3.175-17L65.65,21.563c0-.01-.014-.017-.019-.028a1.735,1.735,0,0,0-.344-.5L60.452,16.2,55.4,11.143a1.75,1.75,0,0,0-2.475,2.475l3.818,3.818-2.757,2.757-3.818-3.818a1.75,1.75,0,0,0-2.475,2.475l3.818,3.818-2.756,2.756L44.935,21.6a1.75,1.75,0,0,0-2.475,2.475L46.278,27.9l-2.757,2.757L39.7,26.836a1.75,1.75,0,0,0-2.475,2.475l3.818,3.818L38.29,35.885l-3.818-3.818A1.75,1.75,0,1,0,32,34.542l3.818,3.818-2.756,2.756L29.241,37.3a1.75,1.75,0,0,0-2.475,2.475l3.818,3.818-2.757,2.757L24.01,42.529A1.75,1.75,0,0,0,21.535,45l3.818,3.818L22.6,51.579l-3.818-3.818A1.75,1.75,0,0,0,16.3,50.235l3.818,3.818-2.756,2.756-3.818-3.817a1.75,1.75,0,0,0-2.475,2.475l5.052,5.052,0,0,4.836,4.835a1.736,1.736,0,0,0,.5.343c.011.005.019.016.03.021l5.688,2.515a15.186,15.186,0,0,0,6.141,1.289,15.378,15.378,0,0,0,10.862-4.465l1.688-1.687A1.75,1.75,0,0,0,43.4,60.9l-1.687,1.688A11.878,11.878,0,0,1,28.6,65.033l-3.352-1.482L63.481,25.314l1.482,3.352a11.872,11.872,0,0,1-2.448,13.113L57.692,46.6l-3.818-3.818a1.749,1.749,0,0,0-2.475,0L42.853,51.33a1.749,1.749,0,0,0,0,2.475L55.294,66.246a1.749,1.749,0,0,0,2.475,0l.115-.115L72.625,80.872A1.75,1.75,0,0,0,75.1,78.4ZM59.215,19.91l2.36,2.361-2.756,2.756-2.36-2.36Zm-5.232,5.231,2.36,2.36-2.756,2.756-2.36-2.36Zm-5.231,5.23,2.36,2.36-2.757,2.757L46,33.129ZM43.521,35.6l2.361,2.361-2.757,2.757L40.764,38.36ZM38.29,40.835,40.65,43.2l-2.756,2.756-2.361-2.361Zm-5.231,5.23,2.361,2.361-2.757,2.757L30.3,48.822ZM27.828,51.3l2.361,2.361-2.757,2.757-2.361-2.361ZM22.6,56.528l2.361,2.361L22.2,61.644l-1.07-1.07L19.84,59.284Zm23.968-3.961L52.637,46.5,62.6,56.462l-6.072,6.072Z" style="fill:#790000"/><path d="M78.918,82.216a1.75,1.75,0,0,0-2.475,2.475L76.75,85a1.75,1.75,0,0,0,2.475-2.475Z" style="fill:#790000"/><path d="M117.318,99.048a4.159,4.159,0,0,0-2.813-3L99.82,91.433,69.945,61.559a1.75,1.75,0,0,0-2.475,2.475L96.412,92.975l-3.367,3.368-9.834-9.835a1.75,1.75,0,0,0-2.475,2.475L91.5,99.75l4.616,14.686a4.158,4.158,0,0,0,3,2.812,4.221,4.221,0,0,0,1.011.123,4.132,4.132,0,0,0,2.647-.982,5.385,5.385,0,0,0,6.3-1l6.384-6.383h0a5.452,5.452,0,0,0,1-6.285A4.149,4.149,0,0,0,117.318,99.048Zm-17.367,14.8a.668.668,0,0,1-.493-.462L95.032,99.3l4.342-4.343,14.082,4.427a.667.667,0,0,1,.463.493.723.723,0,0,1,0,.337,5.4,5.4,0,0,0-6.176,1.066l-6.385,6.383a5.455,5.455,0,0,0-1.061,6.174A.71.71,0,0,1,99.951,113.849Zm13.033-7.316-6.384,6.383a2.006,2.006,0,0,1-2.771,0,1.963,1.963,0,0,1,0-2.772l6.385-6.383a1.96,1.96,0,0,1,2.771,2.772Z" style="fill:#790000"/></svg>