<svg id="Layer_1" data-name="Layer 1" xmlns="http://www.w3.org/2000/svg" viewBox="0 0 128 128"><title>SCARECROW</title><path d="M104.883,111.508a4.484,4.484,0,0,0-1.171.16,4.534,4.534,0,0,0-4.5-5.277c-.1,0-.2.009-.3.015a6.533,6.533,0,0,0-11.968-1.176c-.13-.011-.261-.02-.394-.02a4.56,4.56,0,0,0-4.546,4.22,3.356,3.356,0,0,0-3.714,2.081c-.023,0-.044,0-.067,0A4.492,4.492,0,0,0,73.731,116h35.644A4.492,4.492,0,0,0,104.883,111.508Z" style="fill:#59c26a"/><path d="M52.257,110.988a5,5,0,0,0-1.306.178,5.058,5.058,0,0,0-5.023-5.888c-.112,0-.222.01-.332.017a7.289,7.289,0,0,0-13.353-1.312c-.145-.012-.291-.022-.439-.022a5.088,5.088,0,0,0-5.072,4.708,3.744,3.744,0,0,0-4.144,2.322c-.025,0-.05,0-.075,0A5.012,5.012,0,0,0,17.5,116H57.269A5.012,5.012,0,0,0,52.257,110.988Z" style="fill:#96dd3d"/><polygon points="64 29.751 23.5 35.666 23.5 44.939 47.367 46.496 50.76 70.251 64 70.251 77.241 70.251 80.634 46.496 104.5 44.939 104.5 35.666 64 29.751" style="fill:#e76a36"/><polygon points="77.24 70.251 80.634 46.496 104.5 44.939 104.5 35.666 64 29.751 64 70.251 77.24 70.251" style="fill:#b95529"/><rect x="53.551" y="12" width="20.899" height="7.269" style="fill:#f9235e"/><path d="M53.551,19.269h20.9a0,0,0,0,1,0,0V24.8A10.45,10.45,0,0,1,64,35.254h0A10.45,10.45,0,0,1,53.551,24.8V19.269A0,0,0,0,1,53.551,19.269Z" style="fill:#ffd92d"/><polygon points="50.76 70.251 56.75 98 64 98 64 70.251 50.76 70.251" style="fill:#ffd3b7"/><polygon points="77.241 70.251 71.25 98 64 98 64 70.251 77.241 70.251" style="fill:#ffb594"/><circle cx="64" cy="42.094" r="2.844" style="fill:#ffd3b7"/><circle cx="64" cy="52.544" r="2.844" style="fill:#ffd3b7"/><circle cx="64" cy="62.994" r="2.844" style="fill:#ffd3b7"/><rect x="64" y="12" width="10.45" height="7.269" style="fill:#c81341"/><path d="M64,35.254A10.45,10.45,0,0,0,74.45,24.8V19.269H64Z" style="fill:#fcbe00"/><path d="M77.24,21.019H50.76a1.75,1.75,0,0,1,0-3.5H77.24a1.75,1.75,0,0,1,0,3.5Z" style="fill:#c81341"/><path d="M116,114.25h-5.125a6.257,6.257,0,0,0-5.461-4.47,6.329,6.329,0,0,0-5.3-5.075,8.285,8.285,0,0,0-14.132-1.219,6.351,6.351,0,0,0-5.447,4.39,1.75,1.75,0,0,0,.9,3.252,1.7,1.7,0,0,1,.279.027,1.75,1.75,0,0,0,2.039-1.595,2.862,2.862,0,0,1,3.05-2.586,1.766,1.766,0,0,0,1.679-.9,4.783,4.783,0,0,1,8.763.858,1.814,1.814,0,0,0,1.846,1.22l.122-.007a2.781,2.781,0,0,1,2.773,3.255,1.75,1.75,0,0,0,2.186,1.961,2.688,2.688,0,0,1,2.83.893H65.75V101.583l5.3,4.131a1.75,1.75,0,0,0,2.151-2.761l-4.109-3.2H71.25a1.75,1.75,0,0,0,1.71-1.381l5.99-27.749c0-.018,0-.037.006-.055s.012-.043.016-.066l3.393-23.755a1.75,1.75,0,1,0-3.465-.5L75.723,68.5H52.277L49.1,46.249a1.75,1.75,0,0,0-1.619-1.5L25.25,43.3V37.179l5.18-.757a1.75,1.75,0,1,0-.506-3.463l-6.677.975a1.75,1.75,0,0,0-1.5,1.731h0L16.694,32.81a1.75,1.75,0,1,0-1.722,3.047L19.65,38.5H15.833a1.75,1.75,0,1,0,0,3.5h3.9l-4.741,2.589a1.75,1.75,0,1,0,1.678,3.072l5.078-2.772v.05a1.75,1.75,0,0,0,1.636,1.746L45.835,48.15,49.027,70.5c0,.023.012.044.016.066s0,.037.006.055l5.99,27.749a1.75,1.75,0,0,0,1.71,1.381h2.159l-4.109,3.2a1.75,1.75,0,0,0,2.151,2.761l5.3-4.131V114.25H58.782a6.772,6.772,0,0,0-6.105-5,6.858,6.858,0,0,0-5.876-5.667,9.041,9.041,0,0,0-15.522-1.353,6.881,6.881,0,0,0-5.969,4.685,5.486,5.486,0,0,0-4.086,2.862,1.733,1.733,0,0,0,1.2,2.957c.032,0,.1.006.13.006a1.748,1.748,0,0,0,1.66-1.1,2.058,2.058,0,0,1,2.223-1.244,1.75,1.75,0,0,0,2.041-1.595,3.351,3.351,0,0,1,3.327-3.089c.1,0,.192.007.287.016a1.739,1.739,0,0,0,1.688-.9,5.539,5.539,0,0,1,10.147.995,1.833,1.833,0,0,0,1.865,1.218l.137-.007a3.309,3.309,0,0,1,3.294,3.865,1.75,1.75,0,0,0,2.185,1.962,3.194,3.194,0,0,1,3.585,1.395H39.708a1.75,1.75,0,0,0,0,3.5H116a1.75,1.75,0,0,0,0-3.5ZM52.928,72H75.072L69.837,96.25H65.75V78.5a1.75,1.75,0,0,0-3.5,0V96.25H58.163Z" style="fill:#790000"/><path d="M33.5,114.25H33a1.75,1.75,0,0,0,0,3.5h.5a1.75,1.75,0,1,0,0-3.5Z" style="fill:#790000"/><path d="M26.5,114.25H12a1.75,1.75,0,0,0,0,3.5H26.5a1.75,1.75,0,0,0,0-3.5Z" style="fill:#790000"/><path d="M36.309,35.545a1.741,1.741,0,0,0,.255-.019l.629-.092a1.75,1.75,0,1,0-.506-3.463l-.629.092a1.75,1.75,0,0,0,.251,3.481Z" style="fill:#790000"/><path d="M42.5,34.641a1.741,1.741,0,0,0,.255-.019l12.1-1.767a12.147,12.147,0,0,0,18.286,0l29.607,4.324V43.3L87.212,44.313a1.75,1.75,0,0,0,.112,3.5c.039,0,.077,0,.116,0l17.174-1.121a1.75,1.75,0,0,0,1.636-1.746v-.05l5.078,2.772a1.75,1.75,0,0,0,1.678-3.072L108.264,42h3.9a1.75,1.75,0,1,0,0-3.5H108.35l4.677-2.643a1.75,1.75,0,0,0-1.722-3.047l-5.056,2.857h0a1.75,1.75,0,0,0-1.5-1.731L75.206,29.619A12.125,12.125,0,0,0,76.2,24.8V21.019H77.24a1.75,1.75,0,0,0,0-3.5H55.3V13.75H74.45a1.75,1.75,0,0,0,0-3.5H53.55A1.75,1.75,0,0,0,51.8,12v5.519H50.76a1.75,1.75,0,1,0,0,3.5H51.8V24.8a12.125,12.125,0,0,0,.994,4.815L42.25,31.159a1.75,1.75,0,0,0,.251,3.481ZM72.7,24.8a8.7,8.7,0,0,1-17.4,0V21.019H72.7Z" style="fill:#790000"/><path d="M64,39.25a2.844,2.844,0,1,0,2.844,2.844A2.847,2.847,0,0,0,64,39.25Z" style="fill:#790000"/><path d="M64,49.7a2.844,2.844,0,1,0,2.844,2.844A2.847,2.847,0,0,0,64,49.7Z" style="fill:#790000"/><path d="M64,60.15a2.844,2.844,0,1,0,2.844,2.844A2.847,2.847,0,0,0,64,60.15Z" style="fill:#790000"/></svg>