<svg id="Layer_1" data-name="Layer 1" xmlns="http://www.w3.org/2000/svg" viewBox="0 0 128 128"><title>SCYTHE</title><rect x="83.401" y="12" width="10.6" height="104" rx="5.3" ry="5.3" style="fill:#e76a36"/><path d="M94,110.7V17.3A5.3,5.3,0,0,0,88.7,12V116A5.3,5.3,0,0,0,94,110.7Z" style="fill:#b95529"/><path d="M107.049,24.333v22s-49.431-18.667-86.1,10.333C20.952,56.667,34.146,20,107.049,24.333Z" style="fill:#cae7f7"/><path d="M20.951,56.667s23.479-31.731,86.1-23V24.333C34.146,20,20.951,56.667,20.951,56.667Z" style="fill:#e5ffff"/><rect x="79.486" y="21" width="18.431" height="25.333" style="fill:#ffd92d"/><rect x="83.401" y="86.5" width="10.6" height="5.75" style="fill:#f9235e"/><rect x="88.701" y="21" width="9.216" height="25.333" style="fill:#fcbe00"/><rect x="88.701" y="86.5" width="5.3" height="5.75" style="fill:#c81341"/><path d="M94,52.917a1.75,1.75,0,0,0-1.75,1.75v.583a1.75,1.75,0,0,0,3.5,0v-.583A1.75,1.75,0,0,0,94,52.917Z" style="fill:#790000"/><path d="M107.151,22.586q-1.857-.108-3.663-.186a1.75,1.75,0,1,0-.148,3.5q.972.042,1.959.093v17.9c-1.356-.431-3.265-1-5.632-1.6V21a1.75,1.75,0,0,0-1.75-1.75H95.751V17.3a7.05,7.05,0,0,0-14.1,0v1.95H79.486A1.75,1.75,0,0,0,77.736,21v2.174C29.748,28.562,19.712,54.942,19.3,56.074a1.75,1.75,0,0,0,2.732,1.966C35.078,47.726,51.224,42.388,70.025,42.177a1.75,1.75,0,0,0-.019-3.5h-.02c-16.41.185-30.9,4.137-43.208,11.763,6.2-7.885,20.554-20.226,50.958-23.74V46.333a1.75,1.75,0,0,0,1.75,1.75h2.166V110.7a7.05,7.05,0,0,0,14.1,0V61.125a1.75,1.75,0,1,0-3.5,0V84.75h-7.1V48.083H97.917a1.75,1.75,0,0,0,1.75-1.75v-.422c4.223,1.11,6.736,2.049,6.764,2.06a1.75,1.75,0,0,0,2.368-1.638v-22A1.75,1.75,0,0,0,107.151,22.586ZM88.7,114.25a3.554,3.554,0,0,1-3.55-3.55V94h7.1v16.7A3.554,3.554,0,0,1,88.7,114.25Zm3.55-26V90.5h-7.1V88.25Zm-7.1-70.95a3.55,3.55,0,0,1,7.1,0v1.95h-7.1ZM81.236,44.583V22.75H96.167V43.564c0,.043,0,.085,0,.128v.891Z" style="fill:#790000"/></svg>