<svg id="Layer_1" data-name="Layer 1" xmlns="http://www.w3.org/2000/svg" viewBox="0 0 128 128"><title>TOMATO</title><path d="M80.289,62.785a32.577,32.577,0,0,1-65.155,0c0-17.992,14.585-25.033,32.577-25.033S80.289,44.793,80.289,62.785Z" style="fill:#f9235e"/><path d="M80.289,62.785c0-17.992-14.585-25.033-32.577-25.033v57.61A32.577,32.577,0,0,0,80.289,62.785Z" style="fill:#c81341"/><path d="M112.866,83.423a32.577,32.577,0,1,1-65.155,0c0-17.992,14.585-25.033,32.577-25.033S112.866,65.431,112.866,83.423Z" style="fill:#f9235e"/><path d="M81.167,58.4v57.577a32.571,32.571,0,0,0,31.7-32.555C112.866,65.725,98.752,58.628,81.167,58.4Z" style="fill:#c81341"/><path d="M76.825,39.095c-7.291.861-12.623-3.528-20.969-4.7a79.557,79.557,0,0,0-16.289,0c-8.346,1.169-13.678,5.558-20.969,4.7,0,0,6.946,6.115,22.842,2.229,0,0-7.77,4.02-12.825,10.349a63.252,63.252,0,0,0,19.1-7.961,63.252,63.252,0,0,0,19.1,7.961c-5.055-6.329-12.825-10.349-12.825-10.349C69.879,45.21,76.825,39.095,76.825,39.095Z" style="fill:#96dd3d"/><path d="M76.312,105.36a27.162,27.162,0,0,0-4.726-15.816,6.2,6.2,0,0,1-1.2-3.619,6.891,6.891,0,0,1,3.17-5.553,6.765,6.765,0,0,0,2.758-5.542h0a6.959,6.959,0,0,0-9.724-6.387c-6.231,2.713-10.311,7.812-10.311,15.977a24,24,0,0,0,20.035,23.656Z" style="fill:#ffd92d"/><path d="M84.266,74.83h0a6.765,6.765,0,0,0,2.758,5.542,6.891,6.891,0,0,1,3.17,5.553,6.082,6.082,0,0,1-.87,3.108,33.478,33.478,0,0,0-5.058,16.937v2.106A24,24,0,0,0,104.3,84.42c0-8.166-4.08-13.264-10.311-15.977A6.959,6.959,0,0,0,84.266,74.83Z" style="fill:#fcbe00"/><path d="M66.48,76.16a1.413,1.413,0,0,0,.21.27,1.382,1.382,0,0,0,.271.21,1.787,1.787,0,0,0,.3.17c.11.04.22.07.33.1a1.95,1.95,0,0,0,.34.03,1.741,1.741,0,0,0,1.75-1.75,1.909,1.909,0,0,0-.03-.34,2.984,2.984,0,0,0-.1-.33,2.045,2.045,0,0,0-.16-.3,2,2,0,0,0-.22-.27,1.822,1.822,0,0,0-2.48,0,1.413,1.413,0,0,0-.21.27,1.482,1.482,0,0,0-.17.3,1.81,1.81,0,0,0-.09.33,1.464,1.464,0,0,0,0,.68,2.073,2.073,0,0,0,.09.33A1.8,1.8,0,0,0,66.48,76.16Z" style="fill:#00465f"/><path d="M63.49,83.14a1.746,1.746,0,0,0,1.229-2.99,1.752,1.752,0,0,0-1.58-.47,1.709,1.709,0,0,0-.32.09,1.837,1.837,0,0,0-.31.17,1.717,1.717,0,0,0-.26.21,1.75,1.75,0,0,0,1.24,2.99Z" style="fill:#00465f"/><path d="M65.33,88.91a1.458,1.458,0,0,0-.16-.3,2.53,2.53,0,0,0-.21-.27,1.768,1.768,0,0,0-1.58-.47,1.157,1.157,0,0,0-.33.1,1.078,1.078,0,0,0-.3.16,1.382,1.382,0,0,0-.271.21c-.08.09-.149.18-.22.27s-.11.2-.16.3a2.036,2.036,0,0,0-.1.33,1.9,1.9,0,0,0-.03.34,1.756,1.756,0,0,0,.51,1.24,1.979,1.979,0,0,0,.271.22,2.108,2.108,0,0,0,.3.16,1.583,1.583,0,0,0,.33.1,1.869,1.869,0,0,0,.34.03,1.756,1.756,0,0,0,1.24-.51,1.413,1.413,0,0,0,.21-.27,1.072,1.072,0,0,0,.16-.3,1.146,1.146,0,0,0,.1-.33,1.258,1.258,0,0,0,.04-.34,1.3,1.3,0,0,0-.04-.34A1.379,1.379,0,0,0,65.33,88.91Z" style="fill:#00465f"/><path d="M66.79,95.41a1.767,1.767,0,0,0-.521,1.24,2.016,2.016,0,0,0,.04.34,2.128,2.128,0,0,0,.1.33,1.745,1.745,0,0,0,.159.3,1.448,1.448,0,0,0,.221.27,1.749,1.749,0,0,0,2.47,0,1.406,1.406,0,0,0,.22-.27,1.685,1.685,0,0,0,.16-.3,2.128,2.128,0,0,0,.1-.33,2,2,0,0,0,.029-.34,1.756,1.756,0,0,0-.51-1.24A1.808,1.808,0,0,0,66.79,95.41Z" style="fill:#00465f"/><path d="M91.41,73.95a1.761,1.761,0,0,0,0,2.48,1.717,1.717,0,0,0,.26.21,1.875,1.875,0,0,0,.31.17,3.07,3.07,0,0,0,.32.1,2.07,2.07,0,0,0,.35.03,1.747,1.747,0,0,0,1.23-2.99A1.808,1.808,0,0,0,91.41,73.95Z" style="fill:#00465f"/><path d="M98.33,80.15a1.382,1.382,0,0,0-.271-.21,1.421,1.421,0,0,0-.3-.17,2.515,2.515,0,0,0-.33-.1,1.747,1.747,0,0,0-2.09,1.72,1.307,1.307,0,0,0,.04.34,1.379,1.379,0,0,0,.1.33,1.072,1.072,0,0,0,.16.3,1.413,1.413,0,0,0,.21.27,1.764,1.764,0,0,0,2.48,0,2,2,0,0,0,.22-.27,2.136,2.136,0,0,0,.16-.3c.04-.11.07-.22.1-.33a1.909,1.909,0,0,0,.03-.34A1.8,1.8,0,0,0,98.33,80.15Z" style="fill:#00465f"/><path d="M98.47,88.91a1.458,1.458,0,0,0-.16-.3,2.41,2.41,0,0,0-.21-.27,1.83,1.83,0,0,0-2.479,0c-.08.09-.15.18-.221.27s-.109.2-.159.3a2.144,2.144,0,0,0-.1.33,2,2,0,0,0-.03.34,1.914,1.914,0,0,0,.03.34,1.622,1.622,0,0,0,.1.33,2.134,2.134,0,0,0,.159.3,2.007,2.007,0,0,0,.221.27,1.754,1.754,0,0,0,1.239.51,1.96,1.96,0,0,0,.341-.03,2.1,2.1,0,0,0,.33-.1c.1-.05.2-.1.3-.16a2.03,2.03,0,0,0,.27-.22,1.8,1.8,0,0,0,.51-1.24,1.3,1.3,0,0,0-.04-.34A1.379,1.379,0,0,0,98.47,88.91Z" style="fill:#00465f"/><path d="M94.17,95.98a2.924,2.924,0,0,0-.16-.3,2,2,0,0,0-.22-.27,1.8,1.8,0,0,0-1.58-.48c-.11.03-.22.06-.33.1a1.785,1.785,0,0,0-.3.17,1.382,1.382,0,0,0-.271.21,1.413,1.413,0,0,0-.21.27,1.274,1.274,0,0,0-.16.3,1.366,1.366,0,0,0-.1.33,1.3,1.3,0,0,0-.04.34,1.75,1.75,0,1,0,3.5,0,1.9,1.9,0,0,0-.03-.34C94.24,96.2,94.21,96.09,94.17,95.98Z" style="fill:#00465f"/><path d="M76.825,39.095c-7.291.861-12.623-3.528-20.969-4.7a65.76,65.76,0,0,0-8.144-.418v9.732a63.253,63.253,0,0,0,19.1,7.961c-5.055-6.329-12.825-10.349-12.825-10.349C69.879,45.21,76.825,39.095,76.825,39.095Z" style="fill:#59c26a"/><path d="M47.711,39.55S43.546,16.681,62.268,12l4.306,6.366S53.75,17.11,47.711,39.55Z" style="fill:#00465f"/><path d="M16.884,62.785c0-8.5,3.448-14.789,10.232-18.717a33.37,33.37,0,0,0,6.619.229,39.158,39.158,0,0,0-6.487,6.284,1.75,1.75,0,0,0,1.367,2.842,1.716,1.716,0,0,0,.341-.034A61.326,61.326,0,0,0,41.37,49.115a1.75,1.75,0,1,0-1.461-3.18c-1.909.877-3.7,1.587-5.285,2.151a47.577,47.577,0,0,1,7.62-5.209,1.75,1.75,0,0,0-1.221-3.253c-6.794,1.661-11.847,1.4-15.318.631,1.739-.443,3.437-1.046,5.175-1.665a44.278,44.278,0,0,1,8.931-2.459,53.937,53.937,0,0,1,5.811-.38,32.365,32.365,0,0,0,.368,4.112A1.75,1.75,0,0,0,47.639,41.3h.073A1.75,1.75,0,0,0,49.4,40c.4-1.491.856-2.885,1.338-4.228,1.884.061,3.612.178,4.874.354a44.258,44.258,0,0,1,8.929,2.459c1.764.627,3.484,1.239,5.25,1.683-.277.062-.581.114-.879.168a1.748,1.748,0,0,0-1.418.214A36.276,36.276,0,0,1,54.4,39.624a1.75,1.75,0,0,0-1.221,3.254,47.173,47.173,0,0,1,7.625,5.21,63.775,63.775,0,0,1-9.994-4.562,1.75,1.75,0,0,0-1.73,3.043,64.1,64.1,0,0,0,17.389,6.82,1.75,1.75,0,0,0,1.708-2.809A39.124,39.124,0,0,0,61.687,44.3a33.334,33.334,0,0,0,6.615-.227,19.666,19.666,0,0,1,8.05,8.372A1.75,1.75,0,0,0,79.5,50.9,22.4,22.4,0,0,0,72.978,43a15.454,15.454,0,0,0,5-2.589,1.75,1.75,0,0,0-1.361-3.051c-3.834.449-7.108-.714-10.906-2.064A47.775,47.775,0,0,0,56.1,32.665c-1.082-.152-2.46-.263-3.976-.335.395-.86.8-1.688,1.236-2.463a27.891,27.891,0,0,1,1.96-3.05c5.259-7.083,10.869-6.726,11.084-6.709a1.75,1.75,0,0,0,1.62-2.722L63.718,11.02a1.746,1.746,0,0,0-1.874-.717C49,13.514,46.086,24.605,45.663,32.251a57.987,57.987,0,0,0-6.338.414,47.762,47.762,0,0,0-9.617,2.628c-3.8,1.35-7.075,2.512-10.9,2.064a1.75,1.75,0,0,0-1.361,3.051A15.449,15.449,0,0,0,22.449,43c-5.941,4.609-9.065,11.366-9.065,19.788a1.75,1.75,0,0,0,3.5,0Zm32.8-34.9c1.488-7.217,5.47-11.874,11.843-13.858l1.97,2.912c-2.829.651-7.074,2.525-10.986,7.793A31.61,31.61,0,0,0,50.3,28.162q-.505.9-.978,1.878C49.415,29.335,49.532,28.613,49.683,27.883Z" style="fill:#790000"/><path d="M18,71.036c-.078-.283-.153-.569-.224-.855a1.75,1.75,0,1,0-3.4.836q.117.476.247.947A1.75,1.75,0,1,0,18,71.036Z" style="fill:#790000"/><path d="M108.193,65.985a1.75,1.75,0,1,0-2.529,2.419c3.618,3.784,5.452,8.837,5.452,15.019a30.828,30.828,0,0,1-61.655,0c0-8.7,4-23.283,30.828-23.283,7.942,0,14.821,1.439,19.894,4.163a1.75,1.75,0,0,0,1.656-3.084c-5.66-3.038-12.91-4.579-21.55-4.579-21.816,0-34.328,9.762-34.328,26.783A34.211,34.211,0,0,0,47.5,93.606,30.651,30.651,0,0,1,20.042,76.394,1.75,1.75,0,1,0,16.9,77.94,34.133,34.133,0,0,0,47.711,97.113c.364,0,.725-.025,1.09-.037a34.323,34.323,0,0,0,65.816-13.653C114.616,76.31,112.455,70.443,108.193,65.985Z" style="fill:#790000"/><path d="M74.562,74.83a1.75,1.75,0,0,0,3.5,0,8.709,8.709,0,0,0-12.173-7.992c-7.433,3.237-11.361,9.317-11.361,17.582a25.656,25.656,0,0,0,21.5,25.382,1.75,1.75,0,0,0,2.038-1.726V105.36a28.743,28.743,0,0,0-5.051-16.833,4.426,4.426,0,0,1-.877-2.6A5.14,5.14,0,0,1,74.566,81.8a1.75,1.75,0,1,0-2.025-2.854,8.642,8.642,0,0,0-3.907,6.98,7.965,7.965,0,0,0,1.527,4.635,25.273,25.273,0,0,1,4.4,14.8v.552A22.16,22.16,0,0,1,58.027,84.42c0-6.861,3.115-11.7,9.26-14.373a5.209,5.209,0,0,1,7.274,4.783Z" style="fill:#790000"/><path d="M82.516,105.969v2.106a1.75,1.75,0,0,0,2.038,1.726,25.657,25.657,0,0,0,21.5-25.382c0-8.265-3.93-14.345-11.362-17.582A8.709,8.709,0,0,0,82.516,74.83a8.509,8.509,0,0,0,3.5,6.969,5.14,5.14,0,0,1,2.433,4.125,4.319,4.319,0,0,1-.628,2.219A35.065,35.065,0,0,0,82.516,105.969Zm5.521-27.024a5.006,5.006,0,0,1-2.021-4.115,5.239,5.239,0,0,1,5.193-5.224,5.2,5.2,0,0,1,2.082.441c6.145,2.676,9.26,7.511,9.26,14.373a22.16,22.16,0,0,1-16.535,21.492,31.662,31.662,0,0,1,4.814-15.99,7.778,7.778,0,0,0,1.113-4A8.642,8.642,0,0,0,88.036,78.945Z" style="fill:#790000"/><path d="M69.68,75.19a1.909,1.909,0,0,0-.03-.34,2.984,2.984,0,0,0-.1-.33,2.045,2.045,0,0,0-.16-.3,2,2,0,0,0-.22-.27,1.822,1.822,0,0,0-2.48,0,1.413,1.413,0,0,0-.21.27,1.482,1.482,0,0,0-.17.3,1.81,1.81,0,0,0-.09.33,1.464,1.464,0,0,0,0,.68,2.073,2.073,0,0,0,.09.33,1.8,1.8,0,0,0,.17.3,1.413,1.413,0,0,0,.21.27,1.382,1.382,0,0,0,.271.21,1.787,1.787,0,0,0,.3.17c.11.04.22.07.33.1a1.95,1.95,0,0,0,.34.03,1.741,1.741,0,0,0,1.75-1.75Z" style="fill:#790000"/><path d="M63.49,83.14a1.746,1.746,0,0,0,1.229-2.99,1.752,1.752,0,0,0-1.58-.47,1.709,1.709,0,0,0-.32.09,1.837,1.837,0,0,0-.31.17,1.717,1.717,0,0,0-.26.21,1.75,1.75,0,0,0,1.24,2.99Z" style="fill:#790000"/><path d="M62.75,91.04a2.108,2.108,0,0,0,.3.16,1.583,1.583,0,0,0,.33.1,1.869,1.869,0,0,0,.34.03,1.756,1.756,0,0,0,1.24-.51,1.413,1.413,0,0,0,.21-.27,1.072,1.072,0,0,0,.16-.3,1.146,1.146,0,0,0,.1-.33,1.258,1.258,0,0,0,.04-.34,1.3,1.3,0,0,0-.04-.34,1.379,1.379,0,0,0-.1-.33,1.458,1.458,0,0,0-.16-.3,2.53,2.53,0,0,0-.21-.27,1.768,1.768,0,0,0-1.58-.47,1.157,1.157,0,0,0-.33.1,1.078,1.078,0,0,0-.3.16,1.382,1.382,0,0,0-.271.21c-.08.09-.149.18-.22.27s-.11.2-.16.3a2.036,2.036,0,0,0-.1.33,1.9,1.9,0,0,0-.03.34,1.756,1.756,0,0,0,.51,1.24A1.979,1.979,0,0,0,62.75,91.04Z" style="fill:#790000"/><path d="M66.27,96.65a2.016,2.016,0,0,0,.04.34,2.128,2.128,0,0,0,.1.33,1.745,1.745,0,0,0,.159.3,1.448,1.448,0,0,0,.221.27,1.749,1.749,0,0,0,2.47,0,1.406,1.406,0,0,0,.22-.27,1.685,1.685,0,0,0,.16-.3,2.128,2.128,0,0,0,.1-.33,2,2,0,0,0,.029-.34,1.756,1.756,0,0,0-.51-1.24,1.808,1.808,0,0,0-2.47,0A1.767,1.767,0,0,0,66.27,96.65Z" style="fill:#790000"/><path d="M92.3,76.91a2.07,2.07,0,0,0,.35.03,1.747,1.747,0,0,0,1.23-2.99,1.808,1.808,0,0,0-2.47,0,1.761,1.761,0,0,0,0,2.48,1.717,1.717,0,0,0,.26.21,1.875,1.875,0,0,0,.31.17A3.07,3.07,0,0,0,92.3,76.91Z" style="fill:#790000"/><path d="M95.479,82.06a1.072,1.072,0,0,0,.16.3,1.413,1.413,0,0,0,.21.27,1.764,1.764,0,0,0,2.48,0,2,2,0,0,0,.22-.27,2.136,2.136,0,0,0,.16-.3c.04-.11.07-.22.1-.33a1.909,1.909,0,0,0,.03-.34,1.8,1.8,0,0,0-.51-1.24,1.382,1.382,0,0,0-.271-.21,1.421,1.421,0,0,0-.3-.17,2.515,2.515,0,0,0-.33-.1,1.747,1.747,0,0,0-2.09,1.72,1.307,1.307,0,0,0,.04.34A1.379,1.379,0,0,0,95.479,82.06Z" style="fill:#790000"/><path d="M95.24,90.25a2.134,2.134,0,0,0,.159.3,2.007,2.007,0,0,0,.221.27,1.754,1.754,0,0,0,1.239.51,1.96,1.96,0,0,0,.341-.03,2.1,2.1,0,0,0,.33-.1c.1-.05.2-.1.3-.16a2.03,2.03,0,0,0,.27-.22,1.8,1.8,0,0,0,.51-1.24,1.3,1.3,0,0,0-.04-.34,1.379,1.379,0,0,0-.1-.33,1.458,1.458,0,0,0-.16-.3,2.41,2.41,0,0,0-.21-.27,1.83,1.83,0,0,0-2.479,0c-.08.09-.15.18-.221.27s-.109.2-.159.3a2.144,2.144,0,0,0-.1.33,2,2,0,0,0-.03.34,1.914,1.914,0,0,0,.03.34A1.622,1.622,0,0,0,95.24,90.25Z" style="fill:#790000"/><path d="M91.31,97.89a1.75,1.75,0,0,0,2.99-1.24,1.9,1.9,0,0,0-.03-.34c-.029-.11-.06-.22-.1-.33a2.924,2.924,0,0,0-.16-.3,2,2,0,0,0-.22-.27,1.8,1.8,0,0,0-1.58-.48c-.11.03-.22.06-.33.1a1.785,1.785,0,0,0-.3.17,1.382,1.382,0,0,0-.271.21,1.413,1.413,0,0,0-.21.27,1.274,1.274,0,0,0-.16.3,1.366,1.366,0,0,0-.1.33,1.3,1.3,0,0,0-.04.34A1.8,1.8,0,0,0,91.31,97.89Z" style="fill:#790000"/></svg>