<svg id="Layer_1" data-name="Layer 1" xmlns="http://www.w3.org/2000/svg" viewBox="0 0 128 128"><title>WATER TOWER</title><path d="M91.776,111.914,86.825,84.4a1.75,1.75,0,0,0-3.445.619L84.565,91.6,54.2,97.676,23.828,91.6l1.184-6.584a1.75,1.75,0,1,0-3.444-.619l-4.95,27.515a1.75,1.75,0,0,0,1.412,2.032,1.789,1.789,0,0,0,.312.027,1.75,1.75,0,0,0,1.72-1.44l.833-4.629,33.3-6.66,33.3,6.66.833,4.629a1.751,1.751,0,0,0,1.721,1.44,1.783,1.783,0,0,0,.312-.027A1.751,1.751,0,0,0,91.776,111.914ZM21.561,104.2l1.647-9.155L45.273,99.46ZM63.119,99.46l22.065-4.413,1.647,9.155Z" style="fill:#b95529"/><rect x="27.629" y="33.324" width="53.134" height="44.049" style="fill:#f9235e"/><rect x="54.196" y="33.324" width="26.567" height="44.049" style="fill:#c81341"/><path d="M46.654,58.636a7.542,7.542,0,1,0,15.085,0c0-4.166-7.542-14.118-7.542-14.118S46.654,54.47,46.654,58.636Z" style="fill:#00d6de"/><polygon points="76.378 24.512 54.196 15.701 32.014 24.512 24.226 33.324 54.196 33.324 84.166 33.324 76.378 24.512" style="fill:#ffd92d"/><rect x="18" y="77.373" width="72.392" height="7.336" style="fill:#e76a36"/><rect x="80.763" y="41.688" width="5.828" height="11.242" style="fill:#fcbe00"/><path d="M86.591,44.083v6.451h13.592a3.366,3.366,0,0,1,3.366,3.366v7.432H110V53.019a8.935,8.935,0,0,0-8.935-8.935Z" style="fill:#cae7f7"/><polygon points="84.166 33.324 76.378 24.512 54.196 15.701 54.196 33.324 84.166 33.324" style="fill:#fcbe00"/><path d="M61.739,58.636c0-4.166-7.543-14.118-7.543-14.118V66.179A7.542,7.542,0,0,0,61.739,58.636Z" style="fill:#00a9de"/><rect x="54.196" y="77.373" width="36.196" height="7.336" style="fill:#b95529"/><path d="M116,110.549h-.628a1.75,1.75,0,0,0,0,3.5H116a1.75,1.75,0,0,0,0-3.5Z" style="fill:#790000"/><path d="M109.189,110.54l-17.666-.026L87.2,86.459h3.2a1.75,1.75,0,0,0,1.75-1.75V77.373a1.75,1.75,0,0,0-1.75-1.75H29.379V39.5a1.75,1.75,0,0,0-3.5,0V75.623H18a1.75,1.75,0,0,0-1.75,1.75v7.336A1.75,1.75,0,0,0,18,86.459h3.2l-4.308,23.948L12,110.4h0a1.75,1.75,0,0,0,0,3.5l5.9.009c.045.012.087.03.134.038a1.789,1.789,0,0,0,.312.027,1.7,1.7,0,0,0,.364-.064l90.478.131h0a1.75,1.75,0,0,0,0-3.5ZM86.831,104.2,63.119,99.46l22.065-4.413ZM33.667,86.459a1.75,1.75,0,0,0,0-3.5H19.75V79.123H88.643v3.836H49.875a1.75,1.75,0,1,0,0,3.5H83.639l.925,5.143L54.2,97.676,23.827,91.6l.925-5.143ZM23.208,95.047,45.273,99.46,21.561,104.2ZM20.895,107.9l33.3-6.66,33.3,6.66.469,2.605-67.522-.1Z" style="fill:#790000"/><path d="M63.489,58.636c0-4.524-6.579-13.434-7.9-15.174a1.812,1.812,0,0,0-2.789,0c-1.319,1.74-7.9,10.649-7.9,15.174a9.292,9.292,0,1,0,18.585,0Zm-15.085,0c0-2.1,3.046-7.233,5.793-11.145,2.747,3.91,5.792,9.044,5.792,11.145a5.792,5.792,0,1,1-11.585,0Z" style="fill:#790000"/><path d="M40.5,86.459H42a1.75,1.75,0,0,0,0-3.5H40.5a1.75,1.75,0,0,0,0,3.5Z" style="fill:#790000"/><path d="M101.064,42.333H93.333a1.75,1.75,0,0,0,0,3.5h7.731a7.194,7.194,0,0,1,7.186,7.186v6.564H105.3V53.9a5.122,5.122,0,0,0-5.116-5.116H88.341v-7.1a1.75,1.75,0,0,0-1.75-1.75H82.513V35.073h1.653a1.75,1.75,0,0,0,1.312-2.909l-7.788-8.811a1.745,1.745,0,0,0-.665-.467L54.842,14.075a1.738,1.738,0,0,0-1.292,0L31.368,22.887a1.734,1.734,0,0,0-.665.467l-7.788,8.811a1.75,1.75,0,0,0,1.311,2.909H65.667a1.75,1.75,0,0,0,0-3.5H28.109l4.939-5.589,21.148-8.4,21.147,8.4,4.939,5.589H72.667a1.75,1.75,0,1,0,0,3.5h6.346V70.5a1.75,1.75,0,0,0,3.5,0V54.68h4.078a1.75,1.75,0,0,0,1.75-1.75v-.646h11.842A1.618,1.618,0,0,1,101.8,53.9v7.433a1.75,1.75,0,0,0,1.75,1.75H110a1.75,1.75,0,0,0,1.75-1.75V53.019A10.7,10.7,0,0,0,101.064,42.333ZM84.841,51.18H82.513V43.438h2.328Z" style="fill:#790000"/></svg>