<svg id="Layer_1" data-name="Layer 1" xmlns="http://www.w3.org/2000/svg" viewBox="0 0 128 128"><title>Artboard 6</title><path d="M69.005,103.958V55.572h33.4V99.126a4.837,4.837,0,0,1-4.832,4.832Z" style="fill:#c1d963;fill-rule:evenodd"/><path d="M30.427,103.958A4.835,4.835,0,0,1,25.6,99.126V55.572h33.4v48.387Z" style="fill:#c1d963;fill-rule:evenodd"/><path d="M24.637,53.526a6.594,6.594,0,0,1-4.69-1.952,6.644,6.644,0,0,1,4.69-11.332H58.994V53.526Z" style="fill:#c1d963;fill-rule:evenodd"/><rect x="61.04" y="40.242" width="5.92" height="13.284" style="fill:#e6434d"/><path d="M69.005,53.526V40.242h34.358a6.594,6.594,0,0,1,4.69,1.952,6.644,6.644,0,0,1-4.69,11.332Z" style="fill:#c1d963;fill-rule:evenodd"/><rect x="61.04" y="55.572" width="5.92" height="48.387" style="fill:#e6434d"/><path d="M93.125,93.79a2.023,2.023,0,0,0,4.046,0V71.747a2.023,2.023,0,0,0-4.046,0Z" style="fill:#fff;fill-rule:evenodd"/><path d="M93.125,66.185a2.023,2.023,0,0,0,4.046,0V64.679a2.023,2.023,0,0,0-4.046,0Z" style="fill:#fff;fill-rule:evenodd"/><path d="M62.04,56.572v46.387h3.92V56.572Zm0-15.33V52.526h3.92V41.242H62.04ZM57.994,52.526V41.242H24.637A5.663,5.663,0,0,0,19,46.884h0a5.663,5.663,0,0,0,5.642,5.642Zm0,50.433V56.572H26.6V99.126a3.821,3.821,0,0,0,1.127,2.705l0,0a3.829,3.829,0,0,0,2.709,1.123ZM70.005,56.572v46.387H97.572a3.835,3.835,0,0,0,3.832-3.832V56.572Zm0-15.33V52.526h33.358A5.663,5.663,0,0,0,109,46.884h0a5.663,5.663,0,0,0-5.642-5.642H70.005ZM57.694,37.2a7.012,7.012,0,0,1-1.573-4.266c0-2.438,1.488-4.615,3.717-6.418a21.1,21.1,0,0,0-6.806-1.47A7.9,7.9,0,0,0,45.6,35.59a7.955,7.955,0,0,0,.786,1.606ZM64,28.507c-2.208,1.343-3.833,2.912-3.833,4.423A3.232,3.232,0,0,0,61,34.879,11.2,11.2,0,0,0,63.754,37.2h.492A11.206,11.206,0,0,0,67,34.879a3.232,3.232,0,0,0,.838-1.949C67.833,31.419,66.208,29.85,64,28.507Zm4.162-1.995c2.228,1.8,3.717,3.98,3.717,6.418A7.013,7.013,0,0,1,70.306,37.2H81.611a7.911,7.911,0,0,0,1.244-4.266,7.886,7.886,0,0,0-7.888-7.888A21.1,21.1,0,0,0,68.162,26.512ZM24.637,37.2H41.886q-.047-.123-.091-.247A11.936,11.936,0,0,1,53.033,21,28.009,28.009,0,0,1,64,23.923,28.011,28.011,0,0,1,74.967,21,11.937,11.937,0,0,1,86.205,36.949c-.029.083-.06.165-.091.247h17.249a9.712,9.712,0,0,1,9.687,9.687h0a9.722,9.722,0,0,1-7.6,9.46V99.126a7.847,7.847,0,0,1-2.312,5.557l-.008.008A7.847,7.847,0,0,1,97.572,107H30.427a7.847,7.847,0,0,1-5.557-2.313l0,0,0,0a7.854,7.854,0,0,1-2.313-5.565V56.344a9.723,9.723,0,0,1-7.6-9.46h0A9.712,9.712,0,0,1,24.637,37.2Z" style="fill:#983c2a"/></svg>