<svg id="Layer_1" data-name="Layer 1" xmlns="http://www.w3.org/2000/svg" viewBox="0 0 128 128"><title>Artboard 2</title><path d="M64,112.365A38.251,38.251,0,1,1,74.161,37.229l.172.048A38.255,38.255,0,0,1,64,112.365Z" style="fill:#e6434d;fill-rule:evenodd"/><path d="M54.5,25.83a1.758,1.758,0,0,1,1.751-1.752H71.747A1.758,1.758,0,0,1,73.5,25.83v9.1l-1.2-.251a40.531,40.531,0,0,0-6.928-.831l-.142-1.005-.027,1-.663-.014-.542,0-1.191.018-.2-.994.033,1a40.455,40.455,0,0,0-6.928.831l-1.2.252Z" style="fill:#ffe749;fill-rule:evenodd"/><path d="M76.183,48.917a2.018,2.018,0,0,0,1.754-3.635q-.671-.324-1.473-.663A2.015,2.015,0,1,0,74.9,48.333Q75.492,48.583,76.183,48.917Z" style="fill:#fff;fill-rule:evenodd"/><path d="M80.964,49.283a2.02,2.02,0,0,0,.34,2.837A27.95,27.95,0,0,1,91.983,74.114a2.023,2.023,0,1,0,4.046,0A32.059,32.059,0,0,0,83.8,48.943,2.02,2.02,0,0,0,80.964,49.283Z" style="fill:#fff;fill-rule:evenodd"/><path d="M74.067,38.241c-.058-.014-.115-.03-.172-.048a36.973,36.973,0,1,0,.172.048ZM64,16.635h0a4.267,4.267,0,0,0-4.25,4.25v.147h8.5v-.15a4.232,4.232,0,0,0-1.249-3l0,0,0,0A4.228,4.228,0,0,0,64,16.635Zm0-4.046h0a8.27,8.27,0,0,1,5.853,2.438l0,0a8.268,8.268,0,0,1,2.435,5.858v.182a4.809,4.809,0,0,1,4.251,4.766v8.93a41.264,41.264,0,1,1-25.089,0v-8.93a4.809,4.809,0,0,1,4.251-4.766v-.178a8.316,8.316,0,0,1,8.3-8.3Zm.515,20.232h.038l.415.008.255.007.088,0,.088,0a41.39,41.39,0,0,1,7.1.852V25.829a.759.759,0,0,0-.751-.752H56.253a.759.759,0,0,0-.751.752v7.865a41.321,41.321,0,0,1,7.1-.852l.088,0,.087,0,.255-.007.415-.008h.038q.258,0,.516,0T64.516,32.822Z" style="fill:#983c2a"/></svg>