<svg id="Layer_1" data-name="Layer 1" xmlns="http://www.w3.org/2000/svg" viewBox="0 0 128 128"><title>Artboard 4</title><path d="M41.209,26.7,41.8,26a29,29,0,0,1,8.233-6.78l.659-.363,9.088,9.089-1.491.53a17.055,17.055,0,0,0-7.911,5.784l-.692.915Z" style="fill:#e6434d;fill-rule:evenodd"/><polygon points="37.049 33.808 39.907 28.294 48.639 37.024 48.149 38.187 46.661 43.421 37.049 33.808" style="fill:#fff;fill-rule:evenodd"/><path d="M41.034,50.524a5.905,5.905,0,0,1-5.991-5.932,29.191,29.191,0,0,1,.828-6.922l.422-1.727L46.684,46.335l-.27.624a5.843,5.843,0,0,1-1.243,1.827,5.757,5.757,0,0,1-4.136,1.738Z" style="fill:#e6434d;fill-rule:evenodd"/><path d="M81.1,98.076V80.75L92.957,92.608v13.827a5.972,5.972,0,0,1-.117,1.185l-.37,1.826Z" style="fill:#e6434d;fill-rule:evenodd"/><path d="M87.088,112.363a6.041,6.041,0,0,1-4.253-1.727c-1.842-1.842-1.8-3.937-1.752-6.154.008-.357.016-.724.016-1.1v-2.414l10.01,10.009-1.182.638a5.617,5.617,0,0,1-2.839.749Z" style="fill:#fff;fill-rule:evenodd"/><polygon points="81.099 77.858 81.099 69.486 92.957 81.344 92.957 89.717 81.099 77.858" style="fill:#fff;fill-rule:evenodd"/><polygon points="81.099 66.594 81.099 49.269 92.957 61.127 92.957 78.452 81.099 66.594" style="fill:#e6434d;fill-rule:evenodd"/><polygon points="81.099 46.377 81.099 44.66 80.051 36.956 92.957 49.863 92.957 58.235 81.099 46.377" style="fill:#fff;fill-rule:evenodd"/><path d="M61.618,15.632l2.418,0a29,29,0,0,1,28.921,28.92l0,2.418Z" style="fill:#e6434d;fill-rule:evenodd"/><path d="M68.082,27.99l-5.852-.481-9.6-9.6,1.476-.537a28.919,28.919,0,0,1,4.51-1.235l.519-.1L72.14,29.045Z" style="fill:#fff;fill-rule:evenodd"/><path d="M47.2,37.855q.121-.3.252-.6l-7.289-7.289q-.394.643-.76,1.319-.627,1.156-1.133,2.332l7.892,7.892a18.049,18.049,0,0,1,.97-3.482l.017-.043,0-.005.015-.039.017-.043.008-.019ZM45.5,46.562l-8.653-8.654a28.136,28.136,0,0,0-.8,6.685,4.935,4.935,0,0,0,8.415,3.493l.008-.008A4.892,4.892,0,0,0,45.5,46.562Zm43.956,64.173L82.1,103.382v3.054a4.91,4.91,0,0,0,1.436,3.485l.008.008a4.911,4.911,0,0,0,3.486,1.436h.191l.057,0h.007l.063,0h0l.035,0,.027,0c.084-.006.167-.014.249-.025h0a4.911,4.911,0,0,0,1.753-.57l.005,0,.009-.005,0,0h0l0,0,0,0,0,0Zm2.505-28.976L82.1,71.9v5.544L91.957,87.3Zm0,11.264L82.1,83.164v14.5l9.76,9.761a5,5,0,0,0,.1-.986ZM68.832,27.152,58.8,17.119a27.756,27.756,0,0,0-4.352,1.192l8.231,8.231A15.456,15.456,0,0,1,68.832,27.152ZM91.957,50.277,81.441,39.761c.7,1.573.658,6.2.658,6.2l9.858,9.858ZM64.035,16.635,91.957,44.557A27.91,27.91,0,0,0,64.035,16.635Zm-6.084,10.9L50.514,20.1a28.074,28.074,0,0,0-6.283,4.726q-.873.874-1.668,1.82l7.015,7.014a18.028,18.028,0,0,1,7.507-5.79Q57.513,27.692,57.951,27.536ZM91.957,61.541,82.1,51.683v14.5l9.858,9.858ZM96,44.593v61.843c0,5.252-3.19,8.975-8.975,8.975a8.947,8.947,0,0,1-6.338-2.629l0,0,0,0,0,0a8.948,8.948,0,0,1-2.625-6.333V44.593a14.029,14.029,0,0,0-1.059-5.382,14.094,14.094,0,0,0-13.107-8.671A13.758,13.758,0,0,0,58.618,31.6a14.215,14.215,0,0,0-6.875,6.1,2.019,2.019,0,0,1-.117.216,14.329,14.329,0,0,0-.78,1.7l-.019.05-.006.014-.013.036a15.862,15.862,0,0,0-.852,4.342c-.175,2.381-1.047,5.28-2.639,6.874l0,0,0,0,0,0A8.971,8.971,0,0,1,32,44.593a31.89,31.89,0,0,1,1.965-11.046,2.037,2.037,0,0,1,.108-.289q.171-.451.355-.9l.084-.2.026-.062.026-.062.019-.044.008-.018q.582-1.363,1.263-2.618.557-1.028,1.2-2.029A32.075,32.075,0,0,1,49.982,15.816h0l.011-.005L50,15.806l.01,0,.011-.005.01,0A32.01,32.01,0,0,1,96,44.593Z" style="fill:#983c2a"/></svg>