<svg id="Layer_1" data-name="Layer 1" xmlns="http://www.w3.org/2000/svg" viewBox="0 0 128 128"><title>Artboard 9</title><path d="M48.909,32.675,54,22.506a12.433,12.433,0,0,1,11.192-6.883,12.279,12.279,0,0,1,5.543,1.31L99.767,31.46a1.748,1.748,0,0,0,.245.128l.092.042a12.511,12.511,0,0,1,5.484,16.48,1.932,1.932,0,0,0-.129.252L100.42,58.445Z" style="fill:#9e8180;fill-rule:evenodd"/><path d="M101.934,70.233a4.251,4.251,0,0,1-1.845-.428L40.032,39.76l-.685-.42-1.334-1.824-.049-.148a4.069,4.069,0,0,1,.553-3.706,4.184,4.184,0,0,1,3.376-1.748,4.093,4.093,0,0,1,1.844.441L103.611,62.31a4.13,4.13,0,0,1,2.234,2.475,4.084,4.084,0,0,1-.559,3.718,4.153,4.153,0,0,1-3.352,1.731Z" style="fill:#9e8180;fill-rule:evenodd"/><path d="M60.371,112.36a39.177,39.177,0,0,1-22.83-71.01l.508-.364,1.273.688L99.537,71.8l0,.612A39.18,39.18,0,0,1,60.375,112.36Z" style="fill:#fff;fill-rule:evenodd"/><path d="M51.218,73.006a2.909,2.909,0,0,1-2.946-2.935,2.947,2.947,0,0,1,2.95-2.937A2.9,2.9,0,0,1,53.28,68a2.946,2.946,0,0,1,.007,4.151l-.666.67-.123-.109A2.877,2.877,0,0,1,51.218,73.006Z" style="fill:#ab6b4d;fill-rule:evenodd"/><path d="M61.67,87.676a1.82,1.82,0,0,1-.718-.148l-8.64-2.162-1.558-.38V83.042l1.563-.382L60.952,80.5a1.819,1.819,0,0,1,.711-.146,2.2,2.2,0,0,1,1.724.968,4.768,4.768,0,0,1,.343,4.822,2.4,2.4,0,0,1-2.06,1.532Z" style="fill:#fcbb55;fill-rule:evenodd"/><path d="M69.544,72.98a2.866,2.866,0,0,1-2.94-2.909,2.938,2.938,0,0,1,5.01-2.082l.711.706-.129.13a2.933,2.933,0,0,1,.275,1.246,2.852,2.852,0,0,1-.941,2.184,3,3,0,0,1-1.985.726Z" style="fill:#ab6b4d;fill-rule:evenodd"/><path d="M38.848,42.553a2,2,0,0,1-.363-.185l0,0q-.184-.1-.357-.2A38.175,38.175,0,1,0,98.544,73.188c0-.328,0-.586,0-.77L60.6,53.437ZM87.53,55.383,46.647,34.929l-.009,0L43.29,33.249a3.156,3.156,0,0,0-4.146,1.275,1.961,1.961,0,0,1-.129.258,3.168,3.168,0,0,0,.556,3.4c.039.036.077.075.114.114.075.075.149.143.223.2l0,0h0l.005,0,.005,0,.006,0,.005,0,.005,0h0l0,0,.091.069,0,0a3.3,3.3,0,0,0,.372.237l.007,0,.007,0,.007,0,.006,0h0l.007,0,.007,0,.007,0,.007,0,.007,0h0l.005,0L100.519,68.9h0l0,0,0,0,0,0,0,0,0,0,0,0h0l0,0,0,0h0l0,0,0,0,0,0h0l0,0c.062.028.13.057.206.087s.167.059.273.089c.035.01.07.021.1.032a3.161,3.161,0,0,0,3.5-1.512,1.971,1.971,0,0,1,.13-.26,3.157,3.157,0,0,0-1.338-4.013,2.021,2.021,0,0,1-.293-.151ZM50.25,32.227l3.706,1.854L99.974,57.1l4.554-9.1a2.015,2.015,0,0,1,.16-.324,11.512,11.512,0,0,0-5.044-15.159,1.985,1.985,0,0,1-.324-.163L70.283,17.827A11.511,11.511,0,0,0,54.89,22.953Zm2.3,51.4-1.563.382,1.563.382L60.767,86.4a2.006,2.006,0,0,1,.517.178.964.964,0,0,0,.2.078.833.833,0,0,0,.184.016,1.248,1.248,0,0,0,.924-.573,3.782,3.782,0,0,0,0-4.173,1.248,1.248,0,0,0-.924-.573.842.842,0,0,0-.184.016.965.965,0,0,0-.2.078h0a2.021,2.021,0,0,1-.434.159ZM42.044,82.048l9.562-2.335,8.085-1.975a4.966,4.966,0,0,1,.844-.287,4.777,4.777,0,0,1,1.133-.143,5.187,5.187,0,0,1,4.132,2.17,7.752,7.752,0,0,1,0,9.072,5.187,5.187,0,0,1-4.132,2.17,4.776,4.776,0,0,1-1.133-.143,4.974,4.974,0,0,1-.844-.287l-8.085-1.975-9.587-2.341a2.016,2.016,0,0,1,.025-3.925ZM52.573,68.7a1.946,1.946,0,0,0-2.666-.073l-.069.073a1.945,1.945,0,0,0-.008,2.735l.008.008a1.945,1.945,0,0,0,2.735-.008l0,0a1.945,1.945,0,0,0,0-2.739Zm-1.367-4.611a5.973,5.973,0,0,1,4.227,10.2l0,0,0,0a5.968,5.968,0,0,1-8.447,0l-.008-.008a5.968,5.968,0,0,1,0-8.447c.043-.043.087-.083.132-.121A5.95,5.95,0,0,1,51.206,64.092Zm19.7,4.608a1.956,1.956,0,0,0-2.67-.069l-.07.073a1.945,1.945,0,0,0-.073,2.666l.073.07a1.945,1.945,0,0,0,2.735.008l.008-.008a1.945,1.945,0,0,0-.008-2.735Zm-1.372-4.608a5.954,5.954,0,0,1,4.22,1.752l0,0,0,0a5.968,5.968,0,0,1,0,8.447l-.008.008a5.968,5.968,0,0,1-8.447,0q-.064-.064-.121-.133a5.968,5.968,0,0,1,.121-8.323c.043-.043.087-.083.132-.121A5.95,5.95,0,0,1,69.538,64.092Zm33.052,9.136A42.224,42.224,0,1,1,35.42,39.139a7.337,7.337,0,0,1-.331-.823,7.144,7.144,0,0,1,.285-5.257,2.024,2.024,0,0,1,.2-.408,7.184,7.184,0,0,1,9.514-3.005l1.556.779,4.639-9.273a15.541,15.541,0,0,1,20.8-6.927L101.28,28.83l.009,0a15.539,15.539,0,0,1,6.936,20.779l-.008.018-4.64,9.275,1.556.778.021.011a7.184,7.184,0,0,1,3.282,9.4,2.007,2.007,0,0,1-.2.4,7.2,7.2,0,0,1-5.643,3.729Z" style="fill:#983c2a"/></svg>