<?xml version="1.0" encoding="utf-8"?>
<!-- Generator: Adobe Illustrator 23.0.0, SVG Export Plug-In . SVG Version: 6.00 Build 0)  -->
<svg version="1.1" id="Layer_1" xmlns="http://www.w3.org/2000/svg" xmlns:xlink="http://www.w3.org/1999/xlink" x="0px" y="0px"
	 viewBox="0 0 512 512" style="enable-background:new 0 0 512 512;" xml:space="preserve">
<style type="text/css">
	.st0{fill:#463C4B;}
	.st1{fill:#555A6E;}
	.st2{fill:#289BC3;}
	.st3{fill:#00D2D2;}
	.st4{fill:#D7E6F0;}
	.st5{fill:#FF6E91;}
	.st6{fill:#6E7896;}
	.st7{fill:#FAA037;}
	.st8{fill:#E64178;}
	.st9{fill:#FAB991;}
	.st10{fill:#A5C3DC;}
	.st11{fill:#F0915A;}
	.st12{fill:#FFD241;}
	.st13{fill:#32283C;}
	.st14{fill:#E6E6EB;}
	.st15{fill:#466932;}
	.st16{fill:#78AF41;}
	.st17{fill:#F57328;}
	.st18{fill:#C8733C;}
</style>
<g>
	<g>
		<g>
			<path class="st2" d="M160,144V48h0C71.634,48,0,119.634,0,208v96c0,88.365,71.634,160,160,160h0v-96h0c-35.346,0-64-28.654-64-64
				v-96C96,172.654,124.654,144,160,144L160,144z"/>
		</g>
		<g>
			<path class="st2" d="M176,16h48v160h-48c-44.183,0-80-35.817-80-80v0C96,51.817,131.817,16,176,16z"/>
		</g>
		<g>
			<path class="st3" d="M96,96L96,96c0-44.183,35.817-80,80-80h48v80H96z"/>
		</g>
		<g>
			<circle class="st2" cx="224" cy="96" r="80"/>
		</g>
		<g>
			<circle class="st4" cx="224" cy="96" r="64"/>
		</g>
		<g>
			<circle class="st10" cx="224" cy="96" r="16"/>
		</g>
		<g>
			<circle class="st10" cx="224" cy="56" r="16"/>
		</g>
		<g>
			<circle class="st10" cx="224" cy="136" r="16"/>
		</g>
		<g>
			<circle class="st10" cx="189.359" cy="76" r="16"/>
		</g>
		<g>
			<circle class="st10" cx="258.641" cy="116" r="16"/>
		</g>
		<g>
			<circle class="st10" cx="189.359" cy="116" r="16"/>
		</g>
		<g>
			<circle class="st10" cx="258.641" cy="76" r="16"/>
		</g>
		<g>
			<path class="st2" d="M176,336h48v160h-48c-44.183,0-80-35.817-80-80v0C96,371.817,131.817,336,176,336z"/>
		</g>
		<g>
			<path class="st3" d="M96,416L96,416c0-44.183,35.817-80,80-80h48v80H96z"/>
		</g>
		<g>
			<circle class="st2" cx="224" cy="416" r="80"/>
		</g>
		<g>
			<circle class="st4" cx="224" cy="416" r="64"/>
		</g>
		<g>
			<circle class="st10" cx="224" cy="416" r="16"/>
		</g>
		<g>
			<circle class="st10" cx="224" cy="376" r="16"/>
		</g>
		<g>
			<circle class="st10" cx="224" cy="456" r="16"/>
		</g>
		<g>
			<circle class="st10" cx="189.359" cy="396" r="16"/>
		</g>
		<g>
			<circle class="st10" cx="258.641" cy="436" r="16"/>
		</g>
		<g>
			<circle class="st10" cx="189.359" cy="436" r="16"/>
		</g>
		<g>
			<circle class="st10" cx="258.641" cy="396" r="16"/>
		</g>
	</g>
	<g>
		<path class="st5" d="M384,128c-70.544,0-127.755,57.069-127.994,127.557H256V352l-18.343,18.343
			c-5.04,5.04-1.47,13.657,5.657,13.657H384c70.692,0,128-57.308,128-128S454.692,128,384,128z"/>
	</g>
	<g>
		<circle class="st8" cx="384" cy="256" r="104"/>
	</g>
	<g>
		<path class="st4" d="M346.667,264c17.645,0,32-14.355,32-32s-14.355-32-32-32s-32,14.355-32,32c0,4.418,3.582,8,8,8s8-3.582,8-8
			c0-8.823,7.178-16,16-16s16,7.177,16,16s-7.178,16-16,16c-17.645,0-32,14.355-32,32v24c0,4.418,3.582,8,8,8h48
			c4.418,0,8-3.582,8-8s-3.582-8-8-8h-40v-16C330.667,271.177,337.844,264,346.667,264z"/>
		<path class="st4" d="M450.667,264v-56c0-4.418-3.582-8-8-8s-8,3.582-8,8v56h-16c-4.411,0-8-3.589-8-8v-48c0-4.418-3.582-8-8-8
			s-8,3.582-8,8v48c0,13.234,10.767,24,24,24h16v24c0,4.418,3.582,8,8,8s8-3.582,8-8v-24c4.418,0,8-3.582,8-8
			S455.085,264,450.667,264z"/>
	</g>
</g>
</svg>
