<?xml version="1.0" encoding="utf-8"?>
<!-- Generator: Adobe Illustrator 23.0.0, SVG Export Plug-In . SVG Version: 6.00 Build 0)  -->
<svg version="1.1" id="Layer_1" xmlns="http://www.w3.org/2000/svg" xmlns:xlink="http://www.w3.org/1999/xlink" x="0px" y="0px"
	 viewBox="0 0 512 512" style="enable-background:new 0 0 512 512;" xml:space="preserve">
<style type="text/css">
	.st0{fill:#463C4B;}
	.st1{fill:#555A6E;}
	.st2{fill:#289BC3;}
	.st3{fill:#00D2D2;}
	.st4{fill:#D7E6F0;}
	.st5{fill:#FF6E91;}
	.st6{fill:#6E7896;}
	.st7{fill:#FAA037;}
	.st8{fill:#E64178;}
	.st9{fill:#FAB991;}
	.st10{fill:#A5C3DC;}
	.st11{fill:#F0915A;}
	.st12{fill:#FFD241;}
	.st13{fill:#32283C;}
	.st14{fill:#E6E6EB;}
	.st15{fill:#466932;}
	.st16{fill:#78AF41;}
	.st17{fill:#F57328;}
	.st18{fill:#C8733C;}
</style>
<g>
	<g>
		<g>
			<path class="st0" d="M226.293,280.004c-6.447,0-12.523-3.925-14.955-10.308L148.214,104H24c-8.836,0-16-7.163-16-16
				s7.164-16,16-16h124.214c13.19,0,25.207,8.281,29.903,20.607l63.125,165.696c3.146,8.258-0.998,17.502-9.255,20.648
				C230.112,279.666,228.187,280.004,226.293,280.004z"/>
		</g>
		<g>
			<path class="st0" d="M392,392H200c-26.467,0-48-21.533-48-48s21.533-48,48-48h64c8.836,0,16,7.163,16,16s-7.164,16-16,16h-64
				c-8.822,0-16,7.178-16,16s7.178,16,16,16h192c8.836,0,16,7.163,16,16S400.836,392,392,392z"/>
		</g>
		<g>
			<path class="st1" d="M408,392H120c-26.467,0-48-21.533-48-48s21.533-48,48-48h64c8.836,0,16,7.163,16,16s-7.164,16-16,16h-64
				c-8.822,0-16,7.178-16,16s7.178,16,16,16h288c8.836,0,16,7.163,16,16S416.836,392,408,392z"/>
		</g>
		<g>
			<path class="st1" d="M146.293,280.004c-6.447,0-12.523-3.925-14.955-10.308L68.214,104H24c-8.836,0-16-7.163-16-16
				s7.164-16,16-16h44.214c13.19,0,25.207,8.281,29.903,20.607l63.125,165.696c3.146,8.258-0.998,17.502-9.255,20.648
				C150.112,279.666,148.187,280.004,146.293,280.004z"/>
		</g>
		<g>
			<path class="st2" d="M88,156.27L88,156.27c0,2.466,0.45,4.911,1.328,7.216l56.784,149.058C149.657,321.85,158.581,328,168.54,328
				H407.46c9.959,0,18.883-6.15,22.428-15.456l56.784-149.058c0.878-2.305,1.328-4.75,1.328-7.216v0
				c0-11.195-9.075-20.27-20.27-20.27H108.27C97.075,136,88,145.075,88,156.27z"/>
		</g>
		<g>
			<g>
				<path class="st3" d="M387.73,136H108.27C97.075,136,88,145.075,88,156.27v0c0,2.466,0.45,4.911,1.328,7.216l56.784,149.058
					C149.657,321.85,158.581,328,168.54,328H327.46c9.958,0,18.882-6.15,22.428-15.456l56.784-149.058
					c0.878-2.305,1.328-4.75,1.328-7.216v0C408,145.075,398.925,136,387.73,136z M354.968,186.848l-10.09,26.485h-78.212V176h80.825
					C353.095,176,356.963,181.612,354.968,186.848z M148.508,176h80.825v37.333h-78.212l-10.09-26.485
					C139.037,181.612,142.905,176,148.508,176z M176.622,280.272l-11.278-29.605h63.989V288h-41.497
					C182.857,288,178.395,284.925,176.622,280.272z M319.378,280.272c-1.773,4.653-6.235,7.728-11.214,7.728h-41.497v-37.333h63.989
					L319.378,280.272z"/>
			</g>
			<g>
				<path class="st4" d="M266.667,213.333h78.212l10.09-26.485c1.995-5.236-1.873-10.848-7.476-10.848h-80.825V213.333z"/>
			</g>
			<g>
				<path class="st4" d="M266.667,250.667V288h41.497c4.979,0,9.441-3.075,11.214-7.728l11.278-29.605H266.667z"/>
			</g>
			<g>
				<path class="st4" d="M151.122,213.333h78.212V176h-80.825c-5.603,0-9.471,5.612-7.476,10.848L151.122,213.333z"/>
			</g>
			<g>
				<path class="st4" d="M229.333,250.667h-63.989l11.278,29.605c1.773,4.653,6.235,7.728,11.214,7.728h41.497V250.667z"/>
			</g>
		</g>
		<g>
			<path class="st2" d="M144,488h-24c-26.51,0-48-21.49-48-48v0c0-26.51,21.49-48,48-48h24c26.51,0,48,21.49,48,48v0
				C192,466.51,170.51,488,144,488z"/>
		</g>
		<g>
			<circle class="st3" cx="120" cy="440" r="48"/>
		</g>
		<g>
			<circle class="st4" cx="120" cy="440" r="24"/>
		</g>
		<g>
			<path class="st2" d="M376,488h-24c-26.51,0-48-21.49-48-48v0c0-26.51,21.49-48,48-48h24c26.51,0,48,21.49,48,48v0
				C424,466.51,402.51,488,376,488z"/>
		</g>
		<g>
			<circle class="st3" cx="352" cy="440" r="48"/>
		</g>
		<g>
			<circle class="st4" cx="352" cy="440" r="24"/>
		</g>
	</g>
	<g>
		<circle class="st5" cx="392" cy="136" r="112"/>
	</g>
	<g>
		<path class="st4" d="M448,120h-40V80c0-8.836-7.163-16-16-16s-16,7.164-16,16v40h-40c-8.837,0-16,7.164-16,16l0,0
			c0,8.837,7.163,16,16,16h40v40c0,8.837,7.163,16,16,16s16-7.163,16-16v-40h40c8.837,0,16-7.163,16-16l0,0
			C464,127.164,456.837,120,448,120z"/>
	</g>
</g>
</svg>
