<?xml version="1.0" encoding="utf-8"?>
<!-- Generator: Adobe Illustrator 23.0.0, SVG Export Plug-In . SVG Version: 6.00 Build 0)  -->
<svg version="1.1" id="Layer_1" xmlns="http://www.w3.org/2000/svg" xmlns:xlink="http://www.w3.org/1999/xlink" x="0px" y="0px"
	 viewBox="0 0 512 512" style="enable-background:new 0 0 512 512;" xml:space="preserve">
<style type="text/css">
	.st0{fill:#463C4B;}
	.st1{fill:#555A6E;}
	.st2{fill:#289BC3;}
	.st3{fill:#00D2D2;}
	.st4{fill:#D7E6F0;}
	.st5{fill:#FF6E91;}
	.st6{fill:#6E7896;}
	.st7{fill:#FAA037;}
	.st8{fill:#E64178;}
	.st9{fill:#FAB991;}
	.st10{fill:#A5C3DC;}
	.st11{fill:#F0915A;}
	.st12{fill:#FFD241;}
	.st13{fill:#32283C;}
	.st14{fill:#E6E6EB;}
	.st15{fill:#466932;}
	.st16{fill:#78AF41;}
	.st17{fill:#F57328;}
	.st18{fill:#C8733C;}
</style>
<g>
	<g>
		<path class="st11" d="M499.313,348.687c-6.248-6.249-16.379-6.249-22.627,0L417.373,408H344c-8.837,0-16,7.163-16,16v40h48v-8
			c0-8.837,7.163-16,16-16h28.687c6.411,0,12.438-2.497,16.97-7.03l61.657-61.657C505.562,365.065,505.562,354.935,499.313,348.687z
			"/>
	</g>
	<g>
		<path class="st1" d="M232,464h-96c-8.837,0-16,7.163-16,16v16h128v-16C248,471.163,240.837,464,232,464z"/>
	</g>
	<g>
		<path class="st0" d="M248,480h-48c-8.837,0-16,7.163-16,16v0h64V480z"/>
	</g>
	<g>
		<path class="st9" d="M128,360h56c26.51,0,48,21.49,48,48l-104,0c-13.255,0-24-10.745-24-24v0C104,370.745,114.745,360,128,360z"/>
	</g>
	<g>
		<path class="st11" d="M128,397.333h5.333c4.418,0,8-3.582,8-8v-10.667c0-4.418-3.582-8-8-8H128
			c-7.364,0-13.333,5.97-13.333,13.333l0,0C114.667,391.364,120.636,397.333,128,397.333z"/>
	</g>
	<g>
		<path class="st11" d="M94.627,408l-59.314-59.313c-6.248-6.249-16.379-6.249-22.627,0c-6.249,6.248-6.249,16.379,0,22.627
			l61.657,61.657c4.533,4.533,10.56,7.03,16.97,7.03H120c8.837,0,16,7.164,16,16v8h96v-56H94.627z"/>
	</g>
	<g>
		<path class="st9" d="M120,440c8.836,0,16,7.163,16,16v8h48v-8c0-8.837-7.163-16-16-16H120z"/>
	</g>
	<g>
		<path class="st1" d="M376,464h-96c-8.837,0-16,7.163-16,16v16h128v-16C392,471.163,384.837,464,376,464z"/>
	</g>
	<g>
		<path class="st0" d="M392,480h-48c-8.837,0-16,7.163-16,16l0,0h64V480z"/>
	</g>
	<g>
		<path class="st9" d="M384,360h-56c-26.51,0-48,21.49-48,48v56h48v-40c0-8.837,7.163-16,16-16h40c13.255,0,24-10.745,24-24v0
			C408,370.745,397.255,360,384,360z"/>
	</g>
	<g>
		<path class="st11" d="M384,397.333h-5.333c-4.418,0-8-3.582-8-8v-10.667c0-4.418,3.582-8,8-8H384
			c7.364,0,13.333,5.97,13.333,13.333l0,0C397.333,391.364,391.364,397.333,384,397.333z"/>
	</g>
	<g>
		<path class="st10" d="M312,128c-4.418,0-8-3.582-8-8V72c0-22.056-17.944-40-40-40s-40,17.944-40,40v48c0,4.418-3.582,8-8,8
			s-8-3.582-8-8V72c0-30.878,25.122-56,56-56s56,25.122,56,56v48C320,124.418,316.418,128,312,128z"/>
	</g>
	<g>
		<path class="st8" d="M360,344H152c-8.837,0-16-7.163-16-16V104c0-8.837,7.163-16,16-16h208c8.837,0,16,7.163,16,16v224
			C376,336.837,368.837,344,360,344z"/>
	</g>
	<g>
		<path class="st5" d="M312,344H152c-8.837,0-16-7.163-16-16V104c0-8.837,7.163-16,16-16h160c8.837,0,16,7.163,16,16v224
			C328,336.837,320.837,344,312,344z"/>
	</g>
	<g>
		<circle class="st8" cx="184" cy="120" r="18.667"/>
	</g>
	<g>
		<circle class="st8" cx="280" cy="120" r="18.667"/>
	</g>
	<g>
		<path class="st4" d="M280,128c-4.418,0-8-3.582-8-8V72c0-22.056-17.944-40-40-40s-40,17.944-40,40v48c0,4.418-3.582,8-8,8
			s-8-3.582-8-8V72c0-30.878,25.122-56,56-56s56,25.122,56,56v48C288,124.418,284.418,128,280,128z"/>
	</g>
	<g>
		<path class="st3" d="M266,320L266,320c-1.298,0-2.561-0.421-3.6-1.2L232,296l-30.4,22.8c-1.039,0.779-2.302,1.2-3.6,1.2h0
			c-3.314,0-6-2.686-6-6v-98h80v98C272,317.314,269.314,320,266,320z"/>
	</g>
	<g>
		<circle class="st4" cx="232" cy="216" r="64"/>
	</g>
	<g>
		<path class="st7" d="M239.174,176.87l8.598,17.422l19.226,2.794c6.562,0.953,9.182,9.017,4.434,13.646l-13.912,13.561
			l3.284,19.148c1.121,6.535-5.739,11.519-11.608,8.433L232,242.833l-17.196,9.041c-5.869,3.086-12.728-1.898-11.608-8.433
			l3.284-19.148l-13.912-13.561c-4.748-4.628-2.128-12.692,4.434-13.646l19.226-2.794l8.598-17.422
			C227.761,170.924,236.239,170.924,239.174,176.87z"/>
	</g>
</g>
</svg>
