<?xml version="1.0" encoding="utf-8"?>
<!-- Generator: Adobe Illustrator 23.0.0, SVG Export Plug-In . SVG Version: 6.00 Build 0)  -->
<svg version="1.1" id="Layer_1" xmlns="http://www.w3.org/2000/svg" xmlns:xlink="http://www.w3.org/1999/xlink" x="0px" y="0px"
	 viewBox="0 0 512 512" style="enable-background:new 0 0 512 512;" xml:space="preserve">
<style type="text/css">
	.st0{fill:#463C4B;}
	.st1{fill:#555A6E;}
	.st2{fill:#289BC3;}
	.st3{fill:#00D2D2;}
	.st4{fill:#D7E6F0;}
	.st5{fill:#FF6E91;}
	.st6{fill:#6E7896;}
	.st7{fill:#FAA037;}
	.st8{fill:#E64178;}
	.st9{fill:#FAB991;}
	.st10{fill:#A5C3DC;}
	.st11{fill:#F0915A;}
	.st12{fill:#FFD241;}
	.st13{fill:#32283C;}
	.st14{fill:#E6E6EB;}
	.st15{fill:#466932;}
	.st16{fill:#78AF41;}
	.st17{fill:#F57328;}
	.st18{fill:#C8733C;}
</style>
<g>
	<g>
		<g>
			<path class="st10" d="M304,164c-4.418,0-8-3.582-8-8v-48c0-22.056-17.944-40-40-40s-40,17.944-40,40v48c0,4.418-3.582,8-8,8
				s-8-3.582-8-8v-48c0-30.878,25.122-56,56-56s56,25.122,56,56v48C312,160.418,308.418,164,304,164z"/>
		</g>
		<g>
			<path class="st0" d="M368,460H144c-8.837,0-16-7.163-16-16V140c0-8.837,7.163-16,16-16h208c8.837,0,16,7.163,16,16V460z"/>
		</g>
		<g>
			<path class="st1" d="M304,460H144c-8.837,0-16-7.163-16-16V140c0-8.837,7.163-16,16-16h160c8.837,0,16,7.163,16,16v304
				C320,452.837,312.837,460,304,460z"/>
		</g>
		<g>
			<circle class="st13" cx="176" cy="156" r="18.667"/>
		</g>
		<g>
			<circle class="st13" cx="272" cy="156" r="18.667"/>
		</g>
		<g>
			<path class="st4" d="M272,164c-4.418,0-8-3.582-8-8v-48c0-22.056-17.944-40-40-40s-40,17.944-40,40v48c0,4.418-3.582,8-8,8
				s-8-3.582-8-8v-48c0-30.878,25.122-56,56-56s56,25.122,56,56v48C280,160.418,276.418,164,272,164z"/>
		</g>
	</g>
	<g>
		<g>
			<path class="st2" d="M224,460H16c-8.837,0-16-7.163-16-16V220c0-8.837,7.163-16,16-16h208c8.837,0,16,7.163,16,16v224
				C240,452.837,232.837,460,224,460z"/>
		</g>
		<g>
			<path class="st3" d="M176,460H16c-8.837,0-16-7.163-16-16V220c0-8.837,7.163-16,16-16h160c8.837,0,16,7.163,16,16v224
				C192,452.837,184.837,460,176,460z"/>
		</g>
		<g>
			<circle class="st2" cx="48" cy="236" r="18.667"/>
		</g>
		<g>
			<circle class="st2" cx="144" cy="236" r="18.667"/>
		</g>
		<g>
			<path class="st4" d="M96,316c-30.878,0-56-25.122-56-56v-24c0-4.418,3.582-8,8-8s8,3.582,8,8v24c0,22.056,17.944,40,40,40
				s40-17.944,40-40v-24c0-4.418,3.582-8,8-8s8,3.582,8,8v24C152,290.878,126.878,316,96,316z"/>
		</g>
	</g>
	<g>
		<circle class="st5" cx="368" cy="316" r="144"/>
	</g>
	<g>
		<g>
			<path class="st10" d="M432,409.333H304c-8.837,0-16-7.163-16-16v-80h160v80C448,402.17,440.837,409.333,432,409.333z"/>
		</g>
		<g>
			<path class="st4" d="M352,409.333h-48c-8.837,0-16-7.163-16-16v-64h80v64C368,402.17,360.837,409.333,352,409.333z"/>
		</g>
		<g>
			<path class="st10" d="M280,273.333h176c4.418,0,8,3.582,8,8v24c0,4.418-3.582,8-8,8H280c-4.418,0-8-3.582-8-8v-24
				C272,276.915,275.582,273.333,280,273.333z"/>
		</g>
		<g>
			<path class="st4" d="M280,273.333h88c4.418,0,8,3.582,8,8v24c0,4.418-3.582,8-8,8h-88c-4.418,0-8-3.582-8-8v-24
				C272,276.915,275.582,273.333,280,273.333z"/>
		</g>
		<g>
			<path class="st1" d="M328,305.333c0,4.418,3.582,8,8,8l0,0h-16c-4.418,0-8-3.582-8-8v-24c0-4.418,3.582-8,8-8h16l0,0
				c-4.418,0-8,3.582-8,8V305.333z"/>
		</g>
		<g>
			<path class="st0" d="M408,305.333c0,4.418-3.582,8-8,8l0,0h16c4.418,0,8-3.582,8-8v-24c0-4.418-3.582-8-8-8h-16l0,0
				c4.418,0,8,3.582,8,8V305.333z"/>
		</g>
		<g>
			<path class="st0" d="M428,273.333h-60c-3.236,0-6.153-1.949-7.391-4.938s-0.554-6.43,1.734-8.718l25.858-25.858
				c10.63-10.631,24.765-16.485,39.799-16.485c15.439,0,28,12.561,28,28S443.439,273.333,428,273.333z M387.313,257.333H428
				c6.617,0,12-5.383,12-12s-5.383-12-12-12c-10.76,0-20.876,4.19-28.485,11.799L387.313,257.333z"/>
		</g>
		<g>
			<path class="st0" d="M368,273.333h-60c-15.439,0-28-12.561-28-28s12.561-28,28-28c15.034,0,29.168,5.854,39.799,16.485
				l25.858,25.858c2.288,2.288,2.973,5.729,1.734,8.718S371.236,273.333,368,273.333z M308,233.333c-6.617,0-12,5.383-12,12
				s5.383,12,12,12h40.687l-12.201-12.201C328.876,237.524,318.76,233.333,308,233.333z"/>
		</g>
		<g>
			<g>
				<path class="st0" d="M408,380.667c-3.313,0-6-2.687-6-6c0-6.545,3.828-12.326,9.751-14.726c3.926-1.59,6.433-5.51,6.238-9.754
					c-0.23-5.013-4.496-9.279-9.509-9.509c-2.768-0.125-5.391,0.851-7.385,2.756c-1.996,1.906-3.095,4.475-3.095,7.233
					c0,3.313-2.687,6-6,6s-6-2.687-6-6c0-6.068,2.417-11.719,6.807-15.911c4.388-4.19,10.145-6.344,16.225-6.065
					c11.229,0.517,20.428,9.717,20.944,20.945c0.429,9.319-5.084,17.93-13.72,21.427c-1.349,0.547-2.256,1.995-2.256,3.604
					C414,377.98,411.313,380.667,408,380.667z"/>
			</g>
			<g>
				<circle class="st0" cx="408" cy="392" r="6.667"/>
			</g>
		</g>
		<g>
			<rect x="320" y="329.333" class="st1" width="16" height="80"/>
		</g>
		<g>
			<rect x="320" y="313.333" class="st0" width="16" height="16"/>
		</g>
	</g>
</g>
</svg>
