<?xml version="1.0" encoding="utf-8"?>
<!-- Generator: Adobe Illustrator 23.0.0, SVG Export Plug-In . SVG Version: 6.00 Build 0)  -->
<svg version="1.1" id="Layer_1" xmlns="http://www.w3.org/2000/svg" xmlns:xlink="http://www.w3.org/1999/xlink" x="0px" y="0px"
	 viewBox="0 0 512 512" style="enable-background:new 0 0 512 512;" xml:space="preserve">
<style type="text/css">
	.st0{fill:#463C4B;}
	.st1{fill:#555A6E;}
	.st2{fill:#289BC3;}
	.st3{fill:#00D2D2;}
	.st4{fill:#D7E6F0;}
	.st5{fill:#FF6E91;}
	.st6{fill:#6E7896;}
	.st7{fill:#FAA037;}
	.st8{fill:#E64178;}
	.st9{fill:#FAB991;}
	.st10{fill:#A5C3DC;}
	.st11{fill:#F0915A;}
	.st12{fill:#FFD241;}
	.st13{fill:#32283C;}
	.st14{fill:#E6E6EB;}
	.st15{fill:#466932;}
	.st16{fill:#78AF41;}
	.st17{fill:#F57328;}
	.st18{fill:#C8733C;}
</style>
<g>
	<g>
		<path class="st1" d="M376,250.667H216v89.463c0,6.556,5.314,11.87,11.87,11.87h0c2.675,0,5.271-0.903,7.368-2.563l50.831-40.241
			c5.819-4.607,14.043-4.607,19.862,0l50.831,40.241c2.097,1.66,4.693,2.563,7.368,2.563l0,0c6.556,0,11.87-5.314,11.87-11.87
			V250.667z"/>
	</g>
	<g>
		<path class="st8" d="M312,272h-32c-70.692,0-128-57.307-128-128v0c0-70.692,57.307-128,128-128h32c70.692,0,128,57.307,128,128v0
			C440,214.693,382.693,272,312,272z"/>
	</g>
	<g>
		<g>
			<path class="st9" d="M288,384h-68.118c-12.73,0-24.939,5.057-33.941,14.059L168,416l40,40l19.314-19.314
				c3.001-3.001,7.07-4.686,11.314-4.686H288c13.255,0,24-10.745,24-24v0C312,394.745,301.255,384,288,384z"/>
		</g>
		<g>
			<path class="st11" d="M403.313,372.686c-6.248-6.249-16.379-6.249-22.627,0L321.373,432h-82.745
				c-4.243,0-8.313,1.686-11.314,4.686L208,456l24,24l16-16h76.687c6.411,0,12.438-2.497,16.97-7.03l61.657-61.657
				C409.562,389.065,409.562,378.935,403.313,372.686z"/>
		</g>
		<g>
			<path class="st11" d="M288,421.333h-5.333c-4.418,0-8-3.582-8-8v-10.667c0-4.418,3.582-8,8-8H288
				c7.364,0,13.333,5.97,13.333,13.333l0,0C301.333,415.364,295.364,421.333,288,421.333z"/>
		</g>
		<g>
			<path class="st1" d="M165.657,413.657L208,456l-40,40H72l82.343-82.343C157.467,410.533,162.533,410.533,165.657,413.657z"/>
		</g>
		<g>
			<path class="st0" d="M208,456l26.343,26.343c3.124,3.124,3.124,8.19,0,11.314L232,496h-64L208,456z"/>
		</g>
	</g>
	<g>
		<circle class="st5" cx="280" cy="144" r="128"/>
	</g>
	<g>
		<circle class="st8" cx="280" cy="144" r="96"/>
	</g>
	<path class="st14" d="M312,128c4.418,0,8-3.582,8-8v-1.538C320,101.665,306.335,88,289.538,88H288V72c0-4.418-3.582-8-8-8
		s-8,3.582-8,8v16h-1.538C253.665,88,240,101.665,240,118.462c0,14.004,9.488,26.156,23.074,29.553l29.972,7.493
		c6.45,1.613,10.955,7.382,10.955,14.03c0,7.974-6.488,14.462-14.462,14.462h-19.076c-7.974,0-14.462-6.488-14.462-14.462V168
		c0-4.418-3.582-8-8-8s-8,3.582-8,8v1.538C240,186.335,253.665,200,270.462,200H272v16c0,4.418,3.582,8,8,8s8-3.582,8-8v-16h1.538
		C306.335,200,320,186.335,320,169.538c0-14.004-9.488-26.156-23.074-29.553l-29.972-7.493c-6.45-1.613-10.955-7.382-10.955-14.03
		c0-7.974,6.488-14.462,14.462-14.462h19.076c7.974,0,14.462,6.488,14.462,14.462V120C304,124.418,307.582,128,312,128z"/>
</g>
</svg>
