<?xml version="1.0" encoding="utf-8"?>
<!-- Generator: Adobe Illustrator 23.0.0, SVG Export Plug-In . SVG Version: 6.00 Build 0)  -->
<svg version="1.1" id="Layer_1" xmlns="http://www.w3.org/2000/svg" xmlns:xlink="http://www.w3.org/1999/xlink" x="0px" y="0px"
	 viewBox="0 0 512 512" style="enable-background:new 0 0 512 512;" xml:space="preserve">
<style type="text/css">
	.st0{fill:#463C4B;}
	.st1{fill:#555A6E;}
	.st2{fill:#289BC3;}
	.st3{fill:#00D2D2;}
	.st4{fill:#D7E6F0;}
	.st5{fill:#FF6E91;}
	.st6{fill:#6E7896;}
	.st7{fill:#FAA037;}
	.st8{fill:#E64178;}
	.st9{fill:#FAB991;}
	.st10{fill:#A5C3DC;}
	.st11{fill:#F0915A;}
	.st12{fill:#FFD241;}
	.st13{fill:#32283C;}
	.st14{fill:#E6E6EB;}
	.st15{fill:#466932;}
	.st16{fill:#78AF41;}
	.st17{fill:#F57328;}
	.st18{fill:#C8733C;}
</style>
<g>
	<g>
		<path class="st5" d="M480,200v-16c0-4.418,3.582-8,8-8l0,0c4.418,0,8-3.582,8-8v-16c0-4.418-3.582-8-8-8l0,0c-4.418,0-8-3.582-8-8
			v-16c0-4.418,3.582-8,8-8l0,0c4.418,0,8-3.582,8-8V88c0-4.418-3.582-8-8-8H136.563c-5.35,0-10.346,2.674-13.313,7.125L117.333,96
			h-10.667l-5.917-8.875C97.783,82.674,92.787,80,87.437,80H24c-4.418,0-8,3.582-8,8v16c0,4.418,3.582,8,8,8h0c4.418,0,8,3.582,8,8
			v16c0,4.418-3.582,8-8,8h0c-4.418,0-8,3.582-8,8v16c0,4.418,3.582,8,8,8h0c4.418,0,8,3.582,8,8v16c0,4.418-3.582,8-8,8h0
			c-4.418,0-8,3.582-8,8v16c0,4.418,3.582,8,8,8h63.437c5.35,0,10.346-2.674,13.313-7.125l5.917-8.875h10.667l5.917,8.875
			c2.968,4.451,7.963,7.125,13.313,7.125H488c4.418,0,8-3.582,8-8v-16c0-4.418-3.582-8-8-8l0,0C483.582,208,480,204.418,480,200z"/>
	</g>
	<g>
		<g>
			<path class="st4" d="M163,198c-12.131,0-22-9.869-22-22v-32c0-12.131,9.869-22,22-22s22,9.869,22,22c0,3.314-2.687,6-6,6
				s-6-2.686-6-6c0-5.514-4.486-10-10-10s-10,4.486-10,10v32c0,5.514,4.486,10,10,10s10-4.486,10-10c0-3.314,2.687-6,6-6
				s6,2.686,6,6C185,188.131,175.131,198,163,198z"/>
		</g>
		<g>
			<path class="st4" d="M216.333,198c-12.131,0-22-9.869-22-22v-32c0-12.131,9.869-22,22-22s22,9.869,22,22v32
				C238.333,188.131,228.464,198,216.333,198z M216.333,134c-5.514,0-10,4.486-10,10v32c0,5.514,4.486,10,10,10s10-4.486,10-10v-32
				C226.333,138.486,221.847,134,216.333,134z"/>
		</g>
		<g>
			<path class="st4" d="M379,198c-12.131,0-22-9.869-22-22v-32c0-12.131,9.869-22,22-22s22,9.869,22,22v32
				C401,188.131,391.131,198,379,198z M379,134c-5.514,0-10,4.486-10,10v32c0,5.514,4.486,10,10,10s10-4.486,10-10v-32
				C389,138.486,384.514,134,379,134z"/>
		</g>
		<g>
			<path class="st4" d="M272.333,198c-12.131,0-22-9.869-22-22v-48c0-3.314,2.687-6,6-6s6,2.686,6,6v48c0,5.514,4.486,10,10,10
				s10-4.486,10-10v-48c0-3.314,2.687-6,6-6s6,2.686,6,6v48C294.333,188.131,284.464,198,272.333,198z"/>
		</g>
		<g>
			<path class="st4" d="M312.333,198c-3.313,0-6-2.686-6-6v-64c0-3.314,2.687-6,6-6h16c12.131,0,22,9.869,22,22s-9.869,22-22,22h-10
				v26C318.333,195.314,315.646,198,312.333,198z M318.333,154h10c5.514,0,10-4.486,10-10s-4.486-10-10-10h-10V154z"/>
		</g>
		<g>
			<path class="st4" d="M450.999,198c-2.233,0-4.333-1.251-5.365-3.317L425,153.417V192c0,3.314-2.687,6-6,6s-6-2.686-6-6v-64
				c0-2.783,1.913-5.2,4.621-5.84c2.714-0.64,5.502,0.667,6.745,3.156L445,166.583V128c0-3.314,2.687-6,6-6s6,2.686,6,6v64
				c0,2.783-1.913,5.2-4.621,5.84C451.918,197.948,451.456,198,450.999,198z"/>
		</g>
	</g>
	<path class="st3" d="M88,150c3.313,0,6-2.686,6-6v-1.167c0-9.821-6.84-18.056-16-20.244V120c0-3.314-2.687-6-6-6s-6,2.686-6,6
		v2.589c-9.16,2.188-16,10.423-16,20.244c0,7.942,4.413,15.082,11.516,18.633l15.603,7.801c3.011,1.506,4.882,4.533,4.882,7.9
		c0,4.87-3.963,8.833-8.833,8.833h-2.334c-4.87,0-8.833-3.962-8.833-8.833V176c0-3.314-2.687-6-6-6s-6,2.686-6,6v1.167
		c0,9.821,6.84,18.056,16,20.244V200c0,3.314,2.687,6,6,6s6-2.686,6-6v-2.589c9.16-2.188,16-10.423,16-20.244
		c0-7.942-4.413-15.082-11.516-18.633l-15.603-7.801c-3.011-1.506-4.882-4.533-4.882-7.9c0-4.87,3.963-8.833,8.833-8.833h2.334
		c4.87,0,8.833,3.962,8.833,8.833V144C82,147.314,84.687,150,88,150z"/>
	<g>
		<path class="st8" d="M112,104L112,104c-2.946,0-5.333-2.388-5.333-5.333V96h10.667v2.667C117.333,101.612,114.946,104,112,104z"/>
	</g>
	<g>
		<path class="st8" d="M117.333,224h-10.667v-2.667c0-2.945,2.388-5.333,5.333-5.333h0c2.945,0,5.333,2.388,5.333,5.333V224z"/>
	</g>
	<g>
		<path class="st8" d="M112,200L112,200c-2.946,0-5.333-2.388-5.333-5.333v-5.333c0-2.945,2.388-5.333,5.333-5.333h0
			c2.945,0,5.333,2.388,5.333,5.333v5.333C117.333,197.612,114.946,200,112,200z"/>
	</g>
	<g>
		<path class="st8" d="M112,136L112,136c-2.946,0-5.333-2.388-5.333-5.333v-5.333c0-2.945,2.388-5.333,5.333-5.333h0
			c2.945,0,5.333,2.388,5.333,5.333v5.333C117.333,133.612,114.946,136,112,136z"/>
	</g>
	<g>
		<path class="st8" d="M112,168L112,168c-2.946,0-5.333-2.388-5.333-5.333v-5.333c0-2.945,2.388-5.333,5.333-5.333h0
			c2.945,0,5.333,2.388,5.333,5.333v5.333C117.333,165.612,114.946,168,112,168z"/>
	</g>
	<g>
		<path class="st3" d="M480,392v-16c0-4.418,3.582-8,8-8l0,0c4.418,0,8-3.582,8-8v-16c0-4.418-3.582-8-8-8l0,0c-4.418,0-8-3.582-8-8
			v-16c0-4.418,3.582-8,8-8l0,0c4.418,0,8-3.582,8-8v-16c0-4.418-3.582-8-8-8H136.563c-5.35,0-10.346,2.674-13.313,7.125
			L117.333,288h-10.667l-5.917-8.875C97.783,274.674,92.787,272,87.437,272H24c-4.418,0-8,3.582-8,8v16c0,4.418,3.582,8,8,8h0
			c4.418,0,8,3.582,8,8v16c0,4.418-3.582,8-8,8h0c-4.418,0-8,3.582-8,8v16c0,4.418,3.582,8,8,8h0c4.418,0,8,3.582,8,8v16
			c0,4.418-3.582,8-8,8h0c-4.418,0-8,3.582-8,8v16c0,4.418,3.582,8,8,8h63.437c5.35,0,10.346-2.674,13.313-7.125l5.917-8.875h10.667
			l5.917,8.875c2.968,4.451,7.963,7.125,13.313,7.125H488c4.418,0,8-3.582,8-8v-16c0-4.418-3.582-8-8-8l0,0
			C483.582,400,480,396.418,480,392z"/>
	</g>
	<g>
		<path class="st2" d="M112,296L112,296c-2.946,0-5.333-2.388-5.333-5.333V288h10.667v2.667C117.333,293.612,114.946,296,112,296z"
			/>
	</g>
	<g>
		<path class="st2" d="M117.333,416h-10.667v-2.667c0-2.945,2.388-5.333,5.333-5.333h0c2.945,0,5.333,2.388,5.333,5.333V416z"/>
	</g>
	<g>
		<path class="st2" d="M112,392L112,392c-2.946,0-5.333-2.388-5.333-5.333v-5.333c0-2.945,2.388-5.333,5.333-5.333h0
			c2.945,0,5.333,2.388,5.333,5.333v5.333C117.333,389.612,114.946,392,112,392z"/>
	</g>
	<g>
		<path class="st2" d="M112,328L112,328c-2.946,0-5.333-2.388-5.333-5.333v-5.333c0-2.945,2.388-5.333,5.333-5.333h0
			c2.945,0,5.333,2.388,5.333,5.333v5.333C117.333,325.612,114.946,328,112,328z"/>
	</g>
	<g>
		<path class="st2" d="M112,360L112,360c-2.946,0-5.333-2.388-5.333-5.333v-5.333c0-2.945,2.388-5.333,5.333-5.333h0
			c2.945,0,5.333,2.388,5.333,5.333v5.333C117.333,357.612,114.946,360,112,360z"/>
	</g>
	<path class="st4" d="M88,342c3.313,0,6-2.686,6-6v-1.167c0-9.821-6.84-18.056-16-20.244V312c0-3.314-2.687-6-6-6s-6,2.686-6,6
		v2.589c-9.16,2.188-16,10.423-16,20.244c0,7.942,4.413,15.082,11.516,18.633l15.603,7.801c3.011,1.506,4.882,4.533,4.882,7.9
		c0,4.87-3.963,8.833-8.833,8.833h-2.334c-4.87,0-8.833-3.962-8.833-8.833V368c0-3.314-2.687-6-6-6s-6,2.686-6,6v1.167
		c0,9.821,6.84,18.056,16,20.244V392c0,3.314,2.687,6,6,6s6-2.686,6-6v-2.589c9.16-2.188,16-10.423,16-20.244
		c0-7.942-4.413-15.082-11.516-18.633l-15.603-7.801c-3.011-1.506-4.882-4.533-4.882-7.9c0-4.87,3.963-8.833,8.833-8.833h2.334
		c4.87,0,8.833,3.962,8.833,8.833V336C82,339.314,84.687,342,88,342z"/>
	<g>
		<g>
			<path class="st5" d="M284,350c-9.925,0-18-8.075-18-18s8.075-18,18-18s18,8.075,18,18S293.925,350,284,350z M284,326
				c-3.309,0-6,2.692-6,6s2.691,6,6,6s6-2.692,6-6S287.309,326,284,326z"/>
		</g>
		<g>
			<path class="st5" d="M324,390c-9.925,0-18-8.075-18-18s8.075-18,18-18s18,8.075,18,18S333.925,390,324,390z M324,366
				c-3.309,0-6,2.692-6,6s2.691,6,6,6s6-2.692,6-6S327.309,366,324,366z"/>
		</g>
		<g>
			<path class="st5" d="M279.995,390c-1.253,0-2.516-0.391-3.595-1.2c-2.651-1.988-3.188-5.749-1.2-8.4l48-64
				c1.988-2.651,5.749-3.188,8.399-1.2c2.651,1.988,3.188,5.749,1.2,8.4l-48,64C283.621,389.172,281.819,390,279.995,390z"/>
		</g>
		<g>
			<path class="st2" d="M240,358h-96c-3.313,0-6-2.686-6-6s2.687-6,6-6h96c3.313,0,6,2.686,6,6S243.313,358,240,358z"/>
		</g>
		<g>
			<path class="st2" d="M464,358h-96c-3.313,0-6-2.686-6-6s2.687-6,6-6h96c3.313,0,6,2.686,6,6S467.313,358,464,358z"/>
		</g>
	</g>
</g>
</svg>
