<?xml version="1.0" encoding="utf-8"?>
<!-- Generator: Adobe Illustrator 23.0.0, SVG Export Plug-In . SVG Version: 6.00 Build 0)  -->
<svg version="1.1" id="Layer_1" xmlns="http://www.w3.org/2000/svg" xmlns:xlink="http://www.w3.org/1999/xlink" x="0px" y="0px"
	 viewBox="0 0 512 512" style="enable-background:new 0 0 512 512;" xml:space="preserve">
<style type="text/css">
	.st0{fill:#463C4B;}
	.st1{fill:#555A6E;}
	.st2{fill:#289BC3;}
	.st3{fill:#00D2D2;}
	.st4{fill:#D7E6F0;}
	.st5{fill:#FF6E91;}
	.st6{fill:#6E7896;}
	.st7{fill:#FAA037;}
	.st8{fill:#E64178;}
	.st9{fill:#FAB991;}
	.st10{fill:#A5C3DC;}
	.st11{fill:#F0915A;}
	.st12{fill:#FFD241;}
	.st13{fill:#32283C;}
	.st14{fill:#E6E6EB;}
	.st15{fill:#466932;}
	.st16{fill:#78AF41;}
	.st17{fill:#F57328;}
	.st18{fill:#C8733C;}
</style>
<g>
	<g>
		<path class="st9" d="M176,16L176,16C114.144,16,64,66.145,64,128v192h112v-32h64c26.51,0,48-21.49,48-48V128
			C288,66.145,237.856,16,176,16z"/>
	</g>
	<g>
		<path class="st7" d="M240,320H64c-26.51,0-48,21.49-48,48v128h272V368C288,341.49,266.51,320,240,320z"/>
	</g>
	<g>
		<path class="st12" d="M64,320L64,320c-26.51,0-48,21.49-48,48v128h96V368C112,341.49,90.51,320,64,320z"/>
	</g>
	<g>
		<path class="st11" d="M176,288H96c-17.673,0-32,14.327-32,32v0h112V288z"/>
	</g>
	<g>
		<circle class="st0" cx="256" cy="160" r="10.667"/>
	</g>
	<g>
		<circle class="st0" cx="213.333" cy="160" r="10.667"/>
	</g>
	<g>
		<path class="st0" d="M176,16h-16C98.144,16,48,66.145,48,128v112c0,17.673,14.327,32,32,32h32c17.673,0,32-14.327,32-32v-40h0
			c17.673,0,32-14.327,32-32v-8c0-17.673,14.327-32,32-32h80l0,0C288,66.145,237.856,16,176,16z"/>
	</g>
	<g>
		<path class="st11" d="M144,160v80c-22.091,0-40-17.909-40-40C104,177.909,121.908,160,144,160z"/>
	</g>
	<g>
		<path class="st11" d="M248,224L248,224c-8.837,0-16-7.163-16-16v-34.667h0c17.673,0,32,14.327,32,32V208
			C264,216.837,256.836,224,248,224z"/>
	</g>
	<g>
		<path class="st0" d="M224,242.667h32v0c0,7.364-5.97,13.333-13.333,13.333h-5.333C229.969,256,224,250.03,224,242.667L224,242.667
			z"/>
	</g>
	<g>
		<path class="st8" d="M240,320h-32c26.51,0,48,21.49,48,48v48H144v-48c0-26.51-21.49-48-48-48H64c26.51,0,48,21.49,48,48v128h176
			V368C288,341.49,266.51,320,240,320z"/>
	</g>
	<g>
		<path class="st5" d="M288,128H48v0C48,66.144,98.144,16,160,16h16C237.856,16,288,66.144,288,128L288,128z"/>
	</g>
	<g>
		<path class="st8" d="M168,16L168,16c-13.255,0-24,10.745-24,24v88h144v0c0-61.856-50.144-112-112-112H168z"/>
	</g>
	<g>
		<path class="st11" d="M491.313,396.686c-6.248-6.249-16.379-6.248-22.627,0l-38.627,38.627c-3.022,3.022-7.041,4.687-11.314,4.687
			H416l0,0h-40c-4.418,0-8,3.582-8,8v48h32v-8c0-8.837,7.164-16,16-16h2.745c12.82,0,24.874-4.993,33.941-14.059l38.627-38.627
			C497.562,413.065,497.562,402.935,491.313,396.686z"/>
	</g>
	<g>
		<path class="st9" d="M404,400h-36c-17.673,0-32,14.327-32,32v64h32v-48c0-4.418,3.582-8,8-8h28c11.046,0,20-8.954,20-20l0,0
			C424,408.954,415.046,400,404,400z"/>
	</g>
	<g>
		<rect x="16" y="464" class="st9" width="96" height="32"/>
	</g>
	<g>
		<rect x="16" y="432" class="st7" width="96" height="32"/>
	</g>
	<g>
		<path class="st8" d="M336,96L336,96c8.837,0,16,7.163,16,16v0c0,8.837-7.163,16-16,16h-64h0c8.837,0,16-7.163,16-16v0
			c0-8.837,7.163-16,16-16H336z"/>
	</g>
	<g>
		<path class="st5" d="M288,112c0-8.837,7.163-16,16-16l0,0H176c-17.673,0-32,14.327-32,32v0h128C280.836,128,288,120.837,288,112
			L288,112z"/>
	</g>
	<g>
		<path class="st8" d="M480,368H336c-8.837,0-16-7.163-16-16V240c0-8.837,7.163-16,16-16h144c8.837,0,16,7.163,16,16v112
			C496,360.837,488.836,368,480,368z"/>
	</g>
	<g>
		<path class="st5" d="M432,368h-96c-8.837,0-16-7.163-16-16V240c0-8.837,7.163-16,16-16h96c8.837,0,16,7.163,16,16v112
			C448,360.837,440.836,368,432,368z"/>
	</g>
	<g>
		<path class="st4" d="M392,256h-16c-4.418,0-8-3.582-8-8v-24h32v24C400,252.418,396.418,256,392,256z"/>
	</g>
	<g>
		<path class="st8" d="M408,352h16c4.418,0,8-3.582,8-8v-8c0-4.418-3.582-8-8-8h-16c-4.418,0-8,3.582-8,8v8
			C400,348.418,403.582,352,408,352z"/>
	</g>
</g>
</svg>
