<?xml version="1.0" encoding="utf-8"?>
<!-- Generator: Adobe Illustrator 23.0.0, SVG Export Plug-In . SVG Version: 6.00 Build 0)  -->
<svg version="1.1" id="Layer_1" xmlns="http://www.w3.org/2000/svg" xmlns:xlink="http://www.w3.org/1999/xlink" x="0px" y="0px"
	 viewBox="0 0 512 512" style="enable-background:new 0 0 512 512;" xml:space="preserve">
<style type="text/css">
	.st0{fill:#463C4B;}
	.st1{fill:#555A6E;}
	.st2{fill:#289BC3;}
	.st3{fill:#00D2D2;}
	.st4{fill:#D7E6F0;}
	.st5{fill:#FF6E91;}
	.st6{fill:#6E7896;}
	.st7{fill:#FAA037;}
	.st8{fill:#E64178;}
	.st9{fill:#FAB991;}
	.st10{fill:#A5C3DC;}
	.st11{fill:#F0915A;}
	.st12{fill:#FFD241;}
	.st13{fill:#32283C;}
	.st14{fill:#E6E6EB;}
	.st15{fill:#466932;}
	.st16{fill:#78AF41;}
	.st17{fill:#F57328;}
	.st18{fill:#C8733C;}
</style>
<g>
	<g>
		<g>
			<path class="st10" d="M328,152c-4.418,0-8-3.582-8-8V96c0-30.878-25.122-56-56-56s-56,25.121-56,56v48c0,4.418-3.582,8-8,8
				s-8-3.582-8-8V96c0-39.701,32.299-72,72-72s72,32.299,72,72v48C336,148.418,332.418,152,328,152z"/>
		</g>
		<g>
			<path class="st0" d="M328,96h64c8.837,0,16,7.163,16,16v360c0,8.837-7.163,16-16,16h-96h0c8.837,0,16-7.163,16-16V112
				C312,103.163,319.163,96,328,96z"/>
		</g>
		<g>
			<path class="st1" d="M296,96H40c-8.837,0-16,7.163-16,16v360c0,8.837,7.163,16,16,16h256c8.837,0,16-7.163,16-16V112
				C312,103.163,304.837,96,296,96z"/>
		</g>
		<g>
			<circle class="st13" cx="104" cy="144" r="24"/>
		</g>
		<g>
			<circle class="st13" cx="232" cy="144" r="24"/>
		</g>
		<g>
			<path class="st4" d="M232,152c-4.418,0-8-3.582-8-8V96c0-30.878-25.122-56-56-56s-56,25.121-56,56v48c0,4.418-3.582,8-8,8
				s-8-3.582-8-8V96c0-39.701,32.299-72,72-72s72,32.299,72,72v48C240,148.418,236.418,152,232,152z"/>
		</g>
	</g>
	<g>
		<g>
			<path class="st10" d="M392,248v-16c8.822,0,16-7.178,16-16s-7.178-16-16-16v-16c17.645,0,32,14.355,32,32S409.645,248,392,248z"
				/>
		</g>
		<g>
			<path class="st10" d="M280,248v-16c8.822,0,16-7.178,16-16s-7.178-16-16-16v-16c17.645,0,32,14.355,32,32S297.645,248,280,248z"
				/>
		</g>
		<g>
			<path class="st10" d="M248,440h208c17.673,0,32-14.327,32-32V264H216v144C216,425.673,230.327,440,248,440z"/>
		</g>
		<g>
			<path class="st4" d="M424,440H248c-17.673,0-32-14.327-32-32V264h240v144C456,425.673,441.673,440,424,440z"/>
		</g>
		<g>
			<path class="st2" d="M232,216h240c8.837,0,16,7.163,16,16v32H216v-32C216,223.163,223.163,216,232,216z"/>
		</g>
		<g>
			<path class="st3" d="M440,216H232c-8.837,0-16,7.163-16,16v32h240v-32C456,223.163,448.837,216,440,216z"/>
		</g>
		<g>
			<path class="st4" d="M280,248c-17.645,0-32-14.355-32-32s14.355-32,32-32c4.418,0,8,3.582,8,8s-3.582,8-8,8
				c-8.822,0-16,7.178-16,16s7.178,16,16,16c4.418,0,8,3.582,8,8S284.418,248,280,248z"/>
		</g>
		<g>
			<path class="st4" d="M392,248c-17.645,0-32-14.355-32-32s14.355-32,32-32c4.418,0,8,3.582,8,8s-3.582,8-8,8
				c-8.822,0-16,7.178-16,16s7.178,16,16,16c4.418,0,8,3.582,8,8S396.418,248,392,248z"/>
		</g>
	</g>
	<g>
		<g>
			<path class="st5" d="M296,398c-3.313,0-6-2.686-6-6v-59.405l-12.117,60.582C277.323,395.981,274.86,398,272,398
				s-5.323-2.019-5.883-4.823L254,332.595V392c0,3.314-2.687,6-6,6s-6-2.686-6-6v-75.604c0-5.732,4.664-10.396,10.396-10.396
				c4.939,0,9.227,3.515,10.194,8.358l9.41,47.048l9.41-47.049c0.967-4.842,5.255-8.357,10.194-8.357
				c5.732,0,10.396,4.664,10.396,10.396V392C302,395.314,299.313,398,296,398z"/>
		</g>
		<g>
			<path class="st5" d="M344,398c-12.131,0-22-9.869-22-22v-48c0-12.044,9.798-21.912,21.841-22c0.054,0,0.109-0.001,0.163-0.001
				c5.846,0,11.343,2.265,15.496,6.388c4.191,4.161,6.5,9.706,6.5,15.612v48C366,388.131,356.131,398,344,398z M344.002,318
				c-0.024,0-0.049,0-0.074,0c-5.474,0.04-9.928,4.525-9.928,10v48c0,5.514,4.486,10,10,10s10-4.486,10-10v-48
				c0-2.685-1.049-5.205-2.955-7.097C349.158,319.029,346.659,318,344.002,318z"/>
		</g>
		<g>
			<path class="st5" d="M423.997,398.001c-2.413,0-4.642-1.46-5.567-3.77L398,343.229V392c0,3.314-2.687,6-6,6s-6-2.686-6-6v-79.885
				c0-2.876,2.04-5.347,4.864-5.891c2.828-0.544,5.637,0.991,6.706,3.66L418,360.886v-48.771c0-3.314,2.687-6,6-6s6,2.686,6,6V392
				c0,2.876-2.04,5.347-4.864,5.891C424.755,397.965,424.374,398.001,423.997,398.001z"/>
		</g>
	</g>
</g>
</svg>
