<?xml version="1.0" encoding="utf-8"?>
<!-- Generator: Adobe Illustrator 23.0.0, SVG Export Plug-In . SVG Version: 6.00 Build 0)  -->
<svg version="1.1" id="Layer_1" xmlns="http://www.w3.org/2000/svg" xmlns:xlink="http://www.w3.org/1999/xlink" x="0px" y="0px"
	 viewBox="0 0 512 512" style="enable-background:new 0 0 512 512;" xml:space="preserve">
<style type="text/css">
	.st0{fill:#463C4B;}
	.st1{fill:#555A6E;}
	.st2{fill:#289BC3;}
	.st3{fill:#00D2D2;}
	.st4{fill:#D7E6F0;}
	.st5{fill:#FF6E91;}
	.st6{fill:#6E7896;}
	.st7{fill:#FAA037;}
	.st8{fill:#E64178;}
	.st9{fill:#FAB991;}
	.st10{fill:#A5C3DC;}
	.st11{fill:#F0915A;}
	.st12{fill:#FFD241;}
	.st13{fill:#32283C;}
	.st14{fill:#E6E6EB;}
	.st15{fill:#466932;}
	.st16{fill:#78AF41;}
	.st17{fill:#F57328;}
	.st18{fill:#C8733C;}
</style>
<g>
	<g>
		<g>
			<path class="st9" d="M248,368h-68.118c-12.73,0-24.939,5.057-33.941,14.059L128,400l40,40l19.314-19.314
				c3.001-3.001,7.07-4.686,11.314-4.686H248c13.255,0,24-10.745,24-24v0C272,378.745,261.255,368,248,368z"/>
		</g>
		<g>
			<path class="st11" d="M363.313,356.686c-6.248-6.249-16.379-6.249-22.627,0L281.373,416h-82.745
				c-4.243,0-8.313,1.686-11.314,4.686L168,440l24,24l16-16h76.687c6.411,0,12.438-2.497,16.97-7.03l61.657-61.657
				C369.562,373.065,369.562,362.935,363.313,356.686z"/>
		</g>
		<g>
			<path class="st11" d="M248,405.333h-5.333c-4.418,0-8-3.582-8-8v-10.667c0-4.418,3.582-8,8-8H248
				c7.364,0,13.333,5.97,13.333,13.333l0,0C261.333,399.364,255.364,405.333,248,405.333z"/>
		</g>
		<g>
			<path class="st1" d="M125.657,397.657L168,440l-40,40H32l82.343-82.343C117.467,394.533,122.533,394.533,125.657,397.657z"/>
		</g>
		<g>
			<path class="st0" d="M168,440l26.343,26.343c3.124,3.124,3.124,8.19,0,11.314L192,480h-64L168,440z"/>
		</g>
	</g>
	<g>
		<path class="st8" d="M80,368h384c8.837,0,16-7.163,16-16V48c0-8.837-7.163-16-16-16H80c-8.837,0-16,7.163-16,16v304
			C64,360.837,71.163,368,80,368z"/>
	</g>
	<g>
		<path class="st5" d="M336,368H80c-8.837,0-16-7.163-16-16V48c0-8.837,7.163-16,16-16h256c8.837,0,16,7.163,16,16v304
			C352,360.837,344.837,368,336,368z"/>
	</g>
	<g>
		<path class="st14" d="M248,96h-80c-4.418,0-8-3.582-8-8V32h96v56C256,92.418,252.418,96,248,96z"/>
	</g>
	<g>
		<path class="st8" d="M312,336h-48c-4.418,0-8-3.582-8-8v-32c0-4.418,3.582-8,8-8h48c4.418,0,8,3.582,8,8v32
			C320,332.418,316.418,336,312,336z"/>
	</g>
</g>
</svg>
