<?xml version="1.0" encoding="utf-8"?>
<!-- Generator: Adobe Illustrator 23.0.0, SVG Export Plug-In . SVG Version: 6.00 Build 0)  -->
<svg version="1.1" id="Layer_1" xmlns="http://www.w3.org/2000/svg" xmlns:xlink="http://www.w3.org/1999/xlink" x="0px" y="0px"
	 viewBox="0 0 512 512" style="enable-background:new 0 0 512 512;" xml:space="preserve">
<style type="text/css">
	.st0{fill:#463C4B;}
	.st1{fill:#555A6E;}
	.st2{fill:#289BC3;}
	.st3{fill:#00D2D2;}
	.st4{fill:#D7E6F0;}
	.st5{fill:#FF6E91;}
	.st6{fill:#6E7896;}
	.st7{fill:#FAA037;}
	.st8{fill:#E64178;}
	.st9{fill:#FAB991;}
	.st10{fill:#A5C3DC;}
	.st11{fill:#F0915A;}
	.st12{fill:#FFD241;}
	.st13{fill:#32283C;}
	.st14{fill:#E6E6EB;}
	.st15{fill:#466932;}
	.st16{fill:#78AF41;}
	.st17{fill:#F57328;}
	.st18{fill:#C8733C;}
</style>
<g>
	<g>
		<path class="st8" d="M164,168c-4.418,0-8-3.582-8-8v-32c0-4.418,3.582-8,8-8s8,3.582,8,8v32C172,164.418,168.418,168,164,168z"/>
	</g>
	<g>
		<path class="st7" d="M68,128h192V16H148c-44.183,0-80,35.817-80,80V128z"/>
	</g>
	<g>
		<path class="st1" d="M68,128L68,128c0-17.673,14.327-32,32-32h0c26.51,0,48-21.49,48-48V16h0c-44.183,0-80,35.817-80,80V128z"/>
	</g>
	<g>
		<path class="st0" d="M452,352h-64c-70.692,0-128-57.308-128-128V16h64c35.346,0,64,28.654,64,64v80h0c35.346,0,64,28.654,64,64
			V352z"/>
	</g>
	<g>
		<path class="st1" d="M452,352L452,352l0-128c0-35.346-28.654-64-64-64h0c-35.346,0-64,28.654-64,64v0
			C324,294.693,381.307,352,452,352z"/>
	</g>
	<g>
		<path class="st4" d="M260,160L260,160l0-144h64v80C324,131.346,295.346,160,260,160z"/>
	</g>
	<g>
		<path class="st12" d="M292,80L292,80c-17.673,0-32-14.327-32-32V16h64v32C324,65.673,309.673,80,292,80z"/>
	</g>
	<g>
		<path class="st0" d="M420,496L420,496c17.673,0,32-14.327,32-32V352h-64v112C388,481.673,402.327,496,420,496z"/>
	</g>
	<g>
		<path class="st2" d="M162.224,464H380c8.837,0,16-7.163,16-16V288c0-8.837-7.163-16-16-16H162.224
			c-4.003,0-7.861,1.501-10.812,4.206l-85.515,78.389C62.139,358.039,60,362.902,60,368l0,0c0,5.098,2.139,9.961,5.897,13.406
			l85.515,78.389C154.363,462.499,158.221,464,162.224,464z"/>
	</g>
	<g>
		<path class="st3" d="M162.224,464H348c8.837,0,16-7.163,16-16V288c0-8.837-7.163-16-16-16H162.224
			c-4.003,0-7.861,1.501-10.812,4.206l-85.515,78.389C62.139,358.039,60,362.902,60,368l0,0c0,5.098,2.139,9.961,5.897,13.406
			l85.515,78.389C154.363,462.499,158.221,464,162.224,464z"/>
	</g>
	<g>
		<circle class="st2" cx="108" cy="368" r="21.333"/>
	</g>
	<path class="st5" d="M279.681,350.92c4.418,0,8-3.582,8-8v-1.538c0-16.797-13.665-30.462-30.462-30.462h-1.538v-16
		c0-4.418-3.582-8-8-8s-8,3.582-8,8v16h-1.538c-16.797,0-30.462,13.665-30.462,30.462c0,14.004,9.488,26.156,23.074,29.553
		l29.972,7.493c6.449,1.612,10.954,7.382,10.954,14.03c0,7.975-6.487,14.462-14.462,14.462h-19.076
		c-7.975,0-14.462-6.488-14.462-14.462v-1.538c0-4.418-3.582-8-8-8s-8,3.582-8,8v1.538c0,16.797,13.665,30.462,30.462,30.462h1.538
		v16c0,4.418,3.582,8,8,8s8-3.582,8-8v-16h1.538c16.797,0,30.462-13.666,30.462-30.462c0-14.003-9.488-26.156-23.073-29.553
		l-29.972-7.493c-6.45-1.612-10.955-7.382-10.955-14.03c0-7.974,6.487-14.462,14.462-14.462h19.076
		c7.975,0,14.462,6.488,14.462,14.462v1.538C271.681,347.339,275.263,350.92,279.681,350.92z"/>
	<g>
		<circle class="st3" cx="292" cy="48" r="18.667"/>
	</g>
	<g>
		<circle class="st0" cx="292" cy="48" r="10.667"/>
	</g>
	<g>
		<path class="st17" d="M68,128L68,128c0-17.673,14.327-32,32-32h160v32H68z"/>
	</g>
	<g>
		<path class="st5" d="M108,376c-4.418,0-8-3.582-8-8V96c0-4.418,3.582-8,8-8s8,3.582,8,8v272C116,372.418,112.418,376,108,376z"/>
	</g>
</g>
</svg>
