<?xml version="1.0" encoding="utf-8"?>
<!-- Generator: Adobe Illustrator 23.0.0, SVG Export Plug-In . SVG Version: 6.00 Build 0)  -->
<svg version="1.1" id="Layer_1" xmlns="http://www.w3.org/2000/svg" xmlns:xlink="http://www.w3.org/1999/xlink" x="0px" y="0px"
	 viewBox="0 0 512 512" style="enable-background:new 0 0 512 512;" xml:space="preserve">
<style type="text/css">
	.st0{fill:#463C4B;}
	.st1{fill:#555A6E;}
	.st2{fill:#289BC3;}
	.st3{fill:#00D2D2;}
	.st4{fill:#D7E6F0;}
	.st5{fill:#FF6E91;}
	.st6{fill:#6E7896;}
	.st7{fill:#FAA037;}
	.st8{fill:#E64178;}
	.st9{fill:#FAB991;}
	.st10{fill:#A5C3DC;}
	.st11{fill:#F0915A;}
	.st12{fill:#FFD241;}
	.st13{fill:#32283C;}
	.st14{fill:#E6E6EB;}
	.st15{fill:#466932;}
	.st16{fill:#78AF41;}
	.st17{fill:#F57328;}
	.st18{fill:#C8733C;}
</style>
<g>
	<g>
		<path class="st10" d="M312,472H72c-17.673,0-32-14.327-32-32V72c0-17.673,14.327-32,32-32h240c17.673,0,32,14.327,32,32v368
			C344,457.673,329.673,472,312,472z"/>
	</g>
	<g>
		<path class="st4" d="M264,472H72c-17.673,0-32-14.327-32-32V72c0-17.673,14.327-32,32-32h192c17.673,0,32,14.327,32,32v368
			C296,457.673,281.673,472,264,472z"/>
	</g>
	<g>
		<path class="st2" d="M264,440H88c-8.837,0-16-7.163-16-16V120c0-8.837,7.163-16,16-16h176V440z"/>
	</g>
	<g>
		<path class="st1" d="M192,80h-48c-4.418,0-8-3.582-8-8v0c0-4.418,3.582-8,8-8h48c4.418,0,8,3.582,8,8v0
			C200,76.418,196.418,80,192,80z"/>
	</g>
	<g>
		<path class="st3" d="M296,408h88c34.366-34.366,53.634-53.634,88-88V88c0-8.837-7.163-16-16-16H296c-17.673,0-32,14.327-32,32v336
			v0C264,422.327,278.327,408,296,408z"/>
	</g>
	<g>
		<g>
			<g>
				<path class="st4" d="M304,344h128c4.418,0,8-3.582,8-8l0,0c0-4.418-3.582-8-8-8H304c-4.418,0-8,3.582-8,8l0,0
					C296,340.418,299.582,344,304,344z"/>
			</g>
		</g>
		<g>
			<g>
				<path class="st4" d="M304,296h128c4.418,0,8-3.582,8-8l0,0c0-4.418-3.582-8-8-8H304c-4.418,0-8,3.582-8,8l0,0
					C296,292.418,299.582,296,304,296z"/>
			</g>
		</g>
		<g>
			<g>
				<path class="st4" d="M304,248h128c4.418,0,8-3.582,8-8v0c0-4.418-3.582-8-8-8H304c-4.418,0-8,3.582-8,8v0
					C296,244.418,299.582,248,304,248z"/>
			</g>
		</g>
		<g>
			<g>
				<path class="st4" d="M304,200h128c4.418,0,8-3.582,8-8v0c0-4.418-3.582-8-8-8H304c-4.418,0-8,3.582-8,8v0
					C296,196.418,299.582,200,304,200z"/>
			</g>
		</g>
		<g>
			<g>
				<path class="st4" d="M336,152h96c4.418,0,8-3.582,8-8v0c0-4.418-3.582-8-8-8h-96c-4.418,0-8,3.582-8,8v0
					C328,148.418,331.582,152,336,152z"/>
			</g>
		</g>
	</g>
	<g>
		<g>
			<g>
				<path class="st3" d="M112,376h72c4.418,0,8-3.582,8-8l0,0c0-4.418-3.582-8-8-8h-72c-4.418,0-8,3.582-8,8l0,0
					C104,372.418,107.582,376,112,376z"/>
			</g>
		</g>
		<g>
			<g>
				<path class="st3" d="M112,328h112c4.418,0,8-3.582,8-8l0,0c0-4.418-3.582-8-8-8H112c-4.418,0-8,3.582-8,8l0,0
					C104,324.418,107.582,328,112,328z"/>
			</g>
		</g>
		<g>
			<g>
				<path class="st3" d="M184,280h40c4.418,0,8-3.582,8-8l0,0c0-4.418-3.582-8-8-8h-40c-4.418,0-8,3.582-8,8l0,0
					C176,276.418,179.582,280,184,280z"/>
			</g>
		</g>
		<g>
			<g>
				<path class="st3" d="M184,232h40c4.418,0,8-3.582,8-8v0c0-4.418-3.582-8-8-8h-40c-4.418,0-8,3.582-8,8v0
					C176,228.418,179.582,232,184,232z"/>
			</g>
		</g>
		<g>
			<g>
				<path class="st3" d="M184,184h40c4.418,0,8-3.582,8-8v0c0-4.418-3.582-8-8-8h-40c-4.418,0-8,3.582-8,8v0
					C176,180.418,179.582,184,184,184z"/>
			</g>
		</g>
		<g>
			<path class="st4" d="M160,176L160,176c0-4.418-3.582-8-8-8h-40c-4.418,0-8,3.582-8,8v96c0,4.418,3.582,8,8,8h40
				c4.418,0,8-3.582,8-8l0,0c0-4.418-3.582-8-8-8h-32v-32h32c4.418,0,8-3.582,8-8v0c0-4.418-3.582-8-8-8h-32v-32h32
				C156.418,184,160,180.418,160,176z"/>
		</g>
	</g>
	<g>
		<path class="st2" d="M384,408l88-88h-72c-8.837,0-16,7.163-16,16V408z"/>
	</g>
	<g>
		<path class="st5" d="M397.657,120L397.657,120c1.5,0,2.939-0.596,4-1.657L416,104l14.343,14.343c1.061,1.061,2.5,1.657,4,1.657
			l0,0c3.124,0,5.657-2.533,5.657-5.657V72h-48v42.343C392,117.467,394.533,120,397.657,120z"/>
	</g>
</g>
</svg>
