<?xml version="1.0" encoding="utf-8"?>
<!-- Generator: Adobe Illustrator 23.0.0, SVG Export Plug-In . SVG Version: 6.00 Build 0)  -->
<svg version="1.1" id="Layer_1" xmlns="http://www.w3.org/2000/svg" xmlns:xlink="http://www.w3.org/1999/xlink" x="0px" y="0px"
	 viewBox="0 0 512 512" style="enable-background:new 0 0 512 512;" xml:space="preserve">
<style type="text/css">
	.st0{fill:#463C4B;}
	.st1{fill:#555A6E;}
	.st2{fill:#289BC3;}
	.st3{fill:#00D2D2;}
	.st4{fill:#D7E6F0;}
	.st5{fill:#FF6E91;}
	.st6{fill:#6E7896;}
	.st7{fill:#FAA037;}
	.st8{fill:#E64178;}
	.st9{fill:#FAB991;}
	.st10{fill:#A5C3DC;}
	.st11{fill:#F0915A;}
	.st12{fill:#FFD241;}
	.st13{fill:#32283C;}
	.st14{fill:#E6E6EB;}
	.st15{fill:#466932;}
	.st16{fill:#78AF41;}
	.st17{fill:#F57328;}
	.st18{fill:#C8733C;}
</style>
<g>
	<g>
		<path class="st2" d="M368,396V188H48v208c0,8.837,7.163,16,16,16h288C360.837,412,368,404.837,368,396z"/>
	</g>
	<g>
		<path class="st13" d="M144,364h-32c-26.51,0-48,21.49-48,48v0c0,26.51,21.49,48,48,48h32c26.51,0,48-21.49,48-48v0
			C192,385.49,170.51,364,144,364z"/>
	</g>
	<g>
		<path class="st13" d="M432,364h-32c-26.51,0-48,21.49-48,48v0c0,26.51,21.49,48,48,48h32c26.51,0,48-21.49,48-48v0
			C480,385.49,458.51,364,432,364z"/>
	</g>
	<g>
		<circle class="st1" cx="400" cy="412" r="48"/>
	</g>
	<g>
		<circle class="st14" cx="400" cy="412" r="16"/>
	</g>
	<g>
		<path class="st13" d="M304,364h-32c-26.51,0-48,21.49-48,48v0c0,26.51,21.49,48,48,48h32c26.51,0,48-21.49,48-48v0
			C352,385.49,330.51,364,304,364z"/>
	</g>
	<g>
		<path class="st10" d="M464,204H224c-8.837,0-16,7.163-16,16v16h256c8.837,0,16-7.163,16-16v0C480,211.163,472.837,204,464,204z"/>
	</g>
	<g>
		<path class="st4" d="M304,204h-80c-8.837,0-16,7.163-16,16v16h96c8.837,0,16-7.163,16-16v0C320,211.163,312.837,204,304,204z"/>
	</g>
	<g>
		<rect x="208" y="236" class="st0" width="256" height="80"/>
	</g>
	<g>
		<rect x="208" y="236" class="st1" width="96" height="80"/>
	</g>
	<g>
		<path class="st10" d="M480,412H224c-8.837,0-16-7.163-16-16v-80h256c17.673,0,32,14.327,32,32v48C496,404.837,488.837,412,480,412
			z"/>
	</g>
	<g>
		<path class="st4" d="M320,412h-96c-8.837,0-16-7.163-16-16v-80h96c17.673,0,32,14.327,32,32v48C336,404.837,328.837,412,320,412z"
			/>
	</g>
	<g>
		<path class="st1" d="M374.667,348h82.667C469.852,348,480,358.148,480,370.667v0c0,12.518-10.148,22.667-22.667,22.667h-82.667
			c-12.518,0-22.667-10.148-22.667-22.667v0C352,358.148,362.148,348,374.667,348z"/>
	</g>
	<g>
		<circle class="st3" cx="374.667" cy="370.667" r="12"/>
	</g>
	<g>
		<circle class="st3" cx="457.333" cy="370.667" r="12"/>
	</g>
	<path class="st10" d="M168,52h-48c-4.418,0-8,3.582-8,8s3.582,8,8,8c30.878,0,56,25.122,56,56c0,4.418,3.582,8,8,8h48
		c4.418,0,8-3.582,8-8C240,84.299,207.701,52,168,52z"/>
	<path class="st10" d="M296,52h-48c-39.701,0-72,32.299-72,72c0,4.418,3.582,8,8,8h48c4.418,0,8-3.582,8-8c0-30.878,25.122-56,56-56
		c4.418,0,8-3.582,8-8S300.418,52,296,52z"/>
	<path class="st10" d="M328,52h-48c-4.418,0-8,3.582-8,8s3.582,8,8,8c13.234,0,24,10.766,24,24s-10.766,24-24,24
		c-4.418,0-8,3.582-8,8s3.582,8,8,8h48c22.056,0,40-17.944,40-40S350.056,52,328,52z"/>
	<path class="st10" d="M136,116c-13.234,0-24-10.766-24-24s10.766-24,24-24c4.418,0,8-3.582,8-8s-3.582-8-8-8H88
		c-22.056,0-40,17.944-40,40s17.944,40,40,40h48c4.418,0,8-3.582,8-8S140.418,116,136,116z"/>
	<g>
		<path class="st2" d="M384,132H32c-8.837,0-16,7.163-16,16v24c0,8.837,7.163,16,16,16h352c8.837,0,16-7.163,16-16v-24
			C400,139.163,392.837,132,384,132z"/>
	</g>
	<g>
		<path class="st3" d="M192,412H64c-8.837,0-16-7.163-16-16V236h160v160C208,404.837,200.837,412,192,412z"/>
	</g>
	<g>
		<path class="st3" d="M208,132H32c-8.837,0-16,7.163-16,16v24c0,8.837,7.163,16,16,16h176c8.837,0,16-7.163,16-16v-24
			C224,139.163,216.837,132,208,132z"/>
	</g>
	<g>
		<path class="st4" d="M128,172c0,8.837,7.163,16,16,16h0H96c-8.837,0-16-7.163-16-16v-24c0-8.837,7.163-16,16-16h48h0
			c-8.837,0-16,7.163-16,16V172z"/>
	</g>
	<g>
		<path class="st10" d="M288,172c0,8.837-7.163,16-16,16h0h48c8.837,0,16-7.163,16-16v-24c0-8.837-7.163-16-16-16h-48h0
			c8.837,0,16,7.163,16,16V172z"/>
	</g>
	<g>
		<path class="st4" d="M280,132H176v-8c0-39.701,32.299-72,72-72h32c22.056,0,40,17.944,40,40S302.056,132,280,132z M192.57,116H280
			c13.234,0,24-10.766,24-24s-10.766-24-24-24h-32C219.837,68,196.463,88.897,192.57,116z"/>
	</g>
	<g>
		<path class="st4" d="M192,132H88c-22.056,0-40-17.944-40-40s17.944-40,40-40h32c39.701,0,72,32.299,72,72V132z M88,68
			c-13.234,0-24,10.766-24,24s10.766,24,24,24h87.43c-3.894-27.103-27.268-48-55.43-48H88z"/>
	</g>
	<g>
		<circle class="st1" cx="272" cy="412" r="48"/>
	</g>
	<g>
		<circle class="st14" cx="272" cy="412" r="16"/>
	</g>
	<g>
		<circle class="st1" cx="112" cy="412" r="48"/>
	</g>
	<g>
		<circle class="st14" cx="112" cy="412" r="16"/>
	</g>
</g>
</svg>
