<?xml version="1.0" encoding="utf-8"?>
<!-- Generator: Adobe Illustrator 23.0.0, SVG Export Plug-In . SVG Version: 6.00 Build 0)  -->
<svg version="1.1" id="Layer_1" xmlns="http://www.w3.org/2000/svg" xmlns:xlink="http://www.w3.org/1999/xlink" x="0px" y="0px"
	 viewBox="0 0 512 512" style="enable-background:new 0 0 512 512;" xml:space="preserve">
<style type="text/css">
	.st0{fill:#463C4B;}
	.st1{fill:#555A6E;}
	.st2{fill:#289BC3;}
	.st3{fill:#00D2D2;}
	.st4{fill:#D7E6F0;}
	.st5{fill:#FF6E91;}
	.st6{fill:#6E7896;}
	.st7{fill:#FAA037;}
	.st8{fill:#E64178;}
	.st9{fill:#FAB991;}
	.st10{fill:#A5C3DC;}
	.st11{fill:#F0915A;}
	.st12{fill:#FFD241;}
	.st13{fill:#32283C;}
	.st14{fill:#E6E6EB;}
	.st15{fill:#466932;}
	.st16{fill:#78AF41;}
	.st17{fill:#F57328;}
	.st18{fill:#C8733C;}
</style>
<g>
	<g>
		<path class="st10" d="M16,208v144.804C16,396.543,51.457,432,95.196,432h0c21.004,0,41.148-8.344,56-23.196l75.549-75.549
			c8.487-8.487,13.255-19.998,13.255-32V208H16z"/>
	</g>
	<g>
		<path class="st10" d="M496,208v144.804C496,396.543,460.543,432,416.804,432h0c-21.004,0-41.148-8.344-56-23.196l-75.549-75.549
			c-8.487-8.487-13.255-19.998-13.255-32V208H496z"/>
	</g>
	<g>
		<path class="st4" d="M384,96H128C66.144,96,16,146.144,16,208v124.118C16,369.608,46.392,400,83.882,400h0
			c18.003,0,35.27-7.152,48-19.882l46.863-46.863c0.039-0.039,0.077-0.077,0.116-0.116c8.197-8.258,19.188-13.139,30.824-13.139
			h92.631c11.635,0,22.627,4.881,30.824,13.139c0.039,0.039,0.077,0.078,0.116,0.116l46.863,46.863
			c12.73,12.73,29.996,19.882,48,19.882h0c37.49,0,67.882-30.392,67.882-67.882V208C496,146.144,445.856,96,384,96z"/>
	</g>
	<g>
		<path class="st10" d="M292.468,144h-72.936c-6.887,0-13.001-4.407-15.179-10.94L192,96h128l-12.353,37.06
			C305.469,139.593,299.355,144,292.468,144z"/>
	</g>
	<g>
		<circle class="st10" cx="192" cy="264" r="40"/>
	</g>
	<g>
		<path class="st1" d="M216,252h-12v-12c0-4.418-3.582-8-8-8h-8c-4.418,0-8,3.582-8,8v12h-12c-4.418,0-8,3.582-8,8v8
			c0,4.418,3.582,8,8,8h12v12c0,4.418,3.582,8,8,8h8c4.418,0,8-3.582,8-8v-12h12c4.418,0,8-3.582,8-8v-8
			C224,255.582,220.418,252,216,252z"/>
	</g>
	<g>
		<circle class="st0" cx="320" cy="264" r="40"/>
	</g>
	<g>
		<circle class="st1" cx="320" cy="264" r="24"/>
	</g>
	<g>
		<g>
			<circle class="st0" cx="112" cy="189.333" r="40"/>
		</g>
		<g>
			<circle class="st1" cx="112" cy="189.333" r="24"/>
		</g>
	</g>
	<g>
		<g>
			<circle class="st3" cx="400" cy="154.667" r="16"/>
		</g>
		<g>
			<circle class="st3" cx="400" cy="218.667" r="16"/>
		</g>
		<g>
			<circle class="st5" cx="368" cy="186.667" r="16"/>
		</g>
		<g>
			<circle class="st5" cx="432" cy="186.667" r="16"/>
		</g>
	</g>
	<g>
		<g>
			<circle class="st10" cx="224" cy="184" r="16"/>
		</g>
		<g>
			<circle class="st10" cx="288" cy="184" r="16"/>
		</g>
	</g>
	<g>
		<path class="st1" d="M176,80h-32c-8.837,0-16,7.163-16,16v0h64v0C192,87.163,184.837,80,176,80z"/>
	</g>
	<g>
		<path class="st1" d="M368,80h-32c-8.837,0-16,7.163-16,16v0h64v0C384,87.163,376.837,80,368,80z"/>
	</g>
</g>
</svg>
