<?xml version="1.0" encoding="utf-8"?>
<!-- Generator: Adobe Illustrator 23.0.0, SVG Export Plug-In . SVG Version: 6.00 Build 0)  -->
<svg version="1.1" id="Layer_1" xmlns="http://www.w3.org/2000/svg" xmlns:xlink="http://www.w3.org/1999/xlink" x="0px" y="0px"
	 viewBox="0 0 512 512" style="enable-background:new 0 0 512 512;" xml:space="preserve">
<style type="text/css">
	.st0{fill:#463C4B;}
	.st1{fill:#555A6E;}
	.st2{fill:#289BC3;}
	.st3{fill:#00D2D2;}
	.st4{fill:#D7E6F0;}
	.st5{fill:#FF6E91;}
	.st6{fill:#6E7896;}
	.st7{fill:#FAA037;}
	.st8{fill:#E64178;}
	.st9{fill:#FAB991;}
	.st10{fill:#A5C3DC;}
	.st11{fill:#F0915A;}
	.st12{fill:#FFD241;}
	.st13{fill:#32283C;}
	.st14{fill:#E6E6EB;}
	.st15{fill:#466932;}
	.st16{fill:#78AF41;}
	.st17{fill:#F57328;}
	.st18{fill:#C8733C;}
</style>
<g>
	<g>
		<path class="st0" d="M176,112H80V96c0-8.837,7.163-16,16-16h64c8.837,0,16,7.163,16,16V112z"/>
	</g>
	<g>
		<path class="st0" d="M432,112h-96V96c0-8.837,7.163-16,16-16h64c8.837,0,16,7.163,16,16V112z"/>
	</g>
	<g>
		<path class="st0" d="M16,208v144.804C16,396.543,51.457,432,95.196,432h0c21.004,0,41.148-8.344,56-23.196l54.828-54.828
			C227.779,332.221,240,302.716,240,271.951V208H16z"/>
	</g>
	<g>
		<path class="st0" d="M496,208v144.804C496,396.543,460.543,432,416.804,432h0c-21.004,0-41.148-8.344-56-23.196l-54.828-54.828
			C284.221,332.221,272,302.716,272,271.951V208H496z"/>
	</g>
	<g>
		<path class="st1" d="M384,96c-26.16,0-50.223,8.97-69.286,24H197.286C178.223,104.97,154.16,96,128,96
			C66.144,96,16,146.144,16,208s50.144,112,112,112c12.262,0,24.061-1.977,35.103-5.619C170.711,336.277,191.513,352,216,352
			c15.674,0,29.835-6.447,40-16.824C266.165,345.553,280.326,352,296,352c24.487,0,45.289-15.723,52.897-37.619
			C359.939,318.023,371.738,320,384,320c61.856,0,112-50.144,112-112S445.856,96,384,96z"/>
	</g>
	<g>
		<path class="st0" d="M282.667,176h-53.333c-13.255,0-24-10.745-24-24v-32h101.333v32C306.667,165.255,295.922,176,282.667,176z"/>
	</g>
	<g>
		<circle class="st5" cx="436" cy="208" r="28"/>
	</g>
	<g>
		<circle class="st5" cx="332" cy="208" r="28"/>
	</g>
	<g>
		<circle class="st3" cx="384" cy="156" r="28"/>
	</g>
	<g>
		<circle class="st3" cx="384" cy="260" r="28"/>
	</g>
	<g>
		<circle class="st0" cx="296" cy="296" r="29.333"/>
	</g>
	<g>
		<circle class="st0" cx="216" cy="296" r="29.333"/>
	</g>
	<g>
		<path class="st0" d="M149.206,178.395l-13.626,11.679c-1.45,1.243-3.297,1.926-5.206,1.926h-4.748
			c-1.91,0-3.756-0.683-5.206-1.926l-13.626-11.679c-1.773-1.52-2.794-3.739-2.794-6.074V136c0-4.418,3.582-8,8-8h32
			c4.418,0,8,3.582,8,8v36.321C152,174.656,150.979,176.875,149.206,178.395z"/>
	</g>
	<g>
		<path class="st0" d="M149.206,237.605l-13.626-11.679c-1.45-1.243-3.297-1.926-5.206-1.926h-4.748
			c-1.91,0-3.756,0.683-5.206,1.926l-13.626,11.679c-1.773,1.52-2.794,3.739-2.794,6.074V280c0,4.418,3.582,8,8,8h32
			c4.418,0,8-3.582,8-8v-36.321C152,241.344,150.979,239.125,149.206,237.605z"/>
	</g>
	<g>
		<path class="st0" d="M98.395,186.794l11.679,13.626c1.243,1.45,1.926,3.297,1.926,5.206v4.748c0,1.91-0.683,3.756-1.926,5.206
			l-11.679,13.626c-1.52,1.773-3.739,2.794-6.074,2.794H56c-4.418,0-8-3.582-8-8v-32c0-4.418,3.582-8,8-8h36.321
			C94.656,184,96.875,185.021,98.395,186.794z"/>
	</g>
	<g>
		<path class="st0" d="M157.605,186.794l-11.679,13.626c-1.243,1.45-1.926,3.297-1.926,5.206v4.748c0,1.91,0.683,3.756,1.926,5.206
			l11.679,13.626c1.52,1.773,3.739,2.794,6.074,2.794H200c4.418,0,8-3.582,8-8v-32c0-4.418-3.582-8-8-8h-36.321
			C161.344,184,159.125,185.021,157.605,186.794z"/>
	</g>
</g>
</svg>
