<?xml version="1.0" encoding="utf-8"?>
<!-- Generator: Adobe Illustrator 23.0.0, SVG Export Plug-In . SVG Version: 6.00 Build 0)  -->
<svg version="1.1" id="Layer_1" xmlns="http://www.w3.org/2000/svg" xmlns:xlink="http://www.w3.org/1999/xlink" x="0px" y="0px"
	 viewBox="0 0 512 512" style="enable-background:new 0 0 512 512;" xml:space="preserve">
<style type="text/css">
	.st0{fill:#463C4B;}
	.st1{fill:#555A6E;}
	.st2{fill:#289BC3;}
	.st3{fill:#00D2D2;}
	.st4{fill:#D7E6F0;}
	.st5{fill:#FF6E91;}
	.st6{fill:#6E7896;}
	.st7{fill:#FAA037;}
	.st8{fill:#E64178;}
	.st9{fill:#FAB991;}
	.st10{fill:#A5C3DC;}
	.st11{fill:#F0915A;}
	.st12{fill:#FFD241;}
	.st13{fill:#32283C;}
	.st14{fill:#E6E6EB;}
	.st15{fill:#466932;}
	.st16{fill:#78AF41;}
	.st17{fill:#F57328;}
	.st18{fill:#C8733C;}
</style>
<g>
	<g>
		<path class="st3" d="M20,336c-4.418,0-8-3.582-8-8v-8c0-13.233,10.767-24,24-24c4.418,0,8,3.582,8,8s-3.582,8-8,8
			c-4.411,0-8,3.589-8,8v8C28,332.418,24.418,336,20,336z"/>
	</g>
	<g>
		<g>
			<path class="st10" d="M340,120c-4.418,0-8-3.582-8-8V88c0-30.878-25.122-56-56-56s-56,25.122-56,56v24c0,4.418-3.582,8-8,8
				s-8-3.582-8-8V88c0-39.701,32.299-72,72-72s72,32.299,72,72v24C348,116.418,344.418,120,340,120z"/>
		</g>
		<g>
			<path class="st10" d="M340,112h64c8.837,0,16,7.163,16,16v352c0,8.837-7.163,16-16,16h-96h0c8.837,0,16-7.163,16-16V128
				C324,119.163,331.163,112,340,112z"/>
		</g>
		<g>
			<path class="st4" d="M308,112H52c-8.837,0-16,7.163-16,16v352c0,8.837,7.163,16,16,16h256c8.837,0,16-7.163,16-16V128
				C324,119.163,316.837,112,308,112z"/>
		</g>
		<g>
			<path class="st4" d="M244,120c-4.418,0-8-3.582-8-8V88c0-30.878-25.122-56-56-56s-56,25.122-56,56v24c0,4.418-3.582,8-8,8
				s-8-3.582-8-8V88c0-39.701,32.299-72,72-72s72,32.299,72,72v24C252,116.418,248.418,120,244,120z"/>
		</g>
	</g>
	<g>
		<g>
			<path class="st5" d="M388,144L388,144c10.245,10.245,16,24.139,16,38.627V192c0,8.836-7.163,16-16,16s-16-7.164-16-16v-32
				c0-53.02-42.981-96-96-96h0l20.686,20.687C303.93,91.93,308,101.755,308,112l0,0c0,10.245-4.07,20.07-11.314,27.313
				l-34.745,34.746C240.209,195.791,228,225.266,228,256l0,0c0,75.111,60.889,136,136,136s136-60.889,136-136l0,0
				C500,194.144,449.856,144,388,144z"/>
		</g>
		<g>
			<path class="st5" d="M412,128c13.255,0,24-10.745,24-24l0,0c0-22.091-17.909-40-40-40h-8v40C388,117.255,398.745,128,412,128z"/>
		</g>
		<g>
			<path class="st7" d="M364,352c53.019,0,96-42.981,96-96H268C268,309.019,310.981,352,364,352z"/>
		</g>
		<g>
			<path class="st7" d="M268,256L268,256c0-20.489,8.139-40.139,22.627-54.627l38.059-38.059c2.122-2.122,4.999-3.314,8-3.314h0
				c6.248,0,11.314,5.065,11.314,11.314V204c0,19.882,16.118,36,36,36h0c19.882,0,36-16.118,36-36v-0.686
				c0-6.248,5.065-11.314,11.314-11.314h0c3.001,0,5.878,1.192,8,3.314l0,0C452.559,208.559,460,226.523,460,245.255V256H268z"/>
		</g>
	</g>
	<g>
		<g>
			<path class="st0" d="M266.224,448H484c8.837,0,16-7.163,16-16V272c0-8.837-7.163-16-16-16H266.224
				c-4.003,0-7.861,1.501-10.812,4.206l-85.515,78.389C166.139,342.039,164,346.902,164,352l0,0c0,5.098,2.139,9.961,5.897,13.406
				l85.515,78.389C258.363,446.499,262.221,448,266.224,448z"/>
		</g>
		<g>
			<path class="st1" d="M266.224,448H452c8.837,0,16-7.163,16-16V272c0-8.837-7.163-16-16-16H266.224
				c-4.003,0-7.861,1.501-10.812,4.206l-85.515,78.389C166.139,342.039,164,346.902,164,352l0,0c0,5.098,2.139,9.961,5.897,13.406
				l85.515,78.389C258.363,446.499,262.221,448,266.224,448z"/>
		</g>
		<g>
			<circle class="st0" cx="212" cy="352" r="21.333"/>
		</g>
	</g>
	<g>
		<path class="st3" d="M212,360H36c-13.233,0-24-10.767-24-24v-8c0-4.418,3.582-8,8-8s8,3.582,8,8v8c0,4.411,3.589,8,8,8h176
			c4.418,0,8,3.582,8,8S216.418,360,212,360z"/>
	</g>
	<path class="st5" d="M383.681,334.92c4.418,0,8-3.582,8-8v-1.538c0-16.797-13.665-30.462-30.462-30.462h-1.538v-16
		c0-4.418-3.582-8-8-8s-8,3.582-8,8v16h-1.538c-16.797,0-30.462,13.665-30.462,30.462c0,14.003,9.488,26.156,23.074,29.553
		l29.971,7.493c6.45,1.612,10.955,7.382,10.955,14.03c0,7.975-6.488,14.462-14.462,14.462h-19.076
		c-7.975,0-14.462-6.488-14.462-14.462v-1.538c0-4.418-3.582-8-8-8s-8,3.582-8,8v1.538c0,16.797,13.666,30.462,30.462,30.462h1.538
		v16c0,4.418,3.582,8,8,8s8-3.582,8-8v-16h1.538c16.797,0,30.462-13.666,30.462-30.462c0-14.003-9.488-26.156-23.074-29.553
		l-29.971-7.493c-6.45-1.612-10.955-7.382-10.955-14.03c0-7.974,6.488-14.462,14.462-14.462h19.076
		c7.974,0,14.462,6.488,14.462,14.462v1.538C375.681,331.339,379.262,334.92,383.681,334.92z"/>
</g>
</svg>
