<?xml version="1.0" encoding="utf-8"?>
<!-- Generator: Adobe Illustrator 23.0.0, SVG Export Plug-In . SVG Version: 6.00 Build 0)  -->
<svg version="1.1" id="Layer_1" xmlns="http://www.w3.org/2000/svg" xmlns:xlink="http://www.w3.org/1999/xlink" x="0px" y="0px"
	 viewBox="0 0 512 512" style="enable-background:new 0 0 512 512;" xml:space="preserve">
<style type="text/css">
	.st0{fill:#463C4B;}
	.st1{fill:#555A6E;}
	.st2{fill:#289BC3;}
	.st3{fill:#00D2D2;}
	.st4{fill:#D7E6F0;}
	.st5{fill:#FF6E91;}
	.st6{fill:#6E7896;}
	.st7{fill:#FAA037;}
	.st8{fill:#E64178;}
	.st9{fill:#FAB991;}
	.st10{fill:#A5C3DC;}
	.st11{fill:#F0915A;}
	.st12{fill:#FFD241;}
	.st13{fill:#32283C;}
	.st14{fill:#E6E6EB;}
	.st15{fill:#466932;}
	.st16{fill:#78AF41;}
	.st17{fill:#F57328;}
	.st18{fill:#C8733C;}
</style>
<g>
	<g>
		<path class="st5" d="M36,296c-4.418,0-8-3.582-8-8c0-30.879,25.122-56,56-56h24c4.418,0,8,3.582,8,8s-3.582,8-8,8H84
			c-22.056,0-40,17.944-40,40C44,292.418,40.418,296,36,296z"/>
	</g>
	<g>
		<path class="st10" d="M380,496H140c-17.673,0-32-14.327-32-32V48c0-17.673,14.327-32,32-32h240c17.673,0,32,14.327,32,32v416
			C412,481.673,397.673,496,380,496z"/>
	</g>
	<g>
		<path class="st4" d="M332,496H140c-17.673,0-32-14.327-32-32V48c0-17.673,14.327-32,32-32h192c17.673,0,32,14.327,32,32v416
			C364,481.673,349.673,496,332,496z"/>
	</g>
	<g>
		<path class="st1" d="M316,464H156c-8.837,0-16-7.163-16-16V96c0-8.837,7.163-16,16-16h160c8.837,0,16,7.163,16,16v352
			C332,456.837,324.837,464,316,464z"/>
	</g>
	<g>
		<path class="st1" d="M260,56h-48c-4.418,0-8-3.582-8-8v0c0-4.418,3.582-8,8-8h48c4.418,0,8,3.582,8,8v0
			C268,52.418,264.418,56,260,56z"/>
	</g>
	<g>
		<g>
			<path class="st2" d="M183.373,432H468c8.837,0,16-7.163,16-16V256c0-8.837-7.163-16-16-16H183.373
				c-7.198,0-14.017,3.231-18.575,8.802l-59.732,73.006C101.79,325.812,100,330.827,100,336l0,0c0,5.173,1.79,10.188,5.066,14.192
				l59.732,73.006C169.356,428.769,176.175,432,183.373,432z"/>
		</g>
		<g>
			<path class="st3" d="M183.373,432H444c8.837,0,16-7.163,16-16V256c0-8.837-7.163-16-16-16H183.373
				c-7.198,0-14.017,3.231-18.575,8.802l-59.732,73.006C101.79,325.812,100,330.827,100,336l0,0c0,5.173,1.79,10.188,5.066,14.192
				l59.732,73.006C169.356,428.769,176.175,432,183.373,432z"/>
		</g>
		<g>
			<circle class="st2" cx="140" cy="336" r="24"/>
		</g>
		<g>
			<path class="st4" d="M297.333,288h24c4.418,0,8-3.582,8-8s-3.582-8-8-8h-24c-13.233,0-24,10.767-24,24v80
				c0,13.233,10.767,24,24,24h24c4.418,0,8-3.582,8-8s-3.582-8-8-8h-24c-4.411,0-8-3.589-8-8v-32h16c4.418,0,8-3.582,8-8
				s-3.582-8-8-8h-16v-32C289.333,291.589,292.922,288,297.333,288z"/>
			<path class="st4" d="M246.667,272c-4.418,0-8,3.582-8,8v62.701l-21.744-65.231c-1.241-3.723-5.002-6-8.871-5.366
				c-3.873,0.628-6.719,3.973-6.719,7.896v112c0,4.418,3.582,8,8,8s8-3.582,8-8v-62.701l21.744,65.231
				c1.103,3.308,4.192,5.471,7.584,5.471c0.425,0,0.855-0.034,1.287-0.104c3.873-0.628,6.719-3.973,6.719-7.896V280
				C254.667,275.582,251.085,272,246.667,272z"/>
			<path class="st4" d="M414.667,272c-4.418,0-8,3.582-8,8v96c0,4.411-3.589,8-8,8s-8-3.589-8-8v-96c0-4.418-3.582-8-8-8
				s-8,3.582-8,8v96c0,4.411-3.589,8-8,8s-8-3.589-8-8v-96c0-4.418-3.582-8-8-8s-8,3.582-8,8v96c0,13.233,10.767,24,24,24
				c6.142,0,11.75-2.322,16-6.131c4.25,3.809,9.858,6.131,16,6.131c13.233,0,24-10.767,24-24v-96
				C422.667,275.582,419.085,272,414.667,272z"/>
		</g>
	</g>
	<g>
		<path class="st5" d="M140,344H84c-30.878,0-56-25.121-56-56c0-4.418,3.582-8,8-8s8,3.582,8,8c0,22.056,17.944,40,40,40h56
			c4.418,0,8,3.582,8,8S144.418,344,140,344z"/>
	</g>
	<g>
		<path class="st6" d="M156,218.243V112c0-8.837,7.163-16,16-16h108.147c7.159,0,10.714,8.683,5.61,13.703L169.61,223.947
			C164.551,228.922,156,225.339,156,218.243z"/>
	</g>
</g>
</svg>
