<?xml version="1.0" encoding="utf-8"?>
<!-- Generator: Adobe Illustrator 23.0.0, SVG Export Plug-In . SVG Version: 6.00 Build 0)  -->
<svg version="1.1" id="Layer_1" xmlns="http://www.w3.org/2000/svg" xmlns:xlink="http://www.w3.org/1999/xlink" x="0px" y="0px"
	 viewBox="0 0 512 512" style="enable-background:new 0 0 512 512;" xml:space="preserve">
<style type="text/css">
	.st0{fill:#463C4B;}
	.st1{fill:#555A6E;}
	.st2{fill:#289BC3;}
	.st3{fill:#00D2D2;}
	.st4{fill:#D7E6F0;}
	.st5{fill:#FF6E91;}
	.st6{fill:#6E7896;}
	.st7{fill:#FAA037;}
	.st8{fill:#E64178;}
	.st9{fill:#FAB991;}
	.st10{fill:#A5C3DC;}
	.st11{fill:#F0915A;}
	.st12{fill:#FFD241;}
	.st13{fill:#32283C;}
	.st14{fill:#E6E6EB;}
	.st15{fill:#466932;}
	.st16{fill:#78AF41;}
	.st17{fill:#F57328;}
	.st18{fill:#C8733C;}
</style>
<g>
	<g>
		<g>
			<path class="st0" d="M464,348H16V108c0-17.673,14.327-32,32-32h384c17.673,0,32,14.327,32,32V348z"/>
		</g>
		<g>
			<path class="st1" d="M432,348H16V108c0-17.673,14.327-32,32-32h352c17.673,0,32,14.327,32,32V348z"/>
		</g>
		<g>
			<path class="st10" d="M48,412h384c17.673,0,32-14.327,32-32v-32H16v32C16,397.673,30.327,412,48,412z"/>
		</g>
		<g>
			<path class="st4" d="M400,412H48c-17.673,0-32-14.327-32-32v-32h416v32C432,397.673,417.673,412,400,412z"/>
		</g>
		<g>
			<rect x="200" y="412" class="st10" width="72" height="32"/>
		</g>
		<g>
			<rect x="200" y="428" class="st4" width="48" height="16"/>
		</g>
		<g>
			<path class="st4" d="M312,468H152v-8c0-8.837,7.163-16,16-16h128c8.837,0,16,7.163,16,16V468z"/>
		</g>
		<g>
			<path class="st10" d="M312,468h-48v-8c0-8.837,7.163-16,16-16h16c8.837,0,16,7.163,16,16V468z"/>
		</g>
	</g>
	<g>
		<g>
			<path class="st8" d="M480,44H304c-8.837,0-16,7.164-16,16v173.578c0,5.756,4.666,10.422,10.422,10.422h32
				c3.485,0,6.739-1.742,8.672-4.641L352,220h128c8.837,0,16-7.164,16-16V60C496,51.164,488.837,44,480,44z"/>
		</g>
		<g>
			<path class="st5" d="M448,44H304c-8.837,0-16,7.164-16,16v173.578c0,5.756,4.666,10.422,10.422,10.422
				c3.485,0,6.739-1.742,8.672-4.641L320,220h128c8.837,0,16-7.164,16-16V60C464,51.164,456.837,44,448,44z"/>
		</g>
		<g>
			<path class="st8" d="M424,92h-80c-4.418,0-8-3.582-8-8v0c0-4.418,3.582-8,8-8h80c4.418,0,8,3.582,8,8v0
				C432,88.418,428.418,92,424,92z"/>
		</g>
		<g>
			<path class="st8" d="M424,124h-96c-4.418,0-8-3.582-8-8v0c0-4.418,3.582-8,8-8h96c4.418,0,8,3.582,8,8v0
				C432,120.418,428.418,124,424,124z"/>
		</g>
		<g>
			<path class="st8" d="M424,156h-96c-4.418,0-8-3.582-8-8v0c0-4.418,3.582-8,8-8h96c4.418,0,8,3.582,8,8v0
				C432,152.418,428.418,156,424,156z"/>
		</g>
		<g>
			<path class="st8" d="M376,188h-48c-4.418,0-8-3.582-8-8v0c0-4.418,3.582-8,8-8h48c4.418,0,8,3.582,8,8v0
				C384,184.418,380.418,188,376,188z"/>
		</g>
	</g>
	<g>
		<g>
			<path class="st9" d="M104,156v112h56v-16h28c15.464,0,28-12.536,28-28v-68H104z"/>
		</g>
		<g>
			<rect x="96" y="124" class="st2" width="120" height="32"/>
		</g>
		<g>
			<path class="st3" d="M96,140h56c4.418,0,8,3.582,8,8v8H96V140z"/>
		</g>
		<g>
			<path class="st3" d="M72,124h168c4.418,0,8-3.582,8-8v0c0-4.418-3.582-8-8-8H72c-4.418,0-8,3.582-8,8v0
				C64,120.418,67.582,124,72,124z"/>
		</g>
		<g>
			<path class="st0" d="M136,236h-32c-4.418,0-8-3.582-8-8v-72h48v72C144,232.418,140.418,236,136,236z"/>
		</g>
		<g>
			<path class="st0" d="M152,188h-8v-32h16v24C160,184.418,156.418,188,152,188z"/>
		</g>
		<g>
			<path class="st11" d="M144,204L144,204l0-32h0c-8.837,0-16,7.163-16,16v0C128,196.837,135.163,204,144,204z"/>
		</g>
		<g>
			<path class="st11" d="M160,252h-40c-8.837,0-16,7.163-16,16v0h56V252z"/>
		</g>
		<g>
			<path class="st2" d="M188,268H76c-15.464,0-28,12.536-28,28v52h168v-52C216,280.536,203.464,268,188,268z"/>
		</g>
		<g>
			<path class="st10" d="M160,268h-56c15.464,0,28,12.536,28,28v0c0,11.046,8.954,20,20,20h16c11.046,0,20-8.954,20-20v0
				C188,280.536,175.464,268,160,268z"/>
		</g>
		<g>
			<path class="st3" d="M76,268L76,268c-15.464,0-28,12.536-28,28v52h56v-52C104,280.536,91.464,268,76,268z"/>
		</g>
		<g>
			<rect x="232" y="124" class="st2" width="8" height="32"/>
		</g>
		<g>
			<path class="st3" d="M231.333,156h9.333c1.105,0,2,0.895,2,2v12c0,1.105-0.895,2-2,2h-9.333c-1.105,0-2-0.895-2-2v-12
				C229.333,156.895,230.229,156,231.333,156z"/>
		</g>
	</g>
	<g>
		<circle class="st0" cx="186.667" cy="177.333" r="5.333"/>
	</g>
	<g>
		<circle class="st0" cx="208" cy="177.333" r="5.333"/>
	</g>
	<g>
		<path class="st11" d="M200,212L200,212c-4.418,0-8-3.582-8-8v-16h0c8.837,0,16,7.163,16,16v0C208,208.418,204.418,212,200,212z"/>
	</g>
	<g>
		<path class="st0" d="M200,236L200,236c-4.418,0-8-3.582-8-8v0h16v0C208,232.418,204.418,236,200,236z"/>
	</g>
	<g>
		<g>
			<rect x="240" y="270.667" class="st11" width="32" height="40"/>
		</g>
		<g>
			<path class="st2" d="M272,310.667h-32c-4.418,0-8,3.582-8,8V348h48v-29.333C280,314.248,276.418,310.667,272,310.667z"/>
		</g>
		<g>
			<path class="st3" d="M256,310.667h-16c-4.418,0-8,3.582-8,8V348h24V310.667z"/>
		</g>
		<g>
			<path class="st9" d="M256,302.67v8h-16v-8c-4.42,0-8-3.59-8-8v-29.34c0-0.73,0.3-1.4,0.78-1.88c0.48-0.48,1.15-0.78,1.89-0.78
				c4.41,0,8,3.58,8,8v16.24C250.23,288.18,256,294.74,256,302.67z"/>
		</g>
		<g>
			<path class="st9" d="M246.667,234.667L246.667,234.667c-2.209,0-4,1.791-4,4v32h8v-32
				C250.667,236.458,248.876,234.667,246.667,234.667z"/>
		</g>
		<g>
			<path class="st9" d="M254.667,286.667L254.667,286.667c-2.209,0-4-1.791-4-4v-16c0-2.209,1.791-4,4-4h0c2.209,0,4,1.791,4,4v16
				C258.667,284.876,256.876,286.667,254.667,286.667z"/>
		</g>
		<g>
			<path class="st9" d="M262.667,286.667L262.667,286.667c-2.209,0-4-1.791-4-4v-16c0-2.209,1.791-4,4-4l0,0c2.209,0,4,1.791,4,4v16
				C266.667,284.876,264.876,286.667,262.667,286.667z"/>
		</g>
		<g>
			<path class="st9" d="M270.667,286.67L270.667,286.67c-2.209,0-4-1.791-4-4v-13.333c0-2.209,1.791-4,4-4l0,0c2.209,0,4,1.791,4,4
				v13.333C274.667,284.879,272.876,286.67,270.667,286.67z"/>
		</g>
	</g>
</g>
</svg>
