<?xml version="1.0" encoding="utf-8"?>
<!-- Generator: Adobe Illustrator 23.0.0, SVG Export Plug-In . SVG Version: 6.00 Build 0)  -->
<svg version="1.1" id="Layer_1" xmlns="http://www.w3.org/2000/svg" xmlns:xlink="http://www.w3.org/1999/xlink" x="0px" y="0px"
	 viewBox="0 0 512 512" style="enable-background:new 0 0 512 512;" xml:space="preserve">
<style type="text/css">
	.st0{fill:#463C4B;}
	.st1{fill:#555A6E;}
	.st2{fill:#289BC3;}
	.st3{fill:#00D2D2;}
	.st4{fill:#D7E6F0;}
	.st5{fill:#FF6E91;}
	.st6{fill:#6E7896;}
	.st7{fill:#FAA037;}
	.st8{fill:#E64178;}
	.st9{fill:#FAB991;}
	.st10{fill:#A5C3DC;}
	.st11{fill:#F0915A;}
	.st12{fill:#FFD241;}
	.st13{fill:#32283C;}
	.st14{fill:#E6E6EB;}
	.st15{fill:#466932;}
	.st16{fill:#78AF41;}
	.st17{fill:#F57328;}
	.st18{fill:#C8733C;}
</style>
<g>
	<g>
		<g>
			<path class="st0" d="M468,340H36V84c0-17.673,14.327-32,32-32h368c17.673,0,32,14.327,32,32V340z"/>
		</g>
		<g>
			<path class="st1" d="M436,340H36V84c0-17.673,14.327-32,32-32h336c17.673,0,32,14.327,32,32V340z"/>
		</g>
		<g>
			<path class="st10" d="M68,404h368c17.673,0,32-14.327,32-32v-32H36v32C36,389.673,50.327,404,68,404z"/>
		</g>
		<g>
			<path class="st4" d="M404,404H68c-17.673,0-32-14.327-32-32v-32h400v32C436,389.673,421.673,404,404,404z"/>
		</g>
		<g>
			<rect x="204" y="404" class="st10" width="72" height="32"/>
		</g>
		<g>
			<rect x="204" y="420" class="st4" width="48" height="16"/>
		</g>
		<g>
			<path class="st4" d="M316,460H156v-8c0-8.837,7.163-16,16-16h128c8.837,0,16,7.163,16,16V460z"/>
		</g>
		<g>
			<path class="st10" d="M316,460h-48v-8c0-8.837,7.163-16,16-16h16c8.837,0,16,7.163,16,16V460z"/>
		</g>
	</g>
	<g>
		<path class="st0" d="M36,84v48c0,22.091,17.909,40,40,40s40-17.909,40-40c0,22.091,17.909,40,40,40s40-17.909,40-40
			c0,22.091,17.909,40,40,40s40-17.909,40-40c0,22.091,17.909,40,40,40s40-17.909,40-40c0,22.091,17.909,40,40,40s40-17.909,40-40
			V84H36z"/>
	</g>
	<g>
		<g>
			<g>
				<path class="st7" d="M388,308H244c-17.673,0-32-14.327-32-32v-48c0-17.673,14.327-32,32-32h144c17.673,0,32,14.327,32,32v48
					C420,293.673,405.673,308,388,308z"/>
			</g>
			<g>
				<path class="st12" d="M356,308H244c-17.673,0-32-14.327-32-32v-48c0-17.673,14.327-32,32-32h112c17.673,0,32,14.327,32,32v48
					C388,293.673,373.673,308,356,308z"/>
			</g>
		</g>
		<g>
			<g>
				<path class="st7" d="M332,271.333h-48c-2.272,0-4.351-1.284-5.366-3.316l-15.946-31.892c-0.039-0.074-0.076-0.149-0.112-0.226
					l-6.283-12.566H244c-3.313,0-6-2.687-6-6s2.687-6,6-6h16c2.272,0,4.351,1.284,5.366,3.316l6.342,12.684H348
					c2.079,0,4.011,1.077,5.104,2.846c1.094,1.769,1.193,3.978,0.263,5.838l-16,32C336.351,270.049,334.272,271.333,332,271.333z
					 M287.708,259.333h40.584l10-20h-60.584L287.708,259.333z"/>
			</g>
			<g>
				<circle class="st7" cx="284" cy="288" r="9.333"/>
			</g>
			<g>
				<circle class="st7" cx="332" cy="288" r="9.333"/>
			</g>
		</g>
	</g>
	<g>
		<path class="st2" d="M364,156c22.091,0,40-17.909,40-40h-80C324,138.091,341.909,156,364,156z"/>
	</g>
	<g>
		<path class="st3" d="M404,116h-80v0c0-17.673,14.327-32,32-32h80h0C418.327,84,404,98.327,404,116L404,116z"/>
	</g>
	<g>
		<path class="st8" d="M284,156c22.091,0,40-17.909,40-40h-80C244,138.091,261.909,156,284,156z"/>
	</g>
	<g>
		<path class="st5" d="M324,116h-80v0c0-17.673,14.327-32,32-32h80h0C338.327,84,324,98.327,324,116L324,116z"/>
	</g>
	<g>
		<path class="st2" d="M204,156c22.091,0,40-17.909,40-40h-80C164,138.091,181.909,156,204,156z"/>
	</g>
	<g>
		<path class="st3" d="M244,116h-80v0c0-17.673,14.327-32,32-32h80h0C258.327,84,244,98.327,244,116L244,116z"/>
	</g>
	<g>
		<path class="st8" d="M124,156c22.091,0,40-17.909,40-40H84C84,138.091,101.909,156,124,156z"/>
	</g>
	<g>
		<path class="st5" d="M164,116H84v0c0-17.673,14.327-32,32-32h80h0C178.327,84,164,98.327,164,116L164,116z"/>
	</g>
	<g>
		<path class="st2" d="M44,156c22.091,0,40-17.909,40-40H4C4,138.091,21.909,156,44,156z"/>
	</g>
	<g>
		<path class="st3" d="M84,116H4v0c0-17.673,14.327-32,32-32h80h0C98.327,84,84,98.327,84,116L84,116z"/>
	</g>
	<g>
		<g>
			<path class="st8" d="M502.343,326.343L468,292l10.979-10.979C489.688,270.312,482.104,252,466.958,252h-83.67
				c-7.237,0-14.176,2.878-19.288,8c-5.123,5.132-8,12.088-8,19.339v51.619c0,10.248,8.384,17.024,17.124,17.024l-0.001,0.01h32
				l0.001-0.01c1.949,0,3.912-0.34,5.807-1.052l19.412,19.412C433.965,369.965,438.878,372,444,372h32
				c5.122,0,10.035-2.035,13.657-5.657l12.687-12.687C505.965,350.035,508,345.122,508,340S505.965,329.965,502.343,326.343z"/>
		</g>
		<g>
			<path class="st5" d="M470.343,326.343L436,292l10.979-10.979C457.689,270.311,450.104,252,434.958,252h-51.67
				c-7.237,0-14.176,2.878-19.288,8l0,0c-5.123,5.132-8,12.088-8,19.339v51.619c0,15.145,18.311,22.73,29.021,12.021L396,332
				l34.343,34.343C433.965,369.965,438.878,372,444,372l0,0c5.122,0,10.035-2.035,13.657-5.657l12.687-12.687
				C473.965,350.034,476,345.122,476,340v0C476,334.878,473.965,329.965,470.343,326.343z"/>
		</g>
	</g>
	<g>
		<g>
			<path class="st6" d="M108,244H76c-4.418,0-8-3.582-8-8v-32c0-4.418,3.582-8,8-8h32c4.418,0,8,3.582,8,8v32
				C116,240.418,112.418,244,108,244z"/>
		</g>
		<g>
			<path class="st6" d="M180,212h-40c-4.418,0-8-3.582-8-8v0c0-4.418,3.582-8,8-8h40c4.418,0,8,3.582,8,8v0
				C188,208.418,184.418,212,180,212z"/>
		</g>
		<g>
			<path class="st6" d="M156,244h-16c-4.418,0-8-3.582-8-8v0c0-4.418,3.582-8,8-8h16c4.418,0,8,3.582,8,8v0
				C164,240.418,160.418,244,156,244z"/>
		</g>
		<g>
			<path class="st6" d="M108,308H76c-4.418,0-8-3.582-8-8v-32c0-4.418,3.582-8,8-8h32c4.418,0,8,3.582,8,8v32
				C116,304.418,112.418,308,108,308z"/>
		</g>
		<g>
			<path class="st6" d="M180,276h-40c-4.418,0-8-3.582-8-8l0,0c0-4.418,3.582-8,8-8h40c4.418,0,8,3.582,8,8l0,0
				C188,272.418,184.418,276,180,276z"/>
		</g>
		<g>
			<path class="st6" d="M156,308h-16c-4.418,0-8-3.582-8-8l0,0c0-4.418,3.582-8,8-8h16c4.418,0,8,3.582,8,8l0,0
				C164,304.418,160.418,308,156,308z"/>
		</g>
	</g>
</g>
</svg>
