<?xml version="1.0" encoding="utf-8"?>
<!-- Generator: Adobe Illustrator 23.0.0, SVG Export Plug-In . SVG Version: 6.00 Build 0)  -->
<svg version="1.1" id="Layer_1" xmlns="http://www.w3.org/2000/svg" xmlns:xlink="http://www.w3.org/1999/xlink" x="0px" y="0px"
	 viewBox="0 0 512 512" style="enable-background:new 0 0 512 512;" xml:space="preserve">
<style type="text/css">
	.st0{fill:#463C4B;}
	.st1{fill:#555A6E;}
	.st2{fill:#289BC3;}
	.st3{fill:#00D2D2;}
	.st4{fill:#D7E6F0;}
	.st5{fill:#FF6E91;}
	.st6{fill:#6E7896;}
	.st7{fill:#FAA037;}
	.st8{fill:#E64178;}
	.st9{fill:#FAB991;}
	.st10{fill:#A5C3DC;}
	.st11{fill:#F0915A;}
	.st12{fill:#FFD241;}
	.st13{fill:#32283C;}
	.st14{fill:#E6E6EB;}
	.st15{fill:#466932;}
	.st16{fill:#78AF41;}
	.st17{fill:#F57328;}
	.st18{fill:#C8733C;}
</style>
<g>
	<g>
		<path class="st11" d="M454.627,286.627L416,248h-96v176c0,17.673,14.327,32,32,32v16h112V309.255
			C464,300.768,460.629,292.628,454.627,286.627z"/>
	</g>
	<g>
		<g>
			<path class="st8" d="M288,448H48c-8.837,0-16-7.163-16-16V144c0-8.837,7.163-16,16-16h240c8.837,0,16,7.163,16,16v288
				C304,440.837,296.837,448,288,448z"/>
		</g>
		<g>
			<path class="st5" d="M240,448H48c-8.837,0-16-7.163-16-16V144c0-8.837,7.163-16,16-16h192c8.837,0,16,7.163,16,16v288
				C256,440.837,248.837,448,240,448z"/>
		</g>
	</g>
	<g>
		<path class="st8" d="M208,208H80c-8.837,0-16-7.163-16-16v-16c0-8.837,7.163-16,16-16h128c8.837,0,16,7.163,16,16v16
			C224,200.837,216.837,208,208,208z"/>
	</g>
	<g>
		<path class="st16" d="M416,160H304c-8.837,0-16,7.163-16,16v224c0,8.837,7.163,16,16,16h112c8.837,0,16-7.163,16-16V176
			C432,167.163,424.837,160,416,160z"/>
	</g>
	<g>
		<path class="st15" d="M384,176h-48c-4.418,0-8,3.582-8,8v0c0,8.837-7.163,16-16,16h0c-4.418,0-8,3.582-8,8v160
			c0,4.418,3.582,8,8,8h0c8.837,0,16,7.163,16,16v0c0,4.418,3.582,8,8,8h48c4.418,0,8-3.582,8-8v0c0-8.837,7.163-16,16-16h0
			c4.418,0,8-3.582,8-8V208c0-4.418-3.582-8-8-8h0c-8.837,0-16-7.163-16-16v0C392,179.582,388.418,176,384,176z"/>
	</g>
	<g>
		<circle class="st16" cx="360" cy="285.333" r="40"/>
	</g>
	<g>
		<path class="st11" d="M96,192L96,192c-8.837,0-16-7.163-16-16v-16h32v16C112,184.837,104.837,192,96,192z"/>
	</g>
	<g>
		<path class="st11" d="M128,192L128,192c-8.837,0-16-7.163-16-16v-16h32v16C144,184.837,136.837,192,128,192z"/>
	</g>
	<g>
		<path class="st11" d="M160,192L160,192c-8.837,0-16-7.163-16-16v-16h32v16C176,184.837,168.837,192,160,192z"/>
	</g>
	<g>
		<path class="st11" d="M192,192L192,192c-8.837,0-16-7.163-16-16v-16h32v16C208,184.837,200.837,192,192,192z"/>
	</g>
	<g>
		<path class="st9" d="M96,40v24c-8.836,0-16,7.164-16,16v80h128V40H96z"/>
	</g>
	<g>
		<path class="st11" d="M208,40h-56v0c0,13.255,10.745,24,24,24h32V40z"/>
	</g>
	<g>
		<path class="st11" d="M240,128h-32V64h0c17.673,0,32,14.327,32,32V128z"/>
	</g>
	<g>
		<path class="st1" d="M208,40H96c-8.837,0-16-7.163-16-16v-8h144v8C224,32.837,216.837,40,208,40z"/>
	</g>
	<g>
		<path class="st0" d="M208,40h-56V16h72v8C224,32.837,216.837,40,208,40z"/>
	</g>
	<g>
		<path class="st1" d="M464,472H352c-8.837,0-16,7.163-16,16v8h144v-8C480,479.163,472.837,472,464,472z"/>
	</g>
	<g>
		<path class="st0" d="M464,472h-56v24h72v-8C480,479.163,472.837,472,464,472z"/>
	</g>
	<g>
		<path class="st9" d="M419.314,307.313c-6.248-6.248-16.379-6.248-22.627,0l-0.726,0.726c-12.497,12.497-12.497,32.758,0,45.255
			L408,365.333V400c0,30.928,25.072,56,56,56l0,0V352L419.314,307.313z"/>
	</g>
	<g>
		<path class="st11" d="M421.333,309.333l-2.02,2.02c-6.248,6.248-6.248,16.379,0,22.627l1.696,1.696
			c3.124,3.124,8.19,3.124,11.314,0L440,328L421.333,309.333z"/>
	</g>
</g>
</svg>
