<?xml version="1.0" encoding="utf-8"?>
<!-- Generator: Adobe Illustrator 23.0.0, SVG Export Plug-In . SVG Version: 6.00 Build 0)  -->
<svg version="1.1" id="Layer_1" xmlns="http://www.w3.org/2000/svg" xmlns:xlink="http://www.w3.org/1999/xlink" x="0px" y="0px"
	 viewBox="0 0 512 512" style="enable-background:new 0 0 512 512;" xml:space="preserve">
<style type="text/css">
	.st0{fill:#463C4B;}
	.st1{fill:#555A6E;}
	.st2{fill:#289BC3;}
	.st3{fill:#00D2D2;}
	.st4{fill:#D7E6F0;}
	.st5{fill:#FF6E91;}
	.st6{fill:#6E7896;}
	.st7{fill:#FAA037;}
	.st8{fill:#E64178;}
	.st9{fill:#FAB991;}
	.st10{fill:#A5C3DC;}
	.st11{fill:#F0915A;}
	.st12{fill:#FFD241;}
	.st13{fill:#32283C;}
	.st14{fill:#E6E6EB;}
	.st15{fill:#466932;}
	.st16{fill:#78AF41;}
	.st17{fill:#F57328;}
	.st18{fill:#C8733C;}
</style>
<g>
	<g>
		<g>
			<path class="st9" d="M248,388h-68.118c-12.73,0-24.939,5.057-33.941,14.059L128,420l40,40l19.314-19.314
				c3.001-3.001,7.07-4.686,11.314-4.686H248c13.255,0,24-10.745,24-24v0C272,398.745,261.255,388,248,388z"/>
		</g>
		<g>
			<path class="st11" d="M363.314,376.686c-6.248-6.249-16.379-6.249-22.627,0L281.373,436h-82.745
				c-4.243,0-8.313,1.686-11.314,4.686L168,460l24,24l16-16h76.687c6.411,0,12.438-2.497,16.97-7.03l61.657-61.657
				C369.562,393.065,369.562,382.935,363.314,376.686z"/>
		</g>
		<g>
			<path class="st11" d="M248,425.333h-5.333c-4.418,0-8-3.582-8-8v-10.667c0-4.418,3.582-8,8-8H248
				c7.364,0,13.333,5.97,13.333,13.333l0,0C261.333,419.364,255.364,425.333,248,425.333z"/>
		</g>
		<g>
			<path class="st1" d="M125.657,417.657L168,460l-40,40H32l82.343-82.343C117.467,414.533,122.533,414.533,125.657,417.657z"/>
		</g>
		<g>
			<path class="st0" d="M168,460l26.343,26.343c3.124,3.124,3.124,8.19,0,11.314L192,500h-64L168,460z"/>
		</g>
	</g>
	<g>
		<path class="st10" d="M232,12h-48c-4.418,0-8,3.582-8,8s3.582,8,8,8c30.879,0,56,25.121,56,56c0,2.122,0.843,4.157,2.343,5.657
			C243.844,91.157,245.878,92,248,92l48,0c4.418,0,8-3.582,8-8C304,44.299,271.701,12,232,12z"/>
		<path class="st10" d="M360,12h-48c-39.701,0-72,32.299-72,72c0,2.122,0.843,4.157,2.343,5.657C243.844,91.157,245.878,92,248,92
			l48,0c4.418,0,8-3.582,8-8c0-30.878,25.121-56,56-56c4.418,0,8-3.582,8-8S364.418,12,360,12z"/>
		<path class="st10" d="M384,12h-48c-4.418,0-8,3.582-8,8s3.582,8,8,8c13.233,0,24,10.766,24,24c0,13.234-10.767,24-24,24
			c-4.418,0-8,3.582-8,8s3.582,8,8,8h48c22.056,0,40-17.944,40-40C424,29.944,406.056,12,384,12z"/>
		<path class="st10" d="M208,76c-13.233,0-24-10.766-24-24c0-13.234,10.767-24,24-24c4.418,0,8-3.582,8-8s-3.582-8-8-8h-48
			c-22.056,0-40,17.944-40,40c0,22.056,17.944,40,40,40h48c4.418,0,8-3.582,8-8S212.418,76,208,76z"/>
		<g>
			<path class="st8" d="M464,92H80c-8.837,0-16,7.163-16,16v32c0,8.837,7.163,16,16,16h384c8.837,0,16-7.163,16-16v-32
				C480,99.163,472.836,92,464,92z"/>
		</g>
		<g>
			<path class="st8" d="M432,388H112c-8.837,0-16-7.163-16-16V156h352v216C448,380.837,440.836,388,432,388z"/>
		</g>
		<g>
			<path class="st5" d="M256,388H112c-8.837,0-16-7.163-16-16V156h176v216C272,380.837,264.836,388,256,388z"/>
		</g>
		<g>
			<path class="st5" d="M272,92H80c-8.837,0-16,7.163-16,16v32c0,8.837,7.163,16,16,16h192c8.837,0,16-7.163,16-16v-32
				C288,99.163,280.836,92,272,92z"/>
		</g>
		<g>
			<rect x="96" y="156" class="st8" width="176" height="32"/>
		</g>
		<g>
			<path class="st4" d="M208,372c0,8.837,7.163,16,16,16h0h-48c-8.837,0-16-7.163-16-16V156h48V372z"/>
		</g>
		<g>
			<path class="st10" d="M384,372c0,8.837-7.163,16-16,16h-48h0c8.837,0,16-7.163,16-16V156h48V372z"/>
		</g>
		<g>
			<rect x="160" y="156" class="st10" width="48" height="32"/>
		</g>
		<g>
			<path class="st4" d="M184,140c0,8.837,7.163,16,16,16h0h-48c-8.837,0-16-7.163-16-16v-32c0-8.837,7.163-16,16-16h48h0
				c-8.837,0-16,7.163-16,16V140z"/>
		</g>
		<g>
			<path class="st10" d="M360,140c0,8.837-7.163,16-16,16h0h48c8.837,0,16-7.163,16-16v-32c0-8.837-7.163-16-16-16h-48h0
				c8.837,0,16,7.163,16,16V140z"/>
		</g>
		<g>
			<path class="st4" d="M336,92h-96v-8c0-39.701,32.299-72,72-72h24c22.056,0,40,17.944,40,40S358.056,92,336,92z M256.569,76H336
				c13.233,0,24-10.766,24-24s-10.767-24-24-24h-24C283.837,28,260.464,48.898,256.569,76z"/>
		</g>
		<g>
			<path class="st4" d="M248,92h-88c-22.056,0-40-17.944-40-40s17.944-40,40-40h24c39.701,0,72,32.299,72,72v8L248,92z M160,28
				c-13.233,0-24,10.766-24,24s10.767,24,24,24h79.431C235.536,48.898,212.163,28,184,28H160z"/>
		</g>
	</g>
</g>
</svg>
