<?xml version="1.0" encoding="utf-8"?>
<!-- Generator: Adobe Illustrator 23.0.0, SVG Export Plug-In . SVG Version: 6.00 Build 0)  -->
<svg version="1.1" id="Layer_1" xmlns="http://www.w3.org/2000/svg" xmlns:xlink="http://www.w3.org/1999/xlink" x="0px" y="0px"
	 viewBox="0 0 512 512" style="enable-background:new 0 0 512 512;" xml:space="preserve">
<style type="text/css">
	.st0{fill:#463C4B;}
	.st1{fill:#555A6E;}
	.st2{fill:#289BC3;}
	.st3{fill:#00D2D2;}
	.st4{fill:#D7E6F0;}
	.st5{fill:#FF6E91;}
	.st6{fill:#6E7896;}
	.st7{fill:#FAA037;}
	.st8{fill:#E64178;}
	.st9{fill:#FAB991;}
	.st10{fill:#A5C3DC;}
	.st11{fill:#F0915A;}
	.st12{fill:#FFD241;}
	.st13{fill:#32283C;}
	.st14{fill:#E6E6EB;}
	.st15{fill:#466932;}
	.st16{fill:#78AF41;}
	.st17{fill:#F57328;}
	.st18{fill:#C8733C;}
</style>
<g>
	<g>
		<path class="st0" d="M392,496H120c-17.673,0-32-14.327-32-32V48c0-17.673,14.327-32,32-32h272c17.673,0,32,14.327,32,32v416
			C424,481.673,409.673,496,392,496z"/>
	</g>
	<g>
		<path class="st1" d="M344,496H120c-17.673,0-32-14.327-32-32V48c0-17.673,14.327-32,32-32h224c17.673,0,32,14.327,32,32v416
			C376,481.673,361.673,496,344,496z"/>
	</g>
	<g>
		<path class="st4" d="M328,464H136c-8.837,0-16-7.163-16-16V96c0-8.837,7.163-16,16-16h192c8.837,0,16,7.163,16,16v352
			C344,456.837,336.837,464,328,464z"/>
	</g>
	<g>
		<path class="st0" d="M256,56h-48c-4.418,0-8-3.582-8-8v0c0-4.418,3.582-8,8-8h48c4.418,0,8,3.582,8,8v0
			C264,52.418,260.418,56,256,56z"/>
	</g>
	<g>
		<g>
			<path class="st1" d="M152,176c-4.418,0-8-3.582-8-8v-40c0-4.418,3.582-8,8-8h40c4.418,0,8,3.582,8,8s-3.582,8-8,8h-32v32
				C160,172.418,156.418,176,152,176z"/>
		</g>
		<g>
			<path class="st1" d="M192,296h-40c-4.418,0-8-3.582-8-8v-40c0-4.418,3.582-8,8-8s8,3.582,8,8v32h32c4.418,0,8,3.582,8,8
				S196.418,296,192,296z"/>
		</g>
		<g>
			<path class="st1" d="M312,176c-4.418,0-8-3.582-8-8v-32h-32c-4.418,0-8-3.582-8-8s3.582-8,8-8h40c4.418,0,8,3.582,8,8v40
				C320,172.418,316.418,176,312,176z"/>
		</g>
		<g>
			<path class="st1" d="M312,296h-40c-4.418,0-8-3.582-8-8s3.582-8,8-8h32v-32c0-4.418,3.582-8,8-8s8,3.582,8,8v40
				C320,292.418,316.418,296,312,296z"/>
		</g>
		<g>
			<path class="st1" d="M216,200h-32c-4.418,0-8-3.582-8-8v-32c0-4.418,3.582-8,8-8h32c4.418,0,8,3.582,8,8v32
				C224,196.418,220.418,200,216,200z M192,184h16v-16h-16V184z"/>
		</g>
		<g>
			<path class="st1" d="M280,200h-32c-4.418,0-8-3.582-8-8v-32c0-4.418,3.582-8,8-8h32c4.418,0,8,3.582,8,8v32
				C288,196.418,284.418,200,280,200z M256,184h16v-16h-16V184z"/>
		</g>
		<g>
			<path class="st1" d="M216,264h-32c-4.418,0-8-3.582-8-8v-32c0-4.418,3.582-8,8-8h32c4.418,0,8,3.582,8,8v32
				C224,260.418,220.418,264,216,264z M192,248h16v-16h-16V248z"/>
		</g>
		<g>
			<path class="st1" d="M256,232h-8c-4.418,0-8-3.582-8-8v0c0-4.418,3.582-8,8-8h8c4.418,0,8,3.582,8,8v0
				C264,228.418,260.418,232,256,232z"/>
		</g>
		<g>
			<path class="st1" d="M280,264h-8c-4.418,0-8-3.582-8-8v0c0-4.418,3.582-8,8-8h8c4.418,0,8,3.582,8,8v0
				C288,260.418,284.418,264,280,264z"/>
		</g>
		<g>
			<path class="st1" d="M288,224v8c0,4.418-3.582,8-8,8l0,0c-4.418,0-8-3.582-8-8v-8c0-4.418,3.582-8,8-8l0,0
				C284.418,216,288,219.582,288,224z"/>
		</g>
		<g>
			<path class="st1" d="M256,248v8c0,4.418-3.582,8-8,8h0c-4.418,0-8-3.582-8-8v-8c0-4.418,3.582-8,8-8h0
				C252.418,240,256,243.582,256,248z"/>
		</g>
	</g>
	<g>
		<path class="st10" d="M296,400H168c-13.255,0-24-10.745-24-24v0c0-13.255,10.745-24,24-24h128c13.255,0,24,10.745,24,24v0
			C320,389.255,309.255,400,296,400z"/>
	</g>
	<g>
		<path class="st2" d="M248,400h-80c-13.255,0-24-10.745-24-24v0c0-13.255,10.745-24,24-24h80c13.255,0,24,10.745,24,24v0
			C272,389.255,261.255,400,248,400z"/>
	</g>
	<g>
		<polygon class="st3" points="184,400 168,400 184,352 200,352 		"/>
	</g>
	<g>
		<polygon class="st3" points="232,400 216,400 232,352 248,352 		"/>
	</g>
</g>
</svg>
