<?xml version="1.0" encoding="utf-8"?>
<!-- Generator: Adobe Illustrator 23.0.0, SVG Export Plug-In . SVG Version: 6.00 Build 0)  -->
<svg version="1.1" id="Layer_1" xmlns="http://www.w3.org/2000/svg" xmlns:xlink="http://www.w3.org/1999/xlink" x="0px" y="0px"
	 viewBox="0 0 512 512" style="enable-background:new 0 0 512 512;" xml:space="preserve">
<style type="text/css">
	.st0{fill:#463C4B;}
	.st1{fill:#555A6E;}
	.st2{fill:#289BC3;}
	.st3{fill:#00D2D2;}
	.st4{fill:#D7E6F0;}
	.st5{fill:#FF6E91;}
	.st6{fill:#6E7896;}
	.st7{fill:#FAA037;}
	.st8{fill:#E64178;}
	.st9{fill:#FAB991;}
	.st10{fill:#A5C3DC;}
	.st11{fill:#F0915A;}
	.st12{fill:#FFD241;}
	.st13{fill:#32283C;}
	.st14{fill:#E6E6EB;}
	.st15{fill:#466932;}
	.st16{fill:#78AF41;}
	.st17{fill:#F57328;}
	.st18{fill:#C8733C;}
</style>
<g>
	<g>
		<g>
			<path class="st10" d="M448,48L448,48c-26.51,0-48,21.49-48,48v67.275c2.46-1.919,5.425-3.275,9.612-3.275
				c14.398,0,14.398,16,28.796,16c14.396,0,14.396-16,28.793-16c14.4,0,14.4,16,28.799,16V96C496,69.49,474.51,48,448,48z"/>
		</g>
		<g>
			<path class="st4" d="M112,416c0,26.51-21.49,48-48,48h0h288c26.51,0,48-21.49,48-48V96c0-26.51,21.49-48,48-48h0H160
				c-26.51,0-48,21.49-48,48V416z"/>
		</g>
		<g>
			<path class="st10" d="M304,416v-48c-14.403,0-14.403,16-28.805,16s-14.403-16-28.805-16c-14.401,0-14.401,16-28.801,16
				c-14.401,0-14.401-16-28.802-16c-14.4,0-14.4,16-28.801,16c-14.4,0-14.4-16-28.8-16c-14.398,0-14.398,16-28.797,16
				c-14.398,0-14.398-16-28.796-16c-14.396,0-14.396,16-28.793,16c-14.4,0-14.4-16-28.799-16v48c0,26.51,21.49,48,48,48h288
				C325.49,464,304,442.51,304,416z"/>
		</g>
	</g>
	<g>
		<g>
			<path class="st10" d="M160,128h112c8.837,0,16,7.163,16,16v0c0,8.837-7.163,16-16,16H160.41c-8.854,0-16.34-7.018-16.409-15.871
				c-0.035-4.471,1.762-8.52,4.679-11.449C151.58,129.79,155.58,128,160,128z"/>
		</g>
		<g>
			<path class="st10" d="M367.999,143.871c0.035,4.471-1.762,8.52-4.679,11.449c-2.9,2.89-6.9,4.68-11.32,4.68h-16
				c-8.837,0-16-7.163-16-16v0c0-8.837,7.163-16,16-16h15.59C360.444,128,367.93,135.018,367.999,143.871z"/>
		</g>
		<g>
			<path class="st10" d="M160,208h112c8.837,0,16,7.163,16,16v0c0,8.837-7.163,16-16,16H160.41c-8.854,0-16.34-7.018-16.409-15.871
				c-0.035-4.471,1.762-8.52,4.679-11.449C151.58,209.79,155.58,208,160,208z"/>
		</g>
		<g>
			<path class="st10" d="M367.999,223.871c0.035,4.471-1.762,8.52-4.679,11.449c-2.9,2.89-6.9,4.68-11.32,4.68h-16
				c-8.837,0-16-7.163-16-16v0c0-8.837,7.163-16,16-16h15.59C360.444,208,367.93,215.018,367.999,223.871z"/>
		</g>
		<g>
			<path class="st10" d="M160,288h112c8.837,0,16,7.163,16,16v0c0,8.837-7.163,16-16,16H160.41c-8.854,0-16.34-7.018-16.409-15.871
				c-0.035-4.471,1.762-8.52,4.679-11.449C151.58,289.79,155.58,288,160,288z"/>
		</g>
		<g>
			<path class="st10" d="M367.999,303.871c0.035,4.471-1.762,8.52-4.679,11.449c-2.9,2.89-6.9,4.68-11.32,4.68h-16
				c-8.837,0-16-7.163-16-16v0c0-8.837,7.163-16,16-16h15.59C360.444,288,367.93,295.018,367.999,303.871z"/>
		</g>
	</g>
	<g>
		<circle class="st5" cx="112" cy="144" r="96"/>
	</g>
	<path class="st4" d="M144,128c4.418,0,8-3.582,8-8v-1.538C152,101.665,138.335,88,121.538,88H120V72c0-4.418-3.582-8-8-8
		s-8,3.582-8,8v16h-1.538C85.665,88,72,101.665,72,118.462c0,14.004,9.488,26.156,23.074,29.553l29.971,7.492
		c6.45,1.613,10.955,7.383,10.955,14.031c0,7.975-6.487,14.462-14.462,14.462h-19.076C94.487,184,88,177.513,88,169.538V168
		c0-4.418-3.582-8-8-8s-8,3.582-8,8v1.538C72,186.335,85.665,200,102.462,200H104v16c0,4.418,3.582,8,8,8s8-3.582,8-8v-16h1.538
		C138.335,200,152,186.335,152,169.538c0-14.004-9.488-26.156-23.074-29.553l-29.971-7.492C92.505,130.88,88,125.11,88,118.462
		C88,110.487,94.487,104,102.462,104h19.076c7.975,0,14.462,6.487,14.462,14.462V120C136,124.418,139.582,128,144,128z"/>
</g>
</svg>
