<?xml version="1.0" encoding="utf-8"?>
<!-- Generator: Adobe Illustrator 23.0.0, SVG Export Plug-In . SVG Version: 6.00 Build 0)  -->
<svg version="1.1" id="Layer_1" xmlns="http://www.w3.org/2000/svg" xmlns:xlink="http://www.w3.org/1999/xlink" x="0px" y="0px"
	 viewBox="0 0 512 512" style="enable-background:new 0 0 512 512;" xml:space="preserve">
<style type="text/css">
	.st0{fill:#463C4B;}
	.st1{fill:#555A6E;}
	.st2{fill:#289BC3;}
	.st3{fill:#00D2D2;}
	.st4{fill:#D7E6F0;}
	.st5{fill:#FF6E91;}
	.st6{fill:#6E7896;}
	.st7{fill:#FAA037;}
	.st8{fill:#E64178;}
	.st9{fill:#FAB991;}
	.st10{fill:#A5C3DC;}
	.st11{fill:#F0915A;}
	.st12{fill:#FFD241;}
	.st13{fill:#32283C;}
	.st14{fill:#E6E6EB;}
	.st15{fill:#466932;}
	.st16{fill:#78AF41;}
	.st17{fill:#F57328;}
	.st18{fill:#C8733C;}
</style>
<g>
	<g>
		<path class="st4" d="M32,352c-4.418,0-8-3.582-8-8v-8c0-22.056,17.944-40,40-40c4.418,0,8,3.582,8,8s-3.582,8-8,8
			c-13.233,0-24,10.766-24,24v8C40,348.418,36.418,352,32,352z"/>
	</g>
	<path class="st8" d="M492.373,125.856C489.334,122.149,484.794,120,480,120H32c-4.794,0-9.334,2.149-12.373,5.856
		s-4.256,8.582-3.316,13.282l48,240C65.807,386.617,72.373,392,80,392h352c7.627,0,14.193-5.383,15.689-12.862l48-240
		C496.629,134.438,495.412,129.563,492.373,125.856z"/>
	<g>
		<polygon class="st4" points="289.68,360 322.883,360 337.283,288 296.88,288 		"/>
		<polygon class="st4" points="278.32,152 224,152 224,256 267.92,256 		"/>
		<polygon class="st4" points="364.483,152 310.48,152 300.08,256 343.683,256 		"/>
		<polygon class="st4" points="224,360 257.52,360 264.72,288 224,288 		"/>
		<polygon class="st4" points="51.517,152 72.317,256 115.92,256 105.52,152 		"/>
		<polygon class="st4" points="192,152 137.68,152 148.08,256 192,256 		"/>
		<polygon class="st4" points="126.32,360 119.12,288 78.717,288 93.117,360 		"/>
		<polygon class="st4" points="192,360 192,288 151.28,288 158.48,360 		"/>
	</g>
	<path class="st5" d="M396.373,125.856C393.334,122.149,388.794,120,384,120H120.073c-0.02,0-0.04,0-0.06,0H32
		c-4.794,0-9.334,2.149-12.373,5.856s-4.256,8.582-3.316,13.282l48,240C65.807,386.617,72.373,392,80,392h63.96
		c0.007,0,0.014,0.001,0.021,0.001c0.006,0,0.013-0.001,0.02-0.001h128c0.006,0,0.013,0.001,0.02,0.001
		c0.007,0,0.014-0.001,0.021-0.001H336c7.627,0,14.193-5.383,15.689-12.862l48-240C400.629,134.438,399.412,129.563,396.373,125.856
		z M224,360v-72h40.72l-7.2,72H224z M158.48,360l-7.2-72H192v72H158.48z M148.08,256l-10.4-104H192v104H148.08z M224,256V152h54.32
		l-10.4,104H224z M105.52,152l10.4,104H72.317l-20.8-104H105.52z M78.717,288h40.403l7.2,72H93.117L78.717,288z M322.883,360H289.68
		l7.2-72h40.403L322.883,360z M343.683,256H300.08l10.4-104h54.003L343.683,256z"/>
	<g>
		<path class="st8" d="M496,184H16c-4.418,0-8-3.582-8-8v-48c0-4.418,3.582-8,8-8h480c4.418,0,8,3.582,8,8v48
			C504,180.418,500.418,184,496,184z"/>
	</g>
	<g>
		<path class="st5" d="M400,184H16c-4.418,0-8-3.582-8-8v-48c0-4.418,3.582-8,8-8h384c4.418,0,8,3.582,8,8v48
			C408,180.418,404.418,184,400,184z"/>
	</g>
	<g>
		<g>
			<rect x="192" y="184" class="st8" width="32" height="24"/>
		</g>
		<g>
			<polygon class="st8" points="57.917,184 25.283,184 30.083,208 62.717,208 			"/>
		</g>
		<g>
			<polygon class="st8" points="307.28,184 275.12,184 272.72,208 304.88,208 			"/>
		</g>
		<g>
			<polygon class="st8" points="390.717,184 358.083,184 353.283,208 385.917,208 			"/>
		</g>
		<g>
			<polygon class="st8" points="140.88,184 108.72,184 111.12,208 143.28,208 			"/>
		</g>
	</g>
	<g>
		<path class="st0" d="M264,120h88V48c0-8.836-7.164-16-16-16H168c-8.836,0-16,7.164-16,16v104c0,17.673,14.327,32,32,32h24
			c17.673,0,32-14.327,32-32V56h24V120z"/>
	</g>
	<g>
		<path class="st1" d="M184,184L184,184c-17.673,0-32-14.327-32-32V48c0-8.837,7.163-16,16-16h64h0c-8.837,0-16,7.163-16,16v104
			C216,169.673,201.673,184,184,184z"/>
	</g>
	<g>
		<circle class="st3" cx="184" cy="152" r="16"/>
	</g>
	<g>
		<g>
			<path class="st0" d="M195.373,480H480c8.837,0,16-7.163,16-16V304c0-8.837-7.163-16-16-16H195.373
				c-7.198,0-14.017,3.231-18.575,8.802l-59.732,73.006C113.79,373.812,112,378.827,112,384l0,0c0,5.173,1.79,10.188,5.066,14.192
				l59.732,73.006C181.356,476.769,188.175,480,195.373,480z"/>
		</g>
		<g>
			<path class="st1" d="M195.373,480H456c8.837,0,16-7.163,16-16V304c0-8.837-7.163-16-16-16H195.373
				c-7.198,0-14.017,3.231-18.575,8.802l-59.732,73.006C113.79,373.812,112,378.827,112,384l0,0c0,5.173,1.79,10.188,5.066,14.192
				l59.732,73.006C181.356,476.769,188.175,480,195.373,480z"/>
		</g>
		<g>
			<circle class="st0" cx="152" cy="384" r="24"/>
		</g>
		<g>
			<path class="st3" d="M220,320c-15.439,0-28,12.561-28,28v14.459c0,11.516,6.909,21.72,17.601,25.997l14.856,5.942
				c4.582,1.833,7.543,6.207,7.543,11.142V420c0,6.617-5.383,12-12,12s-12-5.383-12-12v-4c0-4.418-3.582-8-8-8s-8,3.582-8,8v4
				c0,15.439,12.561,28,28,28s28-12.561,28-28v-14.459c0-11.516-6.909-21.72-17.601-25.997l-14.856-5.942
				c-4.582-1.833-7.543-6.207-7.543-11.142V348c0-6.617,5.383-12,12-12s12,5.383,12,12v4c0,4.418,3.582,8,8,8s8-3.582,8-8v-4
				C248,332.561,235.439,320,220,320z"/>
			<path class="st3" d="M292,320c-15.439,0-28,12.561-28,28v92c0,4.418,3.582,8,8,8s8-3.582,8-8v-48h24v48c0,4.418,3.582,8,8,8
				s8-3.582,8-8v-92C320,332.561,307.439,320,292,320z M280,376v-28c0-6.617,5.383-12,12-12s12,5.383,12,12v28H280z"/>
			<path class="st3" d="M384,432h-24c-4.411,0-8-3.589-8-8v-96c0-4.418-3.582-8-8-8s-8,3.582-8,8v96c0,13.233,10.767,24,24,24h24
				c4.418,0,8-3.582,8-8S388.418,432,384,432z"/>
			<path class="st3" d="M448,432h-24c-4.411,0-8-3.589-8-8v-32h16c4.418,0,8-3.582,8-8s-3.582-8-8-8h-16v-32c0-4.411,3.589-8,8-8h24
				c4.418,0,8-3.582,8-8s-3.582-8-8-8h-24c-13.233,0-24,10.767-24,24v80c0,13.233,10.767,24,24,24h24c4.418,0,8-3.582,8-8
				S452.418,432,448,432z"/>
		</g>
	</g>
	<g>
		<path class="st4" d="M152,392H64c-22.056,0-40-17.944-40-40v-8c0-4.418,3.582-8,8-8s8,3.582,8,8v8c0,13.234,10.767,24,24,24h88
			c4.418,0,8,3.582,8,8S156.418,392,152,392z"/>
	</g>
	<g>
		<rect x="264" y="56" class="st1" width="64" height="64"/>
	</g>
</g>
</svg>
