<?xml version="1.0" encoding="utf-8"?>
<!-- Generator: Adobe Illustrator 23.0.0, SVG Export Plug-In . SVG Version: 6.00 Build 0)  -->
<svg version="1.1" id="Layer_1" xmlns="http://www.w3.org/2000/svg" xmlns:xlink="http://www.w3.org/1999/xlink" x="0px" y="0px"
	 viewBox="0 0 512 512" style="enable-background:new 0 0 512 512;" xml:space="preserve">
<style type="text/css">
	.st0{fill:#463C4B;}
	.st1{fill:#555A6E;}
	.st2{fill:#289BC3;}
	.st3{fill:#00D2D2;}
	.st4{fill:#D7E6F0;}
	.st5{fill:#FF6E91;}
	.st6{fill:#6E7896;}
	.st7{fill:#FAA037;}
	.st8{fill:#E64178;}
	.st9{fill:#FAB991;}
	.st10{fill:#A5C3DC;}
	.st11{fill:#F0915A;}
	.st12{fill:#FFD241;}
	.st13{fill:#32283C;}
	.st14{fill:#E6E6EB;}
	.st15{fill:#466932;}
	.st16{fill:#78AF41;}
	.st17{fill:#F57328;}
	.st18{fill:#C8733C;}
</style>
<g>
	<g>
		<path class="st1" d="M56,288c-4.418,0-8-3.582-8-8s3.582-8,8-8c8.822,0,16-7.178,16-16c0-4.418,3.582-8,8-8s8,3.582,8,8
			C88,273.645,73.645,288,56,288z"/>
	</g>
	<g>
		<path class="st2" d="M493.333,136v-16c0-22.056-17.944-40-40-40h-24c-1.067,0-2.109,0.109-3.117,0.309
			c-1.602-0.196-3.229-0.309-4.883-0.309h-24c-1.384,0-2.719,0.194-4,0.524c-1.281-0.33-2.616-0.524-4-0.524h-80
			c-5.274,0-9.937,2.563-12.852,6.498C290.202,82.395,282.711,80,274.667,80h-56c-2.918,0-5.645,0.794-8,2.158
			c-2.355-1.365-5.082-2.158-8-2.158l0,0h-32l0,0h0c-2.918,0-5.645,0.794-8,2.158c-2.355-1.365-5.082-2.158-8-2.158l0,0h-32l0,0h0
			c-5.273,0-9.937,2.563-12.851,6.498C103.536,82.395,96.044,80,88,80H56c-22.056,0-40,17.944-40,40v27.156
			c0,13.405,6.659,25.847,17.812,33.282l26.626,17.75c2.23,1.487,3.562,3.975,3.562,6.656V208H32c-8.836,0-16,7.164-16,16v8
			c0,21.159,16.517,38.523,37.333,39.901V272H88c11.581,0,22.022-4.952,29.333-12.843c7.311,7.891,17.753,12.843,29.333,12.843h0
			l0,0h32l0,0c9.693,0,18.59-3.468,25.521-9.225c2.553,5.445,8.068,9.225,14.479,9.225h0l0,0h32l0,0c8.836,0,16-7.164,16-16v-80h8
			c6.739,0,13.09-1.682,18.667-4.638V256c0,8.836,7.163,16,16,16h80c1.384,0,2.719-0.194,4-0.524c1.281,0.33,2.616,0.524,4,0.524h0
			l0,0h32l0,0c2.917,0,5.644-0.793,7.999-2.158c2.392,1.383,5.136,2.162,7.989,2.162c0.042,0,0.085-0.003,0.128-0.004h31.779
			c0.031,0,0.062,0.004,0.093,0.004c1.284,0,2.59-0.156,3.893-0.481c8.572-2.144,13.784-10.83,11.642-19.403l-20.268-81.072
			C484.942,164.233,493.333,151.08,493.333,136z M83.562,153.812c-2.23-1.487-3.562-3.975-3.562-6.656V144h26.667v25.214
			L83.562,153.812z M357.333,240v-64h16c2.918,0,5.645-0.794,8-2.158V240H357.333z M381.333,112v34.158
			c-2.355-1.364-5.082-2.158-8-2.158h-16v-32H381.333z"/>
	</g>
	<g>
		<path class="st1" d="M72.97,247.03c-2.044,0-4.088-0.778-5.65-2.336C64.286,241.667,60.266,240,56,240c-4.418,0-8-3.582-8-8
			s3.582-8,8-8c8.533,0,16.566,3.326,22.621,9.366c3.127,3.121,3.134,8.186,0.013,11.314C77.071,246.246,75.021,247.03,72.97,247.03
			z"/>
	</g>
	<g>
		<g>
			<path class="st3" d="M56,80c-22.056,0-40,17.944-40,40v27.156c0,13.405,6.659,25.847,17.812,33.282l26.626,17.75
				c2.23,1.487,3.562,3.975,3.562,6.656V232c0,4.411-3.589,8-8,8s-8-3.589-8-8v-8c0-8.836-7.164-16-16-16s-16,7.164-16,16v8
				c0,22.056,17.944,40,40,40s40-17.944,40-40v-27.156c0-13.405-6.659-25.847-17.812-33.282l-26.626-17.75
				c-2.23-1.487-3.562-3.975-3.562-6.656V120c0-4.411,3.589-8,8-8s8,3.589,8,8v8c0,8.836,7.164,16,16,16s16-7.164,16-16v-8
				C96,97.944,78.056,80,56,80z"/>
		</g>
		<g>
			<path class="st3" d="M170.667,80c-8.836,0-16,7.164-16,16v136c0,4.411-3.589,8-8,8s-8-3.589-8-8V96c0-8.836-7.164-16-16-16
				s-16,7.164-16,16v136c0,22.056,17.944,40,40,40s40-17.944,40-40V96C186.667,87.164,179.503,80,170.667,80z"/>
		</g>
		<g>
			<path class="st3" d="M242.667,80h-24c-8.836,0-16,7.164-16,16v160c0,8.836,7.164,16,16,16s16-7.164,16-16v-80h8
				c22.056,0,40-17.944,40-40v-16C282.667,97.944,264.723,80,242.667,80z M250.667,136c0,4.411-3.589,8-8,8h-8v-32h8
				c4.412,0,8,3.589,8,8V136z"/>
		</g>
		<g>
			<path class="st3" d="M461.333,136v-16c0-22.056-17.944-40-40-40h-24c-8.837,0-16,7.164-16,16v160c0,8.836,7.163,16,16,16
				s16-7.164,16-16v-62.03l16.478,65.91c1.817,7.271,8.341,12.124,15.511,12.124c1.284,0,2.59-0.156,3.893-0.481
				c8.572-2.144,13.784-10.83,11.642-19.403l-20.268-81.072C452.942,164.233,461.333,151.08,461.333,136z M413.333,112h8
				c4.411,0,8,3.589,8,8v16c0,4.411-3.589,8-8,8h-8V112z"/>
		</g>
		<g>
			<path class="st3" d="M357.333,112c8.837,0,16-7.164,16-16s-7.163-16-16-16h-48c-8.837,0-16,7.164-16,16v160
				c0,8.836,7.163,16,16,16h48c8.837,0,16-7.164,16-16s-7.163-16-16-16h-32v-64h16c8.837,0,16-7.164,16-16s-7.163-16-16-16h-16v-32
				H357.333z"/>
		</g>
	</g>
	<g>
		<g>
			<path class="st10" d="M195.373,432H480c8.837,0,16-7.163,16-16V256c0-8.837-7.163-16-16-16H195.373
				c-7.198,0-14.017,3.231-18.575,8.802l-59.732,73.006C113.79,325.812,112,330.827,112,336l0,0c0,5.173,1.79,10.188,5.066,14.192
				l59.732,73.006C181.356,428.769,188.175,432,195.373,432z"/>
		</g>
		<g>
			<path class="st4" d="M195.373,432H456c8.837,0,16-7.163,16-16V256c0-8.837-7.163-16-16-16H195.373
				c-7.198,0-14.017,3.231-18.575,8.802l-59.732,73.006C113.79,325.812,112,330.827,112,336l0,0c0,5.173,1.79,10.188,5.066,14.192
				l59.732,73.006C181.356,428.769,188.175,432,195.373,432z"/>
		</g>
		<g>
			<circle class="st10" cx="152" cy="336" r="24"/>
		</g>
		<g>
			<path class="st5" d="M220,272c-15.439,0-28,12.561-28,28v14.459c0,11.516,6.909,21.721,17.601,25.997l14.855,5.942
				c4.583,1.833,7.543,6.206,7.543,11.142V372c0,6.617-5.383,12-12,12s-12-5.383-12-12v-4c0-4.418-3.582-8-8-8s-8,3.582-8,8v4
				c0,15.439,12.561,28,28,28s28-12.561,28-28v-14.459c0-11.516-6.909-21.721-17.601-25.997l-14.855-5.942
				c-4.583-1.833-7.543-6.206-7.543-11.142V300c0-6.617,5.383-12,12-12s12,5.383,12,12v4c0,4.418,3.582,8,8,8s8-3.582,8-8v-4
				C248,284.561,235.439,272,220,272z"/>
			<path class="st5" d="M292,272c-15.439,0-28,12.561-28,28v92c0,4.418,3.582,8,8,8s8-3.582,8-8v-48h24v48c0,4.418,3.582,8,8,8
				s8-3.582,8-8v-92C320,284.561,307.439,272,292,272z M280,328v-28c0-6.617,5.383-12,12-12s12,5.383,12,12v28H280z"/>
			<path class="st5" d="M384,384h-24c-4.411,0-8-3.589-8-8v-96c0-4.418-3.582-8-8-8s-8,3.582-8,8v96c0,13.233,10.767,24,24,24h24
				c4.418,0,8-3.582,8-8S388.418,384,384,384z"/>
			<path class="st5" d="M448,384h-24c-4.411,0-8-3.589-8-8v-32h16c4.418,0,8-3.582,8-8s-3.582-8-8-8h-16v-32c0-4.411,3.589-8,8-8h24
				c4.418,0,8-3.582,8-8s-3.582-8-8-8h-24c-13.233,0-24,10.767-24,24v80c0,13.233,10.767,24,24,24h24c4.418,0,8-3.582,8-8
				S452.418,384,448,384z"/>
		</g>
	</g>
	<g>
		<path class="st1" d="M152,344H88c-22.056,0-40-17.944-40-40v-24c0-4.418,3.582-8,8-8s8,3.582,8,8v24c0,13.234,10.766,24,24,24h64
			c4.418,0,8,3.582,8,8S156.418,344,152,344z"/>
	</g>
	<g>
		<path class="st1" d="M56,288c-17.645,0-32-14.355-32-32s14.355-32,32-32c4.418,0,8,3.582,8,8s-3.582,8-8,8
			c-8.822,0-16,7.178-16,16s7.178,16,16,16c4.418,0,8,3.582,8,8S60.418,288,56,288z"/>
	</g>
</g>
</svg>
