<?xml version="1.0" encoding="utf-8"?>
<!-- Generator: Adobe Illustrator 23.0.0, SVG Export Plug-In . SVG Version: 6.00 Build 0)  -->
<svg version="1.1" id="Layer_1" xmlns="http://www.w3.org/2000/svg" xmlns:xlink="http://www.w3.org/1999/xlink" x="0px" y="0px"
	 viewBox="0 0 512 512" style="enable-background:new 0 0 512 512;" xml:space="preserve">
<style type="text/css">
	.st0{fill:#463C4B;}
	.st1{fill:#555A6E;}
	.st2{fill:#289BC3;}
	.st3{fill:#00D2D2;}
	.st4{fill:#D7E6F0;}
	.st5{fill:#FF6E91;}
	.st6{fill:#6E7896;}
	.st7{fill:#FAA037;}
	.st8{fill:#E64178;}
	.st9{fill:#FAB991;}
	.st10{fill:#A5C3DC;}
	.st11{fill:#F0915A;}
	.st12{fill:#FFD241;}
	.st13{fill:#32283C;}
	.st14{fill:#E6E6EB;}
	.st15{fill:#466932;}
	.st16{fill:#78AF41;}
	.st17{fill:#F57328;}
	.st18{fill:#C8733C;}
</style>
<g>
	<g>
		<path class="st0" d="M448,432H64V208c0-17.673,14.327-32,32-32h320c17.673,0,32,14.327,32,32V432z"/>
	</g>
	<g>
		<path class="st10" d="M400,400H112c-8.837,0-16-7.163-16-16V224c0-8.837,7.163-16,16-16h288c8.837,0,16,7.163,16,16v160
			C416,392.837,408.837,400,400,400z"/>
	</g>
	<g>
		<path class="st4" d="M480,432H32c-8.837,0-16,7.163-16,16v0c0,17.673,14.327,32,32,32h416c17.673,0,32-14.327,32-32v0
			C496,439.163,488.837,432,480,432z"/>
	</g>
	<g>
		<path class="st4" d="M112,364.91V240c0-8.837,7.163-16,16-16h127.125c7.159,0,10.714,8.683,5.61,13.703L125.61,370.613
			C120.551,375.589,112,372.005,112,364.91z"/>
	</g>
	<g>
		<path class="st10" d="M280.641,450.667h-49.282c-4.671,0-9.108-2.041-12.148-5.587L208,432h96l-11.211,13.079
			C289.749,448.626,285.312,450.667,280.641,450.667z"/>
	</g>
	<g>
		<circle class="st10" cx="64" cy="456" r="8"/>
	</g>
	<g>
		<circle class="st10" cx="96" cy="456" r="8"/>
	</g>
	<g>
		<circle class="st10" cx="128" cy="456" r="8"/>
	</g>
	<g>
		<path class="st10" d="M456,464h-48c-4.418,0-8-3.582-8-8l0,0c0-4.418,3.582-8,8-8h48c4.418,0,8,3.582,8,8l0,0
			C464,460.418,460.418,464,456,464z"/>
	</g>
	<g>
		<g>
			<path class="st8" d="M332.173,76.72l-46.099-39.514C282.154,33.847,277.162,32,272,32h-32c-5.162,0-10.154,1.847-14.074,5.206
				L179.827,76.72c-2.429,2.082-3.827,5.122-3.827,8.321C176,91.093,180.907,96,186.959,96h10.374v192c0,8.836,7.163,16,16,16
				h85.333c8.837,0,16-7.164,16-16V96h10.374C331.093,96,336,91.093,336,85.041C336,81.841,334.602,78.802,332.173,76.72z"/>
		</g>
		<g>
			<path class="st5" d="M225.926,37.206L179.827,76.72c-2.429,2.082-3.827,5.122-3.827,8.321C176,91.093,180.907,96,186.959,96
				h10.374v192c0,8.837,7.163,16,16,16h53.333c8.837,0,16-7.163,16-16V96h10.374C299.093,96,304,91.093,304,85.041
				c0-3.199-1.398-6.239-3.827-8.321l-46.099-39.513C250.154,33.847,245.162,32,240,32C234.838,32,229.846,33.847,225.926,37.206z"
				/>
		</g>
	</g>
	<g>
		<circle class="st3" cx="320" cy="192" r="64"/>
	</g>
	<g>
		<path class="st4" d="M306.667,226.667c-2.047,0-4.095-0.781-5.657-2.343l-24-24c-3.125-3.125-3.125-8.189,0-11.314
			c3.124-3.123,8.189-3.123,11.313,0l18.343,18.344l42.343-42.344c3.124-3.123,8.189-3.123,11.313,0
			c3.125,3.125,3.125,8.189,0,11.314l-48,48C310.761,225.886,308.714,226.667,306.667,226.667z"/>
	</g>
</g>
</svg>
