<svg id="Layer_1" data-name="Layer 1" xmlns="http://www.w3.org/2000/svg" viewBox="0 0 128 128"><title>CALENDAR</title><path d="M112.708,14.833H26a4,4,0,0,0-4,4V86.84c.113.075.234.135.343.216l5.073,3.8H34.35l5.685-4.625a8.759,8.759,0,0,1,10.481-.43L63.85,94.939h48.858a4,4,0,0,0,4-4V18.833A4,4,0,0,0,112.708,14.833Z" style="fill:#f0f4f7"/><path d="M112.708,14.833H26a4,4,0,0,0-4,4v1h85.7a4,4,0,0,1,4,4v71.1h1a4,4,0,0,0,4-4V18.833A4,4,0,0,0,112.708,14.833Z" style="fill:#dfe1ea"/><path d="M35.735,1.75h4.829a3,3,0,0,1,3,3V14.833a0,0,0,0,1,0,0H32.735a0,0,0,0,1,0,0V4.75a3,3,0,0,1,3-3Z" style="fill:#3ec2f0"/><path d="M56.538,1.75h4.829a3,3,0,0,1,3,3V14.833a0,0,0,0,1,0,0H53.538a0,0,0,0,1,0,0V4.75a3,3,0,0,1,3-3Z" style="fill:#3ec2f0"/><path d="M77.341,1.75H82.17a3,3,0,0,1,3,3V14.833a0,0,0,0,1,0,0H74.341a0,0,0,0,1,0,0V4.75A3,3,0,0,1,77.341,1.75Z" style="fill:#3ec2f0"/><path d="M98.144,1.75h4.829a3,3,0,0,1,3,3V14.833a0,0,0,0,1,0,0H95.144a0,0,0,0,1,0,0V4.75A3,3,0,0,1,98.144,1.75Z" style="fill:#3ec2f0"/><path d="M102.973,1.75H98.144a2.99,2.99,0,0,0-2.86,2.141,2.969,2.969,0,0,1,.859-.14h4.829a3,3,0,0,1,3,3v8.082h2V4.75A3,3,0,0,0,102.973,1.75Z" style="fill:#0096cf"/><path d="M82.1,1.75H77.271a2.99,2.99,0,0,0-2.86,2.141,2.969,2.969,0,0,1,.859-.14H80.1a3,3,0,0,1,3,3v8.082h2V4.75A3,3,0,0,0,82.1,1.75Z" style="fill:#0096cf"/><path d="M61.227,1.75H56.4a2.99,2.99,0,0,0-2.86,2.141,2.969,2.969,0,0,1,.859-.14h4.829a3,3,0,0,1,3,3v8.082h2V4.75A3,3,0,0,0,61.227,1.75Z" style="fill:#0096cf"/><path d="M40.354,1.75H35.525a2.99,2.99,0,0,0-2.86,2.141,2.969,2.969,0,0,1,.859-.14h4.829a3,3,0,0,1,3,3v8.082h2V4.75A3,3,0,0,0,40.354,1.75Z" style="fill:#0096cf"/><path d="M26,14.833h86.708a4,4,0,0,1,4,4V37.25a0,0,0,0,1,0,0H22a0,0,0,0,1,0,0V18.833A4,4,0,0,1,26,14.833Z" style="fill:#73c6b2"/><path d="M116.025,16.6a4,4,0,0,0-3.317-1.764H26a4,4,0,0,0-4,4v1h85.7a4,4,0,0,1,4,4V37.25h5V18.833A3.981,3.981,0,0,0,116.025,16.6Z" style="fill:#15958c"/><rect x="32.735" y="45.748" width="10.829" height="10.829" style="fill:#f16973"/><rect x="53.538" y="45.748" width="10.829" height="10.829" style="fill:#dfe1ea"/><rect x="74.341" y="45.748" width="10.829" height="10.829" style="fill:#dfe1ea"/><rect x="95.144" y="45.748" width="10.829" height="10.829" style="fill:#dfe1ea"/><rect x="32.735" y="67.625" width="10.829" height="10.829" style="fill:#dfe1ea"/><rect x="53.538" y="67.625" width="10.829" height="10.829" style="fill:#dfe1ea"/><rect x="74.341" y="67.625" width="10.829" height="10.829" style="fill:#dfe1ea"/><rect x="95.144" y="67.625" width="10.829" height="10.829" style="fill:#dfe1ea"/><path d="M96.045,106.3,70.661,99.61,50.516,85.8a8.759,8.759,0,0,0-10.481.43L34.35,90.851H27.416l-5.073-3.8a6.943,6.943,0,0,0-4.159-1.384h0a6.943,6.943,0,0,0-6.943,6.943V113.72a12.53,12.53,0,0,0,12.53,12.53h70a10.1,10.1,0,0,0,10.02-11.391A10.347,10.347,0,0,0,96.045,106.3Z" style="fill:#f0f4f7"/><path d="M14.181,87.673a6.943,6.943,0,0,1,4.159,1.384l5.073,3.8h8.518l2.46-2H27.416l-5.073-3.8a6.938,6.938,0,0,0-9.1.689A6.964,6.964,0,0,1,14.181,87.673Z" style="fill:#dfe1ea"/><path d="M103.79,114.859a10.347,10.347,0,0,0-7.745-8.555L70.661,99.61,50.516,85.8a8.759,8.759,0,0,0-10.481.43l-.285.232a8.749,8.749,0,0,1,6.762,1.34l20.145,13.813,25.383,6.695a10.347,10.347,0,0,1,7.745,8.555,10.08,10.08,0,0,1-3.631,9.1A10.1,10.1,0,0,0,103.79,114.859Z" style="fill:#dfe1ea"/><path d="M103.79,114.859a9.523,9.523,0,0,0-.308-1.488H57.623l-33.851-4.917H11.241v5.265a12.53,12.53,0,0,0,12.53,12.53h70A10.1,10.1,0,0,0,103.79,114.859Z" style="fill:#73c6b2"/><path d="M103.79,114.859a9.523,9.523,0,0,0-.308-1.488H57.623l-33.851-4.917H11.241v3h8.527l33.851,4.917H99.479a9.523,9.523,0,0,1,.308,1.488,10.073,10.073,0,0,1-2.159,7.612A10.1,10.1,0,0,0,103.79,114.859Z" style="fill:#15958c"/><path d="M70.66,99.61a21.685,21.685,0,0,1-24.29-1.17l-1.56-1.17-2.84-2.12-6.72-5.03,4.79-3.89a8.752,8.752,0,0,1,10.48-.43l.48.33,2.93,2.01,4.69,3.21,2.93,2.02Z" style="fill:#3ec2f0"/><path d="M40.04,86.23l-.278.226A8.748,8.748,0,0,1,46.513,87.8l20.05,13.748a21.762,21.762,0,0,0,4.1-1.936l-9.11-6.24L59.414,91.9,56.28,89.748,53.93,88.14,51,86.13l-.48-.33A8.752,8.752,0,0,0,40.04,86.23Z" style="fill:#0096cf"/><path d="M57.29,84.78l-3.36,3.36-9.12,9.13-2.84-2.12L51,86.13l3.82-3.82a1.747,1.747,0,1,1,2.47,2.47Z" style="fill:#0096cf"/><path d="M65,89.92,53.08,101.84a21.88,21.88,0,0,1-3.53-1.42l9.07-9.07,3.9-3.9A1.75,1.75,0,0,1,65,89.92Z" style="fill:#0096cf"/></svg>