<svg id="Layer_1" data-name="Layer 1" xmlns="http://www.w3.org/2000/svg" viewBox="0 0 128 128"><title>CARDIOGRAM</title><rect x="1.75" y="23.542" width="124.5" height="80.917" rx="4" ry="4" style="fill:#73c6b2"/><path d="M122.25,23.542H5.75a4,4,0,0,0-4,4v0h116.5a4,4,0,0,1,4,4v72.913h0a4,4,0,0,0,4-4V27.542A4,4,0,0,0,122.25,23.542Z" style="fill:#15958c"/><rect x="73.5" y="33.542" width="42.75" height="9.125" style="fill:#f0f4f7"/><path d="M73.5,33.542v3h33.748a6,6,0,0,1,6,6v.122h3V33.542Z" style="fill:#dfe1ea"/><rect x="73.5" y="49.135" width="42.75" height="27.865" style="fill:#f16973"/><rect x="11.75" y="33.542" width="52.25" height="60.916" style="fill:#f0f4f7"/><path d="M11.75,33.542v4H54a6,6,0,0,1,6,6V94.458h4V33.542Z" style="fill:#dfe1ea"/><path d="M37.875,50.818a10.4,10.4,0,0,0-14.7,14.7l14.7,14.7,14.7-14.7a10.4,10.4,0,1,0-14.7-14.7Z" style="fill:#f16973"/><path d="M52.58,50.94a10.4,10.4,0,0,0-12.124-1.886,10.392,10.392,0,0,1,9.121,17.591l-12.7,12.7,1,1,14.7-14.7A10.4,10.4,0,0,0,52.58,50.94Z" style="fill:#c64255"/><path d="M55.184,61.166H44.974a1.75,1.75,0,0,0-1.331.614l-2.736,3.206-5.4-7.729a1.749,1.749,0,0,0-1.361-.746,1.724,1.724,0,0,0-1.419.629L29.686,60.8H20.473a10.315,10.315,0,0,0,1.668,3.5h8.365a1.751,1.751,0,0,0,1.346-.631l2.1-2.53,5.378,7.7a1.751,1.751,0,0,0,1.35.746l.085,0A1.75,1.75,0,0,0,42.1,68.98l3.682-4.314h7.562A10.328,10.328,0,0,0,55.184,61.166Z" style="fill:#c64255"/><rect x="73.5" y="85.333" width="9.125" height="9.125" rx="4.562" ry="4.562" style="fill:#ffeace"/><rect x="90.313" y="85.333" width="9.125" height="9.125" rx="4.562" ry="4.562" style="fill:#ffeace"/><rect x="107.125" y="85.333" width="9.125" height="9.125" rx="4.562" ry="4.562" style="fill:#ffeace"/><path d="M111.688,85.333a4.553,4.553,0,0,0-1,.118,4.554,4.554,0,0,1,0,8.889,4.559,4.559,0,1,0,1-9.007Z" style="fill:#ffd892"/><path d="M94.875,85.333a4.553,4.553,0,0,0-1,.118,4.554,4.554,0,0,1,0,8.889,4.559,4.559,0,1,0,1-9.007Z" style="fill:#ffd892"/><path d="M78.062,85.333a4.553,4.553,0,0,0-1,.118,4.554,4.554,0,0,1,0,8.889,4.559,4.559,0,1,0,1-9.007Z" style="fill:#ffd892"/><path d="M104,49.135H73.5v3H85.751v9.18H73.5v3.5H85.751V77h3.5V64.817H100.5V77H104V64.817h9.249V77h3V49.135ZM89.251,61.317v-9.18H100.5v9.18Zm14.748,0v-9.18h3.249a6,6,0,0,1,6,6v3.18Z" style="fill:#c64255"/></svg>