<svg id="Layer_1" data-name="Layer 1" xmlns="http://www.w3.org/2000/svg" viewBox="0 0 128 128"><title>DISTANCE</title><rect x="30.667" y="30.667" width="66.667" height="66.667" rx="4" ry="4" style="fill:#3ec2f0"/><path d="M93.333,30.667H34.667a4,4,0,0,0-3.893,3.11,3.989,3.989,0,0,1,.89-.107H90.331a4,4,0,0,1,4,4V96.336a3.986,3.986,0,0,1-.107.89,4,4,0,0,0,3.11-3.893V34.667A4,4,0,0,0,93.333,30.667Z" style="fill:#0096cf"/><rect x="38.667" y="38.667" width="50.667" height="50.666" transform="translate(0 128) rotate(-90)" style="fill:#ffeace"/><path d="M38.667,38.667v4H79.33a6,6,0,0,1,6,6V89.333h4V38.667Z" style="fill:#ffd892"/><polygon points="88.333 30.667 39.667 30.667 45.667 1.75 82.333 1.75 88.333 30.667" style="fill:#f0f4f7"/><path d="M76.937,22.354H51.062a1.75,1.75,0,0,1,0-3.5H76.937a1.75,1.75,0,0,1,0,3.5Z" style="fill:#73c6b2"/><path d="M75.5,13.563h-23a1.75,1.75,0,0,1,0-3.5h23a1.75,1.75,0,0,1,0,3.5Z" style="fill:#73c6b2"/><polygon points="88.333 97.333 39.667 97.333 45.667 126.25 82.333 126.25 88.333 97.333" style="fill:#f0f4f7"/><path d="M39.667,97.333l.831,4H74.956a6,6,0,0,1,5.875,7.219L77.159,126.25h5.174l6-28.917Z" style="fill:#dfe1ea"/><path d="M76.937,109.146H51.062a1.75,1.75,0,0,1,0-3.5H76.937a1.75,1.75,0,0,1,0,3.5Z" style="fill:#73c6b2"/><path d="M75.5,117.938h-23a1.75,1.75,0,0,1,0-3.5h23a1.75,1.75,0,0,1,0,3.5Z" style="fill:#73c6b2"/><path d="M97.333,40.875h4.542a4,4,0,0,1,4,4V50.25a4,4,0,0,1-4,4H97.333a0,0,0,0,1,0,0V40.875A0,0,0,0,1,97.333,40.875Z" style="fill:#f16973"/><path d="M97.333,63.25h4.542a4,4,0,0,1,4,4V82.125a4,4,0,0,1-4,4H97.333a0,0,0,0,1,0,0V63.25A0,0,0,0,1,97.333,63.25Z" style="fill:#f0f4f7"/><path d="M46.864,52.989l3.059-2.207c.863-.624,1.067-1,1.067-1.427,0-.456-.4-.755-.936-.755a2.625,2.625,0,0,0-1.9.971L46.72,48.119a4.258,4.258,0,0,1,3.394-1.631c1.955,0,3.274,1.175,3.274,2.771,0,1.079-.432,1.919-1.895,2.854l-1.067.684H53.46v2.075h-6.6Z" style="fill:#3ec2f0"/><path d="M54.64,53.792l1.319-1.631a3.312,3.312,0,0,0,2.051.863c.792,0,1.2-.408,1.2-.875,0-.5-.432-.827-1.163-.827a2.262,2.262,0,0,0-1.439.479l-1.523-.576.12-4.593h5.865v2.075H57.327l-.036,1.175a2.542,2.542,0,0,1,1.511-.456,2.569,2.569,0,0,1,2.723,2.638c0,1.823-1.355,2.962-3.514,2.962A4.748,4.748,0,0,1,54.64,53.792Z" style="fill:#3ec2f0"/><path d="M62.679,53.792,64,52.161a3.314,3.314,0,0,0,2.052.863c.791,0,1.2-.408,1.2-.875,0-.5-.432-.827-1.164-.827a2.259,2.259,0,0,0-1.439.479l-1.523-.576.12-4.593h5.864v2.075H65.365l-.035,1.175a2.542,2.542,0,0,1,1.512-.456,2.569,2.569,0,0,1,2.723,2.638c0,1.823-1.355,2.962-3.514,2.962A4.75,4.75,0,0,1,62.679,53.792Z" style="fill:#3ec2f0"/><path d="M81.285,50.926v3.958H79.08V51.346a.852.852,0,0,0-.877-.9.82.82,0,0,0-.875.828v3.61H75.121V51.346a.85.85,0,0,0-.875-.9.82.82,0,0,0-.875.828v3.6H71.055v-6.2h2.316v.756a1.758,1.758,0,0,1,1.605-.9,2.3,2.3,0,0,1,1.943,1.02,2.252,2.252,0,0,1,2.016-1.02A2.328,2.328,0,0,1,81.285,50.926Z" style="fill:#3ec2f0"/><rect x="38.667" y="62.125" width="50.666" height="27.208" style="fill:#73c6b2"/><rect x="85.33" y="62.125" width="4.003" height="27.208" style="fill:#15958c"/><polygon points="80.883 89.333 47.117 89.333 57.125 62.125 70.875 62.125 80.883 89.333" style="fill:#f0f4f7"/><path d="M64,69.625a1.75,1.75,0,0,0,1.75-1.75v-5.75h-3.5v5.75A1.75,1.75,0,0,0,64,69.625Z" style="fill:#73c6b2"/><path d="M64,84.077a1.75,1.75,0,0,1-1.75-1.75v-5.75a1.75,1.75,0,0,1,3.5,0v5.75A1.75,1.75,0,0,1,64,84.077Z" style="fill:#73c6b2"/><rect x="97.333" y="63.25" width="3.292" height="22.875" style="fill:#dfe1ea"/><rect x="97.333" y="40.875" width="3.292" height="13.375" style="fill:#c64255"/></svg>