<svg id="Layer_1" data-name="Layer 1" xmlns="http://www.w3.org/2000/svg" viewBox="0 0 128 128"><title>FINISH FLAG</title><rect x="30.25" y="15" width="81" height="57.94" style="fill:#f16973"/><path d="M100.937,15H30.25v3H40.562v4.884H30.25v3.5H40.562v6.167H30.25v3.5H40.562V42.22H30.25v3.5H40.562v6.167H30.25v3.5H40.562v6.167H30.25v3.5H40.562V72.94h3.5V65.054h7.875V72.94h3.5V65.054h7.875V72.94h3.5V65.054h7.875V72.94h3.5V65.054h7.875V72.94h3.5V65.054h7.875V72.94h3.5V65.054h6.309V72.94h4V15Zm-49,46.554H44.062V55.387h7.875Zm0-9.667H44.062V45.72h7.875Zm0-9.667H44.062V36.054h7.875Zm0-9.667H44.062V26.387h7.875Zm-7.875-9.667V18h7.875v4.884Zm19.25,38.667H55.437V55.387h7.875Zm0-9.667H55.437V45.72h7.875Zm0-9.667H55.437V36.054h7.875Zm0-9.667H55.437V26.387h7.875Zm-7.875-9.667V18h7.875v4.884Zm19.25,38.667H66.812V55.387h7.875Zm0-9.667H66.812V45.72h7.875Zm0-9.667H66.812V36.054h7.875Zm0-9.667H66.812V26.387h7.875Zm-7.875-9.667V18h7.875v4.884Zm19.25,38.667H78.187V55.387h7.875Zm0-9.667H78.187V45.72h7.875Zm0-9.667H78.187V36.054h7.875Zm0-9.667H78.187V26.387h7.875Zm-7.875-9.667V18h7.875v4.884Zm19.25,38.667H89.562V55.387h7.875Zm0-9.667H89.562V45.72h7.875Zm0-9.667H89.562V36.054h7.875Zm0-9.667H89.562V26.387h7.875Zm-7.875-9.667V18h7.875v4.884Zm17.684,38.667h-6.309V55.387h6.309Zm0-9.667h-6.309V45.72h6.309Zm0-9.667h-6.309V36.054h6.309Zm0-9.667h-6.309V26.387h6.309Zm-6.309-9.667V18h1.425a4.884,4.884,0,0,1,4.884,4.884h-6.309Z" style="fill:#c64255"/><rect x="20.583" y="15.083" width="9.667" height="111.167" style="fill:#f0f4f7"/><path d="M20.583,15.083v2h0a6.664,6.664,0,0,1,6.664,6.664v102.5h3V15.083Z" style="fill:#dfe1ea"/><rect x="16.75" y="1.75" width="17.333" height="13.333" rx="4" ry="4" style="fill:#3ec2f0"/><path d="M30.083,1.75H20.75a4,4,0,0,0-3.893,3.11,3.986,3.986,0,0,1,.89-.107h9.333a4,4,0,0,1,4,4v5.333a3.986,3.986,0,0,1-.107.89,4,4,0,0,0,3.11-3.893V5.75A4,4,0,0,0,30.083,1.75Z" style="fill:#0096cf"/></svg>