<svg id="Layer_1" data-name="Layer 1" xmlns="http://www.w3.org/2000/svg" viewBox="0 0 128 128"><title>RUNNING PLAN</title><path d="M113.233,10.563H96.3l3.439,6.372v.734a5.637,5.637,0,0,1-5.637,5.637H59.844a5.637,5.637,0,0,1-5.637-5.637v-.734l3.551-6.372H40.829A3.525,3.525,0,0,0,37.3,14.088l-.049,74.4,2.78-2.262a8.759,8.759,0,0,1,10.481-.43L70.661,99.61l14.927,3.937h27.588a3.525,3.525,0,0,0,3.525-3.525l.056-85.933A3.525,3.525,0,0,0,113.233,10.563Z" style="fill:#73c6b2"/><path d="M37.255,88.4v.09l.262-.213C37.431,88.32,37.34,88.35,37.255,88.4Z" style="fill:#15958c"/><path d="M43.664,13.565H56.085l1.673-3H40.829a3.516,3.516,0,0,0-3.473,3Z" style="fill:#15958c"/><path d="M113.233,10.563H96.3l1.62,3H109.23a3.525,3.525,0,0,1,3.525,3.525l-.056,85.933a3.493,3.493,0,0,1-.053.523h.53a3.525,3.525,0,0,0,3.525-3.525l.056-85.933A3.525,3.525,0,0,0,113.233,10.563Z" style="fill:#15958c"/><path d="M89.59,10.564,86.064,1.75H67.886l-3.525,8.814H57.732l-3.525,6.371v.734a5.637,5.637,0,0,0,5.637,5.637H94.107a5.637,5.637,0,0,0,5.637-5.637v-.734l-3.525-6.371Z" style="fill:#3ec2f0"/><path d="M96.218,10.564H89.59L86.064,1.75H67.886l-.8,2H83.062l3.525,8.814h6.629l3.525,6.371v.734a5.606,5.606,0,0,1-1.177,3.438,5.634,5.634,0,0,0,4.179-5.44v-.734Z" style="fill:#0096cf"/><path d="M99.744,17.669a5.637,5.637,0,0,1-5.637,5.637H59.844a5.637,5.637,0,0,1-5.637-5.637H44.3V84.378A8.729,8.729,0,0,1,50.516,85.8l15.6,10.7h43.531V17.669Z" style="fill:#f0f4f7"/><path d="M47.122,21.673h8.755a5.618,5.618,0,0,1-1.67-4H44.3v4Z" style="fill:#dfe1ea"/><path d="M99.744,17.669a5.618,5.618,0,0,1-1.67,4h1.575a6,6,0,0,1,6,6V96.5h4V17.669Z" style="fill:#dfe1ea"/><path d="M80.134,9.669h-6.17a1.75,1.75,0,0,1,0-3.5h6.17a1.75,1.75,0,1,1,0,3.5Z" style="fill:#0096cf"/><path d="M59.026,40.591a1.743,1.743,0,0,1-1.237-.513l-4.008-4.007A1.75,1.75,0,0,1,56.256,33.6l2.771,2.77,6.3-6.3A1.75,1.75,0,1,1,67.8,32.539l-7.54,7.54A1.743,1.743,0,0,1,59.026,40.591Z" style="fill:#dfe1ea"/><path d="M98.932,36.821h-26.5a1.75,1.75,0,0,1,0-3.5h26.5a1.75,1.75,0,0,1,0,3.5Z" style="fill:#dfe1ea"/><path d="M59.026,53.687a1.743,1.743,0,0,1-1.237-.513l-4.008-4.008a1.75,1.75,0,0,1,2.475-2.475l2.771,2.771,6.3-6.3A1.75,1.75,0,0,1,67.8,45.634l-7.54,7.54A1.743,1.743,0,0,1,59.026,53.687Z" style="fill:#dfe1ea"/><path d="M98.932,49.917h-26.5a1.75,1.75,0,0,1,0-3.5h26.5a1.75,1.75,0,0,1,0,3.5Z" style="fill:#dfe1ea"/><path d="M59.026,66.782a1.743,1.743,0,0,1-1.237-.513l-4.008-4.008a1.75,1.75,0,0,1,2.475-2.475l2.771,2.77,6.3-6.3A1.75,1.75,0,0,1,67.8,58.729l-7.54,7.54A1.743,1.743,0,0,1,59.026,66.782Z" style="fill:#dfe1ea"/><path d="M98.932,63.012h-26.5a1.75,1.75,0,0,1,0-3.5h26.5a1.75,1.75,0,0,1,0,3.5Z" style="fill:#dfe1ea"/><path d="M59.026,79.877a1.743,1.743,0,0,1-1.237-.513l-4.008-4.007a1.75,1.75,0,0,1,2.475-2.475l2.771,2.77,6.3-6.3A1.75,1.75,0,0,1,67.8,71.825l-7.54,7.54A1.743,1.743,0,0,1,59.026,79.877Z" style="fill:#dfe1ea"/><path d="M98.932,76.108h-26.5a1.75,1.75,0,0,1,0-3.5h26.5a1.75,1.75,0,0,1,0,3.5Z" style="fill:#dfe1ea"/><path d="M96.045,106.3,70.661,99.61,50.516,85.8a8.759,8.759,0,0,0-10.481.43L34.35,90.851H27.416l-5.073-3.8a6.943,6.943,0,0,0-4.159-1.384h0a6.943,6.943,0,0,0-6.943,6.943V113.72a12.53,12.53,0,0,0,12.53,12.53h70a10.1,10.1,0,0,0,10.02-11.391A10.347,10.347,0,0,0,96.045,106.3Z" style="fill:#f0f4f7"/><path d="M14.181,87.673a6.943,6.943,0,0,1,4.159,1.384l5.073,3.8h8.518l2.46-2H27.416l-5.073-3.8a6.938,6.938,0,0,0-9.1.689A6.964,6.964,0,0,1,14.181,87.673Z" style="fill:#dfe1ea"/><path d="M103.79,114.859a10.347,10.347,0,0,0-7.745-8.555L70.661,99.61,50.516,85.8a8.759,8.759,0,0,0-10.481.43l-.285.232a8.749,8.749,0,0,1,6.762,1.34l20.145,13.813,25.383,6.695a10.347,10.347,0,0,1,7.745,8.555,10.08,10.08,0,0,1-3.631,9.1A10.1,10.1,0,0,0,103.79,114.859Z" style="fill:#dfe1ea"/><path d="M103.79,114.859a9.523,9.523,0,0,0-.308-1.488H57.623l-33.851-4.917H11.241v5.265a12.53,12.53,0,0,0,12.53,12.53h70A10.1,10.1,0,0,0,103.79,114.859Z" style="fill:#73c6b2"/><path d="M103.79,114.859a9.523,9.523,0,0,0-.308-1.488H57.623l-33.851-4.917H11.241v3h8.527l33.851,4.917H99.479a9.523,9.523,0,0,1,.308,1.488,10.073,10.073,0,0,1-2.159,7.612A10.1,10.1,0,0,0,103.79,114.859Z" style="fill:#15958c"/><path d="M70.66,99.61a21.685,21.685,0,0,1-24.29-1.17l-1.56-1.17-2.84-2.12-6.72-5.03,4.79-3.89a8.752,8.752,0,0,1,10.48-.43l.48.33,2.93,2.01,4.69,3.21,2.93,2.02Z" style="fill:#3ec2f0"/><path d="M40.04,86.23l-.278.226A8.748,8.748,0,0,1,46.513,87.8l20.05,13.748a21.762,21.762,0,0,0,4.1-1.936l-9.11-6.24L59.414,91.9,56.28,89.748,53.93,88.14,51,86.13l-.48-.33A8.752,8.752,0,0,0,40.04,86.23Z" style="fill:#0096cf"/><path d="M57.29,84.78l-3.36,3.36-9.12,9.13-2.84-2.12L51,86.13l3.82-3.82a1.747,1.747,0,1,1,2.47,2.47Z" style="fill:#0096cf"/><path d="M65,89.92,53.08,101.84a21.88,21.88,0,0,1-3.53-1.42l9.07-9.07,3.9-3.9A1.75,1.75,0,0,1,65,89.92Z" style="fill:#0096cf"/></svg>