<svg id="Layer_1" data-name="Layer 1" xmlns="http://www.w3.org/2000/svg" viewBox="0 0 128 128"><title>SHOES</title><path d="M108.2,97.927H14.656A12.906,12.906,0,0,1,1.75,85.022h0A12.906,12.906,0,0,1,16.7,72.279l45.875,7.369a18.05,18.05,0,0,0,2.863.228H126.25A18.05,18.05,0,0,1,108.2,97.927Z" style="fill:#73c6b2"/><path d="M87,79.877H65.441a18.047,18.047,0,0,1-2.863-.229L16.7,72.279a12.883,12.883,0,0,0-12.367,5,12.8,12.8,0,0,1,7.363-1l45.875,7.37a18.055,18.055,0,0,0,2.863.228h60.809a17.961,17.961,0,0,1-4.5,11.895,18.044,18.044,0,0,0,9.5-15.9Z" style="fill:#15958c"/><path d="M118.293,63.412h0A78.067,78.067,0,0,1,87.333,49.4L63.876,31.763a8.426,8.426,0,0,0-5.063-1.691h0A8.426,8.426,0,0,0,52.48,32.94l-6.1,6.943a12.31,12.31,0,0,1-9.252,4.189h-.518a11.394,11.394,0,0,1-9.76-5.515h0a9.266,9.266,0,0,0-7.937-4.485h0A9.266,9.266,0,0,0,11.273,38.1h0A28.718,28.718,0,0,0,6.25,54.329v20.9A12.845,12.845,0,0,1,16.7,72.279l45.875,7.37a18.034,18.034,0,0,0,2.326.207H126.25V73.2A10,10,0,0,0,118.293,63.412Z" style="fill:#f0f4f7"/><path d="M6.25,74.344v.888a13.016,13.016,0,0,1,1.486-1.083A12.74,12.74,0,0,0,6.25,74.344Z" style="fill:#dfe1ea"/><path d="M20.851,40.559a11.394,11.394,0,0,0,9.76,5.515h.518a12.3,12.3,0,0,0,6.759-2.042c-.251.015-.5.04-.754.04h-.518a11.394,11.394,0,0,1-9.76-5.515,9.237,9.237,0,0,0-13.684-2.467A9.257,9.257,0,0,1,20.851,40.559Z" style="fill:#dfe1ea"/><path d="M118.293,63.412h0A78.067,78.067,0,0,1,87.333,49.4L63.876,31.763a8.4,8.4,0,0,0-10.549.353,8.407,8.407,0,0,1,4.544,1.649L81.328,51.4a78.067,78.067,0,0,0,30.959,14.017,10,10,0,0,1,7.957,9.789v4.653h6V73.2A10,10,0,0,0,118.293,63.412Z" style="fill:#dfe1ea"/><path d="M104.48,59.16a29.849,29.849,0,0,1-20.01,2.2,29.708,29.708,0,0,1-9.58-4.16c-.66-.44-1.31-.9-1.94-1.4l-.9-.71L67.09,51.2l-2.77-2.18-4.97-3.89-2.77-2.18-7.63-5.99,3.53-4.02a8.43,8.43,0,0,1,11.4-1.18L66,33.35l2.82,2.13,5.05,3.8,2.82,2.11,5.06,3.81,2.82,2.12,2.76,2.08c.77.57,1.54,1.13,2.33,1.68.97.68,1.96,1.33,2.97,1.96A78.14,78.14,0,0,0,104.48,59.16Z" style="fill:#3ec2f0"/><path d="M101.344,57.782q-2.905-1.35-5.695-2.936l-.331-.19Q92.6,53.089,90,51.3c-.111-.077-.228-.146-.338-.223s-.2-.149-.307-.222c-.425-.3-.845-.6-1.264-.911-.251-.183-.508-.361-.759-.547l-2.76-2.08L81.75,45.2l-1.1-.826-5.482-4.121-1.3-.974-5.05-3.8-.085-.064-4.859-3.653a8.426,8.426,0,0,0-5.063-1.691c-.111,0-.221.011-.331.015-.157.006-.314.01-.469.025s-.288.037-.432.059c-.125.019-.249.037-.373.061-.153.03-.3.066-.454.1q-.159.04-.317.087c-.161.048-.322.1-.48.156-.078.028-.155.06-.232.091a8.483,8.483,0,0,0-2.387,1.436l-.012.01a8.408,8.408,0,0,1,4.543,1.649L81.328,51.4A78.06,78.06,0,0,0,98.69,61.246a29.884,29.884,0,0,0,5.79-2.086l-.066-.029q-1.482-.613-2.938-1.287Z" style="fill:#0096cf"/><path d="M16.7,72.279l27.382,4.4-2.952-2.952a43.982,43.982,0,0,0-31.1-12.882H6.25V75.232A12.845,12.845,0,0,1,16.7,72.279Z" style="fill:#3ec2f0"/><path d="M7.029,63.846A43.976,43.976,0,0,1,36.857,75.517l7.227,1.161-2.952-2.952a43.982,43.982,0,0,0-31.1-12.882H6.25v3Z" style="fill:#0096cf"/><path d="M31.909,43.033h0A11.378,11.378,0,0,1,26.94,38.7,9.507,9.507,0,0,0,23.01,35a9.31,9.31,0,0,0-11.737,3.1,28.706,28.706,0,0,0-4.2,9.464H20.963A15.48,15.48,0,0,0,31.909,43.033Z" style="fill:#3ec2f0"/><path d="M30.518,42.278c-2.966-1.87-4.107-5.425-7.2-7.093a9.322,9.322,0,0,0-10.143.906,9.257,9.257,0,0,1,7.679,4.468,11.377,11.377,0,0,0,7.31,5.227,15.469,15.469,0,0,0,3.748-2.753A11.366,11.366,0,0,1,30.518,42.278Z" style="fill:#0096cf"/><path d="M91.4,73.926a41.81,41.81,0,0,1-25.7-8.882L47.959,51.118a1.75,1.75,0,1,1,2.161-2.753L67.859,62.291a38.093,38.093,0,0,0,35.258,6.285,1.75,1.75,0,0,1,1.073,3.331A41.642,41.642,0,0,1,91.4,73.926Z" style="fill:#dfe1ea"/><path d="M71.63,32.62a1.754,1.754,0,0,0-2.51-2.45L66,33.35l-9.42,9.6,2.77,2.18,9.47-9.65Z" style="fill:#0096cf"/><path d="M79.12,38.91a1.747,1.747,0,1,0-2.5-2.44l-2.75,2.81-9.55,9.74,2.77,2.18,9.6-9.81Z" style="fill:#0096cf"/><path d="M87.13,44.7a1.747,1.747,0,1,0-2.5-2.44L81.75,45.2l-9.7,9.89.9.71c.63.5,1.28.96,1.94,1.4l9.68-9.88Z" style="fill:#0096cf"/><path d="M95.12,48a1.741,1.741,0,0,0-2.47.03l-2.99,3.05L80.71,60.2a29.164,29.164,0,0,0,3.76,1.16l8.16-8.32,2.52-2.57A1.741,1.741,0,0,0,95.12,48Z" style="fill:#0096cf"/><path d="M38,87.6H16.75a1.75,1.75,0,0,1,0-3.5H38a1.75,1.75,0,0,1,0,3.5Z" style="fill:#15958c"/></svg>