<svg id="Layer_1" data-name="Layer 1" xmlns="http://www.w3.org/2000/svg" viewBox="0 0 128 128"><title>TIME RECORD</title><rect x="14.202" y="26.655" width="99.595" height="99.595" rx="4" ry="4" style="fill:#3ec2f0"/><path d="M109.8,26.655H18.2a4,4,0,0,0-4,4v0h91.592a4,4,0,0,1,4,4V126.25h0a4,4,0,0,0,4-4v-91.6A4,4,0,0,0,109.8,26.655Z" style="fill:#0096cf"/><rect x="37.375" y="1.75" width="53.25" height="24.905" style="fill:#ffeace"/><polygon points="37.375 1.75 37.375 4.752 86.622 4.752 86.622 26.655 90.625 26.655 90.625 1.75 37.375 1.75" style="fill:#ffd892"/><circle cx="64" cy="76.452" r="38.226" style="fill:#f0f4f7"/><path d="M64,38.226a38.035,38.035,0,0,0-18.976,5.048,38.228,38.228,0,0,1,33.949,68.358A38.231,38.231,0,0,0,64,38.226Z" style="fill:#dfe1ea"/><path d="M95.09,76.45c0,.59-.02,1.17-.05,1.75a30.968,30.968,0,0,1-7.86,18.95,29.018,29.018,0,0,1-2.48,2.48,30.9,30.9,0,0,1-18.95,7.87c-.58.03-1.16.05-1.75.05s-1.17-.02-1.75-.05A30.9,30.9,0,0,1,43.3,99.63a29.018,29.018,0,0,1-2.48-2.48A30.968,30.968,0,0,1,32.96,78.2c-.03-.58-.05-1.16-.05-1.75s.02-1.17.05-1.75a30.943,30.943,0,0,1,7.86-18.95,28.9,28.9,0,0,1,2.48-2.47,30.9,30.9,0,0,1,18.95-7.87c.58-.03,1.16-.05,1.75-.05s1.17.02,1.75.05A30.9,30.9,0,0,1,84.7,53.28a28.9,28.9,0,0,1,2.48,2.47A30.943,30.943,0,0,1,95.04,74.7C95.07,75.28,95.09,75.86,95.09,76.45Z" style="fill:#73c6b2"/><path d="M95.04,74.7a30.943,30.943,0,0,0-7.86-18.95,28.9,28.9,0,0,0-2.48-2.47,30.9,30.9,0,0,0-18.95-7.87c-.58-.03-1.16-.05-1.75-.05s-1.17.02-1.75.05a30.845,30.845,0,0,0-16.918,6.2,30.79,30.79,0,0,1,13.915-4.2c.58-.03,1.16-.05,1.75-.05s1.17.02,1.75.05a30.9,30.9,0,0,1,18.95,7.87,28.9,28.9,0,0,1,2.48,2.47,30.943,30.943,0,0,1,7.86,18.95c.03.58.05,1.16.05,1.75s-.02,1.17-.05,1.75a30.968,30.968,0,0,1-7.86,18.95,29.018,29.018,0,0,1-2.48,2.48q-.979.877-2.032,1.67A31.216,31.216,0,0,0,84.7,99.63a29.018,29.018,0,0,0,2.48-2.48A30.968,30.968,0,0,0,95.04,78.2c.03-.58.05-1.16.05-1.75S95.07,75.28,95.04,74.7Z" style="fill:#15958c"/><path d="M65.75,45.41v4.08a1.75,1.75,0,0,1-3.5,0V45.41c.58-.03,1.16-.05,1.75-.05S65.17,45.38,65.75,45.41Z" style="fill:#15958c"/><path d="M65.75,103.42v4.08c-.58.03-1.16.05-1.75.05s-1.17-.02-1.75-.05v-4.08a1.75,1.75,0,1,1,3.5,0Z" style="fill:#15958c"/><path d="M87.18,55.75,84.3,58.62a1.747,1.747,0,0,1-2.47-2.47l2.87-2.87A28.9,28.9,0,0,1,87.18,55.75Z" style="fill:#15958c"/><path d="M43.3,99.63l2.87-2.87a1.75,1.75,0,0,0-2.47-2.48l-2.88,2.87Z" style="fill:#15958c"/><path d="M95.09,76.45c0,.59-.02,1.17-.05,1.75H90.96a1.75,1.75,0,0,1,0-3.5h4.08C95.07,75.28,95.09,75.86,95.09,76.45Z" style="fill:#15958c"/><path d="M38.79,76.45a1.752,1.752,0,0,1-1.75,1.75H32.96c-.03-.58-.05-1.16-.05-1.75s.02-1.17.05-1.75h4.08A1.758,1.758,0,0,1,38.79,76.45Z" style="fill:#15958c"/><path d="M87.18,97.15a29.018,29.018,0,0,1-2.48,2.48l-2.87-2.87a1.75,1.75,0,1,1,2.47-2.48Z" style="fill:#15958c"/><path d="M46.17,58.62a1.726,1.726,0,0,1-2.47,0l-2.88-2.87a28.9,28.9,0,0,1,2.48-2.47l2.87,2.87A1.75,1.75,0,0,1,46.17,58.62Z" style="fill:#15958c"/><path d="M67.937,76.452a3.937,3.937,0,1,0-5.687,3.51v4.944a1.75,1.75,0,0,0,3.5,0V79.962A3.924,3.924,0,0,0,67.937,76.452Z" style="fill:#15958c"/><path d="M64,72.515a3.935,3.935,0,0,1,3.661,2.5L64,55.891l-3.661,19.12A3.935,3.935,0,0,1,64,72.515Z" style="fill:#f0f4f7"/><path d="M51.45,11.25H45.885a1.75,1.75,0,0,1,0-3.5H51.45a1.75,1.75,0,0,1,0,3.5Z" style="fill:#ffd892"/><path d="M82.115,11.25h-21a1.75,1.75,0,0,1,0-3.5h21a1.75,1.75,0,0,1,0,3.5Z" style="fill:#ffd892"/><path d="M51.45,19.333H45.885a1.75,1.75,0,0,1,0-3.5H51.45a1.75,1.75,0,0,1,0,3.5Z" style="fill:#ffd892"/><path d="M82.115,19.333h-21a1.75,1.75,0,0,1,0-3.5h21a1.75,1.75,0,0,1,0,3.5Z" style="fill:#ffd892"/></svg>