<?xml version="1.0" encoding="utf-8"?>
<!-- Generator: Adobe Illustrator 22.0.0, SVG Export Plug-In . SVG Version: 6.00 Build 0)  -->
<svg version="1.1" id="Layer_1" xmlns="http://www.w3.org/2000/svg" xmlns:xlink="http://www.w3.org/1999/xlink" x="0px" y="0px"
	 viewBox="0 0 512 512" style="enable-background:new 0 0 512 512;" xml:space="preserve">
<style type="text/css">
	.st0{fill:#6E83B7;}
	.st1{fill:#EDEFF1;}
	.st2{fill:#466089;}
	.st3{fill:#FFE352;}
	.st4{fill:#FFB236;}
	.st5{fill:#FFD3B3;}
	.st6{fill:#FCB98B;}
	.st7{fill:#FFC69F;}
	.st8{fill:#FFB0AA;}
	.st9{fill:#EFA470;}
	.st10{fill:#E2935D;}
</style>
<g>
	<g>
		<g>
			<path class="st0" d="M354.059,231.794L290,214h-33.968h-0.063H222l-64.059,17.794C131.972,239.008,114,262.652,114,289.605
				l0.051,69.519h-0.665c-11.046,0-20,8.954-20,20v127.923h74V379.124c0-4.103-1.239-7.913-3.358-11.087L164.019,349H170l9,60l-9,98
				h85.968h0.063H342l-9-98l9-60h5.994l-0.025,158h49.968L398,289.605C398,262.652,380.028,239.008,354.059,231.794z"/>
		</g>
	</g>
	<g>
		<g>
			<path class="st1" d="M314,85h-58h-58c-12.703,0-23,10.297-23,23c0,11.125,0,18.75,0,46c0,12.702,10.297,23,23,23
				c0,12.702,10.297,23,23,23h35h35c12.703,0,23-10.298,23-23c12.703,0,23-10.298,23-23c0-27.25,0-34.875,0-46
				C337,95.297,326.703,85,314,85z"/>
		</g>
	</g>
	<g>
		<g>
			<polygon class="st2" points="360.02,336.951 355.777,332.709 347.968,340.518 347.968,327 341.968,327 341.968,507 347.968,507 
				347.968,349.003 			"/>
		</g>
	</g>
	<g>
		<g>
			<polygon class="st2" points="164,327 164.002,340.488 156.223,332.709 151.98,336.951 164.004,348.975 164.032,506.953 
				170.032,506.953 170.032,327 			"/>
		</g>
	</g>
	<g>
		<g>
			<path class="st3" d="M256,204h27l61.034,17.438c7.245,2.07,9.685,11.105,4.467,16.541L256,334.333l-92.5-96.355
				c-5.218-5.436-2.778-14.471,4.467-16.541L229,204H256z"/>
		</g>
	</g>
	<g>
		<g>
			<path class="st4" d="M299.404,236.24l11.464-24.277L283,204h-27h-27l-27.868,7.962l11.464,24.277
				c8.011,16.965,24.643,27.503,43.404,27.503S291.393,253.205,299.404,236.24z"/>
		</g>
	</g>
	<g>
		<g>
			<path class="st5" d="M283.127,228.554L290,214l-7-3v-30h-54v30l-7,3l6.873,14.554
				C239.696,251.473,272.304,251.473,283.127,228.554z"/>
		</g>
	</g>
	<g>
		<g>
			<path class="st5" d="M314,92h6.598c6.041,0,10.703,5.315,9.915,11.305l-2.597,19.739c-0.524,3.981-3.917,6.956-7.932,6.956H314
				V92z"/>
		</g>
	</g>
	<g>
		<g>
			<path class="st5" d="M198,92h-6.598c-6.041,0-10.703,5.315-9.915,11.305l2.597,19.739c0.524,3.981,3.917,6.956,7.932,6.956H198
				V92z"/>
		</g>
	</g>
	<g>
		<g>
			<path class="st6" d="M229,194.396c8.282,3.598,17.41,5.604,27,5.604s18.718-2.006,27-5.604V181h-54V194.396z"/>
		</g>
	</g>
	<g>
		<g>
			<path class="st5" d="M314,132c0,32.033-25.967,58-58,58s-58-25.967-58-58V56h116V132z"/>
		</g>
	</g>
	<g>
		<g>
			<path class="st1" d="M256,70c0,0,3,20.667,35.333,26.333c0,0,11.917,1.792,17.818,20.24L314,130V92h7V70
				c0-35.898-29.101-65-65-65l0,0l0,0c-35.898,0-65,29.101-65,65v22h7v38l4.849-13.427c5.901-18.448,17.818-20.24,17.818-20.24
				C253,90.667,256,70,256,70z"/>
		</g>
	</g>
	<g>
		<g>
			<path class="st3" d="M258.771,77.034c9.789-0.08,40.157-2.071,60.384-22.406c-1.268-5.229-3.167-10.209-5.615-14.859
				c-18.501,24.657-56.809,23.25-57.204,23.239L256,62.993l-0.325,0.014c-0.406,0.021-38.714,1.42-57.216-23.238
				c-2.451,4.655-4.351,9.642-5.619,14.878c20.219,20.323,50.587,22.301,60.389,22.386
				C256.875,77.034,255.625,77.034,258.771,77.034z"/>
		</g>
	</g>
	<g>
		<g>
			<polygon class="st6" points="259,148.999 249.158,148.999 253.089,133.271 258.911,134.727 256.842,142.999 259,142.999 			"/>
		</g>
	</g>
	<g>
		<g>
			<path class="st0" d="M266,103.999c0,0,16.939-7.347,33,3c0,0-13.75-3.375-30,3L266,103.999z"/>
		</g>
	</g>
	<g>
		<g>
			<path class="st0" d="M246,103.999c0,0-16.939-7.347-33,3c0,0,13.75-3.375,30,3L246,103.999z"/>
		</g>
	</g>
	<g>
		<g>
			<path class="st7" d="M284,141.999h-10c-2.209,0-4-1.791-4-4l0,0c0-2.209,1.791-4,4-4h10c2.209,0,4,1.791,4,4l0,0
				C288,140.208,286.209,141.999,284,141.999z"/>
		</g>
	</g>
	<g>
		<g>
			<path class="st7" d="M228,141.999h10c2.209,0,4-1.791,4-4l0,0c0-2.209-1.791-4-4-4h-10c-2.209,0-4,1.791-4,4l0,0
				C224,140.208,225.791,141.999,228,141.999z"/>
		</g>
	</g>
	<g>
		<g>
			<path class="st0" d="M236,117.999c-0.022,0-0.044,0.003-0.067,0.003c-0.62,0.028-5.516,0.18-7.933-2.003
				c0,0,0.619,2.919,2.817,4.987c-0.516,0.886-0.817,1.913-0.817,3.013c0,3.314,2.686,6,6,6s6-2.686,6-6
				S239.314,117.999,236,117.999z"/>
		</g>
	</g>
	<g>
		<g>
			<path class="st0" d="M276,117.999c0.022,0,0.044,0.003,0.067,0.003c0.62,0.028,5.516,0.18,7.933-2.003
				c0,0-0.619,2.919-2.817,4.987c0.516,0.886,0.817,1.913,0.817,3.013c0,3.314-2.686,6-6,6s-6-2.686-6-6
				S272.686,117.999,276,117.999z"/>
		</g>
	</g>
	<g>
		<g>
			<path class="st1" d="M246,162.25h20l-0.106,0.425c-1.113,4.452-5.113,7.575-9.701,7.575h-0.384c-4.589,0-8.589-3.123-9.701-7.575
				L246,162.25z"/>
		</g>
	</g>
	<g>
		<g>
			<circle class="st3" cx="256" cy="70.792" r="12"/>
		</g>
	</g>
	<g>
		<g>
			<circle class="st8" cx="256" cy="70.792" r="9"/>
		</g>
	</g>
	<g>
		<g>
			<path class="st2" d="M170.385,507.047h-6V379.124c0-9.374-7.626-17-17-17h-9.046v-6h9.046c12.682,0,23,10.317,23,23V507.047z"/>
		</g>
	</g>
	<g>
		<g>
			<path class="st2" d="M103.385,506.953V379.124c0-5.514,4.486-10,10-10h34c5.514,0,10,4.486,10,10v127.829H103.385z"/>
		</g>
	</g>
	<g>
		<g>
			<path class="st6" d="M147.507,416.814H111.85v-35.186h41.167v29.676C153.016,414.348,150.549,416.814,147.507,416.814z"/>
		</g>
	</g>
	<g>
		<g>
			<path class="st6" d="M147.507,416.814H111.85v32.258h28.445c7.026,0,12.722-5.696,12.722-12.722v-14.027
				C153.016,419.281,150.549,416.814,147.507,416.814z"/>
		</g>
	</g>
	<g>
		<g>
			<path class="st5" d="M138.83,400.914v-17.443c0-5.018,4.068-9.086,9.086-9.086l0,0c5.018,0,9.086,4.068,9.086,9.086v17.443
				c0,5.018-4.068,9.086-9.086,9.086l0,0C142.898,410,138.83,405.932,138.83,400.914z"/>
		</g>
	</g>
	<g>
		<g>
			<path class="st6" d="M146.142,393.781c2.308-2.033,3.774-5.001,3.774-8.311c0-4.405-2.589-8.208-6.321-9.994
				c-2.838,1.537-4.765,4.54-4.765,7.994v17.443c0,5.018,4.068,9.086,9.086,9.086c0.865,0,1.699-0.129,2.492-0.354
				c1.121-1.732,1.78-3.79,1.78-6.003C152.187,399.346,149.725,395.62,146.142,393.781z"/>
		</g>
	</g>
	<g>
		<g>
			<rect x="112.34" y="232.03" class="st9" width="26" height="274.923"/>
		</g>
	</g>
	<g>
		<g>
			<g>
				<path class="st5" d="M138.83,394.557h-29.258c-5.018,0-9.086-4.068-9.086-9.086l0,0c0-5.018,4.068-9.086,9.086-9.086h29.258
					c5.018,0,9.086,4.068,9.086,9.086l0,0C147.916,390.489,143.848,394.557,138.83,394.557z"/>
			</g>
		</g>
		<g>
			<g>
				<path class="st5" d="M136.558,430.9H107.3c-5.018,0-9.086-4.068-9.086-9.086l0,0c0-5.018,4.068-9.086,9.086-9.086h29.258
					c5.018,0,9.086,4.068,9.086,9.086l0,0C145.644,426.833,141.576,430.9,136.558,430.9z"/>
			</g>
		</g>
		<g>
			<g>
				<path class="st5" d="M133.151,449.072h-22.443c-5.018,0-9.086-4.068-9.086-9.086l0,0c0-5.018,4.068-9.086,9.086-9.086h22.443
					c5.018,0,9.086,4.068,9.086,9.086l0,0C142.237,445.004,138.169,449.072,133.151,449.072z"/>
			</g>
		</g>
		<g>
			<g>
				<path class="st5" d="M141.101,412.729H107.3c-5.018,0-9.086-4.068-9.086-9.086l0,0c0-5.018,4.068-9.086,9.086-9.086h33.801
					c5.018,0,9.086,4.068,9.086,9.086l0,0C150.187,408.661,146.119,412.729,141.101,412.729z"/>
			</g>
		</g>
	</g>
	<g>
		<g>
			<circle class="st8" cx="125.34" cy="195" r="40"/>
		</g>
	</g>
	<g>
		<g>
			<path class="st9" d="M139.089,239.5h-27.5c-6.627,0-12-5.373-12-12v-2h51.5v2C151.089,234.127,145.717,239.5,139.089,239.5z"/>
		</g>
	</g>
	<g>
		<g>
			<rect x="112.34" y="239.5" class="st10" width="26" height="8"/>
		</g>
	</g>
	<g>
		<g>
			<path class="st3" d="M90.623,155.288L95.2,153c0,0-2.033-1.016-4.574-2.287c-2.527-1.264-4.505-3.412-5.555-6.035L81.6,136
				c0,0-1.776,4.439-3.471,8.678c-1.049,2.623-3.025,4.769-5.552,6.033L68,153c0,0,2.033,1.016,4.574,2.287
				c2.527,1.264,4.505,3.411,5.554,6.034C79.825,165.561,81.6,170,81.6,170s1.776-4.439,3.471-8.679
				C86.121,158.698,88.096,156.552,90.623,155.288z"/>
		</g>
	</g>
	<g>
		<g>
			<path class="st3" d="M112.977,124.212L115.4,123c0,0-1.076-0.538-2.422-1.211c-1.338-0.669-2.385-1.806-2.941-3.195L108.2,114
				c0,0-0.94,2.35-1.838,4.594c-0.556,1.389-1.601,2.525-2.939,3.194L101,123c0,0,1.076,0.538,2.422,1.211
				c1.338,0.669,2.385,1.806,2.941,3.195C107.26,129.65,108.2,132,108.2,132s0.94-2.35,1.838-4.595
				C110.593,126.017,111.639,124.88,112.977,124.212z"/>
		</g>
	</g>
	<g>
		<g>
			<path class="st3" d="M151.962,140.019L156,138c0,0-1.794-0.897-4.036-2.018c-2.23-1.115-3.975-3.01-4.901-5.325L144,123
				c0,0-1.567,3.917-3.063,7.657c-0.926,2.315-2.669,4.208-4.898,5.323L132,138c0,0,1.794,0.897,4.036,2.018
				c2.23,1.115,3.975,3.01,4.901,5.324C142.433,149.083,144,153,144,153s1.567-3.917,3.063-7.658
				C147.989,143.028,149.732,141.134,151.962,140.019z"/>
		</g>
	</g>
</g>
</svg>
