<?xml version="1.0" encoding="utf-8"?>
<!-- Generator: Adobe Illustrator 22.0.0, SVG Export Plug-In . SVG Version: 6.00 Build 0)  -->
<svg version="1.1" id="Layer_1" xmlns="http://www.w3.org/2000/svg" xmlns:xlink="http://www.w3.org/1999/xlink" x="0px" y="0px"
	 viewBox="0 0 512 512" style="enable-background:new 0 0 512 512;" xml:space="preserve">
<style type="text/css">
	.st0{fill:#FF7B7B;}
	.st1{fill:#FFB236;}
	.st2{fill:#FFD3B3;}
	.st3{fill:#FCB98B;}
	.st4{fill:#6E83B7;}
	.st5{fill:#FFB0AA;}
	.st6{fill:#EDEFF1;}
	.st7{fill:#FFE352;}
	.st8{fill:#46BEE8;}
	.st9{fill:#9CE5FF;}
	.st10{fill:#80D6FB;}
	.st11{fill:#FFE67B;}
	.st12{fill:#F76161;}
	.st13{fill:#98CA69;}
	.st14{fill:#75AA40;}
	.st15{fill:#BFEA8C;}
	.st16{fill:#D3D3D3;}
	.st17{fill:#466089;}
	.st18{fill:#7C93BF;}
	.st19{fill:#FFC69F;}
	.st20{fill:#859CC1;}
	.st21{fill:#EFA470;}
	.st22{fill:#C1C1C1;}
	.st23{fill:#E2935D;}
	.st24{fill:#99E5FF;}
</style>
<g>
	<g>
		<g>
			<path class="st17" d="M321,150v13c0,26.51-21.49,48-48,48h-17h-17c-26.51,0-48-21.49-48-48v-13H321z"/>
		</g>
	</g>
	<g>
		<g>
			<path class="st4" d="M256,19c18.038,0,33.743,8.295,41.945,20.554C297.978,39.04,298,38.522,298,38
				c0-9.888-5.981-18.376-14.521-22.052C276.312,9.167,266.646,5,256,5s-20.312,4.167-27.479,10.948
				C219.981,19.624,214,28.112,214,38c0,0.522,0.022,1.04,0.055,1.554C222.257,27.295,237.962,19,256,19z"/>
		</g>
	</g>
	<g>
		<g>
			<path class="st4" d="M191,113v87c0,0,4.667-41.667,27-53v-34H191z"/>
		</g>
	</g>
	<g>
		<g>
			<rect x="216" y="467" class="st16" width="80" height="40"/>
		</g>
	</g>
	<g>
		<g>
			<polygon class="st16" points="256,238 303,238 256,364 209,238 			"/>
		</g>
	</g>
	<g>
		<g>
			<g>
				<g>
					<polygon class="st3" points="426.633,205.462 417.381,238.004 419.722,256.079 451.436,266.286 463.383,252.604 
						474.589,220.681 					"/>
				</g>
			</g>
			<g>
				<g>
					
						<rect x="423.38" y="253.414" transform="matrix(0.3064 -0.9519 0.9519 0.3064 43.059 599.2368)" class="st2" width="18.677" height="33.316"/>
				</g>
			</g>
		</g>
		<g>
			<g>
				<g>
					<rect x="399" y="134" class="st6" width="80" height="110"/>
				</g>
			</g>
			<g>
				<g>
					<rect x="405" y="145" class="st16" width="68" height="6"/>
				</g>
			</g>
			<g>
				<g>
					<rect x="405" y="160" class="st16" width="68" height="6"/>
				</g>
			</g>
			<g>
				<g>
					<rect x="405" y="175" class="st16" width="68" height="6"/>
				</g>
			</g>
			<g>
				<g>
					<rect x="405" y="190" class="st16" width="68" height="6"/>
				</g>
			</g>
			<g>
				<g>
					<rect x="405" y="205" class="st16" width="68" height="6"/>
				</g>
			</g>
		</g>
		<g>
			<g>
				<g>
					
						<rect x="480.211" y="126.854" transform="matrix(0.7072 -0.707 0.707 0.7072 51.8897 386.9952)" class="st4" width="25.87" height="8"/>
				</g>
			</g>
			<g>
				<g>
					<polygon class="st4" points="507,136 499,136 499,125 488,125 488,117 507,117 					"/>
				</g>
			</g>
		</g>
		<g>
			<g>
				<g>
					
						<rect x="489.147" y="186.211" transform="matrix(0.7071 -0.7071 0.7071 0.7071 3.6214 407.0359)" class="st4" width="8" height="25.87"/>
				</g>
			</g>
			<g>
				<g>
					<polygon class="st4" points="507,213 488,213 488,205 499,205 499,194 507,194 					"/>
				</g>
			</g>
		</g>
		<g>
			<g>
				<g>
					
						<rect x="380.854" y="117.918" transform="matrix(0.7071 -0.7071 0.7071 0.7071 20.1936 310.4586)" class="st4" width="8" height="25.87"/>
				</g>
			</g>
			<g>
				<g>
					<polygon class="st4" points="379,136 371,136 371,117 390,117 390,125 379,125 					"/>
				</g>
			</g>
		</g>
		<g>
			<g>
				<g>
					
						<rect x="371.918" y="195.147" transform="matrix(0.7072 -0.707 0.707 0.7072 -28.1082 330.4255)" class="st4" width="25.87" height="8"/>
				</g>
			</g>
			<g>
				<g>
					<polygon class="st4" points="390,213 371,213 371,194 379,194 379,205 390,205 					"/>
				</g>
			</g>
		</g>
		<g>
			<g>
				<path class="st2" d="M443.957,220.651l-14.359-4.544c-5.51-1.744-11.393,1.293-13.164,6.794l0,0
					c-0.474,1.473-0.617,3.032-0.418,4.566l3.706,28.612l16.768,5.397l2.98-7.721c1.909-4.946,1.399-10.499-1.379-15.014
					l-4.911-7.982l6.944,2.147c3.36,1.039,6.93-0.819,8.008-4.167v0C449.222,225.352,447.349,221.725,443.957,220.651z"/>
			</g>
		</g>
	</g>
	<g>
		<g>
			<g>
				<g>
					<polygon class="st3" points="85.367,205.462 94.619,238.004 92.278,256.079 60.564,266.286 48.617,252.604 37.411,220.681 
											"/>
				</g>
			</g>
			<g>
				<g>
					
						<rect x="62.624" y="260.734" transform="matrix(0.9519 -0.3064 0.3064 0.9519 -78.9312 37.2779)" class="st2" width="33.316" height="18.677"/>
				</g>
			</g>
		</g>
		<g>
			<g>
				<g>
					<rect x="33" y="134" class="st6" width="80" height="110"/>
				</g>
			</g>
			<g>
				<g>
					<rect x="39" y="145" class="st16" width="68" height="6"/>
				</g>
			</g>
			<g>
				<g>
					<rect x="39" y="160" class="st16" width="68" height="6"/>
				</g>
			</g>
			<g>
				<g>
					<rect x="39" y="175" class="st16" width="68" height="6"/>
				</g>
			</g>
			<g>
				<g>
					<rect x="39" y="190" class="st16" width="68" height="6"/>
				</g>
			</g>
			<g>
				<g>
					<rect x="39" y="205" class="st16" width="68" height="6"/>
				</g>
			</g>
		</g>
		<g>
			<g>
				<g>
					
						<rect x="14.854" y="117.918" transform="matrix(0.7071 -0.7071 0.7071 0.7071 -87.0053 51.6576)" class="st4" width="8" height="25.87"/>
				</g>
			</g>
			<g>
				<g>
					<polygon class="st4" points="13,136 5,136 5,117 24,117 24,125 13,125 					"/>
				</g>
			</g>
		</g>
		<g>
			<g>
				<g>
					
						<rect x="5.918" y="195.147" transform="matrix(0.7072 -0.707 0.707 0.7072 -135.2848 71.6468)" class="st4" width="25.87" height="8"/>
				</g>
			</g>
			<g>
				<g>
					<polygon class="st4" points="24,213 5,213 5,194 13,194 13,205 24,205 					"/>
				</g>
			</g>
		</g>
		<g>
			<g>
				<g>
					
						<rect x="114.211" y="126.854" transform="matrix(0.7072 -0.707 0.707 0.7072 -55.2868 128.2165)" class="st4" width="25.87" height="8"/>
				</g>
			</g>
			<g>
				<g>
					<polygon class="st4" points="141,136 133,136 133,125 122,125 122,117 141,117 					"/>
				</g>
			</g>
		</g>
		<g>
			<g>
				<g>
					
						<rect x="123.147" y="186.211" transform="matrix(0.7071 -0.7071 0.7071 0.7071 -103.5775 148.2348)" class="st4" width="8" height="25.87"/>
				</g>
			</g>
			<g>
				<g>
					<polygon class="st4" points="141,213 122,213 122,205 133,205 133,194 141,194 					"/>
				</g>
			</g>
		</g>
		<g>
			<g>
				<path class="st2" d="M68.043,220.651l14.359-4.544c5.51-1.744,11.393,1.293,13.164,6.794h0c0.474,1.473,0.617,3.032,0.418,4.566
					l-3.706,28.612l-16.768,5.397l-2.98-7.721c-1.909-4.946-1.399-10.499,1.379-15.014l4.911-7.982l-6.944,2.147
					c-3.36,1.039-6.93-0.819-8.008-4.167l0,0C62.778,225.352,64.651,221.725,68.043,220.651z"/>
			</g>
		</g>
	</g>
	<g>
		<g>
			<path class="st4" d="M411,262l-14.564,47.547l-7.948-21.361c-6.6-17.739-21.183-31.323-39.345-36.65L303,238l-47,126l-47-126
				l-46.143,13.535c-18.161,5.327-32.745,18.912-39.345,36.65l-7.948,21.361L101,262l-48,15l33,112l4.847,15.994
				c7.882,26.01,44.469,26.67,53.283,0.96L164,348l16,48l-16,111h72c11.046,0,20-8.954,20-20c0,11.046,8.954,20,20,20h72l-16-111
				l16-48l19.87,57.955c8.815,25.709,45.401,25.049,53.283-0.96L426,389l33-112L411,262z"/>
		</g>
	</g>
	<g>
		<g>
			<polygon class="st20" points="216,302 213,315 256,364 209,238 175.582,247.803 			"/>
		</g>
	</g>
	<g>
		<g>
			<polygon class="st20" points="296,302 299,315 256,364 303,238 336.418,247.803 			"/>
		</g>
	</g>
	<g>
		<g>
			<path class="st17" d="M136.61,352.346l-17.042-53.56l-4.004,10.761l0,0L135,373l0,0
				C138.206,366.588,138.784,359.178,136.61,352.346z"/>
		</g>
	</g>
	<g>
		<g>
			<polygon class="st2" points="256,307 290,235 283,232 283,202 229,202 229,232 222,235 			"/>
		</g>
	</g>
	<g>
		<g>
			<path class="st2" d="M314,113h6.598c6.041,0,10.703,5.315,9.915,11.305l-2.597,19.739c-0.524,3.981-3.917,6.956-7.932,6.956H314
				V113z"/>
		</g>
	</g>
	<g>
		<g>
			<path class="st2" d="M198,113h-6.598c-6.041,0-10.703,5.315-9.915,11.305l2.597,19.739c0.524,3.981,3.917,6.956,7.932,6.956H198
				V113z"/>
		</g>
	</g>
	<g>
		<g>
			<path class="st3" d="M229,215.396c8.282,3.598,17.41,5.604,27,5.604s18.718-2.006,27-5.604V202h-54V215.396z"/>
		</g>
	</g>
	<g>
		<g>
			<path class="st2" d="M314,153c0,32.033-25.967,58-58,58s-58-25.967-58-58V77h116V153z"/>
		</g>
	</g>
	<g>
		<g>
			<path class="st4" d="M245.437,124.578c0,0-17.793-7.382-32.937,5.679c0,0,17.604-4.543,29.529,1.136L245.437,124.578z"/>
		</g>
	</g>
	<g>
		<g>
			<path class="st4" d="M265.563,124.578c0,0,17.793-7.382,32.937,5.679c0,0-17.604-4.543-29.529,1.136L265.563,124.578z"/>
		</g>
	</g>
	<g>
		<g>
			<path class="st7" d="M256,26L256,26c17.062,0,32.58,6.583,44.177,17.336C292.863,29.03,275.838,19,256,19
				s-36.863,10.03-44.177,24.336C223.42,32.583,238.938,26,256,26z"/>
		</g>
	</g>
	<g>
		<g>
			<polygon class="st3" points="259,170 249.157,170 253.09,154.272 258.91,155.728 256.843,164 259,164 			"/>
		</g>
	</g>
	<g>
		<g>
			<path class="st19" d="M284,163h-10c-2.209,0-4-1.791-4-4l0,0c0-2.209,1.791-4,4-4h10c2.209,0,4,1.791,4,4l0,0
				C288,161.209,286.209,163,284,163z"/>
		</g>
	</g>
	<g>
		<g>
			<path class="st19" d="M228,163h10c2.209,0,4-1.791,4-4l0,0c0-2.209-1.791-4-4-4h-10c-2.209,0-4,1.791-4,4l0,0
				C224,161.209,225.791,163,228,163z"/>
		</g>
	</g>
	<g>
		<g>
			<path class="st4" d="M235.5,139.5c-0.022,0-0.044,0.003-0.067,0.003c-0.62,0.028-5.516,0.18-7.933-2.003
				c0,0,0.619,2.919,2.817,4.987c-0.516,0.886-0.817,1.913-0.817,3.013c0,3.314,2.686,6,6,6s6-2.686,6-6S238.814,139.5,235.5,139.5z
				"/>
		</g>
	</g>
	<g>
		<g>
			<path class="st4" d="M275.5,139.5c0.022,0,0.044,0.003,0.067,0.003c0.62,0.028,5.516,0.18,7.933-2.003
				c0,0-0.619,2.919-2.817,4.987c0.516,0.886,0.817,1.913,0.817,3.013c0,3.314-2.686,6-6,6s-6-2.686-6-6S272.186,139.5,275.5,139.5z
				"/>
		</g>
	</g>
	<g>
		<g>
			<polygon class="st6" points="256,307 224,278 203,292 209,238 229,215 229,232 222,235 			"/>
		</g>
	</g>
	<g>
		<g>
			<path class="st17" d="M375.39,352.346l17.042-53.56l4.004,10.761l0,0L377,373l0,0
				C373.794,366.588,373.216,359.178,375.39,352.346z"/>
		</g>
	</g>
	<g>
		<g>
			<polygon class="st6" points="256,307 288,278 309,292 303,238 283,215 283,232 290,235 			"/>
		</g>
	</g>
	<g>
		<g>
			<path class="st6" d="M246,181h20l-0.106,0.425c-1.113,4.452-5.113,7.575-9.701,7.575h-0.384c-4.589,0-8.589-3.123-9.701-7.575
				L246,181z"/>
		</g>
	</g>
	<g>
		<g>
			<path class="st4" d="M256,26L256,26c-35.899,0-65,29.102-65,65v22h7v51c8.85-41.746,28.407-59.984,45.723-67.793
				C236.492,103.813,233,111,233,111c14.667-18.667,43-20,43-20s6.667,22,28,22l10,27v-27h7V91C321,55.102,291.899,26,256,26z"/>
		</g>
	</g>
	<g>
		<g>
			<rect x="277" y="443" class="st17" width="50" height="8"/>
		</g>
	</g>
	<g>
		<g>
			<rect x="185" y="443" class="st17" width="50" height="8"/>
		</g>
	</g>
	<g>
		<g>
			<circle class="st7" cx="264" cy="379" r="5"/>
		</g>
	</g>
	<g>
		<g>
			<circle class="st7" cx="264" cy="407" r="5"/>
		</g>
	</g>
	<g>
		<g>
			<circle class="st7" cx="264" cy="435" r="5"/>
		</g>
	</g>
	<g>
		<g>
			<circle class="st7" cx="264" cy="463" r="5"/>
		</g>
	</g>
</g>
</svg>
