<?xml version="1.0" encoding="utf-8"?>
<!-- Generator: Adobe Illustrator 22.0.0, SVG Export Plug-In . SVG Version: 6.00 Build 0)  -->
<svg version="1.1" id="Layer_1" xmlns="http://www.w3.org/2000/svg" xmlns:xlink="http://www.w3.org/1999/xlink" x="0px" y="0px"
	 viewBox="0 0 512 512" style="enable-background:new 0 0 512 512;" xml:space="preserve">
<style type="text/css">
	.st0{fill:#FF7B7B;}
	.st1{fill:#FFB236;}
	.st2{fill:#FFD3B3;}
	.st3{fill:#FCB98B;}
	.st4{fill:#6E83B7;}
	.st5{fill:#FFB0AA;}
	.st6{fill:#EDEFF1;}
	.st7{fill:#FFE352;}
	.st8{fill:#46BEE8;}
	.st9{fill:#9CE5FF;}
	.st10{fill:#80D6FB;}
	.st11{fill:#FFE67B;}
	.st12{fill:#F76161;}
	.st13{fill:#98CA69;}
	.st14{fill:#75AA40;}
	.st15{fill:#BFEA8C;}
	.st16{fill:#D3D3D3;}
	.st17{fill:#466089;}
	.st18{fill:#7C93BF;}
	.st19{fill:#FFC69F;}
	.st20{fill:#859CC1;}
	.st21{fill:#EFA470;}
	.st22{fill:#C1C1C1;}
	.st23{fill:#E2935D;}
	.st24{fill:#99E5FF;}
</style>
<g>
	<g>
		<g>
			<rect x="114.232" y="361.194" class="st19" width="49.968" height="145.806"/>
		</g>
	</g>
	<g>
		<g>
			<rect x="348.2" y="361.194" class="st19" width="49.968" height="145.9"/>
		</g>
	</g>
	<g>
		<g>
			<path class="st7" d="M357.378,236.409l-73.919-24.98H256.2h-27.258l-73.919,24.98c-24.38,8.239-40.791,31.108-40.791,56.842
				v67.943H164.2v145.9h184v-145.9h49.968v-67.943C398.169,267.516,381.758,244.648,357.378,236.409z"/>
		</g>
	</g>
	<g>
		<g>
			<path class="st1" d="M346.653,321.967h-6v-35.208c0-22.265,9.648-31.364,10.059-31.741l4.073,4.406
				c-0.082,0.077-8.132,7.938-8.132,27.335V321.967z"/>
		</g>
	</g>
	<g>
		<g>
			<path class="st1" d="M171.748,321.967h-6v-35.208c0-19.654-8.032-27.244-8.113-27.318l4.055-4.423
				c0.41,0.376,10.059,9.476,10.059,31.741V321.967z"/>
		</g>
	</g>
	<g>
		<g>
			<rect x="114.232" y="348.428" class="st1" width="49.968" height="12.766"/>
		</g>
	</g>
	<g>
		<g>
			<path class="st1" d="M283.458,211.429H256.2h-27.258l-9.844,3.326c1.689,18.991,17.679,33.931,37.101,33.931
				s35.412-14.941,37.102-33.931L283.458,211.429z"/>
		</g>
	</g>
	<g>
		<g>
			<path class="st2" d="M256.2,238.687L256.2,238.687c-15.054,0-27.258-12.204-27.258-27.258v-39.38h54.516v39.38
				C283.458,226.483,271.255,238.687,256.2,238.687z"/>
		</g>
	</g>
	<g>
		<g>
			<path class="st3" d="M228.942,186.684c8.334,3.721,17.554,5.809,27.258,5.809c9.704,0,18.924-2.087,27.258-5.809v-14.635h-54.516
				V186.684z"/>
		</g>
	</g>
	<g>
		<g>
			<path class="st2" d="M313.923,125.587c0,31.933-25.99,57.82-57.923,57.82s-57.923-25.887-57.923-57.82V87.09l115.846-0.003
				V125.587z"/>
		</g>
	</g>
	<g>
		<g>
			<path class="st4" d="M246.2,95.094c0,0-18.857-7.061-34,6c0,0,19.625-5,31,2L246.2,95.094z"/>
		</g>
	</g>
	<g>
		<g>
			<circle class="st4" cx="234.2" cy="114.094" r="6"/>
		</g>
	</g>
	<g>
		<g>
			<circle class="st4" cx="278.2" cy="114.094" r="6"/>
		</g>
	</g>
	<g>
		<g>
			<path class="st4" d="M266.2,95.094c0,0,18.857-7.061,34,6c0,0-19.625-5-31,2L266.2,95.094z"/>
		</g>
	</g>
	<g>
		<g>
			<path class="st6" d="M246.2,156.094h20l-0.106,0.425c-1.113,4.452-5.113,7.575-9.701,7.575h-0.384
				c-4.589,0-8.589-3.123-9.701-7.575L246.2,156.094z"/>
		</g>
	</g>
	<g>
		<g>
			<path class="st2" d="M313.923,87.087h4.264c6.798,0,12.074,5.933,11.28,12.684l-1.591,13.523
				c-0.832,7.075-6.829,12.408-13.953,12.408h0V87.087z"/>
		</g>
	</g>
	<g>
		<g>
			<path class="st2" d="M198.077,87.087h-4.264c-6.799,0-12.074,5.933-11.28,12.684l1.591,13.523
				c0.832,7.075,6.829,12.408,13.953,12.408h0V87.087z"/>
		</g>
	</g>
	<g>
		<g>
			<polygon class="st3" points="261.879,140.977 248.396,140.977 249.804,124.099 255.782,124.597 254.918,134.977 261.879,134.977 
							"/>
		</g>
	</g>
	<g>
		<g>
			<rect x="348.2" y="348.428" class="st1" width="49.968" height="12.766"/>
		</g>
	</g>
	<g>
		<g>
			<rect x="362.961" y="410.094" class="st3" width="16.906" height="6"/>
		</g>
	</g>
	<g>
		<g>
			<rect x="129.18" y="410.094" class="st3" width="16.906" height="6"/>
		</g>
	</g>
	<g>
		<g>
			<g>
				<path class="st4" d="M198.077,87.09v13.319l2.82-2.27c2.59-2.16,4.18-5.35,4.18-8.73V87.09H198.077z"/>
			</g>
		</g>
		<g>
			<g>
				<path class="st4" d="M306.923,89.496c0,3.38,1.59,6.57,4.18,8.73l2.82,2.27V87.089l-7,0.001V89.496z"/>
			</g>
		</g>
	</g>
	<g>
		<g>
			<path class="st10" d="M318.2,73.5V45.238c0-12.724-6.053-24.689-16.304-32.226l-0.323-0.238C294.704,7.724,286.402,5,277.877,5
				H256h-21.72c-8.622,0-17.013,2.786-23.923,7.942l-0.081,0.06c-10.118,7.55-16.077,19.434-16.077,32.058v42.026L369,87.09V73.5
				H318.2z"/>
		</g>
	</g>
	<g>
		<g>
			<path class="st2" d="M274,76h-36V61.833C238,55.85,242.85,51,248.833,51h14.333C269.15,51,274,55.85,274,61.833V76z"/>
		</g>
	</g>
	<g>
		<g>
			<path class="st4" d="M274,68.696h-36v-6.863C238,55.85,242.85,51,248.833,51h14.333C269.15,51,274,55.85,274,61.833V68.696z"/>
		</g>
	</g>
	<g>
		<g>
			<rect x="238" y="76" class="st8" width="36" height="11"/>
		</g>
	</g>
</g>
</svg>
