<?xml version="1.0" encoding="utf-8"?>
<!-- Generator: Adobe Illustrator 22.0.0, SVG Export Plug-In . SVG Version: 6.00 Build 0)  -->
<svg version="1.1" id="Layer_1" xmlns="http://www.w3.org/2000/svg" xmlns:xlink="http://www.w3.org/1999/xlink" x="0px" y="0px"
	 viewBox="0 0 512 512" style="enable-background:new 0 0 512 512;" xml:space="preserve">
<style type="text/css">
	.st0{fill:#FF7B7B;}
	.st1{fill:#FFB236;}
	.st2{fill:#FFD3B3;}
	.st3{fill:#FCB98B;}
	.st4{fill:#6E83B7;}
	.st5{fill:#FFB0AA;}
	.st6{fill:#EDEFF1;}
	.st7{fill:#FFE352;}
	.st8{fill:#46BEE8;}
	.st9{fill:#9CE5FF;}
	.st10{fill:#80D6FB;}
	.st11{fill:#FFE67B;}
	.st12{fill:#F76161;}
	.st13{fill:#98CA69;}
	.st14{fill:#75AA40;}
	.st15{fill:#BFEA8C;}
	.st16{fill:#D3D3D3;}
	.st17{fill:#466089;}
	.st18{fill:#7C93BF;}
	.st19{fill:#FFC69F;}
	.st20{fill:#859CC1;}
	.st21{fill:#EFA470;}
	.st22{fill:#C1C1C1;}
	.st23{fill:#E2935D;}
	.st24{fill:#99E5FF;}
</style>
<g>
	<g>
		<g>
			<path class="st17" d="M321,94v118c0,0-25.167-22-65-22c-39.833,0-65,22-65,22V94H321z"/>
		</g>
	</g>
	<g>
		<g>
			<path class="st4" d="M198,206.932c-4.56,2.936-7,5.068-7,5.068v-83h7V206.932z"/>
		</g>
	</g>
	<g>
		<g>
			<path class="st4" d="M314,206.932c4.56,2.936,7,5.068,7,5.068v-83h-7V206.932z"/>
		</g>
	</g>
	<g>
		<g>
			<polygon class="st2" points="283,203 283,181 229,181 229,203 256,256 			"/>
		</g>
	</g>
	<g>
		<g>
			<polygon class="st6" points="256,507 290,507 290,256 256,256 222,256 222,507 			"/>
		</g>
	</g>
	<g>
		<g>
			<rect x="253" y="256" class="st16" width="6" height="251"/>
		</g>
	</g>
	<g>
		<g>
			<path class="st2" d="M314,92h6.598c6.041,0,10.703,5.315,9.915,11.305l-2.597,19.739c-0.524,3.981-3.917,6.956-7.932,6.956H314
				V92z"/>
		</g>
	</g>
	<g>
		<g>
			<path class="st2" d="M198,92h-6.598c-6.041,0-10.703,5.315-9.915,11.305l2.597,19.739c0.524,3.981,3.917,6.956,7.932,6.956H198
				V92z"/>
		</g>
	</g>
	<g>
		<g>
			<path class="st3" d="M229,194.396c8.282,3.598,17.41,5.604,27,5.604s18.718-2.006,27-5.604V181h-54V194.396z"/>
		</g>
	</g>
	<g>
		<g>
			<path class="st2" d="M314,132c0,32.033-25.967,58-58,58s-58-25.967-58-58V56h116V132z"/>
		</g>
	</g>
	<g>
		<g>
			<path class="st4" d="M221.94,212.98l-67.535,18.958C131.104,238.479,115,259.726,115,283.928V420c0,15.464,12.536,28,28,28h22
				V332l9,52l-14,123h76V337L221.94,212.98z"/>
		</g>
	</g>
	<g>
		<g>
			<g>
				<polygon class="st20" points="197.838,219.747 188,255 216,295 207,319 236,381.529 236,337 221.942,212.981 				"/>
			</g>
		</g>
	</g>
	<g>
		<g>
			<path class="st4" d="M290.06,212.98l67.535,18.958c23.302,6.541,39.405,27.788,39.405,51.99V420c0,15.464-12.536,28-28,28h-22
				V332l-9,52l14,123h-76V337L290.06,212.98z"/>
		</g>
	</g>
	<g>
		<g>
			<g>
				<polygon class="st20" points="314.162,219.747 324,255 296,295 305,319 276,381.529 276,337 290.058,212.981 				"/>
			</g>
		</g>
	</g>
	<g>
		<g>
			<path class="st4" d="M287,16h-3c-7.043-7.043-16.596-11-26.556-11H251c-33.137,0-60,26.863-60,60v27h7v27l11.693-27.284
				C261.479,89.157,276,70,276,70s12.404,14.615,27.462,20.02L314,119V92h7V50C321,31.222,305.778,16,287,16z"/>
		</g>
	</g>
	<g>
		<g>
			<polygon class="st3" points="259,149 249.157,149 253.09,133.272 258.91,134.728 256.843,143 259,143 			"/>
		</g>
	</g>
	<g>
		<g>
			<path class="st4" d="M266,104c0,0,16.939-7.347,33,3c0,0-13.75-3.375-30,3L266,104z"/>
		</g>
	</g>
	<g>
		<g>
			<path class="st4" d="M246,104c0,0-16.939-7.347-33,3c0,0,13.75-3.375,30,3L246,104z"/>
		</g>
	</g>
	<g>
		<g>
			<path class="st3" d="M256,168c-6.188,0-10.307-2.292-10.479-2.39l2.957-5.221c0.011,0.006,2.995,1.61,7.521,1.61
				c4.551,0,7.493-1.595,7.521-1.61l2.957,5.221C266.307,165.708,262.188,168,256,168z"/>
		</g>
	</g>
	<g>
		<g>
			<path class="st19" d="M284,142h-10c-2.209,0-4-1.791-4-4l0,0c0-2.209,1.791-4,4-4h10c2.209,0,4,1.791,4,4l0,0
				C288,140.209,286.209,142,284,142z"/>
		</g>
	</g>
	<g>
		<g>
			<path class="st19" d="M228,142h10c2.209,0,4-1.791,4-4l0,0c0-2.209-1.791-4-4-4h-10c-2.209,0-4,1.791-4,4l0,0
				C224,140.209,225.791,142,228,142z"/>
		</g>
	</g>
	<g>
		<g>
			<path class="st4" d="M236,118c-0.022,0-0.044,0.003-0.067,0.003c-0.62,0.028-5.516,0.18-7.933-2.003c0,0,0.619,2.919,2.817,4.987
				C230.301,121.874,230,122.901,230,124c0,3.314,2.686,6,6,6s6-2.686,6-6S239.314,118,236,118z"/>
		</g>
	</g>
	<g>
		<g>
			<path class="st4" d="M276,118c0.022,0,0.044,0.003,0.067,0.003c0.62,0.028,5.516,0.18,7.933-2.003c0,0-0.619,2.919-2.817,4.987
				c0.516,0.886,0.817,1.913,0.817,3.013c0,3.314-2.686,6-6,6s-6-2.686-6-6S272.686,118,276,118z"/>
		</g>
	</g>
	<g>
		<g>
			<g>
				<path class="st7" d="M341.624,464.334H294.5v-14h47.124c1.654,0,3-1.346,3-3v-80.333c0-1.654-1.346-3-3-3H318.34v-14h23.284
					c9.374,0,17,7.626,17,17v80.333C358.624,456.708,350.998,464.334,341.624,464.334z"/>
			</g>
		</g>
		<g>
			<g>
				<path class="st7" d="M217.5,464.334h-47.124c-9.374,0-17-7.626-17-17v-80.333c0-9.374,7.626-17,17-17h23.284v14h-23.284
					c-1.654,0-3,1.346-3,3v80.333c0,1.654,1.346,3,3,3H217.5V464.334z"/>
			</g>
		</g>
		<g>
			<g>
				<rect x="186" y="332" class="st7" width="140" height="18"/>
			</g>
		</g>
		<g>
			<g>
				<rect x="242.267" y="475.001" class="st1" width="27.466" height="32"/>
			</g>
		</g>
		<g>
			<g>
				<path class="st7" d="M256,483.001L256,483.001c-34.429,0-62.34-27.91-62.34-62.34v-70.724H318.34v70.724
					C318.34,455.09,290.429,483.001,256,483.001z"/>
			</g>
		</g>
		<g>
			<g>
				<rect x="193.66" y="350" class="st1" width="124.68" height="7.437"/>
			</g>
		</g>
	</g>
	<g>
		<g>
			<g>
				<path class="st2" d="M170,399h-32c-3.866,0-7-3.134-7-7l0,0c0-3.866,3.134-7,7-7h32c3.866,0,7,3.134,7,7l0,0
					C177,395.866,173.866,399,170,399z"/>
			</g>
		</g>
		<g>
			<g>
				<path class="st2" d="M168,427h-30c-3.866,0-7-3.134-7-7l0,0c0-3.866,3.134-7,7-7h30c3.866,0,7,3.134,7,7l0,0
					C175,423.866,171.866,427,168,427z"/>
			</g>
		</g>
		<g>
			<g>
				<path class="st2" d="M165,441h-24c-3.866,0-7-3.134-7-7l0,0c0-3.866,3.134-7,7-7h24c3.866,0,7,3.134,7,7l0,0
					C172,437.866,168.866,441,165,441z"/>
			</g>
		</g>
		<g>
			<g>
				<path class="st2" d="M172,413h-36c-3.866,0-7-3.134-7-7l0,0c0-3.866,3.134-7,7-7h36c3.866,0,7,3.134,7,7l0,0
					C179,409.866,175.866,413,172,413z"/>
			</g>
		</g>
	</g>
	<g>
		<g>
			<g>
				<path class="st2" d="M342,399h32c3.866,0,7-3.134,7-7l0,0c0-3.866-3.134-7-7-7h-32c-3.866,0-7,3.134-7,7l0,0
					C335,395.866,338.134,399,342,399z"/>
			</g>
		</g>
		<g>
			<g>
				<path class="st2" d="M344,427h30c3.866,0,7-3.134,7-7l0,0c0-3.866-3.134-7-7-7h-30c-3.866,0-7,3.134-7,7l0,0
					C337,423.866,340.134,427,344,427z"/>
			</g>
		</g>
		<g>
			<g>
				<path class="st2" d="M347,441h24c3.866,0,7-3.134,7-7l0,0c0-3.866-3.134-7-7-7h-24c-3.866,0-7,3.134-7,7l0,0
					C340,437.866,343.134,441,347,441z"/>
			</g>
		</g>
		<g>
			<g>
				<path class="st2" d="M340,413h36c3.866,0,7-3.134,7-7l0,0c0-3.866-3.134-7-7-7h-36c-3.866,0-7,3.134-7,7l0,0
					C333,409.866,336.134,413,340,413z"/>
			</g>
		</g>
	</g>
	<g>
		<g>
			<polygon class="st16" points="229,203 256,256 229,281 221.942,212.981 			"/>
		</g>
	</g>
	<g>
		<g>
			<polygon class="st16" points="283,203 256,256 283,281 290.058,212.981 			"/>
		</g>
	</g>
</g>
</svg>
