<?xml version="1.0" encoding="utf-8"?>
<!-- Generator: Adobe Illustrator 22.0.0, SVG Export Plug-In . SVG Version: 6.00 Build 0)  -->
<svg version="1.1" id="Layer_1" xmlns="http://www.w3.org/2000/svg" xmlns:xlink="http://www.w3.org/1999/xlink" x="0px" y="0px"
	 viewBox="0 0 512 512" style="enable-background:new 0 0 512 512;" xml:space="preserve">
<style type="text/css">
	.st0{fill:#FF7B7B;}
	.st1{fill:#FFB236;}
	.st2{fill:#FFD3B3;}
	.st3{fill:#FCB98B;}
	.st4{fill:#6E83B7;}
	.st5{fill:#FFB0AA;}
	.st6{fill:#EDEFF1;}
	.st7{fill:#FFE352;}
	.st8{fill:#46BEE8;}
	.st9{fill:#9CE5FF;}
	.st10{fill:#80D6FB;}
	.st11{fill:#FFE67B;}
	.st12{fill:#F76161;}
	.st13{fill:#98CA69;}
	.st14{fill:#75AA40;}
	.st15{fill:#BFEA8C;}
	.st16{fill:#D3D3D3;}
	.st17{fill:#466089;}
	.st18{fill:#7C93BF;}
	.st19{fill:#FFC69F;}
	.st20{fill:#859CC1;}
	.st21{fill:#EFA470;}
	.st22{fill:#C1C1C1;}
	.st23{fill:#E2935D;}
	.st24{fill:#99E5FF;}
</style>
<g>
	<g>
		<g>
			<g>
				
					<rect x="1.534" y="213.068" transform="matrix(0.8458 -0.5335 0.5335 0.8458 -109.7726 62.3617)" class="st4" width="102.91" height="16"/>
			</g>
		</g>
		<g>
			<g>
				<path class="st2" d="M97.044,270.439l-12.519-19.846c4.1-5.076,4.747-12.387,1.072-18.213l-21.404-33.933l-26.627,16.796
					l-21.393,13.494l21.405,33.933c3.675,5.826,10.552,8.391,16.899,6.877l12.519,19.846L97.044,270.439z"/>
			</g>
		</g>
		<g>
			<g>
				<path class="st3" d="M16.173,228.738l14.396,22.823c2.516,0.526,5.229,0.122,7.569-1.354c1.815-1.145,3.146-2.77,3.937-4.607
					c3.003,1.292,6.571,1.137,9.539-0.736c2.203-1.39,3.686-3.488,4.362-5.811c2.644,0.682,5.55,0.326,8.036-1.242
					c2.752-1.736,4.389-4.574,4.716-7.582c2.166,0.196,4.408-0.279,6.385-1.527c2.25-1.42,3.749-3.579,4.403-5.962l-15.324-24.293
					l-26.627,16.796L16.173,228.738z"/>
			</g>
		</g>
		<g>
			<g>
				<g>
					<path class="st2" d="M63.613,223.825l-12.239-19.403c-2.099-3.328-1.103-7.727,2.225-9.827l0,0
						c3.328-2.099,7.727-1.103,9.827,2.225l12.239,19.403c2.099,3.328,1.103,7.727-2.225,9.827h0
						C70.112,228.149,65.712,227.153,63.613,223.825z"/>
				</g>
			</g>
			<g>
				<g>
					<path class="st2" d="M40.115,239.986l-13.794-21.867c-2.099-3.328-1.103-7.727,2.225-9.827h0
						c3.328-2.099,7.727-1.103,9.827,2.225l13.794,21.867c2.099,3.328,1.103,7.727-2.225,9.827l0,0
						C46.613,244.31,42.214,243.314,40.115,239.986z"/>
				</g>
			</g>
			<g>
				<g>
					<path class="st2" d="M26.638,245.329L15.695,227.98c-2.099-3.328-1.103-7.727,2.225-9.827h0
						c3.328-2.099,7.727-1.103,9.827,2.225l10.943,17.348c2.099,3.328,1.103,7.727-2.225,9.827h0
						C33.137,249.653,28.737,248.656,26.638,245.329z"/>
				</g>
			</g>
			<g>
				<g>
					<path class="st2" d="M52.512,232.933l-14.14-22.416c-2.099-3.328-1.103-7.727,2.225-9.827h0
						c3.328-2.099,7.727-1.103,9.827,2.225l14.14,22.416c2.099,3.328,1.103,7.727-2.225,9.827h0
						C59.011,237.257,54.611,236.261,52.512,232.933z"/>
				</g>
			</g>
		</g>
		<g>
			<g>
				<path class="st3" d="M71.516,215.132l-11.568,7.297c-4.568,2.881-6.075,8.794-3.578,13.487c1.934,0.617,4.117,0.41,5.969-0.758
					c3.328-2.099,4.324-6.499,2.225-9.827l-0.95-1.506c2.099,3.328,6.499,4.324,9.827,2.225c3.328-2.099,4.324-6.499,2.225-9.827
					l-1.443-2.288C73.288,214.196,72.376,214.589,71.516,215.132z"/>
			</g>
		</g>
		<g>
			<g>
				<path class="st2" d="M61.621,225.081l11.568-7.297c3.328-2.099,7.727-1.103,9.827,2.225l0,0
					c2.099,3.328,1.103,7.727-2.225,9.827l-11.568,7.297c-3.328,2.099-7.727,1.103-9.827-2.225l0,0
					C57.297,231.58,58.293,227.181,61.621,225.081z"/>
			</g>
		</g>
		<g>
			<g>
				<path class="st3" d="M67.318,262.495c-0.269-0.409-6.575-10.121-5.364-18.206l3.956,0.593
					c-0.819,5.469,3.151,12.983,4.75,15.417L67.318,262.495z"/>
			</g>
		</g>
		<g>
			<g>
				
					<rect x="92.773" y="146.511" transform="matrix(0.8458 -0.5335 0.5335 0.8458 -78.3606 90.2846)" class="st4" width="48.446" height="68.363"/>
			</g>
		</g>
		<g>
			<g>
				
					<rect x="71.15" y="140.065" transform="matrix(0.8458 -0.5335 0.5335 0.8458 -63.4066 73.462)" class="st6" width="48.446" height="12.696"/>
			</g>
		</g>
		<g>
			<g>
				
					<rect x="114.396" y="208.624" transform="matrix(0.8458 -0.5335 0.5335 0.8458 -93.3147 107.1072)" class="st6" width="48.446" height="12.696"/>
			</g>
		</g>
	</g>
	<g>
		<g>
			<path class="st2" d="M272.792,243.826L272.792,243.826c-15.563,0-28.179-12.616-28.179-28.179v-28.179h56.358v28.179
				C300.97,231.21,288.354,243.826,272.792,243.826z"/>
		</g>
	</g>
	<g>
		<g>
			<path class="st3" d="M244.613,202.695c8.349,3.884,18.051,6.062,28.179,6.062c10.128,0,19.83-2.178,28.179-6.062v-15.227h-56.358
				V202.695z"/>
		</g>
	</g>
	<g>
		<g>
			<path class="st2" d="M333.075,138.978c0,33.121-27.161,59.97-60.532,59.97s-60.532-26.85-60.532-59.97V80.094h121.064V138.978z"
				/>
		</g>
	</g>
	<g>
		<g>
			<path class="st2" d="M212.01,98.757h-6.176c-6.2,0-11.033,5.373-10.378,11.539l1.797,16.919
				c0.676,6.369,6.049,11.201,12.454,11.201h2.303V98.757z"/>
		</g>
	</g>
	<g>
		<g>
			<path class="st2" d="M333.075,98.757h6.176c6.2,0,11.033,5.373,10.378,11.539l-1.797,16.919
				c-0.676,6.369-6.049,11.201-12.454,11.201h-2.303V98.757z"/>
		</g>
	</g>
	<g>
		<g>
			<path class="st10" d="M430.807,384.049c0.482-7.17-0.977-14.338-4.224-20.75l-45.899-90.65
				c-8.853-17.612-25.033-30.415-44.209-34.981l-35.505-8.453v-20.873c0,0-9.654,6.262-28.179,6.262
				c-18.525,0-28.179-6.262-28.179-6.262v20.873l-35.505,8.453c-19.176,4.566-35.356,17.369-44.209,34.981l-29.4,58.492
				l-35.957-71.33l-43.5,24.908l54.714,108.583c4.955,9.821,15.137,16.059,26.099,16.059c0.264,0,0.528-0.004,0.793-0.011
				c11.261-0.309,20.602-7.149,25.97-17.498l15.244-30.092v145.335h93.929h93.929V361.759l15.244,30.092l-8.422,115.242h49
				L430.807,384.049z"/>
		</g>
	</g>
	<g>
		<g>
			<polygon class="st17" points="339.251,26.073 339.251,98.757 333.075,98.757 333.075,128.637 318.215,91.094 272.543,91.094 
				272.543,26.073 			"/>
		</g>
	</g>
	<g>
		<g>
			<path class="st4" d="M300.97,26.073h-48.763c-9.29,0-16.851,7.313-17.293,16.493c-16.304,1.476-29.08,15.173-29.08,31.862v24.33
				h6.176v29.88l14.86-37.543h79.36c18.237,0,33.021-14.784,33.021-33.021V5.094C339.251,5.094,333.731,26.073,300.97,26.073z"/>
		</g>
	</g>
	<g>
		<g>
			<path class="st4" d="M364.048,377.854c-17.356-9.899-28.071-28.344-28.071-48.325v-91.861l-20.519-4.885v94.978h-42.915h-42.915
				v-94.978l-20.519,4.885v91.861c0,19.98-10.715,38.426-28.071,48.325l-2.175,1.24v128h93.68h93.68v-128L364.048,377.854z"/>
		</g>
	</g>
	<g>
		<g>
			<path class="st17" d="M278.543,451.406h-12c-22.091,0-40-17.909-40-40v-56h92v56
				C318.543,433.497,300.634,451.406,278.543,451.406z"/>
		</g>
	</g>
	<g>
		<g>
			<g>
				<polygon class="st3" points="278.221,156.749 264.063,156.749 268.65,140.071 274.435,141.662 271.936,150.749 278.221,150.749 
									"/>
			</g>
		</g>
		<g>
			<g>
				<path class="st4" d="M262.543,110.866c0,0-7.726-2.893-17.259-1.55c-5.36,0.755-11.291,2.849-16.741,7.55c0,0,19.625-5,31,2
					L262.543,110.866z"/>
			</g>
		</g>
		<g>
			<g>
				<circle class="st4" cx="250.543" cy="129.866" r="6"/>
			</g>
		</g>
		<g>
			<g>
				<path class="st4" d="M282.543,110.866c0,0,18.857-7.061,34,6c0,0-19.625-5-31,2L282.543,110.866z"/>
			</g>
		</g>
		<g>
			<g>
				<path class="st6" d="M262.543,171.866h20l-0.106,0.425c-1.113,4.452-5.113,7.575-9.701,7.575h-0.384
					c-4.589,0-8.589-3.123-9.701-7.575L262.543,171.866z"/>
			</g>
		</g>
		<g>
			<g>
				<circle class="st4" cx="294.543" cy="129.866" r="6"/>
			</g>
		</g>
	</g>
</g>
</svg>
