<?xml version="1.0" encoding="utf-8"?>
<!-- Generator: Adobe Illustrator 22.0.0, SVG Export Plug-In . SVG Version: 6.00 Build 0)  -->
<svg version="1.1" id="Layer_1" xmlns="http://www.w3.org/2000/svg" xmlns:xlink="http://www.w3.org/1999/xlink" x="0px" y="0px"
	 viewBox="0 0 512 512" style="enable-background:new 0 0 512 512;" xml:space="preserve">
<style type="text/css">
	.st0{fill:#FF7B7B;}
	.st1{fill:#FFB236;}
	.st2{fill:#FFD3B3;}
	.st3{fill:#FCB98B;}
	.st4{fill:#6E83B7;}
	.st5{fill:#FFB0AA;}
	.st6{fill:#EDEFF1;}
	.st7{fill:#FFE352;}
	.st8{fill:#46BEE8;}
	.st9{fill:#9CE5FF;}
	.st10{fill:#80D6FB;}
	.st11{fill:#FFE67B;}
	.st12{fill:#F76161;}
	.st13{fill:#98CA69;}
	.st14{fill:#75AA40;}
	.st15{fill:#BFEA8C;}
	.st16{fill:#D3D3D3;}
	.st17{fill:#466089;}
	.st18{fill:#7C93BF;}
	.st19{fill:#FFC69F;}
	.st20{fill:#859CC1;}
	.st21{fill:#EFA470;}
	.st22{fill:#C1C1C1;}
	.st23{fill:#E2935D;}
	.st24{fill:#99E5FF;}
</style>
<g>
	<g>
		<g>
			<path class="st4" d="M345,179c-26.125-3-25.016-28-25.016-28H192.016c0,0,1.109,25-25.016,28c0,0,9.562,12,27,12
				c0,0,1.833,18-24,23c0,0,22.667,11.667,38,0c0,0,2.167,13.333-13,15c0,0,22.75,7.375,34-4h54c11.25,11.375,34,4,34,4
				c-15.167-1.667-13-15-13-15c15.333,11.667,38,0,38,0c-25.833-5-24-23-24-23C335.437,191,345,179,345,179z"/>
		</g>
	</g>
	<g>
		<g>
			<g>
				<path class="st10" d="M290,234l57.369,16.095C376.717,258.329,397,285.086,397,315.567V405h-55v-39l-14,45l20,96.02h-92V234H290
					z"/>
			</g>
		</g>
		<g>
			<g>
				<path class="st5" d="M347.369,250.095L290,234h-34h-34l-57.369,16.095C135.283,258.329,115,285.086,115,315.567V405h55v-39
					l14,45l-20,96.02h92h92L328,411l14-45v39h55v-89.433C397,285.086,376.717,258.329,347.369,250.095z"/>
			</g>
		</g>
		<g>
			<g>
				<polygon class="st0" points="338.835,463.02 328,411 184,411 173.061,463.518 256,442.936 				"/>
			</g>
		</g>
		<g>
			<g>
				<path class="st2" d="M284,380.216l33-4c7.125-0.844,13.221,1.495,18,6l3.508,3.007c2.216,1.9,3.492,4.673,3.492,7.593v12.401
					l-51,6L284,380.216z"/>
			</g>
		</g>
		<g>
			<g>
				<path class="st5" d="M284,374.216L165,402v-8.369h-50v32.107c0,22.03,20.63,38.244,42.036,33.037L295,425.216L284,374.216z"/>
			</g>
		</g>
		<g>
			<g>
				<polygon class="st0" points="295,425.22 239.08,438.82 207.54,431.15 210.37,418.02 170,413.27 170,400.83 295,401 				"/>
			</g>
		</g>
		<g>
			<g>
				<path class="st2" d="M228,380.216l-33-4c-7.125-0.844-13.221,1.495-18,6l-3.508,3.007c-2.216,1.9-3.492,4.673-3.492,7.593
					v12.401l51,6L228,380.216z"/>
			</g>
		</g>
		<g>
			<g>
				<path class="st5" d="M228,374.216L347,402v-8.369h50v32.107c0,22.03-20.63,38.244-42.036,33.037L217,425.216L228,374.216z"/>
			</g>
		</g>
		<g>
			<g>
				<path class="st6" d="M347.369,250.095L290,234h-34h-34l-57.369,16.095C135.283,258.329,115,285.086,115,315.567V320l97,45l44-33
					l44,33l97-45v-4.433C397,285.086,376.717,258.329,347.369,250.095z"/>
			</g>
		</g>
		<g>
			<g>
				<path class="st7" d="M301.216,353.412L256,319.5l-45.216,33.912l-95.368-45.251c-0.266,2.439-0.416,4.909-0.416,7.406V320l97,45
					l44-33l44,33l97-45v-4.433c0-2.497-0.15-4.967-0.416-7.406L301.216,353.412z"/>
			</g>
		</g>
		<g>
			<g>
				<path class="st7" d="M300,236.806L290,234h-34h-34l-10,2.806V242c0,24.262,19.738,44,44,44s44-19.738,44-44V236.806z"/>
			</g>
		</g>
		<g>
			<g>
				<path class="st2" d="M256,276L256,276c18.778,0,34-15.222,34-34v-8l-7-2v-30h-54v30l-7,2v8C222,260.778,237.222,276,256,276z"/>
			</g>
		</g>
		<g>
			<g>
				<path class="st2" d="M314,113h6.598c6.041,0,10.703,5.315,9.915,11.305l-2.597,19.739c-0.524,3.981-3.917,6.956-7.932,6.956H314
					V113z"/>
			</g>
		</g>
		<g>
			<g>
				<path class="st2" d="M198,113h-6.598c-6.041,0-10.703,5.315-9.915,11.305l2.597,19.739c0.524,3.981,3.917,6.956,7.932,6.956H198
					V113z"/>
			</g>
		</g>
		<g>
			<g>
				<path class="st3" d="M229,215.396c8.282,3.598,17.41,5.604,27,5.604s18.718-2.006,27-5.604V202h-54V215.396z"/>
			</g>
		</g>
		<g>
			<g>
				<path class="st2" d="M314,153c0,32.033-25.967,58-58,58s-58-25.967-58-58V92h116V153z"/>
			</g>
		</g>
		<g>
			<g>
				<path class="st4" d="M256,95l13.215,12.519c3.715,3.519,8.638,5.481,13.755,5.481H304c2.641,6.696,10,27,10,27v-27h7V91
					c0-35.898-29.101-65-65-65l0,0l0,0h0l0,0c-35.898,0-65,29.101-65,65v22h7v27c0,0,7.359-20.304,10-27h21.031
					c5.117,0,10.04-1.962,13.755-5.481L256,95z"/>
			</g>
		</g>
		<g>
			<g>
				<polygon class="st3" points="259,170 249.158,170 253.089,154.272 258.911,155.728 256.842,164 259,164 				"/>
			</g>
		</g>
		<g>
			<g>
				<path class="st4" d="M247.828,131.343c0,0-13.521-12.573-32.113-8.172c0,0,14.089,1.401,27.284,12.828L247.828,131.343z"/>
			</g>
		</g>
		<g>
			<g>
				<path class="st4" d="M264.172,131.343c0,0,13.521-12.573,32.113-8.172c0,0-14.089,1.401-27.284,12.828L264.172,131.343z"/>
			</g>
		</g>
		<g>
			<g>
				<path class="st3" d="M263.521,188.61c-0.011-0.006-2.996-1.61-7.521-1.61c-4.551,0-7.493,1.594-7.521,1.61l-2.957-5.221
					c0.172-0.098,4.291-2.39,10.479-2.39s10.306,2.292,10.479,2.39L263.521,188.61z"/>
			</g>
		</g>
		<g>
			<g>
				<path class="st19" d="M284,163h-10c-2.209,0-4-1.791-4-4l0,0c0-2.209,1.791-4,4-4h10c2.209,0,4,1.791,4,4l0,0
					C288,161.209,286.209,163,284,163z"/>
			</g>
		</g>
		<g>
			<g>
				<path class="st19" d="M228,163h10c2.209,0,4-1.791,4-4l0,0c0-2.209-1.791-4-4-4h-10c-2.209,0-4,1.791-4,4l0,0
					C224,161.209,225.791,163,228,163z"/>
			</g>
		</g>
		<g>
			<g>
				<path class="st4" d="M236,139c-0.022,0-0.044,0.003-0.067,0.003c-0.62,0.028-5.516,0.18-7.933-2.003
					c0,0,0.619,2.919,2.817,4.987C230.301,142.874,230,143.901,230,145c0,3.314,2.686,6,6,6s6-2.686,6-6S239.314,139,236,139z"/>
			</g>
		</g>
		<g>
			<g>
				<path class="st4" d="M276,139c0.022,0,0.044,0.003,0.067,0.003c0.62,0.028,5.516,0.18,7.933-2.003c0,0-0.619,2.919-2.817,4.987
					c0.516,0.886,0.817,1.913,0.817,3.013c0,3.314-2.686,6-6,6s-6-2.686-6-6S272.686,139,276,139z"/>
			</g>
		</g>
	</g>
	<g>
		<g>
			<rect x="251" y="280" class="st7" width="10" height="21"/>
		</g>
	</g>
	<g>
		<g>
			<circle class="st7" cx="256" cy="317" r="24"/>
		</g>
	</g>
	<g>
		<g>
			<circle class="st10" cx="256" cy="317" r="16"/>
		</g>
	</g>
	<g>
		<g>
			<polygon class="st7" points="321,80 321,66 307,49 301,29 284,41 256,12 228,41 211,29 205,49 191,66 191,80 			"/>
		</g>
	</g>
	<g>
		<g>
			<path class="st1" d="M321,92H191c-1.105,0-2-0.895-2-2v-8c0-1.105,0.895-2,2-2h130c1.105,0,2,0.895,2,2v8
				C323,91.105,322.105,92,321,92z"/>
		</g>
	</g>
	<g>
		<g>
			<g>
				<polygon class="st8" points="256.059,40 244.059,46 244.059,68 256.059,74 268.059,68 268.059,46 				"/>
			</g>
		</g>
		<g>
			<g>
				<polygon class="st9" points="244.059,46 244.059,68 256.059,74 256.059,40 				"/>
			</g>
		</g>
		<g>
			<g>
				<polygon class="st10" points="256.059,44 248.059,48.472 248.059,57 248.059,65.528 256.059,70 264.059,65.528 264.059,57 
					264.059,48.472 				"/>
			</g>
		</g>
	</g>
	<g>
		<g>
			<g>
				<polygon class="st8" points="296.059,57 291.118,59.471 291.118,68.529 296.059,71 301,68.529 301,59.471 				"/>
			</g>
		</g>
		<g>
			<g>
				<polygon class="st9" points="291.118,59.471 291.118,68.529 296.059,71 296.059,57 				"/>
			</g>
		</g>
		<g>
			<g>
				<polygon class="st10" points="296.059,58.647 292.765,60.489 292.765,64 292.765,67.511 296.059,69.353 299.353,67.511 
					299.353,64 299.353,60.489 				"/>
			</g>
		</g>
	</g>
	<g>
		<g>
			<g>
				<polygon class="st8" points="216.059,57 211.118,59.471 211.118,68.529 216.059,71 221,68.529 221,59.471 				"/>
			</g>
		</g>
		<g>
			<g>
				<polygon class="st9" points="211.118,59.471 211.118,68.529 216.059,71 216.059,57 				"/>
			</g>
		</g>
		<g>
			<g>
				<polygon class="st10" points="216.059,58.647 212.765,60.489 212.765,64 212.765,67.511 216.059,69.353 219.353,67.511 
					219.353,64 219.353,60.489 				"/>
			</g>
		</g>
	</g>
	<g>
		<g>
			<g>
				<circle class="st7" cx="256" cy="11" r="6"/>
			</g>
		</g>
		<g>
			<g>
				<path class="st1" d="M259.119,5.881C259.674,6.791,260,7.856,260,9c0,3.314-2.686,6-6,6c-1.144,0-2.209-0.326-3.119-0.881
					C251.935,15.844,253.83,17,256,17c3.314,0,6-2.686,6-6C262,8.83,260.844,6.935,259.119,5.881z"/>
			</g>
		</g>
	</g>
	<g>
		<g>
			<g>
				<circle class="st7" cx="301" cy="29" r="6"/>
			</g>
		</g>
		<g>
			<g>
				<path class="st1" d="M304.119,23.881C304.674,24.791,305,25.856,305,27c0,3.314-2.686,6-6,6c-1.144,0-2.209-0.326-3.119-0.881
					C296.935,33.844,298.83,35,301,35c3.314,0,6-2.686,6-6C307,26.83,305.844,24.935,304.119,23.881z"/>
			</g>
		</g>
	</g>
	<g>
		<g>
			<g>
				<circle class="st7" cx="211" cy="28.875" r="6"/>
			</g>
		</g>
		<g>
			<g>
				<path class="st1" d="M214.119,23.756c0.555,0.91,0.881,1.975,0.881,3.119c0,3.314-2.686,6-6,6c-1.144,0-2.209-0.326-3.119-0.881
					c1.054,1.726,2.949,2.881,5.119,2.881c3.314,0,6-2.686,6-6C217,26.705,215.844,24.81,214.119,23.756z"/>
			</g>
		</g>
	</g>
</g>
</svg>
