<?xml version="1.0" encoding="utf-8"?>
<!-- Generator: Adobe Illustrator 22.0.0, SVG Export Plug-In . SVG Version: 6.00 Build 0)  -->
<svg version="1.1" id="Layer_1" xmlns="http://www.w3.org/2000/svg" xmlns:xlink="http://www.w3.org/1999/xlink" x="0px" y="0px"
	 viewBox="0 0 512 512" style="enable-background:new 0 0 512 512;" xml:space="preserve">
<style type="text/css">
	.st0{fill:#FF7B7B;}
	.st1{fill:#FFB236;}
	.st2{fill:#FFD3B3;}
	.st3{fill:#FCB98B;}
	.st4{fill:#6E83B7;}
	.st5{fill:#FFB0AA;}
	.st6{fill:#EDEFF1;}
	.st7{fill:#FFE352;}
	.st8{fill:#46BEE8;}
	.st9{fill:#9CE5FF;}
	.st10{fill:#80D6FB;}
	.st11{fill:#FFE67B;}
	.st12{fill:#F76161;}
	.st13{fill:#98CA69;}
	.st14{fill:#75AA40;}
	.st15{fill:#BFEA8C;}
	.st16{fill:#D3D3D3;}
	.st17{fill:#466089;}
	.st18{fill:#7C93BF;}
	.st19{fill:#FFC69F;}
	.st20{fill:#859CC1;}
	.st21{fill:#EFA470;}
	.st22{fill:#C1C1C1;}
	.st23{fill:#E2935D;}
	.st24{fill:#99E5FF;}
</style>
<g>
	<g>
		<g>
			<polygon class="st6" points="256.2,211.8 209.635,211.8 224.399,359.447 224.399,491.194 256.2,491.194 288.001,491.194 
				288.001,359.447 302.766,211.8 			"/>
		</g>
	</g>
	<g>
		<g>
			<polygon class="st2" points="283.458,198.171 256.2,225.429 228.942,198.171 228.942,172.049 283.458,172.049 			"/>
		</g>
	</g>
	<g>
		<g>
			<g>
				<polygon class="st16" points="302.766,211.8 277.78,249.28 274.372,244.737 269.797,250.085 278.059,261.146 301.298,226.035 
									"/>
			</g>
		</g>
	</g>
	<g>
		<g>
			<g>
				<polygon class="st16" points="209.635,211.8 234.621,249.28 238.028,244.737 242.331,250.304 234.342,261.146 211.05,225.957 
									"/>
			</g>
		</g>
	</g>
	<g>
		<g>
			<polygon class="st10" points="263.684,257.23 273.684,445.23 255.684,464.941 237.684,445.23 247.684,257.23 			"/>
		</g>
	</g>
	<g>
		<g>
			<path class="st8" d="M261.227,265.18h-2c0-7.164-3.834-9.246-3.998-9.331l0.902-1.785
				C256.339,254.168,261.227,256.709,261.227,265.18z"/>
		</g>
	</g>
	<g>
		<g>
			<path class="st8" d="M252.141,265.18h-2c0-8.471,4.888-11.012,5.096-11.116l0.902,1.785
				C255.975,255.934,252.141,258.017,252.141,265.18z"/>
		</g>
	</g>
	<g>
		<g>
			<polygon class="st6" points="228.942,198.171 209.635,211.8 234.621,249.28 238.028,244.737 250.522,227.701 256.2,225.429 			
				"/>
		</g>
	</g>
	<g>
		<g>
			<polygon class="st6" points="283.458,198.171 302.766,211.8 277.78,249.28 274.372,244.737 261.879,227.701 256.2,225.429 			"/>
		</g>
	</g>
	<g>
		<g>
			<polygon class="st10" points="261.879,227.701 256.2,225.429 256.2,225.429 256.2,225.429 256.2,225.429 256.2,225.429 
				250.522,227.701 238.028,244.737 247.684,257.23 256.2,257.23 263.684,257.23 274.372,244.737 			"/>
		</g>
	</g>
	<g>
		<g>
			<path class="st8" d="M269.185,247.67c-3.186,3.895-7.953,6.153-12.985,6.153l0,0h-0.543c-5.368,0-10.411-2.568-13.568-6.909
				l-2.817-3.873l-1.244,1.697l9.655,12.493h8.517h7.483l10.689-12.493l-1.318-1.797L269.185,247.67z"/>
		</g>
	</g>
	<g>
		<g>
			<polygon class="st18" points="149.44,491.194 149.44,507.094 256.2,507.094 362.961,507.094 362.961,491.194 256.2,491.194 			
				"/>
		</g>
	</g>
	<g>
		<g>
			<path class="st4" d="M352.71,226.664L302.766,211.8l-14.765,147.647v147.647h74.959v-65.305h5.208c16.569,0,30-13.431,30-30
				V287.624C398.169,259.485,379.679,234.691,352.71,226.664z"/>
		</g>
	</g>
	<g>
		<g>
			<path class="st17" d="M389.243,377.051h-6c0-7.357-1.781-12.844-5.292-16.311c-4.045-3.993-9.203-3.972-9.252-3.972l-0.141-5.998
				c0.3-0.009,7.61-0.138,13.509,5.604C386.829,361.009,389.243,367.965,389.243,377.051z"/>
		</g>
	</g>
	<g>
		<g>
			<path class="st3" d="M228.942,186.684c8.334,3.721,17.554,5.809,27.258,5.809c9.704,0,18.924-2.087,27.258-5.809v-14.635h-54.516
				V186.684z"/>
		</g>
	</g>
	<g>
		<g>
			<path class="st2" d="M314.123,125.587c0,31.933-25.99,57.82-57.923,57.82s-57.923-25.887-57.923-57.82V68.696h115.846V125.587z"
				/>
		</g>
	</g>
	<g>
		<g>
			<path class="st2" d="M314.123,86.868h4.264c6.799,0,12.074,5.933,11.28,12.684l-1.591,13.523
				c-0.832,7.075-6.829,12.408-13.953,12.408l0,0V86.868z"/>
		</g>
	</g>
	<g>
		<g>
			<path class="st2" d="M198.277,86.868h-4.264c-6.798,0-12.074,5.933-11.28,12.684l1.591,13.523
				c0.832,7.075,6.829,12.408,13.953,12.408h0V86.868z"/>
		</g>
	</g>
	<g>
		<g>
			<path class="st4" d="M288.766,25.992c-5.152-12.275-17.283-20.898-31.429-20.898h-18.172c-25.09,0-45.43,20.34-45.43,45.43
				v36.344h4.543v38.615l2.728-2.273c2.589-2.158,4.087-5.354,4.087-8.725V80.053c0-6.273,5.085-11.357,11.357-11.357h1.981
				c5.397,0,10.655,1.647,15.125,4.672c6.393,4.326,13.369,6.686,22.644,6.686c9.275,0,16.251-2.36,22.644-6.686
				c4.47-3.024,9.728-4.672,15.125-4.672h1.981c6.273,0,11.357,5.085,11.357,11.357v34.431c0,3.371,1.497,6.567,4.087,8.725
				l2.728,2.273V86.868h4.543V68.696C318.666,49.06,306.208,32.336,288.766,25.992z"/>
		</g>
	</g>
	<g>
		<g>
			<path class="st4" d="M209.635,211.8l-49.944,14.864c-26.969,8.027-45.459,32.821-45.459,60.959v124.165c0,16.569,13.431,30,30,30
				h5.208v65.305h74.959V359.447L209.635,211.8z"/>
		</g>
	</g>
	<g>
		<g>
			<path class="st17" d="M129.157,377.051h-6c0-9.086,2.414-16.043,7.175-20.677c5.898-5.742,13.202-5.612,13.509-5.604
				l-0.141,5.998c-0.059-0.003-5.207-0.021-9.252,3.972C130.938,364.207,129.157,369.695,129.157,377.051z"/>
		</g>
	</g>
	<g>
		<g>
			<rect x="153.983" y="321.967" class="st6" width="204.434" height="143.104"/>
		</g>
	</g>
	<g>
		<g>
			<g>
				<path class="st2" d="M348.196,368.533h27.258c5.018,0,9.086-4.068,9.086-9.086l0,0c0-5.018-4.068-9.086-9.086-9.086h-27.258
					c-5.018,0-9.086,4.068-9.086,9.086l0,0C339.11,364.465,343.178,368.533,348.196,368.533z"/>
			</g>
		</g>
		<g>
			<g>
				<path class="st2" d="M350.467,404.877h27.258c5.018,0,9.086-4.068,9.086-9.086v0c0-5.018-4.068-9.086-9.086-9.086h-27.258
					c-5.018,0-9.086,4.068-9.086,9.086v0C341.381,400.809,345.449,404.877,350.467,404.877z"/>
			</g>
		</g>
		<g>
			<g>
				<path class="st2" d="M353.875,423.049h20.443c5.018,0,9.086-4.068,9.086-9.086l0,0c0-5.018-4.068-9.086-9.086-9.086h-20.443
					c-5.018,0-9.086,4.068-9.086,9.086l0,0C344.789,418.981,348.857,423.049,353.875,423.049z"/>
			</g>
		</g>
		<g>
			<g>
				<path class="st2" d="M345.924,386.705h31.801c5.018,0,9.086-4.068,9.086-9.086v0c0-5.018-4.068-9.086-9.086-9.086h-31.801
					c-5.018,0-9.086,4.068-9.086,9.086v0C336.838,382.637,340.906,386.705,345.924,386.705z"/>
			</g>
		</g>
	</g>
	<g>
		<g>
			<g>
				<path class="st2" d="M164.205,368.533h-27.258c-5.018,0-9.086-4.068-9.086-9.086l0,0c0-5.018,4.068-9.086,9.086-9.086h27.258
					c5.018,0,9.086,4.068,9.086,9.086l0,0C173.291,364.465,169.223,368.533,164.205,368.533z"/>
			</g>
		</g>
		<g>
			<g>
				<path class="st2" d="M161.933,404.877h-27.258c-5.018,0-9.086-4.068-9.086-9.086v0c0-5.018,4.068-9.086,9.086-9.086h27.258
					c5.018,0,9.086,4.068,9.086,9.086v0C171.019,400.809,166.951,404.877,161.933,404.877z"/>
			</g>
		</g>
		<g>
			<g>
				<path class="st2" d="M158.526,423.049h-20.443c-5.018,0-9.086-4.068-9.086-9.086l0,0c0-5.018,4.068-9.086,9.086-9.086h20.443
					c5.018,0,9.086,4.068,9.086,9.086l0,0C167.612,418.981,163.544,423.049,158.526,423.049z"/>
			</g>
		</g>
		<g>
			<g>
				<path class="st2" d="M166.476,386.705h-31.801c-5.018,0-9.086-4.068-9.086-9.086v0c0-5.018,4.068-9.086,9.086-9.086h31.801
					c5.018,0,9.086,4.068,9.086,9.086v0C175.562,382.637,171.494,386.705,166.476,386.705z"/>
			</g>
		</g>
	</g>
	<g>
		<g>
			<path class="st17" d="M346.653,321.968h-6v-35.208c0-22.264,9.648-31.364,10.059-31.741l4.073,4.406
				c-0.081,0.077-8.131,7.937-8.131,27.335V321.968z"/>
		</g>
	</g>
	<g>
		<g>
			<path class="st17" d="M171.748,321.968h-6v-35.208c0-19.654-8.032-27.244-8.113-27.318l4.055-4.423
				c0.411,0.376,10.059,9.476,10.059,31.741V321.968z"/>
		</g>
	</g>
	<g>
		<g>
			<polygon class="st3" points="261.879,140.977 248.397,140.977 249.803,124.098 255.783,124.597 254.917,134.977 261.879,134.977 
							"/>
		</g>
	</g>
	<g>
		<g>
			<path class="st4" d="M245.979,95.954c0,0-17.793-7.382-32.937,5.679c0,0,17.604-4.543,29.529,1.136L245.979,95.954z"/>
		</g>
	</g>
	<g>
		<g>
			<circle class="st4" cx="233.485" cy="114.126" r="5.679"/>
		</g>
	</g>
	<g>
		<g>
			<path class="st4" d="M264.853,100.407c0,0,15.435-11.527,33.323-2.585c0,0-18.181-0.08-28.346,8.354L264.853,100.407z"/>
		</g>
	</g>
	<g>
		<g>
			<path class="st3" d="M273.604,115.445l-3.011-2.634c0.289-0.33,7.174-8.077,16.628-6.786l-0.541,3.963
				C279.389,108.993,273.661,115.38,273.604,115.445z"/>
		</g>
	</g>
	<g>
		<g>
			<path class="st3" d="M281.533,117.349c-4.409-1.895-9.096-1.251-9.143-1.245l-0.584-3.957c0.236-0.035,5.824-0.83,11.307,1.527
				L281.533,117.349z"/>
		</g>
	</g>
	<g>
		<g>
			<path class="st6" d="M249.386,152.741l26.122-6.814c0,0,1.704,14.197-11.357,15.9
				C253.185,163.258,249.386,152.741,249.386,152.741z"/>
		</g>
	</g>
	<g>
		<g>
			<circle class="st7" cx="299.927" cy="475.861" r="5.679"/>
		</g>
	</g>
	<g>
		<g>
			<rect x="243.707" y="491.194" class="st16" width="24.986" height="15.9"/>
		</g>
	</g>
	<g>
		<g>
			<rect x="323.209" y="473.429" class="st17" width="39.751" height="6"/>
		</g>
	</g>
	<g>
		<g>
			<rect x="149.44" y="473.429" class="st17" width="39.751" height="6"/>
		</g>
	</g>
	<g>
		<g>
			<g>
				<polygon class="st17" points="186.513,416.234 180.513,416.234 180.513,371.212 207.363,371.212 207.363,377.212 
					186.513,377.212 				"/>
			</g>
		</g>
		<g>
			<g>
				<rect x="183.513" y="390.52" class="st17" width="17.036" height="6"/>
			</g>
		</g>
		<g>
			<g>
				<path class="st17" d="M217.746,416.234h-6v-45.023h15.493c5.412,0,9.814,4.403,9.814,9.815v5.679
					c0,5.412-4.403,9.814-9.814,9.814h-9.493V416.234z M217.746,390.52h9.493c2.104,0,3.814-1.711,3.814-3.814v-5.679
					c0-2.103-1.711-3.815-3.814-3.815h-9.493V390.52z"/>
			</g>
		</g>
		<g>
			<g>
				<path class="st17" d="M237.053,416.234h-6v-15.901c0-2.103-1.711-3.814-3.814-3.814h-12.493v-6h12.493
					c5.412,0,9.814,4.403,9.814,9.814V416.234z"/>
			</g>
		</g>
		<g>
			<g>
				<path class="st17" d="M318.827,404.877h-6V390.52h8.679c2.104,0,3.814-1.711,3.814-3.814v-5.679
					c0-2.103-1.711-3.815-3.814-3.815h-15.9v-6h15.9c5.412,0,9.814,4.403,9.814,9.815v5.679c0,5.412-4.403,9.814-9.814,9.814h-2.679
					V404.877z"/>
			</g>
		</g>
		<g>
			<g>
				<polygon class="st17" points="268.693,415.827 241.843,415.827 241.843,371.212 268.693,371.212 268.693,377.212 
					247.843,377.212 247.843,409.827 268.693,409.827 				"/>
			</g>
		</g>
		<g>
			<g>
				<rect x="244.843" y="390.52" class="st17" width="17.036" height="6"/>
			</g>
		</g>
		<g>
			<g>
				<polygon class="st17" points="299.359,415.827 272.508,415.827 272.508,371.212 299.359,371.212 299.359,377.212 
					278.508,377.212 278.508,409.827 299.359,409.827 				"/>
			</g>
		</g>
		<g>
			<g>
				<rect x="275.508" y="390.52" class="st17" width="17.037" height="6"/>
			</g>
		</g>
		<g>
			<g>
				<rect x="312.259" y="409.42" class="st17" width="6" height="6.815"/>
			</g>
		</g>
	</g>
	<g>
		<g>
			<polygon class="st20" points="326.617,286.759 302.766,211.8 291.749,321.967 321.695,321.967 314.197,302.587 			"/>
		</g>
	</g>
	<g>
		<g>
			<polygon class="st20" points="185.784,286.759 209.635,211.8 220.651,321.967 190.706,321.967 198.204,302.587 			"/>
		</g>
	</g>
</g>
</svg>
