<?xml version="1.0" encoding="utf-8"?>
<!-- Generator: Adobe Illustrator 22.0.0, SVG Export Plug-In . SVG Version: 6.00 Build 0)  -->
<svg version="1.1" id="Layer_1" xmlns="http://www.w3.org/2000/svg" xmlns:xlink="http://www.w3.org/1999/xlink" x="0px" y="0px"
	 viewBox="0 0 512 512" style="enable-background:new 0 0 512 512;" xml:space="preserve">
<style type="text/css">
	.st0{fill:#FF7B7B;}
	.st1{fill:#FFB236;}
	.st2{fill:#FFD3B3;}
	.st3{fill:#FCB98B;}
	.st4{fill:#6E83B7;}
	.st5{fill:#FFB0AA;}
	.st6{fill:#EDEFF1;}
	.st7{fill:#FFE352;}
	.st8{fill:#46BEE8;}
	.st9{fill:#9CE5FF;}
	.st10{fill:#80D6FB;}
	.st11{fill:#FFE67B;}
	.st12{fill:#F76161;}
	.st13{fill:#98CA69;}
	.st14{fill:#75AA40;}
	.st15{fill:#BFEA8C;}
	.st16{fill:#D3D3D3;}
	.st17{fill:#466089;}
	.st18{fill:#7C93BF;}
	.st19{fill:#FFC69F;}
	.st20{fill:#859CC1;}
	.st21{fill:#EFA470;}
	.st22{fill:#C1C1C1;}
	.st23{fill:#E2935D;}
	.st24{fill:#99E5FF;}
</style>
<g>
	<g>
		<g>
			<polygon class="st10" points="329.796,228.63 285.346,217.603 256.046,238.333 256,238.333 255.954,238.333 226.654,217.603 
				182.204,228.63 155.82,235 155.82,507 256,507 356.18,507 356.18,235 			"/>
		</g>
	</g>
	<g>
		<g>
			<path class="st2" d="M257.134,246.95L257.134,246.95c-16.208,0-29.347-13.139-29.347-29.347v-33.062h58.693v33.062
				C286.48,233.811,273.341,246.95,257.134,246.95z"/>
		</g>
	</g>
	<g>
		<g>
			<path class="st3" d="M227.787,200.399c8.695,4.045,18.799,6.313,29.347,6.313c10.548,0,20.651-2.269,29.347-6.313v-15.858
				h-58.693V200.399z"/>
		</g>
	</g>
	<g>
		<g>
			<path class="st2" d="M320.175,134.041c0,34.494-28.287,62.456-63.041,62.456s-63.041-27.963-63.041-62.456V72.716h126.082
				V134.041z"/>
		</g>
	</g>
	<g>
		<g>
			<path class="st2" d="M194.092,92.153h-6.432c-6.457,0-11.49,5.596-10.808,12.017l1.872,17.62
				c0.705,6.633,6.3,11.665,12.97,11.665h2.399V92.153z"/>
		</g>
	</g>
	<g>
		<g>
			<path class="st2" d="M320.175,92.153h6.432c6.457,0,11.49,5.596,10.808,12.017l-1.872,17.62
				c-0.704,6.633-6.3,11.665-12.97,11.665h-2.399V92.153z"/>
		</g>
	</g>
	<g>
		<g>
			<g>
				<polygon class="st3" points="263.048,152.424 248.466,152.424 253.2,135.211 258.985,136.803 256.339,146.424 263.048,146.424 
									"/>
			</g>
		</g>
		<g>
			<g>
				<path class="st4" d="M246.719,104.764c0,0-8.047-3.013-17.975-1.614c-5.582,0.786-11.759,2.968-17.435,7.863
					c0,0,20.438-5.207,32.285,2.083L246.719,104.764z"/>
			</g>
		</g>
		<g>
			<g>
				<circle class="st4" cx="234.222" cy="124.551" r="6.249"/>
			</g>
		</g>
		<g>
			<g>
				<path class="st4" d="M267.548,104.764c0,0,19.638-7.354,35.409,6.249c0,0-20.438-5.207-32.285,2.083L267.548,104.764z"/>
			</g>
		</g>
		<g>
			<g>
				<path class="st6" d="M246.719,168.292h20.829l-0.111,0.443c-1.159,4.636-5.325,7.889-10.104,7.889h-0.4
					c-4.779,0-8.944-3.252-10.104-7.889L246.719,168.292z"/>
			</g>
		</g>
		<g>
			<g>
				<circle class="st4" cx="280.045" cy="124.551" r="6.249"/>
			</g>
		</g>
	</g>
	<g>
		<g>
			<path class="st4" d="M299.051,24.017C295.307,12.961,284.853,5,272.532,5H239.66c-28.719,0-52,23.281-52,52v35.153h6.432v31.118
				l5.579-21.857c1.583-6.199,7.167-10.537,13.565-10.537h46.908c14.119,0,26.539-7.25,33.758-18.225h2.142
				c7.492,0,13.981,5.199,15.615,12.511l8.515,38.108V92.153h6.432V62.033C326.607,44.287,315.047,29.25,299.051,24.017z"/>
		</g>
	</g>
	<g>
		<g>
			<g>
				<g>
					<path class="st6" d="M273.52,342.667c-5.406,0-10.583,2.189-14.349,6.068L256,352l-3.171-3.266
						c-3.766-3.879-8.942-6.068-14.349-6.068h-53.172v117.667H256h70.692V342.667H273.52z"/>
				</g>
			</g>
			<g>
				<g>
					<polygon class="st4" points="256,352 185.308,352 185.308,460.333 256,460.333 326.692,460.333 326.692,352 					"/>
				</g>
			</g>
		</g>
		<g>
			<g>
				<rect x="269" y="345.833" class="st16" width="45.615" height="4"/>
			</g>
		</g>
		<g>
			<g>
				<rect x="197.385" y="345.833" class="st16" width="45.615" height="4"/>
			</g>
		</g>
	</g>
	<g>
		<g>
			<g>
				<path class="st2" d="M162.736,390.524l7.572-2.524l1.526-6.612c0.916-3.968,3.83-7.173,7.693-8.461l5.781-1.927v17v49
					l-10.425,2.979L162.736,390.524z"/>
			</g>
		</g>
		<g>
			<g>
				<path class="st2" d="M239.242,402.553l-0.072-0.677c-0.363-3.42-2.656-6.16-5.678-7.275c0.956-1.621,1.426-3.547,1.212-5.562
					l0,0c-0.53-4.99-5.006-8.605-9.995-8.075l-39.694,4.533c-4.99,0.53-8.605,5.005-8.075,9.995
					c0.235,2.207,1.243,4.143,2.725,5.573c-2.29,1.798-3.637,4.692-3.307,7.801l0.072,0.677c0.273,2.565,1.634,4.745,3.57,6.149
					c-1.229,1.74-1.862,3.91-1.619,6.195c0.39,3.669,2.916,6.588,6.209,7.669c-0.404,1.201-0.569,2.503-0.427,3.846v0
					c0.53,4.99,5.005,8.605,9.995,8.075l32.124-3.728c4.99-0.53,8.605-5.005,8.075-9.995v0c-0.169-1.587-0.739-3.033-1.596-4.253
					c2.349-1.871,3.726-4.859,3.385-8.066l0,0c-0.167-1.566-0.722-2.997-1.56-4.206
					C237.678,409.614,239.633,406.232,239.242,402.553z"/>
			</g>
		</g>
	</g>
	<g>
		<g>
			<g>
				<path class="st2" d="M349.264,390.524L341.692,388l-1.526-6.612c-0.916-3.968-3.83-7.173-7.693-8.461L326.692,371v17v49
					l10.425,2.979L349.264,390.524z"/>
			</g>
		</g>
		<g>
			<g>
				<path class="st2" d="M272.758,402.553l0.072-0.677c0.363-3.42,2.656-6.16,5.678-7.275c-0.956-1.621-1.426-3.547-1.212-5.562l0,0
					c0.53-4.99,5.006-8.605,9.995-8.075l39.694,4.533c4.99,0.53,8.605,5.005,8.075,9.995c-0.235,2.207-1.243,4.143-2.725,5.573
					c2.29,1.798,3.637,4.692,3.307,7.801l-0.072,0.677c-0.273,2.565-1.634,4.745-3.57,6.149c1.229,1.74,1.862,3.91,1.619,6.195
					c-0.39,3.669-2.916,6.588-6.209,7.669c0.404,1.201,0.569,2.503,0.427,3.846v0c-0.53,4.99-5.005,8.605-9.995,8.075l-32.124-3.728
					c-4.99-0.53-8.605-5.005-8.075-9.995v0c0.169-1.587,0.739-3.033,1.596-4.253c-2.349-1.871-3.726-4.859-3.385-8.066l0,0
					c0.167-1.566,0.722-2.997,1.56-4.206C274.322,409.614,272.367,406.232,272.758,402.553z"/>
			</g>
		</g>
	</g>
	<g>
		<g>
			<path class="st10" d="M116.885,264.108L35.556,407.951c-15.991,28.282,8.585,62.288,40.457,55.98L176,444.528l-14-57L115.82,398
				l40-64v-99l-3.75,1.111C137.156,240.53,124.541,250.568,116.885,264.108z"/>
		</g>
	</g>
	<g>
		<g>
			<path class="st8" d="M109.168,394.995c-2.983-1.497-6.542-1.995-11.349-1.995v-6c11.52,0,20.8,5.611,21.189,5.85l0.022,0.013
				L115.82,398c0,0-13.382,7.812-17.236,17.166l-5.529-2.332C96.188,404.104,104.062,396.812,109.168,394.995z"/>
		</g>
	</g>
	<g>
		<g>
			<path class="st8" d="M285.143,217.746l-29.189,20.587l-29.097-20.587l-43.798,10.672l0.326,7.832
				c0,40.804,31.812,73.75,72.615,73.75s72.615-32.946,72.615-73.75l0.326-7.832L285.143,217.746z"/>
		</g>
	</g>
	<g>
		<g>
			<path class="st6" d="M285.346,217.603L256,238.333l-29.346-20.73l-29.27,7.261v11.386c0,33.137,25.479,60,58.615,60
				s58.615-26.863,58.615-60v-11.386L285.346,217.603z"/>
		</g>
	</g>
	<g>
		<g>
			<path class="st10" d="M395.115,264.108l81.329,143.842c15.991,28.282-8.585,62.288-40.457,55.98L336,444.528l14-57L396.18,398
				l-40-64v-99l3.75,1.111C374.844,240.53,387.459,250.568,395.115,264.108z"/>
		</g>
	</g>
	<g>
		<g>
			<path class="st8" d="M402.832,394.995c2.983-1.497,6.542-1.995,11.349-1.995v-6c-11.52,0-20.8,5.611-21.189,5.85l-0.022,0.013
				L396.18,398c0,0,13.382,7.812,17.236,17.166l5.529-2.332C415.812,404.104,407.938,396.812,402.832,394.995z"/>
		</g>
	</g>
	<g>
		<g>
			<polygon class="st16" points="256,238 237.169,263.98 212.376,221.281 227.973,206.712 			"/>
		</g>
	</g>
	<g>
		<g>
			<polygon class="st16" points="256,238 274.831,263.98 299.624,221.281 284.027,206.712 			"/>
		</g>
	</g>
</g>
</svg>
