<?xml version="1.0" encoding="utf-8"?>
<!-- Generator: Adobe Illustrator 22.0.0, SVG Export Plug-In . SVG Version: 6.00 Build 0)  -->
<svg version="1.1" id="Layer_1" xmlns="http://www.w3.org/2000/svg" xmlns:xlink="http://www.w3.org/1999/xlink" x="0px" y="0px"
	 viewBox="0 0 512 512" style="enable-background:new 0 0 512 512;" xml:space="preserve">
<style type="text/css">
	.st0{fill:#FF7B7B;}
	.st1{fill:#FFB236;}
	.st2{fill:#FFD3B3;}
	.st3{fill:#FCB98B;}
	.st4{fill:#6E83B7;}
	.st5{fill:#FFB0AA;}
	.st6{fill:#EDEFF1;}
	.st7{fill:#FFE352;}
	.st8{fill:#46BEE8;}
	.st9{fill:#9CE5FF;}
	.st10{fill:#80D6FB;}
	.st11{fill:#FFE67B;}
	.st12{fill:#F76161;}
	.st13{fill:#98CA69;}
	.st14{fill:#75AA40;}
	.st15{fill:#BFEA8C;}
	.st16{fill:#D3D3D3;}
	.st17{fill:#466089;}
	.st18{fill:#7C93BF;}
	.st19{fill:#FFC69F;}
	.st20{fill:#859CC1;}
	.st21{fill:#EFA470;}
	.st22{fill:#C1C1C1;}
	.st23{fill:#E2935D;}
	.st24{fill:#99E5FF;}
</style>
<g>
	<g>
		<g>
			<path class="st6" d="M352.71,236.664L302.766,221.8H256.2h-46.566l-49.944,14.864c-26.969,8.027-45.459,32.821-45.459,60.959
				v93.57H164.2v115.9h92h92v-115.9h49.968v-93.57C398.169,269.485,379.679,244.691,352.71,236.664z"/>
		</g>
	</g>
	<g>
		<g>
			<path class="st16" d="M164.2,291.194v13.518l-7.809-7.809l-4.243,4.243l12.051,12.051V423.83c3.768-5.131,6-11.457,6-18.297
				v-114.34H164.2z"/>
		</g>
	</g>
	<g>
		<g>
			<path class="st6" d="M139.216,430.518L139.216,430.518c13.798,0,24.984-11.186,24.984-24.984V314.77h-49.968v90.763
				C114.232,419.332,125.418,430.518,139.216,430.518z"/>
		</g>
	</g>
	<g>
		<g>
			<path class="st3" d="M157.75,293.921l-17.319-18.026c-2.873-2.99-6.985-4.456-11.102-3.958l-6.794,0.823l-10.847-12.613
				c-1.998-2.323-5.404-2.816-7.979-1.155l0,0c-3.101,2.001-3.747,6.267-1.377,9.096l8.662,10.339l4.871,4.871L157.75,293.921z"/>
		</g>
	</g>
	<g>
		<g>
			<path class="st2" d="M149.44,304.003v-15.615l-10.224-2.461l-28.224-7.5L87.44,271.58l-8.816-11.637
				c-2.107-2.782-5.952-3.568-8.982-1.836h0c-3.604,2.059-4.609,6.798-2.151,10.143l8.214,11.178
				c2.118,2.882,4.969,5.143,8.257,6.548l21.052,8.997c2.101,0.898,4.341,1.429,6.621,1.571l12.554,0.779v6.681H149.44z"/>
		</g>
	</g>
	<g>
		<g>
			<path class="st3" d="M67.916,259.5c0.737-0.193,1.497-0.294,2.262-0.294c2.786,0,5.453,1.325,7.134,3.544l8.373,11.051
				l19.319,4.293h4.843l1.146,0.333l28.224,7.5l6.141,1.478l3.176,4.344v12.254H124.19v-6.681l-12.554-0.779
				c-2.281-0.141-4.52-0.673-6.621-1.571l-21.052-8.997c-3.288-1.405-6.14-3.667-8.257-6.548l-8.214-11.178
				C65.489,265.524,65.787,261.873,67.916,259.5z"/>
		</g>
	</g>
	<g>
		<g>
			<path class="st2" d="M146.534,308.018v-15.615l-9-12.309h-32.75l-20.25-4.5l-8.816-11.637c-2.107-2.782-5.952-3.568-8.982-1.836
				l0,0c-3.604,2.059-4.609,6.798-2.151,10.143l8.214,11.178c2.118,2.882,4.969,5.143,8.257,6.548l21.052,8.997
				c2.101,0.898,4.341,1.429,6.621,1.571l12.554,0.779v6.681H146.534z"/>
		</g>
	</g>
	<g>
		<g>
			<path class="st3" d="M64.319,264.442c1.113-0.478,2.312-0.736,3.526-0.736c2.786,0,5.454,1.325,7.135,3.544l8.372,11.051
				l19.124,4.25l12.458-2.457h22.601l9,12.309v15.615h-25.25v-6.681l-12.554-0.779c-2.281-0.141-4.52-0.673-6.621-1.571
				l-21.052-8.997c-3.288-1.405-6.14-3.666-8.257-6.548l-8.214-11.178C62.827,269.872,62.849,266.77,64.319,264.442z"/>
		</g>
	</g>
	<g>
		<g>
			<path class="st2" d="M161.083,314.77v-13.396c0-2.846-1.212-5.556-3.333-7.454l-11.107-9.934
				c-4.677-4.183-11.046-5.929-17.203-4.715l-26.99,5.322l-20.25-4.5l-8.816-11.637c-2.107-2.782-5.952-3.568-8.982-1.836l0,0
				c-3.604,2.059-4.609,6.798-2.151,10.143l8.214,11.178c2.118,2.882,4.969,5.143,8.257,6.548l21.052,8.997
				c2.101,0.898,4.341,1.429,6.621,1.571l7.33,0.455c2.936,0.182,5.223,2.616,5.223,5.557v3.701H161.083z"/>
		</g>
	</g>
	<g>
		<g>
			<path class="st16" d="M348.2,313.197l12.051-12.051l-4.243-4.243l-7.809,7.808v-13.518h-6v114.34c0,6.84,2.232,13.166,6,18.297
				V313.197z"/>
		</g>
	</g>
	<g>
		<g>
			<polygon class="st18" points="164.2,491.194 164.2,507.094 256.2,507.094 348.2,507.094 348.2,491.194 256.2,491.194 			"/>
		</g>
	</g>
	<g>
		<g>
			<rect x="245.434" y="491.194" class="st16" width="21.532" height="15.9"/>
		</g>
	</g>
	<g>
		<g>
			<g>
				<polygon class="st16" points="302.766,221.8 277.78,259.28 274.372,254.737 269.95,260.142 278.059,271.146 309.412,223.778 
									"/>
			</g>
		</g>
	</g>
	<g>
		<g>
			<g>
				<polygon class="st16" points="209.635,221.8 234.621,259.28 238.028,254.737 242.451,260.142 234.342,271.146 202.989,223.778 
									"/>
			</g>
		</g>
	</g>
	<g>
		<g>
			<polygon class="st5" points="264.151,267.23 274.372,460.094 256.2,475.805 238.028,460.094 247.114,267.23 			"/>
		</g>
	</g>
	<g>
		<g>
			<path class="st0" d="M261.743,275.18h-2c0-7.164-3.834-9.246-3.998-9.331l0.902-1.785
				C256.855,264.168,261.743,266.709,261.743,275.18z"/>
		</g>
	</g>
	<g>
		<g>
			<path class="st0" d="M252.657,275.18h-2c0-8.471,4.888-11.012,5.096-11.116l0.902,1.785
				C256.492,265.934,252.657,268.017,252.657,275.18z"/>
		</g>
	</g>
	<g>
		<g>
			<polygon class="st6" points="228.942,208.171 209.635,221.8 234.621,259.28 250.522,237.701 256.2,235.429 			"/>
		</g>
	</g>
	<g>
		<g>
			<polygon class="st6" points="283.458,208.171 302.766,221.8 277.78,259.28 261.879,237.701 256.2,235.429 			"/>
		</g>
	</g>
	<g>
		<g>
			<path class="st2" d="M259.458,235.429h-6.516c-13.255,0-24-10.745-24-24v-39.38h54.516v39.38
				C283.458,224.684,272.713,235.429,259.458,235.429z"/>
		</g>
	</g>
	<g>
		<g>
			<path class="st3" d="M228.942,186.684c8.334,3.721,17.554,5.809,27.258,5.809c9.704,0,18.924-2.087,27.258-5.809v-14.635h-54.516
				V186.684z"/>
		</g>
	</g>
	<g>
		<g>
			<path class="st2" d="M314.123,125.587c0,31.933-25.99,57.82-57.923,57.82s-57.923-25.887-57.923-57.82V68.696h115.846V125.587z"
				/>
		</g>
	</g>
	<g>
		<g>
			<path class="st4" d="M244.385,90.868c0,0-19.215-1.378-29.451,15.801c0,0,15.265-9.876,28.374-8.259L244.385,90.868z"/>
		</g>
	</g>
	<g>
		<g>
			<path class="st4" d="M268.182,90.868c0,0,19.215-1.378,29.451,15.801c0,0-15.265-9.876-28.374-8.259L268.182,90.868z"/>
		</g>
	</g>
	<g>
		<g>
			<circle class="st4" cx="233.485" cy="106.176" r="5.679"/>
		</g>
	</g>
	<g>
		<g>
			<circle class="st4" cx="278.915" cy="106.176" r="5.679"/>
		</g>
	</g>
	<g>
		<g>
			<path class="st2" d="M314.123,86.868h4.264c6.799,0,12.074,5.933,11.28,12.684l-1.591,13.523
				c-0.832,7.075-6.829,12.408-13.953,12.408l0,0V86.868z"/>
		</g>
	</g>
	<g>
		<g>
			<path class="st2" d="M198.277,86.868h-4.264c-6.798,0-12.074,5.933-11.28,12.684l1.591,13.523
				c0.832,7.075,6.829,12.408,13.953,12.408h0V86.868z"/>
		</g>
	</g>
	<g>
		<g>
			<polygon class="st5" points="261.879,237.701 256.2,235.429 256.2,235.429 256.2,235.429 256.2,235.429 256.2,235.429 
				250.522,237.701 238.028,254.737 247.114,267.23 256.2,267.23 264.151,267.23 274.372,254.737 			"/>
		</g>
	</g>
	<g>
		<g>
			<path class="st0" d="M269.185,257.67c-3.186,3.895-7.953,6.153-12.985,6.153h0h-0.543c-5.368,0-10.411-2.568-13.568-6.909
				l-2.817-3.873l-1.244,1.697l9.086,12.493h9.086h7.95l10.222-12.493l-1.318-1.797L269.185,257.67z"/>
		</g>
	</g>
	<g>
		<g>
			<polygon class="st3" points="261.879,140.977 248.397,140.977 249.803,124.099 255.783,124.597 254.917,134.977 261.879,134.977 
							"/>
		</g>
	</g>
	<g>
		<g>
			<path class="st4" d="M298.666,30.094h-0.892c-1.681-3.904-5.56-6.639-10.08-6.639c-1.787,0-3.469,0.436-4.96,1.194
				c-3.498-6.545-10.393-11.001-18.333-11.001c-0.304,0-0.601,0.033-0.902,0.046c-5.232-5.119-12.388-8.279-20.286-8.279
				c-14.551,0-26.598,10.712-28.69,24.68h-0.79c-11.046,0-19.534,8.954-19.534,20v18.602v18.398h4v13.389l2.82-2.273
				c2.59-2.158,4.18-5.355,4.18-8.726V68.696c0,0,25,7.648,51,7.648s51-7.648,51-7.648v20.789c0,3.371,1.59,6.568,4.18,8.726
				l2.82,2.273V87.094h4V68.696V50.094C318.2,39.048,309.712,30.094,298.666,30.094z"/>
		</g>
	</g>
	<g>
		<g>
			<path class="st3" d="M266.118,164.712c-0.046-0.052-4.653-5.168-10.376-5.168c-0.012,0-0.022,0-0.034,0
				c-3.274,0.011-6.448,1.748-9.434,5.16l-4.516-3.951c4.186-4.783,8.891-7.209,13.983-7.209c0,0,0,0,0,0
				c8.479,0,14.627,6.915,14.885,7.209l-4.516,3.951l2.258-1.976L266.118,164.712z"/>
		</g>
	</g>
	<g>
		<g>
			<path class="st6" d="M373.185,430.518L373.185,430.518c-13.798,0-24.984-11.186-24.984-24.984V314.77h49.968v90.763
				C398.169,419.332,386.983,430.518,373.185,430.518z"/>
		</g>
	</g>
	<g>
		<g>
			<path class="st3" d="M354.651,293.921l17.319-18.026c2.873-2.99,6.985-4.456,11.102-3.958l6.794,0.823l10.847-12.613
				c1.998-2.323,5.404-2.816,7.978-1.155l0,0c3.101,2.001,3.747,6.267,1.377,9.096l-8.662,10.339l-4.871,4.871L354.651,293.921z"/>
		</g>
	</g>
	<g>
		<g>
			<path class="st2" d="M362.961,304.003v-15.615l10.224-2.461l28.224-7.5l23.552-6.848l8.816-11.637
				c2.107-2.782,5.952-3.568,8.982-1.836h0c3.604,2.059,4.609,6.798,2.151,10.143l-8.214,11.178
				c-2.117,2.882-4.969,5.143-8.257,6.548l-21.052,8.997c-2.101,0.898-4.341,1.429-6.621,1.571l-12.554,0.779v6.681H362.961z"/>
		</g>
	</g>
	<g>
		<g>
			<path class="st3" d="M444.484,259.5c-0.737-0.193-1.497-0.294-2.262-0.294c-2.786,0-5.453,1.325-7.134,3.544l-8.373,11.051
				l-19.319,4.293h-4.843l-1.146,0.333l-28.224,7.5l-6.141,1.478l-3.176,4.344v12.254h24.344v-6.681l12.554-0.779
				c2.281-0.141,4.52-0.673,6.621-1.571l21.052-8.997c3.288-1.405,6.14-3.667,8.257-6.548l8.214-11.178
				C446.912,265.524,446.614,261.873,444.484,259.5z"/>
		</g>
	</g>
	<g>
		<g>
			<path class="st2" d="M365.867,308.018v-15.615l9-12.309h32.75l20.25-4.5l8.816-11.637c2.107-2.782,5.952-3.568,8.982-1.836v0
				c3.604,2.059,4.609,6.798,2.151,10.143l-8.214,11.178c-2.118,2.882-4.969,5.143-8.257,6.548l-21.052,8.997
				c-2.101,0.898-4.341,1.429-6.621,1.571l-12.554,0.779v6.681H365.867z"/>
		</g>
	</g>
	<g>
		<g>
			<path class="st3" d="M448.082,264.442c-1.113-0.478-2.312-0.736-3.526-0.736c-2.786,0-5.454,1.325-7.135,3.544l-8.372,11.051
				l-19.124,4.25l-12.458-2.457h-22.601l-9,12.309v15.615h25.25v-6.681l12.554-0.779c2.281-0.141,4.52-0.673,6.621-1.571
				l21.052-8.997c3.288-1.405,6.14-3.666,8.257-6.548l8.214-11.178C449.574,269.872,449.551,266.77,448.082,264.442z"/>
		</g>
	</g>
	<g>
		<g>
			<path class="st2" d="M351.318,314.77v-13.396c0-2.846,1.212-5.556,3.333-7.454l11.107-9.934
				c4.677-4.183,11.046-5.929,17.203-4.715l26.99,5.322l20.25-4.5l8.816-11.637c2.107-2.782,5.952-3.568,8.982-1.836l0,0
				c3.604,2.059,4.609,6.798,2.151,10.143l-8.214,11.178c-2.117,2.882-4.969,5.143-8.257,6.548l-21.052,8.997
				c-2.101,0.898-4.341,1.429-6.621,1.571l-7.331,0.455c-2.936,0.182-5.223,2.616-5.223,5.557v3.701H351.318z"/>
		</g>
	</g>
	<g>
		<g>
			<path class="st16" d="M312.964,356.428l14.927-7.759c2.648-1.377,4.31-4.113,4.31-7.098v-35.733h-19.237h-19.237v35.733
				c0,2.985,1.658,5.72,4.306,7.096C303.704,351.614,312.964,356.428,312.964,356.428z"/>
		</g>
	</g>
</g>
</svg>
