<?xml version="1.0" encoding="utf-8"?>
<!-- Generator: Adobe Illustrator 22.0.0, SVG Export Plug-In . SVG Version: 6.00 Build 0)  -->
<svg version="1.1" id="Layer_1" xmlns="http://www.w3.org/2000/svg" xmlns:xlink="http://www.w3.org/1999/xlink" x="0px" y="0px"
	 viewBox="0 0 512 512" style="enable-background:new 0 0 512 512;" xml:space="preserve">
<style type="text/css">
	.st0{fill:#FF7B7B;}
	.st1{fill:#FFB236;}
	.st2{fill:#FFD3B3;}
	.st3{fill:#FCB98B;}
	.st4{fill:#6E83B7;}
	.st5{fill:#FFB0AA;}
	.st6{fill:#EDEFF1;}
	.st7{fill:#FFE352;}
	.st8{fill:#46BEE8;}
	.st9{fill:#9CE5FF;}
	.st10{fill:#80D6FB;}
	.st11{fill:#FFE67B;}
	.st12{fill:#F76161;}
	.st13{fill:#98CA69;}
	.st14{fill:#75AA40;}
	.st15{fill:#BFEA8C;}
	.st16{fill:#D3D3D3;}
	.st17{fill:#466089;}
	.st18{fill:#7C93BF;}
	.st19{fill:#FFC69F;}
	.st20{fill:#859CC1;}
	.st21{fill:#EFA470;}
	.st22{fill:#C1C1C1;}
	.st23{fill:#E2935D;}
	.st24{fill:#99E5FF;}
</style>
<g>
	<g>
		<g>
			<path class="st4" d="M362.056,260.526l-78.598-29.097H256.2h-27.258l-42.271,16.349c-12.412,4.801-24.274,10.916-35.383,18.243
				l-26.454,17.446l29.636-85.414l-55.002-14.914L57.422,306.69c-4.586,13.476-1.561,28.378,7.917,39l0,0
				c11.77,13.19,30.875,16.947,46.763,9.194l49.344-24.077c2.657-1.297,5.754,0.638,5.754,3.595v172.692h89h89h42.968V298.038
				C388.169,281.303,377.75,266.337,362.056,260.526z"/>
		</g>
	</g>
	<g>
		<g>
			<polygon class="st17" points="124.834,283.467 112.617,307.636 135.696,276.304 			"/>
		</g>
	</g>
	<g>
		<g>
			<path class="st17" d="M256,371.194c43.622-20.643,93.383-129.394,93.383-129.394l-31.584-16.432l21.584-47.699l-21.512,6.64
				c-40.309,12.442-83.434,12.442-123.743,0l-21.512-6.64l21.584,47.699L162.617,241.8C162.617,241.8,212.378,350.551,256,371.194z"
				/>
		</g>
	</g>
	<g>
		<g>
			<path class="st6" d="M283.458,231.429H256.2h-27.258l-14.47,5.596c-0.229,7.669-1.02,76.515,41.527,134.168
				c45.122-61.141,41.501-134.884,41.501-134.884l0.001-0.135L283.458,231.429z"/>
		</g>
	</g>
	<g>
		<g>
			<path class="st2" d="M256.2,258.687L256.2,258.687c-15.054,0-27.258-12.204-27.258-27.258v-39.38h54.516v39.38
				C283.458,246.483,271.255,258.687,256.2,258.687z"/>
		</g>
	</g>
	<g>
		<g>
			<path class="st3" d="M228.942,206.684c8.334,3.721,17.554,5.809,27.258,5.809c9.704,0,18.924-2.087,27.258-5.809v-14.635h-54.516
				V206.684z"/>
		</g>
	</g>
	<g>
		<g>
			<path class="st2" d="M314.123,145.587c0,31.933-25.99,57.82-57.923,57.82s-57.923-25.887-57.923-57.82V88.696h115.846V145.587z"
				/>
		</g>
	</g>
	<g>
		<g>
			<circle class="st4" cx="278.2" cy="134.094" r="6"/>
		</g>
	</g>
	<g>
		<g>
			<path class="st4" d="M266.2,115.094c0,0,18.857-7.061,34,6c0,0-19.625-5-31,2L266.2,115.094z"/>
		</g>
	</g>
	<g>
		<g>
			<path class="st6" d="M246.2,176.094h20l-0.106,0.425c-1.113,4.452-5.113,7.575-9.701,7.575h-0.384
				c-4.589,0-8.589-3.123-9.701-7.575L246.2,176.094z"/>
		</g>
	</g>
	<g>
		<g>
			<path class="st2" d="M314.123,107.087h4.264c6.799,0,12.074,5.933,11.28,12.684l-1.591,13.523
				c-0.832,7.075-6.829,12.408-13.953,12.408l0,0V107.087z"/>
		</g>
	</g>
	<g>
		<g>
			<path class="st2" d="M198.277,106.868h-4.264c-6.798,0-12.074,5.933-11.28,12.684l1.591,13.523
				c0.832,7.075,6.829,12.408,13.953,12.408h0V106.868z"/>
		</g>
	</g>
	<g>
		<g>
			<polygon class="st3" points="261.879,160.977 248.397,160.977 249.803,144.099 255.783,144.597 254.917,154.977 261.879,154.977 
							"/>
		</g>
	</g>
	<g>
		<g>
			<path class="st4" d="M318.2,107.094h-4v13.389l-2.82-2.273c-2.59-2.158-4.18-5.355-4.18-8.726V96.469l-22.25-3.625
				c5.375,9.125,15.25,12.375,15.25,12.375c-21.375,0-38.321-10.951-38.321-10.951c2.012,5.572,10.321,10.321,10.321,10.321
				c-24.333,0-39.5-12.162-39.5-12.162c2.333,8.833,11,12.162,11,12.162c-28-2.005-38.5-15.894-38.5-15.894v20.789
				c0,3.371-1.59,6.568-4.18,8.726l-2.82,2.273v-13.389h-4v-34c0-26.51,21.49-48,48-48h39.921c9.439,0,17.856,5.943,21.014,14.838v0
				l2.34,1.113c7.772,3.695,12.725,11.533,12.725,20.139V107.094z"/>
		</g>
	</g>
	<g>
		<g>
			<path class="st17" d="M256.227,100.863h93.158c4.393,0,5.575-6.054,1.504-7.706l-25.976-10.544h-68.81h-68.81l-25.976,10.544
				c-4.07,1.652-2.888,7.706,1.504,7.706h93.158H256.227z"/>
		</g>
	</g>
	<g>
		<g>
			<path class="st17" d="M324.667,82.613l-14.778-57.379C306.822,13.324,296.083,5,283.784,5h0c-4.731,0-9.378,1.245-13.475,3.61
				l-0.854,0.493c-8.339,4.813-18.611,4.813-26.95,0l-0.854-0.493C237.555,6.245,232.907,5,228.177,5h0
				c-12.298,0-23.038,8.324-26.105,20.234l-14.778,57.379H324.667z"/>
		</g>
	</g>
	<g>
		<g>
			<polygon class="st4" points="192.801,61.23 187.294,82.613 324.667,82.613 319.16,61.23 			"/>
		</g>
	</g>
	<g>
		<g>
			<g>
				<circle class="st4" cx="217.979" cy="134.918" r="38.333"/>
			</g>
		</g>
		<g>
			<g>
				<circle class="st10" cx="217.979" cy="134.918" r="29.333"/>
			</g>
		</g>
		<g>
			<g>
				
					<rect x="93.553" y="139.234" transform="matrix(0.9895 -0.1443 0.1443 0.9895 -19.7829 21.6754)" class="st4" width="92" height="16"/>
			</g>
		</g>
	</g>
	<g>
		<g>
			<polygon class="st16" points="256.2,258.687 228.942,283.467 214.499,236.31 228.942,219.094 			"/>
		</g>
	</g>
	<g>
		<g>
			<polygon class="st16" points="256.2,258.687 283.458,283.467 297.902,236.31 283.458,219.094 			"/>
		</g>
	</g>
	<g>
		<g>
			<rect x="339" y="366" class="st17" width="6" height="141"/>
		</g>
	</g>
	<g>
		<g>
			<rect x="281.667" y="390" class="st17" width="53.333" height="6"/>
		</g>
	</g>
	<g>
		<g>
			<rect x="177" y="390" class="st17" width="53.333" height="6"/>
		</g>
	</g>
	<g>
		<g>
			<rect x="281.667" y="469.5" class="st17" width="53.333" height="6"/>
		</g>
	</g>
	<g>
		<g>
			<rect x="177" y="469.5" class="st17" width="53.333" height="6"/>
		</g>
	</g>
	<g>
		<g>
			<rect x="253.168" y="368.644" class="st17" width="6" height="138.45"/>
		</g>
	</g>
	<g>
		<g>
			<g>
				<path class="st2" d="M112.849,119.974l-4.636,23.104c-0.969,4.83-1.541,9.73-1.711,14.649c-0.075,2.175,0.194,4.348,0.809,6.435
					l4.223,14.327l-2.213,7.32l36.993,10.031l2.639-9.823l9.427-11.57c1.353-1.66,2.436-3.524,3.197-5.526
					c1.765-4.64,3.145-9.42,4.125-14.291l4.645-23.09L112.849,119.974z"/>
			</g>
		</g>
		<g>
			<g>
				<path class="st3" d="M152.794,144.444l14.369,2.92l-1.462,7.267c-0.37,1.84-0.817,3.661-1.301,5.472
					c-0.704-0.008-1.417-0.074-2.133-0.218l-15.768-3.172c-3.966-0.798-7.031-3.577-8.394-7.097
					c-0.384-0.364-0.747-0.747-1.075-1.159c-2.275,1.242-4.98,1.726-7.714,1.176c-2.735-0.55-5.042-2.042-6.66-4.068
					c-2.275,1.242-4.98,1.727-7.715,1.176c-2.729-0.549-5.033-2.036-6.65-4.056l4.558-22.712l43.123,8.675L152.794,144.444z"/>
			</g>
		</g>
		<g>
			<g>
				<path class="st2" d="M143.539,148.321l1.916,0.386c3.44,0.692,6.79-1.536,7.482-4.976l5.373-26.71
					c0.692-3.44-1.536-6.79-4.976-7.482l-1.916-0.386c-3.44-0.692-6.79,1.536-7.482,4.976l-5.373,26.71
					C137.871,144.279,140.099,147.629,143.539,148.321z"/>
			</g>
		</g>
		<g>
			<g>
				<path class="st2" d="M157.719,152.141l1.916,0.386c3.44,0.692,6.79-1.536,7.482-4.976l5.373-26.71
					c0.692-3.44-1.536-6.79-4.976-7.482l-1.916-0.386c-3.44-0.692-6.79,1.536-7.482,4.976l-5.373,26.71
					C152.051,148.099,154.279,151.449,157.719,152.141z"/>
			</g>
		</g>
		<g>
			<g>
				<path class="st3" d="M138.523,140.534c2.339-4.263,7.259-6.718,12.271-5.709l3.677,0.74l-1.552,7.717
					c-0.799,3.969-4.664,6.54-8.633,5.741C140.364,148.234,137.814,144.452,138.523,140.534z"/>
			</g>
		</g>
		<g>
			<g>
				<path class="st3" d="M154.471,135.565l-1.777,8.935c-0.692,3.44,1.536,6.79,4.976,7.482l1.916,0.386
					c3.44,0.692,6.79-1.536,7.482-4.976l1.929-9.183L154.471,135.565z"/>
			</g>
		</g>
		<g>
			<g>
				<path class="st2" d="M171.514,151.091l0.386-1.916c0.692-3.44-1.536-6.79-4.976-7.482l-17.684-3.557
					c-3.44-0.692-6.79,1.536-7.482,4.976l-0.386,1.916c-0.692,3.44,1.536,6.79,4.976,7.482l17.684,3.557
					C167.472,156.759,170.822,154.531,171.514,151.091z"/>
			</g>
		</g>
		<g>
			<g>
				<path class="st2" d="M129.165,145.43l1.916,0.386c3.44,0.692,6.79-1.536,7.482-4.976l4.768-23.701
					c0.692-3.44-1.536-6.79-4.976-7.482l-1.916-0.386c-3.44-0.692-6.79,1.536-7.482,4.976l-4.768,23.701
					C123.497,141.388,125.725,144.738,129.165,145.43z"/>
			</g>
		</g>
		<g>
			<g>
				<path class="st2" d="M114.79,142.538l1.916,0.386c3.44,0.692,6.79-1.536,7.482-4.976l3.557-17.684
					c0.692-3.44-1.536-6.79-4.976-7.482l-1.916-0.386c-3.44-0.692-6.79,1.536-7.482,4.976l-3.557,17.684
					C109.123,138.496,111.35,141.846,114.79,142.538z"/>
			</g>
		</g>
		<g>
			<g>
				<path class="st3" d="M132.182,182.743l-3.879-0.978l1.939,0.489l-1.94-0.487c0.04-0.158,3.841-15.891-4.96-24.268l2.758-2.897
					C136.604,164.6,132.368,182.007,132.182,182.743z"/>
			</g>
		</g>
	</g>
	<g>
		<g>
			<polygon class="st20" points="263.734,291.333 275.245,276 256.2,258.687 237.156,276 248.667,291.333 			"/>
		</g>
	</g>
	<g>
		<g>
			<path class="st4" d="M256.2,286.333L256.2,286.333c-4.743,0-9.209-2.232-12.057-6.025l-4.757-6.337L237.156,276l11.511,15.333
				h15.067L275.245,276l-2.231-2.028l-4.757,6.337C265.409,284.101,260.943,286.333,256.2,286.333z"/>
		</g>
	</g>
	<g>
		<g>
			<path class="st20" d="M242.533,350.166c3.922,7.087,8.382,14.137,13.467,21.028c5.232-7.089,9.801-14.348,13.803-21.641
				l-6.069-58.219h-15.067L242.533,350.166z"/>
		</g>
	</g>
</g>
</svg>
