<?xml version="1.0" encoding="utf-8"?>
<!-- Generator: Adobe Illustrator 22.0.0, SVG Export Plug-In . SVG Version: 6.00 Build 0)  -->
<svg version="1.1" id="Layer_1" xmlns="http://www.w3.org/2000/svg" xmlns:xlink="http://www.w3.org/1999/xlink" x="0px" y="0px"
	 viewBox="0 0 512 512" style="enable-background:new 0 0 512 512;" xml:space="preserve">
<style type="text/css">
	.st0{fill:#FF7B7B;}
	.st1{fill:#FFB236;}
	.st2{fill:#FFD3B3;}
	.st3{fill:#FCB98B;}
	.st4{fill:#6E83B7;}
	.st5{fill:#FFB0AA;}
	.st6{fill:#EDEFF1;}
	.st7{fill:#FFE352;}
	.st8{fill:#46BEE8;}
	.st9{fill:#9CE5FF;}
	.st10{fill:#80D6FB;}
	.st11{fill:#FFE67B;}
	.st12{fill:#F76161;}
	.st13{fill:#98CA69;}
	.st14{fill:#75AA40;}
	.st15{fill:#BFEA8C;}
	.st16{fill:#D3D3D3;}
	.st17{fill:#466089;}
	.st18{fill:#7C93BF;}
	.st19{fill:#FFC69F;}
	.st20{fill:#859CC1;}
	.st21{fill:#EFA470;}
	.st22{fill:#C1C1C1;}
	.st23{fill:#E2935D;}
	.st24{fill:#99E5FF;}
</style>
<g>
	<g>
		<g>
			<g>
				<path class="st6" d="M366.737,236.698l-13.344-4.448l-48.184-15.378L256,374.751l-49.209-157.879l-48.184,15.378l-13.344,4.448
					c-15.908,5.302-26.638,20.19-26.638,36.958V507h274.75V273.656C393.375,256.888,382.645,242,366.737,236.698z"/>
			</g>
		</g>
		<g>
			<g>
				<rect x="165.859" y="352.197" class="st16" width="6" height="154.803"/>
			</g>
		</g>
		<g>
			<g>
				<polygon class="st16" points="182.424,253.119 206.791,216.872 256,374.751 200.298,298.204 205.556,275.308 				"/>
			</g>
		</g>
		<g>
			<g>
				<rect x="340.141" y="352.197" class="st16" width="6" height="154.803"/>
			</g>
		</g>
		<g>
			<g>
				<polygon class="st16" points="329.576,253.119 305.209,216.872 256,374.751 311.702,298.204 306.444,275.308 				"/>
			</g>
		</g>
		<g>
			<g>
				<rect x="253" y="369.554" class="st16" width="6" height="137.446"/>
			</g>
		</g>
		<g>
			<g>
				<polygon class="st10" points="206.791,216.872 256,374.751 305.209,216.872 284.705,201.494 227.295,201.494 				"/>
			</g>
		</g>
		<g>
			<g>
				<polygon class="st8" points="284.705,201.494 256,230.2 227.295,201.494 206.791,216.872 211.072,230.606 233.379,263.835 
					252.609,236.48 256,234.784 259.391,236.48 278.621,263.835 300.928,230.606 305.209,216.872 				"/>
			</g>
		</g>
		<g>
			<g>
				<polygon class="st10" points="227.295,201.494 206.791,216.872 233.457,256.594 249.849,233.275 256,230.2 				"/>
			</g>
		</g>
		<g>
			<g>
				<polygon class="st10" points="284.705,201.494 305.209,216.872 278.543,256.594 262.151,233.275 256,230.2 				"/>
			</g>
		</g>
		<g>
			<g>
				<polygon class="st2" points="256,173.814 227.295,173.814 227.295,201.494 256,230.2 284.705,201.494 284.705,173.814 				"/>
			</g>
		</g>
		<g>
			<g>
				<path class="st3" d="M227.295,188.167c8.544,3.815,18.757,6.151,28.705,6.151s20.161-2.336,28.705-6.151v-14.353h-57.41V188.167
					z"/>
			</g>
		</g>
		<g>
			<g>
				<path class="st2" d="M256,43.957h-61.511v80.648c0,33.972,27.54,61.511,61.511,61.511s61.511-27.54,61.511-61.511V43.957H256z"
					/>
			</g>
		</g>
		<g>
			<g>
				<path class="st3" d="M256.66,167.587c-8.659,0-14.94-7.064-15.203-7.365l4.509-3.958c0.047,0.053,4.792,5.323,10.694,5.323
					c0.011,0,0.022,0,0.034,0c3.379-0.012,6.652-1.8,9.728-5.316l4.516,3.951C266.662,165.109,261.858,167.587,256.66,167.587z"/>
			</g>
		</g>
		<g>
			<g>
				<circle class="st4" cx="233.651" cy="110.349" r="6.151"/>
			</g>
		</g>
		<g>
			<g>
				<circle class="st4" cx="278.76" cy="110.349" r="6.151"/>
			</g>
		</g>
		<g>
			<g>
				<polygon class="st3" points="262.652,140.382 248.443,140.382 249.93,122.536 255.91,123.034 254.964,134.382 262.652,134.382 
									"/>
			</g>
		</g>
		<g>
			<g>
				<path class="st4" d="M245.621,87.612c0,0-19.058-7.907-35.277,6.082c0,0,18.855-4.866,31.628,1.216L245.621,87.612z"/>
			</g>
		</g>
		<g>
			<g>
				<path class="st4" d="M264.126,87.612c0,0,19.058-7.907,35.277,6.082c0,0-18.855-4.866-31.628,1.216L264.126,87.612z"/>
			</g>
		</g>
		<g>
			<g>
				<path class="st2" d="M194.489,82.573h-7.125c-6.065,0-10.805,5.237-10.201,11.272l2.05,20.504
					c0.524,5.241,4.934,9.232,10.201,9.232h5.075V82.573z"/>
			</g>
		</g>
		<g>
			<g>
				<path class="st2" d="M317.511,82.573h7.125c6.065,0,10.805,5.237,10.201,11.272l-2.05,20.504
					c-0.524,5.241-4.934,9.232-10.201,9.232h-5.075V82.573z"/>
			</g>
		</g>
	</g>
	<g>
		<path class="st4" d="M277.221,70.383l6.823-2.515c6.004-2.213,12.747-0.133,16.46,5.079l1.015,1.424l16.403,28.705V82.573h7.176
			V60.702C325.098,29.939,300.16,5,269.397,5h-26.382c-30.763,0-55.702,24.939-55.702,55.702v21.871h7.176v20.504l16.403-28.705
			l1.015-1.424c3.713-5.211,10.456-7.292,16.46-5.079c0,0,2.895,1.067,6.818,2.513C248.749,75.381,263.657,75.383,277.221,70.383z"
			/>
	</g>
	<g>
		<g>
			<path class="st4" d="M171.859,300.938h-6v-48.15c0-15.362,5.954-29.833,16.765-40.748l3.532-3.565
				c10.799-10.903,25.794-17.156,41.14-17.156v6c-13.756,0-27.197,5.605-36.877,15.378l-3.532,3.565
				c-9.69,9.784-15.027,22.756-15.027,36.526V300.938z"/>
		</g>
		<g>
			<circle class="st16" cx="168.859" cy="319.476" r="19.479"/>
		</g>
		<g>
			<circle class="st4" cx="168.859" cy="319.476" r="10.252"/>
		</g>
	</g>
	<g>
		<g>
			<path class="st4" d="M346.141,263.835h-6v-11.047c0-13.77-5.337-26.742-15.027-36.525l-3.532-3.566
				c-9.68-9.773-23.121-15.378-36.877-15.378v-6c15.346,0,30.341,6.253,41.14,17.156l3.532,3.566
				c10.811,10.915,16.765,25.386,16.765,40.748V263.835z"/>
		</g>
		<g>
			<path class="st4" d="M382.838,348.704h-13.726v-6h7.726v-42.172c0-18.581-15.117-33.697-33.697-33.697
				c-18.581,0-33.698,15.117-33.698,33.697v42.172h7.726v6h-13.726v-48.172c0-21.889,17.808-39.697,39.697-39.697
				c21.89,0,39.698,17.808,39.698,39.697V348.704z"/>
		</g>
		<g>
			<path class="st4" d="M382.838,316.765h-6c0-18.581-15.117-33.698-33.697-33.698c-18.581,0-33.698,15.117-33.698,33.698h-6
				c0-21.89,17.808-39.698,39.697-39.698C365.03,277.067,382.838,294.875,382.838,316.765z"/>
		</g>
		<g>
			<path class="st4" d="M317.163,352.88h-0.202c-2.209,0-4-1.791-4-4v-6.353c0-2.209,1.791-4,4-4h0.202c2.209,0,4,1.791,4,4v6.353
				C321.163,351.089,319.373,352.88,317.163,352.88z"/>
		</g>
		<g>
			<path class="st4" d="M369.118,352.88h0.202c2.209,0,4-1.791,4-4v-6.353c0-2.209-1.791-4-4-4h-0.202c-2.209,0-4,1.791-4,4v6.353
				C365.118,351.089,366.909,352.88,369.118,352.88z"/>
		</g>
	</g>
</g>
</svg>
