<?xml version="1.0" encoding="utf-8"?>
<!-- Generator: Adobe Illustrator 22.0.0, SVG Export Plug-In . SVG Version: 6.00 Build 0)  -->
<svg version="1.1" id="Layer_1" xmlns="http://www.w3.org/2000/svg" xmlns:xlink="http://www.w3.org/1999/xlink" x="0px" y="0px"
	 viewBox="0 0 512 512" style="enable-background:new 0 0 512 512;" xml:space="preserve">
<style type="text/css">
	.st0{fill:#FF7B7B;}
	.st1{fill:#FFB236;}
	.st2{fill:#FFD3B3;}
	.st3{fill:#FCB98B;}
	.st4{fill:#6E83B7;}
	.st5{fill:#FFB0AA;}
	.st6{fill:#EDEFF1;}
	.st7{fill:#FFE352;}
	.st8{fill:#46BEE8;}
	.st9{fill:#9CE5FF;}
	.st10{fill:#80D6FB;}
	.st11{fill:#FFE67B;}
	.st12{fill:#F76161;}
	.st13{fill:#98CA69;}
	.st14{fill:#75AA40;}
	.st15{fill:#BFEA8C;}
	.st16{fill:#D3D3D3;}
	.st17{fill:#466089;}
	.st18{fill:#7C93BF;}
	.st19{fill:#FFC69F;}
	.st20{fill:#859CC1;}
	.st21{fill:#EFA470;}
	.st22{fill:#C1C1C1;}
	.st23{fill:#E2935D;}
	.st24{fill:#99E5FF;}
</style>
<g>
	<g>
		<g>
			<path class="st6" d="M352.524,226.68l-49.944-14.864h-93.131l-49.943,14.864c-26.969,8.027-45.459,32.821-45.459,60.959v219.376
				l233.968,0.094V395.549c0,13.798,11.186,24.984,24.984,24.984h0c13.798,0,24.984-11.186,24.984-24.984v-107.91
				C397.983,259.5,379.493,234.707,352.524,226.68z"/>
		</g>
	</g>
	<g>
		<g>
			<g>
				<rect x="252.682" y="281.209" class="st16" width="6" height="225.806"/>
			</g>
		</g>
	</g>
	<g>
		<g>
			<polygon class="st8" points="202.804,213.794 255.814,362.66 309.226,213.794 302.58,211.816 209.449,211.816 			"/>
		</g>
	</g>
	<g>
		<g>
			<g>
				<rect x="164.015" y="281.209" class="st16" width="6" height="225.806"/>
			</g>
		</g>
	</g>
	<g>
		<g>
			<g>
				<rect x="270.182" y="453.016" class="st16" width="60" height="6"/>
			</g>
		</g>
	</g>
	<g>
		<g>
			<g>
				<rect x="181.446" y="453.016" class="st16" width="60" height="6"/>
			</g>
		</g>
	</g>
	<g>
		<g>
			<path class="st16" d="M348.015,303.212l12.051-12.051l-4.243-4.243l-7.809,7.809v-13.518h-6v114.339
				c0,6.84,2.232,13.166,6,18.297V303.212z"/>
		</g>
	</g>
	<g>
		<g>
			<path class="st3" d="M354.465,283.937l17.319-18.026c2.873-2.99,6.985-4.456,11.102-3.958l6.794,0.823l10.847-12.613
				c1.998-2.323,5.404-2.816,7.979-1.155l0,0c3.101,2.001,3.747,6.267,1.377,9.096l-8.662,10.339l-4.871,4.871L354.465,283.937z"/>
		</g>
	</g>
	<g>
		<g>
			<path class="st2" d="M362.775,294.019v-15.615l10.224-2.461l28.224-7.5l23.552-6.848l8.816-11.637
				c2.107-2.782,5.952-3.568,8.982-1.836l0,0c3.604,2.059,4.609,6.798,2.151,10.143l-8.214,11.178
				c-2.118,2.882-4.969,5.143-8.257,6.548l-21.052,8.997c-2.101,0.898-4.341,1.429-6.621,1.571l-12.554,0.779v6.681H362.775z"/>
		</g>
	</g>
	<g>
		<g>
			<path class="st3" d="M444.299,249.516c-0.737-0.193-1.497-0.294-2.262-0.294c-2.786,0-5.453,1.325-7.134,3.544l-8.373,11.051
				l-19.319,4.293h-4.843l-1.146,0.333l-28.224,7.5l-6.141,1.478l-3.176,4.344v12.254h24.344v-6.681l12.554-0.779
				c2.281-0.141,4.52-0.673,6.621-1.571l21.052-8.997c3.288-1.405,6.14-3.667,8.257-6.548l8.214-11.178
				C446.726,255.54,446.428,251.888,444.299,249.516z"/>
		</g>
	</g>
	<g>
		<g>
			<path class="st2" d="M365.681,298.033v-15.615l9-12.309h32.75l20.25-4.5l8.816-11.637c2.107-2.782,5.952-3.568,8.982-1.836l0,0
				c3.604,2.059,4.609,6.798,2.151,10.143l-8.214,11.178c-2.118,2.882-4.969,5.143-8.257,6.548l-21.052,8.997
				c-2.101,0.898-4.341,1.429-6.621,1.571l-12.554,0.779v6.681H365.681z"/>
		</g>
	</g>
	<g>
		<g>
			<path class="st3" d="M447.896,254.457c-1.113-0.478-2.312-0.736-3.526-0.736c-2.786,0-5.454,1.325-7.135,3.544l-8.372,11.051
				l-19.124,4.25l-12.458-2.457h-22.601l-9,12.309v15.615h25.25v-6.681l12.554-0.779c2.281-0.141,4.52-0.673,6.621-1.571
				l21.052-8.997c3.288-1.405,6.14-3.666,8.257-6.548l8.214-11.178C449.388,259.887,449.366,256.786,447.896,254.457z"/>
		</g>
	</g>
	<g>
		<g>
			<g>
				<path class="st16" d="M367.984,233.648l-14.343,21.515c-1.587,2.38-2.426,5.151-2.426,8.013c0,7.965,6.479,14.445,14.444,14.445
					h31.526C394.277,259.338,383.522,243.318,367.984,233.648z"/>
			</g>
		</g>
		<g>
			<g>
				<path class="st6" d="M417.725,178.105v41.257l26.086,39.129c0.925,1.387,1.418,3.017,1.418,4.684l0,0
					c0,4.664-3.781,8.445-8.445,8.445h-35.562H365.66c-4.664,0-8.445-3.781-8.445-8.445l0,0c0-1.667,0.493-3.297,1.418-4.684
					l26.086-39.129v-41.257H417.725z"/>
			</g>
		</g>
		<g>
			<g>
				<path class="st7" d="M412.224,224.863l24.654,36.98c1.219,1.828-0.092,4.276-2.289,4.276h-66.734
					c-2.197,0-3.507-2.448-2.289-4.276l24.654-36.98H412.224z"/>
			</g>
		</g>
		<g>
			<g>
				<path class="st6" d="M422.226,178.105h-42.007c-0.552,0-1-0.448-1-1v-9.002c0-0.552,0.448-1,1-1h42.007c0.552,0,1,0.448,1,1
					v9.002C423.226,177.657,422.778,178.105,422.226,178.105z"/>
			</g>
		</g>
		<g>
			<g>
				<rect x="384.72" y="178.105" class="st16" width="33.005" height="2.75"/>
			</g>
		</g>
		<g>
			<g>
				<circle class="st7" cx="398.472" cy="213.861" r="5.501"/>
			</g>
		</g>
		<g>
			<g>
				<circle class="st1" cx="401.222" cy="238.615" r="2.75"/>
			</g>
		</g>
		<g>
			<g>
				<circle class="st7" cx="406.723" cy="197.358" r="2.75"/>
			</g>
		</g>
		<g>
			<g>
				<circle class="st1" cx="384.72" cy="249.617" r="2.75"/>
			</g>
		</g>
		<g>
			<g>
				<circle class="st1" cx="417.725" cy="255.117" r="2.75"/>
			</g>
		</g>
	</g>
	<g>
		<g>
			<path class="st2" d="M351.132,304.786V291.39c0-2.846,1.212-5.556,3.333-7.454l11.107-9.934
				c4.677-4.183,11.046-5.929,17.203-4.715l26.99,5.322l20.25-4.5l8.816-11.637c2.107-2.782,5.952-3.568,8.982-1.836v0
				c3.604,2.059,4.609,6.798,2.151,10.143l-8.214,11.178c-2.117,2.882-4.969,5.143-8.257,6.548l-21.052,8.997
				c-2.101,0.898-4.341,1.429-6.621,1.571l-7.33,0.455c-2.936,0.182-5.223,2.616-5.223,5.557v3.701H351.132z"/>
		</g>
	</g>
	<g>
		<g>
			<polygon class="st16" points="202.804,213.794 185.031,219.186 199.481,261.162 195.814,322.016 255.814,362.66 			"/>
		</g>
	</g>
	<g>
		<g>
			<polygon class="st16" points="308.825,213.794 326.598,219.186 312.148,261.162 315.814,322.016 255.814,362.66 			"/>
		</g>
	</g>
	<g>
		<g>
			<g>
				<path class="st17" d="M321,94v47.062c0,35.127-28.684,63.469-63.809,63.082c-0.395-0.004-1.986-0.004-2.381,0
					C219.684,204.53,191,176.189,191,141.062V94H321z"/>
			</g>
		</g>
		<g>
			<g>
				<polygon class="st2" points="283,194.396 283,181 229,181 229,194.396 256,256 				"/>
			</g>
		</g>
		<g>
			<g>
				<path class="st2" d="M314,92h6.598c6.041,0,10.703,5.315,9.915,11.305l-2.597,19.739c-0.524,3.981-3.917,6.956-7.932,6.956H314
					V92z"/>
			</g>
		</g>
		<g>
			<g>
				<path class="st2" d="M198,92h-6.598c-6.041,0-10.703,5.315-9.915,11.305l2.597,19.739c0.524,3.981,3.917,6.956,7.932,6.956H198
					V92z"/>
			</g>
		</g>
		<g>
			<g>
				<path class="st3" d="M229,194.396c8.282,3.598,17.41,5.604,27,5.604s18.718-2.006,27-5.604V181h-54V194.396z"/>
			</g>
		</g>
		<g>
			<g>
				<path class="st2" d="M314,132c0,32.033-25.967,58-58,58s-58-25.967-58-58V56h116V132z"/>
			</g>
		</g>
		<g>
			<g>
				<path class="st4" d="M287,16h-3c-7.043-7.043-16.596-11-26.556-11H251c-33.137,0-60,26.863-60,60v27h7v27l11.693-27.284
					C261.479,89.157,276,70,276,70s12.404,14.615,27.462,20.02L314,119V92h7V50C321,31.222,305.778,16,287,16z"/>
			</g>
		</g>
		<g>
			<g>
				<polygon class="st3" points="259,149 249.157,149 253.09,133.272 258.91,134.728 256.843,143 259,143 				"/>
			</g>
		</g>
		<g>
			<g>
				<path class="st4" d="M266,104c0,0,16.939-7.347,33,3c0,0-13.75-3.375-30,3L266,104z"/>
			</g>
		</g>
		<g>
			<g>
				<path class="st4" d="M246,104c0,0-16.939-7.347-33,3c0,0,13.75-3.375,30,3L246,104z"/>
			</g>
		</g>
		<g>
			<g>
				<rect x="247" y="160" class="st3" width="18" height="6"/>
			</g>
		</g>
		<g>
			<g>
				<path class="st19" d="M284,142h-10c-2.209,0-4-1.791-4-4l0,0c0-2.209,1.791-4,4-4h10c2.209,0,4,1.791,4,4l0,0
					C288,140.209,286.209,142,284,142z"/>
			</g>
		</g>
		<g>
			<g>
				<path class="st19" d="M228,142h10c2.209,0,4-1.791,4-4l0,0c0-2.209-1.791-4-4-4h-10c-2.209,0-4,1.791-4,4l0,0
					C224,140.209,225.791,142,228,142z"/>
			</g>
		</g>
		<g>
			<g>
				<path class="st4" d="M236,118c-0.022,0-0.044,0.003-0.067,0.003c-0.62,0.028-5.516,0.18-7.933-2.003
					c0,0,0.619,2.919,2.817,4.987C230.301,121.874,230,122.901,230,124c0,3.314,2.686,6,6,6s6-2.686,6-6S239.314,118,236,118z"/>
			</g>
		</g>
		<g>
			<g>
				<path class="st4" d="M276,118c0.022,0,0.044,0.003,0.067,0.003c0.62,0.028,5.516,0.18,7.933-2.003c0,0-0.619,2.919-2.817,4.987
					c0.516,0.886,0.817,1.913,0.817,3.013c0,3.314-2.686,6-6,6s-6-2.686-6-6S272.686,118,276,118z"/>
			</g>
		</g>
	</g>
	<g>
		<g>
			<path class="st10" d="M256,256l-12.344,16.742c-5.705,7.738-17.738,5.961-20.963-3.096l-19.889-55.853L229,194.396L256,256z"/>
		</g>
	</g>
	<g>
		<g>
			<path class="st10" d="M256,256l12.344,16.742c5.705,7.738,17.738,5.961,20.963-3.096l19.889-55.853L283,194.396L256,256z"/>
		</g>
	</g>
</g>
</svg>
