<?xml version="1.0" encoding="utf-8"?>
<!-- Generator: Adobe Illustrator 22.0.0, SVG Export Plug-In . SVG Version: 6.00 Build 0)  -->
<svg version="1.1" id="Layer_1" xmlns="http://www.w3.org/2000/svg" xmlns:xlink="http://www.w3.org/1999/xlink" x="0px" y="0px"
	 viewBox="0 0 512 512" style="enable-background:new 0 0 512 512;" xml:space="preserve">
<style type="text/css">
	.st0{fill:#FF7B7B;}
	.st1{fill:#FFB236;}
	.st2{fill:#FFD3B3;}
	.st3{fill:#FCB98B;}
	.st4{fill:#6E83B7;}
	.st5{fill:#FFB0AA;}
	.st6{fill:#EDEFF1;}
	.st7{fill:#FFE352;}
	.st8{fill:#46BEE8;}
	.st9{fill:#9CE5FF;}
	.st10{fill:#80D6FB;}
	.st11{fill:#FFE67B;}
	.st12{fill:#F76161;}
	.st13{fill:#98CA69;}
	.st14{fill:#75AA40;}
	.st15{fill:#BFEA8C;}
	.st16{fill:#D3D3D3;}
	.st17{fill:#466089;}
	.st18{fill:#7C93BF;}
	.st19{fill:#FFC69F;}
	.st20{fill:#859CC1;}
	.st21{fill:#EFA470;}
	.st22{fill:#C1C1C1;}
	.st23{fill:#E2935D;}
	.st24{fill:#99E5FF;}
</style>
<g>
	<g>
		<path class="st2" d="M419.39,271.668l3.745-11.63c0.878-2.728,0.521-5.704-0.979-8.146l-0.001-0.002
			c-0.842-1.371-1.334-2.928-1.433-4.534l-1.803-29.289c-0.193-3.13,2.033-5.891,5.133-6.366h0c3.397-0.521,6.547,1.883,6.942,5.297
			l0.829,11.031c0.188,2.505,1.746,4.7,4.049,5.704l0,0c2.019,0.88,4.339,0.725,6.222-0.418l5.963-3.616
			c2.338-1.418,3.595-4.103,3.186-6.807l-2.684-17.759c-0.289-1.885-1.281-3.592-2.777-4.775l-3.815-3.019
			c-2.195-1.737-2.552-4.931-0.794-7.109l0.083-0.103c1.843-2.285,5.174-2.605,7.398-0.73c3.471,2.926,7.914,6.667,7.914,6.667
			c1.154,0.972,1.991,2.267,2.403,3.718l4.855,20.183l11.14,10.198c2.18,1.995,2.996,5.078,2.091,7.891l-7.984,24.796
			c-0.932,2.894-2.919,5.33-5.566,6.824l-4.953,2.796c-1.655,0.934-2.897,2.457-3.479,4.265l-1.874,5.82L419.39,271.668z"/>
	</g>
	<g>
		<path class="st3" d="M463.827,219.966l-0.723-3.007c0,0-12.751-0.092-12.771-0.09l0.911,6.026
			c0.409,2.704-0.848,5.389-3.186,6.807l-5.963,3.616c-1.291,0.783-2.787,1.09-4.251,0.93c-0.945,3.822,0.313,7.87,3.316,10.489
			l11.438,9.952c1.919,1.678,4.389,2.603,6.954,2.603l1.117-0.011c3.246-0.033,6.097-2.132,7.093-5.224l1.788-5.551
			c0.097-0.303,0.352-0.534,0.663-0.603l4.647-1.021l2.198-6.826c0.906-2.813,0.089-5.896-2.091-7.891L463.827,219.966z"/>
	</g>
	<g>
		<path class="st2" d="M477.057,238.057l-1.133,3.518l-6.355,1.397c-1.355,0.298-2.451,1.293-2.876,2.614l-1.787,5.55
			c-0.598,1.857-2.317,3.124-4.269,3.144l-1.027,0.011c-1.854,0.014-3.644-0.642-5.038-1.861l-11.443-9.957
			c-2.281-1.989-3.157-5.137-2.231-8.015l3.021-9.381c0.957-2.971,3.639-5.037,6.708-5.224c0.189-0.019,0.373-0.023,0.561-0.018
			l12.637,0.131l11.142,10.201C477.147,232.156,477.963,235.245,477.057,238.057z"/>
	</g>
	<g>
		<path class="st3" d="M446.117,245.34l-2.855-0.919l5.28-16.4c0.775-2.407,2.993-4.087,5.52-4.181l5.666-0.211l0.111,2.998
			l-5.666,0.211c-1.27,0.047-2.386,0.892-2.775,2.103L446.117,245.34z"/>
	</g>
	<g>
		<path class="st3" d="M454.079,252.667l-2.855-0.919l5.164-16.036c0.705-2.19,2.556-3.767,4.829-4.115l3.911-0.6l0.455,2.965
			l-3.911,0.6c-1.144,0.175-2.074,0.968-2.429,2.069L454.079,252.667z"/>
	</g>
	<g>
		
			<rect x="429.266" y="268.786" transform="matrix(0.3065 -0.9519 0.9519 0.3065 44.7634 602.012)" class="st3" width="12.524" height="3"/>
	</g>
	<g>
		<path class="st4" d="M459.763,281.67l-47.772-14.651l-14.706,47.95l-8.215-22.317c-6.528-17.735-21.03-31.357-39.137-36.765
			l-66.475-19.792H256.2h-27.258l-72.889,21.442c-25.488,7.498-43.01,30.865-43.067,57.433l-0.453,192.125H256.2h92v-95.901v-58.766
			l19.783,48.372c11.222,27.437,51.2,23.709,57.156-5.329L459.763,281.67z"/>
	</g>
	<g>
		<path class="st17" d="M397.345,315.132l-20.884,68.335l-0.001-3.025c-0.004-11.94,1.773-23.813,5.274-35.228l12.128-39.545
			L397.345,315.132z"/>
	</g>
	<g>
		<rect x="252.2" y="333.194" class="st17" width="8" height="173.9"/>
	</g>
	<g>
		<polygon class="st6" points="299.359,240.772 283.458,227.761 256.2,256.094 228.942,227.761 213.042,240.772 198.277,245.115 
			256.2,410.219 314.123,245.115 		"/>
	</g>
	<g>
		<g>
			<polygon class="st16" points="259.2,407.188 256.2,410.219 253.2,407.188 253.2,282.925 259.2,282.925 			"/>
		</g>
	</g>
	<g>
		<polygon class="st16" points="299.36,240.774 283.46,227.764 256.2,256.094 228.94,227.764 213.04,240.774 205.32,243.044 
			234.16,311.144 256.2,272.304 278.24,311.144 307.08,243.044 		"/>
	</g>
	<g>
		<polygon class="st2" points="283.458,256.094 256.2,256.094 228.942,256.094 228.942,192.049 283.458,192.049 		"/>
	</g>
	<g>
		<path class="st3" d="M228.942,206.684c8.334,3.721,17.554,5.809,27.258,5.809c9.704,0,18.924-2.087,27.258-5.809v-14.635h-54.516
			V206.684z"/>
	</g>
	<g>
		<path class="st2" d="M314.123,145.587c0,31.933-25.99,57.82-57.923,57.82s-57.923-25.887-57.923-57.82v-38.5l115.846,0V145.587z"
			/>
	</g>
	<g>
		<path class="st2" d="M314.123,107.087h4.264c6.799,0,12.074,5.933,11.28,12.684l-1.591,13.523
			c-0.832,7.075-6.829,12.408-13.953,12.408l0,0V107.087z"/>
	</g>
	<g>
		<path class="st2" d="M198.277,107.087h-4.264c-6.798,0-12.074,5.933-11.28,12.684l1.591,13.523
			c0.832,7.075,6.829,12.408,13.953,12.408h0V107.087z"/>
	</g>
	<g>
		<rect x="179.2" y="91.087" class="st4" width="154" height="16"/>
	</g>
	<g>
		<rect x="193.2" y="75.087" class="st17" width="126" height="16"/>
	</g>
	<g>
		<rect x="193.2" y="5.094" class="st4" width="126" height="69.993"/>
	</g>
	<g>
		<g>
			<path class="st4" d="M198.2,107.087v13.397l2.82-2.273c2.59-2.158,4.18-5.355,4.18-8.725v-2.398H198.2z"/>
		</g>
		<g>
			<path class="st4" d="M307.2,107.087v2.398c0,3.371,1.59,6.568,4.18,8.725l2.82,2.273v-13.397H307.2z"/>
		</g>
	</g>
	<g>
		<rect x="164.2" y="367.094" class="st17" width="8" height="140"/>
	</g>
	<g>
		<polygon class="st6" points="228.942,227.761 256.2,256.094 235.2,293.094 213.042,240.772 		"/>
	</g>
	<g>
		<polygon class="st6" points="283.458,227.761 256.2,256.094 277.2,293.094 299.359,240.772 		"/>
	</g>
	<g>
		<polygon class="st20" points="198.277,245.115 172.2,252.786 198.277,311.144 198.2,351.761 256.2,410.219 		"/>
	</g>
	<g>
		<polygon class="st20" points="314.123,245.115 340.2,252.786 314.123,311.144 314.2,351.761 256.2,410.219 		"/>
	</g>
	<g>
		<g>
			<g>
				<path class="st5" d="M261.2,295.925h-10c-2.209,0-4-1.791-4-4v-18c0-2.209,1.791-4,4-4h10c2.209,0,4,1.791,4,4v18
					C265.2,294.134,263.409,295.925,261.2,295.925z"/>
			</g>
		</g>
		<g>
			<g>
				<path class="st5" d="M265.2,291.925l29.844,8.937c3.849,1.153,7.721-1.73,7.721-5.748v-2.671c0-1.681-0.424-3.336-1.233-4.81
					l-2.583-4.708l2.583-4.708c0.809-1.474,1.233-3.128,1.233-4.81v-2.671c0-4.018-3.872-6.9-7.721-5.748l-29.844,8.937V291.925z"/>
			</g>
		</g>
		<g>
			<g>
				<path class="st0" d="M265.2,291.925l3.905,1.169c0.057-0.383,0.095-0.771,0.095-1.169v-18c0-0.398-0.039-0.786-0.095-1.169
					l-3.905,1.169V291.925z"/>
			</g>
		</g>
		<g>
			<g>
				<path class="st5" d="M247.2,291.925l-29.844,8.937c-3.849,1.153-7.721-1.73-7.721-5.748v-2.671c0-1.681,0.424-3.336,1.233-4.81
					l2.583-4.708l-2.583-4.708c-0.809-1.474-1.233-3.128-1.233-4.81v-2.671c0-4.018,3.872-6.9,7.721-5.748l29.844,8.937V291.925z"/>
			</g>
		</g>
		<g>
			<g>
				<path class="st0" d="M247.2,291.925l-3.905,1.169c-0.057-0.383-0.095-0.771-0.095-1.169v-18c0-0.398,0.039-0.786,0.095-1.169
					l3.905,1.169V291.925z"/>
			</g>
		</g>
	</g>
	<g>
		<rect x="427.178" y="79.112" class="st4" width="16.699" height="143.929"/>
	</g>
	<g>
		
			<rect x="427.178" y="79.112" transform="matrix(-1 8.975919e-11 -8.975919e-11 -1 871.0553 184.9228)" class="st6" width="16.699" height="26.699"/>
	</g>
	<g>
		<polygon class="st3" points="261.879,161.882 247.721,161.882 252.308,145.204 258.093,146.796 255.594,155.882 261.879,155.882 
					"/>
	</g>
	<g>
		<path class="st4" d="M246.2,116c0,0-7.726-2.893-17.259-1.55c-5.36,0.755-11.291,2.849-16.741,7.55c0,0,19.625-5,31,2L246.2,116z"
			/>
	</g>
	<g>
		<circle class="st4" cx="234.2" cy="135" r="6"/>
	</g>
	<g>
		<path class="st4" d="M266.2,116c0,0,18.857-7.061,34,6c0,0-19.625-5-31,2L266.2,116z"/>
	</g>
	<g>
		<path class="st6" d="M246.2,177h20l-0.106,0.425c-1.113,4.452-5.113,7.575-9.701,7.575h-0.384c-4.589,0-8.589-3.123-9.701-7.575
			L246.2,177z"/>
	</g>
	<g>
		<circle class="st4" cx="278.2" cy="135" r="6"/>
	</g>
	<g>
		<path class="st7" d="M417.2,90.669l5.206-1.973l-5.206-1.973c-2.085-0.79-3.671-2.523-4.272-4.67l-2.272-8.107l-2.272,8.107
			c-0.602,2.147-2.187,3.88-4.272,4.67l-5.206,1.973l5.206,1.973c2.085,0.79,3.671,2.523,4.272,4.67l2.272,8.107l2.272-8.107
			C413.53,93.192,415.115,91.459,417.2,90.669z"/>
	</g>
	<g>
		<path class="st7" d="M455.768,68.934l4.147-1.571l-4.147-1.571c-1.661-0.629-2.924-2.01-3.403-3.72l-1.81-6.458l-1.81,6.458
			c-0.479,1.71-1.742,3.091-3.403,3.72l-4.147,1.571l4.147,1.571c1.661,0.629,2.924,2.01,3.403,3.72l1.81,6.458l1.81-6.458
			C452.844,70.944,454.107,69.563,455.768,68.934z"/>
	</g>
	<g>
		<path class="st7" d="M430.617,54.202l2.735-1.036l-2.735-1.036c-1.095-0.415-1.929-1.326-2.245-2.454l-1.194-4.26l-1.194,4.26
			c-0.316,1.128-1.149,2.039-2.245,2.454l-2.735,1.036l2.735,1.036c1.095,0.415,1.929,1.326,2.245,2.454l1.194,4.26l1.194-4.26
			C428.688,55.528,429.522,54.617,430.617,54.202z"/>
	</g>
</g>
</svg>
