<svg id="Layer_1" data-name="Layer 1" xmlns="http://www.w3.org/2000/svg" viewBox="0 0 128 128"><title>COSMETIC</title><path d="M25.6,68.181H48.872a0,0,0,0,1,0,0V104.62a8.612,8.612,0,0,1-8.612,8.612H34.216A8.612,8.612,0,0,1,25.6,104.62V68.181A0,0,0,0,1,25.6,68.181Z" style="fill:#4e7693"/><path d="M43.768,68.181V104.62a8.612,8.612,0,0,1-8.612,8.612h5.1a8.612,8.612,0,0,0,8.612-8.612V68.181Z" style="fill:#2c5168"/><rect x="28.139" y="58.46" width="18.198" height="9.72" style="fill:#edb48a"/><rect x="42.014" y="58.46" width="4.323" height="9.72" style="fill:#ce8b5d"/><path d="M38.268,36.535,30.533,33V58.46H43.944v-13.1A9.707,9.707,0,0,0,38.268,36.535Z" style="fill:#fc3e81"/><path d="M38.268,36.535,30.533,33V34.5L35,36.535a9.706,9.706,0,0,1,5.675,8.83v13.1h3.272v-13.1A9.707,9.707,0,0,0,38.268,36.535Z" style="fill:#e02057"/><polygon points="68.289 113.232 58.982 113.232 57.172 47.767 70.099 47.767 68.289 113.232" style="fill:#4e7693"/><polygon points="66.647 47.767 64.837 113.232 68.289 113.232 70.099 47.767 66.647 47.767" style="fill:#2c5168"/><rect x="57.172" y="39.781" width="12.927" height="7.986" style="fill:#edb48a"/><rect x="66.745" y="39.781" width="3.354" height="7.986" style="fill:#ce8b5d"/><path d="M70.1,39.781H57.172a59.266,59.266,0,0,0-5.537-11.316,8.577,8.577,0,0,1,4.67-12.623,25.541,25.541,0,0,1,14.659,0,8.577,8.577,0,0,1,4.67,12.623A59.267,59.267,0,0,0,70.1,39.781Z" style="fill:#e3f4ff"/><path d="M70.965,15.842a25.5,25.5,0,0,0-9-1.014,25.343,25.343,0,0,1,5.655,1.014,8.577,8.577,0,0,1,4.67,12.623,59.268,59.268,0,0,0-5.537,11.316H70.1a59.268,59.268,0,0,1,5.537-11.316A8.577,8.577,0,0,0,70.965,15.842Z" style="fill:#bbd8ef"/><path d="M62.858,39.781c0-.065.007-.129,0-.2-.031-.317-.777-7.812-2.2-11.792a2,2,0,0,0-3.768,1.344c1.144,3.207,1.843,9.5,1.963,10.644Z" style="fill:#bbd8ef"/><rect x="80.318" y="104.279" width="34.746" height="7.523" style="fill:#2c5168"/><rect x="80.318" y="67.549" width="34.746" height="6.839" style="fill:#2c5168"/><rect x="111.88" y="104.279" width="3.184" height="7.523" style="fill:#214456"/><rect x="111.88" y="67.549" width="3.184" height="6.839" style="fill:#214456"/><rect x="76.486" y="58.46" width="42.41" height="9.088" style="fill:#4e7693"/><rect x="76.486" y="74.388" width="42.41" height="29.892" rx="3.96" ry="3.96" style="fill:#4e7693"/><path d="M114.936,74.388H111.1a3.96,3.96,0,0,1,3.96,3.96v21.971a3.96,3.96,0,0,1-3.96,3.96h3.832a3.96,3.96,0,0,0,3.96-3.96V78.348A3.96,3.96,0,0,0,114.936,74.388Z" style="fill:#2c5168"/><circle cx="97.691" cy="89.333" r="8.089" style="fill:#e3f4ff"/><path d="M97.691,81.244a8.139,8.139,0,0,0-.942.059,8.084,8.084,0,0,1,0,16.059,8.087,8.087,0,1,0,.942-16.119Z" style="fill:#bbd8ef"/><rect x="90.962" y="58.46" width="4" height="9.088" style="fill:#2c5168"/><rect x="81.503" y="58.46" width="4" height="9.088" style="fill:#2c5168"/><rect x="100.421" y="58.46" width="4" height="9.088" style="fill:#2c5168"/><rect x="109.88" y="58.46" width="4" height="9.088" style="fill:#2c5168"/><path d="M9.1,80.9H32.372a0,0,0,0,1,0,0V104.62a8.612,8.612,0,0,1-8.612,8.612H17.716A8.612,8.612,0,0,1,9.1,104.62V80.9A0,0,0,0,1,9.1,80.9Z" style="fill:#4e7693"/><path d="M27.267,104.62a8.612,8.612,0,0,1-8.611,8.612h5.1a8.608,8.608,0,0,0,8.612-8.612V80.9h-5.1Z" style="fill:#2c5168"/><rect x="9.104" y="99.055" width="23.268" height="4" style="fill:#edb48a"/><rect x="27.267" y="99.055" width="5.105" height="4" style="fill:#ce8b5d"/></svg>