<svg id="Layer_1" data-name="Layer 1" xmlns="http://www.w3.org/2000/svg" viewBox="0 0 128 128"><title>PRICE TAG</title><path d="M98.854,23.831a14.111,14.111,0,0,0-7.849-2.1l-24.721.43a9.221,9.221,0,0,0-6.36,2.7L8.694,76.1l42.053,42.053,51.231-51.231a9.221,9.221,0,0,0,2.7-6.36l.437-25.091A13.512,13.512,0,0,0,98.854,23.831ZM96.935,39.5a6.783,6.783,0,1,1,0-9.593A6.783,6.783,0,0,1,96.935,39.5Z" style="fill:#edb48a"/><path d="M69.9,72.982c2.68-2.68,1.834-5.649-.378-9.311l3.62-3.62a11.183,11.183,0,0,1,.926,2.4,1.9,1.9,0,0,0,2.14,1.39l.455-.072a1.908,1.908,0,0,0,1.57-2.309,12.252,12.252,0,0,0-2.073-4.429l1.91-1.91a1.912,1.912,0,0,0,0-2.7h0a1.912,1.912,0,0,0-2.7,0l-1.817,1.817c-3.261-2.531-7.046-2.577-9.646.023-2.759,2.759-1.824,5.746.3,9.327L60.41,67.372a10.83,10.83,0,0,1-1.46-3.755A1.9,1.9,0,0,0,56.918,62.1l-.466.04a1.917,1.917,0,0,0-1.717,2.285,14.268,14.268,0,0,0,2.732,5.888l-1.01,1.01a1.912,1.912,0,0,0,0,2.7h0a1.912,1.912,0,0,0,2.7,0l.995-.995C63.622,75.71,67.254,75.626,69.9,72.982ZM67.639,57.316a2.371,2.371,0,0,1,2.987-.16l-3.1,3.1C66.864,58.912,66.887,58.068,67.639,57.316Zm-4.563,12.8L66.2,66.988c.68,1.379.689,2.2-.067,2.961A2.421,2.421,0,0,1,63.076,70.114ZM57.518,96.123a1.744,1.744,0,0,1-1.237-.513L34.11,73.441a1.75,1.75,0,0,1,2.475-2.475l22.17,22.169a1.75,1.75,0,0,1-1.237,2.987Zm-5.082,5.807a1.749,1.749,0,0,0,0-2.475L30.266,77.285a1.75,1.75,0,0,0-2.475,2.475l22.17,22.169a1.749,1.749,0,0,0,2.475,0Z" style="fill:#ce8b5d"/><path d="M93.767,21.937a18.5,18.5,0,0,0-2.344,6.024,6.768,6.768,0,0,1,5.513,1.946c.083.083.155.172.233.258.022-.314.055-.609.1-.854a12.921,12.921,0,0,1,2.151-5.07c-.189-.135-.363-.285-.56-.411A13.415,13.415,0,0,0,93.767,21.937Z" style="fill:#ce8b5d"/><path d="M98.854,23.831a14.111,14.111,0,0,0-7.849-2.1l-2.3.04a13.773,13.773,0,0,1,6.507,2.056,13.512,13.512,0,0,1,6.26,11.636l-.437,25.091a9.221,9.221,0,0,1-2.7,6.36L48.924,116.326l1.823,1.823,51.231-51.231a9.221,9.221,0,0,0,2.7-6.36l.437-25.091A13.512,13.512,0,0,0,98.854,23.831Z" style="fill:#ce8b5d"/><path d="M68.458,71.543c2.68-2.68,1.834-5.649-.378-9.311l3.62-3.62a11.183,11.183,0,0,1,.926,2.4,1.9,1.9,0,0,0,2.14,1.39l.455-.072a1.908,1.908,0,0,0,1.57-2.309,12.252,12.252,0,0,0-2.073-4.429l1.91-1.91a1.912,1.912,0,0,0,0-2.7h0a1.912,1.912,0,0,0-2.7,0L72.106,52.8c-3.261-2.531-7.046-2.577-9.646.023-2.759,2.759-1.824,5.746.3,9.327l-3.785,3.785a10.83,10.83,0,0,1-1.46-3.755,1.9,1.9,0,0,0-2.032-1.517l-.466.04A1.917,1.917,0,0,0,53.3,62.986a14.268,14.268,0,0,0,2.732,5.888l-1.01,1.01a1.912,1.912,0,0,0,0,2.7h0a1.912,1.912,0,0,0,2.7,0l.995-.995C62.183,74.271,65.815,74.186,68.458,71.543ZM66.2,55.876a2.371,2.371,0,0,1,2.987-.16l-3.1,3.1C65.425,57.473,65.448,56.629,66.2,55.876Zm-4.563,12.8,3.126-3.126c.68,1.379.689,2.2-.067,2.961A2.421,2.421,0,0,1,61.637,68.675ZM56.079,94.684a1.744,1.744,0,0,1-1.237-.513L32.671,72a1.75,1.75,0,0,1,2.475-2.475L57.316,91.7a1.75,1.75,0,0,1-1.237,2.987ZM51,100.49a1.749,1.749,0,0,0,0-2.475L28.827,75.846a1.75,1.75,0,0,0-2.475,2.475l22.17,22.169a1.749,1.749,0,0,0,2.475,0Z" style="fill:#2c5168"/><path d="M116.178,12.979a11.79,11.79,0,0,0-10.445-2.929,19.947,19.947,0,0,0-10.619,5.716A19.94,19.94,0,0,0,89.4,26.385,11.783,11.783,0,0,0,92.327,36.83,10.545,10.545,0,0,0,96.94,39.5a6.756,6.756,0,0,0,1.91-5.707,4.612,4.612,0,0,1-2.28-1.2c-1.58-1.58-1.462-3.95-1.251-5.222a14.117,14.117,0,0,1,4.039-7.356,14.119,14.119,0,0,1,7.357-4.04c1.272-.21,3.641-.329,5.221,1.252s1.462,3.949,1.251,5.221a14.117,14.117,0,0,1-4.039,7.357,15.425,15.425,0,0,1-4.273,3.028,12.929,12.929,0,0,1,.24,2.639l-.062,3.544a2.991,2.991,0,0,0,1.14-.2,21.16,21.16,0,0,0,7.2-4.768,19.944,19.944,0,0,0,5.716-10.619A11.783,11.783,0,0,0,116.178,12.979Z" style="fill:#4e7693"/><path d="M96.984,32.942q0,.125-.01.249a3.486,3.486,0,0,1-5.509,2.636l-.032-.024a10.024,10.024,0,0,0,.894,1.026A10.545,10.545,0,0,0,96.94,39.5a6.756,6.756,0,0,0,1.91-5.707A4.825,4.825,0,0,1,96.984,32.942Z" style="fill:#2c5168"/><path d="M110.811,16.429a4.257,4.257,0,0,0-.792-1.124c-1.58-1.581-3.949-1.462-5.221-1.252a14.119,14.119,0,0,0-7.357,4.04A14.117,14.117,0,0,0,93.4,25.449c-.21,1.272-.328,3.642,1.251,5.222a4.2,4.2,0,0,0,1.123.79,6.926,6.926,0,0,1-.458-4.095,14.117,14.117,0,0,1,4.039-7.356,14.119,14.119,0,0,1,7.357-4.04A6.919,6.919,0,0,1,110.811,16.429Z" style="fill:#2c5168"/><path d="M116.178,12.979a10.023,10.023,0,0,0-1.024-.892,12.131,12.131,0,0,1,2.035,9.42,19.944,19.944,0,0,1-5.716,10.619,21.4,21.4,0,0,1-6.378,4.422l-.043,2.463a2.991,2.991,0,0,0,1.14-.2,21.16,21.16,0,0,0,7.2-4.768,19.944,19.944,0,0,0,5.716-10.619A11.783,11.783,0,0,0,116.178,12.979Z" style="fill:#2c5168"/></svg>