<svg id="Layer_1" data-name="Layer 1" xmlns="http://www.w3.org/2000/svg" viewBox="0 0 128 128"><title>SHIELD</title><path d="M93.068,15.927S71.322,12.34,64,12.34s-29.068,3.587-29.068,3.587,2.961,16.038-13.054,16.038V55.913c0,12.637,1.527,43.209,42.122,59.748,40.6-16.539,42.122-47.11,42.122-59.748V31.964C90.107,31.964,93.068,15.927,93.068,15.927Z" style="fill:#43a3f9"/><path d="M66.53,108.585c-35.6-15.723-35.607-43.431-35.607-52.672V37.657a17.308,17.308,0,0,0,8.923-5.6,19.558,19.558,0,0,0,4.21-10.579c7.431-1.134,18.2-2.626,22.474-2.626S81.573,20.347,89,21.481A19.552,19.552,0,0,0,93.213,32.06a17.31,17.31,0,0,0,8.924,5.6V55.913C102.137,65.154,102.134,92.863,66.53,108.585Z" style="fill:#288aea"/><path d="M64,108.585C28.4,92.862,28.393,65.154,28.393,55.913V37.657a17.308,17.308,0,0,0,8.923-5.6,19.558,19.558,0,0,0,4.21-10.579c7.431-1.134,18.2-2.626,22.474-2.626s15.043,1.493,22.474,2.626A19.552,19.552,0,0,0,90.683,32.06a17.31,17.31,0,0,0,8.924,5.6V55.913C99.607,65.154,99.6,92.863,64,108.585Z" style="fill:#ffdf46"/><path d="M90.683,32.06a19.552,19.552,0,0,1-4.209-10.579C79.043,20.347,68.281,18.854,64,18.854c-.677,0-1.531.041-2.495.108,5.123.359,13.724,1.564,19.978,2.518A19.552,19.552,0,0,0,85.692,32.06a17.309,17.309,0,0,0,8.924,5.6V55.913c0,9.018-.021,35.619-33.111,51.508.817.393,1.637.784,2.5,1.164C99.6,92.863,99.607,65.154,99.607,55.913V37.657A17.309,17.309,0,0,1,90.683,32.06Z" style="fill:#ffc32c"/><path d="M60.191,80.673h0a3.8,3.8,0,0,1-2.683-1.112L45.337,67.39A3.794,3.794,0,0,1,50.7,62.025l9.488,9.488L83.267,48.438A3.794,3.794,0,0,1,88.633,53.8L62.875,79.562A3.8,3.8,0,0,1,60.191,80.673Z" style="fill:#ffc32c"/><path d="M57.206,80.673h0a3.8,3.8,0,0,1-2.683-1.112L42.352,67.39a3.794,3.794,0,0,1,5.366-5.365l9.488,9.488L80.282,48.438A3.794,3.794,0,1,1,85.648,53.8L59.889,79.562A3.8,3.8,0,0,1,57.206,80.673Z" style="fill:#2c5168"/></svg>