<svg id="Layer_2" data-name="Layer 2" xmlns="http://www.w3.org/2000/svg" viewBox="0 0 128 128"><title>CAMCORDER</title><rect x="1.75" y="16.485" width="56.25" height="95.03" rx="8" ry="8" style="fill:#38454f"/><rect x="58" y="51" width="10.663" height="26" style="fill:#283238"/><rect x="68.663" y="39.5" width="57.587" height="49" rx="4" ry="4" style="fill:#38454f"/><rect x="97.456" y="70.667" width="18.794" height="7.833" style="fill:#06daf7"/><circle cx="29.875" cy="44.61" r="18.125" style="fill:#d6eafc"/><circle cx="29.875" cy="44.61" r="8.125" style="fill:#38454f"/><path d="M29.875,62.735a18.034,18.034,0,0,1-12-4.567v43.347h24V58.168A18.034,18.034,0,0,1,29.875,62.735Z" style="fill:#60d882"/><path d="M34.375,93.257h-9a1.75,1.75,0,0,1,0-3.5h9a1.75,1.75,0,0,1,0,3.5Z" style="fill:#2fad68"/></svg>