<svg id="Layer_2" data-name="Layer 2" xmlns="http://www.w3.org/2000/svg" viewBox="0 0 128 128"><title>FAX</title><rect x="17.336" y="37.845" width="28.667" height="74.667" rx="4" ry="4" style="fill:#60d882"/><rect x="46.002" y="45.512" width="80.248" height="59.333" style="fill:#38454f"/><rect x="56.002" y="82.437" width="8.781" height="12.409" rx="4.39" ry="4.39" style="fill:#283238"/><rect x="73.158" y="82.437" width="8.781" height="12.409" rx="4.39" ry="4.39" style="fill:#283238"/><rect x="90.314" y="82.437" width="8.781" height="12.409" rx="4.39" ry="4.39" style="fill:#283238"/><rect x="107.469" y="82.437" width="8.781" height="12.409" rx="4.39" ry="4.39" style="fill:#06daf7"/><rect x="56.002" y="55.512" width="60.248" height="16.917" style="fill:#d6eafc"/><rect x="1.75" y="45.512" width="15.586" height="59.333" style="fill:#38454f"/><rect x="56.002" y="15.488" width="60.248" height="30.024" style="fill:#d6eafc"/><path d="M105.626,37.254h-39a1.75,1.75,0,0,1,0-3.5h39a1.75,1.75,0,0,1,0,3.5Z" style="fill:#b7dbf6"/><path d="M105.626,27.246h-39a1.75,1.75,0,0,1,0-3.5h39a1.75,1.75,0,0,1,0,3.5Z" style="fill:#b7dbf6"/></svg>