<svg id="Layer_2" data-name="Layer 2" xmlns="http://www.w3.org/2000/svg" viewBox="0 0 128 128"><title>FRIDGE</title><rect x="32.625" y="118.875" width="62.75" height="9.125" style="fill:#06daf7"/><path d="M27,114.875a4,4,0,0,0,4,4H97a4,4,0,0,0,4-4V51.756H27Z" style="fill:#38454f"/><rect x="27" y="51.756" width="74" height="5.004" style="fill:#283238"/><polygon points="95.996 118.164 95.996 118.875 96.054 118.875 95.996 118.164" style="fill:#283238"/><path d="M97,1.75H31a4,4,0,0,0-4,4V51.756h74V5.75A4,4,0,0,0,97,1.75Z" style="fill:#38454f"/><rect x="35.667" y="17.836" width="7.667" height="17.833" style="fill:#283238"/><rect x="35.667" y="76.399" width="7.667" height="17.833" style="fill:#283238"/></svg>