<svg id="Layer_2" data-name="Layer 2" xmlns="http://www.w3.org/2000/svg" viewBox="0 0 128 128"><title>LAPTOP</title><polygon points="116.242 104.002 11.758 104.002 1.75 96.877 1.75 89.752 126.25 89.752 126.25 96.877 116.242 104.002" style="fill:#283238"/><path d="M17.25,24h93.5a2,2,0,0,1,2,2V89.752a0,0,0,0,1,0,0H15.25a0,0,0,0,1,0,0V26A2,2,0,0,1,17.25,24Z" style="fill:#38454f"/><rect x="25.25" y="33.999" width="77.5" height="45.753" style="fill:#d6eafc"/><rect x="41.5" y="89.752" width="45" height="7.125" style="fill:#06daf7"/><path d="M56.187,66.438A1.751,1.751,0,0,1,54.94,63.46C70.829,47.313,70.829,47.313,71.812,47.313a1.75,1.75,0,0,1,.989,3.194c-1.083.95-9.939,9.892-15.366,15.408A1.745,1.745,0,0,1,56.187,66.438Z" style="fill:#b7dbf6"/><path d="M39.383,63.229a1.749,1.749,0,0,1-1.247-2.977c9.575-9.731,9.575-9.731,10.456-9.731a1.75,1.75,0,0,1,1.032,3.163c-.741.669-5.865,5.844-8.994,9.023A1.744,1.744,0,0,1,39.383,63.229Z" style="fill:#b7dbf6"/><path d="M79.408,63.229a1.749,1.749,0,0,1-1.247-2.977c9.575-9.731,9.575-9.731,10.456-9.731a1.75,1.75,0,0,1,1.032,3.163c-.741.669-5.865,5.844-8.994,9.023A1.744,1.744,0,0,1,79.408,63.229Z" style="fill:#b7dbf6"/></svg>