<svg id="Layer_2" data-name="Layer 2" xmlns="http://www.w3.org/2000/svg" viewBox="0 0 128 128"><title>PHONE</title><rect x="34" y="18.247" width="60" height="108.003" rx="5" ry="5" style="fill:#38454f"/><rect x="44" y="38.379" width="40" height="23.753" style="fill:#d6eafc"/><rect x="40.5" y="1.75" width="9.167" height="16.497" style="fill:#60d882"/><rect x="56.333" y="72.14" width="15.333" height="7.868" rx="2" ry="2" style="fill:#06daf7"/><path d="M76.917,28.247a1.75,1.75,0,0,0-1.75-1.75H52.833a1.75,1.75,0,0,0,0,3.5H75.167A1.75,1.75,0,0,0,76.917,28.247Z" style="fill:#283238"/><path d="M82,70.5H79A1.75,1.75,0,0,0,79,74h3a.25.25,0,0,1,.25.25v3.759a.25.25,0,0,1-.25.25H79a1.75,1.75,0,0,0,0,3.5h3a3.755,3.755,0,0,0,3.75-3.75V74.249A3.755,3.755,0,0,0,82,70.5Z" style="fill:#283238"/><path d="M46,81.758h3a1.75,1.75,0,0,0,0-3.5H46a.25.25,0,0,1-.25-.25V74.249A.25.25,0,0,1,46,74h3a1.75,1.75,0,0,0,0-3.5H46a3.754,3.754,0,0,0-3.75,3.75v3.759A3.754,3.754,0,0,0,46,81.758Z" style="fill:#283238"/><path d="M69.75,88.27H58.25a1.75,1.75,0,1,0,0,3.5h11.5a1.75,1.75,0,0,0,0-3.5Z" style="fill:#283238"/><path d="M84,88.27H77.5a1.75,1.75,0,0,0,0,3.5H84a1.75,1.75,0,0,0,0-3.5Z" style="fill:#283238"/><path d="M50.5,88.27H44a1.75,1.75,0,1,0,0,3.5h6.5a1.75,1.75,0,0,0,0-3.5Z" style="fill:#283238"/><path d="M69.75,98.27H58.25a1.75,1.75,0,1,0,0,3.5h11.5a1.75,1.75,0,0,0,0-3.5Z" style="fill:#283238"/><path d="M84,98.27H77.5a1.75,1.75,0,0,0,0,3.5H84a1.75,1.75,0,0,0,0-3.5Z" style="fill:#283238"/><path d="M50.5,98.27H44a1.75,1.75,0,1,0,0,3.5h6.5a1.75,1.75,0,0,0,0-3.5Z" style="fill:#283238"/><path d="M69.75,108.28H58.25a1.75,1.75,0,0,0,0,3.5h11.5a1.75,1.75,0,0,0,0-3.5Z" style="fill:#283238"/><path d="M84,108.28H77.5a1.75,1.75,0,0,0,0,3.5H84a1.75,1.75,0,0,0,0-3.5Z" style="fill:#283238"/><path d="M50.5,108.28H44a1.75,1.75,0,0,0,0,3.5h6.5a1.75,1.75,0,0,0,0-3.5Z" style="fill:#283238"/></svg>