<svg id="Layer_2" data-name="Layer 2" xmlns="http://www.w3.org/2000/svg" viewBox="0 0 128 128"><title>SOUND BAR</title><rect x="1.805" y="1.805" width="124.39" height="124.39" style="fill:#38454f"/><rect x="52" y="46.25" width="24" height="35.5" rx="6" ry="6" style="fill:#06daf7"/><rect x="88.3" y="26.234" width="24" height="35.5" rx="6" ry="6" style="fill:#06daf7"/><rect x="15.7" y="66.266" width="24" height="35.5" rx="6" ry="6" transform="translate(55.399 168.032) rotate(180)" style="fill:#06daf7"/><path d="M21.7,66.266h12c.067,0,.133.008.2.01V18.013a6.2,6.2,0,0,0-6.2-6.2h0a6.2,6.2,0,0,0-6.2,6.2V66.276C21.567,66.274,21.632,66.266,21.7,66.266Z" style="fill:#d6eafc"/><path d="M33.7,101.766h-12c-.068,0-.133-.008-.2-.01v8.231a6.2,6.2,0,0,0,6.2,6.2h0a6.2,6.2,0,0,0,6.2-6.2v-8.231C33.833,101.758,33.767,101.766,33.7,101.766Z" style="fill:#d6eafc"/><path d="M58,46.25H70c.067,0,.133.008.2.01V18.013a6.2,6.2,0,0,0-6.2-6.2h0a6.2,6.2,0,0,0-6.2,6.2V46.26C57.867,46.258,57.933,46.25,58,46.25Z" style="fill:#d6eafc"/><path d="M70,81.75H58c-.067,0-.133-.008-.2-.01v28.247a6.2,6.2,0,0,0,6.2,6.2h0a6.2,6.2,0,0,0,6.2-6.2V81.74C70.133,81.742,70.067,81.75,70,81.75Z" style="fill:#d6eafc"/><path d="M94.3,26.234h12c.068,0,.133.008.2.01V18.013a6.2,6.2,0,0,0-6.2-6.2h0a6.2,6.2,0,0,0-6.2,6.2v8.231C94.167,26.242,94.233,26.234,94.3,26.234Z" style="fill:#d6eafc"/><path d="M106.3,61.734h-12c-.067,0-.133-.008-.2-.01v48.263a6.2,6.2,0,0,0,6.2,6.2h0a6.2,6.2,0,0,0,6.2-6.2V61.724C106.433,61.726,106.368,61.734,106.3,61.734Z" style="fill:#d6eafc"/><rect x="15.7" y="79.375" width="24" height="9.282" style="fill:#05b8e2"/><rect x="52" y="59.359" width="24" height="9.282" style="fill:#05b8e2"/><rect x="88.3" y="39.343" width="24" height="9.282" style="fill:#05b8e2"/></svg>