<?xml version="1.0" encoding="utf-8"?>
<!-- Generator: Adobe Illustrator 18.0.0, SVG Export Plug-In . SVG Version: 6.00 Build 0)  -->
<!DOCTYPE svg PUBLIC "-//W3C//DTD SVG 1.1//EN" "http://www.w3.org/Graphics/SVG/1.1/DTD/svg11.dtd">
<svg version="1.1" id="Layer_1" xmlns="http://www.w3.org/2000/svg" xmlns:xlink="http://www.w3.org/1999/xlink" x="0px" y="0px"
	 viewBox="0 0 512 512" style="enable-background:new 0 0 512 512;" xml:space="preserve">
<style type="text/css">
	.st0{fill:#FFD452;}
	.st1{fill:#F58E6F;}
	.st2{fill:#4A555F;}
	.st3{fill:none;}
	.st4{fill:#DFDFDF;}
	.st5{fill:#71CCE0;}
	.st6{fill:#FFFFFF;}
</style>
<g>
	<g>
		<g>
			<path class="st0" d="M424.557,331.083c-39.21,0-71.109,31.899-71.109,71.109c0,39.21,31.899,71.109,71.109,71.109
				c39.21,0,71.109-31.899,71.109-71.109C495.666,362.983,463.767,331.083,424.557,331.083z"/>
		</g>
	</g>
	<g>
		<g>
			<polygon class="st2" points="461.727,376.59 411.177,426.056 387.533,399.924 382.387,404.579 410.872,436.062 466.581,381.55 
							"/>
		</g>
	</g>
	<g>
		<g>
			<g>
				<path class="st2" d="M112.696,172.058v6.939h6.939v-6.939H112.696z M112.696,276.14h6.939v-6.939h-6.939V276.14z
					 M112.696,290.018h6.939v-6.939h-6.939V290.018z M112.696,303.895h6.939v-6.939h-6.939V303.895z M112.696,317.773h6.939v-6.939
					h-6.939V317.773z M112.696,262.262h6.939v-6.939h-6.939V262.262z M112.696,192.874h6.939v-6.939h-6.939V192.874z
					 M112.696,206.752h6.939v-6.939h-6.939V206.752z M112.696,220.629h6.939v-6.939h-6.939V220.629z M112.696,248.385h6.939v-6.939
					h-6.939V248.385z M112.696,234.507h6.939v-6.939h-6.939V234.507z"/>
			</g>
		</g>
	</g>
	<g>
		<g>
			<polygon class="st2" points="131.631,313.387 116.18,328.253 100.924,313.402 96.083,318.374 116.151,337.909 136.442,318.388 
							"/>
		</g>
	</g>
	<g>
		<g>
			<g>
				<path class="st2" d="M246.537,419.02h6.939v-6.939h-6.939V419.02z M232.66,419.02h6.939v-6.939h-6.939V419.02z M260.415,419.02
					l6.939,0.001v-6.939l-6.939-0.001V419.02z M288.17,412.083v6.939h6.939v-6.939H288.17z M274.292,419.021h6.939v-6.939h-6.939
					V419.021z"/>
			</g>
		</g>
	</g>
	<g>
		<g>
			<polygon class="st2" points="295.724,395.276 290.724,400.088 305.59,415.539 290.738,430.794 295.71,435.634 315.246,415.566 
							"/>
		</g>
	</g>
	<g>
		<g>
			<g>
				<path class="st2" d="M100.05,353.699c-1.573-0.36-3.194,0.413-3.898,1.868l-15.239,31.437H35.996
					c-1.917,0-3.469,1.553-3.469,3.469v81.758c0,1.917,1.553,3.469,3.469,3.469h63.259c1.915,0,3.469-1.553,3.469-3.469
					l0.018-115.151C102.742,355.464,101.625,354.061,100.05,353.699z M95.785,468.762h-56.32v-74.819h43.622
					c1.329,0,2.542-0.76,3.122-1.956l9.593-19.79L95.785,468.762z"/>
			</g>
		</g>
	</g>
	<g>
		<g>
			<polygon class="st1" points="47.56,402.039 47.56,460.666 87.692,460.666 87.701,402.039 			"/>
		</g>
	</g>
	<g>
		<g>
			<g>
				<path class="st2" d="M196.56,387.004H117.88l-15.495-31.457c-0.714-1.447-2.329-2.211-3.9-1.846
					c-1.571,0.366-2.682,1.765-2.682,3.379l-0.018,115.151c0,0.919,0.365,1.802,1.016,2.453c0.651,0.651,1.533,1.016,2.453,1.016
					h97.305c1.917,0,3.469-1.553,3.469-3.469v-81.758C200.029,388.557,198.476,387.004,196.56,387.004z M193.09,468.762h-90.366
					l0.016-96.792l9.87,20.036c0.584,1.186,1.791,1.937,3.113,1.937h77.368V468.762z"/>
			</g>
		</g>
	</g>
	<g>
		<g>
			<polygon class="st1" points="110.831,402.039 110.822,460.666 184.995,460.666 184.995,402.039 			"/>
		</g>
	</g>
	<g>
		<g>
			<g>
				<path class="st2" d="M33.761,353.611l-19.547,40.336h71.036l19.562-40.336H33.761z M80.904,387.009H25.286l12.823-26.459h55.626
					L80.904,387.009z"/>
			</g>
		</g>
	</g>
	<g>
		<g>
			<g>
				<path class="st2" d="M198.441,353.611H93.695l19.88,40.336H218.3L198.441,353.611z M104.851,360.55h89.272l13.026,26.459
					h-89.257L104.851,360.55z"/>
			</g>
		</g>
	</g>
	<g>
		<g>
			<g>
				<path class="st2" d="M424.557,314.75c-48.216,0-87.442,39.228-87.442,87.443c0,48.216,39.226,87.443,87.442,87.443
					S512,450.409,512,402.193C512,353.977,472.773,314.75,424.557,314.75z M424.557,482.697c-44.39,0-80.503-36.114-80.503-80.505
					c0-44.391,36.114-80.504,80.503-80.504c44.391,0,80.505,36.114,80.505,80.504C505.061,446.583,468.947,482.697,424.557,482.697z
					"/>
			</g>
		</g>
	</g>
	<g>
		<g>
			<g>
				<path class="st2" d="M375.29,434.078l-5.823,3.772c1.318,2.034,2.77,4.023,4.318,5.911l5.367-4.4
					C377.767,437.673,376.468,435.895,375.29,434.078z M368.813,383.82l-6.591-2.171c-0.76,2.308-1.398,4.689-1.896,7.075
					l6.792,1.418C367.564,388.01,368.135,385.883,368.813,383.82z M365.881,402.193c0-1.86,0.088-3.736,0.261-5.578l-6.907-0.65
					c-0.194,2.056-0.292,4.153-0.292,6.24l0.009,1.071l6.939-0.115L365.881,402.193z M374.271,371.939l-5.943-3.583
					c-1.258,2.086-2.41,4.265-3.425,6.474l6.306,2.896C372.116,375.752,373.146,373.805,374.271,371.939z M369.447,422.389
					l-6.514,2.387c0.838,2.287,1.814,4.549,2.903,6.723l6.205-3.103C371.069,426.453,370.196,424.432,369.447,422.389z
					 M366.355,409.69l-6.882,0.879c0.308,2.417,0.757,4.838,1.33,7.198l6.742-1.64C367.031,414.017,366.632,411.851,366.355,409.69z
					 M479.327,381.094l6.473-2.496c-0.876-2.272-1.889-4.519-3.012-6.675l-6.155,3.205
					C477.638,377.055,478.544,379.062,479.327,381.094z M473.292,369.503l5.76-3.869c-1.352-2.013-2.838-3.978-4.414-5.839
					l-5.295,4.486C470.754,365.947,472.083,367.703,473.292,369.503z M378.729,449.154c1.738,1.697,3.594,3.317,5.515,4.816
					l4.267-5.473c-1.719-1.34-3.378-2.789-4.932-4.307L378.729,449.154z M482.631,393.737l6.867-0.994
					c-0.349-2.415-0.837-4.829-1.45-7.175l-6.713,1.753C481.881,389.418,482.318,391.578,482.631,393.737z M469.602,354.482
					c-1.769-1.67-3.65-3.258-5.592-4.722l-4.176,5.541c1.737,1.31,3.421,2.732,5.004,4.228L469.602,354.482z M382.225,361.561
					l-5.005-4.804c-1.686,1.756-3.291,3.624-4.768,5.552l5.507,4.222C379.28,364.804,380.716,363.132,382.225,361.561z
					 M392.27,353.188l-3.826-5.789c-2.033,1.344-4.009,2.813-5.871,4.367l4.443,5.328
					C388.682,355.706,390.451,354.391,392.27,353.188z M403.909,347.25l-2.442-6.496c-2.276,0.856-4.529,1.851-6.699,2.959
					l3.156,6.18C399.862,348.904,401.876,348.014,403.909,347.25z M456.034,451.722l3.727,5.852c2.05-1.304,4.05-2.741,5.945-4.27
					l-4.355-5.401C459.656,449.27,457.867,450.555,456.034,451.722z M466.215,443.516l4.924,4.888
					c1.715-1.727,3.35-3.569,4.86-5.475l-5.437-4.309C469.211,440.323,467.748,441.971,466.215,443.516z M451.428,342.314
					l-2.846,6.329c1.982,0.891,3.938,1.905,5.814,3.014l3.533-5.972C455.831,344.445,453.643,343.31,451.428,342.314z
					 M474.339,433.27l5.882,3.679c1.29-2.06,2.478-4.218,3.532-6.415l-6.257-3.002C476.554,429.496,475.491,431.426,474.339,433.27z
					 M490.138,400.036l-6.934,0.219c0.02,0.644,0.03,1.29,0.03,1.938c0,2.188-0.121,4.388-0.359,6.54l6.896,0.764
					c0.267-2.405,0.402-4.862,0.402-7.304C490.173,401.472,490.16,400.752,490.138,400.036z M479.99,421.48l6.553,2.281
					c0.8-2.296,1.477-4.666,2.015-7.044l-6.767-1.531C481.309,417.312,480.704,419.429,479.99,421.48z M444.298,457.467l2.334,6.534
					c2.292-0.819,4.562-1.777,6.747-2.847l-3.053-6.232C448.374,455.881,446.345,456.737,444.298,457.467z M437.496,337.854
					l-1.362,6.803c2.133,0.427,4.266,0.98,6.338,1.643l2.114-6.609C442.268,338.949,439.882,338.332,437.496,337.854z
					 M408.455,338.568l1.699,6.729c2.107-0.533,4.27-0.951,6.425-1.243l-0.933-6.875
					C413.234,337.505,410.815,337.973,408.455,338.568z M424.557,460.87c-2.02,0-4.059-0.104-6.058-0.308l-0.707,6.903
					c2.233,0.228,4.508,0.344,6.742,0.344l0.558-0.001l-0.045-6.939L424.557,460.87z M390.26,458.144
					c2.079,1.276,4.247,2.446,6.445,3.477l2.948-6.281c-1.965-0.922-3.903-1.968-5.761-3.109L390.26,458.144z M403.5,464.355
					c2.306,0.781,4.681,1.44,7.061,1.957l1.473-6.781c-2.124-0.462-4.247-1.049-6.306-1.747L403.5,464.355z M431.577,460.454
					l0.822,6.889c2.424-0.289,4.85-0.716,7.21-1.271l-1.586-6.756C435.912,459.813,433.744,460.196,431.577,460.454z
					 M422.936,336.596l0.17,6.937c0.445-0.011,0.892-0.017,1.346-0.017c1.71-0.009,3.483,0.07,5.202,0.218l0.594-6.914
					c-1.882-0.161-3.796-0.243-5.683-0.243C424.018,336.589,423.478,336.583,422.936,336.596z"/>
			</g>
		</g>
	</g>
	<g>
		<g>
			<g>
				<path class="st2" d="M86.1,39.143c-7.848,0-15.097,3.659-19.768,9.882c-0.253-0.003-0.508-0.006-0.766-0.006
					C42.754,49.147,23.621,66.17,21.06,88.617c-0.541,4.743-0.39,9.376,0.446,13.814C10.663,106.664,3.427,113.86,0.987,122.93
					c-2.298,8.549-0.887,20.154,7.449,26.803c3.639,2.904,8.47,4.502,13.604,4.502h58.878c16.516,0,29.953-13.437,29.953-29.953
					V63.915C110.872,50.256,99.759,39.143,86.1,39.143z M103.934,124.282c0,12.69-10.325,23.014-23.014,23.014H22.041
					c-3.568,0-6.863-1.061-9.277-2.986c-5.882-4.692-6.787-13.214-5.075-19.577c2.732-10.161,13.041-14.864,18.944-16.762
					l3.142-1.01l-0.853-3.189c-1.213-4.532-1.538-9.366-0.969-14.369c2.164-18.959,18.35-33.338,37.631-33.445
					c0.79,0,1.56,0.021,2.328,0.064l2.037,0.114l1.089-1.724c3.295-5.217,8.925-8.33,15.061-8.33
					c9.833,0,17.834,7.999,17.834,17.833V124.282z"/>
			</g>
		</g>
	</g>
	<g>
		<g>
			<path class="st1" d="M86.101,54.177c-3.343,0-6.416,1.703-8.218,4.557l-3.631,5.749l-6.789-0.378
				c-0.62-0.034-1.24-0.051-1.814-0.051c-14.956,0.082-27.981,11.621-29.653,26.266c-0.454,3.991-0.203,7.813,0.747,11.358
				l2.846,10.632l-10.477,3.369c-4.336,1.395-11.869,4.698-13.605,11.156c-1.023,3.809-0.56,8.861,2.306,11.148
				c0.97,0.775,2.512,1.219,4.229,1.219h58.877c8.226,0,14.919-6.693,14.919-14.918V63.915
				C95.838,58.546,91.47,54.177,86.101,54.177z"/>
		</g>
	</g>
	<g>
		<g>
			<path class="st2" d="M36.812,99.557c-4.148,0-8.263,0.601-12.234,1.787l1.985,6.65c3.326-0.994,6.774-1.498,10.249-1.498
				c19.678,0,35.688,16.02,35.688,35.712h6.939C79.439,118.69,60.316,99.557,36.812,99.557z"/>
		</g>
	</g>
	<g>
		<g>
			<path class="st2" d="M87.124,94.973c0,11.071-9.008,20.079-20.08,20.079v6.939c14.899,0,27.019-12.12,27.019-27.018H87.124z"/>
		</g>
	</g>
	<g>
		<g>
			<path class="st2" d="M66.633,68.111l-6.939-0.013c-0.022,11.635,9.426,21.119,21.06,21.142l0.014-6.939
				C72.96,82.284,66.618,75.919,66.633,68.111z"/>
		</g>
	</g>
	<g>
		<g>
			<g>
				<path class="st2" d="M231.345,122.93c-2.441-9.07-9.676-16.266-20.52-20.498c0.836-4.439,0.987-9.071,0.446-13.816
					c-2.561-22.447-21.694-39.47-44.524-39.598c-0.251,0-0.499,0.002-0.746,0.006c-4.672-6.224-11.922-9.882-19.77-9.882
					c-13.659,0-24.771,11.113-24.771,24.771v60.368c0,16.516,13.437,29.953,29.953,29.953h58.877c5.135,0,9.967-1.598,13.605-4.502
					C232.231,143.085,233.643,131.481,231.345,122.93z M219.568,144.31c-2.414,1.926-5.709,2.986-9.278,2.986h-58.877
					c-12.69,0-23.014-10.325-23.014-23.014V63.915c0-9.833,7.999-17.833,17.833-17.833c6.136,0,11.766,3.114,15.062,8.33l1.09,1.724
					l2.036-0.114c0.768-0.043,1.537-0.064,2.308-0.064c19.301,0.107,35.486,14.486,37.65,33.445
					c0.57,5.005,0.244,9.839-0.968,14.368l-0.855,3.189l3.143,1.011c5.903,1.899,16.212,6.601,18.945,16.761
					C226.354,131.097,225.449,139.619,219.568,144.31z"/>
			</g>
		</g>
	</g>
	<g>
		<g>
			<path class="st1" d="M216.826,126.834c-1.737-6.458-9.27-9.761-13.605-11.156l-10.477-3.369l2.846-10.632
				c0.95-3.545,1.201-7.367,0.747-11.358c-1.672-14.645-14.696-26.183-29.653-26.266c-0.574,0-1.194,0.017-1.814,0.051l-6.789,0.378
				l-3.631-5.749c-1.802-2.854-4.875-4.557-8.218-4.557c-5.369,0-9.737,4.368-9.737,9.738v60.368
				c0,8.225,6.693,14.918,14.919,14.918h58.877c1.718,0,3.259-0.444,4.229-1.219C217.386,135.695,217.849,130.643,216.826,126.834z"
				/>
		</g>
	</g>
	<g>
		<g>
			<path class="st2" d="M195.521,99.557c-23.505,0-42.628,19.133-42.628,42.65h6.939c0-19.691,16.01-35.712,35.689-35.712
				c3.474,0,6.922,0.504,10.248,1.498l1.985-6.65C203.783,100.158,199.668,99.557,195.521,99.557z"/>
		</g>
	</g>
	<g>
		<g>
			<path class="st2" d="M145.208,94.973h-6.939c0,14.897,12.12,27.018,27.018,27.018v-6.939
				C154.216,115.052,145.208,106.044,145.208,94.973z"/>
		</g>
	</g>
	<g>
		<g>
			<path class="st2" d="M165.7,68.11c0.014,7.81-6.328,14.175-14.136,14.191l0.014,6.939c11.633-0.023,21.082-9.507,21.061-21.141
				L165.7,68.11z"/>
		</g>
	</g>
	<g>
		<g>
			<g>
				<path class="st2" d="M446.339,41.29h-79.074v155.707h114.583V78.099L446.339,41.29z M474.909,190.057H374.204V48.229h69.187
					L474.909,80.9V190.057z"/>
			</g>
		</g>
	</g>
	<g>
		<g>
			<g>
				<path class="st2" d="M480.882,77.08L447.36,42.355c-0.981-1.017-2.483-1.337-3.796-0.807c-1.311,0.53-2.17,1.802-2.17,3.217
					v34.724c0,1.917,1.553,3.469,3.469,3.469h33.522c1.392,0,2.649-0.832,3.194-2.113C482.123,79.564,481.848,78.081,480.882,77.08z
					 M448.333,76.02V53.354l21.881,22.667H448.333z"/>
			</g>
		</g>
	</g>
	<g>
		<g>
			<polygon class="st4" points="350.875,25.833 350.875,175.099 370.734,175.099 370.734,44.765 444.864,44.765 461.625,62.127 
				461.625,25.833 			"/>
		</g>
	</g>
	<g>
		<g>
			<g>
				<path class="st2" d="M347.405,22.364v156.205h26.797V48.234h69.188l21.703,22.482V22.364H347.405z M458.155,53.539
					l-11.819-12.243h-79.072V171.63h-12.92V29.303h103.811V53.539z"/>
			</g>
		</g>
	</g>
	<g>
		<g>
			<g>
				<path class="st2" d="M419.072,234.815h6.939v-6.939h-6.939V234.815z M419.072,248.693h6.939v-6.939h-6.939V248.693z
					 M419.072,213.999v6.939h6.939v-6.939H419.072z"/>
			</g>
		</g>
	</g>
	<g>
		<g>
			<g>
				<path class="st2" d="M224.65,262.401h6.939v-6.939h-6.939V262.401z M210.773,262.401h6.939v-6.939h-6.939V262.401z
					 M196.895,262.401h6.939v-6.939h-6.939V262.401z M238.528,262.401h6.939v-6.939h-6.939V262.401z M266.283,262.401h6.939v-6.939
					h-6.939V262.401z M252.405,262.401h6.939v-6.939h-6.939V262.401z M127.507,262.401h6.939v-6.939h-6.939V262.401z
					 M141.384,262.401h6.939v-6.939h-6.939V262.401z M155.262,262.401h6.939v-6.939h-6.939V262.401z M169.14,262.401h6.939v-6.939
					h-6.939V262.401z M183.017,262.401h6.939v-6.939h-6.939V262.401z M391.182,262.401h6.939v-6.939h-6.939V262.401z
					 M363.426,262.401h6.939v-6.939h-6.939V262.401z M349.549,262.401h6.939v-6.939h-6.939V262.401z M377.304,262.401h6.939v-6.939
					h-6.939V262.401z M418.937,255.462v6.939h6.939v-6.939H418.937z M405.059,262.401h6.939v-6.939h-6.939V262.401z
					 M280.161,262.401h6.939v-6.939h-6.939V262.401z M307.916,262.401h6.939v-6.939h-6.939V262.401z M294.038,262.401h6.939v-6.939
					h-6.939V262.401z M321.794,262.401h6.939v-6.939h-6.939V262.401z M335.671,262.401h6.939v-6.939h-6.939V262.401z"/>
			</g>
		</g>
	</g>
</g>
</svg>
