<?xml version="1.0" encoding="utf-8"?>
<!-- Generator: Adobe Illustrator 18.0.0, SVG Export Plug-In . SVG Version: 6.00 Build 0)  -->
<!DOCTYPE svg PUBLIC "-//W3C//DTD SVG 1.1//EN" "http://www.w3.org/Graphics/SVG/1.1/DTD/svg11.dtd">
<svg version="1.1" id="Layer_1" xmlns="http://www.w3.org/2000/svg" xmlns:xlink="http://www.w3.org/1999/xlink" x="0px" y="0px"
	 viewBox="0 0 512 512" style="enable-background:new 0 0 512 512;" xml:space="preserve">
<style type="text/css">
	.st0{fill:#FFD452;}
	.st1{fill:#F58E6F;}
	.st2{fill:#4A555F;}
	.st3{fill:none;}
	.st4{fill:#DFDFDF;}
	.st5{fill:#71CCE0;}
	.st6{fill:#FFFFFF;}
</style>
<g>
	<g>
		<g>
			<g>
				<path class="st2" d="M473.841,246.146c-0.859-1.22-1.725-2.43-2.595-3.628c-52.342-72.132-133.419-113.502-222.437-113.502
					S78.716,170.386,26.376,242.515c-0.873,1.199-1.736,2.41-2.597,3.632l-1.476,2.097l1.476,2.097
					c0.859,1.222,1.724,2.431,2.595,3.628c52.343,72.131,133.416,113.5,222.435,113.5s170.095-41.369,222.44-113.502
					c0.868-1.199,1.734-2.406,2.593-3.627l1.475-2.097L473.841,246.146z M465.349,249.689
					c-50.957,70.219-129.882,110.493-216.54,110.493c-86.656,0-165.581-40.273-216.537-110.495
					c-0.349-0.479-0.698-0.961-1.044-1.443c0.346-0.484,0.695-0.966,1.044-1.446c50.957-70.22,129.882-110.494,216.537-110.494
					c86.658,0,165.583,40.274,216.54,110.494c0.349,0.48,0.695,0.962,1.041,1.446C466.044,248.728,465.695,249.209,465.349,249.689z
					"/>
			</g>
		</g>
	</g>
	<g>
		<g>
			<g>
				<path class="st2" d="M51.806,222.812l-5.375-4.92c-1.656,1.81-3.295,3.649-4.913,5.517l5.508,4.772
					C48.601,226.364,50.193,224.574,51.806,222.812z M61.356,212.897l-2.121-2.154l2.458-2.754l-3.067-2.633l-2.384,2.349
					c-1.601,1.579-3.186,3.18-4.756,4.806l5.247,5.06C58.256,215.989,59.798,214.431,61.356,212.897z M42.393,233.675l-5.636-4.621
					c-1.554,1.896-3.091,3.816-4.609,5.763l5.75,4.479C39.378,237.396,40.877,235.523,42.393,233.675z M70.115,236.201l7.135-1.478
					c-0.531-2.566-1.276-5.106-2.213-7.551l-6.803,2.607C69.028,231.859,69.661,234.02,70.115,236.201z M65.337,223.747l6.296-3.667
					c-1.317-2.259-2.828-4.431-4.493-6.455l-5.627,4.631C62.932,219.978,64.217,221.826,65.337,223.747z M32.089,247.027
					l1.461-2.001l-5.864-4.325l-1.528,2.091c-0.795,1.113-1.589,2.227-2.384,3.364l-1.461,2.091l1.855,2.645l3.174-2.242
					l2.405,1.681C30.528,249.216,31.308,248.12,32.089,247.027z M58.204,274.639l5.043,5.262c1.886-1.809,3.641-3.789,5.221-5.885
					l-5.821-4.384C61.302,271.416,59.807,273.102,58.204,274.639z M34.337,252.522l-5.845,4.351c1.473,1.981,2.97,3.936,4.488,5.864
					l5.727-4.507C37.231,256.353,35.773,254.45,34.337,252.522z M78.213,242.528l-7.282,0.318c0.026,0.599,0.04,1.2,0.04,1.803
					c0,2.244-0.178,4.49-0.531,6.674l7.193,1.162c0.415-2.568,0.626-5.205,0.626-7.837
					C78.258,243.939,78.244,243.231,78.213,242.528z M66.227,263.974l6.448,3.394c1.219-2.315,2.258-4.752,3.086-7.242l-6.913-2.304
					C68.143,259.938,67.261,262.008,66.227,263.974z M52.693,274.644l-5.352,4.946c1.582,1.712,3.176,3.396,4.787,5.054l2.123,2.186
					l2.899-1.957l-2.104-3.062l2.311-2.244C55.789,277.952,54.233,276.31,52.693,274.644z M43.223,263.822l-5.608,4.656
					c1.58,1.9,3.174,3.773,4.789,5.619l5.484-4.799C46.317,267.5,44.761,265.674,43.223,263.822z"/>
			</g>
		</g>
	</g>
	<g>
		<g>
			<g>
				<path class="st2" d="M248.809,155.457c-51.163,0-92.785,41.624-92.785,92.787c0,51.163,41.622,92.787,92.785,92.787
					s92.788-41.624,92.788-92.787C341.597,197.08,299.972,155.457,248.809,155.457z M248.809,333.743
					c-47.145,0-85.498-38.354-85.498-85.499c0-47.145,38.353-85.5,85.498-85.5s85.501,38.355,85.501,85.5
					C334.309,295.388,295.953,333.743,248.809,333.743z"/>
			</g>
		</g>
	</g>
	<g>
		<g>
			<path class="st5" d="M299.671,262.041c-7.239,0-14.016-1.943-19.846-5.344c-3.717,13.676-16.226,23.732-31.068,23.732
				c-17.781,0-32.186-14.405-32.186-32.186c0-17.781,14.405-32.186,32.186-32.186c4.13,0,8.065,0.778,11.684,2.186
				c1.846-16.955,14.429-30.68,30.825-34.226c-12.194-8.089-26.793-12.777-42.461-12.777c-42.461,0-77.003,34.542-77.003,77.003
				s34.542,77.003,77.003,77.003c41.125,0,74.841-32.429,76.906-73.043C318.788,258.324,309.655,262.041,299.671,262.041z"/>
		</g>
	</g>
	<g>
		<g>
			<polygon class="st2" points="119.795,34.644 233.947,196.614 239.906,192.416 123.576,27.357 0,27.357 0,144.098 123.55,144.098 
				123.55,52.153 116.263,52.153 116.263,136.81 7.287,136.81 7.287,34.644 			"/>
		</g>
	</g>
	<g>
		<g>
			<rect x="21.051" y="48.509" class="st2" width="21.331" height="7.288"/>
		</g>
	</g>
	<g>
		<g>
			<rect x="54.527" y="48.509" class="st2" width="50.039" height="7.288"/>
		</g>
	</g>
	<g>
		<g>
			<rect x="21.051" y="70.743" class="st2" width="21.331" height="7.287"/>
		</g>
	</g>
	<g>
		<g>
			<rect x="54.527" y="70.743" class="st2" width="50.039" height="7.287"/>
		</g>
	</g>
	<g>
		<g>
			<rect x="21.051" y="92.976" class="st2" width="21.331" height="7.287"/>
		</g>
	</g>
	<g>
		<g>
			<rect x="54.527" y="92.976" class="st2" width="50.039" height="7.287"/>
		</g>
	</g>
	<g>
		<g>
			<rect x="21.051" y="115.209" class="st2" width="21.331" height="7.287"/>
		</g>
	</g>
	<g>
		<g>
			<rect x="54.527" y="115.209" class="st2" width="50.039" height="7.287"/>
		</g>
	</g>
	<g>
		<g>
			<polygon class="st2" points="385.823,368.087 385.823,459.275 393.111,459.275 393.111,375.375 504.713,375.375 504.713,477.356 
				389.615,477.356 288.823,345.395 283.03,349.819 386.009,484.643 512,484.643 512,368.087 			"/>
		</g>
	</g>
	<g>
		<g>
			<g>
				<path class="st2" d="M406.075,430.572v25.654h29.432v-25.654H406.075z M428.219,448.938h-14.857v-11.079h14.857V448.938z"/>
			</g>
		</g>
	</g>
	<g>
		<g>
			<g>
				<path class="st2" d="M440.953,430.572v25.654h50.815v-25.654H440.953z M484.48,448.938h-36.24v-11.079h36.24V448.938z"/>
			</g>
		</g>
	</g>
	<g>
		<g>
			<g>
				<path class="st2" d="M406.075,390.94v25.654h29.432V390.94H406.075z M428.219,409.307h-14.857v-11.08h14.857V409.307z"/>
			</g>
		</g>
	</g>
	<g>
		<g>
			<g>
				<path class="st2" d="M440.953,390.94v25.654h50.815V390.94H440.953z M484.48,409.307h-36.24v-11.08h36.24V409.307z"/>
			</g>
		</g>
	</g>
	<g>
		<g>
			<g>
				<path class="st2" d="M51.806,222.812l-5.375-4.92c-1.656,1.81-3.295,3.649-4.913,5.517l5.508,4.772
					C48.601,226.364,50.193,224.574,51.806,222.812z M42.393,233.675l-5.636-4.621c-1.554,1.896-3.091,3.816-4.609,5.763l5.75,4.479
					C39.378,237.396,40.877,235.523,42.393,233.675z M32.089,247.027l1.461-2.001l-5.864-4.325l-1.528,2.091
					c-0.795,1.113-1.589,2.227-2.384,3.364l-1.461,2.091l1.855,2.645l3.174-2.242l2.405,1.681
					C30.528,249.216,31.308,248.12,32.089,247.027z M61.356,212.897l-2.121-2.154l2.458-2.754l-3.067-2.633l-2.384,2.349
					c-1.601,1.579-3.186,3.18-4.756,4.806l5.247,5.06C58.256,215.989,59.798,214.431,61.356,212.897z M70.115,236.201l7.135-1.478
					c-0.531-2.566-1.276-5.106-2.213-7.551l-6.803,2.607C69.028,231.859,69.661,234.02,70.115,236.201z M65.337,223.747l6.296-3.667
					c-1.317-2.259-2.828-4.431-4.493-6.455l-5.627,4.631C62.932,219.978,64.217,221.826,65.337,223.747z M58.204,274.639
					l5.043,5.262c1.886-1.809,3.641-3.789,5.221-5.885l-5.821-4.384C61.302,271.416,59.807,273.102,58.204,274.639z M66.227,263.974
					l6.448,3.394c1.219-2.315,2.258-4.752,3.086-7.242l-6.913-2.304C68.143,259.938,67.261,262.008,66.227,263.974z M78.213,242.528
					l-7.282,0.318c0.026,0.599,0.04,1.2,0.04,1.803c0,2.244-0.178,4.49-0.531,6.674l7.193,1.162
					c0.415-2.568,0.626-5.205,0.626-7.837C78.258,243.939,78.244,243.231,78.213,242.528z M34.337,252.522l-5.845,4.351
					c1.473,1.981,2.97,3.936,4.488,5.864l5.727-4.507C37.231,256.353,35.773,254.45,34.337,252.522z M52.693,274.644l-5.352,4.946
					c1.582,1.712,3.176,3.396,4.787,5.054l2.123,2.186l2.899-1.957l-2.104-3.062l2.311-2.244
					C55.789,277.952,54.233,276.31,52.693,274.644z M43.223,263.822l-5.608,4.656c1.58,1.9,3.174,3.773,4.789,5.619l5.484-4.799
					C46.317,267.5,44.761,265.674,43.223,263.822z"/>
			</g>
		</g>
	</g>
	<g>
		<g>
			<g>
				<path class="st2" d="M436.107,218.254l-5.627-4.631c-1.666,2.023-3.176,4.195-4.493,6.455l6.296,3.667
					C433.402,221.824,434.688,219.977,436.107,218.254z M436.261,212.894c1.556,1.537,3.098,3.095,4.623,4.678l5.247-5.06
					c-1.568-1.625-3.153-3.226-4.751-4.803l-2.384-2.354l-3.058,2.624l2.446,2.765L436.261,212.894z M429.389,229.78l-6.803-2.607
					c-0.939,2.45-1.684,4.991-2.211,7.554l7.135,1.471C427.961,234.021,428.592,231.862,429.389,229.78z M450.591,228.182
					l5.508-4.773c-1.618-1.867-3.257-3.707-4.913-5.516l-5.375,4.92C447.424,224.575,449.016,226.365,450.591,228.182z
					 M459.724,239.296l5.75-4.479c-1.518-1.948-3.055-3.868-4.609-5.763l-5.636,4.621
					C456.745,235.523,458.244,237.396,459.724,239.296z M426.651,244.648c0-0.604,0.014-1.205,0.04-1.804l-7.282-0.318
					c-0.031,0.703-0.045,1.411-0.045,2.122c0,2.632,0.211,5.269,0.626,7.837l7.193-1.162
					C426.829,249.138,426.651,246.893,426.651,244.648z M428.774,257.822l-6.913,2.304c0.828,2.485,1.865,4.921,3.082,7.24
					l6.452-3.39C430.359,262.006,429.479,259.936,428.774,257.822z M458.915,258.228l5.727,4.507
					c1.518-1.928,3.012-3.882,4.488-5.864l-5.845-4.353C461.847,254.448,460.391,256.352,458.915,258.228z M473.846,246.151
					c-0.859-1.224-1.715-2.425-2.588-3.644l-1.314-1.797l-5.878,4.305l1.281,1.753c0.845,1.18,1.687,2.361,2.531,3.566l2.403-1.684
					l3.174,2.24l1.857-2.648L473.846,246.151z M449.73,269.297l5.484,4.799c1.615-1.846,3.21-3.719,4.79-5.619l-5.608-4.656
					C452.859,265.673,451.303,267.499,449.73,269.297z M440.263,279.568l2.313,2.245l-2.104,3.06l2.892,1.962l2.128-2.193
					c1.611-1.659,3.207-3.344,4.787-5.054l-5.352-4.946C443.385,276.31,441.831,277.952,440.263,279.568z M434.975,269.631
					l-5.821,4.384c1.575,2.093,3.331,4.073,5.217,5.883l5.048-5.257C437.812,273.101,436.318,271.415,434.975,269.631z"/>
			</g>
		</g>
	</g>
	<g>
		<g>
			<polygon class="st2" points="361.786,43.437 292.096,134.361 297.88,138.795 365.383,50.724 435.675,50.724 435.675,43.437 			
				"/>
		</g>
	</g>
	<g>
		<g>
			<g>
				<path class="st2" d="M435.675,43.68c-33.341,0-60.465,27.125-60.465,60.466s27.124,60.466,60.465,60.466
					s60.467-27.125,60.467-60.466S469.016,43.68,435.675,43.68z M435.675,157.324c-29.323,0-53.177-23.856-53.177-53.178
					s23.855-53.178,53.177-53.178s53.179,23.856,53.179,53.178S464.998,157.324,435.675,157.324z"/>
			</g>
		</g>
	</g>
	<g>
		<g>
			<circle class="st0" cx="435.676" cy="104.145" r="39.382"/>
		</g>
	</g>
	<g>
		<g>
			<g>
				<path class="st2" d="M409.211,128.16l-5.394,4.901c1.784,1.963,3.755,3.768,5.859,5.366l4.408-5.802
					C412.335,131.295,410.694,129.793,409.211,128.16z M409.351,79.976l-5.366-4.929c-1.796,1.955-3.414,4.082-4.816,6.321
					l6.182,3.862C406.514,83.369,407.859,81.601,409.351,79.976z M402.381,91.129l-6.784-2.662
					c-0.965,2.465-1.706,5.037-2.197,7.648l7.159,1.35C400.968,95.301,401.582,93.169,402.381,91.129z M470.85,97.771l7.174-1.293
					c-0.472-2.609-1.188-5.187-2.133-7.661l-6.808,2.598C469.865,93.467,470.461,95.607,470.85,97.771z M402.308,116.973
					l-6.803,2.614c0.951,2.473,2.14,4.87,3.532,7.126l6.201-3.831C404.082,121.012,403.095,119.024,402.308,116.973z M447.64,62.808
					c-2.541-0.734-5.169-1.235-7.807-1.489l-0.697,7.254c2.192,0.211,4.374,0.626,6.483,1.235L447.64,62.808z M472.38,81.686
					c-1.38-2.252-2.982-4.393-4.761-6.363l-5.409,4.884c1.478,1.637,2.809,3.415,3.954,5.286L472.38,81.686z M461.771,69.938
					c-2.109-1.612-4.374-3.033-6.732-4.222l-3.283,6.504c1.957,0.989,3.838,2.169,5.594,3.509L461.771,69.938z M399.938,104.031
					l-7.287,0.117c0.002,2.618,0.24,5.237,0.704,7.783l7.169-1.31C400.137,108.504,399.94,106.324,399.938,104.031z
					 M457.188,132.686l4.389,5.816c2.114-1.594,4.089-3.394,5.876-5.349l-5.38-4.915
					C460.588,129.865,458.944,131.36,457.188,132.686z M416.645,65.55c-2.37,1.17-4.647,2.57-6.77,4.162l4.374,5.831
					c1.765-1.323,3.655-2.487,5.622-3.46L416.645,65.55z M471.414,104.145c0,2.216-0.204,4.428-0.605,6.574l7.164,1.338
					c0.484-2.587,0.728-5.248,0.728-7.912H471.414z M445.42,138.54l1.978,7.012c2.552-0.72,5.048-1.684,7.42-2.866l-3.245-6.523
					C449.604,137.143,447.533,137.942,445.42,138.54z M466.058,122.976l6.191,3.843c1.4-2.255,2.595-4.648,3.551-7.114l-6.794-2.636
					C468.212,119.115,467.22,121.103,466.058,122.976z M416.417,142.633c2.377,1.188,4.87,2.16,7.413,2.887l2.002-7.008
					c-2.111-0.603-4.18-1.409-6.151-2.396L416.417,142.633z M431.891,61.285c-2.642,0.229-5.276,0.707-7.823,1.418l1.964,7.019
					c2.114-0.592,4.296-0.988,6.49-1.179L431.891,61.285z M432.318,139.728l-0.673,7.256c1.335,0.124,2.692,0.187,4.03,0.187
					c1.305,0,2.619-0.059,3.912-0.177l-0.659-7.256C436.771,139.932,434.524,139.933,432.318,139.728z"/>
			</g>
		</g>
	</g>
	<g>
		<g>
			<polygon class="st2" points="146.031,163.743 146.031,190.661 153.319,190.661 153.319,171.03 172.792,171.03 172.792,163.743 
							"/>
		</g>
	</g>
	<g>
		<g>
			<polygon class="st2" points="153.319,321.602 153.319,301.971 146.031,301.971 146.031,328.889 172.792,328.889 172.792,321.602 
							"/>
		</g>
	</g>
	<g>
		<g>
			<polygon class="st2" points="324.664,163.743 324.664,171.03 344.137,171.03 344.137,190.661 351.425,190.661 351.425,163.743 
							"/>
		</g>
	</g>
	<g>
		<g>
			<polygon class="st2" points="344.137,301.971 344.137,321.602 324.664,321.602 324.664,328.889 351.425,328.889 351.425,301.971 
							"/>
		</g>
	</g>
	<g>
		<g>
			<g>
				<path class="st2" d="M248.809,211.573c-20.22,0-36.669,16.45-36.669,36.67c0,20.219,16.449,36.669,36.669,36.669
					s36.672-16.45,36.672-36.669C285.48,228.023,269.029,211.573,248.809,211.573z M248.809,277.625
					c-16.202,0-29.382-13.181-29.382-29.382c0-16.202,13.18-29.383,29.382-29.383c16.202,0,29.384,13.181,29.384,29.383
					C278.193,264.444,265.011,277.625,248.809,277.625z"/>
			</g>
		</g>
	</g>
	<g>
		<g>
			<path class="st1" d="M248.809,227.363c-11.512,0-20.88,9.368-20.88,20.881c0,11.513,9.368,20.88,20.88,20.88
				c11.512,0,20.88-9.367,20.88-20.88C269.689,236.73,260.321,227.363,248.809,227.363z"/>
		</g>
	</g>
	<g>
		<g>
			<polygon class="st2" points="453.573,87.337 427.764,113.147 416.923,101.646 411.619,106.645 427.607,123.605 458.725,92.49 			
				"/>
		</g>
	</g>
	<g>
		<g>
			<g>
				<path class="st2" d="M60.467,326.523C27.126,326.523,0,353.648,0,386.989c0,33.341,27.126,60.467,60.467,60.467
					s60.467-27.126,60.467-60.467C120.934,353.648,93.808,326.523,60.467,326.523z M60.467,440.168
					c-29.323,0-53.18-23.856-53.18-53.179c0-29.323,23.857-53.178,53.18-53.178s53.18,23.856,53.18,53.178
					C113.647,416.312,89.79,440.168,60.467,440.168z"/>
			</g>
		</g>
	</g>
	<g>
		<g>
			<circle class="st1" cx="60.467" cy="386.99" r="39.382"/>
		</g>
	</g>
	<g>
		<g>
			<g>
				<path class="st2" d="M27.171,373.976l-6.784-2.662c-0.966,2.465-1.706,5.037-2.197,7.648l7.159,1.35
					C25.757,378.148,26.371,376.017,27.171,373.976z M34.138,362.822l-5.366-4.929c-1.796,1.956-3.416,4.083-4.816,6.323
					l6.182,3.859C31.301,366.216,32.646,364.447,34.138,362.822z M24.728,386.879l-7.287,0.11c0,2.623,0.237,5.245,0.704,7.794
					l7.169-1.314C24.924,391.352,24.728,389.171,24.728,386.879z M27.1,399.82l-6.803,2.614c0.951,2.473,2.14,4.87,3.532,7.126
					l6.201-3.831C28.874,403.859,27.887,401.871,27.1,399.82z M72.427,345.649c-2.538-0.734-5.167-1.235-7.812-1.487l-0.693,7.254
					c2.194,0.21,4.374,0.625,6.479,1.234L72.427,345.649z M86.566,352.779c-2.104-1.608-4.37-3.028-6.734-4.221l-3.283,6.505
					c1.962,0.991,3.845,2.172,5.591,3.507L86.566,352.779z M95.639,380.609l7.173-1.293c-0.472-2.609-1.188-5.187-2.132-7.661
					l-6.808,2.597C94.655,376.305,95.25,378.444,95.639,380.609z M97.172,364.524c-1.38-2.252-2.982-4.393-4.761-6.363l-5.409,4.884
					c1.478,1.637,2.809,3.415,3.954,5.287L97.172,364.524z M34,411.006l-5.39,4.903c1.784,1.962,3.755,3.767,5.857,5.364
					l4.408-5.802C37.127,414.142,35.488,412.639,34,411.006z M70.212,421.384l1.978,7.012c2.552-0.72,5.048-1.684,7.423-2.866
					l-3.25-6.524C74.396,419.987,72.325,420.787,70.212,421.384z M90.85,405.819l6.191,3.843c1.4-2.255,2.595-4.648,3.551-7.114
					l-6.794-2.635C93.004,401.959,92.012,403.946,90.85,405.819z M81.98,415.531l4.389,5.816c2.114-1.594,4.09-3.395,5.876-5.349
					l-5.38-4.915C85.38,412.709,83.736,414.205,81.98,415.531z M96.206,386.989c0,2.216-0.204,4.427-0.605,6.574l7.164,1.338
					c0.484-2.587,0.728-5.249,0.728-7.912H96.206z M41.212,425.478c2.377,1.188,4.87,2.16,7.413,2.887l2.002-7.008
					c-2.111-0.603-4.18-1.409-6.151-2.396L41.212,425.478z M41.43,348.394c-2.372,1.171-4.649,2.572-6.77,4.164l4.374,5.829
					c1.763-1.324,3.656-2.488,5.622-3.46L41.43,348.394z M56.676,344.128c-2.643,0.231-5.275,0.709-7.821,1.42l1.964,7.019
					c2.111-0.591,4.296-0.988,6.492-1.18L56.676,344.128z M60.502,422.728c-1.177-0.045-2.268-0.051-3.39-0.156l-0.674,7.257
					c1.347,0.125,2.761,0.222,4.066,0.186c1.288,0,2.593-0.06,3.876-0.176l-0.66-7.257
					C62.659,422.679,61.575,422.728,60.502,422.728z"/>
			</g>
		</g>
	</g>
	<g>
		<g>
			
				<rect x="36.986" y="384.692" transform="matrix(0.7071 -0.7071 0.7071 0.7071 -256.8919 156.508)" class="st2" width="46.962" height="7.287"/>
		</g>
	</g>
	<g>
		<g>
			
				<rect x="56.824" y="364.855" transform="matrix(0.7071 -0.7071 0.7071 0.7071 -256.8815 156.4937)" class="st2" width="7.287" height="46.962"/>
		</g>
	</g>
	<g>
		<g>
			<polygon class="st2" points="213.432,332.891 142.385,440.168 58.481,440.168 58.481,447.456 146.3,447.456 219.51,336.915 			
				"/>
		</g>
	</g>
</g>
</svg>
