<?xml version="1.0" encoding="utf-8"?>
<!-- Generator: Adobe Illustrator 18.0.0, SVG Export Plug-In . SVG Version: 6.00 Build 0)  -->
<!DOCTYPE svg PUBLIC "-//W3C//DTD SVG 1.1//EN" "http://www.w3.org/Graphics/SVG/1.1/DTD/svg11.dtd">
<svg version="1.1" id="Layer_1" xmlns="http://www.w3.org/2000/svg" xmlns:xlink="http://www.w3.org/1999/xlink" x="0px" y="0px"
	 viewBox="0 0 512 512" style="enable-background:new 0 0 512 512;" xml:space="preserve">
<style type="text/css">
	.st0{fill:#DFDFDE;}
	.st1{fill:#4B555F;}
	.st2{fill:#FFFFFF;}
	.st3{fill:#F58E70;}
	.st4{fill:#FFD351;}
	.st5{fill:#71CBDF;}
</style>
<g>
	<g>
		<path class="st3" d="M177.521,183.359c0-6.573,11.204-14.902,16.657-19.57c-0.971-2.764-2.166-5.416-3.511-7.955
			c-7.133,0.486-20.728,2.801-25.284-1.793c-4.444-4.407-2.315-17.927-1.98-24.836c-2.726-1.345-5.565-2.503-8.515-3.473
			c-4.631,5.079-12.511,16.208-18.786,16.208c-6.274,0-14.192-11.129-18.823-16.208c-2.95,0.97-5.789,2.128-8.515,3.473
			c0.336,6.909,2.502,20.429-1.942,24.873c-4.557,4.556-18.188,2.278-25.284,1.755c-1.345,2.539-2.54,5.192-3.511,7.955
			c5.453,4.668,16.694,12.997,16.694,19.57c0,6.759-11.503,15.087-17.367,19.756c0.822,2.615,1.83,5.117,2.988,7.544
			c7.47-0.895,21.662-2.876,26.48,1.979c4.967,4.968,2.801,19.272,1.718,26.928c2.278,1.157,4.668,2.165,7.133,3.024
			c4.631-6.237,13.408-17.852,20.429-17.852c7.059,0,15.798,11.615,20.429,17.852c2.465-0.859,4.855-1.867,7.134-3.024
			c-1.121-7.656-3.25-21.961,1.718-26.928c4.818-4.855,18.972-2.875,26.479-1.979c1.157-2.427,2.166-4.929,2.987-7.544
			C188.987,198.447,177.521,190.118,177.521,183.359z M136.103,202.033c-10.382,0-18.823-8.441-18.823-18.823
			c0-10.42,8.441-18.823,18.823-18.823c10.42,0,18.823,8.403,18.823,18.823C154.926,193.592,146.523,202.033,136.103,202.033z"/>
	</g>
	<g>
		<path class="st1" d="M117.142,247.343l-2.772-0.966c-2.662-0.928-5.229-2.018-7.628-3.236l-2.545-1.294l0.476-3.355
			c0.762-5.36,2.782-19.596-0.663-23.042c-0.59-0.589-2.683-1.959-9.373-1.959c-4.376,0-9.186,0.585-12.698,1.014l-3.955,0.476
			l-1.235-2.588c-1.297-2.725-2.343-5.362-3.19-8.065l-0.822-2.614l3.913-3.103c4.215-3.303,14.079-11.042,14.079-15.267
			c0-3.812-8.674-11.004-12.844-14.46c-0.889-0.737-1.716-1.423-2.441-2.046l-2.075-1.777l0.905-2.578
			c0.98-2.792,2.241-5.654,3.747-8.502l1.222-2.307l2.603,0.192c1.147,0.085,2.46,0.214,3.877,0.354
			c3.182,0.313,6.791,0.669,10.137,0.669c5.894,0,7.662-1.134,8.151-1.622c2.33-2.348,1.498-12.55,1.095-17.454
			c-0.133-1.622-0.252-3.12-0.315-4.398l-0.127-2.616l2.348-1.158c2.87-1.417,5.907-2.658,9.032-3.688l2.46-0.81l1.742,1.914
			c0.913,0.998,1.945,2.223,3.065,3.553c3.107,3.683,9.568,11.348,12.805,11.348c3.206,0,9.651-7.648,12.748-11.323
			c1.131-1.339,2.171-2.573,3.089-3.579l1.745-1.912l2.457,0.811c3.123,1.028,6.159,2.268,9.032,3.685l2.348,1.158l-0.127,2.617
			c-0.062,1.277-0.182,2.772-0.315,4.393c-0.4,4.9-1.232,15.096,1.1,17.428c0.494,0.499,2.259,1.635,8.141,1.635
			c3.271,0,6.809-0.341,9.932-0.642c1.518-0.146,2.925-0.281,4.147-0.364l2.587-0.177l1.214,2.293
			c1.505,2.848,2.766,5.71,3.747,8.502l0.905,2.578l-2.075,1.777c-0.725,0.623-1.552,1.309-2.441,2.046
			c-4.17,3.455-12.844,10.648-12.844,14.46c0,4.225,9.864,11.964,14.079,15.267l3.913,3.103l-0.822,2.614
			c-0.85,2.709-1.895,5.348-3.195,8.068l-1.235,2.584l-3.986-0.478c-3.515-0.426-8.328-1.01-12.691-1.01
			c-6.692,0-8.785,1.37-9.376,1.959c-3.502,3.503-1.388,17.907-0.593,23.331l0.419,2.84l-2.527,1.52
			c-2.4,1.218-4.966,2.307-7.628,3.236l-2.772,0.966l-1.75-2.356c-2.987-4.021-12.08-16.259-17.225-16.259
			c-5.151,0-14.235,12.237-17.222,16.258L117.142,247.343z M136.115,220.741c7.407,0,14.828,7.925,21.822,17.073
			c0.463-0.19,0.923-0.383,1.378-0.584c-1.477-10.871-2.137-22.061,3.229-27.427c2.891-2.894,7.805-4.299,15.023-4.299
			c4.111,0,8.395,0.443,11.869,0.854c0.257-0.616,0.499-1.23,0.731-1.845c-8.835-6.952-16.65-13.814-16.65-21.17
			c0-7.565,9.092-15.105,15.733-20.609c0.065-0.055,0.13-0.109,0.195-0.163c-0.346-0.835-0.718-1.674-1.118-2.517
			c-0.421,0.039-0.853,0.081-1.295,0.124c-3.302,0.318-7.043,0.679-10.699,0.679c-6.716,0-11.099-1.266-13.798-3.983
			c-4.937-4.936-4.087-15.35-3.403-23.717c0.042-0.506,0.081-0.997,0.12-1.474c-1.022-0.449-2.064-0.874-3.123-1.27
			c-0.372,0.438-0.759,0.897-1.157,1.369c-5.317,6.31-11.937,14.162-18.855,14.162c-6.95,0-13.582-7.866-18.91-14.186
			c-0.393-0.464-0.772-0.915-1.139-1.347c-1.056,0.398-2.098,0.822-3.12,1.271c0.039,0.477,0.078,0.971,0.12,1.478
			c0.684,8.364,1.537,18.773-3.398,23.743c-2.712,2.713-7.098,3.971-13.809,3.971c-3.741,0-7.556-0.376-10.92-0.708
			c-0.354-0.034-0.699-0.069-1.037-0.101c-0.398,0.84-0.77,1.676-1.113,2.506c0.065,0.053,0.13,0.108,0.195,0.163
			c6.64,5.504,15.733,13.044,15.733,20.609c0,7.357-7.816,14.218-16.65,21.17c0.229,0.614,0.473,1.227,0.731,1.843
			c3.466-0.411,7.735-0.853,11.84-0.853c7.215,0,12.129,1.405,15.02,4.299c5.398,5.396,4.74,16.307,3.253,27.423
			c0.458,0.202,0.918,0.396,1.386,0.586C121.284,228.666,128.705,220.741,136.115,220.741z"/>
	</g>
	<g>
		<path class="st1" d="M136.102,206.026c-12.581,0-22.815-10.235-22.815-22.816c0-12.581,10.234-22.818,22.815-22.818
			s22.817,10.236,22.817,22.818C158.919,195.791,148.683,206.026,136.102,206.026z M136.102,168.38
			c-8.177,0-14.828,6.653-14.828,14.83c0,8.177,6.651,14.829,14.828,14.829s14.83-6.652,14.83-14.829
			C150.932,175.033,144.279,168.38,136.102,168.38z"/>
	</g>
	<g>
		<path class="st5" d="M37.459,394.789c-10.673,0-19.356-8.683-19.356-19.356V49.291c0-10.687,8.683-19.382,19.356-19.382h414.534
			c4.446,0,8.607,1.725,11.714,4.857c3.147,3.123,4.872,7.284,4.872,11.73v78.02c-2.376-1.928-4.841-3.761-7.375-5.485V43.834
			H27.742v305.003h258.38v45.952H37.459z"/>
	</g>
	<g>
		<path class="st1" d="M368.925,412.893H37.458C16.804,412.893,0,396.089,0,375.435V49.291c0-20.64,16.804-37.432,37.458-37.432
			h411.926c20.553,0,37.273,16.709,37.273,37.246V150.14l-7.082-8.648c-3.331-4.065-7.03-7.929-10.998-11.484
			c-3.817-3.458-7.93-6.647-12.238-9.494c-3.505-2.378-7.194-4.536-11.006-6.441l-2.207-1.104V61.912H45.82v268.874h244.274v74.094
			h82.825v7.987L368.925,412.893z M37.458,19.846c-16.25,0-29.471,13.209-29.471,29.445v326.144
			c0,16.25,13.221,29.471,29.471,29.471h244.648v-66.133H37.832V53.924h413.281v54.141c3.346,1.772,6.588,3.722,9.669,5.812
			c4.607,3.042,9.04,6.482,13.14,10.196c1.625,1.456,3.208,2.961,4.748,4.511V49.105c0-16.133-13.138-29.259-29.286-29.259H37.458z"
			/>
	</g>
	<g>
		<path class="st1" d="M320.368,470.27H166.319l25.906-62.168v-3.195l3.994-0.026h98.215v3.219L320.368,470.27z M178.299,462.282
			h130.083l-20.615-49.415h-88.875L178.299,462.282z"/>
	</g>
	<g>
		<polygon class="st5" points="189.45,454.838 203.844,420.306 282.831,420.306 297.226,454.838 		"/>
	</g>
	<g>
		<path class="st1" d="M372.919,500.141H104.712v-37.858h268.207V500.141z M112.699,492.154h252.233V470.27H112.699V492.154z"/>
	</g>
	<g>
		<rect x="120.134" y="477.696" class="st5" width="246.41" height="7.026"/>
	</g>
	<g>
		<rect x="14.297" y="492.154" class="st1" width="354.628" height="7.987"/>
	</g>
	<g>
		<circle class="st2" cx="243.338" cy="372.277" r="18.035"/>
	</g>
	<g>
		<path class="st1" d="M243.338,394.306c-12.145,0-22.027-9.883-22.027-22.03c0-12.145,9.883-22.027,22.027-22.027
			c12.147,0,22.03,9.883,22.03,22.027C265.368,384.423,255.485,394.306,243.338,394.306z M243.338,358.236
			c-7.743,0-14.04,6.297-14.04,14.04s6.297,14.043,14.04,14.043s14.043-6.3,14.043-14.043S251.081,358.236,243.338,358.236z"/>
	</g>
	<g>
		<path class="st1" d="M512,496.15h-7.987V209.527c0-58.976-47.98-106.956-106.956-106.956s-106.956,47.98-106.956,106.956v46.117
			l-39.99,75.149h39.99v74.092h82.823v91.265h-7.987v-83.278h-82.823V338.78h-45.3l45.3-85.128v-44.126
			c0-63.38,51.563-114.943,114.943-114.943S512,146.147,512,209.527V496.15z"/>
	</g>
	<g>
		<path class="st0" d="M397.068,111.885c-53.86,0-97.656,43.796-97.656,97.63v48.455l-1.544,2.929l-32.242,60.569h33.786v74.094
			h82.827v100.585h112.459V209.514C494.698,155.681,450.901,111.885,397.068,111.885z M453.853,220.259
			c-7.511-0.871-21.663-2.866-26.525,1.96c-4.971,4.971-2.794,19.304-1.669,26.96c-2.286,1.161-4.681,2.177-7.148,3.012
			c-4.645-6.241-13.389-17.853-20.429-17.853s-15.784,11.611-20.429,17.853c-2.468-0.835-4.862-1.85-7.148-3.012
			c1.088-7.656,3.266-21.989-1.706-26.96c-4.826-4.826-19.014-2.83-26.489-1.96c-1.161-2.431-2.141-4.935-2.975-7.548
			c5.878-4.644,17.345-12.99,17.345-19.776c0-6.532-11.213-14.877-16.655-19.522c0.943-2.794,2.141-5.443,3.483-7.983
			c7.112,0.544,20.72,2.83,25.291-1.742c4.427-4.463,2.286-17.962,1.96-24.856c2.721-1.379,5.552-2.504,8.491-3.483
			c4.645,5.08,12.555,16.183,18.832,16.183c6.241,0,14.152-11.103,18.796-16.183c2.939,0.979,5.77,2.104,8.491,3.483
			c-0.327,6.895-2.467,20.393,1.96,24.82c4.572,4.608,18.179,2.286,25.328,1.778c1.343,2.54,2.54,5.189,3.483,7.983
			c-5.443,4.645-16.655,12.99-16.655,19.522c0,6.786,11.466,15.131,17.345,19.776C455.994,215.325,455.014,217.828,453.853,220.259z
			"/>
	</g>
	<g>
		<path class="st5" d="M439.487,192.955c0-6.573,11.204-14.902,16.657-19.57c-0.971-2.764-2.166-5.416-3.511-7.955
			c-7.133,0.486-20.728,2.801-25.284-1.793c-4.444-4.407-2.315-17.927-1.979-24.836c-2.726-1.345-5.565-2.503-8.515-3.473
			c-4.631,5.079-12.511,16.208-18.786,16.208c-6.274,0-14.192-11.129-18.823-16.208c-2.95,0.97-5.789,2.128-8.515,3.473
			c0.336,6.909,2.502,20.429-1.942,24.873c-4.557,4.556-18.188,2.278-25.284,1.755c-1.345,2.539-2.54,5.192-3.511,7.955
			c5.453,4.668,16.694,12.997,16.694,19.57c0,6.759-11.503,15.087-17.367,19.756c0.822,2.615,1.83,5.117,2.988,7.544
			c7.47-0.895,21.662-2.876,26.48,1.979c4.967,4.968,2.801,19.272,1.718,26.928c2.278,1.157,4.668,2.165,7.133,3.024
			c4.631-6.237,13.408-17.852,20.429-17.852c7.059,0,15.798,11.615,20.429,17.852c2.465-0.859,4.855-1.867,7.134-3.024
			c-1.121-7.656-3.25-21.961,1.718-26.928c4.818-4.855,18.972-2.875,26.479-1.979c1.157-2.427,2.166-4.929,2.987-7.544
			C450.953,208.043,439.487,199.715,439.487,192.955z M398.068,211.629c-10.382,0-18.823-8.441-18.823-18.823
			c0-10.42,8.441-18.823,18.823-18.823c10.42,0,18.823,8.403,18.823,18.823C416.892,203.189,408.489,211.629,398.068,211.629z"/>
	</g>
	<g>
		<path class="st1" d="M417.054,256.939l-1.75-2.357c-2.985-4.021-12.072-16.258-17.222-16.258s-14.238,12.237-17.222,16.258
			l-1.75,2.357l-2.772-0.966c-2.662-0.928-5.229-2.018-7.628-3.236l-2.545-1.294l0.476-3.355c0.762-5.36,2.782-19.596-0.666-23.042
			c-0.59-0.59-2.681-1.96-9.37-1.96c-4.376,0-9.186,0.586-12.696,1.015l-3.957,0.476l-1.235-2.59c-1.3-2.729-2.343-5.366-3.19-8.064
			l-0.822-2.614l3.91-3.1c4.215-3.305,14.082-11.045,14.082-15.271c0-3.813-8.681-11.008-12.852-14.466
			c-0.887-0.734-1.711-1.418-2.436-2.038l-2.077-1.778l0.907-2.582c0.988-2.809,2.252-5.669,3.752-8.499l1.222-2.304l2.6,0.191
			c1.149,0.085,2.465,0.214,3.887,0.354c3.18,0.313,6.783,0.668,10.13,0.668c5.889,0,7.657-1.132,8.146-1.62
			c2.332-2.349,1.498-12.55,1.097-17.452c-0.135-1.624-0.255-3.123-0.317-4.402l-0.127-2.617l2.35-1.16
			c2.873-1.416,5.912-2.655,9.03-3.683l2.457-0.811l1.745,1.912c0.913,1,1.947,2.226,3.068,3.557
			c3.107,3.682,9.568,11.345,12.805,11.345c3.203,0,9.651-7.65,12.75-11.327c1.128-1.338,2.168-2.57,3.084-3.575l1.742-1.912
			l2.46,0.81c3.12,1.03,6.159,2.268,9.032,3.685l2.348,1.158l-0.127,2.617c-0.062,1.275-0.182,2.769-0.315,4.387
			c-0.4,4.901-1.232,15.101,1.102,17.436c0.494,0.498,2.257,1.634,8.141,1.634c3.266,0,6.804-0.341,9.924-0.642
			c1.521-0.146,2.928-0.281,4.152-0.364l2.584-0.176l1.214,2.289c1.5,2.83,2.764,5.69,3.752,8.499l0.907,2.582l-2.077,1.778
			c-0.725,0.62-1.55,1.304-2.436,2.038c-4.17,3.458-12.852,10.653-12.852,14.466c0,4.226,9.867,11.966,14.082,15.271l3.91,3.1
			l-0.822,2.614c-0.848,2.697-1.89,5.335-3.19,8.064l-1.235,2.588l-3.991-0.478c-3.513-0.426-8.325-1.011-12.691-1.011
			c-6.692,0-8.783,1.37-9.373,1.959c-3.5,3.5-1.391,17.888-0.598,23.305l0.416,2.839l-2.522,1.548
			c-2.4,1.218-4.966,2.307-7.628,3.236L417.054,256.939z M398.082,230.337c7.413,0,14.83,7.925,21.819,17.072
			c0.465-0.189,0.923-0.383,1.378-0.582c-1.474-10.884-2.132-22.067,3.232-27.43c2.891-2.891,7.805-4.298,15.02-4.298
			c4.111,0,8.395,0.445,11.869,0.855c0.257-0.617,0.502-1.231,0.731-1.845c-8.835-6.952-16.65-13.815-16.65-21.172
			c0-7.566,9.097-15.109,15.743-20.615c0.062-0.052,0.125-0.104,0.187-0.156c-0.348-0.836-0.72-1.676-1.121-2.517
			c-0.421,0.04-0.855,0.082-1.303,0.125c-3.299,0.318-7.038,0.679-10.689,0.679c-6.716,0-11.099-1.266-13.798-3.983
			c-4.937-4.939-4.087-15.354-3.406-23.724c0.042-0.503,0.081-0.993,0.12-1.468c-1.022-0.45-2.064-0.874-3.12-1.271
			c-0.372,0.438-0.757,0.894-1.154,1.365c-5.32,6.313-11.939,14.167-18.858,14.167c-6.95,0-13.582-7.865-18.91-14.184
			c-0.393-0.464-0.772-0.915-1.139-1.347c-1.058,0.396-2.098,0.822-3.123,1.27c0.039,0.478,0.078,0.972,0.12,1.481
			c0.686,8.363,1.537,18.771-3.398,23.742c-2.712,2.71-7.095,3.969-13.803,3.969c-3.739,0-7.55-0.374-10.912-0.706
			c-0.359-0.035-0.707-0.07-1.048-0.103c-0.398,0.837-0.77,1.673-1.115,2.505c0.062,0.052,0.125,0.104,0.187,0.156
			c6.646,5.507,15.743,13.049,15.743,20.615c0,7.357-7.816,14.219-16.65,21.172c0.229,0.614,0.473,1.226,0.731,1.843
			c3.466-0.411,7.735-0.854,11.84-0.854c7.212,0,12.126,1.407,15.018,4.299c5.4,5.398,4.742,16.31,3.255,27.425
			c0.458,0.201,0.918,0.396,1.386,0.586C383.251,238.262,390.669,230.337,398.082,230.337z"/>
	</g>
	<g>
		<path class="st1" d="M398.069,215.623c-12.581,0-22.818-10.236-22.818-22.817s10.236-22.816,22.818-22.816
			c12.581,0,22.817,10.235,22.817,22.816S410.65,215.623,398.069,215.623z M398.069,177.976c-8.177,0-14.83,6.652-14.83,14.829
			c0,8.177,6.653,14.83,14.83,14.83c8.177,0,14.83-6.653,14.83-14.83C412.899,184.628,406.245,177.976,398.069,177.976z"/>
	</g>
	<g>
		<rect x="204.419" y="231.946" class="st1" width="53.791" height="7.987"/>
	</g>
	<g>
		<polygon class="st1" points="242.116,255.204 236.88,249.172 252.173,235.892 236.833,222.146 242.163,216.197 264.247,235.986 		
			"/>
	</g>
	<g>
		<rect x="221.958" y="137.413" class="st1" width="66.804" height="7.987"/>
	</g>
	<g>
		<polygon class="st1" points="238.005,161.147 215.921,141.359 238.052,122.142 243.289,128.171 227.996,141.453 243.335,155.198 
					"/>
	</g>
</g>
</svg>
