<?xml version="1.0" encoding="utf-8"?>
<!-- Generator: Adobe Illustrator 18.0.0, SVG Export Plug-In . SVG Version: 6.00 Build 0)  -->
<!DOCTYPE svg PUBLIC "-//W3C//DTD SVG 1.1//EN" "http://www.w3.org/Graphics/SVG/1.1/DTD/svg11.dtd">
<svg version="1.1" id="Layer_1" xmlns="http://www.w3.org/2000/svg" xmlns:xlink="http://www.w3.org/1999/xlink" x="0px" y="0px"
	 viewBox="0 0 512 512" style="enable-background:new 0 0 512 512;" xml:space="preserve">
<style type="text/css">
	.st0{fill:#FFD452;}
	.st1{fill:#F58E6F;}
	.st2{fill:#4A555F;}
	.st3{fill:none;}
	.st4{fill:#DFDFDF;}
	.st5{fill:#71CCE0;}
	.st6{fill:#FFFFFF;}
</style>
<g>
	<g>
		<g>
			<path class="st2" d="M201.018,7.388c-79.647,0-144.445,64.797-144.445,144.445v56.283L0,314.424h56.573v104.753h105.023v85.431
				h7.506v-92.936H64.079V306.918H12.495l51.584-96.93v-58.155c0-75.509,61.431-136.939,136.939-136.939
				c75.509,0,136.939,61.431,136.939,136.939v352.775h7.506V151.833C345.463,72.185,280.666,7.388,201.018,7.388z"/>
		</g>
	</g>
	<g>
		<g>
			<g>
				<path class="st4" d="M201.015,23.649c-70.678,0-128.172,57.493-128.172,128.172v60.345l-1.476,2.752l-44.283,83.238h45.76
					V402.91h105.004v101.702h151.364V151.821C329.212,81.143,271.693,23.649,201.015,23.649z M272.969,156.7H132.413
					c-13.735,0-24.869-11.133-24.869-24.869c0-12.785,9.657-23.318,22.067-24.719c-0.075-1.101-0.15-2.226-0.15-3.377
					c0-22.242,18.014-40.256,40.255-40.256c13.66,0,25.694,6.805,32.975,17.188c7.281-10.383,19.34-17.188,32.975-17.188
					c22.242,0,40.281,18.014,40.281,40.256c0,1.151-0.1,2.276-0.175,3.377c12.409,1.401,22.067,11.934,22.067,24.719
					C297.838,145.566,286.705,156.7,272.969,156.7z"/>
			</g>
		</g>
	</g>
	<g>
		<g>
			<rect x="423.071" y="233.185" class="st1" width="55.616" height="55.616"/>
		</g>
	</g>
	<g>
		<g>
			<rect x="431.817" y="218.148" class="st2" width="7.506" height="15.037"/>
		</g>
	</g>
	<g>
		<g>
			<rect x="447.127" y="218.148" class="st2" width="7.506" height="15.037"/>
		</g>
	</g>
	<g>
		<g>
			<rect x="462.434" y="218.148" class="st2" width="7.506" height="15.037"/>
		</g>
	</g>
	<g>
		<g>
			<rect x="431.817" y="288.801" class="st2" width="7.506" height="15.036"/>
		</g>
	</g>
	<g>
		<g>
			<rect x="447.127" y="288.801" class="st2" width="7.506" height="15.036"/>
		</g>
	</g>
	<g>
		<g>
			<rect x="462.434" y="288.801" class="st2" width="7.506" height="15.036"/>
		</g>
	</g>
	<g>
		<g>
			<rect x="478.686" y="241.932" class="st2" width="15.038" height="7.506"/>
		</g>
	</g>
	<g>
		<g>
			<rect x="478.686" y="257.24" class="st2" width="15.038" height="7.506"/>
		</g>
	</g>
	<g>
		<g>
			<rect x="478.686" y="272.549" class="st2" width="15.038" height="7.506"/>
		</g>
	</g>
	<g>
		<g>
			<rect x="408.035" y="241.932" class="st2" width="15.036" height="7.506"/>
		</g>
	</g>
	<g>
		<g>
			<rect x="408.035" y="257.24" class="st2" width="15.036" height="7.506"/>
		</g>
	</g>
	<g>
		<g>
			<rect x="408.035" y="272.549" class="st2" width="15.036" height="7.506"/>
		</g>
	</g>
	<g>
		<g>
			<g>
				<path class="st2" d="M419.318,229.433v63.121h63.121v-63.121H419.318z M474.934,285.048h-48.11v-48.11h48.11V285.048z"/>
			</g>
		</g>
	</g>
	<g>
		<g>
			<g>
				<path class="st5" d="M478.52,416.928c0-4.403,7.506-9.982,11.158-13.11c-0.651-1.851-1.451-3.628-2.352-5.329
					c-4.779,0.326-13.885,1.876-16.938-1.201c-2.977-2.952-1.551-12.009-1.326-16.638c-1.826-0.901-3.728-1.677-5.705-2.327
					c-3.102,3.402-8.381,10.858-12.584,10.858c-4.203,0-9.507-7.456-12.609-10.858c-1.977,0.65-3.878,1.426-5.704,2.327
					c0.225,4.628,1.676,13.685-1.301,16.663c-3.053,3.052-12.185,1.526-16.938,1.176c-0.901,1.701-1.701,3.478-2.352,5.329
					c3.653,3.127,11.184,8.706,11.184,13.11c0,4.528-7.706,10.107-11.634,13.234c0.55,1.752,1.226,3.428,2.002,5.054
					c5.004-0.6,14.511-1.927,17.739,1.326c3.327,3.328,1.876,12.91,1.151,18.039c1.526,0.775,3.127,1.451,4.778,2.026
					c3.102-4.178,8.982-11.959,13.685-11.959c4.729,0,10.583,7.781,13.686,11.959c1.651-0.575,3.252-1.251,4.779-2.026
					c-0.751-5.129-2.177-14.711,1.151-18.039c3.227-3.253,12.709-1.926,17.738-1.326c0.775-1.626,1.451-3.302,2.001-5.054
					C486.201,427.036,478.52,421.457,478.52,416.928z M450.774,429.438c-6.955,0-12.609-5.654-12.609-12.609
					c0-6.98,5.654-12.61,12.609-12.61c6.98,0,12.609,5.629,12.609,12.61C463.383,423.784,457.754,429.438,450.774,429.438z"/>
			</g>
		</g>
	</g>
	<g>
		<g>
			<g>
				<path class="st2" d="M491.284,426.299c-2.231-1.751-9.02-7.074-9.02-9.381c0-2.047,6.184-7.173,8.214-8.858
					c0.601-0.499,1.158-0.962,1.649-1.38l1.95-1.671l-0.85-2.422c-0.672-1.917-1.537-3.882-2.573-5.841l-1.139-2.157l-2.436,0.166
					c-0.826,0.056-1.776,0.148-2.805,0.247c-2.067,0.199-4.413,0.425-6.553,0.425c-3.86,0-4.674-0.762-4.686-0.775
					c-1.207-1.332-0.64-8.245-0.428-10.847c0.088-1.092,0.171-2.1,0.212-2.96l0.122-2.462l-2.211-1.09
					c-1.977-0.974-4.061-1.823-6.189-2.525l-2.311-0.76l-1.637,1.796c-0.623,0.682-1.329,1.518-2.094,2.426
					c-1.637,1.942-5.984,7.1-7.713,7.205c-1.747-0.088-6.113-5.266-7.757-7.216c-0.762-0.904-1.466-1.736-2.084-2.415l-1.637-1.796
					l-2.311,0.76c-2.128,0.703-4.212,1.552-6.189,2.525l-2.211,1.09l0.122,2.462c0.042,0.863,0.125,1.873,0.212,2.967
					c0.215,2.609,0.784,9.541-0.42,10.856c-0.007,0.007-0.833,0.77-4.693,0.77c-2.189,0-4.579-0.236-6.685-0.443
					c-0.96-0.094-1.849-0.182-2.626-0.24l-2.446-0.18l-1.146,2.166c-1.036,1.955-1.903,3.921-2.578,5.844l-0.85,2.422l1.95,1.671
					c0.491,0.419,1.048,0.882,1.649,1.38c2.031,1.684,8.214,6.81,8.214,8.858c0,2.304-6.785,7.627-9.013,9.376l-3.21,2.547
					l0.77,2.456c0.589,1.869,1.305,3.683,2.196,5.547l1.161,2.43l3.416-0.411c2.326-0.284,5.51-0.671,8.375-0.671
					c4.393,0,5.414,0.894,5.517,0.998c1.28,1.278,1.327,6.162,0.142,14.514l-0.427,3.021l2.395,1.214
					c1.656,0.839,3.42,1.587,5.243,2.222l2.602,0.906l1.644-2.212c6.755-9.097,9.587-10.456,10.672-10.456
					c1.087,0,3.922,1.358,10.672,10.455l1.642,2.215l2.604-0.908c1.833-0.638,3.597-1.387,5.246-2.224l2.38-1.39l-0.391-2.668
					c-1.236-8.447-1.204-13.391,0.095-14.69c0.103-0.103,1.126-0.998,5.52-0.998c2.861,0,6.047,0.386,8.373,0.668l3.438,0.413
					l1.16-2.429c0.887-1.858,1.605-3.671,2.197-5.542l0.774-2.459L491.284,426.299z M478.55,430.686
					c-5.204,0-8.644,1.015-10.826,3.196c-3.592,3.592-3.569,10.174-2.732,17.236c-4.261-5.389-9.067-10.224-14.21-10.224
					c-5.143,0-9.954,4.846-14.222,10.241c0.818-6.999,0.865-13.651-2.741-17.253c-2.179-2.181-5.62-3.196-10.824-3.196
					c-2.287,0-4.63,0.198-6.69,0.423c4.806-3.814,10.501-8.768,10.501-14.191c0-5.014-4.681-9.43-10.44-14.231
					c0.032-0.072,0.063-0.144,0.095-0.216c2.155,0.212,4.823,0.473,7.357,0.473c4.799,0,7.977-0.943,10.01-2.977
					c3.657-3.685,3.064-10.938,2.585-16.768c-0.005-0.068-0.01-0.136-0.017-0.203c0.21-0.087,0.418-0.172,0.628-0.255
					c0.088,0.104,0.178,0.21,0.266,0.317c3.714,4.404,8.334,9.884,13.491,9.884c5.136,0,9.751-5.474,13.458-9.873
					c0.093-0.111,0.186-0.22,0.276-0.328c0.21,0.083,0.42,0.169,0.628,0.255c-0.005,0.065-0.012,0.131-0.017,0.197
					c-0.476,5.833-1.07,13.092,2.587,16.753c2.661,2.677,6.985,2.986,10.008,2.986c2.502,0,5.038-0.245,7.274-0.459
					c0.034-0.004,0.068-0.007,0.103-0.011c0.034,0.076,0.068,0.151,0.103,0.226c-5.759,4.8-10.442,9.217-10.442,14.231
					c0,5.094,4.823,9.645,10.511,14.193C483.202,430.886,480.844,430.686,478.55,430.686z"/>
			</g>
		</g>
	</g>
	<g>
		<g>
			<g>
				<path class="st2" d="M450.782,400.454c-9.023,0-16.362,7.341-16.362,16.364s7.34,16.364,16.362,16.364
					c9.023,0,16.365-7.341,16.365-16.364S459.805,400.454,450.782,400.454z M450.782,425.676c-4.884,0-8.857-3.974-8.857-8.858
					s3.973-8.858,8.857-8.858c4.884,0,8.859,3.974,8.859,8.858S455.666,425.676,450.782,425.676z"/>
			</g>
		</g>
	</g>
	<g>
		<g>
			<path class="st2" d="M478.449,101.88l-13.079,16.818c-1.046,1.241-2.394,1.157-2.92,1.072c-0.53-0.091-1.828-0.463-2.402-1.976
				l-10.02-26.352c-1.349-3.543-4.381-6.046-8.117-6.698c-3.726-0.646-7.432,0.679-10.005,3.681l-14.51,18.483l5.903,4.635
				l14.408-18.357c1.045-1.223,2.385-1.141,2.917-1.047c0.528,0.092,1.815,0.469,2.387,1.972l10.02,26.352
				c1.356,3.562,4.408,6.069,8.163,6.707c0.608,0.103,1.214,0.154,1.815,0.154c3.11,0,6.059-1.366,8.192-3.905l13.169-16.93
				L478.449,101.88z"/>
		</g>
	</g>
	<g>
		<g>
			<g>
				<path class="st2" d="M487.626,84.684c-6.58-0.844-12.539,3.884-13.362,10.325c-0.408,3.164,0.442,6.297,2.394,8.822
					c1.95,2.524,4.767,4.138,7.931,4.543c0.513,0.066,1.024,0.098,1.53,0.098c5.984,0,11.073-4.481,11.837-10.425
					C498.792,91.516,494.157,85.522,487.626,84.684z M490.511,97.092c-0.31,2.401-2.494,4.154-4.969,3.838
					c-1.175-0.15-2.221-0.75-2.946-1.688c-0.723-0.937-1.038-2.101-0.887-3.278c0.281-2.208,2.17-3.873,4.388-3.873
					c0.191,0,0.384,0.012,0.576,0.037C489.099,92.44,490.822,94.667,490.511,97.092z"/>
			</g>
		</g>
	</g>
	<g>
		<g>
			<g>
				<path class="st2" d="M416.828,102.923c-6.572-0.844-12.534,3.881-13.365,10.327c-0.836,6.531,3.799,12.526,10.33,13.363
					c0.513,0.066,1.023,0.098,1.529,0.098c5.986,0,11.073-4.482,11.835-10.425C427.994,109.755,423.359,103.759,416.828,102.923z
					 M419.711,115.333c-0.306,2.397-2.524,4.139-4.965,3.836c-2.426-0.311-4.149-2.538-3.838-4.963
					c0.286-2.21,2.172-3.875,4.391-3.875c0.191,0,0.384,0.012,0.577,0.037C418.301,110.679,420.024,112.906,419.711,115.333z"/>
			</g>
		</g>
	</g>
	<g>
		<g>
			<g>
				<path class="st2" d="M279.686,104.006c0.002-0.089,0.002-0.178,0.002-0.268c0-24.271-19.746-44.017-44.017-44.017
					c-12.664,0-24.665,5.494-32.977,14.902c-8.312-9.409-20.313-14.902-32.979-14.902c-24.271,0-44.015,19.746-44.015,44.017v0.268
					c-12.71,3.038-21.911,14.433-21.911,27.823c0,15.782,12.839,28.623,28.623,28.623h140.562c15.783,0,28.625-12.84,28.625-28.623
					C301.599,118.439,292.398,107.044,279.686,104.006z M272.974,152.946H132.412c-11.645,0-21.117-9.472-21.117-21.117
					c0-10.764,8.058-19.782,18.747-20.975l3.631-0.406l-0.31-3.643c-0.085-1.014-0.156-2.031-0.156-3.066
					c0-20.132,16.377-36.512,36.509-36.512c11.879,0,23.059,5.833,29.906,15.605l3.073,4.387l3.074-4.387
					c6.846-9.772,18.024-15.605,29.903-15.605c20.132,0,36.512,16.38,36.512,36.512c0,1.037-0.073,2.058-0.159,3.075l-0.301,3.635
					l3.624,0.406c10.689,1.193,18.747,10.211,18.747,20.975C294.094,143.473,284.619,152.946,272.974,152.946z"/>
			</g>
		</g>
	</g>
	<g>
		<g>
			<path class="st0" d="M274.376,119.556l-12.111-1.354l1.033-12.14c0.066-0.768,0.127-1.539,0.127-2.323
				c0-15.305-12.451-27.755-27.753-27.755c-9.027,0-17.525,4.438-22.734,11.873l-10.245,14.623l-10.244-14.623
				c-5.209-7.435-13.707-11.873-22.732-11.873c-15.304,0-27.755,12.451-27.755,27.755c0,0.793,0.063,1.573,0.127,2.35l1.007,12.117
				l-12.084,1.35c-6.247,0.698-10.96,5.974-10.96,12.272c0,6.816,5.546,12.361,12.363,12.361h140.56
				c6.817,0,12.363-5.545,12.363-12.361C285.336,125.53,280.623,120.253,274.376,119.556z"/>
		</g>
	</g>
	<g>
		<g>
			<path class="st2" d="M150.602,125.613h7.506c0-7.132,5.803-12.933,12.934-12.933v-7.506
				C159.771,105.174,150.602,114.342,150.602,125.613z"/>
		</g>
	</g>
	<g>
		<g>
			<path class="st2" d="M233.362,96.563v7.506c14.188,0,25.732,11.544,25.732,25.735h7.506
				C266.6,111.474,251.689,96.563,233.362,96.563z"/>
		</g>
	</g>
	<g>
		<g>
			<path class="st2" d="M207.701,121.044c0,7.59-6.174,13.765-13.765,13.765v7.506c11.73,0,21.271-9.542,21.271-21.271H207.701z"/>
		</g>
	</g>
	<g>
		<g>
			<path class="st2" d="M191.656,103.738h7.506c0-20.132,16.377-36.512,36.51-36.512v-7.506
				C211.4,59.721,191.656,79.467,191.656,103.738z"/>
		</g>
	</g>
	<g>
		<g>
			<polygon class="st2" points="386.493,353.062 386.493,449.106 393.999,449.106 393.999,360.568 504.494,360.568 504.494,473.209 
				389.5,473.209 205.946,154.824 199.442,158.572 384.081,478.836 385.166,480.715 512,480.715 512,353.062 			"/>
		</g>
	</g>
	<g>
		<g>
			<polygon class="st2" points="385.445,198.016 385.445,291.673 392.95,291.673 392.95,205.522 504.494,205.522 504.494,316.362 
				389.185,316.362 251.083,136.279 245.126,140.845 385.481,323.868 512,323.868 512,198.016 			"/>
		</g>
	</g>
	<g>
		<g>
			<polygon class="st2" points="385.445,42.431 385.445,146.303 392.95,146.303 392.95,49.937 504.494,49.937 504.494,159.857 
				385.415,159.857 296.984,117.658 293.749,124.43 383.715,167.363 512,167.363 512,42.431 			"/>
		</g>
	</g>
</g>
</svg>
