<?xml version="1.0" encoding="utf-8"?>
<!-- Generator: Adobe Illustrator 22.0.1, SVG Export Plug-In . SVG Version: 6.00 Build 0)  -->
<svg version="1.1" id="Layer_1" xmlns="http://www.w3.org/2000/svg" xmlns:xlink="http://www.w3.org/1999/xlink" x="0px" y="0px"
	 viewBox="0 0 128 128" style="enable-background:new 0 0 128 128;" xml:space="preserve">
<style type="text/css">
	.st0{fill:#3A2C60;}
	.st1{fill:#E6E7E8;}
	.st2{fill:#6DC9F7;}
	.st3{fill:#FFFFFF;}
	.st4{fill:#FA759E;}
	.st5{fill:#FFD7E5;}
	.st6{fill:#D4FBFF;}
	.st7{fill:#0089EF;}
</style>
<g>
	<g>
		<path class="st1" d="M119.824,56.447c-0.191-0.741-0.831-1.255-1.592-1.279c-0.813-0.033-1.459,0.456-1.703,1.196
			c-0.361,1.098-0.934,1.972-1.475,2.616c-1.464-15.287-14.958-31.236-15.559-31.938c-0.298-0.35-0.796-0.45-1.207-0.245
			c-0.411,0.206-0.629,0.665-0.528,1.113c0.723,3.233,0.729,6.68,0.66,8.544c-3.513-1.565-13.34-6.189-19.451-11.473
			C70.258,17.449,67.114,7.206,67.083,7.103c-0.142-0.475-0.616-0.778-1.101-0.703c-0.434,0.063-0.769,0.397-0.843,0.815
			c-0.129,0.432-3.266,10.19-12.026,17.766c-5.304,4.586-13.451,10.583-17.835,13.75c-0.701,0.504-1.59,0.591-2.376,0.23
			c-0.768-0.351-1.271-1.056-1.344-1.888c-0.164-1.847,0.135-3.858,0.313-5.059c0.173-1.159,0.277-1.859-0.511-2.187
			c-0.345-0.143-0.886-0.128-1.271,0.393c-4.54,6.096-11.999,17.626-13.063,28.767c-0.689-0.822-1.434-2.025-1.726-3.609
			c-0.122-0.652-0.666-1.128-1.324-1.157c-0.627-0.033-1.216,0.388-1.392,1.012C9.791,65.177,3.044,99.01,33.577,116.9
			c0.326,0.191,0.662,0.383,1.007,0.576c9.722,5.419,20.498,8.135,31.329,8.135c10.277,0,20.603-2.447,30.108-7.35
			c0.908-0.468,1.744-0.926,2.485-1.36C128.28,99.454,122.351,66.219,119.824,56.447z M103.337,75.6
			c0,20.564-16.73,37.295-37.295,37.295c-20.565,0-37.296-16.73-37.296-37.295s16.73-37.295,37.296-37.295
			C86.606,38.305,103.337,55.036,103.337,75.6z"/>
		<path class="st1" d="M88.583,59.368c-0.948-1.456-4.315-0.544-4.981-0.346c-0.296,0.088-0.601,0.196-0.903,0.315
			c-5.954-3.368-13.749-0.395-16.656,0.954c-2.891-1.341-10.613-4.288-16.552-1.016c-0.599-0.279-1.188-0.479-1.593-0.599
			c-1.311-0.39-3.632-0.866-4.412,0.332c-0.407,0.623-1.314,3.83-0.212,6.943c-3.208,5.672-4.664,13.043-4.808,17.699
			c-0.146,4.772,13.954,13.667,25.812,20.292l1.279,0.709c0.15,0.083,0.317,0.125,0.484,0.125s0.334-0.042,0.485-0.125l1.28-0.71
			c2.626-1.467,6.605-3.753,10.655-6.313c0.467-0.295,7.327-4.959,7.77-5.291c6.703-5.03,7.425-7.366,7.385-8.686
			c-0.143-4.652-1.597-12.016-4.799-17.685C89.88,63.015,89.047,60.078,88.583,59.368z"/>
	</g>
	<g>
		<path class="st4" d="M113.48,52.678c-0.982,2.982-3.301,4.472-3.301,4.472c-0.286-15.728-15.442-33.457-15.442-33.457
			c1.103,4.937,0.6,10.251,0.6,10.251s-13.306-5.535-21.021-12.206C65.263,13.91,62.125,3.39,62.125,3.39
			c-0.001,0.239-3.307,10.522-12.358,18.349c-5.306,4.588-13.38,10.537-17.904,13.804c-2.094,1.512-5.073,0.193-5.301-2.379
			c-0.293-3.305,0.786-6.957,0.329-6.344c-4.303,5.778-12.774,18.61-12.987,30.331c0,0-2.897-1.862-3.586-5.587
			c-0.078-0.419-0.654-0.469-0.769-0.058c-2.454,8.727-9.704,42.816,20.533,60.533c0.32,0.187,0.65,0.376,0.989,0.565
			c18.695,10.422,41.469,10.581,60.492,0.769c0.869-0.448,1.686-0.894,2.438-1.334c29.001-16.993,23.517-49.047,20.855-59.339
			C114.675,51.997,113.706,51.99,113.48,52.678z M62.042,115.161c-24.058,0-43.56-19.503-43.56-43.56s19.503-43.56,43.56-43.56
			s43.56,19.503,43.56,43.56S86.099,115.161,62.042,115.161z"/>
		<g>
			<path class="st2" d="M62.042,28.04c-24.058,0-43.56,19.503-43.56,43.56s19.503,43.56,43.56,43.56s43.56-19.503,43.56-43.56
				S86.099,28.04,62.042,28.04z M62.042,109.895c-21.15,0-38.295-17.145-38.295-38.295s17.145-38.295,38.295-38.295
				s38.295,17.145,38.295,38.295S83.191,109.895,62.042,109.895z"/>
			<g>
				<g>
					<g>
						<g>
							<path class="st5" d="M45.27,56.557c0.081-0.054,0.168-0.092,0.25-0.144c-1.751-0.967-4.733-1.569-5.198-0.858
								c-0.302,0.463-1.182,3.598,0.059,6.493C41.699,59.81,43.307,57.862,45.27,56.557z"/>
							<path class="st5" d="M78.813,56.557c1.966,1.307,3.577,3.259,4.896,5.503c1.226-2.805,0.339-5.683,0.037-6.145
								c-0.458-0.701-3.358-0.298-5.114,0.538C78.692,56.491,78.755,56.518,78.813,56.557z"/>
						</g>
						<path class="st4" d="M88.617,79.681c-0.179-5.812-2.81-18.474-9.804-23.124c-5.897-3.92-14.286-0.369-16.772,0.841
							c-2.486-1.21-10.875-4.761-16.772-0.841c-6.994,4.65-9.625,17.312-9.804,23.124c-0.146,4.725,18.366,15.515,25.297,19.386
							l1.279,0.709l1.279-0.709C70.251,95.196,88.763,84.406,88.617,79.681z"/>
						<g>
							<path class="st3" d="M38.466,79.681c0.179-5.812,2.81-18.474,9.804-23.124c1.553-1.033,3.28-1.537,5.025-1.713
								c-2.705-0.245-5.578,0.086-8.025,1.713c-6.994,4.65-9.625,17.312-9.804,23.124c-0.146,4.725,18.366,15.515,25.297,19.386
								l1.279,0.709l1.279-0.709c0.07-0.039,0.149-0.083,0.221-0.124C56.452,94.973,38.322,84.358,38.466,79.681z"/>
						</g>
						<path class="st5" d="M62.042,61.432c-7.996,0-14.478,5.114-14.478,12.832c0,7.718,6.482,15.654,14.478,15.654
							s14.478-7.936,14.478-15.654C76.519,66.546,70.037,61.432,62.042,61.432z"/>
						<path class="st3" d="M62.765,73.79h-1.447c-2.754,0-4.987,2.233-4.987,4.987v7.594c0,1.678,1.36,3.038,3.038,3.038h5.345
							c1.678,0,3.038-1.36,3.038-3.038v-7.594C67.752,76.023,65.519,73.79,62.765,73.79z"/>
						<g>
							<path class="st0" d="M115.824,52.447c-0.191-0.741-0.832-1.255-1.592-1.279c-0.813-0.012-1.459,0.457-1.703,1.197v0
								c-0.361,1.098-0.934,1.972-1.475,2.616c-1.463-15.287-14.957-31.236-15.558-31.938c-0.298-0.35-0.797-0.45-1.207-0.245
								c-0.411,0.206-0.629,0.664-0.528,1.112c0.722,3.233,0.729,6.679,0.66,8.544c-3.513-1.565-13.34-6.189-19.451-11.473
								C66.258,13.449,63.115,3.206,63.084,3.103C62.942,2.629,62.47,2.331,61.985,2.4c-0.434,0.062-0.77,0.396-0.844,0.815
								C61.012,3.644,57.87,13.41,49.113,20.982c-5.315,4.596-13.455,10.587-17.835,13.75c-0.699,0.504-1.587,0.591-2.375,0.231
								c-0.769-0.351-1.271-1.057-1.345-1.889c-0.164-1.847,0.135-3.858,0.313-5.059c0.173-1.159,0.277-1.858-0.511-2.186
								c-0.345-0.143-0.886-0.128-1.271,0.393c-4.54,6.096-11.999,17.626-13.062,28.767c-0.69-0.821-1.434-2.024-1.727-3.607
								c-0.12-0.653-0.663-1.129-1.321-1.16c-0.633-0.025-1.218,0.387-1.394,1.012c-2.796,9.943-9.545,43.774,20.99,61.666
								c0.325,0.191,0.662,0.384,1.008,0.576c9.722,5.419,20.498,8.135,31.329,8.134c10.276,0,20.603-2.447,30.107-7.35
								c0.908-0.468,1.744-0.926,2.485-1.36C124.28,95.454,118.35,62.219,115.824,52.447z M93.495,111.174
								c-0.71,0.417-1.515,0.857-2.39,1.309c-18.926,9.762-41.187,9.481-59.547-0.755c-0.333-0.185-0.656-0.37-0.97-0.554
								C3.115,95.077,7.14,65.377,9.973,53.828c1.187,2.719,3.282,4.094,3.391,4.164c0.305,0.196,0.691,0.212,1.013,0.041
								c0.319-0.171,0.521-0.501,0.528-0.864c0.178-9.791,6.438-20.58,10.667-26.775c-0.068,0.906-0.092,1.89-0.006,2.858
								c0.139,1.558,1.075,2.877,2.506,3.531c1.452,0.663,3.088,0.502,4.378-0.43c4.405-3.181,12.598-9.212,17.972-13.858
								c6.48-5.603,10.111-12.41,11.708-16.207c1.53,3.689,5.028,10.583,11.532,16.207c7.748,6.699,20.741,12.144,21.291,12.373
								c0.292,0.122,0.627,0.097,0.898-0.066c0.272-0.164,0.451-0.447,0.48-0.763c0.017-0.167,0.288-3.148-0.037-6.738
								c4.204,5.644,12.676,18.407,12.884,29.868c0.007,0.363,0.209,0.693,0.528,0.864c0.321,0.171,0.707,0.156,1.013-0.041
								c0.097-0.063,2.199-1.438,3.389-4.162C116.631,64.231,121.227,94.925,93.495,111.174z"/>
							<path class="st0" d="M62.042,32.306c-21.667,0-39.295,17.627-39.295,39.295s17.628,39.295,39.295,39.295
								s39.295-17.627,39.295-39.295S83.709,32.306,62.042,32.306z M62.042,108.895c-20.564,0-37.295-16.73-37.295-37.295
								s16.73-37.295,37.295-37.295S99.337,51.036,99.337,71.6S82.606,108.895,62.042,108.895z"/>
							<path class="st0" d="M62.042,27.04c-24.57,0-44.561,19.99-44.561,44.561c0,24.57,19.99,44.56,44.561,44.56
								s44.561-19.99,44.561-44.56C106.602,47.03,86.612,27.04,62.042,27.04z M62.042,114.161c-23.468,0-42.561-19.092-42.561-42.56
								S38.574,29.04,62.042,29.04s42.561,19.093,42.561,42.561S85.509,114.161,62.042,114.161z"/>
							<path class="st0" d="M84.584,55.369c-0.951-1.457-4.315-0.545-4.98-0.348c-0.295,0.088-0.6,0.198-0.9,0.319
								c-5.951-3.374-13.752-0.398-16.662,0.951c-2.892-1.341-10.622-4.29-16.56-1.01c-0.594-0.277-1.178-0.483-1.579-0.603
								c-1.314-0.39-3.634-0.866-4.417,0.331c-0.407,0.623-1.314,3.83-0.211,6.942c-3.208,5.671-4.665,13.042-4.809,17.699
								c-0.146,4.773,13.955,13.668,25.813,20.292l1.278,0.709c0.151,0.083,0.318,0.125,0.485,0.125s0.334-0.042,0.485-0.125
								l1.28-0.71c2.609-1.457,6.577-3.735,10.656-6.313c0.467-0.295,0.606-0.913,0.312-1.379s-0.911-0.606-1.38-0.311
								c-4.042,2.554-7.975,4.813-10.561,6.256l-0.793,0.44l-0.791-0.438C46.109,89.736,36.38,82.481,36.466,79.711
								c0.165-5.363,2.671-17.875,9.357-22.321c5.08-3.38,12.365-0.66,15.219,0.643v2.44c-8.216,0.407-14.131,5.782-14.446,13.175
								h-0.919c-0.553,0-1,0.448-1,1s0.447,1,1,1h0.959c0.027,0.277,0.074,0.555,0.116,0.833h-1.075c-0.553,0-1,0.448-1,1
								s0.447,1,1,1h1.497c0.078,0.28,0.171,0.556,0.264,0.833h-1.761c-0.553,0-1,0.448-1,1s0.447,1,1,1h2.562
								c2.502,5.287,7.598,9.605,13.804,9.605s11.302-4.318,13.804-9.605h2.561c0.553,0,1-0.448,1-1s-0.447-1-1-1h-1.76
								c0.093-0.277,0.185-0.553,0.264-0.833h1.496c0.553,0,1-0.448,1-1s-0.447-1-1-1h-1.074c0.042-0.278,0.089-0.555,0.116-0.833
								h0.958c0.553,0,1-0.448,1-1s-0.447-1-1-1h-0.918c-0.315-7.393-6.23-12.768-14.446-13.175v-2.439
								c2.854-1.303,10.137-4.021,15.218-0.644c6.688,4.447,9.193,16.959,9.358,22.322c0.019,0.611-0.585,2.52-6.587,7.024
								c-0.441,0.332-0.53,0.958-0.199,1.4c0.332,0.443,0.958,0.532,1.4,0.2c6.704-5.032,7.426-7.368,7.385-8.686
								c-0.143-4.652-1.596-12.013-4.798-17.682C85.884,59.016,85.047,56.078,84.584,55.369z M40.799,59.605
								c-0.161-1.543,0.136-2.89,0.301-3.359c0.486-0.088,1.454,0.106,2.389,0.408C42.501,57.493,41.611,58.498,40.799,59.605z
								 M75.487,73.648h-1.082c-0.553,0-1,0.448-1,1s0.447,1,1,1h1.036c-0.03,0.277-0.078,0.555-0.125,0.833h-0.911
								c-0.553,0-1,0.448-1,1s0.447,1,1,1h0.431c-0.088,0.279-0.18,0.557-0.284,0.833h-0.147c-0.553,0-1,0.448-1,1
								c0,0.305,0.144,0.568,0.359,0.752c-2.27,4.374-6.553,7.853-11.722,7.853s-9.452-3.479-11.722-7.853
								c0.215-0.183,0.359-0.447,0.359-0.752c0-0.552-0.447-1-1-1h-0.147c-0.104-0.276-0.196-0.554-0.284-0.833h0.431
								c0.553,0,1-0.448,1-1s-0.447-1-1-1h-0.911c-0.047-0.278-0.095-0.555-0.125-0.833h1.036c0.553,0,1-0.448,1-1s-0.447-1-1-1
								h-1.082c0.332-6.533,5.874-11.216,13.446-11.216S75.155,67.115,75.487,73.648z M80.74,56.784
								c0.886-0.217,1.773-0.326,2.221-0.203c0.174,0.437,0.477,1.631,0.34,3.048C82.526,58.569,81.678,57.602,80.74,56.784z"/>
							<path class="st0" d="M78.394,88.636c-0.682,0.473-1.377,0.945-2.081,1.413c-0.46,0.305-0.586,0.926-0.28,1.386
								c0.192,0.291,0.51,0.447,0.834,0.447c0.189,0,0.382-0.054,0.552-0.167c0.716-0.475,1.423-0.954,2.116-1.435
								c0.453-0.315,0.566-0.938,0.251-1.392C79.471,88.434,78.848,88.321,78.394,88.636z"/>
							<circle class="st0" cx="56.679" cy="69.988" r="1.296"/>
							<circle class="st0" cx="67.404" cy="69.988" r="1.296"/>
							<path class="st0" d="M59.172,74.238l1.869,1.869v7.087c0,0.769-0.625,1.394-1.394,1.394s-1.395-0.625-1.395-1.394
								c0-0.552-0.447-1-1-1s-1,0.448-1,1c0,1.871,1.522,3.394,3.395,3.394c0.933,0,1.779-0.379,2.394-0.991
								c0.614,0.612,1.46,0.991,2.394,0.991c1.871,0,3.394-1.522,3.394-3.394c0-0.552-0.447-1-1-1s-1,0.448-1,1
								c0,0.769-0.625,1.394-1.394,1.394c-0.769,0-1.394-0.625-1.394-1.394v-7.087l1.869-1.869c0.279-0.279,0.082-0.756-0.313-0.756
								h-5.112C59.091,73.482,58.893,73.959,59.172,74.238z"/>
						</g>
						<g>
							<g>
								<circle class="st4" cx="59.891" cy="78.514" r="0.353"/>
								<circle class="st4" cx="57.622" cy="79.552" r="0.353"/>
								<circle class="st4" cx="57.806" cy="77.362" r="0.353"/>
							</g>
							<g>
								<circle class="st4" cx="64.212" cy="78.457" r="0.353"/>
								<circle class="st4" cx="66.481" cy="79.495" r="0.353"/>
								<circle class="st4" cx="66.297" cy="77.305" r="0.353"/>
							</g>
						</g>
					</g>
				</g>
			</g>
		</g>
	</g>
</g>
</svg>
