<?xml version="1.0" encoding="utf-8"?>
<!-- Generator: Adobe Illustrator 22.0.1, SVG Export Plug-In . SVG Version: 6.00 Build 0)  -->
<svg version="1.1" id="Layer_1" xmlns="http://www.w3.org/2000/svg" xmlns:xlink="http://www.w3.org/1999/xlink" x="0px" y="0px"
	 viewBox="0 0 128 128" style="enable-background:new 0 0 128 128;" xml:space="preserve">
<style type="text/css">
	.st0{fill:#3A2C60;}
	.st1{fill:#E6E7E8;}
	.st2{fill:#6DC9F7;}
	.st3{fill:#FFFFFF;}
	.st4{fill:#FA759E;}
	.st5{fill:#FFD7E5;}
	.st6{fill:#D4FBFF;}
	.st7{fill:#0089EF;}
</style>
<g>
	<path class="st1" d="M119.315,74.286c0.259-7.583-2.208-14.458-6.945-19.359c-3.844-3.977-8.955-6.515-15.238-7.596
		c0.329-1.61-0.082-3.282-1.195-4.579l-0.534-0.622l0.425-0.698c1.03-1.693,1.068-3.73,0.102-5.451
		c-0.961-1.71-2.766-2.773-4.709-2.773c-0.718,0-1.423,0.143-2.097,0.424l-0.756,0.316l-0.534-0.622
		c-1.03-1.198-2.52-1.886-4.086-1.886c-1.069,0-2.106,0.324-2.988,0.902c0.332-1.135,0.34-2.367-0.046-3.554
		c-0.811-2.493-3.116-4.168-5.725-4.168l-2.497-0.031l-0.754-2.323c-0.811-2.493-3.116-4.167-5.737-4.167
		c-2.622,0-4.928,1.675-5.732,4.155l-0.802,2.366h-2.442c-2.621,0-4.927,1.675-5.737,4.168c-0.385,1.187-0.377,2.421-0.046,3.556
		c-0.881-0.578-1.919-0.902-2.988-0.902c-1.566,0-3.056,0.688-4.087,1.887l-0.533,0.621l-0.757-0.316
		c-0.673-0.281-1.378-0.423-2.096-0.423c-1.943,0-3.748,1.063-4.709,2.773c-0.966,1.72-0.929,3.757,0.101,5.45l0.426,0.699
		l-0.536,0.624c-1.112,1.296-1.522,2.967-1.194,4.577c-6.283,1.082-11.394,3.619-15.239,7.596
		c-4.737,4.902-7.203,11.772-6.944,19.341c0.027,0.876,0.027,1.758,0,2.618c-0.259,7.582,2.207,14.457,6.944,19.358
		c5.26,5.442,12.881,8.202,22.651,8.202c6.358,0,11.509,1.153,13.775,3.085l5.564,4.745c1.269,1.083,2.824,1.624,4.38,1.624
		s3.111-0.541,4.38-1.624l5.563-4.743c2.268-1.933,7.417-3.087,13.776-3.087c0.617,0,1.225-0.011,1.825-0.033
		c0.015-0.001,0.03,0,0.045-0.001c0.003,0,0.006-0.002,0.009-0.002c1.438-0.054,2.82-0.179,4.158-0.359
		c0.043,0,0.087-0.003,0.131-0.009c0.108-0.015,0.213-0.037,0.321-0.053c0.405-0.059,0.803-0.126,1.198-0.198
		c0.189-0.034,0.379-0.066,0.566-0.102c0.491-0.096,0.974-0.203,1.45-0.318c0.075-0.018,0.154-0.032,0.228-0.05
		c0.003-0.001,0.005-0.003,0.008-0.004c1.27-0.316,2.482-0.704,3.643-1.152c0.013-0.005,0.027-0.002,0.041-0.007
		c0.122-0.047,0.239-0.101,0.36-0.15c0.238-0.096,0.475-0.194,0.709-0.296c0.198-0.087,0.394-0.177,0.589-0.268
		c0.241-0.112,0.482-0.225,0.718-0.344c0.174-0.088,0.345-0.179,0.516-0.27c0.247-0.131,0.494-0.262,0.735-0.4
		c0.154-0.088,0.304-0.181,0.456-0.273c0.247-0.148,0.494-0.297,0.734-0.453c0.144-0.093,0.283-0.192,0.424-0.288
		c0.238-0.161,0.476-0.322,0.707-0.491c0.151-0.11,0.296-0.227,0.443-0.341c0.212-0.163,0.425-0.323,0.631-0.492
		c0.187-0.154,0.367-0.316,0.549-0.476c0.159-0.139,0.321-0.273,0.476-0.416c0.336-0.309,0.663-0.628,0.98-0.956
		c4.737-4.902,7.203-11.771,6.944-19.34C119.288,76.028,119.288,75.146,119.315,74.286z M78.343,37.295l0.067,0.816l-0.756,0.316
		c-0.198,0.083-0.381,0.187-0.564,0.29l-0.544-1.749l1.93-1.402C78.343,36.121,78.295,36.702,78.343,37.295z M55.471,37.017
		l-0.554,1.704c-0.185-0.105-0.37-0.21-0.571-0.294l-0.756-0.316l0.067-0.817c0.048-0.592,0-1.173-0.133-1.729L55.471,37.017z"/>
	<g>
		<path class="st4" d="M52.704,102.772c-2.479-2.113-7.736-3.325-14.424-3.325c-9.489,0-16.868-2.657-21.933-7.897
			c-4.546-4.704-6.913-11.32-6.664-18.629c0.028-0.882,0.028-1.788,0-2.684c-0.249-7.295,2.118-13.91,6.664-18.615
			c5.065-5.24,12.444-7.896,21.933-7.896c6.687,0,11.944-1.212,14.425-3.327L62,32.474l9.296,7.926
			c2.479,2.113,7.737,3.326,14.424,3.326c9.488,0,16.867,2.657,21.932,7.896c4.547,4.704,6.914,11.32,6.665,18.63
			c-0.028,0.882-0.028,1.788,0,2.684c0.249,7.295-2.118,13.909-6.664,18.614c-5.064,5.24-12.443,7.897-21.933,7.897
			c-6.688,0-11.945,1.212-14.425,3.326l-5.563,4.743c-2.15,1.833-5.313,1.833-7.464,0L52.704,102.772z"/>
		<path class="st3" d="M19.348,91.55c-4.546-4.704-6.913-11.32-6.664-18.629c0.028-0.882,0.028-1.788,0-2.684
			c-0.249-7.295,2.118-13.91,6.664-18.615c4.993-5.165,12.239-7.814,21.533-7.889c-0.007-0.024-0.014-0.048-0.022-0.072
			c-0.833,0.042-1.693,0.065-2.579,0.065c-9.488,0-16.867,2.656-21.933,7.896c-4.546,4.705-6.913,11.319-6.664,18.615
			c0.028,0.896,0.028,1.802,0,2.684c-0.249,7.309,2.118,13.925,6.664,18.629c5.064,5.24,12.443,7.897,21.933,7.897
			c0.736,0,1.451,0.017,2.151,0.046c0.008-0.02,0.017-0.041,0.025-0.061C31.366,99.281,24.264,96.636,19.348,91.55z"/>
		<path class="st7" d="M55.948,98.967c-3.469-2.957-9.579-4.52-17.668-4.52c-8.081,0-14.251-2.144-18.337-6.371
			c-3.595-3.72-5.464-9.041-5.263-14.985c0.033-0.996,0.033-2.012,0-3.014c-0.201-5.938,1.668-11.26,5.263-14.979
			c4.087-4.228,10.256-6.371,18.337-6.371c8.089,0,14.198-1.563,17.668-4.521L62,39.045l6.052,5.16
			c3.47,2.958,9.579,4.521,17.668,4.521c8.081,0,14.25,2.143,18.336,6.37c3.596,3.72,5.465,9.042,5.264,14.985
			c-0.033,0.996-0.033,2.013,0,3.015c0.201,5.938-1.668,11.259-5.263,14.979c-4.086,4.228-10.256,6.371-18.337,6.371
			c-8.089,0-14.199,1.563-17.668,4.52L62,104.127L55.948,98.967z"/>
		<g>
			<path class="st3" d="M62.19,47.07c-0.064,0-0.128-0.006-0.19-0.018c-0.337,0.066-0.708-0.049-0.952-0.333
				c-0.357-0.421-0.307-1.052,0.113-1.41l0.19-0.162c0.375-0.318,0.922-0.318,1.297,0l0.19,0.162c0.42,0.358,0.471,0.989,0.113,1.41
				C62.754,46.951,62.473,47.07,62.19,47.07z"/>
			<path class="st3" d="M60.67,97.518c-0.32,0-0.634-0.153-0.827-0.437l-0.28-0.412c-0.312-0.457-0.193-1.079,0.264-1.39
				c0.456-0.311,1.078-0.192,1.389,0.264l0.28,0.412c0.312,0.457,0.193,1.079-0.264,1.39C61.06,97.462,60.863,97.518,60.67,97.518z
				 M63.394,97.424c-0.193,0-0.39-0.056-0.562-0.173c-0.457-0.311-0.575-0.933-0.264-1.39l0.28-0.412
				c0.311-0.456,0.933-0.574,1.389-0.264c0.457,0.311,0.575,0.933,0.264,1.39l-0.28,0.412
				C64.027,97.271,63.714,97.424,63.394,97.424z M57.304,94.643c-0.176,0-0.354-0.046-0.516-0.144
				c-0.135-0.081-0.271-0.161-0.408-0.24c-0.48-0.274-0.647-0.884-0.373-1.364c0.271-0.48,0.883-0.648,1.363-0.373
				c0.153,0.087,0.303,0.175,0.451,0.265c0.473,0.285,0.625,0.9,0.34,1.373C57.973,94.472,57.643,94.643,57.304,94.643z
				 M66.794,94.584c-0.341,0-0.673-0.174-0.859-0.488c-0.283-0.474-0.128-1.088,0.346-1.371c0.148-0.088,0.298-0.175,0.449-0.261
				c0.479-0.273,1.09-0.103,1.363,0.376c0.272,0.48,0.104,1.091-0.377,1.363c-0.138,0.079-0.275,0.158-0.41,0.239
				C67.145,94.539,66.968,94.584,66.794,94.584z M53.278,92.694c-0.119,0-0.24-0.021-0.357-0.066l-0.454-0.17
				c-0.519-0.191-0.783-0.766-0.593-1.285c0.192-0.518,0.767-0.782,1.284-0.592l0.478,0.179c0.516,0.198,0.774,0.776,0.576,1.292
				C54.06,92.449,53.681,92.694,53.278,92.694z M70.829,92.654c-0.403,0-0.783-0.246-0.935-0.646
				c-0.196-0.516,0.063-1.094,0.579-1.29l0.483-0.179c0.521-0.187,1.093,0.083,1.279,0.602c0.188,0.52-0.082,1.092-0.602,1.28
				l-0.45,0.167C71.067,92.632,70.947,92.654,70.829,92.654z M48.998,91.384c-0.076,0-0.153-0.008-0.231-0.027l-0.476-0.109
				c-0.538-0.122-0.876-0.657-0.755-1.196c0.122-0.54,0.656-0.877,1.196-0.755l0.495,0.114c0.537,0.127,0.87,0.666,0.743,1.203
				C49.861,91.074,49.451,91.384,48.998,91.384z M75.113,91.359c-0.453,0-0.864-0.311-0.973-0.771
				c-0.126-0.538,0.207-1.076,0.745-1.202l0.497-0.113c0.543-0.121,1.073,0.222,1.193,0.76c0.119,0.539-0.221,1.073-0.761,1.193
				l-0.473,0.107C75.266,91.35,75.189,91.359,75.113,91.359z M44.591,90.584c-0.043,0-0.087-0.003-0.131-0.008l-0.484-0.062
				c-0.549-0.066-0.939-0.565-0.873-1.113c0.066-0.548,0.563-0.935,1.113-0.872l0.504,0.063c0.548,0.072,0.934,0.574,0.861,1.122
				C45.516,90.218,45.086,90.584,44.591,90.584z M79.521,90.569c-0.496,0-0.926-0.368-0.991-0.872
				c-0.07-0.548,0.316-1.049,0.864-1.12l0.505-0.063c0.549-0.068,1.046,0.328,1.11,0.876s-0.328,1.045-0.876,1.11l-0.483,0.06
				C79.606,90.567,79.563,90.569,79.521,90.569z M40.13,90.184c-0.017,0-0.034,0-0.051-0.001l-0.491-0.023
				c-0.552-0.024-0.979-0.491-0.955-1.043c0.024-0.551,0.494-0.973,1.043-0.955l0.503,0.024c0.552,0.027,0.977,0.497,0.949,1.049
				C41.101,89.769,40.659,90.184,40.13,90.184z M83.983,90.179c-0.529,0-0.971-0.415-0.998-0.95
				c-0.027-0.552,0.397-1.021,0.949-1.049l0.506-0.023c0.521-0.028,1.018,0.406,1.04,0.958s-0.406,1.018-0.958,1.04l-0.488,0.022
				C84.018,90.178,84,90.179,83.983,90.179z M35.65,90.085c-0.008,0-0.016,0-0.023,0l-0.507-0.014
				c-0.552-0.018-0.984-0.48-0.966-1.032c0.018-0.541,0.461-0.967,0.998-0.967c0.012,0,0.022,0,0.033,0l0.488,0.014
				c0.552,0.013,0.989,0.471,0.977,1.023C36.638,89.653,36.192,90.085,35.65,90.085z M88.461,90.083
				c-0.54,0-0.984-0.431-0.999-0.974c-0.015-0.552,0.422-1.012,0.974-1.026l0.486-0.016c0.507-0.044,1.016,0.408,1.037,0.96
				s-0.409,1.017-0.961,1.038l-0.51,0.017C88.479,90.083,88.471,90.083,88.461,90.083z M31.19,89.696
				c-0.053,0-0.107-0.004-0.161-0.013l-0.508-0.087c-0.544-0.098-0.904-0.618-0.807-1.162c0.099-0.543,0.62-0.911,1.162-0.806
				l0.473,0.081c0.546,0.088,0.916,0.603,0.827,1.147C32.097,89.348,31.672,89.696,31.19,89.696z M92.921,89.678
				c-0.48,0-0.904-0.347-0.985-0.836c-0.091-0.545,0.278-1.06,0.823-1.15l0.47-0.083c0.55-0.106,1.065,0.257,1.167,0.799
				c0.101,0.543-0.257,1.065-0.8,1.167c-0.169,0.032-0.339,0.062-0.511,0.09C93.03,89.673,92.975,89.678,92.921,89.678z
				 M26.865,88.557c-0.12,0-0.242-0.022-0.361-0.068c-0.166-0.064-0.329-0.13-0.49-0.198c-0.509-0.215-0.746-0.801-0.531-1.31
				s0.799-0.747,1.311-0.532c0.142,0.06,0.287,0.118,0.434,0.175c0.515,0.2,0.771,0.779,0.571,1.294
				C27.645,88.314,27.266,88.557,26.865,88.557z M97.239,88.516c-0.398,0-0.775-0.241-0.931-0.634
				c-0.202-0.514,0.051-1.094,0.564-1.297c0.146-0.058,0.291-0.117,0.433-0.178c0.508-0.218,1.097,0.017,1.313,0.525
				c0.218,0.507-0.018,1.095-0.524,1.313c-0.161,0.069-0.323,0.136-0.489,0.201C97.485,88.494,97.361,88.516,97.239,88.516z
				 M22.987,86.352c-0.222,0-0.445-0.074-0.631-0.225c-0.138-0.112-0.272-0.228-0.406-0.345c-0.416-0.364-0.458-0.995-0.095-1.411
				c0.365-0.416,0.996-0.458,1.411-0.094c0.116,0.102,0.233,0.201,0.354,0.299c0.428,0.349,0.492,0.979,0.144,1.407
				C23.566,86.226,23.278,86.352,22.987,86.352z M101.101,86.28c-0.287,0-0.572-0.123-0.77-0.36
				c-0.354-0.425-0.296-1.055,0.129-1.408c0.118-0.098,0.233-0.198,0.347-0.3c0.407-0.369,1.042-0.338,1.412,0.074
				c0.369,0.411,0.337,1.043-0.074,1.413c-0.133,0.12-0.268,0.236-0.405,0.351C101.553,86.204,101.325,86.28,101.101,86.28z
				 M20.13,82.938c-0.352,0-0.691-0.185-0.875-0.513c-0.087-0.156-0.171-0.313-0.251-0.472c-0.251-0.492-0.056-1.094,0.437-1.345
				c0.493-0.253,1.094-0.055,1.345,0.437c0.07,0.136,0.143,0.272,0.218,0.407c0.269,0.482,0.095,1.092-0.388,1.36
				C20.462,82.897,20.295,82.938,20.13,82.938z M103.925,82.839c-0.161,0-0.325-0.039-0.478-0.122
				c-0.485-0.264-0.664-0.872-0.399-1.356c0.074-0.136,0.146-0.271,0.213-0.408c0.246-0.494,0.844-0.698,1.341-0.451
				c0.494,0.246,0.696,0.846,0.45,1.34c-0.079,0.159-0.162,0.317-0.248,0.475C104.622,82.651,104.279,82.839,103.925,82.839z
				 M18.614,78.74c-0.467,0-0.884-0.328-0.979-0.802c-0.035-0.175-0.067-0.348-0.097-0.52c-0.092-0.545,0.275-1.061,0.819-1.153
				c0.551-0.098,1.061,0.275,1.153,0.819c0.025,0.151,0.054,0.304,0.085,0.458c0.109,0.542-0.241,1.069-0.782,1.178
				C18.746,78.734,18.68,78.74,18.614,78.74z M105.409,78.628c-0.062,0-0.124-0.005-0.188-0.018
				c-0.543-0.103-0.899-0.626-0.796-1.169c0.029-0.156,0.058-0.311,0.082-0.464c0.089-0.545,0.602-0.914,1.148-0.826
				c0.545,0.089,0.915,0.603,0.826,1.148c-0.028,0.17-0.059,0.342-0.092,0.515C106.3,78.294,105.88,78.628,105.409,78.628z
				 M18.279,74.281c-0.011,0-0.021,0-0.03,0c-0.552-0.016-0.986-0.477-0.971-1.029l0.013-0.492c0.013-0.552,0.443-1.005,1.023-0.976
				c0.552,0.013,0.989,0.471,0.977,1.023l-0.013,0.503C19.262,73.852,18.817,74.281,18.279,74.281z M105.717,74.167
				c-0.538,0-0.982-0.429-0.999-0.971l-0.012-0.51c-0.01-0.552,0.43-1.008,0.982-1.018c0.583,0.014,1.008,0.43,1.018,0.982
				l0.012,0.486c0.016,0.552-0.419,1.013-0.971,1.029C105.737,74.167,105.728,74.167,105.717,74.167z M18.265,69.801
				c-0.004,0-0.008,0-0.012,0c-0.553-0.007-0.995-0.46-0.988-1.012c0.002-0.168,0.007-0.342,0.014-0.52
				c0.019-0.552,0.479-0.98,1.033-0.965c0.552,0.019,0.984,0.482,0.965,1.034c-0.005,0.164-0.01,0.322-0.012,0.476
				C19.258,69.361,18.812,69.801,18.265,69.801z M105.732,69.687c-0.547,0-0.993-0.44-1-0.988c-0.002-0.151-0.007-0.306-0.015-0.464
				c-0.025-0.552,0.401-1.02,0.953-1.045c0.535-0.021,1.02,0.401,1.045,0.953c0.008,0.182,0.015,0.359,0.017,0.532
				c0.007,0.552-0.436,1.005-0.988,1.012C105.74,69.687,105.736,69.687,105.732,69.687z M18.869,65.37
				c-0.087,0-0.175-0.012-0.263-0.035c-0.533-0.145-0.848-0.693-0.703-1.227c0.046-0.17,0.095-0.342,0.148-0.514
				c0.164-0.527,0.722-0.823,1.252-0.658c0.527,0.164,0.822,0.725,0.658,1.252c-0.046,0.148-0.089,0.296-0.129,0.443
				C19.713,65.077,19.31,65.37,18.869,65.37z M105.102,65.262c-0.436,0-0.837-0.288-0.961-0.728
				c-0.042-0.148-0.086-0.297-0.134-0.447c-0.167-0.526,0.124-1.089,0.65-1.256c0.523-0.166,1.088,0.123,1.256,0.65
				c0.054,0.17,0.104,0.339,0.151,0.508c0.15,0.531-0.158,1.084-0.689,1.235C105.284,65.249,105.192,65.262,105.102,65.262z
				 M20.707,61.307c-0.193,0-0.39-0.056-0.562-0.173c-0.457-0.311-0.575-0.933-0.264-1.39c0.101-0.148,0.206-0.295,0.314-0.44
				c0.33-0.442,0.956-0.532,1.399-0.203c0.442,0.331,0.533,0.958,0.202,1.4c-0.091,0.122-0.179,0.245-0.264,0.369
				C21.341,61.155,21.026,61.307,20.707,61.307z M103.228,61.215c-0.317,0-0.629-0.15-0.823-0.43
				c-0.085-0.123-0.173-0.244-0.265-0.365c-0.336-0.438-0.252-1.066,0.187-1.402c0.439-0.335,1.067-0.251,1.401,0.187
				c0.111,0.145,0.219,0.292,0.321,0.44c0.314,0.454,0.201,1.077-0.253,1.392C103.622,61.157,103.424,61.215,103.228,61.215z
				 M23.872,58.174c-0.32,0-0.635-0.153-0.828-0.438c-0.311-0.457-0.191-1.079,0.266-1.389c0.147-0.1,0.297-0.197,0.449-0.292
				c0.468-0.293,1.085-0.15,1.378,0.319c0.292,0.468,0.149,1.085-0.319,1.377c-0.131,0.082-0.259,0.165-0.385,0.251
				C24.261,58.119,24.065,58.174,23.872,58.174z M100.033,58.111c-0.19,0-0.384-0.054-0.555-0.168
				c-0.126-0.084-0.255-0.167-0.386-0.247c-0.471-0.289-0.619-0.904-0.33-1.375c0.288-0.471,0.903-0.62,1.375-0.33
				c0.154,0.094,0.305,0.19,0.452,0.289c0.459,0.307,0.583,0.928,0.276,1.387C100.673,57.955,100.356,58.111,100.033,58.111z
				 M27.904,56.259c-0.424,0-0.816-0.271-0.952-0.696c-0.169-0.526,0.121-1.089,0.647-1.257c0.166-0.053,0.332-0.104,0.502-0.153
				c0.53-0.156,1.085,0.151,1.239,0.681c0.154,0.53-0.15,1.085-0.681,1.239c-0.152,0.044-0.303,0.09-0.451,0.138
				C28.107,56.244,28.005,56.259,27.904,56.259z M95.987,56.225c-0.1,0-0.201-0.015-0.301-0.047
				c-0.147-0.046-0.298-0.092-0.45-0.135c-0.53-0.151-0.839-0.705-0.688-1.236s0.706-0.836,1.236-0.688
				c0.17,0.049,0.338,0.099,0.503,0.151c0.527,0.166,0.819,0.728,0.653,1.254C96.807,55.953,96.412,56.225,95.987,56.225z
				 M32.279,55.332c-0.498,0-0.93-0.372-0.991-0.878c-0.067-0.548,0.322-1.047,0.87-1.115l0.508-0.058
				c0.557-0.058,1.043,0.337,1.103,0.886c0.06,0.549-0.337,1.043-0.886,1.103l-0.48,0.055C32.36,55.329,32.319,55.332,32.279,55.332
				z M91.608,55.318c-0.038,0-0.077-0.002-0.116-0.007l-0.482-0.053c-0.549-0.057-0.949-0.548-0.893-1.097
				c0.058-0.549,0.541-0.951,1.098-0.892l0.508,0.056c0.549,0.063,0.941,0.56,0.878,1.108
				C92.542,54.943,92.109,55.318,91.608,55.318z M87.136,55.087c-0.002,0-0.004,0-0.006,0l-0.504-0.004
				c-0.553-0.007-0.995-0.459-0.988-1.012c0.007-0.548,0.453-0.988,1-0.988c0.004,0,0.008,0,0.012,0l0.492,0.004
				c0.553,0.003,0.997,0.454,0.994,1.006C88.133,54.643,87.686,55.087,87.136,55.087z M36.751,55.087c-0.551,0-0.998-0.446-1-0.997
				c-0.002-0.552,0.444-1.001,0.997-1.003l0.495-0.002c0.002,0,0.004,0,0.006,0c0.55,0,0.997,0.444,1,0.994
				c0.003,0.552-0.441,1.002-0.994,1.006l-0.501,0.002C36.753,55.087,36.752,55.087,36.751,55.087z M41.227,54.932
				c-0.521,0-0.959-0.403-0.996-0.93c-0.039-0.551,0.376-1.029,0.927-1.068l0.491-0.036c0.544-0.045,1.031,0.37,1.073,0.921
				s-0.37,1.031-0.921,1.073l-0.503,0.037C41.274,54.931,41.25,54.932,41.227,54.932z M82.659,54.924
				c-0.023,0-0.048-0.001-0.071-0.002l-0.506-0.038c-0.55-0.044-0.961-0.526-0.917-1.077c0.044-0.55,0.516-0.967,1.077-0.917
				l0.486,0.037c0.551,0.039,0.966,0.517,0.927,1.068C83.618,54.521,83.18,54.924,82.659,54.924z M45.68,54.442
				c-0.485,0-0.911-0.354-0.987-0.848c-0.084-0.546,0.29-1.056,0.836-1.14l0.478-0.077c0.541-0.096,1.06,0.275,1.152,0.819
				c0.092,0.545-0.275,1.061-0.82,1.152l-0.505,0.082C45.781,54.438,45.729,54.442,45.68,54.442z M78.208,54.424
				c-0.051,0-0.103-0.004-0.154-0.012l-0.503-0.082c-0.545-0.091-0.912-0.607-0.821-1.152c0.091-0.544,0.605-0.912,1.151-0.821
				l0.479,0.078c0.546,0.084,0.919,0.595,0.835,1.141C79.119,54.071,78.693,54.424,78.208,54.424z M50.063,53.528
				c-0.44,0-0.844-0.293-0.965-0.74c-0.144-0.533,0.172-1.082,0.705-1.226l0.467-0.129c0.533-0.151,1.084,0.156,1.236,0.687
				c0.151,0.531-0.156,1.084-0.688,1.236l-0.494,0.137C50.236,53.516,50.149,53.528,50.063,53.528z M73.825,53.498
				c-0.087,0-0.175-0.012-0.263-0.035l-0.493-0.138c-0.53-0.153-0.837-0.707-0.685-1.237c0.152-0.531,0.704-0.837,1.237-0.686
				l0.464,0.13c0.533,0.145,0.848,0.694,0.703,1.227C74.669,53.204,74.265,53.498,73.825,53.498z M54.297,52.074
				c-0.387,0-0.756-0.227-0.919-0.605c-0.218-0.507,0.017-1.096,0.524-1.313l0.441-0.195c0.505-0.226,1.096,0,1.321,0.503
				c0.227,0.504,0.001,1.096-0.503,1.322l-0.471,0.207C54.563,52.048,54.429,52.074,54.297,52.074z M69.597,52.029
				c-0.133,0-0.269-0.027-0.398-0.084l-0.471-0.21c-0.502-0.23-0.723-0.823-0.493-1.325s0.822-0.725,1.325-0.493l0.438,0.195
				c0.507,0.221,0.738,0.81,0.518,1.316C70.351,51.805,69.982,52.029,69.597,52.029z M58.233,49.947
				c-0.32,0-0.636-0.154-0.829-0.439c-0.31-0.457-0.189-1.079,0.268-1.389c0.131-0.089,0.262-0.179,0.391-0.271
				c0.451-0.32,1.074-0.213,1.395,0.236c0.319,0.45,0.214,1.075-0.236,1.395c-0.141,0.1-0.283,0.198-0.428,0.296
				C58.621,49.891,58.427,49.947,58.233,49.947z M65.672,49.883c-0.193,0-0.39-0.056-0.562-0.173
				c-0.145-0.098-0.286-0.197-0.427-0.298c-0.449-0.321-0.554-0.945-0.232-1.395c0.319-0.449,0.945-0.553,1.395-0.233
				c0.129,0.092,0.259,0.183,0.39,0.272c0.457,0.311,0.575,0.933,0.264,1.39C66.306,49.73,65.991,49.883,65.672,49.883z"/>
		</g>
		<path class="st6" d="M102.729,69.636c0.071-2.107-0.203-6.049-2.838-8.775c-2.424-2.508-6.617-3.779-12.465-3.779
			c-12.942,0-20.736-3.238-25.426-7.236c-4.69,3.998-12.484,7.236-25.426,7.236c-5.847,0-10.041,1.271-12.465,3.779
			c-2.635,2.726-2.91,6.667-2.839,8.775c0.044,1.294,0.044,2.607,0,3.901c-0.071,2.107,0.203,6.049,2.839,8.775
			c2.424,2.508,6.617,3.779,12.465,3.779c12.941,0,20.736,3.237,25.426,7.235c4.69-3.998,12.484-7.235,25.426-7.235
			c5.847,0,10.041-1.271,12.465-3.779c2.635-2.726,2.91-6.668,2.838-8.775C102.685,72.243,102.685,70.93,102.729,69.636z"/>
		<g>
			<g>
				<g>
					<g>
						<path class="st4" d="M40.866,73.601c0,0.379-0.094,0.79-0.281,1.231c-0.187,0.441-0.48,0.875-0.882,1.3
							c-0.4,0.425-0.913,0.771-1.536,1.036c-0.623,0.266-1.349,0.398-2.178,0.398c-0.629,0-1.201-0.06-1.716-0.179
							s-0.981-0.305-1.401-0.557c-0.421-0.252-0.807-0.584-1.159-0.996c-0.313-0.374-0.582-0.792-0.805-1.255
							c-0.222-0.463-0.389-0.958-0.499-1.483c-0.111-0.526-0.167-1.084-0.167-1.675c0-0.959,0.14-1.818,0.419-2.577
							c0.278-0.758,0.679-1.407,1.198-1.946c0.521-0.54,1.13-0.95,1.829-1.231s1.444-0.423,2.235-0.423
							c0.965,0,1.823,0.192,2.576,0.577c0.754,0.385,1.331,0.86,1.731,1.426c0.401,0.566,0.602,1.102,0.602,1.605
							c0,0.276-0.098,0.52-0.292,0.731c-0.195,0.211-0.432,0.317-0.708,0.317c-0.309,0-0.54-0.073-0.694-0.219
							s-0.327-0.398-0.517-0.756c-0.314-0.591-0.684-1.032-1.109-1.325c-0.426-0.292-0.949-0.438-1.572-0.438
							c-0.992,0-1.782,0.376-2.37,1.129c-0.588,0.753-0.882,1.824-0.882,3.211c0,0.927,0.13,1.697,0.391,2.313
							c0.26,0.615,0.628,1.074,1.105,1.377c0.477,0.304,1.035,0.456,1.674,0.456c0.694,0,1.28-0.172,1.76-0.516
							c0.479-0.344,0.842-0.85,1.086-1.516c0.103-0.314,0.229-0.57,0.382-0.768c0.151-0.198,0.396-0.297,0.731-0.297
							c0.287,0,0.533,0.101,0.739,0.301C40.763,73.054,40.866,73.303,40.866,73.601z"/>
						<path class="st4" d="M43.134,76.096v-9.388c0-0.487,0.11-0.854,0.333-1.097c0.222-0.244,0.509-0.366,0.861-0.366
							c0.363,0,0.657,0.121,0.882,0.362s0.338,0.608,0.338,1.101v9.388c0,0.493-0.113,0.862-0.338,1.105s-0.519,0.366-0.882,0.366
							c-0.347,0-0.633-0.123-0.857-0.37S43.134,76.584,43.134,76.096z"/>
						<path class="st4" d="M51.489,72.268h-0.846v3.828c0,0.504-0.111,0.875-0.333,1.114c-0.223,0.238-0.513,0.357-0.87,0.357
							c-0.385,0-0.683-0.125-0.894-0.374c-0.212-0.249-0.317-0.615-0.317-1.097v-9.168c0-0.521,0.116-0.897,0.35-1.13
							c0.232-0.233,0.609-0.35,1.13-0.35h3.926c0.542,0,1.005,0.023,1.39,0.069c0.385,0.046,0.731,0.139,1.041,0.28
							c0.374,0.157,0.704,0.382,0.991,0.675c0.287,0.292,0.506,0.632,0.654,1.02c0.149,0.387,0.224,0.798,0.224,1.231
							c0,0.889-0.251,1.599-0.752,2.129c-0.501,0.531-1.261,0.908-2.279,1.13c0.428,0.228,0.837,0.563,1.227,1.008
							c0.391,0.444,0.738,0.917,1.045,1.418c0.306,0.501,0.545,0.954,0.715,1.357c0.171,0.404,0.257,0.682,0.257,0.833
							c0,0.157-0.051,0.313-0.15,0.467c-0.101,0.155-0.237,0.276-0.411,0.366c-0.173,0.09-0.374,0.134-0.602,0.134
							c-0.271,0-0.498-0.063-0.683-0.191s-0.343-0.289-0.476-0.484c-0.133-0.195-0.313-0.482-0.54-0.861l-0.968-1.609
							c-0.347-0.591-0.657-1.041-0.931-1.349c-0.273-0.309-0.551-0.521-0.833-0.634S51.917,72.268,51.489,72.268z M52.871,67.261
							h-2.228v3.276h2.162c0.58,0,1.067-0.05,1.463-0.15s0.698-0.271,0.906-0.512c0.209-0.241,0.313-0.573,0.313-0.996
							c0-0.331-0.084-0.622-0.252-0.874s-0.401-0.44-0.699-0.564C54.255,67.321,53.7,67.261,52.871,67.261z"/>
						<path class="st4" d="M70.152,73.601c0,0.379-0.094,0.79-0.281,1.231c-0.187,0.441-0.48,0.875-0.882,1.3
							c-0.4,0.425-0.913,0.771-1.536,1.036c-0.623,0.266-1.349,0.398-2.178,0.398c-0.629,0-1.201-0.06-1.716-0.179
							s-0.981-0.305-1.401-0.557c-0.421-0.252-0.807-0.584-1.159-0.996c-0.313-0.374-0.582-0.792-0.805-1.255
							c-0.222-0.463-0.389-0.958-0.499-1.483c-0.111-0.526-0.167-1.084-0.167-1.675c0-0.959,0.14-1.818,0.419-2.577
							c0.278-0.758,0.679-1.407,1.198-1.946c0.521-0.54,1.13-0.95,1.829-1.231s1.444-0.423,2.235-0.423
							c0.965,0,1.823,0.192,2.576,0.577c0.754,0.385,1.331,0.86,1.731,1.426c0.401,0.566,0.602,1.102,0.602,1.605
							c0,0.276-0.098,0.52-0.292,0.731c-0.195,0.211-0.432,0.317-0.708,0.317c-0.309,0-0.54-0.073-0.694-0.219
							s-0.327-0.398-0.517-0.756c-0.314-0.591-0.684-1.032-1.109-1.325c-0.426-0.292-0.949-0.438-1.572-0.438
							c-0.992,0-1.782,0.376-2.37,1.129c-0.588,0.753-0.882,1.824-0.882,3.211c0,0.927,0.13,1.697,0.391,2.313
							c0.26,0.615,0.628,1.074,1.105,1.377c0.477,0.304,1.035,0.456,1.674,0.456c0.694,0,1.28-0.172,1.76-0.516
							c0.479-0.344,0.842-0.85,1.086-1.516c0.103-0.314,0.229-0.57,0.382-0.768c0.151-0.198,0.396-0.297,0.731-0.297
							c0.287,0,0.533,0.101,0.739,0.301C70.048,73.054,70.152,73.303,70.152,73.601z"/>
						<path class="st4" d="M72.337,72.439v-5.73c0-0.487,0.11-0.854,0.329-1.097c0.22-0.244,0.509-0.366,0.866-0.366
							c0.374,0,0.671,0.122,0.89,0.366c0.22,0.244,0.329,0.61,0.329,1.097v5.861c0,0.667,0.075,1.223,0.224,1.67
							c0.149,0.447,0.413,0.794,0.793,1.041c0.379,0.247,0.91,0.37,1.593,0.37c0.943,0,1.609-0.251,2-0.752
							c0.39-0.501,0.585-1.261,0.585-2.28v-5.909c0-0.493,0.108-0.86,0.325-1.101s0.507-0.362,0.87-0.362
							c0.362,0,0.656,0.121,0.882,0.362c0.225,0.241,0.337,0.608,0.337,1.101v5.73c0,0.932-0.091,1.71-0.272,2.333
							s-0.524,1.17-1.028,1.642c-0.434,0.401-0.938,0.694-1.512,0.878s-1.246,0.276-2.016,0.276c-0.916,0-1.704-0.099-2.365-0.296
							s-1.2-0.504-1.617-0.919c-0.418-0.414-0.724-0.945-0.919-1.593S72.337,73.338,72.337,72.439z"/>
						<path class="st4" d="M94.024,73.788c0,0.721-0.186,1.368-0.557,1.942s-0.915,1.024-1.63,1.349
							c-0.716,0.325-1.563,0.488-2.544,0.488c-1.176,0-2.146-0.222-2.91-0.667c-0.542-0.32-0.982-0.746-1.321-1.28
							c-0.338-0.534-0.508-1.052-0.508-1.557c0-0.292,0.102-0.543,0.305-0.751S85.32,73,85.635,73c0.255,0,0.471,0.081,0.646,0.244
							s0.326,0.404,0.451,0.724c0.151,0.379,0.315,0.696,0.491,0.951c0.177,0.255,0.425,0.465,0.744,0.63
							c0.319,0.166,0.739,0.248,1.26,0.248c0.716,0,1.297-0.167,1.743-0.5c0.447-0.333,0.671-0.749,0.671-1.248
							c0-0.396-0.12-0.716-0.361-0.963s-0.553-0.435-0.935-0.565c-0.383-0.13-0.894-0.269-1.532-0.415
							c-0.856-0.201-1.573-0.435-2.15-0.703c-0.577-0.269-1.035-0.634-1.374-1.098c-0.338-0.463-0.508-1.039-0.508-1.727
							c0-0.656,0.179-1.238,0.537-1.748c0.357-0.509,0.875-0.901,1.552-1.174c0.678-0.274,1.475-0.411,2.39-0.411
							c0.732,0,1.364,0.091,1.898,0.272c0.533,0.182,0.977,0.422,1.329,0.723c0.352,0.301,0.609,0.617,0.771,0.947
							c0.163,0.331,0.244,0.653,0.244,0.967c0,0.288-0.102,0.546-0.305,0.776c-0.203,0.23-0.456,0.346-0.76,0.346
							c-0.276,0-0.486-0.069-0.63-0.208s-0.3-0.364-0.468-0.679c-0.217-0.45-0.477-0.801-0.78-1.053s-0.791-0.378-1.463-0.378
							c-0.623,0-1.126,0.137-1.508,0.411c-0.382,0.274-0.573,0.603-0.573,0.988c0,0.238,0.065,0.444,0.195,0.618
							s0.309,0.322,0.536,0.447c0.228,0.125,0.458,0.222,0.691,0.293c0.232,0.07,0.617,0.173,1.154,0.309
							c0.672,0.157,1.28,0.331,1.824,0.521c0.545,0.189,1.008,0.42,1.391,0.69c0.382,0.271,0.68,0.614,0.894,1.028
							S94.024,73.187,94.024,73.788z"/>
					</g>
				</g>
				<g>
					<g>
						<g>
							<path class="st4" d="M43.239,49.649c-1.543,0-2.946-0.792-3.753-2.119l-0.803-1.32l-1.505,0.356
								c-0.34,0.081-0.688,0.122-1.032,0.122c-1.705,0-3.271-1.011-3.99-2.576c-0.726-1.58-0.472-3.383,0.664-4.706l1.01-1.174
								l-0.804-1.32c-0.839-1.379-0.87-3.039-0.083-4.44c0.784-1.396,2.254-2.263,3.837-2.263c0.585,0,1.161,0.117,1.711,0.346
								l1.427,0.597l1.007-1.172c0.841-0.978,2.054-1.538,3.328-1.538c1.238,0,2.43,0.522,3.269,1.432
								c0.836,0.908,1.24,2.093,1.139,3.339l-0.127,1.541l1.427,0.596c1.767,0.739,2.849,2.517,2.692,4.426
								s-1.514,3.487-3.377,3.929l-1.505,0.355l-0.126,1.541C47.455,47.909,45.562,49.649,43.239,49.649z"/>
							<path class="st5" d="M42.05,45.972l-1.137-1.868c-0.477-0.784-1.404-1.171-2.297-0.96l-2.128,0.504
								c-1.326,0.314-2.279-1.253-1.391-2.286l1.426-1.658c0.598-0.696,0.68-1.697,0.203-2.481l-1.137-1.868
								c-0.708-1.164,0.487-2.555,1.745-2.029l2.018,0.844c0.846,0.354,1.824,0.122,2.422-0.573l1.426-1.658
								c0.889-1.034,2.581-0.326,2.469,1.032l-0.179,2.18c-0.075,0.914,0.447,1.773,1.294,2.127l2.018,0.844
								c1.257,0.526,1.108,2.353-0.219,2.667l-2.128,0.504c-0.893,0.211-1.548,0.973-1.623,1.888l-0.179,2.18
								C44.543,46.714,42.758,47.137,42.05,45.972z"/>
						</g>
						<g>
							<path class="st4" d="M80.761,49.649c-2.322,0-4.216-1.741-4.405-4.048L76.23,44.06l-1.504-0.355
								c-1.864-0.441-3.222-2.02-3.378-3.929s0.926-3.687,2.692-4.426l1.427-0.596l-0.127-1.541
								c-0.102-1.246,0.303-2.431,1.139-3.339c0.839-0.91,2.03-1.432,3.269-1.432c1.274,0,2.487,0.561,3.327,1.538l1.008,1.173
								l1.427-0.597c0.55-0.229,1.126-0.346,1.711-0.346c1.583,0,3.053,0.867,3.837,2.263c0.787,1.401,0.756,3.061-0.084,4.441
								l-0.803,1.319l1.008,1.172c1.138,1.324,1.392,3.127,0.666,4.707c-0.719,1.565-2.285,2.577-3.989,2.577
								c-0.346,0-0.692-0.041-1.033-0.122l-1.505-0.356l-0.804,1.321C83.707,48.857,82.304,49.649,80.761,49.649L80.761,49.649z"/>
							<path class="st5" d="M81.951,45.972l1.137-1.868c0.477-0.784,1.404-1.171,2.297-0.96l2.128,0.504
								c1.326,0.314,2.279-1.253,1.391-2.286l-1.426-1.658c-0.598-0.696-0.68-1.697-0.203-2.481l1.137-1.868
								c0.708-1.164-0.487-2.555-1.745-2.029l-2.018,0.844c-0.846,0.354-1.824,0.122-2.422-0.573L80.8,31.935
								c-0.889-1.034-2.581-0.326-2.469,1.032l0.179,2.18c0.075,0.914-0.447,1.773-1.294,2.127l-2.018,0.844
								c-1.257,0.526-1.108,2.353,0.219,2.667l2.128,0.504c0.893,0.211,1.548,0.973,1.623,1.888l0.179,2.18
								C79.458,46.714,81.242,47.137,81.951,45.972z"/>
						</g>
					</g>
					<g>
						<g>
							<path class="st4" d="M67.54,42.246c-1.057,0-2.077-0.335-2.951-0.97l-2.556-1.857l-2.624,1.857
								c-0.873,0.635-1.894,0.97-2.95,0.97c-1.608,0-3.139-0.784-4.094-2.098c-0.948-1.306-1.203-2.946-0.699-4.499l0.978-3.004
								l-2.577-1.922c-1.769-1.285-2.504-3.546-1.828-5.625s2.6-3.477,4.786-3.477h3.159l1.032-3.044
								c0.675-2.079,2.599-3.476,4.785-3.476s4.11,1.397,4.786,3.477l0.976,3.005l3.214,0.041c2.188,0,4.11,1.397,4.786,3.478
								c0.676,2.08-0.06,4.341-1.829,5.625l-2.556,1.856l0.955,3.07c0.504,1.552,0.249,3.192-0.699,4.498
								C70.678,41.462,69.148,42.246,67.54,42.246L67.54,42.246z"/>
							<g>
								<path class="st0" d="M95.169,97.381c-1.135,0.282-2.331,0.511-3.556,0.68c-0.547,0.076-0.93,0.581-0.854,1.128
									c0.069,0.5,0.497,0.863,0.989,0.863c0.045,0,0.092-0.003,0.138-0.009c1.296-0.179,2.563-0.422,3.765-0.721
									c0.536-0.133,0.862-0.676,0.729-1.211C96.247,97.573,95.702,97.246,95.169,97.381z"/>
								<path class="st0" d="M115.315,70.286c0.259-7.583-2.208-14.458-6.945-19.359c-3.842-3.975-8.963-6.494-15.242-7.576
									c0.336-1.616-0.073-3.296-1.191-4.598l-0.534-0.622l0.425-0.698c1.03-1.693,1.068-3.73,0.102-5.451
									c-0.961-1.71-2.766-2.773-4.709-2.773c-0.718,0-1.423,0.143-2.097,0.424l-0.756,0.316l-0.534-0.622
									c-1.03-1.198-2.52-1.886-4.086-1.886c-1.069,0-2.106,0.324-2.988,0.902c0.332-1.135,0.34-2.367-0.046-3.554
									c-0.811-2.493-3.116-4.168-5.725-4.168l-2.497-0.031l-0.754-2.323c-0.811-2.493-3.116-4.167-5.737-4.167
									c-2.622,0-4.928,1.675-5.732,4.155l-0.802,2.366h-2.442c-2.621,0-4.927,1.675-5.737,4.168
									c-0.385,1.187-0.377,2.421-0.046,3.556c-0.881-0.578-1.919-0.902-2.988-0.902c-1.566,0-3.056,0.688-4.087,1.887
									l-0.533,0.621l-0.757-0.316c-0.673-0.281-1.378-0.423-2.096-0.423c-1.943,0-3.748,1.063-4.709,2.773
									c-0.966,1.72-0.929,3.757,0.101,5.45l0.426,0.699l-0.536,0.624c-1.117,1.301-1.526,2.981-1.189,4.597
									c-6.279,1.082-11.401,3.601-15.243,7.576C10.892,55.83,8.426,62.7,8.685,70.269c0.027,0.876,0.027,1.758,0,2.618
									c-0.259,7.582,2.207,14.457,6.944,19.358c5.26,5.442,12.881,8.202,22.651,8.202c6.358,0,11.509,1.153,13.775,3.085
									l5.564,4.744c1.269,1.083,2.824,1.624,4.38,1.624c1.557,0,3.112-0.541,4.381-1.624l5.563-4.743
									c2.268-1.933,7.417-3.087,13.776-3.087c0.633,0,1.257-0.012,1.87-0.035c0.552-0.021,0.982-0.485,0.962-1.037
									c-0.02-0.552-0.479-0.988-1.036-0.962c-0.59,0.022-1.188,0.034-1.796,0.034c-6.922,0-12.416,1.299-15.073,3.565
									l-5.563,4.743c-1.788,1.522-4.381,1.521-6.167,0l-5.564-4.745c-2.656-2.265-8.15-3.563-15.072-3.563
									c-9.208,0-16.345-2.554-21.214-7.592c-4.356-4.508-6.623-10.865-6.384-17.902c0.029-0.904,0.029-1.829,0-2.75
									c-0.239-7.025,2.027-13.377,6.384-17.886c3.627-3.751,8.532-6.101,14.593-7.068c1.231,1.843,3.542,2.815,5.75,2.29
									l0.798-0.188l0.227,0.373c-0.052,0-0.101,0.002-0.153,0.002c-8.362,0-14.773,2.246-19.056,6.676
									c-3.785,3.917-5.754,9.495-5.543,15.707c0.031,0.981,0.031,1.974,0,2.948c-0.211,6.216,1.758,11.797,5.543,15.713
									c4.281,4.43,10.693,6.677,19.056,6.677c7.848,0,13.733,1.48,17.02,4.281v0l6.052,5.16c0.187,0.16,0.418,0.239,0.648,0.239
									s0.462-0.08,0.648-0.239l6.052-5.159c3.286-2.801,9.172-4.281,17.02-4.281c8.362,0,14.774-2.247,19.056-6.677
									c3.786-3.917,5.755-9.496,5.544-15.707c-0.032-0.981-0.032-1.973,0-2.948c0.211-6.216-1.759-11.797-5.545-15.714
									c-4.281-4.43-10.692-6.676-19.055-6.676c-0.052,0-0.102-0.002-0.154-0.002l0.227-0.373l0.798,0.189
									c2.213,0.525,4.52-0.447,5.75-2.29c6.061,0.967,10.966,3.317,14.592,7.068c4.356,4.508,6.624,10.865,6.385,17.903
									c-0.029,0.904-0.029,1.829,0,2.75c0.239,7.024-2.027,13.376-6.384,17.885c-2.271,2.35-5.068,4.18-8.313,5.438
									c-0.516,0.199-0.771,0.779-0.571,1.293c0.2,0.515,0.78,0.771,1.294,0.571c3.518-1.364,6.555-3.353,9.028-5.913
									c4.737-4.902,7.203-11.771,6.944-19.34C115.288,72.028,115.288,71.146,115.315,70.286z M74.343,33.295l0.067,0.816
									l-0.756,0.316c-0.198,0.083-0.381,0.187-0.564,0.29l-0.544-1.749l1.93-1.402C74.343,32.122,74.295,32.702,74.343,33.295z
									 M49.524,31.565l1.947,1.452l-0.554,1.704c-0.185-0.105-0.37-0.21-0.571-0.294l-0.756-0.316l0.067-0.817
									C49.705,32.701,49.657,32.12,49.524,31.565z M52.932,42.092c0.792,0.57,1.709,0.947,2.679,1.086L55.3,43.444
									c-1.648,1.405-3.953,2.475-6.828,3.195c0.081-0.309,0.143-0.627,0.17-0.956l0.066-0.816l0.798-0.188
									C51,44.324,52.21,43.363,52.932,42.092z M71.068,42.092c0.722,1.271,1.932,2.231,3.427,2.585l0.797,0.188l0.066,0.817
									c0.027,0.33,0.088,0.647,0.17,0.956c-2.875-0.72-5.18-1.79-6.828-3.195l-0.311-0.265
									C69.358,43.039,70.276,42.663,71.068,42.092z M49.189,25.406c0.541-1.667,2.083-2.786,3.835-2.786h3.159
									c0.429,0,0.81-0.273,0.947-0.679l1.036-3.057c0.541-1.666,2.081-2.785,3.834-2.785s3.294,1.12,3.835,2.785l0.976,3.005
									c0.133,0.408,0.51,0.686,0.938,0.691l3.227,0.041c1.752,0,3.294,1.12,3.835,2.787c0.542,1.667-0.047,3.478-1.466,4.507
									l-2.556,1.856c-0.347,0.252-0.494,0.697-0.367,1.106l0.959,3.082c0.404,1.245,0.201,2.558-0.557,3.602
									c-0.768,1.055-1.996,1.686-3.285,1.686c-0.844,0-1.661-0.27-2.363-0.779l-2.556-1.857c-0.175-0.127-0.382-0.191-0.588-0.191
									c-0.202,0-0.404,0.061-0.578,0.184l-2.634,1.865c-0.701,0.509-1.518,0.778-2.362,0.778c-1.289,0-2.518-0.63-3.284-1.686
									c-0.759-1.044-0.962-2.357-0.558-3.602l0.978-3.004c0.133-0.408-0.01-0.855-0.354-1.111l-2.587-1.929
									C49.236,28.884,48.648,27.072,49.189,25.406z M36.948,45.594c-1.57,0.374-3.214-0.443-3.883-1.899
									c-0.562-1.221-0.364-2.615,0.513-3.636l1.01-1.174c0.283-0.329,0.321-0.802,0.097-1.172l-0.804-1.32
									c-0.648-1.066-0.674-2.349-0.065-3.431c0.832-1.48,2.712-2.143,4.29-1.484l1.427,0.597c0.4,0.168,0.862,0.059,1.145-0.271
									l1.006-1.172c0.651-0.756,1.588-1.19,2.57-1.19c0.96,0,1.883,0.404,2.533,1.109c0.645,0.7,0.956,1.616,0.877,2.58
									l-0.127,1.541c-0.035,0.432,0.212,0.837,0.611,1.005l1.427,0.596c0.317,0.133,0.602,0.312,0.856,0.522
									c-0.098,1.333,0.256,2.651,1.024,3.781c-0.384,1.061-1.27,1.885-2.409,2.155l-1.505,0.355
									c-0.422,0.1-0.731,0.459-0.768,0.892l-0.126,1.541c-0.146,1.785-1.611,3.13-3.408,3.13c-1.191,0-2.274-0.612-2.898-1.638
									l-0.803-1.32c-0.185-0.303-0.511-0.48-0.854-0.48c-0.076,0-0.153,0.009-0.23,0.027L36.948,45.594z M103.337,55.791
									c3.405,3.524,5.176,8.587,4.984,14.257c-0.034,1.019-0.034,2.056,0,3.082c0.191,5.666-1.578,10.727-4.983,14.25
									c-3.891,4.025-9.818,6.066-17.618,6.066c-8.33,0-14.663,1.646-18.316,4.759L62,102.813l-5.403-4.606c0,0,0,0,0,0
									c-3.653-3.113-9.986-4.759-18.316-4.759c-7.8,0-13.728-2.041-17.618-6.066c-3.404-3.523-5.174-8.586-4.982-14.258
									c0.033-1.019,0.033-2.054,0-3.08c-0.191-5.667,1.578-10.728,4.982-14.251c3.892-4.025,9.819-6.066,17.618-6.066
									c0.649,0,1.28-0.014,1.903-0.035c0.883,0.612,1.937,0.958,3.056,0.958c1.558,0,2.943-0.653,3.93-1.696
									c4.018-0.769,7.219-2.106,9.428-3.988l3.319-2.829c0.023-0.016,0.049-0.027,0.072-0.044l2.038-1.443l1.976,1.436
									c0.027,0.02,0.057,0.033,0.084,0.052l3.318,2.829c2.208,1.882,5.41,3.218,9.428,3.988c0.987,1.042,2.372,1.695,3.929,1.695
									c1.119,0,2.174-0.346,3.057-0.958c0.623,0.021,1.254,0.035,1.902,0.035C93.519,49.726,99.446,51.766,103.337,55.791z
									 M87.052,45.594l-1.505-0.356c-0.424-0.098-0.859,0.083-1.085,0.453l-0.804,1.321c-0.623,1.025-1.706,1.637-2.897,1.637
									c-1.797,0-3.262-1.346-3.408-3.13l-0.126-1.541c-0.036-0.432-0.346-0.792-0.767-0.892l-1.504-0.355
									c-1.14-0.27-2.027-1.094-2.41-2.155c0.769-1.131,1.122-2.451,1.024-3.782c0.254-0.21,0.539-0.389,0.856-0.522l1.427-0.596
									c0.399-0.167,0.646-0.573,0.611-1.005l-0.127-1.54c-0.079-0.964,0.232-1.88,0.877-2.58c0.65-0.706,1.573-1.11,2.533-1.11
									c0.982,0,1.919,0.434,2.568,1.189l1.008,1.173c0.283,0.329,0.745,0.438,1.145,0.271l1.426-0.596
									c1.584-0.661,3.459,0.003,4.291,1.483c0.608,1.082,0.583,2.364-0.066,3.431l-0.803,1.319
									c-0.225,0.37-0.187,0.843,0.096,1.172l1.008,1.172c0.879,1.023,1.077,2.417,0.516,3.638
									C90.267,45.152,88.628,45.968,87.052,45.594z"/>
							</g>
						</g>
						<path class="st5" d="M69.479,36.577l-0.976-3.004c-0.409-1.26,0.039-2.641,1.111-3.419l2.556-1.856
							c1.593-1.157,0.774-3.676-1.194-3.676l-3.159,0c-1.325,0-2.499-0.853-2.909-2.114l-0.976-3.004
							c-0.608-1.872-3.257-1.872-3.865,0l-0.976,3.004c-0.41,1.26-1.584,2.113-2.909,2.113l-3.159,0
							c-1.968,0-2.787,2.519-1.195,3.676l2.555,1.857c1.072,0.779,1.52,2.159,1.111,3.419l-0.976,3.004
							c-0.608,1.872,1.534,3.429,3.127,2.272l2.556-1.856c1.072-0.779,2.523-0.779,3.595,0l2.555,1.857
							C67.945,40.006,70.088,38.449,69.479,36.577z"/>
					</g>
				</g>
			</g>
		</g>
	</g>
</g>
</svg>
