<?xml version="1.0" encoding="utf-8"?>
<!-- Generator: Adobe Illustrator 22.0.1, SVG Export Plug-In . SVG Version: 6.00 Build 0)  -->
<svg version="1.1" id="Layer_1" xmlns="http://www.w3.org/2000/svg" xmlns:xlink="http://www.w3.org/1999/xlink" x="0px" y="0px"
	 viewBox="0 0 128 128" style="enable-background:new 0 0 128 128;" xml:space="preserve">
<style type="text/css">
	.st0{fill:#3A2C60;}
	.st1{fill:#E6E7E8;}
	.st2{fill:#6DC9F7;}
	.st3{fill:#FFFFFF;}
	.st4{fill:#FA759E;}
	.st5{fill:#FFD7E5;}
	.st6{fill:#D4FBFF;}
	.st7{fill:#0089EF;}
</style>
<g>
	<path class="st1" d="M123.301,87.421h-7.497v-0.726c0-2.205-1.794-3.999-3.999-3.999c-2.206,0-4,1.794-4,3.999v9.034
		c0,0.25-0.203,0.453-0.453,0.453h-1.8c0.003-0.02,0.011-0.038,0.014-0.059c0.016-0.114,0.029-0.243,0.029-0.357v-2.561
		c0-1.334-1.085-2.42-2.42-2.42h-2.497V22.303c0.698,0.306,1.467,0.478,2.276,0.478c3.091,0,5.609-2.476,5.687-5.549
		c0-0.01,0.006-0.019,0.006-0.03v-0.088c0-0.01,0.001-0.019,0.001-0.029s-0.001-0.019-0.001-0.029V9.975
		c0-1.926-1.566-3.492-3.492-3.492L15.56,6.479c-1.926,0-3.492,1.566-3.492,3.492v7.1c0,0.001,0.001,0.002,0.001,0.003
		c0,0.004-0.001,0.008-0.001,0.012c0,3.141,2.555,5.695,5.695,5.695c0.809,0,1.578-0.172,2.276-0.478v68.483h-2.502
		c-1.329,0-2.41,1.086-2.41,2.42v2.561c0,0.114,0.014,0.243,0.031,0.365c0.003,0.018,0.009,0.033,0.012,0.051H9.931
		c-2.205,0-3.999,1.794-3.999,3.999v4.3c0,2.205,1.794,3.999,3.999,3.999h3.563c0.523,9.482,8.344,17.041,17.911,17.041
		s17.389-7.559,17.912-17.041h22.104c0.523,9.482,8.345,17.041,17.912,17.041s17.389-7.559,17.912-17.041h4.56
		c2.205,0,3.999-1.794,3.999-3.999V92.956h7.497c1.526,0,2.767-1.241,2.767-2.768S124.827,87.421,123.301,87.421z M82.014,63.207
		c4.38-3.263,7.715-6.407,8.352-8.755c0.023-0.08,0.042-0.153,0.054-0.226c0.055-0.252,0.077-0.504,0.067-0.769
		c-0.155-5.1-1.749-13.174-5.267-19.378c1.178-3.213,0.272-6.421-0.233-7.193c-0.531-0.813-1.794-0.919-2.974-0.809v-3.669
		c0.626,0.237,1.302,0.373,2.01,0.373c1.971,0,3.71-1.007,4.733-2.532c1.023,1.526,2.762,2.532,4.733,2.532
		c0.416,0,0.82-0.048,1.21-0.132v40.443c-0.354-0.748-0.869-1.441-1.612-1.991c-1.644-1.215-3.595-1.606-5.493-1.105
		c-2.031,0.538-3.78,2.066-4.676,4.09c-1.345,3.036-0.726,5.854-0.227,8.118c0.145,0.657,0.294,1.337,0.388,1.987
		c0.286,1.996,0.025,3.995-0.648,4.974c-0.128,0.186-0.27,0.351-0.417,0.506V63.207z M89.566,65.411
		c-0.638,0.278-1.387,0.819-1.815,1.705c0.054-0.265,0.126-0.526,0.24-0.783c0.215-0.484,0.616-0.867,1.024-0.975
		c0.348-0.093,0.525-0.048,0.541-0.046C89.564,65.334,89.566,65.369,89.566,65.411z M18.671,108.48h8.124
		c0.123,0.563,0.348,1.087,0.652,1.556l-5.751,5.779C19.987,113.808,18.887,111.269,18.671,108.48z M30.406,120.278
		c-2.776-0.218-5.302-1.325-7.3-3.044l5.76-5.788c0.465,0.299,0.983,0.522,1.54,0.643V120.278z M26.018,90.263V22.649
		c0.391,0.085,0.795,0.133,1.21,0.133c1.971,0,3.71-1.007,4.733-2.532c1.023,1.526,2.762,2.532,4.733,2.532
		c0.708,0,1.384-0.136,2.01-0.373v3.373c-1.204-0.175-2.467-0.119-3.009,0.711c-0.443,0.678-1.43,4.181-0.208,7.571
		c-3.522,6.208-5.124,14.302-5.285,19.428c0,0.261,0.024,0.501,0.075,0.733c0,0.001,0,0.002,0,0.004
		c0.016,0.093,0.043,0.188,0.059,0.229c0.628,2.341,3.973,5.488,8.367,8.759v27.569h-0.493c-2.101-0.868-4.397-1.354-6.806-1.354
		C29.529,89.432,27.72,89.725,26.018,90.263z M32.406,120.278v-8.189c0.557-0.121,1.075-0.344,1.54-0.643l5.759,5.787
		C37.707,118.953,35.181,120.061,32.406,120.278z M41.115,115.816l-5.751-5.779c0.304-0.469,0.529-0.993,0.652-1.556h8.124
		C43.924,111.269,42.824,113.808,41.115,115.816z M44.684,68.353v-0.992c0.133,0.087,0.267,0.174,0.401,0.26
		C44.949,67.863,44.814,68.105,44.684,68.353z M57.37,26.742c-3.37-1.187-8.244-2.272-12.686-0.948V22.58
		c0.472,0.127,0.965,0.201,1.477,0.201c1.971,0,3.71-1.007,4.733-2.532c1.023,1.526,2.762,2.532,4.733,2.532
		c0.608,0,1.193-0.098,1.743-0.275V26.742z M76.035,69.01c-0.207-0.416-0.423-0.828-0.649-1.236c0.217-0.14,0.433-0.28,0.649-0.421
		V69.01z M76.035,25.802c-4.438-1.334-9.311-0.256-12.687,0.93v-4.227c0.55,0.177,1.135,0.275,1.744,0.275
		c1.971,0,3.71-1.007,4.733-2.533c1.023,1.526,2.762,2.533,4.733,2.533c0.512,0,1.005-0.074,1.477-0.201V25.802z M76.598,108.48
		h8.124c0.123,0.563,0.348,1.087,0.652,1.556l-5.751,5.779C77.914,113.808,76.814,111.269,76.598,108.48z M88.333,120.278
		c-2.775-0.218-5.302-1.325-7.299-3.044l5.759-5.788c0.465,0.299,0.983,0.522,1.54,0.643V120.278z M82.527,90.786h-0.512V85.96
		c2.011-0.591,3.728-1.821,4.986-3.649c2.185-3.173,1.755-7.62,1.571-8.907c-0.091-0.632-0.213-1.231-0.336-1.802
		c0.412,0.817,0.965,1.685,1.687,2.614c0.194,0.25,0.488,0.387,0.79,0.387c0.122,0,0.246-0.022,0.365-0.069
		c0.304-0.119,2.25-0.923,3.622-2.38v18.103c-1.696-0.534-3.498-0.824-5.367-0.824C86.924,89.432,84.628,89.918,82.527,90.786z
		 M90.333,120.278v-8.189c0.557-0.121,1.075-0.344,1.54-0.643l5.759,5.788C95.635,118.954,93.108,120.061,90.333,120.278z
		 M99.042,115.816l-5.751-5.779c0.304-0.469,0.53-0.993,0.652-1.556h8.124C101.852,111.269,100.751,113.808,99.042,115.816z"/>
	<g>
		<path class="st7" d="M119.301,84.421h-8.497v3.535h8.497c0.976,0,1.767-0.791,1.767-1.767l0,0
			C121.069,85.212,120.277,84.421,119.301,84.421z"/>
		<g>
			<g>
				<g>
					<path class="st4" d="M90.101,62.705c-0.1,0.397-0.235,0.78-0.428,1.121c-0.01,0.017-0.019,0.034-0.029,0.05
						c-1.128,1.928-4.089,0.363-3.229-1.698c-0.001,0-4.726,0.96,0.297,7.424C86.712,69.603,93.544,66.915,90.101,62.705z"/>
					<path class="st5" d="M88.494,57.905c-1.396-1.031-3.045-1.366-4.643-0.943c-1.741,0.461-3.243,1.78-4.018,3.528
						c-1.212,2.737-0.656,5.266-0.165,7.498c0.156,0.712,0.304,1.384,0.401,2.06c0.324,2.263,0.004,4.493-0.815,5.683
						c-1.292,1.876-3.165,2.165-4.509,2.076c-0.405-0.026-0.797-0.114-1.183-0.226c-0.078,1.004-0.218,1.974-0.471,2.839
						c-0.065,0.224-0.141,0.44-0.217,0.656c0.528,0.136,1.073,0.234,1.638,0.271c3.197,0.209,5.919-1.071,7.663-3.604
						c1.981-2.876,1.576-7.002,1.404-8.198c-0.116-0.807-0.285-1.576-0.448-2.319c-0.428-1.945-0.797-3.625-0.056-5.298
						c0.338-0.762,0.982-1.351,1.682-1.536c0.553-0.146,1.253-0.171,1.628,0.367c0.385,0.553,0.029,1.42,0.029,1.42
						c-0.861,2.061,2.101,3.626,3.228,1.698c0.01-0.017,0.019-0.033,0.029-0.05C90.666,62.077,90.494,59.385,88.494,57.905z"/>
					<path class="st5" d="M71.617,83.718c0.611-0.971,1.119-2.078,1.475-3.298c0.29-0.993,0.452-2.113,0.515-3.279
						c0.342-2.455-0.021-5.11-0.841-7.709c-0.211-0.752-0.448-1.417-0.701-1.951l-0.001,0.001c-0.567-1.401-1.253-2.764-2.015-4.05
						c-4.721,3.012-9.421,5.711-12.298,7.32l-1.408,0.777l-1.401-0.777c-2.927-1.638-7.737-4.4-12.536-7.473
						c-3.08,5.121-4.952,11.525-2.972,16.511c0.052,0.211,1.03,2.955,1.641,3.927c-1.466,0.324-3.186,1.292-3.099,4.069h36.74
						C74.803,85.01,73.083,84.042,71.617,83.718z"/>
					<g>
						<g>
							<path class="st5" d="M39.635,25.481c-0.001-1.735-6.374-3.556-7.101-2.442c-0.4,0.613-1.734,5.495,1.227,9.029L39.635,25.481
								z"/>
							<path class="st5" d="M74.738,24.135c2.158,1.435,3.925,3.577,5.372,6.039c1.346-3.076,0.373-6.234,0.042-6.741
								c-0.502-0.769-3.683-0.327-5.608,0.591C74.607,24.064,74.674,24.093,74.738,24.135z"/>
						</g>
						<path class="st3" d="M85.488,49.491c0.008,0.185-0.008,0.369-0.054,0.562c0,0.008,0,0.008,0,0.008
							c-0.008,0.046-0.023,0.092-0.038,0.146C83.91,55.686,65.018,66.69,57.754,70.753l-1.408,0.777l-1.401-0.777
							c-7.272-4.071-26.172-15.075-27.642-20.554c-0.015-0.046-0.031-0.092-0.039-0.138v-0.008
							c-0.046-0.192-0.062-0.377-0.062-0.562c0.2-6.372,3.086-20.254,10.75-25.356c6.464-4.294,15.668-0.408,18.392,0.923
							c2.724-1.331,11.928-5.217,18.392-0.923C82.41,29.237,85.296,43.119,85.488,49.491z"/>
						<path class="st4" d="M85.393,50.207c-1.485,5.479-20.377,16.484-27.642,20.547l-1.408,0.777l-1.401-0.777
							C47.67,66.683,28.77,55.678,27.3,50.199c0.577-6.857,3.578-19.046,10.65-23.756c6.464-4.294,15.668-0.408,18.392,0.923
							c2.724-1.331,11.928-5.217,18.392-0.923C81.814,31.153,84.823,43.35,85.393,50.207z"/>
						<path class="st5" d="M56.346,29.483c-8.768,0-15.876,5.608-15.876,14.072s7.108,17.166,15.876,17.166
							c8.768,0,15.876-8.703,15.876-17.166S65.115,29.483,56.346,29.483z"/>
						<path class="st3" d="M57.14,43.034h-1.587c-3.02,0-5.469,2.449-5.469,5.469v8.327c0,1.84,1.492,3.332,3.332,3.332h5.861
							c1.84,0,3.332-1.492,3.332-3.332v-8.327C62.609,45.483,60.16,43.034,57.14,43.034z"/>
						<g>
							<g>
								<circle class="st4" cx="53.978" cy="48.214" r="0.387"/>
								<circle class="st4" cx="51.489" cy="49.353" r="0.387"/>
								<circle class="st4" cx="51.691" cy="46.951" r="0.387"/>
							</g>
							<g>
								<circle class="st4" cx="58.715" cy="48.152" r="0.387"/>
								<circle class="st4" cx="61.204" cy="49.29" r="0.387"/>
								<circle class="st4" cx="61.002" cy="46.889" r="0.387"/>
							</g>
						</g>
					</g>
				</g>
			</g>
			<g>
				<g>
					<path class="st2" d="M18.495,16.249c-0.39,0.582-0.885,1.086-1.456,1.49v70.049h3.979v-69.46
						C19.989,17.892,19.111,17.167,18.495,16.249z"/>
					<path class="st2" d="M37.427,16.248c-0.448,0.669-1.04,1.229-1.723,1.658v69.882h3.979V18.202
						C38.771,17.758,37.989,17.086,37.427,16.248z"/>
					<path class="st2" d="M56.359,16.249c-0.507,0.756-1.19,1.383-1.99,1.825v69.714h3.979V18.074
						C57.549,17.632,56.866,17.005,56.359,16.249z"/>
					<path class="st2" d="M75.291,16.249c-0.561,0.837-1.343,1.51-2.256,1.954v69.585h3.979V17.906
						C76.331,17.478,75.739,16.918,75.291,16.249z"/>
					<path class="st2" d="M94.223,16.249c-0.616,0.918-1.494,1.643-2.523,2.079v69.46h3.979V17.739
						C95.108,17.335,94.613,16.83,94.223,16.249z"/>
				</g>
				<g>
					<g>
						<path class="st4" d="M9.175,14.07c0.453,2.12,2.333,3.711,4.588,3.711s4.135-1.591,4.588-3.711H9.175z"/>
						<path class="st3" d="M18.643,14.078c0.456,2.116,2.333,3.703,4.585,3.703s4.13-1.587,4.585-3.703H18.643z"/>
						<path class="st4" d="M28.109,14.078c0.456,2.116,2.333,3.703,4.586,3.703s4.13-1.587,4.585-3.703H28.109z"/>
						<path class="st3" d="M46.609,14.078h-9.035c0.456,2.116,2.333,3.703,4.585,3.703c2.245,0,4.116-1.578,4.58-3.684
							C46.697,14.09,46.651,14.091,46.609,14.078z"/>
						<path class="st4" d="M47.054,14.12c0.472,2.094,2.336,3.661,4.572,3.661s4.1-1.567,4.572-3.661H47.054z"/>
						<path class="st3" d="M65.53,14.12h-9.01c0.472,2.094,2.336,3.661,4.572,3.661c2.23,0,4.087-1.558,4.567-3.642
							C65.616,14.132,65.571,14.132,65.53,14.12z"/>
						<path class="st4" d="M65.998,14.161c0.488,2.073,2.338,3.62,4.56,3.62s4.072-1.547,4.56-3.62H65.998z"/>
						<path class="st3" d="M84.443,14.161h-8.979c0.488,2.073,2.338,3.62,4.56,3.62c2.214,0,4.059-1.538,4.554-3.6
							C84.533,14.174,84.485,14.174,84.443,14.161z"/>
						<path class="st4" d="M84.943,14.203c0.503,2.051,2.341,3.578,4.547,3.578s4.043-1.527,4.547-3.578H84.943z"/>
						<path class="st3" d="M94.409,14.203c0.503,2.051,2.341,3.578,4.547,3.578s4.043-1.527,4.547-3.578H94.409z"/>
					</g>
					<g>
						<g>
							<path class="st4" d="M11.581,3.512c-1.376,0-2.492,1.116-2.492,2.492v7.1h9.461V3.512H11.581z"/>
							<rect x="18.544" y="3.512" class="st3" width="9.461" height="9.592"/>
							<rect x="28.002" y="3.512" class="st4" width="9.461" height="9.592"/>
							<rect x="37.46" y="3.512" class="st3" width="9.461" height="9.592"/>
							<rect x="46.919" y="3.512" class="st4" width="9.461" height="9.592"/>
							<rect x="56.377" y="3.512" class="st3" width="9.461" height="9.592"/>
							<rect x="65.835" y="3.512" class="st4" width="9.461" height="9.592"/>
							<rect x="75.294" y="3.512" class="st3" width="9.461" height="9.592"/>
							<rect x="84.752" y="3.512" class="st4" width="9.461" height="9.592"/>
							<path class="st3" d="M101.179,3.512H94.21v9.592h9.461v-7.1C103.671,4.627,102.555,3.512,101.179,3.512z"/>
						</g>
					</g>
				</g>
				<path class="st3" d="M99.179,87.788H13.54c-0.782,0-1.416,0.634-1.416,1.416v2.563c0,0.782,0.634,1.416,1.416,1.416h85.639
					c0.782,0,1.416-0.634,1.416-1.416v-2.563C100.594,88.422,99.96,87.788,99.179,87.788z"/>
				<path class="st2" d="M100.576,91.986c-0.1,0.68-0.69,1.2-1.4,1.2h-85.64c-0.71,0-1.29-0.52-1.39-1.2c0.1-0.68,0.68-1.2,1.39-1.2
					h85.64C99.886,90.786,100.476,91.306,100.576,91.986z"/>
			</g>
		</g>
		<path class="st4" d="M104.806,82.695v9.035c0,0.802-0.65,1.453-1.453,1.453H5.931c-1.656,0-2.999,1.343-2.999,2.999v4.299
			c0,1.656,1.343,2.999,2.999,2.999h98.874h0.427h2.572c1.656,0,2.999-1.343,2.999-2.999V82.695c0-1.656-1.343-2.999-2.999-2.999h0
			C106.148,79.696,104.806,81.039,104.806,82.695z"/>
		<g>
			<g>
				<path class="st7" d="M27.405,86.431c-9.353,0-16.962,7.647-16.962,17.045s7.609,17.045,16.962,17.045
					s16.962-7.646,16.962-17.045S36.758,86.431,27.405,86.431z M27.405,117.329c-7.613,0-13.785-6.202-13.785-13.853
					s6.172-13.853,13.785-13.853c7.613,0,13.785,6.202,13.785,13.853S35.019,117.329,27.405,117.329z"/>
				<circle class="st2" cx="27.405" cy="103.476" r="3.724"/>
			</g>
			<g>
				<path class="st7" d="M85.333,86.431c-9.353,0-16.962,7.647-16.962,17.045s7.609,17.045,16.962,17.045
					s16.962-7.646,16.962-17.045S94.686,86.431,85.333,86.431z M85.333,117.329c-7.613,0-13.785-6.202-13.785-13.853
					s6.172-13.853,13.785-13.853c7.613,0,13.785,6.202,13.785,13.853S92.946,117.329,85.333,117.329z"/>
				<g>
					<g>
						<g>
							<g>
								<path class="st2" d="M85.333,99.753c-2.057,0-3.724,1.667-3.724,3.724s1.667,3.724,3.724,3.724
									c2.056,0,3.724-1.667,3.724-3.724S87.389,99.753,85.333,99.753z"/>
								<g>
									<path class="st0" d="M119.301,83.421h-7.497v-0.726c0-2.206-1.794-4-4-4c-2.205,0-3.999,1.794-3.999,4v9.034
										c0,0.25-0.203,0.453-0.453,0.453h-1.799c0.003-0.018,0.009-0.034,0.012-0.052c0.017-0.116,0.03-0.248,0.03-0.364v-2.561
										c0-1.334-1.085-2.42-2.42-2.42h-2.497v-67.48v-1.01v-0.018c0.699,0.312,1.463,0.503,2.276,0.503
										c3.091,0,5.609-2.476,5.688-5.548c0-0.01,0.006-0.019,0.006-0.03v-0.088c0-0.01,0.001-0.019,0.001-0.029
										s-0.001-0.019-0.001-0.029V5.97c0-1.925-1.566-3.491-3.492-3.491H63.408c-0.552,0-1,0.447-1,1s0.448,1,1,1h37.749
										c0.823,0,1.492,0.669,1.492,1.491v6.233H10.067V5.971c0-0.823,0.669-1.492,1.492-1.492h36.849c0.552,0,1-0.447,1-1
										s-0.448-1-1-1H11.559c-1.925,0-3.492,1.566-3.492,3.492v7.1c0,0.005,0.003,0.01,0.003,0.015
										c0-0.004-0.002-0.007-0.002-0.012c0,0.004-0.001,0.008-0.001,0.012c0,3.141,2.555,5.695,5.695,5.695
										c0.979,0,1.893-0.26,2.698-0.698c-0.138,0.075-0.277,0.149-0.422,0.213v68.49h-2.503c-1.329,0-2.41,1.086-2.41,2.42v2.561
										c0,0.116,0.014,0.248,0.031,0.365c0.003,0.018,0.009,0.033,0.012,0.051H5.931c-2.206,0-4,1.794-4,3.999v4.3
										c0,2.205,1.794,3.999,4,3.999h3.563c0.523,9.482,8.344,17.041,17.911,17.041s17.389-7.559,17.912-17.041h22.104
										c0.523,9.482,8.344,17.041,17.911,17.041s17.389-7.559,17.912-17.041h4.56c2.206,0,4-1.794,4-3.999V88.956h7.497
										c1.526,0,2.768-1.241,2.768-2.768S120.827,83.421,119.301,83.421z M99.176,88.786c0.228,0,0.42,0.192,0.42,0.42
										l-0.009,2.636c-0.023,0.155-0.147,0.256-0.295,0.303c-1.029-1.277-2.232-2.403-3.566-3.358H99.176z M102.46,14.203
										c-0.477,1.49-1.858,2.578-3.504,2.578c-1.645,0-3.027-1.088-3.504-2.578H102.46z M94.223,16.221
										c0.184,0.277,0.379,0.518,0.456,0.612v0.004v2.469v67.48H92.7V20.349V17.75C93.298,17.337,93.82,16.827,94.223,16.221z
										 M92.994,14.203c-0.477,1.49-1.858,2.578-3.504,2.578c-1.645,0-3.027-1.088-3.504-2.578H92.994z M84.759,16.218
										c1.02,1.538,2.752,2.563,4.731,2.563c0.418,0,0.819-0.064,1.21-0.152v0.013v1.707v38.715
										c-0.353-0.739-0.876-1.419-1.612-1.964c-1.645-1.215-3.595-1.608-5.493-1.105c-2.032,0.538-3.78,2.067-4.676,4.09
										c-1.345,3.036-0.726,5.854-0.227,8.121c0.152,0.691,0.296,1.346,0.388,1.984c0.286,1.997,0.025,3.995-0.649,4.974
										c-0.124,0.181-0.274,0.322-0.417,0.473V59.206c4.378-3.261,7.713-6.4,8.349-8.743c0.024-0.084,0.044-0.16,0.057-0.234
										c0-0.001,0-0.003,0-0.004c0.056-0.254,0.077-0.507,0.067-0.77c-0.155-5.098-1.748-13.17-5.265-19.373
										c1.18-3.215,0.271-6.423-0.234-7.196c-0.531-0.814-1.794-0.92-2.975-0.809v-3.666c0.626,0.237,1.302,0.37,2.01,0.37
										C82.004,18.781,83.738,17.756,84.759,16.218z M81.06,69.906c-0.102-0.712-0.253-1.4-0.415-2.133
										c-0.48-2.184-0.977-4.441,0.102-6.878c0.653-1.474,1.909-2.583,3.36-2.967c1.299-0.346,2.646-0.066,3.792,0.78
										c1.555,1.15,1.681,3.255,0.881,4.663c-0.32,0.544-0.813,0.376-1.009,0.277c-0.123-0.061-0.72-0.4-0.432-1.09
										c0.058-0.141,0.545-1.4-0.133-2.373c-0.552-0.793-1.536-1.071-2.704-0.762c-1.001,0.264-1.877,1.049-2.341,2.098
										c-0.874,1.973-0.453,3.888-0.006,5.92c0.16,0.726,0.325,1.475,0.435,2.244c0.158,1.105,0.537,4.912-1.238,7.489
										c-0.862,1.252-2.008,2.133-3.339,2.651v-1.691c0.809-0.424,1.512-1.035,2.064-1.837
										C81.047,74.893,81.423,72.443,81.06,69.906z M85.489,64.103c0.007-0.02,0.019-0.034,0.027-0.052
										c0.286,0.609,0.783,1.1,1.363,1.389c1.115,0.555,2.342,0.339,3.181-0.507c0.013,0.164,0.011,0.326-0.022,0.483
										c-0.268,1.29-1.903,2.378-3.008,2.942C85.266,65.896,85.295,64.646,85.489,64.103z M83.751,63.114
										c0.054-0.264,0.127-0.525,0.24-0.782c0.214-0.484,0.615-0.866,1.023-0.974c0.348-0.093,0.525-0.046,0.541-0.047
										c0.008,0.022,0.011,0.057,0.01,0.099C84.928,61.688,84.18,62.229,83.751,63.114z M83.001,78.311
										c2.187-3.175,1.755-7.62,1.57-8.907c-0.09-0.629-0.211-1.221-0.336-1.802c0.412,0.816,0.965,1.685,1.688,2.614
										c0.194,0.25,0.488,0.387,0.79,0.387c0.122,0,0.246-0.022,0.365-0.069c0.304-0.119,2.25-0.923,3.622-2.38v18.103
										c-1.696-0.535-3.499-0.824-5.368-0.824c-2.409,0-4.705,0.486-6.806,1.354h-0.512v-4.831
										C80.026,81.367,81.742,80.138,83.001,78.311z M84.488,49.521c0,0.004,0,0.008,0,0.012c0.004,0.101-0.004,0.191-0.027,0.287
										c-0.01,0.04-0.017,0.083-0.021,0.126l-0.01-0.001c-0.411,1.515-2.684,3.852-6.416,6.735V28.794
										C82.534,35.01,84.346,44.791,84.488,49.521z M78.014,25.69v-1.593c0.625-0.072,1.12-0.068,1.35-0.009
										c0.196,0.475,0.565,1.944,0.352,3.657C79.187,27.007,78.612,26.332,78.014,25.69z M83.541,14.161
										c-0.464,1.511-1.856,2.62-3.517,2.62c-1.661,0-3.053-1.109-3.517-2.62H83.541z M75.291,16.216
										c0.258,0.389,0.56,0.744,0.903,1.058c-0.06-0.055-0.123-0.105-0.18-0.162v69.674h-1.979V17.582
										c-0.03,0.023-0.066,0.038-0.097,0.061C74.468,17.248,74.925,16.768,75.291,16.216z M41.921,83.186
										c-0.36-0.572-0.906-1.956-1.237-2.849V69.283c0.541-1.59,1.251-3.146,2.065-4.6c3.691,2.336,7.441,4.533,10.621,6.331
										v1.755c-0.198,0.183-0.326,0.439-0.326,0.73v12.697c0,0.322-0.262,0.585-0.584,0.585h-0.285v-1.55c0-0.553-0.448-1-1-1
										s-1,0.447-1,1v1.55h-0.25v-1.55c0-0.553-0.448-1-1-1s-1,0.447-1,1v1.55H45.77c-0.079-0.606,0.009-1.949,0.082-3.063
										c0.202-3.085,0.507-7.747-0.762-12.397c-0.146-0.533-0.696-0.853-1.228-0.702c-0.533,0.146-0.847,0.695-0.702,1.228
										c1.181,4.328,0.9,8.613,0.696,11.742c-0.089,1.365-0.154,2.404-0.087,3.197h-3.086v-1.903
										c0.187-0.074,0.385-0.139,0.607-0.188c0.318-0.07,0.582-0.291,0.707-0.591C42.123,83.803,42.094,83.461,41.921,83.186z
										 M53.37,56.937v2.42c-4.385-1.063-7.955-4.384-10.004-8.375c0.25-0.182,0.423-0.462,0.423-0.795c0-0.553-0.448-1-1-1
										h-0.231c-0.14-0.366-0.263-0.735-0.377-1.106h0.608c0.552,0,1-0.447,1-1s-0.448-1-1-1h-1.084
										c-0.064-0.369-0.127-0.738-0.164-1.106h1.247c0.552,0,1-0.447,1-1s-0.448-1-1-1h-1.29c0.276-6.376,5.04-11.157,11.87-12.24
										v24.198c-0.727-0.162-1.273-0.809-1.273-1.584c0-0.553-0.448-1-1-1s-1,0.447-1,1C50.097,55.226,51.538,56.757,53.37,56.937
										z M40.684,37.726V23.88c4.356-1.573,9.451-0.243,12.686,0.988v3.865C47.384,29.575,42.75,32.931,40.684,37.726z
										 M41.269,51.188c2.309,4.919,6.679,9.066,12.1,10.207v7.315c-4.853-2.765-9.114-5.368-12.686-7.74v-9.782H41.269z
										 M41.086,63.619c-0.14,0.25-0.269,0.509-0.403,0.764v-1.027C40.818,63.443,40.952,63.531,41.086,63.619z M74.716,88.786
										h0.224c-1.347,0.964-2.559,2.104-3.595,3.396H41.393c-1.036-1.292-2.248-2.432-3.595-3.396h0.178H74.716z M61.596,52.348
										c-0.552,0-1,0.447-1,1c0,0.766-0.534,1.405-1.248,1.576V30.739c6.815,1.091,11.568,5.868,11.843,12.236h-1.288
										c-0.552,0-1,0.447-1,1s0.448,1,1,1h1.245c-0.037,0.369-0.1,0.738-0.164,1.106h-1.082c-0.552,0-1,0.447-1,1s0.448,1,1,1
										h0.606c-0.114,0.371-0.237,0.741-0.377,1.106h-0.229c-0.552,0-1,0.447-1,1c0,0.332,0.173,0.612,0.422,0.794
										c-2.044,3.983-5.604,7.299-9.977,8.37v-2.417c1.82-0.192,3.248-1.717,3.248-3.587
										C62.596,52.795,62.148,52.348,61.596,52.348z M59.349,28.736v-3.879c3.244-1.23,8.338-2.546,12.686-0.959v13.876
										C69.982,32.959,65.343,29.588,59.349,28.736z M71.422,51.188h0.613v9.753c-3.591,2.391-7.862,5.007-12.686,7.756v-7.308
										C64.758,60.24,69.117,56.099,71.422,51.188z M72.035,63.349v1.695c-0.215-0.423-0.431-0.845-0.661-1.262
										C71.596,63.639,71.814,63.493,72.035,63.349z M69.686,64.859c0.546,0.997,1.055,2.014,1.477,3.053
										c0.223,0.469,0.445,1.088,0.651,1.821c0.089,0.282,0.146,0.553,0.222,0.83v9.843c-0.313,0.989-0.728,1.928-1.264,2.78
										c-0.173,0.275-0.202,0.617-0.077,0.918c0.125,0.3,0.389,0.521,0.707,0.591c0.233,0.052,0.439,0.122,0.633,0.201v1.891
										h-3.112c0.067-0.793,0.003-1.832-0.087-3.197c-0.205-3.129-0.485-7.414,0.696-11.742c0.145-0.532-0.169-1.082-0.702-1.228
										c-0.535-0.147-1.082,0.169-1.228,0.702c-1.269,4.65-0.963,9.313-0.762,12.397c0.073,1.113,0.161,2.456,0.082,3.063h-2.154
										v-1.55c0-0.553-0.448-1-1-1s-1,0.447-1,1v1.55h-0.25v-1.55c0-0.553-0.448-1-1-1s-1,0.447-1,1v1.55h-0.285
										c-0.322,0-0.584-0.263-0.584-0.585V73.499c0-0.279-0.115-0.531-0.3-0.712v-1.783
										C62.447,69.254,66.087,67.127,69.686,64.859z M74.075,14.161c-0.464,1.511-1.856,2.62-3.517,2.62
										c-1.661,0-3.053-1.109-3.517-2.62H74.075z M65.826,16.214c1.019,1.539,2.751,2.567,4.732,2.567
										c0.578,0,1.129-0.105,1.655-0.266c-0.062,0.019-0.116,0.052-0.179,0.068v3.236c-4.439-1.342-9.312-0.265-12.686,0.916
										v-4.239c-0.013-0.004-0.024-0.012-0.037-0.016c0.562,0.186,1.156,0.301,1.78,0.301
										C63.073,18.781,64.807,17.754,65.826,16.214z M64.622,14.12c-0.451,1.533-1.854,2.661-3.53,2.661
										c-1.676,0-3.079-1.129-3.529-2.661H64.622z M56.359,16.212c0.286,0.432,0.619,0.828,1.008,1.167
										c-0.006-0.005-0.013-0.008-0.018-0.013v69.42H55.37v-69.42c-0.006,0.005-0.013,0.008-0.019,0.013
										C55.74,17.04,56.073,16.644,56.359,16.212z M55.156,14.12c-0.451,1.533-1.854,2.661-3.53,2.661
										c-1.676,0-3.079-1.129-3.529-2.661H55.156z M46.894,16.211c1.019,1.541,2.75,2.571,4.732,2.571
										c0.624,0,1.218-0.114,1.78-0.301c-0.013,0.004-0.024,0.012-0.036,0.016v4.246c-3.368-1.183-8.244-2.278-12.686-0.952
										v-3.207c-0.066-0.018-0.124-0.052-0.189-0.072c0.529,0.163,1.083,0.27,1.665,0.27
										C44.143,18.781,45.875,17.752,46.894,16.211z M45.703,14.078c-0.437,1.554-1.851,2.703-3.543,2.703
										c-1.691,0-3.106-1.149-3.542-2.703H45.703z M37.427,16.209c0.373,0.565,0.842,1.055,1.386,1.455
										c-0.041-0.03-0.09-0.051-0.13-0.082v69.204h-1.979V17.112c-0.056,0.056-0.118,0.105-0.176,0.158
										C36.871,16.955,37.17,16.598,37.427,16.209z M36.237,14.078c-0.437,1.554-1.851,2.703-3.542,2.703
										c-1.692,0-3.106-1.149-3.543-2.703H36.237z M27.961,16.209c1.019,1.542,2.75,2.572,4.733,2.572
										c0.708,0,1.385-0.131,2.01-0.369v3.37c-1.204-0.176-2.466-0.12-3.008,0.71c-0.444,0.678-1.434,4.189-0.204,7.583
										c-3.524,6.204-5.129,14.29-5.289,19.416c0,0.263,0.025,0.504,0.075,0.734c0,0.001,0,0.002,0,0.003
										c0.017,0.097,0.045,0.196,0.059,0.229c0.628,2.341,3.973,5.487,8.367,8.758v27.57h-0.492
										c-2.101-0.868-4.397-1.354-6.806-1.354c-1.876,0-3.686,0.293-5.387,0.832V18.642c-0.034-0.007-0.064-0.023-0.097-0.031
										c0.422,0.1,0.855,0.171,1.308,0.171C25.211,18.781,26.943,17.751,27.961,16.209z M32.98,27.766
										c-0.253-1.87,0.137-3.53,0.334-4.051c0.245-0.043,0.754-0.016,1.39,0.097v1.835C34.095,26.304,33.52,27.013,32.98,27.766z
										 M34.704,28.761v27.958c-3.753-2.898-6.02-5.246-6.451-6.814c-0.004-0.029-0.01-0.058-0.017-0.086
										c-0.023-0.097-0.034-0.197-0.034-0.296C28.352,44.782,30.176,34.974,34.704,28.761z M26.771,14.078
										c-0.437,1.554-1.851,2.703-3.542,2.703c-1.692,0-3.106-1.149-3.543-2.703H26.771z M18.496,16.209
										c0.431,0.653,0.987,1.21,1.642,1.638c-0.038-0.025-0.082-0.04-0.12-0.066v69.006h-1.979V16.837
										c-0.163,0.186-0.342,0.357-0.528,0.52C17.891,17.022,18.216,16.632,18.496,16.209z M13.763,16.781
										c-1.695,0-3.111-1.153-3.545-2.711h7.09C16.874,15.629,15.457,16.781,13.763,16.781z M13.127,89.206
										c0-0.231,0.184-0.42,0.41-0.42h3.476c-1.336,0.956-2.539,2.084-3.57,3.363c-0.155-0.042-0.284-0.156-0.316-0.382V89.206z
										 M9.494,102.48H5.931c-1.103,0-2-0.896-2-1.999v-4.3c0-1.103,0.897-1.999,2-1.999h6.107
										C10.564,96.633,9.659,99.456,9.494,102.48z M27.405,119.521c-8.801,0-15.962-7.197-15.962-16.045
										s7.161-16.045,15.962-16.045c8.802,0,15.962,7.197,15.962,16.045S36.207,119.521,27.405,119.521z M67.421,102.48H45.318
										c-0.165-3.023-1.07-5.845-2.542-8.294h27.188C68.49,96.636,67.586,99.457,67.421,102.48z M85.333,119.521
										c-8.801,0-15.962-7.197-15.962-16.045s7.161-16.045,15.962-16.045c8.802,0,15.962,7.197,15.962,16.045
										S94.134,119.521,85.333,119.521z M109.804,100.481c0,1.103-0.897,1.999-2,1.999h-4.56
										c-0.166-3.025-1.071-5.848-2.545-8.298h2.653c1.353,0,2.453-1.101,2.453-2.453v-9.034c0-1.103,0.897-2,1.999-2
										c1.103,0,2,0.897,2,2V100.481z M119.301,86.956h-7.497v-1.535h7.497c0.423,0,0.768,0.345,0.768,0.768
										S119.724,86.956,119.301,86.956z"/>
									<path class="st0" d="M50.466,40.286c0.785,0,1.421-0.636,1.421-1.421c0-0.785-0.636-1.421-1.421-1.421
										c-0.785,0-1.421,0.636-1.421,1.421C49.045,39.65,49.681,40.286,50.466,40.286z"/>
									<circle class="st0" cx="62.227" cy="38.865" r="1.421"/>
									<path class="st0" d="M52.159,4.479h7.333c0.552,0,1-0.447,1-1s-0.448-1-1-1h-7.333c-0.552,0-1,0.447-1,1
										S51.607,4.479,52.159,4.479z"/>
									<path class="st0" d="M27.405,88.624c-8.152,0-14.785,6.663-14.785,14.853s6.633,14.853,14.785,14.853
										c8.153,0,14.786-6.663,14.786-14.853S35.558,88.624,27.405,88.624z M32.018,102.477c-0.122-0.565-0.348-1.09-0.654-1.561
										l5.751-5.779c1.71,2.009,2.81,4.549,3.026,7.34H32.018z M27.405,106.2c-1.502,0-2.724-1.222-2.724-2.724
										s1.222-2.724,2.724-2.724s2.724,1.222,2.724,2.724S28.907,106.2,27.405,106.2z M29.945,99.507
										c-0.465-0.299-0.983-0.522-1.54-0.643v-4.678h6.834L29.945,99.507z M28.405,92.183v-1.508
										c1.833,0.144,3.562,0.667,5.098,1.508H28.405z M26.405,92.183h-5.097c1.536-0.841,3.265-1.364,5.097-1.508V92.183z
										 M26.405,94.187v4.678c-0.557,0.121-1.074,0.344-1.539,0.642l-5.294-5.32H26.405z M24.866,107.446
										c0.465,0.299,0.983,0.522,1.54,0.643v8.189c-2.775-0.218-5.302-1.325-7.299-3.044L24.866,107.446z M28.405,108.089
										c0.557-0.121,1.075-0.344,1.54-0.643l5.76,5.788c-1.998,1.719-4.524,2.827-7.3,3.044V108.089z M17.696,95.137l5.751,5.779
										c-0.305,0.47-0.531,0.996-0.654,1.561h-8.123C14.886,99.686,15.986,97.146,17.696,95.137z M14.671,104.477h8.123
										c0.122,0.565,0.348,1.09,0.654,1.56l-5.751,5.779C15.986,109.807,14.886,107.267,14.671,104.477z M37.115,111.816
										l-5.751-5.779c0.305-0.47,0.531-0.995,0.653-1.56h8.123C39.925,107.267,38.825,109.807,37.115,111.816z"/>
									<path class="st0" d="M85.333,88.624c-8.153,0-14.786,6.663-14.786,14.853s6.633,14.853,14.786,14.853
										c8.152,0,14.785-6.663,14.785-14.853S93.485,88.624,85.333,88.624z M89.945,102.477c-0.122-0.565-0.349-1.091-0.654-1.561
										l5.751-5.779c1.71,2.009,2.81,4.549,3.026,7.34H89.945z M85.333,106.2c-1.502,0-2.724-1.222-2.724-2.724
										s1.222-2.724,2.724-2.724s2.724,1.222,2.724,2.724S86.835,106.2,85.333,106.2z M87.872,99.507
										c-0.465-0.299-0.982-0.521-1.539-0.642v-4.678h6.833L87.872,99.507z M86.333,92.183v-1.508
										c1.833,0.144,3.561,0.667,5.097,1.508H86.333z M84.333,92.183h-5.098c1.536-0.841,3.265-1.364,5.098-1.508V92.183z
										 M84.333,94.187v4.678c-0.557,0.121-1.075,0.344-1.54,0.643l-5.294-5.32H84.333z M82.793,107.446
										c0.465,0.299,0.983,0.522,1.54,0.643v8.189c-2.775-0.218-5.302-1.325-7.3-3.044L82.793,107.446z M86.333,108.089
										c0.557-0.121,1.075-0.344,1.54-0.643l5.759,5.788c-1.997,1.72-4.524,2.827-7.299,3.044V108.089z M75.624,95.137
										l5.751,5.779c-0.305,0.47-0.531,0.996-0.654,1.561h-8.123C72.813,99.686,73.914,97.146,75.624,95.137z M72.598,104.477
										h8.123c0.122,0.565,0.348,1.09,0.653,1.56l-5.751,5.779C73.913,109.807,72.813,107.267,72.598,104.477z M95.043,111.816
										l-5.751-5.779c0.305-0.47,0.531-0.995,0.653-1.56h8.123C97.853,107.267,96.752,109.807,95.043,111.816z"/>
								</g>
							</g>
						</g>
					</g>
				</g>
			</g>
		</g>
	</g>
</g>
</svg>
