<?xml version="1.0" encoding="utf-8"?>
<!-- Generator: Adobe Illustrator 22.0.1, SVG Export Plug-In . SVG Version: 6.00 Build 0)  -->
<svg version="1.1" id="Layer_1" xmlns="http://www.w3.org/2000/svg" xmlns:xlink="http://www.w3.org/1999/xlink" x="0px" y="0px"
	 viewBox="0 0 128 128" style="enable-background:new 0 0 128 128;" xml:space="preserve">
<style type="text/css">
	.st0{fill:#3A2C60;}
	.st1{fill:#E6E7E8;}
	.st2{fill:#6DC9F7;}
	.st3{fill:#FFFFFF;}
	.st4{fill:#FA759E;}
	.st5{fill:#FFD7E5;}
	.st6{fill:#D4FBFF;}
	.st7{fill:#0089EF;}
</style>
<g>
	<path class="st1" d="M114.01,56.95c5.066,0,9.188-4.122,9.188-9.189c0-5.066-4.122-9.188-9.188-9.188
		c-0.216,0-0.427,0.018-0.639,0.032c-0.486-1.467-1.084-2.883-1.783-4.239c0.167-0.145,0.336-0.288,0.495-0.447
		c3.582-3.583,3.582-9.412,0-12.995c-3.583-3.583-9.414-3.581-12.995,0c-0.174,0.174-0.332,0.357-0.488,0.541
		c-1.346-0.683-2.749-1.266-4.202-1.74c0.019-0.241,0.037-0.483,0.037-0.729c0-5.066-4.122-9.188-9.188-9.188
		s-9.188,4.122-9.188,9.188c0,0.246,0.018,0.488,0.037,0.729c-1.453,0.473-2.856,1.057-4.202,1.74
		c-0.157-0.184-0.315-0.367-0.488-0.541c-3.581-3.583-9.411-3.583-12.995,0c-3.583,3.583-3.583,9.412,0,12.995
		c0.159,0.159,0.327,0.302,0.495,0.447c-0.699,1.356-1.297,2.772-1.783,4.239c-0.212-0.015-0.423-0.032-0.639-0.032
		c-5.066,0-9.188,4.122-9.188,9.188c0,0.884,0.133,1.737,0.367,2.547c-8.261,5.231-15.998,7.37-16.143,7.409
		c-0.034,0.009-0.059,0.033-0.091,0.045c-0.033,0.013-0.062,0.03-0.094,0.047c-0.087,0.044-0.166,0.093-0.234,0.158
		c-0.023,0.021-0.04,0.046-0.06,0.069c-0.063,0.072-0.117,0.147-0.158,0.234c-0.016,0.034-0.024,0.069-0.036,0.105
		c-0.028,0.085-0.049,0.17-0.053,0.262c-0.001,0.019-0.011,0.035-0.011,0.054v5.202c-0.878,0.092-1.712,0.23-2.5,0.413
		c-0.546-0.785-1.46-2.247-1.862-3.79c-0.277-1.06-1.229-1.72-2.322-1.613c-1.093,0.11-1.898,0.952-1.958,2.048
		c-0.081,1.469,0.294,3.362,1.063,5.593c-0.128,0.094-0.26,0.184-0.382,0.283c-0.201-0.062-0.411-0.121-0.637-0.175
		c-1.387-0.327-3.227-0.493-5.202-0.476c-1.966,0.02-3.809,0.226-5.188,0.581c-1.994,0.512-3,1.353-2.988,2.498
		c0.016,1.632,0.939,3.128,2.598,4.214c1.505,0.984,3.472,1.524,5.548,1.524c0.041,0,0.081,0,0.121,0
		c0.631-0.006,1.24-0.065,1.826-0.162c-0.024,0.356-0.048,0.713-0.048,1.084c0,4.14,1.461,8.686,3.856,12.331
		c-1.822,1.037-3.056,2.993-3.056,5.234c0,1.13,0.319,2.184,0.862,3.089c-3.348,5.008-5.875,11.99-3.7,17.519
		c0.124,0.393,0.586,1.685,1.06,2.745c-1.651,0.784-2.539,2.331-2.474,4.393c0.017,0.54,0.459,0.969,1,0.969h2.259h31.942h64.477
		c0.338,0,0.653-0.17,0.838-0.454s0.214-0.64,0.077-0.949c-3.565-8.097-14.782-42.732-15.382-44.969
		c1.51,0.974,3.244,1.466,4.979,1.466c2.354,0,4.707-0.896,6.498-2.687c3.582-3.583,3.582-9.412,0-12.995
		c-0.128-0.128-0.265-0.241-0.399-0.36c0.701-1.383,1.299-2.825,1.779-4.321C113.644,56.933,113.825,56.95,114.01,56.95z
		 M111.38,38.961c-3.48,1.042-6.099,4.092-6.503,7.8H91.471c-0.179-0.981-0.585-1.882-1.162-2.65l9.525-9.525
		c1.673,1.345,3.711,2.02,5.75,2.02c1.497,0,2.993-0.366,4.346-1.091C110.488,36.623,110.973,37.774,111.38,38.961z M79.43,45.393
		c-3.396-2.944-6.541-6.487-8.911-10.706c0.045-0.035,0.093-0.065,0.137-0.101l9.525,9.525
		C79.884,44.506,79.629,44.934,79.43,45.393z M97.461,23.129c-1.681,3.186-1.36,7.157,0.96,10.044l-9.545,9.545
		c-0.769-0.541-1.664-0.911-2.631-1.065V28.129c3.679-0.4,6.714-2.979,7.779-6.418C95.207,22.108,96.355,22.581,97.461,23.129z
		 M76.466,21.711c1.065,3.439,4.099,6.018,7.779,6.418v13.523c-0.967,0.154-1.861,0.524-2.63,1.065l-9.545-9.545
		c2.319-2.886,2.64-6.858,0.959-10.043C74.135,22.581,75.283,22.108,76.466,21.711z M60.561,35.515
		c0.556,0.298,1.135,0.538,1.73,0.714c-0.68,1.078-1.406,2.111-2.177,3.096c-0.325-0.141-0.66-0.261-1.003-0.364
		C59.518,37.774,60.003,36.624,60.561,35.515z M110.038,60.072c-2.184-1.21-4.757-1.469-7.105-0.765v-0.616
		c0-0.003-0.002-0.005-0.002-0.007c0-0.39-0.223-0.736-0.584-0.897c-0.014-0.006-0.026-0.014-0.04-0.02
		c-0.035-0.014-0.062-0.039-0.099-0.049c-0.103-0.028-3.982-1.1-9.157-3.564l-2.624-2.624c0.566-0.806,0.946-1.748,1.086-2.768
		h13.364c0.407,3.739,3.066,6.805,6.588,7.823C111.067,57.785,110.591,58.95,110.038,60.072z"/>
	<g>
		<g>
			<g>
				<path class="st7" d="M84.728,47.909c1.125-0.978,1.851-2.402,1.851-4.01c0-2.946-2.388-5.334-5.334-5.334
					c-2.312,0-4.261,1.48-5.001,3.537C79.034,44.419,81.957,46.338,84.728,47.909z"/>
				<circle class="st3" cx="81.245" cy="14.997" r="8.189"/>
				<ellipse class="st7" cx="81.245" cy="16.497" rx="8.045" ry="6.689"/>
				<circle class="st7" cx="101.585" cy="23.422" r="8.189"/>
				<circle class="st7" cx="110.009" cy="43.761" r="8.189"/>
				<path class="st7" d="M55.451,36.137c-0.922-0.359-1.921-0.564-2.97-0.564c-4.522,0-8.189,3.666-8.189,8.189
					c0,0.681,0.092,1.339,0.249,1.971C48.351,43.227,52.211,40.06,55.451,36.137z"/>
				<path class="st7" d="M98.938,64.903c0,0.035-0.016,0.064-0.02,0.097c-0.034,2.095-1.145,3.929-2.803,4.979
					c0.024,0.09,0.048,0.177,0.071,0.266c3.216,2.829,8.116,2.717,11.188-0.355c3.198-3.198,3.198-8.383,0-11.58
					c-2.282-2.282-5.574-2.927-8.436-1.951V64.903z"/>
				<path class="st7" d="M58.829,31.336c1.238-2.098,2.295-4.357,3.081-6.808c0.133-0.414,0.518-0.695,0.952-0.695
					s0.819,0.281,0.952,0.695c0.598,1.864,1.354,3.616,2.223,5.274c0.227-0.183,0.448-0.378,0.659-0.59
					c3.198-3.198,3.198-8.383,0-11.58c-3.198-3.198-8.383-3.198-11.58,0c-3.198,3.198-3.198,8.383,0,11.58
					C56.181,30.278,57.469,30.98,58.829,31.336z"/>
			</g>
			<g>
				<g>
					<path class="st4" d="M54.187,65.089c0.032,3.264-3.548,5.856-8.15,5.902c-0.041,0-0.081,0-0.121,0
						c-0.623,0-1.228-0.064-1.822-0.158c0.024,0.355,0.048,0.71,0.048,1.079c0,4.14-1.461,8.686-3.856,12.33
						c1.822,1.037,3.056,2.993,3.056,5.234c0,1.223-0.369,2.361-0.998,3.313c1.066,1.616,1.997,3.363,2.71,5.125
						c0.157,0.325,0.316,0.737,0.469,1.202c-0.036-0.166-0.069-0.328-0.106-0.498c-0.467-2.123-1.046-4.757,0.215-7.604
						c0.843-1.903,2.487-3.34,4.398-3.847c1.787-0.472,3.625-0.103,5.172,1.041c0,0,0,0,0,0c2.146,1.588,2.455,4.365,1.575,6.361
						c1.368,3.287-3.829,5.332-3.829,5.332c-2.935-3.776-2.295-5.533-1.411-6.319c0.012-0.314,0.071-0.641,0.212-0.977
						c0.046-0.121,0.078-0.33,0.058-0.4c0.01,0.039-0.142,0.015-0.422,0.088c-0.353,0.094-0.718,0.442-0.906,0.868
						c-0.558,1.258-0.261,2.605,0.114,4.312c0.148,0.671,0.316,1.432,0.431,2.232c0.172,1.205,0.575,5.366-1.474,8.341
						c-0.947,1.375-2.186,2.376-3.663,3.023c-0.203,0.613-0.436,1.212-0.721,1.781c1.612,0.786,2.48,2.312,2.427,4.339h63.477
						c-6.199-14.081-11.957-31.033-17.297-52.288H54.16C54.167,64.966,54.186,65.023,54.187,65.089z"/>
					<path class="st3" d="M54.187,65.089c0.032,3.264-3.548,5.856-8.15,5.902c-0.041,0-0.081,0-0.121,0
						c-0.623,0-1.228-0.064-1.822-0.158c0.024,0.355,0.048,0.71,0.048,1.079c0,4.14-1.461,8.686-3.856,12.33
						c1.822,1.037,3.056,2.993,3.056,5.234c0,1.223-0.369,2.361-0.998,3.313c1.066,1.616,1.997,3.363,2.71,5.125
						c0.157,0.325,0.316,0.737,0.469,1.202c-0.036-0.166-0.069-0.328-0.106-0.498c-0.467-2.123-1.046-4.757,0.215-7.604
						c0.843-1.903,2.487-3.34,4.398-3.847c1.787-0.472,3.625-0.103,5.172,1.041c0,0,0,0,0,0c2.146,1.588,2.455,4.365,1.575,6.361
						c1.368,3.287-3.829,5.332-3.829,5.332c-2.935-3.776-2.295-5.533-1.411-6.319c0.012-0.314,0.071-0.641,0.212-0.977
						c0.046-0.121,0.078-0.33,0.058-0.4c0.01,0.039-0.142,0.015-0.422,0.088c-0.353,0.094-0.718,0.442-0.906,0.868
						c-0.558,1.258-0.261,2.605,0.114,4.312c0.148,0.671,0.316,1.432,0.431,2.232c0.172,1.205,0.575,5.366-1.474,8.341
						c-0.947,1.375-2.186,2.376-3.663,3.023c-0.203,0.613-0.436,1.212-0.721,1.781c1.612,0.786,2.48,2.312,2.427,4.339h52.011
						c-4.724-14.081-9.113-31.033-13.183-52.288H54.16C54.167,64.966,54.186,65.023,54.187,65.089z"/>
					<path class="st4" d="M54.187,65.089c0.032,3.264-3.548,5.856-8.15,5.902c-0.021,0-0.043,0-0.064,0
						c-0.872,6.317-1.764,12.237-2.678,17.801c0.026,0.226,0.047,0.453,0.047,0.685c0,0.931-0.216,1.812-0.596,2.599
						c-0.06,0.356-0.121,0.714-0.181,1.067c0.971,1.517,1.827,3.135,2.489,4.772c0.157,0.325,0.316,0.737,0.469,1.202
						c-0.036-0.166-0.069-0.328-0.106-0.498c-0.467-2.123-1.046-4.757,0.215-7.604c0.843-1.903,2.487-3.34,4.398-3.847
						c1.787-0.472,3.625-0.103,5.172,1.041c0,0,0,0,0,0c2.146,1.588,2.455,4.365,1.575,6.361c1.368,3.287-3.829,5.332-3.829,5.332
						c-2.935-3.776-2.295-5.533-1.411-6.319c0.012-0.314,0.071-0.641,0.212-0.977c0.046-0.121,0.078-0.33,0.058-0.4
						c0.01,0.039-0.142,0.015-0.422,0.088c-0.353,0.094-0.718,0.442-0.906,0.868c-0.558,1.258-0.261,2.605,0.114,4.312
						c0.148,0.671,0.316,1.432,0.431,2.232c0.172,1.205,0.575,5.366-1.474,8.341c-0.947,1.375-2.186,2.376-3.663,3.023
						c-0.203,0.613-0.436,1.212-0.721,1.781c1.612,0.786,2.48,2.312,2.427,4.339h40.33c-3.222-14.081-6.216-31.033-8.992-52.288
						H54.16C54.167,64.966,54.186,65.023,54.187,65.089z"/>
					<path class="st3" d="M55.24,64.903c-1.317,21.251-2.736,38.205-4.265,52.288h23.774c-1.528-14.081-2.948-31.033-4.265-52.288
						H55.24z"/>
					<g>
						<g>
							<path class="st3" d="M97.949,54.683c0,0-27.91-7.463-35.087-29.85c-7.177,22.388-35.087,29.85-35.087,29.85H97.949z"/>
						</g>
						<g>
							<path class="st4" d="M87.924,54.683c0,0-19.936-7.463-25.062-29.85C57.735,47.221,37.8,54.683,37.8,54.683H87.924z"/>
						</g>
						<g>
							<path class="st3" d="M77.905,54.683c0,0-11.967-7.463-15.043-29.85c-3.076,22.388-15.043,29.85-15.043,29.85H77.905z"/>
						</g>
						<g>
							<path class="st4" d="M67.865,54.683c0,0-3.978-7.463-5.004-29.85c-0.317,22.347-5.004,29.85-5.004,29.85H67.865z"/>
						</g>
					</g>
					<g>
						<path class="st2" d="M62.864,78.787c0,0,1.829,20.117,23.774,24.689l-4.572,13.716
							C82.066,117.191,62.864,108.962,62.864,78.787z"/>
						<path class="st2" d="M57.221,92.435c-0.012,0.749-0.156,1.485-0.443,2.136c1.368,3.287-3.829,5.332-3.829,5.332
							c-0.549-0.707-0.974-1.343-1.294-1.915c-0.271,0.203-0.54,0.407-0.825,0.603c0.071,0.36,0.14,0.733,0.195,1.116
							c0.172,1.205,0.575,5.366-1.474,8.341c-0.947,1.375-2.186,2.376-3.663,3.023c-0.203,0.613-0.436,1.212-0.721,1.781
							c0.97,0.473,1.664,1.218,2.058,2.174c4.565-3.311,12.194-10.875,14.763-25.629c0.388-2.234,0.665-4.634,0.794-7.209
							c0.055-1.098,0.083-2.234,0.083-3.397C62.864,78.791,62.225,85.767,57.221,92.435z"/>
					</g>
					<g>
						<g>
							<path class="st3" d="M57.952,65.903c0.464,2.288,2.485,4.01,4.91,4.01c2.425,0,4.446-1.722,4.91-4.01H57.952z"/>
							<g>
								<path class="st4" d="M54.11,65.903c-0.271,1.507-1.316,2.823-2.866,3.739c0.503,0.17,1.039,0.271,1.599,0.271
									c2.424,0,4.446-1.722,4.91-4.01H54.11z"/>
								<path class="st4" d="M67.971,65.903c0.464,2.288,2.485,4.01,4.91,4.01s4.446-1.722,4.91-4.01H67.971z"/>
							</g>
							<path class="st3" d="M78.003,65.903c0.464,2.288,2.485,4.01,4.91,4.01s4.446-1.722,4.91-4.01H78.003z"/>
							<path class="st4" d="M88.003,65.903c0.464,2.288,2.485,4.01,4.91,4.01s4.446-1.722,4.91-4.01H88.003z"/>
						</g>
						<g>
							<path class="st3" d="M27.785,54.673v5.132c0.555-0.036,1.121-0.061,1.709-0.061c1.914,0,3.649,0.198,5.216,0.563
								c0.546-0.785,1.46-2.247,1.862-3.79c0.276-1.059,1.222-1.729,2.32-1.613c1.093,0.109,1.899,0.952,1.959,2.047
								c0.08,1.471-0.294,3.363-1.063,5.593c0.159,0.117,0.325,0.228,0.476,0.352c1.852-0.587,4.288-0.706,5.682-0.72
								c2.417-0.024,7.922,0.205,8.214,2.728h43.778V54.673H27.785z"/>
							<path class="st4" d="M29.494,59.743c1.914,0,3.649,0.198,5.216,0.563c0.546-0.785,1.46-2.247,1.862-3.79
								c0.181-0.695,0.653-1.216,1.264-1.464v-0.38H27.811v5.13C28.358,59.767,28.915,59.743,29.494,59.743z"/>
							<g>
								<path class="st4" d="M47.83,54.673v7.542c2.646,0.136,6.1,0.701,6.33,2.688h3.695V54.673H47.83z"/>
								<rect x="67.868" y="54.673" class="st4" width="10.025" height="10.231"/>
							</g>
							<rect x="87.916" y="54.673" class="st4" width="10.012" height="10.231"/>
						</g>
					</g>
				</g>
			</g>
			<g>
				<g>
					<path class="st3" d="M54.607,89.014c-1.299-0.96-2.834-1.271-4.322-0.878c-1.621,0.429-3.019,1.656-3.74,3.284
						c-1.128,2.547-0.61,4.902-0.153,6.98c0.146,0.662,0.283,1.288,0.374,1.918c0.302,2.106,0.004,4.183-0.758,5.29
						c-0.108,0.157-0.226,0.29-0.342,0.424c-0.016,0.421-0.045,0.84-0.102,1.25c-0.059,1.085-0.21,2.128-0.48,3.052
						c-0.001,0.004-0.003,0.008-0.004,0.012c1.458-0.541,2.709-1.501,3.648-2.865c1.844-2.677,1.467-6.518,1.307-7.632
						c-0.108-0.751-0.265-1.467-0.417-2.159c-0.398-1.811-0.742-3.375-0.052-4.932c0.314-0.71,0.914-1.258,1.566-1.43
						c0.515-0.136,1.167-0.159,1.516,0.342c0.359,0.515,0.027,1.322,0.027,1.322c-0.802,1.918,1.955,3.375,3.005,1.581
						c0.009-0.015,0.018-0.031,0.027-0.047C56.629,92.897,56.469,90.391,54.607,89.014z"/>
					<g>
						<path class="st3" d="M12.394,117.191h34.201c0.081-2.585-1.52-3.486-2.885-3.787c0.569-0.904,1.042-1.934,1.373-3.07
							c0.27-0.924,0.421-1.967,0.48-3.052c0.318-2.286-0.019-4.757-0.783-7.176c-0.196-0.7-0.417-1.319-0.653-1.816l-0.001,0.001
							c-0.798-1.971-1.852-3.857-3.021-5.537c-0.079,0.092-0.145,0.195-0.231,0.28c-0.91,0.91-2.17,1.47-3.55,1.47h-15.65
							c-1.619,0-3.043-0.777-3.963-1.964c-3.54,4.988-6.049,11.949-3.96,17.208c0.048,0.197,0.958,2.751,1.527,3.655
							C13.914,113.705,12.313,114.606,12.394,117.191z"/>
						<path class="st4" d="M23.372,94.505c1.347,1.936,3.585,3.206,6.122,3.206s4.775-1.27,6.122-3.206H23.372z"/>
					</g>
					<g>
						<g>
							<path class="st3" d="M19.059,63.971c-3.424-1.407-13.279-0.929-13.257,1.273c0.027,2.662,3.276,4.787,7.257,4.747
								c1.076-0.011,2.092-0.183,3.007-0.475C16.489,67.164,17.54,65.332,19.059,63.971z"/>
							<path class="st3" d="M40.019,64.044c1.48,1.359,2.498,3.182,2.91,5.507c0.941,0.289,1.989,0.451,3.098,0.44
								c3.981-0.04,7.187-2.23,7.161-4.892C53.165,62.922,43.516,62.624,40.019,64.044z"/>
						</g>
						<g>
							<g>
								<g>
									<g>
										<path class="st3" d="M21.674,84.454h15.65c0.487,0,0.949,0.091,1.394,0.221c2.718-3.664,4.423-8.54,4.423-12.763
											c0-7.996-6.11-11.17-13.647-11.17c-7.537,0-13.647,3.174-13.647,11.17c0,4.223,1.705,9.1,4.423,12.764
											C20.719,84.546,21.184,84.454,21.674,84.454z"/>
									</g>
								</g>
							</g>
						</g>
						<path class="st5" d="M42.344,89.474c0,1.39-0.56,2.65-1.47,3.56c-0.91,0.91-2.17,1.47-3.55,1.47h-15.65
							c-2.78,0-5.03-2.25-5.03-5.03c0-1.39,0.56-2.64,1.47-3.55c0.91-0.91,2.17-1.47,3.56-1.47h15.65
							C40.094,84.454,42.344,86.704,42.344,89.474z"/>
						<g>
							<path class="st5" d="M23.938,61.532c0,0-1.837-2.265-2.489-4.765c-0.338-1.298-2.24-1.101-2.313,0.238
								c-0.074,1.343,0.246,3.298,1.331,6.143C20.467,63.149,23.355,63.506,23.938,61.532z"/>
							<path class="st5" d="M35.051,61.532c0,0,1.837-2.265,2.489-4.765c0.338-1.298,2.24-1.101,2.313,0.238
								c0.074,1.343-0.246,3.298-1.331,6.143C38.522,63.149,35.634,63.506,35.051,61.532z"/>
						</g>
						<g>
							<path class="st4" d="M23.58,87.416c-1.285,0-2.328,1.042-2.328,2.328s1.042,2.328,2.328,2.328s2.328-1.042,2.328-2.328
								S24.865,87.416,23.58,87.416z"/>
							<path class="st4" d="M35.409,87.416c-1.285,0-2.328,1.042-2.328,2.328s1.042,2.328,2.328,2.328
								c1.286,0,2.328-1.042,2.328-2.328S36.694,87.416,35.409,87.416z"/>
						</g>
					</g>
					<g>
						<g>
							<path class="st5" d="M34.421,104.365c0.238-0.602,0.369-1.258,0.369-1.944c0-2.925-2.371-5.296-5.296-5.296
								c-2.925,0-5.296,2.371-5.296,5.296c0,0.687,0.131,1.342,0.369,1.944H34.421z"/>
							<g>
								<path class="st5" d="M34.563,104.365H24.425c-0.751,0-1.36,0.609-1.36,1.36s0.609,1.359,1.36,1.359h10.138
									c0.751,0,1.359-0.609,1.359-1.359S35.314,104.365,34.563,104.365z"/>
								<g>
									<g>
										<path class="st0" d="M110.01,52.95c5.066,0,9.188-4.122,9.188-9.188s-4.122-9.188-9.188-9.188
											c-0.225,0-0.446,0.018-0.667,0.034c-0.485-1.462-1.076-2.874-1.771-4.226c0.173-0.149,0.347-0.297,0.511-0.462
											c3.582-3.583,3.582-9.412,0-12.995c-3.583-3.583-9.414-3.581-12.995,0c-0.18,0.18-0.344,0.37-0.506,0.561
											c-1.341-0.683-2.737-1.269-4.185-1.744c0.02-0.246,0.038-0.493,0.038-0.744c0-5.066-4.122-9.188-9.188-9.188
											s-9.188,4.122-9.188,9.188c0,0.251,0.018,0.498,0.038,0.744c-1.447,0.475-2.843,1.061-4.183,1.744
											c-0.163-0.191-0.328-0.38-0.508-0.56c-3.582-3.583-9.411-3.583-12.995,0c-3.583,3.583-3.583,9.412,0,12.995
											c0.164,0.164,0.342,0.305,0.515,0.454c-0.697,1.355-1.29,2.77-1.776,4.234c-0.221-0.016-0.442-0.035-0.667-0.035
											c-5.066,0-9.188,4.122-9.188,9.188c0,0.884,0.133,1.737,0.367,2.547c-8.261,5.231-15.998,7.37-16.143,7.409
											c-0.013,0.003-0.022,0.013-0.034,0.016c-0.074,0.024-0.139,0.058-0.204,0.097c-0.049,0.029-0.095,0.057-0.138,0.093
											c-0.042,0.036-0.077,0.075-0.113,0.117c-0.051,0.06-0.094,0.122-0.13,0.192c-0.017,0.033-0.031,0.065-0.044,0.101
											c-0.036,0.096-0.055,0.195-0.061,0.3c-0.001,0.014-0.008,0.025-0.008,0.039v0.113c0.001,0.01-0.003,0.019-0.001,0.028
											c0,0.002,0.001,0.003,0.001,0.005v5.067c0.067-0.007,0.143-0.006,0.211-0.013c-0.957,0.092-1.864,0.235-2.716,0.434
											c-0.546-0.784-1.46-2.247-1.862-3.791c-0.277-1.06-1.229-1.72-2.322-1.613c-1.093,0.11-1.898,0.952-1.958,2.048
											c-0.081,1.473,0.296,3.371,1.069,5.609c-0.128,0.094-0.266,0.18-0.389,0.279c-1.879-0.594-4.402-0.678-5.838-0.664
											c-2.468,0.025-8.205,0.375-8.177,3.079c0.033,3.233,3.599,5.737,8.143,5.737c0.042,0,0.083,0,0.125,0
											c0.638-0.006,1.245-0.08,1.835-0.181c-0.026,0.363-0.057,0.723-0.057,1.103c0,4.142,1.475,8.676,3.872,12.321
											c-1.831,1.034-3.072,2.996-3.072,5.244c0,1.128,0.318,2.181,0.86,3.085c-3.348,5.008-5.873,11.993-3.698,17.522
											c0.124,0.393,0.586,1.686,1.06,2.745c-1.651,0.783-2.539,2.33-2.474,4.392c0.017,0.54,0.459,0.969,1,0.969h34.201h64.476
											c0.338,0,0.653-0.17,0.838-0.454s0.214-0.64,0.077-0.949c-3.43-7.792-6.69-16.424-9.689-25.658
											c-0.171-0.525-0.736-0.813-1.26-0.642c-0.525,0.171-0.813,0.735-0.643,1.26c2.842,8.747,5.917,16.961,9.149,24.442h-26.09
											l4.133-12.4c0.091-0.271,0.061-0.567-0.081-0.815c-0.143-0.248-0.384-0.422-0.663-0.48
											c-20.933-4.361-22.908-23.009-22.982-23.801c-0.004-0.048-0.029-0.088-0.04-0.134c-0.016-0.068-0.029-0.135-0.058-0.196
											c-0.023-0.047-0.054-0.086-0.084-0.129c-0.043-0.063-0.084-0.123-0.14-0.175c-0.032-0.029-0.069-0.05-0.104-0.075
											c-0.066-0.047-0.131-0.091-0.208-0.121c-0.047-0.019-0.098-0.025-0.148-0.036c-0.056-0.013-0.108-0.038-0.167-0.041
											c-0.016,0-0.03,0.007-0.046,0.007c-0.016,0-0.03-0.008-0.046-0.007c-0.06,0.003-0.111,0.028-0.168,0.041
											c-0.052,0.012-0.105,0.018-0.154,0.038c-0.068,0.027-0.125,0.067-0.184,0.108c-0.045,0.031-0.092,0.057-0.131,0.094
											c-0.046,0.044-0.08,0.096-0.117,0.148c-0.036,0.05-0.073,0.096-0.099,0.153c-0.027,0.058-0.038,0.121-0.054,0.184
											c-0.012,0.048-0.037,0.09-0.041,0.141c-0.041,0.44-0.674,6.383-4.806,12.33c0.001,0.005,0.001,0.009,0.002,0.014
											c-0.268-1.069-0.854-2.083-1.862-2.829c0,0,0,0,0,0c-1.548-1.144-3.386-1.513-5.172-1.041
											c-1.911,0.506-3.555,1.944-4.398,3.847c-1.261,2.847-0.682,5.481-0.215,7.604c0.037,0.17,0.071,0.332,0.106,0.498
											c-0.154-0.465-0.313-0.877-0.469-1.202c-0.713-1.762-1.65-3.501-2.716-5.116c0.633-0.953,1.004-2.095,1.004-3.322
											c0-2.248-1.241-4.21-3.072-5.244c2.397-3.645,3.872-8.179,3.872-12.321c0-0.375-0.032-0.73-0.057-1.089
											c0.596,0.098,1.204,0.168,1.831,0.168c0.041,0,0.081,0,0.121,0c1.482-0.015,2.856-0.297,4.039-0.777
											c0.83,0.435,1.765,0.699,2.767,0.699c2.094,0,3.921-1.09,4.996-2.719c1.075,1.635,2.924,2.719,5.023,2.719
											c2.099,0,3.948-1.083,5.023-2.719c1.075,1.629,2.902,2.719,4.996,2.719c2.107,0,3.944-1.102,5.016-2.748
											c1.072,1.646,2.909,2.748,5.016,2.748c2.097,0,3.926-1.092,5-2.725c1.074,1.633,2.903,2.725,5,2.725
											c0.461,0,0.908-0.057,1.339-0.156c0.66,2.497,1.331,4.96,2.009,7.357c0.149,0.532,0.708,0.835,1.234,0.69
											c0.531-0.15,0.84-0.703,0.689-1.235c-0.6-2.122-1.451-5.284-1.575-5.746c1.509,0.973,3.241,1.463,4.974,1.463
											c2.354,0,4.707-0.896,6.498-2.687c3.582-3.583,3.582-9.412,0-12.994c-0.134-0.134-0.283-0.243-0.423-0.367
											c0.703-1.381,1.303-2.821,1.785-4.315C109.632,52.933,109.819,52.95,110.01,52.95z M85.339,104.209l-3.852,11.558
											c-3.353-1.896-14.347-9.462-17.029-28.27C67.314,93.647,73.23,101.32,85.339,104.209z M46.553,107.422
											c0-0.001,0-0.001,0-0.002c0,0,0-0.001,0-0.001c0.043-0.306,0.074-0.629,0.095-1c0.063-0.077,0.124-0.157,0.183-0.244
											c0.911-1.323,1.265-3.622,0.924-5.999c-0.095-0.665-0.236-1.306-0.387-1.991c-0.445-2.021-0.904-4.112,0.091-6.359
											c0.6-1.353,1.752-2.371,3.082-2.723c1.187-0.313,2.421-0.061,3.472,0.715c1.417,1.048,1.53,2.967,0.801,4.25
											c-0.258,0.442-0.642,0.335-0.849,0.232c-0.104-0.052-0.613-0.341-0.369-0.927c0.09-0.219,0.508-1.359-0.131-2.275
											c-0.532-0.764-1.476-1.031-2.592-0.737c-0.952,0.252-1.784,0.997-2.224,1.992c-0.823,1.857-0.429,3.651-0.011,5.553
											c0.141,0.637,0.3,1.359,0.405,2.084c0.146,1.023,0.496,4.545-1.142,6.923c-0.412,0.599-0.892,1.11-1.435,1.532
											C46.507,108.11,46.535,107.768,46.553,107.422z M51.221,97.103c-0.198,0.149-0.408,0.293-0.614,0.439
											c0.002,0.007,0.003,0.015,0.005,0.022c-0.006-0.028-0.013-0.061-0.019-0.089c-0.375-1.707-0.671-3.054-0.114-4.312
											c0.188-0.426,0.553-0.774,0.906-0.868c0.28-0.074,0.432-0.049,0.422-0.088c0.021,0.071-0.011,0.28-0.058,0.4
											c-0.14,0.336-0.2,0.662-0.212,0.977C50.91,94.141,50.412,95.192,51.221,97.103z M45.887,111.071
											c1.477-0.647,2.716-1.649,3.663-3.023c2.048-2.975,1.646-7.136,1.474-8.341c-0.003-0.024-0.009-0.046-0.012-0.069
											c0.397-0.267,0.781-0.54,1.154-0.819c0.227,0.342,0.486,0.702,0.783,1.084c0,0,5.141-2.036,3.817-5.305
											c0.024-0.055,0.051-0.107,0.074-0.163c1.964-2.311,3.398-4.717,4.426-6.928c-2.202,15.354-9.963,23.227-14.544,26.624
											c-0.395-0.531-0.913-0.965-1.555-1.278C45.451,112.284,45.684,111.685,45.887,111.071z M96.501,18.339
											c1.401-1.401,3.242-2.102,5.084-2.102c1.84,0,3.682,0.701,5.083,2.102c2.802,2.803,2.802,7.363,0,10.167
											c-2.802,2.801-7.363,2.803-10.167,0C93.699,25.702,93.699,21.142,96.501,18.339z M98.938,54.795v-0.122
											c0-0.015-0.008-0.027-0.008-0.042c-0.006-0.103-0.024-0.2-0.059-0.294c-0.013-0.037-0.029-0.071-0.046-0.105
											c-0.035-0.068-0.077-0.13-0.127-0.188c-0.036-0.043-0.072-0.083-0.115-0.12c-0.042-0.035-0.087-0.063-0.135-0.091
											c-0.066-0.04-0.132-0.074-0.206-0.098c-0.012-0.004-0.021-0.013-0.034-0.016c-0.103-0.027-3.981-1.101-9.152-3.561
											l-2.628-2.628c0.567-0.805,0.946-1.748,1.086-2.767h13.365c0.406,3.735,3.06,6.799,6.577,7.82
											c-0.401,1.197-0.886,2.354-1.441,3.472c-2.177-1.196-4.739-1.447-7.076-0.748v-0.488c0-0.001,0.001-0.002,0.001-0.003
											C98.94,54.807,98.938,54.801,98.938,54.795z M87.471,42.761c-0.179-0.981-0.585-1.882-1.161-2.65l9.525-9.525
											c1.673,1.345,3.711,2.02,5.75,2.02c1.492,0,2.984-0.363,4.333-1.084c0.556,1.108,1.037,2.258,1.443,3.443
											c-3.47,1.047-6.08,4.093-6.483,7.795H87.471z M93.447,19.153c-1.666,3.181-1.34,7.14,0.973,10.019l-9.545,9.545
											c-0.769-0.541-1.664-0.911-2.631-1.065V24.129c3.676-0.4,6.709-2.975,7.776-6.41
											C91.202,18.12,92.344,18.602,93.447,19.153z M85.579,43.899c0,1.421-0.697,2.674-1.757,3.464
											c-2.221-1.308-4.51-2.815-6.743-4.592c0.5-1.841,2.169-3.206,4.166-3.206C83.635,39.565,85.579,41.509,85.579,43.899z
											 M81.245,7.809c3.964,0,7.188,3.225,7.188,7.188s-3.225,7.189-7.188,7.189s-7.188-3.225-7.188-7.189
											S77.281,7.809,81.245,7.809z M72.469,17.719c1.068,3.435,4.1,6.01,7.776,6.41v13.518
											c-0.967,0.154-1.858,0.532-2.627,1.073l-9.548-9.548c1.31-1.626,2.025-3.632,2.025-5.75c0-1.512-0.366-2.968-1.051-4.269
											C70.147,18.602,71.289,18.12,72.469,17.719z M76.188,40.117c-0.297,0.396-0.56,0.819-0.759,1.278
											c-3.394-2.944-6.54-6.485-8.911-10.708c0.045-0.034,0.085-0.077,0.129-0.112L76.188,40.117z M55.823,18.339
											c2.804-2.803,7.365-2.802,10.167,0c1.357,1.358,2.105,3.163,2.105,5.083c0,1.92-0.748,3.726-2.105,5.083
											c-0.133,0.133-0.273,0.253-0.413,0.373c-0.675-1.383-1.274-2.828-1.762-4.351c-0.133-0.414-0.518-0.695-0.952-0.695
											s-0.819,0.281-0.952,0.695c-0.673,2.101-1.543,4.064-2.557,5.905c-1.294-0.285-2.525-0.923-3.53-1.927
											C53.02,25.702,53.02,21.142,55.823,18.339z M66.517,30.688c-0.104-0.185-0.212-0.366-0.313-0.553l0.049,0.049
											C66.344,30.35,66.425,30.523,66.517,30.688z M66.044,29.782c-0.004,0.003-0.008,0.007-0.012,0.01
											c-0.123-0.236-0.239-0.478-0.358-0.717C65.796,29.313,65.921,29.547,66.044,29.782z M58.291,32.229
											c-0.682,1.081-1.429,2.099-2.202,3.087c-0.312-0.133-0.633-0.247-0.961-0.346c0.408-1.191,0.891-2.346,1.45-3.459
											C57.131,31.806,57.701,32.055,58.291,32.229z M52.481,36.573c0.8,0,1.567,0.137,2.286,0.379
											c-2.834,3.255-6.087,5.964-9.339,8.188c-0.087-0.447-0.136-0.907-0.136-1.378C45.292,39.797,48.517,36.573,52.481,36.573z
											 M62.862,27.753c6.07,14.842,20.871,22.617,29.104,25.919H33.758C41.991,50.37,56.793,42.596,62.862,27.753z
											 M38.854,57.06c0.07,1.277-0.279,2.993-1.036,5.108c-0.506-0.02-1.214-0.126-1.592-0.537
											c0.615-0.859,1.77-2.651,2.281-4.61c0.015-0.057,0.04-0.144,0.185-0.128C38.846,56.908,38.852,57.003,38.854,57.06z
											 M28.785,59.762v-4.079h8.209c-0.19,0.237-0.339,0.514-0.422,0.833c-0.403,1.544-1.317,3.006-1.863,3.791
											c-1.566-0.365-3.301-0.563-5.215-0.563c-0.279,0-0.543,0.017-0.815,0.025C28.716,59.767,28.749,59.763,28.785,59.762z
											 M20.296,56.893c0.011-0.001,0.022-0.001,0.032-0.001c0.12,0,0.14,0.077,0.153,0.129c0.511,1.959,1.666,3.751,2.28,4.61
											c-0.377,0.411-1.086,0.518-1.591,0.538c-0.758-2.116-1.106-3.833-1.036-5.108C20.137,57.003,20.143,56.908,20.296,56.893z
											 M15.195,68.712c-0.673,0.167-1.392,0.271-2.146,0.279c-0.032,0-0.065,0-0.098,0c-3.278,0-6.054-1.662-6.147-3.676
											c0.363-0.4,2.442-1.103,6.194-1.141c1.782-0.02,3.176,0.122,4.201,0.317C16.253,65.693,15.568,67.096,15.195,68.712z
											 M43.396,100.736c0.173,0,0.34-0.021,0.508-0.037c0.703,2.343,0.936,4.516,0.659,6.529
											c-0.028,0.526-0.08,1.021-0.151,1.486c-0.035,0.227-0.092,0.429-0.138,0.644c-0.05,0.233-0.09,0.483-0.152,0.696
											c-0.294,1.008-0.718,1.956-1.26,2.817c-0.048,0.077-0.082,0.16-0.108,0.245c-0.333-0.035-0.654-0.054-0.95-0.054
											c-0.214,0-0.418,0.029-0.626,0.047c-0.189-2.892-0.42-6.795,0.656-10.738c0.145-0.533-0.169-1.083-0.702-1.228
											c-0.534-0.143-1.083,0.169-1.228,0.702c-1.095,4.014-0.934,8.017-0.755,10.874c-2.206,0.256-4.876,0.588-6.513,0.978
											v-3.277c0-0.552-0.448-1-1-1s-1,0.448-1,1v5.29c0,0.165,0.018,0.325,0.049,0.48h-2.384
											c0.031-0.156,0.049-0.316,0.049-0.48v-5.29c0-0.552-0.448-1-1-1s-1,0.448-1,1v3.122c-2.135-0.3-4.303-0.536-6.529-0.575
											c0.184-2.869,0.387-6.991-0.739-11.122c-0.146-0.533-0.694-0.848-1.228-0.702c-0.533,0.146-0.847,0.695-0.702,1.228
											c1.075,3.941,0.845,7.841,0.656,10.733c-0.188-0.014-0.37-0.042-0.562-0.042c-0.315,0-0.657,0.022-1.013,0.061
											c-0.026-0.087-0.06-0.173-0.109-0.252c-0.46-0.731-1.305-3.027-1.403-3.361c-0.011-0.044-0.025-0.088-0.042-0.13
											c-1.055-2.657-0.832-5.731,0.08-8.717c0.272,0.043,0.548,0.073,0.832,0.073c2.972,0,5.393-2.331,5.552-5.263
											c0.173,0.015,0.348,0.027,0.525,0.027h1.228c0.701,0.879,1.549,1.608,2.511,2.141c-1.35,1.156-2.209,2.868-2.209,4.78
											c0,0.416,0.051,0.824,0.133,1.226c-0.748,0.396-1.265,1.174-1.265,2.078c0,1.301,1.059,2.359,2.359,2.359h10.138
											c1.301,0,2.36-1.059,2.36-2.359c0-0.904-0.517-1.682-1.265-2.078c0.082-0.402,0.133-0.81,0.133-1.226
											c0-1.912-0.86-3.625-2.21-4.78c0.963-0.532,1.811-1.261,2.511-2.141h1.228c0.177,0,0.352-0.012,0.525-0.027
											C38.004,98.406,40.425,100.736,43.396,100.736z M29.494,98.125c2.369,0,4.296,1.927,4.296,4.296
											c0,0.32-0.035,0.636-0.104,0.944h-8.382c-0.069-0.308-0.104-0.624-0.104-0.944
											C25.199,100.052,27.125,98.125,29.494,98.125z M25.743,95.504h7.502c-0.564,0.404-1.192,0.709-1.855,0.914
											c-0.599-0.19-1.236-0.293-1.896-0.293c-0.661,0-1.297,0.103-1.896,0.293C26.935,96.213,26.307,95.908,25.743,95.504z
											 M34.563,105.365c0.198,0,0.36,0.161,0.36,0.359s-0.162,0.359-0.36,0.359H24.425c-0.198,0-0.359-0.161-0.359-0.359
											s0.161-0.359,0.359-0.359H34.563z M41.341,89.478c0,2.218-1.804,4.022-4.022,4.022h-15.65
											c-2.218,0-4.022-1.804-4.022-4.022s1.804-4.022,4.022-4.022h15.65C39.537,85.456,41.341,87.26,41.341,89.478z
											 M38.247,83.535c-0.303-0.047-0.612-0.079-0.928-0.079h-15.65c-0.316,0-0.625,0.032-0.928,0.079
											c-0.882-1.266-1.641-2.662-2.253-4.124c1.539,0.403,3.999,1.019,4.344,1.099c2.865,0.659,5.744-0.157,7.305-2.705
											c0.185-0.302,0.369-0.608,0.488-0.942c0.424-1.184,0.003-2.471-0.389-3.707c-0.149-0.47-0.294-0.933-0.387-1.38
											c-0.299-1.442-0.632-2.876-0.94-4.316c-0.079-0.371-0.882-3.885-1.004-5.66c0.555-0.036,1.093-0.056,1.59-0.056
											c1.409,0,3.103,0.124,4.786,0.524c0.709,1.491,2.394,1.915,3.679,1.915c0.222,0,0.426-0.016,0.616-0.036
											c2.073,1.512,3.566,3.931,3.566,7.768C42.142,75.773,40.612,80.141,38.247,83.535z M46.016,68.991
											c-0.766,0.016-1.51-0.078-2.213-0.247c-0.364-1.598-1.032-2.99-1.956-4.183c1.012-0.207,2.378-0.369,4.119-0.386
											c3.752-0.042,5.85,0.623,6.221,1.016C52.133,67.226,49.337,68.958,46.016,68.991z M52.843,68.913
											c-0.177,0-0.348-0.022-0.519-0.044c0,0,0,0,0,0c0.953-0.824,1.584-1.842,1.786-2.965h2.602
											C56.263,67.629,54.706,68.913,52.843,68.913z M62.862,68.913c-1.864,0-3.42-1.284-3.868-3.009h7.737
											C66.283,67.629,64.726,68.913,62.862,68.913z M72.881,68.913c-1.864,0-3.421-1.284-3.869-3.009h7.737
											C76.302,67.629,74.745,68.913,72.881,68.913z M82.913,68.913c-1.864,0-3.421-1.284-3.869-3.009h7.737
											C86.334,67.629,84.777,68.913,82.913,68.913z M53.7,63.903C53.7,63.903,53.7,63.903,53.7,63.903
											c-1.432-1.587-5.704-1.748-7.754-1.728c-1.4,0.014-3.843,0.141-5.697,0.735c-0.149-0.122-0.31-0.234-0.467-0.35
											c0.773-2.237,1.15-4.135,1.069-5.61c-0.027-0.489-0.209-0.922-0.491-1.267h56.578v8.22H53.7z M96.237,67.095
											c-0.007,0.01-0.015,0.019-0.021,0.029c-0.1,0.146-0.207,0.287-0.324,0.419c-0.062,0.072-0.13,0.137-0.197,0.204
											c-0.044,0.044-0.083,0.092-0.13,0.134c-0.001-0.003-0.002-0.007-0.003-0.01c-0.507,0.462-1.128,0.794-1.821,0.944
											c0,0,0,0.001,0,0.001c-0.005,0.001-0.011,0.002-0.016,0.003c-0.092,0.019-0.185,0.035-0.279,0.048
											c-0.174,0.026-0.351,0.046-0.533,0.046c0,0-0.001,0-0.001,0s-0.001,0-0.001,0c-0.161,0-0.316-0.022-0.472-0.041
											c-1.648-0.198-2.986-1.393-3.395-2.969h0.015l7.723,0C96.669,66.336,96.479,66.734,96.237,67.095z M106.668,69.184
											c-2.704,2.703-7.038,2.79-9.856,0.281c1.264-1.083,2.078-2.679,2.107-4.464v0c0.003-0.034,0.02-0.063,0.02-0.098V57.42
											c2.584-1.019,5.643-0.489,7.729,1.597C109.47,61.82,109.47,66.381,106.668,69.184z M102.821,43.761
											c0-3.964,3.225-7.188,7.188-7.188s7.188,3.225,7.188,7.188s-3.225,7.188-7.188,7.188S102.821,47.725,102.821,43.761z"/>
										<circle class="st3" cx="23.58" cy="75.339" r="1.69"/>
										<path class="st0" d="M98.016,80.607c-0.53,0.155-0.834,0.711-0.679,1.241c0.631,2.15,1.268,4.25,1.91,6.302
											c0.134,0.428,0.528,0.702,0.954,0.702c0.099,0,0.199-0.015,0.299-0.046c0.527-0.165,0.82-0.726,0.655-1.253
											c-0.639-2.04-1.271-4.129-1.898-6.267C99.102,80.756,98.549,80.452,98.016,80.607z"/>
										<path class="st0" d="M35.409,73.649c-0.933,0-1.69,0.757-1.69,1.69c0,0.933,0.757,1.69,1.69,1.69
											c0.933,0,1.69-0.757,1.69-1.69C37.099,74.406,36.342,73.649,35.409,73.649z"/>
									</g>
								</g>
							</g>
						</g>
					</g>
				</g>
			</g>
		</g>
	</g>
</g>
</svg>
