<?xml version="1.0" encoding="utf-8"?>
<!-- Generator: Adobe Illustrator 22.0.1, SVG Export Plug-In . SVG Version: 6.00 Build 0)  -->
<svg version="1.1" id="Layer_1" xmlns="http://www.w3.org/2000/svg" xmlns:xlink="http://www.w3.org/1999/xlink" x="0px" y="0px"
	 viewBox="0 0 128 128" style="enable-background:new 0 0 128 128;" xml:space="preserve">
<style type="text/css">
	.st0{fill:#3A2C60;}
	.st1{fill:#E6E7E8;}
	.st2{fill:#6DC9F7;}
	.st3{fill:#FFFFFF;}
	.st4{fill:#FA759E;}
	.st5{fill:#FFD7E5;}
	.st6{fill:#D4FBFF;}
	.st7{fill:#0089EF;}
</style>
<g>
	<path class="st1" d="M94.999,44.848c-0.814-0.773-1.876-1.164-3.004-1.106c-1.822,0.096-3.298,1.446-3.709,3.225l-12.11,4.128
		c-0.033-3.443-2.374-6.391-5.711-7.177c-0.557-0.139-1.144-0.21-1.742-0.21c-4.119,0-7.471,3.347-7.471,7.46
		c0,4.114,3.352,7.46,7.471,7.46c0.599,0,1.186-0.071,1.729-0.207c2.647-0.624,4.648-2.603,5.396-5.102l12.313-4.197v2.786
		c0,4.87-3.962,8.832-8.831,8.832H58.107c-4.87,0-8.832-3.962-8.832-8.832v-3.949c0-2-1.331-3.678-3.134-4.109v-8.675
		c0.954-0.081,1.906-0.293,2.832-0.642c2.76-1.278,4.575-3.16,5.396-5.594c1.485-4.41-0.893-8.979-0.994-9.171
		c-0.214-0.402-0.668-0.607-1.114-0.505c-0.442,0.104-0.759,0.495-0.77,0.95c-0.005,0.242-0.026,0.461-0.061,0.658
		c-0.145,0.825-0.986,0.777-1.079,0.77c-0.2-0.017-0.855-0.128-0.86-0.863c-0.003-0.424,0.147-0.891,0.448-1.387
		c1.124-1.856,1.278-3.827,0.414-5.271c-0.517-0.863-1.329-1.375-2.201-1.397c-0.517-0.524-1.37-3.04-1.875-5.556
		c-0.094-0.467-0.504-0.804-0.98-0.804s-0.887,0.336-0.98,0.804c-0.504,2.517-1.357,5.032-1.874,5.556
		c-0.872,0.022-1.685,0.534-2.201,1.397c-0.864,1.443-0.71,3.414,0.414,5.271c0.301,0.497,0.451,0.963,0.448,1.388
		c-0.005,0.734-0.66,0.846-0.86,0.863c-0.092,0.008-0.935,0.056-1.079-0.768c-0.034-0.198-0.056-0.417-0.061-0.66
		c-0.011-0.455-0.327-0.846-0.77-0.95c-0.446-0.103-0.9,0.103-1.114,0.505c-0.102,0.192-2.479,4.761-0.994,9.171
		c0.82,2.434,2.636,4.316,5.463,5.623c0.795,0.299,1.619,0.488,2.453,0.582v8.759c-0.629,0.174-1.215,0.481-1.704,0.945
		c-0.803,0.762-1.263,1.833-1.263,2.938v4.121c0,9.336,7.596,16.932,16.933,16.932h0.396v52.315c0,2.472,2.011,4.482,4.482,4.482
		c2.472,0,4.482-2.011,4.482-4.482V95.538c0-0.689,0.561-1.25,1.25-1.25c0.688,0,1.249,0.561,1.249,1.25v25.466
		c0,2.37,1.777,4.395,4.046,4.611c1.259,0.119,2.52-0.296,3.451-1.144c0.933-0.848,1.468-2.057,1.468-3.317V68.839h0.397
		c9.336,0,16.932-7.596,16.932-16.932v-4.121C96.262,46.68,95.802,45.609,94.999,44.848z"/>
	<g>
		<g>
			<path class="st3" d="M64.718,40.706c-3.568,0-6.461,2.892-6.461,6.461c0,3.568,2.893,6.461,6.461,6.461
				c3.568,0,6.46-2.892,6.46-6.461C71.178,43.599,68.286,40.706,64.718,40.706z"/>
			<path class="st2" d="M71.182,47.167c0,3.05-2.12,5.61-4.96,6.28c-2.85-0.67-4.97-3.23-4.97-6.28s2.12-5.61,4.97-6.28
				C69.062,41.557,71.182,44.117,71.182,47.167z"/>
			<path class="st2" d="M88.047,40.74c-1.649,0.086-2.886,1.567-2.886,3.219v3.948c0,5.43-4.402,9.832-9.832,9.832h-1.397v0H55.503
				v0h-1.397c-5.43,0-9.832-4.402-9.832-9.832v-3.948c0-1.652-1.237-3.132-2.886-3.219c-1.759-0.092-3.214,1.307-3.214,3.046v4.121
				c0,8.799,7.133,15.932,15.932,15.932h1.397v53.316c0,1.923,1.559,3.482,3.482,3.482h0c1.923,0,3.482-1.559,3.482-3.482V91.538
				c0-1.242,1.007-2.25,2.25-2.25h0c1.242,0,2.25,1.007,2.25,2.25v25.467c0,1.819,1.33,3.443,3.14,3.616
				c2.077,0.198,3.825-1.43,3.825-3.466V83.728V63.839h1.397c8.799,0,15.932-7.133,15.932-15.932v-4.121
				C91.261,42.047,89.806,40.648,88.047,40.74z"/>
		</g>
		<g>
			<g>
				<path class="st4" d="M48.49,16.236c-0.007,0.296-0.033,0.565-0.075,0.807c-0.398,2.285-3.91,2.061-3.925-0.259
					c-0.004-0.553,0.157-1.192,0.593-1.911c1.742-2.878,0.379-5.225-1.06-5.149s-2.726-6.361-2.726-6.361s-1.287,6.437-2.726,6.361
					c-1.439-0.076-2.802,2.272-1.06,5.149c0.435,0.719,0.596,1.358,0.593,1.911c-0.015,2.319-3.527,2.544-3.925,0.259
					c-0.042-0.243-0.069-0.511-0.075-0.807c0,0-4.922,9.287,3.938,13.39l0,0c2.099,0.79,4.413,0.79,6.512,0l0,0
					C53.412,25.523,48.49,16.236,48.49,16.236z"/>
				<g>
					<path class="st0" d="M73.932,77.137c-0.553,0-1,0.448-1,1v5.59c0,0.552,0.447,1,1,1s1-0.448,1-1v-5.59
						C74.932,77.585,74.485,77.137,73.932,77.137z"/>
					<path class="st0" d="M90.999,40.848c-0.814-0.772-1.874-1.166-3.005-1.106c-1.822,0.095-3.297,1.445-3.708,3.224l-12.11,4.128
						c-0.034-3.443-2.375-6.39-5.711-7.177c-0.556-0.139-1.142-0.209-1.743-0.209c-4.119,0-7.47,3.347-7.47,7.46
						s3.351,7.46,7.47,7.46c0.6,0,1.187-0.071,1.729-0.207c2.648-0.625,4.649-2.603,5.397-5.102l12.312-4.197v2.786
						c0,4.87-3.962,8.832-8.832,8.832H54.106c-4.869,0-8.831-3.962-8.831-8.832v-3.948c0-2.001-1.332-3.678-3.135-4.109v-8.675
						c0.954-0.081,1.905-0.292,2.832-0.642c2.761-1.278,4.576-3.16,5.396-5.594c1.485-4.41-0.892-8.979-0.993-9.171
						c-0.213-0.401-0.668-0.608-1.112-0.505c-0.442,0.104-0.759,0.493-0.771,0.947c-0.006,0.244-0.027,0.464-0.062,0.662
						c-0.142,0.806-0.924,0.781-1.078,0.769c-0.201-0.017-0.856-0.128-0.861-0.862c-0.002-0.426,0.148-0.893,0.448-1.388
						c1.124-1.857,1.279-3.827,0.415-5.271c-0.517-0.863-1.33-1.375-2.201-1.397c-0.517-0.524-1.371-3.039-1.875-5.556
						c-0.094-0.467-0.504-0.804-0.98-0.804s-0.887,0.336-0.98,0.804c-0.504,2.517-1.357,5.032-1.874,5.556
						c-0.872,0.022-1.685,0.534-2.201,1.397c-0.864,1.443-0.71,3.414,0.414,5.271c0.301,0.497,0.451,0.963,0.448,1.388
						c-0.005,0.734-0.66,0.846-0.861,0.863c-0.156,0.013-0.938,0.037-1.078-0.768c-0.034-0.198-0.056-0.417-0.061-0.66
						c-0.011-0.455-0.327-0.846-0.77-0.95c-0.444-0.104-0.9,0.103-1.114,0.505c-0.102,0.192-2.479,4.761-0.994,9.171
						c0.819,2.434,2.635,4.316,5.463,5.623c0.795,0.299,1.618,0.488,2.452,0.582v8.758c-0.629,0.174-1.213,0.482-1.703,0.946
						c-0.803,0.761-1.263,1.833-1.263,2.938v4.121c0,9.336,7.596,16.932,16.932,16.932h0.397v52.315
						c0,2.472,2.011,4.482,4.482,4.482s4.482-2.011,4.482-4.482V91.539c0-0.689,0.561-1.25,1.249-1.25c0.689,0,1.25,0.561,1.25,1.25
						v25.467c0,2.369,1.777,4.395,4.046,4.611c1.266,0.122,2.521-0.297,3.451-1.145c0.933-0.848,1.468-2.057,1.468-3.317V88.513
						c0-0.552-0.447-1-1-1s-1,0.448-1,1v28.642c0,0.698-0.296,1.368-0.813,1.837c-0.523,0.477-1.204,0.699-1.916,0.633
						c-1.253-0.12-2.235-1.271-2.235-2.62V91.539c0-1.792-1.458-3.25-3.25-3.25s-3.249,1.458-3.249,3.25v25.616
						c0,1.369-1.113,2.482-2.482,2.482s-2.482-1.114-2.482-2.482V63.839c0-0.552-0.447-1-1-1h-1.397
						c-8.233,0-14.932-6.699-14.932-14.932v-4.121c0-0.568,0.228-1.097,0.64-1.488c0.101-0.096,0.211-0.18,0.326-0.253v5.862
						c0,0.552,0.447,1,1,1s1-0.448,1-1v-5.929c0.668,0.37,1.135,1.128,1.135,1.981v3.948c0,5.973,4.858,10.832,10.831,10.832h21.223
						c5.973,0,10.832-4.859,10.832-10.832v-3.468l2.208-0.753c0.523-0.178,0.803-0.746,0.624-1.269
						c-0.156-0.458-0.614-0.712-1.078-0.649c0.062-0.01,0.121-0.027,0.185-0.03c0.573-0.028,1.111,0.169,1.522,0.56
						c0.413,0.392,0.64,0.919,0.64,1.488v4.121c0,8.233-6.699,14.932-14.933,14.932h-1.396c-0.553,0-1,0.448-1,1v9.548
						c0,0.552,0.447,1,1,1s1-0.448,1-1v-8.548h0.396c9.337,0,16.933-7.596,16.933-16.932v-4.121
						C92.261,42.68,91.801,41.609,90.999,40.848z M34.125,24.311c-0.643-1.895-0.37-3.901,0.031-5.377
						c0.633,0.534,1.466,0.764,2.252,0.7c1.577-0.131,2.686-1.3,2.695-2.843c0.006-0.799-0.242-1.619-0.737-2.436
						c-0.863-1.427-0.777-2.593-0.409-3.208c0.159-0.267,0.374-0.41,0.562-0.425c0.446,0.027,1.6,0.084,2.778-3.364
						c1.18,3.448,2.336,3.391,2.779,3.364c0.171,0.014,0.4,0.158,0.562,0.425c0.368,0.615,0.454,1.78-0.41,3.208
						c-0.493,0.815-0.741,1.634-0.737,2.436c0.01,1.543,1.118,2.712,2.695,2.843c0.783,0.066,1.623-0.167,2.256-0.704
						c0.401,1.47,0.672,3.468,0.032,5.37c-0.639,1.894-2.099,3.38-4.273,4.39c-1.871,0.705-3.934,0.705-5.739,0.029
						C36.223,27.682,34.764,26.199,34.125,24.311z M65.979,52.477c-0.397,0.1-0.82,0.15-1.257,0.15c-3.016,0-5.47-2.449-5.47-5.46
						s2.454-5.46,5.47-5.46c0.438,0,0.86,0.05,1.271,0.153c2.467,0.582,4.189,2.764,4.189,5.307c0,0.212-0.029,0.418-0.053,0.624
						l-5.734,1.955c-0.523,0.178-0.803,0.746-0.624,1.269c0.142,0.416,0.53,0.678,0.946,0.678c0.106,0,0.216-0.018,0.322-0.054
						l4.204-1.433C68.499,51.314,67.365,52.15,65.979,52.477z"/>
				</g>
			</g>
			<path class="st5" d="M43.006,23.934c-2.174-0.197-2.37-0.493-1.007-0.697c1.179-0.177,1.823-1.036,1.976-1.265
				c-1.195-0.629-1.987-1.838-1.996-3.309c-0.006-0.944,0.275-1.892,0.835-2.818c0.372-0.614,0.431-1.067,0.411-1.322
				c-0.532-0.06-1.218-2.124-1.929-3.134c-0.711,1.01-1.396,3.074-1.929,3.134c-0.019,0.254,0.04,0.708,0.412,1.322
				c0.56,0.926,0.841,1.874,0.835,2.818c-0.014,2.155-1.684,3.78-3.886,3.78c-0.283,0-0.56-0.028-0.826-0.082
				c-0.085,0.816-0.05,1.7,0.234,2.542c0.449,1.335,1.465,2.362,3.105,3.137c0.661,0.239,1.352,0.36,2.056,0.36
				c0.704,0,1.395-0.121,2.055-0.36c1.632-0.771,2.646-1.792,3.099-3.117c0.288-0.841,0.325-1.726,0.242-2.543
				C46.229,22.839,44.791,24.096,43.006,23.934z"/>
		</g>
	</g>
</g>
</svg>
