<?xml version="1.0" encoding="utf-8"?>
<!-- Generator: Adobe Illustrator 22.0.1, SVG Export Plug-In . SVG Version: 6.00 Build 0)  -->
<svg version="1.1" id="Layer_1" xmlns="http://www.w3.org/2000/svg" xmlns:xlink="http://www.w3.org/1999/xlink" x="0px" y="0px"
	 viewBox="0 0 128 128" style="enable-background:new 0 0 128 128;" xml:space="preserve">
<style type="text/css">
	.st0{fill:#3A2C60;}
	.st1{fill:#E6E7E8;}
	.st2{fill:#6DC9F7;}
	.st3{fill:#FFFFFF;}
	.st4{fill:#FA759E;}
	.st5{fill:#FFD7E5;}
	.st6{fill:#D4FBFF;}
	.st7{fill:#0089EF;}
</style>
<g>
	<circle class="st1" cx="66" cy="66" r="55.132"/>
	<g>
		<g>
			<g>
				<g>
					<circle class="st4" cx="62" cy="62" r="54.132"/>
					
						<ellipse transform="matrix(0.9571 -0.2898 0.2898 0.9571 -15.3063 20.6269)" class="st3" cx="62" cy="62" rx="44.625" ry="44.625"/>
					<circle class="st4" cx="62" cy="62" r="36.993"/>
					<circle class="st3" cx="62" cy="62" r="30.04"/>
					
						<ellipse transform="matrix(0.5257 -0.8507 0.8507 0.5257 -23.3356 82.1451)" class="st4" cx="62" cy="62" rx="22.297" ry="22.297"/>
					<circle class="st3" cx="62" cy="62" r="15.77"/>
					<circle class="st4" cx="62" cy="62" r="8.785"/>
					<circle class="st4" cx="62" cy="62" r="8.785"/>
				</g>
			</g>
			<g>
				<path class="st2" d="M71.106,64.125v-12.69c0-4.167,1.097-8.26,3.18-11.869l11.656-20.19c0.957-1.658,0.215-3.851-1.678-4.527
					c-1.457-0.52-3.074,0.217-3.847,1.557L69.714,34.946c-1.327,2.298-3.779,3.714-6.433,3.714h-2.562
					c-2.654,0-5.106-1.416-6.433-3.714l-10.704-18.54c-0.774-1.34-2.39-2.077-3.847-1.557c-1.893,0.675-2.635,2.869-1.678,4.527
					l11.657,20.19c2.083,3.609,3.18,7.702,3.18,11.869c0,0-0.077,18.341-0.077,18.591v39.976c0,1.959,1.603,3.562,3.562,3.562h0.341
					c1.959,0,3.562-1.603,3.562-3.562v-35.6c0-0.902,0.731-1.634,1.634-1.634h0c0.902,0,1.634,0.731,1.634,1.634v35.6
					c0,1.959,1.603,3.562,3.562,3.562h0.341c1.959,0,3.562-1.603,3.562-3.562c0,0,0.092-37.264,0.092-37.301v-4.254V64.125z"/>
				<g>
					<path class="st3" d="M55.817,110.002V70.026c0-0.25,0.077-18.591,0.077-18.591c0-4.167-1.097-8.26-3.18-11.869l-11.656-20.19
						c-0.865-1.499-0.332-3.424,1.175-4.281c-0.757-0.417-1.652-0.548-2.497-0.246c-1.893,0.675-2.635,2.869-1.678,4.527
						l11.656,20.19c2.083,3.609,3.18,7.702,3.18,11.869c0,0-0.077,18.341-0.077,18.591v39.976c0,1.959,1.603,3.562,3.562,3.562
						h0.341c0.47,0,0.918-0.097,1.329-0.264C56.745,112.77,55.817,111.491,55.817,110.002z"/>
				</g>
				<path class="st2" d="M62,34.207c4.138,0,7.492-3.354,7.492-7.492c0-4.138-3.354-7.492-7.492-7.492s-7.492,3.354-7.492,7.492
					C54.508,30.853,57.862,34.207,62,34.207z"/>
			</g>
		</g>
		<path class="st4" d="M73.802,108.038H50.198c-0.908,0-1.644-0.736-1.644-1.644l0,0c0-0.908,0.736-1.644,1.644-1.644h23.605
			c0.908,0,1.644,0.736,1.644,1.644l0,0C75.446,107.302,74.71,108.038,73.802,108.038z"/>
		<path class="st4" d="M47.998,18.019c-0.522-0.904-1.678-1.214-2.583-0.692l-7.191,4.152c-0.904,0.522-1.214,1.678-0.692,2.583
			c0.522,0.904,1.678,1.214,2.583,0.692l7.191-4.152C48.21,20.08,48.52,18.924,47.998,18.019z"/>
		<g>
			<path class="st4" d="M86.264,21.479l-7.191-4.152c-0.904-0.522-2.06-0.212-2.583,0.692c-0.522,0.904-0.212,2.061,0.692,2.583
				l7.191,4.152c0.904,0.522,2.06,0.212,2.583-0.692S87.168,22.001,86.264,21.479z"/>
			<g>
				<path class="st0" d="M62,6.868C31.6,6.868,6.868,31.6,6.868,62S31.6,117.132,62,117.132c30.4,0,55.133-24.732,55.133-55.132
					S92.4,6.868,62,6.868z M77.683,19.736c-0.206-0.119-0.354-0.312-0.415-0.541c-0.062-0.23-0.03-0.47,0.089-0.675
					c0.245-0.425,0.789-0.575,1.217-0.326l7.19,4.151c0.206,0.119,0.354,0.312,0.415,0.542s0.03,0.47-0.089,0.676
					c-0.119,0.206-0.311,0.353-0.54,0.415c-0.232,0.062-0.472,0.03-0.676-0.089L77.683,19.736z M85.077,18.876l-0.33,0.572
					l-3.698-2.135l0.235-0.407c0.562-0.973,1.698-1.454,2.646-1.115c0.614,0.219,1.075,0.673,1.298,1.279
					C85.448,17.671,85.393,18.329,85.077,18.876z M84.5,13.882c-1.849-0.603-3.913,0.232-4.948,2.024l-0.25,0.433
					c-1.334-0.596-2.932-0.113-3.678,1.18c-0.386,0.669-0.488,1.448-0.288,2.194c0.173,0.649,0.568,1.194,1.105,1.582l-7.592,13.151
					c-1.145,1.983-3.278,3.214-5.567,3.214h-2.563c-2.289,0-4.422-1.231-5.566-3.214l-7.456-12.914l0.11-0.064v0
					c0.669-0.386,1.147-1.01,1.347-1.755c0.2-0.746,0.097-1.525-0.289-2.193s-1.009-1.146-1.755-1.347
					c-0.746-0.199-1.525-0.097-2.193,0.289l-0.111,0.064l-0.357-0.619c-1.036-1.793-3.101-2.628-4.948-2.024
					c6.837-3.21,14.46-5.014,22.5-5.014C70.04,8.868,77.663,10.672,84.5,13.882z M39.615,23.888c-0.423,0.246-0.971,0.1-1.217-0.326
					c-0.119-0.206-0.15-0.445-0.089-0.675s0.209-0.422,0.415-0.541l7.191-4.152c0.137-0.079,0.289-0.12,0.443-0.12
					c0.078,0,0.155,0.01,0.232,0.031c0.229,0.062,0.422,0.208,0.54,0.415c0.119,0.206,0.151,0.446,0.09,0.676
					c-0.062,0.229-0.209,0.422-0.415,0.541L39.615,23.888z M38.924,18.876c-0.316-0.548-0.371-1.206-0.15-1.807
					c0.223-0.605,0.684-1.059,1.298-1.278c0.944-0.336,2.083,0.141,2.645,1.115l0.357,0.619l-3.697,2.135L38.924,18.876z
					 M62,115.132C32.703,115.132,8.868,91.297,8.868,62c0-20.868,12.098-38.956,29.643-47.642c-0.734,0.482-1.306,1.181-1.615,2.021
					c-0.426,1.159-0.318,2.434,0.295,3.497l0.457,0.792c-1.317,0.819-1.763,2.542-0.982,3.894c0.535,0.926,1.509,1.444,2.509,1.444
					c0.46,0,0.923-0.121,1.353-0.35l8.319,14.41c1.993,3.451,3.047,7.382,3.047,11.364c0,0-0.077,18.345-0.077,18.596v33.725h-1.619
					c-1.458,0-2.644,1.186-2.644,2.644s1.186,2.644,2.644,2.644h1.619v0.964c0,2.515,2.046,4.562,4.562,4.562h0.341
					c2.516,0,4.563-2.046,4.563-4.562v-0.964h1.268v0.964c0,2.515,2.046,4.562,4.562,4.562h0.341c2.516,0,4.562-2.046,4.562-4.559
					c0,0,0.001-0.352,0.002-0.967h1.787c1.458,0,2.644-1.186,2.644-2.644s-1.186-2.644-2.644-2.644h-1.773
					c0.026-10.61,0.077-31.023,0.077-31.05c0-0.552-0.447-1-0.999-1h-0.001c-0.552,0-0.999,0.447-1,0.999
					c0,0.098-0.051,20.46-0.077,31.052H64.55V74.402c0-1.452-1.182-2.634-2.634-2.634s-2.634,1.182-2.634,2.634v29.349h-5.465
					V70.026c0-0.25,0.077-18.587,0.077-18.591c0-4.337-1.146-8.614-3.314-12.369l-8.313-14.4l3.697-2.135l7.456,12.914
					c1.501,2.6,4.298,4.214,7.299,4.214h2.563c3.002,0,5.799-1.615,7.3-4.214l7.578-13.125l3.698,2.135L73.42,39.066
					c-2.168,3.756-3.313,8.033-3.313,12.369v7.931c0,0.552,0.447,1,1,1s1-0.448,1-1v-7.931c0-3.986,1.053-7.917,3.046-11.369
					l8.436-14.611l0.285,0.165c0.445,0.257,0.939,0.389,1.44,0.389c0.251,0,0.504-0.033,0.753-0.1
					c0.746-0.2,1.369-0.678,1.755-1.346c0.797-1.38,0.322-3.152-1.059-3.95l-0.284-0.164l0.33-0.572
					c0.613-1.063,0.721-2.337,0.295-3.496c-0.309-0.84-0.881-1.539-1.615-2.022c17.546,8.686,29.644,26.774,29.644,47.642
					C115.133,91.297,91.298,115.132,62,115.132z M62.55,103.751h-1.268V74.402c0-0.35,0.284-0.634,0.634-0.634
					s0.634,0.284,0.634,0.634V103.751z M73.803,105.751c0.354,0,0.644,0.289,0.644,0.644s-0.289,0.644-0.644,0.644H50.198
					c-0.354,0-0.644-0.289-0.644-0.644s0.289-0.644,0.644-0.644H73.803z M64.55,109.038h5.466c-0.002,0.613-0.002,0.964-0.002,0.964
					c0,1.413-1.149,2.562-2.562,2.562h-0.341c-1.412,0-2.562-1.149-2.562-2.562V109.038z M53.817,109.038h5.465v0.964
					c0,1.413-1.149,2.562-2.563,2.562h-0.341c-1.412,0-2.562-1.149-2.562-2.562V109.038z"/>
				<path class="st0" d="M71.106,63.125c-0.553,0-1,0.448-1,1v4.322c0,0.552,0.447,1,1,1s1-0.448,1-1v-4.322
					C72.106,63.572,71.659,63.125,71.106,63.125z"/>
				<path class="st0" d="M62,35.208c4.683,0,8.492-3.81,8.492-8.492s-3.81-8.492-8.492-8.492s-8.492,3.81-8.492,8.492
					S57.317,35.208,62,35.208z M62,20.223c3.58,0,6.492,2.913,6.492,6.492S65.58,33.208,62,33.208s-6.492-2.913-6.492-6.492
					S58.42,20.223,62,20.223z"/>
				<path class="st0" d="M45.216,59.229h0.341c0.372,0,0.673-0.301,0.673-0.673s-0.301-0.673-0.673-0.673h-0.406
					c-0.28-0.581-0.869-0.984-1.557-0.984c-0.688,0-1.277,0.404-1.557,0.984H41.49c-0.372,0-0.673,0.301-0.673,0.673
					s0.301,0.673,0.673,0.673h0.481c0.244,0.663,0.875,1.138,1.622,1.138C44.341,60.366,44.972,59.891,45.216,59.229z"/>
				<path class="st0" d="M19.409,71.769h-0.406c-0.28-0.581-0.869-0.984-1.557-0.984s-1.277,0.404-1.557,0.984h-0.547
					c-0.372,0-0.673,0.301-0.673,0.673s0.301,0.673,0.673,0.673h0.482c0.244,0.663,0.875,1.138,1.622,1.138s1.378-0.475,1.622-1.138
					h0.341c0.372,0,0.673-0.301,0.673-0.673S19.781,71.769,19.409,71.769z"/>
				<path class="st0" d="M95.248,98.243h-0.406c-0.28-0.581-0.869-0.984-1.557-0.984s-1.277,0.404-1.557,0.984h-0.547
					c-0.372,0-0.673,0.301-0.673,0.673s0.301,0.673,0.673,0.673h0.482c0.244,0.663,0.875,1.138,1.622,1.138s1.378-0.475,1.622-1.138
					h0.341c0.372,0,0.673-0.301,0.673-0.673S95.62,98.243,95.248,98.243z"/>
				<path class="st0" d="M79.334,40.685c-0.323-0.607-0.956-0.938-1.6-0.913l-0.257-0.483c-0.174-0.328-0.582-0.453-0.91-0.278
					c-0.328,0.174-0.453,0.582-0.279,0.91l0.226,0.425c-0.471,0.526-0.594,1.307-0.243,1.966c0.351,0.66,1.067,0.994,1.766,0.899
					l0.16,0.301c0.175,0.328,0.582,0.453,0.91,0.279c0.328-0.174,0.453-0.582,0.278-0.91l-0.191-0.359
					C79.577,42.002,79.657,41.292,79.334,40.685z"/>
				<path class="st0" d="M41.287,38.156l-0.191-0.359c0.381-0.52,0.461-1.23,0.138-1.837c-0.323-0.607-0.956-0.938-1.6-0.913
					l-0.256-0.483c-0.175-0.328-0.582-0.453-0.91-0.278c-0.328,0.174-0.453,0.582-0.278,0.91l0.226,0.425
					c-0.471,0.526-0.594,1.307-0.243,1.966c0.351,0.66,1.066,0.994,1.766,0.899l0.16,0.301c0.174,0.328,0.582,0.453,0.91,0.279
					C41.337,38.892,41.461,38.484,41.287,38.156z"/>
				<path class="st0" d="M75.869,92.258c-0.323-0.607-0.956-0.938-1.6-0.913l-0.257-0.483c-0.174-0.328-0.582-0.453-0.91-0.278
					c-0.328,0.174-0.453,0.582-0.278,0.91l0.226,0.425c-0.471,0.526-0.594,1.307-0.243,1.966c0.351,0.66,1.066,0.994,1.766,0.899
					l0.16,0.301c0.175,0.328,0.582,0.453,0.91,0.279c0.328-0.174,0.453-0.582,0.278-0.91l-0.191-0.359
					C76.112,93.575,76.192,92.866,75.869,92.258z"/>
				<path class="st0" d="M46.788,87.32c-0.323-0.607-0.956-0.938-1.6-0.913l-0.257-0.483c-0.174-0.328-0.582-0.453-0.91-0.278
					c-0.328,0.174-0.453,0.582-0.278,0.91l0.226,0.425c-0.471,0.526-0.594,1.307-0.243,1.966c0.351,0.66,1.066,0.994,1.766,0.899
					l0.16,0.301c0.175,0.328,0.582,0.453,0.91,0.279c0.328-0.174,0.453-0.582,0.278-0.91l-0.191-0.359
					C47.03,88.637,47.11,87.928,46.788,87.32z"/>
			</g>
		</g>
	</g>
</g>
</svg>
