<?xml version="1.0" encoding="utf-8"?>
<!-- Generator: Adobe Illustrator 22.0.1, SVG Export Plug-In . SVG Version: 6.00 Build 0)  -->
<svg version="1.1" id="Layer_1" xmlns="http://www.w3.org/2000/svg" xmlns:xlink="http://www.w3.org/1999/xlink" x="0px" y="0px"
	 viewBox="0 0 128 128" style="enable-background:new 0 0 128 128;" xml:space="preserve">
<style type="text/css">
	.st0{fill:#3A2C60;}
	.st1{fill:#E6E7E8;}
	.st2{fill:#6DC9F7;}
	.st3{fill:#FFFFFF;}
	.st4{fill:#FA759E;}
	.st5{fill:#FFD7E5;}
	.st6{fill:#D4FBFF;}
	.st7{fill:#0089EF;}
</style>
<g>
	<path class="st1" d="M107.617,11.138H65.639H24.383c-5.596,0-10.148,4.553-10.148,10.149v30.708v6.543v45.984
		c0,5.596,4.553,10.149,10.148,10.149h29.852v3.191c0,1.654,1.346,3,3,3s3-1.346,3-3v-6.191c0-1.654-1.346-3-3-3H24.383
		c-2.287,0-4.148-1.861-4.148-4.149V21.287c0-2.288,1.861-4.149,4.148-4.149h13.574v4h-8.979c-2.616,0-4.744,2.128-4.744,4.745
		v59.979c0,1.654,1.346,3,3,3s3-1.346,3-3V27.138H62.83c1.654,0,3-1.346,3-3s-1.346-3-3-3H43.957v-4h21.682h41.979
		c2.287,0,4.148,1.861,4.148,4.149V78.67h-4V25.883c0-2.616-2.128-4.745-4.744-4.745H80.106c-1.654,0-3,1.346-3,3s1.346,3,3,3
		h21.659V98.67h-4v-7c0-1.654-1.346-3-3-3H70.981v-4h13.784c1.654,0,3-1.346,3-3V44.138c0-1.654-1.346-3-3-3H65.639H47.234
		c-1.654,0-3,1.346-3,3s1.346,3,3,3h18.404h16.127V68.67H65.639h-5.404V57.138h5.404h6.127v5.064c0,1.654,1.346,3,3,3s3-1.346,3-3
		v-8.064c0-1.654-1.346-3-3-3h-9.127h-8.404c-1.654,0-3,1.346-3,3V71.67c0,1.654,1.346,3,3,3h8.404h16.127v4H65.639H50.234V57.266
		c0-1.654-1.346-3-3-3s-3,1.346-3,3V81.67c0,1.654,1.346,3,3,3h17.404v4H40.234V37.138h25.404h26.127V76.84c0,1.654,1.346,3,3,3
		s3-1.346,3-3V34.138c0-1.654-1.346-3-3-3H65.639H37.234c-1.654,0-3,1.346-3,3V91.67c0,1.654,1.346,3,3,3h28.404h26.127v4H65.639
		H29.96c-0.489-1.06-1.56-1.745-2.726-1.745c-1.654,0-3,1.346-3,3c0,2.616,2.128,4.745,4.744,4.745h36.66h37.383
		c2.616,0,4.744-2.128,4.744-4.745V84.67h4v19.851c0,2.288-1.861,4.149-4.148,4.149H76.894c-1.654,0-3,1.346-3,3v6.191
		c0,1.654,1.346,3,3,3s3-1.346,3-3v-3.191h27.724c5.596,0,10.148-4.553,10.148-10.149V21.287
		C117.766,15.691,113.213,11.138,107.617,11.138z"/>
	<g>
		<path class="st4" d="M25.32,95.67l-0.269-0.581c-0.326-0.707-1.04-1.164-1.817-1.164c-1.103,0-2,0.897-2,2
			c0,2.065,1.68,3.745,3.744,3.745h36.66v-4H25.32z"/>
		<path class="st4" d="M55.234,52.138h6.404v-4h-8.404c-1.103,0-2,0.897-2,2V67.67c0,1.103,0.897,2,2,2h8.404v-4h-6.404V52.138z"/>
		<path class="st2" d="M68.766,52.138v6.064c0,1.103,0.897,2,2,2s2-0.897,2-2v-8.064c0-1.103-0.897-2-2-2h-9.127v4H68.766z"/>
		<path class="st2" d="M88.766,32.138V72.84c0,1.103,0.897,2,2,2s2-0.897,2-2V30.138c0-1.103-0.897-2-2-2H61.638v4H88.766z"/>
		<path class="st4" d="M41.234,40.138c0,1.103,0.897,2,2,2h18.404v-4H43.234C42.132,38.138,41.234,39.035,41.234,40.138z"/>
		<path class="st2" d="M103.617,8.138H61.638v4h41.979c2.839,0,5.148,2.31,5.148,5.149V75.67h-6V21.883
			c0-2.065-1.68-3.745-3.744-3.745H76.106c-1.103,0-2,0.897-2,2s0.897,2,2,2h22.659V95.67h-6v-8c0-1.103-0.897-2-2-2H65.982v-6
			h14.784c1.103,0,2-0.897,2-2V40.138c0-1.103-0.897-2-2-2H61.638v4h17.127V65.67H61.638v4h17.127v6H61.638v14h27.127v6H61.638v4
			h37.383c2.064,0,3.744-1.68,3.744-3.745V79.67h6v20.851c0,2.839-2.31,5.149-5.148,5.149H72.894c-1.103,0-2,0.897-2,2v6.191
			c0,1.103,0.897,2,2,2s2-0.897,2-2v-4.191h28.724c5.045,0,9.148-4.104,9.148-9.149V17.287
			C112.766,12.242,108.662,8.138,103.617,8.138z"/>
		<g>
			<path class="st4" d="M35.234,32.138h26.404v-4H33.234c-1.103,0-2,0.897-2,2V87.67c0,1.103,0.897,2,2,2h28.404v-4H35.234V32.138z"
				/>
			<path class="st4" d="M45.234,75.67V53.266c0-1.103-0.897-2-2-2s-2,0.897-2,2V77.67c0,1.103,0.897,2,2,2h18.404v-4H45.234z"/>
		</g>
		<path class="st4" d="M61.638,12.138v-4H20.383c-5.045,0-9.148,4.104-9.148,9.149v83.234c0,5.045,4.104,9.149,9.148,9.149h30.852
			v4.191c0,1.103,0.897,2,2,2s2-0.897,2-2v-6.191c0-1.103-0.897-2-2-2H20.383c-2.839,0-5.148-2.31-5.148-5.149V17.287
			c0-2.839,2.31-5.149,5.148-5.149h14.574v6h-9.979c-2.064,0-3.744,1.68-3.744,3.745v59.979c0,1.103,0.897,2,2,2s2-0.897,2-2V22.138
			H58.83c1.103,0,2-0.897,2-2s-0.897-2-2-2H38.957v-6H61.638z"/>
		<g>
			<path class="st3" d="M14.234,100.521V17.287c0-5.045,4.104-9.149,9.148-9.149h-3c-5.045,0-9.148,4.104-9.148,9.149v83.234
				c0,5.045,4.104,9.149,9.148,9.149h3C18.338,109.67,14.234,105.566,14.234,100.521z"/>
		</g>
		<g>
			<path class="st0" d="M103.617,7.138H61.639H20.383c-5.596,0-10.148,4.553-10.148,10.149v26.341c0,0.552,0.447,1,1,1s1-0.448,1-1
				V17.287c0-4.493,3.655-8.149,8.148-8.149h40.256v2H38.957c-0.553,0-1,0.448-1,1v6c0,0.552,0.447,1,1,1H58.83c0.552,0,1,0.449,1,1
				s-0.448,1-1,1H25.234c-0.553,0-1,0.448-1,1v59.724c0,0.551-0.448,1-1,1s-1-0.449-1-1V21.883c0-1.513,1.231-2.745,2.744-2.745
				h9.979c0.553,0,1-0.448,1-1v-6c0-0.552-0.447-1-1-1H20.383c-3.391,0-6.148,2.758-6.148,6.149v83.234
				c0,3.391,2.758,6.149,6.148,6.149h32.852c0.552,0,1,0.449,1,1v6.191c0,0.551-0.448,1-1,1s-1-0.449-1-1v-4.191
				c0-0.552-0.447-1-1-1H20.383c-4.493,0-8.148-3.656-8.148-8.149V59.474c0-0.552-0.447-1-1-1s-1,0.448-1,1v41.048
				c0,5.596,4.553,10.149,10.148,10.149h29.852v3.191c0,1.654,1.346,3,3,3s3-1.346,3-3v-6.191c0-1.654-1.346-3-3-3H20.383
				c-2.287,0-4.148-1.861-4.148-4.149V17.287c0-2.288,1.861-4.149,4.148-4.149h13.574v4h-8.979c-2.616,0-4.744,2.128-4.744,4.745
				v59.979c0,1.654,1.346,3,3,3s3-1.346,3-3V23.138H58.83c1.654,0,3-1.346,3-3s-1.346-3-3-3H39.957v-4h21.682h41.979
				c2.287,0,4.148,1.861,4.148,4.149V74.67h-4V21.883c0-2.616-2.128-4.745-4.744-4.745H76.106c-1.654,0-3,1.346-3,3s1.346,3,3,3
				h21.659V94.67h-4v-7c0-1.654-1.346-3-3-3H66.981v-4h13.784c1.654,0,3-1.346,3-3V40.138c0-1.654-1.346-3-3-3H61.639H43.234
				c-1.654,0-3,1.346-3,3s1.346,3,3,3h18.404h16.127V64.67H61.639h-5.404V53.138h5.404h6.127v5.064c0,1.654,1.346,3,3,3s3-1.346,3-3
				v-8.064c0-1.654-1.346-3-3-3h-9.127h-8.404c-1.654,0-3,1.346-3,3V67.67c0,1.654,1.346,3,3,3h8.404h16.127v4H61.639H46.234V53.266
				c0-1.654-1.346-3-3-3s-3,1.346-3,3V77.67c0,1.654,1.346,3,3,3h17.404v4H36.234V33.138h25.404h26.127V72.84c0,1.654,1.346,3,3,3
				s3-1.346,3-3V30.138c0-1.654-1.346-3-3-3H61.639H33.234c-1.654,0-3,1.346-3,3V87.67c0,1.654,1.346,3,3,3h28.404h26.127v4H61.639
				H25.96c-0.489-1.06-1.56-1.745-2.726-1.745c-1.654,0-3,1.346-3,3c0,2.616,2.128,4.745,4.744,4.745h36.66h37.383
				c2.616,0,4.744-2.128,4.744-4.745V80.67h4v19.851c0,2.288-1.861,4.149-4.148,4.149H72.894c-1.654,0-3,1.346-3,3v6.191
				c0,1.654,1.346,3,3,3s3-1.346,3-3v-3.191h27.724c5.596,0,10.148-4.553,10.148-10.149V17.287
				C113.766,11.691,109.213,7.138,103.617,7.138z M42.234,40.138c0-0.551,0.448-1,1-1h17.404v2H43.234
				C42.683,41.138,42.234,40.689,42.234,40.138z M71.766,50.138v8.064c0,0.551-0.448,1-1,1s-1-0.449-1-1v-6.064c0-0.552-0.447-1-1-1
				h-6.127v-2h8.127C71.317,49.138,71.766,49.587,71.766,50.138z M52.234,67.67V50.138c0-0.551,0.448-1,1-1h7.404v2h-5.404
				c-0.553,0-1,0.448-1,1V65.67c0,0.552,0.447,1,1,1h5.404v2h-7.404C52.683,68.67,52.234,68.222,52.234,67.67z M43.234,78.67
				c-0.552,0-1-0.449-1-1V53.266c0-0.551,0.448-1,1-1s1,0.449,1,1V75.67c0,0.552,0.447,1,1,1h15.404v2H43.234z M91.766,30.138V72.84
				c0,0.551-0.448,1-1,1s-1-0.449-1-1V32.138c0-0.552-0.447-1-1-1H62.639v-2h28.127C91.317,29.138,91.766,29.587,91.766,30.138z
				 M32.234,87.67V30.138c0-0.551,0.448-1,1-1h27.404v2H35.234c-0.553,0-1,0.448-1,1V85.67c0,0.552,0.447,1,1,1h25.404v2H33.234
				C32.683,88.67,32.234,88.222,32.234,87.67z M22.234,95.926c0-0.551,0.448-1,1-1c0.389,0,0.746,0.229,0.91,0.584l0.269,0.581
				c0.163,0.354,0.518,0.58,0.907,0.58h35.318v2h-35.66C23.466,98.67,22.234,97.439,22.234,95.926z M111.766,100.521
				c0,4.493-3.655,8.149-8.148,8.149H74.894c-0.553,0-1,0.448-1,1v4.191c0,0.551-0.448,1-1,1s-1-0.449-1-1v-6.191
				c0-0.551,0.448-1,1-1h30.724c3.391,0,6.148-2.758,6.148-6.149V79.67c0-0.552-0.447-1-1-1h-6c-0.553,0-1,0.448-1,1v16.255
				c0,1.513-1.231,2.745-2.744,2.745H62.639v-2h26.127c0.553,0,1-0.448,1-1v-6c0-0.552-0.447-1-1-1H62.639v-3v-6v-3h16.127
				c0.553,0,1-0.448,1-1v-6c0-0.552-0.447-1-1-1H62.639v-2h16.127c0.553,0,1-0.448,1-1V42.138c0-0.552-0.447-1-1-1H62.639v-2h18.127
				c0.552,0,1,0.449,1,1V77.67c0,0.551-0.448,1-1,1H65.981c-0.553,0-1,0.448-1,1v6c0,0.552,0.447,1,1,1h24.784c0.552,0,1,0.449,1,1
				v8c0,0.552,0.447,1,1,1h6c0.553,0,1-0.448,1-1V22.138c0-0.552-0.447-1-1-1H76.106c-0.552,0-1-0.449-1-1s0.448-1,1-1h22.915
				c1.513,0,2.744,1.231,2.744,2.745V75.67c0,0.552,0.447,1,1,1h6c0.553,0,1-0.448,1-1V17.287c0-3.391-2.758-6.149-6.148-6.149
				H62.639v-2h40.979c4.493,0,8.148,3.656,8.148,8.149V100.521z"/>
			<path class="st0" d="M11.234,55.538c0.553,0,1-0.448,1-1v-6.543c0-0.552-0.447-1-1-1s-1,0.448-1,1v6.543
				C10.234,55.09,10.682,55.538,11.234,55.538z"/>
		</g>
	</g>
</g>
</svg>
