<svg id="Layer_2" data-name="Layer 2" xmlns="http://www.w3.org/2000/svg" viewBox="0 0 128 128"><title>BACKPACK</title><path d="M64,17.333h0A44.167,44.167,0,0,1,108.167,61.5v57.75a7,7,0,0,1-7,7H26.833a7,7,0,0,1-7-7V61.5A44.167,44.167,0,0,1,64,17.333Z" style="fill:#515a5e"/><path d="M53.189,20.492,56.14,11.57H71.86l2.951,8.922a43.826,43.826,0,0,1,9.646,3.688L77.64,3.57H50.36L43.543,24.179A43.874,43.874,0,0,1,53.189,20.492Z" style="fill:#515a5e"/><path d="M91.392,5.5,90.119,25.889A44.1,44.1,0,0,1,108.167,61.5V5.75a4,4,0,0,0-4-4H95.384A4,4,0,0,0,91.392,5.5Z" style="fill:#343c3f"/><path d="M37.881,25.889,36.608,5.5A4,4,0,0,0,32.616,1.75H23.833a4,4,0,0,0-4,4V61.5A44.1,44.1,0,0,1,37.881,25.889Z" style="fill:#343c3f"/><path d="M10.267,70.448h9.566a0,0,0,0,1,0,0V113.5a0,0,0,0,1,0,0H10.267a6,6,0,0,1-6-6V76.448A6,6,0,0,1,10.267,70.448Z" style="fill:#4695bc"/><rect x="4.267" y="83.083" width="15.566" height="7.083" style="fill:#343c3f"/><path d="M114.167,70.448h9.566a0,0,0,0,1,0,0V113.5a0,0,0,0,1,0,0h-9.566a6,6,0,0,1-6-6V76.448A6,6,0,0,1,114.167,70.448Z" transform="translate(231.899 183.948) rotate(180)" style="fill:#4695bc"/><rect x="108.167" y="83.083" width="15.566" height="7.083" transform="translate(231.899 173.25) rotate(180)" style="fill:#343c3f"/><rect x="32.523" y="71.792" width="62.953" height="41.708" rx="4" ry="4" style="fill:#4695bc"/><path d="M36.523,71.792H91.477a4,4,0,0,1,4,4V90.167a0,0,0,0,1,0,0H32.523a0,0,0,0,1,0,0V75.792A4,4,0,0,1,36.523,71.792Z" style="fill:#343c3f"/><rect x="76.25" y="90.167" width="8.207" height="12.833" style="fill:#cce6f6"/><path d="M84.132,53.36l4.252-28.682A43.945,43.945,0,0,0,64,17.333h0a43.945,43.945,0,0,0-24.384,7.345L43.868,53.36a5,5,0,0,0,4.945,4.267H79.187A5,5,0,0,0,84.132,53.36Z" style="fill:#343c3f"/><rect x="52.75" y="29.663" width="22.5" height="15.833" rx="7.917" ry="7.917" style="fill:#4695bc"/><path d="M19.833,27.083a1.749,1.749,0,0,0,1.75-1.75V22.324a1.75,1.75,0,1,0-3.5,0v3.009A1.749,1.749,0,0,0,19.833,27.083Z"/><path d="M117.732,68.7h-7.815V5.75A5.756,5.756,0,0,0,104.167,0H95.384a5.76,5.76,0,0,0-5.739,5.392L88.563,22.717q-1.308-.831-2.664-1.569L79.3,1.2A1.748,1.748,0,0,0,77.64,0H50.36A1.748,1.748,0,0,0,48.7,1.2L42.1,21.148q-1.355.738-2.664,1.569L38.355,5.392A5.76,5.76,0,0,0,32.616,0H23.833a5.756,5.756,0,0,0-5.75,5.75v6.305a1.75,1.75,0,0,0,3.5,0V5.75a2.253,2.253,0,0,1,2.25-2.25h8.783a2.253,2.253,0,0,1,2.245,2.11l1.214,19.448A46.564,46.564,0,0,0,21.583,43.933V35.6a1.75,1.75,0,0,0-3.5,0V68.7H10.268a7.759,7.759,0,0,0-7.75,7.75V107.5a7.759,7.759,0,0,0,7.75,7.75h7.815v4a8.76,8.76,0,0,0,8.75,8.75h74.334a8.76,8.76,0,0,0,8.75-8.75v-4h7.815a7.759,7.759,0,0,0,7.75-7.75V76.448A7.759,7.759,0,0,0,117.732,68.7Zm0,3.5a4.254,4.254,0,0,1,4.25,4.25v4.885H109.917V72.2Zm4.25,16.219H109.917V84.833h12.065ZM93.139,5.61A2.253,2.253,0,0,1,95.384,3.5h8.783a2.253,2.253,0,0,1,2.25,2.25V43.933A46.873,46.873,0,0,0,91.925,25.058ZM70.885,16.1a46.246,46.246,0,0,0-15.074.216L57.4,11.5H70.6l1.593,4.817ZM46.479,19.056,51.625,3.5h24.75l5.146,15.556a45.673,45.673,0,0,0-5.346-1.835L73.521,9.2A1.747,1.747,0,0,0,71.86,8H56.14a1.747,1.747,0,0,0-1.661,1.2l-2.654,8.021A45.673,45.673,0,0,0,46.479,19.056ZM6.018,84.833H18.083v3.584H6.018ZM10.268,72.2h7.815v9.135H6.018V76.448A4.254,4.254,0,0,1,10.268,72.2Zm0,39.552a4.254,4.254,0,0,1-4.25-4.25V91.917H18.083V111.75Zm96.149,7.5a5.256,5.256,0,0,1-5.25,5.25H26.833a5.256,5.256,0,0,1-5.25-5.25V61.5A43.381,43.381,0,0,1,38.307,27.781l3.829,25.835a6.79,6.79,0,0,0,6.677,5.761H79.187a1.75,1.75,0,0,0,0-3.5H48.813A3.268,3.268,0,0,1,45.6,53.1L41.516,25.557a42.28,42.28,0,0,1,44.968,0L83.566,45.24a1.75,1.75,0,1,0,3.463.514l2.664-17.973A43.381,43.381,0,0,1,106.417,61.5v57.75Zm11.315-7.5h-7.815V91.917h12.065V107.5A4.254,4.254,0,0,1,117.732,111.75Z"/><path d="M91.477,70.042H36.523a5.757,5.757,0,0,0-5.75,5.75V109.5a5.757,5.757,0,0,0,5.75,5.75H91.477a5.757,5.757,0,0,0,5.75-5.75V75.792A5.757,5.757,0,0,0,91.477,70.042Zm-57.2,5.75a2.253,2.253,0,0,1,2.25-2.25H91.477a2.253,2.253,0,0,1,2.25,2.25V88.417H34.273ZM78,91.917h4.707v9.333H78ZM91.477,111.75H36.523a2.253,2.253,0,0,1-2.25-2.25V91.917H74.5V103a1.749,1.749,0,0,0,1.75,1.75h8.207a1.749,1.749,0,0,0,1.75-1.75V91.917h7.52V109.5A2.253,2.253,0,0,1,91.477,111.75Z"/><path d="M67.333,27.913H60.667a9.667,9.667,0,0,0,0,19.334h6.666a9.667,9.667,0,1,0,0-19.334Zm0,15.834H60.667a6.167,6.167,0,0,1,0-12.334h6.666a6.167,6.167,0,1,1,0,12.334Z"/></svg>