<svg id="Layer_2" data-name="Layer 2" xmlns="http://www.w3.org/2000/svg" viewBox="0 0 128 128"><title>BEANIE</title><rect x="8" y="108.946" width="112" height="17.304" rx="4" ry="4" style="fill:#515a5e"/><path d="M51.662,19.941H76.338A33.064,33.064,0,0,1,109.4,53v55.941a0,0,0,0,1,0,0H18.6a0,0,0,0,1,0,0V53A33.064,33.064,0,0,1,51.662,19.941Z" style="fill:#cce6f6"/><path d="M52.992,18.3a3.634,3.634,0,0,1-.009,1.644H75.017a3.634,3.634,0,0,1-.009-1.644c.4-1.224,2.563-2.221,2.563-3.578s-2.165-2.353-2.563-3.577c-.412-1.268.74-3.345-.028-4.4S71.868,6.133,70.8,5.357s-1.338-3.136-2.606-3.548c-1.224-.4-2.839,1.339-4.195,1.339s-2.971-1.736-4.195-1.339c-1.268.412-1.551,2.779-2.606,3.548s-3.4.318-4.179,1.384.384,3.133-.028,4.4c-.4,1.224-2.563,2.221-2.563,3.577S52.594,17.073,52.992,18.3Z" style="fill:#4695bc"/><rect x="18.667" y="60.375" width="90.735" height="35.462" style="fill:#7ace84"/><path d="M109.4,74.436c-.343.358-.652.708-.933,1.028-1.27,1.443-1.546,1.642-2.276,1.642s-1-.2-2.273-1.642c-1.527-1.735-3.834-4.358-8.282-4.358s-6.753,2.623-8.279,4.359c-1.267,1.442-1.543,1.641-2.27,1.641s-1-.2-2.273-1.642c-1.526-1.735-3.833-4.358-8.28-4.358s-6.753,2.623-8.278,4.359c-1.268,1.442-1.543,1.641-2.271,1.641s-1-.2-2.268-1.641c-1.527-1.736-3.831-4.359-8.278-4.359s-6.752,2.624-8.278,4.359c-1.267,1.442-1.542,1.641-2.267,1.641s-1-.2-2.271-1.641c-1.525-1.736-3.832-4.359-8.278-4.359s-6.752,2.623-8.279,4.359c-1.266,1.442-1.542,1.641-2.268,1.641s-1-.2-2.272-1.642c-.28-.319-.588-.668-.93-1.026V84.581a9.621,9.621,0,0,0,3.2.525c4.446,0,6.752-2.623,8.278-4.36,1.267-1.441,1.542-1.64,2.269-1.64s1,.2,2.27,1.64c1.526,1.737,3.832,4.36,8.279,4.36s6.75-2.623,8.277-4.36c1.266-1.441,1.542-1.64,2.268-1.64s1,.2,2.268,1.64c1.526,1.736,3.832,4.36,8.278,4.36s6.753-2.623,8.279-4.36c1.267-1.441,1.543-1.64,2.27-1.64s1,.2,2.273,1.641c1.526,1.736,3.833,4.359,8.28,4.359s6.753-2.623,8.278-4.36c1.268-1.441,1.543-1.64,2.271-1.64s1.006.2,2.275,1.642c1.526,1.736,3.833,4.358,8.28,4.358a9.627,9.627,0,0,0,3.209-.527Z" style="fill:#4baa54"/><path d="M116,107.2h-4.849V53.005A34.847,34.847,0,0,0,77.24,18.214l.2-.189a4.736,4.736,0,0,0,1.884-3.3,4.74,4.74,0,0,0-1.884-3.306,6.045,6.045,0,0,1-.762-.8,5.131,5.131,0,0,1,.132-1.2,4.606,4.606,0,0,0-.412-3.7,4.629,4.629,0,0,0-3.416-1.541,5.961,5.961,0,0,1-1.134-.218,5.089,5.089,0,0,1-.571-1.016A4.7,4.7,0,0,0,68.734.144,4.568,4.568,0,0,0,65.12.9a5.231,5.231,0,0,1-1.114.5A5.031,5.031,0,0,1,62.88.9a4.553,4.553,0,0,0-3.615-.75,4.7,4.7,0,0,0-2.538,2.792,5.968,5.968,0,0,1-.546,1,5.309,5.309,0,0,1-1.16.236,4.63,4.63,0,0,0-3.416,1.54,4.609,4.609,0,0,0-.412,3.705,5.93,5.93,0,0,1,.143,1.165,5.193,5.193,0,0,1-.773.833,4.74,4.74,0,0,0-1.884,3.306,4.736,4.736,0,0,0,1.884,3.3l.2.189A34.847,34.847,0,0,0,16.849,53.005V107.2H12a5.756,5.756,0,0,0-5.75,5.75v9.305A5.756,5.756,0,0,0,12,128h99.083a1.75,1.75,0,0,0,0-3.5H12a2.253,2.253,0,0,1-2.25-2.25v-9.305A2.253,2.253,0,0,1,12,110.7H116a2.253,2.253,0,0,1,2.25,2.25v9.305a1.75,1.75,0,0,0,3.5,0v-9.305A5.756,5.756,0,0,0,116,107.2Zm-8.349-23.963a8.4,8.4,0,0,1-1.458.123c-3.656,0-5.491-2.086-6.965-3.763-1.33-1.51-2.038-2.237-3.59-2.237-1.619,0-2.36.841-3.585,2.236-1.474,1.678-3.308,3.764-6.964,3.764s-5.491-2.086-6.966-3.763c-1.327-1.511-2.034-2.237-3.587-2.237-1.619,0-2.359.841-3.585,2.236-1.473,1.678-3.307,3.764-6.964,3.764S58.5,81.27,57.023,79.591C55.8,78.2,55.06,77.355,53.441,77.355s-2.358.842-3.584,2.237c-1.473,1.677-3.308,3.763-6.961,3.763s-5.491-2.086-6.964-3.764c-1.226-1.395-1.966-2.236-3.585-2.236s-2.359.842-3.583,2.236c-1.475,1.678-3.31,3.764-6.964,3.764a8.266,8.266,0,0,1-1.383-.113V78.577a3.23,3.23,0,0,0,1.383.278c1.619,0,2.358-.841,3.583-2.235,1.474-1.678,3.309-3.765,6.964-3.765s5.49,2.087,6.964,3.765c1.225,1.395,1.965,2.235,3.585,2.235s2.357-.841,3.583-2.237c1.475-1.677,3.31-3.763,6.962-3.763S58.93,74.942,60.4,76.62c1.225,1.394,1.964,2.235,3.583,2.235s2.36-.84,3.585-2.235c1.474-1.678,3.308-3.765,6.964-3.765s5.491,2.087,6.966,3.764c1.327,1.511,2.034,2.236,3.587,2.236,1.619,0,2.359-.84,3.585-2.235,1.473-1.678,3.307-3.765,6.964-3.765s5.491,2.086,6.967,3.764c1.329,1.511,2.037,2.236,3.588,2.236a3.221,3.221,0,0,0,1.458-.3ZM20.417,86.767a11.9,11.9,0,0,0,1.383.088c5.237,0,7.964-3.1,9.593-4.954.2-.231.7-.793.955-1.022.257.229.752.792.955,1.022,1.628,1.853,4.352,4.954,9.593,4.954s7.961-3.1,9.591-4.954c.2-.23.7-.791.954-1.022.258.231.751.792.956,1.025,1.629,1.852,4.355,4.951,9.59,4.951s7.965-3.1,9.593-4.954c.2-.231.7-.8.957-1.024.258.229.754.794.958,1.026,1.629,1.853,4.356,4.952,9.594,4.952s7.965-3.1,9.593-4.954c.2-.231.7-.8.957-1.024.257.228.756.8.96,1.027,1.629,1.852,4.355,4.951,9.594,4.951a12.087,12.087,0,0,0,1.458-.1v7.329H20.417ZM52.98,13.945a5.675,5.675,0,0,0,1.677-2.263,5.863,5.863,0,0,0-.018-2.88,9.148,9.148,0,0,1-.14-.989,8.639,8.639,0,0,1,1-.174,5.8,5.8,0,0,0,2.734-.868A5.756,5.756,0,0,0,59.88,4.454a9.133,9.133,0,0,1,.477-.9,9.444,9.444,0,0,1,.872.429A5.915,5.915,0,0,0,64,4.9a5.915,5.915,0,0,0,2.771-.918,9.444,9.444,0,0,1,.872-.429,8.728,8.728,0,0,1,.477.9,5.771,5.771,0,0,0,1.652,2.318,5.794,5.794,0,0,0,2.733.867,8.9,8.9,0,0,1,1,.174,9.148,9.148,0,0,1-.14.989,5.859,5.859,0,0,0-.017,2.882,5.671,5.671,0,0,0,1.676,2.261,7.854,7.854,0,0,1,.744.775,7.96,7.96,0,0,1-.744.774,5.675,5.675,0,0,0-1.677,2.265,3.553,3.553,0,0,0-.11.432H54.767a3.421,3.421,0,0,0-.11-.432v0a5.675,5.675,0,0,0-1.676-2.262,7.96,7.96,0,0,1-.744-.774A7.854,7.854,0,0,1,52.98,13.945Zm-1.318,7.746H76.338a31.349,31.349,0,0,1,31.313,31.314v5.62H54.5a1.75,1.75,0,0,0,0,3.5h53.151V73.761c-.165.183-.344.374-.5.547-.2.232-.7.8-.961,1.027-.257-.229-.757-.795-.963-1.029-1.628-1.852-4.356-4.951-9.593-4.951s-7.965,3.1-9.593,4.955c-.2.231-.7.794-.957,1.024-.258-.23-.754-.794-.958-1.026-1.629-1.853-4.356-4.953-9.594-4.953s-7.965,3.1-9.593,4.955c-.2.23-.7.793-.955,1.022-.259-.229-.752-.792-.956-1.024-1.629-1.852-4.354-4.953-9.591-4.953s-7.961,3.1-9.592,4.955c-.2.23-.7.792-.954,1.022-.258-.23-.752-.792-.956-1.022-1.627-1.853-4.352-4.955-9.592-4.955s-7.964,3.1-9.593,4.955c-.2.231-.7.793-.955,1.023-.258-.23-.754-.794-.962-1.031-.127-.144-.282-.309-.42-.463V62.125H32.833a1.75,1.75,0,0,0,0-3.5H20.349v-5.62A31.349,31.349,0,0,1,51.662,21.691ZM20.349,107.2V97.587h87.3V107.2Z"/><path d="M16.917,115.667V120a1.75,1.75,0,0,0,3.5,0v-4.335a1.75,1.75,0,0,0-3.5,0Z"/><path d="M28.25,115.667V120a1.75,1.75,0,1,0,3.5,0v-4.335a1.75,1.75,0,0,0-3.5,0Z"/><path d="M39.583,115.667V120a1.75,1.75,0,0,0,3.5,0v-4.335a1.75,1.75,0,0,0-3.5,0Z"/><path d="M50.917,115.667V120a1.75,1.75,0,0,0,3.5,0v-4.335a1.75,1.75,0,0,0-3.5,0Z"/><path d="M62.25,115.667V120a1.75,1.75,0,1,0,3.5,0v-4.335a1.75,1.75,0,0,0-3.5,0Z"/><path d="M73.583,115.667V120a1.75,1.75,0,0,0,3.5,0v-4.335a1.75,1.75,0,0,0-3.5,0Z"/><path d="M84.917,115.667V120a1.75,1.75,0,0,0,3.5,0v-4.335a1.75,1.75,0,0,0-3.5,0Z"/><path d="M96.25,115.667V120a1.75,1.75,0,1,0,3.5,0v-4.335a1.75,1.75,0,0,0-3.5,0Z"/><path d="M107.583,115.667V120a1.75,1.75,0,0,0,3.5,0v-4.335a1.75,1.75,0,0,0-3.5,0Z"/><path d="M41.667,62.125h4a1.75,1.75,0,0,0,0-3.5h-4a1.75,1.75,0,0,0,0,3.5Z"/></svg>