<svg id="Layer_2" data-name="Layer 2" xmlns="http://www.w3.org/2000/svg" viewBox="0 0 128 128"><title>BLOUSE</title><polygon points="79 1.75 49 1.75 64 21.25 79 1.75" style="fill:#515a5e"/><path d="M89.534,51.25a34.413,34.413,0,0,0,3.633-15.39v-24.1L79,1.75a12.271,12.271,0,0,1,2.187,18.409l-9.062,9.966L64,21.25l-8.125,8.875-9.062-9.966A12.271,12.271,0,0,1,49,1.75L34.833,11.758v24.1a34.413,34.413,0,0,0,3.633,15.39h0a34.414,34.414,0,0,1,1.868,26.273L36.6,88.726a34.435,34.435,0,0,0-1.766,10.883V126.25H93.167V99.609A34.435,34.435,0,0,0,91.4,88.726l-3.735-11.2A34.414,34.414,0,0,1,89.534,51.25Z" style="fill:#cce6f6"/><path d="M46.813,20.159l9.062,9.966L64,21.25,49,1.75A12.271,12.271,0,0,0,46.813,20.159Z" style="fill:#4695bc"/><path d="M72.125,30.125l9.062-9.966A12.271,12.271,0,0,0,79,1.75L64,21.25Z" style="fill:#4695bc"/><path d="M64,46.75A1.751,1.751,0,0,0,65.75,45V23.162L64,21.25l-1.75,1.912V45A1.751,1.751,0,0,0,64,46.75Z" style="fill:#515a5e"/><path d="M34.833,35.86v-24.1L17,44.369,32.052,60.682l6.025-10.271A34.407,34.407,0,0,1,34.833,35.86Z" style="fill:#cce6f6"/><path d="M93.167,35.86v-24.1L111,44.369,95.948,60.682,89.923,50.411A34.407,34.407,0,0,0,93.167,35.86Z" style="fill:#cce6f6"/><path d="M83,46.75H74.19a1.75,1.75,0,0,1,0-3.5H83a1.75,1.75,0,0,1,0,3.5Z" style="fill:#515a5e"/><path d="M53.81,124.5h-2.5a1.75,1.75,0,0,0,0,3.5h2.5a1.75,1.75,0,0,0,0-3.5Z"/><path d="M112.536,43.529,94.7,10.918a1.9,1.9,0,0,0-.526-.589L80.01.321A1.9,1.9,0,0,0,79,0H49a1.9,1.9,0,0,0-1.01.321L33.824,10.329a1.9,1.9,0,0,0-.526.589L15.464,43.529a1.752,1.752,0,0,0,.25,2.027L30.766,61.869a1.75,1.75,0,0,0,1.286.564,1.707,1.707,0,0,0,.188-.011,1.75,1.75,0,0,0,1.322-.854L37.881,54.2a32.409,32.409,0,0,1,.792,22.766l-3.734,11.2a36.1,36.1,0,0,0-1.856,11.435V126.25a1.751,1.751,0,0,0,1.75,1.75H43.62a1.75,1.75,0,1,0,0-3.5H36.583V99.608a32.612,32.612,0,0,1,1.676-10.329l3.735-11.2a35.927,35.927,0,0,0-1.962-27.608A32.984,32.984,0,0,1,36.583,35.86v-23.2l5.673-4.008a13.943,13.943,0,0,0,3.262,12.68L54.58,31.3a1.748,1.748,0,0,0,1.292.573h0a1.751,1.751,0,0,0,1.291-.568l5.084-5.554V45a1.75,1.75,0,0,0,3.5,0V25.753l5.084,5.554a1.751,1.751,0,0,0,1.291.568h0A1.748,1.748,0,0,0,73.42,31.3l9.062-9.966a1.75,1.75,0,1,0-2.589-2.355l-7.772,8.548-5.838-6.377L79.3,4.226a10.442,10.442,0,0,1,2.287,3.109,1.747,1.747,0,0,0,2.873.418l6.953,4.911v23.2a32.954,32.954,0,0,1-3.449,14.608,35.927,35.927,0,0,0-1.962,27.608l3.735,11.2a32.612,32.612,0,0,1,1.676,10.329V124.5H61.5a1.75,1.75,0,0,0,0,3.5H93.167a1.751,1.751,0,0,0,1.75-1.75V99.608a36.1,36.1,0,0,0-1.856-11.435l-3.734-11.2A32.409,32.409,0,0,1,90.12,54.2l4.318,7.363a1.751,1.751,0,0,0,1.322.855,1.7,1.7,0,0,0,.188.01,1.749,1.749,0,0,0,1.286-.563l15.052-16.313A1.752,1.752,0,0,0,112.536,43.529Zm-80.8,14.232-12.6-13.655,13.945-25.5V35.86A36.515,36.515,0,0,0,36.1,50.314ZM55.879,27.529l-7.772-8.548A10.522,10.522,0,0,1,48.7,4.226l13.02,16.926ZM64,18.38,52.554,3.5H75.446ZM96.263,57.76,91.9,50.314A36.515,36.515,0,0,0,94.917,35.86V18.605l13.944,25.5Z"/><path d="M83,46.75a1.75,1.75,0,0,0,0-3.5H74.19a1.75,1.75,0,0,0,0,3.5Z"/></svg>