<svg id="Layer_2" data-name="Layer 2" xmlns="http://www.w3.org/2000/svg" viewBox="0 0 128 128"><title>BOW TIE</title><rect x="53.503" y="41.833" width="20.994" height="44.333" rx="10.497" ry="10.497" style="fill:#fb6572"/><path d="M21.766,98.954,53.5,78.938V49.063L21.766,29.047S1.75,36.681,1.75,64,21.766,98.954,21.766,98.954Z" style="fill:#fb6572"/><path d="M106.234,98.953,74.5,78.938V49.063l31.737-20.017S126.25,36.681,126.25,64,106.234,98.953,106.234,98.953Z" style="fill:#fb6572"/><path d="M106.858,27.411a1.75,1.75,0,0,0-1.557.155l-9.933,6.265a1.75,1.75,0,1,0,1.867,2.96l9.141-5.765C109.916,32.742,124.5,41.2,124.5,64c0,23.011-14.517,31.284-18.114,32.98L76.247,77.972V67.809l18.615,7.284a1.75,1.75,0,0,0,1.276-3.26L76.247,64.05v-.1l19.891-7.783a1.75,1.75,0,1,0-1.276-3.26L76.247,60.191V50.028l7.89-4.976a1.75,1.75,0,1,0-1.867-2.96l-7.383,4.656a12.225,12.225,0,0,0-21.774,0L22.7,27.566a1.756,1.756,0,0,0-1.557-.155C20.931,27.492,0,35.8,0,64s20.931,36.508,21.143,36.589a1.748,1.748,0,0,0,1.557-.155L53.119,81.249a12.232,12.232,0,0,0,2.519,3.369,1.75,1.75,0,0,0,2.39-2.557,8.665,8.665,0,0,1-2.775-6.391V52.33a8.747,8.747,0,0,1,17.494,0V75.67A8.757,8.757,0,0,1,64,84.417a1.75,1.75,0,0,0,0,3.5,12.251,12.251,0,0,0,10.887-6.665L105.3,100.434a1.748,1.748,0,0,0,1.557.155C107.069,100.508,128,92.2,128,64S107.069,27.492,106.858,27.411Zm-55.1,50.561-30.128,19C18.085,95.258,3.5,86.8,3.5,64c0-23.011,14.517-31.284,18.115-32.98L51.753,50.028V60.191L33.138,52.907a1.75,1.75,0,0,0-1.276,3.26L51.753,63.95v.1L31.862,71.833a1.75,1.75,0,0,0,.638,3.38,1.771,1.771,0,0,0,.638-.12l18.615-7.284V77.972Z"/><path d="M89.065,41.626a1.736,1.736,0,0,0,.932-.27l1.378-.87a1.75,1.75,0,0,0-1.867-2.96l-1.378.87a1.75,1.75,0,0,0,.935,3.23Z"/></svg>