<svg id="Layer_2" data-name="Layer 2" xmlns="http://www.w3.org/2000/svg" viewBox="0 0 128 128"><title>BRA</title><path d="M10.833,61.221V17.156H1.75V59.868l8.575,1.264C10.5,61.157,10.663,61.194,10.833,61.221Z" style="fill:#515a5e"/><path d="M117.167,61.221V17.156h9.083V59.868l-8.575,1.264C117.5,61.157,117.337,61.194,117.167,61.221Z" style="fill:#515a5e"/><path d="M47.358,91.626c-1.549-2.069-4.764-2.7-6.629-4.524-1.845-1.8-2.551-5-4.668-6.529-2.084-1.507-5.346-1.185-7.659-2.409-2.271-1.2-3.83-4.083-6.289-4.989-2.408-.888-5.467.285-8.023-.3-2.5-.571-4.743-2.96-7.356-3.219-1.626-.162-3.3.549-4.984,1.1V86.494A24.344,24.344,0,0,0,7.323,102h0a24.348,24.348,0,0,0,29.04,6.578l15.178-7.056a10.414,10.414,0,0,1-1.73-2.253C48.613,96.962,48.914,93.7,47.358,91.626Z" style="fill:#515a5e"/><path d="M56.775,90.371a67.988,67.988,0,0,0-46.45-29.239L1.75,59.868V70.76c1.682-.553,3.358-1.264,4.984-1.1,2.613.259,4.855,2.648,7.356,3.219,2.556.583,5.615-.59,8.023.3,2.459.906,4.018,3.787,6.289,4.989,2.313,1.224,5.575.9,7.659,2.409,2.117,1.532,2.823,4.729,4.668,6.529,1.865,1.819,5.08,2.455,6.629,4.524s1.255,5.336,2.453,7.639a10.414,10.414,0,0,0,1.73,2.253l9.709-4.513Z" style="fill:#343c3f"/><path d="M80.642,91.626c1.549-2.069,4.764-2.7,6.629-4.524,1.845-1.8,2.551-5,4.668-6.529,2.084-1.507,5.346-1.185,7.659-2.409,2.271-1.2,3.83-4.083,6.289-4.989,2.408-.888,5.467.285,8.023-.3,2.5-.571,4.743-2.96,7.356-3.219,1.626-.162,3.3.549,4.984,1.1V86.494a24.344,24.344,0,0,1-5.573,15.5h0a24.348,24.348,0,0,1-29.04,6.578l-15.178-7.056a10.414,10.414,0,0,0,1.73-2.253C79.387,96.962,79.086,93.7,80.642,91.626Z" style="fill:#515a5e"/><path d="M71.225,90.371a67.988,67.988,0,0,1,46.45-29.239l8.575-1.264V70.76c-1.682-.553-3.358-1.264-4.984-1.1-2.613.259-4.855,2.648-7.356,3.219-2.556.583-5.615-.59-8.023.3-2.459.906-4.018,3.787-6.289,4.989-2.313,1.224-5.575.9-7.659,2.409-2.117,1.532-2.823,4.729-4.668,6.529-1.865,1.819-5.08,2.455-6.629,4.524s-1.255,5.336-2.453,7.639a10.414,10.414,0,0,1-1.73,2.253L66.75,97.005Z" style="fill:#343c3f"/><path d="M72.423,88.692H55.577c.4.558.812,1.108,1.2,1.679l4.475,6.634h5.5l4.475-6.634C71.611,89.8,72.021,89.25,72.423,88.692Z" style="fill:#4695bc"/><path d="M110.241,107.5c-.606.241-1.228.457-1.849.643a1.75,1.75,0,0,0,1,3.353c.717-.214,1.437-.464,2.138-.742a1.75,1.75,0,1,0-1.291-3.254Z"/><path d="M126.25,15.405h-9.083a1.749,1.749,0,0,0-1.75,1.75v42.6A69.894,69.894,0,0,0,71.523,86.942H56.465a70.1,70.1,0,0,0-21.96-19.385,1.749,1.749,0,1,0-1.711,3.052A66.569,66.569,0,0,1,55.323,91.35l3.328,4.933-6.664,3.1c-.112-.139-.216-.278-.313-.419a.355.355,0,0,1-.023-.031,4.489,4.489,0,0,1-.287-.473,11.5,11.5,0,0,1-.843-3c-.077-.4-.157-.814-.251-1.232a9.4,9.4,0,0,0-1.51-3.654h0A11.525,11.525,0,0,0,44.6,87.528a11.463,11.463,0,0,1-2.654-1.679,11.31,11.31,0,0,1-1.72-2.592,11.7,11.7,0,0,0-3.143-4.1,11.45,11.45,0,0,0-4.8-1.679,11.316,11.316,0,0,1-3.067-.859A11.077,11.077,0,0,1,26.839,74.6a11.8,11.8,0,0,0-4.12-3.065,11.53,11.53,0,0,0-5.031-.34,11.317,11.317,0,0,1-3.209-.022,10.976,10.976,0,0,1-2.825-1.345,11.861,11.861,0,0,0-4.746-1.909,9.079,9.079,0,0,0-3.408.421V61.9c2.36.339,4.716.745,7.078,1.056a66.423,66.423,0,0,1,12.315,3.136,1.75,1.75,0,1,0,1.187-3.293,69.84,69.84,0,0,0-11.5-3.047V17.155a1.749,1.749,0,0,0-1.75-1.75H1.75A1.749,1.749,0,0,0,0,17.155V86.494a26.1,26.1,0,0,0,37.1,23.667l15.178-7.056,9.358-4.35h4.728l9.358,4.35L90.9,110.161a26.054,26.054,0,0,0,7.764,2.233,1.8,1.8,0,0,0,.219.013,1.75,1.75,0,0,0,.215-3.486,22.583,22.583,0,0,1-6.723-1.934l-13.122-6.1c.009-.013.015-.027.024-.04a8.017,8.017,0,0,0,.464-.775,14.171,14.171,0,0,0,1.174-3.945,8.784,8.784,0,0,1,1.127-3.453,8.806,8.806,0,0,1,2.968-2.042,14.064,14.064,0,0,0,3.483-2.279,13.878,13.878,0,0,0,2.346-3.415,8.937,8.937,0,0,1,2.125-2.948,8.868,8.868,0,0,1,3.4-1.076,13.958,13.958,0,0,0,4.056-1.2,13.749,13.749,0,0,0,3.23-2.649,9.035,9.035,0,0,1,2.846-2.246,8.913,8.913,0,0,1,3.536-.133,13.943,13.943,0,0,0,4.271-.1,13.6,13.6,0,0,0,3.82-1.739,9.075,9.075,0,0,1,3.32-1.445,7.624,7.624,0,0,1,3.061.617V86.494a22.651,22.651,0,0,1-5.172,14.388c-.442.536-.916,1.058-1.405,1.552a1.749,1.749,0,1,0,2.484,2.464c.565-.568,1.11-1.169,1.62-1.788A26.155,26.155,0,0,0,128,86.494V17.155A1.749,1.749,0,0,0,126.25,15.405ZM8.013,59.022,3.5,58.357V44.405H9.083V59.18Zm1.07-40.117v22H3.5v-22Zm26.542,88.082A22.6,22.6,0,0,1,3.5,86.494V72.016A7.732,7.732,0,0,1,6.562,71.4a9.078,9.078,0,0,1,3.319,1.445,13.6,13.6,0,0,0,3.82,1.739,14.007,14.007,0,0,0,4.271.1,8.95,8.95,0,0,1,3.536.133,9.035,9.035,0,0,1,2.846,2.246,13.749,13.749,0,0,0,3.23,2.649,13.958,13.958,0,0,0,4.056,1.2,8.868,8.868,0,0,1,3.4,1.076,8.937,8.937,0,0,1,2.125,2.948,13.9,13.9,0,0,0,2.345,3.415,14.088,14.088,0,0,0,3.484,2.279,8.8,8.8,0,0,1,2.967,2.042,8.768,8.768,0,0,1,1.128,3.453,14.171,14.171,0,0,0,1.174,3.945,8.017,8.017,0,0,0,.464.775c.009.013.015.027.024.04ZM118.917,59.18V44.405H124.5V58.357l-4.513.665ZM124.5,18.905v22h-5.583v-22ZM65.882,95.161l-.063.094H62.181l-3.247-4.813H69.065Zm50.464-25.335a10.976,10.976,0,0,1-2.825,1.345,11.317,11.317,0,0,1-3.209.022,11.546,11.546,0,0,0-5.031.34,11.8,11.8,0,0,0-4.12,3.065,11.077,11.077,0,0,1-2.382,2.019,11.316,11.316,0,0,1-3.067.859,11.45,11.45,0,0,0-4.8,1.679,11.7,11.7,0,0,0-3.143,4.1,11.308,11.308,0,0,1-1.721,2.593A11.465,11.465,0,0,1,83.4,87.528a11.537,11.537,0,0,0-4.156,3.049,11.55,11.55,0,0,0-1.761,4.886,11.5,11.5,0,0,1-.843,3,4.726,4.726,0,0,1-.285.471c-.024.036-.054.071-.079.106-.082.116-.167.232-.259.346l-6.664-3.1,3.328-4.933a66.369,66.369,0,0,1,44.751-28.4h.008L124.5,61.9v6.44a8.932,8.932,0,0,0-3.407-.421A11.859,11.859,0,0,0,116.346,69.826Z"/></svg>