<svg id="Layer_2" data-name="Layer 2" xmlns="http://www.w3.org/2000/svg" viewBox="0 0 128 128"><title>DRESS</title><path d="M76.828,44.824H51.172l-.673-3.8a16.375,16.375,0,0,0-3.04-6.992h0a16.377,16.377,0,0,1-3.292-9.849V19.5H83.833v4.686a16.377,16.377,0,0,1-3.292,9.849h0a16.375,16.375,0,0,0-3.04,6.992Z" style="fill:#fb6572"/><polygon points="53.5 19.498 44.167 19.498 44.167 1.75 50.498 1.75 53.5 19.498" style="fill:#515a5e"/><polygon points="74.5 19.498 83.833 19.498 83.833 1.75 77.502 1.75 74.5 19.498" style="fill:#515a5e"/><rect x="51.159" y="44.824" width="25.682" height="8.667" style="fill:#fee372"/><path d="M90.84,110.05v16.2H37.16v-16.2a117.445,117.445,0,0,1,9.83-47.02l4.17-9.54H76.84l4.17,9.54A117.445,117.445,0,0,1,90.84,110.05Z" style="fill:#fb6572"/><path d="M91.573,94.523a1.75,1.75,0,0,0-3.47.456,116.173,116.173,0,0,1,.986,15.072V124.5H81.578a189.648,189.648,0,0,0-1.822-24.533l-.521-3.71a1.749,1.749,0,1,0-3.465.486l.521,3.711A186.218,186.218,0,0,1,78.078,124.5H65.75V104.833a1.75,1.75,0,0,0-3.5,0V124.5H49.922a186.218,186.218,0,0,1,1.787-24.046l.521-3.711a1.749,1.749,0,1,0-3.465-.486l-.521,3.71A189.648,189.648,0,0,0,46.422,124.5H38.911V110.051a114.961,114.961,0,0,1,9.68-46.316L52.3,55.24H75.7l3.713,8.495c1.093,2.5,2.111,5.076,3.026,7.654a1.75,1.75,0,1,0,3.3-1.17c-.942-2.656-1.991-5.309-3.117-7.886l-4.025-9.208V44.9l.633-3.573a14.679,14.679,0,0,1,2.716-6.245,18.239,18.239,0,0,0,3.643-10.9V1.75A1.75,1.75,0,0,0,83.833,0H77.5a1.749,1.749,0,0,0-1.725,1.458l-2.756,16.29H54.979L52.223,1.458A1.749,1.749,0,0,0,50.5,0H44.167a1.75,1.75,0,0,0-1.75,1.75V24.185a18.167,18.167,0,0,0,2.3,8.829,1.75,1.75,0,0,0,3.057-1.705,14.66,14.66,0,0,1-1.852-7.124V21.248H82.083v2.937a14.721,14.721,0,0,1-2.939,8.795,18.2,18.2,0,0,0-3.367,7.74l-.417,2.354H52.64l-.417-2.355a1.75,1.75,0,1,0-3.447.611l.633,3.573v8.222l-4.025,9.208a118.447,118.447,0,0,0-9.973,47.718v16.2a1.751,1.751,0,0,0,1.75,1.75H90.839a1.751,1.751,0,0,0,1.75-1.75v-16.2A119.642,119.642,0,0,0,91.573,94.523ZM45.917,17.748V3.5h3.1l2.41,14.248Zm30.654,0L78.981,3.5h3.1V17.748Zm-1.48,28.826V51.74H52.909V46.574Z"/><path d="M85.671,82.143q.271,1.091.521,2.187a1.75,1.75,0,1,0,3.412-.78q-.256-1.128-.537-2.252a1.75,1.75,0,1,0-3.4.845Z"/></svg>