<svg id="Layer_2" data-name="Layer 2" xmlns="http://www.w3.org/2000/svg" viewBox="0 0 128 128"><title>IRON</title><path d="M117.966,42.479a1.75,1.75,0,0,1-.439-3.444l8.283-2.152a1.75,1.75,0,1,1,.88,3.388l-8.283,2.152A1.76,1.76,0,0,1,117.966,42.479Z" style="fill:#4695bc"/><path d="M1.75,82.875H109a0,0,0,0,1,0,0v4.25a3,3,0,0,1-3,3H4.75a3,3,0,0,1-3-3v-4.25a0,0,0,0,1,0,0Z" style="fill:#cce6f6"/><path d="M116.767,55.419,106.234,39.375H52.181a38.881,38.881,0,0,0-32,16.8L1.75,82.875H109l3.454-2.605A18.447,18.447,0,0,0,116.767,55.419ZM103.884,67.875H60.539a5.132,5.132,0,0,1-4.123-8.189l2.4-3.235a5.133,5.133,0,0,1,4.123-2.076h35.2l6.089,9.276A3.459,3.459,0,0,1,103.884,67.875Z" style="fill:#343c3f"/><path d="M106.234,39.375H52.181a38.881,38.881,0,0,0-32,16.8l-2.557,3.7H33.542A7.209,7.209,0,0,0,39.7,56.44c3.511-5.747,4.217-9.065,12.486-9.065h59.305Z" style="fill:#515a5e"/><path d="M27.417,77.208H22a1.75,1.75,0,0,1,0-3.5h5.417a1.75,1.75,0,0,1,0,3.5Z" style="fill:#4695bc"/><path d="M43.5,77.208H38.083a1.75,1.75,0,0,1,0-3.5H43.5a1.75,1.75,0,0,1,0,3.5Z" style="fill:#4695bc"/><path d="M59.583,77.208H54.167a1.75,1.75,0,0,1,0-3.5h5.416a1.75,1.75,0,0,1,0,3.5Z" style="fill:#4695bc"/><path d="M75.667,77.208H70.25a1.75,1.75,0,0,1,0-3.5h5.417a1.75,1.75,0,0,1,0,3.5Z" style="fill:#4695bc"/><path d="M34.9,43.446l-1.439-2.732a4,4,0,0,0-5.4-1.675l-2.654,1.4a4,4,0,0,0-1.675,5.4l2.052,3.9A38.867,38.867,0,0,1,34.9,43.446Z" style="fill:#fee372"/><polygon points="106.234 39.375 116.167 37.875 120.583 44.875 111.486 47.375 106.234 39.375" style="fill:#343c3f"/><path d="M29.272,88.375H26.978a1.75,1.75,0,0,0,0,3.5h2.294a1.75,1.75,0,0,0,0-3.5Z"/><path d="M99.6,53.415a1.751,1.751,0,0,0-1.463-.79h-35.2a6.914,6.914,0,0,0-5.529,2.784l-2.4,3.235a6.883,6.883,0,0,0,5.529,10.981h43.345a1.75,1.75,0,0,0,1.289-.567,5.191,5.191,0,0,0,.517-6.367Zm3.335,12.71h-42.4a3.382,3.382,0,0,1-2.717-5.4l2.4-3.235a3.4,3.4,0,0,1,2.717-1.368H97.193l5.571,8.487A1.717,1.717,0,0,1,102.936,66.125Z"/><path d="M27.417,73.708H22a1.75,1.75,0,0,0,0,3.5h5.417a1.75,1.75,0,0,0,0-3.5Z"/><path d="M43.5,73.708H38.083a1.75,1.75,0,0,0,0,3.5H43.5a1.75,1.75,0,0,0,0-3.5Z"/><path d="M59.583,73.708H54.167a1.75,1.75,0,0,0,0,3.5h5.416a1.75,1.75,0,0,0,0-3.5Z"/><path d="M75.667,73.708H70.25a1.75,1.75,0,0,0,0,3.5h5.417a1.75,1.75,0,0,0,0-3.5Z"/><path d="M127.944,38.137a1.75,1.75,0,0,0-2.134-1.254l-7.045,1.831-1.119-1.773a1.754,1.754,0,0,0-1.741-.8l-9.8,1.48H52.181a40.6,40.6,0,0,0-16.52,3.516L35.007,39.9A5.749,5.749,0,0,0,27.24,37.49l-2.655,1.4a5.757,5.757,0,0,0-2.407,7.767l1.431,2.718a40.6,40.6,0,0,0-4.868,5.8l-1.383,2L.31,81.881l0,.007a1.735,1.735,0,0,0-.191.38c-.014.036-.023.073-.034.11a1.713,1.713,0,0,0-.063.314c0,.04-.01.08-.012.12,0,.021-.006.041-.006.063v4.25a4.756,4.756,0,0,0,4.75,4.75H19.125a1.75,1.75,0,0,0,0-3.5H4.75a1.252,1.252,0,0,1-1.25-1.25v-2.5H107.25v2.5a1.252,1.252,0,0,1-1.25,1.25H37.125a1.75,1.75,0,0,0,0,3.5H106a4.756,4.756,0,0,0,4.75-4.75V83.747l2.758-2.08a20.242,20.242,0,0,0,4.721-27.208l-3.96-6.034,6.778-1.862a1.75,1.75,0,0,0,1.016-2.622l-1.338-2.121,5.965-1.549A1.751,1.751,0,0,0,127.944,38.137ZM26.294,46.96l-1.02-1.936a2.253,2.253,0,0,1,.942-3.039l2.655-1.4a2.251,2.251,0,0,1,3.039.942l.622,1.181-.033.02-.137.077a40.662,40.662,0,0,0-6.025,4.119ZM111.4,78.873l-2.986,2.252H5.084l13.459-19.5h15a9,9,0,0,0,7.646-4.272A1.75,1.75,0,0,0,38.2,55.528a5.483,5.483,0,0,1-4.659,2.6H20.959l.663-.96a37.1,37.1,0,0,1,5.342-6.142l0,0a37.126,37.126,0,0,1,8.709-6.008l0,0c1.076-.535,2.172-1.031,3.3-1.459a37.1,37.1,0,0,1,13.2-2.427h53.108l2.955,4.5H52.181c-3.282,0-5.678.505-7.54,1.591A1.75,1.75,0,1,0,46.4,50.24a11.489,11.489,0,0,1,5.778-1.115h58.36L115.3,56.38A16.736,16.736,0,0,1,111.4,78.873Zm.85-33.523L109.2,40.7l6.1-.922,2.547,4.037Z"/></svg>