<svg id="Layer_2" data-name="Layer 2" xmlns="http://www.w3.org/2000/svg" viewBox="0 0 128 128"><title>JACKET</title><polygon points="88.019 11.758 72.128 29.875 64 21.75 55.872 29.875 39.981 11.758 29.5 16.243 29.5 116.242 98.5 116.242 98.5 16.243 88.019 11.758" style="fill:#4695bc"/><polygon points="77.511 1.75 50.489 1.75 64 21.75 77.511 1.75" style="fill:#515a5e"/><polygon points="64 21.75 50.489 1.75 39.981 11.758 55.872 29.875 64 21.75" style="fill:#fee372"/><polygon points="72.128 29.875 88.019 11.758 77.511 1.75 64 21.75 72.128 29.875" style="fill:#fee372"/><rect x="34.25" y="116.242" width="59.5" height="10.008" style="fill:#fee372"/><polygon points="29.5 16.243 11.667 26.167 11.667 105 29.5 105 29.5 16.243" style="fill:#4695bc"/><rect x="11.667" y="95.5" width="17.833" height="9.5" style="fill:#fee372"/><polygon points="98.5 16.243 116.333 26.167 116.333 105 98.5 105 98.5 16.243" style="fill:#4695bc"/><rect x="98.5" y="95.5" width="17.833" height="9.5" transform="translate(214.833 200.5) rotate(180)" style="fill:#fee372"/><path d="M98.5,60.917a1.751,1.751,0,0,0,1.75-1.75V54.958a1.75,1.75,0,0,0-3.5,0v4.209A1.751,1.751,0,0,0,98.5,60.917Z"/><path d="M117.185,24.637,99.351,14.713c-.036-.02-.074-.03-.111-.048-.019-.008-.033-.023-.052-.031L89,10.273,78.718.483A1.81,1.81,0,0,0,77.511,0H50.489a1.812,1.812,0,0,0-1.207.483L39,10.273l-10.19,4.361c-.026.011-.045.03-.07.043s-.063.02-.093.036L10.815,24.637a1.751,1.751,0,0,0-.9,1.53V105a1.75,1.75,0,0,0,1.75,1.75H27.75v9.492a1.751,1.751,0,0,0,1.75,1.75h3v8.258a1.75,1.75,0,0,0,3.5,0v-8.258H92V124.5H44.125a1.75,1.75,0,0,0,0,3.5H93.75a1.751,1.751,0,0,0,1.75-1.75v-8.258h3a1.751,1.751,0,0,0,1.75-1.75V106.75h16.083a1.75,1.75,0,0,0,1.75-1.75V26.167A1.751,1.751,0,0,0,117.185,24.637ZM85.6,11.867,72.044,27.317l-5.786-5.784L77.8,4.444l3.356,3.2ZM64,18.624,53.783,3.5H74.217ZM46.841,7.641l3.356-3.2L61.742,21.533l-5.786,5.784L42.4,11.867ZM27.75,19.219V93.75H13.417V27.2ZM13.417,103.25v-6H27.75v6ZM34.25,114.492h-3V17.4L39.5,13.866,54.556,31.029a1.75,1.75,0,0,0,1.258.595h.058a1.753,1.753,0,0,0,1.237-.512l5.141-5.139v88.518Zm62.5,0h-31V25.974l5.141,5.139a1.753,1.753,0,0,0,1.237.512h.058a1.75,1.75,0,0,0,1.258-.595L88.5,13.866,96.75,17.4V46a1.75,1.75,0,0,0,3.5,0V19.219L114.583,27.2V93.75H100.25V68.125a1.75,1.75,0,0,0-3.5,0v46.367Zm17.833-11.242H100.25v-6h14.333Z"/><path d="M84.463,85.509a1.75,1.75,0,0,0-3.171,1.482l8.125,17.375a1.75,1.75,0,0,0,3.171-1.482Z"/><path d="M45.864,84.665a1.751,1.751,0,0,0-2.327.844l-8.125,17.375a1.75,1.75,0,0,0,3.171,1.482l8.125-17.375A1.75,1.75,0,0,0,45.864,84.665Z"/><path d="M72,38.333H70.833a1.75,1.75,0,0,0,0,3.5H72a1.75,1.75,0,0,0,0-3.5Z"/><path d="M72,49.083H70.833a1.75,1.75,0,0,0,0,3.5H72a1.75,1.75,0,0,0,0-3.5Z"/><path d="M72,59.833H70.833a1.75,1.75,0,0,0,0,3.5H72a1.75,1.75,0,0,0,0-3.5Z"/><path d="M72,70.583H70.833a1.75,1.75,0,0,0,0,3.5H72a1.75,1.75,0,0,0,0-3.5Z"/><path d="M72,81.333H70.833a1.75,1.75,0,0,0,0,3.5H72a1.75,1.75,0,0,0,0-3.5Z"/><path d="M72,92.083H70.833a1.75,1.75,0,0,0,0,3.5H72a1.75,1.75,0,0,0,0-3.5Z"/><path d="M72,102.833H70.833a1.75,1.75,0,0,0,0,3.5H72a1.75,1.75,0,0,0,0-3.5Z"/></svg>