<svg id="Layer_2" data-name="Layer 2" xmlns="http://www.w3.org/2000/svg" viewBox="0 0 128 128"><title>POLO SHIRT</title><polygon points="17.325 23.25 4.75 60.621 31.329 79.5 31.329 45 17.325 23.25" style="fill:#cce6f6"/><polygon points="110.675 23.25 123.25 60.621 96.671 79.5 96.671 45 110.675 23.25" style="fill:#cce6f6"/><path d="M79,1.75a12.271,12.271,0,0,1,2.187,18.409l-9.062,9.966L64,21.25l-8.125,8.875-9.062-9.966A12.271,12.271,0,0,1,49,1.75L17.325,23.25l14,21.75v81.25H96.671V45l14-21.75Z" style="fill:#cce6f6"/><path d="M46.813,20.159l9.062,9.966L64,21.25,49,1.75A12.271,12.271,0,0,0,46.813,20.159Z" style="fill:#4695bc"/><polygon points="79 1.75 64 1.75 49 1.75 64 21.25 79 1.75" style="fill:#515a5e"/><path d="M72.125,30.125l9.062-9.966A12.271,12.271,0,0,0,79,1.75L64,21.25Z" style="fill:#4695bc"/><path d="M86.667,56.083h-10a1.75,1.75,0,0,1,0-3.5h10a1.75,1.75,0,0,1,0,3.5Z" style="fill:#4695bc"/><polygon points="96.671 68.993 120.317 51.904 119.148 48.43 96.671 64.674 96.671 68.993" style="fill:#4695bc"/><polygon points="7.683 51.904 31.329 68.993 31.329 64.674 8.852 48.429 7.683 51.904" style="fill:#4695bc"/><path d="M31.328,104.25a1.75,1.75,0,0,0,1.75-1.75v-2a1.75,1.75,0,0,0-3.5,0v2A1.75,1.75,0,0,0,31.328,104.25Z"/><path d="M124.908,60.063,112.334,22.692a1.843,1.843,0,0,0-.676-.89L79.982.3A1.893,1.893,0,0,0,79,0H49a1.893,1.893,0,0,0-.982.3L16.342,21.8a1.81,1.81,0,0,0-.676.89L3.092,60.063a1.75,1.75,0,0,0,.644,1.985L29.578,80.4V91.5a1.75,1.75,0,0,0,3.5,0V45a1.905,1.905,0,0,0-.278-.947L19.721,23.739,42.333,8.39a13.822,13.822,0,0,0,3.185,12.946L54.58,31.3a1.748,1.748,0,0,0,1.292.573h0a1.751,1.751,0,0,0,1.291-.568l5.084-5.554V45a1.75,1.75,0,0,0,3.5,0V25.753l5.084,5.554a1.751,1.751,0,0,0,1.291.568h0A1.748,1.748,0,0,0,73.42,31.3l9.062-9.966a1.75,1.75,0,1,0-2.589-2.355l-7.772,8.548-5.838-6.377L79.305,4.224a10.411,10.411,0,0,1,3.184,5.964,1.75,1.75,0,1,0,3.453-.571C85.874,9.2,85.78,8.8,85.678,8.4l22.6,15.341L95.2,44.053a1.754,1.754,0,0,0-.278.947v79.5H33.078v-13a1.75,1.75,0,0,0-3.5,0v14.75a1.75,1.75,0,0,0,1.75,1.75H96.672a1.75,1.75,0,0,0,1.75-1.75V80.4l25.842-18.356A1.75,1.75,0,0,0,124.908,60.063Zm-95.33,3.346L10.337,49.5l7.485-22.246L29.578,45.515ZM6.823,59.948l2.346-6.971L29.578,67.728V76.11ZM55.879,27.529l-7.772-8.548A10.522,10.522,0,0,1,48.7,4.226l13.02,16.926ZM64,18.38,52.554,3.5H75.446Zm46.178,8.877L117.663,49.5,98.422,63.409V45.515ZM98.422,76.11V67.728l20.409-14.751,2.346,6.971Z"/><path d="M86.667,56.083a1.75,1.75,0,0,0,0-3.5h-10a1.75,1.75,0,0,0,0,3.5Z"/></svg>