<svg id="Layer_2" data-name="Layer 2" xmlns="http://www.w3.org/2000/svg" viewBox="0 0 128 128"><title>RAINCOAT</title><path d="M89.163,40.625H74.008l4.139-4.393a19.44,19.44,0,0,0,5.29-13.33V21.187a19.438,19.438,0,0,0-38.875,0V22.9a19.44,19.44,0,0,0,5.291,13.33l4.139,4.393H38.837L8.25,72.965V97.312h16V79.353L38.837,64V126.25H89.163V64L103.75,79.353V97.312h16V72.965Z" style="fill:#fee372"/><rect x="38.837" y="96.75" width="13.725" height="6.875" style="fill:#515a5e"/><rect x="38.837" y="103.625" width="13.725" height="11.5" style="fill:#515a5e"/><rect x="75.438" y="96.75" width="13.725" height="6.875" style="fill:#515a5e"/><rect x="75.438" y="103.625" width="13.725" height="11.5" style="fill:#515a5e"/><path d="M57.446,32.625l-1.77-1.879A11.4,11.4,0,0,1,52.562,22.9V21.187a11.438,11.438,0,0,1,22.875,0V22.9a11.394,11.394,0,0,1-3.113,7.844l-1.77,1.879Z" style="fill:#515a5e"/><path d="M121.021,71.762,90.434,39.422a1.75,1.75,0,0,0-1.271-.547h-11.1l1.359-1.443A21.108,21.108,0,0,0,85.187,22.9V21.188a21.188,21.188,0,1,0-42.375,0V22.9a21.109,21.109,0,0,0,5.767,14.53l1.359,1.443h-11.1a1.75,1.75,0,0,0-1.271.547l-9.03,9.548a1.75,1.75,0,1,0,2.543,2.405l8.512-9h14.4a1.75,1.75,0,0,0,1.274-2.95l-4.14-4.393A17.626,17.626,0,0,1,46.312,22.9V21.188a17.688,17.688,0,1,1,35.375,0V22.9a17.625,17.625,0,0,1-4.813,12.13l-4.14,4.393a1.75,1.75,0,0,0,1.274,2.95h14.4L118,73.661V97.313a1.75,1.75,0,0,0,3.5,0V72.965A1.749,1.749,0,0,0,121.021,71.762Z"/><path d="M111.333,95.563H105.5V79.353a1.752,1.752,0,0,0-.481-1.206L90.432,62.791A1.75,1.75,0,0,0,87.413,64V95H75.437a1.751,1.751,0,0,0-1.75,1.75v18.375a1.751,1.751,0,0,0,1.75,1.75H87.413V124.5H65.75V34.375h4.8a1.748,1.748,0,0,0,1.273-.55L73.6,31.946A13.135,13.135,0,0,0,77.187,22.9V21.188a13.188,13.188,0,1,0-26.375,0V22.9a13.136,13.136,0,0,0,3.59,9.044l1.771,1.879a1.748,1.748,0,0,0,1.273.55h4.8V124.5H40.587v-7.625H52.562a1.75,1.75,0,0,0,1.75-1.75V96.75A1.75,1.75,0,0,0,52.562,95H40.587V64a1.75,1.75,0,0,0-3.019-1.205L22.981,78.147a1.752,1.752,0,0,0-.481,1.206v16.21H10v-21.9L18,65.2A1.75,1.75,0,0,0,15.458,62.8L6.979,71.762a1.749,1.749,0,0,0-.479,1.2V97.313a1.751,1.751,0,0,0,1.75,1.75h16A1.751,1.751,0,0,0,26,97.313V80.051L37.087,68.379V126.25a1.751,1.751,0,0,0,1.75,1.75H89.163a1.751,1.751,0,0,0,1.75-1.75V68.379L102,80.051V97.313a1.751,1.751,0,0,0,1.75,1.75h7.583a1.75,1.75,0,0,0,0-3.5ZM56.949,29.546A9.655,9.655,0,0,1,54.312,22.9V21.188a9.688,9.688,0,1,1,19.375,0V22.9a9.654,9.654,0,0,1-2.636,6.644L69.8,30.875H58.2Zm-6.137,83.829H40.587v-8H50.812Zm0-14.875v3.375H40.587V98.5Zm26.375,0H87.413v3.375H77.187Zm0,14.875v-8H87.413v8Z"/><path d="M22,60.172a1.745,1.745,0,0,0,1.272-.547L25.8,56.953a1.75,1.75,0,0,0-2.543-2.406L20.733,57.22A1.749,1.749,0,0,0,22,60.172Z"/></svg>