<svg id="Layer_2" data-name="Layer 2" xmlns="http://www.w3.org/2000/svg" viewBox="0 0 128 128"><title>SCARF</title><rect x="1.75" y="14.5" width="124.5" height="30.5" rx="3" ry="3" style="fill:#fb6572"/><polygon points="112 45 112 103.49 95.62 93.48 79.25 103.49 79.25 45 112 45" style="fill:#fb6572"/><polygon points="79.25 74.833 95.625 64.825 112 74.833 112 85.822 95.625 75.814 79.25 85.822 79.25 74.833" style="fill:#fee372"/><path d="M123.25,12.75H54.333a1.75,1.75,0,0,0,0,3.5H123.25a1.252,1.252,0,0,1,1.25,1.25v5.522h-15a1.75,1.75,0,0,0,0,3.5h15v6.456H99.75a1.75,1.75,0,0,0,0,3.5H124.5V42a1.252,1.252,0,0,1-1.25,1.25H4.75A1.252,1.252,0,0,1,3.5,42V36.478H28.25a1.75,1.75,0,0,0,0-3.5H3.5V26.522h15a1.75,1.75,0,0,0,0-3.5H3.5V17.5a1.252,1.252,0,0,1,1.25-1.25H25.833a1.75,1.75,0,0,0,0-3.5H4.75A4.756,4.756,0,0,0,0,17.5V42a4.756,4.756,0,0,0,4.75,4.75H77.5v56.742a1.749,1.749,0,0,0,2.663,1.493l2.523-1.541V113.5a1.75,1.75,0,0,0,3.5,0V101.3l7.689-4.7v16.9a1.75,1.75,0,0,0,3.5,0V96.6l7.689,4.7v12.2a1.75,1.75,0,0,0,3.5,0V103.444l2.523,1.541a1.749,1.749,0,0,0,2.663-1.493V46.75h9.5A4.756,4.756,0,0,0,128,42V17.5A4.756,4.756,0,0,0,123.25,12.75ZM96.538,91.991c-.019-.012-.041-.016-.061-.027a1.854,1.854,0,0,0-.319-.139c-.036-.011-.071-.024-.108-.033a1.586,1.586,0,0,0-.85,0c-.037.009-.072.022-.108.034a1.776,1.776,0,0,0-.319.138c-.02.011-.042.015-.061.027L81,100.372V86.8l15.538-9.5a1.75,1.75,0,1,0-1.826-2.986L81,82.7V75.815l14.625-8.94,14.625,8.939V82.7l-5.524-3.377a1.751,1.751,0,0,0-1.827,2.987L110.25,86.8v13.568ZM110.25,54.417h-8.083a1.75,1.75,0,0,0,0,3.5h8.083v13.8l-13.712-8.38a1.749,1.749,0,0,0-1.826,0L81,71.712v-13.8h8.083a1.75,1.75,0,0,0,0-3.5H81V46.75h29.25Z"/><path d="M36.833,16.25h6.5a1.75,1.75,0,0,0,0-3.5h-6.5a1.75,1.75,0,0,0,0,3.5Z"/><path d="M48,30H71a1.75,1.75,0,0,0,0-3.5H48A1.75,1.75,0,0,0,48,30Z"/></svg>