<svg id="Layer_2" data-name="Layer 2" xmlns="http://www.w3.org/2000/svg" viewBox="0 0 128 128"><title>SHORTS</title><polygon points="114.667 27 126.25 104.583 72.75 113.333 64 76.817 55.25 113.333 1.75 104.583 13.333 27 114.667 27" style="fill:#4695bc"/><rect x="13.333" y="14.667" width="101.333" height="12.333" style="fill:#515a5e"/><path d="M64,27H75.167a0,0,0,0,1,0,0V54.167A11.167,11.167,0,0,1,64,65.333h0a0,0,0,0,1,0,0V27a0,0,0,0,1,0,0Z" style="fill:#0e708e"/><path d="M98.5,27l2.613,15.175A22.378,22.378,0,0,0,114.966,59.2l4.789,1.886L114.667,27Z" style="fill:#0e708e"/><path d="M29.5,27,26.887,42.175A22.378,22.378,0,0,1,13.034,59.2L8.245,61.083,13.333,27Z" style="fill:#0e708e"/><rect x="42.29" y="14.667" width="43.419" height="12.333" style="fill:#343c3f"/><path d="M5.437,79.881A1.783,1.783,0,0,0,5.7,79.9a1.75,1.75,0,0,0,1.729-1.491l.126-.843a1.75,1.75,0,0,0-3.462-.517l-.126.843A1.751,1.751,0,0,0,5.437,79.881Z"/><path d="M127.981,104.325l-6.495-43.5v0l-5.069-33.955v-12.2a1.75,1.75,0,0,0-1.75-1.75H13.333a1.75,1.75,0,0,0-1.75,1.75v12.2L6.514,60.824h0L5.338,68.7a1.75,1.75,0,0,0,3.462.517l1.026-6.876,3.849-1.516A24.262,24.262,0,0,0,28.611,42.472L30.974,28.75H62.25V76.611l-6.185,25.812L5.089,94.068l1.092-7.31a1.75,1.75,0,1,0-3.462-.516l-2.7,18.083a1.751,1.751,0,0,0,1.449,1.986l53.5,8.75a1.749,1.749,0,0,0,1.984-1.32L64,84.327l7.048,29.414a1.749,1.749,0,0,0,1.7,1.342,1.817,1.817,0,0,0,.283-.022l53.5-8.75A1.751,1.751,0,0,0,127.981,104.325Zm-10.4-45.981-1.97-.776a20.742,20.742,0,0,1-12.769-15.69L100.577,28.75h12.581Zm-4.66-33.094H87.459V16.417h25.458ZM15.083,16.417H40.541V25.25H15.083ZM25.162,41.878a20.742,20.742,0,0,1-12.769,15.69l-1.97.776L14.842,28.75H27.423ZM44.041,16.417H83.959V25.25H44.041ZM73.417,28.75V40.875a1.75,1.75,0,0,0,3.5,0V28.75H97.026l2.363,13.722a24.262,24.262,0,0,0,14.936,18.353l3.848,1.516,4.737,31.727-50.975,8.355L65.75,76.611v-9.66A12.927,12.927,0,0,0,76.917,54.167a1.75,1.75,0,0,0-3.5,0A9.432,9.432,0,0,1,65.75,63.42V28.75Zm-19.49,82.594L3.736,103.135l.837-5.605,50.674,8.306Zm20.146,0-1.32-5.508,50.674-8.306.837,5.605Z"/></svg>