<svg id="Layer_2" data-name="Layer 2" xmlns="http://www.w3.org/2000/svg" viewBox="0 0 128 128"><title>SINGLET</title><path d="M90.921,18.351V1.75H75.5c0,19.054-5.279,34.5-11.792,34.5S51.917,20.8,51.917,1.75H37.079v16.6A73.078,73.078,0,0,1,21.066,64h0v62.25h85.868V64h0A73.078,73.078,0,0,1,90.921,18.351Z" style="fill:#7ace84"/><path d="M63.708,36.25c5.229,0,9.661-9.962,11.2-23.75H52.5C54.048,26.288,58.479,36.25,63.708,36.25Z" style="fill:#515a5e"/><rect x="21.066" y="119.333" width="85.869" height="6.917" style="fill:#4695bc"/><path d="M87,61.083H78.333a1.75,1.75,0,0,1,0-3.5H87a1.75,1.75,0,0,1,0,3.5Z" style="fill:#515a5e"/><path d="M108.3,62.907A71.583,71.583,0,0,1,92.672,18.351V1.75A1.75,1.75,0,0,0,90.922,0H75.5a1.75,1.75,0,0,0-1.75,1.75c0,3.066-.146,6.092-.421,9H54.091c-.271-2.839-.424-5.85-.424-9A1.75,1.75,0,0,0,51.917,0H37.078a1.75,1.75,0,0,0-1.75,1.75v16.6A71.583,71.583,0,0,1,19.7,62.907,1.746,1.746,0,0,0,19.315,64v62.25a1.751,1.751,0,0,0,1.75,1.75h85.87a1.751,1.751,0,0,0,1.75-1.75V64A1.746,1.746,0,0,0,108.3,62.907ZM105.185,124.5H22.815v-3.417H34.667a1.75,1.75,0,0,0,0-3.5H22.815V64.61A75.1,75.1,0,0,0,38.828,18.351V3.5H50.183c.053,3.011.248,6.034.574,8.973a.223.223,0,0,0,0,.027,1.761,1.761,0,0,0,.048.393C52.364,26.406,56.778,38,63.708,38a1.75,1.75,0,0,0,0-3.5c-3.607,0-7.536-8.114-9.21-20.25H72.927a59.172,59.172,0,0,1-2.818,12.123,1.75,1.75,0,0,0,3.287,1.2C75.733,21.192,77.084,12.7,77.235,3.5H89.172V18.351A75.1,75.1,0,0,0,105.185,64.61v52.973H56.167a1.75,1.75,0,0,0,0,3.5h49.018Z"/><path d="M46.75,117.583H44.083a1.75,1.75,0,0,0,0,3.5H46.75a1.75,1.75,0,0,0,0-3.5Z"/><path d="M78.333,61.083H87a1.75,1.75,0,0,0,0-3.5H78.333a1.75,1.75,0,0,0,0,3.5Z"/></svg>