<svg id="Layer_2" data-name="Layer 2" xmlns="http://www.w3.org/2000/svg" viewBox="0 0 128 128"><title>WAISTCOAT</title><path d="M53.992,106.234,80.167,126.25c21.333,0,36.182-20.016,36.182-20.016V64L106.341,33.976V1.75H84.016A60.215,60.215,0,0,1,57.2,51.852l-3.21,2.14Z" style="fill:#343c3f"/><path d="M53.992,106.234V53.992l3.21-2.14A60.208,60.208,0,0,0,64,46.574,60.215,60.215,0,0,1,43.984,1.75H21.659V33.976L11.651,64v42.234S26.5,126.25,47.833,126.25L64,113.887Z" style="fill:#343c3f"/><rect x="11.651" y="81.75" width="23.599" height="11" style="fill:#515a5e"/><rect x="92.75" y="81.75" width="23.599" height="11" transform="translate(209.099 174.5) rotate(180)" style="fill:#515a5e"/><path d="M65.292,68.333a3.042,3.042,0,1,0-3.042-3.041A3.044,3.044,0,0,0,65.292,68.333Z" style="fill:#515a5e"/><path d="M65.292,77.417a3.042,3.042,0,1,0,3.041,3.041A3.044,3.044,0,0,0,65.292,77.417Z" style="fill:#515a5e"/><path d="M65.292,92.583a3.042,3.042,0,1,0,3.041,3.042A3.045,3.045,0,0,0,65.292,92.583Z" style="fill:#515a5e"/><path d="M64,46.574A60.218,60.218,0,0,0,83.437,9.933l-.007,0a45.275,45.275,0,0,1-38.85,0l-.017-.008A60.218,60.218,0,0,0,64,46.574Z" style="fill:#515a5e"/><path d="M118.009,63.446l-9.918-29.755V1.75A1.749,1.749,0,0,0,106.341,0H84.016a1.75,1.75,0,0,0-1.75,1.75,58.862,58.862,0,0,1-.417,6.972A43.812,43.812,0,0,1,64,12.568a1.75,1.75,0,0,0,0,3.5,47.373,47.373,0,0,0,17.184-3.255A58.513,58.513,0,0,1,64.014,44.179a58.73,58.73,0,0,1-17.2-31.365c1.436.565,2.9,1.059,4.385,1.479a1.75,1.75,0,0,0,.954-3.367A43.859,43.859,0,0,1,46.17,8.737a58.405,58.405,0,0,1-.436-6.987A1.75,1.75,0,0,0,43.984,0H21.659a1.749,1.749,0,0,0-1.75,1.75V33.691L17.75,40.166a1.75,1.75,0,0,0,3.321,1.107l2.248-6.744a1.76,1.76,0,0,0,.09-.553V3.5h18.85a61.889,61.889,0,0,0,3.816,19.654,62.282,62.282,0,0,0,15.3,23.377,73.681,73.681,0,0,1-8.358,6.005,1.751,1.751,0,0,0-.779,1.456v52.242a1.75,1.75,0,0,0,.687,1.39l8.19,6.264L47.248,124.5c-18.155-.333-31.559-16.013-33.847-18.864V94.5H35.25A1.75,1.75,0,0,0,37,92.75v-11A1.75,1.75,0,0,0,35.25,80H13.4V64.284l2.27-6.81a1.75,1.75,0,0,0-3.32-1.108l-2.36,7.08A1.742,1.742,0,0,0,9.9,64v42.234a1.741,1.741,0,0,0,.345,1.043C10.873,108.123,25.872,128,47.833,128a1.75,1.75,0,0,0,1.063-.359L64,116.091,79.1,127.64a1.744,1.744,0,0,0,1.063.36c21.961,0,36.96-19.877,37.587-20.723a1.741,1.741,0,0,0,.345-1.043V64A1.742,1.742,0,0,0,118.009,63.446ZM33.5,83.5V91H13.4V83.5Zm47.252,41-25.01-19.126V54.929C70.6,45.64,81.61,30.3,84.74,12.863a62.17,62.17,0,0,0,1-9.363h18.849V33.976a1.76,1.76,0,0,0,.09.553L114.6,64.284V80H92.75A1.75,1.75,0,0,0,91,81.75v11a1.75,1.75,0,0,0,1.75,1.75H114.6v11.131C112.311,108.482,98.907,124.162,80.752,124.5ZM114.6,91H94.5V83.5h20.1Z"/><path d="M15.8,51.551a1.749,1.749,0,0,0,2.213-1.107l.714-2.14A1.75,1.75,0,0,0,15.407,47.2l-.713,2.141A1.75,1.75,0,0,0,15.8,51.551Z"/><path d="M65.292,68.333a3.042,3.042,0,1,0-3.042-3.041A3.044,3.044,0,0,0,65.292,68.333Z"/><path d="M65.292,77.417a3.042,3.042,0,1,0,3.041,3.041A3.044,3.044,0,0,0,65.292,77.417Z"/><path d="M65.292,92.583a3.042,3.042,0,1,0,3.041,3.042A3.045,3.045,0,0,0,65.292,92.583Z"/></svg>