<?xml version="1.0" encoding="utf-8"?>
<!-- Generator: Adobe Illustrator 22.0.1, SVG Export Plug-In . SVG Version: 6.00 Build 0)  -->
<svg version="1.1" id="Layer_1" xmlns="http://www.w3.org/2000/svg" xmlns:xlink="http://www.w3.org/1999/xlink" x="0px" y="0px"
	 viewBox="0 0 128 128" style="enable-background:new 0 0 128 128;" xml:space="preserve">
<style type="text/css">
	.st0{fill:#3A2C60;}
	.st1{fill:#E6E7E8;}
	.st2{fill:#6DC9F7;}
	.st3{fill:#FFFFFF;}
	.st4{fill:#FA759E;}
	.st5{fill:#FFD7E5;}
	.st6{fill:#D4FBFF;}
	.st7{fill:#0089EF;}
</style>
<g>
	<g>
		<path class="st1" d="M81.234,19.256c3.432,0,6.223-2.792,6.223-6.224s-2.792-6.224-6.223-6.224s-6.224,2.792-6.224,6.224
			S77.803,19.256,81.234,19.256z"/>
		<path class="st1" d="M102.615,7.784c-0.696-0.661-1.619-0.999-2.571-0.947c-1.84,0.096-3.281,1.678-3.281,3.601v3.192
			c0,3.832-3.117,6.949-6.949,6.949H72.655c-0.424,0-0.837-0.044-1.24-0.117c1.148-2.019,1.812-4.348,1.812-6.832v-3.332
			c0-0.946-0.394-1.863-1.08-2.514c-0.697-0.661-1.604-0.999-2.571-0.947c-1.84,0.096-3.281,1.678-3.281,3.601v3.192
			c0,0.692-0.105,1.36-0.294,1.991c-0.189-0.631-0.294-1.299-0.294-1.991v-3.192c0-1.923-1.441-3.505-3.281-3.601
			c-0.962-0.052-1.875,0.286-2.571,0.947c-0.687,0.651-1.08,1.568-1.08,2.514v3.332c0,2.484,0.664,4.812,1.812,6.832
			c-0.403,0.073-0.816,0.117-1.24,0.117H42.187c-3.832,0-6.949-3.117-6.949-6.949v-3.192c0-1.923-1.441-3.505-3.281-3.601
			c-0.966-0.052-1.875,0.286-2.571,0.947c-0.687,0.651-1.08,1.568-1.08,2.514v3.332c0,7.654,6.227,13.881,13.881,13.881h0.129
			v42.106c0,1.064,0.44,2.025,1.144,2.718h-4.664c-2.163,0-3.923,1.76-3.923,3.923c0,2.163,1.76,3.923,3.923,3.923H57.55v41.193
			c0,2.104,1.711,3.815,3.815,3.815s3.815-1.711,3.815-3.815v-20.711c0-0.452,0.367-0.819,0.819-0.819s0.819,0.367,0.819,0.819
			v20.59c0,2.013,1.513,3.734,3.444,3.919c1.066,0.096,2.144-0.253,2.938-0.974c0.794-0.722,1.25-1.751,1.25-2.824V80.183h18.753
			c2.164,0,3.923-1.76,3.923-3.923c0-2.164-1.76-3.923-3.923-3.923h-4.675c0.73-0.715,1.155-1.693,1.155-2.718V42.592v-3.58v-11.5
			h0.129c7.654,0,13.881-6.227,13.881-13.881v-3.332C103.695,9.353,103.301,8.436,102.615,7.784z M59.216,69.619V27.512h0.129
			c2.41,0,4.677-0.619,6.655-1.704c1.977,1.085,4.245,1.704,6.655,1.704h0.129v42.106c0,1.064,0.44,2.025,1.144,2.718H58.061
			C58.791,71.621,59.216,70.643,59.216,69.619z M49.947,69.619V48.907c0-0.452,0.367-0.819,0.819-0.819s0.819,0.367,0.819,0.819
			v20.59c0,1.107,0.468,2.115,1.201,2.839h-3.983C49.508,71.644,49.947,70.683,49.947,69.619z M80.416,69.619V48.907
			c0-0.452,0.367-0.819,0.819-0.819s0.819,0.367,0.819,0.819v20.59c0,1.107,0.468,2.115,1.201,2.839h-3.983
			C79.976,71.644,80.416,70.683,80.416,69.619z"/>
		<circle class="st1" cx="50.766" cy="13.032" r="6.224"/>
		<path class="st1" d="M66,58.566c-3.432,0-6.223,2.792-6.223,6.223s2.792,6.224,6.223,6.224s6.224-2.792,6.224-6.224
			S69.432,58.566,66,58.566z"/>
	</g>
	<g>
		<g>
			<g>
				
					<ellipse transform="matrix(0.9732 -0.2298 0.2298 0.9732 -0.0091 17.9863)" class="st2" cx="77.234" cy="9.032" rx="5.223" ry="5.223"/>
				<path class="st2" d="M96.096,3.836c-1.334,0.07-2.334,1.267-2.334,2.602v3.192c0,4.39-3.559,7.949-7.949,7.949h-1.129v0h-14.9v0
					h-1.129c-4.39,0-7.949-3.559-7.949-7.949V6.438c0-1.335-1-2.532-2.334-2.602c-1.422-0.075-2.599,1.057-2.599,2.463v3.332
					c0,7.114,5.767,12.881,12.881,12.881h1.129v43.106c0,1.555,1.261,2.816,2.816,2.816h0c1.555,0,2.816-1.261,2.816-2.816V44.907
					c0-1.004,0.814-1.819,1.819-1.819h0c1.004,0,1.819,0.814,1.819,1.819v20.59c0,1.471,1.075,2.784,2.539,2.923
					c1.679,0.16,3.092-1.156,3.092-2.802V38.592v-16.08h1.129c7.114,0,12.881-5.767,12.881-12.881V6.299
					C98.695,4.893,97.518,3.762,96.096,3.836z"/>
			</g>
			<g>
				
					<ellipse transform="matrix(0.7071 -0.7071 0.7071 0.7071 7.3107 35.714)" class="st2" cx="46.766" cy="9.032" rx="5.223" ry="5.223"/>
				<path class="st2" d="M65.628,3.836c-1.334,0.07-2.334,1.267-2.334,2.602v3.192c0,4.39-3.559,7.949-7.949,7.949h-1.129v0h-14.9v0
					h-1.129c-4.39,0-7.949-3.559-7.949-7.949V6.438c0-1.335-1-2.532-2.334-2.602c-1.422-0.075-2.599,1.057-2.599,2.463v3.332
					c0,7.114,5.767,12.881,12.881,12.881h1.129v43.106c0,1.555,1.261,2.816,2.816,2.816h0c1.555,0,2.816-1.261,2.816-2.816V44.907
					c0-1.004,0.814-1.819,1.819-1.819h0c1.004,0,1.819,0.814,1.819,1.819v20.59c0,1.471,1.075,2.784,2.539,2.923
					c1.679,0.16,3.092-1.156,3.092-2.802V38.592v-16.08h1.129c7.114,0,12.881-5.767,12.881-12.881V6.299
					C68.227,4.893,67.05,3.762,65.628,3.836z"/>
			</g>
		</g>
		<g>
			<circle class="st2" cx="62" cy="60.789" r="5.223"/>
			<path class="st2" d="M89.204,69.337H69.45h-14.9H34.796c-1.614,0-2.923,1.309-2.923,2.923s1.309,2.923,2.923,2.923H54.55v42.193
				c0,1.555,1.261,2.816,2.816,2.816h0c1.555,0,2.816-1.261,2.816-2.816V96.664c0-1.004,0.814-1.819,1.819-1.819h0
				c1.004,0,1.819,0.814,1.819,1.819v20.59c0,1.471,1.075,2.784,2.539,2.923c1.679,0.16,3.092-1.156,3.092-2.802V75.183h19.754
				c1.614,0,2.923-1.309,2.923-2.923S90.818,69.337,89.204,69.337z"/>
			<path class="st3" d="M34.796,72.337H54.55h14.9h19.754c1.064,0,1.985,0.574,2.497,1.423c0.265-0.44,0.426-0.949,0.426-1.5
				c0-1.614-1.309-2.923-2.923-2.923H69.45h-14.9H34.796c-1.614,0-2.923,1.309-2.923,2.923c0,0.551,0.161,1.06,0.426,1.5
				C32.811,72.91,33.733,72.337,34.796,72.337z"/>
			<g>
				<path class="st0" d="M77.234,15.256c3.432,0,6.224-2.792,6.224-6.224s-2.792-6.223-6.224-6.223S71.011,5.6,71.011,9.032
					S73.802,15.256,77.234,15.256z M77.234,4.809c2.329,0,4.224,1.895,4.224,4.223c0,2.329-1.895,4.224-4.224,4.224
					c-2.329,0-4.223-1.895-4.223-4.224C73.011,6.704,74.905,4.809,77.234,4.809z"/>
				<path class="st0" d="M84.684,34.013c-0.552,0-1,0.448-1,1v3.58c0,0.552,0.448,1,1,1s1-0.448,1-1v-3.58
					C85.684,34.46,85.236,34.013,84.684,34.013z"/>
				<path class="st0" d="M98.614,3.784c-0.697-0.66-1.609-1.001-2.571-0.946c-1.84,0.096-3.281,1.678-3.281,3.601v3.192
					c0,3.832-3.117,6.949-6.949,6.949H68.655c-0.424,0-0.836-0.046-1.238-0.121c1.146-2.018,1.81-4.345,1.81-6.828V6.299
					c0-0.946-0.394-1.863-1.081-2.515c-0.696-0.66-1.612-1.001-2.57-0.946c-1.84,0.096-3.281,1.678-3.281,3.601v3.192
					c0,0.687-0.104,1.35-0.29,1.977c-0.188-0.628-0.298-1.289-0.298-1.977V6.438c0-1.923-1.441-3.504-3.281-3.601
					c-0.952-0.047-1.873,0.286-2.57,0.946c-0.687,0.652-1.081,1.568-1.081,2.515v3.332c0,2.483,0.658,4.814,1.804,6.833
					c-0.401,0.072-0.811,0.116-1.233,0.116H38.187c-3.832,0-6.949-3.117-6.949-6.949V6.438c0-1.923-1.441-3.504-3.281-3.601
					c-0.964-0.053-1.874,0.286-2.571,0.946c-0.687,0.652-1.081,1.568-1.081,2.515v3.332c0,7.654,6.227,13.881,13.881,13.881h0.129
					v42.106c0,1.064,0.44,2.026,1.145,2.718h-4.664c-2.163,0-3.923,1.76-3.923,3.923s1.76,3.923,3.923,3.923H53.55v41.193
					c0,2.104,1.712,3.815,3.816,3.815s3.815-1.711,3.815-3.815V96.664c0-0.451,0.367-0.818,0.819-0.818s0.819,0.367,0.819,0.818
					v20.59c0,2.013,1.513,3.734,3.444,3.919c1.068,0.096,2.144-0.253,2.938-0.974c0.794-0.722,1.25-1.751,1.25-2.824V76.183h18.753
					c2.163,0,3.923-1.76,3.923-3.923s-1.76-3.923-3.923-3.923h-4.675c0.73-0.716,1.156-1.693,1.156-2.718V41.857
					c0-0.552-0.448-1-1-1s-1,0.448-1,1v23.761c0,0.51-0.217,1-0.595,1.344c-0.383,0.348-0.883,0.513-1.403,0.463
					c-0.916-0.087-1.634-0.934-1.634-1.928v-20.59c0-1.554-1.265-2.819-2.819-2.819s-2.819,1.265-2.819,2.819v20.711
					c0,1.001-0.814,1.815-1.815,1.815s-1.815-0.814-1.815-1.815V22.512c0-0.552-0.448-1-1-1h-1.129c-1.68,0-3.269-0.367-4.719-0.999
					c0.847-0.67,1.612-1.434,2.283-2.28c0.775,0.221,1.59,0.346,2.436,0.346h17.159c4.935,0,8.949-4.014,8.949-8.949V6.438
					c0-0.844,0.622-1.563,1.386-1.604c0.4-0.024,0.794,0.12,1.09,0.4c0.294,0.28,0.457,0.657,0.457,1.063v3.332
					c0,6.551-5.33,11.881-11.881,11.881h-1.129c-0.552,0-1,0.448-1,1v9.047c0,0.552,0.448,1,1,1s1-0.448,1-1v-8.047h0.129
					c7.654,0,13.881-6.227,13.881-13.881V6.299C99.695,5.352,99.301,4.436,98.614,3.784z M56.773,9.631V6.299
					c0-0.406,0.163-0.784,0.457-1.064c0.295-0.28,0.686-0.424,1.089-0.4c0.764,0.04,1.386,0.759,1.386,1.604v3.192
					c0,1.551,0.406,3.005,1.105,4.277c-0.616,0.785-1.394,1.433-2.287,1.895C57.42,14.002,56.773,11.893,56.773,9.631z
					 M48.786,68.337h-3.984c0.705-0.693,1.145-1.654,1.145-2.718V44.907c0-0.452,0.367-0.819,0.819-0.819s0.819,0.367,0.819,0.819
					v20.59C47.585,66.605,48.053,67.613,48.786,68.337z M91.126,72.26c0,1.06-0.863,1.923-1.923,1.923H69.45c-0.552,0-1,0.448-1,1
					v42.193c0,0.51-0.217,1-0.595,1.344c-0.383,0.348-0.883,0.513-1.403,0.463c-0.916-0.087-1.634-0.934-1.634-1.928v-20.59
					c0-1.554-1.265-2.818-2.819-2.818s-2.819,1.264-2.819,2.818v20.711c0,1.001-0.814,1.815-1.815,1.815
					c-1.001,0-1.816-0.814-1.816-1.815V75.183c0-0.552-0.448-1-1-1H34.796c-1.06,0-1.923-0.863-1.923-1.923s0.863-1.923,1.923-1.923
					h54.407C90.264,70.337,91.126,71.2,91.126,72.26z M76.415,65.619V44.907c0-0.452,0.367-0.819,0.819-0.819
					s0.819,0.367,0.819,0.819v20.59c0,1.108,0.468,2.116,1.202,2.839H75.27C75.975,67.644,76.415,66.683,76.415,65.619z
					 M68.655,23.512h0.129v42.106c0,1.064,0.44,2.026,1.145,2.718H54.06c0.73-0.715,1.156-1.693,1.156-2.718V23.512h0.129
					c2.413,0,4.683-0.621,6.662-1.709C63.984,22.888,66.246,23.512,68.655,23.512z M55.345,21.512h-1.129c-0.552,0-1,0.448-1,1
					v43.106c0,0.51-0.217,1-0.595,1.344c-0.383,0.348-0.878,0.516-1.402,0.463c-0.916-0.087-1.634-0.934-1.634-1.928v-20.59
					c0-1.554-1.265-2.819-2.819-2.819s-2.819,1.265-2.819,2.819v20.711c0,1.001-0.814,1.815-1.816,1.815
					c-1.001,0-1.815-0.814-1.815-1.815V22.512c0-0.552-0.448-1-1-1h-1.129c-6.551,0-11.881-5.33-11.881-11.881V6.299
					c0-0.406,0.163-0.784,0.457-1.063c0.295-0.28,0.683-0.42,1.09-0.4c0.764,0.04,1.386,0.759,1.386,1.604v3.192
					c0,4.935,4.014,8.949,8.949,8.949h17.159c4.935,0,8.949-4.014,8.949-8.949V6.438c0-0.844,0.622-1.563,1.386-1.604
					c0.406-0.024,0.794,0.12,1.089,0.4c0.294,0.28,0.457,0.658,0.457,1.064v3.332C67.227,16.182,61.896,21.512,55.345,21.512z"/>
				<path class="st0" d="M46.766,15.256c3.432,0,6.223-2.792,6.223-6.224s-2.792-6.223-6.223-6.223S40.542,5.6,40.542,9.032
					S43.334,15.256,46.766,15.256z M46.766,4.809c2.329,0,4.223,1.895,4.223,4.223c0,2.329-1.895,4.224-4.223,4.224
					c-2.329,0-4.224-1.895-4.224-4.224C42.542,6.704,44.437,4.809,46.766,4.809z"/>
				<path class="st0" d="M62,67.013c3.432,0,6.224-2.792,6.224-6.224S65.432,54.566,62,54.566s-6.224,2.792-6.224,6.223
					S58.568,67.013,62,67.013z M62,56.566c2.329,0,4.224,1.895,4.224,4.223c0,2.329-1.895,4.224-4.224,4.224
					s-4.224-1.895-4.224-4.224C57.776,58.46,59.671,56.566,62,56.566z"/>
			</g>
		</g>
	</g>
</g>
</svg>
