<?xml version="1.0" encoding="utf-8"?>
<!-- Generator: Adobe Illustrator 22.0.1, SVG Export Plug-In . SVG Version: 6.00 Build 0)  -->
<svg version="1.1" id="Layer_1" xmlns="http://www.w3.org/2000/svg" xmlns:xlink="http://www.w3.org/1999/xlink" x="0px" y="0px"
	 viewBox="0 0 128 128" style="enable-background:new 0 0 128 128;" xml:space="preserve">
<style type="text/css">
	.st0{fill:#3A2C60;}
	.st1{fill:#E6E7E8;}
	.st2{fill:#6DC9F7;}
	.st3{fill:#FFFFFF;}
	.st4{fill:#FA759E;}
	.st5{fill:#FFD7E5;}
	.st6{fill:#D4FBFF;}
	.st7{fill:#0089EF;}
</style>
<g>
	<path class="st1" d="M125.474,42.302c0-1.974-1.606-3.579-3.579-3.579c-1.974,0-3.579,1.606-3.579,3.579
		c0,0.295,0.046,0.578,0.114,0.853c-3.21,1.688-5.599,2.506-9.604,3.439c-5.003,1.165-7.41,1.322-12.262,0.799
		c-4.805-0.518-7.036-1.167-11.369-3.305c-4.375-2.159-6.323-3.581-9.923-7.248c-0.026-0.027-0.06-0.043-0.088-0.066
		c-0.017-0.014-0.026-0.034-0.045-0.047c-5.891-4.114-8.218-9.255-8.399-9.671V25.71l21.904-4.185
		c0.446-0.085,0.768-0.475,0.768-0.929c0-0.454-0.322-0.843-0.768-0.929l-22.672-4.332c-0.276-0.051-0.563,0.021-0.78,0.2
		c-0.217,0.18-0.343,0.447-0.343,0.728v0.121v8.542v2.294c-2.392,4.341-8.178,9.519-8.238,9.572
		c-0.007,0.007-0.01,0.016-0.017,0.023c-0.009,0.008-0.02,0.013-0.029,0.022c-3.6,3.667-5.548,5.09-9.923,7.248
		c-4.333,2.138-6.564,2.787-11.369,3.305c-4.851,0.524-7.259,0.366-12.262-0.799c-4.005-0.933-6.394-1.751-9.604-3.439
		c0.068-0.275,0.114-0.557,0.114-0.853c0-1.974-1.606-3.579-3.579-3.579c-1.973,0-3.579,1.606-3.579,3.579
		c0,1.724,1.226,3.166,2.851,3.504l2.033,32.499c-0.774,0.931-1.241,2.126-1.241,3.428v3.703c0,3.02,1.801,5.622,4.382,6.805v22.386
		H9.684c-0.522,0-0.945,0.423-0.945,0.945c0,0.522,0.423,0.945,0.945,0.945h5.649h100.702c0.025,0,0.045-0.012,0.07-0.014
		c0.024,0.002,0.045,0.014,0.07,0.014h5.649c0.522,0,0.945-0.423,0.945-0.945c0-0.522-0.423-0.945-0.945-0.945h-4.843v-7.892v-5.552
		v-8.747c2.83-1.07,4.851-3.8,4.851-6.999v-3.703c0-1.525-0.642-2.901-1.667-3.879l2.415-32.042
		C124.225,45.491,125.474,44.041,125.474,42.302z M14.811,52.741c0.18,0.272,0.48,0.423,0.788,0.423
		c0.139,0,0.281-0.031,0.414-0.096c2.856-1.391,4.38-2.344,6.628-4.195c2.237,2.936,3.71,4.589,6.512,7.345
		c0.177,0.174,0.415,0.271,0.663,0.271c0.005,0,0.01,0,0.014,0c0.253-0.004,0.494-0.109,0.669-0.292
		c2.273-2.376,3.451-3.85,5.096-6.44c2.562,2.155,4.235,3.323,7.307,5.142c0.147,0.087,0.313,0.132,0.481,0.132
		c0.089,0,0.177-0.012,0.264-0.037c0.251-0.073,0.46-0.247,0.579-0.48c1.618-3.183,2.405-5.066,3.411-8.258
		c1.944,0.913,3.41,1.489,5.202,2.02c-4.874,4.746-9.413,7.724-10.238,8.25c-1.39,0.234-2.455,1.438-2.455,2.894v4.196
		c-12.505,8.897-24.668,12.498-24.887,12.56c-0.142,0.041-0.261,0.117-0.364,0.209c-0.656,0.058-1.277,0.237-1.844,0.511
		L11.17,46.798C12.208,48.703,13.253,50.39,14.811,52.741z M116.792,76.38c-0.102-0.089-0.219-0.162-0.358-0.202
		c-0.218-0.063-12.295-3.637-24.752-12.464c0-0.02,0.006-0.038,0.006-0.057v-4.235c0-1.47-1.086-2.681-2.496-2.898
		c-0.856-0.54-5.416-3.5-10.313-8.211c1.847-0.541,3.332-1.123,5.318-2.055c1.007,3.192,1.793,5.075,3.411,8.258
		c0.119,0.233,0.328,0.407,0.579,0.48c0.087,0.025,0.175,0.037,0.264,0.037c0.168,0,0.334-0.045,0.482-0.132
		c3.072-1.819,4.746-2.987,7.307-5.142c1.645,2.59,2.823,4.064,5.096,6.44c0.175,0.183,0.416,0.288,0.669,0.292
		c0.005,0,0.01,0,0.014,0c0.248,0,0.486-0.097,0.663-0.271c2.802-2.756,4.275-4.409,6.512-7.345
		c2.248,1.851,3.773,2.804,6.628,4.195c0.133,0.065,0.274,0.096,0.414,0.096c0.308,0,0.608-0.151,0.789-0.423
		c1.525-2.301,2.558-3.967,3.573-5.823l-2.246,29.795C117.862,76.529,117.339,76.414,116.792,76.38z M73.69,38.002
		c0.173,2.136,0.356,3.773,0.624,5.42c-2.862-3.439-5.458-7.428-7.062-11.825C68.634,33.511,70.716,35.853,73.69,38.002z
		 M64.495,31.148c-1.539,4.445-4.089,8.487-6.923,11.976c0.245-1.559,0.414-3.139,0.579-5.171
		C59.085,37.098,62.1,34.262,64.495,31.148z"/>
	<g>
		<g>
			<g>
				<g>
					<g>
						<g>
							<g>
								<rect x="11.551" y="84.085" class="st4" width="100.702" height="27.705"/>
								<rect x="18.546" y="84.085" class="st3" width="86.712" height="27.705"/>
								<rect x="25.823" y="84.085" class="st4" width="72.157" height="27.705"/>
								<rect x="32.794" y="84.085" class="st3" width="58.216" height="27.705"/>
								<rect x="40.598" y="84.085" class="st4" width="42.609" height="27.705"/>
								<rect x="47.899" y="84.085" class="st3" width="28.005" height="27.705"/>
								<rect x="55.187" y="84.085" class="st4" width="13.43" height="27.705"/>
							</g>
						</g>
					</g>
				</g>
				<g>
					<g>
						<g>
							<path class="st4" d="M86.903,60.452c-0.269,1.355-1.462,2.378-2.897,2.378H83.71c-1.632,0-2.955-1.323-2.955-2.955
								c0,1.632-1.323,2.955-2.955,2.955h-0.297c-1.632,0-2.955-1.323-2.955-2.955c0,1.632-1.323,2.955-2.955,2.955h-0.297
								c-1.632,0-2.955-1.323-2.955-2.955c0,1.632-1.323,2.955-2.955,2.955h-0.297c-1.632,0-2.955-1.323-2.955-2.955
								c0,1.632-1.323,2.955-2.955,2.955h-0.297c-1.632,0-2.955-1.323-2.955-2.955c0,1.632-1.323,2.955-2.955,2.955h-0.297
								c-1.632,0-2.955-1.323-2.955-2.955c0,1.632-1.323,2.955-2.955,2.955h-0.297c-1.632,0-2.955-1.323-2.955-2.955
								c0,1.632-1.323,2.955-2.955,2.955h-0.297c-1.466,0-2.674-1.071-2.906-2.472c-12.929,9.313-25.62,12.948-25.62,12.948h100.652
								C112.392,73.306,99.786,69.696,86.903,60.452z"/>
						</g>
						<path class="st3" d="M84.964,53.643h-4.208h-6.206h-6.206h-6.206H55.93h-6.206h-6.206h-4.208
							c-1.103,0-1.998,0.894-1.998,1.998v4.234c0,1.632,1.323,2.955,2.955,2.955h0.297c1.632,0,2.955-1.323,2.955-2.955
							c0,1.632,1.323,2.955,2.955,2.955h0.297c1.632,0,2.955-1.323,2.955-2.955c0,1.632,1.323,2.955,2.955,2.955h0.297
							c1.632,0,2.955-1.323,2.955-2.955c0,1.632,1.323,2.955,2.955,2.955h0.297c1.632,0,2.955-1.323,2.955-2.955
							c0,1.632,1.323,2.955,2.955,2.955h0.297c1.632,0,2.955-1.323,2.955-2.955c0,1.632,1.323,2.955,2.955,2.955h0.297
							c1.632,0,2.955-1.323,2.955-2.955c0,1.632,1.323,2.955,2.955,2.955H77.8c1.632,0,2.955-1.323,2.955-2.955
							c0,1.632,1.323,2.955,2.955,2.955h0.297c1.632,0,2.955-1.323,2.955-2.955v-4.234C86.961,54.537,86.067,53.643,84.964,53.643z"
							/>
						<g>
							<path class="st3" d="M79.972,61.865c-0.54,0.589-1.309,0.965-2.171,0.965h-0.297c-1.632,0-2.955-1.323-2.955-2.955
								c0,1.632-1.323,2.955-2.955,2.955h-0.297c-1.632,0-2.955-1.323-2.955-2.955c0,1.632-1.323,2.955-2.955,2.955h-0.297
								c-1.632,0-2.955-1.323-2.955-2.955c0,1.632-1.323,2.955-2.955,2.955h-0.297c-1.632,0-2.955-1.323-2.955-2.955
								c0,1.632-1.323,2.955-2.955,2.955h-0.297c-1.632,0-2.955-1.323-2.955-2.955c0,1.632-1.323,2.955-2.955,2.955h-0.297
								c-0.899,0-1.695-0.41-2.237-1.044c-8.123,8.257-15.711,11.52-15.711,11.52h67.082C95.607,73.306,88.066,70.066,79.972,61.865
								z"/>
						</g>
						<g>
							<path class="st4" d="M72.862,62.534c-0.386,0.184-0.812,0.296-1.268,0.296h-0.297c-1.632,0-2.955-1.323-2.955-2.955
								c0,1.632-1.323,2.955-2.955,2.955h-0.297c-1.632,0-2.955-1.323-2.955-2.955c0,1.632-1.323,2.955-2.955,2.955h-0.297
								c-1.632,0-2.955-1.323-2.955-2.955c0,1.632-1.323,2.955-2.955,2.955h-0.297c-0.499,0-0.963-0.136-1.375-0.354
								c-4.563,7.743-8.722,10.83-8.722,10.83H81.55C81.55,73.306,77.411,70.233,72.862,62.534z"/>
						</g>
						<g>
							<path class="st3" d="M65.388,62.83h-0.297c-1.632,0-2.955-1.323-2.955-2.955c0,1.632-1.323,2.955-2.955,2.955h-0.297
								c-0.171,0-0.336-0.022-0.498-0.05c-1.51,7.52-2.872,10.526-2.872,10.526h13.102c0,0-1.36-3.002-2.869-10.512
								C65.629,62.808,65.511,62.83,65.388,62.83z"/>
						</g>
						<g>
							<g>
								<g>
									<path class="st2" d="M63.46,95.135c-0.392,0.051-0.789,0.084-1.194,0.09C64.142,108.09,72.75,111.79,72.75,111.79
										l2.583-7.748C68.494,102.618,65.117,98.522,63.46,95.135z"/>
									<path class="st3" d="M65.817,98.701c-1.03-1.183-1.788-2.415-2.352-3.567c-0.394,0.052-0.793,0.085-1.199,0.09
										C64.142,108.09,72.75,111.79,72.75,111.79l0.49-1.47C70.938,108.559,67.537,105.018,65.817,98.701z"/>
									<path class="st2" d="M60.377,95.068c-1.645,3.4-5.022,7.54-11.905,8.974l2.583,7.748c0,0,8.618-3.705,10.487-16.59
										C61.147,95.178,60.758,95.135,60.377,95.068z"/>
								</g>
							</g>
						</g>
					</g>
				</g>
				<polygon class="st7" points="62.012,21.147 62.012,12.483 84.684,16.815 				"/>
				<g>
					<g>
						<path class="st4" d="M85.074,53.647c0,0-18.226-11.06-23.062-27.211c-4.835,16.15-22.839,27.207-22.839,27.207L85.074,53.647z
							"/>
					</g>
					<g>
						<path class="st3" d="M77.767,53.643c0,0-12.532-11.056-15.755-27.207c-3.223,16.15-15.755,27.207-15.755,27.207H77.767z"/>
					</g>
					<g>
						<path class="st4" d="M71.164,53.643c0,0-7.28-11.056-9.152-27.207c-1.872,16.15-9.152,27.207-9.152,27.207H71.164z"/>
					</g>
					<g>
						<path class="st3" d="M65.09,53.643c0,0-2.448-11.056-3.077-27.207c-0.629,16.15-3.077,27.207-3.077,27.207H65.09z"/>
					</g>
				</g>
				<g>
					<g>
						<path class="st7" d="M8.443,39.81c-0.258,0.456-0.645,0.825-1.115,1.059c1.346,2.636,2.482,4.537,4.49,7.568
							c3.169-1.543,4.613-2.511,7.197-4.705C14.709,42.73,12.172,41.838,8.443,39.81z"/>
						<path class="st2" d="M19.015,43.732c2.544,3.388,3.956,5.017,7.02,8.031c2.538-2.653,3.651-4.121,5.558-7.213
							C26.699,45.078,24.142,44.927,19.015,43.732z"/>
						<path class="st7" d="M31.593,44.551c2.987,2.564,4.6,3.737,8.01,5.755c1.796-3.532,2.529-5.387,3.676-9.152
							C38.865,43.332,36.486,44.023,31.593,44.551z"/>
						<path class="st2" d="M43.279,41.153c3.267,1.588,4.994,2.23,8.558,3.109c0.971-4.187,1.29-6.319,1.62-10.543
							C49.769,37.477,47.693,38.975,43.279,41.153z"/>
					</g>
				</g>
				<g>
					<g>
						<path class="st7" d="M115.83,39.81c-3.729,2.028-6.266,2.92-10.572,3.922c2.584,2.194,4.028,3.162,7.197,4.705
							c2.009-3.031,3.144-4.932,4.49-7.568C116.475,40.635,116.089,40.266,115.83,39.81z"/>
						<path class="st2" d="M92.68,44.551c1.907,3.092,3.02,4.56,5.558,7.213c3.064-3.014,4.476-4.643,7.02-8.031
							C100.131,44.927,97.574,45.078,92.68,44.551z"/>
						<path class="st7" d="M80.994,41.153c1.147,3.766,1.88,5.62,3.676,9.152c3.41-2.018,5.023-3.191,8.01-5.755
							C87.787,44.023,85.408,43.332,80.994,41.153z"/>
						<path class="st2" d="M70.815,33.72c0.331,4.224,0.649,6.356,1.621,10.543c3.565-0.879,5.291-1.522,8.558-3.109
							C76.58,38.975,74.503,37.477,70.815,33.72z"/>
					</g>
				</g>
				<circle class="st4" cx="6.16" cy="38.52" r="2.634"/>
				<circle class="st4" cx="118.113" cy="38.52" r="2.634"/>
			</g>
			<g>
				<g>
					<g>
						<path class="st4" d="M11.593,73.527c-2.443,0-4.424,1.981-4.424,4.424v3.703c0,3.613,2.929,6.543,6.543,6.543h0.657
							c3.613,0,6.543-2.929,6.543-6.543v-8.127H11.593z"/>
						<path class="st3" d="M20.911,73.527v8.127c0,3.613,2.929,6.543,6.543,6.543h0.657c3.613,0,6.543-2.929,6.543-6.543v-8.127
							H20.911z"/>
						<path class="st4" d="M34.653,73.527v8.127c0,3.613,2.929,6.543,6.543,6.543h0.657c3.613,0,6.543-2.929,6.543-6.543v-8.127
							H34.653z"/>
						<path class="st3" d="M51.989,85.083c0-5.605,4.543-10.148,10.148-10.148v-1.408H48.395v8.127c0,2.686,1.62,4.991,3.935,5.999
							C52.115,86.831,51.989,85.973,51.989,85.083z"/>
						<path class="st4" d="M62.136,73.527v1.408c5.605,0,10.148,4.543,10.148,10.148c0,0.89-0.126,1.748-0.341,2.57
							c2.315-1.008,3.935-3.313,3.935-5.999v-8.127H62.136z"/>
						<path class="st3" d="M75.878,73.527v8.127c0,3.613,2.929,6.543,6.543,6.543h0.657c3.613,0,6.543-2.929,6.543-6.543v-8.127
							H75.878z"/>
						<path class="st4" d="M89.62,73.527v8.127c0,3.613,2.929,6.543,6.543,6.543h0.657c3.613,0,6.543-2.929,6.543-6.543v-8.127
							H89.62z"/>
						<path class="st3" d="M112.68,73.527h-9.318v8.127c0,3.613,2.929,6.543,6.543,6.543h0.657c3.613,0,6.543-2.929,6.543-6.543
							v-3.703C117.104,75.508,115.123,73.527,112.68,73.527z"/>
					</g>
				</g>
				
					<ellipse transform="matrix(0.7071 -0.7071 0.7071 0.7071 -41.9634 68.8574)" class="st2" cx="62.136" cy="85.083" rx="10.148" ry="10.148"/>
				<circle class="st3" cx="62.136" cy="85.083" r="6.962"/>
				<path class="st4" d="M63.915,89.686l-1.122-0.873c-0.471-0.366-1.124-0.388-1.618-0.053l-1.178,0.798
					c-0.734,0.497-1.675-0.235-1.374-1.069l0.484-1.337c0.203-0.561,0.022-1.189-0.449-1.555l-1.122-0.873
					c-0.7-0.544-0.294-1.666,0.592-1.637l1.422,0.047c0.596,0.02,1.137-0.347,1.34-0.908l0.484-1.337
					c0.302-0.834,1.493-0.794,1.739,0.057l0.395,1.366c0.166,0.573,0.681,0.975,1.278,0.994l1.422,0.047
					c0.886,0.029,1.217,1.175,0.483,1.672l-1.178,0.798c-0.494,0.335-0.716,0.949-0.551,1.522l0.395,1.366
					C65.602,89.562,64.614,90.23,63.915,89.686z"/>
			</g>
		</g>
		<g>
			<g>
				<path class="st4" d="M39.309,53.643c-1.103,0-1.998,0.894-1.998,1.998v4.235c0,1.632,1.323,2.955,2.955,2.955h0.297
					c1.632,0,2.955-1.323,2.955-2.955v-6.232H39.309z"/>
				<path class="st3" d="M43.518,53.643v6.232c0,1.632,1.323,2.955,2.955,2.955h0.297c1.632,0,2.955-1.323,2.955-2.955v-6.232
					H43.518z"/>
				<path class="st4" d="M49.724,53.643v6.232c0,1.632,1.323,2.955,2.955,2.955h0.297c1.632,0,2.955-1.323,2.955-2.955v-6.232
					H49.724z"/>
				<path class="st3" d="M55.93,53.643v6.232c0,1.632,1.323,2.955,2.955,2.955h0.297c1.632,0,2.955-1.323,2.955-2.955v-6.232H55.93z
					"/>
				<path class="st4" d="M62.136,53.643v6.232c0,1.632,1.323,2.955,2.955,2.955h0.297c1.632,0,2.955-1.323,2.955-2.955v-6.232
					H62.136z"/>
				<path class="st3" d="M68.343,53.643v6.232c0,1.632,1.323,2.955,2.955,2.955h0.297c1.632,0,2.955-1.323,2.955-2.955v-6.232
					H68.343z"/>
				<path class="st4" d="M74.549,53.643v6.232c0,1.632,1.323,2.955,2.955,2.955H77.8c1.632,0,2.955-1.323,2.955-2.955v-6.232H74.549
					z"/>
				<path class="st3" d="M84.964,53.643h-4.208v6.232c0,1.632,1.323,2.955,2.955,2.955h0.297c1.632,0,2.955-1.323,2.955-2.955
					v-4.235C86.961,54.537,86.067,53.643,84.964,53.643z"/>
			</g>
		</g>
		<g>
			<path class="st0" d="M112.253,96.4c-0.552,0-1,0.448-1,1v5.552c0,0.552,0.448,1,1,1s1-0.448,1-1V97.4
				C113.253,96.848,112.805,96.4,112.253,96.4z"/>
			<path class="st0" d="M121.747,38.52c0-2.003-1.63-3.633-3.634-3.633s-3.634,1.63-3.634,3.633c0,0.283,0.04,0.556,0.102,0.821
				c-3.181,1.668-5.572,2.492-9.55,3.418c0,0,0,0-0.001,0c-4.997,1.163-7.4,1.32-12.243,0.798c-4.798-0.518-7.025-1.165-11.351-3.3
				c-4.369-2.156-6.314-3.577-9.908-7.237c-0.028-0.028-0.063-0.045-0.094-0.07c-0.018-0.015-0.028-0.036-0.047-0.049
				c-5.828-4.071-8.161-9.148-8.376-9.638v-1.289l21.859-4.177c0.472-0.09,0.813-0.502,0.813-0.982s-0.341-0.892-0.813-0.982
				L62.2,11.5c-0.291-0.056-0.595,0.022-0.825,0.212c-0.23,0.19-0.363,0.473-0.363,0.771v0.122v8.542v2.28
				c-2.391,4.33-8.16,9.493-8.219,9.546c-0.008,0.007-0.01,0.017-0.018,0.024c-0.01,0.009-0.022,0.014-0.031,0.023
				c-3.594,3.661-5.539,5.081-9.908,7.237c-4.326,2.135-6.553,2.782-11.351,3.3c-4.844,0.522-7.247,0.366-12.243-0.798
				c0,0,0,0-0.001,0c-3.978-0.926-6.369-1.75-9.55-3.418c0.062-0.265,0.102-0.537,0.102-0.821c0-2.003-1.63-3.633-3.633-3.633
				c-2.004,0-3.634,1.63-3.634,3.633c0,1.736,1.224,3.186,2.854,3.545l2.029,32.439c-0.774,0.938-1.24,2.139-1.24,3.447v3.703
				c0,3.03,1.799,5.641,4.382,6.839v22.297H5.902c-0.552,0-1,0.448-1,1s0.448,1,1,1h5.649h100.702c0.025,0,0.045-0.012,0.07-0.014
				c0.024,0.002,0.045,0.014,0.07,0.014h5.649c0.552,0,1-0.448,1-1s-0.448-1-1-1h-4.789v-4.056c0-0.552-0.448-1-1-1s-1,0.448-1,1
				v4.056H74.137l2.144-6.432c0.09-0.271,0.061-0.567-0.082-0.815c-0.142-0.248-0.383-0.422-0.663-0.48
				c-5.712-1.19-8.849-4.313-10.574-7.209c3.734-0.981,6.712-3.844,7.835-7.52c1.275-0.659,2.354-1.668,3.08-2.927
				c1.324,2.296,3.809,3.789,6.543,3.789h0.657c2.733,0,5.219-1.493,6.542-3.789c1.324,2.296,3.809,3.789,6.542,3.789h0.657
				c2.733,0,5.219-1.493,6.542-3.789c1.324,2.296,3.809,3.789,6.542,3.789h0.657c0.234,0,0.464-0.014,0.692-0.035v4.497
				c0,0.552,0.448,1,1,1s1-0.448,1-1v-4.968c2.832-1.087,4.851-3.827,4.851-7.037v-3.703c0-1.532-0.641-2.914-1.666-3.901
				l2.409-31.971C120.5,41.738,121.747,40.272,121.747,38.52z M118.113,36.886c0.901,0,1.634,0.733,1.634,1.633
				c0,0.901-0.733,1.634-1.634,1.634s-1.634-0.733-1.634-1.634C116.479,37.619,117.212,36.886,118.113,36.886z M115.551,41.093
				c0.033,0.033,0.074,0.058,0.109,0.09c-1.071,2.044-2.051,3.676-3.553,5.966c-1.91-0.961-3.147-1.727-4.671-2.922
				C110.505,43.423,112.75,42.563,115.551,41.093z M102.811,45.278c-1.465,1.85-2.683,3.193-4.549,5.055
				c-1.526-1.637-2.491-2.845-3.646-4.599C97.611,45.957,99.845,45.837,102.811,45.278z M90.283,45.257
				c-1.748,1.422-3.126,2.38-5.202,3.638c-1.078-2.174-1.729-3.722-2.441-5.859C85.308,44.225,87.391,44.83,90.283,45.257z
				 M78.726,41.115c-1.915,0.861-3.377,1.363-5.543,1.927c-0.577-2.573-0.884-4.36-1.129-6.706
				C74.255,38.398,76.078,39.697,78.726,41.115z M87.378,61.914c7.695,5.358,15.163,8.767,19.846,10.613H16.907
				c4.703-1.855,12.217-5.285,19.949-10.685c0.685,1.182,1.949,1.988,3.411,1.988h0.296c1.161,0,2.223-0.496,2.955-1.32
				c0.732,0.823,1.794,1.32,2.955,1.32h0.296c1.161,0,2.223-0.497,2.955-1.32c0.732,0.824,1.793,1.32,2.955,1.32h0.297
				c1.162,0,2.223-0.497,2.955-1.32c0.732,0.824,1.793,1.32,2.955,1.32h0.296c1.161,0,2.223-0.496,2.955-1.32
				c0.732,0.823,1.794,1.32,2.955,1.32h0.296c1.161,0,2.223-0.497,2.955-1.32c0.732,0.824,1.793,1.32,2.955,1.32h0.297
				c1.162,0,2.223-0.497,2.955-1.32c0.732,0.824,1.793,1.32,2.955,1.32H77.8c1.161,0,2.223-0.496,2.955-1.32
				c0.732,0.823,1.794,1.32,2.955,1.32h0.296C85.439,63.83,86.684,63.057,87.378,61.914z M9.321,73.033L7.458,43.251
				c1.001,1.822,2.027,3.477,3.526,5.738c0.191,0.288,0.508,0.448,0.834,0.448c0.147,0,0.297-0.033,0.437-0.101
				c2.841-1.383,4.365-2.333,6.596-4.166c2.222,2.913,3.694,4.563,6.483,7.306c0.187,0.184,0.439,0.287,0.701,0.287
				c0.005,0,0.01,0,0.015,0c0.268-0.004,0.522-0.115,0.708-0.309c2.262-2.364,3.44-3.835,5.069-6.395
				c2.538,2.132,4.21,3.297,7.267,5.107c0.156,0.092,0.332,0.14,0.509,0.14c0.094,0,0.188-0.013,0.279-0.04
				c0.265-0.077,0.487-0.261,0.612-0.507c1.611-3.168,2.397-5.048,3.396-8.206c1.884,0.883,3.325,1.449,5.06,1.967
				c-4.827,4.687-9.308,7.637-10.148,8.174c-1.411,0.243-2.491,1.467-2.491,2.947v4.165c-12.488,8.879-24.628,12.475-24.847,12.538
				c-0.144,0.041-0.268,0.116-0.374,0.209C10.463,72.611,9.869,72.779,9.321,73.033z M84.963,54.643c0.55,0,0.998,0.448,0.998,0.998
				v4.234c0,1.078-0.877,1.955-1.955,1.955H83.71c-0.861,0-1.612-0.552-1.867-1.372c-0.148-0.48-0.585-0.804-1.088-0.804
				c-0.503,0-0.94,0.323-1.088,0.802c-0.255,0.822-1.006,1.374-1.867,1.374h-0.296c-0.861,0-1.612-0.552-1.868-1.375
				c-0.149-0.479-0.586-0.801-1.087-0.801s-0.938,0.322-1.088,0.802c-0.255,0.821-1.005,1.374-1.867,1.374h-0.297
				c-0.861,0-1.612-0.552-1.867-1.372c-0.148-0.48-0.584-0.803-1.086-0.804c-0.001,0-0.001,0-0.002,0
				c-0.501,0-0.938,0.322-1.088,0.802C67,61.278,66.249,61.83,65.388,61.83h-0.296c-0.861,0-1.612-0.552-1.868-1.375
				c-0.149-0.479-0.586-0.801-1.087-0.801c0,0-0.001,0-0.002,0c-0.501,0.001-0.938,0.324-1.085,0.802
				c-0.255,0.822-1.006,1.374-1.867,1.374h-0.296c-0.861,0-1.612-0.552-1.868-1.375c-0.149-0.479-0.586-0.801-1.087-0.801
				s-0.938,0.322-1.088,0.802c-0.255,0.821-1.005,1.374-1.867,1.374h-0.297c-0.861,0-1.612-0.552-1.867-1.372
				c-0.148-0.48-0.584-0.803-1.086-0.804c-0.001,0-0.001,0-0.002,0c-0.501,0-0.938,0.322-1.088,0.802
				c-0.255,0.822-1.006,1.374-1.867,1.374h-0.296c-0.861,0-1.612-0.552-1.868-1.375c-0.149-0.479-0.586-0.801-1.087-0.801
				c0,0-0.001,0-0.002,0c-0.501,0.001-0.938,0.324-1.085,0.802c-0.255,0.822-1.006,1.374-1.867,1.374h-0.296
				c-1.078,0-1.955-0.877-1.955-1.955v-4.234c0-0.55,0.448-0.998,0.998-0.998H84.963z M42.431,52.643
				c2.204-1.588,5.464-4.146,8.8-7.503c0.125,0.031,0.237,0.062,0.367,0.094c0.079,0.02,0.159,0.029,0.239,0.029
				c0.183,0,0.364-0.05,0.523-0.148c0.228-0.14,0.391-0.365,0.451-0.626c0.108-0.466,0.206-0.901,0.299-1.323
				c3.466-3.802,6.807-8.43,8.903-13.698c2.15,5.383,5.623,10.099,9.206,13.949c0.078,0.349,0.155,0.695,0.242,1.072
				c0.061,0.261,0.223,0.486,0.451,0.626c0.159,0.098,0.34,0.148,0.523,0.148c0.08,0,0.161-0.01,0.239-0.029
				c0.086-0.021,0.159-0.041,0.242-0.062c3.357,3.34,6.638,5.887,8.862,7.471H42.431z M69.856,34.25
				c0.165,2.035,0.338,3.62,0.588,5.191c-2.728-3.303-5.204-7.104-6.789-11.281C65.034,30.013,67.048,32.217,69.856,34.25z
				 M63.012,19.938v-6.246l16.344,3.123L63.012,19.938z M60.533,27.686c-1.524,4.235-3.95,8.1-6.656,11.457
				c0.227-1.488,0.388-3.013,0.544-4.946C55.346,33.35,58.189,30.672,60.533,27.686z M52.22,36.336
				c-0.245,2.345-0.553,4.132-1.13,6.706c-2.166-0.563-3.628-1.066-5.543-1.927C48.195,39.698,50.018,38.398,52.22,36.336z
				 M41.634,43.036c-0.712,2.136-1.363,3.684-2.441,5.859c-2.076-1.258-3.455-2.215-5.202-3.638
				C36.882,44.83,38.965,44.225,41.634,43.036z M29.657,45.734c-1.155,1.753-2.12,2.961-3.646,4.599
				c-1.866-1.862-3.084-3.206-4.549-5.055C24.428,45.837,26.664,45.957,29.657,45.734z M12.166,47.149
				c-1.502-2.291-2.482-3.923-3.553-5.966c0.034-0.032,0.075-0.056,0.109-0.09c2.8,1.47,5.046,2.33,8.115,3.134
				C15.313,45.423,14.076,46.188,12.166,47.149z M4.526,38.52c0-0.9,0.733-1.633,1.634-1.633c0.9,0,1.633,0.733,1.633,1.633
				c0,0.901-0.733,1.634-1.633,1.634C5.259,40.153,4.526,39.421,4.526,38.52z M8.169,81.654v-3.703c0-1.888,1.536-3.423,3.423-3.423
				h46.986c-4.406,1.489-7.59,5.654-7.59,10.556c0,0.146,0.016,0.287,0.022,0.432c-0.643-0.644-1.148-1.432-1.407-2.348
				c-0.155-0.544-0.64-0.91-1.209-0.91c0,0-0.001,0-0.001,0c-0.569,0-1.054,0.367-1.208,0.911c-0.671,2.372-2.865,4.028-5.333,4.028
				h-0.657c-2.468,0-4.662-1.657-5.333-4.029c-0.155-0.544-0.64-0.91-1.209-0.91c0,0,0,0-0.001,0c-0.569,0-1.054,0.367-1.208,0.911
				c-0.671,2.372-2.865,4.028-5.333,4.028h-0.657c-2.468,0-4.662-1.657-5.333-4.027c-0.154-0.545-0.639-0.911-1.208-0.912
				c0,0,0,0-0.001,0c-0.569,0-1.054,0.366-1.209,0.911c-0.671,2.372-2.865,4.028-5.333,4.028h-0.657
				C10.656,87.196,8.169,84.71,8.169,81.654z M12.551,89.098c0.379,0.059,0.765,0.099,1.161,0.099h0.657
				c2.733,0,5.219-1.494,6.542-3.789c1.324,2.296,3.809,3.789,6.542,3.789h0.657c2.733,0,5.219-1.493,6.542-3.789
				c1.324,2.296,3.809,3.789,6.542,3.789h0.657c2.733,0,5.219-1.493,6.542-3.789c0.726,1.259,1.805,2.268,3.081,2.927
				c1.082,3.542,3.883,6.338,7.428,7.415c-1.711,2.925-4.856,6.11-10.636,7.314c-0.279,0.058-0.521,0.233-0.663,0.48
				c-0.143,0.248-0.172,0.544-0.082,0.815l2.144,6.432H12.551V89.098z M51.628,110.35l-1.862-5.584
				c5.263-1.378,8.436-4.347,10.338-7.248C58.251,105.516,53.651,109.115,51.628,110.35z M74.038,104.765l-1.858,5.572
				c-2.004-1.251-6.585-4.886-8.458-12.786C65.627,100.442,68.796,103.393,74.038,104.765z M62.136,94.231
				c-5.044,0-9.147-4.104-9.147-9.148s4.104-9.148,9.147-9.148c5.044,0,9.148,4.104,9.148,9.148S67.181,94.231,62.136,94.231z
				 M116.104,81.654c0,3.056-2.486,5.542-5.542,5.542h-0.657c-2.469,0-4.662-1.657-5.333-4.027
				c-0.154-0.545-0.639-0.911-1.208-0.912c0,0,0,0-0.001,0c-0.569,0-1.054,0.366-1.209,0.911c-0.671,2.372-2.865,4.028-5.333,4.028
				h-0.657c-2.469,0-4.662-1.657-5.333-4.027c-0.154-0.545-0.639-0.911-1.208-0.912c0,0,0,0-0.001,0
				c-0.569,0-1.054,0.366-1.209,0.911c-0.671,2.372-2.865,4.028-5.333,4.028h-0.657c-2.469,0-4.662-1.657-5.333-4.027
				c-0.154-0.545-0.64-0.912-1.209-0.912c-0.569,0-1.055,0.366-1.209,0.911c-0.259,0.915-0.763,1.703-1.407,2.347
				c0.006-0.144,0.022-0.286,0.022-0.432c0-4.902-3.185-9.066-7.59-10.556h46.986c1.888,0,3.424,1.536,3.424,3.423V81.654z
				 M113.036,72.546c-0.105-0.089-0.227-0.161-0.368-0.201c-0.218-0.063-12.27-3.626-24.71-12.432c0-0.013,0.004-0.024,0.004-0.037
				v-4.234c0-1.493-1.1-2.724-2.531-2.951c-0.867-0.548-5.369-3.482-10.22-8.136c1.787-0.528,3.247-1.099,5.172-2.002
				c1,3.16,1.786,5.04,3.397,8.206c0.125,0.247,0.347,0.43,0.612,0.507c0.092,0.026,0.186,0.04,0.279,0.04
				c0.178,0,0.354-0.047,0.509-0.14c3.057-1.81,4.729-2.975,7.267-5.107c1.629,2.561,2.808,4.031,5.069,6.395
				c0.185,0.193,0.44,0.304,0.708,0.309c0.005,0,0.01,0,0.015,0c0.262,0,0.514-0.103,0.701-0.287
				c2.788-2.742,4.26-4.393,6.482-7.305c2.23,1.832,3.754,2.782,6.595,4.165c0.141,0.068,0.29,0.101,0.438,0.101
				c0.326,0,0.643-0.16,0.834-0.447c1.464-2.208,2.476-3.839,3.455-5.612l-2.222,29.479
				C114.053,72.686,113.555,72.58,113.036,72.546z"/>
			<path class="st0" d="M66.239,82.352l-1.422-0.047c-0.164-0.005-0.304-0.115-0.35-0.272l-0.395-1.366
				c-0.234-0.812-0.932-1.354-1.776-1.382c-0.864-0.045-1.577,0.467-1.864,1.262l-0.484,1.337c-0.056,0.154-0.22,0.251-0.367,0.249
				l-1.422-0.047c-0.841-0.002-1.576,0.469-1.864,1.263c-0.287,0.794-0.042,1.643,0.625,2.162l1.123,0.874
				c0.129,0.101,0.179,0.271,0.123,0.425l-0.484,1.338c-0.287,0.794-0.042,1.644,0.625,2.163c0.667,0.518,1.55,0.548,2.25,0.074
				l1.177-0.797c0.136-0.092,0.314-0.086,0.443,0.014l1.123,0.874c0.351,0.273,0.762,0.411,1.174,0.411
				c0.372,0,0.744-0.112,1.076-0.336c0.7-0.474,1-1.305,0.766-2.117l-0.395-1.367c-0.045-0.157,0.016-0.324,0.151-0.416l1.177-0.798
				c0.7-0.474,1-1.305,0.766-2.117S67.085,82.38,66.239,82.352z M63.915,89.686l0.614-0.789c0,0,0,0,0.001,0L63.915,89.686z
				 M64.951,84.994c-0.855,0.579-1.237,1.635-0.95,2.627l0.322,1.115l-0.916-0.712c-0.429-0.334-0.944-0.502-1.459-0.502
				c-0.464,0-0.929,0.136-1.333,0.41l-0.961,0.651l0.395-1.092c0.352-0.972,0.04-2.051-0.775-2.685l-0.917-0.713l1.16,0.038
				c1.05,0.047,1.962-0.595,2.314-1.567l0.395-1.091l0.322,1.115c0.287,0.993,1.173,1.683,2.206,1.716l1.16,0.038L64.951,84.994z"/>
		</g>
	</g>
</g>
</svg>
