<?xml version="1.0" encoding="utf-8"?>
<!-- Generator: Adobe Illustrator 22.0.1, SVG Export Plug-In . SVG Version: 6.00 Build 0)  -->
<svg version="1.1" id="Layer_1" xmlns="http://www.w3.org/2000/svg" xmlns:xlink="http://www.w3.org/1999/xlink" x="0px" y="0px"
	 viewBox="0 0 128 128" style="enable-background:new 0 0 128 128;" xml:space="preserve">
<style type="text/css">
	.st0{fill:#3A2C60;}
	.st1{fill:#E6E7E8;}
	.st2{fill:#6DC9F7;}
	.st3{fill:#FFFFFF;}
	.st4{fill:#FA759E;}
	.st5{fill:#FFD7E5;}
	.st6{fill:#D4FBFF;}
	.st7{fill:#0089EF;}
</style>
<g>
	<g>
		<path class="st1" d="M114.484,59.278h-12.264V58.36c0-2.372-1.93-4.302-4.302-4.302h-0.048V38.507
			c0-2.657-2.162-4.819-4.819-4.819s-4.819,2.162-4.819,4.819v15.551H87.05V32.25c0-2.657-2.162-4.819-4.819-4.819
			s-4.819,2.162-4.819,4.819v21.808h-1.183V20.889c0-2.657-2.162-4.819-4.819-4.819s-4.819,2.162-4.819,4.819v33.168h-1.183V20.889
			c0-2.657-2.162-4.819-4.819-4.819s-4.819,2.162-4.819,4.819v33.168h-1.183V32.25c0-2.657-2.162-4.819-4.819-4.819
			s-4.819,2.162-4.819,4.819v21.808h-1.183V38.507c0-2.657-2.162-4.819-4.819-4.819s-4.819,2.162-4.819,4.819v15.551h-0.048
			c-2.372,0-4.302,1.93-4.302,4.302v0.918H17.516c-1.941,0-3.521,1.579-3.521,3.52v49.524c0,1.688,1.195,3.099,2.782,3.44
			c0.28,3.863,3.505,6.922,7.438,6.922c3.906,0,7.116-3.016,7.435-6.841h68.504c0.319,3.825,3.529,6.841,7.435,6.841
			c3.924,0,7.144-3.045,7.437-6.896c1.683-0.263,2.979-1.71,2.979-3.466v-11.014v-4.89v-6.262v-4.996V62.798
			C118.005,60.857,116.426,59.278,114.484,59.278z"/>
		<path class="st1" d="M103.808,35.644c0.441,0.105,0.891,0.157,1.342,0.157c1.007,0,2.02-0.258,2.944-0.761
			c0.932-0.507,1.722-1.237,2.348-2.17c1.636-2.438,1.728-5.653,0.24-8.389l-2.245-4.128l1.996-1.086
			c0.375-0.204,0.649-0.542,0.77-0.952c0.121-0.41,0.075-0.842-0.129-1.217l-0.832-1.529c-0.204-0.375-0.542-0.649-0.952-0.77
			c-0.409-0.121-0.842-0.076-1.217,0.129l-4.745,2.58c-0.375,0.204-0.648,0.542-0.77,0.952c-0.121,0.41-0.075,0.843,0.129,1.218
			l2.887,5.308c-0.876,0.059-1.75,0.309-2.547,0.742c-1.34,0.729-2.347,1.89-2.837,3.27c-0.503,1.418-0.403,2.894,0.282,4.154
			C101.16,34.411,102.344,35.297,103.808,35.644z"/>
		<path class="st1" d="M26.526,27.454c0.626,0.933,1.416,1.663,2.348,2.17c0.925,0.503,1.937,0.761,2.944,0.761
			c0.451,0,0.901-0.052,1.342-0.157c1.464-0.348,2.648-1.234,3.333-2.494c0.686-1.26,0.786-2.735,0.283-4.154
			c-0.49-1.38-1.497-2.542-2.837-3.27c-0.797-0.434-1.671-0.684-2.547-0.742l2.887-5.308c0.204-0.375,0.25-0.808,0.129-1.217
			s-0.395-0.748-0.77-0.952l-4.744-2.581c-0.375-0.204-0.808-0.249-1.218-0.129c-0.409,0.121-0.748,0.395-0.952,0.77l-0.832,1.53
			c-0.204,0.375-0.25,0.808-0.129,1.217s0.395,0.748,0.77,0.952l1.997,1.086l-2.245,4.128C24.797,21.801,24.89,25.015,26.526,27.454
			z"/>
	</g>
	<g>
		<g>
			<g>
				<path class="st2" d="M38.767,51.058V34.507c0-2.109-1.71-3.819-3.819-3.819s-3.819,1.71-3.819,3.819v16.551H38.767z"/>
				<path class="st2" d="M49.588,51.058V28.25c0-2.109-1.71-3.819-3.819-3.819s-3.819,1.71-3.819,3.819v22.808H49.588z"/>
				<g>
					<path class="st2" d="M60.408,51.058V16.889c0-2.109-1.71-3.819-3.819-3.819s-3.819,1.71-3.819,3.819v34.169H60.408z"/>
				</g>
				<path class="st2" d="M92.871,51.058V34.507c0-2.109-1.71-3.819-3.819-3.819s-3.819,1.71-3.819,3.819v16.551H92.871z"/>
				<g>
					<path class="st2" d="M82.05,51.058V28.25c0-2.109-1.71-3.819-3.819-3.819s-3.819,1.71-3.819,3.819v22.808H82.05z"/>
				</g>
				<path class="st2" d="M71.229,51.058V16.889c0-2.109-1.71-3.819-3.819-3.819s-3.819,1.71-3.819,3.819v34.169H71.229z"/>
			</g>
			<g>
				<g>
					<g>
						<path class="st7" d="M13.75,110.842v0.375c0,3.571,2.895,6.466,6.466,6.466c3.571,0,6.466-2.895,6.466-6.466v-0.375H13.75z"/>
						<path class="st7" d="M97.123,110.842v0.375c0,3.571,2.895,6.466,6.466,6.466h0c3.571,0,6.466-2.895,6.466-6.466v-0.375H97.123
							z"/>
					</g>
					<path class="st4" d="M110.484,56.278H13.515c-1.392,0-2.52,1.128-2.52,2.52v49.524c0,1.392,1.128,2.52,2.52,2.52h96.969
						c1.392,0,2.52-1.128,2.52-2.52V58.798C113.005,57.406,111.876,56.278,110.484,56.278z"/>
					<g>
						<path class="st3" d="M26.779,56.278H13.515c-1.392,0-2.52,1.128-2.52,2.52v3c0-1.392,1.128-2.52,2.52-2.52h13.264V56.278z"/>
						<path class="st3" d="M110.484,56.278H97.22v3h13.264c1.392,0,2.52,1.128,2.52,2.52v-3
							C113.005,57.406,111.876,56.278,110.484,56.278z"/>
					</g>
					<path class="st5" d="M113.004,103.695H10.995c-0.552,0-1-0.448-1-1s0.448-1,1-1h102.009c0.552,0,1,0.448,1,1
						S113.557,103.695,113.004,103.695z"/>
				</g>
				<path class="st4" d="M93.919,51.058H30.081c-1.823,0-3.302,1.478-3.302,3.302v22.482H97.22V54.36
					C97.22,52.536,95.742,51.058,93.919,51.058z"/>
				<rect x="26.779" y="64.372" class="st3" width="70.441" height="12.47"/>
				<g>
					<g>
						<path class="st2" d="M46.287,98.383l-2.219-1.508c-0.931-0.633-2.163-0.594-3.053,0.096l-2.12,1.644
							c-1.321,1.025-3.182-0.24-2.715-1.846l0.749-2.577c0.314-1.081-0.103-2.241-1.034-2.874l-2.219-1.508
							c-1.383-0.94-0.755-3.1,0.916-3.153l2.682-0.084c1.125-0.035,2.099-0.791,2.413-1.872l0.749-2.577
							c0.467-1.606,2.715-1.676,3.282-0.103l0.909,2.525c0.381,1.059,1.401,1.752,2.526,1.717l2.682-0.084
							c1.671-0.052,2.433,2.065,1.112,3.089l-2.12,1.644c-0.889,0.69-1.233,1.874-0.852,2.933l0.909,2.525
							C49.448,97.944,47.67,99.323,46.287,98.383z"/>
					</g>
				</g>
				<path class="st2" d="M85.752,98.383l-2.219-1.508c-0.931-0.633-2.163-0.594-3.053,0.096l-2.12,1.644
					c-1.321,1.025-3.182-0.24-2.715-1.846l0.749-2.577c0.314-1.081-0.103-2.241-1.034-2.874l-2.219-1.508
					c-1.383-0.94-0.755-3.1,0.916-3.153l2.682-0.084c1.125-0.035,2.099-0.791,2.413-1.872l0.749-2.577
					c0.467-1.606,2.715-1.676,3.282-0.103l0.909,2.525c0.381,1.059,1.401,1.752,2.526,1.717l2.682-0.084
					c1.671-0.052,2.433,2.065,1.112,3.089l-2.12,1.644c-0.889,0.69-1.233,1.874-0.852,2.933l0.909,2.525
					C88.913,97.944,87.135,99.323,85.752,98.383z"/>
			</g>
		</g>
		<path class="st4" d="M104.552,11.806l-4.744,2.58c-0.291,0.158-0.398,0.522-0.24,0.813l2.026,3.726l1.768,3.25
			c-1.2-0.367-2.598-0.254-3.855,0.43c-2.321,1.262-3.287,3.984-2.154,6.067s3.943,2.751,6.264,1.489
			c0.829-0.451,1.485-1.088,1.995-1.849c1.465-2.183,1.449-5.044,0.193-7.354l-2.723-5.007l2.875-1.564
			c0.291-0.158,0.398-0.522,0.24-0.813l-0.832-1.53C105.207,11.755,104.843,11.647,104.552,11.806z"/>
		<g>
			<path class="st4" d="M24.417,6.389l4.744,2.58c0.291,0.158,0.398,0.522,0.24,0.813l-2.026,3.726l-1.768,3.25
				c1.2-0.367,2.598-0.254,3.855,0.43c2.321,1.262,3.287,3.984,2.154,6.067c-1.133,2.083-3.943,2.751-6.264,1.489
				c-0.829-0.451-1.485-1.088-1.995-1.849c-1.465-2.183-1.449-5.044-0.193-7.354l2.723-5.007l-2.875-1.564
				c-0.291-0.158-0.398-0.522-0.24-0.813l0.832-1.53C23.762,6.339,24.126,6.231,24.417,6.389z"/>
			<g>
				<path class="st0" d="M110.484,55.278H98.22V54.36c0-2.372-1.93-4.302-4.302-4.302h-0.048V34.507
					c0-2.657-2.162-4.819-4.819-4.819s-4.819,2.162-4.819,4.819v15.551H83.05V28.25c0-2.657-2.162-4.819-4.819-4.819
					s-4.819,2.162-4.819,4.819v21.808h-1.183V16.889c0-2.657-2.162-4.818-4.819-4.818s-4.819,2.162-4.819,4.818v33.169h-1.183
					V16.889c0-2.657-2.162-4.818-4.819-4.818s-4.819,2.162-4.819,4.818v33.169h-1.183V28.25c0-2.657-2.162-4.819-4.818-4.819
					c-2.657,0-4.819,2.162-4.819,4.819v21.808h-1.183V34.507c0-2.657-2.162-4.819-4.819-4.819s-4.819,2.162-4.819,4.819v15.551
					h-0.048c-2.372,0-4.302,1.93-4.302,4.302v0.918H13.516c-1.941,0-3.521,1.579-3.521,3.52v49.524c0,1.688,1.195,3.099,2.782,3.439
					c0.28,3.863,3.505,6.923,7.438,6.923c3.906,0,7.116-3.017,7.435-6.842h68.504c0.319,3.825,3.529,6.842,7.435,6.842
					c3.924,0,7.144-3.046,7.437-6.897c1.683-0.263,2.978-1.71,2.978-3.465V97.308c0-0.552-0.448-1-1-1s-1,0.448-1,1v11.014
					c0,0.838-0.682,1.52-1.52,1.52H13.516c-0.838,0-1.521-0.682-1.521-1.52V58.798c0-0.838,0.682-1.52,1.521-1.52h12.264v7.094
					v12.47c0,0.552,0.448,1,1,1H97.22c0.552,0,1-0.448,1-1v-12.47v-7.094h12.264c0.838,0,1.52,0.682,1.52,1.52V81.16
					c0,0.552,0.448,1,1,1s1-0.448,1-1V58.798C114.004,56.857,112.425,55.278,110.484,55.278z M20.216,116.684
					c-2.803,0-5.12-2.121-5.43-4.842h10.861C25.336,114.563,23.019,116.684,20.216,116.684z M103.589,116.684
					c-2.803,0-5.12-2.121-5.431-4.842h10.861C108.709,114.563,106.392,116.684,103.589,116.684z M86.233,34.507
					c0-1.554,1.265-2.819,2.819-2.819s2.819,1.265,2.819,2.819v15.551h-5.638V34.507z M75.412,28.25
					c0-1.554,1.265-2.819,2.819-2.819s2.819,1.265,2.819,2.819v21.808h-5.638V28.25z M64.591,16.889
					c0-1.554,1.265-2.818,2.819-2.818s2.819,1.264,2.819,2.818v33.169h-5.638V16.889z M53.771,16.889
					c0-1.554,1.265-2.818,2.819-2.818s2.819,1.264,2.819,2.818v33.169h-5.638V16.889z M42.95,28.25c0-1.554,1.265-2.819,2.819-2.819
					s2.818,1.265,2.818,2.819v21.808H42.95V28.25z M32.129,34.507c0-1.554,1.265-2.819,2.819-2.819s2.819,1.265,2.819,2.819v15.551
					h-5.638V34.507z M30.081,52.058h63.837c1.269,0,2.302,1.033,2.302,2.302v9.013h-2.613v-0.914c0-0.722-0.586-1.308-1.308-1.308
					H89.7c-0.722,0-1.308,0.586-1.308,1.308v0.914h-1.168v-0.914c0-0.722-0.586-1.308-1.308-1.308h-2.599
					c-0.722,0-1.308,0.586-1.308,1.308v0.914h-1.168v-0.914c0-0.722-0.586-1.308-1.308-1.308h-2.599
					c-0.722,0-1.308,0.586-1.308,1.308v0.914h-7.492v-0.914c0-0.722-0.586-1.308-1.308-1.308h-2.599
					c-0.722,0-1.308,0.586-1.308,1.308v0.914h-1.285v-0.914c0-0.722-0.586-1.308-1.308-1.308h-2.599
					c-0.722,0-1.308,0.586-1.308,1.308v0.914h-7.375v-0.914c0-0.722-0.586-1.308-1.308-1.308h-2.599
					c-0.722,0-1.308,0.586-1.308,1.308v0.914h-1.285v-0.914c0-0.722-0.586-1.308-1.308-1.308h-2.599
					c-0.722,0-1.308,0.586-1.308,1.308v0.914h-1.285v-0.914c0-0.722-0.586-1.308-1.308-1.308h-2.599
					c-0.722,0-1.308,0.586-1.308,1.308v0.914h-3.049V54.36C27.779,53.09,28.812,52.058,30.081,52.058z M89.584,71.97H90v3.872
					h-4.383V71.97h0.416c0.658,0,1.192-0.534,1.192-1.192v-5.406h1.168v5.406C88.392,71.436,88.926,71.97,89.584,71.97z
					 M34.852,71.97c0.658,0,1.192-0.534,1.192-1.192v-5.406h1.285v5.406c0,0.658,0.534,1.192,1.192,1.192h0.416v3.872h-4.383V71.97
					H34.852z M40.936,71.97h0.416c0.658,0,1.192-0.534,1.192-1.192v-5.406h1.285v5.406c0,0.658,0.534,1.192,1.192,1.192h0.298v3.872
					h-4.383V71.97z M47.319,71.97h0.533c0.658,0,1.192-0.534,1.192-1.192v-5.406h2.658v10.47h-4.383V71.97z M53.702,65.372h2.717
					v5.406c0,0.658,0.534,1.192,1.192,1.192h0.474v3.872h-4.383V65.372z M60.085,71.97h0.357c0.658,0,1.192-0.534,1.192-1.192
					v-5.406h1.285v5.406c0,0.658,0.534,1.192,1.192,1.192h0.357v3.872h-4.383V71.97z M66.468,71.97h0.474
					c0.658,0,1.192-0.534,1.192-1.192v-5.406h2.717v10.47h-4.383V71.97z M72.851,65.372h2.775v4.762
					c0,0.658,0.534,1.192,1.192,1.192h0.416v4.515h-4.383V65.372z M79.234,71.326h0.416c0.658,0,1.192-0.534,1.192-1.192v-4.762
					h1.168v5.406c0,0.658,0.534,1.192,1.192,1.192h0.415v3.872h-4.383V71.326z M27.779,65.372h3.049v5.406
					c0,0.658,0.534,1.192,1.192,1.192h0.533v3.872h-4.774V65.372z M96.22,75.842H92V71.97h0.415c0.658,0,1.192-0.534,1.192-1.192
					v-5.406h2.613V75.842z"/>
				<path class="st0" d="M113.004,85.156c-0.552,0-1,0.448-1,1v6.262c0,0.552,0.448,1,1,1s1-0.448,1-1v-6.262
					C114.004,85.604,113.557,85.156,113.004,85.156z"/>
				<path class="st0" d="M51.558,90.06c0.951-0.737,1.302-1.945,0.895-3.078c-0.407-1.132-1.453-1.834-2.65-1.802l-2.682,0.084
					c-0.689,0.02-1.318-0.402-1.553-1.056l-0.909-2.524c-0.408-1.131-1.457-1.832-2.65-1.801c-1.203,0.038-2.197,0.808-2.533,1.964
					l-0.748,2.576c-0.194,0.667-0.791,1.13-1.485,1.151l-2.682,0.084c-1.203,0.038-2.197,0.809-2.533,1.964s0.09,2.339,1.085,3.016
					l2.219,1.508c0.575,0.39,0.83,1.101,0.636,1.767l-0.749,2.577c-0.335,1.156,0.09,2.339,1.085,3.016
					c0.473,0.322,1.005,0.481,1.536,0.481c0.585,0,1.168-0.195,1.667-0.582l2.12-1.644c0.549-0.426,1.303-0.45,1.878-0.059
					l2.219,1.508c0.996,0.677,2.253,0.637,3.204-0.101c0.951-0.737,1.301-1.945,0.894-3.078l-0.909-2.524
					c-0.235-0.654-0.024-1.379,0.524-1.804L51.558,90.06z M48.212,90.123c-1.235,0.958-1.71,2.59-1.181,4.062l0.909,2.524
					c0.166,0.46-0.14,0.744-0.238,0.819s-0.448,0.302-0.854,0.027l-2.218-1.508c-1.293-0.878-2.992-0.826-4.228,0.133l-2.12,1.644
					c-0.387,0.3-0.75,0.096-0.854,0.027c-0.102-0.07-0.425-0.333-0.289-0.803l0.749-2.577c0.436-1.501-0.14-3.1-1.433-3.979
					l-2.219-1.508c-0.405-0.275-0.323-0.684-0.289-0.803c0.035-0.119,0.186-0.508,0.675-0.523l2.682-0.084
					c1.563-0.049,2.906-1.09,3.343-2.592l0.749-2.576c0.136-0.47,0.551-0.519,0.674-0.523c0.006,0,0.014,0,0.021,0
					c0.145,0,0.527,0.043,0.685,0.48l0.909,2.524c0.529,1.472,1.951,2.444,3.498,2.378l2.682-0.084
					c0.471-0.024,0.664,0.363,0.706,0.48s0.148,0.52-0.238,0.82L48.212,90.123z"/>
				<path class="st0" d="M91.024,90.06c0.951-0.737,1.302-1.945,0.895-3.077c-0.408-1.132-1.458-1.838-2.651-1.802l-2.682,0.084
					c-0.691,0.014-1.318-0.402-1.553-1.056l-0.909-2.524c-0.407-1.132-1.426-1.837-2.65-1.802c-1.203,0.038-2.196,0.809-2.532,1.963
					l-0.749,2.577c-0.193,0.667-0.79,1.129-1.484,1.151l-2.682,0.084c-1.203,0.038-2.197,0.809-2.533,1.964s0.09,2.339,1.085,3.016
					l2.219,1.508c0.575,0.39,0.83,1.101,0.636,1.768l-0.749,2.576c-0.335,1.156,0.09,2.339,1.085,3.016
					c0.473,0.322,1.005,0.481,1.536,0.481c0.585,0,1.169-0.195,1.668-0.582l2.121-1.644c0.548-0.425,1.302-0.449,1.877-0.059
					l2.219,1.508c0.995,0.677,2.253,0.638,3.203-0.101c0.951-0.737,1.302-1.945,0.894-3.077l-0.908-2.525
					c-0.235-0.653-0.025-1.378,0.524-1.804L91.024,90.06z M87.678,90.124c-1.236,0.958-1.71,2.59-1.18,4.061l0.908,2.525
					c0.166,0.46-0.14,0.744-0.238,0.82c-0.097,0.076-0.447,0.303-0.853,0.026l-2.219-1.508c-1.293-0.879-2.991-0.826-4.228,0.133
					l-2.12,1.644c-0.387,0.299-0.751,0.096-0.854,0.027c-0.102-0.07-0.425-0.333-0.289-0.804l0.749-2.577
					c0.436-1.501-0.14-3.1-1.433-3.979l-2.219-1.508c-0.405-0.275-0.323-0.684-0.289-0.803c0.035-0.119,0.186-0.508,0.675-0.523
					l2.682-0.084c1.563-0.049,2.907-1.09,3.343-2.592l0.749-2.577c0.136-0.47,0.55-0.519,0.674-0.522c0.006,0,0.014,0,0.021,0
					c0.145,0,0.527,0.043,0.685,0.48l0.909,2.524c0.53,1.472,1.949,2.45,3.498,2.377l2.682-0.084
					c0.482-0.024,0.664,0.364,0.707,0.48c0.042,0.116,0.148,0.52-0.238,0.819L87.678,90.124z"/>
				<path class="st0" d="M99.808,31.644c0.441,0.105,0.891,0.157,1.342,0.157c1.007,0,2.019-0.258,2.944-0.761
					c0.933-0.507,1.723-1.237,2.348-2.17c1.636-2.438,1.729-5.653,0.241-8.389l-2.245-4.128l1.996-1.086
					c0.375-0.204,0.649-0.542,0.77-0.952c0.121-0.41,0.075-0.842-0.129-1.217l-0.832-1.529c-0.204-0.375-0.542-0.649-0.952-0.77
					c-0.408-0.122-0.841-0.075-1.217,0.129l-4.744,2.58c-0.375,0.204-0.649,0.542-0.77,0.952s-0.075,0.842,0.129,1.217l2.887,5.308
					c-0.876,0.059-1.75,0.309-2.546,0.742c-1.34,0.729-2.347,1.89-2.837,3.27c-0.503,1.418-0.403,2.894,0.283,4.154
					C97.16,30.41,98.344,31.297,99.808,31.644z M98.077,25.665c0.325-0.914,1.002-1.689,1.908-2.182
					c0.624-0.339,1.312-0.513,1.988-0.513c0.374,0,0.743,0.053,1.096,0.161c0.39,0.117,0.81-0.01,1.067-0.324
					c0.257-0.314,0.298-0.753,0.104-1.11l-3.603-6.624l4.041-2.197l0.449,0.826l-2.523,1.372c-0.233,0.126-0.406,0.341-0.481,0.595
					s-0.046,0.528,0.081,0.761l2.723,5.006c1.114,2.048,1.057,4.528-0.145,6.319c-0.444,0.662-0.996,1.175-1.643,1.527
					c-0.905,0.493-1.923,0.641-2.868,0.416c-0.904-0.215-1.628-0.75-2.039-1.504S97.766,26.542,98.077,25.665z"/>
				<path class="st0" d="M22.526,23.454c0.626,0.933,1.416,1.663,2.348,2.17c0.925,0.503,1.937,0.761,2.944,0.761
					c0.451,0,0.901-0.052,1.342-0.157c1.464-0.348,2.648-1.234,3.333-2.494c0.686-1.26,0.786-2.735,0.282-4.154
					c-0.49-1.38-1.497-2.542-2.836-3.27c-0.797-0.434-1.671-0.684-2.547-0.742l2.887-5.308c0.204-0.375,0.25-0.808,0.129-1.218
					c-0.122-0.41-0.395-0.748-0.77-0.951l-4.744-2.581c0,0,0,0,0,0c-0.776-0.423-1.748-0.134-2.169,0.641l-0.832,1.53
					c-0.204,0.375-0.25,0.808-0.129,1.217s0.395,0.748,0.77,0.952l1.997,1.086l-2.245,4.128
					C20.797,17.801,20.89,21.015,22.526,23.454z M24.042,16.021l2.723-5.007c0.264-0.485,0.084-1.093-0.4-1.356l-2.523-1.373
					l0.449-0.826l4.041,2.198l-3.603,6.624c-0.194,0.357-0.153,0.796,0.104,1.11c0.257,0.315,0.681,0.443,1.067,0.324
					c0.992-0.302,2.116-0.175,3.085,0.352c0.905,0.493,1.583,1.268,1.907,2.182c0.311,0.876,0.256,1.774-0.154,2.529
					s-1.135,1.289-2.039,1.504c-0.943,0.225-1.962,0.078-2.868-0.416c-0.646-0.351-1.199-0.865-1.643-1.527
					C22.985,20.548,22.928,18.069,24.042,16.021z"/>
			</g>
		</g>
	</g>
</g>
</svg>
