<?xml version="1.0" encoding="utf-8"?>
<!-- Generator: Adobe Illustrator 22.0.1, SVG Export Plug-In . SVG Version: 6.00 Build 0)  -->
<svg version="1.1" id="Layer_1" xmlns="http://www.w3.org/2000/svg" xmlns:xlink="http://www.w3.org/1999/xlink" x="0px" y="0px"
	 viewBox="0 0 128 128" style="enable-background:new 0 0 128 128;" xml:space="preserve">
<style type="text/css">
	.st0{fill:#3A2C60;}
	.st1{fill:#E6E7E8;}
	.st2{fill:#6DC9F7;}
	.st3{fill:#FFFFFF;}
	.st4{fill:#FA759E;}
	.st5{fill:#FFD7E5;}
	.st6{fill:#D4FBFF;}
	.st7{fill:#0089EF;}
</style>
<g>
	<g>
		<path class="st1" d="M91.305,69.999C91.305,69.999,91.305,69.998,91.305,69.999c2.388-1.2,3.488-3.999,2.559-6.514l-5-13.371
			c-0.544-1.449-1.682-2.572-3.108-3.077c-0.995-0.369-2.063-0.425-3.097-0.161l-45.449,11.64
			c-7.732,1.977-13.132,8.926-13.132,16.898c0,0.236,0.022,0.47,0.032,0.706c-0.684,0.57-1.23,1.297-1.74,1.98
			c-0.903,1.21-1.756,2.354-3.235,2.66c-1.099,0.226-2.487-0.285-3.306-1.217c-0.072-0.082-0.143-0.172-0.212-0.269
			c0.821-0.193,1.586-0.584,2.218-1.176c0.954-0.893,1.502-2.103,1.545-3.408c0.078-2.361-3.174-7.114-3.827-8.042
			c-0.181-0.257-0.472-0.414-0.786-0.424c-0.31-0.015-0.614,0.128-0.811,0.372c-0.713,0.883-4.271,5.412-4.349,7.772
			c-0.078,2.369,1.552,4.402,3.778,4.92c0.213,0.564,0.519,1.096,0.939,1.574c1.079,1.229,2.7,1.953,4.255,1.953
			c0.324,0,0.646-0.032,0.959-0.097c2.223-0.46,3.396-2.033,4.433-3.422c0.152-0.204,0.295-0.391,0.435-0.57
			c0.185,0.946,0.441,1.882,0.784,2.799c1.298,3.472,3.629,6.334,6.546,8.316c0,0.015-0.002,0.03-0.002,0.045
			c0,11.903,9.684,21.587,21.586,21.587s21.587-9.684,21.587-21.587c0-3.747-0.962-7.271-2.648-10.345L91.305,69.999z
			 M56.308,98.034c0.225-0.083,0.446-0.174,0.663-0.274l4.172,4.171c-1.476,0.963-3.116,1.645-4.834,2.009V98.034z M45.171,92.873
			c0.083,0.225,0.174,0.446,0.274,0.662l-4.172,4.172c-0.962-1.476-1.644-3.116-2.008-4.834H45.171z M50.332,103.94
			c-1.718-0.364-3.359-1.046-4.834-2.009l4.171-4.171c0.216,0.101,0.437,0.191,0.663,0.274V103.94z M61.47,92.873h5.905
			c-0.364,1.718-1.045,3.358-2.008,4.834l-4.172-4.172C61.296,93.319,61.387,93.098,61.47,92.873z M61.47,86.898
			c-0.083-0.225-0.174-0.446-0.274-0.663l2.311-2.311l2.283-1.143c0.735,1.285,1.279,2.67,1.586,4.117H61.47z"/>
		<path class="st1" d="M98.469,88.964l-1.563-0.051c-0.224-0.007-0.417-0.157-0.479-0.373l-0.435-1.503
			c-0.246-0.851-0.977-1.419-1.861-1.449c-0.877-0.043-1.652,0.49-1.954,1.323l-0.532,1.473c-0.076,0.209-0.233,0.365-0.501,0.339
			l-1.565-0.052c-0.883-0.013-1.651,0.49-1.952,1.324c-0.302,0.833-0.044,1.722,0.654,2.266l1.235,0.961
			c0.177,0.137,0.244,0.371,0.168,0.582l-0.532,1.472c-0.302,0.833-0.045,1.722,0.654,2.267c0.701,0.544,1.626,0.574,2.358,0.078
			l1.297-0.878c0.183-0.125,0.428-0.118,0.604,0.02l1.234,0.961c0.368,0.286,0.798,0.431,1.23,0.431c0.389,0,0.78-0.117,1.127-0.353
			c0.734-0.497,1.049-1.367,0.804-2.219l-0.435-1.502c-0.063-0.216,0.021-0.445,0.206-0.571l1.295-0.877
			c0.733-0.497,1.049-1.367,0.803-2.218C100.085,89.563,99.353,88.994,98.469,88.964z"/>
		<path class="st1" d="M73.281,28.163c0.177,0.138,0.244,0.373,0.168,0.583l-0.532,1.472c-0.302,0.833-0.045,1.722,0.654,2.266
			c0.699,0.544,1.625,0.574,2.357,0.078l1.297-0.878c0.184-0.125,0.429-0.117,0.604,0.021l1.235,0.96
			c0.367,0.286,0.798,0.431,1.23,0.43c0.389,0,0.779-0.117,1.127-0.352c0.733-0.496,1.048-1.367,0.803-2.219l-0.435-1.502
			c-0.063-0.216,0.021-0.445,0.206-0.57l1.296-0.877c0.733-0.497,1.049-1.367,0.803-2.218c-0.245-0.851-0.977-1.42-1.861-1.449
			l-1.564-0.051c-0.224-0.007-0.417-0.157-0.479-0.372l-0.434-1.504c-0.247-0.851-0.979-1.419-1.864-1.448
			c-0.881-0.043-1.65,0.49-1.951,1.323l-0.532,1.471c-0.076,0.21-0.242,0.35-0.502,0.34l-1.563-0.052
			c-0.874-0.01-1.652,0.49-1.953,1.323c-0.302,0.833-0.045,1.723,0.654,2.267L73.281,28.163z"/>
		<path class="st1" d="M90.347,47.346c0.113,0,0.229-0.02,0.342-0.061l10.86-3.947c2.075-0.754,3.25-2.942,2.733-5.089
			c-0.279-1.155-1.03-2.157-2.062-2.747c-1.047-0.599-2.259-0.735-3.411-0.386l-3.426,1.04c-0.529,0.161-0.827,0.719-0.667,1.248
			c0.16,0.528,0.716,0.826,1.247,0.667l3.426-1.04c0.62-0.188,1.272-0.115,1.838,0.208c0.563,0.323,0.958,0.848,1.109,1.48
			c0.279,1.156-0.354,2.334-1.472,2.74l-10.86,3.947c-0.519,0.188-0.787,0.762-0.598,1.282
			C89.555,47.093,89.938,47.346,90.347,47.346z"/>
		<path class="st1" d="M108.52,59.367L97.788,63.65c-0.514,0.205-0.764,0.786-0.559,1.299c0.205,0.514,0.791,0.761,1.299,0.558
			l10.732-4.282c1.107-0.44,2.362,0.017,2.923,1.065c0.307,0.573,0.362,1.227,0.156,1.843c-0.206,0.616-0.644,1.105-1.232,1.378
			l-3.249,1.504c-0.501,0.232-0.72,0.826-0.487,1.328c0.169,0.365,0.53,0.58,0.908,0.58c0.141,0,0.283-0.03,0.419-0.093l3.249-1.504
			c1.094-0.506,1.907-1.415,2.289-2.558c0.377-1.127,0.271-2.374-0.29-3.422C112.903,59.4,110.571,58.548,108.52,59.367z"/>
		<path class="st1" d="M113.654,39.239c-4.819,0-8.74,3.921-8.74,8.741s3.921,8.741,8.74,8.741c4.82,0,8.741-3.921,8.741-8.741
			S118.474,39.239,113.654,39.239z"/>
		<path class="st1" d="M101.454,51.882l-7.365,2.739c-0.518,0.193-0.781,0.769-0.589,1.286c0.15,0.403,0.531,0.652,0.938,0.652
			c0.116,0,0.233-0.021,0.349-0.063l7.365-2.739c0.518-0.193,0.781-0.769,0.589-1.286C102.547,51.953,101.973,51.692,101.454,51.882
			z"/>
	</g>
	<g>
		<g>
			<g>
				<path class="st3" d="M88.923,59.839L83.925,46.46c-0.757-2.026-2.92-3.156-5.016-2.619l-45.456,11.64
					c-9.473,2.426-14.75,12.531-11.328,21.691h0c3.422,9.16,14.032,13.329,22.775,8.95l41.953-21.016
					C88.788,64.136,89.68,61.865,88.923,59.839z"/>
				<path class="st7" d="M86.856,65.104l-41.96,21.02c-1.9,0.95-3.89,1.5-5.87,1.67c-6.05-0.55-11.6-4.46-13.9-10.62
					c-0.71-1.9-1.05-3.85-1.05-5.76c0-7.27,4.87-14.01,12.38-15.93l44.95-11.51c1.13,0.4,2.07,1.29,2.52,2.49l5,13.37
					C89.676,61.864,88.786,64.134,86.856,65.104z"/>
				<g>
					<g>
						<path class="st5" d="M70.456,65.868l-1.529-1.19c-0.641-0.499-1.531-0.528-2.204-0.073l-1.604,1.087
							c-1,0.677-2.282-0.321-1.871-1.456l0.659-1.822c0.276-0.764,0.029-1.62-0.612-2.119l-1.529-1.19
							c-0.953-0.742-0.4-2.269,0.807-2.23l1.937,0.064c0.812,0.027,1.55-0.473,1.826-1.237l0.659-1.822
							c0.411-1.136,2.035-1.082,2.37,0.078l0.538,1.862c0.226,0.781,0.928,1.328,1.741,1.354l1.937,0.064
							c1.207,0.04,1.658,1.601,0.658,2.278l-1.604,1.087c-0.673,0.456-0.976,1.293-0.75,2.074l0.538,1.862
							C72.754,65.698,71.409,66.61,70.456,65.868z"/>
					</g>
				</g>
				<g>
					<polygon class="st5" points="49.253,51.435 40.485,53.68 51.391,82.87 59.483,78.817 					"/>
				</g>
			</g>
			<g>
				<path class="st4" d="M49.32,65.298c-11.37,0-20.587,9.217-20.587,20.587c0,11.37,9.217,20.587,20.587,20.587
					c11.37,0,20.587-9.217,20.587-20.587C69.907,74.515,60.69,65.298,49.32,65.298z M37.145,76.52l7.377,7.378h-10.44
					C34.429,81.2,35.475,78.68,37.145,76.52z M34.082,87.873h10.44l-7.377,7.377C35.475,93.09,34.429,90.571,34.082,87.873z
					 M47.332,101.123c-2.698-0.347-5.217-1.393-7.377-3.063l7.377-7.377V101.123z M47.332,81.086l-7.377-7.377
					c2.16-1.67,4.68-2.716,7.377-3.063V81.086z M64.559,83.897h-10.44l7.377-7.378C63.165,78.68,64.212,81.2,64.559,83.897z
					 M51.308,70.646c2.698,0.347,5.217,1.393,7.378,3.063l-7.378,7.377V70.646z M51.308,101.123v-10.44l7.378,7.377
					C56.525,99.73,54.006,100.776,51.308,101.123z M61.496,95.25l-7.377-7.377h10.44C64.212,90.57,63.165,93.09,61.496,95.25z"/>
				<g>
					<circle class="st7" cx="49.32" cy="85.885" r="7.69"/>
					<path class="st2" d="M49.32,82.038c-2.125,0-3.847,1.722-3.847,3.847c0,2.125,1.722,3.847,3.847,3.847s3.847-1.722,3.847-3.847
						C53.167,83.761,51.445,82.038,49.32,82.038z"/>
				</g>
			</g>
			<path class="st5" d="M91.914,92.934l-1.235-0.961c-0.518-0.403-1.237-0.427-1.78-0.059l-1.296,0.878
				c-0.807,0.547-1.843-0.259-1.511-1.176l0.532-1.472c0.223-0.617,0.024-1.308-0.494-1.711l-1.235-0.961
				c-0.77-0.599-0.323-1.833,0.651-1.801l1.564,0.052c0.656,0.022,1.251-0.382,1.475-0.999l0.532-1.472
				c0.332-0.917,1.643-0.874,1.914,0.063l0.434,1.503c0.182,0.631,0.75,1.072,1.406,1.094l1.564,0.052
				c0.975,0.032,1.339,1.293,0.531,1.84l-1.296,0.878c-0.543,0.368-0.788,1.044-0.606,1.675L93.5,91.86
				C93.77,92.797,92.684,93.533,91.914,92.934z"/>
			<path class="st5" d="M75.679,27.876l-1.235-0.961c-0.518-0.403-1.237-0.427-1.78-0.059l-1.296,0.878
				c-0.807,0.547-1.843-0.259-1.511-1.176l0.532-1.472c0.223-0.617,0.024-1.308-0.494-1.711l-1.235-0.961
				c-0.77-0.599-0.323-1.833,0.651-1.801l1.564,0.052c0.656,0.022,1.251-0.382,1.475-0.999l0.532-1.472
				c0.332-0.917,1.643-0.874,1.914,0.063l0.434,1.503c0.182,0.631,0.75,1.072,1.406,1.094l1.564,0.052
				c0.975,0.032,1.339,1.293,0.531,1.84l-1.296,0.878c-0.543,0.368-0.788,1.044-0.606,1.675l0.434,1.503
				C77.535,27.739,76.449,28.475,75.679,27.876z"/>
			<path class="st4" d="M10.734,63.222c0,0-4.057,5.032-4.127,7.178c-0.071,2.146,1.612,3.944,3.759,4.015
				c2.147,0.071,3.944-1.612,4.015-3.759C14.451,68.51,10.734,63.222,10.734,63.222z"/>
		</g>
		<g>
			<path class="st4" d="M117.2,43.959v0.13c0,0.87-0.14,1.7-0.41,2.47c-0.41,1.25-1.13,2.35-2.07,3.21
				c-1.02,0.95-2.3,1.62-3.73,1.91c-0.49,0.1-1.01,0.15-1.53,0.15c-0.57,0-1.13-0.06-1.67-0.18c-2.38-0.53-4.36-2.15-5.35-4.32
				c-0.45-0.94-0.7-1.99-0.72-3.09v-0.15c0-3.05,1.77-5.69,4.34-6.95c1.02-0.51,2.18-0.79,3.4-0.79c0.49,0,0.96,0.04,1.42,0.13
				c2.02,0.37,3.76,1.53,4.9,3.14C116.65,40.849,117.17,42.349,117.2,43.959z"/>
			<g>
				<g>
					<path class="st5" d="M110.78,37.19l-0.63,0.42c-0.26,0.18-0.38,0.51-0.29,0.81l0.21,0.73c0.13,0.45-0.39,0.81-0.76,0.52
						l-0.6-0.47c-0.25-0.19-0.6-0.2-0.86-0.03l-0.63,0.43c-0.39,0.26-0.89-0.13-0.73-0.57l0.26-0.71c0.11-0.3,0.01-0.63-0.24-0.83
						l-0.45-0.35c1.02-0.51,2.18-0.79,3.4-0.79c0.49,0,0.96,0.04,1.42,0.13C111.05,36.69,111.04,37.019,110.78,37.19z"/>
				</g>
			</g>
			<g>
				<g>
					<path class="st5" d="M105.51,45.25l-0.62,0.42c-0.26,0.18-0.38,0.5-0.29,0.81l0.21,0.72c0.13,0.46-0.4,0.81-0.77,0.52
						l-0.6-0.46c-0.25-0.2-0.59-0.21-0.85-0.03l-0.15,0.1c-0.45-0.94-0.7-1.99-0.72-3.09c0.32,0.01,0.61-0.18,0.71-0.48l0.26-0.71
						c0.16-0.44,0.79-0.42,0.92,0.03l0.21,0.73c0.09,0.3,0.37,0.51,0.68,0.52l0.76,0.03C105.73,44.37,105.9,44.98,105.51,45.25z"/>
				</g>
			</g>
			<g>
				<g>
					<path class="st5" d="M111.88,50.339l-0.63,0.43c-0.26,0.18-0.38,0.5-0.29,0.81l0.03,0.1c-0.49,0.1-1.01,0.15-1.53,0.15
						c-0.57,0-1.13-0.06-1.67-0.18l0.06-0.18c0.11-0.29,0.01-0.63-0.24-0.82l-0.59-0.47c-0.37-0.28-0.16-0.88,0.31-0.86l0.76,0.02
						c0.31,0.01,0.6-0.18,0.71-0.48l0.26-0.71c0.16-0.45,0.79-0.42,0.92,0.03l0.21,0.72c0.09,0.31,0.36,0.52,0.68,0.53l0.75,0.03
						C112.09,49.469,112.27,50.079,111.88,50.339z"/>
				</g>
			</g>
			<g>
				<g>
					<path class="st5" d="M117.2,43.959l-0.56-0.43c-0.25-0.2-0.59-0.21-0.86-0.03l-0.62,0.42c-0.39,0.26-0.89-0.12-0.73-0.57
						l0.26-0.71c0.1-0.3,0.01-0.63-0.24-0.82l-0.6-0.47c-0.37-0.29-0.16-0.88,0.32-0.87l0.75,0.03c0.32,0.01,0.6-0.19,0.71-0.48
						l0.15-0.41C116.65,40.849,117.17,42.349,117.2,43.959z"/>
				</g>
			</g>
			<g>
				<g>
					<path class="st5" d="M116.79,46.56c-0.41,1.25-1.13,2.35-2.07,3.21c0.04-0.27-0.05-0.54-0.27-0.7l-0.6-0.47
						c-0.37-0.29-0.16-0.88,0.32-0.87l0.75,0.03c0.32,0.01,0.6-0.19,0.71-0.48l0.26-0.71C116.04,46.13,116.64,46.139,116.79,46.56z"
						/>
				</g>
			</g>
			<g>
				<g>
					<path class="st5" d="M110.64,46.538l-0.596-0.464c-0.25-0.195-0.597-0.206-0.859-0.028l-0.625,0.424
						c-0.39,0.264-0.89-0.125-0.729-0.568l0.257-0.71c0.108-0.298,0.011-0.631-0.239-0.826l-0.596-0.464
						c-0.371-0.289-0.156-0.885,0.314-0.869l0.755,0.025c0.317,0.01,0.604-0.184,0.712-0.482l0.257-0.71
						c0.16-0.443,0.793-0.422,0.924,0.03l0.21,0.726c0.088,0.304,0.362,0.518,0.679,0.528l0.755,0.025
						c0.47,0.016,0.646,0.624,0.257,0.888l-0.625,0.424c-0.262,0.178-0.38,0.504-0.292,0.808l0.21,0.726
						C111.536,46.471,111.011,46.827,110.64,46.538z"/>
				</g>
			</g>
		</g>
		<g>
			<path class="st0" d="M76.552,69.148l-3.374,1.69c-0.493,0.247-0.693,0.848-0.446,1.342c0.176,0.35,0.528,0.552,0.896,0.552
				c0.15,0,0.303-0.034,0.447-0.106l3.374-1.69c0.493-0.247,0.693-0.848,0.446-1.342S77.05,68.899,76.552,69.148z"/>
			<path class="st0" d="M89.863,59.484l-5-13.371c-0.544-1.448-1.682-2.572-3.108-3.076c-0.993-0.37-2.064-0.425-3.097-0.162
				l-45.449,11.64c-7.732,1.977-13.132,8.926-13.132,16.898c0,0.243,0.023,0.484,0.033,0.726c-0.681,0.567-1.234,1.28-1.741,1.96
				c-0.903,1.21-1.756,2.354-3.235,2.659c-1.098,0.23-2.488-0.285-3.306-1.217c-0.068-0.077-0.129-0.182-0.194-0.274
				c2.083-0.503,3.672-2.335,3.746-4.578c0.078-2.361-3.175-7.114-3.828-8.042c-0.18-0.257-0.471-0.414-0.785-0.424
				c-0.307-0.006-0.614,0.128-0.811,0.372c-0.713,0.884-4.271,5.412-4.348,7.772c-0.078,2.372,1.557,4.407,3.787,4.921
				c0.21,0.563,0.51,1.095,0.929,1.572c1.079,1.23,2.7,1.953,4.256,1.953c0.324,0,0.646-0.032,0.958-0.097
				c2.222-0.46,3.396-2.033,4.433-3.422c0.155-0.208,0.294-0.382,0.436-0.564c0.185,0.944,0.44,1.877,0.782,2.793
				c1.297,3.471,3.63,6.327,6.546,8.308c0,0.018-0.003,0.034-0.003,0.052c0,11.903,9.684,21.587,21.587,21.587
				s21.587-9.684,21.587-21.587c0-3.746-0.962-7.271-2.648-10.345l2.692-1.349c0.493-0.247,0.693-0.848,0.446-1.342
				c-0.247-0.493-0.846-0.695-1.343-0.446l-2.839,1.422c-3.883-5.744-10.456-9.527-17.896-9.527
				c-11.079,0-20.226,8.394-21.44,19.154c-2.123-1.697-3.818-3.954-4.817-6.628c-0.654-1.752-0.986-3.572-0.986-5.41
				c0-7.059,4.781-13.21,11.628-14.961l45.45-11.64c0.636-0.162,1.295-0.128,1.918,0.104c0.884,0.313,1.583,1.004,1.918,1.897
				l4.998,13.366c0.575,1.556-0.104,3.288-1.58,4.029l-6.857,3.436c-0.493,0.248-0.693,0.848-0.446,1.342
				c0.248,0.493,0.846,0.695,1.343,0.446l6.858-3.436C89.692,64.798,90.793,62,89.863,59.484z M7.606,70.433
				c0.034-1.042,1.619-3.549,3.071-5.502c1.32,2.044,2.737,4.651,2.703,5.692c-0.052,1.592-1.389,2.842-2.982,2.792
				C8.806,73.364,7.554,72.026,7.606,70.433z M49.32,66.298c10.8,0,19.587,8.787,19.587,19.587s-8.787,19.587-19.587,19.587
				s-19.587-8.787-19.587-19.587S38.52,66.298,49.32,66.298z"/>
			<path class="st0" d="M33.331,87.212c-0.189,0.216-0.277,0.503-0.241,0.788c0.367,2.856,1.496,5.575,3.264,7.861
				c0.176,0.227,0.441,0.368,0.728,0.386c0.021,0.001,0.042,0.002,0.063,0.002c0.264,0,0.519-0.105,0.707-0.293l4.672-4.672
				c0.411,0.517,0.88,0.985,1.396,1.397l-4.672,4.672c-0.203,0.203-0.309,0.484-0.291,0.771c0.019,0.287,0.159,0.552,0.386,0.728
				c2.286,1.768,5.004,2.896,7.861,3.264c0.042,0.005,0.085,0.008,0.127,0.008c0.242,0,0.477-0.087,0.661-0.249
				c0.216-0.19,0.339-0.463,0.339-0.751v-6.609c0.325,0.037,0.653,0.06,0.988,0.06c0.334,0,0.663-0.023,0.987-0.06v6.609
				c0,0.288,0.124,0.561,0.339,0.751c0.184,0.162,0.419,0.249,0.661,0.249c0.042,0,0.085-0.003,0.127-0.008
				c2.856-0.367,5.575-1.496,7.862-3.264c0.228-0.175,0.368-0.44,0.387-0.728c0.018-0.287-0.088-0.567-0.291-0.771l-4.673-4.672
				c0.517-0.412,0.985-0.88,1.397-1.397l4.672,4.672c0.188,0.188,0.443,0.293,0.707,0.293c0.021,0,0.042,0,0.063-0.002
				c0.287-0.019,0.552-0.159,0.728-0.387c1.768-2.287,2.896-5.005,3.264-7.861c0.037-0.285-0.051-0.572-0.241-0.788
				c-0.19-0.216-0.463-0.339-0.751-0.339H57.95c0.037-0.325,0.06-0.653,0.06-0.988c0-0.334-0.023-0.663-0.06-0.987h6.609
				c0.288,0,0.561-0.124,0.751-0.339s0.278-0.503,0.241-0.788c-0.367-2.855-1.496-5.574-3.263-7.862
				c-0.176-0.228-0.441-0.368-0.728-0.387c-0.287-0.025-0.568,0.088-0.771,0.291l-4.672,4.673c-0.412-0.517-0.88-0.985-1.397-1.397
				l4.673-4.673c0.203-0.203,0.309-0.484,0.291-0.771c-0.019-0.287-0.159-0.552-0.387-0.728c-2.288-1.768-5.006-2.896-7.862-3.263
				c-0.285-0.036-0.572,0.05-0.788,0.241c-0.216,0.19-0.339,0.463-0.339,0.751v6.61c-0.325-0.037-0.653-0.06-0.987-0.06
				c-0.334,0-0.663,0.023-0.988,0.06v-6.61c0-0.288-0.124-0.561-0.339-0.751c-0.216-0.19-0.505-0.276-0.788-0.241
				c-2.856,0.368-5.575,1.496-7.861,3.264c-0.227,0.176-0.368,0.44-0.386,0.728c-0.018,0.287,0.088,0.567,0.291,0.771l4.672,4.673
				c-0.517,0.412-0.985,0.88-1.397,1.397l-4.672-4.673c-0.203-0.203-0.481-0.311-0.771-0.291c-0.287,0.019-0.552,0.159-0.728,0.386
				c-1.768,2.288-2.897,5.006-3.264,7.862c-0.037,0.285,0.051,0.572,0.241,0.788c0.19,0.216,0.463,0.339,0.751,0.339h6.609
				c-0.037,0.325-0.06,0.653-0.06,0.987c0,0.334,0.023,0.663,0.06,0.988h-6.609C33.794,86.873,33.521,86.996,33.331,87.212z
				 M46.332,99.94c-1.718-0.364-3.359-1.046-4.834-2.008l4.171-4.171c0.216,0.101,0.437,0.191,0.663,0.274V99.94z M57.142,97.931
				c-1.476,0.962-3.116,1.644-4.834,2.008v-5.905c0.226-0.083,0.447-0.174,0.663-0.274L57.142,97.931z M63.375,88.873
				c-0.364,1.718-1.046,3.358-2.008,4.834l-4.172-4.172c0.101-0.216,0.191-0.437,0.274-0.662H63.375z M57.47,82.898
				c-0.083-0.225-0.174-0.446-0.274-0.663l2.311-2.311l2.283-1.144c0.735,1.285,1.279,2.67,1.586,4.117H57.47z M52.308,71.83
				c1.718,0.364,3.359,1.046,4.834,2.008L52.97,78.01c-0.216-0.101-0.437-0.191-0.663-0.274V71.83z M56.01,85.885
				c0,3.689-3.001,6.69-6.69,6.69c-3.688,0-6.689-3.001-6.689-6.69c0-3.688,3.001-6.689,6.689-6.689
				C53.009,79.196,56.01,82.197,56.01,85.885z M41.498,73.838c1.475-0.962,3.116-1.644,4.834-2.008v5.906
				c-0.225,0.083-0.446,0.174-0.662,0.274L41.498,73.838z M35.266,82.898c0.364-1.718,1.045-3.359,2.008-4.835l4.172,4.172
				c-0.101,0.216-0.191,0.437-0.274,0.663H35.266z M41.171,88.873c0.083,0.225,0.174,0.446,0.274,0.662l-4.172,4.172
				c-0.963-1.476-1.645-3.116-2.008-4.834H41.171z"/>
			<path class="st0" d="M49.32,90.732c2.672,0,4.847-2.174,4.847-4.847s-2.174-4.847-4.847-4.847s-4.847,2.174-4.847,4.847
				S46.648,90.732,49.32,90.732z M49.32,83.038c1.57,0,2.847,1.277,2.847,2.847s-1.277,2.847-2.847,2.847s-2.847-1.277-2.847-2.847
				S47.75,83.038,49.32,83.038z"/>
			<path class="st0" d="M94.469,84.965l-1.564-0.052c-0.224-0.007-0.416-0.156-0.478-0.372l-0.435-1.503
				c-0.246-0.851-0.977-1.419-1.861-1.449c-0.886-0.047-1.652,0.49-1.954,1.323l-0.532,1.471c-0.076,0.21-0.247,0.333-0.501,0.34
				l-1.564-0.052c-0.874-0.022-1.652,0.49-1.953,1.323c-0.302,0.833-0.045,1.723,0.654,2.267l1.235,0.961
				c0.177,0.137,0.244,0.371,0.168,0.582l-0.532,1.472c-0.302,0.833-0.045,1.722,0.654,2.266c0.699,0.543,1.624,0.575,2.358,0.078
				l1.295-0.877c0.186-0.124,0.428-0.119,0.605,0.02l1.235,0.96c0.368,0.286,0.798,0.431,1.23,0.431c0.389,0,0.78-0.117,1.127-0.353
				c0.734-0.497,1.049-1.367,0.804-2.219l-0.435-1.503c-0.063-0.215,0.021-0.444,0.205-0.569l1.296-0.877
				c0.733-0.497,1.049-1.367,0.803-2.218C96.085,85.563,95.353,84.994,94.469,84.965z M93.109,87.854
				c-0.904,0.614-1.309,1.731-1.005,2.781l0.437,1.519c0,0-0.005-0.002-0.013-0.008c0,0,0,0,0,0l-1.235-0.96
				c-0.453-0.354-0.998-0.532-1.544-0.532c-0.49,0-0.982,0.144-1.411,0.435l-1.306,0.87l0.532-1.471
				c0.372-1.028,0.043-2.17-0.82-2.842l-1.231-0.973l1.564,0.052c1.129,0.028,2.075-0.631,2.448-1.658l0.545-1.471l0.435,1.502
				c0.303,1.05,1.24,1.78,2.333,1.816l1.568,0.064L93.109,87.854z"/>
			<path class="st0" d="M69.28,24.164c0.177,0.137,0.245,0.372,0.169,0.581l-0.533,1.473c-0.301,0.833-0.044,1.722,0.655,2.266
				c0.7,0.544,1.624,0.574,2.357,0.078l1.297-0.878c0.185-0.125,0.429-0.117,0.604,0.021l1.235,0.96
				c0.367,0.286,0.798,0.43,1.23,0.43c0.389,0,0.779-0.117,1.127-0.352c0.733-0.497,1.048-1.368,0.803-2.219l-0.435-1.502
				c-0.063-0.216,0.021-0.445,0.206-0.57l1.297-0.878c0.732-0.498,1.047-1.368,0.801-2.219c-0.245-0.85-0.977-1.418-1.861-1.448
				l-1.563-0.052c-0.225-0.007-0.417-0.157-0.479-0.372l-0.434-1.504c-0.247-0.851-0.979-1.419-1.864-1.448
				c-0.891-0.046-1.65,0.49-1.951,1.323l-0.532,1.471c-0.076,0.211-0.282,0.361-0.502,0.34l-1.563-0.051
				c-0.882-0.022-1.652,0.49-1.953,1.323c-0.302,0.833-0.045,1.723,0.654,2.267L69.28,24.164z M70.842,21.664
				c1.085,0.034,2.076-0.63,2.449-1.658l0.545-1.472l0.434,1.504c0.305,1.05,1.242,1.78,2.334,1.815l1.568,0.064l-1.296,0.877
				c-0.904,0.612-1.31,1.729-1.007,2.781l0.438,1.519c0,0-0.005-0.002-0.013-0.008c0,0,0,0,0,0l-1.235-0.961
				c-0.455-0.354-0.999-0.531-1.545-0.531c-0.49,0-0.982,0.144-1.41,0.434l-1.307,0.871l0.533-1.473
				c0.371-1.028,0.041-2.169-0.821-2.84l-1.23-0.973L70.842,21.664z"/>
			<path class="st0" d="M86.347,43.346c0.113,0,0.229-0.02,0.342-0.061l10.86-3.947c2.075-0.755,3.25-2.942,2.733-5.089
				c-0.279-1.155-1.03-2.157-2.062-2.747c-1.047-0.599-2.259-0.736-3.411-0.386l-3.426,1.04c-0.529,0.161-0.827,0.719-0.667,1.248
				c0.16,0.528,0.715,0.828,1.247,0.667l3.426-1.04c0.62-0.188,1.273-0.116,1.838,0.208c0.563,0.323,0.958,0.848,1.109,1.48
				c0.279,1.156-0.354,2.334-1.472,2.74l-10.86,3.947c-0.519,0.188-0.787,0.762-0.598,1.282
				C85.555,43.093,85.938,43.346,86.347,43.346z"/>
			<path class="st0" d="M104.52,55.367L93.788,59.65c-0.514,0.205-0.764,0.786-0.559,1.299c0.205,0.514,0.79,0.76,1.299,0.558
				l10.732-4.282c1.108-0.439,2.362,0.017,2.923,1.065c0.307,0.573,0.362,1.227,0.156,1.843c-0.206,0.616-0.644,1.105-1.232,1.378
				l-3.249,1.504c-0.501,0.232-0.72,0.826-0.487,1.328c0.169,0.365,0.53,0.58,0.908,0.58c0.141,0,0.283-0.03,0.419-0.093
				l3.249-1.504c1.094-0.506,1.907-1.415,2.289-2.558c0.377-1.127,0.271-2.374-0.289-3.422
				C108.903,55.4,106.571,54.549,104.52,55.367z"/>
			<path class="st0" d="M116.597,39.041c-1.33-1.876-3.296-3.135-5.524-3.543c-1.705-0.334-3.789-0.088-5.453,0.743
				c-3.022,1.482-4.899,4.49-4.899,7.848v0.168c0.023,1.238,0.298,2.416,0.81,3.486c1.124,2.464,3.384,4.289,6.045,4.882
				c0.608,0.135,1.243,0.203,1.886,0.203c0.596,0,1.178-0.057,1.729-0.17c1.585-0.322,3.042-1.068,4.205-2.152
				c1.077-0.985,1.889-2.242,2.34-3.617c0.309-0.884,0.466-1.826,0.466-2.8v-0.13c0-0.006,0-0.013,0-0.019
				C118.167,42.173,117.612,40.479,116.597,39.041z M116.2,44.09c0,0.749-0.119,1.468-0.36,2.158
				c-0.351,1.067-0.971,2.03-1.802,2.79c-0.9,0.839-2.022,1.413-3.248,1.662c-0.875,0.18-1.884,0.172-2.782-0.026
				c-2.052-0.457-3.793-1.862-4.666-3.775c-0.396-0.827-0.604-1.728-0.622-2.659v-0.15c0-2.589,1.448-4.909,3.787-6.056
				c0.896-0.448,1.918-0.685,2.953-0.685c0.443,0,0.845,0.037,1.24,0.114c1.724,0.315,3.238,1.286,4.264,2.733
				c0.781,1.106,1.209,2.411,1.236,3.773V44.09z"/>
			<path class="st0" d="M97.454,47.882l-7.365,2.739c-0.518,0.193-0.781,0.769-0.589,1.286c0.15,0.403,0.531,0.652,0.938,0.652
				c0.116,0,0.233-0.021,0.349-0.063l7.365-2.739c0.518-0.193,0.781-0.769,0.589-1.286C98.547,47.953,97.973,47.692,97.454,47.882z"
				/>
		</g>
	</g>
</g>
</svg>
