<?xml version="1.0" encoding="utf-8"?>
<!-- Generator: Adobe Illustrator 22.0.1, SVG Export Plug-In . SVG Version: 6.00 Build 0)  -->
<svg version="1.1" id="Layer_1" xmlns="http://www.w3.org/2000/svg" xmlns:xlink="http://www.w3.org/1999/xlink" x="0px" y="0px"
	 viewBox="0 0 128 128" style="enable-background:new 0 0 128 128;" xml:space="preserve">
<style type="text/css">
	.st0{fill:#3A2C60;}
	.st1{fill:#E6E7E8;}
	.st2{fill:#6DC9F7;}
	.st3{fill:#FFFFFF;}
	.st4{fill:#FA759E;}
	.st5{fill:#FFD7E5;}
	.st6{fill:#D4FBFF;}
	.st7{fill:#0089EF;}
</style>
<g>
	<path class="st1" d="M114.203,70.643c-4.506-2.446-13.625-6.55-24.077-6.55c-1.685,0-3.369,0.114-5.031,0.339
		c1.592-2.421,2.922-4.919,3.966-7.451c5.248-12.729,2.986-25.565,2.887-26.105c-0.021-0.112-0.055-0.218-0.078-0.27
		c-0.013-0.046-0.037-0.118-0.056-0.162c-0.087-0.201-0.21-0.389-0.368-0.56c-0.018-0.019-0.091-0.091-0.11-0.108
		c-0.187-0.173-0.38-0.3-0.592-0.388c-0.21-0.086-0.437-0.133-0.722-0.144c-0.024-0.001-0.104-0.001-0.128,0
		c-0.232,0.01-0.453,0.057-0.645,0.134c-0.049,0.019-0.072,0.029-0.117,0.055c-0.103,0.047-0.203,0.098-0.292,0.162
		c-0.372,0.258-8.415,5.926-13.975,15.71c-1.613-10.565-6.54-18.333-6.772-18.694c-0.042-0.063-0.1-0.131-0.163-0.191
		c-0.772-0.924-2.285-0.907-3.034,0.002c-0.063,0.061-0.122,0.129-0.164,0.194c-0.229,0.357-5.156,8.124-6.769,18.689
		c-5.56-9.784-13.604-15.453-13.978-15.712c-0.089-0.061-0.182-0.109-0.243-0.135c-0.041-0.023-0.113-0.059-0.156-0.076
		c-0.202-0.081-0.421-0.127-0.642-0.137c-0.029,0-0.14,0-0.168,0c-0.253,0.009-0.479,0.055-0.695,0.143
		c-0.21,0.087-0.404,0.214-0.606,0.402c-0.019,0.018-0.077,0.075-0.094,0.094c-0.158,0.171-0.281,0.359-0.371,0.566
		c-0.005,0.012-0.032,0.091-0.037,0.104c-0.04,0.104-0.074,0.21-0.095,0.323c-0.099,0.541-2.36,13.376,2.888,26.105
		c1.062,2.576,2.421,5.117,4.053,7.581c-1.943-0.312-3.933-0.469-5.942-0.469c-10.46,0-19.581,4.104-24.087,6.551
		c-4.293,2.333-5.914,7.734-3.615,12.04c9.982,18.695,22.581,22.619,31.393,22.619c8.236,0,15.57-3.358,20.43-6.315
		c6.888,4.191,13.761,6.315,20.44,6.315c8.813,0,21.411-3.924,31.381-22.617C120.13,78.378,118.508,72.976,114.203,70.643z
		 M74.517,83.825L74.517,83.825c4.441-4.133,9.543-6.143,15.6-6.143c3.397,0,7.033,0.651,10.805,1.936
		c0.593,0.204,1.038,0.666,1.221,1.267c0.182,0.601,0.069,1.232-0.313,1.735c-4.554,6.027-9.732,9.083-15.392,9.083
		c-3.517,0-7.304-1.055-11.258-3.137c-0.858-0.447-1.425-1.257-1.556-2.222C73.494,85.391,73.82,84.473,74.517,83.825z
		 M29.86,80.885c0.184-0.601,0.629-1.063,1.219-1.266c3.774-1.285,7.407-1.937,10.797-1.937c6.056,0,11.159,2.009,15.6,6.143
		c0.697,0.648,1.023,1.566,0.896,2.521c-0.129,0.964-0.694,1.774-1.548,2.221c-0.001,0-0.002,0.001-0.002,0.001
		c-3.95,2.08-7.737,3.135-11.254,3.135c-5.667,0-10.849-3.056-15.402-9.083C29.787,82.12,29.676,81.487,29.86,80.885z"/>
	<g>
		<g>
			<path class="st2" d="M61.997,70.582c0.725-0.668,1.47-1.295,2.229-1.894c2.063-4.194,5.151-11.954,5.151-20.839
				c0-13.339-6.962-24.152-6.962-24.152s-6.962,10.813-6.962,24.152c0,9.822,3.773,18.269,5.763,22.043
				C61.476,70.121,61.74,70.345,61.997,70.582z"/>
			<g>
				<g>
					<g>
						<g>
							<path class="st3" d="M47.636,62.427c3.581,1.017,6.959,2.612,10.091,4.756c0.226-4.79-0.067-12.59-3.241-20.268
								c-3.45-8.39-9.44-14.47-12.92-17.5c-1.64-1.43-2.72-2.18-2.72-2.18s-2.32,12.65,2.77,24.98
								C43.238,56.155,45.419,59.583,47.636,62.427z"/>
							<path class="st4" d="M51.864,63.941c2.036,0.881,3.993,1.963,5.863,3.242c0.226-4.79-0.067-12.59-3.241-20.268
								c-3.45-8.39-9.44-14.47-12.92-17.5c-0.42,4.13-0.77,13.56,3.05,22.8C46.539,56.884,49.244,60.833,51.864,63.941z"/>
						</g>
					</g>
				</g>
				<path class="st5" d="M77.4,62.156c2.145-2.79,4.241-6.125,5.813-9.938c5.084-12.332,2.768-24.983,2.768-24.983
					s-10.558,7.343-15.642,19.675c-3.049,7.396-3.436,14.903-3.258,19.73C70.288,64.573,73.744,63.071,77.4,62.156z"/>
			</g>
		</g>
		<g>
			<path class="st4" d="M109.727,67.522c-4.42-2.4-13.36-6.43-23.6-6.43c-9.12,0-17.37,3.26-24.13,9.49
				c-6.76-6.23-15-9.49-24.12-9.49c-10.24,0-19.19,4.03-23.61,6.43c-3.81,2.07-5.25,6.87-3.21,10.69
				c9.75,18.26,21.97,22.09,30.51,22.09c7.97,0,15.15-3.19,20.43-6.49c5.29,3.3,12.47,6.49,20.44,6.49c8.53,0,20.76-3.83,30.5-22.09
				C114.987,74.392,113.547,69.592,109.727,67.522z M53.287,85.452c-3.38,1.78-7.48,3.25-11.72,3.25c-6.02,0-11.44-3.18-16.2-9.48
				c-1.2-1.59-0.5-3.9,1.39-4.55c3.23-1.1,7.08-1.99,11.12-1.99c6.28,0,11.66,2.11,16.28,6.41
				C56.137,80.932,55.677,84.202,53.287,85.452z M98.627,79.222c-4.76,6.3-10.18,9.48-16.19,9.48c-4.25,0-8.34-1.47-11.72-3.25
				c-2.4-1.25-2.86-4.52-0.88-6.36c4.62-4.3,10.01-6.41,16.28-6.41c4.04,0,7.9,0.89,11.13,1.99
				C99.137,75.322,99.837,77.632,98.627,79.222z"/>
			<g>
				<path class="st5" d="M61.149,92.395c-0.333,0-0.66-0.167-0.849-0.47c-0.292-0.468-0.15-1.085,0.318-1.378l0.848-0.53
					c0.324-0.202,0.734-0.202,1.059,0l0.848,0.529c0.469,0.292,0.611,0.909,0.319,1.377c-0.292,0.469-0.91,0.612-1.377,0.319
					l-0.319-0.199l-0.318,0.199C61.513,92.346,61.329,92.395,61.149,92.395z"/>
				<path class="st5" d="M49.283,97.753c-0.442,0-0.847-0.296-0.966-0.744c-0.142-0.534,0.176-1.082,0.709-1.223
					c0.591-0.157,1.171-0.329,1.74-0.512c0.527-0.167,1.089,0.12,1.259,0.645c0.169,0.525-0.119,1.089-0.645,1.259
					c-0.602,0.194-1.216,0.375-1.841,0.542C49.454,97.742,49.368,97.753,49.283,97.753z M55.419,95.53
					c-0.379,0-0.741-0.216-0.91-0.583c-0.23-0.502-0.009-1.096,0.493-1.326c0.566-0.26,1.114-0.525,1.644-0.795
					c0.493-0.252,1.094-0.056,1.345,0.437c0.251,0.492,0.056,1.094-0.437,1.345c-0.553,0.282-1.126,0.561-1.719,0.832
					C55.701,95.501,55.559,95.53,55.419,95.53z"/>
				<path class="st5" d="M42.838,98.773c-0.531,0-0.973-0.418-0.998-0.954c-0.025-0.552,0.401-1.02,0.953-1.045
					c0.604-0.028,1.203-0.076,1.794-0.143c0.542-0.062,1.044,0.332,1.106,0.881c0.062,0.549-0.333,1.044-0.881,1.106
					c-0.636,0.072-1.278,0.124-1.927,0.154C42.869,98.772,42.853,98.773,42.838,98.773z M38.183,98.577
					c-0.044,0-0.089-0.003-0.134-0.009c-0.64-0.086-1.283-0.197-1.913-0.33c-0.541-0.114-0.886-0.645-0.772-1.185
					c0.114-0.541,0.642-0.888,1.185-0.772c0.582,0.123,1.175,0.225,1.766,0.304c0.547,0.073,0.932,0.577,0.858,1.124
					C39.106,98.213,38.677,98.577,38.183,98.577z M31.889,96.888c-0.126,0-0.254-0.024-0.378-0.075
					c-0.589-0.241-1.183-0.509-1.765-0.797c-0.495-0.245-0.698-0.844-0.454-1.339c0.244-0.496,0.843-0.699,1.339-0.454
					c0.55,0.271,1.096,0.518,1.637,0.739c0.511,0.209,0.756,0.793,0.546,1.304C32.657,96.654,32.284,96.888,31.889,96.888z
					 M26.195,93.718c-0.201,0-0.404-0.061-0.58-0.186c-0.51-0.364-1.021-0.752-1.532-1.164c-0.43-0.347-0.498-0.976-0.151-1.406
					c0.347-0.43,0.976-0.498,1.406-0.151c0.48,0.387,0.959,0.751,1.439,1.093c0.449,0.321,0.554,0.945,0.233,1.395
					C26.815,93.573,26.507,93.718,26.195,93.718z M21.286,89.428c-0.264,0-0.527-0.104-0.723-0.31
					c-0.431-0.451-0.86-0.921-1.288-1.413c-0.363-0.417-0.319-1.048,0.097-1.411c0.416-0.363,1.049-0.319,1.411,0.097
					c0.408,0.468,0.817,0.917,1.226,1.346c0.381,0.399,0.367,1.033-0.033,1.414C21.783,89.336,21.535,89.428,21.286,89.428z
					 M17.155,84.379c-0.313,0-0.623-0.147-0.817-0.422c-0.358-0.507-0.716-1.03-1.07-1.57c-0.303-0.462-0.174-1.082,0.287-1.385
					c0.461-0.302,1.083-0.175,1.385,0.287c0.342,0.521,0.686,1.024,1.031,1.513c0.319,0.451,0.212,1.075-0.239,1.394
					C17.556,84.319,17.354,84.379,17.155,84.379z M13.7,78.839c-0.353,0-0.695-0.187-0.877-0.518l-0.442-0.814
					c-0.179-0.334-0.327-0.683-0.442-1.038c-0.171-0.525,0.116-1.089,0.641-1.26c0.525-0.171,1.09,0.116,1.26,0.641
					c0.08,0.244,0.182,0.483,0.304,0.713l0.431,0.793c0.267,0.484,0.09,1.092-0.394,1.358C14.029,78.799,13.863,78.839,13.7,78.839z
					 M13.418,72.667c-0.177,0-0.355-0.046-0.517-0.145c-0.473-0.287-0.624-0.901-0.337-1.374c0.385-0.635,0.872-1.193,1.447-1.659
					c0.429-0.348,1.059-0.282,1.407,0.148c0.347,0.429,0.281,1.059-0.148,1.407c-0.396,0.32-0.73,0.704-0.995,1.141
					C14.086,72.495,13.756,72.667,13.418,72.667z M57.689,71.227c-0.211,0-0.424-0.066-0.605-0.205
					c-0.484-0.369-0.975-0.722-1.471-1.06c-0.457-0.311-0.575-0.933-0.265-1.39c0.311-0.456,0.933-0.574,1.39-0.265
					c0.526,0.358,1.045,0.732,1.558,1.123c0.439,0.335,0.524,0.962,0.189,1.401C58.288,71.091,57.991,71.227,57.689,71.227z
					 M18.754,69.078c-0.379,0-0.742-0.217-0.91-0.585c-0.229-0.502-0.008-1.096,0.494-1.325c0.551-0.251,1.132-0.506,1.742-0.761
					c0.511-0.214,1.096,0.028,1.308,0.538c0.213,0.51-0.028,1.095-0.538,1.308c-0.589,0.246-1.15,0.492-1.681,0.734
					C19.035,69.048,18.893,69.078,18.754,69.078z M52.142,67.795c-0.147,0-0.296-0.032-0.438-0.101
					c-0.542-0.265-1.091-0.512-1.646-0.743c-0.51-0.212-0.751-0.797-0.54-1.307s0.798-0.751,1.307-0.54
					c0.592,0.246,1.177,0.509,1.755,0.792c0.496,0.242,0.703,0.841,0.46,1.337C52.869,67.589,52.513,67.795,52.142,67.795z
					 M24.848,66.724c-0.424,0-0.818-0.272-0.953-0.698c-0.167-0.526,0.125-1.088,0.651-1.255c0.594-0.188,1.203-0.37,1.827-0.542
					c0.533-0.149,1.083,0.166,1.229,0.698c0.147,0.532-0.166,1.083-0.698,1.229c-0.598,0.165-1.183,0.339-1.753,0.52
					C25.05,66.708,24.948,66.724,24.848,66.724z M46.016,65.566c-0.08,0-0.162-0.009-0.243-0.03
					c-0.583-0.145-1.172-0.274-1.767-0.385c-0.542-0.102-0.9-0.625-0.798-1.167c0.102-0.542,0.623-0.898,1.167-0.798
					c0.633,0.119,1.26,0.256,1.881,0.411c0.536,0.133,0.862,0.676,0.729,1.212C46.872,65.262,46.465,65.566,46.016,65.566z
					 M31.19,65.174c-0.479,0-0.902-0.344-0.985-0.832c-0.093-0.544,0.273-1.061,0.818-1.154c0.621-0.106,1.251-0.2,1.891-0.28
					c0.54-0.069,1.047,0.32,1.116,0.868c0.069,0.548-0.32,1.048-0.868,1.116c-0.609,0.076-1.21,0.166-1.803,0.267
					C31.303,65.17,31.246,65.174,31.19,65.174z M39.56,64.631c-0.016,0-0.032,0-0.047-0.001c-0.542-0.025-1.086-0.038-1.636-0.038
					l-0.176,0c-0.002,0-0.005,0-0.008,0c-0.549,0-0.996-0.442-1-0.992c-0.004-0.552,0.44-1.003,0.992-1.008l0.192,0
					c0.581,0,1.157,0.014,1.729,0.04c0.552,0.026,0.978,0.494,0.953,1.045C40.533,64.214,40.091,64.631,39.56,64.631z"/>
				<path class="st5" d="M61.997,74.982c-0.243,0-0.486-0.088-0.678-0.265l-0.735-0.678c-0.406-0.375-0.432-1.007-0.058-1.413
					c0.374-0.406,1.005-0.433,1.413-0.058l0.058,0.053l0.058-0.053c0.407-0.375,1.039-0.348,1.413,0.058
					c0.374,0.406,0.349,1.039-0.058,1.413l-0.735,0.678C62.483,74.894,62.24,74.982,61.997,74.982z"/>
				<path class="st5" d="M66.268,71.255c-0.301,0-0.599-0.135-0.796-0.393c-0.335-0.439-0.251-1.066,0.188-1.402
					c0.512-0.391,1.031-0.766,1.557-1.125c0.458-0.312,1.08-0.193,1.39,0.263c0.311,0.457,0.193,1.079-0.263,1.39
					c-0.497,0.338-0.986,0.692-1.47,1.062C66.693,71.188,66.479,71.255,66.268,71.255z M71.812,67.815
					c-0.37,0-0.726-0.206-0.899-0.561c-0.243-0.496-0.037-1.095,0.459-1.337c0.578-0.283,1.163-0.547,1.755-0.794
					c0.508-0.213,1.095,0.028,1.308,0.538c0.213,0.51-0.028,1.095-0.538,1.308c-0.555,0.232-1.104,0.48-1.647,0.745
					C72.109,67.782,71.959,67.815,71.812,67.815z"/>
				<path class="st5" d="M81.199,98.774c-0.016,0-0.031,0-0.046-0.001c-0.649-0.029-1.291-0.081-1.927-0.152
					c-0.549-0.061-0.944-0.556-0.883-1.104c0.061-0.549,0.556-0.943,1.104-0.883c0.592,0.066,1.191,0.114,1.795,0.141
					c0.552,0.025,0.979,0.493,0.954,1.044C82.172,98.356,81.73,98.774,81.199,98.774z M85.853,98.573
					c-0.492,0-0.921-0.363-0.989-0.865c-0.075-0.547,0.308-1.051,0.855-1.126c0.595-0.082,1.19-0.185,1.767-0.307
					c0.542-0.114,1.071,0.23,1.186,0.771c0.114,0.541-0.231,1.071-0.771,1.186c-0.625,0.132-1.268,0.244-1.911,0.332
					C85.944,98.57,85.898,98.573,85.853,98.573z M74.754,97.761c-0.084,0-0.17-0.011-0.256-0.034
					c-0.625-0.165-1.24-0.346-1.843-0.541c-0.526-0.169-0.814-0.733-0.645-1.258c0.169-0.525,0.731-0.815,1.258-0.645
					c0.57,0.184,1.15,0.354,1.741,0.51c0.534,0.141,0.853,0.688,0.711,1.222C75.602,97.464,75.197,97.761,74.754,97.761z
					 M92.145,96.876c-0.393,0-0.766-0.233-0.925-0.62c-0.21-0.511,0.033-1.095,0.544-1.306c0.541-0.223,1.087-0.47,1.636-0.742
					c0.497-0.247,1.094-0.043,1.34,0.452c0.245,0.495,0.043,1.095-0.452,1.34c-0.581,0.288-1.173,0.557-1.763,0.799
					C92.401,96.852,92.272,96.876,92.145,96.876z M68.614,95.544c-0.139,0-0.28-0.029-0.415-0.09
					c-0.592-0.27-1.166-0.547-1.72-0.829c-0.492-0.25-0.688-0.852-0.438-1.345c0.25-0.492,0.852-0.688,1.345-0.438
					c0.53,0.269,1.078,0.535,1.644,0.793c0.502,0.229,0.724,0.822,0.495,1.325C69.356,95.326,68.993,95.544,68.614,95.544z
					 M97.836,93.698c-0.312,0-0.619-0.145-0.814-0.417c-0.322-0.449-0.218-1.074,0.23-1.396c0.479-0.343,0.958-0.708,1.438-1.095
					c0.429-0.347,1.06-0.28,1.406,0.148c0.348,0.43,0.281,1.059-0.148,1.406c-0.511,0.413-1.021,0.801-1.53,1.167
					C98.241,93.637,98.037,93.698,97.836,93.698z M102.74,89.401c-0.248,0-0.496-0.091-0.689-0.275
					c-0.4-0.381-0.416-1.014-0.035-1.414c0.409-0.43,0.818-0.879,1.225-1.347c0.361-0.417,0.993-0.462,1.411-0.099
					c0.417,0.362,0.461,0.994,0.099,1.411c-0.427,0.492-0.855,0.963-1.285,1.415C103.267,89.297,103.004,89.401,102.74,89.401z
					 M106.866,84.346c-0.199,0-0.4-0.06-0.576-0.183c-0.451-0.318-0.559-0.942-0.24-1.394c0.345-0.489,0.688-0.993,1.03-1.514
					c0.303-0.462,0.922-0.591,1.384-0.289s0.591,0.922,0.289,1.384c-0.354,0.541-0.71,1.064-1.069,1.572
					C107.489,84.198,107.18,84.346,106.866,84.346z M110.314,78.803c-0.163,0-0.328-0.04-0.48-0.124
					c-0.484-0.266-0.661-0.874-0.395-1.358c0.138-0.251,0.275-0.504,0.413-0.762c0.128-0.238,0.234-0.486,0.315-0.742
					c0.168-0.526,0.733-0.814,1.257-0.648c0.526,0.168,0.816,0.73,0.648,1.257c-0.119,0.373-0.273,0.736-0.458,1.079
					c-0.139,0.26-0.28,0.521-0.422,0.779C111.01,78.615,110.667,78.803,110.314,78.803z M110.56,72.632
					c-0.335,0-0.663-0.168-0.852-0.475c-0.268-0.435-0.606-0.815-1.004-1.132c-0.433-0.343-0.504-0.973-0.161-1.405
					c0.343-0.433,0.972-0.506,1.405-0.161c0.58,0.461,1.072,1.015,1.462,1.647c0.29,0.47,0.144,1.086-0.326,1.376
					C110.921,72.584,110.74,72.632,110.56,72.632z M105.206,69.062c-0.139,0-0.28-0.029-0.415-0.09
					c-0.532-0.243-1.093-0.488-1.681-0.733c-0.51-0.212-0.751-0.797-0.54-1.307c0.212-0.509,0.798-0.75,1.307-0.54
					c0.61,0.253,1.192,0.508,1.744,0.76c0.502,0.229,0.724,0.823,0.494,1.325C105.949,68.845,105.586,69.062,105.206,69.062z
					 M99.111,66.712c-0.1,0-0.202-0.015-0.302-0.047c-0.571-0.181-1.156-0.354-1.755-0.52c-0.533-0.146-0.845-0.697-0.698-1.229
					c0.146-0.533,0.698-0.848,1.229-0.698c0.623,0.172,1.232,0.353,1.826,0.54c0.527,0.167,0.819,0.729,0.652,1.255
					C99.93,66.439,99.535,66.712,99.111,66.712z M77.94,65.577c-0.448,0-0.855-0.303-0.969-0.757
					c-0.135-0.536,0.191-1.079,0.727-1.213c0.62-0.156,1.248-0.293,1.88-0.413c0.547-0.106,1.066,0.253,1.168,0.796
					c0.103,0.542-0.254,1.066-0.796,1.168c-0.595,0.113-1.183,0.242-1.766,0.388C78.103,65.568,78.021,65.577,77.94,65.577z
					 M92.766,65.167c-0.056,0-0.112-0.004-0.169-0.014c-0.592-0.101-1.194-0.19-1.803-0.266c-0.548-0.068-0.937-0.567-0.869-1.116
					c0.068-0.548,0.567-0.943,1.116-0.869c0.639,0.08,1.27,0.172,1.892,0.278c0.544,0.093,0.911,0.609,0.818,1.154
					C93.668,64.823,93.245,65.167,92.766,65.167z M84.395,64.634c-0.53,0-0.972-0.417-0.998-0.952
					c-0.026-0.552,0.399-1.021,0.951-1.047c0.588-0.028,1.18-0.042,1.777-0.042l0.148,0c0.552,0.006,0.995,0.458,0.989,1.011
					c-0.006,0.552-0.498,1.02-1.011,0.989l-0.125,0c-0.565,0-1.126,0.014-1.683,0.041C84.428,64.633,84.411,64.634,84.395,64.634z"
					/>
			</g>
			<g>
				<path class="st2" d="M107.347,71.912c-7.29-3.96-29.28-13.42-45.35,5.93c-16.06-19.35-38.05-9.89-45.34-5.93
					c-1.41,0.77-1.94,2.53-1.19,3.95c15.66,29.33,37.32,18.53,46.53,11.94c9.21,6.59,30.87,17.39,46.53-11.94
					C109.287,74.442,108.757,72.682,107.347,71.912z M53.287,85.452c-3.38,1.78-7.48,3.25-11.72,3.25c-6.02,0-11.44-3.18-16.2-9.48
					c-1.2-1.59-0.5-3.9,1.39-4.55c3.23-1.1,7.08-1.99,11.12-1.99c6.28,0,11.66,2.11,16.28,6.41
					C56.137,80.932,55.677,84.202,53.287,85.452z M98.627,79.222c-4.76,6.3-10.18,9.48-16.19,9.48c-4.25,0-8.34-1.47-11.72-3.25
					c-2.4-1.25-2.86-4.52-0.88-6.36c4.62-4.3,10.01-6.41,16.28-6.41c4.04,0,7.9,0.89,11.13,1.99
					C99.137,75.322,99.837,77.632,98.627,79.222z"/>
				<g>
					<path class="st0" d="M110.203,66.643c-4.507-2.447-13.626-6.551-24.077-6.551c-2.177,0-4.313,0.189-6.399,0.553
						c1.632-2.376,3.176-5.053,4.41-8.046c5.137-12.461,2.925-25.016,2.828-25.544c-0.011-0.058-0.033-0.113-0.053-0.167
						c-0.006-0.016-0.009-0.033-0.015-0.049c-0.045-0.104-0.109-0.196-0.185-0.278c-0.018-0.019-0.036-0.036-0.055-0.053
						c-0.086-0.08-0.182-0.151-0.294-0.197c-0.112-0.046-0.229-0.064-0.347-0.068c-0.027-0.001-0.052-0.002-0.079-0.001
						c-0.111,0.005-0.22,0.025-0.324,0.066c-0.019,0.008-0.035,0.02-0.054,0.028c-0.05,0.024-0.102,0.045-0.149,0.078
						c-0.418,0.291-9.817,6.925-15.166,18.248c-0.929-11.95-6.724-21.091-6.991-21.507c-0.014-0.021-0.039-0.028-0.054-0.047
						c-0.182-0.243-0.459-0.411-0.787-0.411s-0.604,0.168-0.787,0.411c-0.015,0.02-0.04,0.026-0.054,0.047
						c-0.267,0.415-6.063,9.559-6.991,21.512c-0.672-1.421-1.433-2.832-2.284-4.213c-0.291-0.471-0.906-0.617-1.376-0.326
						c-0.47,0.29-0.616,0.906-0.326,1.376c0.286,0.464,0.561,0.932,0.827,1.402l-2.547,6.033l-3.349-8.124l1.692-4.065
						c0.332,0.413,0.665,0.826,0.979,1.244c0.197,0.261,0.497,0.399,0.8,0.399c0.209,0,0.42-0.065,0.6-0.201
						c0.441-0.332,0.53-0.959,0.198-1.4c-0.664-0.883-1.379-1.752-2.114-2.608c-0.021-0.024-0.038-0.049-0.061-0.071
						c-0.239-0.278-0.472-0.56-0.717-0.833c-0.368-0.411-1-0.445-1.412-0.075c-0.411,0.369-0.444,1.001-0.075,1.412
						c0.121,0.134,0.233,0.274,0.352,0.41L44.447,38.2l-3.178-7.709c0.504,0.448,1.046,0.945,1.628,1.509
						c0.396,0.384,1.03,0.375,1.414-0.021c0.385-0.396,0.375-1.03-0.021-1.414c-2.74-2.657-4.787-4.089-4.873-4.149
						c-0.046-0.032-0.097-0.054-0.147-0.078c-0.019-0.009-0.036-0.021-0.056-0.029c-0.103-0.041-0.211-0.061-0.321-0.066
						c-0.028-0.001-0.054,0-0.082,0.001c-0.117,0.004-0.234,0.022-0.345,0.068c-0.112,0.046-0.208,0.117-0.294,0.197
						c-0.019,0.018-0.038,0.034-0.055,0.053c-0.076,0.082-0.14,0.174-0.185,0.278c-0.007,0.016-0.009,0.032-0.015,0.049
						c-0.02,0.055-0.042,0.109-0.053,0.167c-0.097,0.528-2.309,13.083,2.828,25.544c1.267,3.072,2.86,5.811,4.54,8.232
						c-2.387-0.485-4.843-0.74-7.353-0.74c-10.459,0-19.581,4.104-24.087,6.551c-4.293,2.333-5.915,7.733-3.615,12.04
						c9.982,18.694,22.581,22.619,31.392,22.619c8.235,0,15.57-3.358,20.43-6.315c6.888,4.191,13.762,6.315,20.44,6.315
						c8.812,0,21.41-3.924,31.381-22.617C116.13,74.378,114.508,68.976,110.203,66.643z M72.421,62.75l0.448-1.088l5.215-2.171
						c-0.429,0.622-0.863,1.224-1.302,1.801C75.297,61.684,73.842,62.171,72.421,62.75z M55.298,64.52l-1.182-2.866
						c0.029-0.046,0.063-0.088,0.085-0.14l1.966-4.724c0.499,3.2,0.627,6.157,0.596,8.583C56.28,65.076,55.792,64.791,55.298,64.52z
						 M56.451,47.85c0-0.707,0.025-1.406,0.063-2.098l4.899,4.659v7.284l-3.716-3.716c-0.314-1.474-0.71-2.984-1.206-4.507
						C56.468,48.935,56.451,48.396,56.451,47.85z M58.285,35.737l3.128,3.31v8.603l-4.671-4.442
						C57.062,40.534,57.618,38.01,58.285,35.737z M68.058,42.989l-4.645,4.597v-8.788l3.112-3.112
						C67.182,37.91,67.732,40.375,68.058,42.989z M68.376,47.85c0,0.543-0.017,1.081-0.04,1.615
						c-0.617,1.894-1.077,3.767-1.42,5.577l-3.502,3.502v-8.145l4.885-4.834C68.344,46.318,68.376,47.078,68.376,47.85z
						 M66.142,61.248c-0.886,2.745-1.886,5.064-2.729,6.801v-6.722c0.043-0.031,0.093-0.049,0.132-0.088l2.857-2.857
						C66.285,59.372,66.201,60.328,66.142,61.248z M61.413,68.056c-0.841-1.732-1.84-4.044-2.725-6.783
						c-0.077-1.226-0.204-2.522-0.391-3.866l3.115,3.115V68.056z M63.413,35.969v-8.32c0.748,1.541,1.618,3.545,2.425,5.895
						L63.413,35.969z M61.413,36.135l-2.431-2.573c0.808-2.358,1.682-4.368,2.431-5.913V36.135z M68.065,64.883
						c-0.01-2.328,0.138-5.09,0.602-8.076l1.959,4.706c0.021,0.05,0.06,0.086,0.088,0.132l-0.957,2.321
						C69.186,64.256,68.622,64.562,68.065,64.883z M79.888,56.657c-0.125,0.001-0.251,0.023-0.373,0.073l-5.567,2.317l2.776-6.734
						l6.306-2.441c-0.228,0.655-0.472,1.31-0.741,1.964C81.585,53.544,80.767,55.149,79.888,56.657z M77.611,36.75l1.691,4.064
						l-3.349,8.124l-2.542-6.02C74.708,40.627,76.156,38.557,77.611,36.75z M85.4,31.27c0.104,1.714,0.145,3.906-0.006,6.394
						l-3.229,1.452L85.4,31.27z M83.788,47.435l-6.012,2.327l3.279-7.954l4.154-1.868C84.96,42.296,84.512,44.84,83.788,47.435z
						 M83.551,30.508l-3.171,7.692l-1.318-3.166C80.704,33.168,82.273,31.648,83.551,30.508z M72.206,45.208l2.674,6.332
						l-3.104,7.53l-2.412-5.796c0.468-1.969,1.075-3.979,1.9-5.982C71.558,46.579,71.876,45.888,72.206,45.208z M52.621,45.209
						c0.335,0.693,0.656,1.387,0.942,2.083c0.823,1.996,1.44,4.003,1.908,5.965l-2.42,5.814l-3.104-7.53L52.621,45.209z
						 M39.427,31.27l3.235,7.846l-3.228-1.452C39.282,35.175,39.323,32.984,39.427,31.27z M39.618,39.94l4.154,1.868l3.279,7.954
						l-6.012-2.327C40.316,44.841,39.867,42.296,39.618,39.94z M41.797,49.873l6.305,2.44l2.776,6.734l-5.567-2.317
						c-0.123-0.051-0.25-0.073-0.375-0.074c-0.879-1.506-1.694-3.113-2.398-4.819C42.269,51.183,42.026,50.528,41.797,49.873z
						 M46.74,59.491l5.217,2.171l0.624,1.513c-1.401-0.622-2.838-1.15-4.306-1.585C47.758,60.922,47.244,60.222,46.74,59.491z
						 M112.055,77.742c-9.506,17.82-21.353,21.561-29.618,21.561c-6.469,0-13.168-2.132-19.911-6.338
						c-0.162-0.101-0.346-0.151-0.529-0.151c-0.184,0-0.368,0.051-0.53,0.152c-4.626,2.892-11.835,6.338-19.9,6.338
						c-8.264,0-20.112-3.741-29.627-21.561c-1.784-3.34-0.526-7.53,2.805-9.34c4.339-2.356,13.115-6.309,23.133-6.309
						c8.787,0,16.893,3.19,23.442,9.226c0.383,0.353,0.973,0.353,1.355,0c6.549-6.036,14.658-9.226,23.452-9.226
						c10.009,0,18.784,3.953,23.123,6.309c0,0,0,0,0,0C112.589,70.211,113.848,74.4,112.055,77.742z"/>
					<path class="st0" d="M100.056,76.304c-0.371-1.222-1.276-2.162-2.487-2.578c-3.98-1.355-7.833-2.043-11.453-2.043
						c-6.494,0-12.2,2.247-16.96,6.677c-1.18,1.097-1.732,2.646-1.515,4.252c0.215,1.594,1.192,2.987,2.61,3.725
						c4.24,2.233,8.34,3.365,12.186,3.365c5.078,0,9.765-2.15,13.979-6.392c0.047-0.048,0.095-0.091,0.143-0.139
						c0.119-0.122,0.236-0.254,0.355-0.379c0.856-0.903,1.694-1.886,2.51-2.965c0,0,0-0.001,0.001-0.001c0,0,0,0,0-0.001
						c0.083-0.109,0.135-0.232,0.205-0.347c0.093-0.152,0.201-0.299,0.271-0.459C100.274,78.172,100.334,77.221,100.056,76.304z
						 M71.179,84.566c-0.858-0.447-1.425-1.257-1.556-2.221c-0.128-0.953,0.197-1.872,0.895-2.52
						c4.441-4.133,9.543-6.142,15.599-6.142c3.399,0,7.036,0.651,10.805,1.936c0.593,0.204,1.038,0.666,1.221,1.267
						c0.182,0.601,0.069,1.232-0.312,1.732c0,0.001-0.001,0.001-0.002,0.002c-4.554,6.027-9.732,9.083-15.392,9.083
						C78.919,87.702,75.132,86.648,71.179,84.566z"/>
					<path class="st0" d="M107.827,71.035c0,0-0.001-0.001-0.002-0.001c-6.603-3.585-29.175-13.646-45.828,5.27
						c-16.642-18.917-39.216-8.856-45.82-5.269c-1.879,1.027-2.594,3.402-1.593,5.299C20.387,87.2,27.593,93.707,36.003,95.673
						c1.861,0.435,3.705,0.627,5.51,0.626c8.448,0,16.047-4.195,20.484-7.274c5.385,3.737,15.425,9.119,25.994,6.647
						c8.41-1.966,15.616-8.473,21.417-19.338C110.421,74.443,109.712,72.065,107.827,71.035z M107.644,75.391
						c-5.519,10.337-12.285,16.505-20.109,18.334c-10.193,2.384-20.012-3.198-24.957-6.737c-0.349-0.249-0.815-0.249-1.164,0
						c-4.945,3.54-14.764,9.118-24.957,6.737c-7.824-1.829-14.59-7.998-20.107-18.331c-0.492-0.931-0.14-2.1,0.783-2.604
						c4.306-2.339,12.083-5.76,20.719-5.76c7.729,0,16.146,2.741,23.374,11.45c0.19,0.229,0.472,0.361,0.77,0.361
						s0.579-0.132,0.77-0.361c15.314-18.439,35.945-10.122,44.103-5.69C107.794,73.297,108.141,74.463,107.644,75.391z"/>
					<path class="st0" d="M37.877,71.683c-3.612,0-7.462,0.688-11.445,2.044c-1.206,0.415-2.111,1.353-2.484,2.573
						c-0.373,1.222-0.147,2.507,0.622,3.525c4.952,6.554,10.671,9.877,16.998,9.877c0.961,0,1.939-0.071,2.93-0.212
						c0.09-0.013,0.181-0.034,0.272-0.048c1.898-0.294,3.845-0.835,5.832-1.638c0.274-0.111,0.551-0.239,0.827-0.36
						c0.247-0.108,0.493-0.207,0.741-0.322c0.484-0.225,0.971-0.469,1.458-0.724c0.042-0.022,0.083-0.04,0.124-0.062l0,0
						c0.001,0,0.001-0.001,0.002-0.001c0.104-0.055,0.201-0.12,0.3-0.181c0.069-0.043,0.142-0.08,0.209-0.126
						c0.067-0.046,0.127-0.1,0.191-0.15c0.092-0.07,0.187-0.137,0.273-0.214c0.023-0.02,0.042-0.044,0.064-0.064
						c0.699-0.641,1.207-1.474,1.448-2.404c0.05-0.192,0.088-0.388,0.115-0.587c0.215-1.606-0.337-3.156-1.516-4.251
						C50.01,73.867,44.462,71.683,37.877,71.683z M26.165,78.62c-0.378-0.5-0.489-1.133-0.305-1.735
						c0.184-0.601,0.629-1.063,1.219-1.266c3.772-1.285,7.405-1.937,10.798-1.937c6.056,0,11.158,2.009,15.599,6.142
						c0.523,0.486,0.837,1.124,0.908,1.815c0.023,0.23,0.02,0.467-0.012,0.705c-0.129,0.964-0.693,1.774-1.548,2.221
						c-0.001,0-0.002,0.001-0.002,0.001c-3.95,2.08-7.736,3.135-11.254,3.135C35.9,87.702,30.718,84.647,26.165,78.62z"/>
				</g>
			</g>
		</g>
	</g>
</g>
</svg>
