<?xml version="1.0" encoding="utf-8"?>
<!-- Generator: Adobe Illustrator 22.0.1, SVG Export Plug-In . SVG Version: 6.00 Build 0)  -->
<svg version="1.1" id="Layer_1" xmlns="http://www.w3.org/2000/svg" xmlns:xlink="http://www.w3.org/1999/xlink" x="0px" y="0px"
	 viewBox="0 0 128 128" style="enable-background:new 0 0 128 128;" xml:space="preserve">
<style type="text/css">
	.st0{fill:#3A2C60;}
	.st1{fill:#E6E7E8;}
	.st2{fill:#6DC9F7;}
	.st3{fill:#FFFFFF;}
	.st4{fill:#FA759E;}
	.st5{fill:#FFD7E5;}
	.st6{fill:#D4FBFF;}
	.st7{fill:#0089EF;}
</style>
<g>
	<g>
		<path class="st1" d="M79.812,58.173c-0.467,0-0.91,0.099-1.313,0.274V28.025c0.911-0.142,1.709-0.656,2.183-1.476
			c0.556-0.963,0.556-2.113,0-3.076L71.658,7.842c-0.556-0.963-1.552-1.539-2.664-1.539s-2.108,0.575-2.664,1.539l-9.025,15.632
			c-0.556,0.963-0.556,2.113,0,3.076c0.473,0.819,1.272,1.333,2.183,1.476V73.53c0,1.943,0.905,3.676,2.313,4.808v2.142
			c0,2.06,1.675,3.734,3.735,3.734h2.358c-1.18,2.703-3.027,8.449,0.59,12.066c1.449,1.449,1.605,3.288,0.479,5.623
			c-0.077,0.16-0.162,0.312-0.246,0.465c-0.442-0.175-0.921-0.279-1.425-0.279c-2.147,0-3.894,1.747-3.894,3.894
			s1.747,3.894,3.894,3.894s3.894-1.747,3.894-3.894c0-0.911-0.327-1.738-0.853-2.402c0.736-1.286,1.362-2.851,1.364-4.47
			c0.002-1.621-0.604-3.049-1.799-4.245c-3.127-3.127-0.642-8.929,0.204-10.652h2.352c2.06,0,3.735-1.675,3.735-3.734v-2.142
			c0.109-0.088,0.213-0.182,0.316-0.277v34.307c0,1.824,1.484,3.309,3.309,3.309s3.309-1.484,3.309-3.309V61.481
			C83.121,59.657,81.637,58.173,79.812,58.173z"/>
		<path class="st1" d="M67.291,111.697c-0.552,0-1,0.447-1,1v2c0,0.553,0.448,1,1,1s1-0.447,1-1v-2
			C68.291,112.144,67.844,111.697,67.291,111.697z"/>
		<path class="st1" d="M67.291,116.697c-0.552,0-1,0.447-1,1v2c0,0.553,0.448,1,1,1s1-0.447,1-1v-2
			C68.291,117.144,67.844,116.697,67.291,116.697z"/>
		<path class="st1" d="M67.291,121.697c-0.552,0-1,0.447-1,1v2c0,0.553,0.448,1,1,1s1-0.447,1-1v-2
			C68.291,122.144,67.844,121.697,67.291,121.697z"/>
		<path class="st1" d="M74.667,114.401c-0.37-0.409-1.003-0.438-1.413-0.068c-0.409,0.371-0.439,1.004-0.068,1.412l1.345,1.48
			c0.197,0.218,0.468,0.328,0.741,0.328c0.24,0,0.48-0.086,0.672-0.26c0.409-0.371,0.439-1.004,0.068-1.412L74.667,114.401z"/>
		<path class="st1" d="M78.028,118.102c-0.371-0.409-1.002-0.438-1.412-0.068c-0.409,0.371-0.44,1.003-0.068,1.412l1.345,1.481
			c0.197,0.218,0.468,0.328,0.741,0.328c0.24,0,0.48-0.086,0.671-0.26c0.409-0.371,0.44-1.003,0.068-1.412L78.028,118.102z"/>
		<path class="st1" d="M71.306,110.699c-0.37-0.409-1.002-0.438-1.413-0.068c-0.409,0.371-0.439,1.004-0.068,1.412l1.344,1.48
			c0.197,0.218,0.468,0.328,0.741,0.328c0.24,0,0.48-0.086,0.672-0.26c0.409-0.371,0.439-1.004,0.068-1.412L71.306,110.699z"/>
		<path class="st1" d="M60.231,114.938l-1.127,1.651c-0.311,0.456-0.194,1.078,0.263,1.39c0.172,0.117,0.369,0.174,0.563,0.174
			c0.319,0,0.633-0.152,0.827-0.437l1.127-1.651c0.311-0.456,0.194-1.078-0.263-1.39C61.165,114.365,60.543,114.481,60.231,114.938z
			"/>
		<path class="st1" d="M57.413,119.068l-1.127,1.652c-0.311,0.456-0.193,1.078,0.263,1.39c0.172,0.117,0.369,0.174,0.563,0.174
			c0.319,0,0.633-0.152,0.827-0.437l1.127-1.652c0.311-0.456,0.193-1.078-0.263-1.39C58.347,118.495,57.724,118.612,57.413,119.068z
			"/>
		<path class="st1" d="M63.049,110.807l-1.127,1.652c-0.311,0.456-0.193,1.078,0.263,1.39c0.172,0.117,0.369,0.174,0.563,0.174
			c0.319,0,0.633-0.152,0.827-0.437l1.127-1.652c0.311-0.456,0.193-1.078-0.263-1.39C63.983,110.235,63.36,110.35,63.049,110.807z"
			/>
		<path class="st1" d="M51.532,109.859l-1.925,0.544c-0.531,0.149-0.84,0.702-0.69,1.233c0.125,0.441,0.525,0.729,0.962,0.729
			c0.09,0,0.182-0.012,0.272-0.038l1.925-0.544c0.531-0.149,0.84-0.702,0.69-1.233S52.066,109.707,51.532,109.859z"/>
		<path class="st1" d="M59.502,109.647c0.09,0,0.182-0.012,0.272-0.038l1.925-0.544c0.531-0.149,0.84-0.702,0.69-1.233
			s-0.7-0.843-1.234-0.69l-1.925,0.544c-0.531,0.149-0.84,0.702-0.69,1.233C58.665,109.36,59.066,109.647,59.502,109.647z"/>
		<path class="st1" d="M57.578,109.189c-0.15-0.53-0.7-0.841-1.234-0.689l-1.924,0.544c-0.532,0.149-0.84,0.702-0.69,1.234
			c0.125,0.44,0.525,0.728,0.962,0.728c0.09,0,0.182-0.012,0.272-0.038l1.924-0.544C57.419,110.274,57.728,109.722,57.578,109.189z"
			/>
	</g>
	<g>
		<g>
			<path class="st6" d="M75.812,55.172c-1.275,0-2.309,1.034-2.309,2.309v50.886c0,1.275,1.034,2.309,2.309,2.309
				s2.309-1.034,2.309-2.309V57.481C78.121,56.206,77.087,55.172,75.812,55.172z"/>
			<path class="st2" d="M68.328,74.702h-6.67c-1.058,0-2.04-0.321-2.859-0.865v2.644c0,1.504,1.231,2.735,2.735,2.735h6.918
				c1.504,0,2.735-1.231,2.735-2.735v-2.644C70.368,74.381,69.386,74.702,68.328,74.702z"/>
			<rect x="56.487" y="23.083" class="st5" width="17.012" height="8.981"/>
			<rect x="56.487" y="32.064" class="st2" width="17.012" height="10.659"/>
			<rect x="56.487" y="42.723" class="st5" width="17.012" height="10.66"/>
			<rect x="56.487" y="53.383" class="st2" width="17.012" height="10.659"/>
			<path class="st5" d="M56.487,64.042v5.488c0,2.856,2.315,5.171,5.171,5.171h6.67c2.856,0,5.171-2.315,5.171-5.171v-5.488H56.487z
				"/>
			<path class="st3" d="M74.022,23.083H55.97c-1.598,0-2.602-1.728-1.803-3.11L63.193,4.34c0.745-1.285,2.537-1.371,3.423-0.259
				c0.065,0.076,0.119,0.162,0.173,0.259l9.026,15.634C76.614,21.356,75.62,23.083,74.022,23.083z"/>
			<path class="st2" d="M74.022,23.083H59.209c-1.598,0-2.602-1.728-1.803-3.11L66.432,4.34c0.054-0.097,0.108-0.183,0.183-0.259
				c0.065,0.076,0.119,0.162,0.173,0.259l9.026,15.634C76.614,21.356,75.62,23.083,74.022,23.083z"/>
			<g>
				<path class="st4" d="M63.291,99.09c-1.598,0-2.894,1.296-2.894,2.894c0,1.598,1.295,2.894,2.894,2.894s2.894-1.295,2.894-2.894
					C66.185,100.386,64.889,99.09,63.291,99.09z"/>
				<g>
					<path class="st0" d="M75.812,54.172c-0.467,0-0.91,0.1-1.313,0.275V41.47c0-0.553-0.448-1-1-1s-1,0.447-1,1V69.53
						c0,1.698-1.023,3.156-2.482,3.806c-0.069,0.031-0.14,0.054-0.21,0.081c-0.165,0.063-0.335,0.117-0.509,0.158
						c-0.074,0.018-0.147,0.036-0.222,0.05c-0.243,0.044-0.492,0.076-0.748,0.076h-6.669c-0.256,0-0.504-0.031-0.747-0.075
						c-0.075-0.014-0.149-0.032-0.224-0.05c-0.173-0.042-0.342-0.095-0.506-0.157c-0.071-0.027-0.144-0.051-0.214-0.082
						c-1.458-0.651-2.481-2.108-2.481-3.806V24.087h15.012v2.883c0,0.553,0.448,1,1,1s1-0.447,1-1v-2.945
						c0.911-0.142,1.71-0.656,2.183-1.475c0.556-0.964,0.556-2.113,0-3.077L67.658,3.841c-0.556-0.963-1.552-1.538-2.664-1.538
						s-2.108,0.575-2.664,1.538l-9.025,15.632c-0.556,0.964-0.556,2.114,0,3.077c0.473,0.818,1.272,1.332,2.183,1.475V69.53
						c0,1.943,0.905,3.676,2.313,4.808v2.141c0,2.06,1.675,3.735,3.735,3.735h2.358c-1.18,2.703-3.027,8.449,0.59,12.066
						c1.449,1.449,1.605,3.288,0.479,5.623c-0.077,0.16-0.163,0.312-0.246,0.465c-0.442-0.175-0.92-0.279-1.424-0.279
						c-2.147,0-3.894,1.747-3.894,3.894s1.747,3.894,3.894,3.894s3.894-1.747,3.894-3.894c0-0.912-0.328-1.74-0.855-2.405
						c0.736-1.285,1.364-2.847,1.366-4.468c0.002-1.621-0.604-3.049-1.799-4.245c-3.127-3.127-0.642-8.929,0.204-10.652h2.352
						c2.06,0,3.735-1.676,3.735-3.735v-2.142c0.109-0.088,0.213-0.182,0.316-0.277v34.306c0,1.825,1.484,3.31,3.309,3.31
						c1.824,0,3.309-1.484,3.309-3.31V57.482C79.121,55.656,77.637,54.172,75.812,54.172z M55.036,21.549
						c-0.093-0.161-0.28-0.59,0-1.076l9.025-15.632c0.28-0.485,0.745-0.538,0.932-0.538s0.651,0.053,0.932,0.538l9.025,15.632
						c0.28,0.485,0.093,0.915,0,1.076c-0.093,0.162-0.371,0.538-0.932,0.538h-0.5c-0.007,0-0.012-0.004-0.019-0.004H56.487
						c-0.007,0-0.013,0.004-0.019,0.004h-0.499C55.408,22.087,55.13,21.711,55.036,21.549z M63.291,103.878
						c-1.044,0-1.894-0.85-1.894-1.894s0.85-1.894,1.894-1.894c1.044,0,1.894,0.85,1.894,1.894S64.335,103.878,63.291,103.878z
						 M70.187,75.414v1.065c0,0.957-0.778,1.735-1.735,1.735h-6.917c-0.957,0-1.735-0.778-1.735-1.735v-1.065
						c0.001,0,0.001,0,0.002,0c0.266,0.084,0.542,0.145,0.822,0.193c0.063,0.01,0.125,0.02,0.188,0.029
						c0.277,0.038,0.559,0.065,0.846,0.065h6.669h0c0,0,0.001,0,0.001,0c0.287,0,0.568-0.027,0.844-0.065
						c0.064-0.009,0.127-0.018,0.19-0.029c0.279-0.047,0.554-0.108,0.82-0.192C70.185,75.415,70.186,75.415,70.187,75.414z
						 M77.121,108.367c0,0.722-0.587,1.31-1.309,1.31s-1.309-0.588-1.309-1.31V57.482c0-0.722,0.587-1.31,1.309-1.31
						s1.309,0.588,1.309,1.31V108.367z"/>
					<path class="st0" d="M73.499,31.064c-0.552,0-1,0.447-1,1v4.406c0,0.553,0.448,1,1,1s1-0.447,1-1v-4.406
						C74.499,31.511,74.052,31.064,73.499,31.064z"/>
					<path class="st0" d="M63.291,112.696c-0.552,0-1,0.447-1,1v2c0,0.553,0.448,1,1,1s1-0.447,1-1v-2
						C64.291,113.144,63.844,112.696,63.291,112.696z"/>
					<path class="st0" d="M63.291,107.696c-0.552,0-1,0.447-1,1v2c0,0.553,0.448,1,1,1s1-0.447,1-1v-2
						C64.291,108.144,63.844,107.696,63.291,107.696z"/>
					<path class="st0" d="M63.291,117.696c-0.552,0-1,0.447-1,1v2c0,0.553,0.448,1,1,1s1-0.447,1-1v-2
						C64.291,118.144,63.844,117.696,63.291,117.696z"/>
					<path class="st0" d="M67.307,106.698c-0.37-0.409-1.002-0.438-1.413-0.068c-0.409,0.371-0.439,1.004-0.068,1.412l1.344,1.48
						c0.197,0.218,0.468,0.328,0.741,0.328c0.24,0,0.48-0.086,0.672-0.26c0.409-0.371,0.439-1.004,0.068-1.412L67.307,106.698z"/>
					<path class="st0" d="M74.028,114.103c-0.371-0.409-1.002-0.438-1.413-0.068c-0.409,0.371-0.439,1.004-0.068,1.412l1.344,1.48
						c0.197,0.218,0.468,0.328,0.741,0.328c0.24,0,0.48-0.086,0.672-0.26c0.409-0.371,0.439-1.004,0.068-1.412L74.028,114.103z"/>
					<path class="st0" d="M70.667,110.401c-0.37-0.409-1.002-0.438-1.413-0.068c-0.409,0.371-0.439,1.004-0.068,1.412l1.344,1.48
						c0.197,0.218,0.468,0.328,0.741,0.328c0.24,0,0.48-0.086,0.672-0.26c0.409-0.371,0.439-1.004,0.068-1.412L70.667,110.401z"/>
					<path class="st0" d="M56.231,110.938l-1.127,1.652c-0.311,0.456-0.194,1.078,0.263,1.39c0.172,0.117,0.369,0.174,0.563,0.174
						c0.319,0,0.633-0.152,0.827-0.437l1.127-1.652c0.311-0.456,0.194-1.078-0.263-1.39
						C57.165,110.365,56.543,110.481,56.231,110.938z"/>
					<path class="st0" d="M53.413,115.068l-1.127,1.652c-0.311,0.456-0.193,1.078,0.263,1.39c0.172,0.117,0.369,0.174,0.563,0.174
						c0.319,0,0.633-0.152,0.827-0.437l1.127-1.652c0.311-0.456,0.193-1.078-0.263-1.39
						C54.347,114.495,53.725,114.611,53.413,115.068z"/>
					<path class="st0" d="M59.049,106.807l-1.127,1.652c-0.311,0.456-0.193,1.078,0.263,1.39c0.172,0.117,0.369,0.174,0.563,0.174
						c0.319,0,0.633-0.152,0.827-0.437l1.127-1.652c0.311-0.456,0.193-1.078-0.263-1.39
						C59.983,106.234,59.36,106.351,59.049,106.807z"/>
					<path class="st0" d="M55.502,105.647c0.09,0,0.181-0.012,0.272-0.037l1.925-0.543c0.532-0.15,0.841-0.703,0.691-1.234
						c-0.15-0.53-0.7-0.84-1.234-0.691l-1.925,0.543c-0.532,0.15-0.841,0.703-0.691,1.234
						C54.665,105.359,55.066,105.647,55.502,105.647z"/>
					<path class="st0" d="M47.532,105.859l-1.925,0.544c-0.531,0.149-0.84,0.702-0.69,1.233c0.125,0.441,0.525,0.729,0.962,0.729
						c0.09,0,0.182-0.012,0.272-0.038l1.925-0.544c0.531-0.149,0.84-0.702,0.69-1.233C48.617,106.017,48.066,105.704,47.532,105.859
						z"/>
					<path class="st0" d="M53.578,105.191c-0.15-0.531-0.7-0.842-1.234-0.69l-1.925,0.544c-0.531,0.149-0.84,0.702-0.69,1.233
						c0.125,0.441,0.525,0.729,0.962,0.729c0.09,0,0.182-0.012,0.272-0.038l1.925-0.544
						C53.419,106.275,53.728,105.722,53.578,105.191z"/>
				</g>
			</g>
		</g>
	</g>
</g>
</svg>
