<?xml version="1.0" encoding="utf-8"?>
<!-- Generator: Adobe Illustrator 22.0.1, SVG Export Plug-In . SVG Version: 6.00 Build 0)  -->
<svg version="1.1" id="Layer_1" xmlns="http://www.w3.org/2000/svg" xmlns:xlink="http://www.w3.org/1999/xlink" x="0px" y="0px"
	 viewBox="0 0 128 128" style="enable-background:new 0 0 128 128;" xml:space="preserve">
<style type="text/css">
	.st0{fill:#3A2C60;}
	.st1{fill:#E6E7E8;}
	.st2{fill:#6DC9F7;}
	.st3{fill:#FFFFFF;}
	.st4{fill:#FA759E;}
	.st5{fill:#FFD7E5;}
	.st6{fill:#D4FBFF;}
	.st7{fill:#0089EF;}
</style>
<g>
	<path class="st1" d="M101.854,18.581H58.263c-4.614,0-8.368,3.754-8.368,8.368v0.58H30.138c-4.609,0-8.359,3.755-8.359,8.37v69.149
		c0,4.615,3.75,8.37,8.359,8.37h43.601c4.609,0,8.359-3.755,8.359-8.37v-0.581h19.756c4.614,0,8.368-3.754,8.368-8.368v-69.15
		C110.222,22.335,106.468,18.581,101.854,18.581z"/>
	<g>
		<path class="st3" d="M54.263,99.468c-4.07,0-7.369-3.299-7.369-7.369V24.53H26.143c-4.07,0-7.369,3.299-7.369,7.369v69.15
			c0,4.07,3.299,7.369,7.369,7.369h43.591c4.07,0,7.369-3.299,7.369-7.369v-1.581H54.263z"/>
		<path class="st2" d="M54.263,99.468c-4.07,0-7.369-3.299-7.369-7.369v-67.57H29.138c-4.06,0-7.36,3.3-7.36,7.37v69.15
			c0,4.07,3.3,7.37,7.36,7.37h40.6c4.06,0,7.36-3.3,7.36-7.37v-1.581H54.263z"/>
		<path class="st3" d="M97.853,15.581H54.263c-4.07,0-7.369,3.299-7.369,7.369v69.15c0,4.07,3.299,7.369,7.369,7.369h43.591
			c4.07,0,7.369-3.299,7.369-7.369v-69.15C105.222,18.88,101.923,15.581,97.853,15.581z"/>
		<g>
			<g>
				<path class="st0" d="M97.853,14.581h-43.59c-4.614,0-8.369,3.754-8.369,8.369v0.58H26.138c-4.61,0-8.36,3.754-8.36,8.37v69.15
					c0,4.615,3.75,8.37,8.36,8.37h43.6c4.61,0,8.36-3.754,8.36-8.37v-0.581h19.755c4.614,0,8.369-3.754,8.369-8.369V22.95
					C106.222,18.335,102.468,14.581,97.853,14.581z M104.222,92.1c0,3.512-2.857,6.369-6.369,6.369h-43.59
					c-3.512,0-6.369-2.857-6.369-6.369V56.615c0-0.552-0.448-1-1-1s-1,0.448-1,1V92.1c0,4.614,3.754,8.369,8.369,8.369h21.835v0.581
					c0,3.512-2.853,6.37-6.36,6.37h-43.6c-3.507,0-6.36-2.857-6.36-6.37v-69.15c0-3.512,2.853-6.37,6.36-6.37h19.756v17.52
					c0,0.552,0.448,1,1,1s1-0.448,1-1V22.95c0-3.512,2.857-6.369,6.369-6.369h43.59c3.512,0,6.369,2.857,6.369,6.369V92.1z"/>
				<path class="st0" d="M46.894,45.874c-0.552,0-1,0.448-1,1v5.974c0,0.552,0.448,1,1,1s1-0.448,1-1v-5.974
					C47.894,46.322,47.447,45.874,46.894,45.874z"/>
			</g>
			<polygon class="st4" points="76.058,43.048 65.115,57.524 76.058,72.001 87.001,57.524 			"/>
			<g>
				<polygon class="st4" points="95.793,79.946 90.321,87.184 95.793,94.422 101.264,87.184 				"/>
				<polygon class="st4" points="56.324,20.626 50.852,27.865 56.324,35.103 61.795,27.865 				"/>
			</g>
		</g>
	</g>
</g>
</svg>
