<?xml version="1.0" encoding="utf-8"?>
<!-- Generator: Adobe Illustrator 22.0.1, SVG Export Plug-In . SVG Version: 6.00 Build 0)  -->
<svg version="1.1" id="Layer_1" xmlns="http://www.w3.org/2000/svg" xmlns:xlink="http://www.w3.org/1999/xlink" x="0px" y="0px"
	 viewBox="0 0 128 128" style="enable-background:new 0 0 128 128;" xml:space="preserve">
<style type="text/css">
	.st0{fill:#3A2C60;}
	.st1{fill:#E6E7E8;}
	.st2{fill:#6DC9F7;}
	.st3{fill:#FFFFFF;}
	.st4{fill:#FA759E;}
	.st5{fill:#FFD7E5;}
	.st6{fill:#D4FBFF;}
	.st7{fill:#0089EF;}
</style>
<g>
	<g>
		<circle class="st1" cx="66" cy="65.424" r="7.837"/>
		<path class="st1" d="M107.725,105.878H92.466h-4.356h-8.84c-1.389,0-2.519-1.129-2.519-2.518V84.068h0.479
			c8.304,0,15.282-5.705,17.273-13.395c5.511-1.263,9.638-6.197,9.638-12.086c0-6.505-5.033-11.846-11.408-12.358V17.376
			c0-0.552-0.447-1-1-1s-1,0.448-1,1v28.853c-6.375,0.512-11.408,5.853-11.408,12.358c0,4.773,2.713,8.918,6.674,10.993
			c-1.36,3.522-4.772,6.032-8.769,6.032H54.77c-3.996,0-7.409-2.51-8.769-6.032c3.961-2.075,6.674-6.22,6.674-10.993
			c0-6.505-5.033-11.846-11.408-12.358V17.376c0-0.552-0.447-1-1-1s-1,0.448-1,1v28.853c-6.375,0.512-11.408,5.853-11.408,12.358
			c0,5.889,4.127,10.822,9.638,12.086c1.99,7.691,8.968,13.395,17.273,13.395h0.479v19.292c0,1.389-1.13,2.518-2.519,2.518H24.275
			c-2.716,0-4.949,2.026-5.085,4.612c-0.07,1.352,0.402,2.635,1.331,3.614c0.916,0.965,2.205,1.519,3.535,1.519h83.887
			c1.33,0,2.619-0.554,3.535-1.519c0.929-0.979,1.401-2.263,1.331-3.614C112.674,107.904,110.44,105.878,107.725,105.878z
			 M86.56,58.587c0-2.853,2.32-5.173,5.172-5.173c2.853,0,5.173,2.32,5.173,5.173c0,1.565-0.713,2.953-1.815,3.902v-0.643
			c0-1.192-0.507-2.335-1.392-3.136c-0.884-0.8-2.071-1.191-3.269-1.071c-1.604,0.161-2.945,1.297-3.509,2.809
			C86.696,59.87,86.56,59.245,86.56,58.587z M45.079,60.449c-0.564-1.512-1.904-2.648-3.509-2.809
			c-1.197-0.121-2.385,0.271-3.269,1.071c-0.885,0.8-1.392,1.943-1.392,3.136v0.643c-1.102-0.949-1.815-2.337-1.815-3.902
			c0-2.853,2.32-5.173,5.173-5.173c2.852,0,5.172,2.32,5.172,5.173C45.439,59.245,45.304,59.87,45.079,60.449z"/>
	</g>
	<g>
		<circle class="st2" cx="62" cy="61.424" r="6.837"/>
		<g>
			<path class="st4" d="M87.733,65.995c-6.291,0-11.408-5.117-11.408-11.408s5.117-11.408,11.408-11.408
				c6.291,0,11.408,5.117,11.408,11.408S94.023,65.995,87.733,65.995z M87.733,48.415c-3.403,0-6.173,2.769-6.173,6.173
				c0,3.403,2.769,6.173,6.173,6.173s6.173-2.769,6.173-6.173C93.905,51.184,91.136,48.415,87.733,48.415z"/>
			<g>
				<path class="st4" d="M36.267,65.995c-6.291,0-11.408-5.117-11.408-11.408s5.117-11.408,11.408-11.408
					s11.408,5.117,11.408,11.408S42.558,65.995,36.267,65.995z M36.267,48.415c-3.403,0-6.173,2.769-6.173,6.173
					c0,3.403,2.769,6.173,6.173,6.173s6.173-2.769,6.173-6.173C42.44,51.184,39.671,48.415,36.267,48.415z"/>
			</g>
		</g>
		<path class="st2" d="M103.724,102.878l-28.455,0c-1.943,0-3.518-1.575-3.518-3.518V79.068h1.478
			c9.312,0,16.861-7.549,16.861-16.861v-4.361c0-1.893-1.629-3.405-3.561-3.211c-1.68,0.168-2.895,1.707-2.895,3.396v4.177
			c0,5.746-4.658,10.404-10.404,10.404h-1.478v0H52.248v0H50.77c-5.746,0-10.404-4.658-10.404-10.404v-4.177
			c0-1.689-1.215-3.227-2.895-3.396c-1.932-0.194-3.561,1.319-3.561,3.211v4.361c0,9.312,7.549,16.861,16.861,16.861h1.478V99.36
			c0,1.943-1.575,3.518-3.518,3.518l-28.455,0c-2.097,0-3.977,1.57-4.086,3.664c-0.117,2.233,1.659,4.081,3.867,4.081h83.887
			c2.208,0,3.984-1.848,3.867-4.081C107.701,104.449,105.821,102.878,103.724,102.878z"/>
		<path class="st3" d="M103.943,107.624H20.057c-1.596,0-2.956-0.973-3.548-2.352c-0.174,0.394-0.295,0.817-0.319,1.271
			c-0.117,2.233,1.659,4.081,3.867,4.081h83.887c2.208,0,3.984-1.848,3.867-4.081c-0.024-0.454-0.144-0.877-0.319-1.271
			C106.899,106.651,105.54,107.624,103.943,107.624z"/>
		<g>
			<path class="st0" d="M62,69.261c4.321,0,7.837-3.516,7.837-7.837S66.321,53.587,62,53.587s-7.837,3.516-7.837,7.837
				S57.679,69.261,62,69.261z M62,55.587c3.219,0,5.837,2.619,5.837,5.837S65.219,67.261,62,67.261
				c-3.219,0-5.837-2.619-5.837-5.837S58.781,55.587,62,55.587z"/>
			<path class="st0" d="M84.109,101.878c-0.553,0-1,0.448-1,1s0.447,1,1,1h4.356c0.553,0,1-0.448,1-1s-0.447-1-1-1H84.109z"/>
			<path class="st0" d="M103.724,101.878H92.466c-0.553,0-1,0.448-1,1s0.447,1,1,1h11.258c1.624,0,3.01,1.219,3.088,2.716
				c0.042,0.798-0.236,1.556-0.784,2.133c-0.548,0.578-1.288,0.896-2.084,0.896H20.057c-0.796,0-1.536-0.318-2.084-0.896
				c-0.548-0.577-0.826-1.334-0.784-2.133c0.078-1.498,1.463-2.716,3.087-2.716h28.455c2.491,0,4.518-2.027,4.518-4.518V79.068
				c0-0.552-0.447-1-1-1h-1.478c-8.746,0-15.861-7.115-15.861-15.86v-4.361c0-0.628,0.268-1.23,0.733-1.653
				c0.473-0.428,1.078-0.627,1.729-0.563c1.118,0.112,1.994,1.167,1.994,2.4v4.177c0,6.289,5.116,11.404,11.405,11.404H73.23
				c6.288,0,11.404-5.116,11.404-11.404v-4.177c0-1.234,0.876-2.289,1.995-2.4c0.631-0.065,1.254,0.136,1.727,0.563
				c0.467,0.422,0.734,1.024,0.734,1.653v4.361c0,8.746-7.115,15.86-15.86,15.86h-1.479c-0.553,0-1,0.448-1,1V99.36
				c0,2.491,2.027,4.518,4.519,4.518h4.663c0.553,0,1-0.448,1-1s-0.447-1-1-1H75.27c-1.389,0-2.519-1.129-2.519-2.518V80.068h0.479
				c8.306,0,15.286-5.708,17.274-13.401c5.51-1.263,9.637-6.192,9.637-12.08c0-6.505-5.033-11.846-11.408-12.358V13.376
				c0-0.552-0.447-1-1-1s-1,0.448-1,1v28.853c-6.375,0.512-11.408,5.853-11.408,12.358c0,4.773,2.711,8.922,6.672,10.997
				c-1.361,3.52-4.773,6.028-8.767,6.028H50.771c-3.995,0-7.407-2.507-8.768-6.027c3.962-2.075,6.673-6.224,6.673-10.998
				c0-6.505-5.033-11.846-11.408-12.358V13.376c0-0.552-0.447-1-1-1s-1,0.448-1,1v28.853c-6.376,0.512-11.409,5.853-11.409,12.358
				c0,5.888,4.126,10.817,9.637,12.08c1.989,7.693,8.969,13.401,17.275,13.401h0.478V99.36c0,1.389-1.129,2.518-2.518,2.518H20.275
				c-2.716,0-4.949,2.026-5.085,4.612c-0.07,1.352,0.402,2.635,1.331,3.614c0.916,0.965,2.205,1.519,3.535,1.519h83.887
				c1.33,0,2.619-0.554,3.535-1.519c0.929-0.979,1.401-2.263,1.331-3.615C108.673,103.904,106.44,101.878,103.724,101.878z
				 M86.43,53.64c-1.6,0.16-2.938,1.29-3.505,2.795c-0.228-0.574-0.365-1.192-0.365-1.848c0-2.853,2.32-5.173,5.173-5.173
				s5.173,2.32,5.173,5.173c0,1.564-0.711,2.95-1.815,3.894v-0.634c0-1.192-0.508-2.335-1.392-3.136
				C88.815,53.911,87.628,53.52,86.43,53.64z M77.324,54.587c0-5.739,4.669-10.409,10.408-10.409s10.408,4.669,10.408,10.409
				c0,4.624-3.034,8.545-7.213,9.897c0.096-0.747,0.162-1.504,0.162-2.277v-1.293c2.267-1.205,3.815-3.586,3.815-6.328
				c0-3.955-3.218-7.173-7.173-7.173s-7.173,3.218-7.173,7.173c0,1.957,0.798,3.723,2.074,5.017v2.604
				c0,0.466-0.045,0.921-0.111,1.37C79.421,61.775,77.324,58.426,77.324,54.587z M37.57,53.64c-1.197-0.122-2.386,0.271-3.27,1.071
				c-0.885,0.801-1.392,1.943-1.392,3.136v0.634c-1.104-0.944-1.814-2.329-1.814-3.893c0-2.853,2.32-5.173,5.173-5.173
				c2.852,0,5.172,2.32,5.172,5.173c0,0.656-0.137,1.274-0.365,1.848C40.508,54.93,39.17,53.8,37.57,53.64z M25.859,54.587
				c0-5.739,4.67-10.409,10.409-10.409s10.408,4.669,10.408,10.409c0,3.839-2.097,7.188-5.199,8.991
				c-0.066-0.449-0.111-0.904-0.111-1.37v-2.603c1.276-1.294,2.074-3.06,2.074-5.017c0-3.955-3.217-7.173-7.172-7.173
				s-7.173,3.218-7.173,7.173c0,2.741,1.549,5.121,3.814,6.327v1.294c0,0.773,0.066,1.529,0.162,2.276
				C28.892,63.131,25.859,59.211,25.859,54.587z"/>
		</g>
	</g>
</g>
</svg>
