<?xml version="1.0" encoding="utf-8"?>
<!-- Generator: Adobe Illustrator 22.0.1, SVG Export Plug-In . SVG Version: 6.00 Build 0)  -->
<svg version="1.1" id="Layer_1" xmlns="http://www.w3.org/2000/svg" xmlns:xlink="http://www.w3.org/1999/xlink" x="0px" y="0px"
	 viewBox="0 0 128 128" style="enable-background:new 0 0 128 128;" xml:space="preserve">
<style type="text/css">
	.st0{fill:#3A2C60;}
	.st1{fill:#E6E7E8;}
	.st2{fill:#6DC9F7;}
	.st3{fill:#FFFFFF;}
	.st4{fill:#FA759E;}
	.st5{fill:#FFD7E5;}
	.st6{fill:#D4FBFF;}
	.st7{fill:#0089EF;}
</style>
<g>
	<path class="st1" d="M122.36,114.723h-3.26v-4.22c0-2.138-1.739-3.877-3.877-3.877h-0.002c0.005-0.04,0.024-0.076,0.024-0.117
		v-68.92v-1.838c0-11.289-9.185-20.474-20.474-20.474s-20.473,9.185-20.473,20.474v7.867h-3.244c-0.552,0-1,0.447-1,1v5.215h-2.268
		v-5.215c0-0.553-0.448-1-1-1h-2.25v-3.556c0-0.553-0.448-1-1-1c-0.552,0-1,0.447-1,1v3.556h-7.822c-0.552,0-1,0.447-1,1v5.215
		h-2.268v-5.215c0-0.553-0.448-1-1-1h-2.092v-3.556c0-0.553-0.448-1-1-1s-1,0.447-1,1v3.556h-3.287
		c-3.139,0-5.692,2.554-5.692,5.692v0.751c-12.188,1.636-21.62,12.131-21.62,24.802c0,1.436,0.129,2.842,0.363,4.212
		c-0.003,0.032-0.019,0.06-0.019,0.093v27.34c0,0.085,0.028,0.161,0.048,0.24c-1.692,0.416-2.956,1.936-2.956,3.754v4.22H9.639
		c-0.552,0-1,0.447-1,1s0.448,1,1,1h4.553h103.909h4.26c0.552,0,1-0.447,1-1S122.913,114.723,122.36,114.723z M66.672,99.807h22.287
		v6.702c0,0.042,0.019,0.077,0.024,0.117H66.648c0.005-0.04,0.024-0.076,0.024-0.117V99.807z M40.385,58.077v8.161
		c-2.317,1.881-3.803,4.749-3.803,7.959s1.486,6.078,3.803,7.959v9.405c-9.07-0.17-16.401-7.627-16.401-16.786
		C23.984,65.665,31.315,58.246,40.385,58.077z M42.385,83.419c1.348,0.653,2.853,1.03,4.448,1.03h17.839v7.129H42.385V83.419z
		 M88.959,91.577H66.672v-7.129h22.287V91.577z M90.959,84.448h6.131c1.965,0,3.564,1.599,3.564,3.564s-1.599,3.564-3.564,3.564
		h-6.131V84.448z M57.914,63.946H46.833c-1.595,0-3.1,0.377-4.448,1.03v-6.914h28.098C67.382,61.777,62.809,63.946,57.914,63.946z
		 M46.833,76.219c-1.115,0-2.021-0.907-2.021-2.021s0.907-2.021,2.021-2.021h11.081c2.323,0,4.592-0.333,6.758-0.954v4.997H46.833z
		 M88.959,24.978v24.855h-4.833v-0.969c0-1.474-0.616-2.803-1.598-3.757v-9.357C82.527,31.102,85.132,27.051,88.959,24.978z
		 M107.016,37.589c0,6.751-5.493,12.244-12.245,12.244h-3.813v-25.71c1.201-0.395,2.481-0.616,3.813-0.616
		c6.752,0,12.245,5.493,12.245,12.244V37.589z M66.672,76.219v-5.665c5.843-2.232,10.737-6.647,13.502-12.493h8.785v18.157H66.672z
		 M42.385,106.509v-6.702h22.287v6.702c0,0.042,0.019,0.077,0.024,0.117H42.362C42.367,106.586,42.385,106.55,42.385,106.509z
		 M113.268,106.626H90.935c0.005-0.04,0.024-0.076,0.024-0.117v-6.702h6.131c6.503,0,11.794-5.291,11.794-11.794
		s-5.291-11.794-11.794-11.794h-6.131V58.062h3.813c8.149,0,15.181-4.797,18.474-11.706v60.153
		C113.245,106.55,113.263,106.586,113.268,106.626z M40.385,99.799v6.71c0,0.042,0.019,0.077,0.024,0.117H18.076
		c0.005-0.04,0.024-0.076,0.024-0.117V85.405C22.038,93.814,30.531,99.677,40.385,99.799z"/>
	<g>
		<g>
			<path class="st2" d="M90.771,12.277c-10.738,0-19.473,8.735-19.473,19.473v11.811c0,1.118-0.106,2.211-0.309,3.271H36.697
				c-13.202,0-23.942,10.74-23.942,24.031c0,13.202,10.74,23.943,23.942,23.943h56.392c5.952,0,10.794-4.842,10.794-10.794
				c0-5.951-4.842-10.793-10.794-10.793H42.833c-1.666,0-3.022-1.356-3.022-3.022c0-1.666,1.356-3.022,3.022-3.022h11.081
				c9.643,0,17.955-5.81,21.618-14.114h15.24c10.738,0,19.474-8.735,19.474-19.473v-1.838
				C110.245,21.013,101.509,12.277,90.771,12.277z M53.914,60.946H42.833c-5.101,0-9.251,4.15-9.251,9.251
				c0,5.101,4.15,9.251,9.251,9.251h50.256c2.517,0,4.565,2.047,4.565,4.564c0,2.518-2.048,4.565-4.565,4.565H36.697
				c-9.767,0-17.713-7.946-17.713-17.802c0-9.767,7.946-17.713,17.713-17.713h31.77C65.359,57.806,59.996,60.946,53.914,60.946z
				 M104.016,33.589c0,7.302-5.942,13.244-13.244,13.244h-13.47c0.149-1.069,0.226-2.161,0.226-3.271V31.751
				c0-7.302,5.941-13.244,13.244-13.244s13.244,5.942,13.244,13.244V33.589z"/>
			<g>
				<path class="st4" d="M39.067,40.618c-2.591,0-4.692,2.101-4.692,4.692v1.526h12.071v-6.219H39.067z"/>
				<rect x="50.714" y="40.618" class="st4" width="12.071" height="6.219"/>
				<path class="st4" d="M74.879,40.618h-7.825v6.219h12.072v-1.973C79.125,42.519,77.224,40.618,74.879,40.618z"/>
			</g>
		</g>
		<g>
			<path class="st4" d="M111.223,103.626H13.069c-1.589,0-2.877,1.288-2.877,2.877v5.219h103.908v-5.219
				C114.101,104.914,112.812,103.626,111.223,103.626z"/>
			<path class="st3" d="M111.223,103.626H13.069c-1.589,0-2.877,1.288-2.877,2.877v3c0-1.589,1.288-2.877,2.877-2.877h98.154
				c1.589,0,2.877,1.288,2.877,2.877v-3C114.1,104.914,112.812,103.626,111.223,103.626z"/>
			<g>
				<path class="st0" d="M62.5,110.723h-5.632c-0.552,0-1,0.447-1,1s0.448,1,1,1H62.5c0.552,0,1-0.447,1-1
					S63.052,110.723,62.5,110.723z"/>
				<path class="st0" d="M118.361,110.723h-3.26v-4.22c0-2.138-1.739-3.877-3.877-3.877h-0.002c0.005-0.04,0.024-0.076,0.024-0.117
					v-68.92v-1.838c0-11.289-9.185-20.474-20.474-20.474s-20.473,9.185-20.473,20.474v7.867h-3.245c-0.552,0-1,0.447-1,1v5.215
					h-2.268v-5.215c0-0.553-0.448-1-1-1h-2.25v-3.556c0-0.553-0.448-1-1-1s-1,0.447-1,1v3.556h-7.822c-0.552,0-1,0.447-1,1v5.215
					h-2.268v-5.215c0-0.553-0.448-1-1-1h-2.092v-3.556c0-0.553-0.448-1-1-1s-1,0.447-1,1v3.556h-3.287
					c-3.139,0-5.692,2.554-5.692,5.692v0.751c-12.187,1.636-21.62,12.131-21.62,24.802c0,1.435,0.129,2.84,0.362,4.209
					c-0.003,0.033-0.018,0.061-0.018,0.095v27.34c0,0.085,0.028,0.161,0.048,0.24c-1.692,0.416-2.955,1.935-2.955,3.754v4.22H5.64
					c-0.552,0-1,0.447-1,1s0.448,1,1,1h4.553h42.054c0.552,0,1-0.447,1-1s-0.448-1-1-1H11.192v-4.22
					c0-1.035,0.842-1.877,1.877-1.877h98.154c1.035,0,1.877,0.842,1.877,1.877v4.22H67.495c-0.552,0-1,0.447-1,1s0.448,1,1,1H114.1
					h4.26c0.552,0,1-0.447,1-1S118.913,110.723,118.361,110.723z M109.269,102.626H86.935c0.005-0.04,0.024-0.076,0.024-0.117
					v-6.702h6.131c6.503,0,11.794-5.291,11.794-11.794s-5.291-11.794-11.794-11.794h-6.131V54.062h3.813
					c8.149,0,15.181-4.797,18.474-11.706v60.153C109.245,102.55,109.264,102.586,109.269,102.626z M38.386,102.509v-6.702h46.573
					v6.702c0,0.042,0.019,0.077,0.024,0.117h-46.62C38.367,102.586,38.386,102.55,38.386,102.509z M42.833,72.219
					c-1.115,0-2.021-0.907-2.021-2.021s0.907-2.021,2.021-2.021h11.081c2.323,0,4.592-0.333,6.758-0.954v4.997H42.833z
					 M62.672,66.554c5.843-2.232,10.737-6.647,13.502-12.493h8.785v18.157H62.672V66.554z M68.054,41.618h6.825
					c1.79,0,3.246,1.456,3.246,3.246v0.973h-0.804c-0.007,0-0.012-0.004-0.019-0.004H70.99c-0.007,0-0.013,0.004-0.019,0.004h-2.917
					V41.618z M90.771,19.507c6.751,0,12.244,5.493,12.244,12.244v1.838c0,6.751-5.493,12.244-12.244,12.244h-3.813v-25.71
					C88.16,19.728,89.439,19.507,90.771,19.507z M84.958,45.833h-4.833v-0.969c0-1.474-0.616-2.803-1.598-3.757v-9.357
					c0-4.649,2.605-8.7,6.431-10.773V45.833z M51.714,41.618h10.072v4.215H51.714V41.618z M35.375,45.837v-0.526
					c0-2.036,1.656-3.692,3.692-3.692h6.379v4.215h-8.75c-0.051,0-0.102,0.004-0.153,0.004H35.375z M36.697,47.833h30.337
					c0.007,0,0.013,0.004,0.019,0.004h12.071c0.007,0,0.013-0.004,0.019-0.004h11.627c7.854,0,14.244-6.39,14.244-14.244v-1.838
					c0-7.854-6.39-14.244-14.244-14.244s-14.244,6.39-14.244,14.244v8.158c-0.354-0.118-0.723-0.196-1.106-0.236v-3.611
					c0-0.553-0.448-1-1-1s-1,0.447-1,1v3.556h-1.123v-7.867c0-10.187,8.287-18.474,18.473-18.474
					c10.187,0,18.474,8.287,18.474,18.474v1.838c0,10.186-8.287,18.473-18.474,18.473h-15.24h-7.065h-31.77
					c-10.318,0-18.713,8.395-18.713,18.714c0,10.367,8.395,18.802,18.713,18.802h56.392c3.068,0,5.565-2.496,5.565-5.564
					s-2.497-5.564-5.565-5.564H42.833c-4.549,0-8.25-3.701-8.25-8.251s3.701-8.251,8.25-8.251h11.081
					c6.033,0,11.623-2.941,15.073-7.885h4.948c-3.894,7.407-11.59,12.114-20.021,12.114H42.833c-2.217,0-4.021,1.804-4.021,4.021
					s1.804,4.021,4.021,4.021h50.256c5.4,0,9.794,4.394,9.794,9.794s-4.394,9.794-9.794,9.794H36.697
					c-12.65,0-22.942-10.292-22.942-22.942C13.755,58.165,24.047,47.833,36.697,47.833z M93.089,80.448
					c1.966,0,3.565,1.599,3.565,3.564s-1.599,3.564-3.565,3.564h-6.131v-7.129H93.089z M84.958,87.577H62.672v-7.129h22.287V87.577z
					 M60.672,87.577H38.386v-8.158c1.347,0.653,2.852,1.029,4.447,1.029h17.839V87.577z M36.386,87.561
					c-9.071-0.169-16.401-7.627-16.401-16.786c0-9.111,7.331-16.53,16.401-16.698v8.161c-2.317,1.881-3.803,4.749-3.803,7.959
					s1.486,6.078,3.803,7.959V87.561z M38.386,54.062h28.098c-3.101,3.716-7.674,5.885-12.57,5.885H42.833
					c-1.595,0-3.1,0.377-4.447,1.029V54.062z M36.386,95.799v6.71c0,0.042,0.019,0.077,0.024,0.117H14.075
					c0.005-0.04,0.024-0.076,0.024-0.117V81.405C18.037,89.814,26.531,95.677,36.386,95.799z"/>
			</g>
		</g>
	</g>
</g>
</svg>
