<?xml version="1.0" encoding="utf-8"?>
<!-- Generator: Adobe Illustrator 22.0.1, SVG Export Plug-In . SVG Version: 6.00 Build 0)  -->
<svg version="1.1" id="Layer_1" xmlns="http://www.w3.org/2000/svg" xmlns:xlink="http://www.w3.org/1999/xlink" x="0px" y="0px"
	 viewBox="0 0 128 128" style="enable-background:new 0 0 128 128;" xml:space="preserve">
<style type="text/css">
	.st0{fill:#3A2C60;}
	.st1{fill:#E6E7E8;}
	.st2{fill:#6DC9F7;}
	.st3{fill:#FFFFFF;}
	.st4{fill:#FA759E;}
	.st5{fill:#FFD7E5;}
	.st6{fill:#D4FBFF;}
	.st7{fill:#0089EF;}
</style>
<g>
	<path class="st1" d="M118.418,73.142h-8.578c-4.561,0-8.272,3.711-8.272,8.272v8.115h-2.716c-0.475-1.378-1.297-2.579-2.524-3.361
		c-0.408-0.26-0.847-0.462-1.309-0.612v-6.231c0-4.414-1.202-8.732-3.477-12.489c-3.115-5.146-7.875-8.821-13.394-10.548
		c2.141-2.093,3.736-4.733,4.575-7.691c0.346,0.88,0.998,1.471,1.771,1.471c1.142,0,2.038-1.274,2.038-2.901
		c0-0.465-0.08-0.896-0.211-1.282c0.301-0.664,0.485-1.433,0.485-2.274c0-2.479-1.495-4.422-3.409-4.446V35.02
		c0-9.594-7.805-17.398-17.398-17.398c-9.594,0-17.398,7.805-17.398,17.398v4.144c-1.914,0.025-3.408,1.966-3.408,4.446
		c0,2.495,1.513,4.45,3.444,4.45c0.163,0,0.326-0.016,0.487-0.047c0.788,3.198,2.45,6.052,4.734,8.282
		c-9.774,3.093-16.879,12.246-16.879,23.03v6.231c-0.462,0.15-0.902,0.352-1.309,0.612c-1.166,0.744-2.018,1.908-2.513,3.361h-2.726
		v-8.286c0-4.562-3.711-8.272-8.272-8.272h-8.578c-4.562,0-8.272,3.711-8.272,8.272v24.691c0,4.562,3.711,8.272,8.272,8.272h8.578
		c4.561,0,8.272-3.711,8.272-8.272V97.99h3.733c1.457,2.257,3.914,3.493,6.423,3.493c1.405,0,2.826-0.387,4.095-1.197
		c0.955-0.609,1.721-1.401,2.298-2.296h38.039c0.576,0.895,1.343,1.687,2.298,2.296c1.27,0.811,2.69,1.197,4.095,1.197
		c2.509,0,4.967-1.236,6.423-3.493h3.733v8.115c0,4.562,3.711,8.272,8.272,8.272h8.578c4.562,0,8.272-3.711,8.272-8.272V81.414
		C126.691,76.853,122.98,73.142,118.418,73.142z M84.496,48.617c-0.115,0-0.315-0.244-0.45-0.642
		c0.362-0.091,0.693-0.267,1.003-0.488C84.964,48.186,84.651,48.617,84.496,48.617z"/>
	<g>
		<g>
			<g>
				<g>
					<path class="st3" d="M86.688,63.353c-3.191-5.272-8.43-9.158-14.609-10.579c-2.782,2.174-6.275,3.482-10.079,3.482
						c-3.806,0-7.3-1.309-10.083-3.484C41.641,55.138,33.98,64.337,33.98,75.325l0,11.204h56.04l0-11.204
						C90.02,70.944,88.803,66.847,86.688,63.353z"/>
					<g>
						<path class="st4" d="M71.299,55.605v1.148c0,5.135-4.163,9.299-9.299,9.299c-5.136,0-9.299-4.163-9.299-9.299v-1.148
							c-4.123,0.801-7.856,2.692-10.884,5.366c3.292,2.119,5.346,5.786,5.346,9.79l0,15.769h29.176l0-15.769
							c0-4.122,2.175-7.89,5.64-9.977C78.988,58.205,75.329,56.386,71.299,55.605z"/>
					</g>
				</g>
				<path class="st3" d="M62,56.256L62,56.256c-3.455,0-6.656-1.074-9.299-2.898v3.395c0,5.136,4.163,9.299,9.299,9.299
					c5.136,0,9.299-4.163,9.299-9.299v-3.395C68.656,55.182,65.455,56.256,62,56.256z"/>
				<g>
					<g>
						<path class="st3" d="M79.363,36.161c-0.343,0-0.669,0.101-0.965,0.281v3.416c0,0.935-0.082,1.851-0.233,2.743
							c0.355,0.284,0.76,0.46,1.198,0.46c1.35,0,2.444-1.545,2.444-3.45C81.806,37.705,80.712,36.161,79.363,36.161z"/>
						<path class="st3" d="M45.602,39.858v-3.416c-0.296-0.18-0.622-0.281-0.965-0.281c-1.35,0-2.444,1.545-2.444,3.45
							c0,1.905,1.094,3.45,2.444,3.45c0.437,0,0.842-0.176,1.197-0.46C45.684,41.708,45.602,40.793,45.602,39.858z"/>
					</g>
					<path class="st3" d="M62,14.622c-9.056,0-16.398,7.342-16.398,16.398v8.837c0,9.056,7.342,16.398,16.398,16.398
						s16.398-7.342,16.398-16.398V31.02C78.398,21.964,71.056,14.622,62,14.622z"/>
				</g>
				<rect x="25.431" y="86.529" class="st2" width="73.137" height="6.461"/>
				<g>
					<path class="st3" d="M42.167,86.283c-1.971-3.088-6.87-5.244-9.958-3.273c-3.088,1.971-3.195,7.323-1.224,10.411
						s6.072,3.993,9.16,2.022C43.232,93.473,44.138,89.371,42.167,86.283z"/>
					<path class="st3" d="M91.791,83.01c-3.088-1.971-7.987,0.185-9.958,3.273c-1.971,3.088-1.065,7.189,2.023,9.16
						c3.088,1.971,7.189,1.065,9.16-2.022C94.986,90.333,94.879,84.981,91.791,83.01z"/>
				</g>
				<g>
					<path class="st7" d="M25.431,77.243c0-4-3.272-7.272-7.272-7.272H9.581c-4,0-7.272,3.272-7.272,7.272v24.692
						c0,4,3.272,7.272,7.272,7.272h8.578c4,0,7.272-3.273,7.272-7.272V77.243z"/>
					<g>
						<path class="st7" d="M114.419,70.142h-8.578c-4,0-7.272,3.272-7.272,7.272v24.692c0,4,3.272,7.272,7.272,7.272h8.578
							c4,0,7.272-3.272,7.272-7.272V77.414C121.691,73.414,118.418,70.142,114.419,70.142z"/>
						<g>
							<path class="st0" d="M54.697,35.289c2.16,0,3.343-1.535,3.392-1.601c0.33-0.438,0.243-1.053-0.19-1.388
								c-0.432-0.333-1.058-0.254-1.399,0.173c-0.026,0.033-0.661,0.815-1.803,0.815c-1.152,0-1.75-0.746-1.79-0.797
								c-0.324-0.44-0.943-0.539-1.388-0.219c-0.449,0.323-0.551,0.947-0.229,1.396C51.723,34.272,52.927,35.289,54.697,35.289z"/>
							<path class="st0" d="M69.303,35.289c2.159,0,3.343-1.535,3.393-1.601c0.333-0.44,0.245-1.068-0.196-1.4
								c-0.442-0.336-1.068-0.246-1.401,0.195c-0.006,0.008-0.64,0.806-1.796,0.806c-1.152,0-1.75-0.746-1.79-0.797
								c-0.324-0.44-0.944-0.539-1.388-0.219c-0.449,0.323-0.551,0.947-0.229,1.396C66.329,34.272,67.533,35.289,69.303,35.289z"/>
							<path class="st0" d="M53.917,37.477c0,0.951,0.771,1.723,1.723,1.723c0.951,0,1.723-0.771,1.723-1.723
								s-0.771-1.723-1.723-1.723C54.688,35.754,53.917,36.526,53.917,37.477z"/>
							<circle class="st0" cx="68.36" cy="37.477" r="1.723"/>
							<path class="st0" d="M56.66,50.768c3.58,0.126,4.872-2.483,5.34-4.271c0.468,1.788,1.76,4.396,5.34,4.271
								c5.418-0.19,5.608-3.232,5.608-3.232s-1.521,2.281-3.992-0.808c-1.258-1.573-3.105-2.022-4.617-2.087
								c0.329-0.466,0.526-1.032,0.526-1.645v-1.093c0-0.553-0.448-1-1-1s-1,0.447-1,1v1.093c0,0.478-0.388,0.865-0.865,0.865
								s-0.865-0.388-0.865-0.865v-1.093c0-0.553-0.448-1-1-1s-1,0.447-1,1v1.093c0,0.613,0.197,1.179,0.526,1.645
								c-1.512,0.064-3.36,0.514-4.618,2.087c-2.471,3.089-3.992,0.808-3.992,0.808S51.242,50.578,56.66,50.768z"/>
							<path class="st0" d="M65.063,91.99h-6.125c-0.552,0-1,0.447-1,1s0.448,1,1,1h6.125c0.552,0,1-0.447,1-1
								S65.615,91.99,65.063,91.99z"/>
							<path class="st0" d="M114.418,69.142h-8.578c-4.561,0-8.272,3.711-8.272,8.272v8.115h-2.716
								c-0.475-1.378-1.297-2.579-2.524-3.361c-0.408-0.26-0.847-0.462-1.309-0.612v-6.231c0-4.414-1.202-8.732-3.477-12.489
								c-3.116-5.149-7.887-8.807-13.41-10.533c2.149-2.095,3.75-4.74,4.592-7.706c0.346,0.881,0.998,1.471,1.77,1.471
								c1.143,0,2.038-1.274,2.038-2.901c0-0.466-0.08-0.896-0.212-1.282c0.301-0.664,0.484-1.433,0.484-2.273
								c0-2.479-1.495-4.422-3.408-4.446v-4.144c0-9.594-7.805-17.398-17.398-17.398c-9.594,0-17.398,7.805-17.398,17.398v4.144
								c-1.914,0.025-3.408,1.966-3.408,4.446c0,2.495,1.513,4.45,3.444,4.45c0.162,0,0.321-0.038,0.481-0.069
								c0.788,3.215,2.459,6.082,4.758,8.32c-9.779,3.09-16.896,12.227-16.896,23.013v6.231c-0.462,0.15-0.902,0.352-1.31,0.612
								c-1.226,0.783-2.048,1.983-2.523,3.361h-2.715v-8.286c0-4.562-3.711-8.272-8.272-8.272H9.581
								c-4.561,0-8.272,3.711-8.272,8.272v24.691c0,4.562,3.711,8.272,8.272,8.272h8.578c4.562,0,8.272-3.711,8.272-8.272V93.99
								h3.733c1.457,2.257,3.914,3.492,6.423,3.492c1.405,0,2.825-0.386,4.095-1.196c0.955-0.609,1.721-1.401,2.298-2.296H55.5
								c0.552,0,1-0.447,1-1s-0.448-1-1-1H43.892c0.419-1.439,0.415-2.992-0.054-4.461h36.321c-0.409,1.271-0.484,2.63-0.188,3.969
								c0.037,0.167,0.087,0.329,0.134,0.492H68.459c-0.552,0-1,0.447-1,1s0.448,1,1,1h12.557c0.587,0.91,1.362,1.696,2.302,2.296
								c1.27,0.811,2.69,1.197,4.095,1.197c2.509,0,4.967-1.236,6.423-3.493h3.733v8.115c0,4.562,3.711,8.272,8.272,8.272h8.578
								c4.562,0,8.272-3.711,8.272-8.272V77.414C122.691,72.853,118.98,69.142,114.418,69.142z M89.02,81.26
								c-0.946,0.001-1.946,0.176-2.97,0.55c-1.992,0.727-3.801,2.109-4.907,3.719h-3.805V70.761c0-4.257,2.52-8.085,6.424-9.774
								c0.756,0.895,1.449,1.858,2.07,2.884c2.085,3.444,3.188,7.405,3.188,11.454V81.26z M45.194,62.626
								c-1.011-1.203-2.249-2.222-3.673-2.99c1.112-1.106,2.348-2.082,3.673-2.934V62.626z M48.698,54.869
								c0.731-0.302,1.475-0.576,2.243-0.8l0,31.461h-2.243L48.698,54.869z M62,65.052c-4.576,0-8.299-3.723-8.299-8.299v-1.607
								c0.001,0.001,0.003,0.001,0.004,0.002c0.015,0.008,0.031,0.015,0.046,0.023c0.43,0.233,0.87,0.44,1.316,0.635
								c0.102,0.045,0.205,0.089,0.308,0.132c0.461,0.191,0.928,0.365,1.402,0.514c0.064,0.02,0.13,0.037,0.195,0.056
								c0.446,0.135,0.898,0.25,1.354,0.349c0.088,0.019,0.174,0.04,0.262,0.058c0.496,0.099,0.997,0.175,1.503,0.23
								c0.105,0.012,0.211,0.02,0.316,0.03c0.528,0.048,1.058,0.081,1.592,0.081s1.065-0.032,1.593-0.081
								c0.105-0.01,0.211-0.018,0.316-0.03c0.506-0.055,1.007-0.131,1.503-0.23c0.088-0.018,0.174-0.039,0.261-0.058
								c0.457-0.099,0.91-0.214,1.356-0.35c0.064-0.019,0.129-0.036,0.193-0.056c0.475-0.15,0.942-0.324,1.403-0.515
								c0.103-0.043,0.205-0.087,0.307-0.132c0.445-0.194,0.884-0.401,1.313-0.634c0.016-0.009,0.033-0.016,0.049-0.025
								c0.001-0.001,0.002-0.001,0.004-0.002v1.607C70.299,61.329,66.576,65.052,62,65.052z M54.437,63.719
								c0.731,0.792,1.579,1.473,2.524,2.006l0,19.804h-2.524L54.437,63.719z M60.457,66.923C60.962,67,61.474,67.052,62,67.052
								c0.331,0,0.658-0.019,0.981-0.05l0,18.527h-2.524L60.457,66.923z M66.484,66.01c0.928-0.451,1.777-1.036,2.524-1.732
								l0,21.251h-2.524L66.484,66.01z M72.504,53.9c0.959,0.249,1.896,0.557,2.805,0.929l0,30.7h-2.805L72.504,53.9z M82.33,59.452
								c-1.341,0.67-2.526,1.561-3.525,2.615v-5.419C80.067,57.455,81.248,58.392,82.33,59.452z M80.495,44.617
								c-0.115,0-0.315-0.244-0.45-0.643c0.362-0.091,0.693-0.267,1.003-0.488C80.964,44.186,80.651,44.617,80.495,44.617z
								 M80.806,39.61c0,0.245-0.027,0.471-0.066,0.688c-0.081-0.013-0.161-0.034-0.245-0.034c-0.401,0-0.725,0.325-0.725,0.725
								c0,0.279,0.162,0.513,0.392,0.634c-0.272,0.314-0.594,0.481-0.905,0.427c0.01-0.075,0.013-0.15,0.022-0.225
								c0.016-0.145,0.029-0.291,0.042-0.437c0.046-0.514,0.078-1.026,0.078-1.533v-2.696C80.071,37.194,80.806,38.191,80.806,39.61
								z M44.743,42.052c-0.736,0.123-1.55-0.924-1.549-2.441c0-1.419,0.735-2.415,1.408-2.449v2.696
								c0,0.506,0.032,1.019,0.078,1.533c0.013,0.146,0.026,0.292,0.042,0.437C44.73,41.902,44.733,41.977,44.743,42.052z
								 M46.602,39.857v-8.837c0-8.491,6.908-15.398,15.398-15.398c8.49,0,15.398,6.907,15.398,15.398v8.837
								c0,8.491-6.908,15.398-15.398,15.398C53.509,55.256,46.602,48.349,46.602,39.857z M40.116,61.165
								c3.687,1.768,6.046,5.479,6.046,9.596l0,14.769h-3.305c-1.106-1.61-2.916-2.992-4.907-3.719
								c-1.025-0.374-2.024-0.549-2.97-0.55v-5.935C34.98,69.943,36.912,65.006,40.116,61.165z M24.432,101.935
								c0,3.459-2.814,6.272-6.272,6.272H9.581c-3.458,0-6.272-2.813-6.272-6.272V77.243c0-3.459,2.813-6.272,6.272-6.272h8.578
								c3.458,0,6.272,2.813,6.272,6.272V101.935z M26.432,87.529h2.275c-0.154,1.491,0.031,3.051,0.51,4.461h-2.784V87.529z
								 M39.606,94.601c-2.619,1.67-6.108,0.9-7.779-1.718c-1.723-2.7-1.638-7.397,0.919-9.029c0.622-0.397,1.39-0.597,2.236-0.597
								c0.717,0,1.491,0.144,2.281,0.432c1.683,0.615,3.201,1.786,4.061,3.133C42.995,89.439,42.225,92.93,39.606,94.601z
								 M92.173,92.883c-1.672,2.618-5.161,3.389-7.779,1.718c-1.269-0.81-2.146-2.064-2.47-3.534
								c-0.324-1.469-0.057-2.977,0.752-4.245c0.859-1.347,2.377-2.518,4.061-3.133c0.79-0.288,1.563-0.432,2.281-0.432
								c0.846,0,1.614,0.2,2.236,0.597c1.149,0.733,1.896,2.201,2.051,4.027C93.455,89.667,93.032,91.536,92.173,92.883z
								 M94.784,91.99c0.478-1.41,0.663-2.97,0.51-4.461h2.275v4.461H94.784z M120.691,102.106c0,3.459-2.814,6.272-6.272,6.272
								h-8.578c-3.458,0-6.272-2.813-6.272-6.272V77.414c0-3.459,2.813-6.272,6.272-6.272h8.578c3.458,0,6.272,2.813,6.272,6.272
								V102.106z"/>
						</g>
					</g>
				</g>
			</g>
		</g>
	</g>
</g>
</svg>
