<?xml version="1.0" encoding="utf-8"?>
<!-- Generator: Adobe Illustrator 22.0.1, SVG Export Plug-In . SVG Version: 6.00 Build 0)  -->
<svg version="1.1" id="Layer_1" xmlns="http://www.w3.org/2000/svg" xmlns:xlink="http://www.w3.org/1999/xlink" x="0px" y="0px"
	 viewBox="0 0 128 128" style="enable-background:new 0 0 128 128;" xml:space="preserve">
<style type="text/css">
	.st0{fill:#3A2C60;}
	.st1{fill:#E6E7E8;}
	.st2{fill:#6DC9F7;}
	.st3{fill:#FFFFFF;}
	.st4{fill:#FA759E;}
	.st5{fill:#FFD7E5;}
	.st6{fill:#D4FBFF;}
	.st7{fill:#0089EF;}
</style>
<g>
	<path class="st1" d="M91.066,56.109c0.339-0.456,0.673-0.923,1.001-1.421l1.532-2.614c2.016-3.894,3.08-8.189,3.08-12.425
		c0-4.738-1.305-9.203-3.598-13.117c1.989-1.825,3.246-4.437,3.246-7.344c0-5.502-4.476-9.978-9.977-9.978
		c-3.554,0-6.671,1.873-8.439,4.678c-3.664-1.412-7.69-2.194-11.913-2.194c-4.223,0-8.248,0.782-11.913,2.194
		c-1.768-2.805-4.885-4.678-8.439-4.678c-5.501,0-9.977,4.476-9.977,9.978c0,2.907,1.257,5.519,3.247,7.344
		c-2.293,3.914-3.598,8.379-3.598,13.117c0,6.057,2.094,11.748,5.613,16.46c-5.769,4.928-17.796,17.49-16.866,35.992
		c0.147,2.662,1.43,7.357,5.12,8.472c-0.16,0.969-0.221,1.995-0.159,3.079c0.221,3.81,1.834,7.825,4.542,11.308
		c3.885,4.998,9.242,7.827,13.891,7.827c2.14,0,4.13-0.6,5.757-1.863c0-0.001,0-0.001,0-0.001c0.996-0.774,1.779-1.745,2.361-2.855
		c1.595-1.363,2.825-3.336,3.582-5.623c2.11,0.313,4.403,0.488,6.91,0.488c3.804,0,7.128-0.394,10.038-1.079
		c0.734,2.538,2.036,4.736,3.766,6.215c0.582,1.11,1.365,2.081,2.361,2.854h0.001c1.626,1.265,3.616,1.865,5.757,1.865
		c4.647,0,10.005-2.83,13.89-7.827c2.708-3.483,4.321-7.499,4.543-11.309c0.11-1.903-0.139-3.643-0.704-5.163
		c1.497-1.921,2.111-4.609,2.21-6.394C108.864,73.598,96.836,61.036,91.066,56.109z"/>
	<g>
		<g>
			<g>
				<path class="st4" d="M85.697,52.248c3.441-4.329,5.602-9.559,5.933-15.099c0.03-0.5,0.05-1,0.05-1.5
					c0-4.852-1.419-9.4-3.888-13.332c0,0,0,0,0,0c2.146-1.64,3.537-4.219,3.537-7.129c0-4.958-4.019-8.977-8.977-8.977
					c-3.5,0-6.525,2.008-8.005,4.93c0,0,0.001,0,0.001,0C70.586,9.578,66.407,8.699,62,8.699s-8.586,0.879-12.347,2.443
					c0,0,0.001,0,0.001,0c-1.481-2.923-4.505-4.93-8.005-4.93c-4.958,0-8.977,4.019-8.977,8.977c0,2.91,1.391,5.489,3.537,7.129
					c0,0,0,0,0,0c-2.47,3.932-3.888,8.479-3.888,13.332c0,0.5,0.02,1,0.05,1.5c0.33,5.54,2.491,10.77,5.933,15.099
					c-5.258,4.267-18.195,16.76-17.237,35.798c0,0,0.414,7.247,5.313,7.728c-1.102,4.201,0.263,9.792,3.981,14.574
					c5.344,6.875,13.513,9.465,18.244,5.786c0.935-0.727,1.658-1.65,2.188-2.707c1.686-1.379,2.97-3.556,3.662-6.103
					c2.322,0.394,4.853,0.609,7.619,0.609c4.07,0,7.637-0.458,10.761-1.287c0.638,2.835,1.997,5.281,3.831,6.781
					c0.53,1.057,1.252,1.98,2.188,2.707c4.732,3.679,12.9,1.088,18.244-5.786c4.166-5.358,5.371-11.728,3.466-16.023
					c2.139-2.256,2.373-6.278,2.373-6.278C103.892,69.007,90.955,56.514,85.697,52.248z M80.286,14.428
					c-0.003-0.002-0.006-0.004-0.009-0.006C80.28,14.424,80.283,14.426,80.286,14.428z M43.723,14.422
					c-0.003,0.002-0.006,0.004-0.009,0.006C43.717,14.426,43.72,14.424,43.723,14.422z"/>
				<path class="st5" d="M71.082,64.72c-0.896-0.7-1.893-1.263-2.925-1.715c-1.987,0.411-4.045,0.634-6.157,0.634
					c-2.077,0-4.102-0.215-6.059-0.613c-1.016,0.449-1.997,1.004-2.879,1.694c-6.48,5.067-11.505,22.001,9.01,22.001
					C82.587,86.721,77.562,69.787,71.082,64.72z"/>
				<g>
					<g>
						<path class="st5" d="M47.574,105.294c-2.02-3.129-6.044-4.124-8.988-2.224s-3.694,5.978-1.674,9.106
							c2.02,3.129,6.044,4.124,8.988,2.224S49.594,108.423,47.574,105.294z"/>
						<path class="st5" d="M31.058,100.342c-1.163,0-2.106,0.943-2.106,2.106c0,1.163,0.943,2.106,2.106,2.106
							c1.163,0,2.106-0.943,2.106-2.106C33.164,101.285,32.221,100.342,31.058,100.342z"/>
						<path class="st5" d="M34.69,96.13c-1.163,0-2.106,0.943-2.106,2.106c0,1.163,0.943,2.106,2.106,2.106s2.106-0.943,2.106-2.106
							C36.796,97.073,35.853,96.13,34.69,96.13z"/>
						<path class="st5" d="M39.246,94.025c-1.163,0-2.106,0.943-2.106,2.106c0,1.163,0.943,2.106,2.106,2.106
							c1.163,0,2.106-0.943,2.106-2.106C41.352,94.967,40.409,94.025,39.246,94.025z"/>
					</g>
				</g>
				<g>
					<g>
						<path class="st5" d="M88.869,103.07c-2.944-1.901-6.968-0.905-8.988,2.224c-2.02,3.129-1.27,7.206,1.674,9.106
							s6.968,0.905,8.988-2.224C92.563,109.048,91.813,104.971,88.869,103.07z"/>
						<path class="st5" d="M96.397,100.342c-1.163,0-2.106,0.943-2.106,2.106c0,1.163,0.943,2.106,2.106,2.106
							c1.163,0,2.106-0.943,2.106-2.106C98.503,101.285,97.56,100.342,96.397,100.342z"/>
						<path class="st5" d="M92.765,96.13c-1.163,0-2.106,0.943-2.106,2.106c0,1.163,0.943,2.106,2.106,2.106
							c1.163,0,2.106-0.943,2.106-2.106C94.871,97.073,93.928,96.13,92.765,96.13z"/>
						<path class="st5" d="M88.209,94.025c-1.163,0-2.106,0.943-2.106,2.106c0,1.163,0.943,2.106,2.106,2.106
							c1.163,0,2.106-0.943,2.106-2.106C90.315,94.967,89.372,94.025,88.209,94.025z"/>
					</g>
				</g>
			</g>
		</g>
		<g>
			<g>
				<path class="st5" d="M38.741,18.916c2.003-2.292,4.406-4.28,7.117-5.879c-0.787-1.534-2.366-2.596-4.209-2.596
					c-2.622,0-4.747,2.125-4.747,4.747C36.901,16.709,37.629,18.047,38.741,18.916z"/>
				<path class="st5" d="M85.259,18.916c1.112-0.869,1.84-2.207,1.84-3.728c0-2.622-2.125-4.747-4.747-4.747
					c-1.843,0-3.423,1.061-4.209,2.596C80.852,14.636,83.256,16.624,85.259,18.916z"/>
			</g>
			<path class="st3" d="M62,8.699c-16.39,0-29.68,12.06-29.68,26.95c0,0.5,0.02,1,0.05,1.5c0.85-14.19,13.79-25.45,29.63-25.45
				s28.78,11.26,29.63,25.45c0.03-0.5,0.05-1,0.05-1.5C91.68,20.759,78.39,8.699,62,8.699z"/>
			<g>
				<circle class="st5" cx="77.249" cy="38.829" r="0.724"/>
			</g>
			<g>
				<circle class="st5" cx="81.901" cy="40.957" r="0.724"/>
			</g>
			<g>
				<circle class="st5" cx="81.523" cy="36.467" r="0.724"/>
			</g>
			<g>
				<circle class="st5" cx="47.025" cy="38.829" r="0.724"/>
			</g>
			<g>
				<circle class="st5" cx="42.372" cy="40.957" r="0.724"/>
			</g>
			<g>
				<circle class="st5" cx="42.75" cy="36.467" r="0.724"/>
			</g>
			<g>
				<path class="st5" d="M62.137,33.014c-7.119,0-12.889,5.771-12.889,12.889s5.771,10.889,12.889,10.889
					s12.889-3.771,12.889-10.889S69.255,33.014,62.137,33.014z"/>
				<g>
					<path class="st0" d="M87.065,52.11c0.339-0.456,0.674-0.924,1.002-1.422l1.532-2.614c2.015-3.893,3.08-8.188,3.08-12.425
						c0-4.74-1.306-9.207-3.601-13.122c1.991-1.824,3.25-4.432,3.25-7.339c0-5.501-4.476-9.977-9.978-9.977
						c-3.553,0-6.654,1.88-8.421,4.685c-3.669-1.417-7.701-2.2-11.931-2.2s-8.261,0.784-11.931,2.2
						c-1.767-2.804-4.868-4.685-8.421-4.685c-5.501,0-9.978,4.476-9.978,9.977c0,2.906,1.259,5.515,3.25,7.338
						c-2.295,3.916-3.601,8.382-3.601,13.123c0,6.058,2.094,11.749,5.614,16.462c-5.767,4.924-17.798,17.484-16.867,35.99
						c0.148,2.667,1.436,7.373,5.141,8.477c-0.717,4.352,0.761,9.749,4.363,14.383c3.886,4.997,9.243,7.826,13.891,7.826
						c2.141,0,4.131-0.6,5.757-1.865c0.996-0.774,1.779-1.745,2.361-2.855c1.597-1.365,2.828-3.34,3.585-5.631
						c2.111,0.314,4.398,0.496,6.908,0.496c3.812,0,7.117-0.413,10.031-1.102c0.733,2.547,2.038,4.755,3.774,6.238
						c0.582,1.11,1.365,2.081,2.361,2.854c1.627,1.266,3.616,1.865,5.758,1.865c4.647,0,10.005-2.83,13.89-7.827
						c2.708-3.483,4.321-7.499,4.543-11.309c0.11-1.9-0.153-3.626-0.719-5.143c1.508-1.923,2.126-4.623,2.225-6.414
						C104.864,69.593,92.832,57.033,87.065,52.11z M82.351,7.212c4.398,0,7.978,3.578,7.978,7.977c0,2.198-0.901,4.183-2.345,5.626
						c-2.972-4.306-7.195-7.823-12.202-10.127C77.22,8.593,79.624,7.212,82.351,7.212z M33.671,15.188
						c0-4.398,3.579-7.977,7.978-7.977c2.727,0,5.131,1.381,6.569,3.475c-5.008,2.305-9.23,5.821-12.202,10.127
						C34.572,19.371,33.671,17.386,33.671,15.188z M47.99,115.345c-4.289,3.332-11.843,0.817-16.841-5.61
						c-3.296-4.241-4.651-9.13-3.971-12.93c3.866-0.151,6.207-2.677,7.981-6.221c3.848,0.283,8.252,2.819,11.546,7.055
						C51.702,104.067,52.279,112.01,47.99,115.345z M100.43,99.537c-0.197,3.408-1.662,7.03-4.124,10.196
						c-4.999,6.429-12.554,8.943-16.841,5.611c-4.289-3.335-3.713-11.277,1.284-17.705c2.435-3.131,5.475-5.318,8.449-6.368
						c1.752,3.219,4.063,5.454,7.753,5.544c0.055,0.001,0.109,0.002,0.164,0.002c1.173,0,2.155-0.321,2.983-0.837
						C100.388,97.052,100.506,98.245,100.43,99.537z M101.936,87.989c-0.004,0.069-0.446,6.829-4.83,6.829
						c-0.035,0-0.07-0.001-0.105-0.002c-5.04-0.123-6.979-5.877-9.225-12.541c-1.845-5.475-3.753-11.136-7.736-14.53
						c-0.42-0.359-1.052-0.309-1.409,0.112c-0.358,0.42-0.309,1.051,0.112,1.409c3.562,3.036,5.38,8.431,7.138,13.648
						c0.778,2.308,1.545,4.57,2.446,6.581c-3.275,1.2-6.546,3.561-9.155,6.916c-3.112,4.001-4.632,8.572-4.53,12.548
						c-1.002-2.301-1.436-5.123-1.104-7.901c0.065-0.548-0.326-1.046-0.875-1.111c-0.553-0.065-1.046,0.327-1.111,0.875
						c-0.205,1.718-0.156,3.437,0.114,5.07c-2.89,0.674-6.072,1.04-9.593,1.04c-2.267,0-4.391-0.155-6.397-0.436
						c0.366-1.814,0.459-3.752,0.226-5.689c-0.065-0.549-0.566-0.937-1.112-0.874c-0.548,0.066-0.939,0.564-0.873,1.112
						c0.335,2.784-0.099,5.612-1.103,7.916c0.102-3.977-1.418-8.548-4.529-12.551c-3.443-4.428-8.038-7.134-12.274-7.695
						c0.758-1.81,1.43-3.787,2.109-5.802c1.758-5.217,3.576-10.611,7.138-13.647c0.42-0.358,0.471-0.989,0.113-1.409
						c-0.358-0.421-0.991-0.473-1.41-0.112c-3.983,3.395-5.891,9.056-7.736,14.53c-2.246,6.664-4.185,12.418-9.225,12.541
						c-0.036,0.001-0.07,0.002-0.105,0.002c-4.383-0.001-4.826-6.76-4.83-6.822C21.178,70.374,32.677,58.372,38.18,53.67
						C43.858,60.307,52.506,64.639,62,64.639c4.051,0,8.004-0.767,11.749-2.28c0.513-0.206,0.76-0.789,0.553-1.301
						c-0.207-0.513-0.793-0.761-1.301-0.553c-3.507,1.416-7.208,2.134-11.001,2.134c-15.546,0-28.68-12.359-28.68-26.989
						C33.32,21.339,46.186,9.696,62,9.696c15.814,0,28.68,11.643,28.68,25.953c0,3.974-0.961,7.845-2.83,11.459l-1.479,2.522
						c-0.449,0.68-0.933,1.346-1.396,1.933l-2.473,2.74c-0.269,0.262-0.543,0.519-0.821,0.771c-0.409,0.37-0.441,1.003-0.07,1.412
						s1.003,0.441,1.412,0.07c0.298-0.269,0.59-0.543,0.92-0.868l1.848-2.048C91.283,58.318,102.825,70.316,101.936,87.989z"/>
					<path class="st0" d="M79.412,56.925c-1.121,0.825-2.313,1.576-3.541,2.234c-0.487,0.261-0.671,0.867-0.41,1.354
						c0.181,0.337,0.525,0.528,0.883,0.528c0.159,0,0.32-0.038,0.471-0.118c1.313-0.703,2.586-1.506,3.783-2.387
						c0.444-0.327,0.54-0.953,0.213-1.398C80.482,56.692,79.858,56.597,79.412,56.925z"/>
					<path class="st0" d="M55.043,28.59c0-1.312-1.063-2.375-2.375-2.375c-1.312,0-2.375,1.063-2.375,2.375s1.063,2.375,2.375,2.375
						C53.979,30.965,55.043,29.902,55.043,28.59z"/>
					<path class="st0" d="M71.332,26.215c-1.312,0-2.375,1.063-2.375,2.375s1.063,2.375,2.375,2.375s2.375-1.063,2.375-2.375
						S72.644,26.215,71.332,26.215z"/>
					<path class="st0" d="M71.951,46.09c-0.553,0-1,0.447-1,1c0,2.154-1.753,3.907-3.907,3.907s-3.907-1.753-3.907-3.907v-4.161
						l3.729-3.729c0.513-0.512,0.15-1.389-0.575-1.389h-8.307c-0.725,0-1.088,0.876-0.575,1.389l3.729,3.729v4.161
						c0,2.154-1.753,3.907-3.907,3.907s-3.907-1.753-3.907-3.907c0-0.553-0.448-1-1-1s-1,0.447-1,1c0,3.257,2.65,5.907,5.907,5.907
						c2.043,0,3.846-1.043,4.907-2.624c1.061,1.581,2.864,2.624,4.907,2.624c3.257,0,5.907-2.65,5.907-5.907
						C72.951,46.537,72.504,46.09,71.951,46.09z"/>
				</g>
			</g>
		</g>
	</g>
</g>
</svg>
