<?xml version="1.0" encoding="utf-8"?>
<!-- Generator: Adobe Illustrator 22.0.1, SVG Export Plug-In . SVG Version: 6.00 Build 0)  -->
<svg version="1.1" id="Layer_1" xmlns="http://www.w3.org/2000/svg" xmlns:xlink="http://www.w3.org/1999/xlink" x="0px" y="0px"
	 viewBox="0 0 128 128" style="enable-background:new 0 0 128 128;" xml:space="preserve">
<style type="text/css">
	.st0{fill:#3A2C60;}
	.st1{fill:#E6E7E8;}
	.st2{fill:#6DC9F7;}
	.st3{fill:#FFFFFF;}
	.st4{fill:#FA759E;}
	.st5{fill:#FFD7E5;}
	.st6{fill:#D4FBFF;}
	.st7{fill:#0089EF;}
</style>
<g>
	<path class="st1" d="M125.33,53.006c0.553,0,1-0.447,1-1v-5.238c0-0.553-0.447-1-1-1c-5.361,0-9.724-4.361-9.724-9.723l0.006-0.41
		c0.008-0.443,0.023-3.329,0.046-5.604c0.003-0.267-0.102-0.523-0.289-0.714c-0.188-0.189-0.444-0.296-0.711-0.296H73.919H63.861
		h-46.52c-0.267,0-0.523,0.106-0.71,0.296c-0.188,0.19-0.292,0.447-0.29,0.714c0.022,2.274,0.038,5.16,0.046,5.604l0.005,0.41
		c0,5.361-4.362,9.723-9.723,9.723c-0.552,0-1,0.447-1,1v5.238c0,0.553,0.448,1,1,1c2.757,0,5,2.243,5,5s-2.243,5-5,5
		c-0.552,0-1,0.447-1,1v3.988c0,0.553,0.448,1,1,1c2.757,0,5,2.243,5,5s-2.243,5-5,5c-0.552,0-1,0.447-1,1v5.238
		c0,0.553,0.448,1,1,1c5.361,0,9.723,4.361,9.723,9.723l-0.005,0.41c-0.008,0.443-0.024,3.329-0.046,5.604
		c-0.002,0.267,0.102,0.523,0.29,0.714c0.188,0.189,0.443,0.296,0.71,0.296h97.316c0.267,0,0.522-0.106,0.711-0.296
		c0.188-0.19,0.292-0.447,0.289-0.714c-0.022-2.274-0.038-5.16-0.046-5.604l-0.006-0.41c0-5.361,4.362-9.723,9.724-9.723
		c0.553,0,1-0.447,1-1v-5.238c0-0.553-0.447-1-1-1c-2.757,0-5-2.243-5-5s2.243-5,5-5c0.553,0,1-0.447,1-1v-3.988
		c0-0.553-0.447-1-1-1c-2.757,0-5-2.243-5-5S122.573,53.006,125.33,53.006z"/>
	<g>
		<g>
			<g>
				<path class="st4" d="M115.33,69.994c0-3.314,2.686-6,6-6v-3.987c-3.314,0-6-2.686-6-6c0-3.314,2.686-6,6-6v-5.238
					c-5.922,0-10.723-4.801-10.723-10.723c0-0.345,0.02-2.686,0.052-6.023H13.342c0.032,3.337,0.052,5.678,0.052,6.023
					c0,5.922-4.801,10.723-10.723,10.723v5.238c3.314,0,6,2.686,6,6c0,3.314-2.686,6-6,6v3.987c3.314,0,6,2.686,6,6
					c0,3.314-2.686,6-6,6v5.238c5.922,0,10.723,4.801,10.723,10.723c0,0.345-0.02,2.686-0.052,6.023h97.316
					c-0.032-3.337-0.052-5.678-0.052-6.023c0-5.922,4.801-10.723,10.723-10.723v-5.238C118.016,75.994,115.33,73.307,115.33,69.994z
					"/>
				<g>
					<path class="st3" d="M13.37,94.979c-0.008,0.864-0.017,1.868-0.028,3h97.316c-0.011-1.132-0.02-2.136-0.028-3H13.37z"/>
				</g>
			</g>
			<path class="st5" d="M99.503,34.412v-1c0-1.104-0.896-2-2-2h-1c-1.104,0-2,0.896-2,2l0,0h-1.148v0c0-1.104-0.896-2-2-2h-2.059
				c-1.104,0-2,0.896-2,2v0h-1.148v0c0-1.104-0.896-2-2-2H82.09c-1.104,0-2,0.896-2,2v0h-1.147v0c0-1.104-0.896-2-2-2h-2.059
				c-1.104,0-2,0.896-2,2v0h-1.148v0c0-1.104-0.896-2-2-2h-2.059c-1.104,0-2,0.896-2,2v0h-1.147v0c0-1.104-0.896-2-2-2H60.47
				c-1.104,0-2,0.896-2,2v0h-1.147v0c0-1.104-0.896-2-2-2h-2.059c-1.104,0-2,0.896-2,2v0h-1.147v0c0-1.104-0.896-2-2-2h-2.059
				c-1.104,0-2,0.896-2,2v0H42.91v0c0-1.104-0.896-2-2-2H38.85c-1.104,0-2,0.896-2,2v0h-1.147v0c0-1.104-0.896-2-2-2h-2.059
				c-1.104,0-2,0.896-2,2v0h-1.148l0,0c0-1.104-0.896-2-2-2h-1c-1.104,0-2,0.896-2,2v1c0,1.104,0.896,2,2,2c0,0,0,0,0,0v1.109
				c0,0,0,0,0,0c-1.104,0-2,0.896-2,2v2.044c0,1.104,0.896,2,2,2c0,0,0,0,0,0v1.108c0,0,0,0,0,0c-1.104,0-2,0.896-2,2v2.044
				c0,1.104,0.896,2,2,2c0,0,0,0,0,0v1.108c0,0,0,0,0,0c-1.104,0-2,0.896-2,2v2.044c0,1.104,0.896,2,2,2c0,0,0,0,0,0v1.108
				c0,0,0,0,0,0c-1.104,0-2,0.896-2,2v2.044c0,1.104,0.896,2,2,2c0,0,0,0,0,0v1.108c0,0,0,0,0,0c-1.104,0-2,0.896-2,2v2.044
				c0,1.104,0.896,2,2,2c0,0,0,0,0,0v1.108c0,0,0,0,0,0c-1.104,0-2,0.896-2,2v2.044c0,1.104,0.896,2,2,2c0,0,0,0,0,0v1.108
				c0,0,0,0,0,0c-1.104,0-2,0.896-2,2v2.044c0,1.104,0.896,2,2,2c0,0,0,0,0,0v1.108c0,0,0,0,0,0c-1.104,0-2,0.896-2,2v1
				c0,1.104,0.896,2,2,2h1c1.104,0,2-0.896,2-2h1.148c0,1.104,0.896,2,2,2h2.059c1.104,0,2-0.896,2-2h1.147c0,1.104,0.896,2,2,2
				h2.059c1.104,0,2-0.896,2-2h1.147c0,1.104,0.896,2,2,2h2.059c1.104,0,2-0.896,2-2h1.147c0,1.104,0.896,2,2,2h2.059
				c1.104,0,2-0.896,2-2h1.147c0,1.104,0.896,2,2,2h2.059c1.104,0,2-0.896,2-2h1.148c0,1.104,0.896,2,2,2h2.059c1.104,0,2-0.896,2-2
				h1.147c0,1.104,0.896,2,2,2h2.059c1.104,0,2-0.896,2-2h1.148c0,1.104,0.896,2,2,2h2.059c1.104,0,2-0.896,2-2h1.147
				c0,1.104,0.896,2,2,2h2.059c1.104,0,2-0.896,2-2h1.147c0,1.104,0.896,2,2,2h1c1.104,0,2-0.896,2-2v-1c0-1.104-0.895-2-2-2v-1.108
				c1.104,0,2-0.896,2-2v-2.044c0-1.104-0.895-2-2-2v-1.108c1.104,0,2-0.896,2-2v-2.044c0-1.104-0.895-2-2-2v-1.108
				c1.104,0,2-0.896,2-2v-2.044c0-1.104-0.895-2-2-2v-1.108c1.104,0,2-0.896,2-2v-2.044c0-1.104-0.895-2-2-2V57.87
				c1.104,0,2-0.896,2-2v-2.044c0-1.104-0.895-2-2-2v-1.108c1.104,0,2-0.896,2-2v-2.044c0-1.104-0.895-2-2-2v-1.108
				c1.104,0,2-0.896,2-2v-2.044c0-1.104-0.895-2-2-2v-1.109C98.607,36.412,99.503,35.516,99.503,34.412z"/>
			<g>
				<g>
					<g>
						<path class="st4" d="M89.973,70.926c-2.568,0-4.65,2.082-4.65,4.65c0,2.568,2.082,4.65,4.65,4.65s4.65-2.082,4.65-4.65
							C94.623,73.008,92.541,70.926,89.973,70.926z"/>
						<g>
							<path class="st5" d="M90.576,72.35l0.305,0.938c0.128,0.393,0.494,0.66,0.908,0.66h0.986c0.614,0,0.87,0.786,0.373,1.147
								l-0.798,0.579c-0.335,0.243-0.475,0.674-0.347,1.067l0.305,0.938c0.19,0.584-0.479,1.07-0.976,0.709l-0.798-0.579
								c-0.335-0.243-0.788-0.243-1.122,0l-0.798,0.579c-0.497,0.361-1.166-0.125-0.976-0.709l0.305-0.938
								c0.128-0.393-0.012-0.824-0.347-1.067l-0.798-0.579c-0.497-0.361-0.242-1.147,0.373-1.147h0.986
								c0.414,0,0.78-0.266,0.908-0.66l0.305-0.938C89.559,71.765,90.386,71.765,90.576,72.35z"/>
						</g>
					</g>
				</g>
				<g>
					<g>
						<path class="st4" d="M33.027,70.926c-2.568,0-4.65,2.082-4.65,4.65c0,2.568,2.082,4.65,4.65,4.65
							c2.568,0,4.65-2.082,4.65-4.65C37.677,73.008,35.595,70.926,33.027,70.926z"/>
						<g>
							<path class="st5" d="M33.63,72.35l0.305,0.938c0.128,0.393,0.494,0.66,0.908,0.66h0.986c0.614,0,0.87,0.786,0.373,1.147
								l-0.798,0.579c-0.335,0.243-0.475,0.674-0.347,1.067l0.305,0.938c0.19,0.584-0.479,1.07-0.976,0.709l-0.798-0.579
								c-0.335-0.243-0.788-0.243-1.122,0l-0.798,0.579c-0.497,0.361-1.166-0.125-0.976-0.709l0.305-0.938
								c0.128-0.393-0.012-0.824-0.347-1.067l-0.798-0.579c-0.497-0.361-0.242-1.147,0.373-1.147h0.986
								c0.414,0,0.78-0.266,0.908-0.66l0.305-0.938C32.614,71.765,33.44,71.765,33.63,72.35z"/>
						</g>
					</g>
				</g>
			</g>
			<g>
				<g>
					<g>
						<g>
							<path class="st7" d="M61.33,48.432c-3.708,10.179-18.127,13.572-18.127,13.572h36.254
								C79.457,62.004,65.038,58.611,61.33,48.432z"/>
							<path class="st6" d="M61.33,48.432c-2.417,10.179-11.815,13.572-11.815,13.572h23.63
								C73.145,62.004,63.747,58.611,61.33,48.432z"/>
							<path class="st7" d="M61.33,48.432c-0.96,10.179-4.694,13.572-4.694,13.572h9.387C66.024,62.004,62.29,58.611,61.33,48.432z"
								/>
							<rect x="42.669" y="66.075" class="st6" width="37.323" height="19.001"/>
							<g>
								<g>
									<rect x="53.631" y="66.075" class="st7" width="4.945" height="19.001"/>
									<rect x="64.254" y="66.075" class="st7" width="4.945" height="19.001"/>
								</g>
								<g>
									<rect x="42.669" y="66.075" class="st7" width="4.945" height="19.001"/>
									<rect x="75.047" y="66.075" class="st7" width="4.945" height="19.001"/>
								</g>
							</g>
						</g>
						<polygon class="st7" points="61.33,45.125 61.33,39.383 69.979,42.254 						"/>
					</g>
				</g>
			</g>
			<path class="st7" d="M41.481,64.466v-0.853c0-0.889,0.72-1.609,1.609-1.609h36.819c0.889,0,1.609,0.72,1.609,1.609v0.853
				c0,0.889-0.72,1.609-1.609,1.609H43.09C42.202,66.075,41.481,65.355,41.481,64.466z"/>
		</g>
		<g>
			<path class="st0" d="M121.33,49.007c0.553,0,1-0.447,1-1v-5.238c0-0.553-0.447-1-1-1c-5.361,0-9.724-4.362-9.724-9.724
				c0-0.345,0.02-2.683,0.052-6.014c0.003-0.267-0.102-0.523-0.289-0.714c-0.188-0.189-0.444-0.296-0.711-0.296H76.5
				c-0.553,0-1,0.447-1,1s0.447,1,1,1h28.915v69.957h-86.11V27.021h34.326c0.552,0,1-0.447,1-1s-0.448-1-1-1H13.342
				c-0.267,0-0.523,0.106-0.71,0.296c-0.188,0.19-0.292,0.447-0.29,0.714c0.032,3.331,0.052,5.669,0.052,6.014
				c0,5.361-4.362,9.724-9.723,9.724c-0.552,0-1,0.447-1,1v5.238c0,0.553,0.448,1,1,1c2.757,0,5,2.243,5,5s-2.243,5-5,5
				c-0.552,0-1,0.447-1,1v3.987c0,0.553,0.448,1,1,1c2.757,0,5,2.243,5,5s-2.243,5-5,5c-0.552,0-1,0.447-1,1v5.238
				c0,0.553,0.448,1,1,1c5.361,0,9.723,4.361,9.723,9.723c0,0.345-0.02,2.683-0.052,6.014c-0.002,0.267,0.102,0.523,0.29,0.714
				c0.188,0.189,0.443,0.296,0.71,0.296h97.316c0.267,0,0.522-0.106,0.711-0.296c0.188-0.19,0.292-0.447,0.289-0.714
				c-0.032-3.331-0.052-5.669-0.052-6.014c0-5.361,4.362-9.723,9.724-9.723c0.553,0,1-0.447,1-1v-5.238c0-0.553-0.447-1-1-1
				c-2.757,0-5-2.243-5-5s2.243-5,5-5c0.553,0,1-0.447,1-1v-3.987c0-0.553-0.447-1-1-1c-2.757,0-5-2.243-5-5
				S118.573,49.007,121.33,49.007z M3.67,80.274v-3.352c3.388-0.486,6-3.408,6-6.929s-2.612-6.442-6-6.929v-2.13
				c3.388-0.486,6-3.408,6-6.929s-2.612-6.442-6-6.929v-3.352c5.998-0.51,10.723-5.554,10.723-11.682
				c0-0.311-0.016-2.225-0.042-5.023h2.953v69.957h-2.953c0.026-2.799,0.042-4.713,0.042-5.023
				C14.393,85.828,9.668,80.784,3.67,80.274z M114.33,54.007c0,3.521,2.612,6.442,6,6.929v2.13c-3.388,0.486-6,3.408-6,6.929
				s2.612,6.442,6,6.929v3.352c-5.998,0.51-10.724,5.554-10.724,11.681c0,0.311,0.016,2.225,0.042,5.023h-2.233V27.021h2.233
				c-0.026,2.799-0.042,4.713-0.042,5.023c0,6.128,4.726,11.172,10.724,11.682v3.352C116.942,47.564,114.33,50.486,114.33,54.007z"
				/>
			<path class="st0" d="M59.862,27.021h10.057c0.553,0,1-0.447,1-1s-0.447-1-1-1H59.862c-0.552,0-1,0.447-1,1
				S59.309,27.021,59.862,27.021z"/>
			<path class="st0" d="M40.481,63.613v0.853c0,0.914,0.474,1.716,1.188,2.183v17.428h-2.582c-0.552,0-1,0.447-1,1s0.448,1,1,1
				h3.582h37.323c0.06,0,0.112-0.024,0.169-0.034c0.057,0.01,0.109,0.034,0.169,0.034h3.582c0.553,0,1-0.447,1-1s-0.447-1-1-1
				h-2.921V66.832c0.898-0.413,1.526-1.316,1.526-2.367v-0.853c0-1.438-1.171-2.609-2.609-2.609h-0.327
				c-1.235-0.314-13.84-3.74-17.253-12.767v-2.39l7.964-2.644c0.408-0.136,0.685-0.519,0.685-0.949s-0.276-0.813-0.685-0.949
				l-8.649-2.871c-0.306-0.102-0.64-0.05-0.9,0.139c-0.26,0.188-0.415,0.489-0.415,0.811v5.663v0.079v3.116
				c-3.417,9.026-16.07,12.462-17.259,12.765C41.641,61.017,40.481,62.181,40.481,63.613z M78.992,84.076H43.669V67.075h35.323
				V84.076z M80.518,64.466c0,0.336-0.273,0.609-0.609,0.609H43.09c-0.336,0-0.609-0.273-0.609-0.609v-0.853
				c0-0.336,0.273-0.609,0.609-0.609h0.113h36.255h0.451c0.336,0,0.609,0.273,0.609,0.609V64.466z M62.329,40.769l4.475,1.485
				l-4.475,1.485V40.769z M61.33,50.862c2.777,5.144,8.092,8.334,12.215,10.142H49.115C53.238,59.196,58.553,56.006,61.33,50.862z"
				/>
		</g>
	</g>
</g>
</svg>
