<?xml version="1.0" encoding="utf-8"?>
<!-- Generator: Adobe Illustrator 23.0.6, SVG Export Plug-In . SVG Version: 6.00 Build 0)  -->
<svg version="1.1" xmlns="http://www.w3.org/2000/svg" xmlns:xlink="http://www.w3.org/1999/xlink" x="0px" y="0px"
	 viewBox="0 0 512 512" style="enable-background:new 0 0 512 512;" xml:space="preserve">
<style type="text/css">
	.st0{fill:#80D6FB;}
	.st1{fill:#46BEE8;}
	.st2{fill:#FFD3B3;}
	.st3{fill:#FCB98B;}
	.st4{fill:#6E83B7;}
	.st5{fill:#EDEFF1;}
	.st6{fill:#466089;}
	.st7{fill:#D3D3D3;}
	.st8{fill:#FFB0AA;}
	.st9{fill:#FF7B7B;}
	.st10{fill:#FFE352;}
	.st11{fill:#FFB236;}
	.st12{fill:#98CA69;}
</style>
<g id="Layer_1">
</g>
<g id="Layer_2">
	<g>
		<g>
			<rect x="256" y="5" class="st5" width="71" height="81"/>
		</g>
		<g>
			<rect x="256" y="5" class="st7" width="10" height="81"/>
		</g>
		<g>
			<path class="st7" d="M256,30.5h35c8.284,0,15,6.716,15,15v0c0,8.284-6.716,15-15,15h-35V30.5z"/>
		</g>
		<g>
			<polygon class="st7" points="186,60.5 151,60.5 136,45.5 151,30.5 186,30.5 			"/>
		</g>
		<g>
			<polygon class="st7" points="358.618,347 327,86 297,86 328.618,347 			"/>
		</g>
		<polygon class="st10" points="378,507 361.283,369 371.618,369 368.953,347 358.618,347 328.618,347 317.953,347 320.618,369 
			331.283,369 348,507 		"/>
		<g>
			<polygon class="st5" points="256,5 186,5 186,86 216,86 210.67,130 240,130 256,86 			"/>
		</g>
		<g>
			<polygon class="st7" points="154.382,347 186,86 216,86 184.382,347 			"/>
		</g>
		<polygon class="st10" points="195.047,347 184.382,347 154.382,347 144.047,347 141.382,369 151.717,369 135,507 165,507 
			181.717,369 192.382,369 		"/>
	</g>
</g>
</svg>
