<?xml version="1.0" encoding="iso-8859-1"?>
<!-- Generator: Adobe Illustrator 23.0.4, SVG Export Plug-In . SVG Version: 6.00 Build 0)  -->
<svg version="1.1" xmlns="http://www.w3.org/2000/svg" xmlns:xlink="http://www.w3.org/1999/xlink" x="0px" y="0px"
	 viewBox="0 0 64 64" style="enable-background:new 0 0 64 64;" xml:space="preserve">
<g id="front-view-07">
	<path style="fill:#C6C6C6;" d="M62.535,46.375c-0.348,2.873-2.809,5.113-5.781,5.113H7.246c-2.965,0-5.426-2.24-5.781-5.113h22.933
		c0.135,1.707,1.572,3.051,3.314,3.051h8.05c1.742,0,3.179-1.344,3.314-3.051H62.535z"/>
	<path style="fill:#98D3ED;" d="M55.15,13.881v30.338H36.892v1.476c0,0.785-0.637,1.422-1.422,1.422h-7.599
		c-0.782,0-1.422-0.64-1.422-1.422v-1.476H8.295V13.879c0-0.264,0.216-0.48,0.48-0.48h45.893
		C54.933,13.399,55.15,13.616,55.15,13.881z"/>
	<path style="fill:#70BBE3;" d="M55.15,13.879v30.328L8.295,13.879c0-0.263,0.21-0.479,0.475-0.479h45.898
		C54.933,13.399,55.15,13.615,55.15,13.879z"/>
	<path style="fill:#646674;" d="M57.707,44.953V13.017c0-1.06-0.86-1.927-1.927-1.927H7.659c-1.06,0-1.92,0.868-1.92,1.927v31.936H0
		v0.711c0,3.996,3.25,7.246,7.246,7.246h49.508c3.996,0,7.246-3.25,7.246-7.246v-0.711H57.707z M7.161,13.017
		c0-0.277,0.22-0.505,0.498-0.505H55.78c0.277,0,0.505,0.228,0.505,0.505v31.936H37.668v1.145c0,1.052-0.853,1.906-1.906,1.906
		h-8.05c-1.052,0-1.906-0.853-1.906-1.906v-1.145H7.161V13.017z M56.754,51.488H7.246c-2.965,0-5.426-2.24-5.781-5.113h22.933
		c0.135,1.707,1.572,3.051,3.314,3.051h8.05c1.742,0,3.179-1.344,3.314-3.051h23.46C62.187,49.248,59.726,51.488,56.754,51.488z
		 M33.513,14.589h-3.584v-0.711h3.584V14.589z"/>
</g>
<g id="Layer_1">
</g>
</svg>
