<?xml version="1.0" encoding="iso-8859-1"?>
<!-- Generator: Adobe Illustrator 23.0.4, SVG Export Plug-In . SVG Version: 6.00 Build 0)  -->
<svg version="1.1" xmlns="http://www.w3.org/2000/svg" xmlns:xlink="http://www.w3.org/1999/xlink" x="0px" y="0px"
	 viewBox="0 0 64 64" style="enable-background:new 0 0 64 64;" xml:space="preserve">
<g id="top-view">
	<path style="fill:#C4CBD4;" d="M56.626,35.931v24.625c0,0.947-0.775,1.722-1.722,1.722H8.099c-0.947,0-1.722-0.775-1.722-1.722
		V35.931c0-0.947,0.775-1.722,1.722-1.722h46.805C55.852,34.209,56.626,34.983,56.626,35.931z"/>
	<path style="fill:#70BBE3;" d="M59.278,4.219c-0.25-0.301-0.62-0.482-1.016-0.482H5.809c-0.387,0-0.749,0.172-1.007,0.465
		C4.552,4.495,4.44,4.882,4.5,5.261l3.616,24.014c0.095,0.646,0.654,1.137,1.309,1.137h44.326c0.637,0,1.188-0.456,1.309-1.085
		l4.503-24.014C59.64,4.925,59.537,4.52,59.278,4.219z"/>
	<path style="fill:#646674;" d="M63.652,4.133c0.207-1.016-0.052-2.058-0.706-2.867C62.292,0.465,61.319,0,60.277,0H3.725
		C2.709,0,1.745,0.448,1.09,1.223c-0.654,0.775-0.93,1.8-0.766,2.798l4.65,27.32c0.129,0.749,0.499,1.403,1.007,1.894
		c-0.801,0.629-1.326,1.601-1.326,2.695v24.625c0,1.903,1.55,3.444,3.444,3.444h46.805c1.894,0,3.444-1.541,3.444-3.444V35.931
		c0-1.076-0.517-2.032-1.292-2.669c0.499-0.474,0.878-1.094,1.025-1.808L63.652,4.133z M56.626,60.556
		c0,0.947-0.775,1.722-1.722,1.722H8.099c-0.947,0-1.722-0.775-1.722-1.722V35.931c0-0.947,0.775-1.722,1.722-1.722h46.805
		c0.947,0,1.722,0.775,1.722,1.722V60.556z M56.394,31.109c-0.164,0.801-0.878,1.378-1.688,1.378H8.366
		c-0.835,0-1.55-0.603-1.696-1.429L2.029,3.737C1.943,3.237,2.081,2.721,2.408,2.333c0.327-0.387,0.809-0.611,1.317-0.611h56.552
		c0.517,0,1.007,0.232,1.335,0.637c0.327,0.396,0.456,0.921,0.353,1.429L56.394,31.109z M11.19,37.92h2.661v2.695H10.76V38.35
		C10.76,38.109,10.958,37.92,11.19,37.92z M49.153,54.511h2.661c0.232,0,0.431-0.189,0.431-0.431v-2.273h-3.091V54.511z
		 M44.848,54.511h3.444v-2.704h-3.444V54.511z M19.017,54.511h24.97v-2.704h-24.97V54.511z M14.712,54.511h3.444v-2.704h-3.444
		V54.511z M10.76,54.081c0,0.241,0.198,0.431,0.431,0.431h2.661v-2.704H10.76V54.081z M10.76,50.947h3.091v-2.583H10.76V50.947z
		 M14.712,50.947h3.444v-2.583h-3.444V50.947z M22.461,48.364h-3.444v2.583h3.444V48.364z M26.766,48.364h-3.444v2.583h3.444V48.364
		z M31.071,48.364h-3.444v2.583h3.444V48.364z M35.376,48.364h-3.444v2.583h3.444V48.364z M39.681,48.364h-3.444v2.583h3.444V48.364
		z M40.543,50.947h3.444v-2.583h-3.444V50.947z M44.848,50.947h3.444v-2.583h-3.444V50.947z M49.153,50.947h3.091v-2.583h-3.091
		V50.947z M49.153,47.503h3.091V44.92h-3.091V47.503z M44.848,47.503h3.444V44.92h-3.444V47.503z M40.543,47.503h3.444V44.92h-3.444
		V47.503z M39.681,44.92h-3.444v2.583h3.444V44.92z M35.376,44.92h-3.444v2.583h3.444V44.92z M31.071,44.92h-3.444v2.583h3.444
		V44.92z M26.766,44.92h-3.444v2.583h3.444V44.92z M22.461,44.92h-3.444v2.583h3.444V44.92z M14.712,47.503h3.444V44.92h-3.444
		V47.503z M10.76,47.503h3.091V44.92H10.76V47.503z M10.76,44.059h3.091v-2.583H10.76V44.059z M14.712,44.059h3.444v-2.583h-3.444
		V44.059z M22.461,41.476h-3.444v2.583h3.444V41.476z M26.766,41.476h-3.444v2.583h3.444V41.476z M31.071,41.476h-3.444v2.583h3.444
		V41.476z M35.376,41.476h-3.444v2.583h3.444V41.476z M39.681,41.476h-3.444v2.583h3.444V41.476z M40.543,44.059h3.444v-2.583
		h-3.444V44.059z M44.848,44.059h3.444v-2.583h-3.444V44.059z M49.153,44.059h3.091v-2.583h-3.091V44.059z M51.813,37.92h-2.661
		v2.695h3.091V38.35C52.244,38.109,52.046,37.92,51.813,37.92z M44.848,40.615h3.444V37.92h-3.444V40.615z M40.543,40.615h3.444
		V37.92h-3.444V40.615z M39.681,37.92h-3.444v2.695h3.444V37.92z M35.376,37.92h-3.444v2.695h3.444V37.92z M31.071,37.92h-3.444
		v2.695h3.444V37.92z M26.766,37.92h-3.444v2.695h3.444V37.92z M22.461,37.92h-3.444v2.695h3.444V37.92z M14.712,40.615h3.444V37.92
		h-3.444V40.615z M34.745,55.671h-9.014c-0.601,0-1.09,0.489-1.09,1.09v2.848c0,0.601,0.489,1.09,1.09,1.09h9.014
		c0.601,0,1.09-0.489,1.09-1.09V56.76C35.835,56.159,35.346,55.671,34.745,55.671z"/>
</g>
<g id="Layer_1">
</g>
</svg>
